<svg width="24" height="24" viewBox="0 0 24 24" fill="none" xmlns="http://www.w3.org/2000/svg">
<path fill-rule="evenodd" clip-rule="evenodd" d="M19.0027 11.4986C20.1078 11.4979 21.0042 12.3935 21.0042 13.4986V16.4971C21.0042 17.6017 20.1087 18.4971 19.0042 18.4971H16.5042L14.8167 19.8472C14.4893 20.109 14.0043 19.8762 14.0042 19.4571V18.4971C12.8997 18.4971 12.0042 17.6017 12.0042 16.4971V13.502C12.0042 12.398 12.8988 11.5029 14.0027 11.502L19.0027 11.4986ZM14.2542 14.2471C13.8401 14.2472 13.5043 14.583 13.5042 14.9971C13.5042 15.4113 13.84 15.7471 14.2542 15.7471C14.6684 15.7471 15.0042 15.4113 15.0042 14.9971C15.0041 14.583 14.6683 14.2471 14.2542 14.2471ZM16.5042 14.2471C16.0901 14.2472 15.7543 14.583 15.7542 14.9971C15.7542 15.4113 16.09 15.7471 16.5042 15.7471C16.9184 15.7471 17.2542 15.4113 17.2542 14.9971C17.2541 14.583 16.9183 14.2471 16.5042 14.2471ZM18.7542 14.2471C18.3401 14.2472 18.0043 14.583 18.0042 14.9971C18.0042 15.4113 18.34 15.7471 18.7542 15.7471C19.1684 15.7471 19.5042 15.4113 19.5042 14.9971C19.5041 14.583 19.1683 14.2471 18.7542 14.2471Z" fill="black"/>
<path d="M8.574 6.35602C8.90695 5.51196 10.1014 5.51197 10.4344 6.35602L11.6077 9.33063C11.7094 9.58824 11.9135 9.792 12.1712 9.89362L12.8992 10.1807C11.5079 10.6435 10.5043 11.955 10.5042 13.5015V16.4971C10.5042 16.7565 10.5327 17.0092 10.5862 17.2525L10.4344 17.6382C10.1014 18.4824 8.90693 18.4824 8.574 17.6382L7.40066 14.6641C7.29904 14.4065 7.09527 14.2023 6.83767 14.1007L3.86307 12.9273C3.01897 12.5944 3.01894 11.3999 3.86307 11.067L6.83767 9.89362C7.0952 9.79197 7.29902 9.58816 7.40066 9.33063L8.574 6.35602Z" fill="black"/>
<path d="M17.0393 3.67633C17.2059 3.25459 17.803 3.25452 17.9695 3.67633L18.5559 5.16364C18.6068 5.29249 18.7088 5.39455 18.8377 5.44538L20.325 6.03229C20.7469 6.19883 20.747 6.79601 20.325 6.96247L18.8377 7.54889C18.7088 7.59972 18.6068 7.70177 18.5559 7.83063L17.9695 9.31794C17.8031 9.73993 17.2059 9.73986 17.0393 9.31794L16.4524 7.83063C16.4016 7.70178 16.2995 7.59971 16.1707 7.54889L14.6834 6.96247C14.2616 6.79595 14.2616 6.19889 14.6834 6.03229L16.1707 5.44538C16.2995 5.39455 16.4016 5.2925 16.4524 5.16364L17.0393 3.67633Z" fill="black"/>
</svg>
