<svg width="24" height="24" viewBox="0 0 24 24" fill="none" xmlns="http://www.w3.org/2000/svg">
<path d="M19.9999 13.9996C20.5518 14 20.9993 14.4476 20.9994 14.9996V17.7471C20.9994 18.2993 20.5516 18.747 19.9994 18.7471H19.4994V19.5113C19.4994 19.7146 19.2694 19.833 19.1039 19.7149L17.7494 18.7471H15.9994C15.4798 18.7471 15.0524 18.3507 15.0038 17.8438L15.4897 17.4971H16.9994C17.9658 17.497 18.7494 16.7135 18.7494 15.7471V13.9991L19.9999 13.9996Z" fill="black"/>
<path d="M8.56973 6.35602C8.90268 5.51196 10.0971 5.51198 10.4301 6.35602L11.6034 9.33063C11.7051 9.58824 11.9093 9.792 12.1669 9.89362L13.7016 10.4991L12.9989 10.4996C11.6188 10.5003 10.5 11.6194 10.4999 12.9996V15.7471C10.4999 16.136 10.5896 16.5039 10.748 16.8321L10.4301 17.6382C10.0972 18.4824 8.90266 18.4824 8.56973 17.6382L7.39639 14.6641C7.29476 14.4065 7.091 14.2023 6.8334 14.1007L3.85879 12.9273C3.0147 12.5944 3.01466 11.3999 3.85879 11.067L6.8334 9.89362C7.09092 9.79197 7.29474 9.58816 7.39639 9.33063L8.56973 6.35602Z" fill="black"/>
<path fill-rule="evenodd" clip-rule="evenodd" d="M16.9994 11.9976C17.5519 11.9974 17.9999 12.4452 17.9999 12.9976V15.7471C17.9999 16.2994 17.5522 16.7471 16.9999 16.7471H15.2499L13.8954 17.7149C13.7299 17.8331 13.4999 17.7146 13.4999 17.5113V16.7471H12.9999C12.4477 16.7471 11.9999 16.2994 11.9999 15.7471V12.9996C12 12.4476 12.4474 11.9999 12.9994 11.9996L16.9994 11.9976ZM13.2499 13.9971C12.9738 13.9972 12.7499 14.2211 12.7499 14.4971C12.7499 14.7733 12.9738 14.9971 13.2499 14.9971C13.526 14.9971 13.7499 14.7733 13.7499 14.4971C13.7499 14.221 13.526 13.9971 13.2499 13.9971ZM14.9999 13.9971C14.7238 13.9972 14.4999 14.2211 14.4999 14.4971C14.4999 14.7733 14.7238 14.9971 14.9999 14.9971C15.276 14.9971 15.4999 14.7733 15.4999 14.4971C15.4999 14.221 15.276 13.9971 14.9999 13.9971ZM16.7499 13.9971C16.4738 13.9972 16.2499 14.2211 16.2499 14.4971C16.2499 14.7733 16.4738 14.9971 16.7499 14.9971C17.026 14.9971 17.2499 14.7733 17.2499 14.4971C17.2499 14.221 17.026 13.9971 16.7499 13.9971Z" fill="black"/>
<path d="M17.0351 3.67633C17.2017 3.2546 17.7987 3.25452 17.9652 3.67633L18.5517 5.16364C18.6025 5.2925 18.7045 5.39455 18.8334 5.44538L20.3207 6.03229C20.7426 6.19883 20.7427 6.796 20.3207 6.96247L18.8334 7.54889C18.7045 7.59972 18.6025 7.70177 18.5517 7.83063L17.9652 9.31794C17.7988 9.73994 17.2016 9.73986 17.0351 9.31794L16.4481 7.83063C16.3973 7.70178 16.2953 7.59971 16.1664 7.54889L14.6791 6.96247C14.2573 6.79595 14.2574 6.19888 14.6791 6.03229L16.1664 5.44538C16.2953 5.39455 16.3973 5.2925 16.4481 5.16364L17.0351 3.67633Z" fill="black"/>
</svg>
