<svg width="24" height="24" viewBox="0 0 24 24" fill="none" xmlns="http://www.w3.org/2000/svg">
<path d="M13.5697 6.35871C13.9027 5.51456 15.0973 5.51456 15.4303 6.35871L16.6034 9.33322C16.705 9.59095 16.909 9.79495 17.1668 9.8966L20.1413 11.0697C20.9854 11.4027 20.9854 12.5973 20.1413 12.9303L17.1668 14.1034C16.909 14.205 16.705 14.409 16.6034 14.6668L15.4303 17.6413C15.0973 18.4854 13.9027 18.4854 13.5697 17.6413L12.3966 14.6668C12.2949 14.409 12.0909 14.205 11.8332 14.1034L8.85871 12.9303C8.01456 12.5973 8.01456 11.4027 8.85871 11.0697L11.8332 9.8966C12.0909 9.79495 12.2949 9.59095 12.3966 9.33322L13.5697 6.35871Z" fill="black"/>
<path d="M6.03486 3.67935C6.20132 3.25728 6.79866 3.25728 6.96512 3.67935L7.55169 5.16661C7.60251 5.29547 7.70451 5.39747 7.83337 5.44829L9.32063 6.03486C9.7427 6.20132 9.7427 6.79866 9.32063 6.96512L7.83337 7.55169C7.70451 7.60251 7.60251 7.70451 7.55169 7.83338L6.96512 9.32063C6.79866 9.74271 6.20132 9.74271 6.03486 9.32063L5.44829 7.83338C5.39747 7.70451 5.29547 7.60251 5.16661 7.55169L3.67935 6.96512C3.25727 6.79866 3.25727 6.20132 3.67935 6.03486L5.16661 5.44829C5.29547 5.39747 5.39747 5.29547 5.44829 5.16661L6.03486 3.67935Z" fill="black"/>
<path d="M6.03486 14.6793C6.20132 14.2573 6.79866 14.2573 6.96512 14.6793L7.55169 16.1666C7.60251 16.2955 7.70451 16.3975 7.83337 16.4483L9.32063 17.0349C9.7427 17.2013 9.7427 17.7987 9.32063 17.9651L7.83337 18.5517C7.70451 18.6025 7.60251 18.7045 7.55169 18.8334L6.96512 20.3206C6.79866 20.7427 6.20132 20.7427 6.03486 20.3206L5.44829 18.8334C5.39747 18.7045 5.29547 18.6025 5.16661 18.5517L3.67935 17.9651C3.25727 17.7987 3.25727 17.2013 3.67935 17.0349L5.16661 16.4483C5.29547 16.3975 5.39747 16.2955 5.44829 16.1666L6.03486 14.6793Z" fill="black"/>
</svg>
