<svg width="24" height="24" viewBox="0 0 24 24" fill="none" xmlns="http://www.w3.org/2000/svg">
<path d="M13.5697 6.35919C13.9027 5.51505 15.0973 5.51505 15.4303 6.35919L16.6034 9.33371C16.705 9.59143 16.909 9.79544 17.1668 9.89708L20.1413 11.0702C20.9854 11.4031 20.9854 12.5978 20.1413 12.9307L17.1668 14.1039C16.909 14.2055 16.705 14.4095 16.6034 14.6672L15.4303 17.6418C15.0973 18.4859 13.9027 18.4859 13.5697 17.6418L12.3966 14.6672C12.2949 14.4095 12.0909 14.2055 11.8332 14.1039L8.85871 12.9307C8.01456 12.5978 8.01456 11.4031 8.85871 11.0702L11.8332 9.89708C12.0909 9.79544 12.2949 9.59143 12.3966 9.33371L13.5697 6.35919Z" fill="black"/>
<path d="M6.03486 3.67984C6.20132 3.25776 6.79866 3.25776 6.96512 3.67984L7.55169 5.16709C7.60251 5.29595 7.70451 5.39796 7.83337 5.44878L9.32063 6.03535C9.7427 6.20181 9.7427 6.79915 9.32063 6.96561L7.83337 7.55218C7.70451 7.603 7.60251 7.705 7.55169 7.83386L6.96512 9.32112C6.79866 9.74319 6.20132 9.74319 6.03486 9.32112L5.44829 7.83386C5.39747 7.705 5.29547 7.603 5.16661 7.55218L3.67935 6.96561C3.25727 6.79915 3.25727 6.20181 3.67935 6.03535L5.16661 5.44878C5.29547 5.39796 5.39747 5.29595 5.44829 5.16709L6.03486 3.67984Z" fill="black"/>
<path d="M6.03486 14.6798C6.20132 14.2578 6.79866 14.2578 6.96512 14.6798L7.55169 16.1671C7.60251 16.296 7.70451 16.398 7.83337 16.4488L9.32063 17.0353C9.7427 17.2018 9.7427 17.7991 9.32063 17.9656L7.83337 18.5522C7.70451 18.603 7.60251 18.705 7.55169 18.8339L6.96512 20.3211C6.79866 20.7432 6.20132 20.7432 6.03486 20.3211L5.44829 18.8339C5.39747 18.705 5.29547 18.603 5.16661 18.5522L3.67935 17.9656C3.25727 17.7991 3.25727 17.2018 3.67935 17.0353L5.16661 16.4488C5.29547 16.398 5.39747 16.296 5.44829 16.1671L6.03486 14.6798Z" fill="black"/>
</svg>
