<svg width="24" height="24" viewBox="0 0 24 24" fill="none" xmlns="http://www.w3.org/2000/svg">
<path fill-rule="evenodd" clip-rule="evenodd" d="M4.66083 8.60278C5.6798 6.77938 7.37431 5.3848 9.40565 4.75776C8.84768 4.02359 7.96512 3.54956 6.97184 3.54956C5.28459 3.54956 3.91681 4.91735 3.91681 6.60459C3.91681 7.3686 4.19726 8.06711 4.66083 8.60278ZM15.6641 18.1023C14.5773 18.8612 13.2553 19.3063 11.8293 19.3063C10.4603 19.3063 9.1871 18.8961 8.12594 18.1919L6.61049 19.7073C6.21996 20.0978 5.5868 20.0978 5.19627 19.7073C4.80575 19.3168 4.80575 18.6836 5.19627 18.2931L6.6405 16.8489C5.69221 15.6921 5.12311 14.2126 5.12311 12.6001C5.12311 8.89641 8.12555 5.89397 11.8293 5.89397C15.533 5.89397 18.5354 8.89641 18.5354 12.6001C18.5354 14.1561 18.0055 15.5883 17.1163 16.7261L18.6832 18.2931C19.0738 18.6836 19.0738 19.3168 18.6832 19.7073C18.2927 20.0978 17.6596 20.0978 17.269 19.7073L15.6641 18.1023ZM19.0797 8.75319C18.1 6.91055 16.4384 5.48569 14.4315 4.81516C14.9865 4.04839 15.8889 3.54956 16.9079 3.54956C18.5951 3.54956 19.9629 4.91735 19.9629 6.60459C19.9629 7.44231 19.6257 8.20128 19.0797 8.75319ZM12.6065 9.27411C12.6065 8.8599 12.2707 8.52411 11.8565 8.52411C11.4423 8.52411 11.1065 8.8599 11.1065 9.27411V12.582C11.1065 12.7809 11.1855 12.9717 11.3262 13.1123L12.9628 14.749C13.2557 15.0419 13.7306 15.0419 14.0235 14.749C14.3164 14.4561 14.3164 13.9812 14.0235 13.6883L12.6065 12.2713V9.27411Z" fill="black"/>
</svg>
