<svg width="24" height="24" viewBox="0 0 24 24" fill="none" xmlns="http://www.w3.org/2000/svg">
<path fill-rule="evenodd" clip-rule="evenodd" d="M13.1147 8.98359C14.2799 8.57175 15.1147 7.46052 15.1147 6.1543C15.1147 4.49744 13.7716 3.1543 12.1147 3.1543C10.4579 3.1543 9.11475 4.49744 9.11475 6.1543C9.11475 7.46052 9.94955 8.57175 11.1147 8.98359V16.4043C11.1147 17.9231 9.88353 19.1543 8.36475 19.1543C6.84596 19.1543 5.61475 17.9231 5.61475 16.4043V15.0685L5.90764 15.3614C6.29816 15.7519 6.93133 15.7519 7.32185 15.3614C7.71238 14.9709 7.71238 14.3377 7.32185 13.9472L5.32185 11.9472C5.03585 11.6612 4.60574 11.5756 4.23206 11.7304C3.85839 11.8852 3.61475 12.2498 3.61475 12.6543V16.4043C3.61475 19.0276 5.74139 21.1543 8.36475 21.1543C9.88901 21.1543 11.2456 20.4363 12.1147 19.3201C12.9839 20.4363 14.3405 21.1543 15.8647 21.1543C18.4881 21.1543 20.6147 19.0276 20.6147 16.4043V12.6543C20.6147 12.2498 20.3711 11.8852 19.9974 11.7304C19.6238 11.5756 19.1936 11.6612 18.9076 11.9472L16.9076 13.9472C16.5171 14.3377 16.5171 14.9709 16.9076 15.3614C17.2982 15.7519 17.9313 15.7519 18.3219 15.3614L18.6147 15.0685V16.4043C18.6147 17.9231 17.3835 19.1543 15.8647 19.1543C14.346 19.1543 13.1147 17.9231 13.1147 16.4043V8.98359ZM12.1147 5.1543C11.5625 5.1543 11.1147 5.60201 11.1147 6.1543C11.1147 6.70658 11.5625 7.1543 12.1147 7.1543C12.667 7.1543 13.1147 6.70658 13.1147 6.1543C13.1147 5.60201 12.667 5.1543 12.1147 5.1543Z" fill="black"/>
</svg>
