<svg width="24" height="24" viewBox="0 0 24 24" fill="none" xmlns="http://www.w3.org/2000/svg">
<path fill-rule="evenodd" clip-rule="evenodd" d="M13.1147 8.98408C14.2799 8.57224 15.1147 7.461 15.1147 6.15479C15.1147 4.49793 13.7716 3.15479 12.1147 3.15479C10.4579 3.15479 9.11475 4.49793 9.11475 6.15479C9.11475 7.461 9.94955 8.57224 11.1147 8.98408V16.4048C11.1147 17.9236 9.88353 19.1548 8.36475 19.1548C6.84596 19.1548 5.61475 17.9236 5.61475 16.4048V15.069L5.90764 15.3619C6.29816 15.7524 6.93133 15.7524 7.32185 15.3619C7.71238 14.9714 7.71238 14.3382 7.32185 13.9477L5.32185 11.9477C5.03585 11.6617 4.60574 11.5761 4.23206 11.7309C3.85839 11.8857 3.61475 12.2503 3.61475 12.6548V16.4048C3.61475 19.0281 5.74139 21.1548 8.36475 21.1548C9.88901 21.1548 11.2456 20.4368 12.1147 19.3206C12.9839 20.4368 14.3405 21.1548 15.8647 21.1548C18.4881 21.1548 20.6147 19.0281 20.6147 16.4048V12.6548C20.6147 12.2503 20.3711 11.8857 19.9974 11.7309C19.6238 11.5761 19.1936 11.6617 18.9076 11.9477L16.9076 13.9477C16.5171 14.3382 16.5171 14.9714 16.9076 15.3619C17.2982 15.7524 17.9313 15.7524 18.3219 15.3619L18.6147 15.069V16.4048C18.6147 17.9236 17.3835 19.1548 15.8647 19.1548C14.346 19.1548 13.1147 17.9236 13.1147 16.4048V8.98408ZM12.1147 5.15479C11.5625 5.15479 11.1147 5.6025 11.1147 6.15479C11.1147 6.70707 11.5625 7.15479 12.1147 7.15479C12.667 7.15479 13.1147 6.70707 13.1147 6.15479C13.1147 5.6025 12.667 5.15479 12.1147 5.15479Z" fill="black"/>
</svg>
