<svg width="24" height="24" viewBox="0 0 24 24" fill="none" xmlns="http://www.w3.org/2000/svg">
<path d="M13.5 4.75C13.5 4.33579 13.8358 4 14.25 4H16.25C18.3211 4 20 5.67893 20 7.75V9.75C20 10.1642 19.6642 10.5 19.25 10.5C18.8358 10.5 18.5 10.1642 18.5 9.75V7.75C18.5 6.50736 17.4926 5.5 16.25 5.5H14.25C13.8358 5.5 13.5 5.16421 13.5 4.75Z" fill="black"/>
<path d="M7 8.5C7 7.67157 7.67157 7 8.5 7H15.5C16.3284 7 17 7.67157 17 8.5V15.5C17 16.3284 16.3284 17 15.5 17H8.5C7.67157 17 7 16.3284 7 15.5V8.5Z" fill="black"/>
<path d="M5.5 14.25C5.5 13.8358 5.16421 13.5 4.75 13.5C4.33579 13.5 4 13.8358 4 14.25V16.25C4 18.3211 5.67893 20 7.75 20H9.75C10.1642 20 10.5 19.6642 10.5 19.25C10.5 18.8358 10.1642 18.5 9.75 18.5H7.75C6.50736 18.5 5.5 17.4926 5.5 16.25V14.25Z" fill="black"/>
<path d="M19.25 13.5C19.6642 13.5 20 13.8358 20 14.25V16.25C20 18.3211 18.3211 20 16.25 20H14.25C13.8358 20 13.5 19.6642 13.5 19.25C13.5 18.8358 13.8358 18.5 14.25 18.5H16.25C17.4926 18.5 18.5 17.4926 18.5 16.25V14.25C18.5 13.8358 18.8358 13.5 19.25 13.5Z" fill="black"/>
<path d="M5.5 7.75C5.5 6.50736 6.50736 5.5 7.75 5.5H9.75C10.1642 5.5 10.5 5.16421 10.5 4.75C10.5 4.33579 10.1642 4 9.75 4H7.75C5.67893 4 4 5.67893 4 7.75V9.75C4 10.1642 4.33579 10.5 4.75 10.5C5.16421 10.5 5.5 10.1642 5.5 9.75V7.75Z" fill="black"/>
</svg>
