<svg width="24" height="24" viewBox="0 0 24 24" fill="none" xmlns="http://www.w3.org/2000/svg">
<path d="M19.9988 8.43172C19.9979 8.27074 19.996 8.10981 19.9916 7.94888C19.9822 7.59835 19.9615 7.24475 19.8992 6.89813C19.836 6.54613 19.7328 6.21853 19.57 5.89875C19.41 5.58462 19.2012 5.29724 18.9519 5.048C18.7027 4.79875 18.4152 4.58982 18.101 4.42987C17.7814 4.26716 17.454 4.16396 17.1022 4.10071C16.7554 4.03836 16.4017 4.01773 16.051 4.00822C15.8901 4.00387 15.7292 4.002 15.5682 4.00102C15.3771 3.99991 15.186 4 14.9949 4H9.00501C8.8139 4 8.62283 3.99991 8.43172 4.00107C8.27074 4.00205 8.10981 4.00391 7.94888 4.00827C7.59821 4.01773 7.24448 4.0384 6.89773 4.10076C6.54595 4.164 6.21853 4.2672 5.89888 4.42991C5.58471 4.58982 5.29724 4.79875 5.048 5.04804C4.7988 5.29729 4.58987 5.58466 4.42996 5.8988C4.26716 6.21857 4.16391 6.54617 4.10067 6.89817C4.0384 7.24475 4.01773 7.59835 4.00827 7.94888C4.00391 8.10981 4.00205 8.27074 4.00107 8.43172C3.99991 8.62279 4 8.8139 4 9.00501V14.995C4 15.1861 3.99991 15.3772 4.00107 15.5683C4.00205 15.7293 4.00391 15.8902 4.00827 16.0511C4.01773 16.4017 4.0384 16.7553 4.10067 17.1019C4.16391 17.4539 4.26716 17.7815 4.42996 18.1012C4.58987 18.4154 4.7988 18.7028 5.048 18.952C5.29724 19.2012 5.58471 19.4102 5.89888 19.5701C6.21848 19.7328 6.54591 19.836 6.89773 19.8992C7.24448 19.9616 7.59821 19.9822 7.94888 19.9917C8.10981 19.9961 8.27074 19.998 8.43172 19.9989C8.62283 20.0001 8.8139 20 9.00501 20H14.995C15.1861 20 15.3772 20.0001 15.5683 19.9989C15.7293 19.998 15.8902 19.9961 16.0511 19.9917C16.4018 19.9823 16.7555 19.9616 17.1023 19.8992C17.4541 19.836 17.7815 19.7328 18.1011 19.5701C18.4153 19.4102 18.7028 19.2012 18.952 18.952C19.2012 18.7028 19.4101 18.4154 19.57 18.1012C19.7328 17.7815 19.8361 17.4539 19.8993 17.1019C19.9616 16.7553 19.9823 16.4017 19.9917 16.0511C19.9961 15.8902 19.998 15.7293 19.9989 15.5683C20.0001 15.3772 20 15.1861 20 14.995V9.00501C19.9999 8.8139 20 8.62279 19.9988 8.43172ZM13.2255 14.6034C13.1874 15.0516 13.115 15.6493 13.0204 16.2581C12.9532 16.6913 12.8985 16.9251 12.8487 17.0925C12.768 17.3639 12.4665 17.6012 11.9949 17.6012C11.5234 17.6012 11.2218 17.3639 11.1411 17.0925C11.0913 16.9251 11.0366 16.6913 10.9694 16.2581C10.8748 15.6493 10.8024 15.0516 10.7642 14.6034C10.7242 14.133 10.7034 13.8388 10.7404 13.4971C10.7595 13.3206 10.82 13.1968 10.9346 13.0759C11.1541 12.8444 11.5397 12.696 11.9949 12.696C12.4501 12.696 12.8357 12.8444 13.0551 13.0759C13.1697 13.1968 13.2303 13.3206 13.2494 13.4971C13.2863 13.8388 13.2656 14.133 13.2255 14.6034ZM10.0882 13.4666C10.1341 13.5098 10.1587 13.571 10.1552 13.6338C10.1444 13.8253 10.1483 14.0112 10.1611 14.2213C10.1645 14.2772 10.1019 14.3131 10.0557 14.2815C9.1351 13.6528 8.53359 12.59 8.54892 11.3902C8.5723 9.56616 10.0352 8.06319 11.8586 7.99257C13.8207 7.91652 15.4413 9.49021 15.4413 11.4351C15.4413 12.6163 14.8434 13.6604 13.9345 14.2814C13.8882 14.313 13.8254 14.2773 13.8289 14.2213C13.8416 14.0113 13.8455 13.8253 13.8347 13.6339C13.8312 13.571 13.8559 13.5097 13.9018 13.4666C14.4439 12.9578 14.783 12.2354 14.783 11.4351C14.783 9.86176 13.4721 8.58865 11.8848 8.65012C10.4243 8.7067 9.24643 9.89976 9.20794 11.3603C9.18603 12.1902 9.52923 12.942 10.0882 13.4666ZM13.1922 11.0155C13.1922 11.6766 12.6561 12.2124 11.9949 12.2124C11.3336 12.2124 10.7976 11.6766 10.7976 11.0155C10.7976 10.3545 11.3336 9.81865 11.9949 9.81865C12.6561 9.81865 13.1922 10.3545 13.1922 11.0155ZM13.6975 16.2881C13.6484 16.3053 13.5986 16.2645 13.6063 16.2131C13.6329 16.0372 13.6578 15.8604 13.6808 15.6865C13.6889 15.625 13.7278 15.5719 13.7846 15.5471C15.3701 14.8548 16.4811 13.2723 16.4811 11.4351C16.4811 8.94994 14.4485 6.93039 11.958 6.95053C9.52176 6.97022 7.53244 8.95563 7.50897 11.3911C7.49106 13.247 8.60692 14.849 10.2049 15.5469C10.2617 15.5717 10.3009 15.6248 10.309 15.6862C10.332 15.8601 10.357 16.0371 10.3835 16.2131C10.3912 16.2646 10.3414 16.3053 10.2923 16.2881C8.27057 15.5772 6.82275 13.6376 6.85084 11.3702C6.88555 8.57114 9.1799 6.30026 11.98 6.29231C14.8235 6.28426 17.1393 8.59439 17.1393 11.4351C17.1393 13.6746 15.6999 15.584 13.6975 16.2881Z" fill="black"/>
</svg>
