<svg width="24" height="24" viewBox="0 0 24 24" fill="none" xmlns="http://www.w3.org/2000/svg">
<path fill-rule="evenodd" clip-rule="evenodd" d="M10.391 1.04866C10.9134 0.638205 11.6696 0.728952 12.0801 1.25135L14.9165 4.86129L12.021 8.02004C11.572 8.50977 10.8111 8.54286 10.3214 8.09394C9.83165 7.64502 9.79856 6.88409 10.2475 6.39435L10.6051 6.00428H5.72108V13.4223C5.72108 14.0866 5.18251 14.6252 4.51815 14.6252C3.8538 14.6252 3.31523 14.0866 3.31523 13.4223V5.20233C3.31523 4.31652 4.03332 3.59843 4.91913 3.59843H10.8646L10.1883 2.73773C9.77789 2.21533 9.86864 1.45911 10.391 1.04866Z" fill="black"/>
<path fill-rule="evenodd" clip-rule="evenodd" d="M14.2833 22.3877C13.7609 22.7982 13.0046 22.7074 12.5942 22.1851L9.7578 18.5751L12.6533 15.4164C13.1022 14.9266 13.8632 14.8935 14.3529 15.3425C14.8426 15.7914 14.8757 16.5523 14.4268 17.042L14.0692 17.4321H18.9532V10.0141C18.9532 9.34975 19.4918 8.81119 20.1561 8.81119C20.8205 8.81119 21.3591 9.34975 21.3591 10.0141V18.2341C21.3591 19.1199 20.641 19.838 19.7552 19.838H13.8097L14.4859 20.6987C14.8964 21.2211 14.8057 21.9773 14.2833 22.3877Z" fill="black"/>
<path fill-rule="evenodd" clip-rule="evenodd" d="M21.5595 5.00189C21.5595 6.44132 20.3926 7.60822 18.9532 7.60822C17.5138 7.60822 16.3469 6.44132 16.3469 5.00189C16.3469 3.56245 17.5138 2.39556 18.9532 2.39556C20.3926 2.39556 21.5595 3.56245 21.5595 5.00189Z" fill="black"/>
<path fill-rule="evenodd" clip-rule="evenodd" d="M3.11475 18.4345C3.11475 16.9951 4.28164 15.8282 5.72108 15.8282C7.16051 15.8282 8.32741 16.9951 8.32741 18.4345C8.32741 19.8739 7.16051 21.0408 5.72108 21.0408C4.28164 21.0408 3.11475 19.8739 3.11475 18.4345Z" fill="black"/>
</svg>
