<svg width="24" height="24" viewBox="0 0 24 24" fill="none" xmlns="http://www.w3.org/2000/svg">
<path d="M6.70734 6.00081L9.37092 8.66439C10.0806 7.80466 10.5026 6.70109 10.5026 5.50061C10.5026 5.04105 10.4401 4.59712 10.3244 4.17507C8.95825 4.46894 7.72025 5.10982 6.70734 6.00081ZM6.00081 6.70734C5.10982 7.72025 4.46894 8.95825 4.17507 10.3244C4.59712 10.4401 5.04105 10.5026 5.50061 10.5026C6.70109 10.5026 7.80466 10.0806 8.66751 9.37405L6.00081 6.70734ZM12.0032 4C11.775 4 11.5468 4.00938 11.3217 4.02814C11.4405 4.5002 11.503 4.99415 11.503 5.50061C11.503 6.97933 10.9684 8.32988 10.0837 9.37717L12.0032 11.2967L17.2991 6.00081C15.8861 4.75656 14.0322 4 12.0032 4ZM5.50061 11.503C4.99415 11.503 4.5002 11.4405 4.02814 11.3217C4.00938 11.5468 4 11.775 4 12.0032C4 14.0322 4.75656 15.8861 6.00081 17.2991L11.2967 12.0032L9.37717 10.0837C8.32988 10.9684 6.97933 11.503 5.50061 11.503ZM19.9783 12.6848C19.9971 12.4597 20.0065 12.2315 20.0065 12.0032C20.0065 9.97429 19.2499 8.12042 18.0057 6.70734L12.7098 12.0032L14.6293 13.9228C15.6735 13.038 17.0271 12.5034 18.5059 12.5034C19.0123 12.5034 19.5063 12.566 19.9783 12.6848ZM19.8314 13.682C19.4094 13.5664 18.9654 13.5038 18.5059 13.5038C17.3054 13.5038 16.2018 13.9259 15.339 14.6324L18.0057 17.2991C18.8966 16.2893 19.5407 15.0513 19.8314 13.682ZM14.6324 15.339C13.9259 16.2018 13.5038 17.3054 13.5038 18.5059C13.5038 18.9654 13.5664 19.4094 13.682 19.8314C15.0482 19.5375 16.2862 18.8966 17.2991 18.0057L14.6355 15.3421L14.6324 15.339ZM13.9228 14.6293L12.0032 12.7098L6.70734 18.0057C8.11729 19.2499 9.97116 20.0065 12.0032 20.0065C12.2315 20.0065 12.4597 19.9971 12.6848 19.9783C12.566 19.5063 12.5034 19.0123 12.5034 18.5059C12.5034 17.0271 13.038 15.6766 13.9228 14.6293Z" fill="black"/>
</svg>
