<svg width="24" height="24" viewBox="0 0 24 24" fill="none" xmlns="http://www.w3.org/2000/svg">
<path d="M4.20119 10.2135C4.89037 7.17287 7.28845 4.82667 10.3034 4.17888C10.5569 4.74835 10.6979 5.37903 10.6979 6.04264C10.6979 8.57564 8.64446 10.629 6.11146 10.629C5.42974 10.629 4.78275 10.4803 4.20119 10.2135Z" fill="black"/>
<path d="M4.005 11.7554C4.66139 11.9975 5.37098 12.1297 6.11146 12.1297C9.47325 12.1297 12.1985 9.40443 12.1985 6.04264C12.1985 5.32659 12.0749 4.63943 11.8478 4.00132C12.0108 3.99839 12.175 4.00032 12.3402 4.00727C16.7214 4.19146 20.1106 7.82766 20.0046 12.193C19.3581 11.9591 18.6606 11.8315 17.9333 11.8315C14.5715 11.8315 11.8462 14.5568 11.8462 17.9186C11.8462 18.6461 11.9738 19.3437 12.2079 19.9904C12.0291 19.999 11.849 20.0019 11.6679 19.9988C7.2673 19.8138 3.86758 16.1463 4.005 11.7554Z" fill="black"/>
<path d="M19.7902 13.7237C19.0647 16.7534 16.686 19.061 13.7366 19.7717C13.486 19.205 13.3468 18.5781 13.3468 17.9186C13.3468 15.3856 15.4003 13.3322 17.9333 13.3322C18.5942 13.3322 19.2225 13.472 19.7902 13.7237Z" fill="black"/>
</svg>
