<svg width="24" height="24" viewBox="0 0 24 24" fill="none" xmlns="http://www.w3.org/2000/svg">
<path fill-rule="evenodd" clip-rule="evenodd" d="M10.9984 4.49588C11.2721 4.01622 11.1052 3.40545 10.6256 3.13168C10.1459 2.85791 9.53514 3.02481 9.26137 3.50447L6.12461 9.00017H3.85254C3.30025 9.00017 2.85254 9.44789 2.85254 10.0002C2.85254 10.5345 3.27166 10.971 3.79911 10.9988L5.50004 17.506C5.73012 18.3862 6.52526 19.0002 7.43503 19.0002H16.3366C17.2526 19.0002 18.0515 18.3779 18.2757 17.4898L19.9148 10.9983C20.4381 10.9661 20.8525 10.5316 20.8525 10.0002C20.8525 9.44789 20.4048 9.00017 19.8525 9.00017H17.6172L14.4804 3.50447C14.2067 3.02481 13.5959 2.85791 13.1162 3.13168C12.6366 3.40545 12.4697 4.01622 12.7435 4.49588L15.3144 9.00017H8.42745L10.9984 4.49588ZM8.39917 11.8454C8.81338 11.8454 9.14917 12.1812 9.14917 12.5954V15.9033C9.14917 16.3175 8.81338 16.6533 8.39917 16.6533C7.98496 16.6533 7.64917 16.3175 7.64917 15.9033V12.5954C7.64917 12.1812 7.98496 11.8454 8.39917 11.8454ZM12.6025 12.5954C12.6025 12.1812 12.2668 11.8454 11.8525 11.8454C11.4383 11.8454 11.1025 12.1812 11.1025 12.5954V15.9033C11.1025 16.3175 11.4383 16.6533 11.8525 16.6533C12.2668 16.6533 12.6025 16.3175 12.6025 15.9033V12.5954ZM16.1306 12.5954C16.1306 12.1812 15.7948 11.8454 15.3806 11.8454C14.9664 11.8454 14.6306 12.1812 14.6306 12.5954V15.9033C14.6306 16.3175 14.9664 16.6533 15.3806 16.6533C15.7948 16.6533 16.1306 16.3175 16.1306 15.9033V12.5954Z" fill="black"/>
</svg>
