<svg width="24" height="24" viewBox="0 0 24 24" fill="none" xmlns="http://www.w3.org/2000/svg">
<path fill-rule="evenodd" clip-rule="evenodd" d="M10.9984 4.49569C11.2721 4.01604 11.1052 3.40527 10.6256 3.1315C10.1459 2.85773 9.53514 3.02463 9.26137 3.50428L6.12461 8.99999H3.85254C3.30025 8.99999 2.85254 9.4477 2.85254 9.99999C2.85254 10.5343 3.27166 10.9708 3.79911 10.9986L5.50004 17.5058C5.73012 18.386 6.52526 19 7.43503 19H16.3366C17.2526 19 18.0515 18.3777 18.2757 17.4896L19.9148 10.9981C20.4381 10.966 20.8525 10.5314 20.8525 9.99999C20.8525 9.4477 20.4048 8.99999 19.8525 8.99999H17.6172L14.4804 3.50428C14.2067 3.02463 13.5959 2.85773 13.1162 3.1315C12.6366 3.40527 12.4697 4.01604 12.7435 4.49569L15.3144 8.99999H8.42745L10.9984 4.49569ZM8.39917 11.8452C8.81338 11.8452 9.14917 12.181 9.14917 12.5952V15.9031C9.14917 16.3173 8.81338 16.6531 8.39917 16.6531C7.98496 16.6531 7.64917 16.3173 7.64917 15.9031V12.5952C7.64917 12.181 7.98496 11.8452 8.39917 11.8452ZM12.6025 12.5952C12.6025 12.181 12.2668 11.8452 11.8525 11.8452C11.4383 11.8452 11.1025 12.181 11.1025 12.5952V15.9031C11.1025 16.3173 11.4383 16.6531 11.8525 16.6531C12.2668 16.6531 12.6025 16.3173 12.6025 15.9031V12.5952ZM16.1306 12.5952C16.1306 12.181 15.7948 11.8452 15.3806 11.8452C14.9664 11.8452 14.6306 12.181 14.6306 12.5952V15.9031C14.6306 16.3173 14.9664 16.6531 15.3806 16.6531C15.7948 16.6531 16.1306 16.3173 16.1306 15.9031V12.5952Z" fill="black"/>
</svg>
