<svg width="24" height="24" viewBox="0 0 24 24" fill="none" xmlns="http://www.w3.org/2000/svg">
<path d="M18.4343 14.3848C18.3749 14.3133 18.3167 14.2418 18.2594 14.1728C17.4728 13.2213 16.9969 13.6745 16.9971 10.6283C16.9971 9.23381 16.6636 8.08965 16.006 7.23153C15.5212 6.5976 14.8658 6.11669 14.002 5.76129C13.9908 5.75511 13.9809 5.74699 13.9726 5.73733C13.6619 4.69686 12.8117 4 11.8527 4C10.8938 4 10.0439 4.69686 9.73317 5.73626C9.72488 5.74557 9.71509 5.75342 9.70421 5.7595C7.68834 6.58937 6.70866 8.18154 6.70866 10.6272C6.70845 13.6745 6.23327 13.2213 5.44595 14.1717C5.38874 14.2407 5.33046 14.3108 5.27111 14.3837C5.11779 14.5686 5.02065 14.7936 4.99118 15.0319C4.96172 15.2703 5.00116 15.5122 5.10485 15.7288C5.32545 16.1936 5.79563 16.4822 6.33231 16.4822H17.3767C17.9108 16.4822 18.3778 16.194 18.5991 15.7313C18.7033 15.5146 18.7431 15.2726 18.7139 15.0339C18.6846 14.7953 18.5876 14.57 18.4343 14.3848Z" fill="black"/>
<path d="M13.5619 19.527C13.0451 19.8361 12.4544 19.9995 11.8523 20C11.2503 19.9994 10.6596 19.836 10.143 19.5269C9.62634 19.2179 9.20296 18.7748 8.91774 18.2446C8.90428 18.2191 8.89764 18.1906 8.89847 18.1619C8.89929 18.1331 8.90756 18.105 8.92245 18.0804C8.93735 18.0558 8.95836 18.0354 8.98346 18.0213C9.00855 18.0073 9.03687 17.9999 9.06565 18H14.6398C14.6685 18 14.6968 18.0074 14.7218 18.0215C14.7469 18.0356 14.7678 18.056 14.7827 18.0806C14.7975 18.1052 14.8057 18.1332 14.8066 18.162C14.8074 18.1907 14.8007 18.2192 14.7873 18.2446C14.502 18.7748 14.0786 19.218 13.5619 19.527Z" fill="black"/>
</svg>
