<svg width="24" height="24" viewBox="0 0 24 24" fill="none" xmlns="http://www.w3.org/2000/svg">
<path d="M18.4342 14.385C18.3749 14.3135 18.3166 14.242 18.2594 14.173C17.4728 13.2216 16.9969 13.6748 16.9971 10.6285C16.9971 9.23406 16.6635 8.0899 16.006 7.23178C15.5211 6.59784 14.8657 6.11694 14.0019 5.76154C13.9908 5.75535 13.9808 5.74724 13.9726 5.73758C13.6619 4.69711 12.8116 4.00025 11.8527 4.00025C10.8937 4.00025 10.0438 4.69711 9.73311 5.73651C9.72481 5.74581 9.71503 5.75367 9.70414 5.75975C7.68828 6.58962 6.70859 8.18179 6.70859 10.6274C6.70839 13.6748 6.23321 13.2216 5.44589 14.1719C5.38868 14.2409 5.3304 14.311 5.27104 14.384C5.11773 14.5689 5.02059 14.7938 4.99112 15.0322C4.96166 15.2706 5.0011 15.5124 5.10478 15.7291C5.32539 16.1939 5.79557 16.4824 6.33225 16.4824H17.3766C17.9108 16.4824 18.3777 16.1942 18.5991 15.7316C18.7032 15.5149 18.743 15.2728 18.7138 15.0342C18.6846 14.7955 18.5876 14.5702 18.4342 14.385Z" fill="black"/>
<path d="M13.5618 19.5273C13.0451 19.8363 12.4543 19.9998 11.8522 20.0002C11.2502 19.9997 10.6596 19.8362 10.1429 19.5272C9.62627 19.2181 9.20289 18.775 8.91767 18.2448C8.90422 18.2194 8.89758 18.1909 8.89841 18.1621C8.89923 18.1334 8.9075 18.1053 8.92239 18.0807C8.93728 18.056 8.9583 18.0357 8.9834 18.0216C9.00849 18.0075 9.03681 18.0001 9.06559 18.0002H14.6397C14.6685 18.0002 14.6967 18.0076 14.7218 18.0217C14.7468 18.0359 14.7678 18.0562 14.7826 18.0808C14.7975 18.1055 14.8057 18.1335 14.8065 18.1622C14.8073 18.191 14.8007 18.2194 14.7872 18.2448C14.502 18.7751 14.0785 19.2182 13.5618 19.5273Z" fill="black"/>
</svg>
