<svg width="24" height="24" viewBox="0 0 24 24" fill="none" xmlns="http://www.w3.org/2000/svg">
<path d="M16.8444 14.1664L16.8632 14.1672L16.8819 14.1675C17.3139 14.1749 17.7368 14.1307 18.1439 14.0403C18.1816 14.0814 18.2201 14.1255 18.2594 14.173C18.2869 14.2061 18.3145 14.2397 18.3424 14.2736C18.3727 14.3105 18.4034 14.3478 18.4343 14.385C18.5876 14.5702 18.6846 14.7955 18.7139 15.0342C18.7431 15.2728 18.7033 15.5149 18.5991 15.7316C18.3778 16.1942 17.9108 16.4824 17.3767 16.4824H6.33231C5.79563 16.4824 5.32545 16.1939 5.10485 15.7291C5.00116 15.5124 4.96172 15.2706 4.99118 15.0322C5.02065 14.7938 5.11779 14.5689 5.27111 14.384C5.32303 14.3202 5.37414 14.2585 5.42442 14.1979L5.44595 14.1719C5.62161 13.9599 5.78173 13.8177 5.92451 13.691C6.42167 13.2496 6.7085 12.9949 6.70866 10.6274C6.70866 8.18179 7.68834 6.58962 9.70421 5.75975C9.71509 5.75367 9.72488 5.74581 9.73317 5.7365C10.0439 4.69711 10.8938 4.00024 11.8527 4.00024C12.529 4.00024 13.1512 4.34684 13.5683 4.91611C12.5266 5.83441 11.8477 7.16073 11.7846 8.66244C11.6617 11.5863 13.9206 14.0435 16.8444 14.1664Z" fill="black"/>
<path d="M11.8523 20.0002C12.4544 19.9997 13.0451 19.8363 13.5619 19.5273C14.0786 19.2182 14.502 18.7751 14.7873 18.2448C14.8007 18.2194 14.8074 18.191 14.8066 18.1622C14.8057 18.1335 14.7975 18.1055 14.7827 18.0808C14.7678 18.0562 14.7469 18.0359 14.7218 18.0217C14.6968 18.0076 14.6685 18.0002 14.6398 18.0002H9.06565C9.03687 18.0001 9.00855 18.0075 8.98346 18.0216C8.95836 18.0357 8.93735 18.056 8.92245 18.0807C8.90756 18.1053 8.89929 18.1334 8.89847 18.1621C8.89764 18.1909 8.90428 18.2194 8.91774 18.2448C9.20296 18.775 9.62634 19.2181 10.143 19.5272C10.6596 19.8362 11.2503 19.9997 11.8523 20.0002Z" fill="black"/>
<path fill-rule="evenodd" clip-rule="evenodd" d="M13.2832 8.72542C13.1951 10.8215 14.8113 12.5796 16.9074 12.6677C18.9546 12.7026 20.7105 11.1375 20.8497 9.04352C20.9378 6.94739 19.3217 5.18934 17.2255 5.10122C15.1294 5.01309 13.3713 6.62929 13.2832 8.72542Z" fill="black"/>
</svg>
