<svg width="24" height="24" viewBox="0 0 24 24" fill="none" xmlns="http://www.w3.org/2000/svg">
<path d="M6.71691 4.68799C6.31995 4.29103 5.67636 4.29103 5.27941 4.68799C4.88245 5.08494 4.88245 5.72854 5.27941 6.12549L7.22563 8.07171C6.90104 8.78789 6.74062 9.63778 6.74062 10.6274C6.74047 12.9949 6.45363 13.2496 5.95648 13.691C5.8137 13.8177 5.65358 13.9599 5.47791 14.1719L5.45676 14.1974L5.45626 14.1981C5.40611 14.2585 5.35486 14.3203 5.30307 14.384C5.14976 14.5689 5.05262 14.7938 5.02315 15.0322C4.99369 15.2706 5.03313 15.5124 5.13681 15.7291C5.35742 16.1939 5.8276 16.4824 6.36428 16.4824H15.6363L17.9834 18.8295C18.3804 19.2265 19.024 19.2265 19.4209 18.8295C19.8179 18.4326 19.8179 17.789 19.4209 17.392L6.71691 4.68799Z" fill="black"/>
<path d="M9.79444 5.64419L17.4089 13.2587C17.1639 12.8806 17.029 12.2508 17.0291 10.6285C17.0291 9.23406 16.6955 8.0899 16.038 7.23178C15.5531 6.59784 14.8978 6.11694 14.0339 5.76153C14.0228 5.75535 14.0129 5.74724 14.0046 5.73758C13.6939 4.69711 12.8436 4.00024 11.8847 4.00024C10.9544 4.00024 10.1268 4.65606 9.79444 5.64419Z" fill="black"/>
<path d="M11.8843 20.0002C12.4864 19.9997 13.0771 19.8363 13.5939 19.5273C14.1106 19.2182 14.534 18.7751 14.8193 18.2448C14.8327 18.2194 14.8394 18.191 14.8386 18.1622C14.8378 18.1335 14.8295 18.1055 14.8147 18.0808C14.7998 18.0562 14.7789 18.0359 14.7538 18.0217C14.7288 18.0076 14.7005 18.0002 14.6718 18.0002H9.09766C9.06887 18.0001 9.04056 18.0075 9.01546 18.0216C8.99037 18.0357 8.96935 18.056 8.95446 18.0807C8.93956 18.1053 8.9313 18.1334 8.93047 18.1621C8.92965 18.1909 8.93629 18.2194 8.94974 18.2448C9.23496 18.775 9.65834 19.2181 10.175 19.5272C10.6916 19.8362 11.2823 19.9997 11.8843 20.0002Z" fill="black"/>
</svg>
