<svg width="24" height="24" viewBox="0 0 24 24" fill="none" xmlns="http://www.w3.org/2000/svg">
<path d="M6.71691 4.68774C6.31995 4.29079 5.67636 4.29079 5.27941 4.68774C4.88245 5.0847 4.88245 5.72829 5.27941 6.12525L7.22563 8.07147C6.90104 8.78765 6.74062 9.63754 6.74062 10.6272C6.74047 12.9946 6.45363 13.2493 5.95648 13.6907C5.8137 13.8175 5.65358 13.9597 5.47791 14.1717L5.45676 14.1972L5.45626 14.1978C5.40611 14.2583 5.35486 14.3201 5.30307 14.3837C5.14976 14.5686 5.05262 14.7936 5.02315 15.0319C4.99369 15.2703 5.03313 15.5122 5.13681 15.7288C5.35742 16.1936 5.8276 16.4822 6.36428 16.4822H15.6363L17.9834 18.8293C18.3804 19.2262 19.024 19.2262 19.4209 18.8293C19.8179 18.4323 19.8179 17.7887 19.4209 17.3918L6.71691 4.68774Z" fill="black"/>
<path d="M9.79444 5.64395L17.4089 13.2584C17.1639 12.8804 17.029 12.2506 17.0291 10.6283C17.0291 9.23381 16.6955 8.08965 16.038 7.23153C15.5531 6.5976 14.8978 6.11669 14.0339 5.76129C14.0228 5.75511 14.0129 5.74699 14.0046 5.73733C13.6939 4.69686 12.8436 4 11.8847 4C10.9544 4 10.1268 4.65581 9.79444 5.64395Z" fill="black"/>
<path d="M11.8843 20C12.4864 19.9995 13.0771 19.8361 13.5939 19.527C14.1106 19.218 14.534 18.7748 14.8193 18.2446C14.8327 18.2192 14.8394 18.1907 14.8386 18.162C14.8378 18.1332 14.8295 18.1052 14.8147 18.0806C14.7998 18.056 14.7789 18.0356 14.7538 18.0215C14.7288 18.0074 14.7005 18 14.6718 18H9.09766C9.06887 17.9999 9.04056 18.0073 9.01546 18.0213C8.99037 18.0354 8.96935 18.0558 8.95446 18.0804C8.93956 18.105 8.9313 18.1331 8.93047 18.1619C8.92965 18.1906 8.93629 18.2191 8.94974 18.2446C9.23496 18.7748 9.65834 19.2179 10.175 19.5269C10.6916 19.836 11.2823 19.9994 11.8843 20Z" fill="black"/>
</svg>
