<svg width="24" height="24" viewBox="0 0 24 24" fill="none" xmlns="http://www.w3.org/2000/svg">
<path d="M6.71685 4.68799C6.31989 4.29103 5.6763 4.29103 5.27934 4.68799C4.88239 5.08494 4.88239 5.72854 5.27935 6.12549L7.22557 8.07171C6.90098 8.78789 6.74056 9.63778 6.74056 10.6274C6.74041 12.9949 6.45357 13.2496 5.95642 13.691C5.81364 13.8177 5.65352 13.9599 5.47785 14.1719L5.4567 14.1974L5.4562 14.1981C5.40605 14.2585 5.35479 14.3203 5.30301 14.384C5.1497 14.5689 5.05256 14.7938 5.02309 15.0322C4.99363 15.2706 5.03307 15.5124 5.13675 15.7291C5.35736 16.1939 5.82754 16.4824 6.36422 16.4824H15.6363L17.9834 18.8295C18.3803 19.2265 19.0239 19.2265 19.4209 18.8295C19.8178 18.4326 19.8178 17.789 19.4209 17.392L6.71685 4.68799Z" fill="black"/>
<path d="M9.79438 5.64419L17.4088 13.2587C17.1639 12.8806 17.0289 12.2508 17.029 10.6285C17.029 9.23406 16.6955 8.0899 16.0379 7.23178C15.5531 6.59784 14.8977 6.11694 14.0339 5.76154C14.0227 5.75535 14.0128 5.74724 14.0045 5.73758C13.6938 4.69711 12.8436 4.00025 11.8846 4.00025C10.9544 4.00025 10.1267 4.65606 9.79438 5.64419Z" fill="black"/>
<path d="M11.8842 20.0002C12.4863 19.9998 13.0771 19.8363 13.5938 19.5273C14.1105 19.2182 14.534 18.7751 14.8192 18.2448C14.8327 18.2194 14.8393 18.191 14.8385 18.1622C14.8377 18.1335 14.8295 18.1055 14.8146 18.0808C14.7998 18.0562 14.7788 18.0359 14.7538 18.0217C14.7287 18.0076 14.7005 18.0002 14.6717 18.0002H9.09759C9.06881 18.0001 9.0405 18.0075 9.0154 18.0216C8.99031 18.0357 8.96929 18.056 8.9544 18.0807C8.9395 18.1053 8.93124 18.1334 8.93041 18.1621C8.92959 18.1909 8.93622 18.2194 8.94968 18.2448C9.2349 18.775 9.65828 19.2181 10.1749 19.5272C10.6916 19.8362 11.2822 19.9997 11.8842 20.0002Z" fill="black"/>
</svg>
