<svg width="24" height="24" viewBox="0 0 24 24" fill="none" xmlns="http://www.w3.org/2000/svg">
<path d="M16.8444 14.1664L16.8631 14.1672L16.8819 14.1675C17.3139 14.1749 17.7367 14.1307 18.1438 14.0403C18.1815 14.0814 18.2201 14.1255 18.2594 14.173C18.2868 14.2061 18.3144 14.2397 18.3423 14.2736C18.3727 14.3105 18.4033 14.3478 18.4342 14.385C18.5876 14.5702 18.6846 14.7955 18.7138 15.0342C18.743 15.2728 18.7032 15.5149 18.5991 15.7316C18.3777 16.1942 17.9108 16.4824 17.3766 16.4824H6.33225C5.79557 16.4824 5.32539 16.1939 5.10478 15.7291C5.0011 15.5124 4.96166 15.2706 4.99112 15.0322C5.02059 14.7938 5.11773 14.5689 5.27104 14.384C5.32297 14.3202 5.37408 14.2585 5.42436 14.1979L5.44589 14.1719C5.62155 13.9599 5.78167 13.8177 5.92445 13.691C6.42161 13.2496 6.70844 12.9949 6.70859 10.6274C6.70859 8.18179 7.68828 6.58962 9.70414 5.75975C9.71503 5.75367 9.72481 5.74581 9.73311 5.73651C10.0438 4.69711 10.8937 4.00025 11.8527 4.00025C12.5289 4.00025 13.1512 4.34684 13.5682 4.91611C12.5266 5.83441 11.8476 7.16073 11.7845 8.66244C11.6616 11.5863 13.9206 14.0435 16.8444 14.1664Z" fill="black"/>
<path d="M11.8522 20.0002C12.4543 19.9998 13.0451 19.8363 13.5618 19.5273C14.0785 19.2182 14.502 18.7751 14.7872 18.2448C14.8007 18.2194 14.8073 18.191 14.8065 18.1622C14.8057 18.1335 14.7975 18.1055 14.7826 18.0808C14.7678 18.0562 14.7468 18.0359 14.7218 18.0217C14.6967 18.0076 14.6685 18.0002 14.6397 18.0002H9.06559C9.03681 18.0001 9.00849 18.0075 8.9834 18.0216C8.9583 18.0357 8.93728 18.056 8.92239 18.0807C8.9075 18.1053 8.89923 18.1334 8.89841 18.1621C8.89758 18.1909 8.90422 18.2194 8.91767 18.2448C9.2029 18.775 9.62627 19.2181 10.1429 19.5272C10.6596 19.8362 11.2502 19.9997 11.8522 20.0002Z" fill="black"/>
<path fill-rule="evenodd" clip-rule="evenodd" d="M13.2832 8.72542C13.195 10.8215 14.8112 12.5796 16.9074 12.6677C18.9545 12.7026 20.7104 11.1375 20.8497 9.04352C20.9378 6.94739 19.3216 5.18934 17.2255 5.10122C15.1293 5.0131 13.3713 6.62929 13.2832 8.72542Z" fill="black"/>
</svg>
