<svg width="24" height="24" viewBox="0 0 24 24" fill="none" xmlns="http://www.w3.org/2000/svg">
<path d="M18.298 14.346C17.8818 14.4466 17.4471 14.5 17 14.5C13.9624 14.5 11.5 12.0376 11.5 9C11.5 7.2734 12.2956 5.73263 13.5402 4.72428C13.1733 4.28182 12.6195 4 11.9998 4C10.9797 4 10.138 4.76376 10.0152 5.75065C8.25939 6.36404 6.99982 8.03492 6.99982 10V11.4462C6.99982 12.4411 6.60462 13.3952 5.90115 14.0987C5.015 14.9848 5.64261 16.5 6.89581 16.5H17.1038C18.2467 16.5 18.8693 15.2399 18.298 14.346Z" fill="black"/>
<path d="M11.9999 20C10.6037 20 9.39847 19.1825 8.83674 18H15.1631C14.6014 19.1825 13.3961 20 11.9999 20Z" fill="black"/>
<path fill-rule="evenodd" clip-rule="evenodd" d="M17 13C19.2091 13 21 11.2091 21 9C21 6.79086 19.2091 5 17 5C14.7909 5 13 6.79086 13 9C13 11.2091 14.7909 13 17 13ZM17.625 7C17.625 6.65482 17.3452 6.375 17 6.375C16.6548 6.375 16.375 6.65482 16.375 7V9C16.375 9.16576 16.4408 9.32473 16.5581 9.44194L17.5581 10.4419C17.8021 10.686 18.1979 10.686 18.4419 10.4419C18.686 10.1979 18.686 9.80214 18.4419 9.55806L17.625 8.74112V7Z" fill="black"/>
</svg>
