<svg width="24" height="24" viewBox="0 0 24 24" fill="none" xmlns="http://www.w3.org/2000/svg">
<path fill-rule="evenodd" clip-rule="evenodd" d="M16.5013 4.00688C17.6053 4.00757 18.5 4.9028 18.5 6.00688V15C18.5 16.1046 17.6046 17 16.5 17H7.75C7.33579 17 7 17.3358 7 17.75C7 18.1642 7.33579 18.5 7.75 18.5H17.75C18.1642 18.5 18.5 18.8358 18.5 19.25C18.5 19.6642 18.1642 20 17.75 20H7.5C6.39543 20 5.5 19.1046 5.5 18V6.00125C5.5 4.89619 6.39619 4.00056 7.50125 4.00125L16.5013 4.00688ZM9.49213 12.9842C9.03631 12.0726 9.69921 11 10.7184 11H13.2816C14.3008 11 14.9637 12.0726 14.5079 12.9842C14.0434 13.9132 13.094 14.5 12.0553 14.5H11.9447C10.9061 14.5 9.95662 13.9132 9.49213 12.9842ZM12 10C13.1046 10 14 9.10457 14 8C14 6.89543 13.1046 6 12 6C10.8954 6 10 6.89543 10 8C10 9.10457 10.8954 10 12 10Z" fill="black"/>
</svg>
