<svg width="24" height="24" viewBox="0 0 24 24" fill="none" xmlns="http://www.w3.org/2000/svg">
<path d="M19.5 11.3595C19.541 11.2841 19.5783 11.2046 19.6113 11.121L20.0385 10.0377L21 9.65852V17.5C21 18.0523 20.5523 18.5 20 18.5H14.1352C13.8807 18.5 13.6286 18.5486 13.3924 18.643L12.8576 18.857C12.6214 18.9514 12.3693 19 12.1148 19H11.9721C11.6616 19 11.3554 18.9277 11.0777 18.7889L10.9223 18.7111C10.6446 18.5723 10.3384 18.5 10.0279 18.5H4C3.44772 18.5 3 18.0523 3 17.5V8C3 7.44771 3.44772 7 4 7H4.5V16.25C4.5 16.6642 4.83579 17 5.25 17H10.3486C10.7883 17 11.2181 17.1301 11.584 17.374C11.8359 17.542 12.1641 17.542 12.416 17.374C12.7819 17.1301 13.2117 17 13.6514 17H18.75C19.1642 17 19.5 16.6642 19.5 16.25V11.3595Z" fill="black"/>
<path d="M12.75 6.36184C12.7631 6.36733 12.7763 6.37271 12.7896 6.37796L13.0282 6.47206L13.1223 6.71065C13.1615 6.81008 13.2075 6.90282 13.2595 6.98887C12.8756 7.94546 13.249 9.16456 14.3798 9.61052L15.463 10.0377L15.8902 11.121C16.2594 12.0571 17.1586 12.4742 18 12.3721V15.5H13.6514C13.0765 15.5 12.5116 15.633 12 15.8858C11.4884 15.633 10.9235 15.5 10.3486 15.5H6V5.5H9.69766C10.2086 5.5 10.7043 5.67388 11.1032 5.99305L11.25 6.11047V10C11.25 10.4142 11.5858 10.75 12 10.75C12.4142 10.75 12.75 10.4142 12.75 10V6.36184Z" fill="black"/>
<path d="M14.9821 3.33967C14.8988 3.12864 14.6002 3.12864 14.5169 3.33967L14.2237 4.0833C14.1982 4.14773 14.1472 4.19873 14.0828 4.22415L13.3392 4.51743C13.1281 4.60066 13.1281 4.89933 13.3392 4.98256L14.0828 5.27584C14.1472 5.30125 14.1982 5.35226 14.2237 5.41669L14.5169 6.16032C14.6002 6.37135 14.8988 6.37135 14.9821 6.16032L15.2754 5.41669C15.3008 5.35226 15.3518 5.30125 15.4162 5.27584L16.1598 4.98256C16.3709 4.89933 16.3709 4.60066 16.1598 4.51743L15.4162 4.22415C15.3518 4.19873 15.3008 4.14773 15.2754 4.0833L14.9821 3.33967Z" fill="black"/>
<path d="M18.2149 4.92935C18.0484 4.50728 17.4511 4.50728 17.2846 4.92935L16.6981 6.41661C16.6472 6.54547 16.5452 6.64747 16.4164 6.6983L14.9291 7.28486C14.507 7.45133 14.507 8.04866 14.9291 8.21513L16.4164 8.80169C16.5452 8.85252 16.6472 8.95452 16.6981 9.08338L17.2846 10.5706C17.4511 10.9927 18.0484 10.9927 18.2149 10.5706L18.8015 9.08338C18.8523 8.95452 18.9543 8.85252 19.0831 8.80169L20.5704 8.21513C20.9925 8.04866 20.9925 7.45133 20.5704 7.28486L19.0831 6.6983C18.9543 6.64747 18.8523 6.54547 18.8015 6.41661L18.2149 4.92935Z" fill="black"/>
</svg>
