<svg width="24" height="24" viewBox="0 0 24 24" fill="none" xmlns="http://www.w3.org/2000/svg">
<path d="M19.5 11.3598C19.541 11.2844 19.5783 11.2049 19.6113 11.1212L20.0385 10.038L21 9.65876V17.5002C21 18.0525 20.5523 18.5002 20 18.5002H14.1352C13.8807 18.5002 13.6286 18.5488 13.3924 18.6433L12.8576 18.8572C12.6214 18.9517 12.3693 19.0002 12.1148 19.0002H11.9721C11.6616 19.0002 11.3554 18.928 11.0777 18.7891L10.9223 18.7114C10.6446 18.5725 10.3384 18.5002 10.0279 18.5002H4C3.44772 18.5002 3 18.0525 3 17.5002V8.00024C3 7.44796 3.44772 7.00024 4 7.00024H4.5V16.2502C4.5 16.6645 4.83579 17.0002 5.25 17.0002H10.3486C10.7883 17.0002 11.2181 17.1304 11.584 17.3743C11.8359 17.5422 12.1641 17.5422 12.416 17.3743C12.7819 17.1304 13.2117 17.0002 13.6514 17.0002H18.75C19.1642 17.0002 19.5 16.6645 19.5 16.2502V11.3598Z" fill="black"/>
<path d="M12.75 6.36208C12.7631 6.36758 12.7763 6.37295 12.7896 6.3782L13.0282 6.4723L13.1223 6.7109C13.1615 6.81033 13.2075 6.90307 13.2595 6.98911C12.8756 7.94571 13.249 9.1648 14.3798 9.61076L15.463 10.038L15.8902 11.1212C16.2594 12.0574 17.1586 12.4744 18 12.3724V15.5002H13.6514C13.0765 15.5002 12.5116 15.6332 12 15.8861C11.4884 15.6332 10.9235 15.5002 10.3486 15.5002H6V5.50024H9.69766C10.2086 5.50024 10.7043 5.67413 11.1032 5.99329L11.25 6.11071V10.0002C11.25 10.4145 11.5858 10.7502 12 10.7502C12.4142 10.7502 12.75 10.4145 12.75 10.0002V6.36208Z" fill="black"/>
<path d="M14.9821 3.33992C14.8988 3.12888 14.6002 3.12888 14.5169 3.33992L14.2237 4.08355C14.1982 4.14798 14.1472 4.19898 14.0828 4.22439L13.3392 4.51767C13.1281 4.6009 13.1281 4.89957 13.3392 4.98281L14.0828 5.27609C14.1472 5.3015 14.1982 5.3525 14.2237 5.41693L14.5169 6.16056C14.6002 6.3716 14.8988 6.3716 14.9821 6.16056L15.2754 5.41693C15.3008 5.3525 15.3518 5.3015 15.4162 5.27609L16.1598 4.98281C16.3709 4.89957 16.3709 4.6009 16.1598 4.51767L15.4162 4.22439C15.3518 4.19898 15.3008 4.14798 15.2754 4.08355L14.9821 3.33992Z" fill="black"/>
<path d="M18.2149 4.9296C18.0484 4.50752 17.4511 4.50752 17.2846 4.9296L16.6981 6.41685C16.6472 6.54572 16.5452 6.64772 16.4164 6.69854L14.9291 7.28511C14.507 7.45157 14.507 8.04891 14.9291 8.21537L16.4164 8.80194C16.5452 8.85276 16.6472 8.95476 16.6981 9.08362L17.2846 10.5709C17.4511 10.993 18.0484 10.993 18.2149 10.5709L18.8015 9.08362C18.8523 8.95476 18.9543 8.85276 19.0831 8.80194L20.5704 8.21537C20.9925 8.04891 20.9925 7.45157 20.5704 7.28511L19.0831 6.69854C18.9543 6.64772 18.8523 6.54572 18.8015 6.41685L18.2149 4.9296Z" fill="black"/>
</svg>
