<svg width="24" height="24" viewBox="0 0 24 24" fill="none" xmlns="http://www.w3.org/2000/svg">
<path d="M4.5 7H4C3.44772 7 3 7.44772 3 8V17.5C3 18.0523 3.44772 18.5 4 18.5H10.0279C10.3384 18.5 10.6446 18.5723 10.9223 18.7111L11.0777 18.7889C11.3554 18.9277 11.6616 19 11.9721 19H12.1148C12.3693 19 12.6214 18.9514 12.8576 18.857L13.3924 18.643C13.6286 18.5486 13.8807 18.5 14.1352 18.5H20C20.5523 18.5 21 18.0523 21 17.5V8C21 7.44772 20.5523 7 20 7H19.5V16.25C19.5 16.6642 19.1642 17 18.75 17H13.6514C13.2167 17 12.7916 17.1272 12.4285 17.3658C12.1829 17.5366 11.848 17.55 11.584 17.374C11.2181 17.1301 10.7883 17 10.3486 17H5.25C4.83579 17 4.5 16.6642 4.5 16.25V7Z" fill="black"/>
<path d="M6 15.5V5.5H9.69766C10.2086 5.5 10.7043 5.67388 11.1032 5.99305L11.25 6.11047V10C11.25 10.4142 11.5858 10.75 12 10.75C12.4142 10.75 12.75 10.4142 12.75 10V6.11047L12.8968 5.99305C13.2957 5.67388 13.7914 5.5 14.3023 5.5H18V15.5H13.6514C13.0765 15.5 12.5116 15.633 12 15.8858C11.4884 15.633 10.9235 15.5 10.3486 15.5H6Z" fill="black"/>
</svg>
