<svg width="24" height="24" viewBox="0 0 24 24" fill="none" xmlns="http://www.w3.org/2000/svg">
<path d="M15.8094 7.30938L19.6469 11.1469C19.8719 11.3719 20 11.6813 20 12C20 12.3187 19.8719 12.6281 19.6469 12.8531L15.8094 16.6906C15.6094 16.8906 15.3406 17 15.0594 17C14.475 17 14 16.525 14 15.9406V14H10C9.44687 14 9 13.5531 9 13V11C9 10.4469 9.44687 10 10 10H14V8.05937C14 7.475 14.475 7 15.0594 7C15.3406 7 15.6094 7.1125 15.8094 7.30938ZM9 7H7C6.44687 7 6 7.44687 6 8V16C6 16.5531 6.44687 17 7 17H9C9.55313 17 10 17.4469 10 18C10 18.5531 9.55313 19 9 19H7C5.34375 19 4 17.6562 4 16V8C4 6.34375 5.34375 5 7 5H9C9.55313 5 10 5.44687 10 6C10 6.55313 9.55313 7 9 7Z" fill="black"/>
</svg>
