<svg width="24" height="24" viewBox="0 0 24 24" fill="none" xmlns="http://www.w3.org/2000/svg">
<path d="M12.5 6.54468C12.5 5.16397 11.3807 4.04468 10 4.04468C8.97003 4.04468 8.08553 4.66753 7.70262 5.55713C5.90881 5.70806 4.5 7.21185 4.5 9.04468C4.5 10.38 5.24776 11.5406 6.34738 12.1307C6.52584 12.2265 6.71357 12.3072 6.90888 12.3713C7.2883 11.3067 8.30516 10.5447 9.5 10.5447C9.91421 10.5447 10.25 10.8805 10.25 11.2947C10.25 11.7089 9.91421 12.0447 9.5 12.0447C8.80964 12.0447 8.25 12.6043 8.25 13.2947C8.25 13.985 8.80964 14.5447 9.5 14.5447C9.91421 14.5447 10.25 14.8805 10.25 15.2947C10.25 15.7089 9.91421 16.0447 9.5 16.0447C8.19065 16.0447 7.09502 15.1296 6.81776 13.9041C6.14915 13.742 5.53306 13.4455 4.99971 13.0448C4.68593 13.4626 4.5 13.9819 4.5 14.5447C4.5 15.3626 4.89278 16.0888 5.5 16.5449C5.5001 18.4778 7.06706 20.0447 9 20.0447C10.933 20.0447 12.5 18.4777 12.5 16.5447H14.5858L15.5677 17.5266C15.5236 17.6919 15.5 17.8655 15.5 18.0447C15.5 19.1492 16.3954 20.0447 17.5 20.0447C18.6046 20.0447 19.5 19.1492 19.5 18.0447C19.5 16.9401 18.6046 16.0447 17.5 16.0447C17.3208 16.0447 17.1472 16.0682 16.982 16.1124L15.7071 14.8376C15.5196 14.65 15.2652 14.5447 15 14.5447H12.5V9.54468H15C15.2652 9.54468 15.5196 9.43932 15.7071 9.25178L16.982 7.97693C17.1472 8.02112 17.3208 8.04468 17.5 8.04468C18.6046 8.04468 19.5 7.14925 19.5 6.04468C19.5 4.94011 18.6046 4.04468 17.5 4.04468C16.3954 4.04468 15.5 4.94011 15.5 6.04468C15.5 6.22384 15.5236 6.39749 15.5677 6.56272L14.5858 7.54468H12.5V6.54468Z" fill="black"/>
<path d="M19 10.0447C18.2597 10.0447 17.6134 10.4469 17.2676 11.0447H14V13.0447H17.2676C17.6134 13.6425 18.2597 14.0447 19 14.0447C20.1046 14.0447 21 13.1492 21 12.0447C21 10.9401 20.1046 10.0447 19 10.0447Z" fill="black"/>
</svg>
