<svg width="24" height="24" viewBox="0 0 24 24" fill="none" xmlns="http://www.w3.org/2000/svg">
<path d="M12.5 6.54492C12.5 5.16421 11.3807 4.04492 10 4.04492C8.97003 4.04492 8.08553 4.66778 7.70262 5.55738C5.90881 5.7083 4.5 7.21209 4.5 9.04492C4.5 10.3802 5.24776 11.5409 6.34738 12.131C6.52584 12.2267 6.71357 12.3075 6.90888 12.3715C7.2883 11.3069 8.30516 10.5449 9.5 10.5449C9.91421 10.5449 10.25 10.8807 10.25 11.2949C10.25 11.7091 9.91421 12.0449 9.5 12.0449C8.80964 12.0449 8.25 12.6046 8.25 13.2949C8.25 13.9853 8.80964 14.5449 9.5 14.5449C9.91421 14.5449 10.25 14.8807 10.25 15.2949C10.25 15.7091 9.91421 16.0449 9.5 16.0449C8.19065 16.0449 7.09502 15.1298 6.81776 13.9043C6.14915 13.7422 5.53306 13.4457 4.99971 13.0451C4.68593 13.4629 4.5 13.9822 4.5 14.5449C4.5 15.3628 4.89278 16.089 5.5 16.5451C5.5001 18.478 7.06706 20.0449 9 20.0449C10.933 20.0449 12.5 18.4779 12.5 16.5449H14.5858L15.5677 17.5269C15.5236 17.6921 15.5 17.8658 15.5 18.0449C15.5 19.1495 16.3954 20.0449 17.5 20.0449C18.6046 20.0449 19.5 19.1495 19.5 18.0449C19.5 16.9404 18.6046 16.0449 17.5 16.0449C17.3208 16.0449 17.1472 16.0685 16.982 16.1127L15.7071 14.8378C15.5196 14.6503 15.2652 14.5449 15 14.5449H12.5V9.54492H15C15.2652 9.54492 15.5196 9.43956 15.7071 9.25203L16.982 7.97718C17.1472 8.02136 17.3208 8.04492 17.5 8.04492C18.6046 8.04492 19.5 7.14949 19.5 6.04492C19.5 4.94035 18.6046 4.04492 17.5 4.04492C16.3954 4.04492 15.5 4.94035 15.5 6.04492C15.5 6.22408 15.5236 6.39774 15.5677 6.56297L14.5858 7.54492H12.5V6.54492Z" fill="black"/>
<path d="M19 10.0449C18.2597 10.0449 17.6134 10.4471 17.2676 11.0449H14V13.0449H17.2676C17.6134 13.6427 18.2597 14.0449 19 14.0449C20.1046 14.0449 21 13.1495 21 12.0449C21 10.9404 20.1046 10.0449 19 10.0449Z" fill="black"/>
</svg>
