<svg width="24" height="24" viewBox="0 0 24 24" fill="none" xmlns="http://www.w3.org/2000/svg">
<path fill-rule="evenodd" clip-rule="evenodd" d="M8 6V6.5H5.5C4.39543 6.5 3.5 7.39543 3.5 8.5V13.5H10V12.5C10 12.2239 10.2239 12 10.5 12H13.5C13.7761 12 14 12.2239 14 12.5V13.5H20.5V8.5C20.5 7.39543 19.6046 6.5 18.5 6.5H16V6C16 4.34315 14.6569 3 13 3H11C9.34315 3 8 4.34315 8 6ZM11 5C10.4477 5 10 5.44772 10 6V6.5H14V6C14 5.44772 13.5523 5 13 5H11Z" fill="black"/>
<path d="M10 15V16C10 16.2761 10.2239 16.5 10.5 16.5H13.5C13.7761 16.5 14 16.2761 14 16V15H20V18C20 19.1046 19.1046 20 18 20H6C4.89543 20 4 19.1046 4 18V15H10Z" fill="black"/>
</svg>
