<svg width="24" height="24" viewBox="0 0 24 24" fill="none" xmlns="http://www.w3.org/2000/svg">
<path fill-rule="evenodd" clip-rule="evenodd" d="M5.84839 5.78546C5.84839 4.80201 6.64562 3.76306 7.62907 3.76306H16.076C17.0595 3.76306 17.8567 4.5603 17.8567 5.54375V18.7893C17.8567 19.3416 17.409 19.7893 16.8567 19.7893H14.3799C14.1037 19.7893 13.8799 19.5654 13.8799 19.2893V15.7773C13.8799 15.225 13.4321 14.7773 12.8799 14.7773H10.8511C10.2989 14.7773 9.85114 15.225 9.85114 15.7773V19.2893C9.85114 19.5654 9.62728 19.7893 9.35114 19.7893H6.8484C6.29611 19.7893 5.8484 19.3416 5.8484 18.7893L5.84839 5.78546ZM7.63049 6.45322C7.63049 6.08442 7.92946 5.78546 8.29825 5.78546H10.0789C10.4477 5.78546 10.7467 6.08442 10.7467 6.45322C10.7467 6.82201 10.4477 7.12098 10.0789 7.12098H8.29825C7.92946 7.12098 7.63049 6.82201 7.63049 6.45322ZM13.6403 5.78546C13.2715 5.78546 12.9726 6.08442 12.9726 6.45322C12.9726 6.82201 13.2715 7.12098 13.6403 7.12098H15.421C15.7898 7.12098 16.0888 6.82201 16.0888 6.45322C16.0888 6.08442 15.7898 5.78546 15.421 5.78546H13.6403ZM7.63048 9.29261C7.63048 8.92382 7.92945 8.62485 8.29824 8.62485H10.0789C10.4477 8.62485 10.7467 8.92382 10.7467 9.29261C10.7467 9.66141 10.4477 9.96037 10.0789 9.96037H8.29824C7.92945 9.96037 7.63048 9.66141 7.63048 9.29261ZM13.6403 8.62485C13.2715 8.62485 12.9726 8.92382 12.9726 9.29261C12.9726 9.66141 13.2715 9.96037 13.6403 9.96037H15.421C15.7898 9.96037 16.0888 9.66141 16.0888 9.29261C16.0888 8.92382 15.7898 8.62485 15.421 8.62485H13.6403ZM7.63048 12.1085C7.63048 11.7397 7.92945 11.4408 8.29824 11.4408H10.0789C10.4477 11.4408 10.7467 11.7397 10.7467 12.1085C10.7467 12.4773 10.4477 12.7763 10.0789 12.7763H8.29824C7.92945 12.7763 7.63048 12.4773 7.63048 12.1085ZM13.6403 11.4408C13.2715 11.4408 12.9726 11.7397 12.9726 12.1085C12.9726 12.4773 13.2715 12.7763 13.6403 12.7763H15.421C15.7898 12.7763 16.0888 12.4773 16.0888 12.1085C16.0888 11.7397 15.7898 11.4408 15.421 11.4408H13.6403Z" fill="black"/>
</svg>
