<svg width="24" height="24" viewBox="0 0 24 24" fill="none" xmlns="http://www.w3.org/2000/svg">
<path fill-rule="evenodd" clip-rule="evenodd" d="M5.84839 5.78607C5.84839 4.80262 6.64562 3.76367 7.62907 3.76367H16.076C17.0595 3.76367 17.8567 4.56091 17.8567 5.54436V18.7899C17.8567 19.3422 17.409 19.7899 16.8567 19.7899H14.3799C14.1037 19.7899 13.8799 19.566 13.8799 19.2899V15.7779C13.8799 15.2257 13.4321 14.7779 12.8799 14.7779H10.8511C10.2989 14.7779 9.85114 15.2257 9.85114 15.7779V19.2899C9.85114 19.566 9.62728 19.7899 9.35114 19.7899H6.8484C6.29611 19.7899 5.8484 19.3422 5.8484 18.7899L5.84839 5.78607ZM7.63049 6.45383C7.63049 6.08503 7.92946 5.78607 8.29825 5.78607H10.0789C10.4477 5.78607 10.7467 6.08503 10.7467 6.45383C10.7467 6.82262 10.4477 7.12159 10.0789 7.12159H8.29825C7.92946 7.12159 7.63049 6.82262 7.63049 6.45383ZM13.6403 5.78607C13.2715 5.78607 12.9726 6.08503 12.9726 6.45383C12.9726 6.82262 13.2715 7.12159 13.6403 7.12159H15.421C15.7898 7.12159 16.0888 6.82262 16.0888 6.45383C16.0888 6.08503 15.7898 5.78607 15.421 5.78607H13.6403ZM7.63048 9.29322C7.63048 8.92443 7.92945 8.62546 8.29824 8.62546H10.0789C10.4477 8.62546 10.7467 8.92443 10.7467 9.29322C10.7467 9.66202 10.4477 9.96098 10.0789 9.96098H8.29824C7.92945 9.96098 7.63048 9.66202 7.63048 9.29322ZM13.6403 8.62546C13.2715 8.62546 12.9726 8.92443 12.9726 9.29322C12.9726 9.66202 13.2715 9.96098 13.6403 9.96098H15.421C15.7898 9.96098 16.0888 9.66202 16.0888 9.29322C16.0888 8.92443 15.7898 8.62546 15.421 8.62546H13.6403ZM7.63048 12.1092C7.63048 11.7404 7.92945 11.4414 8.29824 11.4414H10.0789C10.4477 11.4414 10.7467 11.7404 10.7467 12.1092C10.7467 12.4779 10.4477 12.7769 10.0789 12.7769H8.29824C7.92945 12.7769 7.63048 12.4779 7.63048 12.1092ZM13.6403 11.4414C13.2715 11.4414 12.9726 11.7404 12.9726 12.1092C12.9726 12.4779 13.2715 12.7769 13.6403 12.7769H15.421C15.7898 12.7769 16.0888 12.4779 16.0888 12.1092C16.0888 11.7404 15.7898 11.4414 15.421 11.4414H13.6403Z" fill="black"/>
</svg>
