<svg width="24" height="24" viewBox="0 0 24 24" fill="none" xmlns="http://www.w3.org/2000/svg">
<path fill-rule="evenodd" clip-rule="evenodd" d="M5.84863 5.78546C5.84863 4.80201 6.64587 3.76306 7.62932 3.76306H16.0763C17.0597 3.76306 17.857 4.5603 17.857 5.54375V18.7893C17.857 19.3416 17.4092 19.7893 16.857 19.7893H14.3801C14.104 19.7893 13.8801 19.5654 13.8801 19.2893V15.7773C13.8801 15.225 13.4324 14.7773 12.8801 14.7773H10.8514C10.2991 14.7773 9.85138 15.225 9.85138 15.7773V19.2893C9.85138 19.5654 9.62752 19.7893 9.35138 19.7893H6.84864C6.29635 19.7893 5.84864 19.3416 5.84864 18.7893L5.84863 5.78546ZM7.63074 6.45322C7.63074 6.08442 7.9297 5.78546 8.2985 5.78546H10.0792C10.448 5.78546 10.7469 6.08442 10.7469 6.45322C10.7469 6.82201 10.448 7.12098 10.0792 7.12098H8.2985C7.9297 7.12098 7.63074 6.82201 7.63074 6.45322ZM13.6406 5.78546C13.2718 5.78546 12.9728 6.08442 12.9728 6.45322C12.9728 6.82201 13.2718 7.12098 13.6406 7.12098H15.4213C15.7901 7.12098 16.089 6.82201 16.089 6.45322C16.089 6.08442 15.7901 5.78546 15.4213 5.78546H13.6406ZM7.63073 9.29261C7.63073 8.92382 7.92969 8.62485 8.29849 8.62485H10.0792C10.448 8.62485 10.7469 8.92382 10.7469 9.29261C10.7469 9.66141 10.448 9.96037 10.0792 9.96037H8.29849C7.92969 9.96037 7.63073 9.66141 7.63073 9.29261ZM13.6406 8.62485C13.2718 8.62485 12.9728 8.92382 12.9728 9.29261C12.9728 9.66141 13.2718 9.96037 13.6406 9.96037H15.4213C15.79 9.96037 16.089 9.66141 16.089 9.29261C16.089 8.92382 15.79 8.62485 15.4213 8.62485H13.6406ZM7.63073 12.1085C7.63073 11.7397 7.92969 11.4408 8.29849 11.4408H10.0792C10.448 11.4408 10.7469 11.7397 10.7469 12.1085C10.7469 12.4773 10.448 12.7763 10.0792 12.7763H8.29849C7.92969 12.7763 7.63073 12.4773 7.63073 12.1085ZM13.6406 11.4408C13.2718 11.4408 12.9728 11.7397 12.9728 12.1085C12.9728 12.4773 13.2718 12.7763 13.6406 12.7763H15.4213C15.79 12.7763 16.089 12.4773 16.089 12.1085C16.089 11.7397 15.79 11.4408 15.4213 11.4408H13.6406Z" fill="black"/>
</svg>
