<svg width="24" height="24" viewBox="0 0 24 24" fill="none" xmlns="http://www.w3.org/2000/svg">
<path d="M15 12.5C15 14.1569 13.6569 15.5 12 15.5C10.3431 15.5 9 14.1569 9 12.5C9 10.8431 10.3431 9.5 12 9.5C13.6569 9.5 15 10.8431 15 12.5Z" fill="black"/>
<path fill-rule="evenodd" clip-rule="evenodd" d="M8.58541 5.82918C8.8395 5.321 9.35889 5 9.92705 5H14.0729C14.6411 5 15.1605 5.321 15.4146 5.82918L15.9146 6.82918C15.9428 6.88564 15.9671 6.94266 15.9877 7H19C19.8284 7 20.5 7.67157 20.5 8.5V17.5C20.5 18.3284 19.8284 19 19 19H5C4.17157 19 3.5 18.3284 3.5 17.5V8.5C3.5 7.67157 4.17157 7 5 7H8.01234C8.03287 6.94266 8.05718 6.88564 8.08541 6.82918L8.58541 5.82918ZM16.5 12.5C16.5 14.9853 14.4853 17 12 17C9.51472 17 7.5 14.9853 7.5 12.5C7.5 10.0147 9.51472 8 12 8C14.4853 8 16.5 10.0147 16.5 12.5Z" fill="black"/>
</svg>
