<svg width="24" height="24" viewBox="0 0 24 24" fill="none" xmlns="http://www.w3.org/2000/svg">
<path fill-rule="evenodd" clip-rule="evenodd" d="M4 11C4 9.89541 4.89543 8.99998 6 8.99998H12C13.1046 8.99998 14 9.89541 14 11V17C14 18.1046 13.1046 19 12 19H6C4.89543 19 4 18.1046 4 17V11ZM5.5 11.5C5.5 10.9477 5.94772 10.5 6.5 10.5C7.05228 10.5 7.5 10.9477 7.5 11.5C7.5 12.0523 7.05228 12.5 6.5 12.5C5.94772 12.5 5.5 12.0523 5.5 11.5ZM10 10.5C9.44772 10.5 9 10.9477 9 11.5C9 12.0523 9.44772 12.5 10 12.5C10.5523 12.5 11 12.0523 11 11.5C11 10.9477 10.5523 10.5 10 10.5Z" fill="black"/>
<path d="M15.5 12L18.5144 10.3253C19.1809 9.95505 20 10.437 20 11.1995V16.8005C20 17.563 19.1809 18.0449 18.5144 17.6746L15.5 16V12Z" fill="black"/>
<path fill-rule="evenodd" clip-rule="evenodd" d="M12.9352 6.78541C13.094 6.40283 13.5328 6.22138 13.9154 6.38014C15.1382 6.88756 16.1151 7.86522 16.6216 9.08852C16.78 9.47124 16.5982 9.90993 16.2155 10.0684C15.8328 10.2268 15.3941 10.045 15.2356 9.6623C14.8813 8.80636 14.1961 8.12063 13.3405 7.76559C12.9579 7.60683 12.7764 7.16799 12.9352 6.78541Z" fill="black"/>
<path fill-rule="evenodd" clip-rule="evenodd" d="M13.9869 4.24394C14.1456 3.86133 14.5844 3.6798 14.967 3.83848C16.8613 4.6241 18.3756 6.13831 19.1613 8.03253C19.32 8.41514 19.1384 8.85395 18.7558 9.01265C18.3732 9.17135 17.9344 8.98984 17.7757 8.60724C17.1422 7.08003 15.9196 5.85745 14.3924 5.22405C14.0098 5.06536 13.8282 4.62656 13.9869 4.24394Z" fill="black"/>
</svg>
