<svg width="24" height="24" viewBox="0 0 24 24" fill="none" xmlns="http://www.w3.org/2000/svg">
<path fill-rule="evenodd" clip-rule="evenodd" d="M5 5.80872C3.89543 5.80872 3 6.70415 3 7.80872V15.7625C3 16.8671 3.89543 17.7625 5 17.7625H13.0001C14.1046 17.7625 15.0001 16.8671 15.0001 15.7625V7.80872C15.0001 6.70415 14.1046 5.80872 13.0001 5.80872H5ZM5.71256 9.66621C6.23824 9.66621 6.66438 9.24007 6.66438 8.71439C6.66438 8.18872 6.23824 7.76257 5.71256 7.76257C5.18689 7.76257 4.76074 8.18872 4.76074 8.71439C4.76074 9.24007 5.18689 9.66621 5.71256 9.66621ZM8.60819 9.66621C9.13387 9.66621 9.56001 9.24007 9.56001 8.71439C9.56001 8.18872 9.13387 7.76257 8.60819 7.76257C8.08252 7.76257 7.65637 8.18872 7.65637 8.71439C7.65637 9.24007 8.08252 9.66621 8.60819 9.66621Z" fill="black"/>
<path d="M20.4719 6.92752C20.7969 7.10252 21 7.44002 21 7.80877V15.8088C21 16.1775 20.7969 16.515 20.4719 16.69C20.1469 16.865 19.7531 16.8463 19.4438 16.64L16.5193 14.6904V8.92717L19.4438 6.97752C19.75 6.7744 20.1437 6.75252 20.4719 6.92752Z" fill="black"/>
</svg>
