<svg width="24" height="24" viewBox="0 0 24 24" fill="none" xmlns="http://www.w3.org/2000/svg">
<path d="M6.8526 18.5C6.8526 19.3284 7.52417 20 8.3526 20C9.18103 20 9.8526 19.3284 9.8526 18.5C9.8526 17.6716 9.18103 17 8.3526 17C7.52417 17 6.8526 17.6716 6.8526 18.5Z" fill="black"/>
<path d="M15.8526 18.5C15.8526 19.3284 16.5242 20 17.3526 20C18.181 20 18.8526 19.3284 18.8526 18.5C18.8526 17.6716 18.181 17 17.3526 17C16.5242 17 15.8526 17.6716 15.8526 18.5Z" fill="black"/>
<path d="M3.8526 5C3.30032 5 2.8526 5.44772 2.8526 6C2.8526 6.55228 3.30032 7 3.8526 7H5.05043L6.7024 14.4339C6.90575 15.3489 7.71737 16 8.65477 16H17.0571C17.9884 16 18.7965 15.3572 19.0059 14.4497L20.0443 9.94972C20.3335 8.69648 19.3817 7.5 18.0955 7.5H7.21033L7.0028 6.56614C6.79945 5.65106 5.98783 5 5.05043 5H3.8526Z" fill="black"/>
</svg>
