<svg width="24" height="24" viewBox="0 0 24 24" fill="none" xmlns="http://www.w3.org/2000/svg">
<path d="M6.85254 18.5C6.85254 19.3284 7.52411 20 8.35254 20C9.18097 20 9.85254 19.3284 9.85254 18.5C9.85254 17.6716 9.18097 17 8.35254 17C7.52411 17 6.85254 17.6716 6.85254 18.5Z" fill="black"/>
<path d="M15.8525 18.5C15.8525 19.3284 16.5241 20 17.3525 20C18.181 20 18.8525 19.3284 18.8525 18.5C18.8525 17.6716 18.181 17 17.3525 17C16.5241 17 15.8525 17.6716 15.8525 18.5Z" fill="black"/>
<path d="M3.85254 5C3.30025 5 2.85254 5.44772 2.85254 6C2.85254 6.55228 3.30025 7 3.85254 7H5.05037L6.70234 14.4339C6.90569 15.3489 7.71731 16 8.65471 16H17.057C17.9883 16 18.7964 15.3572 19.0058 14.4497L20.0443 9.94972C20.3335 8.69648 19.3817 7.5 18.0955 7.5H7.21027L7.00274 6.56614C6.79939 5.65106 5.98776 5 5.05037 5H3.85254Z" fill="black"/>
</svg>
