<svg width="24" height="24" viewBox="0 0 24 24" fill="none" xmlns="http://www.w3.org/2000/svg">
<path d="M11.7289 6.32131C11.7289 5.86629 11.3586 5.49223 10.907 5.5478C9.86731 5.67575 8.86781 6.04525 7.99051 6.63145C6.88395 7.37083 6.0215 8.42173 5.51221 9.65127C5.00292 10.8808 4.86966 12.2338 5.1293 13.539C5.38893 14.8443 6.02979 16.0433 6.97084 16.9843C7.91189 17.9254 9.11086 18.5662 10.4161 18.8259C11.7214 19.0855 13.0743 18.9522 14.3039 18.443C15.5334 17.9337 16.5843 17.0712 17.3237 15.9646C17.9099 15.0873 18.2794 14.0878 18.4074 13.0481C18.4629 12.5965 18.0889 12.2263 17.6339 12.2263H12.5527C12.0977 12.2263 11.7289 11.8574 11.7289 11.4024V6.32131Z" fill="black"/>
<path d="M19.1456 10.684C19.6006 10.684 19.9747 10.3138 19.9191 9.86215C19.8451 9.26084 19.6901 8.67101 19.4572 8.10895C19.1191 7.29257 18.6234 6.55079 17.9986 5.92595C17.3738 5.30112 16.632 4.80548 15.8156 4.46732C15.2536 4.23451 14.6637 4.07948 14.0624 4.00549C13.6108 3.94992 13.2406 4.32398 13.2406 4.77899V9.8601C13.2406 10.3151 13.6095 10.684 14.0645 10.684H19.1456Z" fill="black"/>
</svg>
