<svg width="24" height="24" viewBox="0 0 24 24" fill="none" xmlns="http://www.w3.org/2000/svg">
<path d="M11.7289 6.32128C11.7289 5.86626 11.3586 5.4922 10.907 5.54777C9.86731 5.67572 8.86781 6.04522 7.99051 6.63142C6.88395 7.3708 6.0215 8.4217 5.51221 9.65124C5.00292 10.8808 4.86966 12.2337 5.1293 13.539C5.38893 14.8443 6.02979 16.0432 6.97084 16.9843C7.91189 17.9253 9.11086 18.5662 10.4161 18.8258C11.7214 19.0855 13.0743 18.9522 14.3039 18.4429C15.5334 17.9336 16.5843 17.0712 17.3237 15.9646C17.9099 15.0873 18.2794 14.0878 18.4074 13.0481C18.4629 12.5965 18.0889 12.2263 17.6339 12.2263H12.5527C12.0977 12.2263 11.7289 11.8574 11.7289 11.4024V6.32128Z" fill="black"/>
<path d="M19.1456 10.6839C19.6006 10.6839 19.9747 10.3137 19.9191 9.86212C19.8451 9.26081 19.6901 8.67097 19.4572 8.10892C19.1191 7.29254 18.6234 6.55075 17.9986 5.92592C17.3738 5.30109 16.632 4.80545 15.8156 4.46729C15.2536 4.23448 14.6637 4.07945 14.0624 4.00546C13.6108 3.94989 13.2406 4.32395 13.2406 4.77896V9.86007C13.2406 10.3151 13.6095 10.6839 14.0645 10.6839H19.1456Z" fill="black"/>
</svg>
