<svg width="24" height="24" viewBox="0 0 24 24" fill="none" xmlns="http://www.w3.org/2000/svg">
<path d="M16.6147 15.7916C16.6147 15.7916 17.6147 13.9916 17.6147 10.7916C17.6147 6.95818 13.941 3.58401 10.1143 3.30956C9.83889 3.2898 9.61475 3.51541 9.61475 3.79155V4.79155L7.57741 6.82888C7.07939 7.32691 7.16149 8.15605 7.74751 8.54673C7.98345 8.70402 8.2704 8.76561 8.5501 8.71899L11.1147 8.29155C11.2814 8.45822 11.6147 8.99155 11.6147 9.79155C11.6147 10.4658 10.9076 11.2916 10.129 12.2007C9.17546 13.3143 8.11475 14.5529 8.11475 15.7916H16.6147Z" fill="black"/>
<path d="M7.61475 17.2916C6.78632 17.2916 6.11475 17.9631 6.11475 18.7916C6.11475 19.62 6.78632 20.2916 7.61475 20.2916H17.1147C17.9432 20.2916 18.6147 19.62 18.6147 18.7916C18.6147 17.9631 17.9432 17.2916 17.1147 17.2916H7.61475Z" fill="black"/>
</svg>
