<svg width="24" height="24" viewBox="0 0 24 24" fill="none" xmlns="http://www.w3.org/2000/svg">
<path d="M15.5 15.5449H8.5V8.54492H15.5V15.5449Z" fill="black"/>
<path fill-rule="evenodd" clip-rule="evenodd" d="M13 4.29492C13 3.88071 12.6642 3.54492 12.25 3.54492C11.8358 3.54492 11.5 3.88071 11.5 4.29492V5.04492H10V4.29492C10 3.88071 9.66421 3.54492 9.25 3.54492C8.83579 3.54492 8.5 3.88071 8.5 4.29492V5.04492H7C5.89543 5.04492 5 5.94035 5 7.04492V8.29492H4.25C3.83579 8.29492 3.5 8.63071 3.5 9.04492C3.5 9.45914 3.83579 9.79492 4.25 9.79492H5V11.2949H4.25C3.83579 11.2949 3.5 11.6307 3.5 12.0449C3.5 12.4591 3.83579 12.7949 4.25 12.7949H5V14.2949H4.25C3.83579 14.2949 3.5 14.6307 3.5 15.0449C3.5 15.4591 3.83579 15.7949 4.25 15.7949H5V17.0449C5 18.1495 5.89543 19.0449 7 19.0449H8.5V19.7949C8.5 20.2091 8.83579 20.5449 9.25 20.5449C9.66421 20.5449 10 20.2091 10 19.7949V19.0449H11.5V19.7949C11.5 20.2091 11.8358 20.5449 12.25 20.5449C12.6642 20.5449 13 20.2091 13 19.7949V19.0449H14.5V19.7949C14.5 20.2091 14.8358 20.5449 15.25 20.5449C15.6642 20.5449 16 20.2091 16 19.7949V19.0449H17C18.1046 19.0449 19 18.1495 19 17.0449V15.7949H19.75C20.1642 15.7949 20.5 15.4591 20.5 15.0449C20.5 14.6307 20.1642 14.2949 19.75 14.2949H19V12.7949H19.75C20.1642 12.7949 20.5 12.4591 20.5 12.0449C20.5 11.6307 20.1642 11.2949 19.75 11.2949H19V9.79492H19.75C20.1642 9.79492 20.5 9.45914 20.5 9.04492C20.5 8.63071 20.1642 8.29492 19.75 8.29492H19V7.04492C19 5.94035 18.1046 5.04492 17 5.04492H16V4.29492C16 3.88071 15.6642 3.54492 15.25 3.54492C14.8358 3.54492 14.5 3.88071 14.5 4.29492V5.04492H13V4.29492ZM7 7.54492C7 7.26878 7.22386 7.04492 7.5 7.04492H16.5C16.7761 7.04492 17 7.26878 17 7.54492V16.5449C17 16.8211 16.7761 17.0449 16.5 17.0449H7.5C7.22386 17.0449 7 16.8211 7 16.5449V7.54492Z" fill="black"/>
</svg>
