<svg width="24" height="24" viewBox="0 0 24 24" fill="none" xmlns="http://www.w3.org/2000/svg">
<path d="M15.5 15.5447H8.5V8.54468H15.5V15.5447Z" fill="black"/>
<path fill-rule="evenodd" clip-rule="evenodd" d="M13 4.29468C13 3.88046 12.6642 3.54468 12.25 3.54468C11.8358 3.54468 11.5 3.88046 11.5 4.29468V5.04468H10V4.29468C10 3.88046 9.66421 3.54468 9.25 3.54468C8.83579 3.54468 8.5 3.88046 8.5 4.29468V5.04468H7C5.89543 5.04468 5 5.94011 5 7.04468V8.29468H4.25C3.83579 8.29468 3.5 8.63046 3.5 9.04468C3.5 9.45889 3.83579 9.79468 4.25 9.79468H5V11.2947H4.25C3.83579 11.2947 3.5 11.6305 3.5 12.0447C3.5 12.4589 3.83579 12.7947 4.25 12.7947H5V14.2947H4.25C3.83579 14.2947 3.5 14.6305 3.5 15.0447C3.5 15.4589 3.83579 15.7947 4.25 15.7947H5V17.0447C5 18.1492 5.89543 19.0447 7 19.0447H8.5V19.7947C8.5 20.2089 8.83579 20.5447 9.25 20.5447C9.66421 20.5447 10 20.2089 10 19.7947V19.0447H11.5V19.7947C11.5 20.2089 11.8358 20.5447 12.25 20.5447C12.6642 20.5447 13 20.2089 13 19.7947V19.0447H14.5V19.7947C14.5 20.2089 14.8358 20.5447 15.25 20.5447C15.6642 20.5447 16 20.2089 16 19.7947V19.0447H17C18.1046 19.0447 19 18.1492 19 17.0447V15.7947H19.75C20.1642 15.7947 20.5 15.4589 20.5 15.0447C20.5 14.6305 20.1642 14.2947 19.75 14.2947H19V12.7947H19.75C20.1642 12.7947 20.5 12.4589 20.5 12.0447C20.5 11.6305 20.1642 11.2947 19.75 11.2947H19V9.79468H19.75C20.1642 9.79468 20.5 9.45889 20.5 9.04468C20.5 8.63046 20.1642 8.29468 19.75 8.29468H19V7.04468C19 5.94011 18.1046 5.04468 17 5.04468H16V4.29468C16 3.88046 15.6642 3.54468 15.25 3.54468C14.8358 3.54468 14.5 3.88046 14.5 4.29468V5.04468H13V4.29468ZM7 7.54468C7 7.26854 7.22386 7.04468 7.5 7.04468H16.5C16.7761 7.04468 17 7.26854 17 7.54468V16.5447C17 16.8208 16.7761 17.0447 16.5 17.0447H7.5C7.22386 17.0447 7 16.8208 7 16.5447V7.54468Z" fill="black"/>
</svg>
