<svg width="24" height="24" viewBox="0 0 24 24" fill="none" xmlns="http://www.w3.org/2000/svg">
<path d="M13.7557 5.42446C13.3218 3.52518 10.6782 3.52518 10.2443 5.42446C10.0708 6.18409 9.22248 6.54948 8.57206 6.14336L8.41584 6.04581C6.82427 5.05204 5.02551 6.96396 6.04582 8.56161C6.46266 9.21433 6.11264 10.0936 5.36856 10.2598C4.45619 10.4636 4 11.2318 4 12H7V14.0858L6.51804 14.5677C6.35282 14.5236 6.17916 14.5 6 14.5C4.89543 14.5 4 15.3954 4 16.5C4 17.6046 4.89543 18.5 6 18.5C7.10457 18.5 8 17.6046 8 16.5C8 16.3208 7.97644 16.1472 7.93226 15.982L8.70711 15.2071C8.89464 15.0196 9 14.7652 9 14.5V12C9 10.3431 10.3431 9 12 9C13.6569 9 15 10.3431 15 12V14.5C15 14.7652 15.1054 15.0196 15.2929 15.2071L16.0677 15.982C16.0236 16.1472 16 16.3208 16 16.5C16 17.6046 16.8954 18.5 18 18.5C19.1046 18.5 20 17.6046 20 16.5C20 15.3954 19.1046 14.5 18 14.5C17.8208 14.5 17.6472 14.5236 17.482 14.5677L17 14.0858V12H20C20 11.2318 19.5438 10.4636 18.6314 10.2598C17.8874 10.0936 17.5373 9.21433 17.9542 8.56161C18.9745 6.96396 17.1757 5.05204 15.5842 6.04582L15.4279 6.14336C14.7775 6.54948 13.9292 6.18409 13.7557 5.42446Z" fill="black"/>
<path d="M12 11C12.5523 11 13 11.4477 13 12V16.2676C13.5978 16.6134 14 17.2597 14 18C14 19.1046 13.1046 20 12 20C10.8954 20 10 19.1046 10 18C10 17.2597 10.4022 16.6134 11 16.2676V12C11 11.4477 11.4477 11 12 11Z" fill="black"/>
</svg>
