<svg width="24" height="24" viewBox="0 0 24 24" fill="none" xmlns="http://www.w3.org/2000/svg">
<path d="M17.6854 6.35C16.1804 4.845 14.1404 4 12.0154 4C10.4304 4 8.88037 4.47 7.56037 5.35C6.24037 6.23 5.21537 7.485 4.61037 8.945C4.00037 10.415 3.84537 12.025 4.15537 13.58C4.46537 15.135 5.23037 16.565 6.35037 17.685C7.47037 18.805 8.90037 19.57 10.4554 19.88C12.0104 20.19 13.6204 20.03 15.0854 19.425C16.5504 18.82 17.8004 17.79 18.6804 16.475C19.5604 15.155 20.0304 13.605 20.0304 12.02C20.0304 9.895 19.1854 7.855 17.6804 6.35H17.6854ZM12.0654 6.705H12.0804C12.8154 6.735 13.3854 7.355 13.3554 8.09C13.3254 8.825 12.7054 9.395 11.9704 9.365H11.9554C11.2204 9.335 10.6504 8.715 10.6804 7.98C10.7104 7.245 11.3304 6.675 12.0654 6.705V6.705ZM15.0054 16.4C14.8254 16.58 14.5854 16.68 14.3304 16.68H10.1104C9.85537 16.68 9.61537 16.58 9.43537 16.4C9.25537 16.22 9.15537 15.98 9.15537 15.725C9.15537 15.47 9.25537 15.23 9.43537 15.05C9.61537 14.87 9.85537 14.77 10.1104 14.77H10.5654C10.7854 14.77 10.9654 14.59 10.9654 14.37V12.71C10.9654 12.57 10.8504 12.455 10.7104 12.455C10.4554 12.455 10.2154 12.355 10.0354 12.175C9.85537 11.995 9.75537 11.755 9.75537 11.5C9.75537 11.245 9.85537 11.005 10.0354 10.825C10.2154 10.645 10.4554 10.545 10.7104 10.545H12.5354C13.0554 10.545 13.4754 10.965 13.4754 11.485V14.365C13.4754 14.585 13.6554 14.765 13.8754 14.765H14.3304C14.5854 14.765 14.8254 14.865 15.0054 15.045C15.1854 15.225 15.2854 15.465 15.2854 15.72C15.2854 15.975 15.1854 16.215 15.0054 16.395V16.4Z" fill="black"/>
</svg>
