<svg width="24" height="24" viewBox="0 0 24 24" fill="none" xmlns="http://www.w3.org/2000/svg">
<path d="M2.42069 10.5H3.12447C3.21107 9.98377 3.34163 9.48245 3.51215 9C4.74766 5.50442 8.08095 3 11.9996 3C11.9995 3 11.9997 3 11.9996 3C16.97 3.00023 20.9996 7.02958 20.9996 12C20.9996 16.9706 16.9702 21 11.9996 21C8.5683 21 5.58549 19.0798 4.06714 16.2553C4.73781 16.2375 5.40246 15.9535 5.8812 15.4034C7.07718 17.5488 9.36892 19 11.9996 19C15.8656 19 18.9996 15.866 18.9996 12C18.9996 8.13415 15.8658 5.00023 12 5C11.9869 5 11.9739 5.00004 11.9608 5.00011C11.9339 5.00026 11.9071 5.00055 11.8803 5.001C8.58236 5.05631 5.83959 7.39235 5.16112 10.5H5.57937C6.3884 10.5 6.86255 11.4107 6.3986 12.0735L4.81926 14.3297C4.42116 14.8984 3.5789 14.8984 3.1808 14.3297L1.60145 12.0735C1.13751 11.4107 1.61166 10.5 2.42069 10.5Z" fill="black"/>
<path d="M11.0611 11.1264C11.0609 11.1262 11.0611 11.1264 11.0611 11.1264V11.1264Z" fill="black"/>
<path d="M11.0721 11.142C11.0722 11.1419 11.0717 11.1407 11.0705 11.1386C11.071 11.14 11.0714 11.141 11.0717 11.1415C11.0719 11.1419 11.072 11.1421 11.0721 11.142Z" fill="black"/>
<path fill-rule="evenodd" clip-rule="evenodd" d="M11.9996 7C10.0006 7 8.27554 8.17312 7.4754 9.86849C8.16987 10.683 8.33441 11.9235 7.62732 12.9337L7.22924 13.5023C7.86709 15.5297 9.76164 17 11.9996 17C14.761 17 16.9996 14.7614 16.9996 12C16.9996 9.23858 14.761 7 11.9996 7ZM11.9998 8.5625C12.3449 8.5625 12.6248 8.84232 12.6248 9.1875V9.47278C12.6462 9.4773 12.6675 9.48203 12.6886 9.48696C13.0391 9.56872 13.42 9.72375 13.6917 9.99536C13.9358 10.2394 13.9358 10.6351 13.6918 10.8792C13.4477 11.1233 13.052 11.1234 12.8079 10.8793C12.767 10.8385 12.6401 10.7592 12.4047 10.7043C12.1825 10.6524 11.9247 10.6372 11.6866 10.667C11.4424 10.6975 11.2686 10.7686 11.1709 10.844C11.0946 10.903 11.0623 10.961 11.0623 11.0621C11.0623 11.0987 11.0658 11.1204 11.0686 11.1318C11.0779 11.1378 11.0971 11.1481 11.132 11.1603C11.308 11.2219 11.5637 11.2346 11.9651 11.2546L12.0311 11.2579C12.3981 11.2763 12.9198 11.304 13.3461 11.5102C13.5784 11.6226 13.8016 11.7952 13.9613 12.0566C14.1197 12.3157 14.1873 12.6157 14.1873 12.9375C14.1873 13.4716 13.935 13.8805 13.5445 14.1322C13.2654 14.3122 12.9376 14.3995 12.6248 14.4388V14.8125C12.6248 15.1577 12.3449 15.4375 11.9998 15.4375C11.6546 15.4375 11.3748 15.1577 11.3748 14.8125V14.4123C10.94 14.353 10.535 14.2538 10.2396 14.1554C9.91216 14.0462 9.73519 13.6923 9.84434 13.3648C9.9535 13.0373 10.3074 12.8604 10.6349 12.9695C11.0513 13.1083 11.7511 13.2455 12.3148 13.2125C12.6007 13.1957 12.7785 13.1388 12.8672 13.0817C12.9161 13.0501 12.9373 13.0289 12.9373 12.9375C12.9373 12.7904 12.9072 12.7289 12.8947 12.7084C12.8835 12.6901 12.8626 12.6649 12.8018 12.6355C12.6422 12.5583 12.3827 12.5271 11.9684 12.5064C11.9331 12.5046 11.8959 12.5029 11.8572 12.5011C11.5229 12.486 11.0781 12.4658 10.7191 12.3402C10.4997 12.2634 10.2593 12.1319 10.0773 11.8966C9.89045 11.6552 9.81227 11.3659 9.81227 11.0621C9.81227 10.5383 10.0534 10.1278 10.4068 9.8548C10.6936 9.63321 11.0402 9.51042 11.3748 9.45042V9.1875C11.3748 8.84232 11.6546 8.5625 11.9998 8.5625Z" fill="black"/>
</svg>
