<svg width="24" height="24" viewBox="0 0 24 24" fill="none" xmlns="http://www.w3.org/2000/svg">
<path fill-rule="evenodd" clip-rule="evenodd" d="M4.00775 11.6063C3.82159 16.0344 7.23588 19.7484 11.664 19.9346C15.9887 20.0082 19.6981 16.7019 19.9923 12.2783C20.1785 7.85014 16.7642 4.13618 12.336 3.95001C7.90788 3.76385 4.19392 7.17814 4.00775 11.6063ZM11.9919 6.49487C12.9487 6.49487 13.7973 7.19558 13.6838 8.18505L13.2644 12.3462C13.1759 13.0271 12.676 13.5395 11.997 13.5395C11.318 13.5395 10.8051 13.0089 10.7093 12.3462L10.3174 8.18505C10.2041 7.32797 10.9931 6.49487 11.9919 6.49487ZM13.2087 15.9177C13.2087 16.5851 12.6677 17.1261 12.0003 17.1261C11.3329 17.1261 10.7919 16.5851 10.7919 15.9177C10.7919 15.2503 11.3329 14.7093 12.0003 14.7093C12.6677 14.7093 13.2087 15.2503 13.2087 15.9177Z" fill="black"/>
</svg>
