<svg width="24" height="24" viewBox="0 0 24 24" fill="none" xmlns="http://www.w3.org/2000/svg">
<path fill-rule="evenodd" clip-rule="evenodd" d="M12 20C16.4183 20 20 16.4183 20 12C20 7.58172 16.4183 4 12 4C7.58172 4 4 7.58172 4 12C4 16.4183 7.58172 20 12 20ZM9.8602 10C9.98684 9.71781 10.1406 9.48789 10.3111 9.30314C10.7693 8.80649 11.4742 8.5 12.5 8.5C12.7173 8.5 13.0694 8.54528 13.3918 8.69171C13.6973 8.83051 13.9388 9.03955 14.0715 9.37139C14.2766 9.88417 14.8586 10.1336 15.3714 9.92848C15.8842 9.72336 16.1336 9.14139 15.9285 8.62861C15.5612 7.71045 14.8765 7.16949 14.2189 6.87079C13.5782 6.57972 12.9303 6.5 12.5 6.5C11.0621 6.5 9.767 6.94351 8.84119 7.94686C8.32247 8.50902 7.96093 9.20239 7.74501 10H7.25C6.83579 10 6.5 10.3358 6.5 10.75C6.5 11.1642 6.83579 11.5 7.25 11.5H7.51337C7.50443 11.6639 7.5 11.8306 7.5 12C7.5 12.1694 7.50443 12.3361 7.51337 12.5H7.25C6.83579 12.5 6.5 12.8358 6.5 13.25C6.5 13.6642 6.83579 14 7.25 14H7.74501C7.96093 14.7976 8.32247 15.491 8.84119 16.0531C9.767 17.0565 11.0621 17.5 12.5 17.5C12.9303 17.5 13.5782 17.4203 14.2189 17.1292C14.8765 16.8305 15.5612 16.2896 15.9285 15.3714C16.1336 14.8586 15.8842 14.2766 15.3714 14.0715C14.8586 13.8664 14.2766 14.1158 14.0715 14.6286C13.9388 14.9604 13.6973 15.1695 13.3918 15.3083C13.0694 15.4547 12.7173 15.5 12.5 15.5C11.4742 15.5 10.7693 15.1935 10.3111 14.6969C10.1406 14.5121 9.98684 14.2822 9.8602 14H12.25C12.6642 14 13 13.6642 13 13.25C13 12.8358 12.6642 12.5 12.25 12.5H9.51703C9.50584 12.3415 9.5 12.1749 9.5 12C9.5 11.8251 9.50584 11.6585 9.51703 11.5H12.25C12.6642 11.5 13 11.1642 13 10.75C13 10.3358 12.6642 10 12.25 10H9.8602Z" fill="black"/>
</svg>
