<svg width="24" height="24" viewBox="0 0 24 24" fill="none" xmlns="http://www.w3.org/2000/svg">
<path d="M12 8C9.79086 8 8 9.79086 8 12C8 12.8335 8.25495 13.6075 8.69112 14.2482L14.2482 8.69112C13.6075 8.25495 12.8335 8 12 8Z" fill="black"/>
<path d="M12 16C11.1665 16 10.3925 15.745 9.75178 15.3089L15.3089 9.75178C15.745 10.3925 16 11.1665 16 12C16 14.2091 14.2091 16 12 16Z" fill="black"/>
<path fill-rule="evenodd" clip-rule="evenodd" d="M12 20C16.4183 20 20 16.4183 20 12C20 7.58172 16.4183 4 12 4C7.58172 4 4 7.58172 4 12C4 16.4183 7.58172 20 12 20ZM6.5 12C6.5 8.96243 8.96243 6.5 12 6.5C15.0376 6.5 17.5 8.96243 17.5 12C17.5 15.0376 15.0376 17.5 12 17.5C8.96243 17.5 6.5 15.0376 6.5 12Z" fill="black"/>
</svg>
