<svg width="24" height="24" viewBox="0 0 24 24" fill="none" xmlns="http://www.w3.org/2000/svg">
<path d="M10.1805 10.3062C10.1794 10.3051 10.1788 10.3046 10.1787 10.3046C10.1785 10.3044 10.1787 10.3046 10.1787 10.3046L10.1805 10.3062Z" fill="black"/>
<path d="M10.197 10.3283C10.1993 10.3324 10.2002 10.3348 10.2 10.335C10.1999 10.3352 10.1987 10.3331 10.197 10.3283Z" fill="black"/>
<path fill-rule="evenodd" clip-rule="evenodd" d="M12 21.7031C17.3589 21.7031 21.7031 17.3589 21.7031 12C21.7031 6.64111 17.3589 2.29688 12 2.29688C6.64111 2.29688 2.29688 6.64111 2.29688 12C2.29688 17.3589 6.64111 21.7031 12 21.7031ZM13.2132 6.54199C13.2132 5.87213 12.6702 5.3291 12.0003 5.3291C11.3305 5.3291 10.7874 5.87213 10.7874 6.54199V7.05223C10.1382 7.16865 9.46559 7.40694 8.9089 7.83696C8.22306 8.36674 7.75521 9.16335 7.75521 10.1798C7.75521 10.7694 7.90693 11.3309 8.26945 11.7994C8.62282 12.256 9.08927 12.5111 9.51509 12.6601C10.2117 12.9039 11.0749 12.9431 11.7237 12.9725C11.7987 12.9759 11.8709 12.9792 11.9395 12.9826C12.7434 13.023 13.2471 13.0834 13.5568 13.2333C13.6747 13.2903 13.7153 13.3392 13.737 13.3747C13.7613 13.4145 13.8197 13.5338 13.8197 13.8193C13.8197 13.9967 13.7786 14.0379 13.6836 14.0991C13.5115 14.21 13.1666 14.3204 12.6117 14.3529C11.5178 14.417 10.1597 14.1509 9.35165 13.8815C8.71617 13.6697 8.02928 14.0131 7.81745 14.6486C7.60562 15.2841 7.94907 15.971 8.58455 16.1828C9.1577 16.3738 9.94379 16.5663 10.7874 16.6814V17.458C10.7874 18.1279 11.3305 18.6709 12.0003 18.6709C12.6702 18.6709 13.2132 18.1279 13.2132 17.458V16.7327C13.8202 16.6564 14.4564 16.4871 14.9981 16.1379C15.7559 15.6493 16.2454 14.8559 16.2454 13.8193C16.2454 13.1949 16.1143 12.6127 15.8069 12.1098C15.497 11.6026 15.0638 11.2675 14.6131 11.0495C13.7858 10.6493 12.7734 10.5957 12.0611 10.5599L11.9331 10.5535C11.1542 10.5147 10.6579 10.49 10.3163 10.3705C10.2486 10.3468 10.2113 10.3267 10.1932 10.3152C10.1878 10.2931 10.181 10.2509 10.181 10.1798C10.181 9.98378 10.2438 9.87104 10.3918 9.7567C10.5813 9.61032 10.9188 9.47229 11.3927 9.41308C11.8547 9.35535 12.3549 9.3849 12.7861 9.48548C13.243 9.59209 13.4893 9.74597 13.5686 9.8252C14.0423 10.2988 14.8102 10.2987 15.2838 9.82503C15.7575 9.35132 15.7574 8.58336 15.2837 8.10974C14.7565 7.58265 14.0173 7.2818 13.3372 7.12314C13.2961 7.11356 13.2548 7.10439 13.2132 7.09562V6.54199Z" fill="black"/>
</svg>
