<svg width="24" height="24" viewBox="0 0 24 24" fill="none" xmlns="http://www.w3.org/2000/svg">
<path fill-rule="evenodd" clip-rule="evenodd" d="M3.96924 12C3.96924 16.4494 7.55045 20.0306 11.9998 20.0306C16.3407 19.9221 19.9219 16.4494 20.0304 12C20.0304 7.55063 16.4492 3.96942 11.9998 3.96942C7.55045 3.96942 3.96924 7.55063 3.96924 12ZM8.82793 11.2424C8.3593 10.7737 7.59951 10.7737 7.13088 11.2424C6.66225 11.711 6.66225 12.4708 7.13088 12.9394L9.95885 15.7674C10.4275 16.236 11.1873 16.236 11.6559 15.7674L16.3362 11.0871C16.8048 10.6185 16.8048 9.85867 16.3362 9.39004C15.8676 8.92141 15.1078 8.92141 14.6391 9.39004L10.8074 13.2218L8.82793 11.2424Z" fill="black"/>
</svg>
