<svg width="24" height="24" viewBox="0 0 24 24" fill="none" xmlns="http://www.w3.org/2000/svg">
<path fill-rule="evenodd" clip-rule="evenodd" d="M8.70528 6.03235C8.89253 4.37697 10.2975 3.09064 12.003 3.09064C13.7084 3.09064 15.1134 4.37697 15.3007 6.03235H17.5001C18.3285 6.03235 19.0001 6.70392 19.0001 7.53235V17.5C19.0001 18.3284 18.3285 19 17.5001 19H6.5C5.67157 19 5 18.3284 5 17.5V7.53235C5 6.70392 5.67157 6.03235 6.5 6.03235H8.70528ZM13.3219 6.40953C13.3219 7.13793 12.7314 7.72841 12.003 7.72841C11.2746 7.72841 10.6841 7.13793 10.6841 6.40953C10.6841 5.68112 11.2746 5.09064 12.003 5.09064C12.7314 5.09064 13.3219 5.68112 13.3219 6.40953ZM8.45474 10.693C7.98529 10.693 7.60474 11.0736 7.60474 11.543C7.60474 12.0124 7.98529 12.393 8.45474 12.393H8.46436C8.93381 12.393 9.31436 12.0124 9.31436 11.543C9.31436 11.0736 8.93381 10.693 8.46436 10.693H8.45474ZM8.46426 13.693C7.99482 13.693 7.61426 14.0736 7.61426 14.543C7.61426 15.0124 7.99482 15.393 8.46426 15.393H8.47389C8.94333 15.393 9.32389 15.0124 9.32389 14.543C9.32389 14.0736 8.94333 13.693 8.47389 13.693H8.46426ZM11.2556 10.793C10.8414 10.793 10.5056 11.1288 10.5056 11.543C10.5056 11.9572 10.8414 12.293 11.2556 12.293H15.3883C15.8025 12.293 16.1383 11.9572 16.1383 11.543C16.1383 11.1288 15.8025 10.793 15.3883 10.793H11.2556ZM11.2556 13.793C10.8414 13.793 10.5056 14.1288 10.5056 14.543C10.5056 14.9572 10.8414 15.293 11.2556 15.293H15.3883C15.8025 15.293 16.1383 14.9572 16.1383 14.543C16.1383 14.1288 15.8025 13.793 15.3883 13.793H11.2556Z" fill="black"/>
</svg>
