<svg width="24" height="24" viewBox="0 0 24 24" fill="none" xmlns="http://www.w3.org/2000/svg">
<path fill-rule="evenodd" clip-rule="evenodd" d="M12 20C16.4183 20 20 16.4183 20 12C20 7.58172 16.4183 4 12 4C7.58172 4 4 7.58172 4 12C4 16.4183 7.58172 20 12 20ZM12 7C11.5858 7 11.25 6.66422 11.25 6.25V5.75C11.25 5.33579 11.5858 5 12 5C12.4142 5 12.75 5.33579 12.75 5.75V6.25C12.75 6.66422 12.4142 7 12 7ZM9.87801 8.46453C9.48748 8.074 8.85432 8.074 8.46379 8.46453C8.07327 8.85505 8.07327 9.48822 8.46379 9.87874L11.2922 12.7072C11.4798 12.8947 11.7341 13.0001 11.9993 13.0001H14.8278C15.38 13.0001 15.8278 12.5523 15.8278 12.0001C15.8278 11.4478 15.38 11.0001 14.8278 11.0001L12.4135 11.0001L9.87801 8.46453ZM5.75 11.25C5.33579 11.25 5 11.5858 5 12C5 12.4142 5.33579 12.75 5.75 12.75H6.25C6.66421 12.75 7 12.4142 7 12C7 11.5858 6.66421 11.25 6.25 11.25H5.75ZM17 12C17 11.5858 17.3358 11.25 17.75 11.25H18.25C18.6642 11.25 19 11.5858 19 12C19 12.4142 18.6642 12.75 18.25 12.75H17.75C17.3358 12.75 17 12.4142 17 12ZM11.25 18.25C11.25 18.6642 11.5858 19 12 19C12.4142 19 12.75 18.6642 12.75 18.25V17.75C12.75 17.3358 12.4142 17 12 17C11.5858 17 11.25 17.3358 11.25 17.75V18.25Z" fill="black"/>
</svg>
