<svg width="24" height="24" viewBox="0 0 24 24" fill="none" xmlns="http://www.w3.org/2000/svg">
<path fill-rule="evenodd" clip-rule="evenodd" d="M5.48147 11.2327C5.81252 7.6325 8.99944 4.98232 12.5997 5.31337C16.1999 5.64441 18.85 8.83133 18.519 12.4315C18.188 16.0318 15.001 18.6819 11.4008 18.3509C9.61445 18.1866 8.06334 17.3206 6.99206 16.0478C6.67146 15.6669 6.10279 15.618 5.7219 15.9386C5.341 16.2592 5.29212 16.8279 5.61271 17.2087C6.97709 18.8298 8.95802 19.9368 11.2357 20.1462C15.8275 20.5684 19.8921 17.1884 20.3143 12.5966C20.7365 8.00489 17.3565 3.94027 12.7647 3.51804C8.17299 3.09582 4.10837 6.47589 3.68615 11.0676C3.67692 11.168 3.68452 11.266 3.70661 11.3589H2.70926C2.20817 11.3589 1.92716 11.9361 2.23621 12.3305L4.07283 14.6746C4.31344 14.9817 4.77832 14.9817 5.01894 14.6746L6.85556 12.3305C7.1646 11.9361 6.88359 11.3589 6.3825 11.3589H5.46087C5.47057 11.318 5.47751 11.2758 5.48147 11.2327ZM11.9953 6.82422C9.74491 6.82422 7.84299 8.31099 7.21347 10.3552C8.15691 10.8431 8.5391 12.1308 7.8018 13.0718L7.33763 13.6642C8.06804 15.5234 9.87734 16.8403 11.9953 16.8403C14.7647 16.8403 17.0084 14.5967 17.0084 11.8323C17.0084 9.06783 14.7647 6.82422 11.9953 6.82422ZM12.526 9.52626C12.526 9.19436 12.2569 8.9253 11.925 8.9253C11.5931 8.9253 11.3241 9.19436 11.3241 9.52626V12.0811L13.5421 14.2992C13.7768 14.5339 14.1573 14.5339 14.392 14.2992C14.6267 14.0645 14.6267 13.684 14.392 13.4493L12.526 11.5833V9.52626Z" fill="black"/>
</svg>
