<svg width="24" height="24" viewBox="0 0 24 24" fill="none" xmlns="http://www.w3.org/2000/svg">
<path d="M9.50664 10.5818L8.26541 10.9203C7.57528 11.1085 7.3481 11.4858 7.37406 12.1561C7.56087 16.9788 11.4571 20.8508 16.2896 20.999C16.9387 21.0189 17.2759 20.7439 17.4379 20.15L17.786 18.8737C17.9753 18.1795 17.7614 17.7694 17.1323 17.5072L15.6762 16.9006C15.0587 16.6433 14.671 16.774 14.2724 17.2605L13.9572 17.6451C13.7655 17.879 13.4375 17.9552 13.1746 17.8059C12.0867 17.1882 11.1827 16.2842 10.5649 15.1964C10.4154 14.9333 10.4919 14.6049 10.7262 14.4133L11.1445 14.0715C11.6477 13.6601 11.7013 13.2518 11.4678 12.6912L10.8433 11.1925C10.5831 10.5681 10.2373 10.3825 9.50664 10.5818Z" fill="black"/>
<path d="M12.8888 14.237C12.9578 14.086 13.013 13.9228 13.0502 13.7466C13.1856 13.1042 13.0266 12.5323 12.8524 12.1143L12.2279 10.6155C12.0424 10.1704 11.6992 9.55657 10.9931 9.22239C10.3012 8.89494 9.60459 9.00023 9.11197 9.13458L7.87073 9.4731C7.33158 9.62014 6.73147 9.90714 6.31855 10.5026C5.91572 11.0836 5.85617 11.7232 5.87519 12.2141C5.90131 12.8884 5.98975 13.5468 6.13492 14.1835C4.2724 13.8734 2.85254 12.2546 2.85254 10.3041C2.85254 8.48254 4.09085 6.95022 5.77158 6.50304C6.22316 4.49781 8.01497 3 10.1566 3C11.547 3 12.7899 3.63126 13.6144 4.62281C14.0682 4.30811 14.6192 4.1237 15.2133 4.1237C16.7648 4.1237 18.0225 5.38145 18.0225 6.93296C18.0225 7.13831 18.0005 7.33852 17.9587 7.53134C19.5843 7.77204 20.8318 9.17331 20.8318 10.8659C20.8318 12.7277 19.3225 14.237 17.4607 14.237H12.8888Z" fill="black"/>
</svg>
