<svg width="24" height="24" viewBox="0 0 24 24" fill="none" xmlns="http://www.w3.org/2000/svg">
<path d="M7.5 16C5.567 16 4 14.433 4 12.5C4 10.879 5.10199 9.51536 6.59769 9.11741C6.99957 7.33292 8.59412 6 10.5 6C11.7373 6 12.8434 6.56177 13.5771 7.44416C13.981 7.16411 14.4713 7 15 7C16.3807 7 17.5 8.11929 17.5 9.5C17.5 9.68274 17.4804 9.86091 17.4432 10.0325C18.8899 10.2467 20 11.4937 20 13C20 14.6569 18.6569 16 17 16H16.1219C16.0136 15.6929 15.8366 15.4046 15.591 15.159C15.2153 14.7834 14.7399 14.5683 14.25 14.5138V13.75C14.25 12.5074 13.2426 11.5 12 11.5C10.7574 11.5 9.75 12.5074 9.75 13.75V14.5138C9.2601 14.5683 8.78466 14.7834 8.40901 15.159C8.16339 15.4046 7.98643 15.6929 7.87813 16H7.5Z" fill="black"/>
<path d="M12.75 13.75C12.75 13.3358 12.4142 13 12 13C11.5858 13 11.25 13.3358 11.25 13.75V16.9393L10.5303 16.2197C10.2374 15.9268 9.76256 15.9268 9.46967 16.2197C9.17678 16.5126 9.17678 16.9874 9.46967 17.2803L11.4689 19.2796C11.6047 19.4157 11.7925 19.5 12 19.5C12.203 19.5 12.3872 19.4193 12.5222 19.2883C12.5249 19.2857 12.5276 19.283 12.5303 19.2803L14.5303 17.2803C14.8232 16.9874 14.8232 16.5126 14.5303 16.2197C14.2374 15.9268 13.7626 15.9268 13.4697 16.2197L12.75 16.9393V13.75Z" fill="black"/>
</svg>
