<svg width="24" height="24" viewBox="0 0 24 24" fill="none" xmlns="http://www.w3.org/2000/svg">
<path fill-rule="evenodd" clip-rule="evenodd" d="M7.55556 19.0796C7.4104 19.1004 7.26201 19.1111 7.11111 19.1111C5.39289 19.1111 4 17.7182 4 16C4 14.5591 4.97955 13.347 6.30906 12.9933C6.66628 11.4071 8.08366 10.2222 9.77778 10.2222C10.8776 10.2222 11.8608 10.7216 12.513 11.5059C12.872 11.257 13.3078 11.1111 13.7778 11.1111C15.0051 11.1111 16 12.1061 16 13.3334C16 13.4958 15.9826 13.6542 15.9495 13.8067C17.2355 13.9971 18.2222 15.1056 18.2222 16.4445C18.2222 17.9172 17.0283 19.1111 15.5556 19.1111H7.55556V19.0796Z" fill="black"/>
<path d="M18.3461 13.5788C18.0406 13.2814 17.6878 13.0325 17.3 12.8442C17.0616 11.112 15.5755 9.7778 13.7778 9.7778C13.4323 9.7778 13.0976 9.82739 12.7808 9.91984C11.9527 9.27466 10.91 8.88892 9.77778 8.88892C8.13113 8.88892 6.67605 9.70234 5.7904 10.9489C5.78205 10.8559 5.77778 10.7618 5.77778 10.6667C5.77778 9.2258 6.75733 8.01368 8.08684 7.65995C8.44406 6.07374 9.86144 4.88892 11.5556 4.88892C12.6554 4.88892 13.6386 5.38827 14.2908 6.17262C14.6497 5.92368 15.0856 5.7778 15.5556 5.7778C16.7829 5.7778 17.7778 6.77273 17.7778 8.00003C17.7778 8.16247 17.7603 8.32084 17.7273 8.47337C19.0132 8.66377 20 9.77222 20 11.1111C20 12.2254 19.3166 13.18 18.3461 13.5788Z" fill="black"/>
</svg>
