<svg width="24" height="24" viewBox="0 0 24 24" fill="none" xmlns="http://www.w3.org/2000/svg">
<path d="M3.03271 14.5119C3.03271 16.7645 4.84918 18.592 7.08807 18.592H17.4517C19.4428 18.592 21.0565 16.9685 21.0565 14.9653C21.0565 13.2114 19.8174 11.7466 18.1727 11.4122C18.2882 11.109 18.3529 10.7775 18.3529 10.4319C18.3529 8.93016 17.142 7.71181 15.6494 7.71181C15.0946 7.71181 14.5764 7.88181 14.1483 8.17082C13.3682 6.81079 11.9122 5.89844 10.2422 5.89844C7.7527 5.89844 5.73628 7.92714 5.73628 10.4319C5.73628 10.5084 5.7391 10.5849 5.74192 10.6614C4.16483 11.2195 3.03271 12.7326 3.03271 14.5119Z" fill="black"/>
</svg>
