<svg width="24" height="24" viewBox="0 0 24 24" fill="none" xmlns="http://www.w3.org/2000/svg">
<path fill-rule="evenodd" clip-rule="evenodd" d="M7.55556 19.0796C7.4104 19.1004 7.26201 19.1111 7.11111 19.1111C5.39289 19.1111 4 17.7182 4 16C4 14.5591 4.97955 13.347 6.30906 12.9933C6.66628 11.407 8.08366 10.2222 9.77778 10.2222C10.8776 10.2222 11.8608 10.7216 12.513 11.5059C12.872 11.257 13.3078 11.1111 13.7778 11.1111C15.0051 11.1111 16 12.106 16 13.3333C16 13.4958 15.9826 13.6541 15.9495 13.8067C17.2355 13.9971 18.2222 15.1055 18.2222 16.4444C18.2222 17.9172 17.0283 19.1111 15.5556 19.1111H7.55556V19.0796Z" fill="black"/>
<path d="M18.3461 13.5787C18.0406 13.2814 17.6878 13.0324 17.3 12.8442C17.0616 11.112 15.5755 9.77777 13.7778 9.77777C13.4323 9.77777 13.0976 9.82736 12.7808 9.91981C11.9527 9.27463 10.91 8.88889 9.77778 8.88889C8.13113 8.88889 6.67605 9.70231 5.7904 10.9488C5.78205 10.8559 5.77778 10.7618 5.77778 10.6667C5.77778 9.22576 6.75733 8.01365 8.08684 7.65992C8.44406 6.07371 9.86144 4.88889 11.5556 4.88889C12.6554 4.88889 13.6386 5.38824 14.2908 6.17259C14.6497 5.92365 15.0856 5.77777 15.5556 5.77777C16.7829 5.77777 17.7778 6.7727 17.7778 8C17.7778 8.16244 17.7603 8.3208 17.7273 8.47333C19.0132 8.66374 20 9.77219 20 11.1111C20 12.2254 19.3166 13.18 18.3461 13.5787Z" fill="black"/>
</svg>
