<svg width="24" height="24" viewBox="0 0 24 24" fill="none" xmlns="http://www.w3.org/2000/svg">
<path d="M9.50664 10.5819L8.26541 10.9204C7.57528 11.1086 7.3481 11.4859 7.37406 12.1562C7.56087 16.979 11.4571 20.851 16.2896 20.9991C16.9387 21.019 17.2759 20.744 17.4379 20.1502L17.786 18.8738C17.9753 18.1796 17.7614 17.7695 17.1323 17.5074L15.6762 16.9007C15.0587 16.6434 14.671 16.7742 14.2724 17.2606L13.9572 17.6452C13.7655 17.8791 13.4375 17.9553 13.1746 17.806C12.0867 17.1883 11.1827 16.2844 10.5649 15.1966C10.4154 14.9334 10.4919 14.605 10.7262 14.4135L11.1445 14.0716C11.6477 13.6602 11.7013 13.2519 11.4678 12.6913L10.8433 11.1926C10.5831 10.5682 10.2373 10.3826 9.50664 10.5819Z" fill="black"/>
<path d="M12.8888 14.2372C12.9578 14.0861 13.013 13.9229 13.0502 13.7467C13.1856 13.1044 13.0266 12.5324 12.8524 12.1144L12.2279 10.6156C12.0424 10.1705 11.6992 9.55669 10.9931 9.22251C10.3012 8.89506 9.60459 9.00035 9.11197 9.13471L7.87073 9.47322C7.33158 9.62026 6.73147 9.90726 6.31855 10.5028C5.91572 11.0837 5.85617 11.7233 5.87519 12.2142C5.90131 12.8886 5.98975 13.5469 6.13492 14.1836C4.2724 13.8736 2.85254 12.2547 2.85254 10.3042C2.85254 8.48266 4.09085 6.95035 5.77158 6.50317C6.22316 4.49793 8.01497 3.00012 10.1566 3.00012C11.547 3.00012 12.7899 3.63138 13.6144 4.62293C14.0682 4.30823 14.6192 4.12383 15.2133 4.12383C16.7648 4.12383 18.0225 5.38157 18.0225 6.93308C18.0225 7.13843 18.0005 7.33864 17.9587 7.53146C19.5843 7.77217 20.8318 9.17343 20.8318 10.866C20.8318 12.7279 19.3225 14.2372 17.4607 14.2372H12.8888Z" fill="black"/>
</svg>
