<svg width="24" height="24" viewBox="0 0 24 24" fill="none" xmlns="http://www.w3.org/2000/svg">
<path fill-rule="evenodd" clip-rule="evenodd" d="M7.55556 19.0794C7.4104 19.1002 7.26201 19.1109 7.11111 19.1109C5.39289 19.1109 4 17.718 4 15.9998C4 14.5589 4.97955 13.3468 6.30906 12.993C6.66628 11.4068 8.08367 10.222 9.77778 10.222C10.8776 10.222 11.8608 10.7214 12.513 11.5057C12.872 11.2568 13.3078 11.1109 13.7778 11.1109C15.0051 11.1109 16 12.1058 16 13.3331C16 13.4956 15.9826 13.6539 15.9495 13.8065C17.2355 13.9969 18.2222 15.1053 18.2222 16.4442C18.2222 17.917 17.0283 19.1109 15.5556 19.1109H7.55556V19.0794Z" fill="black"/>
<path d="M18.3461 13.5785C18.0406 13.2812 17.6878 13.0322 17.3 12.844C17.0616 11.1118 15.5755 9.77756 13.7778 9.77756C13.4323 9.77756 13.0976 9.82715 12.7808 9.9196C11.9527 9.27442 10.91 8.88867 9.77778 8.88867C8.13113 8.88867 6.67605 9.7021 5.7904 10.9486C5.78205 10.8557 5.77778 10.7616 5.77778 10.6664C5.77778 9.22555 6.75733 8.01344 8.08684 7.6597C8.44406 6.07349 9.86144 4.88867 11.5556 4.88867C12.6554 4.88867 13.6386 5.38802 14.2908 6.17237C14.6497 5.92343 15.0856 5.77756 15.5556 5.77756C16.7829 5.77756 17.7778 6.77248 17.7778 7.99978C17.7778 8.16222 17.7603 8.32059 17.7273 8.47312C19.0132 8.66353 20 9.77198 20 11.1109C20 12.2251 19.3166 13.1798 18.3461 13.5785Z" fill="black"/>
</svg>
