<svg width="24" height="24" viewBox="0 0 24 24" fill="none" xmlns="http://www.w3.org/2000/svg">
<path d="M9.50671 10.5819L8.26547 10.9204C7.57534 11.1086 7.34816 11.4859 7.37413 12.1562C7.56093 16.979 11.4572 20.851 16.2897 20.9991C16.9388 21.019 17.276 20.744 17.4379 20.1502L17.7861 18.8738C17.9754 18.1796 17.7615 17.7695 17.1323 17.5074L15.6763 16.9007C15.0588 16.6434 14.671 16.7742 14.2724 17.2606L13.9572 17.6452C13.7656 17.8791 13.4376 17.9553 13.1746 17.806C12.0868 17.1883 11.1827 16.2844 10.5649 15.1966C10.4155 14.9334 10.492 14.605 10.7263 14.4135L11.1446 14.0716C11.6478 13.6602 11.7014 13.2519 11.4678 12.6913L10.8434 11.1926C10.5832 10.5682 10.2373 10.3826 9.50671 10.5819Z" fill="black"/>
<path d="M12.8889 14.2372C12.9578 14.0861 13.0131 13.9229 13.0502 13.7467C13.1856 13.1044 13.0266 12.5324 12.8525 12.1144L12.228 10.6157C12.0425 10.1705 11.6992 9.5567 10.9931 9.22252C10.3013 8.89507 9.60465 9.00036 9.11203 9.13471L7.8708 9.47323C7.33165 9.62027 6.73153 9.90726 6.31861 10.5028C5.91579 11.0837 5.85623 11.7233 5.87525 12.2142C5.90137 12.8886 5.98981 13.5469 6.13498 14.1836C4.27246 13.8736 2.8526 12.2547 2.8526 10.3042C2.8526 8.48266 4.09091 6.95035 5.77164 6.50317C6.22322 4.49794 8.01503 3.00013 10.1567 3.00013C11.547 3.00013 12.7899 3.63139 13.6144 4.62294C14.0682 4.30824 14.6192 4.12383 15.2133 4.12383C16.7648 4.12383 18.0226 5.38158 18.0226 6.93309C18.0226 7.13844 18.0006 7.33864 17.9587 7.53146C19.5844 7.77217 20.8318 9.17343 20.8318 10.866C20.8318 12.7279 19.3226 14.2372 17.4607 14.2372H12.8889Z" fill="black"/>
</svg>
