<svg width="24" height="24" viewBox="0 0 24 24" fill="none" xmlns="http://www.w3.org/2000/svg">
<path d="M4 8C4 6.89543 4.89543 6 6 6H18C19.1046 6 20 6.89543 20 8V9.5H4V8Z" fill="black"/>
<path fill-rule="evenodd" clip-rule="evenodd" d="M4 11H20V16C20 17.1046 19.1046 18 18 18H6C4.89543 18 4 17.1046 4 16V11ZM15 15C15 15.5523 15.4477 16 16 16H17C17.5523 16 18 15.5523 18 15V14C18 13.4477 17.5523 13 17 13H16C15.4477 13 15 13.4477 15 14V15ZM6 15.25C6 15.6642 6.33579 16 6.75 16H11.25C11.6642 16 12 15.6642 12 15.25C12 14.8358 11.6642 14.5 11.25 14.5H6.75C6.33579 14.5 6 14.8358 6 15.25Z" fill="black"/>
</svg>
