<svg width="24" height="24" viewBox="0 0 24 24" fill="none" xmlns="http://www.w3.org/2000/svg">
<path d="M12.1149 3.29102C11.5626 3.29102 11.1149 3.73873 11.1149 4.29102C11.1149 4.8433 11.5626 5.29102 12.1149 5.29102C12.6671 5.29102 13.1149 4.8433 13.1149 4.29102C13.1149 3.73873 12.6671 3.29102 12.1149 3.29102Z" fill="black"/>
<path d="M4.11968 10.0627L5.35383 15.6164C5.50635 16.3027 6.11507 16.791 6.81811 16.791H17.4116C18.1146 16.791 18.7234 16.3027 18.8759 15.6164L20.11 10.0627C20.3006 9.20539 19.3725 8.53645 18.6193 8.98832L15.6149 10.791L12.9341 6.96135C12.536 6.39263 11.6937 6.39263 11.2956 6.96135L8.61486 10.791L5.61037 8.98832C4.85725 8.53645 3.92916 9.20539 4.11968 10.0627Z" fill="black"/>
<path d="M5.61486 19.291C5.61486 18.7387 6.06257 18.291 6.61486 18.291H17.6149C18.1671 18.291 18.6149 18.7387 18.6149 19.291C18.6149 19.8433 18.1671 20.291 17.6149 20.291H6.61486C6.06257 20.291 5.61486 19.8433 5.61486 19.291Z" fill="black"/>
</svg>
