<svg width="24" height="24" viewBox="0 0 24 24" fill="none" xmlns="http://www.w3.org/2000/svg">
<path d="M12.1149 3.29156C11.5626 3.29156 11.1149 3.73928 11.1149 4.29156C11.1149 4.84385 11.5626 5.29156 12.1149 5.29156C12.6671 5.29156 13.1149 4.84385 13.1149 4.29156C13.1149 3.73928 12.6671 3.29156 12.1149 3.29156Z" fill="black"/>
<path d="M4.11968 10.0633L5.35383 15.617C5.50635 16.3033 6.11507 16.7916 6.81811 16.7916H17.4116C18.1146 16.7916 18.7234 16.3033 18.8759 15.617L20.11 10.0633C20.3006 9.20593 19.3725 8.537 18.6193 8.98887L15.6149 10.7916L12.9341 6.9619C12.536 6.39318 11.6937 6.39318 11.2956 6.9619L8.61486 10.7916L5.61037 8.98887C4.85725 8.537 3.92916 9.20593 4.11968 10.0633Z" fill="black"/>
<path d="M5.61486 19.2916C5.61486 18.7393 6.06257 18.2916 6.61486 18.2916H17.6149C18.1671 18.2916 18.6149 18.7393 18.6149 19.2916C18.6149 19.8438 18.1671 20.2916 17.6149 20.2916H6.61486C6.06257 20.2916 5.61486 19.8438 5.61486 19.2916Z" fill="black"/>
</svg>
