<svg width="24" height="24" viewBox="0 0 24 24" fill="none" xmlns="http://www.w3.org/2000/svg">
<path d="M17.3618 9.85649C15.9269 10.2665 14.0317 10.5 12 10.5C9.96834 10.5 8.07313 10.2665 6.63817 9.85649C6.05229 9.6891 5.48416 9.4759 5 9.20068V11C5 12.1046 8.13401 13 12 13C15.866 13 19 12.1046 19 11V9.20068C18.5158 9.4759 17.9477 9.6891 17.3618 9.85649Z" fill="black"/>
<path d="M19 6.99999C19 8.10456 15.866 8.99999 12 8.99999C8.13401 8.99999 5 8.10456 5 6.99999C5 5.89542 8.13401 4.99999 12 4.99999C15.866 4.99999 19 5.89542 19 6.99999Z" fill="black"/>
<path d="M19 13.2007C18.5158 13.4759 17.9477 13.6891 17.3618 13.8565C15.9269 14.2665 14.0317 14.5 12 14.5C9.96834 14.5 8.07313 14.2665 6.63817 13.8565C6.05229 13.6891 5.48416 13.4759 5 13.2007V15C5 16.1046 8.13401 17 12 17C15.866 17 19 16.1046 19 15V13.2007Z" fill="black"/>
<path d="M19 17.2007C18.5158 17.4759 17.9477 17.6891 17.3618 17.8565C15.9269 18.2665 14.0317 18.5 12 18.5C9.96834 18.5 8.07313 18.2665 6.63817 17.8565C6.05229 17.6891 5.48416 17.4759 5 17.2007V19C5 19.012 5.00037 19.0239 5.0011 19.0359C5.00233 19.0558 5.00457 19.0756 5.00781 19.0953C5.18197 20.1556 8.24586 21 12 21C14.8995 21 17.3872 20.4963 18.4499 19.7785C18.8041 19.5392 19 19.2761 19 19V17.2007Z" fill="black"/>
</svg>
