<svg width="24" height="24" viewBox="0 0 24 24" fill="none" xmlns="http://www.w3.org/2000/svg">
<path fill-rule="evenodd" clip-rule="evenodd" d="M8.90652 5.6391L4.26366 10.6391C3.55111 11.4065 3.55111 12.5935 4.26366 13.3609L8.90652 18.3609C9.28494 18.7684 9.81597 19 10.3721 19H18C19.1045 19 20 18.1046 20 17V7C20 5.89543 19.1045 5 18 5H10.3721C9.81597 5 9.28494 5.23156 8.90652 5.6391ZM15.9571 9.04289C16.3476 9.43342 16.3476 10.0666 15.9571 10.4571L14.4142 12L15.9571 13.5429C16.3476 13.9334 16.3476 14.5666 15.9571 14.9571C15.5665 15.3476 14.9334 15.3476 14.5429 14.9571L13 13.4142L11.4571 14.9571C11.0665 15.3476 10.4334 15.3476 10.0429 14.9571C9.65234 14.5666 9.65234 13.9334 10.0429 13.5429L11.5858 12L10.0429 10.4571C9.65234 10.0666 9.65234 9.43342 10.0429 9.04289C10.4334 8.65237 11.0665 8.65237 11.4571 9.04289L13 10.5858L14.5429 9.04289C14.9334 8.65237 15.5665 8.65237 15.9571 9.04289Z" fill="black"/>
</svg>
