<svg width="24" height="24" viewBox="0 0 24 24" fill="none" xmlns="http://www.w3.org/2000/svg">
<path fill-rule="evenodd" clip-rule="evenodd" d="M13.0352 3.01089C12.3082 3.0098 11.5802 3.0085 10.8534 3.0072C9.73006 3.00519 8.60956 3.00319 7.50005 3.00195C6.39546 3.00072 5.5 3.89619 5.5 5.00078V19.0007C5.5 20.1053 6.39543 21.0007 7.5 21.0007H16.5C17.6046 21.0007 18.5 20.1053 18.5 19.0007V12.2467C17.5452 12.6228 16.3343 12.2478 15.8902 11.1217L15.7385 10.7371C15.4217 11.0544 14.9838 11.2507 14.5 11.2507H10C9.0335 11.2507 8.25 10.4672 8.25 9.50073V7.50073C8.25 6.53423 9.0335 5.75073 10 5.75073H11.9884C11.3953 4.89005 11.6623 3.56735 12.7896 3.12277L13.0282 3.02866L13.0352 3.01089ZM8 14.2507C8 13.8365 8.33579 13.5007 8.75 13.5007H15.25C15.6642 13.5007 16 13.8365 16 14.2507C16 14.6649 15.6642 15.0007 15.25 15.0007H8.75C8.33579 15.0007 8 14.6649 8 14.2507ZM8 17.2507C8 16.8365 8.33579 16.5007 8.75 16.5007H15.25C15.6642 16.5007 16 16.8365 16 17.2507C16 17.6649 15.6642 18.0007 15.25 18.0007H8.75C8.33579 18.0007 8 17.6649 8 17.2507Z" fill="black"/>
<path d="M13.1749 7.25073H10C9.86193 7.25073 9.75 7.36266 9.75 7.50073V9.50073C9.75 9.6388 9.86193 9.75073 10 9.75073H14.5C14.5494 9.75073 14.5955 9.73639 14.6343 9.71164L14.3798 9.61125C13.3497 9.20501 12.9481 8.15724 13.1749 7.25073Z" fill="black"/>
<path d="M14.9821 3.34041C14.8988 3.12937 14.6002 3.12937 14.5169 3.34041L14.2237 4.08404C14.1982 4.14847 14.1472 4.19947 14.0828 4.22488L13.3392 4.51816C13.1281 4.60139 13.1281 4.90006 13.3392 4.98329L14.0828 5.27658C14.1472 5.30199 14.1982 5.35299 14.2237 5.41742L14.5169 6.16105C14.6002 6.37208 14.8988 6.37208 14.9821 6.16105L15.2754 5.41742C15.3008 5.35299 15.3518 5.30199 15.4162 5.27658L16.1598 4.98329C16.3709 4.90006 16.3709 4.60139 16.1598 4.51816L15.4162 4.22488C15.3518 4.19947 15.3008 4.14847 15.2754 4.08404L14.9821 3.34041Z" fill="black"/>
<path d="M18.2149 4.93009C18.0484 4.50801 17.4511 4.50801 17.2846 4.93009L16.6981 6.41734C16.6472 6.5462 16.5452 6.64821 16.4164 6.69903L14.9291 7.2856C14.507 7.45206 14.507 8.0494 14.9291 8.21586L16.4164 8.80243C16.5452 8.85325 16.6472 8.95525 16.6981 9.08411L17.2846 10.5714C17.4511 10.9934 18.0484 10.9934 18.2149 10.5714L18.8015 9.08411C18.8523 8.95525 18.9543 8.85325 19.0831 8.80243L20.5704 8.21586C20.9925 8.0494 20.9925 7.45206 20.5704 7.2856L19.0831 6.69903C18.9543 6.64821 18.8523 6.5462 18.8015 6.41734L18.2149 4.93009Z" fill="black"/>
</svg>
