<svg width="24" height="24" viewBox="0 0 24 24" fill="none" xmlns="http://www.w3.org/2000/svg">
<path fill-rule="evenodd" clip-rule="evenodd" d="M13.0352 3.01016C12.3082 3.00907 11.5802 3.00776 10.8534 3.00647C9.73006 3.00446 8.60956 3.00246 7.50005 3.00122C6.39546 2.99999 5.5 3.89545 5.5 5.00005V19C5.5 20.1046 6.39543 21 7.5 21H16.5C17.6046 21 18.5 20.1046 18.5 19V12.2459C17.5452 12.622 16.3343 12.2471 15.8902 11.121L15.7385 10.7364C15.4217 11.0537 14.9838 11.25 14.5 11.25H10C9.0335 11.25 8.25 10.4665 8.25 9.5V7.5C8.25 6.5335 9.0335 5.75 10 5.75H11.9884C11.3953 4.88932 11.6623 3.56662 12.7896 3.12203L13.0282 3.02793L13.0352 3.01016ZM8 14.25C8 13.8358 8.33579 13.5 8.75 13.5H15.25C15.6642 13.5 16 13.8358 16 14.25C16 14.6642 15.6642 15 15.25 15H8.75C8.33579 15 8 14.6642 8 14.25ZM8 17.25C8 16.8358 8.33579 16.5 8.75 16.5H15.25C15.6642 16.5 16 16.8358 16 17.25C16 17.6642 15.6642 18 15.25 18H8.75C8.33579 18 8 17.6642 8 17.25Z" fill="black"/>
<path d="M13.1749 7.25H10C9.86193 7.25 9.75 7.36193 9.75 7.5V9.5C9.75 9.63807 9.86193 9.75 10 9.75H14.5C14.5494 9.75 14.5955 9.73566 14.6343 9.71091L14.3798 9.61052C13.3497 9.20428 12.9481 8.1565 13.1749 7.25Z" fill="black"/>
<path d="M14.9821 3.33967C14.8988 3.12864 14.6002 3.12864 14.5169 3.33967L14.2237 4.0833C14.1982 4.14773 14.1472 4.19873 14.0828 4.22415L13.3392 4.51743C13.1281 4.60066 13.1281 4.89933 13.3392 4.98256L14.0828 5.27584C14.1472 5.30125 14.1982 5.35226 14.2237 5.41669L14.5169 6.16032C14.6002 6.37135 14.8988 6.37135 14.9821 6.16032L15.2754 5.41669C15.3008 5.35226 15.3518 5.30125 15.4162 5.27584L16.1598 4.98256C16.3709 4.89933 16.3709 4.60066 16.1598 4.51743L15.4162 4.22415C15.3518 4.19873 15.3008 4.14773 15.2754 4.0833L14.9821 3.33967Z" fill="black"/>
<path d="M18.2149 4.92935C18.0484 4.50728 17.4511 4.50728 17.2846 4.92935L16.6981 6.41661C16.6472 6.54547 16.5452 6.64747 16.4164 6.6983L14.9291 7.28486C14.507 7.45133 14.507 8.04866 14.9291 8.21513L16.4164 8.80169C16.5452 8.85252 16.6472 8.95452 16.6981 9.08338L17.2846 10.5706C17.4511 10.9927 18.0484 10.9927 18.2149 10.5706L18.8015 9.08338C18.8523 8.95452 18.9543 8.85252 19.0831 8.80169L20.5704 8.21513C20.9925 8.04866 20.9925 7.45133 20.5704 7.28486L19.0831 6.6983C18.9543 6.64747 18.8523 6.54547 18.8015 6.41661L18.2149 4.92935Z" fill="black"/>
</svg>
