<svg width="24" height="24" viewBox="0 0 24 24" fill="none" xmlns="http://www.w3.org/2000/svg">
<path d="M2.24719 12C2.24719 10.6555 3.33672 9.56598 4.68124 9.56598C6.02576 9.56598 7.11529 10.6555 7.11529 12C7.11529 13.3446 6.02576 14.4341 4.68124 14.4341C3.33672 14.4341 2.24719 13.3446 2.24719 12Z" fill="black"/>
<path d="M12.0294 9.56598C10.6849 9.56598 9.59537 10.6555 9.59537 12C9.59537 13.3446 10.6849 14.4341 12.0294 14.4341C13.3739 14.4341 14.4635 13.3446 14.4635 12C14.4635 10.6555 13.3739 9.56598 12.0294 9.56598Z" fill="black"/>
<path d="M19.3188 9.56598C17.9743 9.56598 16.8847 10.6555 16.8847 12C16.8847 13.3446 17.9743 14.4341 19.3188 14.4341C20.6633 14.4341 21.7528 13.3446 21.7528 12C21.7528 10.6555 20.6633 9.56598 19.3188 9.56598Z" fill="black"/>
</svg>
