<svg width="24" height="24" viewBox="0 0 24 24" fill="none" xmlns="http://www.w3.org/2000/svg">
<path d="M4.75 8.9107C3.73572 8.59213 3 7.64456 3 6.52515C3 5.14443 4.11929 4.02515 5.5 4.02515C6.61941 4.02515 7.56698 4.76087 7.88555 5.77515H9V7.27515H7.88555C7.64135 8.05266 7.02752 8.66649 6.25 8.9107V16.1396C7.02752 16.3838 7.64135 16.9976 7.88555 17.7751H15.1145C15.3587 16.9976 15.9725 16.3838 16.75 16.1396V13.7613L17.3375 14.181C17.6254 14.3866 17.9376 14.5028 18.25 14.5419V16.1396C19.2643 16.4582 20 17.4057 20 18.5251C20 19.9059 18.8807 21.0251 17.5 21.0251C16.3806 21.0251 15.433 20.2894 15.1145 19.2751H7.88555C7.56698 20.2894 6.61941 21.0251 5.5 21.0251C4.11929 21.0251 3 19.9059 3 18.5251C3 17.4057 3.73572 16.4582 4.75 16.1396V8.9107Z" fill="black"/>
<path fill-rule="evenodd" clip-rule="evenodd" d="M19.0011 3.02992C20.1053 3.03055 21 3.9258 21 5.02992V9.02512C21 10.1297 20.1046 11.0251 19 11.0251V12.5535C19 12.9602 18.5403 13.1968 18.2094 12.9604L15.5 11.0251H12.5C11.3954 11.0251 10.5 10.1297 10.5 9.02511V5.02624C10.5 3.92123 11.3961 3.02562 12.5011 3.02625L19.0011 3.02992ZM12.875 5.52515C12.875 5.17997 13.1548 4.90015 13.5 4.90015H18C18.3452 4.90015 18.625 5.17997 18.625 5.52515C18.625 5.87032 18.3452 6.15015 18 6.15015H13.5C13.1548 6.15015 12.875 5.87032 12.875 5.52515ZM13.5 7.90015C13.1548 7.90015 12.875 8.17997 12.875 8.52515C12.875 8.87033 13.1548 9.15015 13.5 9.15015H18C18.3452 9.15015 18.625 8.87033 18.625 8.52515C18.625 8.17997 18.3452 7.90015 18 7.90015H13.5Z" fill="black"/>
</svg>
