<svg width="24" height="24" viewBox="0 0 24 24" fill="none" xmlns="http://www.w3.org/2000/svg">
<path d="M2.24719 12.0005C2.24719 10.6559 3.33672 9.56641 4.68124 9.56641C6.02576 9.56641 7.11529 10.6559 7.11529 12.0005C7.11529 13.345 6.02576 14.4345 4.68124 14.4345C3.33672 14.4345 2.24719 13.345 2.24719 12.0005Z" fill="black"/>
<path d="M12.0294 9.56641C10.6849 9.56641 9.59537 10.6559 9.59537 12.0005C9.59537 13.345 10.6849 14.4345 12.0294 14.4345C13.3739 14.4345 14.4635 13.345 14.4635 12.0005C14.4635 10.6559 13.3739 9.56641 12.0294 9.56641Z" fill="black"/>
<path d="M19.3188 9.56641C17.9743 9.56641 16.8847 10.6559 16.8847 12.0005C16.8847 13.345 17.9743 14.4345 19.3188 14.4345C20.6633 14.4345 21.7528 13.345 21.7528 12.0005C21.7528 10.6559 20.6633 9.56641 19.3188 9.56641Z" fill="black"/>
</svg>
