<svg width="24" height="24" viewBox="0 0 24 24" fill="none" xmlns="http://www.w3.org/2000/svg">
<path d="M18.0001 8L18.4394 8.43934C19.0252 9.02513 19.0252 9.97487 18.4394 10.5607L17.5607 11.4393C16.9749 12.0251 16.0252 12.0251 15.4394 11.4393L12.5607 8.56066C11.9749 7.97487 11.9749 7.02513 12.5607 6.43934L13.4394 5.56066C14.0252 4.97487 14.9749 4.97487 15.5607 5.56066L16.0001 6L17.0001 5C17.5523 4.44771 18.4478 4.44772 19.0001 5C19.5523 5.55228 19.5523 6.44771 19.0001 7L18.0001 8Z" fill="black"/>
<path d="M5.50006 15.5L4.63251 18.1026C4.37193 18.8844 5.11567 19.6281 5.89742 19.3675L8.50006 18.5L14.0001 13L11.0001 10L5.50006 15.5Z" fill="black"/>
</svg>
