<svg width="24" height="24" viewBox="0 0 24 24" fill="none" xmlns="http://www.w3.org/2000/svg">
<path d="M18 8L18.4393 8.43934C19.0251 9.02513 19.0251 9.97487 18.4393 10.5607L17.5607 11.4393C16.9749 12.0251 16.0251 12.0251 15.4393 11.4393L12.5607 8.56066C11.9749 7.97487 11.9749 7.02513 12.5607 6.43934L13.4393 5.56066C14.0251 4.97487 14.9749 4.97487 15.5607 5.56066L16 6L17 5C17.5523 4.44771 18.4477 4.44771 19 5C19.5523 5.55228 19.5523 6.44771 19 7L18 8Z" fill="black"/>
<path d="M5.5 15.5L4.63245 18.1026C4.37187 18.8844 5.11561 19.6281 5.89736 19.3675L8.5 18.5L14 13L11 10L5.5 15.5Z" fill="black"/>
</svg>
