<svg width="24" height="24" viewBox="0 0 24 24" fill="none" xmlns="http://www.w3.org/2000/svg">
<path d="M13.5906 6.13646C13.2268 5.77258 13.2268 5.18261 13.5906 4.81873L14.1365 4.27291C14.5003 3.90903 15.0903 3.90903 15.4542 4.27291L16.9318 5.7505L17.3977 5.28462C17.7615 4.92074 18.3515 4.92074 18.7154 5.28462C19.0793 5.6485 19.0793 6.23846 18.7154 6.60234L18.2495 7.06823L19.7271 8.54582C20.091 8.9097 20.091 9.49966 19.7271 9.86354L19.1813 10.4094C18.8174 10.7732 18.2274 10.7732 17.8635 10.4094C18.2274 10.7732 18.2274 11.3632 17.8635 11.7271L17.3177 12.2729C16.9538 12.6368 16.3639 12.6368 16 12.2729L14.5224 10.7953L10.7953 14.5224L12.2729 16C12.6368 16.3639 12.6368 16.9538 12.2729 17.3177L11.7271 17.8635C11.3632 18.2274 10.7732 18.2274 10.4094 17.8635C10.7732 18.2274 10.7732 18.8174 10.4094 19.1813L9.86355 19.7271C9.49967 20.091 8.9097 20.091 8.54582 19.7271L7.06823 18.2495L6.60234 18.7154C6.23846 19.0793 5.6485 19.0793 5.28462 18.7154C4.92074 18.3515 4.92074 17.7615 5.28462 17.3977L5.7505 16.9318L4.27291 15.4542C3.90903 15.0903 3.90903 14.5003 4.27291 14.1365L4.81873 13.5906C5.18261 13.2268 5.77258 13.2268 6.13645 13.5906C5.77258 13.2268 5.77257 12.6368 6.13645 12.2729L6.68227 11.7271C7.04615 11.3632 7.63612 11.3632 8 11.7271L9.47759 13.2047L13.2047 9.47759L11.7271 8C11.3632 7.63612 11.3632 7.04616 11.7271 6.68228L12.2729 6.13646C12.6368 5.77258 13.2268 5.77258 13.5906 6.13646Z" fill="black"/>
</svg>
