<svg width="24" height="24" viewBox="0 0 24 24" fill="none" xmlns="http://www.w3.org/2000/svg">
<path d="M8.96997 4.51752C9.27658 4.20032 9.60959 3.90974 9.96541 3.64891C9.98106 3.63765 9.99232 3.62131 9.99726 3.60267C10.0022 3.58403 10.0005 3.56426 9.99252 3.54672C9.9845 3.52918 9.97064 3.51496 9.95332 3.50649C9.93599 3.49803 9.91626 3.49585 9.8975 3.50031C8.64724 3.78413 7.4815 4.35866 6.49482 5.1773C6.44856 5.21529 6.41214 5.26387 6.38862 5.31891C6.36511 5.37396 6.35518 5.43386 6.35971 5.49355C6.36423 5.55324 6.38306 5.61096 6.41461 5.66184C6.44615 5.71271 6.48948 5.75524 6.54094 5.78583C6.79716 5.93444 7.0598 6.07152 7.32884 6.19707C7.41302 6.23673 7.50898 6.24346 7.59788 6.21597C7.68678 6.18847 7.76217 6.12872 7.80926 6.04846C8.13461 5.49428 8.52421 4.98042 8.96997 4.51752Z" fill="black"/>
<path d="M5.63191 6.63783C6.03377 6.89028 6.45094 7.11748 6.88101 7.31811C6.96439 7.35683 7.03017 7.42549 7.06529 7.51045C7.10042 7.5954 7.10231 7.69046 7.07062 7.77676C6.74416 8.72802 6.54891 9.71934 6.49027 10.7234C6.4841 10.817 6.44255 10.9049 6.37405 10.9691C6.30555 11.0333 6.2152 11.0691 6.1213 11.0692H3.95234C3.89995 11.0692 3.84816 11.0581 3.80034 11.0367C3.75252 11.0153 3.70974 10.9841 3.67481 10.945C3.63988 10.906 3.61356 10.86 3.59759 10.8101C3.58161 10.7602 3.57633 10.7075 3.5821 10.6554C3.74807 9.23399 4.28488 7.88117 5.13867 6.73264C5.19411 6.65797 5.27553 6.60681 5.36685 6.58926C5.45817 6.57171 5.55275 6.58904 5.63191 6.63783Z" fill="black"/>
<path d="M11.3145 16.616C11.3353 16.6634 11.3461 16.7145 11.346 16.7663V18.688C11.3457 18.7565 11.3264 18.8237 11.2902 18.8819C11.2541 18.9402 11.2025 18.9873 11.1412 19.0181C11.08 19.0488 11.0114 19.0621 10.9431 19.0563C10.8747 19.0504 10.8094 19.0259 10.7542 18.9852C10.1054 18.5056 9.54674 17.9148 9.10407 17.2403C9.07192 17.1909 9.05193 17.1346 9.04574 17.076C9.03955 17.0174 9.04733 16.9582 9.06846 16.9032C9.08959 16.8482 9.12346 16.799 9.16728 16.7596C9.21111 16.7202 9.26364 16.6917 9.32058 16.6766C9.852 16.5399 10.3935 16.4461 10.9399 16.396C10.9914 16.3912 11.0434 16.3972 11.0924 16.4136C11.1415 16.43 11.1866 16.4565 11.2248 16.4914C11.2631 16.5262 11.2936 16.5687 11.3145 16.616Z" fill="black"/>
<path d="M15.0297 19.0057C14.7228 19.3222 14.3903 19.6127 14.0355 19.8743C14.0202 19.8856 14.0091 19.9018 14.0042 19.9202C13.9994 19.9387 14.001 19.9582 14.0088 19.9756C14.0165 19.993 14.0301 20.0072 14.0471 20.0158C14.0641 20.0244 14.0835 20.0269 14.1021 20.023C15.3523 19.7381 16.5179 19.1632 17.5048 18.3447C17.5513 18.3068 17.588 18.2583 17.6117 18.2032C17.6354 18.1481 17.6454 18.0881 17.6409 18.0283C17.6364 17.9685 17.6174 17.9107 17.5857 17.8599C17.554 17.809 17.5104 17.7665 17.4587 17.7361C17.2025 17.5888 16.9463 17.4504 16.6721 17.3249C16.5877 17.2852 16.4916 17.2784 16.4024 17.3059C16.3133 17.3334 16.2377 17.3931 16.1904 17.4735C15.8654 18.0284 15.4758 18.5427 15.0297 19.0057Z" fill="black"/>
<path d="M18.3689 16.879C17.9662 16.6273 17.5486 16.4001 17.1185 16.1987C17.0354 16.16 16.9699 16.0916 16.9348 16.0069C16.8997 15.9222 16.8976 15.8275 16.9289 15.7414C17.2554 14.7901 17.4506 13.7988 17.5093 12.7948C17.5155 12.7011 17.557 12.6132 17.6255 12.549C17.694 12.4848 17.7844 12.449 17.8783 12.4489H20.0485C20.1007 12.4489 20.1523 12.4599 20.2 12.4813C20.2477 12.5026 20.2903 12.5338 20.3251 12.5727C20.3599 12.6116 20.3861 12.6575 20.4021 12.7072C20.418 12.7569 20.4232 12.8095 20.4174 12.8614C20.2523 14.283 19.7154 15.6361 18.8609 16.7842C18.8059 16.859 18.7246 16.9103 18.6335 16.9279C18.5423 16.9455 18.4478 16.928 18.3689 16.879Z" fill="black"/>
<path d="M3.80043 12.4804C3.84825 12.4591 3.90002 12.4482 3.95235 12.4484H6.12131C6.21551 12.4482 6.3062 12.4841 6.3748 12.5486C6.4434 12.6132 6.48472 12.7015 6.49028 12.7956C6.54892 13.7996 6.74416 14.7909 7.07063 15.7422C7.10159 15.8281 7.0993 15.9226 7.06422 16.007C7.02914 16.0913 6.96381 16.1596 6.88102 16.1982C6.45095 16.3989 6.03377 16.6261 5.63192 16.8785C5.55275 16.9273 5.45817 16.9446 5.36685 16.9271C5.27553 16.9095 5.19412 16.8584 5.13868 16.7837C4.28436 15.6355 3.74749 14.2825 3.5821 12.8609C3.57633 12.8089 3.58161 12.7562 3.59759 12.7064C3.61358 12.6566 3.63991 12.6107 3.67486 12.5717C3.70982 12.5328 3.75261 12.5017 3.80043 12.4804Z" fill="black"/>
<path d="M8.70448 15.5787C9.45666 15.3597 10.2294 15.2188 11.0105 15.1585C11.1028 15.1504 11.1888 15.1081 11.2514 15.0398C11.314 14.9715 11.3488 14.8822 11.3487 14.7895V12.8191C11.3487 12.7704 11.3391 12.7221 11.3204 12.6771C11.3017 12.6321 11.2744 12.5912 11.2398 12.5568C11.2053 12.5225 11.1644 12.4952 11.1193 12.4767C11.0742 12.4581 11.0259 12.4487 10.9772 12.4489H8.12926C8.07829 12.4487 8.02783 12.4591 7.98106 12.4794C7.93429 12.4996 7.89222 12.5293 7.85746 12.5666C7.8227 12.6039 7.79602 12.648 7.77908 12.696C7.76214 12.7441 7.7553 12.7952 7.75901 12.846C7.81562 13.6965 7.98139 14.5361 8.25224 15.3442C8.28249 15.4343 8.34658 15.5091 8.43096 15.5529C8.51534 15.5966 8.61341 15.6059 8.70448 15.5787Z" fill="black"/>
<path d="M7.80899 17.4678C8.13401 18.0242 8.52361 18.5402 8.96969 19.0051C9.27692 19.3221 9.60987 19.613 9.96513 19.875C9.98078 19.8863 9.99204 19.9026 9.99698 19.9213C10.0019 19.9399 10.0002 19.9597 9.99224 19.9772C9.98422 19.9948 9.97036 20.009 9.95304 20.0175C9.93571 20.0259 9.91598 20.0281 9.89722 20.0236C8.6465 19.7369 7.48084 19.1598 6.49455 18.339C6.44803 18.3011 6.41135 18.2526 6.38766 18.1975C6.36396 18.1424 6.35395 18.0824 6.35848 18.0226C6.36302 17.9628 6.38196 17.905 6.41368 17.8541C6.44541 17.8033 6.48897 17.7608 6.54067 17.7304C6.79775 17.5818 7.06038 17.4447 7.32856 17.3192C7.41274 17.2795 7.50871 17.2728 7.59761 17.3003C7.6865 17.3278 7.7619 17.3875 7.80899 17.4678Z" fill="black"/>
<path d="M15.0301 4.51369C15.4766 4.97824 15.8663 5.49433 16.1908 6.05104C16.2381 6.1314 16.3137 6.19118 16.4028 6.21867C16.492 6.24616 16.5881 6.23938 16.6725 6.19965C16.9407 6.0741 17.2029 5.93702 17.4591 5.78841C17.5108 5.75802 17.5544 5.71557 17.5861 5.66469C17.6178 5.6138 17.6368 5.55599 17.6413 5.4962C17.6458 5.43641 17.6358 5.37641 17.6121 5.32132C17.5884 5.26624 17.5517 5.2177 17.5052 5.17987C16.5185 4.36123 15.3528 3.7867 14.1025 3.50287C14.0838 3.49841 14.0641 3.50059 14.0467 3.50906C14.0294 3.51752 14.0155 3.53174 14.0075 3.54928C13.9995 3.56682 13.9978 3.5866 14.0028 3.60524C14.0077 3.62387 14.019 3.64022 14.0346 3.65148C14.3905 3.90993 14.7235 4.19839 15.0301 4.51369Z" fill="black"/>
<path d="M11.2371 10.9607C11.1674 11.0303 11.0729 11.0695 10.9744 11.0695H8.12899C8.07852 11.0691 8.02867 11.0584 7.98247 11.038C7.93628 11.0177 7.89471 10.9882 7.8603 10.9513C7.8259 10.9143 7.79938 10.8708 7.78236 10.8233C7.76534 10.7758 7.75817 10.7253 7.76131 10.6749C7.81792 9.82447 7.98369 8.98485 8.25454 8.17671C8.28479 8.08718 8.34847 8.01281 8.43226 7.96912C8.51606 7.92543 8.61349 7.91581 8.70421 7.94226C9.4557 8.15979 10.2276 8.29932 11.0077 8.35862C11.1 8.36664 11.186 8.40899 11.2486 8.4773C11.3112 8.54561 11.3459 8.63492 11.3459 8.72759V10.698C11.3459 10.7965 11.3067 10.891 11.2371 10.9607Z" fill="black"/>
<path d="M17.6243 10.9686C17.6928 11.0333 17.7835 11.0695 17.8778 11.0696H20.0481C20.1004 11.0696 20.1522 11.0585 20.1999 11.0371C20.2477 11.0157 20.2904 10.9844 20.3252 10.9454C20.3601 10.9063 20.3863 10.8603 20.4021 10.8104C20.4179 10.7605 20.423 10.7078 20.417 10.6558C20.2516 9.23422 19.7148 7.88124 18.8605 6.73301C18.8053 6.65844 18.7241 6.60731 18.633 6.58976C18.5419 6.5722 18.4475 6.58949 18.3685 6.63821C17.9665 6.89114 17.5489 7.11836 17.1181 7.31848C17.0353 7.35717 16.97 7.42539 16.9349 7.50977C16.8999 7.59415 16.8976 7.68859 16.9285 7.77457C17.255 8.72582 17.4502 9.71715 17.5089 10.7212C17.5144 10.8153 17.5557 10.9038 17.6243 10.9686Z" fill="black"/>
<path d="M15.2987 15.5787C14.5464 15.3602 13.7737 15.2194 12.9926 15.1584C12.9 15.151 12.8135 15.1089 12.7506 15.0405C12.6877 14.9721 12.6528 14.8824 12.6531 14.7895V12.8191C12.6531 12.7209 12.6922 12.6267 12.7616 12.5573C12.831 12.4879 12.9252 12.4489 13.0234 12.4489H15.8713C15.9223 12.4487 15.9728 12.4591 16.0195 12.4794C16.0663 12.4996 16.1084 12.5293 16.1431 12.5666C16.1779 12.6039 16.2046 12.648 16.2215 12.696C16.2385 12.7441 16.2453 12.7952 16.2416 12.846C16.1855 13.6964 16.0202 14.536 15.7496 15.3442C15.7189 15.4336 15.6549 15.5078 15.571 15.5515C15.487 15.5951 15.3896 15.6048 15.2987 15.5787Z" fill="black"/>
<path d="M12.7521 8.4774C12.6897 8.54574 12.6552 8.63504 12.6556 8.7276V10.698C12.6554 10.7467 12.6649 10.795 12.6834 10.84C12.7019 10.8851 12.7292 10.9261 12.7636 10.9606C12.798 10.9951 12.8388 11.0225 12.8839 11.0412C12.9289 11.0599 12.9771 11.0695 13.0258 11.0695H15.8712C15.9222 11.0695 15.9727 11.0589 16.0195 11.0385C16.0663 11.0181 16.1083 10.9883 16.1431 10.9509C16.1778 10.9135 16.2045 10.8694 16.2214 10.8212C16.2383 10.7731 16.2452 10.722 16.2415 10.6711C16.1852 9.82069 16.0199 8.98107 15.7495 8.17286C15.7187 8.08343 15.6548 8.00924 15.5708 7.96561C15.4869 7.92198 15.3894 7.91224 15.2986 7.93842C14.5464 8.1575 13.7736 8.29832 12.9925 8.35863C12.9003 8.36666 12.8145 8.40906 12.7521 8.4774Z" fill="black"/>
<path d="M10.9396 7.12705C10.3932 7.07696 9.85163 6.98314 9.32022 6.84649C9.2639 6.8313 9.21194 6.80308 9.16855 6.76408C9.12517 6.72509 9.09157 6.67643 9.07049 6.62204C9.04941 6.56765 9.04143 6.50906 9.0472 6.45101C9.05298 6.39296 9.07233 6.33709 9.10371 6.28791C9.54552 5.61167 10.1038 5.01916 10.7525 4.53789C10.8077 4.49686 10.8732 4.47195 10.9417 4.46595C11.0103 4.45995 11.0791 4.4731 11.1406 4.50391C11.2021 4.53472 11.2538 4.582 11.29 4.64048C11.3262 4.69895 11.3455 4.76634 11.3457 4.83512V6.75681C11.3457 6.80855 11.335 6.85972 11.3141 6.90705C11.2932 6.95439 11.2627 6.99684 11.2245 7.0317C11.1862 7.06655 11.1411 7.09304 11.0921 7.10946C11.043 7.12588 10.9911 7.13187 10.9396 7.12705Z" fill="black"/>
<path d="M12.7092 4.63491C12.6734 4.69414 12.6548 4.76219 12.6556 4.83141V6.75311C12.6556 6.80484 12.6663 6.85601 12.6872 6.90335C12.7081 6.95068 12.7386 6.99314 12.7768 7.028C12.8151 7.06285 12.8602 7.08933 12.9092 7.10575C12.9583 7.12217 13.0102 7.12817 13.0617 7.12335C13.6081 7.07305 14.1496 6.97923 14.6811 6.84279C14.7379 6.82765 14.7903 6.79925 14.834 6.75992C14.8777 6.7206 14.9114 6.67147 14.9324 6.61657C14.9534 6.56167 14.9611 6.50257 14.9548 6.44413C14.9485 6.38568 14.9285 6.32956 14.8963 6.28037C14.4549 5.60386 13.8971 5.01093 13.2488 4.52906C13.1932 4.48776 13.1272 4.4628 13.0583 4.457C12.9893 4.45119 12.9201 4.46478 12.8584 4.49621C12.7967 4.52765 12.7451 4.57569 12.7092 4.63491Z" fill="black"/>
<path d="M14.8963 17.2353C14.4546 17.9112 13.8968 18.5037 13.2488 18.9854C13.1932 19.0267 13.1272 19.0516 13.0583 19.0574C12.9893 19.0632 12.9201 19.0496 12.8584 19.0182C12.7967 18.9868 12.7451 18.9387 12.7092 18.8795C12.6734 18.8203 12.6548 18.7522 12.6556 18.683V16.7613C12.6556 16.7096 12.6663 16.6584 12.6872 16.6111C12.7081 16.5637 12.7386 16.5213 12.7768 16.4864C12.8151 16.4516 12.8602 16.4251 12.9092 16.4087C12.9583 16.3923 13.0102 16.3863 13.0617 16.3911C13.6081 16.4414 14.1496 16.5352 14.6811 16.6716C14.7379 16.687 14.7903 16.7155 14.834 16.755C14.8777 16.7944 14.9114 16.8437 14.9324 16.8986C14.9534 16.9536 14.961 17.0128 14.9548 17.0713C14.9485 17.1298 14.9285 17.186 14.8963 17.2353Z" fill="black"/>
</svg>
