<svg width="24" height="24" viewBox="0 0 24 24" fill="none" xmlns="http://www.w3.org/2000/svg">
<path d="M14.5844 8.25057C14.7436 8.25057 14.8623 8.10375 14.8257 7.94887C14.648 7.19687 14.4234 6.51764 14.1632 5.93226C13.826 5.17352 13.4433 4.60457 13.0551 4.23516C12.6707 3.86932 12.3154 3.72852 12 3.72852C11.6846 3.72852 11.3293 3.86932 10.9449 4.23516C10.5567 4.60457 10.174 5.17352 9.83677 5.93226C9.57661 6.51764 9.352 7.19687 9.1743 7.94887C9.1377 8.10375 9.25644 8.25057 9.41559 8.25057H14.5844Z" fill="black"/>
<path d="M19.4445 7.89497C19.5336 8.05694 19.4134 8.25057 19.2284 8.25057H16.5856C16.4659 8.25057 16.3633 8.16577 16.3389 8.04864C16.1307 7.04531 15.8444 6.13017 15.4936 5.34097C15.3776 5.07987 15.2532 4.82966 15.1206 4.59269C15.0023 4.38138 15.2064 4.12236 15.4279 4.22011C17.1348 4.97324 18.5472 6.27158 19.4442 7.89446L19.4436 7.89412L19.4445 7.89497Z" fill="black"/>
<path d="M4.55562 7.89474C4.46633 8.05675 4.5865 8.25057 4.77157 8.25057H7.41444C7.53408 8.25057 7.63674 8.16577 7.66105 8.04864C7.86931 7.0453 8.15562 6.13017 8.50637 5.34097C8.62241 5.07987 8.7468 4.82967 8.87944 4.59269C8.99773 4.38138 8.79362 4.12236 8.57206 4.22012C6.86516 4.97324 5.45268 6.27187 4.55562 7.89474Z" fill="black"/>
<path d="M3.99174 14.2506C3.87909 14.2506 3.77998 14.1753 3.7527 14.066C3.58763 13.4048 3.5 12.7129 3.5 12.0006C3.5 11.2882 3.58763 10.5963 3.7527 9.9351C3.77998 9.82581 3.87909 9.75057 3.99174 9.75057H7.1145C7.2634 9.75057 7.37916 9.8799 7.36498 10.0281C7.30392 10.6663 7.27206 11.3263 7.27206 12.0006C7.27206 12.6749 7.30392 13.3348 7.36498 13.973C7.37916 14.1212 7.2634 14.2506 7.1145 14.2506H3.99174Z" fill="black"/>
<path d="M8.57207 19.781C8.79362 19.8788 8.99773 19.6198 8.87945 19.4085C8.7468 19.1715 8.62241 18.9213 8.50637 18.6602C8.15562 17.871 7.86931 16.9558 7.66105 15.9525C7.63674 15.8354 7.53408 15.7506 7.41444 15.7506H4.77157C4.58639 15.7506 4.46619 15.9446 4.55578 16.1067C5.45284 17.7296 6.86516 19.0279 8.57207 19.781Z" fill="black"/>
<path d="M15.4279 19.781C17.1348 19.0279 18.5472 17.7296 19.4442 16.1067C19.5338 15.9446 19.4136 15.7506 19.2284 15.7506H16.5856C16.4659 15.7506 16.3633 15.8354 16.3389 15.9525C16.1307 16.9558 15.8444 17.871 15.4936 18.6602C15.3776 18.9213 15.2532 19.1715 15.1206 19.4085C15.0023 19.6198 15.2064 19.8788 15.4279 19.781Z" fill="black"/>
<path d="M20.5 12.0006C20.5 12.7129 20.4124 13.4048 20.2473 14.066C20.22 14.1753 20.1209 14.2506 20.0083 14.2506H16.8855C16.7366 14.2506 16.6208 14.1212 16.635 13.973C16.6961 13.3348 16.7279 12.6749 16.7279 12.0006C16.7279 11.3263 16.6961 10.6663 16.635 10.0281C16.6208 9.8799 16.7366 9.75057 16.8855 9.75057H20.0083C20.1209 9.75057 20.22 9.82581 20.2473 9.9351C20.4124 10.5963 20.5 11.2882 20.5 12.0006Z" fill="black"/>
<path d="M8.72794 12.0006C8.72794 11.2987 8.76492 10.6192 8.834 9.97114C8.84742 9.84522 8.95424 9.75057 9.08087 9.75057H14.9191C15.0458 9.75057 15.1526 9.84522 15.166 9.97114C15.2351 10.6192 15.2721 11.2987 15.2721 12.0006C15.2721 12.7024 15.2351 13.3819 15.166 14.03C15.1526 14.1559 15.0458 14.2506 14.9191 14.2506H9.08087C8.95424 14.2506 8.84742 14.1559 8.834 14.03C8.76492 13.3819 8.72794 12.7024 8.72794 12.0006Z" fill="black"/>
<path d="M14.5844 15.7506C14.7436 15.7506 14.8623 15.8974 14.8257 16.0523C14.648 16.8043 14.4234 17.4835 14.1632 18.0689C13.826 18.8276 13.4433 19.3966 13.0551 19.766C12.6707 20.1318 12.3154 20.2726 12 20.2726C11.6846 20.2726 11.3293 20.1318 10.9449 19.766C10.5567 19.3966 10.174 18.8276 9.83677 18.0689C9.57661 17.4835 9.352 16.8043 9.1743 16.0523C9.1377 15.8974 9.25644 15.7506 9.41559 15.7506H14.5844Z" fill="black"/>
</svg>
