<svg width="24" height="24" viewBox="0 0 24 24" fill="none" xmlns="http://www.w3.org/2000/svg">
<path d="M5.80313 9.79297L6.09687 10.3055C6.35625 10.7586 6.78125 11.093 7.28437 11.2367L9.09375 11.7523C9.63125 11.9055 10 12.3961 10 12.9555V14.2023C10 14.5461 10.1937 14.8586 10.5 15.0117C10.8063 15.1648 11 15.4773 11 15.8211V17.0398C11 17.5273 11.4656 17.8805 11.9344 17.7461C12.4375 17.6023 12.8281 17.1992 12.9563 16.6898L13.0437 16.3398C13.175 15.8117 13.5188 15.3586 13.9906 15.0898L14.2437 14.9461C14.7125 14.6805 15 14.1805 15 13.643V13.3836C15 12.9867 14.8406 12.6055 14.5594 12.3242L14.4375 12.2023C14.1562 11.9211 13.775 11.7617 13.3781 11.7617H12.0312C11.6844 11.7617 11.3406 11.6711 11.0375 11.4992L9.95937 10.8836C9.825 10.8055 9.72188 10.6805 9.67188 10.5336C9.57188 10.2336 9.70625 9.90859 9.99062 9.76797L10.175 9.67422C10.3813 9.57109 10.6219 9.55234 10.8406 9.62734L11.5656 9.86797C11.8219 9.95234 12.1031 9.85547 12.25 9.63359C12.3969 9.41484 12.3812 9.12422 12.2125 8.92109L11.7875 8.41172C11.475 8.03672 11.4781 7.48984 11.7969 7.12109L12.2875 6.54922C12.5625 6.22734 12.6063 5.76797 12.3969 5.40234L12.3219 5.27109C12.2125 5.26484 12.1062 5.26172 11.9969 5.26172C9.09687 5.26172 6.6375 7.16484 5.80313 9.79297ZM18.5 11.7617C18.5 10.6117 18.2 9.53047 17.675 8.58984L16.875 8.91172C16.3844 9.10859 16.1313 9.65547 16.2969 10.1555L16.825 11.7398C16.9344 12.0648 17.2 12.3117 17.5312 12.393L18.4406 12.6211C18.4781 12.3398 18.4969 12.0523 18.4969 11.7617H18.5ZM20 11.7617C20 16.1805 16.4187 19.7617 12 19.7617C7.58125 19.7617 4 16.1805 4 11.7617C4 7.34297 7.58125 3.76172 12 3.76172C16.4187 3.76172 20 7.34297 20 11.7617Z" fill="black"/>
</svg>
