<svg width="24" height="24" viewBox="0 0 24 24" fill="none" xmlns="http://www.w3.org/2000/svg">
<path d="M11.5907 6.24291H5C3.94913 6.24291 3.08755 7.0534 3.00627 8.08338C3.05034 8.52206 3.3237 8.90909 3.7303 9.09496L10.4803 12.1807C10.8103 12.3316 11.1897 12.3316 11.5197 12.1807L15.2712 10.4657C13.388 9.84267 11.9556 8.22953 11.5907 6.24291Z" fill="black"/>
<path d="M3 16.2429V10.4076C3.03507 10.4255 3.07063 10.4427 3.10666 10.4592L9.85666 13.5449C10.5828 13.8768 11.4172 13.8768 12.1433 13.5449L18.8933 10.4592C18.9294 10.4427 18.9649 10.4255 19 10.4076V16.2429C19 17.3475 18.1046 18.2429 17 18.2429H5C3.89543 18.2429 3 17.3475 3 16.2429Z" fill="black"/>
<path fill-rule="evenodd" clip-rule="evenodd" d="M17 9.24291C19.2091 9.24291 21 7.45205 21 5.24291C21 3.03377 19.2091 1.24291 17 1.24291C14.7909 1.24291 13 3.03377 13 5.24291C13 7.45205 14.7909 9.24291 17 9.24291ZM17.625 3.24291C17.625 2.89773 17.3452 2.61791 17 2.61791C16.6548 2.61791 16.375 2.89773 16.375 3.24291V5.24291C16.375 5.40867 16.4408 5.56764 16.5581 5.68485L17.5581 6.68485C17.8021 6.92893 18.1979 6.92893 18.4419 6.68485C18.686 6.44077 18.686 6.04504 18.4419 5.80096L17.625 4.98402V3.24291Z" fill="black"/>
</svg>
