<svg width="24" height="24" viewBox="0 0 24 24" fill="none" xmlns="http://www.w3.org/2000/svg">
<path d="M4.06177 7.64083C4.06177 6.86494 4.69075 6.23596 5.46664 6.23596H18.4628C19.2387 6.23596 19.8676 6.86494 19.8676 7.64083V7.96708C19.8417 8.05122 19.8068 8.12867 19.7602 8.20502C19.611 8.44977 19.2822 8.7754 18.4803 9.17455L12.3919 11.8706C12.0065 12.0413 11.567 12.0419 11.181 11.8723L5.03303 9.17019C4.45254 8.90152 4.22107 8.58895 4.10947 8.32026C4.09124 8.27635 4.07544 8.23197 4.06177 8.187V7.64083Z" fill="black"/>
<path d="M19.078 10.7011C19.3742 10.5543 19.6366 10.4056 19.8676 10.2527V16.3591C19.8676 17.135 19.2387 17.764 18.4628 17.764H5.46664C4.69075 17.764 4.06177 17.135 4.06177 16.3591V10.4987C4.18574 10.573 4.31922 10.6434 4.46276 10.7095L4.46827 10.712L11.1831 13.6633C11.5691 13.8329 12.0086 13.8323 12.394 13.6616L19.0647 10.7077L19.078 10.7011Z" fill="black"/>
</svg>
