<svg width="24" height="24" viewBox="0 0 24 24" fill="none" xmlns="http://www.w3.org/2000/svg">
<path d="M11.5907 6.24292H5C3.94913 6.24292 3.08755 7.05341 3.00627 8.0834C3.05034 8.52207 3.3237 8.9091 3.7303 9.09498L10.4803 12.1807C10.8103 12.3316 11.1897 12.3316 11.5197 12.1807L15.2712 10.4657C13.388 9.84269 11.9556 8.22954 11.5907 6.24292Z" fill="black"/>
<path d="M3 16.2429V10.4076C3.03507 10.4255 3.07063 10.4427 3.10666 10.4592L9.85666 13.5449C10.5828 13.8768 11.4172 13.8768 12.1433 13.5449L18.8933 10.4592C18.9294 10.4427 18.9649 10.4255 19 10.4076V16.2429C19 17.3475 18.1046 18.2429 17 18.2429H5C3.89543 18.2429 3 17.3475 3 16.2429Z" fill="black"/>
<path fill-rule="evenodd" clip-rule="evenodd" d="M17 9.24292C19.2091 9.24292 21 7.45206 21 5.24292C21 3.03378 19.2091 1.24292 17 1.24292C14.7909 1.24292 13 3.03378 13 5.24292C13 7.45206 14.7909 9.24292 17 9.24292ZM17.625 3.24292C17.625 2.89774 17.3452 2.61792 17 2.61792C16.6548 2.61792 16.375 2.89774 16.375 3.24292V5.24292C16.375 5.40868 16.4408 5.56765 16.5581 5.68486L17.5581 6.68486C17.8021 6.92894 18.1979 6.92894 18.4419 6.68486C18.686 6.44078 18.686 6.04506 18.4419 5.80098L17.625 4.98404V3.24292Z" fill="black"/>
</svg>
