<svg width="24" height="24" viewBox="0 0 24 24" fill="none" xmlns="http://www.w3.org/2000/svg">
<path d="M11.5907 6.24219H5C3.94913 6.24219 3.08755 7.05268 3.00627 8.08266C3.05034 8.52134 3.3237 8.90837 3.7303 9.09424L10.4803 12.18C10.8103 12.3308 11.1897 12.3308 11.5197 12.18L15.2712 10.465C13.388 9.84196 11.9556 8.22881 11.5907 6.24219Z" fill="black"/>
<path d="M3 16.2422V10.4069C3.03507 10.4248 3.07063 10.442 3.10666 10.4585L9.85666 13.5442C10.5828 13.8761 11.4172 13.8761 12.1433 13.5442L18.8933 10.4585C18.9294 10.442 18.9649 10.4248 19 10.4069V16.2422C19 17.3468 18.1046 18.2422 17 18.2422H5C3.89543 18.2422 3 17.3468 3 16.2422Z" fill="black"/>
<path fill-rule="evenodd" clip-rule="evenodd" d="M17 9.24219C19.2091 9.24219 21 7.45133 21 5.24219C21 3.03305 19.2091 1.24219 17 1.24219C14.7909 1.24219 13 3.03305 13 5.24219C13 7.45133 14.7909 9.24219 17 9.24219ZM17.625 3.24219C17.625 2.89701 17.3452 2.61719 17 2.61719C16.6548 2.61719 16.375 2.89701 16.375 3.24219V5.24219C16.375 5.40795 16.4408 5.56692 16.5581 5.68413L17.5581 6.68413C17.8021 6.92821 18.1979 6.92821 18.4419 6.68413C18.686 6.44005 18.686 6.04432 18.4419 5.80025L17.625 4.9833V3.24219Z" fill="black"/>
</svg>
