<svg width="24" height="24" viewBox="0 0 24 24" fill="none" xmlns="http://www.w3.org/2000/svg">
<path d="M4.06152 7.64083C4.06152 6.86494 4.69051 6.23596 5.4664 6.23596H18.4625C19.2384 6.23596 19.8674 6.86494 19.8674 7.64083V7.96708C19.8414 8.05122 19.8065 8.12867 19.76 8.20502C19.6107 8.44977 19.282 8.7754 18.4801 9.17455L12.3917 11.8706C12.0062 12.0413 11.5667 12.0419 11.1808 11.8723L5.03279 9.17019C4.4523 8.90152 4.22082 8.58895 4.10923 8.32026C4.09099 8.27635 4.0752 8.23197 4.06152 8.187V7.64083Z" fill="black"/>
<path d="M19.0778 10.7011C19.374 10.5543 19.6363 10.4056 19.8674 10.2527V16.3591C19.8674 17.135 19.2384 17.764 18.4625 17.764H5.4664C4.69051 17.764 4.06152 17.135 4.06152 16.3591V10.4987C4.1855 10.573 4.31897 10.6434 4.46252 10.7095L4.46802 10.712L11.1829 13.6633C11.5688 13.8329 12.0083 13.8323 12.3938 13.6616L19.0645 10.7077L19.0778 10.7011Z" fill="black"/>
</svg>
