<svg width="24" height="24" viewBox="0 0 24 24" fill="none" xmlns="http://www.w3.org/2000/svg">
<path fill-rule="evenodd" clip-rule="evenodd" d="M8.20214 6.99083L6.02937 4.81828C5.63885 4.42776 5.00568 4.42776 4.61516 4.81828C4.22463 5.20881 4.22463 5.84197 4.61516 6.2325L6.57256 8.1899C5.39738 9.27096 4.61246 10.5093 4.19175 11.2795C3.93608 11.7476 3.93608 12.3032 4.19175 12.7713C5.0698 14.3787 7.53427 18.0254 11.8221 18.0254C13.2199 18.0254 14.4239 17.6378 15.4424 17.0597L17.6152 19.2325C18.0057 19.623 18.6388 19.623 19.0294 19.2325C19.4199 18.842 19.4199 18.2088 19.0294 17.8183L17.0718 15.8607L15.2684 14.0571L13.32 12.1089L11.739 10.5277L9.79023 8.57914L8.20214 6.99083ZM7.82209 12.0254C7.82209 11.2835 8.02404 10.5888 8.37597 9.99331L10.3246 11.9419C10.323 11.9695 10.3223 11.9974 10.3223 12.0254C10.3223 12.8538 10.9938 13.5254 11.8223 13.5254C11.8503 13.5254 11.8781 13.5246 11.9058 13.5231L13.8542 15.4715C13.2586 15.8234 12.5639 16.0254 11.8221 16.0254C9.61295 16.0254 7.82209 14.2345 7.82209 12.0254Z" fill="black"/>
<path d="M15.7982 12.4401C15.814 12.2956 15.8221 12.1487 15.8221 12C15.8221 9.79086 14.0312 8 11.8221 8C11.6733 8 11.5265 8.00812 11.382 8.02394L9.68008 6.32205C10.3358 6.11845 11.0493 6 11.8221 6C16.1099 6 18.5744 9.64668 19.4524 11.2541C19.7081 11.7222 19.7081 12.2778 19.4524 12.7459C19.1696 13.2637 18.7221 13.9931 18.1021 14.7441L15.7982 12.4401Z" fill="black"/>
</svg>
