<svg width="24" height="24" viewBox="0 0 24 24" fill="none" xmlns="http://www.w3.org/2000/svg">
<path fill-rule="evenodd" clip-rule="evenodd" d="M12.0001 18C16.2879 18 18.7524 14.3533 19.6304 12.7459C19.8861 12.2778 19.8861 11.7222 19.6304 11.2541C18.7524 9.64668 16.2879 6 12.0001 6C7.71225 6 5.24778 9.64668 4.36973 11.2541C4.11406 11.7222 4.11406 12.2778 4.36973 12.7459C5.24778 14.3533 7.71225 18 12.0001 18ZM12.0001 16C14.2092 16 16.0001 14.2091 16.0001 12C16.0001 9.79086 14.2092 8 12.0001 8C9.79093 8 8.00007 9.79086 8.00007 12C8.00007 14.2091 9.79093 16 12.0001 16Z" fill="black"/>
<path d="M13.5001 12C13.5001 12.8284 12.8285 13.5 12.0001 13.5C11.1716 13.5 10.5001 12.8284 10.5001 12C10.5001 11.1716 11.1716 10.5 12.0001 10.5C12.8285 10.5 13.5001 11.1716 13.5001 12Z" fill="black"/>
</svg>
