<svg width="24" height="24" viewBox="0 0 24 24" fill="none" xmlns="http://www.w3.org/2000/svg">
<path d="M6.5 5C4.01562 5 2 7.01562 2 9.5V14.5C2 16.9844 4.01562 19 6.5 19C8.98438 19 11 16.9844 11 14.5V9.5C11 7.01562 8.98438 5 6.5 5ZM4 9.5C4 8.11875 5.11875 7 6.5 7C7.88125 7 9 8.11875 9 9.5V14.5C9 15.8813 7.88125 17 6.5 17C5.11875 17 4 15.8813 4 14.5V9.5ZM17.5 5C15.0156 5 13 7.01562 13 9.5V14.5C13 16.9844 15.0156 19 17.5 19C19.9844 19 22 16.9844 22 14.5V9.5C22 7.01562 19.9844 5 17.5 5ZM15 9.5C15 8.11875 16.1187 7 17.5 7C18.8813 7 20 8.11875 20 9.5V14.5C20 15.8813 18.8813 17 17.5 17C16.1187 17 15 15.8813 15 14.5V9.5Z" fill="black"/>
</svg>
