<svg width="24" height="24" viewBox="0 0 24 24" fill="none" xmlns="http://www.w3.org/2000/svg">
<path d="M11.4655 7C10.7937 7 10.1468 7.26562 9.67178 7.74375L8.70615 8.70625C8.31553 9.09688 7.68115 9.09688 7.29053 8.70625C6.8999 8.31563 6.8999 7.68125 7.29053 7.29063L8.25615 6.32812C9.10928 5.47812 10.2624 5 11.4655 5C13.9687 5 15.9999 7.03125 15.9999 9.53438C15.9999 10.7375 15.5218 11.8906 14.6718 12.7406L10.4155 17H15.9999C16.553 17 16.9999 17.4469 16.9999 18C16.9999 18.5531 16.553 19 15.9999 19H7.9999C7.59678 19 7.23115 18.7563 7.0749 18.3813C6.91865 18.0063 7.00615 17.5781 7.29053 17.2906L13.2562 11.3281C13.7312 10.8531 13.9999 10.2063 13.9999 9.53438C13.9999 8.13438 12.8655 7 11.4655 7Z" fill="black"/>
</svg>
