<svg width="24" height="24" viewBox="0 0 24 24" fill="none" xmlns="http://www.w3.org/2000/svg">
<path d="M11.4656 7C10.7938 7 10.1469 7.26563 9.6719 7.74375L8.70627 8.70625C8.31565 9.09688 7.68127 9.09688 7.29065 8.70625C6.90002 8.31563 6.90002 7.68125 7.29065 7.29063L8.25627 6.32812C9.1094 5.47812 10.2625 5 11.4656 5C13.9688 5 16 7.03125 16 9.53438C16 10.7375 15.5219 11.8906 14.6719 12.7406L10.4156 17H16C16.5531 17 17 17.4469 17 18C17 18.5531 16.5531 19 16 19H8.00002C7.5969 19 7.23127 18.7563 7.07502 18.3813C6.91877 18.0063 7.00627 17.5781 7.29065 17.2906L13.2563 11.3281C13.7313 10.8531 14 10.2063 14 9.53438C14 8.13438 12.8656 7 11.4656 7Z" fill="black"/>
</svg>
