<svg width="24" height="24" viewBox="0 0 24 24" fill="none" xmlns="http://www.w3.org/2000/svg">
<path d="M22 5C22 4.73478 21.8946 4.48043 21.7071 4.29289C21.5196 4.10536 21.2652 4 21 4C20.7348 4 20.4804 4.10536 20.2929 4.29289C20.1054 4.48043 20 4.73478 20 5C20 5.26522 20.1054 5.51957 20.2929 5.70711C20.4804 5.89464 20.7348 6 21 6C21.2652 6 21.5196 5.89464 21.7071 5.70711C21.8946 5.51957 22 5.26522 22 5ZM3 6C2.44688 6 2 6.44688 2 7C2 7.55312 2.44688 8 3 8H5L3.2 10.4C2.97188 10.7031 2.9375 11.1094 3.10625 11.4469C3.275 11.7844 3.62188 12 4 12H4.5C5.32813 12 6 12.6719 6 13.5V15C6 15.5531 5.55313 16 5 16H4.82813C4.5625 16 4.30938 15.8938 4.12188 15.7063L3.70625 15.2937C3.31563 14.9031 2.68125 14.9031 2.29063 15.2937C1.9 15.6844 1.9 16.3188 2.29063 16.7094L2.70625 17.125C3.26875 17.6875 4.03125 18.0031 4.82813 18.0031H5C6.65625 18.0031 8 16.6594 8 15.0031V13.5C8 12.0312 7.09375 10.7719 5.80938 10.2531L7.8 7.6C8.02813 7.29688 8.0625 6.89062 7.89375 6.55312C7.725 6.21562 7.37813 6 7 6H3ZM17 8.5C17 8.225 17.225 8 17.5 8C17.775 8 18 8.225 18 8.5V15.5C18 15.775 17.775 16 17.5 16C17.225 16 17 15.775 17 15.5V8.5ZM20 15.5V8.5C20 7.11875 18.8813 6 17.5 6C16.1188 6 15 7.11875 15 8.5V15.5C15 16.8813 16.1188 18 17.5 18C18.8813 18 20 16.8813 20 15.5ZM11 9C11 8.44688 11.4469 8 12 8C12.5531 8 13 7.55312 13 7C13 6.44688 12.5531 6 12 6C10.3438 6 9 7.34375 9 9V13C9 13.0031 9 13.0063 9 13.0063V15.5C9 16.8813 10.1188 18 11.5 18C12.8813 18 14 16.8813 14 15.5V12.5C14 11.1188 12.8813 10 11.5 10C11.3281 10 11.1625 10.0188 11 10.05V9ZM11 12.5C11 12.225 11.225 12 11.5 12C11.775 12 12 12.225 12 12.5V15.5C12 15.775 11.775 16 11.5 16C11.225 16 11 15.775 11 15.5V12.5Z" fill="black"/>
</svg>
