<svg width="24" height="24" viewBox="0 0 24 24" fill="none" xmlns="http://www.w3.org/2000/svg">
<path d="M11.9062 6.42495C12.1406 5.92495 11.9281 5.32808 11.4281 5.0937C10.9281 4.85933 10.3312 5.07183 10.0968 5.57183L6.09368 14.075C5.94681 14.3843 5.97181 14.7468 6.15306 15.0375C6.33431 15.3281 6.65618 15.5 6.99993 15.5H13.9999V18C13.9999 18.5531 14.4468 19 14.9999 19C15.5531 19 15.9999 18.5531 15.9999 18V15.5H16.9999C17.5531 15.5 17.9999 15.0531 17.9999 14.5C17.9999 13.9468 17.5531 13.5 16.9999 13.5H15.9999V8.99995C15.9999 8.44683 15.5531 7.99995 14.9999 7.99995C14.4468 7.99995 13.9999 8.44683 13.9999 8.99995V13.5H8.57493L11.9062 6.42495Z" fill="black"/>
</svg>
