<svg width="24" height="24" viewBox="0 0 24 24" fill="none" xmlns="http://www.w3.org/2000/svg">
<path d="M11.9062 6.42501C12.1406 5.92501 11.9281 5.32814 11.4281 5.09376C10.9281 4.85939 10.3312 5.07189 10.0968 5.57189L6.09368 14.075C5.94681 14.3844 5.97181 14.7469 6.15306 15.0375C6.33431 15.3281 6.65618 15.5 6.99993 15.5H13.9999V18C13.9999 18.5531 14.4468 19 14.9999 19C15.5531 19 15.9999 18.5531 15.9999 18V15.5H16.9999C17.5531 15.5 17.9999 15.0531 17.9999 14.5C17.9999 13.9469 17.5531 13.5 16.9999 13.5H15.9999V9.00001C15.9999 8.44689 15.5531 8.00001 14.9999 8.00001C14.4468 8.00001 13.9999 8.44689 13.9999 9.00001V13.5H8.57493L11.9062 6.42501Z" fill="black"/>
</svg>
