<svg width="24" height="24" viewBox="0 0 24 24" fill="none" xmlns="http://www.w3.org/2000/svg">
<path d="M8.01555 5.82187C8.10305 5.34687 8.51555 5 8.99993 5H14.9999C15.5531 5 15.9999 5.44687 15.9999 6C15.9999 6.55313 15.5531 7 14.9999 7H9.8343L9.1968 10.5H12.7499C15.0968 10.5 16.9999 12.4031 16.9999 14.75C16.9999 17.0969 15.0968 19 12.7499 19H10.1406C8.9093 19 7.7843 18.3031 7.2343 17.2031L7.10618 16.9469C6.8593 16.4531 7.0593 15.8531 7.55305 15.6062C8.0468 15.3594 8.6468 15.5594 8.89368 16.0531L9.0218 16.3094C9.2343 16.7344 9.66555 17 10.1406 17H12.7499C13.9937 17 14.9999 15.9937 14.9999 14.75C14.9999 13.5063 13.9937 12.5 12.7499 12.5H7.99993C7.70305 12.5 7.4218 12.3688 7.23118 12.1406C7.04055 11.9125 6.96243 11.6125 7.01555 11.3219L8.01555 5.82187Z" fill="black"/>
</svg>
