<svg width="24" height="24" viewBox="0 0 24 24" fill="none" xmlns="http://www.w3.org/2000/svg">
<path d="M14.2625 6.64681C14.6187 6.22494 14.5656 5.59369 14.1438 5.23744C13.7219 4.88119 13.0906 4.93431 12.7344 5.35619L8.20625 10.7093C7.45937 11.5906 7.03438 12.6999 7.00313 13.8499C7.00313 13.8937 7 13.9406 7 13.9843C7 13.9906 7 13.9937 7 13.9999C7 16.7624 9.2375 18.9999 12 18.9999C14.7625 18.9999 17 16.7624 17 13.9999C17 11.3281 14.9031 9.14369 12.2656 9.00619L14.2625 6.64369V6.64681ZM15 13.9999C15 14.7956 14.6839 15.5587 14.1213 16.1213C13.5587 16.6839 12.7956 16.9999 12 16.9999C11.2044 16.9999 10.4413 16.6839 9.87868 16.1213C9.31607 15.5587 9 14.7956 9 13.9999C9 13.2043 9.31607 12.4412 9.87868 11.8786C10.4413 11.316 11.2044 10.9999 12 10.9999C12.7956 10.9999 13.5587 11.316 14.1213 11.8786C14.6839 12.4412 15 13.2043 15 13.9999Z" fill="black"/>
</svg>
