<svg width="24" height="24" viewBox="0 0 24 24" fill="none" xmlns="http://www.w3.org/2000/svg">
<path d="M14.2625 6.64688C14.6187 6.225 14.5656 5.59375 14.1438 5.2375C13.7219 4.88125 13.0906 4.93438 12.7344 5.35625L8.20625 10.7094C7.45937 11.5906 7.03438 12.7 7.00313 13.85C7.00313 13.8938 7 13.9406 7 13.9844C7 13.9906 7 13.9937 7 14C7 16.7625 9.2375 19 12 19C14.7625 19 17 16.7625 17 14C17 11.3281 14.9031 9.14375 12.2656 9.00625L14.2625 6.64375V6.64688ZM15 14C15 14.7956 14.6839 15.5587 14.1213 16.1213C13.5587 16.6839 12.7956 17 12 17C11.2044 17 10.4413 16.6839 9.87868 16.1213C9.31607 15.5587 9 14.7956 9 14C9 13.2044 9.31607 12.4413 9.87868 11.8787C10.4413 11.3161 11.2044 11 12 11C12.7956 11 13.5587 11.3161 14.1213 11.8787C14.6839 12.4413 15 13.2044 15 14Z" fill="black"/>
</svg>
