<svg width="24" height="24" viewBox="0 0 24 24" fill="none" xmlns="http://www.w3.org/2000/svg">
<path d="M9 10C9 10.7956 9.31607 11.5587 9.87868 12.1213C10.4413 12.6839 11.2044 13 12 13C12.7956 13 13.5587 12.6839 14.1213 12.1213C14.6839 11.5587 15 10.7956 15 10C15 9.20435 14.6839 8.44129 14.1213 7.87868C13.5587 7.31607 12.7956 7 12 7C11.2044 7 10.4413 7.31607 9.87868 7.87868C9.31607 8.44129 9 9.20435 9 10ZM11.7344 14.9937C9.09687 14.8562 7 12.6719 7 10C7 7.2375 9.2375 5 12 5C14.7625 5 17 7.2375 17 10C17 10.0812 16.9969 10.1656 16.9937 10.2469C16.9406 11.3625 16.5187 12.4344 15.7937 13.2906L11.2625 18.6469C10.9062 19.0688 10.275 19.1219 9.85313 18.7656C9.43125 18.4094 9.37813 17.7781 9.73438 17.3562L11.7312 14.9937H11.7344Z" fill="black"/>
</svg>
