<svg width="24" height="24" viewBox="0 0 24 24" fill="none" xmlns="http://www.w3.org/2000/svg">
<path d="M12.7063 4.29376C12.3156 3.90314 11.6813 3.90314 11.2906 4.29376L8.29063 7.29376C7.9 7.68439 7.9 8.31876 8.29063 8.70939C8.68125 9.10001 9.31563 9.10001 9.70625 8.70939L11 7.41564V14C11 14.5531 11.4469 15 12 15C12.5531 15 13 14.5531 13 14V7.41564L14.2937 8.70939C14.6844 9.10001 15.3188 9.10001 15.7094 8.70939C16.1 8.31876 16.1 7.68439 15.7094 7.29376L12.7094 4.29376H12.7063ZM6 7.50001C6 7.22501 6.225 7.00001 6.5 7.00001H6.75C7.30312 7.00001 7.75 6.55314 7.75 6.00001C7.75 5.44689 7.30312 5.00001 6.75 5.00001H6.5C5.11875 5.00001 4 6.11876 4 7.50001V17.5C4 18.8813 5.11875 20 6.5 20H17.5C18.8813 20 20 18.8813 20 17.5V7.50001C20 6.11876 18.8813 5.00001 17.5 5.00001H17.25C16.6969 5.00001 16.25 5.44689 16.25 6.00001C16.25 6.55314 16.6969 7.00001 17.25 7.00001H17.5C17.775 7.00001 18 7.22501 18 7.50001V17.5C18 17.775 17.775 18 17.5 18H6.5C6.225 18 6 17.775 6 17.5V7.50001Z" fill="black"/>
</svg>
