<svg width="24" height="24" viewBox="0 0 24 24" fill="none" xmlns="http://www.w3.org/2000/svg">
<path d="M8.00001 19C8.28126 19 8.54689 18.8813 8.73751 18.675L11.4875 15.675C11.8594 15.2688 11.8344 14.6344 11.425 14.2625C11.0156 13.8906 10.3844 13.9156 10.0125 14.325L9.00001 15.4281V6C9.00001 5.44687 8.55314 5 8.00001 5C7.44689 5 7.00001 5.44687 7.00001 6V15.4281L5.98751 14.325C5.61564 13.9187 4.98126 13.8906 4.57501 14.2625C4.16876 14.6344 4.14064 15.2688 4.51251 15.675L7.26251 18.675C7.45314 18.8813 7.71876 19 8.00001 19ZM17.0844 13.1875C16.825 13 16.4875 12.9469 16.1844 13.05L14.6844 13.55C14.1594 13.725 13.8781 14.2906 14.0531 14.8156C14.2281 15.3406 14.7938 15.6219 15.3188 15.4469L15.5031 15.3844V17H15C14.4469 17 14 17.4469 14 18C14 18.5531 14.4469 19 15 19H16.5H18C18.5531 19 19 18.5531 19 18C19 17.4469 18.5531 17 18 17H17.5V14C17.5 13.6781 17.3469 13.3781 17.0844 13.1875ZM16.0719 6.84375C16.3118 6.7302 16.587 6.71662 16.837 6.806C17.0869 6.89537 17.2912 7.08037 17.4047 7.32031C17.5182 7.56025 17.5318 7.83547 17.4425 8.08542C17.3531 8.33537 17.1681 8.53958 16.9281 8.65312C16.6882 8.76667 16.413 8.78025 16.163 8.69088C15.9131 8.60151 15.7089 8.4165 15.5953 8.17656C15.4818 7.93662 15.4682 7.66141 15.5576 7.41146C15.6469 7.16151 15.8319 6.9573 16.0719 6.84375ZM15.6594 10.3688L15.4469 10.6562C15.1188 11.1 15.2125 11.725 15.6563 12.0562C16.1 12.3875 16.725 12.2906 17.0563 11.8469L18.5813 9.79063C19.0188 9.2 19.2531 8.4875 19.2531 7.75312C19.2531 6.23438 18.0219 5.00312 16.5031 5.00312C14.9844 5.00312 13.7531 6.23438 13.7531 7.75312C13.7531 8.97813 14.5531 10.0156 15.6625 10.3719L15.6594 10.3688Z" fill="black"/>
</svg>
