<svg width="24" height="24" viewBox="0 0 24 24" fill="none" xmlns="http://www.w3.org/2000/svg">
<path d="M15 15C14.4469 15 14 15.4468 14 16C14 16.5531 14.4469 17 15 17H20C20.5532 17 21 16.5531 21 16V11C21 10.4468 20.5532 9.99995 20 9.99995C19.4469 9.99995 19 10.4468 19 11V13.5843L13.7063 8.2937C13.3156 7.90308 12.6813 7.90308 12.2906 8.2937L9.00002 11.5843L4.70627 7.2937C4.31565 6.90308 3.68127 6.90308 3.29065 7.2937C2.90002 7.68433 2.90002 8.3187 3.29065 8.70933L8.29065 13.7093C8.68127 14.1 9.31565 14.1 9.70627 13.7093L13 10.4156L17.5844 15H15Z" fill="black"/>
</svg>
