<svg width="24" height="24" viewBox="0 0 24 24" fill="none" xmlns="http://www.w3.org/2000/svg">
<path d="M18.7062 12.7063C19.0968 12.3156 19.0968 11.6813 18.7062 11.2906L13.7062 6.29065C13.3155 5.90002 12.6812 5.90002 12.2905 6.29065C11.8999 6.68127 11.8999 7.31565 12.2905 7.70627L16.5843 12L12.2937 16.2938C11.903 16.6844 11.903 17.3188 12.2937 17.7094C12.6843 18.1 13.3187 18.1 13.7093 17.7094L18.7093 12.7094L18.7062 12.7063ZM7.70615 17.7063L12.7062 12.7063C13.0968 12.3156 13.0968 11.6813 12.7062 11.2906L7.70615 6.29065C7.31553 5.90002 6.68115 5.90002 6.29053 6.29065C5.8999 6.68127 5.8999 7.31565 6.29053 7.70627L10.5843 12L6.29365 16.2938C5.90303 16.6844 5.90303 17.3188 6.29365 17.7094C6.68428 18.1 7.31865 18.1 7.70928 17.7094L7.70615 17.7063Z" fill="black"/>
</svg>
