<svg width="24" height="24" viewBox="0 0 24 24" fill="none" xmlns="http://www.w3.org/2000/svg">
<path d="M2.46873 4.46876C2.76248 4.17813 3.23748 4.17813 3.53123 4.46876L5.49998 6.43751V5.25001C5.49998 4.83438 5.83435 4.50001 6.24998 4.50001C6.6656 4.50001 6.99998 4.83438 6.99998 5.25001V8.25001C6.99998 8.66563 6.6656 9.00001 6.24998 9.00001H3.24998C2.83435 9.00001 2.49998 8.66563 2.49998 8.25001C2.49998 7.83438 2.83435 7.50001 3.24998 7.50001H4.4406L2.46873 5.53126C2.1781 5.23751 2.1781 4.76251 2.46873 4.46876ZM6.17185 11.6219C6.95623 10.05 8.95935 7.50001 12 7.50001C15.0406 7.50001 17.0437 10.05 17.8281 11.6219C17.9469 11.8594 17.9469 12.1375 17.8281 12.3781C17.0437 13.95 15.0406 16.5 12 16.5C8.95935 16.5 6.95623 13.95 6.17185 12.3781C6.0531 12.1406 6.0531 11.8625 6.17185 11.6219ZM12 14C12.5304 14 13.0391 13.7893 13.4142 13.4142C13.7893 13.0391 14 12.5304 14 12C14 11.4696 13.7893 10.9609 13.4142 10.5858C13.0391 10.2107 12.5304 10 12 10C11.4695 10 10.9608 10.2107 10.5858 10.5858C10.2107 10.9609 9.99998 11.4696 9.99998 12C9.99998 12.5304 10.2107 13.0391 10.5858 13.4142C10.9608 13.7893 11.4695 14 12 14ZM20.4687 4.46876C20.7625 4.17501 21.2375 4.17501 21.5281 4.46876C21.8187 4.76251 21.8219 5.23751 21.5281 5.52813L19.5594 7.49688H20.75C21.1656 7.49688 21.5 7.83126 21.5 8.24688C21.5 8.66251 21.1656 8.99688 20.75 8.99688H17.75C17.3344 8.99688 17 8.66251 17 8.24688V5.25001C17 4.83438 17.3344 4.50001 17.75 4.50001C18.1656 4.50001 18.5 4.83438 18.5 5.25001V6.44063L20.4687 4.47188V4.46876ZM2.46873 19.5313C2.17498 19.2375 2.17498 18.7625 2.46873 18.4719L4.43748 16.5031H3.24998C2.83435 16.5031 2.49998 16.1688 2.49998 15.7531C2.49998 15.3375 2.83435 15.0031 3.24998 15.0031H6.24998C6.6656 15.0031 6.99998 15.3375 6.99998 15.7531V18.7531C6.99998 19.1688 6.6656 19.5031 6.24998 19.5031C5.83435 19.5031 5.49998 19.1688 5.49998 18.7531V17.5594L3.53123 19.5313C3.23748 19.825 2.76248 19.825 2.47185 19.5313H2.46873ZM20.4687 19.5313L18.5 17.5625V18.75C18.5 19.1656 18.1656 19.5 17.75 19.5C17.3344 19.5 17 19.1656 17 18.75V15.75C17 15.3344 17.3344 15 17.75 15H20.75C21.1656 15 21.5 15.3344 21.5 15.75C21.5 16.1656 21.1656 16.5 20.75 16.5H19.5594L21.5281 18.4688C21.8219 18.7625 21.8219 19.2375 21.5281 19.5281C21.2344 19.8188 20.7594 19.8219 20.4687 19.5281V19.5313Z" fill="black"/>
</svg>
