<svg width="24" height="24" viewBox="0 0 24 24" fill="none" xmlns="http://www.w3.org/2000/svg">
<path d="M12.7062 18.7063C12.3155 19.0969 11.6812 19.0969 11.2905 18.7063L6.29053 13.7063C5.8999 13.3156 5.8999 12.6813 6.29053 12.2906C6.68115 11.9 7.31553 11.9 7.70615 12.2906L11.9999 16.5844L16.2937 12.2938C16.6843 11.9031 17.3187 11.9031 17.7093 12.2938C18.0999 12.6844 18.0999 13.3188 17.7093 13.7094L12.7093 18.7094L12.7062 18.7063ZM17.7062 7.70627L12.7062 12.7063C12.3155 13.0969 11.6812 13.0969 11.2905 12.7063L6.29053 7.70627C5.8999 7.31565 5.8999 6.68127 6.29053 6.29065C6.68115 5.90002 7.31553 5.90002 7.70615 6.29065L11.9999 10.5844L16.2937 6.29377C16.6843 5.90315 17.3187 5.90315 17.7093 6.29377C18.0999 6.6844 18.0999 7.31877 17.7093 7.7094L17.7062 7.70627Z" fill="black"/>
</svg>
