<svg width="24" height="24" viewBox="0 0 24 24" fill="none" xmlns="http://www.w3.org/2000/svg">
<path d="M2.29377 4.2937C2.6844 3.90308 3.31565 3.90308 3.70627 4.2937L7.00002 7.58433V6.99995C7.00002 6.44683 7.4469 5.99995 8.00002 5.99995C8.55315 5.99995 9.00002 6.44683 9.00002 6.99995V9.99995C9.00002 10.1343 8.9719 10.2656 8.92502 10.3812C8.87502 10.4968 8.80627 10.6093 8.7094 10.7031L8.70627 10.7062C8.6094 10.8 8.50002 10.8718 8.3844 10.9218C8.26565 10.9718 8.13752 10.9968 8.00315 10.9968H5.00002C4.4469 10.9968 4.00002 10.55 4.00002 9.99683C4.00002 9.4437 4.4469 8.99683 5.00002 8.99683H5.5844L2.29377 5.7062C1.90315 5.31558 1.90315 4.68433 2.29377 4.2937ZM10 12C10 11.4695 10.2107 10.9608 10.5858 10.5857C10.9609 10.2107 11.4696 9.99995 12 9.99995C12.5305 9.99995 13.0392 10.2107 13.4142 10.5857C13.7893 10.9608 14 11.4695 14 12C14 12.5304 13.7893 13.0391 13.4142 13.4142C13.0392 13.7892 12.5305 14 12 14C11.4696 14 10.9609 13.7892 10.5858 13.4142C10.2107 13.0391 10 12.5304 10 12ZM5.5844 15H5.00002C4.4469 15 4.00002 14.5531 4.00002 14C4.00002 13.4468 4.4469 13 5.00002 13H8.00002H8.00315C8.27815 13 8.52502 13.1125 8.70627 13.2906L8.7094 13.2937C8.80315 13.3906 8.87502 13.5 8.92502 13.6156C8.97502 13.7343 9.00002 13.8625 9.00002 13.9968V16.9968C9.00002 17.55 8.55315 17.9968 8.00002 17.9968C7.4469 17.9968 7.00002 17.55 7.00002 16.9968V16.4156L3.70627 19.7062C3.31565 20.0968 2.68127 20.0968 2.29065 19.7062C1.90002 19.3156 1.90002 18.6812 2.29065 18.2906L5.5844 15ZM15 6.99995C15 6.44683 15.4469 5.99995 16 5.99995C16.5532 5.99995 17 6.44683 17 6.99995V7.58433L20.2938 4.2937C20.6844 3.90308 21.3188 3.90308 21.7094 4.2937C22.1 4.68433 22.1 5.3187 21.7094 5.70933L18.4156 8.99995H19C19.5532 8.99995 20 9.44683 20 9.99995C20 10.5531 19.5532 11 19 11H16C15.725 11 15.475 10.8875 15.2938 10.7093L15.2906 10.7062C15.1969 10.6093 15.125 10.5 15.075 10.3843C15.025 10.2687 15 10.1406 15 10.0031V9.99995V6.99995ZM18.4156 15L21.7063 18.2937C22.0969 18.6843 22.0969 19.3187 21.7063 19.7093C21.3156 20.1 20.6813 20.1 20.2906 19.7093L17 16.4156V17C17 17.5531 16.5532 18 16 18C15.4469 18 15 17.5531 15 17V14V13.9968C15 13.8625 15.0281 13.7343 15.075 13.6156C15.125 13.4968 15.1969 13.3875 15.2906 13.2906C15.4719 13.1093 15.7188 13 15.9938 12.9968H15.9969H18.9969C19.55 12.9968 19.9969 13.4437 19.9969 13.9968C19.9969 14.55 19.55 14.9968 18.9969 14.9968H18.4156V15Z" fill="black"/>
</svg>
