<svg width="24" height="24" viewBox="0 0 24 24" fill="none" xmlns="http://www.w3.org/2000/svg">
<path d="M2.29365 4.29297C2.68428 3.90234 3.31553 3.90234 3.70615 4.29297L6.9999 7.58359V6.99922C6.9999 6.44609 7.44678 5.99922 7.9999 5.99922C8.55303 5.99922 8.9999 6.44609 8.9999 6.99922V9.99922C8.9999 10.1336 8.97178 10.2648 8.9249 10.3805C8.8749 10.4961 8.80615 10.6086 8.70928 10.7023L8.70615 10.7055C8.60928 10.7992 8.4999 10.8711 8.38428 10.9211C8.26553 10.9711 8.1374 10.9961 8.00303 10.9961H4.9999C4.44678 10.9961 3.9999 10.5492 3.9999 9.99609C3.9999 9.44297 4.44678 8.99609 4.9999 8.99609H5.58428L2.29365 5.70547C1.90303 5.31484 1.90303 4.68359 2.29365 4.29297ZM9.9999 11.9992C9.9999 11.4688 10.2106 10.9601 10.5857 10.585C10.9608 10.2099 11.4695 9.99922 11.9999 9.99922C12.5303 9.99922 13.039 10.2099 13.4141 10.585C13.7892 10.9601 13.9999 11.4688 13.9999 11.9992C13.9999 12.5297 13.7892 13.0384 13.4141 13.4134C13.039 13.7885 12.5303 13.9992 11.9999 13.9992C11.4695 13.9992 10.9608 13.7885 10.5857 13.4134C10.2106 13.0384 9.9999 12.5297 9.9999 11.9992ZM5.58428 14.9992H4.9999C4.44678 14.9992 3.9999 14.5523 3.9999 13.9992C3.9999 13.4461 4.44678 12.9992 4.9999 12.9992H7.9999H8.00303C8.27803 12.9992 8.5249 13.1117 8.70615 13.2898L8.70928 13.293C8.80303 13.3898 8.8749 13.4992 8.9249 13.6148C8.9749 13.7336 8.9999 13.8617 8.9999 13.9961V16.9961C8.9999 17.5492 8.55303 17.9961 7.9999 17.9961C7.44678 17.9961 6.9999 17.5492 6.9999 16.9961V16.4148L3.70615 19.7055C3.31553 20.0961 2.68115 20.0961 2.29053 19.7055C1.8999 19.3148 1.8999 18.6805 2.29053 18.2898L5.58428 14.9992ZM14.9999 6.99922C14.9999 6.44609 15.4468 5.99922 15.9999 5.99922C16.553 5.99922 16.9999 6.44609 16.9999 6.99922V7.58359L20.2937 4.29297C20.6843 3.90234 21.3187 3.90234 21.7093 4.29297C22.0999 4.68359 22.0999 5.31797 21.7093 5.70859L18.4155 8.99922H18.9999C19.553 8.99922 19.9999 9.44609 19.9999 9.99922C19.9999 10.5523 19.553 10.9992 18.9999 10.9992H15.9999C15.7249 10.9992 15.4749 10.8867 15.2937 10.7086L15.2905 10.7055C15.1968 10.6086 15.1249 10.4992 15.0749 10.3836C15.0249 10.268 14.9999 10.1398 14.9999 10.0023V9.99922V6.99922ZM18.4155 14.9992L21.7062 18.293C22.0968 18.6836 22.0968 19.318 21.7062 19.7086C21.3155 20.0992 20.6812 20.0992 20.2905 19.7086L16.9999 16.4148V16.9992C16.9999 17.5523 16.553 17.9992 15.9999 17.9992C15.4468 17.9992 14.9999 17.5523 14.9999 16.9992V13.9992V13.9961C14.9999 13.8617 15.028 13.7336 15.0749 13.6148C15.1249 13.4961 15.1968 13.3867 15.2905 13.2898C15.4718 13.1086 15.7187 12.9992 15.9937 12.9961H15.9968H18.9968C19.5499 12.9961 19.9968 13.443 19.9968 13.9961C19.9968 14.5492 19.5499 14.9961 18.9968 14.9961H18.4155V14.9992Z" fill="black"/>
</svg>
