<svg width="24" height="24" viewBox="0 0 24 24" fill="none" xmlns="http://www.w3.org/2000/svg">
<path d="M16.7063 15.7063C17.0969 15.3156 17.0969 14.6812 16.7063 14.2906C16.3156 13.9 15.6813 13.9 15.2906 14.2906L13 16.5844V7C13 6.44687 13.4469 6 14 6H17C17.5531 6 18 5.55313 18 5C18 4.44687 17.5531 4 17 4H14C12.3438 4 11 5.34375 11 7V16.5844L8.70627 14.2937C8.31565 13.9031 7.68127 13.9031 7.29065 14.2937C6.90002 14.6844 6.90002 15.3188 7.29065 15.7094L11.2906 19.7094C11.6813 20.1 12.3156 20.1 12.7063 19.7094L16.7063 15.7094V15.7063Z" fill="black"/>
</svg>
