<svg width="24" height="24" viewBox="0 0 24 24" fill="none" xmlns="http://www.w3.org/2000/svg">
<path d="M12.0001 5C12.5532 5 13.0001 5.44687 13.0001 6V10.2344L16.4844 8.14375C16.9594 7.85938 17.5719 8.0125 17.8563 8.4875C18.1407 8.9625 17.9876 9.575 17.5126 9.85938L13.9438 12L17.5157 14.1438C17.9907 14.4281 18.1438 15.0406 17.8594 15.5156C17.5751 15.9906 16.9626 16.1438 16.4876 15.8594L13.0001 13.7656V18C13.0001 18.5531 12.5532 19 12.0001 19C11.4469 19 11.0001 18.5531 11.0001 18V13.7656L7.51568 15.8562C7.04068 16.1406 6.42818 15.9875 6.14381 15.5125C5.85943 15.0375 6.01256 14.425 6.48756 14.1406L10.0563 12L6.48443 9.85625C6.00943 9.57187 5.85631 8.95937 6.14068 8.48438C6.42506 8.00938 7.03756 7.85625 7.51256 8.14062L11.0001 10.2344V6C11.0001 5.44687 11.4469 5 12.0001 5Z" fill="black"/>
</svg>
