<svg width="24" height="24" viewBox="0 0 24 24" fill="none" xmlns="http://www.w3.org/2000/svg">
<path d="M4.29365 4.29375C4.68428 3.90312 5.31553 3.90312 5.70615 4.29375L8.9999 7.58437V6C8.9999 5.44687 9.44678 5 9.9999 5C10.553 5 10.9999 5.44687 10.9999 6V10C10.9999 10.5531 10.553 11 9.9999 11H5.9999C5.44678 11 4.9999 10.5531 4.9999 10C4.9999 9.44687 5.44678 9 5.9999 9H7.58428L4.29365 5.70625C3.90303 5.31562 3.90303 4.68437 4.29365 4.29375ZM18.2937 4.29375C18.6843 3.90312 19.3187 3.90312 19.7093 4.29375C20.0999 4.68437 20.0999 5.31875 19.7093 5.70937L16.4155 9H17.9999C18.553 9 18.9999 9.44687 18.9999 10C18.9999 10.5531 18.553 11 17.9999 11H13.9999C13.4468 11 12.9999 10.5531 12.9999 10V6C12.9999 5.44687 13.4468 5 13.9999 5C14.553 5 14.9999 5.44687 14.9999 6V7.58437L18.2937 4.29375ZM4.9999 14C4.9999 13.4469 5.44678 13 5.9999 13H9.9999C10.553 13 10.9999 13.4469 10.9999 14V18C10.9999 18.5531 10.553 19 9.9999 19C9.44678 19 8.9999 18.5531 8.9999 18V16.4156L5.70615 19.7062C5.31553 20.0969 4.68115 20.0969 4.29053 19.7062C3.8999 19.3156 3.8999 18.6812 4.29053 18.2906L7.58428 15H5.9999C5.44678 15 4.9999 14.5531 4.9999 14ZM12.9999 14C12.9999 13.4469 13.4468 13 13.9999 13H17.9999C18.553 13 18.9999 13.4469 18.9999 14C18.9999 14.5531 18.553 15 17.9999 15H16.4155L19.7062 18.2937C20.0968 18.6844 20.0968 19.3187 19.7062 19.7094C19.3155 20.1 18.6812 20.1 18.2905 19.7094L14.9999 16.4156V18C14.9999 18.5531 14.553 19 13.9999 19C13.4468 19 12.9999 18.5531 12.9999 18V14Z" fill="black"/>
</svg>
