<svg width="24" height="24" viewBox="0 0 24 24" fill="none" xmlns="http://www.w3.org/2000/svg">
<path d="M7 18C6.44687 18 6 18.4468 6 19C6 19.5531 6.44687 20 7 20H10C11.6562 20 13 18.6562 13 17V7.41558L15.2937 9.70933C15.6844 10.1 16.3188 10.1 16.7094 9.70933C17.1 9.3187 17.1 8.68433 16.7094 8.2937L12.7094 4.2937C12.3187 3.90308 11.6844 3.90308 11.2937 4.2937L7.29375 8.2937C6.90313 8.68433 6.90313 9.3187 7.29375 9.70933C7.68438 10.1 8.31875 10.1 8.70937 9.70933L11 7.41558V17C11 17.5531 10.5531 18 10 18H7Z" fill="black"/>
</svg>
