<svg width="24" height="24" viewBox="0 0 24 24" fill="none" xmlns="http://www.w3.org/2000/svg">
<path d="M13.9998 5C13.4467 5 12.9998 5.44687 12.9998 6C12.9998 6.55313 13.4467 7 13.9998 7H15.5842L5.29356 17.2937C4.90293 17.6844 4.90293 18.3188 5.29356 18.7094C5.68418 19.1 6.31856 19.1 6.70918 18.7094L16.9998 8.41563V10C16.9998 10.5531 17.4467 11 17.9998 11C18.5529 11 18.9998 10.5531 18.9998 10V6C18.9998 5.44687 18.5529 5 17.9998 5H13.9998ZM6.70606 5.29375C6.31543 4.90313 5.68106 4.90313 5.29043 5.29375C4.89981 5.68438 4.90293 6.31562 5.29356 6.70625L9.87793 11.2937L11.2936 9.87813L6.70606 5.29375ZM15.5842 17H13.9998C13.4467 17 12.9998 17.4469 12.9998 18C12.9998 18.5531 13.4467 19 13.9998 19H17.9998C18.5529 19 18.9998 18.5531 18.9998 18V14C18.9998 13.4469 18.5529 13 17.9998 13C17.4467 13 16.9998 13.4469 16.9998 14V15.5844L14.1217 12.7063L12.7061 14.1219L15.5842 17Z" fill="black"/>
</svg>
