<svg width="24" height="24" viewBox="0 0 24 24" fill="none" xmlns="http://www.w3.org/2000/svg">
<path d="M16.7062 10.3313C16.4656 9.65 16.075 9.00938 15.525 8.4625C13.5719 6.50938 10.4062 6.50938 8.45312 8.4625L7.92187 9H8.99375C9.54687 9 9.99375 9.44688 9.99375 10C9.99375 10.5531 9.54687 11 8.99375 11H5.50937H5.49687C4.94375 11 4.49687 10.5531 4.49687 10V6.5C4.49687 5.94688 4.94375 5.5 5.49687 5.5C6.05 5.5 6.49687 5.94688 6.49687 6.5V7.6L7.04375 7.05C9.77812 4.31563 14.2094 4.31563 16.9437 7.05C17.7062 7.8125 18.2594 8.70938 18.5969 9.66563C18.7812 10.1875 18.5062 10.7563 17.9875 10.9406C17.4687 11.125 16.8969 10.85 16.7125 10.3313H16.7062ZM18.7719 13.0375C18.9281 13.0844 19.0781 13.1688 19.2 13.2938C19.325 13.4188 19.4094 13.5719 19.4531 13.7313C19.4625 13.7688 19.4719 13.8094 19.4781 13.85C19.4875 13.9031 19.4906 13.9563 19.4906 14.0094V17.5C19.4906 18.0531 19.0437 18.5 18.4906 18.5C17.9375 18.5 17.4906 18.0531 17.4906 17.5V16.4031L16.9406 16.95C14.2062 19.6813 9.775 19.6813 7.04375 16.95C6.28125 16.1875 5.72812 15.2906 5.39062 14.3313C5.20625 13.8094 5.48125 13.2406 6 13.0563C6.51875 12.8719 7.09062 13.1469 7.275 13.6656C7.51562 14.3469 7.90625 14.9875 8.45625 15.5344C10.4094 17.4875 13.575 17.4875 15.5281 15.5344L15.5312 15.5313L16.0656 15H14.9937C14.4406 15 13.9937 14.5531 13.9937 14C13.9937 13.4469 14.4406 13 14.9937 13H18.4812C18.5312 13 18.5812 13.0031 18.6312 13.0094C18.6812 13.0156 18.7281 13.025 18.775 13.0406L18.7719 13.0375Z" fill="black"/>
</svg>
