<svg width="24" height="24" viewBox="0 0 24 24" fill="none" xmlns="http://www.w3.org/2000/svg">
<path d="M12.9219 5.61563C12.7688 5.24375 12.4031 5 12 5C11.5969 5 11.2312 5.24375 11.0781 5.61563L8.83437 11H6C5.44687 11 5 11.4469 5 12C5 12.5531 5.44687 13 6 13H8L7.58437 14H6C5.44687 14 5 14.4469 5 15C5 15.5531 5.44687 16 6 16H6.75L6.07812 17.6156C5.86563 18.125 6.10625 18.7094 6.61563 18.9219C7.125 19.1344 7.70937 18.8937 7.92188 18.3844L8.91563 16H15.0844L16.0781 18.3844C16.2906 18.8937 16.875 19.1344 17.3844 18.9219C17.8937 18.7094 18.1344 18.125 17.9219 17.6156L17.25 16H18C18.5531 16 19 15.5531 19 15C19 14.4469 18.5531 14 18 14H16.4156L16 13H18C18.5531 13 19 12.5531 19 12C19 11.4469 18.5531 11 18 11H15.1656L12.9219 5.61563ZM13 11H11L12 8.6L13 11ZM10.1656 13H13.8344L14.25 14H9.75L10.1656 13Z" fill="black"/>
</svg>
