<svg width="24" height="24" viewBox="0 0 24 24" fill="none" xmlns="http://www.w3.org/2000/svg">
<path d="M16.7062 15.7063L19.7062 12.7063C20.0968 12.3156 20.0968 11.6813 19.7062 11.2906L16.7062 8.29065C16.3155 7.90002 15.6812 7.90002 15.2905 8.29065C14.8999 8.68127 14.8999 9.31565 15.2905 9.70627L16.5843 11H7.4124L8.70615 9.70627C9.09678 9.31565 9.09678 8.68127 8.70615 8.29065C8.31553 7.90002 7.68115 7.90002 7.29053 8.29065L4.29053 11.2906C3.8999 11.6813 3.8999 12.3156 4.29053 12.7063L7.29053 15.7063C7.68115 16.0969 8.31553 16.0969 8.70615 15.7063C9.09678 15.3156 9.09678 14.6813 8.70615 14.2906L7.41553 13H16.5874L15.2937 14.2938C14.903 14.6844 14.903 15.3188 15.2937 15.7094C15.6843 16.1 16.3187 16.1 16.7093 15.7094L16.7062 15.7063Z" fill="black"/>
</svg>
