<svg width="24" height="24" viewBox="0 0 24 24" fill="none" xmlns="http://www.w3.org/2000/svg">
<path d="M8.73752 18.675C8.54689 18.8813 8.28127 19 8.00002 19C7.71877 19 7.45314 18.8813 7.26251 18.675L4.51252 15.675C4.14064 15.2688 4.16564 14.6344 4.57502 14.2625C4.98439 13.8906 5.61564 13.9156 5.98752 14.325L7.00002 15.4281V6C7.00002 5.44687 7.44689 5 8.00002 5C8.55314 5 9.00002 5.44687 9.00002 6V15.4281L10.0125 14.3219C10.3844 13.9156 11.0188 13.8875 11.425 14.2594C11.8313 14.6312 11.8594 15.2656 11.4875 15.6719L8.73752 18.6719V18.675ZM13 14C13 13.4469 13.4469 13 14 13H18C18.4031 13 18.7688 13.2437 18.925 13.6187C19.0813 13.9937 18.9938 14.4219 18.7094 14.7094L16.4156 17H18C18.5531 17 19 17.4469 19 18C19 18.5531 18.5531 19 18 19H14C13.5969 19 13.2313 18.7563 13.075 18.3813C12.9188 18.0063 13.0063 17.5781 13.2906 17.2906L15.5844 15H14C13.4469 15 13 14.5531 13 14ZM16 5C16.3781 5 16.725 5.2125 16.8938 5.55313L18.8938 9.55312L19.3938 10.5531C19.6406 11.0469 19.4406 11.6469 18.9469 11.8938C18.4531 12.1406 17.8531 11.9406 17.6063 11.4469L17.3813 11H14.6188L14.3938 11.4469C14.1469 11.9406 13.5469 12.1406 13.0531 11.8938C12.5594 11.6469 12.3594 11.0469 12.6063 10.5531L13.1063 9.55312L15.1063 5.55313C15.275 5.2125 15.6219 5 16 5ZM15.3688 9.5H16.6313L16 8.2375L15.3688 9.5Z" fill="black"/>
</svg>
