<svg width="24" height="24" viewBox="0 0 24 24" fill="none" xmlns="http://www.w3.org/2000/svg">
<path d="M7 6C6.44687 6 6 5.55313 6 5C6 4.44687 6.44687 4 7 4H10C11.6562 4 13 5.34375 13 7V16.5844L15.2937 14.2906C15.6844 13.9 16.3188 13.9 16.7094 14.2906C17.1 14.6812 17.1 15.3156 16.7094 15.7063L12.7094 19.7063C12.3187 20.0969 11.6844 20.0969 11.2937 19.7063L7.29375 15.7063C6.90313 15.3156 6.90313 14.6812 7.29375 14.2906C7.68438 13.9 8.31875 13.9 8.70937 14.2906L11 16.5844V7C11 6.44687 10.5531 6 10 6H7Z" fill="black"/>
</svg>
