<svg width="24" height="24" viewBox="0 0 24 24" fill="none" xmlns="http://www.w3.org/2000/svg">
<path d="M15 9C14.4469 9 14 8.55313 14 8C14 7.44687 14.4469 7 15 7H20C20.5531 7 21 7.44687 21 8V13C21 13.5531 20.5531 14 20 14C19.4469 14 19 13.5531 19 13V10.4156L13.7062 15.7063C13.3156 16.0969 12.6812 16.0969 12.2906 15.7063L8.99999 12.4156L4.70624 16.7063C4.31562 17.0969 3.68124 17.0969 3.29062 16.7063C2.89999 16.3156 2.89999 15.6812 3.29062 15.2906L8.29062 10.2906C8.68124 9.9 9.31562 9.9 9.70624 10.2906L13 13.5844L17.5844 9H15Z" fill="black"/>
</svg>
