<svg width="24" height="24" viewBox="0 0 24 24" fill="none" xmlns="http://www.w3.org/2000/svg">
<path d="M18 12C18 8.6875 15.3125 6 12 6C11.4469 6 11 5.55313 11 5C11 4.44687 11.4469 4 12 4C16.4188 4 20 7.58125 20 12C20 16.4187 16.4188 20 12 20C11.4469 20 11 19.5531 11 19C11 18.4469 11.4469 18 12 18C15.3125 18 18 15.3125 18 12ZM7.79376 7.79375C8.18439 7.40313 8.81876 7.40313 9.20939 7.79375C9.60001 8.18438 9.60001 8.81875 9.20939 9.20937L7.41564 11H14C14.5531 11 15 11.4469 15 12C15 12.5531 14.5531 13 14 13H7.41564L9.20939 14.7937C9.60001 15.1844 9.60001 15.8188 9.20939 16.2094C8.81876 16.6 8.18439 16.6 7.79376 16.2094L4.29376 12.7094C3.90314 12.3188 3.90314 11.6844 4.29376 11.2937L7.79376 7.79375Z" fill="black"/>
</svg>
