<svg width="24" height="24" viewBox="0 0 24 24" fill="none" xmlns="http://www.w3.org/2000/svg">
<path d="M2.46873 4.46873C2.76248 4.1781 3.23748 4.1781 3.53123 4.46873L5.49998 6.43748V5.24998C5.49998 4.83435 5.83435 4.49998 6.24998 4.49998C6.6656 4.49998 6.99998 4.83435 6.99998 5.24998V8.24998C6.99998 8.6656 6.6656 8.99998 6.24998 8.99998H3.24998C2.83435 8.99998 2.49998 8.6656 2.49998 8.24998C2.49998 7.83435 2.83435 7.49998 3.24998 7.49998H4.4406L2.46873 5.53123C2.1781 5.23748 2.1781 4.76248 2.46873 4.46873ZM6.17185 11.6219C6.95623 10.05 8.95935 7.49998 12 7.49998C15.0406 7.49998 17.0437 10.05 17.8281 11.6219C17.9468 11.8594 17.9468 12.1375 17.8281 12.3781C17.0437 13.95 15.0406 16.5 12 16.5C8.95935 16.5 6.95623 13.95 6.17185 12.3781C6.0531 12.1406 6.0531 11.8625 6.17185 11.6219ZM12 14C12.5304 14 13.0391 13.7893 13.4142 13.4142C13.7893 13.0391 14 12.5304 14 12C14 11.4695 13.7893 10.9608 13.4142 10.5858C13.0391 10.2107 12.5304 9.99998 12 9.99998C11.4695 9.99998 10.9608 10.2107 10.5858 10.5858C10.2107 10.9608 9.99998 11.4695 9.99998 12C9.99998 12.5304 10.2107 13.0391 10.5858 13.4142C10.9608 13.7893 11.4695 14 12 14ZM20.4687 4.46873C20.7625 4.17498 21.2375 4.17498 21.5281 4.46873C21.8187 4.76248 21.8219 5.23748 21.5281 5.5281L19.5594 7.49685H20.75C21.1656 7.49685 21.5 7.83123 21.5 8.24685C21.5 8.66248 21.1656 8.99685 20.75 8.99685H17.75C17.3344 8.99685 17 8.66248 17 8.24685V5.24998C17 4.83435 17.3344 4.49998 17.75 4.49998C18.1656 4.49998 18.5 4.83435 18.5 5.24998V6.4406L20.4687 4.47185V4.46873ZM2.46873 19.5312C2.17498 19.2375 2.17498 18.7625 2.46873 18.4719L4.43748 16.5031H3.24998C2.83435 16.5031 2.49998 16.1687 2.49998 15.7531C2.49998 15.3375 2.83435 15.0031 3.24998 15.0031H6.24998C6.6656 15.0031 6.99998 15.3375 6.99998 15.7531V18.7531C6.99998 19.1687 6.6656 19.5031 6.24998 19.5031C5.83435 19.5031 5.49998 19.1687 5.49998 18.7531V17.5594L3.53123 19.5312C3.23748 19.825 2.76248 19.825 2.47185 19.5312H2.46873ZM20.4687 19.5312L18.5 17.5625V18.75C18.5 19.1656 18.1656 19.5 17.75 19.5C17.3344 19.5 17 19.1656 17 18.75V15.75C17 15.3344 17.3344 15 17.75 15H20.75C21.1656 15 21.5 15.3344 21.5 15.75C21.5 16.1656 21.1656 16.5 20.75 16.5H19.5594L21.5281 18.4687C21.8219 18.7625 21.8219 19.2375 21.5281 19.5281C21.2344 19.8187 20.7593 19.8218 20.4687 19.5281V19.5312Z" fill="black"/>
</svg>
