<svg width="24" height="24" viewBox="0 0 24 24" fill="none" xmlns="http://www.w3.org/2000/svg">
<path d="M3 6C3.55313 6 4 6.44687 4 7V17C4 17.5531 3.55313 18 3 18C2.44687 18 2 17.5531 2 17V7C2 6.44687 2.44687 6 3 6ZM9.70625 8.29375C10.0969 8.68437 10.0969 9.31875 9.70625 9.70937L8.41563 11H15.5875L14.2937 9.70625C13.9031 9.31563 13.9031 8.68125 14.2937 8.29063C14.6844 7.9 15.3188 7.9 15.7094 8.29063L18.7094 11.2906C19.1 11.6813 19.1 12.3156 18.7094 12.7063L15.7094 15.7063C15.3188 16.0969 14.6844 16.0969 14.2937 15.7063C13.9031 15.3156 13.9031 14.6812 14.2937 14.2906L15.5844 13H8.4125L9.70625 14.2937C10.0969 14.6844 10.0969 15.3188 9.70625 15.7094C9.31563 16.1 8.68125 16.1 8.29063 15.7094L5.29063 12.7094C4.9 12.3188 4.9 11.6844 5.29063 11.2937L8.29063 8.29375C8.68125 7.90312 9.31563 7.90312 9.70625 8.29375ZM22 7V17C22 17.5531 21.5531 18 21 18C20.4469 18 20 17.5531 20 17V7C20 6.44687 20.4469 6 21 6C21.5531 6 22 6.44687 22 7Z" fill="black"/>
</svg>
