<svg width="24" height="24" viewBox="0 0 24 24" fill="none" xmlns="http://www.w3.org/2000/svg">
<path d="M15.7063 15.7063C15.3156 16.0969 14.6812 16.0969 14.2906 15.7063C13.9 15.3156 13.9 14.6813 14.2906 14.2906L16.5844 12H7C6.44688 12 6 12.4469 6 13V18C6 18.5532 5.55313 19 5 19C4.44687 19 4 18.5532 4 18V13C4 11.3438 5.34375 10 7 10H16.5844L14.2906 7.70627C13.9 7.31565 13.9 6.68127 14.2906 6.29065C14.6812 5.90002 15.3156 5.90002 15.7063 6.29065L19.7063 10.2906C20.0969 10.6813 20.0969 11.3156 19.7063 11.7063L15.7063 15.7063Z" fill="black"/>
</svg>
