<svg width="24" height="24" viewBox="0 0 24 24" fill="none" xmlns="http://www.w3.org/2000/svg">
<path d="M11.7062 8.70624C11.3156 9.09687 10.6812 9.09687 10.2906 8.70624C9.89995 8.31562 9.89995 7.68124 10.2906 7.29062L13.2906 4.29062C13.6812 3.89999 14.3156 3.89999 14.7062 4.29062L17.7062 7.29062C18.0968 7.68124 18.0968 8.31562 17.7062 8.70624C17.3156 9.09687 16.6812 9.09687 16.2906 8.70624L15 7.41562V16C15 17.1031 15.8968 18 17 18H19C19.5531 18 20 18.4469 20 19C20 19.5531 19.5531 20 19 20H17C14.7906 20 13 18.2094 13 16C13 14.8969 12.1031 14 11 14H7.41558L8.70933 15.2937C9.09995 15.6844 9.09995 16.3187 8.70933 16.7094C8.3187 17.1 7.68433 17.1 7.2937 16.7094L4.2937 13.7094C3.90308 13.3187 3.90308 12.6844 4.2937 12.2937L7.2937 9.29374C7.68433 8.90312 8.3187 8.90312 8.70933 9.29374C9.09995 9.68437 9.09995 10.3187 8.70933 10.7094L7.41558 12H11C11.7281 12 12.4125 12.1937 13 12.5344V7.41562L11.7062 8.70937V8.70624Z" fill="black"/>
</svg>
