<svg width="24" height="24" viewBox="0 0 24 24" fill="none" xmlns="http://www.w3.org/2000/svg">
<path d="M8.29395 15.7062C8.68457 16.0969 9.31895 16.0969 9.70957 15.7062C10.1002 15.3156 10.1002 14.6812 9.70957 14.2906L7.41582 12H17.0002C17.5533 12 18.0002 12.4469 18.0002 13V18C18.0002 18.5531 18.4471 19 19.0002 19C19.5533 19 20.0002 18.5531 20.0002 18V13C20.0002 11.3437 18.6564 9.99999 17.0002 9.99999H7.41582L9.70957 7.70624C10.1002 7.31562 10.1002 6.68124 9.70957 6.29062C9.31895 5.89999 8.68457 5.89999 8.29395 6.29062L4.29395 10.2906C3.90332 10.6812 3.90332 11.3156 4.29395 11.7062L8.29395 15.7062Z" fill="black"/>
</svg>
