<svg width="24" height="24" viewBox="0 0 24 24" fill="none" xmlns="http://www.w3.org/2000/svg">
<path d="M18.3563 11.9781C17.7781 12.4531 17.3094 13.0906 17.1656 13.825C16.8469 15.4469 16.1031 17.0906 15.0938 18.0969C12.5563 20.6344 8.44065 20.6344 5.90002 18.0969C3.3594 15.5594 3.36252 11.4437 5.90002 8.90312C6.9094 7.89375 8.55315 7.15 10.1719 6.83125C10.9063 6.6875 11.5438 6.21875 12.0188 5.64062C12.8469 4.64062 14.1 4 15.5 4C17.9844 4 20 6.01562 20 8.5C20 9.9 19.3594 11.1531 18.3563 11.9781ZM12.85 14.85C14.1532 13.5469 14.3844 11.6594 13.3625 10.6375C12.3406 9.61562 10.4563 9.84688 9.15002 11.15C7.84377 12.4531 7.61565 14.3406 8.63752 15.3625C9.6594 16.3844 11.5438 16.1531 12.85 14.85Z" fill="black"/>
</svg>
