<svg width="24" height="24" viewBox="0 0 24 24" fill="none" xmlns="http://www.w3.org/2000/svg">
<path d="M14.2937 4.2937C14.6844 3.90308 15.3188 3.90308 15.7094 4.2937L18.7094 7.2937C19.1 7.68433 19.1 8.3187 18.7094 8.70933L15.7094 11.7093C15.3188 12.1 14.6844 12.1 14.2937 11.7093C13.9031 11.3187 13.9031 10.6843 14.2937 10.2937L15.5844 8.99995H9C7.89687 8.99995 7 9.89683 7 11V12C7 12.5531 6.55313 13 6 13C5.44687 13 5 12.5531 5 12V11C5 8.79058 6.79063 6.99995 9 6.99995H15.5844L14.2937 5.7062C13.9031 5.31558 13.9031 4.6812 14.2937 4.29058V4.2937ZM11.2937 12.2937C11.6844 11.9031 12.3187 11.9031 12.7094 12.2937L15.7094 15.2937C16.1 15.6843 16.1 16.3187 15.7094 16.7093L12.7094 19.7093C12.3187 20.1 11.6844 20.1 11.2937 19.7093C10.9031 19.3187 10.9031 18.6843 11.2937 18.2937L12.5844 17H8C7.44688 17 7 17.4468 7 18V19C7 19.5531 6.55313 20 6 20C5.44687 20 5 19.5531 5 19V18C5 16.3437 6.34375 15 8 15H12.5844L11.2906 13.7062C10.9 13.3156 10.9 12.6812 11.2906 12.2906L11.2937 12.2937Z" fill="black"/>
</svg>
