<svg width="24" height="24" viewBox="0 0 24 24" fill="none" xmlns="http://www.w3.org/2000/svg">
<path d="M7 18C6.44687 18 6 18.4469 6 19C6 19.5531 6.44687 20 7 20H10C11.6562 20 13 18.6563 13 17V7.41564L15.2937 9.70939C15.6844 10.1 16.3188 10.1 16.7094 9.70939C17.1 9.31876 17.1 8.68439 16.7094 8.29376L12.7094 4.29376C12.3187 3.90314 11.6844 3.90314 11.2937 4.29376L7.29375 8.29376C6.90313 8.68439 6.90313 9.31876 7.29375 9.70939C7.68438 10.1 8.31875 10.1 8.70937 9.70939L11 7.41564V17C11 17.5531 10.5531 18 10 18H7Z" fill="black"/>
</svg>
