<svg width="24" height="24" viewBox="0 0 24 24" fill="none" xmlns="http://www.w3.org/2000/svg">
<path d="M4 7H20C20.5531 7 21 6.55313 21 6C21 5.44687 20.5531 5 20 5H4C3.44687 5 3 5.44687 3 6C3 6.55313 3.44687 7 4 7ZM3.29375 11.2937C2.90312 11.6844 2.90312 12.3188 3.29375 12.7094C3.68437 13.1 4.31875 13.1 4.70938 12.7094L6 11.4156V18C6 18.5531 6.44687 19 7 19C7.55313 19 8 18.5531 8 18V11.4156L9.29375 12.7094C9.68437 13.1 10.3187 13.1 10.7094 12.7094C11.1 12.3188 11.1 11.6844 10.7094 11.2937L7.70937 8.29375C7.31875 7.90312 6.68438 7.90312 6.29375 8.29375L3.29375 11.2937ZM13.2937 12.7094C13.6844 13.1 14.3188 13.1 14.7094 12.7094L16 11.4156V18C16 18.5531 16.4469 19 17 19C17.5531 19 18 18.5531 18 18V11.4156L19.2938 12.7094C19.6844 13.1 20.3188 13.1 20.7094 12.7094C21.1 12.3188 21.1 11.6844 20.7094 11.2937L17.7094 8.29375C17.3188 7.90312 16.6844 7.90312 16.2937 8.29375L13.2937 11.2937C12.9031 11.6844 12.9031 12.3188 13.2937 12.7094Z" fill="black"/>
</svg>
