<svg width="24" height="24" viewBox="0 0 24 24" fill="none" xmlns="http://www.w3.org/2000/svg">
<path d="M8.73764 18.675C8.54701 18.8813 8.28139 19 8.00014 19C7.71889 19 7.45326 18.8813 7.26264 18.675L4.51264 15.675C4.14076 15.2688 4.16576 14.6344 4.57514 14.2625C4.98451 13.8906 5.61576 13.9156 5.98764 14.325L7.00014 15.4281V6C7.00014 5.44687 7.44701 5 8.00014 5C8.55326 5 9.00014 5.44687 9.00014 6V15.4281L10.0126 14.3219C10.3845 13.9156 11.0189 13.8875 11.4251 14.2594C11.8314 14.6312 11.8595 15.2656 11.4876 15.6719L8.73764 18.6719V18.675ZM13.0001 14C13.0001 13.4469 13.447 13 14.0001 13H18.0001C18.4033 13 18.7689 13.2437 18.9251 13.6187C19.0814 13.9937 18.9939 14.4219 18.7095 14.7094L16.4158 17H18.0001C18.5533 17 19.0001 17.4469 19.0001 18C19.0001 18.5531 18.5533 19 18.0001 19H14.0001C13.597 19 13.2314 18.7563 13.0751 18.3813C12.9189 18.0063 13.0064 17.5781 13.2908 17.2906L15.5845 15H14.0001C13.447 15 13.0001 14.5531 13.0001 14ZM16.0001 5C16.3783 5 16.7251 5.2125 16.8939 5.55313L18.8939 9.55312L19.3939 10.5531C19.6408 11.0469 19.4408 11.6469 18.947 11.8938C18.4533 12.1406 17.8533 11.9406 17.6064 11.4469L17.3814 11H14.6189L14.3939 11.4469C14.147 11.9406 13.547 12.1406 13.0533 11.8938C12.5595 11.6469 12.3595 11.0469 12.6064 10.5531L13.1064 9.55312L15.1064 5.55313C15.2751 5.2125 15.622 5 16.0001 5ZM15.3689 9.5H16.6314L16.0001 8.2375L15.3689 9.5Z" fill="black"/>
</svg>
