<svg width="24" height="24" viewBox="0 0 24 24" fill="none" xmlns="http://www.w3.org/2000/svg">
<path d="M15.7063 15.7066C15.3156 16.0973 14.6812 16.0973 14.2906 15.7066C13.9 15.316 13.9 14.6816 14.2906 14.291L16.5844 12.0004H7C6.44687 12.0004 6 12.4473 6 13.0004V18.0004C6 18.5535 5.55313 19.0004 5 19.0004C4.44687 19.0004 4 18.5535 4 18.0004V13.0004C4 11.3441 5.34375 10.0004 7 10.0004H16.5844L14.2906 7.70664C13.9 7.31602 13.9 6.68164 14.2906 6.29102C14.6812 5.90039 15.3156 5.90039 15.7063 6.29102L19.7063 10.291C20.0969 10.6816 20.0969 11.316 19.7063 11.7066L15.7063 15.7066Z" fill="black"/>
</svg>
