<svg width="24" height="24" viewBox="0 0 24 24" fill="none" xmlns="http://www.w3.org/2000/svg">
<path d="M12.7063 5.29297C12.3156 4.90234 11.6813 4.90234 11.2906 5.29297L7.29063 9.29297C6.9 9.68359 6.9 10.318 7.29063 10.7086C7.68125 11.0992 8.31562 11.0992 8.70625 10.7086L11 8.41484V10.4992V13.9992C11 14.5523 11.4469 14.9992 12 14.9992C12.5531 14.9992 13 14.5523 13 13.9992V10.4992V8.41484L15.2937 10.7086C15.6844 11.0992 16.3188 11.0992 16.7094 10.7086C17.1 10.318 17.1 9.68359 16.7094 9.29297L12.7094 5.29297H12.7063ZM6 16.9992C5.73478 16.9992 5.48043 17.1046 5.29289 17.2921C5.10536 17.4796 5 17.734 5 17.9992C5 18.2644 5.10536 18.5188 5.29289 18.7063C5.48043 18.8939 5.73478 18.9992 6 18.9992C6.26522 18.9992 6.51957 18.8939 6.70711 18.7063C6.89464 18.5188 7 18.2644 7 17.9992C7 17.734 6.89464 17.4796 6.70711 17.2921C6.51957 17.1046 6.26522 16.9992 6 16.9992ZM9 16.9992C8.73478 16.9992 8.48043 17.1046 8.29289 17.2921C8.10536 17.4796 8 17.734 8 17.9992C8 18.2644 8.10536 18.5188 8.29289 18.7063C8.48043 18.8939 8.73478 18.9992 9 18.9992C9.26522 18.9992 9.51957 18.8939 9.70711 18.7063C9.89464 18.5188 10 18.2644 10 17.9992C10 17.734 9.89464 17.4796 9.70711 17.2921C9.51957 17.1046 9.26522 16.9992 9 16.9992ZM13 17.9992C13 17.734 12.8946 17.4796 12.7071 17.2921C12.5196 17.1046 12.2652 16.9992 12 16.9992C11.7348 16.9992 11.4804 17.1046 11.2929 17.2921C11.1054 17.4796 11 17.734 11 17.9992C11 18.2644 11.1054 18.5188 11.2929 18.7063C11.4804 18.8939 11.7348 18.9992 12 18.9992C12.2652 18.9992 12.5196 18.8939 12.7071 18.7063C12.8946 18.5188 13 18.2644 13 17.9992ZM15 16.9992C14.7348 16.9992 14.4804 17.1046 14.2929 17.2921C14.1054 17.4796 14 17.734 14 17.9992C14 18.2644 14.1054 18.5188 14.2929 18.7063C14.4804 18.8939 14.7348 18.9992 15 18.9992C15.2652 18.9992 15.5196 18.8939 15.7071 18.7063C15.8946 18.5188 16 18.2644 16 17.9992C16 17.734 15.8946 17.4796 15.7071 17.2921C15.5196 17.1046 15.2652 16.9992 15 16.9992ZM17 17.9992C17 18.2644 17.1054 18.5188 17.2929 18.7063C17.4804 18.8939 17.7348 18.9992 18 18.9992C18.2652 18.9992 18.5196 18.8939 18.7071 18.7063C18.8946 18.5188 19 18.2644 19 17.9992C19 17.734 18.8946 17.4796 18.7071 17.2921C18.5196 17.1046 18.2652 16.9992 18 16.9992C17.7348 16.9992 17.4804 17.1046 17.2929 17.2921C17.1054 17.4796 17 17.734 17 17.9992Z" fill="black"/>
</svg>
