<svg width="24" height="24" viewBox="0 0 24 24" fill="none" xmlns="http://www.w3.org/2000/svg">
<path d="M12 7.5C11.725 7.5 11.5 7.275 11.5 7V6.5C11.5 5.11875 12.6187 4 14 4H14.5C14.775 4 15 4.225 15 4.5V5C15 6.38125 13.8813 7.5 12.5 7.5H12ZM5 13C5 10.6156 6.11562 8 8.5 8C9.35312 8 10.3656 8.32188 11.0844 8.60313C11.6719 8.83125 12.3312 8.83125 12.9187 8.60313C13.6344 8.325 14.65 8 15.5031 8C17.8875 8 19.0031 10.6156 19.0031 13C19.0031 17 16.5031 20 14.0031 20C13.4875 20 12.8125 19.7938 12.3938 19.6469C12.1406 19.5594 11.8656 19.5594 11.6125 19.6469C11.1938 19.7938 10.5188 20 10.0031 20C7.5 20 5 17 5 13Z" fill="black"/>
</svg>
