<svg width="24" height="24" viewBox="0 0 24 24" fill="none" xmlns="http://www.w3.org/2000/svg">
<path d="M12 7C12 7.26522 11.8946 7.51957 11.7071 7.70711C11.5195 7.89464 11.2652 8 11 8C10.7348 8 10.4804 7.89464 10.2929 7.70711C10.1053 7.51957 9.99998 7.26522 9.99998 7C9.99998 6.73478 10.1053 6.48043 10.2929 6.29289C10.4804 6.10536 10.7348 6 11 6C11.2652 6 11.5195 6.10536 11.7071 6.29289C11.8946 6.48043 12 6.73478 12 7ZM12.6594 9.5C13.4687 8.9625 14 8.04375 14 7C14 5.34375 12.6562 4 11 4C9.34373 4 7.99998 5.34375 7.99998 7C7.99998 8.04375 8.53123 8.9625 9.3406 9.5H8.99998C8.44685 9.5 7.99998 9.94688 7.99998 10.5C7.99998 11.0531 8.44685 11.5 8.99998 11.5H9.99998V18H8.49998C6.84373 18 5.49998 16.6562 5.49998 15V14.8094L5.71873 15.0281C6.01248 15.3219 6.48748 15.3219 6.7781 15.0281C7.06873 14.7344 7.07185 14.2594 6.7781 13.9688L5.03123 12.2188C4.73748 11.925 4.26248 11.925 3.97185 12.2188L2.21873 13.9688C1.92498 14.2625 1.92498 14.7375 2.21873 15.0281C2.51248 15.3187 2.98748 15.3219 3.2781 15.0281L3.49685 14.8094V15C3.49685 17.7625 5.73435 20 8.49685 20H10.9969H13.4969C13.7469 20 13.9937 19.9812 14.2344 19.9469C14.0844 19.6656 13.9969 19.3438 13.9969 19V17.9594C13.8343 17.9875 13.6687 18 13.4969 18H12V11.5H13C13.5531 11.5 14 11.0531 14 10.5C14 9.94688 13.5531 9.5 13 9.5H12.6594ZM18.5 11.5C19.0531 11.5 19.5 11.9469 19.5 12.5V14H17.5V12.5C17.5 11.9469 17.9468 11.5 18.5 11.5ZM16 12.5V14C15.4468 14 15 14.4469 15 15V19C15 19.5531 15.4468 20 16 20H21C21.5531 20 22 19.5531 22 19V15C22 14.4469 21.5531 14 21 14V12.5C21 11.1188 19.8812 10 18.5 10C17.1187 10 16 11.1188 16 12.5Z" fill="black"/>
</svg>
