<svg width="24" height="24" viewBox="0 0 24 24" fill="none" xmlns="http://www.w3.org/2000/svg">
<path d="M13.7062 4.29374C13.3156 3.90312 12.6812 3.90312 12.2906 4.29374L9.29058 7.29374C8.89995 7.68437 8.89995 8.31874 9.29058 8.70937L14 13.4156V16C14 16.5531 14.4468 17 15 17C18.8656 17 22 13.8656 22 9.99999C22 9.44687 21.5531 8.99999 21 8.99999H18.4156L16.6656 7.24999L17.7093 6.20624C18.1 5.81562 18.1 5.18124 17.7093 4.79062L17.2093 4.29062C16.8187 3.89999 16.1843 3.89999 15.7937 4.29062L14.75 5.33437L13.7062 4.29374ZM16 13.875C17.4062 13.5125 18.5125 12.4062 18.875 11H19.9C19.5031 12.9594 17.9593 14.5031 16 14.9V13.875ZM9.62808 10.4562L2.2937 17.7937C1.90308 18.1844 1.90308 18.8187 2.2937 19.2094L2.7937 19.7094C3.18433 20.1 3.8187 20.1 4.20933 19.7094L11.5437 12.3719L9.62808 10.4562Z" fill="black"/>
</svg>
