<svg width="24" height="24" viewBox="0 0 24 24" fill="none" xmlns="http://www.w3.org/2000/svg">
<path d="M8.29395 15.7063C8.68457 16.0969 9.31895 16.0969 9.70957 15.7063C10.1002 15.3156 10.1002 14.6813 9.70957 14.2906L7.41582 12H17.0002C17.5533 12 18.0002 12.4469 18.0002 13V18C18.0002 18.5532 18.4471 19 19.0002 19C19.5533 19 20.0002 18.5532 20.0002 18V13C20.0002 11.3438 18.6564 10 17.0002 10H7.41582L9.70957 7.70627C10.1002 7.31565 10.1002 6.68127 9.70957 6.29065C9.31895 5.90002 8.68457 5.90002 8.29395 6.29065L4.29395 10.2906C3.90332 10.6813 3.90332 11.3156 4.29395 11.7063L8.29395 15.7063Z" fill="black"/>
</svg>
