<svg width="24" height="24" viewBox="0 0 24 24" fill="none" xmlns="http://www.w3.org/2000/svg">
<path d="M7.28437 10.3313C7.525 9.65 7.91562 9.00938 8.46562 8.4625C10.4187 6.50938 13.5844 6.50938 15.5375 8.4625L16.0719 9H15C14.4469 9 14 9.44688 14 10C14 10.5531 14.4469 11 15 11H18.4844H18.4969C19.05 11 19.4969 10.5531 19.4969 10V6.5C19.4969 5.94688 19.05 5.5 18.4969 5.5C17.9437 5.5 17.4969 5.94688 17.4969 6.5V7.6L16.95 7.05C14.2156 4.31563 9.78437 4.31563 7.05 7.05C6.2875 7.8125 5.7375 8.70938 5.4 9.66875C5.21562 10.1906 5.49063 10.7594 6.00938 10.9438C6.52813 11.1281 7.1 10.8531 7.28437 10.3344V10.3313ZM5.21875 13.0406C5.0625 13.0875 4.9125 13.1719 4.79062 13.2969C4.66562 13.4219 4.58125 13.5719 4.5375 13.7344C4.52813 13.7719 4.51875 13.8125 4.5125 13.8531C4.50312 13.9063 4.5 13.9594 4.5 14.0125V17.5C4.5 18.0531 4.94687 18.5 5.5 18.5C6.05313 18.5 6.5 18.0531 6.5 17.5V16.4031L7.05 16.95C9.78437 19.6813 14.2156 19.6813 16.9469 16.95C17.7094 16.1875 18.2625 15.2906 18.6 14.3344C18.7844 13.8125 18.5094 13.2438 17.9906 13.0594C17.4719 12.875 16.9 13.15 16.7156 13.6688C16.475 14.35 16.0844 14.9906 15.5344 15.5375C13.5813 17.4906 10.4156 17.4906 8.4625 15.5375L8.45937 15.5344L7.925 15H9C9.55313 15 10 14.5531 10 14C10 13.4469 9.55313 13 9 13H5.5125C5.4625 13 5.4125 13.0031 5.3625 13.0094C5.3125 13.0156 5.26562 13.025 5.21875 13.0406Z" fill="black"/>
</svg>
