<svg width="24" height="24" viewBox="0 0 24 24" fill="none" xmlns="http://www.w3.org/2000/svg">
<path d="M12.7063 4.2937C12.3156 3.90308 11.6813 3.90308 11.2906 4.2937L7.29063 8.2937C6.9 8.68433 6.9 9.3187 7.29063 9.70933C7.68125 10.1 8.31562 10.1 8.70625 9.70933L11 7.41558V14C11 14.5531 11.4469 15 12 15C12.5531 15 13 14.5531 13 14V7.41558L15.2937 9.70933C15.6844 10.1 16.3188 10.1 16.7094 9.70933C17.1 9.3187 17.1 8.68433 16.7094 8.2937L12.7094 4.2937H12.7063ZM7 15C7 14.4468 6.55313 14 6 14C5.44687 14 5 14.4468 5 15V17C5 18.6562 6.34375 20 8 20H16C17.6562 20 19 18.6562 19 17V15C19 14.4468 18.5531 14 18 14C17.4469 14 17 14.4468 17 15V17C17 17.5531 16.5531 18 16 18H8C7.44688 18 7 17.5531 7 17V15Z" fill="black"/>
</svg>
