<svg width="24" height="24" viewBox="0 0 24 24" fill="none" xmlns="http://www.w3.org/2000/svg">
<path d="M8.73764 5.325C8.54701 5.11875 8.28139 5 8.00014 5C7.71889 5 7.45326 5.11875 7.26264 5.325L4.51264 8.325C4.14076 8.73125 4.16576 9.36563 4.57514 9.7375C4.98451 10.1094 5.61576 10.0844 5.98764 9.675L7.00014 8.57188V18C7.00014 18.5531 7.44701 19 8.00014 19C8.55326 19 9.00014 18.5531 9.00014 18V8.57188L10.0126 9.67812C10.3845 10.0844 11.0189 10.1125 11.4251 9.74062C11.8314 9.36875 11.8595 8.73438 11.4876 8.32812L8.73764 5.32812V5.325ZM13.0001 6.5V9.5C13.0001 10.3281 13.672 11 14.5001 11H17.5001C18.3283 11 19.0001 10.3281 19.0001 9.5V6.5C19.0001 5.67188 18.3283 5 17.5001 5H14.5001C13.672 5 13.0001 5.67188 13.0001 6.5ZM16.847 13.4688C16.6658 13.175 16.3439 13 16.0001 13C15.6564 13 15.3345 13.1781 15.1533 13.4688L12.6533 17.4688C12.4595 17.7781 12.4501 18.1656 12.6251 18.4844C12.8001 18.8031 13.1376 19 13.5001 19H18.5001C18.8626 19 19.197 18.8031 19.3751 18.4844C19.5533 18.1656 19.5408 17.7781 19.347 17.4688L16.847 13.4688Z" fill="black"/>
</svg>
