<svg width="24" height="24" viewBox="0 0 24 24" fill="none" xmlns="http://www.w3.org/2000/svg">
<path d="M12.7063 4.29297C12.3156 3.90234 11.6813 3.90234 11.2906 4.29297L8.29063 7.29297C7.9 7.68359 7.9 8.31797 8.29063 8.70859C8.68125 9.09922 9.31563 9.09922 9.70625 8.70859L11 7.41484V13.9992C11 14.5523 11.4469 14.9992 12 14.9992C12.5531 14.9992 13 14.5523 13 13.9992V7.41484L14.2937 8.70859C14.6844 9.09922 15.3188 9.09922 15.7094 8.70859C16.1 8.31797 16.1 7.68359 15.7094 7.29297L12.7094 4.29297H12.7063ZM6 7.49922C6 7.22422 6.225 6.99922 6.5 6.99922H6.75C7.30312 6.99922 7.75 6.55234 7.75 5.99922C7.75 5.44609 7.30312 4.99922 6.75 4.99922H6.5C5.11875 4.99922 4 6.11797 4 7.49922V17.4992C4 18.8805 5.11875 19.9992 6.5 19.9992H17.5C18.8813 19.9992 20 18.8805 20 17.4992V7.49922C20 6.11797 18.8813 4.99922 17.5 4.99922H17.25C16.6969 4.99922 16.25 5.44609 16.25 5.99922C16.25 6.55234 16.6969 6.99922 17.25 6.99922H17.5C17.775 6.99922 18 7.22422 18 7.49922V17.4992C18 17.7742 17.775 17.9992 17.5 17.9992H6.5C6.225 17.9992 6 17.7742 6 17.4992V7.49922Z" fill="black"/>
</svg>
