<svg width="24" height="24" viewBox="0 0 24 24" fill="none" xmlns="http://www.w3.org/2000/svg">
<path d="M4.04994 10.6844C3.87494 11.2094 4.15932 11.775 4.68119 11.95C5.20307 12.125 5.77182 11.8406 5.94682 11.3187C6.40932 9.93437 7.70307 9 9.16244 9H14.5843L13.2906 10.2937C12.8999 10.6844 12.8999 11.3187 13.2906 11.7094C13.6812 12.1 14.3156 12.1 14.7062 11.7094L17.7062 8.70937C18.0968 8.31875 18.0968 7.68437 17.7062 7.29375L14.7062 4.29375C14.3156 3.90312 13.6812 3.90312 13.2906 4.29375C12.8999 4.68437 12.8999 5.31875 13.2906 5.70937L14.5843 7H9.16244C6.84369 7 4.78432 8.48437 4.04994 10.6844ZM19.9468 13.3156C20.1218 12.7906 19.8374 12.225 19.3156 12.05C18.7937 11.875 18.2249 12.1594 18.0499 12.6812C17.5906 14.0656 16.2968 15 14.8374 15H9.41557L10.7093 13.7062C11.0999 13.3156 11.0999 12.6812 10.7093 12.2906C10.3187 11.9 9.68432 11.9 9.29369 12.2906L6.29369 15.2906C5.90307 15.6812 5.90307 16.3156 6.29369 16.7062L9.29369 19.7062C9.68432 20.0969 10.3187 20.0969 10.7093 19.7062C11.0999 19.3156 11.0999 18.6812 10.7093 18.2906L9.41557 17H14.8374C17.1562 17 19.2156 15.5156 19.9499 13.3156H19.9468Z" fill="black"/>
</svg>
