<svg width="24" height="24" viewBox="0 0 24 24" fill="none" xmlns="http://www.w3.org/2000/svg">
<path d="M6.70615 6.2937C6.31553 5.90308 5.68115 5.90308 5.29053 6.2937L2.29053 9.2937C1.8999 9.68433 1.8999 10.3187 2.29053 10.7093C2.68115 11.1 3.31553 11.1 3.70615 10.7093L4.9999 9.41558V14C4.9999 15.6562 6.34365 17 7.9999 17H11.4999C12.053 17 12.4999 16.5531 12.4999 16C12.4999 15.4468 12.053 15 11.4999 15H7.9999C7.44678 15 6.9999 14.5531 6.9999 14V9.41558L8.29365 10.7093C8.68428 11.1 9.31865 11.1 9.70928 10.7093C10.0999 10.3187 10.0999 9.68433 9.70928 9.2937L6.70928 6.2937H6.70615ZM12.4999 6.99995C11.9468 6.99995 11.4999 7.44683 11.4999 7.99995C11.4999 8.55308 11.9468 8.99995 12.4999 8.99995H15.9999C16.553 8.99995 16.9999 9.44683 16.9999 9.99995V14.5843L15.7062 13.2906C15.3155 12.9 14.6812 12.9 14.2905 13.2906C13.8999 13.6812 13.8999 14.3156 14.2905 14.7062L17.2905 17.7062C17.6812 18.0968 18.3155 18.0968 18.7062 17.7062L21.7062 14.7062C22.0968 14.3156 22.0968 13.6812 21.7062 13.2906C21.3155 12.9 20.6812 12.9 20.2905 13.2906L18.9999 14.5843V9.99995C18.9999 8.3437 17.6562 6.99995 15.9999 6.99995H12.4999Z" fill="black"/>
</svg>
