<svg width="24" height="24" viewBox="0 0 24 24" fill="none" xmlns="http://www.w3.org/2000/svg">
<path d="M10 8C10 6.89688 10.8969 6 12 6C13.1031 6 14 6.89688 14 8C14 9.3 13.3531 10.3938 12.5437 11.2531C12.3594 11.4469 12.175 11.6219 12 11.775C11.825 11.6219 11.6406 11.4469 11.4563 11.2531C10.6469 10.3938 10 9.3 10 8ZM12 4C9.79063 4 8 5.79063 8 8C8 9.6375 8.67188 10.9844 9.4625 12H8C7.44687 12 7 12.4469 7 13C7 13.5531 7.44687 14 8 14H11V19C11 19.5531 11.4469 20 12 20C12.5531 20 13 19.5531 13 19V14H16C16.5531 14 17 13.5531 17 13C17 12.4469 16.5531 12 16 12H14.5375C15.3312 10.9844 16 9.6375 16 8C16 5.79063 14.2094 4 12 4Z" fill="black"/>
</svg>
