<svg width="24" height="24" viewBox="0 0 24 24" fill="none" xmlns="http://www.w3.org/2000/svg">
<path d="M12.0001 7.5C11.7251 7.5 11.5001 7.275 11.5001 7V6.5C11.5001 5.11875 12.6189 4 14.0001 4H14.5001C14.7751 4 15.0001 4.225 15.0001 4.5V5C15.0001 6.38125 13.8814 7.5 12.5001 7.5H12.0001ZM6.95324 9.21875C6.70324 9.01562 6.66262 8.63437 6.93137 8.45937C7.37199 8.16875 7.89699 8 8.50012 8C9.35324 8 10.3657 8.32188 11.0845 8.60313C11.672 8.83125 12.3314 8.83125 12.9189 8.60313C13.6345 8.325 14.6501 8 15.5032 8C16.1064 8 16.6314 8.16875 17.0751 8.45937C17.3439 8.63437 17.3032 9.01875 17.0532 9.21875C15.8032 10.2281 15.0064 11.7719 15.0064 13.5C15.0064 15.2 15.7782 16.7187 16.9876 17.7281C17.2064 17.9125 17.2626 18.2375 17.072 18.45C16.1814 19.4281 15.0907 20 14.0001 20C13.4845 20 12.8095 19.7938 12.3907 19.6469C12.1376 19.5594 11.8626 19.5594 11.6095 19.6469C11.1907 19.7938 10.5157 20 10.0001 20C8.90949 20 7.81887 19.4281 6.93449 18.45C6.74074 18.2375 6.79699 17.9094 7.01887 17.7281C8.22824 16.7187 9.00012 15.2 9.00012 13.5C9.00012 11.7687 8.20012 10.2281 6.95324 9.21875Z" fill="black"/>
</svg>
