<svg width="24" height="24" viewBox="0 0 24 24" fill="none" xmlns="http://www.w3.org/2000/svg">
<path d="M18.3562 11.9781C17.778 12.4531 17.3093 13.0906 17.1655 13.825C16.8468 15.4469 16.103 17.0906 15.0937 18.0969C12.5562 20.6344 8.44053 20.6344 5.8999 18.0969C3.35928 15.5594 3.3624 11.4437 5.8999 8.90312C6.90928 7.89375 8.55303 7.15 10.1718 6.83125C10.9062 6.6875 11.5437 6.21875 12.0187 5.64062C12.8468 4.64062 14.0999 4 15.4999 4C17.9843 4 19.9999 6.01562 19.9999 8.5C19.9999 9.9 19.3593 11.1531 18.3562 11.9781ZM12.8499 14.85C14.153 13.5469 14.3843 11.6594 13.3624 10.6375C12.3405 9.61562 10.4562 9.84688 9.1499 11.15C7.84365 12.4531 7.61553 14.3406 8.6374 15.3625C9.65928 16.3844 11.5437 16.1531 12.8499 14.85Z" fill="black"/>
</svg>
