<svg width="24" height="24" viewBox="0 0 24 24" fill="none" xmlns="http://www.w3.org/2000/svg">
<path d="M3.21255 4.15943C2.88755 3.90318 2.41568 3.96255 2.15943 4.28755C1.90318 4.61255 1.96255 5.08443 2.28755 5.34068L20.7876 19.8407C21.1126 20.0969 21.5844 20.0376 21.8407 19.7126C22.0969 19.3876 22.0376 18.9157 21.7126 18.6594L20.7751 17.9251C20.9188 17.6501 21.0001 17.3344 21.0001 17.0001V7.00005C21.0001 5.89693 20.1032 5.00005 19.0001 5.00005H5.00005C4.79068 5.00005 4.59068 5.0313 4.40005 5.09068L3.21255 4.15943ZM12.5001 11.4376V9.75005C12.5001 9.33443 12.8344 9.00005 13.2501 9.00005H15.0001C16.6563 9.00005 18.0001 10.3438 18.0001 12.0001C18.0001 13.1032 17.4063 14.0657 16.5188 14.5876L15.1251 13.4938C15.8969 13.4313 16.5032 12.7844 16.5032 12.0001C16.5032 11.1719 15.8313 10.5001 15.0032 10.5001H14.0001V12.6157L12.5001 11.4376ZM17.2313 19.0001L11.8219 14.7376C11.7594 14.8126 11.6782 14.8751 11.5876 14.9219C11.2157 15.1063 10.7657 14.9563 10.5813 14.5876L10.2876 13.9969H7.71568L7.42193 14.5876C7.23755 14.9594 6.78755 15.1094 6.41568 14.9219C6.0438 14.7344 5.8938 14.2876 6.0813 13.9157L7.40943 11.2594L3.00005 7.78755V17.0001C3.00005 18.1032 3.89693 19.0001 5.00005 19.0001H17.2313ZM9.2938 12.7438L8.61255 12.2063L8.3438 12.7438H9.2938Z" fill="black"/>
</svg>
