<svg width="24" height="24" viewBox="0 0 24 24" fill="none" xmlns="http://www.w3.org/2000/svg">
<path d="M12.7062 4.29375C12.3156 3.90312 11.6812 3.90312 11.2906 4.29375L8.29062 7.29375C7.89999 7.68437 7.89999 8.31875 8.29062 8.70937C8.68124 9.1 9.31562 9.1 9.70624 8.70937L11 7.41562V16.5844L9.70624 15.2937C9.31562 14.9031 8.68124 14.9031 8.29062 15.2937C7.89999 15.6844 7.89999 16.3187 8.29062 16.7094L11.2906 19.7094C11.6812 20.1 12.3156 20.1 12.7062 19.7094L15.7062 16.7094C16.0969 16.3187 16.0969 15.6844 15.7062 15.2937C15.3156 14.9031 14.6812 14.9031 14.2906 15.2937L13 16.5844V7.41562L14.2937 8.70937C14.6844 9.1 15.3187 9.1 15.7094 8.70937C16.1 8.31875 16.1 7.68437 15.7094 7.29375L12.7094 4.29375H12.7062Z" fill="black"/>
</svg>
