<svg width="24" height="24" viewBox="0 0 24 24" fill="none" xmlns="http://www.w3.org/2000/svg">
<path d="M12.7063 4.29375C12.3156 3.90312 11.6813 3.90312 11.2906 4.29375L9.29063 6.29375C9.00313 6.58125 8.91875 7.00937 9.075 7.38437C9.23125 7.75937 9.59375 8.00312 10 8.00312H11V9.00312C11 9.55625 11.4469 10.0031 12 10.0031C12.5531 10.0031 13 9.55625 13 9.00312V8H14C14.4031 8 14.7688 7.75625 14.925 7.38125C15.0813 7.00625 14.9938 6.57812 14.7094 6.29062L12.7094 4.29062L12.7063 4.29375ZM11 15V16H10C9.59688 16 9.23125 16.2437 9.075 16.6187C8.91875 16.9937 9.00625 17.4219 9.29063 17.7094L11.2906 19.7094C11.6813 20.1 12.3156 20.1 12.7063 19.7094L14.7063 17.7094C14.9938 17.4219 15.0781 16.9937 14.9219 16.6187C14.7656 16.2437 14.4031 16 13.9969 16H13V15C13 14.4469 12.5531 14 12 14C11.4469 14 11 14.4469 11 15ZM6 11C5.44687 11 5 11.4469 5 12C5 12.5531 5.44687 13 6 13H18C18.5531 13 19 12.5531 19 12C19 11.4469 18.5531 11 18 11H6Z" fill="black"/>
</svg>
