<svg width="24" height="24" viewBox="0 0 24 24" fill="none" xmlns="http://www.w3.org/2000/svg">
<path d="M16.0719 9.00078H14.5C13.9469 9.00078 13.5 9.44766 13.5 10.0008C13.5 10.5539 13.9469 11.0008 14.5 11.0008H18.5C19.0532 11.0008 19.5 10.5539 19.5 10.0008V6.00078C19.5 5.44766 19.0532 5.00078 18.5 5.00078C17.9469 5.00078 17.5 5.44766 17.5 6.00078V7.60078L16.95 7.05078C14.2157 4.31641 9.78442 4.31641 7.05005 7.05078C4.31567 9.78516 4.31567 14.2164 7.05005 16.9508C9.78442 19.6852 14.2157 19.6852 16.95 16.9508C17.3407 16.5602 17.3407 15.9258 16.95 15.5352C16.5594 15.1445 15.925 15.1445 15.5344 15.5352C13.5813 17.4883 10.4157 17.4883 8.46255 15.5352C6.50942 13.582 6.50942 10.4164 8.46255 8.46328C10.4157 6.51016 13.5813 6.51016 15.5344 8.46328L16.0719 9.00078Z" fill="black"/>
</svg>
