<svg width="24" height="24" viewBox="0 0 24 24" fill="none" xmlns="http://www.w3.org/2000/svg">
<path d="M16.7062 8.29377C17.0968 8.6844 17.0968 9.31877 16.7062 9.7094C16.3155 10.1 15.6812 10.1 15.2905 9.7094L12.9999 7.41565V17C12.9999 17.5532 13.4468 18 13.9999 18H16.9999C17.553 18 17.9999 18.4469 17.9999 19C17.9999 19.5532 17.553 20 16.9999 20H13.9999C12.3437 20 10.9999 18.6563 10.9999 17V7.41565L8.70615 9.70627C8.31553 10.0969 7.68115 10.0969 7.29053 9.70627C6.8999 9.31565 6.8999 8.68127 7.29053 8.29065L11.2905 4.29065C11.6812 3.90002 12.3155 3.90002 12.7062 4.29065L16.7062 8.29065V8.29377Z" fill="black"/>
</svg>
