<svg width="24" height="24" viewBox="0 0 24 24" fill="none" xmlns="http://www.w3.org/2000/svg">
<path d="M7.92812 9.00005H9.5C10.0531 9.00005 10.5 9.44692 10.5 10C10.5 10.5532 10.0531 11 9.5 11H5.5C4.94687 11 4.5 10.5532 4.5 10V6.00005C4.5 5.44692 4.94687 5.00005 5.5 5.00005C6.05313 5.00005 6.5 5.44692 6.5 6.00005V7.60005L7.05 7.05005C9.78438 4.31567 14.2156 4.31567 16.95 7.05005C19.6844 9.78442 19.6844 14.2157 16.95 16.95C14.2156 19.6844 9.78438 19.6844 7.05 16.95C6.65937 16.5594 6.65937 15.925 7.05 15.5344C7.44062 15.1438 8.075 15.1438 8.46562 15.5344C10.4187 17.4875 13.5844 17.4875 15.5375 15.5344C17.4906 13.5813 17.4906 10.4157 15.5375 8.46255C13.5844 6.50942 10.4187 6.50942 8.46562 8.46255L7.92812 9.00005Z" fill="black"/>
</svg>
