<svg width="24" height="24" viewBox="0 0 24 24" fill="none" xmlns="http://www.w3.org/2000/svg">
<path d="M8.70615 5.29375C8.31553 4.90313 7.68115 4.90313 7.29053 5.29375L4.29053 8.29375C3.8999 8.68437 3.8999 9.31875 4.29053 9.70937C4.68115 10.1 5.31553 10.1 5.70615 9.70937L6.9999 8.41563V18C6.9999 18.5531 7.44678 19 7.9999 19C8.55303 19 8.9999 18.5531 8.9999 18V8.41563L10.2937 9.70937C10.6843 10.1 11.3187 10.1 11.7093 9.70937C12.0999 9.31875 12.0999 8.68437 11.7093 8.29375L8.70928 5.29375H8.70615ZM19.7062 15.7094C20.0968 15.3188 20.0968 14.6844 19.7062 14.2937C19.3155 13.9031 18.6812 13.9031 18.2905 14.2937L16.9999 15.5844V6C16.9999 5.44687 16.553 5 15.9999 5C15.4468 5 14.9999 5.44687 14.9999 6V15.5844L13.7062 14.2906C13.3155 13.9 12.6812 13.9 12.2905 14.2906C11.8999 14.6812 11.8999 15.3156 12.2905 15.7063L15.2905 18.7063C15.6812 19.0969 16.3155 19.0969 16.7062 18.7063L19.7062 15.7063V15.7094Z" fill="black"/>
</svg>
