<svg width="24" height="24" viewBox="0 0 24 24" fill="none" xmlns="http://www.w3.org/2000/svg">
<path d="M12.7063 4.2937C12.3156 3.90308 11.6813 3.90308 11.2906 4.2937L9.29063 6.2937C9.00313 6.5812 8.91875 7.00933 9.075 7.38433C9.23125 7.75933 9.59375 8.00308 10 8.00308H11V9.00308C11 9.5562 11.4469 10.0031 12 10.0031C12.5531 10.0031 13 9.5562 13 9.00308V7.99995H14C14.4031 7.99995 14.7688 7.7562 14.925 7.3812C15.0813 7.0062 14.9938 6.57808 14.7094 6.29058L12.7094 4.29058L12.7063 4.2937ZM11 15V16H10C9.59688 16 9.23125 16.2437 9.075 16.6187C8.91875 16.9937 9.00625 17.4218 9.29063 17.7093L11.2906 19.7093C11.6813 20.1 12.3156 20.1 12.7063 19.7093L14.7063 17.7093C14.9938 17.4218 15.0781 16.9937 14.9219 16.6187C14.7656 16.2437 14.4031 16 13.9969 16H13V15C13 14.4468 12.5531 14 12 14C11.4469 14 11 14.4468 11 15ZM6 11C5.44687 11 5 11.4468 5 12C5 12.5531 5.44687 13 6 13H18C18.5531 13 19 12.5531 19 12C19 11.4468 18.5531 11 18 11H6Z" fill="black"/>
</svg>
