<svg width="24" height="24" viewBox="0 0 24 24" fill="none" xmlns="http://www.w3.org/2000/svg">
<path d="M8.00001 5C8.28126 5 8.54689 5.11875 8.73751 5.325L11.4875 8.325C11.8594 8.73125 11.8344 9.36563 11.425 9.7375C11.0156 10.1094 10.3844 10.0844 10.0125 9.675L9.00001 8.57188V18C9.00001 18.5531 8.55314 19 8.00001 19C7.44689 19 7.00001 18.5531 7.00001 18V8.57188L5.98751 9.675C5.61564 10.0813 4.98126 10.1094 4.57501 9.7375C4.16876 9.36563 4.14064 8.73125 4.51251 8.325L7.26251 5.325C7.45314 5.11875 7.71876 5 8.00001 5ZM13 6.5C13 5.67188 13.6719 5 14.5 5H16.5C17.3281 5 18 5.67188 18 6.5V8.5C18 9.32812 17.3281 10 16.5 10H14.5C13.6719 10 13 9.32812 13 8.5V6.5ZM14.5 12H18.5C19.3281 12 20 12.6719 20 13.5V17.5C20 18.3281 19.3281 19 18.5 19H14.5C13.6719 19 13 18.3281 13 17.5V13.5C13 12.6719 13.6719 12 14.5 12Z" fill="black"/>
</svg>
