<svg width="24" height="24" viewBox="0 0 24 24" fill="none" xmlns="http://www.w3.org/2000/svg">
<path d="M12.0001 7C12.0001 7.26522 11.8947 7.51957 11.7072 7.70711C11.5197 7.89464 11.2653 8 11.0001 8C10.7349 8 10.4805 7.89464 10.293 7.70711C10.1055 7.51957 10.0001 7.26522 10.0001 7C10.0001 6.73478 10.1055 6.48043 10.293 6.29289C10.4805 6.10536 10.7349 6 11.0001 6C11.2653 6 11.5197 6.10536 11.7072 6.29289C11.8947 6.48043 12.0001 6.73478 12.0001 7ZM12.6595 9.5C13.4688 8.9625 14.0001 8.04375 14.0001 7C14.0001 5.34375 12.6563 4 11.0001 4C9.34385 4 8.0001 5.34375 8.0001 7C8.0001 8.04375 8.53135 8.9625 9.34072 9.5H9.0001C8.44697 9.5 8.0001 9.94688 8.0001 10.5C8.0001 11.0531 8.44697 11.5 9.0001 11.5H10.0001V18H8.5001C6.84385 18 5.5001 16.6562 5.5001 15V14.8094L5.71885 15.0281C6.0126 15.3219 6.4876 15.3219 6.77822 15.0281C7.06885 14.7344 7.07197 14.2594 6.77822 13.9688L5.03135 12.2188C4.7376 11.925 4.2626 11.925 3.97197 12.2188L2.21885 13.9688C1.9251 14.2625 1.9251 14.7375 2.21885 15.0281C2.5126 15.3187 2.9876 15.3219 3.27822 15.0281L3.49697 14.8094V15C3.49697 17.7625 5.73447 20 8.49697 20H10.997H13.497C13.7532 20 14.0063 19.9813 14.2532 19.9438C13.5595 19.4375 12.9907 18.7719 12.597 18H12.0001V15.5V11.5H13.0001C13.5532 11.5 14.0001 11.0531 14.0001 10.5C14.0001 9.94688 13.5532 9.5 13.0001 9.5H12.6595ZM17.5001 20C18.6936 20 19.8382 19.5259 20.6821 18.682C21.526 17.8381 22.0001 16.6935 22.0001 15.5C22.0001 14.3065 21.526 13.1619 20.6821 12.318C19.8382 11.4741 18.6936 11 17.5001 11C16.3066 11 15.162 11.4741 14.3181 12.318C13.4742 13.1619 13.0001 14.3065 13.0001 15.5C13.0001 16.6935 13.4742 17.8381 14.3181 18.682C15.162 19.5259 16.3066 20 17.5001 20ZM17.5001 17C17.699 17 17.8898 17.079 18.0304 17.2197C18.1711 17.3603 18.2501 17.5511 18.2501 17.75C18.2501 17.9489 18.1711 18.1397 18.0304 18.2803C17.8898 18.421 17.699 18.5 17.5001 18.5C17.3012 18.5 17.1104 18.421 16.9698 18.2803C16.8291 18.1397 16.7501 17.9489 16.7501 17.75C16.7501 17.5511 16.8291 17.3603 16.9698 17.2197C17.1104 17.079 17.3012 17 17.5001 17ZM17.5001 12.5C17.7751 12.5 18.0001 12.725 18.0001 13V15.5C18.0001 15.775 17.7751 16 17.5001 16C17.2251 16 17.0001 15.775 17.0001 15.5V13C17.0001 12.725 17.2251 12.5 17.5001 12.5Z" fill="black"/>
</svg>
