<svg width="24" height="24" viewBox="0 0 24 24" fill="none" xmlns="http://www.w3.org/2000/svg">
<path d="M7.15332 16.8468C7.11269 16.8062 6.76582 16.3218 7.25644 14.8468C7.36582 14.5218 7.50644 14.1781 7.68144 13.8187C8.04394 14.2624 8.44082 14.7031 8.86894 15.1281C9.29707 15.5531 9.73457 15.9531 10.1783 16.3156C9.82207 16.4906 9.47832 16.6343 9.15332 16.7406C7.67832 17.2312 7.19394 16.8843 7.15332 16.8437V16.8468ZM8.80332 11.9999C9.22519 11.4281 9.71894 10.8499 10.2846 10.2843C10.8502 9.7187 11.4283 9.22495 12.0002 8.80307C12.5721 9.22495 13.1502 9.7187 13.7158 10.2843C14.2814 10.8499 14.7752 11.4281 15.1971 11.9999C14.7752 12.5718 14.2814 13.1499 13.7158 13.7156C13.1502 14.2812 12.5721 14.7749 12.0002 15.1968C11.4283 14.7749 10.8502 14.2812 10.2846 13.7156C9.71894 13.1499 9.22519 12.5718 8.80332 11.9999ZM10.1814 7.68432C9.73769 8.04682 9.29707 8.4437 8.87207 8.87182C8.44707 9.29995 8.04707 9.73745 7.68457 10.1812C7.50957 9.82495 7.36582 9.4812 7.25957 9.1562C6.76894 7.6812 7.11582 7.19682 7.15644 7.1562C7.19707 7.11557 7.68144 6.7687 9.15644 7.25932C9.48144 7.3687 9.82519 7.50932 10.1814 7.68432ZM12.0002 6.39995C9.43457 4.86245 6.96582 4.51557 5.74082 5.74057C4.51582 6.96557 4.86269 9.43432 6.40019 11.9999C4.86269 14.5656 4.51582 17.0343 5.74082 18.2593C6.96582 19.4843 9.43457 19.1374 12.0002 17.5999C14.5658 19.1374 17.0346 19.4843 18.2596 18.2593C19.4846 17.0343 19.1377 14.5656 17.6002 11.9999C19.1377 9.43432 19.4846 6.96557 18.2596 5.74057C17.0346 4.51557 14.5658 4.86245 12.0002 6.39995ZM13.8189 7.68432C14.1752 7.50932 14.5189 7.36557 14.8471 7.25932C16.3221 6.7687 16.8064 7.11557 16.8471 7.1562C16.8877 7.19682 17.2346 7.6812 16.7439 9.1562C16.6346 9.4812 16.4939 9.82495 16.3189 10.1812C15.9564 9.73745 15.5596 9.29682 15.1314 8.87182C14.7033 8.44682 14.2658 8.04682 13.8221 7.68432H13.8189ZM16.3158 13.8187C16.4908 14.1749 16.6346 14.5187 16.7408 14.8468C17.2314 16.3218 16.8846 16.8062 16.8439 16.8468C16.8033 16.8874 16.3189 17.2343 14.8439 16.7437C14.5189 16.6343 14.1752 16.4937 13.8158 16.3187C14.2596 15.9562 14.7002 15.5593 15.1252 15.1312C15.5502 14.7031 15.9502 14.2656 16.3127 13.8218L16.3158 13.8187ZM13.0002 11.9999C13.0002 11.7347 12.8948 11.4804 12.7073 11.2928C12.5198 11.1053 12.2654 10.9999 12.0002 10.9999C11.735 10.9999 11.4806 11.1053 11.2931 11.2928C11.1055 11.4804 11.0002 11.7347 11.0002 11.9999C11.0002 12.2652 11.1055 12.5195 11.2931 12.7071C11.4806 12.8946 11.735 12.9999 12.0002 12.9999C12.2654 12.9999 12.5198 12.8946 12.7073 12.7071C12.8948 12.5195 13.0002 12.2652 13.0002 11.9999Z" fill="black"/>
</svg>
