<svg width="24" height="24" viewBox="0 0 24 24" fill="none" xmlns="http://www.w3.org/2000/svg">
<path d="M19 6C19 6.55313 18.5531 7 18 7H11C10.4469 7 10 6.55313 10 6C10 5.44687 10.4469 5 11 5H18C18.5531 5 19 5.44687 19 6ZM19 14C19 14.5531 18.5531 15 18 15H11C10.4469 15 10 14.5531 10 14C10 13.4469 10.4469 13 11 13H18C18.5531 13 19 13.4469 19 14ZM5 10C5 9.44688 5.44687 9 6 9H18C18.5531 9 19 9.44688 19 10C19 10.5531 18.5531 11 18 11H6C5.44687 11 5 10.5531 5 10ZM19 18C19 18.5531 18.5531 19 18 19H6C5.44687 19 5 18.5531 5 18C5 17.4469 5.44687 17 6 17H18C18.5531 17 19 17.4469 19 18Z" fill="black"/>
</svg>
