<svg width="24" height="24" viewBox="0 0 24 24" fill="none" xmlns="http://www.w3.org/2000/svg">
<path d="M16.7063 10.7063L12.7063 14.7063C12.3156 15.0969 11.6813 15.0969 11.2906 14.7063L7.29063 10.7063C6.9 10.3156 6.9 9.68125 7.29063 9.29063C7.68125 8.9 8.31562 8.9 8.70625 9.29063L11 11.5844V5C11 4.44687 11.4469 4 12 4C12.5531 4 13 4.44687 13 5V11.5844L15.2937 9.29063C15.6844 8.9 16.3188 8.9 16.7094 9.29063C17.1 9.68125 17.1 10.3156 16.7094 10.7063H16.7063ZM7 15V17C7 17.5531 7.44688 18 8 18H16C16.5531 18 17 17.5531 17 17V15C17 14.4469 17.4469 14 18 14C18.5531 14 19 14.4469 19 15V17C19 18.6562 17.6562 20 16 20H8C6.34375 20 5 18.6562 5 17V15C5 14.4469 5.44687 14 6 14C6.55313 14 7 14.4469 7 15Z" fill="black"/>
</svg>
