<svg width="24" height="24" viewBox="0 0 24 24" fill="none" xmlns="http://www.w3.org/2000/svg">
<path d="M11.7062 8.70627C11.3156 9.0969 10.6812 9.0969 10.2906 8.70627C9.89995 8.31565 9.89995 7.68127 10.2906 7.29065L13.2906 4.29065C13.6812 3.90002 14.3156 3.90002 14.7062 4.29065L17.7062 7.29065C18.0968 7.68127 18.0968 8.31565 17.7062 8.70627C17.3156 9.0969 16.6812 9.0969 16.2906 8.70627L15 7.41565V16C15 17.1031 15.8968 18 17 18H19C19.5531 18 20 18.4469 20 19C20 19.5532 19.5531 20 19 20H17C14.7906 20 13 18.2094 13 16C13 14.8969 12.1031 14 11 14H7.41558L8.70933 15.2938C9.09995 15.6844 9.09995 16.3188 8.70933 16.7094C8.3187 17.1 7.68433 17.1 7.2937 16.7094L4.2937 13.7094C3.90308 13.3188 3.90308 12.6844 4.2937 12.2938L7.2937 9.29377C7.68433 8.90315 8.3187 8.90315 8.70933 9.29377C9.09995 9.6844 9.09995 10.3188 8.70933 10.7094L7.41558 12H11C11.7281 12 12.4125 12.1938 13 12.5344V7.41565L11.7062 8.7094V8.70627Z" fill="black"/>
</svg>
