<svg width="24" height="24" viewBox="0 0 24 24" fill="none" xmlns="http://www.w3.org/2000/svg">
<path d="M12.7063 5.29376C12.3156 4.90314 11.6813 4.90314 11.2906 5.29376L6.29065 10.2938C5.90002 10.6844 5.90002 11.3188 6.29065 11.7094C6.68127 12.1 7.31565 12.1 7.70627 11.7094L12 7.41564L16.2938 11.7063C16.6844 12.0969 17.3188 12.0969 17.7094 11.7063C18.1 11.3156 18.1 10.6813 17.7094 10.2906L12.7094 5.29064L12.7063 5.29376ZM17.7063 16.2938L12.7063 11.2938C12.3156 10.9031 11.6813 10.9031 11.2906 11.2938L6.29065 16.2938C5.90002 16.6844 5.90002 17.3188 6.29065 17.7094C6.68127 18.1 7.31565 18.1 7.70627 17.7094L12 13.4156L16.2938 17.7063C16.6844 18.0969 17.3188 18.0969 17.7094 17.7063C18.1 17.3156 18.1 16.6813 17.7094 16.2906L17.7063 16.2938Z" fill="black"/>
</svg>
