<svg width="24" height="24" viewBox="0 0 24 24" fill="none" xmlns="http://www.w3.org/2000/svg">
<path d="M4.2937 12.7063C3.90308 12.3156 3.90308 11.6813 4.2937 11.2906L8.2937 7.29063C8.68433 6.9 9.3187 6.9 9.70933 7.29063C10.1 7.68125 10.1 8.31563 9.70933 8.70625L7.41558 11H14C14.5531 11 15 11.4469 15 12C15 12.5531 14.5531 13 14 13H7.41558L9.70933 15.2937C10.1 15.6844 10.1 16.3188 9.70933 16.7094C9.3187 17.1 8.68433 17.1 8.2937 16.7094L4.2937 12.7094V12.7063ZM15 7C14.4468 7 14 6.55313 14 6C14 5.44687 14.4468 5 15 5H17C18.6562 5 20 6.34375 20 8V16C20 17.6562 18.6562 19 17 19H15C14.4468 19 14 18.5531 14 18C14 17.4469 14.4468 17 15 17H17C17.5531 17 18 16.5531 18 16V8C18 7.44687 17.5531 7 17 7H15Z" fill="black"/>
</svg>
