<svg width="24" height="24" viewBox="0 0 24 24" fill="none" xmlns="http://www.w3.org/2000/svg">
<path d="M5 4C3.89688 4 3 4.89688 3 6V9C3 10.1031 3.89688 11 5 11H19C20.1031 11 21 10.1031 21 9V6C21 4.89688 20.1031 4 19 4H5ZM5.5 8H18.5C18.775 8 19 8.225 19 8.5C19 8.775 18.775 9 18.5 9H5.5C5.225 9 5 8.775 5 8.5C5 8.225 5.225 8 5.5 8ZM11 12H9V17C9 17.5531 8.55313 18 8 18C7.44687 18 7 17.5531 7 17C7 16.6312 7.2 16.3062 7.5 16.1344C7.97813 15.8562 8.14062 15.2469 7.86562 14.7688C7.59062 14.2906 6.97813 14.1281 6.5 14.4031C5.60625 14.9187 5 15.8875 5 17C5 18.6562 6.34375 20 8 20C9.65625 20 11 18.6562 11 17V12ZM13 16C13 17.6562 14.3438 19 16 19C17.6562 19 19 17.6562 19 16C19 14.8875 18.3938 13.9187 17.5 13.4031C17.0219 13.1281 16.4094 13.2906 16.1344 13.7688C15.8594 14.2469 16.0219 14.8594 16.5 15.1344C16.8 15.3094 17 15.6312 17 16C17 16.5531 16.5531 17 16 17C15.4469 17 15 16.5531 15 16V12H13V16Z" fill="black"/>
</svg>
