<svg width="24" height="24" viewBox="0 0 24 24" fill="none" xmlns="http://www.w3.org/2000/svg">
<path d="M19 7C19 6.44687 18.5531 6 18 6C17.4469 6 17 6.44687 17 7V17C17 17.5531 17.4469 18 18 18C18.5531 18 19 17.5531 19 17V7ZM14.7063 12.7063C15.0969 12.3156 15.0969 11.6813 14.7063 11.2906L10.7063 7.29063C10.3156 6.9 9.68125 6.9 9.29063 7.29063C8.9 7.68125 8.9 8.31563 9.29063 8.70625L11.5844 11H6C5.44687 11 5 11.4469 5 12C5 12.5531 5.44687 13 6 13H11.5844L9.29063 15.2937C8.9 15.6844 8.9 16.3188 9.29063 16.7094C9.68125 17.1 10.3156 17.1 10.7063 16.7094L14.7063 12.7094V12.7063Z" fill="black"/>
</svg>
