<svg width="24" height="24" viewBox="0 0 24 24" fill="none" xmlns="http://www.w3.org/2000/svg">
<path d="M4.46562 8.575C4.17188 8.1125 4 7.5625 4 6.975C4 5.33125 5.33125 4 6.975 4C7.75625 4 8.46875 4.3 9 4.79375L4.46562 8.575ZM16.1938 18.6062C15.025 19.4812 13.5719 20 12 20C10.4281 20 8.975 19.4812 7.80938 18.6062L6.70625 19.7063C6.31562 20.0969 5.68125 20.0969 5.29062 19.7063C4.9 19.3156 4.9 18.6812 5.29062 18.2906L6.39062 17.1906C5.51875 16.025 5 14.5719 5 13C5 9.13438 8.13438 6 12 6C15.8656 6 19 9.13438 19 13C19 14.5719 18.4812 16.025 17.6062 17.1938L18.7063 18.2937C19.0969 18.6844 19.0969 19.3188 18.7063 19.7094C18.3156 20.1 17.6812 20.1 17.2906 19.7094L16.1906 18.6094L16.1938 18.6062ZM15 4.79375C15.5312 4.3 16.2437 4 17.025 4C18.6687 4 20 5.33125 20 6.975C20 7.5625 19.8281 8.10938 19.5344 8.57188L15 4.79375ZM13 16C13 15.7348 12.8946 15.4804 12.7071 15.2929C12.5196 15.1054 12.2652 15 12 15C11.7348 15 11.4804 15.1054 11.2929 15.2929C11.1054 15.4804 11 15.7348 11 16C11 16.2652 11.1054 16.5196 11.2929 16.7071C11.4804 16.8946 11.7348 17 12 17C12.2652 17 12.5196 16.8946 12.7071 16.7071C12.8946 16.5196 13 16.2652 13 16ZM12.75 9.75C12.75 9.33437 12.4156 9 12 9C11.5844 9 11.25 9.33437 11.25 9.75V13.25C11.25 13.6656 11.5844 14 12 14C12.4156 14 12.75 13.6656 12.75 13.25V9.75Z" fill="black"/>
</svg>
