<svg width="24" height="24" viewBox="0 0 24 24" fill="none" xmlns="http://www.w3.org/2000/svg">
<path d="M7 7C7 6.44687 6.55313 6 6 6C5.44687 6 5 6.44687 5 7V17C5 17.5531 5.44687 18 6 18C6.55313 18 7 17.5531 7 17V7ZM18.7063 12.7063C19.0969 12.3156 19.0969 11.6813 18.7063 11.2906L14.7063 7.29063C14.3156 6.9 13.6812 6.9 13.2906 7.29063C12.9 7.68125 12.9 8.31563 13.2906 8.70625L15.5844 11H10C9.44688 11 9 11.4469 9 12C9 12.5531 9.44688 13 10 13H15.5844L13.2906 15.2937C12.9 15.6844 12.9 16.3188 13.2906 16.7094C13.6812 17.1 14.3156 17.1 14.7063 16.7094L18.7063 12.7094V12.7063Z" fill="black"/>
</svg>
