<svg width="24" height="24" viewBox="0 0 24 24" fill="none" xmlns="http://www.w3.org/2000/svg">
<path d="M9 4.79375C8.46875 4.3 7.75625 4 6.975 4C5.33125 4 4 5.33125 4 6.975C4 7.5625 4.17188 8.10938 4.46562 8.57188L9 4.79375ZM12 20C13.5719 20 15.025 19.4812 16.1938 18.6062L17.2937 19.7063C17.6844 20.0969 18.3188 20.0969 18.7094 19.7063C19.1 19.3156 19.1 18.6812 18.7094 18.2906L17.6094 17.1906C18.4844 16.0219 19.0031 14.5719 19.0031 12.9969C19 9.13437 15.8656 6 12 6C8.13438 6 5 9.13438 5 13C5 14.5719 5.51875 16.025 6.39375 17.1938L5.29375 18.2937C4.90313 18.6844 4.90313 19.3188 5.29375 19.7094C5.68438 20.1 6.31875 20.1 6.70937 19.7094L7.80938 18.6094C8.97813 19.4844 10.4281 20.0031 12 20.0031V20ZM19.5344 8.575C19.8281 8.1125 20 7.5625 20 6.975C20 5.33125 18.6687 4 17.025 4C16.2437 4 15.5312 4.3 15 4.79375L19.5344 8.575ZM12.75 9.75V12.6906L14.0312 13.9719C14.325 14.2656 14.325 14.7406 14.0312 15.0312C13.7375 15.3219 13.2625 15.325 12.9719 15.0312L11.4719 13.5312C11.3313 13.3906 11.2531 13.2 11.2531 13V9.75C11.2531 9.33437 11.5875 9 12.0031 9C12.4187 9 12.7531 9.33437 12.7531 9.75H12.75Z" fill="black"/>
</svg>
