<svg width="24" height="24" viewBox="0 0 24 24" fill="none" xmlns="http://www.w3.org/2000/svg">
<path d="M19 7V10.5H17V9.5H17.25C17.6656 9.5 18 9.16563 18 8.75C18 8.33437 17.6656 8 17.25 8H17V7H19ZM16 8H15.75C15.3344 8 15 8.33437 15 8.75C15 9.16563 15.3344 9.5 15.75 9.5H16V10.5H12V9.5H12.25C12.6656 9.5 13 9.16563 13 8.75C13 8.33437 12.6656 8 12.25 8H12V7H16V8ZM11 8H10.75C10.3344 8 10 8.33437 10 8.75C10 9.16563 10.3344 9.5 10.75 9.5H11V10.5H8V9.5H8.25C8.66563 9.5 9 9.16563 9 8.75C9 8.33437 8.66563 8 8.25 8H8V7H11V8ZM7 8H6.75C6.33437 8 6 8.33437 6 8.75C6 9.16563 6.33437 9.5 6.75 9.5H7V10.5H5V7H7V8ZM5 17V11.5H7V12.25H6.75C6.33437 12.25 6 12.5844 6 13C6 13.4156 6.33437 13.75 6.75 13.75H7V14.5H6.75C6.33437 14.5 6 14.8344 6 15.25C6 15.6656 6.33437 16 6.75 16H7V17H5ZM8 16H8.25C8.66563 16 9 15.6656 9 15.25C9 14.8344 8.66563 14.5 8.25 14.5H8V13.75H8.25C8.66563 13.75 9 13.4156 9 13C9 12.5844 8.66563 12.25 8.25 12.25H8V11.5H11V12.25H10.75C10.3344 12.25 10 12.5844 10 13C10 13.4156 10.3344 13.75 10.75 13.75H11V14.5H10.75C10.3344 14.5 10 14.8344 10 15.25C10 15.6656 10.3344 16 10.75 16H11V17H8V16ZM12 13.75H12.25C12.6656 13.75 13 13.4156 13 13C13 12.5844 12.6656 12.25 12.25 12.25H12V11.5H16V14.5H15.75C15.3344 14.5 15 14.8344 15 15.25C15 15.6656 15.3344 16 15.75 16H16V17H12V16H12.25C12.6656 16 13 15.6656 13 15.25C13 14.8344 12.6656 14.5 12.25 14.5H12V13.75ZM17 16H17.25C17.6656 16 18 15.6656 18 15.25C18 14.8344 17.6656 14.5 17.25 14.5H17V11.5H19V17H17V16ZM5 5C3.89688 5 3 5.89688 3 7V17C3 18.1031 3.89688 19 5 19H19C20.1031 19 21 18.1031 21 17V7C21 5.89688 20.1031 5 19 5H5Z" fill="black"/>
</svg>
