<svg width="24" height="24" viewBox="0 0 24 24" fill="none" xmlns="http://www.w3.org/2000/svg">
<path d="M4.29395 12.7063C3.90332 12.3156 3.90332 11.6813 4.29395 11.2906L8.29395 7.29063C8.68457 6.9 9.31895 6.9 9.70957 7.29063C10.1002 7.68125 10.1002 8.31563 9.70957 8.70625L7.41582 11H14.0002C14.5533 11 15.0002 11.4469 15.0002 12C15.0002 12.5531 14.5533 13 14.0002 13H7.41582L9.70957 15.2937C10.1002 15.6844 10.1002 16.3188 9.70957 16.7094C9.31895 17.1 8.68457 17.1 8.29395 16.7094L4.29395 12.7094V12.7063ZM15.0002 7C14.4471 7 14.0002 6.55313 14.0002 6C14.0002 5.44687 14.4471 5 15.0002 5H17.0002C18.6564 5 20.0002 6.34375 20.0002 8V16C20.0002 17.6562 18.6564 19 17.0002 19H15.0002C14.4471 19 14.0002 18.5531 14.0002 18C14.0002 17.4469 14.4471 17 15.0002 17H17.0002C17.5533 17 18.0002 16.5531 18.0002 16V8C18.0002 7.44687 17.5533 7 17.0002 7H15.0002Z" fill="black"/>
</svg>
