<svg width="24" height="24" viewBox="0 0 24 24" fill="none" xmlns="http://www.w3.org/2000/svg">
<path d="M6.70615 6.29297C6.31553 5.90234 5.68115 5.90234 5.29053 6.29297L2.29053 9.29297C1.8999 9.68359 1.8999 10.318 2.29053 10.7086C2.68115 11.0992 3.31553 11.0992 3.70615 10.7086L4.9999 9.41484V13.9992C4.9999 15.6555 6.34365 16.9992 7.9999 16.9992H11.4999C12.053 16.9992 12.4999 16.5523 12.4999 15.9992C12.4999 15.4461 12.053 14.9992 11.4999 14.9992H7.9999C7.44678 14.9992 6.9999 14.5523 6.9999 13.9992V9.41484L8.29365 10.7086C8.68428 11.0992 9.31865 11.0992 9.70928 10.7086C10.0999 10.318 10.0999 9.68359 9.70928 9.29297L6.70928 6.29297H6.70615ZM12.4999 6.99922C11.9468 6.99922 11.4999 7.44609 11.4999 7.99922C11.4999 8.55234 11.9468 8.99922 12.4999 8.99922H15.9999C16.553 8.99922 16.9999 9.44609 16.9999 9.99922V14.5836L15.7062 13.2898C15.3155 12.8992 14.6812 12.8992 14.2905 13.2898C13.8999 13.6805 13.8999 14.3148 14.2905 14.7055L17.2905 17.7055C17.6812 18.0961 18.3155 18.0961 18.7062 17.7055L21.7062 14.7055C22.0968 14.3148 22.0968 13.6805 21.7062 13.2898C21.3155 12.8992 20.6812 12.8992 20.2905 13.2898L18.9999 14.5836V9.99922C18.9999 8.34297 17.6562 6.99922 15.9999 6.99922H12.4999Z" fill="black"/>
</svg>
