<svg width="24" height="24" viewBox="0 0 24 24" fill="none" xmlns="http://www.w3.org/2000/svg">
<path d="M15 9C14.4469 9 14 8.55313 14 8C14 7.44687 14.4469 7 15 7H20C20.5532 7 21 7.44687 21 8V13C21 13.5531 20.5532 14 20 14C19.4469 14 19 13.5531 19 13V10.4156L13.7063 15.7063C13.3156 16.0969 12.6813 16.0969 12.2906 15.7063L9.00002 12.4156L4.70627 16.7063C4.31565 17.0969 3.68127 17.0969 3.29065 16.7063C2.90002 16.3156 2.90002 15.6812 3.29065 15.2906L8.29065 10.2906C8.68127 9.9 9.31565 9.9 9.70627 10.2906L13 13.5844L17.5844 9H15Z" fill="black"/>
</svg>
