<svg width="24" height="24" viewBox="0 0 24 24" fill="none" xmlns="http://www.w3.org/2000/svg">
<path d="M12.7062 18.7062C12.3155 19.0969 11.6812 19.0969 11.2905 18.7062L6.29053 13.7062C5.8999 13.3156 5.8999 12.6812 6.29053 12.2906C6.68115 11.9 7.31553 11.9 7.70615 12.2906L11.9999 16.5844L16.2937 12.2937C16.6843 11.9031 17.3187 11.9031 17.7093 12.2937C18.0999 12.6844 18.0999 13.3187 17.7093 13.7094L12.7093 18.7094L12.7062 18.7062ZM17.7062 7.70624L12.7062 12.7062C12.3155 13.0969 11.6812 13.0969 11.2905 12.7062L6.29053 7.70624C5.8999 7.31562 5.8999 6.68124 6.29053 6.29062C6.68115 5.89999 7.31553 5.89999 7.70615 6.29062L11.9999 10.5844L16.2937 6.29374C16.6843 5.90312 17.3187 5.90312 17.7093 6.29374C18.0999 6.68437 18.0999 7.31874 17.7093 7.70937L17.7062 7.70624Z" fill="black"/>
</svg>
