<svg width="24" height="24" viewBox="0 0 24 24" fill="none" xmlns="http://www.w3.org/2000/svg">
<path d="M6.49997 4C6.08434 4 5.74997 4.33437 5.74997 4.75V8.44063L5.03122 7.71875C4.73747 7.425 4.26247 7.425 3.97184 7.71875C3.68122 8.0125 3.67809 8.4875 3.97184 8.77812L5.97184 10.7781C6.26559 11.0719 6.74059 11.0719 7.03122 10.7781L9.03122 8.77812C9.32497 8.48437 9.32497 8.00938 9.03122 7.71875C8.73747 7.42812 8.26247 7.425 7.97184 7.71875L7.25309 8.4375V4.75C7.25309 4.33437 6.91872 4 6.50309 4H6.49997ZM13.25 10.25C13.25 9.91848 13.1183 9.60054 12.8839 9.36612C12.6494 9.1317 12.3315 9 12 9C11.6684 9 11.3505 9.1317 11.1161 9.36612C10.8817 9.60054 10.75 9.91848 10.75 10.25C10.75 10.5815 10.8817 10.8995 11.1161 11.1339C11.3505 11.3683 11.6684 11.5 12 11.5C12.3315 11.5 12.6494 11.3683 12.8839 11.1339C13.1183 10.8995 13.25 10.5815 13.25 10.25ZM7.74997 13.25C7.74997 12.9185 7.61827 12.6005 7.38385 12.3661C7.14943 12.1317 6.83149 12 6.49997 12C6.16845 12 5.8505 12.1317 5.61608 12.3661C5.38166 12.6005 5.24997 12.9185 5.24997 13.25C5.24997 13.5815 5.38166 13.8995 5.61608 14.1339C5.8505 14.3683 6.16845 14.5 6.49997 14.5C6.83149 14.5 7.14943 14.3683 7.38385 14.1339C7.61827 13.8995 7.74997 13.5815 7.74997 13.25ZM17.5 14.5C17.8315 14.5 18.1494 14.3683 18.3839 14.1339C18.6183 13.8995 18.75 13.5815 18.75 13.25C18.75 12.9185 18.6183 12.6005 18.3839 12.3661C18.1494 12.1317 17.8315 12 17.5 12C17.1684 12 16.8505 12.1317 16.6161 12.3661C16.3817 12.6005 16.25 12.9185 16.25 13.25C16.25 13.5815 16.3817 13.8995 16.6161 14.1339C16.8505 14.3683 17.1684 14.5 17.5 14.5ZM8.24997 17.7969L9.09059 19.3562C9.28747 19.7219 9.74059 19.8563 10.1062 19.6625C10.4718 19.4688 10.6062 19.0125 10.4125 18.6469L9.27809 16.5375C9.33122 16.4844 9.37809 16.425 9.41247 16.3562L10.25 14.7969V16.5C10.25 17.0531 10.6968 17.5 11.25 17.5H12.75C13.3031 17.5 13.75 17.0531 13.75 16.5V14.7969L14.5906 16.3562C14.6281 16.425 14.6718 16.4844 14.725 16.5375L13.5906 18.6469C13.3937 19.0125 13.5312 19.4656 13.8968 19.6625C14.2625 19.8594 14.7156 19.7219 14.9125 19.3562L15.75 17.7969V19C15.75 19.5531 16.1968 20 16.75 20H18.25C18.8031 20 19.25 19.5531 19.25 19V17.7969L20.0906 19.3562C20.2875 19.7219 20.7406 19.8563 21.1062 19.6625C21.4718 19.4688 21.6062 19.0125 21.4125 18.6469L20.2281 16.45C19.75 15.5594 18.8187 15.0031 17.8062 15.0031H17.1937C16.6843 15.0031 16.1968 15.1438 15.775 15.3969L14.725 13.45C14.2468 12.5594 13.3156 12.0031 12.3031 12.0031H11.6937C10.6812 12.0031 9.75309 12.5594 9.27184 13.45L8.22184 15.3969C7.79997 15.1438 7.31247 15.0031 6.80309 15.0031H6.19372C5.18122 15.0031 4.25309 15.5594 3.77184 16.45L2.59059 18.6438C2.39372 19.0094 2.53122 19.4625 2.89684 19.6594C3.26247 19.8563 3.71559 19.7187 3.91247 19.3531L4.74997 17.7969V19C4.74997 19.5531 5.19684 20 5.74997 20H7.24997C7.80309 20 8.24997 19.5531 8.24997 19V17.7969ZM14.9687 8.78125L16.9687 10.7812C17.2625 11.075 17.7375 11.075 18.0281 10.7812L20.0281 8.78125C20.3218 8.4875 20.3218 8.0125 20.0281 7.72187C19.7343 7.43125 19.2593 7.42812 18.9687 7.72187L18.25 8.44063V4.75C18.25 4.33437 17.9156 4 17.5 4C17.0843 4 16.75 4.33437 16.75 4.75V8.44063L16.0312 7.72187C15.7375 7.42812 15.2625 7.42812 14.9718 7.72187C14.6812 8.01562 14.6781 8.49062 14.9718 8.78125H14.9687Z" fill="black"/>
</svg>
