<svg width="24" height="24" viewBox="0 0 24 24" fill="none" xmlns="http://www.w3.org/2000/svg">
<path d="M13.2 4.15C13.5312 4.4 13.6 4.86875 13.35 5.2L13.2 5.4C13.0625 5.58437 12.9531 5.7875 12.8781 6H16C17.6562 6 19 7.34375 19 9C19 9.55312 18.5531 10 18 10H6C5.44687 10 5 9.55312 5 9C5 7.34375 6.34375 6 8 6H11.325C11.4375 5.45937 11.6656 4.94687 12 4.5L12.15 4.3C12.4 3.96875 12.8687 3.9 13.2 4.15ZM11.6844 18.8875C7.45312 17.3094 6.5 13.4406 6.5 11H12H17.5C17.5 13.4406 16.5469 17.3094 12.3156 18.8875C12.1125 18.9625 11.8875 18.9625 11.6844 18.8875Z" fill="black"/>
</svg>
