<svg width="24" height="24" viewBox="0 0 24 24" fill="none" xmlns="http://www.w3.org/2000/svg">
<path d="M6.99688 4.4375V4.44062C6.99688 4.44375 7 4.45312 7 4.4625C7.00312 4.48437 7.00937 4.51875 7.01875 4.56562C7.0375 4.65937 7.07187 4.79687 7.12812 4.96562C7.24062 5.30312 7.4375 5.75 7.77187 6.2C8.20625 6.78125 8.89687 7.38437 9.99687 7.725V12.3375C9.0625 12.6844 8.40625 13.2531 7.94688 13.8156C7.575 14.2719 7.33125 14.7312 7.18125 15.075C7.10625 15.2469 7.05625 15.3875 7.02187 15.4844C7.00625 15.5312 6.99375 15.5687 6.9875 15.5937L6.98125 15.6187V15.6219C6.93438 15.8031 6.79063 15.9437 6.60938 15.9875C6.42812 16.0312 6.23438 15.9656 6.11562 15.8219L6.5 15.5C6.11875 15.8219 6.11875 15.8219 6.11875 15.8219L6.11562 15.8187L6.10938 15.8125L6.09063 15.7875C6.075 15.7656 6.05 15.7375 6.01875 15.6969C5.95937 15.6187 5.875 15.5062 5.77813 15.3656C5.58125 15.0781 5.31875 14.6656 5.05625 14.15C4.53125 13.1219 4 11.6656 4 10C4 8.33437 4.53125 6.87812 5.05313 5.85312C5.31562 5.3375 5.57812 4.925 5.775 4.6375C5.875 4.49375 5.95625 4.38125 6.01562 4.30625C6.04688 4.26875 6.06875 4.2375 6.0875 4.21562L6.10625 4.19062L6.1125 4.18437L6.11562 4.18125C6.11562 4.18125 6.11563 4.18125 6.49688 4.50312L6.11875 4.17812C6.24688 4.025 6.45312 3.96562 6.64375 4.02187C6.83437 4.07812 6.97187 4.24062 6.99688 4.4375ZM14 12.3375V7.725C15.1 7.38437 15.7906 6.78125 16.225 6.2C16.6031 5.69687 16.9 5.0625 17.0031 4.4375C17.0281 4.24062 17.1687 4.07812 17.3562 4.02187C17.5469 3.96562 17.7562 4.03125 17.8844 4.18437C18.3 4.69375 18.6469 5.27187 18.9438 5.85312C19.3313 6.61875 19.7281 7.62187 19.9031 8.77187C19.9187 8.88125 19.8594 8.99062 19.7563 9.03437L18.0344 9.77187C17.8313 9.85937 17.8313 10.1437 18.0344 10.2312L19.7594 10.9687C19.8625 11.0125 19.925 11.1187 19.9062 11.2312C19.6562 12.8875 18.9281 14.5281 17.8906 15.8125C17.7688 15.9562 17.5687 16.0312 17.3875 15.9875C17.2063 15.9437 17.0594 15.8 17.0156 15.6187C16.8313 14.9625 16.4781 14.3406 16.05 13.8156C15.5906 13.2531 14.9344 12.6844 14 12.3375ZM13 6V19C13 19.5531 12.5531 20 12 20C11.4469 20 11 19.5531 11 19V6C11 5.44687 11.4469 5 12 5C12.5531 5 13 5.44687 13 6Z" fill="black"/>
</svg>
