<svg width="24" height="24" viewBox="0 0 24 24" fill="none" xmlns="http://www.w3.org/2000/svg">
<path d="M5 7C5 6.44687 5.44687 6 6 6C6.55313 6 7 6.44687 7 7V17C7 17.5531 6.55313 18 6 18C5.44687 18 5 17.5531 5 17V7ZM9.29375 12.7063C8.90312 12.3156 8.90312 11.6813 9.29375 11.2906L13.2937 7.29063C13.6844 6.9 14.3188 6.9 14.7094 7.29063C15.1 7.68125 15.1 8.31563 14.7094 8.70625L12.4156 11H18C18.5531 11 19 11.4469 19 12C19 12.5531 18.5531 13 18 13H12.4156L14.7094 15.2937C15.1 15.6844 15.1 16.3188 14.7094 16.7094C14.3188 17.1 13.6844 17.1 13.2937 16.7094L9.29375 12.7094V12.7063Z" fill="black"/>
</svg>
