<svg width="24" height="24" viewBox="0 0 24 24" fill="none" xmlns="http://www.w3.org/2000/svg">
<path d="M18.7063 8.70624C19.0969 8.31562 19.0969 7.68124 18.7063 7.29062L15.7063 4.29062C15.3156 3.89999 14.6812 3.89999 14.2906 4.29062C13.9 4.68124 13.9 5.31562 14.2906 5.70624L15.5844 6.99999H6C5.44687 6.99999 5 7.44687 5 7.99999C5 8.55312 5.44687 8.99999 6 8.99999H15.5844L14.2906 10.2937C13.9 10.6844 13.9 11.3187 14.2906 11.7094C14.6812 12.1 15.3156 12.1 15.7063 11.7094L18.7063 8.70937V8.70624ZM8.29063 19.7062C8.68125 20.0969 9.31563 20.0969 9.70625 19.7062C10.0969 19.3156 10.0969 18.6812 9.70625 18.2906L8.41563 17H18C18.5531 17 19 16.5531 19 16C19 15.4469 18.5531 15 18 15H8.41563L9.70937 13.7062C10.1 13.3156 10.1 12.6812 9.70937 12.2906C9.31875 11.9 8.68438 11.9 8.29375 12.2906L5.29375 15.2906C4.90312 15.6812 4.90312 16.3156 5.29375 16.7062L8.29375 19.7062H8.29063Z" fill="black"/>
</svg>
