<svg width="24" height="24" viewBox="0 0 24 24" fill="none" xmlns="http://www.w3.org/2000/svg">
<path d="M12.922 5.61563C12.7689 5.24375 12.4033 5 12.0002 5C11.597 5 11.2314 5.24375 11.0783 5.61563L7.32828 14.6156L6.07828 17.6156C5.86578 18.125 6.10641 18.7094 6.61578 18.9219C7.12516 19.1344 7.70953 18.8937 7.92203 18.3844L8.91578 16H15.0845L16.0783 18.3844C16.2908 18.8937 16.8752 19.1344 17.3845 18.9219C17.8939 18.7094 18.1345 18.125 17.922 17.6156L16.672 14.6156L12.922 5.61563ZM14.2502 14H9.75016L12.0002 8.6L14.2502 14Z" fill="black"/>
</svg>
