<svg width="24" height="24" viewBox="0 0 24 24" fill="none" xmlns="http://www.w3.org/2000/svg">
<path d="M3.21268 4.15955C2.88768 3.9033 2.4158 3.96268 2.15955 4.28768C1.9033 4.61268 1.96268 5.08455 2.28768 5.3408L20.7877 19.8408C21.1127 20.0971 21.5846 20.0377 21.8408 19.7127C22.0971 19.3877 22.0377 18.9158 21.7127 18.6596L17.0439 15.0002H18.0002C18.5533 15.0002 19.0002 14.5533 19.0002 14.0002C19.0002 13.4471 18.5533 13.0002 18.0002 13.0002H14.4908L11.9377 11.0002H18.0002C18.5533 11.0002 19.0002 10.5533 19.0002 10.0002C19.0002 9.44705 18.5533 9.00018 18.0002 9.00018H9.38768L6.83768 7.00018H18.0002C18.5533 7.00018 19.0002 6.5533 19.0002 6.00018C19.0002 5.44705 18.5533 5.00018 18.0002 5.00018H6.00018C5.58143 5.00018 5.22518 5.25643 5.07518 5.61893L3.21268 4.15955ZM17.2314 19.0002L14.6939 17.0002H6.00018C5.44705 17.0002 5.00018 17.4471 5.00018 18.0002C5.00018 18.5533 5.44705 19.0002 6.00018 19.0002H17.2314ZM12.1533 15.0002L9.6158 13.0002H6.00018C5.44705 13.0002 5.00018 13.4471 5.00018 14.0002C5.00018 14.5533 5.44705 15.0002 6.00018 15.0002H12.1533ZM7.0783 11.0002L5.14705 9.4783C5.0533 9.63143 5.00018 9.80955 5.00018 10.0002C5.00018 10.5533 5.44705 11.0002 6.00018 11.0002H7.0783Z" fill="black"/>
</svg>
