<svg width="24" height="24" viewBox="0 0 24 24" fill="none" xmlns="http://www.w3.org/2000/svg">
<path d="M12.7063 4.29375C12.3156 3.90312 11.6813 3.90312 11.2906 4.29375L9.29063 6.29375C9.00313 6.58125 8.91875 7.00937 9.075 7.38437C9.23125 7.75937 9.59375 8.00312 10 8.00312H11V9.00312C11 9.55625 11.4469 10.0031 12 10.0031C12.5531 10.0031 13 9.55625 13 9.00312V8H14C14.4031 8 14.7688 7.75625 14.925 7.38125C15.0813 7.00625 14.9938 6.57812 14.7094 6.29062L12.7094 4.29062L12.7063 4.29375ZM11 15V16H10C9.59688 16 9.23125 16.2437 9.075 16.6187C8.91875 16.9937 9.00625 17.4219 9.29063 17.7094L11.2906 19.7094C11.6813 20.1 12.3156 20.1 12.7063 19.7094L14.7063 17.7094C14.9938 17.4219 15.0781 16.9937 14.9219 16.6187C14.7656 16.2437 14.4031 16 13.9969 16H13V15C13 14.4469 12.5531 14 12 14C11.4469 14 11 14.4469 11 15ZM6 11C5.73478 11 5.48043 11.1054 5.29289 11.2929C5.10536 11.4804 5 11.7348 5 12C5 12.2652 5.10536 12.5196 5.29289 12.7071C5.48043 12.8946 5.73478 13 6 13C6.26522 13 6.51957 12.8946 6.70711 12.7071C6.89464 12.5196 7 12.2652 7 12C7 11.7348 6.89464 11.4804 6.70711 11.2929C6.51957 11.1054 6.26522 11 6 11ZM9 11C8.73478 11 8.48043 11.1054 8.29289 11.2929C8.10536 11.4804 8 11.7348 8 12C8 12.2652 8.10536 12.5196 8.29289 12.7071C8.48043 12.8946 8.73478 13 9 13C9.26522 13 9.51957 12.8946 9.70711 12.7071C9.89464 12.5196 10 12.2652 10 12C10 11.7348 9.89464 11.4804 9.70711 11.2929C9.51957 11.1054 9.26522 11 9 11ZM12 13C12.2652 13 12.5196 12.8946 12.7071 12.7071C12.8946 12.5196 13 12.2652 13 12C13 11.7348 12.8946 11.4804 12.7071 11.2929C12.5196 11.1054 12.2652 11 12 11C11.7348 11 11.4804 11.1054 11.2929 11.2929C11.1054 11.4804 11 11.7348 11 12C11 12.2652 11.1054 12.5196 11.2929 12.7071C11.4804 12.8946 11.7348 13 12 13ZM15 11C14.7348 11 14.4804 11.1054 14.2929 11.2929C14.1054 11.4804 14 11.7348 14 12C14 12.2652 14.1054 12.5196 14.2929 12.7071C14.4804 12.8946 14.7348 13 15 13C15.2652 13 15.5196 12.8946 15.7071 12.7071C15.8946 12.5196 16 12.2652 16 12C16 11.7348 15.8946 11.4804 15.7071 11.2929C15.5196 11.1054 15.2652 11 15 11ZM17 12C17 12.2652 17.1054 12.5196 17.2929 12.7071C17.4804 12.8946 17.7348 13 18 13C18.2652 13 18.5196 12.8946 18.7071 12.7071C18.8946 12.5196 19 12.2652 19 12C19 11.7348 18.8946 11.4804 18.7071 11.2929C18.5196 11.1054 18.2652 11 18 11C17.7348 11 17.4804 11.1054 17.2929 11.2929C17.1054 11.4804 17 11.7348 17 12Z" fill="black"/>
</svg>
