<svg width="24" height="24" viewBox="0 0 24 24" fill="none" xmlns="http://www.w3.org/2000/svg">
<path d="M7 19C6.44687 19 6 18.5531 6 18C6 17.4469 6.44687 17 7 17H17C17.5531 17 18 17.4469 18 18C18 18.5531 17.5531 19 17 19H7ZM12.7063 14.7063C12.3156 15.0969 11.6813 15.0969 11.2906 14.7063L7.29062 10.7063C6.9 10.3156 6.9 9.68125 7.29062 9.29063C7.68125 8.9 8.31562 8.9 8.70625 9.29063L11 11.5844V6C11 5.44687 11.4469 5 12 5C12.5531 5 13 5.44687 13 6V11.5844L15.2937 9.29063C15.6844 8.9 16.3188 8.9 16.7094 9.29063C17.1 9.68125 17.1 10.3156 16.7094 10.7063L12.7094 14.7063H12.7063Z" fill="black"/>
</svg>
