<svg width="24" height="24" viewBox="0 0 24 24" fill="none" xmlns="http://www.w3.org/2000/svg">
<path d="M7.73739 5.325C7.54677 5.11875 7.28114 5 6.99989 5C6.71864 5 6.45302 5.11875 6.26239 5.325L3.51239 8.325C3.14052 8.73125 3.16552 9.36563 3.57489 9.7375C3.98427 10.1094 4.61552 10.0844 4.98739 9.675L5.99989 8.57188V18C5.99989 18.5531 6.44677 19 6.99989 19C7.55302 19 7.99989 18.5531 7.99989 18V8.57188L9.01239 9.67812C9.38427 10.0844 10.0186 10.1125 10.4249 9.74062C10.8311 9.36875 10.8593 8.73438 10.4874 8.32812L7.73739 5.32812V5.325ZM12.9999 5C12.4468 5 11.9999 5.44687 11.9999 6C11.9999 6.55313 12.4468 7 12.9999 7H13.9999C14.553 7 14.9999 6.55313 14.9999 6C14.9999 5.44687 14.553 5 13.9999 5H12.9999ZM12.9999 9C12.4468 9 11.9999 9.44688 11.9999 10C11.9999 10.5531 12.4468 11 12.9999 11H15.9999C16.553 11 16.9999 10.5531 16.9999 10C16.9999 9.44688 16.553 9 15.9999 9H12.9999ZM12.9999 13C12.4468 13 11.9999 13.4469 11.9999 14C11.9999 14.5531 12.4468 15 12.9999 15H17.9999C18.553 15 18.9999 14.5531 18.9999 14C18.9999 13.4469 18.553 13 17.9999 13H12.9999ZM12.9999 17C12.4468 17 11.9999 17.4469 11.9999 18C11.9999 18.5531 12.4468 19 12.9999 19H19.9999C20.553 19 20.9999 18.5531 20.9999 18C20.9999 17.4469 20.553 17 19.9999 17H12.9999Z" fill="black"/>
</svg>
