<svg width="24" height="24" viewBox="0 0 24 24" fill="none" xmlns="http://www.w3.org/2000/svg">
<path d="M11.9998 5C12.5529 5 12.9998 5.44687 12.9998 6V10.2344L16.4842 8.14375C16.9592 7.85938 17.5717 8.0125 17.8561 8.4875C18.1404 8.9625 17.9873 9.575 17.5123 9.85938L13.9436 12L17.5154 14.1438C17.9904 14.4281 18.1436 15.0406 17.8592 15.5156C17.5748 15.9906 16.9623 16.1438 16.4873 15.8594L12.9998 13.7656V18C12.9998 18.5531 12.5529 19 11.9998 19C11.4467 19 10.9998 18.5531 10.9998 18V13.7656L7.51544 15.8562C7.04044 16.1406 6.42794 15.9875 6.14357 15.5125C5.85919 15.0375 6.01232 14.425 6.48732 14.1406L10.0561 12L6.48419 9.85625C6.00919 9.57187 5.85607 8.95937 6.14044 8.48438C6.42482 8.00938 7.03732 7.85625 7.51232 8.14062L10.9998 10.2344V6C10.9998 5.44687 11.4467 5 11.9998 5Z" fill="black"/>
</svg>
