<svg width="24" height="24" viewBox="0 0 24 24" fill="none" xmlns="http://www.w3.org/2000/svg">
<path d="M16.7063 10.3312C16.4656 9.64999 16.075 9.00936 15.525 8.46249C13.5719 6.50936 10.4063 6.50936 8.45314 8.46249L7.92189 8.99999H8.99376C9.54689 8.99999 9.99376 9.44686 9.99376 9.99999C9.99376 10.5531 9.54689 11 8.99376 11H5.50939H5.49689C4.94376 11 4.49689 10.5531 4.49689 9.99999V6.49999C4.49689 5.94686 4.94376 5.49999 5.49689 5.49999C6.05001 5.49999 6.49689 5.94686 6.49689 6.49999V7.59999L7.04376 7.04999C9.77814 4.31561 14.2094 4.31561 16.9438 7.04999C17.7063 7.81249 18.2594 8.70936 18.5969 9.66561C18.7813 10.1875 18.5063 10.7562 17.9875 10.9406C17.4688 11.125 16.8969 10.85 16.7125 10.3312H16.7063ZM18.7719 13.0375C18.9281 13.0844 19.0781 13.1687 19.2 13.2937C19.325 13.4187 19.4094 13.5719 19.4531 13.7312C19.4625 13.7687 19.4719 13.8094 19.4781 13.85C19.4875 13.9031 19.4906 13.9562 19.4906 14.0094V17.5C19.4906 18.0531 19.0438 18.5 18.4906 18.5C17.9375 18.5 17.4906 18.0531 17.4906 17.5V16.4031L16.9406 16.95C14.2063 19.6812 9.77501 19.6812 7.04376 16.95C6.28126 16.1875 5.72814 15.2906 5.39064 14.3312C5.20626 13.8094 5.48126 13.2406 6.00001 13.0562C6.51876 12.8719 7.09064 13.1469 7.27501 13.6656C7.51564 14.3469 7.90626 14.9875 8.45626 15.5344C10.4094 17.4875 13.575 17.4875 15.5281 15.5344L15.5313 15.5312L16.0656 15H14.9938C14.4406 15 13.9938 14.5531 13.9938 14C13.9938 13.4469 14.4406 13 14.9938 13H18.4813C18.5313 13 18.5813 13.0031 18.6313 13.0094C18.6813 13.0156 18.7281 13.025 18.775 13.0406L18.7719 13.0375Z" fill="black"/>
</svg>
