<svg width="24" height="24" viewBox="0 0 24 24" fill="none" xmlns="http://www.w3.org/2000/svg">
<path d="M6.70615 6.29376C6.31553 5.90314 5.68115 5.90314 5.29053 6.29376L2.29053 9.29376C1.8999 9.68439 1.8999 10.3188 2.29053 10.7094C2.68115 11.1 3.31553 11.1 3.70615 10.7094L4.9999 9.41564V14C4.9999 15.6563 6.34365 17 7.9999 17H11.4999C12.053 17 12.4999 16.5531 12.4999 16C12.4999 15.4469 12.053 15 11.4999 15H7.9999C7.44678 15 6.9999 14.5531 6.9999 14V9.41564L8.29365 10.7094C8.68428 11.1 9.31865 11.1 9.70928 10.7094C10.0999 10.3188 10.0999 9.68439 9.70928 9.29376L6.70928 6.29376H6.70615ZM12.4999 7.00001C11.9468 7.00001 11.4999 7.44689 11.4999 8.00001C11.4999 8.55314 11.9468 9.00001 12.4999 9.00001H15.9999C16.553 9.00001 16.9999 9.44689 16.9999 10V14.5844L15.7062 13.2906C15.3155 12.9 14.6812 12.9 14.2905 13.2906C13.8999 13.6813 13.8999 14.3156 14.2905 14.7063L17.2905 17.7063C17.6812 18.0969 18.3155 18.0969 18.7062 17.7063L21.7062 14.7063C22.0968 14.3156 22.0968 13.6813 21.7062 13.2906C21.3155 12.9 20.6812 12.9 20.2905 13.2906L18.9999 14.5844V10C18.9999 8.34376 17.6562 7.00001 15.9999 7.00001H12.4999Z" fill="black"/>
</svg>
