<svg width="24" height="24" viewBox="0 0 24 24" fill="none" xmlns="http://www.w3.org/2000/svg">
<path d="M5 5C3.89688 5 3 5.89688 3 7V17C3 18.1031 3.89688 19 5 19H19C20.1031 19 21 18.1031 21 17V7C21 5.89688 20.1031 5 19 5H5ZM7.5 13H9.5C10.8812 13 12 14.1187 12 15.5C12 15.775 11.775 16 11.5 16H5.5C5.225 16 5 15.775 5 15.5C5 14.1187 6.11875 13 7.5 13ZM6.5 10C6.5 9.46957 6.71071 8.96086 7.08579 8.58579C7.46086 8.21071 7.96957 8 8.5 8C9.03043 8 9.53914 8.21071 9.91421 8.58579C10.2893 8.96086 10.5 9.46957 10.5 10C10.5 10.5304 10.2893 11.0391 9.91421 11.4142C9.53914 11.7893 9.03043 12 8.5 12C7.96957 12 7.46086 11.7893 7.08579 11.4142C6.71071 11.0391 6.5 10.5304 6.5 10ZM14.5 9H18.5C18.775 9 19 9.225 19 9.5C19 9.775 18.775 10 18.5 10H14.5C14.225 10 14 9.775 14 9.5C14 9.225 14.225 9 14.5 9ZM14.5 11H18.5C18.775 11 19 11.225 19 11.5C19 11.775 18.775 12 18.5 12H14.5C14.225 12 14 11.775 14 11.5C14 11.225 14.225 11 14.5 11ZM14.5 13H18.5C18.775 13 19 13.225 19 13.5C19 13.775 18.775 14 18.5 14H14.5C14.225 14 14 13.775 14 13.5C14 13.225 14.225 13 14.5 13Z" fill="black"/>
</svg>
