<svg width="24" height="24" viewBox="0 0 24 24" fill="none" xmlns="http://www.w3.org/2000/svg">
<path d="M14.2937 4.29376C14.6844 3.90314 15.3188 3.90314 15.7094 4.29376L18.7094 7.29376C19.1 7.68439 19.1 8.31876 18.7094 8.70939L15.7094 11.7094C15.3188 12.1 14.6844 12.1 14.2937 11.7094C13.9031 11.3188 13.9031 10.6844 14.2937 10.2938L15.5844 9.00001H9C7.89687 9.00001 7 9.89689 7 11V12C7 12.5531 6.55313 13 6 13C5.44687 13 5 12.5531 5 12V11C5 8.79064 6.79063 7.00001 9 7.00001H15.5844L14.2937 5.70626C13.9031 5.31564 13.9031 4.68126 14.2937 4.29064V4.29376ZM11.2937 12.2938C11.6844 11.9031 12.3187 11.9031 12.7094 12.2938L15.7094 15.2938C16.1 15.6844 16.1 16.3188 15.7094 16.7094L12.7094 19.7094C12.3187 20.1 11.6844 20.1 11.2937 19.7094C10.9031 19.3188 10.9031 18.6844 11.2937 18.2938L12.5844 17H8C7.44688 17 7 17.4469 7 18V19C7 19.5531 6.55313 20 6 20C5.44687 20 5 19.5531 5 19V18C5 16.3438 6.34375 15 8 15H12.5844L11.2906 13.7063C10.9 13.3156 10.9 12.6813 11.2906 12.2906L11.2937 12.2938Z" fill="black"/>
</svg>
