<svg width="24" height="24" viewBox="0 0 24 24" fill="none" xmlns="http://www.w3.org/2000/svg">
<path d="M2 7V17C2 17.5531 2.44687 18 3 18C3.55313 18 4 17.5531 4 17V7C4 6.44687 3.55313 6 3 6C2.44687 6 2 6.44687 2 7ZM6.29375 11.2937C5.90312 11.6844 5.90312 12.3188 6.29375 12.7094L10.2937 16.7094C10.6844 17.1 11.3188 17.1 11.7094 16.7094C12.1 16.3188 12.1 15.6844 11.7094 15.2937L9.41563 13H21C21.5531 13 22 12.5531 22 12C22 11.4469 21.5531 11 21 11H9.41563L11.7094 8.70625C12.1 8.31563 12.1 7.68125 11.7094 7.29063C11.3188 6.9 10.6844 6.9 10.2937 7.29063L6.29375 11.2906V11.2937Z" fill="black"/>
</svg>
