<svg width="24" height="24" viewBox="0 0 24 24" fill="none" xmlns="http://www.w3.org/2000/svg">
<path d="M8.70624 5.29375C8.31562 4.90313 7.68124 4.90313 7.29062 5.29375L4.29062 8.29375C3.89999 8.68437 3.89999 9.31875 4.29062 9.70937C4.68124 10.1 5.31562 10.1 5.70624 9.70937L6.99999 8.41563V18C6.99999 18.5531 7.44687 19 7.99999 19C8.55312 19 8.99999 18.5531 8.99999 18V8.41563L10.2937 9.70937C10.6844 10.1 11.3187 10.1 11.7094 9.70937C12.1 9.31875 12.1 8.68437 11.7094 8.29375L8.70937 5.29375H8.70624ZM19.7062 15.7094C20.0969 15.3188 20.0969 14.6844 19.7062 14.2937C19.3156 13.9031 18.6812 13.9031 18.2906 14.2937L17 15.5844V6C17 5.44687 16.5531 5 16 5C15.4469 5 15 5.44687 15 6V15.5844L13.7062 14.2906C13.3156 13.9 12.6812 13.9 12.2906 14.2906C11.9 14.6812 11.9 15.3156 12.2906 15.7063L15.2906 18.7063C15.6812 19.0969 16.3156 19.0969 16.7062 18.7063L19.7062 15.7063V15.7094Z" fill="black"/>
</svg>
