<svg width="24" height="24" viewBox="0 0 24 24" fill="none" xmlns="http://www.w3.org/2000/svg">
<path d="M4.68431 11.95C4.15931 11.775 3.87806 11.2062 4.04994 10.6844C4.78431 8.48437 6.84369 6.99999 9.16244 6.99999H14.5843L13.2937 5.70624C12.9031 5.31562 12.9031 4.68124 13.2937 4.29062C13.6843 3.89999 14.3187 3.89999 14.7093 4.29062L17.7093 7.29062C17.9968 7.57812 18.0812 8.00624 17.9249 8.38124C17.7687 8.75624 17.4062 8.99999 16.9999 8.99999H9.16244C7.70306 8.99999 6.40931 9.93437 5.94994 11.3156C5.77494 11.8406 5.20931 12.1219 4.68431 11.9469V11.95ZM19.3156 12.0531C19.8406 12.2281 20.1218 12.7937 19.9468 13.3187C19.2156 15.5156 17.1562 17 14.8374 17H9.41556L10.7093 18.2937C11.0999 18.6844 11.0999 19.3187 10.7093 19.7094C10.3187 20.1 9.68431 20.1 9.29369 19.7094L6.29369 16.7094C6.00619 16.4219 5.92181 15.9937 6.07806 15.6187C6.23431 15.2437 6.59681 15 7.00306 15H14.8374C16.2968 15 17.5906 14.0656 18.0499 12.6844C18.2249 12.1594 18.7906 11.8781 19.3156 12.0531ZM12.9999 10.75V13.25C12.9999 13.6656 12.6656 14 12.2499 14C11.8343 14 11.4999 13.6656 11.4999 13.25V11.75C11.1874 11.75 10.8937 11.55 10.7874 11.2375C10.6562 10.8437 10.8687 10.4187 11.2624 10.2875L12.0124 10.0375C12.2406 9.96249 12.4937 9.99999 12.6874 10.1406C12.8812 10.2812 12.9999 10.5094 12.9999 10.75Z" fill="black"/>
</svg>
