<svg width="24" height="24" viewBox="0 0 24 24" fill="none" xmlns="http://www.w3.org/2000/svg">
<path d="M12 15C12.5531 15 13 14.5531 13 14V7.41558L13.7937 8.20933C14.1844 8.59995 14.8188 8.59995 15.2094 8.20933C15.6 7.8187 15.6 7.18433 15.2094 6.7937L12.7094 4.2937C12.3188 3.90308 11.6844 3.90308 11.2937 4.2937L8.79375 6.7937C8.40312 7.18433 8.40312 7.8187 8.79375 8.20933C9.18437 8.59995 9.81875 8.59995 10.2094 8.20933L11 7.41558V14C11 14.5531 11.4469 15 12 15ZM11.4219 17.1843C10.7188 17.6687 9.85938 18 9 18C8.15938 18 7.27187 17.6625 6.58125 17.1843C6.20937 16.9187 5.70312 16.9406 5.35625 17.2375C4.90625 17.6093 4.34063 17.8937 3.775 18.025C3.2375 18.15 2.90313 18.6875 3.02812 19.225C3.15313 19.7625 3.69062 20.0968 4.22812 19.9718C4.99375 19.7937 5.63125 19.4562 6.04688 19.1906C6.95312 19.6781 7.96875 20 9 20C9.99687 20 10.8937 19.6906 11.5125 19.4093C11.6937 19.325 11.8594 19.2437 12 19.1687C12.1406 19.2437 12.3031 19.3281 12.4875 19.4093C13.1062 19.6906 14.0031 20 15 20C16.0312 20 17.0469 19.6781 17.9531 19.1937C18.3719 19.4562 19.0063 19.7968 19.7719 19.975C20.3094 20.1 20.8469 19.7656 20.9719 19.2281C21.0969 18.6906 20.7625 18.1531 20.225 18.0281C19.6594 17.8968 19.0938 17.6125 18.6438 17.2406C18.2969 16.9468 17.7906 16.925 17.4187 17.1875C16.7312 17.6625 15.8406 18 15 18C14.1406 18 13.2812 17.6687 12.5781 17.1843C12.2312 16.9375 11.7688 16.9375 11.4219 17.1843ZM9 9.99995H4.5C3.67188 9.99995 3 10.6718 3 11.5V17.2812C3.16563 17.1843 3.35 17.1125 3.54688 17.0656C3.95625 16.9687 4.38125 16.7593 4.7125 16.4843C5.40625 15.9 6.40937 15.8562 7.15312 16.3781C7.71562 16.7656 8.40625 17.0125 9 17.0125V9.99995ZM21 11.5C21 10.6718 20.3281 9.99995 19.5 9.99995H15V17.0156C15.5938 17.0156 16.2875 16.7687 16.85 16.3812C17.5938 15.8593 18.5938 15.9031 19.2906 16.4875C19.6219 16.7625 20.0469 16.975 20.4562 17.0687C20.6531 17.1156 20.8344 17.1875 21.0031 17.2843V11.5H21Z" fill="black"/>
</svg>
