<svg width="24" height="24" viewBox="0 0 24 24" fill="none" xmlns="http://www.w3.org/2000/svg">
<path d="M8.73739 5.325C8.54677 5.11875 8.28114 5 7.99989 5C7.71864 5 7.45302 5.11875 7.26239 5.325L4.51239 8.325C4.14052 8.73125 4.16552 9.36563 4.57489 9.7375C4.98427 10.1094 5.61552 10.0844 5.98739 9.675L6.99989 8.57188V18C6.99989 18.5531 7.44677 19 7.99989 19C8.55302 19 8.99989 18.5531 8.99989 18V8.57188L10.0124 9.67812C10.3843 10.0844 11.0186 10.1125 11.4249 9.74062C11.8311 9.36875 11.8593 8.73438 11.4874 8.32812L8.73739 5.32812V5.325ZM12.9999 14C12.9999 14.5531 13.4468 15 13.9999 15H15.5843L13.2905 17.2937C13.003 17.5812 12.9186 18.0094 13.0749 18.3844C13.2311 18.7594 13.5936 19.0031 13.9999 19.0031H17.9999C18.553 19.0031 18.9999 18.5563 18.9999 18.0031C18.9999 17.45 18.553 17.0031 17.9999 17.0031H16.4155L18.7093 14.7094C18.9968 14.4219 19.0811 13.9937 18.9249 13.6187C18.7686 13.2437 18.4061 13 17.9999 13H13.9999C13.4468 13 12.9999 13.4469 12.9999 14ZM15.9999 5C15.6218 5 15.2749 5.2125 15.1061 5.55313L13.1061 9.55312L12.6061 10.5531C12.3593 11.0469 12.5593 11.6469 13.053 11.8938C13.5468 12.1406 14.1468 11.9406 14.3936 11.4469L14.6186 11H17.3811L17.6061 11.4469C17.853 11.9406 18.453 12.1406 18.9468 11.8938C19.4405 11.6469 19.6405 11.0469 19.3936 10.5531L18.8936 9.55312L16.8936 5.55313C16.7249 5.2125 16.378 5 15.9999 5ZM15.3686 9.5L15.9999 8.2375L16.6311 9.5H15.3686Z" fill="black"/>
</svg>
