<svg width="24" height="24" viewBox="0 0 24 24" fill="none" xmlns="http://www.w3.org/2000/svg">
<path d="M14.9999 15C14.4468 15 13.9999 15.4469 13.9999 16C13.9999 16.5531 14.4468 17 14.9999 17H19.9999C20.553 17 20.9999 16.5531 20.9999 16V11C20.9999 10.4469 20.553 10 19.9999 10C19.4468 10 18.9999 10.4469 18.9999 11V13.5844L13.7062 8.29375C13.3155 7.90312 12.6812 7.90312 12.2905 8.29375L8.9999 11.5844L4.70615 7.29375C4.31553 6.90312 3.68115 6.90312 3.29053 7.29375C2.8999 7.68437 2.8999 8.31875 3.29053 8.70937L8.29053 13.7094C8.68115 14.1 9.31553 14.1 9.70615 13.7094L12.9999 10.4156L17.5843 15H14.9999Z" fill="black"/>
</svg>
