<svg width="24" height="24" viewBox="0 0 24 24" fill="none" xmlns="http://www.w3.org/2000/svg">
<path d="M8 19C8.28125 19 8.54687 18.8813 8.7375 18.675L11.4875 15.675C11.8594 15.2688 11.8344 14.6344 11.425 14.2625C11.0156 13.8906 10.3844 13.9156 10.0125 14.325L9 15.4281V6C9 5.44687 8.55312 5 8 5C7.44687 5 7 5.44687 7 6V15.4281L5.9875 14.325C5.61562 13.9187 4.98125 13.8906 4.575 14.2625C4.16875 14.6344 4.14062 15.2688 4.5125 15.675L7.2625 18.675C7.45312 18.8813 7.71875 19 8 19ZM13 15.5V17.5C13 18.3281 13.6719 19 14.5 19H16.5C17.3281 19 18 18.3281 18 17.5V15.5C18 14.6719 17.3281 14 16.5 14H14.5C13.6719 14 13 14.6719 13 15.5ZM14.5 5C13.6719 5 13 5.67188 13 6.5V10.5C13 11.3281 13.6719 12 14.5 12H18.5C19.3281 12 20 11.3281 20 10.5V6.5C20 5.67188 19.3281 5 18.5 5H14.5Z" fill="black"/>
</svg>
