<svg width="24" height="24" viewBox="0 0 24 24" fill="none" xmlns="http://www.w3.org/2000/svg">
<path d="M5.2937 11.2941C4.90308 11.6848 4.90308 12.3191 5.2937 12.7098L10.2937 17.7098C10.6843 18.1004 11.3187 18.1004 11.7093 17.7098C12.1 17.3191 12.1 16.6848 11.7093 16.2941L7.41558 12.0004L11.7062 7.70664C12.0968 7.31602 12.0968 6.68164 11.7062 6.29102C11.3156 5.90039 10.6812 5.90039 10.2906 6.29102L5.29058 11.291L5.2937 11.2941ZM16.2937 6.29414L11.2937 11.2941C10.9031 11.6848 10.9031 12.3191 11.2937 12.7098L16.2937 17.7098C16.6843 18.1004 17.3187 18.1004 17.7093 17.7098C18.1 17.3191 18.1 16.6848 17.7093 16.2941L13.4156 12.0004L17.7062 7.70664C18.0968 7.31602 18.0968 6.68164 17.7062 6.29102C17.3156 5.90039 16.6812 5.90039 16.2906 6.29102L16.2937 6.29414Z" fill="black"/>
</svg>
