<svg width="24" height="24" viewBox="0 0 24 24" fill="none" xmlns="http://www.w3.org/2000/svg">
<path d="M12.7063 5.29376C12.3156 4.90314 11.6813 4.90314 11.2906 5.29376L7.29062 9.29376C6.9 9.68439 6.9 10.3188 7.29062 10.7094C7.68125 11.1 8.31562 11.1 8.70625 10.7094L11 8.41564V10.5V14C11 14.5531 11.4469 15 12 15C12.5531 15 13 14.5531 13 14V10.5V8.41564L15.2937 10.7094C15.6844 11.1 16.3188 11.1 16.7094 10.7094C17.1 10.3188 17.1 9.68439 16.7094 9.29376L12.7094 5.29376H12.7063ZM7 17C6.44687 17 6 17.4469 6 18C6 18.5531 6.44687 19 7 19H17C17.5531 19 18 18.5531 18 18C18 17.4469 17.5531 17 17 17H7Z" fill="black"/>
</svg>
