<svg width="24" height="24" viewBox="0 0 24 24" fill="none" xmlns="http://www.w3.org/2000/svg">
<path d="M7.15307 16.8469C7.11245 16.8062 6.76557 16.3219 7.2562 14.8469C7.36557 14.5219 7.5062 14.1781 7.6812 13.8187C8.0437 14.2625 8.44057 14.7031 8.8687 15.1281C9.29682 15.5531 9.73432 15.9531 10.1781 16.3156C9.82182 16.4906 9.47807 16.6344 9.15307 16.7406C7.67807 17.2312 7.1937 16.8844 7.15307 16.8437V16.8469ZM8.80307 12C9.22495 11.4281 9.7187 10.85 10.2843 10.2844C10.8499 9.71874 11.4281 9.22499 11.9999 8.80312C12.5718 9.22499 13.1499 9.71874 13.7156 10.2844C14.2812 10.85 14.7749 11.4281 15.1968 12C14.7749 12.5719 14.2812 13.15 13.7156 13.7156C13.1499 14.2812 12.5718 14.775 11.9999 15.1969C11.4281 14.775 10.8499 14.2812 10.2843 13.7156C9.7187 13.15 9.22495 12.5719 8.80307 12ZM10.1812 7.68437C9.73745 8.04687 9.29682 8.44374 8.87182 8.87187C8.44682 9.29999 8.04682 9.73749 7.68432 10.1812C7.50932 9.82499 7.36557 9.48124 7.25932 9.15624C6.7687 7.68124 7.11557 7.19687 7.1562 7.15624C7.19682 7.11562 7.6812 6.76874 9.1562 7.25937C9.4812 7.36874 9.82495 7.50937 10.1812 7.68437ZM11.9999 6.39999C9.43432 4.86249 6.96557 4.51562 5.74057 5.74062C4.51557 6.96562 4.86245 9.43437 6.39995 12C4.86245 14.5656 4.51557 17.0344 5.74057 18.2594C6.96557 19.4844 9.43432 19.1375 11.9999 17.6C14.5656 19.1375 17.0343 19.4844 18.2593 18.2594C19.4843 17.0344 19.1374 14.5656 17.5999 12C19.1374 9.43437 19.4843 6.96562 18.2593 5.74062C17.0343 4.51562 14.5656 4.86249 11.9999 6.39999ZM13.8187 7.68437C14.1749 7.50937 14.5187 7.36562 14.8468 7.25937C16.3218 6.76874 16.8062 7.11562 16.8468 7.15624C16.8874 7.19687 17.2343 7.68124 16.7437 9.15624C16.6343 9.48124 16.4937 9.82499 16.3187 10.1812C15.9562 9.73749 15.5593 9.29687 15.1312 8.87187C14.7031 8.44687 14.2656 8.04687 13.8218 7.68437H13.8187ZM16.3156 13.8187C16.4906 14.175 16.6343 14.5187 16.7406 14.8469C17.2312 16.3219 16.8843 16.8062 16.8437 16.8469C16.8031 16.8875 16.3187 17.2344 14.8437 16.7437C14.5187 16.6344 14.1749 16.4937 13.8156 16.3187C14.2593 15.9562 14.6999 15.5594 15.1249 15.1312C15.5499 14.7031 15.9499 14.2656 16.3124 13.8219L16.3156 13.8187ZM12.9999 12C12.9999 11.7348 12.8946 11.4804 12.7071 11.2929C12.5195 11.1054 12.2652 11 11.9999 11C11.7347 11 11.4804 11.1054 11.2928 11.2929C11.1053 11.4804 10.9999 11.7348 10.9999 12C10.9999 12.2652 11.1053 12.5196 11.2928 12.7071C11.4804 12.8946 11.7347 13 11.9999 13C12.2652 13 12.5195 12.8946 12.7071 12.7071C12.8946 12.5196 12.9999 12.2652 12.9999 12Z" fill="black"/>
</svg>
