<svg width="24" height="24" viewBox="0 0 24 24" fill="none" xmlns="http://www.w3.org/2000/svg">
<path d="M7.73752 5.325C7.54689 5.11875 7.28127 5 7.00002 5C6.71877 5 6.45314 5.11875 6.26252 5.325L3.51252 8.325C3.14064 8.73125 3.16564 9.36563 3.57502 9.7375C3.98439 10.1094 4.61564 10.0844 4.98752 9.675L6.00002 8.57188V18C6.00002 18.5531 6.44689 19 7.00002 19C7.55314 19 8.00002 18.5531 8.00002 18V8.57188L9.01252 9.67812C9.38439 10.0844 10.0188 10.1125 10.425 9.74062C10.8313 9.36875 10.8594 8.73438 10.4875 8.32812L7.73752 5.32812V5.325ZM13 5C12.4469 5 12 5.44687 12 6C12 6.55313 12.4469 7 13 7H14C14.5531 7 15 6.55313 15 6C15 5.44687 14.5531 5 14 5H13ZM13 9C12.4469 9 12 9.44687 12 10C12 10.5531 12.4469 11 13 11H16C16.5531 11 17 10.5531 17 10C17 9.44687 16.5531 9 16 9H13ZM13 13C12.4469 13 12 13.4469 12 14C12 14.5531 12.4469 15 13 15H18C18.5531 15 19 14.5531 19 14C19 13.4469 18.5531 13 18 13H13ZM13 17C12.4469 17 12 17.4469 12 18C12 18.5531 12.4469 19 13 19H20C20.5531 19 21 18.5531 21 18C21 17.4469 20.5531 17 20 17H13Z" fill="black"/>
</svg>
