<svg width="24" height="24" viewBox="0 0 24 24" fill="none" xmlns="http://www.w3.org/2000/svg">
<path d="M8.73739 18.675C8.54677 18.8813 8.28114 19 7.99989 19C7.71864 19 7.45302 18.8813 7.26239 18.675L4.51239 15.675C4.14052 15.2688 4.16552 14.6344 4.57489 14.2625C4.98427 13.8906 5.61552 13.9156 5.98739 14.325L6.99989 15.4281V6C6.99989 5.44687 7.44677 5 7.99989 5C8.55302 5 8.99989 5.44687 8.99989 6V15.4281L10.0124 14.3219C10.3843 13.9156 11.0186 13.8875 11.4249 14.2594C11.8311 14.6312 11.8593 15.2656 11.4874 15.6719L8.73739 18.6719V18.675ZM12.9999 6C12.9999 5.44687 13.4468 5 13.9999 5H17.9999C18.403 5 18.7686 5.24375 18.9249 5.61875C19.0811 5.99375 18.9936 6.42187 18.7093 6.70937L16.4155 9H17.9999C18.553 9 18.9999 9.44687 18.9999 10C18.9999 10.5531 18.553 11 17.9999 11H13.9999C13.5968 11 13.2311 10.7562 13.0749 10.3812C12.9186 10.0062 13.0061 9.57813 13.2905 9.29063L15.5843 7H13.9999C13.4468 7 12.9999 6.55313 12.9999 6ZM15.9999 12C16.378 12 16.7249 12.2125 16.8936 12.5531L18.8936 16.5531L19.3936 17.5531C19.6405 18.0469 19.4405 18.6469 18.9468 18.8938C18.453 19.1406 17.853 18.9406 17.6061 18.4469L17.3811 18H14.6186L14.3936 18.4469C14.1468 18.9406 13.5468 19.1406 13.053 18.8938C12.5593 18.6469 12.3593 18.0469 12.6061 17.5531L13.1061 16.5531L15.1061 12.5531C15.2749 12.2156 15.6218 12 15.9999 12ZM15.3686 16.5H16.6311L15.9999 15.2375L15.3686 16.5Z" fill="black"/>
</svg>
