<svg width="24" height="24" viewBox="0 0 24 24" fill="none" xmlns="http://www.w3.org/2000/svg">
<path d="M13 5C13 4.44687 12.5531 4 12 4C11.4469 4 11 4.44687 11 5V6H10C9.59688 6 9.23125 6.24375 9.075 6.61875C8.91875 6.99375 9.00625 7.42187 9.29063 7.70937L11.2906 9.70937C11.6813 10.1 12.3156 10.1 12.7063 9.70937L14.7063 7.70937C14.9938 7.42187 15.0781 6.99375 14.9219 6.61875C14.7656 6.24375 14.4031 6 13.9969 6H13V5ZM11.2937 14.2937L9.29375 16.2937C9.00625 16.5812 8.92188 17.0094 9.07812 17.3844C9.23438 17.7594 9.59688 18.0031 10.0031 18.0031H11.0031V19.0031C11.0031 19.5563 11.45 20.0031 12.0031 20.0031C12.5563 20.0031 13.0031 19.5563 13.0031 19.0031V18H14.0031C14.4063 18 14.7719 17.7563 14.9281 17.3813C15.0844 17.0063 14.9969 16.5781 14.7125 16.2906L12.7125 14.2906C12.3219 13.9 11.6875 13.9 11.2969 14.2906L11.2937 14.2937ZM6 11C5.73478 11 5.48043 11.1054 5.29289 11.2929C5.10536 11.4804 5 11.7348 5 12C5 12.2652 5.10536 12.5196 5.29289 12.7071C5.48043 12.8946 5.73478 13 6 13C6.26522 13 6.51957 12.8946 6.70711 12.7071C6.89464 12.5196 7 12.2652 7 12C7 11.7348 6.89464 11.4804 6.70711 11.2929C6.51957 11.1054 6.26522 11 6 11ZM9 11C8.73478 11 8.48043 11.1054 8.29289 11.2929C8.10536 11.4804 8 11.7348 8 12C8 12.2652 8.10536 12.5196 8.29289 12.7071C8.48043 12.8946 8.73478 13 9 13C9.26522 13 9.51957 12.8946 9.70711 12.7071C9.89464 12.5196 10 12.2652 10 12C10 11.7348 9.89464 11.4804 9.70711 11.2929C9.51957 11.1054 9.26522 11 9 11ZM12 13C12.2652 13 12.5196 12.8946 12.7071 12.7071C12.8946 12.5196 13 12.2652 13 12C13 11.7348 12.8946 11.4804 12.7071 11.2929C12.5196 11.1054 12.2652 11 12 11C11.7348 11 11.4804 11.1054 11.2929 11.2929C11.1054 11.4804 11 11.7348 11 12C11 12.2652 11.1054 12.5196 11.2929 12.7071C11.4804 12.8946 11.7348 13 12 13ZM15 11C14.7348 11 14.4804 11.1054 14.2929 11.2929C14.1054 11.4804 14 11.7348 14 12C14 12.2652 14.1054 12.5196 14.2929 12.7071C14.4804 12.8946 14.7348 13 15 13C15.2652 13 15.5196 12.8946 15.7071 12.7071C15.8946 12.5196 16 12.2652 16 12C16 11.7348 15.8946 11.4804 15.7071 11.2929C15.5196 11.1054 15.2652 11 15 11ZM17 12C17 12.2652 17.1054 12.5196 17.2929 12.7071C17.4804 12.8946 17.7348 13 18 13C18.2652 13 18.5196 12.8946 18.7071 12.7071C18.8946 12.5196 19 12.2652 19 12C19 11.7348 18.8946 11.4804 18.7071 11.2929C18.5196 11.1054 18.2652 11 18 11C17.7348 11 17.4804 11.1054 17.2929 11.2929C17.1054 11.4804 17 11.7348 17 12Z" fill="black"/>
</svg>
