<svg width="24" height="24" viewBox="0 0 24 24" fill="none" xmlns="http://www.w3.org/2000/svg">
<path d="M8.73752 18.675C8.54689 18.8813 8.28127 19 8.00002 19C7.71877 19 7.45314 18.8813 7.26251 18.675L4.51252 15.675C4.14064 15.2688 4.16564 14.6344 4.57502 14.2625C4.98439 13.8906 5.61564 13.9156 5.98752 14.325L7.00002 15.4281V6C7.00002 5.44687 7.44689 5 8.00002 5C8.55314 5 9.00002 5.44687 9.00002 6V15.4281L10.0125 14.3219C10.3844 13.9156 11.0188 13.8875 11.425 14.2594C11.8313 14.6312 11.8594 15.2656 11.4875 15.6719L8.73752 18.6719V18.675ZM13 6C13 5.44687 13.4469 5 14 5H18C18.4031 5 18.7688 5.24375 18.925 5.61875C19.0813 5.99375 18.9938 6.42187 18.7094 6.70937L16.4156 9H18C18.5531 9 19 9.44687 19 10C19 10.5531 18.5531 11 18 11H14C13.5969 11 13.2313 10.7562 13.075 10.3812C12.9188 10.0062 13.0063 9.57813 13.2906 9.29063L15.5844 7H14C13.4469 7 13 6.55313 13 6ZM16 12C16.3781 12 16.725 12.2125 16.8938 12.5531L18.8938 16.5531L19.3938 17.5531C19.6406 18.0469 19.4406 18.6469 18.9469 18.8938C18.4531 19.1406 17.8531 18.9406 17.6063 18.4469L17.3813 18H14.6188L14.3938 18.4469C14.1469 18.9406 13.5469 19.1406 13.0531 18.8938C12.5594 18.6469 12.3594 18.0469 12.6063 17.5531L13.1063 16.5531L15.1063 12.5531C15.275 12.2156 15.6219 12 16 12ZM15.3688 16.5H16.6313L16 15.2375L15.3688 16.5Z" fill="black"/>
</svg>
