<svg width="24" height="24" viewBox="0 0 24 24" fill="none" xmlns="http://www.w3.org/2000/svg">
<path d="M11.9999 16.4625C11.6312 16.6219 11.2687 16.7656 10.9093 16.8844C11.4312 17.9406 11.8781 18 11.9999 18C12.1218 18 12.5656 17.9406 13.0906 16.8844C12.7343 16.7625 12.3687 16.6219 11.9999 16.4625ZM17.9374 12C18.9687 13.4125 19.3218 14.8406 18.6749 16C18.0437 17.1344 16.7218 17.5406 15.0749 17.35C14.3874 18.9781 13.3374 20 11.9999 20C10.6624 20 9.61245 18.9781 8.92495 17.35C7.27807 17.5406 5.9562 17.1375 5.32495 16C4.67807 14.8406 5.0312 13.4125 6.06245 12C5.0312 10.5875 4.67807 9.15938 5.32495 8C5.9562 6.86562 7.27807 6.45938 8.92495 6.65C9.61245 5.02188 10.6624 4 11.9999 4C13.3374 4 14.3874 5.02188 15.0749 6.65C16.7218 6.45938 18.0437 6.8625 18.6749 8C19.3218 9.15938 18.9687 10.5875 17.9374 12ZM15.8812 14.1062C15.8281 14.55 15.7593 14.9812 15.6718 15.3938C16.6656 15.4375 16.8781 15.1219 16.9281 15.0281C16.9999 14.8969 17.1468 14.4688 16.5562 13.525C16.3437 13.7219 16.1187 13.9156 15.8812 14.1062ZM15.6718 8.60938C15.7593 9.01875 15.8281 9.45 15.8812 9.89687C16.1187 10.0875 16.3437 10.2812 16.5562 10.4781C17.1468 9.53438 16.9999 9.10313 16.9281 8.975C16.8781 8.88438 16.6656 8.56875 15.6718 8.60938ZM13.0906 7.11562C12.5656 6.05937 12.1218 6 11.9999 6C11.8781 6 11.4343 6.05937 10.9093 7.11562C11.2656 7.2375 11.6312 7.37812 11.9999 7.5375C12.3687 7.37812 12.7312 7.23438 13.0906 7.11562ZM8.12182 9.89375C8.17494 9.44688 8.2437 9.01875 8.3312 8.60625C7.33745 8.5625 7.12495 8.87813 7.07495 8.97188C7.00307 9.10313 6.8562 9.53125 7.44682 10.475C7.65932 10.2781 7.88432 10.0844 8.12182 9.89375ZM7.4437 13.525C6.8562 14.4688 6.99995 14.8969 7.07182 15.0281C7.12182 15.1187 7.33432 15.4344 8.32807 15.3938C8.24057 14.9844 8.17182 14.5531 8.1187 14.1062C7.8812 13.9156 7.6562 13.7219 7.4437 13.525ZM14.4999 12C14.4999 11.337 14.2366 10.7011 13.7677 10.2322C13.2989 9.76339 12.663 9.5 11.9999 9.5C11.3369 9.5 10.701 9.76339 10.2322 10.2322C9.76334 10.7011 9.49995 11.337 9.49995 12C9.49995 12.663 9.76334 13.2989 10.2322 13.7678C10.701 14.2366 11.3369 14.5 11.9999 14.5C12.663 14.5 13.2989 14.2366 13.7677 13.7678C14.2366 13.2989 14.4999 12.663 14.4999 12ZM11.9999 11C12.2652 11 12.5195 11.1054 12.7071 11.2929C12.8946 11.4804 12.9999 11.7348 12.9999 12C12.9999 12.2652 12.8946 12.5196 12.7071 12.7071C12.5195 12.8946 12.2652 13 11.9999 13C11.7347 13 11.4804 12.8946 11.2928 12.7071C11.1053 12.5196 10.9999 12.2652 10.9999 12C10.9999 11.7348 11.1053 11.4804 11.2928 11.2929C11.4804 11.1054 11.7347 11 11.9999 11Z" fill="black"/>
</svg>
