<svg width="24" height="24" viewBox="0 0 24 24" fill="none" xmlns="http://www.w3.org/2000/svg">
<path d="M5.2937 11.2937C4.90308 11.6844 4.90308 12.3187 5.2937 12.7094L10.2937 17.7094C10.6843 18.1 11.3187 18.1 11.7093 17.7094C12.1 17.3187 12.1 16.6844 11.7093 16.2937L7.41558 12L11.7062 7.70624C12.0968 7.31562 12.0968 6.68124 11.7062 6.29062C11.3156 5.89999 10.6812 5.89999 10.2906 6.29062L5.29058 11.2906L5.2937 11.2937ZM16.2937 6.29374L11.2937 11.2937C10.9031 11.6844 10.9031 12.3187 11.2937 12.7094L16.2937 17.7094C16.6843 18.1 17.3187 18.1 17.7093 17.7094C18.1 17.3187 18.1 16.6844 17.7093 16.2937L13.4156 12L17.7062 7.70624C18.0968 7.31562 18.0968 6.68124 17.7062 6.29062C17.3156 5.89999 16.6812 5.89999 16.2906 6.29062L16.2937 6.29374Z" fill="black"/>
</svg>
