<svg width="24" height="24" viewBox="0 0 24 24" fill="none" xmlns="http://www.w3.org/2000/svg">
<path d="M12.7063 5.29376C12.3156 4.90314 11.6813 4.90314 11.2906 5.29376L7.29063 9.29376C6.9 9.68439 6.9 10.3188 7.29063 10.7094C7.68125 11.1 8.31562 11.1 8.70625 10.7094L11 8.41564V10.5V14C11 14.5531 11.4469 15 12 15C12.5531 15 13 14.5531 13 14V10.5V8.41564L15.2937 10.7094C15.6844 11.1 16.3188 11.1 16.7094 10.7094C17.1 10.3188 17.1 9.68439 16.7094 9.29376L12.7094 5.29376H12.7063ZM6 17C5.73478 17 5.48043 17.1054 5.29289 17.2929C5.10536 17.4804 5 17.7348 5 18C5 18.2652 5.10536 18.5196 5.29289 18.7071C5.48043 18.8947 5.73478 19 6 19C6.26522 19 6.51957 18.8947 6.70711 18.7071C6.89464 18.5196 7 18.2652 7 18C7 17.7348 6.89464 17.4804 6.70711 17.2929C6.51957 17.1054 6.26522 17 6 17ZM9 17C8.73478 17 8.48043 17.1054 8.29289 17.2929C8.10536 17.4804 8 17.7348 8 18C8 18.2652 8.10536 18.5196 8.29289 18.7071C8.48043 18.8947 8.73478 19 9 19C9.26522 19 9.51957 18.8947 9.70711 18.7071C9.89464 18.5196 10 18.2652 10 18C10 17.7348 9.89464 17.4804 9.70711 17.2929C9.51957 17.1054 9.26522 17 9 17ZM13 18C13 17.7348 12.8946 17.4804 12.7071 17.2929C12.5196 17.1054 12.2652 17 12 17C11.7348 17 11.4804 17.1054 11.2929 17.2929C11.1054 17.4804 11 17.7348 11 18C11 18.2652 11.1054 18.5196 11.2929 18.7071C11.4804 18.8947 11.7348 19 12 19C12.2652 19 12.5196 18.8947 12.7071 18.7071C12.8946 18.5196 13 18.2652 13 18ZM15 17C14.7348 17 14.4804 17.1054 14.2929 17.2929C14.1054 17.4804 14 17.7348 14 18C14 18.2652 14.1054 18.5196 14.2929 18.7071C14.4804 18.8947 14.7348 19 15 19C15.2652 19 15.5196 18.8947 15.7071 18.7071C15.8946 18.5196 16 18.2652 16 18C16 17.7348 15.8946 17.4804 15.7071 17.2929C15.5196 17.1054 15.2652 17 15 17ZM17 18C17 18.2652 17.1054 18.5196 17.2929 18.7071C17.4804 18.8947 17.7348 19 18 19C18.2652 19 18.5196 18.8947 18.7071 18.7071C18.8946 18.5196 19 18.2652 19 18C19 17.7348 18.8946 17.4804 18.7071 17.2929C18.5196 17.1054 18.2652 17 18 17C17.7348 17 17.4804 17.1054 17.2929 17.2929C17.1054 17.4804 17 17.7348 17 18Z" fill="black"/>
</svg>
