<svg width="24" height="24" viewBox="0 0 24 24" fill="none" xmlns="http://www.w3.org/2000/svg">
<path d="M18.7063 8.70627C19.0969 8.31565 19.0969 7.68127 18.7063 7.29065L15.7063 4.29065C15.3156 3.90002 14.6812 3.90002 14.2906 4.29065C13.9 4.68127 13.9 5.31565 14.2906 5.70627L15.5844 7.00002H6C5.44687 7.00002 5 7.4469 5 8.00002C5 8.55315 5.44687 9.00002 6 9.00002H15.5844L14.2906 10.2938C13.9 10.6844 13.9 11.3188 14.2906 11.7094C14.6812 12.1 15.3156 12.1 15.7063 11.7094L18.7063 8.7094V8.70627ZM8.29063 19.7063C8.68125 20.0969 9.31563 20.0969 9.70625 19.7063C10.0969 19.3156 10.0969 18.6813 9.70625 18.2906L8.41563 17H18C18.5531 17 19 16.5532 19 16C19 15.4469 18.5531 15 18 15H8.41563L9.70937 13.7063C10.1 13.3156 10.1 12.6813 9.70937 12.2906C9.31875 11.9 8.68438 11.9 8.29375 12.2906L5.29375 15.2906C4.90312 15.6813 4.90312 16.3156 5.29375 16.7063L8.29375 19.7063H8.29063Z" fill="black"/>
</svg>
