<svg width="24" height="24" viewBox="0 0 24 24" fill="none" xmlns="http://www.w3.org/2000/svg">
<path d="M12 18C8.6875 18 6 15.3125 6 12C6 11.4468 5.55313 11 5 11C4.44687 11 4 11.4468 4 12C4 16.4187 7.58125 20 12 20C16.4187 20 20 16.4187 20 12C20 11.4468 19.5531 11 19 11C18.4469 11 18 11.4468 18 12C18 15.3125 15.3125 18 12 18ZM7.79375 7.7937C7.40313 8.18433 7.40313 8.8187 7.79375 9.20933C8.18437 9.59995 8.81875 9.59995 9.20937 9.20933L11 7.41558V14C11 14.5531 11.4469 15 12 15C12.5531 15 13 14.5531 13 14V7.41558L14.7937 9.20933C15.1844 9.59995 15.8188 9.59995 16.2094 9.20933C16.6 8.8187 16.6 8.18433 16.2094 7.7937L12.7094 4.2937C12.3188 3.90308 11.6844 3.90308 11.2937 4.2937L7.79375 7.7937Z" fill="black"/>
</svg>
