<svg width="24" height="24" viewBox="0 0 24 24" fill="none" xmlns="http://www.w3.org/2000/svg">
<path d="M4.29365 4.29376C4.68428 3.90314 5.31553 3.90314 5.70615 4.29376L8.9999 7.58439V6.00001C8.9999 5.44689 9.44678 5.00001 9.9999 5.00001C10.553 5.00001 10.9999 5.44689 10.9999 6.00001V10C10.9999 10.5531 10.553 11 9.9999 11H5.9999C5.44678 11 4.9999 10.5531 4.9999 10C4.9999 9.44689 5.44678 9.00001 5.9999 9.00001H7.58428L4.29365 5.70626C3.90303 5.31564 3.90303 4.68439 4.29365 4.29376ZM18.2937 4.29376C18.6843 3.90314 19.3187 3.90314 19.7093 4.29376C20.0999 4.68439 20.0999 5.31876 19.7093 5.70939L16.4155 9.00001H17.9999C18.553 9.00001 18.9999 9.44689 18.9999 10C18.9999 10.5531 18.553 11 17.9999 11H13.9999C13.4468 11 12.9999 10.5531 12.9999 10V6.00001C12.9999 5.44689 13.4468 5.00001 13.9999 5.00001C14.553 5.00001 14.9999 5.44689 14.9999 6.00001V7.58439L18.2937 4.29376ZM4.9999 14C4.9999 13.4469 5.44678 13 5.9999 13H9.9999C10.553 13 10.9999 13.4469 10.9999 14V18C10.9999 18.5531 10.553 19 9.9999 19C9.44678 19 8.9999 18.5531 8.9999 18V16.4156L5.70615 19.7063C5.31553 20.0969 4.68115 20.0969 4.29053 19.7063C3.8999 19.3156 3.8999 18.6813 4.29053 18.2906L7.58428 15H5.9999C5.44678 15 4.9999 14.5531 4.9999 14ZM12.9999 14C12.9999 13.4469 13.4468 13 13.9999 13H17.9999C18.553 13 18.9999 13.4469 18.9999 14C18.9999 14.5531 18.553 15 17.9999 15H16.4155L19.7062 18.2938C20.0968 18.6844 20.0968 19.3188 19.7062 19.7094C19.3155 20.1 18.6812 20.1 18.2905 19.7094L14.9999 16.4156V18C14.9999 18.5531 14.553 19 13.9999 19C13.4468 19 12.9999 18.5531 12.9999 18V14Z" fill="black"/>
</svg>
