<svg width="24" height="24" viewBox="0 0 24 24" fill="none" xmlns="http://www.w3.org/2000/svg">
<path d="M7.73752 18.675C7.54689 18.8813 7.28127 19 7.00002 19C6.71877 19 6.45314 18.8813 6.26252 18.675L3.51252 15.675C3.14064 15.2688 3.16564 14.6344 3.57502 14.2625C3.98439 13.8906 4.61564 13.9156 4.98752 14.325L6.00002 15.4281V6C6.00002 5.44687 6.44689 5 7.00002 5C7.55314 5 8.00002 5.44687 8.00002 6V15.4281L9.01252 14.3219C9.38439 13.9156 10.0188 13.8875 10.425 14.2594C10.8313 14.6312 10.8594 15.2656 10.4875 15.6719L7.73752 18.6719V18.675ZM13 19C12.4469 19 12 18.5531 12 18C12 17.4469 12.4469 17 13 17H14C14.5531 17 15 17.4469 15 18C15 18.5531 14.5531 19 14 19H13ZM13 15C12.4469 15 12 14.5531 12 14C12 13.4469 12.4469 13 13 13H16C16.5531 13 17 13.4469 17 14C17 14.5531 16.5531 15 16 15H13ZM13 11C12.4469 11 12 10.5531 12 10C12 9.44687 12.4469 9 13 9H18C18.5531 9 19 9.44687 19 10C19 10.5531 18.5531 11 18 11H13ZM13 7C12.4469 7 12 6.55313 12 6C12 5.44687 12.4469 5 13 5H20C20.5531 5 21 5.44687 21 6C21 6.55313 20.5531 7 20 7H13Z" fill="black"/>
</svg>
