<svg width="24" height="24" viewBox="0 0 24 24" fill="none" xmlns="http://www.w3.org/2000/svg">
<path d="M8.5 4C7.67188 4 7 4.67188 7 5.5V7H4.5C3.67188 7 3 7.67188 3 8.5V18.5C3 19.3281 3.67188 20 4.5 20H7H8H11V17C11 16.4469 11.4469 16 12 16C12.5531 16 13 16.4469 13 17V20H16H17H19.5C20.3281 20 21 19.3281 21 18.5V11.5C21 10.6719 20.3281 10 19.5 10H17V5.5C17 4.67188 16.3281 4 15.5 4H8.5ZM14.5 14H13.5C13.225 14 13 13.775 13 13.5V12.5C13 12.225 13.225 12 13.5 12H14.5C14.775 12 15 12.225 15 12.5V13.5C15 13.775 14.775 14 14.5 14ZM19 16.5C19 16.775 18.775 17 18.5 17H17.5C17.225 17 17 16.775 17 16.5V15.5C17 15.225 17.225 15 17.5 15H18.5C18.775 15 19 15.225 19 15.5V16.5ZM6.5 14H5.5C5.225 14 5 13.775 5 13.5V12.5C5 12.225 5.225 12 5.5 12H6.5C6.775 12 7 12.225 7 12.5V13.5C7 13.775 6.775 14 6.5 14ZM7 16.5C7 16.775 6.775 17 6.5 17H5.5C5.225 17 5 16.775 5 16.5V15.5C5 15.225 5.225 15 5.5 15H6.5C6.775 15 7 15.225 7 15.5V16.5ZM10.5 14H9.5C9.225 14 9 13.775 9 13.5V12.5C9 12.225 9.225 12 9.5 12H10.5C10.775 12 11 12.225 11 12.5V13.5C11 13.775 10.775 14 10.5 14ZM15 6.5V7.5C15 7.775 14.775 8 14.5 8H13.5C13.225 8 13 7.775 13 7.5V6.5C13 6.225 13.225 6 13.5 6H14.5C14.775 6 15 6.225 15 6.5ZM10.5 6C10.775 6 11 6.225 11 6.5V7.5C11 7.775 10.775 8 10.5 8H9.5C9.225 8 9 7.775 9 7.5V6.5C9 6.225 9.225 6 9.5 6H10.5ZM15 10.5C15 10.775 14.775 11 14.5 11H13.5C13.225 11 13 10.775 13 10.5V9.5C13 9.225 13.225 9 13.5 9H14.5C14.775 9 15 9.225 15 9.5V10.5ZM18.5 14H17.5C17.225 14 17 13.775 17 13.5V12.5C17 12.225 17.225 12 17.5 12H18.5C18.775 12 19 12.225 19 12.5V13.5C19 13.775 18.775 14 18.5 14ZM7 10.5C7 10.775 6.775 11 6.5 11H5.5C5.225 11 5 10.775 5 10.5V9.5C5 9.225 5.225 9 5.5 9H6.5C6.775 9 7 9.225 7 9.5V10.5ZM10.5 11H9.5C9.225 11 9 10.775 9 10.5V9.5C9 9.225 9.225 9 9.5 9H10.5C10.775 9 11 9.225 11 9.5V10.5C11 10.775 10.775 11 10.5 11Z" fill="black"/>
</svg>
