<svg width="24" height="24" viewBox="0 0 24 24" fill="none" xmlns="http://www.w3.org/2000/svg">
<path d="M16.0719 8.99999H14.5C13.9469 8.99999 13.5 9.44686 13.5 9.99999C13.5 10.5531 13.9469 11 14.5 11H18.5C19.0531 11 19.5 10.5531 19.5 9.99999V5.99999C19.5 5.44686 19.0531 4.99999 18.5 4.99999C17.9469 4.99999 17.5 5.44686 17.5 5.99999V7.59999L16.95 7.04999C14.2156 4.31561 9.78438 4.31561 7.05 7.04999C4.31563 9.78436 4.31563 14.2156 7.05 16.95C9.78438 19.6844 14.2156 19.6844 16.95 16.95C17.3406 16.5594 17.3406 15.925 16.95 15.5344C16.5594 15.1437 15.925 15.1437 15.5344 15.5344C13.5813 17.4875 10.4156 17.4875 8.4625 15.5344C6.50938 13.5812 6.50938 10.4156 8.4625 8.46249C10.4156 6.50936 13.5813 6.50936 15.5344 8.46249L16.0719 8.99999Z" fill="black"/>
</svg>
