<svg width="24" height="24" viewBox="0 0 24 24" fill="none" xmlns="http://www.w3.org/2000/svg">
<path d="M4.29365 4.2937C4.68428 3.90308 5.31553 3.90308 5.70615 4.2937L8.9999 7.58433V5.99995C8.9999 5.44683 9.44678 4.99995 9.9999 4.99995C10.553 4.99995 10.9999 5.44683 10.9999 5.99995V9.99995C10.9999 10.5531 10.553 11 9.9999 11H5.9999C5.44678 11 4.9999 10.5531 4.9999 9.99995C4.9999 9.44683 5.44678 8.99995 5.9999 8.99995H7.58428L4.29365 5.7062C3.90303 5.31558 3.90303 4.68433 4.29365 4.2937ZM18.2937 4.2937C18.6843 3.90308 19.3187 3.90308 19.7093 4.2937C20.0999 4.68433 20.0999 5.3187 19.7093 5.70933L16.4155 8.99995H17.9999C18.553 8.99995 18.9999 9.44683 18.9999 9.99995C18.9999 10.5531 18.553 11 17.9999 11H13.9999C13.4468 11 12.9999 10.5531 12.9999 9.99995V5.99995C12.9999 5.44683 13.4468 4.99995 13.9999 4.99995C14.553 4.99995 14.9999 5.44683 14.9999 5.99995V7.58433L18.2937 4.2937ZM4.9999 14C4.9999 13.4468 5.44678 13 5.9999 13H9.9999C10.553 13 10.9999 13.4468 10.9999 14V18C10.9999 18.5531 10.553 19 9.9999 19C9.44678 19 8.9999 18.5531 8.9999 18V16.4156L5.70615 19.7062C5.31553 20.0968 4.68115 20.0968 4.29053 19.7062C3.8999 19.3156 3.8999 18.6812 4.29053 18.2906L7.58428 15H5.9999C5.44678 15 4.9999 14.5531 4.9999 14ZM12.9999 14C12.9999 13.4468 13.4468 13 13.9999 13H17.9999C18.553 13 18.9999 13.4468 18.9999 14C18.9999 14.5531 18.553 15 17.9999 15H16.4155L19.7062 18.2937C20.0968 18.6843 20.0968 19.3187 19.7062 19.7093C19.3155 20.1 18.6812 20.1 18.2905 19.7093L14.9999 16.4156V18C14.9999 18.5531 14.553 19 13.9999 19C13.4468 19 12.9999 18.5531 12.9999 18V14Z" fill="black"/>
</svg>
