<svg width="24" height="24" viewBox="0 0 24 24" fill="none" xmlns="http://www.w3.org/2000/svg">
<path d="M12 17.9992C8.6875 17.9992 6 15.3117 6 11.9992C6 11.4461 5.55313 10.9992 5 10.9992C4.44687 10.9992 4 11.4461 4 11.9992C4 16.418 7.58125 19.9992 12 19.9992C16.4187 19.9992 20 16.418 20 11.9992C20 11.4461 19.5531 10.9992 19 10.9992C18.4469 10.9992 18 11.4461 18 11.9992C18 15.3117 15.3125 17.9992 12 17.9992ZM7.79375 7.79297C7.40313 8.18359 7.40313 8.81797 7.79375 9.20859C8.18438 9.59922 8.81875 9.59922 9.20937 9.20859L11 7.41484V13.9992C11 14.5523 11.4469 14.9992 12 14.9992C12.5531 14.9992 13 14.5523 13 13.9992V7.41484L14.7937 9.20859C15.1844 9.59922 15.8188 9.59922 16.2094 9.20859C16.6 8.81797 16.6 8.18359 16.2094 7.79297L12.7094 4.29297C12.3188 3.90234 11.6844 3.90234 11.2937 4.29297L7.79375 7.79297Z" fill="black"/>
</svg>
