<svg width="24" height="24" viewBox="0 0 24 24" fill="none" xmlns="http://www.w3.org/2000/svg">
<path d="M4.05019 10.6836C3.87519 11.2086 4.15956 11.7742 4.68144 11.9492C5.20331 12.1242 5.77206 11.8398 5.94706 11.318C6.40956 9.93359 7.70331 8.99922 9.16268 8.99922H14.5846L13.2908 10.293C12.9002 10.6836 12.9002 11.318 13.2908 11.7086C13.6814 12.0992 14.3158 12.0992 14.7064 11.7086L17.7064 8.70859C18.0971 8.31797 18.0971 7.68359 17.7064 7.29297L14.7064 4.29297C14.3158 3.90234 13.6814 3.90234 13.2908 4.29297C12.9002 4.68359 12.9002 5.31797 13.2908 5.70859L14.5846 6.99922H9.16268C6.84394 6.99922 4.78456 8.48359 4.05019 10.6836ZM19.9471 13.3148C20.1221 12.7898 19.8377 12.2242 19.3158 12.0492C18.7939 11.8742 18.2252 12.1586 18.0502 12.6805C17.5908 14.0648 16.2971 14.9992 14.8377 14.9992H9.41581L10.7096 13.7055C11.1002 13.3148 11.1002 12.6805 10.7096 12.2898C10.3189 11.8992 9.68456 11.8992 9.29393 12.2898L6.29394 15.2898C5.90331 15.6805 5.90331 16.3148 6.29394 16.7055L9.29393 19.7055C9.68456 20.0961 10.3189 20.0961 10.7096 19.7055C11.1002 19.3148 11.1002 18.6805 10.7096 18.2898L9.41581 16.9992H14.8377C17.1564 16.9992 19.2158 15.5148 19.9502 13.3148H19.9471Z" fill="black"/>
</svg>
