<svg width="24" height="24" viewBox="0 0 24 24" fill="none" xmlns="http://www.w3.org/2000/svg">
<path d="M18 12C18 8.6875 15.3125 6 12 6C11.4468 6 11 5.55313 11 5C11 4.44687 11.4468 4 12 4C16.4187 4 20 7.58125 20 12C20 16.4187 16.4187 20 12 20C11.4468 20 11 19.5531 11 19C11 18.4469 11.4468 18 12 18C15.3125 18 18 15.3125 18 12ZM7.7937 7.79375C8.18433 7.40313 8.8187 7.40313 9.20933 7.79375C9.59995 8.18437 9.59995 8.81875 9.20933 9.20937L7.41558 11H14C14.5531 11 15 11.4469 15 12C15 12.5531 14.5531 13 14 13H7.41558L9.20933 14.7937C9.59995 15.1844 9.59995 15.8188 9.20933 16.2094C8.8187 16.6 8.18433 16.6 7.7937 16.2094L4.2937 12.7094C3.90308 12.3188 3.90308 11.6844 4.2937 11.2937L7.7937 7.79375Z" fill="black"/>
</svg>
