<svg width="24" height="24" viewBox="0 0 24 24" fill="none" xmlns="http://www.w3.org/2000/svg">
<path d="M18.7062 12.7062C19.0968 12.3156 19.0968 11.6812 18.7062 11.2906L13.7062 6.29062C13.3155 5.89999 12.6812 5.89999 12.2905 6.29062C11.8999 6.68124 11.8999 7.31562 12.2905 7.70624L16.5843 12L12.2937 16.2937C11.903 16.6844 11.903 17.3187 12.2937 17.7094C12.6843 18.1 13.3187 18.1 13.7093 17.7094L18.7093 12.7094L18.7062 12.7062ZM7.70615 17.7062L12.7062 12.7062C13.0968 12.3156 13.0968 11.6812 12.7062 11.2906L7.70615 6.29062C7.31553 5.89999 6.68115 5.89999 6.29053 6.29062C5.8999 6.68124 5.8999 7.31562 6.29053 7.70624L10.5843 12L6.29365 16.2937C5.90303 16.6844 5.90303 17.3187 6.29365 17.7094C6.68428 18.1 7.31865 18.1 7.70928 17.7094L7.70615 17.7062Z" fill="black"/>
</svg>
