<svg width="24" height="24" viewBox="0 0 24 24" fill="none" xmlns="http://www.w3.org/2000/svg">
<path d="M8.70625 18.7063C8.31563 19.0969 7.68125 19.0969 7.29063 18.7063L4.29063 15.7063C3.9 15.3156 3.9 14.6812 4.29063 14.2906C4.68125 13.9 5.31563 13.9 5.70625 14.2906L7 15.5844V6C7 5.44687 7.44688 5 8 5C8.55313 5 9 5.44687 9 6V15.5844L10.2938 14.2906C10.6844 13.9 11.3188 13.9 11.7094 14.2906C12.1 14.6812 12.1 15.3156 11.7094 15.7063L8.70938 18.7063H8.70625ZM19.7063 8.29063C20.0969 8.68125 20.0969 9.31563 19.7063 9.70625C19.3156 10.0969 18.6813 10.0969 18.2906 9.70625L17 8.41563V18C17 18.5531 16.5531 19 16 19C15.4469 19 15 18.5531 15 18V8.41563L13.7063 9.70937C13.3156 10.1 12.6813 10.1 12.2906 9.70937C11.9 9.31875 11.9 8.68437 12.2906 8.29375L15.2906 5.29375C15.6813 4.90313 16.3156 4.90313 16.7063 5.29375L19.7063 8.29375V8.29063Z" fill="black"/>
</svg>
