<svg width="24" height="24" viewBox="0 0 24 24" fill="none" xmlns="http://www.w3.org/2000/svg">
<path d="M13.7062 4.29377C13.3156 3.90315 12.6812 3.90315 12.2906 4.29377L9.29058 7.29377C8.89995 7.6844 8.89995 8.31877 9.29058 8.7094L14 13.4156V16C14 16.5532 14.4468 17 15 17C18.8656 17 22 13.8656 22 10C22 9.4469 21.5531 9.00002 21 9.00002H18.4156L16.6656 7.25002L17.7093 6.20627C18.1 5.81565 18.1 5.18127 17.7093 4.79065L17.2093 4.29065C16.8187 3.90002 16.1843 3.90002 15.7937 4.29065L14.75 5.3344L13.7062 4.29377ZM16 13.875C17.4062 13.5125 18.5125 12.4063 18.875 11H19.9C19.5031 12.9594 17.9593 14.5031 16 14.9V13.875ZM9.62808 10.4563L2.2937 17.7938C1.90308 18.1844 1.90308 18.8188 2.2937 19.2094L2.7937 19.7094C3.18433 20.1 3.8187 20.1 4.20933 19.7094L11.5437 12.3719L9.62808 10.4563Z" fill="black"/>
</svg>
