<svg width="24" height="24" viewBox="0 0 24 24" fill="none" xmlns="http://www.w3.org/2000/svg">
<path d="M16.0719 9.00005H14.5C13.9469 9.00005 13.5 9.44692 13.5 10C13.5 10.5532 13.9469 11 14.5 11H18.5C19.0531 11 19.5 10.5532 19.5 10V6.00005C19.5 5.44692 19.0531 5.00005 18.5 5.00005C17.9469 5.00005 17.5 5.44692 17.5 6.00005V7.60005L16.95 7.05005C14.2156 4.31567 9.78436 4.31567 7.04999 7.05005C4.31561 9.78442 4.31561 14.2157 7.04999 16.95C9.78436 19.6844 14.2156 19.6844 16.95 16.95C17.3406 16.5594 17.3406 15.925 16.95 15.5344C16.5594 15.1438 15.925 15.1438 15.5344 15.5344C13.5812 17.4875 10.4156 17.4875 8.46249 15.5344C6.50936 13.5813 6.50936 10.4157 8.46249 8.46255C10.4156 6.50942 13.5812 6.50942 15.5344 8.46255L16.0719 9.00005Z" fill="black"/>
</svg>
