<svg width="24" height="24" viewBox="0 0 24 24" fill="none" xmlns="http://www.w3.org/2000/svg">
<path d="M4.99999 4.75C4.99999 5.16562 5.33437 5.5 5.74999 5.5H18.25C18.6656 5.5 19 5.16562 19 4.75C19 4.33437 18.6656 4 18.25 4H5.74999C5.33437 4 4.99999 4.33437 4.99999 4.75ZM5.49999 9C5.06874 9 4.65937 9.18437 4.37499 9.50625C4.09062 9.82812 3.95937 10.2594 4.01249 10.6875L5.01249 18.6875C5.10624 19.4375 5.74374 20 6.49999 20H17.5C18.2562 20 18.8937 19.4375 18.9875 18.6875L19.9875 10.6875C20.0406 10.2594 19.9094 9.83125 19.625 9.50938C19.3406 9.1875 18.9312 9.00313 18.5 9.00313H5.49999V9ZM17.75 14.75C17.75 17.0969 15.175 19 12 19C8.82499 19 6.24999 17.0969 6.24999 14.75C6.24999 12.4031 8.82499 10.5 12 10.5C15.175 10.5 17.75 12.4031 17.75 14.75ZM12 15.75C12.5531 15.75 13 15.4156 13 15C13 14.5844 12.5531 14.25 12 14.25C11.4469 14.25 11 14.5844 11 15C11 15.4156 11.4469 15.75 12 15.75ZM5.24999 6.5C4.83437 6.5 4.49999 6.83437 4.49999 7.25C4.49999 7.66563 4.83437 8 5.24999 8H18.75C19.1656 8 19.5 7.66563 19.5 7.25C19.5 6.83437 19.1656 6.5 18.75 6.5H5.24999Z" fill="black"/>
</svg>
