<svg width="24" height="24" viewBox="0 0 24 24" fill="none" xmlns="http://www.w3.org/2000/svg">
<path d="M19.7062 5.70627C20.0968 5.31565 20.0968 4.68127 19.7062 4.29065C19.3156 3.90002 18.6812 3.90002 18.2906 4.29065L14.5 8.0844V6.50002C14.5 5.9469 14.0531 5.50002 13.5 5.50002C12.9468 5.50002 12.5 5.9469 12.5 6.50002V10.5C12.5 11.0531 12.9468 11.5 13.5 11.5H17.5C18.0531 11.5 18.5 11.0531 18.5 10.5C18.5 9.9469 18.0531 9.50002 17.5 9.50002H15.9156L19.7062 5.70627ZM6.49995 12.5C5.94683 12.5 5.49995 12.9469 5.49995 13.5C5.49995 14.0532 5.94683 14.5 6.49995 14.5H8.08433L4.2937 18.2938C3.90308 18.6844 3.90308 19.3188 4.2937 19.7094C4.68433 20.1 5.3187 20.1 5.70933 19.7094L9.49995 15.9156V17.5C9.49995 18.0532 9.94683 18.5 10.5 18.5C11.0531 18.5 11.5 18.0532 11.5 17.5V13.5C11.5 12.9469 11.0531 12.5 10.5 12.5H6.49995Z" fill="black"/>
</svg>
