<svg width="24" height="24" viewBox="0 0 24 24" fill="none" xmlns="http://www.w3.org/2000/svg">
<path d="M17 7C17 6.44687 17.4468 6 18 6C18.5531 6 19 6.44687 19 7V17C19 17.5531 18.5531 18 18 18C17.4468 18 17 17.5531 17 17V7ZM5.2937 12.7063C4.90308 12.3156 4.90308 11.6813 5.2937 11.2906L9.2937 7.29063C9.68433 6.9 10.3187 6.9 10.7093 7.29063C11.1 7.68125 11.1 8.31563 10.7093 8.70625L8.41558 11H14C14.5531 11 15 11.4469 15 12C15 12.5531 14.5531 13 14 13H8.41558L10.7093 15.2937C11.1 15.6844 11.1 16.3188 10.7093 16.7094C10.3187 17.1 9.68433 17.1 9.2937 16.7094L5.2937 12.7094V12.7063Z" fill="black"/>
</svg>
