<svg width="24" height="24" viewBox="0 0 24 24" fill="none" xmlns="http://www.w3.org/2000/svg">
<path d="M14.0001 5C13.4469 5 13.0001 5.44687 13.0001 6C13.0001 6.55313 13.4469 7 14.0001 7H15.5844L5.2938 17.2937C4.90318 17.6844 4.90318 18.3188 5.2938 18.7094C5.68443 19.1 6.3188 19.1 6.70943 18.7094L17.0001 8.41563V10C17.0001 10.5531 17.4469 11 18.0001 11C18.5532 11 19.0001 10.5531 19.0001 10V6C19.0001 5.44687 18.5532 5 18.0001 5H14.0001ZM6.7063 5.29375C6.31568 4.90313 5.6813 4.90313 5.29068 5.29375C4.90005 5.68438 4.90318 6.31562 5.2938 6.70625L9.87818 11.2937L11.2938 9.87813L6.7063 5.29375ZM15.5844 17H14.0001C13.4469 17 13.0001 17.4469 13.0001 18C13.0001 18.5531 13.4469 19 14.0001 19H18.0001C18.5532 19 19.0001 18.5531 19.0001 18V14C19.0001 13.4469 18.5532 13 18.0001 13C17.4469 13 17.0001 13.4469 17.0001 14V15.5844L14.1219 12.7063L12.7063 14.1219L15.5844 17Z" fill="black"/>
</svg>
