<svg width="24" height="24" viewBox="0 0 24 24" fill="none" xmlns="http://www.w3.org/2000/svg">
<path d="M7 4C5.89688 4 5 4.89688 5 6V18C5 19.1031 5.89688 20 7 20H16C17.1031 20 18 19.1031 18 18V6C18 4.89688 17.1031 4 16 4H7ZM10.5 13H12.5C13.8813 13 15 14.1187 15 15.5C15 15.775 14.775 16 14.5 16H8.5C8.225 16 8 15.775 8 15.5C8 14.1187 9.11875 13 10.5 13ZM9.5 10C9.5 9.46957 9.71071 8.96086 10.0858 8.58579C10.4609 8.21071 10.9696 8 11.5 8C12.0304 8 12.5391 8.21071 12.9142 8.58579C13.2893 8.96086 13.5 9.46957 13.5 10C13.5 10.5304 13.2893 11.0391 12.9142 11.4142C12.5391 11.7893 12.0304 12 11.5 12C10.9696 12 10.4609 11.7893 10.0858 11.4142C9.71071 11.0391 9.5 10.5304 9.5 10ZM20 6.5C20 6.225 19.775 6 19.5 6C19.225 6 19 6.225 19 6.5V8.5C19 8.775 19.225 9 19.5 9C19.775 9 20 8.775 20 8.5V6.5ZM19.5 10C19.225 10 19 10.225 19 10.5V12.5C19 12.775 19.225 13 19.5 13C19.775 13 20 12.775 20 12.5V10.5C20 10.225 19.775 10 19.5 10ZM20 14.5C20 14.225 19.775 14 19.5 14C19.225 14 19 14.225 19 14.5V16.5C19 16.775 19.225 17 19.5 17C19.775 17 20 16.775 20 16.5V14.5Z" fill="black"/>
</svg>
