<svg width="24" height="24" viewBox="0 0 24 24" fill="none" xmlns="http://www.w3.org/2000/svg">
<path d="M8.2937 15.7066C8.68433 16.0973 9.3187 16.0973 9.70933 15.7066C10.1 15.316 10.1 14.6816 9.70933 14.291L7.41558 12.0004H17C17.5531 12.0004 18 12.4473 18 13.0004V18.0004C18 18.5535 18.4468 19.0004 19 19.0004C19.5531 19.0004 20 18.5535 20 18.0004V13.0004C20 11.3441 18.6562 10.0004 17 10.0004H7.41558L9.70933 7.70664C10.1 7.31602 10.1 6.68164 9.70933 6.29102C9.3187 5.90039 8.68433 5.90039 8.2937 6.29102L4.2937 10.291C3.90308 10.6816 3.90308 11.316 4.2937 11.7066L8.2937 15.7066Z" fill="black"/>
</svg>
