<svg width="24" height="24" viewBox="0 0 24 24" fill="none" xmlns="http://www.w3.org/2000/svg">
<path d="M12 6C8.6875 6 6 8.6875 6 12C6 15.3125 8.6875 18 12 18C12.5531 18 13 18.4469 13 19C13 19.5531 12.5531 20 12 20C7.58125 20 4 16.4187 4 12C4 7.58125 7.58125 4 12 4C16.4187 4 20 7.58125 20 12V13C20 14.6562 18.6562 16 17 16C16.0844 16 15.2625 15.5875 14.7125 14.9406C14 15.5969 13.0469 16 12 16C9.79063 16 8 14.2094 8 12C8 9.79063 9.79063 8 12 8C12.8719 8 13.6781 8.27813 14.3344 8.75313C14.5125 8.59688 14.7437 8.5 15 8.5C15.5531 8.5 16 8.94688 16 9.5V12V13C16 13.5531 16.4469 14 17 14C17.5531 14 18 13.5531 18 13V12C18 8.6875 15.3125 6 12 6ZM14 12C14 11.4696 13.7893 10.9609 13.4142 10.5858C13.0391 10.2107 12.5304 10 12 10C11.4696 10 10.9609 10.2107 10.5858 10.5858C10.2107 10.9609 10 11.4696 10 12C10 12.5304 10.2107 13.0391 10.5858 13.4142C10.9609 13.7893 11.4696 14 12 14C12.5304 14 13.0391 13.7893 13.4142 13.4142C13.7893 13.0391 14 12.5304 14 12Z" fill="black"/>
</svg>
