<svg width="24" height="24" viewBox="0 0 24 24" fill="none" xmlns="http://www.w3.org/2000/svg">
<path d="M2.29377 4.29376C2.6844 3.90314 3.31565 3.90314 3.70627 4.29376L7.00002 7.58439V7.00001C7.00002 6.44689 7.4469 6.00001 8.00002 6.00001C8.55315 6.00001 9.00002 6.44689 9.00002 7.00001V10C9.00002 10.1344 8.9719 10.2656 8.92502 10.3813C8.87502 10.4969 8.80627 10.6094 8.7094 10.7031L8.70627 10.7063C8.6094 10.8 8.50002 10.8719 8.3844 10.9219C8.26565 10.9719 8.13752 10.9969 8.00315 10.9969H5.00002C4.4469 10.9969 4.00002 10.55 4.00002 9.99689C4.00002 9.44376 4.4469 8.99689 5.00002 8.99689H5.5844L2.29377 5.70626C1.90315 5.31564 1.90315 4.68439 2.29377 4.29376ZM10 12C10 11.4696 10.2107 10.9609 10.5858 10.5858C10.9609 10.2107 11.4696 10 12 10C12.5305 10 13.0392 10.2107 13.4142 10.5858C13.7893 10.9609 14 11.4696 14 12C14 12.5304 13.7893 13.0392 13.4142 13.4142C13.0392 13.7893 12.5305 14 12 14C11.4696 14 10.9609 13.7893 10.5858 13.4142C10.2107 13.0392 10 12.5304 10 12ZM5.5844 15H5.00002C4.4469 15 4.00002 14.5531 4.00002 14C4.00002 13.4469 4.4469 13 5.00002 13H8.00002H8.00315C8.27815 13 8.52502 13.1125 8.70627 13.2906L8.7094 13.2938C8.80315 13.3906 8.87502 13.5 8.92502 13.6156C8.97502 13.7344 9.00002 13.8625 9.00002 13.9969V16.9969C9.00002 17.55 8.55315 17.9969 8.00002 17.9969C7.4469 17.9969 7.00002 17.55 7.00002 16.9969V16.4156L3.70627 19.7063C3.31565 20.0969 2.68127 20.0969 2.29065 19.7063C1.90002 19.3156 1.90002 18.6813 2.29065 18.2906L5.5844 15ZM15 7.00001C15 6.44689 15.4469 6.00001 16 6.00001C16.5532 6.00001 17 6.44689 17 7.00001V7.58439L20.2938 4.29376C20.6844 3.90314 21.3188 3.90314 21.7094 4.29376C22.1 4.68439 22.1 5.31876 21.7094 5.70939L18.4156 9.00001H19C19.5532 9.00001 20 9.44689 20 10C20 10.5531 19.5532 11 19 11H16C15.725 11 15.475 10.8875 15.2938 10.7094L15.2906 10.7063C15.1969 10.6094 15.125 10.5 15.075 10.3844C15.025 10.2688 15 10.1406 15 10.0031V10V7.00001ZM18.4156 15L21.7063 18.2938C22.0969 18.6844 22.0969 19.3188 21.7063 19.7094C21.3156 20.1 20.6813 20.1 20.2906 19.7094L17 16.4156V17C17 17.5531 16.5532 18 16 18C15.4469 18 15 17.5531 15 17V14V13.9969C15 13.8625 15.0281 13.7344 15.075 13.6156C15.125 13.4969 15.1969 13.3875 15.2906 13.2906C15.4719 13.1094 15.7188 13 15.9938 12.9969H15.9969H18.9969C19.55 12.9969 19.9969 13.4438 19.9969 13.9969C19.9969 14.55 19.55 14.9969 18.9969 14.9969H18.4156V15Z" fill="black"/>
</svg>
