<svg width="24" height="24" viewBox="0 0 24 24" fill="none" xmlns="http://www.w3.org/2000/svg">
<path d="M3.21243 4.15943C2.88743 3.90318 2.41556 3.96255 2.15931 4.28755C1.90306 4.61255 1.96243 5.08443 2.28743 5.34068L20.7874 19.8407C21.1124 20.0969 21.5843 20.0376 21.8406 19.7126C22.0968 19.3876 22.0374 18.9157 21.7124 18.6594L20.7749 17.9251C20.9187 17.6501 20.9999 17.3344 20.9999 17.0001V7.00005C20.9999 5.89693 20.1031 5.00005 18.9999 5.00005H4.99993C4.79056 5.00005 4.59056 5.0313 4.39993 5.09068L3.21243 4.15943ZM12.4999 11.4376V9.75005C12.4999 9.33443 12.8343 9.00005 13.2499 9.00005H14.9999C16.6562 9.00005 17.9999 10.3438 17.9999 12.0001C17.9999 13.1032 17.4062 14.0657 16.5187 14.5876L15.1249 13.4938C15.8968 13.4313 16.5031 12.7844 16.5031 12.0001C16.5031 11.1719 15.8312 10.5001 15.0031 10.5001H13.9999V12.6157L12.4999 11.4376ZM17.2312 19.0001L11.8218 14.7376C11.7593 14.8126 11.6781 14.8751 11.5874 14.9219C11.2156 15.1063 10.7656 14.9563 10.5812 14.5876L10.2874 13.9969H7.71556L7.42181 14.5876C7.23743 14.9594 6.78743 15.1094 6.41556 14.9219C6.04368 14.7344 5.89368 14.2876 6.08118 13.9157L7.40931 11.2594L2.99993 7.78755V17.0001C2.99993 18.1032 3.89681 19.0001 4.99993 19.0001H17.2312ZM9.29368 12.7438L8.61243 12.2063L8.34368 12.7438H9.29368Z" fill="black"/>
</svg>
