<svg width="24" height="24" viewBox="0 0 24 24" fill="none" xmlns="http://www.w3.org/2000/svg">
<path d="M18.3531 5.62188C18.3969 5.54688 18.4813 5.5 18.5688 5.5H20.25C20.6656 5.5 21 5.16563 21 4.75C21 4.33437 20.6656 4 20.25 4H18.5656C17.95 4 17.3813 4.32188 17.0656 4.85L16.3313 6.075C14.9969 6.37813 14 7.57187 14 9C14 9.4625 14.1031 9.9 14.2906 10.2906C13.9 10.1031 13.4625 10 13 10C12.1562 10 11.3938 10.35 10.8469 10.9094C10.3719 9.2375 8.83125 8 7.0125 8C4.25 8 2 10.2375 2 13C2 14.3813 3.11875 15.5 4.5 15.5H6.02812L4.1 18.8781C3.89375 19.2375 4.01875 19.6969 4.37812 19.9C4.7375 20.1031 5.19688 19.9812 5.4 19.6219L7.7625 15.4906C8.06562 15.4688 8.35937 15.4062 8.6375 15.3125L6.6 18.8781C6.39375 19.2375 6.51875 19.6969 6.87813 19.9C7.2375 20.1031 7.69688 19.9812 7.9 19.6219L10.6313 14.8438C10.775 15.0281 10.9375 15.1937 11.1219 15.3406L11.1062 15.3656L11.0969 15.3781L9.09688 18.8781C8.89063 19.2375 9.01562 19.6969 9.375 19.9C9.73438 20.1031 10.1938 19.9812 10.3969 19.6219L12.3938 16.1281L12.4969 15.9563C12.6594 15.9844 12.8281 15.9969 12.9969 15.9969C13.4219 15.9969 13.825 15.9094 14.1906 15.75L15.4281 16.9875C15.5469 17.1063 15.6406 17.25 15.7063 17.4062L16.5531 19.525C16.7063 19.9094 17.1437 20.0969 17.5281 19.9438C17.9125 19.7906 18.1 19.3531 17.9469 18.9688L17.1 16.85C16.9625 16.5031 16.7531 16.1906 16.4906 15.9281L15.3844 14.8219C15.4531 14.7344 15.5156 14.6406 15.575 14.5437L18.2875 16.4812C18.5031 16.6344 18.6625 16.8531 18.7469 17.1031L19.5406 19.4875C19.6719 19.8813 20.0969 20.0937 20.4906 19.9625C20.8844 19.8312 21.0969 19.4062 20.9656 19.0125L20.1719 16.6281C19.9875 16.0781 19.6344 15.5969 19.1625 15.2594L16.1906 13.1375L16.0063 13.0063V13C16.0063 12.5375 15.9031 12.1 15.7156 11.7094C16.1062 11.8969 16.5438 12 17.0063 12H19.0063C20.1094 12 21.0063 11.1031 21.0063 10C21.0063 8.15 19.7531 6.59688 18.05 6.1375L18.3594 5.62188H18.3531ZM18 8.25C18.1989 8.25 18.3897 8.32902 18.5303 8.46967C18.671 8.61032 18.75 8.80109 18.75 9C18.75 9.19891 18.671 9.38968 18.5303 9.53033C18.3897 9.67098 18.1989 9.75 18 9.75C17.8011 9.75 17.6103 9.67098 17.4697 9.53033C17.329 9.38968 17.25 9.19891 17.25 9C17.25 8.80109 17.329 8.61032 17.4697 8.46967C17.6103 8.32902 17.8011 8.25 18 8.25Z" fill="black"/>
</svg>
