<svg width="24" height="24" viewBox="0 0 24 24" fill="none" xmlns="http://www.w3.org/2000/svg">
<path d="M11.7937 4.79375C12.1844 4.40312 12.8188 4.40312 13.2094 4.79375C13.6 5.18437 13.6 5.81875 13.2094 6.20937L12.4156 7H17C18.6562 7 20 8.34375 20 10V11C20 11.5531 19.5531 12 19 12C18.4469 12 18 11.5531 18 11V10C18 9.44687 17.5531 9 17 9H12.4156L13.2094 9.79375C13.6 10.1844 13.6 10.8187 13.2094 11.2094C12.8188 11.6 12.1844 11.6 11.7937 11.2094L9.29375 8.70937C8.90312 8.31875 8.90312 7.68437 9.29375 7.29375L11.7937 4.79375ZM12.2094 12.7937L14.7094 15.2937C15.1 15.6844 15.1 16.3187 14.7094 16.7094L12.2094 19.2094C11.8188 19.6 11.1844 19.6 10.7937 19.2094C10.4031 18.8187 10.4031 18.1844 10.7937 17.7937L11.5844 17H7C6.44687 17 6 17.4469 6 18V19C6 19.5531 5.55313 20 5 20C4.44687 20 4 19.5531 4 19V18C4 16.3437 5.34375 15 7 15H11.5844L10.7906 14.2062C10.4 13.8156 10.4 13.1812 10.7906 12.7906C11.1813 12.4 11.8156 12.4 12.2063 12.7906L12.2094 12.7937ZM16 16C16 15.4696 16.2107 14.9609 16.5858 14.5858C16.9609 14.2107 17.4696 14 18 14C18.5304 14 19.0391 14.2107 19.4142 14.5858C19.7893 14.9609 20 15.4696 20 16C20 16.5304 19.7893 17.0391 19.4142 17.4142C19.0391 17.7893 18.5304 18 18 18C17.4696 18 16.9609 17.7893 16.5858 17.4142C16.2107 17.0391 16 16.5304 16 16ZM6 10C5.46957 10 4.96086 9.78928 4.58579 9.41421C4.21071 9.03914 4 8.53043 4 8C4 7.46956 4.21071 6.96086 4.58579 6.58578C4.96086 6.21071 5.46957 6 6 6C6.53043 6 7.03914 6.21071 7.41421 6.58578C7.78929 6.96086 8 7.46956 8 8C8 8.53043 7.78929 9.03914 7.41421 9.41421C7.03914 9.78928 6.53043 10 6 10Z" fill="black"/>
</svg>
