<svg width="24" height="24" viewBox="0 0 24 24" fill="none" xmlns="http://www.w3.org/2000/svg">
<path d="M12.7063 4.29376C12.3156 3.90314 11.6813 3.90314 11.2906 4.29376L8.29065 7.29376C7.90002 7.68439 7.90002 8.31876 8.29065 8.70939C8.68127 9.10001 9.31565 9.10001 9.70627 8.70939L11 7.41564V16.5844L9.70627 15.2938C9.31565 14.9031 8.68127 14.9031 8.29065 15.2938C7.90002 15.6844 7.90002 16.3188 8.29065 16.7094L11.2906 19.7094C11.6813 20.1 12.3156 20.1 12.7063 19.7094L15.7063 16.7094C16.0969 16.3188 16.0969 15.6844 15.7063 15.2938C15.3156 14.9031 14.6813 14.9031 14.2906 15.2938L13 16.5844V7.41564L14.2938 8.70939C14.6844 9.10001 15.3188 9.10001 15.7094 8.70939C16.1 8.31876 16.1 7.68439 15.7094 7.29376L12.7094 4.29376H12.7063Z" fill="black"/>
</svg>
