<svg width="24" height="24" viewBox="0 0 24 24" fill="none" xmlns="http://www.w3.org/2000/svg">
<path d="M6.70627 6.29376C6.31565 5.90314 5.68127 5.90314 5.29065 6.29376L2.29065 9.29376C1.90002 9.68439 1.90002 10.3188 2.29065 10.7094C2.68127 11.1 3.31565 11.1 3.70627 10.7094L5.00002 9.41564V14C5.00002 15.6563 6.34377 17 8.00002 17H11.5C12.0531 17 12.5 16.5531 12.5 16C12.5 15.4469 12.0531 15 11.5 15H8.00002C7.4469 15 7.00002 14.5531 7.00002 14V9.41564L8.29377 10.7094C8.6844 11.1 9.31877 11.1 9.7094 10.7094C10.1 10.3188 10.1 9.68439 9.7094 9.29376L6.7094 6.29376H6.70627ZM12.5 7.00001C11.9469 7.00001 11.5 7.44689 11.5 8.00001C11.5 8.55314 11.9469 9.00001 12.5 9.00001H16C16.5531 9.00001 17 9.44689 17 10V14.5844L15.7063 13.2906C15.3156 12.9 14.6813 12.9 14.2906 13.2906C13.9 13.6813 13.9 14.3156 14.2906 14.7063L17.2906 17.7063C17.6813 18.0969 18.3156 18.0969 18.7063 17.7063L21.7063 14.7063C22.0969 14.3156 22.0969 13.6813 21.7063 13.2906C21.3156 12.9 20.6813 12.9 20.2906 13.2906L19 14.5844V10C19 8.34376 17.6563 7.00001 16 7.00001H12.5Z" fill="black"/>
</svg>
