<svg width="24" height="24" viewBox="0 0 24 24" fill="none" xmlns="http://www.w3.org/2000/svg">
<path d="M3.21243 4.15955C2.88743 3.9033 2.41556 3.96268 2.15931 4.28768C1.90306 4.61268 1.96243 5.08455 2.28743 5.3408L20.7874 19.8408C21.1124 20.0971 21.5843 20.0377 21.8406 19.7127C22.0968 19.3877 22.0374 18.9158 21.7124 18.6596L20.7749 17.9252C20.9187 17.6502 20.9999 17.3346 20.9999 17.0002V7.00018C20.9999 5.89705 20.1031 5.00018 18.9999 5.00018H4.99993C4.79056 5.00018 4.59056 5.03143 4.39993 5.0908L3.21243 4.15955ZM12.4999 11.4377V9.75018C12.4999 9.33455 12.8343 9.00018 13.2499 9.00018H14.9999C16.6562 9.00018 17.9999 10.3439 17.9999 12.0002C17.9999 13.1033 17.4062 14.0658 16.5187 14.5877L15.1249 13.4939C15.8968 13.4314 16.5031 12.7846 16.5031 12.0002C16.5031 11.1721 15.8312 10.5002 15.0031 10.5002H13.9999V12.6158L12.4999 11.4377ZM17.2312 19.0002L11.8218 14.7377C11.7593 14.8127 11.6781 14.8752 11.5874 14.9221C11.2156 15.1064 10.7656 14.9564 10.5812 14.5877L10.2874 13.9971H7.71556L7.42181 14.5877C7.23743 14.9596 6.78743 15.1096 6.41556 14.9221C6.04368 14.7346 5.89368 14.2877 6.08118 13.9158L7.40931 11.2596L2.99993 7.78768V17.0002C2.99993 18.1033 3.89681 19.0002 4.99993 19.0002H17.2312ZM9.29368 12.7439L8.61243 12.2064L8.34368 12.7439H9.29368Z" fill="black"/>
</svg>
