<svg width="24" height="24" viewBox="0 0 24 24" fill="none" xmlns="http://www.w3.org/2000/svg">
<path d="M11.4155 4.16565C11.7749 3.9469 12.228 3.9469 12.5874 4.16565L13.1468 4.50627C13.3312 4.61877 13.5437 4.67502 13.7593 4.66877L14.4124 4.65315C14.8343 4.64377 15.2249 4.86877 15.428 5.23752L15.7405 5.81252C15.8437 6.00315 15.9999 6.15627 16.1874 6.2594L16.7624 6.5719C17.1312 6.77502 17.3593 7.16565 17.3468 7.58752L17.3312 8.24065C17.3249 8.45627 17.3843 8.66877 17.4937 8.85315L17.8343 9.41252C18.053 9.7719 18.053 10.225 17.8343 10.5844L17.4937 11.1438C17.3812 11.3281 17.3249 11.5406 17.3312 11.7563L17.3468 12.4094C17.3562 12.8313 17.1312 13.2219 16.7624 13.425L16.1874 13.7375C15.9968 13.8406 15.8437 13.9969 15.7405 14.1844L15.428 14.7594C15.2249 15.1281 14.8343 15.3563 14.4124 15.3438L13.7593 15.3281C13.5437 15.3219 13.3312 15.3813 13.1468 15.4907L12.5874 15.8313C12.228 16.05 11.7749 16.05 11.4155 15.8313L10.8562 15.4907C10.6718 15.3782 10.4593 15.3219 10.2437 15.3281L9.59053 15.3438C9.16865 15.3531 8.77803 15.1281 8.5749 14.7594L8.2624 14.1875C8.15928 13.9969 8.00303 13.8438 7.81553 13.7407L7.24053 13.4282C6.87178 13.225 6.64365 12.8344 6.65615 12.4125L6.67178 11.7594C6.67803 11.5438 6.61865 11.3313 6.50928 11.1469L6.16553 10.5844C5.94678 10.225 5.94678 9.7719 6.16553 9.41252L6.50615 8.85315C6.61865 8.66877 6.6749 8.45627 6.66865 8.24065L6.65303 7.58752C6.64365 7.16565 6.86865 6.77502 7.2374 6.5719L7.8124 6.26252C8.00303 6.1594 8.15615 6.00315 8.25928 5.81565L8.57178 5.24065C8.7749 4.8719 9.16553 4.64377 9.5874 4.65627L10.2405 4.6719C10.4562 4.67815 10.6687 4.61877 10.853 4.5094L11.4155 4.16565ZM14.4999 10C14.4999 9.33698 14.2365 8.7011 13.7677 8.23226C13.2988 7.76342 12.6629 7.50002 11.9999 7.50002C11.3369 7.50002 10.701 7.76342 10.2321 8.23226C9.76329 8.7011 9.4999 9.33698 9.4999 10C9.4999 10.6631 9.76329 11.299 10.2321 11.7678C10.701 12.2366 11.3369 12.5 11.9999 12.5C12.6629 12.5 13.2988 12.2366 13.7677 11.7678C14.2365 11.299 14.4999 10.6631 14.4999 10ZM8.0124 19.3875L8.7499 16.1875C9.02803 16.3031 9.33115 16.3625 9.64365 16.3563L10.2905 16.3406C10.2968 16.3406 10.303 16.3438 10.3093 16.3469L10.8593 16.6813C11.5593 17.1063 12.4374 17.1063 13.1374 16.6813L13.6905 16.3438C13.6968 16.3406 13.703 16.3375 13.7093 16.3375L14.3562 16.3531C14.6687 16.3594 14.9718 16.3 15.2499 16.1844L15.9874 19.3844C16.028 19.5563 15.9718 19.7375 15.8437 19.8594C15.7155 19.9813 15.5312 20.025 15.3624 19.9781L11.9999 19.0188L8.6374 19.9813C8.46865 20.0313 8.28428 19.9844 8.15615 19.8625C8.02803 19.7406 7.9749 19.5594 8.0124 19.3875Z" fill="black"/>
</svg>
