<svg width="24" height="24" viewBox="0 0 24 24" fill="none" xmlns="http://www.w3.org/2000/svg">
<path d="M14.2937 4.29297C14.6844 3.90234 15.3188 3.90234 15.7094 4.29297L18.7094 7.29297C19.1 7.68359 19.1 8.31797 18.7094 8.70859L15.7094 11.7086C15.3188 12.0992 14.6844 12.0992 14.2937 11.7086C13.9031 11.318 13.9031 10.6836 14.2937 10.293L15.5844 8.99922H9C7.89688 8.99922 7 9.89609 7 10.9992V11.9992C7 12.5523 6.55313 12.9992 6 12.9992C5.44687 12.9992 5 12.5523 5 11.9992V10.9992C5 8.78984 6.79063 6.99922 9 6.99922H15.5844L14.2937 5.70547C13.9031 5.31484 13.9031 4.68047 14.2937 4.28984V4.29297ZM11.2937 12.293C11.6844 11.9023 12.3187 11.9023 12.7094 12.293L15.7094 15.293C16.1 15.6836 16.1 16.318 15.7094 16.7086L12.7094 19.7086C12.3187 20.0992 11.6844 20.0992 11.2937 19.7086C10.9031 19.318 10.9031 18.6836 11.2937 18.293L12.5844 16.9992H8C7.44687 16.9992 7 17.4461 7 17.9992V18.9992C7 19.5523 6.55313 19.9992 6 19.9992C5.44687 19.9992 5 19.5523 5 18.9992V17.9992C5 16.343 6.34375 14.9992 8 14.9992H12.5844L11.2906 13.7055C10.9 13.3148 10.9 12.6805 11.2906 12.2898L11.2937 12.293Z" fill="black"/>
</svg>
