<svg width="24" height="24" viewBox="0 0 24 24" fill="none" xmlns="http://www.w3.org/2000/svg">
<path d="M8.73739 5.325C8.54677 5.11875 8.28114 5 7.99989 5C7.71864 5 7.45302 5.11875 7.26239 5.325L4.51239 8.325C4.14052 8.73125 4.16552 9.36563 4.57489 9.7375C4.98427 10.1094 5.61552 10.0844 5.98739 9.675L6.99989 8.57188V18C6.99989 18.5531 7.44677 19 7.99989 19C8.55302 19 8.99989 18.5531 8.99989 18V8.57188L10.0124 9.67812C10.3843 10.0844 11.0186 10.1125 11.4249 9.74062C11.8311 9.36875 11.8593 8.73438 11.4874 8.32812L8.73739 5.32812V5.325ZM16.8468 5.46875C16.6655 5.17812 16.3436 5 15.9999 5C15.6561 5 15.3343 5.17812 15.153 5.46875L12.653 9.46875C12.4593 9.77812 12.4499 10.1656 12.6249 10.4844C12.7999 10.8031 13.1374 11 13.4999 11H18.4999C18.8624 11 19.1968 10.8031 19.3749 10.4844C19.553 10.1656 19.5405 9.77812 19.3468 9.46875L16.8468 5.46875ZM12.9999 14.5V17.5C12.9999 18.3281 13.6718 19 14.4999 19H17.4999C18.328 19 18.9999 18.3281 18.9999 17.5V14.5C18.9999 13.6719 18.328 13 17.4999 13H14.4999C13.6718 13 12.9999 13.6719 12.9999 14.5Z" fill="black"/>
</svg>
