<svg width="24" height="24" viewBox="0 0 24 24" fill="none" xmlns="http://www.w3.org/2000/svg">
<path d="M16.7062 15.7062L19.7062 12.7062C20.0969 12.3156 20.0969 11.6812 19.7062 11.2906L16.7062 8.29062C16.3156 7.89999 15.6812 7.89999 15.2906 8.29062C14.9 8.68124 14.9 9.31562 15.2906 9.70624L16.5844 11H7.41249L8.70624 9.70624C9.09687 9.31562 9.09687 8.68124 8.70624 8.29062C8.31562 7.89999 7.68124 7.89999 7.29062 8.29062L4.29062 11.2906C3.89999 11.6812 3.89999 12.3156 4.29062 12.7062L7.29062 15.7062C7.68124 16.0969 8.31562 16.0969 8.70624 15.7062C9.09687 15.3156 9.09687 14.6812 8.70624 14.2906L7.41562 13H16.5875L15.2937 14.2937C14.9031 14.6844 14.9031 15.3187 15.2937 15.7094C15.6844 16.1 16.3187 16.1 16.7094 15.7094L16.7062 15.7062Z" fill="black"/>
</svg>
