<svg width="24" height="24" viewBox="0 0 24 24" fill="none" xmlns="http://www.w3.org/2000/svg">
<path d="M8.73752 18.675C8.54689 18.8813 8.28127 19 8.00002 19C7.71877 19 7.45314 18.8813 7.26251 18.675L4.51252 15.675C4.14064 15.2688 4.16564 14.6344 4.57502 14.2625C4.98439 13.8906 5.61564 13.9156 5.98752 14.325L7.00002 15.4281V6C7.00002 5.44687 7.44689 5 8.00002 5C8.55314 5 9.00002 5.44687 9.00002 6V15.4281L10.0125 14.3219C10.3844 13.9156 11.0188 13.8875 11.425 14.2594C11.8313 14.6312 11.8594 15.2656 11.4875 15.6719L8.73752 18.6719V18.675ZM13 6.25C13 5.55937 13.5594 5 14.25 5H17.75C18.4406 5 19 5.55937 19 6.25V9.75C19 10.4406 18.4406 11 17.75 11H14.25C13.5594 11 13 10.4406 13 9.75V6.25ZM16.8469 13.4688L19.3469 17.4688C19.5406 17.7781 19.55 18.1656 19.375 18.4844C19.2 18.8031 18.8625 19 18.5 19H13.5C13.1375 19 12.8031 18.8031 12.625 18.4844C12.4469 18.1656 12.4594 17.7781 12.6531 17.4688L15.1531 13.4688C15.3344 13.175 15.6563 13 16 13C16.3438 13 16.6656 13.1781 16.8469 13.4688Z" fill="black"/>
</svg>
