<svg width="24" height="24" viewBox="0 0 24 24" fill="none" xmlns="http://www.w3.org/2000/svg">
<path d="M11.4312 4.17183C11.7749 3.9437 12.2249 3.9437 12.5687 4.17183L13.1249 4.53745C13.3124 4.65933 13.5312 4.7187 13.753 4.7062L14.4187 4.66558C14.8312 4.64058 15.2187 4.86558 15.403 5.23433L15.703 5.8312C15.803 6.0312 15.9655 6.19058 16.1624 6.29058L16.7655 6.5937C17.1343 6.77808 17.3593 7.16558 17.3343 7.57808L17.2937 8.2437C17.2812 8.46558 17.3405 8.68745 17.4624 8.87183L17.8312 9.42808C18.0593 9.77183 18.0593 10.2218 17.8312 10.5656L17.4624 11.125C17.3405 11.3125 17.2812 11.5312 17.2937 11.7531L17.3343 12.4187C17.3593 12.8312 17.1343 13.2187 16.7655 13.4031L16.1687 13.7031C15.9687 13.8031 15.8093 13.9656 15.7093 14.1625L15.4062 14.7656C15.2218 15.1343 14.8343 15.3593 14.4218 15.3343L13.7562 15.2937C13.5343 15.2812 13.3124 15.3406 13.128 15.4625L12.5718 15.8312C12.228 16.0593 11.778 16.0593 11.4343 15.8312L10.8749 15.4625C10.6874 15.3406 10.4687 15.2812 10.2468 15.2937L9.58116 15.3343C9.16866 15.3593 8.78116 15.1343 8.59678 14.7656L8.29678 14.1687C8.19678 13.9687 8.03428 13.8093 7.83741 13.7093L7.23428 13.4062C6.86553 13.2218 6.64053 12.8343 6.66553 12.4218L6.70616 11.7562C6.71866 11.5343 6.65928 11.3125 6.53741 11.1281L6.17178 10.5687C5.94366 10.225 5.94366 9.77495 6.17178 9.4312L6.53741 8.87495C6.65928 8.68745 6.71866 8.4687 6.70616 8.24683L6.66553 7.5812C6.64053 7.1687 6.86553 6.7812 7.23428 6.59683L7.83116 6.29683C8.03116 6.1937 8.19366 6.0312 8.29366 5.8312L8.59366 5.23433C8.77803 4.86558 9.16553 4.64058 9.57803 4.66558L10.2437 4.7062C10.4655 4.7187 10.6874 4.65933 10.8718 4.53745L11.4312 4.17183ZM14.4999 9.99995C14.4999 9.33691 14.2365 8.70103 13.7677 8.23218C13.2988 7.76334 12.6629 7.49995 11.9999 7.49995C11.3369 7.49995 10.701 7.76334 10.2321 8.23218C9.7633 8.70103 9.49991 9.33691 9.49991 9.99995C9.49991 10.663 9.7633 11.2989 10.2321 11.7677C10.701 12.2366 11.3369 12.5 11.9999 12.5C12.6629 12.5 13.2988 12.2366 13.7677 11.7677C14.2365 11.2989 14.4999 10.663 14.4999 9.99995ZM6.04053 17.8062L7.38741 14.6031C7.39366 14.6062 7.39678 14.6093 7.39991 14.6156L7.69991 15.2125C8.06553 15.9375 8.82491 16.3781 9.63741 16.3312L10.303 16.2906C10.3093 16.2906 10.3187 16.2906 10.3249 16.2968L10.8812 16.6656C11.0405 16.7687 11.2093 16.85 11.3843 16.9062L10.2093 19.6968C10.1374 19.8687 9.97803 19.9843 9.79366 20C9.60928 20.0156 9.43116 19.9312 9.33116 19.775L8.32491 18.2343L6.57178 18.4937C6.39366 18.5187 6.21553 18.4468 6.10303 18.3062C5.99053 18.1656 5.96866 17.9718 6.03741 17.8062H6.04053ZM13.7905 19.6937L12.6155 16.9062C12.7905 16.85 12.9593 16.7718 13.1187 16.6656L13.6749 16.2968C13.6812 16.2937 13.6874 16.2906 13.6968 16.2906L14.3624 16.3312C15.1749 16.3781 15.9343 15.9375 16.2999 15.2125L16.5999 14.6156C16.603 14.6093 16.6062 14.6062 16.6124 14.6031L17.9624 17.8062C18.0312 17.9718 18.0062 18.1625 17.8968 18.3062C17.7874 18.45 17.6062 18.5218 17.428 18.4937L15.6749 18.2343L14.6687 19.7718C14.5687 19.9281 14.3905 20.0125 14.2062 19.9968C14.0218 19.9812 13.8624 19.8625 13.7905 19.6937Z" fill="black"/>
</svg>
