<svg width="24" height="24" viewBox="0 0 24 24" fill="none" xmlns="http://www.w3.org/2000/svg">
<path d="M17.0844 5.1875C17.3438 5.375 17.5 5.67813 17.5 6V9H18C18.5531 9 19 9.44688 19 10C19 10.5531 18.5531 11 18 11H16.5H15C14.4469 11 14 10.5531 14 10C14 9.44688 14.4469 9 15 9H15.5V7.3875L15.3156 7.45C14.7906 7.625 14.225 7.34062 14.05 6.81875C13.875 6.29687 14.1594 5.72813 14.6813 5.55313L16.1813 5.05313C16.4875 4.95 16.8219 5.00312 17.0813 5.19062L17.0844 5.1875ZM8.00001 5C8.28126 5 8.54689 5.11875 8.73751 5.325L11.4875 8.325C11.8594 8.73125 11.8344 9.36563 11.425 9.7375C11.0156 10.1094 10.3844 10.0844 10.0125 9.675L9.00001 8.57188V18C9.00001 18.5531 8.55314 19 8.00001 19C7.44689 19 7.00001 18.5531 7.00001 18V8.57188L5.98751 9.675C5.61564 10.0813 4.98126 10.1094 4.57501 9.7375C4.16876 9.36563 4.14064 8.73125 4.51251 8.325L7.26251 5.325C7.45314 5.11875 7.71876 5 8.00001 5ZM16.9281 15.4031C17.0469 15.3469 17.1535 15.2678 17.2418 15.1704C17.33 15.073 17.3982 14.9592 17.4425 14.8354C17.4867 14.7117 17.5061 14.5804 17.4997 14.4491C17.4932 14.3178 17.4609 14.1891 17.4047 14.0703C17.3485 13.9515 17.2694 13.8449 17.172 13.7567C17.0746 13.6684 16.9608 13.6003 16.837 13.556C16.7132 13.5117 16.582 13.4923 16.4507 13.4988C16.3194 13.5053 16.1907 13.5375 16.0719 13.5938C15.9531 13.65 15.8465 13.729 15.7583 13.8265C15.67 13.9239 15.6018 14.0377 15.5576 14.1615C15.5133 14.2852 15.4939 14.4165 15.5004 14.5478C15.5068 14.679 15.5391 14.8078 15.5953 14.9266C15.6515 15.0454 15.7306 15.1519 15.828 15.2402C15.9254 15.3284 16.0393 15.3966 16.163 15.4409C16.2868 15.4851 16.4181 15.5046 16.5493 15.4981C16.6806 15.4916 16.8093 15.4593 16.9281 15.4031ZM15.6563 17.1187C14.55 16.7625 13.75 15.725 13.75 14.5C13.75 12.9812 14.9813 11.75 16.5 11.75C18.0188 11.75 19.25 12.9812 19.25 14.5C19.25 15.2344 19.0156 15.9469 18.5781 16.5375L17.0531 18.5938C16.725 19.0375 16.0969 19.1313 15.6531 18.8031C15.2094 18.475 15.1156 17.8469 15.4438 17.4031L15.6563 17.1156V17.1187Z" fill="black"/>
</svg>
