<svg width="24" height="24" viewBox="0 0 24 24" fill="none" xmlns="http://www.w3.org/2000/svg">
<path d="M16.7063 8.29374C17.0969 8.68437 17.0969 9.31874 16.7063 9.70937C16.3156 10.1 15.6813 10.1 15.2906 9.70937L13 7.41562V17C13 17.5531 13.4469 18 14 18H17C17.5531 18 18 18.4469 18 19C18 19.5531 17.5531 20 17 20H14C12.3438 20 11 18.6562 11 17V7.41562L8.70627 9.70624C8.31565 10.0969 7.68127 10.0969 7.29065 9.70624C6.90002 9.31562 6.90002 8.68124 7.29065 8.29062L11.2906 4.29062C11.6813 3.89999 12.3156 3.89999 12.7063 4.29062L16.7063 8.29062V8.29374Z" fill="black"/>
</svg>
