<svg width="24" height="24" viewBox="0 0 24 24" fill="none" xmlns="http://www.w3.org/2000/svg">
<path d="M16 6C16 5.44687 15.5531 5 15 5H9C8.44687 5 8 5.44687 8 6C8 6.55313 8.44687 7 9 7H15C15.5531 7 16 6.55313 16 6ZM19 10C19 9.44687 18.5531 9 18 9H6C5.44687 9 5 9.44687 5 10C5 10.5531 5.44687 11 6 11H18C18.5531 11 19 10.5531 19 10ZM5 18C5 18.5531 5.44687 19 6 19H18C18.5531 19 19 18.5531 19 18C19 17.4469 18.5531 17 18 17H6C5.44687 17 5 17.4469 5 18ZM16 14C16 13.4469 15.5531 13 15 13H9C8.44687 13 8 13.4469 8 14C8 14.5531 8.44687 15 9 15H15C15.5531 15 16 14.5531 16 14Z" fill="black"/>
</svg>
