<svg width="24" height="24" viewBox="0 0 24 24" fill="none" xmlns="http://www.w3.org/2000/svg">
<path d="M12 7C12 7.26522 11.8946 7.51957 11.7071 7.70711C11.5195 7.89464 11.2652 8 11 8C10.7348 8 10.4804 7.89464 10.2929 7.70711C10.1053 7.51957 9.99998 7.26522 9.99998 7C9.99998 6.73478 10.1053 6.48043 10.2929 6.29289C10.4804 6.10536 10.7348 6 11 6C11.2652 6 11.5195 6.10536 11.7071 6.29289C11.8946 6.48043 12 6.73478 12 7ZM12.6594 9.5C13.4687 8.9625 14 8.04375 14 7C14 5.34375 12.6562 4 11 4C9.34373 4 7.99998 5.34375 7.99998 7C7.99998 8.04375 8.53123 8.9625 9.3406 9.5H8.99998C8.44685 9.5 7.99998 9.94688 7.99998 10.5C7.99998 11.0531 8.44685 11.5 8.99998 11.5H9.99998V18H8.49998C6.84373 18 5.49998 16.6562 5.49998 15V14.8094L5.71873 15.0281C6.01248 15.3219 6.48748 15.3219 6.7781 15.0281C7.06873 14.7344 7.07185 14.2594 6.7781 13.9688L5.03123 12.2188C4.73748 11.925 4.26248 11.925 3.97185 12.2188L2.21873 13.9688C1.92498 14.2625 1.92498 14.7375 2.21873 15.0281C2.51248 15.3187 2.98748 15.3219 3.2781 15.0281L3.49685 14.8094V15C3.49685 17.7625 5.73435 20 8.49685 20H10.9969H13.4969C13.7531 20 14.0062 19.9813 14.2531 19.9438C13.5594 19.4375 12.9906 18.7719 12.5969 18H12V15.5V11.5H13C13.5531 11.5 14 11.0531 14 10.5C14 9.94688 13.5531 9.5 13 9.5H12.6594ZM17.5 20C18.6934 20 19.838 19.5259 20.682 18.682C21.5259 17.8381 22 16.6935 22 15.5C22 14.3065 21.5259 13.1619 20.682 12.318C19.838 11.4741 18.6934 11 17.5 11C16.3065 11 15.1619 11.4741 14.318 12.318C13.4741 13.1619 13 14.3065 13 15.5C13 16.6935 13.4741 17.8381 14.318 18.682C15.1619 19.5259 16.3065 20 17.5 20ZM19.3531 14.3531L18.2062 15.5L19.3531 16.6469C19.5469 16.8406 19.5469 17.1594 19.3531 17.3531C19.1593 17.5469 18.8406 17.5469 18.6469 17.3531L17.5 16.2063L16.3531 17.3531C16.1593 17.5469 15.8406 17.5469 15.6469 17.3531C15.4531 17.1594 15.4531 16.8406 15.6469 16.6469L16.7937 15.5L15.6469 14.3531C15.4531 14.1594 15.4531 13.8406 15.6469 13.6469C15.8406 13.4531 16.1593 13.4531 16.3531 13.6469L17.5 14.7937L18.6469 13.6469C18.8406 13.4531 19.1593 13.4531 19.3531 13.6469C19.5469 13.8406 19.5469 14.1594 19.3531 14.3531Z" fill="black"/>
</svg>
