<svg width="24" height="24" viewBox="0 0 24 24" fill="none" xmlns="http://www.w3.org/2000/svg">
<path d="M8.2937 15.7063C8.68433 16.0969 9.3187 16.0969 9.70933 15.7063C10.1 15.3156 10.1 14.6813 9.70933 14.2906L7.41558 12H17C17.5531 12 18 12.4469 18 13V18C18 18.5532 18.4468 19 19 19C19.5531 19 20 18.5532 20 18V13C20 11.3438 18.6562 10 17 10H7.41558L9.70933 7.70627C10.1 7.31565 10.1 6.68127 9.70933 6.29065C9.3187 5.90002 8.68433 5.90002 8.2937 6.29065L4.2937 10.2906C3.90308 10.6813 3.90308 11.3156 4.2937 11.7063L8.2937 15.7063Z" fill="black"/>
</svg>
