<svg width="24" height="24" viewBox="0 0 24 24" fill="none" xmlns="http://www.w3.org/2000/svg">
<path d="M7.29375 19.7062C7.68437 20.0969 8.31875 20.0969 8.70937 19.7062L11.7094 16.7062C12.1 16.3156 12.1 15.6812 11.7094 15.2906C11.3188 14.9 10.6844 14.9 10.2937 15.2906L9 16.5844V13H20C20.5531 13 21 12.5531 21 12C21 11.4469 20.5531 11 20 11H17V7.41562L18.2937 8.70937C18.6844 9.1 19.3188 9.1 19.7094 8.70937C20.1 8.31875 20.1 7.68437 19.7094 7.29375L16.7094 4.29375C16.3188 3.90312 15.6844 3.90312 15.2937 4.29375L12.2937 7.29375C11.9031 7.68437 11.9031 8.31875 12.2937 8.70937C12.6844 9.1 13.3188 9.1 13.7094 8.70937L15 7.41562V11H9H7H4C3.44687 11 3 11.4469 3 12C3 12.5531 3.44687 13 4 13H7V16.5844L5.70625 15.2937C5.31562 14.9031 4.68125 14.9031 4.29062 15.2937C3.9 15.6844 3.9 16.3187 4.29062 16.7094L7.29063 19.7094L7.29375 19.7062ZM7 10H9V6C9 5.44687 8.55313 5 8 5C7.44687 5 7 5.44687 7 6V10ZM17 14H15V18C15 18.5531 15.4469 19 16 19C16.5531 19 17 18.5531 17 18V14Z" fill="black"/>
</svg>
