<svg width="24" height="24" viewBox="0 0 24 24" fill="none" xmlns="http://www.w3.org/2000/svg">
<path d="M3 7C3 5.89688 3.89688 5 5 5H15C16.1031 5 17 5.89688 17 7V10.0219C16.8344 10.0062 16.6688 10 16.5 10C15.8719 10 15.2656 10.1063 14.7031 10.3C14.0094 8.375 12.1656 7 10 7C7.2375 7 5 9.2375 5 12C5 14.7625 7.2375 17 10 17C10.4031 17 10.7937 16.9531 11.1687 16.8625C11.3719 17.6594 11.7469 18.3844 12.2563 19H5C3.89688 19 3 18.1031 3 17V7ZM10 11C10.2652 11 10.5196 11.1054 10.7071 11.2929C10.8946 11.4804 11 11.7348 11 12C11 12.2652 10.8946 12.5196 10.7071 12.7071C10.5196 12.8946 10.2652 13 10 13C9.73478 13 9.48043 12.8946 9.29289 12.7071C9.10536 12.5196 9 12.2652 9 12C9 11.7348 9.10536 11.4804 9.29289 11.2929C9.48043 11.1054 9.73478 11 10 11ZM16.5 11C17.6935 11 18.8381 11.4741 19.682 12.318C20.5259 13.1619 21 14.3065 21 15.5C21 16.6935 20.5259 17.8381 19.682 18.682C18.8381 19.5259 17.6935 20 16.5 20C15.3065 20 14.1619 19.5259 13.318 18.682C12.4741 17.8381 12 16.6935 12 15.5C12 14.3065 12.4741 13.1619 13.318 12.318C14.1619 11.4741 15.3065 11 16.5 11ZM17 13.5C17 13.225 16.775 13 16.5 13C16.225 13 16 13.225 16 13.5V15H14.5C14.225 15 14 15.225 14 15.5C14 15.775 14.225 16 14.5 16H16V17.5C16 17.775 16.225 18 16.5 18C16.775 18 17 17.775 17 17.5V16H18.5C18.775 16 19 15.775 19 15.5C19 15.225 18.775 15 18.5 15H17V13.5Z" fill="black"/>
</svg>
