<svg width="24" height="24" viewBox="0 0 24 24" fill="none" xmlns="http://www.w3.org/2000/svg">
<path d="M12.7062 5.29376C12.3155 4.90314 11.6812 4.90314 11.2905 5.29376L6.29053 10.2938C5.8999 10.6844 5.8999 11.3188 6.29053 11.7094C6.68115 12.1 7.31553 12.1 7.70615 11.7094L11.9999 7.41564L16.2937 11.7063C16.6843 12.0969 17.3187 12.0969 17.7093 11.7063C18.0999 11.3156 18.0999 10.6813 17.7093 10.2906L12.7093 5.29064L12.7062 5.29376ZM17.7062 16.2938L12.7062 11.2938C12.3155 10.9031 11.6812 10.9031 11.2905 11.2938L6.29053 16.2938C5.8999 16.6844 5.8999 17.3188 6.29053 17.7094C6.68115 18.1 7.31553 18.1 7.70615 17.7094L11.9999 13.4156L16.2937 17.7063C16.6843 18.0969 17.3187 18.0969 17.7093 17.7063C18.0999 17.3156 18.0999 16.6813 17.7093 16.2906L17.7062 16.2938Z" fill="black"/>
</svg>
