<svg width="24" height="24" viewBox="0 0 24 24" fill="none" xmlns="http://www.w3.org/2000/svg">
<path d="M16.0719 9H14.5C13.9469 9 13.5 9.44688 13.5 10C13.5 10.5531 13.9469 11 14.5 11H18.5C19.0532 11 19.5 10.5531 19.5 10V6C19.5 5.44688 19.0532 5 18.5 5C17.9469 5 17.5 5.44688 17.5 6V7.6L16.95 7.05C14.2157 4.31563 9.78442 4.31563 7.05005 7.05C4.31567 9.78438 4.31567 14.2156 7.05005 16.95C9.78442 19.6844 14.2157 19.6844 16.95 16.95C17.3407 16.5594 17.3407 15.925 16.95 15.5344C16.5594 15.1438 15.925 15.1438 15.5344 15.5344C13.5813 17.4875 10.4157 17.4875 8.46255 15.5344C6.50942 13.5813 6.50942 10.4156 8.46255 8.4625C10.4157 6.50938 13.5813 6.50938 15.5344 8.4625L16.0719 9Z" fill="black"/>
</svg>
