<svg width="24" height="24" viewBox="0 0 24 24" fill="none" xmlns="http://www.w3.org/2000/svg">
<path d="M12 4C10.4719 4 9.10937 4.9 8.2 5.68125C7.73125 6.08437 7.34687 6.48437 7.08125 6.78437C7.00937 6.86562 6.94687 6.9375 6.89375 7H6C4.89688 7 4 7.89688 4 9V18C4 19.1031 4.89688 20 6 20H18C19.1031 20 20 19.1031 20 18V9C20 7.89688 19.1031 7 18 7H17.1094C17.0562 6.93438 16.9906 6.8625 16.9219 6.78437C16.6562 6.48437 16.2719 6.08437 15.8031 5.68125C14.8906 4.9 13.5281 4 12 4ZM15.0281 7H8.97188C9.0375 6.94063 9.10625 6.88125 9.175 6.81875C10.0156 6.1 11.0281 5.5 12 5.5C12.9719 5.5 13.9844 6.1 14.825 6.81875C14.8937 6.87812 14.9625 6.94063 15.0281 7ZM7 8.75C7.09849 8.75 7.19602 8.7694 7.28701 8.80709C7.37801 8.84478 7.46069 8.90003 7.53033 8.96967C7.59997 9.03931 7.65522 9.12199 7.69291 9.21299C7.7306 9.30398 7.75 9.40151 7.75 9.5C7.75 9.59849 7.7306 9.69602 7.69291 9.78701C7.65522 9.87801 7.59997 9.96069 7.53033 10.0303C7.46069 10.1 7.37801 10.1552 7.28701 10.1929C7.19602 10.2306 7.09849 10.25 7 10.25C6.90151 10.25 6.80398 10.2306 6.71299 10.1929C6.62199 10.1552 6.53931 10.1 6.46967 10.0303C6.40003 9.96069 6.34478 9.87801 6.30709 9.78701C6.2694 9.69602 6.25 9.59849 6.25 9.5C6.25 9.40151 6.2694 9.30398 6.30709 9.21299C6.34478 9.12199 6.40003 9.03931 6.46967 8.96967C6.53931 8.90003 6.62199 8.84478 6.71299 8.80709C6.80398 8.7694 6.90151 8.75 7 8.75ZM9.25 9.5C9.25 9.30109 9.32902 9.11032 9.46967 8.96967C9.61032 8.82902 9.80109 8.75 10 8.75C10.1989 8.75 10.3897 8.82902 10.5303 8.96967C10.671 9.11032 10.75 9.30109 10.75 9.5C10.75 9.69891 10.671 9.88968 10.5303 10.0303C10.3897 10.171 10.1989 10.25 10 10.25C9.80109 10.25 9.61032 10.171 9.46967 10.0303C9.32902 9.88968 9.25 9.69891 9.25 9.5ZM14 8.75C14.0985 8.75 14.196 8.7694 14.287 8.80709C14.378 8.84478 14.4607 8.90003 14.5303 8.96967C14.6 9.03931 14.6552 9.12199 14.6929 9.21299C14.7306 9.30398 14.75 9.40151 14.75 9.5C14.75 9.59849 14.7306 9.69602 14.6929 9.78701C14.6552 9.87801 14.6 9.96069 14.5303 10.0303C14.4607 10.1 14.378 10.1552 14.287 10.1929C14.196 10.2306 14.0985 10.25 14 10.25C13.9015 10.25 13.804 10.2306 13.713 10.1929C13.622 10.1552 13.5393 10.1 13.4697 10.0303C13.4 9.96069 13.3448 9.87801 13.3071 9.78701C13.2694 9.69602 13.25 9.59849 13.25 9.5C13.25 9.40151 13.2694 9.30398 13.3071 9.21299C13.3448 9.12199 13.4 9.03931 13.4697 8.96967C13.5393 8.90003 13.622 8.84478 13.713 8.80709C13.804 8.7694 13.9015 8.75 14 8.75ZM16.25 9.5C16.25 9.30109 16.329 9.11032 16.4697 8.96967C16.6103 8.82902 16.8011 8.75 17 8.75C17.1989 8.75 17.3897 8.82902 17.5303 8.96967C17.671 9.11032 17.75 9.30109 17.75 9.5C17.75 9.69891 17.671 9.88968 17.5303 10.0303C17.3897 10.171 17.1989 10.25 17 10.25C16.8011 10.25 16.6103 10.171 16.4697 10.0303C16.329 9.88968 16.25 9.69891 16.25 9.5ZM6 18V12H18V18H6ZM8 14C8.13261 14 8.25979 13.9473 8.35355 13.8536C8.44732 13.7598 8.5 13.6326 8.5 13.5C8.5 13.3674 8.44732 13.2402 8.35355 13.1464C8.25979 13.0527 8.13261 13 8 13C7.86739 13 7.74021 13.0527 7.64645 13.1464C7.55268 13.2402 7.5 13.3674 7.5 13.5C7.5 13.6326 7.55268 13.7598 7.64645 13.8536C7.74021 13.9473 7.86739 14 8 14ZM8 17C8.13261 17 8.25979 16.9473 8.35355 16.8536C8.44732 16.7598 8.5 16.6326 8.5 16.5C8.5 16.3674 8.44732 16.2402 8.35355 16.1464C8.25979 16.0527 8.13261 16 8 16C7.86739 16 7.74021 16.0527 7.64645 16.1464C7.55268 16.2402 7.5 16.3674 7.5 16.5C7.5 16.6326 7.55268 16.7598 7.64645 16.8536C7.74021 16.9473 7.86739 17 8 17ZM9.5 15C9.5 14.8674 9.44732 14.7402 9.35355 14.6464C9.25979 14.5527 9.13261 14.5 9 14.5C8.86739 14.5 8.74021 14.5527 8.64645 14.6464C8.55268 14.7402 8.5 14.8674 8.5 15C8.5 15.1326 8.55268 15.2598 8.64645 15.3536C8.74021 15.4473 8.86739 15.5 9 15.5C9.13261 15.5 9.25979 15.4473 9.35355 15.3536C9.44732 15.2598 9.5 15.1326 9.5 15ZM10 14C10.1326 14 10.2598 13.9473 10.3536 13.8536C10.4473 13.7598 10.5 13.6326 10.5 13.5C10.5 13.3674 10.4473 13.2402 10.3536 13.1464C10.2598 13.0527 10.1326 13 10 13C9.86739 13 9.74021 13.0527 9.64645 13.1464C9.55268 13.2402 9.5 13.3674 9.5 13.5C9.5 13.6326 9.55268 13.7598 9.64645 13.8536C9.74021 13.9473 9.86739 14 10 14ZM10.5 16.5C10.5 16.3674 10.4473 16.2402 10.3536 16.1464C10.2598 16.0527 10.1326 16 10 16C9.86739 16 9.74021 16.0527 9.64645 16.1464C9.55268 16.2402 9.5 16.3674 9.5 16.5C9.5 16.6326 9.55268 16.7598 9.64645 16.8536C9.74021 16.9473 9.86739 17 10 17C10.1326 17 10.2598 16.9473 10.3536 16.8536C10.4473 16.7598 10.5 16.6326 10.5 16.5ZM11 15.5C11.1326 15.5 11.2598 15.4473 11.3536 15.3536C11.4473 15.2598 11.5 15.1326 11.5 15C11.5 14.8674 11.4473 14.7402 11.3536 14.6464C11.2598 14.5527 11.1326 14.5 11 14.5C10.8674 14.5 10.7402 14.5527 10.6464 14.6464C10.5527 14.7402 10.5 14.8674 10.5 15C10.5 15.1326 10.5527 15.2598 10.6464 15.3536C10.7402 15.4473 10.8674 15.5 11 15.5ZM12.5 13.5C12.5 13.3674 12.4473 13.2402 12.3536 13.1464C12.2598 13.0527 12.1326 13 12 13C11.8674 13 11.7402 13.0527 11.6464 13.1464C11.5527 13.2402 11.5 13.3674 11.5 13.5C11.5 13.6326 11.5527 13.7598 11.6464 13.8536C11.7402 13.9473 11.8674 14 12 14C12.1326 14 12.2598 13.9473 12.3536 13.8536C12.4473 13.7598 12.5 13.6326 12.5 13.5ZM12 17C12.1326 17 12.2598 16.9473 12.3536 16.8536C12.4473 16.7598 12.5 16.6326 12.5 16.5C12.5 16.3674 12.4473 16.2402 12.3536 16.1464C12.2598 16.0527 12.1326 16 12 16C11.8674 16 11.7402 16.0527 11.6464 16.1464C11.5527 16.2402 11.5 16.3674 11.5 16.5C11.5 16.6326 11.5527 16.7598 11.6464 16.8536C11.7402 16.9473 11.8674 17 12 17ZM13.5 15C13.5 14.8674 13.4473 14.7402 13.3536 14.6464C13.2598 14.5527 13.1326 14.5 13 14.5C12.8674 14.5 12.7402 14.5527 12.6464 14.6464C12.5527 14.7402 12.5 14.8674 12.5 15C12.5 15.1326 12.5527 15.2598 12.6464 15.3536C12.7402 15.4473 12.8674 15.5 13 15.5C13.1326 15.5 13.2598 15.4473 13.3536 15.3536C13.4473 15.2598 13.5 15.1326 13.5 15ZM14 14C14.1326 14 14.2598 13.9473 14.3536 13.8536C14.4473 13.7598 14.5 13.6326 14.5 13.5C14.5 13.3674 14.4473 13.2402 14.3536 13.1464C14.2598 13.0527 14.1326 13 14 13C13.8674 13 13.7402 13.0527 13.6464 13.1464C13.5527 13.2402 13.5 13.3674 13.5 13.5C13.5 13.6326 13.5527 13.7598 13.6464 13.8536C13.7402 13.9473 13.8674 14 14 14ZM14.5 16.5C14.5 16.3674 14.4473 16.2402 14.3536 16.1464C14.2598 16.0527 14.1326 16 14 16C13.8674 16 13.7402 16.0527 13.6464 16.1464C13.5527 16.2402 13.5 16.3674 13.5 16.5C13.5 16.6326 13.5527 16.7598 13.6464 16.8536C13.7402 16.9473 13.8674 17 14 17C14.1326 17 14.2598 16.9473 14.3536 16.8536C14.4473 16.7598 14.5 16.6326 14.5 16.5ZM15 15.5C15.1326 15.5 15.2598 15.4473 15.3536 15.3536C15.4473 15.2598 15.5 15.1326 15.5 15C15.5 14.8674 15.4473 14.7402 15.3536 14.6464C15.2598 14.5527 15.1326 14.5 15 14.5C14.8674 14.5 14.7402 14.5527 14.6464 14.6464C14.5527 14.7402 14.5 14.8674 14.5 15C14.5 15.1326 14.5527 15.2598 14.6464 15.3536C14.7402 15.4473 14.8674 15.5 15 15.5ZM16.5 13.5C16.5 13.3674 16.4473 13.2402 16.3536 13.1464C16.2598 13.0527 16.1326 13 16 13C15.8674 13 15.7402 13.0527 15.6464 13.1464C15.5527 13.2402 15.5 13.3674 15.5 13.5C15.5 13.6326 15.5527 13.7598 15.6464 13.8536C15.7402 13.9473 15.8674 14 16 14C16.1326 14 16.2598 13.9473 16.3536 13.8536C16.4473 13.7598 16.5 13.6326 16.5 13.5ZM16 17C16.1326 17 16.2598 16.9473 16.3536 16.8536C16.4473 16.7598 16.5 16.6326 16.5 16.5C16.5 16.3674 16.4473 16.2402 16.3536 16.1464C16.2598 16.0527 16.1326 16 16 16C15.8674 16 15.7402 16.0527 15.6464 16.1464C15.5527 16.2402 15.5 16.3674 15.5 16.5C15.5 16.6326 15.5527 16.7598 15.6464 16.8536C15.7402 16.9473 15.8674 17 16 17Z" fill="black"/>
</svg>
