<svg width="24" height="24" viewBox="0 0 24 24" fill="none" xmlns="http://www.w3.org/2000/svg">
<path d="M7.92812 8.99999H9.5C10.0531 8.99999 10.5 9.44686 10.5 9.99999C10.5 10.5531 10.0531 11 9.5 11H5.5C4.94687 11 4.5 10.5531 4.5 9.99999V5.99999C4.5 5.44686 4.94687 4.99999 5.5 4.99999C6.05313 4.99999 6.5 5.44686 6.5 5.99999V7.59999L7.05 7.04999C9.78438 4.31561 14.2156 4.31561 16.95 7.04999C19.6844 9.78436 19.6844 14.2156 16.95 16.95C14.2156 19.6844 9.78438 19.6844 7.05 16.95C6.65937 16.5594 6.65937 15.925 7.05 15.5344C7.44062 15.1437 8.075 15.1437 8.46562 15.5344C10.4187 17.4875 13.5844 17.4875 15.5375 15.5344C17.4906 13.5812 17.4906 10.4156 15.5375 8.46249C13.5844 6.50936 10.4187 6.50936 8.46562 8.46249L7.92812 8.99999Z" fill="black"/>
</svg>
