<svg width="24" height="24" viewBox="0 0 24 24" fill="none" xmlns="http://www.w3.org/2000/svg">
<path d="M6.99688 4.43751V4.44064C6.99688 4.44376 7 4.45314 7 4.46251C7.00313 4.48439 7.00937 4.51876 7.01875 4.56564C7.0375 4.65939 7.07187 4.79689 7.12812 4.96564C7.24062 5.30314 7.4375 5.75001 7.77187 6.20001C8.20625 6.78126 8.89687 7.38439 9.99687 7.72501V12.3375C9.0625 12.6844 8.40625 13.2531 7.94688 13.8156C7.575 14.2719 7.33125 14.7313 7.18125 15.075C7.10625 15.2469 7.05625 15.3875 7.02187 15.4844C7.00625 15.5313 6.99375 15.5688 6.9875 15.5938L6.98125 15.6188V15.6219C6.93438 15.8031 6.79063 15.9438 6.60938 15.9875C6.42812 16.0313 6.23437 15.9656 6.11562 15.8219L6.5 15.5C6.11875 15.8219 6.11875 15.8219 6.11875 15.8219L6.11562 15.8188L6.10938 15.8125L6.09063 15.7875C6.075 15.7656 6.05 15.7375 6.01875 15.6969C5.95937 15.6188 5.875 15.5063 5.77813 15.3656C5.58125 15.0781 5.31875 14.6656 5.05625 14.15C4.53125 13.1219 4 11.6656 4 10C4 8.33439 4.53125 6.87814 5.05313 5.85314C5.31563 5.33751 5.57812 4.92501 5.775 4.63751C5.875 4.49376 5.95625 4.38126 6.01562 4.30626C6.04688 4.26876 6.06875 4.23751 6.0875 4.21564L6.10625 4.19064L6.1125 4.18439L6.11562 4.18126C6.11562 4.18126 6.11563 4.18126 6.49688 4.50314L6.11875 4.17814C6.24688 4.02501 6.45312 3.96564 6.64375 4.02189C6.83437 4.07814 6.97188 4.24064 6.99688 4.43751ZM14 12.3375V7.72501C15.1 7.38439 15.7906 6.78126 16.225 6.20001C16.6031 5.69689 16.9 5.06251 17.0031 4.43751C17.0281 4.24064 17.1687 4.07814 17.3562 4.02189C17.5469 3.96564 17.7562 4.03126 17.8844 4.18439C18.3 4.69376 18.6469 5.27189 18.9438 5.85314C19.3313 6.61876 19.7281 7.62189 19.9031 8.77189C19.9187 8.88126 19.8594 8.99064 19.7563 9.03439L18.0344 9.77189C17.8313 9.85939 17.8313 10.1438 18.0344 10.2313L19.7594 10.9688C19.8625 11.0125 19.925 11.1188 19.9062 11.2313C19.6562 12.8875 18.9281 14.5281 17.8906 15.8125C17.7687 15.9563 17.5687 16.0313 17.3875 15.9875C17.2062 15.9438 17.0594 15.8 17.0156 15.6188C16.8312 14.9625 16.4781 14.3406 16.05 13.8156C15.5906 13.2531 14.9344 12.6844 14 12.3375ZM13 6.00001V19C13 19.5531 12.5531 20 12 20C11.4469 20 11 19.5531 11 19V6.00001C11 5.44689 11.4469 5.00001 12 5.00001C12.5531 5.00001 13 5.44689 13 6.00001Z" fill="black"/>
</svg>
