<svg width="24" height="24" viewBox="0 0 24 24" fill="none" xmlns="http://www.w3.org/2000/svg">
<path d="M14 5C13.4469 5 13 5.44687 13 6C13 6.55313 13.4469 7 14 7H15.5844L5.29374 17.2937C4.90312 17.6844 4.90312 18.3188 5.29374 18.7094C5.68437 19.1 6.31874 19.1 6.70937 18.7094L17 8.41563V10C17 10.5531 17.4469 11 18 11C18.5531 11 19 10.5531 19 10V6C19 5.44687 18.5531 5 18 5H14ZM6.70624 5.29375C6.31562 4.90313 5.68124 4.90313 5.29062 5.29375C4.89999 5.68438 4.90312 6.31562 5.29374 6.70625L9.87812 11.2937L11.2937 9.87813L6.70624 5.29375ZM15.5844 17H14C13.4469 17 13 17.4469 13 18C13 18.5531 13.4469 19 14 19H18C18.5531 19 19 18.5531 19 18V14C19 13.4469 18.5531 13 18 13C17.4469 13 17 13.4469 17 14V15.5844L14.1219 12.7063L12.7062 14.1219L15.5844 17Z" fill="black"/>
</svg>
