<svg width="24" height="24" viewBox="0 0 24 24" fill="none" xmlns="http://www.w3.org/2000/svg">
<path d="M7.29375 19.7063C7.68437 20.0969 8.31875 20.0969 8.70937 19.7063L11.7094 16.7063C12.1 16.3156 12.1 15.6813 11.7094 15.2906C11.3188 14.9 10.6844 14.9 10.2937 15.2906L9 16.5844V13H20C20.5531 13 21 12.5531 21 12C21 11.4469 20.5531 11 20 11H17V7.41564L18.2937 8.70939C18.6844 9.10001 19.3188 9.10001 19.7094 8.70939C20.1 8.31876 20.1 7.68439 19.7094 7.29376L16.7094 4.29376C16.3188 3.90314 15.6844 3.90314 15.2937 4.29376L12.2937 7.29376C11.9031 7.68439 11.9031 8.31876 12.2937 8.70939C12.6844 9.10001 13.3188 9.10001 13.7094 8.70939L15 7.41564V11H9H7H4C3.44687 11 3 11.4469 3 12C3 12.5531 3.44687 13 4 13H7V16.5844L5.70625 15.2938C5.31562 14.9031 4.68125 14.9031 4.29062 15.2938C3.9 15.6844 3.9 16.3188 4.29062 16.7094L7.29063 19.7094L7.29375 19.7063ZM7 10H9V6.00001C9 5.44689 8.55312 5.00001 8 5.00001C7.44688 5.00001 7 5.44689 7 6.00001V10ZM17 14H15V18C15 18.5531 15.4469 19 16 19C16.5531 19 17 18.5531 17 18V14Z" fill="black"/>
</svg>
