<svg width="24" height="24" viewBox="0 0 24 24" fill="none" xmlns="http://www.w3.org/2000/svg">
<path d="M13.0001 7C13.0001 7.26522 12.8947 7.51957 12.7072 7.70711C12.5197 7.89464 12.2653 8 12.0001 8C11.7349 8 11.4805 7.89464 11.293 7.70711C11.1055 7.51957 11.0001 7.26522 11.0001 7C11.0001 6.73478 11.1055 6.48043 11.293 6.29289C11.4805 6.10536 11.7349 6 12.0001 6C12.2653 6 12.5197 6.10536 12.7072 6.29289C12.8947 6.48043 13.0001 6.73478 13.0001 7ZM13.6595 9.5C14.4688 8.9625 15.0001 8.04375 15.0001 7C15.0001 5.34375 13.6563 4 12.0001 4C10.3438 4 9.0001 5.34375 9.0001 7C9.0001 8.04375 9.53135 8.9625 10.3407 9.5H10.0001C9.44697 9.5 9.0001 9.94688 9.0001 10.5C9.0001 11.0531 9.44697 11.5 10.0001 11.5H11.0001V18H9.5001C7.84385 18 6.5001 16.6562 6.5001 15V14.8094L6.71885 15.0281C7.0126 15.3219 7.4876 15.3219 7.77822 15.0281C8.06885 14.7344 8.07197 14.2594 7.77822 13.9688L6.03135 12.2188C5.7376 11.925 5.2626 11.925 4.97197 12.2188L3.21885 13.9688C2.9251 14.2625 2.9251 14.7375 3.21885 15.0281C3.5126 15.3187 3.9876 15.3219 4.27822 15.0281L4.49697 14.8094V15C4.49697 17.7625 6.73447 20 9.49697 20H11.997H14.497C17.2595 20 19.497 17.7625 19.497 15V14.8094L19.7157 15.0281C20.0095 15.3219 20.4845 15.3219 20.7751 15.0281C21.0657 14.7344 21.0688 14.2594 20.7751 13.9688L19.0251 12.2188C18.7313 11.925 18.2563 11.925 17.9657 12.2188L16.2157 13.9688C15.922 14.2625 15.922 14.7375 16.2157 15.0281C16.5095 15.3187 16.9845 15.3219 17.2751 15.0281L17.4938 14.8094V15C17.4938 16.6562 16.1501 18 14.4938 18H13.0001V11.5H14.0001C14.5532 11.5 15.0001 11.0531 15.0001 10.5C15.0001 9.94688 14.5532 9.5 14.0001 9.5H13.6595Z" fill="black"/>
</svg>
