<svg width="24" height="24" viewBox="0 0 24 24" fill="none" xmlns="http://www.w3.org/2000/svg">
<path d="M14 5C13.4469 5 13 5.44687 13 6C13 6.55313 13.4469 7 14 7H15.5844L12 10.5844L8.41563 7H10C10.5531 7 11 6.55313 11 6C11 5.44687 10.5531 5 10 5H6C5.44687 5 5 5.44687 5 6V10C5 10.5531 5.44687 11 6 11C6.55313 11 7 10.5531 7 10V8.41563L10.5844 12L7 15.5844V14C7 13.4469 6.55313 13 6 13C5.44687 13 5 13.4469 5 14V18C5 18.5531 5.44687 19 6 19H10C10.5531 19 11 18.5531 11 18C11 17.4469 10.5531 17 10 17H8.41563L12 13.4156L15.5844 17H14C13.4469 17 13 17.4469 13 18C13 18.5531 13.4469 19 14 19H18C18.5531 19 19 18.5531 19 18V14C19 13.4469 18.5531 13 18 13C17.4469 13 17 13.4469 17 14V15.5844L13.4156 12L17 8.41563V10C17 10.5531 17.4469 11 18 11C18.5531 11 19 10.5531 19 10V6C19 5.44687 18.5531 5 18 5H14Z" fill="black"/>
</svg>
