<svg width="24" height="24" viewBox="0 0 24 24" fill="none" xmlns="http://www.w3.org/2000/svg">
<path d="M8.0002 4C7.44707 4 7.0002 4.44687 7.0002 5C7.0002 5.55313 7.44707 6 8.0002 6H9.58457L3.29395 12.2937C2.90332 12.6844 2.90332 13.3188 3.29395 13.7094C3.68457 14.1 4.31895 14.1 4.70957 13.7094L11.0002 7.41563V9C11.0002 9.55312 11.4471 10 12.0002 10C12.5533 10 13.0002 9.55312 13.0002 9V5C13.0002 4.44687 12.5533 4 12.0002 4H8.0002ZM21.0002 6.5C21.0002 6.10218 20.8422 5.72064 20.5609 5.43934C20.2795 5.15804 19.898 5 19.5002 5C19.1024 5 18.7208 5.15804 18.4395 5.43934C18.1582 5.72064 18.0002 6.10218 18.0002 6.5C18.0002 6.89782 18.1582 7.27936 18.4395 7.56066C18.7208 7.84196 19.1024 8 19.5002 8C19.898 8 20.2795 7.84196 20.5609 7.56066C20.8422 7.27936 21.0002 6.89782 21.0002 6.5ZM17.0002 10.5C17.0002 10.303 16.9614 10.108 16.886 9.92597C16.8106 9.74399 16.7001 9.57863 16.5609 9.43934C16.4216 9.30005 16.2562 9.18956 16.0742 9.11418C15.8922 9.0388 15.6972 9 15.5002 9C15.3032 9 15.1082 9.0388 14.9262 9.11418C14.7442 9.18956 14.5788 9.30005 14.4395 9.43934C14.3002 9.57863 14.1898 9.74399 14.1144 9.92597C14.039 10.108 14.0002 10.303 14.0002 10.5C14.0002 10.697 14.039 10.892 14.1144 11.074C14.1898 11.256 14.3002 11.4214 14.4395 11.5607C14.5788 11.6999 14.7442 11.8104 14.9262 11.8858C15.1082 11.9612 15.3032 12 15.5002 12C15.6972 12 15.8922 11.9612 16.0742 11.8858C16.2562 11.8104 16.4216 11.6999 16.5609 11.5607C16.7001 11.4214 16.8106 11.256 16.886 11.074C16.9614 10.892 17.0002 10.697 17.0002 10.5ZM15.5002 16C15.898 16 16.2796 15.842 16.5609 15.5607C16.8422 15.2794 17.0002 14.8978 17.0002 14.5C17.0002 14.1022 16.8422 13.7206 16.5609 13.4393C16.2796 13.158 15.898 13 15.5002 13C15.1024 13 14.7208 13.158 14.4395 13.4393C14.1582 13.7206 14.0002 14.1022 14.0002 14.5C14.0002 14.8978 14.1582 15.2794 14.4395 15.5607C14.7208 15.842 15.1024 16 15.5002 16ZM17.0002 18.5C17.0002 18.303 16.9614 18.108 16.886 17.926C16.8106 17.744 16.7001 17.5786 16.5609 17.4393C16.4216 17.3001 16.2562 17.1896 16.0742 17.1142C15.8922 17.0388 15.6972 17 15.5002 17C15.3032 17 15.1082 17.0388 14.9262 17.1142C14.7442 17.1896 14.5788 17.3001 14.4395 17.4393C14.3002 17.5786 14.1898 17.744 14.1144 17.926C14.039 18.108 14.0002 18.303 14.0002 18.5C14.0002 18.697 14.039 18.892 14.1144 19.074C14.1898 19.256 14.3002 19.4214 14.4395 19.5607C14.5788 19.6999 14.7442 19.8104 14.9262 19.8858C15.1082 19.9612 15.3032 20 15.5002 20C15.6972 20 15.8922 19.9612 16.0742 19.8858C16.2562 19.8104 16.4216 19.6999 16.5609 19.5607C16.7001 19.4214 16.8106 19.256 16.886 19.074C16.9614 18.892 17.0002 18.697 17.0002 18.5ZM21.0002 18.5C21.0002 18.1022 20.8422 17.7206 20.5609 17.4393C20.2795 17.158 19.898 17 19.5002 17C19.1024 17 18.7208 17.158 18.4395 17.4393C18.1582 17.7206 18.0002 18.1022 18.0002 18.5C18.0002 18.8978 18.1582 19.2794 18.4395 19.5607C18.7208 19.842 19.1024 20 19.5002 20C19.898 20 20.2795 19.842 20.5609 19.5607C20.8422 19.2794 21.0002 18.8978 21.0002 18.5ZM11.5002 16C11.898 16 12.2796 15.842 12.5609 15.5607C12.8422 15.2794 13.0002 14.8978 13.0002 14.5C13.0002 14.1022 12.8422 13.7206 12.5609 13.4393C12.2796 13.158 11.898 13 11.5002 13C11.1024 13 10.7208 13.158 10.4395 13.4393C10.1582 13.7206 10.0002 14.1022 10.0002 14.5C10.0002 14.8978 10.1582 15.2794 10.4395 15.5607C10.7208 15.842 11.1024 16 11.5002 16ZM13.0002 18.5C13.0002 18.1022 12.8422 17.7206 12.5609 17.4393C12.2796 17.158 11.898 17 11.5002 17C11.1024 17 10.7208 17.158 10.4395 17.4393C10.1582 17.7206 10.0002 18.1022 10.0002 18.5C10.0002 18.8978 10.1582 19.2794 10.4395 19.5607C10.7208 19.842 11.1024 20 11.5002 20C11.898 20 12.2796 19.842 12.5609 19.5607C12.8422 19.2794 13.0002 18.8978 13.0002 18.5ZM7.5002 20C7.89802 20 8.27955 19.842 8.56086 19.5607C8.84216 19.2794 9.0002 18.8978 9.0002 18.5C9.0002 18.1022 8.84216 17.7206 8.56086 17.4393C8.27955 17.158 7.89802 17 7.5002 17C7.10237 17 6.72084 17.158 6.43954 17.4393C6.15823 17.7206 6.0002 18.1022 6.0002 18.5C6.0002 18.8978 6.15823 19.2794 6.43954 19.5607C6.72084 19.842 7.10237 20 7.5002 20ZM21.0002 14.5C21.0002 14.1022 20.8422 13.7206 20.5609 13.4393C20.2795 13.158 19.898 13 19.5002 13C19.1024 13 18.7208 13.158 18.4395 13.4393C18.1582 13.7206 18.0002 14.1022 18.0002 14.5C18.0002 14.8978 18.1582 15.2794 18.4395 15.5607C18.7208 15.842 19.1024 16 19.5002 16C19.898 16 20.2795 15.842 20.5609 15.5607C20.8422 15.2794 21.0002 14.8978 21.0002 14.5ZM19.5002 12C19.898 12 20.2795 11.842 20.5609 11.5607C20.8422 11.2794 21.0002 10.8978 21.0002 10.5C21.0002 10.1022 20.8422 9.72064 20.5609 9.43934C20.2795 9.15804 19.898 9 19.5002 9C19.1024 9 18.7208 9.15804 18.4395 9.43934C18.1582 9.72064 18.0002 10.1022 18.0002 10.5C18.0002 10.8978 18.1582 11.2794 18.4395 11.5607C18.7208 11.842 19.1024 12 19.5002 12Z" fill="black"/>
</svg>
