<svg width="24" height="24" viewBox="0 0 24 24" fill="none" xmlns="http://www.w3.org/2000/svg">
<path d="M7.73764 18.675C7.54701 18.8813 7.28139 19 7.00014 19C6.71889 19 6.45326 18.8813 6.26264 18.675L3.51264 15.675C3.14076 15.2688 3.16576 14.6344 3.57514 14.2625C3.98451 13.8906 4.61576 13.9156 4.98764 14.325L6.00014 15.4281V6C6.00014 5.44687 6.44701 5 7.00014 5C7.55326 5 8.00014 5.44687 8.00014 6V15.4281L9.01264 14.3219C9.38451 13.9156 10.0189 13.8875 10.4251 14.2594C10.8314 14.6312 10.8595 15.2656 10.4876 15.6719L7.73764 18.6719V18.675ZM13.0001 19C12.447 19 12.0001 18.5531 12.0001 18C12.0001 17.4469 12.447 17 13.0001 17H14.0001C14.5533 17 15.0001 17.4469 15.0001 18C15.0001 18.5531 14.5533 19 14.0001 19H13.0001ZM13.0001 15C12.447 15 12.0001 14.5531 12.0001 14C12.0001 13.4469 12.447 13 13.0001 13H16.0001C16.5533 13 17.0001 13.4469 17.0001 14C17.0001 14.5531 16.5533 15 16.0001 15H13.0001ZM13.0001 11C12.447 11 12.0001 10.5531 12.0001 10C12.0001 9.44688 12.447 9 13.0001 9H18.0001C18.5533 9 19.0001 9.44688 19.0001 10C19.0001 10.5531 18.5533 11 18.0001 11H13.0001ZM13.0001 7C12.447 7 12.0001 6.55313 12.0001 6C12.0001 5.44687 12.447 5 13.0001 5H20.0001C20.5533 5 21.0001 5.44687 21.0001 6C21.0001 6.55313 20.5533 7 20.0001 7H13.0001Z" fill="black"/>
</svg>
