<svg width="24" height="24" viewBox="0 0 24 24" fill="none" xmlns="http://www.w3.org/2000/svg">
<path d="M8.73739 5.325C8.54677 5.11875 8.28114 5 7.99989 5C7.71864 5 7.45302 5.11875 7.26239 5.325L4.51239 8.325C4.14052 8.73125 4.16552 9.36563 4.57489 9.7375C4.98427 10.1094 5.61552 10.0844 5.98739 9.675L6.99989 8.57188V18C6.99989 18.5531 7.44677 19 7.99989 19C8.55302 19 8.99989 18.5531 8.99989 18V8.57188L10.0124 9.67812C10.3843 10.0844 11.0186 10.1125 11.4249 9.74062C11.8311 9.36875 11.8593 8.73438 11.4874 8.32812L8.73739 5.32812V5.325ZM12.9999 6.5V9.5C12.9999 10.3281 13.6718 11 14.4999 11H17.4999C18.328 11 18.9999 10.3281 18.9999 9.5V6.5C18.9999 5.67188 18.328 5 17.4999 5H14.4999C13.6718 5 12.9999 5.67188 12.9999 6.5ZM16.8468 13.4688C16.6655 13.175 16.3436 13 15.9999 13C15.6561 13 15.3343 13.1781 15.153 13.4688L12.653 17.4688C12.4593 17.7781 12.4499 18.1656 12.6249 18.4844C12.7999 18.8031 13.1374 19 13.4999 19H18.4999C18.8624 19 19.1968 18.8031 19.3749 18.4844C19.553 18.1656 19.5405 17.7781 19.3468 17.4688L16.8468 13.4688Z" fill="black"/>
</svg>
