<svg width="24" height="24" viewBox="0 0 24 24" fill="none" xmlns="http://www.w3.org/2000/svg">
<path d="M12 15C12.5531 15 13 14.5531 13 14V7.41564L13.7937 8.20939C14.1844 8.60001 14.8188 8.60001 15.2094 8.20939C15.6 7.81876 15.6 7.18439 15.2094 6.79376L12.7094 4.29376C12.3188 3.90314 11.6844 3.90314 11.2937 4.29376L8.79375 6.79376C8.40312 7.18439 8.40312 7.81876 8.79375 8.20939C9.18437 8.60001 9.81875 8.60001 10.2094 8.20939L11 7.41564V14C11 14.5531 11.4469 15 12 15ZM11.4219 17.1844C10.7188 17.6688 9.85938 18 9 18C8.15938 18 7.27187 17.6625 6.58125 17.1844C6.20937 16.9188 5.70313 16.9406 5.35625 17.2375C4.90625 17.6094 4.34062 17.8938 3.775 18.025C3.2375 18.15 2.90312 18.6875 3.02812 19.225C3.15312 19.7625 3.69062 20.0969 4.22812 19.9719C4.99375 19.7938 5.63125 19.4563 6.04688 19.1906C6.95312 19.6781 7.96875 20 9 20C9.99687 20 10.8937 19.6906 11.5125 19.4094C11.6937 19.325 11.8594 19.2438 12 19.1688C12.1406 19.2438 12.3031 19.3281 12.4875 19.4094C13.1063 19.6906 14.0031 20 15 20C16.0312 20 17.0469 19.6781 17.9531 19.1938C18.3719 19.4563 19.0063 19.7969 19.7719 19.975C20.3094 20.1 20.8469 19.7656 20.9719 19.2281C21.0969 18.6906 20.7625 18.1531 20.225 18.0281C19.6594 17.8969 19.0938 17.6125 18.6438 17.2406C18.2969 16.9469 17.7906 16.925 17.4187 17.1875C16.7312 17.6625 15.8406 18 15 18C14.1406 18 13.2812 17.6688 12.5781 17.1844C12.2312 16.9375 11.7688 16.9375 11.4219 17.1844ZM9 10H4.5C3.67188 10 3 10.6719 3 11.5V17.2813C3.16563 17.1844 3.35 17.1125 3.54688 17.0656C3.95625 16.9688 4.38125 16.7594 4.7125 16.4844C5.40625 15.9 6.40937 15.8563 7.15312 16.3781C7.71562 16.7656 8.40625 17.0125 9 17.0125V10ZM21 11.5C21 10.6719 20.3281 10 19.5 10H15V17.0156C15.5938 17.0156 16.2875 16.7688 16.85 16.3813C17.5938 15.8594 18.5937 15.9031 19.2906 16.4875C19.6219 16.7625 20.0469 16.975 20.4562 17.0688C20.6531 17.1156 20.8344 17.1875 21.0031 17.2844V11.5H21Z" fill="black"/>
</svg>
