<svg width="24" height="24" viewBox="0 0 24 24" fill="none" xmlns="http://www.w3.org/2000/svg">
<path d="M18 7H6C5.44688 7 5 7.44688 5 8V14C5 14.5531 5.44688 15 6 15H8.17188L6.5875 16.5844C6.4625 16.7094 6.35625 16.85 6.26875 17H6C4.34375 17 3 15.6562 3 14V8C3 6.34375 4.34375 5 6 5H18C19.6562 5 21 6.34375 21 8V14C21 15.6562 19.6562 17 18 17H17.7312C17.6438 16.85 17.5375 16.7125 17.4125 16.5844L15.8281 15H18C18.5531 15 19 14.5531 19 14V8C19 7.44688 18.5531 7 18 7ZM11.2937 13.2937C11.6844 12.9031 12.3188 12.9031 12.7094 13.2937L16.7094 17.2937C16.9969 17.5813 17.0813 18.0094 16.925 18.3844C16.7688 18.7594 16.4062 19.0031 16 19.0031H8C7.59688 19.0031 7.23125 18.7594 7.075 18.3844C6.91875 18.0094 7.00625 17.5813 7.29063 17.2937L11.2906 13.2937H11.2937Z" fill="black"/>
</svg>
