<svg width="24" height="24" viewBox="0 0 24 24" fill="none" xmlns="http://www.w3.org/2000/svg">
<path d="M3.21249 4.15943C2.88749 3.90318 2.41562 3.96255 2.15937 4.28755C1.90312 4.61255 1.96249 5.08443 2.28749 5.34068L20.7875 19.8407C21.1125 20.0969 21.5844 20.0376 21.8406 19.7126C22.0969 19.3876 22.0375 18.9157 21.7125 18.6594L20.775 17.9251C20.9187 17.6501 21 17.3344 21 17.0001V7.00005C21 5.89693 20.1031 5.00005 19 5.00005H4.99999C4.79062 5.00005 4.59062 5.0313 4.39999 5.09068L3.21249 4.15943ZM12.5 11.4376V9.75005C12.5 9.33443 12.8344 9.00005 13.25 9.00005H15C16.6562 9.00005 18 10.3438 18 12.0001C18 13.1032 17.4062 14.0657 16.5187 14.5876L15.125 13.4938C15.8969 13.4313 16.5031 12.7844 16.5031 12.0001C16.5031 11.1719 15.8312 10.5001 15.0031 10.5001H14V12.6157L12.5 11.4376ZM17.2312 19.0001L11.8219 14.7376C11.7594 14.8126 11.6781 14.8751 11.5875 14.9219C11.2156 15.1063 10.7656 14.9563 10.5812 14.5876L10.2875 13.9969H7.71562L7.42187 14.5876C7.23749 14.9594 6.78749 15.1094 6.41562 14.9219C6.04374 14.7344 5.89374 14.2876 6.08124 13.9157L7.40937 11.2594L2.99999 7.78755V17.0001C2.99999 18.1032 3.89687 19.0001 4.99999 19.0001H17.2312ZM9.29374 12.7438L8.61249 12.2063L8.34374 12.7438H9.29374Z" fill="black"/>
</svg>
