<svg width="24" height="24" viewBox="0 0 24 24" fill="none" xmlns="http://www.w3.org/2000/svg">
<path d="M11.4155 4.16602C11.7749 3.94727 12.228 3.94727 12.5874 4.16602L13.1468 4.50664C13.3312 4.61914 13.5437 4.67539 13.7593 4.66914L14.4124 4.65352C14.8343 4.64414 15.2249 4.86914 15.428 5.23789L15.7405 5.81289C15.8437 6.00352 15.9999 6.15664 16.1874 6.25977L16.7624 6.57227C17.1312 6.77539 17.3593 7.16602 17.3468 7.58789L17.3312 8.24102C17.3249 8.45664 17.3843 8.66914 17.4937 8.85352L17.8343 9.41289C18.053 9.77227 18.053 10.2254 17.8343 10.5848L17.4937 11.1441C17.3812 11.3285 17.3249 11.541 17.3312 11.7566L17.3468 12.4098C17.3562 12.8316 17.1312 13.2223 16.7624 13.4254L16.1874 13.7379C15.9968 13.841 15.8437 13.9973 15.7405 14.1848L15.428 14.7598C15.2249 15.1285 14.8343 15.3566 14.4124 15.3441L13.7593 15.3285C13.5437 15.3223 13.3312 15.3816 13.1468 15.491L12.5874 15.8316C12.228 16.0504 11.7749 16.0504 11.4155 15.8316L10.8562 15.491C10.6718 15.3785 10.4593 15.3223 10.2437 15.3285L9.59053 15.3441C9.16865 15.3535 8.77803 15.1285 8.5749 14.7598L8.2624 14.1879C8.15928 13.9973 8.00303 13.8441 7.81553 13.741L7.24053 13.4285C6.87178 13.2254 6.64365 12.8348 6.65615 12.4129L6.67178 11.7598C6.67803 11.5441 6.61865 11.3316 6.50928 11.1473L6.16553 10.5848C5.94678 10.2254 5.94678 9.77227 6.16553 9.41289L6.50615 8.85352C6.61865 8.66914 6.6749 8.45664 6.66865 8.24102L6.65303 7.58789C6.64365 7.16602 6.86865 6.77539 7.2374 6.57227L7.8124 6.26289C8.00303 6.15977 8.15615 6.00352 8.25928 5.81602L8.57178 5.24102C8.7749 4.87227 9.16553 4.64414 9.5874 4.65664L10.2405 4.67227C10.4562 4.67852 10.6687 4.61914 10.853 4.50977L11.4155 4.16602ZM14.4999 10.0004C14.4999 9.33735 14.2365 8.70146 13.7677 8.23262C13.2988 7.76378 12.6629 7.50039 11.9999 7.50039C11.3369 7.50039 10.701 7.76378 10.2321 8.23262C9.76329 8.70146 9.4999 9.33735 9.4999 10.0004C9.4999 10.6634 9.76329 11.2993 10.2321 11.7682C10.701 12.237 11.3369 12.5004 11.9999 12.5004C12.6629 12.5004 13.2988 12.237 13.7677 11.7682C14.2365 11.2993 14.4999 10.6634 14.4999 10.0004ZM8.0124 19.3879L8.7499 16.1879C9.02803 16.3035 9.33115 16.3629 9.64365 16.3566L10.2905 16.341C10.2968 16.341 10.303 16.3441 10.3093 16.3473L10.8593 16.6816C11.5593 17.1066 12.4374 17.1066 13.1374 16.6816L13.6905 16.3441C13.6968 16.341 13.703 16.3379 13.7093 16.3379L14.3562 16.3535C14.6687 16.3598 14.9718 16.3004 15.2499 16.1848L15.9874 19.3848C16.028 19.5566 15.9718 19.7379 15.8437 19.8598C15.7155 19.9816 15.5312 20.0254 15.3624 19.9785L11.9999 19.0191L8.6374 19.9816C8.46865 20.0316 8.28428 19.9848 8.15615 19.8629C8.02803 19.741 7.9749 19.5598 8.0124 19.3879Z" fill="black"/>
</svg>
