<svg width="24" height="24" viewBox="0 0 24 24" fill="none" xmlns="http://www.w3.org/2000/svg">
<path d="M12.0001 7C12.0001 7.26522 11.8947 7.51957 11.7072 7.70711C11.5197 7.89464 11.2653 8 11.0001 8C10.7349 8 10.4805 7.89464 10.293 7.70711C10.1055 7.51957 10.0001 7.26522 10.0001 7C10.0001 6.73478 10.1055 6.48043 10.293 6.29289C10.4805 6.10536 10.7349 6 11.0001 6C11.2653 6 11.5197 6.10536 11.7072 6.29289C11.8947 6.48043 12.0001 6.73478 12.0001 7ZM12.6595 9.5C13.4688 8.9625 14.0001 8.04375 14.0001 7C14.0001 5.34375 12.6563 4 11.0001 4C9.34385 4 8.0001 5.34375 8.0001 7C8.0001 8.04375 8.53135 8.9625 9.34072 9.5H9.0001C8.44697 9.5 8.0001 9.94688 8.0001 10.5C8.0001 11.0531 8.44697 11.5 9.0001 11.5H10.0001V18H8.5001C6.84385 18 5.5001 16.6562 5.5001 15V14.8094L5.71885 15.0281C6.0126 15.3219 6.4876 15.3219 6.77822 15.0281C7.06885 14.7344 7.07197 14.2594 6.77822 13.9688L5.03135 12.2188C4.7376 11.925 4.2626 11.925 3.97197 12.2188L2.21885 13.9688C1.9251 14.2625 1.9251 14.7375 2.21885 15.0281C2.5126 15.3187 2.9876 15.3219 3.27822 15.0281L3.49697 14.8094V15C3.49697 17.7625 5.73447 20 8.49697 20H10.997H13.497C13.747 20 13.9938 19.9812 14.2345 19.9469C14.0845 19.6656 13.997 19.3438 13.997 19V17.9594C13.8345 17.9875 13.6688 18 13.497 18H12.0001V11.5H13.0001C13.5532 11.5 14.0001 11.0531 14.0001 10.5C14.0001 9.94688 13.5532 9.5 13.0001 9.5H12.6595ZM18.5001 11.5C19.0532 11.5 19.5001 11.9469 19.5001 12.5V14H17.5001V12.5C17.5001 11.9469 17.947 11.5 18.5001 11.5ZM16.0001 12.5V14C15.447 14 15.0001 14.4469 15.0001 15V19C15.0001 19.5531 15.447 20 16.0001 20H21.0001C21.5532 20 22.0001 19.5531 22.0001 19V15C22.0001 14.4469 21.5532 14 21.0001 14V12.5C21.0001 11.1188 19.8813 10 18.5001 10C17.1188 10 16.0001 11.1188 16.0001 12.5Z" fill="black"/>
</svg>
