<svg width="24" height="24" viewBox="0 0 24 24" fill="none" xmlns="http://www.w3.org/2000/svg">
<path d="M16.7062 10.3313C16.4656 9.65005 16.075 9.00942 15.525 8.46255C13.5718 6.50942 10.4062 6.50942 8.45308 8.46255L7.92183 9.00005H8.9937C9.54683 9.00005 9.9937 9.44692 9.9937 10C9.9937 10.5532 9.54683 11 8.9937 11H5.50933H5.49683C4.9437 11 4.49683 10.5532 4.49683 10V6.50005C4.49683 5.94692 4.9437 5.50005 5.49683 5.50005C6.04995 5.50005 6.49683 5.94692 6.49683 6.50005V7.60005L7.0437 7.05005C9.77808 4.31567 14.2093 4.31567 16.9437 7.05005C17.7062 7.81255 18.2593 8.70942 18.5968 9.66567C18.7812 10.1875 18.5062 10.7563 17.9875 10.9407C17.4687 11.125 16.8968 10.85 16.7125 10.3313H16.7062ZM18.7718 13.0375C18.9281 13.0844 19.0781 13.1688 19.2 13.2938C19.325 13.4188 19.4093 13.5719 19.4531 13.7313C19.4625 13.7688 19.4718 13.8094 19.4781 13.85C19.4875 13.9032 19.4906 13.9563 19.4906 14.0094V17.5C19.4906 18.0532 19.0437 18.5 18.4906 18.5C17.9375 18.5 17.4906 18.0532 17.4906 17.5V16.4032L16.9406 16.95C14.2062 19.6813 9.77495 19.6813 7.0437 16.95C6.2812 16.1875 5.72808 15.2907 5.39058 14.3313C5.2062 13.8094 5.4812 13.2407 5.99995 13.0563C6.5187 12.8719 7.09058 13.1469 7.27495 13.6657C7.51558 14.3469 7.9062 14.9875 8.4562 15.5344C10.4093 17.4875 13.575 17.4875 15.5281 15.5344L15.5312 15.5313L16.0656 15H14.9937C14.4406 15 13.9937 14.5532 13.9937 14C13.9937 13.4469 14.4406 13 14.9937 13H18.4812C18.5312 13 18.5812 13.0032 18.6312 13.0094C18.6812 13.0157 18.7281 13.025 18.775 13.0407L18.7718 13.0375Z" fill="black"/>
</svg>
