<svg width="24" height="24" viewBox="0 0 24 24" fill="none" xmlns="http://www.w3.org/2000/svg">
<path d="M15 6C15 6 15 6.00312 15 6.00625C15 6.00937 14.9969 6.01563 14.9937 6.025C14.9844 6.04375 14.9656 6.08125 14.9219 6.13438C14.8781 6.1875 14.8156 6.24688 14.7281 6.30938C14.9375 6.56875 15.1094 6.85937 15.2375 7.175C15.7188 6.84375 16 6.4375 16 6C16 4.89688 14.2094 4 12 4C9.79063 4 8 4.89688 8 6C8 6.4375 8.28125 6.84375 8.75938 7.17188C8.8875 6.85938 9.05938 6.56875 9.26875 6.30625C9.18438 6.24375 9.11875 6.18125 9.075 6.13125C9.03125 6.07812 9.0125 6.04375 9.00313 6.02187C9 6.0125 8.99687 6.00625 8.99687 6.00312C8.99687 6 8.99687 6 8.99687 5.99688C8.99687 5.99375 8.99687 5.99375 8.99687 5.99063C8.99687 5.9875 9 5.98125 9.00313 5.97187C9.0125 5.95312 9.03125 5.91562 9.075 5.8625C9.16562 5.75312 9.3375 5.61563 9.61562 5.475C10.175 5.2 11.0156 5 12 5C12.9844 5 13.825 5.2 14.3813 5.48125C14.6594 5.62188 14.8312 5.75937 14.9219 5.86875C14.9656 5.92187 14.9844 5.95625 14.9937 5.97812C14.9969 5.9875 15 5.99375 15 5.99688C15 6 15 6 15 6.00312V6ZM14.5 8.5C14.5 7.83696 14.2366 7.20107 13.7678 6.73223C13.2989 6.26339 12.663 6 12 6C11.337 6 10.7011 6.26339 10.2322 6.73223C9.76339 7.20107 9.5 7.83696 9.5 8.5C9.5 9.16304 9.76339 9.79893 10.2322 10.2678C10.7011 10.7366 11.337 11 12 11C12.663 11 13.2989 10.7366 13.7678 10.2678C14.2366 9.79893 14.5 9.16304 14.5 8.5ZM6.75 18.5H4.55313L5.7375 16.1313C5.9125 15.7844 6 15.4 6 15.0125V14.9844C6 14.5969 5.90937 14.2125 5.7375 13.8656L5.1625 12.7188C5.05625 12.5094 5 12.2687 5 12.0281C5 11.1812 5.6875 10.5 6.50625 10.5C6.90625 10.5 7.2875 10.6594 7.57188 10.9406L9.64687 13.0156C9.43437 13.2406 9.25 13.5 9.10625 13.7875L6.75 18.5ZM10.9313 12.1812L8.63125 9.88125C8.06875 9.31875 7.30312 9 6.50625 9C4.84687 9 3.5 10.3687 3.5 12.0281C3.5 12.5 3.60938 12.9688 3.81875 13.3906L4.39375 14.5375C4.4625 14.675 4.5 14.8281 4.5 14.9844V15.0125C4.5 15.1687 4.4625 15.3219 4.39375 15.4594L3.15 17.95C3.05 18.1469 3 18.3656 3 18.5844C3 19.3656 3.63437 20 4.41562 20H6H9H15H18H19.5844C20.3656 20 21 19.3656 21 18.5844C21 18.3656 20.95 18.1469 20.85 17.95L19.6063 15.4594C19.5375 15.3219 19.5 15.1687 19.5 15.0125V14.9844C19.5 14.8281 19.5375 14.675 19.6063 14.5375L20.1812 13.3906C20.3906 12.9688 20.5 12.5 20.5 12.0281C20.5 10.3687 19.1531 9 17.4937 9C16.6969 9 15.9312 9.31562 15.3687 9.88125L13.0688 12.1812C12.7313 12.0625 12.3688 12 12 12C11.6312 12 11.2688 12.0625 10.9313 12.1812ZM14.8938 13.7875C14.75 13.5 14.5687 13.2406 14.3531 13.0156L16.4281 10.9406C16.7094 10.6594 17.0937 10.5 17.4937 10.5C18.3094 10.5 19 11.1812 19 12.0281C19 12.2687 18.9437 12.5094 18.8375 12.7188L18.2625 13.8656C18.0875 14.2125 18 14.5969 18 14.9844V15.0125C18 15.4 18.0906 15.7844 18.2625 16.1313L19.4469 18.5H17.25L14.8938 13.7875Z" fill="black"/>
</svg>
