<svg width="24" height="24" viewBox="0 0 24 24" fill="none" xmlns="http://www.w3.org/2000/svg">
<path d="M11.7062 8.70664C11.3156 9.09727 10.6812 9.09727 10.2906 8.70664C9.89995 8.31602 9.89995 7.68164 10.2906 7.29102L13.2906 4.29102C13.6812 3.90039 14.3156 3.90039 14.7062 4.29102L17.7062 7.29102C18.0968 7.68164 18.0968 8.31602 17.7062 8.70664C17.3156 9.09727 16.6812 9.09727 16.2906 8.70664L15 7.41602V16.0004C15 17.1035 15.8968 18.0004 17 18.0004H19C19.5531 18.0004 20 18.4473 20 19.0004C20 19.5535 19.5531 20.0004 19 20.0004H17C14.7906 20.0004 13 18.2098 13 16.0004C13 14.8973 12.1031 14.0004 11 14.0004H7.41558L8.70933 15.2941C9.09995 15.6848 9.09995 16.3191 8.70933 16.7098C8.3187 17.1004 7.68433 17.1004 7.2937 16.7098L4.2937 13.7098C3.90308 13.3191 3.90308 12.6848 4.2937 12.2941L7.2937 9.29414C7.68433 8.90352 8.3187 8.90352 8.70933 9.29414C9.09995 9.68477 9.09995 10.3191 8.70933 10.7098L7.41558 12.0004H11C11.7281 12.0004 12.4125 12.1941 13 12.5348V7.41602L11.7062 8.70977V8.70664Z" fill="black"/>
</svg>
