<svg width="24" height="24" viewBox="0 0 24 24" fill="none" xmlns="http://www.w3.org/2000/svg">
<path d="M12.7063 4.2937C12.3156 3.90308 11.6813 3.90308 11.2906 4.2937L8.29063 7.2937C7.9 7.68433 7.9 8.3187 8.29063 8.70933C8.68125 9.09995 9.31563 9.09995 9.70625 8.70933L11 7.41558V14C11 14.5531 11.4469 15 12 15C12.5531 15 13 14.5531 13 14V7.41558L14.2937 8.70933C14.6844 9.09995 15.3188 9.09995 15.7094 8.70933C16.1 8.3187 16.1 7.68433 15.7094 7.2937L12.7094 4.2937H12.7063ZM6 7.49995C6 7.22495 6.225 6.99995 6.5 6.99995H6.75C7.30312 6.99995 7.75 6.55308 7.75 5.99995C7.75 5.44683 7.30312 4.99995 6.75 4.99995H6.5C5.11875 4.99995 4 6.1187 4 7.49995V17.5C4 18.8812 5.11875 20 6.5 20H17.5C18.8813 20 20 18.8812 20 17.5V7.49995C20 6.1187 18.8813 4.99995 17.5 4.99995H17.25C16.6969 4.99995 16.25 5.44683 16.25 5.99995C16.25 6.55308 16.6969 6.99995 17.25 6.99995H17.5C17.775 6.99995 18 7.22495 18 7.49995V17.5C18 17.775 17.775 18 17.5 18H6.5C6.225 18 6 17.775 6 17.5V7.49995Z" fill="black"/>
</svg>
