<svg width="24" height="24" viewBox="0 0 24 24" fill="none" xmlns="http://www.w3.org/2000/svg">
<path d="M8.73764 18.675C8.54701 18.8813 8.28139 19 8.00014 19C7.71889 19 7.45326 18.8813 7.26264 18.675L4.51264 15.675C4.14076 15.2688 4.16576 14.6344 4.57514 14.2625C4.98451 13.8906 5.61576 13.9156 5.98764 14.325L7.00014 15.4281V6C7.00014 5.44687 7.44701 5 8.00014 5C8.55326 5 9.00014 5.44687 9.00014 6V15.4281L10.0126 14.3219C10.3845 13.9156 11.0189 13.8875 11.4251 14.2594C11.8314 14.6312 11.8595 15.2656 11.4876 15.6719L8.73764 18.6719V18.675ZM13.0001 6C13.0001 5.44687 13.447 5 14.0001 5H18.0001C18.4033 5 18.7689 5.24375 18.9251 5.61875C19.0814 5.99375 18.9939 6.42187 18.7095 6.70937L16.4158 9H18.0001C18.5533 9 19.0001 9.44688 19.0001 10C19.0001 10.5531 18.5533 11 18.0001 11H14.0001C13.597 11 13.2314 10.7562 13.0751 10.3812C12.9189 10.0062 13.0064 9.57812 13.2908 9.29063L15.5845 7H14.0001C13.447 7 13.0001 6.55313 13.0001 6ZM16.0001 12C16.3783 12 16.7251 12.2125 16.8939 12.5531L18.8939 16.5531L19.3939 17.5531C19.6408 18.0469 19.4408 18.6469 18.947 18.8938C18.4533 19.1406 17.8533 18.9406 17.6064 18.4469L17.3814 18H14.6189L14.3939 18.4469C14.147 18.9406 13.547 19.1406 13.0533 18.8938C12.5595 18.6469 12.3595 18.0469 12.6064 17.5531L13.1064 16.5531L15.1064 12.5531C15.2751 12.2156 15.622 12 16.0001 12ZM15.3689 16.5H16.6314L16.0001 15.2375L15.3689 16.5Z" fill="black"/>
</svg>
