<svg width="24" height="24" viewBox="0 0 24 24" fill="none" xmlns="http://www.w3.org/2000/svg">
<path d="M12.7062 4.29376C12.3156 3.90314 11.6812 3.90314 11.2906 4.29376L9.29058 6.29376C8.89995 6.68439 8.89995 7.31876 9.29058 7.70939C9.6812 8.10001 10.3156 8.10001 10.7062 7.70939L11 7.41564V11H7.41558L7.70933 10.7063C8.09995 10.3156 8.09995 9.68126 7.70933 9.29064C7.3187 8.90001 6.68433 8.90001 6.2937 9.29064L4.2937 11.2906C3.90308 11.6813 3.90308 12.3156 4.2937 12.7063L6.2937 14.7063C6.68433 15.0969 7.3187 15.0969 7.70933 14.7063C8.09995 14.3156 8.09995 13.6813 7.70933 13.2906L7.41558 12.9969H11V16.5844L10.7062 16.2906C10.3156 15.9 9.6812 15.9 9.29058 16.2906C8.89995 16.6813 8.89995 17.3156 9.29058 17.7063L11.2906 19.7063C11.6812 20.0969 12.3156 20.0969 12.7062 19.7063L14.7062 17.7063C15.0968 17.3156 15.0968 16.6813 14.7062 16.2906C14.3156 15.9 13.6812 15.9 13.2906 16.2906L12.9968 16.5844V13H16.5843L16.2906 13.2938C15.9 13.6844 15.9 14.3188 16.2906 14.7094C16.6812 15.1 17.3156 15.1 17.7062 14.7094L19.7062 12.7094C20.0968 12.3188 20.0968 11.6844 19.7062 11.2938L17.7062 9.29376C17.3156 8.90314 16.6812 8.90314 16.2906 9.29376C15.9 9.68439 15.9 10.3188 16.2906 10.7094L16.5843 11.0031H13V7.41564L13.2937 7.70939C13.6843 8.10001 14.3187 8.10001 14.7093 7.70939C15.1 7.31876 15.1 6.68439 14.7093 6.29376L12.7093 4.29376H12.7062Z" fill="black"/>
</svg>
