<svg width="24" height="24" viewBox="0 0 24 24" fill="none" xmlns="http://www.w3.org/2000/svg">
<path d="M12.9218 5.61563C12.7687 5.24375 12.403 5 11.9999 5C11.5968 5 11.2312 5.24375 11.078 5.61563L7.32804 14.6156L6.07804 17.6156C5.86554 18.125 6.10616 18.7094 6.61554 18.9219C7.12491 19.1344 7.70929 18.8937 7.92179 18.3844L8.91554 16H15.0843L16.078 18.3844C16.2905 18.8937 16.8749 19.1344 17.3843 18.9219C17.8937 18.7094 18.1343 18.125 17.9218 17.6156L16.6718 14.6156L12.9218 5.61563ZM14.2499 14H9.74991L11.9999 8.6L14.2499 14Z" fill="black"/>
</svg>
