<svg width="24" height="24" viewBox="0 0 24 24" fill="none" xmlns="http://www.w3.org/2000/svg">
<path d="M12.7063 4.29376C12.3156 3.90314 11.6813 3.90314 11.2906 4.29376L9.29063 6.29376C9.00313 6.58126 8.91875 7.00939 9.075 7.38439C9.23125 7.75939 9.59375 8.00314 10 8.00314H11V9.00314C11 9.55626 11.4469 10.0031 12 10.0031C12.5531 10.0031 13 9.55626 13 9.00314V8.00001H14C14.4031 8.00001 14.7688 7.75626 14.925 7.38126C15.0813 7.00626 14.9938 6.57814 14.7094 6.29064L12.7094 4.29064L12.7063 4.29376ZM11 15V16H10C9.59688 16 9.23125 16.2438 9.075 16.6188C8.91875 16.9938 9.00625 17.4219 9.29063 17.7094L11.2906 19.7094C11.6813 20.1 12.3156 20.1 12.7063 19.7094L14.7063 17.7094C14.9938 17.4219 15.0781 16.9938 14.9219 16.6188C14.7656 16.2438 14.4031 16 13.9969 16H13V15C13 14.4469 12.5531 14 12 14C11.4469 14 11 14.4469 11 15ZM6 11C5.44687 11 5 11.4469 5 12C5 12.5531 5.44687 13 6 13H18C18.5531 13 19 12.5531 19 12C19 11.4469 18.5531 11 18 11H6Z" fill="black"/>
</svg>
