<svg width="24" height="24" viewBox="0 0 24 24" fill="none" xmlns="http://www.w3.org/2000/svg">
<path d="M17.0844 5.18753C16.825 5.00003 16.4875 4.94691 16.1844 5.05003L14.6844 5.55003C14.1594 5.72503 13.8781 6.29066 14.0531 6.81566C14.2281 7.34066 14.7938 7.62191 15.3188 7.44691L15.5031 7.38441V9.00003H15C14.4469 9.00003 14 9.44691 14 10C14 10.5532 14.4469 11 15 11H16.5H18C18.5531 11 19 10.5532 19 10C19 9.44691 18.5531 9.00003 18 9.00003H17.5V6.00003C17.5 5.67816 17.3469 5.37816 17.0844 5.18753ZM8.00001 19C8.28126 19 8.54689 18.8813 8.73751 18.675L11.4875 15.675C11.8594 15.2688 11.8344 14.6344 11.425 14.2625C11.0156 13.8907 10.3844 13.9157 10.0125 14.325L9.00001 15.4282V6.00003C9.00001 5.44691 8.55314 5.00003 8.00001 5.00003C7.44689 5.00003 7.00001 5.44691 7.00001 6.00003V15.4282L5.98751 14.325C5.61564 13.9188 4.98126 13.8907 4.57501 14.2625C4.16876 14.6344 4.14064 15.2688 4.51251 15.675L7.26251 18.675C7.45314 18.8813 7.71876 19 8.00001 19ZM16.0719 13.5938C16.1907 13.5376 16.3194 13.5053 16.4507 13.4988C16.582 13.4923 16.7132 13.5118 16.837 13.556C16.9608 13.6003 17.0746 13.6685 17.172 13.7567C17.2694 13.845 17.3485 13.9515 17.4047 14.0703C17.4609 14.1891 17.4932 14.3179 17.4997 14.4491C17.5061 14.5804 17.4867 14.7117 17.4425 14.8354C17.3982 14.9592 17.33 15.073 17.2418 15.1705C17.1535 15.2679 17.0469 15.3469 16.9281 15.4032C16.8093 15.4594 16.6806 15.4916 16.5493 15.4981C16.4181 15.5046 16.2868 15.4852 16.163 15.4409C16.0393 15.3967 15.9254 15.3285 15.828 15.2402C15.7306 15.152 15.6515 15.0454 15.5953 14.9266C15.5391 14.8078 15.5068 14.6791 15.5004 14.5478C15.4939 14.4165 15.5133 14.2853 15.5576 14.1615C15.6018 14.0377 15.67 13.9239 15.7583 13.8265C15.8465 13.7291 15.9531 13.65 16.0719 13.5938ZM15.6594 17.1188L15.4469 17.4063C15.1188 17.85 15.2125 18.475 15.6563 18.8063C16.1 19.1375 16.725 19.0407 17.0563 18.5969L18.5813 16.5407C19.0188 15.95 19.2531 15.2375 19.2531 14.5032C19.2531 12.9844 18.0219 11.7532 16.5031 11.7532C14.9844 11.7532 13.7531 12.9844 13.7531 14.5032C13.7531 15.7282 14.5531 16.7657 15.6625 17.1219L15.6594 17.1188Z" fill="black"/>
</svg>
