<svg width="24" height="24" viewBox="0 0 24 24" fill="none" xmlns="http://www.w3.org/2000/svg">
<path d="M8.73764 5.325C8.54701 5.11875 8.28139 5 8.00014 5C7.71889 5 7.45326 5.11875 7.26264 5.325L4.51264 8.325C4.14076 8.73125 4.16576 9.36563 4.57514 9.7375C4.98451 10.1094 5.61576 10.0844 5.98764 9.675L7.00014 8.57188V18C7.00014 18.5531 7.44701 19 8.00014 19C8.55326 19 9.00014 18.5531 9.00014 18V8.57188L10.0126 9.67812C10.3845 10.0844 11.0189 10.1125 11.4251 9.74062C11.8314 9.36875 11.8595 8.73438 11.4876 8.32812L8.73764 5.32812V5.325ZM13.0001 6C13.0001 6.55313 13.447 7 14.0001 7H15.5845L13.2908 9.29375C13.0033 9.58125 12.9189 10.0094 13.0751 10.3844C13.2314 10.7594 13.5939 11.0031 14.0001 11.0031H18.0001C18.5533 11.0031 19.0001 10.5563 19.0001 10.0031C19.0001 9.45 18.5533 9.00313 18.0001 9.00313H16.4158L18.7095 6.70937C18.997 6.42187 19.0814 5.99375 18.9251 5.61875C18.7689 5.24375 18.4064 5 18.0001 5H14.0001C13.447 5 13.0001 5.44687 13.0001 6ZM16.0001 12C15.622 12 15.2751 12.2125 15.1064 12.5531L13.1064 16.5531L12.6064 17.5531C12.3595 18.0469 12.5595 18.6469 13.0533 18.8938C13.547 19.1406 14.147 18.9406 14.3939 18.4469L14.6189 18H17.3814L17.6064 18.4469C17.8533 18.9406 18.4533 19.1406 18.947 18.8938C19.4408 18.6469 19.6408 18.0469 19.3939 17.5531L18.8939 16.5531L16.8939 12.5531C16.7251 12.2125 16.3783 12 16.0001 12ZM15.3689 16.5L16.0001 15.2375L16.6314 16.5H15.3689Z" fill="black"/>
</svg>
