<svg width="24" height="24" viewBox="0 0 24 24" fill="none" xmlns="http://www.w3.org/2000/svg">
<path d="M12.7063 4.29375C12.3156 3.90312 11.6813 3.90312 11.2906 4.29375L9.29064 6.29375C8.90001 6.68437 8.90001 7.31875 9.29064 7.70937C9.68126 8.1 10.3156 8.1 10.7063 7.70937L11 7.41562V11H7.41564L7.70939 10.7062C8.10001 10.3156 8.10001 9.68125 7.70939 9.29062C7.31876 8.9 6.68439 8.9 6.29376 9.29062L4.29376 11.2906C3.90314 11.6812 3.90314 12.3156 4.29376 12.7062L6.29376 14.7062C6.68439 15.0969 7.31876 15.0969 7.70939 14.7062C8.10001 14.3156 8.10001 13.6812 7.70939 13.2906L7.41564 12.9969H11V16.5844L10.7063 16.2906C10.3156 15.9 9.68126 15.9 9.29064 16.2906C8.90001 16.6812 8.90001 17.3156 9.29064 17.7062L11.2906 19.7062C11.6813 20.0969 12.3156 20.0969 12.7063 19.7062L14.7063 17.7062C15.0969 17.3156 15.0969 16.6812 14.7063 16.2906C14.3156 15.9 13.6813 15.9 13.2906 16.2906L12.9969 16.5844V13H16.5844L16.2906 13.2937C15.9 13.6844 15.9 14.3187 16.2906 14.7094C16.6813 15.1 17.3156 15.1 17.7063 14.7094L19.7063 12.7094C20.0969 12.3187 20.0969 11.6844 19.7063 11.2937L17.7063 9.29375C17.3156 8.90312 16.6813 8.90312 16.2906 9.29375C15.9 9.68437 15.9 10.3187 16.2906 10.7094L16.5844 11.0031H13V7.41562L13.2938 7.70937C13.6844 8.1 14.3188 8.1 14.7094 7.70937C15.1 7.31875 15.1 6.68437 14.7094 6.29375L12.7094 4.29375H12.7063Z" fill="black"/>
</svg>
