<svg width="24" height="24" viewBox="0 0 24 24" fill="none" xmlns="http://www.w3.org/2000/svg">
<path d="M15 4C14.4469 4 14 4.44687 14 5C14 5.55313 14.4469 6 15 6H16.5844L13.2937 9.29375C12.9031 9.68437 12.9031 10.3187 13.2937 10.7094C13.6844 11.1 14.3188 11.1 14.7094 10.7094L18 7.41563V9C18 9.55312 18.4469 10 19 10C19.5531 10 20 9.55312 20 9V5C20 4.44687 19.5531 4 19 4H15ZM10.7063 13.2937C10.3156 12.9031 9.68125 12.9031 9.29063 13.2937L6 16.5844V15C6 14.4469 5.55313 14 5 14C4.44687 14 4 14.4469 4 15V19C4 19.5531 4.44687 20 5 20H9C9.55312 20 10 19.5531 10 19C10 18.4469 9.55312 18 9 18H7.41563L10.7063 14.7063C11.0969 14.3156 11.0969 13.6812 10.7063 13.2906V13.2937Z" fill="black"/>
</svg>
