<svg width="24" height="24" viewBox="0 0 24 24" fill="none" xmlns="http://www.w3.org/2000/svg">
<path d="M5.2937 11.2938C4.90308 11.6844 4.90308 12.3188 5.2937 12.7094L10.2937 17.7094C10.6843 18.1 11.3187 18.1 11.7093 17.7094C12.1 17.3188 12.1 16.6844 11.7093 16.2938L7.41558 12L11.7062 7.70627C12.0968 7.31565 12.0968 6.68127 11.7062 6.29065C11.3156 5.90002 10.6812 5.90002 10.2906 6.29065L5.29058 11.2906L5.2937 11.2938ZM16.2937 6.29377L11.2937 11.2938C10.9031 11.6844 10.9031 12.3188 11.2937 12.7094L16.2937 17.7094C16.6843 18.1 17.3187 18.1 17.7093 17.7094C18.1 17.3188 18.1 16.6844 17.7093 16.2938L13.4156 12L17.7062 7.70627C18.0968 7.31565 18.0968 6.68127 17.7062 6.29065C17.3156 5.90002 16.6812 5.90002 16.2906 6.29065L16.2937 6.29377Z" fill="black"/>
</svg>
