<svg width="24" height="24" viewBox="0 0 24 24" fill="none" xmlns="http://www.w3.org/2000/svg">
<path d="M12 7C12 7.26522 11.8946 7.51957 11.7071 7.70711C11.5196 7.89464 11.2652 8 11 8C10.7348 8 10.4804 7.89464 10.2929 7.70711C10.1054 7.51957 10 7.26522 10 7C10 6.73478 10.1054 6.48043 10.2929 6.29289C10.4804 6.10536 10.7348 6 11 6C11.2652 6 11.5196 6.10536 11.7071 6.29289C11.8946 6.48043 12 6.73478 12 7ZM12.6594 9.5C13.4688 8.9625 14 8.04375 14 7C14 5.34375 12.6563 4 11 4C9.34376 4 8.00001 5.34375 8.00001 7C8.00001 8.04375 8.53126 8.9625 9.34063 9.5H9.00001C8.44688 9.5 8.00001 9.94688 8.00001 10.5C8.00001 11.0531 8.44688 11.5 9.00001 11.5H10V18H8.50001C6.84376 18 5.50001 16.6562 5.50001 15V14.8094L5.71876 15.0281C6.01251 15.3219 6.48751 15.3219 6.77813 15.0281C7.06876 14.7344 7.07188 14.2594 6.77813 13.9688L5.03126 12.2188C4.73751 11.925 4.26251 11.925 3.97188 12.2188L2.21876 13.9688C1.92501 14.2625 1.92501 14.7375 2.21876 15.0281C2.51251 15.3187 2.98751 15.3219 3.27813 15.0281L3.49688 14.8094V15C3.49688 17.7625 5.73438 20 8.49688 20H10.9969H13.4969C13.7531 20 14.0063 19.9813 14.2531 19.9438C13.5594 19.4375 12.9906 18.7719 12.5969 18H12V15.5V11.5H13C13.5531 11.5 14 11.0531 14 10.5C14 9.94688 13.5531 9.5 13 9.5H12.6594ZM22 15.5C22 14.3065 21.5259 13.1619 20.682 12.318C19.8381 11.4741 18.6935 11 17.5 11C16.3065 11 15.1619 11.4741 14.318 12.318C13.4741 13.1619 13 14.3065 13 15.5C13 16.6935 13.4741 17.8381 14.318 18.682C15.1619 19.5259 16.3065 20 17.5 20C18.6935 20 19.8381 19.5259 20.682 18.682C21.5259 17.8381 22 16.6935 22 15.5ZM19.6031 14.1469C19.7969 14.3406 19.7969 14.6594 19.6031 14.8531L17.3531 17.1031C17.1594 17.2969 16.8406 17.2969 16.6469 17.1031L15.3969 15.8531C15.2031 15.6594 15.2031 15.3406 15.3969 15.1469C15.5906 14.9531 15.9094 14.9531 16.1031 15.1469L17 16.0437L18.8969 14.1469C19.0906 13.9531 19.4094 13.9531 19.6031 14.1469Z" fill="black"/>
</svg>
