<svg width="24" height="24" viewBox="0 0 24 24" fill="none" xmlns="http://www.w3.org/2000/svg">
<path d="M18 6C18 5.44687 18.4469 5 19 5C19.5531 5 20 5.44687 20 6V11C20 12.6562 18.6563 14 17 14H7.41564L9.70939 16.2937C10.1 16.6844 10.1 17.3188 9.70939 17.7094C9.31876 18.1 8.68439 18.1 8.29376 17.7094L4.29376 13.7094C3.90314 13.3188 3.90314 12.6844 4.29376 12.2937L8.29376 8.29375C8.68439 7.90312 9.31876 7.90312 9.70939 8.29375C10.1 8.68437 10.1 9.31875 9.70939 9.70937L7.41564 12H17C17.5531 12 18 11.5531 18 11V6Z" fill="black"/>
</svg>
