<svg width="24" height="24" viewBox="0 0 24 24" fill="none" xmlns="http://www.w3.org/2000/svg">
<path d="M10.9156 5.09688C11.1062 4.72813 10.9625 4.275 10.5969 4.08438C10.2313 3.89375 9.775 4.0375 9.58437 4.40313L6.675 10H4C3.44687 10 3 10.4469 3 11C3 11.5531 3.44687 12 4 12L5.62188 18.4844C5.84375 19.375 6.64375 20 7.5625 20H16.4375C17.3562 20 18.1562 19.375 18.3781 18.4844L20 12C20.5531 12 21 11.5531 21 11C21 10.4469 20.5531 10 20 10H17.325L14.4156 4.40313C14.225 4.0375 13.7719 3.89375 13.4031 4.08438C13.0344 4.275 12.8938 4.72813 13.0844 5.09688L15.6344 10H8.36562L10.9156 5.09688ZM9 13.5V16.5C9 16.775 8.775 17 8.5 17C8.225 17 8 16.775 8 16.5V13.5C8 13.225 8.225 13 8.5 13C8.775 13 9 13.225 9 13.5ZM12 13C12.275 13 12.5 13.225 12.5 13.5V16.5C12.5 16.775 12.275 17 12 17C11.725 17 11.5 16.775 11.5 16.5V13.5C11.5 13.225 11.725 13 12 13ZM16 13.5V16.5C16 16.775 15.775 17 15.5 17C15.225 17 15 16.775 15 16.5V13.5C15 13.225 15.225 13 15.5 13C15.775 13 16 13.225 16 13.5Z" fill="black"/>
</svg>
