<svg width="24" height="24" viewBox="0 0 24 24" fill="none" xmlns="http://www.w3.org/2000/svg">
<path d="M5.99989 4.25C6.28427 4.25 6.53114 4.40625 6.65927 4.64062C7.75614 6.55 9.80302 7.75 11.9999 7.75C14.1968 7.75 16.2436 6.55 17.3405 4.64062C17.4686 4.40625 17.7155 4.25 17.9999 4.25C18.2749 4.25 18.5155 4.39687 18.6468 4.61875C19.0561 5.28125 19.478 5.9375 19.9593 6.4875C20.4436 7.04062 20.9499 7.44375 21.503 7.64062C21.8936 7.78125 22.0936 8.20937 21.953 8.6C21.8124 8.99062 21.3843 9.19063 20.9936 9.05C20.1968 8.7625 19.5436 8.24375 18.9968 7.65937V12H20.9968C21.5499 12 21.9968 12.4469 21.9968 13V14C21.9968 14.5531 21.5499 15 20.9968 15C19.8936 15 18.9968 15.8969 18.9968 17V19C18.9968 19.5531 18.5499 20 17.9968 20H16.9999C16.4468 20 15.9999 19.5531 15.9999 19V18C15.9999 16.3438 14.6561 15 12.9999 15H10.9999C9.34364 15 7.99989 16.3438 7.99989 18V19C7.99989 19.5531 7.55302 20 6.99989 20H5.99989C5.44677 20 4.99989 19.5531 4.99989 19V17C4.99989 15.8969 4.10302 15 2.99989 15C2.44677 15 1.99989 14.5531 1.99989 14V13C1.99989 12.4469 2.44677 12 2.99989 12H4.99989V7.65937C4.45614 8.24375 3.79989 8.7625 3.00302 9.05C2.61239 9.19063 2.18427 8.9875 2.04364 8.6C1.90302 8.2125 2.10614 7.78125 2.49364 7.64062C3.04677 7.44062 3.55302 7.0375 4.03739 6.4875C4.51864 5.9375 4.94364 5.28125 5.34989 4.61875C5.48427 4.39687 5.72489 4.25 5.99989 4.25ZM16.9999 7.37812C16.6124 7.7125 16.1936 8.00625 15.7499 8.25938V12H16.9999V7.37812ZM14.2499 8.90938C13.7655 9.05938 13.2624 9.1625 12.7499 9.21562V12H14.2499V8.90625V8.90938ZM11.2499 9.21562C10.7374 9.16562 10.2343 9.0625 9.74989 8.90938V12.0031H11.2499V9.2125V9.21562ZM8.24989 8.2625C7.80614 8.0125 7.38739 7.71562 6.99989 7.38125V12H8.24989V8.25938V8.2625Z" fill="black"/>
</svg>
