<svg width="24" height="24" viewBox="0 0 24 24" fill="none" xmlns="http://www.w3.org/2000/svg">
<path d="M6 6L5.20625 5.20625C5.075 5.075 5 4.89375 5 4.70625C5 4.31563 5.31562 4 5.70625 4H18.2937C18.6844 4 19 4.31563 19 4.70625C19 4.89375 18.925 5.075 18.7937 5.20625L18 6H6ZM5.75 7H18.25L18.5813 8.32812C18.8594 9.4375 19 10.5781 19 11.725V12.2781C19 13.4219 18.8594 14.5625 18.5813 15.675L18.25 17H5.75L5.41875 15.6719C5.14063 14.5625 5 13.4219 5 12.275V11.725C5 10.5812 5.14063 9.44062 5.41875 8.32812L5.75 7ZM6 18H18L18.7937 18.7937C18.925 18.925 19 19.1062 19 19.2937C19 19.6844 18.6844 20 18.2937 20H5.70625C5.31562 20 5 19.6844 5 19.2937C5 19.1062 5.075 18.925 5.20625 18.7937L6 18ZM8.5 9C8.225 9 8 9.225 8 9.5C8 11.35 9.43438 12.8625 11.25 12.9906V14.25C11.25 14.6656 11.5844 15 12 15C12.4156 15 12.75 14.6656 12.75 14.25V12.9906C14.5656 12.8625 16 11.3469 16 9.5C16 9.225 15.775 9 15.5 9H15.4375C13.9594 9 12.675 9.8125 12 11.0156C11.325 9.8125 10.0406 9 8.5625 9H8.5Z" fill="black"/>
</svg>
