<svg width="24" height="24" viewBox="0 0 24 24" fill="none" xmlns="http://www.w3.org/2000/svg">
<path d="M10 15L9.15 5.63436C9.06875 4.75623 9.75938 3.99998 10.6438 3.99998H19.6906C20.35 3.99998 20.8281 4.62811 20.6563 5.26248L20.4531 5.99998H15.5C15.225 5.99998 15 6.22498 15 6.49998C15 6.77498 15.225 6.99998 15.5 6.99998H20.1813L19.6344 8.99998H15.5C15.225 8.99998 15 9.22498 15 9.49998C15 9.77498 15.225 9.99998 15.5 9.99998H19.3625L18.8156 12H15.5C15.225 12 15 12.225 15 12.5C15 12.775 15.225 13 15.5 13H18.5469L18 15H10ZM9.5 16H18.5C19.3281 16 20 16.6719 20 17.5V18.5C20 19.3281 19.3281 20 18.5 20H9.5C8.67188 20 8 19.3281 8 18.5V17.5C8 16.6719 8.67188 16 9.5 16ZM14 19C14.2652 19 14.5196 18.8946 14.7071 18.7071C14.8946 18.5196 15 18.2652 15 18C15 17.7348 14.8946 17.4804 14.7071 17.2929C14.5196 17.1053 14.2652 17 14 17C13.7348 17 13.4804 17.1053 13.2929 17.2929C13.1054 17.4804 13 17.7348 13 18C13 18.2652 13.1054 18.5196 13.2929 18.7071C13.4804 18.8946 13.7348 19 14 19ZM7.60938 4.95936C7.94688 5.16873 8.0875 5.61561 7.94063 6.00311L7.25313 7.80936C7.12188 8.14998 6.8 8.35936 6.4625 8.32186L5.42188 8.20936C4.99688 9.52811 4.99688 10.9719 5.42188 12.2937L6.4625 12.1812C6.80313 12.1437 7.125 12.3531 7.25313 12.6937L7.94063 14.5C8.0875 14.8875 7.94688 15.3344 7.60938 15.5437L6.23438 16.3937C5.93125 16.5812 5.55 16.525 5.30313 16.2594C2.23125 12.9375 2.23125 7.56248 5.30313 4.24373C5.55 3.97811 5.93125 3.92186 6.23438 4.10936L7.60938 4.95936Z" fill="black"/>
</svg>
