<svg width="24" height="24" viewBox="0 0 24 24" fill="none" xmlns="http://www.w3.org/2000/svg">
<path d="M10 7.5C10 6.39688 10.8969 5.5 12 5.5C13.1031 5.5 14 6.39688 14 7.5V9H10V7.5ZM8.5 9H6.5C5.67188 9 5 9.67188 5 10.5V17C5 18.6562 6.34375 20 8 20H16C17.6562 20 19 18.6562 19 17V10.5C19 9.67188 18.3281 9 17.5 9H15.5V7.5C15.5 5.56562 13.9344 4 12 4C10.0656 4 8.5 5.56562 8.5 7.5V9ZM9.25 10.5C9.44891 10.5 9.63968 10.579 9.78033 10.7197C9.92098 10.8603 10 11.0511 10 11.25C10 11.4489 9.92098 11.6397 9.78033 11.7803C9.63968 11.921 9.44891 12 9.25 12C9.05109 12 8.86032 11.921 8.71967 11.7803C8.57902 11.6397 8.5 11.4489 8.5 11.25C8.5 11.0511 8.57902 10.8603 8.71967 10.7197C8.86032 10.579 9.05109 10.5 9.25 10.5ZM14 11.25C14 11.0511 14.079 10.8603 14.2197 10.7197C14.3603 10.579 14.5511 10.5 14.75 10.5C14.9489 10.5 15.1397 10.579 15.2803 10.7197C15.421 10.8603 15.5 11.0511 15.5 11.25C15.5 11.4489 15.421 11.6397 15.2803 11.7803C15.1397 11.921 14.9489 12 14.75 12C14.5511 12 14.3603 11.921 14.2197 11.7803C14.079 11.6397 14 11.4489 14 11.25Z" fill="black"/>
</svg>
