<svg width="24" height="24" viewBox="0 0 24 24" fill="none" xmlns="http://www.w3.org/2000/svg">
<path d="M3 7C3 6.44687 3.44687 6 4 6H20C20.5531 6 21 6.44687 21 7V8.1125C21 8.60313 20.6031 9 20.1125 9C18.9469 9 18 9.94375 18 11.1125V15.0156C17.5969 15.0156 17.1938 15.1375 16.85 15.3813C16.2875 15.7688 15.5969 16.0156 15 16.0156V16V12C15 10.3438 13.6562 9 12 9C10.3438 9 9 10.3438 9 12V16V16.0156C8.40625 16.0156 7.7125 15.7688 7.15312 15.3813C6.80625 15.1375 6.40313 15.0156 6 15.0156V11.1125C6 9.94375 5.05625 9 3.8875 9C3.39687 9 3 8.60313 3 8.1125V7ZM12.5781 16.1844C13.2812 16.6687 14.1406 17 15 17C15.8406 17 16.7312 16.6625 17.4187 16.1844C17.7906 15.9187 18.2969 15.9406 18.6438 16.2375C19.0938 16.6094 19.6594 16.8937 20.225 17.025C20.7625 17.15 21.0969 17.6875 20.9719 18.225C20.8469 18.7625 20.3094 19.0969 19.7719 18.9719C19.0063 18.7937 18.3687 18.4563 17.9531 18.1906C17.0469 18.6781 16.0312 19 15 19C14.0031 19 13.1062 18.6906 12.4875 18.4094C12.3063 18.325 12.1406 18.2437 12 18.1687C11.8594 18.2437 11.6969 18.3281 11.5125 18.4094C10.8937 18.6906 9.99687 19 9 19C7.96875 19 6.95312 18.6781 6.04688 18.1938C5.62812 18.4563 4.99375 18.7969 4.22812 18.975C3.69062 19.1 3.15313 18.7656 3.02812 18.2281C2.90313 17.6906 3.2375 17.1531 3.775 17.0281C4.34063 16.8969 4.90625 16.6125 5.35625 16.2406C5.70312 15.9469 6.20937 15.925 6.58125 16.1875C7.27187 16.6625 8.15938 17 9 17C9.85938 17 10.7188 16.6687 11.4219 16.1844C11.7688 15.9375 12.2312 15.9375 12.5781 16.1844Z" fill="black"/>
</svg>
