<svg width="24" height="24" viewBox="0 0 24 24" fill="none" xmlns="http://www.w3.org/2000/svg">
<path d="M6 6C5.44687 6 5 6.44687 5 7C5 7.55313 5.44687 8 6 8H18C18.5531 8 19 7.55313 19 7C19 6.44687 18.5531 6 18 6H6ZM10 11C9.44687 11 9 11.4469 9 12C9 12.5531 9.44687 13 10 13H18C18.5531 13 19 12.5531 19 12C19 11.4469 18.5531 11 18 11H10ZM9 17C9 17.5531 9.44687 18 10 18H18C18.5531 18 19 17.5531 19 17C19 16.4469 18.5531 16 18 16H10C9.44687 16 9 16.4469 9 17ZM6 11C5.44687 11 5 11.4469 5 12V17C5 17.5531 5.44687 18 6 18C6.55313 18 7 17.5531 7 17V12C7 11.4469 6.55313 11 6 11Z" fill="black"/>
</svg>
