<svg width="24" height="24" viewBox="0 0 24 24" fill="none" xmlns="http://www.w3.org/2000/svg">
<path d="M12 5.5C10.8969 5.5 10 6.39688 10 7.5V9H14V7.5C14 6.39688 13.1031 5.5 12 5.5ZM6.5 9H8.5V7.5C8.5 5.56562 10.0656 4 12 4C13.9344 4 15.5 5.56562 15.5 7.5V9H17.5C18.3281 9 19 9.67188 19 10.5V17C19 18.6562 17.6562 20 16 20H8C6.34375 20 5 18.6562 5 17V10.5C5 9.67188 5.67188 9 6.5 9ZM11.25 17C11.25 17.4156 11.5844 17.75 12 17.75C12.4156 17.75 12.75 17.4156 12.75 17V15.25H14.5C14.9156 15.25 15.25 14.9156 15.25 14.5C15.25 14.0844 14.9156 13.75 14.5 13.75H12.75V12C12.75 11.5844 12.4156 11.25 12 11.25C11.5844 11.25 11.25 11.5844 11.25 12V13.75H9.5C9.08437 13.75 8.75 14.0844 8.75 14.5C8.75 14.9156 9.08437 15.25 9.5 15.25H11.25V17Z" fill="black"/>
</svg>
