<svg width="24" height="24" viewBox="0 0 24 24" fill="none" xmlns="http://www.w3.org/2000/svg">
<path d="M4 4.99998C4 4.44685 4.44687 3.99998 5 3.99998H7C7.55313 3.99998 8 4.44685 8 4.99998V6.99998H4V4.99998ZM4 7.99998H8V16H4V7.99998ZM4 17H8V19C8 19.5531 7.55313 20 7 20H5C4.44687 20 4 19.5531 4 19V17ZM9 4.99998C9 4.44685 9.44687 3.99998 10 3.99998H12C12.5531 3.99998 13 4.44685 13 4.99998V6.99998H9V4.99998ZM9 7.99998H13V16H9V7.99998ZM9 17H13V19C13 19.5531 12.5531 20 12 20H10C9.44687 20 9 19.5531 9 19V17ZM15.3625 16.3781L14 11.2687V8.46248L17.1375 7.62185L19.2 15.3531L15.3625 16.3781ZM16.8813 6.65623L14 7.42498V4.34373L15.1531 4.03435C15.6812 3.8906 16.2281 4.20623 16.3687 4.7406L16.8813 6.65623ZM15.6187 17.3437L19.4563 16.3156L19.9656 18.225C20.1062 18.7562 19.7937 19.3031 19.2625 19.4469L17.3438 19.9625C16.8156 20.1062 16.2688 19.7906 16.1281 19.2562L15.6187 17.3437Z" fill="black"/>
</svg>
