<svg width="24" height="24" viewBox="0 0 24 24" fill="none" xmlns="http://www.w3.org/2000/svg">
<path d="M3.21243 4.15943C2.88743 3.90318 2.41556 3.96255 2.15931 4.28755C1.90306 4.61255 1.96243 5.08443 2.28743 5.34068L20.7874 19.8407C21.1124 20.0969 21.5843 20.0376 21.8406 19.7126C22.0968 19.3876 22.0374 18.9157 21.7124 18.6594L18.8937 16.4501C18.8999 16.4376 18.9062 16.4219 18.9124 16.4094C19.0749 16.0501 19.0093 15.6282 18.7468 15.3344L18.5156 15.0751C17.5406 13.9751 16.9999 12.5594 16.9999 11.0876V10.5001C16.9999 8.0813 15.2812 6.06255 12.9999 5.60005V5.00005C12.9999 4.44693 12.5531 4.00005 11.9999 4.00005C11.4468 4.00005 10.9999 4.44693 10.9999 5.00005V5.60005C9.66868 5.8688 8.53118 6.6688 7.81243 7.76568L3.21243 4.15943ZM14.6937 17.0001L6.99993 10.9407V11.0907C6.99993 12.5594 6.45931 13.9782 5.48431 15.0782L5.25306 15.3376C4.99056 15.6313 4.92806 16.0532 5.08743 16.4126C5.24681 16.7719 5.60618 17.0001 5.99993 17.0001H14.6937ZM13.4156 19.4157C13.7906 19.0407 13.9999 18.5313 13.9999 18.0001H11.9999H9.99993C9.99993 18.5313 10.2093 19.0407 10.5843 19.4157C10.9593 19.7907 11.4687 20.0001 11.9999 20.0001C12.5312 20.0001 13.0406 19.7907 13.4156 19.4157Z" fill="black"/>
</svg>
