<svg width="24" height="24" viewBox="0 0 24 24" fill="none" xmlns="http://www.w3.org/2000/svg">
<path d="M11.5 5.75C11.5 4.78438 10.7156 4 9.75 4C8.84688 4 8.10313 4.68438 8.00938 5.55938C7.14375 5.77813 6.5 6.56563 6.5 7.5C6.5 7.6875 6.525 7.87187 6.575 8.04375C5.675 8.24062 5 9.04062 5 10C5 10.4688 5.15937 10.9 5.43125 11.2406C4.58437 11.6406 4 12.5031 4 13.5C4 14.5688 4.66875 15.4812 5.6125 15.8375C5.54062 16.0437 5.5 16.2687 5.5 16.5C5.5 17.6031 6.39688 18.5 7.5 18.5C7.675 18.5 7.84688 18.4781 8.00938 18.4344C8.1 19.3156 8.84688 20 9.75 20C10.7156 20 11.5 19.2156 11.5 18.25V12.5H10C9.725 12.5 9.5 12.725 9.5 13V14.0844C10.0813 14.2906 10.5 14.8469 10.5 15.5C10.5 16.3281 9.82812 17 9 17C8.17188 17 7.5 16.3281 7.5 15.5C7.5 14.8469 7.91875 14.2906 8.5 14.0844V13C8.5 12.1719 9.17188 11.5 10 11.5H11.5V9H10.4156C10.2094 9.58125 9.65312 10 9 10C8.17188 10 7.5 9.32812 7.5 8.5C7.5 7.67188 8.17188 7 9 7C9.65312 7 10.2094 7.41875 10.4156 8H11.5V5.75ZM12.5 9V15H13.5844C13.7906 14.4187 14.3469 14 15 14C15.8281 14 16.5 14.6719 16.5 15.5C16.5 16.3281 15.8281 17 15 17C14.3469 17 13.7906 16.5813 13.5844 16H12.5V18.25C12.5 19.2156 13.2844 20 14.25 20C15.1531 20 15.8969 19.3156 15.9906 18.4344C16.1531 18.4781 16.325 18.5 16.5 18.5C17.6031 18.5 18.5 17.6031 18.5 16.5C18.5 16.2687 18.4594 16.0437 18.3875 15.8375C19.3312 15.4812 20 14.5688 20 13.5C20 12.5031 19.4156 11.6406 18.5688 11.2406C18.8406 10.9 19 10.4688 19 10C19 9.04062 18.325 8.24062 17.425 8.04375C17.475 7.87187 17.5 7.6875 17.5 7.5C17.5 6.56563 16.8563 5.77813 15.9906 5.55938C15.8938 4.68438 15.1531 4 14.25 4C13.2844 4 12.5 4.78438 12.5 5.75V8H14C14.8281 8 15.5 8.67188 15.5 9.5V9.58437C16.0813 9.79062 16.5 10.3469 16.5 11C16.5 11.8281 15.8281 12.5 15 12.5C14.1719 12.5 13.5 11.8281 13.5 11C13.5 10.3469 13.9187 9.79062 14.5 9.58437V9.5C14.5 9.225 14.275 9 14 9H12.5ZM8.5 8.5C8.5 8.63261 8.55268 8.75979 8.64645 8.85355C8.74021 8.94732 8.86739 9 9 9C9.13261 9 9.25979 8.94732 9.35355 8.85355C9.44732 8.75979 9.5 8.63261 9.5 8.5C9.5 8.36739 9.44732 8.24021 9.35355 8.14645C9.25979 8.05268 9.13261 8 9 8C8.86739 8 8.74021 8.05268 8.64645 8.14645C8.55268 8.24021 8.5 8.36739 8.5 8.5ZM15 10.5C14.8674 10.5 14.7402 10.5527 14.6464 10.6464C14.5527 10.7402 14.5 10.8674 14.5 11C14.5 11.1326 14.5527 11.2598 14.6464 11.3536C14.7402 11.4473 14.8674 11.5 15 11.5C15.1326 11.5 15.2598 11.4473 15.3536 11.3536C15.4473 11.2598 15.5 11.1326 15.5 11C15.5 10.8674 15.4473 10.7402 15.3536 10.6464C15.2598 10.5527 15.1326 10.5 15 10.5ZM8.5 15.5C8.5 15.6326 8.55268 15.7598 8.64645 15.8536C8.74021 15.9473 8.86739 16 9 16C9.13261 16 9.25979 15.9473 9.35355 15.8536C9.44732 15.7598 9.5 15.6326 9.5 15.5C9.5 15.3674 9.44732 15.2402 9.35355 15.1464C9.25979 15.0527 9.13261 15 9 15C8.86739 15 8.74021 15.0527 8.64645 15.1464C8.55268 15.2402 8.5 15.3674 8.5 15.5ZM14.5 15.5C14.5 15.6326 14.5527 15.7598 14.6464 15.8536C14.7402 15.9473 14.8674 16 15 16C15.1326 16 15.2598 15.9473 15.3536 15.8536C15.4473 15.7598 15.5 15.6326 15.5 15.5C15.5 15.3674 15.4473 15.2402 15.3536 15.1464C15.2598 15.0527 15.1326 15 15 15C14.8674 15 14.7402 15.0527 14.6464 15.1464C14.5527 15.2402 14.5 15.3674 14.5 15.5Z" fill="black"/>
</svg>
