<svg width="24" height="24" viewBox="0 0 24 24" fill="none" xmlns="http://www.w3.org/2000/svg">
<path d="M16 4C17.6562 4 19 5.34375 19 7V17C19 18.6562 17.6562 20 16 20H7H6C5.44687 20 5 19.5531 5 19C5 18.4469 5.44687 18 6 18V16C5.44687 16 5 15.5531 5 15V5C5 4.44687 5.44687 4 6 4H7H16ZM16 16H8V18H16C16.5531 18 17 17.5531 17 17C17 16.4469 16.5531 16 16 16ZM13.5656 8.69375L13.2875 9.3625L12.5656 9.42188C12.3875 9.4375 12.3156 9.65625 12.45 9.77187L13 10.2438L12.8313 10.95C12.7906 11.1219 12.9781 11.2594 13.1313 11.1656L13.75 10.7875L14.3687 11.1656C14.5219 11.2594 14.7094 11.1219 14.6687 10.95L14.5 10.2438L15.05 9.77187C15.1844 9.65625 15.1125 9.43437 14.9344 9.42188L14.2125 9.3625L13.9344 8.69375C13.8656 8.52812 13.6344 8.52812 13.5656 8.69375ZM8 10C8 12.2094 9.79063 14 12 14C12.8 14 13.5469 13.7656 14.1719 13.3594C14.2719 13.2937 14.3125 13.1656 14.2688 13.0562C14.225 12.9469 14.1062 12.8813 13.9875 12.9062C13.7969 12.9438 13.5969 12.9656 13.3938 12.9656C11.7563 12.9656 10.4281 11.6375 10.4281 10C10.4281 8.3625 11.7563 7.03437 13.3938 7.03437C13.5969 7.03437 13.7937 7.05625 13.9875 7.09375C14.1062 7.11875 14.2219 7.05312 14.2688 6.94375C14.3156 6.83437 14.275 6.70625 14.1719 6.64062C13.5469 6.23438 12.8 6 12 6C9.79063 6 8 7.79063 8 10Z" fill="black"/>
</svg>
