<svg width="24" height="24" viewBox="0 0 24 24" fill="none" xmlns="http://www.w3.org/2000/svg">
<path d="M7.10938 8.525L9.58437 11L12.5844 14L15.475 16.8906C14.4969 17.5906 13.2969 18 12 18C8.6875 18 6 15.3125 6 12C6 10.7031 6.40938 9.50313 7.10938 8.525ZM14.4156 13L13.4156 12H16V13H14.4156ZM15.4156 14H16.5C16.775 14 17 13.775 17 13.5V11.5C17 11.225 16.775 11 16.5 11H12.4156L8.525 7.10938C9.50313 6.40938 10.7031 6 12 6C15.3125 6 18 8.6875 18 12C18 13.2969 17.5906 14.4969 16.8906 15.475L15.4156 14ZM12 20C14.1217 20 16.1566 19.1571 17.6569 17.6569C19.1571 16.1566 20 14.1217 20 12C20 9.87827 19.1571 7.84344 17.6569 6.34315C16.1566 4.84285 14.1217 4 12 4C9.87827 4 7.84344 4.84285 6.34315 6.34315C4.84285 7.84344 4 9.87827 4 12C4 14.1217 4.84285 16.1566 6.34315 17.6569C7.84344 19.1571 9.87827 20 12 20ZM12.5 7C12.225 7 12 7.225 12 7.5C12 8.32812 12.6719 9 13.5 9H14.5C14.775 9 15 9.225 15 9.5C15 9.775 15.225 10 15.5 10C15.775 10 16 9.775 16 9.5C16 8.67188 15.3281 8 14.5 8H13.5C13.225 8 13 7.775 13 7.5C13 7.225 12.775 7 12.5 7ZM11.1719 14L8.17188 11H7.5C7.225 11 7 11.225 7 11.5V13.5C7 13.775 7.225 14 7.5 14H11.1719Z" fill="black"/>
</svg>
