<svg width="24" height="24" viewBox="0 0 24 24" fill="none" xmlns="http://www.w3.org/2000/svg">
<path d="M5 10.0906C5 10.5937 5.40625 11 5.90937 11H18.0906C18.5937 11 19 10.5937 19 10.0906C19 10.0312 18.9937 9.975 18.9812 9.91563C18.8156 9.25938 17.5375 5 12 5C6.4625 5 5.18437 9.25938 5.01875 9.91563C5.00312 9.975 5 10.0312 5 10.0906ZM8 7.5C8.13261 7.5 8.25979 7.55268 8.35355 7.64645C8.44732 7.74021 8.5 7.86739 8.5 8C8.5 8.13261 8.44732 8.25979 8.35355 8.35355C8.25979 8.44732 8.13261 8.5 8 8.5C7.86739 8.5 7.74021 8.44732 7.64645 8.35355C7.55268 8.25979 7.5 8.13261 7.5 8C7.5 7.86739 7.55268 7.74021 7.64645 7.64645C7.74021 7.55268 7.86739 7.5 8 7.5ZM15.5 8C15.5 7.86739 15.5527 7.74021 15.6464 7.64645C15.7402 7.55268 15.8674 7.5 16 7.5C16.1326 7.5 16.2598 7.55268 16.3536 7.64645C16.4473 7.74021 16.5 7.86739 16.5 8C16.5 8.13261 16.4473 8.25979 16.3536 8.35355C16.2598 8.44732 16.1326 8.5 16 8.5C15.8674 8.5 15.7402 8.44732 15.6464 8.35355C15.5527 8.25979 15.5 8.13261 15.5 8ZM12 6.5C12.1326 6.5 12.2598 6.55268 12.3536 6.64645C12.4473 6.74021 12.5 6.86739 12.5 7C12.5 7.13261 12.4473 7.25979 12.3536 7.35355C12.2598 7.44732 12.1326 7.5 12 7.5C11.8674 7.5 11.7402 7.44732 11.6464 7.35355C11.5527 7.25979 11.5 7.13261 11.5 7C11.5 6.86739 11.5527 6.74021 11.6464 6.64645C11.7402 6.55268 11.8674 6.5 12 6.5ZM5 16.5V17C5 18.1031 5.89688 19 7 19H17C18.1031 19 19 18.1031 19 17V16.5C19 16.225 18.775 16 18.5 16H5.5C5.225 16 5 16.225 5 16.5ZM11.3125 12.2094C11.1094 12.0719 10.8687 12 10.6219 12H10.5H10.4969H6C5.17188 12 4.5 12.6719 4.5 13.5C4.5 14.3281 5.17188 15 6 15H18C18.8281 15 19.5 14.3281 19.5 13.5C19.5 12.6719 18.8281 12 18 12H17.5031H17.5H17.3781C17.1313 12 16.8906 12.0719 16.6875 12.2094L14.5562 13.6313C14.2219 13.8563 13.7812 13.8563 13.4469 13.6313L11.3125 12.2094Z" fill="black"/>
</svg>
