<svg width="24" height="24" viewBox="0 0 24 24" fill="none" xmlns="http://www.w3.org/2000/svg">
<path d="M3.21243 4.15943C2.88743 3.90318 2.41556 3.96255 2.15931 4.28755C1.90306 4.61255 1.96243 5.08443 2.28743 5.34068L20.7874 19.8407C21.1124 20.0969 21.5843 20.0376 21.8406 19.7126C22.0968 19.3876 22.0374 18.9157 21.7124 18.6594L18.9781 16.5157C19.5968 16.0626 19.9999 15.3282 19.9999 14.5001V14.0001C20.5531 14.0001 20.9999 13.5532 20.9999 13.0001V11.0001C20.9999 10.4469 20.5531 10.0001 19.9999 10.0001V9.50005C19.9999 8.1188 18.8812 7.00005 17.4999 7.00005H6.83743L3.21243 4.15943ZM9.38743 9.00005H17.4999C17.7749 9.00005 17.9999 9.22505 17.9999 9.50005V14.5001C17.9999 14.7751 17.7749 15.0001 17.4999 15.0001H17.0437L9.38743 9.00005ZM12.1531 15.0001H5.49993C5.22493 15.0001 4.99993 14.7751 4.99993 14.5001V9.50005C4.99993 9.4563 5.00618 9.41568 5.01556 9.37505L3.41868 8.11568C3.15306 8.51255 2.99993 8.98755 2.99993 9.50005V14.5001C2.99993 15.8813 4.11868 17.0001 5.49993 17.0001H14.6937L12.1562 15.0001H12.1531Z" fill="black"/>
</svg>
