<svg width="24" height="24" viewBox="0 0 24 24" fill="none" xmlns="http://www.w3.org/2000/svg">
<path d="M5 7C5 5.89688 5.89688 5 7 5H17C18.1031 5 19 5.89688 19 7V17C19 18.1031 18.1031 19 17 19H7C5.89688 19 5 18.1031 5 17V7ZM8 7.25C8 7.05109 7.92098 6.86032 7.78033 6.71967C7.63968 6.57902 7.44891 6.5 7.25 6.5C7.05109 6.5 6.86032 6.57902 6.71967 6.71967C6.57902 6.86032 6.5 7.05109 6.5 7.25C6.5 7.44891 6.57902 7.63968 6.71967 7.78033C6.86032 7.92098 7.05109 8 7.25 8C7.44891 8 7.63968 7.92098 7.78033 7.78033C7.92098 7.63968 8 7.44891 8 7.25ZM16.75 8C16.9489 8 17.1397 7.92098 17.2803 7.78033C17.421 7.63968 17.5 7.44891 17.5 7.25C17.5 7.05109 17.421 6.86032 17.2803 6.71967C17.1397 6.57902 16.9489 6.5 16.75 6.5C16.5511 6.5 16.3603 6.57902 16.2197 6.71967C16.079 6.86032 16 7.05109 16 7.25C16 7.44891 16.079 7.63968 16.2197 7.78033C16.3603 7.92098 16.5511 8 16.75 8ZM8 16.75C8 16.5511 7.92098 16.3603 7.78033 16.2197C7.63968 16.079 7.44891 16 7.25 16C7.05109 16 6.86032 16.079 6.71967 16.2197C6.57902 16.3603 6.5 16.5511 6.5 16.75C6.5 16.9489 6.57902 17.1397 6.71967 17.2803C6.86032 17.421 7.05109 17.5 7.25 17.5C7.44891 17.5 7.63968 17.421 7.78033 17.2803C7.92098 17.1397 8 16.9489 8 16.75ZM16.75 17.5C16.9489 17.5 17.1397 17.421 17.2803 17.2803C17.421 17.1397 17.5 16.9489 17.5 16.75C17.5 16.5511 17.421 16.3603 17.2803 16.2197C17.1397 16.079 16.9489 16 16.75 16C16.5511 16 16.3603 16.079 16.2197 16.2197C16.079 16.3603 16 16.5511 16 16.75C16 16.9489 16.079 17.1397 16.2197 17.2803C16.3603 17.421 16.5511 17.5 16.75 17.5Z" fill="black"/>
</svg>
