<svg width="24" height="24" viewBox="0 0 24 24" fill="none" xmlns="http://www.w3.org/2000/svg">
<path d="M11.25 8.25V6.75H12.75V8.25H11.25ZM11 5C10.1719 5 9.5 5.67188 9.5 6.5V6.625H5.8C5.475 5.95938 4.79062 5.5 4 5.5C2.89688 5.5 2 6.39688 2 7.5C2 8.60312 2.89688 9.5 4 9.5C4.79062 9.5 5.475 9.04062 5.8 8.375H7.89062C6.05 9.6125 4.8 11.6562 4.64062 14H4.5C3.67188 14 3 14.6719 3 15.5V17.5C3 18.3281 3.67188 19 4.5 19H6.5C7.32812 19 8 18.3281 8 17.5V15.5C8 14.6719 7.32812 14 6.5 14H6.39687C6.58125 11.9062 7.9125 10.1437 9.75625 9.34062C10.025 9.7375 10.4812 10 11 10H13C13.5188 10 13.9719 9.7375 14.2437 9.34062C16.0875 10.1437 17.4187 11.9062 17.6031 14H17.5C16.6719 14 16 14.6719 16 15.5V17.5C16 18.3281 16.6719 19 17.5 19H19.5C20.3281 19 21 18.3281 21 17.5V15.5C21 14.6719 20.3281 14 19.5 14H19.3594C19.2031 11.6562 17.95 9.6125 16.1094 8.375H18.2C18.525 9.04062 19.2094 9.5 20 9.5C21.1031 9.5 22 8.60312 22 7.5C22 6.39688 21.1031 5.5 20 5.5C19.2094 5.5 18.525 5.95938 18.2 6.625H14.5V6.5C14.5 5.67188 13.8281 5 13 5H11ZM4.75 15.75H6.25V17.25H4.75V15.75ZM17.75 17.25V15.75H19.25V17.25H17.75Z" fill="black"/>
</svg>
