<svg width="24" height="24" viewBox="0 0 24 24" fill="none" xmlns="http://www.w3.org/2000/svg">
<path d="M9.75 4C10.7156 4 11.5 4.78438 11.5 5.75V18.25C11.5 19.2156 10.7156 20 9.75 20C8.84688 20 8.10313 19.3156 8.00938 18.4344C7.84688 18.4781 7.675 18.5 7.5 18.5C6.39688 18.5 5.5 17.6031 5.5 16.5C5.5 16.2687 5.54062 16.0437 5.6125 15.8375C4.66875 15.4812 4 14.5688 4 13.5C4 12.5031 4.58437 11.6406 5.43125 11.2406C5.15937 10.9 5 10.4688 5 10C5 9.04062 5.675 8.24062 6.575 8.04375C6.525 7.87187 6.5 7.6875 6.5 7.5C6.5 6.56563 7.14375 5.77813 8.00938 5.55938C8.10313 4.68438 8.84688 4 9.75 4ZM14.25 4C15.1531 4 15.8938 4.68438 15.9906 5.55938C16.8594 5.77813 17.5 6.5625 17.5 7.5C17.5 7.6875 17.475 7.87187 17.425 8.04375C18.325 8.2375 19 9.04062 19 10C19 10.4688 18.8406 10.9 18.5688 11.2406C19.4156 11.6406 20 12.5031 20 13.5C20 14.5688 19.3312 15.4812 18.3875 15.8375C18.4594 16.0437 18.5 16.2687 18.5 16.5C18.5 17.6031 17.6031 18.5 16.5 18.5C16.325 18.5 16.1531 18.4781 15.9906 18.4344C15.8969 19.3156 15.1531 20 14.25 20C13.2844 20 12.5 19.2156 12.5 18.25V5.75C12.5 4.78438 13.2844 4 14.25 4Z" fill="black"/>
</svg>
