<svg width="24" height="24" viewBox="0 0 24 24" fill="none" xmlns="http://www.w3.org/2000/svg">
<path d="M3.21268 4.15955C2.88768 3.9033 2.4158 3.96268 2.15955 4.28768C1.9033 4.61268 1.96268 5.08455 2.28768 5.3408L20.7877 19.8408C21.1127 20.097 21.5846 20.0377 21.8408 19.7127C22.0971 19.3877 22.0377 18.9158 21.7127 18.6596L18.0002 15.7502V5.50018C18.0002 4.67205 17.3283 4.00018 16.5002 4.00018H7.50018C6.67205 4.00018 6.00018 4.67205 6.00018 5.50018V6.34393L3.21268 4.15955ZM17.9314 19.5533L6.00018 10.1502V19.2408C6.00018 19.6596 6.3408 20.0002 6.75955 20.0002C6.9158 20.0002 7.06893 19.9533 7.19705 19.8627L12.0002 16.5002L16.8033 19.8627C16.9314 19.9533 17.0846 20.0002 17.2408 20.0002C17.5502 20.0002 17.8158 19.8158 17.9346 19.5533H17.9314Z" fill="black"/>
</svg>
