<svg width="24" height="24" viewBox="0 0 24 24" fill="none" xmlns="http://www.w3.org/2000/svg">
<path d="M5 12C5 11.0807 5.18106 10.1705 5.53284 9.32122C5.88463 8.47194 6.40024 7.70026 7.05025 7.05025C7.70026 6.40024 8.47194 5.88463 9.32122 5.53284C10.1705 5.18106 11.0807 5 12 5C12.9193 5 13.8295 5.18106 14.6788 5.53284C15.5281 5.88463 16.2997 6.40024 16.9497 7.05025C17.5998 7.70026 18.1154 8.47194 18.4672 9.32122C18.8189 10.1705 19 11.0807 19 12C19 12.9193 18.8189 13.8295 18.4672 14.6788C18.1154 15.5281 17.5998 16.2997 16.9497 16.9497C16.2997 17.5998 15.5281 18.1154 14.6788 18.4672C13.8295 18.8189 12.9193 19 12 19C11.0807 19 10.1705 18.8189 9.32122 18.4672C8.47194 18.1154 7.70026 17.5998 7.05025 16.9497C6.40024 16.2997 5.88463 15.5281 5.53284 14.6788C5.18106 13.8295 5 12.9193 5 12ZM12.75 8.75C12.75 8.33437 12.4156 8 12 8C11.5844 8 11.25 8.33437 11.25 8.75V12.25C11.25 12.6656 11.5844 13 12 13C12.4156 13 12.75 12.6656 12.75 12.25V8.75ZM12 16C12.2652 16 12.5196 15.8946 12.7071 15.7071C12.8946 15.5196 13 15.2652 13 15C13 14.7348 12.8946 14.4804 12.7071 14.2929C12.5196 14.1054 12.2652 14 12 14C11.7348 14 11.4804 14.1054 11.2929 14.2929C11.1054 14.4804 11 14.7348 11 15C11 15.2652 11.1054 15.5196 11.2929 15.7071C11.4804 15.8946 11.7348 16 12 16ZM4.84687 7.40625C3.99375 8.73125 3.5 10.3063 3.5 12C3.5 13.6938 3.99375 15.2688 4.84687 16.5938C5.07187 16.9406 4.97187 17.4062 4.62188 17.6313C4.27188 17.8563 3.80938 17.7563 3.58438 17.4062C2.58125 15.8469 2 13.9906 2 12C2 10.0094 2.58125 8.15313 3.58438 6.59375C3.80938 6.24688 4.27188 6.14375 4.62188 6.36875C4.97187 6.59375 5.07187 7.05625 4.84687 7.40625ZM20.4156 6.59375C21.4187 8.15313 22 10.0094 22 12C22 13.9906 21.4187 15.8469 20.4156 17.4062C20.1906 17.7531 19.7281 17.8563 19.3781 17.6313C19.0281 17.4062 18.9281 16.9438 19.1531 16.5938C20.0063 15.2688 20.5 13.6938 20.5 12C20.5 10.3063 20.0063 8.73125 19.1531 7.40625C18.9281 7.05938 19.0281 6.59375 19.3781 6.36875C19.7281 6.14375 20.1906 6.24375 20.4156 6.59375Z" fill="black"/>
</svg>
