<svg width="24" height="24" viewBox="0 0 24 24" fill="none" xmlns="http://www.w3.org/2000/svg">
<path d="M21 7C21 7.15937 20.9875 7.31875 20.9625 7.47187C21.5906 7.92812 22 8.66563 22 9.5C22 10.8812 20.8813 12 19.5 12H19V19C19 19.5531 18.5531 20 18 20C17.4469 20 17 19.5531 17 19V12H16.5C15.1187 12 14 10.8812 14 9.5C14 8.66563 14.4094 7.92812 15.0375 7.47187C15.0125 7.31875 15 7.15937 15 7C15 5.34375 16.3438 4 18 4C19.6562 4 21 5.34375 21 7ZM3 11C3 10.4469 3.44687 10 4 10H12C12.5531 10 13 10.4469 13 11V13C13 13.5531 12.5531 14 12 14H4C3.44687 14 3 13.5531 3 13V11ZM3 15H13C13.5531 15 14 15.4469 14 16C14 16.5531 13.5531 17 13 17V19C13 19.5531 12.5531 20 12 20C11.4469 20 11 19.5531 11 19V17H5V19C5 19.5531 4.55312 20 4 20C3.44687 20 3 19.5531 3 19V17C2.44687 17 2 16.5531 2 16C2 15.4469 2.44687 15 3 15Z" fill="black"/>
</svg>
