<svg width="24" height="24" viewBox="0 0 24 24" fill="none" xmlns="http://www.w3.org/2000/svg">
<path d="M3.21249 4.15943C2.88749 3.90318 2.41562 3.96255 2.15937 4.28755C1.90312 4.61255 1.96249 5.08443 2.28749 5.34068L20.7875 19.8407C21.1125 20.0969 21.5844 20.0376 21.8406 19.7126C22.0969 19.3876 22.0375 18.9157 21.7125 18.6594L19.8344 17.1876C19.9406 16.9813 20 16.7469 20 16.5001C20 15.6719 19.3281 15.0001 18.5 15.0001C18.1219 15.0001 17.7781 15.1407 17.5156 15.3688L15.9062 14.1094C16.5969 13.0782 17 11.8344 17 10.5001C17 6.90943 14.0906 4.00005 10.5 4.00005C8.59999 4.00005 6.89374 4.81568 5.70312 6.11255L3.21249 4.15943ZM8.87499 8.60005C9.31249 8.22818 9.87812 8.00005 10.5 8.00005C11.8812 8.00005 13 9.1188 13 10.5001C13 10.9032 12.9031 11.2844 12.7344 11.6219L11.9187 10.9844C11.9719 10.8313 12 10.6688 12 10.5001C12 9.67193 11.3281 9.00005 10.5 9.00005C10.2031 9.00005 9.92499 9.08755 9.69062 9.23755L8.87499 8.60005ZM17.8844 19.5157L16.5562 18.4688C16.4562 18.4907 16.3562 18.5001 16.25 18.5001H15V17.2438L14.4969 16.8469C13.3406 17.5782 11.9687 18.0001 10.5 18.0001C8.81249 18.0001 7.25312 17.4407 5.99999 16.5001V18.5001C5.99999 19.3282 6.67187 20.0001 7.49999 20.0001H14H15H16.25C16.8531 20.0001 17.4156 19.8219 17.8844 19.5157ZM13.6562 16.1844L4.23437 8.76255C4.08124 9.31568 3.99999 9.89693 3.99999 10.5001C3.99999 14.0907 6.90937 17.0001 10.5 17.0001C11.6469 17.0001 12.7219 16.7032 13.6562 16.1844Z" fill="black"/>
</svg>
