<svg width="24" height="24" viewBox="0 0 24 24" fill="none" xmlns="http://www.w3.org/2000/svg">
<path d="M12 4C16.2 4 19 5.1 19 6.5V7V8C19.5531 8 20 8.44688 20 9V11C20 11.5531 19.5531 12 19 12V17C19 17.5531 18.5531 18 18 18V19C18 19.5531 17.5531 20 17 20H16C15.4469 20 15 19.5531 15 19V18H9V19C9 19.5531 8.55312 20 8 20H7C6.44688 20 6 19.5531 6 19V18C5.44687 18 5 17.5531 5 17V12C4.44687 12 4 11.5531 4 11V9C4 8.44688 4.44687 8 5 8V7V6.5C5 5.1 7.8 4 12 4ZM7 9V12C7 12.5531 7.44688 13 8 13H11.5V8H8C7.44688 8 7 8.44688 7 9ZM12.5 13H16C16.5531 13 17 12.5531 17 12V9C17 8.44688 16.5531 8 16 8H12.5V13ZM7.5 16.5C7.76522 16.5 8.01957 16.3946 8.20711 16.2071C8.39464 16.0196 8.5 15.7652 8.5 15.5C8.5 15.2348 8.39464 14.9804 8.20711 14.7929C8.01957 14.6054 7.76522 14.5 7.5 14.5C7.23478 14.5 6.98043 14.6054 6.79289 14.7929C6.60536 14.9804 6.5 15.2348 6.5 15.5C6.5 15.7652 6.60536 16.0196 6.79289 16.2071C6.98043 16.3946 7.23478 16.5 7.5 16.5ZM16.5 16.5C16.7652 16.5 17.0196 16.3946 17.2071 16.2071C17.3946 16.0196 17.5 15.7652 17.5 15.5C17.5 15.2348 17.3946 14.9804 17.2071 14.7929C17.0196 14.6054 16.7652 14.5 16.5 14.5C16.2348 14.5 15.9804 14.6054 15.7929 14.7929C15.6054 14.9804 15.5 15.2348 15.5 15.5C15.5 15.7652 15.6054 16.0196 15.7929 16.2071C15.9804 16.3946 16.2348 16.5 16.5 16.5ZM15 6.5C15 6.225 14.775 6 14.5 6H9.5C9.225 6 9 6.225 9 6.5C9 6.775 9.225 7 9.5 7H14.5C14.775 7 15 6.775 15 6.5Z" fill="black"/>
</svg>
