<svg width="24" height="24" viewBox="0 0 24 24" fill="none" xmlns="http://www.w3.org/2000/svg">
<path d="M4.40938 6.92495L8 6.24995V5.74995C8 5.33432 8.33437 4.99995 8.75 4.99995C9.16563 4.99995 9.5 5.33432 9.5 5.74995V5.9687V7.14057V8.32807V9.49995V10.9999H10.5V9.49995V8.29682V6.98432V5.7812V5.24995C10.5 4.83432 10.8344 4.49995 11.25 4.49995C11.6656 4.49995 12 4.83432 12 5.24995V5.49995V6.74995V8.24995V9.49995V10.9999H13H18.95C19.5188 10.9999 19.9719 11.4781 19.9375 12.0468C19.7688 14.9124 18.0719 17.3499 15.675 18.5999L15.6375 18.9031C15.5594 19.5281 15.0281 19.9968 14.3969 19.9968H9.60313C8.97188 19.9968 8.44063 19.5281 8.3625 18.9031L8.325 18.5999C5.925 17.3499 4.23125 14.9156 4.0625 12.0468C4.02812 11.4781 4.48125 10.9999 5.05 10.9999H8V9.49995H4.50625C4.22813 9.49995 4 9.27182 4 8.99057C4 8.71557 4.21875 8.49057 4.49062 8.48432L8 8.37495V7.37495L4.57812 7.90932C4.275 7.9562 4 7.72182 4 7.41557C4 7.17495 4.17188 6.9687 4.40938 6.92495ZM19.2625 9.49995H13V8.2187L19.2375 8.02495C19.6562 8.00932 20 8.3437 20 8.76245C20 9.1687 19.6687 9.49995 19.2625 9.49995ZM19.3844 5.59682L13 6.5937V5.31245L19.1375 4.16245C19.5844 4.07807 20 4.42182 20 4.87807C20 5.23745 19.7375 5.54057 19.3844 5.59682Z" fill="black"/>
</svg>
