<svg width="24" height="24" viewBox="0 0 24 24" fill="none" xmlns="http://www.w3.org/2000/svg">
<path d="M8.41252 4C8.35627 4 8.30315 4.02188 8.26252 4.0625C7.32815 5.00937 6.75002 6.3125 6.75002 7.75C6.75002 8.56875 6.93752 9.34062 7.26877 10.0312C6.58127 10.1062 5.90002 10.3156 5.26252 10.6719C4.1844 11.275 3.41565 12.2 3.01252 13.25C2.99065 13.3031 2.9969 13.3656 3.02815 13.4125C3.0969 13.5281 3.2594 13.5469 3.3594 13.4531C5.00627 11.9469 7.93752 11.6594 9.40627 14.125C10.875 16.5906 9.15315 18.9094 6.98127 19.5375C6.85002 19.575 6.7844 19.7219 6.85315 19.8375C6.8844 19.8875 6.9344 19.9219 6.99377 19.9312C8.1344 20.1156 9.34377 19.9344 10.4219 19.3313C11.0594 18.975 11.5906 18.5031 12 17.9625C12.4094 18.5031 12.9406 18.975 13.5781 19.3313C14.6563 19.9344 15.8688 20.1187 17.0063 19.9312C17.0656 19.9219 17.1156 19.8875 17.1469 19.8375C17.2156 19.7219 17.15 19.575 17.0188 19.5375C14.8469 18.9094 13.125 16.5938 14.5938 14.125C16.0625 11.6562 18.9906 11.9438 20.6406 13.4563C20.7406 13.5469 20.9031 13.5281 20.9719 13.4156C21.0031 13.3656 21.0063 13.3063 20.9875 13.2531C20.5844 12.2031 19.8156 11.2781 18.7344 10.675C18.0969 10.3188 17.4156 10.1094 16.7281 10.0344C17.0625 9.34063 17.25 8.56875 17.25 7.75C17.25 6.3125 16.6719 5.00937 15.7375 4.0625C15.6969 4.02188 15.6438 4 15.5875 4C15.4313 4 15.325 4.1625 15.3781 4.30937C16.1781 6.51562 15.05 9.5 12 9.5C8.95002 9.5 7.8219 6.51562 8.6219 4.30937C8.67502 4.1625 8.5719 4 8.41252 4ZM10.5 12.5C10.5 12.1022 10.6581 11.7206 10.9394 11.4393C11.2207 11.158 11.6022 11 12 11C12.3978 11 12.7794 11.158 13.0607 11.4393C13.342 11.7206 13.5 12.1022 13.5 12.5C13.5 12.8978 13.342 13.2794 13.0607 13.5607C12.7794 13.842 12.3978 14 12 14C11.6022 14 11.2207 13.842 10.9394 13.5607C10.6581 13.2794 10.5 12.8978 10.5 12.5ZM8.67815 17.05C8.87502 16.6813 8.9844 16.2656 8.9469 15.8062C8.33752 15.2437 7.8844 14.5125 7.6594 13.6875C7.26877 13.4344 6.84065 13.3188 6.4094 13.3C6.12815 13.2875 5.84377 13.3187 5.56252 13.3844C5.80627 15.1687 6.7719 16.7219 8.15315 17.7406C8.36565 17.5312 8.5469 17.3 8.67815 17.05ZM12 6C11.1 6 10.2406 6.18438 9.46252 6.51562C9.52502 6.775 9.61877 7.02187 9.74377 7.25C9.95627 7.6375 10.2656 7.97188 10.6844 8.19688C11.1 8.06875 11.5438 8 12.0031 8C12.4625 8 12.9031 8.06875 13.3219 8.19688C13.7406 7.97188 14.05 7.6375 14.2625 7.25C14.3875 7.02187 14.4813 6.775 14.5438 6.51562C13.7594 6.18438 12.9 6 12 6ZM16.3406 13.6875C16.1156 14.5125 15.6625 15.2406 15.0531 15.8062C15.0156 16.2656 15.1219 16.6844 15.3219 17.05C15.4563 17.3 15.6344 17.5312 15.8469 17.7406C17.2313 16.7219 18.1969 15.1687 18.4375 13.3844C18.1563 13.3156 17.8719 13.2875 17.5906 13.3C17.1594 13.3188 16.7313 13.4375 16.3406 13.6875Z" fill="black"/>
</svg>
