<svg width="24" height="24" viewBox="0 0 24 24" fill="none" xmlns="http://www.w3.org/2000/svg">
<path d="M7.75 5.5H12.25C12.3875 5.5 12.5 5.6125 12.5 5.75V7H7.5V5.75C7.5 5.6125 7.6125 5.5 7.75 5.5ZM6 5.75V7H4C2.89688 7 2 7.89687 2 9V12H8H13H13.2563C14.2656 10.7781 15.7906 10 17.5 10C17.6687 10 17.8344 10.0062 18 10.0219V9C18 7.89687 17.1031 7 16 7H14V5.75C14 4.78438 13.2156 4 12.25 4H7.75C6.78438 4 6 4.78438 6 5.75ZM12 15H9C8.44688 15 8 14.5531 8 14V13H2V17C2 18.1031 2.89688 19 4 19H13.2563C12.4719 18.05 12 16.8281 12 15.5C12 15.3313 12.0063 15.1656 12.0219 15H12ZM22 15.5C22 14.3065 21.5259 13.1619 20.682 12.318C19.8381 11.4741 18.6935 11 17.5 11C16.3065 11 15.1619 11.4741 14.318 12.318C13.4741 13.1619 13 14.3065 13 15.5C13 16.6935 13.4741 17.8381 14.318 18.682C15.1619 19.5259 16.3065 20 17.5 20C18.6935 20 19.8381 19.5259 20.682 18.682C21.5259 17.8381 22 16.6935 22 15.5ZM17.5 13C17.775 13 18 13.225 18 13.5V15H19C19.275 15 19.5 15.225 19.5 15.5C19.5 15.775 19.275 16 19 16H17.5C17.225 16 17 15.775 17 15.5V13.5C17 13.225 17.225 13 17.5 13Z" fill="black"/>
</svg>
