<svg width="24" height="24" viewBox="0 0 24 24" fill="none" xmlns="http://www.w3.org/2000/svg">
<path d="M5 7C5 5.34375 6.34375 4 8 4H14C15.6562 4 17 5.34375 17 7V8H16C15.1812 8 14.4563 8.39375 14 9H9.5C8.8375 9 8.42812 8.83437 8.19375 8.69688C8.075 8.625 7.99688 8.55937 7.95312 8.51562C7.93125 8.49375 7.91875 8.47813 7.9125 8.46875L7.90937 8.46562C7.75312 8.24375 7.45 8.18437 7.22187 8.33437C6.99062 8.4875 6.93125 8.79688 7.08437 9.02812L7.5 8.75C7.08437 9.02812 7.08437 9.02812 7.08437 9.02812L7.0875 9.03125L7.09063 9.0375L7.10313 9.05312C7.1125 9.06562 7.12188 9.07812 7.1375 9.09688C7.16563 9.13125 7.2 9.17188 7.25 9.22188C7.34687 9.31875 7.4875 9.4375 7.68125 9.55625C8.07188 9.79063 8.6625 10 9.5 10H13.55C13.5188 10.1625 13.5 10.3281 13.5 10.5C13.5 11.6656 14.2969 12.6438 15.375 12.9219C15.6438 12.9906 15.9156 12.8313 15.9844 12.5625C16.0531 12.2937 15.8938 12.0219 15.625 11.9531C14.9781 11.7875 14.5 11.2 14.5 10.5C14.5 9.67188 15.1719 9 16 9H17C18.1031 9 19 9.89687 19 11V11.7562C19 12.5531 18.6844 13.3156 18.1219 13.8781L16.5875 15.4125C16.2125 15.7875 16.0031 16.2969 16.0031 16.8281V18C16.0031 19.1031 15.1062 20 14.0031 20H8C6.89688 20 6 19.1031 6 18V15.2375C5.3875 14.6875 5 13.8875 5 13V7ZM9.77812 15.0844C9.54688 14.9313 9.2375 14.9938 9.08437 15.2219C8.93125 15.45 8.99375 15.7625 9.22188 15.9156L10.0969 16.5L9.22188 17.0844C8.99063 17.2375 8.93125 17.5469 9.08437 17.7781C9.2375 18.0094 9.54688 18.0687 9.77812 17.9156L11 17.1L12.2219 17.9156C12.4531 18.0687 12.7625 18.0062 12.9156 17.7781C13.0688 17.55 13.0062 17.2375 12.7781 17.0844L11.9031 16.5L12.7781 15.9156C13.0094 15.7625 13.0688 15.4531 12.9156 15.2219C12.7625 14.9906 12.4531 14.9313 12.2219 15.0844L11 15.9L9.77812 15.0844Z" fill="black"/>
</svg>
