<svg width="24" height="24" viewBox="0 0 24 24" fill="none" xmlns="http://www.w3.org/2000/svg">
<path d="M3.21243 4.15955C2.88743 3.9033 2.41556 3.96268 2.15931 4.28768C1.90306 4.61268 1.96243 5.08455 2.28743 5.3408L20.7874 19.8408C21.1124 20.097 21.5843 20.0377 21.8406 19.7127C22.0968 19.3877 22.0374 18.9158 21.7124 18.6596L19.8343 17.1877C19.9406 16.9814 19.9999 16.7471 19.9999 16.5002C19.9999 15.6721 19.3281 15.0002 18.4999 15.0002C18.1218 15.0002 17.7781 15.1408 17.5156 15.3689L15.9062 14.1096C16.5968 13.0783 16.9999 11.8346 16.9999 10.5002C16.9999 6.90955 14.0906 4.00018 10.4999 4.00018C8.59993 4.00018 6.89368 4.8158 5.70306 6.11268L3.21243 4.15955ZM8.87493 8.60018C9.31243 8.2283 9.87806 8.00018 10.4999 8.00018C11.8812 8.00018 12.9999 9.11893 12.9999 10.5002C12.9999 10.9033 12.9031 11.2846 12.7343 11.6221L11.9187 10.9846C11.9718 10.8314 11.9999 10.6689 11.9999 10.5002C11.9999 9.67205 11.3281 9.00018 10.4999 9.00018C10.2031 9.00018 9.92493 9.08768 9.69056 9.23768L8.87493 8.60018ZM17.8843 19.5158L16.5562 18.4689C16.4562 18.4908 16.3562 18.5002 16.2499 18.5002H14.9999V17.2439L14.4968 16.8471C13.3406 17.5783 11.9687 18.0002 10.4999 18.0002C8.81243 18.0002 7.25306 17.4408 5.99993 16.5002V18.5002C5.99993 19.3283 6.67181 20.0002 7.49993 20.0002H13.9999H14.9999H16.2499C16.8531 20.0002 17.4156 19.8221 17.8843 19.5158ZM13.6562 16.1846L4.23431 8.76268C4.08118 9.3158 3.99993 9.89705 3.99993 10.5002C3.99993 14.0908 6.90931 17.0002 10.4999 17.0002C11.6468 17.0002 12.7218 16.7033 13.6562 16.1846Z" fill="black"/>
</svg>
