<svg width="24" height="24" viewBox="0 0 24 24" fill="none" xmlns="http://www.w3.org/2000/svg">
<path d="M16.5 4C17.0531 4 17.5 4.44687 17.5 5V5.56875C17.8906 5.64063 18.2719 5.76875 18.6313 5.94687L18.9469 6.10625C19.4406 6.35313 19.6406 6.95313 19.3938 7.44688C19.1469 7.94063 18.5469 8.14062 18.0531 7.89375L17.7344 7.73438C17.425 7.57812 17.0813 7.5 16.7344 7.5H16.6812C15.75 7.5 14.9969 8.25312 14.9969 9.18437C14.9969 9.87187 15.4156 10.4906 16.0562 10.7469L17.6812 11.3969C19.0781 11.9562 19.9969 13.3094 19.9969 14.8156V14.9219C19.9969 16.5219 18.9469 17.8781 17.4969 18.3344V19C17.4969 19.5531 17.05 20 16.4969 20C15.9437 20 15.4969 19.5531 15.4969 19V18.3938C15.0281 18.2844 14.5781 18.0906 14.175 17.8219L13.4438 17.3344C12.9844 17.0281 12.8594 16.4062 13.1656 15.9469C13.4719 15.4875 14.0938 15.3625 14.5531 15.6687L15.2875 16.1562C15.625 16.3812 16.0188 16.5 16.4219 16.5C17.2937 16.5 18 15.7937 18 14.9219V14.8156C18 14.1281 17.5813 13.5094 16.9406 13.2531L15.3156 12.6031C13.9156 12.0437 13 10.6906 13 9.18437C13 7.5625 14.0469 6.1875 15.5 5.69375V5C15.5 4.44687 15.9469 4 16.5 4ZM4 6C4 5.44687 4.44687 5 5 5H7.5C9.98438 5 12 7.01562 12 9.5C12 11.3375 10.9 12.9156 9.32188 13.6156L10.9281 17.6281C11.1344 18.1406 10.8844 18.7219 10.3719 18.9281C9.85937 19.1344 9.27813 18.8844 9.07188 18.3719L7.32188 14H6V18C6 18.5531 5.55313 19 5 19C4.44687 19 4 18.5531 4 18V13V6ZM6 12H7.5C8.88125 12 10 10.8813 10 9.5C10 8.11875 8.88125 7 7.5 7H6V12Z" fill="black"/>
</svg>
