<svg width="24" height="24" viewBox="0 0 24 24" fill="none" xmlns="http://www.w3.org/2000/svg">
<path d="M15.3594 17.7688C15.6562 18.0157 16.0719 18.0719 16.425 17.9063C16.7781 17.7407 17 17.3876 17 17.0001V7.00006C17 6.61256 16.775 6.25943 16.425 6.09381C16.075 5.92818 15.6594 5.98131 15.3594 6.23131L9.35938 11.2313L9 11.5313V7.00006C9 6.44693 8.55313 6.00006 8 6.00006C7.44687 6.00006 7 6.44693 7 7.00006V17.0001C7 17.5532 7.44687 18.0001 8 18.0001C8.55313 18.0001 9 17.5532 9 17.0001V12.4688L9.35938 12.7688L15.3594 17.7688Z" fill="black"/>
</svg>
