<svg width="24" height="24" viewBox="0 0 24 24" fill="none" xmlns="http://www.w3.org/2000/svg">
<path d="M10 15.0001L9.15005 5.63448C9.0688 4.75636 9.75942 4.00011 10.6438 4.00011H19.6907C20.35 4.00011 20.8282 4.62823 20.6563 5.26261L20.4532 6.00011H15.5C15.225 6.00011 15 6.22511 15 6.50011C15 6.77511 15.225 7.00011 15.5 7.00011H20.1813L19.6344 9.00011H15.5C15.225 9.00011 15 9.22511 15 9.50011C15 9.77511 15.225 10.0001 15.5 10.0001H19.3625L18.8157 12.0001H15.5C15.225 12.0001 15 12.2251 15 12.5001C15 12.7751 15.225 13.0001 15.5 13.0001H18.5469L18 15.0001H10ZM9.50005 16.0001H18.5C19.3282 16.0001 20 16.672 20 17.5001V18.5001C20 19.3282 19.3282 20.0001 18.5 20.0001H9.50005C8.67192 20.0001 8.00005 19.3282 8.00005 18.5001V17.5001C8.00005 16.672 8.67192 16.0001 9.50005 16.0001ZM14 19.0001C14.2653 19.0001 14.5196 18.8947 14.7072 18.7072C14.8947 18.5197 15 18.2653 15 18.0001C15 17.7349 14.8947 17.4805 14.7072 17.293C14.5196 17.1055 14.2653 17.0001 14 17.0001C13.7348 17.0001 13.4805 17.1055 13.2929 17.293C13.1054 17.4805 13 17.7349 13 18.0001C13 18.2653 13.1054 18.5197 13.2929 18.7072C13.4805 18.8947 13.7348 19.0001 14 19.0001ZM7.60942 4.95948C7.94692 5.16886 8.08755 5.61573 7.94067 6.00323L7.25317 7.80948C7.12192 8.15011 6.80005 8.35948 6.46255 8.32198L5.42192 8.20948C4.99692 9.52823 4.99692 10.972 5.42192 12.2939L6.46255 12.1814C6.80317 12.1439 7.12505 12.3532 7.25317 12.6939L7.94067 14.5001C8.08755 14.8876 7.94692 15.3345 7.60942 15.5439L6.23442 16.3939C5.9313 16.5814 5.55005 16.5251 5.30317 16.2595C2.2313 12.9376 2.2313 7.56261 5.30317 4.24386C5.55005 3.97823 5.9313 3.92198 6.23442 4.10948L7.60942 4.95948Z" fill="black"/>
</svg>
