<svg width="24" height="24" viewBox="0 0 24 24" fill="none" xmlns="http://www.w3.org/2000/svg">
<path d="M3.5 4C2.67188 4 2 4.67188 2 5.5V18.5C2 19.3281 2.67188 20 3.5 20H6.5V17.5C6.5 16.6719 7.17188 16 8 16C8.82812 16 9.5 16.6719 9.5 17.5V20H12.5C12.9719 20 13.3906 19.7844 13.6656 19.4438C12.6375 18.4438 12 17.0469 12 15.5C12 13.7906 12.7781 12.2656 14 11.2562V5.5C14 4.67188 13.3281 4 12.5 4H3.5ZM4 11.5C4 11.225 4.225 11 4.5 11H5.5C5.775 11 6 11.225 6 11.5V12.5C6 12.775 5.775 13 5.5 13H4.5C4.225 13 4 12.775 4 12.5V11.5ZM7.5 11H8.5C8.775 11 9 11.225 9 11.5V12.5C9 12.775 8.775 13 8.5 13H7.5C7.225 13 7 12.775 7 12.5V11.5C7 11.225 7.225 11 7.5 11ZM10 11.5C10 11.225 10.225 11 10.5 11H11.5C11.775 11 12 11.225 12 11.5V12.5C12 12.775 11.775 13 11.5 13H10.5C10.225 13 10 12.775 10 12.5V11.5ZM4.5 7H5.5C5.775 7 6 7.225 6 7.5V8.5C6 8.775 5.775 9 5.5 9H4.5C4.225 9 4 8.775 4 8.5V7.5C4 7.225 4.225 7 4.5 7ZM7 7.5C7 7.225 7.225 7 7.5 7H8.5C8.775 7 9 7.225 9 7.5V8.5C9 8.775 8.775 9 8.5 9H7.5C7.225 9 7 8.775 7 8.5V7.5ZM10.5 7H11.5C11.775 7 12 7.225 12 7.5V8.5C12 8.775 11.775 9 11.5 9H10.5C10.225 9 10 8.775 10 8.5V7.5C10 7.225 10.225 7 10.5 7ZM22 15.5C22 14.3065 21.5259 13.1619 20.682 12.318C19.8381 11.4741 18.6935 11 17.5 11C16.3065 11 15.1619 11.4741 14.318 12.318C13.4741 13.1619 13 14.3065 13 15.5C13 16.6935 13.4741 17.8381 14.318 18.682C15.1619 19.5259 16.3065 20 17.5 20C18.6935 20 19.8381 19.5259 20.682 18.682C21.5259 17.8381 22 16.6935 22 15.5ZM19.6031 14.1469C19.7969 14.3406 19.7969 14.6594 19.6031 14.8531L17.3531 17.1031C17.1594 17.2969 16.8406 17.2969 16.6469 17.1031L15.3969 15.8531C15.2031 15.6594 15.2031 15.3406 15.3969 15.1469C15.5906 14.9531 15.9094 14.9531 16.1031 15.1469L17 16.0437L18.8969 14.1469C19.0906 13.9531 19.4094 13.9531 19.6031 14.1469Z" fill="black"/>
</svg>
