<svg width="24" height="24" viewBox="0 0 24 24" fill="none" xmlns="http://www.w3.org/2000/svg">
<path d="M9.21244 11.6718L9.79682 13.2718C10.1624 14.2656 10.1999 15.35 9.90619 16.3687L9.87182 16.4906L2.66869 13.8687C2.31244 13.7406 2.06244 13.4218 2.01869 13.0468C1.97494 12.6718 2.14682 12.3031 2.46557 12.0968L2.72182 11.9281C3.79994 11.2187 4.62494 10.1812 5.06869 8.96872L5.52807 7.71872C6.31244 5.57497 8.68744 4.47185 10.8312 5.2531C10.9812 5.30622 11.1249 5.36872 11.2656 5.4406C9.26244 6.75935 8.34994 9.32185 9.21244 11.675V11.6718ZM12.7124 5.82497C14.9437 5.01247 17.4124 6.16247 18.2281 8.3906L18.8124 9.99059C19.2499 11.1843 20.0562 12.2093 21.1124 12.9156L21.5406 13.2031C21.8531 13.4125 22.0218 13.7812 21.9781 14.1531C21.9343 14.525 21.6812 14.8437 21.3281 14.9718L12.0343 18.3562C11.6812 18.4843 11.2843 18.4031 11.0093 18.1468C10.7343 17.8906 10.6249 17.5 10.7281 17.1406L10.8718 16.6468C11.2218 15.4281 11.1749 14.125 10.7374 12.9312L10.1499 11.3312C9.33432 9.1031 10.4781 6.63747 12.7093 5.82497H12.7124ZM17.0249 19C16.3624 19 15.7749 18.6812 15.4093 18.1906L19.0374 16.8687C19.0406 16.9093 19.0406 16.95 19.0406 16.9906C19.0406 18.1 18.1374 19 17.0249 19ZM4.94682 15.7562L8.62182 17.1125C8.25932 17.6468 7.64682 18 6.94994 18C5.83744 18 4.93432 17.1 4.93432 15.9906C4.93432 15.9125 4.93744 15.8312 4.94682 15.7562Z" fill="black"/>
</svg>
