<svg width="24" height="24" viewBox="0 0 24 24" fill="none" xmlns="http://www.w3.org/2000/svg">
<path d="M4 5C3.44687 5 3 5.44687 3 6C3 6.55313 3.44687 7 4 7H5.25V9H3V13C4.65625 13 6 14.3438 6 16V18C6 18.5531 6.44688 19 7 19H8C8.55312 19 9 18.5531 9 18V16C9 14.3438 10.3438 13 12 13C12.1969 13 12.3875 13.0188 12.5719 13.0531C13.4719 11.2438 15.3406 10 17.5 10C18.8281 10 20.05 10.4719 21 11.2562V9H18.75V7H20C20.5531 7 21 6.55313 21 6C21 5.44687 20.5531 5 20 5H4ZM17.25 7V9H14.75V7H17.25ZM13.25 7V9H10.75V7H13.25ZM9.25 7V9H6.75V7H9.25ZM17.5 20C18.6935 20 19.8381 19.5259 20.682 18.682C21.5259 17.8381 22 16.6935 22 15.5C22 14.3065 21.5259 13.1619 20.682 12.318C19.8381 11.4741 18.6935 11 17.5 11C16.3065 11 15.1619 11.4741 14.318 12.318C13.4741 13.1619 13 14.3065 13 15.5C13 16.6935 13.4741 17.8381 14.318 18.682C15.1619 19.5259 16.3065 20 17.5 20ZM17.5 17C17.6989 17 17.8897 17.079 18.0303 17.2197C18.171 17.3603 18.25 17.5511 18.25 17.75C18.25 17.9489 18.171 18.1397 18.0303 18.2803C17.8897 18.421 17.6989 18.5 17.5 18.5C17.3011 18.5 17.1103 18.421 16.9697 18.2803C16.829 18.1397 16.75 17.9489 16.75 17.75C16.75 17.5511 16.829 17.3603 16.9697 17.2197C17.1103 17.079 17.3011 17 17.5 17ZM17.5 12.5C17.775 12.5 18 12.725 18 13V15.5C18 15.775 17.775 16 17.5 16C17.225 16 17 15.775 17 15.5V13C17 12.725 17.225 12.5 17.5 12.5Z" fill="black"/>
</svg>
