<svg width="24" height="24" viewBox="0 0 24 24" fill="none" xmlns="http://www.w3.org/2000/svg">
<path d="M19.9905 4.59061C20.0218 4.42811 19.9687 4.26249 19.853 4.14374C19.7374 4.02499 19.5687 3.97811 19.4093 4.00936L15.4093 4.75936C15.228 4.79374 15.078 4.92499 15.0249 5.10311C14.9718 5.28124 15.0187 5.47186 15.1499 5.60311L16.2437 6.69686L8.51865 14.4187L6.93115 14.0219C6.6749 13.9594 6.40615 14.0344 6.21865 14.2187L4.21865 16.2187C4.02803 16.4094 3.95303 16.6875 4.0249 16.95C4.09678 17.2125 4.30303 17.4125 4.56553 17.4781L6.12803 17.8687L6.51865 19.4312C6.58428 19.6937 6.78428 19.9 7.04678 19.9719C7.30928 20.0437 7.5874 19.9719 7.77803 19.7781L9.77803 17.7781C9.96553 17.5906 10.0405 17.3219 9.9749 17.0656L9.57803 15.4781L17.303 7.75936L18.3968 8.85311C18.528 8.98436 18.7218 9.03124 18.8968 8.97811C19.0718 8.92499 19.2062 8.77499 19.2405 8.59374L19.9905 4.59374V4.59061ZM5.67803 7.26249C5.28428 6.89999 4.6749 6.90936 4.29365 7.29061C3.90303 7.68124 3.90303 8.31561 4.29365 8.70624L8.55615 12.9687L9.96865 11.5562L7.1374 8.72499C8.90303 7.76561 11.0499 7.75936 12.8218 8.70311L14.2843 7.24061C11.6655 5.57811 8.29053 5.58436 5.67803 7.26561V7.26249ZM15.2968 11.1781C16.2405 12.95 16.2343 15.0969 15.2749 16.8625L12.4437 14.0312L11.0312 15.4437L15.2937 19.7062C15.6843 20.0969 16.3187 20.0969 16.7093 19.7062C17.0905 19.325 17.0999 18.7125 16.7374 18.3219C18.4155 15.7094 18.4249 12.3344 16.7624 9.71561L15.2999 11.1781H15.2968Z" fill="black"/>
</svg>
