<svg width="24" height="24" viewBox="0 0 24 24" fill="none" xmlns="http://www.w3.org/2000/svg">
<path d="M9.00002 4C8.4469 4 8.00002 4.44687 8.00002 5C8.00002 5.47812 8.33752 5.87812 8.7844 5.97812L7.18127 14H6.00002C5.4469 14 5.00002 14.4469 5.00002 15V15.5C5.00002 15.7563 5.0219 16.0031 5.06252 16.2469C5.71877 15.9 6.52815 15.9375 7.15315 16.3781C7.71565 16.7656 8.40627 17.0125 9.00315 17.0125C9.66252 17.0125 10.3156 16.7469 10.8531 16.3781C11.5438 15.8938 12.4656 15.8938 13.1563 16.3781C13.7313 16.775 14.3938 17.0125 15.0063 17.0125C15.6 17.0125 16.2938 16.7656 16.8563 16.3781C17.4813 15.9375 18.2906 15.9 18.9469 16.2469C18.9875 16.0031 19.0094 15.7531 19.0094 15.5V15C19.0094 14.4469 18.5625 14 18.0094 14H16.8188L15.2156 5.97812C15.6625 5.87812 16 5.47812 16 5C16 4.44687 15.5531 4 15 4H9.00002ZM13.1813 6L13.4875 7.53125L12 9.26562L10.5125 7.53125L10.8188 6H13.1781H13.1813ZM13.8625 9.4L14.3938 12.0531L12.9906 10.4156L13.8625 9.39687V9.4ZM11.0156 10.4187L9.61252 12.0562L10.1438 9.40312L11.0156 10.4219V10.4187ZM9.91565 14L12 11.5687L14.0844 14H9.91565ZM12.5781 17.1844C12.2313 16.9375 11.7688 16.9375 11.4219 17.1844C10.7188 17.6687 9.8594 18 9.00002 18C8.1594 18 7.2719 17.6625 6.58127 17.1844C6.2094 16.9187 5.70315 16.9406 5.35627 17.2375C4.90627 17.6094 4.34065 17.8937 3.77502 18.025C3.23752 18.15 2.90315 18.6875 3.02815 19.225C3.15315 19.7625 3.69065 20.0969 4.22815 19.9719C4.99377 19.7937 5.63127 19.4563 6.0469 19.1906C6.95315 19.6781 7.96877 20 9.00002 20C9.9969 20 10.8938 19.6906 11.5125 19.4094C11.6938 19.325 11.8594 19.2437 12 19.1687C12.1406 19.2437 12.3031 19.3281 12.4875 19.4094C13.1063 19.6906 14.0031 20 15 20C16.0313 20 17.0469 19.6781 17.9531 19.1938C18.3719 19.4563 19.0063 19.7969 19.7719 19.975C20.3094 20.1 20.8469 19.7656 20.9719 19.2281C21.0969 18.6906 20.7625 18.1531 20.225 18.0281C19.6594 17.8969 19.0938 17.6125 18.6438 17.2406C18.2969 16.9469 17.7906 16.925 17.4188 17.1875C16.7313 17.6625 15.8406 18 15 18C14.1406 18 13.2813 17.6687 12.5781 17.1844Z" fill="black"/>
</svg>
