<svg width="24" height="24" viewBox="0 0 24 24" fill="none" xmlns="http://www.w3.org/2000/svg">
<path d="M4 12C4 13.6562 5.34375 15 7 15H17C18.6562 15 20 13.6562 20 12C20 10.5781 19.0125 9.3875 17.6844 9.07812C17.8844 8.76562 18 8.39687 18 8C18 6.89687 17.1031 6 16 6C15.6031 6 15.2312 6.11562 14.9219 6.31562C14.6125 4.9875 13.4219 4 12 4C10.5781 4 9.3875 4.9875 9.07812 6.31562C8.76875 6.11562 8.39687 6 8 6C6.89687 6 6 6.89687 6 8C6 8.39687 6.11562 8.76875 6.31562 9.07812C4.9875 9.3875 4 10.5781 4 12ZM10.0062 19.3219C10.1625 19.7219 10.5406 20 10.9719 20H13.0312C13.4625 20 13.8406 19.7219 13.9969 19.3219C14.5469 17.9062 15.2344 16.7563 15.75 16H12.75L12.225 17.0531C12.1344 17.2375 11.8687 17.2375 11.7781 17.0531L11.25 16H8.25313C8.76875 16.7563 9.45625 17.9031 10.0062 19.3219Z" fill="black"/>
</svg>
