<svg width="24" height="24" viewBox="0 0 24 24" fill="none" xmlns="http://www.w3.org/2000/svg">
<path d="M11.5 4.99999V16.75L5 15.5V5.08437C5 4.46562 5.55625 3.99374 6.16563 4.09687L11.5 4.99999ZM4.80312 16.6594L12 18.1L19.1969 16.6594C19.6656 16.5656 20 16.1562 20 15.6781V4.89999L20.8031 4.74062C21.4219 4.61562 22 5.08749 22 5.71874V17.1812C22 17.6594 21.6625 18.0687 21.1969 18.1625L12 20L2.80313 18.1594C2.3375 18.0687 2 17.6562 2 17.1812V5.71874C2 5.08749 2.57812 4.61562 3.19687 4.74062L4 4.89999V15.6812C4 16.1594 4.3375 16.5687 4.80312 16.6625V16.6594ZM12.5 16.75V4.99999L17.8344 4.09687C18.4438 3.99374 19 4.46562 19 5.08437V15.5L12.5 16.75Z" fill="black"/>
</svg>
