<svg width="24" height="24" viewBox="0 0 24 24" fill="none" xmlns="http://www.w3.org/2000/svg">
<path d="M4.00002 4C3.21877 4 2.58752 4.63125 2.58752 5.4125V17.6469C2.58752 18.425 3.21877 19.0594 4.00002 19.0594H6.82502V16.7063C6.82502 15.9281 7.45627 15.2937 8.23752 15.2937C9.01877 15.2937 9.65002 15.925 9.65002 16.7063V19.0594H12.475C13.2282 19.0594 13.8438 18.4688 13.8844 17.725C12.225 16.9969 11.0625 15.3406 11.0625 13.4125C11.0625 13.0906 11.0938 12.775 11.1563 12.4719H10.5875C10.3281 12.4719 10.1156 12.2625 10.1156 12V11.0594C10.1156 10.8 10.325 10.5875 10.5875 10.5875H11.5281C11.6688 10.5875 11.7969 10.65 11.8813 10.75C12.3782 10.0281 13.0688 9.45313 13.8813 9.09688V5.4125C13.8813 4.63125 13.25 4 12.4688 4H4.00002ZM4.4719 11.0594C4.4719 10.8 4.68127 10.5875 4.94377 10.5875H5.8844C6.14377 10.5875 6.35627 10.7969 6.35627 11.0594V12C6.35627 12.2594 6.1469 12.4719 5.8844 12.4719H4.94065C4.68127 12.4719 4.46877 12.2625 4.46877 12V11.0594H4.4719ZM7.76565 10.5875H8.70627C8.96565 10.5875 9.17815 10.7969 9.17815 11.0594V12C9.17815 12.2594 8.96877 12.4719 8.70627 12.4719H7.76565C7.50627 12.4719 7.29377 12.2625 7.29377 12V11.0594C7.29377 10.8 7.50315 10.5875 7.76565 10.5875ZM4.94065 6.825H5.88127C6.14065 6.825 6.35315 7.03438 6.35315 7.29688V8.2375C6.35315 8.49688 6.14377 8.70937 5.88127 8.70937H4.94065C4.68127 8.70937 4.46877 8.5 4.46877 8.2375V7.29375C4.46877 7.03438 4.67815 6.82188 4.94065 6.82188V6.825ZM7.29377 7.29688C7.29377 7.0375 7.50315 6.825 7.76565 6.825H8.70627C8.96565 6.825 9.17815 7.03438 9.17815 7.29688V8.2375C9.17815 8.49688 8.96877 8.70937 8.70627 8.70937H7.76565C7.50627 8.70937 7.29377 8.5 7.29377 8.2375V7.29375V7.29688ZM10.5875 6.825H11.5281C11.7875 6.825 12 7.03438 12 7.29688V8.2375C12 8.49688 11.7906 8.70937 11.5281 8.70937H10.5875C10.3281 8.70937 10.1156 8.5 10.1156 8.2375V7.29375C10.1156 7.03438 10.325 6.82188 10.5875 6.82188V6.825ZM15.7656 11.0625C16.3897 11.0625 16.9883 11.3104 17.4296 11.7517C17.8709 12.193 18.1188 12.7915 18.1188 13.4156C18.1188 14.0397 17.8709 14.6382 17.4296 15.0795C16.9883 15.5208 16.3897 15.7688 15.7656 15.7688C15.1416 15.7688 14.543 15.5208 14.1017 15.0795C13.6604 14.6382 13.4125 14.0397 13.4125 13.4156C13.4125 12.7915 13.6604 12.193 14.1017 11.7517C14.543 11.3104 15.1416 11.0625 15.7656 11.0625ZM15.7656 17.1812C16.55 17.1812 17.2782 16.9406 17.8813 16.5312L20.2063 18.8562C20.4813 19.1312 20.9281 19.1312 21.2031 18.8562C21.4781 18.5812 21.4781 18.1344 21.2031 17.8594L18.8781 15.5312C19.2875 14.9281 19.5282 14.2 19.5282 13.4156C19.5282 11.3375 17.8438 9.65 15.7625 9.65C13.6813 9.65 11.9969 11.3344 11.9969 13.4156C11.9969 15.4969 13.6813 17.1812 15.7625 17.1812H15.7656Z" fill="black"/>
</svg>
