<svg width="24" height="24" viewBox="0 0 24 24" fill="none" xmlns="http://www.w3.org/2000/svg">
<path d="M18.3594 17.7683C18.6562 18.0152 19.0719 18.0714 19.425 17.9058C19.7781 17.7402 20 17.3871 20 16.9996V6.99957C20 6.61207 19.775 6.25895 19.425 6.09332C19.075 5.9277 18.6594 5.98082 18.3594 6.23082L13 10.6964V11.9996V13.3027L18.3594 17.7683ZM12 14.9996V11.9996V7.99957V6.99957C12 6.61207 11.775 6.25895 11.425 6.09332C11.075 5.9277 10.6594 5.98082 10.3594 6.23082L4.35938 11.2308C4.13125 11.4214 4 11.7027 4 11.9996C4 12.2964 4.13125 12.5777 4.35938 12.7683L10.3594 17.7683C10.6562 18.0152 11.0719 18.0714 11.425 17.9058C11.7781 17.7402 12 17.3871 12 16.9996V14.9996Z" fill="black"/>
</svg>
