<svg width="24" height="24" viewBox="0 0 24 24" fill="none" xmlns="http://www.w3.org/2000/svg">
<path d="M5 7C5 5.34375 6.34375 4 8 4H17H18C18.5531 4 19 4.44687 19 5V15C19 15.5531 18.5531 16 18 16V18C18.5531 18 19 18.4469 19 19C19 19.5531 18.5531 20 18 20H17H8C6.34375 20 5 18.6562 5 17V7ZM7 17C7 17.5531 7.44688 18 8 18H16V16H8C7.44688 16 7 16.4469 7 17ZM9 8.91563C9 9.42188 9.20312 9.90938 9.55937 10.2688L12.1438 12.8531C12.3375 13.0469 12.6562 13.0469 12.85 12.8531L15.4344 10.2688C15.7937 9.90938 15.9937 9.42188 15.9937 8.91563C15.9937 7.85938 15.1375 7 14.0781 7C13.5719 7 13.0844 7.20312 12.725 7.55938L12.4938 7.79063L12.2625 7.55938C11.9094 7.20312 11.4219 7 10.9156 7C9.85938 7 9 7.85625 9 8.91563Z" fill="black"/>
</svg>
