<svg width="24" height="24" viewBox="0 0 24 24" fill="none" xmlns="http://www.w3.org/2000/svg">
<path d="M3.84063 5.31568C3.93438 5.12506 4.14063 5.01568 4.35 5.04381L12 6.00006L19.65 5.04381C19.8594 5.01881 20.0656 5.12818 20.1594 5.31568L21.4625 7.92193C21.7438 8.48131 21.4438 9.15943 20.8438 9.33131L15.7375 10.7907C15.3031 10.9157 14.8375 10.7313 14.6063 10.3438L12 6.00006L9.39375 10.3438C9.1625 10.7313 8.69688 10.9157 8.2625 10.7907L3.15938 9.33131C2.55625 9.15943 2.25938 8.48131 2.54063 7.92193L3.84063 5.31568ZM12.0344 8.00006L13.75 10.8563C14.2156 11.6313 15.1438 12.0001 16.0156 11.7501L20 10.6126V15.8313C20 16.5188 19.5313 17.1188 18.8625 17.2876L12.4844 18.8813C12.1656 18.9626 11.8313 18.9626 11.5156 18.8813L5.1375 17.2876C4.46875 17.1157 4 16.5157 4 15.8282V10.6094L7.9875 11.7501C8.85625 12.0001 9.7875 11.6313 10.2531 10.8563L11.9656 8.00006H12.0344Z" fill="black"/>
</svg>
