<svg width="24" height="24" viewBox="0 0 24 24" fill="none" xmlns="http://www.w3.org/2000/svg">
<path d="M3.21249 4.15939C2.88749 3.90314 2.41562 3.96251 2.15937 4.28751C1.90312 4.61251 1.96249 5.08439 2.28749 5.34064L20.7875 19.8406C21.1125 20.0969 21.5844 20.0375 21.8406 19.7125C22.0969 19.3875 22.0375 18.9156 21.7125 18.6594L18 15.75V15C18 13.8969 17.1031 13 16 13H14.4906L11.3125 10.5094C11.7344 10.1438 12 9.60314 12 9.00001V6.00001C12 4.89689 11.1031 4.00001 9.99999 4.00001H7.99999C6.89687 4.00001 5.99999 4.89689 5.99999 6.00001V6.34376L3.21249 4.15939ZM7.99999 7.91251V6.00001H9.99999V9.00001H9.38749L7.99999 7.91251ZM16.5 5.00001C16.5 4.67814 16.3469 4.37814 16.0844 4.18751C15.8219 3.99689 15.4875 3.94689 15.1844 4.05001L13.6844 4.55001C13.1594 4.72501 12.8781 5.29064 13.0531 5.81564C13.2281 6.34064 13.7937 6.62189 14.3187 6.44689L14.5031 6.38439V9.00001H14C13.4469 9.00001 13 9.44689 13 10C13 10.5531 13.4469 11 14 11H15.5H17C17.5531 11 18 10.5531 18 10C18 9.44689 17.5531 9.00001 17 9.00001H16.5V5.00001ZM9.49999 14C9.49999 13.6781 9.34687 13.3781 9.08437 13.1875C8.82187 12.9969 8.48749 12.9469 8.18437 13.05L6.68437 13.55C6.15937 13.725 5.87812 14.2906 6.05312 14.8156C6.22812 15.3406 6.79374 15.6219 7.31874 15.4469L7.50312 15.3844V18H6.99999C6.44687 18 5.99999 18.4469 5.99999 19C5.99999 19.5531 6.44687 20 6.99999 20H8.49999H9.99999C10.5531 20 11 19.5531 11 19C11 18.4469 10.5531 18 9.99999 18H9.49999V14ZM12 15V18C12 19.1031 12.8969 20 14 20H16C16.6281 20 17.1906 19.7094 17.5562 19.2563L15.9625 18H14V16.4531L12.0031 14.8813C12 14.9219 12 14.9594 12 15Z" fill="black"/>
</svg>
