<svg width="24" height="24" viewBox="0 0 24 24" fill="none" xmlns="http://www.w3.org/2000/svg">
<path d="M3.84051 5.31568C3.93426 5.12506 4.1405 5.01568 4.34988 5.04381L11.9999 6.00006L19.6499 5.04381C19.8593 5.01881 20.0655 5.12818 20.1593 5.31568L21.4624 7.92193C21.7436 8.48131 21.4436 9.15943 20.8436 9.33131L15.7374 10.7907C15.303 10.9157 14.8374 10.7313 14.6061 10.3438L11.9999 6.00006L9.39363 10.3438C9.16238 10.7313 8.69675 10.9157 8.26238 10.7907L3.15925 9.33131C2.55613 9.15943 2.25925 8.48131 2.5405 7.92193L3.84051 5.31568ZM12.0343 8.00006L13.7499 10.8563C14.2155 11.6313 15.1436 12.0001 16.0155 11.7501L19.9999 10.6126V15.8313C19.9999 16.5188 19.5311 17.1188 18.8624 17.2876L12.4843 18.8813C12.1655 18.9626 11.8311 18.9626 11.5155 18.8813L5.13738 17.2876C4.46863 17.1157 3.99988 16.5157 3.99988 15.8282V10.6094L7.98738 11.7501C8.85613 12.0001 9.78738 11.6313 10.253 10.8563L11.9655 8.00006H12.0343Z" fill="black"/>
</svg>
