<svg width="24" height="24" viewBox="0 0 24 24" fill="none" xmlns="http://www.w3.org/2000/svg">
<path d="M12 4C10.8969 4 10 4.89688 10 6V8H6C4.89688 8 4 8.89688 4 10V18C4 19.1031 4.89688 20 6 20H12H18C19.1031 20 20 19.1031 20 18V10V6C20 4.89688 19.1031 4 18 4H12ZM6 13.5C6 13.225 6.225 13 6.5 13H7.5C7.775 13 8 13.225 8 13.5V14.5C8 14.775 7.775 15 7.5 15H6.5C6.225 15 6 14.775 6 14.5V13.5ZM12.5 14C12.225 14 12 13.775 12 13.5V12.5C12 12.225 12.225 12 12.5 12H13.5C13.775 12 14 12.225 14 12.5V13.5C14 13.775 13.775 14 13.5 14H12.5ZM16 13.5V12.5C16 12.225 16.225 12 16.5 12H17.5C17.775 12 18 12.225 18 12.5V13.5C18 13.775 17.775 14 17.5 14H16.5C16.225 14 16 13.775 16 13.5ZM6.5 10H7.5C7.775 10 8 10.225 8 10.5V11.5C8 11.775 7.775 12 7.5 12H6.5C6.225 12 6 11.775 6 11.5V10.5C6 10.225 6.225 10 6.5 10ZM12 6.5C12 6.225 12.225 6 12.5 6H13.5C13.775 6 14 6.225 14 6.5V7.5C14 7.775 13.775 8 13.5 8H12.5C12.225 8 12 7.775 12 7.5V6.5ZM16.5 6H17.5C17.775 6 18 6.225 18 6.5V7.5C18 7.775 17.775 8 17.5 8H16.5C16.225 8 16 7.775 16 7.5V6.5C16 6.225 16.225 6 16.5 6ZM12 10.5V9.5C12 9.225 12.225 9 12.5 9H13.5C13.775 9 14 9.225 14 9.5V10.5C14 10.775 13.775 11 13.5 11H12.5C12.225 11 12 10.775 12 10.5ZM16.5 11C16.225 11 16 10.775 16 10.5V9.5C16 9.225 16.225 9 16.5 9H17.5C17.775 9 18 9.225 18 9.5V10.5C18 10.775 17.775 11 17.5 11H16.5Z" fill="black"/>
</svg>
