<svg width="24" height="24" viewBox="0 0 24 24" fill="none" xmlns="http://www.w3.org/2000/svg">
<path d="M10.8938 5.55313L11 5.5V5C11 4.44687 11.4469 4 12 4C12.5531 4 13 4.44687 13 5V5.5L13.1062 5.55313C13.6531 5.82813 14 6.3875 14 7C14.5531 7 15 7.44687 15 8V9H9V8C9 7.44687 9.44687 7 10 7C10 6.3875 10.3469 5.82813 10.8938 5.55313ZM10.25 12.5H7.6125C7.75312 11.8875 8.01875 11.3094 8.4 10.8L9 10H15L15.6 10.8C16.1844 11.5781 16.5 12.525 16.5 13.5V18C16.5 19.1031 15.6031 20 14.5 20H9.5C8.39688 20 7.5 19.1031 7.5 18V17.5H10.25C10.6656 17.5 11 17.1656 11 16.75C11 16.3344 10.6656 16 10.25 16H7.5V14H10.25C10.6656 14 11 13.6656 11 13.25C11 12.8344 10.6656 12.5 10.25 12.5Z" fill="black"/>
</svg>
