<svg width="24" height="24" viewBox="0 0 24 24" fill="none" xmlns="http://www.w3.org/2000/svg">
<path d="M10.5969 4.08442C10.9656 4.27505 11.1062 4.72817 10.9156 5.09692L8.36562 10H15.6344L13.0844 5.09692C12.8938 4.72817 13.0375 4.27505 13.4031 4.08442C13.7688 3.8938 14.2219 4.03755 14.4156 4.40317L17.325 10H20C20.5531 10 21 10.4469 21 11C21 11.5532 20.5531 12 20 12L18.3781 18.4844C18.1562 19.375 17.3562 20 16.4375 20H7.5625C6.64375 20 5.84375 19.375 5.62188 18.4844L4 12C3.44687 12 3 11.5532 3 11C3 10.4469 3.44687 10 4 10H6.675L9.58437 4.40317C9.775 4.03442 10.2281 3.8938 10.5969 4.08442ZM8.75 15C8.75 15.4157 9.08437 15.75 9.5 15.75H11.25V17.5C11.25 17.9157 11.5844 18.25 12 18.25C12.4156 18.25 12.75 17.9157 12.75 17.5V15.75H14.5C14.9156 15.75 15.25 15.4157 15.25 15C15.25 14.5844 14.9156 14.25 14.5 14.25H12.75V12.5C12.75 12.0844 12.4156 11.75 12 11.75C11.5844 11.75 11.25 12.0844 11.25 12.5V14.25H9.5C9.08437 14.25 8.75 14.5844 8.75 15Z" fill="black"/>
</svg>
