<svg width="24" height="24" viewBox="0 0 24 24" fill="none" xmlns="http://www.w3.org/2000/svg">
<path d="M12 9C12 6.2375 9.7625 4 7 4C4.2375 4 2 6.2375 2 9C2 11.8906 4.725 14.4375 5.67812 15.2406C5.8625 15.3969 5.92187 15.6594 5.81562 15.875L5.04375 17.4156C5.01563 17.4719 5 17.5344 5 17.5969C5 17.8188 5.18125 18 5.40313 18H8.59688C8.81875 18 9 17.8188 9 17.5969C9 17.5344 8.98438 17.4719 8.95625 17.4156L8.1875 15.8719C8.07812 15.6562 8.1375 15.3938 8.325 15.2375C9.275 14.4375 12 11.8906 12 9ZM6.5 7C5.67188 7 5 7.67188 5 8.5C5 8.775 4.775 9 4.5 9C4.225 9 4 8.775 4 8.5C4 7.11875 5.11875 6 6.5 6C6.775 6 7 6.225 7 6.5C7 6.775 6.775 7 6.5 7ZM15.6781 17.2406C15.8625 17.3969 15.9219 17.6594 15.8156 17.875L15.0437 19.4156C15.0156 19.4719 15 19.5344 15 19.5969C15 19.8188 15.1812 20 15.4031 20H18.5969C18.8187 20 19 19.8188 19 19.5969C19 19.5344 18.9844 19.4719 18.9562 19.4156L18.1875 17.8719C18.0781 17.6562 18.1375 17.3938 18.325 17.2375C19.275 16.4375 22 13.8906 22 11C22 8.2375 19.7625 6 17 6C15.3219 6 13.8375 6.825 12.9312 8.09375C12.975 8.39062 13 8.69375 13 9C13 10.1625 12.6406 11.2437 12.1469 12.1844C12.725 14.5656 14.8594 16.55 15.6781 17.2406ZM15 10.5C15 10.775 14.775 11 14.5 11C14.225 11 14 10.775 14 10.5C14 9.11875 15.1187 8 16.5 8C16.775 8 17 8.225 17 8.5C17 8.775 16.775 9 16.5 9C15.6719 9 15 9.67188 15 10.5Z" fill="black"/>
</svg>
