<svg width="24" height="24" viewBox="0 0 24 24" fill="none" xmlns="http://www.w3.org/2000/svg">
<path d="M8 7H6C4.34375 7 3 8.34375 3 10V17C3 18.6562 4.34375 20 6 20H13H14C14.5531 20 15 19.5531 15 19C15 18.4469 14.5531 18 14 18H13H12H6C5.44687 18 5 17.5531 5 17C5 16.4469 5.44687 16 6 16H8.53438C8.19375 15.4125 8 14.7281 8 14V7ZM13 17H14H19H20C20.5531 17 21 16.5531 21 16C21 15.4469 20.5531 15 20 15V13C20.5531 13 21 12.5531 21 12V5C21 4.44687 20.5531 4 20 4H19H12C10.3438 4 9 5.34375 9 7V14C9 14.7688 9.2875 15.4688 9.7625 16C10.3125 16.6125 11.1094 17 12 17H13ZM11 14C11 13.4469 11.4469 13 12 13H15H18V15H15H12C11.4469 15 11 14.5531 11 14Z" fill="black"/>
</svg>
