<svg width="24" height="24" viewBox="0 0 24 24" fill="none" xmlns="http://www.w3.org/2000/svg">
<path d="M11.9999 4C12.4531 4 12.8499 4.30312 12.9656 4.74375L13.7124 7.54375L16.0843 5.87812C16.4562 5.61875 16.9531 5.64062 17.3031 5.93125C17.6531 6.22187 17.7593 6.70938 17.5656 7.12188L16.3374 9.74687L19.2249 9.99687C19.6749 10.0344 20.0437 10.3719 20.1249 10.8187C20.2062 11.2656 19.9718 11.7094 19.5624 11.9L16.9343 13.1219L18.9874 15.1687C19.3093 15.4875 19.3749 15.9844 19.1468 16.3781C18.9187 16.7719 18.4593 16.9625 18.0218 16.8438L15.2187 16.0875L15.4749 18.975C15.5156 19.425 15.2468 19.8469 14.8218 20.0031C14.3968 20.1594 13.9187 20.0062 13.6593 19.6375L11.9999 17.2625L10.3406 19.6375C10.0812 20.0094 9.60306 20.1594 9.17806 20.0031C8.75306 19.8469 8.48431 19.425 8.52494 18.975L8.78119 16.0875L5.98119 16.8406C5.54369 16.9594 5.08119 16.7688 4.85619 16.375C4.63119 15.9812 4.69369 15.4875 5.01556 15.1656L7.06869 13.1187L4.43744 11.8969C4.02806 11.7062 3.79681 11.2625 3.87494 10.8156C3.95306 10.3688 4.32181 10.0313 4.77494 9.99375L7.66244 9.74375L6.43431 7.11875C6.24369 6.70938 6.34994 6.21875 6.69681 5.92813C7.04369 5.6375 7.54369 5.61562 7.91556 5.875L10.2874 7.54063L11.0343 4.74063C11.1499 4.30313 11.5468 4 11.9999 4ZM11.9999 8.88125L11.8499 9.44375C11.7656 9.75937 11.5312 10.0125 11.2249 10.125C10.9187 10.2375 10.5749 10.1906 10.3093 10.0031L9.83431 9.66875L10.0812 10.1937C10.2187 10.4906 10.2062 10.8344 10.0406 11.1188C9.87494 11.4031 9.58744 11.5875 9.25931 11.6156L8.68119 11.6656L9.20619 11.9094C9.50306 12.0469 9.71244 12.3219 9.76869 12.6438C9.82494 12.9656 9.72181 13.2937 9.49056 13.525L9.07806 13.9344L9.63743 13.7844C9.95306 13.7 10.2906 13.775 10.5406 13.9844C10.7906 14.1937 10.9218 14.5125 10.8937 14.8375L10.8437 15.4156L11.1749 14.9406C11.3624 14.6719 11.6687 14.5125 11.9937 14.5125C12.3187 14.5125 12.6249 14.6719 12.8124 14.9406L13.1437 15.4156L13.0937 14.8375C13.0656 14.5125 13.1968 14.1937 13.4468 13.9844C13.6968 13.775 14.0343 13.7 14.3499 13.7844L14.9093 13.9344L14.4968 13.525C14.2656 13.2937 14.1624 12.9656 14.2187 12.6438C14.2749 12.3219 14.4843 12.0469 14.7812 11.9094L15.3062 11.6656L14.7281 11.6156C14.4031 11.5875 14.1124 11.4031 13.9468 11.1188C13.7812 10.8344 13.7687 10.4906 13.9062 10.1937L14.1531 9.66875L13.6781 10.0031C13.4093 10.1906 13.0687 10.2375 12.7624 10.125C12.4562 10.0125 12.2218 9.75937 12.1374 9.44375L11.9874 8.88125H11.9999Z" fill="black"/>
</svg>
