<svg width="24" height="24" viewBox="0 0 24 24" fill="none" xmlns="http://www.w3.org/2000/svg">
<path d="M3 5C3.55313 5 4 5.44687 4 6V14H11V9C11 8.44687 11.4469 8 12 8H19C20.6562 8 22 9.34375 22 11V18C22 18.5531 21.5531 19 21 19C20.4469 19 20 18.5531 20 18V17H13H12H4V18C4 18.5531 3.55313 19 3 19C2.44687 19 2 18.5531 2 18V6C2 5.44687 2.44687 5 3 5ZM7.5 8C8.16304 8 8.79893 8.26339 9.26777 8.73223C9.73661 9.20107 10 9.83696 10 10.5C10 11.163 9.73661 11.7989 9.26777 12.2678C8.79893 12.7366 8.16304 13 7.5 13C6.83696 13 6.20107 12.7366 5.73223 12.2678C5.26339 11.7989 5 11.163 5 10.5C5 9.83696 5.26339 9.20107 5.73223 8.73223C6.20107 8.26339 6.83696 8 7.5 8Z" fill="black"/>
</svg>
