<svg width="24" height="24" viewBox="0 0 24 24" fill="none" xmlns="http://www.w3.org/2000/svg">
<path d="M5.17501 4.13125C4.87501 3.92812 4.47501 3.96562 4.21876 4.21875C3.96251 4.47188 3.92501 4.875 4.13126 5.17188L7.63126 10.275L4.51876 11.2875C4.20939 11.3875 4.00001 11.675 4.00001 12C4.00001 12.325 4.20939 12.6125 4.51876 12.7125L7.74064 13.7563L6.08751 16.9C5.93439 17.1906 5.98751 17.5469 6.22189 17.7781C6.45626 18.0094 6.80939 18.0656 7.10001 17.9125L10.2438 16.2594L11.2875 19.4812C11.3875 19.7906 11.675 20 12 20C12.325 20 12.6125 19.7906 12.7125 19.4812L13.7563 16.2594L16.9 17.9125C17.1906 18.0656 17.5469 18.0125 17.7781 17.7781C18.0094 17.5437 18.0656 17.1906 17.9125 16.9L16.2594 13.7563L19.4813 12.7125C19.7906 12.6125 20 12.325 20 12C20 11.675 19.7906 11.3875 19.4813 11.2875L16.1531 10.2094L16.9563 8.00938C17.0563 7.73438 16.9875 7.42812 16.7813 7.22187C16.575 7.01562 16.2688 6.94688 15.9938 7.04688L13.7938 7.85L12.7125 4.51875C12.6125 4.20938 12.325 4 12 4C11.675 4 11.3875 4.20938 11.2875 4.51875L10.2781 7.63125L5.17501 4.13125Z" fill="black"/>
</svg>
