<svg width="24" height="24" viewBox="0 0 24 24" fill="none" xmlns="http://www.w3.org/2000/svg">
<path d="M7.125 5.00627C6.575 4.94064 6.075 5.32814 6.00625 5.87502C5.9375 6.42189 6.32813 6.92502 6.875 6.99377L7.12188 7.02502C7.62188 7.08752 7.99688 7.51252 7.99688 8.01877V9.00002H7C6.44688 9.00002 6 9.44689 6 10C6 10.5531 6.44688 11 7 11H8V16C8 17.6563 9.34375 19 11 19H12C15.3125 19 18 16.3125 18 13V12C18 10.3438 16.6562 9.00002 15 9.00002H14.5C13.9469 9.00002 13.5 9.44689 13.5 10C13.5 10.5531 13.9469 11 14.5 11H15C15.5531 11 16 11.4469 16 12V13C16 15.2094 14.2094 17 12 17H11C10.4469 17 10 16.5531 10 16V11H11C11.5531 11 12 10.5531 12 10C12 9.44689 11.5531 9.00002 11 9.00002H10V8.01564C10 6.50314 8.87188 5.22502 7.37188 5.03752L7.125 5.00627Z" fill="black"/>
</svg>
