<svg width="24" height="24" viewBox="0 0 24 24" fill="none" xmlns="http://www.w3.org/2000/svg">
<path d="M5.5 7C4.11875 7 3 8.11875 3 9.5V14.5C3 15.8813 4.11875 17 5.5 17H8.38125C7.97813 16.5469 7.87813 15.8875 8.15625 15.3281L8.32188 15H5.5C5.225 15 5 14.775 5 14.5V9.5C5 9.225 5.225 9 5.5 9H9.85L12.35 7H5.5ZM17.5 15H13.15L10.65 17H17.5C18.8813 17 20 15.8813 20 14.5V14C20.5531 14 21 13.5531 21 13V11C21 10.4469 20.5531 10 20 10V9.5C20 8.11875 18.8813 7 17.5 7H14.6187C15.025 7.45312 15.1219 8.1125 14.8438 8.67188L14.6781 9H17.5C17.775 9 18 9.225 18 9.5V14.5C18 14.775 17.775 15 17.5 15ZM13.8156 7.6125C13.6344 7.46562 13.3719 7.46562 13.1875 7.60938L8.1875 11.6094C8.02187 11.7406 7.95625 11.9656 8.02812 12.1656C8.1 12.3656 8.2875 12.5 8.5 12.5H10.6906L9.05312 15.775C8.94688 15.9844 9.00313 16.2406 9.1875 16.3875C9.37187 16.5344 9.63125 16.5344 9.81563 16.3906L14.8156 12.3906C14.9812 12.2594 15.0469 12.0344 14.975 11.8344C14.9031 11.6344 14.7156 11.5 14.5031 11.5H12.3094L13.9469 8.225C14.0531 8.01562 13.9969 7.75937 13.8156 7.6125Z" fill="black"/>
</svg>
