<svg width="24" height="24" viewBox="0 0 24 24" fill="none" xmlns="http://www.w3.org/2000/svg">
<path d="M16 4C17.6562 4 19 5.34375 19 7V17C19 18.6562 17.6562 20 16 20H7H6C5.44687 20 5 19.5531 5 19C5 18.4469 5.44687 18 6 18V16C5.44687 16 5 15.5531 5 15V5C5 4.44687 5.44687 4 6 4H7H16ZM16 16H8V18H16C16.5531 18 17 17.5531 17 17C17 16.4469 16.5531 16 16 16ZM9.33437 10.5L9.76875 11.25H8.90313L9.3375 10.5H9.33437ZM8.9 9.75L8.03437 11.25C7.84062 11.5844 8.08125 12 8.46875 12H10.2L11.0656 13.5C11.2594 13.8344 11.7406 13.8344 11.9313 13.5L12.7969 12H14.5312C14.9156 12 15.1562 11.5844 14.9656 11.25L14.1 9.75L14.9656 8.25C15.1594 7.91563 14.9187 7.5 14.5312 7.5H12.8L11.9344 6C11.7406 5.66563 11.2594 5.66563 11.0687 6L10.2031 7.5H8.46875C8.08437 7.5 7.84375 7.91563 8.03437 8.25L8.9 9.75ZM9.76562 9.75L10.6312 8.25H12.3625L13.2281 9.75L12.3625 11.25H10.6344L9.76875 9.75H9.76562ZM9.76562 8.25L9.33125 9L8.89687 8.25H9.7625H9.76562ZM11.0656 7.5L11.5 6.75L11.9344 7.5H11.0656ZM13.2312 8.25H14.0969L13.6625 9L13.2281 8.25H13.2312ZM13.6656 10.5L14.1 11.25H13.2312L13.6656 10.5ZM11.9344 12L11.5 12.75L11.0656 12H11.9313H11.9344Z" fill="black"/>
</svg>
