<svg width="24" height="24" viewBox="0 0 24 24" fill="none" xmlns="http://www.w3.org/2000/svg">
<path d="M4 10V9.8875C4 9.39687 4.39687 9 4.8875 9H11C11.5531 9 12 8.55313 12 8V7C12 5.34375 13.3438 4 15 4C16.4844 4 17.7156 5.07812 17.9563 6.49062L19.7563 7.57188C19.9063 7.6625 20 7.825 20 8C20 8.175 19.9094 8.3375 19.7563 8.42812L18 9.48438V10C18 12.9344 16.1969 15.4469 13.6344 16.4875L14.9125 18.9C15.1063 19.2656 14.9656 19.7188 14.6 19.9125C14.2344 20.1063 13.7812 19.9656 13.5875 19.6L12.1594 16.9031C11.7813 16.9687 11.3938 17 11 17C10.9688 17 10.9375 17 10.9062 17L11.9125 18.9C12.1062 19.2656 11.9656 19.7188 11.6 19.9125C11.2344 20.1063 10.7813 19.9656 10.5875 19.6L9.06875 16.7281C6.14062 15.8906 4 13.1969 4 10ZM15.75 7.75C15.75 7.55109 15.671 7.36032 15.5303 7.21967C15.3897 7.07902 15.1989 7 15 7C14.8011 7 14.6103 7.07902 14.4697 7.21967C14.329 7.36032 14.25 7.55109 14.25 7.75C14.25 7.94891 14.329 8.13968 14.4697 8.28033C14.6103 8.42098 14.8011 8.5 15 8.5C15.1989 8.5 15.3897 8.42098 15.5303 8.28033C15.671 8.13968 15.75 7.94891 15.75 7.75Z" fill="black"/>
</svg>
