<svg width="24" height="24" viewBox="0 0 24 24" fill="none" xmlns="http://www.w3.org/2000/svg">
<path d="M3.21243 4.15937C2.88743 3.90312 2.41556 3.96249 2.15931 4.28749C1.90306 4.61249 1.96243 5.08437 2.28743 5.34062L20.7874 19.8406C21.1124 20.0969 21.5843 20.0375 21.8406 19.7125C22.0968 19.3875 22.0374 18.9156 21.7124 18.6594L16.0124 14.1906L17.6593 12.75C17.9718 12.475 18.0843 12.0344 17.9374 11.6469C17.7906 11.2594 17.4187 11 16.9999 11H13.5156L15.9187 5.39374C16.1031 4.96562 15.9656 4.46562 15.5874 4.19062C15.2093 3.91562 14.6937 3.94062 14.3406 4.24687L9.13743 8.80312L3.21243 4.15937ZM6.34056 11.2469C6.02806 11.5219 5.91556 11.9625 6.06243 12.35C6.20931 12.7375 6.58118 12.9969 6.99993 12.9969H9.61556L6.83743 10.8094L6.34056 11.2437V11.2469ZM8.08118 18.6062C7.89681 19.0344 8.03431 19.5344 8.41243 19.8094C8.79056 20.0844 9.30618 20.0594 9.65931 19.7531L13.6999 16.2187L10.2656 13.5125L8.08118 18.6062Z" fill="black"/>
</svg>
