<svg width="24" height="24" viewBox="0 0 24 24" fill="none" xmlns="http://www.w3.org/2000/svg">
<path d="M7 4C5.89688 4 5 4.89688 5 6V18C5 19.1031 5.89688 20 7 20H17C18.1031 20 19 19.1031 19 18V6C19 4.89688 18.1031 4 17 4H7ZM7 7.5C7 7.225 7.225 7 7.5 7H8.5C8.775 7 9 7.225 9 7.5V8.5C9 8.775 8.775 9 8.5 9H7.5C7.225 9 7 8.775 7 8.5V7.5ZM7 15.5C7 15.225 7.225 15 7.5 15H8.5C8.775 15 9 15.225 9 15.5V16.5C9 16.775 8.775 17 8.5 17H7.5C7.225 17 7 16.775 7 16.5V15.5ZM11.5 15.5H16.5C16.775 15.5 17 15.725 17 16C17 16.275 16.775 16.5 16.5 16.5H11.5C11.225 16.5 11 16.275 11 16C11 15.725 11.225 15.5 11.5 15.5ZM11 8C11 7.725 11.225 7.5 11.5 7.5H16.5C16.775 7.5 17 7.725 17 8C17 8.275 16.775 8.5 16.5 8.5H11.5C11.225 8.5 11 8.275 11 8ZM11.5 11.5H16.5C16.775 11.5 17 11.725 17 12C17 12.275 16.775 12.5 16.5 12.5H11.5C11.225 12.5 11 12.275 11 12C11 11.725 11.225 11.5 11.5 11.5ZM9.85313 10.6469C10.0469 10.8406 10.0469 11.1594 9.85313 11.3531L8.35313 12.8531C8.15938 13.0469 7.84062 13.0469 7.64687 12.8531L6.89688 12.1031C6.70313 11.9094 6.70313 11.5906 6.89688 11.3969C7.09063 11.2031 7.40938 11.2031 7.60313 11.3969L8 11.7937L9.14687 10.6469C9.34062 10.4531 9.65938 10.4531 9.85313 10.6469Z" fill="black"/>
</svg>
