<svg width="24" height="24" viewBox="0 0 24 24" fill="none" xmlns="http://www.w3.org/2000/svg">
<path d="M8.55625 6.8314C9.01563 6.52515 9.14062 5.90328 8.83437 5.4439C8.52812 4.98453 7.90625 4.85953 7.44688 5.16578C6.24688 5.96578 4 8.3814 4 12.0002C4 15.6189 6.24687 18.0314 7.44375 18.8314C7.90312 19.1377 8.525 19.0127 8.83125 18.5533C9.1375 18.0939 9.0125 17.472 8.55312 17.1658C7.75312 16.6345 6 14.7814 6 12.0002C6 9.2189 7.75313 7.36578 8.55625 6.8314ZM15.4469 6.8314C16.2469 7.36578 18 9.2189 18 12.0002C18 14.7814 16.2469 16.6345 15.4438 17.1689C14.9844 17.4752 14.8594 18.097 15.1656 18.5564C15.4719 19.0158 16.0938 19.1408 16.5531 18.8345C17.7531 18.0345 20 15.6189 20 12.0002C20 8.3814 17.7531 5.96578 16.5562 5.1689C16.0969 4.86265 15.475 4.98765 15.1687 5.44703C14.8625 5.9064 14.9875 6.52828 15.4469 6.83453V6.8314Z" fill="black"/>
</svg>
