<svg width="24" height="24" viewBox="0 0 24 24" fill="none" xmlns="http://www.w3.org/2000/svg">
<path d="M11.5875 4.09061C11.9438 3.92811 12.3625 3.99061 12.6594 4.24999L16.6594 7.74999C16.875 7.93749 17 8.21249 17 8.49999C17 8.78749 16.875 9.06249 16.6594 9.25311L13.5188 12L16.6594 14.7469C16.875 14.9375 17 15.2125 17 15.5C17 15.7875 16.875 16.0625 16.6594 16.2531L12.6594 19.7531C12.3656 20.0125 11.9438 20.0719 11.5875 19.9125C11.2313 19.7531 11 19.3937 11 19V14.2031L8.65939 16.2531C8.24377 16.6156 7.61252 16.575 7.24689 16.1594C6.88127 15.7437 6.92502 15.1125 7.34064 14.7469L10.4813 12L7.34064 9.25311C6.92502 8.89061 6.88439 8.25624 7.24689 7.84061C7.60939 7.42499 8.24377 7.38436 8.65939 7.74686L11 9.79686V4.99999C11 4.60624 11.2281 4.24999 11.5875 4.09061ZM13 14.2031V16.7969L14.4813 15.5L13 14.2031ZM13 9.79686L14.4813 8.49999L13 7.20311V9.79686Z" fill="black"/>
</svg>
