<svg width="24" height="24" viewBox="0 0 24 24" fill="none" xmlns="http://www.w3.org/2000/svg">
<path d="M9.74997 6.75C9.74997 6.45453 9.80817 6.16194 9.92124 5.88896C10.0343 5.61598 10.2001 5.36794 10.409 5.15901C10.6179 4.95008 10.866 4.78434 11.1389 4.67127C11.4119 4.5582 11.7045 4.5 12 4.5C12.2954 4.5 12.588 4.5582 12.861 4.67127C13.134 4.78434 13.382 4.95008 13.591 5.15901C13.7999 5.36794 13.9656 5.61598 14.0787 5.88896C14.1918 6.16194 14.25 6.45453 14.25 6.75C14.25 7.04547 14.1918 7.33806 14.0787 7.61104C13.9656 7.88402 13.7999 8.13206 13.591 8.34099C13.382 8.54992 13.134 8.71566 12.861 8.82873C12.588 8.9418 12.2954 9 12 9C11.7045 9 11.4119 8.9418 11.1389 8.82873C10.866 8.71566 10.6179 8.54992 10.409 8.34099C10.2001 8.13206 10.0343 7.88402 9.92124 7.61104C9.80817 7.33806 9.74997 7.04547 9.74997 6.75ZM6.2406 8.51562C6.64685 7.95625 7.4281 7.83437 7.98747 8.24062L9.11872 9.0625C9.95622 9.67188 10.9656 10 12 10C13.0343 10 14.0437 9.67188 14.8812 9.0625L16.0125 8.2375C16.5718 7.83125 17.3531 7.95625 17.7593 8.5125C18.1656 9.06875 18.0406 9.85313 17.4843 10.2594L16.3531 11.0844C15.9281 11.3937 15.475 11.6531 15 11.8656V13H8.99997V11.8656C8.52497 11.6562 8.07185 11.3937 7.64685 11.0844L6.5156 10.2594C5.95622 9.85313 5.83435 9.07187 6.2406 8.5125V8.51562ZM9.04685 14.2906L10.9406 15.9469L10.1281 17.1094L10.8875 17.8687C11.375 18.3562 11.375 19.1469 10.8875 19.6375C10.4 20.1281 9.60935 20.125 9.11872 19.6375L7.61872 18.1375C7.18747 17.7063 7.1281 17.0312 7.47497 16.5344L9.04372 14.2906H9.04685ZM13.0625 15.9469L14.9562 14.2906L16.525 16.5344C16.8718 17.0312 16.8125 17.7062 16.3843 18.1344L14.8843 19.6344C14.3968 20.1219 13.6062 20.1219 13.1156 19.6344C12.625 19.1469 12.6281 18.3563 13.1156 17.8656L13.875 17.1062L13.0625 15.9438V15.9469Z" fill="black"/>
</svg>
