<svg width="24" height="24" viewBox="0 0 24 24" fill="none" xmlns="http://www.w3.org/2000/svg">
<path d="M16.5002 5V9H17.0002C17.5533 9 18.0002 9.44687 18.0002 10C18.0002 10.5531 17.5533 11 17.0002 11H15.5002H14.0002C13.4471 11 13.0002 10.5531 13.0002 10C13.0002 9.44687 13.4471 9 14.0002 9H14.5002V6.3875L14.3158 6.45C13.7908 6.625 13.2252 6.34063 13.0502 5.81875C12.8752 5.29688 13.1596 4.72813 13.6814 4.55313L15.1814 4.05313C15.4877 3.95 15.8252 4 16.0846 4.1875C16.3439 4.375 16.5002 4.67812 16.5002 5ZM9.50019 14V18H10.0002C10.5533 18 11.0002 18.4469 11.0002 19C11.0002 19.5531 10.5533 20 10.0002 20H8.50019H7.00019C6.44706 20 6.00019 19.5531 6.00019 19C6.00019 18.4469 6.44706 18 7.00019 18H7.50019V15.3875L7.31581 15.45C6.79081 15.625 6.22519 15.3406 6.05019 14.8188C5.87519 14.2969 6.15956 13.7281 6.68144 13.5531L8.18144 13.0531C8.48769 12.95 8.82206 13.0031 9.08144 13.1906C9.34081 13.3781 9.49706 13.6813 9.49706 14.0031L9.50019 14ZM6.00019 6C6.00019 4.89688 6.89706 4 8.00019 4H10.0002C11.1033 4 12.0002 4.89688 12.0002 6V9C12.0002 10.1031 11.1033 11 10.0002 11H8.00019C6.89706 11 6.00019 10.1031 6.00019 9V6ZM10.0002 6H8.00019V9H10.0002V6ZM14.0002 13H16.0002C17.1033 13 18.0002 13.8969 18.0002 15V18C18.0002 19.1031 17.1033 20 16.0002 20H14.0002C12.8971 20 12.0002 19.1031 12.0002 18V15C12.0002 13.8969 12.8971 13 14.0002 13ZM14.0002 15V18H16.0002V15H14.0002Z" fill="black"/>
</svg>
