<svg width="24" height="24" viewBox="0 0 24 24" fill="none" xmlns="http://www.w3.org/2000/svg">
<path d="M7.12489 5.00627C6.57489 4.94064 6.07489 5.32814 6.00614 5.87502C5.93739 6.42189 6.32801 6.92502 6.87489 6.99377L7.12176 7.02502C7.62176 7.08752 7.99676 7.51252 7.99676 8.01877V9.00002H6.99989C6.44676 9.00002 5.99989 9.44689 5.99989 10C5.99989 10.5531 6.44676 11 6.99989 11H7.99989V16C7.99989 17.6563 9.34364 19 10.9999 19H11.9999C15.3124 19 17.9999 16.3125 17.9999 13V12C17.9999 10.3438 16.6561 9.00002 14.9999 9.00002H14.4999C13.9468 9.00002 13.4999 9.44689 13.4999 10C13.4999 10.5531 13.9468 11 14.4999 11H14.9999C15.553 11 15.9999 11.4469 15.9999 12V13C15.9999 15.2094 14.2093 17 11.9999 17H10.9999C10.4468 17 9.99989 16.5531 9.99989 16V11H10.9999C11.553 11 11.9999 10.5531 11.9999 10C11.9999 9.44689 11.553 9.00002 10.9999 9.00002H9.99989V8.01564C9.99989 6.50314 8.87176 5.22502 7.37176 5.03752L7.12489 5.00627Z" fill="black"/>
</svg>
