<svg width="24" height="24" viewBox="0 0 24 24" fill="none" xmlns="http://www.w3.org/2000/svg">
<path d="M7.5 4C6.67188 4 6 4.67188 6 5.5V18.5C6 19.3281 6.67188 20 7.5 20H10.5V17.5C10.5 16.6719 11.1719 16 12 16C12.8281 16 13.5 16.6719 13.5 17.5V20H16.5C17.3281 20 18 19.3281 18 18.5V5.5C18 4.67188 17.3281 4 16.5 4H7.5ZM8 11.5C8 11.225 8.225 11 8.5 11H9.5C9.775 11 10 11.225 10 11.5V12.5C10 12.775 9.775 13 9.5 13H8.5C8.225 13 8 12.775 8 12.5V11.5ZM11.5 11H12.5C12.775 11 13 11.225 13 11.5V12.5C13 12.775 12.775 13 12.5 13H11.5C11.225 13 11 12.775 11 12.5V11.5C11 11.225 11.225 11 11.5 11ZM14 11.5C14 11.225 14.225 11 14.5 11H15.5C15.775 11 16 11.225 16 11.5V12.5C16 12.775 15.775 13 15.5 13H14.5C14.225 13 14 12.775 14 12.5V11.5ZM8.5 7H9.5C9.775 7 10 7.225 10 7.5V8.5C10 8.775 9.775 9 9.5 9H8.5C8.225 9 8 8.775 8 8.5V7.5C8 7.225 8.225 7 8.5 7ZM11 7.5C11 7.225 11.225 7 11.5 7H12.5C12.775 7 13 7.225 13 7.5V8.5C13 8.775 12.775 9 12.5 9H11.5C11.225 9 11 8.775 11 8.5V7.5ZM14.5 7H15.5C15.775 7 16 7.225 16 7.5V8.5C16 8.775 15.775 9 15.5 9H14.5C14.225 9 14 8.775 14 8.5V7.5C14 7.225 14.225 7 14.5 7Z" fill="black"/>
</svg>
