<svg width="24" height="24" viewBox="0 0 24 24" fill="none" xmlns="http://www.w3.org/2000/svg">
<path d="M5 7C5 5.34375 6.34375 4 8 4H17H18C18.5531 4 19 4.44687 19 5V15C19 15.5531 18.5531 16 18 16V18C18.5531 18 19 18.4469 19 19C19 19.5531 18.5531 20 18 20H17H8C6.34375 20 5 18.6562 5 17V7ZM7 17C7 17.5531 7.44688 18 8 18H16V16H8C7.44688 16 7 16.4469 7 17ZM11.5 7.5V9H10C9.725 9 9.5 9.225 9.5 9.5V10.5C9.5 10.775 9.725 11 10 11H11.5V12.5C11.5 12.775 11.725 13 12 13H13C13.275 13 13.5 12.775 13.5 12.5V11H15C15.275 11 15.5 10.775 15.5 10.5V9.5C15.5 9.225 15.275 9 15 9H13.5V7.5C13.5 7.225 13.275 7 13 7H12C11.725 7 11.5 7.225 11.5 7.5Z" fill="black"/>
</svg>
