<svg width="24" height="24" viewBox="0 0 24 24" fill="none" xmlns="http://www.w3.org/2000/svg">
<path d="M12 4C13.6562 4 15 5.34375 15 7V7.1125C15 7.60312 14.6031 8 14.1125 8H9.8875C9.39687 8 9 7.60312 9 7.1125V7C9 5.34375 10.3438 4 12 4ZM5.29375 7.29375C5.68438 6.90313 6.31875 6.90313 6.70937 7.29375L8.70937 9.29375C8.73125 9.31562 8.75 9.3375 8.76875 9.35938C9.2125 9.13125 9.71875 9.00313 10.2531 9.00313H13.75C14.2844 9.00313 14.7875 9.13125 15.2344 9.35938C15.2531 9.3375 15.2719 9.31562 15.2937 9.29375L17.2937 7.29375C17.6844 6.90313 18.3188 6.90313 18.7094 7.29375C19.1 7.68438 19.1 8.31875 18.7094 8.70937L16.7094 10.7094C16.6875 10.7312 16.6656 10.75 16.6438 10.7688C16.8375 11.1438 16.9594 11.5594 16.9906 12.0031H19C19.5531 12.0031 20 12.45 20 13.0031C20 13.5563 19.5531 14.0031 19 14.0031H17C17 14.7719 16.8281 15.4969 16.5188 16.1469C16.5875 16.1875 16.65 16.2375 16.7063 16.2969L18.7063 18.2969C19.0969 18.6875 19.0969 19.3219 18.7063 19.7125C18.3156 20.1031 17.6812 20.1031 17.2906 19.7125L15.3188 17.7406C14.5531 18.4219 13.575 18.8719 12.4969 18.9781V11.5C12.4969 11.225 12.2719 11 11.9969 11C11.7219 11 11.4969 11.225 11.4969 11.5V18.975C10.4187 18.8688 9.44063 18.4187 8.675 17.7375L6.70625 19.7063C6.31562 20.0969 5.68125 20.0969 5.29062 19.7063C4.9 19.3156 4.9 18.6812 5.29062 18.2906L7.29063 16.2906C7.35 16.2312 7.4125 16.1844 7.47813 16.1406C7.17188 15.4937 7 14.7688 7 14H5C4.44687 14 4 13.5531 4 13C4 12.4469 4.44687 12 5 12H7.00938C7.04375 11.5594 7.16563 11.1406 7.35625 10.7656C7.33438 10.7469 7.3125 10.7281 7.29063 10.7063L5.29062 8.70625C4.9 8.31563 4.9 7.68125 5.29062 7.29063L5.29375 7.29375Z" fill="black"/>
</svg>
