<svg width="24" height="24" viewBox="0 0 24 24" fill="none" xmlns="http://www.w3.org/2000/svg">
<path d="M4 5C4 4.44687 4.44687 4 5 4H14C14.5531 4 15 4.44687 15 5V6C15 6.55313 14.5531 7 14 7H4V5ZM4 18.2937V18H20V18.2937C20 18.7469 19.8187 19.1813 19.5 19.5C19.1813 19.8187 18.7469 20 18.2937 20H17.8281C17.2969 20 16.7875 19.7906 16.4125 19.4156L16.175 19.1781C16.0781 19.0813 15.9187 19.0813 15.8219 19.1781L15.5844 19.4156C15.2094 19.7906 14.7 20 14.1687 20H13.825C13.2937 20 12.7844 19.7906 12.4094 19.4156L12.1719 19.1781C12.075 19.0813 11.9156 19.0813 11.8187 19.1781L11.5813 19.4156C11.2063 19.7906 10.6969 20 10.1656 20H9.82188C9.29063 20 8.78125 19.7906 8.40625 19.4156L8.16875 19.1781C8.07187 19.0813 7.9125 19.0813 7.81562 19.1781L7.57812 19.4156C7.20312 19.7906 6.69375 20 6.1625 20H5.70625C5.25312 20 4.81875 19.8187 4.5 19.5C4.18125 19.1813 4 18.7469 4 18.2937ZM4 17V8H14V9H12.5C12.225 9 12 9.225 12 9.5C12 9.775 12.225 10 12.5 10H14V11H12.5C12.225 11 12 11.225 12 11.5C12 11.775 12.225 12 12.5 12H14L17.7281 12.9312C19.0625 13.2656 20 14.4656 20 15.8438V17H4Z" fill="black"/>
</svg>
