<svg width="24" height="24" viewBox="0 0 24 24" fill="none" xmlns="http://www.w3.org/2000/svg">
<path d="M12.0846 4.1875C12.3439 4.375 12.5002 4.67813 12.5002 5V9H13.0002C13.5533 9 14.0002 9.44688 14.0002 10C14.0002 10.5531 13.5533 11 13.0002 11H11.5002H10.0002C9.44706 11 9.00019 10.5531 9.00019 10C9.00019 9.44688 9.44706 9 10.0002 9H10.5002V6.3875L10.3158 6.45C9.79081 6.625 9.22519 6.34063 9.05019 5.81875C8.87519 5.29688 9.15956 4.72813 9.68144 4.55313L11.1814 4.05313C11.4877 3.95 11.8252 4 12.0846 4.1875ZM5.08456 13.1875C5.34394 13.375 5.50019 13.6781 5.50019 14V18H6.00019C6.55331 18 7.00019 18.4469 7.00019 19C7.00019 19.5531 6.55331 20 6.00019 20H4.50019H3.00019C2.44706 20 2.00019 19.5531 2.00019 19C2.00019 18.4469 2.44706 18 3.00019 18H3.50019V15.3875L3.31581 15.45C2.79081 15.625 2.22519 15.3406 2.05019 14.8188C1.87519 14.2969 2.15956 13.7281 2.68144 13.5531L4.18144 13.0531C4.48769 12.95 4.82206 13.0031 5.08144 13.1906L5.08456 13.1875ZM4.00019 4H6.00019C7.10331 4 8.00019 4.89688 8.00019 6V9C8.00019 10.1031 7.10331 11 6.00019 11H4.00019C2.89706 11 2.00019 10.1031 2.00019 9V6C2.00019 4.89688 2.89706 4 4.00019 4ZM4.00019 6V9H6.00019V6H4.00019ZM8.00019 15C8.00019 13.8969 8.89706 13 10.0002 13H12.0002C12.1939 13 12.3814 13.0281 12.5596 13.0781C12.2096 13.7937 12.0096 14.5969 12.0002 15.4438V15H10.0002V18H12.0002H12.6002C12.8439 18.4781 13.1564 18.9156 13.5221 19.2969C13.1564 19.7281 12.6096 20 12.0002 20H10.0002C8.89706 20 8.00019 19.1031 8.00019 18V15ZM12.0221 16H12.0002V15.5562C12.0002 15.7062 12.0096 15.8531 12.0221 16ZM13.0002 15.5C13.0002 14.3065 13.4743 13.1619 14.3182 12.318C15.1621 11.4741 16.3067 11 17.5002 11C18.6937 11 19.8383 11.4741 20.6822 12.318C21.5261 13.1619 22.0002 14.3065 22.0002 15.5C22.0002 16.6935 21.5261 17.8381 20.6822 18.682C19.8383 19.5259 18.6937 20 17.5002 20C16.3067 20 15.1621 19.5259 14.3182 18.682C13.4743 17.8381 13.0002 16.6935 13.0002 15.5ZM19.6033 14.1469C19.4096 13.9531 19.0908 13.9531 18.8971 14.1469L17.0002 16.0437L16.1033 15.1469C15.9096 14.9531 15.5908 14.9531 15.3971 15.1469C15.2033 15.3406 15.2033 15.6594 15.3971 15.8531L16.6471 17.1031C16.8408 17.2969 17.1596 17.2969 17.3533 17.1031L19.6033 14.8531C19.7971 14.6594 19.7971 14.3406 19.6033 14.1469Z" fill="black"/>
</svg>
