<svg width="24" height="24" viewBox="0 0 24 24" fill="none" xmlns="http://www.w3.org/2000/svg">
<path d="M18.3469 5.6375L17.8313 4.20312C17.7719 4.08125 17.6406 4 17.5031 4C17.3656 4 17.2375 4.08125 17.1781 4.20312L16.6625 5.6375L15.225 6.1625C15.0906 6.2125 14.9969 6.34687 15 6.4875C15 6.62812 15.0938 6.75938 15.225 6.80625L16.6531 7.33125L17.1781 8.7625C17.225 8.9 17.3594 8.99687 17.5031 8.99687C17.6469 8.99687 17.7812 8.9 17.8281 8.7625L18.3438 7.33125L19.7719 6.80625C19.9031 6.75938 19.9969 6.62812 19.9969 6.4875C19.9969 6.34375 19.9031 6.20937 19.7719 6.1625L18.3469 5.6375ZM14.2094 7.29375C13.8188 6.90313 13.1844 6.90313 12.7937 7.29375L12.7031 7.38438C12.0156 7.13438 11.2719 7 10.5 7C6.90937 7 4 9.90937 4 13.5C4 17.0906 6.90937 20 10.5 20C14.0906 20 17 17.0906 17 13.5C17 12.7281 16.8656 11.9844 16.6187 11.2969L16.7094 11.2063C17.1 10.8156 17.1 10.1813 16.7094 9.79063L14.2094 7.29063V7.29375ZM10.25 10C8.45625 10 7 11.4562 7 13.25V13.5C7 13.775 6.775 14 6.5 14C6.225 14 6 13.775 6 13.5V13.25C6 10.9031 7.90313 9 10.25 9H10.5C10.775 9 11 9.225 11 9.5C11 9.775 10.775 10 10.5 10H10.25Z" fill="black"/>
</svg>
