<svg width="24" height="24" viewBox="0 0 24 24" fill="none" xmlns="http://www.w3.org/2000/svg">
<path d="M8.5 5C8.5 4.44687 8.94687 4 9.5 4C10.0531 4 10.5 4.44687 10.5 5V6H11.5V5C11.5 4.44687 11.9469 4 12.5 4C13.0531 4 13.5 4.44687 13.5 5V6C13.5 6.04688 13.4969 6.09687 13.4906 6.14062C14.9406 6.56875 16 7.90937 16 9.5C16 10.2562 15.7594 10.9562 15.3531 11.5281C16.3438 12.1469 17 13.2469 17 14.5C17 16.4344 15.4344 18 13.5 18V19C13.5 19.5531 13.0531 20 12.5 20C11.9469 20 11.5 19.5531 11.5 19V18H10.5V19C10.5 19.5531 10.0531 20 9.5 20C8.94687 20 8.5 19.5531 8.5 19V18H8.30313C7.58438 18 7 17.4156 7 16.6969V13V12.3031V11V7.175C7 6.525 7.525 6 8.175 6H8.5V5ZM9 11H12.5C13.3281 11 14 10.3281 14 9.5C14 8.67188 13.3281 8 12.5 8H9V11ZM12.5 13H9V16H13.5C14.3281 16 15 15.3281 15 14.5C15 13.6719 14.3281 13 13.5 13H12.5Z" fill="black"/>
</svg>
