<svg width="24" height="24" viewBox="0 0 24 24" fill="none" xmlns="http://www.w3.org/2000/svg">
<path d="M16 6C16 4.89688 16.8969 4 18 4C19.1031 4 20 4.89688 20 6V6.03437C20 6.26562 19.9688 6.49688 19.9062 6.72187L19.3531 8.74687C19.3312 8.83125 19.3125 8.91563 19.2969 9H16.7031C16.6875 8.91563 16.6688 8.83125 16.6469 8.74687L16.0906 6.72187C16.0281 6.49688 16 6.26562 16 6.03437V6ZM16.7125 10H19.2844C19.3156 10.1969 19.3656 10.3875 19.4344 10.575L20.6875 13.9781C20.8937 14.5375 21 15.1281 21 15.7219C21 16.3625 20.8781 17 20.6406 17.5938L19.9312 19.3719C19.7781 19.75 19.4094 20 19 20H17C16.5906 20 16.2219 19.75 16.0719 19.3719L15.5156 17.9812C16.4469 16.7312 17 15.1812 17 13.5C17 12.5406 16.8188 11.6219 16.4906 10.7781L16.5656 10.575C16.6344 10.3875 16.6844 10.1969 16.7156 10H16.7125ZM3 13.5C3 11.7761 3.68482 10.1228 4.90381 8.90381C6.12279 7.68482 7.77609 7 9.5 7C11.2239 7 12.8772 7.68482 14.0962 8.90381C15.3152 10.1228 16 11.7761 16 13.5C16 15.2239 15.3152 16.8772 14.0962 18.0962C12.8772 19.3152 11.2239 20 9.5 20C7.77609 20 6.12279 19.3152 4.90381 18.0962C3.68482 16.8772 3 15.2239 3 13.5ZM10 9.375C10 9.14294 9.90781 8.92038 9.74372 8.75628C9.57962 8.59219 9.35706 8.5 9.125 8.5C8.89294 8.5 8.67038 8.59219 8.50628 8.75628C8.34219 8.92038 8.25 9.14294 8.25 9.375C8.25 9.60706 8.34219 9.82962 8.50628 9.99372C8.67038 10.1578 8.89294 10.25 9.125 10.25C9.35706 10.25 9.57962 10.1578 9.74372 9.99372C9.90781 9.82962 10 9.60706 10 9.375ZM9.125 13C9.35706 13 9.57962 12.9078 9.74372 12.7437C9.90781 12.5796 10 12.3571 10 12.125C10 11.8929 9.90781 11.6704 9.74372 11.5063C9.57962 11.3422 9.35706 11.25 9.125 11.25C8.89294 11.25 8.67038 11.3422 8.50628 11.5063C8.34219 11.6704 8.25 11.8929 8.25 12.125C8.25 12.3571 8.34219 12.5796 8.50628 12.7437C8.67038 12.9078 8.89294 13 9.125 13ZM7.75 10.875C7.75 10.7601 7.72737 10.6463 7.68339 10.5402C7.63942 10.434 7.57497 10.3375 7.49372 10.2563C7.41247 10.175 7.31601 10.1106 7.20985 10.0666C7.10369 10.0226 6.98991 10 6.875 10C6.76009 10 6.64631 10.0226 6.54015 10.0666C6.43399 10.1106 6.33753 10.175 6.25628 10.2563C6.17503 10.3375 6.11058 10.434 6.06661 10.5402C6.02263 10.6463 6 10.7601 6 10.875C6 10.9899 6.02263 11.1037 6.06661 11.2098C6.11058 11.316 6.17503 11.4125 6.25628 11.4937C6.33753 11.575 6.43399 11.6394 6.54015 11.6834C6.64631 11.7274 6.76009 11.75 6.875 11.75C6.98991 11.75 7.10369 11.7274 7.20985 11.6834C7.31601 11.6394 7.41247 11.575 7.49372 11.4937C7.57497 11.4125 7.63942 11.316 7.68339 11.2098C7.72737 11.1037 7.75 10.9899 7.75 10.875Z" fill="black"/>
</svg>
