<svg width="24" height="24" viewBox="0 0 24 24" fill="none" xmlns="http://www.w3.org/2000/svg">
<path d="M17.2501 4C16.8626 4 16.4938 4.15312 16.2188 4.42812L11.297 9.35C10.9688 9.67812 10.6782 10.0406 10.4313 10.4313L8.14697 14.05C7.91885 14.4094 7.65322 14.7437 7.3501 15.0469L6.18447 16.2094L7.7876 17.8125L8.95322 16.6469C9.25322 16.3469 9.5876 16.0781 9.9501 15.85L13.5688 13.5656C13.9595 13.3188 14.322 13.0281 14.6501 12.7L19.572 7.78125C19.8438 7.50938 20.0001 7.1375 20.0001 6.75C20.0001 6.3625 19.847 5.99375 19.572 5.71875L18.2813 4.42812C18.0063 4.15312 17.6376 4 17.2501 4ZM20.0001 17.5C20.0001 16.837 19.7367 16.2011 19.2679 15.7322C18.799 15.2634 18.1631 15 17.5001 15C16.8371 15 16.2012 15.2634 15.7323 15.7322C15.2635 16.2011 15.0001 16.837 15.0001 17.5C15.0001 18.163 15.2635 18.7989 15.7323 19.2678C16.2012 19.7366 16.8371 20 17.5001 20C18.1631 20 18.799 19.7366 19.2679 19.2678C19.7367 18.7989 20.0001 18.163 20.0001 17.5ZM4.46885 16.4688C4.1751 16.7625 4.1751 17.2375 4.46885 17.5281L6.46885 19.5281C6.7626 19.8219 7.2376 19.8219 7.52822 19.5281C7.81885 19.2344 7.82197 18.7594 7.52822 18.4688L5.53135 16.4688C5.2376 16.175 4.7626 16.175 4.47197 16.4688H4.46885Z" fill="black"/>
</svg>
