<svg width="24" height="24" viewBox="0 0 24 24" fill="none" xmlns="http://www.w3.org/2000/svg">
<path d="M5 4.99998C5 4.44685 5.44688 3.99998 6 3.99998H8C8.55312 3.99998 9 4.44685 9 4.99998V6.99998H5V4.99998ZM5 17H9V19C9 19.5531 8.55312 20 8 20H6C5.44688 20 5 19.5531 5 19V17ZM10 4.99998C10 4.44685 10.4469 3.99998 11 3.99998H13C13.5531 3.99998 14 4.44685 14 4.99998V6.99998H10V4.99998ZM10 7.99998H14V16H10V7.99998ZM10 17H14V19C14 19.5531 13.5531 20 13 20H11C10.4469 20 10 19.5531 10 19V17ZM16.3625 16.3781L15 11.2687V8.46248L18.1375 7.62185L20.2 15.3531L16.3625 16.3781ZM17.8813 6.65623L15 7.42498V4.34373L16.1531 4.03435C16.6812 3.8906 17.2281 4.20623 17.3687 4.7406L17.8813 6.65623ZM16.6187 17.3437L20.4562 16.3156L20.9656 18.225C21.1063 18.7562 20.7938 19.3031 20.2625 19.4469L18.3438 19.9625C17.8156 20.1062 17.2688 19.7906 17.1281 19.2562L16.6187 17.3437ZM5 9.49998C5 9.22498 5.225 8.99998 5.5 8.99998H6.5C6.775 8.99998 7 9.22498 7 9.49998V11H8.5C8.775 11 9 11.225 9 11.5V12.5C9 12.775 8.775 13 8.5 13H7V14.5C7 14.775 6.775 15 6.5 15H5.5C5.225 15 5 14.775 5 14.5V13H3.5C3.225 13 3 12.775 3 12.5V11.5C3 11.225 3.225 11 3.5 11H5V9.49998Z" fill="black"/>
</svg>
