<svg width="24" height="24" viewBox="0 0 24 24" fill="none" xmlns="http://www.w3.org/2000/svg">
<path d="M3.21268 4.16C2.88768 3.90375 2.4158 3.96312 2.15955 4.28812C1.9033 4.61312 1.96268 5.085 2.28768 5.34125L20.7877 19.8412C21.1127 20.0975 21.5846 20.0381 21.8408 19.7131C22.0971 19.3881 22.0377 18.9162 21.7127 18.66L18.0002 15.7506V15.0006C18.0002 13.8975 17.1033 13.0006 16.0002 13.0006H14.4908L11.3127 10.51C11.7346 10.1444 12.0002 9.60375 12.0002 9.00062V6.00062C12.0002 4.8975 11.1033 4.00062 10.0002 4.00062H8.00018C6.89705 4.00062 6.00018 4.8975 6.00018 6.00062V6.34437L3.21268 4.16ZM8.00018 7.91312V6.00062H10.0002V9.00062H9.38768L8.00018 7.91312ZM16.5002 5.00062C16.5002 4.67875 16.3471 4.37875 16.0846 4.18812C15.8221 3.9975 15.4877 3.9475 15.1846 4.05062L13.6846 4.55062C13.1596 4.72562 12.8783 5.29125 13.0533 5.81625C13.2283 6.34125 13.7939 6.6225 14.3189 6.4475L14.5033 6.385V9.00062H14.0002C13.4471 9.00062 13.0002 9.4475 13.0002 10.0006C13.0002 10.5537 13.4471 11.0006 14.0002 11.0006H15.5002H17.0002C17.5533 11.0006 18.0002 10.5537 18.0002 10.0006C18.0002 9.4475 17.5533 9.00062 17.0002 9.00062H16.5002V5.00062ZM9.50018 14.0006C9.50018 13.6787 9.34705 13.3787 9.08455 13.1881C8.82205 12.9975 8.48768 12.9475 8.18455 13.0506L6.68455 13.5506C6.15955 13.7256 5.8783 14.2912 6.0533 14.8162C6.2283 15.3412 6.79393 15.6225 7.31893 15.4475L7.5033 15.385V18.0006H7.00018C6.44705 18.0006 6.00018 18.4475 6.00018 19.0006C6.00018 19.5537 6.44705 20.0006 7.00018 20.0006H8.50018H10.0002C10.5533 20.0006 11.0002 19.5537 11.0002 19.0006C11.0002 18.4475 10.5533 18.0006 10.0002 18.0006H9.50018V14.0006ZM12.0002 15.0006V18.0006C12.0002 19.1037 12.8971 20.0006 14.0002 20.0006H16.0002C16.6283 20.0006 17.1908 19.71 17.5564 19.2569L15.9627 18.0006H14.0002V16.4537L12.0033 14.8819C12.0002 14.9225 12.0002 14.96 12.0002 15.0006Z" fill="black"/>
</svg>
