<svg width="24" height="24" viewBox="0 0 24 24" fill="none" xmlns="http://www.w3.org/2000/svg">
<path d="M8 4C9.10313 4 10 4.89688 10 6V6.03437C10 6.26562 9.96875 6.49688 9.90938 6.72187L9.35625 8.74687C9.33437 8.83125 9.31563 8.91563 9.3 9H6.70312C6.6875 8.91563 6.66875 8.83125 6.64687 8.74687L6.09063 6.72187C6.02813 6.49688 6 6.26562 6 6.03437V6C6 4.89688 6.89688 4 8 4ZM6.56562 10.575C6.63437 10.3875 6.68438 10.1969 6.71563 10H9.2875C9.31875 10.1969 9.36875 10.3875 9.4375 10.575L10.6438 13.8469C10.8813 14.4906 11.0031 15.175 11.0031 15.8594C11.0031 16.7625 10.7937 17.6562 10.3875 18.4656L9.89687 19.4469C9.725 19.7875 9.37813 20 9 20H7C6.62188 20 6.275 19.7875 6.10625 19.4469L5.61563 18.4656C5.20938 17.6562 5 16.7656 5 15.8594C5 15.1719 5.12188 14.4906 5.35938 13.8469L6.56562 10.575ZM16 4C17.1031 4 18 4.89688 18 6V6.03437C18 6.26562 17.9688 6.49688 17.9094 6.72187L17.3562 8.74687C17.3344 8.83125 17.3156 8.91563 17.3 9H14.7031C14.6875 8.91563 14.6688 8.83125 14.6469 8.74687L14.0906 6.72187C14.0281 6.49688 14 6.26562 14 6.03437V6C14 4.89688 14.8969 4 16 4ZM14.5656 10.575C14.6344 10.3875 14.6844 10.1969 14.7156 10H17.2875C17.3188 10.1969 17.3687 10.3875 17.4375 10.575L18.6875 13.9781C18.8938 14.5375 19 15.1281 19 15.7219C19 16.3625 18.8781 17 18.6406 17.5938L17.9312 19.3719C17.7781 19.75 17.4094 20 17 20H15C14.5906 20 14.2219 19.75 14.0719 19.3719L13.3594 17.5938C13.1219 17 13 16.3625 13 15.7219C13 15.1281 13.1062 14.5375 13.3125 13.9781L14.5656 10.575Z" fill="black"/>
</svg>
