<svg width="24" height="24" viewBox="0 0 24 24" fill="none" xmlns="http://www.w3.org/2000/svg">
<path d="M6 5H14V7.5H6V5ZM5 7.5H3V7C3 5.89688 3.89688 5 5 5V7.5ZM3 8.5H9.5V11.5H3V8.5ZM3 15.5V12.5H5V15.5H3ZM3 16.5H9.5V19H5C3.89688 19 3 18.1031 3 17V16.5ZM10.5 16.5H11.2031C11.4531 17.4375 11.9187 18.2937 12.55 19H10.5V16.5ZM17 8.5V8.51875L16.9812 8.5H17ZM10.5 8.5H14.7469C13.7312 9.43125 12.8594 10.475 12.2156 11.5H10.5V8.5ZM6 12.5H11.6562C11.2656 13.3031 11 14.1469 11 14.9406C11 15.1281 11.0094 15.3156 11.025 15.5H6V12.5ZM17 7.5H15V5C16.1031 5 17 5.89688 17 7V7.5ZM17.8031 10.5094L18.1875 10.0781C18.3562 9.8875 18.6031 9.80313 18.8406 9.8C19.0656 9.8 19.2875 9.88125 19.4625 10.0437C20.0781 10.6156 20.7062 11.3938 21.1812 12.25C21.6562 13.1 22 14.0688 22 15.0063C22 17.775 19.7719 20 17 20C14.2 20 12 17.7719 12 15.0063C12 13.8406 12.5 12.7125 13.15 11.7406C13.8031 10.7625 14.6344 9.89687 15.3656 9.23438C15.5438 9.07188 15.775 8.99375 16 9C16.4406 9.00938 16.7438 9.35625 17.0219 9.675C17.0844 9.74688 17.1469 9.81875 17.2094 9.88438L17.8031 10.5062V10.5094ZM19 16.5063C19 15.3656 17.8438 14.225 17.2875 13.7437C17.1188 13.5969 16.8781 13.5969 16.7094 13.7437C16.1562 14.2219 15 15.3625 15 16.5063C15 17.6094 15.8969 18.5063 17 18.5063C18.1031 18.5063 19 17.6094 19 16.5063Z" fill="black"/>
</svg>
