<svg width="24" height="24" viewBox="0 0 24 24" fill="none" xmlns="http://www.w3.org/2000/svg">
<path d="M16 5H15C14.4468 5 14 5.44687 14 6C14 6.55313 14.4468 7 15 7H16C16.5531 7 17 7.44688 17 8V9.17188C17 9.96875 17.3156 10.7312 17.8781 11.2937L18.5843 12L17.8781 12.7063C17.3156 13.2688 17 14.0312 17 14.8281V16C17 16.5531 16.5531 17 16 17H15C14.4468 17 14 17.4469 14 18C14 18.5531 14.4468 19 15 19H16C17.6562 19 19 17.6562 19 16V14.8281C19 14.5625 19.1062 14.3094 19.2937 14.1219L20.7093 12.7063C21.1 12.3156 21.1 11.6813 20.7093 11.2906L19.2937 9.875C19.1062 9.6875 19 9.43437 19 9.16875V8C19 6.34375 17.6562 5 16 5ZM7.99995 5C6.3437 5 4.99995 6.34375 4.99995 8V9.17188C4.99995 9.4375 4.8937 9.69063 4.7062 9.87813L3.2937 11.2937C2.90308 11.6844 2.90308 12.3188 3.2937 12.7094L4.70933 14.125C4.89683 14.3125 5.00308 14.5656 5.00308 14.8313V16C5.00308 17.6562 6.34683 19 8.00308 19H9.00308C9.5562 19 10.0031 18.5531 10.0031 18C10.0031 17.4469 9.5562 17 9.00308 17H7.99995C7.44683 17 6.99995 16.5531 6.99995 16V14.8281C6.99995 14.0312 6.68433 13.2688 6.12183 12.7063L5.41558 12L6.12183 11.2937C6.68433 10.7312 6.99995 9.96875 6.99995 9.17188V8C6.99995 7.44688 7.44683 7 7.99995 7H8.99995C9.55308 7 9.99995 6.55313 9.99995 6C9.99995 5.44687 9.55308 5 8.99995 5H7.99995Z" fill="black"/>
</svg>
