<svg width="24" height="24" viewBox="0 0 24 24" fill="none" xmlns="http://www.w3.org/2000/svg">
<path d="M18.5312 4.21873C18.2375 3.92498 17.7625 3.92498 17.4719 4.21873L15.9688 5.71873C15.8937 5.79373 15.8344 5.88435 15.7969 5.98435L15.3156 7.2656L12.9375 9.64685C12.2937 9.21248 11.5531 8.9156 10.75 8.8031V8.74998C10.75 8.33435 10.4156 7.99998 10 7.99998C9.58437 7.99998 9.25 8.33435 9.25 8.74998V8.8031C8.35938 8.93123 7.54375 9.28123 6.85625 9.79373L6.81875 9.75623C6.525 9.46248 6.05 9.46248 5.75937 9.75623C5.46875 10.05 5.46562 10.525 5.75937 10.8156L5.79688 10.8531C5.28125 11.5437 4.93125 12.3594 4.80313 13.25H4.75C4.33437 13.25 4 13.5844 4 14C4 14.4156 4.33437 14.75 4.75 14.75H4.80313C4.93125 15.6406 5.28125 16.4562 5.79375 17.1437L5.75625 17.1812C5.4625 17.475 5.4625 17.95 5.75625 18.2406C6.05 18.5312 6.525 18.5344 6.81562 18.2406L6.85313 18.2031C7.54063 18.7187 8.35937 19.0687 9.24687 19.1937V19.25C9.24687 19.6656 9.58125 20 9.99687 20C10.4125 20 10.7469 19.6656 10.7469 19.25V19.1968C11.6375 19.0687 12.4531 18.7187 13.1406 18.2062L13.1781 18.2437C13.4719 18.5375 13.9469 18.5375 14.2375 18.2437C14.5281 17.95 14.5313 17.475 14.2375 17.1844L14.2 17.1469C14.7156 16.4594 15.0656 15.6406 15.1906 14.7531H15.25C15.6656 14.7531 16 14.4187 16 14.0031C16 13.5875 15.6656 13.2531 15.25 13.2531H15.1969C15.0812 12.45 14.7875 11.7062 14.3531 11.0656L16.7312 8.68748L18.0125 8.20623C18.1125 8.16873 18.2031 8.10935 18.2781 8.03435L19.7781 6.53435C20.0719 6.2406 20.0719 5.7656 19.7781 5.47498L18.5312 4.21873ZM10 10.5C10.4596 10.5 10.9148 10.5905 11.3394 10.7664C11.764 10.9423 12.1499 11.2001 12.4749 11.5251C12.7999 11.8501 13.0577 12.2359 13.2336 12.6606C13.4095 13.0852 13.5 13.5403 13.5 14C13.5 14.4596 13.4095 14.9147 13.2336 15.3394C13.0577 15.764 12.7999 16.1498 12.4749 16.4748C12.1499 16.7999 11.764 17.0577 11.3394 17.2336C10.9148 17.4094 10.4596 17.5 10 17.5C9.54037 17.5 9.08525 17.4094 8.66061 17.2336C8.23597 17.0577 7.85013 16.7999 7.52513 16.4748C7.20012 16.1498 6.94231 15.764 6.76642 15.3394C6.59053 14.9147 6.5 14.4596 6.5 14C6.5 13.5403 6.59053 13.0852 6.76642 12.6606C6.94231 12.2359 7.20012 11.8501 7.52513 11.5251C7.85013 11.2001 8.23597 10.9423 8.66061 10.7664C9.08525 10.5905 9.54037 10.5 10 10.5ZM8.85313 13.6469C8.65938 13.4531 8.34062 13.4531 8.14687 13.6469C7.95312 13.8406 7.95312 14.1593 8.14687 14.3531L9.64687 15.8531C9.84062 16.0468 10.1594 16.0468 10.3531 15.8531C10.5469 15.6593 10.5469 15.3406 10.3531 15.1469L8.85313 13.6469Z" fill="black"/>
</svg>
