<svg width="24" height="24" viewBox="0 0 24 24" fill="none" xmlns="http://www.w3.org/2000/svg">
<path d="M7.5 10C5.56562 10 4 8.65625 4 7C4 5.34375 5.56562 4 7.5 4C9.025 4 10.3219 4.83438 10.8 6H19C19.5531 6 20 6.44687 20 7C20 7.55313 19.5531 8 19 8H10.8C10.3188 9.16562 9.02188 10 7.5 10ZM4.0625 12.0469C4.02812 11.4781 4.48125 11 5.05 11H18.95C19.5187 11 19.9719 11.4781 19.9375 12.0469C19.7687 14.9125 18.0719 17.35 15.675 18.6L15.6375 18.9031C15.5594 19.5281 15.0281 19.9969 14.3969 19.9969H9.60313C8.97188 19.9969 8.44063 19.5281 8.3625 18.9031L8.325 18.6C5.925 17.35 4.23125 14.9156 4.0625 12.0469Z" fill="black"/>
</svg>
