<svg width="24" height="24" viewBox="0 0 24 24" fill="none" xmlns="http://www.w3.org/2000/svg">
<path d="M7.92812 5H11.5V9H5L6.58438 5.82812C6.84063 5.32187 7.35937 5 7.92812 5ZM12.5 5H16.0719C16.6406 5 17.1594 5.32187 17.4125 5.82812L19 9H12.5V5ZM5 10H19V17C19 18.1031 18.1031 19 17 19H7C5.89688 19 5 18.1031 5 17V10ZM11.6469 17.1469C11.8406 17.3406 12.1594 17.3406 12.3531 17.1469L14.7688 14.7312C15.4094 14.0906 15.4094 13.05 14.7688 12.4094C14.1281 11.7688 13.0875 11.7688 12.4469 12.4094L12 12.8562L11.5531 12.4094C10.9125 11.7688 9.87187 11.7688 9.23125 12.4094C8.59062 13.05 8.59062 14.0906 9.23125 14.7312L11.6469 17.1469Z" fill="black"/>
</svg>
