<svg width="24" height="24" viewBox="0 0 24 24" fill="none" xmlns="http://www.w3.org/2000/svg">
<path d="M12 10.5C12 10.6687 12.0125 10.8375 12.0343 11H18.9656C18.9875 10.8375 19 10.6687 19 10.5C19 8.56563 17.4343 7 15.5 7H15.4656C14.2562 7.0125 13.1937 7.6375 12.5718 8.58125C12.2093 9.13125 12 9.79063 12 10.5ZM4.99997 10.5C4.99997 10.6687 5.01247 10.8375 5.03435 11H11.0281C11.0093 10.8344 11 10.6687 11 10.5C11 9.8125 11.1531 9.1625 11.4281 8.58125C10.9937 7.91875 10.3375 7.4125 9.5656 7.16563C9.23122 7.05938 8.87185 7 8.49997 7C6.5656 7 4.99997 8.56563 4.99997 10.5ZM15.1687 6.0125C14.6093 4.82188 13.4 4 12 4C10.6 4 9.3906 4.82188 8.83122 6.0125C10.1093 6.10625 11.2406 6.73125 12 7.67188C12.7593 6.73125 13.8906 6.10625 15.1687 6.0125ZM5.49997 12C5.35622 12 5.21872 12.0625 5.12497 12.1687C5.03122 12.275 4.98435 12.4187 5.0031 12.5625L5.0656 13.0594C5.34685 15.3094 7.26247 17 9.53122 17H10.7937L8.64685 19.1469C8.5031 19.2906 8.46247 19.5063 8.53747 19.6906C8.61247 19.875 8.79685 20 8.99997 20H15C15.2031 20 15.3843 19.8781 15.4625 19.6906C15.5406 19.5031 15.4968 19.2875 15.3531 19.1469L13.2062 17H14.4687C16.7375 17 18.6531 15.3094 18.9343 13.0594L18.9968 12.5625C19.0156 12.4187 18.9718 12.2781 18.875 12.1687C18.7781 12.0594 18.6437 12 18.5 12H5.49997Z" fill="black"/>
</svg>
