<svg width="24" height="24" viewBox="0 0 24 24" fill="none" xmlns="http://www.w3.org/2000/svg">
<path d="M3.21268 4.15955C2.88768 3.9033 2.4158 3.96268 2.15955 4.28768C1.9033 4.61268 1.96268 5.08455 2.28768 5.3408L20.7877 19.8408C21.1127 20.0971 21.5846 20.0377 21.8408 19.7127C22.0971 19.3877 22.0377 18.9158 21.7127 18.6596L18.9783 16.5158C19.5971 16.0627 20.0002 15.3283 20.0002 14.5002V14.0002C20.5533 14.0002 21.0002 13.5533 21.0002 13.0002V11.0002C21.0002 10.4471 20.5533 10.0002 20.0002 10.0002V9.50018C20.0002 8.11893 18.8814 7.00018 17.5002 7.00018H6.83768L3.21268 4.15955ZM9.38768 9.00018H17.5002C17.7752 9.00018 18.0002 9.22518 18.0002 9.50018V14.5002C18.0002 14.7752 17.7752 15.0002 17.5002 15.0002H17.0439L9.38768 9.00018ZM12.1533 15.0002H5.50018C5.22518 15.0002 5.00018 14.7752 5.00018 14.5002V9.50018C5.00018 9.45643 5.00643 9.4158 5.0158 9.37518L3.41893 8.1158C3.1533 8.51268 3.00018 8.98768 3.00018 9.50018V14.5002C3.00018 15.8814 4.11893 17.0002 5.50018 17.0002H14.6939L12.1564 15.0002H12.1533Z" fill="black"/>
</svg>
