<svg width="24" height="24" viewBox="0 0 24 24" fill="none" xmlns="http://www.w3.org/2000/svg">
<path d="M11.9999 18C15.3124 18 17.9999 15.3125 17.9999 12C17.9999 8.6875 15.3124 6 11.9999 6C8.6874 6 5.9999 8.6875 5.9999 12C5.9999 12.1219 6.00303 12.2438 6.0124 12.3656L4.05615 12.9406C4.01865 12.6313 3.9999 12.3188 3.9999 12C3.9999 7.58125 7.58115 4 11.9999 4C16.4187 4 19.9999 7.58125 19.9999 12C19.9999 16.4187 16.4187 20 11.9999 20C11.6812 20 11.3687 19.9813 11.0593 19.9438L11.6343 17.9875C11.7562 17.9938 11.878 18 11.9999 18ZM12.0718 16.5L12.6874 14.4062C13.7343 14.1062 14.4999 13.1438 14.4999 12.0031C14.4999 10.6219 13.3812 9.50313 11.9999 9.50313C10.8593 9.50313 9.89365 10.2688 9.59678 11.3156L7.4999 11.9281C7.5374 9.475 9.5374 7.5 11.9999 7.5C14.4843 7.5 16.4999 9.51562 16.4999 12C16.4999 14.4625 14.5249 16.4625 12.0718 16.5ZM5.21865 13.6406L11.6187 11.7594C11.9968 11.6469 12.3499 12 12.2405 12.3813L10.3593 18.7812C10.2312 19.2156 9.63428 19.2688 9.43115 18.8625L8.53428 17.0719C8.5124 17.0312 8.4874 16.9906 8.45615 16.9563L5.70615 19.7063C5.31553 20.0969 4.68115 20.0969 4.29053 19.7063C3.8999 19.3156 3.8999 18.6812 4.29053 18.2906L7.04053 15.5406C7.00615 15.5094 6.96865 15.4812 6.9249 15.4625L5.1374 14.5688C4.73115 14.3656 4.78428 13.7688 5.21865 13.6406Z" fill="black"/>
</svg>
