<svg width="24" height="24" viewBox="0 0 24 24" fill="none" xmlns="http://www.w3.org/2000/svg">
<path d="M5 7C5 5.34375 6.34375 4 8 4H17H18C18.5531 4 19 4.44687 19 5V15C19 15.5531 18.5531 16 18 16V18C18.5531 18 19 18.4469 19 19C19 19.5531 18.5531 20 18 20H17H8C6.34375 20 5 18.6562 5 17V7ZM7 17C7 17.5531 7.44688 18 8 18H16V16H8C7.44688 16 7 16.4469 7 17ZM12.9469 6.275C12.8625 6.10625 12.6875 6 12.5 6C12.3125 6 12.1375 6.10625 12.0531 6.275L10.0531 10.275L9.05312 12.275C8.92812 12.5219 9.03125 12.8219 9.27812 12.9469C9.525 13.0719 9.825 12.9688 9.95 12.7219L10.8094 11H14.1906L15.0531 12.725C15.1781 12.9719 15.4781 13.0719 15.725 12.95C15.9719 12.8281 16.0719 12.525 15.95 12.2781L14.95 10.2781L12.95 6.27813L12.9469 6.275ZM12.5 7.61875L13.6906 10H11.3094L12.5 7.61875Z" fill="black"/>
</svg>
