<svg width="24" height="24" viewBox="0 0 24 24" fill="none" xmlns="http://www.w3.org/2000/svg">
<path d="M10.9156 5.09682C11.1062 4.72807 10.9625 4.27494 10.5969 4.08432C10.2313 3.89369 9.775 4.03744 9.58437 4.40307L6.675 9.99994H4C3.44687 9.99994 3 10.4468 3 10.9999C3 11.5531 3.44687 11.9999 4 11.9999L5.62188 18.4843C5.84375 19.3749 6.64375 19.9999 7.5625 19.9999H16.4375C17.3562 19.9999 18.1562 19.3749 18.3781 18.4843L20 11.9999C20.5531 11.9999 21 11.5531 21 10.9999C21 10.4468 20.5531 9.99994 20 9.99994H17.325L14.4156 4.40307C14.225 4.03744 13.7719 3.89369 13.4031 4.08432C13.0344 4.27494 12.8938 4.72807 13.0844 5.09682L15.6344 9.99994H8.36562L10.9156 5.09682ZM9.5 14.2499H14.5C14.9156 14.2499 15.25 14.5843 15.25 14.9999C15.25 15.4156 14.9156 15.7499 14.5 15.7499H9.5C9.08437 15.7499 8.75 15.4156 8.75 14.9999C8.75 14.5843 9.08437 14.2499 9.5 14.2499Z" fill="black"/>
</svg>
