<svg width="24" height="24" viewBox="0 0 24 24" fill="none" xmlns="http://www.w3.org/2000/svg">
<path d="M4.5 4C3.67188 4 3 4.67188 3 5.5V18.5C3 19.3281 3.67188 20 4.5 20H7.5V17.5C7.5 16.6719 8.17188 16 9 16C9.82812 16 10.5 16.6719 10.5 17.5V20H13.2688C13.1 19.7063 13 19.3656 13 19V15C13 14.2594 13.4031 13.6125 14 13.2688V12.5C14 11.5469 14.3813 10.6813 15 10.05V5.5C15 4.67188 14.3281 4 13.5 4H4.5ZM5 11.5C5 11.225 5.225 11 5.5 11H6.5C6.775 11 7 11.225 7 11.5V12.5C7 12.775 6.775 13 6.5 13H5.5C5.225 13 5 12.775 5 12.5V11.5ZM8.5 11H9.5C9.775 11 10 11.225 10 11.5V12.5C10 12.775 9.775 13 9.5 13H8.5C8.225 13 8 12.775 8 12.5V11.5C8 11.225 8.225 11 8.5 11ZM11 11.5C11 11.225 11.225 11 11.5 11H12.5C12.775 11 13 11.225 13 11.5V12.5C13 12.775 12.775 13 12.5 13H11.5C11.225 13 11 12.775 11 12.5V11.5ZM5.5 7H6.5C6.775 7 7 7.225 7 7.5V8.5C7 8.775 6.775 9 6.5 9H5.5C5.225 9 5 8.775 5 8.5V7.5C5 7.225 5.225 7 5.5 7ZM8 7.5C8 7.225 8.225 7 8.5 7H9.5C9.775 7 10 7.225 10 7.5V8.5C10 8.775 9.775 9 9.5 9H8.5C8.225 9 8 8.775 8 8.5V7.5ZM11.5 7H12.5C12.775 7 13 7.225 13 7.5V8.5C13 8.775 12.775 9 12.5 9H11.5C11.225 9 11 8.775 11 8.5V7.5C11 7.225 11.225 7 11.5 7ZM17.5 11.5C18.0531 11.5 18.5 11.9469 18.5 12.5V14H16.5V12.5C16.5 11.9469 16.9469 11.5 17.5 11.5ZM15 12.5V14C14.4469 14 14 14.4469 14 15V19C14 19.5531 14.4469 20 15 20H20C20.5531 20 21 19.5531 21 19V15C21 14.4469 20.5531 14 20 14V12.5C20 11.1188 18.8813 10 17.5 10C16.1187 10 15 11.1188 15 12.5Z" fill="black"/>
</svg>
