<svg width="24" height="24" viewBox="0 0 24 24" fill="none" xmlns="http://www.w3.org/2000/svg">
<path d="M19.425 17.9062C19.075 18.0718 18.6594 18.0187 18.3594 17.7687L13 13.3031V16.9999C13 17.3874 12.775 17.7406 12.425 17.9062C12.075 18.0718 11.6594 18.0187 11.3594 17.7687L6 13.3031V16.9999C6 17.5531 5.55313 17.9999 5 17.9999C4.44687 17.9999 4 17.5531 4 16.9999V6.99994C4 6.44681 4.44687 5.99994 5 5.99994C5.55313 5.99994 6 6.44681 6 6.99994V10.6968L11.3594 6.23119C11.6562 5.98431 12.0719 5.92806 12.425 6.09369C12.7781 6.25931 13 6.61244 13 6.99994V10.6968L18.3594 6.23119C18.6562 5.98431 19.0719 5.92806 19.425 6.09369C19.7781 6.25931 20 6.61244 20 6.99994V16.9999C20 17.3874 19.775 17.7406 19.425 17.9062Z" fill="black"/>
</svg>
