<svg width="24" height="24" viewBox="0 0 24 24" fill="none" xmlns="http://www.w3.org/2000/svg">
<path d="M10.5969 4.08436C10.9656 4.27499 11.1062 4.72811 10.9156 5.09686L8.36562 9.99999H15.6344L13.0844 5.09686C12.8938 4.72811 13.0375 4.27499 13.4031 4.08436C13.7688 3.89374 14.2219 4.03749 14.4156 4.40311L17.325 9.99999H20C20.5531 9.99999 21 10.4469 21 11C21 11.5531 20.5531 12 20 12L18.3781 18.4844C18.1562 19.375 17.3562 20 16.4375 20H7.5625C6.64375 20 5.84375 19.375 5.62188 18.4844L4 12C3.44687 12 3 11.5531 3 11C3 10.4469 3.44687 9.99999 4 9.99999H6.675L9.58437 4.40311C9.775 4.03436 10.2281 3.89374 10.5969 4.08436ZM7.5 13.25C7.69891 13.25 7.88968 13.171 8.03033 13.0303C8.17098 12.8897 8.25 12.6989 8.25 12.5C8.25 12.3011 8.17098 12.1103 8.03033 11.9697C7.88968 11.829 7.69891 11.75 7.5 11.75C7.30109 11.75 7.11032 11.829 6.96967 11.9697C6.82902 12.1103 6.75 12.3011 6.75 12.5C6.75 12.6989 6.82902 12.8897 6.96967 13.0303C7.11032 13.171 7.30109 13.25 7.5 13.25ZM17.25 12.5C17.25 12.3011 17.171 12.1103 17.0303 11.9697C16.8897 11.829 16.6989 11.75 16.5 11.75C16.3011 11.75 16.1103 11.829 15.9697 11.9697C15.829 12.1103 15.75 12.3011 15.75 12.5C15.75 12.6989 15.829 12.8897 15.9697 13.0303C16.1103 13.171 16.3011 13.25 16.5 13.25C16.6989 13.25 16.8897 13.171 17.0303 13.0303C17.171 12.8897 17.25 12.6989 17.25 12.5Z" fill="black"/>
</svg>
