<svg width="24" height="24" viewBox="0 0 24 24" fill="none" xmlns="http://www.w3.org/2000/svg">
<path d="M16.7251 4.03678C17.0751 3.93678 17.4501 4.03365 17.7064 4.2899L19.1876 5.77115L18.3595 6.01803C16.547 6.53678 15.2939 7.25553 14.3095 8.12428C13.3345 8.98365 12.647 9.97115 11.9626 10.9649L11.8907 11.068C10.5501 13.0212 9.09386 15.143 5.27511 17.0524L4.18449 17.5993L3.29386 16.7055C3.06574 16.4774 2.96261 16.1555 3.01261 15.8368C3.06261 15.518 3.26574 15.2462 3.55324 15.1024C7.25324 13.2555 8.65324 11.218 9.97824 9.28991L10.0501 9.18365C10.7314 8.1899 11.4532 7.15553 12.4782 6.24928C13.522 5.3274 14.847 4.57428 16.7251 4.03678ZM4.93136 18.343L5.72511 17.9462C9.77199 15.9243 11.347 13.6305 12.7189 11.6337L12.7876 11.5305C13.4782 10.5274 14.1032 9.6399 14.972 8.87115C15.8314 8.11178 16.9532 7.45865 18.6376 6.9774L18.6439 6.97428L19.9907 6.57115L20.7095 7.2899C20.9595 7.5399 21.0595 7.90553 20.9689 8.24928C20.8782 8.59303 20.6157 8.86178 20.2751 8.95865C18.6532 9.42115 17.6001 10.043 16.8032 10.7462C15.9876 11.4649 15.3939 12.3055 14.7001 13.3118L14.6314 13.4118C13.2439 15.4337 11.6095 17.8118 7.44699 19.893C7.06261 20.0868 6.59699 20.0087 6.29386 19.7055L4.93136 18.343Z" fill="black"/>
</svg>
