<svg width="24" height="24" viewBox="0 0 24 24" fill="none" xmlns="http://www.w3.org/2000/svg">
<path d="M12.0843 4.1875C12.3437 4.375 12.4999 4.67813 12.4999 5V9H12.9999C13.5531 9 13.9999 9.44688 13.9999 10C13.9999 10.5531 13.5531 11 12.9999 11H11.4999H9.99994C9.44682 11 8.99994 10.5531 8.99994 10C8.99994 9.44688 9.44682 9 9.99994 9H10.4999V6.3875L10.3156 6.45C9.79057 6.625 9.22494 6.34063 9.04994 5.81875C8.87494 5.29688 9.15932 4.72813 9.68119 4.55313L11.1812 4.05313C11.4874 3.95 11.8249 4 12.0843 4.1875ZM5.08432 13.1875C5.34369 13.375 5.49994 13.6781 5.49994 14V18H5.99994C6.55307 18 6.99994 18.4469 6.99994 19C6.99994 19.5531 6.55307 20 5.99994 20H4.49994H2.99994C2.44682 20 1.99994 19.5531 1.99994 19C1.99994 18.4469 2.44682 18 2.99994 18H3.49994V15.3875L3.31557 15.45C2.79057 15.625 2.22494 15.3406 2.04994 14.8188C1.87494 14.2969 2.15932 13.7281 2.68119 13.5531L4.18119 13.0531C4.48744 12.95 4.82182 13.0031 5.08119 13.1906L5.08432 13.1875ZM3.99994 4H5.99994C7.10307 4 7.99994 4.89688 7.99994 6V9C7.99994 10.1031 7.10307 11 5.99994 11H3.99994C2.89682 11 1.99994 10.1031 1.99994 9V6C1.99994 4.89688 2.89682 4 3.99994 4ZM3.99994 6V9H5.99994V6H3.99994ZM7.99994 15C7.99994 13.8969 8.89682 13 9.99994 13H11.9999C12.1937 13 12.3812 13.0281 12.5593 13.0781C12.2093 13.7937 12.0093 14.5969 11.9999 15.4438V15H9.99994V18H11.9999H12.5999C12.8437 18.4781 13.1562 18.9156 13.5218 19.2969C13.1562 19.7281 12.6093 20 11.9999 20H9.99994C8.89682 20 7.99994 19.1031 7.99994 18V15ZM12.0218 16H11.9999V15.5562C11.9999 15.7062 12.0093 15.8531 12.0218 16ZM12.9999 15.5C12.9999 14.3065 13.474 13.1619 14.318 12.318C15.1619 11.4741 16.3065 11 17.4999 11C18.6934 11 19.838 11.4741 20.6819 12.318C21.5258 13.1619 21.9999 14.3065 21.9999 15.5C21.9999 16.6935 21.5258 17.8381 20.6819 18.682C19.838 19.5259 18.6934 20 17.4999 20C16.3065 20 15.1619 19.5259 14.318 18.682C13.474 17.8381 12.9999 16.6935 12.9999 15.5ZM19.6031 14.1469C19.4093 13.9531 19.0906 13.9531 18.8968 14.1469L16.9999 16.0437L16.1031 15.1469C15.9093 14.9531 15.5906 14.9531 15.3968 15.1469C15.2031 15.3406 15.2031 15.6594 15.3968 15.8531L16.6468 17.1031C16.8406 17.2969 17.1593 17.2969 17.3531 17.1031L19.6031 14.8531C19.7968 14.6594 19.7968 14.3406 19.6031 14.1469Z" fill="black"/>
</svg>
