<svg width="24" height="24" viewBox="0 0 24 24" fill="none" xmlns="http://www.w3.org/2000/svg">
<path d="M20.7062 5.70627C21.0969 5.31565 21.0969 4.68127 20.7062 4.29065C20.3156 3.90002 19.6812 3.90002 19.2906 4.29065L13.2906 10.2906L12.2063 9.20627C12.075 9.07502 11.8938 9.00002 11.7063 9.00002C11.3156 9.00002 11 9.31565 11 9.70627V10.6156L14.3844 14H15.2937C15.6844 14 16 13.6844 16 13.2938C16 13.1063 15.925 12.925 15.7937 12.7938L14.7094 11.7094L20.7094 5.7094L20.7062 5.70627ZM13.6594 15.0438L9.95625 11.3406C8.62188 11.225 7.29375 11.7063 6.3375 12.6625L6.0875 12.9125C5.39062 13.6094 5 14.5532 5 15.5375C5 15.75 5.22187 15.8875 5.4125 15.7938L7.00938 14.9969C7.16563 14.9188 7.30625 15.125 7.17812 15.2438L3.22813 18.7938C3.08438 18.925 3 19.1125 3 19.3094C3 19.6906 3.30938 20 3.69063 20H9.10625C10.3187 20 11.4781 19.5188 12.3375 18.6625C13.2937 17.7063 13.7719 16.3781 13.6594 15.0438Z" fill="black"/>
</svg>
