<svg width="24" height="24" viewBox="0 0 24 24" fill="none" xmlns="http://www.w3.org/2000/svg">
<path d="M8.55625 6.83128C9.01562 6.52503 9.14062 5.90316 8.83437 5.44378C8.52812 4.98441 7.90625 4.85941 7.44688 5.16566C6.24688 5.96566 4 8.38128 4 12C4 15.6188 6.24687 18.0313 7.44375 18.8313C7.90312 19.1375 8.525 19.0125 8.83125 18.5532C9.1375 18.0938 9.0125 17.4719 8.55312 17.1657C7.75312 16.6344 6 14.7813 6 12C6 9.21878 7.75313 7.36566 8.55625 6.83128ZM15.4469 6.83128C16.2469 7.36566 18 9.21878 18 12C18 14.7813 16.2469 16.6344 15.4438 17.1688C14.9844 17.475 14.8594 18.0969 15.1656 18.5563C15.4719 19.0157 16.0938 19.1407 16.5531 18.8344C17.7531 18.0344 20 15.6188 20 12C20 8.38128 17.7531 5.96566 16.5562 5.16878C16.0969 4.86253 15.475 4.98753 15.1687 5.44691C14.8625 5.90628 14.9875 6.52816 15.4469 6.83441V6.83128Z" fill="black"/>
</svg>
