<svg width="24" height="24" viewBox="0 0 24 24" fill="none" xmlns="http://www.w3.org/2000/svg">
<path d="M9.99995 8C9.99995 6.34375 11.3437 5 13 5H14C14.5531 5 15 5.44687 15 6C15 6.55313 14.5531 7 14 7H13C12.4468 7 12 7.44688 12 8V9.17188C12 9.96875 11.6843 10.7312 11.1218 11.2937L10.4156 12L11.1218 12.7063C11.6843 13.2688 12 14.0312 12 14.8281V16C12 16.5531 12.4468 17 13 17H14C14.5531 17 15 17.4469 15 18C15 18.5531 14.5531 19 14 19H13C11.3437 19 9.99995 17.6562 9.99995 16V14.8281C9.99995 14.5625 9.8937 14.3094 9.7062 14.1219L8.2937 12.7063C7.90308 12.3156 7.90308 11.6813 8.2937 11.2906L9.70933 9.875C9.89683 9.6875 10.0031 9.43437 10.0031 9.16875V8H9.99995Z" fill="black"/>
</svg>
