<svg width="24" height="24" viewBox="0 0 24 24" fill="none" xmlns="http://www.w3.org/2000/svg">
<path d="M12.0844 4.18753C11.825 4.00003 11.4875 3.94691 11.1844 4.05003L9.68437 4.55003C9.15937 4.72503 8.87812 5.29066 9.05312 5.81566C9.22812 6.34066 9.79375 6.62191 10.3188 6.44691L10.5031 6.38441V9.00003H10C9.44687 9.00003 9 9.44691 9 10C9 10.5532 9.44687 11 10 11H11.5H13C13.5531 11 14 10.5532 14 10C14 9.44691 13.5531 9.00003 13 9.00003H12.5V5.00003C12.5 4.67816 12.3469 4.37816 12.0844 4.18753ZM5.08437 13.1875C4.825 13 4.4875 12.9469 4.18438 13.05L2.68437 13.55C2.15938 13.725 1.87813 14.2938 2.05313 14.8157C2.22812 15.3375 2.79375 15.6219 3.31875 15.4469L3.50312 15.3844V18H3C2.44687 18 2 18.4469 2 19C2 19.5532 2.44687 20 3 20H4.5H6C6.55313 20 7 19.5532 7 19C7 18.4469 6.55313 18 6 18H5.5V14C5.5 13.6782 5.34687 13.3782 5.08437 13.1875ZM4 4.00003C2.89688 4.00003 2 4.89691 2 6.00003V9.00003C2 10.1032 2.89688 11 4 11H6C7.10312 11 8 10.1032 8 9.00003V6.00003C8 4.89691 7.10312 4.00003 6 4.00003H4ZM4 6.00003H6V9.00003H4V6.00003ZM8 15V18C8 19.1032 8.89688 20 10 20H12C13.1031 20 14 19.1032 14 18V15C14 13.8969 13.1031 13 12 13H10C8.89688 13 8 13.8969 8 15ZM12 15V18H10V15H12ZM18.5 11.5C19.0531 11.5 19.5 11.9469 19.5 12.5V14H17.5V12.5C17.5 11.9469 17.9469 11.5 18.5 11.5ZM16 12.5V14C15.4469 14 15 14.4469 15 15V19C15 19.5532 15.4469 20 16 20H21C21.5531 20 22 19.5532 22 19V15C22 14.4469 21.5531 14 21 14V12.5C21 11.1188 19.8813 10 18.5 10C17.1187 10 16 11.1188 16 12.5Z" fill="black"/>
</svg>
