<svg width="24" height="24" viewBox="0 0 24 24" fill="none" xmlns="http://www.w3.org/2000/svg">
<path d="M6 12L6.89062 4.875C6.95312 4.375 7.37812 4 7.88437 4H13.1531C13.6219 4 14 4.37813 14 4.84688C14 4.94688 13.9813 5.05 13.9469 5.14375L12.5 9H16.8531C17.4844 9 18 9.5125 18 10.1469C18 10.3781 17.9313 10.6031 17.8 10.7937L11.7937 19.575C11.6094 19.8437 11.3063 20.0031 10.9844 20.0031H10.8938C10.4031 20.0031 10.0031 19.6031 10.0031 19.1125C10.0031 19.0406 10.0125 18.9688 10.0312 18.8969L11.5 13H7C6.44687 13 6 12.5531 6 12Z" fill="black"/>
</svg>
