<svg width="24" height="24" viewBox="0 0 24 24" fill="none" xmlns="http://www.w3.org/2000/svg">
<path d="M5.75 5.5H18.25C18.9406 5.5 19.5 6.05938 19.5 6.75V9H16C16 8.44688 15.5531 8 15 8C14.4469 8 14 8.44688 14 9H13C13 8.44688 12.5531 8 12 8C11.4469 8 11 8.44688 11 9H10C10 8.44688 9.55312 8 9 8C8.44688 8 8 8.44688 8 9H4.5V6.75C4.5 6.05938 5.05938 5.5 5.75 5.5ZM21 9.26875V6.75C21 5.23125 19.7687 4 18.25 4H5.75C4.23125 4 3 5.23125 3 6.75V9.26875C2.40312 9.6125 2 10.2594 2 11V18C2 19.1031 2.89688 20 4 20H20C21.1031 20 22 19.1031 22 18V11C22 10.2594 21.5969 9.6125 21 9.26875ZM10 14.5C10 13.837 9.73661 13.2011 9.26777 12.7322C8.79893 12.2634 8.16304 12 7.5 12C6.83696 12 6.20107 12.2634 5.73223 12.7322C5.26339 13.2011 5 13.837 5 14.5C5 15.163 5.26339 15.7989 5.73223 16.2678C6.20107 16.7366 6.83696 17 7.5 17C8.16304 17 8.79893 16.7366 9.26777 16.2678C9.73661 15.7989 10 15.163 10 14.5ZM4 14.5C4 14.0404 4.09053 13.5852 4.26642 13.1606C4.44231 12.736 4.70012 12.3501 5.02513 12.0251C5.35013 11.7001 5.73597 11.4423 6.16061 11.2664C6.58525 11.0905 7.04037 11 7.5 11C7.95963 11 8.41475 11.0905 8.83939 11.2664C9.26403 11.4423 9.64987 11.7001 9.97487 12.0251C10.2999 12.3501 10.5577 12.736 10.7336 13.1606C10.9095 13.5852 11 14.0404 11 14.5C11 14.9596 10.9095 15.4148 10.7336 15.8394C10.5577 16.264 10.2999 16.6499 9.97487 16.9749C9.64987 17.2999 9.26403 17.5577 8.83939 17.7336C8.41475 17.9095 7.95963 18 7.5 18C7.04037 18 6.58525 17.9095 6.16061 17.7336C5.73597 17.5577 5.35013 17.2999 5.02513 16.9749C4.70012 16.6499 4.44231 16.264 4.26642 15.8394C4.09053 15.4148 4 14.9596 4 14.5ZM16.5 17C17.163 17 17.7989 16.7366 18.2678 16.2678C18.7366 15.7989 19 15.163 19 14.5C19 13.837 18.7366 13.2011 18.2678 12.7322C17.7989 12.2634 17.163 12 16.5 12C15.837 12 15.2011 12.2634 14.7322 12.7322C14.2634 13.2011 14 13.837 14 14.5C14 15.163 14.2634 15.7989 14.7322 16.2678C15.2011 16.7366 15.837 17 16.5 17ZM16.5 11C17.4283 11 18.3185 11.3687 18.9749 12.0251C19.6313 12.6815 20 13.5717 20 14.5C20 15.4283 19.6313 16.3185 18.9749 16.9749C18.3185 17.6313 17.4283 18 16.5 18C15.5717 18 14.6815 17.6313 14.0251 16.9749C13.3687 16.3185 13 15.4283 13 14.5C13 13.5717 13.3687 12.6815 14.0251 12.0251C14.6815 11.3687 15.5717 11 16.5 11Z" fill="black"/>
</svg>
