<svg width="24" height="24" viewBox="0 0 24 24" fill="none" xmlns="http://www.w3.org/2000/svg">
<path d="M11 6.5C11 6.23478 11.1054 5.98043 11.2929 5.79289C11.4804 5.60536 11.7348 5.5 12 5.5C12.2652 5.5 12.5196 5.60536 12.7071 5.79289C12.8946 5.98043 13 6.23478 13 6.5C13 6.76522 12.8946 7.01957 12.7071 7.20711C12.5196 7.39464 12.2652 7.5 12 7.5C11.7348 7.5 11.4804 7.39464 11.2929 7.20711C11.1054 7.01957 11 6.76522 11 6.5ZM9 12C9 11.2044 9.31607 10.4413 9.87868 9.87868C10.4413 9.31607 11.2044 9 12 9C12.7956 9 13.5587 9.31607 14.1213 9.87868C14.6839 10.4413 15 11.2044 15 12C15 12.7956 14.6839 13.5587 14.1213 14.1213C13.5587 14.6839 12.7956 15 12 15C11.2044 15 10.4413 14.6839 9.87868 14.1213C9.31607 13.5587 9 12.7956 9 12ZM12 16.5C12.2652 16.5 12.5196 16.6054 12.7071 16.7929C12.8946 16.9804 13 17.2348 13 17.5C13 17.7652 12.8946 18.0196 12.7071 18.2071C12.5196 18.3946 12.2652 18.5 12 18.5C11.7348 18.5 11.4804 18.3946 11.2929 18.2071C11.1054 18.0196 11 17.7652 11 17.5C11 17.2348 11.1054 16.9804 11.2929 16.7929C11.4804 16.6054 11.7348 16.5 12 16.5ZM17.5 11C17.7652 11 18.0196 11.1054 18.2071 11.2929C18.3946 11.4804 18.5 11.7348 18.5 12C18.5 12.2652 18.3946 12.5196 18.2071 12.7071C18.0196 12.8946 17.7652 13 17.5 13C17.2348 13 16.9804 12.8946 16.7929 12.7071C16.6054 12.5196 16.5 12.2652 16.5 12C16.5 11.7348 16.6054 11.4804 16.7929 11.2929C16.9804 11.1054 17.2348 11 17.5 11ZM7.5 12C7.5 12.2652 7.39464 12.5196 7.20711 12.7071C7.01957 12.8946 6.76522 13 6.5 13C6.23478 13 5.98043 12.8946 5.79289 12.7071C5.60536 12.5196 5.5 12.2652 5.5 12C5.5 11.7348 5.60536 11.4804 5.79289 11.2929C5.98043 11.1054 6.23478 11 6.5 11C6.76522 11 7.01957 11.1054 7.20711 11.2929C7.39464 11.4804 7.5 11.7348 7.5 12ZM7 8C7 7.73478 7.10536 7.48043 7.29289 7.29289C7.48043 7.10536 7.73478 7 8 7C8.26522 7 8.51957 7.10536 8.70711 7.29289C8.89464 7.48043 9 7.73478 9 8C9 8.26522 8.89464 8.51957 8.70711 8.70711C8.51957 8.89464 8.26522 9 8 9C7.73478 9 7.48043 8.89464 7.29289 8.70711C7.10536 8.51957 7 8.26522 7 8ZM15 16C15 15.7348 15.1054 15.4804 15.2929 15.2929C15.4804 15.1054 15.7348 15 16 15C16.2652 15 16.5196 15.1054 16.7071 15.2929C16.8946 15.4804 17 15.7348 17 16C17 16.2652 16.8946 16.5196 16.7071 16.7071C16.5196 16.8946 16.2652 17 16 17C15.7348 17 15.4804 16.8946 15.2929 16.7071C15.1054 16.5196 15 16.2652 15 16ZM15 8C15 7.73478 15.1054 7.48043 15.2929 7.29289C15.4804 7.10536 15.7348 7 16 7C16.2652 7 16.5196 7.10536 16.7071 7.29289C16.8946 7.48043 17 7.73478 17 8C17 8.26522 16.8946 8.51957 16.7071 8.70711C16.5196 8.89464 16.2652 9 16 9C15.7348 9 15.4804 8.89464 15.2929 8.70711C15.1054 8.51957 15 8.26522 15 8ZM9 16C9 16.2652 8.89464 16.5196 8.70711 16.7071C8.51957 16.8946 8.26522 17 8 17C7.73478 17 7.48043 16.8946 7.29289 16.7071C7.10536 16.5196 7 16.2652 7 16C7 15.7348 7.10536 15.4804 7.29289 15.2929C7.48043 15.1054 7.73478 15 8 15C8.26522 15 8.51957 15.1054 8.70711 15.2929C8.89464 15.4804 9 15.7348 9 16Z" fill="black"/>
</svg>
