<svg width="24" height="24" viewBox="0 0 24 24" fill="none" xmlns="http://www.w3.org/2000/svg">
<path d="M11 5.5H13C13.1375 5.5 13.25 5.6125 13.25 5.75V7H10.75V5.75C10.75 5.6125 10.8625 5.5 11 5.5ZM9.25 5.75V7H9C6.79063 7 5 8.79063 5 11V18C5 19.1031 5.89688 20 7 20V16.5V15C7 13.8969 7.89688 13 9 13H15C16.1031 13 17 13.8969 17 15V16.5V20C18.1031 20 19 19.1031 19 18V11C19 8.79063 17.2094 7 15 7H14.75V5.75C14.75 4.78438 13.9656 4 13 4H11C10.0344 4 9.25 4.78438 9.25 5.75ZM16 20V17H8V20H16ZM9.5 9.5H14.5C14.775 9.5 15 9.725 15 10C15 10.275 14.775 10.5 14.5 10.5H9.5C9.225 10.5 9 10.275 9 10C9 9.725 9.225 9.5 9.5 9.5ZM16 16V15C16 14.4469 15.5531 14 15 14H9C8.44687 14 8 14.4469 8 15V16H16Z" fill="black"/>
</svg>
