<svg width="24" height="24" viewBox="0 0 24 24" fill="none" xmlns="http://www.w3.org/2000/svg">
<path d="M15.9188 5.39403C16.1032 4.96591 15.9657 4.46591 15.5876 4.19091C15.2094 3.91591 14.6938 3.94091 14.3407 4.24716L6.3407 11.2472C6.0282 11.5222 5.9157 11.9628 6.06257 12.3503C6.20945 12.7378 6.58445 13.0003 7.00007 13.0003H10.4844L8.08132 18.6065C7.89695 19.0347 8.03445 19.5347 8.41257 19.8097C8.7907 20.0847 9.30632 20.0597 9.65945 19.7534L17.6594 12.7534C17.9719 12.4784 18.0844 12.0378 17.9376 11.6503C17.7907 11.2628 17.4188 11.0034 17.0001 11.0034H13.5157L15.9188 5.39403Z" fill="black"/>
</svg>
