<svg width="24" height="24" viewBox="0 0 24 24" fill="none" xmlns="http://www.w3.org/2000/svg">
<path d="M16 5H15C14.4469 5 14 5.44687 14 6C14 6.55313 14.4469 7 15 7H16C16.5531 7 17 7.44687 17 8V9.17188C17 9.96875 17.3156 10.7312 17.8781 11.2937L18.5844 12L17.8781 12.7063C17.3156 13.2688 17 14.0312 17 14.8281V16C17 16.5531 16.5531 17 16 17H15C14.4469 17 14 17.4469 14 18C14 18.5531 14.4469 19 15 19H16C17.6562 19 19 17.6562 19 16V14.8281C19 14.5625 19.1062 14.3094 19.2937 14.1219L20.7094 12.7063C21.1 12.3156 21.1 11.6813 20.7094 11.2906L19.2937 9.875C19.1062 9.6875 19 9.43437 19 9.16875V8C19 6.34375 17.6562 5 16 5ZM8 5C6.34375 5 5 6.34375 5 8V9.17188C5 9.4375 4.89375 9.69063 4.70625 9.87813L3.29375 11.2937C2.90312 11.6844 2.90312 12.3188 3.29375 12.7094L4.70937 14.125C4.89687 14.3125 5.00312 14.5656 5.00312 14.8313V16C5.00312 17.6562 6.34687 19 8.00312 19H9.00312C9.55625 19 10.0031 18.5531 10.0031 18C10.0031 17.4469 9.55625 17 9.00312 17H8C7.44687 17 7 16.5531 7 16V14.8281C7 14.0312 6.68437 13.2688 6.12187 12.7063L5.41562 12L6.12187 11.2937C6.68437 10.7312 7 9.96875 7 9.17188V8C7 7.44687 7.44687 7 8 7H9C9.55312 7 10 6.55313 10 6C10 5.44687 9.55312 5 9 5H8Z" fill="black"/>
</svg>
