<svg width="24" height="24" viewBox="0 0 24 24" fill="none" xmlns="http://www.w3.org/2000/svg">
<path d="M3.21268 4.15937C2.88768 3.90312 2.4158 3.96249 2.15955 4.28749C1.9033 4.61249 1.96268 5.08437 2.28768 5.34062L20.7877 19.8406C21.1127 20.0969 21.5846 20.0375 21.8408 19.7125C22.0971 19.3875 22.0377 18.9156 21.7127 18.6594L18.0002 15.75V5.49999C18.0002 4.67187 17.3283 3.99999 16.5002 3.99999H7.50018C6.67205 3.99999 6.00018 4.67187 6.00018 5.49999V6.34374L3.21268 4.15937ZM17.9314 19.5531L6.00018 10.15V19.2406C6.00018 19.6594 6.3408 20 6.75955 20C6.9158 20 7.06893 19.9531 7.19705 19.8625L12.0002 16.5L16.8033 19.8625C16.9314 19.9531 17.0846 20 17.2408 20C17.5502 20 17.8158 19.8156 17.9346 19.5531H17.9314Z" fill="black"/>
</svg>
