<svg width="24" height="24" viewBox="0 0 24 24" fill="none" xmlns="http://www.w3.org/2000/svg">
<path d="M13.9062 6C12.7812 6 11.5187 6.49375 10.5062 7.50625C9.4937 8.51875 8.99995 9.77813 8.99995 10.9062C8.99995 11.7875 9.29995 12.5687 9.86558 13.1344C11.1281 14.3969 13.6375 14.35 15.4937 12.4937C16.5062 11.4812 17 10.2219 17 9.09375C17 8.2125 16.7 7.43125 16.1343 6.86562C15.5687 6.3 14.7843 6 13.9062 6ZM9.0937 6.09063C10.4531 4.73125 12.2125 4 13.9062 4C15.2437 4 16.5593 4.4625 17.55 5.45312C18.5406 6.44375 19 7.75625 19 9.09375C19 10.7875 18.2687 12.5469 16.9093 13.9062C15.2093 15.6063 12.7875 16.3656 10.7156 15.8344C9.79683 15.6 8.74995 15.6625 8.0812 16.3344L7.63433 16.7812C7.83433 17.1594 7.77495 17.6375 7.45933 17.9563L5.70933 19.7063C5.3187 20.0969 4.68433 20.0969 4.2937 19.7063L3.2937 18.7063C2.90308 18.3156 2.90308 17.6812 3.2937 17.2906L5.0437 15.5406C5.36245 15.2219 5.84058 15.1625 6.2187 15.3656L6.67183 14.9125C7.34058 14.2438 7.4062 13.2031 7.17183 12.2875C7.0562 11.8406 6.99995 11.375 6.99995 10.9062C6.99995 9.2125 7.7312 7.45312 9.09058 6.09375L9.0937 6.09063ZM17.5 16.5C17.5 15.6719 18.1718 15 19 15C19.8281 15 20.5 15.6719 20.5 16.5V17.5H17.5V16.5ZM17.0218 19.3562L17.4281 18H18.4718L17.9781 19.6438C17.9 19.9094 17.6187 20.0594 17.3562 19.9781C17.0937 19.8969 16.9406 19.6187 17.0218 19.3562ZM18.5 19.5V18H19.5V19.5C19.5 19.775 19.275 20 19 20C18.725 20 18.5 19.775 18.5 19.5ZM20.0218 19.6438L19.5281 18H20.5718L20.9781 19.3562C21.0562 19.6219 20.9062 19.9 20.6437 19.9781C20.3812 20.0562 20.1 19.9063 20.0218 19.6438Z" fill="black"/>
</svg>
