<svg width="24" height="24" viewBox="0 0 24 24" fill="none" xmlns="http://www.w3.org/2000/svg">
<path d="M10 8C10 6.34375 11.3438 5 13 5H14C14.5531 5 15 5.44687 15 6C15 6.55313 14.5531 7 14 7H13C12.4469 7 12 7.44688 12 8V9.17188C12 9.96875 11.6844 10.7312 11.1219 11.2937L10.4156 12L11.1219 12.7063C11.6844 13.2688 12 14.0312 12 14.8281V16C12 16.5531 12.4469 17 13 17H14C14.5531 17 15 17.4469 15 18C15 18.5531 14.5531 19 14 19H13C11.3438 19 10 17.6562 10 16V14.8281C10 14.5625 9.89376 14.3094 9.70626 14.1219L8.29376 12.7063C7.90314 12.3156 7.90314 11.6813 8.29376 11.2906L9.70939 9.875C9.89689 9.6875 10.0031 9.43437 10.0031 9.16875V8H10Z" fill="black"/>
</svg>
