<svg width="24" height="24" viewBox="0 0 24 24" fill="none" xmlns="http://www.w3.org/2000/svg">
<path d="M5 7V10H8.88125L7.38125 7H5ZM9.17188 6.10625L11.1187 10H12V8C12 7.44688 12.4469 7 13 7C13.5531 7 14 7.44688 14 8V10H15C15.5531 10 16 10.4469 16 11V13H18V11.7C18 11.0187 18.2313 10.3594 18.6562 9.825L20.2188 7.875C20.5625 7.44375 21.1938 7.375 21.625 7.71875C22.0562 8.0625 22.125 8.69375 21.7812 9.125L20.2188 11.0781C20.0781 11.2562 20 11.475 20 11.7031V14V16.1719C20 16.4375 20.1063 16.6906 20.2938 16.8781L21.7094 18.2937C22.1 18.6844 22.1 19.3188 21.7094 19.7094C21.3188 20.1 20.6844 20.1 20.2938 19.7094L18.8781 18.2937C18.3156 17.7312 18 16.9688 18 16.1719V15H16.6625C16.8781 15.4531 17 15.9625 17 16.5C17 18.4344 15.4344 20 13.5 20H5.5C3.56562 20 2 18.4344 2 16.5C2 15.5469 2.38125 14.6813 3 14.05C3 14.0344 3 14.0188 3 14V12V11V6.5C3 5.67188 3.67188 5 4.5 5H7.38125C8.1375 5 8.83125 5.42813 9.16875 6.10625H9.17188ZM5.5 15C4.67188 15 4 15.6719 4 16.5C4 17.3281 4.67188 18 5.5 18H13.5C14.3281 18 15 17.3281 15 16.5C15 15.6719 14.3281 15 13.5 15H5.5ZM5.75 15.75C5.84849 15.75 5.94602 15.7694 6.03701 15.8071C6.12801 15.8448 6.21069 15.9 6.28033 15.9697C6.34997 16.0393 6.40522 16.122 6.44291 16.213C6.4806 16.304 6.5 16.4015 6.5 16.5C6.5 16.5985 6.4806 16.696 6.44291 16.787C6.40522 16.878 6.34997 16.9607 6.28033 17.0303C6.21069 17.1 6.12801 17.1552 6.03701 17.1929C5.94602 17.2306 5.84849 17.25 5.75 17.25C5.65151 17.25 5.55398 17.2306 5.46299 17.1929C5.37199 17.1552 5.28931 17.1 5.21967 17.0303C5.15003 16.9607 5.09478 16.878 5.05709 16.787C5.0194 16.696 5 16.5985 5 16.5C5 16.4015 5.0194 16.304 5.05709 16.213C5.09478 16.122 5.15003 16.0393 5.21967 15.9697C5.28931 15.9 5.37199 15.8448 5.46299 15.8071C5.55398 15.7694 5.65151 15.75 5.75 15.75ZM12.5 16.5C12.5 16.3011 12.579 16.1103 12.7197 15.9697C12.8603 15.829 13.0511 15.75 13.25 15.75C13.4489 15.75 13.6397 15.829 13.7803 15.9697C13.921 16.1103 14 16.3011 14 16.5C14 16.6989 13.921 16.8897 13.7803 17.0303C13.6397 17.171 13.4489 17.25 13.25 17.25C13.0511 17.25 12.8603 17.171 12.7197 17.0303C12.579 16.8897 12.5 16.6989 12.5 16.5ZM10.75 15.75C10.8485 15.75 10.946 15.7694 11.037 15.8071C11.128 15.8448 11.2107 15.9 11.2803 15.9697C11.35 16.0393 11.4052 16.122 11.4429 16.213C11.4806 16.304 11.5 16.4015 11.5 16.5C11.5 16.5985 11.4806 16.696 11.4429 16.787C11.4052 16.878 11.35 16.9607 11.2803 17.0303C11.2107 17.1 11.128 17.1552 11.037 17.1929C10.946 17.2306 10.8485 17.25 10.75 17.25C10.6515 17.25 10.554 17.2306 10.463 17.1929C10.372 17.1552 10.2893 17.1 10.2197 17.0303C10.15 16.9607 10.0948 16.878 10.0571 16.787C10.0194 16.696 10 16.5985 10 16.5C10 16.4015 10.0194 16.304 10.0571 16.213C10.0948 16.122 10.15 16.0393 10.2197 15.9697C10.2893 15.9 10.372 15.8448 10.463 15.8071C10.554 15.7694 10.6515 15.75 10.75 15.75ZM7.5 16.5C7.5 16.4015 7.5194 16.304 7.55709 16.213C7.59478 16.122 7.65003 16.0393 7.71967 15.9697C7.78931 15.9 7.87199 15.8448 7.96299 15.8071C8.05398 15.7694 8.15151 15.75 8.25 15.75C8.34849 15.75 8.44602 15.7694 8.53701 15.8071C8.62801 15.8448 8.71069 15.9 8.78033 15.9697C8.84997 16.0393 8.90522 16.122 8.94291 16.213C8.9806 16.304 9 16.4015 9 16.5C9 16.5985 8.9806 16.696 8.94291 16.787C8.90522 16.878 8.84997 16.9607 8.78033 17.0303C8.71069 17.1 8.62801 17.1552 8.53701 17.1929C8.44602 17.2306 8.34849 17.25 8.25 17.25C8.15151 17.25 8.05398 17.2306 7.96299 17.1929C7.87199 17.1552 7.78931 17.1 7.71967 17.0303C7.65003 16.9607 7.59478 16.878 7.55709 16.787C7.5194 16.696 7.5 16.5985 7.5 16.5Z" fill="black"/>
</svg>
