<svg width="24" height="24" viewBox="0 0 24 24" fill="none" xmlns="http://www.w3.org/2000/svg">
<path d="M5 4C3.34375 4 2 5.34375 2 7V17C2 18.6562 3.34375 20 5 20H14H15C15.5531 20 16 19.5531 16 19C16 18.4469 15.5531 18 15 18V16C15.5531 16 16 15.5531 16 15V11.25H19.4406L18.2219 12.4688C17.9281 12.7625 17.9281 13.2375 18.2219 13.5281C18.5156 13.8187 18.9906 13.8219 19.2812 13.5281L21.7812 11.0281C22.075 10.7344 22.075 10.2594 21.7812 9.96875L19.2812 7.46875C18.9875 7.175 18.5125 7.175 18.2219 7.46875C17.9312 7.7625 17.9281 8.2375 18.2219 8.52812L19.4406 9.74687H16V5C16 4.44687 15.5531 4 15 4H14H5ZM16 9.75V11.25H9.75C9.33437 11.25 9 10.9156 9 10.5C9 10.0844 9.33437 9.75 9.75 9.75H16ZM5 16H13V18H5C4.44688 18 4 17.5531 4 17C4 16.4469 4.44688 16 5 16Z" fill="black"/>
</svg>
