<svg width="24" height="24" viewBox="0 0 24 24" fill="none" xmlns="http://www.w3.org/2000/svg">
<path d="M20.7062 4.29377C21.0969 4.6844 21.0969 5.31877 20.7062 5.7094L14.7063 11.7094L15.7906 12.7938C15.9219 12.925 15.9969 13.1063 15.9969 13.2938C15.9969 13.6844 15.6812 14 15.2906 14H14.3844L11 10.6156V9.70627C11 9.31565 11.3156 9.00002 11.7063 9.00002C11.8938 9.00002 12.075 9.07502 12.2063 9.20627L13.2906 10.2906L19.2906 4.29065C19.6812 3.90002 20.3156 3.90002 20.7062 4.29065V4.29377ZM9.95625 11.3406L13.6594 15.0438C13.775 16.3781 13.2937 17.7063 12.3375 18.6625C11.4812 19.5188 10.3187 20 9.10938 20H3.69063C3.30938 20 3 19.6906 3 19.3094C3 19.1125 3.08438 18.925 3.22813 18.7938L7.17812 15.2407C7.30937 15.125 7.16563 14.9156 7.00938 14.9938L5.4125 15.7938C5.22187 15.8875 5 15.75 5 15.5375C5 14.5532 5.39062 13.6094 6.0875 12.9125L6.3375 12.6625C7.29375 11.7063 8.62188 11.2281 9.95625 11.3406ZM17.5 15C18.163 15 18.7989 15.2634 19.2678 15.7323C19.7366 16.2011 20 16.837 20 17.5C20 18.1631 19.7366 18.799 19.2678 19.2678C18.7989 19.7366 18.163 20 17.5 20C16.837 20 16.2011 19.7366 15.7322 19.2678C15.2634 18.799 15 18.1631 15 17.5C15 16.837 15.2634 16.2011 15.7322 15.7323C16.2011 15.2634 16.837 15 17.5 15Z" fill="black"/>
</svg>
