<svg width="24" height="24" viewBox="0 0 24 24" fill="none" xmlns="http://www.w3.org/2000/svg">
<path d="M3.21255 4.15937C2.88755 3.90312 2.41568 3.96249 2.15943 4.28749C1.90318 4.61249 1.96255 5.08437 2.28755 5.34062L20.7876 19.8406C21.1126 20.0969 21.5844 20.0375 21.8407 19.7125C22.0969 19.3875 22.0376 18.9156 21.7126 18.6594L18.8938 16.45C18.9001 16.4375 18.9063 16.4219 18.9126 16.4094C19.0751 16.05 19.0094 15.6281 18.7469 15.3344L18.5157 15.075C17.5407 13.975 17.0001 12.5594 17.0001 11.0875V10.5C17.0001 8.08124 15.2813 6.06249 13.0001 5.59999V4.99999C13.0001 4.44687 12.5532 3.99999 12.0001 3.99999C11.4469 3.99999 11.0001 4.44687 11.0001 4.99999V5.59999C9.6688 5.86874 8.5313 6.66874 7.81255 7.76562L3.21255 4.15937ZM14.6938 17L7.00005 10.9406V11.0906C7.00005 12.5594 6.45943 13.9781 5.48443 15.0781L5.25318 15.3375C4.99068 15.6312 4.92818 16.0531 5.08755 16.4125C5.24693 16.7719 5.6063 17 6.00005 17H14.6938ZM13.4157 19.4156C13.7907 19.0406 14.0001 18.5312 14.0001 18H12.0001H10.0001C10.0001 18.5312 10.2094 19.0406 10.5844 19.4156C10.9594 19.7906 11.4688 20 12.0001 20C12.5313 20 13.0407 19.7906 13.4157 19.4156Z" fill="black"/>
</svg>
