<svg width="24" height="24" viewBox="0 0 24 24" fill="none" xmlns="http://www.w3.org/2000/svg">
<path d="M3.21243 4.15955C2.88743 3.9033 2.41556 3.96268 2.15931 4.28768C1.90306 4.61268 1.96243 5.08455 2.28743 5.3408L20.7874 19.8408C21.1124 20.097 21.5843 20.0377 21.8406 19.7127C22.0968 19.3877 22.0374 18.9158 21.7124 18.6596L16.9187 14.9033C16.9718 14.6096 16.9999 14.3096 16.9999 14.0002H18.9999C19.5531 14.0002 19.9999 13.5533 19.9999 13.0002C19.9999 12.4471 19.5531 12.0002 18.9999 12.0002H16.9906C16.9562 11.5596 16.8343 11.1408 16.6437 10.7658C16.6656 10.7471 16.6874 10.7283 16.7093 10.7064L18.7093 8.70643C19.0999 8.3158 19.0999 7.68143 18.7093 7.2908C18.3187 6.90018 17.6843 6.90018 17.2937 7.2908L15.2937 9.2908C15.2718 9.31268 15.2531 9.33455 15.2343 9.35643C14.7874 9.1283 14.2843 9.00018 13.7499 9.00018H10.2499C9.99056 9.00018 9.74056 9.03143 9.49993 9.08768L3.21243 4.15955ZM15.4624 17.6064L12.4999 15.2721V18.9752C13.6437 18.8627 14.6781 18.3627 15.4624 17.6064ZM7.20931 11.1033C7.10306 11.3846 7.03431 11.6877 7.00931 12.0002H4.99993C4.44681 12.0002 3.99993 12.4471 3.99993 13.0002C3.99993 13.5533 4.44681 14.0002 4.99993 14.0002H6.99993C6.99993 14.7689 7.17181 15.4939 7.48118 16.1439C7.41243 16.1846 7.34993 16.2346 7.29368 16.2939L5.29368 18.2939C4.90306 18.6846 4.90306 19.3189 5.29368 19.7096C5.68431 20.1002 6.31868 20.1002 6.70931 19.7096L8.68118 17.7377C9.44681 18.4189 10.4249 18.8689 11.5031 18.9752V14.4846L7.20931 11.1033ZM11.9999 4.00018C10.3437 4.00018 8.99993 5.34393 8.99993 7.00018V7.11268C8.99993 7.6033 9.39681 8.00018 9.88743 8.00018H14.1124C14.6031 8.00018 14.9999 7.6033 14.9999 7.11268V7.00018C14.9999 5.34393 13.6562 4.00018 11.9999 4.00018Z" fill="black"/>
</svg>
