<svg width="24" height="24" viewBox="0 0 24 24" fill="none" xmlns="http://www.w3.org/2000/svg">
<path d="M12 4C11.4469 4 11 4.44687 11 5V5.6C8.71875 6.0625 7 8.08125 7 10.5V11.0875C7 12.5563 6.45938 13.975 5.48438 15.075L5.25312 15.3344C4.99062 15.6281 4.92812 16.05 5.0875 16.4094C5.24687 16.7688 5.60625 17 6 17H18C18.3938 17 18.75 16.7688 18.9125 16.4094C19.075 16.05 19.0094 15.6281 18.7469 15.3344L18.5156 15.075C17.5406 13.975 17 12.5594 17 11.0875V10.5C17 8.08125 15.2812 6.0625 13 5.6V5C13 4.44687 12.5531 4 12 4ZM13.4156 19.4156C13.7906 19.0406 14 18.5312 14 18H12H10C10 18.5312 10.2094 19.0406 10.5844 19.4156C10.9594 19.7906 11.4688 20 12 20C12.5312 20 13.0406 19.7906 13.4156 19.4156ZM7.54375 4.48125C7.25938 4.18125 6.78438 4.16875 6.48438 4.45625C4.95312 5.9125 4 7.97187 4 10.25C4 10.6656 4.33437 11 4.75 11C5.16563 11 5.5 10.6656 5.5 10.25C5.5 8.39688 6.275 6.72813 7.51875 5.54375C7.81875 5.25938 7.83125 4.78438 7.54375 4.48438V4.48125ZM16.4812 5.54375C17.725 6.72813 18.5 8.39688 18.5 10.25C18.5 10.6656 18.8344 11 19.25 11C19.6656 11 20 10.6656 20 10.25C20 7.97187 19.0469 5.9125 17.5188 4.45625C17.2188 4.17188 16.7438 4.18125 16.4594 4.48125C16.175 4.78125 16.1844 5.25625 16.4844 5.54062L16.4812 5.54375Z" fill="black"/>
</svg>
