<svg width="24" height="24" viewBox="0 0 24 24" fill="none" xmlns="http://www.w3.org/2000/svg">
<path d="M11.5 4C10.9469 4 10.5 4.44687 10.5 5V6H8.175C7.525 6 7 6.525 7 7.175V11V12.3031V13V16.6969C7 17.4156 7.58438 18 8.30313 18H10.5V19C10.5 19.5531 10.9469 20 11.5 20C12.0531 20 12.5 19.5531 12.5 19V18H13.5C15.4344 18 17 16.4344 17 14.5C17 13.2469 16.3406 12.1469 15.3531 11.5281C15.7594 10.9562 16 10.2563 16 9.5C16 7.56562 14.4344 6 12.5 6V5C12.5 4.44687 12.0531 4 11.5 4ZM10.5 8V11H9V8H10.5ZM12.5 11V8C13.3281 8 14 8.67188 14 9.5C14 10.3281 13.3281 11 12.5 11ZM10.5 13V16H9V13H10.5ZM12.5 16V13H13.5C14.3281 13 15 13.6719 15 14.5C15 15.3281 14.3281 16 13.5 16H12.5Z" fill="black"/>
</svg>
