<svg width="24" height="24" viewBox="0 0 24 24" fill="none" xmlns="http://www.w3.org/2000/svg">
<path d="M2 10C2 6.00001 7.5 5.00001 9.5 5.00001C11.5 5.00001 17 6.00001 17 10C17 11.1031 16.1031 12 15 12V17.5C15 18.3281 14.3281 19 13.5 19H5.5C4.67188 19 4 18.3281 4 17.5V12C2.89688 12 2 11.1031 2 10ZM14.4187 5.09064C14.3562 5.06251 14.2906 5.03126 14.225 5.00314C14.3219 5.00001 14.4125 4.99689 14.5 4.99689C16.5 4.99689 22 5.99689 22 9.99689C22 11.1 21.1031 11.9969 20 11.9969V17.5C20 18.3281 19.3281 19 18.5 19H15.5C15.8125 18.5813 16 18.0625 16 17.5V12.8281C17.1656 12.4156 18 11.3063 18 10C18 7.43126 16.2 5.91564 14.4187 5.09064Z" fill="black"/>
</svg>
