<svg width="24" height="24" viewBox="0 0 24 24" fill="none" xmlns="http://www.w3.org/2000/svg">
<path d="M8 4H5.97812C5.4375 4 5 4.4375 5 4.97812C5 5.03437 5.00312 5.1 5.01875 5.17188C5.08125 5.47187 5.75 8.82188 5.75 11.25C5.75 12.2875 5.35 14.1719 5.13437 15.1C5.05 15.4688 5 15.8531 5 16.2437V19.25C5 19.6656 5.33437 20 5.75 20H8.25C8.66563 20 9 19.6656 9 19.25V18.7781L12.9062 19.8625C13.2344 19.9531 13.5719 20 13.9094 20H18.25H19.25C19.6656 20 20 19.6656 20 19.25C20 18.8344 19.6656 18.5 19.25 18.5H19V17.4281C19 16.575 18.5188 15.7969 17.7563 15.4156L14.2437 13.6594C13.4812 13.2781 13 12.5 13 11.6469V4.75C13 4.33437 12.6656 4 12.25 4H9V11.5C9 11.775 8.775 12 8.5 12C8.225 12 8 11.775 8 11.5V4Z" fill="black"/>
</svg>
