<svg width="24" height="24" viewBox="0 0 24 24" fill="none" xmlns="http://www.w3.org/2000/svg">
<path d="M8.41246 4C8.35621 4 8.30309 4.02188 8.26246 4.0625C7.32809 5.00937 6.74996 6.3125 6.74996 7.75C6.74996 8.56875 6.93746 9.34062 7.26871 10.0312C6.58121 10.1063 5.89996 10.3156 5.26246 10.6719C4.18434 11.275 3.41559 12.2 3.01246 13.25C2.99059 13.3031 2.99684 13.3656 3.02809 13.4125C3.09684 13.5281 3.25934 13.5469 3.35934 13.4531C5.00621 11.9469 7.93746 11.6594 9.40621 14.125C10.875 16.5906 9.15309 18.9094 6.98121 19.5375C6.84996 19.575 6.78434 19.7219 6.85309 19.8375C6.88434 19.8875 6.93434 19.9219 6.99371 19.9312C8.13434 20.1156 9.34371 19.9344 10.4218 19.3313C11.0593 18.975 11.5906 18.5031 12 17.9625C12.4093 18.5031 12.9406 18.975 13.5781 19.3313C14.6562 19.9344 15.8687 20.1187 17.0062 19.9312C17.0656 19.9219 17.1156 19.8875 17.1468 19.8375C17.2156 19.7219 17.15 19.575 17.0187 19.5375C14.8468 18.9094 13.125 16.5938 14.5937 14.125C16.0625 11.6562 18.9906 11.9438 20.6406 13.4563C20.7406 13.5469 20.9031 13.5281 20.9718 13.4156C21.0031 13.3656 21.0062 13.3063 20.9875 13.2531C20.5843 12.2031 19.8156 11.2781 18.7343 10.675C18.0968 10.3188 17.4156 10.1094 16.7281 10.0344C17.0625 9.34063 17.25 8.56875 17.25 7.75C17.25 6.3125 16.6718 5.00937 15.7375 4.0625C15.6968 4.02188 15.6437 4 15.5875 4C15.4312 4 15.325 4.1625 15.3781 4.30937C16.1781 6.51562 15.05 9.5 12 9.5C8.94996 9.5 7.82184 6.51562 8.62184 4.30937C8.67496 4.1625 8.57184 4 8.41246 4ZM10.5 12.5C10.5 12.1022 10.658 11.7206 10.9393 11.4393C11.2206 11.158 11.6021 11 12 11C12.3978 11 12.7793 11.158 13.0606 11.4393C13.3419 11.7206 13.5 12.1022 13.5 12.5C13.5 12.8978 13.3419 13.2794 13.0606 13.5607C12.7793 13.842 12.3978 14 12 14C11.6021 14 11.2206 13.842 10.9393 13.5607C10.658 13.2794 10.5 12.8978 10.5 12.5ZM8.67809 17.05C8.87496 16.6813 8.98434 16.2656 8.94684 15.8062C8.33746 15.2437 7.88434 14.5125 7.65934 13.6875C7.26871 13.4344 6.84059 13.3188 6.40934 13.3C6.12809 13.2875 5.84371 13.3187 5.56246 13.3844C5.80621 15.1687 6.77184 16.7219 8.15309 17.7406C8.36559 17.5313 8.54684 17.3 8.67809 17.05ZM12 6C11.1 6 10.2406 6.18437 9.46246 6.51562C9.52496 6.775 9.61871 7.02187 9.74371 7.25C9.95621 7.6375 10.2656 7.97188 10.6843 8.19688C11.1 8.06875 11.5437 8 12.0031 8C12.4625 8 12.9031 8.06875 13.3218 8.19688C13.7406 7.97188 14.05 7.6375 14.2625 7.25C14.3875 7.02187 14.4812 6.775 14.5437 6.51562C13.7593 6.18437 12.9 6 12 6ZM16.3406 13.6875C16.1156 14.5125 15.6625 15.2406 15.0531 15.8062C15.0156 16.2656 15.1218 16.6844 15.3218 17.05C15.4562 17.3 15.6343 17.5313 15.8468 17.7406C17.2312 16.7219 18.1968 15.1687 18.4375 13.3844C18.1562 13.3156 17.8718 13.2875 17.5906 13.3C17.1593 13.3188 16.7312 13.4375 16.3406 13.6875Z" fill="black"/>
</svg>
