<svg width="24" height="24" viewBox="0 0 24 24" fill="none" xmlns="http://www.w3.org/2000/svg">
<path d="M2 5.5C2 4.67188 2.67188 4 3.5 4H12.5C13.3281 4 14 4.67188 14 5.5V11.2562C12.7781 12.2656 12 13.7906 12 15.5C12 17.0469 12.6375 18.4438 13.6656 19.4438C13.3906 19.7844 12.9719 20 12.5 20H9.5V17.5C9.5 16.6719 8.82812 16 8 16C7.17188 16 6.5 16.6719 6.5 17.5V20H3.5C2.67188 20 2 19.3281 2 18.5V5.5ZM4.5 11C4.225 11 4 11.225 4 11.5V12.5C4 12.775 4.225 13 4.5 13H5.5C5.775 13 6 12.775 6 12.5V11.5C6 11.225 5.775 11 5.5 11H4.5ZM7 11.5V12.5C7 12.775 7.225 13 7.5 13H8.5C8.775 13 9 12.775 9 12.5V11.5C9 11.225 8.775 11 8.5 11H7.5C7.225 11 7 11.225 7 11.5ZM10.5 11C10.225 11 10 11.225 10 11.5V12.5C10 12.775 10.225 13 10.5 13H11.5C11.775 13 12 12.775 12 12.5V11.5C12 11.225 11.775 11 11.5 11H10.5ZM4 7.5V8.5C4 8.775 4.225 9 4.5 9H5.5C5.775 9 6 8.775 6 8.5V7.5C6 7.225 5.775 7 5.5 7H4.5C4.225 7 4 7.225 4 7.5ZM7.5 7C7.225 7 7 7.225 7 7.5V8.5C7 8.775 7.225 9 7.5 9H8.5C8.775 9 9 8.775 9 8.5V7.5C9 7.225 8.775 7 8.5 7H7.5ZM10 7.5V8.5C10 8.775 10.225 9 10.5 9H11.5C11.775 9 12 8.775 12 8.5V7.5C12 7.225 11.775 7 11.5 7H10.5C10.225 7 10 7.225 10 7.5ZM13 15.5C13 14.3065 13.4741 13.1619 14.318 12.318C15.1619 11.4741 16.3065 11 17.5 11C18.6935 11 19.8381 11.4741 20.682 12.318C21.5259 13.1619 22 14.3065 22 15.5C22 16.6935 21.5259 17.8381 20.682 18.682C19.8381 19.5259 18.6935 20 17.5 20C16.3065 20 15.1619 19.5259 14.318 18.682C13.4741 17.8381 13 16.6935 13 15.5ZM17.3969 13.3969C17.2031 13.5906 17.2031 13.9094 17.3969 14.1031L18.2938 15H15.5C15.225 15 15 15.225 15 15.5C15 15.775 15.225 16 15.5 16H18.2938L17.3969 16.8969C17.2031 17.0906 17.2031 17.4094 17.3969 17.6031C17.5906 17.7969 17.9094 17.7969 18.1031 17.6031L19.8531 15.8531C20.0469 15.6594 20.0469 15.3406 19.8531 15.1469L18.1031 13.3969C17.9094 13.2031 17.5906 13.2031 17.3969 13.3969Z" fill="black"/>
</svg>
