<svg width="24" height="24" viewBox="0 0 24 24" fill="none" xmlns="http://www.w3.org/2000/svg">
<path d="M12.3656 8.16563C11.9063 8.67812 11.2406 9 10.5 9C9.75938 9 9.09375 8.67812 8.63438 8.16563C8.41875 7.925 7.96562 7.89687 7.70937 8.09375C7.375 8.34688 6.95625 8.5 6.5 8.5C5.39688 8.5 4.5 7.60313 4.5 6.5C4.5 5.39688 5.39688 4.5 6.5 4.5C6.95625 4.5 7.375 4.65312 7.70937 4.90625C7.96562 5.10312 8.41875 5.075 8.63438 4.83438C9.09375 4.32188 9.75938 4 10.5 4C11.2406 4 11.9063 4.32188 12.3656 4.83438C12.5813 5.075 13.0344 5.10312 13.2906 4.90625C13.625 4.65312 14.0437 4.5 14.5 4.5C15.6031 4.5 16.5 5.39688 16.5 6.5C16.5 7.60313 15.6031 8.5 14.5 8.5C14.0437 8.5 13.625 8.34688 13.2906 8.09375C13.0344 7.89687 12.5813 7.925 12.3656 8.16563ZM5 18V9.1C5.44063 9.35313 5.95312 9.5 6.5 9.5C7.08437 9.5 7.63125 9.33125 8.09375 9.04063C8.71875 9.63438 9.56875 10 10.5 10C11.4313 10 12.2812 9.63438 12.9062 9.04063C13.3687 9.33125 13.9156 9.5 14.5 9.5C15.1125 9.5 15.6844 9.31563 16.1594 9H17.6C18.925 9 20 10.075 20 11.4V14.5906C20 15.5375 19.4406 16.4 18.575 16.7844L16 17.9281V18C16 19.1031 15.1031 20 14 20H7C5.89688 20 5 19.1031 5 18ZM16 15.7375L17.7625 14.9531C17.9062 14.8875 18 14.7469 18 14.5875V11.4C18 11.1781 17.8219 11 17.6 11H16V15.7375ZM9 11.5C9 11.225 8.775 11 8.5 11C8.225 11 8 11.225 8 11.5V16.5C8 16.775 8.225 17 8.5 17C8.775 17 9 16.775 9 16.5V11.5ZM11 11.5C11 11.225 10.775 11 10.5 11C10.225 11 10 11.225 10 11.5V16.5C10 16.775 10.225 17 10.5 17C10.775 17 11 16.775 11 16.5V11.5ZM13 11.5C13 11.225 12.775 11 12.5 11C12.225 11 12 11.225 12 11.5V16.5C12 16.775 12.225 17 12.5 17C12.775 17 13 16.775 13 16.5V11.5Z" fill="black"/>
</svg>
