<svg width="24" height="24" viewBox="0 0 24 24" fill="none" xmlns="http://www.w3.org/2000/svg">
<path d="M15.3594 17.7683C15.6562 18.0152 16.0719 18.0714 16.425 17.9058C16.7781 17.7402 17 17.3871 17 16.9996V6.99957C17 6.61207 16.775 6.25895 16.425 6.09332C16.075 5.9277 15.6594 5.98082 15.3594 6.23082L9.35938 11.2308L9 11.5308V6.99957C9 6.44645 8.55313 5.99957 8 5.99957C7.44687 5.99957 7 6.44645 7 6.99957V16.9996C7 17.5527 7.44687 17.9996 8 17.9996C8.55313 17.9996 9 17.5527 9 16.9996V12.4683L9.35938 12.7683L15.3594 17.7683Z" fill="black"/>
</svg>
