<svg width="24" height="24" viewBox="0 0 24 24" fill="none" xmlns="http://www.w3.org/2000/svg">
<path d="M14 8C14 6.34375 12.6562 5 11 5H10C9.44687 5 9 5.44687 9 6C9 6.55313 9.44687 7 10 7H11C11.5531 7 12 7.44687 12 8V9.17188C12 9.96875 12.3156 10.7312 12.8781 11.2937L13.5844 12L12.8781 12.7063C12.3156 13.2688 12 14.0312 12 14.8281V16C12 16.5531 11.5531 17 11 17H10C9.44687 17 9 17.4469 9 18C9 18.5531 9.44687 19 10 19H11C12.6562 19 14 17.6562 14 16V14.8281C14 14.5625 14.1062 14.3094 14.2937 14.1219L15.7094 12.7063C16.1 12.3156 16.1 11.6813 15.7094 11.2906L14.2937 9.875C14.1062 9.6875 14 9.43437 14 9.16875V8Z" fill="black"/>
</svg>
