<svg width="24" height="24" viewBox="0 0 24 24" fill="none" xmlns="http://www.w3.org/2000/svg">
<path d="M19.9907 4.59063C20.0219 4.42813 19.9688 4.2625 19.8531 4.14375C19.7375 4.025 19.5688 3.97813 19.4094 4.00938L15.4094 4.75938C15.2282 4.79375 15.0781 4.925 15.025 5.10313C14.9719 5.28125 15.0188 5.47188 15.15 5.60313L16.2438 6.69688L8.51878 14.4188L6.93128 14.0219C6.67503 13.9594 6.40628 14.0344 6.21878 14.2188L4.21878 16.2188C4.02815 16.4094 3.95315 16.6875 4.02503 16.95C4.0969 17.2125 4.30315 17.4125 4.56565 17.4781L6.12815 17.8688L6.51878 19.4313C6.5844 19.6938 6.7844 19.9 7.0469 19.9719C7.3094 20.0438 7.58753 19.9719 7.77815 19.7781L9.77815 17.7781C9.96565 17.5906 10.0407 17.3219 9.97503 17.0656L9.57815 15.4781L17.3032 7.75938L18.3969 8.85313C18.5282 8.98438 18.7219 9.03125 18.8969 8.97813C19.0719 8.925 19.2063 8.775 19.2407 8.59375L19.9907 4.59375V4.59063ZM5.67815 7.2625C5.2844 6.9 4.67503 6.90938 4.29378 7.29063C3.90315 7.68125 3.90315 8.31563 4.29378 8.70625L8.55628 12.9688L9.96878 11.5563L7.13753 8.725C8.90315 7.76563 11.05 7.75938 12.8219 8.70313L14.2844 7.24063C11.6656 5.57813 8.29065 5.58438 5.67815 7.26563V7.2625ZM15.2969 11.1781C16.2407 12.95 16.2344 15.0969 15.275 16.8625L12.4438 14.0313L11.0313 15.4438L15.2938 19.7063C15.6844 20.0969 16.3188 20.0969 16.7094 19.7063C17.0907 19.325 17.1 18.7125 16.7375 18.3219C18.4157 15.7094 18.425 12.3344 16.7625 9.71563L15.3 11.1781H15.2969Z" fill="black"/>
</svg>
