<svg width="24" height="24" viewBox="0 0 24 24" fill="none" xmlns="http://www.w3.org/2000/svg">
<path d="M10.0002 8C10.0002 6.34375 11.3439 5 13.0002 5H14.0002C14.5533 5 15.0002 5.44687 15.0002 6C15.0002 6.55313 14.5533 7 14.0002 7H13.0002C12.4471 7 12.0002 7.44688 12.0002 8V9.17188C12.0002 9.96875 11.6846 10.7312 11.1221 11.2937L10.4158 12L11.1221 12.7063C11.6846 13.2688 12.0002 14.0312 12.0002 14.8281V16C12.0002 16.5531 12.4471 17 13.0002 17H14.0002C14.5533 17 15.0002 17.4469 15.0002 18C15.0002 18.5531 14.5533 19 14.0002 19H13.0002C11.3439 19 10.0002 17.6562 10.0002 16V14.8281C10.0002 14.5625 9.89395 14.3094 9.70645 14.1219L8.29395 12.7063C7.90332 12.3156 7.90332 11.6813 8.29395 11.2906L9.70957 9.875C9.89707 9.6875 10.0033 9.43437 10.0033 9.16875V8H10.0002Z" fill="black"/>
</svg>
