<svg width="24" height="24" viewBox="0 0 24 24" fill="none" xmlns="http://www.w3.org/2000/svg">
<path d="M5 5.0001C5 4.44698 5.44688 4.0001 6 4.0001H8C8.55312 4.0001 9 4.44698 9 5.0001V7.0001H5V5.0001ZM5 17.0001H9V19.0001C9 19.5532 8.55312 20.0001 8 20.0001H6C5.44688 20.0001 5 19.5532 5 19.0001V17.0001ZM10 5.0001C10 4.44698 10.4469 4.0001 11 4.0001H13C13.5531 4.0001 14 4.44698 14 5.0001V7.0001H10V5.0001ZM10 8.0001H14V16.0001H10V8.0001ZM10 17.0001H14V19.0001C14 19.5532 13.5531 20.0001 13 20.0001H11C10.4469 20.0001 10 19.5532 10 19.0001V17.0001ZM16.3625 16.3782L15 11.2689V8.4626L18.1375 7.62198L20.2 15.3532L16.3625 16.3782ZM17.8813 6.65635L15 7.4251V4.34385L16.1531 4.03448C16.6812 3.89073 17.2281 4.20635 17.3687 4.74073L17.8813 6.65635ZM16.6187 17.3439L20.4562 16.3157L20.9656 18.2251C21.1063 18.7564 20.7938 19.3032 20.2625 19.447L18.3438 19.9626C17.8156 20.1063 17.2688 19.7907 17.1281 19.2564L16.6187 17.3439ZM5 9.5001C5 9.2251 5.225 9.0001 5.5 9.0001H6.5C6.775 9.0001 7 9.2251 7 9.5001V11.0001H8.5C8.775 11.0001 9 11.2251 9 11.5001V12.5001C9 12.7751 8.775 13.0001 8.5 13.0001H7V14.5001C7 14.7751 6.775 15.0001 6.5 15.0001H5.5C5.225 15.0001 5 14.7751 5 14.5001V13.0001H3.5C3.225 13.0001 3 12.7751 3 12.5001V11.5001C3 11.2251 3.225 11.0001 3.5 11.0001H5V9.5001Z" fill="black"/>
</svg>
