<svg width="24" height="24" viewBox="0 0 24 24" fill="none" xmlns="http://www.w3.org/2000/svg">
<path d="M3.21243 4.15939C2.88743 3.90314 2.41556 3.96251 2.15931 4.28751C1.90306 4.61251 1.96243 5.08439 2.28743 5.34064L20.7874 19.8406C21.1124 20.0969 21.5843 20.0375 21.8406 19.7125C22.0968 19.3875 22.0374 18.9156 21.7124 18.6594L17.9999 15.75V15C17.9999 13.8969 17.1031 13 15.9999 13H14.4906L11.3124 10.5094C11.7343 10.1438 11.9999 9.60314 11.9999 9.00001V6.00001C11.9999 4.89689 11.1031 4.00001 9.99993 4.00001H7.99993C6.89681 4.00001 5.99993 4.89689 5.99993 6.00001V6.34376L3.21243 4.15939ZM7.99993 7.91251V6.00001H9.99993V9.00001H9.38743L7.99993 7.91251ZM16.4999 5.00001C16.4999 4.67814 16.3468 4.37814 16.0843 4.18751C15.8218 3.99689 15.4874 3.94689 15.1843 4.05001L13.6843 4.55001C13.1593 4.72501 12.8781 5.29064 13.0531 5.81564C13.2281 6.34064 13.7937 6.62189 14.3187 6.44689L14.5031 6.38439V9.00001H13.9999C13.4468 9.00001 12.9999 9.44689 12.9999 10C12.9999 10.5531 13.4468 11 13.9999 11H15.4999H16.9999C17.5531 11 17.9999 10.5531 17.9999 10C17.9999 9.44689 17.5531 9.00001 16.9999 9.00001H16.4999V5.00001ZM9.49993 14C9.49993 13.6781 9.34681 13.3781 9.08431 13.1875C8.82181 12.9969 8.48743 12.9469 8.18431 13.05L6.68431 13.55C6.15931 13.725 5.87806 14.2906 6.05306 14.8156C6.22806 15.3406 6.79368 15.6219 7.31868 15.4469L7.50306 15.3844V18H6.99993C6.44681 18 5.99993 18.4469 5.99993 19C5.99993 19.5531 6.44681 20 6.99993 20H8.49993H9.99993C10.5531 20 10.9999 19.5531 10.9999 19C10.9999 18.4469 10.5531 18 9.99993 18H9.49993V14ZM11.9999 15V18C11.9999 19.1031 12.8968 20 13.9999 20H15.9999C16.6281 20 17.1906 19.7094 17.5562 19.2563L15.9624 18H13.9999V16.4531L12.0031 14.8813C11.9999 14.9219 11.9999 14.9594 11.9999 15Z" fill="black"/>
</svg>
