<svg width="24" height="24" viewBox="0 0 24 24" fill="none" xmlns="http://www.w3.org/2000/svg">
<path d="M7 5C5.89688 5 5 5.89688 5 7V17C5 18.1031 5.89688 19 7 19H17C18.1031 19 19 18.1031 19 17V7C19 5.89688 18.1031 5 17 5H7ZM9.30625 9.66563C9.55313 8.96875 10.2156 8.5 10.9563 8.5H12.7781C13.8687 8.5 14.75 9.38438 14.75 10.4719C14.75 11.1781 14.3719 11.8312 13.7594 12.1844L12.75 12.7625C12.7437 13.1687 12.4094 13.5 12 13.5C11.5844 13.5 11.25 13.1656 11.25 12.75V12.3281C11.25 12.0594 11.3938 11.8125 11.6281 11.6781L13.0125 10.8844C13.1594 10.8 13.25 10.6437 13.25 10.475C13.25 10.2125 13.0375 10.0031 12.7781 10.0031H10.9563C10.85 10.0031 10.7563 10.0687 10.7219 10.1687L10.7094 10.2063C10.5719 10.5969 10.1406 10.8 9.75313 10.6625C9.36563 10.525 9.15937 10.0938 9.29688 9.70625L9.30937 9.66875L9.30625 9.66563ZM11 15.5C11 15.2348 11.1054 14.9804 11.2929 14.7929C11.4804 14.6054 11.7348 14.5 12 14.5C12.2652 14.5 12.5196 14.6054 12.7071 14.7929C12.8946 14.9804 13 15.2348 13 15.5C13 15.7652 12.8946 16.0196 12.7071 16.2071C12.5196 16.3946 12.2652 16.5 12 16.5C11.7348 16.5 11.4804 16.3946 11.2929 16.2071C11.1054 16.0196 11 15.7652 11 15.5ZM6.5 7.25C6.5 7.05109 6.57902 6.86032 6.71967 6.71967C6.86032 6.57902 7.05109 6.5 7.25 6.5C7.44891 6.5 7.63968 6.57902 7.78033 6.71967C7.92098 6.86032 8 7.05109 8 7.25C8 7.44891 7.92098 7.63968 7.78033 7.78033C7.63968 7.92098 7.44891 8 7.25 8C7.05109 8 6.86032 7.92098 6.71967 7.78033C6.57902 7.63968 6.5 7.44891 6.5 7.25ZM16.75 6.5C16.9489 6.5 17.1397 6.57902 17.2803 6.71967C17.421 6.86032 17.5 7.05109 17.5 7.25C17.5 7.44891 17.421 7.63968 17.2803 7.78033C17.1397 7.92098 16.9489 8 16.75 8C16.5511 8 16.3603 7.92098 16.2197 7.78033C16.079 7.63968 16 7.44891 16 7.25C16 7.05109 16.079 6.86032 16.2197 6.71967C16.3603 6.57902 16.5511 6.5 16.75 6.5ZM6.5 16.75C6.5 16.5511 6.57902 16.3603 6.71967 16.2197C6.86032 16.079 7.05109 16 7.25 16C7.44891 16 7.63968 16.079 7.78033 16.2197C7.92098 16.3603 8 16.5511 8 16.75C8 16.9489 7.92098 17.1397 7.78033 17.2803C7.63968 17.421 7.44891 17.5 7.25 17.5C7.05109 17.5 6.86032 17.421 6.71967 17.2803C6.57902 17.1397 6.5 16.9489 6.5 16.75ZM16.75 16C16.9489 16 17.1397 16.079 17.2803 16.2197C17.421 16.3603 17.5 16.5511 17.5 16.75C17.5 16.9489 17.421 17.1397 17.2803 17.2803C17.1397 17.421 16.9489 17.5 16.75 17.5C16.5511 17.5 16.3603 17.421 16.2197 17.2803C16.079 17.1397 16 16.9489 16 16.75C16 16.5511 16.079 16.3603 16.2197 16.2197C16.3603 16.079 16.5511 16 16.75 16Z" fill="black"/>
</svg>
