<svg width="24" height="24" viewBox="0 0 24 24" fill="none" xmlns="http://www.w3.org/2000/svg">
<path d="M16 5C16 4.44687 15.5531 4 15 4C14.4469 4 14 4.44687 14 5H10C10 4.44687 9.55312 4 9 4C8.44688 4 8 4.44687 8 5H4.5C3.67188 5 3 5.67188 3 6.5V15C2.44687 15 2 15.4469 2 16C2 16.5531 2.44687 17 3 17H4.5H11V19C11 19.5531 11.4469 20 12 20C12.5531 20 13 19.5531 13 19V17H19.5H21C21.5531 17 22 16.5531 22 16C22 15.4469 21.5531 15 21 15V6.5C21 5.67188 20.3281 5 19.5 5H16ZM12 15H5V7H8V8C7.44688 8 7 8.44688 7 9C7 9.55312 7.44688 10 8 10H9H10C10.5531 10 11 9.55312 11 9C11 8.44688 10.5531 8 10 8V7H14V8C13.4469 8 13 8.44688 13 9C13 9.55312 13.4469 10 14 10H15H16C16.5531 10 17 9.55312 17 9C17 8.44688 16.5531 8 16 8V7H19V15H12Z" fill="black"/>
</svg>
