<svg width="24" height="24" viewBox="0 0 24 24" fill="none" xmlns="http://www.w3.org/2000/svg">
<path d="M12.9187 5.39374C13.103 4.96562 12.9655 4.46562 12.5874 4.19062C12.2093 3.91562 11.6937 3.94062 11.3405 4.24687L3.34055 11.2469C3.02805 11.5219 2.91867 11.9625 3.06242 12.3531C3.20617 12.7437 3.5843 13 3.99992 13H7.4843L5.08117 18.6062C4.8968 19.0344 5.0343 19.5344 5.41242 19.8094C5.79055 20.0844 6.30617 20.0594 6.6593 19.7531L14.6593 12.7531C14.9718 12.4781 15.0843 12.0375 14.9374 11.65C14.7905 11.2625 14.4187 11.0031 13.9999 11.0031H10.5155L12.9187 5.39374ZM17.4999 13C17.1218 13 16.7749 13.2125 16.6062 13.5531L14.1062 18.5531C13.8593 19.0469 14.0593 19.6469 14.553 19.8937C15.0468 20.1406 15.6468 19.9406 15.8937 19.4469L16.1187 19H18.8812L19.1062 19.4469C19.353 19.9406 19.953 20.1406 20.4468 19.8937C20.9405 19.6469 21.1405 19.0469 20.8937 18.5531L18.3937 13.5531C18.2249 13.2125 17.878 13 17.4999 13ZM16.9937 17.25L17.4999 16.2375L18.0062 17.25H16.9937Z" fill="black"/>
</svg>
