<svg width="24" height="24" viewBox="0 0 24 24" fill="none" xmlns="http://www.w3.org/2000/svg">
<path d="M12 18C8.6875 18 6 15.3125 6 12C6 10.7031 6.40937 9.50313 7.10938 8.525L15.475 16.8906C14.4969 17.5906 13.2969 18 12 18ZM14.7812 13.3656L15.4031 13.4906C15.675 13.5438 15.9375 13.3688 15.9906 13.0969C16.0438 12.825 15.8688 12.5625 15.5969 12.5094L14.5 12.2906V11.7094L15.5969 11.4906C15.8688 11.4375 16.0438 11.1719 15.9906 10.9031C15.9375 10.6344 15.6719 10.4563 15.4031 10.5094L14.4812 10.6937C14.4469 10.4062 14.3625 10.1375 14.2406 9.8875L15.0063 9.42812C15.2438 9.2875 15.3188 8.97813 15.1781 8.74062C15.0375 8.50312 14.7281 8.42812 14.4906 8.56875L13.6187 9.09375C13.1812 8.72188 12.6156 8.5 12 8.5C11.4156 8.5 10.8781 8.7 10.45 9.0375L8.525 7.10938C9.50313 6.40937 10.7031 6 12 6C15.3125 6 18 8.6875 18 12C18 13.2969 17.5906 14.4969 16.8906 15.475L14.7812 13.3656ZM12 20C14.1217 20 16.1566 19.1571 17.6569 17.6569C19.1571 16.1566 20 14.1217 20 12C20 9.87827 19.1571 7.84344 17.6569 6.34315C16.1566 4.84285 14.1217 4 12 4C9.87827 4 7.84344 4.84285 6.34315 6.34315C4.84285 7.84344 4 9.87827 4 12C4 14.1217 4.84285 16.1566 6.34315 17.6569C7.84344 19.1571 9.87827 20 12 20ZM8.40312 12.5094C8.13125 12.5625 7.95625 12.8281 8.00938 13.0969C8.0625 13.3656 8.32812 13.5438 8.59688 13.4906L9.51875 13.3062C9.55313 13.5938 9.6375 13.8625 9.75938 14.1125L8.99375 14.5719C8.75625 14.7125 8.68125 15.0219 8.82188 15.2594C8.9625 15.4969 9.27187 15.5719 9.50938 15.4312L10.3812 14.9062C10.8187 15.2781 11.3844 15.5 12 15.5C12.2063 15.5 12.4062 15.475 12.6 15.4281L9.46875 12.2969L8.40312 12.5094Z" fill="black"/>
</svg>
