<svg width="24" height="24" viewBox="0 0 24 24" fill="none" xmlns="http://www.w3.org/2000/svg">
<path d="M16.8906 15.475L14.6969 13.2812C15.3406 12.7312 15.75 11.9125 15.75 11C15.75 9.34375 14.4062 8 12.75 8H10.5C10.1969 8 9.91875 8.10937 9.70312 8.2875L8.525 7.10938C9.50313 6.40938 10.7031 6 12 6C15.3125 6 18 8.6875 18 12C18 13.2969 17.5906 14.4969 16.8906 15.475ZM15.475 16.8906C14.4969 17.5906 13.2969 18 12 18C8.6875 18 6 15.3125 6 12C6 10.7031 6.40938 9.50313 7.10938 8.525L15.475 16.8906ZM13.2688 11.8562L11.4156 10H12.75C13.3031 10 13.75 10.4469 13.75 11C13.75 11.3625 13.5563 11.6781 13.2688 11.8562ZM12 20C14.1217 20 16.1566 19.1571 17.6569 17.6569C19.1571 16.1566 20 14.1217 20 12C20 9.87827 19.1571 7.84344 17.6569 6.34315C16.1566 4.84285 14.1217 4 12 4C9.87827 4 7.84344 4.84285 6.34315 6.34315C4.84285 7.84344 4 9.87827 4 12C4 14.1217 4.84285 16.1566 6.34315 17.6569C7.84344 19.1571 9.87827 20 12 20ZM9.25 12.1656V13V15C9.25 15.5531 9.69687 16 10.25 16C10.8031 16 11.25 15.5531 11.25 15V14.1656L9.25 12.1656Z" fill="black"/>
</svg>
