<svg width="24" height="24" viewBox="0 0 24 24" fill="none" xmlns="http://www.w3.org/2000/svg">
<path d="M3.21243 4.15943C2.88743 3.90318 2.41556 3.96255 2.15931 4.28755C1.90306 4.61255 1.96243 5.08443 2.28743 5.34068L20.7874 19.8407C21.1124 20.0969 21.5843 20.0376 21.8406 19.7126C22.0968 19.3876 22.0374 18.9157 21.7124 18.6594L16.9187 14.9032C16.9718 14.6094 16.9999 14.3094 16.9999 14.0001H18.9999C19.5531 14.0001 19.9999 13.5532 19.9999 13.0001C19.9999 12.4469 19.5531 12.0001 18.9999 12.0001H16.9906C16.9562 11.5594 16.8343 11.1407 16.6437 10.7657C16.6656 10.7469 16.6874 10.7282 16.7093 10.7063L18.7093 8.7063C19.0999 8.31568 19.0999 7.6813 18.7093 7.29068C18.3187 6.90005 17.6843 6.90005 17.2937 7.29068L15.2937 9.29068C15.2718 9.31255 15.2531 9.33443 15.2343 9.3563C14.7874 9.12818 14.2843 9.00005 13.7499 9.00005H10.2499C9.99056 9.00005 9.74056 9.0313 9.49993 9.08755L3.21243 4.15943ZM15.4624 17.6063L12.4999 15.2719V18.9751C13.6437 18.8626 14.6781 18.3626 15.4624 17.6063ZM7.20931 11.1032C7.10306 11.3844 7.03431 11.6876 7.00931 12.0001H4.99993C4.44681 12.0001 3.99993 12.4469 3.99993 13.0001C3.99993 13.5532 4.44681 14.0001 4.99993 14.0001H6.99993C6.99993 14.7688 7.17181 15.4938 7.48118 16.1438C7.41243 16.1844 7.34993 16.2344 7.29368 16.2938L5.29368 18.2938C4.90306 18.6844 4.90306 19.3188 5.29368 19.7094C5.68431 20.1001 6.31868 20.1001 6.70931 19.7094L8.68118 17.7376C9.44681 18.4188 10.4249 18.8688 11.5031 18.9751V14.4844L7.20931 11.1032ZM11.9999 4.00005C10.3437 4.00005 8.99993 5.3438 8.99993 7.00005V7.11255C8.99993 7.60318 9.39681 8.00005 9.88743 8.00005H14.1124C14.6031 8.00005 14.9999 7.60318 14.9999 7.11255V7.00005C14.9999 5.3438 13.6562 4.00005 11.9999 4.00005Z" fill="black"/>
</svg>
