<svg width="24" height="24" viewBox="0 0 24 24" fill="none" xmlns="http://www.w3.org/2000/svg">
<path d="M10.5 8C11.163 8 11.7989 8.26339 12.2678 8.73223C12.7366 9.20107 13 9.83696 13 10.5C13 11.163 12.7366 11.7989 12.2678 12.2678C11.7989 12.7366 11.163 13 10.5 13C9.83696 13 9.20107 12.7366 8.73223 12.2678C8.26339 11.7989 8 11.163 8 10.5C8 9.83696 8.26339 9.20107 8.73223 8.73223C9.20107 8.26339 9.83696 8 10.5 8ZM10.5 17C12.2239 17 13.8772 16.3152 15.0962 15.0962C16.3152 13.8772 17 12.2239 17 10.5C17 8.77609 16.3152 7.12279 15.0962 5.90381C13.8772 4.68482 12.2239 4 10.5 4C8.77609 4 7.12279 4.68482 5.90381 5.90381C4.68482 7.12279 4 8.77609 4 10.5C4 12.2239 4.68482 13.8772 5.90381 15.0962C7.12279 16.3152 8.77609 17 10.5 17ZM12 10.5C12 10.1022 11.842 9.72064 11.5607 9.43934C11.2794 9.15804 10.8978 9 10.5 9C10.1022 9 9.72064 9.15804 9.43934 9.43934C9.15804 9.72064 9 10.1022 9 10.5C9 10.8978 9.15804 11.2794 9.43934 11.5607C9.72064 11.842 10.1022 12 10.5 12C10.8978 12 11.2794 11.842 11.5607 11.5607C11.842 11.2794 12 10.8978 12 10.5ZM10.5 18C8.8125 18 7.25312 17.4406 6 16.5V18.5C6 19.3281 6.67188 20 7.5 20H14H15H16.25C17.6062 20 18.7531 19.1 19.125 17.8656C19.6438 17.6281 20 17.1062 20 16.5C20 15.6719 19.3281 15 18.5 15C17.6719 15 17 15.6719 17 16.5C17 16.9844 17.2281 17.4125 17.5844 17.6875C17.3344 18.1687 16.8313 18.5 16.25 18.5H15V16.5C13.7469 17.4406 12.1875 18 10.5 18Z" fill="black"/>
</svg>
