<svg width="24" height="24" viewBox="0 0 24 24" fill="none" xmlns="http://www.w3.org/2000/svg">
<path d="M16.5 5V9H17C17.5531 9 18 9.44688 18 10C18 10.5531 17.5531 11 17 11H15.5H14C13.4469 11 13 10.5531 13 10C13 9.44688 13.4469 9 14 9H14.5V6.3875L14.3156 6.45C13.7906 6.625 13.225 6.34063 13.05 5.81875C12.875 5.29688 13.1594 4.72813 13.6813 4.55313L15.1813 4.05313C15.4875 3.95 15.825 4 16.0844 4.1875C16.3438 4.375 16.5 4.67813 16.5 5ZM9.5 14V18H10C10.5531 18 11 18.4469 11 19C11 19.5531 10.5531 20 10 20H8.5H7C6.44688 20 6 19.5531 6 19C6 18.4469 6.44688 18 7 18H7.5V15.3875L7.31563 15.45C6.79063 15.625 6.225 15.3406 6.05 14.8188C5.875 14.2969 6.15938 13.7281 6.68125 13.5531L8.18125 13.0531C8.4875 12.95 8.82188 13.0031 9.08125 13.1906C9.34063 13.3781 9.49688 13.6813 9.49688 14.0031L9.5 14ZM6 6C6 4.89688 6.89688 4 8 4H10C11.1031 4 12 4.89688 12 6V9C12 10.1031 11.1031 11 10 11H8C6.89688 11 6 10.1031 6 9V6ZM10 6H8V9H10V6ZM14 13H16C17.1031 13 18 13.8969 18 15V18C18 19.1031 17.1031 20 16 20H14C12.8969 20 12 19.1031 12 18V15C12 13.8969 12.8969 13 14 13ZM14 15V18H16V15H14Z" fill="black"/>
</svg>
