<svg width="24" height="24" viewBox="0 0 24 24" fill="none" xmlns="http://www.w3.org/2000/svg">
<path d="M14.475 11.6469C14.4906 11.7625 14.5 11.8812 14.5 12C14.5 13.3813 13.3813 14.5 12 14.5C10.6188 14.5 9.5 13.3813 9.5 12C9.5 10.6188 10.6188 9.5 12 9.5C12.1187 9.5 12.2375 9.50938 12.3531 9.525L13.3281 8.55L13.1781 7.65625C12.8031 7.55312 12.4062 7.5 12 7.5C9.51562 7.5 7.5 9.51562 7.5 12C7.5 14.4844 9.51562 16.5 12 16.5C14.4844 16.5 16.5 14.4844 16.5 12C16.5 11.5906 16.4469 11.1969 16.3438 10.8219L15.45 10.6719L14.475 11.6469ZM17.9156 10.9969C17.9719 11.3219 18 11.6562 18 12C18 15.3125 15.3125 18 12 18C8.6875 18 6 15.3125 6 12C6 8.6875 8.6875 6 12 6C12.3406 6 12.675 6.02812 13.0031 6.08437L13.2937 5.79375L14.6406 4.44688C13.8125 4.15625 12.925 4 12 4C7.58125 4 4 7.58125 4 12C4 16.4187 7.58125 20 12 20C16.4187 20 20 16.4187 20 12C20 11.075 19.8438 10.1875 19.5531 9.35938L18.2063 10.7063L17.9156 10.9969ZM15.4094 9.65L16.9937 9.9125C17.3125 9.96562 17.6375 9.8625 17.8656 9.63438L19.4656 8.03438C19.7188 7.78125 19.6313 7.35 19.2969 7.21563L17.5 6.5L16.7812 4.70312C16.6469 4.36875 16.2188 4.28125 15.9625 4.53438L14.3625 6.1375C14.1344 6.36563 14.0312 6.69063 14.0844 7.00938L14.3469 8.59375L11.4688 11.4688C11.175 11.7625 11.175 12.2375 11.4688 12.5281C11.7625 12.8187 12.2375 12.8219 12.5281 12.5281L15.4062 9.65H15.4094Z" fill="black"/>
</svg>
