<svg width="24" height="24" viewBox="0 0 24 24" fill="none" xmlns="http://www.w3.org/2000/svg">
<path d="M19.425 17.9069C19.075 18.0725 18.6594 18.0194 18.3594 17.7694L13 13.3038V17.0007C13 17.3882 12.775 17.7413 12.425 17.9069C12.075 18.0725 11.6594 18.0194 11.3594 17.7694L6 13.3038V17.0007C6 17.5538 5.55313 18.0007 5 18.0007C4.44687 18.0007 4 17.5538 4 17.0007V7.00067C4 6.44754 4.44687 6.00067 5 6.00067C5.55313 6.00067 6 6.44754 6 7.00067V10.6975L11.3594 6.23192C11.6562 5.98504 12.0719 5.92879 12.425 6.09442C12.7781 6.26004 13 6.61317 13 7.00067V10.6975L18.3594 6.23192C18.6562 5.98504 19.0719 5.92879 19.425 6.09442C19.7781 6.26004 20 6.61317 20 7.00067V17.0007C20 17.3882 19.775 17.7413 19.425 17.9069Z" fill="black"/>
</svg>
