<svg width="24" height="24" viewBox="0 0 24 24" fill="none" xmlns="http://www.w3.org/2000/svg">
<path d="M12.0844 4.1875C12.3438 4.375 12.5 4.67813 12.5 5V9H13C13.5531 9 14 9.44688 14 10C14 10.5531 13.5531 11 13 11H11.5H10C9.44688 11 9 10.5531 9 10C9 9.44688 9.44688 9 10 9H10.5V6.3875L10.3156 6.45C9.79063 6.625 9.225 6.34063 9.05 5.81875C8.875 5.29688 9.15938 4.72813 9.68125 4.55313L11.1813 4.05313C11.4875 3.95 11.825 4 12.0844 4.1875ZM5.08438 13.1875C5.34375 13.375 5.5 13.6781 5.5 14V18H6C6.55313 18 7 18.4469 7 19C7 19.5531 6.55313 20 6 20H4.5H3C2.44688 20 2 19.5531 2 19C2 18.4469 2.44688 18 3 18H3.5V15.3875L3.31563 15.45C2.79063 15.625 2.225 15.3406 2.05 14.8188C1.875 14.2969 2.15938 13.7281 2.68125 13.5531L4.18125 13.0531C4.4875 12.95 4.82188 13.0031 5.08125 13.1906L5.08438 13.1875ZM4 4H6C7.10313 4 8 4.89688 8 6V9C8 10.1031 7.10313 11 6 11H4C2.89688 11 2 10.1031 2 9V6C2 4.89688 2.89688 4 4 4ZM4 6V9H6V6H4ZM8 15C8 13.8969 8.89688 13 10 13H12C12.1938 13 12.3813 13.0281 12.5594 13.0781C12.2094 13.7937 12.0094 14.5969 12 15.4438V15H10V18H12H12.6C12.8438 18.4781 13.1563 18.9156 13.5219 19.2969C13.1563 19.7281 12.6094 20 12 20H10C8.89688 20 8 19.1031 8 18V15ZM12.0219 16H12V15.5562C12 15.7062 12.0094 15.8531 12.0219 16ZM13 15.5C13 14.3065 13.4741 13.1619 14.318 12.318C15.1619 11.4741 16.3065 11 17.5 11C18.6935 11 19.8381 11.4741 20.682 12.318C21.5259 13.1619 22 14.3065 22 15.5C22 16.6935 21.5259 17.8381 20.682 18.682C19.8381 19.5259 18.6935 20 17.5 20C16.3065 20 15.1619 19.5259 14.318 18.682C13.4741 17.8381 13 16.6935 13 15.5ZM19.6031 14.1469C19.4094 13.9531 19.0906 13.9531 18.8969 14.1469L17 16.0437L16.1031 15.1469C15.9094 14.9531 15.5906 14.9531 15.3969 15.1469C15.2031 15.3406 15.2031 15.6594 15.3969 15.8531L16.6469 17.1031C16.8406 17.2969 17.1594 17.2969 17.3531 17.1031L19.6031 14.8531C19.7969 14.6594 19.7969 14.3406 19.6031 14.1469Z" fill="black"/>
</svg>
