<svg width="24" height="24" viewBox="0 0 24 24" fill="none" xmlns="http://www.w3.org/2000/svg">
<path d="M17.1 4.29918L18.375 5.99918H21.25C21.6656 5.99918 22 6.33356 22 6.74918C22 7.16481 21.6656 7.49918 21.25 7.49918H18C17.7625 7.49918 17.5406 7.38668 17.4 7.19918L16.6469 6.19606L15.1781 9.31793C15.0625 9.56168 14.825 9.72731 14.5562 9.74606C14.2875 9.76481 14.0281 9.63981 13.8781 9.41481L12.6 7.49918H8.75C8.33437 7.49918 8 7.16481 8 6.74918C8 6.33356 8.33437 5.99918 8.75 5.99918H13C13.25 5.99918 13.4844 6.12418 13.625 6.33356L14.3875 7.47731L15.8219 4.43043C15.9344 4.19293 16.1625 4.03043 16.425 4.00231C16.6875 3.97418 16.9438 4.08668 17.1 4.29918ZM12 8.99918H12.3969L13.0437 9.97106C13.3938 10.4961 14 10.7929 14.6281 10.7461C15.2563 10.6992 15.8125 10.3179 16.0813 9.74606L16.4344 8.99918H19C20.6562 8.99918 22 10.3429 22 11.9992V18.9992C22 19.5523 21.5531 19.9992 21 19.9992C20.4469 19.9992 20 19.5523 20 18.9992V17.9992H13H12H4V18.9992C4 19.5523 3.55313 19.9992 3 19.9992C2.44687 19.9992 2 19.5523 2 18.9992V6.99918C2 6.44606 2.44687 5.99918 3 5.99918C3.55313 5.99918 4 6.44606 4 6.99918V14.9992H11V9.99918C11 9.44606 11.4469 8.99918 12 8.99918ZM7.5 8.99918C8.16304 8.99918 8.79893 9.26257 9.26777 9.73142C9.73661 10.2003 10 10.8361 10 11.4992C10 12.1622 9.73661 12.7981 9.26777 13.2669C8.79893 13.7358 8.16304 13.9992 7.5 13.9992C6.83696 13.9992 6.20107 13.7358 5.73223 13.2669C5.26339 12.7981 5 12.1622 5 11.4992C5 10.8361 5.26339 10.2003 5.73223 9.73142C6.20107 9.26257 6.83696 8.99918 7.5 8.99918Z" fill="black"/>
</svg>
