<svg width="24" height="24" viewBox="0 0 24 24" fill="none" xmlns="http://www.w3.org/2000/svg">
<path d="M3.5 4C2.67188 4 2 4.67188 2 5.5V18.5C2 19.3281 2.67188 20 3.5 20H6.5V17.5C6.5 16.6719 7.17188 16 8 16C8.82812 16 9.5 16.6719 9.5 17.5V20H12.5C13.3281 20 14 19.3281 14 18.5V5.5C14 4.67188 13.3281 4 12.5 4H3.5ZM4 11.5C4 11.225 4.225 11 4.5 11H5.5C5.775 11 6 11.225 6 11.5V12.5C6 12.775 5.775 13 5.5 13H4.5C4.225 13 4 12.775 4 12.5V11.5ZM7.5 11H8.5C8.775 11 9 11.225 9 11.5V12.5C9 12.775 8.775 13 8.5 13H7.5C7.225 13 7 12.775 7 12.5V11.5C7 11.225 7.225 11 7.5 11ZM10 11.5C10 11.225 10.225 11 10.5 11H11.5C11.775 11 12 11.225 12 11.5V12.5C12 12.775 11.775 13 11.5 13H10.5C10.225 13 10 12.775 10 12.5V11.5ZM4.5 7H5.5C5.775 7 6 7.225 6 7.5V8.5C6 8.775 5.775 9 5.5 9H4.5C4.225 9 4 8.775 4 8.5V7.5C4 7.225 4.225 7 4.5 7ZM7 7.5C7 7.225 7.225 7 7.5 7H8.5C8.775 7 9 7.225 9 7.5V8.5C9 8.775 8.775 9 8.5 9H7.5C7.225 9 7 8.775 7 8.5V7.5ZM10.5 7H11.5C11.775 7 12 7.225 12 7.5V8.5C12 8.775 11.775 9 11.5 9H10.5C10.225 9 10 8.775 10 8.5V7.5C10 7.225 10.225 7 10.5 7ZM16 4C15.4469 4 15 4.44687 15 5V20H17V10H21.5C21.775 10 22 9.775 22 9.5V5.5C22 5.225 21.775 5 21.5 5H17C17 4.44687 16.5531 4 16 4Z" fill="black"/>
</svg>
