<svg width="24" height="24" viewBox="0 0 24 24" fill="none" xmlns="http://www.w3.org/2000/svg">
<path d="M5 6C5 5.44687 5.44687 5 6 5H15C15.5531 5 16 5.44687 16 6V7H17.6C18.925 7 20 8.075 20 9.4V12.5906C20 13.5406 19.4406 14.4 18.575 14.7844L16 15.9281V17C16 18.1031 15.1031 19 14 19H7C5.89688 19 5 18.1031 5 17V6ZM16 13.7375L17.7625 12.9531C17.9062 12.8875 18 12.7469 18 12.5875V9.4C18 9.17813 17.8219 9 17.6 9H16V13.7375ZM9 8.5C9 8.225 8.775 8 8.5 8C8.225 8 8 8.225 8 8.5V15.5C8 15.775 8.225 16 8.5 16C8.775 16 9 15.775 9 15.5V8.5ZM11 8.5C11 8.225 10.775 8 10.5 8C10.225 8 10 8.225 10 8.5V15.5C10 15.775 10.225 16 10.5 16C10.775 16 11 15.775 11 15.5V8.5ZM13 8.5C13 8.225 12.775 8 12.5 8C12.225 8 12 8.225 12 8.5V15.5C12 15.775 12.225 16 12.5 16C12.775 16 13 15.775 13 15.5V8.5Z" fill="black"/>
</svg>
