<svg width="24" height="24" viewBox="0 0 24 24" fill="none" xmlns="http://www.w3.org/2000/svg">
<path d="M16.4999 5V9H16.9999C17.5531 9 17.9999 9.44687 17.9999 10C17.9999 10.5531 17.5531 11 16.9999 11H15.4999H13.9999C13.4468 11 12.9999 10.5531 12.9999 10C12.9999 9.44687 13.4468 9 13.9999 9H14.4999V6.3875L14.3156 6.45C13.7906 6.625 13.2249 6.34063 13.0499 5.81875C12.8749 5.29688 13.1593 4.72813 13.6812 4.55313L15.1812 4.05313C15.4874 3.95 15.8249 4 16.0843 4.1875C16.3437 4.375 16.4999 4.67812 16.4999 5ZM9.49994 14V18H9.99994C10.5531 18 10.9999 18.4469 10.9999 19C10.9999 19.5531 10.5531 20 9.99994 20H8.49994H6.99994C6.44682 20 5.99994 19.5531 5.99994 19C5.99994 18.4469 6.44682 18 6.99994 18H7.49994V15.3875L7.31557 15.45C6.79057 15.625 6.22494 15.3406 6.04994 14.8188C5.87494 14.2969 6.15932 13.7281 6.68119 13.5531L8.18119 13.0531C8.48744 12.95 8.82182 13.0031 9.08119 13.1906C9.34057 13.3781 9.49682 13.6813 9.49682 14.0031L9.49994 14ZM5.99994 6C5.99994 4.89688 6.89682 4 7.99994 4H9.99994C11.1031 4 11.9999 4.89688 11.9999 6V9C11.9999 10.1031 11.1031 11 9.99994 11H7.99994C6.89682 11 5.99994 10.1031 5.99994 9V6ZM9.99994 6H7.99994V9H9.99994V6ZM13.9999 13H15.9999C17.1031 13 17.9999 13.8969 17.9999 15V18C17.9999 19.1031 17.1031 20 15.9999 20H13.9999C12.8968 20 11.9999 19.1031 11.9999 18V15C11.9999 13.8969 12.8968 13 13.9999 13ZM13.9999 15V18H15.9999V15H13.9999Z" fill="black"/>
</svg>
