<svg width="24" height="24" viewBox="0 0 24 24" fill="none" xmlns="http://www.w3.org/2000/svg">
<path d="M8 8.75V9H6.5V8.75C6.5 6.12812 8.62812 4 11.25 4H12.75C15.3719 4 17.5 6.12812 17.5 8.75V9H16V8.75C16 6.95625 14.5438 5.5 12.75 5.5H11.25C9.45625 5.5 8 6.95625 8 8.75ZM5 11C5 10.4469 5.44687 10 6 10H18C18.5531 10 19 10.4469 19 11C19 11.5531 18.5531 12 18 12H17.8406L17.1406 18.6562C17.0594 19.4187 16.4156 20 15.65 20H8.35C7.58125 20 6.9375 19.4219 6.85938 18.6562L6.15937 12H6C5.44687 12 5 11.5531 5 11Z" fill="black"/>
</svg>
