<svg width="24" height="24" viewBox="0 0 24 24" fill="none" xmlns="http://www.w3.org/2000/svg">
<path d="M4 5C3.44687 5 3 5.44687 3 6C3 6.55313 3.44687 7 4 7H5.25V9H3V13C4.65625 13 6 14.3438 6 16V18C6 18.5531 6.44687 19 7 19H8C8.55313 19 9 18.5531 9 18V16C9 14.3438 10.3438 13 12 13C13.6562 13 15 14.3438 15 16V18C15 18.5531 15.4469 19 16 19H17C17.5531 19 18 18.5531 18 18V16C18 14.3438 19.3438 13 21 13V9H18.75V7H20C20.5531 7 21 6.55313 21 6C21 5.44687 20.5531 5 20 5H4ZM17.25 7V9H14.75V7H17.25ZM13.25 7V9H10.75V7H13.25ZM9.25 7V9H6.75V7H9.25Z" fill="black"/>
</svg>
