<svg width="24" height="24" viewBox="0 0 24 24" fill="none" xmlns="http://www.w3.org/2000/svg">
<path d="M19.7063 4.29376C19.3156 3.90314 18.6812 3.90314 18.2906 4.29376L14.2906 8.29376L13.7969 7.80001C13.3219 7.32501 12.5938 7.22501 12.0063 7.55001L10.9906 8.11251L15.8875 13.0031L16.45 11.9875C16.775 11.4031 16.6719 10.6719 16.2 10.1969L15.7063 9.70314L19.7063 5.70314C20.0969 5.31251 20.0969 4.67814 19.7063 4.28751V4.29376ZM9.85938 8.74376L4.5125 11.7156C4.19687 11.8906 4 12.225 4 12.5875C4 12.8531 4.10625 13.1063 4.29063 13.2938L5.64062 14.6438C5.70625 14.7094 5.80625 14.7344 5.89688 14.7031L7.525 14.1594C7.72188 14.0938 7.90625 14.2813 7.84063 14.475L7.29688 16.1031C7.26562 16.1938 7.29063 16.2906 7.35625 16.3594L10.7094 19.7094C10.8969 19.8969 11.15 20 11.4156 20C11.7781 20 12.1125 19.8031 12.2875 19.4875L15.2594 14.1406L9.85938 8.74376Z" fill="black"/>
</svg>
