<svg width="24" height="24" viewBox="0 0 24 24" fill="none" xmlns="http://www.w3.org/2000/svg">
<path d="M8.14073 7.35605L9.18448 5.05918C9.35635 4.68105 9.1876 4.2373 8.8126 4.06543C8.4376 3.89355 7.99073 4.0623 7.81885 4.4373L7.0001 6.24043L6.18448 4.44043C6.0126 4.0623 5.56573 3.89668 5.19073 4.06543C4.81573 4.23418 4.64698 4.68418 4.81573 5.05918L5.85948 7.35605C5.54073 7.57793 5.29073 7.8873 5.14385 8.2498H4.6126L4.48448 7.60293C4.40323 7.19668 4.00948 6.93418 3.60323 7.01543C3.19698 7.09668 2.93448 7.49043 3.01573 7.89668L3.26573 9.14668C3.33448 9.49668 3.64385 9.7498 4.0001 9.7498H5.0001V10.4779L3.81885 10.7748C3.52198 10.8498 3.3001 11.0936 3.25948 11.3967L3.00948 13.1467C2.9501 13.5561 3.23448 13.9373 3.64698 13.9967C4.05948 14.0561 4.4376 13.7717 4.49698 13.3592L4.6751 12.1092L5.2501 11.9654C5.58448 12.5811 6.24385 12.9998 7.0001 12.9998C7.75635 12.9998 8.41573 12.5811 8.75323 11.9623L9.32823 12.1061L9.50635 13.3561C9.56573 13.7654 9.94385 14.0498 10.3564 13.9936C10.7689 13.9373 11.0501 13.5561 10.9939 13.1436L10.7439 11.3936C10.7001 11.0904 10.4782 10.8467 10.1845 10.7717L9.0001 10.4779V9.7498H10.0001C10.3564 9.7498 10.6657 9.49668 10.7345 9.14668L10.9845 7.89668C11.0657 7.49043 10.8032 7.09668 10.397 7.01543C9.99073 6.93418 9.59698 7.19668 9.51573 7.60293L9.38448 8.2498H8.85323C8.70635 7.8873 8.45635 7.57793 8.1376 7.35605H8.14073ZM18.5001 12.9529L20.5501 11.4842C20.8876 11.2436 20.9657 10.7748 20.7251 10.4373C20.4845 10.0998 20.0157 10.0217 19.6782 10.2623L18.072 11.4123L18.2626 9.44668C18.3032 9.03418 18.0001 8.66855 17.5876 8.62793C17.1751 8.5873 16.8095 8.89043 16.7689 9.30293L16.5251 11.8123C16.1407 11.8436 15.7689 11.9873 15.4595 12.2279L15.0001 11.9623L15.2126 11.3373C15.3439 10.9436 15.1345 10.5186 14.7439 10.3873C14.3532 10.2561 13.9251 10.4654 13.7939 10.8561L13.3845 12.0623C13.2689 12.3998 13.4095 12.7748 13.7189 12.9529L14.5845 13.4529L14.2189 14.0842L13.047 13.7498C12.7532 13.6654 12.4376 13.7686 12.2501 14.0092L11.1595 15.3998C10.9032 15.7248 10.9595 16.1967 11.2876 16.4529C11.6157 16.7092 12.0845 16.6529 12.3407 16.3248L13.122 15.3311L13.6907 15.4936C13.6751 16.1998 14.0345 16.8904 14.6907 17.2686C15.347 17.6467 16.1251 17.6123 16.7282 17.2467L17.1532 17.6592L16.6814 18.8311C16.5282 19.2154 16.7126 19.6529 17.097 19.8061C17.4814 19.9592 17.9189 19.7748 18.072 19.3904L18.7345 17.7498C18.847 17.4654 18.7782 17.1436 18.5595 16.9311L17.6845 16.0842L18.047 15.4561L18.9126 15.9561C19.222 16.1342 19.6157 16.0717 19.8501 15.8029L20.6939 14.8436C20.9657 14.5311 20.9376 14.0592 20.6251 13.7842C20.3126 13.5092 19.8407 13.5404 19.5657 13.8529L19.1314 14.3498L18.672 14.0842C18.7251 13.6967 18.6657 13.3029 18.5001 12.9529Z" fill="black"/>
</svg>
