<svg width="24" height="24" viewBox="0 0 24 24" fill="none" xmlns="http://www.w3.org/2000/svg">
<path d="M12 4C11.4469 4 11 4.44687 11 5V13.2688C10.4031 13.6156 10 14.2594 10 15C10 16.1031 10.8969 17 12 17C13.1031 17 14 16.1031 14 15C14 14.2594 13.5969 13.6125 13 13.2688V5C13 4.44687 12.5531 4 12 4ZM5.5 8C4.67188 8 4 8.67188 4 9.5V18.5C4 19.3281 4.67188 20 5.5 20H18.5C19.3281 20 20 19.3281 20 18.5V9.5C20 8.67188 19.3281 8 18.5 8H16C15.4469 8 15 8.44688 15 9V15C15 16.6562 13.6562 18 12 18C10.3438 18 9 16.6562 9 15V9C9 8.44688 8.55312 8 8 8H5.5Z" fill="black"/>
</svg>
