<svg width="24" height="24" viewBox="0 0 24 24" fill="none" xmlns="http://www.w3.org/2000/svg">
<path d="M7 6.41563C7 6.1875 7.18438 6 7.41563 6C7.525 6 7.63125 6.04375 7.70937 6.12188L8.175 6.5875C8.0625 6.86875 8 7.17812 8 7.5C8 8.12187 8.225 8.6875 8.6 9.125C8.43437 9.4125 8.475 9.78437 8.71875 10.0312C9.0125 10.325 9.4875 10.325 9.77812 10.0312L13.0312 6.78125C13.325 6.4875 13.325 6.0125 13.0312 5.72187C12.7844 5.475 12.4125 5.4375 12.125 5.60312C11.6875 5.225 11.1219 5 10.5 5C10.1781 5 9.86875 5.0625 9.5875 5.17188L9.12187 4.70625C8.66875 4.25313 8.05313 4 7.41563 4C6.08125 4 5 5.08125 5 6.41563V12C4.44687 12 4 12.4469 4 13C4 13.5531 4.44687 14 5 14H19C19.5531 14 20 13.5531 20 13C20 12.4469 19.5531 12 19 12H7V6.41563ZM5 15V15.5C5 16.3875 5.3875 17.1875 6 17.7375V19C6 19.5531 6.44687 20 7 20C7.55313 20 8 19.5531 8 19V18.5H16V19C16 19.5531 16.4469 20 17 20C17.5531 20 18 19.5531 18 19V17.7375C18.6125 17.1875 19 16.3906 19 15.5V15H5Z" fill="black"/>
</svg>
