<svg width="24" height="24" viewBox="0 0 24 24" fill="none" xmlns="http://www.w3.org/2000/svg">
<path d="M11.6061 4.08127L4.60612 7.08127C4.16862 7.26877 3.92487 7.73752 4.02175 8.20002C4.11862 8.66252 4.52487 9.00002 4.99987 9.00002V9.25002C4.99987 9.66565 5.33425 10 5.74987 10H18.2499C18.6655 10 18.9999 9.66565 18.9999 9.25002V9.00002C19.4749 9.00002 19.8842 8.66565 19.978 8.20002C20.0717 7.7344 19.828 7.26565 19.3936 7.08127L12.3936 4.08127C12.1436 3.97502 11.8561 3.97502 11.6061 4.08127ZM7.99987 11H5.99987V17.1344C5.98112 17.1438 5.96237 17.1563 5.94362 17.1688L4.44362 18.1688C4.078 18.4125 3.91237 18.8688 4.0405 19.2906C4.16862 19.7125 4.55925 20 4.99987 20H18.9999C19.4405 20 19.828 19.7125 19.9561 19.2906C20.0842 18.8688 19.9217 18.4125 19.553 18.1688L18.053 17.1688C18.0342 17.1563 18.0155 17.1469 17.9967 17.1344V11H15.9999V17H14.7499V11H12.7499V17H11.2499V11H9.24987V17H7.99987V11ZM11.9999 6.00002C12.2651 6.00002 12.5194 6.10538 12.707 6.29292C12.8945 6.48045 12.9999 6.73481 12.9999 7.00002C12.9999 7.26524 12.8945 7.51959 12.707 7.70713C12.5194 7.89467 12.2651 8.00002 11.9999 8.00002C11.7347 8.00002 11.4803 7.89467 11.2928 7.70713C11.1052 7.51959 10.9999 7.26524 10.9999 7.00002C10.9999 6.73481 11.1052 6.48045 11.2928 6.29292C11.4803 6.10538 11.7347 6.00002 11.9999 6.00002Z" fill="black"/>
</svg>
