<svg width="24" height="24" viewBox="0 0 24 24" fill="none" xmlns="http://www.w3.org/2000/svg">
<path d="M18.3594 17.7688C18.6562 18.0157 19.0719 18.0719 19.425 17.9063C19.7781 17.7407 20 17.3876 20 17.0001V7.00006C20 6.61256 19.775 6.25943 19.425 6.09381C19.075 5.92818 18.6594 5.98131 18.3594 6.23131L13 10.6969V12.0001V13.3032L18.3594 17.7688ZM12 15.0001V12.0001V8.00006V7.00006C12 6.61256 11.775 6.25943 11.425 6.09381C11.075 5.92818 10.6594 5.98131 10.3594 6.23131L4.35938 11.2313C4.13125 11.4219 4 11.7032 4 12.0001C4 12.2969 4.13125 12.5782 4.35938 12.7688L10.3594 17.7688C10.6562 18.0157 11.0719 18.0719 11.425 17.9063C11.7781 17.7407 12 17.3876 12 17.0001V15.0001Z" fill="black"/>
</svg>
