<svg width="24" height="24" viewBox="0 0 24 24" fill="none" xmlns="http://www.w3.org/2000/svg">
<path d="M6.75 4H9.25C9.66563 4 10 4.33437 10 4.75V5C10.275 5 10.5 5.225 10.5 5.5C10.5 5.775 10.275 6 10 6H6C5.725 6 5.5 5.775 5.5 5.5C5.5 5.225 5.725 5 6 5V4.75C6 4.33437 6.33437 4 6.75 4ZM3 10C3 8.34375 4.34375 7 6 7H10C10.7781 7 11.4875 7.29688 12.0188 7.78125C12.0531 7.8125 12.0875 7.84375 12.1187 7.87812C12.6656 8.42187 13 9.17188 13 10H3ZM14 10C14 8.72812 13.4062 7.59687 12.4812 6.8625C12.6437 6.6875 12.8406 6.54062 13.0625 6.4375L13.475 6.24375C13.6406 6.16563 13.8125 6.10625 13.9875 6.06562V4.75C13.9875 4.33437 14.3219 4 14.7375 4H17.2375C17.6531 4 17.9875 4.33437 17.9875 4.75V6.06562C18.1625 6.10625 18.3344 6.16563 18.5 6.24375L18.9125 6.4375C19.5688 6.74687 19.9875 7.40625 19.9875 8.13125C19.9875 8.51562 19.8719 8.875 19.6719 9.17188C19.8281 9.41563 19.9344 9.7 19.9719 10H14ZM2 12C2 11.4469 2.44687 11 3 11H21C21.5531 11 22 11.4469 22 12C22 12.5531 21.5531 13 21 13L20.2437 18.2812C20.1031 19.2656 19.2594 20 18.2625 20H5.73125C4.7375 20 3.89062 19.2688 3.75 18.2812L3 13C2.44687 13 2 12.5531 2 12Z" fill="black"/>
</svg>
