<svg width="24" height="24" viewBox="0 0 24 24" fill="none" xmlns="http://www.w3.org/2000/svg">
<path d="M22 10.5C22 14.0906 19.0906 17 15.5 17C15.3781 17 15.2594 16.9969 15.1406 16.9906C15.3438 16.6063 15.5156 16.2 15.65 15.7781C15.7969 15.7562 15.9406 15.7 16.0656 15.6125L16.7188 15.1656C16.8781 15.0562 17.0625 14.9969 17.2563 14.9906L18.0469 14.9688C18.4594 14.9563 18.8219 14.6938 18.9625 14.3031L19.2281 13.5562C19.2937 13.375 19.4094 13.2156 19.5594 13.1L20.1875 12.6187C20.5156 12.3656 20.6531 11.9406 20.5375 11.5437L20.3125 10.7812C20.2594 10.5969 20.2594 10.4 20.3125 10.2156L20.5375 9.45625C20.6531 9.05938 20.5156 8.63438 20.1875 8.38125L19.5594 7.89687C19.4062 7.77812 19.2906 7.62188 19.2281 7.44062L18.9625 6.69375C18.825 6.30312 18.4594 6.04063 18.0469 6.02813L17.2563 6.00625C17.0625 6 16.8781 5.94062 16.7188 5.83125L16.0656 5.3875C15.725 5.15313 15.275 5.15313 14.9344 5.3875L14.2812 5.83438C14.1219 5.94375 13.9375 6.00313 13.7437 6.00938L12.9531 6.03125C12.5406 6.04375 12.1781 6.30625 12.0375 6.69688L11.9812 6.85625C11.5312 6.61875 11.0531 6.42812 10.5531 6.28437C11.7438 4.8875 13.5188 4 15.5 4C19.0906 4 22 6.90937 22 10.5ZM14.3781 8.84375C14.6969 8.62813 15.0844 8.5 15.5 8.5C16.6031 8.5 17.5 9.39687 17.5 10.5C17.5 11.4563 16.8281 12.2594 15.9281 12.4531C15.7406 11.1 15.1906 9.8625 14.3813 8.84062L14.3781 8.84375ZM2 13.5C2 11.7761 2.68482 10.1228 3.90381 8.90381C5.12279 7.68482 6.77609 7 8.5 7C10.2239 7 11.8772 7.68482 13.0962 8.90381C14.3152 10.1228 15 11.7761 15 13.5C15 15.2239 14.3152 16.8772 13.0962 18.0962C11.8772 19.3152 10.2239 20 8.5 20C6.77609 20 5.12279 19.3152 3.90381 18.0962C2.68482 16.8772 2 15.2239 2 13.5ZM10 13.5C10 13.1022 9.84196 12.7206 9.56066 12.4393C9.27936 12.158 8.89782 12 8.5 12C8.10218 12 7.72064 12.158 7.43934 12.4393C7.15804 12.7206 7 13.1022 7 13.5C7 13.8978 7.15804 14.2794 7.43934 14.5607C7.72064 14.842 8.10218 15 8.5 15C8.89782 15 9.27936 14.842 9.56066 14.5607C9.84196 14.2794 10 13.8978 10 13.5ZM5.5 17C5.63261 17 5.75979 16.9473 5.85355 16.8536C5.94732 16.7598 6 16.6326 6 16.5C6 16.3674 5.94732 16.2402 5.85355 16.1464C5.75979 16.0527 5.63261 16 5.5 16C5.36739 16 5.24021 16.0527 5.14645 16.1464C5.05268 16.2402 5 16.3674 5 16.5C5 16.6326 5.05268 16.7598 5.14645 16.8536C5.24021 16.9473 5.36739 17 5.5 17ZM10 17.5C10 17.3674 9.94732 17.2402 9.85355 17.1464C9.75979 17.0527 9.63261 17 9.5 17C9.36739 17 9.24021 17.0527 9.14645 17.1464C9.05268 17.2402 9 17.3674 9 17.5C9 17.6326 9.05268 17.7598 9.14645 17.8536C9.24021 17.9473 9.36739 18 9.5 18C9.63261 18 9.75979 17.9473 9.85355 17.8536C9.94732 17.7598 10 17.6326 10 17.5ZM11.5 17C11.6326 17 11.7598 16.9473 11.8536 16.8536C11.9473 16.7598 12 16.6326 12 16.5C12 16.3674 11.9473 16.2402 11.8536 16.1464C11.7598 16.0527 11.6326 16 11.5 16C11.3674 16 11.2402 16.0527 11.1464 16.1464C11.0527 16.2402 11 16.3674 11 16.5C11 16.6326 11.0527 16.7598 11.1464 16.8536C11.2402 16.9473 11.3674 17 11.5 17ZM12 11.5C12 11.3674 11.9473 11.2402 11.8536 11.1464C11.7598 11.0527 11.6326 11 11.5 11C11.3674 11 11.2402 11.0527 11.1464 11.1464C11.0527 11.2402 11 11.3674 11 11.5C11 11.6326 11.0527 11.7598 11.1464 11.8536C11.2402 11.9473 11.3674 12 11.5 12C11.6326 12 11.7598 11.9473 11.8536 11.8536C11.9473 11.7598 12 11.6326 12 11.5ZM6.5 11C6.63261 11 6.75979 10.9473 6.85355 10.8536C6.94732 10.7598 7 10.6326 7 10.5C7 10.3674 6.94732 10.2402 6.85355 10.1464C6.75979 10.0527 6.63261 10 6.5 10C6.36739 10 6.24021 10.0527 6.14645 10.1464C6.05268 10.2402 6 10.3674 6 10.5C6 10.6326 6.05268 10.7598 6.14645 10.8536C6.24021 10.9473 6.36739 11 6.5 11ZM5 12.5C5 12.3674 4.94732 12.2402 4.85355 12.1464C4.75979 12.0527 4.63261 12 4.5 12C4.36739 12 4.24021 12.0527 4.14645 12.1464C4.05268 12.2402 4 12.3674 4 12.5C4 12.6326 4.05268 12.7598 4.14645 12.8536C4.24021 12.9473 4.36739 13 4.5 13C4.63261 13 4.75979 12.9473 4.85355 12.8536C4.94732 12.7598 5 12.6326 5 12.5Z" fill="black"/>
</svg>
