<svg width="24" height="24" viewBox="0 0 24 24" fill="none" xmlns="http://www.w3.org/2000/svg">
<path d="M5 7C5 5.34375 6.34375 4 8 4H17H18C18.5531 4 19 4.44687 19 5V15C19 15.5531 18.5531 16 18 16V18C18.5531 18 19 18.4469 19 19C19 19.5531 18.5531 20 18 20H17H8C6.34375 20 5 18.6562 5 17V7ZM7 17C7 17.5531 7.44687 18 8 18H16V16H8C7.44687 16 7 16.4469 7 17ZM9.825 9.675L9.1625 9.0125C9.06875 9.32812 9.00313 9.65625 9.00313 10C9.00313 10.0063 9.00312 10.0156 9.00625 10.025C9.00937 10.0344 9.00938 10.0406 9.00938 10.05L10.1625 11.0625C10.2406 11.1281 10.2688 11.2437 10.2344 11.3406C10.1938 11.4344 10.1063 11.5 10 11.5C9.94063 11.4969 9.88125 11.475 9.8375 11.4375L9.1 10.7937C9.4625 12.3437 10.8406 13.5 12.5 13.5C14.1594 13.5 15.5406 12.3437 15.9031 10.7937L15.1656 11.4375C15.1219 11.475 15.0625 11.5 15 11.5C14.9312 11.4969 14.8625 11.4656 14.8125 11.4125C14.775 11.3656 14.7531 11.3062 14.75 11.25C14.7531 11.1812 14.7844 11.1125 14.8375 11.0625L15.9969 10.0469C15.9969 10.0375 15.9969 10.0312 16 10.0219C16.0031 10.0125 16.0031 10.0062 16.0031 9.99687C16.0031 9.65312 15.9375 9.325 15.8438 9.00938L15.1812 9.67188C15.0844 9.76875 14.9281 9.76875 14.8281 9.67188C14.7281 9.575 14.7313 9.41875 14.8281 9.32188L15.6531 8.49375C15.3969 7.9625 15.0125 7.50312 14.5312 7.1625C14.4469 7.10312 14.3375 7.20625 14.375 7.30312C14.6406 8.00312 14.4875 8.80313 13.9688 9.35313C13.8687 9.45938 13.8563 9.63125 13.9406 9.75C14.2469 10.1875 14.3375 10.7469 14.175 11.2656C13.9906 11.8719 13.4875 12.3312 12.8656 12.4625L12.8219 11.3906L13.2156 11.6594C13.2344 11.6719 13.2625 11.6781 13.2875 11.6781C13.3344 11.6781 13.3719 11.6531 13.3969 11.6156C13.4219 11.5781 13.4156 11.5281 13.3938 11.4906L13.125 11.0437L13.6875 10.9313C13.7437 10.9188 13.7844 10.8656 13.7844 10.8063C13.7844 10.7469 13.7406 10.6969 13.6875 10.6844L13.125 10.5687L13.3906 10.1219C13.4156 10.0844 13.4188 10.0313 13.3938 9.99375C13.3688 9.95625 13.3313 9.93125 13.2844 9.93125H13.2812C13.2594 9.93438 13.2344 9.94062 13.2156 9.95312L12.775 10.2531L12.625 6.74688C12.6219 6.67813 12.5656 6.625 12.5 6.625C12.4344 6.625 12.3781 6.675 12.375 6.74688L12.2312 10.2094L11.8562 9.95625C11.8094 9.92188 11.7437 9.92813 11.7 9.96875C11.6562 10.0094 11.65 10.075 11.675 10.125L11.9437 10.5719L11.3812 10.6875C11.325 10.7 11.2844 10.75 11.2844 10.8094C11.2844 10.8687 11.3281 10.9219 11.3812 10.9344L11.9437 11.0531L11.675 11.4969C11.6688 11.5156 11.6594 11.5406 11.6594 11.5594C11.6594 11.5937 11.675 11.625 11.6969 11.6531C11.7219 11.6719 11.7531 11.6844 11.7844 11.6844C11.8063 11.6844 11.8344 11.6781 11.8531 11.6656L12.1781 11.4437L12.1344 12.4688C11.5125 12.3406 11.0094 11.8781 10.825 11.2719C10.6656 10.7531 10.7562 10.1969 11.0625 9.75625C11.1469 9.63437 11.1344 9.46563 11.0344 9.35938C10.5156 8.8125 10.3594 8.0125 10.625 7.3125C10.6625 7.21563 10.5531 7.1125 10.4688 7.17188C9.99062 7.5125 9.60625 7.97188 9.35 8.50313L10.175 9.33125C10.2719 9.42813 10.2719 9.58438 10.175 9.68125C10.0781 9.77813 9.92187 9.77813 9.825 9.68125V9.675Z" fill="black"/>
</svg>
