<svg width="24" height="24" viewBox="0 0 24 24" fill="none" xmlns="http://www.w3.org/2000/svg">
<path d="M11 6.5V5C11 4.44687 11.4469 4 12 4C12.5531 4 13 4.44687 13 5V6.5C13 7.05312 12.5531 7.5 12 7.5C11.4469 7.5 11 7.05312 11 6.5ZM9 12C9 11.2044 9.31607 10.4413 9.87868 9.87868C10.4413 9.31607 11.2044 9 12 9C12.7956 9 13.5587 9.31607 14.1213 9.87868C14.6839 10.4413 15 11.2044 15 12C15 12.7956 14.6839 13.5587 14.1213 14.1213C13.5587 14.6839 12.7956 15 12 15C11.2044 15 10.4413 14.6839 9.87868 14.1213C9.31607 13.5587 9 12.7956 9 12ZM4 12C4 11.4469 4.44687 11 5 11H6.5C7.05312 11 7.5 11.4469 7.5 12C7.5 12.5531 7.05312 13 6.5 13H5C4.44687 13 4 12.5531 4 12ZM17.5 11H19C19.5531 11 20 11.4469 20 12C20 12.5531 19.5531 13 19 13H17.5C16.9469 13 16.5 12.5531 16.5 12C16.5 11.4469 16.9469 11 17.5 11ZM12 20C11.4469 20 11 19.5531 11 19V17.5C11 16.9469 11.4469 16.5 12 16.5C12.5531 16.5 13 16.9469 13 17.5V19C13 19.5531 12.5531 20 12 20ZM6.29375 17.7063C5.90313 17.3156 5.90313 16.6812 6.29375 16.2906L7.29375 15.2906C7.68438 14.9 8.31875 14.9 8.70937 15.2906C9.1 15.6812 9.1 16.3156 8.70937 16.7063L7.70937 17.7063C7.31875 18.0969 6.68438 18.0969 6.29375 17.7063ZM15.2937 7.29063L16.2937 6.29063C16.6844 5.9 17.3188 5.9 17.7094 6.29063C18.1 6.68125 18.1 7.31562 17.7094 7.70625L16.7094 8.70625C16.3188 9.09688 15.6844 9.09688 15.2937 8.70625C14.9031 8.31563 14.9031 7.68125 15.2937 7.29063ZM17.7094 17.7063C17.3188 18.0969 16.6844 18.0969 16.2937 17.7063L15.2937 16.7063C14.9031 16.3156 14.9031 15.6812 15.2937 15.2906C15.6844 14.9 16.3188 14.9 16.7094 15.2906L17.7094 16.2906C18.1 16.6812 18.1 17.3156 17.7094 17.7063ZM7.29375 8.70625L6.29375 7.70625C5.90313 7.31562 5.90313 6.68125 6.29375 6.29063C6.68438 5.9 7.31875 5.9 7.70937 6.29063L8.70937 7.29063C9.1 7.68125 9.1 8.31563 8.70937 8.70625C8.31875 9.09688 7.68438 9.09688 7.29375 8.70625Z" fill="black"/>
</svg>
