<svg width="24" height="24" viewBox="0 0 24 24" fill="none" xmlns="http://www.w3.org/2000/svg">
<path d="M10.75 4H9.5C8.67188 4 8 4.67188 8 5.5V9C8 10.1031 8.89688 11 10 11H14C15.1031 11 16 10.1031 16 9V5.5C16 4.67188 15.3281 4 14.5 4H13.25V6.5C13.25 6.775 13.025 7 12.75 7H11.25C10.975 7 10.75 6.775 10.75 6.5V4ZM5 12C3.89688 12 3 12.8969 3 14V18C3 19.1031 3.89688 20 5 20H10C11.1031 20 12 19.1031 12 18V14C12 12.8969 11.1031 12 10 12H8.75V14.5C8.75 14.775 8.525 15 8.25 15H6.75C6.475 15 6.25 14.775 6.25 14.5V12H5ZM14 20H19C20.1031 20 21 19.1031 21 18V14C21 12.8969 20.1031 12 19 12H17.75V14.5C17.75 14.775 17.525 15 17.25 15H15.75C15.475 15 15.25 14.775 15.25 14.5V12H14C13.5312 12 13.1 12.1594 12.7594 12.4312C12.9125 12.7562 13 13.1188 13 13.5V18.5C13 18.8812 12.9125 19.2438 12.7594 19.5688C13.1 19.8406 13.5312 20 14 20Z" fill="black"/>
</svg>
