<svg width="24" height="24" viewBox="0 0 24 24" fill="none" xmlns="http://www.w3.org/2000/svg">
<path d="M3.21268 4.15931C2.88768 3.90306 2.4158 3.96243 2.15955 4.28743C1.9033 4.61243 1.96268 5.08431 2.28768 5.34056L20.7877 19.8406C21.1127 20.0968 21.5846 20.0374 21.8408 19.7124C22.0971 19.3874 22.0377 18.9156 21.7127 18.6593L19.8346 17.1874C19.9408 16.9812 20.0002 16.7468 20.0002 16.4999C20.0002 15.6718 19.3283 14.9999 18.5002 14.9999C18.1221 14.9999 17.7783 15.1406 17.5158 15.3687L15.9064 14.1093C16.5971 13.0781 17.0002 11.8343 17.0002 10.4999C17.0002 6.90931 14.0908 3.99993 10.5002 3.99993C8.60018 3.99993 6.89393 4.81556 5.7033 6.11243L3.21268 4.15931ZM8.87518 8.59993C9.31268 8.22806 9.8783 7.99993 10.5002 7.99993C11.8814 7.99993 13.0002 9.11868 13.0002 10.4999C13.0002 10.9031 12.9033 11.2843 12.7346 11.6218L11.9189 10.9843C11.9721 10.8312 12.0002 10.6687 12.0002 10.4999C12.0002 9.67181 11.3283 8.99993 10.5002 8.99993C10.2033 8.99993 9.92518 9.08743 9.6908 9.23743L8.87518 8.59993ZM17.8846 19.5156L16.5564 18.4687C16.4564 18.4906 16.3564 18.4999 16.2502 18.4999H15.0002V17.2437L14.4971 16.8468C13.3408 17.5781 11.9689 17.9999 10.5002 17.9999C8.81268 17.9999 7.2533 17.4406 6.00018 16.4999V18.4999C6.00018 19.3281 6.67205 19.9999 7.50018 19.9999H14.0002H15.0002H16.2502C16.8533 19.9999 17.4158 19.8218 17.8846 19.5156ZM13.6564 16.1843L4.23455 8.76243C4.08143 9.31556 4.00018 9.89681 4.00018 10.4999C4.00018 14.0906 6.90955 16.9999 10.5002 16.9999C11.6471 16.9999 12.7221 16.7031 13.6564 16.1843Z" fill="black"/>
</svg>
