<svg width="24" height="24" viewBox="0 0 24 24" fill="none" xmlns="http://www.w3.org/2000/svg">
<path d="M9.14687 4.1469C9.34062 3.95315 9.65938 3.95315 9.85313 4.1469L10.9406 5.2344C11.2625 5.0844 11.6219 5.00002 12 5.00002C12.3781 5.00002 12.7375 5.0844 13.0594 5.2344L14.1469 4.1469C14.3406 3.95315 14.6594 3.95315 14.8531 4.1469C15.0469 4.34065 15.0469 4.6594 14.8531 4.85315L13.8687 5.83752C14.2625 6.28127 14.5 6.86252 14.5 7.50002C14.5 7.59377 14.4938 7.68752 14.4844 7.77815C15.1969 7.28127 16.0938 7.00002 17 7.00002C19.0312 7.00002 21 8.40315 21 10.5C21 12.4344 19.325 13.7782 17.4719 13.975C17.4906 13.8157 17.5 13.6563 17.5 13.5C17.5 12.975 17.425 12.4656 17.2875 11.9844C18.3875 11.8719 19 11.1125 19 10.5C19 9.8344 18.2844 9.00002 17 9.00002C15.9125 9.00002 15.2313 9.60002 15.05 10.1906C15.9438 11.0125 16.5 12.1906 16.5 13.5C16.5 16.1188 13.2625 19.1156 12.4406 19.8375C12.3188 19.9438 12.1625 20 12 20C11.8375 20 11.6812 19.9438 11.5594 19.8375C10.7375 19.1156 7.5 16.1188 7.5 13.5C7.5 12.1906 8.05937 11.0125 8.95 10.1906C8.76875 9.60002 8.0875 9.00002 7 9.00002C5.71563 9.00002 5 9.8344 5 10.5C5 11.1125 5.60938 11.8719 6.7125 11.9844C6.575 12.4656 6.5 12.975 6.5 13.5C6.5 13.6563 6.50938 13.8157 6.52813 13.975C4.675 13.7782 3 12.4344 3 10.5C3 8.40315 4.96875 7.00002 7 7.00002C7.90625 7.00002 8.80313 7.28127 9.51562 7.77815C9.50625 7.68752 9.5 7.59377 9.5 7.50002C9.5 6.86252 9.7375 6.28127 10.1312 5.83752L9.14687 4.85315C8.95312 4.6594 8.95312 4.34065 9.14687 4.1469ZM10.7969 16.15C11.1969 16.6625 11.625 17.1282 12 17.5063C12.375 17.1282 12.8031 16.6625 13.2031 16.15C13.2406 16.1 13.2813 16.05 13.3188 16H10.6813C10.7188 16.05 10.7563 16.1 10.7969 16.15ZM14.2375 14.5C14.4125 14.1063 14.5 13.7688 14.5 13.5H9.5C9.5 13.7688 9.5875 14.1063 9.7625 14.5H14.2375ZM14 12C13.5437 11.3938 12.8188 11 12 11C11.1812 11 10.4563 11.3938 10 12H14Z" fill="black"/>
</svg>
