<svg width="24" height="24" viewBox="0 0 24 24" fill="none" xmlns="http://www.w3.org/2000/svg">
<path d="M20.7062 4.29414C21.0969 4.68477 21.0969 5.31914 20.7062 5.70977L14.7063 11.7098L15.7906 12.7941C15.9219 12.9254 15.9969 13.1066 15.9969 13.2941C15.9969 13.6848 15.6812 14.0004 15.2906 14.0004H14.3844L11 10.616V9.70664C11 9.31602 11.3156 9.00039 11.7063 9.00039C11.8938 9.00039 12.075 9.07539 12.2063 9.20664L13.2906 10.291L19.2906 4.29102C19.6812 3.90039 20.3156 3.90039 20.7062 4.29102V4.29414ZM9.95625 11.341L13.6594 15.0441C13.775 16.3785 13.2937 17.7066 12.3375 18.6629C11.4812 19.5191 10.3188 20.0004 9.10938 20.0004H3.69063C3.30938 20.0004 3 19.691 3 19.3098C3 19.1129 3.08438 18.9254 3.22813 18.7941L7.17812 15.241C7.30937 15.1254 7.16563 14.916 7.00938 14.9941L5.4125 15.7941C5.22187 15.8879 5 15.7504 5 15.5379C5 14.5535 5.39063 13.6098 6.0875 12.9129L6.3375 12.6629C7.29375 11.7066 8.62188 11.2285 9.95625 11.341ZM17.5 15.0004C18.163 15.0004 18.7989 15.2638 19.2678 15.7326C19.7366 16.2015 20 16.8373 20 17.5004C20 18.1634 19.7366 18.7993 19.2678 19.2682C18.7989 19.737 18.163 20.0004 17.5 20.0004C16.837 20.0004 16.2011 19.737 15.7322 19.2682C15.2634 18.7993 15 18.1634 15 17.5004C15 16.8373 15.2634 16.2015 15.7322 15.7326C16.2011 15.2638 16.837 15.0004 17.5 15.0004Z" fill="black"/>
</svg>
