<svg width="24" height="24" viewBox="0 0 24 24" fill="none" xmlns="http://www.w3.org/2000/svg">
<path d="M9.14687 4.14678C9.34062 3.95303 9.65938 3.95303 9.85313 4.14678L10.9406 5.23428C11.2625 5.08428 11.6219 4.9999 12 4.9999C12.3781 4.9999 12.7375 5.08428 13.0594 5.23428L14.1469 4.14678C14.3406 3.95303 14.6594 3.95303 14.8531 4.14678C15.0469 4.34053 15.0469 4.65928 14.8531 4.85303L13.8687 5.8374C14.2625 6.28115 14.5 6.8624 14.5 7.4999C14.5 7.59365 14.4937 7.6874 14.4844 7.77803C15.1969 7.28115 16.0938 6.9999 17 6.9999C19.0312 6.9999 21 8.40303 21 10.4999C21 12.4343 19.325 13.778 17.4719 13.9749C17.4906 13.8155 17.5 13.6562 17.5 13.4999C17.5 12.9749 17.425 12.4655 17.2875 11.9843C18.3875 11.8718 19 11.1124 19 10.4999C19 9.83428 18.2844 8.9999 17 8.9999C15.9125 8.9999 15.2312 9.5999 15.05 10.1905C15.9438 11.0124 16.5 12.1905 16.5 13.4999C16.5 16.1187 13.2625 19.1155 12.4406 19.8374C12.3188 19.9437 12.1625 19.9999 12 19.9999C11.8375 19.9999 11.6812 19.9437 11.5594 19.8374C10.7375 19.1155 7.5 16.1187 7.5 13.4999C7.5 12.1905 8.05937 11.0124 8.95 10.1905C8.76875 9.5999 8.0875 8.9999 7 8.9999C5.71563 8.9999 5 9.83428 5 10.4999C5 11.1124 5.60938 11.8718 6.7125 11.9843C6.575 12.4655 6.5 12.9749 6.5 13.4999C6.5 13.6562 6.50938 13.8155 6.52813 13.9749C4.675 13.778 3 12.4343 3 10.4999C3 8.40303 4.96875 6.9999 7 6.9999C7.90625 6.9999 8.80312 7.28115 9.51562 7.77803C9.50625 7.6874 9.5 7.59365 9.5 7.4999C9.5 6.8624 9.7375 6.28115 10.1312 5.8374L9.14687 4.85303C8.95312 4.65928 8.95312 4.34053 9.14687 4.14678ZM10.7969 16.1499C11.1969 16.6624 11.625 17.128 12 17.5062C12.375 17.128 12.8031 16.6624 13.2031 16.1499C13.2406 16.0999 13.2812 16.0499 13.3188 15.9999H10.6813C10.7188 16.0499 10.7562 16.0999 10.7969 16.1499ZM14.2375 14.4999C14.4125 14.1062 14.5 13.7687 14.5 13.4999H9.5C9.5 13.7687 9.5875 14.1062 9.7625 14.4999H14.2375ZM14 11.9999C13.5437 11.3937 12.8188 10.9999 12 10.9999C11.1812 10.9999 10.4563 11.3937 10 11.9999H14Z" fill="black"/>
</svg>
