<svg width="24" height="24" viewBox="0 0 24 24" fill="none" xmlns="http://www.w3.org/2000/svg">
<path d="M12 4C11.4469 4 11 4.44687 11 5V5.6C8.71875 6.0625 7 8.08125 7 10.5V11.0875C7 12.5562 6.45937 13.975 5.48438 15.075L5.25312 15.3344C4.99062 15.6281 4.92813 16.05 5.0875 16.4094C5.24688 16.7688 5.60625 17 6 17H18C18.3937 17 18.75 16.7688 18.9125 16.4094C19.075 16.05 19.0094 15.6281 18.7469 15.3344L18.5156 15.075C17.5406 13.975 17 12.5594 17 11.0875V10.5C17 8.08125 15.2812 6.0625 13 5.6V5C13 4.44687 12.5531 4 12 4ZM13.4156 19.4156C13.7906 19.0406 14 18.5312 14 18H12H10C10 18.5312 10.2094 19.0406 10.5844 19.4156C10.9594 19.7906 11.4688 20 12 20C12.5312 20 13.0406 19.7906 13.4156 19.4156ZM2 10.25C2 10.6656 2.33437 11 2.75 11H5.25C5.66563 11 6 10.6656 6 10.25C6 9.83437 5.66563 9.5 5.25 9.5H2.75C2.33437 9.5 2 9.83437 2 10.25ZM18.75 9.5C18.3344 9.5 18 9.83437 18 10.25C18 10.6656 18.3344 11 18.75 11H21.25C21.6656 11 22 10.6656 22 10.25C22 9.83437 21.6656 9.5 21.25 9.5H18.75ZM20.6719 4.66562C20.4875 4.29375 20.0375 4.14375 19.6656 4.33125L17.6656 5.33125C17.2937 5.51562 17.1438 5.96563 17.3313 6.3375C17.5188 6.70938 17.9656 6.85938 18.3375 6.67188L20.3375 5.67188C20.7094 5.4875 20.8594 5.0375 20.6719 4.66562ZM3.66562 5.67188L5.66563 6.67188C6.0375 6.85625 6.4875 6.70625 6.67188 6.3375C6.85625 5.96875 6.70625 5.51562 6.3375 5.33125L4.3375 4.33125C3.96563 4.14375 3.51562 4.29375 3.32812 4.66562C3.14062 5.0375 3.29375 5.4875 3.6625 5.67188H3.66562Z" fill="black"/>
</svg>
