<svg width="24" height="24" viewBox="0 0 24 24" fill="none" xmlns="http://www.w3.org/2000/svg">
<path d="M9.9998 15.0008L9.14981 5.63521C9.06856 4.75709 9.75918 4.00084 10.6436 4.00084H19.6904C20.3498 4.00084 20.8279 4.62896 20.6561 5.26334L20.4529 6.00084H15.4998C15.2248 6.00084 14.9998 6.22584 14.9998 6.50084C14.9998 6.77584 15.2248 7.00084 15.4998 7.00084H20.1811L19.6342 9.00084H15.4998C15.2248 9.00084 14.9998 9.22584 14.9998 9.50084C14.9998 9.77584 15.2248 10.0008 15.4998 10.0008H19.3623L18.8154 12.0008H15.4998C15.2248 12.0008 14.9998 12.2258 14.9998 12.5008C14.9998 12.7758 15.2248 13.0008 15.4998 13.0008H18.5467L17.9998 15.0008H9.9998ZM9.4998 16.0008H18.4998C19.3279 16.0008 19.9998 16.6727 19.9998 17.5008V18.5008C19.9998 19.329 19.3279 20.0008 18.4998 20.0008H9.4998C8.67168 20.0008 7.9998 19.329 7.9998 18.5008V17.5008C7.9998 16.6727 8.67168 16.0008 9.4998 16.0008ZM13.9998 19.0008C14.265 19.0008 14.5194 18.8955 14.7069 18.7079C14.8944 18.5204 14.9998 18.2661 14.9998 18.0008C14.9998 17.7356 14.8944 17.4813 14.7069 17.2937C14.5194 17.1062 14.265 17.0008 13.9998 17.0008C13.7346 17.0008 13.4802 17.1062 13.2927 17.2937C13.1052 17.4813 12.9998 17.7356 12.9998 18.0008C12.9998 18.2661 13.1052 18.5204 13.2927 18.7079C13.4802 18.8955 13.7346 19.0008 13.9998 19.0008ZM7.60918 4.96021C7.94668 5.16959 8.08731 5.61646 7.94043 6.00396L7.25293 7.81021C7.12168 8.15084 6.79981 8.36021 6.46231 8.32271L5.42168 8.21021C4.99668 9.52896 4.99668 10.9727 5.42168 12.2946L6.46231 12.1821C6.80293 12.1446 7.12481 12.354 7.25293 12.6946L7.94043 14.5008C8.08731 14.8883 7.94668 15.3352 7.60918 15.5446L6.23418 16.3946C5.93105 16.5821 5.5498 16.5258 5.30293 16.2602C2.23105 12.9383 2.23105 7.56334 5.30293 4.24459C5.5498 3.97896 5.93105 3.92271 6.23418 4.11021L7.60918 4.96021Z" fill="black"/>
</svg>
