<svg width="24" height="24" viewBox="0 0 24 24" fill="none" xmlns="http://www.w3.org/2000/svg">
<path d="M6 4.25C6.28437 4.25 6.53125 4.40625 6.65937 4.64062C7.75625 6.55 9.80312 7.75 12 7.75C14.1969 7.75 16.2437 6.55 17.3406 4.64062C17.4687 4.40625 17.7156 4.25 18 4.25C18.275 4.25 18.5156 4.39687 18.6469 4.61875C19.0562 5.28125 19.4781 5.9375 19.9594 6.4875C20.4437 7.04062 20.95 7.44375 21.5031 7.64062C21.8937 7.78125 22.0937 8.20937 21.9531 8.6C21.8125 8.99062 21.3844 9.19063 20.9937 9.05C20.1969 8.7625 19.5437 8.24375 18.9969 7.65937V12H20.9969C21.55 12 21.9969 12.4469 21.9969 13V14C21.9969 14.5531 21.55 15 20.9969 15C19.8937 15 18.9969 15.8969 18.9969 17V19C18.9969 19.5531 18.55 20 17.9969 20H17C16.4469 20 16 19.5531 16 19V18C16 16.3438 14.6562 15 13 15H11C9.34375 15 8 16.3438 8 18V19C8 19.5531 7.55312 20 7 20H6C5.44687 20 5 19.5531 5 19V17C5 15.8969 4.10312 15 3 15C2.44687 15 2 14.5531 2 14V13C2 12.4469 2.44687 12 3 12H5V7.65937C4.45625 8.24375 3.8 8.7625 3.00312 9.05C2.6125 9.19063 2.18437 8.9875 2.04375 8.6C1.90312 8.2125 2.10625 7.78125 2.49375 7.64062C3.04687 7.44062 3.55312 7.0375 4.0375 6.4875C4.51875 5.9375 4.94375 5.28125 5.35 4.61875C5.48437 4.39687 5.725 4.25 6 4.25ZM17 7.37812C16.6125 7.7125 16.1937 8.00625 15.75 8.25938V12H17V7.37812ZM14.25 8.90938C13.7656 9.05938 13.2625 9.1625 12.75 9.21562V12H14.25V8.90625V8.90938ZM11.25 9.21562C10.7375 9.16562 10.2344 9.0625 9.75 8.90938V12.0031H11.25V9.2125V9.21562ZM8.25 8.2625C7.80625 8.0125 7.3875 7.71562 7 7.38125V12H8.25V8.25938V8.2625Z" fill="black"/>
</svg>
