<svg width="24" height="24" viewBox="0 0 24 24" fill="none" xmlns="http://www.w3.org/2000/svg">
<path d="M4.57812 7.90932L19.3844 5.59682C19.7375 5.54057 20 5.23745 20 4.87807C20 4.42182 19.5844 4.07807 19.1375 4.16245L4.40938 6.92495C4.17188 6.9687 4 7.17495 4 7.41557C4 7.72182 4.275 7.9562 4.57812 7.90932ZM4 8.9937C4 9.27495 4.22813 9.49995 4.50625 9.49995H19.2625C19.6687 9.49995 20 9.1687 20 8.76245C20 8.34682 19.6562 8.01245 19.2375 8.02495L4.49062 8.48432C4.21875 8.4937 4 8.7187 4 8.9937ZM5.05 10.9999C4.48125 10.9999 4.02812 11.4781 4.0625 12.0468C4.23125 14.9124 5.92812 17.3499 8.325 18.5999L8.3625 18.9031C8.44063 19.5281 8.97188 19.9968 9.60313 19.9968H14.3969C15.0281 19.9968 15.5594 19.5281 15.6375 18.9031L15.675 18.5999C18.075 17.3499 19.7688 14.9124 19.9375 12.0468C19.9719 11.4781 19.5188 10.9999 18.95 10.9999H5.05Z" fill="black"/>
</svg>
