<svg width="24" height="24" viewBox="0 0 24 24" fill="none" xmlns="http://www.w3.org/2000/svg">
<path d="M5 4C3.34375 4 2 5.34375 2 7V17C2 18.6562 3.34375 20 5 20H14H14.3375C13.6094 19.4875 13.0094 18.8 12.6 18H5C4.44687 18 4 17.5531 4 17C4 16.4469 4.44687 16 5 16H12.0219C12.0063 15.8344 12 15.6688 12 15.5C12 12.9813 13.6906 10.8594 16 10.2063V5C16 4.44687 15.5531 4 15 4H14H5ZM17.5 11C16.3065 11 15.1619 11.4741 14.318 12.318C13.4741 13.1619 13 14.3065 13 15.5C13 16.6935 13.4741 17.8381 14.318 18.682C15.1619 19.5259 16.3065 20 17.5 20C18.6935 20 19.8381 19.5259 20.682 18.682C21.5259 17.8381 22 16.6935 22 15.5C22 14.3065 21.5259 13.1619 20.682 12.318C19.8381 11.4741 18.6935 11 17.5 11ZM15.3969 15.6031C15.2031 15.4094 15.2031 15.0906 15.3969 14.8969L17.1469 13.1469C17.3406 12.9531 17.6594 12.9531 17.8531 13.1469L19.6031 14.8969C19.7969 15.0906 19.7969 15.4094 19.6031 15.6031C19.4094 15.7969 19.0906 15.7969 18.8969 15.6031L18 14.7063V17.5C18 17.775 17.775 18 17.5 18C17.225 18 17 17.775 17 17.5V14.7063L16.1031 15.6031C15.9094 15.7969 15.5906 15.7969 15.3969 15.6031Z" fill="black"/>
</svg>
