<svg width="24" height="24" viewBox="0 0 24 24" fill="none" xmlns="http://www.w3.org/2000/svg">
<path d="M6.70625 6L9.36875 8.6625C10.0781 7.80312 10.5 6.7 10.5 5.5C10.5 5.04063 10.4375 4.59687 10.3219 4.175C8.95625 4.46875 7.71875 5.10938 6.70625 6ZM6 6.70625C5.10938 7.71875 4.46875 8.95625 4.175 10.3219C4.59687 10.4375 5.04063 10.5 5.5 10.5C6.7 10.5 7.80313 10.0781 8.66563 9.37187L6 6.70625ZM12 4C11.7719 4 11.5437 4.00937 11.3187 4.02812C11.4375 4.5 11.5 4.99375 11.5 5.5C11.5 6.97812 10.9656 8.32812 10.0813 9.375L12 11.2937L17.2937 6C15.8812 4.75625 14.0281 4 12 4ZM5.5 11.5C4.99375 11.5 4.5 11.4375 4.02812 11.3187C4.00937 11.5437 4 11.7719 4 12C4 14.0281 4.75625 15.8812 6 17.2937L11.2937 12L9.375 10.0813C8.32812 10.9656 6.97812 11.5 5.5 11.5ZM19.9719 12.6812C19.9906 12.4562 20 12.2281 20 12C20 9.97187 19.2437 8.11875 18 6.70625L12.7063 12L14.625 13.9187C15.6688 13.0344 17.0219 12.5 18.5 12.5C19.0063 12.5 19.5 12.5625 19.9719 12.6812ZM19.825 13.6781C19.4031 13.5625 18.9594 13.5 18.5 13.5C17.3 13.5 16.1969 13.9219 15.3344 14.6281L18 17.2937C18.8906 16.2844 19.5344 15.0469 19.825 13.6781ZM14.6281 15.3344C13.9219 16.1969 13.5 17.3 13.5 18.5C13.5 18.9594 13.5625 19.4031 13.6781 19.825C15.0438 19.5312 16.2812 18.8906 17.2937 18L14.6313 15.3375L14.6281 15.3344ZM13.9187 14.625L12 12.7063L6.70625 18C8.11562 19.2437 9.96875 20 12 20C12.2281 20 12.4562 19.9906 12.6812 19.9719C12.5625 19.5 12.5 19.0063 12.5 18.5C12.5 17.0219 13.0344 15.6719 13.9187 14.625Z" fill="black"/>
</svg>
