<svg width="24" height="24" viewBox="0 0 24 24" fill="none" xmlns="http://www.w3.org/2000/svg">
<path d="M3 6C3 5.44687 3.44687 5 4 5H20C20.5531 5 21 5.44687 21 6C21 6.55313 20.5531 7 20 7H4C3.44687 7 3 6.55313 3 6ZM4 8H20L19.1656 17.1812C19.0719 18.2125 18.2094 19 17.175 19H6.825C5.79063 19 4.92813 18.2125 4.83438 17.1812L4 8ZM12 10.75C12.0688 10.75 12.1344 10.7844 12.1719 10.8406L12.8188 11.7656C13.0469 12.0938 13.4938 12.1844 13.8313 11.9719C14.1969 11.7438 14.2937 11.2562 14.0469 10.9062L13.4 9.98125C13.0812 9.525 12.5562 9.25313 12 9.25313C11.4438 9.25313 10.9187 9.525 10.6 9.98125L9.95312 10.9062C9.70625 11.2594 9.80625 11.7438 10.1687 11.9719C10.5062 12.1844 10.9531 12.0938 11.1812 11.7656L11.8281 10.8406C11.8687 10.7844 11.9312 10.75 12 10.75ZM9.24062 13.1594C8.90312 12.9469 8.45625 13.0375 8.22813 13.3656L7.55625 14.325C7.35625 14.6094 7.25 14.95 7.25 15.3C7.25 16.2406 8.0125 17 8.95 17H10.5C10.9156 17 11.25 16.6656 11.25 16.25C11.25 15.8344 10.9156 15.5 10.5 15.5H8.95C8.84062 15.5 8.75 15.4094 8.75 15.3C8.75 15.2594 8.7625 15.2188 8.7875 15.1844L9.45937 14.225C9.70625 13.8719 9.60625 13.3875 9.24375 13.1594H9.24062ZM12.75 16.25C12.75 16.6656 13.0844 17 13.5 17H15.05C15.9906 17 16.75 16.2375 16.75 15.3C16.75 14.95 16.6438 14.6094 16.4438 14.325L15.7719 13.3656C15.5438 13.0375 15.0969 12.9469 14.7594 13.1594C14.3937 13.3875 14.2969 13.875 14.5437 14.225L15.2156 15.1844C15.2406 15.2188 15.2531 15.2594 15.2531 15.3C15.2531 15.4094 15.1625 15.5 15.0531 15.5H13.5C13.0844 15.5 12.75 15.8344 12.75 16.25Z" fill="black"/>
</svg>
