<svg width="24" height="24" viewBox="0 0 24 24" fill="none" xmlns="http://www.w3.org/2000/svg">
<path d="M18.5312 4.21885C18.2375 3.9251 17.7625 3.9251 17.4719 4.21885L15.9688 5.71885C15.8938 5.79385 15.8344 5.88447 15.7969 5.98447L15.3156 7.26572L12.9375 9.64697C12.2937 9.2126 11.5531 8.91572 10.75 8.80322V8.7501C10.75 8.33447 10.4156 8.0001 10 8.0001C9.58437 8.0001 9.25 8.33447 9.25 8.7501V8.80322C8.35938 8.93135 7.54375 9.28135 6.85625 9.79385L6.81875 9.75635C6.525 9.4626 6.05 9.4626 5.75937 9.75635C5.46875 10.0501 5.46563 10.5251 5.75937 10.8157L5.79688 10.8532C5.28125 11.5438 4.93125 12.3595 4.80313 13.2501H4.75C4.33437 13.2501 4 13.5845 4 14.0001C4 14.4157 4.33437 14.7501 4.75 14.7501H4.80313C4.93125 15.6407 5.28125 16.4563 5.79375 17.1438L5.75625 17.1813C5.4625 17.4751 5.4625 17.9501 5.75625 18.2407C6.05 18.5313 6.525 18.5345 6.81562 18.2407L6.85313 18.2032C7.54063 18.7188 8.35938 19.0688 9.24687 19.1938V19.2501C9.24687 19.6657 9.58125 20.0001 9.99687 20.0001C10.4125 20.0001 10.7469 19.6657 10.7469 19.2501V19.197C11.6375 19.0688 12.4531 18.7188 13.1406 18.2063L13.1781 18.2438C13.4719 18.5376 13.9469 18.5376 14.2375 18.2438C14.5281 17.9501 14.5312 17.4751 14.2375 17.1845L14.2 17.147C14.7156 16.4595 15.0656 15.6407 15.1906 14.7532H15.25C15.6656 14.7532 16 14.4188 16 14.0032C16 13.5876 15.6656 13.2532 15.25 13.2532H15.1969C15.0812 12.4501 14.7875 11.7063 14.3531 11.0657L16.7312 8.6876L18.0125 8.20635C18.1125 8.16885 18.2031 8.10947 18.2781 8.03447L19.7781 6.53447C20.0719 6.24072 20.0719 5.76572 19.7781 5.4751L18.5312 4.21885ZM10 10.5001C10.4596 10.5001 10.9148 10.5906 11.3394 10.7665C11.764 10.9424 12.1499 11.2002 12.4749 11.5252C12.7999 11.8502 13.0577 12.2361 13.2336 12.6607C13.4095 13.0853 13.5 13.5405 13.5 14.0001C13.5 14.4597 13.4095 14.9148 13.2336 15.3395C13.0577 15.7641 12.7999 16.15 12.4749 16.475C12.1499 16.8 11.764 17.0578 11.3394 17.2337C10.9148 17.4096 10.4596 17.5001 10 17.5001C9.54037 17.5001 9.08525 17.4096 8.66061 17.2337C8.23597 17.0578 7.85013 16.8 7.52513 16.475C7.20012 16.15 6.94231 15.7641 6.76642 15.3395C6.59053 14.9148 6.5 14.4597 6.5 14.0001C6.5 13.5405 6.59053 13.0853 6.76642 12.6607C6.94231 12.2361 7.20012 11.8502 7.52513 11.5252C7.85013 11.2002 8.23597 10.9424 8.66061 10.7665C9.08525 10.5906 9.54037 10.5001 10 10.5001ZM8.85313 13.647C8.65938 13.4532 8.34062 13.4532 8.14687 13.647C7.95312 13.8407 7.95312 14.1595 8.14687 14.3532L9.64687 15.8532C9.84062 16.047 10.1594 16.047 10.3531 15.8532C10.5469 15.6595 10.5469 15.3407 10.3531 15.147L8.85313 13.647Z" fill="black"/>
</svg>
