<svg width="24" height="24" viewBox="0 0 24 24" fill="none" xmlns="http://www.w3.org/2000/svg">
<path d="M9.75016 6.75C9.75016 6.45453 9.80835 6.16194 9.92143 5.88896C10.0345 5.61598 10.2002 5.36794 10.4092 5.15901C10.6181 4.95008 10.8661 4.78434 11.1391 4.67127C11.4121 4.5582 11.7047 4.5 12.0002 4.5C12.2956 4.5 12.5882 4.5582 12.8612 4.67127C13.1342 4.78434 13.3822 4.95008 13.5911 5.15901C13.8001 5.36794 13.9658 5.61598 14.0789 5.88896C14.192 6.16194 14.2502 6.45453 14.2502 6.75C14.2502 7.04547 14.192 7.33806 14.0789 7.61104C13.9658 7.88402 13.8001 8.13206 13.5911 8.34099C13.3822 8.54992 13.1342 8.71566 12.8612 8.82873C12.5882 8.9418 12.2956 9 12.0002 9C11.7047 9 11.4121 8.9418 11.1391 8.82873C10.8661 8.71566 10.6181 8.54992 10.4092 8.34099C10.2002 8.13206 10.0345 7.88402 9.92143 7.61104C9.80835 7.33806 9.75016 7.04547 9.75016 6.75ZM6.24078 8.51562C6.64703 7.95625 7.42828 7.83437 7.98766 8.24062L9.11891 9.0625C9.95641 9.67188 10.9658 10 12.0002 10C13.0345 10 14.0439 9.67188 14.8814 9.0625L16.0127 8.2375C16.572 7.83125 17.3533 7.95625 17.7595 8.5125C18.1658 9.06875 18.0408 9.85313 17.4845 10.2594L16.3533 11.0844C15.9283 11.3937 15.4752 11.6531 15.0002 11.8656V13H9.00016V11.8656C8.52516 11.6562 8.07203 11.3937 7.64703 11.0844L6.51578 10.2594C5.95641 9.85313 5.83453 9.07187 6.24078 8.5125V8.51562ZM9.04703 14.2906L10.9408 15.9469L10.1283 17.1094L10.8877 17.8687C11.3752 18.3562 11.3752 19.1469 10.8877 19.6375C10.4002 20.1281 9.60953 20.125 9.11891 19.6375L7.61891 18.1375C7.18766 17.7063 7.12828 17.0312 7.47516 16.5344L9.04391 14.2906H9.04703ZM13.0627 15.9469L14.9564 14.2906L16.5252 16.5344C16.872 17.0312 16.8127 17.7062 16.3845 18.1344L14.8845 19.6344C14.397 20.1219 13.6064 20.1219 13.1158 19.6344C12.6252 19.1469 12.6283 18.3563 13.1158 17.8656L13.8752 17.1062L13.0627 15.9438V15.9469Z" fill="black"/>
</svg>
