<svg width="24" height="24" viewBox="0 0 24 24" fill="none" xmlns="http://www.w3.org/2000/svg">
<path d="M4.40938 6.92501L8 6.25001V5.75001C8 5.33439 8.33437 5.00001 8.75 5.00001C9.16563 5.00001 9.5 5.33439 9.5 5.75001V5.96876V7.14064V8.32814V9.50001V11H10.5V9.50001V8.29689V6.98439V5.78126V5.25001C10.5 4.83439 10.8344 4.50001 11.25 4.50001C11.6656 4.50001 12 4.83439 12 5.25001V5.50001V6.75001V8.25001V9.50001V11H13H18.95C19.5187 11 19.9719 11.4781 19.9375 12.0469C19.7687 14.9125 18.0719 17.35 15.675 18.6L15.6375 18.9031C15.5594 19.5281 15.0281 19.9969 14.3969 19.9969H9.60313C8.97188 19.9969 8.44063 19.5281 8.3625 18.9031L8.325 18.6C5.925 17.35 4.23125 14.9156 4.0625 12.0469C4.02812 11.4781 4.48125 11 5.05 11H8V9.50001H4.50625C4.22813 9.50001 4 9.27189 4 8.99064C4 8.71564 4.21875 8.49064 4.49062 8.48439L8 8.37501V7.37501L4.57812 7.90939C4.275 7.95626 4 7.72189 4 7.41564C4 7.17501 4.17188 6.96876 4.40938 6.92501ZM19.2625 9.50001H13V8.21876L19.2375 8.02501C19.6563 8.00939 20 8.34376 20 8.76251C20 9.16876 19.6687 9.50001 19.2625 9.50001ZM19.3844 5.59689L13 6.59376V5.31251L19.1375 4.16251C19.5844 4.07814 20 4.42189 20 4.87814C20 5.23751 19.7375 5.54064 19.3844 5.59689Z" fill="black"/>
</svg>
