<svg width="24" height="24" viewBox="0 0 24 24" fill="none" xmlns="http://www.w3.org/2000/svg">
<path d="M8 4C6.89688 4 6 4.89688 6 6V15C6 16.1031 6.89688 17 8 17H19C20.1031 17 21 16.1031 21 15V6C21 4.89688 20.1031 4 19 4H8ZM11.75 6.25H18.25C18.6656 6.25 19 6.58437 19 7C19 7.41563 18.6656 7.75 18.25 7.75H11.75C11.3344 7.75 11 7.41563 11 7C11 6.58437 11.3344 6.25 11.75 6.25ZM10 7C10 7.26522 9.89464 7.51957 9.70711 7.70711C9.51957 7.89464 9.26522 8 9 8C8.73478 8 8.48043 7.89464 8.29289 7.70711C8.10536 7.51957 8 7.26522 8 7C8 6.73478 8.10536 6.48043 8.29289 6.29289C8.48043 6.10536 8.73478 6 9 6C9.26522 6 9.51957 6.10536 9.70711 6.29289C9.89464 6.48043 10 6.73478 10 7ZM4.5 7.75C4.5 7.33437 4.16563 7 3.75 7C3.33437 7 3 7.33437 3 7.75V15.75C3 18.0969 4.90313 20 7.25 20H17.25C17.6656 20 18 19.6656 18 19.25C18 18.8344 17.6656 18.5 17.25 18.5H7.25C5.73125 18.5 4.5 17.2687 4.5 15.75V7.75Z" fill="black"/>
</svg>
