<svg width="24" height="24" viewBox="0 0 24 24" fill="none" xmlns="http://www.w3.org/2000/svg">
<path d="M8.74988 4C8.33426 4 7.99988 4.33437 7.99988 4.75V5C7.99988 6.02188 8.48113 6.9875 9.29988 7.6C9.74051 7.93125 9.99988 8.45 9.99988 9V9.25C9.99988 9.66563 10.3343 10 10.7499 10C11.1655 10 11.4999 9.66563 11.4999 9.25V9C11.4999 7.97812 11.0186 7.0125 10.1999 6.4C9.75926 6.06875 9.49988 5.55 9.49988 5V4.75C9.49988 4.33437 9.16551 4 8.74988 4ZM5.04988 11C4.48113 11 4.02801 11.4781 4.06238 12.0469C4.23113 14.9125 5.92801 17.35 8.32488 18.6L8.36238 18.9031C8.44051 19.5281 8.97176 19.9969 9.60301 19.9969H14.3968C15.028 19.9969 15.5593 19.5281 15.6374 18.9031L15.6749 18.6C18.0749 17.35 19.7686 14.9125 19.9374 12.0469C19.9718 11.4781 19.5186 11 18.9499 11H5.04988ZM13.4999 4.75C13.4999 4.33437 13.1655 4 12.7499 4C12.3343 4 11.9999 4.33437 11.9999 4.75V5C11.9999 6.02188 12.4811 6.9875 13.2999 7.6C13.7405 7.93125 13.9999 8.45 13.9999 9V9.25C13.9999 9.66563 14.3343 10 14.7499 10C15.1655 10 15.4999 9.66563 15.4999 9.25V9C15.4999 7.97812 15.0186 7.0125 14.1999 6.4C13.7593 6.06875 13.4999 5.55 13.4999 5V4.75Z" fill="black"/>
</svg>
