<svg width="24" height="24" viewBox="0 0 24 24" fill="none" xmlns="http://www.w3.org/2000/svg">
<path d="M5.17489 4.13125C4.87489 3.92812 4.47489 3.96562 4.21864 4.21875C3.96239 4.47188 3.92489 4.875 4.13114 5.17188L7.63114 10.275L4.51864 11.2875C4.20926 11.3875 3.99989 11.675 3.99989 12C3.99989 12.325 4.20926 12.6125 4.51864 12.7125L7.74051 13.7563L6.08739 16.9C5.93426 17.1906 5.98739 17.5469 6.22176 17.7781C6.45614 18.0094 6.80926 18.0656 7.09989 17.9125L10.2436 16.2594L11.2874 19.4812C11.3874 19.7906 11.6749 20 11.9999 20C12.3249 20 12.6124 19.7906 12.7124 19.4812L13.7561 16.2594L16.8999 17.9125C17.1905 18.0656 17.5468 18.0125 17.778 17.7781C18.0093 17.5437 18.0655 17.1906 17.9124 16.9L16.2593 13.7563L19.4811 12.7125C19.7905 12.6125 19.9999 12.325 19.9999 12C19.9999 11.675 19.7905 11.3875 19.4811 11.2875L16.153 10.2094L16.9561 8.00938C17.0561 7.73438 16.9874 7.42812 16.7811 7.22187C16.5749 7.01562 16.2686 6.94688 15.9936 7.04688L13.7936 7.85L12.7124 4.51875C12.6124 4.20938 12.3249 4 11.9999 4C11.6749 4 11.3874 4.20938 11.2874 4.51875L10.278 7.63125L5.17489 4.13125Z" fill="black"/>
</svg>
