<svg width="24" height="24" viewBox="0 0 24 24" fill="none" xmlns="http://www.w3.org/2000/svg">
<path d="M4 10C4 8.89687 4.89688 8 6 8C6.01562 8 6.03437 8 6.05 8C6.28125 6.85938 7.29063 6 8.5 6C8.96875 6 9.40625 6.12812 9.77812 6.35C10.1937 5.55 11.0344 5 12 5C12.9656 5 13.8063 5.55 14.2219 6.35C14.5938 6.12812 15.0312 6 15.5 6C16.7094 6 17.7188 6.85938 17.95 8C17.9656 8 17.9844 8 18 8C19.1031 8 20 8.89687 20 10C20 10.3656 19.9031 10.7063 19.7312 11H4.26875C4.09688 10.7063 4 10.3656 4 10ZM4 12.8562C4 12.3844 4.38437 12 4.85625 12H19.1438C19.6156 12 20 12.3844 20 12.8562C20 15.0594 18.6125 16.9406 16.6656 17.6719L16.6094 18.125C16.5469 18.625 16.1219 19 15.6156 19H8.38125C7.87812 19 7.45 18.625 7.3875 18.125L7.33125 17.675C5.3875 16.9406 4 15.0594 4 12.8562Z" fill="black"/>
</svg>
