<svg width="24" height="24" viewBox="0 0 24 24" fill="none" xmlns="http://www.w3.org/2000/svg">
<path d="M8.55625 6.83116C9.01562 6.52491 9.14062 5.90303 8.83437 5.44366C8.52812 4.98428 7.90625 4.85928 7.44688 5.16553C6.24688 5.96553 4 8.38116 4 11.9999C4 15.6187 6.24687 18.0312 7.44375 18.8312C7.90312 19.1374 8.525 19.0124 8.83125 18.553C9.1375 18.0937 9.0125 17.4718 8.55312 17.1655C7.75312 16.6343 6 14.7812 6 11.9999C6 9.21866 7.75313 7.36553 8.55625 6.83116ZM15.4469 6.83116C16.2469 7.36553 18 9.21866 18 11.9999C18 14.7812 16.2469 16.6343 15.4438 17.1687C14.9844 17.4749 14.8594 18.0968 15.1656 18.5562C15.4719 19.0155 16.0938 19.1405 16.5531 18.8343C17.7531 18.0343 20 15.6187 20 11.9999C20 8.38116 17.7531 5.96553 16.5562 5.16866C16.0969 4.86241 15.475 4.98741 15.1687 5.44678C14.8625 5.90616 14.9875 6.52803 15.4469 6.83428V6.83116Z" fill="black"/>
</svg>
