<svg width="24" height="24" viewBox="0 0 24 24" fill="none" xmlns="http://www.w3.org/2000/svg">
<path d="M7.92812 5H11.5V9H5L6.58438 5.82812C6.84063 5.32187 7.35937 5 7.92812 5ZM12.5 5H16.0719C16.6406 5 17.1594 5.32187 17.4125 5.82812L19 9H12.5V5ZM5 10H19V17C19 18.1031 18.1031 19 17 19H7C5.89688 19 5 18.1031 5 17V10ZM12.625 11.25C12.625 10.9062 12.3438 10.625 12 10.625C11.6562 10.625 11.375 10.9062 11.375 11.25V11.6875C11.1375 11.7406 10.9 11.825 10.6813 11.9531C10.2469 12.2125 9.87187 12.6656 9.875 13.325C9.87813 13.9594 10.25 14.3594 10.6469 14.5969C10.9906 14.8031 11.4188 14.9344 11.7594 15.0344L11.8125 15.05C12.2063 15.1688 12.4938 15.2625 12.6875 15.3844C12.8469 15.4844 12.8687 15.5531 12.8719 15.6406C12.875 15.7969 12.8156 15.8906 12.6875 15.9688C12.5312 16.0656 12.2844 16.125 12.0188 16.1156C11.6719 16.1031 11.3469 15.9938 10.9219 15.85C10.85 15.825 10.775 15.8 10.6969 15.775C10.3688 15.6656 10.0156 15.8437 9.90625 16.1687C9.79688 16.4937 9.975 16.85 10.3 16.9594C10.3594 16.9781 10.425 17 10.4906 17.025C10.75 17.1156 11.05 17.2188 11.3719 17.2875V17.75C11.3719 18.0938 11.6531 18.375 11.9969 18.375C12.3406 18.375 12.6219 18.0938 12.6219 17.75V17.3188C12.8719 17.2656 13.1219 17.1781 13.3469 17.0375C13.7938 16.7594 14.1312 16.2844 14.1219 15.6313C14.1125 14.9969 13.7562 14.5875 13.3531 14.3313C12.9937 14.1063 12.5437 13.9688 12.1937 13.8625L12.1719 13.8562C11.7719 13.7344 11.4875 13.6469 11.2875 13.5281C11.125 13.4312 11.1219 13.375 11.1219 13.3188C11.1219 13.2031 11.1656 13.1156 11.3156 13.0281C11.4844 12.9281 11.7406 12.8687 11.9875 12.8719C12.2875 12.875 12.6188 12.9406 12.9625 13.0344C13.2969 13.1219 13.6375 12.925 13.7281 12.5906C13.8187 12.2562 13.6188 11.9156 13.2844 11.825C13.0813 11.7719 12.8563 11.7187 12.625 11.6781V11.25Z" fill="black"/>
</svg>
