<svg width="24" height="24" viewBox="0 0 24 24" fill="none" xmlns="http://www.w3.org/2000/svg">
<path d="M10.5969 4.08491C10.9656 4.27554 11.1062 4.72866 10.9156 5.09741L8.36562 10.0005H15.6344L13.0844 5.09741C12.8938 4.72866 13.0375 4.27554 13.4031 4.08491C13.7688 3.89429 14.2219 4.03804 14.4156 4.40366L17.325 10.0005H20C20.5531 10.0005 21 10.4474 21 11.0005C21 11.5537 20.5531 12.0005 20 12.0005L18.3781 18.4849C18.1562 19.3755 17.3562 20.0005 16.4375 20.0005H7.5625C6.64375 20.0005 5.84375 19.3755 5.62188 18.4849L4 12.0005C3.44687 12.0005 3 11.5537 3 11.0005C3 10.4474 3.44687 10.0005 4 10.0005H6.675L9.58437 4.40366C9.775 4.03491 10.2281 3.89429 10.5969 4.08491ZM7.5 13.2505C7.69891 13.2505 7.88968 13.1715 8.03033 13.0309C8.17098 12.8902 8.25 12.6995 8.25 12.5005C8.25 12.3016 8.17098 12.1109 8.03033 11.9702C7.88968 11.8296 7.69891 11.7505 7.5 11.7505C7.30109 11.7505 7.11032 11.8296 6.96967 11.9702C6.82902 12.1109 6.75 12.3016 6.75 12.5005C6.75 12.6995 6.82902 12.8902 6.96967 13.0309C7.11032 13.1715 7.30109 13.2505 7.5 13.2505ZM17.25 12.5005C17.25 12.3016 17.171 12.1109 17.0303 11.9702C16.8897 11.8296 16.6989 11.7505 16.5 11.7505C16.3011 11.7505 16.1103 11.8296 15.9697 11.9702C15.829 12.1109 15.75 12.3016 15.75 12.5005C15.75 12.6995 15.829 12.8902 15.9697 13.0309C16.1103 13.1715 16.3011 13.2505 16.5 13.2505C16.6989 13.2505 16.8897 13.1715 17.0303 13.0309C17.171 12.8902 17.25 12.6995 17.25 12.5005Z" fill="black"/>
</svg>
