<svg width="24" height="24" viewBox="0 0 24 24" fill="none" xmlns="http://www.w3.org/2000/svg">
<path d="M3.21243 4.15943C2.88743 3.90318 2.41556 3.96255 2.15931 4.28755C1.90306 4.61255 1.96243 5.08443 2.28743 5.34068L20.7874 19.8407C21.1124 20.0969 21.5843 20.0376 21.8406 19.7126C22.0968 19.3876 22.0374 18.9157 21.7124 18.6594L19.8343 17.1876C19.9406 16.9813 19.9999 16.7469 19.9999 16.5001C19.9999 15.6719 19.3281 15.0001 18.4999 15.0001C18.1218 15.0001 17.7781 15.1407 17.5156 15.3688L15.9062 14.1094C16.5968 13.0782 16.9999 11.8344 16.9999 10.5001C16.9999 6.90943 14.0906 4.00005 10.4999 4.00005C8.59993 4.00005 6.89368 4.81568 5.70306 6.11255L3.21243 4.15943ZM8.87493 8.60005C9.31243 8.22818 9.87806 8.00005 10.4999 8.00005C11.8812 8.00005 12.9999 9.1188 12.9999 10.5001C12.9999 10.9032 12.9031 11.2844 12.7343 11.6219L11.9187 10.9844C11.9718 10.8313 11.9999 10.6688 11.9999 10.5001C11.9999 9.67193 11.3281 9.00005 10.4999 9.00005C10.2031 9.00005 9.92493 9.08755 9.69056 9.23755L8.87493 8.60005ZM17.8843 19.5157L16.5562 18.4688C16.4562 18.4907 16.3562 18.5001 16.2499 18.5001H14.9999V17.2438L14.4968 16.8469C13.3406 17.5782 11.9687 18.0001 10.4999 18.0001C8.81243 18.0001 7.25306 17.4407 5.99993 16.5001V18.5001C5.99993 19.3282 6.67181 20.0001 7.49993 20.0001H13.9999H14.9999H16.2499C16.8531 20.0001 17.4156 19.8219 17.8843 19.5157ZM13.6562 16.1844L4.23431 8.76255C4.08118 9.31568 3.99993 9.89693 3.99993 10.5001C3.99993 14.0907 6.90931 17.0001 10.4999 17.0001C11.6468 17.0001 12.7218 16.7032 13.6562 16.1844Z" fill="black"/>
</svg>
