<svg width="24" height="24" viewBox="0 0 24 24" fill="none" xmlns="http://www.w3.org/2000/svg">
<path d="M13.9064 6C12.7814 6 11.5189 6.49375 10.5064 7.50625C9.49395 8.51875 9.0002 9.77812 9.0002 10.9062C9.0002 11.7875 9.3002 12.5687 9.86582 13.1344C11.1283 14.3969 13.6377 14.35 15.4939 12.4937C16.5064 11.4812 17.0002 10.2219 17.0002 9.09375C17.0002 8.2125 16.7002 7.43125 16.1346 6.86562C15.5689 6.3 14.7846 6 13.9064 6ZM9.09395 6.09063C10.4533 4.73125 12.2127 4 13.9064 4C15.2439 4 16.5596 4.4625 17.5502 5.45312C18.5408 6.44375 19.0002 7.75625 19.0002 9.09375C19.0002 10.7875 18.2689 12.5469 16.9096 13.9062C15.2096 15.6062 12.7877 16.3656 10.7158 15.8344C9.79707 15.6 8.7502 15.6625 8.08145 16.3344L7.63457 16.7812C7.83457 17.1594 7.7752 17.6375 7.45957 17.9563L5.70957 19.7063C5.31895 20.0969 4.68457 20.0969 4.29395 19.7063L3.29395 18.7063C2.90332 18.3156 2.90332 17.6812 3.29395 17.2906L5.04395 15.5406C5.3627 15.2219 5.84082 15.1625 6.21895 15.3656L6.67207 14.9125C7.34082 14.2438 7.40645 13.2031 7.17207 12.2875C7.05645 11.8406 7.0002 11.375 7.0002 10.9062C7.0002 9.2125 7.73145 7.45312 9.09082 6.09375L9.09395 6.09063ZM17.5002 16.5C17.5002 15.6719 18.1721 15 19.0002 15C19.8283 15 20.5002 15.6719 20.5002 16.5V17.5H17.5002V16.5ZM17.0221 19.3562L17.4283 18H18.4721L17.9783 19.6438C17.9002 19.9094 17.6189 20.0594 17.3564 19.9781C17.0939 19.8969 16.9408 19.6187 17.0221 19.3562ZM18.5002 19.5V18H19.5002V19.5C19.5002 19.775 19.2752 20 19.0002 20C18.7252 20 18.5002 19.775 18.5002 19.5ZM20.0221 19.6438L19.5283 18H20.5721L20.9783 19.3562C21.0564 19.6219 20.9064 19.9 20.6439 19.9781C20.3814 20.0562 20.1002 19.9062 20.0221 19.6438Z" fill="black"/>
</svg>
