<svg width="24" height="24" viewBox="0 0 24 24" fill="none" xmlns="http://www.w3.org/2000/svg">
<path d="M10.9156 5.09682C11.1063 4.72807 10.9625 4.27494 10.5969 4.08432C10.2313 3.89369 9.775 4.03744 9.58437 4.40307L6.675 9.99994H4C3.44687 9.99994 3 10.4468 3 10.9999C3 11.5531 3.44687 11.9999 4 11.9999L5.62188 18.4843C5.84375 19.3749 6.64375 19.9999 7.5625 19.9999H16.4375C17.3562 19.9999 18.1563 19.3749 18.3781 18.4843L20 11.9999C20.5531 11.9999 21 11.5531 21 10.9999C21 10.4468 20.5531 9.99994 20 9.99994H17.325L14.4156 4.40307C14.225 4.03744 13.7719 3.89369 13.4031 4.08432C13.0344 4.27494 12.8938 4.72807 13.0844 5.09682L15.6344 9.99994H8.36562L10.9156 5.09682ZM9 13.4999V16.4999C9 16.7749 8.775 16.9999 8.5 16.9999C8.225 16.9999 8 16.7749 8 16.4999V13.4999C8 13.2249 8.225 12.9999 8.5 12.9999C8.775 12.9999 9 13.2249 9 13.4999ZM12 12.9999C12.275 12.9999 12.5 13.2249 12.5 13.4999V16.4999C12.5 16.7749 12.275 16.9999 12 16.9999C11.725 16.9999 11.5 16.7749 11.5 16.4999V13.4999C11.5 13.2249 11.725 12.9999 12 12.9999ZM16 13.4999V16.4999C16 16.7749 15.775 16.9999 15.5 16.9999C15.225 16.9999 15 16.7749 15 16.4999V13.4999C15 13.2249 15.225 12.9999 15.5 12.9999C15.775 12.9999 16 13.2249 16 13.4999Z" fill="black"/>
</svg>
