<svg width="24" height="24" viewBox="0 0 24 24" fill="none" xmlns="http://www.w3.org/2000/svg">
<path d="M4 5.00035C4 4.44722 4.44687 4.00035 5 4.00035H7C7.55313 4.00035 8 4.44722 8 5.00035V7.00035H4V5.00035ZM4 8.00035H8V16.0003H4V8.00035ZM4 17.0003H8V19.0003C8 19.5535 7.55313 20.0003 7 20.0003H5C4.44687 20.0003 4 19.5535 4 19.0003V17.0003ZM9 5.00035C9 4.44722 9.44687 4.00035 10 4.00035H12C12.5531 4.00035 13 4.44722 13 5.00035V7.00035H9V5.00035ZM9 8.00035H13V16.0003H9V8.00035ZM9 17.0003H13V19.0003C13 19.5535 12.5531 20.0003 12 20.0003H10C9.44687 20.0003 9 19.5535 9 19.0003V17.0003ZM15.3625 16.3785L14 11.2691V8.46285L17.1375 7.62222L19.2 15.3535L15.3625 16.3785ZM16.8813 6.6566L14 7.42535V4.3441L15.1531 4.03472C15.6812 3.89097 16.2281 4.2066 16.3687 4.74097L16.8813 6.6566ZM15.6187 17.3441L19.4563 16.316L19.9656 18.2253C20.1062 18.7566 19.7937 19.3035 19.2625 19.4472L17.3438 19.9628C16.8156 20.1066 16.2688 19.791 16.1281 19.2566L15.6187 17.3441Z" fill="black"/>
</svg>
