<svg width="24" height="24" viewBox="0 0 24 24" fill="none" xmlns="http://www.w3.org/2000/svg">
<path d="M9.21269 11.6718L9.79706 13.2718C10.1627 14.2656 10.2002 15.35 9.90644 16.3687L9.87206 16.4906L2.66894 13.8687C2.31269 13.7406 2.06269 13.4218 2.01894 13.0468C1.97519 12.6718 2.14706 12.3031 2.46581 12.0968L2.72206 11.9281C3.80019 11.2187 4.62519 10.1812 5.06894 8.96872L5.52831 7.71872C6.31269 5.57497 8.68769 4.47185 10.8314 5.2531C10.9814 5.30622 11.1252 5.36872 11.2658 5.4406C9.26269 6.75935 8.35019 9.32185 9.21269 11.675V11.6718ZM12.7127 5.82497C14.9439 5.01247 17.4127 6.16247 18.2283 8.3906L18.8127 9.99059C19.2502 11.1843 20.0564 12.2093 21.1127 12.9156L21.5408 13.2031C21.8533 13.4125 22.0221 13.7812 21.9783 14.1531C21.9346 14.525 21.6814 14.8437 21.3283 14.9718L12.0346 18.3562C11.6814 18.4843 11.2846 18.4031 11.0096 18.1468C10.7346 17.8906 10.6252 17.5 10.7283 17.1406L10.8721 16.6468C11.2221 15.4281 11.1752 14.125 10.7377 12.9312L10.1502 11.3312C9.33456 9.1031 10.4783 6.63747 12.7096 5.82497H12.7127ZM17.0252 19C16.3627 19 15.7752 18.6812 15.4096 18.1906L19.0377 16.8687C19.0408 16.9093 19.0408 16.95 19.0408 16.9906C19.0408 18.1 18.1377 19 17.0252 19ZM4.94706 15.7562L8.62206 17.1125C8.25956 17.6468 7.64706 18 6.95019 18C5.83769 18 4.93456 17.1 4.93456 15.9906C4.93456 15.9125 4.93769 15.8312 4.94706 15.7562Z" fill="black"/>
</svg>
