<svg width="24" height="24" viewBox="0 0 24 24" fill="none" xmlns="http://www.w3.org/2000/svg">
<path d="M11.9999 4C11.4468 4 10.9999 4.44687 10.9999 5V5.6C8.71864 6.0625 6.99989 8.08125 6.99989 10.5V11.0875C6.99989 12.5562 6.45927 13.975 5.48427 15.075L5.25302 15.3344C4.99052 15.6281 4.92802 16.05 5.08739 16.4094C5.24677 16.7688 5.60614 17 5.99989 17H17.9999C18.3936 17 18.7499 16.7688 18.9124 16.4094C19.0749 16.05 19.0093 15.6281 18.7468 15.3344L18.5155 15.075C17.5405 13.975 16.9999 12.5594 16.9999 11.0875V10.5C16.9999 8.08125 15.2811 6.0625 12.9999 5.6V5C12.9999 4.44687 12.553 4 11.9999 4ZM13.4155 19.4156C13.7905 19.0406 13.9999 18.5312 13.9999 18H11.9999H9.99989C9.99989 18.5312 10.2093 19.0406 10.5843 19.4156C10.9593 19.7906 11.4686 20 11.9999 20C12.5311 20 13.0405 19.7906 13.4155 19.4156ZM11.9999 8.75C12.4155 8.75 12.7499 9.08437 12.7499 9.5V10.75H13.9999C14.4155 10.75 14.7499 11.0844 14.7499 11.5C14.7499 11.9156 14.4155 12.25 13.9999 12.25H12.7499V13.5C12.7499 13.9156 12.4155 14.25 11.9999 14.25C11.5843 14.25 11.2499 13.9156 11.2499 13.5V12.25H9.99989C9.58426 12.25 9.24989 11.9156 9.24989 11.5C9.24989 11.0844 9.58426 10.75 9.99989 10.75H11.2499V9.5C11.2499 9.08437 11.5843 8.75 11.9999 8.75Z" fill="black"/>
</svg>
