<svg width="24" height="24" viewBox="0 0 24 24" fill="none" xmlns="http://www.w3.org/2000/svg">
<path d="M16.725 4.03751C17.075 3.93751 17.45 4.03439 17.7062 4.29064L19.1875 5.77189L18.3594 6.01876C16.5469 6.53751 15.2937 7.25626 14.3094 8.12501C13.3344 8.98439 12.6469 9.97189 11.9625 10.9656L11.8906 11.0688C10.55 13.0219 9.09374 15.1438 5.27499 17.0531L4.18437 17.6L3.29374 16.7063C3.06562 16.4781 2.96249 16.1563 3.01249 15.8375C3.06249 15.5188 3.26562 15.2469 3.55312 15.1031C7.25312 13.2563 8.65312 11.2188 9.97812 9.29064L10.05 9.18439C10.7312 8.19064 11.4531 7.15626 12.4781 6.25001C13.5219 5.32814 14.8469 4.57501 16.725 4.03751ZM4.93124 18.3438L5.72499 17.9469C9.77187 15.925 11.3469 13.6313 12.7187 11.6344L12.7875 11.5313C13.4781 10.5281 14.1031 9.64064 14.9719 8.87189C15.8312 8.11251 16.9531 7.45939 18.6375 6.97814L18.6437 6.97501L19.9906 6.57189L20.7094 7.29064C20.9594 7.54064 21.0594 7.90626 20.9687 8.25001C20.8781 8.59376 20.6156 8.86251 20.275 8.95939C18.6531 9.42189 17.6 10.0438 16.8031 10.7469C15.9875 11.4656 15.3937 12.3063 14.7 13.3125L14.6312 13.4125C13.2437 15.4344 11.6094 17.8125 7.44687 19.8938C7.06249 20.0875 6.59687 20.0094 6.29374 19.7063L4.93124 18.3438Z" fill="black"/>
</svg>
