<svg width="24" height="24" viewBox="0 0 24 24" fill="none" xmlns="http://www.w3.org/2000/svg">
<path d="M4 7C4 5.89688 4.89688 5 6 5H18C19.1031 5 20 5.89688 20 7V17C20 18.1031 19.1031 19 18 19H6C4.89688 19 4 18.1031 4 17V7ZM6 8C6 8.26522 6.10536 8.51957 6.29289 8.70711C6.48043 8.89464 6.73478 9 7 9C7.26522 9 7.51957 8.89464 7.70711 8.70711C7.89464 8.51957 8 8.26522 8 8C8 7.73478 7.89464 7.48043 7.70711 7.29289C7.51957 7.10536 7.26522 7 7 7C6.73478 7 6.48043 7.10536 6.29289 7.29289C6.10536 7.48043 6 7.73478 6 8ZM18 8C18 7.58437 17.6656 7.25 17.25 7.25H9.75C9.33437 7.25 9 7.58437 9 8C9 8.41563 9.33437 8.75 9.75 8.75H17.25C17.6656 8.75 18 8.41563 18 8Z" fill="black"/>
</svg>
