<svg width="24" height="24" viewBox="0 0 24 24" fill="none" xmlns="http://www.w3.org/2000/svg">
<path d="M8.14073 7.3563L9.18448 5.05942C9.35635 4.6813 9.1876 4.23755 8.8126 4.06567C8.4376 3.8938 7.99073 4.06255 7.81885 4.43755L7.0001 6.24067L6.18448 4.44067C6.0126 4.06255 5.56573 3.89692 5.19073 4.06567C4.81573 4.23442 4.64698 4.68442 4.81573 5.05942L5.85948 7.3563C5.54073 7.57817 5.29073 7.88755 5.14385 8.25005H4.6126L4.48448 7.60317C4.40323 7.19692 4.00948 6.93442 3.60323 7.01567C3.19698 7.09692 2.93448 7.49067 3.01573 7.89692L3.26573 9.14692C3.33448 9.49692 3.64385 9.75005 4.0001 9.75005H5.0001V10.4782L3.81885 10.775C3.52198 10.85 3.3001 11.0938 3.25948 11.3969L3.00948 13.1469C2.9501 13.5563 3.23448 13.9375 3.64698 13.9969C4.05948 14.0563 4.4376 13.7719 4.49698 13.3594L4.6751 12.1094L5.2501 11.9657C5.58448 12.5813 6.24385 13 7.0001 13C7.75635 13 8.41573 12.5813 8.75323 11.9625L9.32823 12.1063L9.50635 13.3563C9.56573 13.7657 9.94385 14.05 10.3564 13.9938C10.7689 13.9375 11.0501 13.5563 10.9939 13.1438L10.7439 11.3938C10.7001 11.0907 10.4782 10.8469 10.1845 10.7719L9.0001 10.4782V9.75005H10.0001C10.3564 9.75005 10.6657 9.49692 10.7345 9.14692L10.9845 7.89692C11.0657 7.49067 10.8032 7.09692 10.397 7.01567C9.99073 6.93442 9.59698 7.19692 9.51573 7.60317L9.38448 8.25005H8.85323C8.70635 7.88755 8.45635 7.57817 8.1376 7.3563H8.14073ZM18.5001 12.9532L20.5501 11.4844C20.8876 11.2438 20.9657 10.775 20.7251 10.4375C20.4845 10.1 20.0157 10.0219 19.6782 10.2625L18.072 11.4125L18.2626 9.44692C18.3032 9.03442 18.0001 8.6688 17.5876 8.62817C17.1751 8.58755 16.8095 8.89067 16.7689 9.30317L16.5251 11.8125C16.1407 11.8438 15.7689 11.9875 15.4595 12.2282L15.0001 11.9625L15.2126 11.3375C15.3439 10.9438 15.1345 10.5188 14.7439 10.3875C14.3532 10.2563 13.9251 10.4657 13.7939 10.8563L13.3845 12.0625C13.2689 12.4 13.4095 12.775 13.7189 12.9532L14.5845 13.4532L14.2189 14.0844L13.047 13.75C12.7532 13.6657 12.4376 13.7688 12.2501 14.0094L11.1595 15.4C10.9032 15.725 10.9595 16.1969 11.2876 16.4532C11.6157 16.7094 12.0845 16.6532 12.3407 16.325L13.122 15.3313L13.6907 15.4938C13.6751 16.2 14.0345 16.8907 14.6907 17.2688C15.347 17.6469 16.1251 17.6125 16.7282 17.2469L17.1532 17.6594L16.6814 18.8313C16.5282 19.2157 16.7126 19.6532 17.097 19.8063C17.4814 19.9594 17.9189 19.775 18.072 19.3907L18.7345 17.75C18.847 17.4657 18.7782 17.1438 18.5595 16.9313L17.6845 16.0844L18.047 15.4563L18.9126 15.9563C19.222 16.1344 19.6157 16.0719 19.8501 15.8032L20.6939 14.8438C20.9657 14.5313 20.9376 14.0594 20.6251 13.7844C20.3126 13.5094 19.8407 13.5407 19.5657 13.8532L19.1314 14.35L18.672 14.0844C18.7251 13.6969 18.6657 13.3032 18.5001 12.9532Z" fill="black"/>
</svg>
