<svg width="24" height="24" viewBox="0 0 24 24" fill="none" xmlns="http://www.w3.org/2000/svg">
<path d="M5.99997 11H18C18 7.6875 15.3125 5 12 5C8.68747 5 5.99997 7.6875 5.99997 11ZM5.49997 12C5.35622 12 5.21872 12.0625 5.12497 12.1687C5.03122 12.275 4.98435 12.4188 5.0031 12.5625L5.0656 13.0594C5.34685 15.3094 7.26247 17 9.53122 17H10.7937L8.64685 19.1469C8.5031 19.2906 8.46247 19.5063 8.53747 19.6906C8.61247 19.875 8.79685 20 8.99997 20H15C15.2031 20 15.3843 19.8781 15.4625 19.6906C15.5406 19.5031 15.4968 19.2875 15.3531 19.1469L13.2062 17H14.4687C16.7375 17 18.6531 15.3094 18.9343 13.0594L18.9968 12.5625C19.0156 12.4188 18.9718 12.2781 18.875 12.1687C18.7781 12.0594 18.6437 12 18.5 12H5.49997Z" fill="black"/>
</svg>
