<svg width="24" height="24" viewBox="0 0 24 24" fill="none" xmlns="http://www.w3.org/2000/svg">
<path d="M16.0002 5H15.0002C14.4471 5 14.0002 5.44687 14.0002 6C14.0002 6.55313 14.4471 7 15.0002 7H16.0002C16.5533 7 17.0002 7.44687 17.0002 8V9.17188C17.0002 9.96875 17.3158 10.7312 17.8783 11.2937L18.5846 12L17.8783 12.7063C17.3158 13.2688 17.0002 14.0312 17.0002 14.8281V16C17.0002 16.5531 16.5533 17 16.0002 17H15.0002C14.4471 17 14.0002 17.4469 14.0002 18C14.0002 18.5531 14.4471 19 15.0002 19H16.0002C17.6564 19 19.0002 17.6562 19.0002 16V14.8281C19.0002 14.5625 19.1064 14.3094 19.2939 14.1219L20.7096 12.7063C21.1002 12.3156 21.1002 11.6813 20.7096 11.2906L19.2939 9.875C19.1064 9.6875 19.0002 9.43437 19.0002 9.16875V8C19.0002 6.34375 17.6564 5 16.0002 5ZM8.0002 5C6.34395 5 5.0002 6.34375 5.0002 8V9.17188C5.0002 9.4375 4.89395 9.69063 4.70645 9.87813L3.29395 11.2937C2.90332 11.6844 2.90332 12.3188 3.29395 12.7094L4.70957 14.125C4.89707 14.3125 5.00332 14.5656 5.00332 14.8313V16C5.00332 17.6562 6.34707 19 8.00332 19H9.00332C9.55645 19 10.0033 18.5531 10.0033 18C10.0033 17.4469 9.55645 17 9.00332 17H8.0002C7.44707 17 7.0002 16.5531 7.0002 16V14.8281C7.0002 14.0312 6.68457 13.2688 6.12207 12.7063L5.41582 12L6.12207 11.2937C6.68457 10.7312 7.0002 9.96875 7.0002 9.17188V8C7.0002 7.44687 7.44707 7 8.0002 7H9.0002C9.55332 7 10.0002 6.55313 10.0002 6C10.0002 5.44687 9.55332 5 9.0002 5H8.0002Z" fill="black"/>
</svg>
