<svg width="24" height="24" viewBox="0 0 24 24" fill="none" xmlns="http://www.w3.org/2000/svg">
<path d="M3.21243 4.15966C2.88743 3.90341 2.41556 3.96278 2.15931 4.28778C1.90306 4.61278 1.96243 5.08466 2.28743 5.34091L20.7874 19.8409C21.1124 20.0972 21.5843 20.0378 21.8406 19.7128C22.0968 19.3878 22.0374 18.9159 21.7124 18.6597L16.0124 14.1909L17.6593 12.7503C17.9718 12.4753 18.0843 12.0347 17.9374 11.6472C17.7906 11.2597 17.4187 11.0003 16.9999 11.0003H13.5156L15.9187 5.39403C16.1031 4.96591 15.9656 4.46591 15.5874 4.19091C15.2093 3.91591 14.6937 3.94091 14.3406 4.24716L9.13743 8.80341L3.21243 4.15966ZM6.34056 11.2472C6.02806 11.5222 5.91556 11.9628 6.06243 12.3503C6.20931 12.7378 6.58118 12.9972 6.99993 12.9972H9.61556L6.83743 10.8097L6.34056 11.244V11.2472ZM8.08118 18.6065C7.89681 19.0347 8.03431 19.5347 8.41243 19.8097C8.79056 20.0847 9.30618 20.0597 9.65931 19.7534L13.6999 16.219L10.2656 13.5128L8.08118 18.6065Z" fill="black"/>
</svg>
