<svg width="24" height="24" viewBox="0 0 24 24" fill="none" xmlns="http://www.w3.org/2000/svg">
<path d="M2 8V15C2 17.2094 3.79063 19 6 19H12.55C12.0344 18.4187 11.625 17.7406 11.3594 17H6C4.89688 17 4 16.1031 4 15C4 13.8969 4.89688 13 6 13H11.4312C11.6281 12.5156 11.8813 12.0375 12.1594 11.5844C12.8375 10.4844 13.7812 9.35937 14.8875 8.37187C15.2 8.09375 15.6062 7.97187 15.9969 8.00625V8C15.9969 6.34375 14.6531 5 12.9969 5H5C3.34375 5 2 6.34375 2 8ZM11 14.9406C11 14.6344 11.0406 14.3187 11.1125 14H6C5.44687 14 5 14.4469 5 15C5 15.5531 5.44687 16 6 16H11.0938C11.0312 15.6531 11 15.3 11 14.9406ZM17.8031 10.5094L17.2094 9.8875C17.1469 9.82187 17.0844 9.75 17.0219 9.67812C16.7406 9.35937 16.4406 9.0125 16 9.00313C15.7719 8.99688 15.5438 9.075 15.3656 9.2375C14.6344 9.89688 13.8031 10.7656 13.15 11.7438C12.5 12.7125 12 13.8375 12 15.0063C12 17.7719 14.2 20 17 20C19.7719 20 22 17.775 22 15.0063C22 14.0688 21.6562 13.1031 21.1812 12.2531C20.7062 11.3969 20.0781 10.6187 19.4625 10.0469C19.2875 9.88438 19.0625 9.80312 18.8406 9.80312C18.6031 9.80312 18.3563 9.89063 18.1875 10.0813L17.8031 10.5125V10.5094ZM19 16.5063C19 17.6094 18.1031 18.5063 17 18.5063C15.8969 18.5063 15 17.6094 15 16.5063C15 15.3656 16.1562 14.225 16.7125 13.7437C16.8812 13.5969 17.1219 13.5969 17.2906 13.7437C17.8437 14.2219 19 15.3625 19 16.5063Z" fill="black"/>
</svg>
