<svg width="24" height="24" viewBox="0 0 24 24" fill="none" xmlns="http://www.w3.org/2000/svg">
<path d="M7.80312 8.525C8.01875 9.03438 8.44687 9.5 9 9.5H15C15.5531 9.5 15.9812 9.03438 16.1969 8.525C16.575 7.62813 17.4656 7 18.5 7C19.8813 7 21 8.11875 21 9.5C21 10.45 20.4688 11.2781 19.6875 11.7C19.575 11.7594 19.5 11.8719 19.5 12C19.5 12.1281 19.575 12.2406 19.6875 12.3C20.4688 12.7219 21 13.55 21 14.5C21 15.8813 19.8813 17 18.5 17C17.4656 17 16.575 16.3719 16.1969 15.475C15.9812 14.9656 15.5531 14.5 15 14.5H9C8.44687 14.5 8.01875 14.9656 7.80312 15.475C7.425 16.3719 6.53437 17 5.5 17C4.11875 17 3 15.8813 3 14.5C3 13.55 3.53125 12.7219 4.3125 12.3C4.425 12.2406 4.5 12.1281 4.5 12C4.5 11.8719 4.425 11.7594 4.3125 11.7C3.53125 11.2781 3 10.45 3 9.5C3 8.11875 4.11875 7 5.5 7C6.53437 7 7.425 7.62813 7.80312 8.525Z" fill="black"/>
</svg>
