<svg width="24" height="24" viewBox="0 0 24 24" fill="none" xmlns="http://www.w3.org/2000/svg">
<path d="M7.5 4C6.67188 4 6 4.67188 6 5.5V18.5C6 19.3281 6.67188 20 7.5 20H10.5V17.5C10.5 16.6719 11.1719 16 12 16C12.8281 16 13.5 16.6719 13.5 17.5V20H16.5C17.3281 20 18 19.3281 18 18.5V5.5C18 4.67188 17.3281 4 16.5 4H7.5ZM8 11.5C8 11.225 8.225 11 8.5 11H9.5C9.775 11 10 11.225 10 11.5V12.5C10 12.775 9.775 13 9.5 13H8.5C8.225 13 8 12.775 8 12.5V11.5ZM11.5 11H12.5C12.775 11 13 11.225 13 11.5V12.5C13 12.775 12.775 13 12.5 13H11.5C11.225 13 11 12.775 11 12.5V11.5C11 11.225 11.225 11 11.5 11ZM14 11.5C14 11.225 14.225 11 14.5 11H15.5C15.775 11 16 11.225 16 11.5V12.5C16 12.775 15.775 13 15.5 13H14.5C14.225 13 14 12.775 14 12.5V11.5ZM13.4156 6.22187L14.5 7.84687V6.5C14.5 6.225 14.725 6 15 6C15.275 6 15.5 6.225 15.5 6.5V9.5C15.5 9.72188 15.3562 9.91563 15.1438 9.97813C14.9313 10.0406 14.7063 9.95937 14.5844 9.77812L13.5 8.15312V9.5C13.5 9.775 13.275 10 13 10C12.725 10 12.5 9.775 12.5 9.5V6.5C12.5 6.27813 12.6437 6.08437 12.8562 6.02187C13.0687 5.95937 13.2938 6.04062 13.4156 6.22187ZM9.5 6.5V8.5C9.5 8.775 9.725 9 10 9C10.275 9 10.5 8.775 10.5 8.5V6.5C10.5 6.225 10.725 6 11 6C11.275 6 11.5 6.225 11.5 6.5V8.5C11.5 9.32812 10.8281 10 10 10C9.17188 10 8.5 9.32812 8.5 8.5V6.5C8.5 6.225 8.725 6 9 6C9.275 6 9.5 6.225 9.5 6.5Z" fill="black"/>
</svg>
