<svg width="24" height="24" viewBox="0 0 24 24" fill="none" xmlns="http://www.w3.org/2000/svg">
<path d="M11.5 4.99996V16.75L5 15.5V5.08434C5 4.46559 5.55625 3.99371 6.16563 4.09684L11.5 4.99996ZM4.80312 16.6593L12 18.1L19.1969 16.6593C19.6656 16.5656 20 16.1562 20 15.6781V4.89996L20.8031 4.74059C21.4219 4.61559 22 5.08746 22 5.71871V17.1812C22 17.6593 21.6625 18.0687 21.1969 18.1625L12 20L2.80313 18.1593C2.3375 18.0687 2 17.6562 2 17.1812V5.71871C2 5.08746 2.57812 4.61559 3.19687 4.74059L4 4.89996V15.6812C4 16.1593 4.3375 16.5687 4.80312 16.6625V16.6593ZM12.5 16.75V4.99996L17.8344 4.09684C18.4438 3.99371 19 4.46559 19 5.08434V15.5L12.5 16.75Z" fill="black"/>
</svg>
