<svg width="24" height="24" viewBox="0 0 24 24" fill="none" xmlns="http://www.w3.org/2000/svg">
<path d="M3.21243 4.15937C2.88743 3.90312 2.41556 3.96249 2.15931 4.28749C1.90306 4.61249 1.96243 5.08437 2.28743 5.34062L20.7874 19.8406C21.1124 20.0969 21.5843 20.0375 21.8406 19.7125C22.0968 19.3875 22.0374 18.9156 21.7124 18.6594L18.8937 16.45C18.8999 16.4375 18.9062 16.4219 18.9124 16.4094C19.0749 16.05 19.0093 15.6281 18.7468 15.3344L18.5156 15.075C17.5406 13.975 16.9999 12.5594 16.9999 11.0875V10.5C16.9999 8.08124 15.2812 6.06249 12.9999 5.59999V4.99999C12.9999 4.44687 12.5531 3.99999 11.9999 3.99999C11.4468 3.99999 10.9999 4.44687 10.9999 4.99999V5.59999C9.66868 5.86874 8.53118 6.66874 7.81243 7.76562L3.21243 4.15937ZM14.6937 17L6.99993 10.9406V11.0906C6.99993 12.5594 6.45931 13.9781 5.48431 15.0781L5.25306 15.3375C4.99056 15.6312 4.92806 16.0531 5.08743 16.4125C5.24681 16.7719 5.60618 17 5.99993 17H14.6937ZM13.4156 19.4156C13.7906 19.0406 13.9999 18.5312 13.9999 18H11.9999H9.99993C9.99993 18.5312 10.2093 19.0406 10.5843 19.4156C10.9593 19.7906 11.4687 20 11.9999 20C12.5312 20 13.0406 19.7906 13.4156 19.4156Z" fill="black"/>
</svg>
