<svg width="24" height="24" viewBox="0 0 24 24" fill="none" xmlns="http://www.w3.org/2000/svg">
<path d="M4.99995 10.0906C4.99995 10.5938 5.4062 11 5.90933 11H18.0906C18.5937 11 19 10.5938 19 10.0906C19 10.0312 18.9937 9.975 18.9812 9.91563C18.8156 9.25938 17.5375 5 12 5C6.46245 5 5.18433 9.25938 5.0187 9.91563C5.00308 9.975 4.99995 10.0312 4.99995 10.0906ZM7.99995 7.5C8.13256 7.5 8.25974 7.55268 8.3535 7.64645C8.44727 7.74021 8.49995 7.86739 8.49995 8C8.49995 8.13261 8.44727 8.25979 8.3535 8.35355C8.25974 8.44732 8.13256 8.5 7.99995 8.5C7.86734 8.5 7.74017 8.44732 7.6464 8.35355C7.55263 8.25979 7.49995 8.13261 7.49995 8C7.49995 7.86739 7.55263 7.74021 7.6464 7.64645C7.74017 7.55268 7.86734 7.5 7.99995 7.5ZM15.5 8C15.5 7.86739 15.5526 7.74021 15.6464 7.64645C15.7402 7.55268 15.8673 7.5 16 7.5C16.1326 7.5 16.2597 7.55268 16.3535 7.64645C16.4473 7.74021 16.5 7.86739 16.5 8C16.5 8.13261 16.4473 8.25979 16.3535 8.35355C16.2597 8.44732 16.1326 8.5 16 8.5C15.8673 8.5 15.7402 8.44732 15.6464 8.35355C15.5526 8.25979 15.5 8.13261 15.5 8ZM12 6.5C12.1326 6.5 12.2597 6.55268 12.3535 6.64645C12.4473 6.74021 12.5 6.86739 12.5 7C12.5 7.13261 12.4473 7.25979 12.3535 7.35355C12.2597 7.44732 12.1326 7.5 12 7.5C11.8673 7.5 11.7402 7.44732 11.6464 7.35355C11.5526 7.25979 11.5 7.13261 11.5 7C11.5 6.86739 11.5526 6.74021 11.6464 6.64645C11.7402 6.55268 11.8673 6.5 12 6.5ZM4.99995 16.5V17C4.99995 18.1031 5.89683 19 6.99995 19H17C18.1031 19 19 18.1031 19 17V16.5C19 16.225 18.775 16 18.5 16H5.49995C5.22495 16 4.99995 16.225 4.99995 16.5ZM6.49995 15C7.2687 15 7.8812 14.6313 8.2562 14.4062C8.28433 14.3906 8.30933 14.375 8.33433 14.3594C8.76245 14.1062 8.98433 14 9.24995 14C9.49058 14 9.63433 14.0781 10.0437 14.3406L10.05 14.3438C10.4562 14.6031 11.0687 15 12 15C12.9281 15 13.5187 14.6062 13.9062 14.3469L13.9312 14.3313C14.2937 14.0906 14.45 14 14.75 14C15.0781 14 15.3093 14.1156 15.6937 14.3531C15.7218 14.3687 15.75 14.3875 15.7812 14.4062C16.1375 14.6281 16.7281 15 17.5 15C18.1718 15 18.7 14.8313 19.0718 14.6438C19.2562 14.55 19.4 14.4563 19.5062 14.3781C19.5593 14.3375 19.6031 14.3031 19.6343 14.275C19.65 14.2594 19.6656 14.2469 19.6781 14.2375L19.6937 14.2219L19.7 14.2156L19.7031 14.2125C19.7031 14.2125 19.7031 14.2125 18.9968 13.5063L19.7031 14.2125C20.0937 13.8219 20.0937 13.1875 19.7031 12.7969C19.3187 12.4125 18.7031 12.4062 18.3125 12.775L18.3031 12.7812C18.2843 12.7969 18.2406 12.825 18.175 12.8594C18.0468 12.9219 17.825 13.0031 17.4968 13.0031C17.3343 13.0031 17.2093 12.9406 16.7406 12.65C16.3156 12.3844 15.6718 12 14.75 12C13.8218 12 13.2312 12.3937 12.8437 12.6531L12.8187 12.6687C12.4562 12.9094 12.3031 13 12 13C11.6875 13 11.4968 12.9 11.125 12.6594L11.0687 12.625C10.6968 12.3844 10.1062 12 9.24683 12C8.3812 12 7.73433 12.3844 7.32183 12.6313L7.3062 12.6406C6.83433 12.925 6.67495 13 6.49995 13C6.17183 13 5.94995 12.9187 5.82183 12.8562C5.7562 12.825 5.71245 12.7937 5.6937 12.7781L5.68433 12.7719C5.2937 12.4031 4.67495 12.4094 4.2937 12.7937C3.90308 13.1844 3.90308 13.8188 4.2937 14.2094L4.9937 13.5094C4.2937 14.2062 4.2937 14.2063 4.2937 14.2063L4.29683 14.2094L4.30308 14.2156L4.3187 14.2312C4.3312 14.2437 4.3437 14.2563 4.36245 14.2688C4.39683 14.2969 4.43745 14.3344 4.49058 14.3719C4.59683 14.45 4.74058 14.5469 4.92495 14.6375C5.29995 14.8313 5.82808 15 6.49995 15Z" fill="black"/>
</svg>
