<svg width="24" height="24" viewBox="0 0 24 24" fill="none" xmlns="http://www.w3.org/2000/svg">
<path d="M12 20C14.1217 20 16.1566 19.1571 17.6569 17.6569C19.1571 16.1566 20 14.1217 20 12C20 9.87827 19.1571 7.84344 17.6569 6.34315C16.1566 4.84285 14.1217 4 12 4C9.87827 4 7.84344 4.84285 6.34315 6.34315C4.84285 7.84344 4 9.87827 4 12C4 14.1217 4.84285 16.1566 6.34315 17.6569C7.84344 19.1571 9.87827 20 12 20ZM10.2312 13.7688C11.2062 14.7438 12.7906 14.7438 13.7656 13.7688C14.0594 13.475 14.5344 13.475 14.825 13.7688C15.1156 14.0625 15.1187 14.5375 14.825 14.8281C13.2625 16.3906 10.7312 16.3906 9.16875 14.8281C7.60625 13.2656 7.60625 10.7344 9.16875 9.17188C10.7312 7.60938 13.2625 7.60938 14.825 9.17188C15.1187 9.46562 15.1187 9.94062 14.825 10.2312C14.5312 10.5219 14.0562 10.525 13.7656 10.2312C12.7906 9.25625 11.2062 9.25625 10.2312 10.2312C9.25625 11.2062 9.25625 12.7906 10.2312 13.7656V13.7688Z" fill="black"/>
</svg>
