<svg width="24" height="24" viewBox="0 0 24 24" fill="none" xmlns="http://www.w3.org/2000/svg">
<path d="M14.8346 4.1875C14.5502 4.53125 14.0002 5.32187 14.0002 6.25C14.0002 7.5 14.4783 7.97813 15.2502 8.75C16.0221 9.52187 16.5002 10 17.7502 10C18.6783 10 19.469 9.45 19.8127 9.16563C19.9377 9.0625 20.0002 8.90938 20.0002 8.75C20.0002 8.59062 19.9377 8.4375 19.8127 8.3375C19.4565 8.05312 18.6158 7.5 17.5002 7.5C16.5002 7.5 16.2502 7.75 16.2502 7.75C16.2502 7.75 16.5002 7.5 16.5002 6.5C16.5002 5.38437 15.9471 4.54375 15.6627 4.1875C15.5627 4.0625 15.4096 4 15.2502 4C15.0908 4 14.9377 4.0625 14.8346 4.1875ZM11.644 8.25C10.394 8.25 9.2346 8.81562 8.46585 9.75625L10.3565 11.6469C10.5502 11.8406 10.5502 12.1594 10.3565 12.3531C10.1627 12.5469 9.84397 12.5469 9.65022 12.3531L7.9221 10.625V10.6281L4.06897 18.9344C3.93772 19.2188 3.9971 19.5562 4.21897 19.7812C4.44085 20.0063 4.77835 20.0625 5.06585 19.9312L9.27522 17.9812L7.6471 16.3531C7.45335 16.1594 7.45335 15.8406 7.6471 15.6469C7.84085 15.4531 8.1596 15.4531 8.35335 15.6469L10.2408 17.5312L13.3721 16.0813C14.8221 15.4094 15.7533 13.9563 15.7533 12.3562C15.7502 10.0875 13.9127 8.25 11.644 8.25Z" fill="black"/>
</svg>
