<svg width="24" height="24" viewBox="0 0 24 24" fill="none" xmlns="http://www.w3.org/2000/svg">
<path d="M5.85625 6.34063C5.925 6.1375 6.11563 6 6.33125 6H10.6687C10.8844 6 11.075 6.1375 11.1438 6.34063L11.6969 8H5.30312L5.85625 6.34063ZM3.12812 8.2C2.4625 8.52187 2 9.20625 2 10V13V14C2 14.5531 2.44687 15 3 15H3.5C4.05313 15 4.5 14.5531 4.5 14V13H8.76562C8.925 12.8219 9.10313 12.6656 9.3 12.5281L10.0125 10.3938C10.4875 8.96563 11.825 8 13.3344 8H13.8062L13.0406 5.70938C12.7 4.6875 11.7437 4 10.6687 4H6.33125C5.25625 4 4.3 4.6875 3.95938 5.70938L3.12812 8.2ZM3.75 10.5C3.75 10.3011 3.82902 10.1103 3.96967 9.96967C4.11032 9.82902 4.30109 9.75 4.5 9.75C4.69891 9.75 4.88968 9.82902 5.03033 9.96967C5.17098 10.1103 5.25 10.3011 5.25 10.5C5.25 10.6989 5.17098 10.8897 5.03033 11.0303C4.88968 11.171 4.69891 11.25 4.5 11.25C4.30109 11.25 4.11032 11.171 3.96967 11.0303C3.82902 10.8897 3.75 10.6989 3.75 10.5ZM13.3313 11H17.6687C17.8844 11 18.075 11.1375 18.1437 11.3406L18.6969 13H12.3031L12.8562 11.3406C12.925 11.1375 13.1156 11 13.3313 11ZM10.9594 10.7094L10.1281 13.2C9.4625 13.5219 9 14.2063 9 15V18V19C9 19.5531 9.44687 20 10 20H10.5C11.0531 20 11.5 19.5531 11.5 19V18H19.5V19C19.5 19.5531 19.9469 20 20.5 20H21C21.5531 20 22 19.5531 22 19V18V15C22 14.2063 21.5375 13.5219 20.8719 13.2L20.0406 10.7094C19.7 9.6875 18.7437 9 17.6687 9H13.3313C12.2563 9 11.3 9.6875 10.9594 10.7094ZM11.5 14.75C11.6989 14.75 11.8897 14.829 12.0303 14.9697C12.171 15.1103 12.25 15.3011 12.25 15.5C12.25 15.6989 12.171 15.8897 12.0303 16.0303C11.8897 16.171 11.6989 16.25 11.5 16.25C11.3011 16.25 11.1103 16.171 10.9697 16.0303C10.829 15.8897 10.75 15.6989 10.75 15.5C10.75 15.3011 10.829 15.1103 10.9697 14.9697C11.1103 14.829 11.3011 14.75 11.5 14.75ZM18.75 15.5C18.75 15.3011 18.829 15.1103 18.9697 14.9697C19.1103 14.829 19.3011 14.75 19.5 14.75C19.6989 14.75 19.8897 14.829 20.0303 14.9697C20.171 15.1103 20.25 15.3011 20.25 15.5C20.25 15.6989 20.171 15.8897 20.0303 16.0303C19.8897 16.171 19.6989 16.25 19.5 16.25C19.3011 16.25 19.1103 16.171 18.9697 16.0303C18.829 15.8897 18.75 15.6989 18.75 15.5Z" fill="black"/>
</svg>
