<svg width="24" height="24" viewBox="0 0 24 24" fill="none" xmlns="http://www.w3.org/2000/svg">
<path d="M7 4C6.44687 4 6 4.44687 6 5V6H4.5C3.67188 6 3 6.67188 3 7.5V9H17V7.5C17 6.67188 16.3281 6 15.5 6H14V5C14 4.44687 13.5531 4 13 4C12.4469 4 12 4.44687 12 5V6H8V5C8 4.44687 7.55313 4 7 4ZM11 15.5C11 12.6312 13.1969 10.275 16 10.0219V10H3V18.5C3 19.3281 3.67188 20 4.5 20H13.3375C11.925 19.0031 11 17.3594 11 15.5ZM16.5 20C17.6935 20 18.8381 19.5259 19.682 18.682C20.5259 17.8381 21 16.6935 21 15.5C21 14.3065 20.5259 13.1619 19.682 12.318C18.8381 11.4741 17.6935 11 16.5 11C15.3065 11 14.1619 11.4741 13.318 12.318C12.4741 13.1619 12 14.3065 12 15.5C12 16.6935 12.4741 17.8381 13.318 18.682C14.1619 19.5259 15.3065 20 16.5 20ZM16.5 17C16.6989 17 16.8897 17.079 17.0303 17.2197C17.171 17.3603 17.25 17.5511 17.25 17.75C17.25 17.9489 17.171 18.1397 17.0303 18.2803C16.8897 18.421 16.6989 18.5 16.5 18.5C16.3011 18.5 16.1103 18.421 15.9697 18.2803C15.829 18.1397 15.75 17.9489 15.75 17.75C15.75 17.5511 15.829 17.3603 15.9697 17.2197C16.1103 17.079 16.3011 17 16.5 17ZM16.5 12.5C16.775 12.5 17 12.725 17 13V15.5C17 15.775 16.775 16 16.5 16C16.225 16 16 15.775 16 15.5V13C16 12.725 16.225 12.5 16.5 12.5Z" fill="black"/>
</svg>
