<svg width="24" height="24" viewBox="0 0 24 24" fill="none" xmlns="http://www.w3.org/2000/svg">
<path d="M5.5 11C4.67188 11 4 11.6719 4 12.5V15H20V12.5C20 11.6719 19.3281 11 18.5 11H5.5ZM20 16H4V18.5C4 19.3281 4.67188 20 5.5 20H18.5C19.3281 20 20 19.3281 20 18.5V16ZM6 12.5C6.13261 12.5 6.25979 12.5527 6.35355 12.6464C6.44732 12.7402 6.5 12.8674 6.5 13C6.5 13.1326 6.44732 13.2598 6.35355 13.3536C6.25979 13.4473 6.13261 13.5 6 13.5C5.86739 13.5 5.74021 13.4473 5.64645 13.3536C5.55268 13.2598 5.5 13.1326 5.5 13C5.5 12.8674 5.55268 12.7402 5.64645 12.6464C5.74021 12.5527 5.86739 12.5 6 12.5ZM5.5 18C5.5 17.8674 5.55268 17.7402 5.64645 17.6464C5.74021 17.5527 5.86739 17.5 6 17.5C6.13261 17.5 6.25979 17.5527 6.35355 17.6464C6.44732 17.7402 6.5 17.8674 6.5 18C6.5 18.1326 6.44732 18.2598 6.35355 18.3536C6.25979 18.4473 6.13261 18.5 6 18.5C5.86739 18.5 5.74021 18.4473 5.64645 18.3536C5.55268 18.2598 5.5 18.1326 5.5 18ZM18 12.5C18.1326 12.5 18.2598 12.5527 18.3536 12.6464C18.4473 12.7402 18.5 12.8674 18.5 13C18.5 13.1326 18.4473 13.2598 18.3536 13.3536C18.2598 13.4473 18.1326 13.5 18 13.5C17.8674 13.5 17.7402 13.4473 17.6464 13.3536C17.5527 13.2598 17.5 13.1326 17.5 13C17.5 12.8674 17.5527 12.7402 17.6464 12.6464C17.7402 12.5527 17.8674 12.5 18 12.5ZM17.5 18C17.5 17.8674 17.5527 17.7402 17.6464 17.6464C17.7402 17.5527 17.8674 17.5 18 17.5C18.1326 17.5 18.2598 17.5527 18.3536 17.6464C18.4473 17.7402 18.5 17.8674 18.5 18C18.5 18.1326 18.4473 18.2598 18.3536 18.3536C18.2598 18.4473 18.1326 18.5 18 18.5C17.8674 18.5 17.7402 18.4473 17.6464 18.3536C17.5527 18.2598 17.5 18.1326 17.5 18Z" fill="black"/>
</svg>
