<svg width="24" height="24" viewBox="0 0 24 24" fill="none" xmlns="http://www.w3.org/2000/svg">
<path d="M12 20C14.1217 20 16.1566 19.1571 17.6569 17.6569C19.1571 16.1566 20 14.1217 20 12C20 9.87827 19.1571 7.84344 17.6569 6.34315C16.1566 4.84285 14.1217 4 12 4C9.87827 4 7.84344 4.84285 6.34315 6.34315C4.84285 7.84344 4 9.87827 4 12C4 14.1217 4.84285 16.1566 6.34315 17.6569C7.84344 19.1571 9.87827 20 12 20ZM12.75 7.75V11.7719L14.625 14.5844C14.8563 14.9281 14.7625 15.3937 14.4156 15.625C14.0687 15.8563 13.6063 15.7625 13.375 15.4156L11.375 12.4156C11.2938 12.2937 11.25 12.1469 11.25 12V7.75C11.25 7.33437 11.5844 7 12 7C12.4156 7 12.75 7.33437 12.75 7.75Z" fill="black"/>
</svg>
