<svg width="24" height="24" viewBox="0 0 24 24" fill="none" xmlns="http://www.w3.org/2000/svg">
<path d="M12 20C14.1217 20 16.1566 19.1571 17.6569 17.6569C19.1571 16.1566 20 14.1217 20 12C20 9.87827 19.1571 7.84344 17.6569 6.34315C16.1566 4.84285 14.1217 4 12 4C9.87827 4 7.84344 4.84285 6.34315 6.34315C4.84285 7.84344 4 9.87827 4 12C4 14.1217 4.84285 16.1566 6.34315 17.6569C7.84344 19.1571 9.87827 20 12 20ZM12.1719 9C11.6469 9 11.2219 9.42813 11.225 9.95312L11.2312 11H12.5C12.775 11 13 11.225 13 11.5C13 11.775 12.775 12 12.5 12H11.2406L11.2438 12.3031C11.2469 12.8844 11.1469 13.4594 10.9437 14H14.25C14.6656 14 15 14.3344 15 14.75C15 15.1656 14.6656 15.5 14.25 15.5H9.75C9.4875 15.5 9.24688 15.3625 9.10938 15.1406C8.97187 14.9188 8.9625 14.6406 9.08437 14.4062L9.38438 13.825C9.625 13.3594 9.74688 12.8406 9.74375 12.3156L9.74062 12H9.5C9.225 12 9 11.775 9 11.5C9 11.225 9.225 11 9.5 11H9.73438L9.72813 9.96562C9.71875 8.60625 10.8156 7.5 12.175 7.5C12.4875 7.5 12.7938 7.55937 13.0844 7.675L14.0312 8.05312C14.4156 8.20625 14.6031 8.64375 14.45 9.02812C14.2969 9.4125 13.8594 9.6 13.475 9.44688L12.5281 9.06875C12.4156 9.025 12.2969 9 12.175 9H12.1719Z" fill="black"/>
</svg>
