<svg width="24" height="24" viewBox="0 0 24 24" fill="none" xmlns="http://www.w3.org/2000/svg">
<path d="M9.74981 4C9.24668 4 8.82168 4.375 8.75918 4.87187L8.03731 10.5C7.77793 12.5437 9.10293 14.3875 10.9998 14.875V18H9.49981C8.94668 18 8.49981 18.4469 8.49981 19C8.49981 19.5531 8.94668 20 9.49981 20H11.9998H14.4998C15.0529 20 15.4998 19.5531 15.4998 19C15.4998 18.4469 15.0529 18 14.4998 18H12.9998V14.875C14.8967 14.3875 16.2217 12.5437 15.9623 10.5L15.2436 4.87187C15.1779 4.375 14.7529 4 14.2498 4H9.74981ZM10.3748 8L10.6311 6H13.3717L13.6279 8H10.3748Z" fill="black"/>
</svg>
