<svg width="24" height="24" viewBox="0 0 24 24" fill="none" xmlns="http://www.w3.org/2000/svg">
<path d="M12 18C16.4188 18 20 15.0906 20 11.5C20 7.90937 16.4188 5 12 5C7.58129 5 4.00004 7.90937 4.00004 11.5C4.00004 12.9094 4.55316 14.2125 5.49066 15.2781C5.43129 16.0437 5.13441 16.725 4.82191 17.2437C4.65004 17.5312 4.47504 17.7625 4.34691 17.9187C4.28129 17.9969 4.23129 18.0563 4.19379 18.0969C4.17504 18.1156 4.16254 18.1313 4.15316 18.1406L4.14379 18.15C4.00004 18.2937 3.95941 18.5063 4.03754 18.6938C4.11566 18.8813 4.29691 19.0031 4.50004 19.0031C5.39691 19.0031 6.30004 18.725 7.05004 18.4C7.76566 18.0875 8.37504 17.7156 8.74691 17.4438C9.74066 17.8031 10.8407 18.0031 12 18.0031V18ZM14.65 8.84375C15.1094 9.30312 15.1094 10.05 14.65 10.5094L14.1844 10.975L12.5188 9.3125L12.9844 8.84375C13.4438 8.38438 14.1907 8.38438 14.65 8.84375ZM9.56566 12.2656L11.8125 10.0188L13.4782 11.6844L11.2313 13.9312C11.1032 14.0594 10.9438 14.15 10.7657 14.1938L9.62191 14.4812C9.45004 14.525 9.27191 14.475 9.14691 14.35C9.02191 14.225 8.97191 14.0469 9.01566 13.875L9.30316 12.7281C9.34691 12.5531 9.43754 12.3906 9.56566 12.2625V12.2656Z" fill="black"/>
</svg>
