<svg width="24" height="24" viewBox="0 0 24 24" fill="none" xmlns="http://www.w3.org/2000/svg">
<path d="M2.86854 7.71251C2.03729 8.19376 1.75292 9.25626 2.23417 10.0906L7.45292 19.1313C7.93417 19.9625 8.99667 20.25 9.83104 19.7688L15.856 16.2875C16.6873 15.8063 16.9748 14.7438 16.4935 13.9094L11.2748 4.86876C10.7935 4.03751 9.72792 3.75313 8.89667 4.23438L2.86854 7.71251ZM16.356 17.1531L12.1279 19.5938C12.431 19.8469 12.8217 20 13.2498 20H20.2498C21.2154 20 21.9998 19.2156 21.9998 18.25V7.75001C21.9998 6.78438 21.2154 6.00001 20.2498 6.00001H13.2498C13.1935 6.00001 13.1404 6.00313 13.0842 6.00626L17.3592 13.4094C18.1154 14.7188 17.6654 16.3969 16.356 17.1531Z" fill="black"/>
</svg>
