<svg width="24" height="24" viewBox="0 0 24 24" fill="none" xmlns="http://www.w3.org/2000/svg">
<path d="M11.1935 4.03778C11.3529 4.1034 11.4654 4.24715 11.4935 4.4159L11.9342 7.06278L14.581 7.5034C14.7498 7.53153 14.8935 7.64403 14.9592 7.8034C15.0248 7.96278 15.006 8.14403 14.9092 8.28465L13.706 10.0034C13.6373 10.0003 13.5685 9.99715 13.4967 9.99715C12.7685 9.99715 12.0873 10.1909 11.4967 10.5315V10.4972C11.4967 8.8409 10.1529 7.49715 8.49666 7.49715C6.84041 7.49715 5.49666 8.8409 5.49666 10.4972C5.49666 12.1534 6.84041 13.4972 8.49666 13.4972C8.74979 13.4972 8.99354 13.4659 9.22791 13.4065C8.08416 13.9722 7.24979 15.0659 7.04666 16.3722L6.28416 16.9034C6.14354 17.0003 5.96229 17.0222 5.80291 16.9534C5.64354 16.8847 5.53104 16.744 5.50291 16.5753L5.06541 13.9347L2.41854 13.494C2.24979 13.4659 2.10604 13.3534 2.04041 13.194C1.97479 13.0347 1.99354 12.8534 2.09041 12.7128L3.64041 10.5003L2.09041 8.28778C1.99041 8.14715 1.97166 7.9659 2.04041 7.80653C2.10916 7.64715 2.24979 7.53465 2.41854 7.50653L5.06541 7.0659L5.50604 4.41903C5.53416 4.25028 5.64666 4.10653 5.80604 4.0409C5.96541 3.97528 6.14666 3.99403 6.28729 4.0909L8.49979 5.6409L10.7123 4.0909C10.8529 3.9909 11.0342 3.97215 11.1935 4.0409V4.03778ZM6.49979 10.5003C6.49979 9.96984 6.7105 9.46113 7.08557 9.08606C7.46065 8.71099 7.96935 8.50028 8.49979 8.50028C9.03022 8.50028 9.53893 8.71099 9.914 9.08606C10.2891 9.46113 10.4998 9.96984 10.4998 10.5003C10.4998 11.0307 10.2891 11.5394 9.914 11.9145C9.53893 12.2896 9.03022 12.5003 8.49979 12.5003C7.96935 12.5003 7.46065 12.2896 7.08557 11.9145C6.7105 11.5394 6.49979 11.0307 6.49979 10.5003ZM21.9967 17.4972C21.9967 18.8784 20.8779 19.9972 19.4967 19.9972H10.9998C9.34354 19.9972 7.99979 18.6534 7.99979 16.9972C7.99979 15.5097 9.08104 14.2784 10.4998 14.0409V14.0003C10.4998 12.344 11.8435 11.0003 13.4998 11.0003C14.5904 11.0003 15.5435 11.5815 16.0685 12.4503C16.4748 12.1659 16.9685 12.0003 17.4998 12.0003C18.881 12.0003 19.9998 13.119 19.9998 14.5003C19.9998 14.6847 19.981 14.8659 19.9404 15.0378C21.1092 15.2472 21.9967 16.269 21.9967 17.4972Z" fill="black"/>
</svg>
