<svg width="24" height="24" viewBox="0 0 24 24" fill="none" xmlns="http://www.w3.org/2000/svg">
<path d="M9.16875 7H14.8313C15.2563 7 15.6344 7.26875 15.775 7.66875L16.5906 10H7.40937L8.225 7.66875C8.36562 7.26875 8.74375 7 9.16875 7ZM6.3375 7.00938L5.2375 10.15C4.5125 10.45 4 11.1656 4 12V14.5C4 15.2406 4.40312 15.8875 5 16.2312V18C5 18.5531 5.44687 19 6 19H7C7.55312 19 8 18.5531 8 18V16.5H16V18C16 18.5531 16.4469 19 17 19H18C18.5531 19 19 18.5531 19 18V16.2312C19.5969 15.8844 20 15.2406 20 14.5V12C20 11.1656 19.4875 10.45 18.7625 10.15L17.6625 7.00938C17.2406 5.80625 16.1062 5 14.8313 5H9.16875C7.89375 5 6.75938 5.80625 6.3375 7.00938ZM10.5 12.5H13.5C13.775 12.5 14 12.725 14 13V14C14 14.275 13.775 14.5 13.5 14.5H10.5C10.225 14.5 10 14.275 10 14V13C10 12.725 10.225 12.5 10.5 12.5ZM5.5 12.75C5.5 12.3344 5.83438 12 6.25 12H7.25C7.66563 12 8 12.3344 8 12.75C8 13.1656 7.66563 13.5 7.25 13.5H6.25C5.83438 13.5 5.5 13.1656 5.5 12.75ZM16.75 12H17.75C18.1656 12 18.5 12.3344 18.5 12.75C18.5 13.1656 18.1656 13.5 17.75 13.5H16.75C16.3344 13.5 16 13.1656 16 12.75C16 12.3344 16.3344 12 16.75 12Z" fill="black"/>
</svg>
