<svg width="24" height="24" viewBox="0 0 24 24" fill="none" xmlns="http://www.w3.org/2000/svg">
<path d="M3.21268 4.15931C2.88768 3.90306 2.4158 3.96243 2.15955 4.28743C1.9033 4.61243 1.96268 5.08431 2.28768 5.34056L20.7877 19.8406C21.1127 20.0968 21.5846 20.0374 21.8408 19.7124C22.0971 19.3874 22.0377 18.9156 21.7127 18.6593L20.7502 17.9062C21.5189 17.1781 22.0002 16.1468 22.0002 14.9999C22.0002 13.0656 20.6252 11.4499 18.8002 11.0812C18.9283 10.7468 19.0002 10.3812 19.0002 9.99993C19.0002 8.34368 17.6564 6.99993 16.0002 6.99993C15.3846 6.99993 14.8096 7.18743 14.3346 7.50618C13.4689 6.00618 11.8533 4.99993 10.0002 4.99993C8.55018 4.99993 7.24393 5.61868 6.33143 6.60306L3.21268 4.15931ZM17.2314 18.9999L5.03768 9.39368C5.01268 9.59368 5.00018 9.79681 5.00018 9.99993C5.00018 10.0843 5.0033 10.1687 5.00643 10.2531C3.25643 10.8687 2.00018 12.5374 2.00018 14.4999C2.00018 16.9843 4.0158 18.9999 6.50018 18.9999H17.2314Z" fill="black"/>
</svg>
