<svg width="24" height="24" viewBox="0 0 24 24" fill="none" xmlns="http://www.w3.org/2000/svg">
<path d="M12 18C16.4188 18 20 15.0906 20 11.5C20 7.90937 16.4188 5 12 5C7.58126 5 4.00001 7.90937 4.00001 11.5C4.00001 12.9094 4.55313 14.2125 5.49063 15.2781C5.43126 16.0437 5.13438 16.725 4.82188 17.2437C4.65001 17.5312 4.47501 17.7625 4.34688 17.9187C4.28126 17.9969 4.23126 18.0563 4.19376 18.0969C4.17501 18.1156 4.16251 18.1313 4.15313 18.1406L4.14376 18.15C4.00001 18.2937 3.95938 18.5063 4.03751 18.6938C4.11563 18.8813 4.29688 19.0031 4.50001 19.0031C5.39688 19.0031 6.30001 18.725 7.05001 18.4C7.76563 18.0875 8.37501 17.7156 8.74688 17.4438C9.74063 17.8031 10.8406 18.0031 12 18.0031V18ZM7.00001 10.65C7.00001 10.0156 7.51563 9.5 8.15001 9.5H8.75001C9.02501 9.5 9.25001 9.725 9.25001 10C9.25001 10.275 9.02501 10.5 8.75001 10.5H8.15001C8.06563 10.5 8.00001 10.5687 8.00001 10.65C8.00001 10.7 8.02501 10.7469 8.06876 10.775L8.98751 11.3875C9.30938 11.6 9.50001 11.9594 9.50001 12.3469C9.50001 12.9813 8.98438 13.4969 8.35001 13.4969H7.50001C7.22501 13.4969 7.00001 13.2719 7.00001 12.9969C7.00001 12.7219 7.22501 12.4969 7.50001 12.4969H8.35001C8.43438 12.4969 8.50001 12.4281 8.50001 12.3469C8.50001 12.2969 8.47501 12.25 8.43126 12.2219L7.51251 11.6094C7.19376 11.3969 7.00001 11.0375 7.00001 10.65ZM15.65 9.5H16.25C16.525 9.5 16.75 9.725 16.75 10C16.75 10.275 16.525 10.5 16.25 10.5H15.65C15.5656 10.5 15.5 10.5687 15.5 10.65C15.5 10.7 15.525 10.7469 15.5688 10.775L16.4875 11.3875C16.8063 11.6 17 11.9594 17 12.3469C17 12.9813 16.4844 13.4969 15.85 13.4969H15C14.725 13.4969 14.5 13.2719 14.5 12.9969C14.5 12.7219 14.725 12.4969 15 12.4969H15.85C15.9344 12.4969 16 12.4281 16 12.3469C16 12.2969 15.975 12.25 15.9313 12.2219L15.0125 11.6094C14.6938 11.3969 14.5 11.0375 14.5 10.65C14.5 10.0156 15.0156 9.5 15.65 9.5ZM10.9 9.7L12 11.1656L13.1 9.7C13.2281 9.52812 13.4531 9.45625 13.6594 9.525C13.8656 9.59375 14 9.78438 14 10V13C14 13.275 13.775 13.5 13.5 13.5C13.225 13.5 13 13.275 13 13V11.5L12.4 12.3C12.3063 12.425 12.1563 12.5 12 12.5C11.8438 12.5 11.6938 12.425 11.6 12.3L11 11.5V13C11 13.275 10.775 13.5 10.5 13.5C10.225 13.5 10 13.275 10 13V10C10 9.78438 10.1375 9.59375 10.3406 9.525C10.5438 9.45625 10.7688 9.52812 10.9 9.7Z" fill="black"/>
</svg>
