<svg width="24" height="24" viewBox="0 0 24 24" fill="none" xmlns="http://www.w3.org/2000/svg">
<path d="M8 4C6.89688 4 6 4.89688 6 6V18C6 19.1031 6.89688 20 8 20H16C17.1031 20 18 19.1031 18 18V6C18 4.89688 17.1031 4 16 4H8ZM11.4688 8.30625C11.7625 8.0125 12.2375 8.0125 12.5281 8.30625L13.2344 9.0125L15.2344 11.0125C15.9187 11.6969 15.9187 12.8031 15.2344 13.4875C14.55 14.1719 13.4437 14.1719 12.7594 13.4875L12.5281 13.2563C12.5187 13.2469 12.5094 13.2375 12.4969 13.2281V14.5H12.9969C13.2719 14.5 13.4969 14.725 13.4969 15C13.4969 15.275 13.2719 15.5 12.9969 15.5H11C10.725 15.5 10.5 15.275 10.5 15C10.5 14.725 10.725 14.5 11 14.5H11.5V13.225C11.4906 13.2344 11.4781 13.2438 11.4688 13.2531L11.2375 13.4844C10.5531 14.1687 9.44688 14.1687 8.7625 13.4844C8.07812 12.8 8.07812 11.6937 8.7625 11.0094L10.7625 9.00938L11.4688 8.30625Z" fill="black"/>
</svg>
