<svg width="24" height="24" viewBox="0 0 24 24" fill="none" xmlns="http://www.w3.org/2000/svg">
<path d="M10 6C10.2652 6 10.5196 5.89464 10.7071 5.70711C10.8946 5.51957 11 5.26522 11 5C11 4.73478 10.8946 4.48043 10.7071 4.29289C10.5196 4.10536 10.2652 4 10 4C9.73478 4 9.48043 4.10536 9.29289 4.29289C9.10536 4.48043 9 4.73478 9 5C9 5.26522 9.10536 5.51957 9.29289 5.70711C9.48043 5.89464 9.73478 6 10 6ZM13.5 8C13.8978 8 14.2794 7.84196 14.5607 7.56066C14.842 7.27936 15 6.89782 15 6.5C15 6.10218 14.842 5.72064 14.5607 5.43934C14.2794 5.15804 13.8978 5 13.5 5C13.1022 5 12.7206 5.15804 12.4393 5.43934C12.158 5.72064 12 6.10218 12 6.5C12 6.89782 12.158 7.27936 12.4393 7.56066C12.7206 7.84196 13.1022 8 13.5 8ZM6.09687 11C5.51562 12.0312 5 13.2844 5 14.45C5 15.6187 5.37187 16.6187 6 17.4344V19.25C6 19.6656 6.33438 20 6.75 20C7.16563 20 7.5 19.6656 7.5 19.25V18.7812C8.7625 19.5781 10.3688 20 12 20C13.6313 20 15.2375 19.5781 16.5 18.7812V19.25C16.5 19.6656 16.8344 20 17.25 20C17.6656 20 18 19.6656 18 19.25V17.4344C18.6281 16.6187 19 15.6187 19 14.45C19 13.2844 18.4844 12.0312 17.9031 11H18C18.5531 11 19 10.5531 19 10C19 9.44688 18.5531 9 18 9H16.5H12H7.5H6C5.44687 9 5 9.44688 5 10C5 10.5531 5.44687 11 6 11H6.09687Z" fill="black"/>
</svg>
