<svg width="24" height="24" viewBox="0 0 24 24" fill="none" xmlns="http://www.w3.org/2000/svg">
<path d="M3.21243 4.15943C2.88743 3.90318 2.41556 3.96255 2.15931 4.28755C1.90306 4.61255 1.96243 5.08443 2.28743 5.34068L20.7874 19.8407C21.1124 20.0969 21.5843 20.0376 21.8406 19.7126C22.0968 19.3876 22.0374 18.9157 21.7124 18.6594L18.0281 15.7719C19.2562 14.6313 19.9999 13.1344 19.9999 11.5001C19.9999 7.90943 16.4187 5.00005 11.9999 5.00005C9.88431 5.00005 7.95931 5.6688 6.52806 6.75943L3.21243 4.15943ZM15.2499 17.4407L4.59056 9.04068C4.20931 9.80005 3.99993 10.6313 3.99993 11.5001C3.99993 12.9094 4.55306 14.2126 5.49056 15.2782C5.43118 16.0438 5.13431 16.7251 4.82181 17.2438C4.64993 17.5313 4.47493 17.7626 4.34681 17.9188C4.28118 17.9969 4.23118 18.0563 4.19368 18.0969C4.17493 18.1157 4.16243 18.1313 4.15306 18.1407L4.14368 18.1501C3.99993 18.2938 3.95931 18.5063 4.03743 18.6938C4.11556 18.8813 4.29681 19.0032 4.49993 19.0032C5.39681 19.0032 6.29993 18.7251 7.04993 18.4001C7.76556 18.0876 8.37493 17.7157 8.74681 17.4438C9.74056 17.8032 10.8406 18.0032 11.9999 18.0032C13.1562 18.0032 14.2593 17.8032 15.2531 17.4438L15.2499 17.4407Z" fill="black"/>
</svg>
