<svg width="24" height="24" viewBox="0 0 24 24" fill="none" xmlns="http://www.w3.org/2000/svg">
<path d="M11.4188 4.1875C11.7656 3.9375 12.2344 3.9375 12.5813 4.1875L16 6.62812V6C16 5.44687 16.4469 5 17 5H18C18.5531 5 19 5.44687 19 6V8.77187L19.5813 9.1875C19.9344 9.44063 20.0844 9.89375 19.9531 10.3063C19.8219 10.7188 19.4344 11 19 11H18H17H5.00001C4.56563 11 4.18126 10.7188 4.04688 10.3063C3.91251 9.89375 4.06563 9.4375 4.41876 9.1875L11.4188 4.1875ZM5.00001 12.75C5.00001 12.3344 5.33438 12 5.75001 12H9.25001C9.66563 12 10 12.3344 10 12.75V13.25C10 13.6656 9.66563 14 9.25001 14H5.75001C5.33438 14 5.00001 13.6656 5.00001 13.25V12.75ZM5.75001 15H9.25001C9.66563 15 10 15.3344 10 15.75V16.25C10 16.6656 9.66563 17 9.25001 17H5.75001C5.33438 17 5.00001 16.6656 5.00001 16.25V15.75C5.00001 15.3344 5.33438 15 5.75001 15ZM5.75001 18H9.25001C9.66563 18 10 18.3344 10 18.75V19.25C10 19.6656 9.66563 20 9.25001 20H5.75001C5.33438 20 5.00001 19.6656 5.00001 19.25V18.75C5.00001 18.3344 5.33438 18 5.75001 18ZM14 12.75C14 12.3344 14.3344 12 14.75 12H18.25C18.6656 12 19 12.3344 19 12.75V13.25C19 13.6656 18.6656 14 18.25 14H14.75C14.3344 14 14 13.6656 14 13.25V12.75ZM14.75 18H18.25C18.6656 18 19 18.3344 19 18.75V19.25C19 19.6656 18.6656 20 18.25 20H14.75C14.3344 20 14 19.6656 14 19.25V18.75C14 18.3344 14.3344 18 14.75 18ZM14 15.75C14 15.3344 14.3344 15 14.75 15H18.25C18.6656 15 19 15.3344 19 15.75V16.25C19 16.6656 18.6656 17 18.25 17H14.75C14.3344 17 14 16.6656 14 16.25V15.75ZM12 9C12.2652 9 12.5196 8.89464 12.7071 8.70711C12.8946 8.51957 13 8.26522 13 8C13 7.73478 12.8946 7.48043 12.7071 7.29289C12.5196 7.10536 12.2652 7 12 7C11.7348 7 11.4804 7.10536 11.2929 7.29289C11.1054 7.48043 11 7.73478 11 8C11 8.26522 11.1054 8.51957 11.2929 8.70711C11.4804 8.89464 11.7348 9 12 9Z" fill="black"/>
</svg>
