<svg width="24" height="24" viewBox="0 0 24 24" fill="none" xmlns="http://www.w3.org/2000/svg">
<path d="M14.0001 6C14.0001 5.46957 13.7894 4.96086 13.4144 4.58579C13.0393 4.21071 12.5306 4 12.0001 4C11.4697 4 10.961 4.21071 10.5859 4.58579C10.2109 4.96086 10.0001 5.46957 10.0001 6C10.0001 6.53043 10.2109 7.03914 10.5859 7.41421C10.961 7.78929 11.4697 8 12.0001 8C12.5306 8 13.0393 7.78929 13.4144 7.41421C13.7894 7.03914 14.0001 6.53043 14.0001 6ZM9.75014 16.5V19C9.75014 19.5531 10.197 20 10.7501 20C11.3033 20 11.7501 19.5531 11.7501 19V16.5H12.2501V19C12.2501 19.5531 12.697 20 13.2501 20C13.8033 20 14.2501 19.5531 14.2501 19V16.5H14.8064C15.147 16.5 15.3876 16.1656 15.2814 15.8406L14.3095 12.9219L15.2033 14.1031C15.5376 14.5437 16.1658 14.6281 16.6033 14.2969C17.0408 13.9656 17.1283 13.3375 16.797 12.8969L14.9564 10.4688C14.2564 9.54375 13.1595 9 12.0001 9C10.8408 9 9.74389 9.54375 9.04389 10.4688L7.20327 12.8969C6.86889 13.3375 6.95639 13.9656 7.39702 14.2969C7.83764 14.6281 8.46577 14.5437 8.79702 14.1031L9.69389 12.9219L8.71889 15.8406C8.61264 16.1656 8.85327 16.5 9.19389 16.5H9.75014Z" fill="black"/>
</svg>
