<svg width="24" height="24" viewBox="0 0 24 24" fill="none" xmlns="http://www.w3.org/2000/svg">
<path d="M3 4.75C3 4.33437 3.33437 4 3.75 4H5.17188C5.85938 4 6.46875 4.4 6.75312 5H19.5969C20.4187 5 21.0188 5.78125 20.8031 6.575L19.5219 11.3344C19.2563 12.3156 18.3656 13 17.35 13H8.33437L8.50313 13.8906C8.57188 14.2437 8.88125 14.5 9.24062 14.5H18.25C18.6656 14.5 19 14.8344 19 15.25C19 15.6656 18.6656 16 18.25 16H9.24062C8.15938 16 7.23125 15.2312 7.03125 14.1719L5.41875 5.70312C5.39688 5.58438 5.29375 5.5 5.17188 5.5H3.75C3.33437 5.5 3 5.16562 3 4.75ZM7 18.5C7 18.303 7.0388 18.108 7.11418 17.926C7.18956 17.744 7.30005 17.5786 7.43934 17.4393C7.57863 17.3001 7.74399 17.1896 7.92597 17.1142C8.10796 17.0388 8.30302 17 8.5 17C8.69698 17 8.89204 17.0388 9.07403 17.1142C9.25601 17.1896 9.42137 17.3001 9.56066 17.4393C9.69995 17.5786 9.81044 17.744 9.88582 17.926C9.9612 18.108 10 18.303 10 18.5C10 18.697 9.9612 18.892 9.88582 19.074C9.81044 19.256 9.69995 19.4214 9.56066 19.5607C9.42137 19.6999 9.25601 19.8104 9.07403 19.8858C8.89204 19.9612 8.69698 20 8.5 20C8.30302 20 8.10796 19.9612 7.92597 19.8858C7.74399 19.8104 7.57863 19.6999 7.43934 19.5607C7.30005 19.4214 7.18956 19.256 7.11418 19.074C7.0388 18.892 7 18.697 7 18.5ZM17.5 17C17.8978 17 18.2794 17.158 18.5607 17.4393C18.842 17.7206 19 18.1022 19 18.5C19 18.8978 18.842 19.2794 18.5607 19.5607C18.2794 19.842 17.8978 20 17.5 20C17.1022 20 16.7206 19.842 16.4393 19.5607C16.158 19.2794 16 18.8978 16 18.5C16 18.1022 16.158 17.7206 16.4393 17.4393C16.7206 17.158 17.1022 17 17.5 17Z" fill="black"/>
</svg>
