<svg width="24" height="24" viewBox="0 0 24 24" fill="none" xmlns="http://www.w3.org/2000/svg">
<path d="M12 20C14.1217 20 16.1566 19.1571 17.6569 17.6569C19.1571 16.1566 20 14.1217 20 12C20 9.87827 19.1571 7.84344 17.6569 6.34315C16.1566 4.84285 14.1217 4 12 4C9.87827 4 7.84344 4.84285 6.34315 6.34315C4.84285 7.84344 4 9.87827 4 12C4 14.1217 4.84285 16.1566 6.34315 17.6569C7.84344 19.1571 9.87827 20 12 20ZM10.3656 8.32188L13.5 12.85V8.75C13.5 8.33437 13.8344 8 14.25 8C14.6656 8 15 8.33437 15 8.75V15.25C15 15.5781 14.7875 15.8687 14.475 15.9656C14.1625 16.0625 13.8219 15.9469 13.6344 15.6781L10.5 11.15V15.25C10.5 15.6656 10.1656 16 9.75 16C9.33437 16 9 15.6656 9 15.25V8.75C9 8.42188 9.2125 8.13125 9.525 8.03438C9.8375 7.9375 10.1781 8.05313 10.3656 8.32188Z" fill="black"/>
</svg>
