<svg width="24" height="24" viewBox="0 0 24 24" fill="none" xmlns="http://www.w3.org/2000/svg">
<path d="M11.9999 18C16.4187 18 19.9999 15.0906 19.9999 11.5C19.9999 7.90937 16.4187 5 11.9999 5C7.58116 5 3.99991 7.90937 3.99991 11.5C3.99991 12.9094 4.55304 14.2125 5.49054 15.2781C5.43116 16.0437 5.13429 16.725 4.82179 17.2437C4.64991 17.5312 4.47491 17.7625 4.34679 17.9187C4.28116 17.9969 4.23116 18.0563 4.19366 18.0969C4.17491 18.1156 4.16241 18.1313 4.15304 18.1406L4.14366 18.15C3.99991 18.2937 3.95929 18.5063 4.03741 18.6938C4.11554 18.8813 4.29679 19.0031 4.49991 19.0031C5.39679 19.0031 6.29991 18.725 7.04991 18.4C7.76554 18.0875 8.37491 17.7156 8.74679 17.4438C9.74054 17.8031 10.8405 18.0031 11.9999 18.0031V18ZM8.49991 10.4156C8.49991 9.35938 9.35616 8.5 10.4155 8.5C10.9218 8.5 11.4093 8.70312 11.7687 9.05937L11.9999 9.29063L12.2312 9.05937C12.5905 8.7 13.078 8.5 13.5843 8.5C14.6405 8.5 15.4999 9.35625 15.4999 10.4156C15.4999 10.9219 15.2968 11.4094 14.9405 11.7688L12.3562 14.3531C12.1624 14.5469 11.8437 14.5469 11.6499 14.3531L9.06554 11.7688C8.70616 11.4094 8.50616 10.9219 8.50616 10.4156H8.49991Z" fill="black"/>
</svg>
