<svg width="24" height="24" viewBox="0 0 24 24" fill="none" xmlns="http://www.w3.org/2000/svg">
<path d="M7.38435 4.07817C6.91873 3.88442 6.38123 4.0688 6.13123 4.5063L3.13123 9.7563C2.98748 10.0063 2.95935 10.3032 3.0531 10.575C3.14685 10.8469 3.34998 11.0657 3.6156 11.175L8.55623 13.2344L7.30935 16.5H4.99998V16C4.99998 15.4469 4.5531 15 3.99998 15C3.44685 15 2.99998 15.4469 2.99998 16V17.5V19C2.99998 19.5532 3.44685 20 3.99998 20C4.5531 20 4.99998 19.5532 4.99998 19V18.5H7.99998C8.4156 18.5 8.78748 18.2438 8.93435 17.8563L10.4031 14L12.6156 14.9219C12.925 15.05 13.2781 15.0157 13.5562 14.8313L19.5562 10.8313C19.8625 10.6282 20.0312 10.2688 19.9969 9.90317C19.9625 9.53755 19.7281 9.2188 19.3875 9.07505L7.38748 4.07505L7.38435 4.07817ZM19.0437 16.4563C19.1656 16.5125 19.3062 16.5157 19.4344 16.4657C19.5625 16.4157 19.6594 16.3188 19.7125 16.1938L20.9625 13.1938C21.0656 12.9438 20.9531 12.6563 20.7031 12.5438L19.5562 12.0344L15.4031 14.8L19.0437 16.4532V16.4563Z" fill="black"/>
</svg>
