<svg width="24" height="24" viewBox="0 0 24 24" fill="none" xmlns="http://www.w3.org/2000/svg">
<path d="M3.21268 4.15931C2.88768 3.90306 2.4158 3.96243 2.15955 4.28743C1.9033 4.61243 1.96268 5.08431 2.28768 5.34056L20.7877 19.8406C21.1127 20.0968 21.5846 20.0374 21.8408 19.7124C22.0971 19.3874 22.0377 18.9156 21.7127 18.6593L18.0283 15.7718C19.2564 14.6312 20.0002 13.1343 20.0002 11.4999C20.0002 7.90931 16.4189 4.99993 12.0002 4.99993C9.88455 4.99993 7.95955 5.66868 6.5283 6.75931L3.21268 4.15931ZM15.2502 17.4406L4.5908 9.04056C4.20955 9.79993 4.00018 10.6312 4.00018 11.4999C4.00018 12.9093 4.5533 14.2124 5.4908 15.2781C5.43143 16.0437 5.13455 16.7249 4.82205 17.2437C4.65018 17.5312 4.47518 17.7624 4.34705 17.9187C4.28143 17.9968 4.23143 18.0562 4.19393 18.0968C4.17518 18.1156 4.16268 18.1312 4.1533 18.1406L4.14393 18.1499C4.00018 18.2937 3.95955 18.5062 4.03768 18.6937C4.1158 18.8812 4.29705 19.0031 4.50018 19.0031C5.39705 19.0031 6.30018 18.7249 7.05018 18.3999C7.7658 18.0874 8.37518 17.7156 8.74705 17.4437C9.7408 17.8031 10.8408 18.0031 12.0002 18.0031C13.1564 18.0031 14.2596 17.8031 15.2533 17.4437L15.2502 17.4406Z" fill="black"/>
</svg>
