<svg width="24" height="24" viewBox="0 0 24 24" fill="none" xmlns="http://www.w3.org/2000/svg">
<path d="M12 4C9.87827 4 7.84344 4.84285 6.34315 6.34315C4.84285 7.84344 4 9.87827 4 12C4 14.1217 4.84285 16.1566 6.34315 17.6569C7.84344 19.1571 9.87827 20 12 20C14.1217 20 16.1566 19.1571 17.6569 17.6569C19.1571 16.1566 20 14.1217 20 12C20 9.87827 19.1571 7.84344 17.6569 6.34315C16.1566 4.84285 14.1217 4 12 4ZM8.21875 11.5312C7.925 11.2375 7.925 10.7625 8.21875 10.4719C8.5125 10.1813 8.9875 10.1781 9.27812 10.4719L11.9969 13.1906L14.7156 10.4719C15.0094 10.1781 15.4844 10.1781 15.775 10.4719C16.0656 10.7656 16.0687 11.2406 15.775 11.5312L12.5312 14.7812C12.2375 15.075 11.7625 15.075 11.4719 14.7812L8.21875 11.5312Z" fill="black"/>
</svg>
