<svg width="24" height="24" viewBox="0 0 24 24" fill="none" xmlns="http://www.w3.org/2000/svg">
<path d="M12 18C16.4187 18 20 15.0906 20 11.5C20 7.90937 16.4187 5 12 5C7.58123 5 3.99998 7.90937 3.99998 11.5C3.99998 12.9094 4.5531 14.2125 5.4906 15.2781C5.43123 16.0437 5.13435 16.725 4.82185 17.2437C4.64998 17.5312 4.47498 17.7625 4.34685 17.9187C4.28123 17.9969 4.23123 18.0563 4.19373 18.0969C4.17498 18.1156 4.16248 18.1313 4.1531 18.1406L4.14373 18.15C3.99998 18.2937 3.95935 18.5063 4.03748 18.6938C4.1156 18.8813 4.29685 19.0031 4.49998 19.0031C5.39685 19.0031 6.29998 18.725 7.04998 18.4C7.7656 18.0875 8.37498 17.7156 8.74685 17.4438C9.7406 17.8031 10.8406 18.0031 12 18.0031V18ZM6.99998 10.65C6.99998 10.0156 7.5156 9.5 8.14998 9.5H8.74998C9.02498 9.5 9.24998 9.725 9.24998 10C9.24998 10.275 9.02498 10.5 8.74998 10.5H8.14998C8.0656 10.5 7.99998 10.5687 7.99998 10.65C7.99998 10.7 8.02498 10.7469 8.06873 10.775L8.98748 11.3875C9.30935 11.6 9.49998 11.9594 9.49998 12.3469C9.49998 12.9813 8.98435 13.4969 8.34998 13.4969H7.49998C7.22498 13.4969 6.99998 13.2719 6.99998 12.9969C6.99998 12.7219 7.22498 12.4969 7.49998 12.4969H8.34998C8.43435 12.4969 8.49998 12.4281 8.49998 12.3469C8.49998 12.2969 8.47498 12.25 8.43123 12.2219L7.51248 11.6094C7.19373 11.3969 6.99998 11.0375 6.99998 10.65ZM15.65 9.5H16.25C16.525 9.5 16.75 9.725 16.75 10C16.75 10.275 16.525 10.5 16.25 10.5H15.65C15.5656 10.5 15.5 10.5687 15.5 10.65C15.5 10.7 15.525 10.7469 15.5687 10.775L16.4875 11.3875C16.8062 11.6 17 11.9594 17 12.3469C17 12.9813 16.4844 13.4969 15.85 13.4969H15C14.725 13.4969 14.5 13.2719 14.5 12.9969C14.5 12.7219 14.725 12.4969 15 12.4969H15.85C15.9344 12.4969 16 12.4281 16 12.3469C16 12.2969 15.975 12.25 15.9312 12.2219L15.0125 11.6094C14.6937 11.3969 14.5 11.0375 14.5 10.65C14.5 10.0156 15.0156 9.5 15.65 9.5ZM10.9 9.7L12 11.1656L13.1 9.7C13.2281 9.52812 13.4531 9.45625 13.6594 9.525C13.8656 9.59375 14 9.78438 14 10V13C14 13.275 13.775 13.5 13.5 13.5C13.225 13.5 13 13.275 13 13V11.5L12.4 12.3C12.3062 12.425 12.1562 12.5 12 12.5C11.8437 12.5 11.6937 12.425 11.6 12.3L11 11.5V13C11 13.275 10.775 13.5 10.5 13.5C10.225 13.5 9.99998 13.275 9.99998 13V10C9.99998 9.78438 10.1375 9.59375 10.3406 9.525C10.5437 9.45625 10.7687 9.52812 10.9 9.7Z" fill="black"/>
</svg>
