<svg width="24" height="24" viewBox="0 0 24 24" fill="none" xmlns="http://www.w3.org/2000/svg">
<path d="M12 4C12.5531 4 13 4.44687 13 5V5.325C15.9281 5.75938 18.2406 8.075 18.675 11H19C19.5531 11 20 11.4469 20 12C20 12.5531 19.5531 13 19 13H18.675C18.2406 15.9281 15.925 18.2406 13 18.675V19C13 19.5531 12.5531 20 12 20C11.4469 20 11 19.5531 11 19V18.675C8.07188 18.2406 5.75938 15.9281 5.325 13H5C4.44687 13 4 12.5531 4 12C4 11.4469 4.44687 11 5 11H5.325C5.75938 8.07188 8.07188 5.75938 11 5.325V5C11 4.44687 11.4469 4 12 4ZM7.35625 13C7.74688 14.8219 9.18125 16.2531 11 16.6438V16C11 15.4469 11.4469 15 12 15C12.5531 15 13 15.4469 13 16V16.6438C14.8219 16.2531 16.2531 14.8188 16.6438 13H16C15.4469 13 15 12.5531 15 12C15 11.4469 15.4469 11 16 11H16.6438C16.2531 9.17812 14.8219 7.74688 13 7.35625V8C13 8.55312 12.5531 9 12 9C11.4469 9 11 8.55312 11 8V7.35625C9.17812 7.74688 7.74688 9.17812 7.35625 11H8C8.55312 11 9 11.4469 9 12C9 12.5531 8.55312 13 8 13H7.35625ZM12 11C12.2652 11 12.5196 11.1054 12.7071 11.2929C12.8946 11.4804 13 11.7348 13 12C13 12.2652 12.8946 12.5196 12.7071 12.7071C12.5196 12.8946 12.2652 13 12 13C11.7348 13 11.4804 12.8946 11.2929 12.7071C11.1054 12.5196 11 12.2652 11 12C11 11.7348 11.1054 11.4804 11.2929 11.2929C11.4804 11.1054 11.7348 11 12 11Z" fill="black"/>
</svg>
