<svg width="24" height="24" viewBox="0 0 24 24" fill="none" xmlns="http://www.w3.org/2000/svg">
<path d="M6.5 19C4.01562 19 2 16.9844 2 14.5C2 12.5375 3.25625 10.8688 5.00625 10.2531C5.00312 10.1688 5 10.0844 5 10C5 7.2375 7.2375 5 10 5C11.8531 5 13.4688 6.00625 14.3344 7.50625C14.8094 7.1875 15.3844 7 16 7C17.6562 7 19 8.34375 19 10C19 10.3812 18.9281 10.7438 18.8 11.0813C20.625 11.45 22 13.0656 22 15C22 17.2094 20.2094 19 18 19H6.5ZM15 9.75C15 9.5875 14.9187 9.43125 14.7844 9.3375C14.65 9.24375 14.4781 9.22188 14.325 9.28125L10.325 10.7812C10.1312 10.8531 10 11.0406 10 11.25V12.25V14.8062C9.84375 14.7687 9.675 14.75 9.5 14.75C8.67188 14.75 8 15.1969 8 15.75C8 16.3031 8.67188 16.75 9.5 16.75C10.3281 16.75 11 16.3031 11 15.75V12.5969L14 11.4719V13.8062C13.8438 13.7687 13.675 13.75 13.5 13.75C12.6719 13.75 12 14.1969 12 14.75C12 15.3031 12.6719 15.75 13.5 15.75C14.3281 15.75 15 15.3031 15 14.75V10.75V9.75Z" fill="black"/>
</svg>
