<svg width="24" height="24" viewBox="0 0 24 24" fill="none" xmlns="http://www.w3.org/2000/svg">
<path d="M15.7563 16.9094C17.7063 15.6656 19 13.4844 19 11C19 7.13438 15.8656 4 12 4C8.13438 4 5 7.13438 5 11C5 13.4844 6.29375 15.6656 8.24375 16.9094L6.425 18.1812C6.06875 18.4312 5.9125 18.8844 6.04375 19.3C6.175 19.7156 6.5625 20 7 20H17C17.4375 20 17.8219 19.7156 17.9531 19.3C18.0844 18.8844 17.9312 18.4312 17.5719 18.1812L15.7531 16.9094H15.7563ZM12 15C13.0609 15 14.0783 14.5786 14.8284 13.8284C15.5786 13.0783 16 12.0609 16 11C16 9.93913 15.5786 8.92172 14.8284 8.17157C14.0783 7.42143 13.0609 7 12 7C10.9391 7 9.92172 7.42143 9.17157 8.17157C8.42143 8.92172 8 9.93913 8 11C8 12.0609 8.42143 13.0783 9.17157 13.8284C9.92172 14.5786 10.9391 15 12 15ZM12 6C13.3261 6 14.5979 6.52678 15.5355 7.46447C16.4732 8.40215 17 9.67392 17 11C17 12.3261 16.4732 13.5979 15.5355 14.5355C14.5979 15.4732 13.3261 16 12 16C10.6739 16 9.40215 15.4732 8.46447 14.5355C7.52678 13.5979 7 12.3261 7 11C7 9.67392 7.52678 8.40215 8.46447 7.46447C9.40215 6.52678 10.6739 6 12 6ZM10.5 11C10.5 11.275 10.275 11.5 10 11.5C9.725 11.5 9.5 11.275 9.5 11C9.5 9.61875 10.6187 8.5 12 8.5C12.275 8.5 12.5 8.725 12.5 9C12.5 9.275 12.275 9.5 12 9.5C11.1719 9.5 10.5 10.1719 10.5 11Z" fill="black"/>
</svg>
