<svg width="24" height="24" viewBox="0 0 24 24" fill="none" xmlns="http://www.w3.org/2000/svg">
<path d="M4 7C4 5.34375 5.34375 4 7 4C8.65625 4 10 5.34375 10 7V8H14V7C14 5.34375 15.3438 4 17 4C18.6562 4 20 5.34375 20 7C20 8.65625 18.6562 10 17 10H16V14H17C18.6562 14 20 15.3438 20 17C20 18.6562 18.6562 20 17 20C15.3438 20 14 18.6562 14 17V16H10V17C10 18.6562 8.65625 20 7 20C5.34375 20 4 18.6562 4 17C4 15.3438 5.34375 14 7 14H8V10H7C5.34375 10 4 8.65625 4 7ZM8 8V7C8 6.44688 7.55312 6 7 6C6.44688 6 6 6.44688 6 7C6 7.55312 6.44688 8 7 8H8ZM10 14H14V10H10V14ZM8 16H7C6.44688 16 6 16.4469 6 17C6 17.5531 6.44688 18 7 18C7.55312 18 8 17.5531 8 17V16ZM16 16V17C16 17.5531 16.4469 18 17 18C17.5531 18 18 17.5531 18 17C18 16.4469 17.5531 16 17 16H16ZM16 8H17C17.5531 8 18 7.55312 18 7C18 6.44688 17.5531 6 17 6C16.4469 6 16 6.44688 16 7V8Z" fill="black"/>
</svg>
