<svg width="24" height="24" viewBox="0 0 24 24" fill="none" xmlns="http://www.w3.org/2000/svg">
<path d="M11.1938 4.0375C11.3531 4.10313 11.4656 4.24688 11.4938 4.41563L11.9344 7.0625L12.8938 7.22188C12.0688 7.55313 11.425 8.24063 11.1531 9.09375C10.65 8.14688 9.65 7.5 8.5 7.5C6.84375 7.5 5.5 8.84375 5.5 10.5C5.5 12.1563 6.84375 13.5 8.5 13.5C8.75313 13.5 8.99688 13.4688 9.23125 13.4094C8.0875 13.975 7.25313 15.0688 7.05 16.375L6.2875 16.9063C6.14688 17.0063 5.96563 17.025 5.80625 16.9563C5.64688 16.8875 5.53438 16.7469 5.50625 16.5781L5.06563 13.9344L2.41875 13.4938C2.25 13.4656 2.10625 13.3531 2.04063 13.1938C1.975 13.0344 1.99375 12.8531 2.09063 12.7125L3.64063 10.5L2.09063 8.2875C1.99063 8.14688 1.97188 7.96563 2.04063 7.80625C2.10938 7.64688 2.25 7.53438 2.41875 7.50625L5.06563 7.06563L5.50625 4.41875C5.53438 4.25 5.64688 4.10625 5.80625 4.04063C5.96563 3.975 6.14688 3.99375 6.2875 4.09063L8.5 5.64063L10.7125 4.09063C10.8531 3.99063 11.0344 3.97188 11.1938 4.04063V4.0375ZM6.5 10.5C6.5 9.96957 6.71071 9.46086 7.08579 9.08579C7.46086 8.71071 7.96957 8.5 8.5 8.5C9.03043 8.5 9.53914 8.71071 9.91421 9.08579C10.2893 9.46086 10.5 9.96957 10.5 10.5C10.5 11.0304 10.2893 11.5391 9.91421 11.9142C9.53914 12.2893 9.03043 12.5 8.5 12.5C7.96957 12.5 7.46086 12.2893 7.08579 11.9142C6.71071 11.5391 6.5 11.0304 6.5 10.5ZM20.5812 12.8438C19.9906 11.7469 18.8313 11 17.4969 11C17.0938 11 16.7063 11.0688 16.3469 11.1938C15.6219 10.4563 14.6156 10 13.5 10C12.9781 10 12.4813 10.1 12.0219 10.2813C12.0094 10.1906 12.0031 10.0969 12.0031 10.0031C12.0031 8.9 12.8969 8.00313 14.0031 8.00313C14.2344 8.00313 14.4594 8.04375 14.6656 8.11563C15.025 7.175 15.9344 6.50313 17.0031 6.50313C18.2188 6.50313 19.2312 7.37188 19.4562 8.52188C19.5531 8.50938 19.6531 8.50313 19.7531 8.50313C20.9969 8.50313 22.0031 9.50938 22.0031 10.7531C22.0031 11.7031 21.4156 12.5125 20.5844 12.8438H20.5812ZM21.9969 17.4969C21.9969 18.8781 20.8781 19.9969 19.4969 19.9969H11C9.34375 19.9969 8 18.6531 8 16.9969C8 15.5094 9.08125 14.2781 10.5 14.0406V14C10.5 12.3438 11.8438 11 13.5 11C14.5906 11 15.5438 11.5813 16.0688 12.45C16.475 12.1656 16.9688 12 17.5 12C18.8813 12 20 13.1188 20 14.5C20 14.6844 19.9812 14.8656 19.9406 15.0375C21.1094 15.2469 21.9969 16.2688 21.9969 17.4969Z" fill="black"/>
</svg>
