<svg width="24" height="24" viewBox="0 0 24 24" fill="none" xmlns="http://www.w3.org/2000/svg">
<path d="M16.2844 8.4656C14.3313 6.51248 11.4157 6.51248 9.46255 8.4656C7.50942 10.4187 7.50942 13.5844 9.46255 15.5375C11.4157 17.4906 14.3313 17.4906 16.2844 15.5375C16.675 15.1469 17.3094 15.1469 17.7 15.5375C18.0907 15.9281 18.0907 16.5625 17.7 16.9531C14.9657 19.6875 10.7844 19.6875 8.05005 16.9531C5.31567 14.2187 5.31567 9.78748 8.05005 7.0531C10.7844 4.31873 14.9657 4.31873 17.7 7.0531C18.0907 7.44373 18.0907 8.0781 17.7 8.46873C17.3094 8.85935 16.675 8.85935 16.2844 8.46873V8.4656Z" fill="black"/>
</svg>
