<svg width="24" height="24" viewBox="0 0 24 24" fill="none" xmlns="http://www.w3.org/2000/svg">
<path d="M11.1937 4.03747C11.3531 4.1031 11.4656 4.24685 11.4937 4.4156L11.9343 7.06247L12.8937 7.22185C12.0687 7.5531 11.425 8.2406 11.1531 9.09372C10.65 8.14685 9.64997 7.49997 8.49997 7.49997C6.84372 7.49997 5.49997 8.84372 5.49997 10.5C5.49997 12.1562 6.84372 13.5 8.49997 13.5C8.7531 13.5 8.99685 13.4687 9.23122 13.4093C8.08747 13.975 7.2531 15.0687 7.04997 16.375L6.28747 16.9062C6.14685 17.0062 5.9656 17.025 5.80622 16.9562C5.64685 16.8875 5.53435 16.7468 5.50622 16.5781L5.0656 13.9343L2.41872 13.4937C2.24997 13.4656 2.10622 13.3531 2.0406 13.1937C1.97497 13.0343 1.99372 12.8531 2.0906 12.7125L3.6406 10.5L2.0906 8.28747C1.9906 8.14685 1.97185 7.9656 2.0406 7.80622C2.10935 7.64685 2.24997 7.53435 2.41872 7.50622L5.0656 7.0656L5.50622 4.41872C5.53435 4.24997 5.64685 4.10622 5.80622 4.0406C5.9656 3.97497 6.14685 3.99372 6.28747 4.0906L8.49997 5.6406L10.7125 4.0906C10.8531 3.9906 11.0343 3.97185 11.1937 4.0406V4.03747ZM6.49997 10.5C6.49997 9.96954 6.71068 9.46083 7.08576 9.08576C7.46083 8.71068 7.96954 8.49997 8.49997 8.49997C9.0304 8.49997 9.53911 8.71068 9.91418 9.08576C10.2893 9.46083 10.5 9.96954 10.5 10.5C10.5 11.0304 10.2893 11.5391 9.91418 11.9142C9.53911 12.2893 9.0304 12.5 8.49997 12.5C7.96954 12.5 7.46083 12.2893 7.08576 11.9142C6.71068 11.5391 6.49997 11.0304 6.49997 10.5ZM20.5812 12.8437C19.9906 11.7468 18.8312 11 17.4968 11C17.0937 11 16.7062 11.0687 16.3468 11.1937C15.6218 10.4562 14.6156 9.99997 13.5 9.99997C12.9781 9.99997 12.4812 10.1 12.0218 10.2812C12.0093 10.1906 12.0031 10.0968 12.0031 10.0031C12.0031 8.89997 12.8968 8.0031 14.0031 8.0031C14.2343 8.0031 14.4593 8.04372 14.6656 8.1156C15.025 7.17497 15.9343 6.5031 17.0031 6.5031C18.2187 6.5031 19.2312 7.37185 19.4562 8.52185C19.5531 8.50935 19.6531 8.5031 19.7531 8.5031C20.9968 8.5031 22.0031 9.50935 22.0031 10.7531C22.0031 11.7031 21.4156 12.5125 20.5843 12.8437H20.5812ZM21.9968 17.4968C21.9968 18.8781 20.8781 19.9968 19.4968 19.9968H11C9.34372 19.9968 7.99997 18.6531 7.99997 16.9968C7.99997 15.5093 9.08122 14.2781 10.5 14.0406V14C10.5 12.3437 11.8437 11 13.5 11C14.5906 11 15.5437 11.5812 16.0687 12.45C16.475 12.1656 16.9687 12 17.5 12C18.8812 12 20 13.1187 20 14.5C20 14.6843 19.9812 14.8656 19.9406 15.0375C21.1093 15.2468 21.9968 16.2687 21.9968 17.4968Z" fill="black"/>
</svg>
