<svg width="24" height="24" viewBox="0 0 24 24" fill="none" xmlns="http://www.w3.org/2000/svg">
<path d="M17.8281 10.3438L17 11.1719L16.4156 10.5875C15.6344 9.80625 14.3687 9.80625 13.5875 10.5875C12.8062 11.3688 12.8062 12.6344 13.5875 13.4156L15.5875 15.4156C15.9594 15.7875 16.4437 15.9844 16.9312 16C15.5469 18.3906 12.9625 20 10 20C5.58125 20 2 16.4187 2 12C2 7.58125 5.58125 4 10 4C13.85 4 17.0656 6.71875 17.8281 10.3438ZM10.75 8.75C10.75 8.33437 10.4156 8 10 8C9.58437 8 9.25 8.33437 9.25 8.75V12.25C9.25 12.6656 9.58437 13 10 13C10.4156 13 10.75 12.6656 10.75 12.25V8.75ZM10 16C10.2652 16 10.5196 15.8946 10.7071 15.7071C10.8946 15.5196 11 15.2652 11 15C11 14.7348 10.8946 14.4804 10.7071 14.2929C10.5196 14.1054 10.2652 14 10 14C9.73478 14 9.48043 14.1054 9.29289 14.2929C9.10536 14.4804 9 14.7348 9 15C9 15.2652 9.10536 15.5196 9.29289 15.7071C9.48043 15.8946 9.73478 16 10 16ZM21.5312 10.5312L17.5312 14.5312C17.2375 14.825 16.7625 14.825 16.4719 14.5312L14.4719 12.5312C14.1781 12.2375 14.1781 11.7625 14.4719 11.4719C14.7656 11.1813 15.2406 11.1781 15.5312 11.4719L17 12.9406L20.4688 9.46875C20.7625 9.175 21.2375 9.175 21.5281 9.46875C21.8188 9.7625 21.8219 10.2375 21.5281 10.5281L21.5312 10.5312Z" fill="black"/>
</svg>
