<svg width="24" height="24" viewBox="0 0 24 24" fill="none" xmlns="http://www.w3.org/2000/svg">
<path d="M7 14C5.34375 14 4 12.6562 4 11C4 9.67188 4.8625 8.54375 6.05938 8.15C6.02188 7.94063 6 7.72187 6 7.5C6 5.56562 7.56562 4 9.5 4C10.8469 4 12.0156 4.75937 12.6 5.875C13.0594 5.34062 13.7406 5 14.5 5C15.8813 5 17 6.11875 17 7.5C17 7.67188 16.9812 7.8375 16.95 8C16.9656 8 16.9844 8 17 8C18.6562 8 20 9.34375 20 11C20 12.6562 18.6562 14 17 14H7ZM7 16C7 15.7348 7.10536 15.4804 7.29289 15.2929C7.48043 15.1054 7.73478 15 8 15C8.26522 15 8.51957 15.1054 8.70711 15.2929C8.89464 15.4804 9 15.7348 9 16C9 16.2652 8.89464 16.5196 8.70711 16.7071C8.51957 16.8946 8.26522 17 8 17C7.73478 17 7.48043 16.8946 7.29289 16.7071C7.10536 16.5196 7 16.2652 7 16ZM11 16C11 15.7348 11.1054 15.4804 11.2929 15.2929C11.4804 15.1054 11.7348 15 12 15C12.2652 15 12.5196 15.1054 12.7071 15.2929C12.8946 15.4804 13 15.7348 13 16C13 16.2652 12.8946 16.5196 12.7071 16.7071C12.5196 16.8946 12.2652 17 12 17C11.7348 17 11.4804 16.8946 11.2929 16.7071C11.1054 16.5196 11 16.2652 11 16ZM16 15C16.2652 15 16.5196 15.1054 16.7071 15.2929C16.8946 15.4804 17 15.7348 17 16C17 16.2652 16.8946 16.5196 16.7071 16.7071C16.5196 16.8946 16.2652 17 16 17C15.7348 17 15.4804 16.8946 15.2929 16.7071C15.1054 16.5196 15 16.2652 15 16C15 15.7348 15.1054 15.4804 15.2929 15.2929C15.4804 15.1054 15.7348 15 16 15ZM5 19C5 18.7348 5.10536 18.4804 5.29289 18.2929C5.48043 18.1054 5.73478 18 6 18C6.26522 18 6.51957 18.1054 6.70711 18.2929C6.89464 18.4804 7 18.7348 7 19C7 19.2652 6.89464 19.5196 6.70711 19.7071C6.51957 19.8946 6.26522 20 6 20C5.73478 20 5.48043 19.8946 5.29289 19.7071C5.10536 19.5196 5 19.2652 5 19ZM10 18C10.2652 18 10.5196 18.1054 10.7071 18.2929C10.8946 18.4804 11 18.7348 11 19C11 19.2652 10.8946 19.5196 10.7071 19.7071C10.5196 19.8946 10.2652 20 10 20C9.73478 20 9.48043 19.8946 9.29289 19.7071C9.10536 19.5196 9 19.2652 9 19C9 18.7348 9.10536 18.4804 9.29289 18.2929C9.48043 18.1054 9.73478 18 10 18ZM13 19C13 18.7348 13.1054 18.4804 13.2929 18.2929C13.4804 18.1054 13.7348 18 14 18C14.2652 18 14.5196 18.1054 14.7071 18.2929C14.8946 18.4804 15 18.7348 15 19C15 19.2652 14.8946 19.5196 14.7071 19.7071C14.5196 19.8946 14.2652 20 14 20C13.7348 20 13.4804 19.8946 13.2929 19.7071C13.1054 19.5196 13 19.2652 13 19Z" fill="black"/>
</svg>
