<svg width="24" height="24" viewBox="0 0 24 24" fill="none" xmlns="http://www.w3.org/2000/svg">
<path d="M7 7.99995C7.82812 7.99995 8.5 7.49995 8.5 6.49995C8.5 5.8062 7.78125 4.87495 7.3375 4.3687C7.15625 4.15933 6.84375 4.15933 6.6625 4.3687C6.21875 4.87495 5.5 5.8062 5.5 6.49995C5.5 7.32808 6.17188 7.99995 7 7.99995ZM12 7.99995C12.8281 7.99995 13.5 7.49995 13.5 6.49995C13.5 5.8062 12.7813 4.87495 12.3375 4.3687C12.1563 4.15933 11.8406 4.15933 11.6594 4.3687C11.2188 4.87495 10.5 5.8062 10.5 6.49995C10.5 7.32808 11.1719 7.99995 12 7.99995ZM18.5 6.49995C18.5 5.8062 17.7812 4.87495 17.3375 4.3687C17.1562 4.15933 16.8406 4.15933 16.6594 4.3687C16.2188 4.87495 15.5 5.8062 15.5 6.49995C15.5 7.32808 16.1719 7.99995 17 7.99995C17.8281 7.99995 18.5 7.49995 18.5 6.49995ZM9.80625 11H14.1938C14.4063 11 14.5937 11.1343 14.6656 11.3312L15.2594 13H8.74062L9.3375 11.3312C9.40938 11.1312 9.59687 11 9.80937 11H9.80625ZM7.45312 10.6593L6.56875 13.1375C5.94063 13.4031 5.5 14.025 5.5 14.75V16V18V19C5.5 19.5531 5.94687 20 6.5 20H7C7.55313 20 8 19.5531 8 19V18H16V19C16 19.5531 16.4469 20 17 20H17.5C18.0531 20 18.5 19.5531 18.5 19V18V16V14.75C18.5 14.025 18.0594 13.4031 17.4312 13.1375L16.5469 10.6593C16.1906 9.66558 15.25 8.99995 14.1938 8.99995H9.80625C8.75 8.99995 7.80625 9.66558 7.45312 10.6593ZM8 14.75C8.19891 14.75 8.38968 14.829 8.53033 14.9696C8.67098 15.1103 8.75 15.301 8.75 15.5C8.75 15.6989 8.67098 15.8896 8.53033 16.0303C8.38968 16.1709 8.19891 16.25 8 16.25C7.80109 16.25 7.61032 16.1709 7.46967 16.0303C7.32902 15.8896 7.25 15.6989 7.25 15.5C7.25 15.301 7.32902 15.1103 7.46967 14.9696C7.61032 14.829 7.80109 14.75 8 14.75ZM15.25 15.5C15.25 15.301 15.329 15.1103 15.4697 14.9696C15.6103 14.829 15.8011 14.75 16 14.75C16.1989 14.75 16.3897 14.829 16.5303 14.9696C16.671 15.1103 16.75 15.301 16.75 15.5C16.75 15.6989 16.671 15.8896 16.5303 16.0303C16.3897 16.1709 16.1989 16.25 16 16.25C15.8011 16.25 15.6103 16.1709 15.4697 16.0303C15.329 15.8896 15.25 15.6989 15.25 15.5Z" fill="black"/>
</svg>
