<svg width="24" height="24" viewBox="0 0 24 24" fill="none" xmlns="http://www.w3.org/2000/svg">
<path d="M3 4C2.44687 4 2 4.44687 2 5C2 5.55313 2.44687 6 3 6H3.5C3.775 6 4 6.225 4 6.5V15.5C4 16.8813 5.11875 18 6.5 18H7.08437C7.02812 18.1562 7 18.325 7 18.5C7 19.3281 7.67188 20 8.5 20C9.32812 20 10 19.3281 10 18.5C10 18.325 9.96875 18.1562 9.91563 18H16.0844C16.0281 18.1562 16 18.325 16 18.5C16 19.3281 16.6719 20 17.5 20C18.3281 20 19 19.3281 19 18.5C19 18.325 18.9688 18.1562 18.9156 18H21C21.5531 18 22 17.5531 22 17C22 16.4469 21.5531 16 21 16H6.5C6.225 16 6 15.775 6 15.5V6.5C6 5.11875 4.88125 4 3.5 4H3ZM8 6.5V12.5C8 13.3281 8.67188 14 9.5 14H19.5C20.3281 14 21 13.3281 21 12.5V6.5C21 5.67188 20.3281 5 19.5 5H16.5V9.5C16.5 9.68437 16.4 9.85313 16.2344 9.94063C16.0688 10.0281 15.875 10.0188 15.7219 9.91563L14.5 9.1L13.2781 9.91563C13.125 10.0188 12.9281 10.0281 12.7656 9.94063C12.6031 9.85313 12.5 9.68437 12.5 9.5V5H9.5C8.67188 5 8 5.67188 8 6.5Z" fill="black"/>
</svg>
