<svg width="24" height="24" viewBox="0 0 24 24" fill="none" xmlns="http://www.w3.org/2000/svg">
<path d="M8.8 7.19922L8.58438 7.41484C8.20938 7.78984 8 8.29922 8 8.83047V11.368C8 11.7023 8.16563 12.0148 8.44375 12.1992L8.55313 12.2742C8.95 12.5398 9.4625 12.5711 9.89062 12.3586C9.9625 12.3242 10.0312 12.2805 10.0938 12.2336L11.3063 11.3242C11.4781 11.1961 11.7156 11.1961 11.8875 11.3242C12.1437 11.5148 12.1469 11.8992 11.8938 12.0961L9.53125 13.9055C8.88125 14.4055 8.5 15.1773 8.5 15.9992H15.5L16.3406 12.6367C16.4469 12.2117 16.5 11.7773 16.5 11.3398C16.5 8.38984 14.1094 5.99609 11.1562 5.99609H8.49375C8.22187 5.99922 8 6.22109 8 6.49297C8 6.68047 8.10625 6.85234 8.27188 6.93672L8.8 7.19922ZM9.4 8.89922C9.4 8.76661 9.45268 8.63943 9.54645 8.54567C9.64021 8.4519 9.76739 8.39922 9.9 8.39922C10.0326 8.39922 10.1598 8.4519 10.2536 8.54567C10.3473 8.63943 10.4 8.76661 10.4 8.89922C10.4 9.03183 10.3473 9.159 10.2536 9.25277C10.1598 9.34654 10.0326 9.39922 9.9 9.39922C9.76739 9.39922 9.64021 9.34654 9.54645 9.25277C9.45268 9.159 9.4 9.03183 9.4 8.89922ZM8.5 16.9992L7.15 18.7992C7.05313 18.9305 7 19.0867 7 19.2492C7 19.6648 7.33437 19.9992 7.75 19.9992H16.25C16.6656 19.9992 17 19.6648 17 19.2492C17 19.0867 16.9469 18.9305 16.85 18.7992L15.5 16.9992H8.5Z" fill="black"/>
</svg>
