<svg width="24" height="24" viewBox="0 0 24 24" fill="none" xmlns="http://www.w3.org/2000/svg">
<path d="M8.49999 7H8.99999V5.25C8.99999 4.55937 9.55936 4 10.25 4H13.75C14.4406 4 15 4.55937 15 5.25V7H15.5C16.1687 7 16.7594 7.44375 16.9437 8.0875L18.9437 15.0875C19.0719 15.5406 18.9812 16.0281 18.7 16.4031C18.4187 16.7781 17.9719 17 17.5031 17H6.49999C6.02811 17 5.58436 16.7781 5.30311 16.4031C5.02186 16.0281 4.92811 15.5406 5.05936 15.0875L7.05936 8.0875C7.24061 7.44375 7.83124 7 8.49999 7ZM13.5 7V5.5H10.5V7H13.5ZM14 18C14 19.1031 13.1031 20 12 20C10.8969 20 9.99999 19.1031 9.99999 18H14Z" fill="black"/>
</svg>
