<svg width="24" height="24" viewBox="0 0 24 24" fill="none" xmlns="http://www.w3.org/2000/svg">
<path d="M6.26565 11.875C6.2219 11.9531 6.2219 12.0469 6.26565 12.125L9.02502 16.9031C9.06877 16.9812 9.15315 17.0281 9.24065 17.0281H14.7594C14.85 17.0281 14.9313 16.9812 14.975 16.9031L17.7344 12.125C17.7781 12.0469 17.7781 11.9531 17.7344 11.875L14.975 7.09686C14.9313 7.01874 14.8469 6.97186 14.7594 6.97186H9.24065C9.15002 6.97186 9.06877 7.01874 9.02502 7.09686L6.26565 11.875ZM4.5344 13.125C4.13127 12.4281 4.13127 11.5719 4.5344 10.875L7.29377 6.09686C7.6969 5.39999 8.43752 4.97186 9.24377 4.97186H14.7594C15.5625 4.97186 16.3063 5.39999 16.7094 6.09686L19.4656 10.875C19.8688 11.5719 19.8688 12.4281 19.4656 13.125L16.7063 17.9031C16.3032 18.6 15.5625 19.0281 14.7563 19.0281H9.24065C8.43752 19.0281 7.69377 18.6 7.29065 17.9031L4.5344 13.125ZM13.0688 9.64999L14.325 12.7937C14.8594 12.9375 15.25 13.4219 15.25 14C15.25 14.6906 14.6906 15.25 14 15.25C13.5031 15.25 13.0719 14.9594 12.8719 14.5406L9.8344 13.9344C9.61252 14.1312 9.3219 14.2531 9.00002 14.2531C8.3094 14.2531 7.75002 13.6937 7.75002 13.0031C7.75002 12.3125 8.3094 11.7531 9.00002 11.7531L10.8 9.35311C10.7688 9.24061 10.75 9.12499 10.75 9.00311C10.75 8.31249 11.3094 7.75311 12 7.75311C12.6906 7.75311 13.25 8.31249 13.25 9.00311C13.25 9.24061 13.1844 9.46249 13.0688 9.65311V9.64999ZM10.3125 12.4969L12.7875 12.9906L11.7969 10.5156L10.3125 12.4969Z" fill="black"/>
</svg>
