<svg width="24" height="24" viewBox="0 0 24 24" fill="none" xmlns="http://www.w3.org/2000/svg">
<path d="M12.0875 5.51874L14.5375 6.44686L12 7.42186L9.4625 6.44686L11.9125 5.51874C11.9688 5.49686 12.0312 5.49686 12.0906 5.51874H12.0875ZM7.25 6.89061V10.3969C7.20938 10.4094 7.16875 10.4219 7.12813 10.4375L4.12812 11.575C3.45 11.8312 3 12.4844 3 13.2094V16.9344C3 17.6281 3.40938 18.2562 4.04688 18.5375L7.04688 19.8562C7.49687 20.0531 8.00625 20.0531 8.45625 19.8562L12 18.2969L15.5469 19.8562C15.9969 20.0531 16.5063 20.0531 16.9563 19.8562L19.9562 18.5375C20.5906 18.2594 21.0031 17.6281 21.0031 16.9344V13.2094C21.0031 12.4812 20.5531 11.8312 19.875 11.5719L16.875 10.4344C16.8344 10.4187 16.7938 10.4062 16.7531 10.3937V6.89061C16.7531 6.16249 16.3031 5.51249 15.625 5.25311L12.625 4.11561C12.225 3.96561 11.7844 3.96561 11.3844 4.11561L8.38438 5.25311C7.7 5.51249 7.25 6.16561 7.25 6.89061ZM15.25 10.5812L12.675 11.5562V8.76874L15.25 7.78124V10.5812ZM7.8375 11.8406L10.2875 12.7687L7.75 13.7406L5.2125 12.7687L7.6625 11.8406C7.71875 11.8187 7.78125 11.8187 7.84062 11.8406H7.8375ZM8.425 18.2281V15.0875L11 14.1V17.0969L8.425 18.2281ZM16.1625 11.8406C16.2188 11.8187 16.2812 11.8187 16.3406 11.8406L18.7906 12.7687L16.25 13.7406L13.7125 12.7687L16.1625 11.8406ZM19.35 17.1625L16.925 18.2281V15.0875L19.5 14.1V16.9344C19.5 17.0344 19.4406 17.1219 19.35 17.1625Z" fill="black"/>
</svg>
