<svg width="24" height="24" viewBox="0 0 24 24" fill="none" xmlns="http://www.w3.org/2000/svg">
<path d="M2.23455 10.0906C1.7533 9.25936 2.03767 8.19374 2.87205 7.71249L8.89705 4.23436C9.7283 3.75311 10.7939 4.03749 11.2752 4.87186L16.4939 13.9125C16.9752 14.7437 16.6877 15.8094 15.8564 16.2906L9.8283 19.7656C8.99705 20.2469 7.93142 19.9594 7.45017 19.1281L2.23455 10.0906ZM8.15642 8.98749C7.80955 8.89374 7.45017 9.09999 7.35642 9.44999L7.13142 10.2906L6.49392 12.6687C6.27517 13.4812 6.75955 14.3156 7.56892 14.5344C8.37829 14.7531 9.2158 14.2687 9.43455 13.4594L9.50955 13.1844C9.51267 13.1719 9.5158 13.1594 9.51892 13.15L10.072 14.1094L9.69392 14.3281C9.48455 14.4469 9.4158 14.7156 9.53455 14.9219C9.6533 15.1281 9.92205 15.2 10.1283 15.0812L11.6345 14.2125C11.8439 14.0937 11.9127 13.825 11.7939 13.6187C11.6752 13.4125 11.4064 13.3406 11.2002 13.4594L10.822 13.6781L10.2689 12.7187C10.2814 12.7219 10.2939 12.725 10.3033 12.7281L10.5783 12.8031C11.3908 13.0219 12.2252 12.5375 12.4439 11.7281C12.6627 10.9187 12.1783 10.0812 11.3689 9.86249L8.9908 9.22499L8.15642 8.98749ZM16.3564 17.1531C17.6658 16.3969 18.1158 14.7219 17.3595 13.4094L13.0845 6.00624C13.1377 5.99999 13.1939 5.99999 13.2502 5.99999H20.2502C21.2158 5.99999 22.0002 6.78436 22.0002 7.74999V18.25C22.0002 19.2156 21.2158 20 20.2502 20H13.2502C12.822 20 12.4314 19.8469 12.1283 19.5937L16.3564 17.1531ZM18.6845 11.425L20.1877 9.86249C20.6252 9.40936 20.6002 8.65936 20.1189 8.24061C19.6814 7.87499 19.0408 7.94374 18.6533 8.34061L18.5064 8.50311L18.3502 8.34061C17.9595 7.94374 17.3127 7.87186 16.8908 8.24061C16.4002 8.66249 16.3752 9.41249 16.8127 9.86249L18.3252 11.4219C18.4189 11.5219 18.5814 11.5219 18.6845 11.4219V11.425Z" fill="black"/>
</svg>
