<svg width="24" height="24" viewBox="0 0 24 24" fill="none" xmlns="http://www.w3.org/2000/svg">
<path d="M11.4187 4.1875C11.7656 3.9375 12.2343 3.9375 12.5812 4.1875L15.9999 6.62812V6C15.9999 5.44687 16.4468 5 16.9999 5H17.9999C18.5531 5 18.9999 5.44687 18.9999 6V8.77187L19.5812 9.1875C19.9343 9.44063 20.0843 9.89375 19.9531 10.3063C19.8218 10.7188 19.4343 11 18.9999 11H17.9999H16.9999H4.99995C4.56557 11 4.1812 10.7188 4.04682 10.3063C3.91245 9.89375 4.06557 9.4375 4.4187 9.1875L11.4187 4.1875ZM4.99995 12.75C4.99995 12.3344 5.33432 12 5.74995 12H9.24995C9.66557 12 9.99995 12.3344 9.99995 12.75V13.25C9.99995 13.6656 9.66557 14 9.24995 14H5.74995C5.33432 14 4.99995 13.6656 4.99995 13.25V12.75ZM5.74995 15H9.24995C9.66557 15 9.99995 15.3344 9.99995 15.75V16.25C9.99995 16.6656 9.66557 17 9.24995 17H5.74995C5.33432 17 4.99995 16.6656 4.99995 16.25V15.75C4.99995 15.3344 5.33432 15 5.74995 15ZM5.74995 18H9.24995C9.66557 18 9.99995 18.3344 9.99995 18.75V19.25C9.99995 19.6656 9.66557 20 9.24995 20H5.74995C5.33432 20 4.99995 19.6656 4.99995 19.25V18.75C4.99995 18.3344 5.33432 18 5.74995 18ZM13.9999 12.75C13.9999 12.3344 14.3343 12 14.7499 12H18.2499C18.6656 12 18.9999 12.3344 18.9999 12.75V13.25C18.9999 13.6656 18.6656 14 18.2499 14H14.7499C14.3343 14 13.9999 13.6656 13.9999 13.25V12.75ZM14.7499 18H18.2499C18.6656 18 18.9999 18.3344 18.9999 18.75V19.25C18.9999 19.6656 18.6656 20 18.2499 20H14.7499C14.3343 20 13.9999 19.6656 13.9999 19.25V18.75C13.9999 18.3344 14.3343 18 14.7499 18ZM13.9999 15.75C13.9999 15.3344 14.3343 15 14.7499 15H18.2499C18.6656 15 18.9999 15.3344 18.9999 15.75V16.25C18.9999 16.6656 18.6656 17 18.2499 17H14.7499C14.3343 17 13.9999 16.6656 13.9999 16.25V15.75ZM11.9999 9C12.2652 9 12.5195 8.89464 12.7071 8.70711C12.8946 8.51957 12.9999 8.26522 12.9999 8C12.9999 7.73478 12.8946 7.48043 12.7071 7.29289C12.5195 7.10536 12.2652 7 11.9999 7C11.7347 7 11.4804 7.10536 11.2928 7.29289C11.1053 7.48043 10.9999 7.73478 10.9999 8C10.9999 8.26522 11.1053 8.51957 11.2928 8.70711C11.4804 8.89464 11.7347 9 11.9999 9Z" fill="black"/>
</svg>
