<svg width="24" height="24" viewBox="0 0 24 24" fill="none" xmlns="http://www.w3.org/2000/svg">
<path d="M14.7812 5.62501C15.125 5.19376 15.0562 4.56563 14.625 4.21876C14.1938 3.87188 13.5656 3.94376 13.2188 4.37501L12 5.90001L10.7812 4.37501C10.4375 3.94376 9.80625 3.87501 9.375 4.21876C8.94375 4.56251 8.875 5.19376 9.21875 5.62501L10.7188 7.50001L3.38438 16.6688C3.13438 16.9813 3 17.3656 3 17.7625V18.5C3 19.3281 3.67188 20 4.5 20H12H19.5C20.3281 20 21 19.3281 21 18.5V17.7625C21 17.3656 20.8656 16.9781 20.6156 16.6688L13.2812 7.50001L14.7812 5.62501ZM12 18H8.26562L12 13.1156L15.7344 18H12Z" fill="black"/>
</svg>
