<svg width="24" height="24" viewBox="0 0 24 24" fill="none" xmlns="http://www.w3.org/2000/svg">
<path d="M9.70615 7.70615C10.0968 7.31553 10.0968 6.68115 9.70615 6.29053C9.31553 5.8999 8.68115 5.8999 8.29053 6.29053L3.29053 11.2905C2.8999 11.6812 2.8999 12.3155 3.29053 12.7062L8.29053 17.7062C8.68115 18.0968 9.31553 18.0968 9.70615 17.7062C10.0968 17.3155 10.0968 16.6812 9.70615 16.2905L5.41553 11.9999L9.70615 7.70615ZM14.2905 7.70615L18.5843 11.9999L14.2937 16.2937C13.903 16.6843 13.903 17.3187 14.2937 17.7093C14.6843 18.0999 15.3187 18.0999 15.7093 17.7093L20.7093 12.7093C21.0999 12.3187 21.0999 11.6843 20.7093 11.2937L15.7093 6.29365C15.3187 5.90303 14.6843 5.90303 14.2937 6.29365C13.903 6.68428 13.903 7.31865 14.2937 7.70928L14.2905 7.70615Z" fill="black"/>
</svg>
