<svg width="24" height="24" viewBox="0 0 24 24" fill="none" xmlns="http://www.w3.org/2000/svg">
<path d="M3.21268 4.15955C2.88768 3.9033 2.4158 3.96268 2.15955 4.28768C1.9033 4.61268 1.96268 5.08455 2.28768 5.3408L20.7877 19.8408C21.1127 20.0971 21.5846 20.0377 21.8408 19.7127C22.0971 19.3877 22.0377 18.9158 21.7127 18.6596L18.7314 16.3221C19.5346 15.0783 20.0002 13.5939 20.0002 12.0002C20.0002 7.58143 16.4189 4.00018 12.0002 4.00018C9.71268 4.00018 7.6533 4.95955 6.19393 6.49705L3.21268 4.15955ZM10.4471 9.8283L14.9252 8.10643C15.5314 7.87205 16.1283 8.46893 15.8939 9.07518L14.4096 12.9346L10.4471 9.8283ZM16.6283 18.5252L11.9064 14.8064L9.07518 15.8939C8.46893 16.1283 7.87205 15.5314 8.10643 14.9252L9.02518 12.5346L4.57205 9.02518C4.2033 9.94393 4.00018 10.9502 4.00018 12.0002C4.00018 16.4189 7.58143 20.0002 12.0002 20.0002C13.7252 20.0002 15.3221 19.4533 16.6283 18.5252Z" fill="black"/>
</svg>
