<svg width="24" height="24" viewBox="0 0 24 24" fill="none" xmlns="http://www.w3.org/2000/svg">
<path d="M11.1938 4.0375C11.3531 4.10313 11.4656 4.24688 11.4938 4.41563L11.9344 7.0625L14.5813 7.50313C14.75 7.53125 14.8938 7.64375 14.9594 7.80313C15.025 7.9625 15.0063 8.14375 14.9094 8.28438L13.7063 10.0031C13.6375 10 13.5688 9.99688 13.4969 9.99688C12.7688 9.99688 12.0875 10.1906 11.4969 10.5313V10.4969C11.4969 8.84063 10.1531 7.49688 8.49688 7.49688C6.84063 7.49688 5.49688 8.84063 5.49688 10.4969C5.49688 12.1531 6.84063 13.4969 8.49688 13.4969C8.75 13.4969 8.99375 13.4656 9.22813 13.4063C8.08438 13.9719 7.25 15.0656 7.04688 16.3719L6.28438 16.9031C6.14375 17 5.9625 17.0219 5.80313 16.9531C5.64375 16.8844 5.53125 16.7438 5.50313 16.575L5.06563 13.9344L2.41875 13.4938C2.25 13.4656 2.10625 13.3531 2.04063 13.1938C1.975 13.0344 1.99375 12.8531 2.09063 12.7125L3.64063 10.5L2.09063 8.2875C1.99063 8.14688 1.97188 7.96563 2.04063 7.80625C2.10938 7.64688 2.25 7.53438 2.41875 7.50625L5.06563 7.06563L5.50625 4.41875C5.53438 4.25 5.64688 4.10625 5.80625 4.04063C5.96563 3.975 6.14688 3.99375 6.2875 4.09063L8.5 5.64063L10.7125 4.09063C10.8531 3.99063 11.0344 3.97188 11.1938 4.04063V4.0375ZM6.5 10.5C6.5 9.96957 6.71071 9.46086 7.08579 9.08579C7.46086 8.71071 7.96957 8.5 8.5 8.5C9.03043 8.5 9.53914 8.71071 9.91421 9.08579C10.2893 9.46086 10.5 9.96957 10.5 10.5C10.5 11.0304 10.2893 11.5391 9.91421 11.9142C9.53914 12.2893 9.03043 12.5 8.5 12.5C7.96957 12.5 7.46086 12.2893 7.08579 11.9142C6.71071 11.5391 6.5 11.0304 6.5 10.5ZM21.9969 17.4969C21.9969 18.8781 20.8781 19.9969 19.4969 19.9969H11C9.34375 19.9969 8 18.6531 8 16.9969C8 15.5094 9.08125 14.2781 10.5 14.0406V14C10.5 12.3438 11.8438 11 13.5 11C14.5906 11 15.5438 11.5813 16.0688 12.45C16.475 12.1656 16.9688 12 17.5 12C18.8813 12 20 13.1188 20 14.5C20 14.6844 19.9812 14.8656 19.9406 15.0375C21.1094 15.2469 21.9969 16.2688 21.9969 17.4969Z" fill="black"/>
</svg>
