<svg width="24" height="24" viewBox="0 0 24 24" fill="none" xmlns="http://www.w3.org/2000/svg">
<path d="M12 20C14.1217 20 16.1566 19.1571 17.6569 17.6569C19.1571 16.1566 20 14.1217 20 12C20 9.87827 19.1571 7.84344 17.6569 6.34315C16.1566 4.84285 14.1217 4 12 4C9.87827 4 7.84344 4.84285 6.34315 6.34315C4.84285 7.84344 4 9.87827 4 12C4 14.1217 4.84285 16.1566 6.34315 17.6569C7.84344 19.1571 9.87827 20 12 20ZM9.42188 8.91563L12 14.0719L14.5781 8.9125C14.7625 8.54062 15.2125 8.39062 15.5844 8.57812C15.9563 8.76562 16.1062 9.2125 15.9187 9.58437L12.6687 16.0844C12.5406 16.3375 12.2812 16.5 11.9969 16.5C11.7125 16.5 11.4531 16.3406 11.325 16.0844L8.075 9.58437C7.89062 9.2125 8.04063 8.7625 8.40938 8.57812C8.77813 8.39375 9.23125 8.54375 9.41563 8.9125L9.42188 8.91563Z" fill="black"/>
</svg>
