<svg width="24" height="24" viewBox="0 0 24 24" fill="none" xmlns="http://www.w3.org/2000/svg">
<path d="M10.9594 5.00306C11.1156 5.53119 10.8156 6.09056 10.2875 6.24681C7.80625 6.98744 6 9.28431 6 11.9999C6 15.3124 8.6875 17.9999 12 17.9999C15.3125 17.9999 18 15.3124 18 11.9999C18 9.28431 16.1938 6.98744 13.7156 6.24681C13.1875 6.09056 12.8844 5.53119 13.0437 5.00306C13.2031 4.47494 13.7594 4.17181 14.2875 4.33119C17.5906 5.31556 20 8.37494 20 11.9999C20 16.4187 16.4187 19.9999 12 19.9999C7.58125 19.9999 4 16.4187 4 11.9999C4 8.37494 6.40937 5.31556 9.71562 4.33119C10.2437 4.17494 10.8031 4.47494 10.9594 5.00306Z" fill="black"/>
</svg>
