<svg width="24" height="24" viewBox="0 0 24 24" fill="none" xmlns="http://www.w3.org/2000/svg">
<path d="M7.5 5.75C7.69891 5.75 7.88968 5.82902 8.03033 5.96967C8.17098 6.11032 8.25 6.30109 8.25 6.5C8.25 6.69891 8.17098 6.88968 8.03033 7.03033C7.88968 7.17098 7.69891 7.25 7.5 7.25C7.30109 7.25 7.11032 7.17098 6.96967 7.03033C6.82902 6.88968 6.75 6.69891 6.75 6.5C6.75 6.30109 6.82902 6.11032 6.96967 5.96967C7.11032 5.82902 7.30109 5.75 7.5 5.75ZM8.5125 8.7875C9.3875 8.4 10 7.52188 10 6.5C10 5.11875 8.88125 4 7.5 4C6.11875 4 5 5.11875 5 6.5C5 7.525 5.61563 8.40625 6.5 8.79063V15.2094C5.61563 15.5938 5 16.475 5 17.5C5 18.8813 6.11875 20 7.5 20C8.88125 20 10 18.8813 10 17.5C10 16.475 9.38437 15.5938 8.5 15.2094V12.5C9.33438 13.1281 10.375 13.5 11.5 13.5H14.2094C14.5938 14.3844 15.475 15 16.5 15C17.8813 15 19 13.8813 19 12.5C19 11.1187 17.8813 10 16.5 10C15.475 10 14.5938 10.6156 14.2094 11.5H11.5C9.94062 11.5 8.65625 10.3094 8.5125 8.7875ZM7.5 16.75C7.69891 16.75 7.88968 16.829 8.03033 16.9697C8.17098 17.1103 8.25 17.3011 8.25 17.5C8.25 17.6989 8.17098 17.8897 8.03033 18.0303C7.88968 18.171 7.69891 18.25 7.5 18.25C7.30109 18.25 7.11032 18.171 6.96967 18.0303C6.82902 17.8897 6.75 17.6989 6.75 17.5C6.75 17.3011 6.82902 17.1103 6.96967 16.9697C7.11032 16.829 7.30109 16.75 7.5 16.75ZM15.75 12.5C15.75 12.3011 15.829 12.1103 15.9697 11.9697C16.1103 11.829 16.3011 11.75 16.5 11.75C16.6989 11.75 16.8897 11.829 17.0303 11.9697C17.171 12.1103 17.25 12.3011 17.25 12.5C17.25 12.6989 17.171 12.8897 17.0303 13.0303C16.8897 13.171 16.6989 13.25 16.5 13.25C16.3011 13.25 16.1103 13.171 15.9697 13.0303C15.829 12.8897 15.75 12.6989 15.75 12.5Z" fill="black"/>
</svg>
