<svg width="24" height="24" viewBox="0 0 24 24" fill="none" xmlns="http://www.w3.org/2000/svg">
<path d="M18.7062 12.7062C19.0968 12.3156 19.0968 11.6812 18.7062 11.2906L12.7062 5.29062C12.3155 4.89999 11.6812 4.89999 11.2905 5.29062C10.8999 5.68124 10.8999 6.31562 11.2905 6.70624L16.5843 12L11.2937 17.2937C10.903 17.6844 10.903 18.3187 11.2937 18.7094C11.6843 19.1 12.3187 19.1 12.7093 18.7094L18.7093 12.7094L18.7062 12.7062ZM6.70615 18.7062L12.7062 12.7062C13.0968 12.3156 13.0968 11.6812 12.7062 11.2906L6.70615 5.29062C6.31553 4.89999 5.68115 4.89999 5.29053 5.29062C4.8999 5.68124 4.8999 6.31562 5.29053 6.70624L10.5843 12L5.29365 17.2937C4.90303 17.6844 4.90303 18.3187 5.29365 18.7094C5.68428 19.1 6.31865 19.1 6.70928 18.7094L6.70615 18.7062Z" fill="black"/>
</svg>
