<svg width="24" height="24" viewBox="0 0 24 24" fill="none" xmlns="http://www.w3.org/2000/svg">
<path d="M12 20C14.1217 20 16.1566 19.1571 17.6569 17.6569C19.1571 16.1566 20 14.1217 20 12C20 9.87827 19.1571 7.84344 17.6569 6.34315C16.1566 4.84285 14.1217 4 12 4C9.87827 4 7.84344 4.84285 6.34315 6.34315C4.84285 7.84344 4 9.87827 4 12C4 14.1217 4.84285 16.1566 6.34315 17.6569C7.84344 19.1571 9.87827 20 12 20ZM11 10V14C11 14.5531 10.5531 15 10 15C9.44687 15 9 14.5531 9 14V10C9 9.44687 9.44687 9 10 9C10.5531 9 11 9.44687 11 10ZM15 10V14C15 14.5531 14.5531 15 14 15C13.4469 15 13 14.5531 13 14V10C13 9.44687 13.4469 9 14 9C14.5531 9 15 9.44687 15 10Z" fill="black"/>
</svg>
