<svg width="24" height="24" viewBox="0 0 24 24" fill="none" xmlns="http://www.w3.org/2000/svg">
<path d="M15.5 4C14.9469 4 14.5 4.44687 14.5 5C14.5 5.55313 14.9469 6 15.5 6H16.4L12.9812 8.73438L9.59998 6.2C9.23435 5.925 8.73123 5.93437 8.37498 6.21875L3.37498 10.2188C2.94373 10.5625 2.87498 11.1937 3.21873 11.625C3.56248 12.0563 4.19373 12.125 4.62498 11.7812L9.01873 8.26562L12.4 10.8C12.7656 11.075 13.2687 11.0656 13.625 10.7812L18 7.28125V8.5C18 9.05313 18.4469 9.5 19 9.5C19.5531 9.5 20 9.05313 20 8.5V5C20 4.44687 19.5531 4 19 4H15.5ZM8.99998 11C8.44685 11 7.99998 11.4469 7.99998 12V18C7.99998 18.5531 8.44685 19 8.99998 19C9.5531 19 9.99998 18.5531 9.99998 18V12C9.99998 11.4469 9.5531 11 8.99998 11ZM4.99998 14C4.44685 14 3.99998 14.4469 3.99998 15V18C3.99998 18.5531 4.44685 19 4.99998 19C5.5531 19 5.99998 18.5531 5.99998 18V15C5.99998 14.4469 5.5531 14 4.99998 14ZM16.5 20C17.6935 20 18.838 19.5259 19.682 18.682C20.5259 17.8381 21 16.6935 21 15.5C21 14.3065 20.5259 13.1619 19.682 12.318C18.838 11.4741 17.6935 11 16.5 11C15.3065 11 14.1619 11.4741 13.318 12.318C12.4741 13.1619 12 14.3065 12 15.5C12 16.6935 12.4741 17.8381 13.318 18.682C14.1619 19.5259 15.3065 20 16.5 20ZM17.2937 14.7063C17.1919 14.593 17.068 14.5018 16.9297 14.438C16.7914 14.3742 16.6416 14.3392 16.4893 14.3352C16.3371 14.3312 16.1856 14.3583 16.0442 14.4147C15.9027 14.4711 15.7742 14.5557 15.6665 14.6634C15.5588 14.7711 15.4742 14.8996 15.4178 15.0411C15.3614 15.1825 15.3343 15.334 15.3383 15.4862C15.3423 15.6385 15.3773 15.7883 15.4411 15.9266C15.5049 16.0649 15.5961 16.1887 15.7094 16.2906C15.8112 16.4038 15.9351 16.4951 16.0734 16.5589C16.2117 16.6227 16.3615 16.6576 16.5137 16.6616C16.666 16.6657 16.8175 16.6386 16.9589 16.5822C17.1004 16.5258 17.2289 16.4411 17.3365 16.3334C17.4442 16.2258 17.5289 16.0973 17.5853 15.9558C17.6417 15.8144 17.6688 15.6629 17.6647 15.5106C17.6607 15.3584 17.6258 15.2086 17.562 15.0703C17.4982 14.932 17.4069 14.8081 17.2937 14.7063ZM15.3969 17.3125L14.8562 17.8531C14.6625 18.0469 14.3437 18.0469 14.15 17.8531C13.9562 17.6594 13.9562 17.3406 14.15 17.1469L14.6875 16.6031C14.275 15.9281 14.275 15.0688 14.6875 14.3938L14.1469 13.8531C13.9531 13.6594 13.9531 13.3406 14.1469 13.1469C14.3406 12.9531 14.6594 12.9531 14.8531 13.1469L15.3969 13.6875C16.0719 13.275 16.9312 13.275 17.6062 13.6875L18.1469 13.1469C18.3406 12.9531 18.6594 12.9531 18.8531 13.1469C19.0469 13.3406 19.0469 13.6594 18.8531 13.8531L18.3125 14.3969C18.725 15.0719 18.725 15.9312 18.3125 16.6062L18.8531 17.1469C19.0469 17.3406 19.0469 17.6594 18.8531 17.8531C18.6594 18.0469 18.3406 18.0469 18.1469 17.8531L17.6031 17.3125C16.9281 17.725 16.0687 17.725 15.3937 17.3125H15.3969Z" fill="black"/>
</svg>
