<svg width="24" height="24" viewBox="0 0 24 24" fill="none" xmlns="http://www.w3.org/2000/svg">
<path d="M12 18C16.4188 18 20 15.0906 20 11.5C20 7.90937 16.4188 5 12 5C7.58129 5 4.00004 7.90937 4.00004 11.5C4.00004 12.9094 4.55316 14.2125 5.49066 15.2781C5.43129 16.0437 5.13441 16.725 4.82191 17.2437C4.65004 17.5312 4.47504 17.7625 4.34691 17.9187C4.28129 17.9969 4.23129 18.0563 4.19379 18.0969C4.17504 18.1156 4.16254 18.1312 4.15316 18.1406L4.14379 18.15C4.00004 18.2937 3.95941 18.5063 4.03754 18.6938C4.11566 18.8813 4.29691 19.0031 4.50004 19.0031C5.39691 19.0031 6.30004 18.725 7.05004 18.4C7.76566 18.0875 8.37504 17.7156 8.74691 17.4438C9.74066 17.8031 10.8407 18.0031 12 18.0031V18ZM9.30629 8.66563C9.55316 7.96875 10.2157 7.5 10.9563 7.5H12.7782C13.8688 7.5 14.75 8.38438 14.75 9.47188C14.75 10.1781 14.3719 10.8312 13.7594 11.1844L12.75 11.7625C12.7438 12.1687 12.4094 12.5 12 12.5C11.5844 12.5 11.25 12.1656 11.25 11.75V11.3281C11.25 11.0594 11.3938 10.8125 11.6282 10.6781L13.0125 9.88438C13.1594 9.8 13.25 9.64375 13.25 9.475C13.25 9.2125 13.0375 9.00313 12.7782 9.00313H10.9563C10.85 9.00313 10.7563 9.06875 10.7219 9.16875L10.7094 9.20625C10.5719 9.59688 10.1407 9.8 9.75316 9.6625C9.36566 9.525 9.15941 9.09375 9.29691 8.70625L9.30941 8.66875L9.30629 8.66563ZM11 14.5C11 14.2348 11.1054 13.9804 11.2929 13.7929C11.4805 13.6054 11.7348 13.5 12 13.5C12.2653 13.5 12.5196 13.6054 12.7071 13.7929C12.8947 13.9804 13 14.2348 13 14.5C13 14.7652 12.8947 15.0196 12.7071 15.2071C12.5196 15.3946 12.2653 15.5 12 15.5C11.7348 15.5 11.4805 15.3946 11.2929 15.2071C11.1054 15.0196 11 14.7652 11 14.5Z" fill="black"/>
</svg>
