<svg width="24" height="24" viewBox="0 0 24 24" fill="none" xmlns="http://www.w3.org/2000/svg">
<path d="M12 20C9.87827 20 7.84344 19.1571 6.34315 17.6569C4.84285 16.1566 4 14.1217 4 12C4 9.87827 4.84285 7.84344 6.34315 6.34315C7.84344 4.84285 9.87827 4 12 4C14.1217 4 16.1566 4.84285 17.6569 6.34315C19.1571 7.84344 20 9.87827 20 12C20 14.1217 19.1571 16.1566 17.6569 17.6569C16.1566 19.1571 14.1217 20 12 20ZM14 15.5C14.4156 15.5 14.75 15.1656 14.75 14.75C14.75 14.3344 14.4156 14 14 14H11.0594L15.2812 9.78125C15.575 9.4875 15.575 9.0125 15.2812 8.72188C14.9875 8.43125 14.5125 8.42813 14.2219 8.72188L10.0031 12.9406V9.75C10.0031 9.33437 9.66875 9 9.25313 9C8.8375 9 8.50313 9.33437 8.50313 9.75V14.75C8.50313 15.1656 8.8375 15.5 9.25313 15.5H14Z" fill="black"/>
</svg>
