<svg width="24" height="24" viewBox="0 0 24 24" fill="none" xmlns="http://www.w3.org/2000/svg">
<path d="M12.5 4C12.2969 4 12.1156 4.12187 12.0375 4.30937C11.9594 4.49687 12.0031 4.7125 12.1469 4.85312L12.3375 5.04375C12.4437 5.15 12.5031 5.29062 12.5031 5.44062C12.5 5.75 12.25 6 11.9406 6H10C8.89687 6 8 6.89687 8 8V8.025C7.89687 8.04063 7.79375 8.06875 7.69062 8.1L6.59063 8.46875C5.64063 8.7875 5 9.675 5 10.675C5 11.9594 6.04063 13 7.325 13H16.675C17.9594 13 19 11.9594 19 10.675C19 9.675 18.3594 8.7875 17.4094 8.46875L16.3062 8.1C16.1781 8.05625 16.05 8.02812 15.9156 8.0125C15.9688 7.80312 15.9969 7.58125 15.9969 7.35625C16 5.50313 14.4969 4 12.6438 4H12.5ZM13.3719 20L14.1219 14H9.87813L10.6281 20H13.3719ZM7 14L7.79063 18.7469C7.9125 19.4688 8.5375 20 9.27187 20H9.62187L8.87188 14H7ZM14.3781 20H14.7281C15.4625 20 16.0875 19.4688 16.2063 18.7469L17 14H15.1281L14.3781 20Z" fill="black"/>
</svg>
