<svg width="24" height="24" viewBox="0 0 24 24" fill="none" xmlns="http://www.w3.org/2000/svg">
<path d="M6.53438 7.76878L11.1375 6.53753C11.5344 6.43128 11.9594 6.57815 12.2031 6.91253L13.3844 8.52503L5.58125 10.6125L5.8 8.62503C5.84375 8.21565 6.1375 7.87503 6.53438 7.76878ZM3.8125 8.4094L3.49375 11.3188C2.85625 11.7938 2.5375 12.625 2.75625 13.4407L3.79062 17.3063L3.97812 18H3.5C2.67188 18 2 18.6719 2 19.5V20H22V19.5C22 18.6719 21.3281 18 20.5 18H7.08125C7.07812 17.9938 7.07812 17.9844 7.075 17.9782L6.6875 16.5282L15.3813 14.2L15.7688 15.65C15.9125 16.1844 16.4594 16.5 16.9937 16.3563L17.9594 16.0969C18.4937 15.9532 18.8094 15.4063 18.6656 14.8719L18.2812 13.4219L17.2437 9.5594C17.025 8.74378 16.3344 8.18128 15.5437 8.09065L13.8156 5.72815C13.0844 4.73128 11.8156 4.2844 10.6187 4.60315L6.01562 5.83753C4.82188 6.1594 3.94687 7.17815 3.8125 8.4094ZM5.65313 12.6657C5.78073 12.629 5.91436 12.6182 6.04621 12.6337C6.17806 12.6493 6.30549 12.6909 6.42106 12.7563C6.53664 12.8216 6.63806 12.9093 6.71939 13.0142C6.80073 13.1191 6.86036 13.2392 6.8948 13.3674C6.92924 13.4956 6.9378 13.6294 6.91999 13.761C6.90218 13.8926 6.85835 14.0193 6.79106 14.1337C6.72376 14.2481 6.63436 14.348 6.52805 14.4276C6.42174 14.5071 6.30066 14.5647 6.17188 14.5969C6.04427 14.6335 5.91064 14.6444 5.77879 14.6288C5.64694 14.6133 5.51951 14.5716 5.40393 14.5063C5.28836 14.441 5.18694 14.3533 5.10561 14.2484C5.02427 14.1434 4.96464 14.0233 4.9302 13.8951C4.89576 13.7669 4.8872 13.6331 4.90501 13.5016C4.92282 13.37 4.96665 13.2433 5.03394 13.1289C5.10124 13.0144 5.19064 12.9145 5.29695 12.835C5.40326 12.7555 5.52434 12.6979 5.65313 12.6657ZM13.6406 11.5625C13.604 11.4349 13.5931 11.3013 13.6087 11.1694C13.6243 11.0376 13.6659 10.9102 13.7312 10.7946C13.7966 10.679 13.8842 10.5776 13.9892 10.4963C14.0941 10.4149 14.2142 10.3553 14.3424 10.3209C14.4706 10.2864 14.6044 10.2778 14.736 10.2957C14.8675 10.3135 14.9942 10.3573 15.1087 10.4246C15.2231 10.4919 15.323 10.5813 15.4025 10.6876C15.4821 10.7939 15.5396 10.915 15.5719 11.0438C15.6085 11.1714 15.6194 11.305 15.6038 11.4369C15.5882 11.5687 15.5466 11.6961 15.4813 11.8117C15.4159 11.9273 15.3283 12.0287 15.2233 12.11C15.1184 12.1914 14.9983 12.251 14.8701 12.2854C14.7419 12.3199 14.6081 12.3285 14.4765 12.3106C14.345 12.2928 14.2183 12.249 14.1038 12.1817C13.9894 12.1144 13.8895 12.025 13.81 11.9187C13.7304 11.8124 13.6729 11.6913 13.6406 11.5625Z" fill="black"/>
</svg>
