<svg width="24" height="24" viewBox="0 0 24 24" fill="none" xmlns="http://www.w3.org/2000/svg">
<path d="M14.2937 6.49688C14.8938 5.03125 16.3469 4 18.0375 4C18.1531 4 18.2656 4.00625 18.3781 4.01562C18.5969 4.03438 18.7781 4.19375 18.825 4.40938C18.8719 4.625 18.7719 4.84375 18.5813 4.95312C17.7406 5.425 17.1781 6.31562 17.1781 7.33125C17.1781 8.83437 18.4094 10.0625 19.9406 10.0625C20.1031 10.0625 20.2625 10.05 20.4156 10.0219C20.6313 9.98438 20.8469 10.0938 20.9469 10.2906C21.0469 10.4875 21.0062 10.725 20.8469 10.875C20.1187 11.575 19.1281 12.0031 18.0375 12.0031C18.0125 12.0031 17.9875 12.0031 17.9625 12.0031C17.7937 10.8219 17.0344 9.83125 15.9937 9.3375C15.9375 8.13125 15.2719 7.08437 14.2969 6.5L14.2937 6.49688ZM16.9937 12.5C16.9937 13.8813 15.875 15 14.4937 15H13.9125C13.7 14.4 13.1344 14 12.5 14H11.9281L12.8438 12.1719C13.1594 11.5406 12.9938 10.7781 12.4438 10.3344C11.8938 9.89062 11.1125 9.89062 10.5625 10.3281L5.5625 14.3281C5.375 14.4781 5.23438 14.6625 5.1375 14.8719C3.9 14.5031 3 13.3562 3 11.9969C3 10.5094 4.08125 9.27813 5.5 9.04063V9C5.5 7.34375 6.84375 6 8.5 6C9.59062 6 10.5438 6.58125 11.0688 7.45C11.475 7.16563 11.9688 7 12.5 7C13.8813 7 15 8.11875 15 9.5C15 9.68437 14.9812 9.86562 14.9406 10.0375C16.1094 10.2469 16.9969 11.2687 16.9969 12.4969L16.9937 12.5ZM11.8156 11.1125C11.9969 11.2594 12.0531 11.5156 11.95 11.725L10.3094 15H12.5C12.7125 15 12.9 15.1344 12.9719 15.3344C13.0437 15.5344 12.9781 15.7563 12.8125 15.8906L7.8125 19.8906C7.62813 20.0375 7.36875 20.0375 7.18437 19.8875C7 19.7375 6.94688 19.4844 7.05 19.275L8.69063 16H6.5C6.2875 16 6.1 15.8656 6.02813 15.6656C5.95625 15.4656 6.02187 15.2437 6.1875 15.1094L11.1875 11.1094C11.3719 10.9625 11.6313 10.9625 11.8156 11.1125Z" fill="black"/>
</svg>
