<svg width="24" height="24" viewBox="0 0 24 24" fill="none" xmlns="http://www.w3.org/2000/svg">
<path d="M12.0002 18C16.4189 18 20.0002 15.0906 20.0002 11.5C20.0002 7.90937 16.4189 5 12.0002 5C7.58141 5 4.00016 7.90937 4.00016 11.5C4.00016 12.9094 4.55328 14.2125 5.49078 15.2781C5.43141 16.0437 5.13453 16.725 4.82203 17.2437C4.65016 17.5312 4.47516 17.7625 4.34703 17.9187C4.28141 17.9969 4.23141 18.0563 4.19391 18.0969C4.17516 18.1156 4.16266 18.1313 4.15328 18.1406L4.14391 18.15C4.00016 18.2937 3.95953 18.5063 4.03766 18.6938C4.11578 18.8813 4.29703 19.0031 4.50016 19.0031C5.39703 19.0031 6.30016 18.725 7.05016 18.4C7.76578 18.0875 8.37516 17.7156 8.74703 17.4438C9.74078 17.8031 10.8408 18.0031 12.0002 18.0031V18ZM15.0002 8V9V13C15.0002 13.5531 14.3283 14 13.5002 14C12.672 14 12.0002 13.5531 12.0002 13C12.0002 12.4469 12.672 12 13.5002 12C13.6752 12 13.8439 12.0187 14.0002 12.0562V9.72188L11.0002 10.8469V14C11.0002 14.5531 10.3283 15 9.50016 15C8.67203 15 8.00016 14.5531 8.00016 14C8.00016 13.4469 8.67203 13 9.50016 13C9.67516 13 9.84391 13.0187 10.0002 13.0562V10.5V9.5C10.0002 9.29063 10.1283 9.10625 10.3252 9.03125L14.3252 7.53125C14.4783 7.475 14.6502 7.49375 14.7845 7.5875C14.9189 7.68125 15.0002 7.83437 15.0002 8Z" fill="black"/>
</svg>
