<svg width="24" height="24" viewBox="0 0 24 24" fill="none" xmlns="http://www.w3.org/2000/svg">
<path d="M11.1935 4.03778C11.3529 4.1034 11.4654 4.24715 11.4935 4.4159L11.9342 7.06278L12.8935 7.22215C12.0685 7.5534 11.4248 8.2409 11.1529 9.09403C10.6498 8.14715 9.64979 7.50028 8.49979 7.50028C6.84354 7.50028 5.49979 8.84403 5.49979 10.5003C5.49979 12.1565 6.84354 13.5003 8.49979 13.5003C8.75291 13.5003 8.99666 13.469 9.23104 13.4097C8.08729 13.9753 7.25291 15.069 7.04979 16.3753L6.28729 16.9065C6.14666 17.0065 5.96541 17.0253 5.80604 16.9565C5.64666 16.8878 5.53416 16.7472 5.50604 16.5784L5.06541 13.9347L2.41854 13.494C2.24979 13.4659 2.10604 13.3534 2.04041 13.194C1.97479 13.0347 1.99354 12.8534 2.09041 12.7128L3.64041 10.5003L2.09041 8.28778C1.99041 8.14715 1.97166 7.9659 2.04041 7.80653C2.10916 7.64715 2.24979 7.53465 2.41854 7.50653L5.06541 7.0659L5.50604 4.41903C5.53416 4.25028 5.64666 4.10653 5.80604 4.0409C5.96541 3.97528 6.14666 3.99403 6.28729 4.0909L8.49979 5.6409L10.7123 4.0909C10.8529 3.9909 11.0342 3.97215 11.1935 4.0409V4.03778ZM6.49979 10.5003C6.49979 9.96984 6.7105 9.46113 7.08557 9.08606C7.46065 8.71099 7.96935 8.50028 8.49979 8.50028C9.03022 8.50028 9.53893 8.71099 9.914 9.08606C10.2891 9.46113 10.4998 9.96984 10.4998 10.5003C10.4998 11.0307 10.2891 11.5394 9.914 11.9145C9.53893 12.2896 9.03022 12.5003 8.49979 12.5003C7.96935 12.5003 7.46065 12.2896 7.08557 11.9145C6.7105 11.5394 6.49979 11.0307 6.49979 10.5003ZM20.581 12.844C19.9904 11.7472 18.831 11.0003 17.4967 11.0003C17.0935 11.0003 16.706 11.069 16.3467 11.194C15.6217 10.4565 14.6154 10.0003 13.4998 10.0003C12.9779 10.0003 12.481 10.1003 12.0217 10.2815C12.0092 10.1909 12.0029 10.0972 12.0029 10.0034C12.0029 8.90028 12.8967 8.0034 14.0029 8.0034C14.2342 8.0034 14.4592 8.04403 14.6654 8.1159C15.0248 7.17528 15.9342 6.5034 17.0029 6.5034C18.2185 6.5034 19.231 7.37215 19.456 8.52215C19.5529 8.50965 19.6529 8.5034 19.7529 8.5034C20.9967 8.5034 22.0029 9.50965 22.0029 10.7534C22.0029 11.7034 21.4154 12.5128 20.5842 12.844H20.581ZM21.9967 17.4972C21.9967 18.8784 20.8779 19.9972 19.4967 19.9972H10.9998C9.34354 19.9972 7.99979 18.6534 7.99979 16.9972C7.99979 15.5097 9.08104 14.2784 10.4998 14.0409V14.0003C10.4998 12.344 11.8435 11.0003 13.4998 11.0003C14.5904 11.0003 15.5435 11.5815 16.0685 12.4503C16.4748 12.1659 16.9685 12.0003 17.4998 12.0003C18.881 12.0003 19.9998 13.119 19.9998 14.5003C19.9998 14.6847 19.981 14.8659 19.9404 15.0378C21.1092 15.2472 21.9967 16.269 21.9967 17.4972Z" fill="black"/>
</svg>
