<svg width="24" height="24" viewBox="0 0 24 24" fill="none" xmlns="http://www.w3.org/2000/svg">
<path d="M7 7.99922C7.82812 7.99922 8.5 7.49922 8.5 6.49922C8.5 5.80547 7.78125 4.87422 7.3375 4.36797C7.15625 4.15859 6.84375 4.15859 6.6625 4.36797C6.21875 4.87422 5.5 5.80547 5.5 6.49922C5.5 7.32734 6.17188 7.99922 7 7.99922ZM12 7.99922C12.8281 7.99922 13.5 7.49922 13.5 6.49922C13.5 5.80547 12.7813 4.87422 12.3375 4.36797C12.1563 4.15859 11.8406 4.15859 11.6594 4.36797C11.2188 4.87422 10.5 5.80547 10.5 6.49922C10.5 7.32734 11.1719 7.99922 12 7.99922ZM18.5 6.49922C18.5 5.80547 17.7812 4.87422 17.3375 4.36797C17.1562 4.15859 16.8406 4.15859 16.6594 4.36797C16.2188 4.87422 15.5 5.80547 15.5 6.49922C15.5 7.32734 16.1719 7.99922 17 7.99922C17.8281 7.99922 18.5 7.49922 18.5 6.49922ZM9.80625 10.9992H14.1938C14.4063 10.9992 14.5937 11.1336 14.6656 11.3305L15.2594 12.9992H8.74062L9.3375 11.3305C9.40938 11.1305 9.59687 10.9992 9.80937 10.9992H9.80625ZM7.45312 10.6586L6.56875 13.1367C5.94063 13.4023 5.5 14.0242 5.5 14.7492V15.9992V17.9992V18.9992C5.5 19.5523 5.94687 19.9992 6.5 19.9992H7C7.55313 19.9992 8 19.5523 8 18.9992V17.9992H16V18.9992C16 19.5523 16.4469 19.9992 17 19.9992H17.5C18.0531 19.9992 18.5 19.5523 18.5 18.9992V17.9992V15.9992V14.7492C18.5 14.0242 18.0594 13.4023 17.4312 13.1367L16.5469 10.6586C16.1906 9.66484 15.25 8.99922 14.1938 8.99922H9.80625C8.75 8.99922 7.80625 9.66484 7.45312 10.6586ZM8 14.7492C8.19891 14.7492 8.38968 14.8282 8.53033 14.9689C8.67098 15.1095 8.75 15.3003 8.75 15.4992C8.75 15.6981 8.67098 15.8889 8.53033 16.0295C8.38968 16.1702 8.19891 16.2492 8 16.2492C7.80109 16.2492 7.61032 16.1702 7.46967 16.0295C7.32902 15.8889 7.25 15.6981 7.25 15.4992C7.25 15.3003 7.32902 15.1095 7.46967 14.9689C7.61032 14.8282 7.80109 14.7492 8 14.7492ZM15.25 15.4992C15.25 15.3003 15.329 15.1095 15.4697 14.9689C15.6103 14.8282 15.8011 14.7492 16 14.7492C16.1989 14.7492 16.3897 14.8282 16.5303 14.9689C16.671 15.1095 16.75 15.3003 16.75 15.4992C16.75 15.6981 16.671 15.8889 16.5303 16.0295C16.3897 16.1702 16.1989 16.2492 16 16.2492C15.8011 16.2492 15.6103 16.1702 15.4697 16.0295C15.329 15.8889 15.25 15.6981 15.25 15.4992Z" fill="black"/>
</svg>
