<svg width="24" height="24" viewBox="0 0 24 24" fill="none" xmlns="http://www.w3.org/2000/svg">
<path d="M19.625 6.78126C20.0562 6.43751 20.125 5.80626 19.7812 5.37501C19.4375 4.94376 18.8062 4.87501 18.375 5.21876L13.9812 8.73438L10.6 6.20001C10.2344 5.92501 9.73123 5.93438 9.37498 6.21876L4.37498 10.2188C3.94373 10.5625 3.87498 11.1938 4.21873 11.625C4.56248 12.0563 5.19373 12.125 5.62498 11.7813L10.0187 8.26563L13.4 10.8C13.7656 11.075 14.2687 11.0656 14.625 10.7813L19.625 6.78126ZM8.99998 12V18C8.99998 18.5531 9.44685 19 9.99998 19C10.5531 19 11 18.5531 11 18V12C11 11.4469 10.5531 11 9.99998 11C9.44685 11 8.99998 11.4469 8.99998 12ZM4.99998 15V18C4.99998 18.5531 5.44685 19 5.99998 19C6.5531 19 6.99998 18.5531 6.99998 18V15C6.99998 14.4469 6.5531 14 5.99998 14C5.44685 14 4.99998 14.4469 4.99998 15ZM14 13C13.4469 13 13 13.4469 13 14V18C13 18.5531 13.4469 19 14 19C14.5531 19 15 18.5531 15 18V14C15 13.4469 14.5531 13 14 13ZM17 12V18C17 18.5531 17.4469 19 18 19C18.5531 19 19 18.5531 19 18V12C19 11.4469 18.5531 11 18 11C17.4469 11 17 11.4469 17 12Z" fill="black"/>
</svg>
