<svg width="24" height="24" viewBox="0 0 24 24" fill="none" xmlns="http://www.w3.org/2000/svg">
<path d="M14 5.75C14 5.33437 14.3344 5 14.75 5H18.25C18.6656 5 19 5.33437 19 5.75C19 6.16562 18.6656 6.5 18.25 6.5H17.25V8H20C21.1031 8 22 8.89687 22 10V17C22 18.1031 21.1031 19 20 19H4C2.89688 19 2 18.1031 2 17V10C2 8.89687 2.89688 8 4 8H5V7.5C5 7.225 5.225 7 5.5 7H9.5C9.775 7 10 7.225 10 7.5V8H15.75V6.5H14.75C14.3344 6.5 14 6.16562 14 5.75ZM11 13.5C11 13.0404 10.9095 12.5852 10.7336 12.1606C10.5577 11.736 10.2999 11.3501 9.97487 11.0251C9.64987 10.7001 9.26403 10.4423 8.83939 10.2664C8.41475 10.0905 7.95963 10 7.5 10C7.04037 10 6.58525 10.0905 6.16061 10.2664C5.73597 10.4423 5.35013 10.7001 5.02513 11.0251C4.70012 11.3501 4.44231 11.736 4.26642 12.1606C4.09053 12.5852 4 13.0404 4 13.5C4 13.9596 4.09053 14.4148 4.26642 14.8394C4.44231 15.264 4.70012 15.6499 5.02513 15.9749C5.35013 16.2999 5.73597 16.5577 6.16061 16.7336C6.58525 16.9095 7.04037 17 7.5 17C7.95963 17 8.41475 16.9095 8.83939 16.7336C9.26403 16.5577 9.64987 16.2999 9.97487 15.9749C10.2999 15.6499 10.5577 15.264 10.7336 14.8394C10.9095 14.4148 11 13.9596 11 13.5ZM9.35313 11.6469C9.54688 11.8406 9.54688 12.1594 9.35313 12.3531L7.85313 13.8531C7.65938 14.0469 7.34062 14.0469 7.14687 13.8531C6.95312 13.6594 6.95312 13.3406 7.14687 13.1469L8.64687 11.6469C8.84062 11.4531 9.15938 11.4531 9.35313 11.6469ZM16.5 17C16.9596 17 17.4148 16.9095 17.8394 16.7336C18.264 16.5577 18.6499 16.2999 18.9749 15.9749C19.2999 15.6499 19.5577 15.264 19.7336 14.8394C19.9095 14.4148 20 13.9596 20 13.5C20 13.0404 19.9095 12.5852 19.7336 12.1606C19.5577 11.736 19.2999 11.3501 18.9749 11.0251C18.6499 10.7001 18.264 10.4423 17.8394 10.2664C17.4148 10.0905 16.9596 10 16.5 10C16.0404 10 15.5852 10.0905 15.1606 10.2664C14.736 10.4423 14.3501 10.7001 14.0251 11.0251C13.7001 11.3501 13.4423 11.736 13.2664 12.1606C13.0905 12.5852 13 13.0404 13 13.5C13 13.9596 13.0905 14.4148 13.2664 14.8394C13.4423 15.264 13.7001 15.6499 14.0251 15.9749C14.3501 16.2999 14.736 16.5577 15.1606 16.7336C15.5852 16.9095 16.0404 17 16.5 17ZM17 11.5V13.5C17 13.775 16.775 14 16.5 14C16.225 14 16 13.775 16 13.5V11.5C16 11.225 16.225 11 16.5 11C16.775 11 17 11.225 17 11.5Z" fill="black"/>
</svg>
