<svg width="24" height="24" viewBox="0 0 24 24" fill="none" xmlns="http://www.w3.org/2000/svg">
<path d="M6 6C6 4.89688 6.89688 4 8 4H16C17.1031 4 18 4.89688 18 6V18C18 19.1031 17.1031 20 16 20H8C6.89688 20 6 19.1031 6 18V6ZM10.0656 10.5094C9.18438 10.6031 8.5 11.3469 8.5 12.25C8.5 13.2156 9.28437 14 10.25 14C10.7406 14 11.1813 13.8 11.5 13.475V14.5H11C10.725 14.5 10.5 14.725 10.5 15C10.5 15.275 10.725 15.5 11 15.5H13C13.275 15.5 13.5 15.275 13.5 15C13.5 14.725 13.275 14.5 13 14.5H12.5V13.475C12.8187 13.8 13.2594 14 13.75 14C14.7156 14 15.5 13.2156 15.5 12.25C15.5 11.3469 14.8156 10.6031 13.9344 10.5094C13.9781 10.3469 14 10.175 14 10C14 8.89687 13.1031 8 12 8C10.8969 8 10 8.89687 10 10C10 10.175 10.0219 10.3469 10.0656 10.5094Z" fill="black"/>
</svg>
