<svg width="24" height="24" viewBox="0 0 24 24" fill="none" xmlns="http://www.w3.org/2000/svg">
<path d="M14.275 4.03748C13.7437 3.88436 13.1906 4.19373 13.0375 4.72498L9.03745 18.725C8.88433 19.2562 9.1937 19.8094 9.72495 19.9625C10.2562 20.1156 10.8093 19.8062 10.9625 19.275L14.9625 5.27498C15.1156 4.74373 14.8062 4.19061 14.275 4.03748ZM16.7937 7.79061C16.4031 8.18123 16.4031 8.81561 16.7937 9.20623L19.5843 12L16.7906 14.7937C16.4 15.1844 16.4 15.8187 16.7906 16.2094C17.1812 16.6 17.8156 16.6 18.2062 16.2094L21.7062 12.7094C22.0968 12.3187 22.0968 11.6844 21.7062 11.2937L18.2062 7.79373C17.8156 7.40311 17.1812 7.40311 16.7906 7.79373L16.7937 7.79061ZM7.20933 7.79061C6.8187 7.39998 6.18433 7.39998 5.7937 7.79061L2.2937 11.2906C1.90308 11.6812 1.90308 12.3156 2.2937 12.7062L5.7937 16.2062C6.18433 16.5969 6.8187 16.5969 7.20933 16.2062C7.59995 15.8156 7.59995 15.1812 7.20933 14.7906L4.41558 12L7.20933 9.20623C7.59995 8.81561 7.59995 8.18123 7.20933 7.79061Z" fill="black"/>
</svg>
