<svg width="24" height="24" viewBox="0 0 24 24" fill="none" xmlns="http://www.w3.org/2000/svg">
<path d="M12 18C16.4188 18 20 15.0906 20 11.5C20 7.90937 16.4188 5 12 5C7.58126 5 4.00001 7.90937 4.00001 11.5C4.00001 12.9094 4.55313 14.2125 5.49063 15.2781C5.43126 16.0437 5.13438 16.725 4.82188 17.2437C4.65001 17.5312 4.47501 17.7625 4.34688 17.9187C4.28126 17.9969 4.23126 18.0563 4.19376 18.0969C4.17501 18.1156 4.16251 18.1313 4.15313 18.1406L4.14376 18.15C4.00001 18.2937 3.95938 18.5063 4.03751 18.6938C4.11563 18.8813 4.29688 19.0031 4.50001 19.0031C5.39688 19.0031 6.30001 18.725 7.05001 18.4C7.76563 18.0875 8.37501 17.7156 8.74688 17.4438C9.74063 17.8031 10.8406 18.0031 12 18.0031V18ZM9.75001 9H12H14.25C14.6656 9 15 9.33437 15 9.75C15 10.1656 14.6656 10.5 14.25 10.5H12.75V13.75C12.75 14.1656 12.4156 14.5 12 14.5C11.5844 14.5 11.25 14.1656 11.25 13.75V10.5H9.75001C9.33438 10.5 9.00001 10.1656 9.00001 9.75C9.00001 9.33437 9.33438 9 9.75001 9Z" fill="black"/>
</svg>
