<svg width="24" height="24" viewBox="0 0 24 24" fill="none" xmlns="http://www.w3.org/2000/svg">
<path d="M18.6531 7.25H18.25H18.2344C18.2125 7.25 18.1906 7.24688 18.1688 7.24688C17.7906 7.20313 17.5 6.8875 17.5 6.5C17.5 6.1125 17.7906 5.79687 18.1656 5.75312C18.1875 5.75 18.2094 5.75 18.2313 5.75H18.2469H18.65H19.2C19.5375 5.75 19.775 5.41875 19.5906 5.1375C19.4781 4.96563 19.3469 4.80938 19.2 4.67188C19.0688 4.55 18.925 4.44062 18.7688 4.35C18.7125 4.3125 18.6531 4.28125 18.5906 4.25C18.2625 4.09063 17.8906 4 17.5 4C16.5906 4 15.7969 4.48438 15.3594 5.20938C15.2563 5.37813 15.0813 5.5 14.8813 5.5H9.11877C8.91877 5.5 8.74377 5.38125 8.64064 5.20938C8.20314 4.48438 7.40939 4 6.50002 4C6.10939 4 5.73752 4.09063 5.40939 4.25C5.34689 4.28125 5.28752 4.3125 5.22814 4.34688C5.07189 4.4375 4.92814 4.54687 4.79689 4.66875C4.65002 4.80625 4.51564 4.9625 4.40627 5.13437C4.21877 5.41875 4.45939 5.75 4.79689 5.75H5.34689H5.75002H5.76564C5.78752 5.75 5.80939 5.75312 5.83127 5.75312C6.20939 5.79687 6.50002 6.1125 6.50002 6.5C6.50002 6.8875 6.20939 7.20313 5.83439 7.24688C5.81252 7.25 5.79064 7.25 5.76877 7.25H5.75314H5.34689H4.79689C4.45939 7.25 4.21877 7.58125 4.40314 7.8625C4.51564 8.03437 4.64689 8.19062 4.79377 8.32812C4.92502 8.45 5.06877 8.55938 5.22502 8.65C5.28439 8.68438 5.34377 8.71875 5.40627 8.74687C5.73752 8.90625 6.10627 8.99687 6.49689 8.99687C7.40627 8.99687 8.20002 8.5125 8.63752 7.7875C8.74064 7.61875 8.91564 7.49688 9.11564 7.49688H14.8813C15.0813 7.49688 15.2563 7.61562 15.3594 7.7875C15.7969 8.5125 16.5938 8.99687 17.5 8.99687C17.8906 8.99687 18.2625 8.90625 18.5906 8.74687C18.6531 8.71562 18.7125 8.68438 18.7719 8.65C18.9281 8.55938 19.0719 8.45 19.2031 8.32812C19.35 8.19062 19.4844 8.03437 19.5938 7.8625C19.7781 7.58125 19.5406 7.25 19.2031 7.25H18.6531ZM9.80627 11H14.1938C14.4063 11 14.5938 11.1344 14.6656 11.3313L15.2594 13H8.74064L9.33752 11.3313C9.40939 11.1313 9.59689 11 9.80939 11H9.80627ZM7.45314 10.6594L6.56877 13.1375C5.94064 13.4031 5.50002 14.025 5.50002 14.75V16V18V19C5.50002 19.5531 5.94689 20 6.50002 20H7.00002C7.55314 20 8.00002 19.5531 8.00002 19V18H16V19C16 19.5531 16.4469 20 17 20H17.5C18.0531 20 18.5 19.5531 18.5 19V18V16V14.75C18.5 14.025 18.0594 13.4031 17.4313 13.1375L16.5469 10.6594C16.1906 9.66563 15.25 9 14.1938 9H9.80627C8.75002 9 7.80627 9.66563 7.45314 10.6594ZM8.00002 14.75C8.19893 14.75 8.38969 14.829 8.53035 14.9697C8.671 15.1103 8.75002 15.3011 8.75002 15.5C8.75002 15.6989 8.671 15.8897 8.53035 16.0303C8.38969 16.171 8.19893 16.25 8.00002 16.25C7.8011 16.25 7.61034 16.171 7.46969 16.0303C7.32903 15.8897 7.25002 15.6989 7.25002 15.5C7.25002 15.3011 7.32903 15.1103 7.46969 14.9697C7.61034 14.829 7.8011 14.75 8.00002 14.75ZM15.25 15.5C15.25 15.3011 15.329 15.1103 15.4697 14.9697C15.6103 14.829 15.8011 14.75 16 14.75C16.1989 14.75 16.3897 14.829 16.5303 14.9697C16.671 15.1103 16.75 15.3011 16.75 15.5C16.75 15.6989 16.671 15.8897 16.5303 16.0303C16.3897 16.171 16.1989 16.25 16 16.25C15.8011 16.25 15.6103 16.171 15.4697 16.0303C15.329 15.8897 15.25 15.6989 15.25 15.5Z" fill="black"/>
</svg>
