<svg width="24" height="24" viewBox="0 0 24 24" fill="none" xmlns="http://www.w3.org/2000/svg">
<path d="M12 20C14.1217 20 16.1566 19.1571 17.6569 17.6569C19.1571 16.1566 20 14.1217 20 12C20 9.87827 19.1571 7.84344 17.6569 6.34315C16.1566 4.84285 14.1217 4 12 4C9.87827 4 7.84344 4.84285 6.34315 6.34315C4.84285 7.84344 4 9.87827 4 12C4 14.1217 4.84285 16.1566 6.34315 17.6569C7.84344 19.1571 9.87827 20 12 20ZM15.7812 12.4688C16.075 12.7625 16.075 13.2375 15.7812 13.5281C15.4875 13.8187 15.0125 13.8219 14.7219 13.5281L12.0031 10.8094L9.28438 13.5281C8.99063 13.8219 8.51562 13.8219 8.225 13.5281C7.93437 13.2344 7.93125 12.7594 8.225 12.4688L11.4688 9.21875C11.7625 8.925 12.2375 8.925 12.5281 9.21875L15.7812 12.4688Z" fill="black"/>
</svg>
