<svg width="24" height="24" viewBox="0 0 24 24" fill="none" xmlns="http://www.w3.org/2000/svg">
<path d="M13 9C13 9.35938 13.0375 9.70937 13.1094 10.0437C14.7875 10.3 16.125 11.6 16.4344 13.2625C16.8781 13.4344 17.2844 13.6813 17.6375 13.9875C17.7531 13.9969 17.8687 14 17.9875 14C19.3375 14 20.5656 13.4594 21.4625 12.5844C21.6187 12.4313 21.6594 12.1938 21.5594 12C21.4594 11.8063 21.2437 11.6969 21.0281 11.7344C20.825 11.7688 20.6156 11.7875 20.4031 11.7875C18.3937 11.7875 16.7625 10.1531 16.7625 8.13438C16.7625 6.76875 17.5094 5.57812 18.6156 4.95C18.8062 4.84062 18.9031 4.62188 18.8562 4.40938C18.8094 4.19688 18.625 4.0375 18.4094 4.01875C18.2687 4.00625 18.1281 4 17.9875 4C15.2312 4 13 6.24062 13 9ZM5.58749 12.5594C6.21562 11.6187 7.28437 11 8.49999 11C8.90312 11 9.29062 11.0687 9.64999 11.1937C10.2625 10.5719 11.0812 10.1469 11.9937 10.0312V10.0031C11.9937 8.9 11.1 8.00313 9.99374 8.00313C9.76249 8.00313 9.53749 8.04375 9.33124 8.11562C8.97187 7.175 8.06249 6.50312 6.99374 6.50312C5.77812 6.50312 4.76562 7.37187 4.54062 8.52187C4.44374 8.50938 4.34374 8.50313 4.24374 8.50313C2.99999 8.50313 1.99374 9.50938 1.99374 10.7531C1.99374 11.9969 2.99999 13.0031 4.24374 13.0031C4.74687 13.0031 5.20937 12.8375 5.58437 12.5625L5.58749 12.5594ZM3.99999 17.4969C3.99999 18.8781 5.11874 19.9969 6.49999 19.9969H14.9969C16.6531 19.9969 17.9969 18.6531 17.9969 16.9969C17.9969 15.5094 16.9156 14.2781 15.4969 14.0406V14C15.4969 12.3438 14.1531 11 12.4969 11C11.4062 11 10.4531 11.5812 9.92812 12.45C9.52499 12.1656 9.03124 12 8.49999 12C7.11874 12 5.99999 13.1187 5.99999 14.5C5.99999 14.6844 6.01874 14.8656 6.05937 15.0375C4.88749 15.2469 3.99999 16.2688 3.99999 17.4969Z" fill="black"/>
</svg>
