<svg width="24" height="24" viewBox="0 0 24 24" fill="none" xmlns="http://www.w3.org/2000/svg">
<path d="M13 9C13 9.35938 13.0375 9.70937 13.1094 10.0437C14.7875 10.3 16.125 11.6 16.4344 13.2625C16.8781 13.4344 17.2844 13.6813 17.6375 13.9875C17.7531 13.9969 17.8688 14 17.9875 14C19.3375 14 20.5656 13.4594 21.4625 12.5844C21.6188 12.4313 21.6594 12.1938 21.5594 12C21.4594 11.8063 21.2438 11.6969 21.0282 11.7344C20.825 11.7688 20.6157 11.7875 20.4032 11.7875C18.3938 11.7875 16.7625 10.1531 16.7625 8.13438C16.7625 6.76875 17.5094 5.57812 18.6157 4.95C18.8063 4.84062 18.9032 4.62188 18.8563 4.40938C18.8094 4.19688 18.625 4.0375 18.4094 4.01875C18.2688 4.00625 18.1282 4 17.9875 4C15.2313 4 13 6.24062 13 9ZM5.58752 12.5594C6.21565 11.6187 7.2844 11 8.50002 11C8.90315 11 9.29065 11.0687 9.65002 11.1937C10.2625 10.5719 11.0813 10.1469 11.9938 10.0312V10.0031C11.9938 8.9 11.1 8.00313 9.99377 8.00313C9.76252 8.00313 9.53752 8.04375 9.33127 8.11562C8.9719 7.175 8.06252 6.50312 6.99377 6.50312C5.77815 6.50312 4.76565 7.37187 4.54065 8.52187C4.44377 8.50938 4.34377 8.50313 4.24377 8.50313C3.00002 8.50313 1.99377 9.50938 1.99377 10.7531C1.99377 11.9969 3.00002 13.0031 4.24377 13.0031C4.7469 13.0031 5.2094 12.8375 5.5844 12.5625L5.58752 12.5594ZM4.00002 17.4969C4.00002 18.8781 5.11877 19.9969 6.50002 19.9969H14.9969C16.6531 19.9969 17.9969 18.6531 17.9969 16.9969C17.9969 15.5094 16.9156 14.2781 15.4969 14.0406V14C15.4969 12.3438 14.1531 11 12.4969 11C11.4063 11 10.4531 11.5812 9.92815 12.45C9.52502 12.1656 9.03127 12 8.50002 12C7.11877 12 6.00002 13.1187 6.00002 14.5C6.00002 14.6844 6.01877 14.8656 6.0594 15.0375C4.88752 15.2469 4.00002 16.2688 4.00002 17.4969Z" fill="black"/>
</svg>
