<svg width="24" height="24" viewBox="0 0 24 24" fill="none" xmlns="http://www.w3.org/2000/svg">
<path d="M12.0002 18C16.4189 18 20.0002 15.0906 20.0002 11.5C20.0002 7.90937 16.4189 5 12.0002 5C7.58141 5 4.00016 7.90937 4.00016 11.5C4.00016 12.9094 4.55328 14.2125 5.49078 15.2781C5.43141 16.0437 5.13453 16.725 4.82203 17.2437C4.65016 17.5312 4.47516 17.7625 4.34703 17.9187C4.28141 17.9969 4.23141 18.0563 4.19391 18.0969C4.17516 18.1156 4.16266 18.1313 4.15328 18.1406L4.14391 18.15C4.00016 18.2937 3.95953 18.5063 4.03766 18.6938C4.11578 18.8813 4.29703 19.0031 4.50016 19.0031C5.39703 19.0031 6.30016 18.725 7.05016 18.4C7.76578 18.0875 8.37516 17.7156 8.74703 17.4438C9.74078 17.8031 10.8408 18.0031 12.0002 18.0031V18ZM8.75016 9.5H15.2502C15.6658 9.5 16.0002 9.83437 16.0002 10.25C16.0002 10.6656 15.6658 11 15.2502 11H8.75016C8.33453 11 8.00016 10.6656 8.00016 10.25C8.00016 9.83437 8.33453 9.5 8.75016 9.5ZM8.75016 12.5H12.2502C12.6658 12.5 13.0002 12.8344 13.0002 13.25C13.0002 13.6656 12.6658 14 12.2502 14H8.75016C8.33453 14 8.00016 13.6656 8.00016 13.25C8.00016 12.8344 8.33453 12.5 8.75016 12.5Z" fill="black"/>
</svg>
