<svg width="24" height="24" viewBox="0 0 24 24" fill="none" xmlns="http://www.w3.org/2000/svg">
<path d="M11.9999 18C16.4187 18 19.9999 15.0906 19.9999 11.5C19.9999 7.90937 16.4187 5 11.9999 5C7.58116 5 3.99991 7.90937 3.99991 11.5C3.99991 12.9094 4.55304 14.2125 5.49054 15.2781C5.43116 16.0437 5.13429 16.725 4.82179 17.2437C4.64991 17.5312 4.47491 17.7625 4.34679 17.9187C4.28116 17.9969 4.23116 18.0563 4.19366 18.0969C4.17491 18.1156 4.16241 18.1313 4.15304 18.1406L4.14366 18.15C3.99991 18.2937 3.95929 18.5063 4.03741 18.6938C4.11554 18.8813 4.29679 19.0031 4.49991 19.0031C5.39679 19.0031 6.29991 18.725 7.04991 18.4C7.76554 18.0875 8.37491 17.7156 8.74679 17.4438C9.74054 17.8031 10.8405 18.0031 11.9999 18.0031V18ZM12.7499 8.75V12.4406L13.7187 11.4719C14.0124 11.1781 14.4874 11.1781 14.778 11.4719C15.0687 11.7656 15.0718 12.2406 14.778 12.5312L12.528 14.7812C12.2343 15.075 11.7593 15.075 11.4687 14.7812L9.21866 12.5312C8.92491 12.2375 8.92491 11.7625 9.21866 11.4719C9.51241 11.1813 9.98741 11.1781 10.278 11.4719L11.2468 12.4406V8.75C11.2468 8.33437 11.5812 8 11.9968 8C12.4124 8 12.7468 8.33437 12.7468 8.75H12.7499Z" fill="black"/>
</svg>
