<svg width="24" height="24" viewBox="0 0 24 24" fill="none" xmlns="http://www.w3.org/2000/svg">
<path d="M6 4C5.44687 4 5 4.44687 5 5V7C5 7.55313 5.44687 8 6 8H8.5V9H6.71875C5.73125 9 4.89063 9.72187 4.74063 10.7L4.03438 15.3781C4.0125 15.525 4 15.675 4 15.825V18C4 19.1031 4.89688 20 6 20H18C19.1031 20 20 19.1031 20 18V15.825C20 15.675 19.9875 15.525 19.9656 15.375L19.2563 10.7C19.1094 9.72187 18.2688 9 17.2812 9H10.5V8H13C13.5531 8 14 7.55313 14 7V5C14 4.44687 13.5531 4 13 4H6ZM7 5.5H12C12.275 5.5 12.5 5.725 12.5 6C12.5 6.275 12.275 6.5 12 6.5H7C6.725 6.5 6.5 6.275 6.5 6C6.5 5.725 6.725 5.5 7 5.5ZM6 17.5C6 17.225 6.225 17 6.5 17H17.5C17.775 17 18 17.225 18 17.5C18 17.775 17.775 18 17.5 18H6.5C6.225 18 6 17.775 6 17.5ZM7.5 12.25C7.30109 12.25 7.11032 12.171 6.96967 12.0303C6.82902 11.8897 6.75 11.6989 6.75 11.5C6.75 11.3011 6.82902 11.1103 6.96967 10.9697C7.11032 10.829 7.30109 10.75 7.5 10.75C7.69891 10.75 7.88968 10.829 8.03033 10.9697C8.17098 11.1103 8.25 11.3011 8.25 11.5C8.25 11.6989 8.17098 11.8897 8.03033 12.0303C7.88968 12.171 7.69891 12.25 7.5 12.25ZM11.25 11.5C11.25 11.6989 11.171 11.8897 11.0303 12.0303C10.8897 12.171 10.6989 12.25 10.5 12.25C10.3011 12.25 10.1103 12.171 9.96967 12.0303C9.82902 11.8897 9.75 11.6989 9.75 11.5C9.75 11.3011 9.82902 11.1103 9.96967 10.9697C10.1103 10.829 10.3011 10.75 10.5 10.75C10.6989 10.75 10.8897 10.829 11.0303 10.9697C11.171 11.1103 11.25 11.3011 11.25 11.5ZM9 14.75C8.80109 14.75 8.61032 14.671 8.46967 14.5303C8.32902 14.3897 8.25 14.1989 8.25 14C8.25 13.8011 8.32902 13.6103 8.46967 13.4697C8.61032 13.329 8.80109 13.25 9 13.25C9.19891 13.25 9.38968 13.329 9.53033 13.4697C9.67098 13.6103 9.75 13.8011 9.75 14C9.75 14.1989 9.67098 14.3897 9.53033 14.5303C9.38968 14.671 9.19891 14.75 9 14.75ZM14.25 11.5C14.25 11.6989 14.171 11.8897 14.0303 12.0303C13.8897 12.171 13.6989 12.25 13.5 12.25C13.3011 12.25 13.1103 12.171 12.9697 12.0303C12.829 11.8897 12.75 11.6989 12.75 11.5C12.75 11.3011 12.829 11.1103 12.9697 10.9697C13.1103 10.829 13.3011 10.75 13.5 10.75C13.6989 10.75 13.8897 10.829 14.0303 10.9697C14.171 11.1103 14.25 11.3011 14.25 11.5ZM12 14.75C11.8011 14.75 11.6103 14.671 11.4697 14.5303C11.329 14.3897 11.25 14.1989 11.25 14C11.25 13.8011 11.329 13.6103 11.4697 13.4697C11.6103 13.329 11.8011 13.25 12 13.25C12.1989 13.25 12.3897 13.329 12.5303 13.4697C12.671 13.6103 12.75 13.8011 12.75 14C12.75 14.1989 12.671 14.3897 12.5303 14.5303C12.3897 14.671 12.1989 14.75 12 14.75ZM17.25 11.5C17.25 11.5985 17.2306 11.696 17.1929 11.787C17.1552 11.878 17.1 11.9607 17.0303 12.0303C16.9607 12.1 16.878 12.1552 16.787 12.1929C16.696 12.2306 16.5985 12.25 16.5 12.25C16.4015 12.25 16.304 12.2306 16.213 12.1929C16.122 12.1552 16.0393 12.1 15.9697 12.0303C15.9 11.9607 15.8448 11.878 15.8071 11.787C15.7694 11.696 15.75 11.5985 15.75 11.5C15.75 11.4015 15.7694 11.304 15.8071 11.213C15.8448 11.122 15.9 11.0393 15.9697 10.9697C16.0393 10.9 16.122 10.8448 16.213 10.8071C16.304 10.7694 16.4015 10.75 16.5 10.75C16.5985 10.75 16.696 10.7694 16.787 10.8071C16.878 10.8448 16.9607 10.9 17.0303 10.9697C17.1 11.0393 17.1552 11.122 17.1929 11.213C17.2306 11.304 17.25 11.4015 17.25 11.5ZM15 14.75C14.8011 14.75 14.6103 14.671 14.4697 14.5303C14.329 14.3897 14.25 14.1989 14.25 14C14.25 13.8011 14.329 13.6103 14.4697 13.4697C14.6103 13.329 14.8011 13.25 15 13.25C15.1989 13.25 15.3897 13.329 15.5303 13.4697C15.671 13.6103 15.75 13.8011 15.75 14C15.75 14.1989 15.671 14.3897 15.5303 14.5303C15.3897 14.671 15.1989 14.75 15 14.75Z" fill="black"/>
</svg>
