<svg width="24" height="24" viewBox="0 0 24 24" fill="none" xmlns="http://www.w3.org/2000/svg">
<path d="M7.00005 14C5.3438 14 4.00005 12.6562 4.00005 11C4.00005 9.67188 4.86255 8.54375 6.05943 8.15C6.02193 7.94063 6.00005 7.72187 6.00005 7.5C6.00005 5.56562 7.56568 4 9.50005 4C10.8469 4 12.0157 4.75937 12.6001 5.875C13.0594 5.34062 13.7407 5 14.5001 5C15.8813 5 17.0001 6.11875 17.0001 7.5C17.0001 7.67188 16.9813 7.8375 16.9501 8C16.9657 8 16.9844 8 17.0001 8C18.6563 8 20 9.34375 20 11C20 12.6562 18.6563 14 17.0001 14H7.00005ZM6.54693 15.0594C6.92818 15.2219 7.10318 15.6625 6.94068 16.0437L5.44068 19.5437C5.27818 19.925 4.83755 20.1 4.4563 19.9375C4.07505 19.775 3.89693 19.3344 4.05943 18.9531L5.55943 15.4531C5.72193 15.0719 6.16255 14.8969 6.5438 15.0594H6.54693ZM10.2969 15.0594C10.6782 15.2219 10.8532 15.6625 10.6907 16.0437L9.19068 19.5437C9.02818 19.925 8.58755 20.1 8.2063 19.9375C7.82505 19.775 7.65005 19.3344 7.81255 18.9531L9.31255 15.4531C9.47505 15.0719 9.91568 14.8969 10.2969 15.0594ZM17.9407 16.0437L16.4407 19.5437C16.2782 19.925 15.8376 20.1 15.4563 19.9375C15.0751 19.775 14.9001 19.3344 15.0626 18.9531L16.5626 15.4531C16.7251 15.0719 17.1657 14.8969 17.5469 15.0594C17.9282 15.2219 18.1032 15.6625 17.9407 16.0437ZM13.7969 15.0594C14.1782 15.2219 14.3532 15.6625 14.1907 16.0437L12.6907 19.5437C12.5282 19.925 12.0876 20.1 11.7063 19.9375C11.3251 19.775 11.1501 19.3344 11.3126 18.9531L12.8126 15.4531C12.9751 15.0719 13.4157 14.8969 13.7969 15.0594Z" fill="black"/>
</svg>
