<svg width="24" height="24" viewBox="0 0 24 24" fill="none" xmlns="http://www.w3.org/2000/svg">
<path d="M12 20C14.1217 20 16.1566 19.1571 17.6569 17.6569C19.1571 16.1566 20 14.1217 20 12C20 9.87827 19.1571 7.84344 17.6569 6.34315C16.1566 4.84285 14.1217 4 12 4C9.87827 4 7.84344 4.84285 6.34315 6.34315C4.84285 7.84344 4 9.87827 4 12C4 14.1217 4.84285 16.1566 6.34315 17.6569C7.84344 19.1571 9.87827 20 12 20ZM12 7.5C12.2844 7.5 12.5437 7.65938 12.6719 7.91563L15.9219 14.4156C16.1062 14.7875 15.9562 15.2375 15.5875 15.4219C15.2188 15.6062 14.7656 15.4562 14.5813 15.0875L14.0375 14H9.9625L9.41875 15.0844C9.23438 15.4563 8.78437 15.6062 8.4125 15.4187C8.04063 15.2312 7.89062 14.7844 8.07812 14.4125L11.3281 7.9125C11.4563 7.65937 11.7156 7.49688 12 7.49688V7.5ZM12 9.92812L10.7125 12.5H13.2844L12 9.92812Z" fill="black"/>
</svg>
