<svg width="24" height="24" viewBox="0 0 24 24" fill="none" xmlns="http://www.w3.org/2000/svg">
<path d="M12.7063 5.2937C12.3156 4.90308 11.6813 4.90308 11.2906 5.2937L5.29065 11.2937C4.90002 11.6843 4.90002 12.3187 5.29065 12.7093C5.68127 13.1 6.31565 13.1 6.70627 12.7093L12 7.41558L17.2938 12.7062C17.6844 13.0968 18.3188 13.0968 18.7094 12.7062C19.1 12.3156 19.1 11.6812 18.7094 11.2906L12.7094 5.29058L12.7063 5.2937ZM18.7063 17.2937L12.7063 11.2937C12.3156 10.9031 11.6813 10.9031 11.2906 11.2937L5.29065 17.2937C4.90002 17.6843 4.90002 18.3187 5.29065 18.7093C5.68127 19.1 6.31565 19.1 6.70627 18.7093L12 13.4156L17.2938 18.7062C17.6844 19.0968 18.3188 19.0968 18.7094 18.7062C19.1 18.3156 19.1 17.6812 18.7094 17.2906L18.7063 17.2937Z" fill="black"/>
</svg>
