<svg width="24" height="24" viewBox="0 0 24 24" fill="none" xmlns="http://www.w3.org/2000/svg">
<path d="M19.6249 6.78111C20.0561 6.43736 20.1249 5.80611 19.7811 5.37486C19.4374 4.94361 18.8061 4.87486 18.3749 5.21861L13.9811 8.73423L10.5999 6.19986C10.2342 5.92486 9.7311 5.93423 9.37486 6.21861L4.37486 10.2186C3.94361 10.5624 3.87486 11.1936 4.21861 11.6249C4.56236 12.0561 5.19361 12.1249 5.62486 11.7811L10.0186 8.26548L13.3999 10.7999C13.7655 11.0749 14.2686 11.0655 14.6249 10.7811L19.6249 6.78111ZM8.99986 11.9999V17.9999C8.99986 18.553 9.44673 18.9999 9.99986 18.9999C10.553 18.9999 10.9999 18.553 10.9999 17.9999V11.9999C10.9999 11.4467 10.553 10.9999 9.99986 10.9999C9.44673 10.9999 8.99986 11.4467 8.99986 11.9999ZM4.99985 14.9999V17.9999C4.99985 18.553 5.44673 18.9999 5.99986 18.9999C6.55298 18.9999 6.99986 18.553 6.99986 17.9999V14.9999C6.99986 14.4467 6.55298 13.9999 5.99986 13.9999C5.44673 13.9999 4.99985 14.4467 4.99985 14.9999ZM13.9999 12.9999C13.4467 12.9999 12.9999 13.4467 12.9999 13.9999V17.9999C12.9999 18.553 13.4467 18.9999 13.9999 18.9999C14.553 18.9999 14.9999 18.553 14.9999 17.9999V13.9999C14.9999 13.4467 14.553 12.9999 13.9999 12.9999ZM16.9999 11.9999V17.9999C16.9999 18.553 17.4467 18.9999 17.9999 18.9999C18.553 18.9999 18.9999 18.553 18.9999 17.9999V11.9999C18.9999 11.4467 18.553 10.9999 17.9999 10.9999C17.4467 10.9999 16.9999 11.4467 16.9999 11.9999Z" fill="black"/>
</svg>
