<svg width="24" height="24" viewBox="0 0 24 24" fill="none" xmlns="http://www.w3.org/2000/svg">
<path d="M11.725 4.53125C11.0344 4.43437 10.3312 4.55937 9.71249 4.8875L7.39999 6.12187C6.78436 6.45 6.28749 6.96562 5.98124 7.59375L4.83436 9.95625C4.52811 10.5844 4.42811 11.2969 4.54999 11.9844L5.00311 14.5719C5.12499 15.2625 5.45936 15.8938 5.96249 16.3813L7.84686 18.2063C8.34999 18.6938 8.99061 19.0062 9.68124 19.1031L12.275 19.4688C12.9656 19.5656 13.6687 19.4406 14.2875 19.1125L16.6 17.8781C17.2156 17.55 17.7125 17.0344 18.0187 16.4031L19.1656 14.0437C19.4719 13.4156 19.5719 12.7031 19.45 12.0156L18.9937 9.42812C18.8719 8.7375 18.5375 8.10625 18.0344 7.61875L16.1531 5.79687C15.65 5.30937 15.0094 4.99687 14.3187 4.9L11.725 4.53125ZM10.5 8.5C10.7652 8.5 11.0196 8.60536 11.2071 8.79289C11.3946 8.98043 11.5 9.23478 11.5 9.5C11.5 9.76522 11.3946 10.0196 11.2071 10.2071C11.0196 10.3946 10.7652 10.5 10.5 10.5C10.2348 10.5 9.98042 10.3946 9.79288 10.2071C9.60535 10.0196 9.49999 9.76522 9.49999 9.5C9.49999 9.23478 9.60535 8.98043 9.79288 8.79289C9.98042 8.60536 10.2348 8.5 10.5 8.5ZM8.49999 14.5C8.49999 14.2348 8.60535 13.9804 8.79288 13.7929C8.98042 13.6054 9.23477 13.5 9.49999 13.5C9.7652 13.5 10.0196 13.6054 10.2071 13.7929C10.3946 13.9804 10.5 14.2348 10.5 14.5C10.5 14.7652 10.3946 15.0196 10.2071 15.2071C10.0196 15.3946 9.7652 15.5 9.49999 15.5C9.23477 15.5 8.98042 15.3946 8.79288 15.2071C8.60535 15.0196 8.49999 14.7652 8.49999 14.5ZM15.5 12.5C15.7652 12.5 16.0196 12.6054 16.2071 12.7929C16.3946 12.9804 16.5 13.2348 16.5 13.5C16.5 13.7652 16.3946 14.0196 16.2071 14.2071C16.0196 14.3946 15.7652 14.5 15.5 14.5C15.2348 14.5 14.9804 14.3946 14.7929 14.2071C14.6053 14.0196 14.5 13.7652 14.5 13.5C14.5 13.2348 14.6053 12.9804 14.7929 12.7929C14.9804 12.6054 15.2348 12.5 15.5 12.5Z" fill="black"/>
</svg>
