<svg width="24" height="24" viewBox="0 0 24 24" fill="none" xmlns="http://www.w3.org/2000/svg">
<path d="M15.7062 6.70627C16.0968 6.31565 16.0968 5.68127 15.7062 5.29065C15.3155 4.90002 14.6812 4.90002 14.2905 5.29065L9.9999 9.5844L8.20615 7.79065C7.81553 7.40002 7.18115 7.40002 6.79053 7.79065C6.3999 8.18127 6.3999 8.81565 6.79053 9.20627L9.29053 11.7063C9.68115 12.0969 10.3155 12.0969 10.7062 11.7063L15.7062 6.70627ZM18.7062 10.7063C19.0968 10.3156 19.0968 9.68127 18.7062 9.29065C18.3155 8.90002 17.6812 8.90002 17.2905 9.29065L9.9999 16.5844L6.70615 13.2938C6.31553 12.9031 5.68115 12.9031 5.29053 13.2938C4.8999 13.6844 4.8999 14.3188 5.29053 14.7094L9.29053 18.7094C9.68115 19.1 10.3155 19.1 10.7062 18.7094L18.7062 10.7094V10.7063Z" fill="black"/>
</svg>
