<svg width="24" height="24" viewBox="0 0 24 24" fill="none" xmlns="http://www.w3.org/2000/svg">
<path d="M3.75 4C3.33437 4 3 4.33437 3 4.75C3 5.16563 3.33437 5.5 3.75 5.5H5.17188C5.29062 5.5 5.39375 5.58438 5.41875 5.70312L7.03125 14.1719C7.23438 15.2344 8.1625 16 9.24062 16H18.25C18.6656 16 19 15.6656 19 15.25C19 14.8344 18.6656 14.5 18.25 14.5H9.24062C8.88125 14.5 8.57188 14.2438 8.50313 13.8906L8.33437 13H17.35C18.3688 13 19.2594 12.3187 19.5219 11.3344L20.8031 6.575C21.0188 5.78125 20.4187 5 19.5969 5H14.25V8.19063L14.9688 7.47187C15.2625 7.17812 15.7375 7.17812 16.0281 7.47187C16.3187 7.76562 16.3219 8.24062 16.0281 8.53125L14.0281 10.5312C13.7344 10.825 13.2594 10.825 12.9688 10.5312L10.9688 8.53125C10.675 8.2375 10.675 7.7625 10.9688 7.47187C11.2625 7.18125 11.7375 7.17812 12.0281 7.47187L12.7469 8.19063V5H6.75312C6.46875 4.4 5.8625 4 5.17188 4H3.75ZM8.5 20C8.89782 20 9.27936 19.842 9.56066 19.5607C9.84196 19.2794 10 18.8978 10 18.5C10 18.1022 9.84196 17.7206 9.56066 17.4393C9.27936 17.158 8.89782 17 8.5 17C8.10218 17 7.72064 17.158 7.43934 17.4393C7.15804 17.7206 7 18.1022 7 18.5C7 18.8978 7.15804 19.2794 7.43934 19.5607C7.72064 19.842 8.10218 20 8.5 20ZM19 18.5C19 18.1022 18.842 17.7206 18.5607 17.4393C18.2794 17.158 17.8978 17 17.5 17C17.1022 17 16.7206 17.158 16.4393 17.4393C16.158 17.7206 16 18.1022 16 18.5C16 18.8978 16.158 19.2794 16.4393 19.5607C16.7206 19.842 17.1022 20 17.5 20C17.8978 20 18.2794 19.842 18.5607 19.5607C18.842 19.2794 19 18.8978 19 18.5Z" fill="black"/>
</svg>
