<svg width="24" height="24" viewBox="0 0 24 24" fill="none" xmlns="http://www.w3.org/2000/svg">
<path d="M3.21255 4.15943C2.88755 3.90318 2.41568 3.96255 2.15943 4.28755C1.90318 4.61255 1.96255 5.08443 2.28755 5.34068L20.7876 19.8407C21.1126 20.0969 21.5844 20.0376 21.8407 19.7126C22.0969 19.3876 22.0376 18.9157 21.7126 18.6594L19.9782 17.3001C19.9938 17.2032 20.0001 17.1032 20.0001 17.0001V9.00005C20.0001 7.89693 19.1032 7.00005 18.0001 7.00005H15.6657L15.3407 6.02505C15.1376 5.41255 14.5657 5.00005 13.9188 5.00005H10.0813C9.43443 5.00005 8.86255 5.41255 8.65943 6.02505L8.33443 7.00005H6.83755L3.21255 4.15943ZM10.9188 10.2001C11.2532 10.0719 11.6188 10.0001 12.0001 10.0001C13.6563 10.0001 15.0001 11.3438 15.0001 13.0001C15.0001 13.1282 14.9907 13.2563 14.9751 13.3813L10.9188 10.2001ZM17.2313 19.0001L13.1376 15.7751C12.7876 15.9188 12.4032 16.0001 12.0001 16.0001C10.3438 16.0001 9.00005 14.6563 9.00005 13.0001C9.00005 12.8438 9.01255 12.6907 9.03443 12.5438L4.03755 8.6063C4.01255 8.73443 4.00005 8.86568 4.00005 9.00005V17.0001C4.00005 18.1032 4.89693 19.0001 6.00005 19.0001H17.2313Z" fill="black"/>
</svg>
