<svg width="24" height="24" viewBox="0 0 24 24" fill="none" xmlns="http://www.w3.org/2000/svg">
<path d="M14.7812 5.62422C15.125 5.19297 15.0562 4.56484 14.625 4.21797C14.1938 3.87109 13.5656 3.94297 13.2188 4.37422L12 5.89922L10.7812 4.37422C10.4375 3.94297 9.80625 3.87422 9.375 4.21797C8.94375 4.56172 8.875 5.19297 9.21875 5.62422L10.7188 7.49922L3.38438 16.668C3.13438 16.9805 3 17.3648 3 17.7617V18.4992C3 19.3273 3.67188 19.9992 4.5 19.9992H12H19.5C20.3281 19.9992 21 19.3273 21 18.4992V17.7617C21 17.3648 20.8656 16.9773 20.6156 16.668L13.2812 7.49922L14.7812 5.62422ZM12 17.9992H8.26562L12 13.1148L15.7344 17.9992H12Z" fill="black"/>
</svg>
