<svg width="24" height="24" viewBox="0 0 24 24" fill="none" xmlns="http://www.w3.org/2000/svg">
<path d="M6 6C6 5.44687 5.55313 5 5 5C4.44687 5 4 5.44687 4 6V16.5C4 17.8813 5.11875 19 6.5 19H19C19.5531 19 20 18.5531 20 18C20 17.4469 19.5531 17 19 17H6.5C6.225 17 6 16.775 6 16.5V6ZM17.7188 12.7188C18.1906 13.1906 19 12.8562 19 12.1875V8.75C19 8.33437 18.6656 8 18.25 8H14.8094C14.1406 8 13.8062 8.80937 14.2781 9.28125L15.2906 10.2937L13.5 12.0844L11.2063 9.79063C10.8156 9.4 10.1813 9.4 9.79063 9.79063L7.29063 12.2906C6.9 12.6812 6.9 13.3156 7.29063 13.7063C7.68125 14.0969 8.31563 14.0969 8.70625 13.7063L10.5 11.9156L12.7937 14.2094C13.1844 14.6 13.8188 14.6 14.2094 14.2094L16.7094 11.7094L17.7188 12.7188Z" fill="black"/>
</svg>
