<svg width="24" height="24" viewBox="0 0 24 24" fill="none" xmlns="http://www.w3.org/2000/svg">
<path d="M12 4C7.58125 4 4 7.58125 4 12V18C4 19.1031 4.89688 20 6 20H7.3375C7.13125 19.8156 7 19.55 7 19.25V15.75C7 15.1 7.35313 14.5344 7.87812 14.2312L8.53438 12.2094C8.76875 11.4875 9.44062 11 10.2 11H13.8C14.5594 11 15.2312 11.4875 15.4656 12.2094L16.1219 14.2312C16.6469 14.5344 17.0031 15.1 17.0031 15.75V19.25C17.0031 19.55 16.8719 19.8156 16.6656 20H18C19.1031 20 20 19.1031 20 18V12C20 7.58125 16.4187 4 12 4ZM15.3375 20C15.1312 19.8156 15 19.55 15 19.25V18H9V19.25C9 19.55 8.86875 19.8156 8.6625 20H15.3375ZM9.9625 12.6719L9.53125 14H14.4688L14.0375 12.6719C14.0031 12.5688 13.9094 12.5 13.8 12.5H10.2C10.0906 12.5 9.99688 12.5688 9.9625 12.6719ZM9.25 16.75C9.44891 16.75 9.63968 16.671 9.78033 16.5303C9.92098 16.3897 10 16.1989 10 16C10 15.8011 9.92098 15.6103 9.78033 15.4697C9.63968 15.329 9.44891 15.25 9.25 15.25C9.05109 15.25 8.86032 15.329 8.71967 15.4697C8.57902 15.6103 8.5 15.8011 8.5 16C8.5 16.1989 8.57902 16.3897 8.71967 16.5303C8.86032 16.671 9.05109 16.75 9.25 16.75ZM15.5 16C15.5 15.8011 15.421 15.6103 15.2803 15.4697C15.1397 15.329 14.9489 15.25 14.75 15.25C14.5511 15.25 14.3603 15.329 14.2197 15.4697C14.079 15.6103 14 15.8011 14 16C14 16.1989 14.079 16.3897 14.2197 16.5303C14.3603 16.671 14.5511 16.75 14.75 16.75C14.9489 16.75 15.1397 16.671 15.2803 16.5303C15.421 16.3897 15.5 16.1989 15.5 16Z" fill="black"/>
</svg>
