<svg width="24" height="24" viewBox="0 0 24 24" fill="none" xmlns="http://www.w3.org/2000/svg">
<path d="M12 20C14.1217 20 16.1566 19.1571 17.6569 17.6569C19.1571 16.1566 20 14.1217 20 12C20 9.87827 19.1571 7.84344 17.6569 6.34315C16.1566 4.84285 14.1217 4 12 4C9.87827 4 7.84344 4.84285 6.34315 6.34315C4.84285 7.84344 4 9.87827 4 12C4 14.1217 4.84285 16.1566 6.34315 17.6569C7.84344 19.1571 9.87827 20 12 20ZM8.22188 10.7937L11.5687 7.67188C11.6875 7.5625 11.8406 7.5 12 7.5C12.1594 7.5 12.3156 7.5625 12.4312 7.67188L15.7781 10.7937C15.9187 10.925 16 11.1094 16 11.3031C16 11.6875 15.6875 12 15.3031 12H13.5V15C13.5 15.5531 13.0531 16 12.5 16H11.5C10.9469 16 10.5 15.5531 10.5 15V12H8.69688C8.3125 12 8 11.6875 8 11.3031C8 11.1094 8.08125 10.925 8.22188 10.7937Z" fill="black"/>
</svg>
