<svg width="24" height="24" viewBox="0 0 24 24" fill="none" xmlns="http://www.w3.org/2000/svg">
<path d="M3 7V8H21V7C21 5.89688 20.1031 5 19 5H5C3.89688 5 3 5.89688 3 7ZM3 9V17C3 18.1031 3.89688 19 5 19H19C20.1031 19 21 18.1031 21 17V9H3ZM17.6219 16H16V14.9156C16.5813 14.7094 17 14.1531 17 13.5C17 12.8469 16.5813 12.2906 16 12.0844V11H17.6219C18.1719 11.6844 18.5 12.5531 18.5 13.5C18.5 14.4469 18.1719 15.3156 17.6219 16ZM8 14.9156V16H6.37812C5.82812 15.3156 5.5 14.4469 5.5 13.5C5.5 12.5531 5.82812 11.6844 6.37812 11H8V12.0844C7.41875 12.2906 7 12.8469 7 13.5C7 14.1531 7.41875 14.7094 8 14.9156ZM11 11H13C13.5531 11 14 11.4469 14 12V15C14 15.5531 13.5531 16 13 16H11C10.4469 16 10 15.5531 10 15V12C10 11.4469 10.4469 11 11 11Z" fill="black"/>
</svg>
