<svg width="24" height="24" viewBox="0 0 24 24" fill="none" xmlns="http://www.w3.org/2000/svg">
<path d="M12 4C9.87827 4 7.84344 4.84285 6.34315 6.34315C4.84285 7.84344 4 9.87827 4 12C4 14.1217 4.84285 16.1566 6.34315 17.6569C7.84344 19.1571 9.87827 20 12 20C14.1217 20 16.1566 19.1571 17.6569 17.6569C19.1571 16.1566 20 14.1217 20 12C20 9.87827 19.1571 7.84344 17.6569 6.34315C16.1566 4.84285 14.1217 4 12 4ZM15.7781 13.2063L12.4312 16.3281C12.3125 16.4375 12.1594 16.5 12 16.5C11.8406 16.5 11.6844 16.4375 11.5687 16.3281L8.22188 13.2063C8.08125 13.075 8 12.8906 8 12.6969C8 12.3125 8.3125 12 8.69688 12H10.5V9C10.5 8.44687 10.9469 8 11.5 8H12.5C13.0531 8 13.5 8.44687 13.5 9V12H15.3031C15.6875 12 16 12.3125 16 12.6969C16 12.8906 15.9187 13.075 15.7781 13.2063Z" fill="black"/>
</svg>
