<svg width="24" height="24" viewBox="0 0 24 24" fill="none" xmlns="http://www.w3.org/2000/svg">
<path d="M12 18C16.4188 18 20 15.0906 20 11.5C20 7.90937 16.4188 5 12 5C7.58126 5 4.00001 7.90937 4.00001 11.5C4.00001 12.9094 4.55313 14.2125 5.49063 15.2781C5.43126 16.0437 5.13438 16.725 4.82188 17.2437C4.65001 17.5312 4.47501 17.7625 4.34688 17.9187C4.28126 17.9969 4.23126 18.0563 4.19376 18.0969C4.17501 18.1156 4.16251 18.1312 4.15313 18.1406L4.14376 18.15C4.00001 18.2937 3.95938 18.5063 4.03751 18.6938C4.11563 18.8813 4.29688 19.0031 4.50001 19.0031C5.39688 19.0031 6.30001 18.725 7.05001 18.4C7.76563 18.0875 8.37501 17.7156 8.74688 17.4438C9.74063 17.8031 10.8406 18.0031 12 18.0031V18ZM15.5313 10.0312L11.5313 14.0312C11.2375 14.325 10.7625 14.325 10.4719 14.0312L8.47188 12.0312C8.17813 11.7375 8.17813 11.2625 8.47188 10.9719C8.76563 10.6813 9.24063 10.6781 9.53126 10.9719L11 12.4406L14.4688 8.96875C14.7625 8.675 15.2375 8.675 15.5281 8.96875C15.8188 9.2625 15.8219 9.7375 15.5281 10.0281L15.5313 10.0312Z" fill="black"/>
</svg>
