<svg width="24" height="24" viewBox="0 0 24 24" fill="none" xmlns="http://www.w3.org/2000/svg">
<path d="M18.7062 12.7066C19.0968 12.316 19.0968 11.6816 18.7062 11.291L12.7062 5.29102C12.3155 4.90039 11.6812 4.90039 11.2905 5.29102C10.8999 5.68164 10.8999 6.31602 11.2905 6.70664L16.5843 12.0004L11.2937 17.2941C10.903 17.6848 10.903 18.3191 11.2937 18.7098C11.6843 19.1004 12.3187 19.1004 12.7093 18.7098L18.7093 12.7098L18.7062 12.7066ZM6.70615 18.7066L12.7062 12.7066C13.0968 12.316 13.0968 11.6816 12.7062 11.291L6.70615 5.29102C6.31553 4.90039 5.68115 4.90039 5.29053 5.29102C4.8999 5.68164 4.8999 6.31602 5.29053 6.70664L10.5843 12.0004L5.29365 17.2941C4.90303 17.6848 4.90303 18.3191 5.29365 18.7098C5.68428 19.1004 6.31865 19.1004 6.70928 18.7098L6.70615 18.7066Z" fill="black"/>
</svg>
