<svg width="24" height="24" viewBox="0 0 24 24" fill="none" xmlns="http://www.w3.org/2000/svg">
<path d="M2.23455 10.0906C1.7533 9.25938 2.03767 8.19375 2.87205 7.7125L8.89705 4.23438C9.7283 3.75313 10.7939 4.0375 11.2752 4.87188L16.4939 13.9125C16.9752 14.7438 16.6877 15.8094 15.8564 16.2906L9.8283 19.7656C8.99705 20.2469 7.93142 19.9594 7.45017 19.1281L2.23455 10.0906ZM8.15642 8.9875C7.80955 8.89375 7.45017 9.1 7.35642 9.45L7.13142 10.2906L6.49392 12.6688C6.27517 13.4813 6.75955 14.3156 7.56892 14.5344C8.37829 14.7531 9.2158 14.2688 9.43455 13.4594L9.50955 13.1844C9.51267 13.1719 9.5158 13.1594 9.51892 13.15L10.072 14.1094L9.69392 14.3281C9.48455 14.4469 9.4158 14.7156 9.53455 14.9219C9.6533 15.1281 9.92205 15.2 10.1283 15.0813L11.6345 14.2125C11.8439 14.0938 11.9127 13.825 11.7939 13.6188C11.6752 13.4125 11.4064 13.3406 11.2002 13.4594L10.822 13.6781L10.2689 12.7188C10.2814 12.7219 10.2939 12.725 10.3033 12.7281L10.5783 12.8031C11.3908 13.0219 12.2252 12.5375 12.4439 11.7281C12.6627 10.9188 12.1783 10.0813 11.3689 9.8625L8.9908 9.225L8.15642 8.9875ZM16.3564 17.1531C17.6658 16.3969 18.1158 14.7219 17.3595 13.4094L13.0845 6.00625C13.1377 6 13.1939 6 13.2502 6H20.2502C21.2158 6 22.0002 6.78438 22.0002 7.75V18.25C22.0002 19.2156 21.2158 20 20.2502 20H13.2502C12.822 20 12.4314 19.8469 12.1283 19.5938L16.3564 17.1531ZM18.6845 11.425L20.1877 9.8625C20.6252 9.40938 20.6002 8.65938 20.1189 8.24063C19.6814 7.875 19.0408 7.94375 18.6533 8.34063L18.5064 8.50313L18.3502 8.34063C17.9595 7.94375 17.3127 7.87188 16.8908 8.24063C16.4002 8.6625 16.3752 9.4125 16.8127 9.8625L18.3252 11.4219C18.4189 11.5219 18.5814 11.5219 18.6845 11.4219V11.425Z" fill="black"/>
</svg>
