<svg width="24" height="24" viewBox="0 0 24 24" fill="none" xmlns="http://www.w3.org/2000/svg">
<path d="M9 4C9.55312 4 10 4.44687 10 5V6H14V5C14 4.44687 14.4469 4 15 4C15.5531 4 16 4.44687 16 5V6H17.5C18.3281 6 19 6.67188 19 7.5V9H5V7.5C5 6.67188 5.67188 6 6.5 6H8V5C8 4.44687 8.44688 4 9 4ZM5 10H19V18.5C19 19.3281 18.3281 20 17.5 20H6.5C5.67188 20 5 19.3281 5 18.5V10ZM15.2812 13.5312C15.575 13.2375 15.575 12.7625 15.2812 12.4719C14.9875 12.1813 14.5125 12.1781 14.2219 12.4719L11.2531 15.4406L9.78438 13.9719C9.49063 13.6781 9.01562 13.6781 8.725 13.9719C8.43437 14.2656 8.43125 14.7406 8.725 15.0312L10.725 17.0312C11.0187 17.325 11.4938 17.325 11.7844 17.0312L15.2812 13.5312Z" fill="black"/>
</svg>
