<svg width="24" height="24" viewBox="0 0 24 24" fill="none" xmlns="http://www.w3.org/2000/svg">
<path d="M6 8C6 7.44688 6.44688 7 7 7H7.4L8.4625 9.65312C6.96875 10.7469 6 12.5094 6 14.5V14.75C6 16.4844 7.08125 17.8563 7.74688 18.5375C8.05625 18.8563 8.49375 19 8.9375 19H17.0625C17.5063 19 17.9406 18.8531 18.2531 18.5375C18.9187 17.8563 20 16.4844 20 14.75V14.5C20 12.5094 19.0312 10.7469 17.5375 9.65312L18.9406 6.15C18.9812 6.05 19 5.94375 19 5.8375C19 5.375 18.625 5 18.1625 5H10H7.8375H7C5.34375 5 4 6.34375 4 8V10C4 10.5531 4.44687 11 5 11C5.55313 11 6 10.5531 6 10V8ZM8.03125 14C8.19375 12.7063 8.97188 11.6062 10.0625 11H15.9375C17.0281 11.6062 17.8062 12.7063 17.9688 14H8.03125Z" fill="black"/>
</svg>
