<svg width="24" height="24" viewBox="0 0 24 24" fill="none" xmlns="http://www.w3.org/2000/svg">
<path d="M15.7062 6.70624C16.0968 6.31562 16.0968 5.68124 15.7062 5.29062C15.3155 4.89999 14.6812 4.89999 14.2905 5.29062L9.9999 9.58437L8.20615 7.79062C7.81553 7.39999 7.18115 7.39999 6.79053 7.79062C6.3999 8.18124 6.3999 8.81562 6.79053 9.20624L9.29053 11.7062C9.68115 12.0969 10.3155 12.0969 10.7062 11.7062L15.7062 6.70624ZM18.7062 10.7062C19.0968 10.3156 19.0968 9.68124 18.7062 9.29062C18.3155 8.89999 17.6812 8.89999 17.2905 9.29062L9.9999 16.5844L6.70615 13.2937C6.31553 12.9031 5.68115 12.9031 5.29053 13.2937C4.8999 13.6844 4.8999 14.3187 5.29053 14.7094L9.29053 18.7094C9.68115 19.1 10.3155 19.1 10.7062 18.7094L18.7062 10.7094V10.7062Z" fill="black"/>
</svg>
