<svg width="24" height="24" viewBox="0 0 24 24" fill="none" xmlns="http://www.w3.org/2000/svg">
<path d="M5.2937 11.2937C4.90308 11.6844 4.90308 12.3187 5.2937 12.7094L11.2937 18.7094C11.6843 19.1 12.3187 19.1 12.7093 18.7094C13.1 18.3187 13.1 17.6844 12.7093 17.2937L7.41558 12L12.7062 6.70624C13.0968 6.31562 13.0968 5.68124 12.7062 5.29062C12.3156 4.89999 11.6812 4.89999 11.2906 5.29062L5.29058 11.2906L5.2937 11.2937ZM17.2937 5.29374L11.2937 11.2937C10.9031 11.6844 10.9031 12.3187 11.2937 12.7094L17.2937 18.7094C17.6843 19.1 18.3187 19.1 18.7093 18.7094C19.1 18.3187 19.1 17.6844 18.7093 17.2937L13.4156 12L18.7062 6.70624C19.0968 6.31562 19.0968 5.68124 18.7062 5.29062C18.3156 4.89999 17.6812 4.89999 17.2906 5.29062L17.2937 5.29374Z" fill="black"/>
</svg>
