<svg width="24" height="24" viewBox="0 0 24 24" fill="none" xmlns="http://www.w3.org/2000/svg">
<path d="M20.5 6.01246C17.5875 6.17183 15.0438 7.71871 13.5156 9.99996H13.5C12.8844 9.99996 12.3031 10.1593 11.8 10.4406C11.6281 10.2531 11.4406 10.0843 11.2375 9.92808C12.9969 6.54371 16.4656 4.19058 20.5 4.01246C20.775 3.99996 21 4.22496 21 4.49996V5.49996C21 5.77496 20.775 5.99996 20.5 6.01246ZM16.25 11.3343C15.8344 10.8062 15.2656 10.4 14.6156 10.1812C15.9813 8.37183 18.0969 7.16246 20.5 7.01558C20.775 6.99996 21 7.22496 21 7.49996V8.49996C21 8.77496 20.775 8.99683 20.5 9.02183C18.7719 9.16558 17.25 10.0406 16.25 11.3343ZM16.9812 13.1218C16.95 12.8375 16.8875 12.5625 16.7906 12.3031C17.5937 11.05 18.9437 10.1812 20.5031 10.025C20.7781 9.99684 21.0031 10.225 21.0031 10.5V11.5C21.0031 11.775 20.7781 11.9968 20.5063 12.0406C19.525 12.2031 18.7031 12.8468 18.2906 13.7187C17.9 13.4468 17.4594 13.2406 16.9844 13.1218H16.9812ZM6 20C4.34375 20 3 18.6562 3 17C3 15.6718 3.8625 14.5437 5.05938 14.15C5.02188 13.9406 5 13.7218 5 13.5C5 11.5656 6.56562 9.99996 8.5 9.99996C9.84687 9.99996 11.0156 10.7593 11.6 11.875C12.0594 11.3406 12.7406 11 13.5 11C14.8813 11 16 12.1187 16 13.5C16 13.6718 15.9812 13.8375 15.95 14C15.9656 14 15.9844 14 16 14C17.6562 14 19 15.3437 19 17C19 18.6562 17.6562 20 16 20H6Z" fill="black"/>
</svg>
