<svg width="24" height="24" viewBox="0 0 24 24" fill="none" xmlns="http://www.w3.org/2000/svg">
<path d="M11 4.75005L11.4406 4.14067C11.225 3.98442 10.9437 3.9563 10.7 4.06255C10.4563 4.1688 10.2875 4.39692 10.2563 4.65942V4.66567L10.2531 4.6938C10.25 4.72192 10.2437 4.76255 10.2344 4.8188C10.2156 4.9313 10.1875 5.10005 10.1438 5.31255C10.0563 5.74067 9.90625 6.35317 9.66563 7.07192C9.22813 8.38442 8.49687 10.0313 7.29688 11.5625C6.75938 11.2969 5.95312 11 5 11C5 11 2 11 2 14.5C2 19 6.5 20 8 20C9.5 20 14 19.5 14 14.5C14 11 11 11 11 11C10.3594 11 9.78438 11.1344 9.3125 11.3032C10.1594 9.97192 10.7188 8.6438 11.0844 7.54692C11.2625 7.01567 11.3938 6.53755 11.4906 6.13755C11.8563 6.47505 12.2969 6.90942 12.7437 7.42505C13.6687 8.49692 14.5906 9.87505 15.0281 11.4407C14.6531 11.275 14.1844 11.1188 13.6469 11.0438C14.4156 11.7407 15 12.8407 15 14.5C15 16.7469 14.1844 18.2782 13.0594 19.2782C14.2 19.8219 15.3656 20 16 20C17.5 20 22 19.5 22 14.5C22 11 19 11 19 11C17.9906 11 17.15 11.3313 16.6156 11.6125C16.1719 9.50005 14.975 7.71567 13.8813 6.44692C13.2594 5.72817 12.6562 5.1563 12.2063 4.76255C11.9812 4.56567 11.7937 4.41255 11.6594 4.30942C11.5938 4.2563 11.5406 4.21567 11.5031 4.18755C11.4844 4.17505 11.4688 4.16255 11.4594 4.1563L11.4469 4.14692L11.4438 4.1438C11.4438 4.1438 11.4438 4.1438 11.0031 4.75005H11Z" fill="black"/>
</svg>
