<svg width="24" height="24" viewBox="0 0 24 24" fill="none" xmlns="http://www.w3.org/2000/svg">
<path d="M11.1938 4.0375C11.3531 4.10313 11.4656 4.24688 11.4938 4.41563L11.8188 6.36563C11.0906 6.70313 10.4781 7.25313 10.0688 7.9375C9.6125 7.65625 9.075 7.49688 8.5 7.49688C6.84375 7.49688 5.5 8.84063 5.5 10.4969C5.5 11.6063 6.10313 12.5781 7 13.0969C7.025 14.0906 7.4125 14.9938 8.03438 15.6813L6.28438 16.9063C6.14375 17.0063 5.9625 17.025 5.80313 16.9563C5.64375 16.8875 5.53125 16.7469 5.50313 16.5781L5.06563 13.9344L2.41875 13.4938C2.25 13.4656 2.10625 13.3531 2.04063 13.1938C1.975 13.0344 1.99375 12.8531 2.09063 12.7125L3.64063 10.5L2.09063 8.2875C1.99063 8.14688 1.97188 7.96563 2.04063 7.80625C2.10938 7.64688 2.25 7.53438 2.41875 7.50625L5.06563 7.06563L5.50625 4.41875C5.53438 4.25 5.64688 4.10625 5.80625 4.04063C5.96563 3.975 6.14688 3.99375 6.2875 4.09063L8.5 5.64063L10.7125 4.09063C10.8531 3.99063 11.0344 3.97188 11.1938 4.04063V4.0375ZM8.5 8.5C8.93125 8.5 9.33438 8.6375 9.65938 8.87188C9.62188 9 9.59063 9.13125 9.56563 9.26563C8.38125 9.72188 7.46563 10.7219 7.13438 11.9656C6.74375 11.5969 6.5 11.0781 6.5 10.5C6.5 9.39688 7.39688 8.5 8.5 8.5ZM10.6688 17.125C11.0125 17.3563 11.1063 17.8219 10.8781 18.1656L9.87813 19.6656C9.64688 20.0094 9.18125 20.1031 8.8375 19.875C8.49375 19.6469 8.4 19.1781 8.62813 18.8344L9.62813 17.3344C9.85938 16.9906 10.325 16.8969 10.6688 17.125ZM13.6688 17.125C14.0125 17.3563 14.1063 17.8219 13.8781 18.1656L12.8781 19.6656C12.6469 20.0094 12.1813 20.1031 11.8375 19.875C11.4938 19.6469 11.4 19.1781 11.6281 18.8344L12.6281 17.3344C12.8594 16.9906 13.325 16.8969 13.6688 17.125ZM16.6688 17.125C17.0125 17.3563 17.1063 17.8219 16.8781 18.1656L15.8781 19.6656C15.6469 20.0094 15.1813 20.1031 14.8375 19.875C14.4938 19.6469 14.4 19.1781 14.6281 18.8344L15.6281 17.3344C15.8594 16.9906 16.325 16.8969 16.6688 17.125ZM19.6688 17.125C20.0125 17.3563 20.1062 17.8219 19.8781 18.1656L18.8781 19.6656C18.6469 20.0094 18.1813 20.1031 17.8375 19.875C17.4938 19.6469 17.4 19.1781 17.6281 18.8344L18.6281 17.3344C18.8594 16.9906 19.325 16.8969 19.6688 17.125ZM21.9969 13.4969C21.9969 14.8781 20.8781 15.9969 19.4969 15.9969H11C9.34375 15.9969 8 14.6531 8 12.9969C8 11.5094 9.08125 10.2781 10.5 10.0406V10C10.5 8.34375 11.8438 7 13.5 7C14.5906 7 15.5438 7.58125 16.0688 8.45C16.475 8.16563 16.9688 8 17.5 8C18.8813 8 20 9.11875 20 10.5C20 10.6844 19.9812 10.8656 19.9406 11.0375C21.1094 11.2469 21.9969 12.2688 21.9969 13.4969Z" fill="black"/>
</svg>
