<svg width="24" height="24" viewBox="0 0 24 24" fill="none" xmlns="http://www.w3.org/2000/svg">
<path d="M12.7218 5.37225L12.1906 4.80663C12.1343 4.74725 12.0781 4.68163 12.0218 4.616C11.7687 4.32538 11.4968 4.00975 11.1 4.00038C10.8968 3.99413 10.6906 4.066 10.5281 4.21288C9.86872 4.81288 9.12185 5.60038 8.53435 6.491C7.94997 7.37538 7.49997 8.39725 7.49997 9.45975C7.49997 11.9754 9.48122 14.0004 12 14.0004C14.4937 14.0004 16.5 11.9785 16.5 9.45975C16.5 8.60663 16.1906 7.7285 15.7625 6.95663C15.3343 6.1785 14.7718 5.46913 14.2156 4.95038C14.0593 4.8035 13.8562 4.7285 13.6562 4.7285C13.4437 4.7285 13.2187 4.80663 13.0687 4.98163L12.725 5.37225H12.7218ZM13.8625 10.8223C13.8625 11.8254 13.05 12.641 12.0437 12.641C11.0375 12.641 10.225 11.8285 10.225 10.8223C10.225 9.78475 11.2781 8.74725 11.7812 8.30975C11.9343 8.1785 12.1531 8.1785 12.3062 8.30975C12.8093 8.74725 13.8625 9.78475 13.8625 10.8223ZM5.33747 13.0597C4.81872 12.8754 4.24372 13.1441 4.05935 13.666C3.87497 14.1879 4.14372 14.7598 4.6656 14.9441L9.0281 16.5004L4.66247 18.0597C4.14372 18.2441 3.87185 18.816 4.05935 19.3379C4.24685 19.8597 4.81872 20.1285 5.33747 19.9441L12 17.5629L18.6625 19.9441C19.1812 20.1285 19.7562 19.8597 19.9406 19.3379C20.125 18.816 19.8562 18.2441 19.3343 18.0597L14.9718 16.5004L19.3343 14.941C19.8531 14.7566 20.125 14.1816 19.9406 13.6629C19.7562 13.1441 19.1812 12.8722 18.6625 13.0566L12 15.4379L5.33747 13.0597Z" fill="black"/>
</svg>
