<svg width="24" height="24" viewBox="0 0 24 24" fill="none" xmlns="http://www.w3.org/2000/svg">
<path d="M17.4937 4C17.6656 4 17.8344 4.00625 18.0031 4.02187C18.2219 4.04063 18.4031 4.2 18.45 4.4125C18.4969 4.625 18.4 4.84687 18.2094 4.95312C16.8219 5.74063 15.8844 7.23438 15.8844 8.94688C15.8844 11.4781 17.9313 13.5281 20.4531 13.5281C20.7219 13.5281 20.9844 13.5062 21.2375 13.4625C21.4531 13.425 21.6687 13.5312 21.7687 13.7281C21.8687 13.925 21.8281 14.1594 21.6719 14.3125C20.5938 15.3625 19.1187 16.0125 17.4969 16.0125C17.2062 16.0125 16.9219 15.9906 16.6406 15.9531C16.2906 15.2469 15.7094 14.675 14.9969 14.3375C14.9125 12.5094 13.425 11.0469 11.5844 11.0031C11.5313 10.6781 11.5031 10.3469 11.5031 10.0094C11.5 6.69063 14.1812 4 17.4937 4ZM15.9969 17.4969C15.9969 18.8781 14.8781 19.9969 13.4969 19.9969H5C3.34375 19.9969 2 18.6531 2 16.9969C2 15.5094 3.08125 14.2781 4.5 14.0406V14C4.5 12.3438 5.84375 11 7.5 11C8.59063 11 9.54375 11.5812 10.0688 12.45C10.475 12.1656 10.9688 12 11.5 12C12.8813 12 14 13.1187 14 14.5C14 14.6844 13.9813 14.8656 13.9406 15.0375C15.1094 15.2469 15.9969 16.2687 15.9969 17.4969Z" fill="black"/>
</svg>
