<svg width="24" height="24" viewBox="0 0 24 24" fill="none" xmlns="http://www.w3.org/2000/svg">
<path d="M8.50002 8C9.03045 8 9.53916 7.78929 9.91423 7.41421C10.2893 7.03914 10.5 6.53043 10.5 6C10.5 5.46957 10.2893 4.96086 9.91423 4.58579C9.53916 4.21071 9.03045 4 8.50002 4C7.96959 4 7.46088 4.21071 7.08581 4.58579C6.71073 4.96086 6.50002 5.46957 6.50002 6C6.50002 6.53043 6.71073 7.03914 7.08581 7.41421C7.46088 7.78929 7.96959 8 8.50002 8ZM8.25002 19V15H8.75002V19C8.75002 19.5531 9.1969 20 9.75002 20C10.3031 20 10.75 19.5531 10.75 19V13.3906L11.1531 14.0312C11.4469 14.5 12.0656 14.6375 12.5313 14.3438C12.9969 14.05 13.1375 13.4312 12.8438 12.9656L11.2281 10.4C10.6781 9.52813 9.71877 8.99687 8.69065 8.99687H8.30627C7.27502 8.99687 6.31565 9.525 5.76877 10.4L4.15315 12.9688C3.8594 13.4375 4.00002 14.0531 4.46565 14.3469C4.93127 14.6406 5.55002 14.5 5.84377 14.0344L6.25002 13.3906V19C6.25002 19.5531 6.6969 20 7.25002 20C7.80315 20 8.25002 19.5531 8.25002 19ZM17 4H16.5H16C15.725 4 15.5 4.225 15.5 4.5C15.5 4.775 15.725 5 16 5V8.13438C15.7 8.30625 15.5 8.63125 15.5 9V10C14.9469 10 14.5 10.4469 14.5 11V15.5C14.5 16.0531 14.9469 16.5 15.5 16.5H16V19.5C16 19.775 16.225 20 16.5 20H18.3594C18.6844 20 18.9219 19.6938 18.8438 19.3781L18.125 16.5H19.5C19.775 16.5 20 16.275 20 16V15.5C20 15.225 19.775 15 19.5 15H18V14.1656L19.6594 13.6125C19.8625 13.5437 20 13.3531 20 13.1375V10.5C20 10.225 19.775 10 19.5 10H19C18.725 10 18.5 10.225 18.5 10.5V12.25L18 12.4156V9C18 8.63125 17.8 8.30625 17.5 8.13438V4.5C17.5 4.225 17.275 4 17 4Z" fill="black"/>
</svg>
