<svg width="24" height="24" viewBox="0 0 24 24" fill="none" xmlns="http://www.w3.org/2000/svg">
<path d="M6 5V6H4.5C3.67188 6 3 6.67188 3 7.5V9H17V7.5C17 6.67188 16.3281 6 15.5 6H14V5C14 4.44687 13.5531 4 13 4C12.4469 4 12 4.44687 12 5V6H8V5C8 4.44687 7.55312 4 7 4C6.44688 4 6 4.44687 6 5ZM17 10H16.5H3V18.5C3 19.3281 3.67188 20 4.5 20H13.3375C11.925 19.0031 11 17.3594 11 15.5C11 12.4625 13.4625 10 16.5 10C16.6687 10 16.8344 10.0062 17 10.0219V10ZM21 15.5C21 14.3065 20.5259 13.1619 19.682 12.318C18.8381 11.4741 17.6935 11 16.5 11C15.3065 11 14.1619 11.4741 13.318 12.318C12.4741 13.1619 12 14.3065 12 15.5C12 16.6935 12.4741 17.8381 13.318 18.682C14.1619 19.5259 15.3065 20 16.5 20C17.6935 20 18.8381 19.5259 19.682 18.682C20.5259 17.8381 21 16.6935 21 15.5ZM16.5 13C16.775 13 17 13.225 17 13.5V15H18C18.275 15 18.5 15.225 18.5 15.5C18.5 15.775 18.275 16 18 16H16.5C16.225 16 16 15.775 16 15.5V13.5C16 13.225 16.225 13 16.5 13Z" fill="black"/>
</svg>
