<svg width="24" height="24" viewBox="0 0 24 24" fill="none" xmlns="http://www.w3.org/2000/svg">
<path d="M12 14.5C12.663 14.5 13.2989 14.2366 13.7678 13.7678C14.2366 13.2989 14.5 12.663 14.5 12C14.5 11.337 14.2366 10.7011 13.7678 10.2322C13.2989 9.76339 12.663 9.5 12 9.5C11.337 9.5 10.7011 9.76339 10.2322 10.2322C9.76339 10.7011 9.5 11.337 9.5 12C9.5 12.663 9.76339 13.2989 10.2322 13.7678C10.7011 14.2366 11.337 14.5 12 14.5ZM16.9 13C16.4375 15.2812 14.4188 17 12 17C9.58125 17 7.5625 15.2812 7.1 13H3C2.44687 13 2 12.5531 2 12C2 11.4469 2.44687 11 3 11H7.1C7.5625 8.71875 9.58125 7 12 7C14.4188 7 16.4375 8.71875 16.9 11H21C21.5531 11 22 11.4469 22 12C22 12.5531 21.5531 13 21 13H16.9Z" fill="black"/>
</svg>
