<svg width="24" height="24" viewBox="0 0 24 24" fill="none" xmlns="http://www.w3.org/2000/svg">
<path d="M13.3562 6.3625L19.4281 4.02812C19.475 4.00937 19.5281 4 19.5781 4C19.8125 4 20 4.1875 20 4.42188C20 4.475 19.9906 4.525 19.9719 4.57187L17.6375 10.6438L18.5531 10.5719C18.9531 10.5406 19.225 10.9719 19.025 11.3219L15.8313 16.8344C14.6969 18.7938 12.6062 20 10.3438 20C6.84063 20 4 17.1594 4 13.6562C4 11.3938 5.20625 9.3 7.16563 8.16563L12.6781 4.975C13.025 4.77188 13.4594 5.04375 13.4281 5.44687L13.3562 6.3625ZM10 10.25C9.80937 10.25 9.63438 10.3594 9.55312 10.5281L8.64062 12.3781L6.6 12.675C6.4125 12.7031 6.25625 12.8344 6.19688 13.0156C6.1375 13.1969 6.1875 13.3969 6.32188 13.5281L7.79688 14.9656L7.44688 16.9969C7.41563 17.1844 7.49062 17.375 7.64687 17.4875C7.80312 17.6 8.00625 17.6156 8.17188 17.525L10 16.5656L11.825 17.525C11.9937 17.6125 12.1969 17.6 12.35 17.4875C12.5031 17.375 12.5813 17.1875 12.55 16.9969L12.2 14.9656L13.675 13.5281C13.8125 13.3938 13.8594 13.1969 13.8 13.0156C13.7406 12.8344 13.5844 12.7031 13.3969 12.675L11.3562 12.3781L10.4437 10.5281C10.3594 10.3562 10.1844 10.25 9.99687 10.25H10Z" fill="black"/>
</svg>
