<svg width="24" height="24" viewBox="0 0 24 24" fill="none" xmlns="http://www.w3.org/2000/svg">
<path d="M3.21243 4.15937C2.88743 3.90312 2.41556 3.96249 2.15931 4.28749C1.90306 4.61249 1.96243 5.08437 2.28743 5.34062L20.7874 19.8406C21.1124 20.0969 21.5843 20.0375 21.8406 19.7125C22.0968 19.3875 22.0374 18.9156 21.7124 18.6594L18.7312 16.3219C19.5343 15.0781 19.9999 13.5937 19.9999 12C19.9999 7.58124 16.4187 3.99999 11.9999 3.99999C9.71243 3.99999 7.65306 4.95937 6.19368 6.49687L3.21243 4.15937ZM10.4468 9.82812L14.9249 8.10624C15.5312 7.87187 16.1281 8.46874 15.8937 9.07499L14.4093 12.9344L10.4468 9.82812ZM16.6281 18.525L11.9062 14.8062L9.07493 15.8937C8.46868 16.1281 7.87181 15.5312 8.10618 14.925L9.02493 12.5344L4.57181 9.02499C4.20306 9.94374 3.99993 10.95 3.99993 12C3.99993 16.4187 7.58118 20 11.9999 20C13.7249 20 15.3218 19.4531 16.6281 18.525Z" fill="black"/>
</svg>
