<svg width="24" height="24" viewBox="0 0 24 24" fill="none" xmlns="http://www.w3.org/2000/svg">
<path d="M12 4C9.87827 4 7.84344 4.84285 6.34315 6.34315C4.84285 7.84344 4 9.87827 4 12C4 14.1217 4.84285 16.1566 6.34315 17.6569C7.84344 19.1571 9.87827 20 12 20C14.1217 20 16.1566 19.1571 17.6569 17.6569C19.1571 16.1566 20 14.1217 20 12C20 9.87827 19.1571 7.84344 17.6569 6.34315C16.1566 4.84285 14.1217 4 12 4ZM11.25 16.25V12C11.25 11.75 11.375 11.5156 11.5844 11.375L14.5844 9.375C14.9281 9.14375 15.3938 9.2375 15.625 9.58437C15.8562 9.93125 15.7625 10.3938 15.4156 10.625L12.75 12.4V16.25C12.75 16.6656 12.4156 17 12 17C11.5844 17 11.25 16.6656 11.25 16.25Z" fill="black"/>
</svg>
