<svg width="24" height="24" viewBox="0 0 24 24" fill="none" xmlns="http://www.w3.org/2000/svg">
<path d="M8.00013 3.99922C5.87513 3.99922 4.13763 5.65547 4.00638 7.74922C4.00638 7.75547 4.00638 7.75859 4.00638 7.76484L4.00013 7.99922H4.247H4.25013H4.00013V9.03984C4.00013 9.91797 4.5095 10.7148 5.30638 11.0836L7.09075 11.9055C6.97513 12.093 6.87513 12.293 6.79075 12.4992H5.61888L4.72513 12.0523C4.47825 11.9273 4.17825 12.0305 4.05325 12.2773C3.92825 12.5242 4.03138 12.8242 4.27825 12.9492L5.27825 13.4492C5.347 13.4836 5.42513 13.5023 5.50325 13.5023H6.53138C6.5095 13.6648 6.50013 13.8336 6.50013 14.0023V14.3086L5.84075 14.5273C5.76575 14.5523 5.70013 14.593 5.64388 14.6492L4.64388 15.6492C4.45013 15.843 4.45013 16.1617 4.64388 16.3555C4.83763 16.5492 5.15638 16.5492 5.35013 16.3555L6.26888 15.4367L7.14388 15.1461L8.10325 16.1055L6.84075 16.5242C6.76575 16.5492 6.70013 16.5898 6.64388 16.6461L5.64388 17.6461C5.45013 17.8398 5.45013 18.1586 5.64388 18.3523C5.83763 18.5461 6.15638 18.5461 6.35013 18.3523L7.26888 17.4367L8.89388 16.8961L9.3845 17.3867L8.24075 18.0711C8.09075 18.1617 7.997 18.3242 7.997 18.4992V19.4992C7.997 19.7742 8.222 19.9992 8.497 19.9992C8.772 19.9992 8.997 19.7742 8.997 19.4992V18.7836L10.3064 17.9992H13.6939L15.0001 18.7836V19.4992C15.0001 19.7742 15.2251 19.9992 15.5001 19.9992C15.7751 19.9992 16.0001 19.7742 16.0001 19.4992V18.4992C16.0001 18.3242 15.9064 18.1617 15.7564 18.0711L14.6126 17.3867L15.1033 16.8961L16.7283 17.4367L17.6439 18.3523C17.8376 18.5461 18.1564 18.5461 18.3501 18.3523C18.5439 18.1586 18.5439 17.8398 18.3501 17.6461L17.3501 16.6461C17.2939 16.5898 17.2283 16.5492 17.1533 16.5242L15.8908 16.1023L16.8501 15.143L17.7251 15.4336L18.6408 16.3492C18.8345 16.543 19.1533 16.543 19.347 16.3492C19.5408 16.1555 19.5408 15.8367 19.347 15.643L18.347 14.643C18.2908 14.5867 18.2251 14.5461 18.1501 14.5211L17.4908 14.3023V13.9992C17.4908 13.8305 17.4814 13.6617 17.4595 13.4992H18.4908C18.5689 13.4992 18.6439 13.4805 18.7158 13.4461L19.7158 12.9461C19.9626 12.8211 20.0626 12.5211 19.9408 12.2742C19.8189 12.0273 19.5158 11.9273 19.2689 12.0492L18.3814 12.4992H17.2095C17.1251 12.293 17.0251 12.093 16.9095 11.9055L18.6939 11.0836C19.4908 10.7148 20.0001 9.91797 20.0001 9.03984V7.99922H19.7501H19.7533H20.0001L19.9939 7.76484C19.9939 7.76172 19.9939 7.75547 19.9939 7.75234C19.8626 5.65547 18.1251 3.99922 16.0001 3.99922H14.6033C14.3814 3.99922 14.2689 4.26797 14.4251 4.42734L15.572 5.57422C15.7283 5.73047 15.6189 6.00234 15.3939 6.00234H14.2501C14.1126 6.00234 13.997 6.11484 14.0158 6.25234C14.1376 7.23984 14.9814 8.00234 16.0001 8.00234H18.5001V9.04297C18.5001 9.33672 18.3314 9.60234 18.0658 9.72422L15.8345 10.7492C15.3064 10.368 14.6783 10.1148 14.0001 10.0305V8.49922C14.0001 8.22422 13.7751 7.99922 13.5001 7.99922C13.2251 7.99922 13.0001 8.22422 13.0001 8.49922V9.99922H11.0001V8.49922C11.0001 8.22422 10.7751 7.99922 10.5001 7.99922C10.2251 7.99922 10.0001 8.22422 10.0001 8.49922V10.0305C9.322 10.1148 8.697 10.3711 8.16575 10.7492L5.9345 9.72109C5.66888 9.59922 5.50013 9.33047 5.50013 9.03984V7.99922H8.00013C9.01888 7.99922 9.86263 7.23672 9.9845 6.24922C10.0001 6.11172 9.88763 5.99922 9.75013 5.99922H8.60325C8.38138 5.99922 8.26888 5.73047 8.42513 5.57109L9.572 4.42422C9.72825 4.26797 9.61888 3.99609 9.39388 3.99609H8.00013V3.99922Z" fill="black"/>
</svg>
