<svg width="24" height="24" viewBox="0 0 24 24" fill="none" xmlns="http://www.w3.org/2000/svg">
<path d="M11.25 5C10.8344 5 10.5 5.33437 10.5 5.75C10.5 6.13125 10.7844 6.44688 11.1531 6.49375C10.4875 7.12813 9.5 8.34375 9.5 10C9.5 10.8219 9.925 11.2656 10.3219 11.5H10.25C9.83438 11.5 9.5 11.8344 9.5 12.25C9.5 12.6656 9.83438 13 10.25 13H10.4281L10 16H14L13.5719 13H13.75C14.1656 13 14.5 12.6656 14.5 12.25C14.5 11.8344 14.1656 11.5 13.75 11.5H13.6781C14.075 11.2656 14.5 10.8219 14.5 10C14.5 9.29688 14.3219 8.675 14.0656 8.14062L12.8531 9.35313C12.6594 9.54688 12.3406 9.54688 12.1469 9.35313C11.9531 9.15938 11.9531 8.84062 12.1469 8.64687L13.5312 7.2625C13.3 6.95 13.0563 6.69375 12.8469 6.49375C13.2156 6.44688 13.5 6.13125 13.5 5.75C13.5 5.33437 13.1656 5 12.75 5H11.25ZM9.5 17L8.15 18.8C8.05313 18.9313 8 19.0875 8 19.25C8 19.6656 8.33437 20 8.75 20H15.25C15.6656 20 16 19.6656 16 19.25C16 19.0875 15.9469 18.9313 15.85 18.8L14.5 17H9.5Z" fill="black"/>
</svg>
