<svg width="24" height="24" viewBox="0 0 24 24" fill="none" xmlns="http://www.w3.org/2000/svg">
<path d="M12 20C14.1217 20 16.1566 19.1571 17.6569 17.6569C19.1571 16.1566 20 14.1217 20 12C20 9.87827 19.1571 7.84344 17.6569 6.34315C16.1566 4.84285 14.1217 4 12 4C9.87827 4 7.84344 4.84285 6.34315 6.34315C4.84285 7.84344 4 9.87827 4 12C4 14.1217 4.84285 16.1566 6.34315 17.6569C7.84344 19.1571 9.87827 20 12 20ZM16.0312 11.2188C16.325 11.5125 16.325 11.9875 16.0312 12.2781C15.7375 12.5687 15.2625 12.5719 14.9719 12.2781L12.7531 10.0594V15.75C12.7531 16.1656 12.4187 16.5 12.0031 16.5C11.5875 16.5 11.2531 16.1656 11.2531 15.75V10.0594L9.03438 12.2781C8.74063 12.5719 8.26562 12.5719 7.975 12.2781C7.68437 11.9844 7.68125 11.5094 7.975 11.2188L11.4688 7.71875C11.7625 7.425 12.2375 7.425 12.5281 7.71875L16.0312 11.2188Z" fill="black"/>
</svg>
