<svg width="24" height="24" viewBox="0 0 24 24" fill="none" xmlns="http://www.w3.org/2000/svg">
<path d="M8.41251 8.41251C7.04688 9.77813 6.13126 11.2813 5.73126 12.5781C5.31876 13.9125 5.50001 14.825 5.96563 15.2875C6.43126 15.75 7.34063 15.9313 8.67501 15.5219C9.97188 15.1219 11.475 14.2063 12.8406 12.8406C14.2063 11.475 15.1219 9.97188 15.5219 8.67501C15.9344 7.34063 15.7531 6.42813 15.2875 5.96563C14.8219 5.50313 13.9125 5.32188 12.5781 5.73126C11.2813 6.12813 9.77813 7.04688 8.41251 8.41251ZM12.1375 4.29688C13.675 3.82188 15.2969 3.85001 16.35 4.90001L17.6281 6.17813C19.1469 7.70001 20 9.75938 20 11.9031C20 16.375 16.375 20 11.9063 20C9.75938 20 7.70001 19.1469 6.18126 17.6281L4.90001 16.3469C3.85001 15.2969 3.82188 13.675 4.29688 12.1344C4.78438 10.5594 5.85001 8.85313 7.35313 7.35001C8.85626 5.84688 10.5625 4.78126 12.1375 4.29688ZM14.1219 7.05001C14.9031 7.83126 13.9531 10.0469 12 12C10.0469 13.9531 7.83126 14.9031 7.05001 14.1219C6.26876 13.3406 7.21876 11.125 9.17188 9.17188C11.125 7.21876 13.3406 6.26876 14.1219 7.05001ZM17.1031 10.3969C16.9094 10.2031 16.5906 10.2031 16.3969 10.3969C16.2031 10.5906 16.2031 10.9094 16.3969 11.1031L17.3969 12.1031C17.5906 12.2969 17.9094 12.2969 18.1031 12.1031C18.2969 11.9094 18.2969 11.5906 18.1031 11.3969L17.1031 10.3969ZM15.3531 14.6469C15.1594 14.4531 14.8406 14.4531 14.6469 14.6469C14.4531 14.8406 14.4531 15.1594 14.6469 15.3531L15.6469 16.3531C15.8406 16.5469 16.1594 16.5469 16.3531 16.3531C16.5469 16.1594 16.5469 15.8406 16.3531 15.6469L15.3531 14.6469ZM11.1031 16.3969C10.9094 16.2031 10.5906 16.2031 10.3969 16.3969C10.2031 16.5906 10.2031 16.9094 10.3969 17.1031L11.3969 18.1031C11.5906 18.2969 11.9094 18.2969 12.1031 18.1031C12.2969 17.9094 12.2969 17.5906 12.1031 17.3969L11.1031 16.3969Z" fill="black"/>
</svg>
