<svg width="24" height="24" viewBox="0 0 24 24" fill="none" xmlns="http://www.w3.org/2000/svg">
<path d="M5 8.5C5 7.67188 5.67188 7 6.5 7C7.32812 7 8 7.67188 8 8.5V12H5V8.5ZM3 8.5V15.5C3 17.4344 4.56562 19 6.5 19C8.43437 19 10 17.4344 10 15.5V9.925C10.0563 10.5219 10.2562 11.1125 10.6188 11.6375L14.6344 17.4906C15.7437 19.1063 17.925 19.5 19.5094 18.3687C21.0938 17.2375 21.4781 15.0094 20.3687 13.3938L16.3531 7.54063C15.2437 5.92188 13.0594 5.53125 11.4781 6.6625C10.6031 7.2875 10.0938 8.25 10 9.25625V8.5C10 6.56562 8.43437 5 6.5 5C4.56562 5 3 6.56562 3 8.5ZM12.2688 10.5062C11.7688 9.77812 11.9563 8.77812 12.6406 8.2875C13.3031 7.81562 14.2188 7.96562 14.7031 8.66875L16.7969 11.7188L14.3 13.4688L12.2688 10.5062ZM18.3438 16.7406C18.3188 16.7594 18.2937 16.775 18.2688 16.7906L18.3938 16.7031C18.3781 16.7156 18.3625 16.7281 18.3438 16.7406Z" fill="black"/>
</svg>
