<svg width="24" height="24" viewBox="0 0 24 24" fill="none" xmlns="http://www.w3.org/2000/svg">
<path d="M12 20C14.1217 20 16.1566 19.1571 17.6569 17.6569C19.1571 16.1566 20 14.1217 20 12C20 9.87827 19.1571 7.84344 17.6569 6.34315C16.1566 4.84285 14.1217 4 12 4C9.87827 4 7.84344 4.84285 6.34315 6.34315C4.84285 7.84344 4 9.87827 4 12C4 14.1217 4.84285 16.1566 6.34315 17.6569C7.84344 19.1571 9.87827 20 12 20ZM8.75 8.5H12H15.25C15.6656 8.5 16 8.83437 16 9.25C16 9.66563 15.6656 10 15.25 10H12.75V15.25C12.75 15.6656 12.4156 16 12 16C11.5844 16 11.25 15.6656 11.25 15.25V10H8.75C8.33437 10 8 9.66563 8 9.25C8 8.83437 8.33437 8.5 8.75 8.5Z" fill="black"/>
</svg>
