<svg width="24" height="24" viewBox="0 0 24 24" fill="none" xmlns="http://www.w3.org/2000/svg">
<path d="M11.1935 4.03778C11.3529 4.1034 11.4654 4.24715 11.4935 4.4159L11.8185 6.3659C11.0904 6.7034 10.4779 7.2534 10.0685 7.93778C9.61229 7.65653 9.07479 7.49715 8.49979 7.49715C6.84354 7.49715 5.49979 8.8409 5.49979 10.4972C5.49979 11.6065 6.10291 12.5784 6.99979 13.0972C7.02479 14.0909 7.41229 14.994 8.03416 15.6815L6.28416 16.9065C6.14354 17.0034 5.96229 17.0253 5.80291 16.9565C5.64354 16.8878 5.53104 16.7472 5.50291 16.5784L5.06541 13.9347L2.41854 13.494C2.24979 13.4659 2.10604 13.3534 2.04041 13.194C1.97479 13.0347 1.99354 12.8534 2.09041 12.7128L3.64041 10.5003L2.09041 8.28778C1.99041 8.14715 1.97166 7.9659 2.04041 7.80653C2.10916 7.64715 2.24979 7.53465 2.41854 7.50653L5.06541 7.0659L5.50604 4.41903C5.53416 4.25028 5.64666 4.10653 5.80604 4.0409C5.96541 3.97528 6.14666 3.99403 6.28729 4.0909L8.49979 5.6409L10.7123 4.0909C10.8529 3.9909 11.0342 3.97215 11.1935 4.0409V4.03778ZM8.49979 8.50028C8.93104 8.50028 9.33416 8.63778 9.65916 8.87215C9.62166 9.00028 9.59041 9.13153 9.56541 9.2659C8.38104 9.72215 7.46541 10.7222 7.13416 11.9659C6.74354 11.5972 6.49979 11.0784 6.49979 10.5003C6.49979 9.39715 7.39666 8.50028 8.49979 8.50028ZM21.9967 13.4972C21.9967 14.8784 20.8779 15.9972 19.4967 15.9972H18.9154C19.0248 15.6815 19.031 15.3315 18.9154 15.0034C18.7029 14.4034 18.1373 14.0003 17.4998 14.0003H16.9279L17.8435 12.1722C18.1592 11.5409 17.9935 10.7784 17.4435 10.3347C16.8935 9.8909 16.1123 9.8909 15.5623 10.3284L10.5623 14.3284C10.1092 14.6909 9.90916 15.2815 10.0373 15.8409C8.85291 15.4409 7.99979 14.319 7.99979 13.0003C7.99979 11.5128 9.08104 10.2815 10.4998 10.044V10.0034C10.4998 8.34715 11.8435 7.0034 13.4998 7.0034C14.5904 7.0034 15.5435 7.58465 16.0685 8.4534C16.4748 8.16903 16.9685 8.0034 17.4998 8.0034C18.881 8.0034 19.9998 9.12215 19.9998 10.5034C19.9998 10.6878 19.981 10.869 19.9404 11.0409C21.1092 11.2503 21.9967 12.2722 21.9967 13.5003V13.4972ZM16.8154 11.1128C16.9967 11.2597 17.0529 11.5159 16.9498 11.7253L15.3092 15.0003H17.4998C17.7123 15.0003 17.8998 15.1347 17.9717 15.3347C18.0435 15.5347 17.9779 15.7565 17.8123 15.8909L12.8123 19.8909C12.6279 20.0378 12.3685 20.0378 12.1842 19.8878C11.9998 19.7378 11.9467 19.4847 12.0498 19.2753L13.6904 16.0003H11.4998C11.2873 16.0003 11.0998 15.8659 11.0279 15.6659C10.956 15.4659 11.0217 15.244 11.1873 15.1097L16.1873 11.1097C16.3717 10.9628 16.631 10.9628 16.8154 11.1128Z" fill="black"/>
</svg>
