<svg width="24" height="24" viewBox="0 0 24 24" fill="none" xmlns="http://www.w3.org/2000/svg">
<path d="M3.21268 4.15943C2.88768 3.90318 2.4158 3.96255 2.15955 4.28755C1.9033 4.61255 1.96268 5.08443 2.28768 5.34068L20.7877 19.8407C21.1127 20.0969 21.5846 20.0376 21.8408 19.7126C22.0971 19.3876 22.0377 18.9157 21.7127 18.6594L18.0283 15.7719C19.2564 14.6313 20.0002 13.1344 20.0002 11.5001C20.0002 7.90943 16.4189 5.00005 12.0002 5.00005C9.88455 5.00005 7.95955 5.6688 6.5283 6.75943L3.21268 4.15943ZM15.2502 17.4407L4.5908 9.04068C4.20955 9.80005 4.00018 10.6313 4.00018 11.5001C4.00018 12.9094 4.5533 14.2126 5.4908 15.2782C5.43143 16.0438 5.13455 16.7251 4.82205 17.2438C4.65018 17.5313 4.47518 17.7626 4.34705 17.9188C4.28143 17.9969 4.23143 18.0563 4.19393 18.0969C4.17518 18.1157 4.16268 18.1313 4.1533 18.1407L4.14393 18.1501C4.00018 18.2938 3.95955 18.5063 4.03768 18.6938C4.1158 18.8813 4.29705 19.0032 4.50018 19.0032C5.39705 19.0032 6.30018 18.7251 7.05018 18.4001C7.7658 18.0876 8.37518 17.7157 8.74705 17.4438C9.7408 17.8032 10.8408 18.0032 12.0002 18.0032C13.1564 18.0032 14.2596 17.8032 15.2533 17.4438L15.2502 17.4407Z" fill="black"/>
</svg>
