<svg width="24" height="24" viewBox="0 0 24 24" fill="none" xmlns="http://www.w3.org/2000/svg">
<path d="M8 5.5L7.58437 5.91562C7.20937 6.29062 7 6.79688 7 7.32812V11.4656C7 11.8 7.16562 12.1125 7.44375 12.2969L7.775 12.5156C8.22188 12.8156 8.79687 12.85 9.27812 12.6094L9.37813 12.5594C9.45938 12.5187 9.53437 12.4719 9.60625 12.4187L11.15 11.2625C11.3563 11.1062 11.6406 11.1062 11.8469 11.2625C12.1656 11.5031 12.1562 11.9844 11.825 12.2094L7.825 14.9375C7.30938 15.2906 7 15.875 7 16.5H17L17.9031 11.5312C17.9687 11.1781 18 10.8187 18 10.4594V10C18 6.6875 15.3125 4 12 4H7.61875C7.27813 4 7 4.27812 7 4.61875C7 4.85312 7.13125 5.06562 7.34063 5.17188L8 5.5ZM8.75 7.625C8.75 7.45924 8.81585 7.30027 8.93306 7.18306C9.05027 7.06585 9.20924 7 9.375 7C9.54076 7 9.69973 7.06585 9.81694 7.18306C9.93415 7.30027 10 7.45924 10 7.625C10 7.79076 9.93415 7.94973 9.81694 8.06694C9.69973 8.18415 9.54076 8.25 9.375 8.25C9.20924 8.25 9.05027 8.18415 8.93306 8.06694C8.81585 7.94973 8.75 7.79076 8.75 7.625ZM5.70625 18.7937C5.575 18.925 5.5 19.1062 5.5 19.2937C5.5 19.6844 5.81562 20 6.20625 20H17.7937C18.1844 20 18.5 19.6844 18.5 19.2937C18.5 19.1062 18.425 18.925 18.2937 18.7937L17 17.5H7L5.70625 18.7937Z" fill="black"/>
</svg>
