<svg width="24" height="24" viewBox="0 0 24 24" fill="none" xmlns="http://www.w3.org/2000/svg">
<path d="M6.53438 7.76914L11.1375 6.53789C11.5344 6.43164 11.9594 6.57852 12.2031 6.91289L13.3844 8.52539L5.58125 10.6129L5.8 8.62539C5.84375 8.21602 6.1375 7.87539 6.53438 7.76914ZM3.8125 8.40977L3.49375 11.3191C2.85625 11.7941 2.5375 12.6254 2.75625 13.441L3.79062 17.3066L3.97812 18.0004H3.5C2.67188 18.0004 2 18.6723 2 19.5004V20.0004H22V19.5004C22 18.6723 21.3281 18.0004 20.5 18.0004H7.08125C7.07813 17.9941 7.07812 17.9848 7.075 17.9785L6.6875 16.5285L15.3813 14.2004L15.7688 15.6504C15.9125 16.1848 16.4594 16.5004 16.9937 16.3566L17.9594 16.0973C18.4938 15.9535 18.8094 15.4066 18.6656 14.8723L18.2812 13.4223L17.2437 9.55977C17.025 8.74414 16.3344 8.18164 15.5437 8.09102L13.8156 5.72852C13.0844 4.73164 11.8156 4.28477 10.6187 4.60352L6.01562 5.83789C4.82187 6.15977 3.94688 7.17852 3.8125 8.40977ZM5.65313 12.666C5.78073 12.6294 5.91436 12.6185 6.04621 12.6341C6.17806 12.6496 6.30549 12.6913 6.42106 12.7566C6.53664 12.8219 6.63806 12.9096 6.71939 13.0146C6.80073 13.1195 6.86036 13.2396 6.8948 13.3678C6.92924 13.496 6.9378 13.6298 6.91999 13.7614C6.90218 13.8929 6.85835 14.0196 6.79106 14.1341C6.72376 14.2485 6.63436 14.3484 6.52805 14.4279C6.42174 14.5075 6.30066 14.565 6.17188 14.5973C6.04427 14.6339 5.91064 14.6447 5.77879 14.6292C5.64694 14.6136 5.51951 14.572 5.40393 14.5067C5.28836 14.4413 5.18694 14.3536 5.10561 14.2487C5.02427 14.1438 4.96464 14.0237 4.9302 13.8955C4.89576 13.7673 4.8872 13.6335 4.90501 13.5019C4.92282 13.3704 4.96665 13.2437 5.03394 13.1292C5.10124 13.0148 5.19064 12.9149 5.29695 12.8353C5.40326 12.7558 5.52434 12.6983 5.65313 12.666ZM13.6406 11.5629C13.604 11.4353 13.5931 11.3017 13.6087 11.1698C13.6243 11.038 13.6659 10.9105 13.7312 10.795C13.7966 10.6794 13.8842 10.578 13.9892 10.4966C14.0941 10.4153 14.2142 10.3557 14.3424 10.3212C14.4706 10.2868 14.6044 10.2782 14.736 10.296C14.8675 10.3138 14.9942 10.3577 15.1087 10.425C15.2231 10.4923 15.323 10.5817 15.4025 10.688C15.4821 10.7943 15.5396 10.9154 15.5719 11.0441C15.6085 11.1718 15.6194 11.3054 15.6038 11.4372C15.5882 11.5691 15.5466 11.6965 15.4813 11.8121C15.4159 11.9277 15.3283 12.0291 15.2233 12.1104C15.1184 12.1917 14.9983 12.2514 14.8701 12.2858C14.7419 12.3203 14.6081 12.3288 14.4765 12.311C14.345 12.2932 14.2183 12.2494 14.1038 12.1821C13.9894 12.1148 13.8895 12.0254 13.81 11.9191C13.7304 11.8128 13.6729 11.6917 13.6406 11.5629Z" fill="black"/>
</svg>
