<svg width="24" height="24" viewBox="0 0 24 24" fill="none" xmlns="http://www.w3.org/2000/svg">
<path d="M4.75 4C4.33437 4 4 4.33437 4 4.75C4 5.16562 4.33437 5.5 4.75 5.5H6.17188C6.29063 5.5 6.39375 5.58438 6.41875 5.70312L8.03125 14.1719C8.23438 15.2344 9.1625 16 10.2406 16H19.25C19.6656 16 20 15.6656 20 15.25C20 14.8344 19.6656 14.5 19.25 14.5H10.2406C9.88125 14.5 9.57188 14.2437 9.50313 13.8906L9.33437 13H18.35C19.3687 13 20.2594 12.3188 20.5219 11.3344L21.8031 6.575C22.0188 5.78125 21.4187 5 20.5969 5H7.75313C7.46875 4.4 6.8625 4 6.17188 4H4.75ZM9.5 20C9.89782 20 10.2794 19.842 10.5607 19.5607C10.842 19.2794 11 18.8978 11 18.5C11 18.1022 10.842 17.7206 10.5607 17.4393C10.2794 17.158 9.89782 17 9.5 17C9.10218 17 8.72064 17.158 8.43934 17.4393C8.15804 17.7206 8 18.1022 8 18.5C8 18.8978 8.15804 19.2794 8.43934 19.5607C8.72064 19.842 9.10218 20 9.5 20ZM20 18.5C20 18.1022 19.842 17.7206 19.5607 17.4393C19.2794 17.158 18.8978 17 18.5 17C18.1022 17 17.7206 17.158 17.4393 17.4393C17.158 17.7206 17 18.1022 17 18.5C17 18.8978 17.158 19.2794 17.4393 19.5607C17.7206 19.842 18.1022 20 18.5 20C18.8978 20 19.2794 19.842 19.5607 19.5607C19.842 19.2794 20 18.8978 20 18.5ZM2.75 7C2.33437 7 2 7.33437 2 7.75C2 8.16563 2.33437 8.5 2.75 8.5H5.25C5.66563 8.5 6 8.16563 6 7.75C6 7.33437 5.66563 7 5.25 7H2.75ZM2.75 9.5C2.33437 9.5 2 9.83437 2 10.25C2 10.6656 2.33437 11 2.75 11H5.75C6.16563 11 6.5 10.6656 6.5 10.25C6.5 9.83437 6.16563 9.5 5.75 9.5H2.75ZM2.75 12C2.33437 12 2 12.3344 2 12.75C2 13.1656 2.33437 13.5 2.75 13.5H6.25C6.66563 13.5 7 13.1656 7 12.75C7 12.3344 6.66563 12 6.25 12H2.75Z" fill="black"/>
</svg>
