<svg width="24" height="24" viewBox="0 0 24 24" fill="none" xmlns="http://www.w3.org/2000/svg">
<path d="M11 4C10.4469 4 10 4.44687 10 5C10 5.50313 10.3719 5.91875 10.8563 5.99063C9.45 7.3375 7.25 9.9375 7.25 13C7.25 14.4813 8.2125 15.2594 9 15.6469V16.5H15V15.6469C15.7875 15.2563 16.75 14.4781 16.75 13C16.75 11.8344 16.4313 10.7375 15.9594 9.74687L12.8531 12.8531C12.6594 13.0469 12.3406 13.0469 12.1469 12.8531C11.9531 12.6594 11.9531 12.3406 12.1469 12.1469L15.4625 8.83125C14.7375 7.64063 13.8438 6.65938 13.1438 5.99063C13.6281 5.91875 14 5.50313 14 5C14 4.44687 13.5531 4 13 4H11ZM8.5 17.5L7.20625 18.7937C7.075 18.925 7 19.1062 7 19.2937C7 19.6844 7.31563 20 7.70625 20H16.2937C16.6844 20 17 19.6844 17 19.2937C17 19.1062 16.925 18.925 16.7937 18.7937L15.5 17.5H8.5Z" fill="black"/>
</svg>
