<svg width="24" height="24" viewBox="0 0 24 24" fill="none" xmlns="http://www.w3.org/2000/svg">
<path d="M13.5562 4.06562C13.825 4.18437 14 4.45312 14 4.75V6H14.5C16.7094 6 18.5 7.79063 18.5 10V15.2094C19.3844 15.5938 20 16.475 20 17.5C20 18.8813 18.8813 20 17.5 20C16.1187 20 15 18.8813 15 17.5C15 16.475 15.6156 15.5938 16.5 15.2094V10C16.5 8.89688 15.6031 8 14.5 8H14V9.25C14 9.54688 13.825 9.81562 13.5562 9.93437C13.2875 10.0531 12.9688 10.0063 12.75 9.80625L10.25 7.55625C10.0906 7.4125 10.0031 7.2125 10.0031 7C10.0031 6.7875 10.0938 6.58437 10.25 6.44375L12.75 4.19375C12.9688 3.99687 13.2875 3.94687 13.5562 4.06562ZM7.25 6.5C7.25 6.30109 7.17098 6.11032 7.03033 5.96967C6.88968 5.82902 6.69891 5.75 6.5 5.75C6.30109 5.75 6.11032 5.82902 5.96967 5.96967C5.82902 6.11032 5.75 6.30109 5.75 6.5C5.75 6.69891 5.82902 6.88968 5.96967 7.03033C6.11032 7.17098 6.30109 7.25 6.5 7.25C6.69891 7.25 6.88968 7.17098 7.03033 7.03033C7.17098 6.88968 7.25 6.69891 7.25 6.5ZM7.5 8.79063V15.2094C8.38437 15.5938 9 16.475 9 17.5C9 18.8813 7.88125 20 6.5 20C5.11875 20 4 18.8813 4 17.5C4 16.475 4.61563 15.5938 5.5 15.2094V8.79063C4.61563 8.40625 4 7.525 4 6.5C4 5.11875 5.11875 4 6.5 4C7.88125 4 9 5.11875 9 6.5C9 7.525 8.38437 8.40625 7.5 8.79063ZM7.25 17.5C7.25 17.3011 7.17098 17.1103 7.03033 16.9697C6.88968 16.829 6.69891 16.75 6.5 16.75C6.30109 16.75 6.11032 16.829 5.96967 16.9697C5.82902 17.1103 5.75 17.3011 5.75 17.5C5.75 17.6989 5.82902 17.8897 5.96967 18.0303C6.11032 18.171 6.30109 18.25 6.5 18.25C6.69891 18.25 6.88968 18.171 7.03033 18.0303C7.17098 17.8897 7.25 17.6989 7.25 17.5ZM17.5 18.25C17.6989 18.25 17.8897 18.171 18.0303 18.0303C18.171 17.8897 18.25 17.6989 18.25 17.5C18.25 17.3011 18.171 17.1103 18.0303 16.9697C17.8897 16.829 17.6989 16.75 17.5 16.75C17.3011 16.75 17.1103 16.829 16.9697 16.9697C16.829 17.1103 16.75 17.3011 16.75 17.5C16.75 17.6989 16.829 17.8897 16.9697 18.0303C17.1103 18.171 17.3011 18.25 17.5 18.25Z" fill="black"/>
</svg>
