<svg width="24" height="24" viewBox="0 0 24 24" fill="none" xmlns="http://www.w3.org/2000/svg">
<path d="M12 20C14.1217 20 16.1566 19.1571 17.6569 17.6569C19.1571 16.1566 20 14.1217 20 12C20 9.87827 19.1571 7.84344 17.6569 6.34315C16.1566 4.84285 14.1217 4 12 4C9.87827 4 7.84344 4.84285 6.34315 6.34315C4.84285 7.84344 4 9.87827 4 12C4 14.1217 4.84285 16.1566 6.34315 17.6569C7.84344 19.1571 9.87827 20 12 20ZM14.3156 7.6125C14.4969 7.75937 14.5531 8.01562 14.4469 8.225L12.8094 11.5H15C15.2125 11.5 15.4031 11.6344 15.4719 11.8344C15.5406 12.0344 15.4781 12.2562 15.3125 12.3906L10.3125 16.3906C10.1281 16.5375 9.86875 16.5375 9.68437 16.3875C9.5 16.2375 9.44688 15.9844 9.55 15.775L11.1906 12.5H9C8.7875 12.5 8.6 12.3656 8.52812 12.1656C8.45625 11.9656 8.52187 11.7438 8.6875 11.6094L13.6875 7.60938C13.8719 7.4625 14.1313 7.4625 14.3156 7.6125Z" fill="black"/>
</svg>
