<svg width="24" height="24" viewBox="0 0 24 24" fill="none" xmlns="http://www.w3.org/2000/svg">
<path d="M7 7C6.44688 7 6 7.44688 6 8V9H13C14.1031 9 15 9.89687 15 11V17C15 18.1031 14.1031 19 13 19H5C3.89688 19 3 18.1031 3 17V11C3 10.2594 3.40312 9.6125 4 9.26875V8C4 6.34375 5.34375 5 7 5H12C12.5531 5 13 5.44687 13 6C13 6.55313 12.5531 7 12 7H7ZM20.4719 9.11875C20.7969 9.29375 21 9.63125 21 10V18C21 18.3687 20.7969 18.7063 20.4719 18.8813C20.1469 19.0563 19.7531 19.0375 19.4438 18.8313L16.4438 16.8313L16 16.5344V16V12V11.4656L16.4438 11.1687L19.4438 9.16875C19.75 8.96562 20.1437 8.94375 20.4719 9.11875ZM5.5 11C5.225 11 5 11.225 5 11.5C5 11.775 5.225 12 5.5 12H12.5C12.775 12 13 11.775 13 11.5C13 11.225 12.775 11 12.5 11H5.5Z" fill="black"/>
</svg>
