<svg width="24" height="24" viewBox="0 0 24 24" fill="none" xmlns="http://www.w3.org/2000/svg">
<path d="M7 4C7.55312 4 8 4.44687 8 5V6H12V5C12 4.44687 12.4469 4 13 4C13.5531 4 14 4.44687 14 5V6H15.5C16.3281 6 17 6.67188 17 7.5V9H3V7.5C3 6.67188 3.67188 6 4.5 6H6V5C6 4.44687 6.44688 4 7 4ZM3 10H17V11.3625L12.0406 16.3219C11.7844 16.5781 11.6031 16.9 11.5156 17.25L11.0469 19.1281C10.975 19.4219 10.9906 19.7219 11.0906 19.9969H4.5C3.67188 19.9969 3 19.325 3 18.4969V10ZM6.75 12.5C6.33437 12.5 6 12.8344 6 13.25C6 13.6656 6.33437 14 6.75 14H11.25C11.6656 14 12 13.6656 12 13.25C12 12.8344 11.6656 12.5 11.25 12.5H6.75ZM6 16.25C6 16.6656 6.33437 17 6.75 17H9.25C9.66563 17 10 16.6656 10 16.25C10 15.8344 9.66563 15.5 9.25 15.5H6.75C6.33437 15.5 6 15.8344 6 16.25ZM20.1812 11.3656L20.6313 11.8156C21.1187 12.3031 21.1187 13.0938 20.6313 13.5844L19.7125 14.5031L17.4937 12.2844L18.4125 11.3656C18.9 10.8781 19.6906 10.8781 20.1812 11.3656ZM12.7469 17.0312L16.7844 12.9937L19.0031 15.2125L14.9656 19.2469C14.8375 19.375 14.6781 19.4656 14.5 19.5094L12.6219 19.9781C12.45 20.0219 12.2719 19.9719 12.1469 19.8469C12.0219 19.7219 11.9719 19.5437 12.0156 19.3719L12.4844 17.4937C12.5281 17.3187 12.6187 17.1562 12.7469 17.0281V17.0312Z" fill="black"/>
</svg>
