<svg width="24" height="24" viewBox="0 0 24 24" fill="none" xmlns="http://www.w3.org/2000/svg">
<path d="M6.5 7C6.5 6.44687 6.94688 6 7.5 6H9.5C10.0531 6 10.5 6.44687 10.5 7H13.5C13.5 6.44687 13.9469 6 14.5 6H16.5C17.0531 6 17.5 6.44687 17.5 7H18C19.1031 7 20 7.89688 20 9V16C20 17.1031 19.1031 18 18 18H6C4.89688 18 4 17.1031 4 16V9C4 7.89688 4.89688 7 6 7H6.5ZM16 10C16 9.725 15.775 9.5 15.5 9.5C15.225 9.5 15 9.725 15 10V11H14C13.725 11 13.5 11.225 13.5 11.5C13.5 11.775 13.725 12 14 12H15V13C15 13.275 15.225 13.5 15.5 13.5C15.775 13.5 16 13.275 16 13V12H17C17.275 12 17.5 11.775 17.5 11.5C17.5 11.225 17.275 11 17 11H16V10ZM6.5 11.5C6.5 11.775 6.725 12 7 12H10C10.275 12 10.5 11.775 10.5 11.5C10.5 11.225 10.275 11 10 11H7C6.725 11 6.5 11.225 6.5 11.5Z" fill="black"/>
</svg>
