<svg width="24" height="24" viewBox="0 0 24 24" fill="none" xmlns="http://www.w3.org/2000/svg">
<path d="M12.0875 5.5188L14.5375 6.44692L12 7.42192L9.4625 6.44692L11.9125 5.5188C11.9688 5.49692 12.0312 5.49692 12.0906 5.5188H12.0875ZM7.25 6.89067V10.3969C7.20937 10.4094 7.16875 10.4219 7.12813 10.4375L4.12812 11.575C3.45 11.8313 3 12.4844 3 13.2094V16.9344C3 17.6282 3.40938 18.2563 4.04688 18.5375L7.04688 19.8563C7.49687 20.0532 8.00625 20.0532 8.45625 19.8563L12 18.2969L15.5469 19.8563C15.9969 20.0532 16.5063 20.0532 16.9563 19.8563L19.9562 18.5375C20.5906 18.2594 21.0031 17.6282 21.0031 16.9344V13.2094C21.0031 12.4813 20.5531 11.8313 19.875 11.5719L16.875 10.4344C16.8344 10.4188 16.7937 10.4063 16.7531 10.3938V6.89067C16.7531 6.16255 16.3031 5.51255 15.625 5.25317L12.625 4.11567C12.225 3.96567 11.7844 3.96567 11.3844 4.11567L8.38438 5.25317C7.7 5.51255 7.25 6.16567 7.25 6.89067ZM15.25 10.5813L12.675 11.5563V8.7688L15.25 7.7813V10.5813ZM7.8375 11.8407L10.2875 12.7688L7.75 13.7407L5.2125 12.7688L7.6625 11.8407C7.71875 11.8188 7.78125 11.8188 7.84062 11.8407H7.8375ZM8.425 18.2282V15.0875L11 14.1V17.0969L8.425 18.2282ZM16.1625 11.8407C16.2188 11.8188 16.2812 11.8188 16.3406 11.8407L18.7906 12.7688L16.25 13.7407L13.7125 12.7688L16.1625 11.8407ZM19.35 17.1625L16.925 18.2282V15.0875L19.5 14.1V16.9344C19.5 17.0344 19.4406 17.1219 19.35 17.1625Z" fill="black"/>
</svg>
