<svg width="24" height="24" viewBox="0 0 24 24" fill="none" xmlns="http://www.w3.org/2000/svg">
<path d="M6.86257 4.54059C7.09381 4.09372 7.62194 3.88747 8.09381 4.05934L12.0001 5.48434L15.9063 4.05934C16.3782 3.88747 16.9063 4.09372 17.1376 4.54059L19.6001 9.31872C20.5001 11.0625 19.9219 13.1406 18.3969 14.2125L19.3782 16.9062L20.6594 16.4375C21.1782 16.25 21.7532 16.5156 21.9407 17.0343C22.1282 17.5531 21.8626 18.1281 21.3438 18.3156L19.1219 19.125L16.9001 19.9375C16.3813 20.1281 15.8063 19.8593 15.6188 19.3406C15.4313 18.8218 15.6969 18.2468 16.2157 18.0593L17.4969 17.5906L16.5188 14.8968C14.6626 15.0593 12.8876 13.8343 12.4563 11.9218L12.0001 9.89997L11.5438 11.9218C11.1126 13.8375 9.33756 15.0593 7.48131 14.8968L6.50319 17.5906L7.78444 18.0593C8.30319 18.2468 8.57194 18.8218 8.38131 19.3406C8.19069 19.8593 7.61881 20.1281 7.10006 19.9375L4.88131 19.1281L2.65944 18.3187C2.14069 18.1281 1.87194 17.5562 2.06256 17.0375C2.25319 16.5187 2.82506 16.25 3.34381 16.4406L4.62506 16.9093L5.60319 14.2156C4.07819 13.1406 3.50319 11.0625 4.40319 9.31872L6.86257 4.54059ZM8.23757 6.24059L7.38756 7.89059L10.1751 8.90622L10.5844 7.09684L8.23757 6.24059ZM15.7657 6.24059L13.4188 7.09684L13.8282 8.90622L16.6157 7.89059L15.7657 6.24059Z" fill="black"/>
</svg>
