<svg width="24" height="24" viewBox="0 0 24 24" fill="none" xmlns="http://www.w3.org/2000/svg">
<path d="M12.0002 18C16.4189 18 20.0002 15.0906 20.0002 11.5C20.0002 7.90937 16.4189 5 12.0002 5C7.58141 5 4.00016 7.90937 4.00016 11.5C4.00016 12.9094 4.55328 14.2125 5.49078 15.2781C5.43141 16.0437 5.13453 16.725 4.82203 17.2437C4.65016 17.5312 4.47516 17.7625 4.34703 17.9187C4.28141 17.9969 4.23141 18.0563 4.19391 18.0969C4.17516 18.1156 4.16266 18.1313 4.15328 18.1406L4.14391 18.15C4.00016 18.2937 3.95953 18.5063 4.03766 18.6938C4.11578 18.8813 4.29703 19.0031 4.50016 19.0031C5.39703 19.0031 6.30016 18.725 7.05016 18.4C7.76578 18.0875 8.37516 17.7156 8.74703 17.4438C9.74078 17.8031 10.8408 18.0031 12.0002 18.0031V18ZM14.6502 8.84375C15.1095 9.30312 15.1095 10.05 14.6502 10.5094L14.1845 10.975L12.5189 9.3125L12.9845 8.84375C13.4439 8.38438 14.1908 8.38438 14.6502 8.84375ZM9.56578 12.2656L11.8127 10.0188L13.4783 11.6844L11.2314 13.9312C11.1033 14.0594 10.9439 14.15 10.7658 14.1938L9.62203 14.4812C9.45016 14.525 9.27203 14.475 9.14703 14.35C9.02203 14.225 8.97203 14.0469 9.01578 13.875L9.30328 12.7281C9.34703 12.5531 9.43766 12.3906 9.56578 12.2625V12.2656Z" fill="black"/>
</svg>
