<svg width="24" height="24" viewBox="0 0 24 24" fill="none" xmlns="http://www.w3.org/2000/svg">
<path d="M11.1938 4.03753C11.3532 4.10316 11.4657 4.24691 11.4938 4.41566L11.9344 7.06253L12.8938 7.22191C12.0688 7.55316 11.425 8.24066 11.1532 9.09378C10.65 8.14691 9.65003 7.50003 8.50003 7.50003C6.84378 7.50003 5.50003 8.84378 5.50003 10.5C5.50003 12.1563 6.84378 13.5 8.50003 13.5C8.75316 13.5 8.99691 13.4688 9.23128 13.4094C8.08753 13.975 7.25316 15.0688 7.05003 16.375L6.28753 16.9063C6.14691 17.0063 5.96566 17.025 5.80628 16.9563C5.64691 16.8875 5.53441 16.7469 5.50628 16.5782L5.06566 13.9344L2.41878 13.4938C2.25003 13.4657 2.10628 13.3532 2.04066 13.1938C1.97503 13.0344 1.99378 12.8532 2.09066 12.7125L3.64066 10.5L2.09066 8.28753C1.99066 8.14691 1.97191 7.96566 2.04066 7.80628C2.10941 7.64691 2.25003 7.53441 2.41878 7.50628L5.06566 7.06566L5.50628 4.41878C5.53441 4.25003 5.64691 4.10628 5.80628 4.04066C5.96566 3.97503 6.14691 3.99378 6.28753 4.09066L8.50003 5.64066L10.7125 4.09066C10.8532 3.99066 11.0344 3.97191 11.1938 4.04066V4.03753ZM6.50003 10.5C6.50003 9.9696 6.71075 9.46089 7.08582 9.08582C7.46089 8.71075 7.9696 8.50003 8.50003 8.50003C9.03046 8.50003 9.53917 8.71075 9.91425 9.08582C10.2893 9.46089 10.5 9.9696 10.5 10.5C10.5 11.0305 10.2893 11.5392 9.91425 11.9142C9.53917 12.2893 9.03046 12.5 8.50003 12.5C7.9696 12.5 7.46089 12.2893 7.08582 11.9142C6.71075 11.5392 6.50003 11.0305 6.50003 10.5ZM20.5813 12.8438C19.9907 11.7469 18.8313 11 17.4969 11C17.0938 11 16.7063 11.0688 16.3469 11.1938C15.6219 10.4563 14.6157 10 13.5 10C12.9782 10 12.4813 10.1 12.0219 10.2813C12.0094 10.1907 12.0032 10.0969 12.0032 10.0032C12.0032 8.90003 12.8969 8.00316 14.0032 8.00316C14.2344 8.00316 14.4594 8.04378 14.6657 8.11566C15.025 7.17503 15.9344 6.50316 17.0032 6.50316C18.2188 6.50316 19.2313 7.37191 19.4563 8.52191C19.5532 8.50941 19.6532 8.50316 19.7532 8.50316C20.9969 8.50316 22.0032 9.50941 22.0032 10.7532C22.0032 11.7032 21.4157 12.5125 20.5844 12.8438H20.5813ZM21.9969 17.4969C21.9969 18.8782 20.8782 19.9969 19.4969 19.9969H11C9.34378 19.9969 8.00003 18.6532 8.00003 16.9969C8.00003 15.5094 9.08128 14.2782 10.5 14.0407V14C10.5 12.3438 11.8438 11 13.5 11C14.5907 11 15.5438 11.5813 16.0688 12.45C16.475 12.1657 16.9688 12 17.5 12C18.8813 12 20 13.1188 20 14.5C20 14.6844 19.9813 14.8657 19.9407 15.0375C21.1094 15.2469 21.9969 16.2688 21.9969 17.4969Z" fill="black"/>
</svg>
