<svg width="24" height="24" viewBox="0 0 24 24" fill="none" xmlns="http://www.w3.org/2000/svg">
<path d="M8 5V6H6.5C5.67188 6 5 6.67188 5 7.5V9H19V7.5C19 6.67188 18.3281 6 17.5 6H16V5C16 4.44687 15.5531 4 15 4C14.4469 4 14 4.44687 14 5V6H10V5C10 4.44687 9.55313 4 9 4C8.44687 4 8 4.44687 8 5ZM19 10H5V18.5C5 19.3281 5.67188 20 6.5 20H17.5C18.3281 20 19 19.3281 19 18.5V10ZM8 13.25C8 12.8344 8.33437 12.5 8.75 12.5H15.25C15.6656 12.5 16 12.8344 16 13.25C16 13.6656 15.6656 14 15.25 14H8.75C8.33437 14 8 13.6656 8 13.25ZM8.75 15.5H12.25C12.6656 15.5 13 15.8344 13 16.25C13 16.6656 12.6656 17 12.25 17H8.75C8.33437 17 8 16.6656 8 16.25C8 15.8344 8.33437 15.5 8.75 15.5Z" fill="black"/>
</svg>
