<svg width="24" height="24" viewBox="0 0 24 24" fill="none" xmlns="http://www.w3.org/2000/svg">
<path d="M11.9999 18C16.4187 18 19.9999 15.0906 19.9999 11.5C19.9999 7.90937 16.4187 5 11.9999 5C7.58116 5 3.99991 7.90937 3.99991 11.5C3.99991 12.9094 4.55304 14.2125 5.49054 15.2781C5.43116 16.0437 5.13429 16.725 4.82179 17.2437C4.64991 17.5312 4.47491 17.7625 4.34679 17.9187C4.28116 17.9969 4.23116 18.0563 4.19366 18.0969C4.17491 18.1156 4.16241 18.1312 4.15304 18.1406L4.14366 18.15C3.99991 18.2937 3.95929 18.5063 4.03741 18.6938C4.11554 18.8813 4.29679 19.0031 4.49991 19.0031C5.39679 19.0031 6.29991 18.725 7.04991 18.4C7.76554 18.0875 8.37491 17.7156 8.74679 17.4438C9.74054 17.8031 10.8405 18.0031 11.9999 18.0031V18ZM7.99991 10.5C8.26513 10.5 8.51948 10.6054 8.70702 10.7929C8.89456 10.9804 8.99991 11.2348 8.99991 11.5C8.99991 11.7652 8.89456 12.0196 8.70702 12.2071C8.51948 12.3946 8.26513 12.5 7.99991 12.5C7.7347 12.5 7.48034 12.3946 7.29281 12.2071C7.10527 12.0196 6.99991 11.7652 6.99991 11.5C6.99991 11.2348 7.10527 10.9804 7.29281 10.7929C7.48034 10.6054 7.7347 10.5 7.99991 10.5ZM11.9999 10.5C12.2651 10.5 12.5195 10.6054 12.707 10.7929C12.8946 10.9804 12.9999 11.2348 12.9999 11.5C12.9999 11.7652 12.8946 12.0196 12.707 12.2071C12.5195 12.3946 12.2651 12.5 11.9999 12.5C11.7347 12.5 11.4803 12.3946 11.2928 12.2071C11.1053 12.0196 10.9999 11.7652 10.9999 11.5C10.9999 11.2348 11.1053 10.9804 11.2928 10.7929C11.4803 10.6054 11.7347 10.5 11.9999 10.5ZM14.9999 11.5C14.9999 11.2348 15.1053 10.9804 15.2928 10.7929C15.4803 10.6054 15.7347 10.5 15.9999 10.5C16.2651 10.5 16.5195 10.6054 16.707 10.7929C16.8946 10.9804 16.9999 11.2348 16.9999 11.5C16.9999 11.7652 16.8946 12.0196 16.707 12.2071C16.5195 12.3946 16.2651 12.5 15.9999 12.5C15.7347 12.5 15.4803 12.3946 15.2928 12.2071C15.1053 12.0196 14.9999 11.7652 14.9999 11.5Z" fill="black"/>
</svg>
