<svg width="24" height="24" viewBox="0 0 24 24" fill="none" xmlns="http://www.w3.org/2000/svg">
<path d="M12 4C10.6937 4 9.58125 4.83438 9.17188 6H8C6.89688 6 6 6.89687 6 8V18C6 19.1031 6.89688 20 8 20H16C17.1031 20 18 19.1031 18 18V8C18 6.89687 17.1031 6 16 6H14.8281C14.4187 4.83438 13.3063 4 12 4ZM12 6C12.2652 6 12.5196 6.10536 12.7071 6.29289C12.8946 6.48043 13 6.73478 13 7C13 7.26522 12.8946 7.51957 12.7071 7.70711C12.5196 7.89464 12.2652 8 12 8C11.7348 8 11.4804 7.89464 11.2929 7.70711C11.1054 7.51957 11 7.26522 11 7C11 6.73478 11.1054 6.48043 11.2929 6.29289C11.4804 6.10536 11.7348 6 12 6ZM15.5312 12.5312L11.5312 16.5312C11.2375 16.825 10.7625 16.825 10.4719 16.5312L8.46875 14.5312C8.175 14.2375 8.175 13.7625 8.46875 13.4719C8.7625 13.1813 9.2375 13.1781 9.52813 13.4719L10.9969 14.9406L14.4688 11.4688C14.7625 11.175 15.2375 11.175 15.5281 11.4688C15.8187 11.7625 15.8219 12.2375 15.5281 12.5281L15.5312 12.5312Z" fill="black"/>
</svg>
