<svg width="24" height="24" viewBox="0 0 24 24" fill="none" xmlns="http://www.w3.org/2000/svg">
<path d="M16.7062 4.29297L21.7062 9.29297C22.0968 9.68359 22.0968 10.318 21.7062 10.7086C21.3155 11.0992 20.6812 11.0992 20.2905 10.7086L15.2905 5.70859C14.8999 5.31797 14.8999 4.68359 15.2905 4.29297C15.6812 3.90234 16.3155 3.90234 16.7062 4.29297ZM11.2062 9.88047L14.628 6.45547L16.0437 7.87109L14.4155 9.49922L16.4999 11.5836L18.128 9.95547L19.5437 11.3711L17.2124 13.7023L17.2093 13.7055L17.2062 13.7086L16.1218 14.793C15.7187 15.1961 15.2093 15.4773 14.6499 15.5992L11.2843 16.3492C11.0999 16.3898 10.928 16.4836 10.7937 16.618L7.70615 19.7055C7.31553 20.0961 6.68115 20.0961 6.29053 19.7055C5.8999 19.3148 5.8999 18.6805 6.29053 18.2898L9.37803 15.2023C9.5124 15.068 9.60615 14.8992 9.64678 14.7117L10.3937 11.3492C10.5187 10.793 10.7968 10.2836 11.1999 9.87734L11.2062 9.88047ZM12.6218 11.2961C12.4874 11.4305 12.3937 11.5992 12.353 11.7867L11.8218 14.1836L14.2187 13.6523C14.403 13.6117 14.5749 13.518 14.7093 13.3836L15.0843 12.9992L12.9999 10.9148L12.6187 11.2961H12.6218ZM7.29365 4.29297C7.68428 3.90234 8.31865 3.90234 8.70928 4.29297C9.0999 4.68359 9.0999 5.31797 8.70928 5.70859L8.66553 5.74922L11.2937 8.37734L10.4999 9.17109C10.2905 9.38047 10.1062 9.61172 9.9499 9.85859L7.2499 7.16484L5.16553 9.24922L8.99053 13.0742L8.6749 14.4961L8.14365 15.0273C8.05303 14.9555 7.96553 14.8773 7.88115 14.793L3.7499 10.6648L3.70615 10.7086C3.31553 11.0992 2.68115 11.0992 2.29053 10.7086C1.8999 10.318 1.8999 9.68359 2.29053 9.29297L7.29053 4.29297H7.29365ZM14.8655 16.5773C15.1562 16.5117 15.4374 16.4148 15.7062 16.2898L17.7093 18.293C18.0999 18.6836 18.0999 19.318 17.7093 19.7086C17.3187 20.0992 16.6843 20.0992 16.2937 19.7086L13.4749 16.8898L14.8655 16.5805V16.5773Z" fill="black"/>
</svg>
