<svg width="24" height="24" viewBox="0 0 24 24" fill="none" xmlns="http://www.w3.org/2000/svg">
<path d="M12.5 11.5V4.51875C12.5 4.2375 12.7188 4 13 4C16.8656 4 20 7.13438 20 11C20 11.2812 19.7625 11.5 19.4813 11.5H12.5ZM4 12.5C4 8.70937 6.81562 5.57187 10.4688 5.07187C10.7562 5.03125 11 5.2625 11 5.55313V13L15.8906 17.8906C16.1 18.1 16.0844 18.4438 15.8438 18.6125C14.6187 19.4875 13.1187 20 11.5 20C7.35938 20 4 16.6438 4 12.5ZM20.45 13C20.7406 13 20.9688 13.2437 20.9312 13.5312C20.6906 15.2781 19.85 16.8312 18.6219 17.9781C18.4344 18.1531 18.1406 18.1406 17.9594 17.9563L13 13H20.45Z" fill="black"/>
</svg>
