<svg width="24" height="24" viewBox="0 0 24 24" fill="none" xmlns="http://www.w3.org/2000/svg">
<path d="M9.70615 7.70627C10.0968 7.31565 10.0968 6.68127 9.70615 6.29065C9.31553 5.90002 8.68115 5.90002 8.29053 6.29065L3.29053 11.2906C2.8999 11.6813 2.8999 12.3156 3.29053 12.7063L8.29053 17.7063C8.68115 18.0969 9.31553 18.0969 9.70615 17.7063C10.0968 17.3156 10.0968 16.6813 9.70615 16.2906L5.41553 12L9.70615 7.70627ZM14.2905 7.70627L18.5843 12L14.2937 16.2938C13.903 16.6844 13.903 17.3188 14.2937 17.7094C14.6843 18.1 15.3187 18.1 15.7093 17.7094L20.7093 12.7094C21.0999 12.3188 21.0999 11.6844 20.7093 11.2938L15.7093 6.29377C15.3187 5.90315 14.6843 5.90315 14.2937 6.29377C13.903 6.6844 13.903 7.31877 14.2937 7.7094L14.2905 7.70627Z" fill="black"/>
</svg>
