<svg width="24" height="24" viewBox="0 0 24 24" fill="none" xmlns="http://www.w3.org/2000/svg">
<path d="M9.99998 6C9.99998 5.46957 10.2107 4.96086 10.5858 4.58579C10.9608 4.21071 11.4695 4 12 4C12.5304 4 13.0391 4.21071 13.4142 4.58579C13.7893 4.96086 14 5.46957 14 6C14 6.53043 13.7893 7.03914 13.4142 7.41421C13.0391 7.78929 12.5304 8 12 8C11.4695 8 10.9608 7.78929 10.5858 7.41421C10.2107 7.03914 9.99998 6.53043 9.99998 6ZM11.5 16V19C11.5 19.5531 11.0531 20 10.5 20C9.94686 20 9.49998 19.5531 9.49998 19V12.9937L8.84686 14.0312C8.55311 14.5 7.93436 14.6375 7.46873 14.3438C7.00311 14.05 6.85936 13.4344 7.15311 12.9688L8.39998 10.9906C9.17811 9.75 10.5375 9 12 9C13.4625 9 14.8219 9.75 15.6 10.9875L16.8469 12.9688C17.1406 13.4375 17 14.0531 16.5344 14.3469C16.0687 14.6406 15.45 14.5 15.1562 14.0344L14.5 12.9937V19C14.5 19.5531 14.0531 20 13.5 20C12.9469 20 12.5 19.5531 12.5 19V16H11.5Z" fill="black"/>
</svg>
