<svg width="24" height="24" viewBox="0 0 24 24" fill="none" xmlns="http://www.w3.org/2000/svg">
<path d="M4.56875 6.88438L3.26875 10.1375C2.525 10.4312 2 11.1531 2 12V15.5C2 16.0531 2.44687 16.5 3 16.5H4.04063C4.27813 17.9188 5.5125 19 7 19C8.4875 19 9.72187 17.9188 9.95937 16.5H14.0406C14.2781 17.9188 15.5125 19 17 19C18.4875 19 19.7219 17.9188 19.9594 16.5H21C21.5531 16.5 22 16.0531 22 15.5V14C22 11.9625 20.475 10.2812 18.5063 10.0312L15.3813 6.125C14.8125 5.4125 13.95 5 13.0375 5H7.35313C6.125 5 5.02187 5.74688 4.56875 6.88438ZM17 14.5C17.3978 14.5 17.7794 14.658 18.0607 14.9393C18.342 15.2206 18.5 15.6022 18.5 16C18.5 16.3978 18.342 16.7794 18.0607 17.0607C17.7794 17.342 17.3978 17.5 17 17.5C16.6022 17.5 16.2206 17.342 15.9393 17.0607C15.658 16.7794 15.5 16.3978 15.5 16C15.5 15.6022 15.658 15.2206 15.9393 14.9393C16.2206 14.658 16.6022 14.5 17 14.5ZM5.58437 15.5C5.64803 15.3118 5.74846 15.138 5.87983 14.9889C6.0112 14.8398 6.17089 14.7183 6.34962 14.6314C6.52835 14.5446 6.72255 14.4941 6.92096 14.4829C7.11937 14.4717 7.31802 14.5001 7.50538 14.5663C7.69273 14.6326 7.86505 14.7354 8.01234 14.8688C8.15962 15.0022 8.27893 15.1635 8.36333 15.3435C8.44772 15.5234 8.49553 15.7182 8.50397 15.9168C8.51242 16.1153 8.48132 16.3136 8.4125 16.5C8.34884 16.6882 8.24841 16.862 8.11704 17.0111C7.98568 17.1602 7.82599 17.2817 7.64726 17.3686C7.46853 17.4554 7.27432 17.5059 7.07591 17.5171C6.87751 17.5283 6.67885 17.4999 6.4915 17.4337C6.30414 17.3674 6.13182 17.2646 5.98454 17.1312C5.83725 16.9978 5.71795 16.8365 5.63355 16.6565C5.54915 16.4766 5.50134 16.2818 5.4929 16.0832C5.48446 15.8847 5.51555 15.6864 5.58437 15.5ZM12.35 7.14375C12.5156 7.30625 12.5469 7.55937 12.4281 7.75625L11.3844 9.5H13C13.2219 9.5 13.4187 9.64688 13.4812 9.8625C13.5437 10.0781 13.4562 10.3063 13.2656 10.425L9.26562 12.925C9.06875 13.0469 8.81563 13.0187 8.65 12.8562C8.48438 12.6937 8.45313 12.4406 8.57188 12.2437L9.61562 10.5H8C7.77813 10.5 7.58125 10.3531 7.51875 10.1375C7.45625 9.92187 7.54375 9.69375 7.73438 9.575L11.7344 7.075C11.9313 6.95313 12.1844 6.98125 12.35 7.14375Z" fill="black"/>
</svg>
