<svg width="24" height="24" viewBox="0 0 24 24" fill="none" xmlns="http://www.w3.org/2000/svg">
<path d="M10.5938 4.22745C10.4063 4.03057 10.1251 3.95557 9.86256 4.02432C9.60006 4.09307 9.39693 4.30245 9.32818 4.56495L8.83443 6.51807L6.89693 5.9712C6.63443 5.8962 6.35318 5.9712 6.16256 6.16182C5.97193 6.35245 5.89693 6.6337 5.97193 6.8962L6.51881 8.8337L4.56568 9.33057C4.30318 9.3962 4.09693 9.60245 4.02506 9.86495C3.95318 10.1274 4.03131 10.4056 4.22818 10.5931L5.67193 11.9993L4.22818 13.4056C4.03131 13.5931 3.95631 13.8743 4.02506 14.1368C4.09381 14.3993 4.30318 14.6024 4.56568 14.6712L6.51881 15.1649L5.97193 17.1024C5.89693 17.3649 5.97193 17.6462 6.16256 17.8368C6.35318 18.0274 6.63443 18.1024 6.89693 18.0274L8.83443 17.4806L9.32818 19.4337C9.39381 19.6962 9.60006 19.9024 9.86256 19.9743C10.1251 20.0462 10.4032 19.9681 10.5938 19.7743L12.0001 18.3306L13.4063 19.7743C13.5969 19.9681 13.8751 20.0462 14.1376 19.9743C14.4001 19.9024 14.6032 19.6962 14.6719 19.4337L15.1657 17.4806L17.1032 18.0274C17.3657 18.1024 17.6469 18.0274 17.8376 17.8368C18.0282 17.6462 18.1032 17.3649 18.0282 17.1024L17.4813 15.1649L19.4344 14.6712C19.6969 14.6056 19.9032 14.3993 19.9751 14.1368C20.0469 13.8743 19.9688 13.5931 19.7751 13.4056L18.3313 11.9993L19.7751 10.5931C19.9688 10.4024 20.0469 10.1243 19.9751 9.86182C19.9032 9.59932 19.6969 9.3962 19.4344 9.32745L17.4813 8.8337L18.0282 6.8962C18.1032 6.6337 18.0282 6.35245 17.8376 6.16182C17.6469 5.9712 17.3657 5.8962 17.1032 5.9712L15.1657 6.51807L14.6688 4.56495C14.6032 4.30245 14.3969 4.0962 14.1344 4.02432C13.8719 3.95245 13.5938 4.03057 13.4063 4.22745L12.0001 5.6712L10.5938 4.22745Z" fill="black"/>
</svg>
