<svg width="24" height="24" viewBox="0 0 24 24" fill="none" xmlns="http://www.w3.org/2000/svg">
<path d="M6.3375 7.00938L5.2375 10.15C4.5125 10.45 4 11.1656 4 12V16.5V18C4 18.5531 4.44687 19 5 19H6C6.55313 19 7 18.5531 7 18V16.5H17V18C17 18.5531 17.4469 19 18 19H19C19.5531 19 20 18.5531 20 18V16.5V12C20 11.1656 19.4875 10.45 18.7625 10.15L17.6625 7.00938C17.2406 5.80625 16.1063 5 14.8313 5H9.16875C7.89375 5 6.75938 5.80625 6.3375 7.00938ZM7 12C7.26522 12 7.51957 12.1054 7.70711 12.2929C7.89464 12.4804 8 12.7348 8 13C8 13.2652 7.89464 13.5196 7.70711 13.7071C7.51957 13.8946 7.26522 14 7 14C6.73478 14 6.48043 13.8946 6.29289 13.7071C6.10536 13.5196 6 13.2652 6 13C6 12.7348 6.10536 12.4804 6.29289 12.2929C6.48043 12.1054 6.73478 12 7 12ZM16 13C16 12.7348 16.1054 12.4804 16.2929 12.2929C16.4804 12.1054 16.7348 12 17 12C17.2652 12 17.5196 12.1054 17.7071 12.2929C17.8946 12.4804 18 12.7348 18 13C18 13.2652 17.8946 13.5196 17.7071 13.7071C17.5196 13.8946 17.2652 14 17 14C16.7348 14 16.4804 13.8946 16.2929 13.7071C16.1054 13.5196 16 13.2652 16 13ZM13.9469 7.725L12.8094 10H14.5C14.7156 10 14.9063 10.1375 14.975 10.3406C15.0438 10.5437 14.9719 10.7688 14.8 10.9L10.8 13.9C10.6156 14.0406 10.3562 14.0312 10.1781 13.8844C10 13.7375 9.94688 13.4844 10.05 13.2781L11.1906 11H9.5C9.28437 11 9.09375 10.8625 9.025 10.6594C8.95625 10.4563 9.02812 10.2312 9.2 10.1L13.2 7.1C13.3844 6.95937 13.6437 6.96875 13.8219 7.11562C14 7.2625 14.0531 7.51562 13.95 7.72187L13.9469 7.725Z" fill="black"/>
</svg>
