<svg width="24" height="24" viewBox="0 0 24 24" fill="none" xmlns="http://www.w3.org/2000/svg">
<path d="M6 4.5C6 4.225 6.225 4 6.5 4H7.5C7.775 4 8 4.225 8 4.5V6H9.5V4.5C9.5 4.225 9.725 4 10 4H11C11.275 4 11.5 4.225 11.5 4.5V6H12.5V4.5C12.5 4.225 12.725 4 13 4H14C14.275 4 14.5 4.225 14.5 4.5V6H16V4.5C16 4.225 16.225 4 16.5 4H17.5C17.775 4 18 4.225 18 4.5V7.5V11H20V9.5C20 9.225 20.225 9 20.5 9H21.5C21.775 9 22 9.225 22 9.5V12.5V18.5C22 19.3281 21.3281 20 20.5 20H14V16C14 14.8969 13.1031 14 12 14C10.8969 14 10 14.8969 10 16V20H3.5C2.67188 20 2 19.3281 2 18.5V12.5V9.5C2 9.225 2.225 9 2.5 9H3.5C3.775 9 4 9.225 4 9.5V11H6V7.5V4.5Z" fill="black"/>
</svg>
