<svg width="24" height="24" viewBox="0 0 24 24" fill="none" xmlns="http://www.w3.org/2000/svg">
<path d="M15 7C15 7.44688 14.9031 7.87187 14.725 8.25625L16.375 11.1062C15.6344 11.8969 14.6812 12.4844 13.6094 12.7812L12 10L9.875 13.6719C10.5469 13.8844 11.2594 14 12.0031 14C14.2125 14 16.1844 12.9781 17.4688 11.375C17.8156 10.9437 18.4438 10.875 18.875 11.2188C19.3062 11.5625 19.375 12.1938 19.0312 12.625C17.3781 14.6812 14.8438 16 12 16C10.8938 16 9.83125 15.8 8.85313 15.4344L7.08437 18.4906C6.9375 18.7438 6.71875 18.95 6.45625 19.0813L4.725 19.9469C4.56875 20.025 4.38437 20.0156 4.2375 19.925C4.09063 19.8344 4 19.6719 4 19.5V17.7688C4 17.5063 4.06875 17.2469 4.20312 17.0156L6.07812 13.775C5.67813 13.425 5.30625 13.0406 4.975 12.625C4.62813 12.1938 4.7 11.5656 5.13125 11.2188C5.5625 10.8719 6.19062 10.9437 6.5375 11.375C6.71562 11.5969 6.90625 11.8063 7.10625 12.0031L9.275 8.25625C9.1 7.875 9 7.45 9 7C9 5.34375 10.3438 4 12 4C13.6562 4 15 5.34375 15 7ZM15.6562 16.3094C16.675 15.9094 17.6094 15.3469 18.4344 14.6562L19.8 17.0156C19.9313 17.2437 20.0031 17.5031 20.0031 17.7688V19.5C20.0031 19.6719 19.9125 19.8344 19.7656 19.925C19.6187 20.0156 19.4344 20.025 19.2781 19.9469L17.5469 19.0813C17.2844 18.95 17.0656 18.7438 16.9187 18.4906L15.6562 16.3094ZM12 8C12.2652 8 12.5196 7.89464 12.7071 7.70711C12.8946 7.51957 13 7.26522 13 7C13 6.73478 12.8946 6.48043 12.7071 6.29289C12.5196 6.10536 12.2652 6 12 6C11.7348 6 11.4804 6.10536 11.2929 6.29289C11.1054 6.48043 11 6.73478 11 7C11 7.26522 11.1054 7.51957 11.2929 7.70711C11.4804 7.89464 11.7348 8 12 8Z" fill="black"/>
</svg>
