<svg width="24" height="24" viewBox="0 0 24 24" fill="none" xmlns="http://www.w3.org/2000/svg">
<path d="M12 4C14.1217 4 16.1566 4.84285 17.6569 6.34315C19.1571 7.84344 20 9.87827 20 12C20 14.1217 19.1571 16.1566 17.6569 17.6569C16.1566 19.1571 14.1217 20 12 20C9.87827 20 7.84344 19.1571 6.34315 17.6569C4.84285 16.1566 4 14.1217 4 12C4 9.87827 4.84285 7.84344 6.34315 6.34315C7.84344 4.84285 9.87827 4 12 4ZM14.1656 8.02187C13.8625 7.94062 13.5437 8.09375 13.425 8.38438L12.8 9.88438C12.6938 10.1406 12.7688 10.4344 12.9812 10.6094L13.75 11.2406C13.2312 12.3406 12.3406 13.2312 11.2406 13.75L10.6094 12.9781C10.4344 12.7656 10.1406 12.6906 9.88438 12.7969L8.38438 13.4219C8.09375 13.5437 7.94062 13.8594 8.02187 14.1625L8.39687 15.5375C8.47187 15.8125 8.71875 16 9 16C12.8656 16 16 12.8656 16 9C16 8.71875 15.8125 8.47187 15.5406 8.39687L14.1656 8.02187Z" fill="black"/>
</svg>
