<svg width="24" height="24" viewBox="0 0 24 24" fill="none" xmlns="http://www.w3.org/2000/svg">
<path d="M12.6313 5.21563C12.8063 5.07813 13.025 5 13.25 5C14.6344 5 16.3 5.6 17.6219 6.74375C18.975 7.9125 20 9.67812 20 12V12.0156V12.0312V12.0469V12.0625V12.0781V12.0938V12.1094V12.125V12.1406V12.1562V12.1719V12.1875V12.2031V12.2188V12.2344V12.25V12.2656V12.2812V12.2969V12.3125V12.3281V12.3438V12.3594V12.375V12.3906V12.4062V12.4187V12.4312V12.4438V12.4563V12.4688V12.4812V12.4937V12.5063V12.5188V12.5312V12.5437V12.5562V12.5688V12.5813V12.5938V12.6062V12.6187V12.6313V12.6438V12.6562V12.6687V12.6812V12.6938V12.7063V12.7188V12.7312V12.7437V12.7563V12.7688V12.7812V12.7937V12.8062V12.8188V12.8313V12.8438V12.8562V12.8687V12.8813V12.8938V12.9062V12.9187V12.9312V12.9438V12.9563V12.9688V12.9812V12.9937V13.0063V13.0188V13.0312V13.0437V13.0562V13.0688V13.0813V13.0938V13.1062V13.1187V13.1313V13.1438V13.1562V13.1687V13.1812V13.1938V13.2063V13.2188V13.2312V13.2437V13.2563V13.2688V13.2812V13.2937V13.3062V13.3188V13.3313V13.3438V13.3562V13.3687V13.3813V13.3938V13.4062V13.4187V13.4312V13.4438V13.4563V13.4688V13.4812V13.4937V13.5063V13.5188V13.5312V13.5437V13.5562V13.5688V13.5813V13.5938V13.6062V13.6187V13.6313V13.6438V13.6562V13.6687V13.6812V13.6938V13.7063V13.7188V13.7312V13.7437V13.7563V13.7688V13.7812V13.7937V13.8062V13.8188V13.8313V13.8438V13.8562V13.8687V13.8813V13.8938V13.9062V13.9187V13.9312V13.9438V13.9563V13.9688V13.9812V13.9937V14.0063V14.0188V14.0312V14.0437V14.0562V14.0688V14.0813V14.0938V14.1062V14.1187V14.1313V14.1438V14.1562V14.1687V14.1812V14.1938V14.2063V14.2188V14.2312V14.2437V14.2563V14.2688V14.2812V14.2937V14.3062V14.3188V14.3313V14.3438V14.3562V14.3687V14.3813V14.3938V14.4031V14.4125V14.4219V14.4312V14.4406V14.45V14.4594V14.4688V14.4781V14.4875V14.4969V14.5063V14.5156V14.525V14.5344V14.5437V14.5531V14.5625V14.5719V14.5813V14.5906V14.6V14.6094V14.6187V14.6281V14.6375V14.6469V14.6562V14.6656V14.675V14.6844V14.6938V14.7031V14.7125V14.7219V14.7312V14.7406V14.75V14.7594V14.7688V14.7781V14.7875V14.7969V14.8062V14.8156V14.825V14.8344V14.8438V14.8531V14.8625V14.8719V14.8813V14.8906V14.9V14.9094V14.9187V14.9281V14.9375V14.9469V14.9563V14.9656V14.975V14.9844V14.9937V15.0031V15.0125V15.0219V15.0312V15.0406V15.05V15.0594V15.0688V15.0781V15.0875V15.0969V15.1062V15.1156V15.125V15.1344V15.1438V15.1531V15.1625V15.1719V15.1812V15.1906V15.2V15.2094V15.2188V15.2281V15.2375V15.2469V15.2563V15.2656V15.275V15.2844V15.2937V15.3031V15.3125V15.3219V15.3313V15.3406V15.35V15.3594V15.3687V15.3781V15.3875V15.3969V15.4062V15.4156V15.425V15.4344V15.4438V15.4531V15.4625V15.4719V15.4812V15.4906V15.5V15.5094V15.5188V15.5281V15.5375V15.5469V15.5562V15.5656V15.575V15.5844V15.5938V15.6031V15.6125V15.6219V15.6313V15.6406V15.65V15.6594V15.6687V15.6781V15.6875V15.6969V15.7063V15.7156V15.725V15.7344V15.7437V15.7531V15.7625V15.7719V15.7812V15.7906V15.8V15.8094V15.8188V15.8281V15.8375V15.8469V15.8562V15.8656V15.875V15.8844V15.8938V15.9031V15.9125V15.9219V15.9312V15.9406V15.95V15.9594V15.9688V15.9781V15.9875V15.9969V16.0063V16.0156V16.025V16.0312V16.0406V16.0469V16.0531V16.0594V16.0656V16.0719V16.0781V16.0844V16.0906V16.0969V16.1031V16.1094V16.1156V16.1219V16.1281V16.1344V16.1406V16.1469V16.1531V16.1594V16.1656V16.1719V16.1781V16.1844V16.1906V16.1969V16.2031V16.2094V16.2156V16.2219V16.2281V16.2344V16.2406V16.2469V16.2531V16.2594V16.2656V16.2719V16.2781V16.2844V16.2906V16.2969V16.3031V16.3094V16.3156V16.3219V16.3281V16.3344V16.3406V16.3469V16.3531V16.3594V16.3656V16.3719V16.3781V16.3844V16.3906V16.3969V16.4031V16.4094V16.4156V16.4219V16.4281V16.4344V16.4406V16.4469V16.4531V16.4594V16.4656V16.4719V16.4781V16.4844V16.4906V16.4969V16.5031V16.5094V16.5156V16.5219V16.5281V16.5344V16.5406V16.5469V16.5531V16.5594V16.5656V16.5719V16.5781V16.5844V16.5906V16.5969V16.6031V16.6094V16.6156V16.6219V16.6281V16.6344V16.6406V16.6469V16.6531V16.6594V16.6656V16.6719V16.6781V16.6844V16.6906V16.6969V16.7031V16.7094V16.7156V16.7219V16.7281V16.7344V16.7406V16.7469V16.7531V16.7594V16.7656V16.7719V16.7781V16.7844V16.7906V16.7969V16.8031V16.8094V16.8156V16.8219V16.8281V16.8344V16.8406V16.8469V16.8531V16.8594V16.8656V16.8719V16.8781V16.8844V16.8906V16.8969V16.9031V16.9094V16.9156V16.9219V16.9281V16.9344V16.9406V16.9469V16.9531V16.9594V16.9656V16.9719V16.9781V16.9844C20 18.0906 19.1031 18.9844 18 18.9844H6C4.89688 18.9844 4 18.0875 4 16.9844V12.5C4 12.1937 4.14062 11.9031 4.38125 11.7156L12.6313 5.21563ZM18 13H6V14.5H18V14.4969V14.4875V14.4781V14.4688V14.4594V14.45V14.4406V14.4312V14.4219V14.4125V14.4031V14.3938V14.3844V14.375V14.3625V14.35V14.3375V14.3125V14.3V14.2875V14.2812V14.2688V14.2563V14.2437V14.2312V14.2188V14.2063V14.1938V14.1812V14.1687V14.1562V14.1438V14.1313V14.125V14.1125V14.1V14.0875V14.075V14.0625V14.05V14.0375V14.0312V14.0188V14.0063V13.9937V13.9812V13.9688V13.9563V13.9438V13.9312V13.9187V13.9062V13.8938V13.8813V13.8687V13.8562V13.8438V13.8313V13.8188V13.8062V13.7937V13.7812V13.7688V13.7563V13.7437V13.75V13.7375V13.725V13.7125V13.7V13.6875V13.675V13.6625V13.65V13.6375V13.625V13.6125V13.6V13.5938V13.5813V13.5688V13.5562V13.5437V13.5312V13.5188V13.5063V13.4937V13.4812V13.4688V13.4563V13.4438V13.4312V13.4187V13.4062V13.3938V13.3813V13.3687V13.3562V13.3438V13.3313V13.3188V13.3062V13.2937V13.2812V13.2688V13.2563V13.2437V13.2312V13.2188V13.2063V13.1938V13.1812V13.1687V13.1562V13.1438V13.1313V13.1187V13.1062V13.0938V13.0813V13.0625V13.05V13.0375V13.025V13.0125V13ZM6 17H18V16.9937V16.9875V16.9812V16.975V16.9688V16.9625V16.9563V16.95V16.9438V16.9375V16.9312V16.925V16.9187V16.9125V16.9062V16.9V16.8938V16.8875V16.8813V16.875V16.8687V16.8625V16.8562V16.85V16.8438V16.8375V16.8313V16.825V16.8188V16.8125V16.8062V16.8V16.7937V16.7875V16.7812V16.775V16.7688V16.7625V16.7563V16.75V16.7437V16.7375V16.7312V16.725V16.7188V16.7125V16.7063V16.7V16.6938V16.6875V16.6812V16.675V16.6687V16.6625V16.6562V16.65V16.6438V16.6375V16.6313V16.625V16.6187V16.6125V16.6062V16.6V16.5938V16.5875V16.5813V16.575V16.5688V16.5625V16.5562V16.55V16.5437V16.5312V16.525V16.5188V16.5125V16.5063V16.5V16.4937V16.4875V16.4812V16.475V16.4688V16.4625V16.4563V16.45V16.4375V16.4312V16.425V16.4187V16.4125V16.4062V16.4V16.3938V16.3875V16.375V16.3687V16.3625V16.3562V16.35V16.3438V16.3375V16.3313V16.325V16.3125V16.3062V16.3V16.2937V16.2812V16.275V16.2688V16.2625V16.2563V16.25V16.2437V16.2375V16.2312V16.225V16.2188V16.2125V16.2063V16.1875V16.1812V16.175V16.1687V16.1562V16.15V16.1438V16.1375V16.1313V16.125V16.1187V16.1125V16.1062V16.1V16.0938V16.0875V16.0813V16.075V16.0688V16.0625V16.0562V16.05V16.0437V16.0375V16.0312V16.0219V16.0156V16.0063V15.9969V15.9875V15.9781V15.9688V15.9594V15.95V15.9406V15.9312V15.9219V15.9125V15.9031V15.8938V15.8844V15.875V15.8656V15.8562V15.8438V15.8344V15.825V15.8156V15.8125V15.8031V15.7937V15.7844V15.775V15.7656V15.7563V15.7469V15.7375V15.7281V15.7188V15.7094V15.7V15.6906V15.6812V15.6875V15.6781V15.6687V15.6594V15.65V15.6406V15.6313V15.6219V15.6125V15.6031V15.5938V15.5844V15.575V15.5656V15.5562V15.5469V15.5375V15.5312V15.5219V15.5125V15.5031V15.5H6V17Z" fill="black"/>
</svg>
