<svg width="24" height="24" viewBox="0 0 24 24" fill="none" xmlns="http://www.w3.org/2000/svg">
<path d="M5.2937 11.2938C4.90308 11.6844 4.90308 12.3188 5.2937 12.7094L11.2937 18.7094C11.6843 19.1 12.3187 19.1 12.7093 18.7094C13.1 18.3188 13.1 17.6844 12.7093 17.2938L7.41558 12L12.7062 6.70627C13.0968 6.31565 13.0968 5.68127 12.7062 5.29065C12.3156 4.90002 11.6812 4.90002 11.2906 5.29065L5.29058 11.2906L5.2937 11.2938ZM17.2937 5.29377L11.2937 11.2938C10.9031 11.6844 10.9031 12.3188 11.2937 12.7094L17.2937 18.7094C17.6843 19.1 18.3187 19.1 18.7093 18.7094C19.1 18.3188 19.1 17.6844 18.7093 17.2938L13.4156 12L18.7062 6.70627C19.0968 6.31565 19.0968 5.68127 18.7062 5.29065C18.3156 4.90002 17.6812 4.90002 17.2906 5.29065L17.2937 5.29377Z" fill="black"/>
</svg>
