<svg width="24" height="24" viewBox="0 0 24 24" fill="none" xmlns="http://www.w3.org/2000/svg">
<path d="M12.0002 18C16.4189 18 20.0002 15.0906 20.0002 11.5C20.0002 7.90937 16.4189 5 12.0002 5C7.58141 5 4.00016 7.90937 4.00016 11.5C4.00016 12.9094 4.55328 14.2125 5.49078 15.2781C5.43141 16.0437 5.13453 16.725 4.82203 17.2437C4.65016 17.5312 4.47516 17.7625 4.34703 17.9187C4.28141 17.9969 4.23141 18.0563 4.19391 18.0969C4.17516 18.1156 4.16266 18.1312 4.15328 18.1406L4.14391 18.15C4.00016 18.2937 3.95953 18.5063 4.03766 18.6938C4.11578 18.8813 4.29703 19.0031 4.50016 19.0031C5.39703 19.0031 6.30016 18.725 7.05016 18.4C7.76578 18.0875 8.37516 17.7156 8.74703 17.4438C9.74078 17.8031 10.8408 18.0031 12.0002 18.0031V18ZM12.6252 8.25V8.68437C12.8595 8.72187 13.0814 8.775 13.2845 8.83125C13.6189 8.91875 13.8158 9.2625 13.7283 9.59688C13.6408 9.93125 13.297 10.1281 12.9627 10.0406C12.6189 9.95 12.2877 9.88438 11.9877 9.87813C11.7408 9.875 11.4877 9.93438 11.3158 10.0344C11.1658 10.1219 11.122 10.2094 11.122 10.325C11.122 10.3812 11.1252 10.4344 11.2877 10.5344C11.4845 10.6531 11.772 10.7438 12.172 10.8625L12.1939 10.8688C12.5439 10.975 12.9939 11.1094 13.3533 11.3375C13.7564 11.5906 14.1127 12.0031 14.122 12.6375C14.1314 13.2906 13.7939 13.7656 13.347 14.0437C13.122 14.1844 12.872 14.2719 12.622 14.325V14.75C12.622 15.0938 12.3408 15.375 11.997 15.375C11.6533 15.375 11.372 15.0938 11.372 14.75V14.2937C11.0502 14.225 10.747 14.1219 10.4908 14.0312C10.4252 14.0094 10.3627 13.9875 10.3002 13.9656C9.97203 13.8562 9.79703 13.5031 9.90641 13.175C10.0158 12.8469 10.3689 12.6719 10.697 12.7812C10.7752 12.8063 10.8502 12.8344 10.922 12.8562C11.347 13 11.672 13.1094 12.0189 13.1219C12.2877 13.1312 12.5345 13.0719 12.6877 12.975C12.8158 12.8969 12.8752 12.8031 12.872 12.6469C12.872 12.5563 12.847 12.4906 12.6877 12.3906C12.4908 12.2656 12.2064 12.175 11.8127 12.0562L11.7595 12.0406C11.4189 11.9375 10.9908 11.8094 10.647 11.6031C10.2502 11.3625 9.87828 10.9625 9.87516 10.3313C9.87203 9.67188 10.2439 9.21562 10.6814 8.95937C10.897 8.83125 11.1345 8.74687 11.3752 8.69375V8.25C11.3752 7.90625 11.6564 7.625 12.0002 7.625C12.3439 7.625 12.6252 7.90625 12.6252 8.25Z" fill="black"/>
</svg>
