<svg width="24" height="24" viewBox="0 0 24 24" fill="none" xmlns="http://www.w3.org/2000/svg">
<path d="M12 18C16.4188 18 20 15.0906 20 11.5C20 7.90937 16.4188 5 12 5C7.58129 5 4.00004 7.90937 4.00004 11.5C4.00004 12.9094 4.55316 14.2125 5.49066 15.2781C5.43129 16.0437 5.13441 16.725 4.82191 17.2437C4.65004 17.5312 4.47504 17.7625 4.34691 17.9187C4.28129 17.9969 4.23129 18.0563 4.19379 18.0969C4.17504 18.1156 4.16254 18.1312 4.15316 18.1406L4.14379 18.15C4.00004 18.2937 3.95941 18.5063 4.03754 18.6938C4.11566 18.8813 4.29691 19.0031 4.50004 19.0031C5.39691 19.0031 6.30004 18.725 7.05004 18.4C7.76566 18.0875 8.37504 17.7156 8.74691 17.4438C9.74066 17.8031 10.8407 18.0031 12 18.0031V18ZM9.00004 8.5H10.5C11.0532 8.5 11.5 8.94687 11.5 9.5V10.25V11V12.2281C11.5 13.3281 10.7063 14.2656 9.61879 14.4469L9.37191 14.4875C8.96254 14.5563 8.57816 14.2781 8.50941 13.8719C8.44066 13.4656 8.71879 13.0781 9.12504 13.0094L9.37191 12.9688C9.73441 12.9094 10 12.5969 10 12.2281V12H9.00004C8.44691 12 8.00004 11.5531 8.00004 11V9.5C8.00004 8.94687 8.44691 8.5 9.00004 8.5ZM16 11V12.2281C16 13.3281 15.2063 14.2656 14.1188 14.4469L13.8719 14.4875C13.4625 14.5563 13.0782 14.2781 13.0094 13.8719C12.9407 13.4656 13.2188 13.0781 13.625 13.0094L13.8719 12.9688C14.2344 12.9094 14.5 12.5969 14.5 12.2281V12H13.5C12.9469 12 12.5 11.5531 12.5 11V9.5C12.5 8.94687 12.9469 8.5 13.5 8.5H15C15.5532 8.5 16 8.94687 16 9.5V10.25V11Z" fill="black"/>
</svg>
