<svg width="24" height="24" viewBox="0 0 24 24" fill="none" xmlns="http://www.w3.org/2000/svg">
<path d="M12 5C12.1656 5 12.3219 5.08437 12.4156 5.22187C12.5063 5.35625 12.6625 5.525 12.9 5.74063C13.1344 5.95313 13.4219 6.1875 13.75 6.45312L13.8469 6.53125C14.4813 7.04375 15.2437 7.65938 15.9781 8.39375C17.525 9.94375 19 12.0625 19 15H5C5 12.0625 6.475 9.94375 8.02187 8.39687C8.75625 7.6625 9.51875 7.04687 10.1531 6.53437L10.25 6.45625C10.5813 6.19062 10.8656 5.95625 11.1 5.74375C11.3375 5.52812 11.4969 5.35938 11.5844 5.225C11.6781 5.08438 11.8344 5.00312 12 5.00312V5ZM5.125 16H18.875C18.4313 17.725 16.8656 19 15 19H9C7.1375 19 5.56875 17.725 5.125 16Z" fill="black"/>
</svg>
