<svg width="24" height="24" viewBox="0 0 24 24" fill="none" xmlns="http://www.w3.org/2000/svg">
<path d="M12 20C14.1217 20 16.1566 19.1571 17.6569 17.6569C19.1571 16.1566 20 14.1217 20 12C20 9.87827 19.1571 7.84344 17.6569 6.34315C16.1566 4.84285 14.1217 4 12 4C9.87827 4 7.84344 4.84285 6.34315 6.34315C4.84285 7.84344 4 9.87827 4 12C4 14.1217 4.84285 16.1566 6.34315 17.6569C7.84344 19.1571 9.87827 20 12 20ZM9 13.7937V9.5C9 9.225 9.225 9 9.5 9H13.7937C14.1844 9 14.5 9.31563 14.5 9.70625C14.5 9.89375 14.425 10.075 14.2937 10.2063L13.25 11.25L15.3219 13.3219C15.4344 13.4344 15.5 13.5875 15.5 13.75C15.5 13.9125 15.4375 14.0625 15.3219 14.1781L14.175 15.325C14.0625 15.4375 13.9094 15.5 13.75 15.5C13.5906 15.5 13.4375 15.4375 13.3219 15.3219L11.25 13.25L10.2063 14.2937C10.075 14.425 9.89375 14.5 9.70625 14.5C9.31563 14.5 9 14.1844 9 13.7937Z" fill="black"/>
</svg>
