<svg width="24" height="24" viewBox="0 0 24 24" fill="none" xmlns="http://www.w3.org/2000/svg">
<path d="M9 4C9.55313 4 10 4.44687 10 5V6H14V5C14 4.44687 14.4469 4 15 4C15.5531 4 16 4.44687 16 5V6H17.5C18.3281 6 19 6.67188 19 7.5V9H5V7.5C5 6.67188 5.67188 6 6.5 6H8V5C8 4.44687 8.44687 4 9 4ZM5 10H19V18.5C19 19.3281 18.3281 20 17.5 20H6.5C5.67188 20 5 19.3281 5 18.5V10ZM12.2906 11.8406C12.1719 11.6 11.8281 11.6 11.7063 11.8406L10.9688 13.3344L9.32188 13.575C9.05625 13.6125 8.95 13.9406 9.14062 14.1281L10.3344 15.2906L10.0531 16.9312C10.0062 17.1969 10.2875 17.4 10.525 17.275L12 16.5L13.475 17.275C13.7125 17.4 13.9906 17.1969 13.9469 16.9312L13.6656 15.2906L14.8594 14.1281C15.0531 13.9406 14.9469 13.6125 14.6781 13.575L13.0312 13.3344L12.2937 11.8406H12.2906Z" fill="black"/>
</svg>
