<svg width="24" height="24" viewBox="0 0 24 24" fill="none" xmlns="http://www.w3.org/2000/svg">
<path d="M7 14C5.34375 14 4 12.6562 4 11C4 9.67188 4.8625 8.54375 6.05938 8.15C6.02188 7.94063 6 7.72187 6 7.5C6 5.56562 7.56562 4 9.5 4C10.8469 4 12.0156 4.75937 12.6 5.875C13.0594 5.34063 13.7406 5 14.5 5C15.8813 5 17 6.11875 17 7.5C17 7.67188 16.9812 7.8375 16.95 8C16.9656 8 16.9844 8 17 8C18.6562 8 20 9.34375 20 11C20 12.6562 18.6562 14 17 14H7ZM6.54688 15.0594C6.92812 15.2219 7.10312 15.6625 6.94062 16.0437L6.61875 16.7937C6.45625 17.175 6.01562 17.35 5.63437 17.1875C5.25312 17.025 5.07812 16.5844 5.24063 16.2031L5.5625 15.4531C5.725 15.0719 6.16563 14.8969 6.54688 15.0594ZM10.2969 15.0594C10.6781 15.2219 10.8531 15.6625 10.6906 16.0437L9.19063 19.5437C9.02813 19.925 8.5875 20.1 8.20625 19.9375C7.825 19.775 7.65 19.3344 7.8125 18.9531L9.3125 15.4531C9.475 15.0719 9.91563 14.8969 10.2969 15.0594ZM17.5469 15.0594C17.9281 15.2219 18.1031 15.6625 17.9406 16.0437L16.4406 19.5437C16.2781 19.925 15.8375 20.1 15.4563 19.9375C15.075 19.775 14.9 19.3344 15.0625 18.9531L16.5625 15.4531C16.725 15.0719 17.1656 14.8969 17.5469 15.0594ZM14.1906 16.0469L13.8687 16.7969C13.7062 17.1781 13.2656 17.3531 12.8844 17.1906C12.5031 17.0281 12.3281 16.5875 12.4906 16.2063L12.8125 15.4563C12.975 15.075 13.4156 14.9 13.7969 15.0625C14.1781 15.225 14.3531 15.6656 14.1906 16.0469ZM5 18C5.26522 18 5.51957 18.1054 5.70711 18.2929C5.89464 18.4804 6 18.7348 6 19C6 19.2652 5.89464 19.5196 5.70711 19.7071C5.51957 19.8946 5.26522 20 5 20C4.73478 20 4.48043 19.8946 4.29289 19.7071C4.10536 19.5196 4 19.2652 4 19C4 18.7348 4.10536 18.4804 4.29289 18.2929C4.48043 18.1054 4.73478 18 5 18ZM11 19C11 18.7348 11.1054 18.4804 11.2929 18.2929C11.4804 18.1054 11.7348 18 12 18C12.2652 18 12.5196 18.1054 12.7071 18.2929C12.8946 18.4804 13 18.7348 13 19C13 19.2652 12.8946 19.5196 12.7071 19.7071C12.5196 19.8946 12.2652 20 12 20C11.7348 20 11.4804 19.8946 11.2929 19.7071C11.1054 19.5196 11 19.2652 11 19Z" fill="black"/>
</svg>
