<svg width="24" height="24" viewBox="0 0 24 24" fill="none" xmlns="http://www.w3.org/2000/svg">
<path d="M12 20C14.1217 20 16.1566 19.1571 17.6569 17.6569C19.1571 16.1566 20 14.1217 20 12C20 9.87827 19.1571 7.84344 17.6569 6.34315C16.1566 4.84285 14.1217 4 12 4C9.87827 4 7.84344 4.84285 6.34315 6.34315C4.84285 7.84344 4 9.87827 4 12C4 14.1217 4.84285 16.1566 6.34315 17.6569C7.84344 19.1571 9.87827 20 12 20ZM15.1938 9.70937L12.5688 15.8344C12.4594 16.0875 12.2125 16.25 11.9375 16.25C11.8938 16.25 11.8469 16.2469 11.8 16.2375C11.4813 16.1719 11.25 15.8875 11.25 15.5625V12.75H8.4375C8.1125 12.75 7.82812 12.5187 7.76562 12.2C7.7 11.8812 7.86875 11.5594 8.16875 11.4313L14.2937 8.80625C14.5594 8.69688 14.8563 8.75312 15.05 8.95312C15.25 9.15 15.3062 9.45 15.1969 9.70937H15.1938Z" fill="black"/>
</svg>
