<svg width="24" height="24" viewBox="0 0 24 24" fill="none" xmlns="http://www.w3.org/2000/svg">
<path d="M12 20C14.1217 20 16.1566 19.1571 17.6569 17.6569C19.1571 16.1566 20 14.1217 20 12C20 9.87827 19.1571 7.84344 17.6569 6.34315C16.1566 4.84285 14.1217 4 12 4C9.87827 4 7.84344 4.84285 6.34315 6.34315C4.84285 7.84344 4 9.87827 4 12C4 14.1217 4.84285 16.1566 6.34315 17.6569C7.84344 19.1571 9.87827 20 12 20ZM9.31563 8.75938L12 11.8562L14.6844 8.75938C14.9562 8.44688 15.4281 8.4125 15.7437 8.68437C16.0594 8.95625 16.0906 9.42813 15.8188 9.74375L12.75 13.2812V15.75C12.75 16.1656 12.4156 16.5 12 16.5C11.5844 16.5 11.25 16.1656 11.25 15.75V13.2812L8.18437 9.74062C7.9125 9.42812 7.94688 8.95313 8.25938 8.68125C8.57188 8.40938 9.04687 8.44375 9.31875 8.75625L9.31563 8.75938Z" fill="black"/>
</svg>
