<svg width="24" height="24" viewBox="0 0 24 24" fill="none" xmlns="http://www.w3.org/2000/svg">
<path d="M11.1938 4.03753C11.3532 4.10316 11.4657 4.24691 11.4938 4.41566L11.9344 7.06253L14.5813 7.50316C14.75 7.53128 14.8938 7.64378 14.9594 7.80316C15.025 7.96253 15.0063 8.14378 14.9094 8.28441L13.7063 10.0032C13.6375 10 13.5688 9.99691 13.4969 9.99691C12.7688 9.99691 12.0875 10.1907 11.4969 10.5313V10.4969C11.4969 8.84066 10.1532 7.49691 8.49691 7.49691C6.84066 7.49691 5.49691 8.84066 5.49691 10.4969C5.49691 12.1532 6.84066 13.4969 8.49691 13.4969C8.75003 13.4969 8.99378 13.4657 9.22816 13.4063C8.08441 13.9719 7.25003 15.0657 7.04691 16.3719L6.28441 16.9032C6.14378 17 5.96253 17.0219 5.80316 16.9532C5.64378 16.8844 5.53128 16.7438 5.50316 16.575L5.06566 13.9344L2.41878 13.4938C2.25003 13.4657 2.10628 13.3532 2.04066 13.1938C1.97503 13.0344 1.99378 12.8532 2.09066 12.7125L3.64066 10.5L2.09066 8.28753C1.99066 8.14691 1.97191 7.96566 2.04066 7.80628C2.10941 7.64691 2.25003 7.53441 2.41878 7.50628L5.06566 7.06566L5.50628 4.41878C5.53441 4.25003 5.64691 4.10628 5.80628 4.04066C5.96566 3.97503 6.14691 3.99378 6.28753 4.09066L8.50003 5.64066L10.7125 4.09066C10.8532 3.99066 11.0344 3.97191 11.1938 4.04066V4.03753ZM6.50003 10.5C6.50003 9.9696 6.71075 9.46089 7.08582 9.08582C7.46089 8.71075 7.9696 8.50003 8.50003 8.50003C9.03046 8.50003 9.53917 8.71075 9.91425 9.08582C10.2893 9.46089 10.5 9.9696 10.5 10.5C10.5 11.0305 10.2893 11.5392 9.91425 11.9142C9.53917 12.2893 9.03046 12.5 8.50003 12.5C7.9696 12.5 7.46089 12.2893 7.08582 11.9142C6.71075 11.5392 6.50003 11.0305 6.50003 10.5ZM21.9969 17.4969C21.9969 18.8782 20.8782 19.9969 19.4969 19.9969H11C9.34378 19.9969 8.00003 18.6532 8.00003 16.9969C8.00003 15.5094 9.08128 14.2782 10.5 14.0407V14C10.5 12.3438 11.8438 11 13.5 11C14.5907 11 15.5438 11.5813 16.0688 12.45C16.475 12.1657 16.9688 12 17.5 12C18.8813 12 20 13.1188 20 14.5C20 14.6844 19.9813 14.8657 19.9407 15.0375C21.1094 15.2469 21.9969 16.2688 21.9969 17.4969Z" fill="black"/>
</svg>
