<svg width="24" height="24" viewBox="0 0 24 24" fill="none" xmlns="http://www.w3.org/2000/svg">
<path d="M12.7437 4.275C12.2812 4.0125 11.7156 4.0125 11.2563 4.275L2.75313 9.13125C2.275 9.40625 2.10938 10.0156 2.38125 10.4969C2.65313 10.9781 3.26563 11.1438 3.74688 10.8688L12 6.15313L20.2531 10.8688C20.7312 11.1438 21.3437 10.975 21.6187 10.4969C21.8937 10.0187 21.725 9.40625 21.2469 9.13125L12.7437 4.275ZM9.80625 11H14.1938C14.4063 11 14.5937 11.1344 14.6656 11.3313L15.2594 13H8.74063L9.3375 11.3313C9.40938 11.1313 9.59688 11 9.80938 11H9.80625ZM7.45313 10.6594L6.56875 13.1375C5.94063 13.4031 5.5 14.025 5.5 14.75V16V18V19C5.5 19.5531 5.94688 20 6.5 20H7C7.55313 20 8 19.5531 8 19V18H16V19C16 19.5531 16.4469 20 17 20H17.5C18.0531 20 18.5 19.5531 18.5 19V18V16V14.75C18.5 14.025 18.0594 13.4031 17.4312 13.1375L16.5469 10.6594C16.1906 9.66563 15.25 9 14.1938 9H9.80625C8.75 9 7.80625 9.66563 7.45313 10.6594ZM8 14.75C8.19891 14.75 8.38968 14.829 8.53033 14.9697C8.67098 15.1103 8.75 15.3011 8.75 15.5C8.75 15.6989 8.67098 15.8897 8.53033 16.0303C8.38968 16.171 8.19891 16.25 8 16.25C7.80109 16.25 7.61032 16.171 7.46967 16.0303C7.32902 15.8897 7.25 15.6989 7.25 15.5C7.25 15.3011 7.32902 15.1103 7.46967 14.9697C7.61032 14.829 7.80109 14.75 8 14.75ZM15.25 15.5C15.25 15.3011 15.329 15.1103 15.4697 14.9697C15.6103 14.829 15.8011 14.75 16 14.75C16.1989 14.75 16.3897 14.829 16.5303 14.9697C16.671 15.1103 16.75 15.3011 16.75 15.5C16.75 15.6989 16.671 15.8897 16.5303 16.0303C16.3897 16.171 16.1989 16.25 16 16.25C15.8011 16.25 15.6103 16.171 15.4697 16.0303C15.329 15.8897 15.25 15.6989 15.25 15.5Z" fill="black"/>
</svg>
