<svg width="24" height="24" viewBox="0 0 24 24" fill="none" xmlns="http://www.w3.org/2000/svg">
<path d="M12 20C9.87827 20 7.84344 19.1571 6.34315 17.6569C4.84285 16.1566 4 14.1217 4 12C4 9.87827 4.84285 7.84344 6.34315 6.34315C7.84344 4.84285 9.87827 4 12 4C14.1217 4 16.1566 4.84285 17.6569 6.34315C19.1571 7.84344 20 9.87827 20 12C20 14.1217 19.1571 16.1566 17.6569 17.6569C16.1566 19.1571 14.1217 20 12 20ZM12.75 16.25V14.4781L13.375 15.4156C13.6063 15.7594 14.0719 15.8531 14.4156 15.625C14.7594 15.3969 14.8531 14.9281 14.625 14.5844L12.625 11.5844C12.4406 11.3094 12.1 11.1875 11.7844 11.2812C11.4688 11.375 11.2531 11.6687 11.2531 12V16.25C11.2531 16.6656 11.5875 17 12.0031 17C12.4188 17 12.7531 16.6656 12.7531 16.25H12.75Z" fill="black"/>
</svg>
