<svg width="24" height="24" viewBox="0 0 24 24" fill="none" xmlns="http://www.w3.org/2000/svg">
<path d="M6.725 4.55313C6.89375 4.2125 7.24063 4 7.61875 4H16.3813C16.7594 4 17.1062 4.2125 17.275 4.55313L18 6C18.5531 6 19 6.44688 19 7C19 7.55312 18.5531 8 18 8H6C5.44687 8 5 7.55312 5 7C5 6.44688 5.44687 6 6 6L6.725 4.55313ZM7.33437 18.1812L6.5 9H17.5L16.6656 18.1812C16.5719 19.2125 15.7094 20 14.675 20H9.325C8.29062 20 7.42812 19.2125 7.33437 18.1812ZM15.1187 13.0906C15.1719 12.5062 14.7094 12 14.1219 12H9.875C9.2875 12 8.825 12.5062 8.87812 13.0906L9.15 16.0906C9.19688 16.6062 9.62812 17 10.1469 17H13.85C14.3688 17 14.8 16.6062 14.8469 16.0906L15.1187 13.0906Z" fill="black"/>
</svg>
