<svg width="24" height="24" viewBox="0 0 24 24" fill="none" xmlns="http://www.w3.org/2000/svg">
<path d="M12.0469 4.8625C12.0219 4.69375 11.8938 4.55625 11.725 4.53125C11.0344 4.43437 10.3313 4.55937 9.71255 4.8875L7.40005 6.12187C6.78442 6.45 6.28755 6.96562 5.9813 7.59375L4.83442 9.95625C4.52817 10.5844 4.42817 11.2969 4.55005 11.9844L5.00317 14.5719C5.12505 15.2625 5.45942 15.8938 5.96255 16.3813L7.84692 18.2063C8.35005 18.6938 8.99067 19.0062 9.6813 19.1031L12.275 19.4688C12.9657 19.5656 13.6688 19.4406 14.2875 19.1125L16.6 17.8781C17.2157 17.55 17.7125 17.0344 18.0188 16.4031L19.1657 14.0437C19.4719 13.4156 19.5719 12.7031 19.45 12.0156C19.4219 11.85 19.2844 11.725 19.1188 11.7C17.5094 11.4437 16.2188 10.2281 15.8532 8.65625C15.7969 8.41875 15.6032 8.2375 15.3625 8.2C13.6563 7.92812 12.3094 6.575 12.0438 4.8625H12.0469ZM10.5 8.5C10.7653 8.5 11.0196 8.60536 11.2072 8.79289C11.3947 8.98043 11.5 9.23478 11.5 9.5C11.5 9.76522 11.3947 10.0196 11.2072 10.2071C11.0196 10.3946 10.7653 10.5 10.5 10.5C10.2348 10.5 9.98048 10.3946 9.79294 10.2071C9.60541 10.0196 9.50005 9.76522 9.50005 9.5C9.50005 9.23478 9.60541 8.98043 9.79294 8.79289C9.98048 8.60536 10.2348 8.5 10.5 8.5ZM8.50005 14.5C8.50005 14.2348 8.60541 13.9804 8.79294 13.7929C8.98048 13.6054 9.23483 13.5 9.50005 13.5C9.76527 13.5 10.0196 13.6054 10.2072 13.7929C10.3947 13.9804 10.5 14.2348 10.5 14.5C10.5 14.7652 10.3947 15.0196 10.2072 15.2071C10.0196 15.3946 9.76527 15.5 9.50005 15.5C9.23483 15.5 8.98048 15.3946 8.79294 15.2071C8.60541 15.0196 8.50005 14.7652 8.50005 14.5ZM15.5 12.5C15.7653 12.5 16.0196 12.6054 16.2072 12.7929C16.3947 12.9804 16.5 13.2348 16.5 13.5C16.5 13.7652 16.3947 14.0196 16.2072 14.2071C16.0196 14.3946 15.7653 14.5 15.5 14.5C15.2348 14.5 14.9805 14.3946 14.7929 14.2071C14.6054 14.0196 14.5 13.7652 14.5 13.5C14.5 13.2348 14.6054 12.9804 14.7929 12.7929C14.9805 12.6054 15.2348 12.5 15.5 12.5Z" fill="black"/>
</svg>
