<svg width="24" height="24" viewBox="0 0 24 24" fill="none" xmlns="http://www.w3.org/2000/svg">
<path d="M3.21268 4.15943C2.88768 3.90318 2.4158 3.96255 2.15955 4.28755C1.9033 4.61255 1.96268 5.08443 2.28768 5.34068L20.7877 19.8407C21.1127 20.0969 21.5846 20.0376 21.8408 19.7126C22.0971 19.3876 22.0377 18.9157 21.7127 18.6594L20.7752 17.9251C20.9189 17.6501 21.0002 17.3344 21.0002 17.0001V7.00005C21.0002 5.89693 20.1033 5.00005 19.0002 5.00005H5.00018C4.7908 5.00005 4.5908 5.0313 4.40018 5.09068L3.21268 4.15943ZM9.39393 9.00318C10.2252 9.04068 10.9689 9.4188 11.4877 10.0001C11.6783 10.2126 11.7252 10.5063 11.6346 10.7594L9.39705 9.00318H9.39393ZM12.3314 11.3063C12.6439 9.98443 13.8314 9.00005 15.2502 9.00005C16.1377 9.00005 16.9377 9.38755 17.4846 10.0001C17.7596 10.3094 17.7346 10.7813 17.4252 11.0594C17.1158 11.3376 16.6439 11.3094 16.3658 11.0001C16.0908 10.6907 15.6908 10.5001 15.2471 10.5001C14.4189 10.5001 13.7471 11.1719 13.7471 12.0001C13.7471 12.1688 13.7752 12.3282 13.8252 12.4813L12.3283 11.3063H12.3314ZM15.1252 13.4938C15.1658 13.4969 15.2096 13.5001 15.2533 13.5001C15.6971 13.5001 16.0971 13.3094 16.3721 13.0001C16.647 12.6907 17.1221 12.6657 17.4314 12.9407C17.7408 13.2157 17.7658 13.6907 17.4908 14.0001C17.2471 14.2719 16.9533 14.5001 16.6252 14.6688L15.1283 13.4938H15.1252ZM3.00018 7.78755V17.0001C3.00018 18.1032 3.89705 19.0001 5.00018 19.0001H17.2314L11.2189 14.2626C10.6939 14.7219 10.0033 15.0001 9.25018 15.0001C7.59393 15.0001 6.25018 13.6563 6.25018 12.0001C6.25018 11.5001 6.37205 11.0282 6.58768 10.6157L3.00018 7.78755ZM9.25018 13.5001C9.52205 13.5001 9.7783 13.4282 9.99705 13.3001L7.80955 11.5782C7.76893 11.7126 7.75018 11.8532 7.75018 12.0001C7.75018 12.8282 8.42205 13.5001 9.25018 13.5001Z" fill="black"/>
</svg>
