<svg width="24" height="24" viewBox="0 0 24 24" fill="none" xmlns="http://www.w3.org/2000/svg">
<path d="M6.225 7.66875L5.40937 10H14.5906L13.775 7.66875C13.6344 7.26875 13.2563 7 12.8313 7H7.16875C6.74375 7 6.36562 7.26875 6.225 7.66875ZM3.2375 10.15L4.3375 7.00938C4.75938 5.80625 5.89375 5 7.16875 5H12.8313C14.1063 5 15.2406 5.80625 15.6625 7.00938L16.7281 10.0531C14.0562 10.4281 12 12.725 12 15.5C12 15.8406 12.0312 16.175 12.0906 16.5H5V18C5 18.5531 4.55313 19 4 19H3C2.44687 19 2 18.5531 2 18V16.5V12C2 11.1656 2.5125 10.45 3.2375 10.15ZM6 13C6 12.7348 5.89464 12.4804 5.70711 12.2929C5.51957 12.1054 5.26522 12 5 12C4.73478 12 4.48043 12.1054 4.29289 12.2929C4.10536 12.4804 4 12.7348 4 13C4 13.2652 4.10536 13.5196 4.29289 13.7071C4.48043 13.8946 4.73478 14 5 14C5.26522 14 5.51957 13.8946 5.70711 13.7071C5.89464 13.5196 6 13.2652 6 13ZM17.5 11C18.6935 11 19.8381 11.4741 20.682 12.318C21.5259 13.1619 22 14.3065 22 15.5C22 16.6935 21.5259 17.8381 20.682 18.682C19.8381 19.5259 18.6935 20 17.5 20C16.3065 20 15.1619 19.5259 14.318 18.682C13.4741 17.8381 13 16.6935 13 15.5C13 14.3065 13.4741 13.1619 14.318 12.318C15.1619 11.4741 16.3065 11 17.5 11ZM18.9969 12.9688C18.8625 12.8531 18.6656 12.8437 18.525 12.95L15.525 15.2C15.3969 15.2969 15.3438 15.4656 15.3938 15.6187C15.4438 15.7719 15.5875 15.875 15.75 15.875H16.8625L15.9219 17.5688C15.8344 17.725 15.8688 17.9156 16.0031 18.0344C16.1375 18.1531 16.3344 18.1594 16.475 18.0531L19.475 15.8031C19.6031 15.7063 19.6563 15.5375 19.6063 15.3844C19.5563 15.2312 19.4125 15.1281 19.25 15.1281H18.1375L19.0781 13.4344C19.1656 13.2781 19.1313 13.0875 18.9969 12.9688Z" fill="black"/>
</svg>
