<svg width="24" height="24" viewBox="0 0 24 24" fill="none" xmlns="http://www.w3.org/2000/svg">
<path d="M7.99988 3.99995C5.87488 3.99995 4.13738 5.6562 4.00613 7.74995C4.00613 7.7562 4.00613 7.75933 4.00613 7.76558L3.99988 7.99995H4.24676H4.24988H3.99988V9.04058C3.99988 9.9187 4.50926 10.7156 5.30613 11.0843L7.09051 11.9062C6.97488 12.0937 6.87488 12.2937 6.79051 12.5H5.61863L4.72488 12.0531C4.47801 11.9281 4.17801 12.0312 4.05301 12.2781C3.92801 12.525 4.03113 12.825 4.27801 12.95L5.27801 13.45C5.34676 13.4843 5.42488 13.5031 5.50301 13.5031H6.53113C6.50926 13.6656 6.49988 13.8343 6.49988 14.0031V14.3093L5.84051 14.5281C5.76551 14.5531 5.69988 14.5937 5.64363 14.65L4.64363 15.65C4.44988 15.8437 4.44988 16.1625 4.64363 16.3562C4.83738 16.55 5.15613 16.55 5.34988 16.3562L6.26863 15.4375L7.14363 15.1468L8.10301 16.1062L6.84051 16.525C6.76551 16.55 6.69988 16.5906 6.64363 16.6468L5.64363 17.6468C5.44988 17.8406 5.44988 18.1593 5.64363 18.3531C5.83738 18.5468 6.15613 18.5468 6.34988 18.3531L7.26863 17.4375L8.89363 16.8968L9.38426 17.3875L8.24051 18.0718C8.09051 18.1625 7.99676 18.325 7.99676 18.5V19.5C7.99676 19.775 8.22176 20 8.49676 20C8.77176 20 8.99676 19.775 8.99676 19.5V18.7843L10.3061 18H13.6936L14.9999 18.7843V19.5C14.9999 19.775 15.2249 20 15.4999 20C15.7749 20 15.9999 19.775 15.9999 19.5V18.5C15.9999 18.325 15.9061 18.1625 15.7561 18.0718L14.6124 17.3875L15.103 16.8968L16.728 17.4375L17.6436 18.3531C17.8374 18.5468 18.1561 18.5468 18.3499 18.3531C18.5436 18.1593 18.5436 17.8406 18.3499 17.6468L17.3499 16.6468C17.2936 16.5906 17.228 16.55 17.153 16.525L15.8905 16.1031L16.8499 15.1437L17.7249 15.4343L18.6405 16.35C18.8343 16.5437 19.153 16.5437 19.3468 16.35C19.5405 16.1562 19.5405 15.8375 19.3468 15.6437L18.3468 14.6437C18.2905 14.5875 18.2249 14.5468 18.1499 14.5218L17.4905 14.3031V14C17.4905 13.8312 17.4811 13.6625 17.4593 13.5H18.4905C18.5686 13.5 18.6436 13.4812 18.7155 13.4468L19.7155 12.9468C19.9624 12.8218 20.0624 12.5218 19.9405 12.275C19.8186 12.0281 19.5155 11.9281 19.2686 12.05L18.3811 12.5H17.2093C17.1249 12.2937 17.0249 12.0937 16.9093 11.9062L18.6936 11.0843C19.4905 10.7156 19.9999 9.9187 19.9999 9.04058V7.99995H19.7499H19.753H19.9999L19.9936 7.76558C19.9936 7.76245 19.9936 7.7562 19.9936 7.75308C19.8624 5.6562 18.1249 3.99995 15.9999 3.99995H14.603C14.3811 3.99995 14.2686 4.2687 14.4249 4.42808L15.5718 5.57495C15.728 5.7312 15.6186 6.00308 15.3936 6.00308H14.2499C14.1124 6.00308 13.9968 6.11558 14.0155 6.25308C14.1374 7.24058 14.9811 8.00308 15.9999 8.00308H18.4999V9.0437C18.4999 9.33745 18.3311 9.60308 18.0655 9.72495L15.8343 10.75C15.3061 10.3687 14.678 10.1156 13.9999 10.0312V8.49995C13.9999 8.22495 13.7749 7.99995 13.4999 7.99995C13.2249 7.99995 12.9999 8.22495 12.9999 8.49995V9.99995H10.9999V8.49995C10.9999 8.22495 10.7749 7.99995 10.4999 7.99995C10.2249 7.99995 9.99988 8.22495 9.99988 8.49995V10.0312C9.32176 10.1156 8.69676 10.3718 8.16551 10.75L5.93426 9.72183C5.66863 9.59995 5.49988 9.3312 5.49988 9.04058V7.99995H7.99988C9.01863 7.99995 9.86238 7.23745 9.98426 6.24995C9.99988 6.11245 9.88738 5.99995 9.74988 5.99995H8.60301C8.38113 5.99995 8.26863 5.7312 8.42488 5.57183L9.57176 4.42495C9.72801 4.2687 9.61863 3.99683 9.39363 3.99683H7.99988V3.99995Z" fill="black"/>
</svg>
