<svg width="24" height="24" viewBox="0 0 24 24" fill="none" xmlns="http://www.w3.org/2000/svg">
<path d="M12 4C9.87827 4 7.84344 4.84285 6.34315 6.34315C4.84285 7.84344 4 9.87827 4 12C4 14.1217 4.84285 16.1566 6.34315 17.6569C7.84344 19.1571 9.87827 20 12 20C14.1217 20 16.1566 19.1571 17.6569 17.6569C19.1571 16.1566 20 14.1217 20 12C20 9.87827 19.1571 7.84344 17.6569 6.34315C16.1566 4.84285 14.1217 4 12 4ZM11.25 16.25V12.2281L9.375 9.41563C9.14375 9.07188 9.2375 8.60625 9.58437 8.375C9.93125 8.14375 10.3937 8.2375 10.625 8.58437L12.625 11.5844C12.7062 11.7062 12.75 11.8531 12.75 12V16.25C12.75 16.6656 12.4156 17 12 17C11.5844 17 11.25 16.6656 11.25 16.25Z" fill="black"/>
</svg>
