<svg width="24" height="24" viewBox="0 0 24 24" fill="none" xmlns="http://www.w3.org/2000/svg">
<path d="M3 4C2.44687 4 2 4.44687 2 5C2 5.55313 2.44687 6 3 6H3.5C3.775 6 4 6.225 4 6.5V15.5C4 16.8813 5.11875 18 6.5 18H7.08437C7.02812 18.1562 7 18.325 7 18.5C7 19.3281 7.67188 20 8.5 20C9.32812 20 10 19.3281 10 18.5C10 18.325 9.96875 18.1562 9.91563 18H16.0844C16.0281 18.1562 16 18.325 16 18.5C16 19.3281 16.6719 20 17.5 20C18.3281 20 19 19.3281 19 18.5C19 18.325 18.9688 18.1562 18.9156 18H21C21.5531 18 22 17.5531 22 17C22 16.4469 21.5531 16 21 16H6.5C6.225 16 6 15.775 6 15.5V6.5C6 5.11875 4.88125 4 3.5 4H3ZM9 5C8.44688 5 8 5.44687 8 6V13C8 13.5531 8.44688 14 9 14H13C13.5531 14 14 13.5531 14 13V6C14 5.44687 13.5531 5 13 5H9ZM15 6V8C15 8.55312 15.4469 9 16 9H18C18.5531 9 19 8.55312 19 8V6C19 5.44687 18.5531 5 18 5H16C15.4469 5 15 5.44687 15 6ZM16 10C15.4469 10 15 10.4469 15 11V13C15 13.5531 15.4469 14 16 14H20C20.5531 14 21 13.5531 21 13V11C21 10.4469 20.5531 10 20 10H16Z" fill="black"/>
</svg>
