<svg width="24" height="24" viewBox="0 0 24 24" fill="none" xmlns="http://www.w3.org/2000/svg">
<path d="M8.225 7.66875L7.40937 10H16.5906L15.775 7.66875C15.6344 7.26875 15.2563 7 14.8313 7H9.16875C8.74375 7 8.36562 7.26875 8.225 7.66875ZM5.2375 10.15L6.3375 7.00938C6.75938 5.80625 7.89375 5 9.16875 5H14.8313C16.1063 5 17.2406 5.80625 17.6625 7.00938L18.7625 10.15C19.4875 10.45 20 11.1656 20 12V16.5V18C20 18.5531 19.5531 19 19 19H18C17.4469 19 17 18.5531 17 18V16.5H7V18C7 18.5531 6.55313 19 6 19H5C4.44687 19 4 18.5531 4 18V16.5V12C4 11.1656 4.5125 10.45 5.2375 10.15ZM8 13C8 12.7348 7.89464 12.4804 7.70711 12.2929C7.51957 12.1054 7.26522 12 7 12C6.73478 12 6.48043 12.1054 6.29289 12.2929C6.10536 12.4804 6 12.7348 6 13C6 13.2652 6.10536 13.5196 6.29289 13.7071C6.48043 13.8946 6.73478 14 7 14C7.26522 14 7.51957 13.8946 7.70711 13.7071C7.89464 13.5196 8 13.2652 8 13ZM17 14C17.2652 14 17.5196 13.8946 17.7071 13.7071C17.8946 13.5196 18 13.2652 18 13C18 12.7348 17.8946 12.4804 17.7071 12.2929C17.5196 12.1054 17.2652 12 17 12C16.7348 12 16.4804 12.1054 16.2929 12.2929C16.1054 12.4804 16 12.7348 16 13C16 13.2652 16.1054 13.5196 16.2929 13.7071C16.4804 13.8946 16.7348 14 17 14Z" fill="black"/>
</svg>
