<svg width="24" height="24" viewBox="0 0 24 24" fill="none" xmlns="http://www.w3.org/2000/svg">
<path d="M2 14H6V11H2V14ZM2 16C2 17.1031 2.89688 18 4 18H6V15H2V16ZM11 18V15H7V18H11ZM11 11H7V14H11V11ZM11 6H7V10H11V6ZM20 6H12V18H20C21.1031 18 22 17.1031 22 16V8C22 6.89688 21.1031 6 20 6ZM3.38125 10H5.75H6V9V7.38125C6 7.15937 5.71875 7.03438 5.53125 7.15C5.15625 7.37188 4.71875 7.5 4.25 7.5C4.125 7.5 4.00312 7.49062 3.88437 7.47187C3.66562 7.44062 3.44063 7.66562 3.475 7.88125C3.49375 8 3.50312 8.12187 3.50312 8.24687C3.50312 8.71562 3.375 9.15312 3.15 9.52812C3.0375 9.71875 3.1625 9.99687 3.38125 9.99687V10Z" fill="black"/>
</svg>
