<svg width="24" height="24" viewBox="0 0 24 24" fill="none" xmlns="http://www.w3.org/2000/svg">
<path d="M18.1812 5.00937L14.2188 8.96875L14.1875 9H11.3094L15.2812 5.03125L15.3125 5H18C18.0625 5 18.1219 5.00312 18.1812 5.00937ZM16.3094 9L19.5625 5.75C19.8375 6.09375 20 6.52812 20 7V9H16.3094ZM10.3094 5H13.1875L9.21875 8.96875L9.1875 9H6.30938L10.2812 5.03125L10.3125 5H10.3094ZM8.1875 5L4.21875 8.96875L4.1875 9H4V7C4 5.89688 4.89688 5 6 5H8.19063H8.1875ZM4 10H20V17C20 18.1031 19.1031 19 18 19H6C4.89688 19 4 18.1031 4 17V10ZM10.7656 12.0594C10.6031 12.1469 10.5 12.3156 10.5 12.5V16.5C10.5 16.6844 10.6 16.8531 10.7656 16.9406C10.9313 17.0281 11.125 17.0187 11.2781 16.9156L14.2781 14.9156C14.4156 14.8219 14.5 14.6656 14.5 14.5C14.5 14.3344 14.4156 14.1781 14.2781 14.0844L11.2781 12.0844C11.125 11.9813 10.9281 11.9719 10.7656 12.0594Z" fill="black"/>
</svg>
