<svg width="24" height="24" viewBox="0 0 24 24" fill="none" xmlns="http://www.w3.org/2000/svg">
<path d="M17.9156 11H16C15.4469 11 15 11.4469 15 12C15 12.5531 15.4469 13 16 13H17.9156C17.4969 15.5125 15.5125 17.4969 13 17.9156V16C13 15.4469 12.5531 15 12 15C11.4469 15 11 15.4469 11 16V17.9156C8.4875 17.4969 6.50312 15.5125 6.08437 13H8C8.55312 13 9 12.5531 9 12C9 11.4469 8.55312 11 8 11H6.08437C6.50312 8.4875 8.4875 6.50312 11 6.08437V8C11 8.55312 11.4469 9 12 9C12.5531 9 13 8.55312 13 8V6.08437C15.5125 6.50312 17.4969 8.4875 17.9156 11ZM4 12C4 14.1217 4.84285 16.1566 6.34315 17.6569C7.84344 19.1571 9.87827 20 12 20C14.1217 20 16.1566 19.1571 17.6569 17.6569C19.1571 16.1566 20 14.1217 20 12C20 9.87827 19.1571 7.84344 17.6569 6.34315C16.1566 4.84285 14.1217 4 12 4C9.87827 4 7.84344 4.84285 6.34315 6.34315C4.84285 7.84344 4 9.87827 4 12Z" fill="black"/>
</svg>
