<svg width="24" height="24" viewBox="0 0 24 24" fill="none" xmlns="http://www.w3.org/2000/svg">
<path d="M10 6.5C10 5.67188 10.6719 5 11.5 5H12.5C13.3281 5 14 5.67188 14 6.5V17.5C14 18.3281 13.3281 19 12.5 19H11.5C10.6719 19 10 18.3281 10 17.5V6.5ZM5 12.5C5 11.6719 5.67188 11 6.5 11H7.5C8.32812 11 9 11.6719 9 12.5V17.5C9 18.3281 8.32812 19 7.5 19H6.5C5.67188 19 5 18.3281 5 17.5V12.5ZM16.5 7H17.5C18.3281 7 19 7.67188 19 8.5V17.5C19 18.3281 18.3281 19 17.5 19H16.5C15.6719 19 15 18.3281 15 17.5V8.5C15 7.67188 15.6719 7 16.5 7Z" fill="black"/>
</svg>
