<svg width="24" height="24" viewBox="0 0 24 24" fill="none" xmlns="http://www.w3.org/2000/svg">
<path d="M11.1938 4.0375C11.3531 4.10313 11.4656 4.24688 11.4938 4.41563L11.8188 6.36563C11.0906 6.70313 10.4781 7.25313 10.0688 7.9375C9.6125 7.65625 9.075 7.49688 8.5 7.49688C6.84375 7.49688 5.5 8.84063 5.5 10.4969C5.5 11.6063 6.10313 12.5781 7 13.0969C7.025 14.0906 7.4125 14.9938 8.03438 15.6813L6.28438 16.9063C6.14375 17.0031 5.9625 17.025 5.80313 16.9563C5.64375 16.8875 5.53125 16.7469 5.50313 16.5781L5.06563 13.9344L2.41875 13.4938C2.25 13.4656 2.10625 13.3531 2.04063 13.1938C1.975 13.0344 1.99375 12.8531 2.09063 12.7125L3.64063 10.5L2.09063 8.2875C1.99063 8.14688 1.97188 7.96563 2.04063 7.80625C2.10938 7.64688 2.25 7.53438 2.41875 7.50625L5.06563 7.06563L5.50625 4.41875C5.53438 4.25 5.64688 4.10625 5.80625 4.04063C5.96563 3.975 6.14688 3.99375 6.2875 4.09063L8.5 5.64063L10.7125 4.09063C10.8531 3.99063 11.0344 3.97188 11.1938 4.04063V4.0375ZM8.5 8.5C8.93125 8.5 9.33438 8.6375 9.65938 8.87188C9.62188 9 9.59063 9.13125 9.56563 9.26563C8.38125 9.72188 7.46563 10.7219 7.13438 11.9656C6.74375 11.5969 6.5 11.0781 6.5 10.5C6.5 9.39688 7.39688 8.5 8.5 8.5ZM21.9969 13.4969C21.9969 14.8781 20.8781 15.9969 19.4969 15.9969H18.9156C19.025 15.6813 19.0312 15.3313 18.9156 15.0031C18.7031 14.4031 18.1375 14 17.5 14H16.9281L17.8438 12.1719C18.1594 11.5406 17.9938 10.7781 17.4438 10.3344C16.8938 9.89063 16.1125 9.89063 15.5625 10.3281L10.5625 14.3281C10.1094 14.6906 9.90938 15.2813 10.0375 15.8406C8.85313 15.4406 8 14.3188 8 13C8 11.5125 9.08125 10.2813 10.5 10.0438V10.0031C10.5 8.34688 11.8438 7.00313 13.5 7.00313C14.5906 7.00313 15.5438 7.58438 16.0688 8.45313C16.475 8.16875 16.9688 8.00313 17.5 8.00313C18.8813 8.00313 20 9.12188 20 10.5031C20 10.6875 19.9812 10.8688 19.9406 11.0406C21.1094 11.25 21.9969 12.2719 21.9969 13.5V13.4969ZM16.8156 11.1125C16.9969 11.2594 17.0531 11.5156 16.95 11.725L15.3094 15H17.5C17.7125 15 17.9 15.1344 17.9719 15.3344C18.0438 15.5344 17.9781 15.7563 17.8125 15.8906L12.8125 19.8906C12.6281 20.0375 12.3688 20.0375 12.1844 19.8875C12 19.7375 11.9469 19.4844 12.05 19.275L13.6906 16H11.5C11.2875 16 11.1 15.8656 11.0281 15.6656C10.9563 15.4656 11.0219 15.2438 11.1875 15.1094L16.1875 11.1094C16.3719 10.9625 16.6313 10.9625 16.8156 11.1125Z" fill="black"/>
</svg>
