<svg width="24" height="24" viewBox="0 0 24 24" fill="none" xmlns="http://www.w3.org/2000/svg">
<path d="M7 14C5.34375 14 4 12.6562 4 11C4 9.67188 4.8625 8.54375 6.05938 8.15C6.02188 7.94063 6 7.72187 6 7.5C6 5.56562 7.56562 4 9.5 4C10.8469 4 12.0156 4.75937 12.6 5.875C13.0594 5.34063 13.7406 5 14.5 5C15.8813 5 17 6.11875 17 7.5C17 7.67188 16.9812 7.8375 16.95 8C16.9656 8 16.9844 8 17 8C18.6562 8 20 9.34375 20 11C20 12.6562 18.6562 14 17 14H7ZM6 15C6.41563 15 6.75 15.3344 6.75 15.75V16.25H7.25C7.66563 16.25 8 16.5844 8 17C8 17.4156 7.66563 17.75 7.25 17.75H6.75V18.25C6.75 18.6656 6.41563 19 6 19C5.58438 19 5.25 18.6656 5.25 18.25V17.75H4.75C4.33437 17.75 4 17.4156 4 17C4 16.5844 4.33437 16.25 4.75 16.25H5.25V15.75C5.25 15.3344 5.58438 15 6 15ZM12 16C12.4156 16 12.75 16.3344 12.75 16.75V17.25H13.25C13.6656 17.25 14 17.5844 14 18C14 18.4156 13.6656 18.75 13.25 18.75H12.75V19.25C12.75 19.6656 12.4156 20 12 20C11.5844 20 11.25 19.6656 11.25 19.25V18.75H10.75C10.3344 18.75 10 18.4156 10 18C10 17.5844 10.3344 17.25 10.75 17.25H11.25V16.75C11.25 16.3344 11.5844 16 12 16ZM18.75 15.75V16.25H19.25C19.6656 16.25 20 16.5844 20 17C20 17.4156 19.6656 17.75 19.25 17.75H18.75V18.25C18.75 18.6656 18.4156 19 18 19C17.5844 19 17.25 18.6656 17.25 18.25V17.75H16.75C16.3344 17.75 16 17.4156 16 17C16 16.5844 16.3344 16.25 16.75 16.25H17.25V15.75C17.25 15.3344 17.5844 15 18 15C18.4156 15 18.75 15.3344 18.75 15.75Z" fill="black"/>
</svg>
