<svg width="24" height="24" viewBox="0 0 24 24" fill="none" xmlns="http://www.w3.org/2000/svg">
<path d="M12 18C16.4188 18 20 15.0906 20 11.5C20 7.90937 16.4188 5 12 5C7.58129 5 4.00004 7.90937 4.00004 11.5C4.00004 12.9094 4.55316 14.2125 5.49066 15.2781C5.43129 16.0437 5.13441 16.725 4.82191 17.2437C4.65004 17.5312 4.47504 17.7625 4.34691 17.9187C4.28129 17.9969 4.23129 18.0563 4.19379 18.0969C4.17504 18.1156 4.16254 18.1313 4.15316 18.1406L4.14379 18.15C4.00004 18.2937 3.95941 18.5063 4.03754 18.6938C4.11566 18.8813 4.29691 19.0031 4.50004 19.0031C5.39691 19.0031 6.30004 18.725 7.05004 18.4C7.76566 18.0875 8.37504 17.7156 8.74691 17.4438C9.74066 17.8031 10.8407 18.0031 12 18.0031V18ZM15 8V9V13C15 13.5531 14.3282 14 13.5 14C12.6719 14 12 13.5531 12 13C12 12.4469 12.6719 12 13.5 12C13.675 12 13.8438 12.0187 14 12.0562V9.72188L11 10.8469V14C11 14.5531 10.3282 15 9.50004 15C8.67191 15 8.00004 14.5531 8.00004 14C8.00004 13.4469 8.67191 13 9.50004 13C9.67504 13 9.84379 13.0187 10 13.0562V10.5V9.5C10 9.29063 10.1282 9.10625 10.325 9.03125L14.325 7.53125C14.4782 7.475 14.65 7.49375 14.7844 7.5875C14.9188 7.68125 15 7.83437 15 8Z" fill="black"/>
</svg>
