<svg width="24" height="24" viewBox="0 0 24 24" fill="none" xmlns="http://www.w3.org/2000/svg">
<path d="M7.35313 7H9V10H5.47813L6.42812 7.62812C6.57812 7.25 6.94375 7 7.35313 7ZM10.5 10V7H13.0375C13.3406 7 13.6281 7.1375 13.8188 7.375L15.9187 10H10.5ZM18.5063 10.0312L15.3813 6.125C14.8125 5.4125 13.95 5 13.0375 5H7.35313C6.125 5 5.02187 5.74688 4.56875 6.88438L3.26875 10.1375C2.525 10.4312 2 11.1531 2 12V15.5C2 16.0531 2.44687 16.5 3 16.5H4.04063C4.27813 17.9188 5.5125 19 7 19C8.4875 19 9.72187 17.9188 9.95937 16.5H14.0406C14.2781 17.9188 15.5125 19 17 19C18.4875 19 19.7219 17.9188 19.9594 16.5H21C21.5531 16.5 22 16.0531 22 15.5V14C22 11.9625 20.475 10.2812 18.5063 10.0312ZM15.5844 15.5C15.648 15.3118 15.7485 15.138 15.8798 14.9889C16.0112 14.8398 16.1709 14.7183 16.3496 14.6314C16.5283 14.5446 16.7226 14.4941 16.921 14.4829C17.1194 14.4717 17.318 14.5001 17.5054 14.5663C17.6927 14.6326 17.8651 14.7354 18.0123 14.8688C18.1596 15.0022 18.2789 15.1635 18.3633 15.3435C18.4477 15.5234 18.4955 15.7182 18.504 15.9168C18.5124 16.1153 18.4813 16.3136 18.4125 16.5C18.3488 16.6882 18.2484 16.862 18.117 17.0111C17.9857 17.1602 17.826 17.2817 17.6473 17.3686C17.4685 17.4554 17.2743 17.5059 17.0759 17.5171C16.8775 17.5283 16.6789 17.4999 16.4915 17.4337C16.3041 17.3674 16.1318 17.2646 15.9845 17.1312C15.8373 16.9978 15.7179 16.8365 15.6335 16.6565C15.5492 16.4766 15.5013 16.2818 15.4929 16.0832C15.4845 15.8847 15.5156 15.6864 15.5844 15.5ZM7 14.5C7.39782 14.5 7.77936 14.658 8.06066 14.9393C8.34196 15.2206 8.5 15.6022 8.5 16C8.5 16.3978 8.34196 16.7794 8.06066 17.0607C7.77936 17.342 7.39782 17.5 7 17.5C6.60218 17.5 6.22064 17.342 5.93934 17.0607C5.65804 16.7794 5.5 16.3978 5.5 16C5.5 15.6022 5.65804 15.2206 5.93934 14.9393C6.22064 14.658 6.60218 14.5 7 14.5Z" fill="black"/>
</svg>
