<svg width="24" height="24" viewBox="0 0 24 24" fill="none" xmlns="http://www.w3.org/2000/svg">
<path d="M6.26553 11.875C6.22178 11.9531 6.22178 12.0469 6.26553 12.125L9.0249 16.9031C9.06865 16.9812 9.15303 17.0281 9.24053 17.0281H14.7593C14.8499 17.0281 14.9312 16.9812 14.9749 16.9031L17.7343 12.125C17.778 12.0469 17.778 11.9531 17.7343 11.875L14.9749 7.09686C14.9312 7.01874 14.8468 6.97186 14.7593 6.97186H9.24053C9.1499 6.97186 9.06865 7.01874 9.0249 7.09686L6.26553 11.875ZM4.53428 13.125C4.13115 12.4281 4.13115 11.5719 4.53428 10.875L7.29365 6.09686C7.69678 5.39999 8.4374 4.97186 9.24365 4.97186H14.7593C15.5624 4.97186 16.3062 5.39999 16.7093 6.09686L19.4655 10.875C19.8687 11.5719 19.8687 12.4281 19.4655 13.125L16.7062 17.9031C16.303 18.6 15.5624 19.0281 14.7562 19.0281H9.24053C8.4374 19.0281 7.69365 18.6 7.29053 17.9031L4.53428 13.125ZM13.0687 9.64999L14.3249 12.7937C14.8593 12.9375 15.2499 13.4219 15.2499 14C15.2499 14.6906 14.6905 15.25 13.9999 15.25C13.503 15.25 13.0718 14.9594 12.8718 14.5406L9.83428 13.9344C9.6124 14.1312 9.32178 14.2531 8.9999 14.2531C8.30928 14.2531 7.7499 13.6937 7.7499 13.0031C7.7499 12.3125 8.30928 11.7531 8.9999 11.7531L10.7999 9.35311C10.7687 9.24061 10.7499 9.12499 10.7499 9.00311C10.7499 8.31249 11.3093 7.75311 11.9999 7.75311C12.6905 7.75311 13.2499 8.31249 13.2499 9.00311C13.2499 9.24061 13.1843 9.46249 13.0687 9.65311V9.64999ZM10.3124 12.4969L12.7874 12.9906L11.7968 10.5156L10.3124 12.4969Z" fill="black"/>
</svg>
