<svg width="24" height="24" viewBox="0 0 24 24" fill="none" xmlns="http://www.w3.org/2000/svg">
<path d="M19.8594 10.5527C19.7531 10.9371 19.2625 10.9215 19.0656 10.5746C18.8969 10.2777 18.7125 9.99646 18.5156 9.76209C17.6531 8.74334 16.6156 8.37146 15.7 8.04334L15.6687 8.03396C14.7312 7.69959 13.925 7.40271 13.2469 6.59959C12.9094 6.19959 12.5813 5.55584 12.3313 4.97459C12.2781 4.84959 12.3125 4.70271 12.425 4.62459C14.0281 3.49959 16.5406 3.91834 18.3125 5.68709C19.7406 7.11521 20.2875 9.02146 19.8594 10.5496V10.5527ZM11.1406 6.44646C11.2469 6.06209 11.7375 6.07771 11.9344 6.42459C12.1 6.72146 12.2875 7.00271 12.4844 7.23709C13.3469 8.25584 14.3844 8.62771 15.3 8.95584L15.3313 8.96521C16.2688 9.29959 17.075 9.59646 17.7531 10.3996C18.0906 10.7996 18.4187 11.4433 18.6687 12.0246C18.7219 12.1496 18.6875 12.2965 18.575 12.3746C16.9719 13.4996 14.4594 13.0808 12.6875 11.3121C11.2594 9.88396 10.7125 7.97771 11.1406 6.44959V6.44646ZM6.35938 10.4371C6.70937 10.2402 7.04688 10.5996 6.9375 10.9871C6.84687 11.3152 6.775 11.6496 6.75 11.9558C6.6375 13.2933 7.1125 14.2965 7.53125 15.1808L7.54375 15.209C7.97188 16.1121 8.33437 16.8996 8.24687 17.9527C8.20312 18.4746 7.97813 19.1683 7.74375 19.7621C7.69375 19.8902 7.5625 19.9683 7.42812 19.9433C5.49062 19.6027 4 17.5183 4 14.9996C4 12.9683 4.96875 11.2215 6.35938 10.4371ZM9.64062 19.5621C9.29063 19.759 8.95312 19.3996 9.0625 19.0121C9.15313 18.684 9.225 18.3496 9.25 18.0433C9.3625 16.7058 8.8875 15.7027 8.46875 14.8183L8.45625 14.7902C8.02813 13.8871 7.66562 13.0996 7.75312 12.0465C7.79687 11.5246 8.02187 10.8308 8.25625 10.2371C8.30625 10.109 8.4375 10.0308 8.57188 10.0558C10.5094 10.3965 12 12.4808 12 14.9996C12 17.0308 11.0312 18.7777 9.64062 19.5621Z" fill="black"/>
</svg>
