<svg width="24" height="24" viewBox="0 0 24 24" fill="none" xmlns="http://www.w3.org/2000/svg">
<path d="M2.23436 10.0906C1.75311 9.25936 2.03749 8.19374 2.87186 7.71249L8.89686 4.23436C9.72811 3.75311 10.7937 4.03749 11.275 4.87186L16.4937 13.9125C16.975 14.7437 16.6875 15.8094 15.8562 16.2906L9.82811 19.7656C8.99686 20.2469 7.93124 19.9594 7.44999 19.1281L2.23436 10.0906ZM8.15624 8.98749C7.80936 8.89374 7.44999 9.09999 7.35624 9.44999L7.13124 10.2906L6.49374 12.6687C6.27499 13.4812 6.75936 14.3156 7.56874 14.5344C8.37811 14.7531 9.21561 14.2687 9.43436 13.4594L9.50936 13.1844C9.51249 13.1719 9.51561 13.1594 9.51874 13.15L10.0719 14.1094L9.69374 14.3281C9.48436 14.4469 9.41561 14.7156 9.53436 14.9219C9.65311 15.1281 9.92186 15.2 10.1281 15.0812L11.6344 14.2125C11.8437 14.0937 11.9125 13.825 11.7937 13.6187C11.675 13.4125 11.4062 13.3406 11.2 13.4594L10.8219 13.6781L10.2687 12.7187C10.2812 12.7219 10.2937 12.725 10.3031 12.7281L10.5781 12.8031C11.3906 13.0219 12.225 12.5375 12.4437 11.7281C12.6625 10.9187 12.1781 10.0812 11.3687 9.86249L8.99061 9.22499L8.15624 8.98749ZM16.3562 17.1531C17.6656 16.3969 18.1156 14.7219 17.3594 13.4094L13.0844 6.00624C13.1375 5.99999 13.1937 5.99999 13.25 5.99999H20.25C21.2156 5.99999 22 6.78436 22 7.74999V18.25C22 19.2156 21.2156 20 20.25 20H13.25C12.8219 20 12.4312 19.8469 12.1281 19.5937L16.3562 17.1531ZM18.6844 11.425L20.1875 9.86249C20.625 9.40936 20.6 8.65936 20.1187 8.24061C19.6812 7.87499 19.0406 7.94374 18.6531 8.34061L18.5062 8.50311L18.35 8.34061C17.9594 7.94374 17.3125 7.87186 16.8906 8.24061C16.4 8.66249 16.375 9.41249 16.8125 9.86249L18.325 11.4219C18.4187 11.5219 18.5812 11.5219 18.6844 11.4219V11.425Z" fill="black"/>
</svg>
