<svg width="24" height="24" viewBox="0 0 24 24" fill="none" xmlns="http://www.w3.org/2000/svg">
<path d="M10 4H14C15.1031 4 16 4.89688 16 6V12H8V6C8 4.89688 8.89688 4 10 4ZM7 9V11C7 11.5531 6.55313 12 6 12C5.44687 12 5 11.5531 5 11V9C5 8.44687 5.44687 8 6 8C6.55313 8 7 8.44687 7 9ZM19 9V11C19 11.5531 18.5531 12 18 12C17.4469 12 17 11.5531 17 11V9C17 8.44687 17.4469 8 18 8C18.5531 8 19 8.44687 19 9ZM6.60625 13.5531C6.775 13.2125 7.12187 13 7.5 13H16.5C16.8781 13 17.225 13.2125 17.3938 13.5531L17.8938 14.5531C18.05 14.8625 18.0313 15.2312 17.85 15.525C17.6688 15.8187 17.3469 16 17 16H13V18H14C14.5531 18 15 18.4469 15 19C15 19.5531 14.5531 20 14 20H12H10C9.44687 20 9 19.5531 9 19C9 18.4469 9.44687 18 10 18H11V16H7C6.65312 16 6.33125 15.8219 6.15 15.525C5.96875 15.2281 5.95 14.8625 6.10625 14.5531L6.60625 13.5531Z" fill="black"/>
</svg>
