<svg width="24" height="24" viewBox="0 0 24 24" fill="none" xmlns="http://www.w3.org/2000/svg">
<path d="M2 7.54375C2 6.14062 3.14062 5 4.54375 5C5.50625 5 6.3875 5.54375 6.81875 6.40625L6.89062 6.55312C7.1375 7.04687 6.9375 7.64687 6.44375 7.89375C5.95 8.14062 5.35 7.94063 5.10313 7.44688L5.03125 7.3C4.9375 7.11562 4.75 7 4.54375 7C4.24375 7 4 7.24375 4 7.54375V16.4563C4 16.7563 4.24375 17 4.54375 17C4.75 17 4.9375 16.8844 5.03125 16.7L5.10313 16.5531C5.35 16.0594 5.95 15.8594 6.44375 16.1062C6.9375 16.3531 7.1375 16.9531 6.89062 17.4469L6.81875 17.5938C6.3875 18.4563 5.50625 19 4.54375 19C3.14062 19 2 17.8594 2 16.4563V7.54375ZM9 5C9.55313 5 10 5.44687 10 6V11H13V6C13 5.44687 13.4469 5 14 5C14.5531 5 15 5.44687 15 6V18C15 18.5531 14.5531 19 14 19C13.4469 19 13 18.5531 13 18V13H10V18C10 18.5531 9.55313 19 9 19C8.44687 19 8 18.5531 8 18V6C8 5.44687 8.44687 5 9 5ZM16 6C16 5.44687 16.4469 5 17 5H21C21.5531 5 22 5.44687 22 6C22 6.55313 21.5531 7 21 7H18V11H20C20.5531 11 21 11.4469 21 12C21 12.5531 20.5531 13 20 13H18V18C18 18.5531 17.5531 19 17 19C16.4469 19 16 18.5531 16 18V6Z" fill="black"/>
</svg>
