<svg width="24" height="24" viewBox="0 0 24 24" fill="none" xmlns="http://www.w3.org/2000/svg">
<path d="M8.49998 15C12.0906 15 15 12.5375 15 9.5C15 6.4625 12.0906 4 8.49998 4C4.90935 4 1.99998 6.4625 1.99998 9.5C1.99998 10.7063 2.45935 11.8219 3.23748 12.7312C3.1281 13.025 2.9656 13.2844 2.79373 13.5031C2.64373 13.6969 2.4906 13.8469 2.3781 13.95C2.32185 14 2.27498 14.0406 2.24373 14.0656C2.2281 14.0781 2.2156 14.0875 2.20935 14.0906L2.2031 14.0969C2.03123 14.225 1.95623 14.45 2.02498 14.6531C2.09373 14.8562 2.28435 15 2.49998 15C3.18123 15 3.86873 14.825 4.4406 14.6094C4.7281 14.5 4.99685 14.3781 5.23123 14.2531C6.1906 14.7281 7.30623 15 8.49998 15ZM16 9.5C16 13.0094 12.9031 15.6531 9.23435 15.9688C9.99373 18.2937 12.5125 20 15.5 20C16.6937 20 17.8094 19.7281 18.7719 19.2531C19.0062 19.3781 19.2719 19.5 19.5594 19.6094C20.1312 19.825 20.8187 20 21.5 20C21.7156 20 21.9094 19.8594 21.975 19.6531C22.0406 19.4469 21.9687 19.2219 21.7937 19.0938L21.7875 19.0875C21.7812 19.0812 21.7687 19.075 21.7531 19.0625C21.7218 19.0375 21.675 19 21.6187 18.9469C21.5062 18.8438 21.3531 18.6938 21.2031 18.5C21.0312 18.2812 20.8687 18.0187 20.7593 17.7281C21.5375 16.8219 21.9969 15.7063 21.9969 14.4969C21.9969 11.5969 19.3437 9.21875 15.9781 9.0125C15.9906 9.17188 15.9969 9.33437 15.9969 9.49687L16 9.5Z" fill="black"/>
</svg>
