<svg width="24" height="24" viewBox="0 0 24 24" fill="none" xmlns="http://www.w3.org/2000/svg">
<path d="M12 4C9.87827 4 7.84344 4.84285 6.34315 6.34315C4.84285 7.84344 4 9.87827 4 12C4 14.1217 4.84285 16.1566 6.34315 17.6569C7.84344 19.1571 9.87827 20 12 20C14.1217 20 16.1566 19.1571 17.6569 17.6569C19.1571 16.1566 20 14.1217 20 12C20 9.87827 19.1571 7.84344 17.6569 6.34315C16.1566 4.84285 14.1217 4 12 4ZM15 10.2063V14.5C15 14.775 14.775 15 14.5 15H10.2063C9.81563 15 9.5 14.6844 9.5 14.2937C9.5 14.1062 9.575 13.925 9.70625 13.7937L10.75 12.75L8.67812 10.6781C8.5625 10.5625 8.5 10.4094 8.5 10.25C8.5 10.0906 8.5625 9.9375 8.67812 9.82188L9.825 8.675C9.9375 8.5625 10.0906 8.49687 10.2531 8.49687C10.4156 8.49687 10.5656 8.55938 10.6813 8.675L12.75 10.75L13.7937 9.70625C13.925 9.575 14.1062 9.5 14.2937 9.5C14.6844 9.5 15 9.81563 15 10.2063Z" fill="black"/>
</svg>
