<svg width="24" height="24" viewBox="0 0 24 24" fill="none" xmlns="http://www.w3.org/2000/svg">
<path d="M4 12C4 9.87827 4.84285 7.84344 6.34315 6.34315C7.84344 4.84285 9.87827 4 12 4C14.1217 4 16.1566 4.84285 17.6569 6.34315C19.1571 7.84344 20 9.87827 20 12C20 14.1217 19.1571 16.1566 17.6569 17.6569C16.1566 19.1571 14.1217 20 12 20C9.87827 20 7.84344 19.1571 6.34315 17.6569C4.84285 16.1566 4 14.1217 4 12ZM12.3531 7.14687C12.1594 6.95312 11.8406 6.95312 11.6469 7.14687L8.64687 10.1469C8.50312 10.2906 8.4625 10.5063 8.5375 10.6906C8.6125 10.875 8.79688 11 9 11H15C15.2031 11 15.3844 10.8781 15.4625 10.6906C15.5406 10.5031 15.4969 10.2875 15.3531 10.1469L12.3531 7.14687ZM11.6469 16.8531C11.8406 17.0469 12.1594 17.0469 12.3531 16.8531L15.3531 13.8531C15.4969 13.7094 15.5375 13.4937 15.4625 13.3094C15.3875 13.125 15.2031 13 15 13H9C8.79688 13 8.61562 13.1219 8.5375 13.3094C8.45937 13.4969 8.50312 13.7125 8.64687 13.8531L11.6469 16.8531Z" fill="black"/>
</svg>
