<svg width="24" height="24" viewBox="0 0 24 24" fill="none" xmlns="http://www.w3.org/2000/svg">
<path d="M20 12C20 9.87827 19.1571 7.84344 17.6569 6.34315C16.1566 4.84285 14.1217 4 12 4C9.87827 4 7.84344 4.84285 6.34315 6.34315C4.84285 7.84344 4 9.87827 4 12C4 14.1217 4.84285 16.1566 6.34315 17.6569C7.84344 19.1571 9.87827 20 12 20C14.1217 20 16.1566 19.1571 17.6569 17.6569C19.1571 16.1566 20 14.1217 20 12ZM11.2188 7.96875C11.5125 7.675 11.9875 7.675 12.2781 7.96875C12.5687 8.2625 12.5719 8.7375 12.2781 9.02812L10.0594 11.2469L15.75 11.25C16.1656 11.25 16.5 11.5844 16.5 12C16.5 12.4156 16.1656 12.75 15.75 12.75H10.0594L12.2781 14.9688C12.5719 15.2625 12.5719 15.7375 12.2781 16.0281C11.9844 16.3187 11.5094 16.3219 11.2188 16.0281L7.71875 12.5312C7.425 12.2375 7.425 11.7625 7.71875 11.4719L11.2188 7.96875Z" fill="black"/>
</svg>
