<svg width="24" height="24" viewBox="0 0 24 24" fill="none" xmlns="http://www.w3.org/2000/svg">
<path d="M12 4C12.1656 4 12.3218 4.08437 12.4156 4.22187C12.9093 4.95625 13.5625 6.2125 13.9531 7.62812C14.1781 8.45312 14.3218 9.35313 14.2781 10.2531C14.6375 9.97813 15.0187 9.73125 15.3968 9.51562C16.6781 8.7875 18.0343 8.3625 18.9031 8.1875C19.0656 8.15625 19.2375 8.20625 19.3531 8.325C19.4687 8.44375 19.5218 8.6125 19.4906 8.77812C19.3156 9.64375 18.8875 10.9938 18.1562 12.2688C17.8718 12.7656 17.5343 13.2594 17.1437 13.7156C18.0125 13.9219 18.7812 14.2562 19.2437 14.5125C19.4031 14.6 19.5 14.7687 19.5 14.95C19.5 15.1312 19.4 15.3 19.2437 15.3875C18.7687 15.65 17.9656 15.9969 17.0625 16.2031C16.4312 16.3469 15.7218 16.4281 15.025 16.3469L15.2843 17.3813C15.3312 17.5719 15.2656 17.7688 15.1125 17.8938C14.9593 18.0188 14.75 18.0375 14.575 17.9531L12.75 17.0375V19.25C12.75 19.6656 12.4156 20 12 20C11.5843 20 11.25 19.6656 11.25 19.25V17.0375L9.42183 17.9469C9.24683 18.0344 9.03745 18.0125 8.88433 17.8875C8.7312 17.7625 8.66558 17.5656 8.71245 17.375L8.97183 16.3406C8.27808 16.4219 7.56558 16.3406 6.93433 16.1969C6.0312 15.9906 5.22808 15.6469 4.75308 15.3813C4.5937 15.2938 4.49683 15.125 4.49683 14.9438C4.49683 14.7625 4.59683 14.5938 4.75308 14.5063C5.21558 14.25 5.98433 13.9188 6.85308 13.7094C6.46558 13.2594 6.12808 12.7656 5.8437 12.2688C5.11245 10.9938 4.68433 9.64375 4.50933 8.77812C4.47495 8.61562 4.52808 8.44375 4.64683 8.325C4.76558 8.20625 4.93433 8.15625 5.09683 8.1875C5.9687 8.35938 7.32183 8.7875 8.60308 9.51562C8.9812 9.73125 9.36245 9.975 9.72183 10.2531C9.67808 9.35625 9.8187 8.45312 10.0468 7.62812C10.4375 6.2125 11.0906 4.95625 11.5843 4.22187C11.6781 4.08437 11.8343 4 12 4Z" fill="black"/>
</svg>
