<svg width="24" height="24" viewBox="0 0 24 24" fill="none" xmlns="http://www.w3.org/2000/svg">
<path d="M19.9999 9C19.9999 11.2094 18.2093 13 15.9999 13C13.7906 13 11.9999 11.2094 11.9999 9C11.9999 7.98438 12.3781 7.05938 12.9999 6.35313V9C12.9999 10.6562 14.3437 12 15.9999 12C17.6562 12 18.9999 10.6562 18.9999 9V6.35313C19.6218 7.05938 19.9999 7.98438 19.9999 9ZM14.8499 6.8L13.9312 5.575C14.5343 5.20938 15.2437 5 15.9999 5C16.7562 5 17.4656 5.20938 18.0687 5.575L17.1499 6.8C17.0562 6.925 16.9062 7 16.7499 7H15.2499C15.0937 7 14.9437 6.925 14.8499 6.8ZM16.9999 13.9C19.2812 13.4375 20.9999 11.4187 20.9999 9C20.9999 6.2375 18.7624 4 15.9999 4C13.2374 4 10.9999 6.2375 10.9999 9C10.9999 9.36562 11.0406 9.72188 11.1124 10.0656C9.39682 10.3188 7.91869 11.3 6.99994 12.6844V10.0156C6.99994 8.50313 5.87182 7.225 4.37182 7.0375L4.12494 7.00625C3.57494 6.94062 3.07494 7.32812 3.00619 7.875C2.93744 8.42188 3.32494 8.92188 3.87494 8.99062L4.12182 9.02187C4.62182 9.08437 4.99682 9.50938 4.99682 10.0156V17C4.99682 18.6562 6.34057 20 7.99682 20H12.4999C13.0531 20 13.4999 19.5531 13.4999 19C13.4999 18.4469 13.0531 18 12.4999 18H10.7499L14.9999 14.6V19C14.9999 19.5531 15.4468 20 15.9999 20C16.5531 20 16.9999 19.5531 16.9999 19V13.9ZM14.4999 9C14.4999 8.86739 14.5526 8.74021 14.6464 8.64645C14.7402 8.55268 14.8673 8.5 14.9999 8.5C15.1325 8.5 15.2597 8.55268 15.3535 8.64645C15.4473 8.74021 15.4999 8.86739 15.4999 9C15.4999 9.13261 15.4473 9.25979 15.3535 9.35355C15.2597 9.44732 15.1325 9.5 14.9999 9.5C14.8673 9.5 14.7402 9.44732 14.6464 9.35355C14.5526 9.25979 14.4999 9.13261 14.4999 9ZM16.9999 8.5C17.1325 8.5 17.2597 8.55268 17.3535 8.64645C17.4473 8.74021 17.4999 8.86739 17.4999 9C17.4999 9.13261 17.4473 9.25979 17.3535 9.35355C17.2597 9.44732 17.1325 9.5 16.9999 9.5C16.8673 9.5 16.7402 9.44732 16.6464 9.35355C16.5526 9.25979 16.4999 9.13261 16.4999 9C16.4999 8.86739 16.5526 8.74021 16.6464 8.64645C16.7402 8.55268 16.8673 8.5 16.9999 8.5ZM9.23432 4.38438C9.15307 4.16563 8.84682 4.16563 8.76557 4.38438L8.43119 5.28437C8.40619 5.35312 8.35307 5.40625 8.28432 5.43125L7.38432 5.76562C7.16557 5.84687 7.16557 6.15313 7.38432 6.23438L8.28432 6.56875C8.35307 6.59375 8.40619 6.64688 8.43119 6.71563L8.76557 7.61562C8.84682 7.83437 9.15307 7.83437 9.23432 7.61562L9.56869 6.71563C9.59369 6.64688 9.64682 6.59375 9.71557 6.56875L10.6156 6.23438C10.8343 6.15313 10.8343 5.84687 10.6156 5.76562L9.71557 5.43125C9.64682 5.40625 9.59369 5.35312 9.56869 5.28437L9.23432 4.38438Z" fill="black"/>
</svg>
