<svg width="24" height="24" viewBox="0 0 24 24" fill="none" xmlns="http://www.w3.org/2000/svg">
<path d="M19.8594 10.5531C19.7531 10.9375 19.2625 10.9219 19.0656 10.575C18.8969 10.2781 18.7125 9.99689 18.5156 9.76252C17.6531 8.74377 16.6156 8.37189 15.7 8.04377L15.6687 8.03439C14.7312 7.70002 13.925 7.40314 13.2469 6.60002C12.9094 6.20002 12.5813 5.55627 12.3313 4.97502C12.2781 4.85002 12.3125 4.70314 12.425 4.62502C14.0281 3.50002 16.5406 3.91877 18.3125 5.68752C19.7406 7.11564 20.2875 9.02189 19.8594 10.55V10.5531ZM11.1406 6.44689C11.2469 6.06252 11.7375 6.07814 11.9344 6.42502C12.1 6.72189 12.2875 7.00314 12.4844 7.23752C13.3469 8.25627 14.3844 8.62814 15.3 8.95627L15.3313 8.96564C16.2688 9.30002 17.075 9.59689 17.7531 10.4C18.0906 10.8 18.4187 11.4438 18.6687 12.025C18.7219 12.15 18.6875 12.2969 18.575 12.375C16.9719 13.5 14.4594 13.0813 12.6875 11.3125C11.2594 9.88439 10.7125 7.97814 11.1406 6.45002V6.44689ZM6.35938 10.4375C6.70937 10.2406 7.04688 10.6 6.9375 10.9875C6.84687 11.3156 6.775 11.65 6.75 11.9563C6.6375 13.2938 7.1125 14.2969 7.53125 15.1813L7.54375 15.2094C7.97188 16.1125 8.33437 16.9 8.24687 17.9531C8.20312 18.475 7.97813 19.1688 7.74375 19.7625C7.69375 19.8906 7.5625 19.9688 7.42812 19.9438C5.49062 19.6031 4 17.5188 4 15C4 12.9688 4.96875 11.2219 6.35938 10.4375ZM9.64062 19.5625C9.29063 19.7594 8.95312 19.4 9.0625 19.0125C9.15313 18.6844 9.225 18.35 9.25 18.0438C9.3625 16.7063 8.8875 15.7031 8.46875 14.8188L8.45625 14.7906C8.02813 13.8875 7.66562 13.1 7.75312 12.0469C7.79687 11.525 8.02187 10.8313 8.25625 10.2375C8.30625 10.1094 8.4375 10.0313 8.57188 10.0563C10.5094 10.3969 12 12.4813 12 15C12 17.0313 11.0312 18.7781 9.64062 19.5625Z" fill="black"/>
</svg>
