<svg width="24" height="24" viewBox="0 0 24 24" fill="none" xmlns="http://www.w3.org/2000/svg">
<path d="M12 20C14.1217 20 16.1566 19.1571 17.6569 17.6569C19.1571 16.1566 20 14.1217 20 12C20 9.87827 19.1571 7.84344 17.6569 6.34315C16.1566 4.84285 14.1217 4 12 4C9.87827 4 7.84344 4.84285 6.34315 6.34315C4.84285 7.84344 4 9.87827 4 12C4 14.1217 4.84285 16.1566 6.34315 17.6569C7.84344 19.1571 9.87827 20 12 20ZM9.75 8H14.25C14.5125 8 14.7594 8.1375 14.8938 8.36562C15.0281 8.59375 15.0344 8.87187 14.9094 9.10625L11.4094 15.6062C11.2125 15.9719 10.7594 16.1063 10.3938 15.9125C10.0281 15.7188 9.89375 15.2625 10.0875 14.8969L12.9937 9.50313H9.75C9.33437 9.50313 9 9.16875 9 8.75313C9 8.3375 9.33437 8.00313 9.75 8.00313V8Z" fill="black"/>
</svg>
