<svg width="24" height="24" viewBox="0 0 24 24" fill="none" xmlns="http://www.w3.org/2000/svg">
<path d="M16.2842 8.4656C14.3311 6.51248 11.4154 6.51248 9.4623 8.4656C7.50918 10.4187 7.50918 13.5844 9.4623 15.5375C11.4154 17.4906 14.3311 17.4906 16.2842 15.5375C16.6748 15.1469 17.3092 15.1469 17.6998 15.5375C18.0904 15.9281 18.0904 16.5625 17.6998 16.9531C14.9654 19.6875 10.7842 19.6875 8.0498 16.9531C5.31543 14.2187 5.31543 9.78748 8.0498 7.0531C10.7842 4.31873 14.9654 4.31873 17.6998 7.0531C18.0904 7.44373 18.0904 8.0781 17.6998 8.46873C17.3092 8.85935 16.6748 8.85935 16.2842 8.46873V8.4656Z" fill="black"/>
</svg>
