<svg width="24" height="24" viewBox="0 0 24 24" fill="none" xmlns="http://www.w3.org/2000/svg">
<path d="M5.75 4H8.25C8.66563 4 9 4.33437 9 4.75C9 5.16562 8.66563 5.5 8.25 5.5H5.75C5.6125 5.5 5.5 5.6125 5.5 5.75V8.25C5.5 8.66563 5.16562 9 4.75 9C4.33437 9 4 8.66563 4 8.25V5.75C4 4.78438 4.78438 4 5.75 4ZM15.75 4H18.25C19.2156 4 20 4.78438 20 5.75V8.25C20 8.66563 19.6656 9 19.25 9C18.8344 9 18.5 8.66563 18.5 8.25V5.75C18.5 5.6125 18.3875 5.5 18.25 5.5H15.75C15.3344 5.5 15 5.16562 15 4.75C15 4.33437 15.3344 4 15.75 4ZM5.5 15.75V18.25C5.5 18.3875 5.6125 18.5 5.75 18.5H8.25C8.66563 18.5 9 18.8344 9 19.25C9 19.6656 8.66563 20 8.25 20H5.75C4.78438 20 4 19.2156 4 18.25V15.75C4 15.3344 4.33437 15 4.75 15C5.16562 15 5.5 15.3344 5.5 15.75ZM20 15.75V18.25C20 19.2156 19.2156 20 18.25 20H15.75C15.3344 20 15 19.6656 15 19.25C15 18.8344 15.3344 18.5 15.75 18.5H18.25C18.3875 18.5 18.5 18.3875 18.5 18.25V15.75C18.5 15.3344 18.8344 15 19.25 15C19.6656 15 20 15.3344 20 15.75ZM9.625 8L9.81875 7.4875C9.92812 7.19375 10.2094 7 10.5219 7H13.4812C13.7937 7 14.075 7.19375 14.1844 7.4875L14.375 8H15.5C16.3281 8 17 8.67188 17 9.5V14.5C17 15.3281 16.3281 16 15.5 16H8.5C7.67188 16 7 15.3281 7 14.5V9.5C7 8.67188 7.67188 8 8.5 8H9.625ZM14 12C14 11.4696 13.7893 10.9609 13.4142 10.5858C13.0391 10.2107 12.5304 10 12 10C11.4696 10 10.9609 10.2107 10.5858 10.5858C10.2107 10.9609 10 11.4696 10 12C10 12.5304 10.2107 13.0391 10.5858 13.4142C10.9609 13.7893 11.4696 14 12 14C12.5304 14 13.0391 13.7893 13.4142 13.4142C13.7893 13.0391 14 12.5304 14 12Z" fill="black"/>
</svg>
