<svg width="24" height="24" viewBox="0 0 24 24" fill="none" xmlns="http://www.w3.org/2000/svg">
<path d="M15.3969 6C16.3344 6 17.1469 6.65 17.35 7.56562L17.7719 9.46562C17.0906 9.23125 16.2344 9 15.5 9C14.675 9 14.0687 9.29375 13.5562 9.5375L13.5344 9.54688C13.0125 9.79688 12.5844 9.99687 12 9.99687C11.4156 9.99687 10.9906 9.79688 10.4656 9.54688L10.4437 9.5375C9.93125 9.29375 9.325 9 8.5 9C7.76562 9 6.90938 9.23125 6.23125 9.46562L6.65313 7.56562C6.85625 6.65 7.66563 6 8.60313 6H15.3969ZM5.00938 14.9656L5.97187 10.6281C6.1 10.5781 6.2375 10.525 6.38438 10.4719C7.07188 10.225 7.87813 10 8.5 10C9.08437 10 9.50938 10.2 10.0344 10.45L10.0563 10.4594C10.5687 10.7062 11.175 10.9969 12 10.9969C12.825 10.9969 13.4313 10.7031 13.9438 10.4594L13.9656 10.45C14.4875 10.2 14.9156 10 15.5 10C16.1187 10 16.925 10.225 17.6156 10.4719C17.7625 10.525 17.9031 10.5781 18.0281 10.6281L19 15L5.00938 14.9656ZM4 16H20C20.5531 16 21 16.4469 21 17C21 17.5531 20.5531 18 20 18H4C3.44687 18 3 17.5531 3 17C3 16.4469 3.44687 16 4 16Z" fill="black"/>
</svg>
