<svg width="24" height="24" viewBox="0 0 24 24" fill="none" xmlns="http://www.w3.org/2000/svg">
<path d="M12.25 5C12.6656 5 13 5.33437 13 5.75V6H18.5C19.3281 6 20 6.67188 20 7.5V9.5C20 10.3281 19.3281 11 18.5 11H13V11.25C13 11.6656 12.6656 12 12.25 12C11.8344 12 11.5 11.6656 11.5 11.25V11H5.5C4.67188 11 4 10.3281 4 9.5V7.5C4 6.67188 4.67188 6 5.5 6H11.5V5.75C11.5 5.33437 11.8344 5 12.25 5ZM9 8V9H11.5V8H9ZM13 8V9H18V8H13ZM14.5 16V15H12V16H14.5ZM14.5 18H5.5C4.67188 18 4 17.3281 4 16.5V14.5C4 13.6719 4.67188 13 5.5 13H14.5V12.75C14.5 12.3344 14.8344 12 15.25 12C15.6656 12 16 12.3344 16 12.75V13H18.5C19.3281 13 20 13.6719 20 14.5V16.5C20 17.3281 19.3281 18 18.5 18H16V18.25C16 18.6656 15.6656 19 15.25 19C14.8344 19 14.5 18.6656 14.5 18.25V18ZM16 15V16H18V15H16Z" fill="black"/>
</svg>
