<svg width="24" height="24" viewBox="0 0 24 24" fill="none" xmlns="http://www.w3.org/2000/svg">
<path d="M12 18C16.4187 18 20 15.0906 20 11.5C20 7.90937 16.4187 5 12 5C7.58123 5 3.99998 7.90937 3.99998 11.5C3.99998 12.9094 4.5531 14.2125 5.4906 15.2781C5.43123 16.0437 5.13435 16.725 4.82185 17.2437C4.64998 17.5312 4.47498 17.7625 4.34685 17.9187C4.28123 17.9969 4.23123 18.0563 4.19373 18.0969C4.17498 18.1156 4.16248 18.1312 4.1531 18.1406L4.14373 18.15C3.99998 18.2937 3.95935 18.5063 4.03748 18.6938C4.1156 18.8813 4.29685 19.0031 4.49998 19.0031C5.39685 19.0031 6.29998 18.725 7.04998 18.4C7.7656 18.0875 8.37498 17.7156 8.74685 17.4438C9.7406 17.8031 10.8406 18.0031 12 18.0031V18ZM9.74998 10.75H14.25C14.6656 10.75 15 11.0844 15 11.5C15 11.9156 14.6656 12.25 14.25 12.25H9.74998C9.33435 12.25 8.99998 11.9156 8.99998 11.5C8.99998 11.0844 9.33435 10.75 9.74998 10.75Z" fill="black"/>
</svg>
