<svg width="24" height="24" viewBox="0 0 24 24" fill="none" xmlns="http://www.w3.org/2000/svg">
<path d="M6.99981 14C5.34356 14 3.99981 12.6562 3.99981 11C3.99981 9.67188 4.86231 8.54375 6.05918 8.15C6.02168 7.94063 5.99981 7.72187 5.99981 7.5C5.99981 5.56562 7.56543 4 9.49981 4C10.8467 4 12.0154 4.75937 12.5998 5.875C13.0592 5.34063 13.7404 5 14.4998 5C15.8811 5 16.9998 6.11875 16.9998 7.5C16.9998 7.67188 16.9811 7.8375 16.9498 8C16.9654 8 16.9842 8 16.9998 8C18.6561 8 19.9998 9.34375 19.9998 11C19.9998 12.6562 18.6561 14 16.9998 14H6.99981ZM6.54668 15.0594C6.92793 15.2219 7.10293 15.6625 6.94043 16.0437L5.44043 19.5437C5.27793 19.925 4.83731 20.1 4.45606 19.9375C4.07481 19.775 3.89668 19.3344 4.05918 18.9531L5.55918 15.4531C5.72168 15.0719 6.16231 14.8969 6.54356 15.0594H6.54668ZM10.2967 15.0594C10.6779 15.2219 10.8529 15.6625 10.6904 16.0437L9.19043 19.5437C9.02793 19.925 8.58731 20.1 8.20606 19.9375C7.82481 19.775 7.64981 19.3344 7.81231 18.9531L9.31231 15.4531C9.47481 15.0719 9.91543 14.8969 10.2967 15.0594ZM17.9404 16.0437L16.4404 19.5437C16.2779 19.925 15.8373 20.1 15.4561 19.9375C15.0748 19.775 14.8998 19.3344 15.0623 18.9531L16.5623 15.4531C16.7248 15.0719 17.1654 14.8969 17.5467 15.0594C17.9279 15.2219 18.1029 15.6625 17.9404 16.0437ZM13.7967 15.0594C14.1779 15.2219 14.3529 15.6625 14.1904 16.0437L12.6904 19.5437C12.5279 19.925 12.0873 20.1 11.7061 19.9375C11.3248 19.775 11.1498 19.3344 11.3123 18.9531L12.8123 15.4531C12.9748 15.0719 13.4154 14.8969 13.7967 15.0594Z" fill="black"/>
</svg>
