<svg width="24" height="24" viewBox="0 0 24 24" fill="none" xmlns="http://www.w3.org/2000/svg">
<path d="M3.21243 4.15955C2.88743 3.9033 2.41556 3.96268 2.15931 4.28768C1.90306 4.61268 1.96243 5.08455 2.28743 5.3408L20.7874 19.8408C21.1124 20.0971 21.5843 20.0377 21.8406 19.7127C22.0968 19.3877 22.0374 18.9158 21.7124 18.6596L20.7499 17.9064C21.5187 17.1783 21.9999 16.1471 21.9999 15.0002C21.9999 13.0658 20.6249 11.4502 18.7999 11.0814C18.9281 10.7471 18.9999 10.3814 18.9999 10.0002C18.9999 8.34393 17.6562 7.00018 15.9999 7.00018C15.3843 7.00018 14.8093 7.18768 14.3343 7.50643C13.4687 6.00643 11.8531 5.00018 9.99993 5.00018C8.54993 5.00018 7.24368 5.61893 6.33118 6.6033L3.21243 4.15955ZM17.2312 19.0002L5.03743 9.39393C5.01243 9.59393 4.99993 9.79705 4.99993 10.0002C4.99993 10.0846 5.00306 10.1689 5.00618 10.2533C3.25618 10.8689 1.99993 12.5377 1.99993 14.5002C1.99993 16.9846 4.01556 19.0002 6.49993 19.0002H17.2312Z" fill="black"/>
</svg>
