<svg width="24" height="24" viewBox="0 0 24 24" fill="none" xmlns="http://www.w3.org/2000/svg">
<path d="M8.49998 15C12.0906 15 15 12.5375 15 9.5C15 6.4625 12.0906 4 8.49998 4C4.90935 4 1.99998 6.4625 1.99998 9.5C1.99998 10.7063 2.45935 11.8219 3.23748 12.7312C3.1281 13.025 2.9656 13.2844 2.79373 13.5031C2.64373 13.6969 2.4906 13.8469 2.3781 13.95C2.32185 14 2.27498 14.0406 2.24373 14.0656C2.2281 14.0781 2.2156 14.0875 2.20935 14.0906L2.2031 14.0969C2.03123 14.225 1.95623 14.45 2.02498 14.6531C2.09373 14.8562 2.28435 15 2.49998 15C3.18123 15 3.86873 14.825 4.4406 14.6094C4.7281 14.5 4.99685 14.3781 5.2281 14.2531C6.1906 14.7281 7.30623 15 8.49998 15ZM16 9.5C16 13.0094 12.9031 15.6531 9.23435 15.9688C9.99373 18.2937 12.5125 20 15.5 20C16.6937 20 17.8094 19.7281 18.7719 19.2531C19.0062 19.3781 19.2719 19.5 19.5594 19.6094C20.1312 19.825 20.8187 20 21.5 20C21.7156 20 21.9094 19.8594 21.975 19.6531C22.0406 19.4469 21.9687 19.2219 21.7937 19.0938L21.7875 19.0875C21.7812 19.0812 21.7687 19.075 21.7531 19.0625C21.7218 19.0375 21.675 19 21.6187 18.9469C21.5062 18.8438 21.3531 18.6938 21.2031 18.5C21.0312 18.2812 20.8687 18.0187 20.7593 17.7281C21.5375 16.8219 21.9969 15.7063 21.9969 14.4969C21.9969 11.5969 19.3437 9.21875 15.9781 9.0125C15.9906 9.17188 15.9969 9.33437 15.9969 9.49687L16 9.5ZM7.63123 6.41563H9.14685C10.0562 6.41563 10.7906 7.15312 10.7906 8.05937C10.7906 8.64687 10.475 9.19375 9.9656 9.48438L9.12498 9.96875C9.11873 10.3094 8.8406 10.5813 8.49998 10.5813C8.15623 10.5813 7.87498 10.3 7.87498 9.95625V9.60938C7.87498 9.38438 7.99373 9.17812 8.18748 9.06875L9.34373 8.40312C9.4656 8.33125 9.5406 8.20312 9.5406 8.0625C9.5406 7.84375 9.36248 7.66875 9.14685 7.66875H7.63123C7.54373 7.66875 7.4656 7.725 7.43435 7.80625L7.42185 7.8375C7.30623 8.1625 6.94998 8.33437 6.62498 8.21875C6.29998 8.10313 6.1281 7.74688 6.24373 7.42188L6.25623 7.39062C6.46248 6.80938 7.01248 6.41875 7.63123 6.41875V6.41563ZM8.49998 11.4156C8.61363 11.4087 8.72751 11.425 8.8346 11.4637C8.9417 11.5024 9.03973 11.5627 9.12268 11.6407C9.20562 11.7187 9.27172 11.8129 9.3169 11.9174C9.36208 12.0219 9.38539 12.1346 9.38539 12.2484C9.38539 12.3623 9.36208 12.475 9.3169 12.5795C9.27172 12.684 9.20562 12.7782 9.12268 12.8562C9.03973 12.9342 8.9417 12.9944 8.8346 13.0331C8.72751 13.0718 8.61363 13.0882 8.49998 13.0813C8.38632 13.0882 8.27244 13.0718 8.16535 13.0331C8.05826 12.9944 7.96022 12.9342 7.87727 12.8562C7.79433 12.7782 7.72823 12.684 7.68305 12.5795C7.63787 12.475 7.61456 12.3623 7.61456 12.2484C7.61456 12.1346 7.63787 12.0219 7.68305 11.9174C7.72823 11.8129 7.79433 11.7187 7.87727 11.6407C7.96022 11.5627 8.05826 11.5024 8.16535 11.4637C8.27244 11.425 8.38632 11.4087 8.49998 11.4156ZM19.6906 14.1906L17.1906 16.6906C16.9469 16.9344 16.55 16.9344 16.3062 16.6906L15.0562 15.4406C14.8125 15.1969 14.8125 14.8 15.0562 14.5562C15.3 14.3125 15.6969 14.3125 15.9406 14.5562L16.75 15.3656L18.8094 13.3062C19.0531 13.0625 19.45 13.0625 19.6937 13.3062C19.9375 13.55 19.9375 13.9469 19.6937 14.1906H19.6906Z" fill="black"/>
</svg>
