<svg width="24" height="24" viewBox="0 0 24 24" fill="none" xmlns="http://www.w3.org/2000/svg">
<path d="M2 5C2 4.44687 2.44687 4 3 4H3.5C4.88125 4 6 5.11875 6 6.5V15.5C6 15.775 6.225 16 6.5 16H21C21.5531 16 22 16.4469 22 17C22 17.5531 21.5531 18 21 18H18.9156C18.9719 18.1562 19 18.325 19 18.5C19 19.3281 18.3281 20 17.5 20C16.6719 20 16 19.3281 16 18.5C16 18.325 16.0312 18.1562 16.0844 18H9.91563C9.97188 18.1562 10 18.325 10 18.5C10 19.3281 9.32812 20 8.5 20C7.67188 20 7 19.3281 7 18.5C7 18.325 7.03125 18.1562 7.08437 18H6.5C5.11875 18 4 16.8813 4 15.5V6.5C4 6.225 3.775 6 3.5 6H3C2.44687 6 2 5.55313 2 5ZM15.5 7V5.75C15.5 5.6125 15.3875 5.5 15.25 5.5H12.75C12.6125 5.5 12.5 5.6125 12.5 5.75V7H15.5ZM11 7V5.75C11 4.78438 11.7844 4 12.75 4H15.25C16.2156 4 17 4.78438 17 5.75V7V14H11V7ZM18 14V7H18.5C19.3281 7 20 7.67188 20 8.5V12.5C20 13.3281 19.3281 14 18.5 14H18ZM9.5 7H10V14H9.5C8.67188 14 8 13.3281 8 12.5V8.5C8 7.67188 8.67188 7 9.5 7Z" fill="black"/>
</svg>
