<svg width="24" height="24" viewBox="0 0 24 24" fill="none" xmlns="http://www.w3.org/2000/svg">
<path d="M3.21243 4.15943C2.88743 3.90318 2.41556 3.96255 2.15931 4.28755C1.90306 4.61255 1.96243 5.08443 2.28743 5.34068L20.7874 19.8407C21.1124 20.0969 21.5843 20.0376 21.8406 19.7126C22.0968 19.3876 22.0374 18.9157 21.7124 18.6594L20.7749 17.9251C20.9187 17.6501 20.9999 17.3344 20.9999 17.0001V7.00005C20.9999 5.89693 20.1031 5.00005 18.9999 5.00005H4.99993C4.79056 5.00005 4.59056 5.0313 4.39993 5.09068L3.21243 4.15943ZM9.39368 9.00318C10.2249 9.04068 10.9687 9.4188 11.4874 10.0001C11.6781 10.2126 11.7249 10.5063 11.6343 10.7594L9.39681 9.00318H9.39368ZM12.3312 11.3063C12.6437 9.98443 13.8312 9.00005 15.2499 9.00005C16.1374 9.00005 16.9374 9.38755 17.4843 10.0001C17.7593 10.3094 17.7343 10.7813 17.4249 11.0594C17.1156 11.3376 16.6437 11.3094 16.3656 11.0001C16.0906 10.6907 15.6906 10.5001 15.2468 10.5001C14.4187 10.5001 13.7468 11.1719 13.7468 12.0001C13.7468 12.1688 13.7749 12.3282 13.8249 12.4813L12.3281 11.3063H12.3312ZM15.1249 13.4938C15.1656 13.4969 15.2093 13.5001 15.2531 13.5001C15.6968 13.5001 16.0968 13.3094 16.3718 13.0001C16.6468 12.6907 17.1218 12.6657 17.4312 12.9407C17.7406 13.2157 17.7656 13.6907 17.4906 14.0001C17.2468 14.2719 16.9531 14.5001 16.6249 14.6688L15.1281 13.4938H15.1249ZM2.99993 7.78755V17.0001C2.99993 18.1032 3.89681 19.0001 4.99993 19.0001H17.2312L11.2187 14.2626C10.6937 14.7219 10.0031 15.0001 9.24993 15.0001C7.59368 15.0001 6.24993 13.6563 6.24993 12.0001C6.24993 11.5001 6.37181 11.0282 6.58743 10.6157L2.99993 7.78755ZM9.24993 13.5001C9.52181 13.5001 9.77806 13.4282 9.99681 13.3001L7.80931 11.5782C7.76868 11.7126 7.74993 11.8532 7.74993 12.0001C7.74993 12.8282 8.42181 13.5001 9.24993 13.5001Z" fill="black"/>
</svg>
