<svg width="24" height="24" viewBox="0 0 24 24" fill="none" xmlns="http://www.w3.org/2000/svg">
<path d="M8.5001 15C12.0907 15 15.0001 12.5375 15.0001 9.5C15.0001 6.4625 12.0907 4 8.5001 4C4.90947 4 2.0001 6.4625 2.0001 9.5C2.0001 10.7062 2.45947 11.8219 3.2376 12.7312C3.12822 13.025 2.96572 13.2844 2.79385 13.5031C2.64385 13.6969 2.49072 13.8469 2.37822 13.95C2.32197 14 2.2751 14.0406 2.24385 14.0656C2.22822 14.0781 2.21572 14.0875 2.20947 14.0906L2.20322 14.0969C2.03135 14.225 1.95635 14.45 2.0251 14.6531C2.09385 14.8562 2.28447 15 2.5001 15C3.18135 15 3.86885 14.825 4.44072 14.6094C4.72822 14.5 4.99697 14.3781 5.22822 14.2531C6.19072 14.7281 7.30635 15 8.5001 15ZM16.0001 9.5C16.0001 13.0094 12.9032 15.6531 9.23447 15.9688C9.99385 18.2938 12.5126 20 15.5001 20C16.6938 20 17.8095 19.7281 18.772 19.2531C19.0063 19.3781 19.272 19.5 19.5595 19.6094C20.1313 19.825 20.8188 20 21.5001 20C21.7157 20 21.9095 19.8594 21.9751 19.6531C22.0407 19.4469 21.9688 19.2219 21.7938 19.0938L21.7876 19.0875C21.7813 19.0812 21.7688 19.075 21.7532 19.0625C21.722 19.0375 21.6751 19 21.6188 18.9469C21.5063 18.8437 21.3532 18.6937 21.2032 18.5C21.0313 18.2812 20.8688 18.0187 20.7595 17.7281C21.5376 16.8219 21.997 15.7062 21.997 14.4969C21.997 11.5969 19.3438 9.21875 15.9782 9.0125C15.9907 9.17187 15.997 9.33437 15.997 9.49687L16.0001 9.5ZM7.63135 6.41563H9.14697C10.0563 6.41563 10.7907 7.15312 10.7907 8.05937C10.7907 8.64687 10.4751 9.19375 9.96572 9.48438L9.1251 9.96875C9.11885 10.3094 8.84072 10.5813 8.5001 10.5813C8.15635 10.5813 7.8751 10.3 7.8751 9.95625V9.60938C7.8751 9.38438 7.99385 9.17812 8.1876 9.06875L9.34385 8.40312C9.46572 8.33125 9.54072 8.20312 9.54072 8.0625C9.54072 7.84375 9.3626 7.66875 9.14697 7.66875H7.63135C7.54385 7.66875 7.46572 7.725 7.43447 7.80625L7.42197 7.8375C7.30635 8.1625 6.9501 8.33438 6.6251 8.21875C6.3001 8.10312 6.12822 7.74687 6.24385 7.42188L6.25635 7.39062C6.4626 6.80937 7.0126 6.41875 7.63135 6.41875V6.41563ZM8.5001 11.4156C8.61376 11.4087 8.72764 11.425 8.83473 11.4637C8.94182 11.5024 9.03985 11.5627 9.1228 11.6407C9.20574 11.7187 9.27184 11.8129 9.31702 11.9174C9.3622 12.0219 9.38551 12.1346 9.38551 12.2484C9.38551 12.3623 9.3622 12.475 9.31702 12.5795C9.27184 12.684 9.20574 12.7782 9.1228 12.8562C9.03985 12.9342 8.94182 12.9944 8.83473 13.0331C8.72764 13.0718 8.61376 13.0882 8.5001 13.0813C8.38644 13.0882 8.27256 13.0718 8.16547 13.0331C8.05838 12.9944 7.96034 12.9342 7.8774 12.8562C7.79445 12.7782 7.72835 12.684 7.68317 12.5795C7.63799 12.475 7.61468 12.3623 7.61468 12.2484C7.61468 12.1346 7.63799 12.0219 7.68317 11.9174C7.72835 11.8129 7.79445 11.7187 7.8774 11.6407C7.96034 11.5627 8.05838 11.5024 8.16547 11.4637C8.27256 11.425 8.38644 11.4087 8.5001 11.4156ZM19.6907 14.1906L17.1907 16.6906C16.947 16.9344 16.5501 16.9344 16.3063 16.6906L15.0563 15.4406C14.8126 15.1969 14.8126 14.8 15.0563 14.5562C15.3001 14.3125 15.697 14.3125 15.9407 14.5562L16.7501 15.3656L18.8095 13.3062C19.0532 13.0625 19.4501 13.0625 19.6938 13.3062C19.9376 13.55 19.9376 13.9469 19.6938 14.1906H19.6907Z" fill="black"/>
</svg>
