<svg width="24" height="24" viewBox="0 0 24 24" fill="none" xmlns="http://www.w3.org/2000/svg">
<path d="M20 12C20 9.87827 19.1571 7.84344 17.6569 6.34315C16.1566 4.84285 14.1217 4 12 4C9.87827 4 7.84344 4.84285 6.34315 6.34315C4.84285 7.84344 4 9.87827 4 12C4 14.1217 4.84285 16.1566 6.34315 17.6569C7.84344 19.1571 9.87827 20 12 20C14.1217 20 16.1566 19.1571 17.6569 17.6569C19.1571 16.1566 20 14.1217 20 12ZM10.7937 15.7781L7.67188 12.4312C7.5625 12.3125 7.5 12.1594 7.5 12C7.5 11.8406 7.5625 11.6844 7.67188 11.5687L10.7937 8.22188C10.925 8.08125 11.1094 8 11.3031 8C11.6875 8 12 8.3125 12 8.69688V10.5H15C15.5531 10.5 16 10.9469 16 11.5V12.5C16 13.0531 15.5531 13.5 15 13.5H12V15.3031C12 15.6875 11.6875 16 11.3031 16C11.1094 16 10.925 15.9187 10.7937 15.7781Z" fill="black"/>
</svg>
