<svg width="24" height="24" viewBox="0 0 24 24" fill="none" xmlns="http://www.w3.org/2000/svg">
<path d="M11.1938 4.03778C11.3532 4.1034 11.4657 4.24715 11.4938 4.4159L11.8188 6.3659C11.0907 6.7034 10.4782 7.2534 10.0688 7.93778C9.61253 7.65653 9.07503 7.49715 8.50003 7.49715C6.84378 7.49715 5.50003 8.8409 5.50003 10.4972C5.50003 11.6065 6.10316 12.5784 7.00003 13.0972C7.02503 14.0909 7.41253 14.994 8.03441 15.6815L6.28441 16.9065C6.14378 17.0034 5.96253 17.0253 5.80316 16.9565C5.64378 16.8878 5.53128 16.7472 5.50316 16.5784L5.06566 13.9347L2.41878 13.494C2.25003 13.4659 2.10628 13.3534 2.04066 13.194C1.97503 13.0347 1.99378 12.8534 2.09066 12.7128L3.64066 10.5003L2.09066 8.28778C1.99066 8.14715 1.97191 7.9659 2.04066 7.80653C2.10941 7.64715 2.25003 7.53465 2.41878 7.50653L5.06566 7.0659L5.50628 4.41903C5.53441 4.25028 5.64691 4.10653 5.80628 4.0409C5.96566 3.97528 6.14691 3.99403 6.28753 4.0909L8.50003 5.6409L10.7125 4.0909C10.8532 3.9909 11.0344 3.97215 11.1938 4.0409V4.03778ZM8.50003 8.50028C8.93128 8.50028 9.33441 8.63778 9.65941 8.87215C9.62191 9.00028 9.59066 9.13153 9.56566 9.2659C8.38128 9.72215 7.46566 10.7222 7.13441 11.9659C6.74378 11.5972 6.50003 11.0784 6.50003 10.5003C6.50003 9.39715 7.39691 8.50028 8.50003 8.50028ZM21.9969 13.4972C21.9969 14.8784 20.8782 15.9972 19.4969 15.9972H18.9157C19.025 15.6815 19.0313 15.3315 18.9157 15.0034C18.7032 14.4034 18.1375 14.0003 17.5 14.0003H16.9282L17.8438 12.1722C18.1594 11.5409 17.9938 10.7784 17.4438 10.3347C16.8938 9.8909 16.1125 9.8909 15.5625 10.3284L10.5625 14.3284C10.1094 14.6909 9.90941 15.2815 10.0375 15.8409C8.85316 15.4409 8.00003 14.319 8.00003 13.0003C8.00003 11.5128 9.08128 10.2815 10.5 10.044V10.0034C10.5 8.34715 11.8438 7.0034 13.5 7.0034C14.5907 7.0034 15.5438 7.58465 16.0688 8.4534C16.475 8.16903 16.9688 8.0034 17.5 8.0034C18.8813 8.0034 20 9.12215 20 10.5034C20 10.6878 19.9813 10.869 19.9407 11.0409C21.1094 11.2503 21.9969 12.2722 21.9969 13.5003V13.4972ZM16.8157 11.1128C16.9969 11.2597 17.0532 11.5159 16.95 11.7253L15.3094 15.0003H17.5C17.7125 15.0003 17.9 15.1347 17.9719 15.3347C18.0438 15.5347 17.9782 15.7565 17.8125 15.8909L12.8125 19.8909C12.6282 20.0378 12.3688 20.0378 12.1844 19.8878C12 19.7378 11.9469 19.4847 12.05 19.2753L13.6907 16.0003H11.5C11.2875 16.0003 11.1 15.8659 11.0282 15.6659C10.9563 15.4659 11.0219 15.244 11.1875 15.1097L16.1875 11.1097C16.3719 10.9628 16.6313 10.9628 16.8157 11.1128Z" fill="black"/>
</svg>
