<svg width="24" height="24" viewBox="0 0 24 24" fill="none" xmlns="http://www.w3.org/2000/svg">
<path d="M12.9999 9C12.9999 9.35938 13.0374 9.70937 13.1093 10.0437C14.7874 10.3 16.1249 11.6 16.4343 13.2625C16.878 13.4344 17.2843 13.6813 17.6374 13.9875C17.753 13.9969 17.8687 14 17.9874 14C19.3374 14 20.5655 13.4594 21.4624 12.5844C21.6187 12.4313 21.6593 12.1938 21.5593 12C21.4593 11.8063 21.2437 11.6969 21.028 11.7344C20.8249 11.7688 20.6155 11.7875 20.403 11.7875C18.3937 11.7875 16.7624 10.1531 16.7624 8.13438C16.7624 6.76875 17.5093 5.57812 18.6155 4.95C18.8062 4.84062 18.903 4.62188 18.8562 4.40938C18.8093 4.19688 18.6249 4.0375 18.4093 4.01875C18.2687 4.00625 18.128 4 17.9874 4C15.2312 4 12.9999 6.24062 12.9999 9ZM5.5874 12.5594C6.21553 11.6187 7.28428 11 8.4999 11C8.90303 11 9.29053 11.0687 9.6499 11.1937C10.2624 10.5719 11.0812 10.1469 11.9937 10.0312V10.0031C11.9937 8.9 11.0999 8.00313 9.99365 8.00313C9.7624 8.00313 9.5374 8.04375 9.33115 8.11562C8.97178 7.175 8.0624 6.50312 6.99365 6.50312C5.77803 6.50312 4.76553 7.37187 4.54053 8.52187C4.44365 8.50938 4.34365 8.50313 4.24365 8.50313C2.9999 8.50313 1.99365 9.50938 1.99365 10.7531C1.99365 11.9969 2.9999 13.0031 4.24365 13.0031C4.74678 13.0031 5.20928 12.8375 5.58428 12.5625L5.5874 12.5594ZM3.9999 17.4969C3.9999 18.8781 5.11865 19.9969 6.4999 19.9969H14.9968C16.653 19.9969 17.9968 18.6531 17.9968 16.9969C17.9968 15.5094 16.9155 14.2781 15.4968 14.0406V14C15.4968 12.3438 14.153 11 12.4968 11C11.4062 11 10.453 11.5812 9.92803 12.45C9.5249 12.1656 9.03115 12 8.4999 12C7.11865 12 5.9999 13.1187 5.9999 14.5C5.9999 14.6844 6.01865 14.8656 6.05928 15.0375C4.8874 15.2469 3.9999 16.2688 3.9999 17.4969Z" fill="black"/>
</svg>
