<svg width="24" height="24" viewBox="0 0 24 24" fill="none" xmlns="http://www.w3.org/2000/svg">
<path d="M2.86879 7.71251C2.03754 8.19376 1.75316 9.25626 2.23441 10.0906L7.45316 19.1313C7.93441 19.9625 8.99691 20.25 9.83129 19.7688L15.8563 16.2875C16.6875 15.8063 16.975 14.7438 16.4938 13.9094L11.275 4.86876C10.7938 4.03751 9.72816 3.75313 8.89691 4.23438L2.86879 7.71251ZM16.3563 17.1531L12.1282 19.5938C12.4313 19.8469 12.8219 20 13.25 20H20.25C21.2157 20 22 19.2156 22 18.25V7.75001C22 6.78438 21.2157 6.00001 20.25 6.00001H13.25C13.1938 6.00001 13.1407 6.00313 13.0844 6.00626L17.3594 13.4094C18.1157 14.7188 17.6657 16.3969 16.3563 17.1531Z" fill="black"/>
</svg>
