<svg width="24" height="24" viewBox="0 0 24 24" fill="none" xmlns="http://www.w3.org/2000/svg">
<path d="M12 20C14.1217 20 16.1566 19.1571 17.6569 17.6569C19.1571 16.1566 20 14.1217 20 12C20 9.87827 19.1571 7.84344 17.6569 6.34315C16.1566 4.84285 14.1217 4 12 4C9.87827 4 7.84344 4.84285 6.34315 6.34315C4.84285 7.84344 4 9.87827 4 12C4 14.1217 4.84285 16.1566 6.34315 17.6569C7.84344 19.1571 9.87827 20 12 20ZM12.75 7.75V12C12.75 12.25 12.625 12.4844 12.4156 12.625L9.41563 14.625C9.07188 14.8562 8.60625 14.7625 8.375 14.4156C8.14375 14.0687 8.2375 13.6062 8.58437 13.375L11.25 11.6V7.75C11.25 7.33437 11.5844 7 12 7C12.4156 7 12.75 7.33437 12.75 7.75Z" fill="black"/>
</svg>
