<svg width="24" height="24" viewBox="0 0 24 24" fill="none" xmlns="http://www.w3.org/2000/svg">
<path d="M2 4.75C2 4.33437 2.33437 4 2.75 4H4.17188C4.85938 4 5.46875 4.4 5.75312 5H18.5969C19.4187 5 20.0188 5.78125 19.8031 6.575L18.8375 10.1625C18.4094 10.0562 17.9594 10 17.5 10C15.3625 10 13.5094 11.2188 12.6 13H7.33437L7.50313 13.8906C7.57188 14.2438 7.88125 14.5 8.24062 14.5H12.0906C12.0312 14.825 12 15.1594 12 15.5C12 15.6688 12.0063 15.8344 12.0219 16H8.24062C7.15937 16 6.23125 15.2313 6.03125 14.1719L4.41875 5.70312C4.39688 5.58438 4.29375 5.5 4.17188 5.5H2.75C2.33437 5.5 2 5.16563 2 4.75ZM6 18.5C6 18.303 6.0388 18.108 6.11418 17.926C6.18956 17.744 6.30005 17.5786 6.43934 17.4393C6.57863 17.3001 6.74399 17.1896 6.92597 17.1142C7.10796 17.0388 7.30302 17 7.5 17C7.69698 17 7.89204 17.0388 8.07403 17.1142C8.25601 17.1896 8.42137 17.3001 8.56066 17.4393C8.69995 17.5786 8.81044 17.744 8.88582 17.926C8.9612 18.108 9 18.303 9 18.5C9 18.697 8.9612 18.892 8.88582 19.074C8.81044 19.256 8.69995 19.4214 8.56066 19.5607C8.42137 19.6999 8.25601 19.8104 8.07403 19.8858C7.89204 19.9612 7.69698 20 7.5 20C7.30302 20 7.10796 19.9612 6.92597 19.8858C6.74399 19.8104 6.57863 19.6999 6.43934 19.5607C6.30005 19.4214 6.18956 19.256 6.11418 19.074C6.0388 18.892 6 18.697 6 18.5ZM17.5 11C18.6935 11 19.8381 11.4741 20.682 12.318C21.5259 13.1619 22 14.3065 22 15.5C22 16.6935 21.5259 17.8381 20.682 18.682C19.8381 19.5259 18.6935 20 17.5 20C16.3065 20 15.1619 19.5259 14.318 18.682C13.4741 17.8381 13 16.6935 13 15.5C13 14.3065 13.4741 13.1619 14.318 12.318C15.1619 11.4741 16.3065 11 17.5 11ZM19.6031 15.3969C19.4094 15.2031 19.0906 15.2031 18.8969 15.3969L18 16.2937V13.5C18 13.225 17.775 13 17.5 13C17.225 13 17 13.225 17 13.5V16.2937L16.1031 15.3969C15.9094 15.2031 15.5906 15.2031 15.3969 15.3969C15.2031 15.5906 15.2031 15.9094 15.3969 16.1031L17.1469 17.8531C17.3406 18.0469 17.6594 18.0469 17.8531 17.8531L19.6031 16.1031C19.7969 15.9094 19.7969 15.5906 19.6031 15.3969Z" fill="black"/>
</svg>
