<svg width="24" height="24" viewBox="0 0 24 24" fill="none" xmlns="http://www.w3.org/2000/svg">
<path d="M12.75 4.75C12.75 4.33437 12.4156 4 12 4C11.5844 4 11.25 4.33437 11.25 4.75V7.25C11.25 7.66563 11.5844 8 12 8C12.4156 8 12.75 7.66563 12.75 7.25V4.75ZM9.80623 11H14.1937C14.4062 11 14.5937 11.1344 14.6656 11.3313L15.2593 13H8.7406L9.33748 11.3313C9.40935 11.1313 9.59685 11 9.80935 11H9.80623ZM7.4531 10.6594L6.56873 13.1375C5.9406 13.4031 5.49998 14.025 5.49998 14.75V16V18V19C5.49998 19.5531 5.94685 20 6.49998 20H6.99998C7.5531 20 7.99998 19.5531 7.99998 19V18H16V19C16 19.5531 16.4468 20 17 20H17.5C18.0531 20 18.5 19.5531 18.5 19V18V16V14.75C18.5 14.025 18.0594 13.4031 17.4312 13.1375L16.5469 10.6594C16.1906 9.66563 15.25 9 14.1937 9H9.80623C8.74998 9 7.80623 9.66563 7.4531 10.6594ZM7.99998 14.75C8.19889 14.75 8.38965 14.829 8.53031 14.9697C8.67096 15.1103 8.74998 15.3011 8.74998 15.5C8.74998 15.6989 8.67096 15.8897 8.53031 16.0303C8.38965 16.171 8.19889 16.25 7.99998 16.25C7.80106 16.25 7.6103 16.171 7.46965 16.0303C7.32899 15.8897 7.24998 15.6989 7.24998 15.5C7.24998 15.3011 7.32899 15.1103 7.46965 14.9697C7.6103 14.829 7.80106 14.75 7.99998 14.75ZM15.25 15.5C15.25 15.3011 15.329 15.1103 15.4696 14.9697C15.6103 14.829 15.8011 14.75 16 14.75C16.1989 14.75 16.3897 14.829 16.5303 14.9697C16.671 15.1103 16.75 15.3011 16.75 15.5C16.75 15.6989 16.671 15.8897 16.5303 16.0303C16.3897 16.171 16.1989 16.25 16 16.25C15.8011 16.25 15.6103 16.171 15.4696 16.0303C15.329 15.8897 15.25 15.6989 15.25 15.5ZM5.21873 5.21875C4.92498 5.5125 4.92498 5.9875 5.21873 6.27813L6.71873 7.77813C7.01248 8.07188 7.48748 8.07188 7.7781 7.77813C8.06873 7.48438 8.07185 7.00938 7.7781 6.71875L6.28123 5.21875C5.98748 4.925 5.51248 4.925 5.22185 5.21875H5.21873ZM17.7187 5.21875L16.2187 6.71875C15.925 7.0125 15.925 7.4875 16.2187 7.77813C16.5125 8.06875 16.9875 8.07188 17.2781 7.77813L18.7781 6.27813C19.0718 5.98438 19.0718 5.50937 18.7781 5.21875C18.4844 4.92813 18.0093 4.925 17.7187 5.21875Z" fill="black"/>
</svg>
