<svg width="24" height="24" viewBox="0 0 24 24" fill="none" xmlns="http://www.w3.org/2000/svg">
<path d="M3.21268 4.15943C2.88768 3.90318 2.4158 3.96255 2.15955 4.28755C1.9033 4.61255 1.96268 5.08443 2.28768 5.34068L20.7877 19.8407C21.1127 20.0969 21.5846 20.0376 21.8408 19.7126C22.0971 19.3876 22.0377 18.9157 21.7127 18.6594L17.4877 15.3469C18.4346 14.1532 19.0002 12.6438 19.0002 11.0001C19.0002 7.13443 15.8658 4.00005 12.0002 4.00005C9.75018 4.00005 7.74705 5.06255 6.46893 6.70943L3.21268 4.15943ZM8.0408 7.9438C8.95643 6.76255 10.3908 6.00005 12.0002 6.00005C14.7627 6.00005 17.0002 8.23755 17.0002 11.0001C17.0002 12.1782 16.5939 13.2594 15.9127 14.1126L15.1252 13.4969C15.6721 12.8126 16.0002 11.9438 16.0002 11.0001C16.0002 8.79068 14.2096 7.00005 12.0002 7.00005C10.7096 7.00005 9.55955 7.61255 8.8283 8.56255L8.0408 7.94693V7.9438ZM10.7971 10.1032L10.0096 9.48755C10.4658 8.88755 11.1877 8.50005 12.0002 8.50005C12.2752 8.50005 12.5002 8.72505 12.5002 9.00005C12.5002 9.27505 12.2752 9.50005 12.0002 9.50005C11.5064 9.50005 11.0689 9.73755 10.7971 10.1032ZM17.8658 19.5001L13.2314 15.8469C12.8377 15.9469 12.4252 16.0001 12.0002 16.0001C9.23768 16.0001 7.00018 13.7626 7.00018 11.0001C7.00018 10.9813 7.00018 10.9594 7.00018 10.9407L5.16268 9.4938C5.05643 9.97818 5.00018 10.4813 5.00018 11.0001C5.00018 13.4844 6.29393 15.6657 8.24393 16.9094L6.42518 18.1813C6.06893 18.4313 5.91268 18.8844 6.04393 19.3001C6.17518 19.7157 6.56268 20.0001 7.00018 20.0001H17.0002C17.3627 20.0001 17.6908 19.8063 17.8658 19.5001ZM12.1502 14.9969L8.0783 11.7876C8.44393 13.6188 10.0596 15.0001 12.0002 15.0001C12.0502 15.0001 12.1002 15.0001 12.1502 14.9969Z" fill="black"/>
</svg>
