<svg width="24" height="24" viewBox="0 0 24 24" fill="none" xmlns="http://www.w3.org/2000/svg">
<path d="M6.99983 4C7.53026 4 8.03897 4.21071 8.41404 4.58579C8.78912 4.96086 8.99983 5.46957 8.99983 6C8.99983 6.53043 8.78912 7.03914 8.41404 7.41421C8.03897 7.78929 7.53026 8 6.99983 8C6.4694 8 5.96069 7.78929 5.58562 7.41421C5.21054 7.03914 4.99983 6.53043 4.99983 6C4.99983 5.46957 5.21054 4.96086 5.58562 4.58579C5.96069 4.21071 6.4694 4 6.99983 4ZM4.74983 19V16.5H4.19358C3.85295 16.5 3.61233 16.1656 3.71858 15.8406L4.69045 12.9219L3.7967 14.1031C3.46233 14.5437 2.8342 14.6281 2.3967 14.2969C1.9592 13.9656 1.8717 13.3375 2.20295 12.8969L4.04358 10.4688C4.74358 9.54375 5.84045 9 6.99983 9C8.1592 9 9.25608 9.54375 9.95608 10.4688L11.7967 12.8969C12.1311 13.3375 12.0436 13.9656 11.603 14.2969C11.1623 14.6281 10.5342 14.5437 10.203 14.1031L9.3092 12.9219L10.2811 15.8406C10.3905 16.1656 10.1467 16.5 9.80608 16.5H9.24983V19C9.24983 19.5531 8.80295 20 8.24983 20C7.6967 20 7.24983 19.5531 7.24983 19V16.5H6.74983V19C6.74983 19.5531 6.30295 20 5.74983 20C5.1967 20 4.74983 19.5531 4.74983 19ZM16.9998 4C17.5303 4 18.039 4.21071 18.414 4.58579C18.7891 4.96086 18.9998 5.46957 18.9998 6C18.9998 6.53043 18.7891 7.03914 18.414 7.41421C18.039 7.78929 17.5303 8 16.9998 8C16.4694 8 15.9607 7.78929 15.5856 7.41421C15.2105 7.03914 14.9998 6.53043 14.9998 6C14.9998 5.46957 15.2105 4.96086 15.5856 4.58579C15.9607 4.21071 16.4694 4 16.9998 4ZM16.7498 16V19C16.7498 19.5531 16.303 20 15.7498 20C15.1967 20 14.7498 19.5531 14.7498 19V13.3906L14.3467 14.0312C14.053 14.5 13.4342 14.6375 12.9686 14.3438C12.503 14.05 12.3623 13.4312 12.6561 12.9656L14.2717 10.4C14.8217 9.52813 15.7811 8.99687 16.8092 8.99687H17.1936C18.2248 8.99687 19.1842 9.525 19.7311 10.4L21.3467 12.9688C21.6405 13.4375 21.4998 14.0531 21.0342 14.3469C20.5686 14.6406 19.9498 14.5 19.6561 14.0344L19.2498 13.3906V19C19.2498 19.5531 18.803 20 18.2498 20C17.6967 20 17.2498 19.5531 17.2498 19V16H16.7498Z" fill="black"/>
</svg>
