<svg width="24" height="24" viewBox="0 0 24 24" fill="none" xmlns="http://www.w3.org/2000/svg">
<path d="M14 6C14 5.46957 13.7893 4.96086 13.4142 4.58579C13.0392 4.21071 12.5305 4 12 4C11.4696 4 10.9609 4.21071 10.5858 4.58579C10.2107 4.96086 10 5.46957 10 6C10 6.53043 10.2107 7.03914 10.5858 7.41421C10.9609 7.78929 11.4696 8 12 8C12.5305 8 13.0392 7.78929 13.4142 7.41421C13.7893 7.03914 14 6.53043 14 6ZM9.75002 16.5V19C9.75002 19.5531 10.1969 20 10.75 20C11.3031 20 11.75 19.5531 11.75 19V16.5H12.25V19C12.25 19.5531 12.6969 20 13.25 20C13.8031 20 14.25 19.5531 14.25 19V16.5H14.8063C15.1469 16.5 15.3875 16.1656 15.2813 15.8406L14.3094 12.9219L15.2031 14.1031C15.5375 14.5437 16.1656 14.6281 16.6031 14.2969C17.0406 13.9656 17.1281 13.3375 16.7969 12.8969L14.9563 10.4688C14.2563 9.54375 13.1594 9 12 9C10.8406 9 9.74377 9.54375 9.04377 10.4688L7.20315 12.8969C6.86877 13.3375 6.95627 13.9656 7.3969 14.2969C7.83752 14.6281 8.46565 14.5437 8.7969 14.1031L9.69377 12.9219L8.71877 15.8406C8.61252 16.1656 8.85315 16.5 9.19377 16.5H9.75002Z" fill="black"/>
</svg>
