<svg width="24" height="24" viewBox="0 0 24 24" fill="none" xmlns="http://www.w3.org/2000/svg">
<path d="M5 5.5C5 4.67188 5.67188 4 6.5 4H17.5C18.3281 4 19 4.67188 19 5.5V15.5C19 16.3281 18.3281 17 17.5 17H6.5C5.67188 17 5 16.3281 5 15.5V5.5ZM6 19V18H18V19C18 19.5531 17.5531 20 17 20H7C6.44687 20 6 19.5531 6 19ZM8 6C7.44688 6 7 6.44688 7 7V11C7 11.5531 7.44688 12 8 12H16C16.5531 12 17 11.5531 17 11V7C17 6.44688 16.5531 6 16 6H8ZM7.5 15.25C7.69891 15.25 7.88968 15.171 8.03033 15.0303C8.17098 14.8897 8.25 14.6989 8.25 14.5C8.25 14.3011 8.17098 14.1103 8.03033 13.9697C7.88968 13.829 7.69891 13.75 7.5 13.75C7.30109 13.75 7.11032 13.829 6.96967 13.9697C6.82902 14.1103 6.75 14.3011 6.75 14.5C6.75 14.6989 6.82902 14.8897 6.96967 15.0303C7.11032 15.171 7.30109 15.25 7.5 15.25ZM12 14.5C12 14.775 12.225 15 12.5 15H16.5C16.775 15 17 14.775 17 14.5C17 14.225 16.775 14 16.5 14H12.5C12.225 14 12 14.225 12 14.5Z" fill="black"/>
</svg>
