<svg width="24" height="24" viewBox="0 0 24 24" fill="none" xmlns="http://www.w3.org/2000/svg">
<path d="M11.9999 18C16.4187 18 19.9999 15.0906 19.9999 11.5C19.9999 7.90937 16.4187 5 11.9999 5C7.58116 5 3.99991 7.90937 3.99991 11.5C3.99991 12.9094 4.55304 14.2125 5.49054 15.2781C5.43116 16.0437 5.13429 16.725 4.82179 17.2437C4.64991 17.5312 4.47491 17.7625 4.34679 17.9187C4.28116 17.9969 4.23116 18.0563 4.19366 18.0969C4.17491 18.1156 4.16241 18.1313 4.15304 18.1406L4.14366 18.15C3.99991 18.2937 3.95929 18.5063 4.03741 18.6938C4.11554 18.8813 4.29679 19.0031 4.49991 19.0031C5.39679 19.0031 6.29991 18.725 7.04991 18.4C7.76554 18.0875 8.37491 17.7156 8.74679 17.4438C9.74054 17.8031 10.8405 18.0031 11.9999 18.0031V18ZM15.5312 10.0312L11.5312 14.0312C11.2374 14.325 10.7624 14.325 10.4718 14.0312L8.47179 12.0312C8.17804 11.7375 8.17804 11.2625 8.47179 10.9719C8.76554 10.6813 9.24054 10.6781 9.53116 10.9719L10.9999 12.4406L14.4687 8.96875C14.7624 8.675 15.2374 8.675 15.528 8.96875C15.8187 9.2625 15.8218 9.7375 15.528 10.0281L15.5312 10.0312Z" fill="black"/>
</svg>
