<svg width="24" height="24" viewBox="0 0 24 24" fill="none" xmlns="http://www.w3.org/2000/svg">
<path d="M11.3281 4.1781C11.7625 4.02185 12.2375 4.02185 12.675 4.1781L18.675 6.32185C19.4688 6.60623 20 7.35935 20 8.20623V15.7937C20 16.6375 19.4688 17.3937 18.6719 17.6781L12.6719 19.8218C12.2375 19.9781 11.7625 19.9781 11.325 19.8218L5.325 17.6781C4.53125 17.3937 4 16.6406 4 15.7937V8.20623C4 7.36248 4.53125 6.60623 5.32812 6.32185L11.3281 4.1781ZM12 6.06248L6.57188 7.99998L12 9.93748L17.4281 7.99998L12 6.06248ZM13 17.5812L18 15.7969V9.92185L13 11.7062V17.5812Z" fill="black"/>
</svg>
