<svg width="24" height="24" viewBox="0 0 24 24" fill="none" xmlns="http://www.w3.org/2000/svg">
<path d="M12 20C14.1217 20 16.1566 19.1571 17.6569 17.6569C19.1571 16.1566 20 14.1217 20 12C20 9.87827 19.1571 7.84344 17.6569 6.34315C16.1566 4.84285 14.1217 4 12 4C9.87827 4 7.84344 4.84285 6.34315 6.34315C4.84285 7.84344 4 9.87827 4 12C4 14.1217 4.84285 16.1566 6.34315 17.6569C7.84344 19.1571 9.87827 20 12 20ZM9.75 8H14.25C14.6656 8 15 8.33437 15 8.75C15 9.16563 14.6656 9.5 14.25 9.5H10.5V11.25H13.25C13.6656 11.25 14 11.5844 14 12C14 12.4156 13.6656 12.75 13.25 12.75H10.5V14.5H14.25C14.6656 14.5 15 14.8344 15 15.25C15 15.6656 14.6656 16 14.25 16H9.75C9.33437 16 9 15.6656 9 15.25V12V8.75C9 8.33437 9.33437 8 9.75 8Z" fill="black"/>
</svg>
