<svg width="24" height="24" viewBox="0 0 24 24" fill="none" xmlns="http://www.w3.org/2000/svg">
<path d="M5.29395 11.2941C4.90332 11.6848 4.90332 12.3191 5.29395 12.7098L11.2939 18.7098C11.6846 19.1004 12.3189 19.1004 12.7096 18.7098C13.1002 18.3191 13.1002 17.6848 12.7096 17.2941L7.41582 12.0004L12.7064 6.70664C13.0971 6.31602 13.0971 5.68164 12.7064 5.29102C12.3158 4.90039 11.6814 4.90039 11.2908 5.29102L5.29082 11.291L5.29395 11.2941ZM17.2939 5.29414L11.2939 11.2941C10.9033 11.6848 10.9033 12.3191 11.2939 12.7098L17.2939 18.7098C17.6846 19.1004 18.3189 19.1004 18.7096 18.7098C19.1002 18.3191 19.1002 17.6848 18.7096 17.2941L13.4158 12.0004L18.7064 6.70664C19.0971 6.31602 19.0971 5.68164 18.7064 5.29102C18.3158 4.90039 17.6814 4.90039 17.2908 5.29102L17.2939 5.29414Z" fill="black"/>
</svg>
