<svg width="24" height="24" viewBox="0 0 24 24" fill="none" xmlns="http://www.w3.org/2000/svg">
<path d="M12 20C14.1217 20 16.1566 19.1571 17.6569 17.6569C19.1571 16.1566 20 14.1217 20 12C20 9.87827 19.1571 7.84344 17.6569 6.34315C16.1566 4.84285 14.1217 4 12 4C9.87827 4 7.84344 4.84285 6.34315 6.34315C4.84285 7.84344 4 9.87827 4 12C4 14.1217 4.84285 16.1566 6.34315 17.6569C7.84344 19.1571 9.87827 20 12 20ZM9 8H10.2937L10.6469 7.64687C10.7406 7.55312 10.8688 7.5 11 7.5H13C13.1313 7.5 13.2594 7.55312 13.3531 7.64687L13.7063 8H15C15.275 8 15.5 8.225 15.5 8.5C15.5 8.775 15.275 9 15 9H9C8.725 9 8.5 8.775 8.5 8.5C8.5 8.225 8.725 8 9 8ZM9 10H15L14.575 15.0844C14.5312 15.6031 14.1 16 13.5781 16H10.4187C9.9 16 9.46562 15.6 9.42188 15.0844L9 10Z" fill="black"/>
</svg>
