<svg width="24" height="24" viewBox="0 0 24 24" fill="none" xmlns="http://www.w3.org/2000/svg">
<path d="M18.7062 12.7063C19.0969 12.3156 19.0969 11.6813 18.7062 11.2906L12.7062 5.29065C12.3156 4.90002 11.6812 4.90002 11.2906 5.29065C10.9 5.68127 10.9 6.31565 11.2906 6.70627L16.5844 12L11.2937 17.2938C10.9031 17.6844 10.9031 18.3188 11.2937 18.7094C11.6844 19.1 12.3187 19.1 12.7094 18.7094L18.7094 12.7094L18.7062 12.7063ZM6.70624 18.7063L12.7062 12.7063C13.0969 12.3156 13.0969 11.6813 12.7062 11.2906L6.70624 5.29065C6.31562 4.90002 5.68124 4.90002 5.29062 5.29065C4.89999 5.68127 4.89999 6.31565 5.29062 6.70627L10.5844 12L5.29374 17.2938C4.90312 17.6844 4.90312 18.3188 5.29374 18.7094C5.68437 19.1 6.31874 19.1 6.70937 18.7094L6.70624 18.7063Z" fill="black"/>
</svg>
