<svg width="24" height="24" viewBox="0 0 24 24" fill="none" xmlns="http://www.w3.org/2000/svg">
<path d="M4.2937 4.29377C4.68433 3.90315 5.31558 3.90315 5.7062 4.29377L8.7062 7.29377L10.7062 9.29377L15.7062 14.2938L17.7062 16.2938L19.7062 18.2938C20.0968 18.6844 20.0968 19.3188 19.7062 19.7094C19.3156 20.1 18.6812 20.1 18.2906 19.7094L16.5843 18H15C14.4468 18 14 17.5531 14 17V15.4156L9.58433 11H7.99995C7.44683 11 6.99995 10.5531 6.99995 10V8.41565L4.2937 5.70627C3.90308 5.31565 3.90308 4.68127 4.2937 4.29065V4.29377ZM4.2937 11.2938C4.68433 10.9031 5.3187 10.9031 5.70933 11.2938L7.70933 13.2938L10.7093 16.2938L12.7093 18.2938C13.1 18.6844 13.1 19.3188 12.7093 19.7094C12.3187 20.1 11.6843 20.1 11.2937 19.7094L9.58433 18H6.99995C6.44683 18 5.99995 17.5531 5.99995 17V14.4156L4.2937 12.7063C3.90308 12.3156 3.90308 11.6813 4.2937 11.2906V11.2938ZM12.7062 4.29377L13.7062 5.29377L15.7062 7.29377L17.7062 9.29377L19.7062 11.2938L20.7062 12.2938C21.0968 12.6844 21.0968 13.3188 20.7062 13.7094C20.3156 14.1 19.6812 14.1 19.2906 13.7094L18.5843 13H17C16.4468 13 16 12.5531 16 12V10.4156L14.5843 9.00002H13C12.4468 9.00002 12 8.55315 12 8.00002V6.41565L11.2937 5.70627C10.9031 5.31565 10.9031 4.68127 11.2937 4.29065C11.6843 3.90002 12.3187 3.90002 12.7093 4.29065L12.7062 4.29377Z" fill="black"/>
</svg>
