<svg width="24" height="24" viewBox="0 0 24 24" fill="none" xmlns="http://www.w3.org/2000/svg">
<path d="M15.3562 10.3531C16.1187 9.58437 16.775 8.25 17.2281 7.175C17.3875 6.79375 17.8812 6.69687 18.1093 7.04062C19.7093 9.46875 18.9281 13.3281 16.1281 16.1281C13.6406 18.6156 10.3156 19.5062 7.90309 18.5562C7.44059 18.375 7.27809 17.8312 7.49059 17.3844C7.51247 17.3344 7.53747 17.2875 7.55934 17.2375C8.07497 16.1594 8.73122 14.9812 9.35309 14.3531C10.2812 13.4187 11.2187 12.95 12.2218 12.4469L12.2375 12.4375C13.2375 11.9406 14.3031 11.4094 15.3531 10.35L15.3562 10.3531ZM6.65934 16.8031C6.49372 17.1469 6.03747 17.2281 5.81872 16.9156C4.13122 14.4969 4.89372 10.5656 7.73122 7.72812C10.2375 5.22187 13.5968 4.33437 16.0156 5.325C16.4531 5.50312 16.6218 6.0125 16.4437 6.45C16.4 6.55937 16.3531 6.67187 16.3062 6.7875C15.8531 7.86562 15.2593 9.03125 14.6468 9.64687C13.7187 10.5812 12.7812 11.05 11.7781 11.5531L11.7625 11.5625C10.7625 12.0594 9.69684 12.5906 8.64684 13.65C7.89372 14.4094 7.17497 15.7312 6.65934 16.8062V16.8031Z" fill="black"/>
</svg>
