<svg width="24" height="24" viewBox="0 0 24 24" fill="none" xmlns="http://www.w3.org/2000/svg">
<path d="M16.7062 4.2937L21.7062 9.2937C22.0968 9.68433 22.0968 10.3187 21.7062 10.7093C21.3155 11.1 20.6812 11.1 20.2905 10.7093L15.2905 5.70933C14.8999 5.3187 14.8999 4.68433 15.2905 4.2937C15.6812 3.90308 16.3155 3.90308 16.7062 4.2937ZM11.2062 9.8812L14.628 6.4562L16.0437 7.87183L14.4155 9.49995L16.4999 11.5843L18.128 9.9562L19.5437 11.3718L17.2124 13.7031L17.2093 13.7062L17.2062 13.7093L16.1218 14.7937C15.7187 15.1968 15.2093 15.4781 14.6499 15.6L11.2843 16.35C11.0999 16.3906 10.928 16.4843 10.7937 16.6187L7.70615 19.7062C7.31553 20.0968 6.68115 20.0968 6.29053 19.7062C5.8999 19.3156 5.8999 18.6812 6.29053 18.2906L9.37803 15.2031C9.5124 15.0687 9.60615 14.9 9.64678 14.7125L10.3937 11.35C10.5187 10.7937 10.7968 10.2843 11.1999 9.87808L11.2062 9.8812ZM12.6218 11.2968C12.4874 11.4312 12.3937 11.6 12.353 11.7875L11.8218 14.1843L14.2187 13.6531C14.403 13.6125 14.5749 13.5187 14.7093 13.3843L15.0843 13L12.9999 10.9156L12.6187 11.2968H12.6218ZM7.29365 4.2937C7.68428 3.90308 8.31865 3.90308 8.70928 4.2937C9.0999 4.68433 9.0999 5.3187 8.70928 5.70933L8.66553 5.74995L11.2937 8.37808L10.4999 9.17183C10.2905 9.3812 10.1062 9.61245 9.9499 9.85933L7.2499 7.16558L5.16553 9.24995L8.99053 13.075L8.6749 14.4968L8.14365 15.0281C8.05303 14.9562 7.96553 14.8781 7.88115 14.7937L3.7499 10.6656L3.70615 10.7093C3.31553 11.1 2.68115 11.1 2.29053 10.7093C1.8999 10.3187 1.8999 9.68433 2.29053 9.2937L7.29053 4.2937H7.29365ZM14.8655 16.5781C15.1562 16.5125 15.4374 16.4156 15.7062 16.2906L17.7093 18.2937C18.0999 18.6843 18.0999 19.3187 17.7093 19.7093C17.3187 20.1 16.6843 20.1 16.2937 19.7093L13.4749 16.8906L14.8655 16.5812V16.5781Z" fill="black"/>
</svg>
