<svg width="24" height="24" viewBox="0 0 24 24" fill="none" xmlns="http://www.w3.org/2000/svg">
<path d="M12 4C9.87827 4 7.84344 4.84285 6.34315 6.34315C4.84285 7.84344 4 9.87827 4 12C4 14.1217 4.84285 16.1566 6.34315 17.6569C7.84344 19.1571 9.87827 20 12 20C14.1217 20 16.1566 19.1571 17.6569 17.6569C19.1571 16.1566 20 14.1217 20 12C20 9.87827 19.1571 7.84344 17.6569 6.34315C16.1566 4.84285 14.1217 4 12 4ZM10 15.5C9.58437 15.5 9.25 15.1656 9.25 14.75C9.25 14.3344 9.58437 14 10 14H12.9406L8.71875 9.78125C8.425 9.4875 8.425 9.0125 8.71875 8.72188C9.0125 8.43125 9.4875 8.42813 9.77812 8.72188L13.9969 12.9406V9.75C13.9969 9.33437 14.3313 9 14.7469 9C15.1625 9 15.4969 9.33437 15.4969 9.75V14.75C15.4969 15.1656 15.1625 15.5 14.7469 15.5H10Z" fill="black"/>
</svg>
