<svg width="24" height="24" viewBox="0 0 24 24" fill="none" xmlns="http://www.w3.org/2000/svg">
<path d="M6.26553 11.8758C6.22178 11.9539 6.22178 12.0477 6.26553 12.1258L9.0249 16.9039C9.06865 16.982 9.15303 17.0289 9.24053 17.0289H14.7593C14.8499 17.0289 14.9312 16.982 14.9749 16.9039L17.7343 12.1258C17.778 12.0477 17.778 11.9539 17.7343 11.8758L14.9749 7.09766C14.9312 7.01953 14.8468 6.97266 14.7593 6.97266H9.24053C9.1499 6.97266 9.06865 7.01953 9.0249 7.09766L6.26553 11.8758ZM4.53428 13.1258C4.13115 12.4289 4.13115 11.5727 4.53428 10.8758L7.29365 6.09766C7.69678 5.40078 8.4374 4.97266 9.24365 4.97266H14.7593C15.5624 4.97266 16.3062 5.40078 16.7093 6.09766L19.4655 10.8758C19.8687 11.5727 19.8687 12.4289 19.4655 13.1258L16.7062 17.9039C16.303 18.6008 15.5624 19.0289 14.7562 19.0289H9.24053C8.4374 19.0289 7.69365 18.6008 7.29053 17.9039L4.53428 13.1258ZM13.0687 9.65078L14.3249 12.7945C14.8593 12.9383 15.2499 13.4227 15.2499 14.0008C15.2499 14.6914 14.6905 15.2508 13.9999 15.2508C13.503 15.2508 13.0718 14.9602 12.8718 14.5414L9.83428 13.9352C9.6124 14.132 9.32178 14.2539 8.9999 14.2539C8.30928 14.2539 7.7499 13.6945 7.7499 13.0039C7.7499 12.3133 8.30928 11.7539 8.9999 11.7539L10.7999 9.35391C10.7687 9.24141 10.7499 9.12578 10.7499 9.00391C10.7499 8.31328 11.3093 7.75391 11.9999 7.75391C12.6905 7.75391 13.2499 8.31328 13.2499 9.00391C13.2499 9.24141 13.1843 9.46328 13.0687 9.65391V9.65078ZM10.3124 12.4977L12.7874 12.9914L11.7968 10.5164L10.3124 12.4977Z" fill="black"/>
</svg>
