<svg width="24" height="24" viewBox="0 0 24 24" fill="none" xmlns="http://www.w3.org/2000/svg">
<path d="M15.3563 10.3531C16.1188 9.58437 16.775 8.25 17.2282 7.175C17.3875 6.79375 17.8813 6.69687 18.1094 7.04062C19.7094 9.46875 18.9282 13.3281 16.1282 16.1281C13.6407 18.6156 10.3157 19.5062 7.90315 18.5562C7.44065 18.375 7.27815 17.8312 7.49065 17.3844C7.51253 17.3344 7.53753 17.2875 7.5594 17.2375C8.07503 16.1594 8.73128 14.9812 9.35315 14.3531C10.2813 13.4187 11.2188 12.95 12.2219 12.4469L12.2375 12.4375C13.2375 11.9406 14.3032 11.4094 15.3532 10.35L15.3563 10.3531ZM6.6594 16.8031C6.49378 17.1469 6.03753 17.2281 5.81878 16.9156C4.13128 14.4969 4.89378 10.5656 7.73128 7.72812C10.2375 5.22187 13.5969 4.33437 16.0157 5.325C16.4532 5.50312 16.6219 6.0125 16.4438 6.45C16.4 6.55937 16.3532 6.67187 16.3063 6.7875C15.8532 7.86562 15.2594 9.03125 14.6469 9.64687C13.7188 10.5812 12.7813 11.05 11.7782 11.5531L11.7625 11.5625C10.7625 12.0594 9.6969 12.5906 8.6469 13.65C7.89378 14.4094 7.17503 15.7312 6.6594 16.8062V16.8031Z" fill="black"/>
</svg>
