<svg width="24" height="24" viewBox="0 0 24 24" fill="none" xmlns="http://www.w3.org/2000/svg">
<path d="M12 20C14.1217 20 16.1566 19.1571 17.6569 17.6569C19.1571 16.1566 20 14.1217 20 12C20 9.87827 19.1571 7.84344 17.6569 6.34315C16.1566 4.84285 14.1217 4 12 4C9.87827 4 7.84344 4.84285 6.34315 6.34315C4.84285 7.84344 4 9.87827 4 12C4 14.1217 4.84285 16.1566 6.34315 17.6569C7.84344 19.1571 9.87827 20 12 20ZM12 8.5C12.2094 8.5 12.4063 8.5875 12.55 8.74062L15.8 12.2406C16.0031 12.4594 16.0562 12.7781 15.9375 13.05C15.8188 13.3219 15.5469 13.5 15.25 13.5H8.75C8.45312 13.5 8.18125 13.3219 8.0625 13.05C7.94375 12.7781 7.99687 12.4594 8.2 12.2406L11.45 8.74062C11.5906 8.5875 11.7906 8.5 12 8.5Z" fill="black"/>
</svg>
