<svg width="24" height="24" viewBox="0 0 24 24" fill="none" xmlns="http://www.w3.org/2000/svg">
<path d="M8 5V6H6.5C5.67188 6 5 6.67188 5 7.5V9H19V7.5C19 6.67188 18.3281 6 17.5 6H16V5C16 4.44687 15.5531 4 15 4C14.4469 4 14 4.44687 14 5V6H10V5C10 4.44687 9.55312 4 9 4C8.44688 4 8 4.44687 8 5ZM19 10H5V18.5C5 19.3281 5.67188 20 6.5 20H17.5C18.3281 20 19 19.3281 19 18.5V10ZM9 13C9 13.2652 8.89464 13.5196 8.70711 13.7071C8.51957 13.8946 8.26522 14 8 14C7.73478 14 7.48043 13.8946 7.29289 13.7071C7.10536 13.5196 7 13.2652 7 13C7 12.7348 7.10536 12.4804 7.29289 12.2929C7.48043 12.1054 7.73478 12 8 12C8.26522 12 8.51957 12.1054 8.70711 12.2929C8.89464 12.4804 9 12.7348 9 13ZM16 18C15.7348 18 15.4804 17.8946 15.2929 17.7071C15.1054 17.5196 15 17.2652 15 17C15 16.7348 15.1054 16.4804 15.2929 16.2929C15.4804 16.1054 15.7348 16 16 16C16.2652 16 16.5196 16.1054 16.7071 16.2929C16.8946 16.4804 17 16.7348 17 17C17 17.2652 16.8946 17.5196 16.7071 17.7071C16.5196 17.8946 16.2652 18 16 18ZM11 13C11 12.5844 11.3344 12.25 11.75 12.25H16.25C16.6656 12.25 17 12.5844 17 13C17 13.4156 16.6656 13.75 16.25 13.75H11.75C11.3344 13.75 11 13.4156 11 13ZM12.25 16.25C12.6656 16.25 13 16.5844 13 17C13 17.4156 12.6656 17.75 12.25 17.75H7.75C7.33437 17.75 7 17.4156 7 17C7 16.5844 7.33437 16.25 7.75 16.25H12.25Z" fill="black"/>
</svg>
