<svg width="24" height="24" viewBox="0 0 24 24" fill="none" xmlns="http://www.w3.org/2000/svg">
<path d="M9 7C9 6.44687 8.55312 6 8 6C7.44688 6 7 6.44687 7 7V9H5C4.44687 9 4 9.44688 4 10C4 10.5531 4.44687 11 5 11H8C8.55312 11 9 10.5531 9 10V7ZM5 13C4.44687 13 4 13.4469 4 14C4 14.5531 4.44687 15 5 15H7V17C7 17.5531 7.44688 18 8 18C8.55312 18 9 17.5531 9 17V14C9 13.4469 8.55312 13 8 13H5ZM17 7C17 6.44687 16.5531 6 16 6C15.4469 6 15 6.44687 15 7V10C15 10.5531 15.4469 11 16 11H19C19.5531 11 20 10.5531 20 10C20 9.44688 19.5531 9 19 9H17V7ZM16 13C15.4469 13 15 13.4469 15 14V17C15 17.5531 15.4469 18 16 18C16.5531 18 17 17.5531 17 17V15H19C19.5531 15 20 14.5531 20 14C20 13.4469 19.5531 13 19 13H16Z" fill="black"/>
</svg>
