<svg width="24" height="24" viewBox="0 0 24 24" fill="none" xmlns="http://www.w3.org/2000/svg">
<path d="M6.75 6.5C6.75 6.30109 6.82902 6.11032 6.96967 5.96967C7.11032 5.82902 7.30109 5.75 7.5 5.75C7.69891 5.75 7.88968 5.82902 8.03033 5.96967C8.17098 6.11032 8.25 6.30109 8.25 6.5C8.25 6.69891 8.17098 6.88968 8.03033 7.03033C7.88968 7.17098 7.69891 7.25 7.5 7.25C7.30109 7.25 7.11032 7.17098 6.96967 7.03033C6.82902 6.88968 6.75 6.69891 6.75 6.5ZM8.5 8.79063C9.38437 8.40625 10 7.525 10 6.5C10 5.11875 8.88125 4 7.5 4C6.11875 4 5 5.11875 5 6.5C5 7.525 5.61563 8.40625 6.5 8.79063V15.2094C5.61563 15.5938 5 16.475 5 17.5C5 18.8813 6.11875 20 7.5 20C8.88125 20 10 18.8813 10 17.5C10 16.475 9.38437 15.5938 8.5 15.2094V8.79063ZM6.75 17.5C6.75 17.3011 6.82902 17.1103 6.96967 16.9697C7.11032 16.829 7.30109 16.75 7.5 16.75C7.69891 16.75 7.88968 16.829 8.03033 16.9697C8.17098 17.1103 8.25 17.3011 8.25 17.5C8.25 17.6989 8.17098 17.8897 8.03033 18.0303C7.88968 18.171 7.69891 18.25 7.5 18.25C7.30109 18.25 7.11032 18.171 6.96967 18.0303C6.82902 17.8897 6.75 17.6989 6.75 17.5ZM16.5 16.75C16.6989 16.75 16.8897 16.829 17.0303 16.9697C17.171 17.1103 17.25 17.3011 17.25 17.5C17.25 17.6989 17.171 17.8897 17.0303 18.0303C16.8897 18.171 16.6989 18.25 16.5 18.25C16.3011 18.25 16.1103 18.171 15.9697 18.0303C15.829 17.8897 15.75 17.6989 15.75 17.5C15.75 17.3011 15.829 17.1103 15.9697 16.9697C16.1103 16.829 16.3011 16.75 16.5 16.75ZM16.5 20C17.163 20 17.7989 19.7366 18.2678 19.2678C18.7366 18.7989 19 18.163 19 17.5C19 16.837 18.7366 16.2011 18.2678 15.7322C17.7989 15.2634 17.163 15 16.5 15C15.837 15 15.2011 15.2634 14.7322 15.7322C14.2634 16.2011 14 16.837 14 17.5C14 18.163 14.2634 18.7989 14.7322 19.2678C15.2011 19.7366 15.837 20 16.5 20ZM18 6.5C18 6.10218 17.842 5.72064 17.5607 5.43934C17.2794 5.15804 16.8978 5 16.5 5C16.1022 5 15.7206 5.15804 15.4393 5.43934C15.158 5.72064 15 6.10218 15 6.5C15 6.89782 15.158 7.27936 15.4393 7.56066C15.7206 7.84196 16.1022 8 16.5 8C16.8978 8 17.2794 7.84196 17.5607 7.56066C17.842 7.27936 18 6.89782 18 6.5ZM16.5 13C16.8978 13 17.2794 12.842 17.5607 12.5607C17.842 12.2794 18 11.8978 18 11.5C18 11.1022 17.842 10.7206 17.5607 10.4393C17.2794 10.158 16.8978 10 16.5 10C16.1022 10 15.7206 10.158 15.4393 10.4393C15.158 10.7206 15 11.1022 15 11.5C15 11.8978 15.158 12.2794 15.4393 12.5607C15.7206 12.842 16.1022 13 16.5 13Z" fill="black"/>
</svg>
