<svg width="24" height="24" viewBox="0 0 24 24" fill="none" xmlns="http://www.w3.org/2000/svg">
<path d="M12 20C14.1217 20 16.1566 19.1571 17.6569 17.6569C19.1571 16.1566 20 14.1217 20 12C20 9.87827 19.1571 7.84344 17.6569 6.34315C16.1566 4.84285 14.1217 4 12 4C9.87827 4 7.84344 4.84285 6.34315 6.34315C4.84285 7.84344 4 9.87827 4 12C4 14.1217 4.84285 16.1566 6.34315 17.6569C7.84344 19.1571 9.87827 20 12 20ZM9.75 8H13.75C14.0594 8 14.3375 8.19063 14.45 8.47813C14.5625 8.76563 14.4844 9.09375 14.2563 9.30312L12.6687 10.7562C13.9781 10.9062 15 12.0187 15 13.3687C15 14.8219 13.8219 16 12.3687 16H11.5C10.5594 16 9.68438 15.5125 9.19063 14.7125L9.10938 14.5813C8.89062 14.2281 9 13.7656 9.35313 13.55C9.70625 13.3344 10.1688 13.4406 10.3844 13.7937L10.4656 13.925C10.6875 14.2844 11.0781 14.5 11.4969 14.5H12.3656C12.9906 14.5 13.4969 13.9937 13.4969 13.3687C13.4969 12.7406 12.9875 12.2344 12.3594 12.2375L10.75 12.2469C10.4406 12.25 10.1594 12.0594 10.0469 11.7719C9.93438 11.4844 10.0094 11.1531 10.2375 10.9437L11.8219 9.5H9.75C9.33437 9.5 9 9.16563 9 8.75C9 8.33437 9.33437 8 9.75 8Z" fill="black"/>
</svg>
