<svg width="24" height="24" viewBox="0 0 24 24" fill="none" xmlns="http://www.w3.org/2000/svg">
<path d="M12 20C14.1217 20 16.1566 19.1571 17.6569 17.6569C19.1571 16.1566 20 14.1217 20 12C20 9.87827 19.1571 7.84344 17.6569 6.34315C16.1566 4.84285 14.1217 4 12 4C9.87827 4 7.84344 4.84285 6.34315 6.34315C4.84285 7.84344 4 9.87827 4 12C4 14.1217 4.84285 16.1566 6.34315 17.6569C7.84344 19.1571 9.87827 20 12 20ZM10.5 8.5C10.5 7.67188 11.1719 7 12 7C12.8281 7 13.5 7.67188 13.5 8.5V12C13.5 12.8281 12.8281 13.5 12 13.5C11.1719 13.5 10.5 12.8281 10.5 12V8.5ZM8.5 11C8.775 11 9 11.225 9 11.5V12C9 13.6562 10.3438 15 12 15C13.6562 15 15 13.6562 15 12V11.5C15 11.225 15.225 11 15.5 11C15.775 11 16 11.225 16 11.5V12C16 14.0406 14.4719 15.7219 12.5 15.9688V16.5C12.5 16.775 12.275 17 12 17C11.725 17 11.5 16.775 11.5 16.5V15.9688C9.52813 15.7219 8 14.0406 8 12V11.5C8 11.225 8.225 11 8.5 11Z" fill="black"/>
</svg>
