<svg width="24" height="24" viewBox="0 0 24 24" fill="none" xmlns="http://www.w3.org/2000/svg">
<path d="M12 4C14.1217 4 16.1566 4.84285 17.6569 6.34315C19.1571 7.84344 20 9.87827 20 12C20 14.1217 19.1571 16.1566 17.6569 17.6569C16.1566 19.1571 14.1217 20 12 20C9.87827 20 7.84344 19.1571 6.34315 17.6569C4.84285 16.1566 4 14.1217 4 12C4 9.87827 4.84285 7.84344 6.34315 6.34315C7.84344 4.84285 9.87827 4 12 4ZM11.25 7.75V10.6L9.41563 9.375C9.07188 9.14375 8.60625 9.2375 8.375 9.58437C8.14375 9.93125 8.2375 10.3937 8.58437 10.625L11.5844 12.625C11.8156 12.7781 12.1094 12.7938 12.3531 12.6625C12.5969 12.5313 12.75 12.2781 12.75 12V7.75C12.75 7.33437 12.4156 7 12 7C11.5844 7 11.25 7.33437 11.25 7.75Z" fill="black"/>
</svg>
