<svg width="24" height="24" viewBox="0 0 24 24" fill="none" xmlns="http://www.w3.org/2000/svg">
<path d="M3.53442 15.0562L2.82817 15.4094C2.08754 15.7781 1.78754 16.6812 2.15942 17.4219C2.53129 18.1625 3.43129 18.4625 4.17192 18.0937L4.87504 17.7406C6.20942 19.0281 8.25942 19.4031 10.0125 18.525C10.2032 18.425 10.475 18.2719 10.8063 18.0719C10.2969 17.3437 10 16.4562 10 15.5C10 13.0156 12.0157 11 14.5 11C16.1375 11 17.5719 11.875 18.3594 13.1844C19.3875 12.5 20.325 11.875 21.0469 11.3906C21.8813 10.8312 22.1625 9.74375 21.7157 8.84375L20.7563 6.92187C20.3063 6.025 19.2657 5.59687 18.3188 5.92812C14.9625 7.10312 7.53442 9.725 5.98754 10.475C4.23442 11.35 3.30317 13.2156 3.53442 15.0562ZM14.5 19C15.4283 19 16.3185 18.6312 16.9749 17.9749C17.6313 17.3185 18 16.4283 18 15.5C18 14.5717 17.6313 13.6815 16.9749 13.0251C16.3185 12.3687 15.4283 12 14.5 12C13.5718 12 12.6815 12.3687 12.0252 13.0251C11.3688 13.6815 11 14.5717 11 15.5C11 16.4283 11.3688 17.3185 12.0252 17.9749C12.6815 18.6312 13.5718 19 14.5 19ZM14.5 14.5C14.7653 14.5 15.0196 14.6054 15.2071 14.7929C15.3947 14.9804 15.5 15.2348 15.5 15.5C15.5 15.7652 15.3947 16.0196 15.2071 16.2071C15.0196 16.3946 14.7653 16.5 14.5 16.5C14.2348 16.5 13.9805 16.3946 13.7929 16.2071C13.6054 16.0196 13.5 15.7652 13.5 15.5C13.5 15.2348 13.6054 14.9804 13.7929 14.7929C13.9805 14.6054 14.2348 14.5 14.5 14.5Z" fill="black"/>
</svg>
