<svg width="24" height="24" viewBox="0 0 24 24" fill="none" xmlns="http://www.w3.org/2000/svg">
<path d="M12 20C14.1217 20 16.1566 19.1571 17.6569 17.6569C19.1571 16.1566 20 14.1217 20 12C20 9.87827 19.1571 7.84344 17.6569 6.34315C16.1566 4.84285 14.1217 4 12 4C9.87827 4 7.84344 4.84285 6.34315 6.34315C4.84285 7.84344 4 9.87827 4 12C4 14.1217 4.84285 16.1566 6.34315 17.6569C7.84344 19.1571 9.87827 20 12 20ZM8 12.5H8.5C8.48125 12.3438 8.47188 12.1844 8.47188 12.025C8.47188 11.8469 8.48437 11.6719 8.50625 11.5H8C7.725 11.5 7.5 11.275 7.5 11C7.5 10.725 7.725 10.5 8 10.5H8.77187C9.37187 9.03437 10.8156 8 12.4969 8H13.7812C14.1969 8 14.5312 8.33437 14.5312 8.75C14.5312 9.16563 14.1969 9.5 13.7812 9.5H12.4969C11.675 9.5 10.9469 9.89375 10.4844 10.5H13C13.275 10.5 13.5 10.725 13.5 11C13.5 11.275 13.275 11.5 13 11.5H10.0281C9.99375 11.6688 9.975 11.8437 9.975 12.025C9.975 12.1875 9.99063 12.3469 10.0188 12.5H13C13.275 12.5 13.5 12.725 13.5 13C13.5 13.275 13.275 13.5 13 13.5H10.45C10.9094 14.1344 11.6531 14.5469 12.4969 14.5469H13.7812C14.1969 14.5469 14.5312 14.8812 14.5312 15.2969C14.5312 15.7125 14.1969 16.0469 13.7812 16.0469H12.4969C10.7969 16.0469 9.34063 14.9906 8.75313 13.5H8C7.725 13.5 7.5 13.275 7.5 13C7.5 12.725 7.725 12.5 8 12.5Z" fill="black"/>
</svg>
