<svg width="24" height="24" viewBox="0 0 24 24" fill="none" xmlns="http://www.w3.org/2000/svg">
<path d="M4 10.5C4 12.9844 7.58125 15 12 15C16.4187 15 20 12.9844 20 10.5C20 8.01562 16.4187 6 12 6C7.58125 6 4 8.01562 4 10.5ZM4 13.0656V14C4 14.8719 4.55625 15.675 5.5 16.3313V14.3438C4.92813 13.9844 4.4125 13.5563 4 13.0656ZM6.5 16.9062C7.34687 17.3062 8.36875 17.6156 9.5 17.8031V15.7937C8.40312 15.6062 7.3875 15.2969 6.5 14.8875V16.9062ZM10.5 17.9312C10.9844 17.9781 11.4875 18 12 18C12.5125 18 13.0156 17.975 13.5 17.9312V15.9281C13.0094 15.9781 12.5094 16.0031 12 16.0031C11.4906 16.0031 10.9906 15.9781 10.5 15.9281V17.9312ZM14.5 17.8031C15.6313 17.6156 16.6531 17.3062 17.5 16.9062V14.8844C16.6125 15.2969 15.5969 15.6031 14.5 15.7906V17.8V17.8031ZM18.5 16.3344C19.4438 15.6781 20 14.8719 20 14.0031V13.0688C19.5875 13.5563 19.0719 13.9844 18.5 14.3469V16.3375V16.3344Z" fill="black"/>
</svg>
