<svg width="24" height="24" viewBox="0 0 24 24" fill="none" xmlns="http://www.w3.org/2000/svg">
<path d="M6 6C6 5.44687 5.55313 5 5 5C4.44687 5 4 5.44687 4 6V16.5C4 17.8813 5.11875 19 6.5 19H19C19.5531 19 20 18.5531 20 18C20 17.4469 19.5531 17 19 17H6.5C6.225 17 6 16.775 6 16.5V6ZM15.7937 7.79375L13 10.5844L11.2063 8.79063C10.8156 8.4 10.1813 8.4 9.79063 8.79063L7.29063 11.2906C6.9 11.6813 6.9 12.3156 7.29063 12.7063C7.68125 13.0969 8.31563 13.0969 8.70625 12.7063L10.5 10.9156L12.2937 12.7094C12.6844 13.1 13.3188 13.1 13.7094 12.7094L17.2094 9.20937L17.7937 9.79375C17.925 9.925 18.1062 10 18.2937 10C18.6844 10 19 9.68437 19 9.29375V7.00625V6.99688V6.5C19 6.225 18.775 6 18.5 6H15.7063C15.3156 6 15 6.31562 15 6.70625C15 6.89375 15.075 7.075 15.2063 7.20625L15.7906 7.79063L15.7937 7.79375ZM17.7937 12.2094L17.2094 12.7937L16.125 11.7094L14.7094 13.125L15.7937 14.2094L15.2094 14.7937C15.0781 14.925 15.0031 15.1062 15.0031 15.2937C15.0031 15.6844 15.3188 16 15.7094 16H18.5031C18.7781 16 19.0031 15.775 19.0031 15.5V12.7063C19.0031 12.3156 18.6875 12 18.2969 12C18.1094 12 17.9281 12.075 17.7969 12.2063L17.7937 12.2094Z" fill="black"/>
</svg>
