<svg width="24" height="24" viewBox="0 0 24 24" fill="none" xmlns="http://www.w3.org/2000/svg">
<path d="M12 20C14.1217 20 16.1566 19.1571 17.6569 17.6569C19.1571 16.1566 20 14.1217 20 12C20 9.87827 19.1571 7.84344 17.6569 6.34315C16.1566 4.84285 14.1217 4 12 4C9.87827 4 7.84344 4.84285 6.34315 6.34315C4.84285 7.84344 4 9.87827 4 12C4 14.1217 4.84285 16.1566 6.34315 17.6569C7.84344 19.1571 9.87827 20 12 20ZM9.35938 8.30937L12 11.9688L14.6406 8.30937C14.8313 8.04688 15.1687 7.93438 15.4781 8.03438C15.7875 8.13438 15.9969 8.42188 15.9969 8.74687V15.25C15.9969 15.6656 15.6625 16 15.2469 16C14.8313 16 14.4969 15.6656 14.4969 15.25V11.0687L12.6062 13.6875C12.4656 13.8813 12.2406 13.9969 11.9969 13.9969C11.7531 13.9969 11.5312 13.8813 11.3875 13.6875L9.5 11.0687V15.25C9.5 15.6656 9.16563 16 8.75 16C8.33437 16 8 15.6656 8 15.25V8.75C8 8.425 8.20938 8.1375 8.51875 8.0375C8.82812 7.9375 9.16562 8.04688 9.35625 8.3125L9.35938 8.30937Z" fill="black"/>
</svg>
