<svg width="24" height="24" viewBox="0 0 24 24" fill="none" xmlns="http://www.w3.org/2000/svg">
<path d="M10.5938 4.22818C10.4063 4.03131 10.1251 3.95631 9.86256 4.02506C9.60006 4.09381 9.39693 4.30318 9.32818 4.56568L8.83443 6.51881L6.89693 5.97193C6.63443 5.89693 6.35318 5.97193 6.16256 6.16256C5.97193 6.35318 5.89693 6.63443 5.97193 6.89693L6.51881 8.83443L4.56568 9.33131C4.30318 9.39693 4.09693 9.60318 4.02506 9.86568C3.95318 10.1282 4.03131 10.4063 4.22818 10.5938L5.67193 12.0001L4.22818 13.4063C4.03131 13.5938 3.95631 13.8751 4.02506 14.1376C4.09381 14.4001 4.30318 14.6032 4.56568 14.6719L6.51881 15.1657L5.97193 17.1032C5.89693 17.3657 5.97193 17.6469 6.16256 17.8376C6.35318 18.0282 6.63443 18.1032 6.89693 18.0282L8.83443 17.4813L9.32818 19.4344C9.39381 19.6969 9.60006 19.9032 9.86256 19.9751C10.1251 20.0469 10.4032 19.9688 10.5938 19.7751L12.0001 18.3313L13.4063 19.7751C13.5969 19.9688 13.8751 20.0469 14.1376 19.9751C14.4001 19.9032 14.6032 19.6969 14.6719 19.4344L15.1657 17.4813L17.1032 18.0282C17.3657 18.1032 17.6469 18.0282 17.8376 17.8376C18.0282 17.6469 18.1032 17.3657 18.0282 17.1032L17.4813 15.1657L19.4344 14.6719C19.6969 14.6063 19.9032 14.4001 19.9751 14.1376C20.0469 13.8751 19.9688 13.5938 19.7751 13.4063L18.3313 12.0001L19.7751 10.5938C19.9688 10.4032 20.0469 10.1251 19.9751 9.86256C19.9032 9.60006 19.6969 9.39693 19.4344 9.32818L17.4813 8.83443L18.0282 6.89693C18.1032 6.63443 18.0282 6.35318 17.8376 6.16256C17.6469 5.97193 17.3657 5.89693 17.1032 5.97193L15.1657 6.51881L14.6688 4.56568C14.6032 4.30318 14.3969 4.09693 14.1344 4.02506C13.8719 3.95318 13.5938 4.03131 13.4063 4.22818L12.0001 5.67193L10.5938 4.22818Z" fill="black"/>
</svg>
