<svg width="24" height="24" viewBox="0 0 24 24" fill="none" xmlns="http://www.w3.org/2000/svg">
<path d="M12 20C14.1217 20 16.1566 19.1571 17.6569 17.6569C19.1571 16.1566 20 14.1217 20 12C20 9.87827 19.1571 7.84344 17.6569 6.34315C16.1566 4.84285 14.1217 4 12 4C9.87827 4 7.84344 4.84285 6.34315 6.34315C4.84285 7.84344 4 9.87827 4 12C4 14.1217 4.84285 16.1566 6.34315 17.6569C7.84344 19.1571 9.87827 20 12 20ZM9 8.75C9 8.33437 9.33437 8 9.75 8H12.625C13.9375 8 15 9.0625 15 10.375C15 10.8812 14.8406 11.3531 14.5688 11.7406C15.1344 12.175 15.5 12.8562 15.5 13.625C15.5 14.9375 14.4375 16 13.125 16H9.75C9.33437 16 9 15.6656 9 15.25V12V8.75ZM13.5 10.375C13.5 9.89062 13.1094 9.5 12.625 9.5H10.5V11.25H12.625C13.1094 11.25 13.5 10.8594 13.5 10.375ZM10.5 14.5H13.125C13.6094 14.5 14 14.1094 14 13.625C14 13.1406 13.6094 12.75 13.125 12.75H12.625H10.5V14.5Z" fill="black"/>
</svg>
