<svg width="24" height="24" viewBox="0 0 24 24" fill="none" xmlns="http://www.w3.org/2000/svg">
<path d="M11.1937 4.03747C11.3531 4.1031 11.4656 4.24685 11.4937 4.4156L11.8187 6.3656C11.0906 6.7031 10.4781 7.2531 10.0687 7.93747C9.61247 7.65622 9.07497 7.49685 8.49997 7.49685C6.84372 7.49685 5.49997 8.8406 5.49997 10.4968C5.49997 11.6062 6.1031 12.5781 6.99997 13.0968C7.02497 14.0906 7.41247 14.9937 8.03435 15.6812L6.28435 16.9062C6.14372 17.0031 5.96247 17.025 5.8031 16.9562C5.64372 16.8875 5.53122 16.7468 5.5031 16.5781L5.0656 13.9343L2.41872 13.4937C2.24997 13.4656 2.10622 13.3531 2.0406 13.1937C1.97497 13.0343 1.99372 12.8531 2.0906 12.7125L3.6406 10.5L2.0906 8.28747C1.9906 8.14685 1.97185 7.9656 2.0406 7.80622C2.10935 7.64685 2.24997 7.53435 2.41872 7.50622L5.0656 7.0656L5.50622 4.41872C5.53435 4.24997 5.64685 4.10622 5.80622 4.0406C5.9656 3.97497 6.14685 3.99372 6.28747 4.0906L8.49997 5.6406L10.7125 4.0906C10.8531 3.9906 11.0343 3.97185 11.1937 4.0406V4.03747ZM8.49997 8.49997C8.93122 8.49997 9.33435 8.63747 9.65935 8.87185C9.62185 8.99997 9.5906 9.13122 9.5656 9.2656C8.38122 9.72185 7.4656 10.7218 7.13435 11.9656C6.74372 11.5968 6.49997 11.0781 6.49997 10.5C6.49997 9.39685 7.39685 8.49997 8.49997 8.49997ZM21.9968 13.4968C21.9968 14.8781 20.8781 15.9968 19.4968 15.9968H18.9156C19.025 15.6812 19.0312 15.3312 18.9156 15.0031C18.7031 14.4031 18.1375 14 17.5 14H16.9281L17.8437 12.1718C18.1593 11.5406 17.9937 10.7781 17.4437 10.3343C16.8937 9.8906 16.1125 9.8906 15.5625 10.3281L10.5625 14.3281C10.1093 14.6906 9.90935 15.2812 10.0375 15.8406C8.8531 15.4406 7.99997 14.3187 7.99997 13C7.99997 11.5125 9.08122 10.2812 10.5 10.0437V10.0031C10.5 8.34685 11.8437 7.0031 13.5 7.0031C14.5906 7.0031 15.5437 7.58435 16.0687 8.4531C16.475 8.16872 16.9687 8.0031 17.5 8.0031C18.8812 8.0031 20 9.12185 20 10.5031C20 10.6875 19.9812 10.8687 19.9406 11.0406C21.1093 11.25 21.9968 12.2718 21.9968 13.5V13.4968ZM16.8156 11.1125C16.9968 11.2593 17.0531 11.5156 16.95 11.725L15.3093 15H17.5C17.7125 15 17.9 15.1343 17.9718 15.3343C18.0437 15.5343 17.9781 15.7562 17.8125 15.8906L12.8125 19.8906C12.6281 20.0375 12.3687 20.0375 12.1843 19.8875C12 19.7375 11.9468 19.4843 12.05 19.275L13.6906 16H11.5C11.2875 16 11.1 15.8656 11.0281 15.6656C10.9562 15.4656 11.0218 15.2437 11.1875 15.1093L16.1875 11.1093C16.3718 10.9625 16.6312 10.9625 16.8156 11.1125Z" fill="black"/>
</svg>
