<svg width="24" height="24" viewBox="0 0 24 24" fill="none" xmlns="http://www.w3.org/2000/svg">
<path d="M12.75 4.75C12.75 4.33437 12.4156 4 12 4C11.5844 4 11.25 4.33437 11.25 4.75V5.5H10.25C9.83437 5.5 9.5 5.83437 9.5 6.25C9.5 6.66563 9.83437 7 10.25 7H11.25V8.45L7.72813 10.5625C7.275 10.8344 7 11.3219 7 11.85V20H10V17C10 15.8969 10.8969 15 12 15C13.1031 15 14 15.8969 14 17V20H17V11.85C17 11.3219 16.725 10.8344 16.2719 10.5625L12.75 8.45V7H13.75C14.1656 7 14.5 6.66563 14.5 6.25C14.5 5.83437 14.1656 5.5 13.75 5.5H12.75V4.75ZM2.77812 14.3219C2.29688 14.5875 2 15.0906 2 15.6375V18.5C2 19.3281 2.67188 20 3.5 20H6V12.55L2.77812 14.3219ZM20.5 20C21.3281 20 22 19.3281 22 18.5V15.6375C22 15.0906 21.7031 14.5875 21.2219 14.3219L18 12.55V20H20.5Z" fill="black"/>
</svg>
