<svg width="24" height="24" viewBox="0 0 24 24" fill="none" xmlns="http://www.w3.org/2000/svg">
<path d="M6.5 19C4.01562 19 2 16.9844 2 14.5C2 12.5375 3.25625 10.8688 5.00625 10.2531C5.00312 10.1688 5 10.0844 5 10C5 7.2375 7.2375 5 10 5C11.8531 5 13.4688 6.00625 14.3344 7.50625C14.8094 7.1875 15.3844 7 16 7C17.6562 7 19 8.34375 19 10C19 10.3812 18.9281 10.7438 18.8 11.0813C20.625 11.45 22 13.0656 22 15C22 17.2094 20.2094 19 18 19H6.5ZM9.46875 10.4688C9.175 10.7625 9.175 11.2375 9.46875 11.5281L10.9375 12.9969L9.46875 14.4656C9.175 14.7594 9.175 15.2344 9.46875 15.525C9.7625 15.8156 10.2375 15.8187 10.5281 15.525L11.9969 14.0562L13.4656 15.525C13.7594 15.8187 14.2344 15.8187 14.525 15.525C14.8156 15.2312 14.8187 14.7562 14.525 14.4656L13.0562 12.9969L14.525 11.5281C14.8187 11.2344 14.8187 10.7594 14.525 10.4688C14.2312 10.1781 13.7562 10.175 13.4656 10.4688L11.9969 11.9375L10.5281 10.4688C10.2344 10.175 9.75938 10.175 9.46875 10.4688Z" fill="black"/>
</svg>
