<svg width="24" height="24" viewBox="0 0 24 24" fill="none" xmlns="http://www.w3.org/2000/svg">
<path d="M2 14.5C2 16.9844 4.01562 19 6.5 19H18C20.2094 19 22 17.2094 22 15C22 13.0656 20.625 11.45 18.8 11.0813C18.9281 10.7469 19 10.3812 19 10C19 8.34375 17.6562 7 16 7C15.3844 7 14.8094 7.1875 14.3344 7.50625C13.4688 6.00625 11.8531 5 10 5C7.2375 5 5 7.2375 5 10C5 10.0844 5.00312 10.1688 5.00625 10.2531C3.25625 10.8688 2 12.5375 2 14.5ZM18 15.5C18 15.775 17.775 16 17.5 16H11.5C11.225 16 11 15.775 11 15.5C11 15.225 11.225 15 11.5 15H17.5C17.775 15 18 15.225 18 15.5ZM9.5 15C9.775 15 10 15.225 10 15.5C10 15.775 9.775 16 9.5 16H6.5C6.225 16 6 15.775 6 15.5C6 15.225 6.225 15 6.5 15H9.5ZM6 13.5C6 13.225 6.225 13 6.5 13H12.5C12.775 13 13 13.225 13 13.5C13 13.775 12.775 14 12.5 14H6.5C6.225 14 6 13.775 6 13.5ZM14.5 13H17.5C17.775 13 18 13.225 18 13.5C18 13.775 17.775 14 17.5 14H14.5C14.225 14 14 13.775 14 13.5C14 13.225 14.225 13 14.5 13Z" fill="black"/>
</svg>
