<svg width="24" height="24" viewBox="0 0 24 24" fill="none" xmlns="http://www.w3.org/2000/svg">
<path d="M9 4C9.55312 4 10 4.44687 10 5V6H14V5C14 4.44687 14.4469 4 15 4C15.5531 4 16 4.44687 16 5V6H17.5C18.3281 6 19 6.67188 19 7.5V9H5V7.5C5 6.67188 5.67188 6 6.5 6H8V5C8 4.44687 8.44688 4 9 4ZM5 10H19V18.5C19 19.3281 18.3281 20 17.5 20H6.5C5.67188 20 5 19.3281 5 18.5V10ZM8.5 13.9156C8.5 14.4219 8.70312 14.9094 9.05937 15.2688L11.6438 17.8531C11.8375 18.0469 12.1562 18.0469 12.35 17.8531L14.9344 15.2688C15.2937 14.9094 15.4937 14.4219 15.4937 13.9156C15.4937 12.8594 14.6375 12 13.5781 12C13.0719 12 12.5844 12.2031 12.225 12.5594L11.9938 12.7906L11.7625 12.5594C11.4031 12.2 10.9156 12 10.4094 12C9.35313 12 8.49375 12.8562 8.49375 13.9156H8.5Z" fill="black"/>
</svg>
