<svg width="24" height="24" viewBox="0 0 24 24" fill="none" xmlns="http://www.w3.org/2000/svg">
<path d="M7.00005 14C5.3438 14 4.00005 12.6562 4.00005 11C4.00005 9.67188 4.86255 8.54375 6.05943 8.15C6.02193 7.94063 6.00005 7.72187 6.00005 7.5C6.00005 5.56562 7.56568 4 9.50005 4C10.8469 4 12.0157 4.75937 12.6001 5.875C13.0594 5.34062 13.7407 5 14.5001 5C15.8813 5 17.0001 6.11875 17.0001 7.5C17.0001 7.67188 16.9813 7.8375 16.9501 8C16.9657 8 16.9844 8 17.0001 8C18.6563 8 20 9.34375 20 11C20 12.6562 18.6563 14 17.0001 14H7.00005ZM6.54693 15.0594C6.92818 15.2219 7.10318 15.6625 6.94068 16.0437L5.44068 19.5437C5.27818 19.925 4.83755 20.1 4.4563 19.9375C4.07505 19.775 3.89693 19.3344 4.05943 18.9531L5.55943 15.4531C5.72193 15.0719 6.16255 14.8969 6.5438 15.0594H6.54693ZM15.0469 15.0594C15.4282 15.2219 15.6032 15.6625 15.4407 16.0437L13.9407 19.5437C13.7782 19.925 13.3376 20.1 12.9563 19.9375C12.5751 19.775 12.4001 19.3344 12.5626 18.9531L14.0626 15.4531C14.2251 15.0719 14.6657 14.8969 15.0469 15.0594ZM10.7501 15.75V16.25H11.2501C11.6657 16.25 12.0001 16.5844 12.0001 17C12.0001 17.4156 11.6657 17.75 11.2501 17.75H10.7501V18.25C10.7501 18.6656 10.4157 19 10.0001 19C9.58443 19 9.25005 18.6656 9.25005 18.25V17.75H8.75005C8.33443 17.75 8.00005 17.4156 8.00005 17C8.00005 16.5844 8.33443 16.25 8.75005 16.25H9.25005V15.75C9.25005 15.3344 9.58443 15 10.0001 15C10.4157 15 10.7501 15.3344 10.7501 15.75ZM18.7501 15.75V16.25H19.2501C19.6657 16.25 20 16.5844 20 17C20 17.4156 19.6657 17.75 19.2501 17.75H18.7501V18.25C18.7501 18.6656 18.4157 19 18.0001 19C17.5844 19 17.2501 18.6656 17.2501 18.25V17.75H16.7501C16.3344 17.75 16.0001 17.4156 16.0001 17C16.0001 16.5844 16.3344 16.25 16.7501 16.25H17.2501V15.75C17.2501 15.3344 17.5844 15 18.0001 15C18.4157 15 18.7501 15.3344 18.7501 15.75Z" fill="black"/>
</svg>
