<svg width="24" height="24" viewBox="0 0 24 24" fill="none" xmlns="http://www.w3.org/2000/svg">
<path d="M12 6C12.7879 6 13.5681 6.15519 14.2961 6.45672C15.0241 6.75825 15.6855 7.20021 16.2426 7.75736C16.7998 8.31451 17.2417 8.97595 17.5433 9.7039C17.8448 10.4319 18 11.2121 18 12C18 12.7879 17.8448 13.5681 17.5433 14.2961C17.2417 15.0241 16.7998 15.6855 16.2426 16.2426C15.6855 16.7998 15.0241 17.2417 14.2961 17.5433C13.5681 17.8448 12.7879 18 12 18C11.2121 18 10.4319 17.8448 9.7039 17.5433C8.97595 17.2417 8.31451 16.7998 7.75736 16.2426C7.20021 15.6855 6.75825 15.0241 6.45672 14.2961C6.15519 13.5681 6 12.7879 6 12C6 11.2121 6.15519 10.4319 6.45672 9.7039C6.75825 8.97595 7.20021 8.31451 7.75736 7.75736C8.31451 7.20021 8.97595 6.75825 9.7039 6.45672C10.4319 6.15519 11.2121 6 12 6ZM12 20C14.1217 20 16.1566 19.1571 17.6569 17.6569C19.1571 16.1566 20 14.1217 20 12C20 9.87827 19.1571 7.84344 17.6569 6.34315C16.1566 4.84285 14.1217 4 12 4C9.87827 4 7.84344 4.84285 6.34315 6.34315C4.84285 7.84344 4 9.87827 4 12C4 14.1217 4.84285 16.1566 6.34315 17.6569C7.84344 19.1571 9.87827 20 12 20ZM10.25 12C10.25 11.3531 10.6031 10.7875 11.125 10.4844L10 8.5375C9.725 8.05937 9.10313 7.8875 8.6875 8.25625C7.8875 8.9625 7.31562 9.92188 7.09687 11.0094C6.99062 11.5469 7.44687 12 8 12H10.25ZM11.125 13.5156L10 15.4656C9.725 15.9437 9.8875 16.5656 10.4094 16.7406C10.9094 16.9094 11.4438 17 12 17C12.5562 17 13.0906 16.9094 13.5906 16.7406C14.1125 16.5656 14.275 15.9437 14 15.4656L12.875 13.5156C12.6188 13.6656 12.3187 13.75 12 13.75C11.6813 13.75 11.3812 13.6656 11.125 13.5156ZM13.75 12H16C16.5531 12 17.0094 11.5469 16.9 11.0062C16.6812 9.91875 16.1094 8.95938 15.3094 8.25313C14.8969 7.8875 14.275 8.05625 13.9969 8.53438L12.8719 10.4812C13.3937 10.7844 13.7469 11.35 13.7469 11.9969L13.75 12ZM12 13C12.2652 13 12.5196 12.8946 12.7071 12.7071C12.8946 12.5196 13 12.2652 13 12C13 11.7348 12.8946 11.4804 12.7071 11.2929C12.5196 11.1054 12.2652 11 12 11C11.7348 11 11.4804 11.1054 11.2929 11.2929C11.1054 11.4804 11 11.7348 11 12C11 12.2652 11.1054 12.5196 11.2929 12.7071C11.4804 12.8946 11.7348 13 12 13Z" fill="black"/>
</svg>
