<svg width="24" height="24" viewBox="0 0 24 24" fill="none" xmlns="http://www.w3.org/2000/svg">
<path d="M4 12C4 9.87827 4.84285 7.84344 6.34315 6.34315C7.84344 4.84285 9.87827 4 12 4C14.1217 4 16.1566 4.84285 17.6569 6.34315C19.1571 7.84344 20 9.87827 20 12C20 14.1217 19.1571 16.1566 17.6569 17.6569C16.1566 19.1571 14.1217 20 12 20C9.87827 20 7.84344 19.1571 6.34315 17.6569C4.84285 16.1566 4 14.1217 4 12ZM10.9875 8.0375C10.5938 7.90625 10.1687 8.11875 10.0375 8.5125L8.5375 13.0125C8.4625 13.2406 8.5 13.4937 8.64062 13.6875C8.78125 13.8813 9.00938 14 9.25 14H12.5V15.25C12.5 15.6656 12.8344 16 13.25 16C13.6656 16 14 15.6656 14 15.25V14H14.25C14.6656 14 15 13.6656 15 13.25C15 12.8344 14.6656 12.5 14.25 12.5H14V10.75C14 10.3344 13.6656 10 13.25 10C12.8344 10 12.5 10.3344 12.5 10.75V12.5H10.2906L11.4625 8.9875C11.5938 8.59375 11.3813 8.16875 10.9875 8.0375Z" fill="black"/>
</svg>
