<svg width="24" height="24" viewBox="0 0 24 24" fill="none" xmlns="http://www.w3.org/2000/svg">
<path d="M18.0375 3.99995C16.0313 3.99995 14.3594 5.45308 14.0531 7.36245C15.1594 7.91245 15.9344 9.02808 15.9937 10.3343C16.7187 10.6781 17.3062 11.2625 17.6531 11.9812C17.7781 11.9937 17.9063 12 18.0375 12C19.1281 12 20.1219 11.5687 20.8469 10.8718C21.0062 10.7187 21.0469 10.4812 20.9469 10.2875C20.8469 10.0937 20.6312 9.98433 20.4156 10.0187C20.2625 10.0437 20.1031 10.0593 19.9406 10.0593C18.4094 10.0593 17.1781 8.8312 17.1781 7.32808C17.1781 6.30933 17.7406 5.4187 18.5813 4.94995C18.7719 4.8437 18.8719 4.62183 18.825 4.4062C18.7781 4.19058 18.5969 4.0312 18.3781 4.01245C18.2656 4.00308 18.15 3.99683 18.0375 3.99683V3.99995ZM14.4969 15.9968C15.8781 15.9968 16.9969 14.8781 16.9969 13.4968C16.9969 12.2687 16.1094 11.2437 14.9406 11.0375C14.9781 10.8625 15 10.6843 15 10.5C15 9.1187 13.8813 7.99995 12.5 7.99995C11.9688 7.99995 11.475 8.16558 11.0688 8.44995C10.5406 7.5812 9.5875 6.99995 8.5 6.99995C6.84375 6.99995 5.5 8.3437 5.5 9.99995V10.0406C4.08125 10.2781 3 11.5125 3 12.9968C3 14.6531 4.34375 15.9968 6 15.9968H14.4969ZM5.66875 17.1281C5.325 16.8968 4.85937 16.9906 4.62812 17.3375L3.62813 18.8375C3.39688 19.1812 3.49062 19.6468 3.8375 19.8781C4.18437 20.1093 4.64687 20.0156 4.87812 19.6687L5.87812 18.1687C6.10937 17.825 6.01563 17.3593 5.66875 17.1281ZM8.66875 17.1281C8.325 16.8968 7.85938 16.9906 7.62813 17.3375L6.62812 18.8375C6.39687 19.1812 6.49063 19.6468 6.8375 19.8781C7.18438 20.1093 7.64688 20.0156 7.87813 19.6687L8.87813 18.1687C9.10938 17.825 9.01562 17.3593 8.66875 17.1281ZM11.6687 17.1281C11.325 16.8968 10.8594 16.9906 10.6281 17.3375L9.62813 18.8375C9.39688 19.1812 9.49063 19.6468 9.8375 19.8781C10.1844 20.1093 10.6469 20.0156 10.8781 19.6687L11.8781 18.1687C12.1094 17.825 12.0156 17.3593 11.6687 17.1281ZM14.6687 17.1281C14.325 16.8968 13.8594 16.9906 13.6281 17.3375L12.6281 18.8375C12.3969 19.1812 12.4906 19.6468 12.8375 19.8781C13.1844 20.1093 13.6469 20.0156 13.8781 19.6687L14.8781 18.1687C15.1094 17.825 15.0156 17.3593 14.6687 17.1281Z" fill="black"/>
</svg>
