<svg width="24" height="24" viewBox="0 0 24 24" fill="none" xmlns="http://www.w3.org/2000/svg">
<path d="M15.5001 4C14.947 4 14.5001 4.44687 14.5001 5C14.5001 5.55313 14.947 6 15.5001 6H16.4001L12.9813 8.73438L9.6001 6.2C9.23447 5.925 8.73135 5.93437 8.3751 6.21875L3.3751 10.2188C2.94385 10.5625 2.8751 11.1937 3.21885 11.625C3.5626 12.0563 4.19385 12.125 4.6251 11.7812L9.01885 8.26562L12.4001 10.8C12.7657 11.075 13.2688 11.0656 13.6251 10.7812L18.0001 7.28125V8.5C18.0001 9.05313 18.447 9.5 19.0001 9.5C19.5532 9.5 20.0001 9.05313 20.0001 8.5V5C20.0001 4.44687 19.5532 4 19.0001 4H15.5001ZM9.0001 11C8.44697 11 8.0001 11.4469 8.0001 12V18C8.0001 18.5531 8.44697 19 9.0001 19C9.55322 19 10.0001 18.5531 10.0001 18V12C10.0001 11.4469 9.55322 11 9.0001 11ZM5.0001 14C4.44697 14 4.0001 14.4469 4.0001 15V18C4.0001 18.5531 4.44697 19 5.0001 19C5.55322 19 6.0001 18.5531 6.0001 18V15C6.0001 14.4469 5.55322 14 5.0001 14ZM16.5001 20C17.6936 20 18.8382 19.5259 19.6821 18.682C20.526 17.8381 21.0001 16.6935 21.0001 15.5C21.0001 14.3065 20.526 13.1619 19.6821 12.318C18.8382 11.4741 17.6936 11 16.5001 11C15.3066 11 14.162 11.4741 13.3181 12.318C12.4742 13.1619 12.0001 14.3065 12.0001 15.5C12.0001 16.6935 12.4742 17.8381 13.3181 18.682C14.162 19.5259 15.3066 20 16.5001 20ZM15.7532 14.5938V14.5969C15.7532 14.6094 15.7532 14.6563 15.9032 14.7375C16.0782 14.8313 16.3251 14.9 16.6501 14.9937H16.6563C16.947 15.075 17.3157 15.1812 17.6095 15.3531C17.9282 15.5406 18.2345 15.8563 18.2501 16.3625C18.2657 16.9313 17.947 17.3125 17.572 17.5156C17.3907 17.6125 17.1938 17.675 17.0001 17.7094V18.0469C17.0001 18.3219 16.7751 18.5469 16.5001 18.5469C16.2251 18.5469 16.0001 18.3219 16.0001 18.0469V17.6906C15.7313 17.6375 15.4782 17.5562 15.2595 17.4844C15.2063 17.4656 15.1532 17.45 15.1032 17.4344C14.8407 17.3531 14.6907 17.0719 14.7751 16.8094C14.8595 16.5469 15.1376 16.3969 15.4001 16.4812C15.4626 16.5 15.522 16.5188 15.5813 16.5375C15.9376 16.65 16.2188 16.7406 16.5157 16.75C16.7251 16.7563 16.947 16.7156 17.0938 16.6375C17.1626 16.6 17.2001 16.5625 17.2188 16.5344C17.2345 16.5094 17.2532 16.4688 17.2501 16.3938C17.2501 16.35 17.2438 16.3 17.1032 16.2188C16.9376 16.1219 16.7001 16.05 16.3782 15.9594L16.322 15.9438C16.0438 15.8656 15.7032 15.7687 15.4282 15.6219C15.1188 15.4562 14.7845 15.1625 14.7532 14.6625C14.7157 14.075 15.0657 13.6969 15.4345 13.5C15.6126 13.4031 15.8095 13.3406 15.997 13.3031V13C15.997 12.725 16.222 12.5 16.497 12.5C16.772 12.5 16.997 12.725 16.997 13V13.2937C17.1938 13.3219 17.3813 13.3656 17.5563 13.4094C17.8251 13.475 17.9876 13.7469 17.922 14.0156C17.8563 14.2844 17.5845 14.4469 17.3157 14.3813C17.0251 14.3094 16.747 14.2563 16.4907 14.2531C16.297 14.25 16.0657 14.2938 15.9063 14.3781C15.8313 14.4188 15.7938 14.4563 15.7751 14.4844C15.7626 14.5062 15.747 14.5344 15.7501 14.5969L15.7532 14.5938Z" fill="black"/>
</svg>
