<svg width="24" height="24" viewBox="0 0 24 24" fill="none" xmlns="http://www.w3.org/2000/svg">
<path d="M12.7062 18.7063C12.3156 19.0969 11.6812 19.0969 11.2906 18.7063L5.29062 12.7063C4.89999 12.3156 4.89999 11.6813 5.29062 11.2906C5.68124 10.9 6.31562 10.9 6.70624 11.2906L12 16.5844L17.2937 11.2938C17.6844 10.9031 18.3187 10.9031 18.7094 11.2938C19.1 11.6844 19.1 12.3188 18.7094 12.7094L12.7094 18.7094L12.7062 18.7063ZM18.7062 6.70627L12.7062 12.7063C12.3156 13.0969 11.6812 13.0969 11.2906 12.7063L5.29062 6.70627C4.89999 6.31565 4.89999 5.68127 5.29062 5.29065C5.68124 4.90002 6.31562 4.90002 6.70624 5.29065L12 10.5844L17.2937 5.29377C17.6844 4.90315 18.3187 4.90315 18.7094 5.29377C19.1 5.6844 19.1 6.31877 18.7094 6.7094L18.7062 6.70627Z" fill="black"/>
</svg>
