<svg width="24" height="24" viewBox="0 0 24 24" fill="none" xmlns="http://www.w3.org/2000/svg">
<path d="M6.5 19C4.01562 19 2 16.9844 2 14.5C2 12.5375 3.25625 10.8688 5.00625 10.2531C5.00312 10.1688 5 10.0844 5 10C5 7.2375 7.2375 5 10 5C11.8531 5 13.4688 6.00625 14.3344 7.50625C14.8094 7.1875 15.3844 7 16 7C17.6562 7 19 8.34375 19 10C19 10.3812 18.9281 10.7438 18.8 11.0813C20.625 11.45 22 13.0656 22 15C22 17.2094 20.2094 19 18 19H6.5ZM15.5312 11.5312C15.825 11.2375 15.825 10.7625 15.5312 10.4719C15.2375 10.1813 14.7625 10.1781 14.4719 10.4719L11.0031 13.9406L9.53438 12.4719C9.24063 12.1781 8.76562 12.1781 8.475 12.4719C8.18437 12.7656 8.18125 13.2406 8.475 13.5312L10.475 15.5312C10.7688 15.825 11.2438 15.825 11.5344 15.5312L15.5312 11.5312Z" fill="black"/>
</svg>
