<svg width="24" height="24" viewBox="0 0 24 24" fill="none" xmlns="http://www.w3.org/2000/svg">
<path d="M6.53436 7.76878L11.1375 6.53753C11.5344 6.43128 11.9594 6.57815 12.2031 6.91253L13.3844 8.52503L5.58124 10.6125L5.79999 8.62503C5.84374 8.21565 6.13749 7.87503 6.53436 7.76878ZM3.81249 8.4094L3.49374 11.3188C2.85624 11.7938 2.53749 12.625 2.75624 13.4407L3.79061 17.3063L4.17811 18.7563C4.32186 19.2907 4.86874 19.6063 5.40311 19.4625L6.36874 19.2032C6.90311 19.0594 7.21874 18.5125 7.07499 17.9782L6.68749 16.5282L15.3812 14.2L15.7687 15.65C15.9125 16.1844 16.4594 16.5 16.9937 16.3563L17.9594 16.0969C18.4937 15.9532 18.8094 15.4063 18.6656 14.8719L18.2812 13.4219L17.2437 9.5594C17.025 8.74378 16.3344 8.18128 15.5437 8.09065L13.8156 5.72815C13.0844 4.73128 11.8156 4.2844 10.6187 4.60315L6.01561 5.83753C4.82186 6.1594 3.94686 7.17815 3.81249 8.4094ZM5.65311 12.6657C5.78072 12.629 5.91435 12.6182 6.0462 12.6337C6.17804 12.6493 6.30547 12.6909 6.42105 12.7563C6.53663 12.8216 6.63805 12.9093 6.71938 13.0142C6.80072 13.1191 6.86034 13.2392 6.89478 13.3674C6.92922 13.4956 6.93779 13.6294 6.91998 13.761C6.90217 13.8926 6.85834 14.0193 6.79104 14.1337C6.72375 14.2481 6.63434 14.348 6.52804 14.4276C6.42173 14.5071 6.30065 14.5647 6.17186 14.5969C6.04425 14.6335 5.91063 14.6444 5.77878 14.6288C5.64693 14.6133 5.5195 14.5716 5.40392 14.5063C5.28834 14.441 5.18693 14.3533 5.10559 14.2484C5.02426 14.1434 4.96463 14.0233 4.93019 13.8951C4.89575 13.7669 4.88719 13.6331 4.905 13.5016C4.92281 13.37 4.96664 13.2433 5.03393 13.1289C5.10122 13.0144 5.19063 12.9145 5.29694 12.835C5.40325 12.7555 5.52432 12.6979 5.65311 12.6657ZM13.6406 11.5625C13.604 11.4349 13.5931 11.3013 13.6087 11.1694C13.6242 11.0376 13.6659 10.9102 13.7312 10.7946C13.7965 10.679 13.8842 10.5776 13.9892 10.4963C14.0941 10.4149 14.2142 10.3553 14.3424 10.3209C14.4706 10.2864 14.6044 10.2778 14.736 10.2957C14.8675 10.3135 14.9942 10.3573 15.1087 10.4246C15.2231 10.4919 15.323 10.5813 15.4025 10.6876C15.4821 10.7939 15.5396 10.915 15.5719 11.0438C15.6085 11.1714 15.6193 11.305 15.6038 11.4369C15.5882 11.5687 15.5466 11.6961 15.4813 11.8117C15.4159 11.9273 15.3282 12.0287 15.2233 12.11C15.1184 12.1914 14.9983 12.251 14.8701 12.2854C14.7419 12.3199 14.6081 12.3285 14.4765 12.3106C14.345 12.2928 14.2183 12.249 14.1038 12.1817C13.9894 12.1144 13.8895 12.025 13.8099 11.9187C13.7304 11.8124 13.6729 11.6913 13.6406 11.5625ZM20.275 20C20.8844 20 21.3594 19.4469 21.0812 18.9063C20.5 17.775 19.3219 17 17.9656 17C16.6094 17 15.4281 17.775 14.85 18.9063C14.5719 19.4469 15.0469 20 15.6562 20H20.275Z" fill="black"/>
</svg>
