<svg width="24" height="24" viewBox="0 0 24 24" fill="none" xmlns="http://www.w3.org/2000/svg">
<path d="M13.7344 11C14.6469 10.425 15.25 9.40938 15.25 8.25C15.25 6.45625 13.7937 5 12 5C10.2062 5 8.75 6.45625 8.75 8.25C8.75 9.40938 9.35625 10.425 10.2656 11H10C9.44687 11 9 11.4469 9 12C9 12.5156 9.39062 12.9375 9.89062 12.9937L9.5 16.5H14.5L14.1094 12.9937C14.6094 12.9375 15 12.5156 15 12C15 11.4469 14.5531 11 14 11H13.7344ZM7.70625 18.7937C7.575 18.925 7.5 19.1062 7.5 19.2937C7.5 19.6844 7.81562 20 8.20625 20H15.7937C16.1844 20 16.5 19.6844 16.5 19.2937C16.5 19.1062 16.425 18.925 16.2937 18.7937L15 17.5H9L7.70625 18.7937Z" fill="black"/>
</svg>
