<svg width="24" height="24" viewBox="0 0 24 24" fill="none" xmlns="http://www.w3.org/2000/svg">
<path d="M14.2937 4.29375C14.6844 3.90312 15.3188 3.90312 15.7094 4.29375L16.5 5.08438L17.2937 4.29375C17.6844 3.90312 18.3188 3.90312 18.7094 4.29375C19.1 4.68437 19.1 5.31875 18.7094 5.70938L17.9156 6.5L18.7094 7.29375C19.1 7.68438 19.1 8.31875 18.7094 8.70937C18.3188 9.1 17.6844 9.1 17.2937 8.70937L16.5 7.91563L15.7063 8.70937C15.3156 9.1 14.6812 9.1 14.2906 8.70937C13.9 8.31875 13.9 7.68438 14.2906 7.29375L15.0844 6.5L14.2937 5.70625C13.9031 5.31562 13.9031 4.68125 14.2937 4.29063V4.29375ZM8.25 6.5C8.25 6.40151 8.2306 6.30398 8.19291 6.21299C8.15522 6.12199 8.09997 6.03931 8.03033 5.96967C7.96069 5.90003 7.87801 5.84478 7.78701 5.80709C7.69602 5.7694 7.59849 5.75 7.5 5.75C7.40151 5.75 7.30398 5.7694 7.21299 5.80709C7.12199 5.84478 7.03931 5.90003 6.96967 5.96967C6.90003 6.03931 6.84478 6.12199 6.80709 6.21299C6.7694 6.30398 6.75 6.40151 6.75 6.5C6.75 6.59849 6.7694 6.69602 6.80709 6.78701C6.84478 6.87801 6.90003 6.96069 6.96967 7.03033C7.03931 7.09997 7.12199 7.15522 7.21299 7.19291C7.30398 7.2306 7.40151 7.25 7.5 7.25C7.59849 7.25 7.69602 7.2306 7.78701 7.19291C7.87801 7.15522 7.96069 7.09997 8.03033 7.03033C8.09997 6.96069 8.15522 6.87801 8.19291 6.78701C8.2306 6.69602 8.25 6.59849 8.25 6.5ZM10 6.5C10 7.525 9.38437 8.40625 8.5 8.79063V15.2094C9.38437 15.5938 10 16.475 10 17.5C10 18.8813 8.88125 20 7.5 20C6.11875 20 5 18.8813 5 17.5C5 16.475 5.61563 15.5938 6.5 15.2094V8.79063C5.61563 8.40625 5 7.525 5 6.5C5 5.11875 6.11875 4 7.5 4C8.88125 4 10 5.11875 10 6.5ZM7.5 18.25C7.69891 18.25 7.88968 18.171 8.03033 18.0303C8.17098 17.8897 8.25 17.6989 8.25 17.5C8.25 17.3011 8.17098 17.1103 8.03033 16.9697C7.88968 16.829 7.69891 16.75 7.5 16.75C7.30109 16.75 7.11032 16.829 6.96967 16.9697C6.82902 17.1103 6.75 17.3011 6.75 17.5C6.75 17.6989 6.82902 17.8897 6.96967 18.0303C7.11032 18.171 7.30109 18.25 7.5 18.25ZM16.5 18.25C16.6989 18.25 16.8897 18.171 17.0303 18.0303C17.171 17.8897 17.25 17.6989 17.25 17.5C17.25 17.3011 17.171 17.1103 17.0303 16.9697C16.8897 16.829 16.6989 16.75 16.5 16.75C16.3011 16.75 16.1103 16.829 15.9697 16.9697C15.829 17.1103 15.75 17.3011 15.75 17.5C15.75 17.6989 15.829 17.8897 15.9697 18.0303C16.1103 18.171 16.3011 18.25 16.5 18.25ZM16.5 20C15.1187 20 14 18.8813 14 17.5C14 16.475 14.6156 15.5938 15.5 15.2094V11C15.5 10.4469 15.9469 10 16.5 10C17.0531 10 17.5 10.4469 17.5 11V15.2094C18.3844 15.5938 19 16.475 19 17.5C19 18.8813 17.8813 20 16.5 20Z" fill="black"/>
</svg>
