<svg width="24" height="24" viewBox="0 0 24 24" fill="none" xmlns="http://www.w3.org/2000/svg">
<path d="M5 5C5.55313 5 6 5.44687 6 6V16.5C6 16.775 6.225 17 6.5 17H19C19.5531 17 20 17.4469 20 18C20 18.5531 19.5531 19 19 19H6.5C5.11875 19 4 17.8813 4 16.5V6C4 5.44687 4.44687 5 5 5ZM8 8C8 7.44688 8.44688 7 9 7H12C12.5531 7 13 7.44688 13 8C13 8.55312 12.5531 9 12 9H9C8.44688 9 8 8.55312 8 8ZM11 10H15C15.5531 10 16 10.4469 16 11C16 11.5531 15.5531 12 15 12H11C10.4469 12 10 11.5531 10 11C10 10.4469 10.4469 10 11 10ZM16 13H18C18.5531 13 19 13.4469 19 14C19 14.5531 18.5531 15 18 15H16C15.4469 15 15 14.5531 15 14C15 13.4469 15.4469 13 16 13Z" fill="black"/>
</svg>
