<svg width="24" height="24" viewBox="0 0 24 24" fill="none" xmlns="http://www.w3.org/2000/svg">
<path d="M13 4C13.2652 4 13.5195 4.10536 13.7071 4.29289C13.8946 4.48043 14 4.73478 14 5C14 5.26522 13.8946 5.51957 13.7071 5.70711C13.5195 5.89464 13.2652 6 13 6C12.7348 6 12.4804 5.89464 12.2929 5.70711C12.1053 5.51957 12 5.26522 12 5C12 4.73478 12.1053 4.48043 12.2929 4.29289C12.4804 4.10536 12.7348 4 13 4ZM8.99998 5.75C8.99998 5.48478 9.10533 5.23043 9.29287 5.04289C9.48041 4.85536 9.73476 4.75 9.99998 4.75C10.2652 4.75 10.5195 4.85536 10.7071 5.04289C10.8946 5.23043 11 5.48478 11 5.75C11 6.01522 10.8946 6.26957 10.7071 6.45711C10.5195 6.64464 10.2652 6.75 9.99998 6.75C9.73476 6.75 9.48041 6.64464 9.29287 6.45711C9.10533 6.26957 8.99998 6.01522 8.99998 5.75ZM4.99998 13C4.99998 11.8969 5.89685 11 6.99998 11H11.25V8.92188L4.9031 10.2344C4.49685 10.3187 4.09998 10.0562 4.0156 9.65312C3.93123 9.25 4.19373 8.85 4.59685 8.76562L11.8469 7.26562L19.0969 5.76562C19.5031 5.68125 19.9 5.94375 19.9844 6.34687C20.0687 6.75 19.8062 7.15 19.4031 7.23438L12.75 8.60938V11H17C18.1031 11 19 11.8969 19 13V18C19 19.1031 18.1031 20 17 20H6.99998C5.89685 20 4.99998 19.1031 4.99998 18V13ZM6.99998 13C6.72498 13 6.49998 13.225 6.49998 13.5V15.5C6.49998 15.775 6.72498 16 6.99998 16H8.99998C9.27498 16 9.49998 15.775 9.49998 15.5V13.5C9.49998 13.225 9.27498 13 8.99998 13H6.99998ZM10.5 13.5V15.5C10.5 15.775 10.725 16 11 16H13C13.275 16 13.5 15.775 13.5 15.5V13.5C13.5 13.225 13.275 13 13 13H11C10.725 13 10.5 13.225 10.5 13.5ZM15 13C14.725 13 14.5 13.225 14.5 13.5V15.5C14.5 15.775 14.725 16 15 16H17C17.275 16 17.5 15.775 17.5 15.5V13.5C17.5 13.225 17.275 13 17 13H15Z" fill="black"/>
</svg>
