<svg width="24" height="24" viewBox="0 0 24 24" fill="none" xmlns="http://www.w3.org/2000/svg">
<path d="M15.7688 12C16.075 12.8 16.3813 13.5313 16.6656 14.1C16.7688 14.3094 16.8594 14.4875 16.9563 14.6531C16.9719 14.6781 16.9875 14.7062 17 14.7281C17.0156 14.7031 17.0313 14.6781 17.0438 14.6531C17.1406 14.4875 17.2313 14.3094 17.3344 14.1C17.6157 13.5313 17.925 12.8031 18.2313 12H15.7688ZM17 4C18.3781 4 19.825 4.13125 21.1438 4.56563C21.6563 4.73438 22 5.2125 22 5.75C22 6.29375 21.8344 7.11875 21.6157 7.98125C21.4782 7.95 21.325 7.91563 21.1625 7.88438C20.1969 7.69063 18.7875 7.5 17.0031 7.5C15.2188 7.5 13.8094 7.69063 12.8438 7.88438C12.6781 7.91875 12.5281 7.95 12.3906 7.98125C12.1719 7.11875 12.0063 6.29375 12.0063 5.75C12.0063 5.2125 12.3625 4.73125 12.875 4.55937C14.1875 4.1375 15.625 4 17 4ZM13.5719 11.825C13.2281 10.8625 12.9063 9.85938 12.6469 8.94688C12.7657 8.91875 12.8969 8.89063 13.0344 8.8625C13.9438 8.68125 15.2844 8.49687 17 8.49687C18.7156 8.49687 20.0563 8.68125 20.9657 8.8625C21.1063 8.89063 21.2344 8.91875 21.3531 8.94688C21.0938 9.85938 20.7719 10.8625 20.4282 11.825C20.0157 12.9875 19.5563 14.125 19.1281 14.9906C18.7094 15.8344 18.1 17 17 17C15.9 17 15.2938 15.8344 14.8719 14.9906C14.4406 14.125 13.9844 12.9875 13.5719 11.825ZM4.59377 10.5969C5.54377 9.64688 6.6344 8.74063 7.84065 8.12813C8.3094 7.89375 8.87502 7.98437 9.2469 8.35625C9.6219 8.73125 10.0781 9.41563 10.5188 10.1594C10.4 10.2313 10.275 10.3156 10.1375 10.4062C9.33752 10.9406 8.2344 11.7781 7.00315 13.0094C5.7719 14.2406 4.93752 15.3438 4.40315 16.1438C4.31252 16.2781 4.23127 16.4062 4.15627 16.525C3.41252 16.0812 2.72815 15.625 2.35315 15.25C1.98127 14.8781 1.8969 14.3 2.13127 13.8313C2.7469 12.6313 3.64377 11.5469 4.59377 10.5969ZM7.62502 18.3531C6.72502 17.925 5.81252 17.4562 5.00315 17.0094C5.06565 16.9094 5.13752 16.8 5.21252 16.6844C5.71252 15.9344 6.51252 14.8812 7.69377 13.7C8.87502 12.5187 9.92815 11.7188 10.6782 11.2188C10.7938 11.1406 10.9031 11.0719 11.0031 11.0094C11.4531 11.8188 11.9219 12.7313 12.35 13.6313C12.8657 14.7188 13.3344 15.8188 13.6344 16.7094C13.925 17.5813 14.3125 18.8031 13.5532 19.5594C12.7938 20.3156 11.5719 19.9313 10.7031 19.6406C9.81252 19.3406 8.71252 18.8719 7.62502 18.3562V18.3531ZM9.2594 16.9594C10.0219 17.3031 10.7375 17.5906 11.325 17.7875C11.5406 17.8594 11.725 17.9187 11.9063 17.9688C11.9344 17.975 11.9625 17.9844 11.9907 17.9906C11.9844 17.9625 11.9781 17.9375 11.9688 17.9062C11.9219 17.725 11.8625 17.5406 11.7875 17.325C11.5907 16.7375 11.3 16.0219 10.9594 15.2594L9.2594 16.9594Z" fill="black"/>
</svg>
