<svg width="24" height="24" viewBox="0 0 24 24" fill="none" xmlns="http://www.w3.org/2000/svg">
<path d="M12.7062 5.29376C12.3155 4.90314 11.6812 4.90314 11.2905 5.29376L5.29053 11.2938C4.8999 11.6844 4.8999 12.3188 5.29053 12.7094C5.68115 13.1 6.31553 13.1 6.70615 12.7094L11.9999 7.41564L17.2937 12.7063C17.6843 13.0969 18.3187 13.0969 18.7093 12.7063C19.0999 12.3156 19.0999 11.6813 18.7093 11.2906L12.7093 5.29064L12.7062 5.29376ZM18.7062 17.2938L12.7062 11.2938C12.3155 10.9031 11.6812 10.9031 11.2905 11.2938L5.29053 17.2938C4.8999 17.6844 4.8999 18.3188 5.29053 18.7094C5.68115 19.1 6.31553 19.1 6.70615 18.7094L11.9999 13.4156L17.2937 18.7063C17.6843 19.0969 18.3187 19.0969 18.7093 18.7063C19.0999 18.3156 19.0999 17.6813 18.7093 17.2906L18.7062 17.2938Z" fill="black"/>
</svg>
