<svg width="24" height="24" viewBox="0 0 24 24" fill="none" xmlns="http://www.w3.org/2000/svg">
<path d="M12.0001 4C12.4642 4 12.9093 4.18437 13.2375 4.51256C13.5657 4.84075 13.7501 5.28587 13.7501 5.75C13.7501 6.21413 13.5657 6.65925 13.2375 6.98744C12.9093 7.31563 12.4642 7.5 12.0001 7.5C11.5359 7.5 11.0908 7.31563 10.7626 6.98744C10.4344 6.65925 10.2501 6.21413 10.2501 5.75C10.2501 5.28587 10.4344 4.84075 10.7626 4.51256C11.0908 4.18437 11.5359 4 12.0001 4ZM8.19068 8.49375C8.2938 8.0875 8.65943 7.75 9.13443 7.75C9.5188 7.75 9.84068 7.975 10.0001 8.28125C10.3751 9.00625 11.1313 9.5 12.0001 9.5C12.8688 9.5 13.6251 9.00625 14.0001 8.28125C14.1594 7.975 14.4813 7.75 14.8657 7.75C15.3438 7.75 15.7094 8.0875 15.8094 8.49375C16.0282 9.3625 16.8157 10.0031 17.7501 10.0031C18.0876 10.0031 18.4063 9.91875 18.6813 9.77187C18.9438 9.63437 19.2719 9.63125 19.5438 9.8C19.9501 10.05 20.0782 10.5813 19.8313 10.9875L16.4907 16.5H16.0001H14.7376H9.26255H8.00005H7.50943L4.1688 10.9875C3.92193 10.5813 4.05005 10.05 4.4563 9.8C4.72818 9.63438 5.0563 9.63437 5.3188 9.77187C5.59693 9.91875 5.91255 10.0031 6.25005 10.0031C7.18443 10.0031 7.97193 9.3625 8.19068 8.49375ZM7.50005 17.5H16.5001L17.7938 18.7937C17.9251 18.925 18.0001 19.1062 18.0001 19.2937C18.0001 19.6844 17.6844 20 17.2938 20H6.7063C6.31568 20 6.00005 19.6844 6.00005 19.2937C6.00005 19.1062 6.07505 18.925 6.2063 18.7937L7.50005 17.5Z" fill="black"/>
</svg>
