<svg width="24" height="24" viewBox="0 0 24 24" fill="none" xmlns="http://www.w3.org/2000/svg">
<path d="M11.9999 18C16.4187 18 19.9999 15.0906 19.9999 11.5C19.9999 7.90937 16.4187 5 11.9999 5C7.58116 5 3.99991 7.90937 3.99991 11.5C3.99991 12.9094 4.55304 14.2125 5.49054 15.2781C5.43116 16.0437 5.13429 16.725 4.82179 17.2437C4.64991 17.5312 4.47491 17.7625 4.34679 17.9187C4.28116 17.9969 4.23116 18.0563 4.19366 18.0969C4.17491 18.1156 4.16241 18.1312 4.15304 18.1406L4.14366 18.15C3.99991 18.2937 3.95929 18.5063 4.03741 18.6938C4.11554 18.8813 4.29679 19.0031 4.49991 19.0031C5.39679 19.0031 6.29991 18.725 7.04991 18.4C7.76554 18.0875 8.37491 17.7156 8.74679 17.4438C9.74054 17.8031 10.8405 18.0031 11.9999 18.0031V18ZM10.7812 10.0312L9.31241 11.5L10.7812 12.9688C11.0749 13.2625 11.0749 13.7375 10.7812 14.0281C10.4874 14.3187 10.0124 14.3219 9.72179 14.0281L7.72179 12.0281C7.42804 11.7344 7.42804 11.2594 7.72179 10.9688L9.72179 8.96875C10.0155 8.675 10.4905 8.675 10.7812 8.96875C11.0718 9.2625 11.0749 9.7375 10.7812 10.0281V10.0312ZM14.2812 8.96875L16.2812 10.9688C16.5749 11.2625 16.5749 11.7375 16.2812 12.0281L14.2812 14.0281C13.9874 14.3219 13.5124 14.3219 13.2218 14.0281C12.9312 13.7344 12.928 13.2594 13.2218 12.9688L14.6905 11.5L13.2218 10.0312C12.928 9.7375 12.928 9.2625 13.2218 8.97188C13.5155 8.68125 13.9905 8.67813 14.2812 8.97188V8.96875Z" fill="black"/>
</svg>
