<svg width="24" height="24" viewBox="0 0 24 24" fill="none" xmlns="http://www.w3.org/2000/svg">
<path d="M11 6V8C11 8.55313 11.4469 9 12 9H14C14.5531 9 15 8.55313 15 8V6C15 5.44687 14.5531 5 14 5H12C11.4469 5 11 5.44687 11 6ZM7.58437 10.4688C7.10625 10.7438 6.94375 11.3562 7.21875 11.8344L8.21875 13.5656C8.49375 14.0438 9.10625 14.2062 9.58437 13.9312L11.3156 12.9312C11.7938 12.6562 11.9563 12.0438 11.6813 11.5656L10.6813 9.83437C10.4063 9.35625 9.79375 9.19375 9.31563 9.46875L7.58437 10.4688ZM14 10C13.4469 10 13 10.4469 13 11V13C13 13.5531 13.4469 14 14 14H16C16.5531 14 17 13.5531 17 13V11C17 10.4469 16.5531 10 16 10H14ZM16 15C15.4469 15 15 15.4469 15 16V18C15 18.5531 15.4469 19 16 19H18C18.5531 19 19 18.5531 19 18V16C19 15.4469 18.5531 15 18 15H16ZM10 16V18C10 18.5531 10.4469 19 11 19H13C13.5531 19 14 18.5531 14 18V16C14 15.4469 13.5531 15 13 15H11C10.4469 15 10 15.4469 10 16ZM6 15C5.44687 15 5 15.4469 5 16V18C5 18.5531 5.44687 19 6 19H8C8.55313 19 9 18.5531 9 18V16C9 15.4469 8.55313 15 8 15H6Z" fill="black"/>
</svg>
