<svg width="24" height="24" viewBox="0 0 24 24" fill="none" xmlns="http://www.w3.org/2000/svg">
<path d="M12 4C10.6937 4 9.58125 4.83438 9.17188 6H8C6.89688 6 6 6.89687 6 8V18C6 19.1031 6.89688 20 8 20H16C17.1031 20 18 19.1031 18 18V8C18 6.89687 17.1031 6 16 6H14.8281C14.4187 4.83438 13.3063 4 12 4ZM12 6C12.2652 6 12.5196 6.10536 12.7071 6.29289C12.8946 6.48043 13 6.73478 13 7C13 7.26522 12.8946 7.51957 12.7071 7.70711C12.5196 7.89464 12.2652 8 12 8C11.7348 8 11.4804 7.89464 11.2929 7.70711C11.1054 7.51957 11 7.26522 11 7C11 6.73478 11.1054 6.48043 11.2929 6.29289C11.4804 6.10536 11.7348 6 12 6ZM11.8531 10.1469C12.0469 10.3406 12.0469 10.6594 11.8531 10.8531L9.85313 12.8531C9.65938 13.0469 9.34062 13.0469 9.14687 12.8531L8.14687 11.8531C7.95312 11.6594 7.95312 11.3406 8.14687 11.1469C8.34062 10.9531 8.65938 10.9531 8.85313 11.1469L9.5 11.7937L11.1469 10.1469C11.3406 9.95312 11.6594 9.95312 11.8531 10.1469ZM12 12.5C12 12.225 12.225 12 12.5 12H15.5C15.775 12 16 12.225 16 12.5C16 12.775 15.775 13 15.5 13H12.5C12.225 13 12 12.775 12 12.5ZM11.5 15H15.5C15.775 15 16 15.225 16 15.5C16 15.775 15.775 16 15.5 16H11.5C11.225 16 11 15.775 11 15.5C11 15.225 11.225 15 11.5 15ZM8.25 15.5C8.25 15.3011 8.32902 15.1103 8.46967 14.9697C8.61032 14.829 8.80109 14.75 9 14.75C9.19891 14.75 9.38968 14.829 9.53033 14.9697C9.67098 15.1103 9.75 15.3011 9.75 15.5C9.75 15.6989 9.67098 15.8897 9.53033 16.0303C9.38968 16.171 9.19891 16.25 9 16.25C8.80109 16.25 8.61032 16.171 8.46967 16.0303C8.32902 15.8897 8.25 15.6989 8.25 15.5Z" fill="black"/>
</svg>
