<svg width="24" height="24" viewBox="0 0 24 24" fill="none" xmlns="http://www.w3.org/2000/svg">
<path d="M12.75 6.8C13.1969 6.54062 13.5 6.05625 13.5 5.5C13.5 4.67188 12.8281 4 12 4C11.1719 4 10.5 4.67188 10.5 5.5C10.5 6.05625 10.8031 6.54062 11.25 6.8V7.5L9.35938 6.24062C9.125 6.08437 8.84688 6 8.56563 6C8.20312 6 7.85 6.1375 7.5875 6.3875L4.275 9.49062C4.1 9.65625 4 9.8875 4 10.1281C4 10.6094 4.39062 11 4.87187 11H8.33437C9.38125 11 10.4031 10.6719 11.25 10.0625V14.3281L10.6062 13.9438C10.2312 13.7188 10 13.3125 10 12.8719V12.7531C10 12.3375 9.66563 12.0031 9.25 12.0031C8.83437 12.0031 8.5 12.3375 8.5 12.7531V12.8719C8.5 13.8375 9.00625 14.7344 9.83437 15.2312L10.5406 15.6562L10.3344 15.7812C9.50625 16.2781 9 17.1719 9 18.1406V18.2594C9 18.675 9.33437 19.0094 9.75 19.0094C10.1656 19.0094 10.5 18.675 10.5 18.2594V18.1406C10.5 17.7 10.7312 17.2938 11.1062 17.0688L11.25 16.9844V18.2594V19.2594C11.25 19.675 11.5844 20.0094 12 20.0094C12.4156 20.0094 12.75 19.675 12.75 19.2594V18.2594V16.9844L12.8938 17.0688C13.2688 17.2938 13.5 17.7 13.5 18.1406V18.2594C13.5 18.675 13.8344 19.0094 14.25 19.0094C14.6656 19.0094 15 18.675 15 18.2594V18.1406C15 17.175 14.4937 16.2781 13.6656 15.7812L13.4594 15.6562L14.1656 15.2312C14.9937 14.7344 15.5 13.8406 15.5 12.8719V12.7531C15.5 12.3375 15.1656 12.0031 14.75 12.0031C14.3344 12.0031 14 12.3375 14 12.7531V12.8719C14 13.3125 13.7688 13.7188 13.3938 13.9438L12.75 14.325V10.0625C13.6 10.6719 14.6187 11 15.6656 11H19.1281C19.6094 11 20 10.6094 20 10.1281C20 9.8875 19.9 9.65625 19.725 9.49062L16.4125 6.3875C16.1469 6.1375 15.7969 6 15.4344 6C15.1531 6 14.875 6.08437 14.6406 6.24062L12.75 7.5V6.8Z" fill="black"/>
</svg>
