<svg width="24" height="24" viewBox="0 0 24 24" fill="none" xmlns="http://www.w3.org/2000/svg">
<path d="M6 6C6 5.44687 5.55313 5 5 5C4.44687 5 4 5.44687 4 6V16.5C4 17.8813 5.11875 19 6.5 19H19C19.5531 19 20 18.5531 20 18C20 17.4469 19.5531 17 19 17H6.5C6.225 17 6 16.775 6 16.5V6ZM14 5.5C14 5.225 13.775 5 13.5 5C13.225 5 13 5.225 13 5.5V7C12.4469 7 12 7.44687 12 8V11C12 11.5531 12.4469 12 13 12V13.5C13 13.775 13.225 14 13.5 14C13.775 14 14 13.775 14 13.5V12C14.5531 12 15 11.5531 15 11V8C15 7.44687 14.5531 7 14 7V5.5ZM16 11V13C16 13.5531 16.4469 14 17 14V15.5C17 15.775 17.225 16 17.5 16C17.775 16 18 15.775 18 15.5V14C18.5531 14 19 13.5531 19 13V11C19 10.4469 18.5531 10 18 10V8.5C18 8.225 17.775 8 17.5 8C17.225 8 17 8.225 17 8.5V10C16.4469 10 16 10.4469 16 11ZM9 8C8.44687 8 8 8.44687 8 9V13C8 13.5531 8.44687 14 9 14V15.5C9 15.775 9.225 16 9.5 16C9.775 16 10 15.775 10 15.5V14C10.5531 14 11 13.5531 11 13V9C11 8.44687 10.5531 8 10 8V6.5C10 6.225 9.775 6 9.5 6C9.225 6 9 6.225 9 6.5V8Z" fill="black"/>
</svg>
