<svg width="24" height="24" viewBox="0 0 24 24" fill="none" xmlns="http://www.w3.org/2000/svg">
<path d="M10.9594 5.00319C11.1156 5.53131 10.8156 6.09069 10.2875 6.24694C7.80625 6.98756 6 9.28444 6 12.0001C6 15.3126 8.6875 18.0001 12 18.0001C15.3125 18.0001 18 15.3126 18 12.0001C18 9.28444 16.1938 6.98756 13.7156 6.24694C13.1875 6.09069 12.8844 5.53131 13.0437 5.00319C13.2031 4.47506 13.7594 4.17194 14.2875 4.33131C17.5906 5.31569 20 8.37506 20 12.0001C20 16.4188 16.4187 20.0001 12 20.0001C7.58125 20.0001 4 16.4188 4 12.0001C4 8.37506 6.40937 5.31569 9.71562 4.33131C10.2437 4.17506 10.8031 4.47506 10.9594 5.00319Z" fill="black"/>
</svg>
