<svg width="24" height="24" viewBox="0 0 24 24" fill="none" xmlns="http://www.w3.org/2000/svg">
<path d="M7 14C5.34375 14 4 12.6562 4 11C4 9.67188 4.8625 8.54375 6.05937 8.15C6.01875 7.94063 6 7.72187 6 7.5C6 5.56562 7.56563 4 9.5 4C10.8469 4 12.0156 4.75937 12.6 5.875C13.0594 5.34063 13.7406 5 14.5 5C15.8813 5 17 6.11875 17 7.5C17 7.67188 16.9812 7.8375 16.95 8C16.9656 8 16.9844 8 17 8C18.6562 8 20 9.34375 20 11C20 12.6562 18.6562 14 17 14H7ZM2 16.25C2 15.8344 2.33437 15.5 2.75 15.5H19.25C19.6656 15.5 20 15.8344 20 16.25C20 16.6656 19.6656 17 19.25 17H2.75C2.33437 17 2 16.6656 2 16.25ZM4 19.25C4 18.8344 4.33437 18.5 4.75 18.5H8.25C8.66563 18.5 9 18.8344 9 19.25C9 19.6656 8.66563 20 8.25 20H4.75C4.33437 20 4 19.6656 4 19.25ZM10.5 19.25C10.5 18.8344 10.8344 18.5 11.25 18.5H21.25C21.6656 18.5 22 18.8344 22 19.25C22 19.6656 21.6656 20 21.25 20H11.25C10.8344 20 10.5 19.6656 10.5 19.25Z" fill="black"/>
</svg>
