<svg width="24" height="24" viewBox="0 0 24 24" fill="none" xmlns="http://www.w3.org/2000/svg">
<path d="M10 5.75C10 5.33437 9.66563 5 9.25 5H5.75C5.33437 5 5 5.33437 5 5.75C5 6.16563 5.33437 6.5 5.75 6.5H6.75V8H4C2.89688 8 2 8.89688 2 10V17C2 18.1031 2.89688 19 4 19H20C21.1031 19 22 18.1031 22 17V10C22 8.89688 21.1031 8 20 8H19V7.5C19 7.225 18.775 7 18.5 7H14.5C14.225 7 14 7.225 14 7.5V8H8.25V6.5H9.25C9.66563 6.5 10 6.16563 10 5.75ZM20 13.5C20 13.9596 19.9095 14.4148 19.7336 14.8394C19.5577 15.264 19.2999 15.6499 18.9749 15.9749C18.6499 16.2999 18.264 16.5577 17.8394 16.7336C17.4148 16.9095 16.9596 17 16.5 17C16.0404 17 15.5852 16.9095 15.1606 16.7336C14.736 16.5577 14.3501 16.2999 14.0251 15.9749C13.7001 15.6499 13.4423 15.264 13.2664 14.8394C13.0905 14.4148 13 13.9596 13 13.5C13 13.0404 13.0905 12.5852 13.2664 12.1606C13.4423 11.736 13.7001 11.3501 14.0251 11.0251C14.3501 10.7001 14.736 10.4423 15.1606 10.2664C15.5852 10.0905 16.0404 10 16.5 10C16.9596 10 17.4148 10.0905 17.8394 10.2664C18.264 10.4423 18.6499 10.7001 18.9749 11.0251C19.2999 11.3501 19.5577 11.736 19.7336 12.1606C19.9095 12.5852 20 13.0404 20 13.5ZM18.3531 11.6469C18.1594 11.4531 17.8406 11.4531 17.6469 11.6469L16.1469 13.1469C15.9531 13.3406 15.9531 13.6594 16.1469 13.8531C16.3406 14.0469 16.6594 14.0469 16.8531 13.8531L18.3531 12.3531C18.5469 12.1594 18.5469 11.8406 18.3531 11.6469ZM7.5 10C7.95963 10 8.41475 10.0905 8.83939 10.2664C9.26403 10.4423 9.64987 10.7001 9.97487 11.0251C10.2999 11.3501 10.5577 11.736 10.7336 12.1606C10.9095 12.5852 11 13.0404 11 13.5C11 13.9596 10.9095 14.4148 10.7336 14.8394C10.5577 15.264 10.2999 15.6499 9.97487 15.9749C9.64987 16.2999 9.26403 16.5577 8.83939 16.7336C8.41475 16.9095 7.95963 17 7.5 17C7.04037 17 6.58525 16.9095 6.16061 16.7336C5.73597 16.5577 5.35013 16.2999 5.02513 15.9749C4.70012 15.6499 4.44231 15.264 4.26642 14.8394C4.09053 14.4148 4 13.9596 4 13.5C4 13.0404 4.09053 12.5852 4.26642 12.1606C4.44231 11.736 4.70012 11.3501 5.02513 11.0251C5.35013 10.7001 5.73597 10.4423 6.16061 10.2664C6.58525 10.0905 7.04037 10 7.5 10ZM7 11.5V13.5C7 13.775 7.225 14 7.5 14C7.775 14 8 13.775 8 13.5V11.5C8 11.225 7.775 11 7.5 11C7.225 11 7 11.225 7 11.5Z" fill="black"/>
</svg>
