<svg width="24" height="24" viewBox="0 0 24 24" fill="none" xmlns="http://www.w3.org/2000/svg">
<path d="M5.17188 18.8281C6.66563 20.3218 9.04688 20.3875 10.6188 19.025C11.0125 19.3468 11.5906 19.325 11.9594 18.9562C12.3219 18.5937 12.3469 18.0187 12.0344 17.625L17.625 12.0312C18.0188 12.3468 18.5938 12.3218 18.9563 11.9562C19.3219 11.5906 19.3469 11.0093 19.025 10.6156C20.3875 9.0437 20.3219 6.66245 18.8281 5.1687C17.2656 3.6062 14.7344 3.6062 13.1719 5.1687L9.375 8.9687C8.98125 8.65308 8.40625 8.67808 8.04375 9.0437C7.68125 9.40933 7.65625 9.9812 7.96875 10.375L5.17188 13.1718C3.60938 14.7343 3.60938 17.2656 5.17188 18.8281ZM16.5 6.74995C16.5985 6.74995 16.696 6.76935 16.787 6.80704C16.878 6.84473 16.9607 6.89998 17.0303 6.96962C17.1 7.03926 17.1552 7.12194 17.1929 7.21294C17.2306 7.30393 17.25 7.40146 17.25 7.49995C17.25 7.59844 17.2306 7.69597 17.1929 7.78696C17.1552 7.87796 17.1 7.96064 17.0303 8.03028C16.9607 8.09993 16.878 8.15517 16.787 8.19286C16.696 8.23055 16.5985 8.24995 16.5 8.24995C16.4015 8.24995 16.304 8.23055 16.213 8.19286C16.122 8.15517 16.0393 8.09993 15.9697 8.03028C15.9 7.96064 15.8448 7.87796 15.8071 7.78696C15.7694 7.69597 15.75 7.59844 15.75 7.49995C15.75 7.40146 15.7694 7.30393 15.8071 7.21294C15.8448 7.12194 15.9 7.03926 15.9697 6.96962C16.0393 6.89998 16.122 6.84473 16.213 6.80704C16.304 6.76935 16.4015 6.74995 16.5 6.74995ZM13.5 11.75C13.6989 11.75 13.8897 11.829 14.0303 11.9696C14.171 12.1103 14.25 12.301 14.25 12.5C14.25 12.6989 14.171 12.8896 14.0303 13.0303C13.8897 13.1709 13.6989 13.25 13.5 13.25C13.3011 13.25 13.1103 13.1709 12.9697 13.0303C12.829 12.8896 12.75 12.6989 12.75 12.5C12.75 12.301 12.829 12.1103 12.9697 11.9696C13.1103 11.829 13.3011 11.75 13.5 11.75ZM7.75 13.5C7.75 13.301 7.82902 13.1103 7.96967 12.9696C8.11032 12.829 8.30109 12.75 8.5 12.75C8.69891 12.75 8.88968 12.829 9.03033 12.9696C9.17098 13.1103 9.25 13.301 9.25 13.5C9.25 13.6989 9.17098 13.8896 9.03033 14.0303C8.88968 14.1709 8.69891 14.25 8.5 14.25C8.30109 14.25 8.11032 14.1709 7.96967 14.0303C7.82902 13.8896 7.75 13.6989 7.75 13.5Z" fill="black"/>
</svg>
