<svg width="24" height="24" viewBox="0 0 24 24" fill="none" xmlns="http://www.w3.org/2000/svg">
<path d="M15.7063 6.70624C16.0969 6.31562 16.0969 5.68124 15.7063 5.29062C15.3156 4.89999 14.6813 4.89999 14.2906 5.29062L10 9.58437L8.20627 7.79062C7.81565 7.39999 7.18127 7.39999 6.79065 7.79062C6.40002 8.18124 6.40002 8.81562 6.79065 9.20624L9.29065 11.7062C9.68127 12.0969 10.3156 12.0969 10.7063 11.7062L15.7063 6.70624ZM18.7063 10.7062C19.0969 10.3156 19.0969 9.68124 18.7063 9.29062C18.3156 8.89999 17.6813 8.89999 17.2906 9.29062L10 16.5844L6.70627 13.2937C6.31565 12.9031 5.68127 12.9031 5.29065 13.2937C4.90002 13.6844 4.90002 14.3187 5.29065 14.7094L9.29065 18.7094C9.68127 19.1 10.3156 19.1 10.7063 18.7094L18.7063 10.7094V10.7062Z" fill="black"/>
</svg>
