<svg width="24" height="24" viewBox="0 0 24 24" fill="none" xmlns="http://www.w3.org/2000/svg">
<path d="M20 5.25C20 5.71875 19.7406 6.12812 19.3594 6.34063C19.6 6.56875 19.75 6.89375 19.75 7.25C19.75 7.8125 19.3812 8.2875 18.8687 8.44375C18.9531 8.6125 19 8.8 19 9C19 9.5625 18.6312 10.0375 18.1187 10.1937C18.2031 10.3625 18.25 10.55 18.25 10.75C18.25 11.4406 17.6906 12 17 12C16.9656 12 16.9281 12 16.8937 11.9969C16.9625 12.15 17 12.3219 17 12.5C17 12.925 16.7875 13.3031 16.4594 13.5281C14.9687 12.6 13.2218 12.2438 11.5375 12.4594C11.7531 10.775 11.3968 9.02812 10.4687 7.5375C10.6968 7.2125 11.075 7 11.5 7C11.6781 7 11.85 7.0375 12.0031 7.10625C12 7.07188 12 7.0375 12 7C12 6.30938 12.5594 5.75 13.25 5.75C13.45 5.75 13.6375 5.79688 13.8062 5.88125C13.9625 5.36875 14.4375 5 15 5C15.2 5 15.3875 5.04688 15.5562 5.13125C15.7125 4.61875 16.1875 4.25 16.75 4.25C17.1062 4.25 17.4312 4.4 17.6594 4.64062C17.8719 4.25938 18.2812 4 18.75 4C19.4406 4 20 4.55937 20 5.25ZM8.3031 7.0625C8.3406 6.86562 8.58122 6.79062 8.7156 6.94062C10.1343 8.51875 10.8875 10.5031 10.4937 12.6719C9.28435 13.0063 8.14372 13.6469 7.19685 14.5969L4.7781 17.0156C3.70935 15.8375 3.74372 14.0156 4.8781 12.8781L6.8781 10.8781C7.44998 10.3063 7.83435 9.575 7.98123 8.78125L8.3031 7.0625ZM6.8781 19.1219L5.48122 17.725L7.9031 15.3031C8.79685 14.4094 9.88748 13.8313 11.0312 13.5656C13.2875 13.0469 15.4 13.7969 17.0562 15.2844C17.2062 15.4187 17.1312 15.6625 16.9344 15.6969L15.2187 16.0156C14.425 16.1625 13.6937 16.5469 13.1219 17.1187L11.1218 19.1187C9.94997 20.2906 8.04997 20.2906 6.8781 19.1187V19.1219Z" fill="black"/>
</svg>
