<svg width="24" height="24" viewBox="0 0 24 24" fill="none" xmlns="http://www.w3.org/2000/svg">
<path d="M19.625 6.78126C20.0563 6.43751 20.125 5.80626 19.7813 5.37501C19.4375 4.94376 18.8063 4.87501 18.375 5.21876L13.9813 8.73438L10.6 6.20001C10.2344 5.92501 9.73126 5.93438 9.37501 6.21876L4.37501 10.2188C3.94376 10.5625 3.87501 11.1938 4.21876 11.625C4.56251 12.0563 5.19376 12.125 5.62501 11.7813L10.0188 8.26563L13.4 10.8C13.7656 11.075 14.2688 11.0656 14.625 10.7813L19.625 6.78126ZM9.00001 12V18C9.00001 18.5531 9.44688 19 10 19C10.5531 19 11 18.5531 11 18V12C11 11.4469 10.5531 11 10 11C9.44688 11 9.00001 11.4469 9.00001 12ZM5.00001 15V18C5.00001 18.5531 5.44688 19 6.00001 19C6.55313 19 7.00001 18.5531 7.00001 18V15C7.00001 14.4469 6.55313 14 6.00001 14C5.44688 14 5.00001 14.4469 5.00001 15ZM14 13C13.4469 13 13 13.4469 13 14V18C13 18.5531 13.4469 19 14 19C14.5531 19 15 18.5531 15 18V14C15 13.4469 14.5531 13 14 13ZM17 12V18C17 18.5531 17.4469 19 18 19C18.5531 19 19 18.5531 19 18V12C19 11.4469 18.5531 11 18 11C17.4469 11 17 11.4469 17 12Z" fill="black"/>
</svg>
