<svg width="24" height="24" viewBox="0 0 24 24" fill="none" xmlns="http://www.w3.org/2000/svg">
<path d="M3.21243 4.15955C2.88743 3.9033 2.41556 3.96268 2.15931 4.28768C1.90306 4.61268 1.96243 5.08455 2.28743 5.3408L20.7874 19.8408C21.1124 20.0971 21.5843 20.0377 21.8406 19.7127C22.0968 19.3877 22.0374 18.9158 21.7124 18.6596L18.0281 15.7721C19.2562 14.6314 19.9999 13.1346 19.9999 11.5002C19.9999 7.90955 16.4187 5.00018 11.9999 5.00018C9.88431 5.00018 7.95931 5.66893 6.52806 6.75955L3.21243 4.15955ZM15.2499 17.4408L4.59056 9.0408C4.20931 9.80018 3.99993 10.6314 3.99993 11.5002C3.99993 12.9096 4.55306 14.2127 5.49056 15.2783C5.43118 16.0439 5.13431 16.7252 4.82181 17.2439C4.64993 17.5314 4.47493 17.7627 4.34681 17.9189C4.28118 17.9971 4.23118 18.0564 4.19368 18.0971C4.17493 18.1158 4.16243 18.1314 4.15306 18.1408L4.14368 18.1502C3.99993 18.2939 3.95931 18.5064 4.03743 18.6939C4.11556 18.8814 4.29681 19.0033 4.49993 19.0033C5.39681 19.0033 6.29993 18.7252 7.04993 18.4002C7.76556 18.0877 8.37493 17.7158 8.74681 17.4439C9.74056 17.8033 10.8406 18.0033 11.9999 18.0033C13.1562 18.0033 14.2593 17.8033 15.2531 17.4439L15.2499 17.4408Z" fill="black"/>
</svg>
