<svg width="24" height="24" viewBox="0 0 24 24" fill="none" xmlns="http://www.w3.org/2000/svg">
<path d="M7.75625 16.2437L12 12L16.2437 16.2437C17.3281 15.1562 18 13.6562 18 12C18 10.3438 17.3281 8.84375 16.2437 7.75625L12 12L7.75625 7.75625C6.67188 8.84375 6 10.3438 6 12C6 13.6562 6.67188 15.1562 7.75625 16.2437ZM4 12C4 9.87827 4.84285 7.84344 6.34315 6.34315C7.84344 4.84285 9.87827 4 12 4C14.1217 4 16.1566 4.84285 17.6569 6.34315C19.1571 7.84344 20 9.87827 20 12C20 14.1217 19.1571 16.1566 17.6569 17.6569C16.1566 19.1571 14.1217 20 12 20C9.87827 20 7.84344 19.1571 6.34315 17.6569C4.84285 16.1566 4 14.1217 4 12Z" fill="black"/>
</svg>
