<svg width="24" height="24" viewBox="0 0 24 24" fill="none" xmlns="http://www.w3.org/2000/svg">
<path d="M12 20C9.87827 20 7.84344 19.1571 6.34315 17.6569C4.84285 16.1566 4 14.1217 4 12C4 9.87827 4.84285 7.84344 6.34315 6.34315C7.84344 4.84285 9.87827 4 12 4C14.1217 4 16.1566 4.84285 17.6569 6.34315C19.1571 7.84344 20 9.87827 20 12C20 14.1217 19.1571 16.1566 17.6569 17.6569C16.1566 19.1571 14.1217 20 12 20ZM9 10.2063V14.5C9 14.775 9.225 15 9.5 15H13.7937C14.1844 15 14.5 14.6844 14.5 14.2937C14.5 14.1062 14.425 13.925 14.2937 13.7937L13.25 12.75L15.3219 10.6781C15.4344 10.5656 15.5 10.4125 15.5 10.25C15.5 10.0875 15.4375 9.9375 15.3219 9.82188L14.175 8.675C14.0625 8.5625 13.9094 8.5 13.75 8.5C13.5906 8.5 13.4375 8.5625 13.3219 8.67812L11.25 10.75L10.2063 9.70625C10.075 9.575 9.89375 9.5 9.70625 9.5C9.31563 9.5 9 9.81563 9 10.2063Z" fill="black"/>
</svg>
