<svg width="24" height="24" viewBox="0 0 24 24" fill="none" xmlns="http://www.w3.org/2000/svg">
<path d="M3.21243 4.15937C2.88743 3.90312 2.41556 3.96249 2.15931 4.28749C1.90306 4.61249 1.96243 5.08437 2.28743 5.34062L20.7874 19.8406C21.1124 20.0969 21.5843 20.0375 21.8406 19.7125C22.0968 19.3875 22.0374 18.9156 21.7124 18.6594L17.4874 15.3469C18.4343 14.1531 18.9999 12.6437 18.9999 11C18.9999 7.13437 15.8656 3.99999 11.9999 3.99999C9.74993 3.99999 7.74681 5.06249 6.46868 6.70937L3.21243 4.15937ZM8.04056 7.94374C8.95618 6.76249 10.3906 5.99999 11.9999 5.99999C14.7624 5.99999 16.9999 8.23749 16.9999 11C16.9999 12.1781 16.5937 13.2594 15.9124 14.1125L15.1249 13.4969C15.6718 12.8125 15.9999 11.9437 15.9999 11C15.9999 8.79062 14.2093 6.99999 11.9999 6.99999C10.7093 6.99999 9.55931 7.61249 8.82806 8.56249L8.04056 7.94687V7.94374ZM10.7968 10.1031L10.0093 9.48749C10.4656 8.88749 11.1874 8.49999 11.9999 8.49999C12.2749 8.49999 12.4999 8.72499 12.4999 8.99999C12.4999 9.27499 12.2749 9.49999 11.9999 9.49999C11.5062 9.49999 11.0687 9.73749 10.7968 10.1031ZM17.8656 19.5L13.2312 15.8469C12.8374 15.9469 12.4249 16 11.9999 16C9.23743 16 6.99993 13.7625 6.99993 11C6.99993 10.9812 6.99993 10.9594 6.99993 10.9406L5.16243 9.49374C5.05618 9.97812 4.99993 10.4812 4.99993 11C4.99993 13.4844 6.29368 15.6656 8.24368 16.9094L6.42493 18.1812C6.06868 18.4312 5.91243 18.8844 6.04368 19.3C6.17493 19.7156 6.56243 20 6.99993 20H16.9999C17.3624 20 17.6906 19.8062 17.8656 19.5ZM12.1499 14.9969L8.07806 11.7875C8.44368 13.6187 10.0593 15 11.9999 15C12.0499 15 12.0999 15 12.1499 14.9969Z" fill="black"/>
</svg>
