<svg width="24" height="24" viewBox="0 0 24 24" fill="none" xmlns="http://www.w3.org/2000/svg">
<path d="M10.5937 4.22812C10.4062 4.03125 10.125 3.95625 9.8625 4.025C9.6 4.09375 9.39687 4.30312 9.32812 4.56562L8.83437 6.51874L6.89687 5.97187C6.63437 5.89687 6.35312 5.97187 6.16249 6.16249C5.97187 6.35312 5.89687 6.63437 5.97187 6.89687L6.51874 8.83437L4.56562 9.33125C4.30312 9.39687 4.09687 9.60312 4.025 9.86562C3.95312 10.1281 4.03125 10.4062 4.22812 10.5937L5.67187 12L4.22812 13.4062C4.03125 13.5937 3.95625 13.875 4.025 14.1375C4.09375 14.4 4.30312 14.6031 4.56562 14.6719L6.51874 15.1656L5.97187 17.1031C5.89687 17.3656 5.97187 17.6469 6.16249 17.8375C6.35312 18.0281 6.63437 18.1031 6.89687 18.0281L8.83437 17.4812L9.32812 19.4344C9.39375 19.6969 9.6 19.9031 9.8625 19.975C10.125 20.0469 10.4031 19.9687 10.5937 19.775L12 18.3312L13.4062 19.775C13.5969 19.9687 13.875 20.0469 14.1375 19.975C14.4 19.9031 14.6031 19.6969 14.6719 19.4344L15.1656 17.4812L17.1031 18.0281C17.3656 18.1031 17.6469 18.0281 17.8375 17.8375C18.0281 17.6469 18.1031 17.3656 18.0281 17.1031L17.4812 15.1656L19.4344 14.6719C19.6969 14.6062 19.9031 14.4 19.975 14.1375C20.0469 13.875 19.9687 13.5937 19.775 13.4062L18.3312 12L19.775 10.5937C19.9687 10.4031 20.0469 10.125 19.975 9.8625C19.9031 9.6 19.6969 9.39687 19.4344 9.32812L17.4812 8.83437L18.0281 6.89687C18.1031 6.63437 18.0281 6.35312 17.8375 6.16249C17.6469 5.97187 17.3656 5.89687 17.1031 5.97187L15.1656 6.51874L14.6687 4.56562C14.6031 4.30312 14.3969 4.09687 14.1344 4.025C13.8719 3.95312 13.5937 4.03125 13.4062 4.22812L12 5.67187L10.5937 4.22812Z" fill="black"/>
</svg>
