<svg width="24" height="24" viewBox="0 0 24 24" fill="none" xmlns="http://www.w3.org/2000/svg">
<path d="M11.9999 18C16.4187 18 19.9999 15.0906 19.9999 11.5C19.9999 7.90937 16.4187 5 11.9999 5C7.58116 5 3.99991 7.90937 3.99991 11.5C3.99991 12.9094 4.55304 14.2125 5.49054 15.2781C5.43116 16.0437 5.13429 16.725 4.82179 17.2437C4.64991 17.5312 4.47491 17.7625 4.34679 17.9187C4.28116 17.9969 4.23116 18.0563 4.19366 18.0969C4.17491 18.1156 4.16241 18.1313 4.15304 18.1406L4.14366 18.15C3.99991 18.2937 3.95929 18.5063 4.03741 18.6938C4.11554 18.8813 4.29679 19.0031 4.49991 19.0031C5.39679 19.0031 6.29991 18.725 7.04991 18.4C7.76554 18.0875 8.37491 17.7156 8.74679 17.4438C9.74054 17.8031 10.8405 18.0031 11.9999 18.0031V18ZM7.99991 9C7.99991 8.73478 8.10527 8.48043 8.29281 8.29289C8.48034 8.10536 8.7347 8 8.99991 8C9.26513 8 9.51948 8.10536 9.70702 8.29289C9.89456 8.48043 9.99991 8.73478 9.99991 9C9.99991 9.26522 9.89456 9.51957 9.70702 9.70711C9.51948 9.89464 9.26513 10 8.99991 10C8.7347 10 8.48034 9.89464 8.29281 9.70711C8.10527 9.51957 7.99991 9.26522 7.99991 9ZM13.2499 8.5C13.4874 8.5 13.7093 8.6125 13.8499 8.8L16.8499 12.8C17.0218 13.0281 17.0468 13.3313 16.9218 13.5844C16.7968 13.8375 16.5343 14 16.2499 14H10.2499H7.74991C7.45929 14 7.19366 13.8313 7.07179 13.5688C6.94991 13.3063 6.98741 12.9938 7.17491 12.7719L8.42491 11.2719C8.56867 11.1 8.77804 11.0031 8.99991 11.0031C9.22179 11.0031 9.43429 11.1031 9.57491 11.2719L10.2187 12.0406L12.6499 8.8C12.7905 8.6125 13.0124 8.5 13.2499 8.5Z" fill="black"/>
</svg>
