<svg width="24" height="24" viewBox="0 0 24 24" fill="none" xmlns="http://www.w3.org/2000/svg">
<path d="M9 5.71563C9 4.76875 9.76875 4 10.7156 4C10.8719 4 11 4.12813 11 4.28438C11 5.23125 10.2313 6 9.28438 6C9.12813 6 9 5.87188 9 5.71563ZM5 9.35625C5 7.99375 5.6375 6.5 7 6.5C7.4875 6.5 8.06562 6.68438 8.475 6.84375C8.80937 6.975 9.1875 6.975 9.52187 6.84375C9.93125 6.68438 10.5094 6.5 10.9969 6.5C12.3594 6.5 12.9969 7.99375 12.9969 9.35625C12.9969 9.575 12.9844 9.79063 12.9594 10H5.0375C5.0125 9.79063 5 9.57812 5 9.35625ZM13.9688 10C13.9906 9.79063 14 9.575 14 9.35625C14 8.54062 13.8125 7.63438 13.3656 6.9C13.2812 6.7625 13.1875 6.62812 13.0844 6.50312C13.5531 6.52187 14.0906 6.69375 14.4781 6.84687C14.8125 6.97812 15.1906 6.97812 15.525 6.84687C15.9344 6.6875 16.5125 6.50312 17 6.50312C18.3625 6.50312 19 7.99688 19 9.35938C19 9.57812 18.9875 9.79375 18.9625 10.0031H13.9688V10ZM16.7156 4C16.8719 4 17 4.12813 17 4.28438C17 5.23125 16.2312 6 15.2844 6C15.1281 6 15 5.87188 15 5.71563C15 4.76875 15.7688 4 16.7156 4ZM4 12.5C4 11.6719 4.67188 11 5.5 11H18.5C19.3281 11 20 11.6719 20 12.5V15H4V12.5ZM4 16H20V18.5C20 19.3281 19.3281 20 18.5 20H5.5C4.67188 20 4 19.3281 4 18.5V16ZM6.5 13C6.5 12.8674 6.44732 12.7402 6.35355 12.6464C6.25979 12.5527 6.13261 12.5 6 12.5C5.86739 12.5 5.74021 12.5527 5.64645 12.6464C5.55268 12.7402 5.5 12.8674 5.5 13C5.5 13.1326 5.55268 13.2598 5.64645 13.3536C5.74021 13.4473 5.86739 13.5 6 13.5C6.13261 13.5 6.25979 13.4473 6.35355 13.3536C6.44732 13.2598 6.5 13.1326 6.5 13ZM6 18.5C6.13261 18.5 6.25979 18.4473 6.35355 18.3536C6.44732 18.2598 6.5 18.1326 6.5 18C6.5 17.8674 6.44732 17.7402 6.35355 17.6464C6.25979 17.5527 6.13261 17.5 6 17.5C5.86739 17.5 5.74021 17.5527 5.64645 17.6464C5.55268 17.7402 5.5 17.8674 5.5 18C5.5 18.1326 5.55268 18.2598 5.64645 18.3536C5.74021 18.4473 5.86739 18.5 6 18.5ZM18.5 13C18.5 12.8674 18.4473 12.7402 18.3536 12.6464C18.2598 12.5527 18.1326 12.5 18 12.5C17.8674 12.5 17.7402 12.5527 17.6464 12.6464C17.5527 12.7402 17.5 12.8674 17.5 13C17.5 13.1326 17.5527 13.2598 17.6464 13.3536C17.7402 13.4473 17.8674 13.5 18 13.5C18.1326 13.5 18.2598 13.4473 18.3536 13.3536C18.4473 13.2598 18.5 13.1326 18.5 13ZM18 18.5C18.1326 18.5 18.2598 18.4473 18.3536 18.3536C18.4473 18.2598 18.5 18.1326 18.5 18C18.5 17.8674 18.4473 17.7402 18.3536 17.6464C18.2598 17.5527 18.1326 17.5 18 17.5C17.8674 17.5 17.7402 17.5527 17.6464 17.6464C17.5527 17.7402 17.5 17.8674 17.5 18C17.5 18.1326 17.5527 18.2598 17.6464 18.3536C17.7402 18.4473 17.8674 18.5 18 18.5Z" fill="black"/>
</svg>
