<svg width="24" height="24" viewBox="0 0 24 24" fill="none" xmlns="http://www.w3.org/2000/svg">
<path d="M3.21243 4.15955C2.88743 3.9033 2.41556 3.96268 2.15931 4.28768C1.90306 4.61268 1.96243 5.08455 2.28743 5.3408L20.7874 19.8408C21.1124 20.0971 21.5843 20.0377 21.8406 19.7127C22.0968 19.3877 22.0374 18.9158 21.7124 18.6596L17.4874 15.3471C18.4343 14.1533 18.9999 12.6439 18.9999 11.0002C18.9999 7.13455 15.8656 4.00018 11.9999 4.00018C9.74993 4.00018 7.74681 5.06268 6.46868 6.70955L3.21243 4.15955ZM8.04056 7.94393C8.95618 6.76268 10.3906 6.00018 11.9999 6.00018C14.7624 6.00018 16.9999 8.23768 16.9999 11.0002C16.9999 12.1783 16.5937 13.2596 15.9124 14.1127L15.1249 13.4971C15.6718 12.8127 15.9999 11.9439 15.9999 11.0002C15.9999 8.7908 14.2093 7.00018 11.9999 7.00018C10.7093 7.00018 9.55931 7.61268 8.82806 8.56268L8.04056 7.94705V7.94393ZM10.7968 10.1033L10.0093 9.48768C10.4656 8.88768 11.1874 8.50018 11.9999 8.50018C12.2749 8.50018 12.4999 8.72518 12.4999 9.00018C12.4999 9.27518 12.2749 9.50018 11.9999 9.50018C11.5062 9.50018 11.0687 9.73768 10.7968 10.1033ZM17.8656 19.5002L13.2312 15.8471C12.8374 15.9471 12.4249 16.0002 11.9999 16.0002C9.23743 16.0002 6.99993 13.7627 6.99993 11.0002C6.99993 10.9814 6.99993 10.9596 6.99993 10.9408L5.16243 9.49393C5.05618 9.9783 4.99993 10.4814 4.99993 11.0002C4.99993 13.4846 6.29368 15.6658 8.24368 16.9096L6.42493 18.1814C6.06868 18.4314 5.91243 18.8846 6.04368 19.3002C6.17493 19.7158 6.56243 20.0002 6.99993 20.0002H16.9999C17.3624 20.0002 17.6906 19.8064 17.8656 19.5002ZM12.1499 14.9971L8.07806 11.7877C8.44368 13.6189 10.0593 15.0002 11.9999 15.0002C12.0499 15.0002 12.0999 15.0002 12.1499 14.9971Z" fill="black"/>
</svg>
