<svg width="24" height="24" viewBox="0 0 24 24" fill="none" xmlns="http://www.w3.org/2000/svg">
<path d="M9 4C9.55312 4 10 4.44687 10 5V6H14V5C14 4.44687 14.4469 4 15 4C15.5531 4 16 4.44687 16 5V6H17.5C18.3281 6 19 6.67188 19 7.5V9H5V7.5C5 6.67188 5.67188 6 6.5 6H8V5C8 4.44687 8.44688 4 9 4ZM5 10H19V18.5C19 19.3281 18.3281 20 17.5 20H6.5C5.67188 20 5 19.3281 5 18.5V10ZM14.75 15.75C15.1656 15.75 15.5 15.4156 15.5 15C15.5 14.5844 15.1656 14.25 14.75 14.25H9.25C8.83437 14.25 8.5 14.5844 8.5 15C8.5 15.4156 8.83437 15.75 9.25 15.75H14.75Z" fill="black"/>
</svg>
