<svg width="24" height="24" viewBox="0 0 24 24" fill="none" xmlns="http://www.w3.org/2000/svg">
<path d="M18.0375 4C16.0312 4 14.3594 5.45312 14.0531 7.3625C15.1594 7.9125 15.9344 9.02812 15.9937 10.3344C16.7188 10.6781 17.3062 11.2625 17.6531 11.9812C17.7781 11.9937 17.9062 12 18.0375 12C19.1281 12 20.1219 11.5687 20.8469 10.8719C21.0062 10.7187 21.0469 10.4812 20.9469 10.2875C20.8469 10.0937 20.6313 9.98437 20.4156 10.0187C20.2625 10.0437 20.1031 10.0594 19.9406 10.0594C18.4094 10.0594 17.1781 8.83125 17.1781 7.32812C17.1781 6.30937 17.7406 5.41875 18.5813 4.95C18.7719 4.84375 18.8719 4.62187 18.825 4.40625C18.7781 4.19062 18.5969 4.03125 18.3781 4.0125C18.2656 4.00312 18.15 3.99687 18.0375 3.99687V4ZM14.4969 15.9969C15.8781 15.9969 16.9969 14.8781 16.9969 13.4969C16.9969 12.2687 16.1094 11.2437 14.9406 11.0375C14.9781 10.8625 15 10.6844 15 10.5C15 9.11875 13.8813 8 12.5 8C11.9688 8 11.475 8.16562 11.0688 8.45C10.5406 7.58125 9.5875 7 8.5 7C6.84375 7 5.5 8.34375 5.5 10V10.0406C4.08125 10.2781 3 11.5125 3 12.9969C3 14.6531 4.34375 15.9969 6 15.9969H14.4969ZM5.66875 17.1281C5.325 16.8969 4.85938 16.9906 4.62812 17.3375L3.62813 18.8375C3.39688 19.1812 3.49062 19.6469 3.8375 19.8781C4.18438 20.1094 4.64687 20.0156 4.87812 19.6687L5.87812 18.1687C6.10938 17.825 6.01562 17.3594 5.66875 17.1281ZM8.66875 17.1281C8.325 16.8969 7.85938 16.9906 7.62813 17.3375L6.62812 18.8375C6.39687 19.1812 6.49063 19.6469 6.8375 19.8781C7.18438 20.1094 7.64688 20.0156 7.87813 19.6687L8.87813 18.1687C9.10938 17.825 9.01562 17.3594 8.66875 17.1281ZM11.6687 17.1281C11.325 16.8969 10.8594 16.9906 10.6281 17.3375L9.62813 18.8375C9.39688 19.1812 9.49062 19.6469 9.8375 19.8781C10.1844 20.1094 10.6469 20.0156 10.8781 19.6687L11.8781 18.1687C12.1094 17.825 12.0156 17.3594 11.6687 17.1281ZM14.6687 17.1281C14.325 16.8969 13.8594 16.9906 13.6281 17.3375L12.6281 18.8375C12.3969 19.1812 12.4906 19.6469 12.8375 19.8781C13.1844 20.1094 13.6469 20.0156 13.8781 19.6687L14.8781 18.1687C15.1094 17.825 15.0156 17.3594 14.6687 17.1281Z" fill="black"/>
</svg>
