<svg width="24" height="24" viewBox="0 0 24 24" fill="none" xmlns="http://www.w3.org/2000/svg">
<path d="M4.03442 11.25C4.18755 9.60311 4.84067 8.10311 5.83755 6.89686L7.25942 8.31874C6.61567 9.14999 6.18442 10.1531 6.04692 11.25H4.03442ZM8.32192 7.25936L6.89692 5.83749C8.10317 4.84061 9.60317 4.18749 11.25 4.03436V6.04686C10.1532 6.18436 9.15005 6.61561 8.32192 7.25936ZM12.75 17.9531C13.8469 17.8156 14.85 17.3844 15.6782 16.7406L17.1 18.1625C15.8969 19.1594 14.3969 19.8125 12.75 19.9656V17.9531ZM16.7407 15.6781C17.3844 14.8469 17.8188 13.8437 17.9532 12.75H19.9657C19.8125 14.3969 19.1594 15.8969 18.1625 17.1031L16.7407 15.6812V15.6781ZM6.89692 18.1625L8.3188 16.7406C9.15005 17.3844 10.1532 17.8187 11.2469 17.9531V19.9656C9.60005 19.8125 8.10005 19.1594 6.8938 18.1625H6.89692ZM5.83755 17.1031C4.84067 15.8969 4.18755 14.3969 4.03442 12.75H6.04692C6.18442 13.8469 6.61567 14.85 7.25942 15.6781L5.83755 17.1031ZM17.1032 5.83749L15.6813 7.25936C14.85 6.61561 13.8469 6.18436 12.75 6.04686V4.03436C14.3969 4.18749 15.8969 4.84061 17.1032 5.83749ZM16.7407 8.32186L18.1625 6.89999C19.1594 8.10311 19.8125 9.60624 19.9657 11.2531H17.9532C17.8157 10.1562 17.3844 9.15311 16.7407 8.32499V8.32186Z" fill="black"/>
</svg>
