<svg width="24" height="24" viewBox="0 0 24 24" fill="none" xmlns="http://www.w3.org/2000/svg">
<path d="M11.5 9C9.18438 9 7.275 10.75 7.02812 13H5C3.34375 13 2 11.6562 2 10C2 8.34375 3.34375 7 5 7H5.03437C5.27812 5.30313 6.7375 4 8.5 4C9.99688 4 11.275 4.94063 11.775 6.2625C12.15 6.09375 12.5625 6 13 6C14.6562 6 16 7.34375 16 9C16 9.37813 15.9313 9.7375 15.8031 10.0687C15.4469 10.1406 15.1094 10.2688 14.8 10.4406C13.9781 9.55313 12.8031 9 11.5 9ZM9 20C7.34375 20 6 18.6562 6 17C6 15.6719 6.8625 14.5437 8.05937 14.15C8.01875 13.9406 8 13.7219 8 13.5C8 11.5656 9.56562 10 11.5 10C12.8469 10 14.0156 10.7594 14.6 11.875C15.0594 11.3406 15.7406 11 16.5 11C17.8813 11 19 12.1187 19 13.5C19 13.6719 18.9813 13.8375 18.95 14C18.9656 14 18.9844 14 19 14C20.6562 14 22 15.3438 22 17C22 18.6562 20.6562 20 19 20H9Z" fill="black"/>
</svg>
