<svg width="24" height="24" viewBox="0 0 24 24" fill="none" xmlns="http://www.w3.org/2000/svg">
<path d="M3.21255 4.15937C2.88755 3.90312 2.41568 3.96249 2.15943 4.28749C1.90318 4.61249 1.96255 5.08437 2.28755 5.34062L20.7876 19.8406C21.1126 20.0969 21.5844 20.0375 21.8407 19.7125C22.0969 19.3875 22.0376 18.9156 21.7126 18.6594L17.4876 15.3469C18.4344 14.1531 19.0001 12.6437 19.0001 11C19.0001 7.13437 15.8657 3.99999 12.0001 3.99999C9.75005 3.99999 7.74693 5.06249 6.4688 6.70937L3.21255 4.15937ZM8.04068 7.94374C8.9563 6.76249 10.3907 5.99999 12.0001 5.99999C14.7626 5.99999 17.0001 8.23749 17.0001 11C17.0001 12.1781 16.5938 13.2594 15.9126 14.1125L15.1251 13.4969C15.6719 12.8125 16.0001 11.9437 16.0001 11C16.0001 8.79062 14.2094 6.99999 12.0001 6.99999C10.7094 6.99999 9.55943 7.61249 8.82818 8.56249L8.04068 7.94687V7.94374ZM10.7969 10.1031L10.0094 9.48749C10.4657 8.88749 11.1876 8.49999 12.0001 8.49999C12.2751 8.49999 12.5001 8.72499 12.5001 8.99999C12.5001 9.27499 12.2751 9.49999 12.0001 9.49999C11.5063 9.49999 11.0688 9.73749 10.7969 10.1031ZM17.8657 19.5L13.2313 15.8469C12.8376 15.9469 12.4251 16 12.0001 16C9.23755 16 7.00005 13.7625 7.00005 11C7.00005 10.9812 7.00005 10.9594 7.00005 10.9406L5.16255 9.49374C5.0563 9.97812 5.00005 10.4812 5.00005 11C5.00005 13.4844 6.2938 15.6656 8.2438 16.9094L6.42505 18.1812C6.0688 18.4312 5.91255 18.8844 6.0438 19.3C6.17505 19.7156 6.56255 20 7.00005 20H17.0001C17.3626 20 17.6907 19.8062 17.8657 19.5ZM12.1501 14.9969L8.07818 11.7875C8.4438 13.6187 10.0594 15 12.0001 15C12.0501 15 12.1001 15 12.1501 14.9969Z" fill="black"/>
</svg>
