<svg width="24" height="24" viewBox="0 0 24 24" fill="none" xmlns="http://www.w3.org/2000/svg">
<path d="M3.21243 4.15955C2.88743 3.9033 2.41556 3.96268 2.15931 4.28768C1.90306 4.61268 1.96243 5.08455 2.28743 5.3408L20.7874 19.8408C21.1124 20.097 21.5843 20.0377 21.8406 19.7127C22.0968 19.3877 22.0374 18.9158 21.7124 18.6596L19.9781 17.3002C19.9937 17.2033 19.9999 17.1033 19.9999 17.0002V9.00018C19.9999 7.89705 19.1031 7.00018 17.9999 7.00018H15.6656L15.3406 6.02518C15.1374 5.41268 14.5656 5.00018 13.9187 5.00018H10.0812C9.43431 5.00018 8.86243 5.41268 8.65931 6.02518L8.33431 7.00018H6.83743L3.21243 4.15955ZM10.9187 10.2002C11.2531 10.0721 11.6187 10.0002 11.9999 10.0002C13.6562 10.0002 14.9999 11.3439 14.9999 13.0002C14.9999 13.1283 14.9906 13.2564 14.9749 13.3814L10.9187 10.2002ZM17.2312 19.0002L13.1374 15.7752C12.7874 15.9189 12.4031 16.0002 11.9999 16.0002C10.3437 16.0002 8.99993 14.6564 8.99993 13.0002C8.99993 12.8439 9.01243 12.6908 9.03431 12.5439L4.03743 8.60643C4.01243 8.73455 3.99993 8.8658 3.99993 9.00018V17.0002C3.99993 18.1033 4.89681 19.0002 5.99993 19.0002H17.2312Z" fill="black"/>
</svg>
