<svg width="24" height="24" viewBox="0 0 24 24" fill="none" xmlns="http://www.w3.org/2000/svg">
<path d="M3.21243 4.15937C2.88743 3.90312 2.41556 3.96249 2.15931 4.28749C1.90306 4.61249 1.96243 5.08437 2.28743 5.34062L20.7874 19.8406C21.1124 20.0969 21.5843 20.0375 21.8406 19.7125C22.0968 19.3875 22.0374 18.9156 21.7124 18.6594L19.9781 17.3C19.9937 17.2031 19.9999 17.1031 19.9999 17V8.99999C19.9999 7.89687 19.1031 6.99999 17.9999 6.99999H15.6656L15.3406 6.02499C15.1374 5.41249 14.5656 4.99999 13.9187 4.99999H10.0812C9.43431 4.99999 8.86243 5.41249 8.65931 6.02499L8.33431 6.99999H6.83743L3.21243 4.15937ZM10.9187 10.2C11.2531 10.0719 11.6187 9.99999 11.9999 9.99999C13.6562 9.99999 14.9999 11.3437 14.9999 13C14.9999 13.1281 14.9906 13.2562 14.9749 13.3812L10.9187 10.2ZM17.2312 19L13.1374 15.775C12.7874 15.9187 12.4031 16 11.9999 16C10.3437 16 8.99993 14.6562 8.99993 13C8.99993 12.8437 9.01243 12.6906 9.03431 12.5437L4.03743 8.60624C4.01243 8.73437 3.99993 8.86562 3.99993 8.99999V17C3.99993 18.1031 4.89681 19 5.99993 19H17.2312Z" fill="black"/>
</svg>
