<svg width="24" height="24" viewBox="0 0 24 24" fill="none" xmlns="http://www.w3.org/2000/svg">
<path d="M11.1938 4.03753C11.3532 4.10316 11.4657 4.24691 11.4938 4.41566L11.8188 6.36566C11.0907 6.70316 10.4782 7.25316 10.0688 7.93753C9.61253 7.65628 9.07503 7.49691 8.50003 7.49691C6.84378 7.49691 5.50003 8.84066 5.50003 10.4969C5.50003 11.6063 6.10316 12.5782 7.00003 13.0969C7.02503 14.0907 7.41253 14.9938 8.03441 15.6813L6.28441 16.9063C6.14378 17.0063 5.96253 17.025 5.80316 16.9563C5.64378 16.8875 5.53128 16.7469 5.50316 16.5782L5.06566 13.9344L2.41878 13.4938C2.25003 13.4657 2.10628 13.3532 2.04066 13.1938C1.97503 13.0344 1.99378 12.8532 2.09066 12.7125L3.64066 10.5L2.09066 8.28753C1.99066 8.14691 1.97191 7.96566 2.04066 7.80628C2.10941 7.64691 2.25003 7.53441 2.41878 7.50628L5.06566 7.06566L5.50628 4.41878C5.53441 4.25003 5.64691 4.10628 5.80628 4.04066C5.96566 3.97503 6.14691 3.99378 6.28753 4.09066L8.50003 5.64066L10.7125 4.09066C10.8532 3.99066 11.0344 3.97191 11.1938 4.04066V4.03753ZM8.50003 8.50003C8.93128 8.50003 9.33441 8.63753 9.65941 8.87191C9.62191 9.00003 9.59066 9.13128 9.56566 9.26566C8.38128 9.72191 7.46566 10.7219 7.13441 11.9657C6.74378 11.5969 6.50003 11.0782 6.50003 10.5C6.50003 9.39691 7.39691 8.50003 8.50003 8.50003ZM10.6688 17.125C11.0125 17.3563 11.1063 17.8219 10.8782 18.1657L9.87816 19.6657C9.64691 20.0094 9.18128 20.1032 8.83753 19.875C8.49378 19.6469 8.40003 19.1782 8.62816 18.8344L9.62816 17.3344C9.85941 16.9907 10.325 16.8969 10.6688 17.125ZM13.6688 17.125C14.0125 17.3563 14.1063 17.8219 13.8782 18.1657L12.8782 19.6657C12.6469 20.0094 12.1813 20.1032 11.8375 19.875C11.4938 19.6469 11.4 19.1782 11.6282 18.8344L12.6282 17.3344C12.8594 16.9907 13.325 16.8969 13.6688 17.125ZM16.6688 17.125C17.0125 17.3563 17.1063 17.8219 16.8782 18.1657L15.8782 19.6657C15.6469 20.0094 15.1813 20.1032 14.8375 19.875C14.4938 19.6469 14.4 19.1782 14.6282 18.8344L15.6282 17.3344C15.8594 16.9907 16.325 16.8969 16.6688 17.125ZM19.6688 17.125C20.0125 17.3563 20.1063 17.8219 19.8782 18.1657L18.8782 19.6657C18.6469 20.0094 18.1813 20.1032 17.8375 19.875C17.4938 19.6469 17.4 19.1782 17.6282 18.8344L18.6282 17.3344C18.8594 16.9907 19.325 16.8969 19.6688 17.125ZM21.9969 13.4969C21.9969 14.8782 20.8782 15.9969 19.4969 15.9969H11C9.34378 15.9969 8.00003 14.6532 8.00003 12.9969C8.00003 11.5094 9.08128 10.2782 10.5 10.0407V10C10.5 8.34378 11.8438 7.00003 13.5 7.00003C14.5907 7.00003 15.5438 7.58128 16.0688 8.45003C16.475 8.16566 16.9688 8.00003 17.5 8.00003C18.8813 8.00003 20 9.11878 20 10.5C20 10.6844 19.9813 10.8657 19.9407 11.0375C21.1094 11.2469 21.9969 12.2688 21.9969 13.4969Z" fill="black"/>
</svg>
