<svg width="24" height="24" viewBox="0 0 24 24" fill="none" xmlns="http://www.w3.org/2000/svg">
<path d="M8.5 4.5C8.5 4.225 8.275 4 8 4C7.725 4 7.5 4.225 7.5 4.5V5H7C6.725 5 6.5 5.225 6.5 5.5C6.5 5.775 6.725 6 7 6H7.5V7H5.88125C5.53438 7 5.25 7.28437 5.25 7.63125C5.25 7.70937 5.26562 7.78437 5.29062 7.85938L6.30625 10.5H6.25C5.83437 10.5 5.5 10.8344 5.5 11.25C5.5 11.6656 5.83437 12 6.25 12H6.375L5.875 16H10.125L9.625 12H9.75C10.1656 12 10.5 11.6656 10.5 11.25C10.5 10.8344 10.1656 10.5 9.75 10.5H9.69375L10.7094 7.85938C10.7375 7.7875 10.75 7.70937 10.75 7.63125C10.75 7.28125 10.4656 7 10.1188 7H8.5V6H9C9.275 6 9.5 5.775 9.5 5.5C9.5 5.225 9.275 5 9 5H8.5V4.5ZM5.5 17L4.15 18.8C4.05313 18.9313 4 19.0875 4 19.25C4 19.6656 4.33437 20 4.75 20H11.25C11.6656 20 12 19.6656 12 19.25C12 19.0875 11.9469 18.9313 11.85 18.8L10.5 17H5.5ZM14.5 17L13.15 18.8C13.0531 18.9313 13 19.0875 13 19.25C13 19.6656 13.3344 20 13.75 20H19.25C19.6656 20 20 19.6656 20 19.25C20 19.0875 19.9469 18.9313 19.85 18.8L18.5 17H14.5ZM13.5 10.5V12.1219C13.5 12.3656 13.5875 12.6 13.75 12.7812L14.6 13.75L14.5312 16H18.4531L18.35 13.75L19.2344 12.7875C19.4031 12.6031 19.5 12.3625 19.5 12.1094V10.5C19.5 10.225 19.275 10 19 10H18.5C18.225 10 18 10.225 18 10.5V11H17.25V10.5C17.25 10.225 17.025 10 16.75 10H16.25C15.975 10 15.75 10.225 15.75 10.5V11H15V10.5C15 10.225 14.775 10 14.5 10H14C13.725 10 13.5 10.225 13.5 10.5ZM16 13.5C16 13.225 16.225 13 16.5 13C16.775 13 17 13.225 17 13.5V14.5H16V13.5Z" fill="black"/>
</svg>
