<svg width="24" height="24" viewBox="0 0 24 24" fill="none" xmlns="http://www.w3.org/2000/svg">
<path d="M11 6C11 6.42812 10.8656 6.82187 10.6375 7.14687L11.55 9.1C11.8562 9.03437 12.175 9 12.5 9C13.6281 9 14.6562 9.41563 15.4469 10.1L18.0125 8.21875C18.0063 8.14687 18 8.075 18 8C18 6.89687 18.8969 6 20 6C21.1031 6 22 6.89687 22 8C22 9.10313 21.1031 10 20 10C19.7125 10 19.4406 9.94063 19.1938 9.83125L16.6313 11.7125C16.8688 12.2594 17 12.8656 17 13.5C17 13.9875 16.9219 14.4594 16.7781 14.9L19.0281 16.25C19.3156 16.0906 19.6469 16 20 16C21.1031 16 22 16.8969 22 18C22 19.1031 21.1031 20 20 20C18.8969 20 18 19.1031 18 18V17.9656L15.7469 16.6125C14.9281 17.4688 13.775 18 12.5 18C10.3594 18 8.56563 16.5031 8.1125 14.5H5.73125C5.38438 15.0969 4.74062 15.5 4 15.5C2.89688 15.5 2 14.6031 2 13.5C2 12.3969 2.89688 11.5 4 11.5C4.74062 11.5 5.3875 11.9031 5.73125 12.5H8.10938C8.34375 11.4688 8.93125 10.575 9.7375 9.94688L8.825 7.99375C7.80312 7.90313 7 7.04688 7 6C7 4.89688 7.89687 4 9 4C10.1031 4 11 4.89688 11 6ZM12.5 15C12.8978 15 13.2794 14.842 13.5607 14.5607C13.842 14.2794 14 13.8978 14 13.5C14 13.1022 13.842 12.7206 13.5607 12.4393C13.2794 12.158 12.8978 12 12.5 12C12.1022 12 11.7206 12.158 11.4393 12.4393C11.158 12.7206 11 13.1022 11 13.5C11 13.8978 11.158 14.2794 11.4393 14.5607C11.7206 14.842 12.1022 15 12.5 15Z" fill="black"/>
</svg>
