<svg width="24" height="24" viewBox="0 0 24 24" fill="none" xmlns="http://www.w3.org/2000/svg">
<path d="M4 12C4 9.87827 4.84285 7.84344 6.34315 6.34315C7.84344 4.84285 9.87827 4 12 4C14.1217 4 16.1566 4.84285 17.6569 6.34315C19.1571 7.84344 20 9.87827 20 12C20 14.1217 19.1571 16.1566 17.6569 17.6569C16.1566 19.1571 14.1217 20 12 20C9.87827 20 7.84344 19.1571 6.34315 17.6569C4.84285 16.1566 4 14.1217 4 12ZM12 11.5C12.3978 11.5 12.7794 11.658 13.0607 11.9393C13.342 12.2206 13.5 12.6022 13.5 13C13.5 13.3978 13.342 13.7794 13.0607 14.0607C12.7794 14.342 12.3978 14.5 12 14.5C11.6022 14.5 11.2206 14.342 10.9393 14.0607C10.658 13.7794 10.5 13.3978 10.5 13C10.5 12.6022 10.658 12.2206 10.9393 11.9393C11.2206 11.658 11.6022 11.5 12 11.5ZM9 13C9 14.6562 10.3438 16 12 16C13.6562 16 15 14.6562 15 13C15 11.625 14.075 10.4656 12.8125 10.1125L13.7375 9.31875C14.0531 9.05 14.0875 8.575 13.8188 8.2625C13.55 7.95 13.075 7.9125 12.7625 8.18125L10.2125 10.3688C9.44375 11.025 9 11.9875 9 13Z" fill="black"/>
</svg>
