<svg width="24" height="24" viewBox="0 0 24 24" fill="none" xmlns="http://www.w3.org/2000/svg">
<path d="M11.9999 18C16.4187 18 19.9999 15.0906 19.9999 11.5C19.9999 7.90937 16.4187 5 11.9999 5C7.58116 5 3.99991 7.90937 3.99991 11.5C3.99991 12.9094 4.55304 14.2125 5.49054 15.2781C5.43116 16.0437 5.13429 16.725 4.82179 17.2437C4.64991 17.5312 4.47491 17.7625 4.34679 17.9187C4.28116 17.9969 4.23116 18.0563 4.19366 18.0969C4.17491 18.1156 4.16241 18.1312 4.15304 18.1406L4.14366 18.15C3.99991 18.2937 3.95929 18.5063 4.03741 18.6938C4.11554 18.8813 4.29679 19.0031 4.49991 19.0031C5.39679 19.0031 6.29991 18.725 7.04991 18.4C7.76554 18.0875 8.37491 17.7156 8.74679 17.4438C9.74054 17.8031 10.8405 18.0031 11.9999 18.0031V18ZM10.2499 9H13.7499C14.1655 9 14.4999 9.33437 14.4999 9.75V13.25C14.4999 13.6656 14.1655 14 13.7499 14C13.3343 14 12.9999 13.6656 12.9999 13.25V11.5594L10.2812 14.2781C9.98741 14.5719 9.51241 14.5719 9.22179 14.2781C8.93116 13.9844 8.92804 13.5094 9.22179 13.2188L11.9405 10.5H10.2499C9.83429 10.5 9.49991 10.1656 9.49991 9.75C9.49991 9.33437 9.83429 9 10.2499 9Z" fill="black"/>
</svg>
