<svg width="24" height="24" viewBox="0 0 24 24" fill="none" xmlns="http://www.w3.org/2000/svg">
<path d="M13 4C13.5531 4 14 4.44687 14 5V6.08437C14.9656 6.24687 15.85 6.6375 16.6 7.20312C17.0406 7.53437 17.1313 8.1625 16.8 8.60313C16.4688 9.04375 15.8406 9.13438 15.4 8.80312C14.7312 8.29688 13.9031 8 13 8C10.7906 8 9 9.79063 9 12C9 14.2094 10.7906 16 13 16C13.9031 16 14.7312 15.7031 15.4 15.2C15.8406 14.8687 16.4688 14.9562 16.8 15.4C17.1313 15.8438 17.0438 16.4688 16.6 16.8C15.85 17.3625 14.9625 17.7562 14 17.9187V19C14 19.5531 13.5531 20 13 20C12.4469 20 12 19.5531 12 19V17.9156C9.1625 17.4406 7 14.9719 7 12C7 9.02812 9.1625 6.55937 12 6.08437V5C12 4.44687 12.4469 4 13 4Z" fill="black"/>
</svg>
