<svg width="24" height="24" viewBox="0 0 24 24" fill="none" xmlns="http://www.w3.org/2000/svg">
<path d="M13.5 11.5C14.1062 11.0437 14.5 10.3188 14.5 9.5C14.5 8.11875 13.3813 7 12 7C10.6187 7 9.5 8.11875 9.5 9.5C9.5 10.3188 9.89375 11.0437 10.5 11.5H10.25C9.83437 11.5 9.5 11.8344 9.5 12.25C9.5 12.6656 9.83437 13 10.25 13H10.4281L10 16H14L13.5719 13H13.75C14.1656 13 14.5 12.6656 14.5 12.25C14.5 11.8344 14.1656 11.5 13.75 11.5H13.5ZM8.15 18.8C8.05313 18.9313 8 19.0875 8 19.25C8 19.6656 8.33437 20 8.75 20H15.25C15.6656 20 16 19.6656 16 19.25C16 19.0875 15.9469 18.9313 15.85 18.8L14.5 17H9.5L8.15 18.8Z" fill="black"/>
</svg>
