<svg width="24" height="24" viewBox="0 0 24 24" fill="none" xmlns="http://www.w3.org/2000/svg">
<path d="M5 6C5 4.89688 5.89688 4 7 4H17C18.1031 4 19 4.89688 19 6V15C19 16.1031 18.1031 17 17 17H14.6875L16.5312 18.1531C16.9094 18.3906 17.0844 18.8469 16.9625 19.2781C16.8406 19.7094 16.4469 20 16 20H8C7.55312 20 7.1625 19.7031 7.0375 19.275C6.9125 18.8469 7.09062 18.3875 7.46875 18.15L9.3125 17H7C5.89688 17 5 16.1031 5 15V6ZM9 10.5C9 10.106 9.0776 9.71593 9.22836 9.35195C9.37913 8.98797 9.6001 8.65726 9.87868 8.37868C10.1573 8.1001 10.488 7.87913 10.8519 7.72836C11.2159 7.5776 11.606 7.5 12 7.5C12.394 7.5 12.7841 7.5776 13.1481 7.72836C13.512 7.87913 13.8427 8.1001 14.1213 8.37868C14.3999 8.65726 14.6209 8.98797 14.7716 9.35195C14.9224 9.71593 15 10.106 15 10.5C15 10.894 14.9224 11.2841 14.7716 11.6481C14.6209 12.012 14.3999 12.3427 14.1213 12.6213C13.8427 12.8999 13.512 13.1209 13.1481 13.2716C12.7841 13.4224 12.394 13.5 12 13.5C11.606 13.5 11.2159 13.4224 10.8519 13.2716C10.488 13.1209 10.1573 12.8999 9.87868 12.6213C9.6001 12.3427 9.37913 12.012 9.22836 11.6481C9.0776 11.2841 9 10.894 9 10.5ZM16 10.5C16 9.43913 15.5786 8.42172 14.8284 7.67157C14.0783 6.92143 13.0609 6.5 12 6.5C10.9391 6.5 9.92172 6.92143 9.17157 7.67157C8.42143 8.42172 8 9.43913 8 10.5C8 11.5609 8.42143 12.5783 9.17157 13.3284C9.92172 14.0786 10.9391 14.5 12 14.5C13.0609 14.5 14.0783 14.0786 14.8284 13.3284C15.5786 12.5783 16 11.5609 16 10.5Z" fill="black"/>
</svg>
