<svg width="24" height="24" viewBox="0 0 24 24" fill="none" xmlns="http://www.w3.org/2000/svg">
<path d="M15.875 9.00313C15.9563 8.68438 16 8.34688 16 8C16 5.79063 14.2094 4 12 4C9.79063 4 8 5.79063 8 8C8 8.34688 8.04375 8.68125 8.125 9.00313C8.08437 9.00313 8.04063 9 8 9C5.79063 9 4 10.7906 4 13C4 15.2094 5.79063 17 8 17C9.19375 17 10.2656 16.475 11 15.6469V18H10C9.44688 18 9 18.4469 9 19C9 19.5531 9.44688 20 10 20H14C14.5531 20 15 19.5531 15 19C15 18.4469 14.5531 18 14 18H13V15.6469C13.7344 16.4781 14.8062 17 16 17C18.2094 17 20 15.2094 20 13C20 10.7906 18.2094 9 16 9C15.9563 9 15.9156 9 15.875 9.00313Z" fill="black"/>
</svg>
