<svg width="24" height="24" viewBox="0 0 24 24" fill="none" xmlns="http://www.w3.org/2000/svg">
<path d="M13.5001 4C13.022 4 12.5939 4.225 12.322 4.57187L2.10638 19.1906C1.93451 19.4062 1.97201 19.7219 2.19076 19.8938C2.40951 20.0656 2.72201 20.025 2.89388 19.8094L14.6783 6.42812C14.8814 6.17188 15.0001 5.85 15.0001 5.5C15.0001 4.67188 14.3283 4 13.5001 4ZM6.12201 19.825C6.30326 20.0344 6.61888 20.0594 6.82826 19.8781L21.4751 8.6375C21.797 8.3625 22.0001 7.95312 22.0001 7.5C22.0001 6.67188 21.3283 6 20.5001 6C20.1283 6 19.7876 6.1375 19.5251 6.3625L6.17513 19.1219C5.96576 19.3031 5.94076 19.6156 6.12201 19.8281V19.825Z" fill="black"/>
</svg>
