<svg width="24" height="24" viewBox="0 0 24 24" fill="none" xmlns="http://www.w3.org/2000/svg">
<path d="M12 18C16.4188 18 20 15.0906 20 11.5C20 7.90937 16.4188 5 12 5C7.58129 5 4.00004 7.90937 4.00004 11.5C4.00004 12.9094 4.55316 14.2125 5.49066 15.2781C5.43129 16.0437 5.13441 16.725 4.82191 17.2437C4.65004 17.5312 4.47504 17.7625 4.34691 17.9187C4.28129 17.9969 4.23129 18.0563 4.19379 18.0969C4.17504 18.1156 4.16254 18.1312 4.15316 18.1406L4.14379 18.15C4.00004 18.2937 3.95941 18.5063 4.03754 18.6938C4.11566 18.8813 4.29691 19.0031 4.50004 19.0031C5.39691 19.0031 6.30004 18.725 7.05004 18.4C7.76566 18.0875 8.37504 17.7156 8.74691 17.4438C9.74066 17.8031 10.8407 18.0031 12 18.0031V18ZM11.25 14.25V12.25H9.25004C8.83441 12.25 8.50004 11.9156 8.50004 11.5C8.50004 11.0844 8.83441 10.75 9.25004 10.75H11.25V8.75C11.25 8.33437 11.5844 8 12 8C12.4157 8 12.75 8.33437 12.75 8.75V10.75H14.75C15.1657 10.75 15.5 11.0844 15.5 11.5C15.5 11.9156 15.1657 12.25 14.75 12.25H12.75V14.25C12.75 14.6656 12.4157 15 12 15C11.5844 15 11.25 14.6656 11.25 14.25Z" fill="black"/>
</svg>
