<svg width="24" height="24" viewBox="0 0 24 24" fill="none" xmlns="http://www.w3.org/2000/svg">
<path d="M16.7063 4.2937L21.7063 9.2937C22.0969 9.68433 22.0969 10.3187 21.7063 10.7093C21.3156 11.1 20.6813 11.1 20.2906 10.7093L15.2906 5.70933C14.9 5.3187 14.9 4.68433 15.2906 4.2937C15.6813 3.90308 16.3156 3.90308 16.7063 4.2937ZM11.2063 9.8812L14.6281 6.4562L16.0438 7.87183L14.4156 9.49995L16.5 11.5843L18.1281 9.9562L19.5438 11.3718L17.2125 13.7031L17.2094 13.7062L17.2063 13.7093L16.1219 14.7937C15.7188 15.1968 15.2094 15.4781 14.65 15.6L11.2844 16.35C11.1 16.3906 10.9281 16.4843 10.7938 16.6187L7.70627 19.7062C7.31565 20.0968 6.68127 20.0968 6.29065 19.7062C5.90002 19.3156 5.90002 18.6812 6.29065 18.2906L9.37815 15.2031C9.51252 15.0687 9.60627 14.9 9.6469 14.7125L10.3938 11.35C10.5188 10.7937 10.7969 10.2843 11.2 9.87808L11.2063 9.8812ZM12.6219 11.2968C12.4875 11.4312 12.3938 11.6 12.3531 11.7875L11.8219 14.1843L14.2188 13.6531C14.4031 13.6125 14.575 13.5187 14.7094 13.3843L15.0844 13L13 10.9156L12.6188 11.2968H12.6219ZM7.29377 4.2937C7.6844 3.90308 8.31877 3.90308 8.7094 4.2937C9.10002 4.68433 9.10002 5.3187 8.7094 5.70933L8.66565 5.74995L11.2938 8.37808L10.5 9.17183C10.2906 9.3812 10.1063 9.61245 9.95002 9.85933L7.25002 7.16558L5.16565 9.24995L8.99065 13.075L8.67502 14.4968L8.14377 15.0281C8.05315 14.9562 7.96565 14.8781 7.88127 14.7937L3.75002 10.6656L3.70627 10.7093C3.31565 11.1 2.68127 11.1 2.29065 10.7093C1.90002 10.3187 1.90002 9.68433 2.29065 9.2937L7.29065 4.2937H7.29377ZM14.8657 16.5781C15.1563 16.5125 15.4375 16.4156 15.7063 16.2906L17.7094 18.2937C18.1 18.6843 18.1 19.3187 17.7094 19.7093C17.3188 20.1 16.6844 20.1 16.2938 19.7093L13.475 16.8906L14.8657 16.5812V16.5781Z" fill="black"/>
</svg>
