<svg width="24" height="24" viewBox="0 0 24 24" fill="none" xmlns="http://www.w3.org/2000/svg">
<path d="M12.7063 18.7062C12.3156 19.0969 11.6813 19.0969 11.2906 18.7062L5.29065 12.7062C4.90002 12.3156 4.90002 11.6812 5.29065 11.2906C5.68127 10.9 6.31565 10.9 6.70627 11.2906L12 16.5844L17.2938 11.2937C17.6844 10.9031 18.3188 10.9031 18.7094 11.2937C19.1 11.6844 19.1 12.3187 18.7094 12.7094L12.7094 18.7094L12.7063 18.7062ZM18.7063 6.70624L12.7063 12.7062C12.3156 13.0969 11.6813 13.0969 11.2906 12.7062L5.29065 6.70624C4.90002 6.31562 4.90002 5.68124 5.29065 5.29062C5.68127 4.89999 6.31565 4.89999 6.70627 5.29062L12 10.5844L17.2938 5.29374C17.6844 4.90312 18.3188 4.90312 18.7094 5.29374C19.1 5.68437 19.1 6.31874 18.7094 6.70937L18.7063 6.70624Z" fill="black"/>
</svg>
