<svg width="24" height="24" viewBox="0 0 24 24" fill="none" xmlns="http://www.w3.org/2000/svg">
<path d="M11.25 4.75C11.25 4.55109 11.329 4.36032 11.4697 4.21967C11.6103 4.07902 11.8011 4 12 4C12.1989 4 12.3897 4.07902 12.5303 4.21967C12.671 4.36032 12.75 4.55109 12.75 4.75C12.75 4.94891 12.671 5.13968 12.5303 5.28033C12.3897 5.42098 12.1989 5.5 12 5.5C11.8011 5.5 11.6103 5.42098 11.4697 5.28033C11.329 5.13968 11.25 4.94891 11.25 4.75ZM15.1844 7.90313L13.8875 10.0125C14.2375 10.0781 14.5 10.3812 14.5 10.75C14.5 11.1656 14.1656 11.5 13.75 11.5H13.5L14.1125 16H9.8875L10.5 11.5H10.25C9.83438 11.5 9.5 11.1656 9.5 10.75C9.5 10.3812 9.76562 10.0781 10.1125 10.0125L8.81563 7.90313C8.7 7.71563 8.72188 7.47813 8.86563 7.3125C9.00937 7.14687 9.24375 7.09687 9.44687 7.18438C9.54062 7.225 9.64375 7.25 9.75312 7.25C10.1219 7.25 10.4281 6.98438 10.4906 6.63438C10.525 6.4375 10.6781 6.27813 10.875 6.23438C11.0719 6.19062 11.275 6.26875 11.3906 6.43438C11.525 6.625 11.7469 6.75 12 6.75C12.2531 6.75 12.475 6.625 12.6125 6.43438C12.7281 6.26875 12.9313 6.19062 13.1281 6.23438C13.325 6.27813 13.475 6.43438 13.5125 6.63438C13.575 6.98438 13.8812 7.25 14.25 7.25C14.3594 7.25 14.4625 7.22813 14.5563 7.18438C14.7562 7.09375 14.9906 7.14687 15.1375 7.3125C15.2844 7.47813 15.3031 7.71875 15.1875 7.90313H15.1844ZM14.5 17L15.85 18.8C15.9469 18.9313 16 19.0875 16 19.25C16 19.6656 15.6656 20 15.25 20H8.75C8.33437 20 8 19.6656 8 19.25C8 19.0875 8.05313 18.9313 8.15 18.8L9.5 17H14.5Z" fill="black"/>
</svg>
