<svg width="24" height="24" viewBox="0 0 24 24" fill="none" xmlns="http://www.w3.org/2000/svg">
<path d="M19.706 4.29375C20.0967 4.68437 20.0967 5.31875 19.706 5.70938L15.4873 9.92812L16.781 11.2188C16.9217 11.3594 16.9998 11.55 16.9998 11.75C16.9998 11.95 16.9217 12.1406 16.781 12.2812L16.0623 13H11.4998C11.2248 13 10.9998 12.775 10.9998 12.5V7.94062L11.7185 7.22187C12.0123 6.92812 12.4873 6.92812 12.7779 7.22187L14.0717 8.51562L18.2904 4.29688C18.681 3.90625 19.3154 3.90625 19.706 4.29688V4.29375ZM14.9998 17.5C14.9998 16.837 15.2632 16.2011 15.732 15.7322C16.2009 15.2634 16.8367 15 17.4998 15C18.1628 15 18.7987 15.2634 19.2675 15.7322C19.7364 16.2011 19.9998 16.837 19.9998 17.5C19.9998 18.163 19.7364 18.7989 19.2675 19.2678C18.7987 19.7366 18.1628 20 17.4998 20C16.8367 20 16.2009 19.7366 15.732 19.2678C15.2632 18.7989 14.9998 18.163 14.9998 17.5ZM4.50291 14.4375L9.99978 8.94063V12.5C9.99978 13.3281 10.6717 14 11.4998 14H15.0592L9.56228 19.4969C9.24978 19.8094 8.79978 20.0187 8.29978 19.9844C7.94666 19.9594 7.40603 19.8969 6.84978 19.7281C6.30916 19.5687 5.69041 19.2844 5.21853 18.7812C4.71228 18.3125 4.43103 17.6906 4.26853 17.15C4.09978 16.5938 4.03728 16.0531 4.01541 15.7C3.98103 15.2 4.19041 14.75 4.50291 14.4375Z" fill="black"/>
</svg>
