<svg width="24" height="24" viewBox="0 0 24 24" fill="none" xmlns="http://www.w3.org/2000/svg">
<path d="M12 20C14.1217 20 16.1566 19.1571 17.6569 17.6569C19.1571 16.1566 20 14.1217 20 12C20 9.87827 19.1571 7.84344 17.6569 6.34315C16.1566 4.84285 14.1217 4 12 4C9.87827 4 7.84344 4.84285 6.34315 6.34315C4.84285 7.84344 4 9.87827 4 12C4 14.1217 4.84285 16.1566 6.34315 17.6569C7.84344 19.1571 9.87827 20 12 20ZM8 10C8 9.44688 8.44688 9 9 9H15C15.5531 9 16 9.44688 16 10V10.2906L12.2719 11.9875C12.1875 12.025 12.0938 12.0469 12 12.0469C11.9062 12.0469 11.8156 12.0281 11.7281 11.9875L8 10.2906V10ZM12.6844 12.8969L16 11.3906V14C16 14.5531 15.5531 15 15 15H9C8.44688 15 8 14.5531 8 14V11.3906L11.3156 12.9C11.5312 12.9969 11.7625 13.05 12 13.05C12.2375 13.05 12.4688 13 12.6844 12.9V12.8969Z" fill="black"/>
</svg>
