<svg width="24" height="24" viewBox="0 0 24 24" fill="none" xmlns="http://www.w3.org/2000/svg">
<path d="M6.53436 7.76914L11.1375 6.53789C11.5344 6.43164 11.9594 6.57852 12.2031 6.91289L13.3844 8.52539L5.58124 10.6129L5.79999 8.62539C5.84374 8.21602 6.13749 7.87539 6.53436 7.76914ZM3.81249 8.40977L3.49374 11.3191C2.85624 11.7941 2.53749 12.6254 2.75624 13.441L3.79061 17.3066L4.17811 18.7566C4.32186 19.291 4.86874 19.6066 5.40311 19.4629L6.36874 19.2035C6.90311 19.0598 7.21874 18.5129 7.07499 17.9785L6.68749 16.5285L15.3812 14.2004L15.7687 15.6504C15.9125 16.1848 16.4594 16.5004 16.9937 16.3566L17.9594 16.0973C18.4937 15.9535 18.8094 15.4066 18.6656 14.8723L18.2812 13.4223L17.2437 9.55977C17.025 8.74414 16.3344 8.18164 15.5437 8.09102L13.8156 5.72852C13.0844 4.73164 11.8156 4.28477 10.6187 4.60352L6.01561 5.83789C4.82186 6.15977 3.94686 7.17852 3.81249 8.40977ZM5.65311 12.666C5.78072 12.6294 5.91435 12.6185 6.0462 12.6341C6.17804 12.6496 6.30547 12.6913 6.42105 12.7566C6.53663 12.8219 6.63805 12.9096 6.71938 13.0146C6.80072 13.1195 6.86034 13.2396 6.89478 13.3678C6.92922 13.496 6.93779 13.6298 6.91998 13.7614C6.90217 13.8929 6.85834 14.0196 6.79104 14.1341C6.72375 14.2485 6.63434 14.3484 6.52804 14.4279C6.42173 14.5075 6.30065 14.565 6.17186 14.5973C6.04425 14.6339 5.91063 14.6447 5.77878 14.6292C5.64693 14.6136 5.5195 14.572 5.40392 14.5067C5.28834 14.4413 5.18693 14.3537 5.10559 14.2487C5.02426 14.1438 4.96463 14.0237 4.93019 13.8955C4.89575 13.7673 4.88719 13.6335 4.905 13.5019C4.92281 13.3704 4.96664 13.2437 5.03393 13.1292C5.10122 13.0148 5.19063 12.9149 5.29694 12.8353C5.40325 12.7558 5.52432 12.6983 5.65311 12.666ZM13.6406 11.5629C13.604 11.4353 13.5931 11.3017 13.6087 11.1698C13.6242 11.038 13.6659 10.9105 13.7312 10.795C13.7965 10.6794 13.8842 10.578 13.9892 10.4966C14.0941 10.4153 14.2142 10.3557 14.3424 10.3212C14.4706 10.2868 14.6044 10.2782 14.736 10.296C14.8675 10.3138 14.9942 10.3577 15.1087 10.425C15.2231 10.4923 15.323 10.5817 15.4025 10.688C15.4821 10.7943 15.5396 10.9154 15.5719 11.0441C15.6085 11.1718 15.6193 11.3054 15.6038 11.4372C15.5882 11.5691 15.5466 11.6965 15.4813 11.8121C15.4159 11.9277 15.3282 12.0291 15.2233 12.1104C15.1184 12.1917 14.9983 12.2514 14.8701 12.2858C14.7419 12.3203 14.6081 12.3288 14.4765 12.311C14.345 12.2932 14.2183 12.2494 14.1038 12.1821C13.9894 12.1148 13.8895 12.0254 13.8099 11.9191C13.7304 11.8128 13.6729 11.6917 13.6406 11.5629ZM20.275 20.0004C20.8844 20.0004 21.3594 19.4473 21.0812 18.9066C20.5 17.7754 19.3219 17.0004 17.9656 17.0004C16.6094 17.0004 15.4281 17.7754 14.85 18.9066C14.5719 19.4473 15.0469 20.0004 15.6562 20.0004H20.275Z" fill="black"/>
</svg>
