<svg width="24" height="24" viewBox="0 0 24 24" fill="none" xmlns="http://www.w3.org/2000/svg">
<path d="M20 5.25C20 5.71875 19.7407 6.12812 19.3594 6.34063C19.6 6.56875 19.75 6.89375 19.75 7.25C19.75 7.8125 19.3813 8.2875 18.8688 8.44375C18.9532 8.6125 19 8.8 19 9C19 9.5625 18.6313 10.0375 18.1188 10.1937C18.2032 10.3625 18.25 10.55 18.25 10.75C18.25 11.4406 17.6907 12 17 12C16.9657 12 16.9282 12 16.8938 11.9969C16.9625 12.15 17 12.3219 17 12.5C17 12.925 16.7875 13.3031 16.4594 13.5281C14.9688 12.6 13.2219 12.2438 11.5375 12.4594C11.7532 10.775 11.3969 9.02812 10.4688 7.5375C10.6969 7.2125 11.075 7 11.5 7C11.6782 7 11.85 7.0375 12.0032 7.10625C12 7.07188 12 7.0375 12 7C12 6.30938 12.5594 5.75 13.25 5.75C13.45 5.75 13.6375 5.79688 13.8063 5.88125C13.9625 5.36875 14.4375 5 15 5C15.2 5 15.3875 5.04688 15.5563 5.13125C15.7125 4.61875 16.1875 4.25 16.75 4.25C17.1063 4.25 17.4313 4.4 17.6594 4.64062C17.8719 4.25938 18.2813 4 18.75 4C19.4407 4 20 4.55937 20 5.25ZM8.30316 7.0625C8.34066 6.86562 8.58129 6.79062 8.71566 6.94062C10.1344 8.51875 10.8875 10.5031 10.4938 12.6719C9.28441 13.0063 8.14379 13.6469 7.19691 14.5969L4.77816 17.0156C3.70941 15.8375 3.74379 14.0156 4.87816 12.8781L6.87816 10.8781C7.45004 10.3063 7.83441 9.575 7.98129 8.78125L8.30316 7.0625ZM6.87816 19.1219L5.48129 17.725L7.90316 15.3031C8.79691 14.4094 9.88754 13.8313 11.0313 13.5656C13.2875 13.0469 15.4 13.7969 17.0563 15.2844C17.2063 15.4187 17.1313 15.6625 16.9344 15.6969L15.2188 16.0156C14.425 16.1625 13.6938 16.5469 13.1219 17.1187L11.1219 19.1187C9.95004 20.2906 8.05004 20.2906 6.87816 19.1187V19.1219Z" fill="black"/>
</svg>
