<svg width="24" height="24" viewBox="0 0 24 24" fill="none" xmlns="http://www.w3.org/2000/svg">
<path d="M15 12C15 16.4187 12.9844 20 10.5 20C8.01562 20 6 16.4187 6 12C6 7.58125 8.01562 4 10.5 4C12.9844 4 15 7.58125 15 12ZM11.7562 17.2937C12.1125 16.9187 12.3844 16.4281 12.5938 15.9062C13.0125 14.8562 13.25 13.475 13.25 12C13.25 10.525 13.0125 9.14375 12.5938 8.09375C12.3844 7.57188 12.1125 7.08125 11.7562 6.70625C11.3969 6.32812 10.8906 6 10.25 6C9.60938 6 9.10313 6.32812 8.74375 6.70625C8.39062 7.08125 8.11562 7.57188 7.90625 8.09375C7.4875 9.14375 7.25 10.525 7.25 12C7.25 13.475 7.4875 14.8562 7.90625 15.9062C8.11562 16.4281 8.3875 16.9187 8.74375 17.2937C9.10313 17.6719 9.60938 18 10.25 18C10.8906 18 11.3969 17.6719 11.7562 17.2937ZM10.25 17C9.14687 17 8.25 14.7625 8.25 12C8.25 9.2375 9.14687 7 10.25 7C11.3531 7 12.25 9.2375 12.25 12C12.25 14.7625 11.3531 17 10.25 17ZM13.0656 20C13.5531 19.5875 13.9812 19.0719 14.3438 18.5H16.3344C15.6781 19.4438 14.8719 20 14.0031 20H13.0656ZM16.9062 17.5H14.8844C15.2969 16.6125 15.6031 15.5969 15.7906 14.5H17.8C17.6125 15.6313 17.3031 16.6531 16.9031 17.5H16.9062ZM17.9312 13.5H15.925C15.975 13.0094 16 12.5094 16 12C16 11.4906 15.975 10.9906 15.925 10.5H17.9281C17.975 10.9844 17.9969 11.4875 17.9969 12C17.9969 12.5125 17.9719 13.0156 17.9281 13.5H17.9312ZM17.8031 9.5H15.7906C15.6031 8.40312 15.2937 7.3875 14.8844 6.5H16.9062C17.3062 7.34687 17.6156 8.36875 17.8031 9.5ZM16.3344 5.5H14.3438C13.9844 4.92813 13.5563 4.4125 13.0656 4H14C14.8719 4 15.675 4.55625 16.3313 5.5H16.3344Z" fill="black"/>
</svg>
