<svg width="24" height="24" viewBox="0 0 24 24" fill="none" xmlns="http://www.w3.org/2000/svg">
<path d="M20 12C20 9.87827 19.1571 7.84344 17.6569 6.34315C16.1566 4.84285 14.1217 4 12 4C9.87827 4 7.84344 4.84285 6.34315 6.34315C4.84285 7.84344 4 9.87827 4 12C4 14.1217 4.84285 16.1566 6.34315 17.6569C7.84344 19.1571 9.87827 20 12 20C14.1217 20 16.1566 19.1571 17.6569 17.6569C19.1571 16.1566 20 14.1217 20 12ZM8.5 12C8.5 11.7906 8.5875 11.5937 8.74062 11.45L12.2406 8.2C12.4594 7.99687 12.7781 7.94375 13.05 8.0625C13.3219 8.18125 13.5 8.45312 13.5 8.75V15.25C13.5 15.5469 13.3219 15.8188 13.05 15.9375C12.7781 16.0562 12.4594 16.0031 12.2406 15.8L8.74062 12.55C8.5875 12.4094 8.5 12.2094 8.5 12Z" fill="black"/>
</svg>
