<svg width="24" height="24" viewBox="0 0 24 24" fill="none" xmlns="http://www.w3.org/2000/svg">
<path d="M13.9688 5.24379C14.1031 4.70941 13.7781 4.16566 13.2406 4.03129C12.7031 3.89691 12.1625 4.22191 12.0312 4.75629L11.6844 6.14379C9.00312 6.74379 7 9.13754 7 12C7 13.8157 7.80625 15.4438 9.08437 16.5438L8.53125 18.7563C8.39688 19.2907 8.72188 19.8344 9.25938 19.9688C9.79688 20.1032 10.3375 19.7782 10.4719 19.2407L10.8781 17.6125C11.1594 17.7188 11.4531 17.8063 11.7531 17.8688L11.5312 18.7563C11.3969 19.2907 11.7219 19.8344 12.2594 19.9688C12.7969 20.1032 13.3375 19.7782 13.4719 19.2407L13.7969 17.9469C14.8406 17.8094 15.8 17.4032 16.6031 16.8C17.0437 16.4688 17.1344 15.8407 16.8031 15.4C16.4719 14.9594 15.8438 14.8688 15.4031 15.2C15.0844 15.4407 14.725 15.6344 14.3406 15.7719L16.0312 9.00004C16.325 8.99066 16.6094 8.85316 16.8 8.60004C17.1313 8.15941 17.0438 7.53129 16.6 7.20004C16.5656 7.17504 16.5312 7.15004 16.4969 7.12504L16.9688 5.24379C17.1031 4.70941 16.7781 4.16566 16.2406 4.03129C15.7031 3.89691 15.1625 4.22191 15.0312 4.75629L14.6625 6.23441C14.3719 6.15004 14.075 6.09066 13.7688 6.05004L13.9688 5.24379ZM11.1 8.47816L9.66563 14.2125C9.24688 13.5782 9 12.8188 9 12C9 10.4782 9.85 9.15629 11.1 8.47816ZM11.3688 15.65L13.2781 8.00629C13.5875 8.02816 13.8875 8.08441 14.175 8.17191L12.2375 15.925C11.9344 15.8657 11.6438 15.775 11.3688 15.65Z" fill="black"/>
</svg>
