<svg width="24" height="24" viewBox="0 0 24 24" fill="none" xmlns="http://www.w3.org/2000/svg">
<path d="M7.5 7.25C7.69891 7.25 7.88968 7.17098 8.03033 7.03033C8.17098 6.88968 8.25 6.69891 8.25 6.5C8.25 6.30109 8.17098 6.11032 8.03033 5.96967C7.88968 5.82902 7.69891 5.75 7.5 5.75C7.30109 5.75 7.11032 5.82902 6.96967 5.96967C6.82902 6.11032 6.75 6.30109 6.75 6.5C6.75 6.69891 6.82902 6.88968 6.96967 7.03033C7.11032 7.17098 7.30109 7.25 7.5 7.25ZM10 6.5C10 7.525 9.38437 8.40625 8.5 8.79063V10C8.5 10.5531 8.94687 11 9.5 11H14.5C15.0531 11 15.5 10.5531 15.5 10V8.79063C14.6156 8.40625 14 7.525 14 6.5C14 5.11875 15.1187 4 16.5 4C17.8813 4 19 5.11875 19 6.5C19 7.525 18.3844 8.40625 17.5 8.79063V10C17.5 11.6562 16.1562 13 14.5 13H13V15.2094C13.8844 15.5938 14.5 16.475 14.5 17.5C14.5 18.8813 13.3813 20 12 20C10.6187 20 9.5 18.8813 9.5 17.5C9.5 16.475 10.1156 15.5938 11 15.2094V13H9.5C7.84375 13 6.5 11.6562 6.5 10V8.79063C5.61563 8.40625 5 7.525 5 6.5C5 5.11875 6.11875 4 7.5 4C8.88125 4 10 5.11875 10 6.5ZM16.5 7.25C16.6989 7.25 16.8897 7.17098 17.0303 7.03033C17.171 6.88968 17.25 6.69891 17.25 6.5C17.25 6.30109 17.171 6.11032 17.0303 5.96967C16.8897 5.82902 16.6989 5.75 16.5 5.75C16.3011 5.75 16.1103 5.82902 15.9697 5.96967C15.829 6.11032 15.75 6.30109 15.75 6.5C15.75 6.69891 15.829 6.88968 15.9697 7.03033C16.1103 7.17098 16.3011 7.25 16.5 7.25ZM12.75 17.5C12.75 17.3011 12.671 17.1103 12.5303 16.9697C12.3897 16.829 12.1989 16.75 12 16.75C11.8011 16.75 11.6103 16.829 11.4697 16.9697C11.329 17.1103 11.25 17.3011 11.25 17.5C11.25 17.6989 11.329 17.8897 11.4697 18.0303C11.6103 18.171 11.8011 18.25 12 18.25C12.1989 18.25 12.3897 18.171 12.5303 18.0303C12.671 17.8897 12.75 17.6989 12.75 17.5Z" fill="black"/>
</svg>
