<svg width="24" height="24" viewBox="0 0 24 24" fill="none" xmlns="http://www.w3.org/2000/svg">
<path d="M6.5 19C4.01562 19 2 16.9844 2 14.5C2 12.5375 3.25625 10.8688 5.00625 10.2531C5.00312 10.1688 5 10.0844 5 10C5 7.2375 7.2375 5 10 5C11.8531 5 13.4688 6.00625 14.3344 7.50625C14.8094 7.1875 15.3844 7 16 7C17.6562 7 19 8.34375 19 10C19 10.3812 18.9281 10.7438 18.8 11.0813C20.625 11.45 22 13.0656 22 15C22 17.2094 20.2094 19 18 19H6.5ZM7 10.25V11.25C7 11.9406 7.55937 12.5 8.25 12.5H8.75C9.44063 12.5 10 11.9406 10 11.25V10.25C10 9.55937 9.44063 9 8.75 9H8.25C7.55937 9 7 9.55937 7 10.25ZM8.25 10H8.75C8.8875 10 9 10.1125 9 10.25V11.25C9 11.3875 8.8875 11.5 8.75 11.5H8.25C8.1125 11.5 8 11.3875 8 11.25V10.25C8 10.1125 8.1125 10 8.25 10ZM11 9.5C11 9.775 11.225 10 11.5 10V12C11.5 12.275 11.725 12.5 12 12.5C12.275 12.5 12.5 12.275 12.5 12V9.5C12.5 9.225 12.275 9 12 9H11.5C11.225 9 11 9.225 11 9.5ZM15.25 9C14.5594 9 14 9.55937 14 10.25V11.25C14 11.9406 14.5594 12.5 15.25 12.5H15.75C16.4406 12.5 17 11.9406 17 11.25V10.25C17 9.55937 16.4406 9 15.75 9H15.25ZM15 10.25C15 10.1125 15.1125 10 15.25 10H15.75C15.8875 10 16 10.1125 16 10.25V11.25C16 11.3875 15.8875 11.5 15.75 11.5H15.25C15.1125 11.5 15 11.3875 15 11.25V10.25ZM7.5 14C7.5 14.275 7.725 14.5 8 14.5V16.5C8 16.775 8.225 17 8.5 17C8.775 17 9 16.775 9 16.5V14C9 13.725 8.775 13.5 8.5 13.5H8C7.725 13.5 7.5 13.725 7.5 14ZM10.5 14.75V15.75C10.5 16.4406 11.0594 17 11.75 17H12.25C12.9406 17 13.5 16.4406 13.5 15.75V14.75C13.5 14.0594 12.9406 13.5 12.25 13.5H11.75C11.0594 13.5 10.5 14.0594 10.5 14.75ZM11.75 14.5H12.25C12.3875 14.5 12.5 14.6125 12.5 14.75V15.75C12.5 15.8875 12.3875 16 12.25 16H11.75C11.6125 16 11.5 15.8875 11.5 15.75V14.75C11.5 14.6125 11.6125 14.5 11.75 14.5ZM15 13.5C14.725 13.5 14.5 13.725 14.5 14C14.5 14.275 14.725 14.5 15 14.5V16.5C15 16.775 15.225 17 15.5 17C15.775 17 16 16.775 16 16.5V14C16 13.725 15.775 13.5 15.5 13.5H15Z" fill="black"/>
</svg>
