<svg width="24" height="24" viewBox="0 0 24 24" fill="none" xmlns="http://www.w3.org/2000/svg">
<path d="M8.8 7.20001L8.58438 7.41564C8.20938 7.79064 8 8.30001 8 8.83126V11.3688C8 11.7031 8.16563 12.0156 8.44375 12.2L8.55313 12.275C8.95 12.5406 9.4625 12.5719 9.89062 12.3594C9.9625 12.325 10.0312 12.2813 10.0938 12.2344L11.3063 11.325C11.4781 11.1969 11.7156 11.1969 11.8875 11.325C12.1437 11.5156 12.1469 11.9 11.8938 12.0969L9.53125 13.9063C8.88125 14.4063 8.5 15.1781 8.5 16H15.5L16.3406 12.6375C16.4469 12.2125 16.5 11.7781 16.5 11.3406C16.5 8.39064 14.1094 5.99689 11.1562 5.99689H8.49375C8.22187 6.00001 8 6.22189 8 6.49376C8 6.68126 8.10625 6.85314 8.27188 6.93751L8.8 7.20001ZM9.4 8.90001C9.4 8.7674 9.45268 8.64023 9.54645 8.54646C9.64021 8.45269 9.76739 8.40001 9.9 8.40001C10.0326 8.40001 10.1598 8.45269 10.2536 8.54646C10.3473 8.64023 10.4 8.7674 10.4 8.90001C10.4 9.03262 10.3473 9.1598 10.2536 9.25357C10.1598 9.34733 10.0326 9.40001 9.9 9.40001C9.76739 9.40001 9.64021 9.34733 9.54645 9.25357C9.45268 9.1598 9.4 9.03262 9.4 8.90001ZM8.5 17L7.15 18.8C7.05313 18.9313 7 19.0875 7 19.25C7 19.6656 7.33437 20 7.75 20H16.25C16.6656 20 17 19.6656 17 19.25C17 19.0875 16.9469 18.9313 16.85 18.8L15.5 17H8.5Z" fill="black"/>
</svg>
