<svg width="24" height="24" viewBox="0 0 24 24" fill="none" xmlns="http://www.w3.org/2000/svg">
<path d="M6.49999 7H6.99999V5.25C6.99999 4.55937 7.55936 4 8.24999 4H11.75C12.4406 4 13 4.55937 13 5.25V7H13.5C14.1687 7 14.7594 7.44375 14.9437 8.0875L15.5156 10.0875C12.9469 10.5531 11 12.8 11 15.5C11 16.0188 11.0719 16.5219 11.2062 17H4.49999C4.02811 17 3.58436 16.7781 3.30311 16.4031C3.02186 16.0281 2.92811 15.5406 3.05936 15.0875L5.05936 8.0875C5.24061 7.44375 5.83124 7 6.49999 7ZM11.9219 18.55C11.6844 19.3875 10.9125 20 9.99999 20C8.89686 20 7.99999 19.1031 7.99999 18H11.6C11.6969 18.1906 11.8062 18.375 11.9219 18.55ZM11.5 7V5.5H8.49999V7H11.5ZM16.5 11C17.6935 11 18.8381 11.4741 19.682 12.318C20.5259 13.1619 21 14.3065 21 15.5C21 16.6935 20.5259 17.8381 19.682 18.682C18.8381 19.5259 17.6935 20 16.5 20C15.3065 20 14.1619 19.5259 13.318 18.682C12.4741 17.8381 12 16.6935 12 15.5C12 14.3065 12.4741 13.1619 13.318 12.318C14.1619 11.4741 15.3065 11 16.5 11ZM17 13.5C17 13.225 16.775 13 16.5 13C16.225 13 16 13.225 16 13.5V15H14.5C14.225 15 14 15.225 14 15.5C14 15.775 14.225 16 14.5 16H16V17.5C16 17.775 16.225 18 16.5 18C16.775 18 17 17.775 17 17.5V16H18.5C18.775 16 19 15.775 19 15.5C19 15.225 18.775 15 18.5 15H17V13.5Z" fill="black"/>
</svg>
