<svg width="24" height="24" viewBox="0 0 24 24" fill="none" xmlns="http://www.w3.org/2000/svg">
<path d="M3.21243 4.15943C2.88743 3.90318 2.41556 3.96255 2.15931 4.28755C1.90306 4.61255 1.96243 5.08443 2.28743 5.34068L20.7874 19.8407C21.1124 20.0969 21.5843 20.0376 21.8406 19.7126C22.0968 19.3876 22.0374 18.9157 21.7124 18.6594L20.7499 17.9063C21.5187 17.1782 21.9999 16.1469 21.9999 15.0001C21.9999 13.0657 20.6249 11.4501 18.7999 11.0813C18.9281 10.7469 18.9999 10.3813 18.9999 10.0001C18.9999 8.3438 17.6562 7.00005 15.9999 7.00005C15.3843 7.00005 14.8093 7.18755 14.3343 7.5063C13.4687 6.0063 11.8531 5.00005 9.99993 5.00005C8.54993 5.00005 7.24368 5.6188 6.33118 6.60318L3.21243 4.15943ZM17.2312 19.0001L5.03743 9.3938C5.01243 9.5938 4.99993 9.79693 4.99993 10.0001C4.99993 10.0844 5.00306 10.1688 5.00618 10.2532C3.25618 10.8688 1.99993 12.5376 1.99993 14.5001C1.99993 16.9844 4.01556 19.0001 6.49993 19.0001H17.2312Z" fill="black"/>
</svg>
