<svg width="24" height="24" viewBox="0 0 24 24" fill="none" xmlns="http://www.w3.org/2000/svg">
<path d="M12 4C9.87827 4 7.84344 4.84285 6.34315 6.34315C4.84285 7.84344 4 9.87827 4 12C4 14.1217 4.84285 16.1566 6.34315 17.6569C7.84344 19.1571 9.87827 20 12 20C14.1217 20 16.1566 19.1571 17.6569 17.6569C19.1571 16.1566 20 14.1217 20 12C20 9.87827 19.1571 7.84344 17.6569 6.34315C16.1566 4.84285 14.1217 4 12 4ZM7.96875 12.7812C7.675 12.4875 7.675 12.0125 7.96875 11.7219C8.2625 11.4313 8.7375 11.4281 9.02812 11.7219L11.2469 13.9406L11.25 8.25C11.25 7.83437 11.5844 7.5 12 7.5C12.4156 7.5 12.75 7.83437 12.75 8.25V13.9406L14.9688 11.7219C15.2625 11.4281 15.7375 11.4281 16.0281 11.7219C16.3187 12.0156 16.3219 12.4906 16.0281 12.7812L12.5312 16.2812C12.2375 16.575 11.7625 16.575 11.4719 16.2812L7.96875 12.7812Z" fill="black"/>
</svg>
