<svg width="24" height="24" viewBox="0 0 24 24" fill="none" xmlns="http://www.w3.org/2000/svg">
<path d="M5.2812 16.2187C4.98745 15.925 4.51245 15.925 4.22183 16.2187C3.9312 16.5125 3.92808 16.9875 4.22183 17.2781C7.83433 20.8906 13.6781 20.9031 17.2937 17.2875C20.9093 13.6719 20.8906 7.83123 17.2812 4.21873C16.9875 3.92498 16.5125 3.92498 16.2218 4.21873C15.9312 4.51248 15.9281 4.98748 16.2218 5.2781C19.25 8.30623 19.2562 13.2031 16.2312 16.2281C13.2062 19.2531 8.30933 19.2469 5.2812 16.2187ZM8.91558 17.2469C9.21558 17.3312 9.50308 17.0937 9.50308 16.7812V12.2656C9.50308 12.0719 9.3687 11.9062 9.19058 11.8281C9.0062 11.7469 8.78433 11.7625 8.64058 11.9062L5.85308 14.6937C5.65933 14.8875 5.65933 15.2062 5.85308 15.4L5.97808 15.525C6.82495 16.3718 7.84058 16.9469 8.91558 17.25V17.2469ZM11.8281 9.18748C11.9062 9.3656 12.0718 9.49998 12.2656 9.49998H16.7812C17.0937 9.49998 17.3312 9.2156 17.2468 8.91248C16.9437 7.84373 16.375 6.83123 15.5343 5.98748L15.4 5.8531C15.2062 5.65935 14.8875 5.65935 14.6937 5.8531L11.9062 8.63748C11.7625 8.78123 11.7437 9.0031 11.8281 9.18748ZM11.8468 10.7656C11.7843 10.9187 11.8031 11.0969 11.9218 11.2125L15.4843 14.775C15.6906 14.9812 16.0281 14.9687 16.2 14.7344C17.0187 13.6156 17.4531 12.3031 17.4968 10.9812C17.5062 10.7125 17.2843 10.5 17.0156 10.5H12.2187C12.0531 10.5 11.9125 10.6156 11.85 10.7656H11.8468ZM10.7656 11.8469C10.6125 11.9094 10.5 12.05 10.5 12.2156V17.0125C10.5 17.2812 10.7125 17.5031 10.9812 17.4937C12.3062 17.45 13.6187 17.0156 14.7343 16.1968C14.9687 16.025 14.9812 15.6875 14.775 15.4812L11.2125 11.9187C11.0968 11.8031 10.9187 11.7812 10.7656 11.8437V11.8469Z" fill="black"/>
</svg>
