<svg width="24" height="24" viewBox="0 0 24 24" fill="none" xmlns="http://www.w3.org/2000/svg">
<path d="M15 9.5C15 12.5375 12.0906 15 8.5 15C7.30625 15 6.19063 14.7281 5.22813 14.2531C4.99375 14.3781 4.72812 14.5 4.44062 14.6094C3.86875 14.825 3.18125 15 2.5 15C2.28438 15 2.09062 14.8594 2.025 14.6531C1.95938 14.4469 2.03125 14.2219 2.20625 14.0938L2.2125 14.0875C2.21875 14.0812 2.23125 14.075 2.24688 14.0625C2.27812 14.0375 2.325 14 2.38125 13.9469C2.49375 13.8438 2.64688 13.6938 2.79688 13.5C2.96875 13.2812 3.13125 13.0187 3.24063 12.7281C2.45938 11.8219 2 10.7063 2 9.5C2 6.4625 4.90937 4 8.5 4C12.0906 4 15 6.4625 15 9.5ZM9.23438 15.9688C12.9031 15.6531 16 13.0094 16 9.5C16 9.3375 15.9937 9.175 15.9812 9.01562C19.3469 9.22188 22 11.6 22 14.5C22 15.7063 21.5406 16.8219 20.7625 17.7312C20.8719 18.025 21.0344 18.2844 21.2062 18.5031C21.3562 18.6969 21.5094 18.8469 21.6219 18.95C21.6781 19 21.725 19.0406 21.7563 19.0656C21.7719 19.0781 21.7844 19.0875 21.7906 19.0906L21.7969 19.0969C21.9719 19.225 22.0437 19.45 21.9781 19.6562C21.9125 19.8625 21.7188 20.0031 21.5031 20.0031C20.8219 20.0031 20.1344 19.8281 19.5625 19.6125C19.275 19.5031 19.0063 19.3813 18.775 19.2563C17.8094 19.7281 16.6938 20 15.5 20C12.5125 20 9.99375 18.2937 9.23438 15.9688ZM6.25625 7.3875L6.24375 7.41875C6.12813 7.74375 6.3 8.1 6.625 8.21562C6.95 8.33125 7.30625 8.15937 7.42188 7.83437L7.43437 7.80312C7.4625 7.71875 7.54375 7.66563 7.63125 7.66563H9.14687C9.36562 7.66563 9.54063 7.84375 9.54063 8.05937C9.54063 8.2 9.46562 8.33125 9.34375 8.4L8.1875 9.06563C7.99375 9.17813 7.875 9.38437 7.875 9.60625V9.95625C7.875 10.3 8.15625 10.5813 8.5 10.5813C8.84062 10.5813 9.11875 10.3063 9.125 9.96875L9.96562 9.4875C10.475 9.19375 10.7906 8.65 10.7906 8.0625C10.7906 7.15313 10.0531 6.41875 9.14687 6.41875H7.63125C7.0125 6.41875 6.4625 6.80625 6.25625 7.39062V7.3875ZM9.33437 12.25C9.34134 12.1363 9.32497 12.0225 9.28627 11.9154C9.24756 11.8083 9.18735 11.7102 9.10933 11.6273C9.03131 11.5444 8.93715 11.4783 8.83262 11.4331C8.7281 11.3879 8.61543 11.3646 8.50156 11.3646C8.38769 11.3646 8.27503 11.3879 8.1705 11.4331C8.06598 11.4783 7.97181 11.5444 7.89379 11.6273C7.81578 11.7102 7.75556 11.8083 7.71686 11.9154C7.67816 12.0225 7.66178 12.1363 7.66875 12.25C7.66178 12.3637 7.67816 12.4775 7.71686 12.5846C7.75556 12.6917 7.81578 12.7898 7.89379 12.8727C7.97181 12.9556 8.06598 13.0217 8.1705 13.0669C8.27503 13.1121 8.38769 13.1354 8.50156 13.1354C8.61543 13.1354 8.7281 13.1121 8.83262 13.0669C8.93715 13.0217 9.03131 12.9556 9.10933 12.8727C9.18735 12.7898 9.24756 12.6917 9.28627 12.5846C9.32497 12.4775 9.34134 12.3637 9.33437 12.25Z" fill="black"/>
</svg>
