<svg width="24" height="24" viewBox="0 0 24 24" fill="none" xmlns="http://www.w3.org/2000/svg">
<path d="M12 18C16.4187 18 20 15.0906 20 11.5C20 7.90937 16.4187 5 12 5C7.58125 5 4 7.90937 4 11.5C4 12.9094 4.55312 14.2125 5.49062 15.2781C5.43125 16.0437 5.13437 16.725 4.82187 17.2437C4.65 17.5312 4.475 17.7625 4.34687 17.9187C4.28125 17.9969 4.23125 18.0563 4.19375 18.0969C4.175 18.1156 4.1625 18.1312 4.15312 18.1406L4.14375 18.15C4 18.2937 3.95937 18.5063 4.0375 18.6938C4.11562 18.8813 4.29687 19.0031 4.5 19.0031C5.39687 19.0031 6.3 18.725 7.05 18.4C7.76562 18.0875 8.375 17.7156 8.74687 17.4438C9.74062 17.8031 10.8406 18.0031 12 18.0031V18ZM12.75 8.75V12.4406L13.7187 11.4719C14.0125 11.1781 14.4875 11.1781 14.7781 11.4719C15.0687 11.7656 15.0719 12.2406 14.7781 12.5312L12.5281 14.7812C12.2344 15.075 11.7594 15.075 11.4688 14.7812L9.21875 12.5312C8.925 12.2375 8.925 11.7625 9.21875 11.4719C9.5125 11.1813 9.9875 11.1781 10.2781 11.4719L11.2469 12.4406V8.75C11.2469 8.33437 11.5812 8 11.9969 8C12.4125 8 12.7469 8.33437 12.7469 8.75H12.75Z" fill="black"/>
</svg>
