<svg width="24" height="24" viewBox="0 0 24 24" fill="none" xmlns="http://www.w3.org/2000/svg">
<path d="M12 18C16.4188 18 20 15.0906 20 11.5C20 7.90937 16.4188 5 12 5C7.58129 5 4.00004 7.90937 4.00004 11.5C4.00004 12.9094 4.55316 14.2125 5.49066 15.2781C5.43129 16.0437 5.13441 16.725 4.82191 17.2437C4.65004 17.5312 4.47504 17.7625 4.34691 17.9187C4.28129 17.9969 4.23129 18.0563 4.19379 18.0969C4.17504 18.1156 4.16254 18.1313 4.15316 18.1406L4.14379 18.15C4.00004 18.2937 3.95941 18.5063 4.03754 18.6938C4.11566 18.8813 4.29691 19.0031 4.50004 19.0031C5.39691 19.0031 6.30004 18.725 7.05004 18.4C7.76566 18.0875 8.37504 17.7156 8.74691 17.4438C9.74066 17.8031 10.8407 18.0031 12 18.0031V18ZM12.625 8.25V8.68437C12.8594 8.72187 13.0813 8.775 13.2844 8.83125C13.6188 8.91875 13.8157 9.2625 13.7282 9.59688C13.6407 9.93125 13.2969 10.1281 12.9625 10.0406C12.6188 9.95 12.2875 9.88438 11.9875 9.87813C11.7407 9.875 11.4875 9.93438 11.3157 10.0344C11.1657 10.1219 11.1219 10.2094 11.1219 10.325C11.1219 10.3812 11.125 10.4344 11.2875 10.5344C11.4844 10.6531 11.7719 10.7438 12.1719 10.8625L12.1938 10.8688C12.5438 10.975 12.9938 11.1094 13.3532 11.3375C13.7563 11.5906 14.1125 12.0031 14.1219 12.6375C14.1313 13.2906 13.7938 13.7656 13.3469 14.0437C13.1219 14.1844 12.8719 14.2719 12.6219 14.325V14.75C12.6219 15.0938 12.3407 15.375 11.9969 15.375C11.6532 15.375 11.3719 15.0938 11.3719 14.75V14.2937C11.05 14.225 10.7469 14.1219 10.4907 14.0312C10.425 14.0094 10.3625 13.9875 10.3 13.9656C9.97191 13.8562 9.79691 13.5031 9.90629 13.175C10.0157 12.8469 10.3688 12.6719 10.6969 12.7812C10.775 12.8063 10.85 12.8344 10.9219 12.8562C11.3469 13 11.6719 13.1094 12.0188 13.1219C12.2875 13.1312 12.5344 13.0719 12.6875 12.975C12.8157 12.8969 12.875 12.8031 12.8719 12.6469C12.8719 12.5563 12.8469 12.4906 12.6875 12.3906C12.4907 12.2656 12.2063 12.175 11.8125 12.0562L11.7594 12.0406C11.4188 11.9375 10.9907 11.8094 10.6469 11.6031C10.25 11.3625 9.87816 10.9625 9.87504 10.3313C9.87191 9.67188 10.2438 9.21562 10.6813 8.95937C10.8969 8.83125 11.1344 8.74687 11.375 8.69375V8.25C11.375 7.90625 11.6563 7.625 12 7.625C12.3438 7.625 12.625 7.90625 12.625 8.25Z" fill="black"/>
</svg>
