<svg width="24" height="24" viewBox="0 0 24 24" fill="none" xmlns="http://www.w3.org/2000/svg">
<path d="M8.5001 15C12.0907 15 15.0001 12.5375 15.0001 9.5C15.0001 6.4625 12.0907 4 8.5001 4C4.90947 4 2.0001 6.4625 2.0001 9.5C2.0001 10.7063 2.45947 11.8219 3.2376 12.7312C3.12822 13.025 2.96572 13.2844 2.79385 13.5031C2.64385 13.6969 2.49072 13.8469 2.37822 13.95C2.32197 14 2.2751 14.0406 2.24385 14.0656C2.22822 14.0781 2.21572 14.0875 2.20947 14.0906L2.20322 14.0969C2.03135 14.225 1.95635 14.45 2.0251 14.6531C2.09385 14.8562 2.28447 15 2.5001 15C3.18135 15 3.86885 14.825 4.44072 14.6094C4.72822 14.5 4.99697 14.3781 5.23135 14.2531C6.19072 14.7281 7.30635 15 8.5001 15ZM16.0001 9.5C16.0001 13.0094 12.9032 15.6531 9.23447 15.9688C9.99385 18.2937 12.5126 20 15.5001 20C16.6938 20 17.8095 19.7281 18.772 19.2531C19.0063 19.3781 19.272 19.5 19.5595 19.6094C20.1313 19.825 20.8188 20 21.5001 20C21.7157 20 21.9095 19.8594 21.9751 19.6531C22.0407 19.4469 21.9688 19.2219 21.7938 19.0938L21.7876 19.0875C21.7813 19.0812 21.7688 19.075 21.7532 19.0625C21.722 19.0375 21.6751 19 21.6188 18.9469C21.5063 18.8438 21.3532 18.6938 21.2032 18.5C21.0313 18.2812 20.8688 18.0187 20.7595 17.7281C21.5376 16.8219 21.997 15.7063 21.997 14.4969C21.997 11.5969 19.3438 9.21875 15.9782 9.0125C15.9907 9.17188 15.997 9.33437 15.997 9.49687L16.0001 9.5Z" fill="black"/>
</svg>
