<svg width="24" height="24" viewBox="0 0 24 24" fill="none" xmlns="http://www.w3.org/2000/svg">
<path d="M20 19H12.5V15.4656C14.1969 15.2219 15.5 13.7656 15.5 12C15.5 10.2344 14.1969 8.77813 12.5 8.53438V5H20C21.1031 5 22 5.89688 22 7V8H20C18.8969 8 18 8.89688 18 10V14C18 15.1031 18.8969 16 20 16H22V17C22 18.1031 21.1031 19 20 19ZM11.5 8.53438C9.80313 8.77813 8.5 10.2344 8.5 12C8.5 13.7656 9.80313 15.2219 11.5 15.4656V19H4C2.89688 19 2 18.1031 2 17V16H4C5.10312 16 6 15.1031 6 14V10C6 8.89688 5.10312 8 4 8H2V7C2 5.89688 2.89688 5 4 5H11.5V8.53438ZM11.5 14.45C10.3594 14.2187 9.5 13.2094 9.5 12C9.5 10.7906 10.3594 9.78125 11.5 9.55V14.45ZM12.5 14.45V9.55C13.6406 9.78125 14.5 10.7906 14.5 12C14.5 13.2094 13.6406 14.2187 12.5 14.45ZM20 9H22V15H20C19.4469 15 19 14.5531 19 14V10C19 9.44687 19.4469 9 20 9ZM4 15H2V9H4C4.55313 9 5 9.44687 5 10V14C5 14.5531 4.55313 15 4 15Z" fill="black"/>
</svg>
