<svg width="24" height="24" viewBox="0 0 24 24" fill="none" xmlns="http://www.w3.org/2000/svg">
<path d="M4 12C4 9.87827 4.84285 7.84344 6.34315 6.34315C7.84344 4.84285 9.87827 4 12 4C14.1217 4 16.1566 4.84285 17.6569 6.34315C19.1571 7.84344 20 9.87827 20 12C20 14.1217 19.1571 16.1566 17.6569 17.6569C16.1566 19.1571 14.1217 20 12 20C9.87827 20 7.84344 19.1571 6.34315 17.6569C4.84285 16.1566 4 14.1217 4 12ZM12 12.5C11.803 12.5 11.608 12.4612 11.426 12.3858C11.244 12.3104 11.0786 12.1999 10.9393 12.0607C10.8001 11.9214 10.6896 11.756 10.6142 11.574C10.5388 11.392 10.5 11.197 10.5 11C10.5 10.803 10.5388 10.608 10.6142 10.426C10.6896 10.244 10.8001 10.0786 10.9393 9.93934C11.0786 9.80005 11.244 9.68956 11.426 9.61418C11.608 9.5388 11.803 9.5 12 9.5C12.197 9.5 12.392 9.5388 12.574 9.61418C12.756 9.68956 12.9214 9.80005 13.0607 9.93934C13.1999 10.0786 13.3104 10.244 13.3858 10.426C13.4612 10.608 13.5 10.803 13.5 11C13.5 11.197 13.4612 11.392 13.3858 11.574C13.3104 11.756 13.1999 11.9214 13.0607 12.0607C12.9214 12.1999 12.756 12.3104 12.574 12.3858C12.392 12.4612 12.197 12.5 12 12.5ZM11.1875 13.8875L10.2625 14.6812C9.94687 14.95 9.9125 15.425 10.1813 15.7375C10.45 16.05 10.925 16.0875 11.2375 15.8188L13.7875 13.6313C14.5563 12.975 15 12.0125 15 11C15 9.34375 13.6562 8 12 8C10.3438 8 9 9.34375 9 11C9 12.375 9.925 13.5344 11.1875 13.8875Z" fill="black"/>
</svg>
