<svg width="24" height="24" viewBox="0 0 24 24" fill="none" xmlns="http://www.w3.org/2000/svg">
<path d="M7.50001 4.25C7.29376 4.25 7.11251 4.375 7.03439 4.56563L6.11564 6.87812L3.73751 6.15313C3.54064 6.09375 3.32814 6.15937 3.20001 6.31875C3.07189 6.47812 3.05626 6.7 3.15626 6.87812L4.39064 9.0375L2.34064 10.45C2.17189 10.5656 2.09064 10.7719 2.13751 10.9719C2.18439 11.1719 2.34689 11.3219 2.54689 11.3531L5.00626 11.7344L4.83126 14.2188C4.81564 14.4219 4.92814 14.6156 5.11251 14.7031C5.29689 14.7906 5.51564 14.7594 5.66876 14.6219L6.77189 13.6062L7.06876 12.5L7.39376 11.2937C7.64376 10.3594 8.34689 9.66563 9.20314 9.39062L10.4844 7.54063C10.8375 7.03125 11.3094 6.6375 11.8438 6.37812C11.8313 6.35938 11.8188 6.34063 11.8031 6.32188C11.675 6.1625 11.4625 6.09687 11.2656 6.15625L8.88439 6.87812L7.96564 4.56563C7.88751 4.375 7.70626 4.25 7.50001 4.25ZM13.4906 9.04688L17.7281 10.1813C17.9313 10.2375 18.0813 10.4125 18.0969 10.625L18.2406 12.3906L11.9438 10.7031L12.95 9.24687C13.0688 9.07187 13.2875 8.99375 13.4906 9.04688ZM11.3063 8.10938L9.80939 10.275C9.13439 10.3688 8.55001 10.8563 8.36251 11.5563L8.03751 12.7625L7.51876 14.6938L7.25939 15.6594C7.11564 16.1938 7.43439 16.7406 7.96564 16.8844L8.45001 17.0125C8.98439 17.1562 9.53126 16.8375 9.67501 16.3062L9.93439 15.3406L17.6625 17.4125L17.4031 18.3781C17.2594 18.9125 17.5781 19.4594 18.1094 19.6031L18.5938 19.7312C19.1281 19.875 19.675 19.5562 19.8188 19.025L20.0781 18.0594L20.5938 16.125L20.9188 14.9187C21.1063 14.2188 20.8406 13.5063 20.3063 13.0844L20.0938 10.4594C20.0094 9.40625 19.2688 8.52187 18.25 8.24687L14.0063 7.11562C12.9844 6.84062 11.9031 7.24062 11.3031 8.10938H11.3063ZM10.775 12.2031C10.8702 12.2286 10.9595 12.2725 11.0377 12.3325C11.1159 12.3924 11.1816 12.4672 11.2309 12.5525C11.2802 12.6378 11.3123 12.732 11.3252 12.8297C11.3381 12.9274 11.3317 13.0267 11.3063 13.1219C11.2808 13.2171 11.2369 13.3063 11.1769 13.3846C11.117 13.4628 11.0422 13.5284 10.9569 13.5778C10.8716 13.6271 10.7774 13.6592 10.6797 13.6721C10.582 13.685 10.4827 13.6786 10.3875 13.6531C10.1952 13.6017 10.0312 13.4761 9.93161 13.3038C9.83198 13.1315 9.80488 12.9267 9.85626 12.7344C9.90765 12.5421 10.0333 12.3781 10.2056 12.2785C10.3779 12.1788 10.5827 12.1517 10.775 12.2031ZM17.5844 14.8031C17.6055 14.7035 17.6466 14.6091 17.7053 14.5259C17.764 14.4427 17.8391 14.3723 17.9259 14.319C18.0127 14.2657 18.1095 14.2307 18.2103 14.216C18.3111 14.2014 18.4138 14.2074 18.5122 14.2338C18.6106 14.2601 18.7026 14.3062 18.7826 14.3693C18.8625 14.4324 18.9288 14.5111 18.9774 14.6006C19.026 14.6902 19.0558 14.7886 19.0651 14.8901C19.0743 14.9915 19.0628 15.0938 19.0313 15.1906C19.0058 15.2858 18.9619 15.3751 18.9019 15.4533C18.842 15.5315 18.7672 15.5972 18.6819 15.6465C18.5966 15.6959 18.5024 15.7279 18.4047 15.7408C18.307 15.7538 18.2077 15.7473 18.1125 15.7219C18.0173 15.6964 17.928 15.6525 17.8498 15.5925C17.7716 15.5326 17.7059 15.4578 17.6566 15.3725C17.6073 15.2872 17.5752 15.193 17.5623 15.0953C17.5494 14.9976 17.5558 14.8983 17.5813 14.8031H17.5844Z" fill="black"/>
</svg>
