<svg width="24" height="24" viewBox="0 0 24 24" fill="none" xmlns="http://www.w3.org/2000/svg">
<path d="M12.0002 18C16.4189 18 20.0002 15.0906 20.0002 11.5C20.0002 7.90937 16.4189 5 12.0002 5C7.58141 5 4.00016 7.90937 4.00016 11.5C4.00016 12.9094 4.55328 14.2125 5.49078 15.2781C5.43141 16.0437 5.13453 16.725 4.82203 17.2437C4.65016 17.5312 4.47516 17.7625 4.34703 17.9187C4.28141 17.9969 4.23141 18.0563 4.19391 18.0969C4.17516 18.1156 4.16266 18.1313 4.15328 18.1406L4.14391 18.15C4.00016 18.2937 3.95953 18.5063 4.03766 18.6938C4.11578 18.8813 4.29703 19.0031 4.50016 19.0031C5.39703 19.0031 6.30016 18.725 7.05016 18.4C7.76578 18.0875 8.37516 17.7156 8.74703 17.4438C9.74078 17.8031 10.8408 18.0031 12.0002 18.0031V18ZM7.75016 10.5H12.2502C12.6658 10.5 13.0002 10.8344 13.0002 11.25C13.0002 11.6656 12.6658 12 12.2502 12H7.75016C7.33453 12 7.00016 11.6656 7.00016 11.25C7.00016 10.8344 7.33453 10.5 7.75016 10.5ZM14.7502 10.5H16.2502C16.6658 10.5 17.0002 10.8344 17.0002 11.25C17.0002 11.6656 16.6658 12 16.2502 12H14.7502C14.3345 12 14.0002 11.6656 14.0002 11.25C14.0002 10.8344 14.3345 10.5 14.7502 10.5ZM7.75016 13H9.25016C9.66578 13 10.0002 13.3344 10.0002 13.75C10.0002 14.1656 9.66578 14.5 9.25016 14.5H7.75016C7.33453 14.5 7.00016 14.1656 7.00016 13.75C7.00016 13.3344 7.33453 13 7.75016 13ZM11.7502 13H16.2502C16.6658 13 17.0002 13.3344 17.0002 13.75C17.0002 14.1656 16.6658 14.5 16.2502 14.5H11.7502C11.3345 14.5 11.0002 14.1656 11.0002 13.75C11.0002 13.3344 11.3345 13 11.7502 13Z" fill="black"/>
</svg>
