<svg width="24" height="24" viewBox="0 0 24 24" fill="none" xmlns="http://www.w3.org/2000/svg">
<path d="M5.28145 16.2187C4.9877 15.925 4.5127 15.925 4.22207 16.2187C3.93145 16.5125 3.92832 16.9875 4.22207 17.2781C7.83457 20.8906 13.6783 20.9031 17.2939 17.2875C20.9096 13.6719 20.8908 7.83123 17.2814 4.21873C16.9877 3.92498 16.5127 3.92498 16.2221 4.21873C15.9314 4.51248 15.9283 4.98748 16.2221 5.2781C19.2502 8.30623 19.2564 13.2031 16.2314 16.2281C13.2064 19.2531 8.30957 19.2469 5.28145 16.2187ZM8.91582 17.2469C9.21582 17.3312 9.50332 17.0937 9.50332 16.7812V12.2656C9.50332 12.0718 9.36895 11.9062 9.19082 11.8281C9.00645 11.7469 8.78457 11.7625 8.64082 11.9062L5.85332 14.6937C5.65957 14.8875 5.65957 15.2062 5.85332 15.4L5.97832 15.525C6.8252 16.3719 7.84082 16.9468 8.91582 17.25V17.2469ZM11.8283 9.18748C11.9064 9.3656 12.0721 9.49998 12.2658 9.49998H16.7814C17.0939 9.49998 17.3314 9.2156 17.2471 8.91248C16.9439 7.84373 16.3752 6.83123 15.5346 5.98748L15.4002 5.8531C15.2064 5.65935 14.8877 5.65935 14.6939 5.8531L11.9064 8.63748C11.7627 8.78123 11.7439 9.0031 11.8283 9.18748ZM11.8471 10.7656C11.7846 10.9187 11.8033 11.0969 11.9221 11.2125L15.4846 14.775C15.6908 14.9812 16.0283 14.9687 16.2002 14.7344C17.0189 13.6156 17.4533 12.3031 17.4971 10.9812C17.5064 10.7125 17.2846 10.5 17.0158 10.5H12.2189C12.0533 10.5 11.9127 10.6156 11.8502 10.7656H11.8471ZM10.7658 11.8469C10.6127 11.9094 10.5002 12.05 10.5002 12.2156V17.0125C10.5002 17.2812 10.7127 17.5031 10.9814 17.4937C12.3064 17.45 13.6189 17.0156 14.7346 16.1968C14.9689 16.025 14.9814 15.6875 14.7752 15.4812L11.2127 11.9187C11.0971 11.8031 10.9189 11.7812 10.7658 11.8437V11.8469Z" fill="black"/>
</svg>
