<svg width="24" height="24" viewBox="0 0 24 24" fill="none" xmlns="http://www.w3.org/2000/svg">
<path d="M5 5C5.55313 5 6 5.44687 6 6V16.5C6 16.775 6.225 17 6.5 17H19C19.5531 17 20 17.4469 20 18C20 18.5531 19.5531 19 19 19H6.5C5.11875 19 4 17.8813 4 16.5V6C4 5.44687 4.44687 5 5 5ZM8 13.5C8 13.303 8.0388 13.108 8.11418 12.926C8.18956 12.744 8.30005 12.5786 8.43934 12.4393C8.57863 12.3001 8.74399 12.1896 8.92597 12.1142C9.10796 12.0388 9.30302 12 9.5 12C9.69698 12 9.89204 12.0388 10.074 12.1142C10.256 12.1896 10.4214 12.3001 10.5607 12.4393C10.6999 12.5786 10.8104 12.744 10.8858 12.926C10.9612 13.108 11 13.303 11 13.5C11 13.697 10.9612 13.892 10.8858 14.074C10.8104 14.256 10.6999 14.4214 10.5607 14.5607C10.4214 14.6999 10.256 14.8104 10.074 14.8858C9.89204 14.9612 9.69698 15 9.5 15C9.30302 15 9.10796 14.9612 8.92597 14.8858C8.74399 14.8104 8.57863 14.6999 8.43934 14.5607C8.30005 14.4214 8.18956 14.256 8.11418 14.074C8.0388 13.892 8 13.697 8 13.5ZM15 11C15.5304 11 16.0391 11.2107 16.4142 11.5858C16.7893 11.9609 17 12.4696 17 13C17 13.5304 16.7893 14.0391 16.4142 14.4142C16.0391 14.7893 15.5304 15 15 15C14.4696 15 13.9609 14.7893 13.5858 14.4142C13.2107 14.0391 13 13.5304 13 13C13 12.4696 13.2107 11.9609 13.5858 11.5858C13.9609 11.2107 14.4696 11 15 11ZM10 9.5C10 9.10218 10.158 8.72064 10.4393 8.43934C10.7206 8.15804 11.1022 8 11.5 8C11.8978 8 12.2794 8.15804 12.5607 8.43934C12.842 8.72064 13 9.10218 13 9.5C13 9.89782 12.842 10.2794 12.5607 10.5607C12.2794 10.842 11.8978 11 11.5 11C11.1022 11 10.7206 10.842 10.4393 10.5607C10.158 10.2794 10 9.89782 10 9.5ZM16 6C16.5304 6 17.0391 6.21071 17.4142 6.58579C17.7893 6.96086 18 7.46957 18 8C18 8.53043 17.7893 9.03914 17.4142 9.41421C17.0391 9.78929 16.5304 10 16 10C15.4696 10 14.9609 9.78929 14.5858 9.41421C14.2107 9.03914 14 8.53043 14 8C14 7.46957 14.2107 6.96086 14.5858 6.58579C14.9609 6.21071 15.4696 6 16 6Z" fill="black"/>
</svg>
