<svg width="24" height="24" viewBox="0 0 24 24" fill="none" xmlns="http://www.w3.org/2000/svg">
<path d="M12.7219 5.37188L12.1906 4.80626C12.1344 4.74688 12.0781 4.68126 12.0219 4.61563C11.7688 4.32501 11.4969 4.00938 11.1 4.00001C10.8969 3.99376 10.6906 4.06563 10.5281 4.21251C9.86875 4.81251 9.12188 5.60001 8.53438 6.49063C7.95 7.37501 7.5 8.39688 7.5 9.45938C7.5 11.975 9.48125 14 12 14C14.4938 14 16.5 11.9781 16.5 9.45938C16.5 8.60626 16.1906 7.72813 15.7625 6.95626C15.3344 6.17813 14.7719 5.46876 14.2156 4.95001C14.0594 4.80313 13.8563 4.72813 13.6563 4.72813C13.4438 4.72813 13.2188 4.80626 13.0688 4.98126L12.725 5.37188H12.7219ZM13.8625 10.8219C13.8625 11.825 13.05 12.6406 12.0438 12.6406C11.0375 12.6406 10.225 11.8281 10.225 10.8219C10.225 9.78438 11.2781 8.74688 11.7813 8.30938C11.9344 8.17813 12.1531 8.17813 12.3063 8.30938C12.8094 8.74688 13.8625 9.78438 13.8625 10.8219ZM5.3375 13.0594C4.81875 12.875 4.24375 13.1438 4.05938 13.6656C3.875 14.1875 4.14375 14.7594 4.66563 14.9438L9.02813 16.5L4.6625 18.0594C4.14375 18.2438 3.87188 18.8156 4.05938 19.3375C4.24688 19.8594 4.81875 20.1281 5.3375 19.9438L12 17.5625L18.6625 19.9438C19.1813 20.1281 19.7563 19.8594 19.9406 19.3375C20.125 18.8156 19.8563 18.2438 19.3344 18.0594L14.9719 16.5L19.3344 14.9406C19.8531 14.7563 20.125 14.1813 19.9406 13.6625C19.7563 13.1438 19.1813 12.8719 18.6625 13.0563L12 15.4375L5.3375 13.0594Z" fill="black"/>
</svg>
