<svg width="24" height="24" viewBox="0 0 24 24" fill="none" xmlns="http://www.w3.org/2000/svg">
<path d="M3.53417 15.0562L2.82792 15.4094C2.0873 15.7781 1.7873 16.6812 2.15917 17.4219C2.53105 18.1625 3.43105 18.4625 4.17167 18.0937L4.8748 17.7406C6.20917 19.0281 8.25917 19.4031 10.0123 18.525C10.2029 18.425 10.4748 18.2719 10.806 18.0719C10.2967 17.3437 9.9998 16.4562 9.9998 15.5C9.9998 13.0156 12.0154 11 14.4998 11C16.1373 11 17.5717 11.875 18.3592 13.1844C19.3873 12.5 20.3248 11.875 21.0467 11.3906C21.881 10.8312 22.1623 9.74375 21.7154 8.84375L20.756 6.92187C20.306 6.025 19.2654 5.59687 18.3185 5.92812C14.9623 7.10312 7.53417 9.725 5.9873 10.475C4.23417 11.35 3.30292 13.2156 3.53417 15.0562ZM14.4998 19C15.4281 19 16.3183 18.6312 16.9747 17.9749C17.631 17.3185 17.9998 16.4283 17.9998 15.5C17.9998 14.5717 17.631 13.6815 16.9747 13.0251C16.3183 12.3687 15.4281 12 14.4998 12C13.5715 12 12.6813 12.3687 12.0249 13.0251C11.3685 13.6815 10.9998 14.5717 10.9998 15.5C10.9998 16.4283 11.3685 17.3185 12.0249 17.9749C12.6813 18.6312 13.5715 19 14.4998 19ZM14.4998 14.5C14.765 14.5 15.0194 14.6054 15.2069 14.7929C15.3944 14.9804 15.4998 15.2348 15.4998 15.5C15.4998 15.7652 15.3944 16.0196 15.2069 16.2071C15.0194 16.3946 14.765 16.5 14.4998 16.5C14.2346 16.5 13.9802 16.3946 13.7927 16.2071C13.6052 16.0196 13.4998 15.7652 13.4998 15.5C13.4998 15.2348 13.6052 14.9804 13.7927 14.7929C13.9802 14.6054 14.2346 14.5 14.4998 14.5Z" fill="black"/>
</svg>
