<svg width="24" height="24" viewBox="0 0 24 24" fill="none" xmlns="http://www.w3.org/2000/svg">
<path d="M12 20C14.1217 20 16.1566 19.1571 17.6569 17.6569C19.1571 16.1566 20 14.1217 20 12C20 9.87827 19.1571 7.84344 17.6569 6.34315C16.1566 4.84285 14.1217 4 12 4C9.87827 4 7.84344 4.84285 6.34315 6.34315C4.84285 7.84344 4 9.87827 4 12C4 14.1217 4.84285 16.1566 6.34315 17.6569C7.84344 19.1571 9.87827 20 12 20ZM8 10C8 9.44688 8.44688 9 9 9H13C13.5531 9 14 9.44688 14 10V14C14 14.5531 13.5531 15 13 15H9C8.44688 15 8 14.5531 8 14V10ZM16.4031 13.9344L15 13V11L16.4031 10.0656C16.4656 10.025 16.5406 10 16.6156 10C16.8281 10 17 10.1719 17 10.3844V13.6156C17 13.8281 16.8281 14 16.6156 14C16.5406 14 16.4656 13.9781 16.4031 13.9344Z" fill="black"/>
</svg>
