<svg width="24" height="24" viewBox="0 0 24 24" fill="none" xmlns="http://www.w3.org/2000/svg">
<path d="M7.38439 4.07811C6.91876 3.88436 6.38126 4.06873 6.13126 4.50623L3.13126 9.75623C2.98751 10.0062 2.95939 10.3031 3.05314 10.575C3.14689 10.8469 3.35001 11.0656 3.61564 11.175L8.55626 13.2344L7.30938 16.5H5.00001V16C5.00001 15.4469 4.55314 15 4.00001 15C3.44689 15 3.00001 15.4469 3.00001 16V17.5V19C3.00001 19.5531 3.44689 20 4.00001 20C4.55314 20 5.00001 19.5531 5.00001 19V18.5H8.00001C8.41564 18.5 8.78751 18.2437 8.93438 17.8562L10.4031 14L12.6156 14.9219C12.925 15.05 13.2781 15.0156 13.5563 14.8312L19.5563 10.8312C19.8625 10.6281 20.0313 10.2687 19.9969 9.90311C19.9625 9.53748 19.7281 9.21873 19.3875 9.07498L7.38751 4.07498L7.38439 4.07811ZM19.0438 16.4562C19.1656 16.5125 19.3063 16.5156 19.4344 16.4656C19.5625 16.4156 19.6594 16.3187 19.7125 16.1937L20.9625 13.1937C21.0656 12.9437 20.9531 12.6562 20.7031 12.5437L19.5563 12.0344L15.4031 14.8L19.0438 16.4531V16.4562Z" fill="black"/>
</svg>
