<svg width="24" height="24" viewBox="0 0 24 24" fill="none" xmlns="http://www.w3.org/2000/svg">
<path d="M11 4.74998L11.4406 4.14061C11.225 3.98436 10.9437 3.95623 10.7 4.06248C10.4562 4.16873 10.2875 4.39686 10.2563 4.65936V4.66561L10.2531 4.69373C10.25 4.72186 10.2438 4.76248 10.2344 4.81873C10.2156 4.93123 10.1875 5.09998 10.1438 5.31248C10.0563 5.74061 9.90625 6.35311 9.66563 7.07186C9.22813 8.38436 8.49688 10.0312 7.29688 11.5625C6.75937 11.2969 5.95312 11 5 11C5 11 2 11 2 14.5C2 19 6.5 20 8 20C9.5 20 14 19.5 14 14.5C14 11 11 11 11 11C10.3594 11 9.78438 11.1344 9.3125 11.3031C10.1594 9.97186 10.7188 8.64373 11.0844 7.54686C11.2625 7.01561 11.3938 6.53748 11.4906 6.13748C11.8563 6.47498 12.2969 6.90936 12.7437 7.42498C13.6687 8.49686 14.5906 9.87498 15.0281 11.4406C14.6531 11.275 14.1844 11.1187 13.6469 11.0437C14.4156 11.7406 15 12.8406 15 14.5C15 16.7469 14.1844 18.2781 13.0594 19.2781C14.2 19.8219 15.3656 20 16 20C17.5 20 22 19.5 22 14.5C22 11 19 11 19 11C17.9906 11 17.15 11.3312 16.6156 11.6125C16.1719 9.49998 14.975 7.71561 13.8813 6.44686C13.2594 5.72811 12.6563 5.15623 12.2063 4.76248C11.9813 4.56561 11.7938 4.41248 11.6594 4.30936C11.5938 4.25623 11.5406 4.21561 11.5031 4.18748C11.4844 4.17498 11.4688 4.16248 11.4594 4.15623L11.4469 4.14686L11.4438 4.14373C11.4438 4.14373 11.4438 4.14373 11.0031 4.74998H11Z" fill="black"/>
</svg>
