<svg width="24" height="24" viewBox="0 0 24 24" fill="none" xmlns="http://www.w3.org/2000/svg">
<path d="M12 4C10.6937 4 9.58125 4.83438 9.17188 6H8C6.89688 6 6 6.89687 6 8V18C6 19.1031 6.89688 20 8 20H16C17.1031 20 18 19.1031 18 18V8C18 6.89687 17.1031 6 16 6H14.8281C14.4187 4.83438 13.3063 4 12 4ZM12 6C12.2652 6 12.5196 6.10536 12.7071 6.29289C12.8946 6.48043 13 6.73478 13 7C13 7.26522 12.8946 7.51957 12.7071 7.70711C12.5196 7.89464 12.2652 8 12 8C11.7348 8 11.4804 7.89464 11.2929 7.70711C11.1054 7.51957 11 7.26522 11 7C11 6.73478 11.1054 6.48043 11.2929 6.29289C11.4804 6.10536 11.7348 6 12 6ZM9.30625 11.1656C9.55313 10.4688 10.2156 10 10.9563 10H12.7781C13.8687 10 14.75 10.8844 14.75 11.9719C14.75 12.6781 14.3719 13.3313 13.7594 13.6844L12.75 14.2625C12.7438 14.6687 12.4094 15 12 15C11.5844 15 11.25 14.6656 11.25 14.25V13.8281C11.25 13.5594 11.3938 13.3125 11.6281 13.1781L13.0125 12.3844C13.1594 12.3 13.25 12.1438 13.25 11.975C13.25 11.7125 13.0375 11.5031 12.7781 11.5031H10.9563C10.85 11.5031 10.7563 11.5687 10.7219 11.6687L10.7094 11.7063C10.5719 12.0969 10.1406 12.3 9.75312 12.1625C9.36562 12.025 9.15937 11.5938 9.29688 11.2063L9.30938 11.1687L9.30625 11.1656ZM11 17C11 16.7348 11.1054 16.4804 11.2929 16.2929C11.4804 16.1054 11.7348 16 12 16C12.2652 16 12.5196 16.1054 12.7071 16.2929C12.8946 16.4804 13 16.7348 13 17C13 17.2652 12.8946 17.5196 12.7071 17.7071C12.5196 17.8946 12.2652 18 12 18C11.7348 18 11.4804 17.8946 11.2929 17.7071C11.1054 17.5196 11 17.2652 11 17Z" fill="black"/>
</svg>
