<svg width="24" height="24" viewBox="0 0 24 24" fill="none" xmlns="http://www.w3.org/2000/svg">
<path d="M15.5 4C14.9469 4 14.5 4.44687 14.5 5C14.5 5.55313 14.9469 6 15.5 6H16.4L12.9812 8.73438L9.59998 6.2C9.23435 5.925 8.73123 5.93438 8.37498 6.21875L3.37498 10.2188C2.94373 10.5625 2.87498 11.1937 3.21873 11.625C3.56248 12.0562 4.19373 12.125 4.62498 11.7812L9.01873 8.26562L12.4 10.8C12.7656 11.075 13.2687 11.0656 13.625 10.7812L18 7.28125V8.5C18 9.05312 18.4469 9.5 19 9.5C19.5531 9.5 20 9.05312 20 8.5V5C20 4.44687 19.5531 4 19 4H15.5ZM8.99998 11C8.44685 11 7.99998 11.4469 7.99998 12V18C7.99998 18.5531 8.44685 19 8.99998 19C9.5531 19 9.99998 18.5531 9.99998 18V12C9.99998 11.4469 9.5531 11 8.99998 11ZM4.99998 14C4.44685 14 3.99998 14.4469 3.99998 15V18C3.99998 18.5531 4.44685 19 4.99998 19C5.5531 19 5.99998 18.5531 5.99998 18V15C5.99998 14.4469 5.5531 14 4.99998 14ZM16.5 20C17.6935 20 18.838 19.5259 19.682 18.682C20.5259 17.8381 21 16.6935 21 15.5C21 14.3065 20.5259 13.1619 19.682 12.318C18.838 11.4741 17.6935 11 16.5 11C15.3065 11 14.1619 11.4741 13.318 12.318C12.4741 13.1619 12 14.3065 12 15.5C12 16.6935 12.4741 17.8381 13.318 18.682C14.1619 19.5259 15.3065 20 16.5 20ZM15.7531 14.5938V14.5969C15.7531 14.6094 15.7531 14.6562 15.9031 14.7375C16.0781 14.8313 16.325 14.9 16.65 14.9937H16.6562C16.9469 15.075 17.3156 15.1812 17.6094 15.3531C17.9281 15.5406 18.2344 15.8562 18.25 16.3625C18.2656 16.9313 17.9469 17.3125 17.5719 17.5156C17.3906 17.6125 17.1937 17.675 17 17.7094V18.0469C17 18.3219 16.775 18.5469 16.5 18.5469C16.225 18.5469 16 18.3219 16 18.0469V17.6906C15.7312 17.6375 15.4781 17.5562 15.2594 17.4844C15.2062 17.4656 15.1531 17.45 15.1031 17.4344C14.8406 17.3531 14.6906 17.0719 14.775 16.8094C14.8594 16.5469 15.1375 16.3969 15.4 16.4812C15.4625 16.5 15.5219 16.5188 15.5812 16.5375C15.9375 16.65 16.2187 16.7406 16.5156 16.75C16.725 16.7563 16.9469 16.7156 17.0937 16.6375C17.1625 16.6 17.2 16.5625 17.2187 16.5344C17.2344 16.5094 17.2531 16.4688 17.25 16.3938C17.25 16.35 17.2437 16.3 17.1031 16.2188C16.9375 16.1219 16.7 16.05 16.3781 15.9594L16.3219 15.9438C16.0437 15.8656 15.7031 15.7688 15.4281 15.6219C15.1187 15.4563 14.7844 15.1625 14.7531 14.6625C14.7156 14.075 15.0656 13.6969 15.4344 13.5C15.6125 13.4031 15.8094 13.3406 15.9969 13.3031V13C15.9969 12.725 16.2219 12.5 16.4969 12.5C16.7719 12.5 16.9969 12.725 16.9969 13V13.2937C17.1937 13.3219 17.3812 13.3656 17.5562 13.4094C17.825 13.475 17.9875 13.7469 17.9219 14.0156C17.8562 14.2844 17.5844 14.4469 17.3156 14.3813C17.025 14.3094 16.7469 14.2563 16.4906 14.2531C16.2969 14.25 16.0656 14.2937 15.9062 14.3781C15.8312 14.4187 15.7937 14.4563 15.775 14.4844C15.7625 14.5063 15.7469 14.5344 15.75 14.5969L15.7531 14.5938Z" fill="black"/>
</svg>
