<svg width="24" height="24" viewBox="0 0 24 24" fill="none" xmlns="http://www.w3.org/2000/svg">
<path d="M18 7.41563L19.7063 5.70938C20.0969 5.31875 20.0969 4.68437 19.7063 4.29375C19.3156 3.90312 18.6812 3.90312 18.2906 4.29375L16.5844 6H9V8H14.5844L8 14.5844V5C8 4.44687 7.55312 4 7 4C6.44688 4 6 4.44687 6 5V6H5C4.44687 6 4 6.44688 4 7C4 7.55312 4.44687 8 5 8H6V16C6 17.1031 6.89687 18 8 18H15V16H9.41563L16 9.41563V19C16 19.5531 16.4469 20 17 20C17.5531 20 18 19.5531 18 19V18H19C19.5531 18 20 17.5531 20 17C20 16.4469 19.5531 16 19 16H18V7.41563Z" fill="black"/>
</svg>
