<svg width="24" height="24" viewBox="0 0 24 24" fill="none" xmlns="http://www.w3.org/2000/svg">
<path d="M3 7C3 5.89688 3.89688 5 5 5H19C20.1031 5 21 5.89688 21 7V17C21 18.1031 20.1031 19 19 19H5C3.89688 19 3 18.1031 3 17V7ZM9.25 10.5C9.69375 10.5 10.0938 10.6906 10.3688 11C10.6438 11.3094 11.1188 11.3344 11.4281 11.0594C11.7375 10.7844 11.7625 10.3094 11.4875 10C10.9406 9.3875 10.1406 9 9.25313 9C7.59688 9 6.25312 10.3438 6.25312 12C6.25312 13.6562 7.59688 15 9.25313 15C10.1406 15 10.9406 14.6125 11.4875 14C11.7625 13.6906 11.7375 13.2188 11.4281 12.9406C11.1188 12.6625 10.6469 12.6906 10.3688 13C10.0938 13.3094 9.69375 13.5 9.25 13.5C8.42188 13.5 7.75 12.8281 7.75 12C7.75 11.1719 8.42188 10.5 9.25 10.5ZM13.75 12C13.75 11.1719 14.4219 10.5 15.25 10.5C15.6938 10.5 16.0938 10.6906 16.3687 11C16.6437 11.3094 17.1188 11.3344 17.4281 11.0594C17.7375 10.7844 17.7625 10.3094 17.4875 10C16.9406 9.3875 16.1406 9 15.2531 9C13.5969 9 12.2531 10.3438 12.2531 12C12.2531 13.6562 13.5969 15 15.2531 15C16.1406 15 16.9406 14.6125 17.4875 14C17.7625 13.6906 17.7375 13.2188 17.4281 12.9406C17.1188 12.6625 16.6469 12.6906 16.3687 13C16.0938 13.3094 15.6938 13.5 15.25 13.5C14.4219 13.5 13.75 12.8281 13.75 12Z" fill="black"/>
</svg>
