<svg width="24" height="24" viewBox="0 0 24 24" fill="none" xmlns="http://www.w3.org/2000/svg">
<path d="M14 19.25C14 19.5469 13.825 19.8156 13.5562 19.9344C13.2875 20.0531 12.9688 20.0062 12.75 19.8062L10.25 17.5562C10.0906 17.4125 10.0031 17.2125 10.0031 17C10.0031 16.7875 10.0938 16.5844 10.25 16.4438L12.75 14.1938C12.9688 13.9969 13.2875 13.9469 13.5562 14.0656C13.825 14.1844 14 14.4531 14 14.75V16H14.5C15.6031 16 16.5 15.1031 16.5 14V8.79063C15.6156 8.40625 15 7.525 15 6.5C15 5.11875 16.1187 4 17.5 4C18.8813 4 20 5.11875 20 6.5C20 7.525 19.3844 8.40625 18.5 8.79063V14C18.5 16.2094 16.7094 18 14.5 18H14V19.25ZM18.25 6.5C18.25 6.30109 18.171 6.11032 18.0303 5.96967C17.8897 5.82902 17.6989 5.75 17.5 5.75C17.3011 5.75 17.1103 5.82902 16.9697 5.96967C16.829 6.11032 16.75 6.30109 16.75 6.5C16.75 6.69891 16.829 6.88968 16.9697 7.03033C17.1103 7.17098 17.3011 7.25 17.5 7.25C17.6989 7.25 17.8897 7.17098 18.0303 7.03033C18.171 6.88968 18.25 6.69891 18.25 6.5ZM10 4.75C10 4.45312 10.175 4.18437 10.4437 4.06562C10.7125 3.94687 11.0312 3.99375 11.25 4.19375L13.75 6.44375C13.9094 6.5875 13.9969 6.7875 13.9969 7C13.9969 7.2125 13.9062 7.41563 13.75 7.55625L11.25 9.80625C11.0312 10.0031 10.7125 10.0531 10.4437 9.93437C10.175 9.81562 10 9.54688 10 9.25V8H9.5C8.39688 8 7.5 8.89688 7.5 10V15.2094C8.38437 15.5938 9 16.475 9 17.5C9 18.8813 7.88125 20 6.5 20C5.11875 20 4 18.8813 4 17.5C4 16.475 4.61563 15.5938 5.5 15.2094V10C5.5 7.79063 7.29063 6 9.5 6H10V4.75ZM5.75 17.5C5.75 17.6989 5.82902 17.8897 5.96967 18.0303C6.11032 18.171 6.30109 18.25 6.5 18.25C6.69891 18.25 6.88968 18.171 7.03033 18.0303C7.17098 17.8897 7.25 17.6989 7.25 17.5C7.25 17.3011 7.17098 17.1103 7.03033 16.9697C6.88968 16.829 6.69891 16.75 6.5 16.75C6.30109 16.75 6.11032 16.829 5.96967 16.9697C5.82902 17.1103 5.75 17.3011 5.75 17.5Z" fill="black"/>
</svg>
