<svg width="24" height="24" viewBox="0 0 24 24" fill="none" xmlns="http://www.w3.org/2000/svg">
<path d="M12.0002 18C16.4189 18 20.0002 15.0906 20.0002 11.5C20.0002 7.90937 16.4189 5 12.0002 5C7.58141 5 4.00016 7.90937 4.00016 11.5C4.00016 12.9094 4.55328 14.2125 5.49078 15.2781C5.43141 16.0437 5.13453 16.725 4.82203 17.2437C4.65016 17.5312 4.47516 17.7625 4.34703 17.9187C4.28141 17.9969 4.23141 18.0563 4.19391 18.0969C4.17516 18.1156 4.16266 18.1313 4.15328 18.1406L4.14391 18.15C4.00016 18.2937 3.95953 18.5063 4.03766 18.6938C4.11578 18.8813 4.29703 19.0031 4.50016 19.0031C5.39703 19.0031 6.30016 18.725 7.05016 18.4C7.76578 18.0875 8.37516 17.7156 8.74703 17.4438C9.74078 17.8031 10.8408 18.0031 12.0002 18.0031V18ZM10.0002 8.5C10.2654 8.5 10.5197 8.60536 10.7073 8.79289C10.8948 8.98043 11.0002 9.23478 11.0002 9.5C11.0002 9.76522 10.8948 10.0196 10.7073 10.2071C10.5197 10.3946 10.2654 10.5 10.0002 10.5C9.73494 10.5 9.48059 10.3946 9.29305 10.2071C9.10552 10.0196 9.00016 9.76522 9.00016 9.5C9.00016 9.23478 9.10552 8.98043 9.29305 8.79289C9.48059 8.60536 9.73494 8.5 10.0002 8.5ZM14.0002 8.5C14.2654 8.5 14.5197 8.60536 14.7073 8.79289C14.8948 8.98043 15.0002 9.23478 15.0002 9.5C15.0002 9.76522 14.8948 10.0196 14.7073 10.2071C14.5197 10.3946 14.2654 10.5 14.0002 10.5C13.7349 10.5 13.4806 10.3946 13.2931 10.2071C13.1055 10.0196 13.0002 9.76522 13.0002 9.5C13.0002 9.23478 13.1055 8.98043 13.2931 8.79289C13.4806 8.60536 13.7349 8.5 14.0002 8.5ZM8.70328 12.4406C9.01266 12.1656 9.48453 12.1906 9.76266 12.5C10.3127 13.1156 11.1095 13.5 12.0002 13.5C12.8908 13.5 13.6845 13.1156 14.2377 12.5C14.5127 12.1906 14.9877 12.1656 15.297 12.4406C15.6064 12.7156 15.6314 13.1906 15.3564 13.5C14.5314 14.4187 13.3314 15 12.0002 15C10.6689 15 9.46891 14.4187 8.64703 13.5C8.37203 13.1906 8.39703 12.7188 8.70641 12.4406H8.70328Z" fill="black"/>
</svg>
