<svg width="24" height="24" viewBox="0 0 24 24" fill="none" xmlns="http://www.w3.org/2000/svg">
<path d="M6 6C6 5.44687 5.55313 5 5 5C4.44687 5 4 5.44687 4 6V16.5C4 17.8813 5.11875 19 6.5 19H19C19.5531 19 20 18.5531 20 18C20 17.4469 19.5531 17 19 17H6.5C6.225 17 6 16.775 6 16.5V6ZM9 15H18C18.5531 15 19 14.5531 19 14V11.8688C19 11.6312 18.9156 11.4 18.7594 11.2188L16.7031 8.81875C16.325 8.375 15.65 8.35 15.2375 8.7625L14.5813 9.41875C14.2688 9.73125 13.7563 9.70625 13.475 9.36875L12.25 7.9C11.8562 7.42813 11.1344 7.41875 10.7281 7.88125L8.24687 10.7188C8.0875 10.9 8 11.1344 8 11.3781V14.0031C8 14.5563 8.44688 15.0031 9 15.0031V15Z" fill="black"/>
</svg>
