<svg width="24" height="24" viewBox="0 0 24 24" fill="none" xmlns="http://www.w3.org/2000/svg">
<path d="M11.3281 4.17813C11.7625 4.02188 12.2375 4.02188 12.675 4.17813L18.675 6.32188C19.4688 6.60626 20 7.35938 20 8.20626V15.7938C20 16.6375 19.4688 17.3938 18.6719 17.6781L12.6719 19.8219C12.2375 19.9781 11.7625 19.9781 11.325 19.8219L5.325 17.6781C4.53125 17.3938 4 16.6406 4 15.7938V8.20626C4 7.36251 4.53125 6.60626 5.32812 6.32188L11.3281 4.17813ZM12 6.06251L6.57188 8.00001L12 9.93751L17.4281 8.00001L12 6.06251ZM13 17.5813L18 15.7969V9.92188L13 11.7063V17.5813Z" fill="black"/>
</svg>
