<svg width="24" height="24" viewBox="0 0 24 24" fill="none" xmlns="http://www.w3.org/2000/svg">
<path d="M11.725 4.53131C11.0344 4.43444 10.3313 4.55944 9.71255 4.88756L7.40005 6.12194C6.78442 6.45006 6.28755 6.96569 5.9813 7.59381L4.83442 9.95631C4.52817 10.5844 4.42817 11.2969 4.55005 11.9844L5.00317 14.5719C5.12505 15.2626 5.45942 15.8938 5.96255 16.3813L7.84692 18.2063C8.35005 18.6938 8.99067 19.0063 9.6813 19.1032L12.275 19.4688C12.9657 19.5657 13.6688 19.4407 14.2875 19.1126L16.6 17.8782C17.2157 17.5501 17.7126 17.0344 18.0188 16.4032L19.1657 14.0438C19.4719 13.4157 19.5719 12.7032 19.45 12.0157L18.9938 9.42819C18.8719 8.73756 18.5375 8.10631 18.0344 7.61881L16.1532 5.79694C15.65 5.30944 15.0094 4.99694 14.3188 4.90006L11.725 4.53131ZM10.5 8.50006C10.7653 8.50006 11.0196 8.60542 11.2072 8.79295C11.3947 8.98049 11.5 9.23484 11.5 9.50006C11.5 9.76528 11.3947 10.0196 11.2072 10.2072C11.0196 10.3947 10.7653 10.5001 10.5 10.5001C10.2348 10.5001 9.98048 10.3947 9.79294 10.2072C9.60541 10.0196 9.50005 9.76528 9.50005 9.50006C9.50005 9.23484 9.60541 8.98049 9.79294 8.79295C9.98048 8.60542 10.2348 8.50006 10.5 8.50006ZM8.50005 14.5001C8.50005 14.2348 8.60541 13.9805 8.79294 13.793C8.98048 13.6054 9.23483 13.5001 9.50005 13.5001C9.76527 13.5001 10.0196 13.6054 10.2072 13.793C10.3947 13.9805 10.5 14.2348 10.5 14.5001C10.5 14.7653 10.3947 15.0196 10.2072 15.2072C10.0196 15.3947 9.76527 15.5001 9.50005 15.5001C9.23483 15.5001 8.98048 15.3947 8.79294 15.2072C8.60541 15.0196 8.50005 14.7653 8.50005 14.5001ZM15.5 12.5001C15.7653 12.5001 16.0196 12.6054 16.2072 12.793C16.3947 12.9805 16.5 13.2348 16.5 13.5001C16.5 13.7653 16.3947 14.0196 16.2072 14.2072C16.0196 14.3947 15.7653 14.5001 15.5 14.5001C15.2348 14.5001 14.9805 14.3947 14.7929 14.2072C14.6054 14.0196 14.5 13.7653 14.5 13.5001C14.5 13.2348 14.6054 12.9805 14.7929 12.793C14.9805 12.6054 15.2348 12.5001 15.5 12.5001Z" fill="black"/>
</svg>
