<svg width="24" height="24" viewBox="0 0 24 24" fill="none" xmlns="http://www.w3.org/2000/svg">
<path d="M11.1938 4.03753C11.3532 4.10316 11.4657 4.24691 11.4938 4.41566L11.8188 6.36566C11.0907 6.70316 10.4782 7.25316 10.0688 7.93753C9.61253 7.65628 9.07503 7.49691 8.50003 7.49691C6.84378 7.49691 5.50003 8.84066 5.50003 10.4969C5.50003 11.6063 6.10316 12.5782 7.00003 13.0969C7.02503 14.0907 7.41253 14.9938 8.03441 15.6813L6.28441 16.9063C6.14378 17.0032 5.96253 17.025 5.80316 16.9563C5.64378 16.8875 5.53128 16.7469 5.50316 16.5782L5.06566 13.9344L2.41878 13.4938C2.25003 13.4657 2.10628 13.3532 2.04066 13.1938C1.97503 13.0344 1.99378 12.8532 2.09066 12.7125L3.64066 10.5L2.09066 8.28753C1.99066 8.14691 1.97191 7.96566 2.04066 7.80628C2.10941 7.64691 2.25003 7.53441 2.41878 7.50628L5.06566 7.06566L5.50628 4.41878C5.53441 4.25003 5.64691 4.10628 5.80628 4.04066C5.96566 3.97503 6.14691 3.99378 6.28753 4.09066L8.50003 5.64066L10.7125 4.09066C10.8532 3.99066 11.0344 3.97191 11.1938 4.04066V4.03753ZM8.50003 8.50003C8.93128 8.50003 9.33441 8.63753 9.65941 8.87191C9.62191 9.00003 9.59066 9.13128 9.56566 9.26566C8.38128 9.72191 7.46566 10.7219 7.13441 11.9657C6.74378 11.5969 6.50003 11.0782 6.50003 10.5C6.50003 9.39691 7.39691 8.50003 8.50003 8.50003ZM21.9969 13.4969C21.9969 14.8782 20.8782 15.9969 19.4969 15.9969H18.9157C19.025 15.6813 19.0313 15.3313 18.9157 15.0032C18.7032 14.4032 18.1375 14 17.5 14H16.9282L17.8438 12.1719C18.1594 11.5407 17.9938 10.7782 17.4438 10.3344C16.8938 9.89066 16.1125 9.89066 15.5625 10.3282L10.5625 14.3282C10.1094 14.6907 9.90941 15.2813 10.0375 15.8407C8.85316 15.4407 8.00003 14.3188 8.00003 13C8.00003 11.5125 9.08128 10.2813 10.5 10.0438V10.0032C10.5 8.34691 11.8438 7.00316 13.5 7.00316C14.5907 7.00316 15.5438 7.58441 16.0688 8.45316C16.475 8.16878 16.9688 8.00316 17.5 8.00316C18.8813 8.00316 20 9.12191 20 10.5032C20 10.6875 19.9813 10.8688 19.9407 11.0407C21.1094 11.25 21.9969 12.2719 21.9969 13.5V13.4969ZM16.8157 11.1125C16.9969 11.2594 17.0532 11.5157 16.95 11.725L15.3094 15H17.5C17.7125 15 17.9 15.1344 17.9719 15.3344C18.0438 15.5344 17.9782 15.7563 17.8125 15.8907L12.8125 19.8907C12.6282 20.0375 12.3688 20.0375 12.1844 19.8875C12 19.7375 11.9469 19.4844 12.05 19.275L13.6907 16H11.5C11.2875 16 11.1 15.8657 11.0282 15.6657C10.9563 15.4657 11.0219 15.2438 11.1875 15.1094L16.1875 11.1094C16.3719 10.9625 16.6313 10.9625 16.8157 11.1125Z" fill="black"/>
</svg>
