<svg width="24" height="24" viewBox="0 0 24 24" fill="none" xmlns="http://www.w3.org/2000/svg">
<path d="M9.2 4.34062L6.35625 7.59063C6.12812 7.85313 6 8.19375 6 8.54375C6 8.68125 6.01875 8.81563 6.05625 8.94688L9.04063 19.2781C9.16563 19.7063 9.55625 20 10 20H13.9969C14.4437 20 14.8344 19.7063 14.9563 19.2781L17.9406 8.94688C17.9781 8.81563 17.9969 8.68125 17.9969 8.54375C17.9969 8.19375 17.8687 7.85313 17.6375 7.5875L14.7937 4.3375C14.6094 4.125 14.3344 4 14.0469 4H9.95312C9.66563 4 9.39062 4.125 9.2 4.34062ZM12.75 7.75V9H14.25C14.6656 9 15 9.33437 15 9.75C15 10.1656 14.6656 10.5 14.25 10.5H12.75V14.25C12.75 14.6656 12.4156 15 12 15C11.5844 15 11.25 14.6656 11.25 14.25V10.5H9.75C9.33437 10.5 9 10.1656 9 9.75C9 9.33437 9.33437 9 9.75 9H11.25V7.75C11.25 7.33437 11.5844 7 12 7C12.4156 7 12.75 7.33437 12.75 7.75Z" fill="black"/>
</svg>
