<svg width="24" height="24" viewBox="0 0 24 24" fill="none" xmlns="http://www.w3.org/2000/svg">
<path d="M20.5 6.01252C17.5875 6.1719 15.0437 7.71877 13.5156 10H13.5C12.8844 10 12.3031 10.1594 11.8 10.4406C11.6281 10.2531 11.4406 10.0844 11.2375 9.92815C12.9969 6.54377 16.4656 4.19065 20.5 4.01252C20.775 4.00002 21 4.22502 21 4.50002V5.50002C21 5.77502 20.775 6.00002 20.5 6.01252ZM16.25 11.3344C15.8344 10.8063 15.2656 10.4 14.6156 10.1813C15.9813 8.3719 18.0969 7.16252 20.5 7.01565C20.775 7.00002 21 7.22502 21 7.50002V8.50002C21 8.77502 20.775 8.9969 20.5 9.0219C18.7719 9.16565 17.25 10.0406 16.25 11.3344ZM16.9812 13.1219C16.95 12.8375 16.8875 12.5625 16.7906 12.3031C17.5938 11.05 18.9437 10.1813 20.5031 10.025C20.7781 9.9969 21.0031 10.225 21.0031 10.5V11.5C21.0031 11.775 20.7781 11.9969 20.5063 12.0406C19.525 12.2031 18.7031 12.8469 18.2906 13.7188C17.9 13.4469 17.4594 13.2406 16.9844 13.1219H16.9812ZM6 20C4.34375 20 3 18.6563 3 17C3 15.6719 3.8625 14.5438 5.05938 14.15C5.02188 13.9406 5 13.7219 5 13.5C5 11.5656 6.56562 10 8.5 10C9.84688 10 11.0156 10.7594 11.6 11.875C12.0594 11.3406 12.7406 11 13.5 11C14.8813 11 16 12.1188 16 13.5C16 13.6719 15.9812 13.8375 15.95 14C15.9656 14 15.9844 14 16 14C17.6562 14 19 15.3438 19 17C19 18.6563 17.6562 20 16 20H6Z" fill="black"/>
</svg>
