<svg width="24" height="24" viewBox="0 0 24 24" fill="none" xmlns="http://www.w3.org/2000/svg">
<path d="M12 18C16.4188 18 20 15.0906 20 11.5C20 7.90937 16.4188 5 12 5C7.58129 5 4.00004 7.90937 4.00004 11.5C4.00004 12.9094 4.55316 14.2125 5.49066 15.2781C5.43129 16.0437 5.13441 16.725 4.82191 17.2437C4.65004 17.5312 4.47504 17.7625 4.34691 17.9187C4.28129 17.9969 4.23129 18.0563 4.19379 18.0969C4.17504 18.1156 4.16254 18.1312 4.15316 18.1406L4.14379 18.15C4.00004 18.2937 3.95941 18.5063 4.03754 18.6938C4.11566 18.8813 4.29691 19.0031 4.50004 19.0031C5.39691 19.0031 6.30004 18.725 7.05004 18.4C7.76566 18.0875 8.37504 17.7156 8.74691 17.4438C9.74066 17.8031 10.8407 18.0031 12 18.0031V18ZM11 9C11 8.725 11.225 8.5 11.5 8.5H12.5C12.775 8.5 13 8.725 13 9V10.5H14.5C14.775 10.5 15 10.725 15 11V12C15 12.275 14.775 12.5 14.5 12.5H13V14C13 14.275 12.775 14.5 12.5 14.5H11.5C11.225 14.5 11 14.275 11 14V12.5H9.50004C9.22504 12.5 9.00004 12.275 9.00004 12V11C9.00004 10.725 9.22504 10.5 9.50004 10.5H11V9Z" fill="black"/>
</svg>
