<svg width="24" height="24" viewBox="0 0 24 24" fill="none" xmlns="http://www.w3.org/2000/svg">
<path d="M12.7062 5.29376C12.3156 4.90314 11.6812 4.90314 11.2906 5.29376L5.29062 11.2938C4.89999 11.6844 4.89999 12.3188 5.29062 12.7094C5.68124 13.1 6.31562 13.1 6.70624 12.7094L12 7.41564L17.2937 12.7063C17.6844 13.0969 18.3187 13.0969 18.7094 12.7063C19.1 12.3156 19.1 11.6813 18.7094 11.2906L12.7094 5.29064L12.7062 5.29376ZM18.7062 17.2938L12.7062 11.2938C12.3156 10.9031 11.6812 10.9031 11.2906 11.2938L5.29062 17.2938C4.89999 17.6844 4.89999 18.3188 5.29062 18.7094C5.68124 19.1 6.31562 19.1 6.70624 18.7094L12 13.4156L17.2937 18.7063C17.6844 19.0969 18.3187 19.0969 18.7094 18.7063C19.1 18.3156 19.1 17.6813 18.7094 17.2906L18.7062 17.2938Z" fill="black"/>
</svg>
