<svg width="24" height="24" viewBox="0 0 24 24" fill="none" xmlns="http://www.w3.org/2000/svg">
<path d="M3 17H3.5V18C3.5 18.5531 3.94687 19 4.5 19H5C5.55312 19 6 18.5531 6 18V17H8V15C8 13.975 8.51562 13.0687 9.3 12.5281L9.80937 11H8.5V7H11.25C11.6656 7 12 7.33437 12 7.75V8.2625C12.4125 8.09375 12.8656 8 13.3313 8H14V6.32812C14 5.82187 13.7125 5.35938 13.2594 5.13125C11.775 4.3875 10.1344 4 8.47188 4H7.52812C5.86562 4 4.225 4.3875 2.74063 5.13125C2.2875 5.35625 2 5.81875 2 6.32812V16C2 16.5531 2.44687 17 3 17ZM4.75 7H7.5V11H4.75C4.33437 11 4 10.6656 4 10.25V7.75C4 7.33437 4.33437 7 4.75 7ZM5 13.25C5.19891 13.25 5.38968 13.329 5.53033 13.4697C5.67098 13.6103 5.75 13.8011 5.75 14C5.75 14.1989 5.67098 14.3897 5.53033 14.5303C5.38968 14.671 5.19891 14.75 5 14.75C4.80109 14.75 4.61032 14.671 4.46967 14.5303C4.32902 14.3897 4.25 14.1989 4.25 14C4.25 13.8011 4.32902 13.6103 4.46967 13.4697C4.61032 13.329 4.80109 13.25 5 13.25ZM13.3313 11H17.6687C17.8844 11 18.075 11.1375 18.1437 11.3406L18.6969 13H12.3031L12.8562 11.3406C12.925 11.1375 13.1156 11 13.3313 11ZM10.9594 10.7094L10.1281 13.2C9.4625 13.5219 9 14.2063 9 15V18V19C9 19.5531 9.44688 20 10 20H10.5C11.0531 20 11.5 19.5531 11.5 19V18H19.5V19C19.5 19.5531 19.9469 20 20.5 20H21C21.5531 20 22 19.5531 22 19V18V15C22 14.2063 21.5375 13.5219 20.8719 13.2L20.0406 10.7094C19.7 9.6875 18.7437 9 17.6687 9H13.3313C12.2563 9 11.3 9.6875 10.9594 10.7094ZM11.5 14.75C11.6989 14.75 11.8897 14.829 12.0303 14.9697C12.171 15.1103 12.25 15.3011 12.25 15.5C12.25 15.6989 12.171 15.8897 12.0303 16.0303C11.8897 16.171 11.6989 16.25 11.5 16.25C11.3011 16.25 11.1103 16.171 10.9697 16.0303C10.829 15.8897 10.75 15.6989 10.75 15.5C10.75 15.3011 10.829 15.1103 10.9697 14.9697C11.1103 14.829 11.3011 14.75 11.5 14.75ZM18.75 15.5C18.75 15.3011 18.829 15.1103 18.9697 14.9697C19.1103 14.829 19.3011 14.75 19.5 14.75C19.6989 14.75 19.8897 14.829 20.0303 14.9697C20.171 15.1103 20.25 15.3011 20.25 15.5C20.25 15.6989 20.171 15.8897 20.0303 16.0303C19.8897 16.171 19.6989 16.25 19.5 16.25C19.3011 16.25 19.1103 16.171 18.9697 16.0303C18.829 15.8897 18.75 15.6989 18.75 15.5Z" fill="black"/>
</svg>
