<svg width="24" height="24" viewBox="0 0 24 24" fill="none" xmlns="http://www.w3.org/2000/svg">
<path d="M12 18C16.4187 18 20 15.0906 20 11.5C20 7.90937 16.4187 5 12 5C7.58123 5 3.99998 7.90937 3.99998 11.5C3.99998 12.9094 4.5531 14.2125 5.4906 15.2781C5.43123 16.0437 5.13435 16.725 4.82185 17.2437C4.64998 17.5312 4.47498 17.7625 4.34685 17.9187C4.28123 17.9969 4.23123 18.0563 4.19373 18.0969C4.17498 18.1156 4.16248 18.1312 4.1531 18.1406L4.14373 18.15C3.99998 18.2937 3.95935 18.5063 4.03748 18.6938C4.1156 18.8813 4.29685 19.0031 4.49998 19.0031C5.39685 19.0031 6.29998 18.725 7.04998 18.4C7.7656 18.0875 8.37498 17.7156 8.74685 17.4438C9.7406 17.8031 10.8406 18.0031 12 18.0031V18ZM8.49998 10.4156C8.49998 9.35938 9.35623 8.5 10.4156 8.5C10.9219 8.5 11.4094 8.70312 11.7687 9.05937L12 9.29063L12.2312 9.05937C12.5906 8.7 13.0781 8.5 13.5844 8.5C14.6406 8.5 15.5 9.35625 15.5 10.4156C15.5 10.9219 15.2969 11.4094 14.9406 11.7688L12.3562 14.3531C12.1625 14.5469 11.8437 14.5469 11.65 14.3531L9.0656 11.7688C8.70623 11.4094 8.50623 10.9219 8.50623 10.4156H8.49998Z" fill="black"/>
</svg>
