<svg width="24" height="24" viewBox="0 0 24 24" fill="none" xmlns="http://www.w3.org/2000/svg">
<path d="M16.25 4C14.7312 4 13.5 5.23125 13.5 6.75V7.6625L2.3906 16.2063C1.9531 16.5438 1.87185 17.1719 2.20623 17.6094C2.5406 18.0469 3.17185 18.1281 3.60935 17.7937L5.9406 16H10.1L11.5562 19.5344C11.7125 19.9188 12.1531 20.1 12.5344 19.9438C12.9156 19.7875 13.1 19.3469 12.9437 18.9656L11.7219 16H13C13.0344 16 13.0656 16 13.1 16L14.5562 19.5375C14.7125 19.9219 15.1531 20.1031 15.5344 19.9469C15.9156 19.7906 16.1 19.35 15.9437 18.9688L14.6312 15.7812C17.1531 15.0656 19 12.75 19 10V8V7.75L21.5156 7.12188C21.7844 7.05625 21.9468 6.78438 21.8781 6.51562C21.6562 5.625 20.8562 5 19.9375 5H18.3719C17.8656 4.39062 17.1031 4 16.25 4ZM16.25 6C16.3485 6 16.446 6.0194 16.537 6.05709C16.628 6.09478 16.7107 6.15003 16.7803 6.21967C16.8499 6.28931 16.9052 6.37199 16.9429 6.46299C16.9806 6.55398 17 6.65151 17 6.75C17 6.84849 16.9806 6.94602 16.9429 7.03701C16.9052 7.12801 16.8499 7.21069 16.7803 7.28033C16.7107 7.34997 16.628 7.40522 16.537 7.44291C16.446 7.4806 16.3485 7.5 16.25 7.5C16.1515 7.5 16.054 7.4806 15.963 7.44291C15.872 7.40522 15.7893 7.34997 15.7196 7.28033C15.65 7.21069 15.5948 7.12801 15.5571 7.03701C15.5194 6.94602 15.5 6.84849 15.5 6.75C15.5 6.65151 15.5194 6.55398 15.5571 6.46299C15.5948 6.37199 15.65 6.28931 15.7196 6.21967C15.7893 6.15003 15.872 6.09478 15.963 6.05709C16.054 6.0194 16.1515 6 16.25 6Z" fill="black"/>
</svg>
