<svg width="24" height="24" viewBox="0 0 24 24" fill="none" xmlns="http://www.w3.org/2000/svg">
<path d="M20 12C20 9.87827 19.1571 7.84344 17.6569 6.34315C16.1566 4.84285 14.1217 4 12 4C9.87827 4 7.84344 4.84285 6.34315 6.34315C4.84285 7.84344 4 9.87827 4 12C4 14.1217 4.84285 16.1566 6.34315 17.6569C7.84344 19.1571 9.87827 20 12 20C14.1217 20 16.1566 19.1571 17.6569 17.6569C19.1571 16.1566 20 14.1217 20 12ZM12.3531 16.8531C12.1594 17.0469 11.8406 17.0469 11.6469 16.8531L8.64687 13.8531C8.50312 13.7094 8.4625 13.4937 8.5375 13.3094C8.6125 13.125 8.79688 13 9 13H15C15.2031 13 15.3844 13.1219 15.4625 13.3094C15.5406 13.4969 15.4969 13.7125 15.3531 13.8531L12.3531 16.8531ZM12.3531 7.14687L15.3531 10.1469C15.4969 10.2906 15.5375 10.5063 15.4625 10.6906C15.3875 10.875 15.2031 11 15 11H9C8.79688 11 8.61562 10.8781 8.5375 10.6906C8.45937 10.5031 8.50312 10.2875 8.64687 10.1469L11.6469 7.14687C11.8406 6.95312 12.1594 6.95312 12.3531 7.14687ZM13.7937 10L12 8.20625L10.2063 10H13.7937Z" fill="black"/>
</svg>
