<svg width="24" height="24" viewBox="0 0 24 24" fill="none" xmlns="http://www.w3.org/2000/svg">
<path d="M4 12C4 9.87827 4.84285 7.84344 6.34315 6.34315C7.84344 4.84285 9.87827 4 12 4C14.1217 4 16.1566 4.84285 17.6569 6.34315C19.1571 7.84344 20 9.87827 20 12C20 14.1217 19.1571 16.1566 17.6569 17.6569C16.1566 19.1571 14.1217 20 12 20C9.87827 20 7.84344 19.1571 6.34315 17.6569C4.84285 16.1566 4 14.1217 4 12ZM12.25 8H11.75C10.5063 8 9.5 9.00625 9.5 10.25C9.5 10.7406 9.65625 11.1906 9.92188 11.5625C9.35938 12.0219 9 12.7188 9 13.5C9 14.8813 10.1187 16 11.5 16H12.5C13.8813 16 15 14.8813 15 13.5C15 12.7188 14.6406 12.0188 14.0781 11.5625C14.3438 11.1937 14.5 10.7406 14.5 10.25C14.5 9.00625 13.4937 8 12.25 8ZM11.75 11C11.3375 11 11 10.6625 11 10.25C11 9.8375 11.3344 9.5 11.75 9.5H12.25C12.6656 9.5 13 9.83437 13 10.25C13 10.6656 12.6656 11 12.25 11H11.75ZM12.25 12.5H12.5C13.0531 12.5 13.5 12.9469 13.5 13.5C13.5 14.0531 13.0531 14.5 12.5 14.5H11.5C10.9469 14.5 10.5 14.0531 10.5 13.5C10.5 12.9469 10.9469 12.5 11.5 12.5H11.75H12.25Z" fill="black"/>
</svg>
