<svg width="24" height="24" viewBox="0 0 24 24" fill="none" xmlns="http://www.w3.org/2000/svg">
<path d="M11.9999 18C16.4187 18 19.9999 15.0906 19.9999 11.5C19.9999 7.90937 16.4187 5 11.9999 5C7.58116 5 3.99991 7.90937 3.99991 11.5C3.99991 12.9094 4.55304 14.2125 5.49054 15.2781C5.43116 16.0437 5.13429 16.725 4.82179 17.2437C4.64991 17.5312 4.47491 17.7625 4.34679 17.9187C4.28116 17.9969 4.23116 18.0563 4.19366 18.0969C4.17491 18.1156 4.16241 18.1313 4.15304 18.1406L4.14366 18.15C3.99991 18.2937 3.95929 18.5063 4.03741 18.6938C4.11554 18.8813 4.29679 19.0031 4.49991 19.0031C5.39679 19.0031 6.29991 18.725 7.04991 18.4C7.76554 18.0875 8.37491 17.7156 8.74679 17.4438C9.74054 17.8031 10.8405 18.0031 11.9999 18.0031V18ZM7.74991 10.5H12.2499C12.6655 10.5 12.9999 10.8344 12.9999 11.25C12.9999 11.6656 12.6655 12 12.2499 12H7.74991C7.33429 12 6.99991 11.6656 6.99991 11.25C6.99991 10.8344 7.33429 10.5 7.74991 10.5ZM14.7499 10.5H16.2499C16.6655 10.5 16.9999 10.8344 16.9999 11.25C16.9999 11.6656 16.6655 12 16.2499 12H14.7499C14.3343 12 13.9999 11.6656 13.9999 11.25C13.9999 10.8344 14.3343 10.5 14.7499 10.5ZM7.74991 13H9.24991C9.66554 13 9.99991 13.3344 9.99991 13.75C9.99991 14.1656 9.66554 14.5 9.24991 14.5H7.74991C7.33429 14.5 6.99991 14.1656 6.99991 13.75C6.99991 13.3344 7.33429 13 7.74991 13ZM11.7499 13H16.2499C16.6655 13 16.9999 13.3344 16.9999 13.75C16.9999 14.1656 16.6655 14.5 16.2499 14.5H11.7499C11.3343 14.5 10.9999 14.1656 10.9999 13.75C10.9999 13.3344 11.3343 13 11.7499 13Z" fill="black"/>
</svg>
