<svg width="24" height="24" viewBox="0 0 24 24" fill="none" xmlns="http://www.w3.org/2000/svg">
<path d="M12 18C16.4188 18 20 15.0906 20 11.5C20 7.90937 16.4188 5 12 5C7.58129 5 4.00004 7.90937 4.00004 11.5C4.00004 12.9094 4.55316 14.2125 5.49066 15.2781C5.43129 16.0437 5.13441 16.725 4.82191 17.2437C4.65004 17.5312 4.47504 17.7625 4.34691 17.9187C4.28129 17.9969 4.23129 18.0563 4.19379 18.0969C4.17504 18.1156 4.16254 18.1313 4.15316 18.1406L4.14379 18.15C4.00004 18.2937 3.95941 18.5063 4.03754 18.6938C4.11566 18.8813 4.29691 19.0031 4.50004 19.0031C5.39691 19.0031 6.30004 18.725 7.05004 18.4C7.76566 18.0875 8.37504 17.7156 8.74691 17.4438C9.74066 17.8031 10.8407 18.0031 12 18.0031V18ZM9.46879 8.96875C9.76254 8.675 10.2375 8.675 10.5282 8.96875L11.9969 10.4375L13.4657 8.96875C13.7594 8.675 14.2344 8.675 14.525 8.96875C14.8157 9.2625 14.8188 9.7375 14.525 10.0281L13.0563 11.4969L14.525 12.9656C14.8188 13.2594 14.8188 13.7344 14.525 14.025C14.2313 14.3156 13.7563 14.3187 13.4657 14.025L11.9969 12.5562L10.5282 14.025C10.2344 14.3187 9.75941 14.3187 9.46879 14.025C9.17816 13.7312 9.17504 13.2562 9.46879 12.9656L10.9375 11.4969L9.46879 10.0281C9.17504 9.73438 9.17504 9.25938 9.46879 8.96875Z" fill="black"/>
</svg>
