<svg width="24" height="24" viewBox="0 0 24 24" fill="none" xmlns="http://www.w3.org/2000/svg">
<path d="M12 20C14.1217 20 16.1566 19.1571 17.6569 17.6569C19.1571 16.1566 20 14.1217 20 12C20 9.87827 19.1571 7.84344 17.6569 6.34315C16.1566 4.84285 14.1217 4 12 4C9.87827 4 7.84344 4.84285 6.34315 6.34315C4.84285 7.84344 4 9.87827 4 12C4 14.1217 4.84285 16.1566 6.34315 17.6569C7.84344 19.1571 9.87827 20 12 20ZM8.12187 12.7781C7.20312 11.8469 7.20312 10.3344 8.12187 9.40312C9.04062 8.47187 10.5281 8.47187 11.4469 9.40312L12 9.96562L12.5531 9.40312C13.4719 8.47187 14.9594 8.47187 15.8781 9.40312C16.7969 10.3344 16.7969 11.8469 15.8781 12.7781L12.7031 16.0031C12.5094 16.2 12.2563 16.2969 12 16.2969C11.7438 16.2969 11.4906 16.2 11.2969 16.0031L8.12187 12.7781Z" fill="black"/>
</svg>
