<svg width="24" height="24" viewBox="0 0 24 24" fill="none" xmlns="http://www.w3.org/2000/svg">
<path d="M3.21268 4.15943C2.88768 3.90318 2.4158 3.96255 2.15955 4.28755C1.9033 4.61255 1.96268 5.08443 2.28768 5.34068L20.7877 19.8407C21.1127 20.0969 21.5846 20.0376 21.8408 19.7126C22.0971 19.3876 22.0377 18.9157 21.7127 18.6594L19.5096 16.9344C20.3658 16.7094 20.9971 15.9282 20.9971 15.0001V6.00005C20.9971 4.89693 20.1002 4.00005 18.9971 4.00005H5.00018C4.48768 4.00005 4.01893 4.1938 3.66268 4.51255L3.21268 4.15943ZM5.55955 6.00005H19.0002V15.0001H17.0439L5.55955 6.00005ZM3.00018 15.0001C3.00018 16.1032 3.89705 17.0001 5.00018 17.0001H10.5002L10.1658 18.0001H8.00018C7.44705 18.0001 7.00018 18.4469 7.00018 19.0001C7.00018 19.5532 7.44705 20.0001 8.00018 20.0001H16.0002C16.5533 20.0001 17.0002 19.5532 17.0002 19.0001C17.0002 18.9344 16.9939 18.8719 16.9814 18.8094L15.9564 18.0001H13.8346L13.5002 17.0001H14.6877L12.1502 15.0001H5.00018V9.3688L3.00018 7.7938V15.0001Z" fill="black"/>
</svg>
