<svg width="24" height="24" viewBox="0 0 24 24" fill="none" xmlns="http://www.w3.org/2000/svg">
<path d="M7 4C5.89688 4 5 4.89688 5 6V18C5 19.1031 5.89688 20 7 20H17C18.1031 20 19 19.1031 19 18V6C19 4.89688 18.1031 4 17 4H7ZM12 9C12.5909 9 13.1761 9.1164 13.7221 9.34254C14.268 9.56869 14.7641 9.90016 15.182 10.318C15.5998 10.7359 15.9313 11.232 16.1575 11.7779C16.3836 12.3239 16.5 12.9091 16.5 13.5C16.5 14.0909 16.3836 14.6761 16.1575 15.2221C15.9313 15.768 15.5998 16.2641 15.182 16.682C14.7641 17.0998 14.268 17.4313 13.7221 17.6575C13.1761 17.8836 12.5909 18 12 18C11.4091 18 10.8239 17.8836 10.2779 17.6575C9.73196 17.4313 9.23588 17.0998 8.81802 16.682C8.40016 16.2641 8.06869 15.768 7.84254 15.2221C7.6164 14.6761 7.5 14.0909 7.5 13.5C7.5 12.9091 7.6164 12.3239 7.84254 11.7779C8.06869 11.232 8.40016 10.7359 8.81802 10.318C9.23588 9.90016 9.73196 9.56869 10.2779 9.34254C10.8239 9.1164 11.4091 9 12 9ZM7 6.75C7 6.65151 7.0194 6.55398 7.05709 6.46299C7.09478 6.37199 7.15003 6.28931 7.21967 6.21967C7.28931 6.15003 7.37199 6.09478 7.46299 6.05709C7.55398 6.0194 7.65151 6 7.75 6C7.84849 6 7.94602 6.0194 8.03701 6.05709C8.12801 6.09478 8.21069 6.15003 8.28033 6.21967C8.34997 6.28931 8.40522 6.37199 8.44291 6.46299C8.4806 6.55398 8.5 6.65151 8.5 6.75C8.5 6.84849 8.4806 6.94602 8.44291 7.03701C8.40522 7.12801 8.34997 7.21069 8.28033 7.28033C8.21069 7.34997 8.12801 7.40522 8.03701 7.44291C7.94602 7.4806 7.84849 7.5 7.75 7.5C7.65151 7.5 7.55398 7.4806 7.46299 7.44291C7.37199 7.40522 7.28931 7.34997 7.21967 7.28033C7.15003 7.21069 7.09478 7.12801 7.05709 7.03701C7.0194 6.94602 7 6.84849 7 6.75ZM10.75 6C10.8485 6 10.946 6.0194 11.037 6.05709C11.128 6.09478 11.2107 6.15003 11.2803 6.21967C11.35 6.28931 11.4052 6.37199 11.4429 6.46299C11.4806 6.55398 11.5 6.65151 11.5 6.75C11.5 6.84849 11.4806 6.94602 11.4429 7.03701C11.4052 7.12801 11.35 7.21069 11.2803 7.28033C11.2107 7.34997 11.128 7.40522 11.037 7.44291C10.946 7.4806 10.8485 7.5 10.75 7.5C10.6515 7.5 10.554 7.4806 10.463 7.44291C10.372 7.40522 10.2893 7.34997 10.2197 7.28033C10.15 7.21069 10.0948 7.12801 10.0571 7.03701C10.0194 6.94602 10 6.84849 10 6.75C10 6.65151 10.0194 6.55398 10.0571 6.46299C10.0948 6.37199 10.15 6.28931 10.2197 6.21967C10.2893 6.15003 10.372 6.09478 10.463 6.05709C10.554 6.0194 10.6515 6 10.75 6ZM9.89687 10.6469C9.70312 10.8406 9.70312 11.1594 9.89687 11.3531L10.5437 12C10.675 12.1312 10.75 12.3125 10.75 12.5C10.75 12.6875 10.675 12.8688 10.5437 13L10.25 13.2937C9.93125 13.6125 9.75 14.0469 9.75 14.5C9.75 14.9531 9.93125 15.3875 10.25 15.7063L10.8969 16.3531C11.0906 16.5469 11.4094 16.5469 11.6031 16.3531C11.7969 16.1594 11.7969 15.8406 11.6031 15.6469L10.9563 15C10.825 14.8688 10.75 14.6875 10.75 14.5C10.75 14.3125 10.825 14.1312 10.9563 14L11.25 13.7063C11.5687 13.3875 11.75 12.9531 11.75 12.5C11.75 12.0469 11.5687 11.6125 11.25 11.2937L10.6031 10.6469C10.4094 10.4531 10.0906 10.4531 9.89687 10.6469ZM13.1031 10.6469C12.9094 10.4531 12.5906 10.4531 12.3969 10.6469C12.2031 10.8406 12.2031 11.1594 12.3969 11.3531L13.0437 12C13.175 12.1312 13.25 12.3125 13.25 12.5C13.25 12.6875 13.175 12.8688 13.0437 13L12.75 13.2937C12.4313 13.6125 12.25 14.0469 12.25 14.5C12.25 14.9531 12.4313 15.3875 12.75 15.7063L13.3969 16.3531C13.5906 16.5469 13.9094 16.5469 14.1031 16.3531C14.2969 16.1594 14.2969 15.8406 14.1031 15.6469L13.4563 15C13.325 14.8688 13.25 14.6875 13.25 14.5C13.25 14.3125 13.325 14.1312 13.4563 14L13.75 13.7063C14.0687 13.3875 14.25 12.9531 14.25 12.5C14.25 12.0469 14.0687 11.6125 13.75 11.2937L13.1031 10.6469Z" fill="black"/>
</svg>
