<svg width="24" height="24" viewBox="0 0 24 24" fill="none" xmlns="http://www.w3.org/2000/svg">
<path d="M10.5907 5.07192C9.71255 4.1938 8.28755 4.1938 7.40942 5.07192L3.07192 9.40942C2.1938 10.2875 2.1938 11.7125 3.07192 12.5907L7.40942 16.9282C8.28755 17.8063 9.71255 17.8063 10.5907 16.9282L14.9282 12.5907C15.8063 11.7125 15.8063 10.2875 14.9282 9.40942L10.5907 5.07192ZM8.25005 11C8.25005 10.8011 8.32907 10.6104 8.46972 10.4697C8.61037 10.3291 8.80114 10.25 9.00005 10.25C9.19896 10.25 9.38973 10.3291 9.53038 10.4697C9.67103 10.6104 9.75005 10.8011 9.75005 11C9.75005 11.199 9.67103 11.3897 9.53038 11.5304C9.38973 11.671 9.19896 11.75 9.00005 11.75C8.80114 11.75 8.61037 11.671 8.46972 11.5304C8.32907 11.3897 8.25005 11.199 8.25005 11ZM5.00005 10.25C5.19896 10.25 5.38973 10.3291 5.53038 10.4697C5.67103 10.6104 5.75005 10.8011 5.75005 11C5.75005 11.199 5.67103 11.3897 5.53038 11.5304C5.38973 11.671 5.19896 11.75 5.00005 11.75C4.80114 11.75 4.61037 11.671 4.46972 11.5304C4.32907 11.3897 4.25005 11.199 4.25005 11C4.25005 10.8011 4.32907 10.6104 4.46972 10.4697C4.61037 10.3291 4.80114 10.25 5.00005 10.25ZM9.00005 15.75C8.80114 15.75 8.61037 15.671 8.46972 15.5304C8.32907 15.3897 8.25005 15.199 8.25005 15C8.25005 14.8011 8.32907 14.6104 8.46972 14.4697C8.61037 14.3291 8.80114 14.25 9.00005 14.25C9.19896 14.25 9.38973 14.3291 9.53038 14.4697C9.67103 14.6104 9.75005 14.8011 9.75005 15C9.75005 15.199 9.67103 15.3897 9.53038 15.5304C9.38973 15.671 9.19896 15.75 9.00005 15.75ZM13 10.25C13.199 10.25 13.3897 10.3291 13.5304 10.4697C13.671 10.6104 13.75 10.8011 13.75 11C13.75 11.199 13.671 11.3897 13.5304 11.5304C13.3897 11.671 13.199 11.75 13 11.75C12.8011 11.75 12.6104 11.671 12.4697 11.5304C12.3291 11.3897 12.25 11.199 12.25 11C12.25 10.8011 12.3291 10.6104 12.4697 10.4697C12.6104 10.3291 12.8011 10.25 13 10.25ZM9.00005 7.75005C8.80114 7.75005 8.61037 7.67103 8.46972 7.53038C8.32907 7.38973 8.25005 7.19896 8.25005 7.00005C8.25005 6.80114 8.32907 6.61037 8.46972 6.46972C8.61037 6.32907 8.80114 6.25005 9.00005 6.25005C9.19896 6.25005 9.38973 6.32907 9.53038 6.46972C9.67103 6.61037 9.75005 6.80114 9.75005 7.00005C9.75005 7.19896 9.67103 7.38973 9.53038 7.53038C9.38973 7.67103 9.19896 7.75005 9.00005 7.75005ZM12 18C12 19.1032 12.8969 20 14 20H20C21.1032 20 22 19.1032 22 18V12C22 10.8969 21.1032 10 20 10H16.4282C16.7907 11.125 16.525 12.4063 15.6344 13.2969L12 16.9313V18ZM17 14.25C17.199 14.25 17.3897 14.3291 17.5304 14.4697C17.671 14.6104 17.75 14.8011 17.75 15C17.75 15.199 17.671 15.3897 17.5304 15.5304C17.3897 15.671 17.199 15.75 17 15.75C16.8011 15.75 16.6104 15.671 16.4697 15.5304C16.3291 15.3897 16.25 15.199 16.25 15C16.25 14.8011 16.3291 14.6104 16.4697 14.4697C16.6104 14.3291 16.8011 14.25 17 14.25Z" fill="black"/>
</svg>
