<svg width="24" height="24" viewBox="0 0 24 24" fill="none" xmlns="http://www.w3.org/2000/svg">
<path d="M13 7.89062L11.3781 7.48438C11.175 7.43437 11.025 7.2625 11.0031 7.05312C10.9813 6.84375 11.0906 6.64375 11.275 6.55L12.55 5.9125L11.2 4.9C11.0281 4.77187 10.9563 4.54687 11.025 4.34062C11.0938 4.13437 11.2844 4 11.5 4H15H16H16.5C17.4438 4 18.3344 4.44375 18.9 5.2L20.7 7.6C20.8938 7.85937 21 8.175 21 8.5C21 9.32812 20.3281 10 19.5 10H18.8281C18.2969 10 17.7875 9.79063 17.4125 9.41563L17 9H16V9.67188C16 10.4469 16.4 11.1688 17.0563 11.5813L20.3875 13.6625C21.3906 14.2906 22 15.3875 22 16.5719C22 18.4656 20.4656 20 18.5688 20H17.5H15.5H3.00939C2.90627 20 2.80314 19.9875 2.70939 19.9563C2.42189 19.8688 2.18752 19.6563 2.07502 19.3781C2.03127 19.2719 2.00627 19.1625 2.00002 19.0437C1.99377 18.9281 2.00939 18.8156 2.04064 18.7094C2.12814 18.4219 2.34064 18.1875 2.62189 18.0719C2.71564 18.0344 2.81564 18.0094 2.91877 18.0031L15.5406 16.875C15.8 16.8531 16 16.6344 16 16.3719C16 16.2375 15.9469 16.1094 15.8531 16.0156L14.4656 14.6281C13.5281 13.6906 13 12.4188 13 11.0938V9.67188V7.89062ZM18 6.25938C18 6.25625 18 6.25313 18 6.25C18 6.24687 18 6.24375 18 6.24062V6.25938ZM17.9594 6.49062L16.5094 6.12812C16.5031 6.16875 16.5 6.20938 16.5 6.25C16.5 6.66563 16.8344 7 17.25 7C17.5813 7 17.8594 6.7875 17.9594 6.49062ZM6.09064 7.64062C6.60002 7.1875 7.35314 7.13438 7.91877 7.5125L12 10.2312V11.0938C12 12.1187 12.2625 13.1187 12.75 14H5.50002C5.29064 14 5.10314 13.8688 5.03127 13.675C4.95939 13.4813 5.01564 13.2594 5.17502 13.1219L7.34377 11.2594L2.57502 11.9938C2.35627 12.0281 2.14064 11.9125 2.04689 11.7125C1.95314 11.5125 2.00002 11.2719 2.16564 11.125L6.09064 7.64062Z" fill="black"/>
</svg>
