<svg width="24" height="24" viewBox="0 0 24 24" fill="none" xmlns="http://www.w3.org/2000/svg">
<path d="M18.7531 10.1469C18.1031 7.77187 16.2312 5.9 13.8562 5.25C13.5562 4.51562 12.8375 4 12 4C11.1625 4 10.4437 4.51563 10.1469 5.24688C7.77187 5.89688 5.9 7.76875 5.25 10.1438C4.51562 10.4438 4 11.1625 4 12C4 12.8375 4.51563 13.5562 5.24688 13.8531C5.89688 16.2281 7.76875 18.1 10.1438 18.75C10.4406 19.4812 11.1594 19.9969 11.9969 19.9969C12.8344 19.9969 13.5531 19.4812 13.85 18.75C16.225 18.1 18.0969 16.2281 18.7469 13.8531C19.4781 13.5562 19.9937 12.8375 19.9937 12C19.9937 11.1625 19.4781 10.4437 18.7469 10.1469H18.7531ZM16.75 10.4375C16.2906 10.8031 16 11.3688 16 12C16 12.6313 16.2937 13.1969 16.75 13.5625C16.2563 15.0688 15.0656 16.2563 13.5625 16.75C13.1969 16.2906 12.6313 16 12 16C11.3688 16 10.8031 16.2937 10.4375 16.75C8.93125 16.2563 7.74375 15.0656 7.25 13.5625C7.70937 13.1969 8 12.6313 8 12C8 11.3688 7.70625 10.8031 7.25 10.4375C7.74375 8.93125 8.93437 7.74375 10.4375 7.25C10.8031 7.70937 11.3688 8 12 8C12.6313 8 13.1969 7.70625 13.5625 7.25C15.0688 7.74375 16.2563 8.93437 16.75 10.4375Z" fill="black"/>
</svg>
