<svg width="24" height="24" viewBox="0 0 24 24" fill="none" xmlns="http://www.w3.org/2000/svg">
<path d="M3.21255 4.15937C2.88755 3.90312 2.41568 3.96249 2.15943 4.28749C1.90318 4.61249 1.96255 5.08437 2.28755 5.34062L20.7876 19.8406C21.1126 20.0969 21.5844 20.0375 21.8407 19.7125C22.0969 19.3875 22.0376 18.9156 21.7126 18.6594L19.5094 16.9344C20.3657 16.7094 20.9969 15.9281 20.9969 15V5.99999C20.9969 4.89687 20.1001 3.99999 18.9969 3.99999H5.00005C4.48755 3.99999 4.0188 4.19374 3.66255 4.51249L3.21255 4.15937ZM5.55943 5.99999H19.0001V15H17.0438L5.55943 5.99999ZM3.00005 15C3.00005 16.1031 3.89693 17 5.00005 17H10.5001L10.1657 18H8.00005C7.44693 18 7.00005 18.4469 7.00005 19C7.00005 19.5531 7.44693 20 8.00005 20H16.0001C16.5532 20 17.0001 19.5531 17.0001 19C17.0001 18.9344 16.9938 18.8719 16.9813 18.8094L15.9563 18H13.8344L13.5001 17H14.6876L12.1501 15H5.00005V9.36874L3.00005 7.79374V15Z" fill="black"/>
</svg>
