<svg width="24" height="24" viewBox="0 0 24 24" fill="none" xmlns="http://www.w3.org/2000/svg">
<path d="M6.8344 4.12841L11.8344 8.62841C12.0407 8.81279 12.0563 9.12841 11.8719 9.33466C11.6875 9.54091 11.3719 9.55654 11.1657 9.37216L6.16565 4.87216C5.9594 4.68779 5.94378 4.37216 6.12815 4.16591C6.31253 3.95966 6.62815 3.94404 6.8344 4.12841ZM7.50003 10.0003H11V15.9784C10.8344 15.994 10.6688 16.0003 10.5 16.0003C9.60003 16.0003 8.75003 15.7847 8.00003 15.4003V19.0003C8.00003 19.5534 7.55315 20.0003 7.00003 20.0003H6.00003C5.4469 20.0003 5.00003 19.5534 5.00003 19.0003V11.8065C4.10003 11.4659 3.39378 10.7034 3.15003 9.72841L3.03128 9.24404C2.8969 8.70966 3.2219 8.16591 3.7594 8.03154C4.2969 7.89716 4.83753 8.22216 4.9719 8.75966L5.09378 9.24404C5.20315 9.68779 5.60315 10.0003 6.06253 10.0003H7.00003H7.50003ZM13 15.4003C12.6844 15.5628 12.35 15.694 12 15.794V10.5034L16 12.1878V19.0003C16 19.5534 15.5532 20.0003 15 20.0003H14C13.4469 20.0003 13 19.5534 13 19.0003V15.4003ZM16.3344 10.0003L16.1407 11.1628L12.5594 9.65341L13.3969 4.62216C13.4563 4.26279 13.7657 4.00029 14.1282 4.00029C14.3625 4.00029 14.5813 4.10966 14.7219 4.29716L15.25 5.00029H16.8782C17.275 5.00029 17.6563 5.15966 17.9375 5.44091L18.5 6.00029H20.25C20.6657 6.00029 21 6.33466 21 6.75029V7.50029C21 8.88154 19.8813 10.0003 18.5 10.0003H17.5H17H16.3344ZM17 7.00029C17.1326 7.00029 17.2598 6.94761 17.3536 6.85384C17.4474 6.76007 17.5 6.63289 17.5 6.50029C17.5 6.36768 17.4474 6.2405 17.3536 6.14673C17.2598 6.05296 17.1326 6.00029 17 6.00029C16.8674 6.00029 16.7402 6.05296 16.6465 6.14673C16.5527 6.2405 16.5 6.36768 16.5 6.50029C16.5 6.63289 16.5527 6.76007 16.6465 6.85384C16.7402 6.94761 16.8674 7.00029 17 7.00029Z" fill="black"/>
</svg>
