<svg width="24" height="24" viewBox="0 0 24 24" fill="none" xmlns="http://www.w3.org/2000/svg">
<path d="M7.5002 17.5H15.0002C15.4033 17.5 15.7689 17.2563 15.9252 16.8813C16.0814 16.5063 15.9939 16.0781 15.7096 15.7906L13.4596 13.5406L17.6471 9.35313C17.8721 9.12813 18.0002 8.81875 18.0002 8.5C18.0002 8.18125 17.8721 7.87187 17.6471 7.64687L16.3533 6.35313C16.1283 6.12813 15.8189 6 15.5002 6C15.1814 6 14.8721 6.12813 14.6471 6.35313L10.4564 10.5437L8.20645 8.29375C7.91895 8.00625 7.49082 7.92188 7.11582 8.07812C6.74082 8.23438 6.49707 8.59688 6.49707 9.00313V16.5C6.49707 17.0531 6.94395 17.5 7.49707 17.5H7.5002Z" fill="black"/>
</svg>
