<svg width="24" height="24" viewBox="0 0 24 24" fill="none" xmlns="http://www.w3.org/2000/svg">
<path d="M18.9156 4.77817C19.025 4.61254 19.0281 4.39692 18.9187 4.22817C18.8094 4.05942 18.6156 3.97504 18.4187 4.00629C17.8969 4.09379 17.0719 4.27504 16.2688 4.53754C15.8125 4.68754 15.3281 4.87504 14.9062 5.10317C13.5781 4.40004 12.0625 4.00004 10.4531 4.00004H9.5C7.01562 4.00004 5 6.01567 5 8.50004C5 9.08129 5.10938 9.63754 5.3125 10.1469L4.64062 10.55C4.24375 10.7875 4 11.2188 4 11.6813C4 12.4094 4.59063 13 5.31875 13H9.5H10H10.35L13.225 14.9157C13.3781 15.0188 13.575 15.0282 13.7375 14.9407C13.9 14.8532 14.0031 14.6844 14.0031 14.5V13H14.2094C15.2 13 16.0031 13.8032 16.0031 14.7938C16.0031 15.75 15.2531 16.5375 14.3 16.5844L12.6313 16.6688C12 15.6375 10.8719 15 9.65 15H9.5C9.32812 15 9.16562 15.0907 9.075 15.2375C8.98438 15.3844 8.975 15.5688 9.05312 15.725L9.94063 17.5L9.05312 19.275C8.975 19.4313 8.98438 19.6125 9.075 19.7625C9.16562 19.9125 9.32812 20 9.5 20H9.64687C10.7688 20 11.8094 19.4625 12.4625 18.5813L14.5875 18.7C17.5281 18.8625 20.0031 16.5125 20.0031 13.5657C20.0031 11.0407 19.0219 8.73754 17.4187 7.02504L18.9187 4.77504L18.9156 4.77817ZM9.5 7.75004C9.69891 7.75004 9.88968 7.82906 10.0303 7.96971C10.171 8.11036 10.25 8.30113 10.25 8.50004C10.25 8.69895 10.171 8.88972 10.0303 9.03037C9.88968 9.17102 9.69891 9.25004 9.5 9.25004C9.30109 9.25004 9.11032 9.17102 8.96967 9.03037C8.82902 8.88972 8.75 8.69895 8.75 8.50004C8.75 8.30113 8.82902 8.11036 8.96967 7.96971C9.11032 7.82906 9.30109 7.75004 9.5 7.75004Z" fill="black"/>
</svg>
