<svg width="24" height="24" viewBox="0 0 24 24" fill="none" xmlns="http://www.w3.org/2000/svg">
<path d="M10 20C6.6875 20 4 17.3125 4 14C4 11.15 8.06875 5.80313 9.20625 4.36562C9.39375 4.13125 9.67188 4 9.97188 4H10.0281C10.3281 4 10.6062 4.13125 10.7937 4.36562C11.9312 5.80313 16 11.15 16 14C16 17.3125 13.3125 20 10 20ZM18.5 7.5C18.5 7.23478 18.3946 6.98043 18.2071 6.79289C18.0196 6.60536 17.7652 6.5 17.5 6.5C17.2348 6.5 16.9804 6.60536 16.7929 6.79289C16.6054 6.98043 16.5 7.23478 16.5 7.5C16.5 7.76522 16.6054 8.01957 16.7929 8.20711C16.9804 8.39464 17.2348 8.5 17.5 8.5C17.7652 8.5 18.0196 8.39464 18.2071 8.20711C18.3946 8.01957 18.5 7.76522 18.5 7.5ZM15 7.5C15 6.83696 15.2634 6.20107 15.7322 5.73223C16.2011 5.26339 16.837 5 17.5 5C18.163 5 18.7989 5.26339 19.2678 5.73223C19.7366 6.20107 20 6.83696 20 7.5C20 8.16304 19.7366 8.79893 19.2678 9.26777C18.7989 9.73661 18.163 10 17.5 10C16.837 10 16.2011 9.73661 15.7322 9.26777C15.2634 8.79893 15 8.16304 15 7.5Z" fill="black"/>
</svg>
