<svg width="24" height="24" viewBox="0 0 24 24" fill="none" xmlns="http://www.w3.org/2000/svg">
<path d="M9.02509 7.01559C9.46259 7.54684 9.99384 7.98121 10.572 8.33434C11.3813 8.82809 12.2501 9.14371 13.0001 9.32184V8.33746C12.3063 7.39059 11.8126 6.23434 11.7688 4.87496C11.7563 4.52184 11.5345 4.20309 11.1938 4.11246C10.9563 4.04996 10.7001 4.10621 10.5376 4.29371C10.122 4.77496 9.51571 5.68746 9.02509 7.01871V7.01559ZM14.0001 8.49996V9.45621V9.49684V10.5C12.1001 10.3406 8.21884 9.13121 7.14696 5.58746C7.04384 5.24996 6.74696 4.99996 6.39384 4.99996C6.14696 4.99996 5.91571 5.12184 5.80634 5.34371C5.46259 6.05934 5.00009 7.50309 5.00009 9.49996C5.00009 13.1531 7.50321 15.1406 8.70009 15.8375L4.36884 17.0187C4.20946 17.0625 4.08134 17.1812 4.02821 17.3375C3.97509 17.4937 4.00321 17.6687 4.10009 17.8C4.67821 18.5687 6.41571 20 9.00009 20C9.11259 20 9.22509 19.9625 9.31259 19.8906L11.6751 18H14.0001C16.7626 18 19.0001 15.7625 19.0001 13V7.99996L19.9345 6.59684C19.9751 6.53434 20.0001 6.45934 20.0001 6.38434C20.0001 6.17184 19.8282 5.99996 19.6157 5.99996H16.5001C15.1188 5.99996 14.0001 7.11871 14.0001 8.49996ZM16.5001 7.99996C16.6327 7.99996 16.7599 8.05264 16.8536 8.14641C16.9474 8.24018 17.0001 8.36735 17.0001 8.49996C17.0001 8.63257 16.9474 8.75975 16.8536 8.85351C16.7599 8.94728 16.6327 8.99996 16.5001 8.99996C16.3675 8.99996 16.2403 8.94728 16.1465 8.85351C16.0528 8.75975 16.0001 8.63257 16.0001 8.49996C16.0001 8.36735 16.0528 8.24018 16.1465 8.14641C16.2403 8.05264 16.3675 7.99996 16.5001 7.99996Z" fill="black"/>
</svg>
