<svg width="24" height="24" viewBox="0 0 24 24" fill="none" xmlns="http://www.w3.org/2000/svg">
<path d="M8.70625 12.9937C8.89375 12.8062 9 12.5531 9 12.2875V9.5C9 6.4625 11.4625 4 14.5 4C17.5375 4 20 6.4625 20 9.5C20 12.5375 17.5375 15 14.5 15H11.7125C11.4469 15 11.1937 15.1062 11.0062 15.2937L10.1687 16.1313C9.78437 16.5156 9.8125 17.1469 9.94375 17.675C9.97813 17.8188 10 17.9719 10 18.1281C10 19.1625 9.15938 20.0031 8.125 20.0031C7.09063 20.0031 6.25 19.1625 6.25 18.1281C6.25 17.9313 6.07188 17.7531 5.875 17.7531C4.84063 17.7531 4 16.9125 4 15.8781C4 14.8438 4.84063 14.0031 5.875 14.0031C6.03125 14.0031 6.18125 14.0219 6.32812 14.0594C6.85625 14.1906 7.4875 14.2219 7.87188 13.8344L8.70937 12.9969L8.70625 12.9937Z" fill="black"/>
</svg>
