<svg width="24" height="24" viewBox="0 0 24 24" fill="none" xmlns="http://www.w3.org/2000/svg">
<path d="M10.5906 5.07192C9.71249 4.1938 8.28749 4.1938 7.40936 5.07192L3.07186 9.40942C2.19374 10.2875 2.19374 11.7125 3.07186 12.5907L7.40936 16.9282C8.28749 17.8063 9.71249 17.8063 10.5906 16.9282L14.9281 12.5907C15.8062 11.7125 15.8062 10.2875 14.9281 9.40942L10.5906 5.07192ZM8.24999 11C8.24999 10.8011 8.32901 10.6104 8.46966 10.4697C8.61031 10.3291 8.80108 10.25 8.99999 10.25C9.1989 10.25 9.38967 10.3291 9.53032 10.4697C9.67097 10.6104 9.74999 10.8011 9.74999 11C9.74999 11.199 9.67097 11.3897 9.53032 11.5304C9.38967 11.671 9.1989 11.75 8.99999 11.75C8.80108 11.75 8.61031 11.671 8.46966 11.5304C8.32901 11.3897 8.24999 11.199 8.24999 11ZM4.99999 10.25C5.1989 10.25 5.38967 10.3291 5.53032 10.4697C5.67097 10.6104 5.74999 10.8011 5.74999 11C5.74999 11.199 5.67097 11.3897 5.53032 11.5304C5.38967 11.671 5.1989 11.75 4.99999 11.75C4.80108 11.75 4.61031 11.671 4.46966 11.5304C4.32901 11.3897 4.24999 11.199 4.24999 11C4.24999 10.8011 4.32901 10.6104 4.46966 10.4697C4.61031 10.3291 4.80108 10.25 4.99999 10.25ZM8.99999 15.75C8.80108 15.75 8.61031 15.671 8.46966 15.5304C8.32901 15.3897 8.24999 15.199 8.24999 15C8.24999 14.8011 8.32901 14.6104 8.46966 14.4697C8.61031 14.3291 8.80108 14.25 8.99999 14.25C9.1989 14.25 9.38967 14.3291 9.53032 14.4697C9.67097 14.6104 9.74999 14.8011 9.74999 15C9.74999 15.199 9.67097 15.3897 9.53032 15.5304C9.38967 15.671 9.1989 15.75 8.99999 15.75ZM13 10.25C13.1989 10.25 13.3897 10.3291 13.5303 10.4697C13.671 10.6104 13.75 10.8011 13.75 11C13.75 11.199 13.671 11.3897 13.5303 11.5304C13.3897 11.671 13.1989 11.75 13 11.75C12.8011 11.75 12.6103 11.671 12.4697 11.5304C12.329 11.3897 12.25 11.199 12.25 11C12.25 10.8011 12.329 10.6104 12.4697 10.4697C12.6103 10.3291 12.8011 10.25 13 10.25ZM8.99999 7.75005C8.80108 7.75005 8.61031 7.67103 8.46966 7.53038C8.32901 7.38973 8.24999 7.19896 8.24999 7.00005C8.24999 6.80114 8.32901 6.61037 8.46966 6.46972C8.61031 6.32907 8.80108 6.25005 8.99999 6.25005C9.1989 6.25005 9.38967 6.32907 9.53032 6.46972C9.67097 6.61037 9.74999 6.80114 9.74999 7.00005C9.74999 7.19896 9.67097 7.38973 9.53032 7.53038C9.38967 7.67103 9.1989 7.75005 8.99999 7.75005ZM12 18C12 19.1032 12.8969 20 14 20H20C21.1031 20 22 19.1032 22 18V12C22 10.8969 21.1031 10 20 10H16.4281C16.7906 11.125 16.525 12.4063 15.6344 13.2969L12 16.9313V18ZM17 14.25C17.1989 14.25 17.3897 14.3291 17.5303 14.4697C17.671 14.6104 17.75 14.8011 17.75 15C17.75 15.199 17.671 15.3897 17.5303 15.5304C17.3897 15.671 17.1989 15.75 17 15.75C16.8011 15.75 16.6103 15.671 16.4697 15.5304C16.329 15.3897 16.25 15.199 16.25 15C16.25 14.8011 16.329 14.6104 16.4697 14.4697C16.6103 14.3291 16.8011 14.25 17 14.25Z" fill="black"/>
</svg>
