<svg width="24" height="24" viewBox="0 0 24 24" fill="none" xmlns="http://www.w3.org/2000/svg">
<path d="M16.5219 11C16.5094 11 16.5 11.0094 16.5 11.0219V11.7719C16.5 11.9781 16.5875 12.1719 16.725 12.325C17.3625 13.0344 17.75 13.9719 17.75 15C17.75 17.2094 15.9594 19 13.75 19H10.125C6.74375 19 4 16.2562 4 12.875V12.7063C4 12.3156 4.31563 12 4.70625 12C4.89375 12 5.075 12.075 5.20625 12.2063L5.6875 12.6875C5.88125 12.8812 6.1625 12.9531 6.425 12.8781L11.825 11.3344C12.15 11.2406 12.3156 10.8812 12.0688 10.6562C11.4125 10.0625 11.0031 9.20312 11.0031 8.25C11.0031 6.45625 12.4594 5 14.2531 5C15.9344 5 17.3188 6.27813 17.4875 7.91563C17.4875 7.92813 17.4969 7.93437 17.5094 7.9375C17.8375 7.97812 18.1719 7.97812 18.5031 7.9375L19.6062 7.8C19.8187 7.775 20.0063 7.9375 20.0063 8.15312C20.0063 9.725 18.7313 11 17.1594 11H16.5219ZM15.5 8.25C15.5 8.05109 15.421 7.86032 15.2803 7.71967C15.1397 7.57902 14.9489 7.5 14.75 7.5C14.5511 7.5 14.3603 7.57902 14.2197 7.71967C14.079 7.86032 14 8.05109 14 8.25C14 8.44891 14.079 8.63968 14.2197 8.78033C14.3603 8.92098 14.5511 9 14.75 9C14.9489 9 15.1397 8.92098 15.2803 8.78033C15.421 8.63968 15.5 8.44891 15.5 8.25ZM14.6438 13.2781C14.6594 13.0031 14.45 12.7656 14.175 12.75C13.9 12.7344 13.6625 12.9437 13.6469 13.2188C13.5719 14.5063 12.6281 15.6875 11.2312 16.0344C9.97187 16.35 8.71562 15.8906 7.99062 14.9875C7.81875 14.7719 7.50312 14.7375 7.2875 14.9094C7.07187 15.0813 7.0375 15.3969 7.20937 15.6125C8.18125 16.8219 9.83438 17.4125 11.4719 17.0031C13.2844 16.55 14.5438 15.0094 14.6438 13.275V13.2781Z" fill="black"/>
</svg>
