<svg width="24" height="24" viewBox="0 0 24 24" fill="none" xmlns="http://www.w3.org/2000/svg">
<path d="M19.6625 6.37814C20.0094 6.15002 20.1063 5.68752 19.8781 5.34064C19.65 4.99377 19.1875 4.89689 18.8406 5.12502L15.5688 7.26564C14.4938 7.08439 13.2812 7.00002 12 7.00002C7.58125 7.00002 4 8.00002 4 10.5V15.5C4 16.4781 4.85625 17.3375 6.25 17.9594V14.75C6.25 14.3344 6.58437 14 7 14C7.41563 14 7.75 14.3344 7.75 14.75V18.4813C8.78125 18.7594 9.97187 18.9344 11.25 18.9844V15.75C11.25 15.3344 11.5844 15 12 15C12.4156 15 12.75 15.3344 12.75 15.75V18.9844C14.0281 18.9344 15.2188 18.7594 16.25 18.4813V14.75C16.25 14.3344 16.5844 14 17 14C17.4156 14 17.75 14.3344 17.75 14.75V17.9594C19.1437 17.3375 20 16.4781 20 15.5V10.5C20 9.21564 19.0563 8.32814 17.5375 7.76877L19.6594 6.37814H19.6625ZM13.6062 8.55002L11.5875 9.87189C11.2406 10.1 11.1437 10.5625 11.3719 10.9094C11.6 11.2563 12.0625 11.3531 12.4094 11.125L15.8813 8.85002C16.3406 8.95002 16.7531 9.06877 17.1125 9.20939C18.325 9.68127 18.5 10.1688 18.5 10.5C18.5 10.525 18.4156 11.0375 17.0625 11.6219C15.8469 12.1469 14.0625 12.5 12 12.5C9.9375 12.5 8.15313 12.1469 6.9375 11.6219C5.58438 11.0375 5.5 10.525 5.5 10.5C5.5 10.1688 5.675 9.68127 6.8875 9.20939C8.08125 8.74689 9.86875 8.50002 12 8.50002C12.5625 8.50002 13.0969 8.51564 13.6062 8.55002Z" fill="black"/>
</svg>
