<svg width="24" height="24" viewBox="0 0 24 24" fill="none" xmlns="http://www.w3.org/2000/svg">
<path d="M19 6.5V8C19 9.38125 15.8656 10.5 12 10.5C8.13438 10.5 5 9.38125 5 8V6.5C5 5.11875 8.13438 4 12 4C15.8656 4 19 5.11875 19 6.5ZM17.2875 10.7094C17.9375 10.4781 18.5344 10.1813 19 9.81563V13C19 14.3813 15.8656 15.5 12 15.5C8.13438 15.5 5 14.3813 5 13V9.81563C5.46562 10.1844 6.0625 10.4781 6.7125 10.7094C8.11562 11.2094 9.98438 11.5 12 11.5C14.0156 11.5 15.8844 11.2094 17.2875 10.7094ZM5 14.8156C5.46562 15.1844 6.0625 15.4781 6.7125 15.7094C8.11562 16.2094 9.98438 16.5 12 16.5C14.0156 16.5 15.8844 16.2094 17.2875 15.7094C17.9375 15.4781 18.5344 15.1813 19 14.8156V17.5C19 18.8813 15.8656 20 12 20C8.13438 20 5 18.8813 5 17.5V14.8156Z" fill="black"/>
</svg>
