<svg width="24" height="24" viewBox="0 0 24 24" fill="none" xmlns="http://www.w3.org/2000/svg">
<path d="M11.2812 4.32188C11.7281 4.07813 12.2688 4.07813 12.7188 4.32188L18.1969 7.31251C18.3562 7.40001 18.4563 7.56876 18.4563 7.75001C18.4563 7.93126 18.3562 8.10001 18.1969 8.18751L12.2406 11.4375C12.0906 11.5188 11.9125 11.5188 11.7625 11.4375L5.80313 8.18751C5.64375 8.10001 5.54375 7.93126 5.54375 7.75001C5.54375 7.56876 5.64375 7.40001 5.80313 7.31251L11.2812 4.32188ZM5.74063 9.31251L11.2406 12.3125C11.4 12.4 11.5 12.5688 11.5 12.75V19.5C11.5 19.675 11.4062 19.8406 11.2562 19.9313C11.1062 20.0219 10.9156 20.025 10.7625 19.9406L5.78125 17.2219C5.3 16.9594 5 16.4563 5 15.9063V9.75001C5 9.57501 5.09375 9.40938 5.24375 9.31876C5.39375 9.22813 5.58438 9.22501 5.7375 9.30938L5.74063 9.31251ZM18.2625 9.31251C18.4187 9.22813 18.6063 9.23126 18.7563 9.32188C18.9062 9.41251 19 9.57501 19 9.75313V15.9063C19 16.4563 18.7 16.9594 18.2188 17.2219L13.2406 19.9375C13.0844 20.0219 12.8969 20.0188 12.7469 19.9281C12.5969 19.8375 12.5031 19.675 12.5031 19.4969V12.75C12.5031 12.5656 12.6031 12.4 12.7625 12.3125L18.2625 9.31251Z" fill="black"/>
</svg>
