<svg width="24" height="24" viewBox="0 0 24 24" fill="none" xmlns="http://www.w3.org/2000/svg">
<path d="M11.1156 4.36563C11.6031 3.87813 12.3937 3.87813 12.8844 4.36563L19.6344 11.1156C20.1219 11.6031 20.1219 12.3937 19.6344 12.8844L12.8844 19.6344C12.3969 20.1219 11.6062 20.1219 11.1156 19.6344L4.36563 12.8844C3.87813 12.3969 3.87813 11.6062 4.36563 11.1156L11.1156 4.36563ZM13.8531 8.64687C13.7094 8.50312 13.4937 8.4625 13.3094 8.5375C13.125 8.6125 13 8.79688 13 9V10.75H11C9.89687 10.75 9 11.6469 9 12.75V14.25C9 14.6656 9.33437 15 9.75 15C10.1656 15 10.5 14.6656 10.5 14.25V12.75C10.5 12.475 10.725 12.25 11 12.25H13V14C13 14.2031 13.1219 14.3844 13.3094 14.4625C13.4969 14.5406 13.7125 14.4969 13.8531 14.3531L16.3531 11.8531C16.5469 11.6594 16.5469 11.3406 16.3531 11.1469L13.8531 8.64687Z" fill="black"/>
</svg>
