<svg width="24" height="24" viewBox="0 0 24 24" fill="none" xmlns="http://www.w3.org/2000/svg">
<path d="M16.8156 10.2063L12.7969 14.6687C12.6063 14.8781 12.3375 15 12.0531 15H11.9437C11.6594 15 11.3906 14.8812 11.2 14.6687L7.18438 10.2063C7.06563 10.075 7 9.9 7 9.72188C7 9.325 7.325 9 7.72187 9H10V5C10 4.44687 10.4469 4 11 4H13C13.5531 4 14 4.44687 14 5V9H16.2781C16.6781 9 17 9.325 17 9.72188C17 9.9 16.9344 10.0719 16.8156 10.2063ZM7 15V17C7 17.5531 7.44687 18 8 18H16C16.5531 18 17 17.5531 17 17V15C17 14.4469 17.4469 14 18 14C18.5531 14 19 14.4469 19 15V17C19 18.6562 17.6562 20 16 20H8C6.34375 20 5 18.6562 5 17V15C5 14.4469 5.44687 14 6 14C6.55313 14 7 14.4469 7 15Z" fill="black"/>
</svg>
