<svg width="24" height="24" viewBox="0 0 24 24" fill="none" xmlns="http://www.w3.org/2000/svg">
<path d="M7.06243 14.4531C6.94368 14.7281 6.99993 15.0469 7.20618 15.2656L11.4562 19.7656C11.5968 19.9156 11.7937 20 11.9999 20C12.2062 20 12.4031 19.9156 12.5437 19.7656L16.7937 15.2656C16.9999 15.0469 17.0562 14.7281 16.9374 14.4531C16.8187 14.1781 16.5468 14 16.2499 14H13.9999V5C13.9999 4.44687 13.5531 4 12.9999 4H10.9999C10.4468 4 9.99993 4.44687 9.99993 5V14H7.74993C7.44993 14 7.18118 14.1781 7.06243 14.4531Z" fill="black"/>
</svg>
