<svg width="24" height="24" viewBox="0 0 24 24" fill="none" xmlns="http://www.w3.org/2000/svg">
<path d="M4 4C3.44687 4 3 4.44687 3 5C3 5.55313 3.44687 6 4 6H6.27813L9.15625 14.6313C8.45312 15.1813 8 16.0375 8 17C8 18.6562 9.34375 20 11 20C12.6375 20 13.9719 18.6875 14 17.0531L20.3156 14.9469C20.8406 14.7719 21.1219 14.2062 20.9469 13.6812C20.7719 13.1562 20.2062 12.875 19.6812 13.05L13.3687 15.1562C12.8312 14.4656 11.9969 14.0156 11.0562 14L8.17812 5.36875C7.90312 4.55 7.14063 4 6.27813 4H4Z" fill="black"/>
</svg>
