<svg width="24" height="24" viewBox="0 0 24 24" fill="none" xmlns="http://www.w3.org/2000/svg">
<path d="M2 6C2 4.89688 2.89688 4 4 4H18C19.1031 4 20 4.89688 20 6V10.6C19.3906 10.2875 18.7156 10.0875 18 10.0219V6H4V15H12.0219C12.0063 15.1656 12 15.3312 12 15.5C12 17.3594 12.9219 19.0031 14.3375 20H7C6.44687 20 6 19.5531 6 19C6 18.4469 6.44687 18 7 18H9.16563L9.5 17H4C2.89688 17 2 16.1031 2 15V6ZM17 7.75V10.0219C16.4781 10.0687 15.9781 10.1875 15.5094 10.3719C15.5031 10.3312 15.5 10.2906 15.5 10.25V9.55937L12.0312 13.0312C11.8906 13.1719 11.7 13.25 11.5 13.25C11.3 13.25 11.1094 13.1719 10.9688 13.0312L9 11.0625L6.28125 13.7812C5.9875 14.075 5.5125 14.075 5.22187 13.7812C4.93125 13.4875 4.92812 13.0125 5.22187 12.7219L8.46875 9.46875C8.7625 9.175 9.2375 9.175 9.52812 9.46875L11.4969 11.4375L14.4406 8.5H13.75C13.3344 8.5 13 8.16563 13 7.75C13 7.33437 13.3344 7 13.75 7H16.25C16.6656 7 17 7.33437 17 7.75ZM13 15.5C13 14.3065 13.4741 13.1619 14.318 12.318C15.1619 11.4741 16.3065 11 17.5 11C18.6935 11 19.8381 11.4741 20.682 12.318C21.5259 13.1619 22 14.3065 22 15.5C22 16.6935 21.5259 17.8381 20.682 18.682C19.8381 19.5259 18.6935 20 17.5 20C16.3065 20 15.1619 19.5259 14.318 18.682C13.4741 17.8381 13 16.6935 13 15.5ZM16.775 14.4812C16.7937 14.4531 16.8312 14.4156 16.9062 14.375C17.0656 14.2906 17.2969 14.2469 17.4906 14.25C17.7469 14.2531 18.025 14.3063 18.3156 14.3781C18.5844 14.4438 18.8563 14.2812 18.9219 14.0125C18.9875 13.7437 18.825 13.4719 18.5562 13.4062C18.3812 13.3625 18.1937 13.3219 17.9969 13.2906V13C17.9969 12.725 17.7719 12.5 17.4969 12.5C17.2219 12.5 16.9969 12.725 16.9969 13V13.2969C16.8062 13.3344 16.6125 13.3969 16.4344 13.4937C16.0656 13.6906 15.7156 14.0688 15.7531 14.6562C15.7844 15.1562 16.1188 15.4469 16.4281 15.6156C16.7031 15.7625 17.0437 15.8594 17.3219 15.9375L17.3781 15.9531C17.7 16.0438 17.9375 16.1156 18.1031 16.2125C18.2437 16.2969 18.25 16.3437 18.25 16.3875C18.2531 16.4625 18.2344 16.5031 18.2188 16.5281C18.2 16.5594 18.1625 16.5969 18.0938 16.6313C17.9469 16.7094 17.725 16.75 17.5156 16.7437C17.2188 16.7344 16.9375 16.6469 16.5813 16.5312C16.5219 16.5125 16.4625 16.4938 16.4 16.475C16.1375 16.3938 15.8562 16.5406 15.775 16.8031C15.6937 17.0656 15.8406 17.3469 16.1031 17.4281C16.1531 17.4438 16.2062 17.4594 16.2594 17.4781C16.4781 17.55 16.7312 17.6281 17 17.6844V18.0406C17 18.3156 17.225 18.5406 17.5 18.5406C17.775 18.5406 18 18.3156 18 18.0406V17.7094C18.1937 17.675 18.3906 17.6125 18.5719 17.5156C18.95 17.3125 19.2688 16.9313 19.25 16.3625C19.2344 15.8563 18.9281 15.5406 18.6094 15.3531C18.3156 15.1781 17.9469 15.075 17.6562 14.9937H17.65C17.325 14.9031 17.0781 14.8313 16.9031 14.7375C16.7531 14.6563 16.7531 14.6125 16.7531 14.5969V14.5938C16.75 14.5344 16.7625 14.5031 16.7781 14.4812H16.775Z" fill="black"/>
</svg>
