<svg width="24" height="24" viewBox="0 0 24 24" fill="none" xmlns="http://www.w3.org/2000/svg">
<path d="M6 6C6 4.89688 6.89688 4 8 4H16C17.1031 4 18 4.89688 18 6V18H20C20.5531 18 21 18.4469 21 19C21 19.5531 20.5531 20 20 20H16.5H7.5H4C3.44687 20 3 19.5531 3 19C3 18.4469 3.44687 18 4 18H6V6ZM15 13C15.2652 13 15.5196 12.8946 15.7071 12.7071C15.8946 12.5196 16 12.2652 16 12C16 11.7348 15.8946 11.4804 15.7071 11.2929C15.5196 11.1054 15.2652 11 15 11C14.7348 11 14.4804 11.1054 14.2929 11.2929C14.1054 11.4804 14 11.7348 14 12C14 12.2652 14.1054 12.5196 14.2929 12.7071C14.4804 12.8946 14.7348 13 15 13Z" fill="black"/>
</svg>
