<svg width="24" height="24" viewBox="0 0 24 24" fill="none" xmlns="http://www.w3.org/2000/svg">
<path d="M12 5C16.9719 5 21 6.5 21 9V15C21 17.5 16.9719 19 12 19C7.02812 19 3 17.5 3 15V9C3 6.5 7.02812 5 12 5ZM19.5 9C19.5 8.69062 19.25 8.06562 17.7812 7.44375C17.2 7.19687 16.5031 6.99375 15.7188 6.8375L14.85 8.2C14.6219 8.55937 14.5 8.975 14.5 9.4C14.5 9.94688 14.7 10.475 15.0656 10.8844L15.3719 11.2281C16.3031 11.0656 17.1188 10.8375 17.7844 10.5563C19.2563 9.93438 19.5031 9.30937 19.5031 9H19.5ZM13.9125 11.4156C13.6625 10.5969 12.9 10 12 10C11.1 10 10.3344 10.5969 10.0875 11.4156C10.6937 11.4688 11.3344 11.5 12 11.5C12.6656 11.5 13.3063 11.4719 13.9125 11.4156ZM8.28125 6.8375C7.49375 6.99375 6.8 7.2 6.21875 7.44375C4.75 8.06562 4.5 8.69062 4.5 9C4.5 9.30937 4.75 9.93438 6.21875 10.5563C6.88438 10.8375 7.7 11.0656 8.63125 11.2281L8.9375 10.8844C9.3 10.475 9.50313 9.94688 9.50313 9.4C9.50313 8.975 9.38125 8.55937 9.15312 8.2L8.28125 6.8375ZM10.0406 6.5875C10.0156 6.71875 10 6.85938 10 7C10 8.10313 10.8969 9 12 9C13.1031 9 14 8.10313 14 7C14 6.85938 13.9844 6.71875 13.9563 6.5875C13.3375 6.53125 12.6812 6.5 12 6.5C11.3188 6.5 10.6625 6.53125 10.0437 6.5875H10.0406Z" fill="black"/>
</svg>
