<svg width="24" height="24" viewBox="0 0 24 24" fill="none" xmlns="http://www.w3.org/2000/svg">
<path d="M11.15 4.02187C11.3594 4.08749 11.5 4.28124 11.5 4.49999V19.5C11.5 19.6969 11.3844 19.875 11.2063 19.9562C11.0281 20.0375 10.8156 20.0062 10.6688 19.875L4.16876 14.125C3.97814 13.9562 3.94376 13.6719 4.09064 13.4625L10.5906 4.21249C10.7156 4.03437 10.9438 3.95624 11.15 4.02187ZM12.85 4.02187C13.0594 3.95624 13.2844 4.03124 13.4094 4.21249L19.9094 13.4625C20.0563 13.6719 20.0219 13.9562 19.8313 14.125L13.3313 19.875C13.1844 20.0062 12.975 20.0375 12.7938 19.9562C12.6125 19.875 12.5 19.6969 12.5 19.5V4.49999C12.5 4.28124 12.6406 4.08749 12.85 4.02187Z" fill="black"/>
</svg>
