<svg width="24" height="24" viewBox="0 0 24 24" fill="none" xmlns="http://www.w3.org/2000/svg">
<path d="M11.2812 4.32185C11.7281 4.0781 12.2688 4.0781 12.7188 4.32185L18.1969 7.31248C18.3562 7.39998 18.4563 7.56873 18.4563 7.74998C18.4563 7.93123 18.3562 8.09998 18.1969 8.18748L12.2406 11.4375C12.0906 11.5187 11.9125 11.5187 11.7625 11.4375L5.80313 8.18748C5.64375 8.09998 5.54375 7.93123 5.54375 7.74998C5.54375 7.56873 5.64375 7.39998 5.80313 7.31248L11.2812 4.32185ZM5.74063 9.31248L11.2406 12.3125C11.4 12.4 11.5 12.5687 11.5 12.75V19.5C11.5 19.675 11.4062 19.8406 11.2562 19.9312C11.1062 20.0218 10.9156 20.025 10.7625 19.9406L5.78125 17.2219C5.3 16.9594 5 16.4562 5 15.9062V9.74998C5 9.57498 5.09375 9.40935 5.24375 9.31873C5.39375 9.2281 5.58438 9.22498 5.7375 9.30935L5.74063 9.31248ZM18.2625 9.31248C18.4187 9.2281 18.6063 9.23123 18.7563 9.32185C18.9062 9.41248 19 9.57498 19 9.7531V15.9062C19 16.4562 18.7 16.9594 18.2188 17.2219L13.2406 19.9375C13.0844 20.0219 12.8969 20.0187 12.7469 19.9281C12.5969 19.8375 12.5031 19.675 12.5031 19.4969V12.75C12.5031 12.5656 12.6031 12.4 12.7625 12.3125L18.2625 9.31248Z" fill="black"/>
</svg>
