<svg width="24" height="24" viewBox="0 0 24 24" fill="none" xmlns="http://www.w3.org/2000/svg">
<path d="M7 7V7.07188C7 7.19063 7.00938 7.30937 7.03125 7.42812L7.82812 12.0156C7.92813 12.5844 8.42188 13 9 13C9.57812 13 10.0719 12.5844 10.1719 12.0156L10.9688 7.425C10.9906 7.30625 11 7.19062 11 7.06875V7C11 5.89688 10.1031 5 9 5C7.89688 5 7 5.89688 7 7ZM13 7V7.07188C13 7.19063 13.0094 7.30937 13.0312 7.42812L13.8281 12.0156C13.9281 12.5844 14.4219 13 15 13C15.5781 13 16.0719 12.5844 16.1719 12.0156L16.9688 7.425C16.9906 7.30625 17 7.19062 17 7.06875V7C17 5.89688 16.1031 5 15 5C13.8969 5 13 5.89688 13 7Z" fill="black"/>
</svg>
