<svg width="24" height="24" viewBox="0 0 24 24" fill="none" xmlns="http://www.w3.org/2000/svg">
<path d="M9.02503 7.01559C9.46253 7.54684 9.99378 7.98121 10.5719 8.33434C11.3813 8.82809 12.25 9.14371 13 9.32184V8.33746C12.3063 7.39059 11.8125 6.23434 11.7688 4.87496C11.7563 4.52184 11.5344 4.20309 11.1938 4.11246C10.9563 4.04996 10.7 4.10621 10.5375 4.29371C10.1219 4.77496 9.51565 5.68746 9.02503 7.01871V7.01559ZM14 8.49996V9.45621V9.49684V10.5C12.1 10.3406 8.21878 9.13121 7.1469 5.58746C7.04378 5.24996 6.7469 4.99996 6.39378 4.99996C6.1469 4.99996 5.91565 5.12184 5.80628 5.34371C5.46253 6.05934 5.00003 7.50309 5.00003 9.49996C5.00003 13.1531 7.50315 15.1406 8.70003 15.8375L4.36878 17.0187C4.2094 17.0625 4.08128 17.1812 4.02815 17.3375C3.97503 17.4937 4.00315 17.6687 4.10003 17.8C4.67815 18.5687 6.41565 20 9.00003 20C9.11253 20 9.22503 19.9625 9.31253 19.8906L11.675 18H14C16.7625 18 19 15.7625 19 13V7.99996L19.9344 6.59684C19.975 6.53434 20 6.45934 20 6.38434C20 6.17184 19.8282 5.99996 19.6157 5.99996H16.5C15.1188 5.99996 14 7.11871 14 8.49996ZM16.5 7.99996C16.6326 7.99996 16.7598 8.05264 16.8536 8.14641C16.9474 8.24018 17 8.36735 17 8.49996C17 8.63257 16.9474 8.75975 16.8536 8.85351C16.7598 8.94728 16.6326 8.99996 16.5 8.99996C16.3674 8.99996 16.2402 8.94728 16.1465 8.85351C16.0527 8.75975 16 8.63257 16 8.49996C16 8.36735 16.0527 8.24018 16.1465 8.14641C16.2402 8.05264 16.3674 7.99996 16.5 7.99996Z" fill="black"/>
</svg>
