<svg width="24" height="24" viewBox="0 0 24 24" fill="none" xmlns="http://www.w3.org/2000/svg">
<path d="M11.2812 4.32148C11.7281 4.07773 12.2688 4.07773 12.7188 4.32148L18.1969 7.31211C18.3562 7.39961 18.4563 7.56836 18.4563 7.74961C18.4563 7.93086 18.3562 8.09961 18.1969 8.18711L12.2406 11.4371C12.0906 11.5184 11.9125 11.5184 11.7625 11.4371L5.80313 8.18711C5.64375 8.09961 5.54375 7.93086 5.54375 7.74961C5.54375 7.56836 5.64375 7.39961 5.80313 7.31211L11.2812 4.32148ZM5.74063 9.31211L11.2406 12.3121C11.4 12.3996 11.5 12.5684 11.5 12.7496V19.4996C11.5 19.6746 11.4062 19.8402 11.2562 19.9309C11.1062 20.0215 10.9156 20.0246 10.7625 19.9402L5.78125 17.2215C5.3 16.959 5 16.4559 5 15.9059V9.74961C5 9.57461 5.09375 9.40898 5.24375 9.31836C5.39375 9.22773 5.58438 9.22461 5.7375 9.30898L5.74063 9.31211ZM18.2625 9.31211C18.4187 9.22773 18.6063 9.23086 18.7563 9.32148C18.9063 9.41211 19 9.57461 19 9.75273V15.9059C19 16.4559 18.7 16.959 18.2188 17.2215L13.2406 19.9371C13.0844 20.0215 12.8969 20.0184 12.7469 19.9277C12.5969 19.8371 12.5031 19.6746 12.5031 19.4965V12.7496C12.5031 12.5652 12.6031 12.3996 12.7625 12.3121L18.2625 9.31211Z" fill="black"/>
</svg>
