<svg width="24" height="24" viewBox="0 0 24 24" fill="none" xmlns="http://www.w3.org/2000/svg">
<path d="M3 8C3 6.89688 3.89688 6 5 6H14.5844C15.1156 6 15.625 6.20937 16 6.58437L20.7062 11.2937C20.8937 11.4812 21 11.7344 21 12C21 12.2656 20.8937 12.5188 20.7062 12.7063L16 17.4156C15.625 17.7906 15.1156 18 14.5844 18H5C3.89688 18 3 17.1031 3 16V8ZM7.46875 9.46875C7.175 9.7625 7.175 10.2375 7.46875 10.5281L8.9375 11.9969L7.46875 13.4656C7.175 13.7594 7.175 14.2344 7.46875 14.525C7.7625 14.8156 8.2375 14.8187 8.52812 14.525L9.99687 13.0562L11.4656 14.525C11.7594 14.8187 12.2344 14.8187 12.525 14.525C12.8156 14.2312 12.8187 13.7562 12.525 13.4656L11.0562 11.9969L12.525 10.5281C12.8187 10.2344 12.8187 9.75938 12.525 9.46875C12.2312 9.17812 11.7562 9.175 11.4656 9.46875L9.99687 10.9375L8.52812 9.46875C8.23438 9.175 7.75938 9.175 7.46875 9.46875Z" fill="black"/>
</svg>
