<svg width="24" height="24" viewBox="0 0 24 24" fill="none" xmlns="http://www.w3.org/2000/svg">
<path d="M6.86562 7.5C6.69375 7.2 6.36875 7 6 7C5.63125 7 5.30625 7.2 5.13438 7.5H2.75C2.33437 7.5 2 7.83438 2 8.25C2 8.66562 2.33437 9 2.75 9H10.25C10.6656 9 11 8.66562 11 8.25C11 7.83438 10.6656 7.5 10.25 7.5H6.86562ZM13.75 7.5C13.3344 7.5 13 7.83438 13 8.25C13 8.66562 13.3344 9 13.75 9H21.25C21.6656 9 22 8.66562 22 8.25C22 7.83438 21.6656 7.5 21.25 7.5H18.8656C18.6938 7.2 18.3687 7 18 7C17.6313 7 17.3062 7.2 17.1344 7.5H13.75ZM5 10V12C5 12.3938 5.23125 12.7531 5.59375 12.9125L7.35938 13.6969C6.80312 14.3687 6.5 15.2125 6.5 16.0844V16.25C6.5 16.6656 6.83437 17 7.25 17C7.66563 17 8 16.6656 8 16.25V16.0875C8 15.5625 8.18437 15.05 8.52187 14.6469L8.78438 14.3313L10.0938 14.9125C10.2219 14.9688 10.3594 15 10.5 15H13.5C13.6406 15 13.7781 14.9719 13.9062 14.9125L15.2156 14.3313L15.4781 14.6469C15.8156 15.05 16 15.5625 16 16.0875V16.25C16 16.6656 16.3344 17 16.75 17C17.1656 17 17.5 16.6656 17.5 16.25V16.0875C17.5 15.2156 17.1969 14.3719 16.6406 13.7L18.4062 12.9125C18.7687 12.7531 19 12.3938 19 12V10H17V11.35L16.4438 11.5969L15.175 10.8562C14.2094 10.2969 13.1156 10 12 10C10.8844 10 9.79062 10.2969 8.825 10.8594L7.55625 11.6L7 11.35V10H5Z" fill="black"/>
</svg>
