<svg width="24" height="24" viewBox="0 0 24 24" fill="none" xmlns="http://www.w3.org/2000/svg">
<path d="M11.1499 4.0219C11.3593 4.08752 11.4999 4.28127 11.4999 4.50002V19.5C11.4999 19.6969 11.3843 19.875 11.2061 19.9563C11.028 20.0375 10.8155 20.0063 10.6686 19.875L4.16864 14.125C3.97801 13.9563 3.94364 13.6719 4.09051 13.4625L10.5905 4.21252C10.7155 4.0344 10.9436 3.95627 11.1499 4.0219ZM12.8499 4.0219C13.0593 3.95627 13.2843 4.03127 13.4093 4.21252L19.9093 13.4625C20.0561 13.6719 20.0218 13.9563 19.8311 14.125L13.3311 19.875C13.1843 20.0063 12.9749 20.0375 12.7936 19.9563C12.6124 19.875 12.4999 19.6969 12.4999 19.5V4.50002C12.4999 4.28127 12.6405 4.08752 12.8499 4.0219Z" fill="black"/>
</svg>
