<svg width="24" height="24" viewBox="0 0 24 24" fill="none" xmlns="http://www.w3.org/2000/svg">
<path d="M18.7063 6.70627C19.0969 6.31565 19.0969 5.68127 18.7063 5.29065C18.3156 4.90002 17.6812 4.90002 17.2906 5.29065L14 8.5844L12.0594 6.6469C11.475 6.06252 10.525 6.06252 9.9375 6.6469L8.14375 8.44065L15.5594 15.8531L17.3531 14.0594C17.9375 13.475 17.9375 12.525 17.3531 11.9375L15.4156 10L18.7063 6.70627ZM14.8531 16.5594L7.44062 9.1469L5.58438 11C5.20938 11.375 5 11.8844 5 12.4156V17C5 18.1031 5.89688 19 7 19H11.5844C12.1156 19 12.625 18.7906 13 18.4156L14.8531 16.5625V16.5594Z" fill="black"/>
</svg>
