<svg width="24" height="24" viewBox="0 0 24 24" fill="none" xmlns="http://www.w3.org/2000/svg">
<path d="M19.6625 6.37863C20.0094 6.1505 20.1063 5.688 19.8781 5.34113C19.65 4.99425 19.1875 4.89738 18.8406 5.1255L15.5688 7.26613C14.4938 7.08488 13.2812 7.0005 12 7.0005C7.58125 7.0005 4 8.0005 4 10.5005V15.5005C4 16.4786 4.85625 17.338 6.25 17.9599V14.7505C6.25 14.3349 6.58437 14.0005 7 14.0005C7.41563 14.0005 7.75 14.3349 7.75 14.7505V18.4818C8.78125 18.7599 9.97188 18.9349 11.25 18.9849V15.7505C11.25 15.3349 11.5844 15.0005 12 15.0005C12.4156 15.0005 12.75 15.3349 12.75 15.7505V18.9849C14.0281 18.9349 15.2188 18.7599 16.25 18.4818V14.7505C16.25 14.3349 16.5844 14.0005 17 14.0005C17.4156 14.0005 17.75 14.3349 17.75 14.7505V17.9599C19.1438 17.338 20 16.4786 20 15.5005V10.5005C20 9.21613 19.0563 8.32863 17.5375 7.76925L19.6594 6.37863H19.6625ZM13.6062 8.5505L11.5875 9.87238C11.2406 10.1005 11.1437 10.563 11.3719 10.9099C11.6 11.2568 12.0625 11.3536 12.4094 11.1255L15.8813 8.8505C16.3406 8.9505 16.7531 9.06925 17.1125 9.20988C18.325 9.68175 18.5 10.1693 18.5 10.5005C18.5 10.5255 18.4156 11.038 17.0625 11.6224C15.8469 12.1474 14.0625 12.5005 12 12.5005C9.9375 12.5005 8.15312 12.1474 6.9375 11.6224C5.58438 11.038 5.5 10.5255 5.5 10.5005C5.5 10.1693 5.675 9.68175 6.8875 9.20988C8.08125 8.74738 9.86875 8.5005 12 8.5005C12.5625 8.5005 13.0969 8.51613 13.6062 8.5505Z" fill="black"/>
</svg>
