<svg width="24" height="24" viewBox="0 0 24 24" fill="none" xmlns="http://www.w3.org/2000/svg">
<path d="M21 8C21 6.89688 20.1031 6 19 6H9.41563C8.88438 6 8.375 6.20937 8 6.58437L3.29375 11.2937C3.10625 11.4812 3 11.7344 3 12C3 12.2656 3.10625 12.5188 3.29375 12.7063L8 17.4156C8.375 17.7906 8.88438 18 9.41563 18H19C20.1031 18 21 17.1031 21 16V8ZM11.4688 9.46875C11.7625 9.175 12.2375 9.175 12.5281 9.46875L13.9969 10.9375L15.4656 9.46875C15.7594 9.175 16.2344 9.175 16.525 9.46875C16.8156 9.7625 16.8187 10.2375 16.525 10.5281L15.0562 11.9969L16.525 13.4656C16.8187 13.7594 16.8187 14.2344 16.525 14.525C16.2312 14.8156 15.7562 14.8187 15.4656 14.525L13.9969 13.0562L12.5281 14.525C12.2344 14.8187 11.7594 14.8187 11.4688 14.525C11.1781 14.2312 11.175 13.7562 11.4688 13.4656L12.9375 11.9969L11.4688 10.5281C11.175 10.2344 11.175 9.75938 11.4688 9.46875Z" fill="black"/>
</svg>
