<svg width="24" height="24" viewBox="0 0 24 24" fill="none" xmlns="http://www.w3.org/2000/svg">
<path d="M18 17V15H6V17H18ZM18 19H6C4.89688 19 4 18.1031 4 17V15C4 13.8969 4.89688 13 6 13H18C19.1031 13 20 13.8969 20 15V17C20 18.1031 19.1031 19 18 19ZM13 9C13 10.1031 12.1031 11 11 11H6C4.89688 11 4 10.1031 4 9V7C4 5.89688 4.89688 5 6 5H10.5H11H15.5C16.8813 5 18 6.11875 18 7.5V8H19.1906C19.8594 8 20.1938 8.80938 19.7219 9.28125L17.5312 11.4688C17.2375 11.7625 16.7625 11.7625 16.4719 11.4688L14.2812 9.28125C13.8094 8.80938 14.1438 8 14.8125 8H16.0031V7.5C16.0031 7.225 15.7781 7 15.5031 7H13.0031V9H13Z" fill="black"/>
</svg>
