<svg width="24" height="24" viewBox="0 0 24 24" fill="none" xmlns="http://www.w3.org/2000/svg">
<path d="M13.5 7C13.5 6.80302 13.4612 6.60796 13.3858 6.42597C13.3104 6.24399 13.1999 6.07863 13.0607 5.93934C12.9214 5.80005 12.756 5.68956 12.574 5.61418C12.392 5.5388 12.197 5.5 12 5.5C11.803 5.5 11.608 5.5388 11.426 5.61418C11.244 5.68956 11.0786 5.80005 10.9393 5.93934C10.8001 6.07863 10.6896 6.24399 10.6142 6.42597C10.5388 6.60796 10.5 6.80302 10.5 7C10.5 7.19698 10.5388 7.39204 10.6142 7.57403C10.6896 7.75601 10.8001 7.92137 10.9393 8.06066C11.0786 8.19995 11.244 8.31044 11.426 8.38582C11.608 8.4612 11.803 8.5 12 8.5C12.197 8.5 12.392 8.4612 12.574 8.38582C12.756 8.31044 12.9214 8.19995 13.0607 8.06066C13.1999 7.92137 13.3104 7.75601 13.3858 7.57403C13.4612 7.39204 13.5 7.19698 13.5 7ZM13.5 17C13.5 16.803 13.4612 16.608 13.3858 16.426C13.3104 16.244 13.1999 16.0786 13.0607 15.9393C12.9214 15.8001 12.756 15.6896 12.574 15.6142C12.392 15.5388 12.197 15.5 12 15.5C11.803 15.5 11.608 15.5388 11.426 15.6142C11.244 15.6896 11.0786 15.8001 10.9393 15.9393C10.8001 16.0786 10.6896 16.244 10.6142 16.426C10.5388 16.608 10.5 16.803 10.5 17C10.5 17.197 10.5388 17.392 10.6142 17.574C10.6896 17.756 10.8001 17.9214 10.9393 18.0607C11.0786 18.1999 11.244 18.3104 11.426 18.3858C11.608 18.4612 11.803 18.5 12 18.5C12.197 18.5 12.392 18.4612 12.574 18.3858C12.756 18.3104 12.9214 18.1999 13.0607 18.0607C13.1999 17.9214 13.3104 17.756 13.3858 17.574C13.4612 17.392 13.5 17.197 13.5 17ZM17.5 13C18.0531 13 18.5 12.5531 18.5 12C18.5 11.4469 18.0531 11 17.5 11H6.5C5.94687 11 5.5 11.4469 5.5 12C5.5 12.5531 5.94687 13 6.5 13H17.5Z" fill="black"/>
</svg>
