<svg width="24" height="24" viewBox="0 0 24 24" fill="none" xmlns="http://www.w3.org/2000/svg">
<path d="M12.0001 20C13.6626 20 15.1688 19.325 16.2532 18.2312L6.9313 10.8875C6.37505 12.0344 6.00005 13.1344 6.00005 14C6.00005 17.3125 8.68755 20 12.0001 20ZM17.7876 15.5844C17.9251 15.0812 18.0001 14.55 18.0001 14C18.0001 11.15 13.9313 5.80312 12.7938 4.36562C12.6063 4.13124 12.3282 3.99999 12.0282 3.99999H11.9719C11.6719 3.99999 11.3938 4.13124 11.2063 4.36562C10.6813 5.03124 9.52193 6.54062 8.4313 8.24999L3.21255 4.15937C2.88755 3.90312 2.41568 3.96249 2.15943 4.28749C1.90318 4.61249 1.96255 5.08437 2.28755 5.34062L20.7876 19.8406C21.1126 20.0969 21.5844 20.0375 21.8407 19.7125C22.0969 19.3875 22.0376 18.9156 21.7126 18.6594L17.7876 15.5844ZM9.00005 14.5C9.00005 15.8812 10.1188 17 11.5001 17C11.7751 17 12.0001 17.225 12.0001 17.5C12.0001 17.775 11.7751 18 11.5001 18C9.56568 18 8.00005 16.4344 8.00005 14.5C8.00005 14.225 8.22505 14 8.50005 14C8.77505 14 9.00005 14.225 9.00005 14.5Z" fill="black"/>
</svg>
