<svg width="24" height="24" viewBox="0 0 24 24" fill="none" xmlns="http://www.w3.org/2000/svg">
<path d="M5 6C5 4.89688 5.89688 4 7 4H17C18.1031 4 19 4.89688 19 6V18C19 19.1031 18.1031 20 17 20H7C5.89688 20 5 19.1031 5 18V6ZM16.5 13.5C16.5 12.9091 16.3836 12.3239 16.1575 11.7779C15.9313 11.232 15.5998 10.7359 15.182 10.318C14.7641 9.90016 14.268 9.56869 13.7221 9.34254C13.1761 9.1164 12.5909 9 12 9C11.4091 9 10.8239 9.1164 10.2779 9.34254C9.73196 9.56869 9.23588 9.90016 8.81802 10.318C8.40016 10.7359 8.06869 11.232 7.84254 11.7779C7.6164 12.3239 7.5 12.9091 7.5 13.5C7.5 14.0909 7.6164 14.6761 7.84254 15.2221C8.06869 15.768 8.40016 16.2641 8.81802 16.682C9.23588 17.0998 9.73196 17.4313 10.2779 17.6575C10.8239 17.8836 11.4091 18 12 18C12.5909 18 13.1761 17.8836 13.7221 17.6575C14.268 17.4313 14.7641 17.0998 15.182 16.682C15.5998 16.2641 15.9313 15.768 16.1575 15.2221C16.3836 14.6761 16.5 14.0909 16.5 13.5ZM7.75 7.5C7.84849 7.5 7.94602 7.4806 8.03701 7.44291C8.12801 7.40522 8.21069 7.34997 8.28033 7.28033C8.34997 7.21069 8.40522 7.12801 8.44291 7.03701C8.4806 6.94602 8.5 6.84849 8.5 6.75C8.5 6.65151 8.4806 6.55398 8.44291 6.46299C8.40522 6.37199 8.34997 6.28931 8.28033 6.21967C8.21069 6.15003 8.12801 6.09478 8.03701 6.05709C7.94602 6.0194 7.84849 6 7.75 6C7.65151 6 7.55398 6.0194 7.46299 6.05709C7.37199 6.09478 7.28931 6.15003 7.21967 6.21967C7.15003 6.28931 7.09478 6.37199 7.05709 6.46299C7.0194 6.55398 7 6.65151 7 6.75C7 6.84849 7.0194 6.94602 7.05709 7.03701C7.09478 7.12801 7.15003 7.21069 7.21967 7.28033C7.28931 7.34997 7.37199 7.40522 7.46299 7.44291C7.55398 7.4806 7.65151 7.5 7.75 7.5ZM11.5 6.75C11.5 6.55109 11.421 6.36032 11.2803 6.21967C11.1397 6.07902 10.9489 6 10.75 6C10.5511 6 10.3603 6.07902 10.2197 6.21967C10.079 6.36032 10 6.55109 10 6.75C10 6.94891 10.079 7.13968 10.2197 7.28033C10.3603 7.42098 10.5511 7.5 10.75 7.5C10.9489 7.5 11.1397 7.42098 11.2803 7.28033C11.421 7.13968 11.5 6.94891 11.5 6.75ZM15.5 13.5C15.5 15.4344 13.9344 17 12 17C10.2375 17 8.77812 15.6969 8.53437 14H10.5C10.775 14 11 13.775 11 13.5C11 13.225 10.775 13 10.5 13H8.53437C8.77812 11.3031 10.2344 10 12 10C13.9344 10 15.5 11.5656 15.5 13.5Z" fill="black"/>
</svg>
