<svg width="24" height="24" viewBox="0 0 24 24" fill="none" xmlns="http://www.w3.org/2000/svg">
<path d="M5 4C3.89688 4 3 4.89688 3 6V15C3 16.1031 3.89688 17 5 17H10.5L10.1656 18H8C7.44687 18 7 18.4469 7 19C7 19.5531 7.44687 20 8 20H16C16.5531 20 17 19.5531 17 19C17 18.4469 16.5531 18 16 18H13.8344L13.5 17H19C20.1031 17 21 16.1031 21 15V6C21 4.89688 20.1031 4 19 4H14V6H19V15H5V6H10V4H5ZM12.75 4.75C12.75 4.33437 12.4156 4 12 4C11.5844 4 11.25 4.33437 11.25 4.75V10.4406L10.0312 9.22188C9.7375 8.92813 9.2625 8.92813 8.97188 9.22188C8.68125 9.51563 8.67813 9.99062 8.97188 10.2812L11.4719 12.7812C11.7656 13.075 12.2406 13.075 12.5312 12.7812L15.0312 10.2812C15.325 9.9875 15.325 9.5125 15.0312 9.22188C14.7375 8.93125 14.2625 8.92813 13.9719 9.22188L12.7531 10.4406V4.75H12.75Z" fill="black"/>
</svg>
