<svg width="24" height="24" viewBox="0 0 24 24" fill="none" xmlns="http://www.w3.org/2000/svg">
<path d="M5 4.75C5 4.33437 5.33437 4 5.75 4C6.16562 4 6.5 4.33437 6.5 4.75V19.25C6.5 19.6656 6.16562 20 5.75 20C5.33437 20 5 19.6656 5 19.25V4.75ZM9 8.5C9 7.67188 9.67188 7 10.5 7H13.5C14.3281 7 15 7.67188 15 8.5V15.5C15 16.3281 14.3281 17 13.5 17H10.5C9.67188 17 9 16.3281 9 15.5V8.5ZM18.25 4C18.6656 4 19 4.33437 19 4.75V19.25C19 19.6656 18.6656 20 18.25 20C17.8344 20 17.5 19.6656 17.5 19.25V4.75C17.5 4.33437 17.8344 4 18.25 4Z" fill="black"/>
</svg>
