<svg width="24" height="24" viewBox="0 0 24 24" fill="none" xmlns="http://www.w3.org/2000/svg">
<path d="M3 6.5C3 5.67188 3.67188 5 4.5 5H7.5C8.32812 5 9 5.67188 9 6.5V7H15V6.5C15 5.67188 15.6719 5 16.5 5H19.5C20.3281 5 21 5.67188 21 6.5V9.5C21 10.3281 20.3281 11 19.5 11H16.5C15.6719 11 15 10.3281 15 9.5V9H9V9.5C9 9.55313 8.99687 9.60625 8.99062 9.65625L11.5 13H14.5C15.3281 13 16 13.6719 16 14.5V17.5C16 18.3281 15.3281 19 14.5 19H11.5C10.6719 19 10 18.3281 10 17.5V14.5C10 14.4469 10.0031 14.3938 10.0094 14.3438L7.5 11H4.5C3.67188 11 3 10.3281 3 9.5V6.5Z" fill="black"/>
</svg>
