<svg width="24" height="24" viewBox="0 0 24 24" fill="none" xmlns="http://www.w3.org/2000/svg">
<path d="M11.1499 4.02147C11.3593 4.0871 11.4999 4.28085 11.4999 4.4996V19.4996C11.4999 19.6965 11.3843 19.8746 11.2061 19.9558C11.028 20.0371 10.8155 20.0058 10.6686 19.8746L4.16864 14.1246C3.97801 13.9558 3.94364 13.6715 4.09051 13.4621L10.5905 4.2121C10.7155 4.03397 10.9436 3.95585 11.1499 4.02147ZM12.8499 4.02147C13.0593 3.95585 13.2843 4.03085 13.4093 4.2121L19.9093 13.4621C20.0561 13.6715 20.0218 13.9558 19.8311 14.1246L13.3311 19.8746C13.1843 20.0058 12.9749 20.0371 12.7936 19.9558C12.6124 19.8746 12.4999 19.6965 12.4999 19.4996V4.4996C12.4999 4.28085 12.6405 4.0871 12.8499 4.02147Z" fill="black"/>
</svg>
