<svg width="24" height="24" viewBox="0 0 24 24" fill="none" xmlns="http://www.w3.org/2000/svg">
<path d="M12 20C13.6625 20 15.1687 19.325 16.2531 18.2312L6.93124 10.8875C6.37499 12.0344 5.99999 13.1344 5.99999 14C5.99999 17.3125 8.68749 20 12 20ZM17.7875 15.5844C17.925 15.0812 18 14.55 18 14C18 11.15 13.9312 5.80312 12.7937 4.36562C12.6062 4.13124 12.3281 3.99999 12.0281 3.99999H11.9719C11.6719 3.99999 11.3937 4.13124 11.2062 4.36562C10.6812 5.03124 9.52187 6.54062 8.43124 8.24999L3.21249 4.15937C2.88749 3.90312 2.41562 3.96249 2.15937 4.28749C1.90312 4.61249 1.96249 5.08437 2.28749 5.34062L20.7875 19.8406C21.1125 20.0969 21.5844 20.0375 21.8406 19.7125C22.0969 19.3875 22.0375 18.9156 21.7125 18.6594L17.7875 15.5844ZM8.99999 14.5C8.99999 15.8812 10.1187 17 11.5 17C11.775 17 12 17.225 12 17.5C12 17.775 11.775 18 11.5 18C9.56562 18 7.99999 16.4344 7.99999 14.5C7.99999 14.225 8.22499 14 8.49999 14C8.77499 14 8.99999 14.225 8.99999 14.5Z" fill="black"/>
</svg>
