<svg width="24" height="24" viewBox="0 0 24 24" fill="none" xmlns="http://www.w3.org/2000/svg">
<path d="M12 20C8.6875 20 6 17.3125 6 14C6 11.15 10.0688 5.80312 11.2063 4.36562C11.3938 4.13125 11.6719 4 11.9719 4H12.0281C12.3281 4 12.6062 4.13125 12.7937 4.36562C13.9312 5.80312 18 11.15 18 14C18 17.3125 15.3125 20 12 20ZM14.3531 11.6469C14.1594 11.4531 13.8406 11.4531 13.6469 11.6469L9.64687 15.6469C9.45312 15.8406 9.45312 16.1594 9.64687 16.3531C9.84062 16.5469 10.1594 16.5469 10.3531 16.3531L14.3531 12.3531C14.5469 12.1594 14.5469 11.8406 14.3531 11.6469ZM10.25 13C10.4489 13 10.6397 12.921 10.7803 12.7803C10.921 12.6397 11 12.4489 11 12.25C11 12.0511 10.921 11.8603 10.7803 11.7197C10.6397 11.579 10.4489 11.5 10.25 11.5C10.0511 11.5 9.86032 11.579 9.71967 11.7197C9.57902 11.8603 9.5 12.0511 9.5 12.25C9.5 12.4489 9.57902 12.6397 9.71967 12.7803C9.86032 12.921 10.0511 13 10.25 13ZM13.75 16.5C13.8485 16.5 13.946 16.4806 14.037 16.4429C14.128 16.4052 14.2107 16.35 14.2803 16.2803C14.35 16.2107 14.4052 16.128 14.4429 16.037C14.4806 15.946 14.5 15.8485 14.5 15.75C14.5 15.6515 14.4806 15.554 14.4429 15.463C14.4052 15.372 14.35 15.2893 14.2803 15.2197C14.2107 15.15 14.128 15.0948 14.037 15.0571C13.946 15.0194 13.8485 15 13.75 15C13.6515 15 13.554 15.0194 13.463 15.0571C13.372 15.0948 13.2893 15.15 13.2197 15.2197C13.15 15.2893 13.0948 15.372 13.0571 15.463C13.0194 15.554 13 15.6515 13 15.75C13 15.8485 13.0194 15.946 13.0571 16.037C13.0948 16.128 13.15 16.2107 13.2197 16.2803C13.2893 16.35 13.372 16.4052 13.463 16.4429C13.554 16.4806 13.6515 16.5 13.75 16.5Z" fill="black"/>
</svg>
