<svg width="24" height="24" viewBox="0 0 24 24" fill="none" xmlns="http://www.w3.org/2000/svg">
<path d="M10.5531 4.50937C10.6375 4.25937 10.45 4 10.1875 4C10.0688 4 9.95938 4.05312 9.88438 4.14375L4.075 11.4062C4.025 11.4656 4 11.5406 4 11.6188C4 11.8375 4.2 11.9969 4.4125 11.95L8.0875 11.1344C8.25938 11.0969 8.39688 10.9719 8.45312 10.8031L10.5531 4.50937ZM4.27187 13.0063C4.1125 13.0438 4 13.1844 4 13.3469C4 13.4438 4.04062 13.5375 4.1125 13.6031L10.8969 19.9031C10.9625 19.9656 11.05 20 11.1406 20C11.3375 20 11.5 19.8406 11.5 19.6406V14.275C11.5 14.1094 11.4188 13.9563 11.2844 13.8625L8.825 12.1594C8.70937 12.0813 8.56875 12.0531 8.43125 12.0813L4.27187 13.0063ZM12.5 19.6406C12.5 19.8375 12.6594 20 12.8594 20C12.95 20 13.0375 19.9656 13.1031 19.9031L19.8875 13.6031C19.9594 13.5375 20 13.4438 20 13.3469C20 13.1844 19.8875 13.0406 19.7281 13.0063L15.5688 12.0844C15.4313 12.0531 15.2906 12.0813 15.175 12.1625L12.7156 13.8656C12.5812 13.9594 12.5 14.1125 12.5 14.2781V19.6406ZM19.5875 11.95C19.8 11.9969 20 11.8344 20 11.6188C20 11.5406 19.975 11.4656 19.925 11.4062L14.1156 4.14375C14.0438 4.05312 13.9312 4 13.8125 4C13.5469 4 13.3625 4.25937 13.4469 4.50937L15.5469 10.8063C15.6031 10.9719 15.7406 11.0969 15.9125 11.1375L19.5875 11.9531V11.95ZM11.7063 4.2125L9.4625 10.9469C9.39375 11.1563 9.46875 11.3906 9.65312 11.5156L11.7188 12.9438C11.8906 13.0625 12.1156 13.0625 12.2875 12.9438L14.3531 11.5156C14.5344 11.3906 14.6125 11.1563 14.5437 10.9469L12.2937 4.2125C12.25 4.08438 12.1344 4 12 4C11.8656 4 11.75 4.08438 11.7063 4.2125Z" fill="black"/>
</svg>
