<svg width="24" height="24" viewBox="0 0 24 24" fill="none" xmlns="http://www.w3.org/2000/svg">
<path d="M11.5 4.5C11.5 4.29687 11.375 4.1125 11.1875 4.0375C11 3.9625 10.7813 4.00625 10.6406 4.15312L4.14065 10.9031C4.02502 11.025 3.97502 11.1937 4.01252 11.3594C4.05002 11.525 4.16565 11.6562 4.3219 11.7187L10.8219 14.2187C10.975 14.2781 11.15 14.2562 11.2844 14.1656C11.4188 14.075 11.5 13.9187 11.5 13.7531V4.5ZM5.08127 13.6094C4.95315 13.8062 4.97815 14.0656 5.14065 14.2344L10.6406 19.85C10.7813 19.9937 11 20.0406 11.1875 19.9625C11.375 19.8844 11.5 19.7031 11.5 19.5V16C11.5 15.7937 11.3719 15.6062 11.1781 15.5344L5.67815 13.4187C5.4594 13.3344 5.2094 13.4156 5.08127 13.6094ZM18.9156 13.6094C18.7875 13.4125 18.5375 13.3344 18.3188 13.4187L12.8188 15.5344C12.625 15.6094 12.4969 15.7937 12.4969 16V19.5C12.4969 19.7031 12.6188 19.8875 12.8094 19.9625C13 20.0375 13.2125 19.9937 13.3563 19.85L18.8563 14.2344C19.0219 14.0656 19.0469 13.8062 18.9156 13.6094ZM12.8125 4.0375C12.625 4.1125 12.5 4.29687 12.5 4.5V13.75C12.5 13.9156 12.5813 14.0687 12.7156 14.1625C12.85 14.2562 13.025 14.275 13.1781 14.2156L19.6781 11.7156C19.8344 11.6562 19.95 11.5219 19.9875 11.3562C20.025 11.1906 19.975 11.0219 19.8594 10.9L13.3594 4.15C13.2188 4.00625 13.0031 3.95937 12.8125 4.0375Z" fill="black"/>
</svg>
