<svg width="24" height="24" viewBox="0 0 24 24" fill="none" xmlns="http://www.w3.org/2000/svg">
<path d="M5 7C5 5.89688 5.89688 5 7 5H17C18.1031 5 19 5.89688 19 7V17C19 18.1031 18.1031 19 17 19H7C5.89688 19 5 18.1031 5 17V7ZM10 9C10 8.73478 9.89464 8.48043 9.70711 8.29289C9.51957 8.10536 9.26522 8 9 8C8.73478 8 8.48043 8.10536 8.29289 8.29289C8.10536 8.48043 8 8.73478 8 9C8 9.26522 8.10536 9.51957 8.29289 9.70711C8.48043 9.89464 8.73478 10 9 10C9.26522 10 9.51957 9.89464 9.70711 9.70711C9.89464 9.51957 10 9.26522 10 9ZM9 13C9.26522 13 9.51957 12.8946 9.70711 12.7071C9.89464 12.5196 10 12.2652 10 12C10 11.7348 9.89464 11.4804 9.70711 11.2929C9.51957 11.1054 9.26522 11 9 11C8.73478 11 8.48043 11.1054 8.29289 11.2929C8.10536 11.4804 8 11.7348 8 12C8 12.2652 8.10536 12.5196 8.29289 12.7071C8.48043 12.8946 8.73478 13 9 13ZM10 15C10 14.7348 9.89464 14.4804 9.70711 14.2929C9.51957 14.1054 9.26522 14 9 14C8.73478 14 8.48043 14.1054 8.29289 14.2929C8.10536 14.4804 8 14.7348 8 15C8 15.2652 8.10536 15.5196 8.29289 15.7071C8.48043 15.8946 8.73478 16 9 16C9.26522 16 9.51957 15.8946 9.70711 15.7071C9.89464 15.5196 10 15.2652 10 15ZM15 10C15.2652 10 15.5196 9.89464 15.7071 9.70711C15.8946 9.51957 16 9.26522 16 9C16 8.73478 15.8946 8.48043 15.7071 8.29289C15.5196 8.10536 15.2652 8 15 8C14.7348 8 14.4804 8.10536 14.2929 8.29289C14.1054 8.48043 14 8.73478 14 9C14 9.26522 14.1054 9.51957 14.2929 9.70711C14.4804 9.89464 14.7348 10 15 10ZM16 12C16 11.7348 15.8946 11.4804 15.7071 11.2929C15.5196 11.1054 15.2652 11 15 11C14.7348 11 14.4804 11.1054 14.2929 11.2929C14.1054 11.4804 14 11.7348 14 12C14 12.2652 14.1054 12.5196 14.2929 12.7071C14.4804 12.8946 14.7348 13 15 13C15.2652 13 15.5196 12.8946 15.7071 12.7071C15.8946 12.5196 16 12.2652 16 12ZM15 16C15.2652 16 15.5196 15.8946 15.7071 15.7071C15.8946 15.5196 16 15.2652 16 15C16 14.7348 15.8946 14.4804 15.7071 14.2929C15.5196 14.1054 15.2652 14 15 14C14.7348 14 14.4804 14.1054 14.2929 14.2929C14.1054 14.4804 14 14.7348 14 15C14 15.2652 14.1054 15.5196 14.2929 15.7071C14.4804 15.8946 14.7348 16 15 16Z" fill="black"/>
</svg>
