<svg width="24" height="24" viewBox="0 0 24 24" fill="none" xmlns="http://www.w3.org/2000/svg">
<path d="M11.1156 4.36563C11.6031 3.87813 12.3937 3.87813 12.8844 4.36563L19.6344 11.1156C20.1219 11.6031 20.1219 12.3937 19.6344 12.8844L12.8844 19.6344C12.3969 20.1219 11.6062 20.1219 11.1156 19.6344L4.36563 12.8844C3.87813 12.3969 3.87813 11.6062 4.36563 11.1156L11.1156 4.36563ZM12 8C11.5844 8 11.25 8.33437 11.25 8.75V12.25C11.25 12.6656 11.5844 13 12 13C12.4156 13 12.75 12.6656 12.75 12.25V8.75C12.75 8.33437 12.4156 8 12 8ZM13 15C13 14.7348 12.8946 14.4804 12.7071 14.2929C12.5196 14.1054 12.2652 14 12 14C11.7348 14 11.4804 14.1054 11.2929 14.2929C11.1054 14.4804 11 14.7348 11 15C11 15.2652 11.1054 15.5196 11.2929 15.7071C11.4804 15.8946 11.7348 16 12 16C12.2652 16 12.5196 15.8946 12.7071 15.7071C12.8946 15.5196 13 15.2652 13 15Z" fill="black"/>
</svg>
