<svg width="24" height="24" viewBox="0 0 24 24" fill="none" xmlns="http://www.w3.org/2000/svg">
<path d="M13 5.00051C13 4.69114 12.8594 4.40051 12.6156 4.21301C12.3719 4.02551 12.0563 3.95676 11.7563 4.03176L6.13438 5.43801C5.46875 5.60364 5 6.20364 5 6.89114V18.0005H4C3.44687 18.0005 3 18.4474 3 19.0005C3 19.5536 3.44687 20.0005 4 20.0005H6H12H13V19.0005V5.00051ZM11 12.0005C11 12.5536 10.6656 13.0005 10.25 13.0005C9.83437 13.0005 9.5 12.5536 9.5 12.0005C9.5 11.4474 9.83437 11.0005 10.25 11.0005C10.6656 11.0005 11 11.4474 11 12.0005ZM14 8.00051H17V19.0005C17 19.5536 17.4469 20.0005 18 20.0005H20C20.5531 20.0005 21 19.5536 21 19.0005C21 18.4474 20.5531 18.0005 20 18.0005H19V8.00051C19 6.89739 18.1031 6.00051 17 6.00051H14V8.00051Z" fill="black"/>
</svg>
