<svg width="24" height="24" viewBox="0 0 24 24" fill="none" xmlns="http://www.w3.org/2000/svg">
<path d="M17.7188 4.21836C18.0126 3.92461 18.4876 3.92461 18.7782 4.21836L19.7782 5.21836C20.072 5.51211 20.072 5.98711 19.7782 6.27773L17.0595 8.99648L18.2782 10.2152C18.4938 10.4309 18.5563 10.7527 18.4407 11.034C18.3251 11.3152 18.0501 11.4965 17.747 11.4965H13.2501C12.8345 11.4965 12.5001 11.1621 12.5001 10.7465V6.24961C12.5001 5.94648 12.6813 5.67148 12.9626 5.55586C13.2438 5.44023 13.5657 5.50273 13.7813 5.71836L15.0001 6.93711L17.7188 4.21836ZM6.2501 12.4996H10.7501C11.1657 12.4996 11.5001 12.834 11.5001 13.2496V17.7496C11.5001 18.0527 11.3188 18.3277 11.0376 18.4434C10.7563 18.559 10.4345 18.4965 10.2188 18.2809L9.0001 17.0621L6.28135 19.7809C5.9876 20.0746 5.5126 20.0746 5.22197 19.7809L4.21885 18.7809C3.9251 18.4871 3.9251 18.0121 4.21885 17.7215L6.9376 15.0027L5.71885 13.7809C5.50322 13.5652 5.44072 13.2434 5.55635 12.9621C5.67197 12.6809 5.94697 12.4996 6.2501 12.4996Z" fill="black"/>
</svg>
