<svg width="24" height="24" viewBox="0 0 24 24" fill="none" xmlns="http://www.w3.org/2000/svg">
<path d="M11.9999 20.0002C13.6624 20.0002 15.1687 19.3252 16.2531 18.2314L6.93118 10.8877C6.37493 12.0346 5.99993 13.1346 5.99993 14.0002C5.99993 17.3127 8.68743 20.0002 11.9999 20.0002ZM17.7874 15.5846C17.9249 15.0814 17.9999 14.5502 17.9999 14.0002C17.9999 11.1502 13.9312 5.8033 12.7937 4.3658C12.6062 4.13143 12.3281 4.00018 12.0281 4.00018H11.9718C11.6718 4.00018 11.3937 4.13143 11.2062 4.3658C10.6812 5.03143 9.52181 6.5408 8.43118 8.25018L3.21243 4.15955C2.88743 3.9033 2.41556 3.96268 2.15931 4.28768C1.90306 4.61268 1.96243 5.08455 2.28743 5.3408L20.7874 19.8408C21.1124 20.097 21.5843 20.0377 21.8406 19.7127C22.0968 19.3877 22.0374 18.9158 21.7124 18.6596L17.7874 15.5846ZM8.99993 14.5002C8.99993 15.8814 10.1187 17.0002 11.4999 17.0002C11.7749 17.0002 11.9999 17.2252 11.9999 17.5002C11.9999 17.7752 11.7749 18.0002 11.4999 18.0002C9.56556 18.0002 7.99993 16.4346 7.99993 14.5002C7.99993 14.2252 8.22493 14.0002 8.49993 14.0002C8.77493 14.0002 8.99993 14.2252 8.99993 14.5002Z" fill="black"/>
</svg>
