<svg width="24" height="24" viewBox="0 0 24 24" fill="none" xmlns="http://www.w3.org/2000/svg">
<path d="M18.9156 4.77829C19.025 4.61266 19.0281 4.39704 18.9187 4.22829C18.8094 4.05954 18.6156 3.97516 18.4187 4.00641C17.8969 4.09391 17.0719 4.27516 16.2688 4.53766C15.8125 4.68766 15.3281 4.87516 14.9062 5.10329C13.5781 4.40016 12.0625 4.00016 10.4531 4.00016H9.5C7.01562 4.00016 5 6.01579 5 8.50016C5 9.08141 5.10938 9.63766 5.3125 10.147L4.64062 10.5502C4.24375 10.7877 4 11.2189 4 11.6814C4 12.4095 4.59063 13.0002 5.31875 13.0002H9.5H10H10.35L13.225 14.9158C13.3781 15.0189 13.575 15.0283 13.7375 14.9408C13.9 14.8533 14.0031 14.6845 14.0031 14.5002V13.0002H14.2094C15.2 13.0002 16.0031 13.8033 16.0031 14.7939C16.0031 15.7502 15.2531 16.5377 14.3 16.5845L12.6313 16.6689C12 15.6377 10.8719 15.0002 9.65 15.0002H9.5C9.32812 15.0002 9.16562 15.0908 9.075 15.2377C8.98438 15.3845 8.975 15.5689 9.05312 15.7252L9.94063 17.5002L9.05312 19.2752C8.975 19.4314 8.98438 19.6127 9.075 19.7627C9.16562 19.9127 9.32812 20.0002 9.5 20.0002H9.64687C10.7688 20.0002 11.8094 19.4627 12.4625 18.5814L14.5875 18.7002C17.5281 18.8627 20.0031 16.5127 20.0031 13.5658C20.0031 11.0408 19.0219 8.73766 17.4187 7.02516L18.9187 4.77516L18.9156 4.77829ZM9.5 7.75016C9.69891 7.75016 9.88968 7.82918 10.0303 7.96983C10.171 8.11049 10.25 8.30125 10.25 8.50016C10.25 8.69908 10.171 8.88984 10.0303 9.03049C9.88968 9.17115 9.69891 9.25016 9.5 9.25016C9.30109 9.25016 9.11032 9.17115 8.96967 9.03049C8.82902 8.88984 8.75 8.69908 8.75 8.50016C8.75 8.30125 8.82902 8.11049 8.96967 7.96983C9.11032 7.82918 9.30109 7.75016 9.5 7.75016Z" fill="black"/>
</svg>
