<svg width="24" height="24" viewBox="0 0 24 24" fill="none" xmlns="http://www.w3.org/2000/svg">
<path d="M11.5 4.50003C11.5 4.2969 11.375 4.11253 11.1875 4.03753C11 3.96253 10.7812 4.00628 10.6406 4.15315L4.14062 10.9032C4.02499 11.025 3.97499 11.1938 4.01249 11.3594C4.04999 11.525 4.16562 11.6563 4.32187 11.7188L10.8219 14.2188C10.975 14.2782 11.15 14.2563 11.2844 14.1657C11.4187 14.075 11.5 13.9188 11.5 13.7532V4.50003ZM5.08124 13.6094C4.95312 13.8063 4.97812 14.0657 5.14062 14.2344L10.6406 19.85C10.7812 19.9938 11 20.0407 11.1875 19.9625C11.375 19.8844 11.5 19.7032 11.5 19.5V16C11.5 15.7938 11.3719 15.6063 11.1781 15.5344L5.67812 13.4188C5.45937 13.3344 5.20937 13.4157 5.08124 13.6094ZM18.9156 13.6094C18.7875 13.4125 18.5375 13.3344 18.3187 13.4188L12.8187 15.5344C12.625 15.6094 12.4969 15.7938 12.4969 16V19.5C12.4969 19.7032 12.6187 19.8875 12.8094 19.9625C13 20.0375 13.2125 19.9938 13.3562 19.85L18.8562 14.2344C19.0219 14.0657 19.0469 13.8063 18.9156 13.6094ZM12.8125 4.03753C12.625 4.11253 12.5 4.2969 12.5 4.50003V13.75C12.5 13.9157 12.5812 14.0688 12.7156 14.1625C12.85 14.2563 13.025 14.275 13.1781 14.2157L19.6781 11.7157C19.8344 11.6563 19.95 11.5219 19.9875 11.3563C20.025 11.1907 19.975 11.0219 19.8594 10.9L13.3594 4.15003C13.2187 4.00628 13.0031 3.9594 12.8125 4.03753Z" fill="black"/>
</svg>
