<svg width="24" height="24" viewBox="0 0 24 24" fill="none" xmlns="http://www.w3.org/2000/svg">
<path d="M13 5C13 4.44687 12.5531 4 12 4C11.4469 4 11 4.44687 11 5V8H7.5C6.67188 8 6 8.67188 6 9.5C6 10.3281 6.67188 11 7.5 11C8.15313 11 8.70938 10.5813 8.91563 10H12H15.0844C15.2906 10.5813 15.8469 11 16.5 11C17.3281 11 18 10.3281 18 9.5C18 8.67188 17.3281 8 16.5 8H13V5ZM10 11V11.75V16.9625C10 17.2906 10.0906 17.6125 10.2656 17.8906L11.3625 19.6469C11.5 19.8656 11.7406 20 12 20C12.2594 20 12.5 19.8656 12.6375 19.6469L13.7344 17.8906C13.9094 17.6125 14 17.2906 14 16.9625V11.75V11H13.25H10.75H10Z" fill="black"/>
</svg>
