<svg width="24" height="24" viewBox="0 0 24 24" fill="none" xmlns="http://www.w3.org/2000/svg">
<path d="M18.9156 4.77804C19.025 4.61242 19.0281 4.39679 18.9187 4.22804C18.8094 4.05929 18.6156 3.97492 18.4187 4.00617C17.8969 4.09367 17.0719 4.27492 16.2688 4.53742C15.8125 4.68742 15.3281 4.87492 14.9062 5.10304C13.5781 4.39992 12.0625 3.99992 10.4531 3.99992H9.5C7.01562 3.99992 5 6.01554 5 8.49992C5 9.08117 5.10938 9.63742 5.3125 10.1468L4.64062 10.5499C4.24375 10.7874 4 11.2187 4 11.6812C4 12.4093 4.59063 12.9999 5.31875 12.9999H9.5H10H10.35L13.225 14.9155C13.3781 15.0187 13.575 15.028 13.7375 14.9405C13.9 14.853 14.0031 14.6843 14.0031 14.4999V12.9999H14.2094C15.2 12.9999 16.0031 13.803 16.0031 14.7937C16.0031 15.7499 15.2531 16.5374 14.3 16.5843L12.6313 16.6687C12 15.6374 10.8719 14.9999 9.65 14.9999H9.5C9.32812 14.9999 9.16562 15.0905 9.075 15.2374C8.98438 15.3843 8.975 15.5687 9.05312 15.7249L9.94063 17.4999L9.05312 19.2749C8.975 19.4312 8.98438 19.6124 9.075 19.7624C9.16562 19.9124 9.32812 19.9999 9.5 19.9999H9.64687C10.7688 19.9999 11.8094 19.4624 12.4625 18.5812L14.5875 18.6999C17.5281 18.8624 20.0031 16.5124 20.0031 13.5655C20.0031 11.0405 19.0219 8.73742 17.4187 7.02492L18.9187 4.77492L18.9156 4.77804ZM9.5 7.74992C9.69891 7.74992 9.88968 7.82894 10.0303 7.96959C10.171 8.11024 10.25 8.30101 10.25 8.49992C10.25 8.69883 10.171 8.8896 10.0303 9.03025C9.88968 9.1709 9.69891 9.24992 9.5 9.24992C9.30109 9.24992 9.11032 9.1709 8.96967 9.03025C8.82902 8.8896 8.75 8.69883 8.75 8.49992C8.75 8.30101 8.82902 8.11024 8.96967 7.96959C9.11032 7.82894 9.30109 7.74992 9.5 7.74992Z" fill="black"/>
</svg>
