<svg width="24" height="24" viewBox="0 0 24 24" fill="none" xmlns="http://www.w3.org/2000/svg">
<path d="M11.3876 5.91875L11.0938 6.35938C10.4282 7.35938 9.23756 7.875 8.05318 7.675L6.19068 7.36562C5.04381 7.175 4.00006 8.05938 4.00318 9.22188C4.00318 9.71875 4.20318 10.1969 4.55318 10.55L5.46568 11.4625C5.80943 11.8063 6.00318 12.2719 6.00318 12.7594C6.00318 13.2531 5.80318 13.725 5.45006 14.0719L5.04068 14.4719C4.69381 14.8094 4.50006 15.2719 4.50006 15.7563C4.50006 16.9062 5.56568 17.7625 6.69068 17.5125L8.63756 17.0813C8.87818 17.0281 9.12818 17 9.37506 17H9.68756C10.5376 17 11.3657 17.2906 12.0313 17.8219L12.9938 18.5938C13.3219 18.8562 13.7313 19 14.1501 19C15.1719 19 16.0032 18.1719 16.0032 17.1469V16.3594C16.0032 15.2688 16.6719 14.2906 17.6876 13.8969L18.8407 13.45C19.5407 13.1781 20.0032 12.5031 20.0032 11.7531C20.0032 10.875 19.3751 10.1188 18.5094 9.9625L17.6344 9.80312C16.4938 9.59375 15.5907 8.725 15.3344 7.59375L15.1126 6.60938C14.9032 5.66875 14.0657 5 13.1032 5C12.4157 5 11.7719 5.34375 11.3876 5.91875ZM9.00006 10C9.26527 10 9.51963 10.1054 9.70716 10.2929C9.8947 10.4804 10.0001 10.7348 10.0001 11C10.0001 11.2652 9.8947 11.5196 9.70716 11.7071C9.51963 11.8946 9.26527 12 9.00006 12C8.73484 12 8.48049 11.8946 8.29295 11.7071C8.10541 11.5196 8.00006 11.2652 8.00006 11C8.00006 10.7348 8.10541 10.4804 8.29295 10.2929C8.48049 10.1054 8.73484 10 9.00006 10ZM13.0001 10.5C13.0001 10.3674 13.0527 10.2402 13.1465 10.1464C13.2403 10.0527 13.3674 10 13.5001 10C13.6327 10 13.7598 10.0527 13.8536 10.1464C13.9474 10.2402 14.0001 10.3674 14.0001 10.5C14.0001 10.6326 13.9474 10.7598 13.8536 10.8536C13.7598 10.9473 13.6327 11 13.5001 11C13.3674 11 13.2403 10.9473 13.1465 10.8536C13.0527 10.7598 13.0001 10.6326 13.0001 10.5ZM13.0001 13C13.2653 13 13.5196 13.1054 13.7072 13.2929C13.8947 13.4804 14.0001 13.7348 14.0001 14C14.0001 14.2652 13.8947 14.5196 13.7072 14.7071C13.5196 14.8946 13.2653 15 13.0001 15C12.7348 15 12.4805 14.8946 12.2929 14.7071C12.1054 14.5196 12.0001 14.2652 12.0001 14C12.0001 13.7348 12.1054 13.4804 12.2929 13.2929C12.4805 13.1054 12.7348 13 13.0001 13Z" fill="black"/>
</svg>
