<svg width="24" height="24" viewBox="0 0 24 24" fill="none" xmlns="http://www.w3.org/2000/svg">
<path d="M16.6906 11.8094L12.8531 15.6469C12.6281 15.8719 12.3187 16 12 16C11.6813 16 11.3719 15.8719 11.1469 15.6469L7.30938 11.8094C7.10938 11.6094 7 11.3406 7 11.0594C7 10.475 7.475 10 8.05938 10H10V6C10 5.44687 10.4469 5 11 5H13C13.5531 5 14 5.44687 14 6V10H15.9406C16.525 10 17 10.475 17 11.0594C17 11.3406 16.8875 11.6094 16.6906 11.8094ZM7 17H17C17.5531 17 18 17.4469 18 18C18 18.5531 17.5531 19 17 19H7C6.44687 19 6 18.5531 6 18C6 17.4469 6.44687 17 7 17Z" fill="black"/>
</svg>
