<svg width="24" height="24" viewBox="0 0 24 24" fill="none" xmlns="http://www.w3.org/2000/svg">
<path d="M3.21268 4.15955C2.88768 3.9033 2.4158 3.96268 2.15955 4.28768C1.9033 4.61268 1.96268 5.08455 2.28768 5.3408L20.7877 19.8408C21.1127 20.0971 21.5846 20.0377 21.8408 19.7127C22.0971 19.3877 22.0377 18.9158 21.7127 18.6596L19.5096 16.9346C20.3658 16.7096 20.9971 15.9283 20.9971 15.0002V6.00018C20.9971 4.89705 20.1002 4.00018 18.9971 4.00018H5.00018C4.48768 4.00018 4.01893 4.19393 3.66268 4.51268L3.21268 4.15955ZM5.55955 6.00018H19.0002V15.0002H17.0439L5.55955 6.00018ZM3.00018 15.0002C3.00018 16.1033 3.89705 17.0002 5.00018 17.0002H10.5002L10.1658 18.0002H8.00018C7.44705 18.0002 7.00018 18.4471 7.00018 19.0002C7.00018 19.5533 7.44705 20.0002 8.00018 20.0002H16.0002C16.5533 20.0002 17.0002 19.5533 17.0002 19.0002C17.0002 18.9346 16.9939 18.8721 16.9814 18.8096L15.9564 18.0002H13.8346L13.5002 17.0002H14.6877L12.1502 15.0002H5.00018V9.36893L3.00018 7.79393V15.0002Z" fill="black"/>
</svg>
