<svg width="24" height="24" viewBox="0 0 24 24" fill="none" xmlns="http://www.w3.org/2000/svg">
<path d="M3 6C3 4.89688 3.89688 4 5 4H19C20.1031 4 21 4.89688 21 6V15C21 16.1031 20.1031 17 19 17H13.5L13.8344 18H16C16.5531 18 17 18.4469 17 19C17 19.5531 16.5531 20 16 20H8C7.44687 20 7 19.5531 7 19C7 18.4469 7.44687 18 8 18H10.1656L10.5 17H5C3.89688 17 3 16.1031 3 15V6ZM5 6V15H19V6H5ZM11 8C11 7.725 11.225 7.5 11.5 7.5H12.5C12.775 7.5 13 7.725 13 8V9.5H14.5C14.775 9.5 15 9.725 15 10V11C15 11.275 14.775 11.5 14.5 11.5H13V13C13 13.275 12.775 13.5 12.5 13.5H11.5C11.225 13.5 11 13.275 11 13V11.5H9.5C9.225 11.5 9 11.275 9 11V10C9 9.725 9.225 9.5 9.5 9.5H11V8Z" fill="black"/>
</svg>
