<svg width="24" height="24" viewBox="0 0 24 24" fill="none" xmlns="http://www.w3.org/2000/svg">
<path d="M12 20C8.6875 20 6 17.3125 6 14C6 11.15 10.0688 5.80313 11.2063 4.36562C11.3938 4.13125 11.6719 4 11.9719 4H12.0281C12.3281 4 12.6062 4.13125 12.7937 4.36562C13.9312 5.80313 18 11.15 18 14C18 17.3125 15.3125 20 12 20ZM9 14.5C9 14.225 8.775 14 8.5 14C8.225 14 8 14.225 8 14.5C8 16.4344 9.56562 18 11.5 18C11.775 18 12 17.775 12 17.5C12 17.225 11.775 17 11.5 17C10.1188 17 9 15.8813 9 14.5Z" fill="black"/>
</svg>
