<svg width="24" height="24" viewBox="0 0 24 24" fill="none" xmlns="http://www.w3.org/2000/svg">
<path d="M12 4C12.5532 4 13 4.44687 13 5V6.11562C13.05 6.12187 13.0969 6.12812 13.1469 6.1375C13.1594 6.14062 13.1688 6.14062 13.1813 6.14375L14.6813 6.41875C15.225 6.51875 15.5844 7.04063 15.4844 7.58125C15.3844 8.12187 14.8625 8.48438 14.3219 8.38438L12.8375 8.1125C11.8594 7.96875 10.9969 8.06563 10.3907 8.30625C9.78442 8.54688 9.54067 8.87812 9.48442 9.18437C9.42192 9.51875 9.4688 9.70625 9.52192 9.82188C9.57817 9.94375 9.69379 10.0813 9.92192 10.2344C10.4313 10.5687 11.2125 10.7875 12.225 11.0563L12.3157 11.0813C13.2094 11.3188 14.3032 11.6062 15.1157 12.1375C15.5594 12.4281 15.9782 12.8219 16.2375 13.3719C16.5032 13.9312 16.5594 14.5563 16.4375 15.2219C16.2219 16.4094 15.4032 17.2031 14.3875 17.6187C13.9594 17.7937 13.4938 17.9062 13 17.9625V19C13 19.5531 12.5532 20 12 20C11.4469 20 11 19.5531 11 19V17.9094C10.9875 17.9062 10.9719 17.9062 10.9594 17.9031H10.9532C10.1907 17.7844 8.93755 17.4563 8.0938 17.0813C7.59067 16.8562 7.36255 16.2656 7.58755 15.7625C7.81255 15.2594 8.40317 15.0312 8.9063 15.2563C9.55942 15.5469 10.6344 15.8344 11.2563 15.9312C12.2532 16.0781 13.075 15.9937 13.6313 15.7656C14.1594 15.55 14.4 15.2375 14.4688 14.8625C14.5282 14.5312 14.4813 14.3406 14.4282 14.225C14.3688 14.1 14.2532 13.9625 14.0219 13.8094C13.5094 13.475 12.725 13.2563 11.7094 12.9875L11.6219 12.9656C10.7313 12.7281 9.63755 12.4375 8.82505 11.9062C8.3813 11.6156 7.96567 11.2188 7.7063 10.6687C7.4438 10.1094 7.39067 9.48438 7.51567 8.81875C7.74067 7.625 8.63442 6.85 9.65005 6.44688C10.0657 6.28125 10.5219 6.16875 11 6.10313V5C11 4.44687 11.4469 4 12 4Z" fill="black"/>
</svg>
