<svg width="24" height="24" viewBox="0 0 24 24" fill="none" xmlns="http://www.w3.org/2000/svg">
<path d="M12 20C14.1217 20 16.1566 19.1571 17.6569 17.6569C19.1571 16.1566 20 14.1217 20 12C20 9.87827 19.1571 7.84344 17.6569 6.34315C16.1566 4.84285 14.1217 4 12 4C9.87827 4 7.84344 4.84285 6.34315 6.34315C4.84285 7.84344 4 9.87827 4 12C4 14.1217 4.84285 16.1566 6.34315 17.6569C7.84344 19.1571 9.87827 20 12 20ZM7 10.5H17C17.275 10.5 17.5 10.725 17.5 11V13C17.5 13.275 17.275 13.5 17 13.5H7C6.725 13.5 6.5 13.275 6.5 13V11C6.5 10.725 6.725 10.5 7 10.5Z" fill="black"/>
</svg>
