<svg width="24" height="24" viewBox="0 0 24 24" fill="none" xmlns="http://www.w3.org/2000/svg">
<path d="M9 12.2875C9 12.5531 8.89375 12.8062 8.70625 12.9937L7.86875 13.8313C7.48438 14.2156 6.85313 14.1875 6.325 14.0562C6.18125 14.0187 6.03125 14 5.875 14C4.84063 14 4 14.8406 4 15.875C4 16.9094 4.84063 17.75 5.875 17.75C6.07188 17.75 6.25 17.9281 6.25 18.125C6.25 19.1594 7.09063 20 8.125 20C9.15938 20 10 19.1594 10 18.125C10 17.9688 9.98125 17.8188 9.94375 17.6719C9.8125 17.1438 9.78125 16.5125 10.1687 16.1281L11.0062 15.2906C11.1937 15.1031 11.4469 14.9969 11.7125 14.9969H14.5C14.6969 14.9969 14.8875 14.9875 15.0781 14.9656C15.45 14.9281 15.5906 14.4812 15.4156 14.1531C15.15 13.6594 15 13.0969 15 12.4969C15 10.5625 16.5656 8.99687 18.5 8.99687C18.75 8.99687 18.9906 9.02187 19.225 9.07188C19.5906 9.15 19.9781 8.8875 19.9125 8.52187C19.4531 5.95312 17.2031 4 14.5 4C11.4625 4 9 6.4625 9 9.5V12.2875Z" fill="black"/>
</svg>
