<svg width="24" height="24" viewBox="0 0 24 24" fill="none" xmlns="http://www.w3.org/2000/svg">
<path d="M9.02509 7.01571C9.46259 7.54696 9.99384 7.98133 10.572 8.33446C11.3813 8.82821 12.2501 9.14383 13.0001 9.32196V8.33758C12.3063 7.39071 11.8126 6.23446 11.7688 4.87508C11.7563 4.52196 11.5345 4.20321 11.1938 4.11258C10.9563 4.05008 10.7001 4.10633 10.5376 4.29383C10.122 4.77508 9.51571 5.68758 9.02509 7.01883V7.01571ZM14.0001 8.50008V9.45633V9.49696V10.5001C12.1001 10.3407 8.21884 9.13133 7.14696 5.58758C7.04384 5.25008 6.74696 5.00008 6.39384 5.00008C6.14696 5.00008 5.91571 5.12196 5.80634 5.34383C5.46259 6.05946 5.00009 7.50321 5.00009 9.50008C5.00009 13.1532 7.50321 15.1407 8.70009 15.8376L4.36884 17.0188C4.20946 17.0626 4.08134 17.1813 4.02821 17.3376C3.97509 17.4938 4.00321 17.6688 4.10009 17.8001C4.67821 18.5688 6.41571 20.0001 9.00009 20.0001C9.11259 20.0001 9.22509 19.9626 9.31259 19.8907L11.6751 18.0001H14.0001C16.7626 18.0001 19.0001 15.7626 19.0001 13.0001V8.00008L19.9345 6.59696C19.9751 6.53446 20.0001 6.45946 20.0001 6.38446C20.0001 6.17196 19.8282 6.00008 19.6157 6.00008H16.5001C15.1188 6.00008 14.0001 7.11883 14.0001 8.50008ZM16.5001 8.00008C16.6327 8.00008 16.7599 8.05276 16.8536 8.14653C16.9474 8.2403 17.0001 8.36747 17.0001 8.50008C17.0001 8.63269 16.9474 8.75987 16.8536 8.85364C16.7599 8.9474 16.6327 9.00008 16.5001 9.00008C16.3675 9.00008 16.2403 8.9474 16.1465 8.85364C16.0528 8.75987 16.0001 8.63269 16.0001 8.50008C16.0001 8.36747 16.0528 8.2403 16.1465 8.14653C16.2403 8.05276 16.3675 8.00008 16.5001 8.00008Z" fill="black"/>
</svg>
