<svg width="24" height="24" viewBox="0 0 24 24" fill="none" xmlns="http://www.w3.org/2000/svg">
<path d="M6.8344 4.12817L11.8344 8.62817C12.0407 8.81254 12.0563 9.12817 11.8719 9.33442C11.6875 9.54067 11.3719 9.55629 11.1657 9.37192L6.16565 4.87192C5.9594 4.68754 5.94378 4.37192 6.12815 4.16567C6.31253 3.95942 6.62815 3.94379 6.8344 4.12817ZM7.50003 10H11V15.9782C10.8344 15.9938 10.6688 16 10.5 16C9.60003 16 8.75003 15.7844 8.00003 15.4V19C8.00003 19.5532 7.55315 20 7.00003 20H6.00003C5.4469 20 5.00003 19.5532 5.00003 19V11.8063C4.10003 11.4657 3.39378 10.7032 3.15003 9.72817L3.03128 9.24379C2.8969 8.70942 3.2219 8.16567 3.7594 8.03129C4.2969 7.89692 4.83753 8.22192 4.9719 8.75942L5.09378 9.24379C5.20315 9.68754 5.60315 10 6.06253 10H7.00003H7.50003ZM13 15.4C12.6844 15.5625 12.35 15.6938 12 15.7938V10.5032L16 12.1875V19C16 19.5532 15.5532 20 15 20H14C13.4469 20 13 19.5532 13 19V15.4ZM16.3344 10L16.1407 11.1625L12.5594 9.65317L13.3969 4.62192C13.4563 4.26254 13.7657 4.00004 14.1282 4.00004C14.3625 4.00004 14.5813 4.10942 14.7219 4.29692L15.25 5.00004H16.8782C17.275 5.00004 17.6563 5.15942 17.9375 5.44067L18.5 6.00004H20.25C20.6657 6.00004 21 6.33442 21 6.75004V7.50004C21 8.88129 19.8813 10 18.5 10H17.5H17H16.3344ZM17 7.00004C17.1326 7.00004 17.2598 6.94736 17.3536 6.8536C17.4474 6.75983 17.5 6.63265 17.5 6.50004C17.5 6.36743 17.4474 6.24026 17.3536 6.14649C17.2598 6.05272 17.1326 6.00004 17 6.00004C16.8674 6.00004 16.7402 6.05272 16.6465 6.14649C16.5527 6.24026 16.5 6.36743 16.5 6.50004C16.5 6.63265 16.5527 6.75983 16.6465 6.8536C16.7402 6.94736 16.8674 7.00004 17 7.00004Z" fill="black"/>
</svg>
