<svg width="24" height="24" viewBox="0 0 24 24" fill="none" xmlns="http://www.w3.org/2000/svg">
<path d="M17.7187 4.21876C18.0125 3.92501 18.4875 3.92501 18.7781 4.21876L19.7781 5.21876C20.0719 5.51251 20.0719 5.98751 19.7781 6.27813L17.0594 8.99688L18.2781 10.2156C18.4937 10.4313 18.5562 10.7531 18.4406 11.0344C18.325 11.3156 18.05 11.4969 17.7469 11.4969H13.25C12.8344 11.4969 12.5 11.1625 12.5 10.7469V6.25001C12.5 5.94688 12.6812 5.67188 12.9625 5.55626C13.2437 5.44063 13.5656 5.50313 13.7812 5.71876L15 6.93751L17.7187 4.21876ZM6.24998 12.5H10.75C11.1656 12.5 11.5 12.8344 11.5 13.25V17.75C11.5 18.0531 11.3187 18.3281 11.0375 18.4438C10.7562 18.5594 10.4344 18.4969 10.2187 18.2813L8.99998 17.0625L6.28123 19.7813C5.98748 20.075 5.51248 20.075 5.22185 19.7813L4.21873 18.7813C3.92498 18.4875 3.92498 18.0125 4.21873 17.7219L6.93748 15.0031L5.71873 13.7813C5.5031 13.5656 5.4406 13.2438 5.55623 12.9625C5.67185 12.6813 5.94685 12.5 6.24998 12.5Z" fill="black"/>
</svg>
