<svg width="24" height="24" viewBox="0 0 24 24" fill="none" xmlns="http://www.w3.org/2000/svg">
<path d="M20 17V15C20 13.8969 19.1031 13 18 13H6C4.89688 13 4 13.8969 4 15V17C4 18.1031 4.89688 19 6 19H18C19.1031 19 20 18.1031 20 17ZM6 9V7H10.5H11V9H6ZM13 9V7H15.5C15.775 7 16 7.225 16 7.5V8H14.8094C14.1406 8 13.8062 8.80937 14.2781 9.28125L16.4688 11.4688C16.7625 11.7625 17.2375 11.7625 17.5281 11.4688L19.7188 9.28125C20.1906 8.80937 19.8562 8 19.1875 8H18V7.5C18 6.11875 16.8813 5 15.5 5H11H10.5H6C4.89688 5 4 5.89688 4 7V9C4 10.1031 4.89688 11 6 11H11C12.1031 11 13 10.1031 13 9Z" fill="black"/>
</svg>
