<svg width="24" height="24" viewBox="0 0 24 24" fill="none" xmlns="http://www.w3.org/2000/svg">
<path d="M10 16.9C8.7625 15.6375 8 13.9062 8 12C8 10.0938 8.7625 8.3625 10 7.1C9.67812 7.03437 9.34375 7 9 7C6.2375 7 4 9.2375 4 12C4 14.7625 6.2375 17 9 17C9.34375 17 9.67812 16.9656 10 16.9ZM12 18.3281C11.0906 18.7594 10.075 19.0031 9 19.0031C5.13438 19 2 15.8656 2 12C2 8.13438 5.13438 5 9 5C10.075 5 11.0906 5.24062 12 5.675C12.9094 5.24062 13.925 5 15 5C18.8656 5 22 8.13438 22 12C22 15.8656 18.8656 19 15 19C13.925 19 12.9094 18.7594 12 18.325V18.3281ZM13.5844 10H10.4156C10.2125 10.4656 10.0781 10.9719 10.025 11.5H13.975C13.9219 10.9719 13.7875 10.4656 13.5844 10ZM10.4156 14H13.5844C13.7875 13.5344 13.9219 13.0281 13.975 12.5H10.025C10.0781 13.0281 10.2125 13.5344 10.4156 14ZM11 15C11.2844 15.3781 11.6219 15.7156 12 16C12.3781 15.7156 12.7156 15.3781 13 15H11ZM13 9C12.7156 8.62187 12.3781 8.28438 12 8C11.6219 8.28438 11.2844 8.62187 11 9H13Z" fill="black"/>
</svg>
