<svg width="24" height="24" viewBox="0 0 24 24" fill="none" xmlns="http://www.w3.org/2000/svg">
<path d="M15.9438 4H16C19.3125 4 22 6.6875 22 10V10.9563C22 13.7063 20.3906 16.1313 18 17.2531V19C18 19.5531 17.5531 20 17 20H15C14.4469 20 14 19.5531 14 19V18.3125C13.5219 18.4344 13.0188 18.5 12.5 18.5C12.2875 18.5 12.0781 18.4875 11.8719 18.4688C11.6375 17.8781 11.1094 17.4281 10.4531 17.3188L7.0625 16.7531C6.45 16.65 6 16.1219 6 15.5C6 15.225 5.775 15 5.5 15C5.225 15 5 15.225 5 15.5C5 16.6094 5.80312 17.5563 6.89687 17.7406L10.2875 18.3062C10.7 18.375 11 18.7313 11 19.1469C11 19.6188 10.6188 20 10.1469 20H10H9H8H5.77187C3.69062 20 2 18.3094 2 16.2281C2 15.1656 2.45 14.15 3.23438 13.4375L6.0375 10.8875C7.375 9.67188 9.1125 9 10.9156 9C12.4844 9 14.0094 9.50937 15.2656 10.45L17 11.75C17.2156 11.9125 17.4781 12 17.75 12C18.4406 12 19 11.4406 19 10.75V10C19 8.89687 18.1031 8 17 8H16H14.9906C14.1688 8 13.5 7.33125 13.5 6.50938V6.3625C13.5 5.84062 13.8156 5.375 14.3 5.18125L14.3531 5.15937C14.6094 5.05625 14.8156 4.86563 14.9375 4.62187C15.1313 4.24062 15.5188 4 15.9438 4ZM16.5 6C16.6326 6 16.7598 5.94732 16.8536 5.85355C16.9473 5.75979 17 5.63261 17 5.5C17 5.36739 16.9473 5.24021 16.8536 5.14645C16.7598 5.05268 16.6326 5 16.5 5C16.3674 5 16.2402 5.05268 16.1464 5.14645C16.0527 5.24021 16 5.36739 16 5.5C16 5.63261 16.0527 5.75979 16.1464 5.85355C16.2402 5.94732 16.3674 6 16.5 6Z" fill="black"/>
</svg>
