<svg width="24" height="24" viewBox="0 0 24 24" fill="none" xmlns="http://www.w3.org/2000/svg">
<path d="M13 5.00002C13 4.69065 12.8594 4.40002 12.6156 4.21252C12.3719 4.02502 12.0563 3.95627 11.7563 4.03127L6.13438 5.43752C5.46875 5.60315 5 6.20315 5 6.89065V18H4C3.44687 18 3 18.4469 3 19C3 19.5531 3.44687 20 4 20H6H12H13V19V5.00002ZM11 12C11 12.5531 10.6656 13 10.25 13C9.83437 13 9.5 12.5531 9.5 12C9.5 11.4469 9.83437 11 10.25 11C10.6656 11 11 11.4469 11 12ZM14 8.00002H17V19C17 19.5531 17.4469 20 18 20H20C20.5531 20 21 19.5531 21 19C21 18.4469 20.5531 18 20 18H19V8.00002C19 6.8969 18.1031 6.00002 17 6.00002H14V8.00002Z" fill="black"/>
</svg>
