<svg width="24" height="24" viewBox="0 0 24 24" fill="none" xmlns="http://www.w3.org/2000/svg">
<path d="M4 10.5C4 7.7375 7.58125 5.5 12 5.5C16.4187 5.5 20 7.7375 20 10.5V11.4688C19.9781 11.7812 19.8656 12.0781 19.6719 12.325C19.4781 12.575 19.2125 12.7625 18.9094 12.8594L18.9 12.8625L18.8906 12.8656C18.4812 13.0188 18.1281 13.2969 17.8906 13.6625C17.5969 14.0688 17.2031 14.3906 16.75 14.6031C16.2906 14.8156 15.7875 14.9031 15.2844 14.8625H15.2656H15.2469C14.6937 14.8562 14.1438 14.9656 13.6313 15.1781H13.6281C13.1156 15.3969 12.5625 15.5063 12.0063 15.5H11.9969C11.4406 15.5063 10.8875 15.3969 10.375 15.1781H10.3719C9.85938 14.9656 9.30937 14.8594 8.75625 14.8625H8.7375H8.71875C8.21562 14.9031 7.70937 14.8125 7.25312 14.6C6.79688 14.3875 6.40625 14.0656 6.1125 13.6562C5.87187 13.2906 5.52187 13.0125 5.1125 12.8594L5.1 12.8562L5.0875 12.8531C4.78437 12.7562 4.51875 12.5688 4.325 12.3188C4.13437 12.075 4.02187 11.7781 4 11.4656V10.5ZM4 13.3969C4.23125 13.575 4.49063 13.7125 4.76875 13.8031C4.97812 13.8844 5.15625 14.0281 5.27813 14.2156L5.28437 14.225L5.29062 14.2344C5.68438 14.7844 6.21562 15.225 6.83125 15.5094C7.44062 15.7906 8.1125 15.9125 8.78125 15.8625C9.19375 15.8594 9.60313 15.9406 9.98438 16.1C10.6219 16.3688 11.3094 16.5063 12 16.5C12.6906 16.5063 13.3781 16.3688 14.0156 16.1C14.3969 15.9406 14.8062 15.8625 15.2188 15.8625C15.8875 15.9156 16.5594 15.7937 17.1656 15.5125C17.7812 15.2281 18.3125 14.7906 18.7063 14.2406L18.7125 14.2312L18.7188 14.2219C18.8406 14.0344 19.0187 13.8906 19.2281 13.8094C19.5062 13.7188 19.7688 13.5781 19.9969 13.4031V13.5C19.9969 16.2625 16.4156 18.5 11.9969 18.5C7.57812 18.5 4 16.2625 4 13.5V13.3969ZM14 10C14 9.44688 13.1031 9 12 9C10.8969 9 10 9.44688 10 10C10 10.5531 10.8969 11 12 11C13.1031 11 14 10.5531 14 10ZM12.8531 6.64687C12.6594 6.45312 12.3406 6.45312 12.1469 6.64687L11.6469 7.14687C11.4531 7.34062 11.4531 7.65938 11.6469 7.85313C11.8406 8.04688 12.1594 8.04688 12.3531 7.85313L12.8531 7.35313C13.0469 7.15938 13.0469 6.84062 12.8531 6.64687ZM9.35313 7.85313C9.54688 7.65938 9.54688 7.34062 9.35313 7.14687C9.15938 6.95312 8.84062 6.95312 8.64687 7.14687L7.64687 8.14687C7.45312 8.34062 7.45312 8.65938 7.64687 8.85313C7.84062 9.04688 8.15938 9.04688 8.35313 8.85313L9.35313 7.85313ZM16.3531 8.14687C16.1594 7.95312 15.8406 7.95312 15.6469 8.14687C15.4531 8.34062 15.4531 8.65938 15.6469 8.85313L16.6469 9.85313C16.8406 10.0469 17.1594 10.0469 17.3531 9.85313C17.5469 9.65938 17.5469 9.34062 17.3531 9.14687L16.3531 8.14687ZM6 10C5.725 10 5.5 10.225 5.5 10.5C5.5 10.775 5.725 11 6 11H7C7.275 11 7.5 10.775 7.5 10.5C7.5 10.225 7.275 10 7 10H6ZM16.3531 11.1469C16.1594 10.9531 15.8406 10.9531 15.6469 11.1469C15.4531 11.3406 15.4531 11.6594 15.6469 11.8531L16.6469 12.8531C16.8406 13.0469 17.1594 13.0469 17.3531 12.8531C17.5469 12.6594 17.5469 12.3406 17.3531 12.1469L16.3531 11.1469ZM8.85313 11.6469C8.65938 11.4531 8.34062 11.4531 8.14687 11.6469C7.95312 11.8406 7.95312 12.1594 8.14687 12.3531L9.14687 13.3531C9.34062 13.5469 9.65938 13.5469 9.85313 13.3531C10.0469 13.1594 10.0469 12.8406 9.85313 12.6469L8.85313 11.6469ZM14.3531 12.8531C14.5469 12.6594 14.5469 12.3406 14.3531 12.1469C14.1594 11.9531 13.8406 11.9531 13.6469 12.1469L12.6469 13.1469C12.4531 13.3406 12.4531 13.6594 12.6469 13.8531C12.8406 14.0469 13.1594 14.0469 13.3531 13.8531L14.3531 12.8531Z" fill="black"/>
</svg>
