<svg width="24" height="24" viewBox="0 0 24 24" fill="none" xmlns="http://www.w3.org/2000/svg">
<path d="M10.5904 5.07192C9.7123 4.1938 8.2873 4.1938 7.40918 5.07192L3.07168 9.40942C2.19355 10.2875 2.19355 11.7125 3.07168 12.5907L7.40918 16.9282C8.2873 17.8063 9.7123 17.8063 10.5904 16.9282L14.9279 12.5907C15.8061 11.7125 15.8061 10.2875 14.9279 9.40942L10.5904 5.07192ZM8.2498 11C8.2498 10.8011 8.32882 10.6104 8.46947 10.4697C8.61013 10.3291 8.80089 10.25 8.9998 10.25C9.19872 10.25 9.38948 10.3291 9.53013 10.4697C9.67079 10.6104 9.7498 10.8011 9.7498 11C9.7498 11.199 9.67079 11.3897 9.53013 11.5304C9.38948 11.671 9.19872 11.75 8.9998 11.75C8.80089 11.75 8.61013 11.671 8.46947 11.5304C8.32882 11.3897 8.2498 11.199 8.2498 11ZM4.9998 10.25C5.19872 10.25 5.38948 10.3291 5.53013 10.4697C5.67079 10.6104 5.7498 10.8011 5.7498 11C5.7498 11.199 5.67079 11.3897 5.53013 11.5304C5.38948 11.671 5.19872 11.75 4.9998 11.75C4.80089 11.75 4.61013 11.671 4.46947 11.5304C4.32882 11.3897 4.2498 11.199 4.2498 11C4.2498 10.8011 4.32882 10.6104 4.46947 10.4697C4.61013 10.3291 4.80089 10.25 4.9998 10.25ZM8.9998 15.75C8.80089 15.75 8.61013 15.671 8.46947 15.5304C8.32882 15.3897 8.2498 15.199 8.2498 15C8.2498 14.8011 8.32882 14.6104 8.46947 14.4697C8.61013 14.3291 8.80089 14.25 8.9998 14.25C9.19872 14.25 9.38948 14.3291 9.53013 14.4697C9.67079 14.6104 9.7498 14.8011 9.7498 15C9.7498 15.199 9.67079 15.3897 9.53013 15.5304C9.38948 15.671 9.19872 15.75 8.9998 15.75ZM12.9998 10.25C13.1987 10.25 13.3895 10.3291 13.5301 10.4697C13.6708 10.6104 13.7498 10.8011 13.7498 11C13.7498 11.199 13.6708 11.3897 13.5301 11.5304C13.3895 11.671 13.1987 11.75 12.9998 11.75C12.8009 11.75 12.6101 11.671 12.4695 11.5304C12.3288 11.3897 12.2498 11.199 12.2498 11C12.2498 10.8011 12.3288 10.6104 12.4695 10.4697C12.6101 10.3291 12.8009 10.25 12.9998 10.25ZM8.9998 7.75005C8.80089 7.75005 8.61013 7.67103 8.46947 7.53038C8.32882 7.38973 8.2498 7.19896 8.2498 7.00005C8.2498 6.80114 8.32882 6.61037 8.46947 6.46972C8.61013 6.32907 8.80089 6.25005 8.9998 6.25005C9.19872 6.25005 9.38948 6.32907 9.53013 6.46972C9.67079 6.61037 9.7498 6.80114 9.7498 7.00005C9.7498 7.19896 9.67079 7.38973 9.53013 7.53038C9.38948 7.67103 9.19872 7.75005 8.9998 7.75005ZM11.9998 18C11.9998 19.1032 12.8967 20 13.9998 20H19.9998C21.1029 20 21.9998 19.1032 21.9998 18V12C21.9998 10.8969 21.1029 10 19.9998 10H16.4279C16.7904 11.125 16.5248 12.4063 15.6342 13.2969L11.9998 16.9313V18ZM16.9998 14.25C17.1987 14.25 17.3895 14.3291 17.5301 14.4697C17.6708 14.6104 17.7498 14.8011 17.7498 15C17.7498 15.199 17.6708 15.3897 17.5301 15.5304C17.3895 15.671 17.1987 15.75 16.9998 15.75C16.8009 15.75 16.6101 15.671 16.4695 15.5304C16.3288 15.3897 16.2498 15.199 16.2498 15C16.2498 14.8011 16.3288 14.6104 16.4695 14.4697C16.6101 14.3291 16.8009 14.25 16.9998 14.25Z" fill="black"/>
</svg>
