<svg width="24" height="24" viewBox="0 0 24 24" fill="none" xmlns="http://www.w3.org/2000/svg">
<path d="M11.5 4.50003C11.5 4.2969 11.375 4.11253 11.1875 4.03753C11 3.96253 10.7813 4.00628 10.6406 4.15315L4.14065 10.9032C4.02502 11.025 3.97502 11.1938 4.01252 11.3594C4.05002 11.525 4.16565 11.6563 4.3219 11.7188L10.8219 14.2188C10.975 14.2782 11.15 14.2563 11.2844 14.1657C11.4188 14.075 11.5 13.9188 11.5 13.7532V4.50003ZM5.08127 13.6094C4.95315 13.8063 4.97815 14.0657 5.14065 14.2344L10.6406 19.85C10.7813 19.9938 11 20.0407 11.1875 19.9625C11.375 19.8844 11.5 19.7032 11.5 19.5V16C11.5 15.7938 11.3719 15.6063 11.1781 15.5344L5.67815 13.4188C5.4594 13.3344 5.2094 13.4157 5.08127 13.6094ZM18.9156 13.6094C18.7875 13.4125 18.5375 13.3344 18.3188 13.4188L12.8188 15.5344C12.625 15.6094 12.4969 15.7938 12.4969 16V19.5C12.4969 19.7032 12.6188 19.8875 12.8094 19.9625C13 20.0375 13.2125 19.9938 13.3563 19.85L18.8563 14.2344C19.0219 14.0657 19.0469 13.8063 18.9156 13.6094ZM12.8125 4.03753C12.625 4.11253 12.5 4.2969 12.5 4.50003V13.75C12.5 13.9157 12.5813 14.0688 12.7156 14.1625C12.85 14.2563 13.025 14.275 13.1781 14.2157L19.6781 11.7157C19.8344 11.6563 19.95 11.5219 19.9875 11.3563C20.025 11.1907 19.975 11.0219 19.8594 10.9L13.3594 4.15003C13.2188 4.00628 13.0031 3.9594 12.8125 4.03753Z" fill="black"/>
</svg>
