<svg width="24" height="24" viewBox="0 0 24 24" fill="none" xmlns="http://www.w3.org/2000/svg">
<path d="M12.0846 5.7937L4.79395 13.0843C4.0127 13.8656 4.0127 15.1312 4.79395 15.9125L7.29395 18.4125C7.66895 18.7875 8.17832 18.9968 8.70957 18.9968H12.0002H12.2939H19.0002C19.5533 18.9968 20.0002 18.55 20.0002 17.9968C20.0002 17.4437 19.5533 16.9968 19.0002 16.9968H15.1221L19.2064 12.9156C19.9877 12.1343 19.9877 10.8687 19.2064 10.0875L14.9158 5.7937C14.1346 5.01245 12.8689 5.01245 12.0877 5.7937H12.0846ZM12.2939 17H12.0002H8.70645L6.20645 14.5L10.1033 10.6031L14.3971 14.8968L12.2939 17Z" fill="black"/>
</svg>
