<svg width="24" height="24" viewBox="0 0 24 24" fill="none" xmlns="http://www.w3.org/2000/svg">
<path d="M16.4469 4.10577C15.9531 3.85889 15.3531 4.05889 15.1062 4.55264C14.8594 5.04639 15.0594 5.64327 15.55 5.89327L15.5625 5.89952C15.575 5.90577 15.5969 5.91827 15.6281 5.93702C15.6906 5.97452 15.7844 6.03077 15.9 6.11202C16.1344 6.27452 16.45 6.52452 16.7656 6.86827C17.3906 7.54327 18 8.56202 18 9.99952C18 10.5526 18.4469 10.9995 19 10.9995C19.5531 10.9995 20 10.5526 20 9.99952C20 7.93702 19.1094 6.45577 18.2344 5.50889C17.8 5.03702 17.3656 4.69327 17.0406 4.46827C16.875 4.35264 16.7375 4.26827 16.6344 4.20889C16.5844 4.17764 16.5406 4.15577 16.5094 4.14014C16.4937 4.13077 16.4812 4.12452 16.4719 4.11827L16.4594 4.11202L16.4531 4.10889H16.45C16.45 4.10889 16.45 4.10889 16.0031 5.00264L16.4469 4.10577ZM8.02187 11.1089C8.21562 9.35889 9.7 7.99952 11.5 7.99952C13.4344 7.99952 15 9.56514 15 11.4995C15 12.4151 14.65 13.2464 14.075 13.8714C13.5437 14.4464 13 15.2808 13 16.3089V16.4995C13 17.3276 12.3281 17.9995 11.5 17.9995C10.9469 17.9995 10.5 18.4464 10.5 18.9995C10.5 19.5526 10.9469 19.9995 11.5 19.9995C13.4344 19.9995 15 18.4339 15 16.4995V16.3089C15 16.0026 15.1687 15.6308 15.5437 15.2245C16.4469 14.2464 17 12.937 17 11.4995C17 8.46202 14.5375 5.99952 11.5 5.99952C8.66875 5.99952 6.3375 8.14014 6.03437 10.8901C5.975 11.4401 6.36875 11.9339 6.91875 11.9933C7.46875 12.0526 7.9625 11.6589 8.02187 11.1089ZM5 19.9995C5.26522 19.9995 5.51957 19.8942 5.70711 19.7066C5.89464 19.5191 6 19.2647 6 18.9995C6 18.7343 5.89464 18.4799 5.70711 18.2924C5.51957 18.1049 5.26522 17.9995 5 17.9995C4.73478 17.9995 4.48043 18.1049 4.29289 18.2924C4.10536 18.4799 4 18.7343 4 18.9995C4 19.2647 4.10536 19.5191 4.29289 19.7066C4.48043 19.8942 4.73478 19.9995 5 19.9995ZM10 14.9995C10 14.7343 9.89464 14.4799 9.70711 14.2924C9.51957 14.1049 9.26522 13.9995 9 13.9995C8.73478 13.9995 8.48043 14.1049 8.29289 14.2924C8.10536 14.4799 8 14.7343 8 14.9995C8 15.2647 8.10536 15.5191 8.29289 15.7066C8.48043 15.8942 8.73478 15.9995 9 15.9995C9.26522 15.9995 9.51957 15.8942 9.70711 15.7066C9.89464 15.5191 10 15.2647 10 14.9995ZM5.29375 15.2933C4.90313 15.6839 4.90313 16.3183 5.29375 16.7089L7.29375 18.7089C7.68438 19.0995 8.31875 19.0995 8.70937 18.7089C9.1 18.3183 9.1 17.6839 8.70937 17.2933L6.70937 15.2933C6.31875 14.9026 5.68438 14.9026 5.29375 15.2933ZM10.5 11.4995C10.5 10.9464 10.9469 10.4995 11.5 10.4995C12.0531 10.4995 12.5 10.9464 12.5 11.4995C12.5 11.9151 12.8344 12.2495 13.25 12.2495C13.6656 12.2495 14 11.9151 14 11.4995C14 10.1183 12.8813 8.99952 11.5 8.99952C10.1188 8.99952 9 10.1183 9 11.4995C9 11.9151 9.33437 12.2495 9.75 12.2495C10.1656 12.2495 10.5 11.9151 10.5 11.4995Z" fill="black"/>
</svg>
