<svg width="24" height="24" viewBox="0 0 24 24" fill="none" xmlns="http://www.w3.org/2000/svg">
<path d="M13.2968 4.03756C13.4531 4.10318 13.5656 4.24381 13.5968 4.40943L13.8968 6.04068C12.8281 6.50943 11.9062 7.25631 11.2281 8.19068C10.8406 8.06568 10.4281 7.99693 9.99681 7.99693C7.78744 7.99693 5.99681 9.78756 5.99681 11.9969C5.99681 14.2063 7.78744 15.9969 9.99681 15.9969C10.4249 15.9969 10.8406 15.9282 11.2281 15.8032C11.9062 16.7376 12.8249 17.4876 13.8968 17.9532L13.5968 19.5844C13.5656 19.7501 13.4531 19.8907 13.2968 19.9563C13.1406 20.0219 12.9624 20.0032 12.8218 19.9063L9.99994 17.9657L7.17806 19.9126C7.03744 20.0094 6.85931 20.0282 6.70306 19.9626C6.54681 19.8969 6.43431 19.7563 6.40306 19.5907L5.78119 16.2188L2.40931 15.5969C2.24369 15.5657 2.10306 15.4532 2.03744 15.2969C1.97181 15.1407 1.99056 14.9626 2.08744 14.8219L4.03431 12.0001L2.08744 9.17818C1.99056 9.03756 1.97181 8.85943 2.03744 8.70318C2.10306 8.54693 2.24369 8.43443 2.40931 8.40318L5.78119 7.78131L6.40306 4.40943C6.43431 4.24381 6.54681 4.10318 6.70306 4.03756C6.85931 3.97193 7.03744 3.99068 7.17806 4.08756L9.99994 6.03443L12.8218 4.08756C12.9624 3.99068 13.1406 3.97193 13.2968 4.03756ZM9.99994 9.00006C10.2374 9.00006 10.4687 9.02818 10.6906 9.08131C10.2499 9.95943 9.99994 10.9501 9.99994 12.0001C9.99994 13.0501 10.2499 14.0407 10.6906 14.9188C10.4687 14.9719 10.2374 15.0001 9.99994 15.0001C8.34369 15.0001 6.99994 13.6563 6.99994 12.0001C6.99994 10.3438 8.34369 9.00006 9.99994 9.00006ZM16.4999 6.50006C17.9586 6.50006 19.3576 7.07952 20.389 8.11097C21.4205 9.14242 21.9999 10.5414 21.9999 12.0001C21.9999 13.4587 21.4205 14.8577 20.389 15.8891C19.3576 16.9206 17.9586 17.5001 16.4999 17.5001C15.0412 17.5001 13.6423 16.9206 12.6108 15.8891C11.5794 14.8577 10.9999 13.4587 10.9999 12.0001C10.9999 10.5414 11.5794 9.14242 12.6108 8.11097C13.6423 7.07952 15.0412 6.50006 16.4999 6.50006Z" fill="black"/>
</svg>
