<svg width="24" height="24" viewBox="0 0 24 24" fill="none" xmlns="http://www.w3.org/2000/svg">
<path d="M14.675 4.9125L11.5031 8.0875L11.2093 7.79375C10.8187 7.40312 10.1843 7.40312 9.79371 7.79375C9.40309 8.18437 9.40309 8.81875 9.79371 9.20937L14.7937 14.2094C15.1843 14.6 15.8187 14.6 16.2093 14.2094C16.6 13.8187 16.6 13.1844 16.2093 12.7937L15.9156 12.5L19.0875 9.325C20.3062 8.10625 20.3062 6.13125 19.0875 4.91562C17.8687 3.7 15.8937 3.69687 14.6781 4.91562L14.675 4.9125ZM5.73121 14.1031C5.26246 14.5719 4.99996 15.2094 4.99996 15.8719V17.1969L4.16871 18.4437C3.90309 18.8406 3.95621 19.3687 4.29371 19.7062C4.63121 20.0437 5.15934 20.0969 5.55621 19.8312L6.80309 19H8.12809C8.79059 19 9.42809 18.7375 9.89684 18.2687L13.6687 14.4969L9.50309 10.3312L5.73121 14.1031Z" fill="black"/>
</svg>
