<svg width="24" height="24" viewBox="0 0 24 24" fill="none" xmlns="http://www.w3.org/2000/svg">
<path d="M10.7312 7H8.5H7.36875H7V7.275V8.5V9.7625V12.5437L4.00625 10.3281C4.05625 9.7625 4.34687 9.2375 4.80937 8.89687L5.5 8.38438V7C5.5 6.17188 6.17188 5.5 7 5.5H9.39375L10.9531 4.34688C11.2562 4.12188 11.6219 4 12 4C12.3781 4 12.7437 4.12188 13.0469 4.34375L14.6062 5.5H17C17.8281 5.5 18.5 6.17188 18.5 7V8.38438L19.1906 8.89687C19.6531 9.2375 19.9437 9.7625 19.9937 10.3281L17 12.5437V9.7625V8.5V7.275V7H16.6313H15.5H13.2688H10.7312ZM4 18V11.5656L10.8 16.6031C11.1469 16.8594 11.5687 17 12 17C12.4312 17 12.8531 16.8625 13.2 16.6031L20 11.5656V18C20 19.1031 19.1031 20 18 20H6C4.89688 20 4 19.1031 4 18ZM9.5 9H14.5C14.775 9 15 9.225 15 9.5C15 9.775 14.775 10 14.5 10H9.5C9.225 10 9 9.775 9 9.5C9 9.225 9.225 9 9.5 9ZM9.5 11H14.5C14.775 11 15 11.225 15 11.5C15 11.775 14.775 12 14.5 12H9.5C9.225 12 9 11.775 9 11.5C9 11.225 9.225 11 9.5 11Z" fill="black"/>
</svg>
