<svg width="24" height="24" viewBox="0 0 24 24" fill="none" xmlns="http://www.w3.org/2000/svg">
<path d="M15.9969 14.475C15.4281 14.9844 15.0594 15.6969 14.9 16.4406C14.725 17.2625 14.3188 18.0437 13.6813 18.6812C11.925 20.4375 9.075 20.4375 7.31875 18.6812C6.44063 17.8031 6 16.6531 6 15.5V10C6 6.6875 8.6875 4 12 4C15.3125 4 18 6.6875 18 10C18 11.7781 17.225 13.375 15.9969 14.475ZM10 10C10 8.89687 10.8969 8 12 8C13.1031 8 14 8.89687 14 10V10.25C14 10.6656 14.3344 11 14.75 11C15.1656 11 15.5 10.6656 15.5 10.25V10C15.5 8.06563 13.9344 6.5 12 6.5C10.0656 6.5 8.5 8.06563 8.5 10V10.6312C8.5 11.2937 8.875 11.9 9.46875 12.1969L9.90625 12.4156C9.9625 12.4437 10 12.5031 10 12.5688C10 12.6188 9.97813 12.6687 9.9375 12.7L8.76875 13.675C8.45 13.9406 8.40625 14.4125 8.67188 14.7312C8.9375 15.05 9.40938 15.0938 9.72813 14.8281L10.8969 13.8531C11.2812 13.5344 11.5 13.0656 11.5 12.5688C11.5 11.9375 11.1438 11.3562 10.5781 11.075L10.1406 10.8562C10.0563 10.8125 10.0031 10.7281 10.0031 10.6312V10H10Z" fill="black"/>
</svg>
