<svg width="24" height="24" viewBox="0 0 24 24" fill="none" xmlns="http://www.w3.org/2000/svg">
<path d="M18.6125 4.35317C18.8219 4.0188 19.2531 3.90005 19.6031 4.08755C19.9531 4.27505 20.0969 4.69692 19.9344 5.0563L15.65 14.5813C15.7188 14.6532 15.7844 14.7282 15.8469 14.8032L18.8844 13.0938C19.2125 12.9094 19.6219 12.9969 19.85 13.2938C20.0781 13.5907 20.0469 14.0125 19.7812 14.2782L17.0625 16.9969H14.8281C14.4156 15.8313 13.3062 14.9969 12 14.9969C10.6937 14.9969 9.58125 15.8313 9.17188 16.9969H6.68125L4.32187 15.3657C4.01875 15.1563 3.9125 14.7532 4.075 14.4188C4.2375 14.0844 4.61875 13.9219 4.97187 14.0313L8.00938 14.9813C8.10313 14.8594 8.2 14.7407 8.30312 14.6282L6.35625 11.3844C6.16563 11.0688 6.23438 10.6625 6.51562 10.425C6.79688 10.1875 7.20938 10.1907 7.4875 10.4282L10.6875 13.175C10.7344 13.1625 10.7812 13.15 10.8281 13.1407L11.2531 8.6813C11.2906 8.29692 11.6125 8.00317 12 8.00317C12.3875 8.00317 12.7094 8.29692 12.7469 8.6813L13.1687 13.1157L18.6125 4.35317ZM5 18H19H20C20.5531 18 21 18.4469 21 19C21 19.5532 20.5531 20 20 20H4C3.44687 20 3 19.5532 3 19C3 18.4469 3.44687 18 4 18H5ZM12 4.00005C12.4156 4.00005 12.75 4.33442 12.75 4.75005V6.25005C12.75 6.66567 12.4156 7.00005 12 7.00005C11.5844 7.00005 11.25 6.66567 11.25 6.25005V4.75005C11.25 4.33442 11.5844 4.00005 12 4.00005Z" fill="black"/>
</svg>
