<svg width="24" height="24" viewBox="0 0 24 24" fill="none" xmlns="http://www.w3.org/2000/svg">
<path d="M6 10.5031L12 6.05938L18 10.5031V11.9844L13.0469 15.6562C12.7438 15.8812 12.3781 16 12 16C11.6219 16 11.2562 15.8781 10.9531 15.6562L6 11.9844V10.5031ZM12 4C11.6219 4 11.2562 4.12188 10.9531 4.34375L4.80937 8.89687C4.3 9.275 4 9.86875 4 10.5031V18C4 19.1031 4.89688 20 6 20H18C19.1031 20 20 19.1031 20 18V10.5031C20 9.86875 19.7 9.27187 19.1906 8.89687L13.0469 4.34375C12.7438 4.12188 12.3781 4 12 4Z" fill="black"/>
</svg>
