<svg width="24" height="24" viewBox="0 0 24 24" fill="none" xmlns="http://www.w3.org/2000/svg">
<path d="M12.8845 5.22818C13.8345 6.21568 15.6689 7.28756 16.9939 7.62506C17.8532 7.84381 18.6439 8.35006 19.2126 9.11881C20.5282 10.8938 20.1564 13.4001 18.3814 14.7157C17.8251 15.1282 17.197 15.3751 16.5564 15.4657C15.3939 15.6282 13.9157 16.4876 13.3282 17.5032C11.947 19.8938 8.89073 20.7126 6.49698 19.3344C4.10323 17.9563 3.29073 14.8907 4.66886 12.5001C5.44386 11.1594 5.87823 9.19068 6.01573 7.65006C6.09698 6.71881 6.50323 5.81256 7.22823 5.11568C8.82198 3.58443 11.3532 3.63443 12.8845 5.22818ZM14.5001 11.5001C14.5001 10.5718 14.1314 9.68156 13.475 9.02519C12.8186 8.36881 11.9284 8.00006 11.0001 8.00006C10.0718 8.00006 9.18161 8.36881 8.52523 9.02519C7.86886 9.68156 7.50011 10.5718 7.50011 11.5001C7.50011 12.4283 7.86886 13.3186 8.52523 13.9749C9.18161 14.6313 10.0718 15.0001 11.0001 15.0001C11.9284 15.0001 12.8186 14.6313 13.475 13.9749C14.1314 13.3186 14.5001 12.4283 14.5001 11.5001ZM9.50011 11.2501C9.50011 11.5251 9.27511 11.7501 9.00011 11.7501C8.72511 11.7501 8.50011 11.5251 8.50011 11.2501C8.50011 10.0063 9.50636 9.00006 10.7501 9.00006C11.0251 9.00006 11.2501 9.22506 11.2501 9.50006C11.2501 9.77506 11.0251 10.0001 10.7501 10.0001C10.0595 10.0001 9.50011 10.5594 9.50011 11.2501Z" fill="black"/>
</svg>
