<svg width="24" height="24" viewBox="0 0 24 24" fill="none" xmlns="http://www.w3.org/2000/svg">
<path d="M12 19.5C8.6875 19.5 6 16.3125 6 13C6 9.5 8 4.5 12 4.5C16 4.5 18 9.5 18 13C18 16.3125 15.3125 19.5 12 19.5ZM10.8375 8.1875C11.0406 8 11.0563 7.68438 10.8688 7.48125C10.6813 7.27813 10.3656 7.2625 10.1625 7.45C9.41562 8.13125 8.87813 9.09688 8.52813 10.0813C8.17813 11.0656 8 12.1156 8 13C8 13.275 8.225 13.5 8.5 13.5C8.775 13.5 9 13.275 9 13C9 12.2344 9.15625 11.3 9.47187 10.4125C9.7875 9.52187 10.2531 8.72188 10.8375 8.1875Z" fill="black"/>
</svg>
