<svg width="24" height="24" viewBox="0 0 24 24" fill="none" xmlns="http://www.w3.org/2000/svg">
<path d="M11.5002 4C9.56578 4 8.00015 5.56562 8.00015 7.5C8.00015 9.43438 9.56578 11 11.5002 11C11.7752 11 12.0002 11.225 12.0002 11.5C12.0002 11.775 11.7752 12 11.5002 12C9.01578 12 7.00015 9.98438 7.00015 7.5C7.00015 6.70938 7.20328 5.96563 7.56265 5.31875C6.92203 5.5375 6.3314 5.85937 5.80953 6.26875C4.1064 7.49687 3.00015 9.49375 3.00015 11.75V12.3438C3.00015 12.7312 2.96265 13.1156 2.88453 13.4969C2.82515 13.7875 2.70328 14.0594 2.52828 14.2969L2.15015 14.8C1.90015 15.1313 1.9689 15.6 2.30015 15.85C2.6314 16.1 3.10015 16.0312 3.35015 15.7L3.72828 15.1938C3.82828 15.0594 3.9189 14.9188 4.00015 14.7719V19C4.00015 19.5531 4.44703 20 5.00015 20H7.00015C7.55328 20 8.00015 19.5531 8.00015 19V16.8125C8.47828 16.9344 8.9814 17 9.50015 17C10.0189 17 10.522 16.9344 11.0002 16.8125V19C11.0002 19.5531 11.447 20 12.0002 20H14.0002C14.5533 20 15.0002 19.5531 15.0002 19V14.6469C15.522 15.2375 16.2127 15.6719 17.0002 15.875V16.4563C17.0002 17.8625 18.1408 19 19.5439 19C20.5064 19 21.3877 18.4563 21.8189 17.5938L21.8908 17.4469C22.1377 16.9531 21.9377 16.3531 21.4439 16.1062C20.9502 15.8594 20.3502 16.0594 20.1033 16.5531L20.0314 16.7C19.9377 16.8844 19.7502 17 19.5439 17C19.2439 17 19.0002 16.7563 19.0002 16.4563V15.875C19.7158 15.6906 20.3564 15.3125 20.8564 14.8C21.0502 14.6031 21.047 14.2875 20.8502 14.0938C20.6533 13.9 20.3408 13.9031 20.147 14.0969C20.1064 14.1375 20.0658 14.1781 20.022 14.2188C19.9752 14.2625 19.9252 14.3031 19.8783 14.3438C19.6189 14.5531 19.322 14.7188 19.0033 14.8313C18.6908 14.9406 18.3533 15.0031 18.0033 15.0031C17.6533 15.0031 17.3158 14.9438 17.0033 14.8313C16.7689 14.75 16.547 14.6375 16.3439 14.5031C16.0595 14.3125 15.8064 14.075 15.6033 13.8031C15.4377 13.5813 15.4814 13.2687 15.7033 13.1031C15.9252 12.9375 16.2377 12.9813 16.4033 13.2031C16.7658 13.6875 17.347 14 18.0002 14C18.3658 14 18.7064 13.9031 19.0002 13.7312V10C19.0002 7.2375 16.7627 5 14.0002 5H13.9502C13.3189 4.38125 12.4533 4 11.5002 4ZM16.5002 10C16.6328 10 16.7599 10.0527 16.8537 10.1464C16.9475 10.2402 17.0002 10.3674 17.0002 10.5C17.0002 10.6326 16.9475 10.7598 16.8537 10.8536C16.7599 10.9473 16.6328 11 16.5002 11C16.3675 11 16.2404 10.9473 16.1466 10.8536C16.0528 10.7598 16.0002 10.6326 16.0002 10.5C16.0002 10.3674 16.0528 10.2402 16.1466 10.1464C16.2404 10.0527 16.3675 10 16.5002 10Z" fill="black"/>
</svg>
