<svg width="24" height="24" viewBox="0 0 24 24" fill="none" xmlns="http://www.w3.org/2000/svg">
<path d="M11.5032 8.08748L14.675 4.91248C15.8938 3.69373 17.8688 3.69373 19.0844 4.91248C20.3 6.13123 20.3032 8.10623 19.0844 9.32185L15.9125 12.4969L16.2063 12.7906C16.5969 13.1812 16.5969 13.8156 16.2063 14.2062C15.8157 14.5969 15.1813 14.5969 14.7907 14.2062L9.79066 9.20623C9.40004 8.8156 9.40004 8.18123 9.79066 7.7906C10.1813 7.39998 10.8157 7.39998 11.2063 7.7906L11.5 8.08435L11.5032 8.08748ZM9.50629 10.3312L10.9219 11.7469L8.66566 14H11.3375L12.2563 13.0812L13.6719 14.4969L9.89691 18.2687C9.42816 18.7375 8.79066 19 8.12816 19H6.80316L5.55316 19.8312C5.15629 20.0969 4.62816 20.0437 4.29066 19.7062C3.95316 19.3687 3.90004 18.8406 4.16566 18.4437L5.00004 17.1968V15.8719C5.00004 15.2093 5.26254 14.5718 5.73129 14.1031L9.50316 10.3312H9.50629Z" fill="black"/>
</svg>
