<svg width="24" height="24" viewBox="0 0 24 24" fill="none" xmlns="http://www.w3.org/2000/svg">
<path d="M12.8842 5.22892C13.8342 6.21642 15.6686 7.28829 16.9936 7.62579C17.853 7.84454 18.6436 8.35079 19.2124 9.11954C20.528 10.8945 20.1561 13.4008 18.3811 14.7164C17.8249 15.1289 17.1967 15.3758 16.5561 15.4664C15.3936 15.6289 13.9155 16.4883 13.328 17.5039C11.9467 19.8945 8.89049 20.7133 6.49674 19.3352C4.10299 17.957 3.29049 14.8914 4.66861 12.5008C5.44361 11.1602 5.87799 9.19142 6.01549 7.65079C6.09674 6.71954 6.50299 5.81329 7.22799 5.11642C8.82174 3.58517 11.353 3.63517 12.8842 5.22892ZM14.4999 11.5008C14.4999 10.5725 14.1311 9.6823 13.4747 9.02592C12.8184 8.36954 11.9281 8.00079 10.9999 8.00079C10.0716 8.00079 9.18137 8.36954 8.52499 9.02592C7.86861 9.6823 7.49986 10.5725 7.49986 11.5008C7.49986 12.429 7.86861 13.3193 8.52499 13.9757C9.18137 14.632 10.0716 15.0008 10.9999 15.0008C11.9281 15.0008 12.8184 14.632 13.4747 13.9757C14.1311 13.3193 14.4999 12.429 14.4999 11.5008ZM9.49986 11.2508C9.49986 11.5258 9.27486 11.7508 8.99986 11.7508C8.72486 11.7508 8.49986 11.5258 8.49986 11.2508C8.49986 10.007 9.50611 9.00079 10.7499 9.00079C11.0249 9.00079 11.2499 9.22579 11.2499 9.50079C11.2499 9.77579 11.0249 10.0008 10.7499 10.0008C10.0592 10.0008 9.49986 10.5602 9.49986 11.2508Z" fill="black"/>
</svg>
