<svg width="24" height="24" viewBox="0 0 24 24" fill="none" xmlns="http://www.w3.org/2000/svg">
<path d="M19.7812 4.21914C20.075 4.51289 20.075 4.98789 19.7812 5.27852L19.5 5.55977V10.0004C19.5 10.2754 19.275 10.5004 19 10.5004C18.1718 10.5004 17.5 9.82852 17.5 9.00039C17.5 8.81914 17.375 8.66602 17.2062 8.60664C16.7906 8.45664 16.4125 8.20039 16.1093 7.89414C15.8062 7.58789 15.5468 7.20977 15.3968 6.79727C15.3343 6.62852 15.1812 6.50352 15.0031 6.50352C14.175 6.50352 13.5031 5.83164 13.5031 5.00352C13.5031 4.72852 13.7281 4.50352 14.0031 4.50352H18.4406L18.7218 4.22227C19.0156 3.92852 19.4906 3.92852 19.7812 4.22227V4.21914ZM9.30934 8.35352C10.5687 7.74102 11.8406 7.12539 12.8531 6.27227C13.2218 6.89727 13.8562 7.34727 14.6 7.46914C14.8093 7.90664 15.0937 8.29102 15.4062 8.60039C15.7187 8.90977 16.1 9.19727 16.5375 9.40664C16.6937 10.3566 17.3843 11.1285 18.2937 11.4004C16.8312 15.3348 13.7218 20.0066 9.51246 20.0004C6.49684 19.9973 4.04371 17.4785 3.99996 14.5004C3.94996 10.9535 6.60621 9.66602 9.30934 8.35352Z" fill="black"/>
</svg>
