<svg width="24" height="24" viewBox="0 0 24 24" fill="none" xmlns="http://www.w3.org/2000/svg">
<path d="M3.21243 4.15943C2.88743 3.90318 2.41556 3.96255 2.15931 4.28755C1.90306 4.61255 1.96243 5.08443 2.28743 5.34068L20.7874 19.8407C21.1124 20.0969 21.5843 20.0376 21.8406 19.7126C22.0968 19.3876 22.0374 18.9157 21.7124 18.6594L18.4249 16.0844C19.6624 14.8157 20.4999 13.3938 20.9218 12.3844C21.0249 12.1376 21.0249 11.8626 20.9218 11.6157C20.4562 10.5001 19.4781 8.87505 18.0156 7.5188C16.5468 6.15005 14.5249 5.00005 11.9999 5.00005C9.86868 5.00005 8.09368 5.82193 6.70931 6.90005L3.21243 4.15943ZM8.96868 8.67193C10.4874 7.28755 12.8124 7.08443 14.5718 8.3063C16.4718 9.6313 17.0374 12.1563 15.9531 14.1469L14.7499 13.2032C15.0124 12.6001 15.0812 11.9094 14.8999 11.2251C14.5531 9.92818 13.4062 9.0563 12.1312 9.00318C11.9499 8.99693 11.8437 9.1938 11.8999 9.3688C11.9656 9.5688 12.0031 9.7813 12.0031 10.0032C12.0031 10.3219 11.9281 10.6219 11.7968 10.8876L8.96868 8.67193ZM4.59681 9.04693C4.25306 9.49693 3.95618 9.9438 3.70931 10.3657L14.3031 18.6688C14.8874 18.4969 15.4343 18.2626 15.9468 17.9876L4.59681 9.04693ZM3.03431 11.7438C2.97806 11.9563 2.99368 12.1813 3.07806 12.3844C3.54368 13.5001 4.52181 15.1251 5.98431 16.4813C7.45306 17.8501 9.47493 19.0001 11.9999 19.0001C12.0968 19.0001 12.1906 18.9969 12.2874 18.9938L3.03431 11.7438Z" fill="black"/>
</svg>
