<svg width="24" height="24" viewBox="0 0 24 24" fill="none" xmlns="http://www.w3.org/2000/svg">
<path d="M19.7812 4.21877C20.075 4.51252 20.075 4.98752 19.7812 5.27815L19.5 5.5594V10C19.5 10.275 19.275 10.5 19 10.5C18.1719 10.5 17.5 9.82815 17.5 9.00002C17.5 8.81877 17.375 8.66565 17.2062 8.60627C16.7906 8.45627 16.4125 8.20002 16.1094 7.89377C15.8062 7.58752 15.5469 7.2094 15.3969 6.7969C15.3344 6.62815 15.1812 6.50315 15.0031 6.50315C14.175 6.50315 13.5031 5.83127 13.5031 5.00315C13.5031 4.72815 13.7281 4.50315 14.0031 4.50315H18.4406L18.7219 4.2219C19.0156 3.92815 19.4906 3.92815 19.7812 4.2219V4.21877ZM9.30937 8.35315C10.5687 7.74065 11.8406 7.12502 12.8531 6.2719C13.2219 6.8969 13.8562 7.3469 14.6 7.46877C14.8094 7.90627 15.0937 8.29065 15.4062 8.60002C15.7187 8.9094 16.1 9.1969 16.5375 9.40627C16.6937 10.3563 17.3844 11.1281 18.2937 11.4C16.8312 15.3344 13.7219 20.0063 9.51249 20C6.49687 19.9969 4.04374 17.4781 3.99999 14.5C3.94999 10.9531 6.60624 9.66565 9.30937 8.35315Z" fill="black"/>
</svg>
