<svg width="24" height="24" viewBox="0 0 24 24" fill="none" xmlns="http://www.w3.org/2000/svg">
<path d="M14.5 7.5C14.9156 7.5 15.25 7.16563 15.25 6.75C15.25 6.33437 14.9156 6 14.5 6H8.5C8.08437 6 7.75 6.33437 7.75 6.75C7.75 7.16563 8.08437 7.5 8.5 7.5H10.75V8.5H8.5H7H6C5.44687 8.5 5 8.94687 5 9.5V11.25H3.5V9C3.5 8.58437 3.16563 8.25 2.75 8.25C2.33437 8.25 2 8.58437 2 9V15C2 15.4156 2.33437 15.75 2.75 15.75C3.16563 15.75 3.5 15.4156 3.5 15V12.75H5V15C5 15.5531 5.44687 16 6 16H7.4L8.4 17.25C8.77813 17.725 9.35313 18 9.9625 18H16C17.1031 18 18 17.1031 18 16V11.4625C18 10.8563 17.725 10.2813 17.25 9.9L16.0469 8.9375C15.6937 8.65312 15.2531 8.5 14.7969 8.5H12.25V7.5H14.5ZM19 11V17C19 17.5531 19.4469 18 20 18H21C21.5531 18 22 17.5531 22 17V11C22 10.4469 21.5531 10 21 10H20C19.4469 10 19 10.4469 19 11ZM11.5 9.875C11.8438 9.875 12.125 10.1562 12.125 10.5V13.25C12.125 13.5938 11.8438 13.875 11.5 13.875C11.1562 13.875 10.875 13.5938 10.875 13.25V10.5C10.875 10.1562 11.1562 9.875 11.5 9.875ZM10.75 15.5C10.75 15.3011 10.829 15.1103 10.9697 14.9697C11.1103 14.829 11.3011 14.75 11.5 14.75C11.6989 14.75 11.8897 14.829 12.0303 14.9697C12.171 15.1103 12.25 15.3011 12.25 15.5C12.25 15.6989 12.171 15.8897 12.0303 16.0303C11.8897 16.171 11.6989 16.25 11.5 16.25C11.3011 16.25 11.1103 16.171 10.9697 16.0303C10.829 15.8897 10.75 15.6989 10.75 15.5Z" fill="black"/>
</svg>
