<svg width="24" height="24" viewBox="0 0 24 24" fill="none" xmlns="http://www.w3.org/2000/svg">
<path d="M13 6C13 5.44687 12.5531 5 12 5C11.4469 5 11 5.44687 11 6V14C11 14.5531 11.4469 15 12 15C12.5531 15 13 14.5531 13 14V6ZM12 19C12.3315 19 12.6495 18.8683 12.8839 18.6339C13.1183 18.3995 13.25 18.0815 13.25 17.75C13.25 17.4185 13.1183 17.1005 12.8839 16.8661C12.6495 16.6317 12.3315 16.5 12 16.5C11.6685 16.5 11.3505 16.6317 11.1161 16.8661C10.8817 17.1005 10.75 17.4185 10.75 17.75C10.75 18.0815 10.8817 18.3995 11.1161 18.6339C11.3505 18.8683 11.6685 19 12 19Z" fill="black"/>
</svg>
