<svg width="24" height="24" viewBox="0 0 24 24" fill="none" xmlns="http://www.w3.org/2000/svg">
<path d="M3.21268 4.15937C2.88768 3.90312 2.4158 3.96249 2.15955 4.28749C1.9033 4.61249 1.96268 5.08437 2.28768 5.34062L20.7877 19.8406C21.1127 20.0969 21.5846 20.0375 21.8408 19.7125C22.0971 19.3875 22.0377 18.9156 21.7127 18.6594L18.4252 16.0844C19.6627 14.8156 20.5002 13.3937 20.9221 12.3844C21.0252 12.1375 21.0252 11.8625 20.9221 11.6156C20.4564 10.5 19.4783 8.87499 18.0158 7.51874C16.5471 6.14999 14.5252 4.99999 12.0002 4.99999C9.86893 4.99999 8.09393 5.82187 6.70955 6.89999L3.21268 4.15937ZM8.97205 8.67187C9.76893 7.94374 10.8346 7.49999 12.0002 7.49999C14.4846 7.49999 16.5002 9.51562 16.5002 12C16.5002 12.7781 16.3033 13.5094 15.9564 14.1469L14.7502 13.2031C15.0127 12.6 15.0814 11.9094 14.9002 11.225C14.5533 9.92812 13.4064 9.05624 12.1314 9.00312C11.9502 8.99687 11.8439 9.19374 11.9002 9.36874C11.9658 9.56874 12.0033 9.78124 12.0033 10.0031C12.0033 10.3219 11.9283 10.6219 11.7971 10.8875L8.97518 8.67499L8.97205 8.67187ZM13.6564 16.1844C13.1439 16.3875 12.5846 16.5 12.0002 16.5C9.5158 16.5 7.50018 14.4844 7.50018 12C7.50018 11.7844 7.5158 11.575 7.54393 11.3687L4.59705 9.04687C3.88455 9.97499 3.37518 10.9 3.0783 11.6156C2.97518 11.8625 2.97518 12.1375 3.0783 12.3844C3.54393 13.5 4.52205 15.125 5.98455 16.4812C7.4533 17.85 9.47518 19 12.0002 19C13.4939 19 14.8096 18.5969 15.9439 17.9844L13.6564 16.1844Z" fill="black"/>
</svg>
