<svg width="24" height="24" viewBox="0 0 24 24" fill="none" xmlns="http://www.w3.org/2000/svg">
<path d="M13.2969 4.0367C13.4532 4.10233 13.5657 4.24295 13.5969 4.40858L13.8969 6.03983C12.8282 6.50858 11.9063 7.25545 11.2282 8.18983C10.8407 8.06483 10.4282 7.99608 9.99693 7.99608C7.78756 7.99608 5.99693 9.7867 5.99693 11.9961C5.99693 14.2055 7.78756 15.9961 9.99693 15.9961C10.4251 15.9961 10.8407 15.9273 11.2282 15.8023C11.9063 16.7367 12.8251 17.4867 13.8969 17.9523L13.5969 19.5836C13.5657 19.7492 13.4532 19.8898 13.2969 19.9555C13.1407 20.0211 12.9626 20.0023 12.8219 19.9055L10.0001 17.9648L7.17818 19.9117C7.03756 20.0086 6.85943 20.0273 6.70318 19.9617C6.54693 19.8961 6.43443 19.7555 6.40318 19.5898L5.78131 16.218L2.40943 15.5961C2.24381 15.5648 2.10318 15.4523 2.03756 15.2961C1.97193 15.1398 1.99068 14.9617 2.08756 14.8211L4.03443 11.9992L2.08756 9.17733C1.99068 9.0367 1.97193 8.85858 2.03756 8.70233C2.10318 8.54608 2.24381 8.43358 2.40943 8.40233L5.78131 7.78045L6.40318 4.40858C6.43443 4.24295 6.54693 4.10233 6.70318 4.0367C6.85943 3.97108 7.03756 3.98983 7.17818 4.0867L10.0001 6.03358L12.8219 4.0867C12.9626 3.98983 13.1407 3.97108 13.2969 4.0367ZM10.0001 8.9992C10.2376 8.9992 10.4688 9.02733 10.6907 9.08045C10.2501 9.95858 10.0001 10.9492 10.0001 11.9992C10.0001 13.0492 10.2501 14.0398 10.6907 14.918C10.4688 14.9711 10.2376 14.9992 10.0001 14.9992C8.34381 14.9992 7.00006 13.6555 7.00006 11.9992C7.00006 10.343 8.34381 8.9992 10.0001 8.9992ZM16.5001 6.4992C17.9587 6.4992 19.3577 7.07867 20.3891 8.11012C21.4206 9.14157 22.0001 10.5405 22.0001 11.9992C22.0001 13.4579 21.4206 14.8568 20.3891 15.8883C19.3577 16.9197 17.9587 17.4992 16.5001 17.4992C15.0414 17.4992 13.6424 16.9197 12.611 15.8883C11.5795 14.8568 11.0001 13.4579 11.0001 11.9992C11.0001 10.5405 11.5795 9.14157 12.611 8.11012C13.6424 7.07867 15.0414 6.4992 16.5001 6.4992Z" fill="black"/>
</svg>
