<svg width="24" height="24" viewBox="0 0 24 24" fill="none" xmlns="http://www.w3.org/2000/svg">
<path d="M8.5 5.5C8.5 5.10218 8.65804 4.72064 8.93934 4.43934C9.22064 4.15804 9.60218 4 10 4C10.3978 4 10.7794 4.15804 11.0607 4.43934C11.342 4.72064 11.5 5.10218 11.5 5.5C11.5 5.89782 11.342 6.27936 11.0607 6.56066C10.7794 6.84196 10.3978 7 10 7C9.60218 7 9.22064 6.84196 8.93934 6.56066C8.65804 6.27936 8.5 5.89782 8.5 5.5ZM14.6844 9.49375C15.0469 9.175 15.5156 9 16 9H19C20.1031 9 21 9.89687 21 11C21 12.1031 20.1031 13 19 13H16.75L9.31563 19.5063C8.95312 19.825 8.48438 20 8 20H5C3.89688 20 3 19.1031 3 18C3 16.8969 3.89688 16 5 16H7.25L14.6844 9.49375ZM12 10V10.5125L8 14.0125V10C8 8.89687 8.89687 8 10 8C11.1031 8 12 8.89687 12 10Z" fill="black"/>
</svg>
