<svg width="24" height="24" viewBox="0 0 24 24" fill="none" xmlns="http://www.w3.org/2000/svg">
<path d="M12 6.25C11.8011 6.25 11.6103 6.32902 11.4697 6.46967C11.329 6.61032 11.25 6.80109 11.25 7C11.25 7.19891 11.329 7.38968 11.4697 7.53033C11.6103 7.67098 11.8011 7.75 12 7.75C12.1989 7.75 12.3897 7.67098 12.5303 7.53033C12.671 7.38968 12.75 7.19891 12.75 7C12.75 6.80109 12.671 6.61032 12.5303 6.46967C12.3897 6.32902 12.1989 6.25 12 6.25ZM12 9.25C11.7045 9.25 11.4119 9.1918 11.139 9.07873C10.866 8.96566 10.6179 8.79992 10.409 8.59099C10.2001 8.38206 10.0343 8.13402 9.92127 7.86104C9.8082 7.58806 9.75 7.29547 9.75 7C9.75 6.70453 9.8082 6.41194 9.92127 6.13896C10.0343 5.86598 10.2001 5.61794 10.409 5.40901C10.6179 5.20008 10.866 5.03434 11.139 4.92127C11.4119 4.8082 11.7045 4.75 12 4.75C12.2955 4.75 12.5881 4.8082 12.861 4.92127C13.134 5.03434 13.3821 5.20008 13.591 5.40901C13.7999 5.61794 13.9657 5.86598 14.0787 6.13896C14.1918 6.41194 14.25 6.70453 14.25 7C14.25 7.29547 14.1918 7.58806 14.0787 7.86104C13.9657 8.13402 13.7999 8.38206 13.591 8.59099C13.3821 8.79992 13.134 8.96566 12.861 9.07873C12.5881 9.1918 12.2955 9.25 12 9.25ZM12.75 12C12.75 11.8011 12.671 11.6103 12.5303 11.4697C12.3897 11.329 12.1989 11.25 12 11.25C11.8011 11.25 11.6103 11.329 11.4697 11.4697C11.329 11.6103 11.25 11.8011 11.25 12C11.25 12.1989 11.329 12.3897 11.4697 12.5303C11.6103 12.671 11.8011 12.75 12 12.75C12.1989 12.75 12.3897 12.671 12.5303 12.5303C12.671 12.3897 12.75 12.1989 12.75 12ZM9.75 12C9.75 11.7045 9.8082 11.4119 9.92127 11.139C10.0343 10.866 10.2001 10.6179 10.409 10.409C10.6179 10.2001 10.866 10.0343 11.139 9.92127C11.4119 9.8082 11.7045 9.75 12 9.75C12.2955 9.75 12.5881 9.8082 12.861 9.92127C13.134 10.0343 13.3821 10.2001 13.591 10.409C13.7999 10.6179 13.9657 10.866 14.0787 11.139C14.1918 11.4119 14.25 11.7045 14.25 12C14.25 12.2955 14.1918 12.5881 14.0787 12.861C13.9657 13.134 13.7999 13.3821 13.591 13.591C13.3821 13.7999 13.134 13.9657 12.861 14.0787C12.5881 14.1918 12.2955 14.25 12 14.25C11.7045 14.25 11.4119 14.1918 11.139 14.0787C10.866 13.9657 10.6179 13.7999 10.409 13.591C10.2001 13.3821 10.0343 13.134 9.92127 12.861C9.8082 12.5881 9.75 12.2955 9.75 12ZM12.75 17C12.75 16.8011 12.671 16.6103 12.5303 16.4697C12.3897 16.329 12.1989 16.25 12 16.25C11.8011 16.25 11.6103 16.329 11.4697 16.4697C11.329 16.6103 11.25 16.8011 11.25 17C11.25 17.1989 11.329 17.3897 11.4697 17.5303C11.6103 17.671 11.8011 17.75 12 17.75C12.1989 17.75 12.3897 17.671 12.5303 17.5303C12.671 17.3897 12.75 17.1989 12.75 17ZM9.75 17C9.75 16.7045 9.8082 16.4119 9.92127 16.139C10.0343 15.866 10.2001 15.6179 10.409 15.409C10.6179 15.2001 10.866 15.0343 11.139 14.9213C11.4119 14.8082 11.7045 14.75 12 14.75C12.2955 14.75 12.5881 14.8082 12.861 14.9213C13.134 15.0343 13.3821 15.2001 13.591 15.409C13.7999 15.6179 13.9657 15.866 14.0787 16.139C14.1918 16.4119 14.25 16.7045 14.25 17C14.25 17.2955 14.1918 17.5881 14.0787 17.861C13.9657 18.134 13.7999 18.3821 13.591 18.591C13.3821 18.7999 13.134 18.9657 12.861 19.0787C12.5881 19.1918 12.2955 19.25 12 19.25C11.7045 19.25 11.4119 19.1918 11.139 19.0787C10.866 18.9657 10.6179 18.7999 10.409 18.591C10.2001 18.3821 10.0343 18.134 9.92127 17.861C9.8082 17.5881 9.75 17.2955 9.75 17Z" fill="black"/>
</svg>
