<svg width="24" height="24" viewBox="0 0 24 24" fill="none" xmlns="http://www.w3.org/2000/svg">
<path d="M18.6125 4.35256C18.8219 4.01819 19.2531 3.89944 19.6031 4.08694C19.9531 4.27444 20.0969 4.69631 19.9344 5.05569L15.65 14.5807C15.7188 14.6526 15.7844 14.7276 15.8469 14.8026L18.8844 13.0932C19.2125 12.9088 19.6219 12.9963 19.85 13.2932C20.0781 13.5901 20.0469 14.0119 19.7812 14.2776L17.0625 16.9963H14.8281C14.4156 15.8307 13.3062 14.9963 12 14.9963C10.6937 14.9963 9.58125 15.8307 9.17188 16.9963H6.68125L4.32187 15.3651C4.01875 15.1557 3.9125 14.7526 4.075 14.4182C4.2375 14.0838 4.61875 13.9213 4.97187 14.0307L8.00938 14.9807C8.10313 14.8588 8.2 14.7401 8.30312 14.6276L6.35625 11.3838C6.16563 11.0682 6.23438 10.6619 6.51562 10.4244C6.79688 10.1869 7.20938 10.1901 7.4875 10.4276L10.6875 13.1744C10.7344 13.1619 10.7812 13.1494 10.8281 13.1401L11.2531 8.68069C11.2906 8.29631 11.6125 8.00256 12 8.00256C12.3875 8.00256 12.7094 8.29631 12.7469 8.68069L13.1687 13.1151L18.6125 4.35256ZM5 17.9994H19H20C20.5531 17.9994 21 18.4463 21 18.9994C21 19.5526 20.5531 19.9994 20 19.9994H4C3.44687 19.9994 3 19.5526 3 18.9994C3 18.4463 3.44687 17.9994 4 17.9994H5ZM12 3.99944C12.4156 3.99944 12.75 4.33381 12.75 4.74944V6.24944C12.75 6.66506 12.4156 6.99944 12 6.99944C11.5844 6.99944 11.25 6.66506 11.25 6.24944V4.74944C11.25 4.33381 11.5844 3.99944 12 3.99944Z" fill="black"/>
</svg>
