<svg width="24" height="24" viewBox="0 0 24 24" fill="none" xmlns="http://www.w3.org/2000/svg">
<path d="M11.5 4C9.56562 4 8 5.56562 8 7.5C8 9.43438 9.56562 11 11.5 11C11.775 11 12 11.225 12 11.5C12 11.775 11.775 12 11.5 12C9.01562 12 7 9.98438 7 7.5C7 6.70938 7.20312 5.96563 7.5625 5.31875C6.92187 5.5375 6.33125 5.85937 5.80937 6.26875C4.10625 7.49687 3 9.49375 3 11.75V12.3438C3 12.7312 2.9625 13.1156 2.88437 13.4969C2.825 13.7875 2.70312 14.0594 2.52812 14.2969L2.15 14.8C1.9 15.1313 1.96875 15.6 2.3 15.85C2.63125 16.1 3.1 16.0312 3.35 15.7L3.72812 15.1938C3.82812 15.0594 3.91875 14.9188 4 14.7719V19C4 19.5531 4.44687 20 5 20H7C7.55312 20 8 19.5531 8 19V16.8125C8.47812 16.9344 8.98125 17 9.5 17C10.0187 17 10.5219 16.9344 11 16.8125V19C11 19.5531 11.4469 20 12 20H14C14.5531 20 15 19.5531 15 19V14.6469C15.5219 15.2375 16.2125 15.6719 17 15.875V16.4563C17 17.8625 18.1406 19 19.5438 19C20.5063 19 21.3875 18.4563 21.8188 17.5938L21.8906 17.4469C22.1375 16.9531 21.9375 16.3531 21.4438 16.1062C20.95 15.8594 20.35 16.0594 20.1031 16.5531L20.0312 16.7C19.9375 16.8844 19.75 17 19.5438 17C19.2438 17 19 16.7563 19 16.4563V15.875C19.7156 15.6906 20.3563 15.3125 20.8563 14.8C21.05 14.6031 21.0469 14.2875 20.85 14.0938C20.6531 13.9 20.3406 13.9031 20.1469 14.0969C20.1063 14.1375 20.0656 14.1781 20.0219 14.2188C19.975 14.2625 19.925 14.3031 19.8781 14.3438C19.6187 14.5531 19.3219 14.7188 19.0031 14.8313C18.6906 14.9406 18.3531 15.0031 18.0031 15.0031C17.6531 15.0031 17.3156 14.9438 17.0031 14.8313C16.7688 14.75 16.5469 14.6375 16.3438 14.5031C16.0594 14.3125 15.8062 14.075 15.6031 13.8031C15.4375 13.5813 15.4813 13.2687 15.7031 13.1031C15.925 12.9375 16.2375 12.9813 16.4031 13.2031C16.7656 13.6875 17.3469 14 18 14C18.3656 14 18.7063 13.9031 19 13.7312V10C19 7.2375 16.7625 5 14 5H13.95C13.3187 4.38125 12.4531 4 11.5 4ZM16.5 10C16.6326 10 16.7598 10.0527 16.8536 10.1464C16.9473 10.2402 17 10.3674 17 10.5C17 10.6326 16.9473 10.7598 16.8536 10.8536C16.7598 10.9473 16.6326 11 16.5 11C16.3674 11 16.2402 10.9473 16.1464 10.8536C16.0527 10.7598 16 10.6326 16 10.5C16 10.3674 16.0527 10.2402 16.1464 10.1464C16.2402 10.0527 16.3674 10 16.5 10Z" fill="black"/>
</svg>
