<svg width="24" height="24" viewBox="0 0 24 24" fill="none" xmlns="http://www.w3.org/2000/svg">
<path d="M11.4999 4C9.56553 4 7.99991 5.56562 7.99991 7.5C7.99991 9.43437 9.56553 11 11.4999 11C11.7749 11 11.9999 11.225 11.9999 11.5C11.9999 11.775 11.7749 12 11.4999 12C9.01553 12 6.99991 9.98438 6.99991 7.5C6.99991 6.70937 7.20303 5.96563 7.56241 5.31875C6.92178 5.5375 6.33116 5.85938 5.80928 6.26875C4.10616 7.49687 2.99991 9.49375 2.99991 11.75V12.3438C2.99991 12.7312 2.96241 13.1156 2.88428 13.4969C2.82491 13.7875 2.70303 14.0594 2.52803 14.2969L2.14991 14.8C1.89991 15.1313 1.96866 15.6 2.29991 15.85C2.63116 16.1 3.09991 16.0312 3.34991 15.7L3.72803 15.1938C3.82803 15.0594 3.91866 14.9188 3.99991 14.7719V19C3.99991 19.5531 4.44678 20 4.99991 20H6.99991C7.55303 20 7.99991 19.5531 7.99991 19V16.8125C8.47803 16.9344 8.98116 17 9.49991 17C10.0187 17 10.5218 16.9344 10.9999 16.8125V19C10.9999 19.5531 11.4468 20 11.9999 20H13.9999C14.553 20 14.9999 19.5531 14.9999 19V14.6469C15.5218 15.2375 16.2124 15.6719 16.9999 15.875V16.4563C16.9999 17.8625 18.1405 19 19.5437 19C20.5062 19 21.3874 18.4563 21.8187 17.5938L21.8905 17.4469C22.1374 16.9531 21.9374 16.3531 21.4437 16.1062C20.9499 15.8594 20.3499 16.0594 20.103 16.5531L20.0312 16.7C19.9374 16.8844 19.7499 17 19.5437 17C19.2437 17 18.9999 16.7563 18.9999 16.4563V15.875C19.7155 15.6906 20.3562 15.3125 20.8562 14.8C21.0499 14.6031 21.0468 14.2875 20.8499 14.0938C20.653 13.9 20.3405 13.9031 20.1468 14.0969C20.1062 14.1375 20.0655 14.1781 20.0218 14.2188C19.9749 14.2625 19.9249 14.3031 19.878 14.3438C19.6187 14.5531 19.3218 14.7188 19.003 14.8313C18.6905 14.9406 18.353 15.0031 18.003 15.0031C17.653 15.0031 17.3155 14.9438 17.003 14.8313C16.7687 14.75 16.5468 14.6375 16.3437 14.5031C16.0593 14.3125 15.8062 14.075 15.603 13.8031C15.4374 13.5813 15.4812 13.2687 15.703 13.1031C15.9249 12.9375 16.2374 12.9812 16.403 13.2031C16.7655 13.6875 17.3468 14 17.9999 14C18.3655 14 18.7062 13.9031 18.9999 13.7312V10C18.9999 7.2375 16.7624 5 13.9999 5H13.9499C13.3187 4.38125 12.453 4 11.4999 4ZM16.4999 10C16.6325 10 16.7597 10.0527 16.8535 10.1464C16.9472 10.2402 16.9999 10.3674 16.9999 10.5C16.9999 10.6326 16.9472 10.7598 16.8535 10.8536C16.7597 10.9473 16.6325 11 16.4999 11C16.3673 11 16.2401 10.9473 16.1464 10.8536C16.0526 10.7598 15.9999 10.6326 15.9999 10.5C15.9999 10.3674 16.0526 10.2402 16.1464 10.1464C16.2401 10.0527 16.3673 10 16.4999 10Z" fill="black"/>
</svg>
