<svg width="24" height="24" viewBox="0 0 24 24" fill="none" xmlns="http://www.w3.org/2000/svg">
<path d="M9.55625 5.975L9.86875 6.51875C9.95625 6.66875 10 6.84063 10 7.01562V8.30937C10 8.43125 10.05 8.55 10.1344 8.63438C10.3281 8.82812 10.65 8.8125 10.8219 8.59688L11.2469 8.06563C11.3937 7.88125 11.65 7.825 11.8594 7.93125L12.3344 8.16875C12.4406 8.22187 12.5594 8.25 12.6781 8.25C12.8813 8.25 13.0781 8.16875 13.2219 8.025L13.3438 7.90313C13.4344 7.8125 13.5719 7.79062 13.6875 7.84687L14.6 8.30312C14.8438 8.425 14.9937 8.67188 14.9937 8.94375C14.9937 9.27187 14.7719 9.55625 14.4531 9.6375L13.3469 9.9125C13.1156 9.96875 12.875 9.95937 12.6469 9.88438L11.6469 9.55C11.5437 9.51562 11.4375 9.49687 11.3281 9.49687C11.1094 9.49687 10.8969 9.56875 10.7219 9.7L9.5 10.625C9.18437 10.8625 9 11.2312 9 11.625V12.5C9 13.3281 9.67188 14 10.5 14H11.5C11.775 14 12 14.225 12 14.5V16C12 16.5531 12.4469 17 13 17C13.3156 17 13.6125 16.8531 13.8 16.6L14.6 15.5344C14.8594 15.1875 15 14.7656 15 14.3344V13.9563C15 13.8344 15.0813 13.7281 15.2 13.7L15.3656 13.6594C15.7375 13.5656 16 13.2312 16 12.8469C16 12.625 15.9125 12.4125 15.7563 12.2563L14.7094 11.2094C14.5938 11.0938 14.5938 10.9062 14.7094 10.7906C14.8875 10.6125 15.15 10.55 15.3906 10.6312L15.8313 10.7781C16.2156 10.9062 16.6344 10.7312 16.8156 10.3719C16.925 10.1531 17.1656 10.0344 17.4062 10.0844L18.2625 10.2562C17.5 7.5125 14.9844 5.5 12 5.5C11.1344 5.5 10.3125 5.66875 9.55625 5.975ZM4 12C4 9.87827 4.84285 7.84344 6.34315 6.34315C7.84344 4.84285 9.87827 4 12 4C14.1217 4 16.1566 4.84285 17.6569 6.34315C19.1571 7.84344 20 9.87827 20 12C20 14.1217 19.1571 16.1566 17.6569 17.6569C16.1566 19.1571 14.1217 20 12 20C9.87827 20 7.84344 19.1571 6.34315 17.6569C4.84285 16.1566 4 14.1217 4 12Z" fill="black"/>
</svg>
