<svg width="24" height="24" viewBox="0 0 24 24" fill="none" xmlns="http://www.w3.org/2000/svg">
<path d="M6 5C5.44687 5 5 5.44687 5 6V9C5 9.55312 5.44687 10 6 10C6.55313 10 7 9.55312 7 9V7H9C9.55312 7 10 6.55313 10 6C10 5.44687 9.55312 5 9 5H6ZM7 15C7 14.4469 6.55313 14 6 14C5.44687 14 5 14.4469 5 15V18C5 18.5531 5.44687 19 6 19H9C9.55312 19 10 18.5531 10 18C10 17.4469 9.55312 17 9 17H7V15ZM15 5C14.4469 5 14 5.44687 14 6C14 6.55313 14.4469 7 15 7H17V9C17 9.55312 17.4469 10 18 10C18.5531 10 19 9.55312 19 9V6C19 5.44687 18.5531 5 18 5H15ZM19 15C19 14.4469 18.5531 14 18 14C17.4469 14 17 14.4469 17 15V17H15C14.4469 17 14 17.4469 14 18C14 18.5531 14.4469 19 15 19H18C18.5531 19 19 18.5531 19 18V15Z" fill="black"/>
</svg>
