<svg width="24" height="24" viewBox="0 0 24 24" fill="none" xmlns="http://www.w3.org/2000/svg">
<path d="M6 4C5.44687 4 5 4.44687 5 5V11H8V10C8 8.89688 8.89688 8 10 8H17V5C17 4.44687 16.5531 4 16 4H6ZM10 9C9.44687 9 9 9.44687 9 10V11H12C13.1031 11 14 11.8969 14 13V17H20C20.5531 17 21 16.5531 21 16V10C21 9.44687 20.5531 9 20 9H10ZM17.5 11H18.5C18.775 11 19 11.225 19 11.5V12.5C19 12.775 18.775 13 18.5 13H17.5C17.225 13 17 12.775 17 12.5V11.5C17 11.225 17.225 11 17.5 11ZM4 12C3.44687 12 3 12.4469 3 13V13.4062L7.84688 16.9969C7.89063 17.0281 7.94375 17.0469 8 17.0469C8.05625 17.0469 8.10937 17.0281 8.15312 16.9969L13 13.4062V13C13 12.4469 12.5531 12 12 12H4ZM13 14.65L8.75 17.8C8.53437 17.9594 8.27187 18.0469 8 18.0469C7.72813 18.0469 7.46875 17.9594 7.25 17.8L3 14.65V19C3 19.5531 3.44687 20 4 20H12C12.5531 20 13 19.5531 13 19V14.65Z" fill="black"/>
</svg>
