<svg width="24" height="24" viewBox="0 0 24 24" fill="none" xmlns="http://www.w3.org/2000/svg">
<path d="M10.7312 7H8.5H7.36875H7V7.275V8.5V9.7625V12.5437L4.00625 10.3281C4.05625 9.7625 4.34687 9.2375 4.80937 8.89687L5.5 8.38438V7C5.5 6.17188 6.17188 5.5 7 5.5H9.39375L10.9531 4.34688C11.2562 4.12188 11.6219 4 12 4C12.3781 4 12.7437 4.12188 13.0469 4.34375L14.6062 5.5H17C17.8281 5.5 18.5 6.17188 18.5 7V8.38438L19.1906 8.89687C19.6531 9.2375 19.9437 9.7625 19.9937 10.3281L17 12.5437V9.7625V8.5V7.275V7H16.6313H15.5H13.2688H10.7312ZM4 18V11.5656L10.8 16.6031C11.1469 16.8594 11.5687 17 12 17C12.4312 17 12.8531 16.8625 13.2 16.6031L20 11.5656V18C20 19.1031 19.1031 20 18 20H6C4.89688 20 4 19.1031 4 18ZM12.625 8.25V8.68437C12.8594 8.72187 13.0813 8.775 13.2844 8.83125C13.6188 8.91875 13.8156 9.2625 13.7281 9.59688C13.6406 9.93125 13.2969 10.1281 12.9625 10.0406C12.6187 9.95 12.2875 9.88438 11.9875 9.87813C11.7406 9.875 11.4875 9.93438 11.3156 10.0344C11.1656 10.1219 11.1219 10.2094 11.1219 10.325C11.1219 10.3812 11.125 10.4344 11.2875 10.5344C11.4844 10.6531 11.7719 10.7438 12.1719 10.8625L12.1938 10.8688C12.5438 10.975 12.9937 11.1094 13.3531 11.3375C13.7562 11.5906 14.1125 12.0031 14.1219 12.6375C14.1312 13.2906 13.7937 13.7656 13.3469 14.0437C13.1219 14.1844 12.8719 14.2719 12.6219 14.325V14.75C12.6219 15.0938 12.3406 15.375 11.9969 15.375C11.6531 15.375 11.3719 15.0938 11.3719 14.75V14.2937C11.05 14.225 10.7469 14.1219 10.4906 14.0312C10.425 14.0094 10.3625 13.9875 10.3 13.9656C9.97188 13.8562 9.79688 13.5031 9.90625 13.175C10.0156 12.8469 10.3688 12.6719 10.6969 12.7812C10.775 12.8062 10.85 12.8344 10.9219 12.8562C11.3469 13 11.6719 13.1094 12.0188 13.1219C12.2875 13.1312 12.5344 13.0719 12.6875 12.975C12.8156 12.8969 12.875 12.8031 12.8719 12.6469C12.8719 12.5563 12.8469 12.4906 12.6875 12.3906C12.4906 12.2656 12.2063 12.175 11.8125 12.0562L11.7594 12.0406C11.4188 11.9375 10.9906 11.8094 10.6469 11.6031C10.25 11.3625 9.87813 10.9625 9.875 10.3313C9.87187 9.67188 10.2438 9.21562 10.6813 8.95937C10.8969 8.83125 11.1344 8.74687 11.375 8.69375V8.25C11.375 7.90625 11.6562 7.625 12 7.625C12.3438 7.625 12.625 7.90625 12.625 8.25Z" fill="black"/>
</svg>
