<svg width="24" height="24" viewBox="0 0 24 24" fill="none" xmlns="http://www.w3.org/2000/svg">
<path d="M3.21268 4.15943C2.88768 3.90318 2.4158 3.96255 2.15955 4.28755C1.9033 4.61255 1.96268 5.08443 2.28768 5.34068L20.7877 19.8407C21.1127 20.0969 21.5846 20.0376 21.8408 19.7126C22.0971 19.3876 22.0377 18.9157 21.7127 18.6594L18.4252 16.0844C19.6627 14.8157 20.5002 13.3938 20.9221 12.3844C21.0252 12.1376 21.0252 11.8626 20.9221 11.6157C20.4564 10.5001 19.4783 8.87505 18.0158 7.5188C16.5471 6.15005 14.5252 5.00005 12.0002 5.00005C9.86893 5.00005 8.09393 5.82193 6.70955 6.90005L3.21268 4.15943ZM8.96893 8.67193C10.4877 7.28755 12.8127 7.08443 14.5721 8.3063C16.472 9.6313 17.0377 12.1563 15.9533 14.1469L14.7502 13.2032C15.0127 12.6001 15.0814 11.9094 14.9002 11.2251C14.5533 9.92818 13.4064 9.0563 12.1314 9.00318C11.9502 8.99693 11.8439 9.1938 11.9002 9.3688C11.9658 9.5688 12.0033 9.7813 12.0033 10.0032C12.0033 10.3219 11.9283 10.6219 11.7971 10.8876L8.96893 8.67193ZM4.59705 9.04693C4.2533 9.49693 3.95643 9.9438 3.70955 10.3657L14.3033 18.6688C14.8877 18.4969 15.4346 18.2626 15.9471 17.9876L4.59705 9.04693ZM3.03455 11.7438C2.9783 11.9563 2.99393 12.1813 3.0783 12.3844C3.54393 13.5001 4.52205 15.1251 5.98455 16.4813C7.4533 17.8501 9.47518 19.0001 12.0002 19.0001C12.0971 19.0001 12.1908 18.9969 12.2877 18.9938L3.03455 11.7438Z" fill="black"/>
</svg>
