<svg width="24" height="24" viewBox="0 0 24 24" fill="none" xmlns="http://www.w3.org/2000/svg">
<path d="M12.0846 5.79376L4.79395 13.0844C4.0127 13.8656 4.0127 15.1313 4.79395 15.9125L7.29395 18.4125C7.66895 18.7875 8.17832 18.9969 8.70957 18.9969H12.0002H12.2939H19.0002C19.5533 18.9969 20.0002 18.55 20.0002 17.9969C20.0002 17.4438 19.5533 16.9969 19.0002 16.9969H15.1221L19.2064 12.9156C19.9877 12.1344 19.9877 10.8688 19.2064 10.0875L14.9158 5.79376C14.1346 5.01251 12.8689 5.01251 12.0877 5.79376H12.0846ZM12.2939 17H12.0002H8.70645L6.20645 14.5L10.1033 10.6031L14.3971 14.8969L12.2939 17Z" fill="black"/>
</svg>
