<svg width="24" height="24" viewBox="0 0 24 24" fill="none" xmlns="http://www.w3.org/2000/svg">
<path d="M17.6062 7.80859L19.7062 5.70859C20.0968 5.31797 20.0968 4.68359 19.7062 4.29297C19.3156 3.90234 18.6812 3.90234 18.2906 4.29297L16.1937 6.39297C15.025 5.51797 13.5718 4.99922 12 4.99922C8.13433 4.99922 4.99995 8.13359 4.99995 11.9992C4.99995 13.5711 5.5187 15.0242 6.3937 16.193L4.2937 18.293C3.90308 18.6836 3.90308 19.318 4.2937 19.7086C4.68433 20.0992 5.3187 20.0992 5.70933 19.7086L7.80933 17.6086C8.97808 18.4836 10.4281 19.0023 12 19.0023C15.8656 19.0023 19 15.868 19 12.0023C19 10.4305 18.4812 8.97734 17.6062 7.81172V7.80859ZM14.7562 7.83047L7.82808 14.7555C7.3062 13.9648 6.99995 13.018 6.99995 11.9992C6.99995 9.23672 9.23745 6.99922 12 6.99922C13.0187 6.99922 13.9656 7.30547 14.7562 7.82734V7.83047ZM9.24058 16.1742L16.1718 9.24297C16.6937 10.0336 17 10.9805 17 11.9992C17 14.7617 14.7625 16.9992 12 16.9992C10.9812 16.9992 10.0343 16.693 9.2437 16.1711L9.24058 16.1742Z" fill="black"/>
</svg>
