<svg width="24" height="24" viewBox="0 0 24 24" fill="none" xmlns="http://www.w3.org/2000/svg">
<path d="M12.8845 5.22812C13.8345 6.21562 15.6689 7.2875 16.9939 7.625C17.8532 7.84375 18.6439 8.35 19.2126 9.11875C20.5282 10.8937 20.1564 13.4 18.3814 14.7156C17.8251 15.1281 17.197 15.375 16.5564 15.4656C15.3939 15.6281 13.9157 16.4875 13.3282 17.5031C11.947 19.8937 8.89073 20.7125 6.49698 19.3344C4.10323 17.9562 3.29073 14.8906 4.66886 12.5C5.44386 11.1594 5.87823 9.19062 6.01573 7.65C6.09698 6.71875 6.50323 5.8125 7.22823 5.11562C8.82198 3.58437 11.3532 3.63437 12.8845 5.22812ZM14.5001 11.5C14.5001 10.5717 14.1314 9.6815 13.475 9.02513C12.8186 8.36875 11.9284 8 11.0001 8C10.0718 8 9.18161 8.36875 8.52523 9.02513C7.86886 9.6815 7.50011 10.5717 7.50011 11.5C7.50011 12.4283 7.86886 13.3185 8.52523 13.9749C9.18161 14.6312 10.0718 15 11.0001 15C11.9284 15 12.8186 14.6312 13.475 13.9749C14.1314 13.3185 14.5001 12.4283 14.5001 11.5ZM9.50011 11.25C9.50011 11.525 9.27511 11.75 9.00011 11.75C8.72511 11.75 8.50011 11.525 8.50011 11.25C8.50011 10.0062 9.50636 9 10.7501 9C11.0251 9 11.2501 9.225 11.2501 9.5C11.2501 9.775 11.0251 10 10.7501 10C10.0595 10 9.50011 10.5594 9.50011 11.25Z" fill="black"/>
</svg>
