<svg width="24" height="24" viewBox="0 0 24 24" fill="none" xmlns="http://www.w3.org/2000/svg">
<path d="M3.21243 4.15955C2.88743 3.9033 2.41556 3.96268 2.15931 4.28768C1.90306 4.61268 1.96243 5.08455 2.28743 5.3408L20.7874 19.8408C21.1124 20.097 21.5843 20.0377 21.8406 19.7127C22.0968 19.3877 22.0374 18.9158 21.7124 18.6596L18.4249 16.0846C19.6624 14.8158 20.4999 13.3939 20.9218 12.3846C21.0249 12.1377 21.0249 11.8627 20.9218 11.6158C20.4562 10.5002 19.4781 8.87518 18.0156 7.51893C16.5468 6.15018 14.5249 5.00018 11.9999 5.00018C9.86868 5.00018 8.09368 5.82205 6.70931 6.90018L3.21243 4.15955ZM8.97181 8.67205C9.76868 7.94393 10.8343 7.50018 11.9999 7.50018C14.4843 7.50018 16.4999 9.5158 16.4999 12.0002C16.4999 12.7783 16.3031 13.5096 15.9562 14.1471L14.7499 13.2033C15.0124 12.6002 15.0812 11.9096 14.8999 11.2252C14.5531 9.9283 13.4062 9.05643 12.1312 9.0033C11.9499 8.99705 11.8437 9.19393 11.8999 9.36893C11.9656 9.56893 12.0031 9.78143 12.0031 10.0033C12.0031 10.3221 11.9281 10.6221 11.7968 10.8877L8.97493 8.67518L8.97181 8.67205ZM13.6562 16.1846C13.1437 16.3877 12.5843 16.5002 11.9999 16.5002C9.51556 16.5002 7.49993 14.4846 7.49993 12.0002C7.49993 11.7846 7.51556 11.5752 7.54368 11.3689L4.59681 9.04705C3.88431 9.97518 3.37493 10.9002 3.07806 11.6158C2.97493 11.8627 2.97493 12.1377 3.07806 12.3846C3.54368 13.5002 4.52181 15.1252 5.98431 16.4814C7.45306 17.8502 9.47493 19.0002 11.9999 19.0002C13.4937 19.0002 14.8093 18.5971 15.9437 17.9846L13.6562 16.1846Z" fill="black"/>
</svg>
