<svg width="24" height="24" viewBox="0 0 24 24" fill="none" xmlns="http://www.w3.org/2000/svg">
<path d="M3.21249 4.15937C2.88749 3.90312 2.41562 3.96249 2.15937 4.28749C1.90312 4.61249 1.96249 5.08437 2.28749 5.34062L20.7875 19.8406C21.1125 20.0969 21.5844 20.0375 21.8406 19.7125C22.0969 19.3875 22.0375 18.9156 21.7125 18.6594L18.425 16.0844C19.6625 14.8156 20.5 13.3937 20.9219 12.3844C21.025 12.1375 21.025 11.8625 20.9219 11.6156C20.4562 10.5 19.4781 8.87499 18.0156 7.51874C16.5469 6.14999 14.525 4.99999 12 4.99999C9.86874 4.99999 8.09374 5.82187 6.70937 6.89999L3.21249 4.15937ZM8.97187 8.67187C9.76874 7.94374 10.8344 7.49999 12 7.49999C14.4844 7.49999 16.5 9.51562 16.5 12C16.5 12.7781 16.3031 13.5094 15.9562 14.1469L14.75 13.2031C15.0125 12.6 15.0812 11.9094 14.9 11.225C14.5531 9.92812 13.4062 9.05624 12.1312 9.00312C11.95 8.99687 11.8437 9.19374 11.9 9.36874C11.9656 9.56874 12.0031 9.78124 12.0031 10.0031C12.0031 10.3219 11.9281 10.6219 11.7969 10.8875L8.97499 8.67499L8.97187 8.67187ZM13.6562 16.1844C13.1437 16.3875 12.5844 16.5 12 16.5C9.51562 16.5 7.49999 14.4844 7.49999 12C7.49999 11.7844 7.51562 11.575 7.54374 11.3687L4.59687 9.04687C3.88437 9.97499 3.37499 10.9 3.07812 11.6156C2.97499 11.8625 2.97499 12.1375 3.07812 12.3844C3.54374 13.5 4.52187 15.125 5.98437 16.4812C7.45312 17.85 9.47499 19 12 19C13.4937 19 14.8094 18.5969 15.9437 17.9844L13.6562 16.1844Z" fill="black"/>
</svg>
