<svg width="24" height="24" viewBox="0 0 24 24" fill="none" xmlns="http://www.w3.org/2000/svg">
<path d="M17.6062 7.80933L19.7062 5.70933C20.0969 5.3187 20.0969 4.68433 19.7062 4.2937C19.3156 3.90308 18.6812 3.90308 18.2906 4.2937L16.1937 6.3937C15.025 5.5187 13.5719 4.99995 12 4.99995C8.13437 4.99995 5 8.13433 5 12C5 13.5718 5.51875 15.025 6.39375 16.1937L4.29375 18.2937C3.90312 18.6843 3.90312 19.3187 4.29375 19.7093C4.68437 20.1 5.31875 20.1 5.70937 19.7093L7.80937 17.6093C8.97812 18.4843 10.4281 19.0031 12 19.0031C15.8656 19.0031 19 15.8687 19 12.0031C19 10.4312 18.4812 8.97808 17.6062 7.81245V7.80933ZM14.7562 7.8312L7.82812 14.7562C7.30625 13.9656 7 13.0187 7 12C7 9.23745 9.2375 6.99995 12 6.99995C13.0187 6.99995 13.9656 7.3062 14.7562 7.82808V7.8312ZM9.24062 16.175L16.1719 9.2437C16.6937 10.0343 17 10.9812 17 12C17 14.7625 14.7625 17 12 17C10.9812 17 10.0344 16.6937 9.24375 16.1718L9.24062 16.175Z" fill="black"/>
</svg>
