<svg width="24" height="24" viewBox="0 0 24 24" fill="none" xmlns="http://www.w3.org/2000/svg">
<path d="M9.96562 7.50625C9.63125 7.59375 9.30625 7.70312 9 7.83125L5.575 6.37812C5.30313 6.2625 4.99062 6.34687 4.8125 6.58125C4.63438 6.81562 4.64062 7.14062 4.825 7.36875L6.61562 9.58125C6.39687 9.8625 6.21562 10.1625 6.075 10.475L2.48438 11.3781C2.2 11.45 2 11.7063 2 12C2 12.2937 2.2 12.55 2.48438 12.6219L6.075 13.5188C6.21562 13.8344 6.39687 14.1344 6.61562 14.4125L4.825 16.6281C4.64062 16.8562 4.63438 17.1812 4.8125 17.4156C4.99062 17.65 5.30313 17.7344 5.575 17.6187L9 16.1687C9.30625 16.2969 9.62812 16.4062 9.96562 16.4937L11.3 19.5437C11.4219 19.8219 11.6969 20.0031 12 20.0031C12.3031 20.0031 12.5781 19.8219 12.7 19.5437L14.0344 16.4937C14.3688 16.4062 14.6938 16.2969 15 16.1687L18.4281 17.6219C18.7 17.7375 19.0125 17.6531 19.1906 17.4187C19.3687 17.1844 19.3625 16.8594 19.1781 16.6313L17.3875 14.4187C17.6062 14.1375 17.7875 13.8375 17.9281 13.525L21.5187 12.6281C21.8031 12.5563 22.0031 12.3 22.0031 12.0063C22.0031 11.7125 21.8031 11.4563 21.5187 11.3844L17.925 10.4812C17.7844 10.1656 17.6031 9.86562 17.3844 9.5875L19.175 7.375C19.3594 7.14687 19.3656 6.82188 19.1875 6.5875C19.0094 6.35313 18.6969 6.26875 18.425 6.38438L15 7.83125C14.6938 7.70312 14.3719 7.59375 14.0344 7.50625L12.7 4.45937C12.5781 4.18125 12.3031 4 12 4C11.6969 4 11.4219 4.18125 11.3 4.45937L9.96562 7.50938V7.50625ZM12 15C10.3438 15 9 13.6562 9 12C9 11.3844 9.1875 10.8094 9.50625 10.3344C10.025 10.6344 10.6 10.8406 11.2156 10.9375C11.0938 11.2312 11.0031 11.5875 11.0031 12C11.0031 12.9844 11.5188 13.6469 11.7469 13.8938C11.8125 13.9656 11.9062 14 12.0031 14C12.1 14 12.1937 13.9656 12.2594 13.8938C12.4875 13.6469 13.0031 12.9812 13.0031 12C13.0031 11.5875 12.9125 11.2312 12.7906 10.9375C13.4031 10.8406 13.9812 10.6312 14.5 10.3344C14.8125 10.8094 15 11.3844 15 12C15 13.6562 13.6562 15 12 15Z" fill="black"/>
</svg>
