<svg width="24" height="24" viewBox="0 0 24 24" fill="none" xmlns="http://www.w3.org/2000/svg">
<path d="M3.5 6C2.67188 6 2 6.67188 2 7.5C2 7.97188 2.22188 8.41562 2.6 8.7L9.4 13.8C9.75625 14.0656 10.2438 14.0656 10.6 13.8L12.3938 12.4563C13.1406 10.5875 14.8844 9.22813 16.9656 9.025L17.4 8.7C17.7781 8.41562 18 7.97188 18 7.5C18 6.67188 17.3281 6 16.5 6H3.5ZM11.2 14.6C10.4875 15.1344 9.5125 15.1344 8.8 14.6L2 9.5V16C2 17.1031 2.89688 18 4 18H13.2563C12.4719 17.05 12 15.8281 12 14.5C12 14.325 12.0094 14.1531 12.025 13.9812L11.2 14.6ZM22 14.5C22 13.3065 21.5259 12.1619 20.682 11.318C19.8381 10.4741 18.6935 10 17.5 10C16.3065 10 15.1619 10.4741 14.318 11.318C13.4741 12.1619 13 13.3065 13 14.5C13 15.6935 13.4741 16.8381 14.318 17.682C15.1619 18.5259 16.3065 19 17.5 19C18.6935 19 19.8381 18.5259 20.682 17.682C21.5259 16.8381 22 15.6935 22 14.5ZM19.6031 13.1469C19.7969 13.3406 19.7969 13.6594 19.6031 13.8531L17.3531 16.1031C17.1594 16.2969 16.8406 16.2969 16.6469 16.1031L15.3969 14.8531C15.2031 14.6594 15.2031 14.3406 15.3969 14.1469C15.5906 13.9531 15.9094 13.9531 16.1031 14.1469L17 15.0437L18.8969 13.1469C19.0906 12.9531 19.4094 12.9531 19.6031 13.1469Z" fill="black"/>
</svg>
