<svg width="24" height="24" viewBox="0 0 24 24" fill="none" xmlns="http://www.w3.org/2000/svg">
<path d="M12 5C12.4219 5 12.8219 5.175 13.1062 5.4875L18.6062 11.4875C19.0094 11.925 19.1125 12.5594 18.875 13.1062C18.6375 13.6531 18.0938 14 17.5 14H6.5C5.90625 14 5.36562 13.65 5.12812 13.1031C4.89062 12.5562 4.99375 11.925 5.39687 11.4844L10.8969 5.48438C11.1781 5.175 11.5781 5 12 5ZM5 17.5C5 16.6719 5.67188 16 6.5 16H17.5C18.3281 16 19 16.6719 19 17.5C19 18.3281 18.3281 19 17.5 19H6.5C5.67188 19 5 18.3281 5 17.5Z" fill="black"/>
</svg>
