<svg width="24" height="24" viewBox="0 0 24 24" fill="none" xmlns="http://www.w3.org/2000/svg">
<path d="M19.7062 5.70627L18.4562 6.95627C18.0655 7.3469 17.4312 7.3469 17.0405 6.95627C16.6499 6.56565 16.6499 5.93127 17.0405 5.54065L18.2905 4.29065C18.6812 3.90002 19.3155 3.90002 19.7062 4.29065C20.0968 4.68127 20.0968 5.31565 19.7062 5.70627ZM9.70615 15.7063L5.70615 19.7063C5.31553 20.0969 4.68115 20.0969 4.29053 19.7063C3.8999 19.3156 3.8999 18.6813 4.29053 18.2906L8.29053 14.2906C8.68115 13.9 9.31553 13.9 9.70615 14.2906C10.0968 14.6813 10.0968 15.3156 9.70615 15.7063ZM11.4999 8.00002C9.6999 8.00002 8.21553 9.36252 8.02178 11.1094C7.9624 11.6594 7.46553 12.0531 6.91865 11.9938C6.37178 11.9344 5.9749 11.4375 6.03428 10.8906C6.3374 8.14065 8.66865 6.00002 11.4999 6.00002C14.5374 6.00002 16.9999 8.46252 16.9999 11.5C16.9999 12.9375 16.4468 14.2469 15.5437 15.2281C15.1687 15.6344 14.9999 16.0031 14.9999 16.3125V16.5C14.9999 18.4344 13.4343 20 11.4999 20C10.9468 20 10.4999 19.5532 10.4999 19C10.4999 18.4469 10.9468 18 11.4999 18C12.328 18 12.9999 17.3281 12.9999 16.5V16.3094C12.9999 15.2813 13.5437 14.4469 14.0749 13.8719C14.6499 13.2469 14.9999 12.4156 14.9999 11.5C14.9999 9.56565 13.4343 8.00002 11.4999 8.00002ZM11.4999 10.5C10.9468 10.5 10.4999 10.9469 10.4999 11.5C10.4999 11.9156 10.1655 12.25 9.7499 12.25C9.33428 12.25 8.9999 11.9156 8.9999 11.5C8.9999 10.1188 10.1187 9.00002 11.4999 9.00002C12.8812 9.00002 13.9999 10.1188 13.9999 11.5C13.9999 11.9156 13.6655 12.25 13.2499 12.25C12.8343 12.25 12.4999 11.9156 12.4999 11.5C12.4999 10.9469 12.053 10.5 11.4999 10.5Z" fill="black"/>
</svg>
