<svg width="24" height="24" viewBox="0 0 24 24" fill="none" xmlns="http://www.w3.org/2000/svg">
<path d="M13.2969 4.0375C13.4532 4.10312 13.5657 4.24375 13.5969 4.40937L13.8969 6.04062C12.8282 6.50937 11.9063 7.25625 11.2282 8.19062C10.8407 8.06562 10.4282 7.99687 9.99693 7.99687C7.78756 7.99687 5.99693 9.7875 5.99693 11.9969C5.99693 14.2062 7.78756 15.9969 9.99693 15.9969C10.4251 15.9969 10.8407 15.9281 11.2282 15.8031C11.9063 16.7375 12.8251 17.4875 13.8969 17.9531L13.5969 19.5844C13.5657 19.75 13.4532 19.8906 13.2969 19.9562C13.1407 20.0219 12.9626 20.0031 12.8219 19.9062L10.0001 17.9656L7.17818 19.9125C7.03756 20.0094 6.85943 20.0281 6.70318 19.9625C6.54693 19.8969 6.43443 19.7562 6.40318 19.5906L5.78131 16.2187L2.40943 15.5969C2.24381 15.5656 2.10318 15.4531 2.03756 15.2969C1.97193 15.1406 1.99068 14.9625 2.08756 14.8219L4.03443 12L2.08756 9.17812C1.99068 9.0375 1.97193 8.85937 2.03756 8.70312C2.10318 8.54687 2.24381 8.43437 2.40943 8.40312L5.78131 7.78125L6.40318 4.40937C6.43443 4.24375 6.54693 4.10312 6.70318 4.0375C6.85943 3.97187 7.03756 3.99062 7.17818 4.0875L10.0001 6.03437L12.8219 4.0875C12.9626 3.99062 13.1407 3.97187 13.2969 4.0375ZM10.0001 9C10.2376 9 10.4688 9.02812 10.6907 9.08125C10.2501 9.95937 10.0001 10.95 10.0001 12C10.0001 13.05 10.2501 14.0406 10.6907 14.9187C10.4688 14.9719 10.2376 15 10.0001 15C8.34381 15 7.00006 13.6562 7.00006 12C7.00006 10.3437 8.34381 9 10.0001 9ZM16.5001 6.5C17.9587 6.5 19.3577 7.07946 20.3891 8.11091C21.4206 9.14236 22.0001 10.5413 22.0001 12C22.0001 13.4587 21.4206 14.8576 20.3891 15.8891C19.3577 16.9205 17.9587 17.5 16.5001 17.5C15.0414 17.5 13.6424 16.9205 12.611 15.8891C11.5795 14.8576 11.0001 13.4587 11.0001 12C11.0001 10.5413 11.5795 9.14236 12.611 8.11091C13.6424 7.07946 15.0414 6.5 16.5001 6.5Z" fill="black"/>
</svg>
