<svg width="24" height="24" viewBox="0 0 24 24" fill="none" xmlns="http://www.w3.org/2000/svg">
<path d="M16.4469 4.10626C15.9531 3.85938 15.3531 4.05938 15.1062 4.55313C14.8594 5.04688 15.0594 5.64376 15.55 5.89376L15.5625 5.90001C15.575 5.90626 15.5969 5.91876 15.6281 5.93751C15.6906 5.97501 15.7844 6.03126 15.9 6.11251C16.1344 6.27501 16.45 6.52501 16.7656 6.86876C17.3906 7.54376 18 8.56251 18 10C18 10.5531 18.4469 11 19 11C19.5531 11 20 10.5531 20 10C20 7.93751 19.1094 6.45626 18.2344 5.50938C17.8 5.03751 17.3656 4.69376 17.0406 4.46876C16.875 4.35313 16.7375 4.26876 16.6344 4.20938C16.5844 4.17813 16.5406 4.15626 16.5094 4.14063C16.4937 4.13126 16.4813 4.12501 16.4719 4.11876L16.4594 4.11251L16.4531 4.10938H16.45C16.45 4.10938 16.45 4.10938 16.0031 5.00313L16.4469 4.10626ZM8.02187 11.1094C8.21562 9.35938 9.7 8.00001 11.5 8.00001C13.4344 8.00001 15 9.56563 15 11.5C15 12.4156 14.65 13.2469 14.075 13.8719C13.5437 14.4469 13 15.2813 13 16.3094V16.5C13 17.3281 12.3281 18 11.5 18C10.9469 18 10.5 18.4469 10.5 19C10.5 19.5531 10.9469 20 11.5 20C13.4344 20 15 18.4344 15 16.5V16.3094C15 16.0031 15.1687 15.6313 15.5437 15.225C16.4469 14.2469 17 12.9375 17 11.5C17 8.46251 14.5375 6.00001 11.5 6.00001C8.66875 6.00001 6.3375 8.14063 6.03437 10.8906C5.975 11.4406 6.36875 11.9344 6.91875 11.9938C7.46875 12.0531 7.9625 11.6594 8.02187 11.1094ZM5 20C5.26522 20 5.51957 19.8947 5.70711 19.7071C5.89464 19.5196 6 19.2652 6 19C6 18.7348 5.89464 18.4804 5.70711 18.2929C5.51957 18.1054 5.26522 18 5 18C4.73478 18 4.48043 18.1054 4.29289 18.2929C4.10536 18.4804 4 18.7348 4 19C4 19.2652 4.10536 19.5196 4.29289 19.7071C4.48043 19.8947 4.73478 20 5 20ZM10 15C10 14.7348 9.89464 14.4804 9.70711 14.2929C9.51957 14.1054 9.26522 14 9 14C8.73478 14 8.48043 14.1054 8.29289 14.2929C8.10536 14.4804 8 14.7348 8 15C8 15.2652 8.10536 15.5196 8.29289 15.7071C8.48043 15.8947 8.73478 16 9 16C9.26522 16 9.51957 15.8947 9.70711 15.7071C9.89464 15.5196 10 15.2652 10 15ZM5.29375 15.2938C4.90313 15.6844 4.90313 16.3188 5.29375 16.7094L7.29375 18.7094C7.68438 19.1 8.31875 19.1 8.70937 18.7094C9.1 18.3188 9.1 17.6844 8.70937 17.2938L6.70937 15.2938C6.31875 14.9031 5.68438 14.9031 5.29375 15.2938ZM10.5 11.5C10.5 10.9469 10.9469 10.5 11.5 10.5C12.0531 10.5 12.5 10.9469 12.5 11.5C12.5 11.9156 12.8344 12.25 13.25 12.25C13.6656 12.25 14 11.9156 14 11.5C14 10.1188 12.8813 9.00001 11.5 9.00001C10.1187 9.00001 9 10.1188 9 11.5C9 11.9156 9.33437 12.25 9.75 12.25C10.1656 12.25 10.5 11.9156 10.5 11.5Z" fill="black"/>
</svg>
