<svg width="24" height="24" viewBox="0 0 24 24" fill="none" xmlns="http://www.w3.org/2000/svg">
<path d="M14.6748 4.91251L11.503 8.08751L11.2092 7.79376C10.8186 7.40314 10.1842 7.40314 9.79359 7.79376C9.40297 8.18439 9.40297 8.81876 9.79359 9.20939L14.7936 14.2094C15.1842 14.6 15.8186 14.6 16.2092 14.2094C16.5998 13.8188 16.5998 13.1844 16.2092 12.7938L15.9155 12.5L19.0873 9.32501C20.3061 8.10626 20.3061 6.13126 19.0873 4.91564C17.8686 3.70001 15.8936 3.69689 14.678 4.91564L14.6748 4.91251ZM5.73109 14.1031C5.26234 14.5719 4.99984 15.2094 4.99984 15.8719V17.1969L4.16859 18.4438C3.90297 18.8406 3.95609 19.3688 4.29359 19.7063C4.63109 20.0438 5.15921 20.0969 5.55609 19.8313L6.80296 19H8.12797C8.79047 19 9.42797 18.7375 9.89672 18.2688L13.6686 14.4969L9.50297 10.3313L5.73109 14.1031Z" fill="black"/>
</svg>
