<svg width="24" height="24" viewBox="0 0 24 24" fill="none" xmlns="http://www.w3.org/2000/svg">
<path d="M17.6062 7.80933L19.7062 5.70933C20.0968 5.3187 20.0968 4.68433 19.7062 4.2937C19.3156 3.90308 18.6812 3.90308 18.2906 4.2937L16.1937 6.3937C15.025 5.5187 13.5718 4.99995 12 4.99995C8.13433 4.99995 4.99995 8.13433 4.99995 12C4.99995 13.5718 5.5187 15.025 6.3937 16.1937L4.2937 18.2937C3.90308 18.6843 3.90308 19.3187 4.2937 19.7093C4.68433 20.1 5.3187 20.1 5.70933 19.7093L7.80933 17.6093C8.97808 18.4843 10.4281 19.0031 12 19.0031C15.8656 19.0031 19 15.8687 19 12.0031C19 10.4312 18.4812 8.97808 17.6062 7.81245V7.80933ZM14.7562 7.8312L7.82808 14.7562C7.3062 13.9656 6.99995 13.0187 6.99995 12C6.99995 9.23745 9.23745 6.99995 12 6.99995C13.0187 6.99995 13.9656 7.3062 14.7562 7.82808V7.8312ZM9.24058 16.175L16.1718 9.2437C16.6937 10.0343 17 10.9812 17 12C17 14.7625 14.7625 17 12 17C10.9812 17 10.0343 16.6937 9.2437 16.1718L9.24058 16.175Z" fill="black"/>
</svg>
