<svg width="24" height="24" viewBox="0 0 24 24" fill="none" xmlns="http://www.w3.org/2000/svg">
<path d="M17.6063 7.80933L19.7063 5.70933C20.0969 5.3187 20.0969 4.68433 19.7063 4.2937C19.3156 3.90308 18.6813 3.90308 18.2906 4.2937L16.1938 6.3937C15.025 5.5187 13.5719 4.99995 12 4.99995C8.13439 4.99995 5.00001 8.13433 5.00001 12C5.00001 13.5718 5.51876 15.025 6.39376 16.1937L4.29376 18.2937C3.90314 18.6843 3.90314 19.3187 4.29376 19.7093C4.68439 20.1 5.31876 20.1 5.70939 19.7093L7.80939 17.6093C8.97814 18.4843 10.4281 19.0031 12 19.0031C15.8656 19.0031 19 15.8687 19 12.0031C19 10.4312 18.4813 8.97808 17.6063 7.81245V7.80933ZM14.7563 7.8312L7.82814 14.7562C7.30626 13.9656 7.00001 13.0187 7.00001 12C7.00001 9.23745 9.23751 6.99995 12 6.99995C13.0188 6.99995 13.9656 7.3062 14.7563 7.82808V7.8312ZM9.24064 16.175L16.1719 9.2437C16.6938 10.0343 17 10.9812 17 12C17 14.7625 14.7625 17 12 17C10.9813 17 10.0344 16.6937 9.24376 16.1718L9.24064 16.175Z" fill="black"/>
</svg>
