<svg width="24" height="24" viewBox="0 0 24 24" fill="none" xmlns="http://www.w3.org/2000/svg">
<path d="M14.6751 4.91172L11.5032 8.08672L11.2095 7.79297C10.8188 7.40234 10.1845 7.40234 9.79383 7.79297C9.40321 8.18359 9.40321 8.81797 9.79383 9.20859L14.7938 14.2086C15.1845 14.5992 15.8188 14.5992 16.2095 14.2086C16.6001 13.818 16.6001 13.1836 16.2095 12.793L15.9157 12.4992L19.0876 9.32422C20.3063 8.10547 20.3063 6.13047 19.0876 4.91484C17.8688 3.69922 15.8938 3.69609 14.6782 4.91484L14.6751 4.91172ZM5.73133 14.1023C5.26258 14.5711 5.00008 15.2086 5.00008 15.8711V17.1961L4.16883 18.443C3.90321 18.8398 3.95633 19.368 4.29383 19.7055C4.63133 20.043 5.15946 20.0961 5.55633 19.8305L6.80321 18.9992H8.12821C8.79071 18.9992 9.42821 18.7367 9.89696 18.268L13.6688 14.4961L12.2532 13.0805L8.48133 16.8523C8.38758 16.9461 8.25946 16.9992 8.12821 16.9992H7.00008V15.8711C7.00008 15.7398 7.05321 15.6117 7.14696 15.518L10.9188 11.7461L9.50321 10.3305L5.73133 14.1023Z" fill="black"/>
</svg>
