<svg width="24" height="24" viewBox="0 0 24 24" fill="none" xmlns="http://www.w3.org/2000/svg">
<path d="M19.7063 5.70627L18.4563 6.95627C18.0656 7.3469 17.4313 7.3469 17.0406 6.95627C16.65 6.56565 16.65 5.93127 17.0406 5.54065L18.2906 4.29065C18.6813 3.90002 19.3156 3.90002 19.7063 4.29065C20.0969 4.68127 20.0969 5.31565 19.7063 5.70627ZM9.70627 15.7063L5.70627 19.7063C5.31565 20.0969 4.68127 20.0969 4.29065 19.7063C3.90002 19.3156 3.90002 18.6813 4.29065 18.2906L8.29065 14.2906C8.68127 13.9 9.31565 13.9 9.70627 14.2906C10.0969 14.6813 10.0969 15.3156 9.70627 15.7063ZM11.5 8.00002C9.70002 8.00002 8.21565 9.36252 8.0219 11.1094C7.96252 11.6594 7.46565 12.0531 6.91877 11.9938C6.3719 11.9344 5.97502 11.4375 6.0344 10.8906C6.33752 8.14065 8.66877 6.00002 11.5 6.00002C14.5375 6.00002 17 8.46252 17 11.5C17 12.9375 16.4469 14.2469 15.5438 15.2281C15.1688 15.6344 15 16.0031 15 16.3125V16.5C15 18.4344 13.4344 20 11.5 20C10.9469 20 10.5 19.5531 10.5 19C10.5 18.4469 10.9469 18 11.5 18C12.3281 18 13 17.3281 13 16.5V16.3094C13 15.2813 13.5438 14.4469 14.075 13.8719C14.65 13.2469 15 12.4156 15 11.5C15 9.56565 13.4344 8.00002 11.5 8.00002ZM11.5 10.5C10.9469 10.5 10.5 10.9469 10.5 11.5C10.5 11.9156 10.1656 12.25 9.75002 12.25C9.3344 12.25 9.00002 11.9156 9.00002 11.5C9.00002 10.1188 10.1188 9.00002 11.5 9.00002C12.8813 9.00002 14 10.1188 14 11.5C14 11.9156 13.6656 12.25 13.25 12.25C12.8344 12.25 12.5 11.9156 12.5 11.5C12.5 10.9469 12.0531 10.5 11.5 10.5Z" fill="black"/>
</svg>
