<svg width="24" height="24" viewBox="0 0 24 24" fill="none" xmlns="http://www.w3.org/2000/svg">
<path d="M19.1438 15.6062C17.825 18.2125 15.1219 20 12 20C8.87813 20 6.17501 18.2125 4.85626 15.6062C4.99688 15.5156 5.12813 15.4094 5.25313 15.2844C5.50626 15.0312 5.66563 14.7031 5.76876 14.4531C5.88126 14.1781 5.97188 13.8781 6.04376 13.5938C6.18751 13.025 6.28438 12.4375 6.33438 12.0875C6.45626 11.2594 5.74688 10.55 4.92188 10.6687C4.70938 10.6969 4.41563 10.7438 4.09063 10.8063C4.66563 6.95312 7.98751 4 12 4C16.0125 4 19.3344 6.95312 19.9125 10.8031C19.5906 10.7406 19.2938 10.6937 19.0813 10.6656C18.2531 10.5438 17.5438 11.2531 17.6688 12.0844C17.7188 12.4375 17.8125 13.0219 17.9594 13.5906C18.0313 13.875 18.1219 14.1781 18.2344 14.45C18.3375 14.7031 18.4969 15.0281 18.75 15.2812C18.8719 15.4031 19.0063 15.5125 19.1469 15.6031L19.1438 15.6062ZM5.34376 11.9406C5.24688 12.6125 4.98751 14.1344 4.54688 14.5781C4.51876 14.6094 4.48751 14.6344 4.45626 14.6625C3.87501 15.1469 3.00001 15.1094 2.44688 14.5531C1.86251 13.9688 1.85001 13.0281 2.42501 12.4531C2.69376 12.1844 3.36563 11.9812 4.00313 11.8406C4.40938 11.7531 4.80001 11.6906 5.06251 11.6531C5.23126 11.6281 5.37188 11.7687 5.34376 11.9344V11.9406ZM19.5469 14.6625C19.5219 14.6438 19.5 14.6219 19.475 14.6C19.4688 14.5938 19.4594 14.5875 19.4531 14.5781C19.0125 14.1375 18.75 12.6125 18.6563 11.9406C18.6313 11.7719 18.7719 11.6313 18.9375 11.6594C18.9688 11.6625 19.0063 11.6688 19.0406 11.675C19.2969 11.7125 19.6406 11.7688 19.9969 11.8469C20.6344 11.9844 21.3063 12.1875 21.575 12.4594C22.15 13.0344 22.1375 13.975 21.5531 14.5594C21 15.1125 20.125 15.1531 19.5469 14.6656V14.6625ZM16.7313 14.3594C16.8875 13.9906 16.5125 13.6562 16.1281 13.775C14.8875 14.1562 13.4875 14.3687 12.0094 14.3687C10.5313 14.3687 9.13126 14.1562 7.89063 13.775C7.50626 13.6562 7.13126 13.9906 7.28751 14.3594C8.06876 16.2063 9.88751 17.5 12.0094 17.5C14.1313 17.5 15.9531 16.2063 16.7313 14.3594ZM10.8 11.15C10.8656 11.2375 10.9781 11.2719 11.0781 11.2375C11.1781 11.2031 11.25 11.1094 11.25 11C11.25 10.4406 11.0406 9.8875 10.7313 9.475C10.425 9.06875 9.98438 8.75 9.50001 8.75C9.01563 8.75 8.57501 9.06875 8.26876 9.475C7.95938 9.8875 7.75001 10.4406 7.75001 11C7.75001 11.1062 7.81876 11.2031 7.92188 11.2375C8.02501 11.2719 8.13751 11.2375 8.20001 11.15L8.20626 11.1438C8.21251 11.1375 8.21876 11.1281 8.22813 11.1156C8.24688 11.0906 8.27813 11.0531 8.31563 11.0094C8.39376 10.9219 8.50313 10.8031 8.63438 10.6875C8.90938 10.4437 9.22188 10.25 9.50001 10.25C9.77813 10.25 10.0906 10.4437 10.3656 10.6875C10.4969 10.8031 10.6063 10.9219 10.6844 11.0094C10.7219 11.0531 10.7531 11.0906 10.7719 11.1156C10.7813 11.1281 10.7906 11.1375 10.7938 11.1438L10.8 11.15ZM15.8 11.15C15.8656 11.2375 15.9781 11.2719 16.0781 11.2375C16.1781 11.2031 16.25 11.1094 16.25 11C16.25 10.4406 16.0406 9.8875 15.7313 9.475C15.425 9.06875 14.9844 8.75 14.5 8.75C14.0156 8.75 13.575 9.06875 13.2688 9.475C12.9594 9.8875 12.75 10.4406 12.75 11C12.75 11.1062 12.8188 11.2031 12.9219 11.2375C13.025 11.2719 13.1375 11.2375 13.2 11.15L13.2063 11.1438C13.2125 11.1375 13.2188 11.1281 13.2281 11.1156C13.2469 11.0906 13.2781 11.0531 13.3156 11.0094C13.3938 10.9219 13.5031 10.8031 13.6344 10.6875C13.9094 10.4437 14.2219 10.25 14.5 10.25C14.7781 10.25 15.0906 10.4437 15.3656 10.6875C15.4969 10.8031 15.6063 10.9219 15.6844 11.0094C15.7219 11.0531 15.7531 11.0906 15.7719 11.1156C15.7813 11.1281 15.7906 11.1375 15.7938 11.1438L15.8 11.15Z" fill="black"/>
</svg>
