<svg width="24" height="24" viewBox="0 0 24 24" fill="none" xmlns="http://www.w3.org/2000/svg">
<path d="M6 4C5.25937 4 4.6125 4.40312 4.26875 5H4C2.89688 5 2 5.89688 2 7C2 8.10312 2.89688 9 4 9H9C10.1031 9 11 8.10312 11 7C11 5.89688 10.1031 5 9 5C8.5875 5 8.20625 5.125 7.8875 5.3375C7.61562 4.55937 6.87187 4 6 4ZM4.25312 10C4.0875 10.6406 4 11.3094 4 12C4 15.5812 6.35625 18.6156 9.60313 19.6344C9.225 19.1031 9 18.4531 9 17.75C9 16.1688 10.1313 14.85 11.6281 14.5594C12.0375 13.0844 13.3937 12 15 12C15.9094 12 16.7375 12.3469 17.3594 12.9125C17.6375 12.8063 17.9375 12.75 18.25 12.75C18.875 12.75 19.4469 12.9781 19.8844 13.3594C19.9594 12.9187 20 12.4625 20 12C20 7.58125 16.4187 4 12 4C11.3562 4 10.7281 4.075 10.1281 4.21875C11.225 4.66563 12 5.74375 12 7C12 8.2375 11.25 9.3 10.1812 9.75938C10.3844 9.94375 10.5094 10.2063 10.5094 10.5C10.5094 11.0531 10.0625 11.5 9.50938 11.5C8.95625 11.5 8.50938 11.0531 8.50938 10.5C8.50938 10.3187 8.55938 10.1469 8.64375 10H4.25312ZM14.5125 9.5C14.7777 9.5 15.0321 9.60536 15.2196 9.79289C15.4071 9.98043 15.5125 10.2348 15.5125 10.5C15.5125 10.7652 15.4071 11.0196 15.2196 11.2071C15.0321 11.3946 14.7777 11.5 14.5125 11.5C14.2473 11.5 13.9929 11.3946 13.8054 11.2071C13.6179 11.0196 13.5125 10.7652 13.5125 10.5C13.5125 10.2348 13.6179 9.98043 13.8054 9.79289C13.9929 9.60536 14.2473 9.5 14.5125 9.5ZM12.5 15.5H12.25C11.0063 15.5 10 16.5063 10 17.75C10 18.9937 11.0063 20 12.25 20H19.75C20.9937 20 22 18.9937 22 17.75C22 16.5063 20.9937 15.5 19.75 15.5H19.7281C19.7406 15.4188 19.75 15.3344 19.75 15.25C19.75 14.4219 19.0781 13.75 18.25 13.75C17.8156 13.75 17.425 13.9344 17.1531 14.2281C16.7156 13.4937 15.9156 13 15 13C13.6187 13 12.5 14.1187 12.5 15.5Z" fill="black"/>
</svg>
