<svg width="24" height="24" viewBox="0 0 24 24" fill="none" xmlns="http://www.w3.org/2000/svg">
<path d="M8 4C6.89688 4 6 4.89688 6 6V13H9.5C9.69062 13 9.8625 13.1062 9.94688 13.275L10.5 14.3813L12.0531 11.275C12.1375 11.1063 12.3125 11 12.5 11C12.6875 11 12.8625 11.1063 12.9469 11.275L13.8094 13H16C16.275 13 16.5 13.225 16.5 13.5C16.5 13.775 16.275 14 16 14H13.5C13.3094 14 13.1375 13.8938 13.0531 13.725L12.5 12.6187L10.9469 15.725C10.8625 15.8938 10.6875 16 10.5 16C10.3125 16 10.1375 15.8938 10.0531 15.725L9.19063 14H6V18C6 19.1031 6.89688 20 8 20H16C17.1031 20 18 19.1031 18 18V9H14C13.4469 9 13 8.55312 13 8V4H8ZM14 4V8H18L14 4Z" fill="black"/>
</svg>
