<svg width="24" height="24" viewBox="0 0 24 24" fill="none" xmlns="http://www.w3.org/2000/svg">
<path d="M20 17C20 18.1031 19.1031 19 18 19H6C4.89688 19 4 18.1031 4 17V7C4 5.89688 4.89688 5 6 5H10C10.6281 5 11.2219 5.29687 11.6 5.8L12.2 6.6C12.3875 6.85312 12.6844 7 13 7H18C19.1031 7 20 7.89687 20 9V17ZM12.75 15.75V12.5594L13.7188 13.5281C14.0125 13.8219 14.4875 13.8219 14.7781 13.5281C15.0687 13.2344 15.0719 12.7594 14.7781 12.4688L12.5281 10.2188C12.2344 9.925 11.7594 9.925 11.4688 10.2188L9.21875 12.4688C8.925 12.7625 8.925 13.2375 9.21875 13.5281C9.5125 13.8187 9.9875 13.8219 10.2781 13.5281L11.2469 12.5594V15.75C11.2469 16.1656 11.5812 16.5 11.9969 16.5C12.4125 16.5 12.7469 16.1656 12.7469 15.75H12.75Z" fill="black"/>
</svg>
