<svg width="24" height="24" viewBox="0 0 24 24" fill="none" xmlns="http://www.w3.org/2000/svg">
<path d="M4 6C4 4.89688 4.89688 4 6 4H11V8C11 8.55312 11.4469 9 12 9H16V13.5H9.5C8.39687 13.5 7.5 14.3969 7.5 15.5V20H6C4.89688 20 4 19.1031 4 18V6ZM16 8H12V4L16 8ZM9 15.5C9 15.225 9.225 15 9.5 15H11.5C11.775 15 12 15.225 12 15.5C12 15.775 11.775 16 11.5 16H10V17H11C11.275 17 11.5 17.225 11.5 17.5C11.5 17.775 11.275 18 11 18H10V19H11.5C11.775 19 12 19.225 12 19.5C12 19.775 11.775 20 11.5 20H9.5C9.225 20 9 19.775 9 19.5V17.5V15.5ZM13.5 15H14.5C15.4656 15 16.25 15.7844 16.25 16.75C16.25 17.7156 15.4656 18.5 14.5 18.5H14V19.5C14 19.775 13.775 20 13.5 20C13.225 20 13 19.775 13 19.5V18V15.5C13 15.225 13.225 15 13.5 15ZM14.5 17.5C14.9156 17.5 15.25 17.1656 15.25 16.75C15.25 16.3344 14.9156 16 14.5 16H14V17.5H14.5ZM18.1781 15H19C19.275 15 19.5 15.225 19.5 15.5C19.5 15.775 19.275 16 19 16H18.1781C17.9438 16 17.75 16.1906 17.75 16.4281C17.75 16.5906 17.8406 16.7375 17.9875 16.8094L18.9625 17.2969C19.4469 17.5375 19.75 18.0312 19.75 18.5719C19.75 19.3594 19.1125 20 18.3219 20H17.25C16.975 20 16.75 19.775 16.75 19.5C16.75 19.225 16.975 19 17.25 19H18.3219C18.5562 19 18.75 18.8094 18.75 18.5719C18.75 18.4094 18.6594 18.2625 18.5125 18.1906L17.5375 17.7031C17.0563 17.4625 16.75 16.9688 16.75 16.4281C16.75 15.6406 17.3875 15 18.1781 15Z" fill="black"/>
</svg>
