<svg width="24" height="24" viewBox="0 0 24 24" fill="none" xmlns="http://www.w3.org/2000/svg">
<path d="M4 12C4 9.87827 4.84285 7.84344 6.34315 6.34315C7.84344 4.84285 9.87827 4 12 4C14.1217 4 16.1566 4.84285 17.6569 6.34315C19.1571 7.84344 20 9.87827 20 12C20 14.1217 19.1571 16.1566 17.6569 17.6569C16.1566 19.1571 14.1217 20 12 20C9.87827 20 7.84344 19.1571 6.34315 17.6569C4.84285 16.1566 4 14.1217 4 12ZM9.04063 15.9406C8.87188 16.325 9.3125 16.6156 9.7 16.4531C10.4 16.1562 11.1813 15.9906 12.0031 15.9906C12.825 15.9906 13.6062 16.1562 14.3062 16.4531C14.6937 16.6156 15.1344 16.325 14.9656 15.9406C14.4656 14.7969 13.3281 14 12.0031 14C10.6781 14 9.54063 14.8 9.04063 15.9406ZM9.5125 12.5C10.0656 12.5 10.5125 12.0531 10.5125 11.5C10.5125 11.4531 10.5094 11.4063 10.5031 11.3625L10.8438 11.475C11.1062 11.5625 11.3875 11.4219 11.475 11.1594C11.5625 10.8969 11.4219 10.6156 11.1594 10.5281L8.15938 9.52812C7.89688 9.44062 7.61563 9.58125 7.52813 9.84375C7.44063 10.1062 7.58125 10.3875 7.84375 10.475L8.80312 10.7937C8.62187 10.975 8.5125 11.225 8.5125 11.5C8.5125 12.0531 8.95937 12.5 9.5125 12.5ZM15.5125 11.5C15.5125 11.2219 15.4 10.9687 15.2156 10.7875L16.1594 10.4719C16.4219 10.3844 16.5625 10.1 16.475 9.84062C16.3875 9.58125 16.1031 9.4375 15.8438 9.525L12.8438 10.525C12.5813 10.6125 12.4406 10.8969 12.5281 11.1562C12.6156 11.4156 12.9 11.5594 13.1594 11.4719L13.525 11.35C13.5187 11.3969 13.5156 11.4469 13.5156 11.4969C13.5156 12.05 13.9625 12.4969 14.5156 12.4969C15.0688 12.4969 15.5156 12.05 15.5156 11.4969L15.5125 11.5Z" fill="black"/>
</svg>
