<svg width="24" height="24" viewBox="0 0 24 24" fill="none" xmlns="http://www.w3.org/2000/svg">
<path d="M16 18.9312C18.3906 17.5469 20 14.9625 20 12C20 7.58125 16.4187 4 12 4C7.58125 4 4 7.58125 4 12C4 16.4187 7.58125 20 12 20C13.0594 20 14.075 19.7937 15 19.4187V15.5906C14.6969 15.7906 14.3656 15.9719 14 16.1187V18C14 18.275 13.775 18.5 13.5 18.5C13.225 18.5 13 18.275 13 18V16.4094C12.6844 16.4688 12.35 16.5 12 16.5C9.90625 16.5 8.44375 15.3531 7.60938 14.3125C7.4375 14.0969 7.47187 13.7812 7.6875 13.6094C7.90313 13.4375 8.21875 13.4719 8.39062 13.6875C9.10312 14.5781 10.3062 15.5 12 15.5C13.6938 15.5 14.8969 14.5781 15.6094 13.6875C15.7812 13.4719 16.0969 13.4375 16.3125 13.6094C16.5281 13.7812 16.5625 14.0969 16.3906 14.3125C16.2719 14.4594 16.1437 14.6094 16 14.7563V18.9312ZM8.95625 9.925C8.69375 10.175 8.53437 10.4781 8.475 10.6594C8.3875 10.9219 8.10313 11.0625 7.84375 10.975C7.58437 10.8875 7.44063 10.6031 7.52813 10.3438C7.63438 10.025 7.875 9.575 8.27187 9.20312C8.67187 8.81875 9.24687 8.5 10 8.5C10.275 8.5 10.5 8.725 10.5 9C10.5 9.275 10.275 9.5 10 9.5C9.55312 9.5 9.2125 9.68125 8.95625 9.925ZM15.525 10.6594C15.4656 10.4781 15.3062 10.1781 15.0437 9.925C14.7875 9.68125 14.45 9.5 14 9.5C13.725 9.5 13.5 9.275 13.5 9C13.5 8.725 13.725 8.5 14 8.5C14.7531 8.5 15.3281 8.81875 15.7312 9.2C16.125 9.575 16.3688 10.0219 16.475 10.3406C16.5625 10.6031 16.4219 10.8844 16.1594 10.9719C15.8969 11.0594 15.6156 10.9187 15.5281 10.6562L15.525 10.6594Z" fill="black"/>
</svg>
