<svg width="24" height="24" viewBox="0 0 24 24" fill="none" xmlns="http://www.w3.org/2000/svg">
<path d="M12 20C14.1217 20 16.1566 19.1571 17.6569 17.6569C19.1571 16.1566 20 14.1217 20 12C20 9.87827 19.1571 7.84344 17.6569 6.34315C16.1566 4.84285 14.1217 4 12 4C9.87827 4 7.84344 4.84285 6.34315 6.34315C4.84285 7.84344 4 9.87827 4 12C4 14.1217 4.84285 16.1566 6.34315 17.6569C7.84344 19.1571 9.87827 20 12 20ZM9.5125 9.5C9.77772 9.5 10.0321 9.60536 10.2196 9.79289C10.4071 9.98043 10.5125 10.2348 10.5125 10.5C10.5125 10.7652 10.4071 11.0196 10.2196 11.2071C10.0321 11.3946 9.77772 11.5 9.5125 11.5C9.24728 11.5 8.99293 11.3946 8.80539 11.2071C8.61786 11.0196 8.5125 10.7652 8.5125 10.5C8.5125 10.2348 8.61786 9.98043 8.80539 9.79289C8.99293 9.60536 9.24728 9.5 9.5125 9.5ZM13.5125 10.5C13.5125 10.2348 13.6179 9.98043 13.8054 9.79289C13.9929 9.60536 14.2473 9.5 14.5125 9.5C14.7777 9.5 15.0321 9.60536 15.2196 9.79289C15.4071 9.98043 15.5125 10.2348 15.5125 10.5C15.5125 10.7652 15.4071 11.0196 15.2196 11.2071C15.0321 11.3946 14.7777 11.5 14.5125 11.5C14.2473 11.5 13.9929 11.3946 13.8054 11.2071C13.6179 11.0196 13.5125 10.7652 13.5125 10.5ZM9.7 15.9531C9.3125 16.1156 8.87188 15.825 9.04063 15.4406C9.54063 14.2969 10.6781 13.5 12.0031 13.5C13.3281 13.5 14.4656 14.3 14.9656 15.4406C15.1344 15.825 14.6937 16.1156 14.3062 15.9531C13.6062 15.6562 12.825 15.4906 12.0031 15.4906C11.1813 15.4906 10.4 15.6562 9.7 15.9531Z" fill="black"/>
</svg>
