<svg width="24" height="24" viewBox="0 0 24 24" fill="none" xmlns="http://www.w3.org/2000/svg">
<path d="M17.3375 4.44405C17.9375 3.84405 18.9219 3.85655 19.5344 4.46593C20.1469 5.0753 20.1594 6.05968 19.5563 6.6628C19.3438 6.8753 18.8875 7.0503 18.3875 7.18468C17.8782 7.32218 17.3219 7.41905 16.9407 7.4753C16.8907 7.48155 16.8438 7.49093 16.7969 7.49405C16.6219 7.52218 16.475 7.37218 16.5 7.19718C16.55 6.84718 16.6438 6.27218 16.7813 5.72843C16.7907 5.6878 16.8032 5.64718 16.8125 5.60655C16.9469 5.10968 17.1188 4.65343 17.3344 4.4378L17.3375 4.44405ZM15.9407 5.0378C15.8938 5.1878 15.85 5.3378 15.8125 5.48468C15.6625 6.0753 15.5625 6.6878 15.5094 7.05655C15.3844 7.89405 16.1 8.60968 16.9375 8.4878C17.3094 8.4378 17.9219 8.3378 18.5125 8.18468C18.6594 8.14718 18.8094 8.10655 18.9594 8.05655C20.6938 11.1097 20.2563 15.0566 17.6563 17.6566C15.0563 20.2566 11.1094 20.6941 8.05629 18.9628C8.10317 18.8128 8.14379 18.6628 8.18129 18.5159C8.33129 17.9253 8.43129 17.3128 8.48442 16.9441C8.60942 16.1066 7.89379 15.3909 7.05629 15.5128C6.68442 15.5628 6.07192 15.6628 5.48129 15.8159C5.33442 15.8534 5.18442 15.8941 5.03442 15.9441C3.30629 12.8909 3.74379 8.94405 6.34379 6.34405C8.94379 3.74093 12.8907 3.30655 15.9438 5.0378H15.9407ZM5.60942 16.8159C6.18754 16.6597 6.82192 16.5566 7.20004 16.5034C7.37504 16.4753 7.52192 16.6253 7.49692 16.8003C7.44379 17.1784 7.34067 17.8128 7.18442 18.3909C7.05004 18.8878 6.87504 19.3441 6.66254 19.5566C6.06254 20.1566 5.07817 20.1441 4.46567 19.5347C3.85317 18.9253 3.84067 17.9409 4.44379 17.3378C4.65629 17.1253 5.11254 16.9503 5.61254 16.8159H5.60942ZM17.0125 10.3222C16.8625 9.9503 16.3594 9.98155 16.1719 10.3347C15.5657 11.4816 14.725 12.6222 13.6782 13.6691C12.6313 14.7159 11.4907 15.5534 10.3438 16.1628C9.99067 16.3503 9.95942 16.8534 10.3313 17.0034C12.1875 17.7566 14.3907 17.3847 15.8907 15.8847C17.3907 14.3847 17.7625 12.1816 17.0094 10.3253L17.0125 10.3222ZM6.72192 12.9097C6.78442 12.9722 6.86567 13.0097 6.95004 13.0159L8.70317 13.1753L8.86254 14.9284C8.87192 15.0159 8.90942 15.0972 8.96879 15.1566C9.16567 15.3534 9.50629 15.2691 9.58754 15.0034L10.5157 11.9597C10.625 11.5972 10.2875 11.2566 9.92192 11.3659L6.87504 12.2909C6.60629 12.3722 6.52192 12.7097 6.72192 12.9097ZM12.2907 6.8753L11.3625 9.91905C11.2532 10.2816 11.5907 10.6222 11.9563 10.5128L15 9.58468C15.2688 9.50343 15.3532 9.16593 15.1532 8.96593C15.0907 8.90343 15.0094 8.86593 14.925 8.85968L13.1719 8.7003L13.0125 6.94718C13.0032 6.85968 12.9657 6.77843 12.9063 6.71905C12.7094 6.52218 12.3688 6.60655 12.2875 6.87218L12.2907 6.8753Z" fill="black"/>
</svg>
