<svg width="24" height="24" viewBox="0 0 24 24" fill="none" xmlns="http://www.w3.org/2000/svg">
<path d="M8.64062 17.7683C8.34375 18.0152 7.92813 18.0714 7.575 17.9058C7.22187 17.7402 7 17.3871 7 16.9996V6.99957C7 6.61207 7.225 6.25895 7.575 6.09332C7.925 5.9277 8.34063 5.98082 8.64062 6.23082L14.6406 11.2308L15 11.5308V6.99957C15 6.44645 15.4469 5.99957 16 5.99957C16.5531 5.99957 17 6.44645 17 6.99957V16.9996C17 17.5527 16.5531 17.9996 16 17.9996C15.4469 17.9996 15 17.5527 15 16.9996V12.4683L14.6406 12.7683L8.64062 17.7683Z" fill="black"/>
</svg>
