<svg width="24" height="24" viewBox="0 0 24 24" fill="none" xmlns="http://www.w3.org/2000/svg">
<path d="M4 12C4 14.1217 4.84285 16.1566 6.34315 17.6569C7.84344 19.1571 9.87827 20 12 20C14.1217 20 16.1566 19.1571 17.6569 17.6569C19.1571 16.1566 20 14.1217 20 12C20 9.87827 19.1571 7.84344 17.6569 6.34315C16.1566 4.84285 14.1217 4 12 4C9.87827 4 7.84344 4.84285 6.34315 6.34315C4.84285 7.84344 4 9.87827 4 12ZM11.5 14.5C11.5 14.225 11.725 14 12 14C13.4062 14 14.675 14.6406 15.6156 15.6594C15.8031 15.8625 15.7906 16.1781 15.5875 16.3656C15.3844 16.5531 15.0688 16.5406 14.8813 16.3375C14.1 15.4906 13.0875 14.9969 11.9969 14.9969C11.7219 14.9969 11.4969 14.7719 11.4969 14.4969L11.5 14.5ZM9 17C8.17188 17 7.5 16.3438 7.5 15.5312C7.5 14.9062 8.39375 13.6437 8.8 13.1031C8.9 12.9656 9.1 12.9656 9.2 13.1031C9.6125 13.6437 10.5 14.9062 10.5 15.5312C10.5 16.3438 9.82812 17 9 17ZM15.4875 10.5C15.4875 10.7652 15.3821 11.0196 15.1946 11.2071C15.0071 11.3946 14.7527 11.5 14.4875 11.5C14.2223 11.5 13.9679 11.3946 13.7804 11.2071C13.5929 11.0196 13.4875 10.7652 13.4875 10.5C13.4875 10.2348 13.5929 9.98043 13.7804 9.79289C13.9679 9.60536 14.2223 9.5 14.4875 9.5C14.7527 9.5 15.0071 9.60536 15.1946 9.79289C15.3821 9.98043 15.4875 10.2348 15.4875 10.5ZM9.4875 9.5C9.75272 9.5 10.0071 9.60536 10.1946 9.79289C10.3821 9.98043 10.4875 10.2348 10.4875 10.5C10.4875 10.7652 10.3821 11.0196 10.1946 11.2071C10.0071 11.3946 9.75272 11.5 9.4875 11.5C9.22228 11.5 8.96793 11.3946 8.78039 11.2071C8.59286 11.0196 8.4875 10.7652 8.4875 10.5C8.4875 10.2348 8.59286 9.98043 8.78039 9.79289C8.96793 9.60536 9.22228 9.5 9.4875 9.5Z" fill="black"/>
</svg>
