<svg width="24" height="24" viewBox="0 0 24 24" fill="none" xmlns="http://www.w3.org/2000/svg">
<path d="M11.6 5.2C11.2688 4.95 10.8188 4.93438 10.4656 5.15313C10.1125 5.37187 9.93752 5.79063 10.0188 6.19688L10.3219 7.71563C9.71564 7.99688 9.16877 8.3375 8.68439 8.7C8.20627 9.05937 7.77814 9.44688 7.41252 9.83437L4.50314 8.1375C4.11252 7.90937 3.61564 7.97188 3.29689 8.29063C2.97814 8.60938 2.90627 9.10312 3.13127 9.49687L4.56252 12L3.13127 14.5031C2.90627 14.8969 2.97502 15.3906 3.29689 15.7094C3.61877 16.0281 4.11252 16.0906 4.50314 15.8625L7.41252 14.1656C7.78127 14.55 8.20627 14.9406 8.68439 15.3C9.16877 15.6625 9.71564 16.0031 10.3219 16.2844L10.0188 17.8031C9.93752 18.2094 10.1156 18.625 10.4656 18.8438C10.8156 19.0625 11.2656 19.0469 11.6 18.7969L14.025 16.9781C15.7406 16.8531 17.1969 16.1344 18.3125 15.2969C19.5375 14.3781 20.4125 13.275 20.8625 12.5C21.0438 12.1906 21.0438 11.8062 20.8625 11.4969C20.4125 10.7219 19.5344 9.61875 18.3125 8.7C17.1938 7.8625 15.7406 7.14375 14.025 7.01875L11.6 5.2ZM15 12C15 11.7348 15.1054 11.4804 15.2929 11.2929C15.4804 11.1054 15.7348 11 16 11C16.2652 11 16.5196 11.1054 16.7071 11.2929C16.8947 11.4804 17 11.7348 17 12C17 12.2652 16.8947 12.5196 16.7071 12.7071C16.5196 12.8946 16.2652 13 16 13C15.7348 13 15.4804 12.8946 15.2929 12.7071C15.1054 12.5196 15 12.2652 15 12Z" fill="black"/>
</svg>
