<svg width="24" height="24" viewBox="0 0 24 24" fill="none" xmlns="http://www.w3.org/2000/svg">
<path d="M12 20C14.1217 20 16.1566 19.1571 17.6569 17.6569C19.1571 16.1566 20 14.1217 20 12C20 9.87827 19.1571 7.84344 17.6569 6.34315C16.1566 4.84285 14.1217 4 12 4C9.87827 4 7.84344 4.84285 6.34315 6.34315C4.84285 7.84344 4 9.87827 4 12C4 14.1217 4.84285 16.1566 6.34315 17.6569C7.84344 19.1571 9.87827 20 12 20ZM7.625 10.4094C7.625 10.1281 7.925 9.95 8.17188 10.0813L10.9812 11.5781C11.3156 11.7562 11.3156 12.2375 10.9812 12.4156L8.17188 13.9125C7.925 14.0438 7.625 13.8656 7.625 13.5844C7.625 13.4969 7.65625 13.4125 7.7125 13.3469L8.8375 11.9969L7.7125 10.6469C7.65625 10.5812 7.625 10.4969 7.625 10.4094ZM15.8281 10.0813C16.075 9.95 16.375 10.1281 16.375 10.4094C16.375 10.4969 16.3438 10.5812 16.2875 10.6469L15.1625 11.9969L16.2875 13.3469C16.3438 13.4125 16.375 13.4969 16.375 13.5844C16.375 13.8656 16.075 14.0438 15.8281 13.9125L13.0188 12.4156C12.6844 12.2375 12.6844 11.7562 13.0188 11.5781L15.8281 10.0813ZM10.7781 15.0813L12 15.9L13.2219 15.0844C13.3906 14.9719 13.6094 14.9719 13.7781 15.0844L15.0375 15.9219L15.7781 15.5531C16.025 15.4281 16.325 15.5312 16.45 15.7781C16.575 16.025 16.4719 16.325 16.225 16.45L15.225 16.95C15.0656 17.0312 14.8719 17.0188 14.725 16.9187L13.5 16.1L12.2781 16.9156C12.1094 17.0281 11.8906 17.0281 11.7219 16.9156L10.5 16.1L9.27812 16.9156C9.12812 17.0156 8.9375 17.0281 8.77812 16.9469L7.77813 16.4469C7.53125 16.3219 7.43125 16.0219 7.55312 15.775C7.675 15.5281 7.97812 15.4281 8.225 15.55L8.96562 15.9187L10.225 15.0813C10.3937 14.9688 10.6125 14.9688 10.7812 15.0813H10.7781Z" fill="black"/>
</svg>
