<svg width="24" height="24" viewBox="0 0 24 24" fill="none" xmlns="http://www.w3.org/2000/svg">
<path d="M11.506 4.125C11.106 3.90625 10.6091 3.98438 10.2966 4.31563L8.83102 5.87188C8.68727 6.025 8.5029 6.12813 8.29665 6.16875L6.19977 6.58438C5.7529 6.67188 5.42165 7.05313 5.39665 7.50938L5.2779 9.64375C5.2654 9.85313 5.1904 10.05 5.05915 10.2125L3.72165 11.8781C3.43727 12.2344 3.4279 12.7375 3.69977 13.1031L4.9779 14.8156C5.1029 14.9813 5.17165 15.1844 5.1779 15.3938L5.20602 16.6813C5.28727 16.5281 5.3904 16.3875 5.5154 16.2656L7.26227 14.5188C6.78415 13.8844 6.49977 13.1 6.49977 12.25C6.49977 10.1781 8.1779 8.5 10.2498 8.5C11.0998 8.5 11.8841 8.78438 12.5154 9.25938L16.2623 5.5125C16.406 5.36875 16.5748 5.25313 16.756 5.16563C16.5654 5.04375 16.3373 4.9875 16.0998 5.01563L13.9779 5.26875C13.7716 5.29375 13.5623 5.25313 13.3779 5.15313L11.506 4.125ZM7.9779 13.7969L11.7966 9.97813C11.356 9.675 10.8248 9.5 10.2498 9.5C8.73102 9.5 7.49977 10.7313 7.49977 12.25C7.49977 12.825 7.67477 13.3563 7.9779 13.7969ZM18.0873 6.28438C17.9529 6.11563 17.756 6.01563 17.5435 6.00313C17.331 5.99063 17.1216 6.07188 16.9716 6.22188L15.6279 7.56563L14.2841 8.90938L11.5966 11.5969L8.90915 14.2844L6.22165 16.9719C6.07165 17.1219 5.9904 17.3313 6.0029 17.5438C6.0154 17.7563 6.11852 17.9563 6.28415 18.0875C7.71227 19.2219 9.4779 20 11.4998 20C16.1935 20 19.9998 16.1938 19.9998 11.5C19.9998 9.47813 19.2216 7.7125 18.0873 6.28438ZM10.9998 17.5C10.9998 17.3674 11.0525 17.2402 11.1462 17.1464C11.24 17.0527 11.3672 17 11.4998 17C11.6324 17 11.7596 17.0527 11.8533 17.1464C11.9471 17.2402 11.9998 17.3674 11.9998 17.5C11.9998 17.6326 11.9471 17.7598 11.8533 17.8536C11.7596 17.9473 11.6324 18 11.4998 18C11.3672 18 11.24 17.9473 11.1462 17.8536C11.0525 17.7598 10.9998 17.6326 10.9998 17.5ZM13.4998 17C13.6324 17 13.7596 17.0527 13.8533 17.1464C13.9471 17.2402 13.9998 17.3674 13.9998 17.5C13.9998 17.6326 13.9471 17.7598 13.8533 17.8536C13.7596 17.9473 13.6324 18 13.4998 18C13.3672 18 13.24 17.9473 13.1462 17.8536C13.0525 17.7598 12.9998 17.6326 12.9998 17.5C12.9998 17.3674 13.0525 17.2402 13.1462 17.1464C13.24 17.0527 13.3672 17 13.4998 17ZM11.9998 15.5C11.9998 15.3674 12.0525 15.2402 12.1462 15.1464C12.24 15.0527 12.3672 15 12.4998 15C12.6324 15 12.7596 15.0527 12.8533 15.1464C12.9471 15.2402 12.9998 15.3674 12.9998 15.5C12.9998 15.6326 12.9471 15.7598 12.8533 15.8536C12.7596 15.9473 12.6324 16 12.4998 16C12.3672 16 12.24 15.9473 12.1462 15.8536C12.0525 15.7598 11.9998 15.6326 11.9998 15.5Z" fill="black"/>
</svg>
