<svg width="24" height="24" viewBox="0 0 24 24" fill="none" xmlns="http://www.w3.org/2000/svg">
<path d="M18.6157 16.5C17.175 18.6125 14.75 20 12 20C7.58128 20 4.00003 16.4187 4.00003 12C4.00003 7.58123 7.58128 3.99998 12 3.99998C15.5438 3.99998 18.5532 6.30623 19.6032 9.49998H19.5C18.1188 9.49998 17 10.6187 17 12C17 12.5625 17.1875 13.0812 17.5 13.5H15C14.9688 13.5 14.9375 13.5 14.9063 13.5031C14.8688 13.4312 14.8219 13.3656 14.7719 13.3031C14.6375 13.1406 14.4563 13 14.25 12.8844C13.8344 12.6531 13.2938 12.5 12.75 12.5C12.6375 12.5 12.5375 12.5781 12.5094 12.6875C12.4813 12.7969 12.5282 12.9125 12.6282 12.9687L12.6344 12.9719C12.6407 12.975 12.65 12.9812 12.6625 12.9875C12.6875 13.0031 12.725 13.025 12.7688 13.0531C12.8563 13.1125 12.9719 13.1937 13.0875 13.2906C13.2032 13.3875 13.3125 13.4969 13.3875 13.6062C13.4657 13.7156 13.4969 13.8062 13.4969 13.875C13.4969 13.9437 13.4657 14.0312 13.3875 14.1437C13.3094 14.2531 13.2032 14.3594 13.0875 14.4594C12.9719 14.5562 12.8563 14.6375 12.7688 14.6969C12.725 14.725 12.6875 14.7469 12.6625 14.7625C12.65 14.7687 12.6407 14.775 12.6344 14.7781L12.6282 14.7812C12.55 14.825 12.5 14.9094 12.5 15C12.5 15.0906 12.55 15.175 12.6282 15.2187L12.6344 15.2219C12.6407 15.225 12.65 15.2312 12.6625 15.2375C12.6875 15.2531 12.725 15.275 12.7688 15.3031C12.8563 15.3625 12.9719 15.4437 13.0875 15.5406C13.2032 15.6375 13.3125 15.7469 13.3875 15.8562C13.4657 15.9656 13.4969 16.0562 13.4969 16.125C13.4969 16.1937 13.4657 16.2812 13.3875 16.3937C13.3094 16.5031 13.2032 16.6094 13.0875 16.7094C12.9719 16.8062 12.8563 16.8875 12.7688 16.9469C12.725 16.975 12.6875 16.9969 12.6625 17.0125C12.65 17.0187 12.6407 17.025 12.6344 17.0281L12.6282 17.0312C12.5282 17.0875 12.4813 17.2031 12.5094 17.3125C12.5375 17.4219 12.6375 17.5 12.75 17.5C13.2938 17.5 13.8344 17.3469 14.2469 17.1156C14.4532 17 14.6375 16.8594 14.7688 16.6969C14.8188 16.6344 14.8657 16.5687 14.9032 16.4969C14.9344 16.5 14.9657 16.5 14.9969 16.5H18.6157ZM10.6 11.3C10.7657 11.5219 11.0782 11.5656 11.3 11.4C11.5219 11.2344 11.5657 10.9219 11.4 10.7C10.45 9.43436 8.55003 9.43436 7.60003 10.7C7.43441 10.9219 7.47816 11.2344 7.70003 11.4C7.92191 11.5656 8.23441 11.5219 8.40003 11.3C8.95003 10.5656 10.05 10.5656 10.6 11.3ZM13.4 11.3C13.95 10.5656 15.05 10.5656 15.6 11.3C15.7657 11.5219 16.0782 11.5656 16.3 11.4C16.5219 11.2344 16.5657 10.9219 16.4 10.7C15.45 9.43436 13.55 9.43436 12.6 10.7C12.4344 10.9219 12.4782 11.2344 12.7 11.4C12.9219 11.5656 13.2344 11.5219 13.4 11.3ZM18 12C18 11.1719 18.6719 10.5 19.5 10.5H20.5C21.3282 10.5 22 11.1719 22 12V14C22 14.8281 21.3282 15.5 20.5 15.5H14.5C14.225 15.5 14 15.275 14 15C14 14.725 14.225 14.5 14.5 14.5H20.5C20.775 14.5 21 14.275 21 14V12C21 11.725 20.775 11.5 20.5 11.5H19.5C19.225 11.5 19 11.725 19 12C19 12.275 19.225 12.5 19.5 12.5H20C20.275 12.5 20.5 12.725 20.5 13C20.5 13.275 20.275 13.5 20 13.5H19.5C18.6719 13.5 18 12.8281 18 12ZM3.60316 8.75623L2.97816 7.13123C3.45628 6.24373 4.06253 5.43748 4.77503 4.73123L6.12503 5.18123C5.01566 6.14061 4.14066 7.36561 3.60316 8.75623ZM3.72191 4.38123C3.27816 4.86248 2.87503 5.38748 2.51878 5.94061L2.03441 4.67811C1.96253 4.49998 2.00628 4.29373 2.13753 4.15311C2.26878 4.01248 2.47503 3.96561 2.65941 4.02498L3.72191 4.38123Z" fill="black"/>
</svg>
