<svg width="24" height="24" viewBox="0 0 24 24" fill="none" xmlns="http://www.w3.org/2000/svg">
<path d="M8 4C6.89688 4 6 4.89688 6 6V18C6 19.1031 6.89688 20 8 20H16C17.1031 20 18 19.1031 18 18V9H14C13.4469 9 13 8.55313 13 8V4H8ZM14 4V8H18L14 4ZM10 10.5V11H14V10.5C14 10.225 14.225 10 14.5 10H15.5C15.775 10 16 10.225 16 10.5V11.5C16 11.775 15.775 12 15.5 12H15V16H15.5C15.775 16 16 16.225 16 16.5V17.5C16 17.775 15.775 18 15.5 18H14.5C14.225 18 14 17.775 14 17.5V17H10V17.5C10 17.775 9.775 18 9.5 18H8.5C8.225 18 8 17.775 8 17.5V16.5C8 16.225 8.225 16 8.5 16H9V12H8.5C8.225 12 8 11.775 8 11.5V10.5C8 10.225 8.225 10 8.5 10H9.5C9.775 10 10 10.225 10 10.5ZM10 16H14V12H10V16Z" fill="black"/>
</svg>
