<svg width="24" height="24" viewBox="0 0 24 24" fill="none" xmlns="http://www.w3.org/2000/svg">
<path d="M12.9375 5.65C12.7906 5.25937 12.4156 5 12 5C11.5844 5 11.2094 5.25937 11.0625 5.65L6.80625 17H6C5.44687 17 5 17.4469 5 18C5 18.5531 5.44687 19 6 19H9C9.55312 19 10 18.5531 10 18C10 17.4469 9.55312 17 9 17H8.94375L9.50625 15.5H14.4937L15.0562 17H15C14.4469 17 14 17.4469 14 18C14 18.5531 14.4469 19 15 19H18C18.5531 19 19 18.5531 19 18C19 17.4469 18.5531 17 18 17H17.1938L12.9375 5.65ZM13.7437 13.5H10.2562L12 8.84688L13.7437 13.5Z" fill="black"/>
</svg>
