<svg width="24" height="24" viewBox="0 0 24 24" fill="none" xmlns="http://www.w3.org/2000/svg">
<path d="M10.0656 5.8283C10.5187 5.52205 10.6406 4.90955 10.3406 4.4533C10.3375 4.45017 10.3343 4.44392 10.3312 4.4408C10.0218 3.98142 9.39997 3.86267 8.94372 4.17205L3.09684 8.1408C1.71247 9.08142 1.62497 11.0908 2.92184 12.147L2.96872 12.1845C3.55934 12.6658 4.31872 12.8377 5.03122 12.7002C5.16872 12.672 5.30622 12.6345 5.44059 12.5814C5.44997 12.5783 5.46247 12.572 5.47184 12.5689C5.48747 12.5627 5.50309 12.5564 5.51872 12.5502C5.69372 12.4783 5.85934 12.3814 6.01872 12.2689L8.59059 10.397C9.03747 10.072 9.13747 9.44705 8.81247 9.00017C8.66247 8.7908 8.44372 8.65955 8.20934 8.60955C8.09997 8.58767 7.98434 8.58142 7.87184 8.59705C7.71247 8.61892 7.55622 8.6783 7.41559 8.7783L5.99997 9.80642V8.58767L6.85309 8.00955L7.26247 7.73142L10.0656 5.8283ZM13 4.00017C12.425 4.00017 11.8656 4.05955 11.3281 4.17517C11.7218 5.04705 11.4468 6.10017 10.6281 6.65642L8.92184 7.81267C9.19059 7.95017 9.43122 8.1533 9.61872 8.41267C9.88747 8.78455 10.0125 9.2158 9.99997 9.6408C10.15 9.5533 10.325 9.50017 10.5093 9.50017C11.0625 9.50017 11.5093 9.94705 11.5093 10.5002C11.5093 11.0533 11.0625 11.5002 10.5093 11.5002C10.075 11.5002 9.70309 11.222 9.56559 10.8314C9.45622 10.9689 9.32497 11.097 9.17497 11.2064L6.60309 13.0783C6.16872 13.3939 5.68122 13.597 5.17809 13.6908C5.95309 17.297 9.15934 20.0002 13 20.0002C17.4187 20.0002 21 16.4189 21 12.0002C21 7.58142 17.4187 4.00017 13 4.00017ZM10.0437 14.6564C10.5906 15.0502 11.5718 15.5002 13 15.5002C14.4281 15.5002 15.4125 15.0502 15.9562 14.6564C16.1812 14.4939 16.4937 14.547 16.6531 14.7689C16.8125 14.9908 16.7625 15.3064 16.5406 15.4658C15.8312 15.9783 14.6437 16.497 12.9968 16.497C11.35 16.497 10.1656 15.9783 9.45309 15.4658C9.22809 15.3033 9.17809 14.9908 9.34059 14.7689C9.50309 14.547 9.81559 14.4939 10.0375 14.6564H10.0437ZM15.5125 9.50017C15.7777 9.50017 16.032 9.60553 16.2196 9.79307C16.4071 9.9806 16.5125 10.235 16.5125 10.5002C16.5125 10.7654 16.4071 11.0197 16.2196 11.2073C16.032 11.3948 15.7777 11.5002 15.5125 11.5002C15.2472 11.5002 14.9929 11.3948 14.8054 11.2073C14.6178 11.0197 14.5125 10.7654 14.5125 10.5002C14.5125 10.235 14.6178 9.9806 14.8054 9.79307C14.9929 9.60553 15.2472 9.50017 15.5125 9.50017Z" fill="black"/>
</svg>
