<svg width="24" height="24" viewBox="0 0 24 24" fill="none" xmlns="http://www.w3.org/2000/svg">
<path d="M18 19H6C4.89688 19 4 18.1031 4 17V7C4 5.89688 4.89688 5 6 5H10C10.6281 5 11.2219 5.29687 11.6 5.8L12.2 6.6C12.3875 6.85312 12.6844 7 13 7H18C19.1031 7 20 7.89688 20 9V17C20 18.1031 19.1031 19 18 19ZM7.25 11.5C6.83437 11.5 6.5 11.8344 6.5 12.25V13.75C6.5 14.1656 6.83437 14.5 7.25 14.5H8.75C9.16563 14.5 9.5 14.1656 9.5 13.75V12.25C9.5 11.8344 9.16563 11.5 8.75 11.5H7.25ZM11.25 11.5C10.8344 11.5 10.5 11.8344 10.5 12.25V13.75C10.5 14.1656 10.8344 14.5 11.25 14.5H12.75C13.1656 14.5 13.5 14.1656 13.5 13.75V12.25C13.5 11.8344 13.1656 11.5 12.75 11.5H11.25ZM14.5 12.25V13.75C14.5 14.1656 14.8344 14.5 15.25 14.5H16.75C17.1656 14.5 17.5 14.1656 17.5 13.75V12.25C17.5 11.8344 17.1656 11.5 16.75 11.5H15.25C14.8344 11.5 14.5 11.8344 14.5 12.25Z" fill="black"/>
</svg>
