<svg width="24" height="24" viewBox="0 0 24 24" fill="none" xmlns="http://www.w3.org/2000/svg">
<path d="M4 12C4 9.87827 4.84285 7.84344 6.34315 6.34315C7.84344 4.84285 9.87827 4 12 4C14.1217 4 16.1566 4.84285 17.6569 6.34315C19.1571 7.84344 20 9.87827 20 12C20 14.1217 19.1571 16.1566 17.6569 17.6569C16.1566 19.1571 14.1217 20 12 20C9.87827 20 7.84344 19.1571 6.34315 17.6569C4.84285 16.1566 4 14.1217 4 12ZM16.7312 14.3594C16.8875 13.9906 16.5125 13.6562 16.1281 13.775C14.8875 14.1562 13.4875 14.3687 12.0094 14.3687C10.5312 14.3687 9.13125 14.1562 7.89062 13.775C7.50625 13.6562 7.13125 13.9906 7.2875 14.3594C8.06875 16.2063 9.8875 17.5 12.0094 17.5C14.1312 17.5 15.9531 16.2063 16.7312 14.3594ZM9 7.75C8.90312 7.75 8.81563 7.80625 8.775 7.89375L8.25625 8.97813L7.06562 9.13438C6.96875 9.14687 6.89062 9.2125 6.85938 9.30625C6.82812 9.4 6.85625 9.5 6.925 9.56563L7.79688 10.3938L7.57812 11.575C7.55938 11.6687 7.6 11.7656 7.67812 11.8219C7.75625 11.8781 7.85938 11.8844 7.94375 11.8406L9 11.2656L10.0563 11.8375C10.1406 11.8844 10.2438 11.8781 10.3219 11.8187C10.4 11.7594 10.4375 11.6656 10.4219 11.5719L10.2031 10.3906L11.075 9.5625C11.1437 9.49687 11.1719 9.39687 11.1406 9.30312C11.1094 9.20937 11.0312 9.14375 10.9344 9.13125L9.74375 8.975L9.225 7.89062C9.18437 7.80312 9.09688 7.74688 9 7.74688V7.75ZM15 7.75C14.9031 7.75 14.8156 7.80625 14.775 7.89375L14.2563 8.97813L13.0656 9.13438C12.9688 9.14687 12.8906 9.2125 12.8594 9.30625C12.8281 9.4 12.8562 9.5 12.925 9.56563L13.7969 10.3938L13.5781 11.575C13.5594 11.6687 13.6 11.7656 13.6781 11.8219C13.7563 11.8781 13.8594 11.8844 13.9438 11.8406L15 11.2656L16.0562 11.8375C16.1406 11.8844 16.2437 11.8781 16.3219 11.8187C16.4 11.7594 16.4375 11.6656 16.4219 11.5719L16.2031 10.3906L17.075 9.5625C17.1438 9.49687 17.1719 9.39687 17.1406 9.30312C17.1094 9.20937 17.0312 9.14375 16.9344 9.13125L15.7437 8.975L15.225 7.89062C15.1844 7.80312 15.0969 7.74688 15 7.74688V7.75Z" fill="black"/>
</svg>
