<svg width="24" height="24" viewBox="0 0 24 24" fill="none" xmlns="http://www.w3.org/2000/svg">
<path d="M3 6C3 4.89688 3.89688 4 5 4H10V8C10 8.55313 10.4469 9 11 9H15V10.2063C12.6906 10.8594 11 12.9813 11 15.5C11 17.3469 11.9094 18.9781 13.3031 19.9781C13.2031 19.9937 13.1031 20 13 20H5C3.89688 20 3 19.1031 3 18V6ZM15 8H11V4L15 8ZM16.5 11C17.6935 11 18.8381 11.4741 19.682 12.318C20.5259 13.1619 21 14.3065 21 15.5C21 16.6935 20.5259 17.8381 19.682 18.682C18.8381 19.5259 17.6935 20 16.5 20C15.3065 20 14.1619 19.5259 13.318 18.682C12.4741 17.8381 12 16.6935 12 15.5C12 14.3065 12.4741 13.1619 13.318 12.318C14.1619 11.4741 15.3065 11 16.5 11ZM17 13.5C17 13.225 16.775 13 16.5 13C16.225 13 16 13.225 16 13.5V15H14.5C14.225 15 14 15.225 14 15.5C14 15.775 14.225 16 14.5 16H16V17.5C16 17.775 16.225 18 16.5 18C16.775 18 17 17.775 17 17.5V16H18.5C18.775 16 19 15.775 19 15.5C19 15.225 18.775 15 18.5 15H17V13.5Z" fill="black"/>
</svg>
