<svg width="24" height="24" viewBox="0 0 24 24" fill="none" xmlns="http://www.w3.org/2000/svg">
<path d="M4 7C4 5.34375 5.34375 4 7 4H8C8.55313 4 9 4.44687 9 5C9 5.55313 8.55313 6 8 6H7C6.44688 6 6 6.44687 6 7V10H7C7.55313 10 8 10.4469 8 11C8 11.5531 7.55313 12 7 12H6V15.9844C6 17.4969 4.87188 18.775 3.37188 18.9625L3.125 18.9937C2.575 19.0594 2.075 18.6719 2.00625 18.125C1.9375 17.5781 2.325 17.0781 2.875 17.0094L3.12188 16.9781C3.62188 16.9156 3.99688 16.4906 3.99688 15.9844V12H3C2.44687 12 2 11.5531 2 11C2 10.4469 2.44687 10 3 10H4V7ZM12.3344 9.55312C11.4906 10.825 11 12.3531 11 14C11 15.6469 11.4906 17.175 12.3344 18.4469C12.6406 18.9062 12.5125 19.5281 12.0531 19.8313C11.5938 20.1344 10.9719 20.0094 10.6687 19.55C9.6125 17.9594 9 16.05 9 14C9 11.95 9.6125 10.0406 10.6656 8.44688C10.9719 7.9875 11.5906 7.85938 12.05 8.16563C12.5094 8.47188 12.6375 9.09063 12.3312 9.55L12.3344 9.55312ZM18.6656 9.55312C18.3594 9.09375 18.4875 8.47187 18.9469 8.16875C19.4062 7.86562 20.0281 7.99062 20.3312 8.45C21.3875 10.0406 22 11.95 22 14C22 16.05 21.3875 17.9594 20.3344 19.5531C20.0281 20.0125 19.4094 20.1406 18.95 19.8344C18.4906 19.5281 18.3625 18.9094 18.6688 18.45C19.5125 17.1781 20.0031 15.65 20.0031 14.0031C20.0031 12.3563 19.5125 10.8281 18.6688 9.55625L18.6656 9.55312ZM14.4562 11.5437L15.5 12.5844L16.5437 11.5406C16.9344 11.15 17.5688 11.15 17.9594 11.5406C18.35 11.9313 18.35 12.5656 17.9594 12.9563L16.9156 14L17.9594 15.0437C18.35 15.4344 18.35 16.0688 17.9594 16.4594C17.5688 16.85 16.9344 16.85 16.5437 16.4594L15.5 15.4156L14.4562 16.4594C14.0656 16.85 13.4312 16.85 13.0406 16.4594C12.65 16.0688 12.65 15.4344 13.0406 15.0437L14.0844 14L13.0406 12.9563C12.65 12.5656 12.65 11.9313 13.0406 11.5406C13.4312 11.15 14.0656 11.15 14.4562 11.5406V11.5437Z" fill="black"/>
</svg>
