<svg width="24" height="24" viewBox="0 0 24 24" fill="none" xmlns="http://www.w3.org/2000/svg">
<path d="M16.0063 5.07187C15.9656 5.6875 16.1781 6.31562 16.6469 6.7875L18.3813 8.53125C18.6688 8.82188 19.0406 8.975 19.4188 8.99687C19.7938 9.925 20 10.9375 20 12C20 13.1687 19.75 14.2812 19.2969 15.2844C18.4531 14.8094 17.3625 14.9312 16.6469 15.6531C15.8406 16.4656 15.7875 17.75 16.4937 18.6187C15.2125 19.4906 13.6656 20 12 20C10.0844 20 8.325 19.325 6.94688 18.2L7.35625 17.7906C8.21875 16.925 8.21875 15.5219 7.35625 14.6531C6.58125 13.8719 5.36875 13.7906 4.50312 14.4125C4.45 14.375 4.39375 14.3375 4.34063 14.3062C4.11875 13.5781 4 12.8031 4 12C4 7.58125 7.58125 4 12 4C13.4594 4 14.8281 4.39062 16.0063 5.07187ZM8.42188 14.1219C8.2125 14.3031 8.19062 14.6187 8.37187 14.8281C9.06562 15.6313 10.2781 16.5 12 16.5C13.7219 16.5 14.9313 15.6281 15.6281 14.8281C15.8094 14.6187 15.7875 14.3031 15.5781 14.1219C15.3687 13.9406 15.0531 13.9625 14.8719 14.1719C14.3125 14.8188 13.3562 15.5 12 15.5C10.6438 15.5 9.6875 14.8188 9.12813 14.1719C8.94688 13.9625 8.63125 13.9406 8.42188 14.1219ZM8.4 11.3C8.95 10.5656 10.05 10.5656 10.6 11.3C10.7656 11.5219 11.0781 11.5656 11.3 11.4C11.5219 11.2344 11.5656 10.9219 11.4 10.7C10.45 9.43437 8.55 9.43437 7.6 10.7C7.43437 10.9219 7.47812 11.2344 7.7 11.4C7.92188 11.5656 8.23438 11.5219 8.4 11.3ZM15.6 11.3C15.7656 11.5219 16.0781 11.5656 16.3 11.4C16.5219 11.2344 16.5656 10.9219 16.4 10.7C15.45 9.43437 13.55 9.43437 12.6 10.7C12.4344 10.9219 12.4781 11.2344 12.7 11.4C12.9219 11.5656 13.2344 11.5219 13.4 11.3C13.95 10.5656 15.05 10.5656 15.6 11.3ZM19.9281 4.35938C20.4031 3.88125 21.1719 3.88125 21.6437 4.35938C22.1156 4.8375 22.1187 5.60937 21.6437 6.08437L19.9125 7.82812C19.6844 8.05625 19.3156 8.05625 19.0906 7.82812L17.3562 6.08437C16.8812 5.60625 16.8812 4.83438 17.3562 4.35938C17.8313 3.88438 18.6 3.88125 19.0719 4.35938L19.5 4.79062L19.9281 4.35938ZM21.6437 16.3594C22.1187 16.8375 22.1187 17.6094 21.6437 18.0844L19.9125 19.8281C19.6844 20.0562 19.3156 20.0562 19.0906 19.8281L17.3562 18.0844C16.8812 17.6063 16.8812 16.8344 17.3562 16.3594C17.8313 15.8844 18.6 15.8813 19.0719 16.3594L19.5 16.7906L19.9281 16.3594C20.4031 15.8813 21.1719 15.8813 21.6437 16.3594ZM4.92812 15.3594C5.40312 14.8813 6.17188 14.8813 6.64375 15.3594C7.11563 15.8375 7.11875 16.6094 6.64375 17.0844L4.9125 18.8281C4.68437 19.0562 4.31562 19.0562 4.09063 18.8281L2.35625 17.0844C1.88125 16.6063 1.88125 15.8344 2.35625 15.3594C2.83125 14.8844 3.6 14.8813 4.07188 15.3594L4.5 15.7906L4.92812 15.3594Z" fill="black"/>
</svg>
