<svg width="24" height="24" viewBox="0 0 24 24" fill="none" xmlns="http://www.w3.org/2000/svg">
<path d="M20 12C20 16.4187 16.4187 20 12 20C11.6406 20 11.2844 19.975 10.9375 19.9312C10.9563 19.8719 10.9687 19.8094 10.9812 19.7469L11.5563 16.3031L11.725 16.4156C11.8937 16.5281 12.1125 16.5281 12.2812 16.4156L13.5 15.6L14.7219 16.4156C14.8719 16.5156 15.0625 16.5281 15.2219 16.4469L16.2219 15.9469C16.4688 15.8219 16.5687 15.5219 16.4469 15.275C16.325 15.0281 16.0219 14.9281 15.775 15.05L15.0344 15.4187L13.775 14.5813C13.6062 14.4688 13.3875 14.4688 13.2188 14.5813L12 15.4L11.7344 15.2219L11.9812 13.7469C12.0594 13.2687 11.9062 12.7813 11.5625 12.4406C11.2188 12.1 10.7344 11.9406 10.2562 12.0219L4.25625 13.0219C4.19375 13.0313 4.13125 13.0469 4.07187 13.0656C4.025 12.7156 4 12.3594 4 12C4 7.58125 7.58125 4 12 4C16.4187 4 20 7.58125 20 12ZM8.17188 8.08437C7.925 7.95312 7.625 8.13125 7.625 8.4125C7.625 8.5 7.65625 8.58438 7.7125 8.65L8.8375 10L7.7125 11.35C7.65625 11.4156 7.625 11.5 7.625 11.5875C7.625 11.8688 7.925 12.0469 8.17188 11.9156L10.9812 10.4187C11.3156 10.2406 11.3156 9.75938 10.9812 9.58125L8.17188 8.08437ZM16.375 8.40938C16.375 8.12813 16.075 7.95 15.8281 8.08125L13.0188 9.57812C12.6844 9.75625 12.6844 10.2375 13.0188 10.4156L15.8281 11.9125C16.075 12.0437 16.375 11.8656 16.375 11.5844C16.375 11.4969 16.3438 11.4125 16.2875 11.3469L15.1625 9.99687L16.2875 8.64687C16.3438 8.58125 16.375 8.49688 16.375 8.40938ZM10.8531 13.1469C10.9688 13.2625 11.0188 13.4219 10.9938 13.5813L9.99375 19.5813C9.95938 19.7906 9.79688 19.9531 9.5875 19.9906C9.37813 20.0281 9.16875 19.9312 9.06563 19.7469L8.25313 18.325L5.62188 18.9844C5.45 19.0281 5.27188 18.9781 5.14688 18.8531C5.02188 18.7281 4.97188 18.55 5.01562 18.3781L5.675 15.7469L4.25313 14.9344C4.06875 14.8281 3.97187 14.6219 4.00938 14.4125C4.04688 14.2031 4.20937 14.0406 4.41875 14.0063L10.4187 13.0063C10.5781 12.9813 10.7406 13.0313 10.8531 13.1469Z" fill="black"/>
</svg>
