<svg width="24" height="24" viewBox="0 0 24 24" fill="none" xmlns="http://www.w3.org/2000/svg">
<path d="M19.35 4.26559C20.0313 4.73746 20.2031 5.67184 19.7313 6.35309L18.1 8.71246L15.6031 7.04684L17.2625 4.64684C17.7344 3.96559 18.6688 3.79371 19.35 4.26559ZM15.0344 7.87184L17.5313 9.53746L11.5313 18.2156C10.7625 19.325 9.50313 19.9906 8.15313 19.9937C5.85938 20 4.00313 18.1343 4.01875 15.8406V15.7718C4.025 14.9687 4.2625 14.1843 4.7 13.5093L5.24063 12.6812C5.69375 11.9875 6.62188 11.7937 7.31563 12.2468C8.00938 12.7 8.20313 13.6281 7.75 14.3218L7.20938 15.15C7.08438 15.3406 7.01563 15.5656 7.01563 15.7937V15.8625C7.0125 16.4875 7.51563 16.9937 8.14063 16.9906C8.50625 16.9906 8.85 16.8093 9.05938 16.5062L15.0344 7.87184ZM17.5 15C18.163 15 18.7989 15.2634 19.2678 15.7322C19.7366 16.201 20 16.8369 20 17.5C20 18.163 19.7366 18.7989 19.2678 19.2677C18.7989 19.7366 18.163 20 17.5 20C16.837 20 16.2011 19.7366 15.7322 19.2677C15.2634 18.7989 15 18.163 15 17.5C15 16.8369 15.2634 16.201 15.7322 15.7322C16.2011 15.2634 16.837 15 17.5 15Z" fill="black"/>
</svg>
