<svg width="24" height="24" viewBox="0 0 24 24" fill="none" xmlns="http://www.w3.org/2000/svg">
<path d="M4 6C4 4.89688 4.89688 4 6 4H11V8C11 8.55312 11.4469 9 12 9H16V13.5H8.5C7.39687 13.5 6.5 14.3969 6.5 15.5V20H6C4.89688 20 4 19.1031 4 18V6ZM16 8H12V4L16 8ZM8.92812 15.2437L10 17.0281L11.0719 15.2437C11.1875 15.05 11.4188 14.9594 11.6344 15.0188C11.85 15.0781 12 15.275 12 15.5V19.5C12 19.775 11.775 20 11.5 20C11.225 20 11 19.775 11 19.5V17.3062L10.4281 18.2594C10.3375 18.4094 10.175 18.5031 10 18.5031C9.825 18.5031 9.6625 18.4094 9.57188 18.2594L9 17.3062V19.5C9 19.775 8.775 20 8.5 20C8.225 20 8 19.775 8 19.5V15.5C8 15.275 8.15 15.0781 8.36562 15.0188C8.58125 14.9594 8.8125 15.05 8.92812 15.2437ZM13.5 15H14.5C15.4656 15 16.25 15.7844 16.25 16.75C16.25 17.7156 15.4656 18.5 14.5 18.5H14V19.5C14 19.775 13.775 20 13.5 20C13.225 20 13 19.775 13 19.5V18V15.5C13 15.225 13.225 15 13.5 15ZM14.5 17.5C14.9156 17.5 15.25 17.1656 15.25 16.75C15.25 16.3344 14.9156 16 14.5 16H14V17.5H14.5ZM17.1469 17.8531C17.0531 17.7594 17 17.6313 17 17.5V15.5C17 15.225 17.225 15 17.5 15C17.775 15 18 15.225 18 15.5V17H19V15.5C19 15.225 19.225 15 19.5 15C19.775 15 20 15.225 20 15.5V17.5V19.5C20 19.775 19.775 20 19.5 20C19.225 20 19 19.775 19 19.5V18H17.5C17.3687 18 17.2406 17.9469 17.1469 17.8531Z" fill="black"/>
</svg>
