<svg width="24" height="24" viewBox="0 0 24 24" fill="none" xmlns="http://www.w3.org/2000/svg">
<path d="M8 4C6.89688 4 6 4.89688 6 6V18C6 19.1031 6.89688 20 8 20H16C17.1031 20 18 19.1031 18 18V9H14C13.4469 9 13 8.55313 13 8V4H8ZM14 4V8H18L14 4ZM9.46875 12.0344L10.3063 14.8219L11.2937 12C11.4 11.7 11.6844 11.4969 12.0031 11.4969C12.3219 11.4969 12.6063 11.6969 12.7125 12L13.7 14.8219L14.5312 12.0344C14.65 11.6375 15.0687 11.4125 15.4656 11.5312C15.8625 11.65 16.0875 12.0687 15.9688 12.4656L14.4688 17.4656C14.375 17.7781 14.0938 17.9937 13.7688 18C13.4438 18.0063 13.15 17.8062 13.0437 17.4969L12 14.5188L10.9594 17.4969C10.8531 17.8031 10.5594 18.0063 10.2344 18C9.90938 17.9937 9.625 17.7781 9.53437 17.4656L8.03437 12.4656C7.91562 12.0687 8.14062 11.65 8.5375 11.5312C8.93437 11.4125 9.35312 11.6375 9.47187 12.0344H9.46875Z" fill="black"/>
</svg>
