<svg width="24" height="24" viewBox="0 0 24 24" fill="none" xmlns="http://www.w3.org/2000/svg">
<path d="M19.6342 4.22816C19.8655 4.41566 19.9999 4.70004 19.9999 5.00004V8.00004C19.9999 8.30004 19.8655 8.58441 19.6342 8.77191C19.403 8.95941 19.0967 9.03754 18.803 8.97817L13.803 7.97816C13.4217 7.90316 13.1249 7.61566 13.0311 7.25004H10.9999V8.33754C12.1811 8.90004 12.9999 10.1032 12.9999 11.5V16H5.99987V11.5C5.99987 10.1032 6.81862 8.90004 7.99987 8.33754V7.43754C6.86862 7.78441 5.93737 8.59066 5.42799 9.64067C5.24674 10.0125 4.79674 10.1688 4.42487 9.98754C4.05299 9.80629 3.89674 9.35629 4.07799 8.98442C4.83424 7.43129 6.27174 6.26879 7.99987 5.88754V5.00004C7.99987 4.44691 8.44674 4.00004 8.99987 4.00004H9.99987C10.553 4.00004 10.9999 4.44691 10.9999 5.00004V5.75004H13.0311C13.1249 5.38441 13.4217 5.09691 13.803 5.01879L18.803 4.01879C19.0967 3.95941 19.3999 4.03754 19.6342 4.22504V4.22816ZM12.9999 17V18C12.9999 19.1032 12.103 20 10.9999 20H7.99987C6.89674 20 5.99987 19.1032 5.99987 18V17H12.9999ZM9.49987 7.00004C9.63248 7.00004 9.75965 6.94736 9.85342 6.85359C9.94719 6.75982 9.99987 6.63265 9.99987 6.50004C9.99987 6.36743 9.94719 6.24025 9.85342 6.14649C9.75965 6.05272 9.63248 6.00004 9.49987 6.00004C9.36726 6.00004 9.24008 6.05272 9.14632 6.14649C9.05255 6.24025 8.99987 6.36743 8.99987 6.50004C8.99987 6.63265 9.05255 6.75982 9.14632 6.85359C9.24008 6.94736 9.36726 7.00004 9.49987 7.00004Z" fill="black"/>
</svg>
