<svg width="24" height="24" viewBox="0 0 24 24" fill="none" xmlns="http://www.w3.org/2000/svg">
<path d="M8 4C6.89688 4 6 4.89688 6 6V18C6 19.1031 6.89688 20 8 20H16C17.1031 20 18 19.1031 18 18V9H14C13.4469 9 13 8.55313 13 8V4H8ZM14 4V8H18L14 4ZM8 12C8 11.7348 8.10536 11.4804 8.29289 11.2929C8.48043 11.1054 8.73478 11 9 11C9.26522 11 9.51957 11.1054 9.70711 11.2929C9.89464 11.4804 10 11.7348 10 12C10 12.2652 9.89464 12.5196 9.70711 12.7071C9.51957 12.8946 9.26522 13 9 13C8.73478 13 8.48043 12.8946 8.29289 12.7071C8.10536 12.5196 8 12.2652 8 12ZM12.75 13C12.9156 13 13.0687 13.0812 13.1625 13.2156L15.9125 17.2156C16.0188 17.3687 16.0281 17.5687 15.9438 17.7312C15.8594 17.8937 15.6875 18 15.5 18H12.75H11.5H10H8.5C8.31875 18 8.15312 17.9031 8.06562 17.7469C7.97812 17.5906 7.97813 17.3969 8.07188 17.2437L9.57188 14.7437C9.6625 14.5937 9.825 14.5 10 14.5C10.175 14.5 10.3375 14.5906 10.4281 14.7437L10.8281 15.4125L12.3375 13.2188C12.4313 13.0844 12.5844 13.0031 12.75 13.0031V13Z" fill="black"/>
</svg>
