<svg width="24" height="24" viewBox="0 0 24 24" fill="none" xmlns="http://www.w3.org/2000/svg">
<path d="M17.6406 12.0156L17.6187 11.9563C16.5562 9.025 14.8125 6.39062 12.5344 4.26562L12.4313 4.17188C12.3156 4.0625 12.1594 4 12 4C11.8406 4 11.6844 4.0625 11.5687 4.17188L11.4656 4.26562C9.1875 6.39062 7.44375 9.025 6.38125 11.9563L6.35938 12.0156C6.12188 12.6656 6 13.3562 6 14.05C6 17.3344 8.7125 20 12 20C15.2875 20 18 17.3344 18 14.05C18 13.3562 17.8781 12.6687 17.6406 12.0156ZM14.8031 13.5625C14.9313 13.8531 14.9969 14.1687 14.9969 14.4844C14.9969 16.1406 13.6531 17.5 11.9969 17.5C10.3406 17.5 8.99688 16.1406 8.99688 14.4844C8.99688 14.1687 9.0625 13.85 9.19062 13.5625L9.25 13.4281C9.74375 12.3219 10.4344 11.3125 11.2906 10.4563L11.5687 10.1781C11.6813 10.0656 11.8344 10.0031 11.9938 10.0031C12.1531 10.0031 12.3062 10.0656 12.4187 10.1781L12.6969 10.4563C13.5531 11.3125 14.2469 12.3219 14.7375 13.4281L14.7969 13.5625H14.8031Z" fill="black"/>
</svg>
