<svg width="24" height="24" viewBox="0 0 24 24" fill="none" xmlns="http://www.w3.org/2000/svg">
<path d="M8 4C6.89688 4 6 4.89688 6 6V18C6 19.1031 6.89688 20 8 20H16C17.1031 20 18 19.1031 18 18V9H14C13.4469 9 13 8.55312 13 8V4H8ZM14 4V8H18L14 4ZM9.5 12H10.5C11.3281 12 12 12.6719 12 13.5V15.5C12 16.3281 11.3281 17 10.5 17H9.5C8.67188 17 8 16.3281 8 15.5V13.5C8 12.6719 8.67188 12 9.5 12ZM9 13.5V15.5C9 15.775 9.225 16 9.5 16H10.5C10.775 16 11 15.775 11 15.5V13.5C11 13.225 10.775 13 10.5 13H9.5C9.225 13 9 13.225 9 13.5ZM13.5 12H14.5C14.775 12 15 12.225 15 12.5V16H15.5C15.775 16 16 16.225 16 16.5C16 16.775 15.775 17 15.5 17H14.5H13.5C13.225 17 13 16.775 13 16.5C13 16.225 13.225 16 13.5 16H14V13H13.5C13.225 13 13 12.775 13 12.5C13 12.225 13.225 12 13.5 12Z" fill="black"/>
</svg>
