<svg width="24" height="24" viewBox="0 0 24 24" fill="none" xmlns="http://www.w3.org/2000/svg">
<path d="M5.64062 17.7688C5.34375 18.0157 4.92812 18.0719 4.575 17.9063C4.22187 17.7407 4 17.3876 4 17.0001V7.00006C4 6.61256 4.225 6.25943 4.575 6.09381C4.925 5.92818 5.34062 5.98131 5.64062 6.23131L11 10.6969V12.0001V13.3032L5.64062 17.7688ZM12 15.0001V12.0001V8.00006V7.00006C12 6.61256 12.225 6.25943 12.575 6.09381C12.925 5.92818 13.3406 5.98131 13.6406 6.23131L19.6406 11.2313C19.8688 11.4219 20 11.7032 20 12.0001C20 12.2969 19.8688 12.5782 19.6406 12.7688L13.6406 17.7688C13.3438 18.0157 12.9281 18.0719 12.575 17.9063C12.2219 17.7407 12 17.3876 12 17.0001V15.0001Z" fill="black"/>
</svg>
