<svg width="24" height="24" viewBox="0 0 24 24" fill="none" xmlns="http://www.w3.org/2000/svg">
<path d="M4 6C4 4.89688 4.89688 4 6 4H11V8C11 8.55313 11.4469 9 12 9H16V13.5H8.5C7.39688 13.5 6.5 14.3969 6.5 15.5V20H6C4.89688 20 4 19.1031 4 18V6ZM16 8H12V4L16 8ZM8.92812 15.2437L10 17.0281L11.0719 15.2437C11.1875 15.05 11.4188 14.9594 11.6344 15.0188C11.85 15.0781 12 15.275 12 15.5V19.5C12 19.775 11.775 20 11.5 20C11.225 20 11 19.775 11 19.5V17.3062L10.4281 18.2594C10.3375 18.4094 10.175 18.5031 10 18.5031C9.825 18.5031 9.6625 18.4094 9.57188 18.2594L9 17.3062V19.5C9 19.775 8.775 20 8.5 20C8.225 20 8 19.775 8 19.5V15.5C8 15.275 8.15 15.0781 8.36562 15.0188C8.58125 14.9594 8.8125 15.05 8.92812 15.2437ZM18 15.5V16.4875C18 17.2063 18.1719 17.9125 18.5 18.55C18.8281 17.9156 19 17.2094 19 16.4875V15.5C19 15.225 19.225 15 19.5 15C19.775 15 20 15.225 20 15.5V16.4875C20 17.5719 19.6781 18.6344 19.075 19.5375L18.9156 19.7781C18.8219 19.9187 18.6656 20 18.5 20C18.3344 20 18.1781 19.9156 18.0844 19.7781L17.925 19.5375C17.3219 18.6344 17 17.5719 17 16.4875V15.5C17 15.225 17.225 15 17.5 15C17.775 15 18 15.225 18 15.5ZM13 16.25C13 15.5594 13.5594 15 14.25 15H14.75C15.4406 15 16 15.5594 16 16.25V18.75C16 19.4406 15.4406 20 14.75 20H14.25C13.5594 20 13 19.4406 13 18.75V16.25ZM14.25 16C14.1125 16 14 16.1125 14 16.25V18.75C14 18.8875 14.1125 19 14.25 19H14.75C14.8875 19 15 18.8875 15 18.75V16.25C15 16.1125 14.8875 16 14.75 16H14.25Z" fill="black"/>
</svg>
