<svg width="24" height="24" viewBox="0 0 24 24" fill="none" xmlns="http://www.w3.org/2000/svg">
<path d="M13.9688 5.24354L13.2188 8.24354C13.1281 8.60292 12.8562 8.86854 12.525 8.96229L12.2656 9.99979H11.2344L11.5531 8.71854C11.3062 8.47792 11.1875 8.11542 11.2781 7.75604L12.0281 4.75604C12.1625 4.22167 12.7062 3.89667 13.2437 4.03104C13.7812 4.16542 14.1063 4.70917 13.9719 5.24354H13.9688ZM15.9344 8.99979L15.2688 9.99979H14.0656L15.1031 8.44354C14.95 8.13417 14.9625 7.75292 15.1687 7.44667L17.1687 4.44667C17.475 3.98417 18.0937 3.86229 18.5562 4.16854C19.0187 4.47479 19.1406 5.09667 18.8344 5.55604L16.8344 8.55604C16.6281 8.86542 16.2812 9.02167 15.9375 8.99979H15.9344ZM5 10.9998H6V11.4998V13.4998C6 13.7748 6.225 13.9998 6.5 13.9998C6.775 13.9998 7 13.7748 7 13.4998V12.4998C7 12.2248 7.225 11.9998 7.5 11.9998C7.775 11.9998 8 12.2248 8 12.4998C8 12.7748 8.225 12.9998 8.5 12.9998C8.775 12.9998 9 12.7748 9 12.4998V11.4998V10.9998H16H18H19C19.5531 10.9998 20 11.4467 20 11.9998C20 12.5529 19.5531 12.9998 19 12.9998H18V13.9998C18 15.6342 17.2156 17.0873 16 17.9998V18.9998C16 19.5529 15.5531 19.9998 15 19.9998C14.4469 19.9998 14 19.5529 14 18.9998V18.8998C13.6781 18.9654 13.3438 18.9998 13 18.9998H9C8.65625 18.9998 8.32188 18.9654 8 18.8998V18.9998C8 19.5529 7.55313 19.9998 7 19.9998C6.44687 19.9998 6 19.5529 6 18.9998V17.9998C4.78437 17.0873 4 15.6342 4 13.9998V11.9998C4 11.4467 4.44687 10.9998 5 10.9998Z" fill="black"/>
</svg>
