<svg width="24" height="24" viewBox="0 0 24 24" fill="none" xmlns="http://www.w3.org/2000/svg">
<path d="M11.7344 4.79372C11.3125 4.89685 10.9094 5.01872 10.5282 5.15935C8.46565 5.92497 7.0219 7.23747 6.06253 8.79997C5.49065 9.73122 5.0969 10.7468 4.83753 11.7812L12.2657 19.2062C12.6875 19.1031 13.0907 18.9812 13.4719 18.8406C15.5344 18.075 16.9782 16.7625 17.9375 15.2C18.5094 14.2687 18.9032 13.2531 19.1594 12.2218L11.7344 4.79372ZM19.475 10.4156C19.6657 8.6406 19.5188 6.90935 19.2344 5.5281C19.15 5.12497 18.8282 4.81247 18.4188 4.74372C16.6 4.4406 14.9844 4.36872 13.5563 4.49685L19.475 10.4156ZM10.4407 19.5L4.52503 13.5843C4.3344 15.3593 4.48128 17.0906 4.76565 18.4718C4.85003 18.875 5.1719 19.1875 5.58128 19.2562C7.40003 19.5594 9.01565 19.6312 10.4438 19.5031L10.4407 19.5ZM12.1469 9.14685C12.3407 8.9531 12.6594 8.9531 12.8532 9.14685L14.8532 11.1468C15.0469 11.3406 15.0469 11.6593 14.8532 11.8531C14.6594 12.0468 14.3407 12.0468 14.1469 11.8531L12.1469 9.8531C11.9532 9.65935 11.9532 9.3406 12.1469 9.14685ZM10.6469 10.6468C10.8407 10.4531 11.1594 10.4531 11.3532 10.6468L13.3532 12.6468C13.5469 12.8406 13.5469 13.1593 13.3532 13.3531C13.1594 13.5468 12.8407 13.5468 12.6469 13.3531L10.6469 11.3531C10.4532 11.1593 10.4532 10.8406 10.6469 10.6468ZM9.1469 12.1468C9.34065 11.9531 9.6594 11.9531 9.85315 12.1468L11.8532 14.1468C12.0469 14.3406 12.0469 14.6593 11.8532 14.8531C11.6594 15.0468 11.3407 15.0468 11.1469 14.8531L9.1469 12.8531C8.95315 12.6593 8.95315 12.3406 9.1469 12.1468Z" fill="black"/>
</svg>
