<svg width="24" height="24" viewBox="0 0 24 24" fill="none" xmlns="http://www.w3.org/2000/svg">
<path d="M7.99999 6C7.99999 4.89688 8.89686 4 9.99999 4H15V8C15 8.55313 15.4469 9 16 9H20V18C20 19.1031 19.1031 20 18 20H10.9156C10.9719 19.8406 11 19.6719 11 19.5V17C11.0406 16.9844 11.0781 16.9688 11.1187 16.9531C11.3312 16.8594 11.5656 16.7094 11.7625 16.4688C11.9625 16.2219 12.0781 15.9312 12.1187 15.6219C12.1344 15.5094 12.1437 15.4437 12.1531 15.4C12.1875 15.3719 12.2406 15.3281 12.3281 15.2594C12.95 14.7781 13.175 13.9406 12.875 13.2125C12.8312 13.1094 12.8094 13.0438 12.7937 13.0031C12.8094 12.9594 12.8312 12.8969 12.875 12.7937C13.1719 12.0656 12.95 11.2281 12.3281 10.7469C12.2406 10.6781 12.1875 10.6344 12.1531 10.6062C12.1437 10.5625 12.1344 10.4938 12.1187 10.3844C12.0125 9.60625 11.4 8.99062 10.6219 8.8875C10.5094 8.87187 10.4437 8.8625 10.4 8.85313C10.3719 8.81875 10.3281 8.76562 10.2594 8.67812C9.77811 8.05625 8.94061 7.83125 8.21249 8.13125C8.13124 8.16562 8.05311 8.20312 8.00624 8.225L8.00311 8.22813V6H7.99999ZM20 8H16V4L20 8ZM7.41249 9.05L7.90624 9.25C7.96561 9.275 8.03436 9.275 8.09686 9.25L8.59061 9.04688C8.90311 8.91875 9.26249 9.01562 9.46874 9.28125L9.79686 9.70312C9.83749 9.75625 9.89686 9.7875 9.95936 9.79688L10.4875 9.86875C10.8219 9.91563 11.0844 10.1781 11.1281 10.5094L11.2 11.0375C11.2094 11.1031 11.2437 11.1625 11.2937 11.2L11.7156 11.5281C11.9812 11.7344 12.0781 12.0938 11.95 12.4062L11.75 12.9062C11.725 12.9656 11.725 13.0344 11.75 13.0969L11.9531 13.5906C12.0812 13.9031 11.9844 14.2625 11.7187 14.4688L11.2969 14.7969C11.2437 14.8375 11.2125 14.8969 11.2031 14.9594L11.1312 15.4875C11.0844 15.8219 10.8219 16.0844 10.4906 16.1313L9.99999 16.1938V19.5C9.99999 19.6844 9.89999 19.8531 9.73436 19.9406C9.56874 20.0281 9.37499 20.0187 9.22186 19.9156L7.99999 19.1L6.77811 19.9156C6.62499 20.0187 6.42811 20.0281 6.26561 19.9406C6.10311 19.8531 5.99999 19.6844 5.99999 19.5V16.1938L5.51561 16.1281C5.18124 16.0813 4.91874 15.8187 4.87499 15.4844L4.80311 14.9563C4.79374 14.8906 4.75936 14.8312 4.70936 14.7937L4.28436 14.4656C4.01874 14.2594 3.92186 13.9 4.04999 13.5875L4.24999 13.0938C4.27499 13.0344 4.27499 12.9656 4.24999 12.9031L4.04999 12.4125C3.92186 12.1 4.01874 11.7406 4.28436 11.5344L4.70624 11.2063C4.75936 11.1656 4.79061 11.1062 4.79999 11.0437L4.87186 10.5156C4.91874 10.1813 5.18124 9.91875 5.51249 9.875L6.04061 9.80312C6.10624 9.79375 6.16561 9.75937 6.20311 9.70937L6.53124 9.2875C6.73749 9.02187 7.09686 8.925 7.40936 9.05312L7.41249 9.05ZM9.99999 13C9.99999 12.4696 9.78928 11.9609 9.4142 11.5858C9.03913 11.2107 8.53042 11 7.99999 11C7.46956 11 6.96085 11.2107 6.58578 11.5858C6.2107 11.9609 5.99999 12.4696 5.99999 13C5.99999 13.5304 6.2107 14.0391 6.58578 14.4142C6.96085 14.7893 7.46956 15 7.99999 15C8.53042 15 9.03913 14.7893 9.4142 14.4142C9.78928 14.0391 9.99999 13.5304 9.99999 13Z" fill="black"/>
</svg>
