<svg width="24" height="24" viewBox="0 0 24 24" fill="none" xmlns="http://www.w3.org/2000/svg">
<path d="M4 12C4 15.3937 6.11563 18.2969 9.09688 19.4563C8.72188 18.9 8.5 18.225 8.5 17.5V17.1719C7.8 16.5437 7.28125 15.7313 7.025 14.8156C6.90625 14.3875 7.25625 14 7.7 14H16.3C16.7438 14 17.0969 14.3875 16.975 14.8156C16.7188 15.7344 16.1969 16.5469 15.5 17.1719V17.5C15.5 18.225 15.2781 18.9 14.9031 19.4563C17.8844 18.2969 20 15.3937 20 12C20 7.58125 16.4187 4 12 4C7.58125 4 4 7.58125 4 12ZM10 7.25V7.55625C10.1437 7.58125 10.2719 7.6125 10.3781 7.64062C10.6438 7.7125 10.8031 7.98438 10.7312 8.25313C10.6594 8.52188 10.3875 8.67812 10.1188 8.60625C9.85938 8.5375 9.53125 8.48125 9.275 8.50625C9.15 8.51875 9.08437 8.55 9.05312 8.57188C8.97187 8.63125 8.97187 8.74687 9.04688 8.79688C9.2625 8.94688 9.51563 9.0125 9.775 9.08125C10.0344 9.15 10.2969 9.21875 10.5219 9.375C10.6719 9.47812 10.8188 9.625 10.9094 9.83125C11.0031 10.0375 11.0188 10.2656 10.9781 10.4938C10.9156 10.8531 10.7313 11.1312 10.4469 11.3031C10.3031 11.3906 10.15 11.4406 9.99687 11.4656V11.75C9.99687 12.025 9.77187 12.25 9.49687 12.25C9.22187 12.25 8.99687 12.025 8.99687 11.75V11.4125C8.73437 11.3531 8.49688 11.275 8.3375 11.225C8.075 11.1375 7.93437 10.8531 8.02187 10.5938C8.10937 10.3344 8.39375 10.1906 8.65312 10.2781C8.95 10.375 9.3375 10.4937 9.65312 10.5C9.80937 10.5031 9.89062 10.475 9.92812 10.4531C10.0156 10.4 10.0281 10.2594 9.94688 10.2031C9.8375 10.1281 9.65625 10.0688 9.35938 9.98438L9.325 9.975C9.07812 9.90625 8.7375 9.80625 8.475 9.625C8.325 9.52188 8.17813 9.375 8.0875 9.16875C7.99375 8.9625 7.97813 8.73437 8.01875 8.50625C8.075 8.1875 8.23438 7.9375 8.46875 7.76875C8.63438 7.64687 8.82188 7.58125 9 7.54688V7.25C9 6.975 9.225 6.75 9.5 6.75C9.775 6.75 10 6.975 10 7.25ZM14.5 6.75C14.775 6.75 15 6.975 15 7.25V7.55625C15.1437 7.58125 15.2719 7.6125 15.3781 7.64062C15.6438 7.7125 15.8031 7.98438 15.7312 8.25313C15.6594 8.52188 15.3875 8.67812 15.1187 8.60625C14.8594 8.5375 14.5312 8.48125 14.275 8.50625C14.15 8.51875 14.0844 8.55 14.0531 8.57188C13.9719 8.63125 13.9719 8.74687 14.0469 8.79688C14.2625 8.94688 14.5156 9.0125 14.775 9.08125C15.0344 9.15 15.2969 9.21875 15.5219 9.375C15.6719 9.47812 15.8188 9.625 15.9094 9.83125C16.0031 10.0375 16.0187 10.2656 15.9781 10.4938C15.9156 10.8531 15.7312 11.1312 15.4469 11.3031C15.3031 11.3906 15.15 11.4406 14.9969 11.4656V11.75C14.9969 12.025 14.7719 12.25 14.4969 12.25C14.2219 12.25 13.9969 12.025 13.9969 11.75V11.4125C13.7344 11.3531 13.4969 11.275 13.3375 11.225C13.075 11.1375 12.9344 10.8531 13.0219 10.5938C13.1094 10.3344 13.3937 10.1906 13.6531 10.2781C13.95 10.375 14.3375 10.4937 14.6531 10.5C14.8094 10.5031 14.8906 10.475 14.9281 10.4531C15.0156 10.4 15.0281 10.2594 14.9469 10.2031C14.8375 10.1281 14.6562 10.0688 14.3594 9.98438L14.325 9.975C14.0781 9.90625 13.7375 9.80625 13.475 9.625C13.325 9.52188 13.1781 9.375 13.0875 9.16875C12.9937 8.9625 12.9781 8.73437 13.0188 8.50625C13.075 8.1875 13.2344 7.9375 13.4688 7.76875C13.6344 7.64687 13.8219 7.58125 14 7.54688V7.25C14 6.975 14.225 6.75 14.5 6.75ZM14.5 15H9.5V17.5C9.5 18.8813 10.6187 20 12 20C13.3813 20 14.5 18.8813 14.5 17.5V15ZM12 15.5C12.1844 15.5 12.3344 15.6531 12.3344 15.8406V16.05C12.4281 16.0688 12.5156 16.0875 12.5875 16.1062C12.7656 16.1562 12.8719 16.3406 12.825 16.5219C12.7781 16.7031 12.5937 16.8125 12.4187 16.7625C12.2469 16.7156 12.025 16.675 11.8562 16.6938C11.7719 16.7031 11.7281 16.7219 11.7094 16.7375C11.6562 16.7781 11.6562 16.8562 11.7031 16.8906C11.8469 16.9937 12.0156 17.0375 12.1875 17.0844C12.3625 17.1313 12.5375 17.1781 12.6844 17.2844C12.7844 17.3563 12.8813 17.4562 12.9438 17.5938C13.0063 17.7344 13.0156 17.8875 12.9906 18.0437C12.95 18.2875 12.825 18.4781 12.6375 18.5969C12.5406 18.6563 12.4375 18.6906 12.3375 18.7094V18.9C12.3375 19.0875 12.1875 19.2406 12.0031 19.2406C11.8188 19.2406 11.6687 19.0875 11.6687 18.9V18.6719C11.4937 18.6313 11.3344 18.5781 11.2312 18.5437C11.0562 18.4844 10.9625 18.2906 11.0188 18.1125C11.075 17.9344 11.2656 17.8375 11.4406 17.8969C11.6375 17.9625 11.8969 18.0437 12.1062 18.0469C12.2094 18.05 12.2656 18.0312 12.2906 18.0156C12.3469 17.9812 12.3563 17.8813 12.3031 17.8438C12.2313 17.7906 12.1094 17.7531 11.9094 17.6938L11.8844 17.6875C11.7219 17.6406 11.4906 17.5719 11.3187 17.45C11.2187 17.3781 11.1219 17.2781 11.0594 17.1406C10.9969 17 10.9875 16.8469 11.0125 16.6906C11.05 16.475 11.1562 16.3031 11.3125 16.1875C11.425 16.1063 11.5469 16.0594 11.6656 16.0344V15.8344C11.6656 15.6469 11.8156 15.4937 12 15.4937V15.5Z" fill="black"/>
</svg>
