<svg width="24" height="24" viewBox="0 0 24 24" fill="none" xmlns="http://www.w3.org/2000/svg">
<path d="M20 12C20 16.4187 16.4187 20 12 20C7.58125 20 4 16.4187 4 12C4 7.58125 7.58125 4 12 4C15.5 4 18.475 6.25 19.5625 9.38125C19.125 9.25312 18.6312 9.35937 18.2812 9.7L13.5688 14.2625C13.1031 14.1 12.5813 14 12 14C10.2781 14 9.06875 14.8719 8.37187 15.6719C8.19062 15.8812 8.2125 16.1969 8.42188 16.3781C8.63125 16.5594 8.94688 16.5375 9.12813 16.3281C9.6875 15.6812 10.6437 15 12 15C13.3563 15 14.3125 15.6812 14.8719 16.3281C15.0531 16.5375 15.3688 16.5594 15.5781 16.3781C15.7406 16.2375 15.7906 16.0156 15.7188 15.825L16.0125 15.5437L15.2375 14.7688C15.0906 14.6219 15.0906 14.3844 15.2375 14.2375C15.3844 14.0906 15.6219 14.0906 15.7688 14.2375L16.5531 15.0219L17.0312 14.5594L16.2375 13.7656C16.0906 13.6188 16.0906 13.3812 16.2375 13.2344C16.3844 13.0875 16.6219 13.0875 16.7688 13.2344L17.5719 14.0375L18.05 13.575L17.2375 12.7625C17.0906 12.6156 17.0906 12.3781 17.2375 12.2312C17.3844 12.0844 17.6219 12.0844 17.7688 12.2312L18.5906 13.0531L19.0656 12.5938L18.2344 11.7625C18.0875 11.6156 18.0875 11.3781 18.2344 11.2312C18.3812 11.0844 18.6188 11.0844 18.7656 11.2312L19.6063 12.0719L19.9969 11.6969C20 11.7969 20.0031 11.8969 20.0031 11.9969L20 12ZM10.5125 10.5C10.5125 10.2348 10.4071 9.98043 10.2196 9.79289C10.0321 9.60536 9.77772 9.5 9.5125 9.5C9.24728 9.5 8.99293 9.60536 8.80539 9.79289C8.61786 9.98043 8.5125 10.2348 8.5125 10.5C8.5125 10.7652 8.61786 11.0196 8.80539 11.2071C8.99293 11.3946 9.24728 11.5 9.5125 11.5C9.77772 11.5 10.0321 11.3946 10.2196 11.2071C10.4071 11.0196 10.5125 10.7652 10.5125 10.5ZM14.5125 11.5C14.7777 11.5 15.0321 11.3946 15.2196 11.2071C15.4071 11.0196 15.5125 10.7652 15.5125 10.5C15.5125 10.2348 15.4071 9.98043 15.2196 9.79289C15.0321 9.60536 14.7777 9.5 14.5125 9.5C14.2473 9.5 13.9929 9.60536 13.8054 9.79289C13.6179 9.98043 13.5125 10.2348 13.5125 10.5C13.5125 10.7652 13.6179 11.0196 13.8054 11.2071C13.9929 11.3946 14.2473 11.5 14.5125 11.5Z" fill="black"/>
</svg>
