<svg width="24" height="24" viewBox="0 0 24 24" fill="none" xmlns="http://www.w3.org/2000/svg">
<path d="M8 4C6.89688 4 6 4.89688 6 6V18C6 19.1031 6.89688 20 8 20H16C17.1031 20 18 19.1031 18 18V9H14C13.4469 9 13 8.55313 13 8V4H8ZM14 4V8H18L14 4ZM10.25 11.5H12.375C13.6875 11.5 14.75 12.5625 14.75 13.875C14.75 15.1875 13.6875 16.25 12.375 16.25H11V17.25C11 17.6656 10.6656 18 10.25 18C9.83437 18 9.5 17.6656 9.5 17.25V15.5V12.25C9.5 11.8344 9.83437 11.5 10.25 11.5ZM12.375 14.75C12.8594 14.75 13.25 14.3594 13.25 13.875C13.25 13.3906 12.8594 13 12.375 13H11V14.75H12.375Z" fill="black"/>
</svg>
