<svg width="24" height="24" viewBox="0 0 24 24" fill="none" xmlns="http://www.w3.org/2000/svg">
<path d="M18.6157 16.5002C17.175 18.6127 14.75 20.0002 12 20.0002C7.58128 20.0002 4.00003 16.4189 4.00003 12.0002C4.00003 7.58142 7.58128 4.00016 12 4.00016C15.5438 4.00016 18.5532 6.30641 19.6032 9.50016H19.5C18.1188 9.50016 17 10.6189 17 12.0002C17 12.5627 17.1875 13.0814 17.5 13.5002H15C14.9688 13.5002 14.9375 13.5002 14.9063 13.5033C14.8688 13.4314 14.8219 13.3658 14.7719 13.3033C14.6375 13.1408 14.4563 13.0002 14.25 12.8845C13.8344 12.6533 13.2938 12.5002 12.75 12.5002C12.6375 12.5002 12.5375 12.5783 12.5094 12.6877C12.4813 12.797 12.5282 12.9127 12.6282 12.9689L12.6344 12.972C12.6407 12.9752 12.65 12.9814 12.6625 12.9877C12.6875 13.0033 12.725 13.0252 12.7688 13.0533C12.8563 13.1127 12.9719 13.1939 13.0875 13.2908C13.2032 13.3877 13.3125 13.497 13.3875 13.6064C13.4657 13.7158 13.4969 13.8064 13.4969 13.8752C13.4969 13.9439 13.4657 14.0314 13.3875 14.1439C13.3094 14.2533 13.2032 14.3595 13.0875 14.4595C12.9719 14.5564 12.8563 14.6377 12.7688 14.697C12.725 14.7252 12.6875 14.747 12.6625 14.7627C12.65 14.7689 12.6407 14.7752 12.6344 14.7783L12.6282 14.7814C12.55 14.8252 12.5 14.9095 12.5 15.0002C12.5 15.0908 12.55 15.1752 12.6282 15.2189L12.6344 15.222C12.6407 15.2252 12.65 15.2314 12.6625 15.2377C12.6875 15.2533 12.725 15.2752 12.7688 15.3033C12.8563 15.3627 12.9719 15.4439 13.0875 15.5408C13.2032 15.6377 13.3125 15.747 13.3875 15.8564C13.4657 15.9658 13.4969 16.0564 13.4969 16.1252C13.4969 16.1939 13.4657 16.2814 13.3875 16.3939C13.3094 16.5033 13.2032 16.6095 13.0875 16.7095C12.9719 16.8064 12.8563 16.8877 12.7688 16.947C12.725 16.9752 12.6875 16.997 12.6625 17.0127C12.65 17.0189 12.6407 17.0252 12.6344 17.0283L12.6282 17.0314C12.5282 17.0877 12.4813 17.2033 12.5094 17.3127C12.5375 17.422 12.6375 17.5002 12.75 17.5002C13.2938 17.5002 13.8344 17.347 14.2469 17.1158C14.4532 17.0002 14.6375 16.8595 14.7688 16.697C14.8188 16.6345 14.8657 16.5689 14.9032 16.497C14.9344 16.5002 14.9657 16.5002 14.9969 16.5002H18.6157ZM10.6 11.3002C10.7657 11.522 11.0782 11.5658 11.3 11.4002C11.5219 11.2345 11.5657 10.922 11.4 10.7002C10.45 9.43454 8.55003 9.43454 7.60003 10.7002C7.43441 10.922 7.47816 11.2345 7.70003 11.4002C7.92191 11.5658 8.23441 11.522 8.40003 11.3002C8.95003 10.5658 10.05 10.5658 10.6 11.3002ZM13.4 11.3002C13.95 10.5658 15.05 10.5658 15.6 11.3002C15.7657 11.522 16.0782 11.5658 16.3 11.4002C16.5219 11.2345 16.5657 10.922 16.4 10.7002C15.45 9.43454 13.55 9.43454 12.6 10.7002C12.4344 10.922 12.4782 11.2345 12.7 11.4002C12.9219 11.5658 13.2344 11.522 13.4 11.3002ZM18 12.0002C18 11.172 18.6719 10.5002 19.5 10.5002H20.5C21.3282 10.5002 22 11.172 22 12.0002V14.0002C22 14.8283 21.3282 15.5002 20.5 15.5002H14.5C14.225 15.5002 14 15.2752 14 15.0002C14 14.7252 14.225 14.5002 14.5 14.5002H20.5C20.775 14.5002 21 14.2752 21 14.0002V12.0002C21 11.7252 20.775 11.5002 20.5 11.5002H19.5C19.225 11.5002 19 11.7252 19 12.0002C19 12.2752 19.225 12.5002 19.5 12.5002H20C20.275 12.5002 20.5 12.7252 20.5 13.0002C20.5 13.2752 20.275 13.5002 20 13.5002H19.5C18.6719 13.5002 18 12.8283 18 12.0002ZM3.60316 8.75641L2.97816 7.13141C3.45628 6.24391 4.06253 5.43766 4.77503 4.73141L6.12503 5.18141C5.01566 6.14079 4.14066 7.36579 3.60316 8.75641ZM3.72191 4.38141C3.27816 4.86266 2.87503 5.38766 2.51878 5.94079L2.03441 4.67829C1.96253 4.50016 2.00628 4.29391 2.13753 4.15329C2.26878 4.01266 2.47503 3.96579 2.65941 4.02516L3.72191 4.38141Z" fill="black"/>
</svg>
