<svg width="24" height="24" viewBox="0 0 24 24" fill="none" xmlns="http://www.w3.org/2000/svg">
<path d="M12 20C14.1217 20 16.1566 19.1571 17.6569 17.6569C19.1571 16.1566 20 14.1217 20 12C20 9.87827 19.1571 7.84344 17.6569 6.34315C16.1566 4.84285 14.1217 4 12 4C9.87827 4 7.84344 4.84285 6.34315 6.34315C4.84285 7.84344 4 9.87827 4 12C4 14.1217 4.84285 16.1566 6.34315 17.6569C7.84344 19.1571 9.87827 20 12 20ZM16.1281 13.775C16.5125 13.6562 16.8875 13.9906 16.7312 14.3594C15.95 16.2063 14.1312 17.5 12.0094 17.5C9.8875 17.5 8.06562 16.2063 7.2875 14.3594C7.13125 13.9906 7.50625 13.6562 7.89062 13.775C9.13125 14.1562 10.5312 14.3687 12.0094 14.3687C13.4875 14.3687 14.8875 14.1562 16.1281 13.775ZM10.2281 8.03438C10.7844 8.18438 11.1156 8.75625 10.9656 9.30937L10.4219 11.3406C10.35 11.6062 10.075 11.7656 9.80937 11.6937L7.775 11.15C7.21875 11 6.8875 10.4281 7.0375 9.875C7.1875 9.32188 7.75938 8.9875 8.3125 9.1375L8.81563 9.27187L8.95 8.76875C9.1 8.2125 9.67188 7.88125 10.225 8.03125L10.2281 8.03438ZM15.05 8.77187L15.1844 9.275L15.6875 9.14062C16.2437 8.99062 16.8156 9.32188 16.9625 9.87813C17.1094 10.4344 16.7812 11.0062 16.225 11.1531L14.1906 11.6969C13.925 11.7688 13.65 11.6094 13.5781 11.3438L13.0344 9.3125C12.8844 8.75625 13.2156 8.18437 13.7719 8.0375C14.3281 7.89062 14.9 8.21875 15.05 8.775V8.77187Z" fill="black"/>
</svg>
