<svg width="24" height="24" viewBox="0 0 24 24" fill="none" xmlns="http://www.w3.org/2000/svg">
<path d="M12 20C16.4187 20 20 16.4187 20 12C20 11.4812 19.95 10.975 19.8562 10.4844L19.9375 9.99375C20.1844 8.50625 19.2969 7.125 17.9594 6.6625C16.4938 5.02812 14.3688 4 12 4C9.63125 4 7.50625 5.02812 6.04063 6.6625C4.7 7.125 3.8125 8.50625 4.0625 9.99375L4.14375 10.4844C4.05 10.975 4 11.4812 4 12C4 16.4187 7.58125 20 12 20ZM9.72813 12.5H7.27187C6.5375 12.5 5.9125 11.9687 5.79375 11.2469L5.54375 9.74687C5.3875 8.83125 6.09375 8 7.02187 8H9.98125C10.4312 8 10.8281 8.19375 11.1 8.5H12.9062C13.1781 8.19375 13.575 8 14.025 8H16.9844C17.9125 8 18.6156 8.83125 18.4625 9.74687L18.2125 11.2469C18.0875 11.9687 17.4625 12.5 16.7281 12.5H14.2719C13.5375 12.5 12.9125 11.9687 12.7937 11.2469L12.5437 9.74687C12.5312 9.6625 12.5219 9.58125 12.5219 9.5H11.4781C11.4781 9.58125 11.4719 9.6625 11.4563 9.74687L11.2063 11.2469C11.0875 11.9687 10.4625 12.5 9.72813 12.5ZM9.12813 14.6719C9.6875 15.3188 10.6437 16 12 16C13.3563 16 14.3125 15.3188 14.8719 14.6719C15.0531 14.4625 15.3688 14.4406 15.5781 14.6219C15.7875 14.8031 15.8094 15.1188 15.6281 15.3281C14.9313 16.1281 13.7219 17 12 17C10.2781 17 9.06875 16.1281 8.37187 15.3281C8.19062 15.1188 8.2125 14.8031 8.42188 14.6219C8.63125 14.4406 8.94688 14.4625 9.12813 14.6719Z" fill="black"/>
</svg>
