<svg width="24" height="24" viewBox="0 0 24 24" fill="none" xmlns="http://www.w3.org/2000/svg">
<path d="M3.21249 4.15937C2.88749 3.90312 2.41562 3.96249 2.15937 4.28749C1.90312 4.61249 1.96249 5.08437 2.28749 5.34062L20.7875 19.8406C21.1125 20.0969 21.5844 20.0375 21.8406 19.7125C22.0969 19.3875 22.0375 18.9156 21.7125 18.6594L18 15.75V8.99999H14C13.4469 8.99999 13 8.55312 13 7.99999V3.99999H7.99999C6.89687 3.99999 5.99999 4.89687 5.99999 5.99999V6.34374L3.21249 4.15937ZM17.5562 19.2562L5.99999 10.15V18C5.99999 19.1031 6.89687 20 7.99999 20H16C16.6281 20 17.1906 19.7094 17.5562 19.2562ZM18 7.99999L14 3.99999V7.99999H18Z" fill="black"/>
</svg>
