<svg width="24" height="24" viewBox="0 0 24 24" fill="none" xmlns="http://www.w3.org/2000/svg">
<path d="M3 6C3 4.89688 3.89688 4 5 4H10V8C10 8.55312 10.4469 9 11 9H15V10.05C14.3813 10.6813 14 11.5469 14 12.5V13.2688C13.4031 13.6156 13 14.2594 13 15V19C13 19.3562 13.0938 19.6938 13.2594 19.9844C13.175 19.9937 13.0875 20 13 20H5C3.89688 20 3 19.1031 3 18V6ZM15 8H11V4L15 8ZM17.5 11.5C16.9469 11.5 16.5 11.9469 16.5 12.5V14H18.5V12.5C18.5 11.9469 18.0531 11.5 17.5 11.5ZM15 12.5C15 11.1188 16.1187 10 17.5 10C18.8813 10 20 11.1188 20 12.5V14C20.5531 14 21 14.4469 21 15V19C21 19.5531 20.5531 20 20 20H15C14.4469 20 14 19.5531 14 19V15C14 14.4469 14.4469 14 15 14V12.5Z" fill="black"/>
</svg>
