<svg width="24" height="24" viewBox="0 0 24 24" fill="none" xmlns="http://www.w3.org/2000/svg">
<path d="M19.9344 13.0156C19.9782 12.6813 20 12.3438 20 12C20 7.58125 16.4188 4 12 4C7.58128 4 4.00003 7.58125 4.00003 12C4.00003 12.3438 4.02191 12.6844 4.06566 13.0188C4.70941 12.9406 5.36878 13.1281 5.87191 13.5469C7.66878 15.0469 8.61566 17.2344 8.93441 19.3906C9.87816 19.7844 10.9125 20 12 20C13.0875 20 14.125 19.7844 15.0688 19.3906C15.3875 17.2344 16.3313 15.0469 18.1313 13.5469C18.6344 13.1281 19.2938 12.9406 19.9375 13.0156H19.9344ZM12 14C12.8282 14 13.5 14.6719 13.5 15.5V16.5C13.5 17.3281 12.8282 18 12 18C11.1719 18 10.5 17.3281 10.5 16.5V15.5C10.5 14.6719 11.1719 14 12 14ZM10.5438 11.5938C9.84066 12.7469 8.58128 13.3031 7.72816 12.8375C6.87503 12.3719 6.75629 11.0594 7.45628 9.90938C8.15628 8.75938 9.41879 8.2 10.2719 8.66563C11.125 9.13125 11.2438 10.4438 10.5438 11.5938ZM16.2719 12.8375C15.4188 13.3031 14.1594 12.7469 13.4563 11.5938C12.7532 10.4406 12.875 9.13125 13.7282 8.66563C14.5813 8.2 15.8407 8.75625 16.5438 9.90938C17.2469 11.0625 17.125 12.3719 16.2719 12.8375ZM5.23128 14.3156C4.78441 13.9438 4.12503 13.8875 3.61253 14.2188C2.98753 14.625 2.81253 15.4531 3.22503 16.0719C4.05003 17.3219 4.58753 18.425 4.57503 20H8.00003C7.78128 17.8625 6.91253 15.7188 5.22816 14.3156H5.23128ZM20.3907 14.2188C19.8782 13.8875 19.2157 13.9438 18.7719 14.3156C17.0875 15.7188 16.2188 17.8625 16 20H19.4313C19.4188 18.4219 19.9532 17.3219 20.7813 16.0719C21.1907 15.4531 21.0188 14.625 20.3938 14.2188H20.3907Z" fill="black"/>
</svg>
