<svg width="24" height="24" viewBox="0 0 24 24" fill="none" xmlns="http://www.w3.org/2000/svg">
<path d="M11.7249 4.05313C11.5686 3.975 11.3874 3.98438 11.2374 4.075C11.0874 4.16563 10.9999 4.32813 10.9999 4.5V10.4594V12.4344C11.2874 12.4781 11.6186 12.5031 11.9999 12.5031C12.3811 12.5031 12.7124 12.4781 12.9999 12.4344V4.99375C12.9968 4.80625 12.8905 4.6375 12.7249 4.55313L11.7249 4.05313ZM9.99988 4.45938L9.99363 4.41875C9.96863 4.2625 9.86863 4.12813 9.728 4.05625C9.58738 3.98438 9.41863 3.98438 9.278 4.05313L8.278 4.55313C8.08113 4.65 7.97175 4.86563 8.00925 5.08125L9.00925 11.0813C9.02488 11.1188 9.03738 11.1531 9.04675 11.1875C9.10925 11.3844 9.25613 11.6844 9.63113 11.9469C9.73113 12.0156 9.853 12.0875 9.99988 12.1531V4.45938ZM7.25925 6.675L6.62175 6.51563C6.45613 6.475 6.28425 6.51875 6.15925 6.63438C6.03425 6.75 5.978 6.91875 6.00613 7.0875L6.52175 10.0063C6.57175 10.0031 6.61863 10 6.66863 10H7.49988C7.61238 10 7.71863 10.0125 7.81863 10.0313L7.25925 6.675ZM17.9936 7.0875C18.0218 6.92188 17.9655 6.75 17.8436 6.63438C17.7218 6.51875 17.5468 6.475 17.3811 6.51563L16.8186 6.65625L16.2249 10.025C16.3124 10.0094 16.403 10 16.4999 10H17.3311C17.3811 10 17.4311 10.0031 17.478 10.0063L17.9936 7.0875ZM15.9936 5.5875C16.0218 5.42188 15.9655 5.25 15.8436 5.13438C15.7218 5.01875 15.5468 4.975 15.3811 5.01563L14.3811 5.26563C14.1874 5.3125 14.0405 5.46875 14.0061 5.6625L13.9999 5.70625V12.1563C14.1499 12.0906 14.2718 12.0188 14.3686 11.95C14.7436 11.6875 14.8905 11.3875 14.953 11.1906C14.9749 11.1188 15.0061 11.0438 15.0405 10.9719L15.9936 5.5875ZM6.01863 11.8281L7.8155 19.2344C7.92488 19.6844 8.32488 20 8.78738 20H15.2124C15.6749 20 16.0749 19.6844 16.1843 19.2344L17.9811 11.8281C17.9936 11.775 17.9999 11.725 17.9999 11.6688C17.9999 11.3 17.6999 11 17.3311 11H16.4999C16.2249 11 15.9905 11.225 15.9093 11.4906C15.678 12.2188 14.8655 13.5 11.9999 13.5C9.13425 13.5 8.32175 12.2188 8.0905 11.4906C8.00925 11.225 7.77488 11 7.49988 11H6.66863C6.29988 11 5.99988 11.3 5.99988 11.6688C5.99988 11.7219 6.00613 11.775 6.01863 11.8281Z" fill="black"/>
</svg>
