<svg width="24" height="24" viewBox="0 0 24 24" fill="none" xmlns="http://www.w3.org/2000/svg">
<path d="M12.7032 10.7375L4.71885 18.7187C4.4251 19.0125 4.4251 19.4875 4.71885 19.7781C5.0126 20.0687 5.4876 20.0718 5.77822 19.7781L8.11572 17.4406C8.34697 17.5843 8.59385 17.6968 8.85947 17.7687C10.2595 18.15 12.4376 18.2031 14.5626 16.7937C14.9438 16.5406 14.7438 16 14.2876 16H13.7845C13.6251 16 13.497 15.8718 13.497 15.7125C13.497 15.5843 13.5813 15.475 13.7001 15.4375L16.7532 14.5218C16.8595 14.4906 16.9532 14.425 17.0157 14.3312C17.1532 14.1312 17.2845 13.9281 17.4095 13.7187C17.6032 13.3968 17.3626 13 16.9876 13H15.7813C15.622 13 15.4938 12.8718 15.4938 12.7125C15.4938 12.5843 15.5782 12.475 15.697 12.4375L18.2251 11.6781C18.3688 11.6343 18.4876 11.5281 18.5438 11.3875C19.4532 9.09372 19.8688 6.69059 19.997 5.14997C20.022 4.84059 19.9032 4.53747 19.6845 4.31872C19.4657 4.09997 19.1626 3.98122 18.8532 4.00622C16.2345 4.21872 11.1407 5.2656 8.29385 8.11247C5.79072 10.6156 5.77197 13.4468 6.22822 15.1375C6.29385 15.3843 6.60322 15.4375 6.78447 15.2562L11.9251 10.1187C12.1188 9.92497 12.4376 9.92497 12.6313 10.1187C12.8001 10.2875 12.822 10.5437 12.7001 10.7375H12.7032Z" fill="black"/>
</svg>
