<svg width="24" height="24" viewBox="0 0 24 24" fill="none" xmlns="http://www.w3.org/2000/svg">
<path d="M4.575 17.9063C4.925 18.0719 5.34062 18.0188 5.64062 17.7688L11 13.3032V17.0001C11 17.3876 11.225 17.7407 11.575 17.9063C11.925 18.0719 12.3406 18.0188 12.6406 17.7688L18 13.3032V17.0001C18 17.5532 18.4469 18.0001 19 18.0001C19.5531 18.0001 20 17.5532 20 17.0001V7.00006C20 6.44693 19.5531 6.00006 19 6.00006C18.4469 6.00006 18 6.44693 18 7.00006V10.6969L12.6406 6.23131C12.3438 5.98443 11.9281 5.92818 11.575 6.09381C11.2219 6.25943 11 6.61256 11 7.00006V10.6969L5.64062 6.23131C5.34375 5.98443 4.92812 5.92818 4.575 6.09381C4.22187 6.25943 4 6.61256 4 7.00006V17.0001C4 17.3876 4.225 17.7407 4.575 17.9063Z" fill="black"/>
</svg>
