<svg width="24" height="24" viewBox="0 0 24 24" fill="none" xmlns="http://www.w3.org/2000/svg">
<path d="M19.5687 14.5969C19.8468 13.7813 19.9999 12.9094 19.9999 12C19.9999 7.58125 16.4187 4 11.9999 4C7.58115 4 3.9999 7.58125 3.9999 12C3.9999 12.8938 4.14678 13.7531 4.41553 14.5562C4.56865 14.5094 4.7249 14.4813 4.88428 14.4719C4.92178 14.4281 4.95928 14.3875 4.9999 14.3469C5.72803 13.6188 6.87803 13.5687 7.66553 14.2L9.25928 13.2437C10.1968 12.6812 11.2624 13.7469 10.6999 14.6844L9.74365 16.2781C10.3749 17.0625 10.3249 18.2156 9.59678 18.9438C9.55615 18.9844 9.51553 19.0219 9.47178 19.0594C9.4624 19.2281 9.43115 19.3969 9.37803 19.5594C10.1999 19.8437 11.0812 20 11.9999 20C12.8968 20 13.7593 19.8531 14.5624 19.5813C14.5124 19.4219 14.4812 19.2531 14.4718 19.0875C14.428 19.05 14.3874 19.0125 14.3468 18.9719C13.6187 18.2438 13.5687 17.0937 14.1999 16.3062L13.2437 14.7125C12.6812 13.775 13.7468 12.7094 14.6843 13.2719L16.278 14.2281C17.0624 13.5969 18.2155 13.6469 18.9437 14.375C18.9843 14.4156 19.0218 14.4563 19.0593 14.5C19.2312 14.5094 19.403 14.5406 19.5687 14.5969ZM19.1812 15.525C19.1218 15.5094 19.0624 15.5 18.9999 15.4969C18.8312 15.4875 18.6624 15.5187 18.5093 15.5938C18.478 15.4313 18.4062 15.2781 18.2937 15.1438C18.2749 15.1219 18.2562 15.1 18.2374 15.0813C17.8624 14.7063 17.2624 14.6906 16.8687 15.0375C16.853 15.0531 16.8374 15.0656 16.8218 15.0813C16.7062 15.1969 16.6249 15.3344 16.578 15.4812L14.3999 14.0938C14.3124 14.0375 14.1968 14.05 14.1249 14.125L14.1187 14.1313C14.1093 14.1375 14.0999 14.1469 14.0968 14.1562C14.0468 14.2281 14.0437 14.3219 14.0937 14.3969L15.4749 16.5969C15.3218 16.6438 15.1749 16.725 15.0562 16.8469C14.9093 16.9938 14.8187 17.1719 14.7812 17.3594C14.7655 17.4344 14.7593 17.5094 14.7624 17.5844C14.7687 17.8313 14.8687 18.075 15.0562 18.2625C15.078 18.2844 15.0968 18.3031 15.1187 18.3219C15.2499 18.4344 15.4062 18.5063 15.5687 18.5375C15.5218 18.6375 15.4905 18.7469 15.478 18.8531C15.4718 18.9094 15.4687 18.9687 15.4718 19.0281C15.4718 19.05 15.4749 19.0719 15.478 19.0906C15.503 19.3062 15.5999 19.5125 15.7624 19.6781C16.153 20.0688 16.7874 20.0688 17.178 19.6781C17.2437 19.6125 17.2968 19.5438 17.3405 19.4688C17.928 19.9219 18.7749 19.8781 19.3124 19.3375C19.8499 18.7969 19.8937 17.9531 19.4437 17.3656C19.5187 17.3219 19.5905 17.2687 19.653 17.2031C20.0437 16.8125 20.0437 16.1781 19.653 15.7875C19.5187 15.6531 19.3562 15.5656 19.1843 15.5219L19.1812 15.525ZM8.4499 19.1719C8.4624 19.1156 8.47178 19.0594 8.4749 19.0031C8.48428 18.8344 8.45303 18.6656 8.37803 18.5125C8.54053 18.4812 8.69365 18.4094 8.82803 18.2969C8.8499 18.2781 8.87178 18.2594 8.89053 18.2406C8.9374 18.1938 8.97803 18.1437 9.01553 18.0906C9.26553 17.7187 9.2374 17.2188 8.9374 16.875C8.92178 16.8594 8.90928 16.8438 8.89365 16.8281C8.78115 16.7156 8.64678 16.6344 8.50303 16.5875L9.90615 14.4062C9.9624 14.3188 9.9499 14.2031 9.87803 14.1313C9.80615 14.0594 9.69365 14.0469 9.60615 14.1L7.3749 15.4844C7.3749 15.4781 7.37178 15.475 7.37178 15.4688C7.3249 15.3187 7.24365 15.175 7.12178 15.0562C7.11553 15.05 7.10928 15.0438 7.0999 15.0375C7.09053 15.0281 7.08115 15.0219 7.0749 15.0125C6.68115 14.6656 6.08428 14.6812 5.70615 15.0562C5.68428 15.0781 5.66553 15.0969 5.64678 15.1187C5.53428 15.2531 5.4624 15.4063 5.43115 15.5688C5.27803 15.4938 5.10928 15.4625 4.94053 15.4719C4.89365 15.475 4.84365 15.4813 4.79678 15.4906C4.6124 15.5281 4.43428 15.6187 4.29053 15.7625C3.8999 16.1531 3.8999 16.7875 4.29053 17.1781C4.35615 17.2438 4.4249 17.2969 4.4999 17.3406C4.05303 17.925 4.09365 18.7719 4.63428 19.3094C5.1749 19.8469 6.01865 19.8906 6.60615 19.4406C6.6499 19.5156 6.70303 19.5875 6.76865 19.65C7.15928 20.0406 7.79365 20.0406 8.18428 19.65C8.32178 19.5125 8.40928 19.3437 8.4499 19.1687V19.1719ZM7.4999 11H10.4999C10.7749 11 10.9999 11.225 10.9999 11.5C10.9999 11.775 10.7749 12 10.4999 12H7.4999C7.2249 12 6.9999 11.775 6.9999 11.5C6.9999 11.225 7.2249 11 7.4999 11ZM13.4999 12C13.2249 12 12.9999 11.775 12.9999 11.5C12.9999 11.225 13.2249 11 13.4999 11H16.4999C16.7749 11 16.9999 11.225 16.9999 11.5C16.9999 11.775 16.7749 12 16.4999 12H13.4999ZM16.4749 7.84063C16.5624 8.10313 16.4218 8.38438 16.1593 8.47188C15.0499 8.84063 14.1468 9.55937 13.8562 9.85C13.6624 10.0437 13.3437 10.0437 13.1499 9.85C12.9562 9.65625 12.9562 9.3375 13.1499 9.14375C13.5249 8.76875 14.5562 7.95312 15.8468 7.52187C16.1093 7.43437 16.3905 7.575 16.478 7.8375L16.4749 7.84063ZM7.5249 7.84063C7.6124 7.57813 7.89678 7.4375 8.15615 7.525C9.44678 7.95625 10.4749 8.77187 10.853 9.14687C11.0468 9.34062 11.0468 9.65938 10.853 9.85313C10.6593 10.0469 10.3405 10.0469 10.1468 9.85313C9.85615 9.5625 8.95303 8.84375 7.84365 8.475C7.58115 8.3875 7.44053 8.10313 7.52803 7.84375L7.5249 7.84063Z" fill="black"/>
</svg>
