<svg width="24" height="24" viewBox="0 0 24 24" fill="none" xmlns="http://www.w3.org/2000/svg">
<path d="M13 5V5.125C14.4062 5.4875 15.5125 6.59375 15.875 8H16.25C16.6656 8 17 8.33437 17 8.75C17 9.16563 16.6656 9.5 16.25 9.5H7.75C7.33437 9.5 7 9.16563 7 8.75C7 8.33437 7.33437 8 7.75 8H8.125C8.4875 6.59375 9.59375 5.4875 11 5.125V5C11 4.44687 11.4469 4 12 4C12.5531 4 13 4.44687 13 5ZM7 19.25C7 18.8344 7.33437 18.5 7.75 18.5H8V16.5H7.5C6.94687 16.5 6.5 16.0531 6.5 15.5V13.5C6.5 12.9469 6.94687 12.5 7.5 12.5H8V10.5H16V12.5H16.5C17.0531 12.5 17.5 12.9469 17.5 13.5V15.5C17.5 16.0531 17.0531 16.5 16.5 16.5H16V18.5H16.25C16.6656 18.5 17 18.8344 17 19.25C17 19.6656 16.6656 20 16.25 20H16H8H7.75C7.33437 20 7 19.6656 7 19.25ZM12 16.5C12.5304 16.5 13.0391 16.2893 13.4142 15.9142C13.7893 15.5391 14 15.0304 14 14.5C14 13.9696 13.7893 13.4609 13.4142 13.0858C13.0391 12.7107 12.5304 12.5 12 12.5C11.4696 12.5 10.9609 12.7107 10.5858 13.0858C10.2107 13.4609 10 13.9696 10 14.5C10 15.0304 10.2107 15.5391 10.5858 15.9142C10.9609 16.2893 11.4696 16.5 12 16.5Z" fill="black"/>
</svg>
