<svg width="24" height="24" viewBox="0 0 24 24" fill="none" xmlns="http://www.w3.org/2000/svg">
<path d="M15.2656 9.37813C15.1031 9.28438 15 9.11562 15 8.92812V6C15.5531 6 16 5.55313 16 5C16 4.44687 15.5531 4 15 4H14.5H13H11H9.5H9C8.44688 4 8 4.44687 8 5C8 5.55313 8.44688 6 9 6V8.92812C9 9.11562 8.89687 9.28438 8.73438 9.37813C8.56875 9.475 8.40937 9.57812 8.25312 9.6875C6.5875 10.8656 5.5 12.8062 5.5 15C5.5 16.75 6.19062 18.3406 7.31875 19.5094C7.64062 19.8438 8.10312 20 8.56875 20H15.4312C15.9 20 16.3594 19.8438 16.6844 19.5094C17.8094 18.3406 18.5 16.75 18.5 15C18.5 12.6 17.2 10.5063 15.2656 9.37813ZM14.375 15.7688C14.1531 15.9313 14 16.175 14 16.45V16.75C14 17.1656 13.6656 17.5 13.25 17.5H10.75C10.3344 17.5 10 17.1656 10 16.75V16.45C10 16.175 9.84688 15.9281 9.625 15.7688C8.93438 15.2656 8.5 14.5469 8.5 13.75C8.5 12.2312 10.0656 11 12 11C13.9344 11 15.5 12.2312 15.5 13.75C15.5 14.5469 15.0656 15.2688 14.375 15.7688ZM10.75 14.5C10.9489 14.5 11.1397 14.421 11.2803 14.2803C11.421 14.1397 11.5 13.9489 11.5 13.75C11.5 13.5511 11.421 13.3603 11.2803 13.2197C11.1397 13.079 10.9489 13 10.75 13C10.5511 13 10.3603 13.079 10.2197 13.2197C10.079 13.3603 10 13.5511 10 13.75C10 13.9489 10.079 14.1397 10.2197 14.2803C10.3603 14.421 10.5511 14.5 10.75 14.5ZM14 13.75C14 13.5511 13.921 13.3603 13.7803 13.2197C13.6397 13.079 13.4489 13 13.25 13C13.0511 13 12.8603 13.079 12.7197 13.2197C12.579 13.3603 12.5 13.5511 12.5 13.75C12.5 13.9489 12.579 14.1397 12.7197 14.2803C12.8603 14.421 13.0511 14.5 13.25 14.5C13.4489 14.5 13.6397 14.421 13.7803 14.2803C13.921 14.1397 14 13.9489 14 13.75Z" fill="black"/>
</svg>
