<svg width="24" height="24" viewBox="0 0 24 24" fill="none" xmlns="http://www.w3.org/2000/svg">
<path d="M10.8 4.93437L11.3 4.26875C11.425 4.1 11.625 4 11.8344 4C12.2 4 12.5 4.3 12.5 4.66562V5.35938C12.5 5.76875 12.6687 6.1625 12.9656 6.44375L15.6125 8.96875C17.1375 10.425 18 12.4438 18 14.5531C18 17.5625 15.5625 20 12.5531 20H12C8.6875 20 6 17.3125 6 14V13.8813C6 12.3563 6.60625 10.8938 7.68438 9.81563L7.79375 9.70625C7.925 9.575 8.10625 9.5 8.29375 9.5C8.68438 9.5 9 9.81563 9 10.2063V13C9 14.1031 9.89687 15 11 15C12.1031 15 13 14.1031 13 13V12.8781C13 12.3156 12.775 11.775 12.3781 11.3781L11.1719 10.1719C10.4219 9.42188 10 8.4 10 7.3375C10 6.47188 10.2812 5.625 10.8 4.93437Z" fill="black"/>
</svg>
