<svg width="24" height="24" viewBox="0 0 24 24" fill="none" xmlns="http://www.w3.org/2000/svg">
<path d="M5.72208 8.63125C5.89708 8.775 6.00021 8.9875 6.00021 9.21563V10.5V11.25H7.25021V9C7.25021 8.58438 7.58458 8.25 8.00021 8.25C8.41583 8.25 8.75021 8.58438 8.75021 9V11.25H10.2502V9C10.2502 8.58438 10.5846 8.25 11.0002 8.25C11.4158 8.25 11.7502 8.58438 11.7502 9V11.25H13.2502V9C13.2502 8.58438 13.5846 8.25 14.0002 8.25C14.4158 8.25 14.7502 8.58438 14.7502 9V11.25H16.0002V8.09063C16.0002 7.5625 16.5346 7.20313 16.994 7.46563C17.494 7.75 17.9502 8.08125 18.3596 8.425C19.5815 9.45625 20.4502 10.6875 20.8908 11.5438C21.0377 11.8313 21.0377 12.1719 20.8908 12.4594C20.4502 13.3156 19.5815 14.5469 18.3596 15.5781C17.9502 15.9219 17.494 16.2531 16.994 16.5375C16.5346 16.8 16.0002 16.4406 16.0002 15.9125V12.75H14.7502V15C14.7502 15.4156 14.4158 15.75 14.0002 15.75C13.5846 15.75 13.2502 15.4156 13.2502 15V12.75H11.7502V15C11.7502 15.4156 11.4158 15.75 11.0002 15.75C10.5846 15.75 10.2502 15.4156 10.2502 15V12.75H8.75021V15C8.75021 15.4156 8.41583 15.75 8.00021 15.75C7.58458 15.75 7.25021 15.4156 7.25021 15V12.75H6.00021V13.5V14.7844C6.00021 15.0094 5.89708 15.225 5.72208 15.3688L4.22208 16.5844C3.94708 16.8063 3.55646 16.8063 3.28146 16.5875C3.00646 16.3688 2.92208 15.9875 3.07521 15.6719L4.71583 12.3313C4.81896 12.1219 4.81896 11.8781 4.71583 11.6688L3.07833 8.33125C2.92208 8.01563 3.00958 7.63438 3.28458 7.41563C3.55958 7.19688 3.95021 7.19688 4.22521 7.41875L5.72521 8.63438L5.72208 8.63125Z" fill="black"/>
</svg>
