<svg width="24" height="24" viewBox="0 0 24 24" fill="none" xmlns="http://www.w3.org/2000/svg">
<path d="M4.2938 4.29375C4.68442 3.90312 5.31567 3.90312 5.7063 4.29375L8.25005 6.83437L9.90942 5.175C10.7875 4.29687 12.2125 4.29687 13.0907 5.175L17.8219 9.90937C18.7 10.7875 18.7 12.2125 17.8219 13.0906L11.8719 19.0437C10.7 20.2156 8.80005 20.2156 7.62817 19.0437L3.9563 15.3719C2.78442 14.2 2.78442 12.3 3.9563 11.1281L6.83442 8.25L4.2938 5.70625C3.90317 5.31562 3.90317 4.68125 4.2938 4.29062V4.29375ZM9.7938 11.2094L8.25005 9.66562L5.37192 12.5437C5.24067 12.675 5.15317 12.8344 5.10942 13H15.0844L16.4063 11.6781C16.5032 11.5812 16.5032 11.4219 16.4063 11.325L11.6782 6.59062C11.5813 6.49375 11.4219 6.49375 11.325 6.59062L9.66567 8.25L11.2094 9.79375C11.6 10.1844 11.6 10.8187 11.2094 11.2094C10.8188 11.6 10.1844 11.6 9.7938 11.2094ZM19 20C17.8969 20 17 19.1031 17 18C17 17.2125 18.0188 15.5125 18.6 14.6031C18.7875 14.3094 19.2094 14.3094 19.3969 14.6031C19.9813 15.5125 21 17.2125 21 18C21 19.1031 20.1032 20 19 20Z" fill="black"/>
</svg>
