<svg width="24" height="24" viewBox="0 0 24 24" fill="none" xmlns="http://www.w3.org/2000/svg">
<path d="M11 4C11.5531 4 12 4.44687 12 5V5.375L15 5C15.5531 5 16 5.44687 16 6C16 6.55312 15.5531 7 15 7L12 6.625L11.0312 6.50312L11 6.5L10.9688 6.50312L10 6.625L7 7C6.44688 7 6 6.55312 6 6C6 5.44687 6.44688 5 7 5L10 5.375V5C10 4.44687 10.4469 4 11 4ZM4 11C4 10.4469 4.44687 10 5 10H8L8.70625 9.29375C8.89375 9.10625 9.14687 9 9.4125 9H10V7.63125L11 7.50625L12 7.63125V9H12.5844C12.85 9 13.1031 9.10625 13.2906 9.29375L14 10H15C17.7625 10 20 12.2375 20 15C20 15.5531 19.5531 16 19 16H17C16.4469 16 16 15.5531 16 15C16 14.4469 15.5531 14 15 14H13.8719C13.2406 14.9062 12.1875 15.5 11 15.5C9.8125 15.5 8.75938 14.9062 8.12813 14H5C4.44687 14 4 13.5531 4 13V11ZM17.65 17.2312C17.7094 17.0906 17.8469 17 18 17C18.1531 17 18.2875 17.0906 18.35 17.2312L18.9187 18.5562C18.975 18.6844 19.0031 18.825 19.0031 18.9656V19C19.0031 19.5531 18.5563 20 18.0031 20C17.45 20 17.0031 19.5531 17.0031 19V18.9625C17.0031 18.8219 17.0312 18.6844 17.0875 18.5531L17.6562 17.2281L17.65 17.2312Z" fill="black"/>
</svg>
