<svg width="24" height="24" viewBox="0 0 24 24" fill="none" xmlns="http://www.w3.org/2000/svg">
<path d="M15.8344 5C14.6219 5 13.5313 5.72812 13.0656 6.84687L11.3344 11H8C7.44687 11 7 11.4469 7 12C7 12.5531 7.44687 13 8 13H10.5L9.09063 16.3844C8.93438 16.7562 8.57188 17 8.16875 17H7C6.44687 17 6 17.4469 6 18C6 18.5531 6.44687 19 7 19H8.16563C9.37813 19 10.4687 18.2719 10.9344 17.1531L12.6656 13H16C16.5531 13 17 12.5531 17 12C17 11.4469 16.5531 11 16 11H13.5L14.9094 7.61562C15.0656 7.24375 15.4281 7 15.8313 7H17C17.5531 7 18 6.55313 18 6C18 5.44687 17.5531 5 17 5H15.8344Z" fill="black"/>
</svg>
