<svg width="24" height="24" viewBox="0 0 24 24" fill="none" xmlns="http://www.w3.org/2000/svg">
<path d="M8 4C6.89688 4 6 4.89688 6 6V18C6 19.1031 6.89688 20 8 20H16C17.1031 20 18 19.1031 18 18V9H14C13.4469 9 13 8.55312 13 8V4H8ZM14 4V8H18L14 4ZM12 11.5C12.4156 11.5 12.75 11.8344 12.75 12.25V13.75H14.25C14.6656 13.75 15 14.0844 15 14.5C15 14.9156 14.6656 15.25 14.25 15.25H12.75V16.75C12.75 17.1656 12.4156 17.5 12 17.5C11.5844 17.5 11.25 17.1656 11.25 16.75V15.25H9.75C9.33437 15.25 9 14.9156 9 14.5C9 14.0844 9.33437 13.75 9.75 13.75H11.25V12.25C11.25 11.8344 11.5844 11.5 12 11.5Z" fill="black"/>
</svg>
