<svg width="24" height="24" viewBox="0 0 24 24" fill="none" xmlns="http://www.w3.org/2000/svg">
<path d="M8 4C6.89688 4 6 4.89688 6 6V18C6 19.1031 6.89688 20 8 20H16C17.1031 20 18 19.1031 18 18V9H14C13.4469 9 13 8.55312 13 8V4H8ZM14 4V8H18L14 4ZM15 11V12V16C15 16.5531 14.3281 17 13.5 17C12.6719 17 12 16.5531 12 16C12 15.4469 12.6719 15 13.5 15C13.675 15 13.8438 15.0187 14 15.0562V12.7219L11 13.8469V17C11 17.5531 10.3281 18 9.5 18C8.67188 18 8 17.5531 8 17C8 16.4469 8.67188 16 9.5 16C9.675 16 9.84375 16.0187 10 16.0562V13.5V12.5C10 12.2906 10.1281 12.1062 10.325 12.0312L14.325 10.5312C14.4781 10.475 14.65 10.4938 14.7844 10.5875C14.9187 10.6813 15 10.8344 15 11Z" fill="black"/>
</svg>
