<svg width="24" height="24" viewBox="0 0 24 24" fill="none" xmlns="http://www.w3.org/2000/svg">
<path d="M19 4C18.5844 4 18.25 4.33437 18.25 4.75V6.25H16.75C16.3344 6.25 16 6.58437 16 7C16 7.41563 16.3344 7.75 16.75 7.75H18.25V9.25C18.25 9.66563 18.5844 10 19 10C19.4156 10 19.75 9.66563 19.75 9.25V7.75H21.25C21.6656 7.75 22 7.41563 22 7C22 6.58437 21.6656 6.25 21.25 6.25H19.75V4.75C19.75 4.33437 19.4156 4 19 4ZM9 20C10.8565 20 12.637 19.2625 13.9497 17.9497C15.2625 16.637 16 14.8565 16 13C16 11.1435 15.2625 9.36301 13.9497 8.05025C12.637 6.7375 10.8565 6 9 6C7.14348 6 5.36301 6.7375 4.05025 8.05025C2.7375 9.36301 2 11.1435 2 13C2 14.8565 2.7375 16.637 4.05025 17.9497C5.36301 19.2625 7.14348 20 9 20ZM6.5125 10.5C6.77772 10.5 7.03207 10.6054 7.21961 10.7929C7.40714 10.9804 7.5125 11.2348 7.5125 11.5C7.5125 11.7652 7.40714 12.0196 7.21961 12.2071C7.03207 12.3946 6.77772 12.5 6.5125 12.5C6.24728 12.5 5.99293 12.3946 5.80539 12.2071C5.61786 12.0196 5.5125 11.7652 5.5125 11.5C5.5125 11.2348 5.61786 10.9804 5.80539 10.7929C5.99293 10.6054 6.24728 10.5 6.5125 10.5ZM10.5125 11.5C10.5125 11.2348 10.6179 10.9804 10.8054 10.7929C10.9929 10.6054 11.2473 10.5 11.5125 10.5C11.7777 10.5 12.0321 10.6054 12.2196 10.7929C12.4071 10.9804 12.5125 11.2348 12.5125 11.5C12.5125 11.7652 12.4071 12.0196 12.2196 12.2071C12.0321 12.3946 11.7777 12.5 11.5125 12.5C11.2473 12.5 10.9929 12.3946 10.8054 12.2071C10.6179 12.0196 10.5125 11.7652 10.5125 11.5ZM6.375 14.8156C7.01562 15.5437 7.95625 16 9 16C10.0437 16 10.9844 15.5437 11.625 14.8156C11.8062 14.6094 12.125 14.5875 12.3313 14.7719C12.5375 14.9563 12.5594 15.2719 12.375 15.4781C11.55 16.4094 10.3438 17 9 17C7.65625 17 6.45 16.4094 5.625 15.4781C5.44375 15.2719 5.4625 14.9563 5.66875 14.7719C5.875 14.5875 6.19063 14.6094 6.375 14.8156Z" fill="black"/>
</svg>
