<svg width="24" height="24" viewBox="0 0 24 24" fill="none" xmlns="http://www.w3.org/2000/svg">
<path d="M7 5.375V8C7 10.2094 8.79063 12 11 12V16.3375C10.0031 14.9219 8.35938 14 6.5 14H4.92188C4.4125 14 4 14.4125 4 14.9219C4 17.7281 6.27187 20 9.07812 20H11H12H13H14.9219C17.7281 20 20 17.7281 20 14.9219C20 14.4125 19.5875 14 19.0781 14H17.5C15.6406 14 13.9969 14.9219 13 16.3375V12C15.2094 12 17 10.2094 17 8V5.375C17 5.16875 16.8313 5 16.625 5C16.5437 5 16.4656 5.025 16.4 5.075L14.5 6.5L12.4 4.16563C12.3062 4.05938 12.1687 4 12.0281 4H11.975C11.8344 4 11.6969 4.05938 11.6031 4.16563L9.5 6.5L7.6 5.075C7.53437 5.025 7.45625 5 7.375 5C7.16875 5 7 5.16875 7 5.375Z" fill="black"/>
</svg>
