<svg width="24" height="24" viewBox="0 0 24 24" fill="none" xmlns="http://www.w3.org/2000/svg">
<path d="M3.12196 4.71562C3.32821 4.27812 3.76571 4 4.25008 4H17.7501C18.2345 4 18.672 4.27812 18.8782 4.71562C19.0845 5.15313 19.022 5.66875 18.7157 6.04375L15.3876 10.1125C12.8813 10.6281 11.0001 12.8438 11.0001 15.5C11.0001 16.3562 11.197 17.1687 11.547 17.8906C11.497 17.8656 11.447 17.8344 11.4001 17.8L9.40008 16.3C9.14696 16.1125 9.00008 15.8156 9.00008 15.5V13.0281L3.28133 6.04063C2.97821 5.66875 2.91258 5.15 3.12196 4.71562ZM12.0001 15.5C12.0001 14.3065 12.4742 13.1619 13.3181 12.318C14.162 11.4741 15.3066 11 16.5001 11C17.6936 11 18.8381 11.4741 19.6821 12.318C20.526 13.1619 21.0001 14.3065 21.0001 15.5C21.0001 16.6935 20.526 17.8381 19.6821 18.682C18.8381 19.5259 17.6936 20 16.5001 20C15.3066 20 14.162 19.5259 13.3181 18.682C12.4742 17.8381 12.0001 16.6935 12.0001 15.5ZM15.7751 14.4812C15.7938 14.4531 15.8313 14.4156 15.9063 14.375C16.0657 14.2906 16.297 14.2469 16.4907 14.25C16.747 14.2531 17.0251 14.3063 17.3157 14.3781C17.5845 14.4438 17.8563 14.2812 17.922 14.0125C17.9876 13.7437 17.8251 13.4719 17.5563 13.4062C17.3813 13.3625 17.1938 13.3219 16.997 13.2906V13C16.997 12.725 16.772 12.5 16.497 12.5C16.222 12.5 15.997 12.725 15.997 13V13.2969C15.8063 13.3344 15.6126 13.3969 15.4345 13.4937C15.0657 13.6906 14.7157 14.0688 14.7532 14.6562C14.7845 15.1562 15.1188 15.4469 15.4282 15.6156C15.7032 15.7625 16.0438 15.8594 16.322 15.9375L16.3782 15.9531C16.7001 16.0437 16.9376 16.1156 17.1032 16.2125C17.2438 16.2969 17.2501 16.3438 17.2501 16.3875C17.2532 16.4625 17.2345 16.5031 17.2188 16.5281C17.2001 16.5594 17.1626 16.5969 17.0938 16.6313C16.947 16.7094 16.7251 16.75 16.5157 16.7437C16.2188 16.7344 15.9376 16.6469 15.5813 16.5312C15.522 16.5125 15.4626 16.4938 15.4001 16.475C15.1376 16.3938 14.8563 16.5406 14.7751 16.8031C14.6938 17.0656 14.8407 17.3469 15.1032 17.4281C15.1532 17.4438 15.2063 17.4594 15.2595 17.4781C15.4782 17.55 15.7313 17.6281 16.0001 17.6844V18.0406C16.0001 18.3156 16.2251 18.5406 16.5001 18.5406C16.7751 18.5406 17.0001 18.3156 17.0001 18.0406V17.7094C17.1938 17.675 17.3907 17.6125 17.572 17.5156C17.9501 17.3125 18.2688 16.9313 18.2501 16.3625C18.2345 15.8562 17.9282 15.5406 17.6095 15.3531C17.3157 15.1781 16.947 15.075 16.6563 14.9937H16.6501C16.3251 14.9031 16.0782 14.8313 15.9032 14.7375C15.7532 14.6562 15.7532 14.6125 15.7532 14.5969V14.5938C15.7501 14.5344 15.7626 14.5031 15.7782 14.4812H15.7751Z" fill="black"/>
</svg>
