<svg width="24" height="24" viewBox="0 0 24 24" fill="none" xmlns="http://www.w3.org/2000/svg">
<path d="M17.5564 8.50938C17.9595 8.10625 18.5501 8.00625 19.047 8.20937C17.6939 5.70312 15.047 4 12.0001 4C9.76577 4 7.7439 4.91562 6.29077 6.39375C6.5314 6.45 6.7564 6.57188 6.9439 6.75938C7.4814 7.29688 7.4814 8.16562 6.9439 8.70312L6.89702 8.75H9.25015C9.94077 8.75 10.5001 9.30937 10.5001 10C10.5001 10.0812 10.4939 10.1594 10.4783 10.2344C10.7939 10.4625 11.0001 10.8313 11.0001 11.25C11.0001 11.6687 10.7939 12.0406 10.4783 12.2656C10.4939 12.3406 10.5001 12.4188 10.5001 12.5C10.5001 13.1906 9.94077 13.75 9.25015 13.75H9.00015C9.00015 13.7594 9.00015 13.7687 9.00015 13.7781C9.00015 14.4687 8.44077 15.0281 7.75015 15.0281H5.72515C5.30952 15.0281 4.90015 14.9594 4.51265 14.825C5.6564 17.85 8.57515 20 12.0001 20C14.8595 20 17.3689 18.5 18.7845 16.2437C18.6158 16.2656 18.447 16.2781 18.2751 16.2781H16.2501C15.5595 16.2781 15.0001 15.7187 15.0001 15.0281C15.0001 15.025 15.0001 15.0219 15.0001 15.0188C15.0001 15.0125 15.0001 15.0063 15.0001 15H14.7501C14.0595 15 13.5001 14.4406 13.5001 13.75C13.5001 13.7156 13.5001 13.6813 13.5033 13.6469C12.347 13.3219 11.5001 12.2594 11.5001 11C11.5001 9.48125 12.7314 8.25 14.2501 8.25C14.4564 8.25 14.6564 8.27188 14.8501 8.31563C15.2189 8.19063 15.6376 8.24062 15.9783 8.48438L17.1626 9.33125C17.197 9.03125 17.3283 8.74062 17.5564 8.5125V8.50938ZM12.0001 18C10.897 18 10.0001 17.3281 10.0001 16.5C10.0001 15.6719 10.897 15 12.0001 15C13.1033 15 14.0001 15.6719 14.0001 16.5C14.0001 17.3281 13.1033 18 12.0001 18ZM14.822 11.5C14.9408 11.3688 15.0126 11.1906 15.0126 11C15.0126 10.5844 14.6783 10.25 14.2626 10.25C13.847 10.25 13.5126 10.5844 13.5126 11C13.5126 11.1906 13.5845 11.3688 13.7033 11.5H14.822ZM9.75015 10C9.75015 9.725 9.52515 9.5 9.25015 9.5H5.6939C5.47202 9.5 5.35952 9.23125 5.51577 9.07188L6.41577 8.17188C6.65952 7.92812 6.65952 7.53125 6.41577 7.2875C6.17202 7.04375 5.77515 7.04375 5.5314 7.2875L3.62202 9.2L3.59702 9.225C2.45952 10.3875 2.4689 12.2531 3.62202 13.4062C4.1814 13.9656 4.93765 14.2781 5.72515 14.2781H7.75015C8.02515 14.2781 8.25015 14.0531 8.25015 13.7781C8.25015 13.5031 8.02515 13.2781 7.75015 13.2781H7.31265C7.23452 13.2781 7.17202 13.2156 7.17202 13.1375C7.17202 13.0594 7.23452 12.9969 7.31265 12.9969H9.25015C9.52515 12.9969 9.75015 12.7719 9.75015 12.4969C9.75015 12.2219 9.52515 11.9969 9.25015 11.9969H7.30015C7.2314 11.9969 7.17515 11.9406 7.17515 11.8719C7.17515 11.8031 7.2314 11.7469 7.30015 11.7469H9.75015C10.0251 11.7469 10.2501 11.5219 10.2501 11.2469C10.2501 10.9719 10.0251 10.7469 9.75015 10.7469H7.30015C7.2314 10.7469 7.17515 10.6906 7.17515 10.6219C7.17515 10.5531 7.2314 10.4969 7.30015 10.4969H9.25015C9.52515 10.4969 9.75015 10.2719 9.75015 9.99687V10ZM14.8439 9.20937C14.6845 9.43437 14.7345 9.74688 14.9595 9.90625L16.8251 11.2375C16.9345 11.3156 17.0001 11.4437 17.0001 11.5781C17.0001 11.8094 16.8126 11.9969 16.5814 11.9969L14.2501 12C13.9751 12 13.7501 12.225 13.7501 12.5C13.7501 12.775 13.9751 13 14.2501 13H16.8751C16.9439 13 17.0001 13.0562 17.0001 13.125C17.0001 13.1938 16.9439 13.25 16.8751 13.25H14.7501C14.4751 13.25 14.2501 13.475 14.2501 13.75C14.2501 14.025 14.4751 14.25 14.7501 14.25H16.8595C16.9376 14.25 17.0001 14.3125 17.0001 14.3906C17.0001 14.4688 16.9376 14.5312 16.8595 14.5312H16.2501C15.9751 14.5312 15.7501 14.7562 15.7501 15.0312C15.7501 15.3063 15.9751 15.5312 16.2501 15.5312H18.2751C19.0626 15.5312 19.822 15.2188 20.3783 14.6594C21.5314 13.5063 21.5408 11.6406 20.4033 10.4781L20.3783 10.4531L18.9689 9.04063C18.7251 8.79688 18.3283 8.79688 18.0845 9.04063C17.8408 9.28438 17.8408 9.68125 18.0845 9.925L18.547 10.3875C18.7533 10.5937 18.6314 10.95 18.3408 10.9812C18.2533 10.9906 18.1658 10.9687 18.097 10.9187L15.5408 9.09375C15.3158 8.93438 15.0033 8.98437 14.8439 9.20937Z" fill="black"/>
</svg>
