<svg width="24" height="24" viewBox="0 0 24 24" fill="none" xmlns="http://www.w3.org/2000/svg">
<path d="M14.5281 19.5906C17.7094 18.5344 20 15.5344 20 12C20 7.58125 16.4187 4 12 4C7.58125 4 4 7.58125 4 12C4 14.9531 5.6 17.5312 7.97813 18.9187C7.67188 18.3562 7.5 17.7125 7.5 17.0281V16V14.325C7.5 13.4281 8.22812 12.7 9.125 12.7C9.18125 12.7 9.2375 12.7031 9.29063 12.7094C9.775 11.6969 10.8062 11 12 11C12.8969 11 13.7031 11.3938 14.2531 12.0188C14.7156 11.9438 15.2031 12.0813 15.5594 12.4375C15.9406 12.8187 16.075 13.3562 15.9594 13.8438C15.9938 13.8719 16.0281 13.9031 16.0594 13.9375C16.625 14.5031 16.6438 15.4094 16.1156 15.9969C16.6438 16.5844 16.625 17.4906 16.0594 18.0562L14.5281 19.5875V19.5906ZM10.3906 7.1875C10.5625 7.40313 10.5281 7.71875 10.3125 7.89062L7.8125 9.89062C7.59687 10.0625 7.28125 10.0281 7.10938 9.8125C6.9375 9.59687 6.97187 9.28125 7.1875 9.10938L9.6875 7.10938C9.90313 6.9375 10.2188 6.97187 10.3906 7.1875ZM13.6875 7.89062C13.4719 7.71875 13.4375 7.40313 13.6094 7.1875C13.7812 6.97187 14.0969 6.9375 14.3125 7.10938L16.8125 9.10938C17.0281 9.28125 17.0625 9.59687 16.8906 9.8125C16.7188 10.0281 16.4031 10.0625 16.1875 9.89062L13.6875 7.89062ZM13.3531 12.6469C13.1594 12.4531 12.8406 12.4531 12.6469 12.6469L10.1781 15.1156C10.0219 15.2719 9.75 15.1625 9.75 14.9375V14.325C9.75 13.9812 9.46875 13.7 9.125 13.7C8.78125 13.7 8.5 13.9812 8.5 14.325V16V17.025C8.5 18.6687 9.83125 20 11.475 20C12.2625 20 13.0219 19.6875 13.5781 19.1281L15.3531 17.3531C15.5469 17.1594 15.5469 16.8406 15.3531 16.6469C15.1594 16.4531 14.8406 16.4531 14.6469 16.6469L14.0437 17.25C13.9625 17.3312 13.8312 17.3312 13.75 17.25C13.6688 17.1688 13.6688 17.0375 13.75 16.9563L15.3531 15.3531C15.5469 15.1594 15.5469 14.8406 15.3531 14.6469C15.1594 14.4531 14.8406 14.4531 14.6469 14.6469L13.0437 16.25C12.9625 16.3312 12.8312 16.3312 12.75 16.25C12.6688 16.1688 12.6688 16.0375 12.75 15.9563L14.8531 13.8531C15.0469 13.6594 15.0469 13.3406 14.8531 13.1469C14.6594 12.9531 14.3406 12.9531 14.1469 13.1469L12.0437 15.25C11.9625 15.3312 11.8312 15.3312 11.75 15.25C11.6688 15.1688 11.6688 15.0375 11.75 14.9563L13.3531 13.3531C13.5469 13.1594 13.5469 12.8406 13.3531 12.6469Z" fill="black"/>
</svg>
