<svg width="24" height="24" viewBox="0 0 24 24" fill="none" xmlns="http://www.w3.org/2000/svg">
<path d="M17.3375 4.44381C17.9375 3.84381 18.9219 3.85631 19.5344 4.46568C20.1469 5.07506 20.1594 6.05943 19.5562 6.66256C19.3438 6.87506 18.8875 7.05006 18.3875 7.18443C17.8781 7.32193 17.3219 7.41881 16.9406 7.47506C16.8906 7.48131 16.8438 7.49068 16.7969 7.49381C16.6219 7.52193 16.475 7.37193 16.5 7.19693C16.55 6.84693 16.6438 6.27193 16.7812 5.72818C16.7906 5.68756 16.8031 5.64693 16.8125 5.60631C16.9469 5.10943 17.1188 4.65318 17.3344 4.43756L17.3375 4.44381ZM15.9406 5.03756C15.8938 5.18756 15.85 5.33756 15.8125 5.48443C15.6625 6.07506 15.5625 6.68756 15.5094 7.05631C15.3844 7.89381 16.1 8.60943 16.9375 8.48756C17.3094 8.43756 17.9219 8.33756 18.5125 8.18443C18.6594 8.14693 18.8094 8.10631 18.9594 8.05631C20.6938 11.1094 20.2563 15.0563 17.6562 17.6563C15.0562 20.2563 11.1094 20.6938 8.05625 18.9626C8.10313 18.8126 8.14375 18.6626 8.18125 18.5157C8.33125 17.9251 8.43125 17.3126 8.48438 16.9438C8.60938 16.1063 7.89375 15.3907 7.05625 15.5126C6.68438 15.5626 6.07188 15.6626 5.48125 15.8157C5.33438 15.8532 5.18438 15.8938 5.03438 15.9438C3.30625 12.8907 3.74375 8.94381 6.34375 6.34381C8.94375 3.74068 12.8906 3.30631 15.9438 5.03756H15.9406ZM5.60938 16.8157C6.1875 16.6594 6.82188 16.5563 7.2 16.5032C7.375 16.4751 7.52188 16.6251 7.49688 16.8001C7.44375 17.1782 7.34063 17.8126 7.18438 18.3907C7.05 18.8876 6.875 19.3438 6.6625 19.5563C6.0625 20.1563 5.07813 20.1438 4.46563 19.5344C3.85313 18.9251 3.84063 17.9407 4.44375 17.3376C4.65625 17.1251 5.1125 16.9501 5.6125 16.8157H5.60938ZM17.0125 10.3219C16.8625 9.95006 16.3594 9.98131 16.1719 10.3344C15.5656 11.4813 14.725 12.6219 13.6781 13.6688C12.6313 14.7157 11.4906 15.5532 10.3438 16.1626C9.99063 16.3501 9.95938 16.8532 10.3313 17.0032C12.1875 17.7563 14.3906 17.3844 15.8906 15.8844C17.3906 14.3844 17.7625 12.1813 17.0094 10.3251L17.0125 10.3219ZM6.72188 12.9094C6.78438 12.9719 6.86563 13.0094 6.95 13.0157L8.70313 13.1751L8.8625 14.9282C8.87188 15.0157 8.90938 15.0969 8.96875 15.1563C9.16563 15.3532 9.50625 15.2688 9.5875 15.0032L10.5156 11.9594C10.625 11.5969 10.2875 11.2563 9.92188 11.3657L6.875 12.2907C6.60625 12.3719 6.52188 12.7094 6.72188 12.9094ZM12.2906 6.87506L11.3625 9.91881C11.2531 10.2813 11.5906 10.6219 11.9563 10.5126L15 9.58443C15.2688 9.50318 15.3531 9.16568 15.1531 8.96568C15.0906 8.90318 15.0094 8.86568 14.925 8.85943L13.1719 8.70006L13.0125 6.94693C13.0031 6.85943 12.9656 6.77818 12.9062 6.71881C12.7094 6.52193 12.3688 6.60631 12.2875 6.87193L12.2906 6.87506Z" fill="black"/>
</svg>
