<svg width="24" height="24" viewBox="0 0 24 24" fill="none" xmlns="http://www.w3.org/2000/svg">
<path d="M4 12C4 9.87827 4.84285 7.84344 6.34315 6.34315C7.84344 4.84285 9.87827 4 12 4C14.1217 4 16.1566 4.84285 17.6569 6.34315C19.1571 7.84344 20 9.87827 20 12C20 14.1217 19.1571 16.1566 17.6569 17.6569C16.1566 19.1571 14.1217 20 12 20C9.87827 20 7.84344 19.1571 6.34315 17.6569C4.84285 16.1566 4 14.1217 4 12ZM9.5 16C9.5 16.275 9.725 16.5 10 16.5H14C14.275 16.5 14.5 16.275 14.5 16C14.5 15.725 14.275 15.5 14 15.5H10C9.725 15.5 9.5 15.725 9.5 16ZM9 13.25C9.29547 13.25 9.58806 13.1918 9.86104 13.0787C10.134 12.9657 10.3821 12.7999 10.591 12.591C10.7999 12.3821 10.9657 12.134 11.0787 11.861C11.1918 11.5881 11.25 11.2955 11.25 11C11.25 10.7045 11.1918 10.4119 11.0787 10.139C10.9657 9.86598 10.7999 9.61794 10.591 9.40901C10.3821 9.20008 10.134 9.03434 9.86104 8.92127C9.58806 8.8082 9.29547 8.75 9 8.75C8.70453 8.75 8.41194 8.8082 8.13896 8.92127C7.86598 9.03434 7.61794 9.20008 7.40901 9.40901C7.20008 9.61794 7.03434 9.86598 6.92127 10.139C6.8082 10.4119 6.75 10.7045 6.75 11C6.75 11.2955 6.8082 11.5881 6.92127 11.861C7.03434 12.134 7.20008 12.3821 7.40901 12.591C7.61794 12.7999 7.86598 12.9657 8.13896 13.0787C8.41194 13.1918 8.70453 13.25 9 13.25ZM17.25 11C17.25 10.7045 17.1918 10.4119 17.0787 10.139C16.9657 9.86598 16.7999 9.61794 16.591 9.40901C16.3821 9.20008 16.134 9.03434 15.861 8.92127C15.5881 8.8082 15.2955 8.75 15 8.75C14.7045 8.75 14.4119 8.8082 14.139 8.92127C13.866 9.03434 13.6179 9.20008 13.409 9.40901C13.2001 9.61794 13.0343 9.86598 12.9213 10.139C12.8082 10.4119 12.75 10.7045 12.75 11C12.75 11.2955 12.8082 11.5881 12.9213 11.861C13.0343 12.134 13.2001 12.3821 13.409 12.591C13.6179 12.7999 13.866 12.9657 14.139 13.0787C14.4119 13.1918 14.7045 13.25 15 13.25C15.2955 13.25 15.5881 13.1918 15.861 13.0787C16.134 12.9657 16.3821 12.7999 16.591 12.591C16.7999 12.3821 16.9657 12.134 17.0787 11.861C17.1918 11.5881 17.25 11.2955 17.25 11ZM8.25 11C8.25 10.8011 8.32902 10.6103 8.46967 10.4697C8.61032 10.329 8.80109 10.25 9 10.25C9.19891 10.25 9.38968 10.329 9.53033 10.4697C9.67098 10.6103 9.75 10.8011 9.75 11C9.75 11.1989 9.67098 11.3897 9.53033 11.5303C9.38968 11.671 9.19891 11.75 9 11.75C8.80109 11.75 8.61032 11.671 8.46967 11.5303C8.32902 11.3897 8.25 11.1989 8.25 11ZM14.25 11C14.25 10.8011 14.329 10.6103 14.4697 10.4697C14.6103 10.329 14.8011 10.25 15 10.25C15.1989 10.25 15.3897 10.329 15.5303 10.4697C15.671 10.6103 15.75 10.8011 15.75 11C15.75 11.1989 15.671 11.3897 15.5303 11.5303C15.3897 11.671 15.1989 11.75 15 11.75C14.8011 11.75 14.6103 11.671 14.4697 11.5303C14.329 11.3897 14.25 11.1989 14.25 11Z" fill="black"/>
</svg>
