<svg width="24" height="24" viewBox="0 0 24 24" fill="none" xmlns="http://www.w3.org/2000/svg">
<path d="M13.9688 5.24379L13.2188 8.24379C13.1281 8.60316 12.8562 8.86879 12.525 8.96254L12.2656 10H11.2344L11.5531 8.71879C11.3063 8.47816 11.1875 8.11566 11.2781 7.75629L12.0281 4.75629C12.1625 4.22191 12.7062 3.89691 13.2437 4.03129C13.7812 4.16566 14.1062 4.70941 13.9719 5.24379H13.9688ZM15.9344 9.00004L15.2688 10H14.0656L15.1031 8.44379C14.95 8.13441 14.9625 7.75316 15.1687 7.44691L17.1687 4.44691C17.475 3.98441 18.0938 3.86254 18.5562 4.16879C19.0187 4.47504 19.1406 5.09691 18.8344 5.55629L16.8344 8.55629C16.6281 8.86566 16.2812 9.02191 15.9375 9.00004H15.9344ZM5 11H6V11.5V13.5C6 13.775 6.225 14 6.5 14C6.775 14 7 13.775 7 13.5V12.5C7 12.225 7.225 12 7.5 12C7.775 12 8 12.225 8 12.5C8 12.775 8.225 13 8.5 13C8.775 13 9 12.775 9 12.5V11.5V11H16H18H19C19.5531 11 20 11.4469 20 12C20 12.5532 19.5531 13 19 13H18V14C18 15.6344 17.2156 17.0875 16 18V19C16 19.5532 15.5531 20 15 20C14.4469 20 14 19.5532 14 19V18.9C13.6781 18.9657 13.3438 19 13 19H9C8.65625 19 8.32188 18.9657 8 18.9V19C8 19.5532 7.55312 20 7 20C6.44688 20 6 19.5532 6 19V18C4.78437 17.0875 4 15.6344 4 14V12C4 11.4469 4.44687 11 5 11Z" fill="black"/>
</svg>
