<svg width="24" height="24" viewBox="0 0 24 24" fill="none" xmlns="http://www.w3.org/2000/svg">
<path d="M11.7344 4.79372C11.3125 4.89685 10.9094 5.01872 10.5281 5.15935C8.46562 5.92497 7.02187 7.23747 6.0625 8.79997C5.49062 9.73122 5.09687 10.7468 4.8375 11.7812L12.2656 19.2062C12.6875 19.1031 13.0906 18.9812 13.4719 18.8406C15.5344 18.075 16.9781 16.7625 17.9375 15.2C18.5094 14.2687 18.9031 13.2531 19.1594 12.2218L11.7344 4.79372ZM19.475 10.4156C19.6656 8.6406 19.5187 6.90935 19.2344 5.5281C19.15 5.12497 18.8281 4.81247 18.4187 4.74372C16.6 4.4406 14.9844 4.36872 13.5562 4.49685L19.475 10.4156ZM10.4406 19.5L4.525 13.5843C4.33437 15.3593 4.48125 17.0906 4.76562 18.4718C4.85 18.875 5.17187 19.1875 5.58125 19.2562C7.4 19.5594 9.01562 19.6312 10.4437 19.5031L10.4406 19.5ZM12.1469 9.14685C12.3406 8.9531 12.6594 8.9531 12.8531 9.14685L14.8531 11.1468C15.0469 11.3406 15.0469 11.6593 14.8531 11.8531C14.6594 12.0468 14.3406 12.0468 14.1469 11.8531L12.1469 9.8531C11.9531 9.65935 11.9531 9.3406 12.1469 9.14685ZM10.6469 10.6468C10.8406 10.4531 11.1594 10.4531 11.3531 10.6468L13.3531 12.6468C13.5469 12.8406 13.5469 13.1593 13.3531 13.3531C13.1594 13.5468 12.8406 13.5468 12.6469 13.3531L10.6469 11.3531C10.4531 11.1593 10.4531 10.8406 10.6469 10.6468ZM9.14687 12.1468C9.34062 11.9531 9.65937 11.9531 9.85312 12.1468L11.8531 14.1468C12.0469 14.3406 12.0469 14.6593 11.8531 14.8531C11.6594 15.0468 11.3406 15.0468 11.1469 14.8531L9.14687 12.8531C8.95312 12.6593 8.95312 12.3406 9.14687 12.1468Z" fill="black"/>
</svg>
