<svg width="24" height="24" viewBox="0 0 24 24" fill="none" xmlns="http://www.w3.org/2000/svg">
<path d="M6 4C6.55313 4 7 4.44687 7 5V5.5L9.15625 4.9625C10.3469 4.66562 11.6031 4.80312 12.7031 5.35312C14.15 6.07812 15.8531 6.07812 17.3 5.35312L17.6 5.20312C18.2438 4.87813 19 5.34687 19 6.06562V14.8062C19 15.2219 18.7406 15.5969 18.35 15.7437L17.2656 16.15C15.8219 16.6906 14.2156 16.6062 12.8375 15.9187C11.6531 15.325 10.2969 15.1781 9.00938 15.5L7 16V19C7 19.5531 6.55313 20 6 20C5.44687 20 5 19.5531 5 19V16.5V14.4375V6V5C5 4.44687 5.44687 4 6 4ZM7 9.84688L9 9.4125V11.4594L7 11.8938V13.9375L8.525 13.5562C8.68438 13.5156 8.84063 13.4812 9 13.4531V11.4594L10.2156 11.1969C10.475 11.1406 10.7375 11.1187 11 11.1312V9.13125C11.425 9.14375 11.85 9.2125 12.2625 9.33125L13 9.54688V11.6312L11.6969 11.2469C11.4688 11.1812 11.2344 11.1406 11 11.1281V13.3594C11.6812 13.4187 12.3531 13.5687 13 13.8094V11.6312L13.7094 11.8406C14.1313 11.9656 14.5625 12.0406 15 12.0719V10.0625C14.7562 10.0375 14.5125 9.99063 14.275 9.92188L13 9.54688V7.60938C12.5938 7.49063 12.1938 7.33437 11.8063 7.14062C11.55 7.0125 11.2781 6.92187 11 6.86562V9.12813C10.5938 9.11563 10.1875 9.15312 9.79063 9.24062L9 9.4125V7.0625L7 7.5625V9.84688ZM15 14.4906C15.525 14.5375 16.0594 14.4687 16.5625 14.2781L17 14.1156V11.8719L16.7531 11.9281C16.1781 12.0625 15.5875 12.1063 15 12.0688V14.4875V14.4906ZM17 9.82188V7.60625C16.3469 7.79688 15.675 7.89062 15 7.89062V10.0625C15.4344 10.1062 15.875 10.0781 16.3031 9.98125L17 9.81875V9.82188Z" fill="black"/>
</svg>
