<svg width="24" height="24" viewBox="0 0 24 24" fill="none" xmlns="http://www.w3.org/2000/svg">
<path d="M5 5C5 4.44687 4.55313 4 4 4C3.44687 4 3 4.44687 3 5V8V16C3 17.1031 3.89688 18 5 18H11V16H5V9H11V7H5V5ZM12 10C12 10.5531 12.4469 11 13 11H20C20.5531 11 21 10.5531 21 10V6C21 5.44687 20.5531 5 20 5H16.9156C16.65 5 16.3969 4.89375 16.2094 4.70625L15.7937 4.29375C15.6062 4.10625 15.3531 4 15.0875 4H13C12.4469 4 12 4.44687 12 5V10ZM12 19C12 19.5531 12.4469 20 13 20H20C20.5531 20 21 19.5531 21 19V15C21 14.4469 20.5531 14 20 14H16.9156C16.65 14 16.3969 13.8938 16.2094 13.7063L15.7937 13.2906C15.6062 13.1031 15.3531 12.9969 15.0875 12.9969H13C12.4469 12.9969 12 13.4437 12 13.9969V19Z" fill="black"/>
</svg>
