<svg width="24" height="24" viewBox="0 0 24 24" fill="none" xmlns="http://www.w3.org/2000/svg">
<path d="M3 6C3 4.89688 3.89688 4 5 4H10V8C10 8.55313 10.4469 9 11 9H15V10.2063C12.6906 10.8594 11 12.9813 11 15.5C11 17.3469 11.9094 18.9781 13.3031 19.9781C13.2031 19.9937 13.1031 20 13 20H5C3.89688 20 3 19.1031 3 18V6ZM15 8H11V4L15 8ZM16.5 11C17.6935 11 18.8381 11.4741 19.682 12.318C20.5259 13.1619 21 14.3065 21 15.5C21 16.6935 20.5259 17.8381 19.682 18.682C18.8381 19.5259 17.6935 20 16.5 20C15.3065 20 14.1619 19.5259 13.318 18.682C12.4741 17.8381 12 16.6935 12 15.5C12 14.3065 12.4741 13.1619 13.318 12.318C14.1619 11.4741 15.3065 11 16.5 11ZM16.5 14C16.6989 14 16.8897 13.921 17.0303 13.7803C17.171 13.6397 17.25 13.4489 17.25 13.25C17.25 13.0511 17.171 12.8603 17.0303 12.7197C16.8897 12.579 16.6989 12.5 16.5 12.5C16.3011 12.5 16.1103 12.579 15.9697 12.7197C15.829 12.8603 15.75 13.0511 15.75 13.25C15.75 13.4489 15.829 13.6397 15.9697 13.7803C16.1103 13.921 16.3011 14 16.5 14ZM15.5 15.5C15.5 15.775 15.725 16 16 16V17.5C15.725 17.5 15.5 17.725 15.5 18C15.5 18.275 15.725 18.5 16 18.5H16.5H17C17.275 18.5 17.5 18.275 17.5 18C17.5 17.725 17.275 17.5 17 17.5V15.5C17 15.225 16.775 15 16.5 15H16C15.725 15 15.5 15.225 15.5 15.5Z" fill="black"/>
</svg>
