<svg width="24" height="24" viewBox="0 0 24 24" fill="none" xmlns="http://www.w3.org/2000/svg">
<path d="M5.74056 18.2587C4.95306 17.4712 4.81556 16.1743 5.22494 14.6681C5.32494 14.965 5.48744 15.2462 5.73119 15.49C6.21869 15.9775 6.85619 16.1368 7.44994 16.1306C8.03744 16.1275 8.66244 15.965 9.26869 15.715C10.4874 15.2118 11.8312 14.2775 13.0562 13.0556C14.2812 11.8337 15.2124 10.4868 15.7156 9.26809C15.9656 8.66184 16.1281 8.03684 16.1312 7.44934C16.1343 6.85559 15.9749 6.21496 15.4906 5.73059C15.2468 5.48684 14.9656 5.32434 14.6687 5.22434C16.1749 4.81809 17.4749 4.95559 18.2593 5.74309C19.9874 7.47121 18.5874 11.6743 15.1281 15.1337C11.6687 18.5931 7.46869 19.9868 5.74056 18.2587ZM12.3468 12.3462C10.0437 14.6525 7.39681 15.7431 6.43744 14.7806C5.47806 13.8181 6.56556 11.1743 8.87181 8.86809C11.1781 6.56184 13.8218 5.47434 14.7812 6.43371C15.7406 7.39309 14.6531 10.04 12.3468 12.3462Z" fill="black"/>
</svg>
