<svg width="24" height="24" viewBox="0 0 24 24" fill="none" xmlns="http://www.w3.org/2000/svg">
<path d="M11.5999 5.2C11.2686 4.95 10.8186 4.93438 10.4655 5.15313C10.1124 5.37187 9.93739 5.79063 10.0186 6.19688L10.3218 7.71563C9.71552 7.99688 9.16864 8.3375 8.68427 8.7C8.20614 9.05937 7.77802 9.44688 7.41239 9.83437L4.50302 8.1375C4.11239 7.90937 3.61552 7.97188 3.29677 8.29063C2.97802 8.60938 2.90614 9.10312 3.13114 9.49687L4.56239 12L3.13114 14.5031C2.90614 14.8969 2.97489 15.3906 3.29677 15.7094C3.61864 16.0281 4.11239 16.0906 4.50302 15.8625L7.41239 14.1656C7.78114 14.55 8.20614 14.9406 8.68427 15.3C9.16864 15.6625 9.71552 16.0031 10.3218 16.2844L10.0186 17.8031C9.93739 18.2094 10.1155 18.625 10.4655 18.8438C10.8155 19.0625 11.2655 19.0469 11.5999 18.7969L14.0249 16.9781C15.7405 16.8531 17.1968 16.1344 18.3124 15.2969C19.5374 14.3781 20.4124 13.275 20.8624 12.5C21.0436 12.1906 21.0436 11.8062 20.8624 11.4969C20.4124 10.7219 19.5343 9.61875 18.3124 8.7C17.1936 7.8625 15.7405 7.14375 14.0249 7.01875L11.5999 5.2ZM14.9999 12C14.9999 11.7348 15.1053 11.4804 15.2928 11.2929C15.4803 11.1054 15.7347 11 15.9999 11C16.2651 11 16.5195 11.1054 16.707 11.2929C16.8945 11.4804 16.9999 11.7348 16.9999 12C16.9999 12.2652 16.8945 12.5196 16.707 12.7071C16.5195 12.8946 16.2651 13 15.9999 13C15.7347 13 15.4803 12.8946 15.2928 12.7071C15.1053 12.5196 14.9999 12.2652 14.9999 12Z" fill="black"/>
</svg>
