<svg width="24" height="24" viewBox="0 0 24 24" fill="none" xmlns="http://www.w3.org/2000/svg">
<path d="M8.00004 4C8.53048 4 9.03919 4.21071 9.41426 4.58579C9.78933 4.96086 10 5.46957 10 6C10 6.53043 9.78933 7.03914 9.41426 7.41421C9.03919 7.78929 8.53048 8 8.00004 8C7.46961 8 6.9609 7.78929 6.58583 7.41421C6.21076 7.03914 6.00004 6.53043 6.00004 6C6.00004 5.46957 6.21076 4.96086 6.58583 4.58579C6.9609 4.21071 7.46961 4 8.00004 4ZM7.50942 9H8.49067C8.85942 9 9.20942 9.1 9.50942 9.27812C9.50317 9.35 9.50004 9.425 9.50004 9.5C9.50004 10.2594 9.84067 10.9406 10.375 11.4C9.25942 11.9844 8.50004 13.1531 8.50004 14.5V15C8.50004 15.8875 8.88754 16.6875 9.50004 17.2375V19C9.50004 19.1906 9.52504 19.3719 9.57504 19.5469C9.30317 19.8281 8.92192 20 8.50004 20H7.50004C6.67192 20 6.00004 19.3281 6.00004 18.5V16H5.32504C4.65942 16 4.18129 15.3656 4.36254 14.725L5.58442 10.45C5.82817 9.59062 6.61567 9 7.50629 9H7.50942ZM15.5 20C15.0782 20 14.6969 19.825 14.425 19.5469C14.475 19.375 14.5 19.1906 14.5 19V17.2375C15.1125 16.6875 15.5 15.8906 15.5 15V14.5C15.5 13.1531 14.7407 11.9844 13.625 11.4C14.1594 10.9406 14.5 10.2594 14.5 9.5C14.5 9.425 14.4969 9.35 14.4907 9.27812C14.7907 9.1 15.1407 9 15.5094 9H16.4907C17.3844 9 18.1688 9.59062 18.4125 10.45L19.6344 14.725C19.8157 15.3625 19.3375 16 18.6719 16H18V18.5C18 19.3281 17.3282 20 16.5 20H15.5ZM16 4C16.5305 4 17.0392 4.21071 17.4143 4.58579C17.7893 4.96086 18 5.46957 18 6C18 6.53043 17.7893 7.03914 17.4143 7.41421C17.0392 7.78929 16.5305 8 16 8C15.4696 8 14.9609 7.78929 14.5858 7.41421C14.2108 7.03914 14 6.53043 14 6C14 5.46957 14.2108 4.96086 14.5858 4.58579C14.9609 4.21071 15.4696 4 16 4ZM12 8C12.197 8 12.3921 8.0388 12.5741 8.11418C12.7561 8.18956 12.9214 8.30005 13.0607 8.43934C13.2 8.57863 13.3105 8.74399 13.3859 8.92597C13.4612 9.10796 13.5 9.30302 13.5 9.5C13.5 9.69698 13.4612 9.89204 13.3859 10.074C13.3105 10.256 13.2 10.4214 13.0607 10.5607C12.9214 10.6999 12.7561 10.8104 12.5741 10.8858C12.3921 10.9612 12.197 11 12 11C11.8031 11 11.608 10.9612 11.426 10.8858C11.244 10.8104 11.0787 10.6999 10.9394 10.5607C10.8001 10.4214 10.6896 10.256 10.6142 10.074C10.5388 9.89204 10.5 9.69698 10.5 9.5C10.5 9.30302 10.5388 9.10796 10.6142 8.92597C10.6896 8.74399 10.8001 8.57863 10.9394 8.43934C11.0787 8.30005 11.244 8.18956 11.426 8.11418C11.608 8.0388 11.8031 8 12 8ZM12 12C13.3813 12 14.5 13.1187 14.5 14.5V15C14.5 15.7406 14.0969 16.3875 13.5 16.7312V19C13.5 19.5531 13.0532 20 12.5 20H11.5C10.9469 20 10.5 19.5531 10.5 19V16.7312C9.90317 16.3844 9.50004 15.7406 9.50004 15V14.5C9.50004 13.1187 10.6188 12 12 12Z" fill="black"/>
</svg>
