<svg width="24" height="24" viewBox="0 0 24 24" fill="none" xmlns="http://www.w3.org/2000/svg">
<path d="M20 12C20 16.4187 16.4187 20 12 20C11.6687 20 11.3406 19.9813 11.0188 19.9406C11.1438 19.7625 11.2469 19.5656 11.325 19.3531L11.9812 17.55L13.1 17.1438C13.8469 16.8719 14.2969 16.1438 14.25 15.3906C14.2094 14.6281 13.7344 13.95 13.025 13.6531L9.19375 12.0406C8.94062 11.9344 8.64687 12.0531 8.5375 12.3062C8.42812 12.5594 8.55 12.8531 8.80312 12.9625L11.3781 14.0469L8.5 15.0938V15C8.5 14.0344 7.71562 13.25 6.75 13.25C5.78438 13.25 5 14.0344 5 15V15.875C4.3625 14.7281 4 13.4062 4 12C4 7.58125 7.58125 4 12 4C16.4187 4 20 7.58125 20 12ZM10.5125 9.5C10.5125 9.23478 10.4071 8.98043 10.2196 8.79289C10.0321 8.60536 9.77772 8.5 9.5125 8.5C9.24728 8.5 8.99293 8.60536 8.80539 8.79289C8.61786 8.98043 8.5125 9.23478 8.5125 9.5C8.5125 9.76522 8.61786 10.0196 8.80539 10.2071C8.99293 10.3946 9.24728 10.5 9.5125 10.5C9.77772 10.5 10.0321 10.3946 10.2196 10.2071C10.4071 10.0196 10.5125 9.76522 10.5125 9.5ZM14.5125 11C14.7777 11 15.0321 10.8946 15.2196 10.7071C15.4071 10.5196 15.5125 10.2652 15.5125 10C15.5125 9.73478 15.4071 9.48043 15.2196 9.29289C15.0321 9.10536 14.7777 9 14.5125 9C14.2473 9 13.9929 9.10536 13.8054 9.29289C13.6179 9.48043 13.5125 9.73478 13.5125 10C13.5125 10.2652 13.6179 10.5196 13.8054 10.7071C13.9929 10.8946 14.2473 11 14.5125 11ZM8.46875 7.80938C9.20312 7.39063 10.1219 7.47812 10.7625 8.02812L11.175 8.38125C11.3844 8.5625 11.7 8.5375 11.8812 8.32812C12.0625 8.11875 12.0375 7.80313 11.8281 7.62188L11.4156 7.26875C10.45 6.44062 9.07187 6.3125 7.97187 6.94062L7.75 7.06562C7.50938 7.20312 7.42812 7.50938 7.5625 7.74688C7.69688 7.98438 8.00625 8.06875 8.24375 7.93438L8.46562 7.80938H8.46875ZM7.5 15V16.5188L12.2437 14.7937C12.6344 14.6531 13.0625 14.8531 13.2063 15.2437C13.35 15.6344 13.1469 16.0625 12.7563 16.2063L11.2 16.7719L10.3844 19.0125C10.1688 19.6062 9.60625 20 8.975 20H7.5C6.67188 20 6 19.3281 6 18.5V15C6 14.5844 6.33437 14.25 6.75 14.25C7.16563 14.25 7.5 14.5844 7.5 15Z" fill="black"/>
</svg>
