<svg width="24" height="24" viewBox="0 0 24 24" fill="none" xmlns="http://www.w3.org/2000/svg">
<path d="M19.35 4.26571C20.0313 4.73759 20.2031 5.67196 19.7313 6.35321L18.1 8.71259L15.6031 7.04696L17.2625 4.64696C17.7344 3.96571 18.6688 3.79384 19.35 4.26571ZM15.0344 7.87196L17.5313 9.53759L11.5313 18.2157C10.7625 19.3251 9.50315 19.9907 8.15315 19.9938C5.8594 20.0001 4.00315 18.1345 4.01877 15.8407V15.772C4.02502 14.9688 4.26252 14.1845 4.70002 13.5095L5.24065 12.6813C5.69377 11.9876 6.6219 11.7938 7.31565 12.247C8.0094 12.7001 8.20315 13.6282 7.75002 14.322L7.2094 15.1501C7.0844 15.3407 7.01565 15.5657 7.01565 15.7938V15.8626C7.01252 16.4876 7.51565 16.9938 8.14065 16.9907C8.50627 16.9907 8.85002 16.8095 9.0594 16.5063L15.0344 7.87196ZM17.5 15.0001C18.1631 15.0001 18.799 15.2635 19.2678 15.7323C19.7366 16.2012 20 16.837 20 17.5001C20 18.1631 19.7366 18.799 19.2678 19.2679C18.799 19.7367 18.1631 20.0001 17.5 20.0001C16.837 20.0001 16.2011 19.7367 15.7323 19.2679C15.2634 18.799 15 18.1631 15 17.5001C15 16.837 15.2634 16.2012 15.7323 15.7323C16.2011 15.2635 16.837 15.0001 17.5 15.0001Z" fill="black"/>
</svg>
