<svg width="24" height="24" viewBox="0 0 24 24" fill="none" xmlns="http://www.w3.org/2000/svg">
<path d="M11 20C12.7437 20 14.3563 19.4406 15.6719 18.4937C15.3438 18.2031 15.1125 17.8031 15.0312 17.3531L13.7125 16.9563C13.2906 16.8313 13 16.4406 13 16C13 15.5594 13.2906 15.1687 13.7125 15.0437L15.0312 14.6469C15.1969 13.7094 16.0156 13 17 13C17.0219 13 17.0438 13 17.0656 13C17.4781 12.5406 18.075 12.25 18.7437 12.25C18.8281 12.25 18.9125 12.2562 18.9969 12.2656C19 12.1781 19 12.0906 19 12C19 7.58125 15.4187 4 11 4C6.58125 4 3 7.58125 3 12C3 16.4187 6.58125 20 11 20ZM9.1 11.45C9.26562 11.2281 9.57813 11.1844 9.8 11.35C10.0219 11.5156 10.0656 11.8281 9.9 12.05C8.95 13.3156 7.05 13.3156 6.1 12.05C5.93437 11.8281 5.97813 11.5156 6.2 11.35C6.42188 11.1844 6.73438 11.2281 6.9 11.45C7.45 12.1844 8.55 12.1844 9.1 11.45ZM12.9 11.45C13.45 12.1844 14.55 12.1844 15.1 11.45C15.2656 11.2281 15.5781 11.1844 15.8 11.35C16.0219 11.5156 16.0656 11.8281 15.9 12.05C14.95 13.3156 13.05 13.3156 12.1 12.05C11.9344 11.8281 11.9781 11.5156 12.2 11.35C12.4219 11.1844 12.7344 11.2281 12.9 11.45ZM11 14.75C11.3315 14.75 11.6495 14.8817 11.8839 15.1161C12.1183 15.3505 12.25 15.6685 12.25 16C12.25 16.3315 12.1183 16.6495 11.8839 16.8839C11.6495 17.1183 11.3315 17.25 11 17.25C10.6685 17.25 10.3505 17.1183 10.1161 16.8839C9.8817 16.6495 9.75 16.3315 9.75 16C9.75 15.6685 9.8817 15.3505 10.1161 15.1161C10.3505 14.8817 10.6685 14.75 11 14.75ZM19.9813 14.5781C19.9844 14.5531 19.9844 14.525 19.9844 14.5C19.9844 13.8094 19.425 13.25 18.7375 13.25C18.2094 13.25 17.7562 13.5781 17.575 14.0437C17.4719 14.0156 17.3594 14 17.2469 14C16.5562 14 16 14.5594 16 15.25L14.2469 15.6906C14.1031 15.725 14.0031 15.8531 14.0031 16C14.0031 16.1469 14.1031 16.275 14.2469 16.3094L16.025 16.7531C16.0094 16.8313 16 16.9125 16 16.9969C16 17.6875 16.5594 18.2469 17.2469 18.2469C17.4 18.2469 17.5469 18.2187 17.6844 18.1687C17.9062 18.5156 18.2938 18.7469 18.7375 18.7469C19.4281 18.7469 19.9844 18.1875 19.9844 17.4969C19.9844 17.4719 19.9844 17.4437 19.9813 17.4187C20.575 17.2187 21 16.6562 21 15.9969C21 15.3375 20.575 14.775 19.9813 14.575V14.5781Z" fill="black"/>
</svg>
