<svg width="24" height="24" viewBox="0 0 24 24" fill="none" xmlns="http://www.w3.org/2000/svg">
<path d="M3 7C3 5.34375 4.34375 4 6 4C7.65625 4 9 5.34375 9 7H3ZM8.66875 8L7.15 11.6875C7.05 11.9281 7 12.1875 7 12.45V19C7 19.3656 7.09688 19.7063 7.26875 20H4.5C3.67188 20 3 19.3281 3 18.5V8H8.66875ZM8 19V12.4469C8 12.3156 8.025 12.1875 8.075 12.0656L9.60313 8.35625C9.69688 8.125 9.875 7.94062 10.1 7.83437L14.0719 5.95312C14.3438 5.825 14.6562 5.825 14.9281 5.95312L18.9 7.83437C19.125 7.94062 19.3031 8.12812 19.3969 8.35625L20.925 12.0656C20.975 12.1875 21 12.3156 21 12.4469V19C21 19.5531 20.5531 20 20 20H16.5V18C16.5 17.1719 15.8281 16.5 15 16.5H14C13.1719 16.5 12.5 17.1719 12.5 18V20H9C8.44688 20 8 19.5531 8 19ZM13 11.75V13.25C13 13.6656 13.3344 14 13.75 14H15.25C15.6656 14 16 13.6656 16 13.25V11.75C16 11.3344 15.6656 11 15.25 11H13.75C13.3344 11 13 11.3344 13 11.75Z" fill="black"/>
</svg>
