<svg width="24" height="24" viewBox="0 0 24 24" fill="none" xmlns="http://www.w3.org/2000/svg">
<path d="M11 6H13V8.92812C13 9.87812 13.5281 10.6812 14.2594 11.1062C15.6031 11.8875 16.4969 13.3375 16.5 14.9937C14.6687 14.9406 13.8313 14.6 13.0656 14.2875C12.3781 14.0063 11.7469 13.75 10.5 13.75C9.17812 13.75 8.20625 14.0375 7.54688 14.3375C7.75 12.9594 8.57812 11.7844 9.74062 11.1062C10.4719 10.6812 11 9.87812 11 8.92812V6ZM15 8.92812V6C15.5531 6 16 5.55313 16 5C16 4.44687 15.5531 4 15 4H14.5H9.5H9C8.44688 4 8 4.44687 8 5C8 5.55313 8.44688 6 9 6V8.92812C9 9.11562 8.89687 9.28438 8.73438 9.37813C6.8 10.5063 5.5 12.6 5.5 15C5.5 16.75 6.19062 18.3406 7.31875 19.5094C7.64062 19.8438 8.10312 20 8.56875 20H15.4312C15.9 20 16.3594 19.8438 16.6844 19.5094C17.8094 18.3406 18.5 16.75 18.5 15C18.5 12.6 17.2 10.5063 15.2656 9.37813C15.1031 9.28438 15 9.11562 15 8.92812Z" fill="black"/>
</svg>
