<svg width="24" height="24" viewBox="0 0 24 24" fill="none" xmlns="http://www.w3.org/2000/svg">
<path d="M6.4 5.2C6.30625 5.075 6.15625 5 6 5C5.84375 5 5.69375 5.075 5.6 5.2L4.2 7.06562C4.06875 7.24062 4 7.45 4 7.66563V18C4 18.5531 4.44687 19 5 19H7C7.55312 19 8 18.5531 8 18V17H9V15H8V11H9V9H8V7.66563C8 7.45 7.93125 7.2375 7.8 7.06562L6.4 5.2ZM12.4 5.2C12.3062 5.075 12.1562 5 12 5C11.8438 5 11.6937 5.075 11.6 5.2L10.2 7.06562C10.0687 7.2375 10 7.45 10 7.66563V18C10 18.5531 10.4469 19 11 19H13C13.5531 19 14 18.5531 14 18V17H15V15H14V11H15V9H14V7.66563C14 7.45 13.9313 7.2375 13.8 7.06562L12.4 5.2ZM18 5C17.8438 5 17.6938 5.075 17.6 5.2L16.2 7.06562C16.0687 7.2375 16 7.45 16 7.66563V18C16 18.5531 16.4469 19 17 19H19C19.5531 19 20 18.5531 20 18V7.66563C20 7.45 19.9313 7.2375 19.8 7.06562L18.4 5.2C18.3062 5.075 18.1562 5 18 5Z" fill="black"/>
</svg>
