<svg width="24" height="24" viewBox="0 0 24 24" fill="none" xmlns="http://www.w3.org/2000/svg">
<path d="M17 9.99968C17 9.00593 16.5156 7.37468 14.675 5.54968C14.3063 5.18406 13.7187 5.21531 13.3531 5.58093L13 5.93406L11.5625 4.49656C11.3719 4.30593 11.1219 4.20593 10.875 4.20906C10.6906 4.21218 10.5063 4.26843 10.35 4.39031C8.95313 5.47781 7 7.60281 7 9.99968C7 10.9466 7.2625 11.8309 7.71875 12.5841C7.85938 12.6622 7.99375 12.7497 8.12187 12.8434C8.62187 12.2309 9.26563 11.7372 10.0031 11.4153C10.0625 10.3059 11.1719 9.20906 11.7125 8.74343C11.8812 8.59656 12.1219 8.59656 12.2906 8.74343C12.8312 9.21218 13.9406 10.3059 14 11.4153C14.7344 11.7372 15.3781 12.2278 15.8813 12.8434C16.0094 12.7497 16.1469 12.6653 16.2844 12.5841C16.7406 11.8309 17.0031 10.9466 17.0031 9.99968H17ZM2 16.4997C2 18.4341 3.56562 19.9997 5.5 19.9997H12H18.5C20.4344 19.9997 22 18.4341 22 16.4997C22 14.5653 20.4344 12.9997 18.5 12.9997C17.3438 12.9997 16.3156 13.5622 15.6781 14.4278C15.0688 12.9997 13.65 11.9997 12 11.9997C10.35 11.9997 8.93125 12.9997 8.32188 14.4278C7.68438 13.5622 6.65625 12.9997 5.5 12.9997C3.56562 12.9997 2 14.5653 2 16.4997Z" fill="black"/>
</svg>
