<svg width="24" height="24" viewBox="0 0 24 24" fill="none" xmlns="http://www.w3.org/2000/svg">
<path d="M4 12C4 9.87827 4.84285 7.84344 6.34315 6.34315C7.84344 4.84285 9.87827 4 12 4C14.1217 4 16.1566 4.84285 17.6569 6.34315C19.1571 7.84344 20 9.87827 20 12C20 14.1217 19.1571 16.1566 17.6569 17.6569C16.1566 19.1571 14.1217 20 12 20C9.87827 20 7.84344 19.1571 6.34315 17.6569C4.84285 16.1566 4 14.1217 4 12ZM10.3594 9.0125C10.1844 9.30625 9.86562 9.5 9.5 9.5C8.94687 9.5 8.5 9.05313 8.5 8.5C8.5 8.21562 8.61875 7.95625 8.8125 7.775C8.70938 7.75938 8.60625 7.75 8.5 7.75C7.39688 7.75 6.5 8.64688 6.5 9.75V10.0719C6.5 10.5844 6.91562 11 7.42812 11H9.57188C10.0844 11 10.5 10.5844 10.5 10.0719V9.75C10.5 9.49062 10.45 9.24062 10.3594 9.0125ZM16 9.5C15.4469 9.5 15 9.05313 15 8.5C15 8.23438 15.1031 7.99062 15.275 7.8125C15.1062 7.77188 14.9313 7.75 14.75 7.75C13.5063 7.75 12.5 8.75625 12.5 10V10.2344C12.5 10.6562 12.8438 11 13.2656 11H16.2375C16.6594 11 17.0031 10.6562 17.0031 10.2344V10C17.0031 9.675 16.9344 9.36875 16.8125 9.09062C16.6312 9.34062 16.3375 9.5 16.0031 9.5H16ZM11.6719 17.9937C11.7563 17.9969 11.8406 18 11.925 18H12.0781C13.8 18 15.3625 17.1844 16.3594 15.8906C16.85 15.25 17.2031 14.4969 17.3719 13.6625C17.4406 13.3188 17.1781 13 16.8281 13H7.175C6.825 13 6.5625 13.3188 6.63125 13.6625C7.11875 16.1031 9.20625 17.8812 11.6687 17.9937H11.6719ZM11.5031 16.9781C11.55 15.6 12.6844 14.4969 14.0719 14.4969C14.6937 14.4969 15.2625 14.7156 15.7063 15.0813C14.9063 16.2531 13.5656 17 12.075 17H11.9219C11.7781 17 11.6375 16.9937 11.5 16.9812L11.5031 16.9781Z" fill="black"/>
</svg>
