<svg width="24" height="24" viewBox="0 0 24 24" fill="none" xmlns="http://www.w3.org/2000/svg">
<path d="M20 17C20 18.1031 19.1031 19 18 19H6C4.89688 19 4 18.1031 4 17V7C4 5.89688 4.89688 5 6 5H10C10.6281 5 11.2219 5.29687 11.6 5.8L12.2 6.6C12.3875 6.85312 12.6844 7 13 7H18C19.1031 7 20 7.89687 20 9V17ZM15.5188 12.1219C15.7156 12.0094 15.8156 11.775 15.7312 11.5594C15.6656 11.3875 15.5875 11.2219 15.5 11.0625L15.4281 10.9375C15.3313 10.7781 15.225 10.6281 15.1094 10.4844C14.9656 10.3063 14.7125 10.275 14.5156 10.3906L14.425 10.4437C14.1375 10.6094 13.7875 10.5687 13.5 10.4031C13.2125 10.2375 12.9969 9.95 12.9969 9.61875V9.5125C12.9969 9.28437 12.8438 9.08125 12.6187 9.04688C12.4156 9.01562 12.2094 9 11.9969 9C11.7844 9 11.5781 9.01562 11.375 9.04688C11.15 9.08125 10.9969 9.28437 10.9969 9.5125V9.61875C10.9969 9.95 10.7812 10.2375 10.4938 10.4031C10.2063 10.5687 9.85625 10.6094 9.56875 10.4437L9.47813 10.3906C9.28125 10.2781 9.02813 10.3094 8.88438 10.4844C8.76875 10.6281 8.6625 10.7812 8.56563 10.9406L8.49375 11.0625C8.40625 11.2219 8.32812 11.3875 8.2625 11.5594C8.18125 11.7719 8.27812 12.0062 8.475 12.1219L8.56563 12.175C8.85313 12.3406 8.99375 12.6687 8.99375 13C8.99375 13.3313 8.85313 13.6594 8.56563 13.825L8.47188 13.8781C8.275 13.9906 8.175 14.225 8.25938 14.4375C8.325 14.6094 8.40312 14.7719 8.49062 14.9312L8.56563 15.0594C8.6625 15.2188 8.76562 15.3687 8.88125 15.5125C9.025 15.6906 9.27812 15.7219 9.475 15.6062L9.56563 15.5531C9.85313 15.3875 10.2031 15.4281 10.4906 15.5938C10.7781 15.7594 10.9938 16.0469 10.9938 16.3781V16.4844C10.9938 16.7125 11.1469 16.9156 11.3719 16.95C11.575 16.9812 11.7812 16.9969 11.9938 16.9969C12.2063 16.9969 12.4125 16.9812 12.6156 16.95C12.8406 16.9156 12.9937 16.7125 12.9937 16.4844V16.3781C12.9937 16.0469 13.2094 15.7594 13.4969 15.5938C13.7844 15.4281 14.1344 15.3875 14.4219 15.5531L14.5125 15.6062C14.7094 15.7188 14.9625 15.6875 15.1062 15.5125C15.2219 15.3687 15.3281 15.2188 15.4219 15.0594L15.4969 14.9281C15.5844 14.7688 15.6625 14.6062 15.7281 14.4344C15.8094 14.2219 15.7125 13.9875 15.5156 13.875L15.4219 13.8219C15.1344 13.6562 14.9937 13.3281 14.9937 12.9969C14.9937 12.6656 15.1344 12.3375 15.4219 12.1719L15.5156 12.1187L15.5188 12.1219ZM10.75 13C10.75 12.6685 10.8817 12.3505 11.1161 12.1161C11.3505 11.8817 11.6685 11.75 12 11.75C12.3315 11.75 12.6495 11.8817 12.8839 12.1161C13.1183 12.3505 13.25 12.6685 13.25 13C13.25 13.3315 13.1183 13.6495 12.8839 13.8839C12.6495 14.1183 12.3315 14.25 12 14.25C11.6685 14.25 11.3505 14.1183 11.1161 13.8839C10.8817 13.6495 10.75 13.3315 10.75 13Z" fill="black"/>
</svg>
