<svg width="24" height="24" viewBox="0 0 24 24" fill="none" xmlns="http://www.w3.org/2000/svg">
<path d="M20 12C20 14.2656 19.0594 16.3094 17.5469 17.7656L17.025 17.5906C16.6531 17.4656 16.3531 17.2063 16.175 16.875C16.6969 16.4812 17 16.0094 17 15.5C17 14.1187 14.7625 13 12 13C9.2375 13 7 14.1187 7 15.5C7 16.0094 7.30312 16.4812 7.825 16.875C7.64687 17.2063 7.35 17.4688 6.975 17.5906L6.45312 17.7656C4.94062 16.3094 4 14.2656 4 12C4 7.58125 7.58125 4 12 4C16.4187 4 20 7.58125 20 12ZM7.625 8.40938C7.625 8.49688 7.65625 8.58125 7.7125 8.64687L8.8375 9.99687L7.7125 11.3469C7.65625 11.4125 7.625 11.4969 7.625 11.5844C7.625 11.8656 7.925 12.0437 8.17188 11.9125L10.9812 10.4156C11.3156 10.2375 11.3156 9.75625 10.9812 9.57812L8.17188 8.08125C7.925 7.95 7.625 8.12813 7.625 8.40938ZM15.8281 8.08125L13.0188 9.57812C12.6844 9.75625 12.6844 10.2375 13.0188 10.4156L15.8281 11.9125C16.075 12.0437 16.375 11.8656 16.375 11.5844C16.375 11.4969 16.3438 11.4125 16.2875 11.3469L15.1625 9.99687L16.2875 8.64687C16.3438 8.58125 16.375 8.49688 16.375 8.40938C16.375 8.12813 16.075 7.95 15.8281 8.08125ZM4 18C4.26522 18 4.51957 18.1054 4.70711 18.2929C4.89464 18.4804 5 18.7348 5 19C5 19.2652 4.89464 19.5196 4.70711 19.7071C4.51957 19.8946 4.26522 20 4 20C3.73478 20 3.48043 19.8946 3.29289 19.7071C3.10536 19.5196 3 19.2652 3 19C3 18.7348 3.10536 18.4804 3.29289 18.2929C3.48043 18.1054 3.73478 18 4 18ZM19 18C19 17.7348 19.1054 17.4804 19.2929 17.2929C19.4804 17.1054 19.7348 17 20 17C20.2652 17 20.5196 17.1054 20.7071 17.2929C20.8946 17.4804 21 17.7348 21 18C21 18.2652 20.8946 18.5196 20.7071 18.7071C20.5196 18.8946 20.2652 19 20 19C19.7348 19 19.4804 18.8946 19.2929 18.7071C19.1054 18.5196 19 18.2652 19 18ZM9 16.3781V14.5844C9.7375 14.2375 10.7906 14 12 14C13.2094 14 14.2625 14.2375 15 14.5844V16.3781C15 17.3469 15.6188 18.2063 16.5375 18.5125L17.6031 18.8687C17.8406 18.9469 18 19.1687 18 19.4187C18 19.7406 17.7406 20 17.4187 20H6.58125C6.25937 20 6 19.7406 6 19.4187C6 19.1687 6.15937 18.9469 6.39687 18.8687L7.4625 18.5125C8.38125 18.2063 9 17.3469 9 16.3781ZM12.5 16C12.3674 16 12.2402 16.0527 12.1464 16.1464C12.0527 16.2402 12 16.3674 12 16.5C12 16.6326 12.0527 16.7598 12.1464 16.8536C12.2402 16.9473 12.3674 17 12.5 17C12.6326 17 12.7598 16.9473 12.8536 16.8536C12.9473 16.7598 13 16.6326 13 16.5C13 16.3674 12.9473 16.2402 12.8536 16.1464C12.7598 16.0527 12.6326 16 12.5 16ZM11 17.5C11 17.3674 10.9473 17.2402 10.8536 17.1464C10.7598 17.0527 10.6326 17 10.5 17C10.3674 17 10.2402 17.0527 10.1464 17.1464C10.0527 17.2402 10 17.3674 10 17.5C10 17.6326 10.0527 17.7598 10.1464 17.8536C10.2402 17.9473 10.3674 18 10.5 18C10.6326 18 10.7598 17.9473 10.8536 17.8536C10.9473 17.7598 11 17.6326 11 17.5Z" fill="black"/>
</svg>
