<svg width="24" height="24" viewBox="0 0 24 24" fill="none" xmlns="http://www.w3.org/2000/svg">
<path d="M17.8531 4.8524C18.0344 4.67115 18.05 4.38052 17.8875 4.18052C17.725 3.98052 17.4375 3.9399 17.2219 4.08365L13.8938 6.3024C13.025 6.88365 12.5 7.86177 12.5 8.90865C12.5 9.51177 12.6719 10.093 12.9906 10.593L5.29375 18.293C4.90313 18.6836 4.90313 19.318 5.29375 19.7086C5.68438 20.0993 6.31875 20.0993 6.70937 19.7086L14.4062 12.0086C14.9062 12.3274 15.4906 12.4993 16.0906 12.4993C17.1375 12.4993 18.1156 11.9743 18.6969 11.1055L20.9156 7.7774C21.0594 7.5649 21.0156 7.2774 20.8156 7.1149C20.6156 6.9524 20.3281 6.9649 20.1437 7.14927L17.2937 9.99927C17.1312 10.1618 16.8688 10.1618 16.7063 9.99927C16.5531 9.84615 16.5437 9.59927 16.6875 9.43365L19.3781 6.3274C19.55 6.13052 19.5406 5.83052 19.3531 5.64615C19.1656 5.46177 18.8719 5.44927 18.6719 5.62115L15.5656 8.31177C15.4 8.45552 15.1531 8.44615 15 8.29302C14.8375 8.13052 14.8375 7.86802 15 7.70552L17.8531 4.8524ZM4.64062 4.2274C4.49688 4.08052 4.29688 3.99927 4.09063 3.99927C3.74063 3.99927 3.43437 4.23365 3.35625 4.57427C3.20937 5.20552 3 6.23365 3 6.99927C3 9.6024 4.50625 11.0774 7.02812 13.543C7.23125 13.743 7.44375 13.9493 7.6625 14.1649C7.72187 14.2211 7.78125 14.2743 7.84688 14.3243L11.2937 10.8774L4.64062 4.2274ZM17.2937 19.7055C17.6844 20.0961 18.3188 20.0961 18.7094 19.7055C19.1 19.3149 19.1 18.6805 18.7094 18.2899L14.1219 13.7055L12.7063 15.1211L17.2937 19.7055Z" fill="black"/>
</svg>
