<svg width="24" height="24" viewBox="0 0 24 24" fill="none" xmlns="http://www.w3.org/2000/svg">
<path d="M12 20C14.1217 20 16.1566 19.1571 17.6569 17.6569C19.1571 16.1566 20 14.1217 20 12C20 9.87827 19.1571 7.84344 17.6569 6.34315C16.1566 4.84285 14.1217 4 12 4C9.87827 4 7.84344 4.84285 6.34315 6.34315C4.84285 7.84344 4 9.87827 4 12C4 14.1217 4.84285 16.1566 6.34315 17.6569C7.84344 19.1571 9.87827 20 12 20ZM9.14687 14.2719C9.83437 13.5844 10.8312 13 12 13C13.1688 13 14.1656 13.5844 14.8531 14.2719C15.2 14.6188 15.4813 15.0031 15.6781 15.3781C15.8719 15.7438 16 16.1406 16 16.5C16 16.6625 15.9188 16.8188 15.7844 16.9125C15.65 17.0063 15.4781 17.0281 15.325 16.9688L14.6844 16.7281C13.8437 16.4125 12.95 16.25 12.05 16.25H11.95C11.05 16.25 10.1594 16.4125 9.31563 16.7281L8.675 16.9688C8.52188 17.025 8.35 17.0063 8.21562 16.9125C8.08125 16.8188 8 16.6656 8 16.5C8 16.1375 8.13125 15.7438 8.32188 15.3781C8.51875 15.0031 8.8 14.6188 9.14687 14.2719ZM10.6031 9.14687C10.7969 9.34062 10.7969 9.65938 10.6031 9.85313L10.3719 10.0844C9.63437 10.8219 8.6875 11.3094 7.65937 11.4812L7.58125 11.4938C7.30937 11.5406 7.05 11.3563 7.00625 11.0813C6.9625 10.8063 7.14375 10.55 7.41875 10.5062L7.49688 10.4938C8.31875 10.3563 9.07812 9.96563 9.66875 9.37813L9.9 9.14687C10.0938 8.95312 10.4125 8.95312 10.6062 9.14687H10.6031ZM13.3969 9.85313C13.2031 9.65938 13.2031 9.34062 13.3969 9.14687C13.5906 8.95312 13.9094 8.95312 14.1031 9.14687L14.3344 9.37813C14.925 9.96875 15.6844 10.3594 16.5063 10.4938L16.5844 10.5062C16.8563 10.5531 17.0406 10.8094 16.9969 11.0813C16.9531 11.3531 16.6937 11.5375 16.4219 11.4938L16.3438 11.4812C15.3156 11.3094 14.3656 10.8219 13.6313 10.0844L13.4 9.85313H13.3969Z" fill="black"/>
</svg>
