<svg width="24" height="24" viewBox="0 0 24 24" fill="none" xmlns="http://www.w3.org/2000/svg">
<path d="M17.6406 12.0156L17.6187 11.9563C16.5562 9.025 14.8125 6.39062 12.5344 4.26562L12.4313 4.17188C12.3156 4.0625 12.1594 4 12 4C11.8406 4 11.6844 4.0625 11.5687 4.17188L11.4656 4.26562C9.1875 6.39062 7.44375 9.025 6.38125 11.9563L6.35938 12.0156C6.12188 12.6656 6 13.3563 6 14.05C6 17.3344 8.7125 20 12 20C15.2875 20 18 17.3344 18 14.05C18 13.3563 17.8781 12.6687 17.6406 12.0156ZM11.9 8.63438C11.9625 8.55 12.0625 8.5 12.1656 8.5C12.35 8.5 12.5 8.65 12.5 8.83437V9.19063C12.5 9.46875 12.6125 9.73437 12.8094 9.92812L14.4187 11.5125C15.1094 12.1937 15.5 13.125 15.5 14.0938C15.5 15.975 13.975 17.5 12.0938 17.5H12C10.0656 17.5 8.5 15.9344 8.5 14V13.7437C8.5 13.0812 8.74375 12.4437 9.18125 11.95L9.39687 11.7063C9.4625 11.6313 9.55625 11.5906 9.65625 11.5906C9.84687 11.5906 10 11.7437 10 11.9344V13.3094C10 14.0687 10.6188 14.6844 11.3781 14.6844C12.1344 14.6844 12.75 14.0719 12.75 13.3156C12.75 12.9531 12.6062 12.6031 12.35 12.3469L11.9375 11.9344C11.5 11.4969 11.2531 10.9 11.2531 10.2781C11.2531 9.77187 11.4188 9.27812 11.7219 8.875L11.9031 8.63125L11.9 8.63438Z" fill="black"/>
</svg>
