<svg width="24" height="24" viewBox="0 0 24 24" fill="none" xmlns="http://www.w3.org/2000/svg">
<path d="M8 4C6.89688 4 6 4.89688 6 6V18C6 19.1031 6.89688 20 8 20H16C17.1031 20 18 19.1031 18 18V9H14C13.4469 9 13 8.55313 13 8V4H8ZM14 4V8H18L14 4ZM8.75 11H15.25C15.8031 11 16.25 11.4469 16.25 12V12.5V15V17C16.25 17.5531 15.8031 18 15.25 18H13.25H10.75H8.75C8.19687 18 7.75 17.5531 7.75 17V15V12.5V12C7.75 11.4469 8.19687 11 8.75 11ZM8.75 14.5H10.25V13H8.75V14.5ZM11.25 14.5H12.75V13H11.25V14.5ZM13.75 14.5H15.25V13H13.75V14.5ZM13.75 15.5V17H15.25V15.5H13.75ZM12.75 15.5H11.25V17H12.75V15.5ZM10.25 15.5H8.75V17H10.25V15.5Z" fill="black"/>
</svg>
