<svg width="24" height="24" viewBox="0 0 24 24" fill="none" xmlns="http://www.w3.org/2000/svg">
<path d="M16.003 18.9281C19.828 16.7187 21.1405 11.825 18.9312 7.99999C16.7218 4.17499 11.828 2.86249 8.00304 5.07187C4.17804 7.28124 2.86554 12.175 5.07492 16C6.20617 17.9594 8.04054 19.2594 10.078 19.7656C9.71867 19.2719 9.50304 18.6594 9.50304 18V16.7562C9.17804 16.5625 8.87492 16.3281 8.59992 16.0625C8.28117 15.7531 8.39367 15.2406 8.77804 15.0187L16.2249 10.7156C16.6093 10.4937 17.1093 10.6531 17.2187 11.0844C17.6937 12.9406 17.0343 14.9625 15.4999 16.2406V18C15.4999 18.4812 15.3874 18.9375 15.1843 19.3406C15.4593 19.2219 15.7312 19.0844 15.9999 18.9281H16.003ZM7.99992 8.99999C8.53035 8.99999 9.03906 9.2107 9.41413 9.58578C9.7892 9.96085 9.99992 10.4696 9.99992 11C9.99992 11.5304 9.7892 12.0391 9.41413 12.4142C9.03906 12.7893 8.53035 13 7.99992 13C7.46948 13 6.96078 12.7893 6.5857 12.4142C6.21063 12.0391 5.99992 11.5304 5.99992 11C5.99992 10.4696 6.21063 9.96085 6.5857 9.58578C6.96078 9.2107 7.46948 8.99999 7.99992 8.99999ZM11.4999 8.74999C11.4999 8.15325 11.737 7.58096 12.1589 7.159C12.5809 6.73704 13.1532 6.49999 13.7499 6.49999C14.3467 6.49999 14.919 6.73704 15.3409 7.159C15.7629 7.58096 15.9999 8.15325 15.9999 8.74999C15.9999 9.34673 15.7629 9.91902 15.3409 10.341C14.919 10.7629 14.3467 11 13.7499 11C13.1532 11 12.5809 10.7629 12.1589 10.341C11.737 9.91902 11.4999 9.34673 11.4999 8.74999ZM14.503 18V16.5812C14.503 16.1219 14.1312 15.75 13.6718 15.75H13.6093C13.2562 15.75 12.9499 15.9969 12.8718 16.3406C12.7843 16.7344 12.2218 16.7344 12.1343 16.3406C12.0562 15.9969 11.7499 15.75 11.3968 15.75H11.3343C10.8749 15.75 10.503 16.1219 10.503 16.5812V18C10.503 19.1031 11.3999 20 12.503 20C13.6062 20 14.503 19.1031 14.503 18ZM8.74992 11C8.74992 10.8011 8.6709 10.6103 8.53025 10.4697C8.3896 10.329 8.19883 10.25 7.99992 10.25C7.80101 10.25 7.61024 10.329 7.46959 10.4697C7.32894 10.6103 7.24992 10.8011 7.24992 11C7.24992 11.1989 7.32894 11.3897 7.46959 11.5303C7.61024 11.671 7.80101 11.75 7.99992 11.75C8.19883 11.75 8.3896 11.671 8.53025 11.5303C8.6709 11.3897 8.74992 11.1989 8.74992 11ZM13.2499 9.24999C13.5151 9.24999 13.7695 9.14463 13.957 8.9571C14.1446 8.76956 14.2499 8.51521 14.2499 8.24999C14.2499 7.98477 14.1446 7.73042 13.957 7.54288C13.7695 7.35535 13.5151 7.24999 13.2499 7.24999C12.9847 7.24999 12.7303 7.35535 12.5428 7.54288C12.3553 7.73042 12.2499 7.98477 12.2499 8.24999C12.2499 8.51521 12.3553 8.76956 12.5428 8.9571C12.7303 9.14463 12.9847 9.24999 13.2499 9.24999Z" fill="black"/>
</svg>
