<svg width="24" height="24" viewBox="0 0 24 24" fill="none" xmlns="http://www.w3.org/2000/svg">
<path d="M9.97813 4.16881C10.2219 3.94068 10.6 3.94381 10.8438 4.17193C11.7063 4.98131 12.5156 5.85318 13.2719 6.79693C13.6156 6.34693 14.0063 5.85631 14.4281 5.45631C14.675 5.22506 15.0563 5.22506 15.3031 5.45943C16.3844 6.49068 17.3 7.85318 17.9438 9.14693C18.5781 10.4219 19 11.7251 19 12.6438C19 16.6313 15.8813 20.0001 12 20.0001C8.075 20.0001 5 16.6282 5 12.6407C5 11.4407 5.55625 9.97506 6.41875 8.52506C7.29063 7.05318 8.52188 5.51881 9.97813 4.16881ZM12.0531 17.0001C12.8438 17.0001 13.5437 16.7813 14.2031 16.3438C15.5188 15.4251 15.8719 13.5876 15.0813 12.1438C14.9406 11.8626 14.5813 11.8438 14.3781 12.0813L13.5906 12.9969C13.3844 13.2344 13.0125 13.2282 12.8187 12.9813C12.3031 12.3251 11.3812 11.1532 10.8562 10.4876C10.6594 10.2376 10.2844 10.2344 10.0844 10.4844C9.02812 11.8126 8.49688 12.6501 8.49688 13.5907C8.5 15.7313 10.0813 17.0001 12.0531 17.0001Z" fill="black"/>
</svg>
