<svg width="24" height="24" viewBox="0 0 24 24" fill="none" xmlns="http://www.w3.org/2000/svg">
<path d="M12 20C14.1217 20 16.1566 19.1571 17.6569 17.6569C19.1571 16.1566 20 14.1217 20 12C20 9.87827 19.1571 7.84344 17.6569 6.34315C16.1566 4.84285 14.1217 4 12 4C9.87827 4 7.84344 4.84285 6.34315 6.34315C4.84285 7.84344 4 9.87827 4 12C4 14.1217 4.84285 16.1566 6.34315 17.6569C7.84344 19.1571 9.87827 20 12 20ZM9 14.5H15C15.275 14.5 15.5 14.725 15.5 15C15.5 15.275 15.275 15.5 15 15.5H9C8.725 15.5 8.5 15.275 8.5 15C8.5 14.725 8.725 14.5 9 14.5ZM8 10.5C8 10.225 8.225 10 8.5 10H10.5C10.775 10 11 10.225 11 10.5C11 10.775 10.775 11 10.5 11H8.5C8.225 11 8 10.775 8 10.5ZM13.5 10H15.5C15.775 10 16 10.225 16 10.5C16 10.775 15.775 11 15.5 11H13.5C13.225 11 13 10.775 13 10.5C13 10.225 13.225 10 13.5 10Z" fill="black"/>
</svg>
