<svg width="24" height="24" viewBox="0 0 24 24" fill="none" xmlns="http://www.w3.org/2000/svg">
<path d="M8.20635 9.0781C8.39072 9.29997 8.45635 9.59997 8.38447 9.88122C8.3751 9.92185 8.36572 9.96247 8.3626 10.0031C8.9001 10.0218 9.42197 10.2718 9.77197 10.7156C10.6563 10.7218 11.4001 11.35 11.5876 12.1968C11.7376 12.2718 11.8751 12.3656 11.997 12.4718C12.1188 12.3656 12.2563 12.2718 12.4063 12.1968C12.5938 11.35 13.3376 10.725 14.222 10.7156C14.7626 10.0312 15.7032 9.8031 16.497 10.1843C16.5438 10.1625 16.5907 10.1406 16.6376 10.125C16.6407 10.0437 16.6313 9.96247 16.6095 9.88122C16.5376 9.59997 16.6063 9.29997 16.7876 9.0781C17.0626 8.74372 17.0626 8.25622 16.7876 7.92185C16.6032 7.69997 16.5376 7.39997 16.6095 7.11872C16.7157 6.69685 16.5095 6.25622 16.1188 6.0781C15.8595 5.95935 15.672 5.71872 15.6157 5.43435C15.5313 5.00622 15.1595 4.69997 14.7313 4.71247C14.447 4.72185 14.1751 4.58747 14.0063 4.35622C13.7501 4.00935 13.2845 3.89997 12.9032 4.09997C12.6501 4.23435 12.3501 4.23435 12.097 4.09997C11.7157 3.89997 11.2501 4.00935 10.9938 4.35622C10.822 4.58747 10.5532 4.72185 10.2688 4.71247C9.84072 4.69997 9.46572 5.00622 9.38447 5.43435C9.32822 5.71872 9.14072 5.95935 8.88135 6.0781C8.49072 6.25622 8.28135 6.69685 8.39072 7.11872C8.4626 7.39997 8.39385 7.69997 8.2126 7.92185C7.9376 8.25622 7.9376 8.74372 8.2126 9.0781H8.20635ZM9.73135 11.7156C9.61885 11.7187 9.50635 11.7 9.40322 11.6593C9.24697 11.6 9.10947 11.4968 9.00635 11.3593C8.7501 11.0093 8.28135 10.9031 7.90322 11.1031C7.6501 11.2375 7.3501 11.2375 7.09697 11.1031C6.71572 10.9031 6.2501 11.0125 5.99385 11.3593C5.82197 11.5906 5.55322 11.725 5.26885 11.7156C4.84072 11.7031 4.46572 12.0093 4.38447 12.4375C4.32822 12.7218 4.14072 12.9625 3.88135 13.0812C3.49072 13.2593 3.28135 13.7 3.39072 14.1218C3.4626 14.4031 3.39385 14.7031 3.2126 14.925C2.9376 15.2593 2.9376 15.7468 3.2126 16.0812C3.39697 16.3031 3.4626 16.6031 3.39072 16.8843C3.28447 17.3062 3.49072 17.7468 3.88135 17.925C4.14072 18.0437 4.32822 18.2843 4.38447 18.5687C4.46885 18.9968 4.84072 19.3031 5.26885 19.2906C5.55322 19.2812 5.8251 19.4156 5.99385 19.6468C6.2501 19.9968 6.71885 20.1031 7.09697 19.9031C7.3501 19.7687 7.6501 19.7687 7.90322 19.9031C8.28447 20.1031 8.7501 19.9937 9.00635 19.6468C9.17822 19.4156 9.44697 19.2812 9.73135 19.2906C10.1595 19.3031 10.5345 18.9968 10.6157 18.5687C10.672 18.2843 10.8595 18.0437 11.1188 17.925C11.247 17.8656 11.3563 17.7781 11.4407 17.6718C11.3438 17.3562 11.3251 17.0156 11.4032 16.6812C10.8626 15.9906 10.8626 15.0156 11.4032 14.325C11.3282 13.9906 11.3438 13.6468 11.4407 13.3343C11.3563 13.2281 11.247 13.1406 11.1188 13.0812C10.8595 12.9625 10.672 12.7218 10.6157 12.4375C10.6095 12.4062 10.6001 12.375 10.5907 12.3437C10.4751 11.9656 10.1251 11.7062 9.72822 11.7156H9.73135ZM10.0001 8.49997C10.0001 8.36736 10.0528 8.24019 10.1465 8.14642C10.2403 8.05265 10.3675 7.99997 10.5001 7.99997C10.6327 7.99997 10.7599 8.05265 10.8537 8.14642C10.9474 8.24019 11.0001 8.36736 11.0001 8.49997C11.0001 8.63258 10.9474 8.75976 10.8537 8.85353C10.7599 8.94729 10.6327 8.99997 10.5001 8.99997C10.3675 8.99997 10.2403 8.94729 10.1465 8.85353C10.0528 8.75976 10.0001 8.63258 10.0001 8.49997ZM5.5001 15C5.63271 15 5.75988 15.0527 5.85365 15.1464C5.94742 15.2402 6.0001 15.3674 6.0001 15.5C6.0001 15.6326 5.94742 15.7598 5.85365 15.8535C5.75988 15.9473 5.63271 16 5.5001 16C5.36749 16 5.24031 15.9473 5.14654 15.8535C5.05278 15.7598 5.0001 15.6326 5.0001 15.5C5.0001 15.3674 5.05278 15.2402 5.14654 15.1464C5.24031 15.0527 5.36749 15 5.5001 15ZM7.0001 15.5C7.0001 15.3674 7.05278 15.2402 7.14654 15.1464C7.24031 15.0527 7.36749 15 7.5001 15C7.63271 15 7.75988 15.0527 7.85365 15.1464C7.94742 15.2402 8.0001 15.3674 8.0001 15.5C8.0001 15.6326 7.94742 15.7598 7.85365 15.8535C7.75988 15.9473 7.63271 16 7.5001 16C7.36749 16 7.24031 15.9473 7.14654 15.8535C7.05278 15.7598 7.0001 15.6326 7.0001 15.5ZM6.5001 17C6.63271 17 6.75988 17.0527 6.85365 17.1464C6.94742 17.2402 7.0001 17.3674 7.0001 17.5C7.0001 17.6326 6.94742 17.7598 6.85365 17.8535C6.75988 17.9473 6.63271 18 6.5001 18C6.36749 18 6.24031 17.9473 6.14654 17.8535C6.05278 17.7598 6.0001 17.6326 6.0001 17.5C6.0001 17.3674 6.05278 17.2402 6.14654 17.1464C6.24031 17.0527 6.36749 17 6.5001 17ZM20.6688 15.6687C20.797 15.5406 20.8876 15.3812 20.9407 15.2031C20.9407 15.1968 20.9438 15.1937 20.9438 15.1875C21.1626 14.4062 20.7063 13.225 19.7376 12.2593C19.0095 11.5312 18.1595 11.0906 17.4532 11.0125C17.3907 11.0062 17.3313 11 17.272 11C16.972 10.9937 16.7001 11.0562 16.4876 11.2C16.4876 11.2 16.4845 11.2 16.4845 11.2031C16.4345 11.2375 16.3876 11.275 16.3438 11.3156C16.3376 11.3218 16.3345 11.325 16.3282 11.3312C15.7282 11.9312 15.972 13.175 16.847 14.2781C16.972 14.4343 17.1095 14.5906 17.2595 14.7406C18.4595 15.9406 19.9845 16.3562 20.6688 15.6718V15.6687ZM18.8938 16.875C18.0813 16.6531 17.2501 16.1468 16.5532 15.4468C15.8563 14.7468 15.347 13.9187 15.1251 13.1062C14.9595 12.4937 14.9251 11.7531 15.2563 11.1187C15.1563 11.1781 15.0657 11.2562 14.9938 11.3562C14.822 11.5875 14.5532 11.7218 14.2688 11.7125C13.8407 11.7 13.4657 12.0062 13.3845 12.4343C13.3282 12.7187 13.1407 12.9593 12.8813 13.0781C12.4907 13.2562 12.2813 13.6968 12.3907 14.1187C12.4626 14.4 12.3938 14.7 12.2126 14.9218C11.9376 15.2562 11.9376 15.7437 12.2126 16.0781C12.397 16.3 12.4626 16.6 12.3907 16.8812C12.2845 17.3031 12.4907 17.7437 12.8813 17.9218C13.1407 18.0406 13.3282 18.2812 13.3845 18.5656C13.4688 18.9937 13.8407 19.3 14.2688 19.2875C14.5532 19.2781 14.8251 19.4125 14.9938 19.6437C15.2501 19.9937 15.7188 20.1 16.097 19.9C16.3501 19.7656 16.6501 19.7656 16.9032 19.9C17.2845 20.1 17.7501 19.9906 18.0063 19.6437C18.1782 19.4125 18.447 19.2781 18.7313 19.2875C19.1595 19.3 19.5345 18.9937 19.6157 18.5656C19.672 18.2812 19.8595 18.0406 20.1188 17.9218C20.5095 17.7437 20.7188 17.3031 20.6095 16.8812L20.6063 16.8625C20.0407 17.0625 19.4188 17.0187 18.8907 16.875H18.8938ZM14.5001 15C14.6327 15 14.7599 15.0527 14.8537 15.1464C14.9474 15.2402 15.0001 15.3674 15.0001 15.5C15.0001 15.6326 14.9474 15.7598 14.8537 15.8535C14.7599 15.9473 14.6327 16 14.5001 16C14.3675 16 14.2403 15.9473 14.1465 15.8535C14.0528 15.7598 14.0001 15.6326 14.0001 15.5C14.0001 15.3674 14.0528 15.2402 14.1465 15.1464C14.2403 15.0527 14.3675 15 14.5001 15ZM15.0001 17.5C15.0001 17.3674 15.0528 17.2402 15.1465 17.1464C15.2403 17.0527 15.3675 17 15.5001 17C15.6327 17 15.7599 17.0527 15.8537 17.1464C15.9474 17.2402 16.0001 17.3674 16.0001 17.5C16.0001 17.6326 15.9474 17.7598 15.8537 17.8535C15.7599 17.9473 15.6327 18 15.5001 18C15.3675 18 15.2403 17.9473 15.1465 17.8535C15.0528 17.7598 15.0001 17.6326 15.0001 17.5Z" fill="black"/>
</svg>
