<svg width="24" height="24" viewBox="0 0 24 24" fill="none" xmlns="http://www.w3.org/2000/svg">
<path d="M12.7032 10.7384L4.71885 18.7197C4.4251 19.0134 4.4251 19.4884 4.71885 19.7791C5.0126 20.0697 5.4876 20.0728 5.77822 19.7791L8.11572 17.4416C8.34697 17.5853 8.59385 17.6978 8.85947 17.7697C10.2595 18.1509 12.4376 18.2041 14.5626 16.7947C14.9438 16.5416 14.7438 16.0009 14.2876 16.0009H13.7845C13.6251 16.0009 13.497 15.8728 13.497 15.7134C13.497 15.5853 13.5813 15.4759 13.7001 15.4384L16.7532 14.5228C16.8595 14.4916 16.9532 14.4259 17.0157 14.3322C17.1532 14.1322 17.2845 13.9291 17.4095 13.7197C17.6032 13.3978 17.3626 13.0009 16.9876 13.0009H15.7813C15.622 13.0009 15.4938 12.8728 15.4938 12.7134C15.4938 12.5853 15.5782 12.4759 15.697 12.4384L18.2251 11.6791C18.3688 11.6353 18.4876 11.5291 18.5438 11.3884C19.4532 9.0947 19.8688 6.69157 19.997 5.15095C20.022 4.84157 19.9032 4.53845 19.6845 4.3197C19.4657 4.10095 19.1626 3.9822 18.8532 4.0072C16.2345 4.2197 11.1407 5.26657 8.29385 8.11345C5.79072 10.6166 5.77197 13.4478 6.22822 15.1384C6.29385 15.3853 6.60322 15.4384 6.78447 15.2572L11.9251 10.1197C12.1188 9.92595 12.4376 9.92595 12.6313 10.1197C12.8001 10.2884 12.822 10.5447 12.7001 10.7384H12.7032Z" fill="black"/>
</svg>
