<svg width="24" height="24" viewBox="0 0 24 24" fill="none" xmlns="http://www.w3.org/2000/svg">
<path d="M18 19H6C4.89688 19 4 18.1031 4 17V7C4 5.89688 4.89688 5 6 5H10C10.6281 5 11.2219 5.29687 11.6 5.8L12.2 6.6C12.3875 6.85312 12.6844 7 13 7H18C19.1031 7 20 7.89688 20 9V17C20 18.1031 19.1031 19 18 19ZM9.5 11C9.5 10.7348 9.39464 10.4804 9.20711 10.2929C9.01957 10.1054 8.76522 10 8.5 10C8.23478 10 7.98043 10.1054 7.79289 10.2929C7.60536 10.4804 7.5 10.7348 7.5 11C7.5 11.2652 7.60536 11.5196 7.79289 11.7071C7.98043 11.8946 8.23478 12 8.5 12C8.76522 12 9.01957 11.8946 9.20711 11.7071C9.39464 11.5196 9.5 11.2652 9.5 11ZM13.25 11C13 11 12.7656 11.125 12.625 11.3344L10.875 13.9594L10.3344 13.2812C10.1906 13.1031 9.975 13 9.75 13C9.525 13 9.30625 13.1031 9.16563 13.2812L7.16563 15.7812C6.98438 16.0062 6.95 16.3156 7.075 16.575C7.2 16.8344 7.4625 17 7.75 17H10.25H11.75H16.25C16.5281 17 16.7813 16.8469 16.9125 16.6031C17.0438 16.3594 17.0281 16.0625 16.875 15.8344L13.875 11.3344C13.7344 11.125 13.5 11 13.25 11Z" fill="black"/>
</svg>
