<svg width="24" height="24" viewBox="0 0 24 24" fill="none" xmlns="http://www.w3.org/2000/svg">
<path d="M3.21243 4.15943C2.88743 3.90318 2.41556 3.96255 2.15931 4.28755C1.90306 4.61255 1.96243 5.08443 2.28743 5.34068L20.7874 19.8407C21.1124 20.0969 21.5843 20.0376 21.8406 19.7126C22.0968 19.3876 22.0374 18.9157 21.7124 18.6594L19.9781 17.3001C19.9937 17.2032 19.9999 17.1032 19.9999 17.0001V7.00005C19.9999 5.89693 19.1031 5.00005 17.9999 5.00005H5.99993C5.54993 5.00005 5.13118 5.15005 4.79681 5.40318L3.21243 4.15943ZM8.99993 8.69693V8.00005C8.99993 7.44693 9.44681 7.00005 9.99993 7.00005H13.9999C14.5531 7.00005 14.9999 7.44693 14.9999 8.00005V10.0001C14.9999 10.5532 14.5531 11.0001 13.9999 11.0001H11.9406L8.99993 8.69693ZM17.2312 19.0001L14.5124 16.8594C14.3624 16.9501 14.1874 17.0001 13.9999 17.0001H9.99993C9.44681 17.0001 8.99993 16.5532 8.99993 16.0001V14.0001C8.99993 13.5594 9.28431 13.1844 9.68118 13.0532L7.45931 11.3032C7.48431 11.3657 7.49993 11.4313 7.49993 11.5032V12.5032C7.49993 12.7782 7.27493 13.0032 6.99993 13.0032H5.99993C5.72493 13.0032 5.49993 12.7782 5.49993 12.5032V11.5001C5.49993 11.2251 5.72493 11.0001 5.99993 11.0001H6.99993C7.02806 11.0001 7.05931 11.0032 7.08743 11.0063L3.99993 8.57505V17.0001C3.99993 18.1032 4.89681 19.0001 5.99993 19.0001H17.2312ZM5.49993 15.5001C5.49993 15.2251 5.72493 15.0001 5.99993 15.0001H6.99993C7.27493 15.0001 7.49993 15.2251 7.49993 15.5001V16.5001C7.49993 16.7751 7.27493 17.0001 6.99993 17.0001H5.99993C5.72493 17.0001 5.49993 16.7751 5.49993 16.5001V15.5001ZM16.4999 11.5001C16.4999 11.2251 16.7249 11.0001 16.9999 11.0001H17.9999C18.2749 11.0001 18.4999 11.2251 18.4999 11.5001V12.5001C18.4999 12.7751 18.2749 13.0001 17.9999 13.0001H16.9999C16.7249 13.0001 16.4999 12.7751 16.4999 12.5001V11.5001ZM16.9999 7.00005H17.9999C18.2749 7.00005 18.4999 7.22505 18.4999 7.50005V8.50005C18.4999 8.77505 18.2749 9.00005 17.9999 9.00005H16.9999C16.7249 9.00005 16.4999 8.77505 16.4999 8.50005V7.50005C16.4999 7.22505 16.7249 7.00005 16.9999 7.00005Z" fill="black"/>
</svg>
