<svg width="24" height="24" viewBox="0 0 24 24" fill="none" xmlns="http://www.w3.org/2000/svg">
<path d="M10.0656 5.82817C10.5187 5.52192 10.6406 4.90942 10.3406 4.45317C10.3375 4.45005 10.3343 4.4438 10.3312 4.44067C10.0218 3.9813 9.39997 3.86255 8.94372 4.17192L3.09684 8.14067C1.71247 9.0813 1.62497 11.0907 2.92184 12.1469L2.96872 12.1844C3.55934 12.6657 4.31872 12.8375 5.03122 12.7C5.16872 12.6719 5.30622 12.6344 5.44059 12.5813C5.44997 12.5782 5.46247 12.5719 5.47184 12.5688C5.48747 12.5625 5.50309 12.5563 5.51872 12.55C5.69372 12.4782 5.85934 12.3813 6.01872 12.2688L8.59059 10.3969C9.03747 10.0719 9.13747 9.44692 8.81247 9.00005C8.66247 8.79067 8.44372 8.65942 8.20934 8.60942C8.09997 8.58755 7.98434 8.5813 7.87184 8.59692C7.71247 8.6188 7.55622 8.67817 7.41559 8.77817L5.99997 9.8063V8.58755L6.85309 8.00942L7.26247 7.7313L10.0656 5.82817ZM13 4.00005C12.425 4.00005 11.8656 4.05942 11.3281 4.17505C11.7218 5.04692 11.4468 6.10005 10.6281 6.6563L8.92184 7.81255C9.19059 7.95005 9.43122 8.15317 9.61872 8.41255C9.88747 8.78442 10.0125 9.21567 9.99997 9.64067C10.15 9.55317 10.325 9.50005 10.5093 9.50005C11.0625 9.50005 11.5093 9.94692 11.5093 10.5C11.5093 11.0532 11.0625 11.5 10.5093 11.5C10.075 11.5 9.70309 11.2219 9.56559 10.8313C9.45622 10.9688 9.32497 11.0969 9.17497 11.2063L6.60309 13.0782C6.16872 13.3938 5.68122 13.5969 5.17809 13.6907C5.95309 17.2969 9.15934 20 13 20C17.4187 20 21 16.4188 21 12C21 7.5813 17.4187 4.00005 13 4.00005ZM10.0437 14.6563C10.5906 15.05 11.5718 15.5 13 15.5C14.4281 15.5 15.4125 15.05 15.9562 14.6563C16.1812 14.4938 16.4937 14.5469 16.6531 14.7688C16.8125 14.9907 16.7625 15.3063 16.5406 15.4657C15.8312 15.9782 14.6437 16.4969 12.9968 16.4969C11.35 16.4969 10.1656 15.9782 9.45309 15.4657C9.22809 15.3032 9.17809 14.9907 9.34059 14.7688C9.50309 14.5469 9.81559 14.4938 10.0375 14.6563H10.0437ZM15.5125 9.50005C15.7777 9.50005 16.032 9.60541 16.2196 9.79294C16.4071 9.98048 16.5125 10.2348 16.5125 10.5C16.5125 10.7653 16.4071 11.0196 16.2196 11.2072C16.032 11.3947 15.7777 11.5 15.5125 11.5C15.2472 11.5 14.9929 11.3947 14.8054 11.2072C14.6178 11.0196 14.5125 10.7653 14.5125 10.5C14.5125 10.2348 14.6178 9.98048 14.8054 9.79294C14.9929 9.60541 15.2472 9.50005 15.5125 9.50005Z" fill="black"/>
</svg>
