<svg width="24" height="24" viewBox="0 0 24 24" fill="none" xmlns="http://www.w3.org/2000/svg">
<path d="M4 12C4 9.87827 4.84285 7.84344 6.34315 6.34315C7.84344 4.84285 9.87827 4 12 4C14.1217 4 16.1566 4.84285 17.6569 6.34315C19.1571 7.84344 20 9.87827 20 12C20 14.1217 19.1571 16.1566 17.6569 17.6569C16.1566 19.1571 14.1217 20 12 20C9.87827 20 7.84344 19.1571 6.34315 17.6569C4.84285 16.1566 4 14.1217 4 12ZM10.5125 11.5C10.5125 11.2348 10.4071 10.9804 10.2196 10.7929C10.0321 10.6054 9.77772 10.5 9.5125 10.5C9.24728 10.5 8.99293 10.6054 8.80539 10.7929C8.61786 10.9804 8.5125 11.2348 8.5125 11.5C8.5125 11.7652 8.61786 12.0196 8.80539 12.2071C8.99293 12.3946 9.24728 12.5 9.5125 12.5C9.77772 12.5 10.0321 12.3946 10.2196 12.2071C10.4071 12.0196 10.5125 11.7652 10.5125 11.5ZM14.5125 12.5C14.7777 12.5 15.0321 12.3946 15.2196 12.2071C15.4071 12.0196 15.5125 11.7652 15.5125 11.5C15.5125 11.2348 15.4071 10.9804 15.2196 10.7929C15.0321 10.6054 14.7777 10.5 14.5125 10.5C14.2473 10.5 13.9929 10.6054 13.8054 10.7929C13.6179 10.9804 13.5125 11.2348 13.5125 11.5C13.5125 11.7652 13.6179 12.0196 13.8054 12.2071C13.9929 12.3946 14.2473 12.5 14.5125 12.5ZM8.5 15C8.5 15.275 8.725 15.5 9 15.5H15C15.275 15.5 15.5 15.275 15.5 15C15.5 14.725 15.275 14.5 15 14.5H9C8.725 14.5 8.5 14.725 8.5 15ZM14.275 8.43125C14.6094 8.09688 15.1656 8.15312 15.4281 8.54688L15.5813 8.77812C15.7344 9.00937 16.0437 9.06875 16.275 8.91563C16.5062 8.7625 16.5656 8.45312 16.4125 8.22188L16.2594 7.99062C15.6469 7.07187 14.3469 6.94375 13.5656 7.725L12.6438 8.64687C12.45 8.84062 12.45 9.15938 12.6438 9.35313C12.8375 9.54688 13.1562 9.54688 13.35 9.35313L14.2719 8.43125H14.275ZM8 8.5C7.725 8.5 7.5 8.725 7.5 9C7.5 9.275 7.725 9.5 8 9.5H10C10.275 9.5 10.5 9.275 10.5 9C10.5 8.725 10.275 8.5 10 8.5H8Z" fill="black"/>
</svg>
