<svg width="24" height="24" viewBox="0 0 24 24" fill="none" xmlns="http://www.w3.org/2000/svg">
<path d="M8 4C6.89688 4 6 4.89688 6 6V18C6 19.1031 6.89688 20 8 20H16C17.1031 20 18 19.1031 18 18V9H14C13.4469 9 13 8.55313 13 8V4H8ZM14 4V8H18L14 4ZM12.75 11.25V14.4406L13.7188 13.4719C14.0125 13.1781 14.4875 13.1781 14.7781 13.4719C15.0687 13.7656 15.0719 14.2406 14.7781 14.5312L12.5281 16.7812C12.2344 17.075 11.7594 17.075 11.4688 16.7812L9.21875 14.5312C8.925 14.2375 8.925 13.7625 9.21875 13.4719C9.5125 13.1813 9.9875 13.1781 10.2781 13.4719L11.2469 14.4406V11.25C11.2469 10.8344 11.5812 10.5 11.9969 10.5C12.4125 10.5 12.7469 10.8344 12.7469 11.25H12.75Z" fill="black"/>
</svg>
