<svg width="24" height="24" viewBox="0 0 24 24" fill="none" xmlns="http://www.w3.org/2000/svg">
<path d="M7 5C5.89688 5 5 5.89688 5 7V17C5 18.1031 5.89688 19 7 19H17C18.1031 19 19 18.1031 19 17V9.41563C19 8.88438 18.7906 8.375 18.4156 8L16 5.58438C15.625 5.20938 15.1156 5 14.5844 5H7ZM7 8C7 7.44687 7.44687 7 8 7H14C14.5531 7 15 7.44687 15 8V10C15 10.5531 14.5531 11 14 11H8C7.44687 11 7 10.5531 7 10V8ZM12 13C12.5304 13 13.0391 13.2107 13.4142 13.5858C13.7893 13.9609 14 14.4696 14 15C14 15.5304 13.7893 16.0391 13.4142 16.4142C13.0391 16.7893 12.5304 17 12 17C11.4696 17 10.9609 16.7893 10.5858 16.4142C10.2107 16.0391 10 15.5304 10 15C10 14.4696 10.2107 13.9609 10.5858 13.5858C10.9609 13.2107 11.4696 13 12 13Z" fill="black"/>
</svg>
