<svg width="24" height="24" viewBox="0 0 24 24" fill="none" xmlns="http://www.w3.org/2000/svg">
<path d="M20 6.5C20 7.88125 16.4187 9 12 9C7.58125 9 4 7.88125 4 6.5C4 5.11875 7.58125 4 12 4C16.4187 4 20 5.11875 20 6.5ZM18 6.5C18 5.94687 15.3125 5.5 12 5.5C8.6875 5.5 6 5.94687 6 6.5C6 7.05312 8.6875 7.5 12 7.5C15.3125 7.5 18 7.05312 18 6.5ZM4.5 12.5C4.5 11.1906 4.83437 9.95937 5.425 8.89062C7.06562 9.57188 9.40625 10 12 10C14.5938 10 16.9344 9.57188 18.575 8.89062C19.1656 9.95937 19.5 11.1906 19.5 12.5C19.5 16.6406 16.1406 20 12 20C7.85938 20 4.5 16.6406 4.5 12.5ZM9.12813 15.1719C8.94688 14.9625 8.63125 14.9406 8.42188 15.1219C8.2125 15.3031 8.19062 15.6187 8.37187 15.8281C9.06562 16.6313 10.2781 17.5 12 17.5C13.7219 17.5 14.9313 16.6281 15.6281 15.8281C15.8094 15.6187 15.7875 15.3031 15.5781 15.1219C15.3687 14.9406 15.0531 14.9625 14.8719 15.1719C14.3125 15.8188 13.3562 16.5 12 16.5C10.6438 16.5 9.6875 15.8188 9.12813 15.1719ZM10.8 13.4C10.8656 13.4875 10.9781 13.5219 11.0781 13.4875C11.1781 13.4531 11.25 13.3594 11.25 13.25C11.25 12.6906 11.0406 12.1375 10.7312 11.725C10.425 11.3187 9.98438 11 9.5 11C9.01562 11 8.575 11.3187 8.26875 11.725C7.95938 12.1375 7.75 12.6906 7.75 13.25C7.75 13.3562 7.81875 13.4531 7.92188 13.4875C8.025 13.5219 8.1375 13.4875 8.2 13.4L8.20625 13.3938C8.2125 13.3875 8.21875 13.3781 8.22813 13.3656C8.24688 13.3406 8.27813 13.3031 8.31563 13.2594C8.39375 13.1719 8.50313 13.0531 8.63438 12.9375C8.90938 12.6938 9.22188 12.5 9.5 12.5C9.77812 12.5 10.0906 12.6938 10.3656 12.9375C10.4969 13.0531 10.6062 13.1719 10.6844 13.2594C10.7219 13.3031 10.7531 13.3406 10.7719 13.3656C10.7812 13.3781 10.7906 13.3875 10.7937 13.3938L10.8 13.4ZM15.8 13.4C15.8656 13.4875 15.9781 13.5219 16.0781 13.4875C16.1781 13.4531 16.25 13.3594 16.25 13.25C16.25 12.6906 16.0406 12.1375 15.7312 11.725C15.425 11.3187 14.9844 11 14.5 11C14.0156 11 13.575 11.3187 13.2688 11.725C12.9594 12.1375 12.75 12.6906 12.75 13.25C12.75 13.3562 12.8188 13.4531 12.9219 13.4875C13.025 13.5219 13.1375 13.4875 13.2 13.4L13.2063 13.3938C13.2125 13.3875 13.2188 13.3781 13.2281 13.3656C13.2469 13.3406 13.2781 13.3031 13.3156 13.2594C13.3938 13.1719 13.5031 13.0531 13.6344 12.9375C13.9094 12.6938 14.2219 12.5 14.5 12.5C14.7781 12.5 15.0906 12.6938 15.3656 12.9375C15.4969 13.0531 15.6062 13.1719 15.6844 13.2594C15.7219 13.3031 15.7531 13.3406 15.7719 13.3656C15.7812 13.3781 15.7906 13.3875 15.7937 13.3938L15.8 13.4Z" fill="black"/>
</svg>
