<svg width="24" height="24" viewBox="0 0 24 24" fill="none" xmlns="http://www.w3.org/2000/svg">
<path d="M12.8031 5.50972L13.1875 5.07847C13.3563 4.88785 13.6031 4.80347 13.8406 4.80035C14.0656 4.80035 14.2875 4.8816 14.4625 5.0441C15.0781 5.61597 15.7062 6.3941 16.1812 7.25035C16.6562 8.10035 17 9.0691 17 10.0066C17 12.7753 14.7719 15.0003 12 15.0003C9.2 15.0003 7 12.7722 7 10.0066C7 8.84097 7.5 7.71285 8.15 6.74097C8.80313 5.76285 9.63438 4.89722 10.3656 4.23472C10.5438 4.07222 10.7719 3.9941 11 4.00035C11.4406 4.00972 11.7438 4.3566 12.0219 4.67535C12.0844 4.74722 12.1469 4.8191 12.2094 4.88472L12.8031 5.5066V5.50972ZM14 11.5066C14 10.366 12.8438 9.22535 12.2875 8.7441C12.1188 8.59722 11.8781 8.59722 11.7094 8.7441C11.1563 9.22222 10 10.3628 10 11.5066C10 12.6097 10.8969 13.5066 12 13.5066C13.1031 13.5066 14 12.6097 14 11.5066ZM3 13.0003C3 12.4472 3.44687 12.0003 4 12.0003H5C5.55313 12.0003 6 12.4472 6 13.0003C6 13.5535 5.55313 14.0003 5 14.0003V16.0003H19V14.0003C18.4469 14.0003 18 13.5535 18 13.0003C18 12.4472 18.4469 12.0003 19 12.0003H20C20.5531 12.0003 21 12.4472 21 13.0003V16.0003C21.5531 16.0003 22 16.4472 22 17.0003V19.0003C22 19.5535 21.5531 20.0003 21 20.0003H3C2.44687 20.0003 2 19.5535 2 19.0003V17.0003C2 16.4472 2.44687 16.0003 3 16.0003V13.0003ZM12 19.0003C12.2652 19.0003 12.5196 18.895 12.7071 18.7075C12.8946 18.5199 13 18.2656 13 18.0003C13 17.7351 12.8946 17.4808 12.7071 17.2932C12.5196 17.1057 12.2652 17.0003 12 17.0003C11.7348 17.0003 11.4804 17.1057 11.2929 17.2932C11.1054 17.4808 11 17.7351 11 18.0003C11 18.2656 11.1054 18.5199 11.2929 18.7075C11.4804 18.895 11.7348 19.0003 12 19.0003ZM17 18.0003C17 17.7351 16.8946 17.4808 16.7071 17.2932C16.5196 17.1057 16.2652 17.0003 16 17.0003C15.7348 17.0003 15.4804 17.1057 15.2929 17.2932C15.1054 17.4808 15 17.7351 15 18.0003C15 18.2656 15.1054 18.5199 15.2929 18.7075C15.4804 18.895 15.7348 19.0003 16 19.0003C16.2652 19.0003 16.5196 18.895 16.7071 18.7075C16.8946 18.5199 17 18.2656 17 18.0003ZM8 19.0003C8.26522 19.0003 8.51957 18.895 8.70711 18.7075C8.89464 18.5199 9 18.2656 9 18.0003C9 17.7351 8.89464 17.4808 8.70711 17.2932C8.51957 17.1057 8.26522 17.0003 8 17.0003C7.73478 17.0003 7.48043 17.1057 7.29289 17.2932C7.10536 17.4808 7 17.7351 7 18.0003C7 18.2656 7.10536 18.5199 7.29289 18.7075C7.48043 18.895 7.73478 19.0003 8 19.0003Z" fill="black"/>
</svg>
