<svg width="24" height="24" viewBox="0 0 24 24" fill="none" xmlns="http://www.w3.org/2000/svg">
<path d="M18.9 7.94688C18.7719 7.98125 18.6375 8 18.5 8C17.6719 8 17 7.34375 17 6.53125C17 6.375 17.0563 6.17813 17.1438 5.96563C17.1531 5.94375 17.1625 5.92187 17.1719 5.9C17.4531 5.26875 18 4.49688 18.2969 4.10313C18.3969 3.96563 18.5969 3.96563 18.6969 4.10313C19.1062 4.64375 20 5.90625 20 6.53125C20 7.20938 19.5344 7.775 18.9 7.94688ZM12 4C13.6063 4 15.1031 4.475 16.3562 5.2875C16.3094 5.38438 16.2625 5.48125 16.2219 5.57812C16.1156 5.82812 16 6.17188 16 6.53125C16 7.91562 17.1437 9 18.5 9C18.8 9 19.0875 8.94687 19.3562 8.85C19.7719 9.81562 20 10.8813 20 12C20 16.4187 16.4187 20 12 20C7.58125 20 4 16.4187 4 12C4 7.58125 7.58125 4 12 4ZM16.1281 13.775C14.8875 14.1562 13.4875 14.3687 12.0094 14.3687C10.5312 14.3687 9.13125 14.1562 7.89062 13.775C7.50625 13.6562 7.13125 13.9906 7.2875 14.3594C8.06875 16.2062 9.8875 17.5 12.0094 17.5C14.1312 17.5 15.9531 16.2062 16.7312 14.3594C16.8875 13.9906 16.5125 13.6562 16.1281 13.775ZM10.8 11.15C10.8656 11.2375 10.9781 11.2719 11.0781 11.2375C11.1781 11.2031 11.25 11.1094 11.25 11C11.25 10.4406 11.0406 9.8875 10.7312 9.475C10.425 9.06875 9.98438 8.75 9.5 8.75C9.01562 8.75 8.575 9.06875 8.26875 9.475C7.95938 9.8875 7.75 10.4406 7.75 11C7.75 11.1063 7.81875 11.2031 7.92188 11.2375C8.025 11.2719 8.1375 11.2375 8.2 11.15L8.20625 11.1438C8.2125 11.1375 8.21875 11.1281 8.22813 11.1156C8.24688 11.0906 8.27813 11.0531 8.31563 11.0094C8.39375 10.9219 8.50313 10.8031 8.63438 10.6875C8.90938 10.4437 9.22188 10.25 9.5 10.25C9.77812 10.25 10.0906 10.4437 10.3656 10.6875C10.4969 10.8031 10.6062 10.9219 10.6844 11.0094C10.7219 11.0531 10.7531 11.0906 10.7719 11.1156C10.7812 11.1281 10.7906 11.1375 10.7937 11.1438L10.8 11.15ZM15.8 11.15C15.8656 11.2375 15.9781 11.2719 16.0781 11.2375C16.1781 11.2031 16.25 11.1094 16.25 11C16.25 10.4406 16.0406 9.8875 15.7312 9.475C15.425 9.06875 14.9844 8.75 14.5 8.75C14.0156 8.75 13.575 9.06875 13.2688 9.475C12.9594 9.8875 12.75 10.4406 12.75 11C12.75 11.1063 12.8188 11.2031 12.9219 11.2375C13.025 11.2719 13.1375 11.2375 13.2 11.15L13.2063 11.1438C13.2125 11.1375 13.2187 11.1281 13.2281 11.1156C13.2469 11.0906 13.2781 11.0531 13.3156 11.0094C13.3938 10.9219 13.5031 10.8031 13.6344 10.6875C13.9094 10.4437 14.2219 10.25 14.5 10.25C14.7781 10.25 15.0906 10.4437 15.3656 10.6875C15.4969 10.8031 15.6062 10.9219 15.6844 11.0094C15.7219 11.0531 15.7531 11.0906 15.7719 11.1156C15.7813 11.1281 15.7906 11.1375 15.7937 11.1438L15.8 11.15Z" fill="black"/>
</svg>
