<svg width="24" height="24" viewBox="0 0 24 24" fill="none" xmlns="http://www.w3.org/2000/svg">
<path d="M6.7063 4.29297C6.31567 3.90234 5.68442 3.90234 5.2938 4.29297C4.90317 4.68359 4.90317 5.31797 5.2938 5.70859L7.83442 8.24922L4.9563 11.1273C3.78442 12.2992 3.78442 14.1992 4.9563 15.3711L8.62817 19.043C9.80005 20.2148 11.7 20.2148 12.8719 19.043L18.8219 13.0898C19.7 12.2117 19.7 10.7867 18.8219 9.90859L14.0907 5.17734C13.2125 4.29922 11.7875 4.29922 10.9094 5.17734L9.25005 6.83359L6.7063 4.29297ZM9.25005 9.66484L10.7938 11.2086C11.1844 11.5992 11.8188 11.5992 12.2094 11.2086C12.6 10.818 12.6 10.1836 12.2094 9.79297L10.6657 8.24922L12.325 6.58984C12.4219 6.49297 12.5813 6.49297 12.6782 6.58984L17.4094 11.3211C17.5063 11.418 17.5063 11.5773 17.4094 11.6742L16.0844 12.9992H6.10942C6.15317 12.8305 6.24067 12.6742 6.37192 12.543L9.25005 9.66484Z" fill="black"/>
</svg>
