<svg width="24" height="24" viewBox="0 0 24 24" fill="none" xmlns="http://www.w3.org/2000/svg">
<path d="M13 16.925C16.1156 16.4438 18.5 13.75 18.5 10.5C18.5 6.90937 15.5906 4 12 4C8.40937 4 5.5 6.90937 5.5 10.5C5.5 13.75 7.88438 16.4438 11 16.925V18H8C7.44687 18 7 18.4469 7 19C7 19.5531 7.44687 20 8 20H12H16C16.5531 20 17 19.5531 17 19C17 18.4469 16.5531 18 16 18H13V16.925ZM10.7781 6.14062L12.0094 9.1875C12.5875 8.39688 13.5719 7.94375 14.6125 8.09062C16.1156 8.30312 17.1656 9.69375 16.9531 11.1969C16.9156 11.4719 16.6625 11.6594 16.3875 11.6219L13.1313 11.1625C13.525 12.0594 13.4281 13.1375 12.7812 13.9656C11.8469 15.1625 10.1187 15.375 8.92188 14.4406C8.70312 14.2719 8.66562 13.9563 8.83437 13.7375L10.8594 11.1469C9.88437 11.0406 9 10.4156 8.60625 9.44375C8.0375 8.03437 8.71875 6.43438 10.1281 5.86563C10.3844 5.7625 10.675 5.88438 10.7781 6.14062ZM12 11C12.1326 11 12.2598 10.9473 12.3536 10.8536C12.4473 10.7598 12.5 10.6326 12.5 10.5C12.5 10.3674 12.4473 10.2402 12.3536 10.1464C12.2598 10.0527 12.1326 10 12 10C11.8674 10 11.7402 10.0527 11.6464 10.1464C11.5527 10.2402 11.5 10.3674 11.5 10.5C11.5 10.6326 11.5527 10.7598 11.6464 10.8536C11.7402 10.9473 11.8674 11 12 11Z" fill="black"/>
</svg>
