<svg width="24" height="24" viewBox="0 0 24 24" fill="none" xmlns="http://www.w3.org/2000/svg">
<path d="M2 5V6C2 6.55313 2.44687 7 3 7H21C21.5531 7 22 6.55313 22 6V5C22 4.44687 21.5531 4 21 4H3C2.44687 4 2 4.44687 2 5ZM21 8H3V19C3 19.5531 3.44687 20 4 20H7V15C7 12.2375 9.2375 10 12 10C14.7625 10 17 12.2375 17 15V20H20C20.5531 20 21 19.5531 21 19V8ZM12 20C13.9344 20 15.5 18.4344 15.5 16.5C15.5 15.8031 15.1594 14.6625 13.8719 13.3844C13.6156 13.1281 13.2031 13.15 12.9469 13.4062L12.7 13.6531L11.6938 12.6469C11.5625 12.5156 11.3875 12.4437 11.2125 12.4469C11.0844 12.4469 10.9563 12.4906 10.8469 12.575C9.86563 13.3375 8.5 14.825 8.5 16.5C8.5 18.4344 10.0656 20 12 20ZM13.4 17.5531C13.4 18.325 12.7719 18.9531 12 18.9531C11.2281 18.9531 10.6 18.325 10.6 17.5531C10.6 16.7531 11.4094 15.9562 11.7969 15.6187C11.9156 15.5156 12.0844 15.5156 12.2 15.6187C12.5875 15.9562 13.3969 16.7531 13.3969 17.5531H13.4Z" fill="black"/>
</svg>
