<svg width="24" height="24" viewBox="0 0 24 24" fill="none" xmlns="http://www.w3.org/2000/svg">
<path d="M16.8874 4.18438C17.0499 4.38438 17.0374 4.67188 16.853 4.85626L13.9999 7.70626C13.8374 7.86876 13.8374 8.13126 13.9999 8.29376C14.153 8.44688 14.3999 8.45626 14.5655 8.31251L17.6718 5.62188C17.8687 5.45001 18.1687 5.45938 18.353 5.64688C18.5374 5.83438 18.5499 6.12813 18.378 6.32813L15.6874 9.43438C15.5437 9.60001 15.553 9.84688 15.7062 10C15.8687 10.1625 16.1312 10.1625 16.2937 10L19.1468 7.14688C19.328 6.96563 19.6187 6.95001 19.8187 7.11251C20.0187 7.27501 20.0593 7.56251 19.9187 7.77501L17.6999 11.1031C17.1187 11.975 16.1405 12.4969 15.0937 12.4969C14.4905 12.4969 13.9093 12.325 13.4093 12.0063L5.70615 19.7063C5.31553 20.0969 4.68115 20.0969 4.29053 19.7063C3.8999 19.3156 3.8999 18.6813 4.29053 18.2906L11.9905 10.5938C11.6718 10.0938 11.4999 9.50938 11.4999 8.90938C11.4999 7.86251 12.0249 6.88438 12.8937 6.30313L16.2218 4.08438C16.4343 3.94063 16.7218 3.98438 16.8843 4.18438H16.8874Z" fill="black"/>
</svg>
