<svg width="24" height="24" viewBox="0 0 24 24" fill="none" xmlns="http://www.w3.org/2000/svg">
<path d="M12 20C14.1217 20 16.1566 19.1571 17.6569 17.6569C19.1571 16.1566 20 14.1217 20 12C20 9.87827 19.1571 7.84344 17.6569 6.34315C16.1566 4.84285 14.1217 4 12 4C9.87827 4 7.84344 4.84285 6.34315 6.34315C4.84285 7.84344 4 9.87827 4 12C4 14.1217 4.84285 16.1566 6.34315 17.6569C7.84344 19.1571 9.87827 20 12 20ZM12 13.5C12.8281 13.5 13.5 14.1719 13.5 15V16C13.5 16.8281 12.8281 17.5 12 17.5C11.1719 17.5 10.5 16.8281 10.5 16V15C10.5 14.1719 11.1719 13.5 12 13.5ZM8.5125 11C8.5125 10.7348 8.61786 10.4804 8.80539 10.2929C8.99293 10.1054 9.24728 10 9.5125 10C9.77772 10 10.0321 10.1054 10.2196 10.2929C10.4071 10.4804 10.5125 10.7348 10.5125 11C10.5125 11.2652 10.4071 11.5196 10.2196 11.7071C10.0321 11.8946 9.77772 12 9.5125 12C9.24728 12 8.99293 11.8946 8.80539 11.7071C8.61786 11.5196 8.5125 11.2652 8.5125 11ZM14.5125 10C14.7777 10 15.0321 10.1054 15.2196 10.2929C15.4071 10.4804 15.5125 10.7348 15.5125 11C15.5125 11.2652 15.4071 11.5196 15.2196 11.7071C15.0321 11.8946 14.7777 12 14.5125 12C14.2473 12 13.9929 11.8946 13.8054 11.7071C13.6179 11.5196 13.5125 11.2652 13.5125 11C13.5125 10.7348 13.6179 10.4804 13.8054 10.2929C13.9929 10.1054 14.2473 10 14.5125 10ZM10 8C9.8625 8 9.725 8.00937 9.59375 8.02812C8.93125 8.11562 8.325 8.41562 7.84063 8.86562C7.6375 9.05312 7.32188 9.04375 7.13438 8.84062C6.94688 8.6375 6.95625 8.32188 7.15937 8.13438C7.7875 7.55 8.58125 7.15 9.4625 7.03437C9.6375 7.0125 9.81875 7 10 7C10.275 7 10.5 7.225 10.5 7.5C10.5 7.775 10.275 8 10 8ZM14.4062 8.02812C14.2719 8.00937 14.1375 8 14 8C13.725 8 13.5 7.775 13.5 7.5C13.5 7.225 13.725 7 14 7C14.1813 7 14.3625 7.0125 14.5375 7.03437C15.4188 7.15 16.2156 7.54688 16.8406 8.13438C17.0437 8.32188 17.0531 8.64062 16.8656 8.84062C16.6781 9.04062 16.3594 9.05312 16.1594 8.86562C15.675 8.4125 15.0719 8.11562 14.4062 8.02812Z" fill="black"/>
</svg>
