<svg width="24" height="24" viewBox="0 0 24 24" fill="none" xmlns="http://www.w3.org/2000/svg">
<path d="M11.7249 4.05289C11.5686 3.97476 11.3874 3.98414 11.2374 4.07476C11.0874 4.16539 10.9999 4.32789 10.9999 4.49976V10.4591V12.4341C11.2874 12.4779 11.6186 12.5029 11.9999 12.5029C12.3811 12.5029 12.7124 12.4779 12.9999 12.4341V4.99351C12.9968 4.80601 12.8905 4.63726 12.7249 4.55289L11.7249 4.05289ZM9.99988 4.45914L9.99363 4.41851C9.96863 4.26226 9.86863 4.12789 9.728 4.05601C9.58738 3.98414 9.41863 3.98414 9.278 4.05289L8.278 4.55289C8.08113 4.64976 7.97175 4.86539 8.00925 5.08101L9.00925 11.081C9.02488 11.1185 9.03738 11.1529 9.04675 11.1873C9.10925 11.3841 9.25613 11.6841 9.63113 11.9466C9.73113 12.0154 9.853 12.0873 9.99988 12.1529V4.45914ZM7.25925 6.67476L6.62175 6.51539C6.45613 6.47476 6.28425 6.51851 6.15925 6.63414C6.03425 6.74976 5.978 6.91851 6.00613 7.08726L6.52175 10.006C6.57175 10.0029 6.61863 9.99976 6.66863 9.99976H7.49988C7.61238 9.99976 7.71863 10.0123 7.81863 10.031L7.25925 6.67476ZM17.9936 7.08726C18.0218 6.92164 17.9655 6.74976 17.8436 6.63414C17.7218 6.51851 17.5468 6.47476 17.3811 6.51539L16.8186 6.65601L16.2249 10.0248C16.3124 10.0091 16.403 9.99976 16.4999 9.99976H17.3311C17.3811 9.99976 17.4311 10.0029 17.478 10.006L17.9936 7.08726ZM15.9936 5.58726C16.0218 5.42164 15.9655 5.24976 15.8436 5.13414C15.7218 5.01851 15.5468 4.97476 15.3811 5.01539L14.3811 5.26539C14.1874 5.31226 14.0405 5.46851 14.0061 5.66226L13.9999 5.70601V12.156C14.1499 12.0904 14.2718 12.0185 14.3686 11.9498C14.7436 11.6873 14.8905 11.3873 14.953 11.1904C14.9749 11.1185 15.0061 11.0435 15.0405 10.9716L15.9936 5.58726ZM6.01863 11.8279L7.8155 19.2341C7.92488 19.6841 8.32488 19.9998 8.78738 19.9998H15.2124C15.6749 19.9998 16.0749 19.6841 16.1843 19.2341L17.9811 11.8279C17.9936 11.7748 17.9999 11.7248 17.9999 11.6685C17.9999 11.2998 17.6999 10.9998 17.3311 10.9998H16.4999C16.2249 10.9998 15.9905 11.2248 15.9093 11.4904C15.678 12.2185 14.8655 13.4998 11.9999 13.4998C9.13425 13.4998 8.32175 12.2185 8.0905 11.4904C8.00925 11.2248 7.77488 10.9998 7.49988 10.9998H6.66863C6.29988 10.9998 5.99988 11.2998 5.99988 11.6685C5.99988 11.7216 6.00613 11.7748 6.01863 11.8279Z" fill="black"/>
</svg>
