<svg width="24" height="24" viewBox="0 0 24 24" fill="none" xmlns="http://www.w3.org/2000/svg">
<path d="M19.3499 4.26644C20.0312 4.73832 20.203 5.67269 19.7312 6.35394L18.0999 8.71332L15.603 7.04769L17.2624 4.64769C17.7343 3.96644 18.6687 3.79457 19.3499 4.26644ZM15.0343 7.87269L17.5312 9.53832L11.5312 18.2164C10.7624 19.3258 9.50303 19.9914 8.15303 19.9946C5.85928 20.0008 4.00303 18.1352 4.01865 15.8414V15.7727C4.0249 14.9696 4.2624 14.1852 4.6999 13.5102L5.24053 12.6821C5.69365 11.9883 6.62178 11.7946 7.31553 12.2477C8.00928 12.7008 8.20303 13.6289 7.7499 14.3227L7.20928 15.1508C7.08428 15.3414 7.01553 15.5664 7.01553 15.7946V15.8633C7.0124 16.4883 7.51553 16.9946 8.14053 16.9914C8.50615 16.9914 8.8499 16.8102 9.05928 16.5071L15.0343 7.87269ZM17.4999 15.0008C18.1629 15.0008 18.7988 15.2642 19.2677 15.7331C19.7365 16.2019 19.9999 16.8378 19.9999 17.5008C19.9999 18.1639 19.7365 18.7997 19.2677 19.2686C18.7988 19.7374 18.1629 20.0008 17.4999 20.0008C16.8369 20.0008 16.201 19.7374 15.7321 19.2686C15.2633 18.7997 14.9999 18.1639 14.9999 17.5008C14.9999 16.8378 15.2633 16.2019 15.7321 15.7331C16.201 15.2642 16.8369 15.0008 17.4999 15.0008Z" fill="black"/>
</svg>
