<svg width="24" height="24" viewBox="0 0 24 24" fill="none" xmlns="http://www.w3.org/2000/svg">
<path d="M19.8563 13.525C19.7156 14.25 20.225 15 20.9625 15H21C21.5531 15 22 15.4469 22 16C22 16.5531 21.5531 17 21 17H19.5C19.225 17 19 17.225 19 17.5C19 17.775 19.225 18 19.5 18H20C20.5531 18 21 18.4469 21 19C21 19.5531 20.5531 20 20 20H12H3C2.44687 20 2 19.5531 2 19C2 18.4469 2.44687 18 3 18H3.40313C4.55313 18 5.22813 16.4156 4.74375 15.3719C4.26563 14.3469 4 13.2031 4 12C4 7.58125 7.58125 4 12 4C16.4187 4 20 7.58125 20 12C20 12.5219 19.95 13.0312 19.8563 13.525ZM9.725 10.8719C9.85261 10.9085 9.98623 10.9194 10.1181 10.9038C10.2499 10.8882 10.3774 10.8466 10.4929 10.7813C10.6085 10.7159 10.7099 10.6283 10.7913 10.5233C10.8726 10.4184 10.9322 10.2983 10.9667 10.1701C11.0011 10.0419 11.0097 9.90809 10.9919 9.77653C10.9741 9.64497 10.9302 9.51827 10.8629 9.40383C10.7956 9.28938 10.7062 9.18948 10.5999 9.10996C10.4936 9.03043 10.3725 8.97287 10.2437 8.94063C10.1161 8.904 9.98252 8.89314 9.85067 8.9087C9.71882 8.92426 9.59139 8.96591 9.47581 9.03123C9.36023 9.09656 9.25882 9.18424 9.17748 9.28917C9.09615 9.3941 9.03652 9.51418 9.00208 9.6424C8.96764 9.77061 8.95907 9.90441 8.97688 10.036C8.9947 10.1675 9.03853 10.2942 9.10582 10.4087C9.17311 10.5231 9.26252 10.623 9.36883 10.7025C9.47513 10.7821 9.59621 10.8396 9.725 10.8719ZM15.7812 11.4594C15.8179 11.3318 15.8287 11.1981 15.8132 11.0663C15.7976 10.9344 15.756 10.807 15.6906 10.6914C15.6253 10.5759 15.5376 10.4744 15.4327 10.3931C15.3278 10.3118 15.2077 10.2521 15.0795 10.2177C14.9513 10.1833 14.8175 10.1747 14.6859 10.1925C14.5543 10.2103 14.4276 10.2542 14.3132 10.3214C14.1988 10.3887 14.0989 10.4781 14.0193 10.5845C13.9398 10.6908 13.8822 10.8118 13.85 10.9406C13.8134 11.0682 13.8025 11.2019 13.8181 11.3337C13.8336 11.4656 13.8753 11.593 13.9406 11.7086C14.0059 11.8241 14.0936 11.9256 14.1985 12.0069C14.3035 12.0882 14.4236 12.1479 14.5518 12.1823C14.68 12.2167 14.8138 12.2253 14.9453 12.2075C15.0769 12.1897 15.2036 12.1458 15.318 12.0786C15.4325 12.0113 15.5324 11.9219 15.6119 11.8155C15.6914 11.7092 15.749 11.5882 15.7812 11.4594ZM8.6625 13.3562C8.54062 13.1094 8.24375 13.0031 7.99375 13.125C7.74375 13.2469 7.64062 13.5437 7.7625 13.7937C8.225 14.7469 9.17188 15.9031 10.8344 16.3469C12.4969 16.7906 13.8938 16.2656 14.7719 15.6687C15 15.5125 15.0594 15.2031 14.9062 14.975C14.7531 14.7469 14.4406 14.6875 14.2125 14.8406C13.5031 15.3219 12.4031 15.7313 11.0938 15.3781C9.78437 15.025 9.0375 14.1219 8.6625 13.3531V13.3562Z" fill="black"/>
</svg>
