<svg width="24" height="24" viewBox="0 0 24 24" fill="none" xmlns="http://www.w3.org/2000/svg">
<path d="M19.1438 15.6062C17.825 18.2125 15.1219 20 12 20C8.87815 20 6.17502 18.2125 4.85627 15.6062C4.9969 15.5156 5.12815 15.4094 5.25315 15.2844C5.50627 15.0312 5.66565 14.7031 5.76877 14.4531C5.88127 14.1781 5.9719 13.8781 6.04377 13.5938C6.18752 13.025 6.2844 12.4375 6.3344 12.0875C6.45627 11.2594 5.7469 10.55 4.9219 10.6687C4.7094 10.6969 4.41565 10.7438 4.09065 10.8063C4.66565 6.95312 7.98752 4 12 4C16.0125 4 19.3344 6.95312 19.9125 10.8031C19.5906 10.7406 19.2938 10.6937 19.0813 10.6656C18.2531 10.5438 17.5438 11.2531 17.6688 12.0844C17.7188 12.4375 17.8125 13.0219 17.9594 13.5906C18.0313 13.875 18.1219 14.1781 18.2344 14.45C18.3375 14.7031 18.4969 15.0281 18.75 15.2812C18.8719 15.4031 19.0063 15.5125 19.1469 15.6031L19.1438 15.6062ZM5.34377 11.9406C5.2469 12.6125 4.98752 14.1344 4.5469 14.5781C4.51877 14.6094 4.48752 14.6344 4.45627 14.6625C3.87502 15.1469 3.00002 15.1094 2.4469 14.5531C1.86252 13.9688 1.85002 13.0281 2.42502 12.4531C2.69377 12.1844 3.36565 11.9812 4.00315 11.8406C4.4094 11.7531 4.80002 11.6906 5.06252 11.6531C5.23127 11.6281 5.3719 11.7687 5.34377 11.9344V11.9406ZM19.5469 14.6625C19.5219 14.6438 19.5 14.6219 19.475 14.6C19.4688 14.5938 19.4594 14.5875 19.4531 14.5781C19.0125 14.1375 18.75 12.6125 18.6563 11.9406C18.6313 11.7719 18.7719 11.6313 18.9375 11.6594C18.9688 11.6625 19.0063 11.6688 19.0406 11.675C19.2969 11.7125 19.6406 11.7688 19.9969 11.8469C20.6344 11.9844 21.3063 12.1875 21.575 12.4594C22.15 13.0344 22.1375 13.975 21.5531 14.5594C21 15.1125 20.125 15.1531 19.5469 14.6656V14.6625ZM16.7313 14.3594C16.8875 13.9906 16.5125 13.6562 16.1281 13.775C14.8875 14.1562 13.4875 14.3687 12.0094 14.3687C10.5313 14.3687 9.13127 14.1562 7.89065 13.775C7.50627 13.6562 7.13127 13.9906 7.28752 14.3594C8.06877 16.2063 9.88752 17.5 12.0094 17.5C14.1313 17.5 15.9531 16.2063 16.7313 14.3594ZM10.8 11.15C10.8656 11.2375 10.9781 11.2719 11.0781 11.2375C11.1781 11.2031 11.25 11.1094 11.25 11C11.25 10.4406 11.0406 9.8875 10.7313 9.475C10.425 9.06875 9.9844 8.75 9.50002 8.75C9.01565 8.75 8.57502 9.06875 8.26877 9.475C7.9594 9.8875 7.75002 10.4406 7.75002 11C7.75002 11.1062 7.81877 11.2031 7.9219 11.2375C8.02502 11.2719 8.13752 11.2375 8.20002 11.15L8.20627 11.1438C8.21252 11.1375 8.21877 11.1281 8.22815 11.1156C8.2469 11.0906 8.27815 11.0531 8.31565 11.0094C8.39377 10.9219 8.50315 10.8031 8.6344 10.6875C8.9094 10.4437 9.2219 10.25 9.50002 10.25C9.77815 10.25 10.0906 10.4437 10.3656 10.6875C10.4969 10.8031 10.6063 10.9219 10.6844 11.0094C10.7219 11.0531 10.7531 11.0906 10.7719 11.1156C10.7813 11.1281 10.7906 11.1375 10.7938 11.1438L10.8 11.15ZM15.8 11.15C15.8656 11.2375 15.9781 11.2719 16.0781 11.2375C16.1781 11.2031 16.25 11.1094 16.25 11C16.25 10.4406 16.0406 9.8875 15.7313 9.475C15.425 9.06875 14.9844 8.75 14.5 8.75C14.0156 8.75 13.575 9.06875 13.2688 9.475C12.9594 9.8875 12.75 10.4406 12.75 11C12.75 11.1062 12.8188 11.2031 12.9219 11.2375C13.025 11.2719 13.1375 11.2375 13.2 11.15L13.2063 11.1438C13.2125 11.1375 13.2188 11.1281 13.2281 11.1156C13.2469 11.0906 13.2781 11.0531 13.3156 11.0094C13.3938 10.9219 13.5031 10.8031 13.6344 10.6875C13.9094 10.4437 14.2219 10.25 14.5 10.25C14.7781 10.25 15.0906 10.4437 15.3656 10.6875C15.4969 10.8031 15.6063 10.9219 15.6844 11.0094C15.7219 11.0531 15.7531 11.0906 15.7719 11.1156C15.7813 11.1281 15.7906 11.1375 15.7938 11.1438L15.8 11.15Z" fill="black"/>
</svg>
