<svg width="24" height="24" viewBox="0 0 24 24" fill="none" xmlns="http://www.w3.org/2000/svg">
<path d="M4 6C4 4.89688 4.89688 4 6 4H11V8C11 8.55312 11.4469 9 12 9H16V13.5H9.5C8.39687 13.5 7.5 14.3969 7.5 15.5V20H6C4.89688 20 4 19.1031 4 18V6ZM16 8H12V4L16 8ZM13.9469 15.275L15 17.3813V15.5C15 15.225 15.225 15 15.5 15C15.775 15 16 15.225 16 15.5V19.5C16 19.7312 15.8406 19.9344 15.6156 19.9875C15.3906 20.0406 15.1562 19.9313 15.0531 19.725L14 17.6187V19.5C14 19.775 13.775 20 13.5 20C13.225 20 13 19.775 13 19.5V15.5C13 15.2688 13.1594 15.0656 13.3844 15.0125C13.6094 14.9594 13.8438 15.0687 13.9469 15.275ZM9.5 15H10.5C11.4656 15 12.25 15.7844 12.25 16.75C12.25 17.7156 11.4656 18.5 10.5 18.5H10V19.5C10 19.775 9.775 20 9.5 20C9.225 20 9 19.775 9 19.5V18V15.5C9 15.225 9.225 15 9.5 15ZM10.5 17.5C10.9156 17.5 11.25 17.1656 11.25 16.75C11.25 16.3344 10.9156 16 10.5 16H10V17.5H10.5ZM17 16.25C17 15.5594 17.5594 15 18.25 15H18.75C19.4406 15 20 15.5594 20 16.25V16.5C20 16.775 19.775 17 19.5 17C19.225 17 19 16.775 19 16.5V16.25C19 16.1125 18.8875 16 18.75 16H18.25C18.1125 16 18 16.1125 18 16.25V18.75C18 18.8875 18.1125 19 18.25 19H18.75C18.8875 19 19 18.8875 19 18.75V18.5C18.725 18.5 18.5 18.275 18.5 18C18.5 17.725 18.725 17.5 19 17.5H19.5C19.775 17.5 20 17.725 20 18V18.75C20 19.4406 19.4406 20 18.75 20H18.25C17.5594 20 17 19.4406 17 18.75V16.25Z" fill="black"/>
</svg>
