<svg width="24" height="24" viewBox="0 0 24 24" fill="none" xmlns="http://www.w3.org/2000/svg">
<path d="M8 4C6.89688 4 6 4.89688 6 6V18C6 19.1031 6.89688 20 8 20H16C17.1031 20 18 19.1031 18 18V9H14C13.4469 9 13 8.55313 13 8V4H8ZM14 4V8H18L14 4ZM8.5 6H10.5C10.775 6 11 6.225 11 6.5C11 6.775 10.775 7 10.5 7H8.5C8.225 7 8 6.775 8 6.5C8 6.225 8.225 6 8.5 6ZM8.5 8H10.5C10.775 8 11 8.225 11 8.5C11 8.775 10.775 9 10.5 9H8.5C8.225 9 8 8.775 8 8.5C8 8.225 8.225 8 8.5 8ZM10.1937 15.9312C10.0031 16.5656 9.41875 17 8.75625 17H8.5C8.225 17 8 16.775 8 16.5C8 16.225 8.225 16 8.5 16H8.75625C8.97812 16 9.17188 15.8563 9.23438 15.6438L9.7 14.0969C9.80625 13.7438 10.1312 13.5 10.5 13.5C10.8688 13.5 11.1938 13.7406 11.3 14.0969L11.6625 15.3031C11.8937 15.1094 12.1875 15 12.5 15C12.9969 15 13.45 15.2813 13.6719 15.725L13.8094 16H15.5C15.775 16 16 16.225 16 16.5C16 16.775 15.775 17 15.5 17H13.5C13.3094 17 13.1375 16.8938 13.0531 16.725L12.7781 16.1719C12.725 16.0656 12.6188 16 12.5031 16C12.3875 16 12.2781 16.0656 12.2281 16.1719L11.9531 16.725C11.8625 16.9094 11.6656 17.0188 11.4625 17C11.2594 16.9812 11.0844 16.8406 11.0281 16.6469L10.5 14.9062L10.1937 15.9312Z" fill="black"/>
</svg>
