<svg width="24" height="24" viewBox="0 0 24 24" fill="none" xmlns="http://www.w3.org/2000/svg">
<path d="M12 20C14.1217 20 16.1566 19.1571 17.6569 17.6569C19.1571 16.1566 20 14.1217 20 12C20 9.87827 19.1571 7.84344 17.6569 6.34315C16.1566 4.84285 14.1217 4 12 4C9.87827 4 7.84344 4.84285 6.34315 6.34315C4.84285 7.84344 4 9.87827 4 12C4 14.1217 4.84285 16.1566 6.34315 17.6569C7.84344 19.1571 9.87827 20 12 20ZM13.7781 15.7156L14.2406 15.4062C14.6875 15.1062 15.2625 15.0719 15.7437 15.3125L16.225 15.5531C16.4719 15.6781 16.5719 15.9781 16.45 16.225C16.3281 16.4719 16.025 16.5719 15.7781 16.45L15.2969 16.2094C15.1375 16.1281 14.9437 16.1406 14.7969 16.2406L14.3344 16.55C13.8313 16.8844 13.175 16.8844 12.6687 16.55L12.2781 16.2906C12.1094 16.1781 11.8906 16.1781 11.7219 16.2906L11.3313 16.55C10.8281 16.8844 10.1719 16.8844 9.66563 16.55L9.20312 16.2406C9.05312 16.1406 8.8625 16.1281 8.70312 16.2094L8.22188 16.45C7.975 16.575 7.675 16.4719 7.55 16.225C7.425 15.9781 7.52813 15.6781 7.775 15.5531L8.25625 15.3125C8.7375 15.0719 9.3125 15.1062 9.75938 15.4062L10.2219 15.7156C10.3906 15.8281 10.6094 15.8281 10.7781 15.7156L11.1687 15.4563C11.6719 15.1219 12.3281 15.1219 12.8344 15.4563L13.225 15.7156C13.3938 15.8281 13.6125 15.8281 13.7812 15.7156H13.7781ZM9.18437 7.4875C9.19375 7.69375 9.03125 7.86875 8.825 7.87812C7.35937 7.9375 6.25625 9.28437 6.38438 10.5125V10.5219V10.5312C6.44688 11.7875 7.65937 12.7406 8.76562 12.6156H8.775H8.78438C9.91875 12.5531 10.725 11.5 10.6094 10.6V10.5906V10.5813C10.5438 9.65 9.63125 8.9875 8.85938 9.09688H8.85H8.84062C8.0375 9.16563 7.52813 9.91563 7.625 10.4875L7.62812 10.5V10.5125C7.69375 11.1219 8.3 11.4906 8.7375 11.4062L8.74687 11.4031H8.75625C9.23125 11.3375 9.44375 10.8937 9.37813 10.6531L9.375 10.6406L9.37187 10.6281C9.34375 10.4938 9.26562 10.3969 9.16875 10.3406C9.14062 10.325 9.1125 10.3125 9.0875 10.3031C9.14063 10.3625 9.175 10.4344 9.18125 10.5188C9.2125 10.8656 8.90625 11.0125 8.74062 11.0312C8.53437 11.0563 8.32188 10.9625 8.19063 10.7656C8.03438 10.5531 8.05313 10.2781 8.13438 10.0844C8.225 9.86562 8.4125 9.67187 8.69063 9.58437C8.97813 9.48125 9.29688 9.54375 9.55 9.6875C9.80938 9.84063 10.0344 10.1063 10.1094 10.4625C10.2906 11.175 9.7375 12.0094 8.875 12.1375C8.00937 12.3031 7.00625 11.6312 6.8875 10.6C6.71875 9.56875 7.57187 8.45313 8.77187 8.34688C9.96562 8.18438 11.2594 9.15312 11.3625 10.5125C11.5313 11.8656 10.3781 13.2688 8.84375 13.3625C7.31875 13.5281 5.73125 12.2625 5.64062 10.5781C5.46875 8.89688 6.925 7.2 8.79688 7.125C9.00312 7.11562 9.17812 7.27813 9.1875 7.48438L9.18437 7.4875ZM15.175 13.125C16.6406 13.0656 17.7438 11.7187 17.6156 10.4906V10.4812V10.4719C17.5531 9.21563 16.3406 8.2625 15.2344 8.3875H15.225H15.2156C14.0812 8.45 13.275 9.50312 13.3906 10.4031V10.4125V10.4219C13.4562 11.3531 14.3687 12.0156 15.1406 11.9062H15.15H15.1594C15.9625 11.8375 16.4719 11.0875 16.375 10.5156L16.3719 10.5031V10.4906C16.3062 9.88125 15.7 9.5125 15.2625 9.59688L15.2531 9.6H15.2437C14.7687 9.66562 14.5594 10.1094 14.6219 10.35L14.625 10.3625L14.6281 10.375C14.6563 10.5094 14.7344 10.6062 14.8313 10.6625C14.8594 10.6781 14.8875 10.6906 14.9125 10.7C14.8594 10.6406 14.825 10.5688 14.8188 10.4844C14.7875 10.1375 15.0937 9.99063 15.2594 9.97188C15.4656 9.94688 15.6781 10.0406 15.8094 10.2375C15.9656 10.45 15.9469 10.725 15.8656 10.9187C15.775 11.1375 15.5875 11.3312 15.3094 11.4187C15.0219 11.5219 14.7031 11.4594 14.45 11.3156C14.1906 11.1625 13.9656 10.8969 13.8906 10.5406C13.7094 9.82813 14.2625 8.99375 15.125 8.86562C15.9906 8.7 16.9938 9.37187 17.1125 10.4031C17.2813 11.4344 16.4281 12.55 15.2281 12.6562C14.0344 12.8187 12.7406 11.85 12.6375 10.4906C12.4687 9.1375 13.6219 7.73438 15.1562 7.64062C16.6812 7.475 18.2687 8.74063 18.3594 10.425C18.5312 12.1063 17.075 13.8031 15.2031 13.8781C14.9969 13.8875 14.8219 13.725 14.8125 13.5188C14.8031 13.3125 14.9656 13.1375 15.1719 13.1281L15.175 13.125Z" fill="black"/>
</svg>
