<svg width="24" height="24" viewBox="0 0 24 24" fill="none" xmlns="http://www.w3.org/2000/svg">
<path d="M3.5 9H5V5.5C5 4.67188 5.67188 4 6.5 4H11.1469C11.7812 4 12.3469 4.4 12.5594 4.99687L14.9125 11.5844C14.9688 11.7469 15 11.9156 15 12.0875V14.7656C15.6125 15.3156 16 16.1125 16 17.0031C16 18.6594 14.6562 20.0031 13 20.0031C11.3438 20.0031 10 18.6594 10 17.0031H8C8 18.6594 6.65625 20.0031 5 20.0031C3.34375 20.0031 2 18.6594 2 17.0031V10.5C2 9.67188 2.67188 9 3.5 9ZM10 12H12.9375L10.7937 6H7V9L10 12ZM5 18.5C5.39782 18.5 5.77936 18.342 6.06066 18.0607C6.34196 17.7794 6.5 17.3978 6.5 17C6.5 16.6022 6.34196 16.2206 6.06066 15.9393C5.77936 15.658 5.39782 15.5 5 15.5C4.60218 15.5 4.22064 15.658 3.93934 15.9393C3.65804 16.2206 3.5 16.6022 3.5 17C3.5 17.3978 3.65804 17.7794 3.93934 18.0607C4.22064 18.342 4.60218 18.5 5 18.5ZM13 18.5C13.3978 18.5 13.7794 18.342 14.0607 18.0607C14.342 17.7794 14.5 17.3978 14.5 17C14.5 16.6022 14.342 16.2206 14.0607 15.9393C13.7794 15.658 13.3978 15.5 13 15.5C12.6022 15.5 12.2206 15.658 11.9393 15.9393C11.658 16.2206 11.5 16.6022 11.5 17C11.5 17.3978 11.658 17.7794 11.9393 18.0607C12.2206 18.342 12.6022 18.5 13 18.5ZM19 5V16H21C21.5531 16 22 16.4469 22 17C22 17.5531 21.5531 18 21 18H18C17.4469 18 17 17.5531 17 17V5C17 4.44687 17.4469 4 18 4C18.5531 4 19 4.44687 19 5Z" fill="black"/>
</svg>
