<svg width="24" height="24" viewBox="0 0 24 24" fill="none" xmlns="http://www.w3.org/2000/svg">
<path d="M3 6C3 4.89688 3.89688 4 5 4H10V8C10 8.55312 10.4469 9 11 9H15V10.2063C12.6906 10.8594 11 12.9812 11 15.5C11 17.3469 11.9094 18.9781 13.3031 19.9781C13.2031 19.9937 13.1031 20 13 20H5C3.89688 20 3 19.1031 3 18V6ZM15 8H11V4L15 8ZM16.5 11C17.6935 11 18.8381 11.4741 19.682 12.318C20.5259 13.1619 21 14.3065 21 15.5C21 16.6935 20.5259 17.8381 19.682 18.682C18.8381 19.5259 17.6935 20 16.5 20C15.3065 20 14.1619 19.5259 13.318 18.682C12.4741 17.8381 12 16.6935 12 15.5C12 14.3065 12.4741 13.1619 13.318 12.318C14.1619 11.4741 15.3065 11 16.5 11ZM16.5 18.5C16.6989 18.5 16.8897 18.421 17.0303 18.2803C17.171 18.1397 17.25 17.9489 17.25 17.75C17.25 17.5511 17.171 17.3603 17.0303 17.2197C16.8897 17.079 16.6989 17 16.5 17C16.3011 17 16.1103 17.079 15.9697 17.2197C15.829 17.3603 15.75 17.5511 15.75 17.75C15.75 17.9489 15.829 18.1397 15.9697 18.2803C16.1103 18.421 16.3011 18.5 16.5 18.5ZM14.5 14.05V14.25C14.5 14.525 14.725 14.75 15 14.75C15.275 14.75 15.5 14.525 15.5 14.25V14.05C15.5 13.8844 15.6344 13.75 15.8 13.75H17.0656C17.3063 13.75 17.5 13.9437 17.5 14.1844C17.5 14.3469 17.4094 14.4938 17.2688 14.5688L16.2688 15.0938C16.1031 15.1812 16 15.35 16 15.5375V16C16 16.275 16.225 16.5 16.5 16.5C16.775 16.5 17 16.275 17 16V15.8406L17.7344 15.4563C18.2063 15.2094 18.5 14.7188 18.5 14.1875C18.5 13.3938 17.8562 12.7531 17.0656 12.7531H15.8C15.0813 12.7531 14.5 13.3344 14.5 14.0531V14.05Z" fill="black"/>
</svg>
