<svg width="24" height="24" viewBox="0 0 24 24" fill="none" xmlns="http://www.w3.org/2000/svg">
<path d="M20 17C20 18.1031 19.1031 19 18 19H6C4.89688 19 4 18.1031 4 17V7C4 5.89688 4.89688 5 6 5H10C10.6281 5 11.2219 5.29687 11.6 5.8L12.2 6.6C12.3875 6.85312 12.6844 7 13 7H18C19.1031 7 20 7.89688 20 9V17ZM8.5 11.9156C8.5 12.4219 8.70312 12.9094 9.05937 13.2688L11.6438 15.8531C11.8375 16.0469 12.1563 16.0469 12.35 15.8531L14.9344 13.2688C15.2937 12.9094 15.4937 12.4219 15.4937 11.9156C15.4937 10.8594 14.6375 10 13.5781 10C13.0719 10 12.5844 10.2031 12.225 10.5594L11.9938 10.7906L11.7625 10.5594C11.4031 10.2 10.9156 10 10.4094 10C9.35313 10 8.49375 10.8563 8.49375 11.9156H8.5Z" fill="black"/>
</svg>
