<svg width="24" height="24" viewBox="0 0 24 24" fill="none" xmlns="http://www.w3.org/2000/svg">
<path d="M7 5C7 4.44687 6.55313 4 6 4C5.44687 4 5 4.44687 5 5V6V15.5V19C5 19.5531 5.44687 20 6 20C6.55313 20 7 19.5531 7 19V15L9.00938 14.4969C10.2938 14.175 11.6531 14.325 12.8375 14.9156C14.2188 15.6062 15.8219 15.6906 17.2656 15.1469L18.35 14.7406C18.7406 14.5938 19 14.2219 19 13.8031V6.06562C19 5.34687 18.2438 4.87813 17.6 5.2L17.3 5.35C15.8531 6.075 14.15 6.075 12.7031 5.35C11.6063 4.8 10.3469 4.6625 9.15625 4.95938L7 5.5V5Z" fill="black"/>
</svg>
