<svg width="24" height="24" viewBox="0 0 24 24" fill="none" xmlns="http://www.w3.org/2000/svg">
<path d="M8 4C6.89688 4 6 4.89688 6 6V18C6 19.1031 6.89688 20 8 20H16C17.1031 20 18 19.1031 18 18V9H14C13.4469 9 13 8.55313 13 8V4H8ZM14 4V8H18L14 4ZM14.0625 11.0719C15.2219 11.7719 16 13.0438 16 14.5C16 15.9562 15.2219 17.2281 14.0625 17.9281C13.825 18.0719 13.5187 17.9937 13.375 17.7594C13.2313 17.525 13.3094 17.2156 13.5437 17.0719C14.4187 16.5469 15 15.5906 15 14.5C15 13.4094 14.4187 12.4531 13.5469 11.9281C13.3094 11.7844 13.2344 11.4781 13.3781 11.2406C13.5219 11.0031 13.8281 10.9281 14.0656 11.0719H14.0625ZM11.1906 12.0375C11.3781 12.1156 11.5 12.2969 11.5 12.5V16.5C11.5 16.7031 11.3781 16.8844 11.1906 16.9625C11.0031 17.0406 10.7875 16.9969 10.6469 16.8531L9.54375 15.75H8.5C8.225 15.75 8 15.525 8 15.25V13.75C8 13.475 8.225 13.25 8.5 13.25H9.54375L10.6469 12.1469C10.7906 12.0031 11.0063 11.9625 11.1906 12.0375ZM12.7844 13.1281C12.9906 12.9438 13.3062 12.9625 13.4906 13.1687C13.8062 13.5187 14 13.9875 14 14.5C14 15.0125 13.8062 15.4813 13.4906 15.8344C13.3062 16.0406 12.9906 16.0563 12.7844 15.875C12.5781 15.6937 12.5625 15.375 12.7438 15.1687C12.9031 14.9906 12.9969 14.7594 12.9969 14.5031C12.9969 14.2469 12.9 14.0125 12.7438 13.8375C12.5594 13.6312 12.5781 13.3156 12.7844 13.1313V13.1281Z" fill="black"/>
</svg>
