<svg width="24" height="24" viewBox="0 0 24 24" fill="none" xmlns="http://www.w3.org/2000/svg">
<path d="M11.7343 4.79299C11.3124 4.89612 10.9093 5.01799 10.528 5.15862C8.46553 5.92424 7.02178 7.23674 6.0624 8.79924C5.49053 9.73049 5.09678 10.7461 4.8374 11.7805L12.2655 19.2055C12.6874 19.1024 13.0905 18.9805 13.4718 18.8399C15.5343 18.0742 16.978 16.7617 17.9374 15.1992C18.5093 14.268 18.903 13.2524 19.1593 12.2211L11.7343 4.79299ZM19.4749 10.4149C19.6655 8.63987 19.5187 6.90862 19.2343 5.52737C19.1499 5.12424 18.828 4.81174 18.4187 4.74299C16.5999 4.43987 14.9843 4.36799 13.5562 4.49612L19.4749 10.4149ZM10.4405 19.4992L4.5249 13.5836C4.33428 15.3586 4.48115 17.0899 4.76553 18.4711C4.8499 18.8742 5.17178 19.1867 5.58115 19.2555C7.3999 19.5586 9.01553 19.6305 10.4437 19.5024L10.4405 19.4992ZM12.1468 9.14612C12.3405 8.95237 12.6593 8.95237 12.853 9.14612L14.853 11.1461C15.0468 11.3399 15.0468 11.6586 14.853 11.8524C14.6593 12.0461 14.3405 12.0461 14.1468 11.8524L12.1468 9.85237C11.953 9.65862 11.953 9.33987 12.1468 9.14612ZM10.6468 10.6461C10.8405 10.4524 11.1593 10.4524 11.353 10.6461L13.353 12.6461C13.5468 12.8399 13.5468 13.1586 13.353 13.3524C13.1593 13.5461 12.8405 13.5461 12.6468 13.3524L10.6468 11.3524C10.453 11.1586 10.453 10.8399 10.6468 10.6461ZM9.14678 12.1461C9.34053 11.9524 9.65928 11.9524 9.85303 12.1461L11.853 14.1461C12.0468 14.3399 12.0468 14.6586 11.853 14.8524C11.6593 15.0461 11.3405 15.0461 11.1468 14.8524L9.14678 12.8524C8.95303 12.6586 8.95303 12.3399 9.14678 12.1461Z" fill="black"/>
</svg>
