<svg width="24" height="24" viewBox="0 0 24 24" fill="none" xmlns="http://www.w3.org/2000/svg">
<path d="M12 20C16.4187 20 20 16.4187 20 12C20 11.2312 19.8906 10.4875 19.6906 9.78438C21.075 7.92813 21.7969 5.56563 21.9906 4.59688C22.0312 4.4 21.9469 4.19687 21.7781 4.08438C21.6094 3.97188 21.3906 3.97188 21.2219 4.08438C20.6187 4.4875 19.7062 4.84062 18.7719 5.11875C18.0437 5.3375 17.3344 5.5 16.8031 5.60312C15.4656 4.59687 13.8031 4 12 4C10.1969 4 8.53435 4.59687 7.19373 5.60312C6.66248 5.5 5.9531 5.33437 5.22498 5.11875C4.29373 4.84062 3.38123 4.48438 2.7781 4.08438C2.60935 3.97188 2.3906 3.97188 2.22185 4.08438C2.0531 4.19687 1.96873 4.4 2.00935 4.59688C2.2031 5.56563 2.92498 7.92813 4.30935 9.78438C4.10935 10.4875 3.99998 11.2312 3.99998 12C3.99998 16.4187 7.58123 20 12 20ZM9.1281 14.9219C9.68748 15.5688 10.6437 16.25 12 16.25C13.3562 16.25 14.3125 15.5688 14.8719 14.9219C15.0531 14.7125 15.3687 14.6906 15.5781 14.8719C15.7875 15.0531 15.8094 15.3688 15.6281 15.5781C14.9312 16.3781 13.7219 17.25 12 17.25C10.2781 17.25 9.06873 16.3781 8.37185 15.5781C8.1906 15.3688 8.21248 15.0531 8.42185 14.8719C8.63123 14.6906 8.94685 14.7125 9.1281 14.9219ZM10.5125 12.5C10.5125 13.0531 10.0656 13.5 9.51248 13.5C8.95935 13.5 8.51248 13.0531 8.51248 12.5C8.51248 12.225 8.62498 11.975 8.8031 11.7937L7.84373 11.475C7.58123 11.3875 7.4406 11.1031 7.5281 10.8438C7.6156 10.5844 7.89998 10.4406 8.15935 10.5281L11.1594 11.5281C11.4219 11.6156 11.5625 11.9 11.475 12.1594C11.3875 12.4188 11.1031 12.5625 10.8437 12.475L10.5031 12.3625C10.5094 12.4094 10.5125 12.4531 10.5125 12.5ZM14.5125 13.5C13.9594 13.5 13.5125 13.0531 13.5125 12.5C13.5125 12.45 13.5156 12.4 13.5219 12.3531L13.1562 12.475C12.8937 12.5625 12.6125 12.4219 12.525 12.1594C12.4375 11.8969 12.5781 11.6156 12.8406 11.5281L15.8406 10.5281C16.1031 10.4406 16.3844 10.5813 16.4719 10.8438C16.5594 11.1062 16.4187 11.3875 16.1562 11.475L15.2125 11.7906C15.3969 11.9719 15.5094 12.225 15.5094 12.5031C15.5094 13.0563 15.0625 13.5031 14.5094 13.5031L14.5125 13.5Z" fill="black"/>
</svg>
