<svg width="24" height="24" viewBox="0 0 24 24" fill="none" xmlns="http://www.w3.org/2000/svg">
<path d="M17.5562 8.50938C17.9593 8.10625 18.5499 8.00625 19.0468 8.20937C17.6937 5.70312 15.0468 4 11.9999 4C9.76553 4 7.74365 4.91562 6.29053 6.39375C6.53115 6.45 6.75615 6.57188 6.94365 6.75938C7.48115 7.29688 7.48115 8.16563 6.94365 8.70312L6.89678 8.75H9.2499C9.94053 8.75 10.4999 9.30937 10.4999 10C10.4999 10.0813 10.4937 10.1594 10.478 10.2344C10.7937 10.4625 10.9999 10.8313 10.9999 11.25C10.9999 11.6687 10.7937 12.0406 10.478 12.2656C10.4937 12.3406 10.4999 12.4187 10.4999 12.5C10.4999 13.1906 9.94053 13.75 9.2499 13.75H8.9999C8.9999 13.7594 8.9999 13.7688 8.9999 13.7781C8.9999 14.4688 8.44053 15.0281 7.7499 15.0281H5.7249C5.30928 15.0281 4.8999 14.9594 4.5124 14.825C5.65615 17.85 8.5749 20 11.9999 20C14.8593 20 17.3687 18.5 18.7843 16.2437C18.6155 16.2656 18.4468 16.2781 18.2749 16.2781H16.2499C15.5593 16.2781 14.9999 15.7188 14.9999 15.0281C14.9999 15.025 14.9999 15.0219 14.9999 15.0188C14.9999 15.0125 14.9999 15.0063 14.9999 15H14.7499C14.0593 15 13.4999 14.4406 13.4999 13.75C13.4999 13.7156 13.4999 13.6813 13.503 13.6469C12.3468 13.3219 11.4999 12.2594 11.4999 11C11.4999 9.48125 12.7312 8.25 14.2499 8.25C14.4562 8.25 14.6562 8.27188 14.8499 8.31563C15.2187 8.19063 15.6374 8.24062 15.978 8.48438L17.1624 9.33125C17.1968 9.03125 17.328 8.74062 17.5562 8.5125V8.50938ZM11.9999 18C10.8968 18 9.9999 17.3281 9.9999 16.5C9.9999 15.6719 10.8968 15 11.9999 15C13.103 15 13.9999 15.6719 13.9999 16.5C13.9999 17.3281 13.103 18 11.9999 18ZM14.8218 11.5C14.9405 11.3688 15.0124 11.1906 15.0124 11C15.0124 10.5844 14.678 10.25 14.2624 10.25C13.8468 10.25 13.5124 10.5844 13.5124 11C13.5124 11.1906 13.5843 11.3688 13.703 11.5H14.8218ZM9.7499 10C9.7499 9.725 9.5249 9.5 9.2499 9.5H5.69365C5.47178 9.5 5.35928 9.23125 5.51553 9.07188L6.41553 8.17188C6.65928 7.92812 6.65928 7.53125 6.41553 7.2875C6.17178 7.04375 5.7749 7.04375 5.53115 7.2875L3.62178 9.2L3.59678 9.225C2.45928 10.3875 2.46865 12.2531 3.62178 13.4062C4.18115 13.9656 4.9374 14.2781 5.7249 14.2781H7.7499C8.0249 14.2781 8.2499 14.0531 8.2499 13.7781C8.2499 13.5031 8.0249 13.2781 7.7499 13.2781H7.3124C7.23428 13.2781 7.17178 13.2156 7.17178 13.1375C7.17178 13.0594 7.23428 12.9969 7.3124 12.9969H9.2499C9.5249 12.9969 9.7499 12.7719 9.7499 12.4969C9.7499 12.2219 9.5249 11.9969 9.2499 11.9969H7.2999C7.23115 11.9969 7.1749 11.9406 7.1749 11.8719C7.1749 11.8031 7.23115 11.7469 7.2999 11.7469H9.7499C10.0249 11.7469 10.2499 11.5219 10.2499 11.2469C10.2499 10.9719 10.0249 10.7469 9.7499 10.7469H7.2999C7.23115 10.7469 7.1749 10.6906 7.1749 10.6219C7.1749 10.5531 7.23115 10.4969 7.2999 10.4969H9.2499C9.5249 10.4969 9.7499 10.2719 9.7499 9.99687V10ZM14.8437 9.20937C14.6843 9.43437 14.7343 9.74687 14.9593 9.90625L16.8249 11.2375C16.9343 11.3156 16.9999 11.4437 16.9999 11.5781C16.9999 11.8094 16.8124 11.9969 16.5812 11.9969L14.2499 12C13.9749 12 13.7499 12.225 13.7499 12.5C13.7499 12.775 13.9749 13 14.2499 13H16.8749C16.9437 13 16.9999 13.0562 16.9999 13.125C16.9999 13.1938 16.9437 13.25 16.8749 13.25H14.7499C14.4749 13.25 14.2499 13.475 14.2499 13.75C14.2499 14.025 14.4749 14.25 14.7499 14.25H16.8593C16.9374 14.25 16.9999 14.3125 16.9999 14.3906C16.9999 14.4688 16.9374 14.5312 16.8593 14.5312H16.2499C15.9749 14.5312 15.7499 14.7563 15.7499 15.0312C15.7499 15.3062 15.9749 15.5312 16.2499 15.5312H18.2749C19.0624 15.5312 19.8218 15.2188 20.378 14.6594C21.5312 13.5063 21.5405 11.6406 20.403 10.4781L20.378 10.4531L18.9687 9.04063C18.7249 8.79688 18.328 8.79688 18.0843 9.04063C17.8405 9.28438 17.8405 9.68125 18.0843 9.925L18.5468 10.3875C18.753 10.5938 18.6312 10.95 18.3405 10.9812C18.253 10.9906 18.1655 10.9688 18.0968 10.9187L15.5405 9.09375C15.3155 8.93437 15.003 8.98438 14.8437 9.20937Z" fill="black"/>
</svg>
