<svg width="24" height="24" viewBox="0 0 24 24" fill="none" xmlns="http://www.w3.org/2000/svg">
<path d="M13 6C16.75 6 21 10 21 12C21 14 16.75 18 13 18C10.6625 18 8.12813 16.4438 6.55313 14.7875C6.36563 14.5906 6.05938 14.5625 5.85 14.7344L3.81563 16.3875C3.65 16.5219 3.4125 16.5375 3.23125 16.4219C3.05 16.3062 2.9625 16.0875 3.01563 15.8781L3.95313 12.1219C3.97188 12.0437 3.97188 11.9594 3.95313 11.8781L3.01563 8.12187C2.96563 7.91875 3.04375 7.70938 3.21563 7.59063C3.3875 7.47188 3.6125 7.47188 3.78438 7.59063L6.03438 9.1375C6.24063 9.27812 6.51875 9.24687 6.69375 9.06875C8.27813 7.46562 10.7313 6 13 6ZM12.8531 8.64687C12.6594 8.45312 12.3406 8.45312 12.1469 8.64687L10.1469 10.6469C9.95313 10.8406 9.95313 11.1594 10.1469 11.3531C10.3406 11.5469 10.6594 11.5469 10.8531 11.3531L12.8531 9.35313C13.0469 9.15938 13.0469 8.84062 12.8531 8.64687ZM16.3531 9.14687C16.1594 8.95312 15.8406 8.95312 15.6469 9.14687L10.6469 14.1469C10.4531 14.3406 10.4531 14.6594 10.6469 14.8531C10.8406 15.0469 11.1594 15.0469 11.3531 14.8531L16.3531 9.85313C16.5469 9.65938 16.5469 9.34062 16.3531 9.14687ZM16.8531 12.6469C16.6594 12.4531 16.3406 12.4531 16.1469 12.6469L14.1469 14.6469C13.9531 14.8406 13.9531 15.1594 14.1469 15.3531C14.3406 15.5469 14.6594 15.5469 14.8531 15.3531L16.8531 13.3531C17.0469 13.1594 17.0469 12.8406 16.8531 12.6469Z" fill="black"/>
</svg>
