<svg width="24" height="24" viewBox="0 0 24 24" fill="none" xmlns="http://www.w3.org/2000/svg">
<path d="M17 9.99999C17 9.00624 16.5156 7.37499 14.675 5.54999C14.3063 5.18436 13.7188 5.21561 13.3531 5.58124L13 5.93436L11.5625 4.49686C11.3719 4.30624 11.1219 4.20624 10.875 4.20936C10.6906 4.21249 10.5063 4.26874 10.35 4.39061C8.95313 5.47811 7 7.60311 7 9.99999C7 10.9469 7.2625 11.8312 7.71875 12.5844C7.85938 12.6625 7.99375 12.75 8.12187 12.8437C8.62187 12.2312 9.26562 11.7375 10.0031 11.4156C10.0625 10.3062 11.1719 9.20936 11.7125 8.74374C11.8812 8.59686 12.1219 8.59686 12.2906 8.74374C12.8312 9.21249 13.9406 10.3062 14 11.4156C14.7344 11.7375 15.3781 12.2281 15.8813 12.8437C16.0094 12.75 16.1469 12.6656 16.2844 12.5844C16.7406 11.8312 17.0031 10.9469 17.0031 9.99999H17ZM2 16.5C2 18.4344 3.56562 20 5.5 20H12H18.5C20.4344 20 22 18.4344 22 16.5C22 14.5656 20.4344 13 18.5 13C17.3438 13 16.3156 13.5625 15.6781 14.4281C15.0688 13 13.65 12 12 12C10.35 12 8.93125 13 8.32188 14.4281C7.68438 13.5625 6.65625 13 5.5 13C3.56562 13 2 14.5656 2 16.5Z" fill="black"/>
</svg>
