<svg width="24" height="24" viewBox="0 0 24 24" fill="none" xmlns="http://www.w3.org/2000/svg">
<path d="M8.20635 9.07816C8.39072 9.30003 8.45635 9.60003 8.38447 9.88128C8.3751 9.92191 8.36572 9.96253 8.3626 10.0032C8.9001 10.0219 9.42197 10.2719 9.77197 10.7157C10.6563 10.7219 11.4001 11.35 11.5876 12.1969C11.7376 12.2719 11.8751 12.3657 11.997 12.4719C12.1188 12.3657 12.2563 12.2719 12.4063 12.1969C12.5938 11.35 13.3376 10.725 14.222 10.7157C14.7626 10.0313 15.7032 9.80316 16.497 10.1844C16.5438 10.1625 16.5907 10.1407 16.6376 10.125C16.6407 10.0438 16.6313 9.96253 16.6095 9.88128C16.5376 9.60003 16.6063 9.30003 16.7876 9.07816C17.0626 8.74378 17.0626 8.25628 16.7876 7.92191C16.6032 7.70003 16.5376 7.40003 16.6095 7.11878C16.7157 6.69691 16.5095 6.25628 16.1188 6.07816C15.8595 5.95941 15.672 5.71878 15.6157 5.43441C15.5313 5.00628 15.1595 4.70003 14.7313 4.71253C14.447 4.72191 14.1751 4.58753 14.0063 4.35628C13.7501 4.00941 13.2845 3.90003 12.9032 4.10003C12.6501 4.23441 12.3501 4.23441 12.097 4.10003C11.7157 3.90003 11.2501 4.00941 10.9938 4.35628C10.822 4.58753 10.5532 4.72191 10.2688 4.71253C9.84072 4.70003 9.46572 5.00628 9.38447 5.43441C9.32822 5.71878 9.14072 5.95941 8.88135 6.07816C8.49072 6.25628 8.28135 6.69691 8.39072 7.11878C8.4626 7.40003 8.39385 7.70003 8.2126 7.92191C7.9376 8.25628 7.9376 8.74378 8.2126 9.07816H8.20635ZM9.73135 11.7157C9.61885 11.7188 9.50635 11.7 9.40322 11.6594C9.24697 11.6 9.10947 11.4969 9.00635 11.3594C8.7501 11.0094 8.28135 10.9032 7.90322 11.1032C7.6501 11.2375 7.3501 11.2375 7.09697 11.1032C6.71572 10.9032 6.2501 11.0125 5.99385 11.3594C5.82197 11.5907 5.55322 11.725 5.26885 11.7157C4.84072 11.7032 4.46572 12.0094 4.38447 12.4375C4.32822 12.7219 4.14072 12.9625 3.88135 13.0813C3.49072 13.2594 3.28135 13.7 3.39072 14.1219C3.4626 14.4032 3.39385 14.7032 3.2126 14.925C2.9376 15.2594 2.9376 15.7469 3.2126 16.0813C3.39697 16.3032 3.4626 16.6032 3.39072 16.8844C3.28447 17.3063 3.49072 17.7469 3.88135 17.925C4.14072 18.0438 4.32822 18.2844 4.38447 18.5688C4.46885 18.9969 4.84072 19.3032 5.26885 19.2907C5.55322 19.2813 5.8251 19.4157 5.99385 19.6469C6.2501 19.9969 6.71885 20.1032 7.09697 19.9032C7.3501 19.7688 7.6501 19.7688 7.90322 19.9032C8.28447 20.1032 8.7501 19.9938 9.00635 19.6469C9.17822 19.4157 9.44697 19.2813 9.73135 19.2907C10.1595 19.3032 10.5345 18.9969 10.6157 18.5688C10.672 18.2844 10.8595 18.0438 11.1188 17.925C11.247 17.8657 11.3563 17.7782 11.4407 17.6719C11.3438 17.3563 11.3251 17.0157 11.4032 16.6813C10.8626 15.9907 10.8626 15.0157 11.4032 14.325C11.3282 13.9907 11.3438 13.6469 11.4407 13.3344C11.3563 13.2282 11.247 13.1407 11.1188 13.0813C10.8595 12.9625 10.672 12.7219 10.6157 12.4375C10.6095 12.4063 10.6001 12.375 10.5907 12.3438C10.4751 11.9657 10.1251 11.7063 9.72822 11.7157H9.73135ZM10.0001 8.50003C10.0001 8.36742 10.0528 8.24025 10.1465 8.14648C10.2403 8.05271 10.3675 8.00003 10.5001 8.00003C10.6327 8.00003 10.7599 8.05271 10.8537 8.14648C10.9474 8.24025 11.0001 8.36742 11.0001 8.50003C11.0001 8.63264 10.9474 8.75982 10.8537 8.85359C10.7599 8.94735 10.6327 9.00003 10.5001 9.00003C10.3675 9.00003 10.2403 8.94735 10.1465 8.85359C10.0528 8.75982 10.0001 8.63264 10.0001 8.50003ZM5.5001 15C5.63271 15 5.75988 15.0527 5.85365 15.1465C5.94742 15.2402 6.0001 15.3674 6.0001 15.5C6.0001 15.6326 5.94742 15.7598 5.85365 15.8536C5.75988 15.9474 5.63271 16 5.5001 16C5.36749 16 5.24031 15.9474 5.14654 15.8536C5.05278 15.7598 5.0001 15.6326 5.0001 15.5C5.0001 15.3674 5.05278 15.2402 5.14654 15.1465C5.24031 15.0527 5.36749 15 5.5001 15ZM7.0001 15.5C7.0001 15.3674 7.05278 15.2402 7.14654 15.1465C7.24031 15.0527 7.36749 15 7.5001 15C7.63271 15 7.75988 15.0527 7.85365 15.1465C7.94742 15.2402 8.0001 15.3674 8.0001 15.5C8.0001 15.6326 7.94742 15.7598 7.85365 15.8536C7.75988 15.9474 7.63271 16 7.5001 16C7.36749 16 7.24031 15.9474 7.14654 15.8536C7.05278 15.7598 7.0001 15.6326 7.0001 15.5ZM6.5001 17C6.63271 17 6.75988 17.0527 6.85365 17.1465C6.94742 17.2402 7.0001 17.3674 7.0001 17.5C7.0001 17.6326 6.94742 17.7598 6.85365 17.8536C6.75988 17.9474 6.63271 18 6.5001 18C6.36749 18 6.24031 17.9474 6.14654 17.8536C6.05278 17.7598 6.0001 17.6326 6.0001 17.5C6.0001 17.3674 6.05278 17.2402 6.14654 17.1465C6.24031 17.0527 6.36749 17 6.5001 17ZM20.6688 15.6688C20.797 15.5407 20.8876 15.3813 20.9407 15.2032C20.9407 15.1969 20.9438 15.1938 20.9438 15.1875C21.1626 14.4063 20.7063 13.225 19.7376 12.2594C19.0095 11.5313 18.1595 11.0907 17.4532 11.0125C17.3907 11.0063 17.3313 11 17.272 11C16.972 10.9938 16.7001 11.0563 16.4876 11.2C16.4876 11.2 16.4845 11.2 16.4845 11.2032C16.4345 11.2375 16.3876 11.275 16.3438 11.3157C16.3376 11.3219 16.3345 11.325 16.3282 11.3313C15.7282 11.9313 15.972 13.175 16.847 14.2782C16.972 14.4344 17.1095 14.5907 17.2595 14.7407C18.4595 15.9407 19.9845 16.3563 20.6688 15.6719V15.6688ZM18.8938 16.875C18.0813 16.6532 17.2501 16.1469 16.5532 15.4469C15.8563 14.7469 15.347 13.9188 15.1251 13.1063C14.9595 12.4938 14.9251 11.7532 15.2563 11.1188C15.1563 11.1782 15.0657 11.2563 14.9938 11.3563C14.822 11.5875 14.5532 11.7219 14.2688 11.7125C13.8407 11.7 13.4657 12.0063 13.3845 12.4344C13.3282 12.7188 13.1407 12.9594 12.8813 13.0782C12.4907 13.2563 12.2813 13.6969 12.3907 14.1188C12.4626 14.4 12.3938 14.7 12.2126 14.9219C11.9376 15.2563 11.9376 15.7438 12.2126 16.0782C12.397 16.3 12.4626 16.6 12.3907 16.8813C12.2845 17.3032 12.4907 17.7438 12.8813 17.9219C13.1407 18.0407 13.3282 18.2813 13.3845 18.5657C13.4688 18.9938 13.8407 19.3 14.2688 19.2875C14.5532 19.2782 14.8251 19.4125 14.9938 19.6438C15.2501 19.9938 15.7188 20.1 16.097 19.9C16.3501 19.7657 16.6501 19.7657 16.9032 19.9C17.2845 20.1 17.7501 19.9907 18.0063 19.6438C18.1782 19.4125 18.447 19.2782 18.7313 19.2875C19.1595 19.3 19.5345 18.9938 19.6157 18.5657C19.672 18.2813 19.8595 18.0407 20.1188 17.9219C20.5095 17.7438 20.7188 17.3032 20.6095 16.8813L20.6063 16.8625C20.0407 17.0625 19.4188 17.0188 18.8907 16.875H18.8938ZM14.5001 15C14.6327 15 14.7599 15.0527 14.8537 15.1465C14.9474 15.2402 15.0001 15.3674 15.0001 15.5C15.0001 15.6326 14.9474 15.7598 14.8537 15.8536C14.7599 15.9474 14.6327 16 14.5001 16C14.3675 16 14.2403 15.9474 14.1465 15.8536C14.0528 15.7598 14.0001 15.6326 14.0001 15.5C14.0001 15.3674 14.0528 15.2402 14.1465 15.1465C14.2403 15.0527 14.3675 15 14.5001 15ZM15.0001 17.5C15.0001 17.3674 15.0528 17.2402 15.1465 17.1465C15.2403 17.0527 15.3675 17 15.5001 17C15.6327 17 15.7599 17.0527 15.8537 17.1465C15.9474 17.2402 16.0001 17.3674 16.0001 17.5C16.0001 17.6326 15.9474 17.7598 15.8537 17.8536C15.7599 17.9474 15.6327 18 15.5001 18C15.3675 18 15.2403 17.9474 15.1465 17.8536C15.0528 17.7598 15.0001 17.6326 15.0001 17.5Z" fill="black"/>
</svg>
