<svg width="24" height="24" viewBox="0 0 24 24" fill="none" xmlns="http://www.w3.org/2000/svg">
<path d="M5.24972 6C4.75597 6 4.30909 6.29062 4.10909 6.74062C3.90909 7.19062 3.99034 7.71875 4.32159 8.08437L7.49972 11.6188V15.5C7.49972 15.8156 7.64659 16.1125 7.89972 16.3L9.89972 17.8C10.2028 18.0281 10.6091 18.0625 10.9466 17.8938C11.2841 17.725 11.4997 17.3781 11.4997 17V11.6188L14.6778 8.0875C15.0091 7.72188 15.0903 7.19375 14.8903 6.74375C14.6903 6.29375 14.2435 6 13.7497 6H5.24972ZM14.9997 16C14.4466 16 13.9997 16.4469 13.9997 17C13.9997 17.5531 14.4466 18 14.9997 18H18.9997C19.5528 18 19.9997 17.5531 19.9997 17C19.9997 16.4469 19.5528 16 18.9997 16H14.9997ZM13.9997 12C13.9997 12.5531 14.4466 13 14.9997 13H18.9997C19.5528 13 19.9997 12.5531 19.9997 12C19.9997 11.4469 19.5528 11 18.9997 11H14.9997C14.4466 11 13.9997 11.4469 13.9997 12ZM16.9997 6C16.4466 6 15.9997 6.44687 15.9997 7C15.9997 7.55313 16.4466 8 16.9997 8H18.9997C19.5528 8 19.9997 7.55313 19.9997 7C19.9997 6.44687 19.5528 6 18.9997 6H16.9997Z" fill="black"/>
</svg>
