<svg width="24" height="24" viewBox="0 0 24 24" fill="none" xmlns="http://www.w3.org/2000/svg">
<path d="M4.575 17.9069C4.925 18.0725 5.34062 18.0194 5.64062 17.7694L11 13.3038V17.0007C11 17.3882 11.225 17.7413 11.575 17.9069C11.925 18.0725 12.3406 18.0194 12.6406 17.7694L18 13.3038V17.0007C18 17.5538 18.4469 18.0007 19 18.0007C19.5531 18.0007 20 17.5538 20 17.0007V7.00067C20 6.44754 19.5531 6.00067 19 6.00067C18.4469 6.00067 18 6.44754 18 7.00067V10.6975L12.6406 6.23192C12.3438 5.98504 11.9281 5.92879 11.575 6.09442C11.2219 6.26004 11 6.61317 11 7.00067V10.6975L5.64062 6.23192C5.34375 5.98504 4.92812 5.92879 4.575 6.09442C4.22187 6.26004 4 6.61317 4 7.00067V17.0007C4 17.3882 4.225 17.7413 4.575 17.9069Z" fill="black"/>
</svg>
