<svg width="24" height="24" viewBox="0 0 24 24" fill="none" xmlns="http://www.w3.org/2000/svg">
<path d="M13.9688 5.24373L13.2188 8.24373C13.1281 8.6031 12.8562 8.86873 12.525 8.96248L12.2656 9.99998H11.2344L11.5531 8.71873C11.3062 8.4781 11.1875 8.1156 11.2781 7.75623L12.0281 4.75623C12.1625 4.22185 12.7062 3.89685 13.2437 4.03123C13.7812 4.1656 14.1063 4.70935 13.9719 5.24373H13.9688ZM15.9344 8.99998L15.2688 9.99998H14.0656L15.1031 8.44373C14.95 8.13435 14.9625 7.7531 15.1687 7.44685L17.1687 4.44685C17.475 3.98435 18.0937 3.86248 18.5562 4.16873C19.0187 4.47498 19.1406 5.09685 18.8344 5.55623L16.8344 8.55623C16.6281 8.8656 16.2812 9.02185 15.9375 8.99998H15.9344ZM5 11H6V11.5V13.5C6 13.775 6.225 14 6.5 14C6.775 14 7 13.775 7 13.5V12.5C7 12.225 7.225 12 7.5 12C7.775 12 8 12.225 8 12.5C8 12.775 8.225 13 8.5 13C8.775 13 9 12.775 9 12.5V11.5V11H16H18H19C19.5531 11 20 11.4469 20 12C20 12.5531 19.5531 13 19 13H18V14C18 15.6344 17.2156 17.0875 16 18V19C16 19.5531 15.5531 20 15 20C14.4469 20 14 19.5531 14 19V18.9C13.6781 18.9656 13.3438 19 13 19H9C8.65625 19 8.32188 18.9656 8 18.9V19C8 19.5531 7.55313 20 7 20C6.44687 20 6 19.5531 6 19V18C4.78437 17.0875 4 15.6344 4 14V12C4 11.4469 4.44687 11 5 11Z" fill="black"/>
</svg>
