<svg width="24" height="24" viewBox="0 0 24 24" fill="none" xmlns="http://www.w3.org/2000/svg">
<path d="M8.20635 9.07767C8.39072 9.29955 8.45635 9.59955 8.38447 9.8808C8.3751 9.92142 8.36572 9.96205 8.3626 10.0027C8.9001 10.0214 9.42197 10.2714 9.77197 10.7152C10.6563 10.7214 11.4001 11.3495 11.5876 12.1964C11.7376 12.2714 11.8751 12.3652 11.997 12.4714C12.1188 12.3652 12.2563 12.2714 12.4063 12.1964C12.5938 11.3495 13.3376 10.7245 14.222 10.7152C14.7626 10.0308 15.7032 9.80267 16.497 10.1839C16.5438 10.162 16.5907 10.1402 16.6376 10.1245C16.6407 10.0433 16.6313 9.96204 16.6095 9.8808C16.5376 9.59955 16.6063 9.29955 16.7876 9.07767C17.0626 8.7433 17.0626 8.25579 16.7876 7.92142C16.6032 7.69954 16.5376 7.39954 16.6095 7.11829C16.7157 6.69642 16.5095 6.25579 16.1188 6.07767C15.8595 5.95892 15.672 5.7183 15.6157 5.43392C15.5313 5.0058 15.1595 4.69954 14.7313 4.71204C14.447 4.72142 14.1751 4.58704 14.0063 4.35579C13.7501 4.00892 13.2845 3.89954 12.9032 4.09954C12.6501 4.23392 12.3501 4.23392 12.097 4.09954C11.7157 3.89954 11.2501 4.00892 10.9938 4.35579C10.822 4.58704 10.5532 4.72142 10.2688 4.71204C9.84072 4.69954 9.46572 5.0058 9.38447 5.43392C9.32822 5.7183 9.14072 5.95892 8.88135 6.07767C8.49072 6.25579 8.28135 6.69642 8.39072 7.11829C8.4626 7.39954 8.39385 7.69954 8.2126 7.92142C7.9376 8.25579 7.9376 8.7433 8.2126 9.07767H8.20635ZM9.73135 11.7152C9.61885 11.7183 9.50635 11.6995 9.40322 11.6589C9.24697 11.5995 9.10947 11.4964 9.00635 11.3589C8.7501 11.0089 8.28135 10.9027 7.90322 11.1027C7.6501 11.237 7.3501 11.237 7.09697 11.1027C6.71572 10.9027 6.2501 11.012 5.99385 11.3589C5.82197 11.5902 5.55322 11.7245 5.26885 11.7152C4.84072 11.7027 4.46572 12.0089 4.38447 12.437C4.32822 12.7214 4.14072 12.962 3.88135 13.0808C3.49072 13.2589 3.28135 13.6995 3.39072 14.1214C3.4626 14.4027 3.39385 14.7027 3.2126 14.9245C2.9376 15.2589 2.9376 15.7464 3.2126 16.0808C3.39697 16.3027 3.4626 16.6027 3.39072 16.8839C3.28447 17.3058 3.49072 17.7464 3.88135 17.9245C4.14072 18.0433 4.32822 18.2839 4.38447 18.5683C4.46885 18.9964 4.84072 19.3027 5.26885 19.2902C5.55322 19.2808 5.8251 19.4152 5.99385 19.6464C6.2501 19.9964 6.71885 20.1027 7.09697 19.9027C7.3501 19.7683 7.6501 19.7683 7.90322 19.9027C8.28447 20.1027 8.7501 19.9933 9.00635 19.6464C9.17822 19.4152 9.44697 19.2808 9.73135 19.2902C10.1595 19.3027 10.5345 18.9964 10.6157 18.5683C10.672 18.2839 10.8595 18.0433 11.1188 17.9245C11.247 17.8652 11.3563 17.7777 11.4407 17.6714C11.3438 17.3558 11.3251 17.0152 11.4032 16.6808C10.8626 15.9902 10.8626 15.0152 11.4032 14.3245C11.3282 13.9902 11.3438 13.6464 11.4407 13.3339C11.3563 13.2277 11.247 13.1402 11.1188 13.0808C10.8595 12.962 10.672 12.7214 10.6157 12.437C10.6095 12.4058 10.6001 12.3745 10.5907 12.3433C10.4751 11.9652 10.1251 11.7058 9.72822 11.7152H9.73135ZM10.0001 8.49955C10.0001 8.36694 10.0528 8.23976 10.1465 8.14599C10.2403 8.05222 10.3675 7.99954 10.5001 7.99954C10.6327 7.99954 10.7599 8.05222 10.8537 8.14599C10.9474 8.23976 11.0001 8.36694 11.0001 8.49955C11.0001 8.63215 10.9474 8.75933 10.8537 8.8531C10.7599 8.94687 10.6327 8.99955 10.5001 8.99955C10.3675 8.99955 10.2403 8.94687 10.1465 8.8531C10.0528 8.75933 10.0001 8.63215 10.0001 8.49955ZM5.5001 14.9995C5.63271 14.9995 5.75988 15.0522 5.85365 15.146C5.94742 15.2398 6.0001 15.3669 6.0001 15.4995C6.0001 15.6322 5.94742 15.7593 5.85365 15.8531C5.75988 15.9469 5.63271 15.9995 5.5001 15.9995C5.36749 15.9995 5.24031 15.9469 5.14654 15.8531C5.05278 15.7593 5.0001 15.6322 5.0001 15.4995C5.0001 15.3669 5.05278 15.2398 5.14654 15.146C5.24031 15.0522 5.36749 14.9995 5.5001 14.9995ZM7.0001 15.4995C7.0001 15.3669 7.05278 15.2398 7.14654 15.146C7.24031 15.0522 7.36749 14.9995 7.5001 14.9995C7.63271 14.9995 7.75988 15.0522 7.85365 15.146C7.94742 15.2398 8.0001 15.3669 8.0001 15.4995C8.0001 15.6322 7.94742 15.7593 7.85365 15.8531C7.75988 15.9469 7.63271 15.9995 7.5001 15.9995C7.36749 15.9995 7.24031 15.9469 7.14654 15.8531C7.05278 15.7593 7.0001 15.6322 7.0001 15.4995ZM6.5001 16.9995C6.63271 16.9995 6.75988 17.0522 6.85365 17.146C6.94742 17.2398 7.0001 17.3669 7.0001 17.4995C7.0001 17.6322 6.94742 17.7593 6.85365 17.8531C6.75988 17.9469 6.63271 17.9995 6.5001 17.9995C6.36749 17.9995 6.24031 17.9469 6.14654 17.8531C6.05278 17.7593 6.0001 17.6322 6.0001 17.4995C6.0001 17.3669 6.05278 17.2398 6.14654 17.146C6.24031 17.0522 6.36749 16.9995 6.5001 16.9995ZM20.6688 15.6683C20.797 15.5402 20.8876 15.3808 20.9407 15.2027C20.9407 15.1964 20.9438 15.1933 20.9438 15.187C21.1626 14.4058 20.7063 13.2245 19.7376 12.2589C19.0095 11.5308 18.1595 11.0902 17.4532 11.012C17.3907 11.0058 17.3313 10.9995 17.272 10.9995C16.972 10.9933 16.7001 11.0558 16.4876 11.1995C16.4876 11.1995 16.4845 11.1995 16.4845 11.2027C16.4345 11.237 16.3876 11.2745 16.3438 11.3152C16.3376 11.3214 16.3345 11.3245 16.3282 11.3308C15.7282 11.9308 15.972 13.1745 16.847 14.2777C16.972 14.4339 17.1095 14.5902 17.2595 14.7402C18.4595 15.9402 19.9845 16.3558 20.6688 15.6714V15.6683ZM18.8938 16.8745C18.0813 16.6527 17.2501 16.1464 16.5532 15.4464C15.8563 14.7464 15.347 13.9183 15.1251 13.1058C14.9595 12.4933 14.9251 11.7527 15.2563 11.1183C15.1563 11.1777 15.0657 11.2558 14.9938 11.3558C14.822 11.587 14.5532 11.7214 14.2688 11.712C13.8407 11.6995 13.4657 12.0058 13.3845 12.4339C13.3282 12.7183 13.1407 12.9589 12.8813 13.0777C12.4907 13.2558 12.2813 13.6964 12.3907 14.1183C12.4626 14.3995 12.3938 14.6995 12.2126 14.9214C11.9376 15.2558 11.9376 15.7433 12.2126 16.0777C12.397 16.2995 12.4626 16.5995 12.3907 16.8808C12.2845 17.3027 12.4907 17.7433 12.8813 17.9214C13.1407 18.0402 13.3282 18.2808 13.3845 18.5652C13.4688 18.9933 13.8407 19.2995 14.2688 19.287C14.5532 19.2777 14.8251 19.412 14.9938 19.6433C15.2501 19.9933 15.7188 20.0995 16.097 19.8995C16.3501 19.7652 16.6501 19.7652 16.9032 19.8995C17.2845 20.0995 17.7501 19.9902 18.0063 19.6433C18.1782 19.412 18.447 19.2777 18.7313 19.287C19.1595 19.2995 19.5345 18.9933 19.6157 18.5652C19.672 18.2808 19.8595 18.0402 20.1188 17.9214C20.5095 17.7433 20.7188 17.3027 20.6095 16.8808L20.6063 16.862C20.0407 17.062 19.4188 17.0183 18.8907 16.8745H18.8938ZM14.5001 14.9995C14.6327 14.9995 14.7599 15.0522 14.8537 15.146C14.9474 15.2398 15.0001 15.3669 15.0001 15.4995C15.0001 15.6322 14.9474 15.7593 14.8537 15.8531C14.7599 15.9469 14.6327 15.9995 14.5001 15.9995C14.3675 15.9995 14.2403 15.9469 14.1465 15.8531C14.0528 15.7593 14.0001 15.6322 14.0001 15.4995C14.0001 15.3669 14.0528 15.2398 14.1465 15.146C14.2403 15.0522 14.3675 14.9995 14.5001 14.9995ZM15.0001 17.4995C15.0001 17.3669 15.0528 17.2398 15.1465 17.146C15.2403 17.0522 15.3675 16.9995 15.5001 16.9995C15.6327 16.9995 15.7599 17.0522 15.8537 17.146C15.9474 17.2398 16.0001 17.3669 16.0001 17.4995C16.0001 17.6322 15.9474 17.7593 15.8537 17.8531C15.7599 17.9469 15.6327 17.9995 15.5001 17.9995C15.3675 17.9995 15.2403 17.9469 15.1465 17.8531C15.0528 17.7593 15.0001 17.6322 15.0001 17.4995Z" fill="black"/>
</svg>
