<svg width="24" height="24" viewBox="0 0 24 24" fill="none" xmlns="http://www.w3.org/2000/svg">
<path d="M20 12C20 12.2594 19.9875 12.5188 19.9625 12.7719C19.9625 12.7875 19.9594 12.8062 19.9594 12.8219L19.4969 19.0719C19.4594 19.5969 19.025 20 18.5 20C17.975 20 17.5406 19.5969 17.5031 19.075L17.4156 17.8906C17.2594 18.0344 17.0969 18.1719 16.9281 18.3031L16.5688 19.3313C16.4281 19.7313 16.05 20 15.625 20C15.2656 20 14.9406 19.8094 14.7656 19.5094C13.9031 19.8281 12.9719 20 12 20C9.83125 20 7.86562 19.1375 6.425 17.7375C6.24687 17.9031 6.00938 18 5.75 18C5.2625 18 4.84375 17.6469 4.7625 17.1656L4.20312 13.7937C4.06875 13.2156 4 12.6156 4 12C4 7.58125 7.58125 4 12 4C16.4187 4 20 7.58125 20 12ZM5.75 16.9937L6.375 13.2375C6.44062 12.8531 6.14375 12.5 5.75 12.5C5.35625 12.5 5.05938 12.8531 5.12188 13.2406L5.75 16.9937ZM14.75 16.5L15.625 19L16.5 16.5V15.25H14.75V16.5ZM16.4781 14.75C16.3594 14.0406 15.7406 13.5 15 13.5H14.75V14.75H16.4781ZM14.25 14.75V13.5H12.25V14.75H14.25ZM14.25 16.5V15.25H12.25V16.5L13.25 18L14.25 16.5ZM11.75 13.5H9.75V14.75H11.75V13.5ZM11.75 15.25H9.75V16.5H11.75V15.25ZM9.25 14.75V13.5H9C8.25625 13.5 7.64062 14.0406 7.52187 14.75H9.25ZM9.25 16.5V15.25H7.52187C7.64062 15.9594 8.25937 16.5 9 16.5H9.25ZM10.5125 10.5C10.5125 10.2348 10.4071 9.98043 10.2196 9.79289C10.0321 9.60536 9.77772 9.5 9.5125 9.5C9.24728 9.5 8.99293 9.60536 8.80539 9.79289C8.61786 9.98043 8.5125 10.2348 8.5125 10.5C8.5125 10.7652 8.61786 11.0196 8.80539 11.2071C8.99293 11.3946 9.24728 11.5 9.5125 11.5C9.77772 11.5 10.0321 11.3946 10.2196 11.2071C10.4071 11.0196 10.5125 10.7652 10.5125 10.5ZM14.5125 11.5C14.7777 11.5 15.0321 11.3946 15.2196 11.2071C15.4071 11.0196 15.5125 10.7652 15.5125 10.5C15.5125 10.2348 15.4071 9.98043 15.2196 9.79289C15.0321 9.60536 14.7777 9.5 14.5125 9.5C14.2473 9.5 13.9929 9.60536 13.8054 9.79289C13.6179 9.98043 13.5125 10.2348 13.5125 10.5C13.5125 10.7652 13.6179 11.0196 13.8054 11.2071C13.9929 11.3946 14.2473 11.5 14.5125 11.5ZM18.5 19L19.1812 11.7469C19.2187 11.3469 18.9031 11 18.5 11C18.0969 11 17.7813 11.3469 17.8188 11.7469L18.5 19Z" fill="black"/>
</svg>
