<svg width="24" height="24" viewBox="0 0 24 24" fill="none" xmlns="http://www.w3.org/2000/svg">
<path d="M14.5 5C15.8031 5 16.8719 5.99375 16.9906 7.26562L19.6656 8.0875C20.4594 8.33125 21.0031 9.06562 21.0031 9.89687C21.0031 10.5781 20.6375 11.2062 20.0438 11.5437L15.525 14.1094L18.4156 17H20C20.5531 17 21 17.4469 21 18C21 18.5531 20.5531 19 20 19H18C17.7344 19 17.4812 18.8938 17.2937 18.7063L13.8406 15.2563C14.2063 14.1313 13.9406 12.8469 13.0469 11.9531C11.7781 10.6844 9.725 10.6844 8.45625 11.95L6.15625 14.1375C5.95625 14.3281 5.94688 14.6438 6.1375 14.8438C6.32812 15.0437 6.64375 15.05 6.84375 14.8625L9.15 12.6687L9.15312 12.6656L9.15625 12.6625C9.26562 12.5531 9.38438 12.4563 9.50938 12.375C10.3812 11.7969 11.5687 11.8938 12.3375 12.6625C13.1094 13.4344 13.2031 14.6281 12.6187 15.5031C12.5375 15.6219 12.4437 15.7375 12.3375 15.8438L11.1812 17H14C14.5531 17 15 17.4469 15 18C15 18.5531 14.5531 19 14 19H5C3.89688 19 3 18.1031 3 17C3 11.8 6.96875 7.52813 12.0406 7.04688C12.2562 5.88125 13.275 5 14.5 5ZM14.5 8.25C14.5985 8.25 14.696 8.2306 14.787 8.19291C14.878 8.15522 14.9607 8.09997 15.0303 8.03033C15.1 7.96069 15.1552 7.87801 15.1929 7.78701C15.2306 7.69602 15.25 7.59849 15.25 7.5C15.25 7.40151 15.2306 7.30398 15.1929 7.21299C15.1552 7.12199 15.1 7.03931 15.0303 6.96967C14.9607 6.90003 14.878 6.84478 14.787 6.80709C14.696 6.7694 14.5985 6.75 14.5 6.75C14.4015 6.75 14.304 6.7694 14.213 6.80709C14.122 6.84478 14.0393 6.90003 13.9697 6.96967C13.9 7.03931 13.8448 7.12199 13.8071 7.21299C13.7694 7.30398 13.75 7.40151 13.75 7.5C13.75 7.59849 13.7694 7.69602 13.8071 7.78701C13.8448 7.87801 13.9 7.96069 13.9697 8.03033C14.0393 8.09997 14.122 8.15522 14.213 8.19291C14.304 8.2306 14.4015 8.25 14.5 8.25Z" fill="black"/>
</svg>
