<svg width="24" height="24" viewBox="0 0 24 24" fill="none" xmlns="http://www.w3.org/2000/svg">
<path d="M19.7312 14.0625C19.9062 13.4031 20 12.7125 20 12C20 7.58125 16.4187 4 12 4C7.58125 4 4 7.58125 4 12C4 16.4187 7.58125 20 12 20C13.9219 20 15.6875 19.3219 17.0656 18.1906C16.9781 18.1531 16.8937 18.1062 16.8094 18.0594L14.6812 16.7969C13.8844 17.2438 12.9719 17.5 12 17.5C9.37188 17.5 7.1875 15.6344 6.51562 13.1281C6.44375 12.8625 6.60313 12.5875 6.86875 12.5156C7.13438 12.4438 7.40938 12.6031 7.48125 12.8687C8.04688 14.9844 9.87188 16.5 12 16.5C14.1281 16.5 15.9531 14.9844 16.5156 12.8719C16.5875 12.6062 16.8625 12.4469 17.1281 12.5188C17.175 12.5313 17.2187 12.55 17.2594 12.575L19.3031 13.7563C19.4594 13.8469 19.6031 13.95 19.7312 14.0688V14.0625ZM15.5813 16.1656L17.3219 17.2C18.0281 17.6187 18.9406 17.3812 19.3531 16.6687C19.7687 15.95 19.5219 15.0344 18.8031 14.6187L17.2844 13.7406C16.9188 14.6906 16.3313 15.525 15.5813 16.1656ZM10.8 11.15L10.7937 11.1438C10.7875 11.1375 10.7812 11.1281 10.7719 11.1156C10.7531 11.0906 10.7219 11.0531 10.6844 11.0094C10.6062 10.9219 10.4969 10.8031 10.3656 10.6875C10.0906 10.4437 9.77812 10.25 9.5 10.25C9.22188 10.25 8.90938 10.4437 8.63438 10.6875C8.50313 10.8031 8.39375 10.9219 8.31563 11.0094C8.27813 11.0531 8.24688 11.0906 8.22813 11.1156C8.21875 11.1281 8.20938 11.1375 8.20625 11.1438L8.2 11.15C8.13437 11.2375 8.02188 11.2719 7.92188 11.2375C7.82187 11.2031 7.75 11.1094 7.75 11C7.75 10.4406 7.95938 9.8875 8.26875 9.475C8.575 9.06875 9.01562 8.75 9.5 8.75C9.98438 8.75 10.425 9.06875 10.7312 9.475C11.0406 9.8875 11.25 10.4406 11.25 11C11.25 11.1063 11.1812 11.2031 11.0781 11.2375C10.975 11.2719 10.8625 11.2375 10.8 11.15ZM15.8 11.15L15.7937 11.1438C15.7875 11.1375 15.7813 11.1281 15.7719 11.1156C15.7531 11.0906 15.7219 11.0531 15.6844 11.0094C15.6062 10.9219 15.4969 10.8031 15.3656 10.6875C15.0906 10.4437 14.7781 10.25 14.5 10.25C14.2219 10.25 13.9094 10.4437 13.6344 10.6875C13.5031 10.8031 13.3938 10.9219 13.3156 11.0094C13.2781 11.0531 13.2469 11.0906 13.2281 11.1156C13.2187 11.1281 13.2094 11.1375 13.2063 11.1438L13.2 11.15C13.1344 11.2375 13.0219 11.2719 12.9219 11.2375C12.8219 11.2031 12.75 11.1094 12.75 11C12.75 10.4406 12.9594 9.8875 13.2688 9.475C13.575 9.06875 14.0156 8.75 14.5 8.75C14.9844 8.75 15.425 9.06875 15.7312 9.475C16.0406 9.8875 16.25 10.4406 16.25 11C16.25 11.1063 16.1812 11.2031 16.0781 11.2375C15.975 11.2719 15.8625 11.2375 15.8 11.15Z" fill="black"/>
</svg>
