<svg width="24" height="24" viewBox="0 0 24 24" fill="none" xmlns="http://www.w3.org/2000/svg">
<path d="M12.8031 5.50936L13.1875 5.07811C13.3563 4.88748 13.6031 4.80311 13.8406 4.79998C14.0656 4.79998 14.2875 4.88123 14.4625 5.04373C15.0781 5.61561 15.7062 6.39373 16.1812 7.24998C16.6562 8.09998 17 9.06873 17 10.0062C17 12.775 14.7719 15 12 15C9.2 15 7 12.7719 7 10.0062C7 8.84061 7.5 7.71248 8.15 6.74061C8.80313 5.76248 9.63438 4.89686 10.3656 4.23436C10.5438 4.07186 10.7719 3.99373 11 3.99998C11.4406 4.00936 11.7438 4.35623 12.0219 4.67498C12.0844 4.74686 12.1469 4.81873 12.2094 4.88436L12.8031 5.50623V5.50936ZM14 11.5062C14 10.3656 12.8438 9.22498 12.2875 8.74373C12.1188 8.59686 11.8781 8.59686 11.7094 8.74373C11.1563 9.22186 10 10.3625 10 11.5062C10 12.6094 10.8969 13.5062 12 13.5062C13.1031 13.5062 14 12.6094 14 11.5062ZM3 13C3 12.4469 3.44687 12 4 12H5C5.55313 12 6 12.4469 6 13C6 13.5531 5.55313 14 5 14V16H19V14C18.4469 14 18 13.5531 18 13C18 12.4469 18.4469 12 19 12H20C20.5531 12 21 12.4469 21 13V16C21.5531 16 22 16.4469 22 17V19C22 19.5531 21.5531 20 21 20H3C2.44687 20 2 19.5531 2 19V17C2 16.4469 2.44687 16 3 16V13ZM12 19C12.2652 19 12.5196 18.8946 12.7071 18.7071C12.8946 18.5196 13 18.2652 13 18C13 17.7348 12.8946 17.4804 12.7071 17.2929C12.5196 17.1053 12.2652 17 12 17C11.7348 17 11.4804 17.1053 11.2929 17.2929C11.1054 17.4804 11 17.7348 11 18C11 18.2652 11.1054 18.5196 11.2929 18.7071C11.4804 18.8946 11.7348 19 12 19ZM17 18C17 17.7348 16.8946 17.4804 16.7071 17.2929C16.5196 17.1053 16.2652 17 16 17C15.7348 17 15.4804 17.1053 15.2929 17.2929C15.1054 17.4804 15 17.7348 15 18C15 18.2652 15.1054 18.5196 15.2929 18.7071C15.4804 18.8946 15.7348 19 16 19C16.2652 19 16.5196 18.8946 16.7071 18.7071C16.8946 18.5196 17 18.2652 17 18ZM8 19C8.26522 19 8.51957 18.8946 8.70711 18.7071C8.89464 18.5196 9 18.2652 9 18C9 17.7348 8.89464 17.4804 8.70711 17.2929C8.51957 17.1053 8.26522 17 8 17C7.73478 17 7.48043 17.1053 7.29289 17.2929C7.10536 17.4804 7 17.7348 7 18C7 18.2652 7.10536 18.5196 7.29289 18.7071C7.48043 18.8946 7.73478 19 8 19Z" fill="black"/>
</svg>
