<svg width="24" height="24" viewBox="0 0 24 24" fill="none" xmlns="http://www.w3.org/2000/svg">
<path d="M9.45312 19.5875C6.28437 18.5219 4 15.5281 4 12C4 7.58125 7.58125 4 12 4C16.4187 4 20 7.58125 20 12C20 15.5281 17.7156 18.5219 14.5469 19.5875C14.8344 19.125 15 18.5813 15 18V16.5344C15.7594 15.9875 16.3625 15.2344 16.7312 14.3594C16.8875 13.9906 16.5125 13.6562 16.1281 13.775C14.8875 14.1562 13.4875 14.3687 12.0094 14.3687C10.5312 14.3687 9.13125 14.1562 7.89062 13.775C7.50625 13.6562 7.13125 13.9906 7.2875 14.3594C7.65312 15.2281 8.25 15.975 9 16.5219V18C9 18.5813 9.16563 19.125 9.45312 19.5875ZM10.1 11.3C10.2656 11.5219 10.5781 11.5656 10.8 11.4C11.0219 11.2344 11.0656 10.9219 10.9 10.7C9.95 9.43437 8.05 9.43437 7.1 10.7C6.93437 10.9219 6.97813 11.2344 7.2 11.4C7.42188 11.5656 7.73438 11.5219 7.9 11.3C8.45 10.5656 9.55 10.5656 10.1 11.3ZM14.5 12.5C15.0304 12.5 15.5391 12.2893 15.9142 11.9142C16.2893 11.5391 16.5 11.0304 16.5 10.5C16.5 9.96957 16.2893 9.46086 15.9142 9.08579C15.5391 8.71071 15.0304 8.5 14.5 8.5C13.9696 8.5 13.4609 8.71071 13.0858 9.08579C12.7107 9.46086 12.5 9.96957 12.5 10.5C12.5 11.0304 12.7107 11.5391 13.0858 11.9142C13.4609 12.2893 13.9696 12.5 14.5 12.5ZM14 16.5813V18C14 19.1031 13.1031 20 12 20C10.8969 20 10 19.1031 10 18V16.5813C10 16.1219 10.3719 15.75 10.8313 15.75H10.8938C11.2469 15.75 11.5531 15.9969 11.6312 16.3406C11.7188 16.7344 12.2812 16.7344 12.3687 16.3406C12.4469 15.9937 12.7531 15.75 13.1062 15.75H13.1687C13.6281 15.75 14 16.1219 14 16.5813ZM14.5 9.75C14.6989 9.75 14.8897 9.82902 15.0303 9.96967C15.171 10.1103 15.25 10.3011 15.25 10.5C15.25 10.6989 15.171 10.8897 15.0303 11.0303C14.8897 11.171 14.6989 11.25 14.5 11.25C14.3011 11.25 14.1103 11.171 13.9697 11.0303C13.829 10.8897 13.75 10.6989 13.75 10.5C13.75 10.3011 13.829 10.1103 13.9697 9.96967C14.1103 9.82902 14.3011 9.75 14.5 9.75Z" fill="black"/>
</svg>
