<svg width="24" height="24" viewBox="0 0 24 24" fill="none" xmlns="http://www.w3.org/2000/svg">
<path d="M8 6C8 4.89688 8.89687 4 10 4H15V8C15 8.55312 15.4469 9 16 9H20V18C20 19.1031 19.1031 20 18 20H10C8.89687 20 8 19.1031 8 18V14.5H13.4406L12.2219 15.7188C11.9281 16.0125 11.9281 16.4875 12.2219 16.7781C12.5156 17.0687 12.9906 17.0719 13.2812 16.7781L15.7812 14.2781C16.075 13.9844 16.075 13.5094 15.7812 13.2188L13.2812 10.7188C12.9875 10.425 12.5125 10.425 12.2219 10.7188C11.9313 11.0125 11.9281 11.4875 12.2219 11.7781L13.4406 12.9969H8V6ZM8 13V14.5H4.75C4.33437 14.5 4 14.1656 4 13.75C4 13.3344 4.33437 13 4.75 13H8ZM20 8H16V4L20 8Z" fill="black"/>
</svg>
