<svg width="24" height="24" viewBox="0 0 24 24" fill="none" xmlns="http://www.w3.org/2000/svg">
<path d="M8 4C6.89688 4 6 4.89688 6 6V18C6 19.1031 6.89688 20 8 20H16C17.1031 20 18 19.1031 18 18V9H14C13.4469 9 13 8.55313 13 8V4H8ZM14 4V8H18L14 4ZM12.5 10.5V12H14C14.275 12 14.5 12.225 14.5 12.5C14.5 12.775 14.275 13 14 13H12.5V14.5C12.5 14.775 12.275 15 12 15C11.725 15 11.5 14.775 11.5 14.5V13H10C9.725 13 9.5 12.775 9.5 12.5C9.5 12.225 9.725 12 10 12H11.5V10.5C11.5 10.225 11.725 10 12 10C12.275 10 12.5 10.225 12.5 10.5ZM10 16H14C14.275 16 14.5 16.225 14.5 16.5C14.5 16.775 14.275 17 14 17H10C9.725 17 9.5 16.775 9.5 16.5C9.5 16.225 9.725 16 10 16Z" fill="black"/>
</svg>
