<svg width="24" height="24" viewBox="0 0 24 24" fill="none" xmlns="http://www.w3.org/2000/svg">
<path d="M12.9998 6C16.7498 6 20.9998 10 20.9998 12C20.9998 14 16.7498 18 12.9998 18C10.6623 18 8.12788 16.4438 6.55288 14.7875C6.36538 14.5906 6.05913 14.5625 5.84976 14.7344L3.81538 16.3875C3.64976 16.5219 3.41226 16.5375 3.23101 16.4219C3.04976 16.3062 2.96226 16.0875 3.01538 15.8781L3.95288 12.1219C3.97163 12.0437 3.97163 11.9594 3.95288 11.8781L3.01538 8.12187C2.96538 7.91875 3.04351 7.70938 3.21538 7.59063C3.38726 7.47188 3.61226 7.47188 3.78413 7.59063L6.03413 9.1375C6.24038 9.27812 6.51851 9.24687 6.69351 9.06875C8.27788 7.46562 10.731 6 12.9998 6ZM12.8529 8.64687C12.6591 8.45312 12.3404 8.45312 12.1466 8.64687L10.1466 10.6469C9.95288 10.8406 9.95288 11.1594 10.1466 11.3531C10.3404 11.5469 10.6591 11.5469 10.8529 11.3531L12.8529 9.35313C13.0466 9.15938 13.0466 8.84062 12.8529 8.64687ZM16.3529 9.14687C16.1591 8.95312 15.8404 8.95312 15.6466 9.14687L10.6466 14.1469C10.4529 14.3406 10.4529 14.6594 10.6466 14.8531C10.8404 15.0469 11.1591 15.0469 11.3529 14.8531L16.3529 9.85313C16.5466 9.65938 16.5466 9.34062 16.3529 9.14687ZM16.8529 12.6469C16.6591 12.4531 16.3404 12.4531 16.1466 12.6469L14.1466 14.6469C13.9529 14.8406 13.9529 15.1594 14.1466 15.3531C14.3404 15.5469 14.6591 15.5469 14.8529 15.3531L16.8529 13.3531C17.0466 13.1594 17.0466 12.8406 16.8529 12.6469Z" fill="black"/>
</svg>
