<svg width="24" height="24" viewBox="0 0 24 24" fill="none" xmlns="http://www.w3.org/2000/svg">
<path d="M4 6C4 4.89688 4.89688 4 6 4H11V8C11 8.55312 11.4469 9 12 9H16V13.5H9.5C8.39687 13.5 7.5 14.3969 7.5 15.5V20H6C4.89688 20 4 19.1031 4 18V6ZM16 8H12V4L16 8ZM10.25 15H10.75C11.4406 15 12 15.5594 12 16.25V16.5C12 16.775 11.775 17 11.5 17C11.225 17 11 16.775 11 16.5V16.25C11 16.1125 10.8875 16 10.75 16H10.25C10.1125 16 10 16.1125 10 16.25V18.75C10 18.8875 10.1125 19 10.25 19H10.75C10.8875 19 11 18.8875 11 18.75V18.5C11 18.225 11.225 18 11.5 18C11.775 18 12 18.225 12 18.5V18.75C12 19.4406 11.4406 20 10.75 20H10.25C9.55937 20 9 19.4406 9 18.75V16.25C9 15.5594 9.55937 15 10.25 15ZM14.4094 15H15.5C15.775 15 16 15.225 16 15.5C16 15.775 15.775 16 15.5 16H14.4094C14.1844 16 14 16.1844 14 16.4094C14 16.5719 14.0938 16.7188 14.2437 16.7844L15.4125 17.3031C15.9219 17.5281 16.25 18.0344 16.25 18.5906C16.25 19.3687 15.6187 20 14.8406 20H13.5C13.225 20 13 19.775 13 19.5C13 19.225 13.225 19 13.5 19H14.8406C15.0656 19 15.25 18.8156 15.25 18.5906C15.25 18.4281 15.1562 18.2812 15.0063 18.2156L13.8375 17.6969C13.3281 17.4719 13 16.9656 13 16.4094C13 15.6313 13.6313 15 14.4094 15ZM17.5 15C17.775 15 18 15.225 18 15.5V16.4875C18 17.2063 18.1719 17.9125 18.5 18.55C18.8281 17.9156 19 17.2094 19 16.4875V15.5C19 15.225 19.225 15 19.5 15C19.775 15 20 15.225 20 15.5V16.4875C20 17.5719 19.6781 18.6344 19.075 19.5375L18.9156 19.7781C18.8219 19.9187 18.6656 20 18.5 20C18.3344 20 18.1781 19.9156 18.0844 19.7781L17.925 19.5375C17.3219 18.6344 17 17.5719 17 16.4875V15.5C17 15.225 17.225 15 17.5 15Z" fill="black"/>
</svg>
