<svg width="24" height="24" viewBox="0 0 24 24" fill="none" xmlns="http://www.w3.org/2000/svg">
<path d="M4 12C4 15.5281 6.28437 18.5219 9.45312 19.5875C9.16563 19.125 9 18.5813 9 18V16.5219C8.25 15.975 7.65312 15.2281 7.2875 14.3594C7.13125 13.9906 7.50625 13.6562 7.89062 13.775C9.13125 14.1562 10.5312 14.3687 12.0094 14.3687C13.4875 14.3687 14.8875 14.1562 16.1281 13.775C16.5125 13.6562 16.8875 13.9906 16.7312 14.3594C16.3625 15.2344 15.7594 15.9844 15 16.5344V18C15 18.5813 14.8344 19.125 14.5469 19.5875C17.7156 18.5219 20 15.5281 20 12C20 7.58125 16.4187 4 12 4C7.58125 4 4 7.58125 4 12ZM9.5125 9.5C9.77772 9.5 10.0321 9.60536 10.2196 9.79289C10.4071 9.98043 10.5125 10.2348 10.5125 10.5C10.5125 10.7652 10.4071 11.0196 10.2196 11.2071C10.0321 11.3946 9.77772 11.5 9.5125 11.5C9.24728 11.5 8.99293 11.3946 8.80539 11.2071C8.61786 11.0196 8.5125 10.7652 8.5125 10.5C8.5125 10.2348 8.61786 9.98043 8.80539 9.79289C8.99293 9.60536 9.24728 9.5 9.5125 9.5ZM13.5125 10.5C13.5125 10.2348 13.6179 9.98043 13.8054 9.79289C13.9929 9.60536 14.2473 9.5 14.5125 9.5C14.7777 9.5 15.0321 9.60536 15.2196 9.79289C15.4071 9.98043 15.5125 10.2348 15.5125 10.5C15.5125 10.7652 15.4071 11.0196 15.2196 11.2071C15.0321 11.3946 14.7777 11.5 14.5125 11.5C14.2473 11.5 13.9929 11.3946 13.8054 11.2071C13.6179 11.0196 13.5125 10.7652 13.5125 10.5ZM14 18V16.5813C14 16.1219 13.6281 15.75 13.1687 15.75H13.1062C12.7531 15.75 12.4469 15.9969 12.3687 16.3406C12.2812 16.7344 11.7188 16.7344 11.6312 16.3406C11.5531 15.9937 11.2469 15.75 10.8938 15.75H10.8313C10.3719 15.75 10 16.1219 10 16.5813V18C10 19.1031 10.8969 20 12 20C13.1031 20 14 19.1031 14 18Z" fill="black"/>
</svg>
