<svg width="24" height="24" viewBox="0 0 24 24" fill="none" xmlns="http://www.w3.org/2000/svg">
<path d="M19.6344 4.2281C19.8656 4.4156 20 4.69998 20 4.99998V7.99998C20 8.29998 19.8656 8.58435 19.6344 8.77185C19.4031 8.95935 19.0969 9.03748 18.8031 8.9781L13.8031 7.9781C13.4219 7.9031 13.125 7.6156 13.0312 7.24998H11V8.33748C12.1812 8.89998 13 10.1031 13 11.5V16H5.99999V11.5C5.99999 10.1031 6.81874 8.89998 7.99999 8.33748V7.43748C6.86874 7.78435 5.93749 8.5906 5.42812 9.6406C5.24687 10.0125 4.79687 10.1687 4.42499 9.98748C4.05312 9.80623 3.89687 9.35623 4.07812 8.98435C4.83437 7.43123 6.27187 6.26873 7.99999 5.88748V4.99998C7.99999 4.44685 8.44687 3.99998 8.99999 3.99998H9.99999C10.5531 3.99998 11 4.44685 11 4.99998V5.74998H13.0312C13.125 5.38435 13.4219 5.09685 13.8031 5.01873L18.8031 4.01873C19.0969 3.95935 19.4 4.03748 19.6344 4.22498V4.2281ZM13 17V18C13 19.1031 12.1031 20 11 20H7.99999C6.89687 20 5.99999 19.1031 5.99999 18V17H13ZM9.49999 6.99998C9.6326 6.99998 9.75978 6.9473 9.85355 6.85353C9.94731 6.75976 9.99999 6.63259 9.99999 6.49998C9.99999 6.36737 9.94731 6.24019 9.85355 6.14643C9.75978 6.05266 9.6326 5.99998 9.49999 5.99998C9.36738 5.99998 9.24021 6.05266 9.14644 6.14643C9.05267 6.24019 8.99999 6.36737 8.99999 6.49998C8.99999 6.63259 9.05267 6.75976 9.14644 6.85353C9.24021 6.9473 9.36738 6.99998 9.49999 6.99998Z" fill="black"/>
</svg>
