<svg width="24" height="24" viewBox="0 0 24 24" fill="none" xmlns="http://www.w3.org/2000/svg">
<path d="M4 6C4 4.89688 4.89688 4 6 4H11V8C11 8.55313 11.4469 9 12 9H16V13.5H9.5C8.39688 13.5 7.5 14.3969 7.5 15.5V20H6C4.89688 20 4 19.1031 4 18V6ZM16 8H12V4L16 8ZM10.4281 15H11.25C11.525 15 11.75 15.225 11.75 15.5C11.75 15.775 11.525 16 11.25 16H10.4281C10.1937 16 10 16.1906 10 16.4281C10 16.5906 10.0906 16.7375 10.2375 16.8094L11.2125 17.2969C11.6969 17.5375 12 18.0312 12 18.5719C12 19.3594 11.3625 20 10.5719 20H9.5C9.225 20 9 19.775 9 19.5C9 19.225 9.225 19 9.5 19H10.5719C10.8063 19 11 18.8094 11 18.5719C11 18.4094 10.9094 18.2625 10.7625 18.1906L9.7875 17.7031C9.30625 17.4625 9 16.9688 9 16.4281C9 15.6406 9.6375 15 10.4281 15ZM18.25 15H18.75C19.4406 15 20 15.5594 20 16.25V16.5C20 16.775 19.775 17 19.5 17C19.225 17 19 16.775 19 16.5V16.25C19 16.1125 18.8875 16 18.75 16H18.25C18.1125 16 18 16.1125 18 16.25V18.75C18 18.8875 18.1125 19 18.25 19H18.75C18.8875 19 19 18.8875 19 18.75V18.5C18.725 18.5 18.5 18.275 18.5 18C18.5 17.725 18.725 17.5 19 17.5H19.5C19.775 17.5 20 17.725 20 18V18.75C20 19.4406 19.4406 20 18.75 20H18.25C17.5594 20 17 19.4406 17 18.75V16.25C17 15.5594 17.5594 15 18.25 15ZM13.5 15C13.775 15 14 15.225 14 15.5V16.4875C14 17.2063 14.1719 17.9125 14.5 18.55C14.8281 17.9156 15 17.2094 15 16.4875V15.5C15 15.225 15.225 15 15.5 15C15.775 15 16 15.225 16 15.5V16.4875C16 17.5719 15.6781 18.6344 15.075 19.5375L14.9156 19.7781C14.8219 19.9187 14.6656 20 14.5 20C14.3344 20 14.1781 19.9156 14.0844 19.7781L13.925 19.5375C13.3219 18.6344 13 17.5719 13 16.4875V15.5C13 15.225 13.225 15 13.5 15Z" fill="black"/>
</svg>
