<svg width="24" height="24" viewBox="0 0 24 24" fill="none" xmlns="http://www.w3.org/2000/svg">
<path d="M19.5625 14.6156C19.8469 13.7969 20 12.9156 20 12C20 7.58125 16.4187 4 12 4C7.58125 4 4 7.58125 4 12C4 16.4187 7.58125 20 12 20C13.1062 20 14.1594 19.775 15.1156 19.3687C14.9656 19.1969 14.85 18.9875 14.7906 18.7531L14.075 15.9625C13.7625 14.7437 14.4438 13.4344 15.6938 13.0844C16.8563 12.7594 18 13.4 18.4281 14.4594C18.825 14.4094 19.2125 14.4719 19.5594 14.6156H19.5625ZM13.25 14.375C13.25 14.5906 13.1531 14.7875 13.0219 14.9469C12.8875 15.1094 12.7063 15.25 12.5 15.3656C12.4156 15.4125 12.3219 15.4594 12.2281 15.5C12.325 15.5406 12.4156 15.5844 12.5 15.6344C12.7063 15.75 12.8906 15.8906 13.0219 16.0531C13.1562 16.2125 13.25 16.4094 13.25 16.625C13.25 16.8406 13.1531 17.0375 13.0219 17.1969C12.8875 17.3594 12.7063 17.5 12.5 17.6156C12.0844 17.8469 11.5437 18 11 18C10.8875 18 10.7875 17.9219 10.7594 17.8125C10.7313 17.7031 10.7781 17.5875 10.8781 17.5312L10.8844 17.5281C10.8906 17.525 10.9 17.5188 10.9125 17.5125C10.9375 17.4969 10.975 17.475 11.0188 17.4469C11.1063 17.3875 11.2219 17.3063 11.3375 17.2094C11.4531 17.1125 11.5625 17.0031 11.6375 16.8938C11.7156 16.7844 11.7469 16.6938 11.7469 16.625C11.7469 16.5562 11.7156 16.4688 11.6375 16.3562C11.5594 16.2469 11.4531 16.1406 11.3375 16.0406C11.2219 15.9437 11.1063 15.8625 11.0188 15.8031C10.975 15.775 10.9375 15.7531 10.9125 15.7375L10.8938 15.725L10.8844 15.7188L10.8781 15.7156C10.8 15.6719 10.75 15.5875 10.75 15.4969C10.75 15.4062 10.8 15.3219 10.8781 15.2781L10.8844 15.275C10.8906 15.2719 10.9 15.2656 10.9125 15.2594C10.9375 15.2437 10.975 15.2219 11.0188 15.1938C11.1063 15.1344 11.2219 15.0531 11.3375 14.9563C11.4531 14.8594 11.5625 14.75 11.6375 14.6406C11.7156 14.5312 11.7469 14.4406 11.7469 14.3719C11.7469 14.3031 11.7156 14.2156 11.6375 14.1031C11.5594 13.9937 11.4531 13.8875 11.3375 13.7875C11.2219 13.6906 11.1063 13.6094 11.0188 13.55C10.975 13.5219 10.9375 13.5 10.9125 13.4844C10.9 13.4781 10.8906 13.4719 10.8844 13.4688L10.8781 13.4656C10.7781 13.4094 10.7313 13.2937 10.7594 13.1844C10.7875 13.075 10.8875 12.9969 11 12.9969C11.5437 12.9969 12.0844 13.15 12.4969 13.3813C12.7031 13.4969 12.8875 13.6375 13.0188 13.8C13.1531 13.9594 13.2469 14.1562 13.2469 14.3719L13.25 14.375ZM9.5125 9.5C9.77772 9.5 10.0321 9.60536 10.2196 9.79289C10.4071 9.98043 10.5125 10.2348 10.5125 10.5C10.5125 10.7652 10.4071 11.0196 10.2196 11.2071C10.0321 11.3946 9.77772 11.5 9.5125 11.5C9.24728 11.5 8.99293 11.3946 8.80539 11.2071C8.61786 11.0196 8.5125 10.7652 8.5125 10.5C8.5125 10.2348 8.61786 9.98043 8.80539 9.79289C8.99293 9.60536 9.24728 9.5 9.5125 9.5ZM15.6 11.3C15.05 10.5656 13.95 10.5656 13.4 11.3C13.2344 11.5219 12.9219 11.5656 12.7 11.4C12.4781 11.2344 12.4344 10.9219 12.6 10.7C13.55 9.43437 15.45 9.43437 16.4 10.7C16.5656 10.9219 16.5219 11.2344 16.3 11.4C16.0781 11.5656 15.7656 11.5219 15.6 11.3ZM17.5625 15.0094C17.375 14.2844 16.6625 13.8531 15.9656 14.0469C15.2688 14.2406 14.8594 14.9875 15.0437 15.7156L15.7594 18.5063C15.8281 18.7781 16.1094 18.9406 16.3781 18.8625L19.0312 18.1187C19.725 17.925 20.1375 17.1781 19.9531 16.45C19.7688 15.7219 19.0531 15.2937 18.3562 15.4875L17.725 15.6625L17.5562 15.0063L17.5625 15.0094Z" fill="black"/>
</svg>
