<svg width="24" height="24" viewBox="0 0 24 24" fill="none" xmlns="http://www.w3.org/2000/svg">
<path d="M8 4C6.89688 4 6 4.89688 6 6V18C6 19.1031 6.89688 20 8 20H16C17.1031 20 18 19.1031 18 18V9H14C13.4469 9 13 8.55312 13 8V4H8ZM14 4V8H18L14 4ZM14.5 13.5C14.5 14.0562 14.3469 14.5781 14.0844 15.0281L15.2812 16.225C15.575 16.5188 15.575 16.9938 15.2812 17.2844C14.9875 17.575 14.5125 17.5781 14.2219 17.2844L13.0219 16.0844C12.575 16.35 12.0563 16.5 11.5 16.5C9.84375 16.5 8.5 15.1562 8.5 13.5C8.5 11.8438 9.84375 10.5 11.5 10.5C13.1562 10.5 14.5 11.8438 14.5 13.5ZM11.5 15C11.8978 15 12.2794 14.842 12.5607 14.5607C12.842 14.2794 13 13.8978 13 13.5C13 13.1022 12.842 12.7206 12.5607 12.4393C12.2794 12.158 11.8978 12 11.5 12C11.1022 12 10.7206 12.158 10.4393 12.4393C10.158 12.7206 10 13.1022 10 13.5C10 13.8978 10.158 14.2794 10.4393 14.5607C10.7206 14.842 11.1022 15 11.5 15Z" fill="black"/>
</svg>
