<svg width="24" height="24" viewBox="0 0 24 24" fill="none" xmlns="http://www.w3.org/2000/svg">
<path d="M5.74063 18.2594C4.95313 17.4719 4.81563 16.1751 5.225 14.6688C5.325 14.9657 5.4875 15.2469 5.73125 15.4907C6.21875 15.9782 6.85625 16.1376 7.45 16.1313C8.0375 16.1282 8.6625 15.9657 9.26875 15.7157C10.4875 15.2126 11.8312 14.2782 13.0562 13.0563C14.2812 11.8344 15.2125 10.4876 15.7156 9.26882C15.9656 8.66257 16.1281 8.03757 16.1313 7.45007C16.1344 6.85632 15.975 6.21569 15.4906 5.73132C15.2469 5.48757 14.9656 5.32507 14.6687 5.22507C16.175 4.81882 17.475 4.95632 18.2594 5.74382C19.9875 7.47194 18.5875 11.6751 15.1281 15.1344C11.6688 18.5938 7.46875 19.9876 5.74063 18.2594ZM12.3469 12.3469C10.0438 14.6532 7.39688 15.7438 6.4375 14.7813C5.47813 13.8188 6.56563 11.1751 8.87188 8.86882C11.1781 6.56257 13.8219 5.47507 14.7812 6.43444C15.7406 7.39382 14.6531 10.0407 12.3469 12.3469Z" fill="black"/>
</svg>
