<svg width="24" height="24" viewBox="0 0 24 24" fill="none" xmlns="http://www.w3.org/2000/svg">
<path d="M17.35 17.9469C15.9344 19.225 14.0562 20 12 20C7.58125 20 4 16.4187 4 12C4 7.58125 7.58125 4 12 4C16.4187 4 20 7.58125 20 12C20 13.9625 19.2937 15.7594 18.1219 17.1531C18.0437 16.8844 18 16.6 18 16.3125V11C18 9.06563 16.4344 7.5 14.5 7.5C12.5656 7.5 11 9.06563 11 11C11 12.9344 12.5656 14.5 14.5 14.5C15.4781 14.5 16.3656 14.0969 17 13.45V16.3094C17 16.8844 17.1219 17.4406 17.35 17.9469ZM12 11C12 10.337 12.2634 9.70107 12.7322 9.23223C13.2011 8.76339 13.837 8.5 14.5 8.5C15.163 8.5 15.7989 8.76339 16.2678 9.23223C16.7366 9.70107 17 10.337 17 11C17 11.663 16.7366 12.2989 16.2678 12.7678C15.7989 13.2366 15.163 13.5 14.5 13.5C13.837 13.5 13.2011 13.2366 12.7322 12.7678C12.2634 12.2989 12 11.663 12 11ZM9.5125 10C9.5125 9.73478 9.40714 9.48043 9.21961 9.29289C9.03207 9.10536 8.77772 9 8.5125 9C8.24728 9 7.99293 9.10536 7.80539 9.29289C7.61786 9.48043 7.5125 9.73478 7.5125 10C7.5125 10.2652 7.61786 10.5196 7.80539 10.7071C7.99293 10.8946 8.24728 11 8.5125 11C8.77772 11 9.03207 10.8946 9.21961 10.7071C9.40714 10.5196 9.5125 10.2652 9.5125 10ZM14.0125 12C14.2777 12 14.5321 11.8946 14.7196 11.7071C14.9071 11.5196 15.0125 11.2652 15.0125 11C15.0125 10.7348 14.9071 10.4804 14.7196 10.2929C14.5321 10.1054 14.2777 10 14.0125 10C13.7473 10 13.4929 10.1054 13.3054 10.2929C13.1179 10.4804 13.0125 10.7348 13.0125 11C13.0125 11.2652 13.1179 11.5196 13.3054 11.7071C13.4929 11.8946 13.7473 12 14.0125 12ZM8.5 15C8.5 15.275 8.725 15.5 9 15.5C9.44688 15.5 10.1844 15.5906 10.8938 15.8656C11.6063 16.1406 12.2281 16.575 12.5531 17.2219C12.6781 17.4688 12.9781 17.5687 13.225 17.4469C13.4719 17.325 13.5719 17.0219 13.45 16.775C12.9719 15.8219 12.0969 15.2562 11.2594 14.9312C10.4156 14.6094 9.55312 14.5 9 14.5C8.725 14.5 8.5 14.725 8.5 15ZM13.5375 6.80938C13.7875 6.60938 14.1 6.5 14.4187 6.5C14.6969 6.5 14.9688 6.58125 15.2031 6.7375L15.4719 6.91563C15.7031 7.06875 16.0125 7.00625 16.1656 6.77813C16.3187 6.55 16.2562 6.2375 16.0281 6.08437L15.7594 5.90625C15.3625 5.64062 14.8969 5.5 14.4219 5.5C13.875 5.5 13.3438 5.6875 12.9156 6.02813L12.1875 6.60938C11.9719 6.78125 11.9375 7.09687 12.1094 7.3125C12.2812 7.52813 12.5969 7.5625 12.8125 7.39062L13.5375 6.80938Z" fill="black"/>
</svg>
