<svg width="24" height="24" viewBox="0 0 24 24" fill="none" xmlns="http://www.w3.org/2000/svg">
<path d="M16.8875 4.18438C17.05 4.38438 17.0375 4.67188 16.8531 4.85626L14 7.70626C13.8375 7.86876 13.8375 8.13126 14 8.29376C14.1531 8.44688 14.4 8.45626 14.5656 8.31251L17.6719 5.62188C17.8688 5.45001 18.1688 5.45938 18.3531 5.64688C18.5375 5.83438 18.55 6.12813 18.3781 6.32813L15.6875 9.43438C15.5438 9.60001 15.5532 9.84688 15.7063 10C15.8688 10.1625 16.1313 10.1625 16.2938 10L19.1469 7.14688C19.3281 6.96563 19.6188 6.95001 19.8188 7.11251C20.0188 7.27501 20.0594 7.56251 19.9188 7.77501L17.7 11.1031C17.1188 11.975 16.1406 12.4969 15.0938 12.4969C14.4907 12.4969 13.9094 12.325 13.4094 12.0063L5.70627 19.7063C5.31565 20.0969 4.68127 20.0969 4.29065 19.7063C3.90002 19.3156 3.90002 18.6813 4.29065 18.2906L11.9906 10.5938C11.6719 10.0938 11.5 9.50938 11.5 8.90938C11.5 7.86251 12.025 6.88438 12.8938 6.30313L16.2219 4.08438C16.4344 3.94063 16.7219 3.98438 16.8844 4.18438H16.8875Z" fill="black"/>
</svg>
