<svg width="24" height="24" viewBox="0 0 24 24" fill="none" xmlns="http://www.w3.org/2000/svg">
<path d="M8 4C6.89688 4 6 4.89688 6 6V18C6 19.1031 6.89688 20 8 20H16C17.1031 20 18 19.1031 18 18V9H14C13.4469 9 13 8.55312 13 8V4H8ZM14 4V8H18L14 4ZM9.25 10.125H11.5C12.5344 10.125 13.375 10.9656 13.375 12C13.375 12.7969 12.8781 13.475 12.1781 13.7469L13.5219 15.0063L14.5781 14.0375C14.8313 13.8031 15.2281 13.8219 15.4625 14.075C15.6969 14.3281 15.6781 14.725 15.425 14.9594L14.4375 15.8656L15.4281 16.7937C15.6813 17.0312 15.6938 17.425 15.4563 17.6781C15.2188 17.9313 14.825 17.9438 14.5719 17.7063L13.5125 16.7125L12.4219 17.7125C12.1687 17.9469 11.7719 17.9281 11.5375 17.675C11.3031 17.4219 11.3219 17.025 11.575 16.7906L12.5938 15.8562L10.5687 13.9563C10.5406 13.9313 10.5187 13.9031 10.4969 13.875H9.875V15.25C9.875 15.5938 9.59375 15.875 9.25 15.875C8.90625 15.875 8.625 15.5938 8.625 15.25V13.25V10.75C8.625 10.4062 8.90625 10.125 9.25 10.125ZM11.5 12.625C11.8438 12.625 12.125 12.3438 12.125 12C12.125 11.6562 11.8438 11.375 11.5 11.375H9.875V12.625H11.5Z" fill="black"/>
</svg>
