<svg width="24" height="24" viewBox="0 0 24 24" fill="none" xmlns="http://www.w3.org/2000/svg">
<path d="M4 12C4 9.87827 4.84285 7.84344 6.34315 6.34315C7.84344 4.84285 9.87827 4 12 4C14.1217 4 16.1566 4.84285 17.6569 6.34315C19.1571 7.84344 20 9.87827 20 12C20 14.1217 19.1571 16.1566 17.6569 17.6569C16.1566 19.1571 14.1217 20 12 20C9.87827 20 7.84344 19.1571 6.34315 17.6569C4.84285 16.1566 4 14.1217 4 12ZM13.4594 17.3719C13.6656 17.1875 13.6812 16.8719 13.4969 16.6656C13.2094 16.3469 12.7094 16 12 16C11.2906 16 10.7906 16.3469 10.5031 16.6656C10.3188 16.8719 10.3344 17.1875 10.5406 17.3719C10.7469 17.5562 11.0625 17.5406 11.2469 17.3344C11.3937 17.1688 11.6438 17 12 17C12.3562 17 12.6062 17.1688 12.7531 17.3344C12.9375 17.5406 13.2531 17.5562 13.4594 17.3719ZM11.5 11.5C11.5 10.2031 10.5156 9.1375 9.25 9.0125C9.5625 8.675 9.8 8.25938 9.93437 7.8L9.98125 7.6375C10.0562 7.37188 9.90312 7.09375 9.6375 7.01875C9.37187 6.94375 9.09375 7.09687 9.01875 7.3625L8.97188 7.525C8.75313 8.29688 8.09375 8.85938 7.29688 8.95937L6.9375 9.00313C6.6625 9.0375 6.46875 9.2875 6.50312 9.5625C6.53437 9.81563 6.75 10 7 10C6.6875 10.4187 6.5 10.9375 6.5 11.5C6.5 12.8813 7.61875 14 9 14C10.3812 14 11.5 12.8813 11.5 11.5ZM17.5 11.5C17.5 10.9375 17.3125 10.4187 17 10C17.25 10 17.4656 9.81563 17.4969 9.5625C17.5312 9.2875 17.3375 9.0375 17.0625 9.00313L16.7031 8.95937C15.9062 8.85938 15.2469 8.29375 15.0281 7.525L14.9812 7.3625C14.9062 7.09687 14.6281 6.94375 14.3625 7.01875C14.0969 7.09375 13.9438 7.37188 14.0188 7.6375L14.0656 7.8C14.1969 8.2625 14.4344 8.675 14.75 9.0125C13.4875 9.1375 12.5 10.2031 12.5 11.5C12.5 12.8813 13.6187 14 15 14C16.3813 14 17.5 12.8813 17.5 11.5ZM8 11.25C8.55312 11.25 9 10.8031 9 10.25C9 10.0687 8.95312 9.9 8.86875 9.75625C8.9125 9.75312 8.95625 9.75 9 9.75C9.96562 9.75 10.75 10.5344 10.75 11.5C10.75 12.4656 9.96562 13.25 9 13.25C8.03438 13.25 7.25 12.4656 7.25 11.5C7.25 11.3219 7.275 11.15 7.325 10.9875C7.50312 11.15 7.74062 11.25 8 11.25ZM15 10.25C15 10.0687 14.9531 9.9 14.8687 9.75625C14.9125 9.75312 14.9563 9.75 15 9.75C15.9656 9.75 16.75 10.5344 16.75 11.5C16.75 12.4656 15.9656 13.25 15 13.25C14.0344 13.25 13.25 12.4656 13.25 11.5C13.25 11.3219 13.275 11.15 13.325 10.9875C13.5031 11.15 13.7406 11.25 14 11.25C14.5531 11.25 15 10.8031 15 10.25Z" fill="black"/>
</svg>
