<svg width="24" height="24" viewBox="0 0 24 24" fill="none" xmlns="http://www.w3.org/2000/svg">
<path d="M10.75 4.09687C11.1562 4.03437 11.575 4 12 4C12.425 4 12.8438 4.03437 13.25 4.09687C13.7969 4.18125 14.1687 4.69375 14.0813 5.24063C13.9938 5.7875 13.4844 6.15938 12.9375 6.07188C12.6344 6.025 12.3219 6 12 6C11.6781 6 11.3656 6.025 11.0594 6.07188C10.5125 6.15625 10.0031 5.78437 9.91563 5.24063C9.82812 4.69688 10.2031 4.18437 10.75 4.09687ZM8.69375 5.74688C9.01875 6.19375 8.91875 6.81875 8.475 7.14375C7.96562 7.51562 7.51562 7.9625 7.14687 8.47188C6.82187 8.91875 6.19688 9.01562 5.75 8.69063C5.30313 8.36563 5.20625 7.74063 5.53125 7.29375C6.025 6.61562 6.62187 6.01875 7.3 5.525C7.74688 5.2 8.37188 5.3 8.69688 5.74375L8.69375 5.74688ZM15.3062 5.74688C15.6312 5.3 16.2563 5.20312 16.7031 5.52813C17.3813 6.02188 17.9781 6.61875 18.4719 7.29688C18.7969 7.74375 18.6969 8.36875 18.2531 8.69375C17.8094 9.01875 17.1812 8.91875 16.8562 8.475C16.4844 7.96562 16.0375 7.51562 15.5281 7.14687C15.0813 6.82187 14.9844 6.19688 15.3094 5.75L15.3062 5.74688ZM18.7594 9.91563C19.3062 9.83125 19.8156 10.2031 19.9031 10.7469C19.9688 11.1562 20 11.5719 20 11.9969C20 12.4219 19.9656 12.8406 19.9031 13.2469C19.8187 13.7937 19.3062 14.1656 18.7594 14.0781C18.2125 13.9906 17.8406 13.4812 17.9281 12.9344C17.975 12.6281 18 12.3156 18 11.9938C18 11.6719 17.975 11.3594 17.9281 11.0531C17.8438 10.5062 18.2156 9.99688 18.7594 9.90938V9.91563ZM5.24063 9.91563C5.7875 10 6.15938 10.5125 6.07188 11.0594C6.025 11.3656 6 11.6781 6 12C6 12.3219 6.025 12.6344 6.07188 12.9406C6.15625 13.4875 5.78437 13.9969 5.24063 14.0844C4.69688 14.1719 4.18437 13.7969 4.09687 13.25C4.03437 12.8438 4 12.425 4 12C4 11.575 4.03437 11.1562 4.09687 10.75C4.18125 10.2031 4.69375 9.83125 5.24063 9.91875V9.91563ZM5.74688 15.3062C6.19375 14.9812 6.81875 15.0812 7.14375 15.525C7.51562 16.0344 7.9625 16.4844 8.47188 16.8531C8.91875 17.1781 9.01562 17.8031 8.69063 18.25C8.36563 18.6969 7.74063 18.7937 7.29375 18.4688C6.61562 17.975 6.01875 17.3781 5.525 16.7C5.2 16.2531 5.3 15.6281 5.74375 15.3031L5.74688 15.3062ZM18.25 15.3062C18.6969 15.6312 18.7937 16.2563 18.4688 16.7031C17.975 17.3813 17.3781 17.9781 16.7 18.4719C16.2531 18.7969 15.6281 18.6969 15.3031 18.2531C14.9781 17.8094 15.0781 17.1812 15.5219 16.8562C16.0312 16.4844 16.4813 16.0375 16.85 15.5281C17.175 15.0813 17.8 14.9844 18.2469 15.3094L18.25 15.3062ZM9.91563 18.7594C10 18.2125 10.5125 17.8406 11.0594 17.9281C11.3656 17.975 11.6781 18 12 18C12.3219 18 12.6344 17.975 12.9406 17.9281C13.4875 17.8438 13.9969 18.2156 14.0844 18.7594C14.1719 19.3031 13.7969 19.8156 13.2531 19.9031C12.8438 19.9688 12.4281 20 12.0031 20C11.5781 20 11.1594 19.9656 10.7531 19.9031C10.2063 19.8187 9.83437 19.3062 9.92188 18.7594H9.91563ZM9.5125 9.5C9.77772 9.5 10.0321 9.60536 10.2196 9.79289C10.4071 9.98043 10.5125 10.2348 10.5125 10.5C10.5125 10.7652 10.4071 11.0196 10.2196 11.2071C10.0321 11.3946 9.77772 11.5 9.5125 11.5C9.24728 11.5 8.99293 11.3946 8.80539 11.2071C8.61786 11.0196 8.5125 10.7652 8.5125 10.5C8.5125 10.2348 8.61786 9.98043 8.80539 9.79289C8.99293 9.60536 9.24728 9.5 9.5125 9.5ZM14.5125 9.5C14.7777 9.5 15.0321 9.60536 15.2196 9.79289C15.4071 9.98043 15.5125 10.2348 15.5125 10.5C15.5125 10.7652 15.4071 11.0196 15.2196 11.2071C15.0321 11.3946 14.7777 11.5 14.5125 11.5C14.2473 11.5 13.9929 11.3946 13.8054 11.2071C13.6179 11.0196 13.5125 10.7652 13.5125 10.5C13.5125 10.2348 13.6179 9.98043 13.8054 9.79289C13.9929 9.60536 14.2473 9.5 14.5125 9.5ZM9.75 14.25H14.25C14.6656 14.25 15 14.5844 15 15C15 15.4156 14.6656 15.75 14.25 15.75H9.75C9.33437 15.75 9 15.4156 9 15C9 14.5844 9.33437 14.25 9.75 14.25Z" fill="black"/>
</svg>
