<svg width="24" height="24" viewBox="0 0 24 24" fill="none" xmlns="http://www.w3.org/2000/svg">
<path d="M3.21255 4.15943C2.88755 3.90318 2.41568 3.96255 2.15943 4.28755C1.90318 4.61255 1.96255 5.08443 2.28755 5.34068L20.7876 19.8407C21.1126 20.0969 21.5844 20.0376 21.8407 19.7126C22.0969 19.3876 22.0376 18.9157 21.7126 18.6594L18.0001 15.7501V9.00005H14.0001C13.4469 9.00005 13.0001 8.55318 13.0001 8.00005V4.00005H8.00005C6.89693 4.00005 6.00005 4.89693 6.00005 6.00005V6.3438L3.21255 4.15943ZM17.5563 19.2563L6.00005 10.1501V18.0001C6.00005 19.1032 6.89693 20.0001 8.00005 20.0001H16.0001C16.6282 20.0001 17.1907 19.7094 17.5563 19.2563ZM18.0001 8.00005L14.0001 4.00005V8.00005H18.0001Z" fill="black"/>
</svg>
