<svg width="24" height="24" viewBox="0 0 24 24" fill="none" xmlns="http://www.w3.org/2000/svg">
<path d="M18 19H6C4.89688 19 4 18.1031 4 17V7C4 5.89688 4.89688 5 6 5H10C10.6281 5 11.2219 5.29687 11.6 5.8L12.2 6.6C12.3875 6.85312 12.6844 7 13 7H18C19.1031 7 20 7.89688 20 9V17C20 18.1031 19.1031 19 18 19ZM11 10.5V12H9.5C9.225 12 9 12.225 9 12.5V13.5C9 13.775 9.225 14 9.5 14H11V15.5C11 15.775 11.225 16 11.5 16H12.5C12.775 16 13 15.775 13 15.5V14H14.5C14.775 14 15 13.775 15 13.5V12.5C15 12.225 14.775 12 14.5 12H13V10.5C13 10.225 12.775 10 12.5 10H11.5C11.225 10 11 10.225 11 10.5Z" fill="black"/>
</svg>
