<svg width="24" height="24" viewBox="0 0 24 24" fill="none" xmlns="http://www.w3.org/2000/svg">
<path d="M12 20C14.1217 20 16.1566 19.1571 17.6569 17.6569C19.1571 16.1566 20 14.1217 20 12C20 9.87827 19.1571 7.84344 17.6569 6.34315C16.1566 4.84285 14.1217 4 12 4C9.87827 4 7.84344 4.84285 6.34315 6.34315C4.84285 7.84344 4 9.87827 4 12C4 14.1217 4.84285 16.1566 6.34315 17.6569C7.84344 19.1571 9.87827 20 12 20ZM16.8531 14.8531L15.625 16.0813C15.1969 16.5094 14.6156 16.75 14.0094 16.75C13.5812 16.75 13.1625 16.6312 12.8 16.4031L12.3562 16.125C11.7875 15.7688 11.0812 15.7063 10.4594 15.9563C9.50937 16.3375 8.43437 16.225 7.58437 15.6562L7.225 15.4156C6.99375 15.2625 6.93438 14.9531 7.0875 14.7219C7.24063 14.4906 7.55 14.4313 7.78125 14.5844L8.14062 14.825C8.71875 15.2094 9.44687 15.2844 10.0906 15.0281C11.0094 14.6594 12.05 14.7531 12.8906 15.2781L13.3344 15.5562C13.5375 15.6844 13.775 15.75 14.0156 15.75C14.3562 15.75 14.6813 15.6156 14.9219 15.375L16.15 14.1469C16.3437 13.9531 16.6625 13.9531 16.8562 14.1469C17.05 14.3406 17.05 14.6594 16.8562 14.8531H16.8531ZM10.2781 7.08437C10.5094 7.2375 10.5688 7.54688 10.4156 7.77813C9.54063 9.09063 8.24063 9.78125 7.65625 9.975C7.39375 10.0625 7.1125 9.92188 7.025 9.65938C6.9375 9.39688 7.07813 9.11562 7.34063 9.02812C7.75938 8.8875 8.85625 8.3125 9.58125 7.225C9.73438 6.99375 10.0438 6.93438 10.275 7.0875L10.2781 7.08437ZM10.9844 10.8781C11.05 11.1469 10.8875 11.4188 10.6219 11.4844L8.62187 11.9844C8.35312 12.05 8.08125 11.8875 8.01562 11.6219C7.95 11.3562 8.1125 11.0812 8.37813 11.0156L10.3781 10.5156C10.6469 10.45 10.9188 10.6125 10.9844 10.8781ZM14.5 12.5C13.9469 12.5 13.5 11.6031 13.5 10.5C13.5 9.39688 13.9469 8.5 14.5 8.5C15.0531 8.5 15.5 9.39688 15.5 10.5C15.5 11.6031 15.0531 12.5 14.5 12.5Z" fill="black"/>
</svg>
