<svg width="24" height="24" viewBox="0 0 24 24" fill="none" xmlns="http://www.w3.org/2000/svg">
<path d="M3.12183 4.71562C3.32808 4.27812 3.76558 4 4.24996 4H17.75C18.2343 4 18.6718 4.27812 18.8781 4.71562C19.0843 5.15312 19.0218 5.66875 18.7156 6.04375L15.3875 10.1125C12.8812 10.6281 11 12.8438 11 15.5C11 16.3562 11.1968 17.1687 11.5468 17.8906C11.4968 17.8656 11.4468 17.8344 11.4 17.8L9.39996 16.3C9.14683 16.1125 8.99996 15.8156 8.99996 15.5V13.0281L3.28121 6.04063C2.97808 5.66875 2.91246 5.15 3.12183 4.71562ZM12 15.5C12 14.3065 12.4741 13.1619 13.318 12.318C14.1619 11.4741 15.3065 11 16.5 11C17.6934 11 18.838 11.4741 19.6819 12.318C20.5259 13.1619 21 14.3065 21 15.5C21 16.6935 20.5259 17.8381 19.6819 18.682C18.838 19.5259 17.6934 20 16.5 20C15.3065 20 14.1619 19.5259 13.318 18.682C12.4741 17.8381 12 16.6935 12 15.5ZM15.775 14.4812C15.7937 14.4531 15.8312 14.4156 15.9062 14.375C16.0656 14.2906 16.2968 14.2469 16.4906 14.25C16.7468 14.2531 17.025 14.3063 17.3156 14.3781C17.5843 14.4438 17.8562 14.2812 17.9218 14.0125C17.9875 13.7437 17.825 13.4719 17.5562 13.4062C17.3812 13.3625 17.1937 13.3219 16.9968 13.2906V13C16.9968 12.725 16.7718 12.5 16.4968 12.5C16.2218 12.5 15.9968 12.725 15.9968 13V13.2969C15.8062 13.3344 15.6125 13.3969 15.4343 13.4937C15.0656 13.6906 14.7156 14.0688 14.7531 14.6562C14.7843 15.1562 15.1187 15.4469 15.4281 15.6156C15.7031 15.7625 16.0437 15.8594 16.3218 15.9375L16.3781 15.9531C16.7 16.0438 16.9375 16.1156 17.1031 16.2125C17.2437 16.2969 17.25 16.3437 17.25 16.3875C17.2531 16.4625 17.2343 16.5031 17.2187 16.5281C17.2 16.5594 17.1625 16.5969 17.0937 16.6313C16.9468 16.7094 16.725 16.75 16.5156 16.7437C16.2187 16.7344 15.9375 16.6469 15.5812 16.5312C15.5218 16.5125 15.4625 16.4938 15.4 16.475C15.1375 16.3938 14.8562 16.5406 14.775 16.8031C14.6937 17.0656 14.8406 17.3469 15.1031 17.4281C15.1531 17.4438 15.2062 17.4594 15.2593 17.4781C15.4781 17.55 15.7312 17.6281 16 17.6844V18.0406C16 18.3156 16.225 18.5406 16.5 18.5406C16.775 18.5406 17 18.3156 17 18.0406V17.7094C17.1937 17.675 17.3906 17.6125 17.5718 17.5156C17.95 17.3125 18.2687 16.9313 18.25 16.3625C18.2343 15.8563 17.9281 15.5406 17.6093 15.3531C17.3156 15.1781 16.9468 15.075 16.6562 14.9937H16.65C16.325 14.9031 16.0781 14.8313 15.9031 14.7375C15.7531 14.6563 15.7531 14.6125 15.7531 14.5969V14.5938C15.75 14.5344 15.7625 14.5031 15.7781 14.4812H15.775Z" fill="black"/>
</svg>
