<svg width="24" height="24" viewBox="0 0 24 24" fill="none" xmlns="http://www.w3.org/2000/svg">
<path d="M3 6C3 4.89688 3.89688 4 5 4H10V8C10 8.55312 10.4469 9 11 9H15V13.3625L12.0406 16.3219C11.7844 16.5781 11.6031 16.9 11.5156 17.25L11.0469 19.1281C10.975 19.4219 10.9906 19.7219 11.0906 19.9969H5C3.89688 19.9969 3 19.1 3 17.9969V6ZM15 8H11V4L15 8ZM20.1812 11.3656L20.6313 11.8156C21.1187 12.3031 21.1187 13.0938 20.6313 13.5844L19.7125 14.5031L17.4937 12.2844L18.4125 11.3656C18.9 10.8781 19.6906 10.8781 20.1812 11.3656ZM12.7469 17.0312L16.7844 12.9937L19.0031 15.2125L14.9656 19.2469C14.8375 19.375 14.6781 19.4656 14.5 19.5094L12.6219 19.9781C12.45 20.0219 12.2719 19.9719 12.1469 19.8469C12.0219 19.7219 11.9719 19.5437 12.0156 19.3719L12.4844 17.4937C12.5281 17.3187 12.6187 17.1562 12.7469 17.0281V17.0312Z" fill="black"/>
</svg>
