<svg width="24" height="24" viewBox="0 0 24 24" fill="none" xmlns="http://www.w3.org/2000/svg">
<path d="M13.4594 5.15313C14.325 5.3375 15.1313 5.68125 15.8469 6.15C16.0437 6.05313 16.2656 6 16.5 6C17.3281 6 18 6.67188 18 7.5C18 7.73438 17.9469 7.95625 17.85 8.15312C18.3219 8.86875 18.6625 9.675 18.8469 10.5406C19.5063 10.6969 20 11.2906 20 12C20 12.7094 19.5094 13.3031 18.8469 13.4594C18.6625 14.325 18.3188 15.1313 17.85 15.8469C17.9469 16.0437 18 16.2656 18 16.5C18 17.3 17.375 17.95 16.5906 17.9969L15.3875 15.4969C15.5312 15.3375 15.7094 15.2094 15.9062 15.1219C16.4438 14.45 16.8125 13.6375 16.9438 12.75H14.3844C14.4594 12.5125 14.5 12.2625 14.5 12C14.5 11.7375 14.4594 11.4875 14.3844 11.25H16.9438C16.8219 10.4281 16.4969 9.675 16.025 9.03438L14.2156 10.8438C13.9781 10.3906 13.6062 10.0188 13.1562 9.78438L14.9656 7.975C14.325 7.50312 13.5719 7.18125 12.75 7.05625V9.61562C12.5125 9.54063 12.2625 9.5 12 9.5C11.7375 9.5 11.4875 9.54063 11.25 9.61562V7.05625C10.4281 7.18125 9.675 7.50312 9.03438 7.975L10.8438 9.78438C10.3906 10.0219 10.0188 10.3938 9.78438 10.8438L7.975 9.03438C7.50312 9.675 7.18125 10.4281 7.05625 11.25H9.61562C9.54063 11.4875 9.5 11.7375 9.5 12C9.5 12.2625 9.54063 12.5125 9.61562 12.75H7.05625C7.19063 13.6406 7.55938 14.45 8.09375 15.1219C8.29375 15.2094 8.47187 15.3375 8.61562 15.4969L7.4125 17.9969C6.625 17.95 6 17.3 6 16.5C6 16.2656 6.05313 16.0437 6.15 15.8469C5.67813 15.1313 5.33438 14.325 5.15313 13.4594C4.49063 13.3031 4 12.7094 4 12C4 11.2906 4.49063 10.6969 5.15313 10.5406C5.3375 9.675 5.68125 8.86875 6.15 8.15312C6.05313 7.95625 6 7.73438 6 7.5C6 6.67188 6.67188 6 7.5 6C7.73438 6 7.95625 6.05313 8.15312 6.15C8.86875 5.67813 9.675 5.33438 10.5406 5.15313C10.6969 4.49063 11.2906 4 12 4C12.7094 4 13.3031 4.49063 13.4594 5.15313ZM13.5 12C13.5 12.3625 13.3719 12.6969 13.1562 12.9563L15.9312 18.9344C16.0375 19.1656 16.0219 19.4375 15.8844 19.6531C15.7469 19.8687 15.5094 20 15.2531 20H8.75C8.49375 20 8.25625 19.8687 8.11875 19.6531C7.98125 19.4375 7.9625 19.1656 8.07188 18.9344L10.8438 12.9563C10.6281 12.6969 10.5 12.3625 10.5 12C10.5 11.1719 11.1719 10.5 12 10.5C12.8281 10.5 13.5 11.1719 13.5 12Z" fill="black"/>
</svg>
