<svg width="24" height="24" viewBox="0 0 24 24" fill="none" xmlns="http://www.w3.org/2000/svg">
<path d="M6.7063 4.29376C6.31567 3.90314 5.68442 3.90314 5.2938 4.29376C4.90317 4.68439 4.90317 5.31876 5.2938 5.70939L7.83442 8.25001L4.9563 11.1281C3.78442 12.3 3.78442 14.2 4.9563 15.3719L8.62817 19.0438C9.80005 20.2156 11.7 20.2156 12.8719 19.0438L18.8219 13.0906C19.7 12.2125 19.7 10.7875 18.8219 9.90939L14.0907 5.17814C13.2125 4.30001 11.7875 4.30001 10.9094 5.17814L9.25005 6.83439L6.7063 4.29376ZM9.25005 9.66564L10.7938 11.2094C11.1844 11.6 11.8188 11.6 12.2094 11.2094C12.6 10.8188 12.6 10.1844 12.2094 9.79376L10.6657 8.25001L12.325 6.59064C12.4219 6.49376 12.5813 6.49376 12.6782 6.59064L17.4094 11.3219C17.5063 11.4188 17.5063 11.5781 17.4094 11.675L16.0844 13H6.10942C6.15317 12.8313 6.24067 12.675 6.37192 12.5438L9.25005 9.66564Z" fill="black"/>
</svg>
