<svg width="24" height="24" viewBox="0 0 24 24" fill="none" xmlns="http://www.w3.org/2000/svg">
<path d="M14 4H10H9C8.44688 4 8 4.44687 8 5C8 5.55313 8.44688 6 9 6V10.15C9 10.5188 8.89687 10.8844 8.70312 11.1969L5.32188 16.6938C5.1125 17.0375 5 17.4281 5 17.8313C5 19.0281 5.97188 20 7.16875 20H16.8313C18.0281 20 19 19.0281 19 17.8313C19 17.4313 18.8875 17.0375 18.6781 16.6938L15.2969 11.2C15.1031 10.8844 15 10.5219 15 10.1531V6C15.5531 6 16 5.55313 16 5C16 4.44687 15.5531 4 15 4H14ZM11 10.15V6H13V10.15C13 10.8906 13.2063 11.6156 13.5938 12.2469L14.6719 14H9.32812L10.4062 12.2469C10.7937 11.6156 11 10.8906 11 10.15Z" fill="black"/>
</svg>
