<svg width="24" height="24" viewBox="0 0 24 24" fill="none" xmlns="http://www.w3.org/2000/svg">
<path d="M19.1437 15.6062C17.8249 18.2125 15.1218 20 11.9999 20C8.87803 20 6.1749 18.2125 4.85615 15.6062C4.99678 15.5156 5.12803 15.4094 5.25303 15.2844C5.50615 15.0312 5.66553 14.7031 5.76865 14.4531C5.88115 14.1781 5.97178 13.8781 6.04365 13.5938C6.1874 13.025 6.28428 12.4375 6.33428 12.0875C6.45615 11.2594 5.74678 10.55 4.92178 10.6687C4.70928 10.6969 4.41553 10.7438 4.09053 10.8063C4.66553 6.95312 7.9874 4 11.9999 4C16.0124 4 19.3343 6.95312 19.9124 10.8031C19.5905 10.7406 19.2936 10.6937 19.0812 10.6656C18.253 10.5438 17.5436 11.2531 17.6686 12.0844C17.7186 12.4375 17.8124 13.0219 17.9593 13.5906C18.0312 13.875 18.1218 14.1781 18.2343 14.45C18.3374 14.7031 18.4968 15.0281 18.7499 15.2812C18.8718 15.4031 19.0062 15.5125 19.1468 15.6031L19.1437 15.6062ZM5.34365 11.9406C5.24678 12.6125 4.9874 14.1344 4.54678 14.5781C4.51865 14.6094 4.4874 14.6344 4.45615 14.6625C3.8749 15.1469 2.9999 15.1094 2.44678 14.5531C1.8624 13.9688 1.8499 13.0281 2.4249 12.4531C2.69365 12.1844 3.36553 11.9812 4.00303 11.8406C4.40928 11.7531 4.7999 11.6906 5.0624 11.6531C5.23115 11.6281 5.37178 11.7687 5.34365 11.9344V11.9406ZM19.5468 14.6625C19.5218 14.6438 19.4999 14.6219 19.4749 14.6C19.4687 14.5938 19.4593 14.5875 19.453 14.5781C19.0124 14.1375 18.7499 12.6125 18.6562 11.9406C18.6312 11.7719 18.7718 11.6313 18.9374 11.6594C18.9687 11.6625 19.0062 11.6688 19.0405 11.675C19.2968 11.7125 19.6405 11.7688 19.9968 11.8469C20.6343 11.9844 21.3062 12.1875 21.5749 12.4594C22.1499 13.0344 22.1374 13.975 21.553 14.5594C20.9999 15.1125 20.1249 15.1531 19.5468 14.6656V14.6625ZM16.7311 14.3594C16.8874 13.9906 16.5124 13.6562 16.128 13.775C14.8874 14.1562 13.4874 14.3687 12.0093 14.3687C10.5311 14.3687 9.13115 14.1562 7.89053 13.775C7.50615 13.6562 7.13115 13.9906 7.2874 14.3594C8.06865 16.2063 9.8874 17.5 12.0093 17.5C14.1311 17.5 15.953 16.2063 16.7311 14.3594ZM10.7999 11.15C10.8655 11.2375 10.978 11.2719 11.078 11.2375C11.178 11.2031 11.2499 11.1094 11.2499 11C11.2499 10.4406 11.0405 9.8875 10.7311 9.475C10.4249 9.06875 9.98428 8.75 9.4999 8.75C9.01553 8.75 8.5749 9.06875 8.26865 9.475C7.95928 9.8875 7.7499 10.4406 7.7499 11C7.7499 11.1062 7.81865 11.2031 7.92178 11.2375C8.0249 11.2719 8.1374 11.2375 8.1999 11.15L8.20615 11.1438C8.2124 11.1375 8.21865 11.1281 8.22803 11.1156C8.24678 11.0906 8.27803 11.0531 8.31553 11.0094C8.39365 10.9219 8.50303 10.8031 8.63428 10.6875C8.90928 10.4437 9.22178 10.25 9.4999 10.25C9.77803 10.25 10.0905 10.4437 10.3655 10.6875C10.4968 10.8031 10.6061 10.9219 10.6843 11.0094C10.7218 11.0531 10.753 11.0906 10.7718 11.1156C10.7811 11.1281 10.7905 11.1375 10.7936 11.1438L10.7999 11.15ZM15.7999 11.15C15.8655 11.2375 15.978 11.2719 16.078 11.2375C16.178 11.2031 16.2499 11.1094 16.2499 11C16.2499 10.4406 16.0405 9.8875 15.7311 9.475C15.4249 9.06875 14.9843 8.75 14.4999 8.75C14.0155 8.75 13.5749 9.06875 13.2687 9.475C12.9593 9.8875 12.7499 10.4406 12.7499 11C12.7499 11.1062 12.8187 11.2031 12.9218 11.2375C13.0249 11.2719 13.1374 11.2375 13.1999 11.15L13.2062 11.1438C13.2124 11.1375 13.2186 11.1281 13.228 11.1156C13.2468 11.0906 13.278 11.0531 13.3155 11.0094C13.3937 10.9219 13.503 10.8031 13.6343 10.6875C13.9093 10.4437 14.2218 10.25 14.4999 10.25C14.778 10.25 15.0905 10.4437 15.3655 10.6875C15.4968 10.8031 15.6061 10.9219 15.6843 11.0094C15.7218 11.0531 15.753 11.0906 15.7718 11.1156C15.7811 11.1281 15.7905 11.1375 15.7936 11.1438L15.7999 11.15Z" fill="black"/>
</svg>
