<svg width="24" height="24" viewBox="0 0 24 24" fill="none" xmlns="http://www.w3.org/2000/svg">
<path d="M4.575 17.9062C4.925 18.0718 5.34063 18.0187 5.64062 17.7687L11 13.3031V16.9999C11 17.3874 11.225 17.7406 11.575 17.9062C11.925 18.0718 12.3406 18.0187 12.6406 17.7687L18 13.3031V16.9999C18 17.5531 18.4469 17.9999 19 17.9999C19.5531 17.9999 20 17.5531 20 16.9999V6.99994C20 6.44681 19.5531 5.99994 19 5.99994C18.4469 5.99994 18 6.44681 18 6.99994V10.6968L12.6406 6.23119C12.3438 5.98431 11.9281 5.92806 11.575 6.09369C11.2219 6.25931 11 6.61244 11 6.99994V10.6968L5.64062 6.23119C5.34375 5.98431 4.92813 5.92806 4.575 6.09369C4.22187 6.25931 4 6.61244 4 6.99994V16.9999C4 17.3874 4.225 17.7406 4.575 17.9062Z" fill="black"/>
</svg>
