<svg width="24" height="24" viewBox="0 0 24 24" fill="none" xmlns="http://www.w3.org/2000/svg">
<path d="M15 19.4187C14.075 19.7937 13.0594 20 12 20C10.9406 20 9.925 19.7937 9 19.4187V13C9 12.725 8.775 12.5 8.5 12.5C8.225 12.5 8 12.725 8 13V18.9312C5.60938 17.5469 4 14.9625 4 12C4 7.58125 7.58125 4 12 4C16.4187 4 20 7.58125 20 12C20 14.9625 18.3906 17.5469 16 18.9312V13C16 12.725 15.775 12.5 15.5 12.5C15.225 12.5 15 12.725 15 13V19.4187ZM10.1 11.3C10.2656 11.5219 10.5781 11.5656 10.8 11.4C11.0219 11.2344 11.0656 10.9219 10.9 10.7C9.95 9.43437 8.05 9.43437 7.1 10.7C6.93437 10.9219 6.97813 11.2344 7.2 11.4C7.42188 11.5656 7.73438 11.5219 7.9 11.3C8.45 10.5656 9.55 10.5656 10.1 11.3ZM13.9 11.3C14.45 10.5656 15.55 10.5656 16.1 11.3C16.2656 11.5219 16.5781 11.5656 16.8 11.4C17.0219 11.2344 17.0656 10.9219 16.9 10.7C15.95 9.43437 14.05 9.43437 13.1 10.7C12.9344 10.9219 12.9781 11.2344 13.2 11.4C13.4219 11.5656 13.7344 11.5219 13.9 11.3ZM10.5 14.5V15.5C10.5 16.3281 11.1719 17 12 17C12.8281 17 13.5 16.3281 13.5 15.5V14.5C13.5 13.6719 12.8281 13 12 13C11.1719 13 10.5 13.6719 10.5 14.5Z" fill="black"/>
</svg>
