<svg width="24" height="24" viewBox="0 0 24 24" fill="none" xmlns="http://www.w3.org/2000/svg">
<path d="M4 12C4 9.87827 4.84285 7.84344 6.34315 6.34315C7.84344 4.84285 9.87827 4 12 4C14.1217 4 16.1566 4.84285 17.6569 6.34315C19.1571 7.84344 20 9.87827 20 12C20 14.1217 19.1571 16.1566 17.6569 17.6569C16.1566 19.1571 14.1217 20 12 20C9.87827 20 7.84344 19.1571 6.34315 17.6569C4.84285 16.1566 4 14.1217 4 12ZM8.42188 14.1219C8.2125 14.3031 8.19062 14.6187 8.37187 14.8281C9.06562 15.6313 10.2781 16.5 12 16.5C12.275 16.5 12.5 16.275 12.5 16C12.5 15.725 12.275 15.5 12 15.5C10.6438 15.5 9.6875 14.8188 9.12813 14.1719C8.94688 13.9625 8.63125 13.9406 8.42188 14.1219ZM15 17C15.8281 17 16.5 16.3438 16.5 15.5312C16.5 14.9062 15.6062 13.6437 15.2 13.1031C15.1 12.9656 14.9 12.9656 14.8 13.1031C14.3875 13.6437 13.5 14.9062 13.5 15.5312C13.5 16.3438 14.1719 17 15 17ZM10.5125 10.5C10.5125 10.2348 10.4071 9.98043 10.2196 9.79289C10.0321 9.60536 9.77772 9.5 9.5125 9.5C9.24728 9.5 8.99293 9.60536 8.80539 9.79289C8.61786 9.98043 8.5125 10.2348 8.5125 10.5C8.5125 10.7652 8.61786 11.0196 8.80539 11.2071C8.99293 11.3946 9.24728 11.5 9.5125 11.5C9.77772 11.5 10.0321 11.3946 10.2196 11.2071C10.4071 11.0196 10.5125 10.7652 10.5125 10.5ZM14.5125 11.5C14.7777 11.5 15.0321 11.3946 15.2196 11.2071C15.4071 11.0196 15.5125 10.7652 15.5125 10.5C15.5125 10.2348 15.4071 9.98043 15.2196 9.79289C15.0321 9.60536 14.7777 9.5 14.5125 9.5C14.2473 9.5 13.9929 9.60536 13.8054 9.79289C13.6179 9.98043 13.5125 10.2348 13.5125 10.5C13.5125 10.7652 13.6179 11.0196 13.8054 11.2071C13.9929 11.3946 14.2473 11.5 14.5125 11.5Z" fill="black"/>
</svg>
