<svg width="24" height="24" viewBox="0 0 24 24" fill="none" xmlns="http://www.w3.org/2000/svg">
<path d="M8.64062 17.7688C8.34375 18.0157 7.92813 18.0719 7.575 17.9063C7.22187 17.7407 7 17.3876 7 17.0001V7.00006C7 6.61256 7.225 6.25943 7.575 6.09381C7.925 5.92818 8.34063 5.98131 8.64062 6.23131L14.6406 11.2313L15 11.5313V7.00006C15 6.44693 15.4469 6.00006 16 6.00006C16.5531 6.00006 17 6.44693 17 7.00006V17.0001C17 17.5532 16.5531 18.0001 16 18.0001C15.4469 18.0001 15 17.5532 15 17.0001V12.4688L14.6406 12.7688L8.64062 17.7688Z" fill="black"/>
</svg>
