<svg width="24" height="24" viewBox="0 0 24 24" fill="none" xmlns="http://www.w3.org/2000/svg">
<path d="M12 20C14.1217 20 16.1566 19.1571 17.6569 17.6569C19.1571 16.1566 20 14.1217 20 12C20 9.87827 19.1571 7.84344 17.6569 6.34315C16.1566 4.84285 14.1217 4 12 4C9.87827 4 7.84344 4.84285 6.34315 6.34315C4.84285 7.84344 4 9.87827 4 12C4 14.1217 4.84285 16.1566 6.34315 17.6569C7.84344 19.1571 9.87827 20 12 20ZM9.34688 16.3625L9.3125 16.3906C9.09688 16.5625 8.78125 16.5281 8.60938 16.3125C8.4375 16.0969 8.47188 15.7812 8.6875 15.6094L8.72188 15.5813C10.4062 14.2344 12.5 13.5 14.6562 13.5H15C15.275 13.5 15.5 13.725 15.5 14C15.5 14.275 15.275 14.5 15 14.5H14.6562C12.725 14.5 10.8531 15.1562 9.34688 16.3625ZM8.5125 10.5C8.5125 10.2348 8.61786 9.98043 8.80539 9.79289C8.99293 9.60536 9.24728 9.5 9.5125 9.5C9.77772 9.5 10.0321 9.60536 10.2196 9.79289C10.4071 9.98043 10.5125 10.2348 10.5125 10.5C10.5125 10.7652 10.4071 11.0196 10.2196 11.2071C10.0321 11.3946 9.77772 11.5 9.5125 11.5C9.24728 11.5 8.99293 11.3946 8.80539 11.2071C8.61786 11.0196 8.5125 10.7652 8.5125 10.5ZM14.5125 9.5C14.7777 9.5 15.0321 9.60536 15.2196 9.79289C15.4071 9.98043 15.5125 10.2348 15.5125 10.5C15.5125 10.7652 15.4071 11.0196 15.2196 11.2071C15.0321 11.3946 14.7777 11.5 14.5125 11.5C14.2473 11.5 13.9929 11.3946 13.8054 11.2071C13.6179 11.0196 13.5125 10.7652 13.5125 10.5C13.5125 10.2348 13.6179 9.98043 13.8054 9.79289C13.9929 9.60536 14.2473 9.5 14.5125 9.5Z" fill="black"/>
</svg>
