<svg width="24" height="24" viewBox="0 0 24 24" fill="none" xmlns="http://www.w3.org/2000/svg">
<path d="M12 20C14.1217 20 16.1566 19.1571 17.6569 17.6569C19.1571 16.1566 20 14.1217 20 12C20 9.87827 19.1571 7.84344 17.6569 6.34315C16.1566 4.84285 14.1217 4 12 4C9.87827 4 7.84344 4.84285 6.34315 6.34315C4.84285 7.84344 4 9.87827 4 12C4 14.1217 4.84285 16.1566 6.34315 17.6569C7.84344 19.1571 9.87827 20 12 20ZM7.025 13.8156C6.90625 13.3875 7.25625 13 7.7 13H16.3C16.7438 13 17.0969 13.3875 16.975 13.8156C16.3813 15.9375 14.3781 17.5 12 17.5C9.62188 17.5 7.61875 15.9375 7.025 13.8156ZM8.5125 10C8.5125 9.73478 8.61786 9.48043 8.80539 9.29289C8.99293 9.10536 9.24728 9 9.5125 9C9.77772 9 10.0321 9.10536 10.2196 9.29289C10.4071 9.48043 10.5125 9.73478 10.5125 10C10.5125 10.2652 10.4071 10.5196 10.2196 10.7071C10.0321 10.8946 9.77772 11 9.5125 11C9.24728 11 8.99293 10.8946 8.80539 10.7071C8.61786 10.5196 8.5125 10.2652 8.5125 10ZM13.4 10.8C13.2344 11.0219 12.9219 11.0656 12.7 10.9C12.4781 10.7344 12.4344 10.4219 12.6 10.2C13.55 8.93437 15.45 8.93437 16.4 10.2C16.5656 10.4219 16.5219 10.7344 16.3 10.9C16.0781 11.0656 15.7656 11.0219 15.6 10.8C15.05 10.0656 13.95 10.0656 13.4 10.8Z" fill="black"/>
</svg>
