<svg width="24" height="24" viewBox="0 0 24 24" fill="none" xmlns="http://www.w3.org/2000/svg">
<path d="M10.0656 5.82811C10.5187 5.52186 10.6406 4.90936 10.3406 4.45311C10.3375 4.44999 10.3343 4.44374 10.3312 4.44061C10.0218 3.98124 9.39997 3.86249 8.94372 4.17186L3.09684 8.14061C1.71247 9.08124 1.62497 11.0906 2.92184 12.1469L2.96872 12.1844C3.55934 12.6656 4.31872 12.8375 5.03122 12.7C5.16872 12.6719 5.30622 12.6344 5.44059 12.5812C5.44997 12.5781 5.46247 12.5719 5.47184 12.5687C5.48747 12.5625 5.50309 12.5562 5.51872 12.55C5.69372 12.4781 5.85934 12.3812 6.01872 12.2687L8.59059 10.3969C9.03747 10.0719 9.13747 9.44686 8.81247 8.99999C8.66247 8.79061 8.44372 8.65936 8.20934 8.60936C8.09997 8.58749 7.98434 8.58124 7.87184 8.59686C7.71247 8.61874 7.55622 8.67811 7.41559 8.77811L5.99997 9.80624V8.58749L6.85309 8.00936L7.26247 7.73124L10.0656 5.82811ZM13 3.99999C12.425 3.99999 11.8656 4.05936 11.3281 4.17499C11.7218 5.04686 11.4468 6.09999 10.6281 6.65624L8.92184 7.81249C9.19059 7.94999 9.43122 8.15311 9.61872 8.41249C9.88747 8.78436 10.0125 9.21561 9.99997 9.64061C10.15 9.55311 10.325 9.49999 10.5093 9.49999C11.0625 9.49999 11.5093 9.94686 11.5093 10.5C11.5093 11.0531 11.0625 11.5 10.5093 11.5C10.075 11.5 9.70309 11.2219 9.56559 10.8312C9.45622 10.9687 9.32497 11.0969 9.17497 11.2062L6.60309 13.0781C6.16872 13.3937 5.68122 13.5969 5.17809 13.6906C5.95309 17.2969 9.15934 20 13 20C17.4187 20 21 16.4187 21 12C21 7.58124 17.4187 3.99999 13 3.99999ZM10.0437 14.6562C10.5906 15.05 11.5718 15.5 13 15.5C14.4281 15.5 15.4125 15.05 15.9562 14.6562C16.1812 14.4937 16.4937 14.5469 16.6531 14.7687C16.8125 14.9906 16.7625 15.3062 16.5406 15.4656C15.8312 15.9781 14.6437 16.4969 12.9968 16.4969C11.35 16.4969 10.1656 15.9781 9.45309 15.4656C9.22809 15.3031 9.17809 14.9906 9.34059 14.7687C9.50309 14.5469 9.81559 14.4937 10.0375 14.6562H10.0437ZM15.5125 9.49999C15.7777 9.49999 16.032 9.60535 16.2196 9.79288C16.4071 9.98042 16.5125 10.2348 16.5125 10.5C16.5125 10.7652 16.4071 11.0196 16.2196 11.2071C16.032 11.3946 15.7777 11.5 15.5125 11.5C15.2472 11.5 14.9929 11.3946 14.8054 11.2071C14.6178 11.0196 14.5125 10.7652 14.5125 10.5C14.5125 10.2348 14.6178 9.98042 14.8054 9.79288C14.9929 9.60535 15.2472 9.49999 15.5125 9.49999Z" fill="black"/>
</svg>
