<svg width="24" height="24" viewBox="0 0 24 24" fill="none" xmlns="http://www.w3.org/2000/svg">
<path d="M11 4H7H6C5.44688 4 5 4.44687 5 5C5 5.55313 5.44688 6 6 6V10.15C6 10.5188 5.89687 10.8844 5.70312 11.1969L2.32188 16.6938C2.1125 17.0375 2 17.4281 2 17.8313C2 19.0281 2.97188 20 4.16875 20H13.8313C14.1625 20 14.4781 19.925 14.7594 19.7937C14.6719 19.6 14.6281 19.3906 14.6281 19.1781V19.15C14.0781 19.4531 13.3313 19.4031 12.8406 18.8781C12.5531 18.5688 12.2969 18.225 12.0781 17.8469C11.8594 17.4688 11.6875 17.075 11.5656 16.6719C11.3562 15.9969 11.6719 15.3375 12.1906 15.0063L12.1844 15H5.71563L7.40625 12.2469C7.79375 11.6156 8 10.8906 8 10.15V6H10V10.15C10 10.8906 10.2063 11.6156 10.5938 12.2469L11.5 13.7188C11.5031 13.5938 11.525 13.4656 11.5625 13.3375C11.6875 12.9344 11.8562 12.5406 12.075 12.1625C12.2031 11.9406 12.3469 11.7281 12.5 11.5281L12.2969 11.1969C12.1031 10.8812 12 10.5188 12 10.15V6C12.5531 6 13 5.55313 13 5C13 4.44687 12.5531 4 12 4H11ZM15.625 10.8187V11.3625C15.625 11.6094 15.4719 11.8313 15.2594 11.9531C15.0469 12.075 14.7844 12.0938 14.5719 11.9719L14.1469 11.7281C13.9563 11.6188 13.7188 11.6437 13.5688 11.8031C13.3344 12.0562 13.1219 12.3406 12.9406 12.6531C12.7594 12.9656 12.6188 13.2906 12.5188 13.6219C12.4531 13.8313 12.5531 14.05 12.7437 14.1594L13.1812 14.4125C13.3844 14.5312 13.4969 14.7562 13.4969 14.9937C13.4969 15.2312 13.3875 15.4563 13.1812 15.575L12.7437 15.8281C12.5531 15.9375 12.4563 16.1562 12.5188 16.3656C12.6219 16.6969 12.7625 17.0219 12.9406 17.3344C13.1188 17.6469 13.3313 17.9312 13.5688 18.1844C13.7188 18.3438 13.9594 18.3687 14.1469 18.2594L14.5688 18.0156C14.7812 17.8938 15.0438 17.9125 15.2563 18.0344C15.4719 18.1562 15.6219 18.3781 15.6219 18.625V19.1687C15.6219 19.3875 15.7625 19.5844 15.975 19.6313C16.3031 19.7063 16.6469 19.7469 16.9969 19.7469C17.3469 19.7469 17.6906 19.7063 18.0187 19.6313C18.2312 19.5844 18.3719 19.3875 18.3719 19.1687V18.6094C18.3719 18.3656 18.5219 18.1469 18.7344 18.025C18.9438 17.9031 19.2062 17.8844 19.4156 18.0063L19.8469 18.2531C20.0375 18.3625 20.275 18.3375 20.425 18.1781C20.6625 17.925 20.8719 17.6406 21.0531 17.3281C21.2344 17.0156 21.375 16.6906 21.475 16.3594C21.5406 16.15 21.4406 15.9312 21.25 15.8219L20.8 15.5625C20.5969 15.4469 20.4875 15.2219 20.4875 14.9875C20.4875 14.7531 20.5969 14.5281 20.8 14.4125L21.25 14.1531C21.4406 14.0437 21.5375 13.825 21.475 13.6156C21.3719 13.2844 21.2313 12.9594 21.0531 12.6469C20.875 12.3344 20.6625 12.05 20.425 11.7969C20.275 11.6375 20.0344 11.6125 19.8469 11.7219L19.4156 11.9688C19.2062 12.0906 18.9438 12.0719 18.7344 11.95C18.5219 11.8281 18.3719 11.6094 18.3719 11.3656V10.8187C18.3719 10.6 18.2312 10.4031 18.0187 10.3562C17.6906 10.2812 17.3469 10.2406 16.9969 10.2406C16.6469 10.2406 16.3031 10.2812 15.975 10.3562C15.7625 10.4031 15.6219 10.6 15.6219 10.8187H15.625ZM15.4969 14.9906C15.4876 14.7877 15.5196 14.585 15.5909 14.3947C15.6622 14.2045 15.7713 14.0306 15.9116 13.8837C16.052 13.7368 16.2206 13.6199 16.4074 13.54C16.5942 13.4602 16.7953 13.419 16.9984 13.419C17.2016 13.419 17.4027 13.4602 17.5895 13.54C17.7763 13.6199 17.9449 13.7368 18.0853 13.8837C18.2256 14.0306 18.3347 14.2045 18.406 14.3947C18.4773 14.585 18.5093 14.7877 18.5 14.9906C18.5093 15.1936 18.4773 15.3963 18.406 15.5865C18.3347 15.7768 18.2256 15.9506 18.0853 16.0975C17.9449 16.2444 17.7763 16.3613 17.5895 16.4412C17.4027 16.5211 17.2016 16.5623 16.9984 16.5623C16.7953 16.5623 16.5942 16.5211 16.4074 16.4412C16.2206 16.3613 16.052 16.2444 15.9116 16.0975C15.7713 15.9506 15.6622 15.7768 15.5909 15.5865C15.5196 15.3963 15.4876 15.1936 15.4969 14.9906Z" fill="black"/>
</svg>
