<svg width="24" height="24" viewBox="0 0 24 24" fill="none" xmlns="http://www.w3.org/2000/svg">
<path d="M11.5063 4.125C11.1063 3.90625 10.6094 3.98438 10.2969 4.31563L8.83127 5.87188C8.68752 6.025 8.50314 6.12813 8.29689 6.16875L6.20002 6.58438C5.75314 6.67188 5.42189 7.05313 5.39689 7.50938L5.27814 9.64375C5.26564 9.85313 5.19064 10.05 5.05939 10.2125L3.72189 11.8781C3.43752 12.2344 3.42814 12.7375 3.70002 13.1031L4.97814 14.8156C5.10314 14.9813 5.17189 15.1844 5.17814 15.3938L5.20627 16.6813C5.28752 16.5281 5.39064 16.3875 5.51564 16.2656L7.26252 14.5188C6.78439 13.8844 6.50002 13.1 6.50002 12.25C6.50002 10.1781 8.17814 8.5 10.25 8.5C11.1 8.5 11.8844 8.78438 12.5156 9.25938L16.2625 5.5125C16.4063 5.36875 16.575 5.25313 16.7563 5.16563C16.5656 5.04375 16.3375 4.9875 16.1 5.01563L13.9781 5.26875C13.7719 5.29375 13.5625 5.25313 13.3781 5.15313L11.5063 4.125ZM7.97814 13.7969L11.7969 9.97813C11.3563 9.675 10.825 9.5 10.25 9.5C8.73127 9.5 7.50002 10.7313 7.50002 12.25C7.50002 12.825 7.67502 13.3563 7.97814 13.7969ZM18.0875 6.28438C17.9531 6.11563 17.7563 6.01563 17.5438 6.00313C17.3313 5.99063 17.1219 6.07188 16.9719 6.22188L15.6281 7.56563L14.2844 8.90938L11.5969 11.5969L8.90939 14.2844L6.22189 16.9719C6.07189 17.1219 5.99064 17.3313 6.00314 17.5438C6.01564 17.7563 6.11877 17.9563 6.28439 18.0875C7.71252 19.2219 9.47814 20 11.5 20C16.1938 20 20 16.1938 20 11.5C20 9.47813 19.2219 7.7125 18.0875 6.28438ZM11 17.5C11 17.3674 11.0527 17.2402 11.1465 17.1464C11.2402 17.0527 11.3674 17 11.5 17C11.6326 17 11.7598 17.0527 11.8536 17.1464C11.9473 17.2402 12 17.3674 12 17.5C12 17.6326 11.9473 17.7598 11.8536 17.8536C11.7598 17.9473 11.6326 18 11.5 18C11.3674 18 11.2402 17.9473 11.1465 17.8536C11.0527 17.7598 11 17.6326 11 17.5ZM13.5 17C13.6326 17 13.7598 17.0527 13.8536 17.1464C13.9473 17.2402 14 17.3674 14 17.5C14 17.6326 13.9473 17.7598 13.8536 17.8536C13.7598 17.9473 13.6326 18 13.5 18C13.3674 18 13.2402 17.9473 13.1465 17.8536C13.0527 17.7598 13 17.6326 13 17.5C13 17.3674 13.0527 17.2402 13.1465 17.1464C13.2402 17.0527 13.3674 17 13.5 17ZM12 15.5C12 15.3674 12.0527 15.2402 12.1465 15.1464C12.2402 15.0527 12.3674 15 12.5 15C12.6326 15 12.7598 15.0527 12.8536 15.1464C12.9473 15.2402 13 15.3674 13 15.5C13 15.6326 12.9473 15.7598 12.8536 15.8536C12.7598 15.9473 12.6326 16 12.5 16C12.3674 16 12.2402 15.9473 12.1465 15.8536C12.0527 15.7598 12 15.6326 12 15.5Z" fill="black"/>
</svg>
