<svg width="24" height="24" viewBox="0 0 24 24" fill="none" xmlns="http://www.w3.org/2000/svg">
<path d="M8 4C6.89688 4 6 4.89688 6 6V18C6 19.1031 6.89688 20 8 20H16C17.1031 20 18 19.1031 18 18V9H14C13.4469 9 13 8.55313 13 8V4H8ZM14 4V8H18L14 4ZM10.8656 11.8187L12 13.4406L13.1344 11.8187C13.3719 11.4781 13.8406 11.3969 14.1781 11.6344C14.5156 11.8719 14.6 12.3406 14.3625 12.6781L12.9156 14.75L14.3656 16.8188C14.6031 17.1594 14.5219 17.625 14.1812 17.8625C13.8406 18.1 13.375 18.0188 13.1375 17.6781L12 16.0562L10.8656 17.6781C10.6281 18.0188 10.1594 18.1 9.82188 17.8625C9.48438 17.625 9.4 17.1563 9.6375 16.8188L11.0844 14.75L9.63438 12.6812C9.39688 12.3406 9.47812 11.875 9.81875 11.6375C10.1594 11.4 10.625 11.4813 10.8625 11.8219L10.8656 11.8187Z" fill="black"/>
</svg>
