<svg width="24" height="24" viewBox="0 0 24 24" fill="none" xmlns="http://www.w3.org/2000/svg">
<path d="M12 20C14.1217 20 16.1566 19.1571 17.6569 17.6569C19.1571 16.1566 20 14.1217 20 12C20 9.87827 19.1571 7.84344 17.6569 6.34315C16.1566 4.84285 14.1217 4 12 4C9.87827 4 7.84344 4.84285 6.34315 6.34315C4.84285 7.84344 4 9.87827 4 12C4 14.1217 4.84285 16.1566 6.34315 17.6569C7.84344 19.1571 9.87827 20 12 20ZM9.14687 14.2719C9.83437 13.5844 10.8312 13 12 13C13.1688 13 14.1656 13.5844 14.8531 14.2719C15.2 14.6188 15.4813 15.0031 15.6781 15.3781C15.8719 15.7438 16 16.1406 16 16.5C16 16.6625 15.9188 16.8188 15.7844 16.9125C15.65 17.0063 15.4781 17.0281 15.325 16.9688L14.6844 16.7281C13.8437 16.4125 12.95 16.25 12.05 16.25H11.95C11.05 16.25 10.1594 16.4125 9.31563 16.7281L8.675 16.9688C8.52188 17.025 8.35 17.0063 8.21562 16.9125C8.08125 16.8188 8 16.6656 8 16.5C8 16.1375 8.13125 15.7438 8.32188 15.3781C8.51875 15.0031 8.8 14.6188 9.14687 14.2719ZM8.17188 8.58437L10.9812 10.0813C11.3156 10.2594 11.3156 10.7406 10.9812 10.9187L8.17188 12.4156C7.925 12.5469 7.625 12.3687 7.625 12.0875C7.625 12 7.65625 11.9156 7.7125 11.85L8.8375 10.5L7.7125 9.15C7.65625 9.08438 7.625 9 7.625 8.9125C7.625 8.63125 7.925 8.45312 8.17188 8.58437ZM16.375 8.90938C16.375 8.99688 16.3438 9.08125 16.2875 9.14687L15.1625 10.4969L16.2875 11.8469C16.3438 11.9125 16.375 11.9969 16.375 12.0844C16.375 12.3656 16.075 12.5438 15.8281 12.4125L13.0188 10.9156C12.6844 10.7375 12.6844 10.2562 13.0188 10.0781L15.8281 8.58125C16.075 8.45 16.375 8.62813 16.375 8.90938Z" fill="black"/>
</svg>
