<svg width="24" height="24" viewBox="0 0 24 24" fill="none" xmlns="http://www.w3.org/2000/svg">
<path d="M19 16C20.1031 16 21 15.1031 21 14V9C21 7.89688 20.1031 7 19 7H15.3281C14.7969 7 14.2875 6.79063 13.9125 6.41563L13.0844 5.58438C12.7094 5.20938 12.2 5 11.6687 5H8C6.89688 5 6 5.89688 6 7V14C6 15.1031 6.89688 16 8 16H19ZM4.5 7.75C4.5 7.33437 4.16563 7 3.75 7C3.33437 7 3 7.33437 3 7.75V14.75C3 17.0969 4.90313 19 7.25 19H17.25C17.6656 19 18 18.6656 18 18.25C18 17.8344 17.6656 17.5 17.25 17.5H7.25C5.73125 17.5 4.5 16.2687 4.5 14.75V7.75Z" fill="black"/>
</svg>
