<svg width="24" height="24" viewBox="0 0 24 24" fill="none" xmlns="http://www.w3.org/2000/svg">
<path d="M17 10C17 9.0063 16.5156 7.37505 14.675 5.55005C14.3063 5.18442 13.7187 5.21567 13.3531 5.5813L13 5.93442L11.5625 4.49692C11.3719 4.3063 11.1219 4.2063 10.875 4.20942C10.6906 4.21255 10.5063 4.2688 10.35 4.39067C8.95313 5.47817 7 7.60317 7 10C7 10.9469 7.2625 11.8313 7.71875 12.5844C7.85938 12.6625 7.99375 12.75 8.12187 12.8438C8.62187 12.2313 9.26563 11.7375 10.0031 11.4157C10.0625 10.3063 11.1719 9.20942 11.7125 8.7438C11.8812 8.59692 12.1219 8.59692 12.2906 8.7438C12.8312 9.21255 13.9406 10.3063 14 11.4157C14.7344 11.7375 15.3781 12.2282 15.8813 12.8438C16.0094 12.75 16.1469 12.6657 16.2844 12.5844C16.7406 11.8313 17.0031 10.9469 17.0031 10H17ZM2 16.5C2 18.4344 3.56562 20 5.5 20H12H18.5C20.4344 20 22 18.4344 22 16.5C22 14.5657 20.4344 13 18.5 13C17.3438 13 16.3156 13.5625 15.6781 14.4282C15.0688 13 13.65 12 12 12C10.35 12 8.93125 13 8.32188 14.4282C7.68438 13.5625 6.65625 13 5.5 13C3.56562 13 2 14.5657 2 16.5Z" fill="black"/>
</svg>
