<svg width="24" height="24" viewBox="0 0 24 24" fill="none" xmlns="http://www.w3.org/2000/svg">
<path d="M8 4C6.89688 4 6 4.89688 6 6V18C6 19.1031 6.89688 20 8 20H16C17.1031 20 18 19.1031 18 18V9H14C13.4469 9 13 8.55312 13 8V4H8ZM14 4V8H18L14 4ZM12.75 16.75C12.75 17.1656 12.4156 17.5 12 17.5C11.5844 17.5 11.25 17.1656 11.25 16.75V13.5594L10.2812 14.5281C9.9875 14.8219 9.5125 14.8219 9.22187 14.5281C8.93125 14.2344 8.92812 13.7594 9.22187 13.4688L11.4719 11.2188C11.7656 10.925 12.2406 10.925 12.5312 11.2188L14.7812 13.4688C15.075 13.7625 15.075 14.2375 14.7812 14.5281C14.4875 14.8187 14.0125 14.8219 13.7219 14.5281L12.7531 13.5594V16.75H12.75Z" fill="black"/>
</svg>
