<svg width="24" height="24" viewBox="0 0 24 24" fill="none" xmlns="http://www.w3.org/2000/svg">
<path d="M3.21249 4.15937C2.88749 3.90312 2.41562 3.96249 2.15937 4.28749C1.90312 4.61249 1.96249 5.08437 2.28749 5.34062L20.7875 19.8406C21.1125 20.0969 21.5844 20.0375 21.8406 19.7125C22.0969 19.3875 22.0375 18.9156 21.7125 18.6594L19.9781 17.3C19.9937 17.2031 20 17.1031 20 17V6.99999C20 5.89687 19.1031 4.99999 18 4.99999H5.99999C5.54999 4.99999 5.13124 5.14999 4.79687 5.40312L3.21249 4.15937ZM8.99999 8.69687V7.99999C8.99999 7.44687 9.44687 6.99999 9.99999 6.99999H14C14.5531 6.99999 15 7.44687 15 7.99999V9.99999C15 10.5531 14.5531 11 14 11H11.9406L8.99999 8.69687ZM17.2312 19L14.5125 16.8594C14.3625 16.95 14.1875 17 14 17H9.99999C9.44687 17 8.99999 16.5531 8.99999 16V14C8.99999 13.5594 9.28437 13.1844 9.68124 13.0531L7.45937 11.3031C7.48437 11.3656 7.49999 11.4312 7.49999 11.5031V12.5031C7.49999 12.7781 7.27499 13.0031 6.99999 13.0031H5.99999C5.72499 13.0031 5.49999 12.7781 5.49999 12.5031V11.5C5.49999 11.225 5.72499 11 5.99999 11H6.99999C7.02812 11 7.05937 11.0031 7.08749 11.0062L3.99999 8.57499V17C3.99999 18.1031 4.89687 19 5.99999 19H17.2312ZM5.49999 15.5C5.49999 15.225 5.72499 15 5.99999 15H6.99999C7.27499 15 7.49999 15.225 7.49999 15.5V16.5C7.49999 16.775 7.27499 17 6.99999 17H5.99999C5.72499 17 5.49999 16.775 5.49999 16.5V15.5ZM16.5 11.5C16.5 11.225 16.725 11 17 11H18C18.275 11 18.5 11.225 18.5 11.5V12.5C18.5 12.775 18.275 13 18 13H17C16.725 13 16.5 12.775 16.5 12.5V11.5ZM17 6.99999H18C18.275 6.99999 18.5 7.22499 18.5 7.49999V8.49999C18.5 8.77499 18.275 8.99999 18 8.99999H17C16.725 8.99999 16.5 8.77499 16.5 8.49999V7.49999C16.5 7.22499 16.725 6.99999 17 6.99999Z" fill="black"/>
</svg>
