<svg width="24" height="24" viewBox="0 0 24 24" fill="none" xmlns="http://www.w3.org/2000/svg">
<path d="M15 4H10C8.89688 4 8 4.89688 8 6V15C8 16.1031 8.89688 17 10 17H17C18.1031 17 19 16.1031 19 15V8H16C15.4469 8 15 7.55313 15 7V4ZM19 7L18 6L17 5L16 4V5.41562V6V7H17H17.5844H19ZM6.5 7.75C6.5 7.33437 6.16563 7 5.75 7C5.33437 7 5 7.33437 5 7.75V15.75C5 18.0969 6.90313 20 9.25 20H15.25C15.6656 20 16 19.6656 16 19.25C16 18.8344 15.6656 18.5 15.25 18.5H9.25C7.73125 18.5 6.5 17.2687 6.5 15.75V7.75Z" fill="black"/>
</svg>
