<svg width="24" height="24" viewBox="0 0 24 24" fill="none" xmlns="http://www.w3.org/2000/svg">
<path d="M20 12C20 15.5344 17.7094 18.5344 14.5281 19.5906L16.0594 18.0594C16.625 17.4937 16.6438 16.5875 16.1156 16C16.6438 15.4125 16.625 14.5063 16.0594 13.9406C16.0281 13.9094 15.9938 13.8781 15.9594 13.8469C16.075 13.3562 15.9437 12.8219 15.5594 12.4406C15.175 12.0594 14.6406 11.925 14.1531 12.0406C14.125 12.0062 14.0938 11.9719 14.0594 11.9406C13.475 11.3563 12.525 11.3563 11.9375 11.9406L10.4688 13.4094C10.175 12.9812 9.68437 12.7 9.125 12.7C8.22813 12.7 7.5 13.4281 7.5 14.325V16V17.025C7.5 17.7094 7.67188 18.3531 7.97813 18.9156C5.6 17.5312 4 14.9531 4 12C4 7.58125 7.58125 4 12 4C16.4187 4 20 7.58125 20 12ZM10.8 10.65C10.8656 10.7375 10.9781 10.7719 11.0781 10.7375C11.1781 10.7031 11.25 10.6094 11.25 10.5C11.25 9.94063 11.0406 9.3875 10.7312 8.975C10.425 8.56875 9.98438 8.25 9.5 8.25C9.01562 8.25 8.575 8.56875 8.26875 8.975C7.95938 9.3875 7.75 9.94063 7.75 10.5C7.75 10.6062 7.81875 10.7031 7.92188 10.7375C8.025 10.7719 8.1375 10.7375 8.2 10.65L8.20625 10.6438C8.2125 10.6375 8.21875 10.6281 8.22813 10.6156C8.24688 10.5906 8.27813 10.5531 8.31563 10.5094C8.39375 10.4219 8.50313 10.3031 8.63438 10.1875C8.90938 9.94375 9.22188 9.75 9.5 9.75C9.77812 9.75 10.0906 9.94375 10.3656 10.1875C10.4969 10.3031 10.6062 10.4219 10.6844 10.5094C10.7219 10.5531 10.7531 10.5906 10.7719 10.6156C10.7812 10.6281 10.7906 10.6375 10.7937 10.6438L10.8 10.65ZM15.8 10.65C15.8656 10.7375 15.9781 10.7719 16.0781 10.7375C16.1781 10.7031 16.25 10.6094 16.25 10.5C16.25 9.94063 16.0406 9.3875 15.7312 8.975C15.425 8.56875 14.9844 8.25 14.5 8.25C14.0156 8.25 13.575 8.56875 13.2688 8.975C12.9594 9.3875 12.75 9.94063 12.75 10.5C12.75 10.6062 12.8188 10.7031 12.9219 10.7375C13.025 10.7719 13.1375 10.7375 13.2 10.65L13.2063 10.6438C13.2125 10.6375 13.2188 10.6281 13.2281 10.6156C13.2469 10.5906 13.2781 10.5531 13.3156 10.5094C13.3938 10.4219 13.5031 10.3031 13.6344 10.1875C13.9094 9.94375 14.2219 9.75 14.5 9.75C14.7781 9.75 15.0906 9.94375 15.3656 10.1875C15.4969 10.3031 15.6062 10.4219 15.6844 10.5094C15.7219 10.5531 15.7531 10.5906 15.7719 10.6156C15.7812 10.6281 15.7906 10.6375 15.7937 10.6438L15.8 10.65ZM13.3531 12.6469C13.5469 12.8406 13.5469 13.1594 13.3531 13.3531L11.75 14.9563C11.6687 15.0375 11.6687 15.1687 11.75 15.25C11.8313 15.3313 11.9625 15.3313 12.0437 15.25L14.1469 13.1469C14.3406 12.9531 14.6594 12.9531 14.8531 13.1469C15.0469 13.3406 15.0469 13.6594 14.8531 13.8531L12.75 15.9563C12.6687 16.0375 12.6687 16.1687 12.75 16.25C12.8313 16.3313 12.9625 16.3313 13.0437 16.25L14.6469 14.6469C14.8406 14.4531 15.1594 14.4531 15.3531 14.6469C15.5469 14.8406 15.5469 15.1594 15.3531 15.3531L13.75 16.9563C13.6687 17.0375 13.6687 17.1687 13.75 17.25C13.8313 17.3313 13.9625 17.3313 14.0437 17.25L14.6469 16.6469C14.8406 16.4531 15.1594 16.4531 15.3531 16.6469C15.5469 16.8406 15.5469 17.1594 15.3531 17.3531L13.5781 19.1281C13.0219 19.6875 12.2625 20 11.475 20C9.83125 20 8.5 18.6687 8.5 17.025V16V14.325C8.5 13.9812 8.78125 13.7 9.125 13.7C9.46875 13.7 9.75 13.9812 9.75 14.325V14.9406C9.75 15.1625 10.0187 15.275 10.1781 15.1187L12.6469 12.65C12.8406 12.4562 13.1594 12.4562 13.3531 12.65V12.6469Z" fill="black"/>
</svg>
