<svg width="24" height="24" viewBox="0 0 24 24" fill="none" xmlns="http://www.w3.org/2000/svg">
<path d="M12 20C14.1217 20 16.1566 19.1571 17.6569 17.6569C19.1571 16.1566 20 14.1217 20 12C20 9.87827 19.1571 7.84344 17.6569 6.34315C16.1566 4.84285 14.1217 4 12 4C9.87827 4 7.84344 4.84285 6.34315 6.34315C4.84285 7.84344 4 9.87827 4 12C4 14.1217 4.84285 16.1566 6.34315 17.6569C7.84344 19.1571 9.87827 20 12 20ZM7.025 13.8156C6.90625 13.3875 7.25625 13 7.7 13H16.3C16.7438 13 17.0969 13.3875 16.975 13.8156C16.3813 15.9375 14.3781 17.5 12 17.5C9.62187 17.5 7.61875 15.9375 7.025 13.8156ZM8.17188 7.58437L10.9812 9.08125C11.3156 9.25938 11.3156 9.74062 10.9812 9.91875L8.17188 11.4156C7.925 11.5469 7.625 11.3688 7.625 11.0875C7.625 11 7.65625 10.9156 7.7125 10.85L8.8375 9.5L7.7125 8.15C7.65625 8.08437 7.625 8 7.625 7.9125C7.625 7.63125 7.925 7.45312 8.17188 7.58437ZM16.375 7.90937C16.375 7.99688 16.3438 8.08125 16.2875 8.14687L15.1625 9.49687L16.2875 10.8469C16.3438 10.9125 16.375 10.9969 16.375 11.0844C16.375 11.3656 16.075 11.5437 15.8281 11.4125L13.0188 9.91563C12.6844 9.7375 12.6844 9.25625 13.0188 9.07812L15.8281 7.58125C16.075 7.45 16.375 7.62812 16.375 7.90937Z" fill="black"/>
</svg>
