<svg width="24" height="24" viewBox="0 0 24 24" fill="none" xmlns="http://www.w3.org/2000/svg">
<path d="M3.21243 4.15937C2.88743 3.90312 2.41556 3.96249 2.15931 4.28749C1.90306 4.61249 1.96243 5.08437 2.28743 5.34062L20.7874 19.8406C21.1124 20.0969 21.5843 20.0375 21.8406 19.7125C22.0968 19.3875 22.0374 18.9156 21.7124 18.6594L19.9781 17.3C19.9937 17.2031 19.9999 17.1031 19.9999 17V6.99999C19.9999 5.89687 19.1031 4.99999 17.9999 4.99999H5.99993C5.54993 4.99999 5.13118 5.14999 4.79681 5.40312L3.21243 4.15937ZM8.99993 8.69687V7.99999C8.99993 7.44687 9.44681 6.99999 9.99993 6.99999H13.9999C14.5531 6.99999 14.9999 7.44687 14.9999 7.99999V9.99999C14.9999 10.5531 14.5531 11 13.9999 11H11.9406L8.99993 8.69687ZM17.2312 19L14.5124 16.8594C14.3624 16.95 14.1874 17 13.9999 17H9.99993C9.44681 17 8.99993 16.5531 8.99993 16V14C8.99993 13.5594 9.28431 13.1844 9.68118 13.0531L7.45931 11.3031C7.48431 11.3656 7.49993 11.4312 7.49993 11.5031V12.5031C7.49993 12.7781 7.27493 13.0031 6.99993 13.0031H5.99993C5.72493 13.0031 5.49993 12.7781 5.49993 12.5031V11.5C5.49993 11.225 5.72493 11 5.99993 11H6.99993C7.02806 11 7.05931 11.0031 7.08743 11.0062L3.99993 8.57499V17C3.99993 18.1031 4.89681 19 5.99993 19H17.2312ZM5.49993 15.5C5.49993 15.225 5.72493 15 5.99993 15H6.99993C7.27493 15 7.49993 15.225 7.49993 15.5V16.5C7.49993 16.775 7.27493 17 6.99993 17H5.99993C5.72493 17 5.49993 16.775 5.49993 16.5V15.5ZM16.4999 11.5C16.4999 11.225 16.7249 11 16.9999 11H17.9999C18.2749 11 18.4999 11.225 18.4999 11.5V12.5C18.4999 12.775 18.2749 13 17.9999 13H16.9999C16.7249 13 16.4999 12.775 16.4999 12.5V11.5ZM16.9999 6.99999H17.9999C18.2749 6.99999 18.4999 7.22499 18.4999 7.49999V8.49999C18.4999 8.77499 18.2749 8.99999 17.9999 8.99999H16.9999C16.7249 8.99999 16.4999 8.77499 16.4999 8.49999V7.49999C16.4999 7.22499 16.7249 6.99999 16.9999 6.99999Z" fill="black"/>
</svg>
