<svg width="24" height="24" viewBox="0 0 24 24" fill="none" xmlns="http://www.w3.org/2000/svg">
<path d="M4 6C4 4.89688 4.89688 4 6 4H11V8C11 8.55313 11.4469 9 12 9H16V13.5H9.5C8.39688 13.5 7.5 14.3969 7.5 15.5V20H6C4.89688 20 4 19.1031 4 18V6ZM16 8H12V4L16 8ZM10.25 15H10.75C11.4406 15 12 15.5594 12 16.25V16.5C12 16.775 11.775 17 11.5 17C11.225 17 11 16.775 11 16.5V16.25C11 16.1125 10.8875 16 10.75 16H10.25C10.1125 16 10 16.1125 10 16.25V18.75C10 18.8875 10.1125 19 10.25 19H10.75C10.8875 19 11 18.8875 11 18.75V18.5C11 18.225 11.225 18 11.5 18C11.775 18 12 18.225 12 18.5V18.75C12 19.4406 11.4406 20 10.75 20H10.25C9.55937 20 9 19.4406 9 18.75V16.25C9 15.5594 9.55937 15 10.25 15ZM17.5 15H18.5C19.3281 15 20 15.6719 20 16.5V18.5C20 19.3281 19.3281 20 18.5 20H17.5C17.225 20 17 19.775 17 19.5V15.5C17 15.225 17.225 15 17.5 15ZM18 16V19H18.5C18.775 19 19 18.775 19 18.5V16.5C19 16.225 18.775 16 18.5 16H18ZM13 16.25C13 15.5594 13.5594 15 14.25 15H14.75C15.4406 15 16 15.5594 16 16.25V18V19.5C16 19.775 15.775 20 15.5 20C15.225 20 15 19.775 15 19.5V18.5H14V19.5C14 19.775 13.775 20 13.5 20C13.225 20 13 19.775 13 19.5V18V16.25ZM14 17.5H15V16.25C15 16.1125 14.8875 16 14.75 16H14.25C14.1125 16 14 16.1125 14 16.25V17.5Z" fill="black"/>
</svg>
