<svg width="24" height="24" viewBox="0 0 24 24" fill="none" xmlns="http://www.w3.org/2000/svg">
<path d="M11.6406 8.22813C11.8625 8.03125 11.95 7.72188 11.8344 7.44688C11.7625 7.28125 11.6844 7.11875 11.5969 6.9625L11.5 6.79375C11.4063 6.6375 11.3031 6.48438 11.1938 6.3375C11.0156 6.1 10.7031 6.02187 10.4219 6.11562L9.54064 6.40625C9.20626 6.13125 8.82189 5.90625 8.40939 5.75312L8.21876 4.84688C8.15939 4.55625 7.93439 4.325 7.64064 4.29063C7.43439 4.2625 7.22501 4.25 7.01251 4.25H6.99064C6.77814 4.25 6.56876 4.2625 6.36251 4.2875C6.06876 4.32187 5.84376 4.55625 5.78439 4.84375L5.59376 5.75312C5.17814 5.90937 4.79689 6.13125 4.46251 6.40625L3.57814 6.11875C3.29689 6.025 2.98439 6.10313 2.80626 6.34063C2.69689 6.4875 2.59376 6.64062 2.49689 6.79688L2.40314 6.9625C2.31564 7.11875 2.23751 7.28125 2.16564 7.45C2.05001 7.72187 2.13751 8.03125 2.35939 8.23125L3.05314 8.85C3.01876 9.05937 3.00001 9.27812 3.00001 9.5C3.00001 9.72188 3.01876 9.94062 3.05314 10.1531L2.35939 10.7719C2.13751 10.9688 2.05001 11.2781 2.16564 11.5531C2.23751 11.7188 2.31564 11.8812 2.40314 12.0406L2.49689 12.2031C2.59064 12.3625 2.69376 12.5125 2.80626 12.6594C2.98439 12.8969 3.29689 12.975 3.57814 12.8813L4.45939 12.5906C4.79376 12.8656 5.17814 13.0906 5.59064 13.2437L5.78126 14.1531C5.84064 14.4437 6.06564 14.675 6.35939 14.7094C6.56876 14.7344 6.78126 14.7469 6.99689 14.7469C7.21251 14.7469 7.42501 14.7344 7.63439 14.7094C7.92814 14.675 8.15314 14.4406 8.21251 14.1531L8.40314 13.2437C8.81876 13.0875 9.20001 12.8656 9.53439 12.5906L10.4156 12.8813C10.6969 12.975 11.0094 12.8969 11.1875 12.6594C11.2969 12.5125 11.4 12.3625 11.4938 12.2031L11.5906 12.0344C11.6781 11.8781 11.7563 11.7156 11.8281 11.55C11.9438 11.2781 11.8563 10.9688 11.6344 10.7688L10.9406 10.15C10.975 9.9375 10.9938 9.71875 10.9938 9.49687C10.9938 9.275 10.975 9.05625 10.9406 8.84375L11.6344 8.225L11.6406 8.22813ZM5.50001 9.5C5.50001 9.10218 5.65805 8.72064 5.93935 8.43934C6.22066 8.15804 6.60219 8 7.00001 8C7.39784 8 7.77937 8.15804 8.06067 8.43934C8.34198 8.72064 8.50001 9.10218 8.50001 9.5C8.50001 9.89782 8.34198 10.2794 8.06067 10.5607C7.77937 10.842 7.39784 11 7.00001 11C6.60219 11 6.22066 10.842 5.93935 10.5607C5.65805 10.2794 5.50001 9.89782 5.50001 9.5ZM17.7719 19.6406C17.9688 19.8625 18.2781 19.95 18.5531 19.8344C18.7188 19.7625 18.8813 19.6844 19.0375 19.5969L19.2063 19.5C19.3625 19.4062 19.5156 19.3031 19.6625 19.1938C19.9 19.0156 19.9781 18.7031 19.8844 18.4219L19.5938 17.5406C19.8688 17.2062 20.0938 16.8219 20.2469 16.4094L21.1563 16.2188C21.4469 16.1594 21.6781 15.9344 21.7125 15.6406C21.7375 15.4312 21.75 15.2188 21.75 15.0031C21.75 14.7875 21.7375 14.575 21.7125 14.3656C21.6781 14.0719 21.4438 13.8469 21.1563 13.7875L20.2469 13.5938C20.0906 13.1781 19.8688 12.7969 19.5938 12.4625L19.8844 11.5813C19.9781 11.3 19.9 10.9875 19.6625 10.8094C19.5156 10.7 19.3625 10.5969 19.2063 10.5L19.0406 10.4062C18.8844 10.3187 18.7219 10.2406 18.5531 10.1687C18.2813 10.0531 17.9719 10.1406 17.7719 10.3625L17.1531 11.0563C16.9406 11.0219 16.7219 11.0031 16.5 11.0031C16.2781 11.0031 16.0594 11.0219 15.8469 11.0563L15.2281 10.3625C15.0313 10.1406 14.7219 10.0531 14.4469 10.1687C14.2813 10.2406 14.1188 10.3187 13.9594 10.4062L13.7969 10.5C13.6375 10.5938 13.4875 10.6969 13.3406 10.8094C13.1031 10.9875 13.025 11.3 13.1188 11.5813L13.4094 12.4625C13.1344 12.7969 12.9094 13.1812 12.7563 13.5938L11.8469 13.7812C11.5563 13.8406 11.325 14.0656 11.2906 14.3594C11.2656 14.5688 11.2531 14.7812 11.2531 14.9969C11.2531 15.2125 11.2656 15.425 11.2906 15.6344C11.325 15.9281 11.5594 16.1531 11.8469 16.2125L12.7563 16.4031C12.9125 16.8187 13.1344 17.2 13.4094 17.5344L13.1188 18.4156C13.025 18.6969 13.1031 19.0094 13.3406 19.1875C13.4875 19.2969 13.6375 19.4 13.7969 19.4937L13.9656 19.5906C14.1219 19.6781 14.2844 19.7563 14.45 19.8281C14.7219 19.9438 15.0313 19.8562 15.2313 19.6344L15.85 18.9406C16.0625 18.975 16.2813 18.9937 16.5031 18.9937C16.725 18.9937 16.9438 18.975 17.1563 18.9406L17.775 19.6344L17.7719 19.6406ZM16.5 13.5C16.697 13.5 16.892 13.5388 17.074 13.6142C17.256 13.6896 17.4214 13.8001 17.5607 13.9393C17.7 14.0786 17.8105 14.244 17.8858 14.426C17.9612 14.608 18 14.803 18 15C18 15.197 17.9612 15.392 17.8858 15.574C17.8105 15.756 17.7 15.9214 17.5607 16.0607C17.4214 16.1999 17.256 16.3104 17.074 16.3858C16.892 16.4612 16.697 16.5 16.5 16.5C16.303 16.5 16.108 16.4612 15.926 16.3858C15.744 16.3104 15.5786 16.1999 15.4394 16.0607C15.3001 15.9214 15.1896 15.756 15.1142 15.574C15.0388 15.392 15 15.197 15 15C15 14.803 15.0388 14.608 15.1142 14.426C15.1896 14.244 15.3001 14.0786 15.4394 13.9393C15.5786 13.8001 15.744 13.6896 15.926 13.6142C16.108 13.5388 16.303 13.5 16.5 13.5Z" fill="black"/>
</svg>
