<svg width="24" height="24" viewBox="0 0 24 24" fill="none" xmlns="http://www.w3.org/2000/svg">
<path d="M2 15.5437V15.6313C2 17.4906 3.50938 19 5.36875 19C6.91563 19 8.2625 17.9469 8.6375 16.4469L8.75 16H15.25L15.3625 16.4469C15.7375 17.9469 17.0844 19 18.6313 19C20.4906 19 22 17.4906 22 15.6313V15.5437C22 15.3469 21.9844 15.1531 21.95 14.9594L20.9281 8.99375C20.6594 7.425 19.65 6.08125 18.1063 5.69687C16.6719 5.34062 14.6188 5 12 5C9.38125 5 7.32812 5.34062 5.89687 5.69687C4.35 6.08125 3.34062 7.425 3.07187 8.99375L2.05 14.9594C2.01562 15.1531 2 15.3469 2 15.5437ZM15.5 11.25C15.8315 11.25 16.1495 11.3817 16.3839 11.6161C16.6183 11.8505 16.75 12.1685 16.75 12.5C16.75 12.8315 16.6183 13.1495 16.3839 13.3839C16.1495 13.6183 15.8315 13.75 15.5 13.75C15.1685 13.75 14.8505 13.6183 14.6161 13.3839C14.3817 13.1495 14.25 12.8315 14.25 12.5C14.25 12.1685 14.3817 11.8505 14.6161 11.6161C14.8505 11.3817 15.1685 11.25 15.5 11.25ZM16.25 9.5C16.25 9.16848 16.3817 8.85054 16.6161 8.61612C16.8505 8.3817 17.1685 8.25 17.5 8.25C17.8315 8.25 18.1495 8.3817 18.3839 8.61612C18.6183 8.85054 18.75 9.16848 18.75 9.5C18.75 9.83152 18.6183 10.1495 18.3839 10.3839C18.1495 10.6183 17.8315 10.75 17.5 10.75C17.1685 10.75 16.8505 10.6183 16.6161 10.3839C16.3817 10.1495 16.25 9.83152 16.25 9.5ZM8.75 9.25V10.25H9.75C10.1656 10.25 10.5 10.5844 10.5 11C10.5 11.4156 10.1656 11.75 9.75 11.75H8.75V12.75C8.75 13.1656 8.41563 13.5 8 13.5C7.58437 13.5 7.25 13.1656 7.25 12.75V11.75H6.25C5.83437 11.75 5.5 11.4156 5.5 11C5.5 10.5844 5.83437 10.25 6.25 10.25H7.25V9.25C7.25 8.83437 7.58437 8.5 8 8.5C8.41563 8.5 8.75 8.83437 8.75 9.25Z" fill="black"/>
</svg>
