<svg width="24" height="24" viewBox="0 0 24 24" fill="none" xmlns="http://www.w3.org/2000/svg">
<path d="M8.25 15H9.75C10.4406 15 11 15.5594 11 16.25V17.75C11 18.4406 10.4406 19 9.75 19H8.25C7.55937 19 7 18.4406 7 17.75V16.25C7 15.5594 7.55937 15 8.25 15ZM14.25 15H15.75C16.4406 15 17 15.5594 17 16.25V17.75C17 18.4406 16.4406 19 15.75 19H14.25C13.5594 19 13 18.4406 13 17.75V16.25C13 15.5594 13.5594 15 14.25 15ZM8.25 14C7.55937 14 7 13.4406 7 12.75V11.25C7 10.5594 7.55937 10 8.25 10H9.75C10.4406 10 11 10.5594 11 11.25V12.75C11 13.4406 10.4406 14 9.75 14H8.25ZM14.25 10H15.75C16.4406 10 17 10.5594 17 11.25V12.75C17 13.4406 16.4406 14 15.75 14H14.25C13.5594 14 13 13.4406 13 12.75V11.25C13 10.5594 13.5594 10 14.25 10ZM8.25 9C7.55937 9 7 8.44062 7 7.75V6.25C7 5.55937 7.55937 5 8.25 5H9.75C10.4406 5 11 5.55937 11 6.25V7.75C11 8.44062 10.4406 9 9.75 9H8.25ZM14.25 5H15.75C16.4406 5 17 5.55937 17 6.25V7.75C17 8.44062 16.4406 9 15.75 9H14.25C13.5594 9 13 8.44062 13 7.75V6.25C13 5.55937 13.5594 5 14.25 5Z" fill="black"/>
</svg>
