<svg width="24" height="24" viewBox="0 0 24 24" fill="none" xmlns="http://www.w3.org/2000/svg">
<path d="M2 9.35391V19.2508C2 19.6664 2.33437 20.0008 2.75 20.0008H4.25C4.66563 20.0008 5 19.6664 5 19.2508V11.0008C5 10.4477 5.44687 10.0008 6 10.0008H18C18.5531 10.0008 19 10.4477 19 11.0008V19.2508C19 19.6664 19.3344 20.0008 19.75 20.0008H21.25C21.6656 20.0008 22 19.6664 22 19.2508V9.35391C22 8.53516 21.5031 7.80078 20.7437 7.49766L12.3719 4.15078C12.1344 4.05391 11.8688 4.05391 11.6281 4.15078L3.25625 7.49766C2.49688 7.80078 2 8.53828 2 9.35391ZM8.06563 14.0008L7.90312 14.4695C7.36562 14.7664 7 15.3414 7 16.0008V19.0008C7 19.5539 7.44687 20.0008 8 20.0008C8.55313 20.0008 9 19.5539 9 19.0008V18.5008H15V19.0008C15 19.5539 15.4469 20.0008 16 20.0008C16.5531 20.0008 17 19.5539 17 19.0008V16.0008C17 15.3414 16.6344 14.7664 16.0969 14.4695L15.9344 14.0008H14.3438L14.4312 14.2508H9.56875L9.65625 14.0008H8.06563ZM9.5 15.7508C9.59849 15.7508 9.69602 15.7702 9.78701 15.8079C9.87801 15.8456 9.96069 15.9008 10.0303 15.9705C10.1 16.0401 10.1552 16.1228 10.1929 16.2138C10.2306 16.3048 10.25 16.4023 10.25 16.5008C10.25 16.5993 10.2306 16.6968 10.1929 16.7878C10.1552 16.8788 10.1 16.9615 10.0303 17.0311C9.96069 17.1008 9.87801 17.156 9.78701 17.1937C9.69602 17.2314 9.59849 17.2508 9.5 17.2508C9.40151 17.2508 9.30398 17.2314 9.21299 17.1937C9.12199 17.156 9.03931 17.1008 8.96967 17.0311C8.90003 16.9615 8.84478 16.8788 8.80709 16.7878C8.7694 16.6968 8.75 16.5993 8.75 16.5008C8.75 16.4023 8.7694 16.3048 8.80709 16.2138C8.84478 16.1228 8.90003 16.0401 8.96967 15.9705C9.03931 15.9008 9.12199 15.8456 9.21299 15.8079C9.30398 15.7702 9.40151 15.7508 9.5 15.7508ZM13.75 16.5008C13.75 16.4023 13.7694 16.3048 13.8071 16.2138C13.8448 16.1228 13.9 16.0401 13.9697 15.9705C14.0393 15.9008 14.122 15.8456 14.213 15.8079C14.304 15.7702 14.4015 15.7508 14.5 15.7508C14.5985 15.7508 14.696 15.7702 14.787 15.8079C14.878 15.8456 14.9607 15.9008 15.0303 15.9705C15.1 16.0401 15.1552 16.1228 15.1929 16.2138C15.2306 16.3048 15.25 16.4023 15.25 16.5008C15.25 16.5993 15.2306 16.6968 15.1929 16.7878C15.1552 16.8788 15.1 16.9615 15.0303 17.0311C14.9607 17.1008 14.878 17.156 14.787 17.1937C14.696 17.2314 14.5985 17.2508 14.5 17.2508C14.4015 17.2508 14.304 17.2314 14.213 17.1937C14.122 17.156 14.0393 17.1008 13.9697 17.0311C13.9 16.9615 13.8448 16.8788 13.8071 16.7878C13.7694 16.6968 13.75 16.5993 13.75 16.5008ZM18 11.0008H6V13.0008H18V11.0008Z" fill="black"/>
</svg>
