<svg width="24" height="24" viewBox="0 0 24 24" fill="none" xmlns="http://www.w3.org/2000/svg">
<path d="M12 7C9.2375 7 7 9.2375 7 12C7 14.7625 9.2375 17 12 17C14.4188 17 16.4375 15.2812 16.9 13H13C12.4469 13 12 12.5531 12 12C12 11.4469 12.4469 11 13 11H17.5C18.3062 11 19.05 11.6688 18.975 12.5813C18.6813 16.175 15.6688 19 12 19C8.13438 19 5 15.8656 5 12C5 8.13438 8.13438 5 12 5C13.7938 5 15.4281 5.675 16.6656 6.78125C17.0781 7.15 17.1125 7.78125 16.7437 8.19375C16.375 8.60625 15.7438 8.64062 15.3313 8.27187C14.4469 7.48125 13.2812 7 12 7Z" fill="black"/>
</svg>
