<svg width="24" height="24" viewBox="0 0 24 24" fill="none" xmlns="http://www.w3.org/2000/svg">
<path d="M19.8938 5.44688C20.1406 4.95313 19.9406 4.35313 19.4469 4.10626C18.9531 3.85938 18.3531 4.05938 18.1062 4.55313L12.25 16.2656V16.25L5.31562 13.9375C4.66875 13.7219 4 14.2063 4 14.8875V15.75H5.5C5.775 15.75 6 15.975 6 16.25C6 16.525 5.775 16.75 5.5 16.75H4V17.75H5.5C5.775 17.75 6 17.975 6 18.25C6 18.525 5.775 18.75 5.5 18.75H4V19C4 19.5531 4.44687 20 5 20H11.9781C12.3531 20.0094 12.7156 19.8031 12.8938 19.4469L19.8938 5.44688Z" fill="black"/>
</svg>
