<svg width="24" height="24" viewBox="0 0 24 24" fill="none" xmlns="http://www.w3.org/2000/svg">
<path d="M14.0469 6.15C14.2844 5.74688 14.7156 5.5 15.1812 5.5H15.25C15.9406 5.5 16.5 6.05938 16.5 6.75C16.5 7.44062 15.9406 8 15.25 8H13H12.9594L14.0469 6.15ZM9.95312 6.15L11.0406 8H11H8.75C8.05937 8 7.5 7.44062 7.5 6.75C7.5 6.05938 8.05937 5.5 8.75 5.5H8.81875C9.28437 5.5 9.71875 5.74688 9.95312 6.15ZM12.7531 5.39062L12 6.67188L11.2469 5.39062C10.7406 4.52812 9.81562 4 8.81875 4H8.75C7.23125 4 6 5.23125 6 6.75C6 7.2 6.10938 7.625 6.3 8H5C3.89688 8 3 8.89687 3 10V18C3 19.1031 3.89688 20 5 20H19C20.1031 20 21 19.1031 21 18V10C21 8.89687 20.1031 8 19 8H17.7C17.8906 7.625 18 7.2 18 6.75C18 5.23125 16.7688 4 15.25 4H15.1812C14.1844 4 13.2594 4.52813 12.7531 5.3875V5.39062ZM19 16V18H5V16H19ZM19 14H5V10H10.1906L8.925 11.5188C8.65938 11.8375 8.70312 12.3094 9.02187 12.575C9.34062 12.8406 9.8125 12.7969 10.0781 12.4781L12 10.1719L13.925 12.4812C14.1906 12.8 14.6625 12.8438 14.9812 12.5781C15.3 12.3125 15.3438 11.8406 15.0781 11.5219L13.8094 10H19V14Z" fill="black"/>
</svg>
