<svg width="24" height="24" viewBox="0 0 24 24" fill="none" xmlns="http://www.w3.org/2000/svg">
<path d="M5.46885 15.468C5.1751 15.7617 5.1751 16.2367 5.46885 16.5273C5.7626 16.818 6.2376 16.8211 6.52822 16.5273L7.10635 15.9492C8.17822 16.8148 9.44697 17.318 10.747 17.4586V18.4992H7.7501C7.33447 18.4992 7.0001 18.8336 7.0001 19.2492C7.0001 19.6648 7.33447 19.9992 7.7501 19.9992H15.2501C15.6657 19.9992 16.0001 19.6648 16.0001 19.2492C16.0001 18.8336 15.6657 18.4992 15.2501 18.4992H12.2501V17.4586C13.7845 17.293 15.2751 16.6242 16.4501 15.4492C19.0032 12.8961 19.172 8.85547 16.9532 6.1086L17.5313 5.53047C17.8251 5.23672 17.8251 4.76172 17.5313 4.4711C17.2376 4.18047 16.7626 4.17735 16.472 4.4711L15.3907 5.54922C15.097 5.84297 15.097 6.31797 15.3907 6.6086C17.5376 8.75547 17.5376 12.2398 15.3907 14.3867C13.2438 16.5336 9.75947 16.5336 7.6126 14.3867C7.31885 14.093 6.84385 14.093 6.55322 14.3867L5.46885 15.468ZM11.5001 14.9992C12.091 14.9992 12.6762 14.8828 13.2222 14.6567C13.7681 14.4305 14.2642 14.0991 14.6821 13.6812C15.0999 13.2633 15.4314 12.7673 15.6576 12.2213C15.8837 11.6753 16.0001 11.0902 16.0001 10.4992C16.0001 9.90827 15.8837 9.32311 15.6576 8.77714C15.4314 8.23118 15.0999 7.7351 14.6821 7.31724C14.2642 6.89938 13.7681 6.56791 13.2222 6.34176C12.6762 6.11562 12.091 5.99922 11.5001 5.99922C10.9091 5.99922 10.324 6.11562 9.77802 6.34176C9.23206 6.56791 8.73598 6.89938 8.31812 7.31724C7.90025 7.7351 7.56879 8.23118 7.34264 8.77714C7.11649 9.32311 7.0001 9.90827 7.0001 10.4992C7.0001 11.0902 7.11649 11.6753 7.34264 12.2213C7.56879 12.7673 7.90025 13.2633 8.31812 13.6812C8.73598 14.0991 9.23206 14.4305 9.77802 14.6567C10.324 14.8828 10.9091 14.9992 11.5001 14.9992Z" fill="black"/>
</svg>
