<svg width="24" height="24" viewBox="0 0 24 24" fill="none" xmlns="http://www.w3.org/2000/svg">
<path d="M3 7C3 5.89688 3.89688 5 5 5H15C16.1031 5 17 5.89688 17 7V17C17 18.1031 16.1031 19 15 19H5C3.89688 19 3 18.1031 3 17V7ZM6 7C5.44687 7 5 7.44687 5 8V11C5 11.5531 5.44687 12 6 12H14C14.5531 12 15 11.5531 15 11V8C15 7.44687 14.5531 7 14 7H6ZM7 14.5C7 14.225 6.775 14 6.5 14C6.225 14 6 14.225 6 14.5V15H5.5C5.225 15 5 15.225 5 15.5C5 15.775 5.225 16 5.5 16H6V16.5C6 16.775 6.225 17 6.5 17C6.775 17 7 16.775 7 16.5V16H7.5C7.775 16 8 15.775 8 15.5C8 15.225 7.775 15 7.5 15H7V14.5ZM11.5 15.25C11.5 15.0511 11.421 14.8603 11.2803 14.7197C11.1397 14.579 10.9489 14.5 10.75 14.5C10.5511 14.5 10.3603 14.579 10.2197 14.7197C10.079 14.8603 10 15.0511 10 15.25C10 15.4489 10.079 15.6397 10.2197 15.7803C10.3603 15.921 10.5511 16 10.75 16C10.9489 16 11.1397 15.921 11.2803 15.7803C11.421 15.6397 11.5 15.4489 11.5 15.25ZM13.25 16C13.4489 16 13.6397 15.921 13.7803 15.7803C13.921 15.6397 14 15.4489 14 15.25C14 15.0511 13.921 14.8603 13.7803 14.7197C13.6397 14.579 13.4489 14.5 13.25 14.5C13.0511 14.5 12.8603 14.579 12.7197 14.7197C12.579 14.8603 12.5 15.0511 12.5 15.25C12.5 15.4489 12.579 15.6397 12.7197 15.7803C12.8603 15.921 13.0511 16 13.25 16ZM18 9.25C18 8.83437 18.3344 8.5 18.75 8.5H20.25C20.6656 8.5 21 8.83437 21 9.25V10.25C21 10.6656 20.6656 11 20.25 11H19.5V13.25C19.5 13.6656 19.1656 14 18.75 14H18V12.5V12V10.25V9.25Z" fill="black"/>
</svg>
