<svg width="24" height="24" viewBox="0 0 24 24" fill="none" xmlns="http://www.w3.org/2000/svg">
<path d="M2 9.35391V19.2508C2 19.6664 2.33437 20.0008 2.75 20.0008H4.25C4.66563 20.0008 5 19.6664 5 19.2508V11.0008C5 10.4477 5.44688 10.0008 6 10.0008H18C18.5531 10.0008 19 10.4477 19 11.0008V19.2508C19 19.6664 19.3344 20.0008 19.75 20.0008H21.25C21.6656 20.0008 22 19.6664 22 19.2508V9.35391C22 8.53516 21.5031 7.80078 20.7437 7.49766L12.3719 4.15078C12.1344 4.05391 11.8688 4.05391 11.6281 4.15078L3.25625 7.49766C2.49688 7.80078 2 8.53828 2 9.35391ZM6 11.0008V14.0008H18V11.0008H6ZM6 15.0008V20.0008H18V15.0008H6ZM10 17.5008C10 17.2258 10.225 17.0008 10.5 17.0008H13.5C13.775 17.0008 14 17.2258 14 17.5008C14 17.7758 13.775 18.0008 13.5 18.0008H10.5C10.225 18.0008 10 17.7758 10 17.5008Z" fill="black"/>
</svg>
