<svg width="24" height="24" viewBox="0 0 24 24" fill="none" xmlns="http://www.w3.org/2000/svg">
<path d="M18.5312 4.21873C18.2375 3.92498 17.7625 3.92498 17.4719 4.21873L15.9687 5.71873C15.8937 5.79373 15.8344 5.88435 15.7969 5.98435L15.3156 7.2656L12.8937 9.6906C11.4844 8.77185 9.79062 8.74685 8.79999 9.7406C8.45624 10.0844 8.23749 10.5094 8.13124 10.9781C8.01561 11.4969 7.53437 11.9375 7.00312 11.9656C6.20312 12.0062 5.46249 12.3 4.89999 12.8594C3.49999 14.2625 3.76249 16.7937 5.48437 18.5156C7.20624 20.2375 9.73749 20.5 11.1375 19.1C11.6969 18.5406 11.9937 17.7969 12.0312 16.9969C12.0594 16.4656 12.5 15.9875 13.0187 15.8687C13.4875 15.7625 13.9125 15.5406 14.2562 15.2C15.25 14.2062 15.225 12.5156 14.3062 11.1062L16.7312 8.68123L18.0125 8.19998C18.1125 8.16248 18.2031 8.1031 18.2781 8.0281L19.7781 6.5281C20.0719 6.23435 20.0719 5.75935 19.7781 5.46873L18.5312 4.21873ZM10.5 12C10.8978 12 11.2793 12.158 11.5607 12.4393C11.842 12.7206 12 13.1022 12 13.5C12 13.8978 11.842 14.2793 11.5607 14.5606C11.2793 14.8419 10.8978 15 10.5 15C10.1022 15 9.72063 14.8419 9.43933 14.5606C9.15803 14.2793 8.99999 13.8978 8.99999 13.5C8.99999 13.1022 9.15803 12.7206 9.43933 12.4393C9.72063 12.158 10.1022 12 10.5 12Z" fill="black"/>
</svg>
