<svg width="24" height="24" viewBox="0 0 24 24" fill="none" xmlns="http://www.w3.org/2000/svg">
<path d="M4 4.75C4 4.33437 4.33437 4 4.75 4H19.25C19.6656 4 20 4.33437 20 4.75C20 5.16563 19.6656 5.5 19.25 5.5H4.75C4.33437 5.5 4 5.16563 4 4.75ZM6 7H8C8.55313 7 9 7.44687 9 8V10C9 10.5531 8.55313 11 8 11H6C5.44687 11 5 10.5531 5 10V8C5 7.44687 5.44687 7 6 7ZM6 16H8C8.55313 16 9 16.4469 9 17V19C9 19.5531 8.55313 20 8 20H6C5.44687 20 5 19.5531 5 19V17C5 16.4469 5.44687 16 6 16ZM10 8C10 7.44687 10.4469 7 11 7H13C13.5531 7 14 7.44687 14 8V10C14 10.5531 13.5531 11 13 11H11C10.4469 11 10 10.5531 10 10V8ZM11 16H13C13.5531 16 14 16.4469 14 17V19C14 19.5531 13.5531 20 13 20H11C10.4469 20 10 19.5531 10 19V17C10 16.4469 10.4469 16 11 16ZM15 8C15 7.44687 15.4469 7 16 7H18C18.5531 7 19 7.44687 19 8V10C19 10.5531 18.5531 11 18 11H16C15.4469 11 15 10.5531 15 10V8ZM16 16H18C18.5531 16 19 16.4469 19 17V19C19 19.5531 18.5531 20 18 20H16C15.4469 20 15 19.5531 15 19V17C15 16.4469 15.4469 16 16 16ZM4.75 13H19.25C19.6656 13 20 13.3344 20 13.75C20 14.1656 19.6656 14.5 19.25 14.5H4.75C4.33437 14.5 4 14.1656 4 13.75C4 13.3344 4.33437 13 4.75 13Z" fill="black"/>
</svg>
