<svg width="24" height="24" viewBox="0 0 24 24" fill="none" xmlns="http://www.w3.org/2000/svg">
<path d="M18.5312 4.21885C18.2375 3.9251 17.7625 3.9251 17.4719 4.21885L15.9687 5.71885C15.8937 5.79385 15.8344 5.88447 15.7969 5.98447L15.3156 7.26572L12.8937 9.69072C11.4844 8.77197 9.79062 8.74697 8.79999 9.74072C8.45624 10.0845 8.23749 10.5095 8.13124 10.9782C8.01561 11.497 7.53437 11.9376 7.00312 11.9657C6.20312 12.0063 5.46249 12.3001 4.89999 12.8595C3.49999 14.2626 3.76249 16.7938 5.48437 18.5157C7.20624 20.2376 9.73749 20.5001 11.1375 19.1001C11.6969 18.5407 11.9937 17.797 12.0312 16.997C12.0594 16.4657 12.5 15.9876 13.0187 15.8688C13.4875 15.7626 13.9125 15.5407 14.2562 15.2001C15.25 14.2063 15.225 12.5157 14.3062 11.1063L16.7312 8.68135L18.0125 8.2001C18.1125 8.1626 18.2031 8.10322 18.2781 8.02822L19.7781 6.52822C20.0719 6.23447 20.0719 5.75947 19.7781 5.46885L18.5312 4.21885ZM10.5 12.0001C10.8978 12.0001 11.2793 12.1581 11.5607 12.4394C11.842 12.7207 12 13.1023 12 13.5001C12 13.8979 11.842 14.2795 11.5607 14.5608C11.2793 14.8421 10.8978 15.0001 10.5 15.0001C10.1022 15.0001 9.72063 14.8421 9.43933 14.5608C9.15803 14.2795 8.99999 13.8979 8.99999 13.5001C8.99999 13.1023 9.15803 12.7207 9.43933 12.4394C9.72063 12.1581 10.1022 12.0001 10.5 12.0001Z" fill="black"/>
</svg>
