<svg width="24" height="24" viewBox="0 0 24 24" fill="none" xmlns="http://www.w3.org/2000/svg">
<path d="M6.70625 6.5C6.34687 6.5 6.0375 6.74687 5.95625 7.09687L4.78125 12.1344C5.42188 11.9406 6.29062 11.75 7.24062 11.75C8.25 11.75 9.17188 11.9656 9.82812 12.1719C10.1594 12.275 10.4312 12.3813 10.6219 12.4594C10.7188 12.5 10.7937 12.5344 10.85 12.5594C10.8781 12.5719 10.9 12.5812 10.9156 12.5906L10.9344 12.6L10.9406 12.6031H10.9437C10.9437 12.6031 10.9437 12.6031 10.7469 13L10.9437 12.6031C11.125 12.6937 11.2688 12.8313 11.3656 13H12.6344C12.7312 12.8344 12.875 12.6937 13.0562 12.6031L13.2531 13C13.0563 12.6031 13.0562 12.6031 13.0562 12.6031H13.0594L13.0656 12.6L13.0844 12.5906C13.1 12.5844 13.1219 12.5719 13.15 12.5594C13.2062 12.5344 13.2812 12.5 13.3781 12.4594C13.5688 12.3781 13.8406 12.275 14.1719 12.1719C14.8281 11.9656 15.7469 11.75 16.7594 11.75C17.7094 11.75 18.5781 11.9406 19.2188 12.1344L18.0437 7.09687C17.9625 6.74687 17.65 6.5 17.2937 6.5C17.1969 6.5 17.1 6.51875 17.0063 6.55625L16.0281 6.94688C15.6438 7.1 15.2063 6.9125 15.0531 6.52813C14.9 6.14375 15.0875 5.70625 15.4719 5.55313L16.45 5.1625C16.7188 5.05625 17.0031 5 17.2937 5C18.35 5 19.2656 5.72812 19.5063 6.75625L20.8781 12.6313C20.9312 12.8594 20.9688 13.0906 20.9875 13.3219C20.9969 13.3812 21.0031 13.4406 21.0031 13.5V13.7094V15V15.5C21.0031 17.4344 19.4375 19 17.5031 19H16.1156C14.2594 19 12.725 17.55 12.6219 15.6938L12.5813 15H11.4187L11.3813 15.6938C11.2781 17.55 9.74375 19 7.88438 19H6.5C4.56562 19 3 17.4344 3 15.5V15V13.7094V13.5C3 13.4406 3.00625 13.3812 3.01562 13.3219C3.03438 13.0906 3.07187 12.8594 3.125 12.6313L4.49688 6.75625C4.73438 5.72812 5.65 5 6.70625 5C6.99375 5 7.28125 5.05625 7.55 5.1625L8.52812 5.55313C8.9125 5.70625 9.1 6.14375 8.94688 6.52813C8.79375 6.9125 8.35625 7.1 7.97188 6.94688L6.99375 6.55625C6.90313 6.51875 6.80625 6.5 6.70625 6.5ZM5 14.1687V15.5C5 16.3281 5.67188 17 6.5 17H7.88438C8.68125 17 9.3375 16.3781 9.38125 15.5844L9.45937 14.1594C9.3875 14.1344 9.30625 14.1062 9.225 14.0813C8.6875 13.9125 7.97813 13.7531 7.2375 13.7531C6.49688 13.7531 5.79375 13.9125 5.2625 14.0813C5.16563 14.1125 5.07812 14.1406 4.99688 14.1719L5 14.1687ZM19 15.5V14.1687C18.9187 14.1406 18.8281 14.1094 18.7344 14.0781C18.2031 13.9094 17.5 13.75 16.7594 13.75C16.0187 13.75 15.3094 13.9094 14.7719 14.0781C14.6875 14.1031 14.6094 14.1313 14.5375 14.1562L14.6156 15.5813C14.6594 16.375 15.3188 16.9969 16.1125 16.9969H17.5C18.3281 16.9969 19 16.325 19 15.4969V15.5Z" fill="black"/>
</svg>
