<svg width="24" height="24" viewBox="0 0 24 24" fill="none" xmlns="http://www.w3.org/2000/svg">
<path d="M6.4 7.8C6.0287 7.8 5.6726 7.6525 5.41005 7.38995C5.1475 7.1274 5 6.7713 5 6.4C5 6.0287 5.1475 5.6726 5.41005 5.41005C5.6726 5.1475 6.0287 5 6.4 5C6.7713 5 7.1274 5.1475 7.38995 5.41005C7.6525 5.6726 7.8 6.0287 7.8 6.4C7.8 6.7713 7.6525 7.1274 7.38995 7.38995C7.1274 7.6525 6.7713 7.8 6.4 7.8ZM6.4 11.5344C6.0287 11.5344 5.6726 11.3869 5.41005 11.1243C5.1475 10.8618 5 10.5057 5 10.1344C5 9.76307 5.1475 9.40698 5.41005 9.14443C5.6726 8.88187 6.0287 8.73438 6.4 8.73438C6.7713 8.73438 7.1274 8.88187 7.38995 9.14443C7.6525 9.40698 7.8 9.76307 7.8 10.1344C7.8 10.5057 7.6525 10.8618 7.38995 11.1243C7.1274 11.3869 6.7713 11.5344 6.4 11.5344ZM7.8 13.8687C7.79959 14.2401 7.65169 14.596 7.38885 14.8582C7.126 15.1205 6.76974 15.2676 6.39844 15.2672C6.02714 15.2668 5.6712 15.1189 5.40895 14.856C5.14669 14.5932 4.99959 14.2369 5 13.8656C5 13.4943 5.1475 13.1382 5.41005 12.8757C5.6726 12.6131 6.0287 12.4656 6.4 12.4656C6.7713 12.4656 7.1274 12.6131 7.38995 12.8757C7.6525 13.1382 7.8 13.4943 7.8 13.8656V13.8687ZM6.4 19C6.0287 19 5.6726 18.8525 5.41005 18.5899C5.1475 18.3274 5 17.9713 5 17.6C5 17.2287 5.1475 16.8726 5.41005 16.6101C5.6726 16.3475 6.0287 16.2 6.4 16.2C6.7713 16.2 7.1274 16.3475 7.38995 16.6101C7.6525 16.8726 7.8 17.2287 7.8 17.6C7.8 17.9713 7.6525 18.3274 7.38995 18.5899C7.1274 18.8525 6.7713 19 6.4 19ZM11.5344 6.4C11.5344 6.7713 11.3869 7.1274 11.1243 7.38995C10.8618 7.6525 10.5057 7.8 10.1344 7.8C9.76307 7.8 9.40698 7.6525 9.14443 7.38995C8.88188 7.1274 8.73438 6.7713 8.73438 6.4C8.73438 6.0287 8.88188 5.6726 9.14443 5.41005C9.40698 5.1475 9.76307 5 10.1344 5C10.5057 5 10.8618 5.1475 11.1243 5.41005C11.3869 5.6726 11.5344 6.0287 11.5344 6.4ZM10.1344 11.5344C9.76307 11.5344 9.40698 11.3869 9.14443 11.1243C8.88188 10.8618 8.73438 10.5057 8.73438 10.1344C8.73438 9.76307 8.88188 9.40698 9.14443 9.14443C9.40698 8.88187 9.76307 8.73438 10.1344 8.73438C10.5057 8.73438 10.8618 8.88187 11.1243 9.14443C11.3869 9.40698 11.5344 9.76307 11.5344 10.1344C11.5344 10.5057 11.3869 10.8618 11.1243 11.1243C10.8618 11.3869 10.5057 11.5344 10.1344 11.5344ZM11.5344 13.8687C11.5344 14.2401 11.3869 14.5961 11.1243 14.8587C10.8618 15.1213 10.5057 15.2688 10.1344 15.2688C9.76307 15.2688 9.40698 15.1213 9.14443 14.8587C8.88188 14.5961 8.73438 14.2401 8.73438 13.8687C8.73438 13.4974 8.88188 13.1414 9.14443 12.8788C9.40698 12.6162 9.76307 12.4688 10.1344 12.4688C10.5057 12.4688 10.8618 12.6162 11.1243 12.8788C11.3869 13.1414 11.5344 13.4974 11.5344 13.8687ZM10.1344 19C9.76307 19 9.40698 18.8525 9.14443 18.5899C8.88188 18.3274 8.73438 17.9713 8.73438 17.6C8.73438 17.2287 8.88188 16.8726 9.14443 16.6101C9.40698 16.3475 9.76307 16.2 10.1344 16.2C10.5057 16.2 10.8618 16.3475 11.1243 16.6101C11.3869 16.8726 11.5344 17.2287 11.5344 17.6C11.5344 17.9713 11.3869 18.3274 11.1243 18.5899C10.8618 18.8525 10.5057 19 10.1344 19ZM15.2656 6.4C15.2656 6.7713 15.1181 7.1274 14.8556 7.38995C14.593 7.6525 14.2369 7.8 13.8656 7.8C13.4943 7.8 13.1382 7.6525 12.8757 7.38995C12.6131 7.1274 12.4656 6.7713 12.4656 6.4C12.4656 6.0287 12.6131 5.6726 12.8757 5.41005C13.1382 5.1475 13.4943 5 13.8656 5C14.2369 5 14.593 5.1475 14.8556 5.41005C15.1181 5.6726 15.2656 6.0287 15.2656 6.4ZM13.8656 11.5344C13.4943 11.5344 13.1382 11.3869 12.8757 11.1243C12.6131 10.8618 12.4656 10.5057 12.4656 10.1344C12.4656 9.76307 12.6131 9.40698 12.8757 9.14443C13.1382 8.88187 13.4943 8.73438 13.8656 8.73438C14.2369 8.73438 14.593 8.88187 14.8556 9.14443C15.1181 9.40698 15.2656 9.76307 15.2656 10.1344C15.2656 10.5057 15.1181 10.8618 14.8556 11.1243C14.593 11.3869 14.2369 11.5344 13.8656 11.5344ZM15.2656 13.8687C15.2656 14.2401 15.1181 14.5961 14.8556 14.8587C14.593 15.1213 14.2369 15.2688 13.8656 15.2688C13.4943 15.2688 13.1382 15.1213 12.8757 14.8587C12.6131 14.5961 12.4656 14.2401 12.4656 13.8687C12.4656 13.4974 12.6131 13.1414 12.8757 12.8788C13.1382 12.6162 13.4943 12.4688 13.8656 12.4688C14.2369 12.4688 14.593 12.6162 14.8556 12.8788C15.1181 13.1414 15.2656 13.4974 15.2656 13.8687ZM13.8656 19C13.4943 19 13.1382 18.8525 12.8757 18.5899C12.6131 18.3274 12.4656 17.9713 12.4656 17.6C12.4656 17.2287 12.6131 16.8726 12.8757 16.6101C13.1382 16.3475 13.4943 16.2 13.8656 16.2C14.2369 16.2 14.593 16.3475 14.8556 16.6101C15.1181 16.8726 15.2656 17.2287 15.2656 17.6C15.2656 17.9713 15.1181 18.3274 14.8556 18.5899C14.593 18.8525 14.2369 19 13.8656 19ZM19 6.4C19 6.7713 18.8525 7.1274 18.59 7.38995C18.3274 7.6525 17.9713 7.8 17.6 7.8C17.2287 7.8 16.8726 7.6525 16.6101 7.38995C16.3475 7.1274 16.2 6.7713 16.2 6.4C16.2 6.0287 16.3475 5.6726 16.6101 5.41005C16.8726 5.1475 17.2287 5 17.6 5C17.9713 5 18.3274 5.1475 18.59 5.41005C18.8525 5.6726 19 6.0287 19 6.4ZM17.6 11.5344C17.2287 11.5344 16.8726 11.3869 16.6101 11.1243C16.3475 10.8618 16.2 10.5057 16.2 10.1344C16.2 9.76307 16.3475 9.40698 16.6101 9.14443C16.8726 8.88187 17.2287 8.73438 17.6 8.73438C17.9713 8.73438 18.3274 8.88187 18.59 9.14443C18.8525 9.40698 19 9.76307 19 10.1344C19 10.5057 18.8525 10.8618 18.59 11.1243C18.3274 11.3869 17.9713 11.5344 17.6 11.5344ZM19 13.8656C19 14.2369 18.8525 14.593 18.59 14.8556C18.3274 15.1181 17.9713 15.2656 17.6 15.2656C17.2287 15.2656 16.8726 15.1181 16.6101 14.8556C16.3475 14.593 16.2 14.2369 16.2 13.8656C16.2 13.4943 16.3475 13.1382 16.6101 12.8757C16.8726 12.6131 17.2287 12.4656 17.6 12.4656C17.9713 12.4656 18.3274 12.6131 18.59 12.8757C18.8525 13.1382 19 13.4943 19 13.8656ZM17.6 19C17.2287 19 16.8726 18.8525 16.6101 18.5899C16.3475 18.3274 16.2 17.9713 16.2 17.6C16.2 17.2287 16.3475 16.8726 16.6101 16.6101C16.8726 16.3475 17.2287 16.2 17.6 16.2C17.9713 16.2 18.3274 16.3475 18.59 16.6101C18.8525 16.8726 19 17.2287 19 17.6C19 17.9713 18.8525 18.3274 18.59 18.5899C18.3274 18.8525 17.9713 19 17.6 19Z" fill="black"/>
</svg>
