<svg width="24" height="24" viewBox="0 0 24 24" fill="none" xmlns="http://www.w3.org/2000/svg">
<path d="M4 12C4 9.87827 4.84285 7.84344 6.34315 6.34315C7.84344 4.84285 9.87827 4 12 4C14.1217 4 16.1566 4.84285 17.6569 6.34315C19.1571 7.84344 20 9.87827 20 12C20 14.1217 19.1571 16.1566 17.6569 17.6569C16.1566 19.1571 14.1217 20 12 20C9.87827 20 7.84344 19.1571 6.34315 17.6569C4.84285 16.1566 4 14.1217 4 12ZM13 7C13 6.73478 12.8946 6.48043 12.7071 6.29289C12.5196 6.10536 12.2652 6 12 6C11.7348 6 11.4804 6.10536 11.2929 6.29289C11.1054 6.48043 11 6.73478 11 7C11 7.26522 11.1054 7.51957 11.2929 7.70711C11.4804 7.89464 11.7348 8 12 8C12.2652 8 12.5196 7.89464 12.7071 7.70711C12.8946 7.51957 13 7.26522 13 7ZM12 17C13.1031 17 14 16.1031 14 15C14 13.8969 13.1031 13 12 13C11.9812 13 11.9594 13 11.9406 13L9.9375 8.44688C9.77187 8.06875 9.32812 7.89687 8.95 8.0625C8.57187 8.22813 8.4 8.67188 8.56563 9.05L10.5687 13.6031C10.2156 13.9656 10 14.4563 10 15C10 16.1031 10.8969 17 12 17ZM8 12C8 11.7348 7.89464 11.4804 7.70711 11.2929C7.51957 11.1054 7.26522 11 7 11C6.73478 11 6.48043 11.1054 6.29289 11.2929C6.10536 11.4804 6 11.7348 6 12C6 12.2652 6.10536 12.5196 6.29289 12.7071C6.48043 12.8946 6.73478 13 7 13C7.26522 13 7.51957 12.8946 7.70711 12.7071C7.89464 12.5196 8 12.2652 8 12ZM17 13C17.2652 13 17.5196 12.8946 17.7071 12.7071C17.8946 12.5196 18 12.2652 18 12C18 11.7348 17.8946 11.4804 17.7071 11.2929C17.5196 11.1054 17.2652 11 17 11C16.7348 11 16.4804 11.1054 16.2929 11.2929C16.1054 11.4804 16 11.7348 16 12C16 12.2652 16.1054 12.5196 16.2929 12.7071C16.4804 12.8946 16.7348 13 17 13ZM16.5 8.5C16.5 8.23478 16.3946 7.98043 16.2071 7.79289C16.0196 7.60536 15.7652 7.5 15.5 7.5C15.2348 7.5 14.9804 7.60536 14.7929 7.79289C14.6054 7.98043 14.5 8.23478 14.5 8.5C14.5 8.76522 14.6054 9.01957 14.7929 9.20711C14.9804 9.39464 15.2348 9.5 15.5 9.5C15.7652 9.5 16.0196 9.39464 16.2071 9.20711C16.3946 9.01957 16.5 8.76522 16.5 8.5Z" fill="black"/>
</svg>
