<svg width="24" height="24" viewBox="0 0 24 24" fill="none" xmlns="http://www.w3.org/2000/svg">
<path d="M10.2844 6.24688C10.8126 6.09063 11.1157 5.53125 10.9563 5.00313C10.7969 4.475 10.2407 4.17188 9.71256 4.33125C9.04069 4.53125 8.40631 4.81563 7.81881 5.175C7.57194 5.0625 7.29381 5 7.00006 5C5.89694 5 5.00006 5.89688 5.00006 7C5.00006 7.29375 5.06256 7.57188 5.17506 7.82188C4.81569 8.40625 4.53131 9.04063 4.33131 9.71563C4.17506 10.2438 4.47506 10.8031 5.00319 10.9594C5.53131 11.1156 6.09069 10.8156 6.24694 10.2875C6.38131 9.83125 6.57194 9.39688 6.80631 8.99375C6.86881 9 6.93444 9.00313 6.99694 9.00313C8.10006 9.00313 8.99694 8.10625 8.99694 7.00313C8.99694 6.9375 8.99381 6.875 8.98756 6.8125C9.39069 6.57813 9.82506 6.3875 10.2813 6.25313L10.2844 6.24688ZM14.2844 4.33125C13.7563 4.175 13.1969 4.475 13.0407 5.00313C12.8844 5.53125 13.1844 6.09063 13.7126 6.24688C14.1688 6.38125 14.6032 6.57188 15.0063 6.80625C15.0001 6.86875 14.9969 6.93438 14.9969 6.99688C14.9969 8.1 15.8938 8.99688 16.9969 8.99688C17.0626 8.99688 17.1251 8.99375 17.1907 8.9875C17.4251 9.39063 17.6157 9.825 17.7501 10.2813C17.9063 10.8094 18.4657 11.1125 18.9938 10.9531C19.5219 10.7938 19.8251 10.2375 19.6657 9.70938C19.4657 9.0375 19.1813 8.40313 18.8219 7.81563C18.9344 7.56563 18.9969 7.2875 18.9969 6.99375C18.9969 5.89063 18.1001 4.99375 16.9969 4.99375C16.7032 4.99375 16.4251 5.05625 16.1751 5.16875C15.5907 4.80938 14.9563 4.525 14.2813 4.325L14.2844 4.33125ZM6.24694 13.7156C6.09069 13.1875 5.53131 12.8844 5.00319 13.0438C4.47506 13.2031 4.17194 13.7594 4.33131 14.2875C4.53131 14.9594 4.81569 15.5938 5.17506 16.1813C5.06256 16.4281 5.00006 16.7063 5.00006 17C5.00006 18.1031 5.89694 19 7.00006 19C7.29381 19 7.57194 18.9375 7.82194 18.825C8.40631 19.1844 9.04069 19.4688 9.71569 19.6688C10.2438 19.825 10.8032 19.525 10.9594 18.9969C11.1157 18.4688 10.8157 17.9094 10.2876 17.7531C9.83131 17.6188 9.39694 17.4281 8.99381 17.1938C9.00006 17.1313 9.00319 17.0656 9.00319 17C9.00319 15.8969 8.10631 15 7.00319 15C6.93756 15 6.87506 15.0031 6.80944 15.0094C6.57506 14.6063 6.38444 14.1719 6.25006 13.7156H6.24694ZM19.6657 14.2875C19.8219 13.7594 19.5219 13.2 18.9938 13.0438C18.4657 12.8875 17.9063 13.1875 17.7501 13.7156C17.6157 14.1719 17.4251 14.6063 17.1907 15.0094C17.1282 15.0031 17.0626 15 16.9969 15C15.8938 15 14.9969 15.8969 14.9969 17C14.9969 17.0656 15.0001 17.1281 15.0063 17.1938C14.6032 17.4281 14.1688 17.6188 13.7126 17.7531C13.1844 17.9094 12.8813 18.4688 13.0407 18.9969C13.2001 19.525 13.7563 19.8281 14.2844 19.6688C14.9563 19.4688 15.5907 19.1844 16.1782 18.825C16.4282 18.9375 16.7063 19 17.0001 19C18.1032 19 19.0001 18.1031 19.0001 17C19.0001 16.7063 18.9376 16.4281 18.8251 16.1781C19.1844 15.5938 19.4688 14.9594 19.6688 14.2844L19.6657 14.2875ZM10.0251 12.025C10.0251 11.5375 10.2001 11.0906 10.4907 10.7406L10.9688 11.2188C11.1751 11.425 11.5251 11.2781 11.5251 10.9875V9.1C11.5251 8.92188 11.3782 8.775 11.2001 8.775H9.30944C9.01881 8.775 8.87506 9.125 9.07819 9.33125L9.42819 9.68125C8.86881 10.3 8.52506 11.125 8.52506 12.0281C8.52506 13.3906 9.30319 14.5688 10.4344 15.1469C10.8032 15.3344 11.2563 15.1906 11.4438 14.8219C11.6313 14.4531 11.4876 14 11.1188 13.8125C10.4688 13.4813 10.0282 12.8063 10.0282 12.0313L10.0251 12.025ZM12.9344 10.1938C13.5844 10.525 14.0251 11.2 14.0251 11.975C14.0251 12.4625 13.8501 12.9094 13.5594 13.2594L13.0813 12.7813C12.8751 12.575 12.5251 12.7219 12.5251 13.0125V14.9031C12.5251 15.0813 12.6719 15.2281 12.8501 15.2281H14.7407C15.0313 15.2281 15.1751 14.8781 14.9719 14.6719L14.6219 14.3219C15.1813 13.7031 15.5251 12.8781 15.5251 11.975C15.5251 10.6125 14.7469 9.43438 13.6157 8.85625C13.2469 8.66875 12.7938 8.8125 12.6063 9.18125C12.4188 9.55 12.5626 10.0031 12.9313 10.1906L12.9344 10.1938Z" fill="black"/>
</svg>
