<svg width="24" height="24" viewBox="0 0 24 24" fill="none" xmlns="http://www.w3.org/2000/svg">
<path d="M3.21243 4.15937C2.88743 3.90312 2.41556 3.96249 2.15931 4.28749C1.90306 4.61249 1.96243 5.08437 2.28743 5.34062L20.7874 19.8406C21.1124 20.0969 21.5843 20.0375 21.8406 19.7125C22.0968 19.3875 22.0374 18.9156 21.7124 18.6594L14.8843 13.3062L15.5281 11.5H16.4999C16.7656 11.5 17.0187 11.3937 17.2062 11.2062L17.9156 10.5H19.9999C20.5531 10.5 20.9999 10.0531 20.9999 9.49999V6.99999C20.9999 6.44687 20.5531 5.99999 19.9999 5.99999H19.4999V5.74999C19.4999 5.33437 19.1656 4.99999 18.7499 4.99999C18.3343 4.99999 17.9999 5.33437 17.9999 5.74999V5.99999H5.55931L3.21243 4.15937ZM8.11243 7.99999H17.4999C17.7749 7.99999 17.9999 8.22499 17.9999 8.49999C17.9999 8.77499 17.7749 8.99999 17.4999 8.99999H9.38743L8.11243 7.99999ZM12.5781 11.5H13.9343L13.6374 12.3312L12.5781 11.5ZM12.1531 15L10.2499 13.5H10.1562L10.1718 13.4375L2.99993 7.78749V10.5C2.99993 11.0531 3.44681 11.5 3.99993 11.5H4.31243C4.96243 11.5 5.44056 12.1125 5.28118 12.7437L4.03118 17.7562C3.95618 18.0562 4.02493 18.3719 4.21243 18.6156C4.39993 18.8594 4.69056 19 4.99993 19H7.99993C8.45931 19 8.85931 18.6875 8.96868 18.2437L9.78118 15H12.1531Z" fill="black"/>
</svg>
