<svg width="24" height="24" viewBox="0 0 24 24" fill="none" xmlns="http://www.w3.org/2000/svg">
<path d="M7.25 4H8.75C9.16563 4 9.5 4.33437 9.5 4.75V6.38125C9.5 6.575 9.45625 6.76562 9.36875 6.94062L8.75 8.17812V9.5625C10.3219 9.83125 11.5 10.9312 11.5 12.25C11.5 12.6875 11.3687 13.1031 11.1375 13.4719C10.8812 13.8781 10.9031 14.4719 11.2281 14.8281C11.4125 15.0312 11.5688 15.2562 11.6906 15.4937C11.6188 15.6469 11.5438 15.7938 11.4719 15.9281C11.1969 16.4375 11.0031 17.0406 11.0031 17.6938C11.0031 18.0563 11.0625 18.4062 11.1719 18.7344C10.4344 19.5031 9.29062 20 8 20C5.79063 20 4 18.5438 4 16.75C4 16.0312 4.2875 15.3656 4.775 14.8281C5.09687 14.4719 5.12188 13.8781 4.86563 13.4719C4.63125 13.1031 4.5 12.6875 4.5 12.25C4.5 10.9344 5.67813 9.83437 7.25 9.5625V8.17812L6.63125 6.94062C6.54375 6.76875 6.5 6.575 6.5 6.38125V4.75C6.5 4.33437 6.83437 4 7.25 4ZM8 14.75C8.16415 14.75 8.3267 14.7177 8.47835 14.6548C8.63001 14.592 8.76781 14.5 8.88388 14.3839C8.99996 14.2678 9.09203 14.13 9.15485 13.9784C9.21767 13.8267 9.25 13.6642 9.25 13.5C9.25 13.3358 9.21767 13.1733 9.15485 13.0216C9.09203 12.87 8.99996 12.7322 8.88388 12.6161C8.76781 12.5 8.63001 12.408 8.47835 12.3452C8.3267 12.2823 8.16415 12.25 8 12.25C7.83585 12.25 7.6733 12.2823 7.52165 12.3452C7.36999 12.408 7.23219 12.5 7.11612 12.6161C7.00004 12.7322 6.90797 12.87 6.84515 13.0216C6.78233 13.1733 6.75 13.3358 6.75 13.5C6.75 13.6642 6.78233 13.8267 6.84515 13.9784C6.90797 14.13 7.00004 14.2678 7.11612 14.3839C7.23219 14.5 7.36999 14.592 7.52165 14.6548C7.6733 14.7177 7.83585 14.75 8 14.75ZM15.25 8.64375L14.5813 7.87812C14.375 7.64062 14.2906 7.31875 14.3562 7.00938L14.7906 4.98438C14.9125 4.40938 15.4188 4 16.0063 4C16.6938 4 17.25 4.55625 17.25 5.24375V5.3875C17.25 5.775 17.05 6.11562 16.75 6.31562V11.4656C17.6219 11.3344 17.9875 10.8594 18.1406 10.4875C18.2437 10.2313 18.475 10.0031 18.75 10.0031C19.025 10.0031 19.25 10.2281 19.25 10.5031V11.4187C19.25 11.7812 19.1 12.1312 18.9594 12.4656L18.9438 12.5C18.8406 12.7438 18.75 13.0781 18.75 13.5031C18.75 14.55 19.2812 15.7188 19.65 16.4062C19.8656 16.8031 20 17.2469 20 17.6969C20 18.9719 18.9688 20.0031 17.6938 20.0031H14.3062C13.0312 20 12 18.9688 12 17.6938C12 17.2406 12.1344 16.8 12.35 16.4031C12.7188 15.7156 13.25 14.5469 13.25 13.5C13.25 13.15 13.1875 12.8594 13.1094 12.6313C13.0813 12.5531 13.0531 12.475 13.025 12.3969C12.8906 12.0281 12.75 11.6531 12.75 11.2656V10C12.75 9.725 12.975 9.5 13.25 9.5C13.525 9.5 13.7531 9.725 13.8188 9.99375C13.9406 10.5063 14.2844 11.2594 15.25 11.4531V8.64375ZM14.5 14C14.5 14.275 14.725 14.5 15 14.5H17C17.275 14.5 17.5 14.275 17.5 14C17.5 13.725 17.275 13.5 17 13.5H15C14.725 13.5 14.5 13.725 14.5 14ZM14.5 16C14.5 16.275 14.725 16.5 15 16.5H17C17.275 16.5 17.5 16.275 17.5 16C17.5 15.725 17.275 15.5 17 15.5H15C14.725 15.5 14.5 15.725 14.5 16Z" fill="black"/>
</svg>
