<svg width="24" height="24" viewBox="0 0 24 24" fill="none" xmlns="http://www.w3.org/2000/svg">
<path d="M9.08437 4.07818C8.85313 3.96256 8.575 3.97506 8.35313 4.11256C8.13125 4.25006 8 4.49068 8 4.75006V11.2501C8 11.2907 8.00313 11.3344 8.00938 11.3751C8.00313 11.4157 8 11.4563 8 11.5001V14.4001C5.60938 14.9188 4 15.8907 4 17.0001C4 18.6563 7.58125 20.0001 12 20.0001C16.4187 20.0001 20 18.6563 20 17.0001C20 15.3438 16.4187 14.0001 12 14.0001C11.1281 14.0001 10.2875 14.0532 9.5 14.1501V11.7126L15.5844 8.66881C15.8375 8.54068 16 8.28131 16 7.99693C16 7.71256 15.8406 7.45318 15.5844 7.32506L9.08437 4.07506V4.07818ZM13 17.0001C13 17.5532 12.1031 18.0001 11 18.0001C9.89687 18.0001 9 17.5532 9 17.0001C9 16.4469 9.89687 16.0001 11 16.0001C12.1031 16.0001 13 16.4469 13 17.0001Z" fill="black"/>
</svg>
