<svg width="24" height="24" viewBox="0 0 24 24" fill="none" xmlns="http://www.w3.org/2000/svg">
<path d="M4 12C4 9.87827 4.84285 7.84344 6.34315 6.34315C7.84344 4.84285 9.87827 4 12 4C14.1217 4 16.1566 4.84285 17.6569 6.34315C19.1571 7.84344 20 9.87827 20 12C20 14.1217 19.1571 16.1566 17.6569 17.6569C16.1566 19.1571 14.1217 20 12 20C9.87827 20 7.84344 19.1571 6.34315 17.6569C4.84285 16.1566 4 14.1217 4 12ZM14 15C14 14.1594 13.4844 13.4406 12.75 13.1469V6.75C12.75 6.33437 12.4156 6 12 6C11.5844 6 11.25 6.33437 11.25 6.75V13.1469C10.5156 13.4438 10 14.1625 10 15C10 16.1031 10.8969 17 12 17C13.1031 17 14 16.1031 14 15Z" fill="black"/>
</svg>
