<svg width="24" height="24" viewBox="0 0 24 24" fill="none" xmlns="http://www.w3.org/2000/svg">
<path d="M7.00009 4C6.72196 4 6.45634 4.11562 6.26884 4.31875C6.08134 4.52188 5.98134 4.79375 6.00321 5.07187L6.90321 17.6781C6.99696 18.9875 8.08446 20 9.39696 20H14.6032C15.9157 20 17.0032 18.9875 17.097 17.6781L17.997 5.07187C18.0157 4.79375 17.922 4.52188 17.7313 4.31875C17.5407 4.11562 17.2782 4 17.0001 4H7.00009ZM8.28134 8.89062L8.07509 6H15.9251L15.7188 8.89062L14.9626 9.26875C14.3563 9.57188 13.6438 9.57188 13.0376 9.26875C12.3845 8.94375 11.6157 8.94375 10.9626 9.26875C10.3563 9.57188 9.64384 9.57188 9.03759 9.26875L8.28134 8.89062Z" fill="black"/>
</svg>
