<svg width="24" height="24" viewBox="0 0 24 24" fill="none" xmlns="http://www.w3.org/2000/svg">
<path d="M13.9562 4.29376C13.5655 3.90314 12.9312 3.90314 12.5405 4.29376L8.79053 8.04376C8.3999 8.43439 8.3999 9.06876 8.79053 9.45939L9.29053 9.95939C9.68115 10.35 10.3155 10.35 10.7062 9.95939L10.8312 9.83439L14.1687 13.1688L14.0437 13.2938C13.653 13.6844 13.653 14.3188 14.0437 14.7094L14.5437 15.2094C14.9343 15.6 15.5687 15.6 15.9593 15.2094L19.7093 11.4594C20.0999 11.0688 20.0999 10.4344 19.7093 10.0438L19.2093 9.54376C18.8187 9.15314 18.1843 9.15314 17.7937 9.54376L17.6687 9.66876L14.3312 6.33126L14.4562 6.20626C14.8468 5.81564 14.8468 5.18126 14.4562 4.79064L13.9562 4.29064V4.29376ZM9.20615 13.2938C8.81553 12.9031 8.18115 12.9031 7.79053 13.2938L4.29053 16.7938C3.8999 17.1844 3.8999 17.8188 4.29053 18.2094L5.79053 19.7094C6.18115 20.1 6.81553 20.1 7.20615 19.7094L10.7062 16.2094C11.0968 15.8188 11.0968 15.1844 10.7062 14.7938L10.6624 14.75L12.4999 12.9156L11.0843 11.5L9.2499 13.3344L9.20615 13.2906V13.2938Z" fill="black"/>
</svg>
