<svg width="24" height="24" viewBox="0 0 24 24" fill="none" xmlns="http://www.w3.org/2000/svg">
<path d="M8.26875 4.99996C8.40625 4.60933 8.20312 4.18121 7.8125 4.04371C7.42188 3.90621 6.99375 4.10933 6.85625 4.49996L6.52187 5.44371L6.2125 4.51246C6.08125 4.11871 5.65625 3.90621 5.2625 4.03746C4.86875 4.16871 4.65625 4.59371 4.7875 4.98746L5.04688 5.76871L4.19062 5.14371C3.85625 4.89996 3.3875 4.97496 3.14375 5.30933C2.9 5.64371 2.975 6.11246 3.30938 6.35621L4.19375 6.99996H3.5C2.67188 6.99996 2 7.67183 2 8.49996V18.5C2 19.3281 2.67188 20 3.5 20H8.26875C8.1 19.7062 8 19.3656 8 19V12C8 11.0656 8.64062 10.2812 9.50625 10.0625C9.5625 9.09371 10.0406 8.24371 10.7594 7.68433C10.4906 7.27183 10.0281 6.99996 9.5 6.99996H8.80625L9.69063 6.35621C10.025 6.11246 10.1 5.64371 9.85625 5.30933C9.6125 4.97496 9.14375 4.89996 8.80937 5.14371L8.01562 5.72183L8.26875 4.99996ZM13.3594 9.79683L14.2844 11H12.75C12.3344 11 12 10.6656 12 10.25C12 9.84058 12.3375 9.49996 12.7563 9.49996C12.9938 9.49996 13.2156 9.60933 13.3594 9.79683ZM10.5 10.25C10.5 10.5125 10.5438 10.7656 10.6281 11H10.5C9.67188 11 9 11.6718 9 12.5V15H15V12H16V15H22V12.5C22 11.6718 21.3281 11 20.5 11H20.3719C20.4563 10.7656 20.5 10.5125 20.5 10.25C20.5 9.00308 19.4844 7.99996 18.2437 7.99996C17.5437 7.99996 16.8812 8.32496 16.4531 8.88121L15.5 10.1187L14.5469 8.88121C14.1188 8.32496 13.4531 7.99996 12.7563 7.99996C11.5156 7.99996 10.5 9.00308 10.5 10.25ZM9 18.5C9 19.3281 9.67188 20 10.5 20H15V16H9V18.5ZM16 20H20.5C21.3281 20 22 19.3281 22 18.5V16H16V20ZM19 10.25C19 10.6656 18.6656 11 18.25 11H16.7156L17.6406 9.79683C17.7844 9.61246 18.0062 9.49996 18.2437 9.49996C18.6625 9.49996 19 9.84058 19 10.25Z" fill="black"/>
</svg>
