<svg width="24" height="24" viewBox="0 0 24 24" fill="none" xmlns="http://www.w3.org/2000/svg">
<path d="M7.00003 4C6.7219 4 6.45628 4.11562 6.26878 4.31875C6.08128 4.52187 5.98128 4.79375 6.00315 5.07187L6.90315 17.6781C6.9969 18.9875 8.0844 20 9.3969 20H14.6032C15.9157 20 17.0032 18.9875 17.0969 17.6781L17.9969 5.07187C18.0157 4.79375 17.9219 4.52187 17.7313 4.31875C17.5407 4.11562 17.2782 4 17 4H7.00003ZM8.28128 8.89062L8.07503 6H15.925L15.7188 8.89062L14.9625 9.26875C14.3563 9.57188 13.6438 9.57188 13.0375 9.26875C12.3844 8.94375 11.6157 8.94375 10.9625 9.26875C10.3563 9.57188 9.64378 9.57188 9.03753 9.26875L8.28128 8.89062Z" fill="black"/>
</svg>
