<svg width="24" height="24" viewBox="0 0 24 24" fill="none" xmlns="http://www.w3.org/2000/svg">
<path d="M12 4C11.4469 4 11 4.44687 11 5V6.08437C8.1625 6.55937 6 9.02813 6 12C6 14.9719 8.1625 17.4406 11 17.9156V19C11 19.5531 11.4469 20 12 20C12.5531 20 13 19.5531 13 19V17.9156C15.8375 17.4406 18 14.9719 18 12C18 11.4469 17.5531 11 17 11H13V8.125C13.6906 8.30312 14.3063 8.65938 14.8 9.14375C15.1938 9.53125 15.8281 9.525 16.2156 9.13125C16.6031 8.7375 16.5969 8.10313 16.2 7.71563C15.3437 6.875 14.2344 6.29062 13 6.08437V5C13 4.44687 12.5531 4 12 4ZM11 8.125V15.875C9.275 15.4313 8 13.8656 8 12C8 10.1344 9.275 8.56875 11 8.125ZM13 15.875V13H15.875C15.5125 14.4062 14.4062 15.5125 13 15.875Z" fill="black"/>
</svg>
