<svg width="24" height="24" viewBox="0 0 24 24" fill="none" xmlns="http://www.w3.org/2000/svg">
<path d="M8 11C7.60603 11 7.21593 10.9224 6.85195 10.7716C6.48797 10.6209 6.15726 10.3999 5.87868 10.1213C5.6001 9.84274 5.37913 9.51203 5.22836 9.14805C5.0776 8.78407 5 8.39397 5 8C5 7.60603 5.0776 7.21593 5.22836 6.85195C5.37913 6.48797 5.6001 6.15726 5.87868 5.87868C6.15726 5.6001 6.48797 5.37913 6.85195 5.22836C7.21593 5.0776 7.60603 5 8 5C8.39397 5 8.78407 5.0776 9.14805 5.22836C9.51203 5.37913 9.84274 5.6001 10.1213 5.87868C10.3999 6.15726 10.6209 6.48797 10.7716 6.85195C10.9224 7.21593 11 7.60603 11 8C11 8.39397 10.9224 8.78407 10.7716 9.14805C10.6209 9.51203 10.3999 9.84274 10.1213 10.1213C9.84274 10.3999 9.51203 10.6209 9.14805 10.7716C8.78407 10.9224 8.39397 11 8 11ZM8 19C7.20435 19 6.44129 18.6839 5.87868 18.1213C5.31607 17.5587 5 16.7956 5 16C5 15.2044 5.31607 14.4413 5.87868 13.8787C6.44129 13.3161 7.20435 13 8 13C8.79565 13 9.55871 13.3161 10.1213 13.8787C10.6839 14.4413 11 15.2044 11 16C11 16.7956 10.6839 17.5587 10.1213 18.1213C9.55871 18.6839 8.79565 19 8 19ZM19 8C19 8.79565 18.6839 9.55871 18.1213 10.1213C17.5587 10.6839 16.7956 11 16 11C15.2044 11 14.4413 10.6839 13.8787 10.1213C13.3161 9.55871 13 8.79565 13 8C13 7.20435 13.3161 6.44129 13.8787 5.87868C14.4413 5.31607 15.2044 5 16 5C16.7956 5 17.5587 5.31607 18.1213 5.87868C18.6839 6.44129 19 7.20435 19 8ZM16 12.5C16.4156 12.5 16.75 12.8344 16.75 13.25V15.25H18.75C19.1656 15.25 19.5 15.5844 19.5 16C19.5 16.4156 19.1656 16.75 18.75 16.75H16.75V18.75C16.75 19.1656 16.4156 19.5 16 19.5C15.5844 19.5 15.25 19.1656 15.25 18.75V16.75H13.25C12.8344 16.75 12.5 16.4156 12.5 16C12.5 15.5844 12.8344 15.25 13.25 15.25H15.25V13.25C15.25 12.8344 15.5844 12.5 16 12.5Z" fill="black"/>
</svg>
