<svg width="24" height="24" viewBox="0 0 24 24" fill="none" xmlns="http://www.w3.org/2000/svg">
<path d="M19.4967 9.20625C19.5967 9.47813 19.5123 9.78125 19.2967 9.975L17.9436 11.2063C17.9779 11.4656 17.9967 11.7312 17.9967 12C17.9967 12.2688 17.9779 12.5344 17.9436 12.7937L19.2967 14.025C19.5123 14.2188 19.5967 14.5219 19.4967 14.7937C19.3592 15.1656 19.1936 15.5219 19.0029 15.8656L18.8561 16.1187C18.6498 16.4625 18.4186 16.7875 18.1654 17.0938C17.9811 17.3188 17.6748 17.3937 17.3998 17.3062L15.6592 16.7531C15.2404 17.075 14.7779 17.3438 14.2842 17.5469L13.8936 19.3313C13.8311 19.6156 13.6123 19.8406 13.3248 19.8875C12.8936 19.9594 12.4498 19.9969 11.9967 19.9969C11.5436 19.9969 11.0998 19.9594 10.6686 19.8875C10.3811 19.8406 10.1623 19.6156 10.0998 19.3313L9.70919 17.5469C9.21544 17.3438 8.75294 17.075 8.33419 16.7531L6.59669 17.3094C6.32169 17.3969 6.01544 17.3188 5.83106 17.0969C5.57794 16.7906 5.34669 16.4656 5.14044 16.1219L4.99356 15.8687C4.80294 15.525 4.63731 15.1687 4.49981 14.7969C4.39981 14.525 4.48419 14.2219 4.69981 14.0281L6.05294 12.7969C6.01856 12.5344 5.99981 12.2688 5.99981 12C5.99981 11.7312 6.01856 11.4656 6.05294 11.2063L4.69981 9.975C4.48419 9.78125 4.39981 9.47813 4.49981 9.20625C4.63731 8.83438 4.80294 8.47813 4.99356 8.13438L5.14044 7.88125C5.34669 7.5375 5.57794 7.2125 5.83106 6.90625C6.01544 6.68125 6.32169 6.60625 6.59669 6.69375L8.33731 7.24688C8.75606 6.925 9.21856 6.65625 9.71231 6.45312L10.1029 4.66875C10.1654 4.38437 10.3842 4.15937 10.6717 4.1125C11.1029 4.0375 11.5467 4 11.9998 4C12.4529 4 12.8967 4.0375 13.3279 4.10938C13.6154 4.15625 13.8342 4.38125 13.8967 4.66562L14.2873 6.45C14.7811 6.65313 15.2436 6.92188 15.6623 7.24375L17.4029 6.69062C17.6779 6.60312 17.9842 6.68125 18.1686 6.90313C18.4217 7.20938 18.6529 7.53437 18.8592 7.87812L19.0061 8.13125C19.1967 8.475 19.3623 8.83125 19.4998 9.20312L19.4967 9.20625ZM11.9998 14.5C12.6629 14.5 13.2987 14.2366 13.7676 13.7678C14.2364 13.2989 14.4998 12.663 14.4998 12C14.4998 11.337 14.2364 10.7011 13.7676 10.2322C13.2987 9.76339 12.6629 9.5 11.9998 9.5C11.3368 9.5 10.7009 9.76339 10.232 10.2322C9.7632 10.7011 9.49981 11.337 9.49981 12C9.49981 12.663 9.7632 13.2989 10.232 13.7678C10.7009 14.2366 11.3368 14.5 11.9998 14.5Z" fill="black"/>
</svg>
