<svg width="24" height="24" viewBox="0 0 24 24" fill="none" xmlns="http://www.w3.org/2000/svg">
<path d="M2 9.35311V19.25C2 19.6656 2.33437 20 2.75 20H4.25C4.66563 20 5 19.6656 5 19.25V11C5 10.4469 5.44687 9.99999 6 9.99999H18C18.5531 9.99999 19 10.4469 19 11V19.25C19 19.6656 19.3344 20 19.75 20H21.25C21.6656 20 22 19.6656 22 19.25V9.35311C22 8.53436 21.5031 7.79999 20.7437 7.49686L12.3719 4.14999C12.1344 4.05311 11.8688 4.05311 11.6281 4.14999L3.25625 7.49686C2.49688 7.79999 2 8.53749 2 9.35311ZM6 11V14H18V11H6ZM6 15V20H18V15H6ZM10 17.5C10 17.225 10.225 17 10.5 17H13.5C13.775 17 14 17.225 14 17.5C14 17.775 13.775 18 13.5 18H10.5C10.225 18 10 17.775 10 17.5Z" fill="black"/>
</svg>
