<svg width="24" height="24" viewBox="0 0 24 24" fill="none" xmlns="http://www.w3.org/2000/svg">
<path d="M9.96875 4.00007C10.2969 3.98757 10.5938 4.18757 10.7063 4.49694V4.50007L10.7156 4.52194C10.725 4.54382 10.7375 4.57507 10.7562 4.62194C10.7937 4.71257 10.8562 4.85007 10.9437 5.02194C11.1219 5.36882 11.4062 5.86569 11.825 6.43132C12.6656 7.56257 14.0563 8.97819 16.2406 10.0813C16.7812 10.3532 17.2281 10.7969 17.4937 11.3438C17.6625 11.6844 17.75 12.0626 17.75 12.4376V12.4469V12.4563C17.75 13.8626 16.6094 15.0001 15.2063 15.0001H11.75C11.3344 15.0001 11 14.6657 11 14.2501C11 13.8344 11.3344 13.5001 11.75 13.5001H15.1875C15.7719 13.5001 16.2469 13.0282 16.25 12.4469C16.2469 12.2782 16.2031 12.1126 16.1219 11.9594C16.025 11.8063 15.8813 11.7157 15.7344 11.6907C14.3562 11.4626 11.575 11.4438 8.19062 13.8594C8.18125 13.8657 8.16875 13.8751 8.15937 13.8813C8.075 13.9376 7.98438 13.9719 7.8875 13.9907C7.7875 14.0094 7.68125 14.0094 7.575 13.9844C7.5375 13.9751 7.5 13.9626 7.4625 13.9501C7.44687 13.9438 7.43125 13.9344 7.41562 13.9282C7.3875 13.9157 7.3625 13.9001 7.3375 13.8813C7.3 13.8563 7.26875 13.8313 7.2375 13.8001C7.19375 13.7594 7.15937 13.7157 7.125 13.6688C7.06875 13.5813 7.03125 13.4876 7.0125 13.3907C6.99375 13.2938 6.99687 13.1907 7.01875 13.0907C7.02187 13.0813 7.025 13.0688 7.02813 13.0594L9.275 4.55944C9.35938 4.24069 9.64062 4.01257 9.96875 4.00007ZM7 17.0001C7 16.4469 7.44687 16.0001 8 16.0001H16C16.5531 16.0001 17 16.4469 17 17.0001V18.0001C17.5531 18.0001 18 18.4469 18 19.0001C18 19.5532 17.5531 20.0001 17 20.0001H7C6.44687 20.0001 6 19.5532 6 19.0001C6 18.4469 6.44687 18.0001 7 18.0001V17.0001Z" fill="black"/>
</svg>
