<svg width="24" height="24" viewBox="0 0 24 24" fill="none" xmlns="http://www.w3.org/2000/svg">
<path d="M11.6406 8.22813C11.8625 8.03125 11.95 7.72188 11.8344 7.44688C11.7625 7.28125 11.6844 7.11875 11.5969 6.9625L11.5 6.79375C11.4062 6.6375 11.3031 6.48438 11.1937 6.3375C11.0156 6.1 10.7031 6.02187 10.4219 6.11562L9.54062 6.40625C9.20625 6.13125 8.82187 5.90625 8.40937 5.75312L8.21875 4.84688C8.15937 4.55625 7.93437 4.325 7.64062 4.29063C7.43437 4.2625 7.225 4.25 7.0125 4.25H6.99062C6.77812 4.25 6.56875 4.2625 6.3625 4.2875C6.06875 4.32187 5.84375 4.55625 5.78437 4.84375L5.59375 5.75312C5.17812 5.90937 4.79687 6.13125 4.4625 6.40625L3.57812 6.11875C3.29687 6.025 2.98437 6.10313 2.80625 6.34063C2.69687 6.4875 2.59375 6.64062 2.49687 6.79688L2.40312 6.9625C2.31562 7.11875 2.2375 7.28125 2.16562 7.45C2.05 7.72188 2.1375 8.03125 2.35937 8.23125L3.05312 8.85C3.01875 9.05937 3 9.27813 3 9.5C3 9.72187 3.01875 9.94062 3.05312 10.1531L2.35937 10.7719C2.1375 10.9687 2.05 11.2781 2.16562 11.5531C2.2375 11.7187 2.31562 11.8812 2.40312 12.0406L2.49687 12.2031C2.59062 12.3625 2.69375 12.5125 2.80625 12.6594C2.98437 12.8969 3.29687 12.975 3.57812 12.8813L4.45937 12.5906C4.79375 12.8656 5.17812 13.0906 5.59062 13.2437L5.78125 14.1531C5.84062 14.4437 6.06562 14.675 6.35937 14.7094C6.56875 14.7344 6.78125 14.7469 6.99687 14.7469C7.2125 14.7469 7.425 14.7344 7.63437 14.7094C7.92812 14.675 8.15312 14.4406 8.2125 14.1531L8.40312 13.2437C8.81875 13.0875 9.2 12.8656 9.53437 12.5906L10.4156 12.8813C10.6969 12.975 11.0094 12.8969 11.1875 12.6594C11.2969 12.5125 11.4 12.3625 11.4937 12.2031L11.5906 12.0344C11.6781 11.8781 11.7562 11.7156 11.8281 11.55C11.9437 11.2781 11.8562 10.9688 11.6344 10.7688L10.9406 10.15C10.975 9.9375 10.9937 9.71875 10.9937 9.49687C10.9937 9.275 10.975 9.05625 10.9406 8.84375L11.6344 8.225L11.6406 8.22813ZM5.5 9.5C5.5 9.10218 5.65803 8.72064 5.93934 8.43934C6.22064 8.15804 6.60217 8 7 8C7.39782 8 7.77935 8.15804 8.06066 8.43934C8.34196 8.72064 8.5 9.10218 8.5 9.5C8.5 9.89782 8.34196 10.2794 8.06066 10.5607C7.77935 10.842 7.39782 11 7 11C6.60217 11 6.22064 10.842 5.93934 10.5607C5.65803 10.2794 5.5 9.89782 5.5 9.5ZM17.7719 19.6406C17.9687 19.8625 18.2781 19.95 18.5531 19.8344C18.7187 19.7625 18.8812 19.6844 19.0375 19.5969L19.2062 19.5C19.3625 19.4062 19.5156 19.3031 19.6625 19.1938C19.9 19.0156 19.9781 18.7031 19.8844 18.4219L19.5937 17.5406C19.8687 17.2062 20.0937 16.8219 20.2469 16.4094L21.1562 16.2188C21.4469 16.1594 21.6781 15.9344 21.7125 15.6406C21.7375 15.4313 21.75 15.2188 21.75 15.0031C21.75 14.7875 21.7375 14.575 21.7125 14.3656C21.6781 14.0719 21.4437 13.8469 21.1562 13.7875L20.2469 13.5938C20.0906 13.1781 19.8687 12.7969 19.5937 12.4625L19.8844 11.5813C19.9781 11.3 19.9 10.9875 19.6625 10.8094C19.5156 10.7 19.3625 10.5969 19.2062 10.5L19.0406 10.4062C18.8844 10.3188 18.7219 10.2406 18.5531 10.1687C18.2812 10.0531 17.9719 10.1406 17.7719 10.3625L17.1531 11.0563C16.9406 11.0219 16.7219 11.0031 16.5 11.0031C16.2781 11.0031 16.0594 11.0219 15.8469 11.0563L15.2281 10.3625C15.0312 10.1406 14.7219 10.0531 14.4469 10.1687C14.2812 10.2406 14.1187 10.3188 13.9594 10.4062L13.7969 10.5C13.6375 10.5938 13.4875 10.6969 13.3406 10.8094C13.1031 10.9875 13.025 11.3 13.1187 11.5813L13.4094 12.4625C13.1344 12.7969 12.9094 13.1813 12.7562 13.5938L11.8469 13.7812C11.5562 13.8406 11.325 14.0656 11.2906 14.3594C11.2656 14.5687 11.2531 14.7812 11.2531 14.9969C11.2531 15.2125 11.2656 15.425 11.2906 15.6344C11.325 15.9281 11.5594 16.1531 11.8469 16.2125L12.7562 16.4031C12.9125 16.8187 13.1344 17.2 13.4094 17.5344L13.1187 18.4156C13.025 18.6969 13.1031 19.0094 13.3406 19.1875C13.4875 19.2969 13.6375 19.4 13.7969 19.4937L13.9656 19.5906C14.1219 19.6781 14.2844 19.7563 14.45 19.8281C14.7219 19.9438 15.0312 19.8562 15.2312 19.6344L15.85 18.9406C16.0625 18.975 16.2812 18.9937 16.5031 18.9937C16.725 18.9937 16.9437 18.975 17.1562 18.9406L17.775 19.6344L17.7719 19.6406ZM16.5 13.5C16.697 13.5 16.892 13.5388 17.074 13.6142C17.256 13.6896 17.4214 13.8001 17.5607 13.9393C17.6999 14.0786 17.8104 14.244 17.8858 14.426C17.9612 14.608 18 14.803 18 15C18 15.197 17.9612 15.392 17.8858 15.574C17.8104 15.756 17.6999 15.9214 17.5607 16.0607C17.4214 16.1999 17.256 16.3104 17.074 16.3858C16.892 16.4612 16.697 16.5 16.5 16.5C16.303 16.5 16.108 16.4612 15.926 16.3858C15.744 16.3104 15.5786 16.1999 15.4393 16.0607C15.3 15.9214 15.1896 15.756 15.1142 15.574C15.0388 15.392 15 15.197 15 15C15 14.803 15.0388 14.608 15.1142 14.426C15.1896 14.244 15.3 14.0786 15.4393 13.9393C15.5786 13.8001 15.744 13.6896 15.926 13.6142C16.108 13.5388 16.303 13.5 16.5 13.5Z" fill="black"/>
</svg>
