<svg width="24" height="24" viewBox="0 0 24 24" fill="none" xmlns="http://www.w3.org/2000/svg">
<path d="M9.08437 4.07806C8.85313 3.96243 8.575 3.97493 8.35313 4.11243C8.13125 4.24993 8 4.49056 8 4.74993V11.2499C8 11.2906 8.00313 11.3343 8.00938 11.3749C8.00313 11.4156 8 11.4562 8 11.4999V14.3999C5.60938 14.9187 4 15.8906 4 16.9999C4 18.6562 7.58125 19.9999 12 19.9999C16.4187 19.9999 20 18.6562 20 16.9999C20 15.3437 16.4187 13.9999 12 13.9999C11.1281 13.9999 10.2875 14.0531 9.5 14.1499V11.7124L15.5844 8.66868C15.8375 8.54056 16 8.28118 16 7.99681C16 7.71243 15.8406 7.45306 15.5844 7.32493L9.08437 4.07493V4.07806ZM13 16.9999C13 17.5531 12.1031 17.9999 11 17.9999C9.89687 17.9999 9 17.5531 9 16.9999C9 16.4468 9.89687 15.9999 11 15.9999C12.1031 15.9999 13 16.4468 13 16.9999Z" fill="black"/>
</svg>
