<svg width="24" height="24" viewBox="0 0 24 24" fill="none" xmlns="http://www.w3.org/2000/svg">
<path d="M18.0002 8.5C18.0002 7.11875 16.8815 6 15.5002 6C14.6815 6 13.9565 6.39375 13.5002 7H11.2565C11.8752 5.25312 13.5409 4 15.5002 4C17.9846 4 20.0002 6.01562 20.0002 8.5C20.0002 10.95 18.044 12.9406 15.6096 13L15.8127 10.9812C17.0471 10.8281 18.0002 9.775 18.0002 8.5ZM11.7909 11L11.7877 11.0406L11.7596 11H11.7909ZM4.25962 8.32812C4.44712 8.11875 4.71899 8 5.00024 8H14.0002C14.2815 8 14.5534 8.11875 14.7409 8.32812C14.9284 8.5375 15.0221 8.81875 14.994 9.1L14.0846 18.2C13.9846 19.2219 13.1221 20 12.094 20H6.90649C5.87837 20 5.01899 19.2219 4.91587 18.2L4.00649 9.1C3.97837 8.81875 4.06899 8.5375 4.25962 8.32812ZM6.10649 10L6.30649 12H12.694L12.894 10H6.10649Z" fill="black"/>
</svg>
