<svg width="24" height="24" viewBox="0 0 24 24" fill="none" xmlns="http://www.w3.org/2000/svg">
<path d="M9 8.25C9 7.55937 8.44063 7 7.75 7H6.25C5.55937 7 5 7.55937 5 8.25V9.75C5 10.4406 5.55937 11 6.25 11H7.75C8.44063 11 9 10.4406 9 9.75V8.25ZM9 14.25C9 13.5594 8.44063 13 7.75 13H6.25C5.55937 13 5 13.5594 5 14.25V15.75C5 16.4406 5.55937 17 6.25 17H7.75C8.44063 17 9 16.4406 9 15.75V14.25ZM10 8.25V9.75C10 10.4406 10.5594 11 11.25 11H12.75C13.4406 11 14 10.4406 14 9.75V8.25C14 7.55937 13.4406 7 12.75 7H11.25C10.5594 7 10 7.55937 10 8.25ZM14 14.25C14 13.5594 13.4406 13 12.75 13H11.25C10.5594 13 10 13.5594 10 14.25V15.75C10 16.4406 10.5594 17 11.25 17H12.75C13.4406 17 14 16.4406 14 15.75V14.25ZM15 8.25V9.75C15 10.4406 15.5594 11 16.25 11H17.75C18.4406 11 19 10.4406 19 9.75V8.25C19 7.55937 18.4406 7 17.75 7H16.25C15.5594 7 15 7.55937 15 8.25ZM19 14.25C19 13.5594 18.4406 13 17.75 13H16.25C15.5594 13 15 13.5594 15 14.25V15.75C15 16.4406 15.5594 17 16.25 17H17.75C18.4406 17 19 16.4406 19 15.75V14.25Z" fill="black"/>
</svg>
