<svg width="24" height="24" viewBox="0 0 24 24" fill="none" xmlns="http://www.w3.org/2000/svg">
<path d="M7.00009 4C6.72196 4 6.45634 4.11562 6.26884 4.31875C6.08134 4.52188 5.98134 4.79375 6.00321 5.07187L6.90321 17.6781C6.99696 18.9875 8.08446 20 9.39696 20H14.6032C15.9157 20 17.0032 18.9875 17.097 17.6781L17.997 5.07187C18.0157 4.79375 17.922 4.52188 17.7313 4.31875C17.5407 4.11562 17.2782 4 17.0001 4H7.00009ZM8.59384 13.2969L8.07509 6H15.9251L15.4063 13.2969L15.0001 13.5C14.372 13.8156 13.6282 13.8156 13.0001 13.5C12.372 13.1844 11.6282 13.1844 11.0001 13.5C10.372 13.8156 9.62821 13.8156 9.00009 13.5L8.59384 13.2969ZM14.0001 10.125C14.0001 9.375 12.947 7.93438 12.3688 7.20312C12.1782 6.9625 11.822 6.9625 11.6313 7.20312C11.0532 7.93438 10.0001 9.375 10.0001 10.125C10.0001 11.1594 10.897 12 12.0001 12C13.1032 12 14.0001 11.1594 14.0001 10.125Z" fill="black"/>
</svg>
