<svg width="24" height="24" viewBox="0 0 24 24" fill="none" xmlns="http://www.w3.org/2000/svg">
<path d="M7 6C7 6.26522 6.89464 6.51957 6.70711 6.70711C6.51957 6.89464 6.26522 7 6 7C5.73478 7 5.48043 6.89464 5.29289 6.70711C5.10536 6.51957 5 6.26522 5 6C5 5.73478 5.10536 5.48043 5.29289 5.29289C5.48043 5.10536 5.73478 5 6 5C6.26522 5 6.51957 5.10536 6.70711 5.29289C6.89464 5.48043 7 5.73478 7 6ZM7 9C7 9.26522 6.89464 9.51957 6.70711 9.70711C6.51957 9.89464 6.26522 10 6 10C5.73478 10 5.48043 9.89464 5.29289 9.70711C5.10536 9.51957 5 9.26522 5 9C5 8.73478 5.10536 8.48043 5.29289 8.29289C5.48043 8.10536 5.73478 8 6 8C6.26522 8 6.51957 8.10536 6.70711 8.29289C6.89464 8.48043 7 8.73478 7 9ZM6 13C5.73478 13 5.48043 12.8946 5.29289 12.7071C5.10536 12.5196 5 12.2652 5 12C5 11.7348 5.10536 11.4804 5.29289 11.2929C5.48043 11.1054 5.73478 11 6 11C6.26522 11 6.51957 11.1054 6.70711 11.2929C6.89464 11.4804 7 11.7348 7 12C7 12.2652 6.89464 12.5196 6.70711 12.7071C6.51957 12.8946 6.26522 13 6 13ZM7 15C7 15.2652 6.89464 15.5196 6.70711 15.7071C6.51957 15.8946 6.26522 16 6 16C5.73478 16 5.48043 15.8946 5.29289 15.7071C5.10536 15.5196 5 15.2652 5 15C5 14.7348 5.10536 14.4804 5.29289 14.2929C5.48043 14.1054 5.73478 14 6 14C6.26522 14 6.51957 14.1054 6.70711 14.2929C6.89464 14.4804 7 14.7348 7 15ZM6 19C5.73478 19 5.48043 18.8946 5.29289 18.7071C5.10536 18.5196 5 18.2652 5 18C5 17.7348 5.10536 17.4804 5.29289 17.2929C5.48043 17.1054 5.73478 17 6 17C6.26522 17 6.51957 17.1054 6.70711 17.2929C6.89464 17.4804 7 17.7348 7 18C7 18.2652 6.89464 18.5196 6.70711 18.7071C6.51957 18.8946 6.26522 19 6 19ZM10 6C10 6.26522 9.89464 6.51957 9.70711 6.70711C9.51957 6.89464 9.26522 7 9 7C8.73478 7 8.48043 6.89464 8.29289 6.70711C8.10536 6.51957 8 6.26522 8 6C8 5.73478 8.10536 5.48043 8.29289 5.29289C8.48043 5.10536 8.73478 5 9 5C9.26522 5 9.51957 5.10536 9.70711 5.29289C9.89464 5.48043 10 5.73478 10 6ZM9 10C8.73478 10 8.48043 9.89464 8.29289 9.70711C8.10536 9.51957 8 9.26522 8 9C8 8.73478 8.10536 8.48043 8.29289 8.29289C8.48043 8.10536 8.73478 8 9 8C9.26522 8 9.51957 8.10536 9.70711 8.29289C9.89464 8.48043 10 8.73478 10 9C10 9.26522 9.89464 9.51957 9.70711 9.70711C9.51957 9.89464 9.26522 10 9 10ZM10 12C10 12.2652 9.89464 12.5196 9.70711 12.7071C9.51957 12.8946 9.26522 13 9 13C8.73478 13 8.48043 12.8946 8.29289 12.7071C8.10536 12.5196 8 12.2652 8 12C8 11.7348 8.10536 11.4804 8.29289 11.2929C8.48043 11.1054 8.73478 11 9 11C9.26522 11 9.51957 11.1054 9.70711 11.2929C9.89464 11.4804 10 11.7348 10 12ZM9 16C8.73478 16 8.48043 15.8946 8.29289 15.7071C8.10536 15.5196 8 15.2652 8 15C8 14.7348 8.10536 14.4804 8.29289 14.2929C8.48043 14.1054 8.73478 14 9 14C9.26522 14 9.51957 14.1054 9.70711 14.2929C9.89464 14.4804 10 14.7348 10 15C10 15.2652 9.89464 15.5196 9.70711 15.7071C9.51957 15.8946 9.26522 16 9 16ZM10 18C10 18.2652 9.89464 18.5196 9.70711 18.7071C9.51957 18.8946 9.26522 19 9 19C8.73478 19 8.48043 18.8946 8.29289 18.7071C8.10536 18.5196 8 18.2652 8 18C8 17.7348 8.10536 17.4804 8.29289 17.2929C8.48043 17.1054 8.73478 17 9 17C9.26522 17 9.51957 17.1054 9.70711 17.2929C9.89464 17.4804 10 17.7348 10 18ZM12 7C11.7348 7 11.4804 6.89464 11.2929 6.70711C11.1054 6.51957 11 6.26522 11 6C11 5.73478 11.1054 5.48043 11.2929 5.29289C11.4804 5.10536 11.7348 5 12 5C12.2652 5 12.5196 5.10536 12.7071 5.29289C12.8946 5.48043 13 5.73478 13 6C13 6.26522 12.8946 6.51957 12.7071 6.70711C12.5196 6.89464 12.2652 7 12 7ZM13 9C13 9.26522 12.8946 9.51957 12.7071 9.70711C12.5196 9.89464 12.2652 10 12 10C11.7348 10 11.4804 9.89464 11.2929 9.70711C11.1054 9.51957 11 9.26522 11 9C11 8.73478 11.1054 8.48043 11.2929 8.29289C11.4804 8.10536 11.7348 8 12 8C12.2652 8 12.5196 8.10536 12.7071 8.29289C12.8946 8.48043 13 8.73478 13 9ZM12 13C11.7348 13 11.4804 12.8946 11.2929 12.7071C11.1054 12.5196 11 12.2652 11 12C11 11.7348 11.1054 11.4804 11.2929 11.2929C11.4804 11.1054 11.7348 11 12 11C12.2652 11 12.5196 11.1054 12.7071 11.2929C12.8946 11.4804 13 11.7348 13 12C13 12.2652 12.8946 12.5196 12.7071 12.7071C12.5196 12.8946 12.2652 13 12 13ZM13 15C13 15.2652 12.8946 15.5196 12.7071 15.7071C12.5196 15.8946 12.2652 16 12 16C11.7348 16 11.4804 15.8946 11.2929 15.7071C11.1054 15.5196 11 15.2652 11 15C11 14.7348 11.1054 14.4804 11.2929 14.2929C11.4804 14.1054 11.7348 14 12 14C12.2652 14 12.5196 14.1054 12.7071 14.2929C12.8946 14.4804 13 14.7348 13 15ZM12 19C11.7348 19 11.4804 18.8946 11.2929 18.7071C11.1054 18.5196 11 18.2652 11 18C11 17.7348 11.1054 17.4804 11.2929 17.2929C11.4804 17.1054 11.7348 17 12 17C12.2652 17 12.5196 17.1054 12.7071 17.2929C12.8946 17.4804 13 17.7348 13 18C13 18.2652 12.8946 18.5196 12.7071 18.7071C12.5196 18.8946 12.2652 19 12 19ZM16 6C16 6.26522 15.8946 6.51957 15.7071 6.70711C15.5196 6.89464 15.2652 7 15 7C14.7348 7 14.4804 6.89464 14.2929 6.70711C14.1054 6.51957 14 6.26522 14 6C14 5.73478 14.1054 5.48043 14.2929 5.29289C14.4804 5.10536 14.7348 5 15 5C15.2652 5 15.5196 5.10536 15.7071 5.29289C15.8946 5.48043 16 5.73478 16 6ZM15 10C14.7348 10 14.4804 9.89464 14.2929 9.70711C14.1054 9.51957 14 9.26522 14 9C14 8.73478 14.1054 8.48043 14.2929 8.29289C14.4804 8.10536 14.7348 8 15 8C15.2652 8 15.5196 8.10536 15.7071 8.29289C15.8946 8.48043 16 8.73478 16 9C16 9.26522 15.8946 9.51957 15.7071 9.70711C15.5196 9.89464 15.2652 10 15 10ZM16 12C16 12.2652 15.8946 12.5196 15.7071 12.7071C15.5196 12.8946 15.2652 13 15 13C14.7348 13 14.4804 12.8946 14.2929 12.7071C14.1054 12.5196 14 12.2652 14 12C14 11.7348 14.1054 11.4804 14.2929 11.2929C14.4804 11.1054 14.7348 11 15 11C15.2652 11 15.5196 11.1054 15.7071 11.2929C15.8946 11.4804 16 11.7348 16 12ZM15 16C14.7348 16 14.4804 15.8946 14.2929 15.7071C14.1054 15.5196 14 15.2652 14 15C14 14.7348 14.1054 14.4804 14.2929 14.2929C14.4804 14.1054 14.7348 14 15 14C15.2652 14 15.5196 14.1054 15.7071 14.2929C15.8946 14.4804 16 14.7348 16 15C16 15.2652 15.8946 15.5196 15.7071 15.7071C15.5196 15.8946 15.2652 16 15 16ZM16 18C16 18.2652 15.8946 18.5196 15.7071 18.7071C15.5196 18.8946 15.2652 19 15 19C14.7348 19 14.4804 18.8946 14.2929 18.7071C14.1054 18.5196 14 18.2652 14 18C14 17.7348 14.1054 17.4804 14.2929 17.2929C14.4804 17.1054 14.7348 17 15 17C15.2652 17 15.5196 17.1054 15.7071 17.2929C15.8946 17.4804 16 17.7348 16 18ZM18 7C17.7348 7 17.4804 6.89464 17.2929 6.70711C17.1054 6.51957 17 6.26522 17 6C17 5.73478 17.1054 5.48043 17.2929 5.29289C17.4804 5.10536 17.7348 5 18 5C18.2652 5 18.5196 5.10536 18.7071 5.29289C18.8946 5.48043 19 5.73478 19 6C19 6.26522 18.8946 6.51957 18.7071 6.70711C18.5196 6.89464 18.2652 7 18 7ZM19 9C19 9.26522 18.8946 9.51957 18.7071 9.70711C18.5196 9.89464 18.2652 10 18 10C17.7348 10 17.4804 9.89464 17.2929 9.70711C17.1054 9.51957 17 9.26522 17 9C17 8.73478 17.1054 8.48043 17.2929 8.29289C17.4804 8.10536 17.7348 8 18 8C18.2652 8 18.5196 8.10536 18.7071 8.29289C18.8946 8.48043 19 8.73478 19 9ZM18 13C17.7348 13 17.4804 12.8946 17.2929 12.7071C17.1054 12.5196 17 12.2652 17 12C17 11.7348 17.1054 11.4804 17.2929 11.2929C17.4804 11.1054 17.7348 11 18 11C18.2652 11 18.5196 11.1054 18.7071 11.2929C18.8946 11.4804 19 11.7348 19 12C19 12.2652 18.8946 12.5196 18.7071 12.7071C18.5196 12.8946 18.2652 13 18 13ZM19 15C19 15.2652 18.8946 15.5196 18.7071 15.7071C18.5196 15.8946 18.2652 16 18 16C17.7348 16 17.4804 15.8946 17.2929 15.7071C17.1054 15.5196 17 15.2652 17 15C17 14.7348 17.1054 14.4804 17.2929 14.2929C17.4804 14.1054 17.7348 14 18 14C18.2652 14 18.5196 14.1054 18.7071 14.2929C18.8946 14.4804 19 14.7348 19 15ZM18 19C17.7348 19 17.4804 18.8946 17.2929 18.7071C17.1054 18.5196 17 18.2652 17 18C17 17.7348 17.1054 17.4804 17.2929 17.2929C17.4804 17.1054 17.7348 17 18 17C18.2652 17 18.5196 17.1054 18.7071 17.2929C18.8946 17.4804 19 17.7348 19 18C19 18.2652 18.8946 18.5196 18.7071 18.7071C18.5196 18.8946 18.2652 19 18 19Z" fill="black"/>
</svg>
