<svg width="24" height="24" viewBox="0 0 24 24" fill="none" xmlns="http://www.w3.org/2000/svg">
<path d="M10.2844 6.24718C10.8126 6.09093 11.1157 5.53156 10.9563 5.00343C10.7969 4.47531 10.2407 4.17218 9.71256 4.33156C9.04069 4.53156 8.40631 4.81593 7.81881 5.17531C7.57194 5.06281 7.29381 5.00031 7.00006 5.00031C5.89694 5.00031 5.00006 5.89718 5.00006 7.00031C5.00006 7.29406 5.06256 7.57218 5.17506 7.82218C4.81569 8.40656 4.53131 9.04093 4.33131 9.71593C4.17506 10.2441 4.47506 10.8034 5.00319 10.9597C5.53131 11.1159 6.09069 10.8159 6.24694 10.2878C6.38131 9.83156 6.57194 9.39718 6.80631 8.99406C6.86881 9.00031 6.93444 9.00343 6.99694 9.00343C8.10006 9.00343 8.99694 8.10656 8.99694 7.00343C8.99694 6.93781 8.99381 6.87531 8.98756 6.81281C9.39069 6.57843 9.82506 6.38781 10.2813 6.25343L10.2844 6.24718ZM14.2844 4.33156C13.7563 4.17531 13.1969 4.47531 13.0407 5.00343C12.8844 5.53156 13.1844 6.09093 13.7126 6.24718C14.1688 6.38156 14.6032 6.57218 15.0063 6.80656C15.0001 6.86906 14.9969 6.93468 14.9969 6.99718C14.9969 8.10031 15.8938 8.99718 16.9969 8.99718C17.0626 8.99718 17.1251 8.99406 17.1907 8.98781C17.4251 9.39093 17.6157 9.82531 17.7501 10.2816C17.9063 10.8097 18.4657 11.1128 18.9938 10.9534C19.5219 10.7941 19.8251 10.2378 19.6657 9.70968C19.4657 9.03781 19.1813 8.40343 18.8219 7.81593C18.9344 7.56593 18.9969 7.28781 18.9969 6.99406C18.9969 5.89093 18.1001 4.99406 16.9969 4.99406C16.7032 4.99406 16.4251 5.05656 16.1751 5.16906C15.5907 4.80968 14.9563 4.52531 14.2813 4.32531L14.2844 4.33156ZM6.24694 13.7159C6.09069 13.1878 5.53131 12.8847 5.00319 13.0441C4.47506 13.2034 4.17194 13.7597 4.33131 14.2878C4.53131 14.9597 4.81569 15.5941 5.17506 16.1816C5.06256 16.4284 5.00006 16.7066 5.00006 17.0003C5.00006 18.1034 5.89694 19.0003 7.00006 19.0003C7.29381 19.0003 7.57194 18.9378 7.82194 18.8253C8.40631 19.1847 9.04069 19.4691 9.71569 19.6691C10.2438 19.8253 10.8032 19.5253 10.9594 18.9972C11.1157 18.4691 10.8157 17.9097 10.2876 17.7534C9.83131 17.6191 9.39694 17.4284 8.99381 17.1941C9.00006 17.1316 9.00319 17.0659 9.00319 17.0003C9.00319 15.8972 8.10631 15.0003 7.00319 15.0003C6.93756 15.0003 6.87506 15.0034 6.80944 15.0097C6.57506 14.6066 6.38444 14.1722 6.25006 13.7159H6.24694ZM19.6657 14.2878C19.8219 13.7597 19.5219 13.2003 18.9938 13.0441C18.4657 12.8878 17.9063 13.1878 17.7501 13.7159C17.6157 14.1722 17.4251 14.6066 17.1907 15.0097C17.1282 15.0034 17.0626 15.0003 16.9969 15.0003C15.8938 15.0003 14.9969 15.8972 14.9969 17.0003C14.9969 17.0659 15.0001 17.1284 15.0063 17.1941C14.6032 17.4284 14.1688 17.6191 13.7126 17.7534C13.1844 17.9097 12.8813 18.4691 13.0407 18.9972C13.2001 19.5253 13.7563 19.8284 14.2844 19.6691C14.9563 19.4691 15.5907 19.1847 16.1782 18.8253C16.4282 18.9378 16.7063 19.0003 17.0001 19.0003C18.1032 19.0003 19.0001 18.1034 19.0001 17.0003C19.0001 16.7066 18.9376 16.4284 18.8251 16.1784C19.1844 15.5941 19.4688 14.9597 19.6688 14.2847L19.6657 14.2878ZM10.0251 12.0253C10.0251 11.5378 10.2001 11.0909 10.4907 10.7409L10.9688 11.2191C11.1751 11.4253 11.5251 11.2784 11.5251 10.9878V9.10031C11.5251 8.92218 11.3782 8.77531 11.2001 8.77531H9.30944C9.01881 8.77531 8.87506 9.12531 9.07819 9.33156L9.42819 9.68156C8.86881 10.3003 8.52506 11.1253 8.52506 12.0284C8.52506 13.3909 9.30319 14.5691 10.4344 15.1472C10.8032 15.3347 11.2563 15.1909 11.4438 14.8222C11.6313 14.4534 11.4876 14.0003 11.1188 13.8128C10.4688 13.4816 10.0282 12.8066 10.0282 12.0316L10.0251 12.0253ZM12.9344 10.1941C13.5844 10.5253 14.0251 11.2003 14.0251 11.9753C14.0251 12.4628 13.8501 12.9097 13.5594 13.2597L13.0813 12.7816C12.8751 12.5753 12.5251 12.7222 12.5251 13.0128V14.9034C12.5251 15.0816 12.6719 15.2284 12.8501 15.2284H14.7407C15.0313 15.2284 15.1751 14.8784 14.9719 14.6722L14.6219 14.3222C15.1813 13.7034 15.5251 12.8784 15.5251 11.9753C15.5251 10.6128 14.7469 9.43468 13.6157 8.85656C13.2469 8.66906 12.7938 8.81281 12.6063 9.18156C12.4188 9.55031 12.5626 10.0034 12.9313 10.1909L12.9344 10.1941Z" fill="black"/>
</svg>
