<svg width="24" height="24" viewBox="0 0 24 24" fill="none" xmlns="http://www.w3.org/2000/svg">
<path d="M2 9.35311V19.25C2 19.6656 2.33437 20 2.75 20H4.25C4.66563 20 5 19.6656 5 19.25V11C5 10.4469 5.44687 9.99999 6 9.99999H18C18.5531 9.99999 19 10.4469 19 11V19.25C19 19.6656 19.3344 20 19.75 20H21.25C21.6656 20 22 19.6656 22 19.25V9.35311C22 8.53436 21.5031 7.79999 20.7437 7.49686L12.3719 4.14999C12.1344 4.05311 11.8688 4.05311 11.6281 4.14999L3.25625 7.49686C2.49688 7.79999 2 8.53749 2 9.35311ZM8.06563 14L7.90312 14.4687C7.36562 14.7656 7 15.3406 7 16V19C7 19.5531 7.44687 20 8 20C8.55313 20 9 19.5531 9 19V18.5H15V19C15 19.5531 15.4469 20 16 20C16.5531 20 17 19.5531 17 19V16C17 15.3406 16.6344 14.7656 16.0969 14.4687L15.9344 14H14.3438L14.4312 14.25H9.56875L9.65625 14H8.06563ZM9.5 15.75C9.59849 15.75 9.69602 15.7694 9.78701 15.8071C9.87801 15.8448 9.96069 15.9 10.0303 15.9697C10.1 16.0393 10.1552 16.122 10.1929 16.213C10.2306 16.304 10.25 16.4015 10.25 16.5C10.25 16.5985 10.2306 16.696 10.1929 16.787C10.1552 16.878 10.1 16.9607 10.0303 17.0303C9.96069 17.1 9.87801 17.1552 9.78701 17.1929C9.69602 17.2306 9.59849 17.25 9.5 17.25C9.40151 17.25 9.30398 17.2306 9.21299 17.1929C9.12199 17.1552 9.03931 17.1 8.96967 17.0303C8.90003 16.9607 8.84478 16.878 8.80709 16.787C8.7694 16.696 8.75 16.5985 8.75 16.5C8.75 16.4015 8.7694 16.304 8.80709 16.213C8.84478 16.122 8.90003 16.0393 8.96967 15.9697C9.03931 15.9 9.12199 15.8448 9.21299 15.8071C9.30398 15.7694 9.40151 15.75 9.5 15.75ZM13.75 16.5C13.75 16.4015 13.7694 16.304 13.8071 16.213C13.8448 16.122 13.9 16.0393 13.9697 15.9697C14.0393 15.9 14.122 15.8448 14.213 15.8071C14.304 15.7694 14.4015 15.75 14.5 15.75C14.5985 15.75 14.696 15.7694 14.787 15.8071C14.878 15.8448 14.9607 15.9 15.0303 15.9697C15.1 16.0393 15.1552 16.122 15.1929 16.213C15.2306 16.304 15.25 16.4015 15.25 16.5C15.25 16.5985 15.2306 16.696 15.1929 16.787C15.1552 16.878 15.1 16.9607 15.0303 17.0303C14.9607 17.1 14.878 17.1552 14.787 17.1929C14.696 17.2306 14.5985 17.25 14.5 17.25C14.4015 17.25 14.304 17.2306 14.213 17.1929C14.122 17.1552 14.0393 17.1 13.9697 17.0303C13.9 16.9607 13.8448 16.878 13.8071 16.787C13.7694 16.696 13.75 16.5985 13.75 16.5ZM18 11H6V13H18V11Z" fill="black"/>
</svg>
