<svg width="24" height="24" viewBox="0 0 24 24" fill="none" xmlns="http://www.w3.org/2000/svg">
<path d="M5 6.25C5 5.55937 5.55937 5 6.25 5H17.75C18.4406 5 19 5.55937 19 6.25V7C19 9.80625 17.3469 12.2281 14.9625 13.3438L16.9375 17.9531C17.1 18.3344 16.925 18.775 16.5437 18.9375C16.1625 19.1 15.7219 18.925 15.5594 18.5437L14.8969 17H10C10 18.1031 9.10312 19 8 19C6.89688 19 6 18.1031 6 17C6 15.8969 6.89688 15 8 15C8.10625 15 8.2125 15.0094 8.31562 15.025L9.0375 13.3438C6.65312 12.2281 5 9.80625 5 7V6.25ZM9.74375 15.5H14.2563L13.5406 13.8313C13.0437 13.9438 12.5312 14 12 14C11.4688 14 10.9562 13.9406 10.4594 13.8313L9.74375 15.5ZM8 17.75C8.19891 17.75 8.38968 17.671 8.53033 17.5303C8.67098 17.3897 8.75 17.1989 8.75 17C8.75 16.8011 8.67098 16.6103 8.53033 16.4697C8.38968 16.329 8.19891 16.25 8 16.25C7.80109 16.25 7.61032 16.329 7.46967 16.4697C7.32902 16.6103 7.25 16.8011 7.25 17C7.25 17.1989 7.32902 17.3897 7.46967 17.5303C7.61032 17.671 7.80109 17.75 8 17.75Z" fill="black"/>
</svg>
