<svg width="24" height="24" viewBox="0 0 24 24" fill="none" xmlns="http://www.w3.org/2000/svg">
<path d="M19.5 5.75C19.5 5.33437 19.1656 5 18.75 5C18.3344 5 18 5.33437 18 5.75V6H4C3.44687 6 3 6.44687 3 7V10.5C3 11.0531 3.44687 11.5 4 11.5H4.3125C4.9625 11.5 5.44062 12.1125 5.28125 12.7437L4.03125 17.7563C3.95625 18.0563 4.025 18.3719 4.2125 18.6156C4.4 18.8594 4.69062 19 5 19H8C8.45937 19 8.85938 18.6875 8.96875 18.2437L9.78125 15H13.0437C13.7844 15 14.4438 14.5344 14.6906 13.8375L15.5281 11.5H16.5C16.7656 11.5 17.0188 11.3938 17.2063 11.2063L17.9156 10.5H20C20.5531 10.5 21 10.0531 21 9.5V7C21 6.44687 20.5531 6 20 6H19.5V5.75ZM13.0437 13.5H10.1562L10.6562 11.5H13.9375L13.2812 13.3344C13.2469 13.4344 13.15 13.5 13.0469 13.5H13.0437ZM5.5 8H17.5C17.775 8 18 8.225 18 8.5C18 8.775 17.775 9 17.5 9H5.5C5.225 9 5 8.775 5 8.5C5 8.225 5.225 8 5.5 8Z" fill="black"/>
</svg>
