<svg width="24" height="24" viewBox="0 0 24 24" fill="none" xmlns="http://www.w3.org/2000/svg">
<path d="M7.64689 5.05625C7.78751 4.86562 8.01251 4.75 8.25001 4.75H15.75C15.9875 4.75 16.2125 4.8625 16.3531 5.05625L19.8531 9.80625C20.0656 10.0938 20.0438 10.4906 19.8063 10.7562L12.5563 18.7563C12.4156 18.9125 12.2125 19.0031 12 19.0031C11.7875 19.0031 11.5875 18.9125 11.4438 18.7563L4.19376 10.7562C3.95314 10.4906 3.93439 10.0938 4.14689 9.80625L7.64689 5.05625ZM8.85001 6.3C8.74689 6.37812 8.71876 6.51875 8.78439 6.62812L10.5781 9.61562L5.97814 10C5.85001 10.0094 5.75001 10.1188 5.75001 10.25C5.75001 10.3812 5.85001 10.4875 5.97814 10.5L11.9781 11C11.9906 11 12.0063 11 12.0188 11L18.0188 10.5C18.1469 10.4906 18.2469 10.3812 18.2469 10.25C18.2469 10.1188 18.1469 10.0125 18.0188 10L13.4219 9.61875L15.2156 6.63125C15.2813 6.52187 15.2531 6.37812 15.15 6.30312C15.0469 6.22812 14.9031 6.24062 14.8156 6.33437L12 9.38125L9.18439 6.33125C9.09689 6.2375 8.95314 6.225 8.85001 6.3Z" fill="black"/>
</svg>
