<svg width="24" height="24" viewBox="0 0 24 24" fill="none" xmlns="http://www.w3.org/2000/svg">
<path d="M5.46885 15.4687C5.1751 15.7625 5.1751 16.2375 5.46885 16.5281C5.7626 16.8187 6.2376 16.8218 6.52822 16.5281L7.10635 15.95C8.17822 16.8156 9.44697 17.3187 10.747 17.4593V18.5H7.7501C7.33447 18.5 7.0001 18.8343 7.0001 19.25C7.0001 19.6656 7.33447 20 7.7501 20H15.2501C15.6657 20 16.0001 19.6656 16.0001 19.25C16.0001 18.8343 15.6657 18.5 15.2501 18.5H12.2501V17.4593C13.7845 17.2937 15.2751 16.625 16.4501 15.45C19.0032 12.8968 19.172 8.8562 16.9532 6.10933L17.5313 5.5312C17.8251 5.23745 17.8251 4.76245 17.5313 4.47183C17.2376 4.1812 16.7626 4.17808 16.472 4.47183L15.3907 5.54995C15.097 5.8437 15.097 6.3187 15.3907 6.60933C17.5376 8.7562 17.5376 12.2406 15.3907 14.3875C13.2438 16.5343 9.75947 16.5343 7.6126 14.3875C7.31885 14.0937 6.84385 14.0937 6.55322 14.3875L5.46885 15.4687ZM11.5001 15C12.091 15 12.6762 14.8836 13.2222 14.6574C13.7681 14.4313 14.2642 14.0998 14.6821 13.6819C15.0999 13.2641 15.4314 12.768 15.6576 12.222C15.8837 11.6761 16.0001 11.0909 16.0001 10.5C16.0001 9.909 15.8837 9.32384 15.6576 8.77788C15.4314 8.23191 15.0999 7.73584 14.6821 7.31797C14.2642 6.90011 13.7681 6.56864 13.2222 6.34249C12.6762 6.11635 12.091 5.99995 11.5001 5.99995C10.9091 5.99995 10.324 6.11635 9.77802 6.34249C9.23206 6.56864 8.73598 6.90011 8.31812 7.31797C7.90025 7.73584 7.56879 8.23191 7.34264 8.77788C7.11649 9.32384 7.0001 9.909 7.0001 10.5C7.0001 11.0909 7.11649 11.6761 7.34264 12.222C7.56879 12.768 7.90025 13.2641 8.31812 13.6819C8.73598 14.0998 9.23206 14.4313 9.77802 14.6574C10.324 14.8836 10.9091 15 11.5001 15Z" fill="black"/>
</svg>
