<svg width="24" height="24" viewBox="0 0 24 24" fill="none" xmlns="http://www.w3.org/2000/svg">
<path d="M8.26875 5.00002C8.40625 4.60939 8.20312 4.18127 7.8125 4.04377C7.42188 3.90627 6.99375 4.10939 6.85625 4.50002L6.52187 5.44377L6.2125 4.51252C6.08125 4.11877 5.65625 3.90627 5.2625 4.03752C4.86875 4.16877 4.65625 4.59377 4.7875 4.98752L5.04688 5.76877L4.19062 5.14377C3.85625 4.90002 3.3875 4.97502 3.14375 5.30939C2.9 5.64377 2.975 6.11252 3.30938 6.35627L4.19375 7.00002H3.5C2.67188 7.00002 2 7.67189 2 8.50002V18.5C2 19.3281 2.67188 20 3.5 20H8.26875C8.1 19.7063 8 19.3656 8 19V12C8 11.0656 8.64062 10.2813 9.50625 10.0625C9.5625 9.09377 10.0406 8.24377 10.7594 7.68439C10.4906 7.27189 10.0281 7.00002 9.5 7.00002H8.80625L9.69063 6.35627C10.025 6.11252 10.1 5.64377 9.85625 5.30939C9.6125 4.97502 9.14375 4.90002 8.80937 5.14377L8.01562 5.72189L8.26875 5.00002ZM13.3594 9.79689L14.2844 11H12.75C12.3344 11 12 10.6656 12 10.25C12 9.84064 12.3375 9.50002 12.7563 9.50002C12.9938 9.50002 13.2156 9.60939 13.3594 9.79689ZM10.5 10.25C10.5 10.5125 10.5437 10.7656 10.6281 11H10.5C9.67188 11 9 11.6719 9 12.5V15H15V12H16V15H22V12.5C22 11.6719 21.3281 11 20.5 11H20.3719C20.4563 10.7656 20.5 10.5125 20.5 10.25C20.5 9.00314 19.4844 8.00002 18.2437 8.00002C17.5437 8.00002 16.8813 8.32502 16.4531 8.88127L15.5 10.1188L14.5469 8.88127C14.1187 8.32502 13.4531 8.00002 12.7563 8.00002C11.5156 8.00002 10.5 9.00314 10.5 10.25ZM9 18.5C9 19.3281 9.67188 20 10.5 20H15V16H9V18.5ZM16 20H20.5C21.3281 20 22 19.3281 22 18.5V16H16V20ZM19 10.25C19 10.6656 18.6656 11 18.25 11H16.7156L17.6406 9.79689C17.7844 9.61252 18.0063 9.50002 18.2437 9.50002C18.6625 9.50002 19 9.84064 19 10.25Z" fill="black"/>
</svg>
