<svg width="24" height="24" viewBox="0 0 24 24" fill="none" xmlns="http://www.w3.org/2000/svg">
<path d="M9.96875 3.99994C10.2969 3.98744 10.5938 4.18744 10.7063 4.49682V4.49994L10.7156 4.52182C10.725 4.54369 10.7375 4.57494 10.7562 4.62182C10.7937 4.71244 10.8562 4.84994 10.9437 5.02182C11.1219 5.36869 11.4062 5.86557 11.825 6.43119C12.6656 7.56244 14.0563 8.97807 16.2406 10.0812C16.7813 10.3531 17.2281 10.7968 17.4937 11.3437C17.6625 11.6843 17.75 12.0624 17.75 12.4374V12.4468V12.4562C17.75 13.8624 16.6094 14.9999 15.2063 14.9999H11.75C11.3344 14.9999 11 14.6656 11 14.2499C11 13.8343 11.3344 13.4999 11.75 13.4999H15.1875C15.7719 13.4999 16.2469 13.0281 16.25 12.4468C16.2469 12.2781 16.2031 12.1124 16.1219 11.9593C16.025 11.8062 15.8812 11.7156 15.7344 11.6906C14.3563 11.4624 11.575 11.4437 8.19062 13.8593C8.18125 13.8656 8.16875 13.8749 8.15937 13.8812C8.075 13.9374 7.98438 13.9718 7.8875 13.9906C7.7875 14.0093 7.68125 14.0093 7.575 13.9843C7.5375 13.9749 7.5 13.9624 7.4625 13.9499C7.44687 13.9437 7.43125 13.9343 7.41562 13.9281C7.3875 13.9156 7.3625 13.8999 7.3375 13.8812C7.3 13.8562 7.26875 13.8312 7.2375 13.7999C7.19375 13.7593 7.15938 13.7156 7.125 13.6687C7.06875 13.5812 7.03125 13.4874 7.0125 13.3906C6.99375 13.2937 6.99687 13.1906 7.01875 13.0906C7.02187 13.0812 7.025 13.0687 7.02813 13.0593L9.275 4.55932C9.35938 4.24057 9.64062 4.01244 9.96875 3.99994ZM7 16.9999C7 16.4468 7.44687 15.9999 8 15.9999H16C16.5531 15.9999 17 16.4468 17 16.9999V17.9999C17.5531 17.9999 18 18.4468 18 18.9999C18 19.5531 17.5531 19.9999 17 19.9999H7C6.44687 19.9999 6 19.5531 6 18.9999C6 18.4468 6.44687 17.9999 7 17.9999V16.9999Z" fill="black"/>
</svg>
