<svg width="24" height="24" viewBox="0 0 24 24" fill="none" xmlns="http://www.w3.org/2000/svg">
<path d="M13.9562 4.29376C13.5656 3.90314 12.9312 3.90314 12.5406 4.29376L8.79062 8.04376C8.39999 8.43439 8.39999 9.06876 8.79062 9.45939L9.29062 9.95939C9.68124 10.35 10.3156 10.35 10.7062 9.95939L10.8312 9.83439L14.1687 13.1688L14.0437 13.2938C13.6531 13.6844 13.6531 14.3188 14.0437 14.7094L14.5437 15.2094C14.9344 15.6 15.5687 15.6 15.9594 15.2094L19.7094 11.4594C20.1 11.0688 20.1 10.4344 19.7094 10.0438L19.2094 9.54376C18.8187 9.15314 18.1844 9.15314 17.7937 9.54376L17.6687 9.66876L14.3312 6.33126L14.4562 6.20626C14.8469 5.81564 14.8469 5.18126 14.4562 4.79064L13.9562 4.29064V4.29376ZM9.20624 13.2938C8.81562 12.9031 8.18124 12.9031 7.79062 13.2938L4.29062 16.7938C3.89999 17.1844 3.89999 17.8188 4.29062 18.2094L5.79062 19.7094C6.18124 20.1 6.81562 20.1 7.20624 19.7094L10.7062 16.2094C11.0969 15.8188 11.0969 15.1844 10.7062 14.7938L10.6625 14.75L12.5 12.9156L11.0844 11.5L9.24999 13.3344L9.20624 13.2906V13.2938Z" fill="black"/>
</svg>
