<svg width="24" height="24" viewBox="0 0 24 24" fill="none" xmlns="http://www.w3.org/2000/svg">
<path d="M14.9999 12C14.9999 12.6938 14.9624 13.3625 14.8968 14H12.8062L13.1999 12.6625C13.5343 11.525 12.478 10.4656 11.3374 10.8L9.00615 11.4844C9.01865 10.975 9.05303 10.4781 9.10303 10H14.8968C14.9655 10.6375 14.9999 11.3063 14.9999 12ZM4.6374 12.7688C4.41553 12.8344 4.22803 12.9406 4.07178 13.0781C4.0249 12.725 3.9999 12.3656 3.9999 12C3.9999 11.3094 4.0874 10.6406 4.25303 10H8.0999C8.04053 10.575 8.00928 11.1687 8.00303 11.7812L4.6374 12.7688ZM11.2312 19.3625L12.5124 15H14.7593C14.5687 16.1375 14.2749 17.1438 13.9155 17.9563C13.5874 18.6938 13.2218 19.2281 12.8687 19.5656C12.5187 19.9 12.228 20 11.9999 20C11.7749 20 11.4905 19.9031 11.1468 19.5813C11.178 19.5125 11.2062 19.4375 11.2312 19.3594V19.3625ZM15.8999 10H19.7468C19.9124 10.6406 19.9999 11.3094 19.9999 12C19.9999 12.6906 19.9124 13.3594 19.7468 14H15.8999C15.9655 13.3562 15.9999 12.6875 15.9999 12C15.9999 11.3125 15.9655 10.6438 15.8999 10ZM19.4187 9H15.7718C15.4593 7.00312 14.8405 5.33125 14.0437 4.2625C16.4905 4.90938 18.4812 6.68438 19.4155 9H19.4187ZM9.24053 9C9.43115 7.8625 9.7249 6.85625 10.0843 6.04063C10.4124 5.30313 10.778 4.76875 11.1312 4.43125C11.4812 4.1 11.7718 4 11.9999 4C12.228 4 12.5187 4.1 12.8687 4.43125C13.2218 4.76875 13.5874 5.30313 13.9155 6.04063C14.278 6.85313 14.5687 7.85938 14.7593 9H9.24053ZM8.22803 9H4.58115C5.51865 6.68438 7.50615 4.90938 9.95615 4.2625C9.15928 5.33125 8.54053 7.00312 8.22803 9ZM19.4187 15C18.4812 17.3156 16.4937 19.0906 14.0468 19.7375C14.8437 18.6687 15.4593 16.9969 15.7749 15H19.4187ZM5.21865 13.6406L11.6187 11.7594C11.9968 11.6469 12.3499 12 12.2405 12.3813L10.3593 18.7812C10.2312 19.2156 9.63428 19.2688 9.43115 18.8625L8.53428 17.0719C8.5124 17.0312 8.4874 16.9906 8.45615 16.9563L5.70615 19.7063C5.31553 20.0969 4.68115 20.0969 4.29053 19.7063C3.8999 19.3156 3.8999 18.6812 4.29053 18.2906L7.04053 15.5406C7.00615 15.5094 6.96865 15.4812 6.9249 15.4625L5.1374 14.5688C4.73115 14.3656 4.78428 13.7688 5.21865 13.6406Z" fill="black"/>
</svg>
