<svg width="24" height="24" viewBox="0 0 24 24" fill="none" xmlns="http://www.w3.org/2000/svg">
<path d="M6.99997 4C6.72184 4 6.45622 4.11562 6.26872 4.31875C6.08122 4.52187 5.98122 4.79375 6.00309 5.07187L6.90309 17.6781C6.99684 18.9875 8.08434 20 9.39684 20H14.6031C15.9156 20 17.0031 18.9875 17.0968 17.6781L17.9968 5.07187C18.0156 4.79375 17.9218 4.52187 17.7312 4.31875C17.5406 4.11562 17.2781 4 17 4H6.99997ZM8.59372 13.2969L8.07497 6H15.925L15.4062 13.2969L15 13.5C14.3718 13.8156 13.6281 13.8156 13 13.5C12.3718 13.1844 11.6281 13.1844 11 13.5C10.3718 13.8156 9.62809 13.8156 8.99997 13.5L8.59372 13.2969ZM14 10.125C14 9.375 12.9468 7.93437 12.3687 7.20312C12.1781 6.9625 11.8218 6.9625 11.6312 7.20312C11.0531 7.93437 9.99997 9.375 9.99997 10.125C9.99997 11.1594 10.8968 12 12 12C13.1031 12 14 11.1594 14 10.125Z" fill="black"/>
</svg>
