<svg width="24" height="24" viewBox="0 0 24 24" fill="none" xmlns="http://www.w3.org/2000/svg">
<path d="M9.96875 4.00055C10.2969 3.98805 10.5938 4.18805 10.7063 4.49743V4.50055L10.7156 4.52243C10.725 4.5443 10.7375 4.57555 10.7562 4.62243C10.7937 4.71305 10.8562 4.85055 10.9437 5.02243C11.1219 5.3693 11.4062 5.86618 11.825 6.4318C12.6656 7.56305 14.0563 8.97868 16.2406 10.0818C16.7812 10.3537 17.2281 10.7974 17.4937 11.3443C17.6625 11.6849 17.75 12.0631 17.75 12.4381V12.4474V12.4568C17.75 13.8631 16.6094 15.0006 15.2063 15.0006H11.75C11.3344 15.0006 11 14.6662 11 14.2506C11 13.8349 11.3344 13.5006 11.75 13.5006H15.1875C15.7719 13.5006 16.2469 13.0287 16.25 12.4474C16.2469 12.2787 16.2031 12.1131 16.1219 11.9599C16.025 11.8068 15.8813 11.7162 15.7344 11.6912C14.3562 11.4631 11.575 11.4443 8.19062 13.8599C8.18125 13.8662 8.16875 13.8756 8.15937 13.8818C8.075 13.9381 7.98438 13.9724 7.8875 13.9912C7.7875 14.0099 7.68125 14.0099 7.575 13.9849C7.5375 13.9756 7.5 13.9631 7.4625 13.9506C7.44687 13.9443 7.43125 13.9349 7.41562 13.9287C7.3875 13.9162 7.3625 13.9006 7.3375 13.8818C7.3 13.8568 7.26875 13.8318 7.2375 13.8006C7.19375 13.7599 7.15937 13.7162 7.125 13.6693C7.06875 13.5818 7.03125 13.4881 7.0125 13.3912C6.99375 13.2943 6.99687 13.1912 7.01875 13.0912C7.02187 13.0818 7.025 13.0693 7.02813 13.0599L9.275 4.55993C9.35938 4.24118 9.64062 4.01305 9.96875 4.00055ZM7 17.0006C7 16.4474 7.44687 16.0006 8 16.0006H16C16.5531 16.0006 17 16.4474 17 17.0006V18.0006C17.5531 18.0006 18 18.4474 18 19.0006C18 19.5537 17.5531 20.0006 17 20.0006H7C6.44687 20.0006 6 19.5537 6 19.0006C6 18.4474 6.44687 18.0006 7 18.0006V17.0006Z" fill="black"/>
</svg>
