<svg width="24" height="24" viewBox="0 0 24 24" fill="none" xmlns="http://www.w3.org/2000/svg">
<path d="M13.9562 4.29297C13.5655 3.90234 12.9312 3.90234 12.5405 4.29297L8.79053 8.04297C8.3999 8.43359 8.3999 9.06797 8.79053 9.45859L9.29053 9.95859C9.68115 10.3492 10.3155 10.3492 10.7062 9.95859L10.8312 9.83359L14.1687 13.168L14.0437 13.293C13.653 13.6836 13.653 14.318 14.0437 14.7086L14.5437 15.2086C14.9343 15.5992 15.5687 15.5992 15.9593 15.2086L19.7093 11.4586C20.0999 11.068 20.0999 10.4336 19.7093 10.043L19.2093 9.54297C18.8187 9.15234 18.1843 9.15234 17.7937 9.54297L17.6687 9.66797L14.3312 6.33047L14.4562 6.20547C14.8468 5.81484 14.8468 5.18047 14.4562 4.78984L13.9562 4.28984V4.29297ZM9.20615 13.293C8.81553 12.9023 8.18115 12.9023 7.79053 13.293L4.29053 16.793C3.8999 17.1836 3.8999 17.818 4.29053 18.2086L5.79053 19.7086C6.18115 20.0992 6.81553 20.0992 7.20615 19.7086L10.7062 16.2086C11.0968 15.818 11.0968 15.1836 10.7062 14.793L10.6624 14.7492L12.4999 12.9148L11.0843 11.4992L9.2499 13.3336L9.20615 13.2898V13.293Z" fill="black"/>
</svg>
