<svg width="24" height="24" viewBox="0 0 24 24" fill="none" xmlns="http://www.w3.org/2000/svg">
<path d="M19 6V13H5V6H19ZM5 4C3.89688 4 3 4.89688 3 6V13C3 14.1031 3.89688 15 5 15H19C20.1031 15 21 14.1031 21 13V6C21 4.89688 20.1031 4 19 4H5ZM3 18V19C3 19.5531 3.44687 20 4 20H5C5.55312 20 6 19.5531 6 19V18C6 17.4469 5.55312 17 5 17H4C3.44687 17 3 17.4469 3 18ZM9 17C8.44688 17 8 17.4469 8 18V19C8 19.5531 8.44688 20 9 20H10C10.5531 20 11 19.5531 11 19V18C11 17.4469 10.5531 17 10 17H9ZM13 18V19C13 19.5531 13.4469 20 14 20H15C15.5531 20 16 19.5531 16 19V18C16 17.4469 15.5531 17 15 17H14C13.4469 17 13 17.4469 13 18ZM19 17C18.4469 17 18 17.4469 18 18V19C18 19.5531 18.4469 20 19 20H20C20.5531 20 21 19.5531 21 19V18C21 17.4469 20.5531 17 20 17H19Z" fill="black"/>
</svg>
