<svg width="24" height="24" viewBox="0 0 24 24" fill="none" xmlns="http://www.w3.org/2000/svg">
<path d="M9 9.25C9 8.55937 8.44062 8 7.75 8H6.25C5.55937 8 5 8.55937 5 9.25V10.75C5 11.4406 5.55937 12 6.25 12H7.75C8.44062 12 9 11.4406 9 10.75V9.25ZM9 14.25C9 13.5594 8.44062 13 7.75 13H6.25C5.55937 13 5 13.5594 5 14.25V15.75C5 16.4406 5.55937 17 6.25 17H7.75C8.44062 17 9 16.4406 9 15.75V14.25ZM10 9.25V10.75C10 11.4406 10.5594 12 11.25 12H12.75C13.4406 12 14 11.4406 14 10.75V9.25C14 8.55937 13.4406 8 12.75 8H11.25C10.5594 8 10 8.55937 10 9.25ZM14 14.25C14 13.5594 13.4406 13 12.75 13H11.25C10.5594 13 10 13.5594 10 14.25V15.75C10 16.4406 10.5594 17 11.25 17H12.75C13.4406 17 14 16.4406 14 15.75V14.25ZM15 9.25V10.75C15 11.4406 15.5594 12 16.25 12H17.75C18.4406 12 19 11.4406 19 10.75V9.25C19 8.55937 18.4406 8 17.75 8H16.25C15.5594 8 15 8.55937 15 9.25ZM19 14.25C19 13.5594 18.4406 13 17.75 13H16.25C15.5594 13 15 13.5594 15 14.25V15.75C15 16.4406 15.5594 17 16.25 17H17.75C18.4406 17 19 16.4406 19 15.75V14.25Z" fill="black"/>
</svg>
