<svg width="24" height="24" viewBox="0 0 24 24" fill="none" xmlns="http://www.w3.org/2000/svg">
<path d="M13.9563 4.29376C13.5656 3.90314 12.9313 3.90314 12.5406 4.29376L8.79065 8.04376C8.40002 8.43439 8.40002 9.06876 8.79065 9.45939L9.29065 9.95939C9.68127 10.35 10.3156 10.35 10.7063 9.95939L10.8313 9.83439L14.1688 13.1688L14.0438 13.2938C13.6531 13.6844 13.6531 14.3188 14.0438 14.7094L14.5438 15.2094C14.9344 15.6 15.5688 15.6 15.9594 15.2094L19.7094 11.4594C20.1 11.0688 20.1 10.4344 19.7094 10.0438L19.2094 9.54376C18.8188 9.15314 18.1844 9.15314 17.7938 9.54376L17.6688 9.66876L14.3313 6.33126L14.4563 6.20626C14.8469 5.81564 14.8469 5.18126 14.4563 4.79064L13.9563 4.29064V4.29376ZM9.20627 13.2938C8.81565 12.9031 8.18127 12.9031 7.79065 13.2938L4.29065 16.7938C3.90002 17.1844 3.90002 17.8188 4.29065 18.2094L5.79065 19.7094C6.18127 20.1 6.81565 20.1 7.20627 19.7094L10.7063 16.2094C11.0969 15.8188 11.0969 15.1844 10.7063 14.7938L10.6625 14.75L12.5 12.9156L11.0844 11.5L9.25002 13.3344L9.20627 13.2906V13.2938Z" fill="black"/>
</svg>
