<svg width="24" height="24" viewBox="0 0 24 24" fill="none" xmlns="http://www.w3.org/2000/svg">
<path d="M3 6.25C3 5.55937 3.55937 5 4.25 5H15.75C16.4406 5 17 5.55937 17 6.25V7C17 7.75313 16.8813 8.47813 16.6594 9.15938C16.3938 8.89063 16.1219 8.62813 15.8406 8.375C15.2875 7.875 14.4437 7.875 13.8875 8.37187C12.7812 9.35937 11.8375 10.4875 11.1594 11.5844C10.6906 12.3437 10.2938 13.1781 10.1094 14C10.0719 14 10.0344 14 9.99687 14C9.46875 14 8.95313 13.9406 8.45625 13.8313L7.74375 15.5H10.025C10.0719 16.0188 10.1875 16.5219 10.3594 17H8C8 18.1031 7.10312 19 6 19C4.89688 19 4 18.1031 4 17C4 15.8969 4.89688 15 6 15C6.10625 15 6.2125 15.0094 6.31562 15.025L7.0375 13.3438C4.65312 12.2281 3 9.80625 3 7V6.25ZM6 17.75C6.19891 17.75 6.38968 17.671 6.53033 17.5303C6.67098 17.3897 6.75 17.1989 6.75 17C6.75 16.8011 6.67098 16.6103 6.53033 16.4697C6.38968 16.329 6.19891 16.25 6 16.25C5.80109 16.25 5.61032 16.329 5.46967 16.4697C5.32902 16.6103 5.25 16.8011 5.25 17C5.25 17.1989 5.32902 17.3897 5.46967 17.5303C5.61032 17.671 5.80109 17.75 6 17.75ZM16 20C13.2375 20 11 17.7625 11 15C11 12.6031 12.9531 10.4781 14.35 9.39375C14.5063 9.27188 14.6906 9.2125 14.875 9.2125C15.1219 9.20938 15.375 9.30938 15.5625 9.5L17 10.9375L17.3531 10.5844C17.7187 10.2187 18.3094 10.1875 18.675 10.5531C20.5156 12.375 21 14.0063 21 15C21 17.7625 18.7625 20 16 20ZM18 16.5063C18 15.3656 16.8438 14.225 16.2875 13.7437C16.1188 13.5969 15.8781 13.5969 15.7094 13.7437C15.1563 14.2219 14 15.3625 14 16.5063C14 17.6094 14.8969 18.5063 16 18.5063C17.1031 18.5063 18 17.6094 18 16.5063Z" fill="black"/>
</svg>
