<svg width="24" height="24" viewBox="0 0 24 24" fill="none" xmlns="http://www.w3.org/2000/svg">
<path d="M18 10C18 12.0875 16.9344 13.925 15.3188 15H8.68125C7.06563 13.925 6 12.0875 6 10C6 6.6875 8.6875 4 12 4C15.3125 4 18 6.6875 18 10ZM13.5656 12.0188C13.5656 12.5969 13.0969 13.0656 12.5188 13.0656C12.3656 13.0656 12.2344 13.225 12.35 13.3281C12.5344 13.4906 12.7781 13.5906 13.0406 13.5906C13.6188 13.5906 14.0875 13.1219 14.0875 12.5437C14.0875 12.2781 13.9875 12.0375 13.825 11.8531C13.7219 11.7375 13.5625 11.8688 13.5625 12.0219L13.5656 12.0188ZM11.9313 10.4781C11.7781 10.4781 11.6469 10.6375 11.7625 10.7406C11.9469 10.9031 12.1906 11.0031 12.4531 11.0031C13.0312 11.0031 13.5 10.5344 13.5 9.95625C13.5 9.69063 13.4 9.45 13.2375 9.26562C13.1344 9.15 12.975 9.28125 12.975 9.43437C12.975 10.0125 12.5062 10.4812 11.9281 10.4812L11.9313 10.4781ZM15.4781 9.93125C15.4781 10.5094 15.0094 10.9781 14.4312 10.9781C14.2781 10.9781 14.1469 11.1375 14.2625 11.2406C14.4469 11.4031 14.6906 11.5031 14.9531 11.5031C15.5312 11.5031 16 11.0344 16 10.4563C16 10.1906 15.9 9.95 15.7375 9.76562C15.6344 9.65 15.475 9.78125 15.475 9.93437L15.4781 9.93125ZM9 17C9 16.4469 9.44688 16 10 16H12H14C14.5531 16 15 16.4469 15 17C15 17.5531 14.5531 18 14 18H13.5C13.225 18 13 18.225 13 18.5V19C13 19.5531 12.5531 20 12 20C11.4469 20 11 19.5531 11 19V18.5C11 18.225 10.775 18 10.5 18H10C9.44688 18 9 17.5531 9 17Z" fill="black"/>
</svg>
