<svg width="24" height="24" viewBox="0 0 24 24" fill="none" xmlns="http://www.w3.org/2000/svg">
<path d="M19.4969 9.20625C19.5969 9.47813 19.5126 9.78125 19.2969 9.975L17.9438 11.2063C17.9782 11.4656 17.9969 11.7312 17.9969 12C17.9969 12.2688 17.9782 12.5344 17.9438 12.7937L19.2969 14.025C19.5126 14.2187 19.5969 14.5219 19.4969 14.7937C19.3594 15.1656 19.1938 15.5219 19.0032 15.8656L18.8563 16.1187C18.6501 16.4625 18.4188 16.7875 18.1657 17.0938C17.9813 17.3187 17.6751 17.3937 17.4001 17.3062L15.6594 16.7531C15.2407 17.075 14.7782 17.3438 14.2844 17.5469L13.8938 19.3313C13.8313 19.6156 13.6126 19.8406 13.3251 19.8875C12.8938 19.9594 12.4501 19.9969 11.9969 19.9969C11.5438 19.9969 11.1001 19.9594 10.6688 19.8875C10.3813 19.8406 10.1626 19.6156 10.1001 19.3313L9.70943 17.5469C9.21568 17.3438 8.75318 17.075 8.33443 16.7531L6.59693 17.3094C6.32193 17.3969 6.01568 17.3188 5.83131 17.0969C5.57818 16.7906 5.34693 16.4656 5.14068 16.1219L4.99381 15.8687C4.80318 15.525 4.63756 15.1687 4.50006 14.7969C4.40006 14.525 4.48443 14.2219 4.70006 14.0281L6.05318 12.7969C6.01881 12.5344 6.00006 12.2688 6.00006 12C6.00006 11.7312 6.01881 11.4656 6.05318 11.2063L4.70006 9.975C4.48443 9.78125 4.40006 9.47813 4.50006 9.20625C4.63756 8.83438 4.80318 8.47813 4.99381 8.13438L5.14068 7.88125C5.34693 7.5375 5.57818 7.2125 5.83131 6.90625C6.01568 6.68125 6.32193 6.60625 6.59693 6.69375L8.33756 7.24688C8.75631 6.925 9.21881 6.65625 9.71256 6.45312L10.1032 4.66875C10.1657 4.38437 10.3844 4.15937 10.6719 4.1125C11.1032 4.0375 11.5469 4 12.0001 4C12.4532 4 12.8969 4.0375 13.3282 4.10938C13.6157 4.15625 13.8344 4.38125 13.8969 4.66562L14.2876 6.45C14.7813 6.65313 15.2438 6.92188 15.6626 7.24375L17.4032 6.69062C17.6782 6.60312 17.9844 6.68125 18.1688 6.90313C18.4219 7.20938 18.6532 7.53437 18.8594 7.87812L19.0063 8.13125C19.1969 8.475 19.3626 8.83125 19.5001 9.20312L19.4969 9.20625ZM12.9907 9.08437C13.0376 8.8125 12.8532 8.55313 12.5782 8.50938C12.3032 8.46563 12.0469 8.64687 12.0032 8.92188L11.0032 14.9219C10.9563 15.1937 11.1407 15.4531 11.4157 15.4969C11.6907 15.5406 11.9469 15.3594 11.9907 15.0844L12.9907 9.08437ZM9.85318 11.1031C10.0469 10.9094 10.0469 10.5906 9.85318 10.3969C9.65943 10.2031 9.34068 10.2031 9.14693 10.3969L7.89693 11.6469C7.70318 11.8406 7.70318 12.1594 7.89693 12.3531L9.14693 13.6031C9.34068 13.7969 9.65943 13.7969 9.85318 13.6031C10.0469 13.4094 10.0469 13.0906 9.85318 12.8969L8.95631 12L9.85318 11.1031ZM14.8532 10.3969C14.6594 10.2031 14.3407 10.2031 14.1469 10.3969C13.9532 10.5906 13.9532 10.9094 14.1469 11.1031L15.0438 12L14.1469 12.8969C13.9532 13.0906 13.9532 13.4094 14.1469 13.6031C14.3407 13.7969 14.6594 13.7969 14.8532 13.6031L16.1032 12.3531C16.2969 12.1594 16.2969 11.8406 16.1032 11.6469L14.8532 10.3969Z" fill="black"/>
</svg>
