<svg width="24" height="24" viewBox="0 0 24 24" fill="none" xmlns="http://www.w3.org/2000/svg">
<path d="M3.21255 4.15955C2.88755 3.9033 2.41568 3.96268 2.15943 4.28768C1.90318 4.61268 1.96255 5.08455 2.28755 5.3408L20.7876 19.8408C21.1126 20.0971 21.5844 20.0377 21.8407 19.7127C22.0969 19.3877 22.0376 18.9158 21.7126 18.6596L14.8844 13.3064L15.5282 11.5002H16.5001C16.7657 11.5002 17.0188 11.3939 17.2063 11.2064L17.9157 10.5002H20.0001C20.5532 10.5002 21.0001 10.0533 21.0001 9.50018V7.00018C21.0001 6.44705 20.5532 6.00018 20.0001 6.00018H19.5001V5.75018C19.5001 5.33455 19.1657 5.00018 18.7501 5.00018C18.3344 5.00018 18.0001 5.33455 18.0001 5.75018V6.00018H5.55943L3.21255 4.15955ZM8.11255 8.00018H17.5001C17.7751 8.00018 18.0001 8.22518 18.0001 8.50018C18.0001 8.77518 17.7751 9.00018 17.5001 9.00018H9.38755L8.11255 8.00018ZM12.5782 11.5002H13.9344L13.6376 12.3314L12.5782 11.5002ZM12.1532 15.0002L10.2501 13.5002H10.1563L10.1719 13.4377L3.00005 7.78768V10.5002C3.00005 11.0533 3.44693 11.5002 4.00005 11.5002H4.31255C4.96255 11.5002 5.44068 12.1127 5.2813 12.7439L4.0313 17.7564C3.9563 18.0564 4.02505 18.3721 4.21255 18.6158C4.40005 18.8596 4.69068 19.0002 5.00005 19.0002H8.00005C8.45943 19.0002 8.85943 18.6877 8.9688 18.2439L9.7813 15.0002H12.1532Z" fill="black"/>
</svg>
