<svg width="24" height="24" viewBox="0 0 24 24" fill="none" xmlns="http://www.w3.org/2000/svg">
<path d="M9.08437 4.07855C8.85312 3.96292 8.575 3.97542 8.35313 4.11292C8.13125 4.25042 8 4.49105 8 4.75042V11.2504C8 11.291 8.00313 11.3348 8.00938 11.3754C8.00313 11.416 8 11.4567 8 11.5004V14.4004C5.60938 14.9192 4 15.891 4 17.0004C4 18.6567 7.58125 20.0004 12 20.0004C16.4187 20.0004 20 18.6567 20 17.0004C20 15.3442 16.4187 14.0004 12 14.0004C11.1281 14.0004 10.2875 14.0535 9.5 14.1504V11.7129L15.5844 8.66917C15.8375 8.54105 16 8.28167 16 7.9973C16 7.71292 15.8406 7.45355 15.5844 7.32542L9.08437 4.07542V4.07855ZM13 17.0004C13 17.5535 12.1031 18.0004 11 18.0004C9.89688 18.0004 9 17.5535 9 17.0004C9 16.4473 9.89688 16.0004 11 16.0004C12.1031 16.0004 13 16.4473 13 17.0004Z" fill="black"/>
</svg>
