<svg width="24" height="24" viewBox="0 0 24 24" fill="none" xmlns="http://www.w3.org/2000/svg">
<path d="M19 11C19 12.9594 18.1969 14.7281 16.9 16H13V15H15C15.2031 15 15.3844 14.8781 15.4625 14.6906C15.5406 14.5031 15.4969 14.2875 15.3531 14.1469L13.2063 12H14C14.2031 12 14.3844 11.8781 14.4625 11.6906C14.5406 11.5031 14.4969 11.2875 14.3531 11.1469L12.3531 9.14687C12.1594 8.95312 11.8406 8.95312 11.6469 9.14687L9.64687 11.1469C9.50312 11.2906 9.4625 11.5063 9.5375 11.6906C9.6125 11.875 9.79688 12 10 12H10.7937L8.64687 14.1469C8.50312 14.2906 8.4625 14.5063 8.5375 14.6906C8.6125 14.875 8.79688 15 9 15H11V16H7.1C5.80312 14.7281 5 12.9594 5 11C5 7.13438 8.13438 4 12 4C15.8656 4 19 7.13438 19 11ZM13 6.5C13 6.36739 12.9473 6.24021 12.8536 6.14645C12.7598 6.05268 12.6326 6 12.5 6C12.3674 6 12.2402 6.05268 12.1464 6.14645C12.0527 6.24021 12 6.36739 12 6.5C12 6.63261 12.0527 6.75979 12.1464 6.85355C12.2402 6.94732 12.3674 7 12.5 7C12.6326 7 12.7598 6.94732 12.8536 6.85355C12.9473 6.75979 13 6.63261 13 6.5ZM15.5 10C15.6326 10 15.7598 9.94732 15.8536 9.85355C15.9473 9.75979 16 9.63261 16 9.5C16 9.36739 15.9473 9.24021 15.8536 9.14645C15.7598 9.05268 15.6326 9 15.5 9C15.3674 9 15.2402 9.05268 15.1464 9.14645C15.0527 9.24021 15 9.36739 15 9.5C15 9.63261 15.0527 9.75979 15.1464 9.85355C15.2402 9.94732 15.3674 10 15.5 10ZM8 10.5C8 10.3674 7.94732 10.2402 7.85355 10.1464C7.75979 10.0527 7.63261 10 7.5 10C7.36739 10 7.24021 10.0527 7.14645 10.1464C7.05268 10.2402 7 10.3674 7 10.5C7 10.6326 7.05268 10.7598 7.14645 10.8536C7.24021 10.9473 7.36739 11 7.5 11C7.63261 11 7.75979 10.9473 7.85355 10.8536C7.94732 10.7598 8 10.6326 8 10.5ZM5.63437 18.8188L6.90937 17H17.0906L18.3656 18.8188C18.525 19.0469 18.5469 19.3469 18.4156 19.5938C18.2844 19.8406 18.0281 20 17.75 20H6.25C5.97188 20 5.7125 19.8438 5.58438 19.5969C5.45625 19.35 5.475 19.05 5.63437 18.8219V18.8188Z" fill="black"/>
</svg>
