<svg width="24" height="24" viewBox="0 0 24 24" fill="none" xmlns="http://www.w3.org/2000/svg">
<path d="M6.26871 4.31875C6.45621 4.11562 6.72184 4 6.99996 4H17C17.2781 4 17.5437 4.11562 17.7312 4.31875C17.9187 4.52187 18.0156 4.79375 17.9968 5.07187L17.0968 17.6781C17.0031 18.9875 15.9156 20 14.6031 20H9.39684C8.08434 20 6.99684 18.9875 6.90309 17.6781L6.00309 5.07187C5.98434 4.79375 6.07809 4.52187 6.26871 4.31875ZM8.07496 6L8.89684 17.5344C8.91559 17.7969 9.13434 18 9.39684 18H14.6031C14.8656 18 15.0843 17.7969 15.1031 17.5344L15.925 6H8.07496Z" fill="black"/>
</svg>
