<svg width="24" height="24" viewBox="0 0 24 24" fill="none" xmlns="http://www.w3.org/2000/svg">
<path d="M5.46885 15.4688C5.1751 15.7625 5.1751 16.2375 5.46885 16.5281C5.7626 16.8188 6.2376 16.8219 6.52822 16.5281L7.10635 15.95C8.17822 16.8156 9.44697 17.3188 10.747 17.4594V18.5H7.7501C7.33447 18.5 7.0001 18.8344 7.0001 19.25C7.0001 19.6656 7.33447 20 7.7501 20H15.2501C15.6657 20 16.0001 19.6656 16.0001 19.25C16.0001 18.8344 15.6657 18.5 15.2501 18.5H12.2501V17.4594C13.7845 17.2938 15.2751 16.625 16.4501 15.45C19.0032 12.8969 19.172 8.85626 16.9532 6.10939L17.5313 5.53126C17.8251 5.23751 17.8251 4.76251 17.5313 4.47189C17.2376 4.18126 16.7626 4.17814 16.472 4.47189L15.3907 5.55001C15.097 5.84376 15.097 6.31876 15.3907 6.60939C17.5376 8.75626 17.5376 12.2406 15.3907 14.3875C13.2438 16.5344 9.75947 16.5344 7.6126 14.3875C7.31885 14.0938 6.84385 14.0938 6.55322 14.3875L5.46885 15.4688ZM11.5001 15C12.091 15 12.6762 14.8836 13.2222 14.6575C13.7681 14.4313 14.2642 14.0999 14.6821 13.682C15.0999 13.2641 15.4314 12.7681 15.6576 12.2221C15.8837 11.6761 16.0001 11.091 16.0001 10.5C16.0001 9.90907 15.8837 9.3239 15.6576 8.77794C15.4314 8.23197 15.0999 7.7359 14.6821 7.31803C14.2642 6.90017 13.7681 6.5687 13.2222 6.34256C12.6762 6.11641 12.091 6.00001 11.5001 6.00001C10.9091 6.00001 10.324 6.11641 9.77802 6.34256C9.23206 6.5687 8.73598 6.90017 8.31812 7.31803C7.90025 7.7359 7.56879 8.23197 7.34264 8.77794C7.11649 9.3239 7.0001 9.90907 7.0001 10.5C7.0001 11.091 7.11649 11.6761 7.34264 12.2221C7.56879 12.7681 7.90025 13.2641 8.31812 13.682C8.73598 14.0999 9.23206 14.4313 9.77802 14.6575C10.324 14.8836 10.9091 15 11.5001 15Z" fill="black"/>
</svg>
