<svg width="24" height="24" viewBox="0 0 24 24" fill="none" xmlns="http://www.w3.org/2000/svg">
<path d="M8.26875 4.99935C8.40625 4.60872 8.20312 4.1806 7.8125 4.0431C7.42188 3.9056 6.99375 4.10872 6.85625 4.49935L6.52187 5.4431L6.2125 4.51185C6.08125 4.1181 5.65625 3.9056 5.2625 4.03685C4.86875 4.1681 4.65625 4.5931 4.7875 4.98685L5.04688 5.7681L4.19062 5.1431C3.85625 4.89935 3.3875 4.97435 3.14375 5.30872C2.9 5.6431 2.975 6.11185 3.30938 6.3556L4.19375 6.99935H3.5C2.67188 6.99935 2 7.67122 2 8.49935V18.4993C2 19.3275 2.67188 19.9993 3.5 19.9993H8.26875C8.1 19.7056 8 19.365 8 18.9993V11.9993C8 11.065 8.64062 10.2806 9.50625 10.0618C9.5625 9.0931 10.0406 8.2431 10.7594 7.68372C10.4906 7.27122 10.0281 6.99935 9.5 6.99935H8.80625L9.69063 6.3556C10.025 6.11185 10.1 5.6431 9.85625 5.30872C9.6125 4.97435 9.14375 4.89935 8.80937 5.1431L8.01562 5.72122L8.26875 4.99935ZM13.3594 9.79622L14.2844 10.9993H12.75C12.3344 10.9993 12 10.665 12 10.2493C12 9.83997 12.3375 9.49935 12.7563 9.49935C12.9938 9.49935 13.2156 9.60872 13.3594 9.79622ZM10.5 10.2493C10.5 10.5118 10.5438 10.765 10.6281 10.9993H10.5C9.67188 10.9993 9 11.6712 9 12.4993V14.9993H15V11.9993H16V14.9993H22V12.4993C22 11.6712 21.3281 10.9993 20.5 10.9993H20.3719C20.4563 10.765 20.5 10.5118 20.5 10.2493C20.5 9.00247 19.4844 7.99935 18.2437 7.99935C17.5437 7.99935 16.8812 8.32435 16.4531 8.8806L15.5 10.1181L14.5469 8.8806C14.1188 8.32435 13.4531 7.99935 12.7563 7.99935C11.5156 7.99935 10.5 9.00247 10.5 10.2493ZM9 18.4993C9 19.3275 9.67188 19.9993 10.5 19.9993H15V15.9993H9V18.4993ZM16 19.9993H20.5C21.3281 19.9993 22 19.3275 22 18.4993V15.9993H16V19.9993ZM19 10.2493C19 10.665 18.6656 10.9993 18.25 10.9993H16.7156L17.6406 9.79622C17.7844 9.61185 18.0062 9.49935 18.2437 9.49935C18.6625 9.49935 19 9.83997 19 10.2493Z" fill="black"/>
</svg>
