<svg width="24" height="24" viewBox="0 0 24 24" fill="none" xmlns="http://www.w3.org/2000/svg">
<path d="M19.8938 5.44639C20.1406 4.95264 19.9406 4.35264 19.4469 4.10577C18.9531 3.85889 18.3531 4.05889 18.1062 4.55264L12.25 16.2651V16.2495L5.31562 13.937C4.66875 13.7214 4 14.2058 4 14.887V15.7495H5.5C5.775 15.7495 6 15.9745 6 16.2495C6 16.5245 5.775 16.7495 5.5 16.7495H4V17.7495H5.5C5.775 17.7495 6 17.9745 6 18.2495C6 18.5245 5.775 18.7495 5.5 18.7495H4V18.9995C4 19.5526 4.44687 19.9995 5 19.9995H11.9781C12.3531 20.0089 12.7156 19.8026 12.8938 19.4464L19.8938 5.44639Z" fill="black"/>
</svg>
