<svg width="24" height="24" viewBox="0 0 24 24" fill="none" xmlns="http://www.w3.org/2000/svg">
<path d="M14 4H14.3594C14.7125 4 15 4.2875 15 4.64062C15 4.8625 14.8844 5.06875 14.6938 5.1875L14.3031 5.42813C13.2031 6.10625 12.4 7.14375 12.0125 8.3375C12.6344 8.11875 13.3031 8 13.9969 8C17.3094 8 19.9969 10.6875 19.9969 14V14.3594C19.9969 14.7125 19.7094 15 19.3562 15C19.1344 15 18.9281 14.8844 18.8094 14.6938L18.5688 14.3031C17.8906 13.2031 16.8531 12.4 15.6594 12.0125C15.8781 12.6344 15.9969 13.3031 15.9969 13.9969C15.9969 17.3094 13.3094 19.9969 9.99687 19.9969H9.64062C9.2875 19.9969 9 19.7094 9 19.3562C9 19.1344 9.11563 18.9281 9.30625 18.8094L9.69688 18.5688C10.7969 17.8906 11.6 16.8531 11.9875 15.6594C11.3656 15.8781 10.6969 15.9969 10.0031 15.9969C6.6875 16 4 13.3125 4 10V9.64062C4 9.2875 4.2875 9 4.64062 9C4.8625 9 5.06875 9.11563 5.1875 9.30625L5.42813 9.69688C6.10625 10.7969 7.14375 11.6 8.3375 11.9875C8.11875 11.3656 8 10.6969 8 10.0031C8 6.6875 10.6875 4 14 4ZM12 13C12.2652 13 12.5196 12.8946 12.7071 12.7071C12.8946 12.5196 13 12.2652 13 12C13 11.7348 12.8946 11.4804 12.7071 11.2929C12.5196 11.1054 12.2652 11 12 11C11.7348 11 11.4804 11.1054 11.2929 11.2929C11.1054 11.4804 11 11.7348 11 12C11 12.2652 11.1054 12.5196 11.2929 12.7071C11.4804 12.8946 11.7348 13 12 13Z" fill="black"/>
</svg>
