<svg width="24" height="24" viewBox="0 0 24 24" fill="none" xmlns="http://www.w3.org/2000/svg">
<path d="M6.99985 4C6.72172 4 6.4561 4.11562 6.2686 4.31875C6.0811 4.52187 5.9811 4.79375 6.00297 5.07187L6.90297 17.6781C6.99672 18.9875 8.08422 20 9.39672 20H14.603C15.9155 20 17.003 18.9875 17.0967 17.6781L17.9967 5.07187C18.0155 4.79375 17.9217 4.52187 17.7311 4.31875C17.5405 4.11562 17.278 4 16.9998 4H6.99985ZM8.2811 8.89062L8.07485 6H15.9248L15.7186 8.89062L14.9623 9.26875C14.3561 9.57188 13.6436 9.57188 13.0373 9.26875C12.3842 8.94375 11.6155 8.94375 10.9623 9.26875C10.3561 9.57188 9.64359 9.57188 9.03734 9.26875L8.2811 8.89062Z" fill="black"/>
</svg>
