<svg width="24" height="24" viewBox="0 0 24 24" fill="none" xmlns="http://www.w3.org/2000/svg">
<path d="M6.26895 4.31875C6.45645 4.11562 6.72208 4 7.0002 4H17.0002C17.2783 4 17.544 4.11562 17.7315 4.31875C17.919 4.52188 18.0158 4.79375 17.9971 5.07187L17.0971 17.6781C17.0033 18.9875 15.9158 20 14.6033 20H9.39708C8.08458 20 6.99708 18.9875 6.90333 17.6781L6.00333 5.07187C5.98458 4.79375 6.07833 4.52188 6.26895 4.31875ZM8.0752 6L8.89708 17.5344C8.91583 17.7969 9.13458 18 9.39708 18H14.6033C14.8658 18 15.0846 17.7969 15.1033 17.5344L15.9252 6H8.0752Z" fill="black"/>
</svg>
