<svg width="24" height="24" viewBox="0 0 24 24" fill="none" xmlns="http://www.w3.org/2000/svg">
<path d="M3.21255 4.15955C2.88755 3.9033 2.41568 3.96268 2.15943 4.28768C1.90318 4.61268 1.96255 5.08455 2.28755 5.3408L20.7876 19.8408C21.1126 20.0971 21.5844 20.0377 21.8407 19.7127C22.0969 19.3877 22.0376 18.9158 21.7126 18.6596L19.4563 16.8908C19.7969 16.4346 20.0001 15.8658 20.0001 15.2502V11.0002V10.0002V9.25018V8.8283C20.0001 8.29705 19.7907 7.78768 19.4157 7.41268L17.0001 5.00018C16.7251 4.72518 16.2751 4.72518 16.0001 5.00018C15.7251 5.27518 15.7251 5.72518 16.0001 6.00018L17.0001 7.00018V9.00018C17.0001 9.93143 17.6376 10.7158 18.5001 10.9377V15.2502C18.5001 15.5158 18.4157 15.7627 18.2751 15.9658L14.0001 12.6158V6.00018C14.0001 4.89705 13.1032 4.00018 12.0001 4.00018H7.00005C6.03443 4.00018 5.22818 4.68455 5.04068 5.59393L3.21255 4.15955ZM5.00005 9.36268V18.0002C4.44693 18.0002 4.00005 18.4471 4.00005 19.0002C4.00005 19.5533 4.44693 20.0002 5.00005 20.0002H14.0001C14.5532 20.0002 15.0001 19.5533 15.0001 19.0002C15.0001 18.4471 14.5532 18.0002 14.0001 18.0002V16.4533L5.00005 9.36268Z" fill="black"/>
</svg>
