<svg width="24" height="24" viewBox="0 0 24 24" fill="none" xmlns="http://www.w3.org/2000/svg">
<path d="M8 5C7.60603 5 7.21593 5.0776 6.85195 5.22836C6.48797 5.37913 6.15726 5.6001 5.87868 5.87868C5.6001 6.15726 5.37913 6.48797 5.22836 6.85195C5.0776 7.21593 5 7.60603 5 8C5 8.39397 5.0776 8.78407 5.22836 9.14805C5.37913 9.51203 5.6001 9.84274 5.87868 10.1213C6.15726 10.3999 6.48797 10.6209 6.85195 10.7716C7.21593 10.9224 7.60603 11 8 11C8.39397 11 8.78407 10.9224 9.14805 10.7716C9.51203 10.6209 9.84274 10.3999 10.1213 10.1213C10.3999 9.84274 10.6209 9.51203 10.7716 9.14805C10.9224 8.78407 11 8.39397 11 8C11 7.60603 10.9224 7.21593 10.7716 6.85195C10.6209 6.48797 10.3999 6.15726 10.1213 5.87868C9.84274 5.6001 9.51203 5.37913 9.14805 5.22836C8.78407 5.0776 8.39397 5 8 5ZM8 13C7.20435 13 6.44129 13.3161 5.87868 13.8787C5.31607 14.4413 5 15.2044 5 16C5 16.7956 5.31607 17.5587 5.87868 18.1213C6.44129 18.6839 7.20435 19 8 19C8.79565 19 9.55871 18.6839 10.1213 18.1213C10.6839 17.5587 11 16.7956 11 16C11 15.2044 10.6839 14.4413 10.1213 13.8787C9.55871 13.3161 8.79565 13 8 13ZM13 8C13 8.79565 13.3161 9.55871 13.8787 10.1213C14.4413 10.6839 15.2044 11 16 11C16.7956 11 17.5587 10.6839 18.1213 10.1213C18.6839 9.55871 19 8.79565 19 8C19 7.20435 18.6839 6.44129 18.1213 5.87868C17.5587 5.31607 16.7956 5 16 5C15.2044 5 14.4413 5.31607 13.8787 5.87868C13.3161 6.44129 13 7.20435 13 8ZM16 13C15.2044 13 14.4413 13.3161 13.8787 13.8787C13.3161 14.4413 13 15.2044 13 16C13 16.7956 13.3161 17.5587 13.8787 18.1213C14.4413 18.6839 15.2044 19 16 19C16.7956 19 17.5587 18.6839 18.1213 18.1213C18.6839 17.5587 19 16.7956 19 16C19 15.2044 18.6839 14.4413 18.1213 13.8787C17.5587 13.3161 16.7956 13 16 13Z" fill="black"/>
</svg>
