<svg width="24" height="24" viewBox="0 0 24 24" fill="none" xmlns="http://www.w3.org/2000/svg">
<path d="M4.53428 13.125C4.13115 12.4282 4.13115 11.5719 4.53428 10.875L7.29365 6.09692C7.69678 5.40005 8.4374 4.97192 9.24365 4.97192H14.7593C15.5624 4.97192 16.3062 5.40005 16.7093 6.09692L19.4655 10.875C19.8687 11.5719 19.8687 12.4282 19.4655 13.125L16.7062 17.9032C16.303 18.6 15.5624 19.0282 14.7562 19.0282H9.24053C8.4374 19.0282 7.69365 18.6 7.29053 17.9032L4.53428 13.125ZM9.46865 9.4688C9.1749 9.76255 9.1749 10.2375 9.46865 10.5282L10.9374 11.9969L9.46865 13.4657C9.1749 13.7594 9.1749 14.2344 9.46865 14.525C9.7624 14.8157 10.2374 14.8188 10.528 14.525L11.9968 13.0563L13.4655 14.525C13.7593 14.8188 14.2343 14.8188 14.5249 14.525C14.8155 14.2313 14.8187 13.7563 14.5249 13.4657L13.0562 11.9969L14.5249 10.5282C14.8187 10.2344 14.8187 9.75942 14.5249 9.4688C14.2312 9.17817 13.7562 9.17505 13.4655 9.4688L11.9968 10.9375L10.528 9.4688C10.2343 9.17505 9.75928 9.17505 9.46865 9.4688Z" fill="black"/>
</svg>
