<svg width="24" height="24" viewBox="0 0 24 24" fill="none" xmlns="http://www.w3.org/2000/svg">
<path d="M8 5.5C8 4.67188 8.67188 4 9.5 4H14.5C15.3281 4 16 4.67188 16 5.5V20H13.5V17.5C13.5 16.6719 12.8281 16 12 16C11.1719 16 10.5 16.6719 10.5 17.5V20H8V5.5ZM3.5 7H7V20H3.5C2.67188 20 2 19.3281 2 18.5V14H4.5C4.775 14 5 13.775 5 13.5C5 13.225 4.775 13 4.5 13H2V11H4.5C4.775 11 5 10.775 5 10.5C5 10.225 4.775 10 4.5 10H2V8.5C2 7.67188 2.67188 7 3.5 7ZM20.5 7C21.3281 7 22 7.67188 22 8.5V10H19.5C19.225 10 19 10.225 19 10.5C19 10.775 19.225 11 19.5 11H22V13H19.5C19.225 13 19 13.225 19 13.5C19 13.775 19.225 14 19.5 14H22V18.5C22 19.3281 21.3281 20 20.5 20H17V7H20.5ZM11.75 6C11.475 6 11.25 6.225 11.25 6.5V7.25H10.5C10.225 7.25 10 7.475 10 7.75V8.25C10 8.525 10.225 8.75 10.5 8.75H11.25V9.5C11.25 9.775 11.475 10 11.75 10H12.25C12.525 10 12.75 9.775 12.75 9.5V8.75H13.5C13.775 8.75 14 8.525 14 8.25V7.75C14 7.475 13.775 7.25 13.5 7.25H12.75V6.5C12.75 6.225 12.525 6 12.25 6H11.75Z" fill="black"/>
</svg>
