<svg width="24" height="24" viewBox="0 0 24 24" fill="none" xmlns="http://www.w3.org/2000/svg">
<path d="M4 11.0062C4 7.14375 7.13125 4 11 4H11.75C14.725 4 17.4125 6.16562 17.9156 9.00625C17.9875 9.4125 18.1281 9.80937 18.3875 10.1312L19.7 11.775C19.8937 12.0188 20 12.3188 20 12.6313C20 13.3875 19.3875 14 18.6313 14H18V16C18 17.1031 17.1031 18 16 18H14V19C14 19.5531 13.5531 20 13 20H7C6.44687 20 6 19.5531 6 19V16.7281C6 16.2062 5.78438 15.7125 5.46563 15.2969C4.51875 14.075 4 12.5656 4 11.0062ZM14.5188 10.1219C14.7156 10.0094 14.8156 9.775 14.7312 9.55937C14.6656 9.3875 14.5875 9.22187 14.5 9.0625L14.4281 8.9375C14.3313 8.77813 14.225 8.62812 14.1094 8.48438C13.9656 8.30625 13.7125 8.275 13.5156 8.39062L13.425 8.44375C13.1375 8.60937 12.7875 8.56875 12.5 8.40312C12.2125 8.2375 11.9969 7.95 11.9969 7.61875V7.5125C11.9969 7.28438 11.8438 7.08125 11.6188 7.04688C11.4156 7.01562 11.2094 7 10.9969 7C10.7844 7 10.5781 7.01562 10.375 7.04688C10.15 7.08125 9.99687 7.28438 9.99687 7.5125V7.61875C9.99687 7.95 9.78125 8.2375 9.49375 8.40312C9.20625 8.56875 8.85625 8.60937 8.56875 8.44375L8.47813 8.39062C8.28125 8.27813 8.02813 8.30938 7.88438 8.48438C7.76875 8.62812 7.6625 8.78125 7.56562 8.94063L7.49375 9.0625C7.40625 9.22187 7.32813 9.3875 7.2625 9.55937C7.18125 9.77187 7.27812 10.0062 7.475 10.1219L7.56562 10.175C7.85312 10.3406 7.99375 10.6687 7.99375 11C7.99375 11.3313 7.85312 11.6594 7.56562 11.825L7.47187 11.8781C7.275 11.9906 7.175 12.225 7.25938 12.4406C7.325 12.6125 7.40312 12.775 7.49062 12.9344L7.56562 13.0625C7.6625 13.2219 7.76562 13.3719 7.88125 13.5156C8.025 13.6937 8.27812 13.725 8.475 13.6094L8.56563 13.5562C8.85313 13.3906 9.20312 13.4313 9.49062 13.5969C9.77812 13.7625 9.99375 14.05 9.99375 14.3813V14.4875C9.99375 14.7156 10.1469 14.9187 10.3719 14.9531C10.575 14.9844 10.7813 15 10.9938 15C11.2063 15 11.4125 14.9844 11.6156 14.9531C11.8406 14.9187 11.9938 14.7156 11.9938 14.4875V14.3813C11.9938 14.05 12.2094 13.7625 12.4969 13.5969C12.7844 13.4313 13.1344 13.3906 13.4219 13.5562L13.5125 13.6094C13.7094 13.7219 13.9625 13.6906 14.1062 13.5156C14.2219 13.3719 14.3281 13.2219 14.4219 13.0625L14.4969 12.9312C14.5844 12.7719 14.6625 12.6094 14.7281 12.4375C14.8094 12.225 14.7125 11.9906 14.5156 11.875L14.4219 11.8219C14.1344 11.6563 13.9937 11.3281 13.9937 10.9969C13.9937 10.6656 14.1344 10.3375 14.4219 10.1719L14.5156 10.1188L14.5188 10.1219ZM9.75 11C9.75 10.6685 9.8817 10.3505 10.1161 10.1161C10.3505 9.8817 10.6685 9.75 11 9.75C11.3315 9.75 11.6495 9.8817 11.8839 10.1161C12.1183 10.3505 12.25 10.6685 12.25 11C12.25 11.3315 12.1183 11.6495 11.8839 11.8839C11.6495 12.1183 11.3315 12.25 11 12.25C10.6685 12.25 10.3505 12.1183 10.1161 11.8839C9.8817 11.6495 9.75 11.3315 9.75 11Z" fill="black"/>
</svg>
