<svg width="24" height="24" viewBox="0 0 24 24" fill="none" xmlns="http://www.w3.org/2000/svg">
<path d="M3.21255 4.15937C2.88755 3.90312 2.41568 3.96249 2.15943 4.28749C1.90318 4.61249 1.96255 5.08437 2.28755 5.34062L20.7876 19.8406C21.1126 20.0969 21.5844 20.0375 21.8407 19.7125C22.0969 19.3875 22.0376 18.9156 21.7126 18.6594L17.4938 15.3531C17.4594 15 17.2969 14.6562 17.0157 14.3937L12.8219 10.55L12.0907 11.1187L11.2782 10.4844L13.6907 8.60624C13.9094 8.43749 14.2219 8.47499 14.3938 8.69374C14.5657 8.91249 14.5251 9.22499 14.3063 9.39687L13.6532 9.90312L19.1938 15H20.5001C21.3282 15 22.0001 14.3281 22.0001 13.5V9.49999C22.0001 8.67187 21.3282 7.99999 20.5001 7.99999H18.1251H18.0001H17.9782L17.8563 7.92187L15.5876 6.46874C15.1094 6.16249 14.5501 5.99999 13.9813 5.99999C13.3001 5.99999 12.6376 6.23437 12.1063 6.66249L9.30318 8.93124L8.49693 8.29687L11.0532 6.22812C10.6907 6.07499 10.3001 5.99687 9.90318 5.99687C9.31255 5.99999 8.74068 6.17499 8.25005 6.49999L7.14068 7.24062L3.21255 4.15937ZM14.9251 17.1844L3.28755 8.01562C2.55943 8.11874 2.00005 8.74374 2.00005 9.49999V13.5C2.00005 14.3281 2.67193 15 3.50005 15H6.8813L9.73755 17.6062C10.3501 18.1656 11.2969 18.1219 11.8563 17.5094C12.0282 17.3187 12.1438 17.0969 12.2032 16.8656L12.7344 17.3531C13.3438 17.9125 14.2938 17.8719 14.8532 17.2625C14.8782 17.2375 14.9001 17.2094 14.9219 17.1812L14.9251 17.1844Z" fill="black"/>
</svg>
