<svg width="24" height="24" viewBox="0 0 24 24" fill="none" xmlns="http://www.w3.org/2000/svg">
<path d="M20.9937 11.9844C20.9937 12.5469 20.525 12.9875 19.9937 12.9875H18.9937L19.0156 17.9937C19.0219 19.1031 18.125 20.0031 17.0156 20.0031H7.00313C5.9 20.0031 5.00312 19.1062 5.00312 18.0031V12.9875H4C3.4375 12.9875 3 12.55 3 11.9844C3 11.7031 3.09375 11.4531 3.3125 11.2344L11.325 4.25C11.5437 4.03125 11.7937 4 12.0125 4C12.2312 4 12.4812 4.0625 12.6687 4.21875L20.65 11.2344C20.9 11.4531 21.025 11.7031 20.9937 11.9844Z" fill="black"/>
</svg>
