<svg width="24" height="24" viewBox="0 0 24 24" fill="none" xmlns="http://www.w3.org/2000/svg">
<path d="M15.9219 11.4219C15.0406 11.5719 14.1031 11.3094 13.4219 10.6281L12.2312 9.4375C11.7625 8.96875 11.5 8.3375 11.5 7.675V7.29688L9.00938 5.9375C8.84375 5.84687 8.74062 5.66875 8.75 5.47812C8.75938 5.2875 8.87187 5.11875 9.04688 5.04062L10.5219 4.38438C11.0969 4.13125 11.7188 4 12.35 4H12.9156C14.0625 4 15.1656 4.4375 16 5.22187L17.3938 6.53437C18.15 7.24687 18.4313 8.275 18.225 9.22188L18.7188 9.71875L18.9688 9.46875C19.2625 9.175 19.7375 9.175 20.0281 9.46875L20.7781 10.2188C21.0719 10.5125 21.0719 10.9875 20.7781 11.2781L18.0281 14.0281C17.7344 14.3219 17.2594 14.3219 16.9688 14.0281L16.2188 13.2781C15.925 12.9844 15.925 12.5094 16.2188 12.2188L16.4688 11.9688L15.9219 11.4219ZM3.85625 15.7844L11.1531 9.70625C11.2625 9.85938 11.3875 10.0063 11.5219 10.1438L12.7125 11.3344C12.9 11.5219 13.1 11.6844 13.3125 11.825L7.21562 19.1438C6.7625 19.6875 6.09063 20 5.38438 20C4.06563 20 3 18.9313 3 17.6156C3 16.9094 3.31563 16.2375 3.85625 15.7844Z" fill="black"/>
</svg>
