<svg width="24" height="24" viewBox="0 0 24 24" fill="none" xmlns="http://www.w3.org/2000/svg">
<path d="M4.5344 13.125C4.13127 12.4282 4.13127 11.5719 4.5344 10.875L7.29377 6.09692C7.6969 5.40005 8.43752 4.97192 9.24377 4.97192H14.7594C15.5625 4.97192 16.3063 5.40005 16.7094 6.09692L19.4656 10.875C19.8688 11.5719 19.8688 12.4282 19.4656 13.125L16.7063 17.9032C16.3032 18.6 15.5625 19.0282 14.7563 19.0282H9.24065C8.43752 19.0282 7.69377 18.6 7.29065 17.9032L4.5344 13.125ZM12 8.00005C11.5844 8.00005 11.25 8.33442 11.25 8.75005V12.25C11.25 12.6657 11.5844 13 12 13C12.4156 13 12.75 12.6657 12.75 12.25V8.75005C12.75 8.33442 12.4156 8.00005 12 8.00005ZM13 15C13 14.7348 12.8947 14.4805 12.7071 14.2929C12.5196 14.1054 12.2652 14 12 14C11.7348 14 11.4805 14.1054 11.2929 14.2929C11.1054 14.4805 11 14.7348 11 15C11 15.2653 11.1054 15.5196 11.2929 15.7072C11.4805 15.8947 11.7348 16 12 16C12.2652 16 12.5196 15.8947 12.7071 15.7072C12.8947 15.5196 13 15.2653 13 15Z" fill="black"/>
</svg>
