<svg width="24" height="24" viewBox="0 0 24 24" fill="none" xmlns="http://www.w3.org/2000/svg">
<path d="M6.89375 5.44745C7.14062 4.9537 6.94063 4.3537 6.44688 4.10682C5.95312 3.85995 5.35313 4.05995 5.10625 4.5537L2.42188 9.91932C2.14375 10.4756 2 11.0881 2 11.7099V12.0006C2 14.2099 3.79063 16.0006 6 16.0006H8.25H8.5V15.9912C9.6 15.9068 10.5437 15.2787 11.0656 14.3756C11.3406 13.8974 11.1781 13.2849 10.7 13.0099C10.2219 12.7349 9.60938 12.8974 9.33437 13.3756C9.11562 13.7506 8.7125 14.0006 8.25 14.0006C7.55937 14.0006 7 13.4412 7 12.7506C7 12.0599 7.55937 11.5006 8.25 11.5006C8.7125 11.5006 9.11562 11.7506 9.33437 12.1256C9.60938 12.6037 10.2219 12.7662 10.7 12.4912C11.1781 12.2162 11.3406 11.6037 11.0656 11.1256C10.6656 10.4349 10.0156 9.9037 9.24062 9.6537L11.7656 8.9662C12.2969 8.82245 12.6125 8.27245 12.4688 7.73807C12.325 7.2037 11.775 6.8912 11.2406 7.03495L8.09062 7.89432L10.6406 5.76932C11.0656 5.4162 11.1219 4.78495 10.7688 4.35995C10.4156 3.93495 9.78438 3.8787 9.35938 4.23182L6.175 6.88495L6.89375 5.44745ZM17.1062 18.5537C16.8594 19.0474 17.0594 19.6474 17.5531 19.8943C18.0469 20.1412 18.6469 19.9412 18.8937 19.4474L21.5781 14.0818C21.8563 13.5256 22 12.9131 22 12.2943V12.0006C22 9.7912 20.2094 8.00057 18 8.00057H15.75H15.5V8.00995C14.4 8.09432 13.4563 8.72245 12.9344 9.62557C12.6562 10.1037 12.8219 10.7162 13.3 10.9912C13.7781 11.2662 14.3906 11.1037 14.6656 10.6256C14.8844 10.2506 15.2875 10.0006 15.75 10.0006C16.4406 10.0006 17 10.5599 17 11.2506C17 11.9412 16.4406 12.5006 15.75 12.5006C15.2875 12.5006 14.8844 12.2506 14.6656 11.8756C14.3875 11.3974 13.7781 11.2349 13.3 11.5099C12.8219 11.7849 12.6594 12.3974 12.9344 12.8756C13.3344 13.5662 13.9844 14.0974 14.7594 14.3474L12.2344 15.0349C11.7 15.1818 11.3875 15.7287 11.5312 16.2631C11.675 16.7974 12.225 17.1099 12.7594 16.9662L15.9062 16.1068L13.3562 18.2318C12.9312 18.5849 12.875 19.2162 13.2281 19.6412C13.5812 20.0662 14.2125 20.1224 14.6375 19.7693L17.8219 17.1162L17.1031 18.5537H17.1062Z" fill="black"/>
</svg>
