<svg width="24" height="24" viewBox="0 0 24 24" fill="none" xmlns="http://www.w3.org/2000/svg">
<path d="M12.25 4C11.5594 4 11 4.55937 11 5.25V10.3812C10.7344 10.1437 10.3844 10 10 10C9.17188 10 8.5 10.6719 8.5 11.5V11.7188V14C8.5 14.275 8.275 14.5 8 14.5C7.725 14.5 7.5 14.275 7.5 14V12.2594C7.4375 12.3031 7.37812 12.3531 7.31875 12.4L6.71875 12.9C6.2625 13.2812 6 13.8438 6 14.4375V15.625C6 16.8125 6.52812 17.9375 7.44062 18.6969L7.60938 18.8375C8.50937 19.5875 9.64062 19.9969 10.8094 19.9969H14.5C16.7094 19.9969 18.5 18.2062 18.5 15.9969V14V13C18.5 12.1719 17.8281 11.5 17 11.5C16.6125 11.5 16.2625 11.6469 15.9969 11.8844C15.9375 11.1094 15.2906 10.5 14.5 10.5C14.1156 10.5 13.7656 10.6437 13.5 10.8812V5.25C13.5 4.55937 12.9406 4 12.25 4Z" fill="black"/>
</svg>
