<svg width="24" height="24" viewBox="0 0 24 24" fill="none" xmlns="http://www.w3.org/2000/svg">
<path d="M8.99989 4C9.55301 4 9.99989 4.44687 9.99989 5V9.99687V10V13C9.99989 14.1031 10.8968 15 11.9999 15C12.5968 15 13.1343 14.7375 13.4999 14.3219C13.8655 14.7375 14.403 15 14.9999 15C16.103 15 16.9999 14.1031 16.9999 13V11.0031V11V7C16.9999 6.44688 17.4468 6 17.9999 6C18.553 6 18.9999 6.44688 18.9999 7V14.5C18.9999 17.5375 16.5374 20 13.4999 20H12.8999C11.0374 20 9.24676 19.2844 7.89989 18L4.38739 14.6562C3.88739 14.1812 3.86864 13.3875 4.34364 12.8875C4.81864 12.3875 5.61239 12.3687 6.11239 12.8438L8.00301 14.6438C8.00301 14.5969 7.99989 14.5469 7.99989 14.5V5C7.99989 4.44687 8.44676 4 8.99989 4ZM10.9999 10C10.9999 9.44688 11.4468 9 11.9999 9C12.553 9 12.9999 9.44688 12.9999 10V13C12.9999 13.5531 12.553 14 11.9999 14C11.4468 14 10.9999 13.5531 10.9999 13V10ZM14.9999 10C15.553 10 15.9999 10.4469 15.9999 11V13C15.9999 13.5531 15.553 14 14.9999 14C14.4468 14 13.9999 13.5531 13.9999 13V11C13.9999 10.4469 14.4468 10 14.9999 10Z" fill="black"/>
</svg>
