<svg width="24" height="24" viewBox="0 0 24 24" fill="none" xmlns="http://www.w3.org/2000/svg">
<path d="M12.0219 15C12.275 12.1969 14.6313 10 17.5 10C17.7781 10 18.05 10.0219 18.3156 10.0594L11.6719 4.21875C11.4844 4.0625 11.2344 4 11.0156 4C10.7969 4 10.5469 4.03125 10.3281 4.25L2.3125 11.2344C2.09375 11.4531 2 11.7031 2 11.9844C2 12.5469 2.4375 12.9875 3 12.9875H4V15.1656C3.99688 15.1937 3.99688 15.2219 3.99688 15.2531V18.75C3.99688 19.4406 4.55625 20 5.24688 20H5.74688C5.78437 20 5.82188 19.9969 5.85938 19.9937C5.90625 19.9969 5.95312 20 6 20H7H7.75C8.44063 20 9 19.4406 9 18.75V18V16C9 15.4469 9.44688 15 10 15H12H12.0219ZM17.5 20C18.6935 20 19.8381 19.5259 20.682 18.682C21.5259 17.8381 22 16.6935 22 15.5C22 14.3065 21.5259 13.1619 20.682 12.318C19.8381 11.4741 18.6935 11 17.5 11C16.3065 11 15.1619 11.4741 14.318 12.318C13.4741 13.1619 13 14.3065 13 15.5C13 16.6935 13.4741 17.8381 14.318 18.682C15.1619 19.5259 16.3065 20 17.5 20ZM19.3531 14.3531L18.2062 15.5L19.3531 16.6469C19.5469 16.8406 19.5469 17.1594 19.3531 17.3531C19.1594 17.5469 18.8406 17.5469 18.6469 17.3531L17.5 16.2063L16.3531 17.3531C16.1594 17.5469 15.8406 17.5469 15.6469 17.3531C15.4531 17.1594 15.4531 16.8406 15.6469 16.6469L16.7937 15.5L15.6469 14.3531C15.4531 14.1594 15.4531 13.8406 15.6469 13.6469C15.8406 13.4531 16.1594 13.4531 16.3531 13.6469L17.5 14.7937L18.6469 13.6469C18.8406 13.4531 19.1594 13.4531 19.3531 13.6469C19.5469 13.8406 19.5469 14.1594 19.3531 14.3531Z" fill="black"/>
</svg>
