<svg width="24" height="24" viewBox="0 0 24 24" fill="none" xmlns="http://www.w3.org/2000/svg">
<path d="M13.0001 5C13.0001 4.44687 12.5532 4 12.0001 4C11.447 4 11.0001 4.44687 11.0001 5V11.5C11.0001 11.775 10.7751 12 10.5001 12C10.2251 12 10.0001 11.775 10.0001 11.5V6C10.0001 5.44687 9.55324 5 9.00012 5C8.44699 5 8.00012 5.44687 8.00012 6V14.5C8.00012 14.5469 8.00012 14.5969 8.00324 14.6438L6.11262 12.8438C5.61262 12.3687 4.82199 12.3875 4.34387 12.8875C3.86574 13.3875 3.88762 14.1781 4.38762 14.6562L7.90012 18C9.24699 19.2844 11.0376 20 12.9001 20H13.5001C16.5376 20 19.0001 17.5375 19.0001 14.5V8C19.0001 7.44688 18.5532 7 18.0001 7C17.447 7 17.0001 7.44688 17.0001 8V11.5C17.0001 11.775 16.7751 12 16.5001 12C16.2251 12 16.0001 11.775 16.0001 11.5V6C16.0001 5.44687 15.5532 5 15.0001 5C14.447 5 14.0001 5.44687 14.0001 6V11.5C14.0001 11.775 13.7751 12 13.5001 12C13.2251 12 13.0001 11.775 13.0001 11.5V5ZM11.5001 14.5C11.5001 14.3674 11.5528 14.2402 11.6466 14.1464C11.7403 14.0527 11.8675 14 12.0001 14C12.1327 14 12.2599 14.0527 12.3537 14.1464C12.4474 14.2402 12.5001 14.3674 12.5001 14.5C12.5001 14.6326 12.4474 14.7598 12.3537 14.8536C12.2599 14.9473 12.1327 15 12.0001 15C11.8675 15 11.7403 14.9473 11.6466 14.8536C11.5528 14.7598 11.5001 14.6326 11.5001 14.5ZM14.0001 15C14.1327 15 14.2599 15.0527 14.3537 15.1464C14.4474 15.2402 14.5001 15.3674 14.5001 15.5C14.5001 15.6326 14.4474 15.7598 14.3537 15.8536C14.2599 15.9473 14.1327 16 14.0001 16C13.8675 16 13.7403 15.9473 13.6466 15.8536C13.5528 15.7598 13.5001 15.6326 13.5001 15.5C13.5001 15.3674 13.5528 15.2402 13.6466 15.1464C13.7403 15.0527 13.8675 15 14.0001 15ZM15.5001 14.5C15.5001 14.3674 15.5528 14.2402 15.6466 14.1464C15.7403 14.0527 15.8675 14 16.0001 14C16.1327 14 16.2599 14.0527 16.3537 14.1464C16.4474 14.2402 16.5001 14.3674 16.5001 14.5C16.5001 14.6326 16.4474 14.7598 16.3537 14.8536C16.2599 14.9473 16.1327 15 16.0001 15C15.8675 15 15.7403 14.9473 15.6466 14.8536C15.5528 14.7598 15.5001 14.6326 15.5001 14.5ZM15.0001 17C15.1327 17 15.2599 17.0527 15.3537 17.1464C15.4474 17.2402 15.5001 17.3674 15.5001 17.5C15.5001 17.6326 15.4474 17.7598 15.3537 17.8536C15.2599 17.9473 15.1327 18 15.0001 18C14.8675 18 14.7403 17.9473 14.6466 17.8536C14.5528 17.7598 14.5001 17.6326 14.5001 17.5C14.5001 17.3674 14.5528 17.2402 14.6466 17.1464C14.7403 17.0527 14.8675 17 15.0001 17ZM11.5001 17.5C11.5001 17.3674 11.5528 17.2402 11.6466 17.1464C11.7403 17.0527 11.8675 17 12.0001 17C12.1327 17 12.2599 17.0527 12.3537 17.1464C12.4474 17.2402 12.5001 17.3674 12.5001 17.5C12.5001 17.6326 12.4474 17.7598 12.3537 17.8536C12.2599 17.9473 12.1327 18 12.0001 18C11.8675 18 11.7403 17.9473 11.6466 17.8536C11.5528 17.7598 11.5001 17.6326 11.5001 17.5ZM10.0001 16C10.1327 16 10.2599 16.0527 10.3537 16.1464C10.4474 16.2402 10.5001 16.3674 10.5001 16.5C10.5001 16.6326 10.4474 16.7598 10.3537 16.8536C10.2599 16.9473 10.1327 17 10.0001 17C9.86751 17 9.74033 16.9473 9.64657 16.8536C9.5528 16.7598 9.50012 16.6326 9.50012 16.5C9.50012 16.3674 9.5528 16.2402 9.64657 16.1464C9.74033 16.0527 9.86751 16 10.0001 16Z" fill="black"/>
</svg>
