<svg width="24" height="24" viewBox="0 0 24 24" fill="none" xmlns="http://www.w3.org/2000/svg">
<path d="M19 11.7508V11.8539L21.1781 9.67578C21.8625 8.99141 21.8625 7.88516 21.1781 7.20078L18.7375 4.76328C18.0531 4.07891 16.9469 4.07891 16.2625 4.76328L15.0094 6.01641C14.925 6.00703 14.8375 6.00078 14.75 6.00078H11.25C10.0906 6.00078 9.1375 6.87578 9.0125 8.00078H9V11.7508C9 12.4414 9.55937 13.0008 10.25 13.0008C10.9406 13.0008 11.5 12.4414 11.5 11.7508V9.50078V9.49766V9.00078H12H16.25C16.25 9.00078 16.25 9.00078 16.2531 9.00078H16.5C17.8813 9.00078 19 10.1195 19 11.5008V11.7508ZM12.5 10.0008V11.7508C12.5 12.9945 11.4937 14.0008 10.25 14.0008C9.00625 14.0008 8 12.9945 8 11.7508V8.04453C6.87813 8.23828 5.94375 9.05391 5.625 10.1758L5.10938 11.9758L2.82187 14.2633C2.1375 14.9477 2.1375 16.0539 2.82187 16.7383L5.2625 19.1789C5.94688 19.8633 7.05313 19.8633 7.7375 19.1789L8.91563 18.0008C8.94375 18.0008 8.97188 18.0039 9 18.0039H14C14.8281 18.0039 15.5 17.332 15.5 16.5039C15.5 16.3289 15.4688 16.1602 15.4156 16.0039H15.5C16.3281 16.0039 17 15.332 17 14.5039C17 14.1039 16.8438 13.7414 16.5875 13.4727C17.3906 13.3164 17.9969 12.6102 18 11.7602V11.7477C17.9969 10.7852 17.2156 10.0039 16.25 10.0039H12.5V10.0008Z" fill="black"/>
</svg>
