<svg width="24" height="24" viewBox="0 0 24 24" fill="none" xmlns="http://www.w3.org/2000/svg">
<path d="M8.90625 4.57716L9.44688 5.73966L8.34375 8.10216L7.09375 5.42091C6.85938 4.92091 7.07812 4.32404 7.57812 4.09279C8.07812 3.86154 8.675 4.07716 8.90625 4.57716ZM10.7063 12.499H10.75C11.4406 12.499 12 13.0584 12 13.749C12 14.4397 11.4406 14.999 10.75 14.999H9C8.725 14.999 8.5 15.224 8.5 15.499C8.5 15.774 8.725 15.999 9 15.999H10.75C11.9937 15.999 13 14.9928 13 13.749V13.7303C13.2937 13.899 13.6344 13.999 14 13.999C14.4125 13.999 14.7938 13.874 15.1125 13.6615C15.3844 14.4397 16.1281 14.999 17 14.999C17.3656 14.999 17.7063 14.9022 18 14.7303V14.999C18 17.7615 15.7625 19.999 13 19.999H11.0719C9.74688 19.999 8.475 19.4709 7.5375 18.5334L7.17188 18.1709C6.42188 17.4209 6 16.4022 6 15.3428V14.499C6 13.3959 6.89688 12.499 8 12.499H8.5H9.60313H10.7063ZM12 11.8772C11.75 11.7084 11.4625 11.5897 11.1562 11.5334L11.6562 10.4678L12 11.2084V11.8803V11.8772ZM10.0687 11.499H7.8625L11.0938 4.57716C11.3281 4.07716 11.9219 3.86154 12.4219 4.09279C12.9219 4.32404 13.1375 4.92091 12.9062 5.42091L10.0687 11.499ZM13 9.99904C13 9.44591 13.4469 8.99904 14 8.99904C14.5531 8.99904 15 9.44591 15 9.99904V11.999C15 12.5522 14.5531 12.999 14 12.999C13.4469 12.999 13 12.5522 13 11.999V9.99904ZM16 10.999C16 10.4459 16.4469 9.99904 17 9.99904C17.5531 9.99904 18 10.4459 18 10.999V12.999C18 13.5522 17.5531 13.999 17 13.999C16.4469 13.999 16 13.5522 16 12.999V10.999Z" fill="black"/>
</svg>
