<svg width="24" height="24" viewBox="0 0 24 24" fill="none" xmlns="http://www.w3.org/2000/svg">
<path d="M4 11.0062C4 7.14375 7.13125 4 11 4H11.75C14.725 4 17.4125 6.16562 17.9156 9.00625C17.9875 9.4125 18.1281 9.80937 18.3875 10.1312L19.7 11.775C19.8937 12.0188 20 12.3188 20 12.6313C20 13.3875 19.3875 14 18.6313 14H18V16C18 17.1031 17.1031 18 16 18H14V19C14 19.5531 13.5531 20 13 20H7C6.44687 20 6 19.5531 6 19V16.7281C6 16.2062 5.78438 15.7125 5.46563 15.2969C4.51875 14.075 4 12.5656 4 11.0062ZM15 11C15.2652 11 15.5196 10.8946 15.7071 10.7071C15.8946 10.5196 16 10.2652 16 10C16 9.73478 15.8946 9.48043 15.7071 9.29289C15.5196 9.10536 15.2652 9 15 9C14.7348 9 14.4804 9.10536 14.2929 9.29289C14.1054 9.48043 14 9.73478 14 10C14 10.2652 14.1054 10.5196 14.2929 10.7071C14.4804 10.8946 14.7348 11 15 11Z" fill="black"/>
</svg>
