<svg width="24" height="24" viewBox="0 0 24 24" fill="none" xmlns="http://www.w3.org/2000/svg">
<path d="M5.525 8.26562C6.27813 6.93125 7.76875 6 9.53125 6C10.0594 6 10.5656 6.08437 11.0375 6.24062C11.5625 6.4125 12.1281 6.12812 12.3 5.60312C12.4719 5.07812 12.1875 4.5125 11.6625 4.34062C10.9938 4.11875 10.275 4 9.53125 4C5.975 4 3 6.75 3 10.25C3 13.1125 4.67188 15.6281 7.44375 16.3156C7.8625 16.4344 8.30312 16.5 8.7625 16.5C8.78437 16.5 8.80625 16.5 8.82812 16.4969C8.88437 16.4969 8.94375 16.5 9 16.5C9.99687 16.5 10.8937 16.1906 11.5125 15.9094C11.6937 15.825 11.8594 15.7437 12 15.6687C12.1406 15.7437 12.3031 15.8281 12.4875 15.9094C13.1063 16.1906 14.0031 16.5 15 16.5C16.0312 16.5 17.0469 16.1781 17.9531 15.6938C18.3719 15.9563 19.0063 16.2969 19.7719 16.475C20.3094 16.6 20.8469 16.2656 20.9719 15.7281C21.0969 15.1906 20.7625 14.6531 20.225 14.5281C19.6594 14.3969 19.0938 14.1125 18.6438 13.7406C18.2969 13.4438 17.7906 13.425 17.4187 13.6875C16.7312 14.1625 15.8406 14.5 15 14.5C14.1406 14.5 13.2812 14.1687 12.5781 13.6844C12.2312 13.4375 11.7688 13.4375 11.4219 13.6844C10.7219 14.1687 9.8625 14.5 9.00313 14.5H9C8.6125 14.5 8.25 14.4531 7.90938 14.3656C6.8 14.0063 6 12.9688 6 11.75C6 10.2344 7.23437 9 8.7625 9C9.18437 9 9.57812 9.09375 9.93437 9.25938C10.4344 9.49375 11.0312 9.27813 11.2625 8.775C11.4937 8.27188 11.2812 7.67813 10.7781 7.44688C10.1656 7.15938 9.48125 7 8.7625 7C7.5125 7 6.375 7.48125 5.525 8.26562ZM13.4 7.7C13.1469 7.8875 13 8.18437 13 8.5V12.2812C13.05 12.3125 13.1031 12.3438 13.15 12.3781C13.725 12.775 14.3875 13.0125 15 13.0125C15.5938 13.0125 16.2875 12.7656 16.85 12.3781C17.5938 11.8563 18.5937 11.9 19.2906 12.4844C19.6219 12.7594 20.0469 12.9719 20.4562 13.0656C20.6375 13.1094 20.8062 13.1719 20.9625 13.2594C20.9844 13.175 20.9969 13.0875 20.9969 12.9969L20.9844 8.49687C20.9844 8.18437 20.8375 7.89063 20.5875 7.7L17.6031 5.45C17.2469 5.18125 16.7562 5.18125 16.4 5.45L13.4 7.7ZM15 18C14.1406 18 13.2812 17.6687 12.5781 17.1844C12.2312 16.9375 11.7688 16.9375 11.4219 17.1844C10.7188 17.6687 9.85938 18 9 18C8.15938 18 7.27187 17.6625 6.58125 17.1844C6.20937 16.9187 5.70313 16.9406 5.35625 17.2375C4.90625 17.6094 4.34062 17.8937 3.775 18.025C3.2375 18.15 2.90312 18.6875 3.02812 19.225C3.15312 19.7625 3.69062 20.0969 4.22812 19.9719C4.99375 19.7938 5.63125 19.4563 6.04688 19.1906C6.95312 19.6781 7.96875 20 9 20C9.99687 20 10.8937 19.6906 11.5125 19.4094C11.6937 19.325 11.8594 19.2437 12 19.1687C12.1406 19.2437 12.3031 19.3281 12.4875 19.4094C13.1063 19.6906 14.0031 20 15 20C16.0312 20 17.0469 19.6781 17.9531 19.1938C18.3719 19.4563 19.0063 19.7969 19.7719 19.975C20.3094 20.1 20.8469 19.7656 20.9719 19.2281C21.0969 18.6906 20.7625 18.1531 20.225 18.0281C19.6594 17.8969 19.0938 17.6125 18.6438 17.2406C18.2969 16.9469 17.7906 16.925 17.4187 17.1875C16.7312 17.6625 15.8406 18 15 18Z" fill="black"/>
</svg>
