<svg width="24" height="24" viewBox="0 0 24 24" fill="none" xmlns="http://www.w3.org/2000/svg">
<path d="M6.77187 8.24687L6.44688 10.0344C6.65938 10.0125 6.87188 10 7.0875 10H7.42188C8.65313 10 9.85313 10.3781 10.8625 11.0844L19.575 17.1812L20.6719 17.95C21.4344 17.7625 22 17.0719 22 16.25C22 13.8812 19.0406 12.2938 17.7937 11.7281L16.8125 6.62188C16.6312 5.68125 15.8063 5 14.8469 5H14.7625C14.5875 5 14.4156 5.02188 14.2469 5.06875L8.225 6.67188C7.47812 6.87188 6.9125 7.48437 6.77187 8.24687ZM2 16C2 17.1031 2.89688 18 4 18H19L10.2906 11.9031C9.45 11.3156 8.45 11 7.42188 11H7.09062C5.19687 11 3.46562 12.0687 2.61875 13.7625L2.42188 14.1562C2.14375 14.7094 2 15.3219 2 15.9438V16Z" fill="black"/>
</svg>
