<svg width="24" height="24" viewBox="0 0 24 24" fill="none" xmlns="http://www.w3.org/2000/svg">
<path d="M10.6656 5.01174C11.2094 5.10237 11.5781 5.61799 11.4875 6.16174L11.1813 7.99924H14.1531L14.5125 5.83362C14.6031 5.28987 15.1188 4.92112 15.6625 5.01174C16.2063 5.10237 16.575 5.61799 16.4844 6.16174L16.1812 7.99924H18C18.5531 7.99924 19 8.44612 19 8.99924C19 9.55237 18.5531 9.99924 18 9.99924H15.8469L15.1812 13.9992H17C17.5531 13.9992 18 14.4461 18 14.9992C18 15.5524 17.5531 15.9992 17 15.9992H14.8469L14.4875 18.1649C14.3969 18.7086 13.8812 19.0774 13.3375 18.9867C12.7937 18.8961 12.425 18.3805 12.5156 17.8367L12.8219 16.0024H9.84688L9.4875 18.168C9.39688 18.7117 8.88125 19.0805 8.3375 18.9899C7.79375 18.8992 7.425 18.3836 7.51562 17.8399L7.81875 15.9992H6C5.44687 15.9992 5 15.5524 5 14.9992C5 14.4461 5.44687 13.9992 6 13.9992H8.15313L8.81875 9.99924H7C6.44687 9.99924 6 9.55237 6 8.99924C6 8.44612 6.44687 7.99924 7 7.99924H9.15312L9.5125 5.83362C9.60312 5.28987 10.1188 4.92112 10.6625 5.01174H10.6656ZM10.8469 9.99924L10.1813 13.9992H13.1531L13.8188 9.99924H10.8469Z" fill="black"/>
</svg>
