<svg width="24" height="24" viewBox="0 0 24 24" fill="none" xmlns="http://www.w3.org/2000/svg">
<path d="M6 17L9.26875 9.64683C9.74688 8.57183 10.5281 7.66245 11.5188 7.0312L16.1094 4.0937C16.2031 4.03433 16.3125 4.00308 16.4219 4.00308C16.7406 3.99995 17 4.25933 17 4.5812V4.6312C17 4.71245 16.9844 4.79058 16.9563 4.86558L15.0875 9.52808C15.0281 9.67495 15 9.8312 15 9.98745C15 10.1593 15.0375 10.3312 15.1062 10.4906L18 17H11.5281L11.8969 15.8937L13.1594 15.4718C13.3625 15.4031 13.5 15.2125 13.5 14.9968C13.5 14.7812 13.3625 14.5906 13.1594 14.5218L11.8969 14.1L11.475 12.8375C11.4062 12.6375 11.2156 12.5 11 12.5C10.7844 12.5 10.5938 12.6375 10.525 12.8406L10.1031 14.1031L8.84062 14.525C8.6375 14.5937 8.5 14.7843 8.5 15C8.5 15.2156 8.6375 15.4062 8.84062 15.475L10.1031 15.8968L10.4719 17H6ZM12.7375 8.42183C12.7031 8.3187 12.6094 8.24995 12.5 8.24995C12.3906 8.24995 12.2969 8.3187 12.2625 8.42183L12.0531 9.05308L11.4219 9.26245C11.3187 9.29683 11.25 9.39058 11.25 9.49995C11.25 9.60933 11.3187 9.70308 11.4219 9.73745L12.0531 9.94683L12.2625 10.5781C12.2969 10.6812 12.3906 10.75 12.5 10.75C12.6094 10.75 12.7031 10.6812 12.7375 10.5781L12.9469 9.94683L13.5781 9.73745C13.6812 9.70308 13.75 9.60933 13.75 9.49995C13.75 9.39058 13.6812 9.29683 13.5781 9.26245L12.9469 9.05308L12.7375 8.42183ZM5 18H19C19.5531 18 20 18.4468 20 19C20 19.5531 19.5531 20 19 20H5C4.44687 20 4 19.5531 4 19C4 18.4468 4.44687 18 5 18Z" fill="black"/>
</svg>
