<svg width="24" height="24" viewBox="0 0 24 24" fill="none" xmlns="http://www.w3.org/2000/svg">
<path d="M19.9937 12.9875C20.525 12.9875 20.9937 12.55 20.9937 11.9844C21.025 11.7031 20.9 11.4531 20.65 11.2344L12.6719 4.21875C12.4844 4.0625 12.2344 4 12.0156 4C11.7969 4 11.5469 4.03125 11.3281 4.25L3.3125 11.2344C3.09375 11.4531 3 11.7031 3 11.9844C3 12.5469 3.4375 12.9875 4 12.9875H5V18C5 19.1031 5.89687 20 7 20H17.0156C18.125 20 19.0219 19.1 19.0156 17.9906L18.9937 12.9844H19.9937V12.9875ZM8.5 12.4156C8.5 11.3594 9.35625 10.5 10.4156 10.5C10.9219 10.5 11.4094 10.7031 11.7688 11.0594L12 11.2906L12.2312 11.0594C12.5906 10.7 13.0781 10.5 13.5844 10.5C14.6406 10.5 15.5 11.3562 15.5 12.4156C15.5 12.9219 15.2969 13.4094 14.9406 13.7688L12.3562 16.3531C12.1625 16.5469 11.8438 16.5469 11.65 16.3531L9.06563 13.7688C8.70625 13.4094 8.50625 12.9219 8.50625 12.4156H8.5Z" fill="black"/>
</svg>
