<svg width="24" height="24" viewBox="0 0 24 24" fill="none" xmlns="http://www.w3.org/2000/svg">
<path d="M11.9999 6C12.4499 6 12.6968 5.78125 12.9624 5.55C13.2624 5.28437 13.5843 5 14.2499 5C15.7906 5 16.8874 9.75625 17.3093 11.9344C15.9937 12.5031 14.2156 13 11.9999 13C9.78432 13 8.00619 12.5031 6.69057 11.9344C7.11244 9.75625 8.20932 5 9.74994 5C10.4156 5 10.7374 5.28437 11.0374 5.55C11.3031 5.78125 11.5499 6 11.9999 6ZM5.47182 12.4594C6.94682 13.225 9.14369 14 12.0031 14C14.8624 14 17.0593 13.225 18.5312 12.4594C19.3062 12.0563 20.0874 11.575 20.7218 10.9688C20.9687 10.7219 21.3531 10.6813 21.6468 10.8656C21.9437 11.05 22.0687 11.425 21.9562 11.7562C21.5343 12.9344 20.7562 14.0156 19.8906 14.9C18.3656 16.4656 15.8624 18 11.9999 18C8.13744 18 5.63744 16.4656 4.10932 14.9C3.24369 14.0125 2.46557 12.9313 2.04369 11.7531C1.93119 11.4219 2.05619 11.0469 2.35307 10.8625C2.64994 10.6781 3.03119 10.7219 3.27807 10.9656C3.91557 11.5719 4.69369 12.0531 5.46869 12.4563L5.47182 12.4594Z" fill="black"/>
</svg>
