<svg width="24" height="24" viewBox="0 0 24 24" fill="none" xmlns="http://www.w3.org/2000/svg">
<path d="M7.73125 5.37813C8.45938 5.25625 9.19375 5.31875 9.875 5.54375L11.4313 7.96563L9.075 10.3219C9.02812 10.3688 9 10.4344 9.00313 10.5031C9.00625 10.5719 9.03437 10.6344 9.08437 10.6813L12.5844 13.9313C12.675 14.0156 12.8156 14.0219 12.9125 13.9406C13.0094 13.8594 13.0312 13.7219 12.9656 13.6156L11.0781 10.55L13.9125 8.1875C13.9938 8.12188 14.0219 8.00938 13.9875 7.9125L13.275 5.93125C14.1656 5.40938 15.225 5.20625 16.2656 5.38125C18.4219 5.7375 20 7.6 20 9.78438V9.96563C20 11.2625 19.4625 12.5031 18.5125 13.3875L12.8656 18.6594C12.6313 18.8781 12.3219 19 12 19C11.6781 19 11.3688 18.8781 11.1344 18.6594L5.4875 13.3875C4.5375 12.5031 4 11.2625 4 9.96563V9.78438C4 7.6 5.57812 5.7375 7.73125 5.37813Z" fill="black"/>
</svg>
