<svg width="24" height="24" viewBox="0 0 24 24" fill="none" xmlns="http://www.w3.org/2000/svg">
<path d="M11.2937 4.29297L8.29375 7.29297C7.90312 7.68359 7.90312 8.31797 8.29375 8.70859L11.2937 11.7086C11.6844 12.0992 12.3188 12.0992 12.7094 11.7086L15.7094 8.70859C16.1 8.31797 16.1 7.68359 15.7094 7.29297L12.7094 4.29297C12.3188 3.90234 11.6844 3.90234 11.2937 4.29297ZM4.5 7.24922C4.5 6.55859 3.94063 5.99922 3.25 5.99922C2.55937 5.99922 2 6.55859 2 7.24922V8.99922V10.9992V14.1711C2 14.968 2.31563 15.7305 2.87813 16.293L6 19.4148C6.375 19.7898 6.88438 19.9992 7.41563 19.9992H9.5C10.3281 19.9992 11 19.3273 11 18.4992V16.0336C11 15.1055 10.6312 14.2148 9.975 13.5586L9.18437 12.768L8.70937 12.293L7.70937 11.293C7.31875 10.9023 6.68437 10.9023 6.29375 11.293C5.90312 11.6836 5.90312 12.318 6.29375 12.7086L7.29375 13.7086L7.76875 14.1836C8.1125 14.5273 8.05625 15.0961 7.65312 15.3648C7.35 15.568 6.94375 15.5273 6.68437 15.268L5.08437 13.6711C4.70937 13.2961 4.5 12.7867 4.5 12.2555V10.9992V8.49922V7.24922ZM19.5 7.24922V8.49922V10.9992V12.2555C19.5 12.7867 19.2906 13.2961 18.9156 13.6711L17.3188 15.268C17.0594 15.5273 16.6531 15.568 16.35 15.3648C15.9469 15.0961 15.8906 14.5242 16.2344 14.1836L16.7094 13.7086L17.7094 12.7086C18.1 12.318 18.1 11.6836 17.7094 11.293C17.3188 10.9023 16.6844 10.9023 16.2937 11.293L15.2937 12.293L14.8188 12.768L14.0281 13.5586C13.3719 14.2148 13.0031 15.1055 13.0031 16.0336V18.4992C13.0031 19.3273 13.675 19.9992 14.5031 19.9992H16.5875C17.1187 19.9992 17.6281 19.7898 18.0031 19.4148L21.125 16.293C21.6875 15.7305 22.0031 14.968 22.0031 14.1711V10.9992V8.99922V7.24922C22.0031 6.55859 21.4437 5.99922 20.7531 5.99922C20.0625 5.99922 19.5031 6.55859 19.5031 7.24922H19.5Z" fill="black"/>
</svg>
