<svg width="24" height="24" viewBox="0 0 24 24" fill="none" xmlns="http://www.w3.org/2000/svg">
<path d="M12.5 4C11.6719 4 11 4.67188 11 5.5V6C12.1031 6 13 6.89688 13 8V19C13 19.3656 12.9031 19.7063 12.7312 20H19.5C20.3281 20 21 19.3281 21 18.5V16H17.5C17.225 16 17 15.775 17 15.5C17 15.225 17.225 15 17.5 15H21V13H17.5C17.225 13 17 12.775 17 12.5C17 12.225 17.225 12 17.5 12H21V5.5C21 4.67188 20.3281 4 19.5 4H12.5ZM15.75 7C15.75 6.725 15.975 6.5 16.25 6.5H16.75C17.025 6.5 17.25 6.725 17.25 7V7.75H18C18.275 7.75 18.5 7.975 18.5 8.25V8.75C18.5 9.025 18.275 9.25 18 9.25H17.25V10C17.25 10.275 17.025 10.5 16.75 10.5H16.25C15.975 10.5 15.75 10.275 15.75 10V9.25H15C14.725 9.25 14.5 9.025 14.5 8.75V8.25C14.5 7.975 14.725 7.75 15 7.75H15.75V7ZM3 8.5V16H7.5C7.775 16 8 16.225 8 16.5C8 16.775 7.775 17 7.5 17H3V18.5C3 19.3281 3.67188 20 4.5 20H10.5C11.3281 20 12 19.3281 12 18.5V8.5C12 7.67188 11.3281 7 10.5 7H4.5C3.67188 7 3 7.67188 3 8.5ZM6.75 10C6.75 9.725 6.975 9.5 7.25 9.5H7.75C8.025 9.5 8.25 9.725 8.25 10V10.75H9C9.275 10.75 9.5 10.975 9.5 11.25V11.75C9.5 12.025 9.275 12.25 9 12.25H8.25V13C8.25 13.275 8.025 13.5 7.75 13.5H7.25C6.975 13.5 6.75 13.275 6.75 13V12.25H6C5.725 12.25 5.5 12.025 5.5 11.75V11.25C5.5 10.975 5.725 10.75 6 10.75H6.75V10Z" fill="black"/>
</svg>
