<svg width="24" height="24" viewBox="0 0 24 24" fill="none" xmlns="http://www.w3.org/2000/svg">
<path d="M5.4875 13.3875L11.1344 18.6594C11.3688 18.8781 11.6781 19 12 19C12.3219 19 12.6313 18.8781 12.8656 18.6594L18.5125 13.3875C19.4625 12.5031 20 11.2625 20 9.96561V9.78436C20 7.59998 18.4219 5.73748 16.2688 5.37811C14.8438 5.14061 13.3938 5.60623 12.375 6.62498L12 6.99998L11.625 6.62498C10.6062 5.60623 9.15625 5.14061 7.73125 5.37811C5.57812 5.73748 4 7.59998 4 9.78436V9.96561C4 11.2625 4.5375 12.5031 5.4875 13.3875Z" fill="black"/>
</svg>
