<svg width="24" height="24" viewBox="0 0 24 24" fill="none" xmlns="http://www.w3.org/2000/svg">
<path d="M6 17.0008L9.26875 9.64768C9.74688 8.57268 10.5281 7.66331 11.5188 7.03206L16.1094 4.09456C16.2031 4.03518 16.3125 4.00393 16.4219 4.00393C16.7406 4.00081 17 4.26018 17 4.58206V4.63206C17 4.71331 16.9844 4.79143 16.9563 4.86643L15.0875 9.52893C15.0281 9.67581 15 9.83206 15 9.98831C15 10.1602 15.0375 10.3321 15.1062 10.4914L18 17.0008H11.5281L11.8969 15.8946L13.1594 15.4727C13.3625 15.4039 13.5 15.2133 13.5 14.9977C13.5 14.7821 13.3625 14.5914 13.1594 14.5227L11.8969 14.1008L11.475 12.8383C11.4062 12.6383 11.2156 12.5008 11 12.5008C10.7844 12.5008 10.5938 12.6383 10.525 12.8414L10.1031 14.1039L8.84062 14.5258C8.6375 14.5946 8.5 14.7852 8.5 15.0008C8.5 15.2164 8.6375 15.4071 8.84062 15.4758L10.1031 15.8977L10.4719 17.0008H6ZM12.7375 8.42268C12.7031 8.31956 12.6094 8.25081 12.5 8.25081C12.3906 8.25081 12.2969 8.31956 12.2625 8.42268L12.0531 9.05393L11.4219 9.26331C11.3188 9.29768 11.25 9.39143 11.25 9.50081C11.25 9.61018 11.3188 9.70393 11.4219 9.73831L12.0531 9.94768L12.2625 10.5789C12.2969 10.6821 12.3906 10.7508 12.5 10.7508C12.6094 10.7508 12.7031 10.6821 12.7375 10.5789L12.9469 9.94768L13.5781 9.73831C13.6812 9.70393 13.75 9.61018 13.75 9.50081C13.75 9.39143 13.6812 9.29768 13.5781 9.26331L12.9469 9.05393L12.7375 8.42268ZM5 18.0008H19C19.5531 18.0008 20 18.4477 20 19.0008C20 19.5539 19.5531 20.0008 19 20.0008H5C4.44687 20.0008 4 19.5539 4 19.0008C4 18.4477 4.44687 18.0008 5 18.0008Z" fill="black"/>
</svg>
