<svg width="24" height="24" viewBox="0 0 24 24" fill="none" xmlns="http://www.w3.org/2000/svg">
<path d="M3.21268 4.15937C2.88768 3.90312 2.4158 3.96249 2.15955 4.28749C1.9033 4.61249 1.96268 5.08437 2.28768 5.34062L20.7877 19.8406C21.1127 20.0969 21.5846 20.0375 21.8408 19.7125C22.0971 19.3875 22.0377 18.9156 21.7127 18.6594L17.4939 15.3531C17.4596 15 17.2971 14.6562 17.0158 14.3937L12.8221 10.55L12.0908 11.1187L11.2783 10.4844L13.6908 8.60624C13.9096 8.43749 14.2221 8.47499 14.3939 8.69374C14.5658 8.91249 14.5252 9.22499 14.3064 9.39687L13.6533 9.90312L19.1939 15H20.5002C21.3283 15 22.0002 14.3281 22.0002 13.5V9.49999C22.0002 8.67187 21.3283 7.99999 20.5002 7.99999H18.1252H18.0002H17.9783L17.8564 7.92187L15.5877 6.46874C15.1096 6.16249 14.5502 5.99999 13.9814 5.99999C13.3002 5.99999 12.6377 6.23437 12.1064 6.66249L9.3033 8.93124L8.49705 8.29687L11.0533 6.22812C10.6908 6.07499 10.3002 5.99687 9.9033 5.99687C9.31268 5.99999 8.7408 6.17499 8.25018 6.49999L7.1408 7.24062L3.21268 4.15937ZM14.9252 17.1844L3.28768 8.01562C2.55955 8.11874 2.00018 8.74374 2.00018 9.49999V13.5C2.00018 14.3281 2.67205 15 3.50018 15H6.88143L9.73768 17.6062C10.3502 18.1656 11.2971 18.1219 11.8564 17.5094C12.0283 17.3187 12.1439 17.0969 12.2033 16.8656L12.7346 17.3531C13.3439 17.9125 14.2939 17.8719 14.8533 17.2625C14.8783 17.2375 14.9002 17.2094 14.9221 17.1812L14.9252 17.1844Z" fill="black"/>
</svg>
