<svg width="24" height="24" viewBox="0 0 24 24" fill="none" xmlns="http://www.w3.org/2000/svg">
<path d="M9.80938 7.63047C10.3219 7.22109 10.9594 6.99922 11.6125 6.99922H12.9688C13.8156 6.99922 14.5 7.68359 14.5 8.53047C14.5 8.88984 14.375 9.23047 14.1531 9.49922H7C6.44687 9.49922 6 9.94609 6 10.4992C6 11.0523 6.44687 11.4992 7 11.4992H10.8594L9.27813 12.4023C9.225 12.4336 9.17188 12.4648 9.11875 12.4992H7C6.44687 12.4992 6 12.9461 6 13.4992C6 14.0523 6.44687 14.4992 7 14.4992H7.63437C7.54687 14.8086 7.5 15.1367 7.5 15.468C7.5 17.418 9.08125 18.9992 11.0312 18.9992H12.3875C13.4969 18.9992 14.575 18.6211 15.4406 17.9273L15.625 17.7805C16.0563 17.4367 16.125 16.8055 15.7812 16.3742C15.4375 15.943 14.8063 15.8742 14.375 16.218L14.1906 16.3648C13.6781 16.7742 13.0437 16.9961 12.3875 16.9961H11.0312C10.1844 16.9961 9.5 16.3117 9.5 15.4648C9.5 15.1055 9.625 14.7648 9.84687 14.4961H17C17.5531 14.4961 18 14.0492 18 13.4961C18 12.943 17.5531 12.4961 17 12.4961H13.1406L14.7219 11.593C14.775 11.5617 14.8281 11.5305 14.8813 11.4961H17C17.5531 11.4961 18 11.0492 18 10.4961C18 9.94297 17.5531 9.49609 17 9.49609H16.3656C16.4531 9.18359 16.5 8.85859 16.5 8.52734C16.5 6.57734 14.9188 4.99609 12.9688 4.99609H11.6125C10.5031 4.99609 9.425 5.37422 8.55938 6.06797L8.375 6.21797C7.94375 6.56172 7.875 7.19297 8.21875 7.62422C8.5625 8.05547 9.19375 8.12422 9.625 7.78047L9.80938 7.63359V7.63047Z" fill="black"/>
</svg>
