<svg width="24" height="24" viewBox="0 0 24 24" fill="none" xmlns="http://www.w3.org/2000/svg">
<path d="M12.0001 6C12.4501 6 12.6969 5.78125 12.9626 5.55C13.2626 5.28437 13.5844 5 14.2501 5C15.7907 5 16.8876 9.75625 17.3094 11.9344C15.9938 12.5031 14.2157 13 12.0001 13C9.78444 13 8.00631 12.5031 6.69069 11.9344C7.11256 9.75625 8.20944 5 9.75006 5C10.4157 5 10.7376 5.28437 11.0376 5.55C11.3032 5.78125 11.5501 6 12.0001 6ZM5.47194 12.4594C6.94694 13.225 9.14382 14 12.0032 14C14.8626 14 17.0594 13.225 18.5313 12.4594C19.3063 12.0563 20.0876 11.575 20.7219 10.9688C20.9688 10.7219 21.3532 10.6812 21.6469 10.8656C21.9438 11.05 22.0688 11.425 21.9563 11.7562C21.5344 12.9344 20.7563 14.0156 19.8907 14.9C18.3657 16.4656 15.8626 18 12.0001 18C8.13756 18 5.63756 16.4656 4.10944 14.9C3.24381 14.0125 2.46569 12.9313 2.04381 11.7531C1.93131 11.4219 2.05631 11.0469 2.35319 10.8625C2.65006 10.6781 3.03131 10.7219 3.27819 10.9656C3.91569 11.5719 4.69381 12.0531 5.46881 12.4563L5.47194 12.4594Z" fill="black"/>
</svg>
