<svg width="24" height="24" viewBox="0 0 24 24" fill="none" xmlns="http://www.w3.org/2000/svg">
<path d="M5.4875 13.3875L11.1344 18.6594C11.3688 18.8781 11.6781 19 12 19C12.3219 19 12.6313 18.8781 12.8656 18.6594L18.5125 13.3875C19.4625 12.5031 20 11.2625 20 9.96562V9.78437C20 7.6 18.4219 5.7375 16.2688 5.37812C14.8438 5.14062 13.3937 5.60625 12.375 6.625L12 7L11.625 6.625C10.6063 5.60625 9.15625 5.14062 7.73125 5.37812C5.57812 5.7375 4 7.6 4 9.78437V9.96562C4 11.2625 4.5375 12.5031 5.4875 13.3875Z" fill="black"/>
</svg>
