<svg width="24" height="24" viewBox="0 0 24 24" fill="none" xmlns="http://www.w3.org/2000/svg">
<path d="M14.5001 4.5V6.5C14.5001 6.775 14.2751 7 14.0001 7C13.7251 7 13.5001 6.775 13.5001 6.5V4.5C13.5001 4.225 13.7251 4 14.0001 4C14.2751 4 14.5001 4.225 14.5001 4.5ZM11.4157 4.72188L12.4157 6.22187C12.5688 6.45312 12.5063 6.7625 12.2782 6.91563C12.0501 7.06875 11.7376 7.00625 11.5845 6.77813L10.5845 5.27813C10.4313 5.04688 10.4938 4.7375 10.722 4.58438C10.9501 4.43125 11.2626 4.49375 11.4157 4.72188ZM8.21885 7.71875C8.5126 7.425 8.9876 7.425 9.27822 7.71875L13.147 11.5844C13.4626 11.9 14.0001 11.675 14.0001 11.2312V10C14.0001 9.44687 14.447 9 15.0001 9C15.5532 9 16.0001 9.44687 16.0001 10V14.8C16.0001 16.5844 15.0626 18.2375 13.5345 19.1562C11.5345 20.3563 8.97822 20.0406 7.33135 18.3938L4.21885 15.2812C3.9251 14.9875 3.9251 14.5125 4.21885 14.2219C4.5126 13.9313 4.9876 13.9281 5.27822 14.2219L6.93447 15.8781C7.1251 16.0688 7.43447 16.0688 7.6251 15.8781C7.81572 15.6875 7.81572 15.3781 7.6251 15.1875L4.71885 12.2812C4.4251 11.9875 4.4251 11.5125 4.71885 11.2219C5.0126 10.9313 5.4876 10.9281 5.77822 11.2219L8.68447 14.1281C8.8751 14.3188 9.18447 14.3188 9.3751 14.1281C9.56572 13.9375 9.56572 13.6281 9.3751 13.4375L5.71885 9.78125C5.4251 9.4875 5.4251 9.0125 5.71885 8.72188C6.0126 8.43125 6.4876 8.42813 6.77822 8.72188L10.4345 12.3781C10.6251 12.5688 10.9345 12.5688 11.1251 12.3781C11.3157 12.1875 11.3157 11.8781 11.1251 11.6875L8.21885 8.78125C7.9251 8.4875 7.9251 8.0125 8.21885 7.72187V7.71875ZM17.5345 19.1531C16.7782 19.6062 15.9438 19.8438 15.1063 19.875C16.6095 18.6375 17.5001 16.7813 17.5001 14.8V11.7344C17.7563 11.7312 18.0001 11.5344 18.0001 11.2344V10C18.0001 9.44687 18.447 9 19.0001 9C19.5532 9 20.0001 9.44687 20.0001 10V14.8C20.0001 16.5844 19.0626 18.2375 17.5345 19.1562V19.1531ZM17.2782 4.58438C17.5095 4.7375 17.5688 5.04688 17.4157 5.27813L16.4157 6.77813C16.2626 7.00938 15.9532 7.06875 15.722 6.91563C15.4907 6.7625 15.4313 6.45312 15.5845 6.22187L16.5845 4.72188C16.7376 4.49063 17.047 4.43125 17.2782 4.58438Z" fill="black"/>
</svg>
