<svg width="24" height="24" viewBox="0 0 24 24" fill="none" xmlns="http://www.w3.org/2000/svg">
<path d="M12.0001 7C12.3979 7 12.7794 6.84196 13.0607 6.56066C13.342 6.27936 13.5001 5.89782 13.5001 5.5C13.5001 5.10218 13.342 4.72064 13.0607 4.43934C12.7794 4.15804 12.3979 4 12.0001 4C11.6023 4 11.2207 4.15804 10.9394 4.43934C10.6581 4.72064 10.5001 5.10218 10.5001 5.5C10.5001 5.89782 10.6581 6.27936 10.9394 6.56066C11.2207 6.84196 11.6023 7 12.0001 7ZM9.50008 10C9.89791 10 10.2794 9.84196 10.5607 9.56066C10.842 9.27936 11.0001 8.89782 11.0001 8.5C11.0001 8.10218 10.842 7.72064 10.5607 7.43934C10.2794 7.15804 9.89791 7 9.50008 7C9.10226 7 8.72073 7.15804 8.43942 7.43934C8.15812 7.72064 8.00008 8.10218 8.00008 8.5C8.00008 8.89782 8.15812 9.27936 8.43942 9.56066C8.72073 9.84196 9.10226 10 9.50008 10ZM12.6501 15.9937C12.6813 15.9969 12.7157 16 12.7501 16C13.9938 16 15.0001 17.0063 15.0001 18.25V18.9594C15.0001 19.4719 15.5001 19.8313 15.9876 19.6719L16.3876 19.5375C16.9501 19.35 17.5532 19.3344 18.1251 19.4906L18.7313 19.6562C19.2907 19.8094 19.8063 19.2937 19.6532 18.7344L19.4876 18.125C19.3313 17.5531 19.3501 16.95 19.5345 16.3875L19.6688 15.9875C19.8313 15.5031 19.4688 15 18.9563 15C17.8751 15 16.997 14.1219 16.997 13.0406V12.0406C16.997 11.5281 16.497 11.1687 16.0095 11.3281L15.6095 11.4625C15.047 11.65 14.4438 11.6656 13.872 11.5094L12.947 11.2562C12.8563 11.2312 12.7626 11.225 12.6751 11.2344C12.8063 11.5375 12.8563 11.8844 12.7907 12.2437L12.5938 13.3344C12.547 13.5969 12.5501 13.8656 12.6095 14.125L12.7751 14.8719C12.8626 15.2688 12.8095 15.6594 12.6501 15.9937ZM7.98758 11.3281C7.50321 11.1656 7.00008 11.5281 7.00008 12.0406V13.0406C7.00008 14.1219 6.12196 15 5.04071 15C4.52821 15 4.16883 15.5 4.32821 15.9875L4.46258 16.3875C4.65008 16.95 4.66571 17.5531 4.50946 18.125L4.34383 18.7312C4.19383 19.2937 4.70633 19.8062 5.26571 19.6562L5.87508 19.4875C6.44696 19.3313 7.05008 19.3469 7.61258 19.5344L8.01258 19.6687C8.49696 19.8313 9.00008 19.4688 9.00008 18.9563V17.9563C9.00008 16.875 9.87821 15.9969 10.9595 15.9969C11.472 15.9969 11.8313 15.4969 11.672 15.0094L11.5376 14.6094C11.3501 14.0469 11.3345 13.4437 11.4907 12.8719L11.6563 12.2656C11.8095 11.7063 11.2938 11.1906 10.7345 11.3438L10.1251 11.5125C9.55321 11.6687 8.95008 11.65 8.38758 11.4656L7.98758 11.3313V11.3281ZM16.0001 8.5C16.0001 8.10218 15.842 7.72064 15.5607 7.43934C15.2794 7.15804 14.8979 7 14.5001 7C14.1023 7 13.7207 7.15804 13.4394 7.43934C13.1581 7.72064 13.0001 8.10218 13.0001 8.5C13.0001 8.89782 13.1581 9.27936 13.4394 9.56066C13.7207 9.84196 14.1023 10 14.5001 10C14.8979 10 15.2794 9.84196 15.5607 9.56066C15.842 9.27936 16.0001 8.89782 16.0001 8.5Z" fill="black"/>
</svg>
