<svg width="24" height="24" viewBox="0 0 24 24" fill="none" xmlns="http://www.w3.org/2000/svg">
<path d="M8.82195 4.26484C9.20632 3.91172 9.79695 3.91172 10.1782 4.26484L16.6782 10.2648C16.8876 10.4586 17.0001 10.7273 17.0001 10.9992H12.5001C11.9032 10.9992 11.3657 11.2617 11.0001 11.6773V10.4992C11.0001 10.2242 10.7751 9.99922 10.5001 9.99922H8.50007C8.22507 9.99922 8.00007 10.2242 8.00007 10.4992V12.4992C8.00007 12.7742 8.22507 12.9992 8.50007 12.9992H10.5001V16.9992H5.50007C4.67195 16.9992 4.00007 16.3273 4.00007 15.4992V11.9992H3.00007C2.58757 11.9992 2.21882 11.7461 2.06882 11.3648C1.91882 10.9836 2.01882 10.5461 2.32195 10.2648L8.82195 4.26484ZM13.0001 13.4992V17.9992H19.0001V13.4992H13.0001ZM11.5001 12.9992C11.5001 12.4461 11.9469 11.9992 12.5001 11.9992H19.5001C20.0532 11.9992 20.5001 12.4461 20.5001 12.9992V17.9992H21.5001C21.7751 17.9992 22.0001 18.2242 22.0001 18.4992C22.0001 19.3273 21.3282 19.9992 20.5001 19.9992H19.0001H13.0001H11.5001C10.6719 19.9992 10.0001 19.3273 10.0001 18.4992C10.0001 18.2242 10.2251 17.9992 10.5001 17.9992H11.5001V12.9992Z" fill="black"/>
</svg>
