<svg width="24" height="24" viewBox="0 0 24 24" fill="none" xmlns="http://www.w3.org/2000/svg">
<path d="M20.9937 11.9844C20.9937 12.5469 20.525 12.9875 19.9937 12.9875H18.9937L19.0156 17.9937C19.0219 19.1031 18.125 20.0031 17.0156 20.0031H7.00313C5.9 20.0031 5.00312 19.1063 5.00312 18.0031V12.9875H4C3.4375 12.9875 3 12.55 3 11.9844C3 11.7031 3.09375 11.4531 3.3125 11.2344L11.325 4.25C11.5437 4.03125 11.7937 4 12.0125 4C12.2312 4 12.4812 4.0625 12.6687 4.21875L16 7.14687V6C16 5.44687 16.4469 5 17 5H18C18.5531 5 19 5.44687 19 6V9.78125L20.65 11.2312C20.9 11.45 21.025 11.7 20.9937 11.9812V11.9844ZM11.5 10C11.225 10 11 10.225 11 10.5V12H9.5C9.225 12 9 12.225 9 12.5V13.5C9 13.775 9.225 14 9.5 14H11V15.5C11 15.775 11.225 16 11.5 16H12.5C12.775 16 13 15.775 13 15.5V14H14.5C14.775 14 15 13.775 15 13.5V12.5C15 12.225 14.775 12 14.5 12H13V10.5C13 10.225 12.775 10 12.5 10H11.5Z" fill="black"/>
</svg>
