<svg width="24" height="24" viewBox="0 0 24 24" fill="none" xmlns="http://www.w3.org/2000/svg">
<path d="M7 19C7 19.5531 7.44687 20 8 20C8.55312 20 9 19.5531 9 19V12.5H7V19ZM13 14C13 14.5531 13.4469 15 14 15C14.5531 15 15 14.5531 15 14V12C15 11.4469 14.5531 11 14 11C13.4469 11 13 11.4469 13 12V14ZM11 16C11.5531 16 12 15.5531 12 15V13.5C12 12.9469 11.5531 12.5 11 12.5C10.4469 12.5 10 12.9469 10 13.5V15C10 15.5531 10.4469 16 11 16ZM16 13C16 13.5531 16.4469 14 17 14C17.5531 14 18 13.5531 18 13V11C18 10.4469 17.5531 10 17 10C16.4469 10 16 10.4469 16 11V13ZM13 10.25V10.2688C13.2937 10.1 13.6344 10 14 10C14.4125 10 14.7937 10.125 15.1125 10.3375C15.3844 9.55938 16.1281 9 17 9C17.3656 9 17.7063 9.09688 18 9.26875V9C18 6.2375 15.7625 4 13 4H11.0719C9.74375 4 8.47187 4.52813 7.53437 5.46563L7.17188 5.82812C6.42188 6.57812 6 7.59687 6 8.65625V9.5C6 10.6031 6.89688 11.5 8 11.5H10.75C11.4406 11.5 12 10.9406 12 10.25C12 9.55937 11.4406 9 10.75 9H9C8.725 9 8.5 8.775 8.5 8.5C8.5 8.225 8.725 8 9 8H10.75C11.9938 8 13 9.00625 13 10.25Z" fill="black"/>
</svg>
