<svg width="24" height="24" viewBox="0 0 24 24" fill="none" xmlns="http://www.w3.org/2000/svg">
<path d="M5 6C5 5.44687 5.44687 5 6 5H7.5H9C9.55313 5 10 5.44687 10 6C10 6.55313 9.55313 7 9 7H8.5V10.5H15.5V7H15C14.4469 7 14 6.55313 14 6C14 5.44687 14.4469 5 15 5H16.5H18C18.5531 5 19 5.44687 19 6C19 6.55313 18.5531 7 18 7H17.5V11.5V17H18C18.5531 17 19 17.4469 19 18C19 18.5531 18.5531 19 18 19H16.5H15C14.4469 19 14 18.5531 14 18C14 17.4469 14.4469 17 15 17H15.5V12.5H8.5V17H9C9.55313 17 10 17.4469 10 18C10 18.5531 9.55313 19 9 19H7.5H6C5.44687 19 5 18.5531 5 18C5 17.4469 5.44687 17 6 17H6.5V11.5V7H6C5.44687 7 5 6.55313 5 6Z" fill="black"/>
</svg>
