<svg width="24" height="24" viewBox="0 0 24 24" fill="none" xmlns="http://www.w3.org/2000/svg">
<path d="M18.9844 11C18.725 7.09063 15.475 4 11.5 4C7.35938 4 4 7.35938 4 11.5V13.2594C4 14.775 5.225 16 6.74062 16H10.25H10.7156L14.7344 19.7937C14.875 19.925 15.0594 20 15.25 20H18.25C18.6656 20 19 19.6656 19 19.25C19 18.8344 18.6656 18.5 18.25 18.5H15.5469L15.5 18.4531V13H18H19C19.5531 13 20 12.5531 20 12C20 11.4469 19.5531 11 19 11H18.9844ZM14 17.0375L11.5625 14.7344L12.575 13H14V17.0375ZM12.9156 7.22187L14 8.84688V7.5C14 7.225 14.225 7 14.5 7C14.775 7 15 7.225 15 7.5V10.5C15 10.7219 14.8562 10.9156 14.6438 10.9781C14.4313 11.0406 14.2063 10.9594 14.0844 10.7781L13 9.15312V10.5C13 10.775 12.775 11 12.5 11C12.225 11 12 10.775 12 10.5V7.5C12 7.27813 12.1438 7.08437 12.3562 7.02187C12.5687 6.95937 12.7937 7.04062 12.9156 7.22187ZM9 7.5V9.5C9 9.775 9.225 10 9.5 10C9.775 10 10 9.775 10 9.5V7.5C10 7.225 10.225 7 10.5 7C10.775 7 11 7.225 11 7.5V9.5C11 10.3281 10.3281 11 9.5 11C8.67188 11 8 10.3281 8 9.5V7.5C8 7.225 8.225 7 8.5 7C8.775 7 9 7.225 9 7.5Z" fill="black"/>
</svg>
