<svg width="24" height="24" viewBox="0 0 24 24" fill="none" xmlns="http://www.w3.org/2000/svg">
<path d="M5.5 4.53435C5.51875 4.27498 5.33438 4.04373 5.075 4.0031C4.81563 3.96248 4.57188 4.13123 4.5125 4.38435L3.025 10.8375C3.00938 10.9062 3 10.9781 3 11.05C3 11.575 3.425 12 3.95 12H4.01875C4.55312 12 4.99687 11.5875 5.03437 11.0562L5.5 4.53435ZM13 15V19.25C13 19.825 13.65 20.1906 14.1406 19.8906L18.6406 17.1406C18.9281 16.9656 19.0625 16.6187 18.9719 16.2937C18.4406 14.425 18 12.4437 18 10.5C18 7.84373 15.2156 5.83748 13.2156 4.59373C13.1562 4.55623 13.0906 4.51248 13.0188 4.4656C12.725 4.26248 12.3344 3.99998 12 3.99998C11.6656 3.99998 11.275 4.26248 10.9781 4.4656C10.9062 4.51248 10.8406 4.55935 10.7812 4.59373C8.78438 5.83748 6 7.84373 6 10.5C6 12.4437 5.55938 14.425 5.02813 16.2937C4.93438 16.6187 5.07188 16.9625 5.35938 17.1406L9.85938 19.8906C10.35 20.1906 11 19.825 11 19.25V13.25V12.3594C11 12.1437 10.8625 11.9531 10.6594 11.8844L8.4 11.1312C8.1625 11.0531 8.00313 10.8312 8.00313 10.5812C8.00313 10.2594 8.2625 9.99998 8.58437 9.99998H15.4187C15.7406 9.99998 16 10.2594 16 10.5812C16 10.8312 15.8406 11.0531 15.6031 11.1312L13.3438 11.8844C13.1406 11.9531 13.0031 12.1437 13.0031 12.3594V15H13ZM18.925 4.00623C18.6656 4.04373 18.4812 4.27498 18.5 4.53748L18.9656 11.0562C19.0031 11.5875 19.4469 12 19.9813 12H20.05C20.575 12 21 11.575 21 11.05C21 10.9781 20.9906 10.9062 20.975 10.8375L19.4875 4.38748C19.4281 4.13435 19.1844 3.9656 18.925 4.00623Z" fill="black"/>
</svg>
