<svg width="24" height="24" viewBox="0 0 24 24" fill="none" xmlns="http://www.w3.org/2000/svg">
<path d="M10.8875 7.2437L11.7312 8.7437C11.8187 8.89995 11.9875 8.99995 12.1656 8.99995H13.8313C14.0125 8.99995 14.1781 8.90308 14.2656 8.7437L15.1094 7.2437C15.1938 7.09058 15.1938 6.9062 15.1094 6.75308L14.2656 5.25308C14.1781 5.09683 14.0094 4.99683 13.8313 4.99683H12.1687C11.9875 4.99683 11.8219 5.0937 11.7344 5.25308L10.8906 6.75308C10.8063 6.9062 10.8063 7.09058 10.8906 7.2437H10.8875ZM5.13438 6.7187C4.34688 5.9312 3 6.49058 3 7.60308V17.5C3 18.8812 4.11875 20 5.5 20H15.3969C16.5094 20 17.0688 18.6531 16.2812 17.8656L5.13438 6.7187ZM18.7563 16.6125C18.9094 16.6968 19.0938 16.6968 19.2469 16.6125L20.7469 15.7687C20.9031 15.6812 21.0031 15.5125 21.0031 15.3343V13.6687C21.0031 13.4875 20.9062 13.3218 20.7469 13.2343L19.2469 12.3906C19.0938 12.3062 18.9094 12.3062 18.7563 12.3906L17.2563 13.2343C17.1 13.3218 17 13.4906 17 13.6687V15.3343C17 15.5156 17.0969 15.6812 17.2563 15.7687L18.7563 16.6125ZM9 5.99995C9 5.73473 8.89464 5.48038 8.70711 5.29284C8.51957 5.10531 8.26522 4.99995 8 4.99995C7.73478 4.99995 7.48043 5.10531 7.29289 5.29284C7.10536 5.48038 7 5.73473 7 5.99995C7 6.26517 7.10536 6.51952 7.29289 6.70706C7.48043 6.89459 7.73478 6.99995 8 6.99995C8.26522 6.99995 8.51957 6.89459 8.70711 6.70706C8.89464 6.51952 9 6.26517 9 5.99995ZM15 13C15.2652 13 15.5196 12.8946 15.7071 12.7071C15.8946 12.5195 16 12.2652 16 12C16 11.7347 15.8946 11.4804 15.7071 11.2928C15.5196 11.1053 15.2652 11 15 11C14.7348 11 14.4804 11.1053 14.2929 11.2928C14.1054 11.4804 14 11.7347 14 12C14 12.2652 14.1054 12.5195 14.2929 12.7071C14.4804 12.8946 14.7348 13 15 13Z" fill="black"/>
</svg>
