<svg width="24" height="24" viewBox="0 0 24 24" fill="none" xmlns="http://www.w3.org/2000/svg">
<path d="M8.82183 4.26562C9.2062 3.9125 9.79683 3.9125 10.1781 4.26562L14.1531 7.93438C13.5593 8.39688 13.0781 9.0125 12.775 9.7375L12.4406 10.5437L12.1062 10.7125C11.1187 11.2063 10.7187 12.4094 11.2125 13.3969C11.6937 14.3625 12.8531 14.7656 13.825 14.325L13.6125 14.5594C13.3312 14.8656 13.1312 15.2375 13.0312 15.6438L12.6875 17H5.49995C4.67183 17 3.99995 16.3281 3.99995 15.5V12H2.99995C2.58745 12 2.2187 11.7469 2.0687 11.3656C1.9187 10.9844 2.0187 10.5469 2.32183 10.2656L8.82183 4.26562ZM5.99995 10.5V12.5C5.99995 12.775 6.22495 13 6.49995 13H8.49995C8.77495 13 8.99995 12.775 8.99995 12.5V10.5C8.99995 10.225 8.77495 10 8.49995 10H6.49995C6.22495 10 5.99995 10.225 5.99995 10.5ZM15.5 4C15.8978 4 16.2793 4.15804 16.5606 4.43934C16.8419 4.72064 17 5.10218 17 5.5C17 5.89782 16.8419 6.27936 16.5606 6.56066C16.2793 6.84196 15.8978 7 15.5 7C15.1021 7 14.7206 6.84196 14.4393 6.56066C14.158 6.27936 14 5.89782 14 5.5C14 5.10218 14.158 4.72064 14.4393 4.43934C14.7206 4.15804 15.1021 4 15.5 4ZM18.1343 10.2656C18.1031 10.2531 18.075 10.2406 18.0437 10.2281L18.5718 12.2125C18.7468 12.8719 18.5749 13.575 18.1124 14.0781L15.9031 16.4875L15.2156 19.2406C15.0812 19.775 14.5375 20.1031 14.0031 19.9688C13.4687 19.8344 13.1406 19.2906 13.275 18.7563L13.9937 15.8781C14.0531 15.6344 14.175 15.4125 14.3437 15.2281L15.8906 13.5406L15.2875 11.4938L14.9875 12.2125C14.85 12.5437 14.5968 12.8156 14.275 12.9781L13.4406 13.3938C12.9468 13.6406 12.3468 13.4406 12.1 12.9469C11.8531 12.4531 12.0531 11.8531 12.5468 11.6062L13.2187 11.2719L13.6968 10.1219C14.2312 8.8375 15.4875 8 16.8812 8C17.5937 8 18.2968 8.15 18.9468 8.4375L19.1968 8.54688C20.225 9.00313 21.0125 9.87188 21.3656 10.9375L21.4468 11.1813C21.6218 11.7063 21.3374 12.2719 20.8156 12.4469C20.2937 12.6219 19.7249 12.3375 19.5499 11.8156L19.4687 11.5719C19.2906 11.0375 18.8968 10.6063 18.3843 10.3781L18.1343 10.2688V10.2656ZM19.0718 14.4875L19.8531 16.4375L21.7093 18.2937C22.1 18.6844 22.1 19.3188 21.7093 19.7094C21.3187 20.1 20.6843 20.1 20.2937 19.7094L18.3656 17.7812C18.2218 17.6375 18.1093 17.4656 18.0343 17.2781L17.5812 16.1469L18.8531 14.7594C18.9312 14.675 19.0031 14.5844 19.0718 14.4906V14.4875Z" fill="black"/>
</svg>
