<svg width="24" height="24" viewBox="0 0 24 24" fill="none" xmlns="http://www.w3.org/2000/svg">
<path d="M11.1344 18.6594L5.4875 13.3875C5.35625 13.2656 5.23125 13.1344 5.11563 13H7.83437C8.54062 13 9.17812 12.575 9.45 11.9219L9.77812 11.1344L11.3187 14.5562C11.4375 14.8219 11.6969 14.9937 11.9875 14.9969C12.2781 15 12.5438 14.8406 12.675 14.5813L14 11.9281L14.0531 12.0344C14.35 12.6281 14.9562 13.0031 15.6187 13.0031H18.8844C18.7687 13.1375 18.6437 13.2687 18.5125 13.3906L12.8656 18.6594C12.6313 18.8781 12.3219 19 12 19C11.6781 19 11.3688 18.8781 11.1344 18.6594ZM19.7406 11.5H15.6156C15.5219 11.5 15.4344 11.4469 15.3906 11.3625L14.6656 9.91562C14.5375 9.6625 14.2781 9.5 13.9937 9.5C13.7094 9.5 13.45 9.65937 13.3219 9.91562L12.0281 12.5031L10.4344 8.94375C10.3125 8.67187 10.0375 8.49687 9.74062 8.50312C9.44375 8.50937 9.175 8.6875 9.05937 8.96562L8.06563 11.35C8.02813 11.4437 7.93437 11.5031 7.83437 11.5031H4.5C4.41875 11.5031 4.34375 11.5156 4.27187 11.5375C4.09375 11.0375 4 10.5062 4 9.96562V9.78437C4 7.6 5.57812 5.7375 7.73125 5.37812C9.15625 5.14062 10.6063 5.60625 11.625 6.625L12 7L12.375 6.625C13.3937 5.60625 14.8438 5.14062 16.2688 5.37812C18.4219 5.7375 20 7.6 20 9.78437V9.96562C20 10.4937 19.9125 11.0125 19.7406 11.5Z" fill="black"/>
</svg>
