<svg width="24" height="24" viewBox="0 0 24 24" fill="none" xmlns="http://www.w3.org/2000/svg">
<path d="M10.7156 4.7406C10.5719 4.20623 10.025 3.8906 9.49063 4.03435C8.95625 4.1781 8.64063 4.72498 8.78438 5.25935L10.4375 11.4312C10.5156 11.7187 10.2969 12 10 12C9.8 12 9.625 11.8687 9.56563 11.6781L8.20625 7.20935C8.04688 6.68123 7.4875 6.38435 6.95938 6.54373C6.43125 6.7031 6.13438 7.26248 6.29375 7.7906L8.25625 14.2406C8.33125 14.4875 8.03125 14.6719 7.84375 14.4937L6.1125 12.8437C5.6125 12.3687 4.82188 12.3875 4.34375 12.8875C3.86563 13.3875 3.8875 14.1781 4.3875 14.6562L7.9 18C9.24688 19.2844 11.0375 20 12.9 20H13.2406H13.4969C13.5 20 13.5 19.9969 13.5 19.9969L13.5031 19.9937C15.325 19.8844 16.8969 18.6437 17.4188 16.8781L19.9563 8.28435C20.1125 7.75623 19.8094 7.19998 19.2813 7.0406C18.7531 6.88123 18.1969 7.18748 18.0375 7.7156L16.8594 11.7219C16.8094 11.8875 16.6594 12 16.4844 12C16.2375 12 16.0531 11.7719 16.1031 11.5281L17.2281 6.20623C17.3438 5.6656 16.9969 5.13435 16.4563 5.02185C15.9156 4.90935 15.3844 5.2531 15.2719 5.79373L14.0969 11.3469C14.0156 11.7281 13.6813 12 13.2906 12C12.9188 12 12.5906 11.75 12.4969 11.3906L10.7156 4.7406Z" fill="black"/>
</svg>
