<svg width="24" height="24" viewBox="0 0 24 24" fill="none" xmlns="http://www.w3.org/2000/svg">
<path d="M8.8 5.6C9.53125 4.62813 10.6906 4 12 4C13.3094 4 14.4687 4.62813 15.2 5.6C15.7 5.22188 16.325 5 17 5C17.2219 5 17.45 5.025 17.675 5.07812C19.0625 5.39687 20 6.63437 20 8C20 8.22187 19.975 8.45 19.9219 8.675C19.5 11 18 14 18 14H15.675L16.4937 9.08125C16.5406 8.80938 16.3563 8.55 16.0813 8.50625C15.8063 8.4625 15.55 8.64375 15.5063 8.91875L14.6594 14H12.5V9C12.5 8.725 12.275 8.5 12 8.5C11.725 8.5 11.5 8.725 11.5 9V14H9.34062L8.49375 8.91875C8.44688 8.64687 8.19063 8.4625 7.91875 8.50625C7.64688 8.55 7.4625 8.80938 7.50625 9.08125L8.325 14H6C6 14 4.5 11 4.07812 8.675C4.025 8.45 4 8.22187 4 8C4 6.63437 4.9375 5.39687 6.325 5.07812C6.55 5.025 6.77813 5 7 5C7.675 5 8.3 5.22188 8.8 5.6ZM18 18C18 19.1031 17.1031 20 16 20H8C6.89688 20 6 19.1031 6 18V15H18V18Z" fill="black"/>
</svg>
