<svg width="24" height="24" viewBox="0 0 24 24" fill="none" xmlns="http://www.w3.org/2000/svg">
<path d="M5 7C4.44687 7 4 7.44687 4 8C4 8.55313 4.44687 9 5 9H11.5V7H5ZM10 13C9.44687 13 9 13.4469 9 14C9 14.5531 9.44687 15 10 15H12C12.5531 15 13 14.5531 13 14C13 13.4469 12.5531 13 12 13H10ZM8 11C8 11.5531 8.44687 12 9 12H10.5C11.0531 12 11.5 11.5531 11.5 11C11.5 10.4469 11.0531 10 10.5 10H9C8.44687 10 8 10.4469 8 11ZM11 16C10.4469 16 10 16.4469 10 17C10 17.5531 10.4469 18 11 18H13C13.5531 18 14 17.5531 14 17C14 16.4469 13.5531 16 13 16H11ZM13.75 13H13.7312C13.9 13.2937 14 13.6344 14 14C14 14.4125 13.875 14.7938 13.6625 15.1125C14.4406 15.3844 15 16.1281 15 17C15 17.3656 14.9031 17.7063 14.7312 18H15C17.7625 18 20 15.7625 20 13V11.0719C20 9.74688 19.4719 8.475 18.5344 7.5375L18.1719 7.175C17.4219 6.42187 16.4031 6 15.3438 6H14.5C13.3969 6 12.5 6.89688 12.5 8V10.75C12.5 11.4406 13.0594 12 13.75 12C14.4406 12 15 11.4406 15 10.75V9C15 8.725 15.225 8.5 15.5 8.5C15.775 8.5 16 8.725 16 9V10.75C16 11.9937 14.9937 13 13.75 13Z" fill="black"/>
</svg>
