<svg width="24" height="24" viewBox="0 0 24 24" fill="none" xmlns="http://www.w3.org/2000/svg">
<path d="M8.66563 5.01272C9.20938 5.10334 9.57813 5.61897 9.4875 6.16272L9.18125 8.00022H12.1531L12.5125 5.83459C12.6031 5.29084 13.1188 4.92209 13.6625 5.01272C14.2063 5.10334 14.575 5.61897 14.4844 6.16272L14.1812 8.00022H16C16.5531 8.00022 17 8.44709 17 9.00022C17 9.01272 17 9.02522 17 9.03459C16.2469 9.14397 15.5688 9.49084 15.05 10.0002H13.8469L13.1812 14.0002H13.2688C13.1 14.294 13 14.6346 13 15.0002V16.0002H12.8469L12.4875 18.1658C12.3969 18.7096 11.8812 19.0783 11.3375 18.9877C10.7937 18.8971 10.425 18.3815 10.5156 17.8377L10.8219 16.0033H7.84688L7.4875 18.169C7.39688 18.7127 6.88125 19.0815 6.3375 18.9908C5.79375 18.9002 5.425 18.3846 5.51562 17.8408L5.81875 16.0002H4C3.44687 16.0002 3 15.5533 3 15.0002C3 14.4471 3.44687 14.0002 4 14.0002H6.15313L6.81875 10.0002H5C4.44687 10.0002 4 9.55334 4 9.00022C4 8.44709 4.44687 8.00022 5 8.00022H7.15312L7.5125 5.83459C7.60312 5.29084 8.11875 4.92209 8.6625 5.01272H8.66563ZM8.84688 10.0002L8.18125 14.0002H11.1531L11.8188 10.0002H8.84688ZM17.5 11.5002C16.9469 11.5002 16.5 11.9471 16.5 12.5002V14.0002H18.5V12.5002C18.5 11.9471 18.0531 11.5002 17.5 11.5002ZM15 12.5002C15 11.119 16.1187 10.0002 17.5 10.0002C18.8813 10.0002 20 11.119 20 12.5002V14.0002C20.5531 14.0002 21 14.4471 21 15.0002V19.0002C21 19.5533 20.5531 20.0002 20 20.0002H15C14.4469 20.0002 14 19.5533 14 19.0002V15.0002C14 14.4471 14.4469 14.0002 15 14.0002V12.5002Z" fill="black"/>
</svg>
