<svg width="24" height="24" viewBox="0 0 24 24" fill="none" xmlns="http://www.w3.org/2000/svg">
<path d="M10 4.75V6.5H8.25C7.83437 6.5 7.5 6.83437 7.5 7.25V8.75C7.5 9.16563 7.83437 9.5 8.25 9.5H10V11.25C10 11.6656 10.3344 12 10.75 12H12.25C12.6656 12 13 11.6656 13 11.25V9.5H14.75C15.1656 9.5 15.5 9.16563 15.5 8.75V7.25C15.5 6.83437 15.1656 6.5 14.75 6.5H13V4.75C13 4.33437 12.6656 4 12.25 4H10.75C10.3344 4 10 4.33437 10 4.75ZM20.4906 16.2563C21.0469 15.8469 21.1656 15.0656 20.7563 14.5094C20.3469 13.9531 19.5656 13.8344 19.0094 14.2437L15.2688 17H11.5C11.225 17 11 16.775 11 16.5C11 16.225 11.225 16 11.5 16H12H14C14.5531 16 15 15.5531 15 15C15 14.4469 14.5531 14 14 14H12H11.5H9.05312C8.14375 14 7.2625 14.3094 6.55312 14.875L5.15 16H4C3.44687 16 3 16.4469 3 17V19C3 19.5531 3.44687 20 4 20H9H14.0156C14.9219 20 15.8063 19.7094 16.5375 19.1719L20.4937 16.2563H20.4906ZM9.02187 16H9.05C9.04063 16 9.03125 16 9.02187 16Z" fill="black"/>
</svg>
