<svg width="24" height="24" viewBox="0 0 24 24" fill="none" xmlns="http://www.w3.org/2000/svg">
<path d="M12 6C12.45 6 12.6969 5.78125 12.9625 5.55C13.2625 5.28437 13.5844 5 14.25 5C15.7906 5 16.8875 9.75625 17.3094 11.9344C15.9938 12.5031 14.2156 13 12 13C9.78438 13 8.00625 12.5031 6.69063 11.9344C7.1125 9.75625 8.20938 5 9.75 5C10.4156 5 10.7375 5.28437 11.0375 5.55C11.3031 5.78125 11.55 6 12 6ZM5.47188 12.4594C6.94688 13.225 9.14375 14 12.0031 14C14.8625 14 17.0594 13.225 18.5313 12.4594C19.3063 12.0563 20.0875 11.575 20.7219 10.9688C20.9688 10.7219 21.3531 10.6812 21.6469 10.8656C21.9438 11.05 22.0688 11.425 21.9563 11.7562C21.5344 12.9344 20.7563 14.0156 19.8906 14.9C18.3656 16.4656 15.8625 18 12 18C8.1375 18 5.6375 16.4656 4.10938 14.9C3.24375 14.0125 2.46563 12.9313 2.04375 11.7531C1.93125 11.4219 2.05625 11.0469 2.35313 10.8625C2.65 10.6781 3.03125 10.7219 3.27813 10.9656C3.91563 11.5719 4.69375 12.0531 5.46875 12.4563L5.47188 12.4594Z" fill="black"/>
</svg>
