<svg width="24" height="24" viewBox="0 0 24 24" fill="none" xmlns="http://www.w3.org/2000/svg">
<path d="M4 11.0062C4 10.3125 4.1 9.64375 4.2875 9.00938L11.1938 14.0312C11.0688 14.3281 11 14.6562 11 15V20H7C6.44688 20 6 19.5531 6 19V16.7281C6 16.2062 5.78438 15.7125 5.46563 15.2969C4.51875 14.075 4 12.5656 4 11.0062ZM11.7594 13.2063L4.65625 8.04063C5.77188 5.65625 8.19375 4 11 4H11.75C14.725 4 17.4125 6.16562 17.9156 9.00625C17.9875 9.4125 18.1281 9.80937 18.3875 10.1312L19.7 11.775C19.8688 11.9844 19.9688 12.2375 19.9937 12.5H13.5C12.8219 12.5 12.2094 12.7688 11.7594 13.2063ZM13.5 13.5H19.6875H20L19.3844 15.5H14.5C14.225 15.5 14 15.725 14 16C14 16.275 14.225 16.5 14.5 16.5H19.0781L18.7719 17.5H14.5C14.225 17.5 14 17.725 14 18C14 18.275 14.225 18.5 14.5 18.5H18.4625L18.4344 18.5875C18.175 19.4281 17.4 20 16.5219 20H12V15C12 14.5625 12.1875 14.1656 12.4875 13.8938C12.7531 13.65 13.1094 13.5 13.5 13.5ZM15 11C15.2652 11 15.5196 10.8946 15.7071 10.7071C15.8946 10.5196 16 10.2652 16 10C16 9.73478 15.8946 9.48043 15.7071 9.29289C15.5196 9.10536 15.2652 9 15 9C14.7348 9 14.4804 9.10536 14.2929 9.29289C14.1054 9.48043 14 9.73478 14 10C14 10.2652 14.1054 10.5196 14.2929 10.7071C14.4804 10.8946 14.7348 11 15 11Z" fill="black"/>
</svg>
