<svg width="24" height="24" viewBox="0 0 24 24" fill="none" xmlns="http://www.w3.org/2000/svg">
<path d="M5.25 10.4993C4.55937 10.4993 4 11.0587 4 11.7493C4 12.44 4.55937 12.9993 5.25 12.9993H10.8812C10.6437 13.265 10.5 13.615 10.5 13.9993C10.5 14.79 11.1094 15.4368 11.8844 15.4962C11.6438 15.7618 11.5 16.115 11.5 16.4993C11.5 17.3275 12.1719 17.9993 13 17.9993H14H16C18.2094 17.9993 20 16.2087 20 13.9993V10.465C20 9.20871 19.5 8.00246 18.6125 7.11183C17.9 6.39933 16.9344 5.99933 15.9281 5.99933H14.5C13.8344 5.99933 13.2719 6.43371 13.075 7.03371L15.4031 7.77433C15.6656 7.85871 15.8125 8.13996 15.7281 8.40246C15.6437 8.66496 15.3625 8.81183 15.1 8.72746L13 8.05871V8.06183L6.625 6.05558C5.96563 5.84933 5.26562 6.21496 5.05625 6.87433C4.84687 7.53371 5.21563 8.23371 5.875 8.44308L12.4219 10.4993H5.25Z" fill="black"/>
</svg>
