<svg width="24" height="24" viewBox="0 0 24 24" fill="none" xmlns="http://www.w3.org/2000/svg">
<path d="M12 4C13.0609 4 14.0783 4.42143 14.8284 5.17157C15.5786 5.92172 16 6.93913 16 8C16 9.06087 15.5786 10.0783 14.8284 10.8284C14.0783 11.5786 13.0609 12 12 12C10.9391 12 9.92172 11.5786 9.17157 10.8284C8.42143 10.0783 8 9.06087 8 8C8 6.93913 8.42143 5.92172 9.17157 5.17157C9.92172 4.42143 10.9391 4 12 4ZM3.25 6C3.94062 6 4.5 6.55938 4.5 7.25V8.5V11V12.2563C4.5 12.7875 4.70937 13.2969 5.08437 13.6719L6.68125 15.2688C6.94063 15.5281 7.34688 15.5688 7.65 15.3656C8.05312 15.0969 8.10938 14.525 7.76562 14.1844L7.29063 13.7094L6.29063 12.7094C5.9 12.3188 5.9 11.6844 6.29063 11.2937C6.68125 10.9031 7.31563 10.9031 7.70625 11.2937L8.70625 12.2937L9.18125 12.7688L9.97188 13.5594C10.6281 14.2156 10.9969 15.1062 10.9969 16.0344V18.5C10.9969 19.3281 10.325 20 9.49687 20H7.41563C6.88438 20 6.375 19.7906 6 19.4156L2.87813 16.2937C2.31563 15.7312 2 14.9688 2 14.1719V11V9V7.25C2 6.55938 2.55937 6 3.25 6ZM20.75 6C21.4406 6 22 6.55938 22 7.25V9V11V14.1719C22 14.9688 21.6844 15.7312 21.1219 16.2937L18 19.4156C17.625 19.7906 17.1156 20 16.5844 20H14.5C13.6719 20 13 19.3281 13 18.5V16.0344C13 15.1062 13.3687 14.2156 14.025 13.5594L14.8156 12.7688L15.2906 12.2937L16.2906 11.2937C16.6812 10.9031 17.3156 10.9031 17.7063 11.2937C18.0969 11.6844 18.0969 12.3188 17.7063 12.7094L16.7063 13.7094L16.2312 14.1844C15.8875 14.5281 15.9438 15.0969 16.3469 15.3656C16.65 15.5688 17.0563 15.5281 17.3156 15.2688L18.9125 13.6719C19.2875 13.2969 19.4969 12.7875 19.4969 12.2563V11V8.5V7.25C19.4969 6.55938 20.0563 6 20.7469 6H20.75Z" fill="black"/>
</svg>
