<svg width="24" height="24" viewBox="0 0 24 24" fill="none" xmlns="http://www.w3.org/2000/svg">
<path d="M13.0001 5C13.0001 4.44687 12.5532 4 12.0001 4C11.447 4 11.0001 4.44687 11.0001 5V11.5C11.0001 11.775 10.7751 12 10.5001 12C10.2251 12 10.0001 11.775 10.0001 11.5V6C10.0001 5.44687 9.55324 5 9.00012 5C8.44699 5 8.00012 5.44687 8.00012 6V14.5C8.00012 14.5469 8.00012 14.5969 8.00324 14.6438L6.11262 12.8438C5.61262 12.3687 4.82199 12.3875 4.34387 12.8875C3.86574 13.3875 3.88762 14.1781 4.38762 14.6562L7.90012 18C9.24699 19.2844 11.0376 20 12.9001 20H13.5001C16.5376 20 19.0001 17.5375 19.0001 14.5V8C19.0001 7.44688 18.5532 7 18.0001 7C17.447 7 17.0001 7.44688 17.0001 8V11.5C17.0001 11.775 16.7751 12 16.5001 12C16.2251 12 16.0001 11.775 16.0001 11.5V6C16.0001 5.44687 15.5532 5 15.0001 5C14.447 5 14.0001 5.44687 14.0001 6V11.5C14.0001 11.775 13.7751 12 13.5001 12C13.2251 12 13.0001 11.775 13.0001 11.5V5Z" fill="black"/>
</svg>
