<svg width="24" height="24" viewBox="0 0 24 24" fill="none" xmlns="http://www.w3.org/2000/svg">
<path d="M9.80938 7.63126C10.3219 7.22189 10.9594 7.00001 11.6125 7.00001H12.9688C13.8156 7.00001 14.5 7.68439 14.5 8.53126C14.5 8.89064 14.375 9.23126 14.1531 9.50001H7C6.44687 9.50001 6 9.94689 6 10.5C6 11.0531 6.44687 11.5 7 11.5H10.8594L9.27813 12.4031C9.225 12.4344 9.17188 12.4656 9.11875 12.5H7C6.44687 12.5 6 12.9469 6 13.5C6 14.0531 6.44687 14.5 7 14.5H7.63437C7.54688 14.8094 7.5 15.1375 7.5 15.4688C7.5 17.4188 9.08125 19 11.0312 19H12.3875C13.4969 19 14.575 18.6219 15.4406 17.9281L15.625 17.7813C16.0562 17.4375 16.125 16.8063 15.7812 16.375C15.4375 15.9438 14.8062 15.875 14.375 16.2188L14.1906 16.3656C13.6781 16.775 13.0437 16.9969 12.3875 16.9969H11.0312C10.1844 16.9969 9.5 16.3125 9.5 15.4656C9.5 15.1063 9.625 14.7656 9.84687 14.4969H17C17.5531 14.4969 18 14.05 18 13.4969C18 12.9438 17.5531 12.4969 17 12.4969H13.1406L14.7219 11.5938C14.775 11.5625 14.8281 11.5313 14.8813 11.4969H17C17.5531 11.4969 18 11.05 18 10.4969C18 9.94376 17.5531 9.49689 17 9.49689H16.3656C16.4531 9.18439 16.5 8.85939 16.5 8.52814C16.5 6.57814 14.9187 4.99689 12.9688 4.99689H11.6125C10.5031 4.99689 9.425 5.37501 8.55938 6.06876L8.375 6.21876C7.94375 6.56251 7.875 7.19376 8.21875 7.62501C8.5625 8.05626 9.19375 8.12501 9.625 7.78126L9.80938 7.63439V7.63126Z" fill="black"/>
</svg>
