<svg width="24" height="24" viewBox="0 0 24 24" fill="none" xmlns="http://www.w3.org/2000/svg">
<path d="M18.7812 7.625L17.6781 9.00313C20.0813 9.09688 22 11.075 22 13.5C22 15.9844 19.9844 18 17.5 18C15.0156 18 13 15.9844 13 13.5C13 12.3031 13.4062 11.1406 14.1562 10.2031L17.2188 6.375C17.5625 5.94375 18.1937 5.875 18.625 6.21875C19.0563 6.5625 19.125 7.19375 18.7812 7.625ZM15 13.5C15 14.163 15.2634 14.7989 15.7322 15.2678C16.2011 15.7366 16.837 16 17.5 16C18.163 16 18.7989 15.7366 19.2678 15.2678C19.7366 14.7989 20 14.163 20 13.5C20 12.837 19.7366 12.2011 19.2678 11.7322C18.7989 11.2634 18.163 11 17.5 11C16.837 11 16.2011 11.2634 15.7322 11.7322C15.2634 12.2011 15 12.837 15 13.5ZM3 6C3.55313 6 4 6.44687 4 7V11H10V7C10 6.44687 10.4469 6 11 6C11.5531 6 12 6.44687 12 7V12V17C12 17.5531 11.5531 18 11 18C10.4469 18 10 17.5531 10 17V13H4V17C4 17.5531 3.55313 18 3 18C2.44687 18 2 17.5531 2 17V12V7C2 6.44687 2.44687 6 3 6Z" fill="black"/>
</svg>
