<svg width="24" height="24" viewBox="0 0 24 24" fill="none" xmlns="http://www.w3.org/2000/svg">
<path d="M4.4875 13.3875L10.1344 18.6594C10.3688 18.8782 10.6781 19 11 19C11.3219 19 11.6313 18.8782 11.8656 18.6594L11.9469 18.5844C11.35 17.7063 11 16.6438 11 15.5C11 12.4625 13.4625 10 16.5 10C17.3844 10 18.2188 10.2094 18.9594 10.5782C18.9875 10.375 19 10.1719 19 9.96567V9.78442C19 7.60005 17.4219 5.73755 15.2688 5.37817C13.8438 5.14067 12.3938 5.6063 11.375 6.62505L11 7.00005L10.625 6.62505C9.60625 5.6063 8.15625 5.14067 6.73125 5.37817C4.57812 5.73755 3 7.60005 3 9.78442V9.96567C3 11.2625 3.5375 12.5032 4.4875 13.3875ZM16.5 20C17.6935 20 18.8381 19.5259 19.682 18.682C20.5259 17.8381 21 16.6935 21 15.5C21 14.3066 20.5259 13.162 19.682 12.3181C18.8381 11.4742 17.6935 11 16.5 11C15.3065 11 14.1619 11.4742 13.318 12.3181C12.4741 13.162 12 14.3066 12 15.5C12 16.6935 12.4741 17.8381 13.318 18.682C14.1619 19.5259 15.3065 20 16.5 20ZM16.5 17C16.6989 17 16.8897 17.0791 17.0303 17.2197C17.171 17.3604 17.25 17.5511 17.25 17.75C17.25 17.949 17.171 18.1397 17.0303 18.2804C16.8897 18.421 16.6989 18.5 16.5 18.5C16.3011 18.5 16.1103 18.421 15.9697 18.2804C15.829 18.1397 15.75 17.949 15.75 17.75C15.75 17.5511 15.829 17.3604 15.9697 17.2197C16.1103 17.0791 16.3011 17 16.5 17ZM16.5 12.5C16.775 12.5 17 12.725 17 13V15.5C17 15.775 16.775 16 16.5 16C16.225 16 16 15.775 16 15.5V13C16 12.725 16.225 12.5 16.5 12.5Z" fill="black"/>
</svg>
