<svg width="24" height="24" viewBox="0 0 24 24" fill="none" xmlns="http://www.w3.org/2000/svg">
<path d="M14.2937 4.2937C14.6844 3.90308 15.3188 3.90308 15.7094 4.2937L19.7094 8.2937C19.9969 8.5812 20.0812 9.00933 19.925 9.38433C19.7687 9.75933 19.4062 10.0031 19 10.0031H18.0812L20.7812 13.375C21.0219 13.675 21.0688 14.0875 20.9031 14.4343C20.7375 14.7812 20.3844 15 20 15H19.0812L21.7812 18.375C22.0219 18.675 22.0688 19.0875 21.9031 19.4343C21.7375 19.7812 21.3844 20 21 20H14.5C14.8125 19.5812 15 19.0625 15 18.5V12.6593C15 11.9593 14.7063 11.2906 14.1906 10.8156L10.8406 7.74683L14.2937 4.2937ZM2 12.6593C2 12.2375 2.175 11.8375 2.4875 11.5531L6.9875 7.42808C7.5625 6.90308 8.44063 6.90308 9.01562 7.42808L13.5156 11.5531C13.825 11.8375 14.0031 12.2375 14.0031 12.6593V18.5C14.0031 19.3281 13.3313 20 12.5031 20H3.5C2.67188 20 2 19.3281 2 18.5V12.6593ZM6.5 13.25V14.75C6.5 15.1656 6.83437 15.5 7.25 15.5H8.75C9.16563 15.5 9.5 15.1656 9.5 14.75V13.25C9.5 12.8343 9.16563 12.5 8.75 12.5H7.25C6.83437 12.5 6.5 12.8343 6.5 13.25Z" fill="black"/>
</svg>
