<svg width="24" height="24" viewBox="0 0 24 24" fill="none" xmlns="http://www.w3.org/2000/svg">
<path d="M13.1531 19.4844C12.4562 19.8875 11.6 19.8875 10.9031 19.4844L6.125 16.725C5.42813 16.325 5 15.5813 5 14.7781V9.25939C5 8.45626 5.42813 7.71251 6.125 7.30939L10.9031 4.55314C11.6 4.15001 12.4562 4.15001 13.1531 4.55314L17.9312 7.31251C18.6281 7.71564 19.0562 8.45626 19.0562 9.26251V14.7781C19.0562 15.5813 18.6281 16.325 17.9312 16.7281L13.1531 19.4844ZM7.99375 9.33126C7.90625 9.10939 7.67188 8.98126 7.43438 9.02501C7.19688 9.06876 7.02813 9.27501 7.02813 9.51564V14.5156C7.02813 14.7906 7.25312 15.0156 7.52813 15.0156C7.80313 15.0156 8.02813 14.7906 8.02813 14.5156V12.1156L9.0625 14.7063C9.15 14.9281 9.38437 15.0563 9.62187 15.0125C9.85938 14.9688 10.0281 14.7625 10.0281 14.5219V9.52189C10.0281 9.24689 9.80312 9.02189 9.52812 9.02189C9.25312 9.02189 9.02812 9.24689 9.02812 9.52189V11.925L7.99375 9.33126ZM11.0281 9.51564V12.0156V14.5156C11.0281 14.7906 11.2531 15.0156 11.5281 15.0156C11.8031 15.0156 12.0281 14.7906 12.0281 14.5156V12.5156H13.0281C13.3031 12.5156 13.5281 12.2906 13.5281 12.0156C13.5281 11.7406 13.3031 11.5156 13.0281 11.5156H12.0281V10.0156H13.0281C13.3031 10.0156 13.5281 9.79064 13.5281 9.51564C13.5281 9.24064 13.3031 9.01564 13.0281 9.01564H11.5281C11.2531 9.01564 11.0281 9.24064 11.0281 9.51564ZM14.5281 9.01564C14.2531 9.01564 14.0281 9.24064 14.0281 9.51564C14.0281 9.79064 14.2531 10.0156 14.5281 10.0156H15.0281V14.5156C15.0281 14.7906 15.2531 15.0156 15.5281 15.0156C15.8031 15.0156 16.0281 14.7906 16.0281 14.5156V10.0156H16.5281C16.8031 10.0156 17.0281 9.79064 17.0281 9.51564C17.0281 9.24064 16.8031 9.01564 16.5281 9.01564H14.5281Z" fill="black"/>
</svg>
