<svg width="24" height="24" viewBox="0 0 24 24" fill="none" xmlns="http://www.w3.org/2000/svg">
<path d="M19.2688 4.73125C20.2438 5.70625 20.2438 7.29062 19.2688 8.26562L8.26875 19.2656C7.29375 20.2406 5.70938 20.2406 4.73438 19.2656C3.75937 18.2906 3.75937 16.7062 4.73438 15.7312L15.7344 4.73125C16.7094 3.75625 18.2938 3.75625 19.2688 4.73125ZM17.8531 6.89687C17.6594 6.70312 17.3406 6.70312 17.1469 6.89687C16.7563 7.2875 16.4031 7.36875 15.975 7.44688L15.8969 7.45937C15.4656 7.5375 14.9094 7.63437 14.3969 8.14687C13.875 8.66875 13.7438 9.27188 13.6438 9.7375L13.6375 9.76875C13.5312 10.2563 13.45 10.5937 13.1469 10.8969C12.8438 11.2 12.5063 11.2812 12.0188 11.3875L11.9875 11.3938C11.5219 11.4938 10.9187 11.625 10.3969 12.1469C9.875 12.6688 9.74375 13.2719 9.64375 13.7375L9.6375 13.7688C9.53125 14.2563 9.45 14.5938 9.14687 14.8969C8.85937 15.1844 8.58437 15.2344 8.125 15.3156L8.09688 15.3219C7.60938 15.4094 7.00625 15.5375 6.39687 16.1469C6.20312 16.3406 6.20312 16.6594 6.39687 16.8531C6.59062 17.0469 6.90938 17.0469 7.10313 16.8531C7.49375 16.4625 7.84688 16.3813 8.275 16.3031L8.35313 16.2906C8.78438 16.2125 9.34063 16.1156 9.85313 15.6031C10.375 15.0812 10.5062 14.4781 10.6062 14.0125L10.6125 13.9812C10.7188 13.4937 10.8 13.1562 11.1031 12.8531C11.4063 12.55 11.7437 12.4688 12.2312 12.3625L12.2625 12.3562C12.7281 12.2562 13.3312 12.125 13.8531 11.6031C14.375 11.0813 14.5062 10.4781 14.6062 10.0125L14.6125 9.98125C14.7188 9.49375 14.8 9.15625 15.1031 8.85313C15.3906 8.56563 15.6656 8.51562 16.125 8.43437L16.1531 8.42812C16.6406 8.34062 17.2437 8.2125 17.8531 7.60313C18.0469 7.40938 18.0469 7.09062 17.8531 6.89687ZM9.975 18.975L18.975 9.975L19.4688 10.4688C19.8094 10.8094 20 11.2688 20 11.75C20 12.2312 19.8094 12.6906 19.4688 13.0312L13.0312 19.4688C12.6906 19.8094 12.2312 20 11.75 20C11.2688 20 10.8094 19.8094 10.4688 19.4688L9.975 18.975ZM4.53125 13.5312C4.19063 13.1906 4 12.7312 4 12.25C4 11.7688 4.19063 11.3094 4.53125 10.9688L10.9688 4.53125C11.3094 4.19063 11.7688 4 12.25 4C12.7312 4 13.1906 4.19063 13.5312 4.53125L14.025 5.025L5.025 14.025L4.53125 13.5312Z" fill="black"/>
</svg>
