<svg width="24" height="24" viewBox="0 0 24 24" fill="none" xmlns="http://www.w3.org/2000/svg">
<path d="M11 14.9406V15H10C9.44687 15 9 15.4469 9 16V18V18.75C9 19.4406 8.44063 20 7.75 20H7H6.00313C5.95625 20 5.90937 19.9969 5.8625 19.9937C5.825 19.9969 5.7875 20 5.75 20H5.25C4.55937 20 4 19.4406 4 18.75V15.25C4 15.2219 4 15.1906 4.00312 15.1625V12.9875H3C2.4375 12.9875 2 12.55 2 11.9844C2 11.7031 2.09375 11.4531 2.3125 11.2344L10.325 4.25C10.5437 4.03125 10.7937 4 11.0125 4C11.2312 4 11.4812 4.0625 11.6687 4.21875L15.9781 8.00313C15.5937 7.97188 15.1969 8.09688 14.8906 8.36875C13.7844 9.35625 12.8406 10.4844 12.1625 11.5813C11.5094 12.6406 11 13.8406 11 14.9406ZM17 20C14.2375 20 12 17.7625 12 15C12 12.6031 13.9531 10.4781 15.35 9.39375C15.5063 9.27188 15.6906 9.2125 15.875 9.2125C16.1219 9.20938 16.375 9.30938 16.5625 9.5L18 10.9375L18.3531 10.5844C18.7187 10.2187 19.3094 10.1875 19.675 10.5531C21.5156 12.375 22 14.0063 22 15C22 17.7625 19.7625 20 17 20ZM19 16.5063C19 15.3656 17.8438 14.225 17.2875 13.7437C17.1188 13.5969 16.8781 13.5969 16.7094 13.7437C16.1563 14.2219 15 15.3625 15 16.5063C15 17.6094 15.8969 18.5063 17 18.5063C18.1031 18.5063 19 17.6094 19 16.5063Z" fill="black"/>
</svg>
