<svg width="24" height="24" viewBox="0 0 24 24" fill="none" xmlns="http://www.w3.org/2000/svg">
<path d="M20 9L19.9969 11.2688C19.9938 12.9 19.2469 14.425 17.9969 15.4281C18 15.3688 18 15.3094 18 15.25V15C18 12.7563 16.8438 10.6688 14.9406 9.47813L13.0594 8.30313C12.7906 8.13438 12.5 8.04063 12.2063 8.00938L10.7719 5.525C10.5656 5.16563 10.6875 4.70625 11.0469 4.5C11.4062 4.29375 11.8656 4.41563 12.0719 4.775L14.5094 8.99688C14.6125 9.175 14.8438 9.2375 15.0219 9.13438C15.2 9.03125 15.2625 8.8 15.1594 8.62188L13.2219 5.26563C13.0156 4.90625 13.1375 4.44688 13.4969 4.24063C13.8562 4.03438 14.3125 4.15625 14.5188 4.51563L16.6438 8.19688L17.9969 10.5406L18 9C18 8.44688 18.45 8 19 8C19.55 8 20 8.45 20 9ZM10.6219 6.76563L11.3906 8.09375C10.9563 8.23438 10.5656 8.52188 10.3063 8.9375C10.2781 8.98125 10.2531 9.02813 10.2281 9.075L9.325 7.5125C9.11875 7.15313 9.24062 6.69375 9.6 6.4875C9.95937 6.28125 10.4187 6.40313 10.625 6.7625L10.6219 6.76563ZM9.17188 8.75625L10.0094 10.2063C10.0281 10.3938 10.075 10.575 10.1438 10.75H10H9.58437H8.59375L7.875 9.50625C7.66875 9.14688 7.79063 8.6875 8.15 8.48125C8.50938 8.275 8.96875 8.39688 9.175 8.75625H9.17188ZM11.1531 9.46875C11.4469 9 12.0625 8.85938 12.5312 9.15L14.4125 10.325C16.0219 11.3344 17 13.1 17 15V15.25C17 17.8719 14.8719 20 12.25 20H6.75C6.33437 20 6 19.6656 6 19.25C6 18.8344 6.33437 18.5 6.75 18.5H9.625C9.83125 18.5 10 18.3313 10 18.125C10 17.9188 9.83125 17.75 9.625 17.75H5.75C5.33438 17.75 5 17.4156 5 17C5 16.5844 5.33438 16.25 5.75 16.25H9.625C9.83125 16.25 10 16.0813 10 15.875C10 15.6688 9.83125 15.5 9.625 15.5H4.75C4.33437 15.5 4 15.1656 4 14.75C4 14.3344 4.33437 14 4.75 14H9.625C9.83125 14 10 13.8313 10 13.625C10 13.4188 9.83125 13.25 9.625 13.25H5.75C5.33438 13.25 5 12.9156 5 12.5C5 12.0844 5.33438 11.75 5.75 11.75H10H12.9125L11.4688 10.8469C11 10.5531 10.8594 9.9375 11.15 9.46875H11.1531Z" fill="black"/>
</svg>
