<svg width="24" height="24" viewBox="0 0 24 24" fill="none" xmlns="http://www.w3.org/2000/svg">
<path d="M10.8719 15.8313L11.4438 13.9532C12.0063 13.8251 12.5125 13.4532 12.7907 12.8969L14.7907 8.89694C15.1188 8.23756 15.0532 7.48444 14.675 6.90944L16.3219 4.51569C16.4375 4.34694 16.6469 4.26569 16.8438 4.31256C17.0407 4.35944 17.1938 4.52194 17.2282 4.72194L17.7344 7.97506L21.0188 7.74381C21.2219 7.72819 21.4157 7.84069 21.5032 8.02506C21.5907 8.20944 21.5594 8.42819 21.4219 8.58131L19.1907 11.0001L21.4188 13.4219C21.5563 13.5719 21.5907 13.7938 21.5 13.9782C21.4094 14.1626 21.2188 14.2751 21.0157 14.2594L17.7313 14.0282L17.2282 17.2813C17.1969 17.4844 17.0438 17.6469 16.8438 17.6907C16.6438 17.7344 16.4375 17.6563 16.3219 17.4876L14.4563 14.7782L11.6 16.4094C11.4219 16.5126 11.2 16.4938 11.0407 16.3657C10.8813 16.2376 10.8157 16.0251 10.875 15.8282L10.8719 15.8313ZM11.7563 12.6532C11.4657 12.9938 10.9688 13.1032 10.55 12.8938L8.49067 11.8657L5.81254 10.5251L2.55317 8.89381C2.05942 8.64694 1.85942 8.04694 2.10629 7.55319L3.35629 5.05319C3.52504 4.71256 3.87192 4.50006 4.25004 4.50006H8.00004C8.15629 4.50006 8.30942 4.53756 8.44692 4.60631L10.8907 5.82819L13.4469 7.10631C13.9407 7.35319 14.1407 7.95319 13.8938 8.44694L11.8938 12.4469C11.8563 12.5219 11.8094 12.5907 11.7563 12.6532ZM5.36254 11.4188L8.04692 12.7594L4.84067 19.1719C4.46879 19.9126 3.56879 20.2126 2.82817 19.8438C2.08754 19.4751 1.78754 18.5688 2.15942 17.8282L5.36254 11.4188Z" fill="black"/>
</svg>
