<svg width="24" height="24" viewBox="0 0 24 24" fill="none" xmlns="http://www.w3.org/2000/svg">
<path d="M4 7C4 5.89688 4.89688 5 6 5H18C19.1031 5 20 5.89688 20 7V12.7625C19.4688 12.2875 18.7688 12 18 12H6C5.23125 12 4.53125 12.2875 4 12.7625V7ZM6 13H18C19.1031 13 20 13.8969 20 15V17C20 18.1031 19.1031 19 18 19H6C4.89688 19 4 18.1031 4 17V15C4 13.8969 4.89688 13 6 13ZM14 17C14.2652 17 14.5196 16.8946 14.7071 16.7071C14.8946 16.5196 15 16.2652 15 16C15 15.7348 14.8946 15.4804 14.7071 15.2929C14.5196 15.1054 14.2652 15 14 15C13.7348 15 13.4804 15.1054 13.2929 15.2929C13.1054 15.4804 13 15.7348 13 16C13 16.2652 13.1054 16.5196 13.2929 16.7071C13.4804 16.8946 13.7348 17 14 17ZM18 16C18 15.7348 17.8946 15.4804 17.7071 15.2929C17.5196 15.1054 17.2652 15 17 15C16.7348 15 16.4804 15.1054 16.2929 15.2929C16.1054 15.4804 16 15.7348 16 16C16 16.2652 16.1054 16.5196 16.2929 16.7071C16.4804 16.8946 16.7348 17 17 17C17.2652 17 17.5196 16.8946 17.7071 16.7071C17.8946 16.5196 18 16.2652 18 16Z" fill="black"/>
</svg>
