<svg width="24" height="24" viewBox="0 0 24 24" fill="none" xmlns="http://www.w3.org/2000/svg">
<path d="M4 18.4995V13.9026C4 10.5151 6.13438 7.49325 9.32812 6.362L14.6313 4.48387C15.3 4.24637 16 4.74325 16 5.4495C16 5.79325 15.8281 6.112 15.5437 6.30262L14.5 6.9995C16.0031 6.9995 17.35 7.93075 17.8781 9.34012L19.3969 13.387C19.7656 14.3682 19.525 15.4745 18.7844 16.2151C18.2844 16.7151 17.6031 16.9995 16.8938 16.9995H16.7875C15.9719 16.9995 15.1969 16.637 14.675 16.0089L13.6656 14.7995C13.3 14.9276 12.9094 14.9995 12.5 14.9995H12.4969C12.3 14.9995 12.1062 14.9839 11.9156 14.9526C11.8031 14.9339 11.6906 14.9089 11.5813 14.8807C10.6781 14.637 9.92188 14.0432 9.4625 13.2495C9.325 13.012 9.01875 12.9276 8.77812 13.0682C8.5375 13.2089 8.45625 13.512 8.59688 13.7526C9.34688 15.0495 10.7312 15.9401 12.325 15.9995L13.8 18.212C13.925 18.4026 13.9937 18.6245 13.9937 18.8495C13.9937 19.4839 13.4781 19.9995 12.8438 19.9995H5.5C4.67188 19.9995 4 19.3276 4 18.4995ZM14.25 10.9995C14.3485 10.9995 14.446 10.9801 14.537 10.9424C14.628 10.9047 14.7107 10.8495 14.7803 10.7798C14.85 10.7102 14.9052 10.6275 14.9429 10.5365C14.9806 10.4455 15 10.348 15 10.2495C15 10.151 14.9806 10.0535 14.9429 9.96248C14.9052 9.87149 14.85 9.78881 14.7803 9.71917C14.7107 9.64952 14.628 9.59428 14.537 9.55659C14.446 9.5189 14.3485 9.4995 14.25 9.4995C14.1515 9.4995 14.054 9.5189 13.963 9.55659C13.872 9.59428 13.7893 9.64952 13.7197 9.71917C13.65 9.78881 13.5948 9.87149 13.5571 9.96248C13.5194 10.0535 13.5 10.151 13.5 10.2495C13.5 10.348 13.5194 10.4455 13.5571 10.5365C13.5948 10.6275 13.65 10.7102 13.7197 10.7798C13.7893 10.8495 13.872 10.9047 13.963 10.9424C14.054 10.9801 14.1515 10.9995 14.25 10.9995Z" fill="black"/>
</svg>
