<svg width="24" height="24" viewBox="0 0 24 24" fill="none" xmlns="http://www.w3.org/2000/svg">
<path d="M6.5 4C4.01562 4 2 6.01562 2 8.5C2 8.67188 2.09063 8.83438 2.2375 8.925C2.38437 9.01563 2.56875 9.025 2.725 8.94688L4.32812 8.14687C4.7625 8.68125 5.41562 9 6.12187 9H8.19375C8.87812 9 9.50625 8.6125 9.8125 8H11C11 8.55313 11.4469 9 12 9C12.5531 9 13 8.55313 13 8V5C13 4.44687 12.5531 4 12 4C11.4469 4 11 4.44687 11 5H9.80937C9.50312 4.3875 8.875 4 8.19063 4H6.5ZM5.5 10L5.1 18.0031C5.04687 19.0906 5.9125 20 7 20C8.0875 20 8.95313 19.0906 8.9 18.0031L8.5 10H5.5ZM15.0688 19.7937L15.7156 17.8531C15.8062 17.5781 16.1938 17.5781 16.2844 17.8531L16.9312 19.7937C16.9719 19.9156 17.0875 20 17.2156 20H20.5C21.3281 20 22 19.3281 22 18.5V14H13V18.5C13 19.3281 13.6719 20 14.5 20H14.7844C14.9125 20 15.0281 19.9187 15.0688 19.7937ZM13.8906 11.4062C13.3531 11.7656 13.025 12.3594 13 13H22C21.9781 12.3594 21.6469 11.7656 21.1094 11.4062L19.075 10.05C19.05 10.0344 19.025 10.0219 19 10.0125V5.5C19 4.67188 18.3281 4 17.5 4C16.6719 4 16 4.67188 16 5.5V10.0156C15.9719 10.025 15.9469 10.0375 15.925 10.0531L13.8906 11.4062ZM17.5 6C17.3674 6 17.2402 5.94732 17.1464 5.85355C17.0527 5.75979 17 5.63261 17 5.5C17 5.36739 17.0527 5.24021 17.1464 5.14645C17.2402 5.05268 17.3674 5 17.5 5C17.6326 5 17.7598 5.05268 17.8536 5.14645C17.9473 5.24021 18 5.36739 18 5.5C18 5.63261 17.9473 5.75979 17.8536 5.85355C17.7598 5.94732 17.6326 6 17.5 6Z" fill="black"/>
</svg>
