<svg width="24" height="24" viewBox="0 0 24 24" fill="none" xmlns="http://www.w3.org/2000/svg">
<path d="M13.1531 19.4843C12.4562 19.8875 11.6 19.8875 10.9031 19.4843L6.125 16.725C5.42813 16.325 5 15.5812 5 14.7781V9.25933C5 8.4562 5.42813 7.71245 6.125 7.30933L10.9031 4.55308C11.6 4.14995 12.4562 4.14995 13.1531 4.55308L17.9312 7.31245C18.6281 7.71558 19.0562 8.4562 19.0562 9.26245V14.7781C19.0562 15.5812 18.6281 16.325 17.9312 16.7281L13.1531 19.4843ZM13.5 7.85933C13.5 7.6812 13.4031 7.51558 13.2469 7.42495L11.7531 6.57183C11.6906 6.53433 11.6188 6.50933 11.5406 6.50308C11.525 6.50308 11.5094 6.49995 11.4969 6.49995H11.4938C11.3906 6.49995 11.2969 6.5312 11.2188 6.5812C11.1719 6.61245 11.1281 6.64995 11.0938 6.69683C11.0562 6.7437 11.0281 6.79995 11.0125 6.85933C11 6.90933 10.9938 6.9562 10.9938 7.0062V12.0187V16.5187C10.9938 16.7937 11.2188 17.0187 11.4938 17.0187C11.7688 17.0187 11.9938 16.7937 11.9938 16.5187V12.5187H12.9938C13.2688 12.5187 13.4937 12.2937 13.4937 12.0187C13.4937 11.7437 13.2688 11.5187 12.9938 11.5187H11.9938V7.86245L12.75 8.2937C13.0844 8.48433 13.4969 8.2437 13.4969 7.85933H13.5ZM14 8.71558C14 8.8937 14.0969 9.05933 14.2531 9.14995L14.9969 9.57495V15.0187C14.9969 15.2937 15.2219 15.5187 15.4969 15.5187C15.7719 15.5187 15.9969 15.2937 15.9969 15.0187V10.1437L16.5031 10.4343C16.7438 10.5718 17.0469 10.4875 17.1844 10.2468C17.3219 10.0062 17.2375 9.70308 16.9969 9.56558L14.7469 8.2812C14.4125 8.09058 14 8.3312 14 8.71558ZM9.49375 8.0187C9.21875 8.0187 8.99375 8.2437 8.99375 8.5187V12.4375L7.96875 9.35933C7.89062 9.12808 7.65625 8.98433 7.41563 9.02495C7.175 9.06558 6.99688 9.27183 6.99688 9.5187V14.5187C6.99688 14.7937 7.22188 15.0187 7.49688 15.0187C7.77188 15.0187 7.99688 14.7937 7.99688 14.5187V12.6L9.02187 15.6781C9.1 15.9093 9.33437 16.0531 9.575 16.0125C9.81562 15.9718 9.99375 15.7656 9.99375 15.5187V8.5187C9.99375 8.2437 9.76875 8.0187 9.49375 8.0187Z" fill="black"/>
</svg>
