<svg width="24" height="24" viewBox="0 0 24 24" fill="none" xmlns="http://www.w3.org/2000/svg">
<path d="M10.6656 5.0125C11.2094 5.10313 11.5781 5.61875 11.4875 6.1625L11.1813 8H14.1531L14.5125 5.83438C14.6031 5.29063 15.1188 4.92188 15.6625 5.0125C16.2063 5.10313 16.575 5.61875 16.4844 6.1625L16.1812 8H18C18.5531 8 19 8.44688 19 9C19 9.55313 18.5531 10 18 10H15.8469L15.1812 14H17C17.5531 14 18 14.4469 18 15C18 15.5531 17.5531 16 17 16H14.8469L14.4875 18.1656C14.3969 18.7094 13.8812 19.0781 13.3375 18.9875C12.7937 18.8969 12.425 18.3813 12.5156 17.8375L12.8219 16.0031H9.84688L9.4875 18.1688C9.39688 18.7125 8.88125 19.0813 8.3375 18.9906C7.79375 18.9 7.425 18.3844 7.51562 17.8406L7.81875 16H6C5.44687 16 5 15.5531 5 15C5 14.4469 5.44687 14 6 14H8.15313L8.81875 10H7C6.44687 10 6 9.55313 6 9C6 8.44688 6.44687 8 7 8H9.15312L9.5125 5.83438C9.60312 5.29063 10.1187 4.92188 10.6625 5.0125H10.6656ZM10.8469 10L10.1813 14H13.1531L13.8188 10H10.8469Z" fill="black"/>
</svg>
