<svg width="24" height="24" viewBox="0 0 24 24" fill="none" xmlns="http://www.w3.org/2000/svg">
<path d="M5.25 10.5C4.55937 10.5 4 11.0594 4 11.75C4 12.4406 4.55937 13 5.25 13H10.8812C10.6437 13.2656 10.5 13.6156 10.5 14C10.5 14.7906 11.1094 15.4375 11.8844 15.4969C11.6438 15.7625 11.5 16.1156 11.5 16.5C11.5 17.3281 12.1719 18 13 18H14H16C18.2094 18 20 16.2094 20 14V10.4656C20 9.20938 19.5 8.00313 18.6125 7.11251C17.9 6.40001 16.9344 6.00001 15.9281 6.00001H14.5C13.8344 6.00001 13.2719 6.43438 13.075 7.03438L15.4031 7.77501C15.6656 7.85938 15.8125 8.14063 15.7281 8.40313C15.6437 8.66563 15.3625 8.81251 15.1 8.72813L13 8.05938V8.06251L6.625 6.05626C5.96562 5.85001 5.26562 6.21563 5.05625 6.87501C4.84687 7.53438 5.21562 8.23438 5.875 8.44376L12.4219 10.5H5.25Z" fill="black"/>
</svg>
