<svg width="24" height="24" viewBox="0 0 24 24" fill="none" xmlns="http://www.w3.org/2000/svg">
<path d="M3.21268 4.15937C2.88768 3.90312 2.4158 3.96249 2.15955 4.28749C1.9033 4.61249 1.96268 5.08437 2.28768 5.34062L20.7877 19.8406C21.1127 20.0969 21.5846 20.0375 21.8408 19.7125C22.0971 19.3875 22.0377 18.9156 21.7127 18.6594L17.4939 15.3531C17.4596 15 17.2971 14.6562 17.0158 14.3937L12.8221 10.55L12.0908 11.1187L11.2783 10.4844L13.6908 8.60624C13.9096 8.43749 14.2221 8.47499 14.3939 8.69374C14.5658 8.91249 14.5252 9.22499 14.3064 9.39687L13.6533 9.90312L18.0002 13.9V7.99999H17.9783L17.8564 7.92187L15.5877 6.46874C15.1096 6.16249 14.5502 5.99999 13.9814 5.99999C13.3002 5.99999 12.6377 6.23437 12.1064 6.66249L9.3033 8.93124L8.49705 8.29687L11.0533 6.22812C10.6908 6.07499 10.3002 5.99687 9.9033 5.99687C9.31268 5.99999 8.7408 6.17499 8.25018 6.49999L7.1408 7.24062L3.21268 4.15937ZM14.9252 17.1844L6.00018 10.15V15H6.88143L9.73768 17.6062C10.3502 18.1656 11.2971 18.1219 11.8564 17.5094C12.0283 17.3187 12.1439 17.0969 12.2033 16.8656L12.7346 17.3531C13.3439 17.9125 14.2939 17.8719 14.8533 17.2625C14.8783 17.2375 14.9002 17.2094 14.9221 17.1812L14.9252 17.1844ZM5.00018 9.36249L3.26893 7.99999H2.50018C2.22518 7.99999 2.00018 8.22499 2.00018 8.49999V15C2.00018 15.5531 2.44705 16 3.00018 16H4.00018C4.5533 16 5.00018 15.5531 5.00018 15V9.36249ZM3.50018 14C3.63278 14 3.75996 14.0527 3.85373 14.1464C3.9475 14.2402 4.00018 14.3674 4.00018 14.5C4.00018 14.6326 3.9475 14.7598 3.85373 14.8535C3.75996 14.9473 3.63278 15 3.50018 15C3.36757 15 3.24039 14.9473 3.14662 14.8535C3.05285 14.7598 3.00018 14.6326 3.00018 14.5C3.00018 14.3674 3.05285 14.2402 3.14662 14.1464C3.24039 14.0527 3.36757 14 3.50018 14ZM19.0002 7.99999V15C19.0002 15.5531 19.4471 16 20.0002 16H21.0002C21.5533 16 22.0002 15.5531 22.0002 15V8.49999C22.0002 8.22499 21.7752 7.99999 21.5002 7.99999H19.0002ZM20.0002 14.5C20.0002 14.3674 20.0529 14.2402 20.1466 14.1464C20.2404 14.0527 20.3676 14 20.5002 14C20.6328 14 20.76 14.0527 20.8537 14.1464C20.9475 14.2402 21.0002 14.3674 21.0002 14.5C21.0002 14.6326 20.9475 14.7598 20.8537 14.8535C20.76 14.9473 20.6328 15 20.5002 15C20.3676 15 20.2404 14.9473 20.1466 14.8535C20.0529 14.7598 20.0002 14.6326 20.0002 14.5Z" fill="black"/>
</svg>
