<svg width="24" height="24" viewBox="0 0 24 24" fill="none" xmlns="http://www.w3.org/2000/svg">
<path d="M13.1531 19.4836C12.4562 19.8867 11.6 19.8867 10.9031 19.4836L6.125 16.7242C5.42813 16.3242 5 15.5805 5 14.7773V9.25859C5 8.45547 5.42813 7.71172 6.125 7.30859L10.9031 4.55234C11.6 4.14922 12.4562 4.14922 13.1531 4.55234L17.9312 7.31172C18.6281 7.71484 19.0562 8.45547 19.0562 9.26172V14.7773C19.0562 15.5805 18.6281 16.3242 17.9312 16.7273L13.1531 19.4836ZM13.5 7.85859C13.5 7.68047 13.4031 7.51484 13.2469 7.42422L11.7531 6.57109C11.6906 6.53359 11.6188 6.50859 11.5406 6.50234C11.525 6.50234 11.5094 6.49922 11.4969 6.49922H11.4938C11.3906 6.49922 11.2969 6.53047 11.2188 6.58047C11.1719 6.61172 11.1281 6.64922 11.0938 6.69609C11.0562 6.74297 11.0281 6.79922 11.0125 6.85859C11 6.90859 10.9938 6.95547 10.9938 7.00547V12.018V16.518C10.9938 16.793 11.2188 17.018 11.4938 17.018C11.7688 17.018 11.9938 16.793 11.9938 16.518V12.518H12.9938C13.2688 12.518 13.4937 12.293 13.4937 12.018C13.4937 11.743 13.2688 11.518 12.9938 11.518H11.9938V7.86172L12.75 8.29297C13.0844 8.48359 13.4969 8.24297 13.4969 7.85859H13.5ZM14 8.71484C14 8.89297 14.0969 9.05859 14.2531 9.14922L14.9969 9.57422V15.018C14.9969 15.293 15.2219 15.518 15.4969 15.518C15.7719 15.518 15.9969 15.293 15.9969 15.018V10.143L16.5031 10.4336C16.7438 10.5711 17.0469 10.4867 17.1844 10.2461C17.3219 10.0055 17.2375 9.70234 16.9969 9.56484L14.7469 8.28047C14.4125 8.08984 14 8.33047 14 8.71484ZM9.49375 8.01797C9.21875 8.01797 8.99375 8.24297 8.99375 8.51797V12.4367L7.96875 9.35859C7.89062 9.12734 7.65625 8.98359 7.41563 9.02422C7.175 9.06484 6.99688 9.27109 6.99688 9.51797V14.518C6.99688 14.793 7.22188 15.018 7.49688 15.018C7.77188 15.018 7.99688 14.793 7.99688 14.518V12.5992L9.02187 15.6773C9.1 15.9086 9.33437 16.0523 9.575 16.0117C9.81562 15.9711 9.99375 15.7648 9.99375 15.518V8.51797C9.99375 8.24297 9.76875 8.01797 9.49375 8.01797Z" fill="black"/>
</svg>
