<svg width="24" height="24" viewBox="0 0 24 24" fill="none" xmlns="http://www.w3.org/2000/svg">
<path d="M8.82183 4.26564C9.2062 3.91251 9.79683 3.91251 10.1781 4.26564L16.6781 10.2656C16.8875 10.4594 17 10.7281 17 11H12.5C11.9031 11 11.3656 11.2625 11 11.6781V10.5C11 10.225 10.775 10 10.5 10H8.49995C8.22495 10 7.99995 10.225 7.99995 10.5V12.5C7.99995 12.775 8.22495 13 8.49995 13H10.5V17H5.49995C4.67183 17 3.99995 16.3281 3.99995 15.5V12H2.99995C2.58745 12 2.2187 11.7469 2.0687 11.3656C1.9187 10.9844 2.0187 10.5469 2.32183 10.2656L8.82183 4.26564ZM13 13.5V18H19V13.5H13ZM11.5 13C11.5 12.4469 11.9468 12 12.5 12H19.5C20.0531 12 20.5 12.4469 20.5 13V18H21.5C21.775 18 22 18.225 22 18.5C22 19.3281 21.3281 20 20.5 20H19H13H11.5C10.6718 20 9.99995 19.3281 9.99995 18.5C9.99995 18.225 10.225 18 10.5 18H11.5V13Z" fill="black"/>
</svg>
