<svg width="24" height="24" viewBox="0 0 24 24" fill="none" xmlns="http://www.w3.org/2000/svg">
<path d="M8.12187 8.27815C7.20312 7.3469 7.20312 5.8344 8.12187 4.90315C9.04062 3.9719 10.5281 3.9719 11.4469 4.90315L12 5.46565L12.5531 4.90315C13.4719 3.9719 14.9594 3.9719 15.8781 4.90315C16.7969 5.8344 16.7969 7.3469 15.8781 8.27815L12.7031 11.5031C12.5094 11.7 12.2562 11.7969 12 11.7969C11.7438 11.7969 11.4906 11.7 11.2969 11.5031L8.12187 8.27815ZM20.7563 14.5094C21.1656 15.0656 21.0469 15.8469 20.4906 16.2563L16.5344 19.1719C15.8031 19.7094 14.9219 20 14.0125 20H9H4C3.44687 20 3 19.5531 3 19V17C3 16.4469 3.44687 16 4 16H5.15L6.55312 14.875C7.2625 14.3063 8.14375 14 9.05312 14H11.5H12H14C14.5531 14 15 14.4469 15 15C15 15.5531 14.5531 16 14 16H12H11.5C11.225 16 11 16.225 11 16.5C11 16.775 11.225 17 11.5 17H15.2688L19.0094 14.2438C19.5656 13.8344 20.3469 13.9531 20.7563 14.5094ZM9.05 16H9.02187C9.03125 16 9.04063 16 9.05 16Z" fill="black"/>
</svg>
