<svg width="24" height="24" viewBox="0 0 24 24" fill="none" xmlns="http://www.w3.org/2000/svg">
<path d="M10.6656 5.01247C11.2094 5.1031 11.5781 5.61872 11.4875 6.16247L11.1813 7.99997H14.1531L14.5125 5.83435C14.6031 5.2906 15.1188 4.92185 15.6625 5.01247C16.2063 5.1031 16.575 5.61872 16.4844 6.16247L16.1812 7.99997H18C18.5531 7.99997 19 8.44685 19 8.99997C19 9.5531 18.5531 9.99997 18 9.99997H15.8469L15.1812 14H17C17.5531 14 18 14.4468 18 15C18 15.5531 17.5531 16 17 16H14.8469L14.4875 18.1656C14.3969 18.7093 13.8812 19.0781 13.3375 18.9875C12.7937 18.8968 12.425 18.3812 12.5156 17.8375L12.8219 16.0031H9.84688L9.4875 18.1687C9.39688 18.7125 8.88125 19.0812 8.3375 18.9906C7.79375 18.9 7.425 18.3843 7.51562 17.8406L7.81875 16H6C5.44687 16 5 15.5531 5 15C5 14.4468 5.44687 14 6 14H8.15313L8.81875 9.99997H7C6.44687 9.99997 6 9.5531 6 8.99997C6 8.44685 6.44687 7.99997 7 7.99997H9.15312L9.5125 5.83435C9.60312 5.2906 10.1188 4.92185 10.6625 5.01247H10.6656ZM10.8469 9.99997L10.1813 14H13.1531L13.8188 9.99997H10.8469Z" fill="black"/>
</svg>
