<svg width="24" height="24" viewBox="0 0 24 24" fill="none" xmlns="http://www.w3.org/2000/svg">
<path d="M13.1531 19.4836C12.4562 19.8867 11.6 19.8867 10.9031 19.4836L6.125 16.7242C5.42813 16.3242 5 15.5805 5 14.7773V9.25859C5 8.45547 5.42813 7.71172 6.125 7.30859L10.9031 4.55234C11.6 4.14922 12.4562 4.14922 13.1531 4.55234L17.9312 7.31172C18.6281 7.71484 19.0562 8.45547 19.0562 9.26172V14.7773C19.0562 15.5805 18.6281 16.3242 17.9312 16.7273L13.1531 19.4836ZM7.99375 9.33047C7.90625 9.10859 7.67188 8.98047 7.43438 9.02422C7.19688 9.06797 7.02813 9.27422 7.02813 9.51484V14.5148C7.02813 14.7898 7.25313 15.0148 7.52813 15.0148C7.80313 15.0148 8.02813 14.7898 8.02813 14.5148V12.1148L9.0625 14.7055C9.15 14.9273 9.38437 15.0555 9.62187 15.0117C9.85937 14.968 10.0281 14.7617 10.0281 14.5211V9.52109C10.0281 9.24609 9.80312 9.02109 9.52812 9.02109C9.25312 9.02109 9.02812 9.24609 9.02812 9.52109V11.9242L7.99375 9.33047ZM11.0281 9.51484V12.0148V14.5148C11.0281 14.7898 11.2531 15.0148 11.5281 15.0148C11.8031 15.0148 12.0281 14.7898 12.0281 14.5148V12.5148H13.0281C13.3031 12.5148 13.5281 12.2898 13.5281 12.0148C13.5281 11.7398 13.3031 11.5148 13.0281 11.5148H12.0281V10.0148H13.0281C13.3031 10.0148 13.5281 9.78984 13.5281 9.51484C13.5281 9.23984 13.3031 9.01484 13.0281 9.01484H11.5281C11.2531 9.01484 11.0281 9.23984 11.0281 9.51484ZM14.5281 9.01484C14.2531 9.01484 14.0281 9.23984 14.0281 9.51484C14.0281 9.78984 14.2531 10.0148 14.5281 10.0148H15.0281V14.5148C15.0281 14.7898 15.2531 15.0148 15.5281 15.0148C15.8031 15.0148 16.0281 14.7898 16.0281 14.5148V10.0148H16.5281C16.8031 10.0148 17.0281 9.78984 17.0281 9.51484C17.0281 9.23984 16.8031 9.01484 16.5281 9.01484H14.5281Z" fill="black"/>
</svg>
