<svg width="24" height="24" viewBox="0 0 24 24" fill="none" xmlns="http://www.w3.org/2000/svg">
<path d="M9.09355 7.18125C9.2498 5.93438 10.3092 5 11.5623 5C13.0592 5 14.2186 6.3125 14.0311 7.79688L13.6561 10.8187C13.4998 12.0625 12.4404 13 11.1873 13C9.69043 13 8.53105 11.6875 8.71855 10.2031L9.09355 7.18125ZM11.5623 7C11.3154 7 11.1092 7.18437 11.0779 7.42812L10.6998 10.45C10.6623 10.7406 10.8904 11 11.1842 11C11.4311 11 11.6373 10.8156 11.6686 10.5719L12.0467 7.55C12.0842 7.25937 11.8561 7 11.5623 7ZM8.24043 6.125L7.24043 13.125C7.1623 13.6719 6.65605 14.0625 6.10918 13.9906C5.5623 13.9188 5.18105 13.4219 5.25918 12.875L6.00918 7.64062L5.39355 7.9125C4.8873 8.1375 4.29668 7.9125 4.08105 7.40937C3.86543 6.90625 4.0998 6.3125 4.60605 6.0875L6.85605 5.0875C7.1873 4.94062 7.57168 4.98125 7.85918 5.19687C8.14668 5.4125 8.29043 5.76562 8.24043 6.125ZM19.9904 13.8594C20.0686 14.4062 19.6873 14.9125 19.1404 14.9906L5.14043 16.9906C4.59355 17.0688 4.0873 16.6875 4.00918 16.1406C3.93105 15.5938 4.3123 15.0875 4.85918 15.0094L18.8592 13.0094C19.4061 12.9312 19.9123 13.3125 19.9904 13.8594ZM19.9904 16.8594C20.0686 17.4062 19.6873 17.9125 19.1404 17.9906L12.1404 18.9906C11.5936 19.0688 11.0873 18.6875 11.0092 18.1406C10.9311 17.5938 11.3123 17.0875 11.8592 17.0094L18.8592 16.0094C19.4061 15.9312 19.9123 16.3125 19.9904 16.8594ZM17.3654 5C18.8311 5 19.9811 6.25937 19.8498 7.71875L19.6217 10.2312C19.5061 11.5156 18.4279 12.5 17.1373 12.5C15.6717 12.5 14.5217 11.2406 14.6529 9.78125L14.8811 7.26875C14.9967 5.98438 16.0748 5 17.3654 5ZM16.8748 7.45L16.6467 9.9625C16.6217 10.2531 16.8467 10.5 17.1373 10.5C17.3936 10.5 17.6061 10.3063 17.6279 10.05L17.8561 7.5375C17.8811 7.24687 17.6561 7 17.3654 7C17.1092 7 16.8967 7.19375 16.8748 7.45Z" fill="black"/>
</svg>
