<svg width="24" height="24" viewBox="0 0 24 24" fill="none" xmlns="http://www.w3.org/2000/svg">
<path d="M8.82195 4.26562C9.20632 3.9125 9.79695 3.9125 10.1782 4.26562L13.8594 7.6625C12.8407 8.27187 12.0626 9.23125 11.6844 10.3719L11.6032 10.6156C11.2532 11.6625 11.8188 12.7969 12.8688 13.1469C13.3626 13.3125 13.8751 13.2719 14.3157 13.075L13.2969 15.625L11.9219 17H5.50007C4.67195 17 4.00007 16.3281 4.00007 15.5V12H3.00007C2.58757 12 2.21882 11.7469 2.06882 11.3656C1.91882 10.9844 2.01882 10.5469 2.32195 10.2656L8.82195 4.26562ZM6.00007 10.5V12.5C6.00007 12.775 6.22507 13 6.50007 13H8.50007C8.77507 13 9.00007 12.775 9.00007 12.5V10.5C9.00007 10.225 8.77507 10 8.50007 10H6.50007C6.22507 10 6.00007 10.225 6.00007 10.5ZM18.5001 4C18.8979 4 19.2794 4.15804 19.5607 4.43934C19.842 4.72064 20.0001 5.10218 20.0001 5.5C20.0001 5.89782 19.842 6.27936 19.5607 6.56066C19.2794 6.84196 18.8979 7 18.5001 7C18.1022 7 17.7207 6.84196 17.4394 6.56066C17.1581 6.27936 17.0001 5.89782 17.0001 5.5C17.0001 5.10218 17.1581 4.72064 17.4394 4.43934C17.7207 4.15804 18.1022 4 18.5001 4ZM15.8657 10.2656L15.6157 10.375C15.1032 10.6031 14.7094 11.0375 14.5313 11.5687L14.4501 11.8125C14.2751 12.3375 13.7094 12.6188 13.1844 12.4438C12.6594 12.2688 12.3782 11.7031 12.5532 11.1781L12.6344 10.9344C12.9907 9.86875 13.7782 9 14.8032 8.54375L15.0532 8.43437C15.7032 8.14687 16.4063 7.99688 17.1188 7.99688C18.5126 7.99688 19.7688 8.83438 20.3032 10.1188L20.7813 11.2719L21.4501 11.6062C21.9438 11.8531 22.1438 12.4531 21.8969 12.9469C21.6501 13.4406 21.0501 13.6406 20.5563 13.3938L19.7188 12.9781C19.3969 12.8156 19.1438 12.5469 19.0063 12.2125L18.7063 11.4938L18.1032 13.5406L19.6501 15.2281C19.8188 15.4125 19.9376 15.6344 20.0001 15.8781L20.7188 18.7563C20.8532 19.2906 20.5282 19.8344 19.9907 19.9688C19.4532 20.1031 18.9126 19.7781 18.7782 19.2406L18.0907 16.4875L15.8813 14.0781C15.4188 13.575 15.2469 12.8719 15.4219 12.2125L15.9501 10.2281C15.9188 10.2406 15.8907 10.2531 15.8594 10.2656H15.8657ZM14.9282 14.4875C14.9938 14.5813 15.0688 14.6688 15.1469 14.7563L16.4188 16.1438L15.9657 17.275C15.8907 17.4625 15.7782 17.6344 15.6344 17.7781L13.7063 19.7063C13.3157 20.0969 12.6813 20.0969 12.2907 19.7063C11.9001 19.3156 11.9001 18.6812 12.2907 18.2906L14.1469 16.4375L14.9282 14.4875Z" fill="black"/>
</svg>
