<svg width="24" height="24" viewBox="0 0 24 24" fill="none" xmlns="http://www.w3.org/2000/svg">
<path d="M14.1781 4.26558C13.7938 3.91245 13.2031 3.91245 12.8219 4.26558L6.32188 10.2656C6.02813 10.5343 5.925 10.9531 6.05625 11.3281C8.77812 12.1187 10.9188 14.2718 11.6906 17.0031H17.5C18.3281 17.0031 19 16.3312 19 15.5031V12H20C20.4125 12 20.7812 11.7468 20.9312 11.3656C21.0812 10.9843 20.9813 10.5468 20.6781 10.2656L14.1781 4.26558ZM12 10.5C12 10.225 12.225 9.99995 12.5 9.99995H14.5C14.775 9.99995 15 10.225 15 10.5V12.5C15 12.775 14.775 13 14.5 13H12.5C12.225 13 12 12.775 12 12.5V10.5ZM3.75 12C3.33437 12 3 12.3343 3 12.75C3 13.1656 3.33437 13.5 3.75 13.5C6.925 13.5 9.5 16.075 9.5 19.25C9.5 19.6656 9.83437 20 10.25 20C10.6656 20 11 19.6656 11 19.25C11 15.2468 7.75313 12 3.75 12ZM4 20C4.26522 20 4.51957 19.8946 4.70711 19.7071C4.89464 19.5195 5 19.2652 5 19C5 18.7347 4.89464 18.4804 4.70711 18.2928C4.51957 18.1053 4.26522 18 4 18C3.73478 18 3.48043 18.1053 3.29289 18.2928C3.10536 18.4804 3 18.7347 3 19C3 19.2652 3.10536 19.5195 3.29289 19.7071C3.48043 19.8946 3.73478 20 4 20ZM3 15.75C3 16.1656 3.33437 16.5 3.75 16.5C5.26875 16.5 6.5 17.7312 6.5 19.25C6.5 19.6656 6.83437 20 7.25 20C7.66563 20 8 19.6656 8 19.25C8 16.9031 6.09687 15 3.75 15C3.33437 15 3 15.3343 3 15.75Z" fill="black"/>
</svg>
