<svg width="24" height="24" viewBox="0 0 24 24" fill="none" xmlns="http://www.w3.org/2000/svg">
<path d="M12.75 4.75V5.07812C12.95 5.11563 13.1438 5.1625 13.3188 5.20938C13.7188 5.31563 13.9563 5.72812 13.85 6.12812C13.7438 6.52813 13.3312 6.76562 12.9312 6.65937C12.5906 6.56875 12.2719 6.50625 11.9875 6.50312C11.7594 6.5 11.5281 6.55625 11.3813 6.64062C11.3156 6.68125 11.2844 6.71563 11.2719 6.73438C11.2625 6.75 11.25 6.77188 11.25 6.82188C11.25 6.83125 11.25 6.8375 11.25 6.84063C11.2563 6.84687 11.2781 6.87812 11.3531 6.92188C11.5344 7.03125 11.8031 7.11562 12.2094 7.2375L12.2375 7.24688C12.5844 7.35 13.0469 7.49062 13.4219 7.725C13.85 7.99375 14.2375 8.44063 14.2469 9.12813C14.2562 9.83125 13.8906 10.3438 13.4125 10.6438C13.2031 10.7719 12.9781 10.8625 12.7469 10.9187V11.25C12.7469 11.6656 12.4125 12 11.9969 12C11.5813 12 11.2469 11.6656 11.2469 11.25V10.8938C10.95 10.8219 10.6781 10.7281 10.4469 10.65C10.3812 10.6281 10.3187 10.6063 10.2594 10.5875C9.86562 10.4563 9.65313 10.0312 9.78438 9.6375C9.91563 9.24375 10.3406 9.03125 10.7344 9.1625C10.8156 9.19062 10.8906 9.21562 10.9625 9.24062C11.3875 9.38438 11.6938 9.4875 12.0219 9.5C12.2719 9.50938 12.4937 9.45 12.6219 9.37187C12.6812 9.33437 12.7094 9.30312 12.7219 9.28125C12.7344 9.2625 12.75 9.225 12.7469 9.15312V9.14687C12.7469 9.11562 12.7469 9.08125 12.6219 9.00313C12.4437 8.89062 12.175 8.80312 11.775 8.68125L11.7156 8.6625C11.3781 8.5625 10.9344 8.42812 10.5781 8.2125C10.1562 7.95938 9.75 7.525 9.74687 6.83437C9.74375 6.11875 10.15 5.62812 10.6125 5.35312C10.8125 5.23438 11.0281 5.15312 11.2437 5.09687V4.75C11.2437 4.33437 11.5781 4 11.9937 4C12.4094 4 12.7437 4.33437 12.7437 4.75H12.75ZM20.7563 14.5094C21.1656 15.0656 21.0469 15.8469 20.4906 16.2563L16.5344 19.1719C15.8031 19.7094 14.9219 20 14.0125 20H9H4C3.44687 20 3 19.5531 3 19V17C3 16.4469 3.44687 16 4 16H5.15L6.55312 14.875C7.2625 14.3062 8.14375 14 9.05312 14H11.5H12H14C14.5531 14 15 14.4469 15 15C15 15.5531 14.5531 16 14 16H12H11.5C11.225 16 11 16.225 11 16.5C11 16.775 11.225 17 11.5 17H15.2688L19.0094 14.2437C19.5656 13.8344 20.3469 13.9531 20.7563 14.5094ZM9.05 16H9.02187C9.03125 16 9.04063 16 9.05 16Z" fill="black"/>
</svg>
