<svg width="24" height="24" viewBox="0 0 24 24" fill="none" xmlns="http://www.w3.org/2000/svg">
<path d="M8.12187 8.27815C7.20312 7.3469 7.20312 5.8344 8.12187 4.90315C9.04062 3.9719 10.5281 3.9719 11.4469 4.90315L12 5.46565L12.5531 4.90315C13.4719 3.9719 14.9594 3.9719 15.8781 4.90315C16.7969 5.8344 16.7969 7.3469 15.8781 8.27815L12.7031 11.5031C12.5094 11.7 12.2563 11.7969 12 11.7969C11.7437 11.7969 11.4906 11.7 11.2969 11.5031L8.12187 8.27815ZM3.25 6.00002C3.94062 6.00002 4.5 6.5594 4.5 7.25002V8.50002V11V12.2563C4.5 12.7875 4.70937 13.2969 5.08437 13.6719L6.68125 15.2688C6.94063 15.5281 7.34688 15.5688 7.65 15.3657C8.05312 15.0969 8.10938 14.525 7.76562 14.1844L7.29063 13.7094L6.29063 12.7094C5.9 12.3188 5.9 11.6844 6.29063 11.2938C6.68125 10.9031 7.31563 10.9031 7.70625 11.2938L8.70625 12.2938L9.18125 12.7688L9.97188 13.5594C10.6281 14.2156 10.9969 15.1063 10.9969 16.0344V18.5C10.9969 19.3281 10.325 20 9.49687 20H7.41563C6.88438 20 6.375 19.7906 6 19.4156L2.87813 16.2938C2.31563 15.7313 2 14.9688 2 14.1719V11V9.00002V7.25002C2 6.5594 2.55937 6.00002 3.25 6.00002ZM20.75 6.00002C21.4406 6.00002 22 6.5594 22 7.25002V9.00002V11V14.1719C22 14.9688 21.6844 15.7313 21.1219 16.2938L18 19.4156C17.625 19.7906 17.1156 20 16.5844 20H14.5C13.6719 20 13 19.3281 13 18.5V16.0344C13 15.1063 13.3687 14.2156 14.025 13.5594L14.8156 12.7688L15.2906 12.2938L16.2906 11.2938C16.6812 10.9031 17.3156 10.9031 17.7063 11.2938C18.0969 11.6844 18.0969 12.3188 17.7063 12.7094L16.7063 13.7094L16.2312 14.1844C15.8875 14.5281 15.9438 15.0969 16.3469 15.3657C16.65 15.5688 17.0563 15.5281 17.3156 15.2688L18.9125 13.6719C19.2875 13.2969 19.4969 12.7875 19.4969 12.2563V11V8.50002V7.25002C19.4969 6.5594 20.0563 6.00002 20.7469 6.00002H20.75Z" fill="black"/>
</svg>
