<svg width="24" height="24" viewBox="0 0 24 24" fill="none" xmlns="http://www.w3.org/2000/svg">
<path d="M12.5875 4.19058C12.2375 3.93745 11.7625 3.93745 11.4125 4.19058L5.91252 8.19058C5.56252 8.44683 5.41565 8.89683 5.55002 9.30933C5.6844 9.72183 6.06565 9.99995 6.50002 9.99995H7.00002V12.2812C7.05315 12.3125 7.10315 12.3437 7.15315 12.3781C7.71565 12.7656 8.40627 13.0125 9.00315 13.0125C9.66252 13.0125 10.3156 12.7468 10.8531 12.3781C11.5438 11.8937 12.4656 11.8937 13.1563 12.3781C13.7313 12.775 14.3938 13.0125 15.0063 13.0125C15.6 13.0125 16.2938 12.7656 16.8563 12.3781C16.9031 12.3468 16.95 12.3156 16.9969 12.2875L16.9875 9.99995H17.5C17.9344 9.99995 18.3156 9.72183 18.45 9.30933C18.5844 8.89683 18.4375 8.44683 18.0875 8.19058L12.5875 4.19058ZM11.4219 13.6843C10.7188 14.1687 9.8594 14.5 9.00002 14.5C8.1594 14.5 7.2719 14.1625 6.58127 13.6843C6.2094 13.4187 5.70315 13.4406 5.35627 13.7375C4.90627 14.1093 4.34065 14.3937 3.77502 14.525C3.23752 14.65 2.90315 15.1875 3.02815 15.725C3.15315 16.2625 3.69065 16.5968 4.22815 16.4718C4.99377 16.2937 5.63127 15.9562 6.0469 15.6906C6.95315 16.1781 7.96877 16.5 9.00002 16.5C9.9969 16.5 10.8938 16.1906 11.5125 15.9093C11.6938 15.825 11.8594 15.7437 12 15.6687C12.1406 15.7437 12.3031 15.8281 12.4875 15.9093C13.1063 16.1906 14.0031 16.5 15 16.5C16.0313 16.5 17.0469 16.1781 17.9531 15.6937C18.3719 15.9562 19.0063 16.2968 19.7719 16.475C20.3094 16.6 20.8469 16.2656 20.9719 15.7281C21.0969 15.1906 20.7625 14.6531 20.225 14.5281C19.6594 14.3968 19.0938 14.1125 18.6438 13.7406C18.2969 13.4437 17.7906 13.425 17.4188 13.6875C16.7313 14.1625 15.8406 14.5 15 14.5C14.1406 14.5 13.2813 14.1687 12.5781 13.6843C12.2313 13.4375 11.7688 13.4375 11.4219 13.6843ZM15 18C14.1406 18 13.2813 17.6687 12.5781 17.1843C12.2313 16.9375 11.7688 16.9375 11.4219 17.1843C10.7188 17.6687 9.8594 18 9.00002 18C8.1594 18 7.2719 17.6625 6.58127 17.1843C6.2094 16.9187 5.70315 16.9406 5.35627 17.2375C4.90627 17.6093 4.34065 17.8937 3.77502 18.025C3.23752 18.15 2.90315 18.6875 3.02815 19.225C3.15315 19.7625 3.69065 20.0968 4.22815 19.9718C4.99377 19.7937 5.63127 19.4562 6.0469 19.1906C6.95315 19.6781 7.96877 20 9.00002 20C9.9969 20 10.8938 19.6906 11.5125 19.4093C11.6938 19.325 11.8594 19.2437 12 19.1687C12.1406 19.2437 12.3031 19.3281 12.4875 19.4093C13.1063 19.6906 14.0031 20 15 20C16.0313 20 17.0469 19.6781 17.9531 19.1937C18.3719 19.4562 19.0063 19.7968 19.7719 19.975C20.3094 20.1 20.8469 19.7656 20.9719 19.2281C21.0969 18.6906 20.7625 18.1531 20.225 18.0281C19.6594 17.8968 19.0938 17.6125 18.6438 17.2406C18.2969 16.9468 17.7906 16.925 17.4188 17.1875C16.7313 17.6625 15.8406 18 15 18Z" fill="black"/>
</svg>
