<svg width="24" height="24" viewBox="0 0 24 24" fill="none" xmlns="http://www.w3.org/2000/svg">
<path d="M8.90625 4.57814L9.44688 5.74064L8.34375 8.10314L7.09375 5.42189C6.85938 4.92189 7.07812 4.32501 7.57812 4.09376C8.07812 3.86251 8.675 4.07814 8.90625 4.57814ZM10.7063 12.5H10.75C11.4406 12.5 12 13.0594 12 13.75C12 14.4406 11.4406 15 10.75 15H9C8.725 15 8.5 15.225 8.5 15.5C8.5 15.775 8.725 16 9 16H10.75C11.9938 16 13 14.9938 13 13.75V13.7313C13.2937 13.9 13.6344 14 14 14C14.4125 14 14.7937 13.875 15.1125 13.6625C15.3844 14.4406 16.1281 15 17 15C17.3656 15 17.7063 14.9031 18 14.7313V15C18 17.7625 15.7625 20 13 20H11.0719C9.74688 20 8.475 19.4719 7.5375 18.5344L7.17188 18.1719C6.42188 17.4219 6 16.4031 6 15.3438V14.5C6 13.3969 6.89688 12.5 8 12.5H8.5H9.60313H10.7063ZM12 11.8781C11.75 11.7094 11.4625 11.5906 11.1562 11.5344L11.6562 10.4688L12 11.2094V11.8813V11.8781ZM10.0687 11.5H7.8625L11.0938 4.57814C11.3281 4.07814 11.9219 3.86251 12.4219 4.09376C12.9219 4.32501 13.1375 4.92189 12.9062 5.42189L10.0687 11.5ZM13 10C13 9.44689 13.4469 9.00001 14 9.00001C14.5531 9.00001 15 9.44689 15 10V12C15 12.5531 14.5531 13 14 13C13.4469 13 13 12.5531 13 12V10ZM16 11C16 10.4469 16.4469 10 17 10C17.5531 10 18 10.4469 18 11V13C18 13.5531 17.5531 14 17 14C16.4469 14 16 13.5531 16 13V11Z" fill="black"/>
</svg>
