<svg width="24" height="24" viewBox="0 0 24 24" fill="none" xmlns="http://www.w3.org/2000/svg">
<path d="M9.80938 7.6312C10.3219 7.22183 10.9594 6.99995 11.6125 6.99995H12.9688C13.8156 6.99995 14.5 7.68433 14.5 8.5312C14.5 8.89058 14.375 9.2312 14.1531 9.49995H7C6.44687 9.49995 6 9.94683 6 10.5C6 11.0531 6.44687 11.5 7 11.5H10.8594L9.27813 12.4031C9.225 12.4343 9.17188 12.4656 9.11875 12.5H7C6.44687 12.5 6 12.9468 6 13.5C6 14.0531 6.44687 14.5 7 14.5H7.63437C7.54688 14.8093 7.5 15.1375 7.5 15.4687C7.5 17.4187 9.08125 19 11.0312 19H12.3875C13.4969 19 14.575 18.6218 15.4406 17.9281L15.625 17.7812C16.0562 17.4375 16.125 16.8062 15.7812 16.375C15.4375 15.9437 14.8062 15.875 14.375 16.2187L14.1906 16.3656C13.6781 16.775 13.0437 16.9968 12.3875 16.9968H11.0312C10.1844 16.9968 9.5 16.3125 9.5 15.4656C9.5 15.1062 9.625 14.7656 9.84687 14.4968H17C17.5531 14.4968 18 14.05 18 13.4968C18 12.9437 17.5531 12.4968 17 12.4968H13.1406L14.7219 11.5937C14.775 11.5625 14.8281 11.5312 14.8813 11.4968H17C17.5531 11.4968 18 11.05 18 10.4968C18 9.9437 17.5531 9.49683 17 9.49683H16.3656C16.4531 9.18433 16.5 8.85933 16.5 8.52808C16.5 6.57808 14.9187 4.99683 12.9688 4.99683H11.6125C10.5031 4.99683 9.425 5.37495 8.55938 6.0687L8.375 6.2187C7.94375 6.56245 7.875 7.1937 8.21875 7.62495C8.5625 8.0562 9.19375 8.12495 9.625 7.7812L9.80938 7.63433V7.6312Z" fill="black"/>
</svg>
