<svg width="24" height="24" viewBox="0 0 24 24" fill="none" xmlns="http://www.w3.org/2000/svg">
<path d="M20 9.00025L19.9969 11.269C19.9938 12.9002 19.2469 14.4252 17.9969 15.4284C18 15.369 18 15.3096 18 15.2502V15.0002C18 12.7565 16.8438 10.669 14.9406 9.47837L13.0594 8.30337C12.7906 8.13462 12.5 8.04087 12.2063 8.00962L10.7719 5.52525C10.5656 5.16587 10.6875 4.7065 11.0469 4.50025C11.4062 4.294 11.8656 4.41587 12.0719 4.77525L14.5094 8.99712C14.6125 9.17525 14.8438 9.23775 15.0219 9.13462C15.2 9.0315 15.2625 8.80025 15.1594 8.62212L13.2219 5.26587C13.0156 4.9065 13.1375 4.44712 13.4969 4.24087C13.8562 4.03462 14.3125 4.1565 14.5188 4.51587L16.6438 8.19712L17.9969 10.5409L18 9.00025C18 8.44712 18.45 8.00025 19 8.00025C19.55 8.00025 20 8.45025 20 9.00025ZM10.6219 6.76587L11.3906 8.094C10.9563 8.23462 10.5656 8.52212 10.3063 8.93775C10.2781 8.9815 10.2531 9.02837 10.2281 9.07525L9.325 7.51275C9.11875 7.15337 9.24062 6.694 9.6 6.48775C9.95937 6.2815 10.4187 6.40337 10.625 6.76275L10.6219 6.76587ZM9.17188 8.7565L10.0094 10.2065C10.0281 10.394 10.075 10.5752 10.1438 10.7502H10H9.58437H8.59375L7.875 9.5065C7.66875 9.14712 7.79063 8.68775 8.15 8.4815C8.50938 8.27525 8.96875 8.39712 9.175 8.7565H9.17188ZM11.1531 9.469C11.4469 9.00025 12.0625 8.85962 12.5312 9.15025L14.4125 10.3252C16.0219 11.3346 17 13.1002 17 15.0002V15.2502C17 17.8721 14.8719 20.0002 12.25 20.0002H6.75C6.33437 20.0002 6 19.6659 6 19.2502C6 18.8346 6.33437 18.5002 6.75 18.5002H9.625C9.83125 18.5002 10 18.3315 10 18.1252C10 17.919 9.83125 17.7502 9.625 17.7502H5.75C5.33438 17.7502 5 17.4159 5 17.0002C5 16.5846 5.33438 16.2502 5.75 16.2502H9.625C9.83125 16.2502 10 16.0815 10 15.8752C10 15.669 9.83125 15.5002 9.625 15.5002H4.75C4.33437 15.5002 4 15.1659 4 14.7502C4 14.3346 4.33437 14.0002 4.75 14.0002H9.625C9.83125 14.0002 10 13.8315 10 13.6252C10 13.419 9.83125 13.2502 9.625 13.2502H5.75C5.33438 13.2502 5 12.9159 5 12.5002C5 12.0846 5.33438 11.7502 5.75 11.7502H10H12.9125L11.4688 10.8471C11 10.5534 10.8594 9.93775 11.15 9.469H11.1531Z" fill="black"/>
</svg>
