<svg width="24" height="24" viewBox="0 0 24 24" fill="none" xmlns="http://www.w3.org/2000/svg">
<path d="M17 4C17.5531 4 18 4.44687 18 5H21.5C21.775 5 22 5.225 22 5.5V9.5C22 9.775 21.775 10 21.5 10H18V20H16V10V5C16 4.44687 16.4469 4 17 4ZM10.65 5.24063L15 8.96875V20H15.0312H15.025H4.99999C4.44686 20 3.99999 19.5531 3.99999 19V13H2.99999C2.58124 13 2.20624 12.7406 2.06249 12.3469C1.91874 11.9531 2.03124 11.5125 2.34999 11.2406L9.34999 5.24063C9.72499 4.91875 10.2781 4.91875 10.6531 5.24063H10.65ZM8.99999 10.5V12H7.49999C7.22499 12 6.99999 12.225 6.99999 12.5V13.5C6.99999 13.775 7.22499 14 7.49999 14H8.99999V15.5C8.99999 15.775 9.22499 16 9.49999 16H10.5C10.775 16 11 15.775 11 15.5V14H12.5C12.775 14 13 13.775 13 13.5V12.5C13 12.225 12.775 12 12.5 12H11V10.5C11 10.225 10.775 10 10.5 10H9.49999C9.22499 10 8.99999 10.225 8.99999 10.5Z" fill="black"/>
</svg>
