<svg width="24" height="24" viewBox="0 0 24 24" fill="none" xmlns="http://www.w3.org/2000/svg">
<path d="M12 9.82817V16.7313L17.1469 11.925C17.6906 11.4188 18 10.7094 18 9.96567V9.78442C18 8.57817 17.1281 7.55005 15.9375 7.35005C15.1531 7.2188 14.35 7.47505 13.7875 8.03755L13.4125 8.41255L12 9.82817ZM7.73125 5.37817C9.15625 5.14067 10.6031 5.6063 11.625 6.62505L12 7.00005L12.375 6.62505C13.3938 5.6063 14.8438 5.14067 16.2688 5.37817C18.4219 5.73755 20 7.60005 20 9.78442V9.96567C20 11.2625 19.4625 12.5032 18.5125 13.3875L12.8656 18.6594C12.6313 18.8782 12.3219 19 12 19C11.6781 19 11.3688 18.8782 11.1344 18.6594L5.4875 13.3875C4.5375 12.5032 4 11.2625 4 9.96567V9.78442C4 7.60005 5.57812 5.73755 7.73125 5.37817Z" fill="black"/>
</svg>
