<svg width="24" height="24" viewBox="0 0 24 24" fill="none" xmlns="http://www.w3.org/2000/svg">
<path d="M10.8717 15.8312L11.4435 13.9531C12.006 13.8249 12.5123 13.4531 12.7904 12.8968L14.7904 8.89681C15.1185 8.23744 15.0529 7.48431 14.6748 6.90931L16.3217 4.51556C16.4373 4.34681 16.6467 4.26556 16.8435 4.31244C17.0404 4.35931 17.1935 4.52181 17.2279 4.72181L17.7342 7.97494L21.0185 7.74369C21.2217 7.72806 21.4154 7.84056 21.5029 8.02494C21.5904 8.20931 21.5592 8.42806 21.4217 8.58119L19.1904 10.9999L21.4185 13.4218C21.556 13.5718 21.5904 13.7937 21.4998 13.9781C21.4092 14.1624 21.2185 14.2749 21.0154 14.2593L17.731 14.0281L17.2279 17.2812C17.1967 17.4843 17.0435 17.6468 16.8435 17.6906C16.6435 17.7343 16.4373 17.6562 16.3217 17.4874L14.456 14.7781L11.5998 16.4093C11.4217 16.5124 11.1998 16.4937 11.0404 16.3656C10.881 16.2374 10.8154 16.0249 10.8748 15.8281L10.8717 15.8312ZM11.756 12.6531C11.4654 12.9937 10.9685 13.1031 10.5498 12.8937L8.49042 11.8656L5.8123 10.5249L2.55292 8.89369C2.05917 8.64681 1.85917 8.04681 2.10605 7.55306L3.35605 5.05306C3.5248 4.71244 3.87167 4.49994 4.2498 4.49994H7.9998C8.15605 4.49994 8.30917 4.53744 8.44667 4.60619L10.8904 5.82806L13.4467 7.10619C13.9404 7.35306 14.1404 7.95306 13.8935 8.44681L11.8935 12.4468C11.856 12.5218 11.8092 12.5906 11.756 12.6531ZM5.3623 11.4187L8.04667 12.7593L4.84042 19.1718C4.46855 19.9124 3.56855 20.2124 2.82792 19.8437C2.0873 19.4749 1.7873 18.5687 2.15917 17.8281L5.3623 11.4187Z" fill="black"/>
</svg>
