<svg width="24" height="24" viewBox="0 0 24 24" fill="none" xmlns="http://www.w3.org/2000/svg">
<path d="M3.21243 4.15943C2.88743 3.90318 2.41556 3.96255 2.15931 4.28755C1.90306 4.61255 1.96243 5.08443 2.28743 5.34068L20.7874 19.8407C21.1124 20.0969 21.5843 20.0376 21.8406 19.7126C22.0968 19.3876 22.0374 18.9157 21.7124 18.6594L17.4937 15.3532C17.4593 15.0001 17.2968 14.6563 17.0156 14.3938L12.8218 10.5501L12.0906 11.1188L11.2781 10.4844L13.6906 8.6063C13.9093 8.43755 14.2218 8.47505 14.3937 8.6938C14.5656 8.91255 14.5249 9.22505 14.3062 9.39693L13.6531 9.90318L19.1937 15.0001H20.4999C21.3281 15.0001 21.9999 14.3282 21.9999 13.5001V9.50005C21.9999 8.67193 21.3281 8.00005 20.4999 8.00005H18.1249H17.9999H17.9781L17.8562 7.92193L15.5874 6.4688C15.1093 6.16255 14.5499 6.00005 13.9812 6.00005C13.2999 6.00005 12.6374 6.23443 12.1062 6.66255L9.30306 8.9313L8.49681 8.29693L11.0531 6.22818C10.6906 6.07505 10.2999 5.99693 9.90306 5.99693C9.31243 6.00005 8.74056 6.17505 8.24993 6.50005L7.14056 7.24068L3.21243 4.15943ZM14.9249 17.1844L3.28743 8.01568C2.55931 8.1188 1.99993 8.7438 1.99993 9.50005V13.5001C1.99993 14.3282 2.67181 15.0001 3.49993 15.0001H6.88118L9.73743 17.6063C10.3499 18.1657 11.2968 18.1219 11.8562 17.5094C12.0281 17.3188 12.1437 17.0969 12.2031 16.8657L12.7343 17.3532C13.3437 17.9126 14.2937 17.8719 14.8531 17.2626C14.8781 17.2376 14.8999 17.2094 14.9218 17.1813L14.9249 17.1844Z" fill="black"/>
</svg>
