<svg width="24" height="24" viewBox="0 0 24 24" fill="none" xmlns="http://www.w3.org/2000/svg">
<path d="M5 11.5C5 7.46875 7 4 12 4C17 4 19 7.46875 19 11.5C19 17.5 17.5 20 12 20C6.5 20 5 17.5 5 11.5ZM10 7.25C10.1989 7.25 10.3897 7.17098 10.5303 7.03033C10.671 6.88968 10.75 6.69891 10.75 6.5C10.75 6.30109 10.671 6.11032 10.5303 5.96967C10.3897 5.82902 10.1989 5.75 10 5.75C9.80109 5.75 9.61032 5.82902 9.46967 5.96967C9.32902 6.11032 9.25 6.30109 9.25 6.5C9.25 6.69891 9.32902 6.88968 9.46967 7.03033C9.61032 7.17098 9.80109 7.25 10 7.25ZM12.75 8C12.75 7.80109 12.671 7.61032 12.5303 7.46967C12.3897 7.32902 12.1989 7.25 12 7.25C11.8011 7.25 11.6103 7.32902 11.4697 7.46967C11.329 7.61032 11.25 7.80109 11.25 8C11.25 8.19891 11.329 8.38968 11.4697 8.53033C11.6103 8.67098 11.8011 8.75 12 8.75C12.1989 8.75 12.3897 8.67098 12.5303 8.53033C12.671 8.38968 12.75 8.19891 12.75 8ZM10.5 14.75C10.6989 14.75 10.8897 14.671 11.0303 14.5303C11.171 14.3897 11.25 14.1989 11.25 14C11.25 13.8011 11.171 13.6103 11.0303 13.4697C10.8897 13.329 10.6989 13.25 10.5 13.25C10.3011 13.25 10.1103 13.329 9.96967 13.4697C9.82902 13.6103 9.75 13.8011 9.75 14C9.75 14.1989 9.82902 14.3897 9.96967 14.5303C10.1103 14.671 10.3011 14.75 10.5 14.75ZM10.5 16.75C10.6989 16.75 10.8897 16.671 11.0303 16.5303C11.171 16.3897 11.25 16.1989 11.25 16C11.25 15.8011 11.171 15.6103 11.0303 15.4697C10.8897 15.329 10.6989 15.25 10.5 15.25C10.3011 15.25 10.1103 15.329 9.96967 15.4697C9.82902 15.6103 9.75 15.8011 9.75 16C9.75 16.1989 9.82902 16.3897 9.96967 16.5303C10.1103 16.671 10.3011 16.75 10.5 16.75ZM11.25 18C11.25 17.9015 11.2306 17.804 11.1929 17.713C11.1552 17.622 11.1 17.5393 11.0303 17.4697C10.9607 17.4 10.878 17.3448 10.787 17.3071C10.696 17.2694 10.5985 17.25 10.5 17.25C10.4015 17.25 10.304 17.2694 10.213 17.3071C10.122 17.3448 10.0393 17.4 9.96967 17.4697C9.90003 17.5393 9.84478 17.622 9.80709 17.713C9.7694 17.804 9.75 17.9015 9.75 18C9.75 18.0985 9.7694 18.196 9.80709 18.287C9.84478 18.378 9.90003 18.4607 9.96967 18.5303C10.0393 18.6 10.122 18.6552 10.213 18.6929C10.304 18.7306 10.4015 18.75 10.5 18.75C10.5985 18.75 10.696 18.7306 10.787 18.6929C10.878 18.6552 10.9607 18.6 11.0303 18.5303C11.1 18.4607 11.1552 18.378 11.1929 18.287C11.2306 18.196 11.25 18.0985 11.25 18ZM13.5 14.75C13.6989 14.75 13.8897 14.671 14.0303 14.5303C14.171 14.3897 14.25 14.1989 14.25 14C14.25 13.8011 14.171 13.6103 14.0303 13.4697C13.8897 13.329 13.6989 13.25 13.5 13.25C13.3011 13.25 13.1103 13.329 12.9697 13.4697C12.829 13.6103 12.75 13.8011 12.75 14C12.75 14.1989 12.829 14.3897 12.9697 14.5303C13.1103 14.671 13.3011 14.75 13.5 14.75ZM14.75 6.5C14.75 6.30109 14.671 6.11032 14.5303 5.96967C14.3897 5.82902 14.1989 5.75 14 5.75C13.8011 5.75 13.6103 5.82902 13.4697 5.96967C13.329 6.11032 13.25 6.30109 13.25 6.5C13.25 6.69891 13.329 6.88968 13.4697 7.03033C13.6103 7.17098 13.8011 7.25 14 7.25C14.1989 7.25 14.3897 7.17098 14.5303 7.03033C14.671 6.88968 14.75 6.69891 14.75 6.5ZM13.5 16.75C13.6989 16.75 13.8897 16.671 14.0303 16.5303C14.171 16.3897 14.25 16.1989 14.25 16C14.25 15.8011 14.171 15.6103 14.0303 15.4697C13.8897 15.329 13.6989 15.25 13.5 15.25C13.3011 15.25 13.1103 15.329 12.9697 15.4697C12.829 15.6103 12.75 15.8011 12.75 16C12.75 16.1989 12.829 16.3897 12.9697 16.5303C13.1103 16.671 13.3011 16.75 13.5 16.75ZM14.25 18C14.25 17.8011 14.171 17.6103 14.0303 17.4697C13.8897 17.329 13.6989 17.25 13.5 17.25C13.3011 17.25 13.1103 17.329 12.9697 17.4697C12.829 17.6103 12.75 17.8011 12.75 18C12.75 18.1989 12.829 18.3897 12.9697 18.5303C13.1103 18.671 13.3011 18.75 13.5 18.75C13.6989 18.75 13.8897 18.671 14.0303 18.5303C14.171 18.3897 14.25 18.1989 14.25 18ZM9 12.5C10.1031 12.5 11 11.6031 11 10.5C11 9.94688 10.5531 9.5 10 9.5H8C7.44688 9.5 7 9.94688 7 10.5C7 11.6031 7.89687 12.5 9 12.5ZM17 10.5C17 9.94688 16.5531 9.5 16 9.5H14C13.4469 9.5 13 9.94688 13 10.5C13 11.6031 13.8969 12.5 15 12.5C16.1031 12.5 17 11.6031 17 10.5Z" fill="black"/>
</svg>
