<svg width="24" height="24" viewBox="0 0 24 24" fill="none" xmlns="http://www.w3.org/2000/svg">
<path d="M6 5C6 4.44687 6.44687 4 7 4H19C19.5531 4 20 4.44687 20 5C20 5.55313 19.5531 6 19 6H14V8H15C17.7625 8 20 10.2375 20 13V15C20 15.5531 19.5531 16 19 16H14H12C11.3719 16 10.7781 15.7031 10.4 15.2L8.16875 12.225C8.05937 12.0781 7.90937 11.9656 7.74062 11.8969L3.475 10.1906C3.17812 10.0719 2.95312 9.81563 2.875 9.50313L2.15625 6.62188C2.075 6.30625 2.31562 6 2.64062 6H3.5C3.81562 6 4.1125 6.14688 4.3 6.4L5.5 8H12V6H7C6.44687 6 6 5.55313 6 5ZM14 14H18V13C18 11.3438 16.6562 10 15 10H14V14ZM21.7062 17.2937C22.0969 17.6844 22.0969 18.3188 21.7062 18.7094L21.5844 18.8313C20.8344 19.5813 19.8156 20.0031 18.7562 20.0031H10C9.44687 20.0031 9 19.5563 9 19.0031C9 18.45 9.44687 18.0031 10 18.0031H18.7562C19.2875 18.0031 19.7969 17.7937 20.1719 17.4187L20.2937 17.2969C20.6844 16.9062 21.3187 16.9062 21.7094 17.2969L21.7062 17.2937Z" fill="black"/>
</svg>
