<svg width="24" height="24" viewBox="0 0 24 24" fill="none" xmlns="http://www.w3.org/2000/svg">
<path d="M8.66563 5.0137C9.20937 5.10432 9.57812 5.61994 9.4875 6.16369L9.18125 8.00119H12.1531L12.5125 5.83557C12.6031 5.29182 13.1188 4.92307 13.6625 5.0137C14.2063 5.10432 14.575 5.61994 14.4844 6.16369L14.1812 8.00119H16C16.5531 8.00119 17 8.44807 17 9.00119C17 9.01369 17 9.0262 17 9.03557C16.2469 9.14495 15.5688 9.49182 15.05 10.0012H13.8469L13.1812 14.0012H13.2688C13.1 14.2949 13 14.6356 13 15.0012V16.0012H12.8469L12.4875 18.1668C12.3969 18.7106 11.8812 19.0793 11.3375 18.9887C10.7937 18.8981 10.425 18.3824 10.5156 17.8387L10.8219 16.0043H7.84688L7.4875 18.1699C7.39688 18.7137 6.88125 19.0824 6.3375 18.9918C5.79375 18.9012 5.425 18.3856 5.51562 17.8418L5.81875 16.0012H4C3.44687 16.0012 3 15.5543 3 15.0012C3 14.4481 3.44687 14.0012 4 14.0012H6.15313L6.81875 10.0012H5C4.44687 10.0012 4 9.55432 4 9.00119C4 8.44807 4.44687 8.00119 5 8.00119H7.15312L7.5125 5.83557C7.60312 5.29182 8.11875 4.92307 8.6625 5.0137H8.66563ZM8.84688 10.0012L8.18125 14.0012H11.1531L11.8188 10.0012H8.84688ZM17.5 11.5012C16.9469 11.5012 16.5 11.9481 16.5 12.5012V14.0012H18.5V12.5012C18.5 11.9481 18.0531 11.5012 17.5 11.5012ZM15 12.5012C15 11.1199 16.1187 10.0012 17.5 10.0012C18.8813 10.0012 20 11.1199 20 12.5012V14.0012C20.5531 14.0012 21 14.4481 21 15.0012V19.0012C21 19.5543 20.5531 20.0012 20 20.0012H15C14.4469 20.0012 14 19.5543 14 19.0012V15.0012C14 14.4481 14.4469 14.0012 15 14.0012V12.5012Z" fill="black"/>
</svg>
