<svg width="24" height="24" viewBox="0 0 24 24" fill="none" xmlns="http://www.w3.org/2000/svg">
<path d="M14.7188 5.46873C15.0126 5.17498 15.4876 5.17498 15.7782 5.46873L16.3157 6.00623C16.3751 6.0031 16.4376 5.99998 16.4969 5.99998H17.4969C17.8469 5.99998 18.1813 6.07185 18.4844 6.2031L18.9688 5.71873C19.2626 5.42498 19.7376 5.42498 20.0282 5.71873C20.3188 6.01248 20.3219 6.48748 20.0282 6.7781L19.6251 7.18435C19.8626 7.5656 20.0001 8.01873 20.0001 8.49998C20.0001 8.81873 20.2313 9.08748 20.5219 9.21873C21.3938 9.60935 22.0001 10.4844 22.0001 11.5C22.0001 12.3187 21.6063 13.0437 21.0001 13.5V14.5C21.0001 14.775 20.7751 15 20.5001 15H19.5001C19.2251 15 19.0001 14.775 19.0001 14.5V14H17.0001V14.5C17.0001 14.775 16.7751 15 16.5001 15H15.5001C15.2251 15 15.0001 14.775 15.0001 14.5V13.95C14.6313 13.875 14.2907 13.7187 14.0001 13.5C13.9532 13.4656 13.9094 13.4281 13.8657 13.3906C13.3344 12.9312 13.0001 12.2531 13.0001 11.5C13.0001 11.225 12.7751 11 12.5001 11C12.2251 11 12.0001 11.225 12.0001 11.5C12.0001 12.8969 12.8188 14.1 14.0001 14.6625V15C14.0001 15.5531 14.4469 16 15.0001 16H16.0001V18C16.0001 18.5531 15.5532 19 15.0001 19H13.0001C12.4469 19 12.0001 18.5531 12.0001 18V15.625C11.3813 15.8656 10.7063 16 10.0001 16C9.29381 16 8.61881 15.8656 8.00006 15.625V18C8.00006 18.5531 7.55318 19 7.00006 19H5.00006C4.44694 19 4.00006 18.5531 4.00006 18V14.2844L3.43444 15.5531C3.26569 15.9312 2.82194 16.1031 2.44381 15.9344C2.06569 15.7656 1.89694 15.325 2.06569 14.9468L2.75006 13.4031C2.91569 13.0312 3.00006 12.6312 3.00006 12.225C3.00006 8.8656 5.66256 6.12498 8.99381 6.0031L9.00006 5.99998H9.22506H10.0001H11.0001C12.3032 5.99998 13.6063 6.3781 14.6626 6.8031C14.7157 6.74685 14.7719 6.6906 14.8282 6.6406L14.7188 6.53123C14.4251 6.23748 14.4251 5.76248 14.7188 5.47185V5.46873ZM17.0001 11.25C17.0001 11.0511 16.921 10.8603 16.7804 10.7196C16.6397 10.579 16.449 10.5 16.2501 10.5C16.0511 10.5 15.8604 10.579 15.7197 10.7196C15.5791 10.8603 15.5001 11.0511 15.5001 11.25C15.5001 11.4489 15.5791 11.6397 15.7197 11.7803C15.8604 11.921 16.0511 12 16.2501 12C16.449 12 16.6397 11.921 16.7804 11.7803C16.921 11.6397 17.0001 11.4489 17.0001 11.25ZM19.7501 12C19.949 12 20.1397 11.921 20.2804 11.7803C20.421 11.6397 20.5001 11.4489 20.5001 11.25C20.5001 11.0511 20.421 10.8603 20.2804 10.7196C20.1397 10.579 19.949 10.5 19.7501 10.5C19.5511 10.5 19.3604 10.579 19.2197 10.7196C19.0791 10.8603 19.0001 11.0511 19.0001 11.25C19.0001 11.4489 19.0791 11.6397 19.2197 11.7803C19.3604 11.921 19.5511 12 19.7501 12ZM17.0001 8.49998C17.0001 8.36737 16.9474 8.24019 16.8536 8.14642C16.7598 8.05265 16.6327 7.99998 16.5001 7.99998C16.3675 7.99998 16.2403 8.05265 16.1465 8.14642C16.0527 8.24019 16.0001 8.36737 16.0001 8.49998C16.0001 8.63258 16.0527 8.75976 16.1465 8.85353C16.2403 8.9473 16.3675 8.99998 16.5001 8.99998C16.6327 8.99998 16.7598 8.9473 16.8536 8.85353C16.9474 8.75976 17.0001 8.63258 17.0001 8.49998ZM18.5001 8.99998C18.6327 8.99998 18.7598 8.9473 18.8536 8.85353C18.9474 8.75976 19.0001 8.63258 19.0001 8.49998C19.0001 8.36737 18.9474 8.24019 18.8536 8.14642C18.7598 8.05265 18.6327 7.99998 18.5001 7.99998C18.3675 7.99998 18.2403 8.05265 18.1465 8.14642C18.0527 8.24019 18.0001 8.36737 18.0001 8.49998C18.0001 8.63258 18.0527 8.75976 18.1465 8.85353C18.2403 8.9473 18.3675 8.99998 18.5001 8.99998Z" fill="black"/>
</svg>
