<svg width="24" height="24" viewBox="0 0 24 24" fill="none" xmlns="http://www.w3.org/2000/svg">
<path d="M12.0219 15C12.275 12.1969 14.6312 10 17.5 10C17.7781 10 18.05 10.0219 18.3156 10.0594L11.6719 4.21875C11.4844 4.0625 11.2344 4 11.0156 4C10.7969 4 10.5469 4.03125 10.3281 4.25L2.3125 11.2344C2.09375 11.4531 2 11.7031 2 11.9844C2 12.5469 2.4375 12.9875 3 12.9875H4V15.1656C3.99687 15.1937 3.99688 15.2219 3.99688 15.2531V18.75C3.99688 19.4406 4.55625 20 5.24688 20H5.74688C5.78438 20 5.82187 19.9969 5.85938 19.9937C5.90625 19.9969 5.95312 20 6 20H7H7.75C8.44063 20 9 19.4406 9 18.75V18V16C9 15.4469 9.44687 15 10 15H12H12.0219ZM22 15.5C22 14.3065 21.5259 13.1619 20.682 12.318C19.8381 11.4741 18.6935 11 17.5 11C16.3065 11 15.1619 11.4741 14.318 12.318C13.4741 13.1619 13 14.3065 13 15.5C13 16.6935 13.4741 17.8381 14.318 18.682C15.1619 19.5259 16.3065 20 17.5 20C18.6935 20 19.8381 19.5259 20.682 18.682C21.5259 17.8381 22 16.6935 22 15.5ZM19.6031 14.1469C19.7969 14.3406 19.7969 14.6594 19.6031 14.8531L17.3531 17.1031C17.1594 17.2969 16.8406 17.2969 16.6469 17.1031L15.3969 15.8531C15.2031 15.6594 15.2031 15.3406 15.3969 15.1469C15.5906 14.9531 15.9094 14.9531 16.1031 15.1469L17 16.0437L18.8969 14.1469C19.0906 13.9531 19.4094 13.9531 19.6031 14.1469Z" fill="black"/>
</svg>
