<svg width="24" height="24" viewBox="0 0 24 24" fill="none" xmlns="http://www.w3.org/2000/svg">
<path d="M13.5 4C12.6719 4 12 4.67188 12 5.5V8.80937L14 10.6438V10.5C14 10.225 14.225 10 14.5 10H15.5C15.775 10 16 10.225 16 10.5V11.5C16 11.775 15.775 12 15.5 12H14.9125C14.9719 12.2125 15 12.4344 15 12.6594V13H15.5C15.775 13 16 13.225 16 13.5V14.5C16 14.775 15.775 15 15.5 15H15V18.5C15 19.0625 14.8125 19.5813 14.5 20H20.5C21.3281 20 22 19.3281 22 18.5V5.5C22 4.67188 21.3281 4 20.5 4H13.5ZM18 10.5C18 10.225 18.225 10 18.5 10H19.5C19.775 10 20 10.225 20 10.5V11.5C20 11.775 19.775 12 19.5 12H18.5C18.225 12 18 11.775 18 11.5V10.5ZM18.5 13H19.5C19.775 13 20 13.225 20 13.5V14.5C20 14.775 19.775 15 19.5 15H18.5C18.225 15 18 14.775 18 14.5V13.5C18 13.225 18.225 13 18.5 13ZM14.5 7H15.5C15.775 7 16 7.225 16 7.5V8.5C16 8.775 15.775 9 15.5 9H14.5C14.225 9 14 8.775 14 8.5V7.5C14 7.225 14.225 7 14.5 7ZM18 7.5C18 7.225 18.225 7 18.5 7H19.5C19.775 7 20 7.225 20 7.5V8.5C20 8.775 19.775 9 19.5 9H18.5C18.225 9 18 8.775 18 8.5V7.5ZM2 12.6594V18.5C2 19.3281 2.67188 20 3.5 20H12.5C13.3281 20 14 19.3281 14 18.5V12.6594C14 12.2375 13.825 11.8375 13.5125 11.5531L9.0125 7.42812C8.4375 6.90312 7.55937 6.90312 6.98438 7.42812L2.48438 11.5531C2.175 11.8375 2 12.2406 2 12.6594ZM6.5 13.25C6.5 12.8344 6.83437 12.5 7.25 12.5H8.75C9.16563 12.5 9.5 12.8344 9.5 13.25V14.75C9.5 15.1656 9.16563 15.5 8.75 15.5H7.25C6.83437 15.5 6.5 15.1656 6.5 14.75V13.25Z" fill="black"/>
</svg>
