<svg width="24" height="24" viewBox="0 0 24 24" fill="none" xmlns="http://www.w3.org/2000/svg">
<path d="M12.75 4.75V5.07812C12.95 5.11563 13.1438 5.1625 13.3188 5.20938C13.7188 5.31563 13.9563 5.72812 13.85 6.12812C13.7438 6.52813 13.3312 6.76562 12.9312 6.65937C12.5906 6.56875 12.2719 6.50625 11.9875 6.50312C11.7594 6.5 11.5281 6.55625 11.3813 6.64062C11.3156 6.68125 11.2844 6.71563 11.2719 6.73438C11.2625 6.75 11.25 6.77188 11.25 6.82188C11.25 6.83125 11.25 6.8375 11.25 6.84063C11.2563 6.84687 11.2781 6.87812 11.3531 6.92188C11.5344 7.03125 11.8031 7.11562 12.2094 7.2375L12.2375 7.24688C12.5844 7.35 13.0469 7.49062 13.4219 7.725C13.85 7.99375 14.2375 8.44063 14.2469 9.12813C14.2562 9.83125 13.8906 10.3438 13.4125 10.6438C13.2031 10.7719 12.9781 10.8625 12.7469 10.9187V11.25C12.7469 11.6656 12.4125 12 11.9969 12C11.5813 12 11.2469 11.6656 11.2469 11.25V10.8938C10.95 10.8219 10.6781 10.7281 10.4469 10.65C10.3812 10.6281 10.3187 10.6063 10.2625 10.5875C9.86875 10.4563 9.65625 10.0312 9.7875 9.6375C9.91875 9.24375 10.3438 9.03125 10.7375 9.1625C10.8188 9.19062 10.8938 9.21562 10.9656 9.24062C11.3906 9.38438 11.6969 9.4875 12.025 9.5C12.275 9.50938 12.4969 9.45 12.625 9.37187C12.6844 9.33437 12.7125 9.30312 12.725 9.28125C12.7375 9.2625 12.7531 9.225 12.75 9.15312V9.14687C12.75 9.11562 12.75 9.08125 12.625 9.00313C12.4469 8.89062 12.1781 8.80312 11.7781 8.68125L11.7188 8.6625C11.3813 8.5625 10.9375 8.42812 10.5813 8.2125C10.1594 7.95938 9.75313 7.525 9.75 6.83437C9.74687 6.11875 10.1531 5.62812 10.6156 5.35312C10.8156 5.23438 11.0312 5.15312 11.2469 5.09687V4.75C11.2469 4.33437 11.5813 4 11.9969 4C12.4125 4 12.7469 4.33437 12.7469 4.75H12.75ZM3.25 6C3.94062 6 4.5 6.55938 4.5 7.25V8.5V11V12.2563C4.5 12.7875 4.70937 13.2969 5.08437 13.6719L6.68125 15.2688C6.94063 15.5281 7.34688 15.5688 7.65 15.3656C8.05312 15.0969 8.10938 14.525 7.76562 14.1844L7.29063 13.7094L6.29063 12.7094C5.9 12.3188 5.9 11.6844 6.29063 11.2937C6.68125 10.9031 7.31563 10.9031 7.70625 11.2937L8.70625 12.2937L9.18125 12.7688L9.97188 13.5594C10.6281 14.2156 10.9969 15.1062 10.9969 16.0344V18.5C10.9969 19.3281 10.325 20 9.49687 20H7.41563C6.88438 20 6.375 19.7906 6 19.4156L2.87813 16.2937C2.31563 15.7312 2 14.9688 2 14.1719V11V9V7.25C2 6.55938 2.55937 6 3.25 6ZM20.75 6C21.4406 6 22 6.55938 22 7.25V9V11V14.1719C22 14.9688 21.6844 15.7312 21.1219 16.2937L18 19.4156C17.625 19.7906 17.1156 20 16.5844 20H14.5C13.6719 20 13 19.3281 13 18.5V16.0344C13 15.1062 13.3687 14.2156 14.025 13.5594L14.8156 12.7688L15.2906 12.2937L16.2906 11.2937C16.6812 10.9031 17.3156 10.9031 17.7063 11.2937C18.0969 11.6844 18.0969 12.3188 17.7063 12.7094L16.7063 13.7094L16.2312 14.1844C15.8875 14.5281 15.9438 15.0969 16.3469 15.3656C16.65 15.5688 17.0563 15.5281 17.3156 15.2688L18.9125 13.6719C19.2875 13.2969 19.4969 12.7875 19.4969 12.2563V11V8.5V7.25C19.4969 6.55938 20.0563 6 20.7469 6H20.75Z" fill="black"/>
</svg>
