<svg width="24" height="24" viewBox="0 0 24 24" fill="none" xmlns="http://www.w3.org/2000/svg">
<path d="M4.5344 10.875C4.13127 11.5719 4.13127 12.4282 4.5344 13.125L7.29377 17.9032C7.6969 18.6 8.43752 19.0282 9.24377 19.0282H14.7594C15.5625 19.0282 16.3063 18.6 16.7094 17.9032L19.4656 13.125C19.8688 12.4282 19.8688 11.5719 19.4656 10.875L16.7063 6.09692C16.3031 5.40005 15.5625 4.97192 14.7563 4.97192H9.24065C8.43752 4.97192 7.69377 5.40005 7.29065 6.09692L4.5344 10.875ZM8.9469 12.7438C9.08752 12.5907 9.2844 12.5032 9.49065 12.5C9.6969 12.4969 9.8969 12.5813 10.0406 12.7313L11.2563 14L13.4938 11.3063C13.6375 11.1344 13.8469 11.0344 14.0719 11.0344C14.2969 11.0344 14.5063 11.1344 14.65 11.3063L16.9188 14.0375L15.1938 17.0282C15.1032 17.1844 14.9406 17.2782 14.7594 17.2782H9.24065C9.06252 17.2782 8.8969 17.1844 8.80627 17.0282L7.34377 14.4969L8.94377 12.7438H8.9469ZM10 7.75005C10.3315 7.75005 10.6495 7.88174 10.8839 8.11617C11.1183 8.35059 11.25 8.66853 11.25 9.00005C11.25 9.33157 11.1183 9.64951 10.8839 9.88393C10.6495 10.1184 10.3315 10.25 10 10.25C9.6685 10.25 9.35056 10.1184 9.11614 9.88393C8.88172 9.64951 8.75002 9.33157 8.75002 9.00005C8.75002 8.66853 8.88172 8.35059 9.11614 8.11617C9.35056 7.88174 9.6685 7.75005 10 7.75005Z" fill="black"/>
</svg>
