<svg width="24" height="24" viewBox="0 0 24 24" fill="none" xmlns="http://www.w3.org/2000/svg">
<path d="M11.2937 4.29376L8.29375 7.29376C7.90312 7.68439 7.90312 8.31876 8.29375 8.70939L11.2937 11.7094C11.6844 12.1 12.3188 12.1 12.7094 11.7094L15.7094 8.70939C16.1 8.31876 16.1 7.68439 15.7094 7.29376L12.7094 4.29376C12.3188 3.90314 11.6844 3.90314 11.2937 4.29376ZM4.5 7.25001C4.5 6.55939 3.94062 6.00001 3.25 6.00001C2.55937 6.00001 2 6.55939 2 7.25001V9.00001V11V14.1719C2 14.9688 2.31563 15.7313 2.87813 16.2938L6 19.4156C6.375 19.7906 6.88438 20 7.41563 20H9.5C10.3281 20 11 19.3281 11 18.5V16.0344C11 15.1063 10.6313 14.2156 9.975 13.5594L9.18437 12.7688L8.70937 12.2938L7.70937 11.2938C7.31875 10.9031 6.68437 10.9031 6.29375 11.2938C5.90312 11.6844 5.90312 12.3188 6.29375 12.7094L7.29375 13.7094L7.76875 14.1844C8.1125 14.5281 8.05625 15.0969 7.65312 15.3656C7.35 15.5688 6.94375 15.5281 6.68437 15.2688L5.08437 13.6719C4.70937 13.2969 4.5 12.7875 4.5 12.2563V11V8.50001V7.25001ZM19.5 7.25001V8.50001V11V12.2563C19.5 12.7875 19.2906 13.2969 18.9156 13.6719L17.3188 15.2688C17.0594 15.5281 16.6531 15.5688 16.35 15.3656C15.9469 15.0969 15.8906 14.525 16.2344 14.1844L16.7094 13.7094L17.7094 12.7094C18.1 12.3188 18.1 11.6844 17.7094 11.2938C17.3188 10.9031 16.6844 10.9031 16.2937 11.2938L15.2937 12.2938L14.8188 12.7688L14.0281 13.5594C13.3719 14.2156 13.0031 15.1063 13.0031 16.0344V18.5C13.0031 19.3281 13.675 20 14.5031 20H16.5875C17.1187 20 17.6281 19.7906 18.0031 19.4156L21.125 16.2938C21.6875 15.7313 22.0031 14.9688 22.0031 14.1719V11V9.00001V7.25001C22.0031 6.55939 21.4437 6.00001 20.7531 6.00001C20.0625 6.00001 19.5031 6.55939 19.5031 7.25001H19.5Z" fill="black"/>
</svg>
