<svg width="24" height="24" viewBox="0 0 24 24" fill="none" xmlns="http://www.w3.org/2000/svg">
<path d="M12 6.5C8.68437 6.5 5.95 8.98125 5.55 12.1875C5.84375 12.0687 6.1625 12 6.5 12C7.32812 12 8 12.6719 8 13.5V17.5C8 18.3281 7.32812 19 6.5 19C5.11875 19 4 17.8813 4 16.5V16V14.5V13C4 8.58125 7.58125 5 12 5C16.4187 5 20 8.58125 20 13V14.5V16V16.5C20 17.8813 18.8813 19 17.5 19C16.6719 19 16 18.3281 16 17.5V13.5C16 12.6719 16.6719 12 17.5 12C17.8375 12 18.1562 12.0656 18.45 12.1875C18.05 8.98125 15.3156 6.5 12 6.5Z" fill="black"/>
</svg>
