<svg width="24" height="24" viewBox="0 0 24 24" fill="none" xmlns="http://www.w3.org/2000/svg">
<path d="M11.0001 4C11.5532 4 12.0001 4.44687 12.0001 5V11.5H10.0001V5C10.0001 4.44687 10.4469 4 11.0001 4ZM14.0001 9C14.5532 9 15.0001 9.44687 15.0001 10V12C15.0001 12.5531 14.5532 13 14.0001 13C13.4469 13 13.0001 12.5531 13.0001 12V10C13.0001 9.44687 13.4469 9 14.0001 9ZM16.0001 11C16.0001 10.4469 16.4469 10 17.0001 10C17.5532 10 18.0001 10.4469 18.0001 11V13C18.0001 13.5531 17.5532 14 17.0001 14C16.4469 14 16.0001 13.5531 16.0001 13V11ZM6.91568 5.6L9.49693 11.5H7.31568L5.08443 6.4C4.86255 5.89375 5.0938 5.30625 5.60005 5.08438C6.1063 4.8625 6.69693 5.09375 6.91568 5.6ZM7.75943 12.5156L7.75318 12.5H9.93755H10.7501C11.4407 12.5 12.0001 13.0594 12.0001 13.75C12.0001 14.4406 11.4407 15 10.7501 15H9.00005C8.72505 15 8.50005 15.225 8.50005 15.5C8.50005 15.775 8.72505 16 9.00005 16H10.7501C11.9938 16 13.0001 14.9937 13.0001 13.75V13.7312C13.2938 13.9 13.6344 14 14.0001 14C14.4126 14 14.7938 13.875 15.1126 13.6625C15.3844 14.4406 16.1282 15 17.0001 15C17.3657 15 17.7063 14.9031 18.0001 14.7312V15C18.0001 17.7625 15.7626 20 13.0001 20H11.0719C9.74693 20 8.47505 19.4719 7.53755 18.5344L7.17505 18.1719C6.42193 17.4219 6.00005 16.4031 6.00005 15.3438V14.5C6.00005 13.4781 6.7688 12.6344 7.75943 12.5156Z" fill="black"/>
</svg>
