<svg width="24" height="24" viewBox="0 0 24 24" fill="none" xmlns="http://www.w3.org/2000/svg">
<path d="M12.975 4.15C13.075 4.0875 13.1813 4.04687 13.2875 4.02187C13.4344 3.99062 13.5875 3.99375 13.7281 4.025C13.9688 4.08125 14.1906 4.22812 14.3344 4.45L18.0812 10.0687C18.3562 10.4781 18.5 10.9625 18.5 11.4562V13.7531C18.5 13.9687 18.6375 14.1594 18.8406 14.2281L21.3156 15.0531C21.725 15.1875 22 15.5687 22 16V19C22 19.3094 21.8563 19.6031 21.6094 19.7937C21.3625 19.9844 21.0437 20.0469 20.7437 19.9656L15.4688 18.5594C13.7188 18.0937 12.5 16.5062 12.5 14.6937V11C12.5 10.4469 12.9469 10 13.5 10C14.0531 10 14.5 10.4469 14.5 11V13.5C14.5 13.775 14.725 14 15 14C15.275 14 15.5 13.775 15.5 13.5V10.8469C15.5 10.6281 15.4438 10.4156 15.3344 10.2281L12.6344 5.50312C12.5812 5.40937 12.5438 5.3125 12.5219 5.2125C12.4906 5.06562 12.4906 4.9125 12.525 4.77187C12.5844 4.52187 12.7375 4.29687 12.9719 4.15H12.975ZM11.025 4.15C11.2594 4.29375 11.4125 4.52187 11.4719 4.77187C11.5063 4.91562 11.5094 5.06562 11.475 5.2125C11.4531 5.3125 11.4156 5.40937 11.3625 5.50312L8.66563 10.2281C8.55625 10.4156 8.5 10.6312 8.5 10.8469V13.5C8.5 13.775 8.725 14 9 14C9.275 14 9.5 13.775 9.5 13.5V11C9.5 10.4469 9.94688 10 10.5 10C11.0531 10 11.5 10.4469 11.5 11V14.6969C11.5 16.5094 10.2812 18.0937 8.53125 18.5625L3.25937 19.9687C2.95937 20.05 2.6375 19.9844 2.39375 19.7969C2.15 19.6094 2 19.3125 2 19V16C2 15.5687 2.275 15.1875 2.68437 15.05L5.15937 14.225C5.3625 14.1562 5.5 13.9656 5.5 13.75V11.4531C5.5 10.9594 5.64688 10.4781 5.91875 10.0656L9.6625 4.45312C9.80625 4.23125 10.0281 4.08437 10.2688 4.02812C10.4125 3.99375 10.5625 3.99062 10.7094 4.025C10.8188 4.05 10.925 4.09062 11.0219 4.15312L11.025 4.15Z" fill="black"/>
</svg>
