<svg width="24" height="24" viewBox="0 0 24 24" fill="none" xmlns="http://www.w3.org/2000/svg">
<path d="M7.4437 4.25939C7.3562 4.10001 7.18745 3.99689 7.00308 3.99689C6.8187 3.99689 6.64995 4.09689 6.56245 4.25939L5.69995 5.85939L3.96245 5.34064C3.78745 5.28751 3.59683 5.33751 3.46558 5.46564C3.33433 5.59376 3.28745 5.78751 3.34058 5.96251L3.86245 7.70314L2.25933 8.56564C2.09683 8.65314 1.99683 8.82189 1.99683 9.00626C1.99683 9.19064 2.09683 9.35939 2.25933 9.44689L3.85933 10.3094L3.33745 12.05C3.28433 12.225 3.33433 12.4156 3.46245 12.5469C3.59058 12.6781 3.78433 12.725 3.95933 12.6719L5.69995 12.15L6.15933 13L7.95308 11.3438C7.65933 11.4656 7.33745 11.5313 6.99995 11.5313C5.6187 11.5313 4.49995 10.4125 4.49995 9.03126C4.49995 7.65001 5.6187 6.53126 6.99995 6.53126C8.3812 6.53126 9.49995 7.65001 9.49995 9.03126C9.49995 9.44064 9.40308 9.82501 9.22808 10.1656L11.25 8.29689L10.1468 7.70314L10.6687 5.96251C10.7218 5.78751 10.6718 5.59689 10.5437 5.46564C10.4156 5.33439 10.2218 5.28751 10.0468 5.34064L8.3062 5.85939L7.4437 4.25939ZM5.49995 9.00001C5.49995 8.60219 5.65799 8.22066 5.93929 7.93935C6.2206 7.65805 6.60213 7.50001 6.99995 7.50001C7.39778 7.50001 7.77931 7.65805 8.06061 7.93935C8.34192 8.22066 8.49995 8.60219 8.49995 9.00001C8.49995 9.39784 8.34192 9.77937 8.06061 10.0607C7.77931 10.342 7.39778 10.5 6.99995 10.5C6.60213 10.5 6.2206 10.342 5.93929 10.0607C5.65799 9.77937 5.49995 9.39784 5.49995 9.00001ZM15.1781 7.26564C14.7937 6.91251 14.2031 6.91251 13.8218 7.26564L7.32183 13.2656C7.0187 13.5438 6.9187 13.9813 7.0687 14.3656C7.2187 14.75 7.58745 15 7.99995 15H8.99995V18.5C8.99995 19.3281 9.67183 20 10.5 20H18.5C19.3281 20 20 19.3281 20 18.5V15H21C21.4125 15 21.7812 14.7469 21.9312 14.3656C22.0812 13.9844 21.9812 13.5469 21.6781 13.2656L15.1781 7.26564ZM13 13.5C13 13.225 13.225 13 13.5 13H15.5C15.775 13 16 13.225 16 13.5V15.5C16 15.775 15.775 16 15.5 16H13.5C13.225 16 13 15.775 13 15.5V13.5Z" fill="black"/>
</svg>
