<svg width="24" height="24" viewBox="0 0 24 24" fill="none" xmlns="http://www.w3.org/2000/svg">
<path d="M9 5H7C6.44687 5 6 5.44687 6 6C6 6.55313 6.44687 7 7 7C5.78437 7.9125 5 9.36563 5 11C5 15.3375 7.4875 17.8094 8.54063 18.6594C8.83125 18.8938 9.2 19 9.575 19H14.425C14.8 19 15.1656 18.8969 15.4594 18.6594C16.5125 17.8094 19 15.3375 19 11C19 9.36563 18.2156 7.9125 17 7C17.5531 7 18 6.55313 18 6C18 5.44687 17.5531 5 17 5H10.5V8.25C10.5 8.66563 10.1656 9 9.75 9C9.33437 9 9 8.66563 9 8.25V5ZM7 11H17C17 12.6781 16.5406 14.0031 15.9719 15H8.02813C7.45938 14.0031 7 12.6781 7 11Z" fill="black"/>
</svg>
