<svg width="24" height="24" viewBox="0 0 24 24" fill="none" xmlns="http://www.w3.org/2000/svg">
<path d="M5.9125 4.50313C6.10625 4.36563 6.08125 4.04063 5.84375 4.01562C5.73125 4.00312 5.61563 4 5.5 4C3.56562 4 2 5.56562 2 7.5C2 9.43438 3.56562 11 5.5 11C6.50312 11 7.40938 10.5781 8.04688 9.9C8.20937 9.725 8.01562 9.4625 7.77812 9.4875C7.6875 9.49688 7.59375 9.5 7.49687 9.5C5.97812 9.5 4.74688 8.26875 4.74688 6.75C4.74688 5.82187 5.20625 5.00313 5.90937 4.50313H5.9125ZM10.2344 4.38438C10.1531 4.16563 9.84687 4.16563 9.76562 4.38438L9.39375 5.39375L8.38438 5.76562C8.16563 5.84687 8.16563 6.15313 8.38438 6.23438L9.39375 6.60625L9.76562 7.61562C9.84687 7.83437 10.1531 7.83437 10.2344 7.61562L10.6062 6.60625L11.6156 6.23438C11.8344 6.15313 11.8344 5.84687 11.6156 5.76562L10.6062 5.39375L10.2344 4.38438ZM15.1781 7.26562C14.7938 6.9125 14.2031 6.9125 13.8219 7.26562L7.32188 13.2656C7.01875 13.5437 6.91875 13.9813 7.06875 14.3656C7.21875 14.75 7.5875 15 8 15H9V18.5C9 19.3281 9.67188 20 10.5 20H18.5C19.3281 20 20 19.3281 20 18.5V15H21C21.4125 15 21.7812 14.7469 21.9312 14.3656C22.0812 13.9844 21.9813 13.5469 21.6781 13.2656L15.1781 7.26562ZM13 13.5C13 13.225 13.225 13 13.5 13H15.5C15.775 13 16 13.225 16 13.5V15.5C16 15.775 15.775 16 15.5 16H13.5C13.225 16 13 15.775 13 15.5V13.5ZM4.76562 14.3844L4.39375 15.3938L3.38437 15.7656C3.16562 15.8469 3.16562 16.1531 3.38437 16.2344L4.39375 16.6062L4.76562 17.6156C4.84687 17.8344 5.15313 17.8344 5.23438 17.6156L5.60625 16.6062L6.61562 16.2344C6.83437 16.1531 6.83437 15.8469 6.61562 15.7656L5.60625 15.3938L5.23438 14.3844C5.15313 14.1656 4.84687 14.1656 4.76562 14.3844Z" fill="black"/>
</svg>
