<svg width="24" height="24" viewBox="0 0 24 24" fill="none" xmlns="http://www.w3.org/2000/svg">
<path d="M7.4437 4.25859C7.3562 4.09922 7.18745 3.99609 7.00308 3.99609C6.8187 3.99609 6.64995 4.09609 6.56245 4.25859L5.69995 5.85859L3.96245 5.33984C3.78745 5.28672 3.59683 5.33672 3.46558 5.46484C3.33433 5.59297 3.28745 5.78672 3.34058 5.96172L3.86245 7.70234L2.25933 8.56484C2.09683 8.65234 1.99683 8.82109 1.99683 9.00547C1.99683 9.18984 2.09683 9.35859 2.25933 9.44609L3.85933 10.3086L3.33745 12.0492C3.28433 12.2242 3.33433 12.4148 3.46245 12.5461C3.59058 12.6773 3.78433 12.7242 3.95933 12.6711L5.69995 12.1492L6.15933 12.9992L7.95308 11.343C7.65933 11.4648 7.33745 11.5305 6.99995 11.5305C5.6187 11.5305 4.49995 10.4117 4.49995 9.03047C4.49995 7.64922 5.6187 6.53047 6.99995 6.53047C8.3812 6.53047 9.49995 7.64922 9.49995 9.03047C9.49995 9.43984 9.40308 9.82422 9.22808 10.1648L11.25 8.29609L10.1468 7.70234L10.6687 5.96172C10.7218 5.78672 10.6718 5.59609 10.5437 5.46484C10.4156 5.33359 10.2218 5.28672 10.0468 5.33984L8.3062 5.85859L7.4437 4.25859ZM5.49995 8.99922C5.49995 8.60139 5.65799 8.21986 5.93929 7.93856C6.2206 7.65725 6.60213 7.49922 6.99995 7.49922C7.39778 7.49922 7.77931 7.65725 8.06061 7.93856C8.34192 8.21986 8.49995 8.60139 8.49995 8.99922C8.49995 9.39704 8.34192 9.77857 8.06061 10.0599C7.77931 10.3412 7.39778 10.4992 6.99995 10.4992C6.60213 10.4992 6.2206 10.3412 5.93929 10.0599C5.65799 9.77857 5.49995 9.39704 5.49995 8.99922ZM15.1781 7.26484C14.7937 6.91172 14.2031 6.91172 13.8218 7.26484L7.32183 13.2648C7.0187 13.543 6.9187 13.9805 7.0687 14.3648C7.2187 14.7492 7.58745 14.9992 7.99995 14.9992H8.99995V18.4992C8.99995 19.3273 9.67183 19.9992 10.5 19.9992H18.5C19.3281 19.9992 20 19.3273 20 18.4992V14.9992H21C21.4125 14.9992 21.7812 14.7461 21.9312 14.3648C22.0812 13.9836 21.9812 13.5461 21.6781 13.2648L15.1781 7.26484ZM13 13.4992C13 13.2242 13.225 12.9992 13.5 12.9992H15.5C15.775 12.9992 16 13.2242 16 13.4992V15.4992C16 15.7742 15.775 15.9992 15.5 15.9992H13.5C13.225 15.9992 13 15.7742 13 15.4992V13.4992Z" fill="black"/>
</svg>
