<svg width="24" height="24" viewBox="0 0 24 24" fill="none" xmlns="http://www.w3.org/2000/svg">
<path d="M4.53428 13.125C4.13115 12.4282 4.13115 11.5719 4.53428 10.875L7.29365 6.09692C7.69678 5.40005 8.4374 4.97192 9.24365 4.97192H14.7593C15.5624 4.97192 16.3062 5.40005 16.7093 6.09692L19.4655 10.875C19.8687 11.5719 19.8687 12.4282 19.4655 13.125L16.7062 17.9032C16.303 18.6 15.5624 19.0282 14.7562 19.0282H9.24053C8.4374 19.0282 7.69365 18.6 7.29053 17.9032L4.53428 13.125ZM11.9999 10C12.2651 10 12.5195 9.89469 12.707 9.70716C12.8945 9.51962 12.9999 9.26526 12.9999 9.00005C12.9999 8.73483 12.8945 8.48048 12.707 8.29294C12.5195 8.10541 12.2651 8.00005 11.9999 8.00005C11.7347 8.00005 11.4803 8.10541 11.2928 8.29294C11.1053 8.48048 10.9999 8.73483 10.9999 9.00005C10.9999 9.26526 11.1053 9.51962 11.2928 9.70716C11.4803 9.89469 11.7347 10 11.9999 10ZM9.2499 11.25C8.83428 11.25 8.4999 11.5844 8.4999 12C8.4999 12.4157 8.83428 12.75 9.2499 12.75H14.7499C15.1655 12.75 15.4999 12.4157 15.4999 12C15.4999 11.5844 15.1655 11.25 14.7499 11.25H9.2499ZM12.9999 15C12.9999 14.7348 12.8945 14.4805 12.707 14.2929C12.5195 14.1054 12.2651 14 11.9999 14C11.7347 14 11.4803 14.1054 11.2928 14.2929C11.1053 14.4805 10.9999 14.7348 10.9999 15C10.9999 15.2653 11.1053 15.5196 11.2928 15.7072C11.4803 15.8947 11.7347 16 11.9999 16C12.2651 16 12.5195 15.8947 12.707 15.7072C12.8945 15.5196 12.9999 15.2653 12.9999 15Z" fill="black"/>
</svg>
