<svg width="24" height="24" viewBox="0 0 24 24" fill="none" xmlns="http://www.w3.org/2000/svg">
<path d="M16.7406 16.5594C17.8094 17.2812 19.275 17.1687 20.2219 16.2219C21.2969 15.1469 21.2969 13.4062 20.2219 12.3344C19.3531 11.4656 18.05 11.3 17.0156 11.8344C16.6469 12.025 16.5031 12.4781 16.6938 12.8438C16.8844 13.2094 17.3375 13.3562 17.7031 13.1656C18.175 12.9219 18.7656 13 19.1594 13.3938C19.6469 13.8813 19.6469 14.6719 19.1594 15.1625C18.6719 15.6531 17.8813 15.65 17.3906 15.1625L14.8375 12.6094C15.5375 12.1656 16 11.3875 16 10.5C16 9.44063 15.3406 8.53437 14.4094 8.17188C14.4688 7.95937 14.5 7.73438 14.5 7.5C14.5 6.11875 13.3813 5 12 5C11.1469 5 10.3906 5.42812 9.94063 6.08125C9.75938 5.45625 9.18437 5 8.5 5C7.67188 5 7 5.67188 7 6.5C7 6.625 7.01562 6.74687 7.04375 6.8625L16.7406 16.5594ZM18 6C18 5.73478 17.8946 5.48043 17.7071 5.29289C17.5196 5.10536 17.2652 5 17 5C16.7348 5 16.4804 5.10536 16.2929 5.29289C16.1054 5.48043 16 5.73478 16 6C16 6.26522 16.1054 6.51957 16.2929 6.70711C16.4804 6.89464 16.7348 7 17 7C17.2652 7 17.5196 6.89464 17.7071 6.70711C17.8946 6.51957 18 6.26522 18 6ZM18 10C18.2652 10 18.5196 9.89464 18.7071 9.70711C18.8946 9.51957 19 9.26522 19 9C19 8.73478 18.8946 8.48043 18.7071 8.29289C18.5196 8.10536 18.2652 8 18 8C17.7348 8 17.4804 8.10536 17.2929 8.29289C17.1054 8.48043 17 8.73478 17 9C17 9.26522 17.1054 9.51957 17.2929 9.70711C17.4804 9.89464 17.7348 10 18 10ZM5.13438 6.71875C4.34688 5.93125 3 6.49063 3 7.60313V17.5C3 18.8813 4.11875 20 5.5 20H15.3969C16.5094 20 17.0688 18.6531 16.2812 17.8656L5.13438 6.71875Z" fill="black"/>
</svg>
