<svg width="24" height="24" viewBox="0 0 24 24" fill="none" xmlns="http://www.w3.org/2000/svg">
<path d="M16.4469 4.10577C16.9406 4.35264 17.1406 4.95264 16.8938 5.44639L10.1719 18.8933C9.83437 19.5714 9.14063 19.9995 8.38438 19.9995H7H6H5V18.9995V14.9995H9.88125L15.1062 4.55264C15.3531 4.05889 15.9531 3.85889 16.4469 4.10577ZM2 15.9995C2 15.4464 2.44687 14.9995 3 14.9995H4V19.9995H3C2.44687 19.9995 2 19.5526 2 18.9995V15.9995ZM15 16.9995H21C21.5531 16.9995 22 17.4464 22 17.9995V18.9995C22 19.5526 21.5531 19.9995 21 19.9995H15C14.4469 19.9995 14 19.5526 14 18.9995V17.9995C14 17.4464 14.4469 16.9995 15 16.9995Z" fill="black"/>
</svg>
