<svg width="24" height="24" viewBox="0 0 24 24" fill="none" xmlns="http://www.w3.org/2000/svg">
<path d="M10.7157 4.74097C10.572 4.2066 10.0251 3.89097 9.49074 4.03472C8.95637 4.17847 8.64074 4.72535 8.78449 5.25972L10.4376 11.4316C10.5157 11.7191 10.297 12.0003 10.0001 12.0003C9.80012 12.0003 9.62512 11.8691 9.56574 11.6785L8.20637 7.20972C8.04699 6.6816 7.48762 6.38472 6.95949 6.5441C6.43137 6.70347 6.13449 7.26285 6.29387 7.79097L8.25637 14.241C8.33137 14.4878 8.03137 14.6722 7.84387 14.4941L6.11262 12.8441C5.61262 12.3691 4.82199 12.3878 4.34387 12.8878C3.86574 13.3878 3.88762 14.1785 4.38762 14.6566L7.90012 18.0003C9.24699 19.2847 11.0376 20.0003 12.9001 20.0003H13.2407H13.497C13.5001 20.0003 13.5001 19.9972 13.5001 19.9972L13.5032 19.9941C15.3251 19.8847 16.897 18.6441 17.4189 16.8785L19.9564 8.28472C20.1126 7.7566 19.8095 7.20035 19.2814 7.04097C18.7532 6.8816 18.197 7.18785 18.0376 7.71597L16.8595 11.7222C16.8095 11.8878 16.6595 12.0003 16.4845 12.0003C16.2376 12.0003 16.0532 11.7722 16.1032 11.5285L17.2282 6.2066C17.3439 5.66597 16.997 5.13472 16.4564 5.02222C15.9157 4.90972 15.3845 5.25347 15.272 5.7941L14.097 11.3472C14.0157 11.7285 13.6814 12.0003 13.2907 12.0003C12.9189 12.0003 12.5907 11.7503 12.497 11.391L10.7157 4.74097Z" fill="black"/>
</svg>
