<svg width="24" height="24" viewBox="0 0 24 24" fill="none" xmlns="http://www.w3.org/2000/svg">
<path d="M20.4906 16.2563C21.0469 15.8469 21.1656 15.0656 20.7563 14.5094C20.3469 13.9531 19.5656 13.8344 19.0094 14.2437L15.2688 17H11.5C11.225 17 11 16.775 11 16.5C11 16.225 11.225 16 11.5 16H12H14C14.5531 16 15 15.5531 15 15C15 14.4469 14.5531 14 14 14H12H11.5H9.05312C8.14375 14 7.2625 14.3094 6.55312 14.875L5.15 16H4C3.44687 16 3 16.4469 3 17V19C3 19.5531 3.44687 20 4 20H9H14.0156C14.9219 20 15.8063 19.7094 16.5375 19.1719L20.4937 16.2563H20.4906ZM9.05 15.9969C9.05149 15.999 9.05244 16.0014 9.05275 16.004C9.05307 16.0065 9.05276 16.0091 9.05183 16.0115C9.0509 16.0139 9.0494 16.0161 9.04744 16.0177C9.04549 16.0194 9.04315 16.0206 9.04064 16.0212C9.03813 16.0217 9.03551 16.0216 9.03303 16.021C9.03055 16.0203 9.02828 16.019 9.02642 16.0172C9.02457 16.0154 9.02318 16.0132 9.02238 16.0107C9.02159 16.0083 9.02142 16.0057 9.02187 16.0031C9.02039 16.001 9.01944 15.9986 9.01912 15.996C9.0188 15.9935 9.01912 15.9909 9.02005 15.9885C9.02097 15.9861 9.02248 15.9839 9.02443 15.9823C9.02638 15.9806 9.02872 15.9794 9.03124 15.9788C9.03375 15.9783 9.03636 15.9784 9.03884 15.979C9.04133 15.9797 9.04359 15.981 9.04545 15.9828C9.04731 15.9846 9.0487 15.9868 9.04949 15.9893C9.05028 15.9917 9.05046 15.9943 9.05 15.9969Z" fill="black"/>
</svg>
