<svg width="24" height="24" viewBox="0 0 24 24" fill="none" xmlns="http://www.w3.org/2000/svg">
<path d="M16.5 4H12C11.6937 4 9.93748 4 8.24373 5.17813C6.48123 6.40313 4.99998 8.74375 4.99998 13C4.99998 14.8281 4.54373 16.175 4.10623 17.0531C3.88748 17.4938 3.66873 17.8187 3.51248 18.025C3.43435 18.1281 3.37185 18.2031 3.33435 18.2469C3.3156 18.2687 3.29998 18.2844 3.29373 18.2906L3.28748 18.2969C3.00623 18.5813 2.92185 19.0094 3.07498 19.3813C3.23123 19.7563 3.59373 20 3.99998 20H6.99998V14C6.99998 11.2375 9.23748 9 12 9C14.7625 9 17 11.2375 17 14V20H20C20.4031 20 20.7687 19.7563 20.925 19.3813C21.0781 19.0094 20.9937 18.5813 20.7125 18.2969L20.7094 18.2937C20.7031 18.2875 20.6875 18.2719 20.6687 18.25C20.6281 18.2063 20.5687 18.1312 20.4906 18.0281C20.3344 17.8219 20.1187 17.4969 19.8969 17.0562C19.4562 16.175 19 14.8281 19 13C19 9.77813 17.5469 7.6 16.0062 6.2125L17.0062 5.30625C17.2344 5.09687 17.3125 4.76875 17.2 4.48125C17.0875 4.19375 16.8094 4 16.5 4ZM16 20V14C16 11.7906 14.2094 10 12 10C9.7906 10 7.99998 11.7906 7.99998 14V20H16Z" fill="black"/>
</svg>
