<svg width="24" height="24" viewBox="0 0 24 24" fill="none" xmlns="http://www.w3.org/2000/svg">
<path d="M4.53428 10.875C4.13115 11.5719 4.13115 12.4282 4.53428 13.125L7.29365 17.9032C7.69678 18.6 8.4374 19.0282 9.24365 19.0282H14.7593C15.5624 19.0282 16.3062 18.6 16.7093 17.9032L19.4655 13.125C19.8687 12.4282 19.8687 11.5719 19.4655 10.875L16.7062 6.09692C16.303 5.40005 15.5624 4.97192 14.7562 4.97192H9.24053C8.4374 4.97192 7.69365 5.40005 7.29053 6.09692L4.53428 10.875ZM8.94678 12.7438C9.0874 12.5907 9.28428 12.5032 9.49053 12.5C9.69678 12.4969 9.89678 12.5813 10.0405 12.7313L11.2562 14L13.4937 11.3063C13.6374 11.1344 13.8468 11.0344 14.0718 11.0344C14.2968 11.0344 14.5062 11.1344 14.6499 11.3063L16.9187 14.0375L15.1937 17.0282C15.103 17.1844 14.9405 17.2782 14.7593 17.2782H9.24053C9.0624 17.2782 8.89678 17.1844 8.80615 17.0282L7.34365 14.4969L8.94365 12.7438H8.94678ZM9.9999 7.75005C10.3314 7.75005 10.6494 7.88174 10.8838 8.11617C11.1182 8.35059 11.2499 8.66853 11.2499 9.00005C11.2499 9.33157 11.1182 9.64951 10.8838 9.88393C10.6494 10.1184 10.3314 10.25 9.9999 10.25C9.66838 10.25 9.35044 10.1184 9.11602 9.88393C8.8816 9.64951 8.7499 9.33157 8.7499 9.00005C8.7499 8.66853 8.8816 8.35059 9.11602 8.11617C9.35044 7.88174 9.66838 7.75005 9.9999 7.75005Z" fill="black"/>
</svg>
