<svg width="24" height="24" viewBox="0 0 24 24" fill="none" xmlns="http://www.w3.org/2000/svg">
<path d="M4 7.0002C4 6.44707 3.55313 6.0002 3 6.0002C2.44687 6.0002 2 6.44707 2 7.0002V12.0002V17.0002C2 17.5533 2.44687 18.0002 3 18.0002C3.55313 18.0002 4 17.5533 4 17.0002V13.0002H10V17.0002C10 17.5533 10.4469 18.0002 11 18.0002C11.5531 18.0002 12 17.5533 12 17.0002V12.0002V7.0002C12 6.44707 11.5531 6.0002 11 6.0002C10.4469 6.0002 10 6.44707 10 7.0002V11.0002H4V7.0002ZM14.5 6.0002C13.9469 6.0002 13.5 6.44707 13.5 7.0002C13.5 7.55332 13.9469 8.0002 14.5 8.0002H18.0844L15.2906 10.7939C15.0031 11.0814 14.9187 11.5096 15.075 11.8846C15.2312 12.2596 15.5938 12.5033 16 12.5033H18.25C19.2156 12.5033 20 13.2877 20 14.2533C20 15.2189 19.2156 16.0033 18.25 16.0033H16.2312C15.8656 16.0033 15.5531 15.7377 15.4906 15.3752L15.4844 15.3377C15.3938 14.7939 14.8781 14.4252 14.3344 14.5158C13.7906 14.6064 13.4219 15.1221 13.5125 15.6658L13.5188 15.7033C13.7406 17.0283 14.8875 18.0002 16.2312 18.0002H18.25C20.3219 18.0002 22 16.3221 22 14.2502C22 12.2314 20.4062 10.5877 18.4094 10.5033L21.2062 7.70645C21.4937 7.41895 21.5781 6.99082 21.4219 6.61582C21.2656 6.24082 20.9031 5.99707 20.4969 5.99707H14.5V6.0002Z" fill="black"/>
</svg>
