<svg width="24" height="24" viewBox="0 0 24 24" fill="none" xmlns="http://www.w3.org/2000/svg">
<path d="M11 8.5C11 7.30653 10.5259 6.16193 9.68198 5.31802C8.83807 4.47411 7.69347 4 6.5 4C5.30653 4 4.16193 4.47411 3.31802 5.31802C2.47411 6.16193 2 7.30653 2 8.5C2 9.69347 2.47411 10.8381 3.31802 11.682C4.16193 12.5259 5.30653 13 6.5 13C7.69347 13 8.83807 12.5259 9.68198 11.682C10.5259 10.8381 11 9.69347 11 8.5ZM6.39687 6.39687C6.59062 6.20312 6.90938 6.20312 7.10313 6.39687L8.85313 8.14687C9.04688 8.34062 9.04688 8.65938 8.85313 8.85313L7.10313 10.6031C6.90938 10.7969 6.59062 10.7969 6.39687 10.6031C6.20312 10.4094 6.20312 10.0906 6.39687 9.89687L7.29375 9H4.5C4.225 9 4 8.775 4 8.5C4 8.225 4.225 8 4.5 8H7.29375L6.39687 7.10313C6.20312 6.90938 6.20312 6.59062 6.39687 6.39687ZM12 8.5C12 10.2906 11.1437 11.8812 9.81875 12.8844C10.1875 12.7719 10.5375 12.5906 10.85 12.3781C11.5406 11.8938 12.4625 11.8938 13.1531 12.3781C13.7281 12.775 14.3906 13.0125 15.0031 13.0125C15.5969 13.0125 16.2906 12.7656 16.8531 12.3781C17.5969 11.8563 18.5969 11.8969 19.2938 12.4844C19.3594 12.5375 19.425 12.5875 19.4969 12.6375L19.4875 10H20C20.4344 10 20.8156 9.72187 20.95 9.30937C21.0844 8.89687 20.9375 8.44688 20.5875 8.19063L15.0875 4.19062C14.7375 3.9375 14.2625 3.9375 13.9125 4.19062L11.4062 6.0125C11.7844 6.75938 12 7.60312 12 8.5ZM12.5781 13.6844C12.2312 13.4375 11.7688 13.4375 11.4219 13.6844C10.7188 14.1687 9.85938 14.5 9 14.5C8.15938 14.5 7.27188 14.1625 6.58125 13.6844C6.20938 13.4187 5.70313 13.4406 5.35625 13.7375C4.90625 14.1094 4.34062 14.3937 3.775 14.525C3.2375 14.65 2.90313 15.1875 3.02813 15.725C3.15313 16.2625 3.69063 16.5969 4.22813 16.4719C4.99375 16.2938 5.63125 15.9563 6.04688 15.6906C6.95312 16.1781 7.96875 16.5 9 16.5C9.99687 16.5 10.8937 16.1906 11.5125 15.9094C11.6937 15.825 11.8594 15.7437 12 15.6687C12.1406 15.7437 12.3031 15.8281 12.4875 15.9094C13.1063 16.1906 14.0063 16.5 15 16.5C16.0312 16.5 17.0469 16.1781 17.9531 15.6938C18.3719 15.9563 19.0063 16.2969 19.7719 16.475C20.3094 16.6 20.8469 16.2656 20.9719 15.7281C21.0969 15.1906 20.7625 14.6531 20.225 14.5281C19.6594 14.3969 19.0937 14.1125 18.6437 13.7406C18.2969 13.4438 17.7906 13.425 17.4187 13.6875C16.7312 14.1625 15.8406 14.5 15 14.5C14.1406 14.5 13.2812 14.1687 12.5781 13.6844ZM12.5781 17.1844C12.2312 16.9375 11.7688 16.9375 11.4219 17.1844C10.7188 17.6687 9.85938 18 9 18C8.15938 18 7.27188 17.6625 6.58125 17.1844C6.20938 16.9187 5.70313 16.9406 5.35625 17.2375C4.90625 17.6094 4.34062 17.8937 3.775 18.025C3.2375 18.15 2.90313 18.6875 3.02813 19.225C3.15313 19.7625 3.69063 20.0969 4.22813 19.9719C4.99375 19.7938 5.63125 19.4563 6.04688 19.1906C6.95312 19.6781 7.96875 20 9 20C9.99687 20 10.8937 19.6906 11.5125 19.4094C11.6937 19.325 11.8594 19.2437 12 19.1687C12.1406 19.2437 12.3031 19.3281 12.4875 19.4094C13.1063 19.6906 14.0063 20 15 20C16.0312 20 17.0469 19.6781 17.9531 19.1938C18.3719 19.4563 19.0063 19.7969 19.7719 19.975C20.3094 20.1 20.8469 19.7656 20.9719 19.2281C21.0969 18.6906 20.7625 18.1531 20.225 18.0281C19.6594 17.8969 19.0937 17.6125 18.6437 17.2406C18.2969 16.9469 17.7906 16.925 17.4187 17.1875C16.7312 17.6625 15.8406 18 15 18C14.1406 18 13.2812 17.6687 12.5781 17.1844Z" fill="black"/>
</svg>
