<svg width="24" height="24" viewBox="0 0 24 24" fill="none" xmlns="http://www.w3.org/2000/svg">
<path d="M4.53428 13.125C4.13115 12.4282 4.13115 11.5719 4.53428 10.875L7.29365 6.09692C7.69678 5.40005 8.4374 4.97192 9.24365 4.97192H14.7593C15.5624 4.97192 16.3062 5.40005 16.7093 6.09692L19.4655 10.875C19.8687 11.5719 19.8687 12.4282 19.4655 13.125L16.7062 17.9032C16.303 18.6 15.5624 19.0282 14.7562 19.0282H9.24053C8.4374 19.0282 7.69365 18.6 7.29053 17.9032L4.53428 13.125ZM9.7499 11.25C9.33428 11.25 8.9999 11.5844 8.9999 12C8.9999 12.4157 9.33428 12.75 9.7499 12.75H14.2499C14.6655 12.75 14.9999 12.4157 14.9999 12C14.9999 11.5844 14.6655 11.25 14.2499 11.25H9.7499Z" fill="black"/>
</svg>
