<svg width="24" height="24" viewBox="0 0 24 24" fill="none" xmlns="http://www.w3.org/2000/svg">
<path d="M14.5 4.5V6.5C14.5 6.775 14.275 7 14 7C13.725 7 13.5 6.775 13.5 6.5V4.5C13.5 4.225 13.725 4 14 4C14.275 4 14.5 4.225 14.5 4.5ZM11.4156 4.72188L12.4156 6.22187C12.5687 6.45312 12.5062 6.7625 12.2781 6.91563C12.05 7.06875 11.7375 7.00625 11.5844 6.77813L10.5844 5.27813C10.4312 5.04688 10.4937 4.7375 10.7219 4.58438C10.95 4.43125 11.2625 4.49375 11.4156 4.72188ZM8.21873 7.71875C8.51248 7.425 8.98748 7.425 9.2781 7.71875L13.1469 11.5844C13.4625 11.9 14 11.675 14 11.2312V10C14 9.44688 14.4468 9 15 9C15.5531 9 16 9.44688 16 10V14.8C16 16.5844 15.0625 18.2375 13.5344 19.1562C11.5344 20.3563 8.9781 20.0406 7.33123 18.3938L4.21873 15.2812C3.92498 14.9875 3.92498 14.5125 4.21873 14.2219C4.51248 13.9313 4.98748 13.9281 5.2781 14.2219L6.93435 15.8781C7.12498 16.0688 7.43435 16.0688 7.62498 15.8781C7.8156 15.6875 7.8156 15.3781 7.62498 15.1875L4.71873 12.2812C4.42498 11.9875 4.42498 11.5125 4.71873 11.2219C5.01248 10.9313 5.48748 10.9281 5.7781 11.2219L8.68435 14.1281C8.87498 14.3188 9.18435 14.3188 9.37498 14.1281C9.5656 13.9375 9.5656 13.6281 9.37498 13.4375L5.71873 9.78125C5.42498 9.4875 5.42498 9.0125 5.71873 8.72188C6.01248 8.43125 6.48748 8.42813 6.7781 8.72188L10.4344 12.3781C10.625 12.5688 10.9344 12.5688 11.125 12.3781C11.3156 12.1875 11.3156 11.8781 11.125 11.6875L8.21873 8.78125C7.92498 8.4875 7.92498 8.0125 8.21873 7.72187V7.71875ZM17.5344 19.1531C16.7781 19.6062 15.9437 19.8438 15.1062 19.875C16.6094 18.6375 17.5 16.7812 17.5 14.8V11.7344C17.7562 11.7312 18 11.5344 18 11.2344V10C18 9.44688 18.4468 9 19 9C19.5531 9 20 9.44688 20 10V14.8C20 16.5844 19.0625 18.2375 17.5344 19.1562V19.1531ZM17.2781 4.58438C17.5093 4.7375 17.5687 5.04688 17.4156 5.27813L16.4156 6.77813C16.2625 7.00938 15.9531 7.06875 15.7219 6.91563C15.4906 6.7625 15.4312 6.45312 15.5844 6.22187L16.5844 4.72188C16.7375 4.49063 17.0469 4.43125 17.2781 4.58438Z" fill="black"/>
</svg>
