<svg width="24" height="24" viewBox="0 0 24 24" fill="none" xmlns="http://www.w3.org/2000/svg">
<path d="M7 8.5C7 7.30653 7.47411 6.16193 8.31802 5.31802C9.16193 4.47411 10.3065 4 11.5 4C12.6935 4 13.8381 4.47411 14.682 5.31802C15.5259 6.16193 16 7.30653 16 8.5C16 9.69347 15.5259 10.8381 14.682 11.682C13.8381 12.5259 12.6935 13 11.5 13C10.3065 13 9.16193 12.5259 8.31802 11.682C7.47411 10.8381 7 9.69347 7 8.5ZM10.775 7.48125C10.7938 7.45312 10.8313 7.41563 10.9062 7.375C11.0656 7.29063 11.2969 7.24688 11.4906 7.25C11.7469 7.25312 12.025 7.30625 12.3156 7.37812C12.5844 7.44375 12.8562 7.28125 12.9219 7.0125C12.9875 6.74375 12.825 6.47187 12.5562 6.40625C12.3812 6.3625 12.1937 6.32188 11.9969 6.29063V6C11.9969 5.725 11.7719 5.5 11.4969 5.5C11.2219 5.5 10.9969 5.725 10.9969 6V6.29688C10.8062 6.33437 10.6125 6.39688 10.4344 6.49375C10.0656 6.69063 9.71563 7.06875 9.75313 7.65625C9.78438 8.15625 10.1188 8.44688 10.4281 8.61562C10.7031 8.7625 11.0437 8.85938 11.3219 8.9375L11.3781 8.95312C11.7 9.04375 11.9375 9.11562 12.1031 9.2125C12.2437 9.29688 12.25 9.34375 12.25 9.3875C12.2531 9.4625 12.2344 9.50312 12.2188 9.52812C12.2 9.55937 12.1625 9.59687 12.0938 9.63125C11.9469 9.70937 11.725 9.75 11.5156 9.74375C11.2188 9.73438 10.9375 9.64687 10.5813 9.53125C10.5219 9.5125 10.4625 9.49375 10.4 9.475C10.1375 9.39375 9.85625 9.54063 9.775 9.80312C9.69375 10.0656 9.84063 10.3469 10.1031 10.4281C10.1531 10.4437 10.2063 10.4594 10.2594 10.4781C10.4813 10.55 10.7312 10.6312 11 10.6844V11.0406C11 11.3156 11.225 11.5406 11.5 11.5406C11.775 11.5406 12 11.3156 12 11.0406V10.7094C12.1938 10.675 12.3906 10.6125 12.5719 10.5156C12.95 10.3125 13.2688 9.93125 13.25 9.3625C13.2344 8.85625 12.9281 8.54063 12.6094 8.35313C12.3156 8.17812 11.9469 8.075 11.6562 7.99375H11.65C11.325 7.90313 11.0781 7.83125 10.9031 7.7375C10.7531 7.65625 10.7531 7.6125 10.7531 7.59687V7.59375C10.75 7.53437 10.7625 7.50312 10.7781 7.48125H10.775ZM20.7563 14.5094C21.1656 15.0656 21.0469 15.8469 20.4906 16.2563L16.5344 19.1719C15.8031 19.7094 14.9219 20 14.0125 20H9H4C3.44687 20 3 19.5531 3 19V17C3 16.4469 3.44687 16 4 16H5.15L6.55312 14.875C7.2625 14.3062 8.14375 14 9.05312 14H11.5H12H14C14.5531 14 15 14.4469 15 15C15 15.5531 14.5531 16 14 16H12H11.5C11.225 16 11 16.225 11 16.5C11 16.775 11.225 17 11.5 17H15.2688L19.0094 14.2437C19.5656 13.8344 20.3469 13.9531 20.7563 14.5094ZM9.05 16H9.02187C9.03125 16 9.04063 16 9.05 16Z" fill="black"/>
</svg>
