<svg width="24" height="24" viewBox="0 0 24 24" fill="none" xmlns="http://www.w3.org/2000/svg">
<path d="M11.6094 4.20625C11.6969 4.07812 11.8438 4 12 4C12.1562 4 12.3031 4.07812 12.3906 4.20625L14.4625 7.21875C14.8125 7.72812 15 8.33125 15 8.94688V9C15 10.6562 13.6562 12 12 12C10.3438 12 9 10.6562 9 9V8.94688C9 8.32813 9.1875 7.72812 9.5375 7.21875L11.6094 4.20625ZM20.7563 14.5094C21.1656 15.0656 21.0469 15.8469 20.4906 16.2563L16.5344 19.1719C15.8031 19.7094 14.9219 20 14.0125 20H9H4C3.44687 20 3 19.5531 3 19V17C3 16.4469 3.44687 16 4 16H5.15L6.55312 14.875C7.2625 14.3062 8.14375 14 9.05312 14H11.5H12H14C14.5531 14 15 14.4469 15 15C15 15.5531 14.5531 16 14 16H12H11.5C11.225 16 11 16.225 11 16.5C11 16.775 11.225 17 11.5 17H15.2688L19.0094 14.2437C19.5656 13.8344 20.3469 13.9531 20.7563 14.5094ZM9.05 16H9.02187C9.03125 16 9.04063 16 9.05 16Z" fill="black"/>
</svg>
