<svg width="24" height="24" viewBox="0 0 24 24" fill="none" xmlns="http://www.w3.org/2000/svg">
<path d="M8.99995 5.25C8.99995 4.55937 9.55933 4 10.25 4C10.9406 4 11.5 4.55937 11.5 5.25V9.88125C11.7656 9.64375 12.1156 9.5 12.5 9.5C13.1437 9.5 13.6937 9.90625 13.9062 10.475C14.1812 10.1844 14.5687 10 15 10C15.7906 10 16.4375 10.6094 16.4968 11.3844C16.7625 11.1438 17.1156 11 17.5 11C18.3281 11 19 11.6719 19 12.5V14V14.5V16C19 18.2094 17.2093 20 15 20H14.5H12.5H12.4968H12.3343C12.1781 20 12.025 19.9906 11.875 19.9688C10.1468 19.7938 8.5562 18.9062 7.49995 17.5L5.24995 14.5C4.83433 13.9469 4.94683 13.1656 5.49995 12.75C6.05308 12.3344 6.83433 12.4469 7.24995 13L8.99995 15.3344V5.25ZM12.5 13.5C12.5 13.225 12.275 13 12 13C11.725 13 11.5 13.225 11.5 13.5V16.5C11.5 16.775 11.725 17 12 17C12.275 17 12.5 16.775 12.5 16.5V13.5ZM14 13C13.725 13 13.5 13.225 13.5 13.5V16.5C13.5 16.775 13.725 17 14 17C14.275 17 14.5 16.775 14.5 16.5V13.5C14.5 13.225 14.275 13 14 13ZM16.5 13.5C16.5 13.225 16.275 13 16 13C15.725 13 15.5 13.225 15.5 13.5V16.5C15.5 16.775 15.725 17 16 17C16.275 17 16.5 16.775 16.5 16.5V13.5Z" fill="black"/>
</svg>
