<svg width="24" height="24" viewBox="0 0 24 24" fill="none" xmlns="http://www.w3.org/2000/svg">
<path d="M4.53428 13.1258C4.13115 12.4289 4.13115 11.5727 4.53428 10.8758L7.29365 6.09766C7.69678 5.40078 8.4374 4.97266 9.24365 4.97266H14.7593C15.5624 4.97266 16.3062 5.40078 16.7093 6.09766L19.4655 10.8758C19.8687 11.5727 19.8687 12.4289 19.4655 13.1258L16.7062 17.9039C16.303 18.6008 15.5624 19.0289 14.7562 19.0289H9.24053C8.4374 19.0289 7.69365 18.6008 7.29053 17.9039L4.53428 13.1258ZM11.9999 10.0008C12.2651 10.0008 12.5195 9.89542 12.707 9.70789C12.8945 9.52035 12.9999 9.266 12.9999 9.00078C12.9999 8.73556 12.8945 8.48121 12.707 8.29367C12.5195 8.10614 12.2651 8.00078 11.9999 8.00078C11.7347 8.00078 11.4803 8.10614 11.2928 8.29367C11.1053 8.48121 10.9999 8.73556 10.9999 9.00078C10.9999 9.266 11.1053 9.52035 11.2928 9.70789C11.4803 9.89542 11.7347 10.0008 11.9999 10.0008ZM9.2499 11.2508C8.83428 11.2508 8.4999 11.5852 8.4999 12.0008C8.4999 12.4164 8.83428 12.7508 9.2499 12.7508H14.7499C15.1655 12.7508 15.4999 12.4164 15.4999 12.0008C15.4999 11.5852 15.1655 11.2508 14.7499 11.2508H9.2499ZM12.9999 15.0008C12.9999 14.7356 12.8945 14.4812 12.707 14.2937C12.5195 14.1061 12.2651 14.0008 11.9999 14.0008C11.7347 14.0008 11.4803 14.1061 11.2928 14.2937C11.1053 14.4812 10.9999 14.7356 10.9999 15.0008C10.9999 15.266 11.1053 15.5204 11.2928 15.7079C11.4803 15.8954 11.7347 16.0008 11.9999 16.0008C12.2651 16.0008 12.5195 15.8954 12.707 15.7079C12.8945 15.5204 12.9999 15.266 12.9999 15.0008Z" fill="black"/>
</svg>
