<svg width="24" height="24" viewBox="0 0 24 24" fill="none" xmlns="http://www.w3.org/2000/svg">
<path d="M14.1781 4.26484C13.7938 3.91172 13.2031 3.91172 12.8219 4.26484L6.32188 10.2648C6.02813 10.5336 5.925 10.9523 6.05625 11.3273C8.77813 12.118 10.9188 14.2711 11.6906 17.0023H17.5C18.3281 17.0023 19 16.3305 19 15.5023V11.9992H20C20.4125 11.9992 20.7812 11.7461 20.9312 11.3648C21.0812 10.9836 20.9813 10.5461 20.6781 10.2648L14.1781 4.26484ZM12 10.4992C12 10.2242 12.225 9.99922 12.5 9.99922H14.5C14.775 9.99922 15 10.2242 15 10.4992V12.4992C15 12.7742 14.775 12.9992 14.5 12.9992H12.5C12.225 12.9992 12 12.7742 12 12.4992V10.4992ZM3.75 11.9992C3.33437 11.9992 3 12.3336 3 12.7492C3 13.1648 3.33437 13.4992 3.75 13.4992C6.925 13.4992 9.5 16.0742 9.5 19.2492C9.5 19.6648 9.83437 19.9992 10.25 19.9992C10.6656 19.9992 11 19.6648 11 19.2492C11 15.2461 7.75313 11.9992 3.75 11.9992ZM4 19.9992C4.26522 19.9992 4.51957 19.8939 4.70711 19.7063C4.89464 19.5188 5 19.2644 5 18.9992C5 18.734 4.89464 18.4796 4.70711 18.2921C4.51957 18.1046 4.26522 17.9992 4 17.9992C3.73478 17.9992 3.48043 18.1046 3.29289 18.2921C3.10536 18.4796 3 18.734 3 18.9992C3 19.2644 3.10536 19.5188 3.29289 19.7063C3.48043 19.8939 3.73478 19.9992 4 19.9992ZM3 15.7492C3 16.1648 3.33437 16.4992 3.75 16.4992C5.26875 16.4992 6.5 17.7305 6.5 19.2492C6.5 19.6648 6.83437 19.9992 7.25 19.9992C7.66563 19.9992 8 19.6648 8 19.2492C8 16.9023 6.09687 14.9992 3.75 14.9992C3.33437 14.9992 3 15.3336 3 15.7492Z" fill="black"/>
</svg>
