<svg width="24" height="24" viewBox="0 0 24 24" fill="none" xmlns="http://www.w3.org/2000/svg">
<path d="M9 6.5C9 6.775 9.225 7 9.5 7H12C12.5531 7 13 7.44687 13 8C13 8.55313 12.5531 9 12 9H9.5C8.11875 9 7 7.88125 7 6.5C7 5.11875 8.11875 4 9.5 4H13C15.2094 4 17 5.79063 17 8C17 10.2094 15.2094 12 13 12H12C12 12.5531 11.5531 13 11 13C10.4469 13 10 12.5531 10 12V11C10 10.4469 10.4469 10 11 10H13C14.1031 10 15 9.10312 15 8C15 6.89688 14.1031 6 13 6H9.5C9.225 6 9 6.225 9 6.5ZM20.7563 14.5094C21.1656 15.0656 21.0469 15.8469 20.4906 16.2563L16.5344 19.1719C15.8031 19.7094 14.9219 20 14.0125 20H9H4C3.44687 20 3 19.5531 3 19V17C3 16.4469 3.44687 16 4 16H5.15L6.55312 14.875C7.2625 14.3062 8.14375 14 9.05312 14H11.5H12H14C14.5531 14 15 14.4469 15 15C15 15.5531 14.5531 16 14 16H12H11.5C11.225 16 11 16.225 11 16.5C11 16.775 11.225 17 11.5 17H15.2688L19.0094 14.2437C19.5656 13.8344 20.3469 13.9531 20.7563 14.5094ZM9.05 16H9.02187C9.03125 16 9.04063 16 9.05 16Z" fill="black"/>
</svg>
