<svg width="24" height="24" viewBox="0 0 24 24" fill="none" xmlns="http://www.w3.org/2000/svg">
<path d="M8.89375 4.55313L11.4656 9.69688L10.3469 11.9344L7.10625 5.44688C6.85938 4.95313 7.05937 4.35313 7.55312 4.10626C8.04688 3.85938 8.64688 4.05938 8.89375 4.55313ZM13.65 14.0656L14.1187 15H19V19V20H17H15.6187C14.8625 20 14.1687 19.5719 13.8313 18.8938L12.5344 16.3L13.6531 14.0625L13.65 14.0656ZM20 15H21C21.5531 15 22 15.4469 22 16V19C22 19.5531 21.5531 20 21 20H20V15ZM16.4469 4.10626C16.9406 4.35313 17.1406 4.95313 16.8938 5.44688L10.1719 18.8938C9.83437 19.5719 9.14062 20 8.38438 20H7H6H5V19V15H9.88125L15.1062 4.55313C15.3531 4.05938 15.9531 3.85938 16.4469 4.10626ZM2 16C2 15.4469 2.44687 15 3 15H4V20H3C2.44687 20 2 19.5531 2 19V16Z" fill="black"/>
</svg>
