<svg width="24" height="24" viewBox="0 0 24 24" fill="none" xmlns="http://www.w3.org/2000/svg">
<path d="M9.25 20C8.55938 20 8 19.4406 8 18.75V12.5V12.2812V10C8 9.725 7.775 9.5 7.5 9.5C7.225 9.5 7 9.725 7 10V11.7406C6.9375 11.6969 6.87813 11.6469 6.81875 11.6L6.21875 11.1C5.7625 10.7188 5.5 10.1562 5.5 9.5625V8.375C5.5 7.1875 6.02812 6.0625 6.94062 5.30313L7.10938 5.1625C8.00938 4.40938 9.14062 4 10.3094 4H14C16.2094 4 18 5.79063 18 8V10V11C18 11.8281 17.3281 12.5 16.5 12.5C16.1125 12.5 15.7625 12.3531 15.4969 12.1156C15.4375 12.8906 14.7906 13.5 14 13.5C13.6125 13.5 13.2625 13.3531 12.9969 13.1156C12.9375 13.8906 12.2906 14.5 11.5 14.5C11.1156 14.5 10.7656 14.3562 10.5 14.1187V18.75C10.5 19.4406 9.94063 20 9.25 20Z" fill="black"/>
</svg>
