<svg width="24" height="24" viewBox="0 0 24 24" fill="none" xmlns="http://www.w3.org/2000/svg">
<path d="M14 7.25C14 7.66563 14.3344 8 14.75 8C15.1656 8 15.5 7.66563 15.5 7.25V7.17812L18.0063 6.81875C18.0406 7.0625 18.2469 7.25 18.5 7.25C18.775 7.25 19 7.025 19 6.75V5.25C19 4.975 18.775 4.75 18.5 4.75C18.2469 4.75 18.0406 4.9375 18.0063 5.17813L15.5 4.82187V4.75C15.5 4.33437 15.1656 4 14.75 4C14.3344 4 14 4.33437 14 4.75V7.25ZM7 9.5C7 8.11875 8.11875 7 9.5 7H13V5H9.5C7.01562 5 5 7.01562 5 9.5C5 11.9844 7.01562 14 9.5 14H18C18.5531 14 19 13.5531 19 13C19 12.4469 18.5531 12 18 12H9.5C8.11875 12 7 10.8813 7 9.5ZM6 15C5.44687 15 5 15.4469 5 16C5 16.5531 5.44687 17 6 17H18C18.5531 17 19 16.5531 19 16C19 15.4469 18.5531 15 18 15H6ZM6 18C5.44687 18 5 18.4469 5 19C5 19.5531 5.44687 20 6 20H18C18.5531 20 19 19.5531 19 19C19 18.4469 18.5531 18 18 18H6Z" fill="black"/>
</svg>
