<svg width="24" height="24" viewBox="0 0 24 24" fill="none" xmlns="http://www.w3.org/2000/svg">
<path d="M4.53428 10.875C4.13115 11.5719 4.13115 12.4281 4.53428 13.125L7.29365 17.9031C7.69678 18.6 8.4374 19.0281 9.24365 19.0281H14.7593C15.5624 19.0281 16.3062 18.6 16.7093 17.9031L19.4655 13.125C19.8687 12.4281 19.8687 11.5719 19.4655 10.875L16.7062 6.09686C16.303 5.39999 15.5624 4.97186 14.7562 4.97186H9.24053C8.4374 4.97186 7.69365 5.39999 7.29053 6.09686L4.53428 10.875ZM8.94678 12.7437C9.0874 12.5906 9.28428 12.5031 9.49053 12.5C9.69678 12.4969 9.89678 12.5812 10.0405 12.7312L11.2562 14L13.4937 11.3062C13.6374 11.1344 13.8468 11.0344 14.0718 11.0344C14.2968 11.0344 14.5062 11.1344 14.6499 11.3062L16.9187 14.0375L15.1937 17.0281C15.103 17.1844 14.9405 17.2781 14.7593 17.2781H9.24053C9.0624 17.2781 8.89678 17.1844 8.80615 17.0281L7.34365 14.4969L8.94365 12.7437H8.94678ZM9.9999 7.74999C10.3314 7.74999 10.6494 7.88168 10.8838 8.1161C11.1182 8.35052 11.2499 8.66847 11.2499 8.99999C11.2499 9.33151 11.1182 9.64945 10.8838 9.88387C10.6494 10.1183 10.3314 10.25 9.9999 10.25C9.66838 10.25 9.35044 10.1183 9.11602 9.88387C8.8816 9.64945 8.7499 9.33151 8.7499 8.99999C8.7499 8.66847 8.8816 8.35052 9.11602 8.1161C9.35044 7.88168 9.66838 7.74999 9.9999 7.74999Z" fill="black"/>
</svg>
