<svg width="24" height="24" viewBox="0 0 24 24" fill="none" xmlns="http://www.w3.org/2000/svg">
<path d="M3.24375 10.4906C2.83437 9.93437 2.95312 9.15313 3.50937 8.74375L7.46562 5.82812C8.19375 5.29062 9.07812 5 9.98438 5H15H20C20.5531 5 21 5.44687 21 6V8C21 8.55313 20.5531 9 20 9H18.85L17.4469 10.125C16.7375 10.6938 15.8562 11 14.9469 11H12.5H12H10C9.44687 11 9 10.5531 9 10C9 9.44687 9.44687 9 10 9H12H12.5C12.775 9 13 8.775 13 8.5C13 8.225 12.775 8 12.5 8H8.73125L4.99063 10.7562C4.43438 11.1656 3.65313 11.0469 3.24375 10.4906ZM14.95 9H14.9781C14.9687 9 14.9594 9 14.95 9ZM20.7563 13.5094C21.1656 14.0656 21.0469 14.8469 20.4906 15.2563L16.5344 18.1719C15.8031 18.7094 14.9219 19 14.0125 19H9H4C3.44687 19 3 18.5531 3 18V16C3 15.4469 3.44687 15 4 15H5.15L6.55312 13.875C7.2625 13.3062 8.14375 13 9.05312 13H11.5H12H14C14.5531 13 15 13.4469 15 14C15 14.5531 14.5531 15 14 15H12H11.5C11.225 15 11 15.225 11 15.5C11 15.775 11.225 16 11.5 16H15.2688L19.0094 13.2437C19.5656 12.8344 20.3469 12.9531 20.7563 13.5094ZM9.05 15H9.02187C9.03125 15 9.04063 15 9.05 15Z" fill="black"/>
</svg>
