<svg width="24" height="24" viewBox="0 0 24 24" fill="none" xmlns="http://www.w3.org/2000/svg">
<path d="M11.1344 18.6586L5.4875 13.3867C5.35625 13.2648 5.23125 13.1336 5.11563 12.9992H7.83437C8.54062 12.9992 9.17812 12.5742 9.45 11.9211L9.77812 11.1336L11.3187 14.5554C11.4375 14.8211 11.6969 14.9929 11.9875 14.9961C12.2781 14.9992 12.5438 14.8398 12.675 14.5804L14 11.9273L14.0531 12.0336C14.35 12.6273 14.9562 13.0023 15.6187 13.0023H18.8844C18.7687 13.1367 18.6437 13.2679 18.5125 13.3898L12.8656 18.6586C12.6313 18.8773 12.3219 18.9992 12 18.9992C11.6781 18.9992 11.3688 18.8773 11.1344 18.6586ZM19.7406 11.4992H15.6156C15.5219 11.4992 15.4344 11.4461 15.3906 11.3617L14.6656 9.91482C14.5375 9.66169 14.2781 9.49919 13.9937 9.49919C13.7094 9.49919 13.45 9.65857 13.3219 9.91482L12.0281 12.5023L10.4344 8.94294C10.3125 8.67107 10.0375 8.49607 9.74062 8.50232C9.44375 8.50857 9.175 8.68669 9.05937 8.96482L8.06563 11.3492C8.02813 11.4429 7.93437 11.5023 7.83437 11.5023H4.5C4.41875 11.5023 4.34375 11.5148 4.27187 11.5367C4.09375 11.0367 4 10.5054 4 9.96482V9.78357C4 7.59919 5.57812 5.73669 7.73125 5.37732C9.15625 5.13982 10.6063 5.60544 11.625 6.62419L12 6.99919L12.375 6.62419C13.3937 5.60544 14.8438 5.13982 16.2688 5.37732C18.4219 5.73669 20 7.59919 20 9.78357V9.96482C20 10.4929 19.9125 11.0117 19.7406 11.4992Z" fill="black"/>
</svg>
