<svg width="24" height="24" viewBox="0 0 24 24" fill="none" xmlns="http://www.w3.org/2000/svg">
<path d="M5.43438 8C6.35313 5.65937 8.63437 4 11.3031 4H12C13.2281 4 14.3688 4.36875 15.3188 5H13.5C11.5656 5 10 6.56562 10 8.5C10 9.0375 10.1219 9.54688 10.3375 10H5.00625H5C4.44687 10 4 9.55313 4 9C4 8.44687 4.44687 8 5 8H5.43438ZM13.5 12H19.8469C19.9469 12.1937 20 12.4094 20 12.6313C20 13.3875 19.3875 14 18.6313 14H18V16C18 17.1031 17.1031 18 16 18H14V19C14 19.5531 13.5531 20 13 20H8C7.44687 20 7 19.5531 7 19V15.7437C7 15.2125 6.77812 14.7125 6.45312 14.2937C5.71875 13.3469 5.19688 12.175 5.04688 11H11.05C11.6813 11.6187 12.5469 12 13.5 12ZM13.5 6H17V11H13.5C12.1187 11 11 9.88125 11 8.5C11 7.11875 12.1187 6 13.5 6ZM19 11H18V6H19C19.5531 6 20 6.44687 20 7V10C20 10.5531 19.5531 11 19 11Z" fill="black"/>
</svg>
