<svg width="24" height="24" viewBox="0 0 24 24" fill="none" xmlns="http://www.w3.org/2000/svg">
<path d="M4.4875 13.3875L10.1344 18.6594C10.3688 18.8781 10.6781 19 11 19C11.3219 19 11.6313 18.8781 11.8656 18.6594L11.9469 18.5844C11.35 17.7062 11 16.6437 11 15.5C11 12.4625 13.4625 9.99998 16.5 9.99998C17.3844 9.99998 18.2188 10.2094 18.9594 10.5781C18.9875 10.375 19 10.1719 19 9.96561V9.78436C19 7.59998 17.4219 5.73748 15.2688 5.37811C13.8438 5.14061 12.3937 5.60623 11.375 6.62498L11 6.99998L10.625 6.62498C9.60625 5.60623 8.15625 5.14061 6.73125 5.37811C4.57812 5.73748 3 7.59998 3 9.78436V9.96561C3 11.2625 3.5375 12.5031 4.4875 13.3875ZM16.5 20C17.6935 20 18.8381 19.5259 19.682 18.682C20.5259 17.8381 21 16.6935 21 15.5C21 14.3065 20.5259 13.1619 19.682 12.318C18.8381 11.4741 17.6935 11 16.5 11C15.3065 11 14.1619 11.4741 13.318 12.318C12.4741 13.1619 12 14.3065 12 15.5C12 16.6935 12.4741 17.8381 13.318 18.682C14.1619 19.5259 15.3065 20 16.5 20ZM17.9969 12.9687C18.1312 13.0844 18.1656 13.2781 18.0781 13.4344L17.1375 15.125H18.25C18.4125 15.125 18.5562 15.2281 18.6062 15.3812C18.6562 15.5344 18.6031 15.7031 18.475 15.8L15.475 18.05C15.3344 18.1562 15.1375 18.15 15.0031 18.0312C14.8688 17.9125 14.8344 17.7219 14.9219 17.5656L15.8625 15.875H14.75C14.5875 15.875 14.4438 15.7719 14.3938 15.6187C14.3438 15.4656 14.3969 15.2969 14.525 15.2L17.525 12.95C17.6656 12.8437 17.8625 12.85 17.9969 12.9687Z" fill="black"/>
</svg>
