<svg width="24" height="24" viewBox="0 0 24 24" fill="none" xmlns="http://www.w3.org/2000/svg">
<path d="M10.8875 7.24376L11.7312 8.74376C11.8187 8.90001 11.9875 9.00001 12.1656 9.00001H13.8313C14.0125 9.00001 14.1781 8.90314 14.2656 8.74376L15.1094 7.24376C15.1938 7.09064 15.1938 6.90626 15.1094 6.75314L14.2656 5.25314C14.1781 5.09689 14.0094 4.99689 13.8313 4.99689H12.1687C11.9875 4.99689 11.8219 5.09376 11.7344 5.25314L10.8906 6.75314C10.8062 6.90626 10.8062 7.09064 10.8906 7.24376H10.8875ZM5.13438 6.71876C4.34688 5.93126 3 6.49064 3 7.60314V17.5C3 18.8813 4.11875 20 5.5 20H15.3969C16.5094 20 17.0688 18.6531 16.2812 17.8656L5.13438 6.71876ZM18.7563 16.6125C18.9094 16.6969 19.0938 16.6969 19.2469 16.6125L20.7469 15.7688C20.9031 15.6813 21.0031 15.5125 21.0031 15.3344V13.6688C21.0031 13.4875 20.9063 13.3219 20.7469 13.2344L19.2469 12.3906C19.0938 12.3063 18.9094 12.3063 18.7563 12.3906L17.2563 13.2344C17.1 13.3219 17 13.4906 17 13.6688V15.3344C17 15.5156 17.0969 15.6813 17.2563 15.7688L18.7563 16.6125ZM9 6.00001C9 5.7348 8.89464 5.48044 8.70711 5.29291C8.51957 5.10537 8.26522 5.00001 8 5.00001C7.73478 5.00001 7.48043 5.10537 7.29289 5.29291C7.10536 5.48044 7 5.7348 7 6.00001C7 6.26523 7.10536 6.51958 7.29289 6.70712C7.48043 6.89466 7.73478 7.00001 8 7.00001C8.26522 7.00001 8.51957 6.89466 8.70711 6.70712C8.89464 6.51958 9 6.26523 9 6.00001ZM15 13C15.2652 13 15.5196 12.8947 15.7071 12.7071C15.8946 12.5196 16 12.2652 16 12C16 11.7348 15.8946 11.4804 15.7071 11.2929C15.5196 11.1054 15.2652 11 15 11C14.7348 11 14.4804 11.1054 14.2929 11.2929C14.1054 11.4804 14 11.7348 14 12C14 12.2652 14.1054 12.5196 14.2929 12.7071C14.4804 12.8947 14.7348 13 15 13Z" fill="black"/>
</svg>
