<svg width="24" height="24" viewBox="0 0 24 24" fill="none" xmlns="http://www.w3.org/2000/svg">
<path d="M20.9937 11.9844C20.9937 12.5469 20.525 12.9875 19.9937 12.9875H18.9937L19.0156 17.9937C19.0219 19.1031 18.125 20.0031 17.0156 20.0031H7.00313C5.9 20.0031 5.00312 19.1063 5.00312 18.0031V12.9875H4C3.4375 12.9875 3 12.55 3 11.9844C3 11.7031 3.09375 11.4531 3.3125 11.2344L11.325 4.25C11.5437 4.03125 11.7937 4 12.0125 4C12.2312 4 12.4812 4.0625 12.6687 4.21875L20.65 11.2344C20.9 11.4531 21.025 11.7031 20.9937 11.9844ZM14 11C14 10.4696 13.7893 9.96086 13.4142 9.58579C13.0391 9.21071 12.5304 9 12 9C11.4696 9 10.9609 9.21071 10.5858 9.58579C10.2107 9.96086 10 10.4696 10 11C10 11.5304 10.2107 12.0391 10.5858 12.4142C10.9609 12.7893 11.4696 13 12 13C12.5304 13 13.0391 12.7893 13.4142 12.4142C13.7893 12.0391 14 11.5304 14 11ZM11 14C9.61875 14 8.5 15.1187 8.5 16.5C8.5 16.775 8.725 17 9 17H15C15.275 17 15.5 16.775 15.5 16.5C15.5 15.1187 14.3813 14 13 14H11Z" fill="black"/>
</svg>
