<svg width="24" height="24" viewBox="0 0 24 24" fill="none" xmlns="http://www.w3.org/2000/svg">
<path d="M8.82195 4.26558C9.20632 3.91245 9.79695 3.91245 10.1782 4.26558L16.6782 10.2656C16.8876 10.4593 17.0001 10.7281 17.0001 11H12.5001C11.9032 11 11.3657 11.2625 11.0001 11.6781V10.5C11.0001 10.225 10.7751 9.99995 10.5001 9.99995H8.50007C8.22507 9.99995 8.00007 10.225 8.00007 10.5V12.5C8.00007 12.775 8.22507 13 8.50007 13H10.5001V17H5.50007C4.67195 17 4.00007 16.3281 4.00007 15.5V12H3.00007C2.58757 12 2.21882 11.7468 2.06882 11.3656C1.91882 10.9843 2.01882 10.5468 2.32195 10.2656L8.82195 4.26558ZM13.0001 13.5V18H19.0001V13.5H13.0001ZM11.5001 13C11.5001 12.4468 11.9469 12 12.5001 12H19.5001C20.0532 12 20.5001 12.4468 20.5001 13V18H21.5001C21.7751 18 22.0001 18.225 22.0001 18.5C22.0001 19.3281 21.3282 20 20.5001 20H19.0001H13.0001H11.5001C10.6719 20 10.0001 19.3281 10.0001 18.5C10.0001 18.225 10.2251 18 10.5001 18H11.5001V13Z" fill="black"/>
</svg>
