<svg width="24" height="24" viewBox="0 0 24 24" fill="none" xmlns="http://www.w3.org/2000/svg">
<path d="M6.89375 5.44684C7.14062 4.95309 6.94063 4.35309 6.44688 4.10621C5.95312 3.85934 5.35313 4.05934 5.10625 4.55309L2.42188 9.91871C2.14375 10.475 2 11.0875 2 11.7093V12C2 14.2093 3.79063 16 6 16H8.25H8.5V15.9906C9.6 15.9062 10.5437 15.2781 11.0656 14.375C11.3406 13.8968 11.1781 13.2843 10.7 13.0093C10.2219 12.7343 9.60938 12.8968 9.33437 13.375C9.11562 13.75 8.7125 14 8.25 14C7.55937 14 7 13.4406 7 12.75C7 12.0593 7.55937 11.5 8.25 11.5C8.7125 11.5 9.11562 11.75 9.33437 12.125C9.60938 12.6031 10.2219 12.7656 10.7 12.4906C11.1781 12.2156 11.3406 11.6031 11.0656 11.125C10.6656 10.4343 10.0156 9.90309 9.24062 9.65309L11.7656 8.96559C12.2969 8.82184 12.6125 8.27184 12.4688 7.73746C12.325 7.20309 11.775 6.89059 11.2406 7.03434L8.09062 7.89371L10.6406 5.76871C11.0656 5.41559 11.1219 4.78434 10.7688 4.35934C10.4156 3.93434 9.78438 3.87809 9.35938 4.23121L6.175 6.88434L6.89375 5.44684ZM17.1062 18.5531C16.8594 19.0468 17.0594 19.6468 17.5531 19.8937C18.0469 20.1406 18.6469 19.9406 18.8937 19.4468L21.5781 14.0812C21.8563 13.525 22 12.9125 22 12.2937V12C22 9.79059 20.2094 7.99996 18 7.99996H15.75H15.5V8.00934C14.4 8.09371 13.4563 8.72184 12.9344 9.62496C12.6562 10.1031 12.8219 10.7156 13.3 10.9906C13.7781 11.2656 14.3906 11.1031 14.6656 10.625C14.8844 10.25 15.2875 9.99996 15.75 9.99996C16.4406 9.99996 17 10.5593 17 11.25C17 11.9406 16.4406 12.5 15.75 12.5C15.2875 12.5 14.8844 12.25 14.6656 11.875C14.3875 11.3968 13.7781 11.2343 13.3 11.5093C12.8219 11.7843 12.6594 12.3968 12.9344 12.875C13.3344 13.5656 13.9844 14.0968 14.7594 14.3468L12.2344 15.0343C11.7 15.1812 11.3875 15.7281 11.5312 16.2625C11.675 16.7968 12.225 17.1093 12.7594 16.9656L15.9062 16.1062L13.3562 18.2312C12.9312 18.5843 12.875 19.2156 13.2281 19.6406C13.5812 20.0656 14.2125 20.1218 14.6375 19.7687L17.8219 17.1156L17.1031 18.5531H17.1062Z" fill="black"/>
</svg>
