<svg width="24" height="24" viewBox="0 0 24 24" fill="none" xmlns="http://www.w3.org/2000/svg">
<path d="M19.9937 12.9875C20.525 12.9875 20.9937 12.55 20.9937 11.9844C21.025 11.7031 20.9 11.4531 20.65 11.2344L12.6719 4.21875C12.4844 4.0625 12.2344 4 12.0156 4C11.7969 4 11.5469 4.03125 11.3281 4.25L3.3125 11.2344C3.09375 11.4531 3 11.7031 3 11.9844C3 12.5469 3.4375 12.9875 4 12.9875H5V16.2812C5.66562 15.9 6.50313 15.925 7.15 16.3781C7.7125 16.7656 8.40312 17.0125 9 17.0125C9.65938 17.0125 10.3125 16.7469 10.85 16.3781C11.5406 15.8938 12.4625 15.8938 13.1531 16.3781C13.7281 16.775 14.3906 17.0125 15.0031 17.0125C15.5969 17.0125 16.2906 16.7656 16.8531 16.3781C17.5 15.9219 18.3438 15.8969 19.0125 16.2844L18.9969 12.9844H19.9969L19.9937 12.9875ZM10 10.75C10 10.3344 10.3344 10 10.75 10H13.25C13.6656 10 14 10.3344 14 10.75V13.25C14 13.6656 13.6656 14 13.25 14H10.75C10.3344 14 10 13.6656 10 13.25V10.75ZM12.5781 17.1844C12.2312 16.9375 11.7688 16.9375 11.4219 17.1844C10.7188 17.6687 9.85938 18 9 18C8.15938 18 7.27187 17.6625 6.58125 17.1844C6.20937 16.9187 5.70313 16.9406 5.35625 17.2375C4.90625 17.6094 4.34062 17.8937 3.775 18.025C3.2375 18.15 2.90312 18.6875 3.02812 19.225C3.15312 19.7625 3.69062 20.0969 4.22812 19.9719C4.99375 19.7938 5.63125 19.4563 6.04688 19.1906C6.95312 19.6781 7.96875 20 9 20C9.99687 20 10.8937 19.6906 11.5125 19.4094C11.6937 19.325 11.8594 19.2437 12 19.1687C12.1406 19.2437 12.3031 19.3281 12.4875 19.4094C13.1063 19.6906 14.0031 20 15 20C16.0312 20 17.0469 19.6781 17.9531 19.1938C18.3719 19.4563 19.0063 19.7969 19.7719 19.975C20.3094 20.1 20.8469 19.7656 20.9719 19.2281C21.0969 18.6906 20.7625 18.1531 20.225 18.0281C19.6594 17.8969 19.0938 17.6125 18.6438 17.2406C18.2969 16.9469 17.7906 16.925 17.4187 17.1875C16.7312 17.6625 15.8406 18 15 18C14.1406 18 13.2812 17.6687 12.5781 17.1844Z" fill="black"/>
</svg>
