<svg width="24" height="24" viewBox="0 0 24 24" fill="none" xmlns="http://www.w3.org/2000/svg">
<path d="M4.53437 13.125C4.13124 12.4282 4.13124 11.5719 4.53437 10.875L7.29374 6.09692C7.69687 5.40005 8.43749 4.97192 9.24374 4.97192H14.7594C15.5625 4.97192 16.3062 5.40005 16.7094 6.09692L19.4656 10.875C19.8687 11.5719 19.8687 12.4282 19.4656 13.125L16.7062 17.9032C16.3031 18.6 15.5625 19.0282 14.7562 19.0282H9.24062C8.43749 19.0282 7.69374 18.6 7.29062 17.9032L4.53437 13.125ZM9.46874 9.4688C9.17499 9.76255 9.17499 10.2375 9.46874 10.5282L10.9375 11.9969L9.46874 13.4657C9.17499 13.7594 9.17499 14.2344 9.46874 14.525C9.76249 14.8157 10.2375 14.8188 10.5281 14.525L11.9969 13.0563L13.4656 14.525C13.7594 14.8188 14.2344 14.8188 14.525 14.525C14.8156 14.2313 14.8187 13.7563 14.525 13.4657L13.0562 11.9969L14.525 10.5282C14.8187 10.2344 14.8187 9.75942 14.525 9.4688C14.2312 9.17817 13.7562 9.17505 13.4656 9.4688L11.9969 10.9375L10.5281 9.4688C10.2344 9.17505 9.75937 9.17505 9.46874 9.4688Z" fill="black"/>
</svg>
