<svg width="24" height="24" viewBox="0 0 24 24" fill="none" xmlns="http://www.w3.org/2000/svg">
<path d="M14 19C14 19.3656 14.0969 19.7063 14.2688 20H14.25C13.5594 20 13 19.4406 13 18.75V18V16C13 15.4469 12.5531 15 12 15H10C9.44688 15 9 15.4469 9 16V18V18.75C9 19.4406 8.44063 20 7.75 20H7H6.00313C5.95625 20 5.90937 19.9969 5.8625 19.9937C5.825 19.9969 5.7875 20 5.75 20H5.25C4.55938 20 4 19.4406 4 18.75V15.25C4 15.2219 4 15.1906 4.00312 15.1625V12.9875H3C2.4375 12.9875 2 12.55 2 11.9844C2 11.7031 2.09375 11.4531 2.3125 11.2344L10.325 4.25C10.5437 4.03125 10.7937 4 11.0125 4C11.2312 4 11.4812 4.0625 11.6687 4.21875L17.3344 9.19688C15.975 9.67812 15 10.975 15 12.5V13.2688C14.4031 13.6156 14 14.2594 14 15V19ZM18.5 11.5C17.9469 11.5 17.5 11.9469 17.5 12.5V14H19.5V12.5C19.5 11.9469 19.0531 11.5 18.5 11.5ZM16 12.5C16 11.1188 17.1187 10 18.5 10C19.8813 10 21 11.1188 21 12.5V14C21.5531 14 22 14.4469 22 15V19C22 19.5531 21.5531 20 21 20H16C15.4469 20 15 19.5531 15 19V15C15 14.4469 15.4469 14 16 14V12.5Z" fill="black"/>
</svg>
