<svg width="24" height="24" viewBox="0 0 24 24" fill="none" xmlns="http://www.w3.org/2000/svg">
<path d="M9 6.70635V4.29072C6.10625 5.15322 4 7.8376 4 11.0063C4 12.5657 4.51875 14.0751 5.46563 15.297C5.78438 15.7095 6 16.2032 6 16.7282V19.0001C6 19.5532 6.44688 20.0001 7 20.0001H13C13.5531 20.0001 14 19.5532 14 19.0001V18.0001H16C17.1031 18.0001 18 17.1032 18 16.0001V14.0001H18.6313C19.3875 14.0001 20 13.3876 20 12.6313C20 12.3188 19.8938 12.0188 19.7 11.7751L18.3875 10.1313C18.1281 9.80947 17.9875 9.4126 17.9156 9.00635C17.425 6.24385 14.875 4.12197 12 4.00635V6.70635C12 7.09385 12.2312 7.43447 12.5437 7.65947C13.425 8.29385 14 9.33135 14 10.5001C14 12.4345 12.4344 14.0001 10.5 14.0001C8.56563 14.0001 7 12.4345 7 10.5001C7 9.33135 7.575 8.29385 8.45625 7.65947C8.76875 7.43447 9 7.09072 9 6.70635ZM9.5 10.5001C9.5 10.2349 9.60536 9.98053 9.79289 9.79299C9.98043 9.60545 10.2348 9.5001 10.5 9.5001C10.7652 9.5001 11.0196 9.60545 11.2071 9.79299C11.3946 9.98053 11.5 10.2349 11.5 10.5001C11.5 10.7653 11.3946 11.0197 11.2071 11.2072C11.0196 11.3947 10.7652 11.5001 10.5 11.5001C10.2348 11.5001 9.98043 11.3947 9.79289 11.2072C9.60536 11.0197 9.5 10.7653 9.5 10.5001ZM12.5 10.5001C12.5 9.96966 12.2893 9.46096 11.9142 9.08588C11.5391 8.71081 11.0304 8.5001 10.5 8.5001C9.96957 8.5001 9.46086 8.71081 9.08579 9.08588C8.71071 9.46096 8.5 9.96966 8.5 10.5001C8.5 11.0305 8.71071 11.5392 9.08579 11.9143C9.46086 12.2894 9.96957 12.5001 10.5 12.5001C11.0304 12.5001 11.5391 12.2894 11.9142 11.9143C12.2893 11.5392 12.5 11.0305 12.5 10.5001Z" fill="black"/>
</svg>
