<svg width="24" height="24" viewBox="0 0 24 24" fill="none" xmlns="http://www.w3.org/2000/svg">
<path d="M9.25 4C8.55937 4 8 4.55937 8 5.25V11.5V11.7188V14C8 14.275 7.775 14.5 7.5 14.5C7.225 14.5 7 14.275 7 14V12.2594C6.9375 12.3031 6.87813 12.3531 6.81875 12.4L6.21875 12.9C5.7625 13.2812 5.5 13.8438 5.5 14.4375V15.625C5.5 16.8125 6.02812 17.9375 6.94062 18.6969L7.10938 18.8375C8.00937 19.5875 9.14062 19.9969 10.3094 19.9969H14C16.2094 19.9969 18 18.2062 18 15.9969V14V13C18 12.1719 17.3281 11.5 16.5 11.5C16.1125 11.5 15.7625 11.6469 15.4969 11.8844C15.4375 11.1094 14.7906 10.5 14 10.5C13.6125 10.5 13.2625 10.6469 12.9969 10.8844C12.9375 10.1094 12.2906 9.5 11.5 9.5C11.1156 9.5 10.7656 9.64375 10.5 9.88125V5.25C10.5 4.55937 9.94063 4 9.25 4Z" fill="black"/>
</svg>
