<svg width="24" height="24" viewBox="0 0 24 24" fill="none" xmlns="http://www.w3.org/2000/svg">
<path d="M12.5 4.75C12.5 4.33437 12.1656 4 11.75 4C11.3344 4 11 4.33437 11 4.75V4.9125C11 5.975 11.45 6.9875 12.2406 7.7L12.7531 8.1625C13.2281 8.59062 13.4969 9.19688 13.4969 9.83437V10.25C13.4969 10.6656 13.8313 11 14.2469 11C14.6625 11 14.9969 10.6656 14.9969 10.25V9.8375C14.9969 8.775 14.5469 7.7625 13.7563 7.05L13.2437 6.5875C12.7719 6.15938 12.5 5.55313 12.5 4.9125V4.75ZM4 14V14.5V18C4 19.1031 4.89688 20 6 20H18C19.1031 20 20 19.1031 20 18V14C20 12.8969 19.1031 12 18 12H12.6656C12.2344 12 11.8125 11.8594 11.4656 11.6L8.8 9.6C8.28125 9.20937 7.65 9 7 9C5.34375 9 4 10.3438 4 12V14ZM8 14.5V17.5C8 17.775 7.775 18 7.5 18C7.225 18 7 17.775 7 17.5V14.5C7 14.225 7.225 14 7.5 14C7.775 14 8 14.225 8 14.5ZM10.5 14C10.775 14 11 14.225 11 14.5V17.5C11 17.775 10.775 18 10.5 18C10.225 18 10 17.775 10 17.5V14.5C10 14.225 10.225 14 10.5 14ZM14 14.5V17.5C14 17.775 13.775 18 13.5 18C13.225 18 13 17.775 13 17.5V14.5C13 14.225 13.225 14 13.5 14C13.775 14 14 14.225 14 14.5ZM16.5 14C16.775 14 17 14.225 17 14.5V17.5C17 17.775 16.775 18 16.5 18C16.225 18 16 17.775 16 17.5V14.5C16 14.225 16.225 14 16.5 14ZM15.25 4C14.8344 4 14.5 4.33437 14.5 4.75V4.9125C14.5 5.975 14.95 6.9875 15.7406 7.7L16.2531 8.1625C16.7281 8.59062 16.9969 9.19688 16.9969 9.83437V10.25C16.9969 10.6656 17.3313 11 17.7469 11C18.1625 11 18.4969 10.6656 18.4969 10.25V9.8375C18.4969 8.775 18.0469 7.7625 17.2563 7.05L16.7437 6.5875C16.2719 6.15938 16 5.55313 16 4.9125V4.75C16 4.33437 15.6656 4 15.25 4ZM6 8C6.53043 8 7.03914 7.78929 7.41421 7.41421C7.78929 7.03914 8 6.53043 8 6C8 5.46957 7.78929 4.96086 7.41421 4.58579C7.03914 4.21071 6.53043 4 6 4C5.46957 4 4.96086 4.21071 4.58579 4.58579C4.21071 4.96086 4 5.46957 4 6C4 6.53043 4.21071 7.03914 4.58579 7.41421C4.96086 7.78929 5.46957 8 6 8Z" fill="black"/>
</svg>
