<svg width="24" height="24" viewBox="0 0 24 24" fill="none" xmlns="http://www.w3.org/2000/svg">
<path d="M4.4875 13.3867L10.1344 18.6586C10.3688 18.8773 10.6781 18.9992 11 18.9992C11.3219 18.9992 11.6313 18.8773 11.8656 18.6586L11.9469 18.5836C11.35 17.7054 11 16.6429 11 15.4992C11 12.4617 13.4625 9.99919 16.5 9.99919C17.3844 9.99919 18.2188 10.2086 18.9594 10.5773C18.9875 10.3742 19 10.1711 19 9.96482V9.78357C19 7.59919 17.4219 5.73669 15.2688 5.37732C13.8438 5.13982 12.3937 5.60544 11.375 6.62419L11 6.99919L10.625 6.62419C9.60625 5.60544 8.15625 5.13982 6.73125 5.37732C4.57812 5.73669 3 7.59919 3 9.78357V9.96482C3 11.2617 3.5375 12.5023 4.4875 13.3867ZM16.5 19.9992C17.6935 19.9992 18.8381 19.5251 19.682 18.6812C20.5259 17.8373 21 16.6927 21 15.4992C21 14.3057 20.5259 13.1611 19.682 12.3172C18.8381 11.4733 17.6935 10.9992 16.5 10.9992C15.3065 10.9992 14.1619 11.4733 13.318 12.3172C12.4741 13.1611 12 14.3057 12 15.4992C12 16.6927 12.4741 17.8373 13.318 18.6812C14.1619 19.5251 15.3065 19.9992 16.5 19.9992ZM17.9969 12.9679C18.1312 13.0836 18.1656 13.2773 18.0781 13.4336L17.1375 15.1242H18.25C18.4125 15.1242 18.5562 15.2273 18.6062 15.3804C18.6562 15.5336 18.6031 15.7023 18.475 15.7992L15.475 18.0492C15.3344 18.1554 15.1375 18.1492 15.0031 18.0304C14.8688 17.9117 14.8344 17.7211 14.9219 17.5648L15.8625 15.8742H14.75C14.5875 15.8742 14.4438 15.7711 14.3938 15.6179C14.3438 15.4648 14.3969 15.2961 14.525 15.1992L17.525 12.9492C17.6656 12.8429 17.8625 12.8492 17.9969 12.9679Z" fill="black"/>
</svg>
