<svg width="24" height="24" viewBox="0 0 24 24" fill="none" xmlns="http://www.w3.org/2000/svg">
<path d="M4.5 4C3.67188 4 3 4.67188 3 5.5V12H7.5C7.775 12 8 12.225 8 12.5C8 12.775 7.775 13 7.5 13H3V15H7.5C7.775 15 8 15.225 8 15.5C8 15.775 7.775 16 7.5 16H3V18.5C3 19.3281 3.67188 20 4.5 20H11.3094C11.1125 19.6812 11 19.3062 11 18.9031C11 17.4375 11.8062 16.1594 13 15.4906V12.4937V5.5C13 4.67188 12.3281 4 11.5 4H4.5ZM7.75 6H8.25C8.525 6 8.75 6.225 8.75 6.5V7.25H9.5C9.775 7.25 10 7.475 10 7.75V8.25C10 8.525 9.775 8.75 9.5 8.75H8.75V9.5C8.75 9.775 8.525 10 8.25 10H7.75C7.475 10 7.25 9.775 7.25 9.5V8.75H6.5C6.225 8.75 6 8.525 6 8.25V7.75C6 7.475 6.225 7.25 6.5 7.25H7.25V6.5C7.25 6.225 7.475 6 7.75 6ZM19 12.5C19 11.837 18.7366 11.2011 18.2678 10.7322C17.7989 10.2634 17.163 10 16.5 10C15.837 10 15.2011 10.2634 14.7322 10.7322C14.2634 11.2011 14 11.837 14 12.5C14 13.163 14.2634 13.7989 14.7322 14.2678C15.2011 14.7366 15.837 15 16.5 15C17.163 15 17.7989 14.7366 18.2678 14.2678C18.7366 13.7989 19 13.163 19 12.5ZM12 18.9094C12 19.5125 12.4875 20 13.0906 20H19.9094C20.5125 20 21 19.5125 21 18.9094C21 17.3031 19.6969 16 18.0906 16H14.9094C13.3031 16 12 17.3031 12 18.9094Z" fill="black"/>
</svg>
