<svg width="24" height="24" viewBox="0 0 24 24" fill="none" xmlns="http://www.w3.org/2000/svg">
<path d="M12.8438 13.8438L17.7937 7.125L16.8781 6.20625L10.1562 11.1562L12.8438 13.8438ZM7 14V11.7594C7 11.2813 7.225 10.8344 7.60938 10.5531L16.1438 4.2625C16.375 4.09062 16.6563 4 16.9438 4C17.3 4 17.6438 4.14062 17.8969 4.39375L19.6094 6.10625C19.8625 6.35938 20.0031 6.7 20.0031 7.05938C20.0031 7.34688 19.9125 7.62812 19.7406 7.85938L13.45 16.3906C13.1687 16.775 12.7187 17 12.2437 17H10L9.20625 17.7937C8.81563 18.1844 8.18125 18.1844 7.79063 17.7937L6.20625 16.2094C5.81562 15.8188 5.81562 15.1844 6.20625 14.7937L7 14ZM3.21875 18.5719L5.1875 16.6031L7.39375 18.8094L6.425 19.7781C6.28437 19.9187 6.09375 19.9969 5.89375 19.9969H3.75C3.33437 19.9969 3 19.6625 3 19.2469V19.1C3 18.9 3.07812 18.7094 3.21875 18.5688V18.5719Z" fill="black"/>
</svg>
