<svg width="24" height="24" viewBox="0 0 24 24" fill="none" xmlns="http://www.w3.org/2000/svg">
<path d="M5.08125 13H6.5C6.775 13 7 12.775 7 12.5V6.25C7 5.55937 7.55937 5 8.25 5C8.94063 5 9.5 5.55937 9.5 6.25V10.375C9.5 10.7188 9.78125 11 10.125 11C10.4688 11 10.75 10.7188 10.75 10.375V5.25C10.75 4.55937 11.3094 4 12 4C12.6906 4 13.25 4.55937 13.25 5.25V10.375C13.25 10.7188 13.5312 11 13.875 11C14.2188 11 14.5 10.7188 14.5 10.375V6.25C14.5 5.55937 15.0594 5 15.75 5C16.4406 5 17 5.55937 17 6.25V12.5C17 12.775 17.225 13 17.5 13H18.9187C19.5156 13 20 13.4844 20 14.0813C20 14.35 19.9 14.6094 19.7188 14.8094L17.0188 17.7812C15.7344 19.1938 13.9125 20 12 20C10.0875 20 8.26875 19.1938 6.98125 17.7812L4.28125 14.8094C4.1 14.6094 4 14.35 4 14.0813C4 13.4844 4.48437 13 5.08125 13ZM12 13C10.8 13 9.6 14.1188 9.16875 14.5688C9.05625 14.6844 9 14.8406 9 15C9 15.1594 9.05625 15.3156 9.16875 15.4312C9.6 15.8812 10.8 17 12 17C13.2 17 14.4 15.8812 14.8313 15.4312C14.9438 15.3156 15 15.1594 15 15C15 14.8406 14.9438 14.6844 14.8313 14.5688C14.4 14.1188 13.2 13 12 13ZM12 14C12.2652 14 12.5196 14.1054 12.7071 14.2929C12.8946 14.4804 13 14.7348 13 15C13 15.2652 12.8946 15.5196 12.7071 15.7071C12.5196 15.8946 12.2652 16 12 16C11.7348 16 11.4804 15.8946 11.2929 15.7071C11.1054 15.5196 11 15.2652 11 15C11 14.7348 11.1054 14.4804 11.2929 14.2929C11.4804 14.1054 11.7348 14 12 14Z" fill="black"/>
</svg>
