<svg width="24" height="24" viewBox="0 0 24 24" fill="none" xmlns="http://www.w3.org/2000/svg">
<path d="M9 6.70586V4.29023C6.10625 5.15273 4 7.83711 4 11.0059C4 12.5652 4.51875 14.0746 5.46563 15.2965C5.78438 15.709 6 16.2027 6 16.7277V18.9996C6 19.5527 6.44687 19.9996 7 19.9996H13C13.5531 19.9996 14 19.5527 14 18.9996V17.9996H16C17.1031 17.9996 18 17.1027 18 15.9996V13.9996H18.6313C19.3875 13.9996 20 13.3871 20 12.6309C20 12.3184 19.8937 12.0184 19.7 11.7746L18.3875 10.1309C18.1281 9.80898 17.9875 9.41211 17.9156 9.00586C17.425 6.24336 14.875 4.12148 12 4.00586V6.70586C12 7.09336 12.2312 7.43398 12.5437 7.65898C13.425 8.29336 14 9.33086 14 10.4996C14 12.434 12.4344 13.9996 10.5 13.9996C8.56562 13.9996 7 12.434 7 10.4996C7 9.33086 7.575 8.29336 8.45625 7.65898C8.76875 7.43398 9 7.09023 9 6.70586ZM9.5 10.4996C9.5 10.2344 9.60536 9.98004 9.79289 9.7925C9.98043 9.60497 10.2348 9.49961 10.5 9.49961C10.7652 9.49961 11.0196 9.60497 11.2071 9.7925C11.3946 9.98004 11.5 10.2344 11.5 10.4996C11.5 10.7648 11.3946 11.0192 11.2071 11.2067C11.0196 11.3943 10.7652 11.4996 10.5 11.4996C10.2348 11.4996 9.98043 11.3943 9.79289 11.2067C9.60536 11.0192 9.5 10.7648 9.5 10.4996ZM12.5 10.4996C12.5 9.96918 12.2893 9.46047 11.9142 9.0854C11.5391 8.71032 11.0304 8.49961 10.5 8.49961C9.96957 8.49961 9.46086 8.71032 9.08579 9.0854C8.71071 9.46047 8.5 9.96918 8.5 10.4996C8.5 11.03 8.71071 11.5388 9.08579 11.9138C9.46086 12.2889 9.96957 12.4996 10.5 12.4996C11.0304 12.4996 11.5391 12.2889 11.9142 11.9138C12.2893 11.5388 12.5 11.03 12.5 10.4996Z" fill="black"/>
</svg>
