<svg width="24" height="24" viewBox="0 0 24 24" fill="none" xmlns="http://www.w3.org/2000/svg">
<path d="M4 6.99922C4 6.44609 3.55313 5.99922 3 5.99922C2.44687 5.99922 2 6.44609 2 6.99922V11.9992V16.9992C2 17.5523 2.44687 17.9992 3 17.9992C3.55313 17.9992 4 17.5523 4 16.9992V12.9992H10V16.9992C10 17.5523 10.4469 17.9992 11 17.9992C11.5531 17.9992 12 17.5523 12 16.9992V11.9992V6.99922C12 6.44609 11.5531 5.99922 11 5.99922C10.4469 5.99922 10 6.44609 10 6.99922V10.9992H4V6.99922ZM14.5 5.99922C13.9469 5.99922 13.5 6.44609 13.5 6.99922C13.5 7.55234 13.9469 7.99922 14.5 7.99922H18.0844L15.2906 10.793C15.0031 11.0805 14.9187 11.5086 15.075 11.8836C15.2312 12.2586 15.5938 12.5023 16 12.5023H18.25C19.2156 12.5023 20 13.2867 20 14.2523C20 15.218 19.2156 16.0023 18.25 16.0023H16.2312C15.8656 16.0023 15.5531 15.7367 15.4906 15.3742L15.4844 15.3367C15.3938 14.793 14.8781 14.4242 14.3344 14.5148C13.7906 14.6055 13.4219 15.1211 13.5125 15.6648L13.5188 15.7023C13.7406 17.0273 14.8875 17.9992 16.2312 17.9992H18.25C20.3219 17.9992 22 16.3211 22 14.2492C22 12.2305 20.4062 10.5867 18.4094 10.5023L21.2062 7.70547C21.4937 7.41797 21.5781 6.98984 21.4219 6.61484C21.2656 6.23984 20.9031 5.99609 20.4969 5.99609H14.5V5.99922Z" fill="black"/>
</svg>
