<svg width="24" height="24" viewBox="0 0 24 24" fill="none" xmlns="http://www.w3.org/2000/svg">
<path d="M4 11.0062C4 7.14375 7.13125 4 11 4H11.75C14.725 4 17.4125 6.16562 17.9156 9.00625C17.9875 9.4125 18.1281 9.80937 18.3875 10.1312L19.7 11.775C19.8938 12.0188 20 12.3188 20 12.6313C20 13.3875 19.3875 14 18.6313 14H18V16C18 17.1031 17.1031 18 16 18H14V19C14 19.5531 13.5531 20 13 20H7C6.44688 20 6 19.5531 6 19V16.7281C6 16.2062 5.78438 15.7125 5.46563 15.2969C4.51875 14.075 4 12.5656 4 11.0062ZM7.5 9.9125C7.5 10.4187 7.70312 10.9062 8.05937 11.2656L10.6438 13.85C10.8375 14.0438 11.1562 14.0438 11.35 13.85L13.9344 11.2656C14.2937 10.9062 14.4937 10.4187 14.4937 9.9125C14.4937 8.85625 13.6375 7.99688 12.5781 7.99688C12.0719 7.99688 11.5844 8.2 11.225 8.55625L10.9938 8.7875L10.7625 8.55625C10.4031 8.19688 9.91563 7.99688 9.40938 7.99688C8.35313 7.99688 7.49375 8.85312 7.49375 9.9125H7.5Z" fill="black"/>
</svg>
