<svg width="24" height="24" viewBox="0 0 24 24" fill="none" xmlns="http://www.w3.org/2000/svg">
<path d="M4 18.5V13.9031C4 10.5156 6.13438 7.49374 9.32812 6.36249L14.6313 4.48436C15.3 4.24686 16 4.74374 16 5.44999C16 5.79374 15.8281 6.11249 15.5437 6.30311L14.5 6.99999C16.0031 6.99999 17.35 7.93124 17.8781 9.34061L19.3969 13.3875C19.7656 14.3687 19.525 15.475 18.7844 16.2156C18.2844 16.7156 17.6031 17 16.8938 17H16.7875C15.9719 17 15.1969 16.6375 14.675 16.0094L13.6656 14.8C13.3 14.9281 12.9094 15 12.5 15H12.4969C12.3 15 12.1062 14.9844 11.9156 14.9531C11.8031 14.9344 11.6906 14.9094 11.5813 14.8812C10.6781 14.6375 9.92188 14.0437 9.4625 13.25C9.325 13.0125 9.01875 12.9281 8.77812 13.0687C8.5375 13.2094 8.45625 13.5125 8.59688 13.7531C9.34688 15.05 10.7312 15.9406 12.325 16L13.8 18.2125C13.925 18.4031 13.9937 18.625 13.9937 18.85C13.9937 19.4844 13.4781 20 12.8438 20H5.5C4.67188 20 4 19.3281 4 18.5ZM14.25 11C14.3485 11 14.446 10.9806 14.537 10.9429C14.628 10.9052 14.7107 10.85 14.7803 10.7803C14.85 10.7107 14.9052 10.628 14.9429 10.537C14.9806 10.446 15 10.3485 15 10.25C15 10.1515 14.9806 10.054 14.9429 9.96297C14.9052 9.87198 14.85 9.7893 14.7803 9.71966C14.7107 9.65001 14.628 9.59477 14.537 9.55708C14.446 9.51938 14.3485 9.49999 14.25 9.49999C14.1515 9.49999 14.054 9.51938 13.963 9.55708C13.872 9.59477 13.7893 9.65001 13.7197 9.71966C13.65 9.7893 13.5948 9.87198 13.5571 9.96297C13.5194 10.054 13.5 10.1515 13.5 10.25C13.5 10.3485 13.5194 10.446 13.5571 10.537C13.5948 10.628 13.65 10.7107 13.7197 10.7803C13.7893 10.85 13.872 10.9052 13.963 10.9429C14.054 10.9806 14.1515 11 14.25 11Z" fill="black"/>
</svg>
