<svg width="24" height="24" viewBox="0 0 24 24" fill="none" xmlns="http://www.w3.org/2000/svg">
<path d="M19 7C19.5531 7 20 7.44687 20 8C20 8.55312 19.5531 9 19 9H12.5V7H19ZM14 13C14.5531 13 15 13.4469 15 14C15 14.5531 14.5531 15 14 15H12C11.4469 15 11 14.5531 11 14C11 13.4469 11.4469 13 12 13H14ZM16 11C16 11.5531 15.5531 12 15 12H13.5C12.9469 12 12.5 11.5531 12.5 11C12.5 10.4469 12.9469 10 13.5 10H15C15.5531 10 16 10.4469 16 11ZM13 16C13.5531 16 14 16.4469 14 17C14 17.5531 13.5531 18 13 18H11C10.4469 18 10 17.5531 10 17C10 16.4469 10.4469 16 11 16H13ZM10.25 13H10.2688C10.1 13.2937 10 13.6344 10 14C10 14.4125 10.125 14.7937 10.3375 15.1125C9.55938 15.3844 9 16.1281 9 17C9 17.3656 9.09688 17.7063 9.26875 18H9C6.2375 18 4 15.7625 4 13V11.0719C4 9.74688 4.52813 8.475 5.46563 7.5375L5.82812 7.175C6.57812 6.42187 7.59687 6 8.65625 6H9.5C10.6031 6 11.5 6.89688 11.5 8V10.75C11.5 11.4406 10.9406 12 10.25 12C9.55937 12 9 11.4406 9 10.75V9C9 8.725 8.775 8.5 8.5 8.5C8.225 8.5 8 8.725 8 9V10.75C8 11.9938 9.00625 13 10.25 13Z" fill="black"/>
</svg>
