<svg width="24" height="24" viewBox="0 0 24 24" fill="none" xmlns="http://www.w3.org/2000/svg">
<path d="M4 7.5C4 6.67188 4.67188 6 5.5 6H9H11.5H12.9531C14.1031 6 15.1781 6.5625 15.8313 7.50625L19.3781 12.6313C19.7844 13.2156 20 13.9125 20 14.625V15V15.5V17C20 17.5531 19.5531 18 19 18H16C15.4469 18 15 17.5531 15 17V16.5688L12.5594 15H11.5H9H7.5C6.67188 15 6 14.3281 6 13.5C6 12.6719 6.67188 12 7.5 12H9H11.5C12.3281 12 13 11.3281 13 10.5C13 9.67188 12.3281 9 11.5 9H9H5.5C4.67188 9 4 8.32812 4 7.5Z" fill="black"/>
</svg>
