<svg width="24" height="24" viewBox="0 0 24 24" fill="none" xmlns="http://www.w3.org/2000/svg">
<path d="M5.4875 13.3867L11.1344 18.6586C11.3688 18.8773 11.6781 18.9992 12 18.9992C12.3219 18.9992 12.6313 18.8773 12.8656 18.6586L18.5125 13.3867C19.4625 12.5023 20 11.2617 20 9.96482V9.78357C20 7.59919 18.4219 5.73669 16.2688 5.37732C14.8438 5.13982 13.3937 5.60544 12.375 6.62419L12 6.99919L11.625 6.62419C10.6063 5.60544 9.15625 5.13982 7.73125 5.37732C5.57812 5.73669 4 7.59919 4 9.78357V9.96482C4 11.2617 4.5375 12.5023 5.4875 13.3867Z" fill="black"/>
</svg>
