<svg width="24" height="24" viewBox="0 0 24 24" fill="none" xmlns="http://www.w3.org/2000/svg">
<path d="M4.4875 13.3875L10.1344 18.6594C10.3688 18.8781 10.6781 19 11 19C11.3219 19 11.6313 18.8781 11.8656 18.6594L11.9469 18.5844C11.35 17.7062 11 16.6437 11 15.5C11 12.4625 13.4625 9.99998 16.5 9.99998C17.3844 9.99998 18.2188 10.2094 18.9594 10.5781C18.9875 10.375 19 10.1719 19 9.96561V9.78436C19 7.59998 17.4219 5.73748 15.2688 5.37811C13.8438 5.14061 12.3937 5.60623 11.375 6.62498L11 6.99998L10.625 6.62498C9.60625 5.60623 8.15625 5.14061 6.73125 5.37811C4.57812 5.73748 3 7.59998 3 9.78436V9.96561C3 11.2625 3.5375 12.5031 4.4875 13.3875ZM16.5 20C17.6935 20 18.8381 19.5259 19.682 18.682C20.5259 17.8381 21 16.6935 21 15.5C21 14.3065 20.5259 13.1619 19.682 12.318C18.8381 11.4741 17.6935 11 16.5 11C15.3065 11 14.1619 11.4741 13.318 12.318C12.4741 13.1619 12 14.3065 12 15.5C12 16.6935 12.4741 17.8381 13.318 18.682C14.1619 19.5259 15.3065 20 16.5 20ZM18.3531 14.3531L17.2063 15.5L18.3531 16.6469C18.5469 16.8406 18.5469 17.1594 18.3531 17.3531C18.1594 17.5469 17.8406 17.5469 17.6469 17.3531L16.5 16.2062L15.3531 17.3531C15.1594 17.5469 14.8406 17.5469 14.6469 17.3531C14.4531 17.1594 14.4531 16.8406 14.6469 16.6469L15.7937 15.5L14.6469 14.3531C14.4531 14.1594 14.4531 13.8406 14.6469 13.6469C14.8406 13.4531 15.1594 13.4531 15.3531 13.6469L16.5 14.7937L17.6469 13.6469C17.8406 13.4531 18.1594 13.4531 18.3531 13.6469C18.5469 13.8406 18.5469 14.1594 18.3531 14.3531Z" fill="black"/>
</svg>
