<svg width="24" height="24" viewBox="0 0 24 24" fill="none" xmlns="http://www.w3.org/2000/svg">
<path d="M13 5C13 4.44687 12.5531 4 12 4C11.4469 4 11 4.44687 11 5V11.5C11 11.775 10.775 12 10.5 12C10.225 12 10 11.775 10 11.5V6C10 5.44687 9.55312 5 9 5C8.44687 5 8 5.44687 8 6V14.5C8 14.5469 8 14.5969 8.00312 14.6438L6.1125 12.8438C5.6125 12.3688 4.82187 12.3875 4.34375 12.8875C3.86562 13.3875 3.8875 14.1781 4.3875 14.6562L7.9 18C9.24687 19.2844 11.0375 20 12.9 20H13.5C16.5375 20 19 17.5375 19 14.5V8C19 7.44687 18.5531 7 18 7C17.4469 7 17 7.44687 17 8V11.5C17 11.775 16.775 12 16.5 12C16.225 12 16 11.775 16 11.5V6C16 5.44687 15.5531 5 15 5C14.4469 5 14 5.44687 14 6V11.5C14 11.775 13.775 12 13.5 12C13.225 12 13 11.775 13 11.5V5Z" fill="black"/>
</svg>
