<svg width="24" height="24" viewBox="0 0 24 24" fill="none" xmlns="http://www.w3.org/2000/svg">
<path d="M10.5 5C11.0531 5 11.5 5.44687 11.5 6V8.5C11.5 9.58125 11.85 10.6344 12.5 11.5L13.1 12.3C14.0094 13.5125 14.5 14.9844 14.5 16.5V18C14.5 18.5531 14.0531 19 13.5 19C12.9469 19 12.5 18.5531 12.5 18V16.5C12.5 15.4188 12.15 14.3656 11.5 13.5L10.9 12.7C9.99063 11.4875 9.5 10.0156 9.5 8.5V6C9.5 5.44687 9.94687 5 10.5 5ZM6 7C6.55313 7 7 7.44687 7 8V9C7 10.0812 7.35 11.1344 8 12L8.6 12.8C9.50937 14.0125 10 15.4844 10 17V18C10 18.5531 9.55313 19 9 19C8.44687 19 8 18.5531 8 18V17C8 15.9188 7.65 14.8656 7 14L6.4 13.2C5.49062 11.9875 5 10.5156 5 9V8C5 7.44687 5.44687 7 6 7ZM16 8V9C16 10.0812 16.35 11.1344 17 12L17.6 12.8C18.5094 14.0125 19 15.4844 19 17V18C19 18.5531 18.5531 19 18 19C17.4469 19 17 18.5531 17 18V17C17 15.9188 16.65 14.8656 16 14L15.4 13.2C14.4906 11.9875 14 10.5156 14 9V8C14 7.44687 14.4469 7 15 7C15.5531 7 16 7.44687 16 8Z" fill="black"/>
</svg>
