<svg width="24" height="24" viewBox="0 0 24 24" fill="none" xmlns="http://www.w3.org/2000/svg">
<path d="M10.9999 4C11.5531 4 11.9999 4.44687 11.9999 5V11.5H9.99993V5C9.99993 4.44687 10.4468 4 10.9999 4ZM13.9999 9C14.5531 9 14.9999 9.44687 14.9999 10V12C14.9999 12.5531 14.5531 13 13.9999 13C13.4468 13 12.9999 12.5531 12.9999 12V10C12.9999 9.44687 13.4468 9 13.9999 9ZM15.9999 11C15.9999 10.4469 16.4468 10 16.9999 10C17.5531 10 17.9999 10.4469 17.9999 11V13C17.9999 13.5531 17.5531 14 16.9999 14C16.4468 14 15.9999 13.5531 15.9999 13V11ZM6.91555 5.6L9.4968 11.5H7.31555L5.0843 6.4C4.86243 5.89375 5.09368 5.30625 5.59993 5.08438C6.10618 4.8625 6.6968 5.09375 6.91555 5.6ZM7.75931 12.5156L7.75305 12.5H9.93743H10.7499C11.4406 12.5 11.9999 13.0594 11.9999 13.75C11.9999 14.4406 11.4406 15 10.7499 15H8.99993C8.72493 15 8.49993 15.225 8.49993 15.5C8.49993 15.775 8.72493 16 8.99993 16H10.7499C11.9937 16 12.9999 14.9937 12.9999 13.75V13.7312C13.2937 13.9 13.6343 14 13.9999 14C14.4124 14 14.7937 13.875 15.1124 13.6625C15.3843 14.4406 16.1281 15 16.9999 15C17.3656 15 17.7062 14.9031 17.9999 14.7312V15C17.9999 17.7625 15.7624 20 12.9999 20H11.0718C9.7468 20 8.47493 19.4719 7.53743 18.5344L7.17493 18.1719C6.4218 17.4219 5.99993 16.4031 5.99993 15.3438V14.5C5.99993 13.4781 6.76868 12.6344 7.75931 12.5156Z" fill="black"/>
</svg>
