<svg width="24" height="24" viewBox="0 0 24 24" fill="none" xmlns="http://www.w3.org/2000/svg">
<path d="M10.8875 7.24297L11.7312 8.74297C11.8187 8.89922 11.9875 8.99922 12.1656 8.99922H13.8313C14.0125 8.99922 14.1781 8.90234 14.2656 8.74297L15.1094 7.24297C15.1938 7.08984 15.1938 6.90547 15.1094 6.75234L14.2656 5.25234C14.1781 5.09609 14.0094 4.99609 13.8313 4.99609H12.1687C11.9875 4.99609 11.8219 5.09297 11.7344 5.25234L10.8906 6.75234C10.8062 6.90547 10.8062 7.08984 10.8906 7.24297H10.8875ZM5.13438 6.71797C4.34688 5.93047 3 6.48984 3 7.60234V17.4992C3 18.8805 4.11875 19.9992 5.5 19.9992H15.3969C16.5094 19.9992 17.0688 18.6523 16.2812 17.8648L5.13438 6.71797ZM18.7563 16.6117C18.9094 16.6961 19.0938 16.6961 19.2469 16.6117L20.7469 15.768C20.9031 15.6805 21.0031 15.5117 21.0031 15.3336V13.668C21.0031 13.4867 20.9063 13.3211 20.7469 13.2336L19.2469 12.3898C19.0938 12.3055 18.9094 12.3055 18.7563 12.3898L17.2563 13.2336C17.1 13.3211 17 13.4898 17 13.668V15.3336C17 15.5148 17.0969 15.6805 17.2563 15.768L18.7563 16.6117ZM9 5.99922C9 5.734 8.89464 5.47965 8.70711 5.29211C8.51957 5.10458 8.26522 4.99922 8 4.99922C7.73478 4.99922 7.48043 5.10458 7.29289 5.29211C7.10536 5.47965 7 5.734 7 5.99922C7 6.26444 7.10536 6.51879 7.29289 6.70633C7.48043 6.89386 7.73478 6.99922 8 6.99922C8.26522 6.99922 8.51957 6.89386 8.70711 6.70633C8.89464 6.51879 9 6.26444 9 5.99922ZM15 12.9992C15.2652 12.9992 15.5196 12.8939 15.7071 12.7063C15.8946 12.5188 16 12.2644 16 11.9992C16 11.734 15.8946 11.4796 15.7071 11.2921C15.5196 11.1046 15.2652 10.9992 15 10.9992C14.7348 10.9992 14.4804 11.1046 14.2929 11.2921C14.1054 11.4796 14 11.734 14 11.9992C14 12.2644 14.1054 12.5188 14.2929 12.7063C14.4804 12.8939 14.7348 12.9992 15 12.9992Z" fill="black"/>
</svg>
