<svg width="24" height="24" viewBox="0 0 24 24" fill="none" xmlns="http://www.w3.org/2000/svg">
<path d="M16.4469 4.10626C16.9406 4.35313 17.1406 4.95313 16.8938 5.44688L10.1719 18.8938C9.83437 19.5719 9.14062 20 8.38438 20H7H6H5V19V15H9.88125L15.1062 4.55313C15.3531 4.05938 15.9531 3.85938 16.4469 4.10626ZM2 16C2 15.4469 2.44687 15 3 15H4V20H3C2.44687 20 2 19.5531 2 19V16ZM15 17H21C21.5531 17 22 17.4469 22 18V19C22 19.5531 21.5531 20 21 20H15C14.4469 20 14 19.5531 14 19V18C14 17.4469 14.4469 17 15 17Z" fill="black"/>
</svg>
