<svg width="24" height="24" viewBox="0 0 24 24" fill="none" xmlns="http://www.w3.org/2000/svg">
<path d="M4 7C4 6.44687 3.55313 6 3 6C2.44687 6 2 6.44687 2 7V12V17C2 17.5531 2.44687 18 3 18C3.55313 18 4 17.5531 4 17V13H10V17C10 17.5531 10.4469 18 11 18C11.5531 18 12 17.5531 12 17V12V7C12 6.44687 11.5531 6 11 6C10.4469 6 10 6.44687 10 7V11H4V7ZM16.0594 8.48125C16.4219 8.17187 16.8844 8 17.3625 8H17.5C18.6031 8 19.5 8.89688 19.5 10V10.1813C19.5 10.7406 19.2656 11.2781 18.85 11.6562L13.825 16.2625C13.5219 16.5406 13.4188 16.9781 13.5688 17.3625C13.7188 17.7469 14.0875 18 14.5 18H21C21.5531 18 22 17.5531 22 17C22 16.4469 21.5531 16 21 16H17.0719L20.2031 13.1281C21.0281 12.3719 21.5 11.3 21.5 10.1781V10C21.5 7.79063 19.7094 6 17.5 6H17.3594C16.4031 6 15.4813 6.34063 14.7563 6.9625L13.85 7.74062C13.4313 8.1 13.3813 8.73125 13.7406 9.15C14.1 9.56875 14.7312 9.61875 15.15 9.25938L16.0562 8.48125H16.0594Z" fill="black"/>
</svg>
