<svg width="24" height="24" viewBox="0 0 24 24" fill="none" xmlns="http://www.w3.org/2000/svg">
<path d="M4.53428 13.125C4.13115 12.4282 4.13115 11.5719 4.53428 10.875L7.29365 6.09692C7.69678 5.40005 8.4374 4.97192 9.24365 4.97192H14.7593C15.5624 4.97192 16.3062 5.40005 16.7093 6.09692L19.4655 10.875C19.8687 11.5719 19.8687 12.4282 19.4655 13.125L16.7062 17.9032C16.303 18.6 15.5624 19.0282 14.7562 19.0282H9.24053C8.4374 19.0282 7.69365 18.6 7.29053 17.9032L4.53428 13.125ZM11.9999 8.00005C11.5843 8.00005 11.2499 8.33442 11.2499 8.75005V12.25C11.2499 12.6657 11.5843 13 11.9999 13C12.4155 13 12.7499 12.6657 12.7499 12.25V8.75005C12.7499 8.33442 12.4155 8.00005 11.9999 8.00005ZM12.9999 15C12.9999 14.7348 12.8945 14.4805 12.707 14.2929C12.5195 14.1054 12.2651 14 11.9999 14C11.7347 14 11.4803 14.1054 11.2928 14.2929C11.1053 14.4805 10.9999 14.7348 10.9999 15C10.9999 15.2653 11.1053 15.5196 11.2928 15.7072C11.4803 15.8947 11.7347 16 11.9999 16C12.2651 16 12.5195 15.8947 12.707 15.7072C12.8945 15.5196 12.9999 15.2653 12.9999 15Z" fill="black"/>
</svg>
