<svg width="24" height="24" viewBox="0 0 24 24" fill="none" xmlns="http://www.w3.org/2000/svg">
<path d="M4.4875 13.3867L10.1344 18.6586C10.3688 18.8773 10.6781 18.9992 11 18.9992C11.3219 18.9992 11.6313 18.8773 11.8656 18.6586L11.9469 18.5836C11.35 17.7054 11 16.6429 11 15.4992C11 12.4617 13.4625 9.99919 16.5 9.99919C17.3844 9.99919 18.2188 10.2086 18.9594 10.5773C18.9875 10.3742 19 10.1711 19 9.96482V9.78357C19 7.59919 17.4219 5.73669 15.2688 5.37732C13.8438 5.13982 12.3937 5.60544 11.375 6.62419L11 6.99919L10.625 6.62419C9.60625 5.60544 8.15625 5.13982 6.73125 5.37732C4.57812 5.73669 3 7.59919 3 9.78357V9.96482C3 11.2617 3.5375 12.5023 4.4875 13.3867ZM16.5 19.9992C17.6935 19.9992 18.8381 19.5251 19.682 18.6812C20.5259 17.8373 21 16.6927 21 15.4992C21 14.3057 20.5259 13.1611 19.682 12.3172C18.8381 11.4733 17.6935 10.9992 16.5 10.9992C15.3065 10.9992 14.1619 11.4733 13.318 12.3172C12.4741 13.1611 12 14.3057 12 15.4992C12 16.6927 12.4741 17.8373 13.318 18.6812C14.1619 19.5251 15.3065 19.9992 16.5 19.9992ZM16.5 16.9992C16.6989 16.9992 16.8897 17.0782 17.0303 17.2189C17.171 17.3595 17.25 17.5503 17.25 17.7492C17.25 17.9481 17.171 18.1389 17.0303 18.2795C16.8897 18.4202 16.6989 18.4992 16.5 18.4992C16.3011 18.4992 16.1103 18.4202 15.9697 18.2795C15.829 18.1389 15.75 17.9481 15.75 17.7492C15.75 17.5503 15.829 17.3595 15.9697 17.2189C16.1103 17.0782 16.3011 16.9992 16.5 16.9992ZM16.5 12.4992C16.775 12.4992 17 12.7242 17 12.9992V15.4992C17 15.7742 16.775 15.9992 16.5 15.9992C16.225 15.9992 16 15.7742 16 15.4992V12.9992C16 12.7242 16.225 12.4992 16.5 12.4992Z" fill="black"/>
</svg>
