<svg width="24" height="24" viewBox="0 0 24 24" fill="none" xmlns="http://www.w3.org/2000/svg">
<path d="M13.1531 19.4844C12.4562 19.8875 11.6 19.8875 10.9031 19.4844L6.125 16.725C5.42813 16.325 5 15.5813 5 14.7781V9.25939C5 8.45626 5.42813 7.71251 6.125 7.30939L10.9031 4.55314C11.6 4.15001 12.4562 4.15001 13.1531 4.55314L17.9312 7.31251C18.6281 7.71564 19.0562 8.45626 19.0562 9.26251V14.7781C19.0562 15.5813 18.6281 16.325 17.9312 16.7281L13.1531 19.4844ZM13.5 7.85939C13.5 7.68126 13.4031 7.51564 13.2469 7.42501L11.7531 6.57189C11.6906 6.53439 11.6188 6.50939 11.5406 6.50314C11.525 6.50314 11.5094 6.50001 11.4969 6.50001H11.4938C11.3906 6.50001 11.2969 6.53126 11.2188 6.58126C11.1719 6.61251 11.1281 6.65001 11.0938 6.69689C11.0563 6.74376 11.0281 6.80001 11.0125 6.85939C11 6.90939 10.9938 6.95626 10.9938 7.00626V12.0188V16.5188C10.9938 16.7938 11.2188 17.0188 11.4938 17.0188C11.7688 17.0188 11.9938 16.7938 11.9938 16.5188V12.5188H12.9938C13.2688 12.5188 13.4937 12.2938 13.4937 12.0188C13.4937 11.7438 13.2688 11.5188 12.9938 11.5188H11.9938V7.86251L12.75 8.29376C13.0844 8.48439 13.4969 8.24376 13.4969 7.85939H13.5ZM14 8.71564C14 8.89376 14.0969 9.05939 14.2531 9.15001L14.9969 9.57501V15.0188C14.9969 15.2938 15.2219 15.5188 15.4969 15.5188C15.7719 15.5188 15.9969 15.2938 15.9969 15.0188V10.1438L16.5031 10.4344C16.7438 10.5719 17.0469 10.4875 17.1844 10.2469C17.3219 10.0063 17.2375 9.70314 16.9969 9.56564L14.7469 8.28126C14.4125 8.09064 14 8.33126 14 8.71564ZM9.49375 8.01876C9.21875 8.01876 8.99375 8.24376 8.99375 8.51876V12.4375L7.96875 9.35939C7.89062 9.12814 7.65625 8.98439 7.41563 9.02501C7.175 9.06564 6.99688 9.27189 6.99688 9.51876V14.5188C6.99688 14.7938 7.22187 15.0188 7.49688 15.0188C7.77188 15.0188 7.99688 14.7938 7.99688 14.5188V12.6L9.02187 15.6781C9.1 15.9094 9.33437 16.0531 9.575 16.0125C9.81562 15.9719 9.99375 15.7656 9.99375 15.5188V8.51876C9.99375 8.24376 9.76875 8.01876 9.49375 8.01876Z" fill="black"/>
</svg>
