<svg width="24" height="24" viewBox="0 0 24 24" fill="none" xmlns="http://www.w3.org/2000/svg">
<path d="M5 7C5 6.44687 4.55313 6 4 6C3.44687 6 3 6.44687 3 7V12V17C3 17.5531 3.44687 18 4 18C4.55313 18 5 17.5531 5 17V13H11V17C11 17.5531 11.4469 18 12 18C12.5531 18 13 17.5531 13 17V12V7C13 6.44687 12.5531 6 12 6C11.4469 6 11 6.44687 11 7V11H5V7ZM19 7C19 6.65312 18.8219 6.33125 18.525 6.15C18.2281 5.96875 17.8625 5.95 17.5531 6.10625L15.5531 7.10625C15.0594 7.35313 14.8594 7.95313 15.1062 8.44688C15.3531 8.94063 15.9531 9.14063 16.4469 8.89375L17 8.61875V16H16C15.4469 16 15 16.4469 15 17C15 17.5531 15.4469 18 16 18H18H20C20.5531 18 21 17.5531 21 17C21 16.4469 20.5531 16 20 16H19V7Z" fill="black"/>
</svg>
