<svg width="24" height="24" viewBox="0 0 24 24" fill="none" xmlns="http://www.w3.org/2000/svg">
<path d="M6 10.5C6 7.26251 8.36562 4.57814 11.4656 4.08126C11.75 4.03751 12 4.26876 12 4.55939V6.53751C12 6.80001 12.2031 7.01564 12.4594 7.05314C15.5938 7.51564 18 10.2188 18 13.4813C18 16.7188 15.6344 19.4031 12.5344 19.9C12.2469 19.9469 12 19.7156 12 19.425V17.4438C12 17.1813 11.7969 16.9656 11.5406 16.9281C8.40625 16.4656 6 13.7625 6 10.5ZM15 12C15 11.2044 14.6839 10.4413 14.1213 9.87869C13.5587 9.31608 12.7956 9.00001 12 9.00001C11.2044 9.00001 10.4413 9.31608 9.87868 9.87869C9.31607 10.4413 9 11.2044 9 12C9 12.7957 9.31607 13.5587 9.87868 14.1213C10.4413 14.6839 11.2044 15 12 15C12.7956 15 13.5587 14.6839 14.1213 14.1213C14.6839 13.5587 15 12.7957 15 12ZM12 11C12.2652 11 12.5196 11.1054 12.7071 11.2929C12.8946 11.4804 13 11.7348 13 12C13 12.2652 12.8946 12.5196 12.7071 12.7071C12.5196 12.8947 12.2652 13 12 13C11.7348 13 11.4804 12.8947 11.2929 12.7071C11.1054 12.5196 11 12.2652 11 12C11 11.7348 11.1054 11.4804 11.2929 11.2929C11.4804 11.1054 11.7348 11 12 11Z" fill="black"/>
</svg>
