<svg width="24" height="24" viewBox="0 0 24 24" fill="none" xmlns="http://www.w3.org/2000/svg">
<path d="M13 7.41564V13C13 13.5531 12.5531 14 12 14C11.4469 14 11 13.5531 11 13V7.41564L9.70625 8.70939C9.31563 9.10001 8.68125 9.10001 8.29063 8.70939C7.9 8.31876 7.9 7.68439 8.29063 7.29376L11.2906 4.29376C11.6813 3.90314 12.3156 3.90314 12.7063 4.29376L15.7063 7.29376C16.0969 7.68439 16.0969 8.31876 15.7063 8.70939C15.3156 9.10001 14.6812 9.10001 14.2906 8.70939L13 7.41564ZM5.5 14H7.88125C8.25937 14 8.60625 14.2125 8.775 14.5531L9.22188 15.4469C9.39063 15.7844 9.7375 16 10.1156 16H13.8813C14.2594 16 14.6062 15.7875 14.775 15.4469L15.2219 14.5531C15.3906 14.2156 15.7375 14 16.1156 14H18.5C19.3281 14 20 14.6719 20 15.5V18.5C20 19.3281 19.3281 20 18.5 20H5.5C4.67188 20 4 19.3281 4 18.5V15.5C4 14.6719 4.67188 14 5.5 14Z" fill="black"/>
</svg>
