<svg width="24" height="24" viewBox="0 0 24 24" fill="none" xmlns="http://www.w3.org/2000/svg">
<path d="M2 11.5344C2 9.03125 4.03125 7 6.53438 7C7.7375 7 8.89062 7.47812 9.74062 8.32812L12 10.5844L14.2563 8.32812C15.1094 7.47812 16.2625 7 17.4656 7C19.9688 7 22 9.03125 22 11.5344V12.4625C22 14.9687 19.9688 17 17.4656 17C16.2625 17 15.1094 16.5219 14.2594 15.6719L12 13.4156L9.74375 15.6719C8.89062 16.5219 7.7375 17 6.53438 17C4.03125 17 2 14.9688 2 12.4656V11.5344ZM10.5844 12L8.32812 9.74375C7.85313 9.26875 7.20625 9 6.53438 9C5.13438 9 4 10.1344 4 11.5344V12.4625C4 13.8625 5.13438 14.9969 6.53438 14.9969C7.20625 14.9969 7.85313 14.7313 8.32812 14.2531L10.5844 12ZM13.4125 12L15.6687 14.2563C16.1438 14.7313 16.7906 15 17.4625 15C18.8625 15 19.9969 13.8656 19.9969 12.4656V11.5344C19.9969 10.1344 18.8625 9 17.4625 9C16.7906 9 16.1438 9.26562 15.6687 9.74375L13.4156 12H13.4125Z" fill="black"/>
</svg>
