<svg width="24" height="24" viewBox="0 0 24 24" fill="none" xmlns="http://www.w3.org/2000/svg">
<path d="M11.5 7C10.3969 7 9.5 7.89688 9.5 9C9.5 9.55313 9.05313 10 8.5 10C7.94687 10 7.5 9.55313 7.5 9C7.5 6.79063 9.29063 5 11.5 5H12.5C14.7094 5 16.5 6.79063 16.5 9V9.1125C16.5 10.475 15.8094 11.7406 14.6625 12.4781L13.3438 13.325C13.1281 13.4625 13 13.7 13 13.9563V14C13 14.5531 12.5531 15 12 15C11.4469 15 11 14.5531 11 14V13.9563V9.5C11 8.94687 11.4469 8.5 12 8.5C12.5531 8.5 13 8.94687 13 9.5V11.1687L13.5813 10.7937C14.1531 10.425 14.5 9.79063 14.5 9.1125V9C14.5 7.89688 13.6031 7 12.5 7H11.5ZM10.75 17.75C10.75 17.4185 10.8817 17.1005 11.1161 16.8661C11.3505 16.6317 11.6685 16.5 12 16.5C12.3315 16.5 12.6495 16.6317 12.8839 16.8661C13.1183 17.1005 13.25 17.4185 13.25 17.75C13.25 18.0815 13.1183 18.3995 12.8839 18.6339C12.6495 18.8683 12.3315 19 12 19C11.6685 19 11.3505 18.8683 11.1161 18.6339C10.8817 18.3995 10.75 18.0815 10.75 17.75Z" fill="black"/>
</svg>
