<svg width="24" height="24" viewBox="0 0 24 24" fill="none" xmlns="http://www.w3.org/2000/svg">
<path d="M3.21243 4.15937C2.88743 3.90312 2.41556 3.96249 2.15931 4.28749C1.90306 4.61249 1.96243 5.08437 2.28743 5.34062L20.7874 19.8406C21.1124 20.0969 21.5843 20.0375 21.8406 19.7125C22.0968 19.3875 22.0374 18.9156 21.7124 18.6594L19.9781 17.3C19.9937 17.2031 19.9999 17.1031 19.9999 17V6.99999C19.9999 5.89687 19.1031 4.99999 17.9999 4.99999H5.99993C5.54993 4.99999 5.13118 5.14999 4.79681 5.40312L3.21243 4.15937ZM6.96243 7.09999C7.12806 7.03749 7.30931 6.99999 7.49993 6.99999C8.32806 6.99999 8.99993 7.67187 8.99993 8.49999C8.99993 8.56249 8.99681 8.62499 8.98743 8.68749L6.96243 7.09999ZM12.2531 11.2469L12.8781 10.3281C13.0187 10.1219 13.2499 9.99999 13.4968 9.99999C13.7437 9.99999 13.9781 10.1219 14.1156 10.3281L17.6062 15.4406L12.2531 11.2469ZM17.2312 19L14.6937 17H11.9999H9.74993H6.74993C6.45931 17 6.19368 16.8312 6.06868 16.5656C5.94368 16.3 5.98743 15.9875 6.17806 15.7656L8.92806 12.5156C8.93743 12.5031 8.94681 12.4937 8.95931 12.4812L3.99993 8.57499V17C3.99993 18.1031 4.89681 19 5.99993 19H17.2312Z" fill="black"/>
</svg>
