<svg width="24" height="24" viewBox="0 0 24 24" fill="none" xmlns="http://www.w3.org/2000/svg">
<path d="M7.57188 6.92812C7.525 6.975 7.4625 7 7.39375 7H6.44375C6.16875 7 5.94063 6.775 6.0125 6.50625C6.3 5.4 7.525 4 9.94375 4C11.7688 4 12.9125 4.79688 13.4906 5.6625C14.1125 5.26875 14.9438 5 16 5C18.4187 5 19.6437 6.4 19.9312 7.50625C20 7.775 19.775 8 19.5 8H18.1031C18.0375 8 17.9719 7.975 17.925 7.92812L17.175 7.17812C17.0781 7.08125 16.9187 7.08125 16.8219 7.17812L16.0719 7.92812C16.025 7.975 15.9625 8 15.8938 8H13.4219C14.2969 10.4969 14.0844 13.3188 13.7312 15.0656C15.5906 15.4094 17 17.0406 17 19C17 19.5531 16.5531 20 16 20H6C5.44687 20 5 19.5531 5 19C5 16.7906 6.79063 15 9 15H11C11.9281 12.5219 11.9188 10.2844 11.7125 8.9375L8.975 11.675C8.78125 11.8688 8.45937 11.8688 8.31875 11.6312C7.74062 10.6437 7.61562 8.79063 9.32812 7.07812C9.37187 7.03437 9.41563 6.99375 9.45625 6.95312C9.44688 6.94375 9.43438 6.9375 9.425 6.92812L8.675 6.17812C8.57813 6.08125 8.41875 6.08125 8.32188 6.17812L7.57188 6.92812Z" fill="black"/>
</svg>
