<svg width="24" height="24" viewBox="0 0 24 24" fill="none" xmlns="http://www.w3.org/2000/svg">
<path d="M16.4312 5.02285C16.0344 4.92285 15.6312 5.16035 15.525 5.5541L15.0875 7.17285L19.6625 11.751L20.975 6.94785C21.0281 6.7541 21 6.54472 20.9 6.37285C20.8 6.20097 20.6313 6.07285 20.4344 6.02285L16.4344 5.02285H16.4312ZM19.6906 13.5478C19.7375 13.376 19.6875 13.1885 19.5625 13.0635L14.9937 8.49472C14.7219 8.22285 14.2563 8.34785 14.1562 8.71972L13.6406 10.6322C13.5813 10.851 13.3844 11.001 13.1594 11.001H10.25C9.55937 11.001 9 11.5603 9 12.251V17.751C9 18.4416 9.55937 19.001 10.25 19.001H17.25C17.8125 19.001 18.3063 18.6228 18.4563 18.0791L19.6906 13.5478ZM5 12.001C5 11.7358 4.89464 11.4814 4.70711 11.2939C4.51957 11.1063 4.26522 11.001 4 11.001C3.73478 11.001 3.48043 11.1063 3.29289 11.2939C3.10536 11.4814 3 11.7358 3 12.001C3 12.2662 3.10536 12.5205 3.29289 12.7081C3.48043 12.8956 3.73478 13.001 4 13.001C4.26522 13.001 4.51957 12.8956 4.70711 12.7081C4.89464 12.5205 5 12.2662 5 12.001ZM5 15.001C5 14.7358 4.89464 14.4814 4.70711 14.2939C4.51957 14.1063 4.26522 14.001 4 14.001C3.73478 14.001 3.48043 14.1063 3.29289 14.2939C3.10536 14.4814 3 14.7358 3 15.001C3 15.2662 3.10536 15.5205 3.29289 15.7081C3.48043 15.8956 3.73478 16.001 4 16.001C4.26522 16.001 4.51957 15.8956 4.70711 15.7081C4.89464 15.5205 5 15.2662 5 15.001ZM7 14.501C7.26522 14.501 7.51957 14.3956 7.70711 14.2081C7.89464 14.0205 8 13.7662 8 13.501C8 13.2358 7.89464 12.9814 7.70711 12.7939C7.51957 12.6063 7.26522 12.501 7 12.501C6.73478 12.501 6.48043 12.6063 6.29289 12.7939C6.10536 12.9814 6 13.2358 6 13.501C6 13.7662 6.10536 14.0205 6.29289 14.2081C6.48043 14.3956 6.73478 14.501 7 14.501ZM5 18.001C5 17.7358 4.89464 17.4814 4.70711 17.2939C4.51957 17.1063 4.26522 17.001 4 17.001C3.73478 17.001 3.48043 17.1063 3.29289 17.2939C3.10536 17.4814 3 17.7358 3 18.001C3 18.2662 3.10536 18.5205 3.29289 18.7081C3.48043 18.8956 3.73478 19.001 4 19.001C4.26522 19.001 4.51957 18.8956 4.70711 18.7081C4.89464 18.5205 5 18.2662 5 18.001ZM7 17.501C7.26522 17.501 7.51957 17.3956 7.70711 17.2081C7.89464 17.0205 8 16.7662 8 16.501C8 16.2358 7.89464 15.9814 7.70711 15.7939C7.51957 15.6063 7.26522 15.501 7 15.501C6.73478 15.501 6.48043 15.6063 6.29289 15.7939C6.10536 15.9814 6 16.2358 6 16.501C6 16.7662 6.10536 17.0205 6.29289 17.2081C6.48043 17.3956 6.73478 17.501 7 17.501Z" fill="black"/>
</svg>
