<svg width="24" height="24" viewBox="0 0 24 24" fill="none" xmlns="http://www.w3.org/2000/svg">
<path d="M5 6C5 5.44687 5.44687 5 6 5H18C18.5531 5 19 5.44687 19 6C19 6.55313 18.5531 7 18 7H6C5.44687 7 5 6.55313 5 6ZM11 10C11 9.44687 11.4469 9 12 9H18C18.5531 9 19 9.44687 19 10C19 10.5531 18.5531 11 18 11H12C11.4469 11 11 10.5531 11 10ZM12 13H18C18.5531 13 19 13.4469 19 14C19 14.5531 18.5531 15 18 15H12C11.4469 15 11 14.5531 11 14C11 13.4469 11.4469 13 12 13ZM5 18C5 17.4469 5.44687 17 6 17H18C18.5531 17 19 17.4469 19 18C19 18.5531 18.5531 19 18 19H6C5.44687 19 5 18.5531 5 18ZM8.99375 12.3938L5.80625 14.8719C5.47812 15.1281 5 14.8937 5 14.4781V9.52187C5 9.10625 5.47812 8.87188 5.80625 9.12813L8.99062 11.6062C9.24687 11.8062 9.24687 12.1969 8.99062 12.3969L8.99375 12.3938Z" fill="black"/>
</svg>
