<svg width="24" height="24" viewBox="0 0 24 24" fill="none" xmlns="http://www.w3.org/2000/svg">
<path d="M3.21268 4.15955C2.88768 3.9033 2.4158 3.96268 2.15955 4.28768C1.9033 4.61268 1.96268 5.08455 2.28768 5.3408L20.7877 19.8408C21.1127 20.097 21.5846 20.0377 21.8408 19.7127C22.0971 19.3877 22.0377 18.9158 21.7127 18.6596L19.9783 17.3002C19.9939 17.2033 20.0002 17.1033 20.0002 17.0002V7.00018C20.0002 5.89705 19.1033 5.00018 18.0002 5.00018H6.00018C5.55018 5.00018 5.13143 5.15018 4.79705 5.4033L3.21268 4.15955ZM6.96268 7.10018C7.1283 7.03768 7.30955 7.00018 7.50018 7.00018C8.3283 7.00018 9.00018 7.67205 9.00018 8.50018C9.00018 8.56268 8.99705 8.62518 8.98768 8.68768L6.96268 7.10018ZM12.2533 11.2471L12.8783 10.3283C13.0189 10.1221 13.2502 10.0002 13.4971 10.0002C13.7439 10.0002 13.9783 10.1221 14.1158 10.3283L17.6064 15.4408L12.2533 11.2471ZM17.2314 19.0002L14.6939 17.0002H12.0002H9.75018H6.75018C6.45955 17.0002 6.19393 16.8314 6.06893 16.5658C5.94393 16.3002 5.98768 15.9877 6.1783 15.7658L8.9283 12.5158C8.93768 12.5033 8.94705 12.4939 8.95955 12.4814L4.00018 8.57518V17.0002C4.00018 18.1033 4.89705 19.0002 6.00018 19.0002H17.2314Z" fill="black"/>
</svg>
