<svg width="24" height="24" viewBox="0 0 24 24" fill="none" xmlns="http://www.w3.org/2000/svg">
<path d="M13 7.41484V12.9992C13 13.5523 12.5531 13.9992 12 13.9992C11.4469 13.9992 11 13.5523 11 12.9992V7.41484L9.70625 8.70859C9.31563 9.09922 8.68125 9.09922 8.29063 8.70859C7.9 8.31797 7.9 7.68359 8.29063 7.29297L11.2906 4.29297C11.6813 3.90234 12.3156 3.90234 12.7063 4.29297L15.7063 7.29297C16.0969 7.68359 16.0969 8.31797 15.7063 8.70859C15.3156 9.09922 14.6812 9.09922 14.2906 8.70859L13 7.41484ZM5.5 13.9992H7.88125C8.25938 13.9992 8.60625 14.2117 8.775 14.5523L9.22188 15.4461C9.39062 15.7836 9.7375 15.9992 10.1156 15.9992H13.8813C14.2594 15.9992 14.6062 15.7867 14.775 15.4461L15.2219 14.5523C15.3906 14.2148 15.7375 13.9992 16.1156 13.9992H18.5C19.3281 13.9992 20 14.6711 20 15.4992V18.4992C20 19.3273 19.3281 19.9992 18.5 19.9992H5.5C4.67188 19.9992 4 19.3273 4 18.4992V15.4992C4 14.6711 4.67188 13.9992 5.5 13.9992Z" fill="black"/>
</svg>
