<svg width="24" height="24" viewBox="0 0 24 24" fill="none" xmlns="http://www.w3.org/2000/svg">
<path d="M5 7C5 5.89688 5.89688 5 7 5H17C18.1031 5 19 5.89688 19 7V17C19 18.1031 18.1031 19 17 19H7C5.89688 19 5 18.1031 5 17V7ZM7 8V14C7 14.5531 7.44688 15 8 15H8.5C8.5 13.8969 9.39687 13 10.5 13H13.5C14.6031 13 15.5 13.8969 15.5 15H16C16.5531 15 17 14.5531 17 14V8C17 7.44688 16.5531 7 16 7H8C7.44688 7 7 7.44688 7 8ZM10 10C10 9.46957 10.2107 8.96086 10.5858 8.58579C10.9609 8.21071 11.4696 8 12 8C12.5304 8 13.0391 8.21071 13.4142 8.58579C13.7893 8.96086 14 9.46957 14 10C14 10.5304 13.7893 11.0391 13.4142 11.4142C13.0391 11.7893 12.5304 12 12 12C11.4696 12 10.9609 11.7893 10.5858 11.4142C10.2107 11.0391 10 10.5304 10 10Z" fill="black"/>
</svg>
