<svg width="24" height="24" viewBox="0 0 24 24" fill="none" xmlns="http://www.w3.org/2000/svg">
<path d="M16.4312 5.02187C16.0344 4.92187 15.6312 5.15937 15.525 5.55312L15.0875 7.17187L19.6625 11.75L20.975 6.94687C21.0281 6.75312 21 6.54375 20.9 6.37187C20.8 6.2 20.6313 6.07187 20.4344 6.02187L16.4344 5.02187H16.4312ZM19.6906 13.5469C19.7375 13.375 19.6875 13.1875 19.5625 13.0625L14.9937 8.49375C14.7219 8.22187 14.2563 8.34687 14.1562 8.71875L13.6406 10.6312C13.5813 10.85 13.3844 11 13.1594 11H10.25C9.55937 11 9 11.5594 9 12.25V17.75C9 18.4406 9.55937 19 10.25 19H17.25C17.8125 19 18.3063 18.6219 18.4563 18.0781L19.6906 13.5469ZM5 12C5 11.7348 4.89464 11.4804 4.70711 11.2929C4.51957 11.1054 4.26522 11 4 11C3.73478 11 3.48043 11.1054 3.29289 11.2929C3.10536 11.4804 3 11.7348 3 12C3 12.2652 3.10536 12.5196 3.29289 12.7071C3.48043 12.8946 3.73478 13 4 13C4.26522 13 4.51957 12.8946 4.70711 12.7071C4.89464 12.5196 5 12.2652 5 12ZM5 15C5 14.7348 4.89464 14.4804 4.70711 14.2929C4.51957 14.1054 4.26522 14 4 14C3.73478 14 3.48043 14.1054 3.29289 14.2929C3.10536 14.4804 3 14.7348 3 15C3 15.2652 3.10536 15.5196 3.29289 15.7071C3.48043 15.8946 3.73478 16 4 16C4.26522 16 4.51957 15.8946 4.70711 15.7071C4.89464 15.5196 5 15.2652 5 15ZM7 14.5C7.26522 14.5 7.51957 14.3946 7.70711 14.2071C7.89464 14.0196 8 13.7652 8 13.5C8 13.2348 7.89464 12.9804 7.70711 12.7929C7.51957 12.6054 7.26522 12.5 7 12.5C6.73478 12.5 6.48043 12.6054 6.29289 12.7929C6.10536 12.9804 6 13.2348 6 13.5C6 13.7652 6.10536 14.0196 6.29289 14.2071C6.48043 14.3946 6.73478 14.5 7 14.5ZM5 18C5 17.7348 4.89464 17.4804 4.70711 17.2929C4.51957 17.1054 4.26522 17 4 17C3.73478 17 3.48043 17.1054 3.29289 17.2929C3.10536 17.4804 3 17.7348 3 18C3 18.2652 3.10536 18.5196 3.29289 18.7071C3.48043 18.8946 3.73478 19 4 19C4.26522 19 4.51957 18.8946 4.70711 18.7071C4.89464 18.5196 5 18.2652 5 18ZM7 17.5C7.26522 17.5 7.51957 17.3946 7.70711 17.2071C7.89464 17.0196 8 16.7652 8 16.5C8 16.2348 7.89464 15.9804 7.70711 15.7929C7.51957 15.6054 7.26522 15.5 7 15.5C6.73478 15.5 6.48043 15.6054 6.29289 15.7929C6.10536 15.9804 6 16.2348 6 16.5C6 16.7652 6.10536 17.0196 6.29289 17.2071C6.48043 17.3946 6.73478 17.5 7 17.5Z" fill="black"/>
</svg>
