<svg width="24" height="24" viewBox="0 0 24 24" fill="none" xmlns="http://www.w3.org/2000/svg">
<path d="M7.78125 5C6.8625 5 6.0625 5.625 5.84063 6.51562L4.05937 13.6375C4.01875 13.7969 4 13.9594 4 14.1219V17C4 18.1031 4.89688 19 6 19H18C19.1031 19 20 18.1031 20 17V14.1219C20 13.9594 19.9813 13.7969 19.9406 13.6375L18.1594 6.51562C17.9375 5.625 17.1375 5 16.2188 5H7.78125ZM7.78125 7H16.2188L17.7188 13H16.1187C15.7406 13 15.3938 13.2125 15.225 13.5531L14.7781 14.4469C14.6094 14.7844 14.2625 15 13.8844 15H10.1188C9.74063 15 9.39375 14.7875 9.225 14.4469L8.77812 13.5531C8.60937 13.2156 8.2625 13 7.88438 13H6.28125L7.78125 7Z" fill="black"/>
</svg>
