<svg width="24" height="24" viewBox="0 0 24 24" fill="none" xmlns="http://www.w3.org/2000/svg">
<path d="M3 8C3 6.89688 3.89688 6 5 6H19C20.1031 6 21 6.89688 21 8V16C21 17.1031 20.1031 18 19 18H5C3.89688 18 3 17.1031 3 16V8ZM13.25 10C13 10 12.7656 10.125 12.625 10.3344L10.875 12.9594L10.3344 12.2812C10.1906 12.1031 9.97813 12 9.75 12C9.52187 12 9.30625 12.1031 9.16563 12.2812L7.16563 14.7812C6.98438 15.0063 6.95 15.3156 7.075 15.575C7.2 15.8344 7.4625 16 7.75 16H10.25H11.75H16.25C16.5281 16 16.7812 15.8469 16.9125 15.6031C17.0438 15.3594 17.0281 15.0625 16.875 14.8344L13.875 10.3344C13.7344 10.125 13.5 10 13.25 10ZM8 11C8.26522 11 8.51957 10.8946 8.70711 10.7071C8.89464 10.5196 9 10.2652 9 10C9 9.73478 8.89464 9.48043 8.70711 9.29289C8.51957 9.10536 8.26522 9 8 9C7.73478 9 7.48043 9.10536 7.29289 9.29289C7.10536 9.48043 7 9.73478 7 10C7 10.2652 7.10536 10.5196 7.29289 10.7071C7.48043 10.8946 7.73478 11 8 11Z" fill="black"/>
</svg>
