<svg width="24" height="24" viewBox="0 0 24 24" fill="none" xmlns="http://www.w3.org/2000/svg">
<path d="M4 6C4 5.44687 4.44687 5 5 5H7C7.55313 5 8 5.44687 8 6V10.7312L12.8938 8.09375C13.3938 7.825 14 8.1875 14 8.75313V10.7281L18.8938 8.09375C19.3938 7.825 20 8.1875 20 8.75313V13.5V17.5C20 18.3281 19.3281 19 18.5 19H5.5C4.67188 19 4 18.3281 4 17.5V15V13.5V6ZM11.25 13.75C10.975 13.75 10.75 13.975 10.75 14.25V15.75C10.75 16.025 10.975 16.25 11.25 16.25H12.75C13.025 16.25 13.25 16.025 13.25 15.75V14.25C13.25 13.975 13.025 13.75 12.75 13.75H11.25ZM6.75 14.25V15.75C6.75 16.025 6.975 16.25 7.25 16.25H8.75C9.025 16.25 9.25 16.025 9.25 15.75V14.25C9.25 13.975 9.025 13.75 8.75 13.75H7.25C6.975 13.75 6.75 13.975 6.75 14.25ZM15.25 13.75C14.975 13.75 14.75 13.975 14.75 14.25V15.75C14.75 16.025 14.975 16.25 15.25 16.25H16.75C17.025 16.25 17.25 16.025 17.25 15.75V14.25C17.25 13.975 17.025 13.75 16.75 13.75H15.25Z" fill="black"/>
</svg>
