<svg width="24" height="24" viewBox="0 0 24 24" fill="none" xmlns="http://www.w3.org/2000/svg">
<path d="M13 5V10.5844L14.2937 9.29063C14.6844 8.9 15.3188 8.9 15.7094 9.29063C16.1 9.68125 16.1 10.3156 15.7094 10.7063L12.7094 13.7063C12.3188 14.0969 11.6844 14.0969 11.2937 13.7063L8.29375 10.7063C7.90312 10.3156 7.90312 9.68125 8.29375 9.29063C8.68437 8.9 9.31875 8.9 9.70937 9.29063L11 10.5844V5C11 4.44687 11.4469 4 12 4C12.5531 4 13 4.44687 13 5ZM5.5 14H7.88125C8.25938 14 8.60625 14.2125 8.775 14.5531L9.22188 15.4469C9.39062 15.7844 9.7375 16 10.1156 16H13.8813C14.2594 16 14.6062 15.7875 14.775 15.4469L15.2219 14.5531C15.3906 14.2156 15.7375 14 16.1156 14H18.5C19.3281 14 20 14.6719 20 15.5V18.5C20 19.3281 19.3281 20 18.5 20H5.5C4.67188 20 4 19.3281 4 18.5V15.5C4 14.6719 4.67188 14 5.5 14Z" fill="black"/>
</svg>
