<svg width="24" height="24" viewBox="0 0 24 24" fill="none" xmlns="http://www.w3.org/2000/svg">
<path d="M7 5C5.89688 5 5 5.89688 5 7V17C5 18.1031 5.89688 19 7 19H17C18.1031 19 19 18.1031 19 17V7C19 5.89688 18.1031 5 17 5H7ZM8 7H16C16.5531 7 17 7.44687 17 8V14C17 14.5531 16.5531 15 16 15H8C7.44687 15 7 14.5531 7 14V8C7 7.44687 7.44687 7 8 7ZM12.75 9C12.5844 9 12.4313 9.08125 12.3375 9.21562L10.7 11.6L10.4 11.2C10.3063 11.075 10.1562 11 10 11C9.84375 11 9.69375 11.075 9.6 11.2L8.1 13.2C7.9875 13.35 7.96875 13.5531 8.05312 13.725C8.1375 13.8969 8.3125 14 8.5 14H10H11.5H12.75H15.5C15.6844 14 15.8563 13.8969 15.9438 13.7312C16.0313 13.5656 16.0188 13.3687 15.9125 13.2156L13.1625 9.21562C13.0688 9.08125 12.9156 9 12.75 9ZM9 10C9.26522 10 9.51957 9.89464 9.70711 9.70711C9.89464 9.51957 10 9.26522 10 9C10 8.73478 9.89464 8.48043 9.70711 8.29289C9.51957 8.10536 9.26522 8 9 8C8.73478 8 8.48043 8.10536 8.29289 8.29289C8.10536 8.48043 8 8.73478 8 9C8 9.26522 8.10536 9.51957 8.29289 9.70711C8.48043 9.89464 8.73478 10 9 10Z" fill="black"/>
</svg>
