<svg width="24" height="24" viewBox="0 0 24 24" fill="none" xmlns="http://www.w3.org/2000/svg">
<path d="M19.6344 4.2279C19.8656 4.4154 20 4.69977 20 4.99977V9.49977C20 10.3279 19.1031 10.9998 18 10.9998C16.8969 10.9998 16 10.3279 16 9.49977C16 8.67165 16.8969 7.99977 18 7.99977V6.21852L15 6.81852V10.4998C15 11.3279 14.1031 11.9998 13 11.9998C11.8969 11.9998 11 11.3279 11 10.4998C11 9.67165 11.8969 8.99977 13 8.99977V5.99977C13 5.52165 13.3375 5.11227 13.8031 5.01852L18.8031 4.01852C19.0969 3.95915 19.4 4.03727 19.6344 4.22477V4.2279ZM6.33437 13.4998L6.70312 12.9435C6.8875 12.6654 7.2 12.4998 7.53437 12.4998H9.4625C9.79688 12.4998 10.1094 12.6654 10.2937 12.9435L10.6656 13.4998H11.5C12.3281 13.4998 13 14.1716 13 14.9998V18.4998C13 19.3279 12.3281 19.9998 11.5 19.9998H5.5C4.67188 19.9998 4 19.3279 4 18.4998V14.9998C4 14.1716 4.67188 13.4998 5.5 13.4998H6.33437ZM10 16.7498C10 16.3519 9.84196 15.9704 9.56066 15.6891C9.27936 15.4078 8.89782 15.2498 8.5 15.2498C8.10218 15.2498 7.72064 15.4078 7.43934 15.6891C7.15804 15.9704 7 16.3519 7 16.7498C7 17.1476 7.15804 17.5291 7.43934 17.8104C7.72064 18.0917 8.10218 18.2498 8.5 18.2498C8.89782 18.2498 9.27936 18.0917 9.56066 17.8104C9.84196 17.5291 10 17.1476 10 16.7498ZM18.9594 12.6966L17.7594 15.4998H19.5C19.7094 15.4998 19.8937 15.6279 19.9688 15.8248C20.0438 16.0216 19.9875 16.2404 19.8313 16.3779L15.8313 19.8779C15.6563 20.031 15.3969 20.0435 15.2094 19.906C15.0219 19.7685 14.9531 19.5185 15.0437 19.306L16.2406 16.4998H14.5C14.2906 16.4998 14.1063 16.3716 14.0312 16.1748C13.9562 15.9779 14.0125 15.7591 14.1687 15.6216L18.1687 12.1216C18.3437 11.9685 18.6031 11.956 18.7906 12.0935C18.9781 12.231 19.0469 12.481 18.9563 12.6935L18.9594 12.6966ZM8.36562 10.8466C8.1625 11.0498 7.83437 11.0498 7.64687 10.8466L4.62187 7.72477C3.74687 6.81852 3.79375 5.32165 4.77812 4.4779C5.62187 3.74352 6.91563 3.88415 7.69688 4.68102L8.00938 5.00915L8.30625 4.68102C9.0875 3.88415 10.3656 3.74352 11.2406 4.4779C12.2094 5.32165 12.2562 6.81852 11.3812 7.72477L8.36875 10.8466H8.36562Z" fill="black"/>
</svg>
