<svg width="24" height="24" viewBox="0 0 24 24" fill="none" xmlns="http://www.w3.org/2000/svg">
<path d="M4 7C4 5.89688 4.89688 5 6 5H18C19.1031 5 20 5.89688 20 7V17C20 18.1031 19.1031 19 18 19H6C4.89688 19 4 18.1031 4 17V7ZM14.1187 10.3281C13.9781 10.1219 13.7469 10 13.5 10C13.2531 10 13.0188 10.1219 12.8813 10.3281L10.1625 14.3156L9.33437 13.2812C9.19062 13.1031 8.975 13 8.75 13C8.525 13 8.30625 13.1031 8.16563 13.2812L6.16563 15.7812C5.98438 16.0062 5.95 16.3156 6.075 16.575C6.2 16.8344 6.4625 17 6.75 17H9.75H10.75H17.25C17.5281 17 17.7844 16.8469 17.9125 16.6C18.0406 16.3531 18.025 16.0563 17.8687 15.8281L14.1187 10.3281ZM7.5 10C7.89782 10 8.27936 9.84196 8.56066 9.56066C8.84196 9.27936 9 8.89782 9 8.5C9 8.10218 8.84196 7.72064 8.56066 7.43934C8.27936 7.15804 7.89782 7 7.5 7C7.10218 7 6.72064 7.15804 6.43934 7.43934C6.15804 7.72064 6 8.10218 6 8.5C6 8.89782 6.15804 9.27936 6.43934 9.56066C6.72064 9.84196 7.10218 10 7.5 10Z" fill="black"/>
</svg>
