<svg width="24" height="24" viewBox="0 0 24 24" fill="none" xmlns="http://www.w3.org/2000/svg">
<path d="M6.36875 13.525L4.03125 5.11563C4.00938 5.0375 4 4.95938 4 4.88125C4 4.39375 4.39375 4 4.88125 4H19.075C19.5875 4 20 4.4125 20 4.925C20 4.975 19.9969 5.02812 19.9875 5.07812L17.5813 19.5031C17.5344 19.7906 17.2844 20 16.9937 20C16.7062 20 16.4594 19.7937 16.4094 19.5125L14.5 9L13.6 13.4969C13.5406 13.7875 13.2844 14 12.9875 14C12.7 14 12.45 13.8062 12.3813 13.5281L11.5 10L10.5813 15.5063C10.5344 15.7906 10.2875 16 10 16C9.7125 16 9.46562 15.7906 9.41875 15.5063L8.5 10L7.62188 13.5094C7.55 13.7969 7.29063 14 6.99375 14C6.70313 14 6.44688 13.8062 6.36875 13.525Z" fill="black"/>
</svg>
