<svg width="24" height="24" viewBox="0 0 24 24" fill="none" xmlns="http://www.w3.org/2000/svg">
<path d="M10 4H14C14.5531 4 15 4.44687 15 5C15 5.55313 14.5531 6 14 6H10C9.44687 6 9 5.55313 9 5C9 4.44687 9.44687 4 10 4ZM17.5 9.25C17.5 8.83437 17.1656 8.5 16.75 8.5C16.4281 8.5 16.1531 8.70313 16.0469 8.9875L16.8313 9.99375C17.2094 9.95313 17.5 9.63437 17.5 9.24687V9.25ZM14.7094 7.27187L15.0781 7.74375C15.4906 7.2875 16.0875 7 16.75 7C17.9937 7 19 8.00625 19 9.25C19 10.1625 18.4563 10.9469 17.6781 11.3C17.8906 11.7938 18 12.3281 18 12.8719V18C18 19.1031 17.1031 20 16 20H8C6.89688 20 6 19.1031 6 18V12.8719C6 11.9812 6.29688 11.1188 6.84375 10.4156L9.29063 7.26875C9.35625 7.1875 9.40625 7.09375 9.44063 6.99688H14.5594C14.5937 7.09375 14.6438 7.18437 14.7094 7.26875V7.27187ZM9 13C8.44687 13 8 13.4469 8 14V16C8 16.5531 8.44687 17 9 17H15C15.5531 17 16 16.5531 16 16V14C16 13.4469 15.5531 13 15 13H9Z" fill="black"/>
</svg>
