<svg width="24" height="24" viewBox="0 0 24 24" fill="none" xmlns="http://www.w3.org/2000/svg">
<path d="M9 4.75C9 4.33437 9.33437 4 9.75 4H12.25C12.6656 4 13 4.33437 13 4.75V5.5H13.25C13.6656 5.5 14 5.83437 14 6.25C14 6.66563 13.6656 7 13.25 7H8.75C8.33437 7 8 6.66563 8 6.25C8 5.83437 8.33437 5.5 8.75 5.5H9V4.75ZM6 12C6 9.79063 7.79063 8 10 8H14C16.2094 8 18 9.79063 18 12V18C18 19.1031 17.1031 20 16 20H8C6.89688 20 6 19.1031 6 18V12ZM14 12V15C14 15.5531 14.4469 16 15 16C15.5531 16 16 15.5531 16 15V12C16 11.4469 15.5531 11 15 11C14.4469 11 14 11.4469 14 12Z" fill="black"/>
</svg>
