<svg width="24" height="24" viewBox="0 0 24 24" fill="none" xmlns="http://www.w3.org/2000/svg">
<path d="M10.7969 11.7906L18.3594 4.22813C18.5063 4.08125 18.7031 4 18.9094 4C19.2594 4 19.5656 4.23438 19.6438 4.575C19.7907 5.20625 20 6.23438 20 7C20 9.60313 18.4938 11.0781 15.9719 13.5437C15.7688 13.7437 15.5563 13.95 15.3375 14.1656C14.9594 14.5375 14.45 14.75 13.9219 14.75H13.5781C13.0469 14.75 12.5375 14.5406 12.1625 14.1656L11.7063 13.7094L5.70627 19.7094C5.31565 20.1 4.68127 20.1 4.29065 19.7094C3.90002 19.3188 3.90002 18.6844 4.29065 18.2937L10.2906 12.2937L10.7906 11.7937L10.7938 11.7906H10.7969Z" fill="black"/>
</svg>
