<svg width="24" height="24" viewBox="0 0 24 24" fill="none" xmlns="http://www.w3.org/2000/svg">
<path d="M11.6813 4.11564C11.8656 3.96251 12.1375 3.96251 12.3219 4.11564L13.8219 5.36564C14.0062 5.51876 14.0563 5.77814 13.9406 5.98751L13.9375 5.99064L13.9281 6.00939C13.9188 6.02501 13.9062 6.05001 13.8906 6.08126C13.8594 6.14376 13.8094 6.23751 13.7531 6.35001C13.7375 6.37814 13.725 6.40939 13.7094 6.44064C14.7781 7.04376 15.5 8.18751 15.5 9.50001C15.5 10.8125 14.7781 11.9563 13.7094 12.5563C13.725 12.5875 13.7406 12.6188 13.7531 12.6469C13.8094 12.7625 13.8562 12.8531 13.8906 12.9156C13.9062 12.9469 13.9188 12.9719 13.9281 12.9875L13.9375 13.0063L13.9406 13.0094C14.0531 13.2188 14.0031 13.4781 13.8219 13.6313L12.5 14.7344V15.3531L13.6125 14.5875L14.8969 13.7063C16.2344 12.7875 17.0344 11.2688 17.0344 9.64376C17.0344 8.67189 16.7469 7.71876 16.2063 6.90939L16.1187 6.77814C15.9937 6.59064 16.0094 6.34064 16.1594 6.16876C16.3094 5.99689 16.5562 5.95001 16.7594 6.05314L16.5344 6.50001C16.7594 6.05314 16.7594 6.05314 16.7594 6.05314H16.7625L16.7719 6.05939L16.8031 6.07501C16.8281 6.08751 16.8656 6.10939 16.9125 6.13439C17.0031 6.18751 17.1313 6.26251 17.2812 6.36251C17.5813 6.56251 17.9844 6.86564 18.3875 7.26876C19.1906 8.07189 20.0344 9.31876 20.0344 10.9969C20.0344 12.6563 19.2094 14.1375 18.4344 15.1719C18.0406 15.6938 17.65 16.1188 17.3562 16.4125C17.2094 16.5594 17.0844 16.675 16.9969 16.7531C16.9531 16.7938 16.9187 16.8219 16.8938 16.8438L16.8656 16.8688L16.8562 16.875L16.8531 16.8781C16.8531 16.8781 16.8531 16.8781 16.5344 16.4938L16.8531 16.8781C16.6937 17.0125 16.4656 17.0313 16.2844 16.9281L13.9219 15.5844L12.9 16.2875L14.3219 17.2656C14.3781 17.2531 14.4375 17.2438 14.5 17.2438C14.9156 17.2438 15.25 17.5781 15.25 17.9938C15.25 18.4094 14.9156 18.7438 14.5 18.7438C14.1187 18.7438 13.8031 18.4594 13.7563 18.0875L12.5 17.2313V18.1344C12.8 18.3063 13 18.6313 13 19C13 19.5531 12.5531 20 12 20C11.4469 20 11 19.5531 11 19C11 18.6313 11.2 18.3063 11.5 18.1344V17.2531L10.2406 18.1188C10.1813 18.4781 9.87187 18.75 9.5 18.75C9.08437 18.75 8.75 18.4156 8.75 18C8.75 17.5844 9.08437 17.25 9.5 17.25C9.56875 17.25 9.6375 17.2594 9.70312 17.2781L11.1344 16.2938L10.1125 15.5906L7.75 16.9344C7.56875 17.0375 7.34375 17.0188 7.18125 16.8844L7.5 16.5C7.18125 16.8844 7.18125 16.8844 7.17812 16.8844L7.175 16.8813L7.16563 16.875L7.1375 16.85C7.1125 16.8281 7.07812 16.7969 7.03437 16.7594C6.94687 16.6813 6.825 16.5656 6.675 16.4188C6.38125 16.125 5.99062 15.7 5.59687 15.1781C4.825 14.1406 4 12.6594 4 11C4 9.32189 4.84063 8.07501 5.64688 7.27189C6.05 6.86876 6.45312 6.56564 6.75312 6.36564C6.90625 6.26564 7.03125 6.18751 7.12188 6.13751C7.16875 6.11251 7.20312 6.09064 7.23125 6.07814L7.2625 6.06251L7.27187 6.05626H7.275C7.275 6.05626 7.275 6.05626 7.5 6.50314L7.275 6.05626C7.47813 5.95626 7.72187 6.00314 7.875 6.17189C8.02812 6.34064 8.04063 6.59064 7.91563 6.78126L7.82812 6.91251C7.2875 7.71876 7 8.67189 7 9.64376C7 11.2656 7.8 12.7875 9.1375 13.7063L10.4219 14.5875L11.5 15.3313V14.7344L10.1813 13.6344C9.99688 13.4813 9.94688 13.2219 10.0625 13.0125L10.0656 13.0094L10.075 12.9906C10.0844 12.975 10.0969 12.95 10.1125 12.9188C10.1438 12.8563 10.1937 12.7625 10.25 12.65C10.2656 12.6219 10.2781 12.5906 10.2937 12.5594C9.22187 11.9563 8.5 10.8125 8.5 9.50001C8.5 8.18751 9.22188 7.04376 10.2906 6.44376C10.275 6.41251 10.2594 6.38126 10.2469 6.35314C10.1906 6.23751 10.1438 6.14689 10.1094 6.08439C10.0938 6.05314 10.0813 6.02814 10.0719 6.01251L10.0625 5.99376L10.0594 5.99064C9.94687 5.78126 9.99687 5.52189 10.1781 5.36876L11.6781 4.11876L11.6813 4.11564ZM10.8812 7.84064C10.35 8.20001 10 8.80939 10 9.50001C10 10.1906 10.35 10.8 10.8812 11.1594C11.0938 10.5688 11.25 9.96564 11.25 9.50001C11.25 9.03439 11.0938 8.43126 10.8812 7.84064ZM13.1156 11.1594C13.6469 10.8 13.9969 10.1906 13.9969 9.50001C13.9969 8.80939 13.6469 8.20001 13.1156 7.84064C12.9062 8.43126 12.75 9.03439 12.75 9.50001C12.75 9.96564 12.9062 10.5688 13.1187 11.1594H13.1156Z" fill="black"/>
</svg>
