<svg width="24" height="24" viewBox="0 0 24 24" fill="none" xmlns="http://www.w3.org/2000/svg">
<path d="M6.20625 8.79375C5.81563 8.40312 5.18125 8.40312 4.79063 8.79375C4.4 9.18437 4.4 9.81875 4.79063 10.2094L6.79063 12.2094C7.18125 12.6 7.81563 12.6 8.20625 12.2094C8.59688 11.8188 8.59688 11.1844 8.20625 10.7937L6.20625 8.79375ZM11 10C11 10.5531 11.4469 11 12 11C12.5531 11 13 10.5531 13 10V7C13 6.44687 12.5531 6 12 6C11.4469 6 11 6.44687 11 7V10ZM15.7937 10.7937C15.4031 11.1844 15.4031 11.8188 15.7937 12.2094C16.1844 12.6 16.8188 12.6 17.2094 12.2094L19.2094 10.2094C19.6 9.81875 19.6 9.18437 19.2094 8.79375C18.8188 8.40312 18.1844 8.40312 17.7937 8.79375L15.7937 10.7937ZM2 16C2 16.5531 2.44687 17 3 17H5C5.55312 17 6 16.5531 6 16C6 15.4469 5.55312 15 5 15H3C2.44687 15 2 15.4469 2 16ZM9 15C8.44688 15 8 15.4469 8 16C8 16.5531 8.44688 17 9 17H15C15.5531 17 16 16.5531 16 16C16 15.4469 15.5531 15 15 15H9ZM19 15C18.4469 15 18 15.4469 18 16C18 16.5531 18.4469 17 19 17H21C21.5531 17 22 16.5531 22 16C22 15.4469 21.5531 15 21 15H19Z" fill="black"/>
</svg>
