<svg width="24" height="24" viewBox="0 0 24 24" fill="none" xmlns="http://www.w3.org/2000/svg">
<path d="M11.6813 4.11558C11.8656 3.96245 12.1375 3.96245 12.3219 4.11558L13.8219 5.36558C14.0062 5.5187 14.0563 5.77808 13.9406 5.98745L13.9375 5.99058L13.9281 6.00933C13.9188 6.02495 13.9062 6.04995 13.8906 6.0812C13.8594 6.1437 13.8094 6.23745 13.7531 6.34995C13.7375 6.37808 13.725 6.40933 13.7094 6.44058C14.7781 7.0437 15.5 8.18745 15.5 9.49995C15.5 10.8125 14.7781 11.9562 13.7094 12.5562C13.725 12.5875 13.7406 12.6187 13.7531 12.6468C13.8094 12.7625 13.8562 12.8531 13.8906 12.9156C13.9062 12.9468 13.9188 12.9718 13.9281 12.9875L13.9375 13.0062L13.9406 13.0093C14.0531 13.2187 14.0031 13.4781 13.8219 13.6312L12.5 14.7343V15.3531L13.6125 14.5875L14.8969 13.7062C16.2344 12.7875 17.0344 11.2687 17.0344 9.6437C17.0344 8.67183 16.7469 7.7187 16.2063 6.90933L16.1187 6.77808C15.9937 6.59058 16.0094 6.34058 16.1594 6.1687C16.3094 5.99683 16.5562 5.94995 16.7594 6.05308L16.5344 6.49995C16.7594 6.05308 16.7594 6.05308 16.7594 6.05308H16.7625L16.7719 6.05933L16.8031 6.07495C16.8281 6.08745 16.8656 6.10933 16.9125 6.13433C17.0031 6.18745 17.1312 6.26245 17.2812 6.36245C17.5813 6.56245 17.9844 6.86558 18.3875 7.2687C19.1906 8.07183 20.0344 9.3187 20.0344 10.9968C20.0344 12.6562 19.2094 14.1375 18.4344 15.1718C18.0406 15.6937 17.65 16.1187 17.3562 16.4125C17.2094 16.5593 17.0844 16.675 16.9969 16.7531C16.9531 16.7937 16.9188 16.8218 16.8938 16.8437L16.8656 16.8687L16.8562 16.875L16.8531 16.8781C16.8531 16.8781 16.8531 16.8781 16.5344 16.4937L16.8531 16.8781C16.6937 17.0125 16.4656 17.0312 16.2844 16.9281L13.9219 15.5843L12.9 16.2875L14.3219 17.2656C14.3781 17.2531 14.4375 17.2437 14.5 17.2437C14.9156 17.2437 15.25 17.5781 15.25 17.9937C15.25 18.4093 14.9156 18.7437 14.5 18.7437C14.1188 18.7437 13.8031 18.4593 13.7563 18.0875L12.5 17.2312V18.1343C12.8 18.3062 13 18.6312 13 19C13 19.5531 12.5531 20 12 20C11.4469 20 11 19.5531 11 19C11 18.6312 11.2 18.3062 11.5 18.1343V17.2531L10.2406 18.1187C10.1812 18.4781 9.87187 18.75 9.5 18.75C9.08437 18.75 8.75 18.4156 8.75 18C8.75 17.5843 9.08437 17.25 9.5 17.25C9.56875 17.25 9.6375 17.2593 9.70312 17.2781L11.1344 16.2937L10.1125 15.5906L7.75 16.9343C7.56875 17.0375 7.34375 17.0187 7.18125 16.8843L7.5 16.5C7.18125 16.8843 7.18125 16.8843 7.17812 16.8843L7.175 16.8812L7.16563 16.875L7.1375 16.85C7.1125 16.8281 7.07812 16.7968 7.03437 16.7593C6.94687 16.6812 6.825 16.5656 6.675 16.4187C6.38125 16.125 5.99062 15.7 5.59687 15.1781C4.825 14.1406 4 12.6593 4 11C4 9.32183 4.84063 8.07495 5.64688 7.27183C6.05 6.8687 6.45312 6.56558 6.75312 6.36558C6.90625 6.26558 7.03125 6.18745 7.12188 6.13745C7.16875 6.11245 7.20313 6.09058 7.23125 6.07808L7.2625 6.06245L7.27187 6.0562H7.275C7.275 6.0562 7.275 6.0562 7.5 6.50308L7.275 6.0562C7.47813 5.9562 7.72187 6.00308 7.875 6.17183C8.02813 6.34058 8.04063 6.59058 7.91563 6.7812L7.82812 6.91245C7.2875 7.7187 7 8.67183 7 9.6437C7 11.2656 7.8 12.7875 9.1375 13.7062L10.4219 14.5875L11.5 15.3312V14.7343L10.1813 13.6343C9.99688 13.4812 9.94687 13.2218 10.0625 13.0125L10.0656 13.0093L10.075 12.9906C10.0844 12.975 10.0969 12.95 10.1125 12.9187C10.1438 12.8562 10.1938 12.7625 10.25 12.65C10.2656 12.6218 10.2781 12.5906 10.2937 12.5593C9.22187 11.9562 8.5 10.8125 8.5 9.49995C8.5 8.18745 9.22188 7.0437 10.2906 6.4437C10.275 6.41245 10.2594 6.3812 10.2469 6.35308C10.1906 6.23745 10.1438 6.14683 10.1094 6.08433C10.0938 6.05308 10.0813 6.02808 10.0719 6.01245L10.0625 5.9937L10.0594 5.99058C9.94687 5.7812 9.99687 5.52183 10.1781 5.3687L11.6781 4.1187L11.6813 4.11558ZM10.8812 7.84058C10.35 8.19995 10 8.80933 10 9.49995C10 10.1906 10.35 10.8 10.8812 11.1593C11.0937 10.5687 11.25 9.96558 11.25 9.49995C11.25 9.03433 11.0937 8.4312 10.8812 7.84058ZM13.1156 11.1593C13.6469 10.8 13.9969 10.1906 13.9969 9.49995C13.9969 8.80933 13.6469 8.19995 13.1156 7.84058C12.9063 8.4312 12.75 9.03433 12.75 9.49995C12.75 9.96558 12.9062 10.5687 13.1187 11.1593H13.1156Z" fill="black"/>
</svg>
