<svg width="24" height="24" viewBox="0 0 24 24" fill="none" xmlns="http://www.w3.org/2000/svg">
<path d="M4.875 7.74961L12 9.97461L19.125 7.74961L12 5.52461L4.875 7.74961ZM11.7031 4.04648C11.8969 3.98711 12.1062 3.98711 12.3 4.04648L20.3 6.54648C20.7156 6.67461 21 7.06211 21 7.49961V7.99961V8.66211L12.15 11.4277C12.0531 11.459 11.95 11.459 11.8531 11.4277L3 8.66211V7.99961V7.49961C3 7.06211 3.28438 6.67461 3.70312 6.54648L11.7031 4.04648ZM12.45 12.384L21 9.71211V11.1652L19.35 11.6809C19.0875 11.7621 18.9406 12.0434 19.0219 12.3059C19.1031 12.5684 19.3844 12.7152 19.6469 12.634L21 12.2121V16.4996C21 16.9371 20.7156 17.3246 20.2969 17.4527L12.2969 19.9527C12.1031 20.0121 11.8938 20.0121 11.7 19.9527L3.7 17.4527C3.28437 17.3246 3 16.9371 3 16.4996V12.2121L4.35 12.634C4.6125 12.7152 4.89375 12.5684 4.975 12.3059C5.05625 12.0434 4.90937 11.7621 4.64688 11.6809L3 11.1621V9.71211L11.5531 12.384C11.8438 12.4746 12.1562 12.4746 12.4469 12.384H12.45ZM6.65313 12.3027C6.39062 12.2215 6.10938 12.3684 6.02813 12.6309C5.94688 12.8934 6.09375 13.1746 6.35625 13.2559L8.35625 13.8809C8.61875 13.9621 8.9 13.8152 8.98125 13.5527C9.0625 13.2902 8.91562 13.009 8.65312 12.9277L6.65313 12.3027ZM17.6531 13.2559C17.9156 13.1746 18.0625 12.8934 17.9812 12.6309C17.9 12.3684 17.6187 12.2215 17.3562 12.3027L15.3562 12.9277C15.0938 13.009 14.9469 13.2902 15.0281 13.5527C15.1094 13.8152 15.3906 13.9621 15.6531 13.8809L17.6531 13.2559ZM10.6531 13.5527C10.3906 13.4715 10.1094 13.6184 10.0281 13.8809C9.94687 14.1434 10.0938 14.4246 10.3562 14.5059L11.5594 14.8809C11.85 14.9715 12.1625 14.9715 12.4531 14.8809L13.6562 14.5059C13.9187 14.4246 14.0656 14.1434 13.9844 13.8809C13.9031 13.6184 13.6219 13.4715 13.3594 13.5527L12.1562 13.9277C12.0594 13.959 11.9563 13.959 11.8594 13.9277L10.6562 13.5527H10.6531Z" fill="black"/>
</svg>
