<svg width="24" height="24" viewBox="0 0 24 24" fill="none" xmlns="http://www.w3.org/2000/svg">
<path d="M9.75 6.25H10.2C10.4594 6.69688 10.9438 7 11.5 7H13.5C14.3281 7 15 6.32812 15 5.5C15 4.67188 14.3281 4 13.5 4H11.5C10.9438 4 10.4594 4.30312 10.2 4.75H9.75C8.23125 4.75 7 5.98125 7 7.5V9H6.5C6.12187 9 5.775 9.2125 5.60625 9.55312L4.10625 12.5531C4.0375 12.6906 4 12.8438 4 13V14C4 14.5531 4.44687 15 5 15H19C19.5531 15 20 14.5531 20 14V13C20 12.8438 19.9625 12.6906 19.8938 12.5531L18.3938 9.55312C18.225 9.2125 17.8781 9 17.5 9H8.5V7.5C8.5 6.80937 9.05937 6.25 9.75 6.25ZM9 18C8.44687 18 8 18.4469 8 19C8 19.5531 8.44687 20 9 20H12H15C15.5531 20 16 19.5531 16 19C16 18.4469 15.5531 18 15 18H13V16H11V18H9Z" fill="black"/>
</svg>
