<svg width="24" height="24" viewBox="0 0 24 24" fill="none" xmlns="http://www.w3.org/2000/svg">
<path d="M12.75 4C12.2844 4 11.8812 4.32187 11.775 4.775L9.275 15.525C9.2625 15.5781 9.25313 15.6344 9.25 15.6875L6.58125 18.3562C6.49063 18.4469 6.36563 18.5 6.2375 18.5C5.96875 18.5 5.75 18.2812 5.75 18.0125V15.2437L5 14.8687L4.25 15.2437V18.0125C4.25 19.1094 5.14063 20 6.2375 20C6.76563 20 7.26875 19.7906 7.64375 19.4187L10.3125 16.7469C10.3687 16.7437 10.4219 16.7344 10.475 16.7219L21.225 14.2219C21.6781 14.1156 22 13.7125 22 13.2469V5C22 4.44687 21.5531 4 21 4H12.75ZM2.75 8C2.33437 8 2 8.33437 2 8.75C2 9.16563 2.33437 9.5 2.75 9.5H3C3.69063 9.5 4.25 10.0594 4.25 10.75V12.875L2.58438 12.0437C2.52813 12.0156 2.46562 12 2.40312 12C2.18125 12 2 12.1812 2 12.4031V14.5938C2 14.8187 2.18125 15 2.40312 15C2.46562 15 2.52813 14.9844 2.58438 14.9563L4.25 14.125L4.55312 13.975C4.69375 13.9031 4.84687 13.8687 5 13.8687H5.01562C5.125 13.8719 5.23438 13.8906 5.34063 13.9281C5.37813 13.9406 5.4125 13.9563 5.44688 13.975L5.75 14.125L7.41563 14.9563C7.47188 14.9844 7.53438 15 7.59688 15C7.81875 15 8 14.8188 8 14.5969V12.4031C8 12.1812 7.81875 12 7.59688 12C7.53438 12 7.47188 12.0156 7.41563 12.0437L5.75 12.875V10.75C5.75 9.23125 4.51875 8 3 8H2.75ZM15.3531 6.64687L17 8.29375L18.6469 6.64687C18.8406 6.45312 19.1594 6.45312 19.3531 6.64687C19.5469 6.84062 19.5469 7.15938 19.3531 7.35313L17.7063 9L19.3531 10.6469C19.5469 10.8406 19.5469 11.1594 19.3531 11.3531C19.1594 11.5469 18.8406 11.5469 18.6469 11.3531L17 9.70625L13.3531 13.3531C13.1594 13.5469 12.8406 13.5469 12.6469 13.3531C12.4531 13.1594 12.4531 12.8406 12.6469 12.6469L16.2937 9L14.6469 7.35313C14.4531 7.15938 14.4531 6.84062 14.6469 6.64687C14.8406 6.45312 15.1594 6.45312 15.3531 6.64687Z" fill="black"/>
</svg>
