<svg width="24" height="24" viewBox="0 0 24 24" fill="none" xmlns="http://www.w3.org/2000/svg">
<path d="M4.875 7.75001L12 9.97501L19.125 7.75001L12 5.52501L4.875 7.75001ZM11.7031 4.04688C11.8969 3.98751 12.1063 3.98751 12.3 4.04688L20.3 6.54688C20.7156 6.67501 21 7.06251 21 7.50001V8.00001V8.66251L12.15 11.4281C12.0531 11.4594 11.95 11.4594 11.8531 11.4281L3 8.66251V8.00001V7.50001C3 7.06251 3.28438 6.67501 3.70312 6.54688L11.7031 4.04688ZM12.45 12.3844L21 9.71251V11.1656L19.35 11.6813C19.0875 11.7625 18.9406 12.0438 19.0219 12.3063C19.1031 12.5688 19.3844 12.7156 19.6469 12.6344L21 12.2125V16.5C21 16.9375 20.7156 17.325 20.2969 17.4531L12.2969 19.9531C12.1031 20.0125 11.8937 20.0125 11.7 19.9531L3.7 17.4531C3.28437 17.325 3 16.9375 3 16.5V12.2125L4.35 12.6344C4.6125 12.7156 4.89375 12.5688 4.975 12.3063C5.05625 12.0438 4.90938 11.7625 4.64688 11.6813L3 11.1625V9.71251L11.5531 12.3844C11.8438 12.475 12.1562 12.475 12.4469 12.3844H12.45ZM6.65313 12.3031C6.39063 12.2219 6.10938 12.3688 6.02813 12.6313C5.94688 12.8938 6.09375 13.175 6.35625 13.2563L8.35625 13.8813C8.61875 13.9625 8.9 13.8156 8.98125 13.5531C9.0625 13.2906 8.91562 13.0094 8.65312 12.9281L6.65313 12.3031ZM17.6531 13.2563C17.9156 13.175 18.0625 12.8938 17.9812 12.6313C17.9 12.3688 17.6187 12.2219 17.3562 12.3031L15.3562 12.9281C15.0937 13.0094 14.9469 13.2906 15.0281 13.5531C15.1094 13.8156 15.3906 13.9625 15.6531 13.8813L17.6531 13.2563ZM10.6531 13.5531C10.3906 13.4719 10.1094 13.6188 10.0281 13.8813C9.94687 14.1438 10.0937 14.425 10.3562 14.5063L11.5594 14.8813C11.85 14.9719 12.1625 14.9719 12.4531 14.8813L13.6562 14.5063C13.9187 14.425 14.0656 14.1438 13.9844 13.8813C13.9031 13.6188 13.6219 13.4719 13.3594 13.5531L12.1562 13.9281C12.0594 13.9594 11.9562 13.9594 11.8594 13.9281L10.6562 13.5531H10.6531Z" fill="black"/>
</svg>
