<svg width="24" height="24" viewBox="0 0 24 24" fill="none" xmlns="http://www.w3.org/2000/svg">
<path d="M14.5 6C15.163 6 15.7989 6.26339 16.2677 6.73223C16.7366 7.20107 17 7.83696 17 8.5C17 9.16304 16.7366 9.79893 16.2677 10.2678C15.7989 10.7366 15.163 11 14.5 11C13.8369 11 13.201 10.7366 12.7322 10.2678C12.2633 9.79893 12 9.16304 12 8.5C12 7.83696 12.2633 7.20107 12.7322 6.73223C13.201 6.26339 13.8369 6 14.5 6ZM14.5 13C16.9843 13 19 10.9844 19 8.5C19 6.01562 16.9843 4 14.5 4C12.0156 4 9.99995 6.01562 9.99995 8.5C9.99995 9.38125 10.2531 10.2031 10.6906 10.8969L5.2937 16.2937C4.90308 16.6844 4.90308 17.3188 5.2937 17.7094L7.2937 19.7094C7.68433 20.1 8.3187 20.1 8.70933 19.7094C9.09995 19.3188 9.09995 18.6844 8.70933 18.2937L7.41558 17L7.99995 16.4156L9.2937 17.7094C9.68433 18.1 10.3187 18.1 10.7093 17.7094C11.1 17.3188 11.1 16.6844 10.7093 16.2937L9.41558 15L12.1062 12.3094C12.8 12.7469 13.6218 13 14.5031 13H14.5Z" fill="black"/>
</svg>
