<svg width="24" height="24" viewBox="0 0 24 24" fill="none" xmlns="http://www.w3.org/2000/svg">
<path d="M20 8C20 7.46957 19.7893 6.96086 19.4142 6.58579C19.0391 6.21071 18.5304 6 18 6C17.4696 6 16.9609 6.21071 16.5858 6.58579C16.2107 6.96086 16 7.46957 16 8C16 8.53043 16.2107 9.03914 16.5858 9.41421C16.9609 9.78929 17.4696 10 18 10C18.5304 10 19.0391 9.78929 19.4142 9.41421C19.7893 9.03914 20 8.53043 20 8ZM22 8C22 10.2094 20.2094 12 18 12C16.1375 12 14.5687 10.725 14.125 9H12V10C12 10.5531 11.5531 11 11 11C10.4469 11 10 10.5531 10 10V9H9V10C9 10.5531 8.55313 11 8 11C7.44687 11 7 10.5531 7 10V8C7 7.44687 7.44687 7 8 7H14.125C14.5687 5.275 16.1375 4 18 4C20.2094 4 22 5.79063 22 8ZM4 16C4 16.5304 4.21071 17.0391 4.58579 17.4142C4.96086 17.7893 5.46957 18 6 18C6.53043 18 7.03914 17.7893 7.41421 17.4142C7.78929 17.0391 8 16.5304 8 16C8 15.4696 7.78929 14.9609 7.41421 14.5858C7.03914 14.2107 6.53043 14 6 14C5.46957 14 4.96086 14.2107 4.58579 14.5858C4.21071 14.9609 4 15.4696 4 16ZM2 16C2 13.7906 3.79063 12 6 12C7.8625 12 9.43125 13.275 9.875 15H12V14C12 13.4469 12.4469 13 13 13C13.5531 13 14 13.4469 14 14V15H15V14C15 13.4469 15.4469 13 16 13C16.5531 13 17 13.4469 17 14V16C17 16.5531 16.5531 17 16 17H9.875C9.43125 18.725 7.86563 20 6 20C3.79063 20 2 18.2094 2 16Z" fill="black"/>
</svg>
