<svg width="24" height="24" viewBox="0 0 24 24" fill="none" xmlns="http://www.w3.org/2000/svg">
<path d="M18.0625 8H21C21.5531 8 22 8.44687 22 9V15C22 15.5531 21.5531 16 21 16H18.0625C17.4438 16.3187 16.7437 16.5 16 16.5C15.2563 16.5 14.5531 16.3187 13.9375 16H9C8.90625 16 8.8125 15.9875 8.71875 15.9594L2.71875 14.2094C2.29375 14.0844 2 13.6937 2 13.25V10.75C2 10.3063 2.29375 9.91563 2.71875 9.79063L8.71875 8.04063C8.80938 8.01563 8.90313 8 9 8H13.9375C14.5562 7.68125 15.2563 7.5 16 7.5C16.7437 7.5 17.4469 7.68125 18.0625 8ZM19 12C19 11.606 18.9224 11.2159 18.7716 10.8519C18.6209 10.488 18.3999 10.1573 18.1213 9.87868C17.8427 9.6001 17.512 9.37913 17.1481 9.22836C16.7841 9.0776 16.394 9 16 9C15.606 9 15.2159 9.0776 14.8519 9.22836C14.488 9.37913 14.1573 9.6001 13.8787 9.87868C13.6001 10.1573 13.3791 10.488 13.2284 10.8519C13.0776 11.2159 13 11.606 13 12C13 12.394 13.0776 12.7841 13.2284 13.1481C13.3791 13.512 13.6001 13.8427 13.8787 14.1213C14.1573 14.3999 14.488 14.6209 14.8519 14.7716C15.2159 14.9224 15.606 15 16 15C16.394 15 16.7841 14.9224 17.1481 14.7716C17.512 14.6209 17.8427 14.3999 18.1213 14.1213C18.3999 13.8427 18.6209 13.512 18.7716 13.1481C18.9224 12.7841 19 12.394 19 12ZM15.3531 10.6469L16 11.2937L16.6469 10.6469C16.8406 10.4531 17.1594 10.4531 17.3531 10.6469C17.5469 10.8406 17.5469 11.1594 17.3531 11.3531L16.7063 12L17.3531 12.6469C17.5469 12.8406 17.5469 13.1594 17.3531 13.3531C17.1594 13.5469 16.8406 13.5469 16.6469 13.3531L16 12.7063L15.3531 13.3531C15.1594 13.5469 14.8406 13.5469 14.6469 13.3531C14.4531 13.1594 14.4531 12.8406 14.6469 12.6469L15.2937 12L14.6469 11.3531C14.4531 11.1594 14.4531 10.8406 14.6469 10.6469C14.8406 10.4531 15.1594 10.4531 15.3531 10.6469Z" fill="black"/>
</svg>
