<svg width="24" height="24" viewBox="0 0 24 24" fill="none" xmlns="http://www.w3.org/2000/svg">
<path d="M5 5C3.89688 5 3 5.89688 3 7V17C3 18.1031 3.89688 19 5 19H6V5H5ZM7 5V19H17V5H7ZM19 19C20.1031 19 21 18.1031 21 17V7C21 5.89688 20.1031 5 19 5H18V19H19ZM11 9.5C11 9.225 11.225 9 11.5 9H12.5C12.775 9 13 9.225 13 9.5V11H14.5C14.775 11 15 11.225 15 11.5V12.5C15 12.775 14.775 13 14.5 13H13V14.5C13 14.775 12.775 15 12.5 15H11.5C11.225 15 11 14.775 11 14.5V13H9.5C9.225 13 9 12.775 9 12.5V11.5C9 11.225 9.225 11 9.5 11H11V9.5Z" fill="black"/>
</svg>
