<svg width="24" height="24" viewBox="0 0 24 24" fill="none" xmlns="http://www.w3.org/2000/svg">
<path d="M4.875 7.74998L12 9.97498L19.125 7.74998L12 5.52498L4.875 7.74998ZM11.7031 4.04685C11.8969 3.98748 12.1062 3.98748 12.3 4.04685L20.3 6.54685C20.7156 6.67498 21 7.06248 21 7.49998V7.99998V8.66248L12.15 11.4281C12.0531 11.4594 11.95 11.4594 11.8531 11.4281L3 8.66248V7.99998V7.49998C3 7.06248 3.28438 6.67498 3.70312 6.54685L11.7031 4.04685ZM12.45 12.3843L21 9.71248V11.1656L19.35 11.6812C19.0875 11.7625 18.9406 12.0437 19.0219 12.3062C19.1031 12.5687 19.3844 12.7156 19.6469 12.6343L21 12.2125V16.5C21 16.9375 20.7156 17.325 20.2969 17.4531L12.2969 19.9531C12.1031 20.0125 11.8938 20.0125 11.7 19.9531L3.7 17.4531C3.28437 17.325 3 16.9375 3 16.5V12.2125L4.35 12.6343C4.6125 12.7156 4.89375 12.5687 4.975 12.3062C5.05625 12.0437 4.90937 11.7625 4.64688 11.6812L3 11.1625V9.71248L11.5531 12.3843C11.8438 12.475 12.1562 12.475 12.4469 12.3843H12.45ZM6.65313 12.3031C6.39062 12.2219 6.10938 12.3687 6.02813 12.6312C5.94688 12.8937 6.09375 13.175 6.35625 13.2562L8.35625 13.8812C8.61875 13.9625 8.9 13.8156 8.98125 13.5531C9.0625 13.2906 8.91562 13.0094 8.65312 12.9281L6.65313 12.3031ZM17.6531 13.2562C17.9156 13.175 18.0625 12.8937 17.9812 12.6312C17.9 12.3687 17.6187 12.2219 17.3562 12.3031L15.3562 12.9281C15.0938 13.0094 14.9469 13.2906 15.0281 13.5531C15.1094 13.8156 15.3906 13.9625 15.6531 13.8812L17.6531 13.2562ZM10.6531 13.5531C10.3906 13.4719 10.1094 13.6187 10.0281 13.8812C9.94687 14.1437 10.0938 14.425 10.3562 14.5062L11.5594 14.8812C11.85 14.9719 12.1625 14.9719 12.4531 14.8812L13.6562 14.5062C13.9187 14.425 14.0656 14.1437 13.9844 13.8812C13.9031 13.6187 13.6219 13.4719 13.3594 13.5531L12.1562 13.9281C12.0594 13.9594 11.9563 13.9594 11.8594 13.9281L10.6562 13.5531H10.6531Z" fill="black"/>
</svg>
