<svg width="24" height="24" viewBox="0 0 24 24" fill="none" xmlns="http://www.w3.org/2000/svg">
<path d="M6.75 4C6.07812 4 5.32812 4.19687 4.74062 4.74375C3.7625 5.65 2 7.7375 2 11C2 11.7781 2.10938 12.7094 2.22187 13.4719C2.44375 14.9719 3.74688 16 5.2 16C7.025 16 8.45 14.425 8.26875 12.6094L8.14062 11.3219C8.07812 10.6938 8.28125 10.0687 8.7 9.6L9.26875 8.95937C9.74375 8.425 10.0031 7.7375 10.0031 7.025C10.0031 6.05 9.51563 5.14375 8.70625 4.60312L8.6 4.53125C8.07812 4.18437 7.47187 4 6.85 4H6.75ZM17.25 4H17.15C16.5281 4 15.9187 4.18437 15.4031 4.52812L15.2969 4.6C14.4875 5.14062 14 6.05 14 7.02187C14 7.73437 14.2625 8.42188 14.7344 8.95625L15.3031 9.59688C15.7219 10.0688 15.925 10.6937 15.8625 11.3187L15.7344 12.6062C15.5531 14.425 16.9781 16 18.8031 16C20.2563 16 21.5594 14.9719 21.7812 13.4719C21.8937 12.7094 22.0031 11.7781 22.0031 11C22.0031 7.7375 20.2406 5.65 19.2625 4.74375C18.6719 4.19687 17.9219 4 17.25 4ZM9.13125 11.2219L9.19063 11.8094L9.8625 12.1438C9.94688 12.1875 10 12.2719 10 12.3687V19.25C10 19.6656 10.3344 20 10.75 20C11.1656 20 11.5 19.6656 11.5 19.25V12.3687C11.5 11.7062 11.125 11.1 10.5312 10.8031L9.44375 10.2594L9.44063 10.2625C9.20625 10.525 9.09375 10.8719 9.12813 11.2219H9.13125ZM14.5562 10.2625L14.5531 10.2594L13.4688 10.8031C12.875 11.1 12.5 11.7062 12.5 12.3687V19.25C12.5 19.6656 12.8344 20 13.25 20C13.6656 20 14 19.6656 14 19.25V12.3687C14 12.275 14.0531 12.1875 14.1375 12.1438L14.8094 11.8094L14.8687 11.2219C14.9031 10.8719 14.7906 10.525 14.5562 10.2625Z" fill="black"/>
</svg>
