<svg width="24" height="24" viewBox="0 0 24 24" fill="none" xmlns="http://www.w3.org/2000/svg">
<path d="M19 9.5C19 11.9844 15.8656 14 12 14C8.13438 14 5 11.9844 5 9.5C5 7.01562 8.13438 5 12 5C15.8656 5 19 7.01562 19 9.5ZM12 6C11.725 6 11.5 6.225 11.5 6.5V7.25C11.5 7.525 11.725 7.75 12 7.75C12.275 7.75 12.5 7.525 12.5 7.25V6.5C12.5 6.225 12.275 6 12 6ZM7 9.5C7 9.775 7.225 10 7.5 10H8.5C8.775 10 9 9.775 9 9.5C9 9.225 8.775 9 8.5 9H7.5C7.225 9 7 9.225 7 9.5ZM15 9.5C15 9.775 15.225 10 15.5 10H16.5C16.775 10 17 9.775 17 9.5C17 9.225 16.775 9 16.5 9H15.5C15.225 9 15 9.225 15 9.5ZM12 11.25C11.725 11.25 11.5 11.475 11.5 11.75V12.5C11.5 12.775 11.725 13 12 13C12.275 13 12.5 12.775 12.5 12.5V11.75C12.5 11.475 12.275 11.25 12 11.25ZM9.35313 6.89687C9.15938 6.70312 8.84062 6.70312 8.64687 6.89687C8.45312 7.09062 8.45312 7.40938 8.64687 7.60313L9.14687 8.10313C9.34062 8.29688 9.65938 8.29688 9.85313 8.10313C10.0469 7.90938 10.0469 7.59062 9.85313 7.39687L9.35313 6.89687ZM15.3531 6.89687C15.1594 6.70312 14.8406 6.70312 14.6469 6.89687L14.1469 7.39687C13.9531 7.59062 13.9531 7.90938 14.1469 8.10313C14.3406 8.29688 14.6594 8.29688 14.8531 8.10313L15.3531 7.60313C15.5469 7.40938 15.5469 7.09062 15.3531 6.89687ZM9.85313 11.6031C10.0469 11.4094 10.0469 11.0906 9.85313 10.8969C9.65938 10.7031 9.34062 10.7031 9.14687 10.8969L8.64687 11.3969C8.45312 11.5906 8.45312 11.9094 8.64687 12.1031C8.84062 12.2969 9.15938 12.2969 9.35313 12.1031L9.85313 11.6031ZM14.8531 10.8969C14.6594 10.7031 14.3406 10.7031 14.1469 10.8969C13.9531 11.0906 13.9531 11.4094 14.1469 11.6031L14.6469 12.1031C14.8406 12.2969 15.1594 12.2969 15.3531 12.1031C15.5469 11.9094 15.5469 11.5906 15.3531 11.3969L14.8531 10.8969ZM13.75 9.5C13.75 9.08437 12.9656 8.75 12 8.75C11.0344 8.75 10.25 9.08437 10.25 9.5C10.25 9.91563 11.0344 10.25 12 10.25C12.9656 10.25 13.75 9.91563 13.75 9.5ZM12 19C8.2 19 5.10625 15.9719 5.00313 12.1938C5.41562 12.7063 5.93437 13.1531 6.50937 13.5219C7.95938 14.4563 9.90313 15 12 15C14.0969 15 16.0406 14.4563 17.4906 13.5219C18.0688 13.15 18.5844 12.7031 18.9969 12.1938C18.8937 15.9719 15.8 19 12 19Z" fill="black"/>
</svg>
