<svg width="24" height="24" viewBox="0 0 24 24" fill="none" xmlns="http://www.w3.org/2000/svg">
<path d="M18.25 4C18.5437 4 18.8219 4.11563 19.0312 4.32188L20.4281 5.71875C20.6344 5.925 20.75 6.20625 20.75 6.5C20.75 6.79375 20.6344 7.07188 20.4281 7.28125L17.3969 10.3125C17.3031 10.4062 17.25 10.5344 17.25 10.6656V11.6625C17.25 12.2063 16.9562 12.7094 16.4781 12.975L15.5094 13.5125L12.2469 10.2531L11.8937 9.9L17.4687 4.32188C17.6781 4.11563 17.9562 4 18.25 4ZM16.5 9C16.6326 9 16.7598 8.94732 16.8536 8.85355C16.9473 8.75979 17 8.63261 17 8.5C17 8.36739 16.9473 8.24021 16.8536 8.14645C16.7598 8.05268 16.6326 8 16.5 8C16.3674 8 16.2402 8.05268 16.1464 8.14645C16.0527 8.24021 16 8.36739 16 8.5C16 8.63261 16.0527 8.75979 16.1464 8.85355C16.2402 8.94732 16.3674 9 16.5 9ZM19 6.5C19 6.36739 18.9473 6.24021 18.8536 6.14645C18.7598 6.05268 18.6326 6 18.5 6C18.3674 6 18.2402 6.05268 18.1464 6.14645C18.0527 6.24021 18 6.36739 18 6.5C18 6.63261 18.0527 6.75979 18.1464 6.85355C18.2402 6.94732 18.3674 7 18.5 7C18.6326 7 18.7598 6.94732 18.8536 6.85355C18.9473 6.75979 19 6.63261 19 6.5ZM11.1875 10.6062L11.5406 10.9594L15.4781 14.8969C15.6719 15.0906 15.6719 15.4094 15.4781 15.6031C13.0437 18.0375 10.3531 20 6.5 20C5.7 20 4.90937 19.8688 4.32812 19.7375C4.03437 19.6719 3.79062 19.6062 3.61875 19.5594C3.53125 19.5344 3.46562 19.5156 3.41562 19.5C3.39062 19.4937 3.37187 19.4875 3.35937 19.4812L3.34375 19.475H3.34062C3.34062 19.475 3.34062 19.475 3.5 19L3.34062 19.475C3.175 19.4188 3.05312 19.2844 3.0125 19.1156C2.97187 18.9469 3.02187 18.7688 3.14687 18.6469L10.8344 10.9594L11.1875 10.6062Z" fill="black"/>
</svg>
