<svg width="24" height="24" viewBox="0 0 24 24" fill="none" xmlns="http://www.w3.org/2000/svg">
<path d="M3.21255 4.15937C2.88755 3.90312 2.41568 3.96249 2.15943 4.28749C1.90318 4.61249 1.96255 5.08437 2.28755 5.34062L20.7876 19.8406C21.1126 20.0969 21.5844 20.0375 21.8407 19.7125C22.0969 19.3875 22.0376 18.9156 21.7126 18.6594L21.2751 18.3187C21.7219 17.8844 22.0001 17.275 22.0001 16.6C22.0001 16.2687 21.7313 16 21.4001 16H18.3188L6.83755 6.99999H18.0001V15H20.0001V6.99999C20.0001 5.89687 19.1032 4.99999 18.0001 4.99999H6.00005C5.55005 4.99999 5.1313 5.14999 4.79693 5.40312L3.21255 4.15937ZM6.00005 10.1562L4.00005 8.58124V15H6.00005V10.1562ZM17.2251 19L13.4157 16H2.60005C2.2688 16 2.00005 16.2687 2.00005 16.6C2.00005 17.925 3.07505 19 4.40005 19H17.2251Z" fill="black"/>
</svg>
