<svg width="24" height="24" viewBox="0 0 24 24" fill="none" xmlns="http://www.w3.org/2000/svg">
<path d="M20.1187 12.3657C21.8843 10.6 21.8843 7.74065 20.1187 5.97503C18.5562 4.41253 16.0937 4.2094 14.2969 5.49378L14.2469 5.52815C13.7969 5.85003 13.6937 6.47503 14.0156 6.9219C14.3375 7.36878 14.9625 7.47503 15.4094 7.15315L15.4594 7.11878C16.4625 6.40315 17.8344 6.51565 18.7031 7.38753C19.6875 8.3719 19.6875 9.96565 18.7031 10.95L15.1968 14.4625C14.2125 15.4469 12.6187 15.4469 11.6343 14.4625C10.7625 13.5907 10.65 12.2188 11.3656 11.2188L11.4 11.1688C11.7218 10.7188 11.6156 10.0938 11.1687 9.77503C10.7219 9.45628 10.0937 9.5594 9.77498 10.0063L9.7406 10.0563C8.4531 11.85 8.65623 14.3125 10.2187 15.875C11.9844 17.6407 14.8437 17.6407 16.6094 15.875L20.1187 12.3657ZM3.88123 11.6344C2.1156 13.4 2.1156 16.2594 3.88123 18.025C5.44373 19.5875 7.90623 19.7907 9.7031 18.5063L9.7531 18.4719C10.2031 18.15 10.3062 17.525 9.98435 17.0782C9.66248 16.6313 9.03748 16.525 8.5906 16.8469L8.5406 16.8813C7.53748 17.5969 6.1656 17.4844 5.29685 16.6125C4.31248 15.625 4.31248 14.0313 5.29685 13.0469L8.8031 9.53753C9.78748 8.55315 11.3812 8.55315 12.3656 9.53753C13.2375 10.4094 13.35 11.7813 12.6343 12.7844L12.6 12.8344C12.2781 13.2844 12.3844 13.9094 12.8312 14.2282C13.2781 14.5469 13.9062 14.4438 14.225 13.9969L14.2593 13.9469C15.5469 12.15 15.3437 9.68753 13.7812 8.12503C12.0156 6.3594 9.15623 6.3594 7.3906 8.12503L3.88123 11.6344Z" fill="black"/>
</svg>
