<svg width="24" height="24" viewBox="0 0 24 24" fill="none" xmlns="http://www.w3.org/2000/svg">
<path d="M19.7594 12.55C19.9125 12.4094 20 12.2094 20 12C20 11.7906 19.9125 11.5937 19.7594 11.45L16.2594 8.2C16.0406 7.99687 15.7219 7.94375 15.45 8.0625C15.1781 8.18125 15 8.45312 15 8.75V10.5H9V8.75C9 8.45312 8.82188 8.18125 8.55 8.0625C8.27813 7.94375 7.95937 7.99687 7.74062 8.2L4.24062 11.45C4.0875 11.5937 4 11.7906 4 12C4 12.2094 4.0875 12.4062 4.24062 12.55L7.74062 15.8C7.95937 16.0031 8.27813 16.0562 8.55 15.9375C8.82188 15.8187 9 15.5469 9 15.25V13.5H15V15.25C15 15.5469 15.1781 15.8187 15.45 15.9375C15.7219 16.0562 16.0406 16.0031 16.2594 15.8L19.7594 12.55Z" fill="black"/>
</svg>
