<svg width="24" height="24" viewBox="0 0 24 24" fill="none" xmlns="http://www.w3.org/2000/svg">
<path d="M12.7406 19.6C14.3437 17.5938 18 12.7313 18 10C18 6.6875 15.3125 4 12 4C8.6875 4 6 6.6875 6 10C6 12.7313 9.65625 17.5938 11.2594 19.6C11.6438 20.0781 12.3562 20.0781 12.7406 19.6ZM9.30625 8.16563C9.55313 7.46875 10.2156 7 10.9563 7H12.7781C13.8687 7 14.75 7.88438 14.75 8.97188C14.75 9.67813 14.3719 10.3312 13.7594 10.6844L12.75 11.2625C12.7437 11.6687 12.4094 12 12 12C11.5844 12 11.25 11.6656 11.25 11.25V10.8281C11.25 10.5594 11.3938 10.3125 11.6281 10.1781L13.0125 9.38438C13.1594 9.3 13.25 9.14375 13.25 8.975C13.25 8.7125 13.0375 8.50313 12.7781 8.50313H10.9563C10.85 8.50313 10.7563 8.56875 10.7219 8.66875L10.7094 8.70625C10.5719 9.09688 10.1406 9.3 9.75312 9.1625C9.36562 9.025 9.15937 8.59375 9.29688 8.20625L9.30938 8.16875L9.30625 8.16563ZM11 14C11 13.7348 11.1054 13.4804 11.2929 13.2929C11.4804 13.1054 11.7348 13 12 13C12.2652 13 12.5196 13.1054 12.7071 13.2929C12.8946 13.4804 13 13.7348 13 14C13 14.2652 12.8946 14.5196 12.7071 14.7071C12.5196 14.8946 12.2652 15 12 15C11.7348 15 11.4804 14.8946 11.2929 14.7071C11.1054 14.5196 11 14.2652 11 14Z" fill="black"/>
</svg>
