<svg width="24" height="24" viewBox="0 0 24 24" fill="none" xmlns="http://www.w3.org/2000/svg">
<path d="M7.57814 4.61563C7.73126 4.24375 8.09689 4 8.50001 4H15.5C15.9031 4 16.2688 4.24375 16.4219 4.61563L18.9219 10.6156C19.05 10.925 19.0156 11.2781 18.8313 11.5563C18.6469 11.8344 18.3344 12 18 12H6.00001C5.66564 12 5.35314 11.8344 5.16876 11.5563C4.98439 11.2781 4.95001 10.925 5.07814 10.6156L7.57814 4.61563ZM10 13H14V14C14 14 16 15.5781 16 17.5C16 18.2625 15.7406 18.8938 15.4875 19.3344C15.2219 19.7938 14.7 20 14.1719 20H9.82814C9.29689 20 8.77814 19.7938 8.51251 19.3344C8.25939 18.8938 8.00001 18.2625 8.00001 17.5C8.00001 15.5781 10 14 10 14V13Z" fill="black"/>
</svg>
