<svg width="24" height="24" viewBox="0 0 24 24" fill="none" xmlns="http://www.w3.org/2000/svg">
<path d="M9.99997 6C9.99997 5.44687 9.5531 5 8.99997 5C8.44685 5 7.99997 5.44687 7.99997 6V10.675L6.72497 11.0375C6.19372 11.1906 5.88747 11.7437 6.03747 12.275C6.18747 12.8062 6.74372 13.1125 7.27497 12.9625L7.99997 12.7531V18C7.99997 18.5531 8.44685 19 8.99997 19H17C17.5531 19 18 18.5531 18 18C18 17.4469 17.5531 17 17 17H9.99997V12.1844L14.275 10.9625C14.8062 10.8094 15.1125 10.2562 14.9625 9.725C14.8125 9.19375 14.2562 8.8875 13.725 9.0375L9.99997 10.1031V6Z" fill="black"/>
</svg>
