<svg width="24" height="24" viewBox="0 0 24 24" fill="none" xmlns="http://www.w3.org/2000/svg">
<path d="M12.5 7.00003H15.75C17.0844 7.00003 18.2469 6.25316 18.8375 5.15316C18.9469 4.95003 19.2625 4.94066 19.3438 5.15628C19.7656 6.29691 20.0031 7.56253 20.0031 8.89378C20 13.9094 16.6594 17.9782 12.5312 18H12.5C9.94688 18 7.8 16.2594 7.18125 13.9C6.14688 14.8594 5.5 16.2313 5.5 17.75V18.25C5.5 18.6657 5.16562 19 4.75 19C4.33437 19 4 18.6657 4 18.25V17.75C4 15.4032 5.19688 13.3375 7.0125 12.1282C7.20312 9.26566 9.5875 7.00003 12.5 7.00003ZM9.92812 11.5875C9.92812 12.0375 10.1094 12.4719 10.4344 12.7875L12.65 14.9438C12.8438 15.1313 13.1531 15.1313 13.3469 14.9438L15.5625 12.7875C15.8875 12.4719 16.0688 12.0407 16.0688 11.5875C16.0688 10.6657 15.3219 9.91566 14.3969 9.91566H14.35C13.9031 9.91566 13.4719 10.0907 13.15 10.4032L12.9969 10.5532L12.8438 10.4032C12.5219 10.0907 12.0938 9.91566 11.6438 9.91566H11.5969C10.675 9.91566 9.925 10.6625 9.925 11.5875H9.92812Z" fill="black"/>
</svg>
