<svg width="24" height="24" viewBox="0 0 24 24" fill="none" xmlns="http://www.w3.org/2000/svg">
<path d="M4.16563 5.12502C3.82188 4.89377 3.35625 4.98752 3.125 5.3344C2.89375 5.68127 2.9875 6.14377 3.33438 6.37502L4.83437 7.37502C5.17812 7.60627 5.64375 7.51252 5.875 7.16565C6.10625 6.81877 6.0125 6.35627 5.66563 6.12502L4.16563 5.12502ZM20.6656 6.37502C21.0094 6.14377 21.1031 5.67815 20.875 5.3344C20.6469 4.99065 20.1781 4.8969 19.8344 5.12502L18.3344 6.12502C17.9906 6.35627 17.8969 6.8219 18.125 7.16565C18.3531 7.5094 18.8219 7.60315 19.1656 7.37502L20.6656 6.37502ZM2.75 10C2.33437 10 2 10.3344 2 10.75C2 11.1656 2.33437 11.5 2.75 11.5H4.75C5.16563 11.5 5.5 11.1656 5.5 10.75C5.5 10.3344 5.16563 10 4.75 10H2.75ZM19.25 10C18.8344 10 18.5 10.3344 18.5 10.75C18.5 11.1656 18.8344 11.5 19.25 11.5H21.25C21.6656 11.5 22 11.1656 22 10.75C22 10.3344 21.6656 10 21.25 10H19.25ZM12 5.00002C9.2375 5.00002 7 7.23752 7 10V15H17V10C17 7.23752 14.7625 5.00002 12 5.00002ZM9.5 10C9.5 10.275 9.275 10.5 9 10.5C8.725 10.5 8.5 10.275 8.5 10C8.5 8.06565 10.0656 6.50002 12 6.50002C12.275 6.50002 12.5 6.72502 12.5 7.00002C12.5 7.27502 12.275 7.50002 12 7.50002C10.6187 7.50002 9.5 8.61877 9.5 10ZM5 17V18C5 18.5531 5.44688 19 6 19H18C18.5531 19 19 18.5531 19 18V17C19 16.4469 18.5531 16 18 16H6C5.44688 16 5 16.4469 5 17Z" fill="black"/>
</svg>
