<svg width="24" height="24" viewBox="0 0 24 24" fill="none" xmlns="http://www.w3.org/2000/svg">
<path d="M12.9688 4.75623C13.1031 5.2906 12.7781 5.83435 12.2406 5.96873L8.24062 6.96873C7.70625 7.1031 7.1625 6.7781 7.02812 6.2406C6.89375 5.7031 7.21875 5.16248 7.75625 5.0281L11.7563 4.0281C12.2906 3.89373 12.8344 4.21873 12.9688 4.75623ZM16.2437 7.96873L8.24375 9.96873C7.70937 10.1031 7.16563 9.7781 7.03125 9.2406C6.89687 8.7031 7.22188 8.16248 7.75938 8.0281L15.7594 6.0281C16.2937 5.89373 16.8375 6.21873 16.9719 6.75623C17.1062 7.29373 16.7812 7.83435 16.2437 7.96873ZM16.9688 9.75623C17.1031 10.2906 16.7781 10.8344 16.2406 10.9687L8.24062 12.9687C7.70625 13.1031 7.1625 12.7781 7.02812 12.2406C6.89375 11.7031 7.21875 11.1625 7.75625 11.0281L15.7563 9.0281C16.2906 8.89373 16.8344 9.21873 16.9688 9.75623ZM10 16V13.5625L11.5 13.1875V16H14C14.5531 16 15 16.4469 15 17V18C15 18.5531 14.5531 19 14 19H13C13 19.5531 12.5531 20 12 20C11.4469 20 11 19.5531 11 19H10C9.44688 19 9 18.5531 9 18V17C9 16.4469 9.44688 16 10 16ZM16.2437 13.9687L14.2437 14.4687L14 14.5312V16H12.5V13.6469C12.5 13.6312 12.5 13.6187 12.5 13.6031V13.5H12.5063C12.5563 13.1031 12.8438 12.7594 13.2563 12.6562L13.7563 12.5312L15.7563 12.0312C16.2906 11.8969 16.8344 12.2219 16.9688 12.7594C17.1031 13.2969 16.7781 13.8375 16.2406 13.9719L16.2437 13.9687ZM3.66562 4.12498L5.16563 5.12498C5.50938 5.35623 5.60313 5.82185 5.375 6.1656C5.14687 6.50935 4.67812 6.6031 4.33437 6.37498L2.83438 5.37498C2.49063 5.14373 2.39687 4.6781 2.625 4.33435C2.85312 3.9906 3.32187 3.89685 3.66562 4.12498ZM21.1656 5.37498L19.6656 6.37498C19.3219 6.60623 18.8563 6.51248 18.625 6.1656C18.3937 5.81873 18.4875 5.35623 18.8344 5.12498L20.3344 4.12498C20.6781 3.89373 21.1437 3.98748 21.375 4.33435C21.6063 4.68123 21.5125 5.14373 21.1656 5.37498ZM2.75 8.99998H4.75C5.16563 8.99998 5.5 9.33435 5.5 9.74998C5.5 10.1656 5.16563 10.5 4.75 10.5H2.75C2.33437 10.5 2 10.1656 2 9.74998C2 9.33435 2.33437 8.99998 2.75 8.99998ZM19.25 8.99998H21.25C21.6656 8.99998 22 9.33435 22 9.74998C22 10.1656 21.6656 10.5 21.25 10.5H19.25C18.8344 10.5 18.5 10.1656 18.5 9.74998C18.5 9.33435 18.8344 8.99998 19.25 8.99998ZM5.16563 14.375L3.66562 15.375C3.32187 15.6062 2.85625 15.5125 2.625 15.1656C2.39375 14.8187 2.4875 14.3562 2.83438 14.125L4.33437 13.125C4.67812 12.8937 5.14375 12.9875 5.375 13.3344C5.60625 13.6812 5.5125 14.1437 5.16563 14.375ZM19.6656 13.1281L21.1656 14.1281C21.5094 14.3594 21.6031 14.825 21.375 15.1687C21.1469 15.5125 20.6781 15.6062 20.3344 15.3781L18.8344 14.3781C18.4906 14.1469 18.3969 13.6812 18.625 13.3375C18.8531 12.9937 19.3219 12.9 19.6656 13.1281Z" fill="black"/>
</svg>
