<svg width="24" height="24" viewBox="0 0 24 24" fill="none" xmlns="http://www.w3.org/2000/svg">
<path d="M12 7.16563C12.0938 7.09063 12.1938 7.01562 12.3031 6.9375C12.8594 6.54063 13.7656 6 14.75 6C15.3844 6 16.0875 6.29062 16.6687 6.6C17.2937 6.93125 17.9531 7.37187 18.55 7.83437C19.1469 8.29687 19.7094 8.80937 20.1375 9.2875C20.35 9.525 20.5469 9.77812 20.6969 10.0281C20.8312 10.2531 21 10.6 21 10.9969C21 11.2844 20.9188 11.5937 20.8344 11.8562C20.7406 12.1406 20.6031 12.4625 20.4344 12.8031C20.0969 13.4813 19.5969 14.2687 18.9438 15.025C17.65 16.5281 15.6469 18 13 18H11C8.35313 18 6.35 16.5281 5.05625 15.0281C4.40313 14.275 3.90625 13.4844 3.56563 12.8062C3.39688 12.4687 3.2625 12.1469 3.16563 11.8594C3.08125 11.5969 3 11.2875 3 11C3 10.6 3.17188 10.2562 3.30312 10.0312C3.45312 9.77812 3.65 9.52813 3.8625 9.29063C4.2875 8.8125 4.85313 8.3 5.45 7.8375C6.04688 7.37188 6.70625 6.93125 7.33125 6.60313C7.9125 6.29063 8.61563 6 9.25 6C10.2344 6 11.1437 6.5375 11.6969 6.9375C11.8031 7.01562 11.9062 7.09063 12 7.16563ZM5 11C5 11.2469 7.5 14 12 14C16.5 14 19 11.2469 19 11C19 10.7594 17.5531 10.0281 14.6625 10C14.5563 10 14.4469 10.0156 14.3469 10.0469C13.9375 10.175 12.8031 10.5 12 10.5C11.1969 10.5 10.0625 10.175 9.65312 10.05C9.55 10.0188 9.44375 10 9.3375 10.0031C6.44688 10.0281 5 10.7594 5 11Z" fill="black"/>
</svg>
