<svg width="24" height="24" viewBox="0 0 24 24" fill="none" xmlns="http://www.w3.org/2000/svg">
<path d="M12 6C13.3813 6 14.5 7.11875 14.5 8.5V10H9.5V8.5C9.5 7.11875 10.6187 6 12 6ZM7.5 8.5V10H7C5.89688 10 5 10.8969 5 12V18C5 19.1031 5.89688 20 7 20H17C18.1031 20 19 19.1031 19 18V12C19 10.8969 18.1031 10 17 10H16.5V8.5C16.5 6.01562 14.4844 4 12 4C9.51562 4 7.5 6.01562 7.5 8.5ZM9.05312 17.275L11.55 12.2812C11.575 12.2312 11.6063 12.1875 11.6438 12.1469C11.6875 12.1 11.7406 12.0656 11.8 12.0406C11.8656 12.0125 11.9312 12 12 12C12.0688 12 12.1344 12.0125 12.2 12.0406C12.2562 12.0656 12.3094 12.1 12.3562 12.1469C12.3969 12.1875 12.4281 12.2312 12.4531 12.2812L14.95 17.2781C15.075 17.525 14.9719 17.825 14.725 17.95C14.4781 18.075 14.1781 17.9719 14.0531 17.725L13.4406 16.5H10.5594L9.94688 17.725C9.82188 17.9719 9.52188 18.0719 9.275 17.95C9.02813 17.8281 8.92813 17.525 9.05 17.2781L9.05312 17.275ZM11.0594 15.5H12.9406L12 13.6187L11.0594 15.5Z" fill="black"/>
</svg>
