<svg width="24" height="24" viewBox="0 0 24 24" fill="none" xmlns="http://www.w3.org/2000/svg">
<path d="M9.54688 16.9375C9.27187 17.0562 8.95312 17 8.73438 16.7937L4.23438 12.5437C4.08437 12.4031 4 12.2062 4 12C4 11.7937 4.08437 11.5969 4.23438 11.4562L8.73438 7.20624C8.95312 6.99999 9.27187 6.94374 9.54688 7.06249C9.82188 7.18124 10 7.45311 10 7.74999V9.99999H19C19.5531 9.99999 20 10.4469 20 11V13C20 13.5531 19.5531 14 19 14H10V16.25C10 16.55 9.82188 16.8187 9.54688 16.9375Z" fill="black"/>
</svg>
