<svg width="24" height="24" viewBox="0 0 24 24" fill="none" xmlns="http://www.w3.org/2000/svg">
<path d="M16 13C15.2875 13 14.6125 12.85 14 12.5844V17H12.75V11.8C12.4719 11.5625 12.2187 11.2937 12 11H10.75V17H9.25V11H7.25V17H6V11H4V17.1344C3.98125 17.1437 3.9625 17.1562 3.94375 17.1687L2.44375 18.1687C2.07812 18.4125 1.9125 18.8687 2.04062 19.2906C2.16875 19.7125 2.55937 20 3 20H17C17.4406 20 17.8281 19.7125 17.9562 19.2906C18.0844 18.8687 17.9219 18.4125 17.5531 18.1687L16.0531 17.1687C16.0344 17.1562 16.0156 17.1469 15.9969 17.1344V13H16ZM3 10H11.4156C11.1469 9.3875 11 8.7125 11 8C11 6.87188 11.375 5.83125 12.0031 4.99375L10.4969 4.13125C10.1906 3.95625 9.8125 3.95625 9.50312 4.13125L4.1375 7.2L4 7.25V7.27813L2.50312 8.13125C2.10937 8.35625 1.91562 8.81875 2.03125 9.25625C2.14687 9.69375 2.54687 10 3 10ZM16 5.50312C16.663 5.50312 17.2989 5.76652 17.7678 6.23536C18.2366 6.7042 18.5 7.34008 18.5 8.00313C18.5 8.66617 18.2366 9.30205 17.7678 9.77089C17.2989 10.2397 16.663 10.5031 16 10.5031C15.337 10.5031 14.7011 10.2397 14.2322 9.77089C13.7634 9.30205 13.5 8.66617 13.5 8.00313C13.5 7.34008 13.7634 6.7042 14.2322 6.23536C14.7011 5.76652 15.337 5.50312 16 5.50312ZM16 12.0031C16.8344 12.0031 17.6062 11.7469 18.2469 11.3125L20.7187 13.7844C21.0125 14.0781 21.4875 14.0781 21.7781 13.7844C22.0687 13.4906 22.0719 13.0156 21.7781 12.725L19.3062 10.2531C19.7437 9.6125 19.9969 8.8375 19.9969 8.00625C19.9969 5.79688 18.2062 4.00625 15.9969 4.00625C13.7875 4.00625 11.9969 5.79688 11.9969 8.00625C11.9969 10.2156 13.7875 12.0063 15.9969 12.0063L16 12.0031Z" fill="black"/>
</svg>
