<svg width="24" height="24" viewBox="0 0 24 24" fill="none" xmlns="http://www.w3.org/2000/svg">
<path d="M11.2656 4.16251C11.7312 3.94689 12.2688 3.94689 12.7344 4.16251L19.5656 7.31876C19.8312 7.44064 20 7.70626 20 8.00001C20 8.29376 19.8312 8.55939 19.5656 8.68126L12.7344 11.8375C12.2688 12.0531 11.7312 12.0531 11.2656 11.8375L4.43438 8.68126C4.16875 8.55626 4 8.29064 4 8.00001C4 7.70939 4.16875 7.44064 4.43438 7.31876L11.2656 4.16251ZM17.9031 10.55L19.5656 11.3188C19.8312 11.4406 20 11.7063 20 12C20 12.2938 19.8312 12.5594 19.5656 12.6813L12.7344 15.8375C12.2688 16.0531 11.7312 16.0531 11.2656 15.8375L4.43438 12.6813C4.16875 12.5563 4 12.2906 4 12C4 11.7094 4.16875 11.4406 4.43438 11.3188L6.09687 10.55L10.8469 12.7438C11.5781 13.0813 12.4219 13.0813 13.1531 12.7438L17.9031 10.55ZM13.1531 16.7438L17.9031 14.55L19.5656 15.3188C19.8312 15.4406 20 15.7063 20 16C20 16.2938 19.8312 16.5594 19.5656 16.6813L12.7344 19.8375C12.2688 20.0531 11.7312 20.0531 11.2656 19.8375L4.43438 16.6813C4.16875 16.5563 4 16.2906 4 16C4 15.7094 4.16875 15.4406 4.43438 15.3188L6.09687 14.55L10.8469 16.7438C11.5781 17.0813 12.4219 17.0813 13.1531 16.7438Z" fill="black"/>
</svg>
