<svg width="24" height="24" viewBox="0 0 24 24" fill="none" xmlns="http://www.w3.org/2000/svg">
<path d="M3.04693 4.05938L6.54693 5.55938C6.92818 5.72188 7.10318 6.16251 6.94068 6.54376C6.77818 6.92501 6.33755 7.10001 5.9563 6.93751L2.4563 5.43751C2.07505 5.27501 1.89693 4.83438 2.05943 4.45626C2.22193 4.07813 2.66568 3.89688 3.04693 4.05938ZM6.54693 10.4375L3.04693 11.9375C2.66568 12.1 2.22505 11.925 2.06255 11.5438C1.90005 11.1625 2.07505 10.7219 2.4563 10.5594L5.9563 9.05938C6.33755 8.89688 6.77818 9.07188 6.94068 9.45313C7.10318 9.83438 6.92818 10.275 6.54693 10.4375ZM11.4969 4.13751C11.8094 3.95626 12.1938 3.95626 12.5032 4.13751L15.5032 5.88751C15.9813 6.16563 16.1407 6.77813 15.8626 7.25626C15.6782 7.57188 15.3438 7.75001 15.0001 7.75001V9.00001C15.5532 9.00001 16.0001 9.44688 16.0001 10C16.0001 10.4156 15.7469 10.7719 15.3844 10.9219L16.8001 18H17.0001C17.5532 18 18 18.4469 18 19C18 19.5531 17.5532 20 17.0001 20H16.0907H13.0001V18C13.0001 17.4469 12.5532 17 12.0001 17C11.4469 17 11.0001 17.4469 11.0001 18V20H7.90943H7.00005C6.44693 20 6.00005 19.5531 6.00005 19C6.00005 18.4469 6.44693 18 7.00005 18H7.20005L8.61568 10.9219C8.25318 10.7719 8.00005 10.4156 8.00005 10C8.00005 9.44688 8.44693 9.00001 9.00005 9.00001V7.75001C8.6563 7.75001 8.32193 7.57188 8.13755 7.25313C7.85943 6.77501 8.02193 6.16251 8.49693 5.88438L11.4969 4.13438V4.13751ZM13.0001 6.74063L12.0001 6.15938L11.0001 6.74063V9.00001H13.0001V6.74063ZM21.9407 4.45626C22.1032 4.83751 21.9282 5.27813 21.5469 5.44063L18.0469 6.94063C17.6657 7.10313 17.2251 6.92813 17.0626 6.54688C16.9001 6.16563 17.0751 5.72501 17.4563 5.56251L20.9563 4.06251C21.3375 3.90001 21.7782 4.07501 21.9407 4.45626ZM17.0626 9.45626C17.2251 9.07501 17.6657 8.90001 18.0469 9.06251L21.5469 10.5625C21.9282 10.725 22.1032 11.1656 21.9407 11.5469C21.7782 11.9281 21.3375 12.1031 20.9563 11.9406L17.4563 10.4406C17.0751 10.2781 16.9001 9.83751 17.0626 9.45626Z" fill="black"/>
</svg>
