<svg width="24" height="24" viewBox="0 0 24 24" fill="none" xmlns="http://www.w3.org/2000/svg">
<path d="M4.16563 5.1249C3.82188 4.89365 3.35625 4.9874 3.125 5.33427C2.89375 5.68115 2.9875 6.14365 3.33438 6.3749L4.83437 7.3749C5.17812 7.60615 5.64375 7.5124 5.875 7.16552C6.10625 6.81865 6.0125 6.35615 5.66563 6.1249L4.16563 5.1249ZM20.6656 6.3749C21.0094 6.14365 21.1031 5.67802 20.875 5.33427C20.6469 4.99052 20.1781 4.89677 19.8344 5.1249L18.3344 6.1249C17.9906 6.35615 17.8969 6.82177 18.125 7.16552C18.3531 7.50927 18.8219 7.60302 19.1656 7.3749L20.6656 6.3749ZM2.75 9.9999C2.33437 9.9999 2 10.3343 2 10.7499C2 11.1655 2.33437 11.4999 2.75 11.4999H4.75C5.16563 11.4999 5.5 11.1655 5.5 10.7499C5.5 10.3343 5.16563 9.9999 4.75 9.9999H2.75ZM19.25 9.9999C18.8344 9.9999 18.5 10.3343 18.5 10.7499C18.5 11.1655 18.8344 11.4999 19.25 11.4999H21.25C21.6656 11.4999 22 11.1655 22 10.7499C22 10.3343 21.6656 9.9999 21.25 9.9999H19.25ZM12 4.9999C9.2375 4.9999 7 7.2374 7 9.9999V14.9999H17V9.9999C17 7.2374 14.7625 4.9999 12 4.9999ZM9.5 9.9999C9.5 10.2749 9.275 10.4999 9 10.4999C8.725 10.4999 8.5 10.2749 8.5 9.9999C8.5 8.06552 10.0656 6.4999 12 6.4999C12.275 6.4999 12.5 6.7249 12.5 6.9999C12.5 7.2749 12.275 7.4999 12 7.4999C10.6187 7.4999 9.5 8.61865 9.5 9.9999ZM5 16.9999V17.9999C5 18.553 5.44688 18.9999 6 18.9999H18C18.5531 18.9999 19 18.553 19 17.9999V16.9999C19 16.4468 18.5531 15.9999 18 15.9999H6C5.44688 15.9999 5 16.4468 5 16.9999Z" fill="black"/>
</svg>
