<svg width="24" height="24" viewBox="0 0 24 24" fill="none" xmlns="http://www.w3.org/2000/svg">
<path d="M4.16563 4.12502L5.66563 5.12502C6.00938 5.35627 6.10313 5.8219 5.875 6.16565C5.64687 6.5094 5.17812 6.60315 4.83437 6.37502L3.33438 5.37502C2.99063 5.14377 2.89688 4.67815 3.125 4.3344C3.35312 3.99065 3.82188 3.8969 4.16563 4.12502ZM20.6656 5.37502L19.1656 6.37502C18.8219 6.60627 18.3563 6.51252 18.125 6.16565C17.8938 5.81877 17.9875 5.35627 18.3344 5.12502L19.8344 4.12502C20.1781 3.89377 20.6437 3.98752 20.875 4.3344C21.1063 4.68127 21.0125 5.14377 20.6656 5.37502ZM2.75 9.00002H4.75C5.16563 9.00002 5.5 9.3344 5.5 9.75002C5.5 10.1656 5.16563 10.5 4.75 10.5H2.75C2.33437 10.5 2 10.1656 2 9.75002C2 9.3344 2.33437 9.00002 2.75 9.00002ZM19.25 9.00002H21.25C21.6656 9.00002 22 9.3344 22 9.75002C22 10.1656 21.6656 10.5 21.25 10.5H19.25C18.8344 10.5 18.5 10.1656 18.5 9.75002C18.5 9.3344 18.8344 9.00002 19.25 9.00002ZM5.66563 14.375L4.16563 15.375C3.82188 15.6063 3.35625 15.5125 3.125 15.1656C2.89375 14.8188 2.9875 14.3563 3.33438 14.125L4.83437 13.125C5.17812 12.8938 5.64375 12.9875 5.875 13.3344C6.10625 13.6813 6.0125 14.1438 5.66563 14.375ZM19.1656 13.1281L20.6656 14.1281C21.0094 14.3594 21.1031 14.825 20.875 15.1688C20.6469 15.5125 20.1781 15.6063 19.8344 15.3781L18.3344 14.3781C17.9906 14.1469 17.8969 13.6813 18.125 13.3375C18.3531 12.9938 18.8219 12.9 19.1656 13.1281ZM16.0375 13.3063C15.4188 14.1531 14.7969 15.0063 14.5 16H9.5C9.2 15.0031 8.57812 14.1531 7.9625 13.3063C7.8 13.0844 7.6375 12.8625 7.48125 12.6375C6.8625 11.7469 6.5 10.6656 6.5 9.50002C6.5 6.46252 8.9625 4.00002 12 4.00002C15.0375 4.00002 17.5 6.46252 17.5 9.50002C17.5 10.6656 17.1375 11.7469 16.5188 12.6344C16.3625 12.8594 16.2 13.0813 16.0375 13.3031V13.3063ZM14.5 17.5C14.5 18.8813 13.3813 20 12 20C10.6187 20 9.5 18.8813 9.5 17.5V17H14.5V17.5ZM12 7.00002C12.275 7.00002 12.5 6.77502 12.5 6.50002C12.5 6.22502 12.275 6.00002 12 6.00002C10.0656 6.00002 8.5 7.56565 8.5 9.50002C8.5 9.77502 8.725 10 9 10C9.275 10 9.5 9.77502 9.5 9.50002C9.5 8.11877 10.6187 7.00002 12 7.00002Z" fill="black"/>
</svg>
