<svg width="24" height="24" viewBox="0 0 24 24" fill="none" xmlns="http://www.w3.org/2000/svg">
<path d="M15.475 16.8906C14.4969 17.5906 13.2969 18 12 18C10.7031 18 9.50313 17.5906 8.525 16.8906L10.3375 15.0781C10.8313 15.3469 11.4 15.5 12.0031 15.5C12.6063 15.5 13.1719 15.3469 13.6687 15.0781L15.4812 16.8906H15.475ZM18.3094 16.9156C19.3656 15.5594 19.9969 13.8531 19.9969 12C19.9969 10.1469 19.3656 8.44062 18.3094 7.08437C18.5906 6.69375 18.5563 6.14375 18.2031 5.79375C17.85 5.44375 17.3062 5.40625 16.9156 5.6875C15.5594 4.63125 13.8531 4 12 4C10.1469 4 8.44062 4.63125 7.08437 5.6875C6.69375 5.40625 6.14375 5.44063 5.79375 5.79375C5.44375 6.14688 5.40625 6.69375 5.6875 7.08437C4.63125 8.44062 4 10.1469 4 12C4 13.8531 4.63125 15.5594 5.6875 16.9156C5.40625 17.3062 5.44063 17.8563 5.79375 18.2063C6.14688 18.5563 6.69375 18.5938 7.08437 18.3125C8.44062 19.3687 10.1469 20 12 20C13.8531 20 15.5594 19.3687 16.9156 18.3125C17.3062 18.5938 17.8563 18.5594 18.2063 18.2063C18.5563 17.8531 18.5938 17.3062 18.3125 16.9156H18.3094ZM16.8875 15.475L15.075 13.6625C15.3437 13.1688 15.4969 12.6 15.4969 11.9969C15.4969 11.3937 15.3437 10.8281 15.075 10.3313L16.8875 8.51875C17.5906 9.50313 18 10.7031 18 12C18 13.2969 17.5906 14.4969 16.8906 15.475H16.8875ZM15.475 7.10938L13.6625 8.92188C13.1688 8.65312 12.6 8.5 11.9969 8.5C11.3937 8.5 10.8281 8.65312 10.3313 8.92188L8.51875 7.10938C9.50313 6.40938 10.7031 6 12 6C13.2969 6 14.4969 6.40938 15.475 7.10938ZM8.92188 13.6656L7.10938 15.4781C6.40938 14.4969 6 13.2969 6 12C6 10.7031 6.40938 9.50313 7.10938 8.525L8.92188 10.3375C8.65312 10.8313 8.5 11.4 8.5 12.0031C8.5 12.6063 8.65312 13.1719 8.92188 13.6687V13.6656ZM10.5 12C10.5 11.6022 10.658 11.2206 10.9393 10.9393C11.2206 10.658 11.6022 10.5 12 10.5C12.3978 10.5 12.7794 10.658 13.0607 10.9393C13.342 11.2206 13.5 11.6022 13.5 12C13.5 12.3978 13.342 12.7794 13.0607 13.0607C12.7794 13.342 12.3978 13.5 12 13.5C11.6022 13.5 11.2206 13.342 10.9393 13.0607C10.658 12.7794 10.5 12.3978 10.5 12Z" fill="black"/>
</svg>
