<svg width="24" height="24" viewBox="0 0 24 24" fill="none" xmlns="http://www.w3.org/2000/svg">
<path d="M4.75016 5.75C4.75016 5.33437 5.08453 5 5.50016 5H6.50016C6.91578 5 7.25016 5.33437 7.25016 5.75V9.5H7.75016C8.16578 9.5 8.50016 9.83437 8.50016 10.25C8.50016 10.6656 8.16578 11 7.75016 11H5.25016C4.83453 11 4.50016 10.6656 4.50016 10.25C4.50016 9.83437 4.83453 9.5 5.25016 9.5H5.75016V6.5H5.50016C5.08453 6.5 4.75016 6.16563 4.75016 5.75ZM6.70953 14.6625C6.50641 14.4313 6.13766 14.4469 5.95953 14.7L5.60953 15.1844C5.36891 15.5219 4.90016 15.6 4.56266 15.3594C4.22516 15.1188 4.14703 14.65 4.38766 14.3125L4.73453 13.825C5.47516 12.7875 6.99391 12.7125 7.83453 13.6719C8.50016 14.4344 8.48453 15.575 7.80016 16.3188L6.71266 17.5H7.75016C8.16578 17.5 8.50016 17.8344 8.50016 18.25C8.50016 18.6656 8.16578 19 7.75016 19H5.00016C4.70328 19 4.43141 18.825 4.31266 18.55C4.19391 18.275 4.24703 17.9594 4.44703 17.7406L6.69703 15.3031C6.86266 15.1219 6.86578 14.8469 6.70641 14.6625H6.70953ZM11.0002 6H19.0002C19.5533 6 20.0002 6.44687 20.0002 7C20.0002 7.55313 19.5533 8 19.0002 8H11.0002C10.447 8 10.0002 7.55313 10.0002 7C10.0002 6.44687 10.447 6 11.0002 6ZM11.0002 11H19.0002C19.5533 11 20.0002 11.4469 20.0002 12C20.0002 12.5531 19.5533 13 19.0002 13H11.0002C10.447 13 10.0002 12.5531 10.0002 12C10.0002 11.4469 10.447 11 11.0002 11ZM11.0002 16H19.0002C19.5533 16 20.0002 16.4469 20.0002 17C20.0002 17.5531 19.5533 18 19.0002 18H11.0002C10.447 18 10.0002 17.5531 10.0002 17C10.0002 16.4469 10.447 16 11.0002 16Z" fill="black"/>
</svg>
