<svg width="24" height="24" viewBox="0 0 24 24" fill="none" xmlns="http://www.w3.org/2000/svg">
<path d="M12.7501 4.75V9.25C12.7501 9.66563 12.4157 10 12.0001 10C11.5845 10 11.2501 9.66563 11.2501 9.25V4.75C11.2501 4.33437 11.5845 4 12.0001 4C12.4157 4 12.7501 4.33437 12.7501 4.75ZM8.00012 14C8.00012 13.4469 8.44699 13 9.00012 13H15.0001C15.5532 13 16.0001 13.4469 16.0001 14V15H8.00012V14ZM5.58449 16.8281C5.83762 16.3188 6.35949 16 6.92512 16H17.072C17.6407 16 18.1595 16.3219 18.4126 16.8281L19.2751 18.5531C19.6095 19.2188 19.1251 20 18.3814 20H5.61887C4.87512 20 4.39074 19.2188 4.72512 18.5531L5.58762 16.8281H5.58449ZM3.13449 8.32188C3.36887 7.98125 3.83762 7.89687 4.17824 8.13125L7.42824 10.3812C7.76887 10.6156 7.85324 11.0844 7.61887 11.425C7.38449 11.7656 6.91574 11.85 6.57512 11.6156L3.32512 9.36562C2.98449 9.13125 2.90012 8.6625 3.13449 8.32188ZM19.8251 8.13125C20.1657 7.89687 20.6314 7.98125 20.8689 8.32188C21.1064 8.6625 21.0189 9.12812 20.6782 9.36562L17.4282 11.6156C17.0876 11.85 16.622 11.7656 16.3845 11.425C16.147 11.0844 16.2345 10.6187 16.5751 10.3812L19.8251 8.13125Z" fill="black"/>
</svg>
