<svg width="24" height="24" viewBox="0 0 24 24" fill="none" xmlns="http://www.w3.org/2000/svg">
<path d="M2.1687 6.44468C2.47495 5.98531 3.0937 5.86031 3.55308 6.16343L3.56558 6.17281C3.5812 6.18218 3.6062 6.19781 3.6437 6.21968C3.7187 6.26343 3.84058 6.33218 4.00933 6.41656C4.3437 6.58531 4.86245 6.81656 5.56558 7.05093C6.9687 7.51968 9.11245 8.00093 12 8.00093C14.8875 8.00093 17.0312 7.51968 18.4343 7.05093C19.1375 6.81656 19.6562 6.58531 19.9906 6.41656C20.1593 6.33218 20.2812 6.26343 20.3562 6.21968C20.3937 6.19781 20.4218 6.18218 20.4343 6.17281L20.4468 6.16656C20.4468 6.16656 20.4468 6.16656 20.45 6.16656C20.9093 5.86343 21.5281 5.98531 21.8343 6.44468C22.1406 6.90406 22.0156 7.52593 21.5562 7.83218L21 7.00093C21.5562 7.83218 21.5531 7.83218 21.5531 7.83218H21.55L21.5437 7.83531L21.5312 7.84468C21.5218 7.85093 21.5093 7.86031 21.4937 7.86968C21.4625 7.88843 21.4187 7.91656 21.3625 7.94781C21.25 8.01343 21.0906 8.10093 20.8843 8.20406C20.4687 8.41031 19.8625 8.67906 19.0656 8.94468C17.4687 9.48218 15.1125 10.0009 12 10.0009C8.88745 10.0009 6.5312 9.48218 4.93433 8.95093C4.13745 8.68531 3.5312 8.41656 3.11558 8.21031C2.90933 8.10718 2.74995 8.01968 2.63745 7.95406C2.5812 7.92281 2.53745 7.89468 2.5062 7.87593C2.49058 7.86656 2.47808 7.85718 2.4687 7.85093L2.4562 7.84156L2.45308 7.83843H2.44995C2.44995 7.83843 2.44995 7.83843 3.00308 7.00718L2.4437 7.83218C1.98433 7.52593 1.86245 6.90718 2.1687 6.44468ZM18.35 10.2103L18.6437 11.0166C19.6062 11.0759 20.4875 11.6947 20.8375 12.6572C21.35 14.0666 20.5625 17.0134 19.8562 17.2697C19.15 17.5259 16.6531 15.7759 16.1375 14.3666C15.7875 13.4041 16.0656 12.3634 16.7625 11.7009L16.3781 10.6447C17.1031 10.5197 17.7593 10.3728 18.35 10.2134V10.2103ZM12 11.0009C12.3406 11.0009 12.675 10.9947 13 10.9822V12.2072C13.8843 12.5916 14.5 13.4728 14.5 14.4978C14.5 15.9978 12.75 18.4978 12 18.4978C11.25 18.4978 9.49995 15.9978 9.49995 14.4978C9.49995 13.4728 10.1156 12.5916 11 12.2072V10.9822C11.325 10.9947 11.6593 11.0009 12 11.0009ZM7.62183 10.6416L7.23745 11.6978C7.93433 12.3634 8.21245 13.4009 7.86245 14.3634C7.34995 15.7728 4.84995 17.5228 4.1437 17.2666C3.43745 17.0103 2.64995 14.0666 3.16558 12.6572C3.51558 11.6947 4.39683 11.0759 5.35933 11.0166L5.65308 10.2103C6.24058 10.3697 6.89995 10.5197 7.62495 10.6416H7.62183Z" fill="black"/>
</svg>
