<svg width="24" height="24" viewBox="0 0 24 24" fill="none" xmlns="http://www.w3.org/2000/svg">
<path d="M3.21255 4.15943C2.88755 3.90318 2.41568 3.96255 2.15943 4.28755C1.90318 4.61255 1.96255 5.08443 2.28755 5.34068L20.7876 19.8407C21.1126 20.0969 21.5844 20.0376 21.8407 19.7126C22.0969 19.3876 22.0376 18.9157 21.7126 18.6594L15.6188 13.8844C15.7563 13.6907 15.8969 13.4969 16.0376 13.3032C16.2001 13.0813 16.3626 12.8594 16.5188 12.6344C17.1376 11.7438 17.5001 10.6657 17.5001 9.50005C17.5001 6.46255 15.0376 4.00005 12.0001 4.00005C9.80318 4.00005 7.90943 5.28755 7.02505 7.15005L3.21255 4.15943ZM8.66568 8.43443C9.11568 7.02193 10.4376 6.00005 12.0001 6.00005C12.2751 6.00005 12.5001 6.22505 12.5001 6.50005C12.5001 6.77505 12.2751 7.00005 12.0001 7.00005C10.7501 7.00005 9.71568 7.91568 9.5313 9.11255L8.66568 8.43443ZM6.76255 11.1813C6.9313 11.7063 7.17505 12.1938 7.4813 12.6376C7.63755 12.8626 7.80005 13.0844 7.96255 13.3063C8.5813 14.1532 9.20318 15.0063 9.50005 16.0001H12.8782L6.76255 11.1813ZM9.50005 17.0001V17.5001C9.50005 18.8813 10.6188 20.0001 12.0001 20.0001C13.3813 20.0001 14.5001 18.8813 14.5001 17.5001V17.2782L14.1469 17.0001H9.50005Z" fill="black"/>
</svg>
