<svg width="24" height="24" viewBox="0 0 24 24" fill="none" xmlns="http://www.w3.org/2000/svg">
<path d="M6 5C4.89688 5 4 5.89688 4 7V17C4 18.1031 4.89688 19 6 19H18C19.1031 19 20 18.1031 20 17V7C20 5.89688 19.1031 5 18 5H6ZM18 10V17H6V10H18ZM17.6469 7C17.8688 7 17.9812 7.26875 17.825 7.42812L16.6781 8.575C16.5813 8.67187 16.4219 8.67187 16.325 8.575L15.1781 7.42812C15.0219 7.27187 15.1312 7 15.3562 7H17.65H17.6469ZM8 11.25C7.58437 11.25 7.25 11.5844 7.25 12C7.25 12.4156 7.58437 12.75 8 12.75H16C16.4156 12.75 16.75 12.4156 16.75 12C16.75 11.5844 16.4156 11.25 16 11.25H8ZM8 14.25C7.58437 14.25 7.25 14.5844 7.25 15C7.25 15.4156 7.58437 15.75 8 15.75H16C16.4156 15.75 16.75 15.4156 16.75 15C16.75 14.5844 16.4156 14.25 16 14.25H8Z" fill="black"/>
</svg>
