<svg width="24" height="24" viewBox="0 0 24 24" fill="none" xmlns="http://www.w3.org/2000/svg">
<path d="M20.1187 12.3656C21.8843 10.6 21.8843 7.74062 20.1187 5.975C18.5562 4.4125 16.0937 4.20937 14.2969 5.49375L14.2469 5.52812C13.7969 5.85 13.6937 6.475 14.0156 6.92187C14.3375 7.36875 14.9625 7.475 15.4094 7.15312L15.4594 7.11875C16.4625 6.40312 17.8344 6.51562 18.7031 7.3875C19.6875 8.37187 19.6875 9.96562 18.7031 10.95L15.1968 14.4625C14.2125 15.4469 12.6187 15.4469 11.6343 14.4625C10.7625 13.5906 10.65 12.2187 11.3656 11.2187L11.4 11.1687C11.7218 10.7187 11.6156 10.0937 11.1687 9.775C10.7219 9.45625 10.0937 9.55937 9.77498 10.0062L9.7406 10.0562C8.4531 11.85 8.65623 14.3125 10.2187 15.875C11.9844 17.6406 14.8437 17.6406 16.6094 15.875L20.1187 12.3656ZM3.88123 11.6344C2.1156 13.4 2.1156 16.2594 3.88123 18.025C5.44373 19.5875 7.90623 19.7906 9.7031 18.5062L9.7531 18.4719C10.2031 18.15 10.3062 17.525 9.98435 17.0781C9.66248 16.6312 9.03748 16.525 8.5906 16.8469L8.5406 16.8812C7.53748 17.5969 6.1656 17.4844 5.29685 16.6125C4.31248 15.625 4.31248 14.0312 5.29685 13.0469L8.8031 9.5375C9.78748 8.55312 11.3812 8.55312 12.3656 9.5375C13.2375 10.4094 13.35 11.7812 12.6343 12.7844L12.6 12.8344C12.2781 13.2844 12.3844 13.9094 12.8312 14.2281C13.2781 14.5469 13.9062 14.4437 14.225 13.9969L14.2593 13.9469C15.5469 12.15 15.3437 9.6875 13.7812 8.125C12.0156 6.35937 9.15623 6.35937 7.3906 8.125L3.88123 11.6344Z" fill="black"/>
</svg>
