<svg width="24" height="24" viewBox="0 0 24 24" fill="none" xmlns="http://www.w3.org/2000/svg">
<path d="M6.05939 4.88748C5.87502 5.07498 5.71877 5.27498 5.59377 5.4906C5.18752 6.17498 4.58127 6.80935 3.96564 7.30935C3.89377 7.3656 3.82814 7.4281 3.76252 7.49373C2.95627 8.29998 2.78752 9.50623 3.26564 10.475C3.44377 10.8406 3.60939 11.2281 3.60939 11.6344V12.75C3.60939 13.2094 3.79064 13.65 4.11877 13.975L4.94064 14.7969C5.26564 15.1219 5.45002 15.5625 5.45002 16.0219V16.425C5.45002 16.5156 5.45627 16.6062 5.47189 16.6968L5.70939 16.4594C5.89689 16.2719 6.00314 16.0187 6.00314 15.7531V14.3281C6.00314 13.5312 6.31877 12.7687 6.88127 12.2062L7.20939 11.8781C7.39689 11.6906 7.50314 11.4375 7.50314 11.1719V9.8281C7.50314 9.03123 7.81877 8.26873 8.38127 7.70623L9.29064 6.79685C9.44689 6.6406 9.56564 6.39373 9.71877 5.9531C9.85627 5.54998 10.0563 5.1781 10.3094 4.84373C9.12189 3.7031 7.23439 3.71873 6.06564 4.8906L6.05939 4.88748ZM20.7344 11.1844C20.6375 10.275 20.6625 9.26248 20.8906 8.37498C20.9625 8.09685 21 7.8031 21 7.49998C21 5.5656 19.4344 3.99998 17.5 3.99998C17.1969 3.99998 16.9063 4.03748 16.625 4.10935C15.7375 4.33748 14.725 4.36248 13.8156 4.2656C13.7125 4.25623 13.6063 4.24998 13.5 4.24998C12.1844 4.24998 11.0656 5.09685 10.6625 6.2781C10.5094 6.72498 10.3313 7.17185 9.99689 7.50623L9.08752 8.4156C8.71252 8.7906 8.50314 9.29998 8.50314 9.83123V11.175C8.50314 11.7062 8.29377 12.2156 7.91877 12.5906L7.59064 12.9187C7.21564 13.2937 7.00627 13.8031 7.00627 14.3344V15.7625C7.00627 16.2937 6.79689 16.8031 6.42189 17.1781L5.29377 18.2937C4.90314 18.6844 4.90314 19.3187 5.29377 19.7094C5.68439 20.1 6.31877 20.1 6.70939 19.7094L7.83127 18.5875C8.20627 18.2125 8.71564 18.0031 9.24689 18.0031H10.675C11.2063 18.0031 11.7156 17.7937 12.0906 17.4187L12.4188 17.0906C12.7938 16.7156 13.3031 16.5062 13.8344 16.5062H15.1781C15.7094 16.5062 16.2188 16.2969 16.5938 15.9219L17.5031 15.0125C17.8375 14.6781 18.2844 14.5 18.7313 14.3469C19.9031 13.9344 20.75 12.8156 20.75 11.5C20.75 11.3937 20.7438 11.2875 20.7344 11.1844ZM17.8531 7.14685C18.0469 7.3406 18.0469 7.65935 17.8531 7.8531L15.2063 10.5H17C17.275 10.5 17.5 10.725 17.5 11C17.5 11.275 17.275 11.5 17 11.5H14.2063L12.3531 13.3531L10.8531 14.8531C10.6594 15.0468 10.3406 15.0468 10.1469 14.8531C9.95314 14.6593 9.95314 14.3406 10.1469 14.1469L11.5 12.7937V9.99998C11.5 9.72498 11.725 9.49998 12 9.49998C12.275 9.49998 12.5 9.72498 12.5 9.99998V11.7937L13.6469 10.6469L17.1469 7.14685C17.3406 6.9531 17.6594 6.9531 17.8531 7.14685Z" fill="black"/>
</svg>
