<svg width="24" height="24" viewBox="0 0 24 24" fill="none" xmlns="http://www.w3.org/2000/svg">
<path d="M3.21268 4.15931C2.88768 3.90306 2.4158 3.96243 2.15955 4.28743C1.9033 4.61243 1.96268 5.08431 2.28768 5.34056L20.7877 19.8406C21.1127 20.0968 21.5846 20.0374 21.8408 19.7124C22.0971 19.3874 22.0377 18.9156 21.7127 18.6593L19.9408 17.2718C21.1783 16.4656 22.0002 15.0687 22.0002 13.4812C22.0002 11.2718 20.4033 9.38743 18.2252 9.02493L18.1658 9.01556C17.6221 8.92493 17.1064 9.29368 17.0158 9.83743C16.9252 10.3812 17.2939 10.8968 17.8377 10.9874L17.8971 10.9968C19.1127 11.1999 20.0033 12.2499 20.0033 13.4812C20.0033 14.6249 19.2408 15.5937 18.1939 15.8999L14.9783 13.3812C15.6189 12.5968 16.0002 11.5968 16.0002 10.5187C16.0002 8.02181 13.9783 5.99993 11.4814 5.99993H6.51893C6.22518 5.99993 5.9408 6.02806 5.66268 6.08118L3.21268 4.15931ZM8.11268 7.99993H11.4814C12.8721 7.99993 14.0002 9.12806 14.0002 10.5187C14.0002 11.1343 13.7783 11.7062 13.4033 12.1468L8.11268 7.99993ZM13.4221 15.9999H12.5189C11.1283 15.9999 10.0002 14.8718 10.0002 13.4812C10.0002 13.4218 10.0033 13.3656 10.0064 13.3093L8.27205 11.9406C8.09705 12.4218 8.0033 12.9437 8.0033 13.4812C8.00018 15.9781 10.0221 17.9999 12.5189 17.9999H15.9627L13.4252 15.9999H13.4221ZM4.51893 8.98431L2.95018 7.74681C2.3533 8.51243 2.00018 9.47493 2.00018 10.5187C2.00018 12.7281 3.59705 14.6124 5.77518 14.9749L5.83455 14.9843C6.3783 15.0749 6.89393 14.7062 6.98455 14.1624C7.07518 13.6187 6.70643 13.1031 6.16268 13.0124L6.1033 13.0031C4.8908 12.7999 4.00018 11.7499 4.00018 10.5187C4.00018 9.94056 4.19393 9.40931 4.51893 8.98431Z" fill="black"/>
</svg>
