<svg width="24" height="24" viewBox="0 0 24 24" fill="none" xmlns="http://www.w3.org/2000/svg">
<path d="M17.3719 6.92859C17.8844 6.72234 18.1344 6.14109 17.9281 5.62859C17.7219 5.11609 17.1406 4.86609 16.6281 5.07234L6.62812 9.07234C6.25 9.22234 6 9.59109 6 10.0005C6 10.4098 6.25 10.7786 6.62812 10.9286L16.6281 14.9286C17.1406 15.1348 17.7219 14.8848 17.9281 14.3723C18.1344 13.8598 17.8844 13.2786 17.3719 13.0723L9.69375 10.0005L17.3719 6.92859ZM6 17.0005C5.44687 17.0005 5 17.4473 5 18.0005C5 18.5536 5.44687 19.0005 6 19.0005H18C18.5531 19.0005 19 18.5536 19 18.0005C19 17.4473 18.5531 17.0005 18 17.0005H6Z" fill="black"/>
</svg>
