<svg width="24" height="24" viewBox="0 0 24 24" fill="none" xmlns="http://www.w3.org/2000/svg">
<path d="M12.75 5C12.3344 5 12 5.33437 12 5.75C12 6.16562 12.3344 6.5 12.75 6.5H13.25C16.3344 6.5 18.8937 8.73125 19.4062 11.6687C19.125 11.5594 18.8187 11.5 18.5 11.5H16.4937L15.1875 8.45312C15.0812 8.20625 14.85 8.03438 14.5844 8.00313C14.3187 7.97188 14.0531 8.0875 13.8937 8.30312L12.6156 10.0375L11.9375 8.45312C11.8344 8.20937 11.6094 8.04062 11.3469 8.00625C11.0844 7.97187 10.825 8.07813 10.6594 8.28438L3.15937 17.7844C2.90312 18.1094 2.95937 18.5812 3.28437 18.8375C3.60937 19.0938 4.08125 19.0375 4.3375 18.7125L6.81875 15.5719L8.1625 16.0844L6.89687 17.8031C6.65 18.1375 6.72187 18.6062 7.05625 18.8531C7.39062 19.1 7.85937 19.0281 8.10625 18.6938L9.72187 16.5H12.05L11.1344 17.8219C10.9 18.1625 10.9844 18.6281 11.325 18.8656C11.6656 19.1031 12.1312 19.0156 12.3687 18.675L13.875 16.5H16.3875L17.6 18.6219C17.8062 18.9812 18.2625 19.1062 18.6219 18.9C18.9812 18.6937 19.1062 18.2375 18.9 17.8781L18.1125 16.5H18.5C19.8781 16.5 20.9937 15.3844 21 14.0094C21 14.0062 21 14.0031 21 14V12.75C21 8.46875 17.5312 5 13.25 5H12.75ZM14.3281 10.25L14.8625 11.5H13.4062L14.3281 10.25ZM11.5875 11.4406L11.5437 11.5H10.0344L11.0562 10.2031L11.5844 11.4375L11.5875 11.4406ZM5.775 11.5C4.79375 11.5 4 12.2937 4 13.275C4 13.7594 4.19687 14.2125 4.52812 14.5375L6.95937 11.5H5.775ZM18.5 13C18.6326 13 18.7598 13.0527 18.8536 13.1464C18.9473 13.2402 19 13.3674 19 13.5C19 13.6326 18.9473 13.7598 18.8536 13.8536C18.7598 13.9473 18.6326 14 18.5 14C18.3674 14 18.2402 13.9473 18.1464 13.8536C18.0527 13.7598 18 13.6326 18 13.5C18 13.3674 18.0527 13.2402 18.1464 13.1464C18.2402 13.0527 18.3674 13 18.5 13Z" fill="black"/>
</svg>
