<svg width="24" height="24" viewBox="0 0 24 24" fill="none" xmlns="http://www.w3.org/2000/svg">
<path d="M3.21243 4.15943C2.88743 3.90318 2.41556 3.96255 2.15931 4.28755C1.90306 4.61255 1.96243 5.08443 2.28743 5.34068L20.7874 19.8407C21.1124 20.0969 21.5843 20.0376 21.8406 19.7126C22.0968 19.3876 22.0374 18.9157 21.7124 18.6594L21.2749 18.3188C21.7218 17.8844 21.9999 17.2751 21.9999 16.6001C21.9999 16.2688 21.7312 16.0001 21.3999 16.0001H18.3187L6.83743 7.00005H17.9999V15.0001H19.9999V7.00005C19.9999 5.89693 19.1031 5.00005 17.9999 5.00005H5.99993C5.54993 5.00005 5.13118 5.15005 4.79681 5.40318L3.21243 4.15943ZM5.99993 10.1563L3.99993 8.5813V15.0001H5.99993V10.1563ZM17.2249 19.0001L13.4156 16.0001H2.59993C2.26868 16.0001 1.99993 16.2688 1.99993 16.6001C1.99993 17.9251 3.07493 19.0001 4.39993 19.0001H17.2249Z" fill="black"/>
</svg>
