<svg width="24" height="24" viewBox="0 0 24 24" fill="none" xmlns="http://www.w3.org/2000/svg">
<path d="M3.21243 4.15943C2.88743 3.90318 2.41556 3.96255 2.15931 4.28755C1.90306 4.61255 1.96243 5.08443 2.28743 5.34068L20.7874 19.8407C21.1124 20.0969 21.5843 20.0376 21.8406 19.7126C22.0968 19.3876 22.0374 18.9157 21.7124 18.6594L19.9406 17.2719C21.1781 16.4657 21.9999 15.0688 21.9999 13.4813C21.9999 11.2719 20.4031 9.38755 18.2249 9.02505L18.1656 9.01568C17.6218 8.92505 17.1062 9.2938 17.0156 9.83755C16.9249 10.3813 17.2937 10.8969 17.8374 10.9876L17.8968 10.9969C19.1124 11.2001 20.0031 12.2501 20.0031 13.4813C20.0031 14.6251 19.2406 15.5938 18.1937 15.9001L14.9781 13.3813C15.6187 12.5969 15.9999 11.5969 15.9999 10.5188C15.9999 8.02193 13.9781 6.00005 11.4812 6.00005H6.51868C6.22493 6.00005 5.94056 6.02818 5.66243 6.0813L3.21243 4.15943ZM8.11243 8.00005H11.4812C12.8718 8.00005 13.9999 9.12818 13.9999 10.5188C13.9999 11.1344 13.7781 11.7063 13.4031 12.1469L8.11243 8.00005ZM13.4218 16.0001H12.5187C11.1281 16.0001 9.99993 14.8719 9.99993 13.4813C9.99993 13.4219 10.0031 13.3657 10.0062 13.3094L8.27181 11.9407C8.09681 12.4219 8.00306 12.9438 8.00306 13.4813C7.99993 15.9782 10.0218 18.0001 12.5187 18.0001H15.9624L13.4249 16.0001H13.4218ZM4.51868 8.98443L2.94993 7.74693C2.35306 8.51255 1.99993 9.47505 1.99993 10.5188C1.99993 12.7282 3.59681 14.6126 5.77493 14.9751L5.83431 14.9844C6.37806 15.0751 6.89368 14.7063 6.98431 14.1626C7.07493 13.6188 6.70618 13.1032 6.16243 13.0126L6.10306 13.0032C4.89056 12.8001 3.99993 11.7501 3.99993 10.5188C3.99993 9.94068 4.19368 9.40943 4.51868 8.98443Z" fill="black"/>
</svg>
