<svg width="24" height="24" viewBox="0 0 24 24" fill="none" xmlns="http://www.w3.org/2000/svg">
<path d="M3.21243 4.15955C2.88743 3.9033 2.41556 3.96268 2.15931 4.28768C1.90306 4.61268 1.96243 5.08455 2.28743 5.3408L20.7874 19.8408C21.1124 20.097 21.5843 20.0377 21.8406 19.7127C22.0968 19.3877 22.0374 18.9158 21.7124 18.6596L16.3437 14.4533C17.2812 12.8408 17.9999 11.2127 17.9999 10.0002C17.9999 6.68768 15.3124 4.00018 11.9999 4.00018C9.78743 4.00018 7.85306 5.20018 6.81243 6.98143L3.21243 4.15955ZM10.0562 9.52518C10.2687 8.65018 11.0593 8.00018 11.9999 8.00018C13.1031 8.00018 13.9999 8.89705 13.9999 10.0002C13.9999 10.7721 13.5656 11.4377 12.9249 11.7721L10.0562 9.52205V9.52518ZM14.6937 17.0033L6.00306 10.1533C6.13431 12.9095 9.68431 17.6314 11.2593 19.5971C11.6437 20.0752 12.3562 20.0752 12.7406 19.5971C13.2468 18.9658 13.9593 18.0471 14.6937 17.0002V17.0033Z" fill="black"/>
</svg>
