<svg width="24" height="24" viewBox="0 0 24 24" fill="none" xmlns="http://www.w3.org/2000/svg">
<path d="M11.95 6.31563C12.125 5.79063 11.8406 5.225 11.3187 5.05C10.7969 4.875 10.2281 5.15938 10.0531 5.68125L6.05311 17.6813C5.87811 18.2063 6.16249 18.7719 6.68436 18.9469C7.20624 19.1219 7.77499 18.8375 7.94999 18.3156L11.95 6.31563ZM14.1656 5.0125C13.6219 4.92188 13.1062 5.29063 13.0156 5.83438L11.0156 17.8344C10.925 18.3781 11.2937 18.8938 11.8375 18.9844C12.3812 19.075 12.8969 18.7063 12.9875 18.1625L14.9875 6.1625C15.0781 5.61875 14.7094 5.10313 14.1656 5.0125ZM17 5C16.4469 5 16 5.44688 16 6V18C16 18.5531 16.4469 19 17 19C17.5531 19 18 18.5531 18 18V6C18 5.44688 17.5531 5 17 5Z" fill="black"/>
</svg>
