<svg width="24" height="24" viewBox="0 0 24 24" fill="none" xmlns="http://www.w3.org/2000/svg">
<path d="M15 17H17C17.5531 17 18 16.5531 18 16V8C18 7.44687 17.5531 7 17 7H15C14.4469 7 14 6.55313 14 6C14 5.44687 14.4469 5 15 5H17C18.6562 5 20 6.34375 20 8V16C20 17.6562 18.6562 19 17 19H15C14.4469 19 14 18.5531 14 18C14 17.4469 14.4469 17 15 17ZM8.19063 16.6906L4.35313 12.8531C4.12813 12.6281 4 12.3187 4 12C4 11.6813 4.12813 11.3719 4.35313 11.1469L8.19063 7.30938C8.39063 7.10938 8.65938 7 8.94063 7C9.525 7 10 7.475 10 8.05937V10H14C14.5531 10 15 10.4469 15 11V13C15 13.5531 14.5531 14 14 14H10V15.9406C10 16.525 9.525 17 8.94063 17C8.65938 17 8.39063 16.8875 8.19063 16.6906Z" fill="black"/>
</svg>
