<svg width="24" height="24" viewBox="0 0 24 24" fill="none" xmlns="http://www.w3.org/2000/svg">
<path d="M12.9688 4.75647C13.1031 5.29085 12.7781 5.8346 12.2406 5.96897L8.24062 6.96897C7.70625 7.10335 7.1625 6.77835 7.02812 6.24085C6.89375 5.70335 7.21875 5.16272 7.75625 5.02835L11.7563 4.02835C12.2906 3.89397 12.8344 4.21897 12.9688 4.75647ZM16.2437 7.96897L8.24375 9.96897C7.70937 10.1033 7.16563 9.77835 7.03125 9.24085C6.89687 8.70335 7.22188 8.16272 7.75938 8.02835L15.7594 6.02835C16.2937 5.89397 16.8375 6.21897 16.9719 6.75647C17.1062 7.29397 16.7812 7.8346 16.2437 7.96897ZM16.9688 9.75647C17.1031 10.2908 16.7781 10.8346 16.2406 10.969L8.24062 12.969C7.70625 13.1033 7.1625 12.7783 7.02812 12.2408C6.89375 11.7033 7.21875 11.1627 7.75625 11.0283L15.7563 9.02835C16.2906 8.89397 16.8344 9.21897 16.9688 9.75647ZM10 16.0002V13.5627L11.5 13.1877V16.0002H14C14.5531 16.0002 15 16.4471 15 17.0002V18.0002C15 18.5533 14.5531 19.0002 14 19.0002H13C13 19.5533 12.5531 20.0002 12 20.0002C11.4469 20.0002 11 19.5533 11 19.0002H10C9.44688 19.0002 9 18.5533 9 18.0002V17.0002C9 16.4471 9.44688 16.0002 10 16.0002ZM16.2437 13.969L14.2437 14.469L14 14.5315V16.0002H12.5V13.6471C12.5 13.6315 12.5 13.619 12.5 13.6033V13.5002H12.5063C12.5563 13.1033 12.8438 12.7596 13.2563 12.6565L13.7563 12.5315L15.7563 12.0315C16.2906 11.8971 16.8344 12.2221 16.9688 12.7596C17.1031 13.2971 16.7781 13.8377 16.2406 13.9721L16.2437 13.969ZM3.66562 4.12522L5.16563 5.12522C5.50938 5.35647 5.60313 5.8221 5.375 6.16585C5.14687 6.5096 4.67812 6.60335 4.33437 6.37522L2.83438 5.37522C2.49063 5.14397 2.39687 4.67835 2.625 4.3346C2.85312 3.99085 3.32187 3.8971 3.66562 4.12522ZM21.1656 5.37522L19.6656 6.37522C19.3219 6.60647 18.8563 6.51272 18.625 6.16585C18.3937 5.81897 18.4875 5.35647 18.8344 5.12522L20.3344 4.12522C20.6781 3.89397 21.1437 3.98772 21.375 4.3346C21.6063 4.68147 21.5125 5.14397 21.1656 5.37522ZM2.75 9.00022H4.75C5.16563 9.00022 5.5 9.3346 5.5 9.75022C5.5 10.1658 5.16563 10.5002 4.75 10.5002H2.75C2.33437 10.5002 2 10.1658 2 9.75022C2 9.3346 2.33437 9.00022 2.75 9.00022ZM19.25 9.00022H21.25C21.6656 9.00022 22 9.3346 22 9.75022C22 10.1658 21.6656 10.5002 21.25 10.5002H19.25C18.8344 10.5002 18.5 10.1658 18.5 9.75022C18.5 9.3346 18.8344 9.00022 19.25 9.00022ZM5.16563 14.3752L3.66562 15.3752C3.32187 15.6065 2.85625 15.5127 2.625 15.1658C2.39375 14.819 2.4875 14.3565 2.83438 14.1252L4.33437 13.1252C4.67812 12.894 5.14375 12.9877 5.375 13.3346C5.60625 13.6815 5.5125 14.144 5.16563 14.3752ZM19.6656 13.1283L21.1656 14.1283C21.5094 14.3596 21.6031 14.8252 21.375 15.169C21.1469 15.5127 20.6781 15.6065 20.3344 15.3783L18.8344 14.3783C18.4906 14.1471 18.3969 13.6815 18.625 13.3377C18.8531 12.994 19.3219 12.9002 19.6656 13.1283Z" fill="black"/>
</svg>
