<svg width="24" height="24" viewBox="0 0 24 24" fill="none" xmlns="http://www.w3.org/2000/svg">
<path d="M9.54688 16.9384C9.27187 17.0572 8.95312 17.0009 8.73438 16.7947L4.23438 12.5447C4.08437 12.404 4 12.2072 4 12.0009C4 11.7947 4.08437 11.5978 4.23438 11.4572L8.73438 7.20715C8.95312 7.0009 9.27187 6.94465 9.54688 7.0634C9.82188 7.18215 10 7.45403 10 7.7509V10.0009H19C19.5531 10.0009 20 10.4478 20 11.0009V13.0009C20 13.554 19.5531 14.0009 19 14.0009H10V16.2509C10 16.5509 9.82188 16.8197 9.54688 16.9384Z" fill="black"/>
</svg>
