<svg width="24" height="24" viewBox="0 0 24 24" fill="none" xmlns="http://www.w3.org/2000/svg">
<path d="M12 4C12.5531 4 13 4.44687 13 5V9.12813C13 9.64063 13.2625 10.1188 13.6938 10.3938L14 10.5875V9.16563C14 7.96875 14.9687 7 16.1656 7C16.8437 7 17.5031 7.31875 17.9094 7.9C18.3906 8.59063 19.2937 9.94375 20.1281 11.5531C20.9562 13.1437 21.7656 15.0688 21.9906 16.875C21.9969 16.9156 21.9969 16.9563 21.9969 17V17.2188C21.9969 18.7531 20.7531 20 19.2156 20C18.9875 20 18.7625 19.9719 18.5406 19.9156L16.2688 19.3469C14.9375 19.0156 14 17.8156 14 16.4375V14.1562L16.8281 15.9563C17.0625 16.1031 17.3688 16.0344 17.5188 15.8031C17.6688 15.5719 17.5969 15.2625 17.3656 15.1125L14 12.9719V12.9594L12.6219 12.0813C12.3937 11.9375 12.1875 11.7656 12 11.5781C11.8156 11.7656 11.6063 11.9375 11.3781 12.0813L10 12.9594L7.0375 14.8438L6.61562 15.1125C6.61562 15.1125 6.61563 15.1125 6.6125 15.1125C6.38125 15.2625 6.3125 15.5688 6.4625 15.8031C6.60938 16.0375 6.91875 16.1063 7.15312 15.9563L10 14.1438V16.4375C10 17.8156 9.0625 19.0156 7.72813 19.3469L5.45625 19.9156C5.23437 19.9719 5.00938 20 4.78125 20C3.24688 20 2 18.7563 2 17.2188V17C2 16.9594 2.00313 16.9156 2.00625 16.875C2.23125 15.0656 3.04062 13.1437 3.86875 11.5531C4.70625 9.94375 5.60625 8.59063 6.0875 7.9C6.49375 7.31875 7.15 7 7.83125 7C9.03125 7 10 7.96875 10 9.16563V10.5875L10.3062 10.3938C10.7375 10.1188 11 9.64063 11 9.12813V5C11 4.44687 11.4469 4 12 4Z" fill="black"/>
</svg>
