<svg width="24" height="24" viewBox="0 0 24 24" fill="none" xmlns="http://www.w3.org/2000/svg">
<path d="M6 5C4.89688 5 4 5.89688 4 7V15H6V7H10V5H6ZM18 7V15H20V7C20 5.89688 19.1031 5 18 5H14V7H18ZM2.6 16C2.26875 16 2 16.2688 2 16.6C2 17.925 3.075 19 4.4 19H19.6C20.925 19 22 17.925 22 16.6C22 16.2688 21.7312 16 21.4 16H2.6ZM12.75 5.75C12.75 5.33437 12.4156 5 12 5C11.5844 5 11.25 5.33437 11.25 5.75V11.4406L10.0312 10.2219C9.7375 9.92813 9.2625 9.92813 8.97188 10.2219C8.68125 10.5156 8.67813 10.9906 8.97188 11.2812L11.4719 13.7812C11.7656 14.075 12.2406 14.075 12.5312 13.7812L15.0312 11.2812C15.325 10.9875 15.325 10.5125 15.0312 10.2219C14.7375 9.93125 14.2625 9.92813 13.9719 10.2219L12.7531 11.4406V5.75H12.75Z" fill="black"/>
</svg>
