<svg width="24" height="24" viewBox="0 0 24 24" fill="none" xmlns="http://www.w3.org/2000/svg">
<path d="M12.2438 5.96873C12.7781 5.83435 13.1063 5.2906 12.9719 4.75623C12.8375 4.22185 12.2938 3.89685 11.7563 4.03123L7.75625 5.03123C7.22188 5.16248 6.89688 5.70623 7.03125 6.24373C7.16563 6.78123 7.70625 7.1031 8.24375 6.96873L12.2438 5.96873ZM16.9688 6.75623C16.8344 6.22185 16.2906 5.89373 15.7563 6.0281L7.75625 8.0281C7.22188 8.16248 6.89688 8.70623 7.03125 9.24373C7.16563 9.78123 7.70938 10.1062 8.24375 9.97185L16.2438 7.97185C16.7781 7.83748 17.1063 7.29373 16.9719 6.75935L16.9688 6.75623ZM16.2438 10.9687C16.7781 10.8344 17.1063 10.2906 16.9719 9.75623C16.8375 9.22185 16.2938 8.89373 15.7594 9.0281L7.75938 11.0281C7.22188 11.1625 6.89688 11.7062 7.03125 12.2437C7.16563 12.7812 7.70938 13.1062 8.24375 12.9719L16.2438 10.9719V10.9687ZM9 17V18C9 18.5531 9.44688 19 10 19H11C11 19.5531 11.4469 20 12 20C12.5531 20 13 19.5531 13 19H14C14.5531 19 15 18.5531 15 18V17C15 16.4469 14.5531 16 14 16H11.5V13.1875L10 13.5625V16C9.44688 16 9 16.4469 9 17ZM16.9688 12.7562C16.8344 12.2219 16.2906 11.8937 15.7563 12.0281L13.7563 12.5281L13.2563 12.6531C12.8438 12.7562 12.5563 13.1 12.5063 13.4969H12.5V13.6C12.5 13.6156 12.5 13.6281 12.5 13.6437V16H14V14.5312L14.2438 14.4719L16.2438 13.9719C16.7781 13.8375 17.1063 13.2937 16.9719 12.7594L16.9688 12.7562Z" fill="black"/>
</svg>
