<svg width="24" height="24" viewBox="0 0 24 24" fill="none" xmlns="http://www.w3.org/2000/svg">
<path d="M3.21255 4.15943C2.88755 3.90318 2.41568 3.96255 2.15943 4.28755C1.90318 4.61255 1.96255 5.08443 2.28755 5.34068L20.7876 19.8407C21.1126 20.0969 21.5844 20.0376 21.8407 19.7126C22.0969 19.3876 22.0376 18.9157 21.7126 18.6594L17.2907 15.1938L20.1188 12.3657C21.8844 10.6001 21.8844 7.74068 20.1188 5.97505C18.5563 4.41255 16.0938 4.20943 14.2969 5.4938L14.2469 5.52818C13.7969 5.85005 13.6938 6.47505 14.0157 6.92193C14.3376 7.3688 14.9626 7.47505 15.4094 7.15318L15.4594 7.1188C16.4626 6.40318 17.8344 6.51568 18.7032 7.38755C19.6876 8.37193 19.6876 9.96568 18.7032 10.9501L15.7032 13.9501L14.7063 13.1688C15.4657 11.4876 15.1282 9.47193 13.7813 8.12505C12.1501 6.49068 9.57818 6.3688 7.80318 7.75943L3.21255 4.15943ZM9.4688 9.06255C10.4094 8.59693 11.5844 8.75318 12.3688 9.54068C12.9938 10.1657 13.2282 11.0501 13.0469 11.8688L9.4688 9.06255ZM5.6438 9.87193L3.8813 11.6344C2.11568 13.4001 2.11568 16.2594 3.8813 18.0251C5.4438 19.5876 7.9063 19.7907 9.70318 18.5063L9.75318 18.4719C10.2032 18.1501 10.3063 17.5251 9.98443 17.0782C9.66255 16.6313 9.03755 16.5251 8.59068 16.8469L8.54068 16.8813C7.53755 17.5969 6.16568 17.4844 5.29693 16.6126C4.31255 15.6251 4.31255 14.0313 5.29693 13.0469L7.22818 11.1157L5.64693 9.8688L5.6438 9.87193ZM8.90318 12.4376C8.83755 13.6813 9.28443 14.9407 10.2219 15.8751C11.4376 17.0907 13.1719 17.4688 14.7094 17.0094L8.90318 12.4376Z" fill="black"/>
</svg>
