<svg width="24" height="24" viewBox="0 0 24 24" fill="none" xmlns="http://www.w3.org/2000/svg">
<path d="M12.2437 5.96879C12.7781 5.83441 13.1062 5.29066 12.9719 4.75629C12.8375 4.22191 12.2937 3.89691 11.7562 4.03129L7.75624 5.03129C7.22187 5.16254 6.89687 5.70629 7.03124 6.24379C7.16562 6.78129 7.70624 7.10316 8.24374 6.96879L12.2437 5.96879ZM16.9687 6.75629C16.8344 6.22191 16.2906 5.89379 15.7562 6.02816L7.75624 8.02816C7.22187 8.16254 6.89687 8.70629 7.03124 9.24379C7.16562 9.78129 7.70937 10.1063 8.24374 9.97191L16.2437 7.97191C16.7781 7.83754 17.1062 7.29379 16.9719 6.75941L16.9687 6.75629ZM16.2437 10.9688C16.7781 10.8344 17.1062 10.2907 16.9719 9.75629C16.8375 9.22191 16.2937 8.89379 15.7594 9.02816L7.75937 11.0282C7.22187 11.1625 6.89687 11.7063 7.03124 12.2438C7.16562 12.7813 7.70937 13.1063 8.24374 12.9719L16.2437 10.9719V10.9688ZM8.99999 17V18C8.99999 18.5532 9.44687 19 9.99999 19H11C11 19.5532 11.4469 20 12 20C12.5531 20 13 19.5532 13 19H14C14.5531 19 15 18.5532 15 18V17C15 16.4469 14.5531 16 14 16H11.5V13.1875L9.99999 13.5625V16C9.44687 16 8.99999 16.4469 8.99999 17ZM16.9687 12.7563C16.8344 12.2219 16.2906 11.8938 15.7562 12.0282L13.7562 12.5282L13.2562 12.6532C12.8437 12.7563 12.5562 13.1 12.5062 13.4969H12.5V13.6C12.5 13.6157 12.5 13.6282 12.5 13.6438V16H14V14.5313L14.2437 14.4719L16.2437 13.9719C16.7781 13.8375 17.1062 13.2938 16.9719 12.7594L16.9687 12.7563Z" fill="black"/>
</svg>
