<svg width="24" height="24" viewBox="0 0 24 24" fill="none" xmlns="http://www.w3.org/2000/svg">
<path d="M3.21268 4.15943C2.88768 3.90318 2.4158 3.96255 2.15955 4.28755C1.9033 4.61255 1.96268 5.08443 2.28768 5.34068L20.7877 19.8407C21.1127 20.0969 21.5846 20.0376 21.8408 19.7126C22.0971 19.3876 22.0377 18.9157 21.7127 18.6594L15.6189 13.8844C15.7564 13.6907 15.8971 13.4969 16.0377 13.3032C16.2002 13.0813 16.3627 12.8594 16.5189 12.6344C17.1377 11.7438 17.5002 10.6657 17.5002 9.50005C17.5002 6.46255 15.0377 4.00005 12.0002 4.00005C9.8033 4.00005 7.90955 5.28755 7.02518 7.15005L3.21268 4.15943ZM8.6658 8.43443C9.1158 7.02193 10.4377 6.00005 12.0002 6.00005C12.2752 6.00005 12.5002 6.22505 12.5002 6.50005C12.5002 6.77505 12.2752 7.00005 12.0002 7.00005C10.7502 7.00005 9.7158 7.91568 9.53143 9.11255L8.6658 8.43443ZM6.76268 11.1813C6.93143 11.7063 7.17518 12.1938 7.48143 12.6376C7.63768 12.8626 7.80018 13.0844 7.96268 13.3063C8.58143 14.1532 9.2033 15.0063 9.50018 16.0001H12.8783L6.76268 11.1813ZM9.50018 17.0001V17.5001C9.50018 18.8813 10.6189 20.0001 12.0002 20.0001C13.3814 20.0001 14.5002 18.8813 14.5002 17.5001V17.2782L14.1471 17.0001H9.50018Z" fill="black"/>
</svg>
