<svg width="24" height="24" viewBox="0 0 24 24" fill="none" xmlns="http://www.w3.org/2000/svg">
<path d="M8.75371 5.19392C9.06309 5.47205 9.08809 5.94392 8.80996 6.2533L6.55996 8.7533C6.42246 8.90642 6.22871 8.99705 6.02246 9.00017C5.81621 9.0033 5.61934 8.92517 5.47246 8.78142L4.21934 7.53142C3.92871 7.23767 3.92871 6.76267 4.21934 6.46892C4.50996 6.17517 4.98809 6.17517 5.27871 6.46892L5.96934 7.15955L7.69121 5.24705C7.96934 4.93767 8.44121 4.91267 8.75059 5.1908L8.75371 5.19392ZM8.75371 10.1939C9.06309 10.472 9.08809 10.9439 8.80996 11.2533L6.55996 13.7533C6.42246 13.9064 6.22871 13.997 6.02246 14.0002C5.81621 14.0033 5.61934 13.9252 5.47246 13.7814L4.21934 12.5314C3.92559 12.2377 3.92559 11.7627 4.21934 11.472C4.51309 11.1814 4.98809 11.1783 5.27871 11.472L5.96934 12.1627L7.69121 10.2502C7.96934 9.9408 8.44121 9.9158 8.75059 10.1939H8.75371ZM11.0006 7.00017C11.0006 6.44705 11.4475 6.00017 12.0006 6.00017H19.0006C19.5537 6.00017 20.0006 6.44705 20.0006 7.00017C20.0006 7.5533 19.5537 8.00017 19.0006 8.00017H12.0006C11.4475 8.00017 11.0006 7.5533 11.0006 7.00017ZM11.0006 12.0002C11.0006 11.447 11.4475 11.0002 12.0006 11.0002H19.0006C19.5537 11.0002 20.0006 11.447 20.0006 12.0002C20.0006 12.5533 19.5537 13.0002 19.0006 13.0002H12.0006C11.4475 13.0002 11.0006 12.5533 11.0006 12.0002ZM9.00059 17.0002C9.00059 16.447 9.44746 16.0002 10.0006 16.0002H19.0006C19.5537 16.0002 20.0006 16.447 20.0006 17.0002C20.0006 17.5533 19.5537 18.0002 19.0006 18.0002H10.0006C9.44746 18.0002 9.00059 17.5533 9.00059 17.0002ZM5.50059 15.5002C5.89841 15.5002 6.27994 15.6582 6.56125 15.9395C6.84255 16.2208 7.00059 16.6023 7.00059 17.0002C7.00059 17.398 6.84255 17.7795 6.56125 18.0608C6.27994 18.3421 5.89841 18.5002 5.50059 18.5002C5.10276 18.5002 4.72123 18.3421 4.43993 18.0608C4.15862 17.7795 4.00059 17.398 4.00059 17.0002C4.00059 16.6023 4.15862 16.2208 4.43993 15.9395C4.72123 15.6582 5.10276 15.5002 5.50059 15.5002Z" fill="black"/>
</svg>
