<svg width="24" height="24" viewBox="0 0 24 24" fill="none" xmlns="http://www.w3.org/2000/svg">
<path d="M3.21249 4.15937C2.88749 3.90312 2.41562 3.96249 2.15937 4.28749C1.90312 4.61249 1.96249 5.08437 2.28749 5.34062L20.7875 19.8406C21.1125 20.0969 21.5844 20.0375 21.8406 19.7125C22.0969 19.3875 22.0375 18.9156 21.7125 18.6594L18.6375 16.25C20.0562 15.3687 21 13.7937 21 12C21 9.23749 18.7625 6.99999 16 6.99999H14C13.4469 6.99999 13 7.44687 13 7.99999C13 8.55312 13.4469 8.99999 14 8.99999H16C17.6562 8.99999 19 10.3437 19 12C19 13.3531 18.1062 14.4937 16.8781 14.8687L14.4906 13H15C15.5531 13 16 12.5531 16 12C16 11.4469 15.5531 11 15 11H11.9406L9.38749 8.99999H9.99999C10.5531 8.99999 11 8.55312 11 7.99999C11 7.44687 10.5531 6.99999 9.99999 6.99999H7.99999C7.64687 6.99999 7.30312 7.03749 6.97187 7.10624L3.21249 4.15937ZM5.78124 9.98124L4.20937 8.74062C3.45624 9.61562 2.99999 10.7531 2.99999 12C2.99999 14.7625 5.23749 17 7.99999 17H9.99999C10.5531 17 11 16.5531 11 16C11 15.4469 10.5531 15 9.99999 15H7.99999C6.34374 15 4.99999 13.6562 4.99999 12C4.99999 11.2219 5.29687 10.5125 5.78124 9.98124Z" fill="black"/>
</svg>
