<svg width="24" height="24" viewBox="0 0 24 24" fill="none" xmlns="http://www.w3.org/2000/svg">
<path d="M3.21243 4.15937C2.88743 3.90312 2.41556 3.96249 2.15931 4.28749C1.90306 4.61249 1.96243 5.08437 2.28743 5.34062L20.7874 19.8406C21.1124 20.0969 21.5843 20.0375 21.8406 19.7125C22.0968 19.3875 22.0374 18.9156 21.7124 18.6594L16.3437 14.4531C17.2812 12.8406 17.9999 11.2125 17.9999 9.99999C17.9999 6.68749 15.3124 3.99999 11.9999 3.99999C9.78743 3.99999 7.85306 5.19999 6.81243 6.98124L3.21243 4.15937ZM14.6937 17.0031L6.00306 10.1531C6.13431 12.9094 9.68431 17.6312 11.2593 19.5969C11.6437 20.075 12.3562 20.075 12.7406 19.5969C13.2468 18.9656 13.9593 18.0469 14.6937 17V17.0031Z" fill="black"/>
</svg>
