<svg width="24" height="24" viewBox="0 0 24 24" fill="none" xmlns="http://www.w3.org/2000/svg">
<path d="M3.21243 4.15943C2.88743 3.90318 2.41556 3.96255 2.15931 4.28755C1.90306 4.61255 1.96243 5.08443 2.28743 5.34068L20.7874 19.8407C21.1124 20.0969 21.5843 20.0376 21.8406 19.7126C22.0968 19.3876 22.0374 18.9157 21.7124 18.6594L17.1499 15.0813C17.5281 14.4532 17.7937 13.7501 17.9187 13.0001H18.9999C19.5531 13.0001 19.9999 12.5532 19.9999 12.0001C19.9999 11.4469 19.5531 11.0001 18.9999 11.0001H17.9156C17.4968 8.48755 15.5124 6.50318 12.9999 6.08443V5.00005C12.9999 4.44693 12.5531 4.00005 11.9999 4.00005C11.4468 4.00005 10.9999 4.44693 10.9999 5.00005V6.08443C9.75306 6.2938 8.63743 6.88755 7.77806 7.73755L3.21243 4.15943ZM9.36868 8.98443C10.0718 8.37193 10.9937 8.00005 11.9999 8.00005C14.2093 8.00005 15.9999 9.79068 15.9999 12.0001C15.9999 12.6626 15.8406 13.2844 15.5562 13.8344L14.3406 12.8813C14.4437 12.6063 14.4999 12.3094 14.4999 12.0001C14.4999 10.6188 13.3812 9.50005 11.9999 9.50005C11.4749 9.50005 10.9874 9.66255 10.5843 9.93755L9.36868 8.98443ZM13.1937 15.8188C12.8156 15.9376 12.4156 16.0001 11.9999 16.0001C9.79056 16.0001 7.99993 14.2094 7.99993 12.0001C7.99993 11.9094 8.00306 11.8219 8.00931 11.7344L6.23431 10.3376C6.17181 10.5532 6.12181 10.7751 6.08431 11.0032H4.99993C4.44681 11.0032 3.99993 11.4501 3.99993 12.0032C3.99993 12.5563 4.44681 13.0032 4.99993 13.0032H6.08431C6.50618 15.5157 8.48743 17.5001 10.9999 17.9188V19.0001C10.9999 19.5532 11.4468 20.0001 11.9999 20.0001C12.5531 20.0001 12.9999 19.5532 12.9999 19.0001V17.9157C13.7062 17.7969 14.3687 17.5563 14.9656 17.2157L13.1906 15.8188H13.1937Z" fill="black"/>
</svg>
