<svg width="24" height="24" viewBox="0 0 24 24" fill="none" xmlns="http://www.w3.org/2000/svg">
<path d="M3.21243 4.15955C2.88743 3.9033 2.41556 3.96268 2.15931 4.28768C1.90306 4.61268 1.96243 5.08455 2.28743 5.3408L20.7874 19.8408C21.1124 20.0971 21.5843 20.0377 21.8406 19.7127C22.0968 19.3877 22.0374 18.9158 21.7124 18.6596L19.9406 17.2721C21.1781 16.4658 21.9999 15.0689 21.9999 13.4814C21.9999 11.2721 20.4031 9.38768 18.2249 9.02518L18.1656 9.0158C17.6218 8.92518 17.1062 9.29393 17.0156 9.83768C16.9249 10.3814 17.2937 10.8971 17.8374 10.9877L17.8968 10.9971C19.1124 11.2002 20.0031 12.2502 20.0031 13.4814C20.0031 14.6252 19.2406 15.5939 18.1937 15.9002L14.9781 13.3814C15.6187 12.5971 15.9999 11.5971 15.9999 10.5189C15.9999 8.02205 13.9781 6.00018 11.4812 6.00018H6.51868C6.22493 6.00018 5.94056 6.0283 5.66243 6.08143L3.21243 4.15955ZM8.11243 8.00018H11.4812C12.8718 8.00018 13.9999 9.1283 13.9999 10.5189C13.9999 11.1346 13.7781 11.7064 13.4031 12.1471L8.11243 8.00018ZM13.4218 16.0002H12.5187C11.1281 16.0002 9.99993 14.8721 9.99993 13.4814C9.99993 13.4221 10.0031 13.3658 10.0062 13.3096L8.27181 11.9408C8.09681 12.4221 8.00306 12.9439 8.00306 13.4814C7.99993 15.9783 10.0218 18.0002 12.5187 18.0002H15.9624L13.4249 16.0002H13.4218ZM4.51868 8.98455L2.94993 7.74705C2.35306 8.51268 1.99993 9.47518 1.99993 10.5189C1.99993 12.7283 3.59681 14.6127 5.77493 14.9752L5.83431 14.9846C6.37806 15.0752 6.89368 14.7064 6.98431 14.1627C7.07493 13.6189 6.70618 13.1033 6.16243 13.0127L6.10306 13.0033C4.89056 12.8002 3.99993 11.7502 3.99993 10.5189C3.99993 9.9408 4.19368 9.40955 4.51868 8.98455Z" fill="black"/>
</svg>
