<svg width="24" height="24" viewBox="0 0 24 24" fill="none" xmlns="http://www.w3.org/2000/svg">
<path d="M16.5 6C15.1187 6 14 7.11875 14 8.5V10H15C16.1031 10 17 10.8969 17 12V18C17 19.1031 16.1031 20 15 20H5C3.89688 20 3 19.1031 3 18V12C3 10.8969 3.89688 10 5 10H12V8.5C12 6.01562 14.0156 4 16.5 4C18.9844 4 21 6.01562 21 8.5V10C21 10.5531 20.5531 11 20 11C19.4469 11 19 10.5531 19 10V8.5C19 7.11875 17.8813 6 16.5 6ZM11 16C11.5531 16 12 15.5531 12 15C12 14.4469 11.5531 14 11 14H9C8.44687 14 8 14.4469 8 15C8 15.5531 8.44687 16 9 16H11Z" fill="black"/>
</svg>
