<svg width="24" height="24" viewBox="0 0 24 24" fill="none" xmlns="http://www.w3.org/2000/svg">
<path d="M12.5 4H15C15.275 4 15.5 4.225 15.5 4.5V6.5C15.5 6.775 15.275 7 15 7H12.5V8H18.5C19.0531 8 19.5 8.44688 19.5 9C19.5 9.55312 19.0531 10 18.5 10H5.49999C4.94687 10 4.49999 9.55312 4.49999 9C4.49999 8.44688 4.94687 8 5.49999 8H11.5V4.5C11.5 4.225 11.725 4 12 4H12.5ZM5.99999 11H7.99999V17H9.24999V11H11.25V17H12.75V11H14.75V17H16V11H18V17.1344C18.0187 17.1437 18.0375 17.1562 18.0562 17.1687L19.5562 18.1687C19.9219 18.4125 20.0875 18.8687 19.9594 19.2906C19.8312 19.7125 19.4406 20 19 20H4.99999C4.55937 20 4.17187 19.7125 4.04374 19.2906C3.91562 18.8687 4.07812 18.4125 4.44687 18.1687L5.94687 17.1687C5.96562 17.1562 5.98437 17.1469 6.00312 17.1344V11H5.99999Z" fill="black"/>
</svg>
