<svg width="24" height="24" viewBox="0 0 24 24" fill="none" xmlns="http://www.w3.org/2000/svg">
<path d="M3.21268 4.15955C2.88768 3.9033 2.4158 3.96268 2.15955 4.28768C1.9033 4.61268 1.96268 5.08455 2.28768 5.3408L20.7877 19.8408C21.1127 20.097 21.5846 20.0377 21.8408 19.7127C22.0971 19.3877 22.0377 18.9158 21.7127 18.6596L16.3439 14.4533C17.2814 12.8408 18.0002 11.2127 18.0002 10.0002C18.0002 6.68768 15.3127 4.00018 12.0002 4.00018C9.78768 4.00018 7.8533 5.20018 6.81268 6.98143L3.21268 4.15955ZM14.6939 17.0033L6.0033 10.1533C6.13455 12.9095 9.68455 17.6314 11.2596 19.5971C11.6439 20.0752 12.3564 20.0752 12.7408 19.5971C13.2471 18.9658 13.9596 18.0471 14.6939 17.0002V17.0033Z" fill="black"/>
</svg>
