<svg width="24" height="24" viewBox="0 0 24 24" fill="none" xmlns="http://www.w3.org/2000/svg">
<path d="M2 7V17C2 17.5531 2.44687 18 3 18C3.55313 18 4 17.5531 4 17V7C4 6.44687 3.55313 6 3 6C2.44687 6 2 6.44687 2 7ZM10.7344 16.7937C10.9531 17 11.2719 17.0562 11.5469 16.9375C11.8219 16.8188 12 16.5469 12 16.25V14H21C21.5531 14 22 13.5531 22 13V11C22 10.4469 21.5531 10 21 10H12V7.75C12 7.45 11.8219 7.18125 11.5469 7.0625C11.2719 6.94375 10.9531 7 10.7344 7.20625L6.23438 11.4563C6.08437 11.5969 6 11.7938 6 12C6 12.2062 6.08437 12.4031 6.23438 12.5437L10.7344 16.7937Z" fill="black"/>
</svg>
