<svg width="24" height="24" viewBox="0 0 24 24" fill="none" xmlns="http://www.w3.org/2000/svg">
<path d="M12 6C13.3813 6 14.5 7.11875 14.5 8.5V10H9.5V8.5C9.5 7.11875 10.6187 6 12 6ZM7.5 8.5V10H7C5.89688 10 5 10.8969 5 12V18C5 19.1031 5.89688 20 7 20H17C18.1031 20 19 19.1031 19 18V12C19 10.8969 18.1031 10 17 10H16.5V8.5C16.5 6.01562 14.4844 4 12 4C9.51562 4 7.5 6.01562 7.5 8.5ZM13 14V16C13 16.5531 12.5531 17 12 17C11.4469 17 11 16.5531 11 16V14C11 13.4469 11.4469 13 12 13C12.5531 13 13 13.4469 13 14Z" fill="black"/>
</svg>
