<svg width="24" height="24" viewBox="0 0 24 24" fill="none" xmlns="http://www.w3.org/2000/svg">
<path d="M19.5844 4.18748C19.8438 4.37498 20 4.67811 20 4.99998V6.99998C20 7.43123 19.725 7.81248 19.3156 7.94998L17 8.72186V17.5C17 18.8812 15.4344 20 13.5 20C11.5656 20 10 18.8812 10 17.5C10 16.1187 11.5656 15 13.5 15C14.0375 15 14.5469 15.0875 15 15.2406V7.99998V5.99998C15 5.56873 15.275 5.18748 15.6844 5.04998L18.6844 4.04998C18.9875 3.94998 19.325 3.99998 19.5844 4.18748ZM5 5.99998H12C12.5531 5.99998 13 6.44686 13 6.99998C13 7.55311 12.5531 7.99998 12 7.99998H5C4.44687 7.99998 4 7.55311 4 6.99998C4 6.44686 4.44687 5.99998 5 5.99998ZM5 9.99998H12C12.5531 9.99998 13 10.4469 13 11C13 11.5531 12.5531 12 12 12H5C4.44687 12 4 11.5531 4 11C4 10.4469 4.44687 9.99998 5 9.99998ZM5 14H8C8.55312 14 9 14.4469 9 15C9 15.5531 8.55312 16 8 16H5C4.44687 16 4 15.5531 4 15C4 14.4469 4.44687 14 5 14Z" fill="black"/>
</svg>
