<svg width="24" height="24" viewBox="0 0 24 24" fill="none" xmlns="http://www.w3.org/2000/svg">
<path d="M3.21268 4.15943C2.88768 3.90318 2.4158 3.96255 2.15955 4.28755C1.9033 4.61255 1.96268 5.08443 2.28768 5.34068L20.7877 19.8407C21.1127 20.0969 21.5846 20.0376 21.8408 19.7126C22.0971 19.3876 22.0377 18.9157 21.7127 18.6594L17.1502 15.0813C17.5283 14.4532 17.7939 13.7501 17.9189 13.0001H19.0002C19.5533 13.0001 20.0002 12.5532 20.0002 12.0001C20.0002 11.4469 19.5533 11.0001 19.0002 11.0001H17.9158C17.4971 8.48755 15.5127 6.50318 13.0002 6.08443V5.00005C13.0002 4.44693 12.5533 4.00005 12.0002 4.00005C11.4471 4.00005 11.0002 4.44693 11.0002 5.00005V6.08443C9.7533 6.2938 8.63768 6.88755 7.7783 7.73755L3.21268 4.15943ZM9.36893 8.98443C10.0721 8.37193 10.9939 8.00005 12.0002 8.00005C14.2096 8.00005 16.0002 9.79068 16.0002 12.0001C16.0002 12.6626 15.8408 13.2844 15.5564 13.8344L14.3408 12.8813C14.4439 12.6063 14.5002 12.3094 14.5002 12.0001C14.5002 10.6188 13.3814 9.50005 12.0002 9.50005C11.4752 9.50005 10.9877 9.66255 10.5846 9.93755L9.36893 8.98443ZM13.1939 15.8188C12.8158 15.9376 12.4158 16.0001 12.0002 16.0001C9.7908 16.0001 8.00018 14.2094 8.00018 12.0001C8.00018 11.9094 8.0033 11.8219 8.00955 11.7344L6.23455 10.3376C6.17205 10.5532 6.12205 10.7751 6.08455 11.0032H5.00018C4.44705 11.0032 4.00018 11.4501 4.00018 12.0032C4.00018 12.5563 4.44705 13.0032 5.00018 13.0032H6.08455C6.50643 15.5157 8.48768 17.5001 11.0002 17.9188V19.0001C11.0002 19.5532 11.4471 20.0001 12.0002 20.0001C12.5533 20.0001 13.0002 19.5532 13.0002 19.0001V17.9157C13.7064 17.7969 14.3689 17.5563 14.9658 17.2157L13.1908 15.8188H13.1939Z" fill="black"/>
</svg>
