<svg width="24" height="24" viewBox="0 0 24 24" fill="none" xmlns="http://www.w3.org/2000/svg">
<path d="M12.1906 16.6906L8.35313 12.8531C8.12813 12.6281 8 12.3187 8 12C8 11.6813 8.12813 11.3719 8.35313 11.1469L12.1906 7.30938C12.3906 7.10938 12.6594 7 12.9406 7C13.525 7 14 7.475 14 8.05937V10H18C18.5531 10 19 10.4469 19 11V13C19 13.5531 18.5531 14 18 14H14V15.9406C14 16.525 13.525 17 12.9406 17C12.6594 17 12.3906 16.8875 12.1906 16.6906ZM7 7V17C7 17.5531 6.55313 18 6 18C5.44687 18 5 17.5531 5 17V7C5 6.44687 5.44687 6 6 6C6.55313 6 7 6.44687 7 7Z" fill="black"/>
</svg>
