<svg width="24" height="24" viewBox="0 0 24 24" fill="none" xmlns="http://www.w3.org/2000/svg">
<path d="M9.19063 16.6906L5.35313 12.8531C5.12813 12.6281 5 12.3187 5 12C5 11.6813 5.12813 11.3719 5.35313 11.1469L9.19063 7.30938C9.39062 7.10938 9.65938 7 9.94063 7C10.525 7 11 7.475 11 8.05937V10H15C15.5531 10 16 10.4469 16 11V13C16 13.5531 15.5531 14 15 14H11V15.9406C11 16.525 10.525 17 9.94063 17C9.65938 17 9.39062 16.8875 9.19063 16.6906ZM17 17V7C17 6.44687 17.4469 6 18 6C18.5531 6 19 6.44687 19 7V17C19 17.5531 18.5531 18 18 18C17.4469 18 17 17.5531 17 17Z" fill="black"/>
</svg>
