<svg width="24" height="24" viewBox="0 0 24 24" fill="none" xmlns="http://www.w3.org/2000/svg">
<path d="M4.16563 4.1249L5.66563 5.1249C6.00938 5.35615 6.10313 5.82177 5.875 6.16552C5.64687 6.50927 5.17812 6.60302 4.83437 6.3749L3.33438 5.3749C2.99063 5.14365 2.89688 4.67802 3.125 4.33427C3.35312 3.99052 3.82188 3.89677 4.16563 4.1249ZM20.6656 5.3749L19.1656 6.3749C18.8219 6.60615 18.3563 6.5124 18.125 6.16552C17.8938 5.81865 17.9875 5.35615 18.3344 5.1249L19.8344 4.1249C20.1781 3.89365 20.6437 3.9874 20.875 4.33427C21.1063 4.68115 21.0125 5.14365 20.6656 5.3749ZM2.75 8.9999H4.75C5.16563 8.9999 5.5 9.33427 5.5 9.7499C5.5 10.1655 5.16563 10.4999 4.75 10.4999H2.75C2.33437 10.4999 2 10.1655 2 9.7499C2 9.33427 2.33437 8.9999 2.75 8.9999ZM19.25 8.9999H21.25C21.6656 8.9999 22 9.33427 22 9.7499C22 10.1655 21.6656 10.4999 21.25 10.4999H19.25C18.8344 10.4999 18.5 10.1655 18.5 9.7499C18.5 9.33427 18.8344 8.9999 19.25 8.9999ZM5.66563 14.3749L4.16563 15.3749C3.82188 15.6061 3.35625 15.5124 3.125 15.1655C2.89375 14.8186 2.9875 14.3561 3.33438 14.1249L4.83437 13.1249C5.17812 12.8936 5.64375 12.9874 5.875 13.3343C6.10625 13.6811 6.0125 14.1436 5.66563 14.3749ZM19.1656 13.128L20.6656 14.128C21.0094 14.3593 21.1031 14.8249 20.875 15.1686C20.6469 15.5124 20.1781 15.6061 19.8344 15.378L18.3344 14.378C17.9906 14.1468 17.8969 13.6811 18.125 13.3374C18.3531 12.9936 18.8219 12.8999 19.1656 13.128ZM16.0375 13.3061C15.4188 14.153 14.7969 15.0061 14.5 15.9999H9.5C9.2 15.003 8.57812 14.153 7.9625 13.3061C7.8 13.0843 7.6375 12.8624 7.48125 12.6374C6.8625 11.7468 6.5 10.6655 6.5 9.4999C6.5 6.4624 8.9625 3.9999 12 3.9999C15.0375 3.9999 17.5 6.4624 17.5 9.4999C17.5 10.6655 17.1375 11.7468 16.5188 12.6343C16.3625 12.8593 16.2 13.0811 16.0375 13.303V13.3061ZM14.5 17.4999C14.5 18.8811 13.3813 19.9999 12 19.9999C10.6187 19.9999 9.5 18.8811 9.5 17.4999V16.9999H14.5V17.4999ZM12 6.9999C12.275 6.9999 12.5 6.7749 12.5 6.4999C12.5 6.2249 12.275 5.9999 12 5.9999C10.0656 5.9999 8.5 7.56552 8.5 9.4999C8.5 9.7749 8.725 9.9999 9 9.9999C9.275 9.9999 9.5 9.7749 9.5 9.4999C9.5 8.11865 10.6187 6.9999 12 6.9999Z" fill="black"/>
</svg>
