<svg width="24" height="24" viewBox="0 0 24 24" fill="none" xmlns="http://www.w3.org/2000/svg">
<path d="M3.21249 4.15937C2.88749 3.90312 2.41562 3.96249 2.15937 4.28749C1.90312 4.61249 1.96249 5.08437 2.28749 5.34062L20.7875 19.8406C21.1125 20.0969 21.5844 20.0375 21.8406 19.7125C22.0969 19.3875 22.0375 18.9156 21.7125 18.6594L21.275 18.3187C21.7219 17.8844 22 17.275 22 16.6C22 16.2687 21.7312 16 21.4 16H18.3187L6.83749 6.99999H18V15H20V6.99999C20 5.89687 19.1031 4.99999 18 4.99999H5.99999C5.54999 4.99999 5.13124 5.14999 4.79687 5.40312L3.21249 4.15937ZM5.99999 10.1562L3.99999 8.58124V15H5.99999V10.1562ZM17.225 19L13.4156 16H2.59999C2.26874 16 1.99999 16.2687 1.99999 16.6C1.99999 17.925 3.07499 19 4.39999 19H17.225Z" fill="black"/>
</svg>
