<svg width="24" height="24" viewBox="0 0 24 24" fill="none" xmlns="http://www.w3.org/2000/svg">
<path d="M3.21249 4.15937C2.88749 3.90312 2.41562 3.96249 2.15937 4.28749C1.90312 4.61249 1.96249 5.08437 2.28749 5.34062L20.7875 19.8406C21.1125 20.0969 21.5844 20.0375 21.8406 19.7125C22.0969 19.3875 22.0375 18.9156 21.7125 18.6594L17.2906 15.1937L20.1187 12.3656C21.8844 10.6 21.8844 7.74062 20.1187 5.97499C18.5562 4.41249 16.0937 4.20937 14.2969 5.49374L14.2469 5.52812C13.7969 5.84999 13.6937 6.47499 14.0156 6.92187C14.3375 7.36874 14.9625 7.47499 15.4094 7.15312L15.4594 7.11874C16.4625 6.40312 17.8344 6.51562 18.7031 7.38749C19.6875 8.37187 19.6875 9.96562 18.7031 10.95L15.7031 13.95L14.7062 13.1687C15.4656 11.4875 15.1281 9.47187 13.7812 8.12499C12.15 6.49062 9.57812 6.36874 7.80312 7.75937L3.21249 4.15937ZM9.46874 9.06249C10.4094 8.59687 11.5844 8.75312 12.3687 9.54062C12.9937 10.1656 13.2281 11.05 13.0469 11.8687L9.46874 9.06249ZM5.64374 9.87187L3.88124 11.6344C2.11562 13.4 2.11562 16.2594 3.88124 18.025C5.44374 19.5875 7.90624 19.7906 9.70312 18.5062L9.75312 18.4719C10.2031 18.15 10.3062 17.525 9.98437 17.0781C9.66249 16.6312 9.03749 16.525 8.59062 16.8469L8.54062 16.8812C7.53749 17.5969 6.16562 17.4844 5.29687 16.6125C4.31249 15.625 4.31249 14.0312 5.29687 13.0469L7.22812 11.1156L5.64687 9.86874L5.64374 9.87187ZM8.90312 12.4375C8.83749 13.6812 9.28437 14.9406 10.2219 15.875C11.4375 17.0906 13.1719 17.4687 14.7094 17.0094L8.90312 12.4375Z" fill="black"/>
</svg>
