<svg width="24" height="24" viewBox="0 0 24 24" fill="none" xmlns="http://www.w3.org/2000/svg">
<path d="M3.21243 4.15955C2.88743 3.9033 2.41556 3.96268 2.15931 4.28768C1.90306 4.61268 1.96243 5.08455 2.28743 5.3408L20.7874 19.8408C21.1124 20.0971 21.5843 20.0377 21.8406 19.7127C22.0968 19.3877 22.0374 18.9158 21.7124 18.6596L15.6187 13.8846C15.7562 13.6908 15.8968 13.4971 16.0374 13.3033C16.1999 13.0814 16.3624 12.8596 16.5187 12.6346C17.1374 11.7439 17.4999 10.6658 17.4999 9.50018C17.4999 6.46268 15.0374 4.00018 11.9999 4.00018C9.80306 4.00018 7.90931 5.28768 7.02493 7.15018L3.21243 4.15955ZM8.66556 8.43455C9.11556 7.02205 10.4374 6.00018 11.9999 6.00018C12.2749 6.00018 12.4999 6.22518 12.4999 6.50018C12.4999 6.77518 12.2749 7.00018 11.9999 7.00018C10.7499 7.00018 9.71556 7.9158 9.53118 9.11268L8.66556 8.43455ZM6.76243 11.1814C6.93118 11.7064 7.17493 12.1939 7.48118 12.6377C7.63743 12.8627 7.79993 13.0846 7.96243 13.3064C8.58118 14.1533 9.20306 15.0064 9.49993 16.0002H12.8781L6.76243 11.1814ZM9.49993 17.0002V17.5002C9.49993 18.8814 10.6187 20.0002 11.9999 20.0002C13.3812 20.0002 14.4999 18.8814 14.4999 17.5002V17.2783L14.1468 17.0002H9.49993Z" fill="black"/>
</svg>
