<svg width="24" height="24" viewBox="0 0 24 24" fill="none" xmlns="http://www.w3.org/2000/svg">
<path d="M17.3719 6.9281C17.8844 6.72185 18.1344 6.1406 17.9281 5.6281C17.7219 5.1156 17.1406 4.8656 16.6281 5.07185L6.62812 9.07186C6.25 9.22186 6 9.5906 6 9.99998C6 10.4094 6.25 10.7781 6.62812 10.9281L16.6281 14.9281C17.1406 15.1344 17.7219 14.8844 17.9281 14.3719C18.1344 13.8594 17.8844 13.2781 17.3719 13.0719L9.69375 9.99998L17.3719 6.9281ZM6 17C5.44687 17 5 17.4469 5 18C5 18.5531 5.44687 19 6 19H18C18.5531 19 19 18.5531 19 18C19 17.4469 18.5531 17 18 17H6Z" fill="black"/>
</svg>
