<svg width="24" height="24" viewBox="0 0 24 24" fill="none" xmlns="http://www.w3.org/2000/svg">
<path d="M7 10C7 7.2375 9.2375 5 12 5C14.7625 5 17 7.2375 17 10V15H7V10ZM12 7.5C12.275 7.5 12.5 7.275 12.5 7C12.5 6.725 12.275 6.5 12 6.5C10.0656 6.5 8.5 8.06562 8.5 10C8.5 10.275 8.725 10.5 9 10.5C9.275 10.5 9.5 10.275 9.5 10C9.5 8.61875 10.6187 7.5 12 7.5ZM6 16H18C18.5531 16 19 16.4469 19 17V18C19 18.5531 18.5531 19 18 19H6C5.44687 19 5 18.5531 5 18V17C5 16.4469 5.44687 16 6 16Z" fill="black"/>
</svg>
