<svg width="24" height="24" viewBox="0 0 24 24" fill="none" xmlns="http://www.w3.org/2000/svg">
<path d="M3.21249 4.15937C2.88749 3.90312 2.41562 3.96249 2.15937 4.28749C1.90312 4.61249 1.96249 5.08437 2.28749 5.34062L20.7875 19.8406C21.1125 20.0969 21.5844 20.0375 21.8406 19.7125C22.0969 19.3875 22.0375 18.9156 21.7125 18.6594L16.3437 14.4531C17.2812 12.8406 18 11.2125 18 9.99999C18 6.68749 15.3125 3.99999 12 3.99999C9.78749 3.99999 7.85312 5.19999 6.81249 6.98124L3.21249 4.15937ZM14.6937 17.0031L6.00312 10.1531C6.13437 12.9094 9.68437 17.6312 11.2594 19.5969C11.6437 20.075 12.3562 20.075 12.7406 19.5969C13.2469 18.9656 13.9594 18.0469 14.6937 17V17.0031Z" fill="black"/>
</svg>
