<svg width="24" height="24" viewBox="0 0 24 24" fill="none" xmlns="http://www.w3.org/2000/svg">
<path d="M11.5032 4.13125C11.8094 3.95625 12.1876 3.95625 12.4969 4.13125L17.8657 7.19688L18.0001 7.25V7.27813L19.4969 8.13438C19.8907 8.35938 20.0844 8.82188 19.9688 9.25938C19.8532 9.69688 19.4563 10.0031 19.0032 10.0031H5.00005C4.54693 10.0031 4.15005 9.69688 4.03443 9.25938C3.9188 8.82188 4.11255 8.35938 4.5063 8.13438L6.00005 7.27813V7.25L6.13755 7.2L11.5032 4.13125ZM6.00005 11H8.00005V17H9.25005V11H11.2501V17H12.7501V11H14.7501V17H16.0001V11H18.0001V17.1344C18.0188 17.1437 18.0376 17.1562 18.0563 17.1687L19.5563 18.1687C19.9219 18.4125 20.0876 18.8687 19.9594 19.2906C19.8313 19.7125 19.4407 20 19.0001 20H5.00005C4.55943 20 4.17193 19.7125 4.0438 19.2906C3.91568 18.8687 4.07818 18.4125 4.44693 18.1687L5.94693 17.1687C5.96568 17.1562 5.98443 17.1469 6.00318 17.1344V11H6.00005Z" fill="black"/>
</svg>
