<svg width="24" height="24" viewBox="0 0 24 24" fill="none" xmlns="http://www.w3.org/2000/svg">
<path d="M20.1188 12.3656C21.8845 10.6 21.8845 7.74062 20.1188 5.975C18.5563 4.4125 16.0938 4.20937 14.297 5.49375L14.247 5.52812C13.797 5.85 13.6938 6.475 14.0157 6.92187C14.3376 7.36875 14.9626 7.475 15.4095 7.15312L15.4595 7.11875C16.4626 6.40312 17.8345 6.51562 18.7032 7.3875C19.6876 8.37187 19.6876 9.96562 18.7032 10.95L15.197 14.4625C14.2126 15.4469 12.6188 15.4469 11.6345 14.4625C10.7626 13.5906 10.6501 12.2187 11.3657 11.2187L11.4001 11.1687C11.722 10.7187 11.6157 10.0937 11.1688 9.775C10.722 9.45625 10.0938 9.55937 9.7751 10.0062L9.74072 10.0562C8.45322 11.85 8.65635 14.3125 10.2188 15.875C11.9845 17.6406 14.8438 17.6406 16.6095 15.875L20.1188 12.3656ZM3.88135 11.6344C2.11572 13.4 2.11572 16.2594 3.88135 18.025C5.44385 19.5875 7.90635 19.7906 9.70322 18.5062L9.75322 18.4719C10.2032 18.15 10.3063 17.525 9.98447 17.0781C9.6626 16.6312 9.0376 16.525 8.59072 16.8469L8.54072 16.8812C7.5376 17.5969 6.16572 17.4844 5.29697 16.6125C4.3126 15.625 4.3126 14.0312 5.29697 13.0469L8.80322 9.5375C9.7876 8.55312 11.3813 8.55312 12.3657 9.5375C13.2376 10.4094 13.3501 11.7812 12.6345 12.7844L12.6001 12.8344C12.2782 13.2844 12.3845 13.9094 12.8313 14.2281C13.2782 14.5469 13.9063 14.4437 14.2251 13.9969L14.2595 13.9469C15.547 12.15 15.3438 9.6875 13.7813 8.125C12.0157 6.35937 9.15635 6.35937 7.39072 8.125L3.88135 11.6344Z" fill="black"/>
</svg>
