<svg width="24" height="24" viewBox="0 0 24 24" fill="none" xmlns="http://www.w3.org/2000/svg">
<path d="M14.5 6C14.5031 6 14.5062 6 14.5094 6C15.1312 6 16.0125 6.425 16.7937 7.20625C17.575 7.9875 18 8.86875 18 9.49062C18 9.49375 18 9.49687 18 9.5C18 10.5344 17.3156 11.4406 16.3219 11.725L15.9625 11.8281C15.35 12.0031 14.7781 12.3 14.2781 12.6969L13.1875 13.5688C12.8406 13.8469 12.4062 14 11.9625 14C10.8781 14 10 13.1219 10 12.0375C10 11.5906 10.1531 11.1594 10.4313 10.8125L11.3031 9.72188C11.7031 9.225 11.9969 8.65 12.1719 8.0375L12.275 7.67812C12.5594 6.68437 13.4656 6 14.5 6ZM14.5 4C12.575 4 10.8812 5.27812 10.3531 7.12812L10.25 7.49062C10.1469 7.85 9.975 8.18437 9.74375 8.475L8.87187 9.56563C8.30937 10.2688 8.00313 11.1406 8.00313 12.0406C8.00313 12.7719 8.2 13.4563 8.54688 14.0437L4.29688 18.2937C3.90625 18.6844 3.90625 19.3188 4.29688 19.7094C4.6875 20.1 5.32187 20.1 5.7125 19.7094L9.9625 15.4594C10.55 15.8063 11.2344 16.0031 11.9656 16.0031C12.8656 16.0031 13.7375 15.6969 14.4406 15.1344L15.5312 14.2625C15.8219 14.0312 16.1562 13.8563 16.5156 13.7563L16.875 13.6531C18.7219 13.1187 20 11.425 20 9.5C20 9.49687 20 9.49375 20 9.49062C20 8.12187 19.175 6.75938 18.2094 5.79062C17.2438 4.82187 15.8781 4 14.5094 4C14.5062 4 14.5031 4 14.5 4Z" fill="black"/>
</svg>
