<svg width="24" height="24" viewBox="0 0 24 24" fill="none" xmlns="http://www.w3.org/2000/svg">
<path d="M12.5001 4H15.0001C15.2751 4 15.5001 4.225 15.5001 4.5V6.5C15.5001 6.775 15.2751 7 15.0001 7H12.5001V8H18.5001C19.0532 8 19.5001 8.44688 19.5001 9C19.5001 9.55312 19.0532 10 18.5001 10H5.50005C4.94693 10 4.50005 9.55312 4.50005 9C4.50005 8.44688 4.94693 8 5.50005 8H11.5001V4.5C11.5001 4.225 11.7251 4 12.0001 4H12.5001ZM6.00005 11H8.00005V17H9.25005V11H11.2501V17H12.7501V11H14.7501V17H16.0001V11H18.0001V17.1344C18.0188 17.1437 18.0376 17.1562 18.0563 17.1687L19.5563 18.1687C19.9219 18.4125 20.0876 18.8687 19.9594 19.2906C19.8313 19.7125 19.4407 20 19.0001 20H5.00005C4.55943 20 4.17193 19.7125 4.0438 19.2906C3.91568 18.8687 4.07818 18.4125 4.44693 18.1687L5.94693 17.1687C5.96568 17.1562 5.98443 17.1469 6.00318 17.1344V11H6.00005Z" fill="black"/>
</svg>
