<svg width="24" height="24" viewBox="0 0 24 24" fill="none" xmlns="http://www.w3.org/2000/svg">
<path d="M13 5C13 4.44687 12.5531 4 12 4C11.4469 4 11 4.44687 11 5V7C11 7.55313 11.4469 8 12 8C12.5531 8 13 7.55313 13 7V5ZM13 17C13 16.4469 12.5531 16 12 16C11.4469 16 11 16.4469 11 17V19C11 19.5531 11.4469 20 12 20C12.5531 20 13 19.5531 13 19V17ZM4 12C4 12.5531 4.44687 13 5 13H7C7.55313 13 8 12.5531 8 12C8 11.4469 7.55313 11 7 11H5C4.44687 11 4 11.4469 4 12ZM17 11C16.4469 11 16 11.4469 16 12C16 12.5531 16.4469 13 17 13H19C19.5531 13 20 12.5531 20 12C20 11.4469 19.5531 11 19 11H17ZM6.34375 6.34375C5.95312 6.73438 5.95312 7.36875 6.34375 7.75938L7.75938 9.175C8.15 9.56563 8.78438 9.56563 9.175 9.175C9.56563 8.78438 9.56563 8.15 9.175 7.75938L7.75625 6.34375C7.36562 5.95312 6.73438 5.95312 6.34375 6.34375ZM16.2437 14.8281C15.8531 14.4375 15.2188 14.4375 14.8281 14.8281C14.4375 15.2188 14.4375 15.8531 14.8281 16.2437L16.2437 17.6562C16.6344 18.0469 17.2688 18.0469 17.6594 17.6562C18.05 17.2656 18.05 16.6313 17.6594 16.2406L16.2437 14.825V14.8281ZM6.34375 17.6562C6.73438 18.0469 7.36875 18.0469 7.75938 17.6562L9.175 16.2406C9.56563 15.85 9.56563 15.2156 9.175 14.825C8.78438 14.4344 8.15 14.4344 7.75938 14.825L6.34375 16.2437C5.95312 16.6344 5.95312 17.2688 6.34375 17.6594V17.6562ZM14.8281 7.75625C14.4375 8.14687 14.4375 8.78125 14.8281 9.17188C15.2188 9.5625 15.8531 9.5625 16.2437 9.17188L17.6562 7.75625C18.0469 7.36562 18.0469 6.73125 17.6562 6.34063C17.2656 5.95 16.6313 5.95 16.2406 6.34063L14.825 7.75625H14.8281Z" fill="black"/>
</svg>
