<svg width="24" height="24" viewBox="0 0 24 24" fill="none" xmlns="http://www.w3.org/2000/svg">
<path d="M12.5 7.0004C10.0437 7.0004 7.96563 8.60977 7.25938 10.8285C8.30937 10.2973 9.49375 10.0004 10.75 10.0004H13.5C13.775 10.0004 14 10.2254 14 10.5004C14 10.7754 13.775 11.0004 13.5 11.0004H13H10.75C10.2312 11.0004 9.72813 11.0598 9.24062 11.1691C8.43125 11.3535 7.68125 11.6816 7.00938 12.1285C5.19688 13.3379 4 15.4035 4 17.7504V18.2504C4 18.666 4.33437 19.0004 4.75 19.0004C5.16562 19.0004 5.5 18.666 5.5 18.2504V17.7504C5.5 16.2285 6.14688 14.8598 7.18125 13.9004C7.8 16.2598 9.94688 18.0004 12.5 18.0004H12.5312C16.6594 17.9785 20 13.9098 20 8.89415C20 7.5629 19.7656 6.29727 19.3406 5.15665C19.2594 4.94102 18.9438 4.9504 18.8344 5.15352C18.2469 6.25352 17.0844 7.0004 15.75 7.0004H12.5Z" fill="black"/>
</svg>
