<svg width="24" height="24" viewBox="0 0 24 24" fill="none" xmlns="http://www.w3.org/2000/svg">
<path d="M6 8.5C6.39782 8.5 6.77936 8.34196 7.06066 8.06066C7.34196 7.77936 7.5 7.39782 7.5 7C7.5 6.60218 7.34196 6.22064 7.06066 5.93934C6.77936 5.65804 6.39782 5.5 6 5.5C5.60218 5.5 5.22064 5.65804 4.93934 5.93934C4.65804 6.22064 4.5 6.60218 4.5 7C4.5 7.39782 4.65804 7.77936 4.93934 8.06066C5.22064 8.34196 5.60218 8.5 6 8.5ZM10 6C9.44688 6 9 6.44687 9 7C9 7.55312 9.44688 8 10 8H19C19.5531 8 20 7.55312 20 7C20 6.44687 19.5531 6 19 6H10ZM10 11C9.44688 11 9 11.4469 9 12C9 12.5531 9.44688 13 10 13H19C19.5531 13 20 12.5531 20 12C20 11.4469 19.5531 11 19 11H10ZM10 16C9.44688 16 9 16.4469 9 17C9 17.5531 9.44688 18 10 18H19C19.5531 18 20 17.5531 20 17C20 16.4469 19.5531 16 19 16H10ZM6 18.5C6.39782 18.5 6.77936 18.342 7.06066 18.0607C7.34196 17.7794 7.5 17.3978 7.5 17C7.5 16.6022 7.34196 16.2206 7.06066 15.9393C6.77936 15.658 6.39782 15.5 6 15.5C5.60218 15.5 5.22064 15.658 4.93934 15.9393C4.65804 16.2206 4.5 16.6022 4.5 17C4.5 17.3978 4.65804 17.7794 4.93934 18.0607C5.22064 18.342 5.60218 18.5 6 18.5ZM7.5 12C7.5 11.803 7.4612 11.608 7.38582 11.426C7.31044 11.244 7.19995 11.0786 7.06066 10.9393C6.92137 10.8001 6.75601 10.6896 6.57403 10.6142C6.39204 10.5388 6.19698 10.5 6 10.5C5.80302 10.5 5.60796 10.5388 5.42597 10.6142C5.24399 10.6896 5.07863 10.8001 4.93934 10.9393C4.80005 11.0786 4.68956 11.244 4.61418 11.426C4.5388 11.608 4.5 11.803 4.5 12C4.5 12.197 4.5388 12.392 4.61418 12.574C4.68956 12.756 4.80005 12.9214 4.93934 13.0607C5.07863 13.1999 5.24399 13.3104 5.42597 13.3858C5.60796 13.4612 5.80302 13.5 6 13.5C6.19698 13.5 6.39204 13.4612 6.57403 13.3858C6.75601 13.3104 6.92137 13.1999 7.06066 13.0607C7.19995 12.9214 7.31044 12.756 7.38582 12.574C7.4612 12.392 7.5 12.197 7.5 12Z" fill="black"/>
</svg>
