<svg width="24" height="24" viewBox="0 0 24 24" fill="none" xmlns="http://www.w3.org/2000/svg">
<path d="M3.04693 4.05972L6.54693 5.55972C6.92818 5.72222 7.10318 6.16284 6.94068 6.54409C6.77818 6.92534 6.33755 7.10034 5.9563 6.93784L2.4563 5.43784C2.07505 5.27534 1.89693 4.83472 2.05943 4.45659C2.22193 4.07847 2.66568 3.89722 3.04693 4.05972ZM6.54693 10.4378L3.04693 11.9378C2.66568 12.1003 2.22505 11.9253 2.06255 11.5441C1.90005 11.1628 2.07505 10.7222 2.4563 10.5597L5.9563 9.05972C6.33755 8.89722 6.77818 9.07222 6.94068 9.45347C7.10318 9.83472 6.92818 10.2753 6.54693 10.4378ZM11.4969 4.13784C11.8094 3.95659 12.1938 3.95659 12.5032 4.13784L15.5032 5.88784C15.9813 6.16597 16.1407 6.77847 15.8626 7.25659C15.6782 7.57222 15.3438 7.75034 15.0001 7.75034V9.00034C15.5532 9.00034 16.0001 9.44722 16.0001 10.0003C16.0001 10.416 15.7469 10.7722 15.3844 10.9222L16.8001 18.0003H17.0001C17.5532 18.0003 18 18.4472 18 19.0003C18 19.5535 17.5532 20.0003 17.0001 20.0003H16.0907H13.0001V18.0003C13.0001 17.4472 12.5532 17.0003 12.0001 17.0003C11.4469 17.0003 11.0001 17.4472 11.0001 18.0003V20.0003H7.90943H7.00005C6.44693 20.0003 6.00005 19.5535 6.00005 19.0003C6.00005 18.4472 6.44693 18.0003 7.00005 18.0003H7.20005L8.61568 10.9222C8.25318 10.7722 8.00005 10.416 8.00005 10.0003C8.00005 9.44722 8.44693 9.00034 9.00005 9.00034V7.75034C8.6563 7.75034 8.32193 7.57222 8.13755 7.25347C7.85943 6.77534 8.02193 6.16284 8.49693 5.88472L11.4969 4.13472V4.13784ZM13.0001 6.74097L12.0001 6.15972L11.0001 6.74097V9.00034H13.0001V6.74097ZM21.9407 4.45659C22.1032 4.83784 21.9282 5.27847 21.5469 5.44097L18.0469 6.94097C17.6657 7.10347 17.2251 6.92847 17.0626 6.54722C16.9001 6.16597 17.0751 5.72534 17.4563 5.56284L20.9563 4.06284C21.3375 3.90034 21.7782 4.07534 21.9407 4.45659ZM17.0626 9.45659C17.2251 9.07534 17.6657 8.90034 18.0469 9.06284L21.5469 10.5628C21.9282 10.7253 22.1032 11.166 21.9407 11.5472C21.7782 11.9285 21.3375 12.1035 20.9563 11.941L17.4563 10.441C17.0751 10.2785 16.9001 9.83784 17.0626 9.45659Z" fill="black"/>
</svg>
