<svg width="24" height="24" viewBox="0 0 24 24" fill="none" xmlns="http://www.w3.org/2000/svg">
<path d="M20.1188 12.3666C21.8845 10.6009 21.8845 7.74157 20.1188 5.97594C18.5563 4.41344 16.0938 4.21032 14.297 5.49469L14.247 5.52907C13.797 5.85094 13.6938 6.47594 14.0157 6.92282C14.3376 7.36969 14.9626 7.47594 15.4095 7.15407L15.4595 7.11969C16.4626 6.40407 17.8345 6.51657 18.7032 7.38844C19.6876 8.37282 19.6876 9.96657 18.7032 10.9509L15.197 14.4634C14.2126 15.4478 12.6188 15.4478 11.6345 14.4634C10.7626 13.5916 10.6501 12.2197 11.3657 11.2197L11.4001 11.1697C11.722 10.7197 11.6157 10.0947 11.1688 9.77594C10.722 9.45719 10.0938 9.56032 9.7751 10.0072L9.74072 10.0572C8.45322 11.8509 8.65635 14.3134 10.2188 15.8759C11.9845 17.6416 14.8438 17.6416 16.6095 15.8759L20.1188 12.3666ZM3.88135 11.6353C2.11572 13.4009 2.11572 16.2603 3.88135 18.0259C5.44385 19.5884 7.90635 19.7916 9.70322 18.5072L9.75322 18.4728C10.2032 18.1509 10.3063 17.5259 9.98447 17.0791C9.6626 16.6322 9.0376 16.5259 8.59072 16.8478L8.54072 16.8822C7.5376 17.5978 6.16572 17.4853 5.29697 16.6134C4.3126 15.6259 4.3126 14.0322 5.29697 13.0478L8.80322 9.53844C9.7876 8.55407 11.3813 8.55407 12.3657 9.53844C13.2376 10.4103 13.3501 11.7822 12.6345 12.7853L12.6001 12.8353C12.2782 13.2853 12.3845 13.9103 12.8313 14.2291C13.2782 14.5478 13.9063 14.4447 14.2251 13.9978L14.2595 13.9478C15.547 12.1509 15.3438 9.68844 13.7813 8.12594C12.0157 6.36032 9.15635 6.36032 7.39072 8.12594L3.88135 11.6353Z" fill="black"/>
</svg>
