<svg width="24" height="24" viewBox="0 0 24 24" fill="none" xmlns="http://www.w3.org/2000/svg">
<path d="M11.1906 15.0063C10.8469 15.225 10.5938 15.5875 10.5219 16H6.5C6.2 15.0031 5.57812 14.1531 4.9625 13.3062C4.8 13.0844 4.6375 12.8625 4.48125 12.6375C3.8625 11.7469 3.5 10.6656 3.5 9.5C3.5 6.4625 5.9625 4 9 4C12.0312 4 14.4875 6.45 14.5 9.47813C13.9438 9.71875 13.625 10.2781 13.625 10.8313V10.8594C13.075 10.5563 12.3281 10.6031 11.8375 11.1312C11.55 11.4406 11.2937 11.7844 11.075 12.1625C10.8562 12.5406 10.6875 12.9344 10.5625 13.3375C10.3531 14.0125 10.6687 14.6719 11.1875 15.0031L11.1906 15.0063ZM6.5 17H10.675C10.7844 17.2875 10.9156 17.5719 11.075 17.8438C11.1656 18 11.2625 18.1531 11.3687 18.3C11.0344 19.2875 10.1 20 9 20C7.61875 20 6.5 18.8813 6.5 17.5V17ZM6.5 9.5C6.5 8.11875 7.61875 7 9 7C9.275 7 9.5 6.775 9.5 6.5C9.5 6.225 9.275 6 9 6C7.06562 6 5.5 7.56562 5.5 9.5C5.5 9.775 5.725 10 6 10C6.275 10 6.5 9.775 6.5 9.5ZM14.625 10.8187C14.625 10.6 14.7656 10.4031 14.9781 10.3562C15.3062 10.2812 15.65 10.2406 16 10.2406C16.35 10.2406 16.6938 10.2812 17.0219 10.3562C17.2344 10.4031 17.375 10.6 17.375 10.8187V11.3719C17.375 11.6156 17.525 11.8344 17.7375 11.9563C17.95 12.0781 18.2094 12.0969 18.4187 11.975L18.85 11.7281C19.0406 11.6188 19.2781 11.6437 19.4281 11.8031C19.6656 12.0562 19.875 12.3406 20.0562 12.6531C20.2375 12.9656 20.3781 13.2906 20.4781 13.6219C20.5437 13.8313 20.4437 14.05 20.2531 14.1594L19.8031 14.4187C19.6 14.5344 19.4906 14.7594 19.4906 14.9937C19.4906 15.2281 19.6 15.4531 19.8031 15.5688L20.2531 15.8281C20.4437 15.9375 20.5406 16.1562 20.4781 16.3656C20.375 16.6969 20.2344 17.0219 20.0562 17.3344C19.8781 17.6469 19.6656 17.9312 19.4281 18.1844C19.2781 18.3438 19.0375 18.3687 18.85 18.2594L18.4187 18.0125C18.2094 17.8906 17.9469 17.9094 17.7375 18.0312C17.525 18.1531 17.375 18.3719 17.375 18.6156V19.1687C17.375 19.3875 17.2344 19.5844 17.0219 19.6313C16.6938 19.7063 16.35 19.7469 16 19.7469C15.65 19.7469 15.3062 19.7063 14.9781 19.6313C14.7656 19.5844 14.625 19.3875 14.625 19.1687V18.6187C14.625 18.3719 14.4719 18.1531 14.2594 18.0281C14.0469 17.9062 13.7844 17.8875 13.5719 18.0094L13.15 18.2531C12.9594 18.3625 12.7219 18.3375 12.5719 18.1781C12.3344 17.925 12.125 17.6406 11.9438 17.3281C11.7625 17.0156 11.6219 16.6906 11.5219 16.3594C11.4563 16.15 11.5562 15.9312 11.7469 15.8219L12.1844 15.5688C12.3875 15.45 12.5 15.2219 12.5 14.9875C12.5 14.7531 12.3906 14.525 12.1844 14.4062L11.7469 14.1531C11.5562 14.0437 11.4594 13.825 11.5219 13.6156C11.625 13.2844 11.7625 12.9594 11.9438 12.6469C12.125 12.3344 12.3344 12.05 12.5719 11.7969C12.7219 11.6375 12.9594 11.6125 13.15 11.7219L13.575 11.9656C13.7875 12.0875 14.05 12.0688 14.2625 11.9469C14.4781 11.825 14.6281 11.6031 14.6281 11.3562V10.8187H14.625ZM17.5031 14.9906C17.5124 14.7877 17.4804 14.585 17.4091 14.3947C17.3378 14.2045 17.2287 14.0306 17.0884 13.8837C16.948 13.7368 16.7794 13.6199 16.5926 13.54C16.4058 13.4602 16.2047 13.419 16.0016 13.419C15.7984 13.419 15.5973 13.4602 15.4105 13.54C15.2237 13.6199 15.0551 13.7368 14.9147 13.8837C14.7744 14.0306 14.6653 14.2045 14.594 14.3947C14.5227 14.585 14.4907 14.7877 14.5 14.9906C14.4907 15.1936 14.5227 15.3963 14.594 15.5865C14.6653 15.7768 14.7744 15.9506 14.9147 16.0975C15.0551 16.2444 15.2237 16.3613 15.4105 16.4412C15.5973 16.5211 15.7984 16.5623 16.0016 16.5623C16.2047 16.5623 16.4058 16.5211 16.5926 16.4412C16.7794 16.3613 16.948 16.2444 17.0884 16.0975C17.2287 15.9506 17.3378 15.7768 17.4091 15.5865C17.4804 15.3963 17.5124 15.1936 17.5031 14.9906Z" fill="black"/>
</svg>
