<svg width="24" height="24" viewBox="0 0 24 24" fill="none" xmlns="http://www.w3.org/2000/svg">
<path d="M11.75 4H12.25C12.6656 4 13 4.33437 13 4.75V5.08438C15.5125 5.50312 17.4969 7.4875 17.9156 10H18C18.5531 10 19 10.4469 19 11C19 11.5531 18.5531 12 18 12H6.00001C5.44688 12 5.00001 11.5531 5.00001 11C5.00001 10.4469 5.44688 10 6.00001 10H6.08438C6.50313 7.4875 8.48751 5.50312 11 5.08438V4.75C11 4.33437 11.3344 4 11.75 4ZM6.00001 13H8.00001V17H9.25001V13H11.25V17H12.75V13H14.75V17H16V13H18V17.1344C18.0188 17.1437 18.0375 17.1562 18.0531 17.1687L19.5531 18.1687C19.9188 18.4125 20.0844 18.8687 19.9563 19.2906C19.8281 19.7125 19.4406 20 19 20H5.00001C4.55938 20 4.17188 19.7125 4.04376 19.2906C3.91563 18.8687 4.07813 18.4125 4.44688 18.1687L5.94688 17.1687C5.96563 17.1562 5.98438 17.1469 6.00313 17.1344V13H6.00001Z" fill="black"/>
</svg>
