<svg width="24" height="24" viewBox="0 0 24 24" fill="none" xmlns="http://www.w3.org/2000/svg">
<path d="M6 5C5.44687 5 5 5.44687 5 6C5 6.55313 5.44687 7 6 7H9.38125L9.89375 8.02187L5.5875 17.5906C5.35937 18.0937 5.58437 18.6875 6.0875 18.9125C6.59062 19.1375 7.18437 18.9156 7.40937 18.4125L11.0469 10.3313L14.8281 17.8938C15.1656 18.5719 15.8594 19 16.6156 19H18C18.5531 19 19 18.5531 19 18C19 17.4469 18.5531 17 18 17H16.6187L11.1719 6.10625C10.8313 5.42813 10.1406 5 9.38125 5H6Z" fill="black"/>
</svg>
