<svg width="24" height="24" viewBox="0 0 24 24" fill="none" xmlns="http://www.w3.org/2000/svg">
<path d="M6.5 4.25625C6.5 4.14062 6.42188 4.04063 6.30938 4.02187C6.20938 4.00937 6.10625 4 6 4C4.89688 4 4 4.89688 4 6V8C4 9.10312 4.89688 10 6 10H6.02187L7.32812 10.8719C7.94375 11.2812 8.66875 11.5 9.40938 11.5H10V12H8.47188C8.2375 12 8.00937 11.9469 7.8 11.8406L6.725 11.3031C6.47812 11.1781 6.17812 11.2812 6.05312 11.5281C5.92812 11.775 6.03125 12.075 6.27813 12.2L7.35625 12.7375C7.70313 12.9125 8.0875 13 8.475 13H10V13.5H7.825C7.6625 13.5 7.50312 13.475 7.35 13.4219L6.15937 13.025C5.89687 12.9375 5.61563 13.0781 5.52813 13.3406C5.44063 13.6031 5.58125 13.8844 5.84375 13.9719L7.03437 14.3687C7.29062 14.4531 7.55625 14.4969 7.825 14.4969H10V14.9969H9.47188C9.08438 14.9969 8.7 15.0875 8.35313 15.2594L7.775 15.5469C7.52813 15.6719 7.42812 15.9719 7.55 16.2188C7.67187 16.4656 7.975 16.5656 8.22188 16.4438L8.8 16.1562C9.00938 16.0531 9.2375 15.9969 9.47188 15.9969H10L10.6687 18C9.7375 18.0562 9 18.8281 9 19.775C9 19.8969 9.1 19.9969 9.22188 19.9969H14.7781C14.9 19.9969 15 19.8969 15 19.775C15 18.8312 14.2625 18.0562 13.3313 18L14 16H14.5281C14.7594 16 14.9906 16.0531 15.2 16.1594L15.7781 16.4469C16.025 16.5719 16.325 16.4688 16.45 16.2219C16.575 15.975 16.4719 15.675 16.225 15.55L15.6469 15.2625C15.3 15.0875 14.9156 15 14.5281 15H14V14.5H16.175C16.4438 14.5 16.7094 14.4562 16.9656 14.3719L18.1562 13.975C18.4187 13.8875 18.5594 13.6031 18.4719 13.3438C18.3844 13.0844 18.1 12.9406 17.8406 13.0281L16.65 13.425C16.4969 13.475 16.3375 13.5031 16.175 13.5031H14V13H15.5281C15.9156 13 16.3 12.9094 16.6469 12.7375L17.725 12.2C17.9719 12.075 18.0719 11.775 17.95 11.5281C17.8281 11.2812 17.525 11.1812 17.2781 11.3031L16.2 11.8406C15.9906 11.9437 15.7625 12 15.5281 12H14V11.5H14.5906C15.3312 11.5 16.0562 11.2813 16.6719 10.8688L17.9781 10H18C19.1031 10 20 9.10312 20 8V6C20 4.89688 19.1031 4 18 4C17.8937 4 17.7906 4.00938 17.6906 4.025C17.5781 4.04375 17.5 4.14375 17.5 4.25938V6.25C17.5 6.49062 17.1938 6.59375 17.05 6.4L16.4187 5.55938C16.3031 5.40625 16.0688 5.4375 16.0344 5.625C16.0125 5.74688 16 5.87188 16 5.99688V7.99688C16 8.4625 16.1594 8.89063 16.425 9.22813L15.8406 9.61875C15.4687 9.86875 15.0344 10 14.5906 10H13.8188C13.7344 9.77187 13.625 9.5625 13.5 9.36875V6.52187C13.5 6.03437 13.8531 5.61562 14.3344 5.53437L14.5813 5.49375C14.8531 5.44687 15.0375 5.19062 14.9937 4.91875C14.95 4.64687 14.6906 4.4625 14.4187 4.50625L14.1719 4.54688C13.2063 4.70937 12.5 5.54375 12.5 6.52187V8.3125C12.4031 8.24063 12.3062 8.175 12.2188 8.12187C12.0844 8.04062 11.9156 8.04062 11.7844 8.12187C11.6969 8.175 11.6 8.24063 11.5031 8.3125V6.52187C11.5031 5.54375 10.7969 4.70938 9.83125 4.55L9.58437 4.50937C9.3125 4.4625 9.05313 4.64687 9.00938 4.92188C8.96563 5.19688 9.14687 5.45313 9.42188 5.49688L9.66875 5.5375C10.1469 5.61563 10.5 6.03125 10.5 6.52187V9.36875C10.375 9.5625 10.2656 9.775 10.1813 10H9.40938C8.96563 10 8.53125 9.86875 8.1625 9.62187L7.57812 9.23125C7.84375 8.89062 8.00313 8.4625 8.00313 8V6C8.00313 5.87188 7.99062 5.74687 7.96875 5.62812C7.93437 5.44062 7.7 5.40625 7.58437 5.5625L6.95 6.4C6.80625 6.59375 6.5 6.49062 6.5 6.25V4.25625Z" fill="black"/>
</svg>
