<svg width="24" height="24" viewBox="0 0 24 24" fill="none" xmlns="http://www.w3.org/2000/svg">
<path d="M12 4C8.13438 4 5 7.13438 5 11V14C5 17.3125 7.6875 20 11 20H13C16.3125 20 19 17.3125 19 14V11C19 7.13438 15.8656 4 12 4ZM9 16C9 16.5531 9.44687 17 10 17H14C14.5531 17 15 16.5531 15 16C15 15.4469 14.5531 15 14 15H12.8969H11.1031H10C9.44687 15 9 15.4469 9 16ZM8 16C8 14.9625 8.7875 14.1094 9.8 14.0094C9.76875 13.8937 9.75 13.7719 9.75 13.6469C9.75 13.4188 9.80625 13.1969 9.91563 13H9.5C8.11875 13 7 11.8813 7 10.5C7 9.67188 7.67188 9 8.5 9H9.5C10.8813 9 12 10.1187 12 11.5C12 10.1187 13.1187 9 14.5 9H15.5C16.3281 9 17 9.67188 17 10.5C17 11.8813 15.8813 13 14.5 13H14.0844C14.1906 13.1969 14.25 13.4188 14.25 13.6469C14.25 13.7719 14.2312 13.8937 14.2 14.0094C15.2094 14.1094 16 14.9625 16 16C16 17.1031 15.1031 18 14 18H10C8.89688 18 8 17.1031 8 16ZM12.8969 14H12.9031C13.0937 14 13.25 13.8437 13.25 13.6531V13.65V13.6469C13.25 13.5531 13.2125 13.4625 13.1469 13.3969L12.8969 13.1469L12.7656 13.0156L12.7531 13.0031L12.4313 12.6812C12.3125 12.5625 12.1594 12.5 12 12.5C11.8406 12.5 11.6875 12.5625 11.5719 12.6781L11.25 13L11.2375 13.0125L11.1062 13.1438L10.8562 13.3938C10.7906 13.4594 10.7531 13.55 10.7531 13.6438V13.6469V13.65C10.7531 13.8406 10.9094 13.9969 11.1 13.9969H11.1062H11.4594H11.6469H11.6656H12.3375H12.3562H12.5437H12.8969V14ZM8.5 10C8.225 10 8 10.225 8 10.5C8 11.3281 8.67188 12 9.5 12H10.5C10.775 12 11 11.775 11 11.5C11 10.6719 10.3281 10 9.5 10H8.5ZM16 10.5C16 10.225 15.775 10 15.5 10H14.5C13.6719 10 13 10.6719 13 11.5C13 11.775 13.225 12 13.5 12H14.5C15.3281 12 16 11.3281 16 10.5Z" fill="black"/>
</svg>
