<svg width="24" height="24" viewBox="0 0 24 24" fill="none" xmlns="http://www.w3.org/2000/svg">
<path d="M12.7406 19.6C14.3438 17.5938 18 12.7312 18 10C18 6.6875 15.3125 4 12 4C8.6875 4 6 6.6875 6 10C6 12.7312 9.65625 17.5938 11.2594 19.6C11.6438 20.0781 12.3562 20.0781 12.7406 19.6ZM14.65 7.34375C15.1094 7.80312 15.1094 8.55 14.65 9.00938L14.1844 9.475L12.5188 7.8125L12.9844 7.34375C13.4437 6.88438 14.1906 6.88438 14.65 7.34375ZM9.56562 10.7656L11.8125 8.51875L13.4781 10.1844L11.2312 12.4312C11.1031 12.5594 10.9437 12.65 10.7656 12.6938L9.62188 12.9812C9.45 13.025 9.27187 12.975 9.14687 12.85C9.02187 12.725 8.97187 12.5469 9.01562 12.375L9.30312 11.2281C9.34687 11.0531 9.4375 10.8906 9.56562 10.7625V10.7656Z" fill="black"/>
</svg>
