<svg width="24" height="24" viewBox="0 0 24 24" fill="none" xmlns="http://www.w3.org/2000/svg">
<path d="M8.07187 4.62813C8.22187 4.25 8.59062 4 8.99999 4H15C15.4094 4 15.7781 4.25 15.9281 4.62813L17.9281 9.62813C18.05 9.9375 18.0125 10.2844 17.8281 10.5594C17.6437 10.8344 17.3312 11 17 11H6.99999C6.66874 11 6.35937 10.8344 6.17187 10.5594C5.98437 10.2844 5.94687 9.93438 6.07187 9.62813L8.07187 4.62813ZM11 12H13V18H15C15.5531 18 16 18.4469 16 19C16 19.5531 15.5531 20 15 20H12H8.99999C8.44687 20 7.99999 19.5531 7.99999 19C7.99999 18.4469 8.44687 18 8.99999 18H11V12Z" fill="black"/>
</svg>
