<svg width="24" height="24" viewBox="0 0 24 24" fill="none" xmlns="http://www.w3.org/2000/svg">
<path d="M6.05939 4.88754C5.87502 5.07504 5.71877 5.27504 5.59377 5.49066C5.18752 6.17504 4.58127 6.80941 3.96564 7.30941C3.89377 7.36566 3.82814 7.42816 3.76252 7.49379C2.95627 8.30004 2.78752 9.50629 3.26564 10.475C3.44377 10.8407 3.60939 11.2282 3.60939 11.6344V12.75C3.60939 13.2094 3.79064 13.65 4.11877 13.975L4.94064 14.7969C5.26564 15.1219 5.45002 15.5625 5.45002 16.0219V16.425C5.45002 16.5157 5.45627 16.6063 5.47189 16.6969L5.70939 16.4594C5.89689 16.2719 6.00314 16.0188 6.00314 15.7532V14.3282C6.00314 13.5313 6.31877 12.7688 6.88127 12.2063L7.20939 11.8782C7.39689 11.6907 7.50314 11.4375 7.50314 11.1719V9.82816C7.50314 9.03129 7.81877 8.26879 8.38127 7.70629L9.29064 6.79691C9.44689 6.64066 9.56564 6.39379 9.71877 5.95316C9.85627 5.55004 10.0563 5.17816 10.3094 4.84379C9.12189 3.70316 7.2344 3.71879 6.06564 4.89066L6.05939 4.88754ZM20.7344 11.1844C20.6375 10.275 20.6625 9.26254 20.8906 8.37504C20.9625 8.09691 21 7.80316 21 7.50004C21 5.56566 19.4344 4.00004 17.5 4.00004C17.1969 4.00004 16.9063 4.03754 16.625 4.10941C15.7375 4.33754 14.725 4.36254 13.8156 4.26566C13.7125 4.25629 13.6063 4.25004 13.5 4.25004C12.1844 4.25004 11.0656 5.09691 10.6625 6.27816C10.5094 6.72504 10.3313 7.17191 9.99689 7.50629L9.08752 8.41566C8.71252 8.79066 8.50314 9.30004 8.50314 9.83129V11.175C8.50314 11.7063 8.29377 12.2157 7.91877 12.5907L7.59064 12.9188C7.21564 13.2938 7.00627 13.8032 7.00627 14.3344V15.7625C7.00627 16.2938 6.79689 16.8032 6.42189 17.1782L5.29377 18.2938C4.90314 18.6844 4.90314 19.3188 5.29377 19.7094C5.68439 20.1 6.31877 20.1 6.70939 19.7094L7.83127 18.5875C8.20627 18.2125 8.71564 18.0032 9.24689 18.0032H10.675C11.2063 18.0032 11.7156 17.7938 12.0906 17.4188L12.4188 17.0907C12.7938 16.7157 13.3031 16.5063 13.8344 16.5063H15.1781C15.7094 16.5063 16.2188 16.2969 16.5938 15.9219L17.5031 15.0125C17.8375 14.6782 18.2844 14.5 18.7313 14.3469C19.9031 13.9344 20.75 12.8157 20.75 11.5C20.75 11.3938 20.7438 11.2875 20.7344 11.1844ZM17.8531 7.14691C18.0469 7.34066 18.0469 7.65941 17.8531 7.85316L15.2063 10.5H17C17.275 10.5 17.5 10.725 17.5 11C17.5 11.275 17.275 11.5 17 11.5H14.2063L12.3531 13.3532L10.8531 14.8532C10.6594 15.0469 10.3406 15.0469 10.1469 14.8532C9.95314 14.6594 9.95314 14.3407 10.1469 14.1469L11.5 12.7938V10C11.5 9.72504 11.725 9.50004 12 9.50004C12.275 9.50004 12.5 9.72504 12.5 10V11.7938L13.6469 10.6469L17.1469 7.14691C17.3406 6.95316 17.6594 6.95316 17.8531 7.14691Z" fill="black"/>
</svg>
