<svg width="24" height="24" viewBox="0 0 24 24" fill="none" xmlns="http://www.w3.org/2000/svg">
<path d="M12.5 6.99997H15.75C17.0844 6.99997 18.2469 6.2531 18.8375 5.1531C18.9469 4.94997 19.2625 4.9406 19.3438 5.15622C19.7656 6.29685 20.0031 7.56247 20.0031 8.89372C20 13.9093 16.6594 17.9781 12.5312 18H12.5C9.94688 18 7.8 16.2593 7.18125 13.9C6.14688 14.8593 5.5 16.2312 5.5 17.75V18.25C5.5 18.6656 5.16563 19 4.75 19C4.33437 19 4 18.6656 4 18.25V17.75C4 15.4031 5.19688 13.3375 7.0125 12.1281C7.20313 9.2656 9.5875 6.99997 12.5 6.99997ZM9.92812 11.5875C9.92812 12.0375 10.1094 12.4718 10.4344 12.7875L12.65 14.9437C12.8437 15.1312 13.1531 15.1312 13.3469 14.9437L15.5625 12.7875C15.8875 12.4718 16.0688 12.0406 16.0688 11.5875C16.0688 10.6656 15.3219 9.9156 14.3969 9.9156H14.35C13.9031 9.9156 13.4719 10.0906 13.15 10.4031L12.9969 10.5531L12.8438 10.4031C12.5219 10.0906 12.0938 9.9156 11.6438 9.9156H11.5969C10.675 9.9156 9.925 10.6625 9.925 11.5875H9.92812Z" fill="black"/>
</svg>
