<svg width="24" height="24" viewBox="0 0 24 24" fill="none" xmlns="http://www.w3.org/2000/svg">
<path d="M12.7406 19.6C14.3438 17.5938 18 12.7312 18 10C18 6.6875 15.3125 4 12 4C8.6875 4 6 6.6875 6 10C6 12.7312 9.65625 17.5938 11.2594 19.6C11.6438 20.0781 12.3562 20.0781 12.7406 19.6ZM10 8C10.2652 8 10.5196 8.10536 10.7071 8.29289C10.8946 8.48043 11 8.73478 11 9C11 9.26522 10.8946 9.51957 10.7071 9.70711C10.5196 9.89464 10.2652 10 10 10C9.73478 10 9.48043 9.89464 9.29289 9.70711C9.10536 9.51957 9 9.26522 9 9C9 8.73478 9.10536 8.48043 9.29289 8.29289C9.48043 8.10536 9.73478 8 10 8ZM13 9C13 8.73478 13.1054 8.48043 13.2929 8.29289C13.4804 8.10536 13.7348 8 14 8C14.2652 8 14.5196 8.10536 14.7071 8.29289C14.8946 8.48043 15 8.73478 15 9C15 9.26522 14.8946 9.51957 14.7071 9.70711C14.5196 9.89464 14.2652 10 14 10C13.7348 10 13.4804 9.89464 13.2929 9.70711C13.1054 9.51957 13 9.26522 13 9ZM10.0188 11.6531C10.2125 11.9469 10.9281 12.625 12 12.625C13.0719 12.625 13.7844 11.9469 13.9812 11.6531C14.1719 11.3656 14.5594 11.2875 14.8469 11.4812C15.1344 11.675 15.2125 12.0594 15.0188 12.3469C14.6594 12.8875 13.5969 13.875 12 13.875C10.4031 13.875 9.34063 12.8875 8.98125 12.3469C8.79063 12.0594 8.86875 11.6719 9.15313 11.4812C9.4375 11.2906 9.82813 11.3687 10.0188 11.6531Z" fill="black"/>
</svg>
