<svg width="24" height="24" viewBox="0 0 24 24" fill="none" xmlns="http://www.w3.org/2000/svg">
<path d="M12.7406 19.6C14.3437 17.5938 18 12.7313 18 10C18 6.6875 15.3125 4 12 4C8.6875 4 6 6.6875 6 10C6 12.7313 9.65625 17.5938 11.2594 19.6C11.6438 20.0781 12.3562 20.0781 12.7406 19.6ZM12 8C12.5304 8 13.0391 8.21071 13.4142 8.58579C13.7893 8.96086 14 9.46957 14 10C14 10.5304 13.7893 11.0391 13.4142 11.4142C13.0391 11.7893 12.5304 12 12 12C11.4696 12 10.9609 11.7893 10.5858 11.4142C10.2107 11.0391 10 10.5304 10 10C10 9.46957 10.2107 8.96086 10.5858 8.58579C10.9609 8.21071 11.4696 8 12 8Z" fill="black"/>
</svg>
