<svg width="24" height="24" viewBox="0 0 24 24" fill="none" xmlns="http://www.w3.org/2000/svg">
<path d="M3.04693 4.05935L6.54693 5.55935C6.92818 5.72185 7.10318 6.16248 6.94068 6.54373C6.77818 6.92498 6.33755 7.09998 5.9563 6.93748L2.4563 5.43748C2.07505 5.27498 1.89693 4.83435 2.05943 4.45623C2.22193 4.0781 2.66568 3.89685 3.04693 4.05935ZM6.54693 10.4375L3.04693 11.9375C2.66568 12.1 2.22505 11.925 2.06255 11.5437C1.90005 11.1625 2.07505 10.7219 2.4563 10.5594L5.9563 9.05935C6.33755 8.89685 6.77818 9.07185 6.94068 9.4531C7.10318 9.83435 6.92818 10.275 6.54693 10.4375ZM11.4969 4.13748C11.8094 3.95623 12.1938 3.95623 12.5032 4.13748L15.5032 5.88748C15.9813 6.1656 16.1407 6.7781 15.8626 7.25623C15.6782 7.57185 15.3438 7.74998 15.0001 7.74998V8.99998C15.5532 8.99998 16.0001 9.44685 16.0001 9.99998C16.0001 10.4156 15.7469 10.7719 15.3844 10.9219L16.8001 18H17.0001C17.5532 18 18 18.4468 18 19C18 19.5531 17.5532 20 17.0001 20H16.0907H13.0001V18C13.0001 17.4468 12.5532 17 12.0001 17C11.4469 17 11.0001 17.4468 11.0001 18V20H7.90943H7.00005C6.44693 20 6.00005 19.5531 6.00005 19C6.00005 18.4468 6.44693 18 7.00005 18H7.20005L8.61568 10.9219C8.25318 10.7719 8.00005 10.4156 8.00005 9.99998C8.00005 9.44685 8.44693 8.99998 9.00005 8.99998V7.74998C8.6563 7.74998 8.32193 7.57185 8.13755 7.2531C7.85943 6.77498 8.02193 6.16248 8.49693 5.88435L11.4969 4.13435V4.13748ZM13.0001 6.7406L12.0001 6.15935L11.0001 6.7406V8.99998H13.0001V6.7406ZM21.9407 4.45623C22.1032 4.83748 21.9282 5.2781 21.5469 5.4406L18.0469 6.9406C17.6657 7.1031 17.2251 6.9281 17.0626 6.54685C16.9001 6.1656 17.0751 5.72498 17.4563 5.56248L20.9563 4.06248C21.3375 3.89998 21.7782 4.07498 21.9407 4.45623ZM17.0626 9.45623C17.2251 9.07498 17.6657 8.89998 18.0469 9.06248L21.5469 10.5625C21.9282 10.725 22.1032 11.1656 21.9407 11.5469C21.7782 11.9281 21.3375 12.1031 20.9563 11.9406L17.4563 10.4406C17.0751 10.2781 16.9001 9.83748 17.0626 9.45623Z" fill="black"/>
</svg>
