<svg width="24" height="24" viewBox="0 0 24 24" fill="none" xmlns="http://www.w3.org/2000/svg">
<path d="M12.75 5C12.3344 5 12 5.33437 12 5.75C12 6.16563 12.3344 6.5 12.75 6.5H13.25C16.3344 6.5 18.8938 8.73125 19.4063 11.6687C19.125 11.5594 18.8188 11.5 18.5 11.5H16.4938L15.1875 8.45312C15.0813 8.20625 14.85 8.03438 14.5844 8.00313C14.3188 7.97188 14.0532 8.0875 13.8938 8.30312L12.6157 10.0375L11.9375 8.45312C11.8344 8.20937 11.6094 8.04062 11.3469 8.00625C11.0844 7.97187 10.825 8.07813 10.6594 8.28438L3.1594 17.7844C2.90315 18.1094 2.9594 18.5812 3.2844 18.8375C3.6094 19.0937 4.08128 19.0375 4.33753 18.7125L6.81878 15.5719L8.16253 16.0844L6.8969 17.8031C6.65003 18.1375 6.7219 18.6062 7.05628 18.8531C7.39065 19.1 7.8594 19.0281 8.10628 18.6938L9.7219 16.5H12.05L11.1344 17.8219C10.9 18.1625 10.9844 18.6281 11.325 18.8656C11.6657 19.1031 12.1313 19.0156 12.3688 18.675L13.875 16.5H16.3875L17.6 18.6219C17.8063 18.9812 18.2625 19.1062 18.6219 18.9C18.9813 18.6937 19.1063 18.2375 18.9 17.8781L18.1125 16.5H18.5C19.8782 16.5 20.9938 15.3844 21 14.0094C21 14.0062 21 14.0031 21 14V12.75C21 8.46875 17.5313 5 13.25 5H12.75ZM14.3282 10.25L14.8625 11.5H13.4063L14.3282 10.25ZM11.5875 11.4406L11.5438 11.5H10.0344L11.0563 10.2031L11.5844 11.4375L11.5875 11.4406ZM5.77503 11.5C4.79378 11.5 4.00003 12.2937 4.00003 13.275C4.00003 13.7594 4.1969 14.2125 4.52815 14.5375L6.9594 11.5H5.77503ZM18.5 13C18.6326 13 18.7598 13.0527 18.8536 13.1464C18.9474 13.2402 19 13.3674 19 13.5C19 13.6326 18.9474 13.7598 18.8536 13.8536C18.7598 13.9473 18.6326 14 18.5 14C18.3674 14 18.2402 13.9473 18.1465 13.8536C18.0527 13.7598 18 13.6326 18 13.5C18 13.3674 18.0527 13.2402 18.1465 13.1464C18.2402 13.0527 18.3674 13 18.5 13Z" fill="black"/>
</svg>
