<svg width="24" height="24" viewBox="0 0 24 24" fill="none" xmlns="http://www.w3.org/2000/svg">
<path d="M12.0844 4H12C7.02812 4 3 6.4625 3 9.5C3 11.2875 4.39688 12.8781 6.55938 13.8813L6.55312 13.8938L8.01562 14.625C8.61875 14.9281 9 15.5437 9 16.2188C9 17.2031 8.20312 18 7.21875 18H5C4.44687 18 4 18.4469 4 19C4 19.5531 4.44687 20 5 20H7.21875C9.30625 20 11 18.3062 11 16.2188C11 15.7781 10.925 15.35 10.7812 14.95C11.1812 14.9844 11.5875 15 12 15C16.9719 15 21 12.5375 21 9.5C21 7.1125 18.5125 5.08125 15.0312 4.31875L15.2063 4.79062L16.0188 5.09063C16.6094 5.3125 17 5.87188 17 6.5C17 6.675 16.9688 6.84687 16.9125 7.00625C18.2 7.64062 19 8.525 19 9.5C19 11.4344 15.8656 13 12 13C8.13438 13 5 11.4344 5 9.5C5 7.90625 7.13125 6.5625 10.0437 6.1375C10.1625 5.6625 10.5062 5.26562 10.9781 5.09375L11.7906 4.79375L12.0844 4ZM13.9688 4.325C13.8969 4.13125 13.7094 4 13.5 4C13.2906 4 13.1031 4.13125 13.0312 4.325L12.5719 5.57187L11.325 6.03125C11.1281 6.10313 11 6.29063 11 6.5C11 6.70937 11.1312 6.89687 11.325 6.96875L12.5688 7.42812L13.0312 8.675C13.1031 8.87188 13.2906 9 13.5 9C13.7094 9 13.8969 8.86875 13.9688 8.675L14.4281 7.43125L15.675 6.96875C15.8719 6.89687 16 6.70937 16 6.5C16 6.29063 15.8688 6.10313 15.675 6.03125L14.4281 5.57187L13.9688 4.325ZM18.5 15C18.2906 15 18.1031 15.1312 18.0312 15.325L17.5719 16.5688L16.325 17.0312C16.1281 17.1031 16 17.2906 16 17.5C16 17.7094 16.1312 17.8969 16.325 17.9688L17.5688 18.4281L18.0312 19.675C18.1031 19.8719 18.2906 20 18.5 20C18.7094 20 18.8969 19.8688 18.9688 19.675L19.4281 18.4312L20.675 17.9688C20.8719 17.8969 21 17.7094 21 17.5C21 17.2906 20.8687 17.1031 20.675 17.0312L19.4312 16.5719L18.9688 15.325C18.8969 15.1281 18.7094 15 18.5 15Z" fill="black"/>
</svg>
