<svg width="24" height="24" viewBox="0 0 24 24" fill="none" xmlns="http://www.w3.org/2000/svg">
<path d="M12.7406 19.6C14.3437 17.5938 18 12.7313 18 10C18 6.6875 15.3125 4 12 4C8.6875 4 6 6.6875 6 10C6 12.7313 9.65625 17.5938 11.2594 19.6C11.6438 20.0781 12.3562 20.0781 12.7406 19.6ZM12 7C12.4156 7 12.75 7.33437 12.75 7.75V11.25C12.75 11.6656 12.4156 12 12 12C11.5844 12 11.25 11.6656 11.25 11.25V7.75C11.25 7.33437 11.5844 7 12 7ZM11 14C11 13.7348 11.1054 13.4804 11.2929 13.2929C11.4804 13.1054 11.7348 13 12 13C12.2652 13 12.5196 13.1054 12.7071 13.2929C12.8946 13.4804 13 13.7348 13 14C13 14.2652 12.8946 14.5196 12.7071 14.7071C12.5196 14.8946 12.2652 15 12 15C11.7348 15 11.4804 14.8946 11.2929 14.7071C11.1054 14.5196 11 14.2652 11 14Z" fill="black"/>
</svg>
