<svg width="24" height="24" viewBox="0 0 24 24" fill="none" xmlns="http://www.w3.org/2000/svg">
<path d="M3.21268 4.15937C2.88768 3.90312 2.4158 3.96249 2.15955 4.28749C1.9033 4.61249 1.96268 5.08437 2.28768 5.34062L20.7877 19.8406C21.1127 20.0969 21.5846 20.0375 21.8408 19.7125C22.0971 19.3875 22.0377 18.9156 21.7127 18.6594L18.6377 16.25C20.0564 15.3687 21.0002 13.7937 21.0002 12C21.0002 9.23749 18.7627 6.99999 16.0002 6.99999H14.0002C13.4471 6.99999 13.0002 7.44687 13.0002 7.99999C13.0002 8.55312 13.4471 8.99999 14.0002 8.99999H16.0002C17.6564 8.99999 19.0002 10.3437 19.0002 12C19.0002 13.3531 18.1064 14.4937 16.8783 14.8687L14.4908 13H15.0002C15.5533 13 16.0002 12.5531 16.0002 12C16.0002 11.4469 15.5533 11 15.0002 11H11.9408L9.38768 8.99999H10.0002C10.5533 8.99999 11.0002 8.55312 11.0002 7.99999C11.0002 7.44687 10.5533 6.99999 10.0002 6.99999H8.00018C7.64705 6.99999 7.3033 7.03749 6.97205 7.10624L3.21268 4.15937ZM5.78143 9.98124L4.20955 8.74062C3.45643 9.61562 3.00018 10.7531 3.00018 12C3.00018 14.7625 5.23768 17 8.00018 17H10.0002C10.5533 17 11.0002 16.5531 11.0002 16C11.0002 15.4469 10.5533 15 10.0002 15H8.00018C6.34393 15 5.00018 13.6562 5.00018 12C5.00018 11.2219 5.29705 10.5125 5.78143 9.98124Z" fill="black"/>
</svg>
