<svg width="24" height="24" viewBox="0 0 24 24" fill="none" xmlns="http://www.w3.org/2000/svg">
<path d="M3.21243 4.15955C2.88743 3.9033 2.41556 3.96268 2.15931 4.28768C1.90306 4.61268 1.96243 5.08455 2.28743 5.3408L20.7874 19.8408C21.1124 20.0971 21.5843 20.0377 21.8406 19.7127C22.0968 19.3877 22.0374 18.9158 21.7124 18.6596L21.2749 18.3189C21.7218 17.8846 21.9999 17.2752 21.9999 16.6002C21.9999 16.2689 21.7312 16.0002 21.3999 16.0002H18.3187L6.83743 7.00018H17.9999V15.0002H19.9999V7.00018C19.9999 5.89705 19.1031 5.00018 17.9999 5.00018H5.99993C5.54993 5.00018 5.13118 5.15018 4.79681 5.4033L3.21243 4.15955ZM5.99993 10.1564L3.99993 8.58143V15.0002H5.99993V10.1564ZM17.2249 19.0002L13.4156 16.0002H2.59993C2.26868 16.0002 1.99993 16.2689 1.99993 16.6002C1.99993 17.9252 3.07493 19.0002 4.39993 19.0002H17.2249Z" fill="black"/>
</svg>
