<svg width="24" height="24" viewBox="0 0 24 24" fill="none" xmlns="http://www.w3.org/2000/svg">
<path d="M11.75 4H12.25C12.6656 4 13 4.33437 13 4.75V5.08438C15.5125 5.50312 17.4969 7.4875 17.9156 10H18C18.5531 10 19 10.4469 19 11C19 11.5531 18.5531 12 18 12H5.99999C5.44687 12 4.99999 11.5531 4.99999 11C4.99999 10.4469 5.44687 10 5.99999 10H6.08437C6.50312 7.4875 8.48749 5.50312 11 5.08438V4.75C11 4.33437 11.3344 4 11.75 4ZM5.99999 13H7.99999V17H9.24999V13H11.25V17H12.75V13H14.75V17H16V13H18V17.1344C18.0187 17.1437 18.0375 17.1562 18.0531 17.1687L19.5531 18.1687C19.9187 18.4125 20.0844 18.8687 19.9562 19.2906C19.8281 19.7125 19.4406 20 19 20H4.99999C4.55937 20 4.17187 19.7125 4.04374 19.2906C3.91562 18.8687 4.07812 18.4125 4.44687 18.1687L5.94687 17.1687C5.96562 17.1562 5.98437 17.1469 6.00312 17.1344V13H5.99999Z" fill="black"/>
</svg>
