<svg width="24" height="24" viewBox="0 0 24 24" fill="none" xmlns="http://www.w3.org/2000/svg">
<path d="M10.5 5C11.0531 5 11.5 5.44687 11.5 6V7.02187C11.6656 7.00937 11.8313 7 12 7C12.1687 7 12.3344 7.00625 12.5 7.02187V6C12.5 5.44687 12.9469 5 13.5 5C14.0531 5 14.5 5.44687 14.5 6V7.54375C16.2156 8.33125 17.4938 9.90313 17.8813 11.8C17.9906 12.3406 17.6406 12.8687 17.1 12.9781C16.5594 13.0875 16.0312 12.7375 15.9219 12.1969C15.7312 11.2625 15.2188 10.45 14.5031 9.875V12C14.5031 12.5531 14.0563 13 13.5031 13C12.95 13 12.5031 12.5531 12.5031 12V9.03125C12.3406 9.00938 12.1719 9 12.0031 9C11.8344 9 11.6656 9.00938 11.5031 9.03125V12C11.5031 12.5531 11.0563 13 10.5031 13C9.95 13 9.50312 12.5531 9.50312 12V9.87813C8.58437 10.6094 8 11.7375 8 13C8 15.2094 9.79063 17 12 17H17C17.5531 17 18 17.4469 18 18C18 18.5531 17.5531 19 17 19H12H7C6.44687 19 6 18.5531 6 18C6 17.4469 6.44687 17 7 17H7.52813C6.57813 15.9375 6 14.5375 6 13C6 10.5781 7.43438 8.49062 9.5 7.54375V6C9.5 5.44687 9.94688 5 10.5 5Z" fill="black"/>
</svg>
