<svg width="24" height="24" viewBox="0 0 24 24" fill="none" xmlns="http://www.w3.org/2000/svg">
<path d="M3.21255 4.15937C2.88755 3.90312 2.41568 3.96249 2.15943 4.28749C1.90318 4.61249 1.96255 5.08437 2.28755 5.34062L20.7876 19.8406C21.1126 20.0969 21.5844 20.0375 21.8407 19.7125C22.0969 19.3875 22.0376 18.9156 21.7126 18.6594L16.3438 14.4531C17.2813 12.8406 18.0001 11.2125 18.0001 9.99999C18.0001 6.68749 15.3126 3.99999 12.0001 3.99999C9.78755 3.99999 7.85318 5.19999 6.81255 6.98124L3.21255 4.15937ZM10.0563 9.52499C10.2688 8.64999 11.0594 7.99999 12.0001 7.99999C13.1032 7.99999 14.0001 8.89687 14.0001 9.99999C14.0001 10.7719 13.5657 11.4375 12.9251 11.7719L10.0563 9.52187V9.52499ZM14.6938 17.0031L6.00318 10.1531C6.13443 12.9094 9.68443 17.6312 11.2594 19.5969C11.6438 20.075 12.3563 20.075 12.7407 19.5969C13.2469 18.9656 13.9594 18.0469 14.6938 17V17.0031Z" fill="black"/>
</svg>
