<svg width="24" height="24" viewBox="0 0 24 24" fill="none" xmlns="http://www.w3.org/2000/svg">
<path d="M2.1687 6.44371C2.47495 5.98433 3.0937 5.85933 3.55308 6.16246L3.56558 6.17183C3.5812 6.18121 3.6062 6.19683 3.6437 6.21871C3.7187 6.26246 3.84058 6.33121 4.00933 6.41558C4.3437 6.58433 4.86245 6.81558 5.56558 7.04996C6.9687 7.51871 9.11245 7.99996 12 7.99996C14.8875 7.99996 17.0312 7.51871 18.4343 7.04996C19.1375 6.81558 19.6562 6.58433 19.9906 6.41558C20.1593 6.33121 20.2812 6.26246 20.3562 6.21871C20.3937 6.19683 20.4218 6.18121 20.4343 6.17183L20.4468 6.16558C20.4468 6.16558 20.4468 6.16558 20.45 6.16558C20.9093 5.86246 21.5281 5.98433 21.8343 6.44371C22.1406 6.90308 22.0156 7.52496 21.5562 7.83121L21 6.99996C21.5562 7.83121 21.5531 7.83121 21.5531 7.83121H21.55L21.5437 7.83433L21.5312 7.84371C21.5218 7.84996 21.5093 7.85933 21.4937 7.86871C21.4625 7.88746 21.4187 7.91558 21.3625 7.94683C21.25 8.01246 21.0906 8.09996 20.8843 8.20308C20.4687 8.40933 19.8625 8.67808 19.0656 8.94371C17.4687 9.48121 15.1125 9.99996 12 9.99996C8.88745 9.99996 6.5312 9.48121 4.93433 8.94996C4.13745 8.68433 3.5312 8.41558 3.11558 8.20933C2.90933 8.10621 2.74995 8.01871 2.63745 7.95308C2.5812 7.92183 2.53745 7.89371 2.5062 7.87496C2.49058 7.86558 2.47808 7.85621 2.4687 7.84996L2.4562 7.84058L2.45308 7.83746H2.44995C2.44995 7.83746 2.44995 7.83746 3.00308 7.00621L2.4437 7.83121C1.98433 7.52496 1.86245 6.90621 2.1687 6.44371ZM18.35 10.2093L18.6437 11.0156C19.6062 11.075 20.4875 11.6937 20.8375 12.6562C21.35 14.0656 20.5625 17.0125 19.8562 17.2687C19.15 17.525 16.6531 15.775 16.1375 14.3656C15.7875 13.4031 16.0656 12.3625 16.7625 11.7L16.3781 10.6437C17.1031 10.5187 17.7593 10.3718 18.35 10.2125V10.2093ZM12 11C12.3406 11 12.675 10.9937 13 10.9812V12.2062C13.8843 12.5906 14.5 13.4718 14.5 14.4968C14.5 15.9968 12.75 18.4968 12 18.4968C11.25 18.4968 9.49995 15.9968 9.49995 14.4968C9.49995 13.4718 10.1156 12.5906 11 12.2062V10.9812C11.325 10.9937 11.6593 11 12 11ZM7.62183 10.6406L7.23745 11.6968C7.93433 12.3625 8.21245 13.4 7.86245 14.3625C7.34995 15.7718 4.84995 17.5218 4.1437 17.2656C3.43745 17.0093 2.64995 14.0656 3.16558 12.6562C3.51558 11.6937 4.39683 11.075 5.35933 11.0156L5.65308 10.2093C6.24058 10.3687 6.89995 10.5187 7.62495 10.6406H7.62183Z" fill="black"/>
</svg>
