<svg width="24" height="24" viewBox="0 0 24 24" fill="none" xmlns="http://www.w3.org/2000/svg">
<path d="M3.21255 4.15943C2.88755 3.90318 2.41568 3.96255 2.15943 4.28755C1.90318 4.61255 1.96255 5.08443 2.28755 5.34068L20.7876 19.8407C21.1126 20.0969 21.5844 20.0376 21.8407 19.7126C22.0969 19.3876 22.0376 18.9157 21.7126 18.6594L18.6376 16.2501C20.0563 15.3688 21.0001 13.7938 21.0001 12.0001C21.0001 9.23755 18.7626 7.00005 16.0001 7.00005H14.0001C13.4469 7.00005 13.0001 7.44693 13.0001 8.00005C13.0001 8.55318 13.4469 9.00005 14.0001 9.00005H16.0001C17.6563 9.00005 19.0001 10.3438 19.0001 12.0001C19.0001 13.3532 18.1063 14.4938 16.8782 14.8688L14.4907 13.0001H15.0001C15.5532 13.0001 16.0001 12.5532 16.0001 12.0001C16.0001 11.4469 15.5532 11.0001 15.0001 11.0001H11.9407L9.38755 9.00005H10.0001C10.5532 9.00005 11.0001 8.55318 11.0001 8.00005C11.0001 7.44693 10.5532 7.00005 10.0001 7.00005H8.00005C7.64693 7.00005 7.30318 7.03755 6.97193 7.1063L3.21255 4.15943ZM5.7813 9.9813L4.20943 8.74068C3.4563 9.61568 3.00005 10.7532 3.00005 12.0001C3.00005 14.7626 5.23755 17.0001 8.00005 17.0001H10.0001C10.5532 17.0001 11.0001 16.5532 11.0001 16.0001C11.0001 15.4469 10.5532 15.0001 10.0001 15.0001H8.00005C6.3438 15.0001 5.00005 13.6563 5.00005 12.0001C5.00005 11.2219 5.29693 10.5126 5.7813 9.9813Z" fill="black"/>
</svg>
