<svg width="24" height="24" viewBox="0 0 24 24" fill="none" xmlns="http://www.w3.org/2000/svg">
<path d="M10.7406 19.6C11.0844 19.1688 11.525 18.6094 12 17.9656V15C12 14.2594 12.4031 13.6125 13 13.2688V12.5C13 10.7625 14.2656 9.32188 15.925 9.04688C15.4688 6.1875 12.9906 4 10 4C6.6875 4 4 6.6875 4 10C4 12.7313 7.65625 17.5938 9.25938 19.6C9.64375 20.0781 10.3562 20.0781 10.7406 19.6ZM10 8C10.5304 8 11.0391 8.21071 11.4142 8.58579C11.7893 8.96086 12 9.46957 12 10C12 10.5304 11.7893 11.0391 11.4142 11.4142C11.0391 11.7893 10.5304 12 10 12C9.46957 12 8.96086 11.7893 8.58579 11.4142C8.21071 11.0391 8 10.5304 8 10C8 9.46957 8.21071 8.96086 8.58579 8.58579C8.96086 8.21071 9.46957 8 10 8ZM16.5 11.5C17.0531 11.5 17.5 11.9469 17.5 12.5V14H15.5V12.5C15.5 11.9469 15.9469 11.5 16.5 11.5ZM14 12.5V14C13.4469 14 13 14.4469 13 15V19C13 19.5531 13.4469 20 14 20H19C19.5531 20 20 19.5531 20 19V15C20 14.4469 19.5531 14 19 14V12.5C19 11.1187 17.8813 10 16.5 10C15.1187 10 14 11.1187 14 12.5Z" fill="black"/>
</svg>
