<svg width="24" height="24" viewBox="0 0 24 24" fill="none" xmlns="http://www.w3.org/2000/svg">
<path d="M21 9.5C21 12.5375 16.9719 15 12 15C11.5875 15 11.1781 14.9844 10.7812 14.95C10.925 15.35 11 15.7781 11 16.2188C11 18.3063 9.30625 20 7.21875 20H5C4.44687 20 4 19.5531 4 19C4 18.4469 4.44687 18 5 18H7.21875C8.20312 18 9 17.2031 9 16.2188C9 15.5437 8.61875 14.9281 8.01562 14.625L6.55312 13.8938L6.55938 13.8813C4.39688 12.8781 3 11.2875 3 9.5C3 6.4625 7.02812 4 12 4C16.9719 4 21 6.4625 21 9.5ZM12 13C15.8656 13 19 11.4344 19 9.5C19 7.56562 15.8656 6 12 6C8.13438 6 5 7.56562 5 9.5C5 11.4344 8.13438 13 12 13Z" fill="black"/>
</svg>
