<svg width="24" height="24" viewBox="0 0 24 24" fill="none" xmlns="http://www.w3.org/2000/svg">
<path d="M3 7.51566V17.1969C3 17.7594 3.31563 18.2907 3.84375 18.4875C6.5625 19.5032 9.28125 18.8094 12 18.1157C14.4937 17.4813 16.9875 16.8438 19.4781 17.525C20.1969 17.7219 21 17.2282 21 16.4813V6.80316C21 6.24066 20.6844 5.70941 20.1562 5.51254C17.4375 4.49691 14.7188 5.19066 12 5.88441C9.50625 6.51879 7.0125 7.15316 4.52188 6.47191C3.8 6.27504 3 6.76879 3 7.51566ZM7 17H5V15C6.10313 15 7 15.8969 7 17ZM5 11V9.00004H7C7 10.1032 6.10313 11 5 11ZM17 15C17 13.8969 17.8969 13 19 13V15H17ZM19 9.00004C17.8969 9.00004 17 8.10316 17 7.00004H19V9.00004ZM15 12C15 13.9344 13.6562 15.5 12 15.5C10.3438 15.5 9 13.9344 9 12C9 10.0657 10.3438 8.50004 12 8.50004C13.6562 8.50004 15 10.0657 15 12ZM10.875 10.5C10.875 10.8032 11.0906 11.0532 11.375 11.1125V12.625H11.25C10.9062 12.625 10.625 12.9063 10.625 13.25C10.625 13.5938 10.9062 13.875 11.25 13.875H12H12.75C13.0938 13.875 13.375 13.5938 13.375 13.25C13.375 12.9063 13.0938 12.625 12.75 12.625H12.625V10.5C12.625 10.1563 12.3438 9.87504 12 9.87504H11.5C11.1562 9.87504 10.875 10.1563 10.875 10.5Z" fill="black"/>
</svg>
