<svg width="24" height="24" viewBox="0 0 24 24" fill="none" xmlns="http://www.w3.org/2000/svg">
<path d="M16.4999 11.5C18.1562 11.5 19.5 10.1562 19.5 8.5C19.5 6.84375 18.1562 5.5 16.4999 5.5C15.3906 5.5 14.4187 6.10313 13.8999 7H12.2562C12.8749 5.25312 14.5406 4 16.4999 4C18.9843 4 21 6.01562 21 8.5C21 10.9844 18.9843 13 16.4999 13C15.6343 13 14.8281 12.7563 14.1406 12.3344L15.2468 11.2281C15.6281 11.4031 16.0531 11.5 16.4999 11.5ZM3.0562 8.4625C3.17182 8.18125 3.44682 8 3.74995 8H15.2499C15.5531 8 15.8281 8.18125 15.9437 8.4625C16.0593 8.74375 15.9968 9.06563 15.7812 9.28125L10.2499 14.8125V18.5H12.2499C12.6656 18.5 12.9999 18.8344 12.9999 19.25C12.9999 19.6656 12.6656 20 12.2499 20H9.49995H6.74995C6.33432 20 5.99995 19.6656 5.99995 19.25C5.99995 18.8344 6.33432 18.5 6.74995 18.5H8.74995V14.8094L3.2187 9.28125C3.00307 9.06563 2.94057 8.74375 3.0562 8.4625Z" fill="black"/>
</svg>
