<svg width="24" height="24" viewBox="0 0 24 24" fill="none" xmlns="http://www.w3.org/2000/svg">
<path d="M17 10.5C17 11.9344 16.5344 13.2594 15.75 14.3344L19.7063 18.2937C20.0969 18.6844 20.0969 19.3188 19.7063 19.7094C19.3156 20.1 18.6812 20.1 18.2906 19.7094L14.3344 15.75C13.2594 16.5375 11.9344 17 10.5 17C6.90937 17 4 14.0906 4 10.5C4 6.90937 6.90937 4 10.5 4C14.0906 4 17 6.90937 17 10.5ZM11.5312 7.71875C11.2375 7.425 10.7625 7.425 10.4719 7.71875C10.1813 8.0125 10.1781 8.4875 10.4719 8.77812L11.4406 9.74687H7.75C7.33437 9.74687 7 10.0812 7 10.4969C7 10.9125 7.33437 11.2469 7.75 11.2469H11.4406L10.4719 12.2156C10.1781 12.5094 10.1781 12.9844 10.4719 13.275C10.7656 13.5656 11.2406 13.5687 11.5312 13.275L13.7812 11.025C14.075 10.7313 14.075 10.2562 13.7812 9.96562L11.5312 7.71563V7.71875Z" fill="black"/>
</svg>
