<svg width="24" height="24" viewBox="0 0 24 24" fill="none" xmlns="http://www.w3.org/2000/svg">
<path d="M19.7594 4.34676C19.4156 3.94989 18.8281 3.88426 18.4062 4.19364L11.8844 8.99989H16.4156L19.7063 5.70614C20.075 5.33739 20.1 4.74364 19.7563 4.34676H19.7594ZM5 9.99989C4.44687 9.99989 4 10.4468 4 10.9999C4 11.553 4.44687 11.9999 5 11.9999C5 14.578 6.35625 16.6155 8.87187 17.5061C8.525 17.9405 8.26562 18.453 8.125 19.0093C7.9875 19.5436 8.44688 19.9999 9 19.9999H15C15.5531 19.9999 16.0125 19.5436 15.8781 19.0093C15.7375 18.453 15.4781 17.9436 15.1313 17.5061C17.6438 16.6155 19 14.578 19 11.9999C19.5531 11.9999 20 11.553 20 10.9999C20 10.4468 19.5531 9.99989 19 9.99989H5Z" fill="black"/>
</svg>
