<svg width="24" height="24" viewBox="0 0 24 24" fill="none" xmlns="http://www.w3.org/2000/svg">
<path d="M3.21249 4.15931C2.88749 3.90306 2.41562 3.96243 2.15937 4.28743C1.90312 4.61243 1.96249 5.08431 2.28749 5.34056L20.7875 19.8406C21.1125 20.0968 21.5844 20.0374 21.8406 19.7124C22.0969 19.3874 22.0375 18.9156 21.7125 18.6593L16.7531 14.7718C17.2281 13.9593 17.5 13.0124 17.5 11.9999V10.7499C17.5 10.3343 17.1656 9.99993 16.75 9.99993C16.3344 9.99993 16 10.3343 16 10.7499V11.4999V11.9999C16 12.6624 15.8406 13.2843 15.5562 13.8343L15 13.3999V11.9999H13.2156L12.1375 11.1562C12.2281 11.0593 12.3562 10.9999 12.5 10.9999H15V9.99993H12.5C12.225 9.99993 12 9.77493 12 9.49993C12 9.22493 12.225 8.99993 12.5 8.99993H15V7.99993H12.5C12.225 7.99993 12 7.77493 12 7.49993C12 7.22493 12.225 6.99993 12.5 6.99993H15C15 5.34368 13.6562 3.99993 12 3.99993C10.3437 3.99993 8.99999 5.34368 8.99999 6.99993V8.69681L3.21249 4.15931ZM13.1937 15.8187C12.8156 15.9374 12.4156 15.9999 12 15.9999C9.79062 15.9999 7.99999 14.2093 7.99999 11.9999V11.7281L6.52187 10.5624C6.50624 10.6218 6.49999 10.6843 6.49999 10.7499V11.9999C6.49999 14.7843 8.56874 17.0843 11.25 17.4499V18.4999H9.74999C9.33437 18.4999 8.99999 18.8343 8.99999 19.2499C8.99999 19.6656 9.33437 19.9999 9.74999 19.9999H12H14.25C14.6656 19.9999 15 19.6656 15 19.2499C15 18.8343 14.6656 18.4999 14.25 18.4999H12.75V17.4499C13.3875 17.3624 13.9906 17.1656 14.5406 16.8812L13.1937 15.8218V15.8187Z" fill="black"/>
</svg>
