<svg width="24" height="24" viewBox="0 0 24 24" fill="none" xmlns="http://www.w3.org/2000/svg">
<path d="M11.6499 6.96875L12.5249 4.34062C12.5937 4.1375 12.7843 4 12.9999 4C13.2155 4 13.4062 4.1375 13.4749 4.34062L14.3499 6.96875C15.6124 7.39062 16.6093 8.3875 17.0312 9.65L19.6593 10.525C19.8624 10.5938 19.9999 10.7844 19.9999 11C19.9999 11.2156 19.8624 11.4062 19.6593 11.475L17.0312 12.35C16.6093 13.6125 15.6124 14.6094 14.3499 15.0312L13.4749 17.6594C13.4062 17.8625 13.2155 18 12.9999 18C12.7843 18 12.5937 17.8625 12.5249 17.6594L11.6499 15.0312C11.3437 14.9281 11.0562 14.7937 10.7843 14.6281L5.70615 19.7063C5.31553 20.0969 4.68115 20.0969 4.29053 19.7063C3.8999 19.3156 3.8999 18.6812 4.29053 18.2906L9.37178 13.2156C9.20615 12.9469 9.07178 12.6562 8.96865 12.35L6.34053 11.475C6.1374 11.4062 5.9999 11.2156 5.9999 11C5.9999 10.7844 6.1374 10.5938 6.34053 10.525L8.96865 9.65C9.39053 8.3875 10.3874 7.39062 11.6499 6.96875ZM12.9999 12C13.2651 12 13.5195 11.8946 13.707 11.7071C13.8945 11.5196 13.9999 11.2652 13.9999 11C13.9999 10.7348 13.8945 10.4804 13.707 10.2929C13.5195 10.1054 13.2651 10 12.9999 10C12.7347 10 12.4803 10.1054 12.2928 10.2929C12.1053 10.4804 11.9999 10.7348 11.9999 11C11.9999 11.2652 12.1053 11.5196 12.2928 11.7071C12.4803 11.8946 12.7347 12 12.9999 12Z" fill="black"/>
</svg>
