<svg width="24" height="24" viewBox="0 0 24 24" fill="none" xmlns="http://www.w3.org/2000/svg">
<path d="M2.65 4.23125C2.7125 4.09063 2.84688 4 3 4C3.15313 4 3.2875 4.09063 3.35 4.23125L3.91562 5.55313C3.97187 5.68125 4 5.82187 4 5.9625V6C4 6.55312 3.55313 7 3 7C2.44687 7 2 6.55312 2 6V5.9625C2 5.82187 2.02813 5.68438 2.08438 5.55313L2.65 4.23125ZM5.65 4.23125C5.7125 4.09063 5.84687 4 6 4C6.15312 4 6.2875 4.09063 6.35 4.23125L6.91875 5.55625C6.975 5.68437 7.00313 5.825 7.00313 5.96563V6C7.00313 6.55312 6.55625 7 6.00313 7C5.45 7 5.00312 6.55312 5.00312 6V5.9625C5.00312 5.82187 5.03125 5.68438 5.0875 5.55313L5.65 4.23125ZM8.08125 5.55625L8.65 4.23125C8.7125 4.09063 8.84688 4 9 4C9.15312 4 9.2875 4.09063 9.35 4.23125L9.91875 5.55625C9.975 5.68437 10.0031 5.825 10.0031 5.96563V6C10.0031 6.55312 9.55625 7 9.00313 7C8.45 7 8.00313 6.55312 8.00313 6V5.9625C8.00313 5.82187 8.03125 5.68438 8.0875 5.55313L8.08125 5.55625ZM11.65 4.23125C11.7125 4.09063 11.8469 4 12 4C12.1531 4 12.2875 4.09063 12.35 4.23125L12.9187 5.55625C12.975 5.68437 13.0031 5.825 13.0031 5.96563V6C13.0031 6.55312 12.5563 7 12.0031 7C11.45 7 11.0031 6.55312 11.0031 6V5.9625C11.0031 5.82187 11.0312 5.68438 11.0875 5.55313L11.65 4.23125ZM14.0813 5.55625L14.65 4.23125C14.7125 4.09063 14.8469 4 15 4C15.1531 4 15.2875 4.09063 15.35 4.23125L15.9187 5.55625C15.975 5.68437 16.0031 5.825 16.0031 5.96563V6C16.0031 6.55312 15.5563 7 15.0031 7C14.45 7 14.0031 6.55312 14.0031 6V5.9625C14.0031 5.82187 14.0312 5.68438 14.0875 5.55313L14.0813 5.55625ZM17.65 4.23125C17.7125 4.09063 17.8469 4 18 4C18.1531 4 18.2875 4.09063 18.35 4.23125L18.9188 5.55625C18.975 5.68437 19.0031 5.825 19.0031 5.96563V6C19.0031 6.55312 18.5562 7 18.0031 7C17.45 7 17.0031 6.55312 17.0031 6V5.9625C17.0031 5.82187 17.0312 5.68438 17.0875 5.55313L17.65 4.23125ZM20.0812 5.55625L20.65 4.23125C20.7125 4.09063 20.8469 4 21 4C21.1531 4 21.2875 4.09063 21.35 4.23125L21.9188 5.55625C21.975 5.68437 22.0031 5.825 22.0031 5.96563V6C22.0031 6.55312 21.5562 7 21.0031 7C20.45 7 20.0031 6.55312 20.0031 6V5.9625C20.0031 5.82187 20.0312 5.68438 20.0875 5.55313L20.0812 5.55625ZM3 8C3.55313 8 4 8.44688 4 9V13C4 13.5531 4.44688 14 5 14H11V9C11 8.44688 11.4469 8 12 8C12.5531 8 13 8.44688 13 9V14H19C19.5531 14 20 13.5531 20 13V9C20 8.44688 20.4469 8 21 8C21.5531 8 22 8.44688 22 9V13C22 14.6562 20.6562 16 19 16H13V18H17C17.5531 18 18 18.4469 18 19C18 19.5531 17.5531 20 17 20H12H7C6.44688 20 6 19.5531 6 19C6 18.4469 6.44688 18 7 18H11V16H5C3.34375 16 2 14.6562 2 13V9C2 8.44688 2.44687 8 3 8ZM6 8C6.55312 8 7 8.44688 7 9V12V13H5V12V9C5 8.44688 5.44688 8 6 8ZM9 8C9.55312 8 10 8.44688 10 9V12V13H8V12V9C8 8.44688 8.44688 8 9 8ZM15 8C15.5531 8 16 8.44688 16 9V12V13H14V12V9C14 8.44688 14.4469 8 15 8ZM18 8C18.5531 8 19 8.44688 19 9V12V13H17V12V9C17 8.44688 17.4469 8 18 8Z" fill="black"/>
</svg>
