<svg width="24" height="24" viewBox="0 0 24 24" fill="none" xmlns="http://www.w3.org/2000/svg">
<path d="M19.5968 4.19705C19.8499 4.38455 19.9999 4.68455 19.9999 5.00018V7.25018V15.5002C19.9999 16.0221 19.8062 16.5064 19.4781 16.9096L21.7124 18.6596C22.0374 18.9158 22.0968 19.3877 21.8406 19.7127C21.5843 20.0377 21.1124 20.0971 20.7874 19.8408L2.28743 5.3408C1.96243 5.08455 1.90306 4.61268 2.15931 4.28768C2.41556 3.96268 2.88743 3.9033 3.21243 4.15955L8.00306 7.9158C8.03743 7.50955 8.31556 7.16268 8.71243 7.04393L18.7124 4.04393C19.0156 3.9533 19.3437 4.00955 19.5968 4.20018V4.19705ZM11.3968 10.5752L15.1593 13.5252C15.6687 13.1971 16.3062 13.0002 16.9999 13.0002C17.3499 13.0002 17.6874 13.0502 17.9999 13.1439V8.59393L11.3968 10.5752ZM7.99993 11.7283L9.99993 13.3033V17.5002C9.99993 18.8814 8.65618 20.0002 6.99993 20.0002C5.34368 20.0002 3.99993 18.8814 3.99993 17.5002C3.99993 16.1189 5.34368 15.0002 6.99993 15.0002C7.34993 15.0002 7.68743 15.0502 7.99993 15.1439V11.7283Z" fill="black"/>
</svg>
