<svg width="24" height="24" viewBox="0 0 24 24" fill="none" xmlns="http://www.w3.org/2000/svg">
<path d="M4.33124 15.6628C5.63437 16.7909 7.70624 18.2409 9.52187 17.9659C9.71249 17.9378 9.89999 17.8878 10.0844 17.8253C9.79687 17.4409 9.54374 17.0628 9.32812 16.7191C8.64374 15.6253 8.42812 14.3691 8.51874 13.1691C7.87499 13.2972 7.29374 13.5753 6.80937 13.9628C6.60624 14.1253 6.29999 14.0034 6.34687 13.7441C6.54687 12.6972 7.37812 11.8409 8.47812 11.6722C8.55937 11.6597 8.64374 11.6503 8.72499 11.6472L9.33124 7.54407C9.39374 7.11282 9.58124 6.52219 10.1125 6.10969C10.6937 5.66282 11.7031 5.15657 13.35 5.00657C13.325 4.98469 13.3 4.96282 13.275 4.94094C12.6437 4.45344 11.0125 3.64094 7.49062 4.17532C3.96874 4.70969 2.64062 5.96907 2.17812 6.62219C1.99999 6.87219 1.97499 7.18782 2.01874 7.49407L2.77499 12.6284C2.94687 13.7941 3.44687 14.8972 4.33124 15.6659V15.6628ZM7.07187 8.80032C7.20937 8.70344 7.40937 8.73782 7.44062 8.90344C7.44374 8.91907 7.44687 8.93782 7.44999 8.95344C7.54999 9.63469 7.08749 10.2659 6.41562 10.3691C5.74374 10.4722 5.11874 10.0003 5.01874 9.32219C5.01562 9.30657 5.01562 9.28782 5.01249 9.27219C4.99374 9.10344 5.17499 9.00969 5.33437 9.06282C5.61562 9.15657 5.92187 9.18469 6.23124 9.13782C6.54062 9.09094 6.82812 8.97219 7.06874 8.80032H7.07187ZM10.175 16.1878C11.0937 17.6534 12.6594 19.6534 14.475 19.9284C16.2906 20.2034 18.3656 18.7566 19.6656 17.6253C20.55 16.8597 21.05 15.7566 21.2219 14.5878L21.9781 9.45344C22.0219 9.14719 21.9969 8.83157 21.8187 8.58157C21.3562 7.92844 20.0281 6.66907 16.5062 6.13469C12.9844 5.60032 11.3562 6.41282 10.725 6.90032C10.4812 7.08782 10.3656 7.38157 10.3219 7.68782L9.56562 12.8222C9.39374 13.9878 9.55312 15.1909 10.1781 16.1878H10.175ZM14.6406 11.3534C14.4 11.1816 14.1156 11.0628 13.8031 11.0159C13.4906 10.9691 13.1844 10.9972 12.9062 11.0909C12.7469 11.1441 12.5656 11.0503 12.5844 10.8816C12.5875 10.8659 12.5875 10.8472 12.5906 10.8316C12.6906 10.1503 13.3156 9.68157 13.9875 9.78469C14.6594 9.88782 15.1219 10.5191 15.0219 11.2003C15.0187 11.2159 15.0156 11.2347 15.0125 11.2503C14.9812 11.4159 14.7812 11.4503 14.6437 11.3534H14.6406ZM18.8969 11.8378C18.8656 12.0034 18.6656 12.0378 18.5281 11.9409C18.2875 11.7691 18.0031 11.6503 17.6906 11.6034C17.3781 11.5566 17.0719 11.5847 16.7937 11.6784C16.6344 11.7316 16.4531 11.6378 16.4719 11.4691C16.475 11.4534 16.475 11.4347 16.4781 11.4191C16.5781 10.7378 17.2031 10.2691 17.875 10.3722C18.5469 10.4753 19.0094 11.1066 18.9094 11.7878C18.9062 11.8034 18.9031 11.8222 18.9 11.8378H18.8969ZM18.5625 14.9441C17.95 16.3409 16.475 17.2097 14.9125 16.9722C13.35 16.7347 12.1906 15.4659 12.0062 13.9503C11.975 13.6909 12.2844 13.5722 12.4812 13.7409C13.2281 14.3909 14.1562 14.8441 15.2 15.0003C16.2437 15.1566 17.2656 15.0034 18.1656 14.6003C18.4031 14.4941 18.6656 14.7003 18.5594 14.9409L18.5625 14.9441Z" fill="black"/>
</svg>
