<svg width="24" height="24" viewBox="0 0 24 24" fill="none" xmlns="http://www.w3.org/2000/svg">
<path d="M15.2968 4.03756C15.4531 4.10318 15.5656 4.24381 15.5968 4.40943L16.2187 7.78131L19.5906 8.40006C19.7562 8.43131 19.8968 8.54381 19.9624 8.70006C20.0281 8.85631 20.0093 9.03443 19.9124 9.17506L17.9656 12.0001L19.9124 14.8219C20.0093 14.9626 20.0281 15.1407 19.9624 15.2969C19.8968 15.4532 19.7562 15.5657 19.5906 15.5969L16.2187 16.2188L15.5968 19.5907C15.5656 19.7563 15.4531 19.8969 15.2968 19.9626C15.1406 20.0282 14.9624 20.0094 14.8218 19.9126L11.9999 17.9657L9.17806 19.9126C9.03744 20.0094 8.85931 20.0282 8.70306 19.9626C8.54681 19.8969 8.43431 19.7563 8.40306 19.5907L7.78119 16.2188L4.40931 15.5969C4.24369 15.5657 4.10306 15.4532 4.03744 15.2969C3.97181 15.1407 3.99056 14.9626 4.08744 14.8219L6.03431 12.0001L4.08744 9.17818C3.99056 9.03756 3.97181 8.85943 4.03744 8.70318C4.10306 8.54693 4.24369 8.43443 4.40931 8.40318L7.78119 7.78131L8.40306 4.40943C8.43431 4.24381 8.54681 4.10318 8.70306 4.03756C8.85931 3.97193 9.03744 3.99068 9.17806 4.08756L11.9999 6.03443L14.8218 4.08756C14.9624 3.99068 15.1406 3.97193 15.2968 4.03756ZM16.4999 12.0001C16.4999 10.8066 16.0258 9.66199 15.1819 8.81808C14.338 7.97416 13.1934 7.50006 11.9999 7.50006C10.8065 7.50006 9.66187 7.97416 8.81796 8.81808C7.97404 9.66199 7.49994 10.8066 7.49994 12.0001C7.49994 13.1935 7.97404 14.3381 8.81796 15.182C9.66187 16.026 10.8065 16.5001 11.9999 16.5001C13.1934 16.5001 14.338 16.026 15.1819 15.182C16.0258 14.3381 16.4999 13.1935 16.4999 12.0001ZM8.43744 12.0001C8.43744 10.0282 10.0499 8.43756 12.0312 8.43756C12.1343 8.43756 12.2343 8.44068 12.3343 8.45006C12.5531 8.46881 12.7343 8.62818 12.7812 8.84381C12.8281 9.05943 12.7281 9.27818 12.5374 9.38756C11.8218 9.78756 11.3406 10.5469 11.3406 11.4126C11.3406 12.6938 12.3906 13.7407 13.6968 13.7407C13.8343 13.7407 13.9718 13.7282 14.1031 13.7063C14.3187 13.6688 14.5343 13.7782 14.6343 13.9751C14.7343 14.1719 14.6937 14.4094 14.5343 14.5594C13.8874 15.1813 13.0031 15.5657 12.0312 15.5657C10.0499 15.5657 8.43744 13.9751 8.43744 12.0032V12.0001Z" fill="black"/>
</svg>
