<svg width="24" height="24" viewBox="0 0 24 24" fill="none" xmlns="http://www.w3.org/2000/svg">
<path d="M2 6C2 4.89688 2.89688 4 4 4H13C14.1031 4 15 4.89688 15 6V12C15 13.1031 14.1031 14 13 14H8.33437L5.8 15.9C5.65 16.0125 5.44688 16.0312 5.275 15.9469C5.10313 15.8625 5 15.6906 5 15.5V14H4C2.89688 14 2 13.1031 2 12V6ZM10 15H13C14.6562 15 16 13.6562 16 12V8H20C21.1031 8 22 8.89688 22 10V16C22 17.1031 21.1031 18 20 18H19V19.5C19 19.6906 18.8938 19.8625 18.725 19.9469C18.5563 20.0312 18.3531 20.0125 18.2 19.9L15.6656 18H12C10.8969 18 10 17.1031 10 16V15ZM6.25625 6.8875L6.24375 6.91875C6.12813 7.24375 6.3 7.6 6.625 7.71563C6.95 7.83125 7.30625 7.65937 7.42188 7.33437L7.43437 7.30312C7.4625 7.21875 7.54375 7.16563 7.63125 7.16563H9.14687C9.36562 7.16563 9.54063 7.34375 9.54063 7.55938C9.54063 7.7 9.46563 7.83125 9.34375 7.9L8.1875 8.56563C7.99375 8.67813 7.875 8.88437 7.875 9.10625V9.45625C7.875 9.8 8.15625 10.0813 8.5 10.0813C8.84062 10.0813 9.11875 9.80625 9.125 9.46875L9.96562 8.9875C10.475 8.69375 10.7906 8.15 10.7906 7.5625C10.7906 6.65312 10.0531 5.91875 9.14687 5.91875H7.63125C7.0125 5.91875 6.4625 6.30625 6.25625 6.89062V6.8875ZM9.33437 11.75C9.34134 11.6363 9.32497 11.5225 9.28627 11.4154C9.24756 11.3083 9.18735 11.2102 9.10933 11.1273C9.03132 11.0444 8.93715 10.9783 8.83262 10.9331C8.7281 10.8879 8.61543 10.8646 8.50156 10.8646C8.38769 10.8646 8.27503 10.8879 8.1705 10.9331C8.06598 10.9783 7.97181 11.0444 7.89379 11.1273C7.81578 11.2102 7.75556 11.3083 7.71686 11.4154C7.67816 11.5225 7.66178 11.6363 7.66875 11.75C7.66178 11.8637 7.67816 11.9775 7.71686 12.0846C7.75556 12.1917 7.81578 12.2898 7.89379 12.3727C7.97181 12.4556 8.06598 12.5217 8.1705 12.5669C8.27503 12.6121 8.38769 12.6354 8.50156 12.6354C8.61543 12.6354 8.7281 12.6121 8.83262 12.5669C8.93715 12.5217 9.03132 12.4556 9.10933 12.3727C9.18735 12.2898 9.24756 12.1917 9.28627 12.0846C9.32497 11.9775 9.34134 11.8637 9.33437 11.75Z" fill="black"/>
</svg>
