<svg width="24" height="24" viewBox="0 0 24 24" fill="none" xmlns="http://www.w3.org/2000/svg">
<path d="M20 5C20.5531 5 21 5.44687 21 6V18C21 18.5531 20.5531 19 20 19C19.4469 19 19 18.5531 19 18V6C19 5.44687 19.4469 5 20 5ZM5 9.94688L18 6V18L13.9031 16.7563C13.5687 18.0469 12.3969 19 11 19C9.34375 19 8 17.6562 8 16C8 15.6562 8.05938 15.3219 8.16563 15.0156L5 14.0531C4.97187 14.5813 4.53437 15 4 15C3.44687 15 3 14.5531 3 14V10C3 9.44688 3.44687 9 4 9C4.53437 9 4.97187 9.41875 5 9.94688ZM12.4688 16.3188L9.60625 15.45C9.54062 15.6187 9.50313 15.8062 9.50313 16C9.50313 16.8281 10.175 17.5 11.0031 17.5C11.7219 17.5 12.3219 16.9938 12.4688 16.3188Z" fill="black"/>
</svg>
