<svg width="24" height="24" viewBox="0 0 24 24" fill="none" xmlns="http://www.w3.org/2000/svg">
<path d="M12.25 5.75C12.25 5.33437 12.5844 5 13 5H14.2906C15.0344 5 15.7 5.47187 15.9438 6.175L16.1969 6.90313L17.7906 6.10625C17.9281 6.0375 18.0812 6 18.2375 6H18.5C18.775 6 19 6.225 19 6.5V8.5C19 8.775 18.775 9 18.5 9H18.2375C18.0812 9 17.9281 8.9625 17.7906 8.89375L16.7 8.34688L17.625 11.0125C17.75 11.0031 17.875 11 18 11C19.3656 11 20.6031 11.5469 21.5031 12.4312C21.8 12.7219 21.8031 13.1969 21.5125 13.4906C21.2219 13.7844 20.7469 13.7906 20.4531 13.5C19.8188 12.8813 18.9563 12.5 18 12.5C16.2781 12.5 14.8438 13.7437 14.5531 15.3844C14.4906 15.7437 14.1781 16.0031 13.8156 16.0031H12.5C12.4719 16.0031 12.4469 16.0031 12.4187 16H10C10 17.6562 8.65625 19 7 19C5.34375 19 4 17.6562 4 16H3C2.44687 16 2 15.5531 2 15V14C2 11.7906 3.79063 10 6 10H9C9.55313 10 10 10.4469 10 11V13C10 13.5531 10.4469 14 11 14H13.4156C13.9406 12.7969 14.9281 11.8375 16.1531 11.3531L14.525 6.66875C14.4906 6.56875 14.3938 6.5 14.2875 6.5H13C12.5844 6.5 12.25 6.16563 12.25 5.75ZM6 7H9C9.55313 7 10 7.44687 10 8C10 8.55313 9.55313 9 9 9H6C5.44687 9 5 8.55313 5 8C5 7.44687 5.44687 7 6 7ZM7 17.5C7.82812 17.5 8.5 16.8281 8.5 16H5.5C5.5 16.8281 6.17188 17.5 7 17.5ZM18 17.5C18.3978 17.5 18.7794 17.342 19.0607 17.0607C19.342 16.7794 19.5 16.3978 19.5 16C19.5 15.6022 19.342 15.2206 19.0607 14.9393C18.7794 14.658 18.3978 14.5 18 14.5C17.6022 14.5 17.2206 14.658 16.9393 14.9393C16.658 15.2206 16.5 15.6022 16.5 16C16.5 16.3978 16.658 16.7794 16.9393 17.0607C17.2206 17.342 17.6022 17.5 18 17.5ZM18 13C18.7956 13 19.5587 13.3161 20.1213 13.8787C20.6839 14.4413 21 15.2044 21 16C21 16.7956 20.6839 17.5587 20.1213 18.1213C19.5587 18.6839 18.7956 19 18 19C17.2044 19 16.4413 18.6839 15.8787 18.1213C15.3161 17.5587 15 16.7956 15 16C15 15.2044 15.3161 14.4413 15.8787 13.8787C16.4413 13.3161 17.2044 13 18 13Z" fill="black"/>
</svg>
