<svg width="24" height="24" viewBox="0 0 24 24" fill="none" xmlns="http://www.w3.org/2000/svg">
<path d="M10 20C12.3031 20 14.3781 19.0281 15.8375 17.4688L16.0719 17H15.5C14.8625 17 14.2969 16.5969 14.0844 15.9969C13.8719 15.3969 14.0656 14.7281 14.5625 14.3281L17.9875 11.5875C17.775 7.35938 14.2812 4 10 4C5.58125 4 2 7.58125 2 12C2 16.4187 5.58125 20 10 20ZM8 9V10C8 10.5531 7.55313 11 7 11C6.44687 11 6 10.5531 6 10V9C6 8.44687 6.44687 8 7 8C7.55313 8 8 8.44687 8 9ZM11 9V10C11 10.5531 10.5531 11 10 11C9.44687 11 9 10.5531 9 10V9C9 8.44687 9.44687 8 10 8C10.5531 8 11 8.44687 11 9ZM14 9V10C14 10.5531 13.5531 11 13 11C12.4469 11 12 10.5531 12 10V9C12 8.44687 12.4469 8 13 8C13.5531 8 14 8.44687 14 9ZM20.8156 11.1125C20.6344 10.9656 20.3719 10.9656 20.1875 11.1094L15.1875 15.1094C15.0219 15.2406 14.9562 15.4656 15.0281 15.6656C15.1 15.8656 15.2875 16 15.5 16H17.6906L16.0531 19.275C15.9469 19.4844 16.0031 19.7406 16.1875 19.8875C16.3719 20.0344 16.6313 20.0344 16.8156 19.8906L21.8156 15.8906C21.9812 15.7594 22.0469 15.5344 21.975 15.3344C21.9031 15.1344 21.7156 15 21.5031 15H19.3094L20.9469 11.725C21.0531 11.5156 20.9969 11.2594 20.8156 11.1125Z" fill="black"/>
</svg>
