<svg width="24" height="24" viewBox="0 0 24 24" fill="none" xmlns="http://www.w3.org/2000/svg">
<path d="M19.7594 4.34688C19.4156 3.95001 18.8281 3.88438 18.4062 4.19376L11.8844 9.00001H16.4156L19.7063 5.70626C20.075 5.33751 20.1 4.74376 19.7563 4.34688H19.7594ZM5 10C4.44687 10 4 10.4469 4 11C4 11.5531 4.44687 12 5 12C5 14.5781 6.35625 16.6156 8.87187 17.5063C8.525 17.9406 8.26562 18.4531 8.125 19.0094C7.9875 19.5438 8.44688 20 9 20H15C15.5531 20 16.0125 19.5438 15.8781 19.0094C15.7375 18.4531 15.4781 17.9438 15.1313 17.5063C17.6438 16.6156 19 14.5781 19 12C19.5531 12 20 11.5531 20 11C20 10.4469 19.5531 10 19 10H5Z" fill="black"/>
</svg>
