<svg width="24" height="24" viewBox="0 0 24 24" fill="none" xmlns="http://www.w3.org/2000/svg">
<path d="M8.25312 4.21873C8.68125 3.87498 9.3125 3.94373 9.65625 4.37498C10.2063 5.06248 11.0531 5.49998 12 5.49998C12.9469 5.49998 13.7906 5.06248 14.3438 4.37498C14.6906 3.94373 15.3187 3.87498 15.75 4.21873C16.1813 4.56248 16.25 5.19373 15.9062 5.62498C15.6625 5.9281 15.3875 6.19998 15.0813 6.4406C16.5406 7.4281 17.5 9.1031 17.5 11C17.5 13.7844 15.4313 16.0844 12.75 16.45V17.25H13.75C14.1656 17.25 14.5 17.5844 14.5 18C14.5 18.4156 14.1656 18.75 13.75 18.75H12.75V19.25C12.75 19.6656 12.4156 20 12 20C11.5844 20 11.25 19.6656 11.25 19.25V18.75H10.25C9.83437 18.75 9.5 18.4156 9.5 18C9.5 17.5844 9.83437 17.25 10.25 17.25H11.25V16.45C8.56875 16.0844 6.5 13.7844 6.5 11C6.5 9.1031 7.45938 7.4281 8.92188 6.4406C8.61562 6.2031 8.34062 5.9281 8.09687 5.62498C7.75 5.19373 7.82187 4.5656 8.25312 4.21873ZM8.5 11C8.5 11.4596 8.59053 11.9147 8.76642 12.3394C8.94231 12.764 9.20012 13.1498 9.52513 13.4749C9.85013 13.7999 10.236 14.0577 10.6606 14.2336C11.0852 14.4094 11.5404 14.5 12 14.5C12.4596 14.5 12.9148 14.4094 13.3394 14.2336C13.764 14.0577 14.1499 13.7999 14.4749 13.4749C14.7999 13.1498 15.0577 12.764 15.2336 12.3394C15.4095 11.9147 15.5 11.4596 15.5 11C15.5 10.5404 15.4095 10.0852 15.2336 9.66058C15.0577 9.23595 14.7999 8.85011 14.4749 8.5251C14.1499 8.2001 13.764 7.94229 13.3394 7.7664C12.9148 7.59051 12.4596 7.49998 12 7.49998C11.5404 7.49998 11.0852 7.59051 10.6606 7.7664C10.236 7.94229 9.85013 8.2001 9.52513 8.5251C9.20012 8.85011 8.94231 9.23595 8.76642 9.66058C8.59053 10.0852 8.5 10.5404 8.5 11Z" fill="black"/>
</svg>
