<svg width="24" height="24" viewBox="0 0 24 24" fill="none" xmlns="http://www.w3.org/2000/svg">
<path d="M19.5968 4.19681C19.8499 4.38431 19.9999 4.68431 19.9999 4.99993V7.24993V15.4999C19.9999 16.0218 19.8062 16.5062 19.4781 16.9093L21.7124 18.6593C22.0374 18.9156 22.0968 19.3874 21.8406 19.7124C21.5843 20.0374 21.1124 20.0968 20.7874 19.8406L2.28743 5.34056C1.96243 5.08431 1.90306 4.61243 2.15931 4.28743C2.41556 3.96243 2.88743 3.90306 3.21243 4.15931L8.00306 7.91556C8.03743 7.50931 8.31556 7.16243 8.71243 7.04368L18.7124 4.04368C19.0156 3.95306 19.3437 4.00931 19.5968 4.19993V4.19681ZM11.3968 10.5749L15.1593 13.5249C15.6687 13.1968 16.3062 12.9999 16.9999 12.9999C17.3499 12.9999 17.6874 13.0499 17.9999 13.1437V8.59368L11.3968 10.5749ZM7.99993 11.7281L9.99993 13.3031V17.4999C9.99993 18.8812 8.65618 19.9999 6.99993 19.9999C5.34368 19.9999 3.99993 18.8812 3.99993 17.4999C3.99993 16.1187 5.34368 14.9999 6.99993 14.9999C7.34993 14.9999 7.68743 15.0499 7.99993 15.1437V11.7281Z" fill="black"/>
</svg>
