<svg width="24" height="24" viewBox="0 0 24 24" fill="none" xmlns="http://www.w3.org/2000/svg">
<path d="M18.9748 5.02422C17.6092 3.65859 15.3904 3.65859 14.0248 5.02422L13.8779 5.17109L18.8279 10.1211L18.9748 9.97422C20.3404 8.60859 20.3404 6.38984 18.9748 5.02422ZM13.1717 5.87734L13.0248 6.02422C12.2623 6.78672 11.9248 7.81172 12.0123 8.80547L15.1935 11.9867C16.1873 12.0742 17.2123 11.7367 17.9748 10.9742L18.1217 10.8273L13.1717 5.87734ZM11.1592 9.36484L10.7435 9.84297L4.24355 17.343C3.8998 17.7398 3.92167 18.3336 4.29355 18.7055L5.29355 19.7055C5.66542 20.0773 6.25917 20.0992 6.65605 19.7555L10.9998 15.9898V18.9992C10.9998 19.5523 11.4467 19.9992 11.9998 19.9992C12.5529 19.9992 12.9998 19.5523 12.9998 18.9992V14.2555L14.156 13.2555L14.6342 12.8398L11.1592 9.36484Z" fill="black"/>
</svg>
