<svg width="24" height="24" viewBox="0 0 24 24" fill="none" xmlns="http://www.w3.org/2000/svg">
<path d="M8 17C8 14.1969 9.91875 11.8438 12.5156 11.1844C13.2844 12.2812 14.5594 13 16 13C16.3062 13 16.6063 12.9688 16.8969 12.9062L19.4531 15.3438C20.4406 16.2875 21 17.5938 21 18.9594V19C21 19.5531 20.5531 20 20 20C19.4469 20 19 19.5531 19 19V18.9625C19 18.1437 18.6656 17.3594 18.0719 16.7937L16 14.8156V18H17C17.5531 18 18 18.4469 18 19C18 19.5531 17.5531 20 17 20H16H8C5.2375 20 3 17.7625 3 15V7.44062C3 5.54062 4.54062 4 6.44062 4H6.76562C8.55312 4 9.97813 5.49375 9.89375 7.27813C9.82188 8.78438 8.6875 10.0281 7.19375 10.2344L7.13438 10.2438C6.5875 10.3187 6.08125 9.9375 6.00625 9.39062C5.93125 8.84375 6.3125 8.3375 6.85938 8.2625L6.91875 8.25313C7.45937 8.17813 7.86875 7.73125 7.89375 7.18438C7.925 6.54063 7.40938 6 6.7625 6H6.44062C5.64687 6 5 6.64687 5 7.44062V15C5 16.6562 6.34375 18 8 18V17ZM16 12C15.0844 12 14.2531 11.6188 13.6625 11.0094C13.3813 10.7188 13.1562 10.3781 12.9969 10C11.8938 10 10.9969 9.10313 10.9969 8C10.9969 6.89687 11.8906 6 12.9969 6C13.4875 4.825 14.6469 4 15.9969 4C17.3469 4 18.5094 4.825 18.9969 6C20.1 6 20.9969 6.89687 20.9969 8C20.9969 9.10313 20.1031 10 18.9969 10C18.5062 11.175 17.3469 12 15.9969 12H16ZM15 6C14.1719 6 13.5 6.67188 13.5 7.5C13.5 8.15 13.9125 8.7 14.4875 8.90938C14.6344 8.9625 14.75 9.09375 14.75 9.25C14.75 9.94063 15.3094 10.5 16 10.5C16.6906 10.5 17.25 9.94063 17.25 9.25C17.25 9.09375 17.3656 8.9625 17.5125 8.90938C18.0906 8.7 18.5 8.14687 18.5 7.5C18.5 6.67188 17.8281 6 17 6H15ZM15 7C15.1326 7 15.2598 7.05268 15.3536 7.14645C15.4473 7.24021 15.5 7.36739 15.5 7.5C15.5 7.63261 15.4473 7.75979 15.3536 7.85355C15.2598 7.94732 15.1326 8 15 8C14.8674 8 14.7402 7.94732 14.6464 7.85355C14.5527 7.75979 14.5 7.63261 14.5 7.5C14.5 7.36739 14.5527 7.24021 14.6464 7.14645C14.7402 7.05268 14.8674 7 15 7ZM16.5 7.5C16.5 7.36739 16.5527 7.24021 16.6464 7.14645C16.7402 7.05268 16.8674 7 17 7C17.1326 7 17.2598 7.05268 17.3536 7.14645C17.4473 7.24021 17.5 7.36739 17.5 7.5C17.5 7.63261 17.4473 7.75979 17.3536 7.85355C17.2598 7.94732 17.1326 8 17 8C16.8674 8 16.7402 7.94732 16.6464 7.85355C16.5527 7.75979 16.5 7.63261 16.5 7.5Z" fill="black"/>
</svg>
