<svg width="24" height="24" viewBox="0 0 24 24" fill="none" xmlns="http://www.w3.org/2000/svg">
<path d="M19.5969 4.19685C19.85 4.38435 20 4.68435 20 4.99998V7.24998V15.5C20 16.8812 18.6562 18 17 18C15.3438 18 14 16.8812 14 15.5C14 14.1187 15.3438 13 17 13C17.35 13 17.6875 13.05 18 13.1437V8.59373L10 10.9937V17.5C10 18.8812 8.65625 20 7 20C5.34375 20 4 18.8812 4 17.5C4 16.1187 5.34375 15 7 15C7.35 15 7.6875 15.05 8 15.1437V10.25V7.99998C8 7.55935 8.29063 7.16873 8.7125 7.0406L18.7125 4.0406C19.0156 3.94998 19.3438 4.00623 19.5969 4.19685Z" fill="black"/>
</svg>
