<svg width="24" height="24" viewBox="0 0 24 24" fill="none" xmlns="http://www.w3.org/2000/svg">
<path d="M3.21243 4.15955C2.88743 3.9033 2.41556 3.96268 2.15931 4.28768C1.90306 4.61268 1.96243 5.08455 2.28743 5.3408L20.7874 19.8408C21.1124 20.0971 21.5843 20.0377 21.8406 19.7127C22.0968 19.3877 22.0374 18.9158 21.7124 18.6596L19.1406 16.6439C19.6593 16.2814 19.9999 15.6814 19.9999 15.0002V6.00018C19.9999 4.89705 19.1031 4.00018 17.9999 4.00018H5.99993C5.26243 4.00018 4.61868 4.39705 4.27181 4.9908L3.21243 4.15955ZM14.6937 17.0002L3.99993 8.57518V15.0002C3.99993 16.1033 4.89681 17.0002 5.99993 17.0002H8.99993V19.5002C8.99993 19.6908 9.10618 19.8627 9.27493 19.9471C9.44368 20.0314 9.64681 20.0127 9.79993 19.9002L13.6656 17.0002H14.6906H14.6937Z" fill="black"/>
</svg>
