<svg width="24" height="24" viewBox="0 0 24 24" fill="none" xmlns="http://www.w3.org/2000/svg">
<path d="M18.7188 5.28126C18.425 4.98751 18.425 4.51251 18.7188 4.22189C19.0125 3.93126 19.4875 3.92814 19.7781 4.22189L21.7781 6.22189C21.9188 6.36251 21.9969 6.55314 21.9969 6.75314C21.9969 6.95314 21.9188 7.14376 21.7781 7.28439L19.7781 9.28439C19.4844 9.57814 19.0094 9.57814 18.7188 9.28439C18.4281 8.99064 18.425 8.51564 18.7188 8.22501L19.4375 7.50626L14 7.50001C13.5844 7.50001 13.25 7.16564 13.25 6.75001C13.25 6.33439 13.5844 6.00001 14 6.00001H19.4406L18.7188 5.28126ZM5.28125 15.7813L4.5625 16.5H10C10.4156 16.5 10.75 16.8344 10.75 17.25C10.75 17.6656 10.4156 18 10 18H4.55938L5.27813 18.7188C5.57188 19.0125 5.57188 19.4875 5.27813 19.7781C4.98438 20.0688 4.50938 20.0719 4.21875 19.7781L2.21875 17.7813C2.07812 17.6406 2 17.45 2 17.25C2 17.05 2.07812 16.8594 2.21875 16.7188L4.21875 14.7188C4.5125 14.425 4.9875 14.425 5.27813 14.7188C5.56875 15.0125 5.57188 15.4875 5.27813 15.7781L5.28125 15.7813ZM5 6.00001H12.5594C12.4437 6.22501 12.375 6.47814 12.375 6.75001C12.375 7.64689 13.1031 8.37501 14 8.37501H17.6687C17.5437 8.90626 17.6875 9.48439 18.1 9.90001C18.7344 10.5344 19.7625 10.5344 20.3969 9.90001L21 9.29689V16C21 17.1031 20.1031 18 19 18H11.4406C11.5563 17.775 11.625 17.5219 11.625 17.25C11.625 16.3531 10.8969 15.625 10 15.625H6.33125C6.45625 15.0938 6.3125 14.5156 5.9 14.1C5.26563 13.4656 4.2375 13.4656 3.60312 14.1L3 14.7031V8.00001C3 6.89689 3.89688 6.00001 5 6.00001ZM7 8.00001H5V10C6.10312 10 7 9.10314 7 8.00001ZM19 14C17.8969 14 17 14.8969 17 16H19V14ZM12 15C12.7956 15 13.5587 14.6839 14.1213 14.1213C14.6839 13.5587 15 12.7957 15 12C15 11.2044 14.6839 10.4413 14.1213 9.87869C13.5587 9.31608 12.7956 9.00001 12 9.00001C11.2044 9.00001 10.4413 9.31608 9.87868 9.87869C9.31607 10.4413 9 11.2044 9 12C9 12.7957 9.31607 13.5587 9.87868 14.1213C10.4413 14.6839 11.2044 15 12 15Z" fill="black"/>
</svg>
