<svg width="24" height="24" viewBox="0 0 24 24" fill="none" xmlns="http://www.w3.org/2000/svg">
<path d="M2 8C2 6.89688 2.89688 6 4 6H18C19.1031 6 20 6.89688 20 8V10.0188C19.525 10.0813 19.0687 10.2938 18.7062 10.6594L13.0406 16.3219C12.7844 16.5781 12.6031 16.9 12.5156 17.25L12.3281 17.9969H4C2.89688 17.9969 2 17.1 2 15.9969V8ZM10 13.5C10 13.775 10.225 14 10.5 14H12.5C12.775 14 13 13.775 13 13.5C13 13.225 12.775 13 12.5 13H10.5C10.225 13 10 13.225 10 13.5ZM10.5 10C10.225 10 10 10.225 10 10.5C10 10.775 10.225 11 10.5 11H15.5C15.775 11 16 10.775 16 10.5C16 10.225 15.775 10 15.5 10H10.5ZM6.5 8.125C6.15625 8.125 5.875 8.40625 5.875 8.75V9.1875C5.6375 9.24062 5.4 9.325 5.18125 9.45312C4.74688 9.7125 4.37188 10.1656 4.375 10.825C4.37812 11.4594 4.75 11.8594 5.14687 12.0969C5.49062 12.3031 5.91875 12.4344 6.25938 12.5344L6.3125 12.55C6.70625 12.6688 6.99375 12.7625 7.1875 12.8844C7.34688 12.9844 7.36875 13.0531 7.37187 13.1406C7.375 13.2969 7.31563 13.3906 7.1875 13.4688C7.03125 13.5656 6.78438 13.625 6.51875 13.6156C6.17188 13.6031 5.84687 13.4938 5.42188 13.35C5.35 13.325 5.275 13.3 5.19688 13.275C4.86875 13.1656 4.51562 13.3438 4.40625 13.6687C4.29688 13.9937 4.475 14.35 4.8 14.4594C4.85938 14.4781 4.925 14.5 4.99062 14.525C5.25 14.6156 5.55 14.7188 5.87188 14.7875V15.25C5.87188 15.5938 6.15312 15.875 6.49687 15.875C6.84062 15.875 7.12187 15.5938 7.12187 15.25V14.8188C7.37187 14.7656 7.62188 14.6781 7.84688 14.5375C8.29375 14.2594 8.63125 13.7844 8.62187 13.1313C8.6125 12.4969 8.25625 12.0875 7.85313 11.8313C7.49375 11.6063 7.04375 11.4688 6.69375 11.3625L6.67188 11.3562C6.27187 11.2344 5.9875 11.1469 5.7875 11.0281C5.625 10.9312 5.62188 10.875 5.62188 10.8187C5.62188 10.7031 5.66562 10.6156 5.81562 10.5281C5.98438 10.4281 6.24063 10.3687 6.4875 10.3719C6.7875 10.375 7.11875 10.4406 7.4625 10.5344C7.79688 10.6219 8.1375 10.425 8.22813 10.0906C8.31875 9.75625 8.11875 9.41562 7.78438 9.325C7.58125 9.27187 7.35625 9.21875 7.125 9.17812V8.75C7.125 8.40625 6.84375 8.125 6.5 8.125ZM21.1812 11.3656L21.6313 11.8156C22.1187 12.3031 22.1187 13.0938 21.6313 13.5844L20.7125 14.5031L18.4937 12.2844L19.4125 11.3656C19.9 10.8781 20.6906 10.8781 21.1812 11.3656ZM13.7469 17.0312L17.7844 12.9937L20.0031 15.2125L15.9656 19.2469C15.8375 19.375 15.6781 19.4656 15.5 19.5094L13.6219 19.9781C13.45 20.0219 13.2719 19.9719 13.1469 19.8469C13.0219 19.7219 12.9719 19.5437 13.0156 19.3719L13.4844 17.4937C13.5281 17.3187 13.6187 17.1562 13.7469 17.0281V17.0312Z" fill="black"/>
</svg>
