<svg width="24" height="24" viewBox="0 0 24 24" fill="none" xmlns="http://www.w3.org/2000/svg">
<path d="M16.4906 19.8093C16.7969 19.5312 16.825 19.05 16.5562 18.7375L15.2406 17.2062V15.4968C15.2406 15.325 15.1844 15.1593 15.0813 15.025L13 12.3218V12.3125L17.1687 16.1187C18.95 17.9875 22 16.6625 22 14.0187C22 12.5218 20.9375 11.2593 19.5187 11.075L14.7375 10.3281L16.0125 9.04996C16.2562 8.80621 16.3062 8.42183 16.1344 8.11871L15.3906 6.81558L16.5844 5.22496C16.8344 4.89371 16.775 4.41558 16.45 4.15933C16.125 3.90308 15.6625 3.96246 15.4125 4.29683L13.9125 6.29371C13.7281 6.54058 13.7062 6.87496 13.8594 7.14371L14.5688 8.37496L13 9.94683V8.75308C13 8.28746 12.6813 7.89683 12.25 7.78433V5.99683C12.25 5.85933 12.1375 5.74683 12 5.74683C11.8625 5.74683 11.75 5.85933 11.75 5.99683V7.78433C11.3187 7.89683 11 8.28746 11 8.75308V9.94371L9.43125 8.37496L10.1375 7.14058C10.2906 6.87183 10.2688 6.53746 10.0844 6.29058L8.58437 4.29371C8.33437 3.96246 7.87187 3.89996 7.54688 4.15621C7.22188 4.41246 7.16562 4.89058 7.4125 5.22183L8.60625 6.81246L7.85938 8.11558C7.6875 8.41871 7.7375 8.80308 7.98125 9.04683L9.25625 10.325L4.475 11.0718C3.0625 11.2593 2 12.5218 2 14.0187C2 16.6625 5.05 17.9875 6.83125 16.1156L11 12.3125V12.3218L8.92188 15.0218C8.81875 15.1562 8.7625 15.3218 8.7625 15.4937V17.2031L7.44688 18.7343C7.17813 19.05 7.20625 19.5312 7.5125 19.8062C7.81875 20.0812 8.28438 20.0531 8.55625 19.7406L10.0562 17.9937C10.175 17.8562 10.2406 17.675 10.2406 17.4906V15.7593L11 14.7718V16.7437C11 17.2968 11.4469 17.7437 12 17.7437C12.5531 17.7437 13 17.2968 13 16.7437V14.7718L13.7594 15.7593V17.4906C13.7594 17.675 13.825 17.8562 13.9438 17.9937L15.4438 19.7406C15.7125 20.0562 16.1813 20.0843 16.4875 19.8062L16.4906 19.8093Z" fill="black"/>
</svg>
