<svg width="24" height="24" viewBox="0 0 24 24" fill="none" xmlns="http://www.w3.org/2000/svg">
<path d="M4 6C4 4.89688 4.89688 4 6 4H18C19.1031 4 20 4.89688 20 6V15C20 16.1031 19.1031 17 18 17H13.6656L9.8 19.9C9.65 20.0125 9.44688 20.0312 9.275 19.9469C9.10313 19.8625 9 19.6906 9 19.5V17H6C4.89688 17 4 16.1031 4 15V6ZM10 9.5C10.2652 9.5 10.5196 9.39464 10.7071 9.20711C10.8946 9.01957 11 8.76522 11 8.5C11 8.23478 10.8946 7.98043 10.7071 7.79289C10.5196 7.60536 10.2652 7.5 10 7.5C9.73478 7.5 9.48043 7.60536 9.29289 7.79289C9.10536 7.98043 9 8.23478 9 8.5C9 8.76522 9.10536 9.01957 9.29289 9.20711C9.48043 9.39464 9.73478 9.5 10 9.5ZM14 9.5C14.2652 9.5 14.5196 9.39464 14.7071 9.20711C14.8946 9.01957 15 8.76522 15 8.5C15 8.23478 14.8946 7.98043 14.7071 7.79289C14.5196 7.60536 14.2652 7.5 14 7.5C13.7348 7.5 13.4804 7.60536 13.2929 7.79289C13.1054 7.98043 13 8.23478 13 8.5C13 8.76522 13.1054 9.01957 13.2929 9.20711C13.4804 9.39464 13.7348 9.5 14 9.5ZM8.70312 11.4406C8.39375 11.7156 8.36875 12.1906 8.64375 12.5C9.46563 13.4187 10.6656 14 11.9969 14C13.3281 14 14.5281 13.4187 15.35 12.5C15.625 12.1906 15.6 11.7188 15.2906 11.4406C14.9812 11.1625 14.5094 11.1906 14.2312 11.5C13.6812 12.1156 12.8844 12.5 11.9938 12.5C11.1031 12.5 10.3094 12.1156 9.75625 11.5C9.48125 11.1906 9.00625 11.1656 8.69688 11.4406H8.70312Z" fill="black"/>
</svg>
