<svg width="24" height="24" viewBox="0 0 24 24" fill="none" xmlns="http://www.w3.org/2000/svg">
<path d="M17 10.5C17 11.9344 16.5344 13.2594 15.75 14.3344L19.7063 18.2937C20.0969 18.6844 20.0969 19.3188 19.7063 19.7094C19.3156 20.1 18.6812 20.1 18.2906 19.7094L14.3344 15.75C13.2594 16.5375 11.9344 17 10.5 17C6.90937 17 4 14.0906 4 10.5C4 6.90937 6.90937 4 10.5 4C14.0906 4 17 6.90937 17 10.5ZM11.25 7.75C11.25 7.33437 10.9156 7 10.5 7C10.0844 7 9.75 7.33437 9.75 7.75V13.25C9.75 13.6656 10.0844 14 10.5 14C10.9156 14 11.25 13.6656 11.25 13.25V7.75ZM8.5 8.75C8.5 8.33437 8.16563 8 7.75 8C7.33437 8 7 8.33437 7 8.75V12.25C7 12.6656 7.33437 13 7.75 13C8.16563 13 8.5 12.6656 8.5 12.25V8.75ZM14 9.75C14 9.33437 13.6656 9 13.25 9C12.8344 9 12.5 9.33437 12.5 9.75V11.25C12.5 11.6656 12.8344 12 13.25 12C13.6656 12 14 11.6656 14 11.25V9.75Z" fill="black"/>
</svg>
