<svg width="24" height="24" viewBox="0 0 24 24" fill="none" xmlns="http://www.w3.org/2000/svg">
<path d="M15.2969 4.03756C15.4531 4.10318 15.5656 4.24381 15.5969 4.40943L16.2187 7.78131L19.5906 8.40006C19.7562 8.43131 19.8969 8.54381 19.9625 8.70006C20.0281 8.85631 20.0094 9.03443 19.9125 9.17506L17.9656 12.0001L19.9125 14.8219C20.0094 14.9626 20.0281 15.1407 19.9625 15.2969C19.8969 15.4532 19.7562 15.5657 19.5906 15.5969L16.2187 16.2188L15.5969 19.5907C15.5656 19.7563 15.4531 19.8969 15.2969 19.9626C15.1406 20.0282 14.9625 20.0094 14.8219 19.9126L12 17.9657L9.17812 19.9126C9.0375 20.0094 8.85937 20.0282 8.70312 19.9626C8.54687 19.8969 8.43437 19.7563 8.40312 19.5907L7.78125 16.2188L4.40937 15.5969C4.24375 15.5657 4.10312 15.4532 4.0375 15.2969C3.97187 15.1407 3.99062 14.9626 4.0875 14.8219L6.03437 12.0001L4.0875 9.17818C3.99062 9.03756 3.97187 8.85943 4.0375 8.70318C4.10312 8.54693 4.24375 8.43443 4.40937 8.40318L7.78125 7.78131L8.40312 4.40943C8.43437 4.24381 8.54687 4.10318 8.70312 4.03756C8.85937 3.97193 9.0375 3.99068 9.17812 4.08756L12 6.03443L14.8219 4.08756C14.9625 3.99068 15.1406 3.97193 15.2969 4.03756ZM16.5 12.0001C16.5 10.8066 16.0259 9.66199 15.182 8.81808C14.3381 7.97416 13.1935 7.50006 12 7.50006C10.8065 7.50006 9.66193 7.97416 8.81802 8.81808C7.9741 9.66199 7.5 10.8066 7.5 12.0001C7.5 13.1935 7.9741 14.3381 8.81802 15.182C9.66193 16.026 10.8065 16.5001 12 16.5001C13.1935 16.5001 14.3381 16.026 15.182 15.182C16.0259 14.3381 16.5 13.1935 16.5 12.0001ZM8.4375 12.0001C8.4375 10.0282 10.05 8.43756 12.0312 8.43756C12.1344 8.43756 12.2344 8.44068 12.3344 8.45006C12.5531 8.46881 12.7344 8.62818 12.7812 8.84381C12.8281 9.05943 12.7281 9.27818 12.5375 9.38756C11.8219 9.78756 11.3406 10.5469 11.3406 11.4126C11.3406 12.6938 12.3906 13.7407 13.6969 13.7407C13.8344 13.7407 13.9719 13.7282 14.1031 13.7063C14.3187 13.6688 14.5344 13.7782 14.6344 13.9751C14.7344 14.1719 14.6937 14.4094 14.5344 14.5594C13.8875 15.1813 13.0031 15.5657 12.0312 15.5657C10.05 15.5657 8.4375 13.9751 8.4375 12.0032V12.0001Z" fill="black"/>
</svg>
