<svg width="24" height="24" viewBox="0 0 24 24" fill="none" xmlns="http://www.w3.org/2000/svg">
<path d="M3 7.5156V17.1969C3 17.7594 3.31563 18.2906 3.84375 18.4875C6.5625 19.5031 9.28125 18.8094 12 18.1156C14.4938 17.4812 16.9875 16.8437 19.4781 17.525C20.1969 17.7219 21 17.2281 21 16.4812V6.8031C21 6.2406 20.6844 5.70935 20.1562 5.51248C17.4375 4.49685 14.7188 5.1906 12 5.88435C9.50625 6.51873 7.0125 7.1531 4.52188 6.47185C3.8 6.27498 3 6.76873 3 7.5156ZM12 15C10.6187 15 9.5 13.6562 9.5 12C9.5 10.3437 10.6187 8.99998 12 8.99998C13.3813 8.99998 14.5 10.3437 14.5 12C14.5 13.6562 13.3813 15 12 15ZM5 15C6.10312 15 7 15.8969 7 17H5V15ZM7 8.49998C7 9.6031 6.10312 10.5 5 10.5V8.49998H7ZM19 13.5V15.5H17C17 14.3969 17.8969 13.5 19 13.5ZM17 6.99998H19V8.99998C17.8969 8.99998 17 8.1031 17 6.99998Z" fill="black"/>
</svg>
