<svg width="24" height="24" viewBox="0 0 24 24" fill="none" xmlns="http://www.w3.org/2000/svg">
<path d="M3 7.51566V17.1969C3 17.7594 3.31563 18.2907 3.84375 18.4875C6.5625 19.5032 9.28125 18.8094 12 18.1157C14.4937 17.4813 16.9875 16.8438 19.4781 17.525C20.1969 17.7219 21 17.2282 21 16.4813V6.80316C21 6.24066 20.6844 5.70941 20.1562 5.51254C17.4375 4.49691 14.7188 5.19066 12 5.88441C9.50625 6.51879 7.0125 7.15316 4.52188 6.47191C3.8 6.27504 3 6.76879 3 7.51566ZM12 15C10.6188 15 9.5 13.6563 9.5 12C9.5 10.3438 10.6188 9.00004 12 9.00004C13.3813 9.00004 14.5 10.3438 14.5 12C14.5 13.6563 13.3813 15 12 15Z" fill="black"/>
</svg>
