<svg width="24" height="24" viewBox="0 0 24 24" fill="none" xmlns="http://www.w3.org/2000/svg">
<path d="M11.65 6.96875L12.525 4.34062C12.5938 4.1375 12.7844 4 13 4C13.2156 4 13.4063 4.1375 13.475 4.34062L14.35 6.96875C15.6125 7.39062 16.6094 8.3875 17.0313 9.65L19.6594 10.525C19.8625 10.5938 20 10.7844 20 11C20 11.2156 19.8625 11.4062 19.6594 11.475L17.0313 12.35C16.6094 13.6125 15.6125 14.6094 14.35 15.0312L13.475 17.6594C13.4063 17.8625 13.2156 18 13 18C12.7844 18 12.5938 17.8625 12.525 17.6594L11.65 15.0312C11.3438 14.9281 11.0563 14.7938 10.7844 14.6281L5.70627 19.7063C5.31565 20.0969 4.68127 20.0969 4.29065 19.7063C3.90002 19.3156 3.90002 18.6812 4.29065 18.2906L9.3719 13.2156C9.20627 12.9469 9.0719 12.6563 8.96877 12.35L6.34065 11.475C6.13752 11.4062 6.00002 11.2156 6.00002 11C6.00002 10.7844 6.13752 10.5938 6.34065 10.525L8.96877 9.65C9.39065 8.3875 10.3875 7.39062 11.65 6.96875ZM13 12C13.2652 12 13.5196 11.8946 13.7071 11.7071C13.8947 11.5196 14 11.2652 14 11C14 10.7348 13.8947 10.4804 13.7071 10.2929C13.5196 10.1054 13.2652 10 13 10C12.7348 10 12.4805 10.1054 12.2929 10.2929C12.1054 10.4804 12 10.7348 12 11C12 11.2652 12.1054 11.5196 12.2929 11.7071C12.4805 11.8946 12.7348 12 13 12Z" fill="black"/>
</svg>
