<svg width="24" height="24" viewBox="0 0 24 24" fill="none" xmlns="http://www.w3.org/2000/svg">
<path d="M4.75 12.0656C4.75 8.1625 7.9125 5 11.8156 5H12.1844C16.0875 5 19.25 8.1625 19.25 12.0656C19.25 13.1344 18.3844 14 17.3156 14H13.7812H10.2188H6.68438C5.61563 14 4.75 13.1344 4.75 12.0656ZM16.8594 9.04375C16.7437 9.01562 16.625 9 16.5 9C15.6719 9 15 9.67188 15 10.5C15 11.3281 15.6719 12 16.5 12C16.9969 12 17.4375 11.7594 17.7094 11.3875C17.6063 10.5312 17.3063 9.73437 16.8594 9.04375ZM8.55937 7.55C8.80937 8.66562 9.80625 9.5 11 9.5C12.3813 9.5 13.5 8.38125 13.5 7C13.5 6.88125 13.4906 6.76563 13.475 6.65C13.0625 6.55313 12.6281 6.5 12.1844 6.5H11.8156C10.6 6.5 9.475 6.89062 8.55937 7.55ZM9.96875 15H14.0312L14.7188 17.7563C14.7938 18.0563 14.725 18.3719 14.5375 18.6156C14.35 18.8594 14.0563 19 13.75 19H10.25C9.94063 19 9.65 18.8594 9.4625 18.6156C9.275 18.3719 9.20625 18.0563 9.28125 17.7563L9.96875 15ZM9 11C9 10.7348 8.89464 10.4804 8.70711 10.2929C8.51957 10.1054 8.26522 10 8 10C7.73478 10 7.48043 10.1054 7.29289 10.2929C7.10536 10.4804 7 10.7348 7 11C7 11.2652 7.10536 11.5196 7.29289 11.7071C7.48043 11.8946 7.73478 12 8 12C8.26522 12 8.51957 11.8946 8.70711 11.7071C8.89464 11.5196 9 11.2652 9 11Z" fill="black"/>
</svg>
