<svg width="24" height="24" viewBox="0 0 24 24" fill="none" xmlns="http://www.w3.org/2000/svg">
<path d="M17.6031 4.11249C17.9 3.92812 18.2844 3.97187 18.5312 4.21874L19.7812 5.46874C20.0281 5.71562 20.0719 6.09999 19.8875 6.39687L18.6375 8.39687C18.5375 8.55624 18.3812 8.67187 18.2 8.72187L16.125 9.28749L14.0656 11.3469C14.1156 14.075 13.7344 20 9.5 20C6.4625 20 4 17.5375 4 14.5C4 10.2656 9.925 9.88437 12.6531 9.93124L14.7125 7.87499L15.2781 5.80312C15.3281 5.62187 15.4437 5.46562 15.6031 5.36562L17.6031 4.11562V4.11249ZM10.5 15C10.8978 15 11.2794 14.842 11.5607 14.5607C11.842 14.2793 12 13.8978 12 13.5C12 13.1022 11.842 12.7206 11.5607 12.4393C11.2794 12.158 10.8978 12 10.5 12C10.1022 12 9.72064 12.158 9.43934 12.4393C9.15804 12.7206 9 13.1022 9 13.5C9 13.8978 9.15804 14.2793 9.43934 14.5607C9.72064 14.842 10.1022 15 10.5 15Z" fill="black"/>
</svg>
