<svg width="24" height="24" viewBox="0 0 24 24" fill="none" xmlns="http://www.w3.org/2000/svg">
<path d="M3 6C3 4.89688 3.89688 4 5 4H13C14.1031 4 15 4.89688 15 6V10.2063C12.6906 10.8594 11 12.9813 11 15.5C11 17.3469 11.9094 18.9781 13.3031 19.9781C13.2031 19.9937 13.1031 20 13 20H5C3.89688 20 3 19.1031 3 18V6ZM5 8.5C5 8.775 5.225 9 5.5 9H12.5C12.775 9 13 8.775 13 8.5C13 8.225 12.775 8 12.5 8H5.5C5.225 8 5 8.225 5 8.5ZM5.5 11C5.225 11 5 11.225 5 11.5C5 11.775 5.225 12 5.5 12H10.5C10.775 12 11 11.775 11 11.5C11 11.225 10.775 11 10.5 11H5.5ZM5.5 14C5.225 14 5 14.225 5 14.5C5 14.775 5.225 15 5.5 15H8.5C8.775 15 9 14.775 9 14.5C9 14.225 8.775 14 8.5 14H5.5ZM12 15.5C12 14.3065 12.4741 13.1619 13.318 12.318C14.1619 11.4741 15.3065 11 16.5 11C17.6935 11 18.8381 11.4741 19.682 12.318C20.5259 13.1619 21 14.3065 21 15.5C21 16.6935 20.5259 17.8381 19.682 18.682C18.8381 19.5259 17.6935 20 16.5 20C15.3065 20 14.1619 19.5259 13.318 18.682C12.4741 17.8381 12 16.6935 12 15.5ZM17.8969 14.1469L16 16.0437L15.1031 15.1469C14.9094 14.9531 14.5906 14.9531 14.3969 15.1469C14.2031 15.3406 14.2031 15.6594 14.3969 15.8531L15.6469 17.1031C15.8406 17.2969 16.1594 17.2969 16.3531 17.1031L18.6031 14.8531C18.7969 14.6594 18.7969 14.3406 18.6031 14.1469C18.4094 13.9531 18.0906 13.9531 17.8969 14.1469Z" fill="black"/>
</svg>
