<svg width="24" height="24" viewBox="0 0 24 24" fill="none" xmlns="http://www.w3.org/2000/svg">
<path d="M11.6469 4.1469C11.8406 3.95315 12.1594 3.95315 12.3531 4.1469L14.3531 6.1469C14.4969 6.29065 14.5375 6.50627 14.4625 6.69065C14.3875 6.87502 14.2031 7.00002 14 7.00002H12.75V7.75002H13.75C14.1656 7.75002 14.5 8.0844 14.5 8.50002C14.5 8.91565 14.1656 9.25002 13.75 9.25002H12.75V10C12.75 10.0188 12.75 10.0375 12.7469 10.0563C15.1531 10.4188 17 12.4938 17 15C17 17.7625 14.7625 20 12 20C9.2375 20 7 17.7625 7 15C7 12.4938 8.84688 10.4156 11.2531 10.0563C11.2531 10.0375 11.25 10.0188 11.25 10V9.25002H10.25C9.83437 9.25002 9.5 8.91565 9.5 8.50002C9.5 8.0844 9.83437 7.75002 10.25 7.75002H11.25V7.00002H10C9.79688 7.00002 9.61562 6.87815 9.5375 6.69065C9.45937 6.50315 9.50312 6.28752 9.64687 6.1469L11.6469 4.1469ZM15 15C15 14.2044 14.6839 13.4413 14.1213 12.8787C13.5587 12.3161 12.7956 12 12 12C11.2044 12 10.4413 12.3161 9.87868 12.8787C9.31607 13.4413 9 14.2044 9 15C9 15.7957 9.31607 16.5587 9.87868 17.1213C10.4413 17.684 11.2044 18 12 18C12.7956 18 13.5587 17.684 14.1213 17.1213C14.6839 16.5587 15 15.7957 15 15Z" fill="black"/>
</svg>
