<svg width="24" height="24" viewBox="0 0 24 24" fill="none" xmlns="http://www.w3.org/2000/svg">
<path d="M12 6C11.15 6 10.3188 6.25 9.6125 6.72187L8.45312 7.49688C7.95937 7.825 7.38125 8 6.7875 8H6.5H6H3.75C2.78438 8 2 8.78437 2 9.75V12.4062C2 14.1281 3.17188 15.6281 4.84063 16.0437L8.21562 16.8875C9.30625 17.5938 10.6062 18 12 18C13.3938 18 14.6938 17.5938 15.7844 16.8906L19.1594 16.0469C20.8281 15.6281 22 14.1281 22 12.4062V9.75C22 8.78437 21.2156 8 20.25 8H18H17.5H17.2125C16.6187 8 16.0406 7.825 15.5469 7.49688L14.3875 6.72187C13.6812 6.25 12.85 6 12 6ZM6.13438 14.8219L5.20312 14.5906C4.20312 14.3406 3.5 13.4406 3.5 12.4062V9.75C3.5 9.6125 3.6125 9.5 3.75 9.5H5V11C5 12.4094 5.41875 13.725 6.13438 14.8219ZM18.7938 14.5906L17.8625 14.8219C18.5812 13.7219 18.9969 12.4094 18.9969 11V9.5H20.2469C20.3844 9.5 20.4969 9.6125 20.4969 9.75V12.4062C20.4969 13.4375 19.7938 14.3375 18.7938 14.5906ZM8 10.5C8 10.225 8.225 10 8.5 10H15.5C15.775 10 16 10.225 16 10.5C16 10.775 15.775 11 15.5 11H8.5C8.225 11 8 10.775 8 10.5ZM8.5 12H15.5C15.775 12 16 12.225 16 12.5C16 12.775 15.775 13 15.5 13H8.5C8.225 13 8 12.775 8 12.5C8 12.225 8.225 12 8.5 12ZM9 14.5C9 14.225 9.225 14 9.5 14H14.5C14.775 14 15 14.225 15 14.5C15 14.775 14.775 15 14.5 15H9.5C9.225 15 9 14.775 9 14.5Z" fill="black"/>
</svg>
