<svg width="24" height="24" viewBox="0 0 24 24" fill="none" xmlns="http://www.w3.org/2000/svg">
<path d="M3.21243 4.15943C2.88743 3.90318 2.41556 3.96255 2.15931 4.28755C1.90306 4.61255 1.96243 5.08443 2.28743 5.34068L20.7874 19.8407C21.1124 20.0969 21.5843 20.0376 21.8406 19.7126C22.0968 19.3876 22.0374 18.9157 21.7124 18.6594L19.1406 16.6438C19.6593 16.2813 19.9999 15.6813 19.9999 15.0001V6.00005C19.9999 4.89693 19.1031 4.00005 17.9999 4.00005H5.99993C5.26243 4.00005 4.61868 4.39693 4.27181 4.99068L3.21243 4.15943ZM14.6937 17.0001L3.99993 8.57505V15.0001C3.99993 16.1032 4.89681 17.0001 5.99993 17.0001H8.99993V19.5001C8.99993 19.6907 9.10618 19.8626 9.27493 19.9469C9.44368 20.0313 9.64681 20.0126 9.79993 19.9001L13.6656 17.0001H14.6906H14.6937Z" fill="black"/>
</svg>
