<svg width="24" height="24" viewBox="0 0 24 24" fill="none" xmlns="http://www.w3.org/2000/svg">
<path d="M12.75 4.75C12.75 4.33437 12.4156 4 12 4C11.5844 4 11.25 4.33437 11.25 4.75V7.69062L8.1875 10.7531L5.85313 11.2C4.19688 11.5187 3 12.9688 3 14.6562C3 15.95 4.05 17 5.34375 17C6.92188 17 8.29063 15.9531 8.72188 14.4625C8.94688 14.7875 9.325 15 9.75 15C10.4406 15 11 14.4406 11 13.75C11 13.0594 10.4406 12.5 9.75 12.5C9.50313 12.5 9.27187 12.5719 9.07812 12.6969L9.24687 11.8156L11.25 9.80937V12.0719C11.7094 12.4844 12 13.0813 12 13.75C12 14.9937 10.9938 16 9.75 16C9.525 16 9.30625 15.9656 9.1 15.9062C9.03437 16.1687 9 16.4406 9 16.7156V17C9 18.6562 10.3438 20 12 20C13.6562 20 15 18.6562 15 17V16.7156C15 15.9312 14.7188 15.1719 14.2094 14.5781L12.75 12.875V9.80937L14.7531 11.8125L15.2031 14.1469C15.5188 15.8031 16.9688 17 18.6562 17C19.95 17 21 15.95 21 14.6562C21 12.9688 19.8031 11.5219 18.1469 11.2031L15.8125 10.7531L12.75 7.69062V4.75ZM14.75 7.5C15.0815 7.5 15.3995 7.3683 15.6339 7.13388C15.8683 6.89946 16 6.58152 16 6.25C16 5.91848 15.8683 5.60054 15.6339 5.36612C15.3995 5.1317 15.0815 5 14.75 5C14.4185 5 14.1005 5.1317 13.8661 5.36612C13.6317 5.60054 13.5 5.91848 13.5 6.25C13.5 6.58152 13.6317 6.89946 13.8661 7.13388C14.1005 7.3683 14.4185 7.5 14.75 7.5Z" fill="black"/>
</svg>
