<svg width="24" height="24" viewBox="0 0 24 24" fill="none" xmlns="http://www.w3.org/2000/svg">
<path d="M11.6125 4.61216C12.8656 3.36216 15.6218 4.08716 17.7656 6.23404C19.9093 8.38091 20.6375 11.134 19.3843 12.3872L18.1187 13.6528C16.6218 15.1559 14.5843 15.9997 12.4625 15.9997H10.6437C10.4218 15.9997 10.2093 16.0872 10.0531 16.2434C9.7312 16.5653 9.74995 17.084 9.89683 17.5153C9.96245 17.7059 9.99683 17.9122 9.99683 18.1247C9.99683 19.159 9.1562 19.9997 8.12183 19.9997C7.08745 19.9997 6.24683 19.159 6.24683 18.1247C6.24683 17.9278 6.0687 17.7497 5.87183 17.7497C4.83745 17.7497 3.99683 16.909 3.99683 15.8747C3.99683 14.8403 4.83745 13.9997 5.87183 13.9997C6.08433 13.9997 6.29058 14.034 6.4812 14.0997C6.91245 14.2465 7.4312 14.2653 7.75308 13.9434C7.90933 13.7872 7.99683 13.5747 7.99683 13.3528V11.5403C7.99683 9.41841 8.84058 7.38404 10.3406 5.88404L11.6125 4.61216ZM13.6125 10.3872C15.1625 11.9372 17.1531 12.4622 18.0562 11.5559C18.9593 10.6497 18.4375 8.66216 16.8875 7.11216C15.3375 5.56216 13.3468 5.03716 12.4437 5.94341C11.5406 6.84966 12.0625 8.83716 13.6125 10.3872ZM14.7468 9.25279C14.2687 8.77466 14.1093 8.16216 14.3875 7.88404C14.6656 7.60591 15.2781 7.76841 15.7562 8.24341C16.2343 8.71841 16.3937 9.33404 16.1156 9.61216C15.8375 9.89029 15.225 9.72779 14.7468 9.25279Z" fill="black"/>
</svg>
