<svg width="24" height="24" viewBox="0 0 24 24" fill="none" xmlns="http://www.w3.org/2000/svg">
<path d="M15.4406 5.33815C15.625 4.8194 15.3563 4.2444 14.8344 4.06003C14.3125 3.87565 13.7406 4.1444 13.5563 4.66628L12.5 7.62878C12.3219 7.75378 12.1531 7.8944 12 8.05065C11.3656 7.40378 10.4781 7.00065 9.5 7.00065C8.89062 7.00065 8.31875 7.1569 7.82187 7.42878C7.64062 7.1694 7.34063 7.00065 7 7.00065C6.44687 7.00065 6 7.44753 6 8.00065V10.5007V17.0007C6 17.5538 6.44687 18.0007 7 18.0007C7.55313 18.0007 8 17.5538 8 17.0007V10.5007C8 9.67253 8.67188 9.00065 9.5 9.00065C10.3281 9.00065 11 9.67253 11 10.5007V11.8288L8.55938 18.6632C8.375 19.1819 8.64375 19.7569 9.16563 19.9413C9.6875 20.1257 10.2594 19.8569 10.4437 19.335L11.1125 17.46C11.2781 17.7819 11.6125 18.0007 12 18.0007C12.5531 18.0007 13 17.5538 13 17.0007V12.1725L14.1156 9.04753C14.2375 9.01628 14.3687 8.99753 14.5 8.99753C15.3281 8.99753 16 9.6694 16 10.4975V17.0007C16 17.5538 16.4469 18.0007 17 18.0007C17.5531 18.0007 18 17.5538 18 17.0007V10.5007C18 8.6819 16.6156 7.18815 14.8406 7.01628L15.4406 5.33503V5.33815Z" fill="black"/>
</svg>
