<svg width="24" height="24" viewBox="0 0 24 24" fill="none" xmlns="http://www.w3.org/2000/svg">
<path d="M10.75 4.99995C10.3344 4.99995 10 5.33433 10 5.74995C10 6.16558 10.3344 6.49995 10.75 6.49995H12.5531L13.0656 7.44683L10 9.99995L8.58437 8.58433C8.20937 8.20933 7.7 7.99995 7.16875 7.99995H4C3.44687 7.99995 3 8.44683 3 8.99995V9.99995H6C8.7625 9.99995 11 12.2375 11 15C11 15.3437 10.9656 15.6781 10.9 16H13.1C13.0344 15.6781 13 15.3437 13 15C13 13.3687 13.7812 11.9187 14.9906 11.0062L15.4719 11.9C14.575 12.6343 14 13.75 14 15C14 17.2093 15.7906 19 18 19C20.2094 19 22 17.2093 22 15C22 12.7906 20.2094 11 18 11C17.5781 11 17.1719 11.0656 16.7906 11.1875L15.0688 7.99995H17C17.5531 7.99995 18 7.55308 18 6.99995V5.99995C18 5.44683 17.5531 4.99995 17 4.99995H16.3625C16.1281 4.99995 15.9031 5.0812 15.7219 5.2312L14.2406 6.46558L13.8031 5.65308C13.5844 5.24995 13.1625 4.99683 12.7031 4.99683H10.75V4.99995ZM16.4594 13.725L17.3406 15.3562C17.5375 15.7218 17.9938 15.8562 18.3563 15.6593C18.7188 15.4625 18.8562 15.0062 18.6594 14.6437L17.7781 13.0125C17.85 13.0031 17.925 13 18 13C19.1031 13 20 13.8968 20 15C20 16.1031 19.1031 17 18 17C16.8969 17 16 16.1031 16 15C16 14.5156 16.1719 14.0718 16.4594 13.725ZM7.85313 15.75C7.55625 16.4843 6.8375 17 6 17C4.89687 17 4 16.1031 4 15C4 13.8968 4.89687 13 6 13C6.84062 13 7.55938 13.5156 7.85313 14.25H9.92812C9.57812 12.4 7.95312 11 6 11C3.79063 11 2 12.7906 2 15C2 17.2093 3.79063 19 6 19C7.95312 19 9.57812 17.6 9.93125 15.75H7.85313ZM6 16C6.26522 16 6.51957 15.8946 6.70711 15.7071C6.89464 15.5195 7 15.2652 7 15C7 14.7347 6.89464 14.4804 6.70711 14.2928C6.51957 14.1053 6.26522 14 6 14C5.73478 14 5.48043 14.1053 5.29289 14.2928C5.10536 14.4804 5 14.7347 5 15C5 15.2652 5.10536 15.5195 5.29289 15.7071C5.48043 15.8946 5.73478 16 6 16Z" fill="black"/>
</svg>
