<svg width="24" height="24" viewBox="0 0 24 24" fill="none" xmlns="http://www.w3.org/2000/svg">
<path d="M17 10.5C17 11.9344 16.5344 13.2594 15.75 14.3344L19.7063 18.2937C20.0969 18.6844 20.0969 19.3188 19.7063 19.7094C19.3156 20.1 18.6812 20.1 18.2906 19.7094L14.3344 15.75C13.2594 16.5375 11.9344 17 10.5 17C6.90937 17 4 14.0906 4 10.5C4 6.90937 6.90937 4 10.5 4C14.0906 4 17 6.90937 17 10.5ZM11.125 7.25C11.125 6.90625 10.8438 6.625 10.5 6.625C10.1562 6.625 9.875 6.90625 9.875 7.25V7.6875C9.6375 7.74062 9.4 7.825 9.18125 7.95312C8.74688 8.2125 8.37187 8.66562 8.375 9.325C8.37813 9.95937 8.75 10.3594 9.14687 10.5969C9.49062 10.8031 9.91875 10.9344 10.2594 11.0344L10.3125 11.05C10.7063 11.1688 10.9938 11.2625 11.1875 11.3844C11.3469 11.4844 11.3687 11.5531 11.3719 11.6406C11.375 11.7969 11.3156 11.8906 11.1875 11.9688C11.0312 12.0656 10.7844 12.125 10.5188 12.1156C10.1719 12.1031 9.84688 11.9938 9.42188 11.85C9.35 11.825 9.275 11.8 9.19688 11.775C8.86875 11.6656 8.51562 11.8438 8.40625 12.1687C8.29688 12.4937 8.475 12.85 8.8 12.9594C8.85938 12.9781 8.925 13 8.99062 13.025C9.25 13.1156 9.55 13.2188 9.87187 13.2875V13.75C9.87187 14.0938 10.1531 14.375 10.4969 14.375C10.8406 14.375 11.1219 14.0938 11.1219 13.75V13.3188C11.3719 13.2656 11.6219 13.1781 11.8469 13.0375C12.2937 12.7594 12.6312 12.2844 12.6219 11.6312C12.6125 10.9969 12.2563 10.5875 11.8531 10.3313C11.4938 10.1063 11.0437 9.96875 10.6937 9.8625L10.6719 9.85625C10.2719 9.73438 9.9875 9.64687 9.7875 9.52812C9.625 9.43125 9.62187 9.375 9.62187 9.31875C9.62187 9.20312 9.66563 9.11562 9.81563 9.02812C9.98438 8.92812 10.2406 8.86875 10.4875 8.87187C10.7875 8.875 11.1188 8.94063 11.4625 9.03438C11.7969 9.12188 12.1375 8.925 12.2281 8.59062C12.3187 8.25625 12.1188 7.91563 11.7844 7.825C11.5813 7.77188 11.3562 7.71875 11.125 7.67812V7.25Z" fill="black"/>
</svg>
