<svg width="24" height="24" viewBox="0 0 24 24" fill="none" xmlns="http://www.w3.org/2000/svg">
<path d="M5.70938 5.04411C6.13125 4.91599 6.5875 5.07849 6.83125 5.44724L12 13.1972L17.1687 5.44411C17.4125 5.07849 17.8687 4.91286 18.2906 5.04099C18.7125 5.16911 19 5.55974 19 6.00036V18.0004C19 18.5535 18.5531 19.0004 18 19.0004C17.4469 19.0004 17 18.5535 17 18.0004V9.30349L12.8313 15.5566C12.6469 15.8347 12.3344 16.0004 12 16.0004C11.6656 16.0004 11.3531 15.8347 11.1687 15.5566L7 9.30349V18.0004C7 18.5535 6.55313 19.0004 6 19.0004C5.44687 19.0004 5 18.5535 5 18.0004V6.00036C5 5.55974 5.2875 5.17224 5.70938 5.04411Z" fill="black"/>
</svg>
