<svg width="24" height="24" viewBox="0 0 24 24" fill="none" xmlns="http://www.w3.org/2000/svg">
<path d="M4 6C4 4.89688 4.89688 4 6 4H18C19.1031 4 20 4.89688 20 6V15C20 16.1031 19.1031 17 18 17H13.6656L9.8 19.9C9.65 20.0125 9.44688 20.0312 9.275 19.9469C9.10313 19.8625 9 19.6906 9 19.5V17H6C4.89688 17 4 16.1031 4 15V6ZM9.5 8C9.5 7.73478 9.39464 7.48043 9.20711 7.29289C9.01957 7.10536 8.76522 7 8.5 7C8.23478 7 7.98043 7.10536 7.79289 7.29289C7.60536 7.48043 7.5 7.73478 7.5 8C7.5 8.26522 7.60536 8.51957 7.79289 8.70711C7.98043 8.89464 8.23478 9 8.5 9C8.76522 9 9.01957 8.89464 9.20711 8.70711C9.39464 8.51957 9.5 8.26522 9.5 8ZM13.25 8C13 8 12.7656 8.125 12.625 8.33437L10.875 10.9594L10.3344 10.2812C10.1906 10.1031 9.97813 10 9.75 10C9.52187 10 9.30625 10.1031 9.16563 10.2812L7.16563 12.7812C6.98438 13.0062 6.95 13.3156 7.075 13.575C7.2 13.8344 7.4625 14 7.75 14H10.25H11.75H16.25C16.5281 14 16.7813 13.8469 16.9125 13.6031C17.0438 13.3594 17.0281 13.0625 16.875 12.8344L13.875 8.33437C13.7344 8.125 13.5 8 13.25 8Z" fill="black"/>
</svg>
