<svg width="24" height="24" viewBox="0 0 24 24" fill="none" xmlns="http://www.w3.org/2000/svg">
<path d="M3.2125 4.15943C2.8875 3.90318 2.41562 3.96255 2.15937 4.28755C1.90312 4.61255 1.9625 5.08443 2.2875 5.34068L20.7875 19.8407C21.1125 20.0969 21.5844 20.0376 21.8406 19.7126C22.0969 19.3876 22.0375 18.9157 21.7125 18.6594L16.7531 14.7719C17.2281 13.9594 17.5 13.0126 17.5 12.0001V10.7501C17.5 10.3344 17.1656 10.0001 16.75 10.0001C16.3344 10.0001 16 10.3344 16 10.7501V11.5001V12.0001C16 12.6626 15.8406 13.2844 15.5562 13.8344L15 13.4001V12.0001H13.2156L12.1375 11.1563C12.2281 11.0594 12.3562 11.0001 12.5 11.0001H15V10.0001H12.5C12.225 10.0001 12 9.77505 12 9.50005C12 9.22505 12.225 9.00005 12.5 9.00005H15V8.00005H12.5C12.225 8.00005 12 7.77505 12 7.50005C12 7.22505 12.225 7.00005 12.5 7.00005H15C15 5.3438 13.6562 4.00005 12 4.00005C10.3437 4.00005 9 5.3438 9 7.00005V8.69693L3.2125 4.15943ZM13.1938 15.8188C12.8156 15.9376 12.4156 16.0001 12 16.0001C9.79062 16.0001 8 14.2094 8 12.0001V11.7282L6.52187 10.5626C6.50625 10.6219 6.5 10.6844 6.5 10.7501V12.0001C6.5 14.7844 8.56875 17.0844 11.25 17.4501V18.5001H9.75C9.33437 18.5001 9 18.8344 9 19.2501C9 19.6657 9.33437 20.0001 9.75 20.0001H12H14.25C14.6656 20.0001 15 19.6657 15 19.2501C15 18.8344 14.6656 18.5001 14.25 18.5001H12.75V17.4501C13.3875 17.3626 13.9906 17.1657 14.5406 16.8813L13.1938 15.8219V15.8188Z" fill="black"/>
</svg>
