<svg width="24" height="24" viewBox="0 0 24 24" fill="none" xmlns="http://www.w3.org/2000/svg">
<path d="M3.21255 4.15943C2.88755 3.90318 2.41568 3.96255 2.15943 4.28755C1.90318 4.61255 1.96255 5.08443 2.28755 5.34068L20.7876 19.8407C21.1126 20.0969 21.5844 20.0376 21.8407 19.7126C22.0969 19.3876 22.0376 18.9157 21.7126 18.6594L19.1407 16.6438C19.6594 16.2813 20.0001 15.6813 20.0001 15.0001V6.00005C20.0001 4.89693 19.1032 4.00005 18.0001 4.00005H6.00005C5.26255 4.00005 4.6188 4.39693 4.27193 4.99068L3.21255 4.15943ZM14.6938 17.0001L4.00005 8.57505V15.0001C4.00005 16.1032 4.89693 17.0001 6.00005 17.0001H9.00005V19.5001C9.00005 19.6907 9.1063 19.8626 9.27505 19.9469C9.4438 20.0313 9.64693 20.0126 9.80005 19.9001L13.6657 17.0001H14.6907H14.6938Z" fill="black"/>
</svg>
