<svg width="24" height="24" viewBox="0 0 24 24" fill="none" xmlns="http://www.w3.org/2000/svg">
<path d="M16.4906 19.8091C16.7969 19.531 16.825 19.0497 16.5562 18.7372L15.2406 17.206V15.4966C15.2406 15.3247 15.1844 15.1591 15.0813 15.0247L13 12.3216V12.3122L17.1687 16.1185C18.95 17.9872 22 16.6622 22 14.0185C22 12.5216 20.9375 11.2591 19.5187 11.0747L14.7375 10.3278L16.0125 9.04971C16.2562 8.80596 16.3062 8.42159 16.1344 8.11846L15.3906 6.81534L16.5844 5.22471C16.8344 4.89346 16.775 4.41534 16.45 4.15909C16.125 3.90284 15.6625 3.96221 15.4125 4.29659L13.9125 6.29346C13.7281 6.54034 13.7063 6.87471 13.8594 7.14346L14.5688 8.37471L13 9.94659V8.75284C13 8.28721 12.6812 7.89659 12.25 7.78409V5.99659C12.25 5.85909 12.1375 5.74659 12 5.74659C11.8625 5.74659 11.75 5.85909 11.75 5.99659V7.78409C11.3188 7.89659 11 8.28721 11 8.75284V9.94346L9.43125 8.37471L10.1375 7.14034C10.2906 6.87159 10.2688 6.53721 10.0844 6.29034L8.58437 4.29346C8.33437 3.96221 7.87187 3.89971 7.54688 4.15596C7.22188 4.41221 7.16563 4.89034 7.4125 5.22159L8.60625 6.81221L7.85938 8.11534C7.6875 8.41846 7.7375 8.80284 7.98125 9.04659L9.25625 10.3247L4.475 11.0716C3.0625 11.2591 2 12.5216 2 14.0185C2 16.6622 5.05 17.9872 6.83125 16.1153L11 12.3122V12.3216L8.92188 15.0216C8.81875 15.156 8.7625 15.3216 8.7625 15.4935V17.2028L7.44688 18.7341C7.17812 19.0497 7.20625 19.531 7.5125 19.806C7.81875 20.081 8.28438 20.0528 8.55625 19.7403L10.0562 17.9935C10.175 17.856 10.2406 17.6747 10.2406 17.4903V15.7591L11 14.7716V16.7435C11 17.2966 11.4469 17.7435 12 17.7435C12.5531 17.7435 13 17.2966 13 16.7435V14.7716L13.7594 15.7591V17.4903C13.7594 17.6747 13.825 17.856 13.9438 17.9935L15.4438 19.7403C15.7125 20.056 16.1813 20.0841 16.4875 19.806L16.4906 19.8091Z" fill="black"/>
</svg>
