<svg width="24" height="24" viewBox="0 0 24 24" fill="none" xmlns="http://www.w3.org/2000/svg">
<path d="M4 6C4 4.89688 4.89688 4 6 4H18C19.1031 4 20 4.89688 20 6V15C20 16.1031 19.1031 17 18 17H13.6656L9.8 19.9C9.65 20.0125 9.44688 20.0312 9.275 19.9469C9.10313 19.8625 9 19.6906 9 19.5V17H6C4.89688 17 4 16.1031 4 15V6ZM7 9.65C7 10.0344 7.19375 10.3937 7.5125 10.6094L8.43125 11.2219C8.47188 11.25 8.5 11.2969 8.5 11.3469C8.5 11.4313 8.43125 11.4969 8.35 11.4969H7.5C7.225 11.4969 7 11.7219 7 11.9969C7 12.2719 7.225 12.4969 7.5 12.4969H8.35C8.98437 12.4969 9.5 11.9813 9.5 11.3469C9.5 10.9625 9.30625 10.6031 8.9875 10.3875L8.06875 9.775C8.02812 9.74688 8 9.7 8 9.65C8 9.56563 8.06875 9.5 8.15 9.5H8.75C9.025 9.5 9.25 9.275 9.25 9C9.25 8.725 9.025 8.5 8.75 8.5H8.15C7.51563 8.5 7 9.01563 7 9.65ZM15.65 8.5C15.0156 8.5 14.5 9.01563 14.5 9.65C14.5 10.0344 14.6937 10.3937 15.0125 10.6094L15.9312 11.2219C15.9719 11.25 16 11.2969 16 11.3469C16 11.4313 15.9313 11.4969 15.85 11.4969H15C14.725 11.4969 14.5 11.7219 14.5 11.9969C14.5 12.2719 14.725 12.4969 15 12.4969H15.85C16.4844 12.4969 17 11.9813 17 11.3469C17 10.9625 16.8063 10.6031 16.4875 10.3875L15.5688 9.775C15.5281 9.74688 15.5 9.7 15.5 9.65C15.5 9.56563 15.5687 9.5 15.65 9.5H16.25C16.525 9.5 16.75 9.275 16.75 9C16.75 8.725 16.525 8.5 16.25 8.5H15.65ZM10.9 8.7C10.7719 8.52812 10.5469 8.45625 10.3406 8.525C10.1344 8.59375 10 8.78437 10 9V12C10 12.275 10.225 12.5 10.5 12.5C10.775 12.5 11 12.275 11 12V10.5L11.6 11.3C11.6937 11.425 11.8438 11.5 12 11.5C12.1562 11.5 12.3062 11.425 12.4 11.3L13 10.5V12C13 12.275 13.225 12.5 13.5 12.5C13.775 12.5 14 12.275 14 12V9C14 8.78437 13.8625 8.59375 13.6594 8.525C13.4563 8.45625 13.2313 8.52812 13.1 8.7L12 10.1656L10.9 8.7Z" fill="black"/>
</svg>
