<svg width="24" height="24" viewBox="0 0 24 24" fill="none" xmlns="http://www.w3.org/2000/svg">
<path d="M5 5C3.89688 5 3 5.89688 3 7V17C3 18.1031 3.89688 19 5 19H19C20.1031 19 21 18.1031 21 17V7C21 5.89688 20.1031 5 19 5H5ZM5.5 7H18.5C18.775 7 19 7.225 19 7.5V16.5C19 16.775 18.775 17 18.5 17H5.5C5.225 17 5 16.775 5 16.5V12.5V7.5C5 7.225 5.225 7 5.5 7ZM6 12H9C9.19063 12 9.3625 12.1062 9.44688 12.275L10 13.3813L11.5531 10.275C11.6375 10.1063 11.8125 10 12 10C12.1875 10 12.3625 10.1063 12.4469 10.275L13.3094 12H15.5C15.775 12 16 12.225 16 12.5C16 12.775 15.775 13 15.5 13H13C12.8094 13 12.6375 12.8938 12.5531 12.725L12 11.6188L10.4469 14.725C10.3625 14.8938 10.1875 15 10 15C9.8125 15 9.6375 14.8938 9.55312 14.725L8.69063 13H6V16H18V8H6V12Z" fill="black"/>
</svg>
