<svg width="24" height="24" viewBox="0 0 24 24" fill="none" xmlns="http://www.w3.org/2000/svg">
<path d="M9.5 4C10.8812 4 12 5.11875 12 6.5C12 6.775 11.775 7 11.5 7C10.1188 7 9 5.88125 9 4.5C9 4.225 9.225 4 9.5 4ZM5.75 4.5H7.25C7.66563 4.5 8 4.83438 8 5.25C8 5.66562 7.66563 6 7.25 6H5.75C5.33438 6 5 5.66562 5 5.25C5 4.83438 5.33438 4.5 5.75 4.5ZM4.75 6.75H8.25C8.66563 6.75 9 7.08437 9 7.5C9 7.91563 8.66563 8.25 8.25 8.25H4.75C4.33437 8.25 4 7.91563 4 7.5C4 7.08437 4.33437 6.75 4.75 6.75ZM5 9.75C5 9.33437 5.33438 9 5.75 9H7.25C7.66563 9 8 9.33437 8 9.75C8 10.1656 7.66563 10.5 7.25 10.5H5.75C5.33438 10.5 5 10.1656 5 9.75ZM12.5 4.5C12.5 4.225 12.725 4 13 4C14.3813 4 15.5 5.11875 15.5 6.5C15.5 6.775 15.275 7 15 7C13.6187 7 12.5 5.88125 12.5 4.5ZM16.5 4C17.8813 4 19 5.11875 19 6.5C19 6.775 18.775 7 18.5 7C17.1187 7 16 5.88125 16 4.5C16 4.225 16.225 4 16.5 4ZM19 8.5C19 9.88125 17.8813 11 16.5 11C16.225 11 16 10.775 16 10.5C16 9.11875 17.1187 8 18.5 8C18.775 8 19 8.225 19 8.5ZM15 8C15.275 8 15.5 8.225 15.5 8.5C15.5 9.88125 14.3813 11 13 11C12.725 11 12.5 10.775 12.5 10.5C12.5 9.11875 13.6187 8 15 8ZM12 8.5C12 9.88125 10.8812 11 9.5 11C9.225 11 9 10.775 9 10.5C9 9.11875 10.1188 8 11.5 8C11.775 8 12 8.225 12 8.5ZM4 13.5C4 12.6719 4.67188 12 5.5 12H18.5C19.3281 12 20 12.6719 20 13.5V18.5C20 19.3281 19.3281 20 18.5 20H5.5C4.67188 20 4 19.3281 4 18.5V13.5ZM5.5 17V18.5H7C7 17.6719 6.32812 17 5.5 17ZM7 13.5H5.5V15C6.32812 15 7 14.3281 7 13.5ZM18.5 17C17.6719 17 17 17.6719 17 18.5H18.5V17ZM17 13.5C17 14.3281 17.6719 15 18.5 15V13.5H17ZM14 16C14 15.4696 13.7893 14.9609 13.4142 14.5858C13.0391 14.2107 12.5304 14 12 14C11.4696 14 10.9609 14.2107 10.5858 14.5858C10.2107 14.9609 10 15.4696 10 16C10 16.5304 10.2107 17.0391 10.5858 17.4142C10.9609 17.7893 11.4696 18 12 18C12.5304 18 13.0391 17.7893 13.4142 17.4142C13.7893 17.0391 14 16.5304 14 16Z" fill="black"/>
</svg>
