<svg width="24" height="24" viewBox="0 0 24 24" fill="none" xmlns="http://www.w3.org/2000/svg">
<path d="M11.6469 4.14727C11.8406 3.95352 12.1594 3.95352 12.3531 4.14727L14.8531 6.64727C14.9312 6.72539 14.9812 6.82852 14.9969 6.93789L16.2531 17.0004H7.74688L9.00312 6.93789C9.01562 6.82852 9.06562 6.72539 9.14687 6.64727L11.6469 4.14727ZM10.75 12.5004C10.3344 12.5004 10 12.8348 10 13.2504C10 13.666 10.3344 14.0004 10.75 14.0004H13.25C13.6656 14.0004 14 13.666 14 13.2504C14 12.8348 13.6656 12.5004 13.25 12.5004H10.75ZM7 18.0004H17C17.5531 18.0004 18 18.4473 18 19.0004C18 19.5535 17.5531 20.0004 17 20.0004H7C6.44687 20.0004 6 19.5535 6 19.0004C6 18.4473 6.44687 18.0004 7 18.0004Z" fill="black"/>
</svg>
