<svg width="24" height="24" viewBox="0 0 24 24" fill="none" xmlns="http://www.w3.org/2000/svg">
<path d="M13.9094 19H3.74688C2.78125 19 2 18.2188 2 17.2531C2 16.925 2.09375 16.6031 2.26875 16.325L9.0375 5.53125C9.24375 5.2 9.60938 5 10 5C10.3906 5 10.7531 5.2 10.9625 5.53125L14.9 11.8031L16.4062 9.33437C16.5312 9.12812 16.7562 9 17 9C17.2438 9 17.4688 9.12812 17.5969 9.33437L21.7219 16.0938C21.9031 16.3938 22 16.7375 22 17.0875C22 18.1437 21.1438 18.9969 20.0906 18.9969H16.2531H13.9094V19Z" fill="black"/>
</svg>
