<svg width="24" height="24" viewBox="0 0 24 24" fill="none" xmlns="http://www.w3.org/2000/svg">
<path d="M5 6C3.89688 6 3 6.89688 3 8V16C3 17.1031 3.89688 18 5 18H19C20.1031 18 21 17.1031 21 16V8C21 6.89688 20.1031 6 19 6H5ZM7 16H5V14C6.10313 14 7 14.8969 7 16ZM5 10V8H7C7 9.10313 6.10313 10 5 10ZM17 16C17 14.8969 17.8969 14 19 14V16H17ZM19 10C17.8969 10 17 9.10313 17 8H19V10ZM8.5 12C8.5 11.5404 8.59053 11.0852 8.76642 10.6606C8.94231 10.236 9.20012 9.85013 9.52513 9.52513C9.85013 9.20012 10.236 8.94231 10.6606 8.76642C11.0852 8.59053 11.5404 8.5 12 8.5C12.4596 8.5 12.9148 8.59053 13.3394 8.76642C13.764 8.94231 14.1499 9.20012 14.4749 9.52513C14.7999 9.85013 15.0577 10.236 15.2336 10.6606C15.4095 11.0852 15.5 11.5404 15.5 12C15.5 12.4596 15.4095 12.9148 15.2336 13.3394C15.0577 13.764 14.7999 14.1499 14.4749 14.4749C14.1499 14.7999 13.764 15.0577 13.3394 15.2336C12.9148 15.4095 12.4596 15.5 12 15.5C11.5404 15.5 11.0852 15.4095 10.6606 15.2336C10.236 15.0577 9.85013 14.7999 9.52513 14.4749C9.20012 14.1499 8.94231 13.764 8.76642 13.3394C8.59053 12.9148 8.5 12.4596 8.5 12ZM10.875 10.5C10.875 10.8031 11.0906 11.0531 11.375 11.1125V12.625H11.25C10.9062 12.625 10.625 12.9062 10.625 13.25C10.625 13.5938 10.9062 13.875 11.25 13.875H12H12.75C13.0938 13.875 13.375 13.5938 13.375 13.25C13.375 12.9062 13.0938 12.625 12.75 12.625H12.625V10.5C12.625 10.1562 12.3438 9.875 12 9.875H11.5C11.1562 9.875 10.875 10.1562 10.875 10.5Z" fill="black"/>
</svg>
