<svg width="24" height="24" viewBox="0 0 24 24" fill="none" xmlns="http://www.w3.org/2000/svg">
<path d="M19.0312 4.96876C17.9093 3.85001 16.0905 3.85001 14.9687 4.96876L14.4999 5.43751L14.0905 5.03126C13.2124 4.15314 11.7874 4.15314 10.9093 5.03126L8.21866 7.71876C7.92491 8.01251 7.92491 8.48751 8.21866 8.77814C8.51241 9.06876 8.98741 9.07189 9.27803 8.77814L11.9687 6.09064C12.2624 5.79689 12.7374 5.79689 13.028 6.09064L13.4405 6.50001L9.82178 10.1156L13.8843 14.1781L19.0312 9.03126C20.153 7.90939 20.153 6.09064 19.0312 4.97189V4.96876ZM13.178 14.8844L9.11553 10.8219L7.10928 12.8281C5.60928 14.3281 4.58428 16.2406 4.16866 18.3219L4.01241 19.1031C3.96241 19.35 4.04053 19.6031 4.21866 19.7813C4.39678 19.9594 4.64991 20.0344 4.89678 19.9875L5.67803 19.8313C7.75928 19.4156 9.67178 18.3906 11.1718 16.8906L13.178 14.8844Z" fill="black"/>
</svg>
