<svg width="24" height="24" viewBox="0 0 24 24" fill="none" xmlns="http://www.w3.org/2000/svg">
<path d="M3 7.5156V17.1969C3 17.7594 3.31563 18.2906 3.84375 18.4875C6.5625 19.5031 9.28125 18.8094 12 18.1156C14.4938 17.4812 16.9875 16.8437 19.4781 17.525C20.1969 17.7219 21 17.2281 21 16.4812V6.8031C21 6.2406 20.6844 5.70935 20.1562 5.51248C17.4375 4.49685 14.7188 5.1906 12 5.88435C9.50625 6.51873 7.0125 7.1531 4.52188 6.47185C3.8 6.27498 3 6.76873 3 7.5156ZM7 17H5V15C6.10312 15 7 15.8969 7 17ZM5 11V8.99998H7C7 10.1031 6.10312 11 5 11ZM17 15C17 13.8969 17.8969 13 19 13V15H17ZM19 8.99998C17.8969 8.99998 17 8.1031 17 6.99998H19V8.99998ZM15 12C15 13.9344 13.6562 15.5 12 15.5C10.3438 15.5 9 13.9344 9 12C9 10.0656 10.3438 8.49998 12 8.49998C13.6562 8.49998 15 10.0656 15 12ZM10.875 10.5C10.875 10.8031 11.0906 11.0531 11.375 11.1125V12.625H11.25C10.9062 12.625 10.625 12.9062 10.625 13.25C10.625 13.5937 10.9062 13.875 11.25 13.875H12H12.75C13.0938 13.875 13.375 13.5937 13.375 13.25C13.375 12.9062 13.0938 12.625 12.75 12.625H12.625V10.5C12.625 10.1562 12.3438 9.87498 12 9.87498H11.5C11.1562 9.87498 10.875 10.1562 10.875 10.5Z" fill="black"/>
</svg>
