<svg width="24" height="24" viewBox="0 0 24 24" fill="none" xmlns="http://www.w3.org/2000/svg">
<path d="M5 6C3.89688 6 3 6.89688 3 8V16C3 17.1031 3.89688 18 5 18H19C20.1031 18 21 17.1031 21 16V8C21 6.89688 20.1031 6 19 6H5ZM6.5 11H11.5C11.775 11 12 11.225 12 11.5C12 11.775 11.775 12 11.5 12H6.5C6.225 12 6 11.775 6 11.5C6 11.225 6.225 11 6.5 11ZM6 14.5C6 14.225 6.225 14 6.5 14H17.5C17.775 14 18 14.225 18 14.5C18 14.775 17.775 15 17.5 15H6.5C6.225 15 6 14.775 6 14.5ZM14.75 9H17.25C17.6656 9 18 9.33437 18 9.75V11.25C18 11.6656 17.6656 12 17.25 12H14.75C14.3344 12 14 11.6656 14 11.25V9.75C14 9.33437 14.3344 9 14.75 9Z" fill="black"/>
</svg>
