<svg width="24" height="24" viewBox="0 0 24 24" fill="none" xmlns="http://www.w3.org/2000/svg">
<path d="M17.6031 4.11347C17.9 3.92909 18.2844 3.97284 18.5312 4.21972L19.7812 5.46972C20.0281 5.71659 20.0719 6.10097 19.8875 6.39784L18.6375 8.39784C18.5375 8.55722 18.3812 8.67284 18.2 8.72284L16.125 9.28847L14.0656 11.3478C14.1156 14.076 13.7344 20.001 9.5 20.001C6.4625 20.001 4 17.5385 4 14.501C4 10.2666 9.925 9.88534 12.6531 9.93222L14.7125 7.87597L15.2781 5.80409C15.3281 5.62284 15.4437 5.46659 15.6031 5.36659L17.6031 4.11659V4.11347ZM10.5 15.001C10.8978 15.001 11.2794 14.8429 11.5607 14.5616C11.842 14.2803 12 13.8988 12 13.501C12 13.1031 11.842 12.7216 11.5607 12.4403C11.2794 12.159 10.8978 12.001 10.5 12.001C10.1022 12.001 9.72064 12.159 9.43934 12.4403C9.15804 12.7216 9 13.1031 9 13.501C9 13.8988 9.15804 14.2803 9.43934 14.5616C9.72064 14.8429 10.1022 15.001 10.5 15.001Z" fill="black"/>
</svg>
