<svg width="24" height="24" viewBox="0 0 24 24" fill="none" xmlns="http://www.w3.org/2000/svg">
<path d="M6 6C6 4.89688 6.89688 4 8 4H16C17.1031 4 18 4.89688 18 6V18C18 19.1031 17.1031 20 16 20H8C6.89688 20 6 19.1031 6 18V6ZM12 14C12.2652 14 12.5196 14.1054 12.7071 14.2929C12.8946 14.4804 13 14.7348 13 15C13 15.2652 12.8946 15.5196 12.7071 15.7071C12.5196 15.8946 12.2652 16 12 16C11.7348 16 11.4804 15.8946 11.2929 15.7071C11.1054 15.5196 11 15.2652 11 15C11 14.7348 11.1054 14.4804 11.2929 14.2929C11.4804 14.1054 11.7348 14 12 14ZM12 18C12.394 18 12.7841 17.9224 13.1481 17.7716C13.512 17.6209 13.8427 17.3999 14.1213 17.1213C14.3999 16.8427 14.6209 16.512 14.7716 16.1481C14.9224 15.7841 15 15.394 15 15C15 14.606 14.9224 14.2159 14.7716 13.8519C14.6209 13.488 14.3999 13.1573 14.1213 12.8787C13.8427 12.6001 13.512 12.3791 13.1481 12.2284C12.7841 12.0776 12.394 12 12 12C11.606 12 11.2159 12.0776 10.8519 12.2284C10.488 12.3791 10.1573 12.6001 9.87868 12.8787C9.6001 13.1573 9.37913 13.488 9.22836 13.8519C9.0776 14.2159 9 14.606 9 15C9 15.394 9.0776 15.7841 9.22836 16.1481C9.37913 16.512 9.6001 16.8427 9.87868 17.1213C10.1573 17.3999 10.488 17.6209 10.8519 17.7716C11.2159 17.9224 11.606 18 12 18ZM9 6C8.44688 6 8 6.44688 8 7V9C8 9.55312 8.44688 10 9 10H15C15.5531 10 16 9.55312 16 9V7C16 6.44688 15.5531 6 15 6H9Z" fill="black"/>
</svg>
