<svg width="24" height="24" viewBox="0 0 24 24" fill="none" xmlns="http://www.w3.org/2000/svg">
<path d="M12 5C11.4469 5 11 5.44687 11 6V7.08437C8.1625 7.55937 6 10.0281 6 13V18C6 18.5531 6.44687 19 7 19C7.55313 19 8 18.5531 8 18V13C8 11.1375 9.275 9.56875 11 9.125V18C11 18.5531 11.4469 19 12 19C12.5531 19 13 18.5531 13 18V9.125C14.725 9.56875 16 11.1344 16 13V18C16 18.5531 16.4469 19 17 19C17.5531 19 18 18.5531 18 18V13C18 10.0281 15.8375 7.55937 13 7.08437V6C13 5.44687 12.5531 5 12 5Z" fill="black"/>
</svg>
