<svg width="24" height="24" viewBox="0 0 24 24" fill="none" xmlns="http://www.w3.org/2000/svg">
<path d="M2 6C2 4.89688 2.89688 4 4 4H13C14.1031 4 15 4.89688 15 6V12C15 13.1031 14.1031 14 13 14H8.33437L5.8 15.9C5.65 16.0125 5.44688 16.0312 5.275 15.9469C5.10313 15.8625 5 15.6906 5 15.5V14H4C2.89688 14 2 13.1031 2 12V6ZM10 15H13C14.6562 15 16 13.6562 16 12V8H20C21.1031 8 22 8.89687 22 10V16C22 17.1031 21.1031 18 20 18H19V19.5C19 19.6906 18.8938 19.8625 18.725 19.9469C18.5562 20.0312 18.3531 20.0125 18.2 19.9L15.6656 18H12C10.8969 18 10 17.1031 10 16V15ZM9.125 5.75C9.125 5.40625 8.84375 5.125 8.5 5.125C8.15625 5.125 7.875 5.40625 7.875 5.75V6.1875C7.6375 6.24062 7.4 6.325 7.18125 6.45312C6.74688 6.7125 6.37187 7.16563 6.375 7.825C6.37813 8.45937 6.75 8.85938 7.14687 9.09688C7.49062 9.30313 7.91875 9.43438 8.25938 9.53438L8.3125 9.55C8.70625 9.66875 8.99375 9.7625 9.1875 9.88438C9.34688 9.98438 9.36875 10.0531 9.37187 10.1406C9.375 10.2969 9.31563 10.3906 9.1875 10.4688C9.03125 10.5656 8.78438 10.625 8.51875 10.6156C8.17188 10.6031 7.84688 10.4938 7.42188 10.35C7.35 10.325 7.275 10.3 7.19688 10.275C6.86875 10.1656 6.51562 10.3438 6.40625 10.6687C6.29688 10.9937 6.475 11.35 6.8 11.4594C6.85938 11.4781 6.925 11.5 6.99062 11.525C7.25 11.6156 7.55 11.7188 7.87187 11.7875V12.25C7.87187 12.5938 8.15312 12.875 8.49687 12.875C8.84062 12.875 9.12187 12.5938 9.12187 12.25V11.8187C9.37187 11.7656 9.62188 11.6781 9.84688 11.5375C10.2937 11.2594 10.6312 10.7844 10.6219 10.1312C10.6125 9.49687 10.2563 9.0875 9.85313 8.83125C9.49375 8.60625 9.04375 8.46875 8.69375 8.3625L8.67188 8.35625C8.27187 8.23438 7.9875 8.14687 7.7875 8.02812C7.625 7.93125 7.62187 7.875 7.62187 7.81875C7.62187 7.70312 7.66563 7.61563 7.81563 7.52813C7.98438 7.42813 8.24063 7.36875 8.4875 7.37188C8.7875 7.375 9.11875 7.44062 9.4625 7.53437C9.79688 7.62188 10.1375 7.425 10.2281 7.09063C10.3187 6.75625 10.1188 6.41563 9.78438 6.325C9.58125 6.27188 9.35625 6.21875 9.125 6.17812V5.75Z" fill="black"/>
</svg>
