<svg width="24" height="24" viewBox="0 0 24 24" fill="none" xmlns="http://www.w3.org/2000/svg">
<path d="M5.70938 5.04375C6.13125 4.91562 6.5875 5.07812 6.83125 5.44687L12 13.1969L17.1687 5.44375C17.4125 5.07812 17.8687 4.9125 18.2906 5.04062C18.7125 5.16875 19 5.55937 19 6V18C19 18.5531 18.5531 19 18 19C17.4469 19 17 18.5531 17 18V9.30312L12.8313 15.5562C12.6469 15.8344 12.3344 16 12 16C11.6656 16 11.3531 15.8344 11.1687 15.5562L7 9.30312V18C7 18.5531 6.55313 19 6 19C5.44687 19 5 18.5531 5 18V6C5 5.55937 5.2875 5.17187 5.70938 5.04375Z" fill="black"/>
</svg>
