<svg width="24" height="24" viewBox="0 0 24 24" fill="none" xmlns="http://www.w3.org/2000/svg">
<path d="M5 6C4.44687 6 4 6.44687 4 7C4 7.55313 4.44687 8 5 8H8.0375C8.34062 8 8.62812 8.1375 8.81875 8.375L11.7188 12L8.81875 15.625C8.62812 15.8625 8.34062 16 8.0375 16H5C4.44687 16 4 16.4469 4 17C4 17.5531 4.44687 18 5 18H8.0375C8.95 18 9.80937 17.5844 10.3812 16.875L13.4812 13H16V14C16 14.4031 16.2437 14.7688 16.6187 14.925C16.9937 15.0813 17.4219 14.9938 17.7094 14.7094L19.7094 12.7094C19.8969 12.5219 20.0031 12.2688 20.0031 12.0031C20.0031 11.7375 19.8969 11.4844 19.7094 11.2969L17.7094 9.29688C17.4219 9.00938 16.9937 8.925 16.6187 9.08125C16.2437 9.2375 16 9.6 16 10.0062V11.0062H13.4812L10.3812 7.125C9.8125 6.4125 8.95 6 8.0375 6H5Z" fill="black"/>
</svg>
