<svg width="24" height="24" viewBox="0 0 24 24" fill="none" xmlns="http://www.w3.org/2000/svg">
<path d="M14.5 4C14.6562 4 14.8062 4.075 14.9 4.2C15.9844 5.64687 17.3406 6.54063 19.0719 7.68438C19.2344 7.79063 19.4 7.90313 19.5719 8.01562C20.475 8.61563 21 9.63125 21 10.7063C21 11.6 20.6469 12.4094 20.0688 13H8.93125C8.35625 12.4062 8 11.5969 8 10.7063C8 9.63125 8.52187 8.61563 9.42812 8.01562C9.59687 7.90313 9.76562 7.79375 9.92812 7.68438C11.6594 6.54063 13.0156 5.64687 14.1 4.2C14.1938 4.075 14.3438 4 14.5 4ZM11 20V17.75C11 17.3344 10.6656 17 10.25 17C9.83437 17 9.5 17.3344 9.5 17.75V20H8C7.44687 20 7 19.5531 7 19V15C7 14.4469 7.44687 14 8 14H21C21.5531 14 22 14.4469 22 15V19C22 19.5531 21.5531 20 21 20H19.5V17.75C19.5 17.3344 19.1656 17 18.75 17C18.3344 17 18 17.3344 18 17.75V20H16V18.1875C16 17.5938 15.7375 17.0312 15.2812 16.65L14.5 16L13.7188 16.65C13.2625 17.0312 13 17.5938 13 18.1875V20H11ZM4.2 4.1625C4.37813 4.02812 4.62187 4.02812 4.8 4.1625L5.3 4.5375C6.36875 5.34063 7 6.6 7 7.9375V8H2V7.9375C2 6.6 2.63125 5.34063 3.7 4.5375L4.2 4.1625ZM2 9H7V13.2688C6.40312 13.6156 6 14.2594 6 15V19C6 19.3 6.06563 19.5812 6.18125 19.8375C5.975 19.9437 5.74375 20 5.5 20H3.5C2.67188 20 2 19.3281 2 18.5V9.5V9Z" fill="black"/>
</svg>
