<svg width="24" height="24" viewBox="0 0 24 24" fill="none" xmlns="http://www.w3.org/2000/svg">
<path d="M16 16H7L5.16875 9.59062C5.05625 9.2 5 8.79375 5 8.38438C5 5.9625 6.9625 4 9.38438 4H9.49062C11.5531 4 13.35 5.40313 13.85 7.40313L14.8313 11.3344L15.3813 10.7063C15.775 10.2563 16.3406 10 16.9375 10H17.025C18.1156 10 19.0031 10.8844 19.0031 11.9781C19.0031 12.475 18.8156 12.9531 18.4781 13.3188L16 16ZM6 18C6 17.4469 6.44687 17 7 17H16C16.5531 17 17 17.4469 17 18V19C17 19.5531 16.5531 20 16 20H7C6.44687 20 6 19.5531 6 19V18Z" fill="black"/>
</svg>
