<svg width="24" height="24" viewBox="0 0 24 24" fill="none" xmlns="http://www.w3.org/2000/svg">
<path d="M4.33124 15.6625C5.63437 16.7906 7.70624 18.2406 9.52187 17.9656C9.71249 17.9375 9.89999 17.8875 10.0844 17.825C9.79687 17.4406 9.54374 17.0625 9.32812 16.7188C8.64374 15.625 8.42812 14.3688 8.51874 13.1688C7.87499 13.2969 7.29374 13.575 6.80937 13.9625C6.60624 14.125 6.29999 14.0031 6.34687 13.7438C6.54687 12.6969 7.37812 11.8406 8.47812 11.6719C8.55937 11.6594 8.64374 11.65 8.72499 11.6469L9.33124 7.54376C9.39374 7.11251 9.58124 6.52189 10.1125 6.10939C10.6937 5.66251 11.7031 5.15626 13.35 5.00626C13.325 4.98439 13.3 4.96251 13.275 4.94064C12.6437 4.45314 11.0125 3.64064 7.49062 4.17501C3.96874 4.70939 2.64062 5.96876 2.17812 6.62189C1.99999 6.87189 1.97499 7.18751 2.01874 7.49376L2.77499 12.6281C2.94687 13.7938 3.44687 14.8969 4.33124 15.6656V15.6625ZM7.07187 8.80001C7.20937 8.70314 7.40937 8.73751 7.44062 8.90314C7.44374 8.91876 7.44687 8.93751 7.44999 8.95314C7.54999 9.63439 7.08749 10.2656 6.41562 10.3688C5.74374 10.4719 5.11874 10 5.01874 9.32189C5.01562 9.30626 5.01562 9.28751 5.01249 9.27189C4.99374 9.10314 5.17499 9.00939 5.33437 9.06251C5.61562 9.15626 5.92187 9.18439 6.23124 9.13751C6.54062 9.09064 6.82812 8.97189 7.06874 8.80001H7.07187ZM10.175 16.1875C11.0937 17.6531 12.6594 19.6531 14.475 19.9281C16.2906 20.2031 18.3656 18.7563 19.6656 17.625C20.55 16.8594 21.05 15.7563 21.2219 14.5875L21.9781 9.45314C22.0219 9.14689 21.9969 8.83126 21.8187 8.58126C21.3562 7.92814 20.0281 6.66876 16.5062 6.13439C12.9844 5.60001 11.3562 6.41251 10.725 6.90001C10.4812 7.08751 10.3656 7.38126 10.3219 7.68751L9.56562 12.8219C9.39374 13.9875 9.55312 15.1906 10.1781 16.1875H10.175ZM14.6406 11.3531C14.4 11.1813 14.1156 11.0625 13.8031 11.0156C13.4906 10.9688 13.1844 10.9969 12.9062 11.0906C12.7469 11.1438 12.5656 11.05 12.5844 10.8813C12.5875 10.8656 12.5875 10.8469 12.5906 10.8313C12.6906 10.15 13.3156 9.68126 13.9875 9.78439C14.6594 9.88751 15.1219 10.5188 15.0219 11.2C15.0187 11.2156 15.0156 11.2344 15.0125 11.25C14.9812 11.4156 14.7812 11.45 14.6437 11.3531H14.6406ZM18.8969 11.8375C18.8656 12.0031 18.6656 12.0375 18.5281 11.9406C18.2875 11.7688 18.0031 11.65 17.6906 11.6031C17.3781 11.5563 17.0719 11.5844 16.7937 11.6781C16.6344 11.7313 16.4531 11.6375 16.4719 11.4688C16.475 11.4531 16.475 11.4344 16.4781 11.4188C16.5781 10.7375 17.2031 10.2688 17.875 10.3719C18.5469 10.475 19.0094 11.1063 18.9094 11.7875C18.9062 11.8031 18.9031 11.8219 18.9 11.8375H18.8969ZM18.5625 14.9438C17.95 16.3406 16.475 17.2094 14.9125 16.9719C13.35 16.7344 12.1906 15.4656 12.0062 13.95C11.975 13.6906 12.2844 13.5719 12.4812 13.7406C13.2281 14.3906 14.1562 14.8438 15.2 15C16.2437 15.1563 17.2656 15.0031 18.1656 14.6C18.4031 14.4938 18.6656 14.7 18.5594 14.9406L18.5625 14.9438Z" fill="black"/>
</svg>
