<svg width="24" height="24" viewBox="0 0 24 24" fill="none" xmlns="http://www.w3.org/2000/svg">
<path d="M4 6C4 4.89688 4.89688 4 6 4H18C19.1031 4 20 4.89688 20 6V15C20 16.1031 19.1031 17 18 17H13.6656L9.8 19.9C9.65 20.0125 9.44688 20.0312 9.275 19.9469C9.10313 19.8625 9 19.6906 9 19.5V17H6C4.89688 17 4 16.1031 4 15V6ZM9.46875 7.96875C9.175 8.2625 9.175 8.7375 9.46875 9.02812L10.9375 10.4969L9.46875 11.9656C9.175 12.2594 9.175 12.7344 9.46875 13.025C9.7625 13.3156 10.2375 13.3187 10.5281 13.025L11.9969 11.5563L13.4656 13.025C13.7594 13.3187 14.2344 13.3187 14.525 13.025C14.8156 12.7312 14.8187 12.2562 14.525 11.9656L13.0562 10.4969L14.525 9.02812C14.8187 8.73438 14.8187 8.25938 14.525 7.96875C14.2312 7.67812 13.7562 7.675 13.4656 7.96875L11.9969 9.4375L10.5281 7.96875C10.2344 7.675 9.75938 7.675 9.46875 7.96875Z" fill="black"/>
</svg>
