<svg width="24" height="24" viewBox="0 0 24 24" fill="none" xmlns="http://www.w3.org/2000/svg">
<path d="M11.6469 4.14687C11.8406 3.95312 12.1594 3.95312 12.3531 4.14687L14.8531 6.64687C14.9312 6.72499 14.9812 6.82812 14.9969 6.93749L16.2531 17H7.74688L9.00312 6.93749C9.01562 6.82812 9.06562 6.72499 9.14687 6.64687L11.6469 4.14687ZM10.75 12.5C10.3344 12.5 10 12.8344 10 13.25C10 13.6656 10.3344 14 10.75 14H13.25C13.6656 14 14 13.6656 14 13.25C14 12.8344 13.6656 12.5 13.25 12.5H10.75ZM7 18H17C17.5531 18 18 18.4469 18 19C18 19.5531 17.5531 20 17 20H7C6.44687 20 6 19.5531 6 19C6 18.4469 6.44687 18 7 18Z" fill="black"/>
</svg>
