<svg width="24" height="24" viewBox="0 0 24 24" fill="none" xmlns="http://www.w3.org/2000/svg">
<path d="M19 10.5C19 11.9344 18.5344 13.2594 17.75 14.3344L21.7062 18.2937C22.0969 18.6844 22.0969 19.3188 21.7062 19.7094C21.3156 20.1 20.6812 20.1 20.2906 19.7094L16.3344 15.75C15.3719 16.4531 14.2063 16.9 12.9438 16.9875C12.9781 16.8344 13 16.6719 13 16.5031C13 16.4594 13 16.4156 12.9969 16.3719C13 16.3312 13 16.2938 13 16.2531V9.75C13 9.1875 12.7281 8.65938 12.2719 8.33125C11.8156 8.00313 11.2281 7.9125 10.6938 8.09062L6.05625 9.6375C6.47813 6.45625 9.20312 4 12.5 4C16.0906 4 19 6.90937 19 10.5ZM12 9.75C12 9.50938 11.8844 9.28125 11.6875 9.14062C11.4906 9 11.2406 8.9625 11.0125 9.0375L5.0125 11.0375C4.70625 11.1406 4.5 11.4281 4.5 11.75V13.25V17.0469C4.34063 17.0156 4.17188 17 4 17C2.89688 17 2 17.6719 2 18.5C2 19.3281 2.89688 20 4 20C5.10312 20 6 19.3281 6 18.5V13.7906L10.5 12.2906V15.0469C10.3406 15.0156 10.1719 15 10 15C8.89688 15 8 15.6719 8 16.5C8 17.3281 8.89688 18 10 18C11.1031 18 12 17.3281 12 16.5C12 16.4531 11.9969 16.4063 11.9906 16.3625C11.9969 16.325 12 16.2875 12 16.25V11.25V9.75Z" fill="black"/>
</svg>
