<svg width="24" height="24" viewBox="0 0 24 24" fill="none" xmlns="http://www.w3.org/2000/svg">
<path d="M10.25 5H5.75C5.33437 5 5 5.33437 5 5.75V10.25C5 10.5531 5.18125 10.8281 5.4625 10.9437C5.74375 11.0594 6.06562 10.9969 6.28125 10.7812L7.53125 9.53125L10 12L7.53125 14.4688L6.28125 13.2188C6.06562 13.0031 5.74375 12.9406 5.4625 13.0562C5.18125 13.1719 5 13.4469 5 13.75V18.25C5 18.6656 5.33437 19 5.75 19H10.25C10.5531 19 10.8281 18.8188 10.9437 18.5375C11.0594 18.2563 10.9969 17.9344 10.7812 17.7188L9.53125 16.4688L12 14L14.4688 16.4688L13.2188 17.7188C13.0031 17.9344 12.9406 18.2563 13.0562 18.5375C13.1719 18.8188 13.4469 19 13.75 19H18.25C18.6656 19 19 18.6656 19 18.25V13.75C19 13.4469 18.8188 13.1719 18.5375 13.0562C18.2563 12.9406 17.9344 13.0031 17.7188 13.2188L16.4688 14.4688L14 12L16.4688 9.53125L17.7188 10.7812C17.9344 10.9969 18.2563 11.0594 18.5375 10.9437C18.8188 10.8281 19 10.5531 19 10.25V5.75C19 5.33437 18.6656 5 18.25 5H13.75C13.4469 5 13.1719 5.18125 13.0562 5.4625C12.9406 5.74375 13.0031 6.06562 13.2188 6.28125L14.4688 7.53125L12 10L9.53125 7.53125L10.7812 6.28125C10.9969 6.06562 11.0594 5.74375 10.9437 5.4625C10.8281 5.18125 10.5531 5 10.25 5Z" fill="black"/>
</svg>
