<svg width="24" height="24" viewBox="0 0 24 24" fill="none" xmlns="http://www.w3.org/2000/svg">
<path d="M18 5.00051C18 4.69114 17.8594 4.40051 17.6156 4.21301C17.3719 4.02551 17.0563 3.95676 16.7563 4.03176L12.7562 5.03176C12.3125 5.14114 12 5.54114 12 6.00051V8.00051V15.2411C11.5469 15.088 11.0375 15.0005 10.5 15.0005C8.56562 15.0005 7 16.1193 7 17.5005C7 18.8818 8.56562 20.0005 10.5 20.0005C12.4344 20.0005 14 18.8818 14 17.5005V8.78176L17.2437 7.96926C17.6875 7.85989 18 7.45989 18 7.00051V5.00051Z" fill="black"/>
</svg>
