<svg width="24" height="24" viewBox="0 0 24 24" fill="none" xmlns="http://www.w3.org/2000/svg">
<path d="M15.75 14.3344C16.5375 13.2594 17 11.9344 17 10.5C17 6.90937 14.0906 4 10.5 4C6.90937 4 4 6.90937 4 10.5C4 14.0906 6.90937 17 10.5 17C11.9344 17 13.2594 16.5344 14.3344 15.75L18.2937 19.7063C18.6844 20.0969 19.3188 20.0969 19.7094 19.7063C20.1 19.3156 20.1 18.6812 19.7094 18.2906L15.75 14.3344ZM9.05625 8.06563C9.2125 7.975 9.40313 7.97813 9.55625 8.06563L13 10.0656C13.1531 10.1562 13.25 10.3187 13.25 10.4969C13.25 10.675 13.1562 10.8406 13 10.9281L9.55625 12.9281C9.40313 13.0188 9.20937 13.0188 9.05625 12.9281C8.90313 12.8375 8.80625 12.675 8.80625 12.4937V8.5C8.80625 8.32188 8.90313 8.15625 9.05625 8.06563Z" fill="black"/>
</svg>
