<svg width="24" height="24" viewBox="0 0 24 24" fill="none" xmlns="http://www.w3.org/2000/svg">
<path d="M12 20C10.7969 20 9.65625 19.7344 8.63438 19.2594C10.7313 19.0781 13.3156 17.7531 15.5344 15.5344C17.7531 13.3156 19.0781 10.7281 19.2594 8.63438C19.7344 9.65625 20 10.7969 20 12C20 16.4187 16.4187 20 12 20ZM6.33437 17.65C5.7375 17.0437 5.49687 15.9062 5.9625 14.275C6.41875 12.675 7.5125 10.8312 9.17188 9.17188C10.8312 7.5125 12.675 6.41875 14.275 5.9625C15.9125 5.49375 17.0531 5.74063 17.6562 6.34375C18.2594 6.94687 18.5063 8.09062 18.0375 9.725C17.5813 11.325 16.4875 13.1688 14.8281 14.8281C13.1688 16.4875 11.325 17.5813 9.725 18.0375C8.09687 18.5031 6.95625 18.2625 6.35 17.6656C6.34375 17.6594 6.3375 17.6531 6.33437 17.65ZM4.74063 15.3656C4.26563 14.3438 4 13.2031 4 12C4 7.58125 7.58125 4 12 4C13.2031 4 14.3438 4.26563 15.3656 4.74063C13.2688 4.92188 10.6844 6.24687 8.46562 8.46562C6.24687 10.6844 4.92188 13.2719 4.74063 15.3656Z" fill="black"/>
</svg>
