<svg width="24" height="24" viewBox="0 0 24 24" fill="none" xmlns="http://www.w3.org/2000/svg">
<path d="M4 6C4 4.89688 4.89688 4 6 4H18C19.1031 4 20 4.89688 20 6V15C20 16.1031 19.1031 17 18 17H13.6656L9.8 19.9C9.65 20.0125 9.44688 20.0312 9.275 19.9469C9.10313 19.8625 9 19.6906 9 19.5V17H6C4.89688 17 4 16.1031 4 15V6ZM9 7.5C8.44687 7.5 8 7.94687 8 8.5V10C8 10.5531 8.44687 11 9 11H10V11.2281C10 11.5938 9.73437 11.9062 9.37187 11.9688L9.125 12.0094C8.71562 12.0781 8.44063 12.4625 8.50938 12.8719C8.57813 13.2812 8.9625 13.5563 9.37187 13.4875L9.61875 13.4469C10.7031 13.2656 11.5 12.3281 11.5 11.2281V10V9.25V8.5C11.5 7.94687 11.0531 7.5 10.5 7.5H9ZM16 10V9.25V8.5C16 7.94687 15.5531 7.5 15 7.5H13.5C12.9469 7.5 12.5 7.94687 12.5 8.5V10C12.5 10.5531 12.9469 11 13.5 11H14.5V11.2281C14.5 11.5938 14.2344 11.9062 13.8719 11.9688L13.625 12.0094C13.2156 12.0781 12.9406 12.4625 13.0094 12.8719C13.0781 13.2812 13.4625 13.5563 13.8719 13.4875L14.1187 13.4469C15.2031 13.2656 16 12.3281 16 11.2281V10Z" fill="black"/>
</svg>
