<svg width="24" height="24" viewBox="0 0 24 24" fill="none" xmlns="http://www.w3.org/2000/svg">
<path d="M19.4281 4.02812L13.3562 6.3625L13.4281 5.44687C13.4594 5.04688 13.0281 4.775 12.6781 4.975L7.16563 8.16875C5.20625 9.30312 4 11.3938 4 13.6562C4 17.1594 6.84063 20 10.3438 20C12.6062 20 14.7 18.7938 15.8344 16.8344L19.025 11.3219C19.2281 10.975 18.9563 10.5406 18.5531 10.5719L17.6375 10.6438L19.9719 4.57187C19.9906 4.525 20 4.47188 20 4.42188C20 4.1875 19.8125 4 19.5781 4C19.525 4 19.475 4.00937 19.4281 4.02812ZM10 10C11.0609 10 12.0783 10.4214 12.8284 11.1716C13.5786 11.9217 14 12.9391 14 14C14 15.0609 13.5786 16.0783 12.8284 16.8284C12.0783 17.5786 11.0609 18 10 18C8.93913 18 7.92172 17.5786 7.17157 16.8284C6.42143 16.0783 6 15.0609 6 14C6 12.9391 6.42143 11.9217 7.17157 11.1716C7.92172 10.4214 8.93913 10 10 10ZM10 13C10 12.7348 9.89464 12.4804 9.70711 12.2929C9.51957 12.1054 9.26522 12 9 12C8.73478 12 8.48043 12.1054 8.29289 12.2929C8.10536 12.4804 8 12.7348 8 13C8 13.2652 8.10536 13.5196 8.29289 13.7071C8.48043 13.8946 8.73478 14 9 14C9.26522 14 9.51957 13.8946 9.70711 13.7071C9.89464 13.5196 10 13.2652 10 13ZM10.5 16C10.6326 16 10.7598 15.9473 10.8536 15.8536C10.9473 15.7598 11 15.6326 11 15.5C11 15.3674 10.9473 15.2402 10.8536 15.1464C10.7598 15.0527 10.6326 15 10.5 15C10.3674 15 10.2402 15.0527 10.1464 15.1464C10.0527 15.2402 10 15.3674 10 15.5C10 15.6326 10.0527 15.7598 10.1464 15.8536C10.2402 15.9473 10.3674 16 10.5 16Z" fill="black"/>
</svg>
