<svg width="24" height="24" viewBox="0 0 24 24" fill="none" xmlns="http://www.w3.org/2000/svg">
<path d="M18.975 5.02495C17.6094 3.65933 15.3907 3.65933 14.025 5.02495L13.8782 5.17183L18.8282 10.1218L18.975 9.97495C20.3407 8.60933 20.3407 6.39058 18.975 5.02495ZM13.1719 5.87808L13.025 6.02495C12.2625 6.78745 11.925 7.81245 12.0125 8.8062L15.1938 11.9875C16.1875 12.075 17.2125 11.7375 17.975 10.975L18.1219 10.8281L13.1719 5.87808ZM11.1594 9.36558L10.7438 9.8437L4.24379 17.3437C3.90004 17.7406 3.92192 18.3343 4.29379 18.7062L5.29379 19.7062C5.66567 20.0781 6.25942 20.1 6.65629 19.7562L11 15.9906V19C11 19.5531 11.4469 20 12 20C12.5532 20 13 19.5531 13 19V14.2562L14.1563 13.2562L14.6344 12.8406L11.1594 9.36558Z" fill="black"/>
</svg>
