<svg width="24" height="24" viewBox="0 0 24 24" fill="none" xmlns="http://www.w3.org/2000/svg">
<path d="M9.5 4.75C9.5 4.33437 9.16563 4 8.75 4C8.33437 4 8 4.33437 8 4.75V6C6.89687 6 6 6.89687 6 8H4.75C4.33437 8 4 8.33437 4 8.75C4 9.16563 4.33437 9.5 4.75 9.5H6V11.25H4.75C4.33437 11.25 4 11.5844 4 12C4 12.4156 4.33437 12.75 4.75 12.75H6V14.5H4.75C4.33437 14.5 4 14.8344 4 15.25C4 15.6656 4.33437 16 4.75 16H6C6 17.1031 6.89687 18 8 18V19.25C8 19.6656 8.33437 20 8.75 20C9.16563 20 9.5 19.6656 9.5 19.25V18H11.25V19.25C11.25 19.6656 11.5844 20 12 20C12.4156 20 12.75 19.6656 12.75 19.25V18H14.5V19.25C14.5 19.6656 14.8344 20 15.25 20C15.6656 20 16 19.6656 16 19.25V18C17.1031 18 18 17.1031 18 16H19.25C19.6656 16 20 15.6656 20 15.25C20 14.8344 19.6656 14.5 19.25 14.5H18V12.75H19.25C19.6656 12.75 20 12.4156 20 12C20 11.5844 19.6656 11.25 19.25 11.25H18V9.5H19.25C19.6656 9.5 20 9.16563 20 8.75C20 8.33437 19.6656 8 19.25 8H18C18 6.89687 17.1031 6 16 6V4.75C16 4.33437 15.6656 4 15.25 4C14.8344 4 14.5 4.33437 14.5 4.75V6H12.75V4.75C12.75 4.33437 12.4156 4 12 4C11.5844 4 11.25 4.33437 11.25 4.75V6H9.5V4.75ZM10.5 9.5C10.7 9.5 10.8781 9.61875 10.9594 9.8L12.2719 12.8L12.7094 13.8C12.8188 14.0531 12.7063 14.3469 12.4531 14.4594C12.2 14.5719 11.9062 14.4531 11.7937 14.2031L11.4844 13.5H9.51562L9.20937 14.2C9.1 14.4531 8.80313 14.5688 8.55 14.4563C8.29688 14.3438 8.18125 14.05 8.29375 13.7969L8.73125 12.7969L10.0437 9.79688C10.1219 9.61562 10.3031 9.49687 10.5031 9.49687L10.5 9.5ZM11.0469 12.5L10.5 11.2469L9.95312 12.5H11.05H11.0469ZM14.5 9.5C14.775 9.5 15 9.725 15 10V14C15 14.275 14.775 14.5 14.5 14.5C14.225 14.5 14 14.275 14 14V10C14 9.725 14.225 9.5 14.5 9.5Z" fill="black"/>
</svg>
