<svg width="24" height="24" viewBox="0 0 24 24" fill="none" xmlns="http://www.w3.org/2000/svg">
<path d="M4 6C4 4.89688 4.89688 4 6 4H18C19.1031 4 20 4.89688 20 6V15C20 16.1031 19.1031 17 18 17H13.6656L9.8 19.9C9.65 20.0125 9.44688 20.0312 9.275 19.9469C9.10313 19.8625 9 19.6906 9 19.5V17H6C4.89688 17 4 16.1031 4 15V6ZM10.25 8C9.83437 8 9.5 8.33437 9.5 8.75C9.5 9.16563 9.83437 9.5 10.25 9.5H11.9406L9.22188 12.2188C8.92813 12.5125 8.92813 12.9875 9.22188 13.2781C9.51563 13.5687 9.99062 13.5719 10.2812 13.2781L13 10.5594V12.25C13 12.6656 13.3344 13 13.75 13C14.1656 13 14.5 12.6656 14.5 12.25V8.75C14.5 8.33437 14.1656 8 13.75 8H10.25Z" fill="black"/>
</svg>
