<svg width="24" height="24" viewBox="0 0 24 24" fill="none" xmlns="http://www.w3.org/2000/svg">
<path d="M10.75 4.99922C10.3344 4.99922 10 5.33359 10 5.74922C10 6.16484 10.3344 6.49922 10.75 6.49922H12.5531L13.0656 7.44609L10 9.99922L8.58437 8.58359C8.20937 8.20859 7.7 7.99922 7.16875 7.99922H4C3.44687 7.99922 3 8.44609 3 8.99922V9.99922H6C8.7625 9.99922 11 12.2367 11 14.9992C11 15.343 10.9656 15.6773 10.9 15.9992H13.1C13.0344 15.6773 13 15.343 13 14.9992C13 13.368 13.7812 11.918 14.9906 11.0055L15.4719 11.8992C14.575 12.6336 14 13.7492 14 14.9992C14 17.2086 15.7906 18.9992 18 18.9992C20.2094 18.9992 22 17.2086 22 14.9992C22 12.7898 20.2094 10.9992 18 10.9992C17.5781 10.9992 17.1719 11.0648 16.7906 11.1867L15.0688 7.99922H17C17.5531 7.99922 18 7.55234 18 6.99922V5.99922C18 5.44609 17.5531 4.99922 17 4.99922H16.3625C16.1281 4.99922 15.9031 5.08047 15.7219 5.23047L14.2406 6.46484L13.8031 5.65234C13.5844 5.24922 13.1625 4.99609 12.7031 4.99609H10.75V4.99922ZM16.4594 13.7242L17.3406 15.3555C17.5375 15.7211 17.9938 15.8555 18.3563 15.6586C18.7188 15.4617 18.8562 15.0055 18.6594 14.643L17.7781 13.0117C17.85 13.0023 17.925 12.9992 18 12.9992C19.1031 12.9992 20 13.8961 20 14.9992C20 16.1023 19.1031 16.9992 18 16.9992C16.8969 16.9992 16 16.1023 16 14.9992C16 14.5148 16.1719 14.0711 16.4594 13.7242ZM7.85313 15.7492C7.55625 16.4836 6.8375 16.9992 6 16.9992C4.89687 16.9992 4 16.1023 4 14.9992C4 13.8961 4.89687 12.9992 6 12.9992C6.84062 12.9992 7.55938 13.5148 7.85313 14.2492H9.92812C9.57812 12.3992 7.95312 10.9992 6 10.9992C3.79063 10.9992 2 12.7898 2 14.9992C2 17.2086 3.79063 18.9992 6 18.9992C7.95312 18.9992 9.57812 17.5992 9.93125 15.7492H7.85313ZM6 15.9992C6.26522 15.9992 6.51957 15.8939 6.70711 15.7063C6.89464 15.5188 7 15.2644 7 14.9992C7 14.734 6.89464 14.4796 6.70711 14.2921C6.51957 14.1046 6.26522 13.9992 6 13.9992C5.73478 13.9992 5.48043 14.1046 5.29289 14.2921C5.10536 14.4796 5 14.734 5 14.9992C5 15.2644 5.10536 15.5188 5.29289 15.7063C5.48043 15.8939 5.73478 15.9992 6 15.9992Z" fill="black"/>
</svg>
