<svg width="24" height="24" viewBox="0 0 24 24" fill="none" xmlns="http://www.w3.org/2000/svg">
<path d="M16.9844 5C13.2906 5 10.2688 7.875 10.0156 11.5094C11.6875 11.6469 13 13.0438 13 14.75C13 15.6219 12.6562 16.4156 12.0938 17C13.3531 18.2375 15.0781 19 16.9812 19C18.875 19 20.5906 18.2438 21.85 17.0188C22.0063 16.8656 22.0469 16.6281 21.9469 16.4344C21.8469 16.2406 21.6312 16.1312 21.4156 16.1687C21.1094 16.2219 20.7969 16.25 20.475 16.25C17.4469 16.25 14.9906 13.7875 14.9906 10.75C14.9906 8.69375 16.1156 6.90313 17.7812 5.95938C17.9719 5.85 18.0688 5.63125 18.0219 5.41875C17.975 5.20625 17.7937 5.04688 17.575 5.02813C17.3812 5.0125 17.1812 5.00312 16.9812 5.00312L16.9844 5ZM4 17H9.75C10.9937 17 12 15.9937 12 14.75C12 13.5063 10.9937 12.5 9.75 12.5C9.43437 12.5 9.13438 12.5656 8.8625 12.6812C8.525 11.7031 7.59375 11 6.5 11C5.29062 11 4.28125 11.8594 4.05 13C4.03437 13 4.01562 13 4 13C2.89688 13 2 13.8969 2 15C2 16.1031 2.89688 17 4 17Z" fill="black"/>
</svg>
