<svg width="24" height="24" viewBox="0 0 24 24" fill="none" xmlns="http://www.w3.org/2000/svg">
<path d="M4 6C4 4.89688 4.89688 4 6 4H18C19.1031 4 20 4.89688 20 6V15C20 16.1031 19.1031 17 18 17H13.6656L9.8 19.9C9.65 20.0125 9.44688 20.0312 9.275 19.9469C9.10313 19.8625 9 19.6906 9 19.5V17H6C4.89688 17 4 16.1031 4 15V6ZM8.5 9.41563C8.5 9.92188 8.70312 10.4094 9.05937 10.7688L11.6438 13.3531C11.8375 13.5469 12.1563 13.5469 12.35 13.3531L14.9344 10.7688C15.2937 10.4094 15.4937 9.92188 15.4937 9.41563C15.4937 8.35938 14.6375 7.5 13.5781 7.5C13.0719 7.5 12.5844 7.70312 12.225 8.05937L11.9938 8.29063L11.7625 8.05937C11.4031 7.7 10.9156 7.5 10.4094 7.5C9.35313 7.5 8.49375 8.35625 8.49375 9.41563H8.5Z" fill="black"/>
</svg>
