<svg width="24" height="24" viewBox="0 0 24 24" fill="none" xmlns="http://www.w3.org/2000/svg">
<path d="M14.0562 5.4625C14.1719 5.18125 14.4469 5 14.75 5H18.25C18.6656 5 19 5.33437 19 5.75V9.25C19 9.55312 18.8188 9.82812 18.5375 9.94375C18.2563 10.0594 17.9344 9.99687 17.7188 9.78125L16.675 8.7375L15.0312 10.3812C15.6406 11.2687 16 12.3406 16 13.5C16 16.5375 13.5375 19 10.5 19C7.4625 19 5 16.5375 5 13.5C5 10.4625 7.4625 8 10.5 8C11.6562 8 12.7312 8.35625 13.6187 8.96875L15.2625 7.325L14.2188 6.28125C14.0031 6.06562 13.9406 5.74375 14.0562 5.4625ZM10.5 17C10.9596 17 11.4148 16.9095 11.8394 16.7336C12.264 16.5577 12.6499 16.2999 12.9749 15.9749C13.2999 15.6499 13.5577 15.264 13.7336 14.8394C13.9095 14.4148 14 13.9596 14 13.5C14 13.0404 13.9095 12.5852 13.7336 12.1606C13.5577 11.736 13.2999 11.3501 12.9749 11.0251C12.6499 10.7001 12.264 10.4423 11.8394 10.2664C11.4148 10.0905 10.9596 10 10.5 10C10.0404 10 9.58525 10.0905 9.16061 10.2664C8.73597 10.4423 8.35013 10.7001 8.02513 11.0251C7.70012 11.3501 7.44231 11.736 7.26642 12.1606C7.09053 12.5852 7 13.0404 7 13.5C7 13.9596 7.09053 14.4148 7.26642 14.8394C7.44231 15.264 7.70012 15.6499 8.02513 15.9749C8.35013 16.2999 8.73597 16.5577 9.16061 16.7336C9.58525 16.9095 10.0404 17 10.5 17Z" fill="black"/>
</svg>
