<svg width="24" height="24" viewBox="0 0 24 24" fill="none" xmlns="http://www.w3.org/2000/svg">
<path d="M4.12812 5.19375C4.04375 5.06875 4 4.91875 4 4.76875C4 4.34375 4.34375 4 4.76875 4H8.18437C8.53437 4 8.8625 4.18437 9.04063 4.48438L11.1813 8.05C9.675 8.24063 8.32812 8.94375 7.325 9.98438L4.12812 5.19375ZM19.8687 5.19375L16.675 9.98438C15.6719 8.94375 14.325 8.24063 12.8188 8.05L14.9594 4.48438C15.1406 4.18437 15.4656 4 15.8156 4H19.2312C19.6562 4 20 4.34375 20 4.76875C20 4.91875 19.9563 5.06875 19.8719 5.19375H19.8687ZM6.5 14.5C6.5 13.0413 7.07946 11.6424 8.11091 10.6109C9.14236 9.57946 10.5413 9 12 9C13.4587 9 14.8576 9.57946 15.8891 10.6109C16.9205 11.6424 17.5 13.0413 17.5 14.5C17.5 15.9587 16.9205 17.3576 15.8891 18.3891C14.8576 19.4205 13.4587 20 12 20C10.5413 20 9.14236 19.4205 8.11091 18.3891C7.07946 17.3576 6.5 15.9587 6.5 14.5ZM12.2625 11.5344C12.1562 11.3156 11.8469 11.3156 11.7375 11.5344L11.0375 12.9531C10.9938 13.0406 10.9125 13.1 10.8187 13.1125L9.25 13.3406C9.00938 13.375 8.91563 13.6687 9.0875 13.8406L10.2219 14.9469C10.2906 15.0156 10.3219 15.1094 10.3063 15.2063L10.0375 16.7656C9.99687 17.0031 10.2469 17.1875 10.4625 17.075L11.8625 16.3375C11.9469 16.2937 12.05 16.2937 12.1344 16.3375L13.5344 17.075C13.75 17.1875 14 17.0063 13.9594 16.7656L13.6906 15.2063C13.675 15.1125 13.7062 15.0156 13.775 14.9469L14.9094 13.8406C15.0844 13.6719 14.9875 13.3781 14.7469 13.3406L13.1812 13.1125C13.0875 13.1 13.0031 13.0375 12.9625 12.9531L12.2625 11.5344Z" fill="black"/>
</svg>
