<svg width="24" height="24" viewBox="0 0 24 24" fill="none" xmlns="http://www.w3.org/2000/svg">
<path d="M17.7501 4C17.447 4 17.172 4.18125 17.0564 4.4625C16.9408 4.74375 17.0033 5.06562 17.2189 5.28125L18.4376 6.5L17.7439 7.19375C16.872 6.45 15.7376 6 14.5001 6C11.7376 6 9.50013 8.2375 9.50013 11C9.50013 13.5062 11.3439 15.5813 13.7501 15.9438V16.75H13.0001C12.5845 16.75 12.2501 17.0844 12.2501 17.5C12.2501 17.9156 12.5845 18.25 13.0001 18.25H13.7501V19.25C13.7501 19.6656 14.0845 20 14.5001 20C14.9158 20 15.2501 19.6656 15.2501 19.25V18.25H16.0001C16.4158 18.25 16.7501 17.9156 16.7501 17.5C16.7501 17.0844 16.4158 16.75 16.0001 16.75H15.2501V15.9438C17.6564 15.5813 19.5001 13.5062 19.5001 11C19.5001 10.0188 19.2189 9.10313 18.7283 8.33125L19.5001 7.55938L20.7189 8.77812C20.9345 8.99375 21.2564 9.05625 21.5376 8.94063C21.8189 8.825 22.0001 8.55 22.0001 8.24687V4.75C22.0001 4.33437 21.6658 4 21.2501 4H17.7501ZM14.5001 8C14.8941 8 15.2842 8.0776 15.6482 8.22836C16.0122 8.37913 16.3429 8.6001 16.6215 8.87868C16.9 9.15726 17.121 9.48797 17.2718 9.85195C17.4225 10.2159 17.5001 10.606 17.5001 11C17.5001 11.394 17.4225 11.7841 17.2718 12.1481C17.121 12.512 16.9 12.8427 16.6215 13.1213C16.3429 13.3999 16.0122 13.6209 15.6482 13.7716C15.2842 13.9224 14.8941 14 14.5001 14C14.1062 14 13.7161 13.9224 13.3521 13.7716C12.9881 13.6209 12.6574 13.3999 12.3788 13.1213C12.1002 12.8427 11.8793 12.512 11.7285 12.1481C11.5777 11.7841 11.5001 11.394 11.5001 11C11.5001 10.606 11.5777 10.2159 11.7285 9.85195C11.8793 9.48797 12.1002 9.15726 12.3788 8.87868C12.6574 8.6001 12.9881 8.37913 13.3521 8.22836C13.7161 8.0776 14.1062 8 14.5001 8ZM7.96576 4.56563C7.88763 4.375 7.70638 4.25 7.50013 4.25C7.29388 4.25 7.11263 4.375 7.03451 4.56563L6.11576 6.87812L3.73763 6.15313C3.54076 6.09375 3.32826 6.15937 3.20013 6.31875C3.07201 6.47812 3.05638 6.7 3.15638 6.87812L4.39076 9.0375L2.34076 10.45C2.17201 10.5656 2.09076 10.7719 2.13763 10.9719C2.18451 11.1719 2.34701 11.3219 2.54701 11.3531L5.00638 11.7344L4.83138 14.2188C4.81576 14.4219 4.92826 14.6156 5.11263 14.7031C5.29701 14.7906 5.51576 14.7594 5.66888 14.6219L7.50013 12.9406L9.33138 14.625C9.45951 14.7437 9.64076 14.7844 9.80638 14.7375C8.98763 13.7125 8.50013 12.4125 8.50013 11C8.50013 9.1 9.38451 7.40625 10.7626 6.30625L8.88451 6.87812L7.96576 4.56563Z" fill="black"/>
</svg>
