<svg width="24" height="24" viewBox="0 0 24 24" fill="none" xmlns="http://www.w3.org/2000/svg">
<path d="M12 5C12.3906 5 12.7531 5.2 12.9625 5.53125L19.7312 16.325C19.9062 16.6031 20 16.925 20 17.2531C20 18.2188 19.2188 19 18.2531 19H5.74688C4.78125 19 4 18.2188 4 17.2531C4 16.925 4.09375 16.6031 4.26875 16.325L11.0375 5.53125C11.2438 5.2 11.6094 5 12 5ZM14.0312 11L12 7.7625L9.52812 11.7031L10.1 12.4656C10.3 12.7312 10.7 12.7312 10.9 12.4656L11.7 11.4C11.8875 11.1469 12.1844 11 12.5 11H14.0312Z" fill="black"/>
</svg>
