<svg width="24" height="24" viewBox="0 0 24 24" fill="none" xmlns="http://www.w3.org/2000/svg">
<path d="M18 5.00005C18 4.69068 17.8594 4.40005 17.6156 4.21255C17.3719 4.02505 17.0562 3.9563 16.7562 4.0313L12.7562 5.0313C12.3125 5.14068 12 5.54068 12 6.00005V8.00005V11.0469L3.21249 4.15943C2.88749 3.90318 2.41562 3.96255 2.15937 4.28755C1.90312 4.61255 1.96249 5.08443 2.28749 5.34068L20.7875 19.8407C21.1125 20.0969 21.5844 20.0376 21.8406 19.7126C22.0969 19.3876 22.0375 18.9157 21.7125 18.6594L14 12.6157V8.7813L17.2437 7.9688C17.6875 7.85943 18 7.45943 18 7.00005V5.00005ZM10.5 15.0001C8.56562 15.0001 6.99999 16.1188 6.99999 17.5001C6.99999 18.8813 8.56562 20.0001 10.5 20.0001C12.4344 20.0001 14 18.8813 14 17.5001V16.8501L11.9312 15.2188C11.4937 15.0782 11.0094 15.0001 10.5 15.0001Z" fill="black"/>
</svg>
