<svg width="24" height="24" viewBox="0 0 24 24" fill="none" xmlns="http://www.w3.org/2000/svg">
<path d="M17 10.5C17 11.9344 16.5344 13.2594 15.75 14.3344L19.7063 18.2937C20.0969 18.6844 20.0969 19.3188 19.7063 19.7094C19.3156 20.1 18.6812 20.1 18.2906 19.7094L14.3344 15.75C13.2594 16.5375 11.9344 17 10.5 17C6.90937 17 4 14.0906 4 10.5C4 6.90937 6.90937 4 10.5 4C14.0906 4 17 6.90937 17 10.5ZM13 9.5C13 8.11875 11.8812 7 10.5 7C9.11875 7 8 8.11875 8 9.5C8 11.025 9.45312 12.9875 10.1438 13.8313C10.3313 14.0594 10.6688 14.0594 10.8531 13.8313C11.5438 12.9875 12.9969 11.025 12.9969 9.5H13ZM9.5 9.5C9.5 9.23478 9.60536 8.98043 9.79289 8.79289C9.98043 8.60536 10.2348 8.5 10.5 8.5C10.7652 8.5 11.0196 8.60536 11.2071 8.79289C11.3946 8.98043 11.5 9.23478 11.5 9.5C11.5 9.76522 11.3946 10.0196 11.2071 10.2071C11.0196 10.3946 10.7652 10.5 10.5 10.5C10.2348 10.5 9.98043 10.3946 9.79289 10.2071C9.60536 10.0196 9.5 9.76522 9.5 9.5Z" fill="black"/>
</svg>
