<svg width="24" height="24" viewBox="0 0 24 24" fill="none" xmlns="http://www.w3.org/2000/svg">
<path d="M14.75 4H15H15.75H16H17.75C18.9938 4 20 5.00625 20 6.25C20 6.66563 19.6656 7 19.25 7H18C16.9563 7 16.0375 6.46875 15.5 5.65937V7.19062C16.5063 7.45 17.4563 7.97188 18.2438 8.75938C19.4156 9.92813 20 11.4656 20 13C20 15.3938 18.2031 20 13 20C8.5 20 5.37188 18.6469 5.37188 18.6469C4.32188 18.3 3.75313 17.1687 4.10313 16.1219C4.23125 15.7312 4.46875 15.4062 4.77188 15.1719C5.84375 14.3687 6.4 13.3719 6.99688 12.3031C7.64063 11.1531 8.32813 9.91875 9.75938 8.75625C10.9281 7.58437 12.4656 7 14 7V4.75C14 4.33437 14.3344 4 14.75 4ZM17.5 13.5C17.5 13.225 17.275 13 17 13C16.725 13 16.5 13.225 16.5 13.5C16.5 15.1562 15.1563 16.5 13.5 16.5C13.225 16.5 13 16.725 13 17C13 17.275 13.225 17.5 13.5 17.5C15.7094 17.5 17.5 15.7094 17.5 13.5Z" fill="black"/>
</svg>
