<svg width="24" height="24" viewBox="0 0 24 24" fill="none" xmlns="http://www.w3.org/2000/svg">
<path d="M15.2969 4.0375C15.4532 4.10312 15.5657 4.24375 15.5969 4.40937L16.2188 7.78125L19.5907 8.4C19.7563 8.43125 19.8969 8.54375 19.9626 8.7C20.0282 8.85625 20.0094 9.03437 19.9126 9.175L17.9657 12L19.9126 14.8219C20.0094 14.9625 20.0282 15.1406 19.9626 15.2969C19.8969 15.4531 19.7563 15.5656 19.5907 15.5969L16.2188 16.2187L15.5969 19.5906C15.5657 19.7562 15.4532 19.8969 15.2969 19.9625C15.1407 20.0281 14.9626 20.0094 14.8219 19.9125L12.0001 17.9656L9.17818 19.9125C9.03756 20.0094 8.85943 20.0281 8.70318 19.9625C8.54693 19.8969 8.43443 19.7562 8.40318 19.5906L7.78131 16.2187L4.40943 15.5969C4.24381 15.5656 4.10318 15.4531 4.03756 15.2969C3.97193 15.1406 3.99068 14.9625 4.08756 14.8219L6.03443 12L4.08756 9.17812C3.99068 9.0375 3.97193 8.85937 4.03756 8.70312C4.10318 8.54687 4.24381 8.43437 4.40943 8.40312L7.78131 7.78125L8.40318 4.40937C8.43443 4.24375 8.54693 4.10312 8.70318 4.0375C8.85943 3.97187 9.03756 3.99062 9.17818 4.0875L12.0001 6.03437L14.8219 4.0875C14.9626 3.99062 15.1407 3.97187 15.2969 4.0375ZM16.5001 12C16.5001 10.8065 16.026 9.66193 15.182 8.81802C14.3381 7.9741 13.1935 7.5 12.0001 7.5C10.8066 7.5 9.66199 7.9741 8.81808 8.81802C7.97416 9.66193 7.50006 10.8065 7.50006 12C7.50006 13.1935 7.97416 14.3381 8.81808 15.182C9.66199 16.0259 10.8066 16.5 12.0001 16.5C13.1935 16.5 14.3381 16.0259 15.182 15.182C16.026 14.3381 16.5001 13.1935 16.5001 12ZM8.43756 12C8.43756 10.0281 10.0501 8.4375 12.0313 8.4375C12.1344 8.4375 12.2344 8.44062 12.3344 8.45C12.5532 8.46875 12.7344 8.62812 12.7813 8.84375C12.8282 9.05937 12.7282 9.27812 12.5376 9.3875C11.8219 9.7875 11.3407 10.5469 11.3407 11.4125C11.3407 12.6937 12.3907 13.7406 13.6969 13.7406C13.8344 13.7406 13.9719 13.7281 14.1032 13.7062C14.3188 13.6687 14.5344 13.7781 14.6344 13.975C14.7344 14.1719 14.6938 14.4094 14.5344 14.5594C13.8876 15.1812 13.0032 15.5656 12.0313 15.5656C10.0501 15.5656 8.43756 13.975 8.43756 12.0031V12Z" fill="black"/>
</svg>
