<svg width="24" height="24" viewBox="0 0 24 24" fill="none" xmlns="http://www.w3.org/2000/svg">
<path d="M12.5 4C11.6719 4 11 4.67188 11 5.5V8.37813L13.2313 12.0781C13.3094 12.0281 13.4 12 13.5 12H14.5C14.775 12 15 12.225 15 12.5V13.5C15 13.775 14.775 14 14.5 14H14.3906L16.6969 17.825C17.0844 18.4688 17.1 19.2719 16.7344 19.9281C16.7219 19.9531 16.7063 19.9781 16.6906 20H20.5C21.3281 20 22 19.3281 22 18.5V11.5C22 10.6719 21.3281 10 20.5 10H19.75V7.75C19.75 7.33437 19.4156 7 19 7C18.5844 7 18.25 7.33437 18.25 7.75V10H17V5.5C17 4.67188 16.3281 4 15.5 4H12.5ZM13.5 6H14.5C14.775 6 15 6.225 15 6.5V7.5C15 7.775 14.775 8 14.5 8H13.5C13.225 8 13 7.775 13 7.5V6.5C13 6.225 13.225 6 13.5 6ZM13 9.5C13 9.225 13.225 9 13.5 9H14.5C14.775 9 15 9.225 15 9.5V10.5C15 10.775 14.775 11 14.5 11H13.5C13.225 11 13 10.775 13 10.5V9.5ZM18 12.5C18 12.225 18.225 12 18.5 12H19.5C19.775 12 20 12.225 20 12.5V13.5C20 13.775 19.775 14 19.5 14H18.5C18.225 14 18 13.775 18 13.5V12.5ZM18.5 15H19.5C19.775 15 20 15.225 20 15.5V16.5C20 16.775 19.775 17 19.5 17H18.5C18.225 17 18 16.775 18 16.5V15.5C18 15.225 18.225 15 18.5 15ZM9.00001 9.90312L10.8688 13H8.96876L7.46876 15L6.70001 13.7125L9.00001 9.90312ZM9.91876 8.52187C9.72188 8.19688 9.37501 8 9.00001 8C8.62501 8 8.27813 8.19688 8.08126 8.52187L2.15938 18.3406C1.95626 18.6781 1.95001 19.1 2.13751 19.4438C2.32501 19.7875 2.68751 20 3.07813 20H14.9219C15.3125 20 15.6719 19.7875 15.8625 19.4438C16.0531 19.1 16.0438 18.6781 15.8406 18.3406L9.91876 8.52187Z" fill="black"/>
</svg>
