<svg width="24" height="24" viewBox="0 0 24 24" fill="none" xmlns="http://www.w3.org/2000/svg">
<path d="M18.975 5.02501C17.6094 3.65939 15.3906 3.65939 14.025 5.02501L13.8781 5.17189L18.8281 10.1219L18.975 9.97501C20.3406 8.60939 20.3406 6.39064 18.975 5.02501ZM13.1719 5.87814L13.025 6.02501C12.2625 6.78751 11.925 7.81251 12.0125 8.80626L15.1938 11.9875C16.1875 12.075 17.2125 11.7375 17.975 10.975L18.1219 10.8281L13.1719 5.87814ZM11.1594 9.36564L10.7438 9.84376L4.24376 17.3438C3.90001 17.7406 3.92189 18.3344 4.29376 18.7063L5.29376 19.7063C5.66564 20.0781 6.25939 20.1 6.65626 19.7563L11 15.9906V19C11 19.5531 11.4469 20 12 20C12.5531 20 13 19.5531 13 19V14.2563L14.1563 13.2563L14.6344 12.8406L11.1594 9.36564Z" fill="black"/>
</svg>
