<svg width="24" height="24" viewBox="0 0 24 24" fill="none" xmlns="http://www.w3.org/2000/svg">
<path d="M15.4406 5.33754C15.625 4.81879 15.3563 4.24379 14.8344 4.05942C14.3125 3.87504 13.7406 4.14379 13.5563 4.66567L12.5 7.62817C12.3219 7.75317 12.1531 7.89379 12 8.05004C11.3656 7.40317 10.4781 7.00004 9.5 7.00004C8.89062 7.00004 8.31875 7.15629 7.82187 7.42817C7.64062 7.16879 7.34063 7.00004 7 7.00004C6.44687 7.00004 6 7.44692 6 8.00004V10.5V17C6 17.5532 6.44687 18 7 18C7.55313 18 8 17.5532 8 17V10.5C8 9.67192 8.67188 9.00004 9.5 9.00004C10.3281 9.00004 11 9.67192 11 10.5V11.8282L8.55938 18.6625C8.375 19.1813 8.64375 19.7563 9.16563 19.9407C9.6875 20.125 10.2594 19.8563 10.4437 19.3344L11.1125 17.4594C11.2781 17.7813 11.6125 18 12 18C12.5531 18 13 17.5532 13 17V12.1719L14.1156 9.04692C14.2375 9.01567 14.3687 8.99692 14.5 8.99692C15.3281 8.99692 16 9.66879 16 10.4969V17C16 17.5532 16.4469 18 17 18C17.5531 18 18 17.5532 18 17V10.5C18 8.68129 16.6156 7.18754 14.8406 7.01567L15.4406 5.33442V5.33754Z" fill="black"/>
</svg>
