<svg width="24" height="24" viewBox="0 0 24 24" fill="none" xmlns="http://www.w3.org/2000/svg">
<path d="M6.97188 9.5C6.35625 10.85 6 12.2719 6 13.4C6 13.8969 6.06875 14.3812 6.19688 14.8375L5.20312 14.5906C4.20312 14.3406 3.5 13.4406 3.5 12.4062V9.75C3.5 9.6125 3.6125 9.5 3.75 9.5H6.97188ZM7.78438 8H3.75C2.78438 8 2 8.78437 2 9.75V12.4062C2 14.1281 3.17188 15.6281 4.84063 16.0437L7.06875 16.6C7.77812 17.5531 8.8 18.2906 10 18.6812V16.2906C9.38438 15.7781 9 15.0312 9 14.2C9 12.6531 10.3438 10 12 10C13.6406 10 15 12.6531 15 14.2C15 15.0344 14.6125 15.775 14 16.2875V18.6812C15.1875 18.2875 16.2063 17.5562 16.9219 16.6062L19.1594 16.0469C20.8281 15.6281 22 14.1281 22 12.4062V9.75C22 8.78437 21.2156 8 20.25 8H16.2031C15.1156 6.30625 13.6281 5 12 5C10.3562 5 8.86875 6.30625 7.78438 8ZM17.0219 9.5H20.25C20.3875 9.5 20.5 9.6125 20.5 9.75V12.4062C20.5 13.4375 19.7969 14.3375 18.7969 14.5906L17.8031 14.8406C17.9344 14.3812 18.0031 13.9 18.0031 13.4C18.0031 12.2719 17.6406 10.85 17.025 9.5H17.0219ZM11 14V20H13V14C13 13.4469 12.5531 13 12 13C11.4469 13 11 13.4469 11 14Z" fill="black"/>
</svg>
