<svg width="24" height="24" viewBox="0 0 24 24" fill="none" xmlns="http://www.w3.org/2000/svg">
<path d="M17 10.5C17 11.9344 16.5344 13.2594 15.75 14.3344L19.7063 18.2937C20.0969 18.6844 20.0969 19.3188 19.7063 19.7094C19.3156 20.1 18.6812 20.1 18.2906 19.7094L14.3344 15.75C13.2594 16.5375 11.9344 17 10.5 17C6.90937 17 4 14.0906 4 10.5C4 6.90937 6.90937 4 10.5 4C14.0906 4 17 6.90937 17 10.5ZM8.25 9.75C7.83437 9.75 7.5 10.0844 7.5 10.5C7.5 10.9156 7.83437 11.25 8.25 11.25H12.75C13.1656 11.25 13.5 10.9156 13.5 10.5C13.5 10.0844 13.1656 9.75 12.75 9.75H8.25Z" fill="black"/>
</svg>
