<svg width="24" height="24" viewBox="0 0 24 24" fill="none" xmlns="http://www.w3.org/2000/svg">
<path d="M19.5968 4.19693C19.8499 4.38443 19.9999 4.68443 19.9999 5.00005V7.25005V15.5001C19.9999 16.0219 19.8062 16.5063 19.4781 16.9094L21.7124 18.6594C22.0374 18.9157 22.0968 19.3876 21.8406 19.7126C21.5843 20.0376 21.1124 20.0969 20.7874 19.8407L2.28743 5.34068C1.96243 5.08443 1.90306 4.61255 2.15931 4.28755C2.41556 3.96255 2.88743 3.90318 3.21243 4.15943L8.00306 7.91568C8.03743 7.50943 8.31556 7.16255 8.71243 7.0438L18.7124 4.0438C19.0156 3.95318 19.3437 4.00943 19.5968 4.20005V4.19693ZM11.3968 10.5751L15.1593 13.5251C15.6687 13.1969 16.3062 13.0001 16.9999 13.0001C17.3499 13.0001 17.6874 13.0501 17.9999 13.1438V8.5938L11.3968 10.5751ZM7.99993 11.7282L9.99993 13.3032V17.5001C9.99993 18.8813 8.65618 20.0001 6.99993 20.0001C5.34368 20.0001 3.99993 18.8813 3.99993 17.5001C3.99993 16.1188 5.34368 15.0001 6.99993 15.0001C7.34993 15.0001 7.68743 15.0501 7.99993 15.1438V11.7282Z" fill="black"/>
</svg>
