<svg width="24" height="24" viewBox="0 0 24 24" fill="none" xmlns="http://www.w3.org/2000/svg">
<path d="M11.6127 4.61253C12.8658 3.36253 15.6221 4.08753 17.7658 6.23441C19.9096 8.38128 20.6377 11.1344 19.3846 12.3875L18.1189 13.6532C16.6221 15.1563 14.5846 16 12.4627 16H10.6439C10.4221 16 10.2096 16.0875 10.0533 16.2438C9.73145 16.5657 9.7502 17.0844 9.89707 17.5157C9.9627 17.7063 9.99707 17.9125 9.99707 18.125C9.99707 19.1594 9.15645 20 8.12207 20C7.0877 20 6.24707 19.1594 6.24707 18.125C6.24707 17.9282 6.06895 17.75 5.87207 17.75C4.8377 17.75 3.99707 16.9094 3.99707 15.875C3.99707 14.8407 4.8377 14 5.87207 14C6.08457 14 6.29082 14.0344 6.48145 14.1C6.9127 14.2469 7.43145 14.2657 7.75332 13.9438C7.90957 13.7875 7.99707 13.575 7.99707 13.3532V11.5407C7.99707 9.41878 8.84082 7.38441 10.3408 5.88441L11.6127 4.61253ZM13.6127 10.3875C15.1627 11.9375 17.1533 12.4625 18.0564 11.5563C18.9596 10.65 18.4377 8.66253 16.8877 7.11253C15.3377 5.56253 13.3471 5.03753 12.4439 5.94378C11.5408 6.85003 12.0627 8.83753 13.6127 10.3875ZM14.7471 9.25316C14.2689 8.77503 14.1096 8.16253 14.3877 7.88441C14.6658 7.60628 15.2783 7.76878 15.7564 8.24378C16.2346 8.71878 16.3939 9.33441 16.1158 9.61253C15.8377 9.89066 15.2252 9.72816 14.7471 9.25316Z" fill="black"/>
</svg>
