<svg width="24" height="24" viewBox="0 0 24 24" fill="none" xmlns="http://www.w3.org/2000/svg">
<path d="M4 6C4 4.89688 4.89688 4 6 4H18C19.1031 4 20 4.89688 20 6V15C20 16.1031 19.1031 17 18 17H13.6656L9.8 19.9C9.65 20.0125 9.44688 20.0312 9.275 19.9469C9.10313 19.8625 9 19.6906 9 19.5V17H6C4.89688 17 4 16.1031 4 15V6ZM8 11.5C8.26522 11.5 8.51957 11.3946 8.70711 11.2071C8.89464 11.0196 9 10.7652 9 10.5C9 10.2348 8.89464 9.98043 8.70711 9.79289C8.51957 9.60536 8.26522 9.5 8 9.5C7.73478 9.5 7.48043 9.60536 7.29289 9.79289C7.10536 9.98043 7 10.2348 7 10.5C7 10.7652 7.10536 11.0196 7.29289 11.2071C7.48043 11.3946 7.73478 11.5 8 11.5ZM12 11.5C12.2652 11.5 12.5196 11.3946 12.7071 11.2071C12.8946 11.0196 13 10.7652 13 10.5C13 10.2348 12.8946 9.98043 12.7071 9.79289C12.5196 9.60536 12.2652 9.5 12 9.5C11.7348 9.5 11.4804 9.60536 11.2929 9.79289C11.1054 9.98043 11 10.2348 11 10.5C11 10.7652 11.1054 11.0196 11.2929 11.2071C11.4804 11.3946 11.7348 11.5 12 11.5ZM17 10.5C17 10.2348 16.8946 9.98043 16.7071 9.79289C16.5196 9.60536 16.2652 9.5 16 9.5C15.7348 9.5 15.4804 9.60536 15.2929 9.79289C15.1054 9.98043 15 10.2348 15 10.5C15 10.7652 15.1054 11.0196 15.2929 11.2071C15.4804 11.3946 15.7348 11.5 16 11.5C16.2652 11.5 16.5196 11.3946 16.7071 11.2071C16.8946 11.0196 17 10.7652 17 10.5Z" fill="black"/>
</svg>
