<svg width="24" height="24" viewBox="0 0 24 24" fill="none" xmlns="http://www.w3.org/2000/svg">
<path d="M19.0313 4.9687C17.9094 3.84995 16.0907 3.84995 14.9688 4.9687L14.5 5.43745L14.0907 5.0312C13.2125 4.15308 11.7875 4.15308 10.9094 5.0312L8.21878 7.7187C7.92503 8.01245 7.92503 8.48745 8.21878 8.77808C8.51253 9.0687 8.98753 9.07183 9.27816 8.77808L11.9688 6.09058C12.2625 5.79683 12.7375 5.79683 13.0282 6.09058L13.4407 6.49995L9.82191 10.1156L13.8844 14.1781L19.0313 9.0312C20.1532 7.90933 20.1532 6.09058 19.0313 4.97183V4.9687ZM13.1782 14.8843L9.11566 10.8218L7.10941 12.8281C5.60941 14.3281 4.58441 16.2406 4.16878 18.3218L4.01253 19.1031C3.96253 19.35 4.04066 19.6031 4.21878 19.7812C4.39691 19.9593 4.65003 20.0343 4.89691 19.9875L5.67816 19.8312C7.75941 19.4156 9.67191 18.3906 11.1719 16.8906L13.1782 14.8843Z" fill="black"/>
</svg>
