<svg width="24" height="24" viewBox="0 0 24 24" fill="none" xmlns="http://www.w3.org/2000/svg">
<path d="M3.21268 4.15931C2.88768 3.90306 2.4158 3.96243 2.15955 4.28743C1.9033 4.61243 1.96268 5.08431 2.28768 5.34056L20.7877 19.8406C21.1127 20.0968 21.5846 20.0374 21.8408 19.7124C22.0971 19.3874 22.0377 18.9156 21.7127 18.6593L19.1408 16.6437C19.6595 16.2812 20.0002 15.6812 20.0002 14.9999V5.99993C20.0002 4.89681 19.1033 3.99993 18.0002 3.99993H6.00018C5.26268 3.99993 4.61893 4.39681 4.27205 4.99056L3.21268 4.15931ZM14.6939 16.9999L4.00018 8.57493V14.9999C4.00018 16.1031 4.89705 16.9999 6.00018 16.9999H9.00018V19.4999C9.00018 19.6906 9.10643 19.8624 9.27518 19.9468C9.44393 20.0312 9.64705 20.0124 9.80018 19.8999L13.6658 16.9999H14.6908H14.6939Z" fill="black"/>
</svg>
