<svg width="24" height="24" viewBox="0 0 24 24" fill="none" xmlns="http://www.w3.org/2000/svg">
<path d="M18.7094 4.29375C18.8031 4.39062 18.875 4.5 18.925 4.61563C18.975 4.73125 19 4.85937 19 4.99687V5V8C19 8.55313 18.5531 9 18 9C17.4469 9 17 8.55313 17 8V7.41563L13.7063 10.7063C13.3375 11.075 12.7438 11.1 12.3469 10.7594L9.5 8.31563L6.65 10.7594C6.23125 11.1188 5.6 11.0688 5.24063 10.65C4.88125 10.2313 4.93125 9.6 5.35 9.24062L8.85 6.24062C9.225 5.91875 9.77812 5.91875 10.1531 6.24062L12.95 8.6375L15.5844 6H15C14.4469 6 14 5.55313 14 5C14 4.44687 14.4469 4 15 4H18C18.275 4 18.525 4.1125 18.7063 4.29063L18.7094 4.29375ZM4 13.5C4 12.6719 4.67188 12 5.5 12H18.5C19.3281 12 20 12.6719 20 13.5V18.5C20 19.3281 19.3281 20 18.5 20H5.5C4.67188 20 4 19.3281 4 18.5V13.5ZM5.5 17V18.5H7C7 17.6719 6.32812 17 5.5 17ZM7 13.5H5.5V15C6.32812 15 7 14.3281 7 13.5ZM18.5 17C17.6719 17 17 17.6719 17 18.5H18.5V17ZM17 13.5C17 14.3281 17.6719 15 18.5 15V13.5H17ZM14 16C14 15.4696 13.7893 14.9609 13.4142 14.5858C13.0391 14.2107 12.5304 14 12 14C11.4696 14 10.9609 14.2107 10.5858 14.5858C10.2107 14.9609 10 15.4696 10 16C10 16.5304 10.2107 17.0391 10.5858 17.4142C10.9609 17.7893 11.4696 18 12 18C12.5304 18 13.0391 17.7893 13.4142 17.4142C13.7893 17.0391 14 16.5304 14 16Z" fill="black"/>
</svg>
