<svg width="24" height="24" viewBox="0 0 24 24" fill="none" xmlns="http://www.w3.org/2000/svg">
<path d="M10 5C10.2344 5 10.45 5.08125 10.6188 5.21563L9.46875 6.36562C9.16875 6.66562 9 7.075 9 7.5C9 7.67188 9.02813 7.84063 9.08125 8H5V6C5 5.44687 5.44687 5 6 5H10ZM10.1781 7.92812C10.0625 7.8125 10 7.65937 10 7.5C10 7.34063 10.0625 7.1875 10.1781 7.07188L12.075 5.175C12.1875 5.0625 12.3406 5 12.5 5C12.6594 5 12.8125 5.0625 12.9281 5.17813L14.825 7.075C14.9375 7.1875 15.0031 7.34062 15.0031 7.50312C15.0031 7.66562 14.9406 7.81563 14.825 7.93125L14.75 8H10.25L10.1781 7.92812ZM4 10C4 9.44687 4.44687 9 5 9H7V11C7 11.5531 7.44687 12 8 12C8.55313 12 9 11.5531 9 11V9H15H16.5C18.4344 9 20 10.5656 20 12.5C20 14.4344 18.4344 16 16.5 16H16C16 17.6562 14.6562 19 13 19H7C5.34375 19 4 17.6562 4 16V10ZM16 11V14H16.5C17.3281 14 18 13.3281 18 12.5C18 11.6719 17.3281 11 16.5 11H16Z" fill="black"/>
</svg>
