<svg width="24" height="24" viewBox="0 0 24 24" fill="none" xmlns="http://www.w3.org/2000/svg">
<path d="M19.0312 4.9687C17.9093 3.84995 16.0906 3.84995 14.9687 4.9687L14.5 5.43745L14.0906 5.0312C13.2125 4.15308 11.7875 4.15308 10.9093 5.0312L8.21872 7.7187C7.92497 8.01245 7.92497 8.48745 8.21872 8.77808C8.51247 9.0687 8.98747 9.07183 9.27809 8.77808L11.9687 6.09058C12.2625 5.79683 12.7375 5.79683 13.0281 6.09058L13.4406 6.49995L9.82185 10.1156L13.8843 14.1781L19.0312 9.0312C20.1531 7.90933 20.1531 6.09058 19.0312 4.97183V4.9687ZM13.1781 14.8843L9.11559 10.8218L7.10934 12.8281C5.60934 14.3281 4.58434 16.2406 4.16872 18.3218L4.01247 19.1031C3.96247 19.35 4.04059 19.6031 4.21872 19.7812C4.39684 19.9593 4.64997 20.0343 4.89684 19.9875L5.67809 19.8312C7.75934 19.4156 9.67184 18.3906 11.1718 16.8906L13.1781 14.8843Z" fill="black"/>
</svg>
