<svg width="24" height="24" viewBox="0 0 24 24" fill="none" xmlns="http://www.w3.org/2000/svg">
<path d="M3.2125 4.15937C2.8875 3.90312 2.41563 3.96249 2.15938 4.28749C1.90313 4.61249 1.9625 5.08437 2.2875 5.34062L20.7875 19.8406C21.1125 20.0969 21.5844 20.0375 21.8406 19.7125C22.0969 19.3875 22.0375 18.9156 21.7125 18.6594L16.7531 14.7719C17.2281 13.9594 17.5 13.0125 17.5 12V10.75C17.5 10.3344 17.1656 9.99999 16.75 9.99999C16.3344 9.99999 16 10.3344 16 10.75V12C16 12.6625 15.8406 13.2844 15.5562 13.8344L15 13.4V6.99999C15 5.34374 13.6562 3.99999 12 3.99999C10.3438 3.99999 9 5.34374 9 6.99999V8.69687L3.2125 4.15937ZM14.5406 16.8781L13.1938 15.8187C12.8156 15.9375 12.4156 16 12 16C9.79063 16 8 14.2094 8 12V11.7281L6.52187 10.5625C6.50625 10.6219 6.5 10.6844 6.5 10.75V12C6.5 14.7844 8.56875 17.0844 11.25 17.45V18.5H9.75C9.33437 18.5 9 18.8344 9 19.25C9 19.6656 9.33437 20 9.75 20H12H14.25C14.6656 20 15 19.6656 15 19.25C15 18.8344 14.6656 18.5 14.25 18.5H12.75V17.45C13.3875 17.3625 13.9906 17.1656 14.5406 16.8812V16.8781Z" fill="black"/>
</svg>
