<svg width="24" height="24" viewBox="0 0 24 24" fill="none" xmlns="http://www.w3.org/2000/svg">
<path d="M15.5 4.5C14.5688 4.5 13.7844 5.1375 13.5625 6H10.6625C12.075 6.99688 13 8.64062 13 10.5V16C13 16.7688 12.7125 17.4688 12.2375 18H19C20.1031 18 21 17.1031 21 16V10.5C21 9.16875 20.4219 7.96875 19.5 7.14687V6.5C19.5 5.39688 18.6031 4.5 17.5 4.5H15.5ZM15.5 11C15.225 11 15 10.775 15 10.5V7.5V6.5C15 6.225 15.225 6 15.5 6H17.5C17.775 6 18 6.225 18 6.5V7.5C18 7.775 17.775 8 17.5 8H16V10.5C16 10.775 15.775 11 15.5 11ZM3 10.5V16C3 17.1031 3.89688 18 5 18H10C11.1031 18 12 17.1031 12 16V10.5C12 8.01562 9.98438 6 7.5 6C5.01562 6 3 8.01562 3 10.5ZM5 10.5C5 10.225 5.225 10 5.5 10H9.5C9.775 10 10 10.225 10 10.5C10 10.775 9.775 11 9.5 11H5.5C5.225 11 5 10.775 5 10.5Z" fill="black"/>
</svg>
