<svg width="24" height="24" viewBox="0 0 24 24" fill="none" xmlns="http://www.w3.org/2000/svg">
<path d="M4 6C4 4.89688 4.89688 4 6 4H18C19.1031 4 20 4.89688 20 6V15C20 16.1031 19.1031 17 18 17H13.6656L9.8 19.9C9.65 20.0125 9.44688 20.0312 9.275 19.9469C9.10313 19.8625 9 19.6906 9 19.5V17H6C4.89688 17 4 16.1031 4 15V6ZM12.75 13.25V9.55937L13.7188 10.5281C14.0125 10.8219 14.4875 10.8219 14.7781 10.5281C15.0687 10.2344 15.0719 9.75938 14.7781 9.46875L12.5281 7.21875C12.2344 6.925 11.7594 6.925 11.4688 7.21875L9.21875 9.46875C8.925 9.7625 8.925 10.2375 9.21875 10.5281C9.5125 10.8187 9.9875 10.8219 10.2781 10.5281L11.2469 9.55937V13.25C11.2469 13.6656 11.5812 14 11.9969 14C12.4125 14 12.7469 13.6656 12.7469 13.25H12.75Z" fill="black"/>
</svg>
