<svg width="24" height="24" viewBox="0 0 24 24" fill="none" xmlns="http://www.w3.org/2000/svg">
<path d="M17 10.5C17 11.9344 16.5344 13.2594 15.75 14.3344L19.7063 18.2937C20.0969 18.6844 20.0969 19.3188 19.7063 19.7094C19.3156 20.1 18.6812 20.1 18.2906 19.7094L14.3344 15.75C13.2594 16.5375 11.9344 17 10.5 17C6.90937 17 4 14.0906 4 10.5C4 6.90937 6.90937 4 10.5 4C14.0906 4 17 6.90937 17 10.5ZM12.6875 7.14062C12.4906 7 12.2406 6.9625 12.0125 7.0375L10.5125 7.5375C10.2062 7.64062 10 7.925 10 8.25V9.25V11.0469C9.84063 11.0156 9.67188 11 9.5 11C8.39688 11 7.5 11.6719 7.5 12.5C7.5 13.3281 8.39688 14 9.5 14C10.6031 14 11.4969 13.3313 11.5 12.5031V12.5V9.79063L12.4875 9.4625C12.7938 9.35938 13 9.075 13 8.75V7.75C13 7.50938 12.8844 7.28125 12.6875 7.14062Z" fill="black"/>
</svg>
