<svg width="24" height="24" viewBox="0 0 24 24" fill="none" xmlns="http://www.w3.org/2000/svg">
<path d="M4 6C4 4.89688 4.89688 4 6 4H18C19.1031 4 20 4.89688 20 6V15C20 16.1031 19.1031 17 18 17H13.6656L9.8 19.9C9.65 20.0125 9.44688 20.0312 9.275 19.9469C9.10313 19.8625 9 19.6906 9 19.5V17H6C4.89688 17 4 16.1031 4 15V6ZM9.25 7.5C8.83437 7.5 8.5 7.83437 8.5 8.25C8.5 8.66563 8.83437 9 9.25 9H11.25V13.25C11.25 13.6656 11.5844 14 12 14C12.4156 14 12.75 13.6656 12.75 13.25V9H14.75C15.1656 9 15.5 8.66563 15.5 8.25C15.5 7.83437 15.1656 7.5 14.75 7.5H12H9.25Z" fill="black"/>
</svg>
