<svg width="24" height="24" viewBox="0 0 24 24" fill="none" xmlns="http://www.w3.org/2000/svg">
<path d="M5 6C3.89688 6 3 6.89688 3 8V8.23125C3 8.44375 3.1375 8.625 3.31563 8.74062C3.72813 9.00937 4 9.47188 4 10C4 10.5281 3.72813 10.9906 3.31563 11.2594C3.1375 11.375 3 11.5563 3 11.7688V14H21V11.7688C21 11.5563 20.8625 11.375 20.6844 11.2594C20.2719 10.9906 20 10.5281 20 10C20 9.47188 20.2719 9.00937 20.6844 8.74062C20.8625 8.625 21 8.44375 21 8.23125V8C21 6.89688 20.1031 6 19 6H5ZM21 15H3V17C3 17.5531 3.44687 18 4 18H5.5V17C5.5 16.725 5.725 16.5 6 16.5C6.275 16.5 6.5 16.725 6.5 17V18H9.5V17C9.5 16.725 9.725 16.5 10 16.5C10.275 16.5 10.5 16.725 10.5 17V18H13.5V17C13.5 16.725 13.725 16.5 14 16.5C14.275 16.5 14.5 16.725 14.5 17V18H17.5V17C17.5 16.725 17.725 16.5 18 16.5C18.275 16.5 18.5 16.725 18.5 17V18H20C20.5531 18 21 17.5531 21 17V15ZM9 9V11C9 11.5531 8.55313 12 8 12C7.44687 12 7 11.5531 7 11V9C7 8.44687 7.44687 8 8 8C8.55313 8 9 8.44687 9 9ZM13 9V11C13 11.5531 12.5531 12 12 12C11.4469 12 11 11.5531 11 11V9C11 8.44687 11.4469 8 12 8C12.5531 8 13 8.44687 13 9ZM17 9V11C17 11.5531 16.5531 12 16 12C15.4469 12 15 11.5531 15 11V9C15 8.44687 15.4469 8 16 8C16.5531 8 17 8.44687 17 9Z" fill="black"/>
</svg>
