<svg width="24" height="24" viewBox="0 0 24 24" fill="none" xmlns="http://www.w3.org/2000/svg">
<path d="M5 6C3.89688 6 3 6.89688 3 8V16C3 17.1031 3.89688 18 5 18H19C20.1031 18 21 17.1031 21 16V8C21 6.89688 20.1031 6 19 6H5ZM7 16H5V14C6.10313 14 7 14.8969 7 16ZM5 10V8H7C7 9.10313 6.10313 10 5 10ZM17 16C17 14.8969 17.8969 14 19 14V16H17ZM19 10C17.8969 10 17 9.10313 17 8H19V10ZM12 9C12.7956 9 13.5587 9.31607 14.1213 9.87868C14.6839 10.4413 15 11.2044 15 12C15 12.7956 14.6839 13.5587 14.1213 14.1213C13.5587 14.6839 12.7956 15 12 15C11.2044 15 10.4413 14.6839 9.87868 14.1213C9.31607 13.5587 9 12.7956 9 12C9 11.2044 9.31607 10.4413 9.87868 9.87868C10.4413 9.31607 11.2044 9 12 9Z" fill="black"/>
</svg>
