<svg width="24" height="24" viewBox="0 0 24 24" fill="none" xmlns="http://www.w3.org/2000/svg">
<path d="M4 6C4 4.89688 4.89688 4 6 4H18C19.1031 4 20 4.89688 20 6V15C20 16.1031 19.1031 17 18 17H13.6656L9.8 19.9C9.65 20.0125 9.44688 20.0312 9.275 19.9469C9.10313 19.8625 9 19.6906 9 19.5V17H6C4.89688 17 4 16.1031 4 15V6ZM15.5312 8.78125C15.825 8.4875 15.825 8.0125 15.5312 7.72187C15.2375 7.43125 14.7625 7.42812 14.4719 7.72187L11.0031 11.1906L9.53438 9.72188C9.24063 9.42813 8.76562 9.42813 8.475 9.72188C8.18437 10.0156 8.18125 10.4906 8.475 10.7812L10.475 12.7812C10.7687 13.075 11.2438 13.075 11.5344 12.7812L15.5312 8.78125Z" fill="black"/>
</svg>
