<svg width="24" height="24" viewBox="0 0 24 24" fill="none" xmlns="http://www.w3.org/2000/svg">
<path d="M5.2812 16.2187C4.98745 15.925 4.51245 15.925 4.22183 16.2187C3.9312 16.5125 3.92808 16.9875 4.22183 17.2781C7.83433 20.8906 13.6781 20.9031 17.2937 17.2875C20.9093 13.6719 20.8906 7.83123 17.2812 4.21873C16.9875 3.92498 16.5125 3.92498 16.2218 4.21873C15.9312 4.51248 15.9281 4.98748 16.2218 5.2781C19.25 8.30623 19.2562 13.2031 16.2312 16.2281C13.2062 19.2531 8.30933 19.2469 5.2812 16.2187ZM14 7.99998C14 11.3125 11.3125 14 7.99995 14C7.6437 14 7.29683 13.9687 6.95933 13.9094C6.79058 13.8812 6.61558 13.9281 6.49683 14.05L5.85308 14.6937C5.65933 14.8875 5.65933 15.2062 5.85308 15.4L5.97808 15.525C8.61558 18.1625 12.8875 18.1625 15.525 15.525C18.1562 12.8937 18.1625 8.6281 15.5343 5.9906L15.4 5.85623C15.2062 5.66248 14.8875 5.66248 14.6937 5.85623L14.05 6.49373C13.9281 6.6156 13.8812 6.78748 13.9093 6.95623C13.9687 7.29373 14 7.64373 14 7.99685V7.99998Z" fill="black"/>
</svg>
