<svg width="24" height="24" viewBox="0 0 24 24" fill="none" xmlns="http://www.w3.org/2000/svg">
<path d="M14.5562 4.4625C14.6719 4.18125 14.9469 4 15.25 4H18.75C19.1656 4 19.5 4.33437 19.5 4.75V8.25C19.5 8.55312 19.3188 8.82812 19.0375 8.94375C18.7563 9.05937 18.4344 8.99688 18.2188 8.78125L17 7.5625L16.2281 8.33437C16.7187 9.10312 17 10.0188 17 11C17 13.5062 15.1562 15.5813 12.75 15.9438V16.75H13.5C13.9156 16.75 14.25 17.0844 14.25 17.5C14.25 17.9156 13.9156 18.25 13.5 18.25H12.75V19.25C12.75 19.6656 12.4156 20 12 20C11.5844 20 11.25 19.6656 11.25 19.25V18.25H10.5C10.0844 18.25 9.75 17.9156 9.75 17.5C9.75 17.0844 10.0844 16.75 10.5 16.75H11.25V15.9438C8.84375 15.5813 7 13.5062 7 11C7 8.2375 9.2375 6 12 6C13.2375 6 14.3719 6.45 15.2437 7.19375L15.9406 6.5L14.7188 5.28125C14.5031 5.06562 14.4406 4.74375 14.5562 4.4625ZM15 11C15 10.2044 14.6839 9.44129 14.1213 8.87868C13.5587 8.31607 12.7956 8 12 8C11.2044 8 10.4413 8.31607 9.87868 8.87868C9.31607 9.44129 9 10.2044 9 11C9 11.7956 9.31607 12.5587 9.87868 13.1213C10.4413 13.6839 11.2044 14 12 14C12.7956 14 13.5587 13.6839 14.1213 13.1213C14.6839 12.5587 15 11.7956 15 11Z" fill="black"/>
</svg>
