<svg width="24" height="24" viewBox="0 0 24 24" fill="none" xmlns="http://www.w3.org/2000/svg">
<path d="M9 5C9 4.44687 9.44687 4 10 4H11C11.5531 4 12 4.44687 12 5C12.5531 5 13 5.44687 13 6V13C13 13.5531 12.5531 14 12 14C12 14.5531 11.5531 15 11 15H10C9.44687 15 9 14.5531 9 14C8.44687 14 8 13.5531 8 13V6C8 5.44687 8.44687 5 9 5ZM5 18H14C16.2094 18 18 16.2094 18 14C18 11.7906 16.2094 10 14 10V8C17.3125 8 20 10.6875 20 14C20 15.5375 19.4219 16.9375 18.4719 18H19C19.5531 18 20 18.4469 20 19C20 19.5531 19.5531 20 19 20H14H5C4.44687 20 4 19.5531 4 19C4 18.4469 4.44687 18 5 18ZM7.5 16H13.5C13.775 16 14 16.225 14 16.5C14 16.775 13.775 17 13.5 17H7.5C7.225 17 7 16.775 7 16.5C7 16.225 7.225 16 7.5 16Z" fill="black"/>
</svg>
