<svg width="24" height="24" viewBox="0 0 24 24" fill="none" xmlns="http://www.w3.org/2000/svg">
<path d="M4.99979 4C4.59666 4 4.23104 4.24375 4.07479 4.61875C3.91854 4.99375 4.00604 5.42188 4.29041 5.70938L10.9998 12.4156V18H8.99979C8.44666 18 7.99979 18.4469 7.99979 19C7.99979 19.5531 8.44666 20 8.99979 20H11.9998H14.9998C15.5529 20 15.9998 19.5531 15.9998 19C15.9998 18.4469 15.5529 18 14.9998 18H12.9998V12.4156L19.706 5.70625C19.9935 5.41875 20.0779 4.99063 19.9217 4.61563C19.7654 4.24063 19.4029 4 18.9998 4H4.99979ZM9.41541 8L7.41541 6H16.5842L14.5842 8H9.41541Z" fill="black"/>
</svg>
