<svg width="24" height="24" viewBox="0 0 24 24" fill="none" xmlns="http://www.w3.org/2000/svg">
<path d="M3.21268 4.15937C2.88768 3.90312 2.4158 3.96249 2.15955 4.28749C1.9033 4.61249 1.96268 5.08437 2.28768 5.34062L20.7877 19.8406C21.1127 20.0969 21.5846 20.0375 21.8408 19.7125C22.0971 19.3875 22.0377 18.9156 21.7127 18.6594L16.7533 14.7719C17.2283 13.9594 17.5002 13.0125 17.5002 12V10.75C17.5002 10.3344 17.1658 9.99999 16.7502 9.99999C16.3346 9.99999 16.0002 10.3344 16.0002 10.75V12C16.0002 12.6625 15.8408 13.2844 15.5564 13.8344L15.0002 13.4V6.99999C15.0002 5.34374 13.6564 3.99999 12.0002 3.99999C10.3439 3.99999 9.00018 5.34374 9.00018 6.99999V8.69687L3.21268 4.15937ZM14.5408 16.8781L13.1939 15.8187C12.8158 15.9375 12.4158 16 12.0002 16C9.7908 16 8.00018 14.2094 8.00018 12V11.7281L6.52205 10.5625C6.50643 10.6219 6.50018 10.6844 6.50018 10.75V12C6.50018 14.7844 8.56893 17.0844 11.2502 17.45V18.5H9.75018C9.33455 18.5 9.00018 18.8344 9.00018 19.25C9.00018 19.6656 9.33455 20 9.75018 20H12.0002H14.2502C14.6658 20 15.0002 19.6656 15.0002 19.25C15.0002 18.8344 14.6658 18.5 14.2502 18.5H12.7502V17.45C13.3877 17.3625 13.9908 17.1656 14.5408 16.8812V16.8781Z" fill="black"/>
</svg>
