<svg width="24" height="24" viewBox="0 0 24 24" fill="none" xmlns="http://www.w3.org/2000/svg">
<path d="M3 7.51518V17.1964C3 17.7589 3.31563 18.2902 3.84375 18.4871C6.5625 19.5027 9.28125 18.8089 12 18.1152C14.4938 17.4808 16.9875 16.8433 19.4781 17.5246C20.1969 17.7214 21 17.2277 21 16.4808V6.80268C21 6.24018 20.6844 5.70893 20.1562 5.51205C17.4375 4.49643 14.7188 5.19018 12 5.88393C9.50625 6.5183 7.0125 7.15268 4.52188 6.47143C3.8 6.27455 3 6.7683 3 7.51518ZM12 14.9996C10.6187 14.9996 9.5 13.6558 9.5 11.9996C9.5 10.3433 10.6187 8.99955 12 8.99955C13.3813 8.99955 14.5 10.3433 14.5 11.9996C14.5 13.6558 13.3813 14.9996 12 14.9996ZM5 14.9996C6.10312 14.9996 7 15.8964 7 16.9996H5V14.9996ZM7 8.49955C7 9.60268 6.10312 10.4996 5 10.4996V8.49955H7ZM19 13.4996V15.4996H17C17 14.3964 17.8969 13.4996 19 13.4996ZM17 6.99955H19V8.99955C17.8969 8.99955 17 8.10268 17 6.99955Z" fill="black"/>
</svg>
