<svg width="24" height="24" viewBox="0 0 24 24" fill="none" xmlns="http://www.w3.org/2000/svg">
<path d="M3.21243 4.15943C2.88743 3.90318 2.41556 3.96255 2.15931 4.28755C1.90306 4.61255 1.96243 5.08443 2.28743 5.34068L20.7874 19.8407C21.1124 20.0969 21.5843 20.0376 21.8406 19.7126C22.0968 19.3876 22.0374 18.9157 21.7124 18.6594L18.9999 16.5344V7.00005C18.9999 5.89693 18.1031 5.00005 16.9999 5.00005H6.99993C6.32493 5.00005 5.72806 5.33443 5.36556 5.84693L3.21243 4.15943ZM7.42181 7.45943C7.69368 7.17818 8.07806 7.00005 8.49993 7.00005H9.49993C9.77493 7.00005 9.99993 7.22505 9.99993 7.50005C9.99993 7.77505 9.77493 8.00005 9.49993 8.00005H8.49993C8.39681 8.00005 8.29993 8.0313 8.22181 8.08443L7.42181 7.4563V7.45943ZM11.4406 10.6094C11.4593 10.6001 11.4812 10.5938 11.4999 10.5876V8.50005C11.4999 7.67193 12.1718 7.00005 12.9999 7.00005H15.4999C16.3281 7.00005 16.9999 7.67193 16.9999 8.50005V14.9657L15.9999 14.1813V8.50005C15.9999 8.22505 15.7749 8.00005 15.4999 8.00005H12.9999C12.7249 8.00005 12.4999 8.22505 12.4999 8.50005V10.5844C13.0812 10.7907 13.4999 11.3469 13.4999 12.0001C13.4999 12.0719 13.4937 12.1438 13.4843 12.2126L11.4374 10.6094H11.4406ZM17.2156 18.9876L14.6937 17.0001H8.49993C7.67181 17.0001 6.99993 16.3282 6.99993 15.5001V10.9407L4.99993 9.36255V17.0001C4.99993 18.1032 5.89681 19.0001 6.99993 19.0001H16.9999C17.0718 19.0001 17.1437 18.9969 17.2156 18.9876ZM8.49993 16.0001H13.4218L7.99993 11.7282V15.5001C7.99993 15.7751 8.22493 16.0001 8.49993 16.0001Z" fill="black"/>
</svg>
