<svg width="24" height="24" viewBox="0 0 24 24" fill="none" xmlns="http://www.w3.org/2000/svg">
<path d="M5 7C5 5.89688 5.89688 5 7 5H17C18.1031 5 19 5.89688 19 7V14H15.5C14.6719 14 14 14.6719 14 15.5V19H7C5.89688 19 5 18.1031 5 17V7ZM17.5844 15H19L18 16L16 18L15 19V17.5844V15.5C15 15.225 15.225 15 15.5 15H17.5844ZM8.5 15.75C8.5 15.6515 8.4806 15.554 8.44291 15.463C8.40522 15.372 8.34997 15.2893 8.28033 15.2197C8.21069 15.15 8.12801 15.0948 8.03701 15.0571C7.94602 15.0194 7.84849 15 7.75 15C7.65151 15 7.55398 15.0194 7.46299 15.0571C7.37199 15.0948 7.28931 15.15 7.21967 15.2197C7.15003 15.2893 7.09478 15.372 7.05709 15.463C7.0194 15.554 7 15.6515 7 15.75C7 15.8485 7.0194 15.946 7.05709 16.037C7.09478 16.128 7.15003 16.2107 7.21967 16.2803C7.28931 16.35 7.37199 16.4052 7.46299 16.4429C7.55398 16.4806 7.65151 16.5 7.75 16.5C7.84849 16.5 7.94602 16.4806 8.03701 16.4429C8.12801 16.4052 8.21069 16.35 8.28033 16.2803C8.34997 16.2107 8.40522 16.128 8.44291 16.037C8.4806 15.946 8.5 15.8485 8.5 15.75ZM7.75 7.5C7.55109 7.5 7.36032 7.57902 7.21967 7.71967C7.07902 7.86032 7 8.05109 7 8.25C7 8.44891 7.07902 8.63968 7.21967 8.78033C7.36032 8.92098 7.55109 9 7.75 9C7.94891 9 8.13968 8.92098 8.28033 8.78033C8.42098 8.63968 8.5 8.44891 8.5 8.25C8.5 8.05109 8.42098 7.86032 8.28033 7.71967C8.13968 7.57902 7.94891 7.5 7.75 7.5ZM8.5 12C8.5 11.9015 8.4806 11.804 8.44291 11.713C8.40522 11.622 8.34997 11.5393 8.28033 11.4697C8.21069 11.4 8.12801 11.3448 8.03701 11.3071C7.94602 11.2694 7.84849 11.25 7.75 11.25C7.65151 11.25 7.55398 11.2694 7.46299 11.3071C7.37199 11.3448 7.28931 11.4 7.21967 11.4697C7.15003 11.5393 7.09478 11.622 7.05709 11.713C7.0194 11.804 7 11.9015 7 12C7 12.0985 7.0194 12.196 7.05709 12.287C7.09478 12.378 7.15003 12.4607 7.21967 12.5303C7.28931 12.6 7.37199 12.6552 7.46299 12.6929C7.55398 12.7306 7.65151 12.75 7.75 12.75C7.84849 12.75 7.94602 12.7306 8.03701 12.6929C8.12801 12.6552 8.21069 12.6 8.28033 12.5303C8.34997 12.4607 8.40522 12.378 8.44291 12.287C8.4806 12.196 8.5 12.0985 8.5 12Z" fill="black"/>
</svg>
