<svg width="24" height="24" viewBox="0 0 24 24" fill="none" xmlns="http://www.w3.org/2000/svg">
<path d="M14.9031 18.7437C15.225 19.0344 15.6969 19.0812 16.0719 18.8656C18.425 17.5031 20 14.9 20 12C20 9.09998 18.4281 6.49685 16.0719 5.13435C15.5938 4.85935 14.9812 5.02185 14.7063 5.49998C14.4313 5.9781 14.5938 6.5906 15.0719 6.8656C16.8156 7.87498 18 9.82498 18 12C18 13.9187 17.0781 15.6625 15.6625 16.7406L10.6687 12.2562C10.2562 11.8875 9.625 11.9219 9.25625 12.3312C8.8875 12.7406 8.92188 13.375 9.33125 13.7437L14.9031 18.7437ZM9.09688 5.25623C8.775 4.9656 8.30312 4.91873 7.92812 5.13435C5.57187 6.49685 4 9.09998 4 12C4 14.9 5.57187 17.5031 7.92812 18.8656C8.40625 19.1406 9.01875 18.9781 9.29375 18.5C9.56875 18.0219 9.40625 17.4094 8.92812 17.1344C7.18437 16.125 6 14.1781 6 12C6 10.0812 6.92188 8.33748 8.3375 7.25935L13.3313 11.7437C13.7438 12.1125 14.375 12.0781 14.7437 11.6687C15.1125 11.2594 15.0781 10.625 14.6687 10.2562L9.09688 5.25623Z" fill="black"/>
</svg>
