<svg width="24" height="24" viewBox="0 0 24 24" fill="none" xmlns="http://www.w3.org/2000/svg">
<path d="M3.21249 4.15943C2.88749 3.90318 2.41562 3.96255 2.15937 4.28755C1.90312 4.61255 1.96249 5.08443 2.28749 5.34068L20.7875 19.8407C21.1125 20.0969 21.5844 20.0376 21.8406 19.7126C22.0969 19.3876 22.0375 18.9157 21.7125 18.6594L19 16.5344V7.00005C19 5.89693 18.1031 5.00005 17 5.00005H6.99999C6.32499 5.00005 5.72812 5.33443 5.36562 5.84693L3.21249 4.15943ZM7.42187 7.45943C7.69374 7.17818 8.07812 7.00005 8.49999 7.00005H9.49999C9.77499 7.00005 9.99999 7.22505 9.99999 7.50005C9.99999 7.77505 9.77499 8.00005 9.49999 8.00005H8.49999C8.39687 8.00005 8.29999 8.0313 8.22187 8.08443L7.42187 7.4563V7.45943ZM11.4406 10.6094C11.4594 10.6001 11.4812 10.5938 11.5 10.5876V8.50005C11.5 7.67193 12.1719 7.00005 13 7.00005H15.5C16.3281 7.00005 17 7.67193 17 8.50005V14.9657L16 14.1813V8.50005C16 8.22505 15.775 8.00005 15.5 8.00005H13C12.725 8.00005 12.5 8.22505 12.5 8.50005V10.5844C13.0812 10.7907 13.5 11.3469 13.5 12.0001C13.5 12.0719 13.4937 12.1438 13.4844 12.2126L11.4375 10.6094H11.4406ZM17.2156 18.9876L14.6937 17.0001H8.49999C7.67187 17.0001 6.99999 16.3282 6.99999 15.5001V10.9407L4.99999 9.36255V17.0001C4.99999 18.1032 5.89687 19.0001 6.99999 19.0001H17C17.0719 19.0001 17.1437 18.9969 17.2156 18.9876ZM8.49999 16.0001H13.4219L7.99999 11.7282V15.5001C7.99999 15.7751 8.22499 16.0001 8.49999 16.0001Z" fill="black"/>
</svg>
