<svg width="24" height="24" viewBox="0 0 24 24" fill="none" xmlns="http://www.w3.org/2000/svg">
<path d="M14.9031 18.7438C15.225 19.0344 15.6969 19.0813 16.0719 18.8657C18.425 17.5032 20 14.9 20 12C20 9.10004 18.4281 6.49691 16.0719 5.13441C15.5937 4.85941 14.9813 5.02191 14.7063 5.50004C14.4313 5.97816 14.5937 6.59066 15.0719 6.86566C16.8156 7.87504 18 9.82504 18 12C18 13.9188 17.0781 15.6625 15.6625 16.7407L10.6687 12.2563C10.2562 11.8875 9.625 11.9219 9.25625 12.3313C8.8875 12.7407 8.92188 13.375 9.33125 13.7438L14.9031 18.7438ZM9.09688 5.25629C8.775 4.96566 8.30312 4.91879 7.92812 5.13441C5.57187 6.49691 4 9.10004 4 12C4 14.9 5.57187 17.5032 7.92812 18.8657C8.40625 19.1407 9.01875 18.9782 9.29375 18.5C9.56875 18.0219 9.40625 17.4094 8.92812 17.1344C7.18437 16.125 6 14.1782 6 12C6 10.0813 6.92188 8.33754 8.3375 7.25941L13.3313 11.7438C13.7438 12.1125 14.375 12.0782 14.7437 11.6688C15.1125 11.2594 15.0781 10.625 14.6687 10.2563L9.09688 5.25629Z" fill="black"/>
</svg>
