<svg width="24" height="24" viewBox="0 0 24 24" fill="none" xmlns="http://www.w3.org/2000/svg">
<path d="M16.5562 5.16871C17.0156 5.47496 17.1406 6.09683 16.8344 6.55621L15.5344 8.49996H17.5C18.0531 8.49996 18.5 8.94683 18.5 9.49996C18.5 10.0531 18.0531 10.5 17.5 10.5H14.2031L12.2031 13.5H17.5C18.0531 13.5 18.5 13.9468 18.5 14.5C18.5 15.0531 18.0531 15.5 17.5 15.5H10.8688L8.83125 18.5531C8.525 19.0125 7.90312 19.1375 7.44375 18.8312C6.98437 18.525 6.85938 17.9031 7.16563 17.4437L8.46563 15.5H6.5C5.94687 15.5 5.5 15.0531 5.5 14.5C5.5 13.9468 5.94687 13.5 6.5 13.5H9.79688L11.7969 10.5H6.5C5.94687 10.5 5.5 10.0531 5.5 9.49996C5.5 8.94683 5.94687 8.49996 6.5 8.49996H13.1313L15.1687 5.44683C15.475 4.98746 16.0969 4.86246 16.5562 5.16871Z" fill="black"/>
</svg>
