<svg width="24" height="24" viewBox="0 0 24 24" fill="none" xmlns="http://www.w3.org/2000/svg">
<path d="M7 7C7 5.89688 7.89687 5 9 5H18C19.1031 5 20 5.89688 20 7V17C20 18.1031 19.1031 19 18 19H6.5C5.11875 19 4 17.8813 4 16.5V8C4 7.44688 4.44687 7 5 7C5.55313 7 6 7.44688 6 8V16.5C6 16.775 6.225 17 6.5 17C6.775 17 7 16.775 7 16.5V7ZM9 7.75V10.25C9 10.6656 9.33437 11 9.75 11H13.25C13.6656 11 14 10.6656 14 10.25V7.75C14 7.33437 13.6656 7 13.25 7H9.75C9.33437 7 9 7.33437 9 7.75ZM15.5 7.5C15.5 7.775 15.725 8 16 8H17.5C17.775 8 18 7.775 18 7.5C18 7.225 17.775 7 17.5 7H16C15.725 7 15.5 7.225 15.5 7.5ZM15.5 10.5C15.5 10.775 15.725 11 16 11H17.5C17.775 11 18 10.775 18 10.5C18 10.225 17.775 10 17.5 10H16C15.725 10 15.5 10.225 15.5 10.5ZM9 13.5C9 13.775 9.225 14 9.5 14H17.5C17.775 14 18 13.775 18 13.5C18 13.225 17.775 13 17.5 13H9.5C9.225 13 9 13.225 9 13.5ZM9 16.5C9 16.775 9.225 17 9.5 17H17.5C17.775 17 18 16.775 18 16.5C18 16.225 17.775 16 17.5 16H9.5C9.225 16 9 16.225 9 16.5Z" fill="black"/>
</svg>
