<svg width="24" height="24" viewBox="0 0 24 24" fill="none" xmlns="http://www.w3.org/2000/svg">
<path d="M3.21243 4.15955C2.88743 3.9033 2.41556 3.96268 2.15931 4.28768C1.90306 4.61268 1.96243 5.08455 2.28743 5.3408L20.7874 19.8408C21.1124 20.097 21.5843 20.0377 21.8406 19.7127C22.0968 19.3877 22.0374 18.9158 21.7124 18.6596L18.9999 16.5346V7.00018C18.9999 5.89705 18.1031 5.00018 16.9999 5.00018H6.99993C6.32493 5.00018 5.72806 5.33455 5.36556 5.84705L3.21243 4.15955ZM7.42181 7.45955C7.69368 7.1783 8.07806 7.00018 8.49993 7.00018H9.49993C9.77493 7.00018 9.99993 7.22518 9.99993 7.50018C9.99993 7.77518 9.77493 8.00018 9.49993 8.00018H8.49993C8.39681 8.00018 8.29993 8.03143 8.22181 8.08455L7.42181 7.45643V7.45955ZM11.4406 10.6096C11.4593 10.6002 11.4812 10.5939 11.4999 10.5877V8.50018C11.4999 7.67205 12.1718 7.00018 12.9999 7.00018H15.4999C16.3281 7.00018 16.9999 7.67205 16.9999 8.50018V14.9658L15.9999 14.1814V8.50018C15.9999 8.22518 15.7749 8.00018 15.4999 8.00018H12.9999C12.7249 8.00018 12.4999 8.22518 12.4999 8.50018V10.5846C13.0812 10.7908 13.4999 11.3471 13.4999 12.0002C13.4999 12.0721 13.4937 12.1439 13.4843 12.2127L11.4374 10.6096H11.4406ZM17.2156 18.9877L14.6937 17.0002H8.49993C7.67181 17.0002 6.99993 16.3283 6.99993 15.5002V10.9408L4.99993 9.36268V17.0002C4.99993 18.1033 5.89681 19.0002 6.99993 19.0002H16.9999C17.0718 19.0002 17.1437 18.9971 17.2156 18.9877ZM8.49993 16.0002H13.4218L7.99993 11.7283V15.5002C7.99993 15.7752 8.22493 16.0002 8.49993 16.0002Z" fill="black"/>
</svg>
