<svg width="24" height="24" viewBox="0 0 24 24" fill="none" xmlns="http://www.w3.org/2000/svg">
<path d="M14.9031 18.7435C15.225 19.0342 15.6969 19.081 16.0719 18.8654C18.425 17.5029 20 14.8998 20 11.9998C20 9.09979 18.4281 6.49667 16.0719 5.13417C15.5938 4.85917 14.9812 5.02167 14.7063 5.49979C14.4313 5.97792 14.5938 6.59042 15.0719 6.86542C16.8156 7.87479 18 9.82479 18 11.9998C18 13.9185 17.0781 15.6623 15.6625 16.7404L10.6687 12.256C10.2562 11.8873 9.625 11.9217 9.25625 12.331C8.8875 12.7404 8.92188 13.3748 9.33125 13.7435L14.9031 18.7435ZM9.09688 5.25604C8.775 4.96542 8.30312 4.91854 7.92812 5.13417C5.57187 6.49667 4 9.09979 4 11.9998C4 14.8998 5.57187 17.5029 7.92812 18.8654C8.40625 19.1404 9.01875 18.9779 9.29375 18.4998C9.56875 18.0217 9.40625 17.4092 8.92812 17.1342C7.18437 16.1248 6 14.1779 6 11.9998C6 10.081 6.92188 8.33729 8.3375 7.25917L13.3313 11.7435C13.7438 12.1123 14.375 12.0779 14.7437 11.6685C15.1125 11.2592 15.0781 10.6248 14.6687 10.256L9.09688 5.25604Z" fill="black"/>
</svg>
