<svg width="24" height="24" viewBox="0 0 24 24" fill="none" xmlns="http://www.w3.org/2000/svg">
<path d="M21.9781 4.64691C22.0531 4.40316 21.9344 4.14379 21.7 4.04066C21.4656 3.93754 21.1938 4.02816 21.0688 4.24691L18.1469 9.25941C17.6188 9.09066 17.0563 9.00004 16.4719 9.00004C14.8813 9.00004 13.325 9.54691 12.0906 10.55L6.81563 14.8375C6.4875 15.1032 6 14.8719 6 14.45V11.9094L6.93437 11.2563C7.60312 10.7875 8 10.025 8 9.20941V7.50004C8 7.31254 7.89687 7.14379 7.73125 7.05629C7.56562 6.96879 7.36563 6.98441 7.2125 7.09066L5 8.64066L2.7875 7.09066C2.63438 6.98441 2.43438 6.97191 2.26875 7.05629C2.10313 7.14066 2 7.31254 2 7.50004V9.20941C2 10.025 2.39687 10.7907 3.06562 11.2563L4 11.9094V15C4 17.7625 6.2375 20 9 20H16.5C19.5375 20 22 17.5375 22 14.5C22 12.8938 21.3031 11.4469 20.1938 10.4407L21.975 4.64691H21.9781ZM17.5 12.75C17.6989 12.75 17.8897 12.8291 18.0303 12.9697C18.171 13.1104 18.25 13.3011 18.25 13.5C18.25 13.699 18.171 13.8897 18.0303 14.0304C17.8897 14.171 17.6989 14.25 17.5 14.25C17.3011 14.25 17.1103 14.171 16.9697 14.0304C16.829 13.8897 16.75 13.699 16.75 13.5C16.75 13.3011 16.829 13.1104 16.9697 12.9697C17.1103 12.8291 17.3011 12.75 17.5 12.75Z" fill="black"/>
</svg>
