<svg width="24" height="24" viewBox="0 0 24 24" fill="none" xmlns="http://www.w3.org/2000/svg">
<path d="M3.21243 4.15937C2.88743 3.90312 2.41556 3.96249 2.15931 4.28749C1.90306 4.61249 1.96243 5.08437 2.28743 5.34062L20.7874 19.8406C21.1124 20.0969 21.5843 20.0375 21.8406 19.7125C22.0968 19.3875 22.0374 18.9156 21.7124 18.6594L18.9999 16.5344V6.99999C18.9999 5.89687 18.1031 4.99999 16.9999 4.99999H6.99993C6.32493 4.99999 5.72806 5.33437 5.36556 5.84687L3.21243 4.15937ZM7.42181 7.45937C7.69368 7.17812 8.07806 6.99999 8.49993 6.99999H9.49993C9.77493 6.99999 9.99993 7.22499 9.99993 7.49999C9.99993 7.77499 9.77493 7.99999 9.49993 7.99999H8.49993C8.39681 7.99999 8.29993 8.03124 8.22181 8.08437L7.42181 7.45624V7.45937ZM11.4406 10.6094C11.4593 10.6 11.4812 10.5937 11.4999 10.5875V8.49999C11.4999 7.67187 12.1718 6.99999 12.9999 6.99999H15.4999C16.3281 6.99999 16.9999 7.67187 16.9999 8.49999V14.9656L15.9999 14.1812V8.49999C15.9999 8.22499 15.7749 7.99999 15.4999 7.99999H12.9999C12.7249 7.99999 12.4999 8.22499 12.4999 8.49999V10.5844C13.0812 10.7906 13.4999 11.3469 13.4999 12C13.4999 12.0719 13.4937 12.1437 13.4843 12.2125L11.4374 10.6094H11.4406ZM17.2156 18.9875L14.6937 17H8.49993C7.67181 17 6.99993 16.3281 6.99993 15.5V10.9406L4.99993 9.36249V17C4.99993 18.1031 5.89681 19 6.99993 19H16.9999C17.0718 19 17.1437 18.9969 17.2156 18.9875ZM8.49993 16H13.4218L7.99993 11.7281V15.5C7.99993 15.775 8.22493 16 8.49993 16Z" fill="black"/>
</svg>
