<svg width="24" height="24" viewBox="0 0 24 24" fill="none" xmlns="http://www.w3.org/2000/svg">
<path d="M5 7C5 5.89688 5.89688 5 7 5H17C18.1031 5 19 5.89688 19 7V14H15.5C14.6719 14 14 14.6719 14 15.5V19H7C5.89688 19 5 18.1031 5 17V7ZM17.5844 15H19L18 16L16 18L15 19V17.5844V15.5C15 15.225 15.225 15 15.5 15H17.5844ZM11 8.5V10H9.5C9.225 10 9 10.225 9 10.5V11.5C9 11.775 9.225 12 9.5 12H11V13.5C11 13.775 11.225 14 11.5 14H12.5C12.775 14 13 13.775 13 13.5V12H14.5C14.775 12 15 11.775 15 11.5V10.5C15 10.225 14.775 10 14.5 10H13V8.5C13 8.225 12.775 8 12.5 8H11.5C11.225 8 11 8.225 11 8.5Z" fill="black"/>
</svg>
