<svg width="24" height="24" viewBox="0 0 24 24" fill="none" xmlns="http://www.w3.org/2000/svg">
<path d="M8 4C9.93437 4 11.5 5.56562 11.5 7.5V11H4.5V7.5C4.5 5.56562 6.06563 4 8 4ZM7.72813 6.02813C7.3625 6.5 6.83125 6.84063 6.22188 6.95625C6.09688 6.98125 5.99688 7.0875 6.00938 7.2125C6.05625 7.65 6.24687 8.07812 6.58437 8.41563C7.36562 9.19688 8.63125 9.19688 9.4125 8.41563C9.75 8.07812 9.94063 7.65313 9.9875 7.2125C10 7.08438 9.90313 6.97812 9.775 6.95625C9.16563 6.84063 8.63438 6.5 8.26875 6.02813C8.14062 5.8625 7.85625 5.8625 7.72813 6.02813ZM21.8594 18.8156C22.0219 19.0437 22.0437 19.3438 21.9156 19.5938C21.7875 19.8438 21.5281 20 21.25 20H11.75C11.4688 20 11.2125 19.8438 11.0844 19.5938C10.9563 19.3438 10.9781 19.0437 11.1406 18.8156L11.1469 18.8062C11.1531 18.7969 11.1656 18.7812 11.1781 18.7594C11.2063 18.7156 11.25 18.65 11.3031 18.5625C11.4094 18.3875 11.55 18.1313 11.6938 17.8188C11.9813 17.1844 12.25 16.3562 12.25 15.5031V15.2531C12.25 12.9062 14.1531 11.0031 16.5 11.0031C18.8469 11.0031 20.75 12.9062 20.75 15.2531V15.5031C20.75 16.3562 21.0187 17.1813 21.3062 17.8188C21.45 18.1313 21.5906 18.3875 21.6969 18.5625C21.75 18.65 21.7937 18.7188 21.8219 18.7594C21.8375 18.7812 21.8469 18.7969 21.8531 18.8062L21.8594 18.8156ZM16.2281 14.0281C15.7719 14.6187 15.0562 15 14.25 15C14.1156 15 14 15.1031 14.0125 15.2375C14.0656 15.7969 14.3062 16.3406 14.7344 16.7688C15.7094 17.7438 17.2937 17.7438 18.2687 16.7688C18.6969 16.3406 18.9375 15.7969 18.9906 15.2375C19.0031 15.1031 18.8875 15 18.7531 15C17.9469 15 17.2312 14.6187 16.775 14.0281C16.6469 13.8625 16.3625 13.8625 16.2344 14.0281H16.2281ZM11.25 15.25V15.5C11.25 16.1562 11.0375 16.8344 10.7812 17.4C10.6562 17.6719 10.5344 17.8938 10.4438 18.0437C10.4 18.1187 10.3625 18.1719 10.3438 18.2063C10.3344 18.2219 10.325 18.2344 10.3219 18.2375V18.2406C9.95625 18.7594 9.9 19.4312 10.1687 20H4.32812C3.79688 20 3.28437 19.7906 2.99375 19.3469C2.55937 18.6781 2 17.525 2 16C2 14.6125 2.63125 13.3625 3.18438 12.2688C3.26875 12.1031 3.4375 12 3.62188 12H12.3781C11.6719 12.8938 11.25 14.0219 11.25 15.25Z" fill="black"/>
</svg>
