<svg width="24" height="24" viewBox="0 0 24 24" fill="none" xmlns="http://www.w3.org/2000/svg">
<path d="M6 5.5V7.25H4.75C4.33437 7.25 4 7.58437 4 8C4 8.41563 4.33437 8.75 4.75 8.75H6V11.25H4.75C4.33437 11.25 4 11.5844 4 12C4 12.4156 4.33437 12.75 4.75 12.75H6V15.25H4.75C4.33437 15.25 4 15.5844 4 16C4 16.4156 4.33437 16.75 4.75 16.75H6V18.5C6 19.3281 6.67188 20 7.5 20H10V4H7.5C6.67188 4 6 4.67188 6 5.5ZM17.5 4H11V20H17.5C18.3281 20 19 19.3281 19 18.5V5.5C19 4.67188 18.3281 4 17.5 4Z" fill="black"/>
</svg>
