<svg width="24" height="24" viewBox="0 0 24 24" fill="none" xmlns="http://www.w3.org/2000/svg">
<path d="M21.9781 4.64679C22.0531 4.40304 21.9344 4.14367 21.7 4.04054C21.4656 3.93742 21.1938 4.02804 21.0688 4.24679L18.1469 9.25929C17.6188 9.09054 17.0563 8.99992 16.4719 8.99992C14.8813 8.99992 13.325 9.54679 12.0906 10.5499L6.81563 14.8374C6.4875 15.103 6 14.8718 6 14.4499V11.9093L6.93437 11.2562C7.60312 10.7874 8 10.0249 8 9.20929V7.49992C8 7.31242 7.89687 7.14367 7.73125 7.05617C7.56562 6.96867 7.36563 6.98429 7.2125 7.09054L5 8.64054L2.7875 7.09054C2.63438 6.98429 2.43438 6.97179 2.26875 7.05617C2.10313 7.14054 2 7.31242 2 7.49992V9.20929C2 10.0249 2.39687 10.7905 3.06562 11.2562L4 11.9093V14.9999C4 17.7624 6.2375 19.9999 9 19.9999H16.5C19.5375 19.9999 22 17.5374 22 14.4999C22 12.8937 21.3031 11.4468 20.1938 10.4405L21.975 4.64679H21.9781ZM17.5 12.7499C17.6989 12.7499 17.8897 12.8289 18.0303 12.9696C18.171 13.1102 18.25 13.301 18.25 13.4999C18.25 13.6988 18.171 13.8896 18.0303 14.0302C17.8897 14.1709 17.6989 14.2499 17.5 14.2499C17.3011 14.2499 17.1103 14.1709 16.9697 14.0302C16.829 13.8896 16.75 13.6988 16.75 13.4999C16.75 13.301 16.829 13.1102 16.9697 12.9696C17.1103 12.8289 17.3011 12.7499 17.5 12.7499Z" fill="black"/>
</svg>
