<svg width="24" height="24" viewBox="0 0 24 24" fill="none" xmlns="http://www.w3.org/2000/svg">
<path d="M15.1313 11.2469L18.1562 14.5719C18.7 15.1687 19 15.9469 19 16.7563C19 18.5469 17.5469 20 15.7531 20H15.4594C14.45 20 13.4719 19.6469 12.6969 19L12.4969 18.8344C11.85 18.2969 11.0375 18 10.1969 18C9.53438 18 9 18.5375 9 19.1969V19.375C9 19.4281 9.00313 19.4812 9.00938 19.5344C9.03438 19.7563 8.88437 20 8.65937 20H8.5C6.5875 20 5.03438 18.4656 5 16.5594C5.03125 14.7906 6.38438 13.3125 8.15313 13.1375L9.55 12.9969C9.825 12.9688 10.025 12.725 9.99687 12.45C9.96875 12.175 9.725 11.975 9.45 12.0031L8.05312 12.1438C7.83125 12.1656 7.61562 12.2031 7.40625 12.2563C7.20625 12.3063 7 12.1625 7 11.9531V5C7 4.44687 7.44688 4 8 4H9.925C10.2812 4 10.6094 4.1875 10.7875 4.49687L13.15 8.54688C13.7156 9.5125 14.3781 10.4187 15.1313 11.2469Z" fill="black"/>
</svg>
