<svg width="24" height="24" viewBox="0 0 24 24" fill="none" xmlns="http://www.w3.org/2000/svg">
<path d="M2 7C2 5.89688 2.89688 5 4 5H14C15.1031 5 16 5.89688 16 7V9.08437C15.6406 9.2125 15.3344 9.475 15.1594 9.82812L15.075 10H14.5C14.325 10 14.1562 10.0312 14 10.0844V8.5C14 7.67188 13.3281 7 12.5 7H10C9.17188 7 8.5 7.67188 8.5 8.5V10.5844C7.91875 10.7906 7.5 11.3469 7.5 12C7.5 12.8281 8.17188 13.5 9 13.5C9.82812 13.5 10.5 12.8281 10.5 12C10.5 11.3469 10.0813 10.7906 9.5 10.5844V8.5C9.5 8.225 9.725 8 10 8H12.5C12.775 8 13 8.225 13 8.5V11.5V15.5C13 15.775 12.775 16 12.5 16H5.5C5.225 16 5 15.775 5 15.5V8.5C5 8.225 5.225 8 5.5 8H6.5C6.775 8 7 7.775 7 7.5C7 7.225 6.775 7 6.5 7H5.5C4.67188 7 4 7.67188 4 8.5V15.5C4 16.3281 4.67188 17 5.5 17H12.5C13.0125 17 13.4656 16.7438 13.7375 16.35L13.9281 19H4C2.89688 19 2 18.1031 2 17V7ZM16.0531 10.275C16.1375 10.1063 16.3094 10 16.5 10H19.5C19.6906 10 19.8625 10.1063 19.9469 10.275L20.3094 11H21.5C21.775 11 22 11.225 22 11.5C22 11.775 21.775 12 21.5 12H20H16H14.5C14.225 12 14 11.775 14 11.5C14 11.225 14.225 11 14.5 11H15.6906L16.0531 10.275ZM14.9344 19.0719L14.5 13H21.5L21.0656 19.0719C21.0281 19.5938 20.5938 20 20.0688 20H15.9312C15.4062 20 14.9719 19.5938 14.9344 19.0719Z" fill="black"/>
</svg>
