<svg width="24" height="24" viewBox="0 0 24 24" fill="none" xmlns="http://www.w3.org/2000/svg">
<path d="M8.3938 4.66255C8.81567 4.24067 9.38755 4.00317 9.98442 4.00317H14.0157C14.6125 4.00317 15.1844 4.24067 15.6063 4.66255L19.3375 8.3938C19.7594 8.81567 19.9969 9.38755 19.9969 9.98442V14.0157C19.9969 14.6125 19.7594 15.1844 19.3375 15.6063L15.6063 19.3375C15.1844 19.7594 14.6125 19.9969 14.0157 19.9969H9.98442C9.38755 19.9969 8.81567 19.7594 8.3938 19.3375L4.66255 15.6063C4.24067 15.1844 4.00317 14.6125 4.00317 14.0157V9.98442C4.00317 9.38755 4.24067 8.81567 4.66255 8.3938L8.3938 4.66255ZM12 10C12.2653 10 12.5196 9.89469 12.7072 9.70716C12.8947 9.51962 13 9.26527 13 9.00005C13 8.73483 12.8947 8.48048 12.7072 8.29294C12.5196 8.10541 12.2653 8.00005 12 8.00005C11.7348 8.00005 11.4805 8.10541 11.2929 8.29294C11.1054 8.48048 11 8.73483 11 9.00005C11 9.26527 11.1054 9.51962 11.2929 9.70716C11.4805 9.89469 11.7348 10 12 10ZM9.25005 11.25C8.83442 11.25 8.50005 11.5844 8.50005 12C8.50005 12.4157 8.83442 12.75 9.25005 12.75H14.75C15.1657 12.75 15.5 12.4157 15.5 12C15.5 11.5844 15.1657 11.25 14.75 11.25H9.25005ZM13 15C13 14.7348 12.8947 14.4805 12.7072 14.2929C12.5196 14.1054 12.2653 14 12 14C11.7348 14 11.4805 14.1054 11.2929 14.2929C11.1054 14.4805 11 14.7348 11 15C11 15.2653 11.1054 15.5196 11.2929 15.7072C11.4805 15.8947 11.7348 16 12 16C12.2653 16 12.5196 15.8947 12.7072 15.7072C12.8947 15.5196 13 15.2653 13 15Z" fill="black"/>
</svg>
