<svg width="24" height="24" viewBox="0 0 24 24" fill="none" xmlns="http://www.w3.org/2000/svg">
<path d="M15.8531 4.14687C15.6594 3.95312 15.3406 3.95312 15.1469 4.14687L14.6469 4.64687C14.4531 4.84062 14.4531 5.15937 14.6469 5.35312L15.1469 5.85312C15.3406 6.04687 15.6594 6.04687 15.8531 5.85312L16.3531 5.35312C16.5469 5.15937 16.5469 4.84062 16.3531 4.64687L15.8531 4.14687ZM12.7812 6.08437C12.7125 6.03749 12.6281 6.00624 12.5406 5.99999C12.5219 5.99999 12.5 5.99687 12.4812 5.99999C12.3594 6.00624 12.25 6.05312 12.1656 6.13124C12.1375 6.15624 12.1156 6.18437 12.0938 6.21249C12.0406 6.28749 12.0094 6.37812 12.0031 6.47812C12.0031 6.49999 12.0031 6.52187 12.0031 6.54374C12.0094 6.61249 12.0312 6.67812 12.0625 6.73749L12.0719 6.75624C12.0812 6.77499 12.0969 6.79999 12.1156 6.83124C12.1531 6.89374 12.2062 6.98124 12.275 7.08749C12.4125 7.29687 12.6219 7.57187 12.9 7.84999C13.45 8.40937 14.3219 8.99999 15.5 8.99999C16.475 8.99999 17.2688 8.67499 17.8094 8.36874C18.0813 8.21249 18.2969 8.05937 18.4469 7.93749C18.5219 7.87812 18.5813 7.82499 18.625 7.78437C18.6469 7.76562 18.6656 7.74687 18.6781 7.73437L18.6969 7.71874L18.7 7.71562L18.7031 7.71249C18.8875 7.53124 19 7.27812 19 6.99999C19 6.44687 18.5531 5.99999 18 5.99999C17.7281 5.99999 17.4781 6.10937 17.3 6.28749C17.2969 6.29062 17.2937 6.29374 17.2844 6.29999C17.2688 6.31562 17.2375 6.34062 17.1969 6.37499C17.1125 6.44374 16.9844 6.53749 16.8188 6.63124C16.4813 6.82499 16.025 6.99999 15.5 6.99999C14.85 6.99999 14.175 6.78124 13.6406 6.54374C13.3781 6.42812 13.1594 6.30937 13.0063 6.22187C12.9313 6.17812 12.8719 6.14374 12.8313 6.11874C12.8125 6.10624 12.7969 6.09687 12.7875 6.09062L12.7781 6.08437H12.7812ZM7.6 9.29999C7.85 9.11249 8.15938 8.99999 8.5 8.99999C9.32812 8.99999 10 9.67187 10 10.5C10 11.3281 9.32812 12 8.5 12H7.43125C7.19375 12 7 12.1937 7 12.4312C7 12.4781 7.00625 12.5219 7.02187 12.5687L7.27187 13.3187C7.40937 13.7281 7.79063 14.0031 8.22188 14.0031H8.5H9C10.1031 14.0031 11 14.9 11 16.0031C11 17.1062 10.1031 18.0031 9 18.0031C7.4125 18.0031 6.41563 17.3312 5.80625 16.6656C5.49688 16.3281 5.2875 15.9906 5.15313 15.7375C5.0875 15.6125 5.04063 15.5094 5.0125 15.4375C4.99688 15.4031 4.9875 15.375 4.98125 15.3594L4.975 15.3437C4.96563 15.3156 4.95312 15.2875 4.94063 15.2625C4.90312 15.1937 4.85312 15.1375 4.79375 15.0937C4.73438 15.05 4.66562 15.0219 4.59062 15.0062C4.54688 14.9969 4.5 14.9969 4.45312 15C4.375 15.0062 4.30312 15.0312 4.24062 15.0719C4.20625 15.0937 4.17188 15.1187 4.14375 15.15C4.06875 15.2281 4.01562 15.3312 4.00313 15.4469C4 15.4656 4 15.4812 4 15.5C4 15.525 4.00313 15.5531 4.00625 15.5781V15.5812C4.00625 15.5906 4.00938 15.6062 4.0125 15.6219C4.01875 15.6562 4.025 15.7062 4.0375 15.7656C4.0625 15.8875 4.1 16.0594 4.15937 16.2625C4.27812 16.6687 4.48125 17.2125 4.825 17.7625C5.52187 18.8812 6.79375 20 9 20C11.2094 20 13 18.2094 13 16C13 15.2719 12.8062 14.5875 12.4656 14H13.1719C13.9688 14 14.7312 13.6844 15.2937 13.1219L16.1219 12.2937C16.3094 12.1062 16.5625 12 16.8281 12H17C17.5531 12 18 12.4469 18 13V16C18 16.5531 17.5531 17 17 17C16.1969 17 15.7062 16.6094 15.4 16.2C15.2437 15.9906 15.1375 15.7812 15.0719 15.6187C15.0375 15.5406 15.0156 15.475 15.0031 15.4312C14.9969 15.4094 14.9906 15.3937 14.9875 15.3844L14.9844 15.3781C14.975 15.3375 14.9594 15.2969 14.9375 15.2594C14.9031 15.1969 14.8562 15.1406 14.8 15.1C14.7156 15.0375 14.6125 15 14.5 15H14.4937C14.2437 15.0031 14.0375 15.1906 14.0063 15.4344C14.0063 15.4437 14.0031 15.4531 14 15.4687C13.9969 15.4969 13.9906 15.5344 13.9875 15.5812C13.9781 15.675 13.9688 15.8094 13.9688 15.9687C13.9688 16.2844 14.0031 16.7156 14.15 17.1594C14.3 17.6062 14.5687 18.075 15.0437 18.4312C15.5219 18.7906 16.1656 19 17 19C18.6562 19 20 17.6562 20 16V13C20 11.3437 18.6562 9.99999 17 9.99999H16.8281C16.0312 9.99999 15.2688 10.3156 14.7063 10.8781L13.8781 11.7062C13.6906 11.8937 13.4375 12 13.1719 12H11.6625C11.8781 11.5469 12 11.0375 12 10.5C12 8.56562 10.4344 6.99999 8.5 6.99999C7.7125 6.99999 6.98438 7.25937 6.4 7.69999C5.95938 8.03124 5.86875 8.65937 6.2 9.09999C6.53125 9.54062 7.15937 9.63124 7.6 9.29999Z" fill="black"/>
</svg>
