<svg width="24" height="24" viewBox="0 0 24 24" fill="none" xmlns="http://www.w3.org/2000/svg">
<path d="M8.39355 4.66328C8.81543 4.24141 9.3873 4.00391 9.98418 4.00391H14.0154C14.6123 4.00391 15.1842 4.24141 15.6061 4.66328L19.3373 8.39453C19.7592 8.81641 19.9967 9.38828 19.9967 9.98516V14.0164C19.9967 14.6133 19.7592 15.1852 19.3373 15.607L15.6061 19.3383C15.1842 19.7602 14.6123 19.9977 14.0154 19.9977H9.98418C9.3873 19.9977 8.81543 19.7602 8.39355 19.3383L4.6623 15.607C4.24043 15.1852 4.00293 14.6133 4.00293 14.0164V9.98516C4.00293 9.38828 4.24043 8.81641 4.6623 8.39453L8.39355 4.66328ZM15.5311 10.532C15.8248 10.2383 15.8248 9.76328 15.5311 9.47266C15.2373 9.18203 14.7623 9.17891 14.4717 9.47266L11.0029 12.9414L9.53418 11.4727C9.24043 11.1789 8.76543 11.1789 8.4748 11.4727C8.18418 11.7664 8.18105 12.2414 8.4748 12.532L10.4748 14.532C10.7686 14.8258 11.2436 14.8258 11.5342 14.532L15.5311 10.532Z" fill="black"/>
</svg>
