<svg width="24" height="24" viewBox="0 0 24 24" fill="none" xmlns="http://www.w3.org/2000/svg">
<path d="M7.67188 10.1594L8.075 10.3594C8.25937 10.4531 8.4625 10.5 8.67188 10.5C9.40625 10.5 10.0031 9.90312 10.0031 9.16875V8.5C10.0031 7.39688 9.10625 6.5 8.00313 6.5H6C4.89688 6.5 4 7.39688 4 8.5V9.16875C4 9.90312 4.59687 10.5 5.33125 10.5C5.5375 10.5 5.74062 10.4531 5.92812 10.3594L6.33125 10.1594L6.59375 10.0281L6.22188 9.78125C6.08125 9.6875 6 9.53125 6 9.36562V9.25C6 8.83437 6.33437 8.5 6.75 8.5H7.25C7.66563 8.5 8 8.83437 8 9.25V9.36562C8 9.53125 7.91562 9.6875 7.77812 9.78125L7.40938 10.0281L7.67188 10.1594ZM7.40312 11.7031L7 11.5L6.59688 11.7C6.20313 11.8969 5.76875 12 5.33125 12C5.21875 12 5.10938 11.9937 5 11.9812V12C5 13.1031 5.89688 14 7 14H9C9.55313 14 10 14.4469 10 15C10 15.5531 9.55313 16 9 16H14V14.5V14C14 13.2594 14.4031 12.6125 15 12.2688C15.2937 12.1 15.6344 12 16 12V11.5C16 10.6719 16.6719 10 17.5 10C17.775 10 18 10.225 18 10.5V11.5V12V13.5C18 13.775 18.225 14 18.5 14C18.775 14 19 13.775 19 13.5V10.3844C19 8.87813 18.0375 7.54063 16.6062 7.0625L16.3406 6.975C16.0906 6.89062 15.9469 6.62813 16.0156 6.37188C16.0844 6.11563 16.3375 5.95938 16.5969 6.00938L17.2188 6.13438C20 6.69063 22 9.13125 22 11.9656V12C22 15.8656 18.8656 19 15 19H14.9656H10H9.98125C6.125 19 3 15.875 3 12.0188V12V10.775C2.68437 10.3188 2.5 9.76562 2.5 9.16875V8.5V8.45625C2.20937 8.35313 2 8.07812 2 7.75C2 7.33437 2.33437 7 2.75 7H2.8375C3.4 5.81875 4.60312 5 6 5H8C9.39688 5 10.6 5.81875 11.1625 7H11.25C11.6656 7 12 7.33437 12 7.75C12 8.07812 11.7906 8.35313 11.5 8.45625V8.5V9.16875C11.5 9.2125 11.5 9.25625 11.4969 9.30312C11.8719 9.10937 12.3 9.00313 12.75 9.00313H13C13.5531 9.00313 14 9.45 14 10.0031C14 10.5563 13.5531 11.0031 13 11.0031H12.75C12.3344 11.0031 12 11.3375 12 11.7531V12.0031H13.7625C13.2875 12.5344 13 13.2344 13 14.0031H12C10.6781 14.0031 9.55625 13.1469 9.15625 11.9625C8.99688 11.9906 8.83437 12.0031 8.66875 12.0031C8.22812 12.0031 7.79687 11.9 7.40312 11.7031ZM5 8C5.13261 8 5.25979 8.05268 5.35355 8.14645C5.44732 8.24021 5.5 8.36739 5.5 8.5C5.5 8.63261 5.44732 8.75979 5.35355 8.85355C5.25979 8.94732 5.13261 9 5 9C4.86739 9 4.74021 8.94732 4.64645 8.85355C4.55268 8.75979 4.5 8.63261 4.5 8.5C4.5 8.36739 4.55268 8.24021 4.64645 8.14645C4.74021 8.05268 4.86739 8 5 8ZM8.5 8.5C8.5 8.36739 8.55268 8.24021 8.64645 8.14645C8.74021 8.05268 8.86739 8 9 8C9.13261 8 9.25979 8.05268 9.35355 8.14645C9.44732 8.24021 9.5 8.36739 9.5 8.5C9.5 8.63261 9.44732 8.75979 9.35355 8.85355C9.25979 8.94732 9.13261 9 9 9C8.86739 9 8.74021 8.94732 8.64645 8.85355C8.55268 8.75979 8.5 8.63261 8.5 8.5Z" fill="black"/>
</svg>
