<svg width="24" height="24" viewBox="0 0 24 24" fill="none" xmlns="http://www.w3.org/2000/svg">
<path d="M9.98442 4.00391C9.38755 4.00391 8.81567 4.24141 8.3938 4.66328L4.66255 8.39453C4.24067 8.81641 4.00317 9.38828 4.00317 9.98516V14.0164C4.00317 14.6133 4.24067 15.1852 4.66255 15.607L8.3938 19.3383C8.81567 19.7602 9.38755 19.9977 9.98442 19.9977H14.0157C14.6125 19.9977 15.1844 19.7602 15.6063 19.3383L19.3375 15.607C19.7594 15.1852 19.9969 14.6133 19.9969 14.0164V9.98516C19.9969 9.38828 19.7594 8.81641 19.3375 8.39453L15.6063 4.66328C15.1844 4.24141 14.6125 4.00391 14.0157 4.00391H9.98442Z" fill="black"/>
</svg>
