<svg width="24" height="24" viewBox="0 0 24 24" fill="none" xmlns="http://www.w3.org/2000/svg">
<path d="M4.99941 6C4.99941 5.44687 5.44629 5 5.99941 5H17.9994C18.5525 5 18.9994 5.44687 18.9994 6C18.9994 6.55313 18.5525 7 17.9994 7H5.99941C5.44629 7 4.99941 6.55313 4.99941 6ZM10.9994 10C10.9994 9.44688 11.4463 9 11.9994 9H17.9994C18.5525 9 18.9994 9.44688 18.9994 10C18.9994 10.5531 18.5525 11 17.9994 11H11.9994C11.4463 11 10.9994 10.5531 10.9994 10ZM11.9994 13H17.9994C18.5525 13 18.9994 13.4469 18.9994 14C18.9994 14.5531 18.5525 15 17.9994 15H11.9994C11.4463 15 10.9994 14.5531 10.9994 14C10.9994 13.4469 11.4463 13 11.9994 13ZM4.99941 18C4.99941 17.4469 5.44629 17 5.99941 17H17.9994C18.5525 17 18.9994 17.4469 18.9994 18C18.9994 18.5531 18.5525 19 17.9994 19H5.99941C5.44629 19 4.99941 18.5531 4.99941 18ZM5.00566 12.3938C4.74941 12.1938 4.74941 11.8031 5.00566 11.6031L8.19004 9.125C8.51816 8.86875 8.99629 9.10313 8.99629 9.51875V14.4781C8.99629 14.8937 8.51816 15.1281 8.19004 14.8719L5.00566 12.3938Z" fill="black"/>
</svg>
