<svg width="24" height="24" viewBox="0 0 24 24" fill="none" xmlns="http://www.w3.org/2000/svg">
<path d="M8.39374 4.6625C8.81561 4.24063 9.38749 4.00313 9.98436 4.00313H14.0156C14.6125 4.00313 15.1844 4.24063 15.6062 4.6625L19.3375 8.39375C19.7594 8.81563 19.9969 9.3875 19.9969 9.98438V14.0156C19.9969 14.6125 19.7594 15.1844 19.3375 15.6063L15.6062 19.3375C15.1844 19.7594 14.6125 19.9969 14.0156 19.9969H9.98436C9.38749 19.9969 8.81561 19.7594 8.39374 19.3375L4.66249 15.6063C4.24061 15.1844 4.00311 14.6125 4.00311 14.0156V9.98438C4.00311 9.3875 4.24061 8.81563 4.66249 8.39375L8.39374 4.6625ZM12 8C11.5844 8 11.25 8.33438 11.25 8.75V12.25C11.25 12.6656 11.5844 13 12 13C12.4156 13 12.75 12.6656 12.75 12.25V8.75C12.75 8.33438 12.4156 8 12 8ZM13 15C13 14.7348 12.8946 14.4804 12.7071 14.2929C12.5196 14.1054 12.2652 14 12 14C11.7348 14 11.4804 14.1054 11.2929 14.2929C11.1053 14.4804 11 14.7348 11 15C11 15.2652 11.1053 15.5196 11.2929 15.7071C11.4804 15.8946 11.7348 16 12 16C12.2652 16 12.5196 15.8946 12.7071 15.7071C12.8946 15.5196 13 15.2652 13 15Z" fill="black"/>
</svg>
