<svg width="24" height="24" viewBox="0 0 24 24" fill="none" xmlns="http://www.w3.org/2000/svg">
<path d="M8.39355 4.66255C8.81543 4.24067 9.3873 4.00317 9.98418 4.00317H14.0154C14.6123 4.00317 15.1842 4.24067 15.6061 4.66255L19.3373 8.3938C19.7592 8.81567 19.9967 9.38755 19.9967 9.98442V14.0157C19.9967 14.6125 19.7592 15.1844 19.3373 15.6063L15.6061 19.3375C15.1842 19.7594 14.6123 19.9969 14.0154 19.9969H9.98418C9.3873 19.9969 8.81543 19.7594 8.39355 19.3375L4.6623 15.6063C4.24043 15.1844 4.00293 14.6125 4.00293 14.0157V9.98442C4.00293 9.38755 4.24043 8.81567 4.6623 8.3938L8.39355 4.66255ZM9.46855 9.4688C9.1748 9.76255 9.1748 10.2375 9.46855 10.5282L10.9373 11.9969L9.46855 13.4657C9.1748 13.7594 9.1748 14.2344 9.46855 14.525C9.7623 14.8157 10.2373 14.8188 10.5279 14.525L11.9967 13.0563L13.4654 14.525C13.7592 14.8188 14.2342 14.8188 14.5248 14.525C14.8154 14.2313 14.8186 13.7563 14.5248 13.4657L13.0561 11.9969L14.5248 10.5282C14.8186 10.2344 14.8186 9.75942 14.5248 9.4688C14.2311 9.17817 13.7561 9.17505 13.4654 9.4688L11.9967 10.9375L10.5279 9.4688C10.2342 9.17505 9.75918 9.17505 9.46855 9.4688Z" fill="black"/>
</svg>
