<svg width="24" height="24" viewBox="0 0 24 24" fill="none" xmlns="http://www.w3.org/2000/svg">
<path d="M8.3938 4.66255C8.81567 4.24067 9.38755 4.00317 9.98442 4.00317H14.0157C14.6125 4.00317 15.1844 4.24067 15.6063 4.66255L19.3375 8.3938C19.7594 8.81567 19.9969 9.38755 19.9969 9.98442V14.0157C19.9969 14.6125 19.7594 15.1844 19.3375 15.6063L15.6063 19.3375C15.1844 19.7594 14.6125 19.9969 14.0157 19.9969H9.98442C9.38755 19.9969 8.81567 19.7594 8.3938 19.3375L4.66255 15.6063C4.24067 15.1844 4.00317 14.6125 4.00317 14.0157V9.98442C4.00317 9.38755 4.24067 8.81567 4.66255 8.3938L8.3938 4.66255ZM9.4688 9.4688C9.17505 9.76255 9.17505 10.2375 9.4688 10.5282L10.9375 11.9969L9.4688 13.4657C9.17505 13.7594 9.17505 14.2344 9.4688 14.525C9.76255 14.8157 10.2375 14.8188 10.5282 14.525L11.9969 13.0563L13.4657 14.525C13.7594 14.8188 14.2344 14.8188 14.525 14.525C14.8157 14.2313 14.8188 13.7563 14.525 13.4657L13.0563 11.9969L14.525 10.5282C14.8188 10.2344 14.8188 9.75942 14.525 9.4688C14.2313 9.17817 13.7563 9.17505 13.4657 9.4688L11.9969 10.9375L10.5282 9.4688C10.2344 9.17505 9.75942 9.17505 9.4688 9.4688Z" fill="black"/>
</svg>
