<svg width="24" height="24" viewBox="0 0 24 24" fill="none" xmlns="http://www.w3.org/2000/svg">
<path d="M8.39355 4.66255C8.81543 4.24067 9.3873 4.00317 9.98418 4.00317H14.0154C14.6123 4.00317 15.1842 4.24067 15.6061 4.66255L19.3373 8.3938C19.7592 8.81567 19.9967 9.38755 19.9967 9.98442V14.0157C19.9967 14.6125 19.7592 15.1844 19.3373 15.6063L15.6061 19.3375C15.1842 19.7594 14.6123 19.9969 14.0154 19.9969H9.98418C9.3873 19.9969 8.81543 19.7594 8.39355 19.3375L4.6623 15.6063C4.24043 15.1844 4.00293 14.6125 4.00293 14.0157V9.98442C4.00293 9.38755 4.24043 8.81567 4.6623 8.3938L8.39355 4.66255ZM11.9998 8.00005C11.5842 8.00005 11.2498 8.33442 11.2498 8.75005V12.25C11.2498 12.6657 11.5842 13 11.9998 13C12.4154 13 12.7498 12.6657 12.7498 12.25V8.75005C12.7498 8.33442 12.4154 8.00005 11.9998 8.00005ZM12.9998 15C12.9998 14.7348 12.8944 14.4805 12.7069 14.2929C12.5194 14.1054 12.265 14 11.9998 14C11.7346 14 11.4802 14.1054 11.2927 14.2929C11.1052 14.4805 10.9998 14.7348 10.9998 15C10.9998 15.2653 11.1052 15.5196 11.2927 15.7072C11.4802 15.8947 11.7346 16 11.9998 16C12.265 16 12.5194 15.8947 12.7069 15.7072C12.8944 15.5196 12.9998 15.2653 12.9998 15Z" fill="black"/>
</svg>
