<svg width="24" height="24" viewBox="0 0 24 24" fill="none" xmlns="http://www.w3.org/2000/svg">
<path d="M9.98442 4.00317C9.38755 4.00317 8.81567 4.24067 8.3938 4.66255L4.66255 8.3938C4.24067 8.81567 4.00317 9.38755 4.00317 9.98442V14.0157C4.00317 14.6125 4.24067 15.1844 4.66255 15.6063L8.3938 19.3375C8.81567 19.7594 9.38755 19.9969 9.98442 19.9969H14.0157C14.6125 19.9969 15.1844 19.7594 15.6063 19.3375L19.3375 15.6063C19.7594 15.1844 19.9969 14.6125 19.9969 14.0157V9.98442C19.9969 9.38755 19.7594 8.81567 19.3375 8.3938L15.6063 4.66255C15.1844 4.24067 14.6125 4.00317 14.0157 4.00317H9.98442Z" fill="black"/>
</svg>
