<svg width="24" height="24" viewBox="0 0 24 24" fill="none" xmlns="http://www.w3.org/2000/svg">
<path d="M13 7C13 7.55313 12.5531 8 12 8H11V9H13.5281C13.8375 9 14.1438 9.07188 14.4219 9.2125L16 10L21.2188 8.88125C21.7844 8.75937 22.1781 9.43125 21.7938 9.86562L16.0969 16.3219C15.7188 16.7531 15.1719 17 14.5969 17H6.5C5.67188 17 5 16.3281 5 15.5V14.8344L2.89062 13.8969C2.35 13.6563 2 13.1187 2 12.525V10.5C2 9.67188 2.67188 9 3.5 9H5H6.5H9V8H8C7.44687 8 7 7.55313 7 7C7 6.44687 7.44687 6 8 6H12C12.5531 6 13 6.44687 13 7ZM3.5 10.5V12.525L5 13.1906V10.5H3.5ZM20.5 18C19.6719 18 19 17.3281 19 16.5C19 15.8438 19.6438 14.5438 20.0906 13.725C20.2719 13.3938 20.7313 13.3938 20.9125 13.725C21.3563 14.5438 22 15.8438 22 16.5C22 17.5 21.3281 18 20.5 18Z" fill="black"/>
</svg>
