<svg width="24" height="24" viewBox="0 0 24 24" fill="none" xmlns="http://www.w3.org/2000/svg">
<path d="M12 8C12.5531 8 13 7.55313 13 7C13 6.44687 12.5531 6 12 6H8C7.44688 6 7 6.44687 7 7C7 7.55313 7.44688 8 8 8H9V9H6.5H5H3.5C2.67188 9 2 9.67188 2 10.5V12.525C2 13.1187 2.35 13.6563 2.89062 13.8969L5 14.8344V15.5C5 16.3281 5.67188 17 6.5 17H14.5969C15.1719 17 15.7156 16.7531 16.0969 16.3219L21.7969 9.86562C22.1812 9.43125 21.7875 8.75937 21.2219 8.88125L16 10L14.4219 9.2125C14.1438 9.075 13.8375 9 13.5281 9H11V8H12ZM5 10.5V13.1906L3.5 12.525V10.5H5Z" fill="black"/>
</svg>
