<svg width="24" height="24" viewBox="0 0 24 24" fill="none" xmlns="http://www.w3.org/2000/svg">
<path d="M8.3938 4.66255C8.81567 4.24067 9.38755 4.00317 9.98442 4.00317H14.0157C14.6125 4.00317 15.1844 4.24067 15.6063 4.66255L19.3375 8.3938C19.7594 8.81567 19.9969 9.38755 19.9969 9.98442V14.0157C19.9969 14.6125 19.7594 15.1844 19.3375 15.6063L15.6063 19.3375C15.1844 19.7594 14.6125 19.9969 14.0157 19.9969H9.98442C9.38755 19.9969 8.81567 19.7594 8.3938 19.3375L4.66255 15.6063C4.24067 15.1844 4.00317 14.6125 4.00317 14.0157V9.98442C4.00317 9.38755 4.24067 8.81567 4.66255 8.3938L8.3938 4.66255ZM11.25 14.75C11.25 15.1657 11.5844 15.5 12 15.5C12.4157 15.5 12.75 15.1657 12.75 14.75V12.75H14.75C15.1657 12.75 15.5 12.4157 15.5 12C15.5 11.5844 15.1657 11.25 14.75 11.25H12.75V9.25005C12.75 8.83442 12.4157 8.50005 12 8.50005C11.5844 8.50005 11.25 8.83442 11.25 9.25005V11.25H9.25005C8.83442 11.25 8.50005 11.5844 8.50005 12C8.50005 12.4157 8.83442 12.75 9.25005 12.75H11.25V14.75Z" fill="black"/>
</svg>
