<svg width="24" height="24" viewBox="0 0 24 24" fill="none" xmlns="http://www.w3.org/2000/svg">
<path d="M8.39355 4.66255C8.81543 4.24067 9.3873 4.00317 9.98418 4.00317H14.0154C14.6123 4.00317 15.1842 4.24067 15.6061 4.66255L19.3373 8.3938C19.7592 8.81567 19.9967 9.38755 19.9967 9.98442V14.0157C19.9967 14.6125 19.7592 15.1844 19.3373 15.6063L15.6061 19.3375C15.1842 19.7594 14.6123 19.9969 14.0154 19.9969H9.98418C9.3873 19.9969 8.81543 19.7594 8.39355 19.3375L4.6623 15.6063C4.24043 15.1844 4.00293 14.6125 4.00293 14.0157V9.98442C4.00293 9.38755 4.24043 8.81567 4.6623 8.3938L8.39355 4.66255ZM9.7498 11.25C9.33418 11.25 8.9998 11.5844 8.9998 12C8.9998 12.4157 9.33418 12.75 9.7498 12.75H14.2498C14.6654 12.75 14.9998 12.4157 14.9998 12C14.9998 11.5844 14.6654 11.25 14.2498 11.25H9.7498Z" fill="black"/>
</svg>
