<svg width="24" height="24" viewBox="0 0 24 24" fill="none" xmlns="http://www.w3.org/2000/svg">
<path d="M7 5C5.89688 5 5 5.89688 5 7V17C5 18.1031 5.89688 19 7 19H17C18.1031 19 19 18.1031 19 17V7C19 5.89688 18.1031 5 17 5H7ZM7 12C7 10.0906 7.9625 8.90312 8.55312 8.35625C8.82812 8.1 9.2 8 9.57188 8H14.425C14.8 8 15.1719 8.10312 15.4438 8.35625C16.0375 8.90312 17 10.0906 17 12C17 13.9094 16.0375 15.0938 15.4469 15.6438C15.1719 15.9 14.8 16 14.4281 16H9.575C9.2 16 8.82813 15.8969 8.55625 15.6438C7.9625 15.0938 7 13.9094 7 12ZM10 10C9.725 10 9.5 10.225 9.5 10.5V12C9.5 12.275 9.725 12.5 10 12.5C10.275 12.5 10.5 12.275 10.5 12V10.5C10.5 10.225 10.275 10 10 10ZM14 10C13.725 10 13.5 10.225 13.5 10.5V12C13.5 12.275 13.725 12.5 14 12.5C14.275 12.5 14.5 12.275 14.5 12V10.5C14.5 10.225 14.275 10 14 10ZM12 13C11.5844 13 11.25 13.3344 11.25 13.75V14.25C11.25 14.3875 11.3625 14.5 11.5 14.5H12.5C12.6375 14.5 12.75 14.3875 12.75 14.25V13.75C12.75 13.3344 12.4156 13 12 13Z" fill="black"/>
</svg>
