<svg width="24" height="24" viewBox="0 0 24 24" fill="none" xmlns="http://www.w3.org/2000/svg">
<path d="M8.39374 4.66255C8.81561 4.24067 9.38749 4.00317 9.98436 4.00317H14.0156C14.6125 4.00317 15.1844 4.24067 15.6062 4.66255L19.3375 8.3938C19.7594 8.81567 19.9969 9.38755 19.9969 9.98442V14.0157C19.9969 14.6125 19.7594 15.1844 19.3375 15.6063L15.6062 19.3375C15.1844 19.7594 14.6125 19.9969 14.0156 19.9969H9.98436C9.38749 19.9969 8.81561 19.7594 8.39374 19.3375L4.66249 15.6063C4.24061 15.1844 4.00311 14.6125 4.00311 14.0157V9.98442C4.00311 9.38755 4.24061 8.81567 4.66249 8.3938L8.39374 4.66255ZM11.25 14.75C11.25 15.1657 11.5844 15.5 12 15.5C12.4156 15.5 12.75 15.1657 12.75 14.75V12.75H14.75C15.1656 12.75 15.5 12.4157 15.5 12C15.5 11.5844 15.1656 11.25 14.75 11.25H12.75V9.25005C12.75 8.83442 12.4156 8.50005 12 8.50005C11.5844 8.50005 11.25 8.83442 11.25 9.25005V11.25H9.24999C8.83436 11.25 8.49999 11.5844 8.49999 12C8.49999 12.4157 8.83436 12.75 9.24999 12.75H11.25V14.75Z" fill="black"/>
</svg>
