<svg width="24" height="24" viewBox="0 0 24 24" fill="none" xmlns="http://www.w3.org/2000/svg">
<path d="M4.75 20H19.25C19.6656 20 20 19.6656 20 19.25C20 18.8344 19.6656 18.5 19.25 18.5H4.75C4.33437 18.5 4 18.8344 4 19.25C4 19.6656 4.33437 20 4.75 20ZM6 14.5C6 15.3281 6.67188 16 7.5 16H9.5C10.3281 16 11 15.3281 11 14.5V5.5C11 4.67188 10.3281 4 9.5 4H7.5C6.67188 4 6 4.67188 6 5.5V14.5ZM13 14.5C13 15.3281 13.6719 16 14.5 16H16.5C17.3281 16 18 15.3281 18 14.5V9.5C18 8.67188 17.3281 8 16.5 8H14.5C13.6719 8 13 8.67188 13 9.5V14.5Z" fill="black"/>
</svg>
