<svg width="24" height="24" viewBox="0 0 24 24" fill="none" xmlns="http://www.w3.org/2000/svg">
<path d="M8.3938 4.66255C8.81567 4.24067 9.38755 4.00317 9.98442 4.00317H14.0157C14.6125 4.00317 15.1844 4.24067 15.6063 4.66255L19.3375 8.3938C19.7594 8.81567 19.9969 9.38755 19.9969 9.98442V14.0157C19.9969 14.6125 19.7594 15.1844 19.3375 15.6063L15.6063 19.3375C15.1844 19.7594 14.6125 19.9969 14.0157 19.9969H9.98442C9.38755 19.9969 8.81567 19.7594 8.3938 19.3375L4.66255 15.6063C4.24067 15.1844 4.00317 14.6125 4.00317 14.0157V9.98442C4.00317 9.38755 4.24067 8.81567 4.66255 8.3938L8.3938 4.66255ZM9.75005 11.25C9.33442 11.25 9.00005 11.5844 9.00005 12C9.00005 12.4157 9.33442 12.75 9.75005 12.75H14.25C14.6657 12.75 15 12.4157 15 12C15 11.5844 14.6657 11.25 14.25 11.25H9.75005Z" fill="black"/>
</svg>
