<svg width="24" height="24" viewBox="0 0 24 24" fill="none" xmlns="http://www.w3.org/2000/svg">
<path d="M6 5C5.44687 5 5 5.44687 5 6C5 6.55313 5.44687 7 6 7H18C18.5531 7 19 6.55313 19 6C19 5.44687 18.5531 5 18 5H6ZM12 8C10.5413 8 9.14236 8.57946 8.11091 9.61091C7.07946 10.6424 6.5 12.0413 6.5 13.5C6.5 14.9587 7.07946 16.3576 8.11091 17.3891C9.14236 18.4205 10.5413 19 12 19C13.4587 19 14.8576 18.4205 15.8891 17.3891C16.9205 16.3576 17.5 14.9587 17.5 13.5C17.5 12.0413 16.9205 10.6424 15.8891 9.61091C14.8576 8.57946 13.4587 8 12 8ZM15.5 13.5C15.5 14.4283 15.1313 15.3185 14.4749 15.9749C13.8185 16.6313 12.9283 17 12 17C11.0717 17 10.1815 16.6313 9.52513 15.9749C8.86875 15.3185 8.5 14.4283 8.5 13.5C8.5 12.5717 8.86875 11.6815 9.52513 11.0251C10.1815 10.3687 11.0717 10 12 10C12.9283 10 13.8185 10.3687 14.4749 11.0251C15.1313 11.6815 15.5 12.5717 15.5 13.5Z" fill="black"/>
</svg>
