<svg width="24" height="24" viewBox="0 0 24 24" fill="none" xmlns="http://www.w3.org/2000/svg">
<path d="M8.39374 4.66255C8.81561 4.24067 9.38749 4.00317 9.98436 4.00317H14.0156C14.6125 4.00317 15.1844 4.24067 15.6062 4.66255L19.3375 8.3938C19.7594 8.81567 19.9969 9.38755 19.9969 9.98442V14.0157C19.9969 14.6125 19.7594 15.1844 19.3375 15.6063L15.6062 19.3375C15.1844 19.7594 14.6125 19.9969 14.0156 19.9969H9.98436C9.38749 19.9969 8.81561 19.7594 8.39374 19.3375L4.66249 15.6063C4.24061 15.1844 4.00311 14.6125 4.00311 14.0157V9.98442C4.00311 9.38755 4.24061 8.81567 4.66249 8.3938L8.39374 4.66255ZM15.5312 10.5313C15.825 10.2375 15.825 9.76255 15.5312 9.47192C15.2375 9.1813 14.7625 9.17817 14.4719 9.47192L11.0031 12.9407L9.53436 11.4719C9.24061 11.1782 8.76561 11.1782 8.47499 11.4719C8.18436 11.7657 8.18124 12.2407 8.47499 12.5313L10.475 14.5313C10.7687 14.825 11.2437 14.825 11.5344 14.5313L15.5312 10.5313Z" fill="black"/>
</svg>
