<svg width="24" height="24" viewBox="0 0 24 24" fill="none" xmlns="http://www.w3.org/2000/svg">
<path d="M9.98418 4.00317C9.3873 4.00317 8.81543 4.24067 8.39355 4.66255L4.6623 8.3938C4.24043 8.81567 4.00293 9.38755 4.00293 9.98442V14.0157C4.00293 14.6125 4.24043 15.1844 4.6623 15.6063L8.39355 19.3375C8.81543 19.7594 9.3873 19.9969 9.98418 19.9969H14.0154C14.6123 19.9969 15.1842 19.7594 15.6061 19.3375L19.3373 15.6063C19.7592 15.1844 19.9967 14.6125 19.9967 14.0157V9.98442C19.9967 9.38755 19.7592 8.81567 19.3373 8.3938L15.6061 4.66255C15.1842 4.24067 14.6123 4.00317 14.0154 4.00317H9.98418Z" fill="black"/>
</svg>
