<svg width="24" height="24" viewBox="0 0 24 24" fill="none" xmlns="http://www.w3.org/2000/svg">
<path d="M15.8531 4.1469C15.6594 3.95315 15.3406 3.95315 15.1469 4.1469L14.6469 4.6469C14.4531 4.84065 14.4531 5.1594 14.6469 5.35315L15.1469 5.85315C15.3406 6.0469 15.6594 6.0469 15.8531 5.85315L16.3531 5.35315C16.5469 5.1594 16.5469 4.84065 16.3531 4.6469L15.8531 4.1469ZM12.7812 6.0844C12.7125 6.03752 12.6281 6.00627 12.5406 6.00002C12.5219 6.00002 12.5 5.9969 12.4812 6.00002C12.3594 6.00627 12.25 6.05315 12.1656 6.13127C12.1375 6.15627 12.1156 6.1844 12.0938 6.21252C12.0406 6.28752 12.0094 6.37815 12.0031 6.47815C12.0031 6.50002 12.0031 6.5219 12.0031 6.54377C12.0094 6.61252 12.0312 6.67815 12.0625 6.73752L12.0719 6.75627C12.0812 6.77502 12.0969 6.80002 12.1156 6.83127C12.1531 6.89377 12.2062 6.98127 12.275 7.08752C12.4125 7.2969 12.6219 7.5719 12.9 7.85002C13.45 8.4094 14.3219 9.00002 15.5 9.00002C16.475 9.00002 17.2688 8.67502 17.8094 8.36877C18.0813 8.21252 18.2969 8.0594 18.4469 7.93752C18.5219 7.87815 18.5813 7.82502 18.625 7.7844C18.6469 7.76565 18.6656 7.7469 18.6781 7.7344L18.6969 7.71877L18.7 7.71565L18.7031 7.71252C18.8875 7.53127 19 7.27815 19 7.00002C19 6.4469 18.5531 6.00002 18 6.00002C17.7281 6.00002 17.4781 6.1094 17.3 6.28752C17.2969 6.29065 17.2937 6.29377 17.2844 6.30002C17.2688 6.31565 17.2375 6.34065 17.1969 6.37502C17.1125 6.44377 16.9844 6.53752 16.8188 6.63127C16.4813 6.82502 16.025 7.00002 15.5 7.00002C14.85 7.00002 14.175 6.78127 13.6406 6.54377C13.3781 6.42815 13.1594 6.3094 13.0063 6.2219C12.9313 6.17815 12.8719 6.14377 12.8313 6.11877C12.8125 6.10627 12.7969 6.0969 12.7875 6.09065L12.7781 6.0844H12.7812ZM7.6 9.30002C7.85 9.11252 8.15938 9.00002 8.5 9.00002C9.32812 9.00002 10 9.6719 10 10.5C10 11.3281 9.32812 12 8.5 12H7.43125C7.19375 12 7 12.1938 7 12.4313C7 12.4781 7.00625 12.5219 7.02187 12.5688L7.27187 13.3188C7.40937 13.7282 7.79063 14.0031 8.22188 14.0031H8.5H9C10.1031 14.0031 11 14.9 11 16.0031C11 17.1063 10.1031 18.0031 9 18.0031C7.4125 18.0031 6.41563 17.3313 5.80625 16.6656C5.49688 16.3281 5.2875 15.9907 5.15313 15.7375C5.0875 15.6125 5.04063 15.5094 5.0125 15.4375C4.99688 15.4031 4.9875 15.375 4.98125 15.3594L4.975 15.3438C4.96563 15.3156 4.95312 15.2875 4.94063 15.2625C4.90312 15.1938 4.85312 15.1375 4.79375 15.0938C4.73438 15.05 4.66562 15.0219 4.59062 15.0063C4.54688 14.9969 4.5 14.9969 4.45312 15C4.375 15.0063 4.30312 15.0313 4.24062 15.0719C4.20625 15.0938 4.17188 15.1188 4.14375 15.15C4.06875 15.2281 4.01562 15.3313 4.00313 15.4469C4 15.4656 4 15.4813 4 15.5C4 15.525 4.00313 15.5532 4.00625 15.5781V15.5813C4.00625 15.5906 4.00938 15.6063 4.0125 15.6219C4.01875 15.6563 4.025 15.7063 4.0375 15.7656C4.0625 15.8875 4.1 16.0594 4.15937 16.2625C4.27812 16.6688 4.48125 17.2125 4.825 17.7625C5.52187 18.8813 6.79375 20 9 20C11.2094 20 13 18.2094 13 16C13 15.2719 12.8062 14.5875 12.4656 14H13.1719C13.9688 14 14.7312 13.6844 15.2937 13.1219L16.1219 12.2938C16.3094 12.1063 16.5625 12 16.8281 12H17C17.5531 12 18 12.4469 18 13V16C18 16.5532 17.5531 17 17 17C16.1969 17 15.7062 16.6094 15.4 16.2C15.2437 15.9906 15.1375 15.7813 15.0719 15.6188C15.0375 15.5406 15.0156 15.475 15.0031 15.4313C14.9969 15.4094 14.9906 15.3938 14.9875 15.3844L14.9844 15.3781C14.975 15.3375 14.9594 15.2969 14.9375 15.2594C14.9031 15.1969 14.8562 15.1406 14.8 15.1C14.7156 15.0375 14.6125 15 14.5 15H14.4937C14.2437 15.0031 14.0375 15.1906 14.0063 15.4344C14.0063 15.4438 14.0031 15.4531 14 15.4688C13.9969 15.4969 13.9906 15.5344 13.9875 15.5813C13.9781 15.675 13.9688 15.8094 13.9688 15.9688C13.9688 16.2844 14.0031 16.7156 14.15 17.1594C14.3 17.6063 14.5687 18.075 15.0437 18.4313C15.5219 18.7906 16.1656 19 17 19C18.6562 19 20 17.6563 20 16V13C20 11.3438 18.6562 10 17 10H16.8281C16.0312 10 15.2688 10.3156 14.7063 10.8781L13.8781 11.7063C13.6906 11.8938 13.4375 12 13.1719 12H11.6625C11.8781 11.5469 12 11.0375 12 10.5C12 8.56565 10.4344 7.00002 8.5 7.00002C7.7125 7.00002 6.98438 7.2594 6.4 7.70002C5.95938 8.03127 5.86875 8.6594 6.2 9.10002C6.53125 9.54065 7.15937 9.63127 7.6 9.30002Z" fill="black"/>
</svg>
