<svg width="24" height="24" viewBox="0 0 24 24" fill="none" xmlns="http://www.w3.org/2000/svg">
<path d="M4 4.75V19.25C4 19.6656 4.33437 20 4.75 20C5.16563 20 5.5 19.6656 5.5 19.25V4.75C5.5 4.33437 5.16563 4 4.75 4C4.33437 4 4 4.33437 4 4.75ZM9.5 6C8.67188 6 8 6.67188 8 7.5V9.5C8 10.3281 8.67188 11 9.5 11H18.5C19.3281 11 20 10.3281 20 9.5V7.5C20 6.67188 19.3281 6 18.5 6H9.5ZM9.5 13C8.67188 13 8 13.6719 8 14.5V16.5C8 17.3281 8.67188 18 9.5 18H14.5C15.3281 18 16 17.3281 16 16.5V14.5C16 13.6719 15.3281 13 14.5 13H9.5Z" fill="black"/>
</svg>
