<svg width="24" height="24" viewBox="0 0 24 24" fill="none" xmlns="http://www.w3.org/2000/svg">
<path d="M4.75 4H19.25C19.6656 4 20 4.33437 20 4.75C20 5.16563 19.6656 5.5 19.25 5.5H4.75C4.33437 5.5 4 5.16563 4 4.75C4 4.33437 4.33437 4 4.75 4ZM6 9.5C6 8.67188 6.67188 8 7.5 8H9.5C10.3281 8 11 8.67188 11 9.5V18.5C11 19.3281 10.3281 20 9.5 20H7.5C6.67188 20 6 19.3281 6 18.5V9.5ZM13 9.5C13 8.67188 13.6719 8 14.5 8H16.5C17.3281 8 18 8.67188 18 9.5V14.5C18 15.3281 17.3281 16 16.5 16H14.5C13.6719 16 13 15.3281 13 14.5V9.5Z" fill="black"/>
</svg>
