<svg width="24" height="24" viewBox="0 0 24 24" fill="none" xmlns="http://www.w3.org/2000/svg">
<path d="M15.8531 4.14727C15.6594 3.95352 15.3406 3.95352 15.1469 4.14727L14.6469 4.64727C14.4531 4.84102 14.4531 5.15977 14.6469 5.35352L15.1469 5.85352C15.3406 6.04727 15.6594 6.04727 15.8531 5.85352L16.3531 5.35352C16.5469 5.15977 16.5469 4.84102 16.3531 4.64727L15.8531 4.14727ZM12.7812 6.08477C12.7125 6.03789 12.6281 6.00664 12.5406 6.00039C12.5219 6.00039 12.5 5.99727 12.4812 6.00039C12.3594 6.00664 12.25 6.05352 12.1656 6.13164C12.1375 6.15664 12.1156 6.18477 12.0938 6.21289C12.0406 6.28789 12.0094 6.37852 12.0031 6.47852C12.0031 6.50039 12.0031 6.52227 12.0031 6.54414C12.0094 6.61289 12.0312 6.67852 12.0625 6.73789L12.0719 6.75664C12.0812 6.77539 12.0969 6.80039 12.1156 6.83164C12.1531 6.89414 12.2062 6.98164 12.275 7.08789C12.4125 7.29727 12.6219 7.57227 12.9 7.85039C13.45 8.40977 14.3219 9.00039 15.5 9.00039C16.475 9.00039 17.2687 8.67539 17.8094 8.36914C18.0812 8.21289 18.2969 8.05977 18.4469 7.93789C18.5219 7.87852 18.5813 7.82539 18.625 7.78477C18.6469 7.76602 18.6656 7.74727 18.6781 7.73477L18.6969 7.71914L18.7 7.71602L18.7031 7.71289C18.8875 7.53164 19 7.27852 19 7.00039C19 6.44727 18.5531 6.00039 18 6.00039C17.7281 6.00039 17.4781 6.10977 17.3 6.28789C17.2969 6.29102 17.2938 6.29414 17.2844 6.30039C17.2688 6.31602 17.2375 6.34102 17.1969 6.37539C17.1125 6.44414 16.9844 6.53789 16.8188 6.63164C16.4813 6.82539 16.025 7.00039 15.5 7.00039C14.85 7.00039 14.175 6.78164 13.6406 6.54414C13.3781 6.42852 13.1594 6.30977 13.0063 6.22227C12.9313 6.17852 12.8719 6.14414 12.8313 6.11914C12.8125 6.10664 12.7969 6.09727 12.7875 6.09102L12.7781 6.08477H12.7812ZM7.6 9.30039C7.85 9.11289 8.15938 9.00039 8.5 9.00039C9.32812 9.00039 10 9.67227 10 10.5004C10 11.3285 9.32812 12.0004 8.5 12.0004H7.43125C7.19375 12.0004 7 12.1941 7 12.4316C7 12.4785 7.00625 12.5223 7.02187 12.5691L7.27187 13.3191C7.40937 13.7285 7.79063 14.0035 8.22188 14.0035H8.5H9C10.1031 14.0035 11 14.9004 11 16.0035C11 17.1066 10.1031 18.0035 9 18.0035C7.4125 18.0035 6.41562 17.3316 5.80625 16.666C5.49687 16.3285 5.2875 15.991 5.15313 15.7379C5.0875 15.6129 5.04063 15.5098 5.0125 15.4379C4.99688 15.4035 4.9875 15.3754 4.98125 15.3598L4.975 15.3441C4.96563 15.316 4.95313 15.2879 4.94063 15.2629C4.90313 15.1941 4.85312 15.1379 4.79375 15.0941C4.73437 15.0504 4.66562 15.0223 4.59062 15.0066C4.54687 14.9973 4.5 14.9973 4.45312 15.0004C4.375 15.0066 4.30312 15.0316 4.24062 15.0723C4.20625 15.0941 4.17187 15.1191 4.14375 15.1504C4.06875 15.2285 4.01563 15.3316 4.00313 15.4473C4 15.466 4 15.4816 4 15.5004C4 15.5254 4.00313 15.5535 4.00625 15.5785V15.5816C4.00625 15.591 4.00938 15.6066 4.0125 15.6223C4.01875 15.6566 4.025 15.7066 4.0375 15.766C4.0625 15.8879 4.1 16.0598 4.15937 16.2629C4.27812 16.6691 4.48125 17.2129 4.825 17.7629C5.52187 18.8816 6.79375 20.0004 9 20.0004C11.2094 20.0004 13 18.2098 13 16.0004C13 15.2723 12.8062 14.5879 12.4656 14.0004H13.1719C13.9688 14.0004 14.7312 13.6848 15.2937 13.1223L16.1219 12.2941C16.3094 12.1066 16.5625 12.0004 16.8281 12.0004H17C17.5531 12.0004 18 12.4473 18 13.0004V16.0004C18 16.5535 17.5531 17.0004 17 17.0004C16.1969 17.0004 15.7062 16.6098 15.4 16.2004C15.2437 15.991 15.1375 15.7816 15.0719 15.6191C15.0375 15.541 15.0156 15.4754 15.0031 15.4316C14.9969 15.4098 14.9906 15.3941 14.9875 15.3848L14.9844 15.3785C14.975 15.3379 14.9594 15.2973 14.9375 15.2598C14.9031 15.1973 14.8563 15.141 14.8 15.1004C14.7156 15.0379 14.6125 15.0004 14.5 15.0004H14.4937C14.2437 15.0035 14.0375 15.191 14.0063 15.4348C14.0063 15.4441 14.0031 15.4535 14 15.4691C13.9969 15.4973 13.9906 15.5348 13.9875 15.5816C13.9781 15.6754 13.9688 15.8098 13.9688 15.9691C13.9688 16.2848 14.0031 16.716 14.15 17.1598C14.3 17.6066 14.5687 18.0754 15.0437 18.4316C15.5219 18.791 16.1656 19.0004 17 19.0004C18.6562 19.0004 20 17.6566 20 16.0004V13.0004C20 11.3441 18.6562 10.0004 17 10.0004H16.8281C16.0312 10.0004 15.2688 10.316 14.7063 10.8785L13.8781 11.7066C13.6906 11.8941 13.4375 12.0004 13.1719 12.0004H11.6625C11.8781 11.5473 12 11.0379 12 10.5004C12 8.56602 10.4344 7.00039 8.5 7.00039C7.7125 7.00039 6.98438 7.25977 6.4 7.70039C5.95938 8.03164 5.86875 8.65977 6.2 9.10039C6.53125 9.54102 7.15937 9.63164 7.6 9.30039Z" fill="black"/>
</svg>
