<svg width="24" height="24" viewBox="0 0 24 24" fill="none" xmlns="http://www.w3.org/2000/svg">
<path d="M8.39374 4.66255C8.81561 4.24067 9.38749 4.00317 9.98436 4.00317H14.0156C14.6125 4.00317 15.1844 4.24067 15.6062 4.66255L19.3375 8.3938C19.7594 8.81567 19.9969 9.38755 19.9969 9.98442V14.0157C19.9969 14.6125 19.7594 15.1844 19.3375 15.6063L15.6062 19.3375C15.1844 19.7594 14.6125 19.9969 14.0156 19.9969H9.98436C9.38749 19.9969 8.81561 19.7594 8.39374 19.3375L4.66249 15.6063C4.24061 15.1844 4.00311 14.6125 4.00311 14.0157V9.98442C4.00311 9.38755 4.24061 8.81567 4.66249 8.3938L8.39374 4.66255ZM9.46874 9.4688C9.17499 9.76255 9.17499 10.2375 9.46874 10.5282L10.9375 11.9969L9.46874 13.4657C9.17499 13.7594 9.17499 14.2344 9.46874 14.525C9.76249 14.8157 10.2375 14.8188 10.5281 14.525L11.9969 13.0563L13.4656 14.525C13.7594 14.8188 14.2344 14.8188 14.525 14.525C14.8156 14.2313 14.8187 13.7563 14.525 13.4657L13.0562 11.9969L14.525 10.5282C14.8187 10.2344 14.8187 9.75942 14.525 9.4688C14.2312 9.17817 13.7562 9.17505 13.4656 9.4688L11.9969 10.9375L10.5281 9.4688C10.2344 9.17505 9.75936 9.17505 9.46874 9.4688Z" fill="black"/>
</svg>
