<svg width="24" height="24" viewBox="0 0 24 24" fill="none" xmlns="http://www.w3.org/2000/svg">
<path d="M19.5094 5.91568C19.1531 4.5813 17.7812 3.79068 16.4469 4.14693L15.9656 4.27505C15.4312 4.4188 15.1156 4.9688 15.2594 5.50005L16.025 8.3563L12.6406 9.23443L12.4438 8.6688C12.3031 8.2688 11.925 8.00005 11.5 8.00005C11.075 8.00005 10.6969 8.2688 10.5563 8.6688L10.1312 9.88755L6 10.9563V9.75005C6 9.33443 5.66563 9.00005 5.25 9.00005C4.83438 9.00005 4.5 9.33443 4.5 9.75005V18.0001H4C3.44687 18.0001 3 18.4469 3 19.0001C3 19.5532 3.44687 20.0001 4 20.0001H20C20.5531 20.0001 21 19.5532 21 19.0001C21 18.4469 20.5531 18.0001 20 18.0001H15.7094L13.625 12.0469L11.6812 12.5501L12.5406 15.0001H10.4594L11.2812 12.6563L8.95 13.2594L7.29063 18.0001H6V13.0251L16.5437 10.2907L17.3313 13.2282C17.475 13.7626 18.0219 14.0782 18.5562 13.9344L19.0406 13.8063C20.375 13.4501 21.1656 12.0782 20.8094 10.7438L19.5094 5.91568ZM9.40938 18.0001L9.75938 17.0001H13.2406L13.5906 18.0001H9.40938Z" fill="black"/>
</svg>
