<svg width="24" height="24" viewBox="0 0 24 24" fill="none" xmlns="http://www.w3.org/2000/svg">
<path d="M8.3938 4.66328C8.81567 4.24141 9.38755 4.00391 9.98442 4.00391H14.0157C14.6125 4.00391 15.1844 4.24141 15.6063 4.66328L19.3375 8.39453C19.7594 8.81641 19.9969 9.38828 19.9969 9.98516V14.0164C19.9969 14.6133 19.7594 15.1852 19.3375 15.607L15.6063 19.3383C15.1844 19.7602 14.6125 19.9977 14.0157 19.9977H9.98442C9.38755 19.9977 8.81567 19.7602 8.3938 19.3383L4.66255 15.607C4.24067 15.1852 4.00317 14.6133 4.00317 14.0164V9.98516C4.00317 9.38828 4.24067 8.81641 4.66255 8.39453L8.3938 4.66328ZM11.25 14.7508C11.25 15.1664 11.5844 15.5008 12 15.5008C12.4157 15.5008 12.75 15.1664 12.75 14.7508V12.7508H14.75C15.1657 12.7508 15.5 12.4164 15.5 12.0008C15.5 11.5852 15.1657 11.2508 14.75 11.2508H12.75V9.25078C12.75 8.83516 12.4157 8.50078 12 8.50078C11.5844 8.50078 11.25 8.83516 11.25 9.25078V11.2508H9.25005C8.83442 11.2508 8.50005 11.5852 8.50005 12.0008C8.50005 12.4164 8.83442 12.7508 9.25005 12.7508H11.25V14.7508Z" fill="black"/>
</svg>
