<svg width="24" height="24" viewBox="0 0 24 24" fill="none" xmlns="http://www.w3.org/2000/svg">
<path d="M8.39374 4.66249C8.81561 4.24061 9.38749 4.00311 9.98436 4.00311H14.0156C14.6125 4.00311 15.1844 4.24061 15.6062 4.66249L19.3375 8.39374C19.7594 8.81561 19.9969 9.38749 19.9969 9.98436V14.0156C19.9969 14.6125 19.7594 15.1844 19.3375 15.6062L15.6062 19.3375C15.1844 19.7594 14.6125 19.9969 14.0156 19.9969H9.98436C9.38749 19.9969 8.81561 19.7594 8.39374 19.3375L4.66249 15.6062C4.24061 15.1844 4.00311 14.6125 4.00311 14.0156V9.98436C4.00311 9.38749 4.24061 8.81561 4.66249 8.39374L8.39374 4.66249ZM15.5312 10.5312C15.825 10.2375 15.825 9.76249 15.5312 9.47186C15.2375 9.18124 14.7625 9.17811 14.4719 9.47186L11.0031 12.9406L9.53436 11.4719C9.24061 11.1781 8.76561 11.1781 8.47499 11.4719C8.18436 11.7656 8.18124 12.2406 8.47499 12.5312L10.475 14.5312C10.7687 14.825 11.2437 14.825 11.5344 14.5312L15.5312 10.5312Z" fill="black"/>
</svg>
