<svg width="24" height="24" viewBox="0 0 24 24" fill="none" xmlns="http://www.w3.org/2000/svg">
<path d="M19.5094 5.91562C19.1531 4.58124 17.7812 3.79062 16.4469 4.14687L15.9656 4.27499C15.4312 4.41874 15.1156 4.96874 15.2594 5.49999L16.025 8.35624L12.6406 9.23437L12.4438 8.66874C12.3031 8.26874 11.925 7.99999 11.5 7.99999C11.075 7.99999 10.6969 8.26874 10.5563 8.66874L10.1312 9.88749L6 10.9562V9.74999C6 9.33437 5.66563 8.99999 5.25 8.99999C4.83437 8.99999 4.5 9.33437 4.5 9.74999V18H4C3.44687 18 3 18.4469 3 19C3 19.5531 3.44687 20 4 20H20C20.5531 20 21 19.5531 21 19C21 18.4469 20.5531 18 20 18H15.7094L13.625 12.0469L11.6812 12.55L12.5406 15H10.4594L11.2812 12.6562L8.95 13.2594L7.29063 18H6V13.025L16.5437 10.2906L17.3313 13.2281C17.475 13.7625 18.0219 14.0781 18.5562 13.9344L19.0406 13.8062C20.375 13.45 21.1656 12.0781 20.8094 10.7437L19.5094 5.91562ZM9.40938 18L9.75938 17H13.2406L13.5906 18H9.40938Z" fill="black"/>
</svg>
