<svg width="24" height="24" viewBox="0 0 24 24" fill="none" xmlns="http://www.w3.org/2000/svg">
<path d="M12 20C14.1217 20 16.1566 19.1571 17.6569 17.6569C19.1571 16.1566 20 14.1217 20 12C20 9.87827 19.1571 7.84344 17.6569 6.34315C16.1566 4.84285 14.1217 4 12 4C9.87827 4 7.84344 4.84285 6.34315 6.34315C4.84285 7.84344 4 9.87827 4 12C4 14.1217 4.84285 16.1566 6.34315 17.6569C7.84344 19.1571 9.87827 20 12 20ZM12 6C13.1625 6 14.1656 6.82188 14.3938 7.9625L14.4125 8.0625C14.4563 8.29063 14.2844 8.5 14.0531 8.5H9.94688C9.71563 8.5 9.54375 8.2875 9.5875 8.0625L9.60625 7.9625C9.83437 6.82188 10.8375 6 12 6ZM9.19063 9.80937C9.43438 10.0531 9.43438 10.45 9.19063 10.6937L8.19063 11.6937C7.94688 11.9375 7.55 11.9375 7.30625 11.6937C7.0625 11.45 7.0625 11.0531 7.30625 10.8094L8.30625 9.80937C8.55 9.56562 8.94688 9.56562 9.19063 9.80937ZM11.25 11C11.25 10.8011 11.329 10.6103 11.4697 10.4697C11.6103 10.329 11.8011 10.25 12 10.25C12.1989 10.25 12.3897 10.329 12.5303 10.4697C12.671 10.6103 12.75 10.8011 12.75 11C12.75 11.1989 12.671 11.3897 12.5303 11.5303C12.3897 11.671 12.1989 11.75 12 11.75C11.8011 11.75 11.6103 11.671 11.4697 11.5303C11.329 11.3897 11.25 11.1989 11.25 11ZM15 15.25C15.1989 15.25 15.3897 15.329 15.5303 15.4697C15.671 15.6103 15.75 15.8011 15.75 16C15.75 16.1989 15.671 16.3897 15.5303 16.5303C15.3897 16.671 15.1989 16.75 15 16.75C14.8011 16.75 14.6103 16.671 14.4697 16.5303C14.329 16.3897 14.25 16.1989 14.25 16C14.25 15.8011 14.329 15.6103 14.4697 15.4697C14.6103 15.329 14.8011 15.25 15 15.25ZM9.10313 12.8969C9.16875 12.9625 9.2125 13.0406 9.23438 13.125C9.24687 13.1781 9.25938 13.2312 9.26875 13.2844C9.30313 13.4531 9.33437 13.6281 9.45312 13.7437L9.55937 13.85C9.65312 13.9438 9.78125 13.9969 9.9125 13.9969H10.75C11.7156 13.9969 12.5 14.7812 12.5 15.7469C12.5 16.7125 11.7156 17.4969 10.75 17.4969C9.78438 17.4969 9 16.7125 9 15.7469V14.9156C9 14.7844 8.94688 14.6562 8.85313 14.5625L8.74687 14.4563C8.62812 14.3375 8.45625 14.3063 8.2875 14.2719C8.23438 14.2625 8.17813 14.25 8.12813 14.2375C8.04375 14.2156 7.96563 14.1719 7.9 14.1062C7.70625 13.9125 7.70625 13.5938 7.9 13.4L8.15 13.15L8.4 12.9C8.59375 12.7062 8.9125 12.7062 9.10625 12.9L9.10313 12.8969ZM16.2437 9.75625C16.3844 9.61562 16.6156 9.61562 16.7563 9.75625L16.8438 9.84375C17.2625 10.2625 17.5 10.8313 17.5 11.425V11.575C17.5 12.1594 17.2344 12.7125 16.7781 13.0781C16.4375 13.35 16.0125 13.5 15.575 13.5H15.4469C14.8406 13.5 14.2594 13.2594 13.8281 12.8313L13.7531 12.7563C13.6125 12.6156 13.6125 12.3844 13.7531 12.2437L16.2406 9.75625H16.2437ZM2.75 9C2.33437 9 2 9.33437 2 9.75V14.25C2 14.6656 2.33437 15 2.75 15C3.16562 15 3.5 14.6656 3.5 14.25V9.75C3.5 9.33437 3.16562 9 2.75 9ZM22 9.75C22 9.33437 21.6656 9 21.25 9C20.8344 9 20.5 9.33437 20.5 9.75V14.25C20.5 14.6656 20.8344 15 21.25 15C21.6656 15 22 14.6656 22 14.25V9.75Z" fill="black"/>
</svg>
