<svg width="24" height="24" viewBox="0 0 24 24" fill="none" xmlns="http://www.w3.org/2000/svg">
<path d="M11.4999 4C11.7749 4 11.9999 4.225 11.9999 4.5V10.1969L10.9999 10.4625V4.5C10.9999 4.225 11.2249 4 11.4999 4ZM5.99993 6.5C5.99993 6.30302 6.03873 6.10796 6.11411 5.92597C6.1895 5.74399 6.29999 5.57863 6.43927 5.43934C6.57856 5.30005 6.74392 5.18956 6.92591 5.11418C7.1079 5.0388 7.30295 5 7.49993 5C7.69692 5 7.89197 5.0388 8.07396 5.11418C8.25595 5.18956 8.42131 5.30005 8.56059 5.43934C8.69988 5.57863 8.81037 5.74399 8.88575 5.92597C8.96114 6.10796 8.99993 6.30302 8.99993 6.5C8.99993 6.69698 8.96114 6.89204 8.88575 7.07403C8.81037 7.25601 8.69988 7.42137 8.56059 7.56066C8.42131 7.69995 8.25595 7.81044 8.07396 7.88582C7.89197 7.9612 7.69692 8 7.49993 8C7.30295 8 7.1079 7.9612 6.92591 7.88582C6.74392 7.81044 6.57856 7.69995 6.43927 7.56066C6.29999 7.42137 6.1895 7.25601 6.11411 7.07403C6.03873 6.89204 5.99993 6.69698 5.99993 6.5ZM7.13743 10.8125C6.69368 9.85 7.39681 8.75 8.45618 8.75C9.02493 8.75 9.54368 9.08437 9.77806 9.60313L10.6781 11.5844L12.4249 11.1188C13.2187 10.9062 13.9968 11.5062 13.9968 12.325V16.1406L17.8468 14.7188C18.2406 14.575 18.4999 14.2 18.4999 13.7812V13.75C18.4999 13.3344 18.8343 13 19.2499 13C19.6656 13 19.9999 13.3344 19.9999 13.75V13.7812C19.9999 14.8281 19.3468 15.7625 18.3656 16.125L8.00931 19.9531C7.62181 20.0969 7.19056 19.8969 7.04681 19.5094C6.90306 19.1219 7.10306 18.6906 7.49056 18.5469L11.9999 16.8813V13.3031L9.91556 13.8594C9.20931 14.0469 8.47181 13.7 8.16556 13.0375L7.13743 10.8125ZM5.42806 9.925L7.45931 14.1687C7.71868 14.7125 8.33431 14.9938 8.91556 14.8344L10.0562 14.525C10.4562 14.4156 10.8687 14.6531 10.9781 15.05C11.0874 15.4469 10.8499 15.8625 10.4531 15.9719L9.31243 16.2812C8.03118 16.6313 6.68118 16.0125 6.10931 14.8156L4.07181 10.575C3.89368 10.2 4.04993 9.75312 4.42493 9.575C4.79993 9.39687 5.24681 9.55312 5.42493 9.92812L5.42806 9.925Z" fill="black"/>
</svg>
