<svg width="24" height="24" viewBox="0 0 24 24" fill="none" xmlns="http://www.w3.org/2000/svg">
<path d="M8.99999 5.21869C8.99999 4.81244 9.31249 4.47494 9.71562 4.44056L14.4594 4.04369C14.75 4.02181 15 4.24994 15 4.54369V5.49994C15 5.77494 14.775 5.99994 14.5 5.99994H9.78124C9.34999 5.99994 8.99999 5.64994 8.99999 5.21869ZM9.54999 6.99994H14.45C14.4812 7.16244 14.5 7.32806 14.5 7.49994C14.5 8.88119 13.3812 9.99994 12 9.99994C10.6187 9.99994 9.49999 8.88119 9.49999 7.49994C9.49999 7.32806 9.51874 7.16244 9.54999 6.99994ZM16.675 18.3843L15 15.5531V18.9999C15 19.0406 14.9969 19.0781 14.9937 19.1187L9.54687 11.3406C10.0656 11.1187 10.6281 10.9999 11.2125 10.9999H12.7875C13.2844 10.9999 13.7656 11.0874 14.2187 11.2468L17.1844 6.11556C16.9437 5.97806 16.8625 5.67181 17 5.43119C17.1375 5.19056 17.4437 5.10931 17.6844 5.24681L18.1187 5.49681L18.5531 5.74681C18.7937 5.88431 18.875 6.19056 18.7375 6.43119L17 9.43431L17.05 9.46244C17.5281 9.73744 17.6937 10.3499 17.4156 10.8281L16.2687 12.8124C16.3312 12.8999 16.3906 12.9937 16.4469 13.0874L18.825 17.1124C19.175 17.7062 18.9781 18.4718 18.3844 18.8249C17.7906 19.1781 17.025 18.9781 16.6719 18.3843H16.675ZM14 19.9999H9.99999C9.44687 19.9999 8.99999 19.5531 8.99999 18.9999V15.5531L7.32499 18.3843C6.97499 18.9781 6.20624 19.1749 5.61249 18.8249C5.01874 18.4749 4.82187 17.7062 5.17187 17.1124L7.54999 13.0874C7.84374 12.5937 8.22812 12.1718 8.67499 11.8374L14.3469 19.9374C14.2375 19.9781 14.1219 19.9999 14 19.9999ZM13.25 13.9999C13.4489 13.9999 13.6397 13.9209 13.7803 13.7803C13.921 13.6396 14 13.4489 14 13.2499C14 13.051 13.921 12.8603 13.7803 12.7196C13.6397 12.579 13.4489 12.4999 13.25 12.4999C13.0511 12.4999 12.8603 12.579 12.7197 12.7196C12.579 12.8603 12.5 13.051 12.5 13.2499C12.5 13.4489 12.579 13.6396 12.7197 13.7803C12.8603 13.9209 13.0511 13.9999 13.25 13.9999Z" fill="black"/>
</svg>
