<svg width="24" height="24" viewBox="0 0 24 24" fill="none" xmlns="http://www.w3.org/2000/svg">
<path d="M18.1656 4.6031L19.3968 5.83435C20.1781 6.6156 20.1781 7.88123 19.3968 8.66248L17.7687 10.2906L17.7374 10.2594L17.2374 9.75935L14.2374 6.75935L13.7062 6.2281L15.3343 4.59998C16.1156 3.81873 17.3812 3.81873 18.1624 4.59998L18.1656 4.6031ZM11.5312 7.5906C11.2374 7.29685 10.7624 7.29685 10.4718 7.5906L7.28119 10.7812C6.98744 11.075 6.51244 11.075 6.22181 10.7812C5.93119 10.4875 5.92806 10.0125 6.22181 9.72185L9.40931 6.53123C10.2874 5.6531 11.7124 5.6531 12.5906 6.53123L12.9999 6.9406L13.5312 7.47185L16.5312 10.4719L17.0312 10.9719L17.0624 11.0031L16.5312 11.5344L11.1718 16.8906C9.67181 18.3906 7.75931 19.4156 5.67806 19.8312L4.89681 19.9875C4.64994 20.0375 4.39681 19.9594 4.21869 19.7812C4.04056 19.6031 3.96556 19.35 4.01244 19.1031L4.16869 18.3218C4.58431 16.2406 5.60931 14.3281 7.10931 12.8281L11.9406 7.99998L11.5312 7.5906Z" fill="black"/>
</svg>
