<svg width="24" height="24" viewBox="0 0 24 24" fill="none" xmlns="http://www.w3.org/2000/svg">
<path d="M17.6906 5.00676C17.8313 4.61613 17.6313 4.18801 17.2438 4.04426C16.8563 3.90051 16.4219 4.10363 16.2813 4.49426L16.1375 4.89113L14.2719 4.20988C13.8813 4.06926 13.4531 4.26926 13.3094 4.65676L12.1125 7.94738C11.9719 8.33801 12.1719 8.76613 12.5594 8.90988L14.425 9.58801L13.9438 10.913L13.0438 10.5755C12.7406 10.4599 12.4688 10.2755 12.25 10.0318L11.3438 9.00676C10.775 8.36613 9.95938 8.00051 9.10001 8.00051H8.23751C7.10001 8.00051 6.06251 8.64113 5.55313 9.65988L4.10626 12.5536C3.85938 13.0474 4.05938 13.6474 4.55313 13.8943C5.04688 14.1411 5.64688 13.9411 5.89376 13.4474L6.50001 12.238V19.0005C6.50001 19.5536 6.94688 20.0005 7.50001 20.0005C8.05313 20.0005 8.50001 19.5536 8.50001 19.0005V15.0005H9.13126L10 16.738V19.0005C10 19.5536 10.4469 20.0005 11 20.0005C11.5531 20.0005 12 19.5536 12 19.0005V16.738C12 16.4286 11.9281 16.1224 11.7875 15.8443L10.75 13.763V11.3505L10.7594 11.3599C11.1906 11.8474 11.7344 12.2193 12.3438 12.4474L13.2594 12.7911L13.0313 13.4224C12.8906 13.813 13.0906 14.2411 13.4781 14.3849C13.8656 14.5286 14.2969 14.3255 14.4406 13.938L15.8344 10.1068L17.7281 10.7943C18.1188 10.9349 18.5469 10.7349 18.6906 10.3474L19.8875 7.05363C20.0281 6.66301 19.8281 6.23488 19.4406 6.09113L17.5469 5.40363L17.6906 5.00676ZM10 5.50051C10 5.10268 9.84197 4.72115 9.56067 4.43985C9.27936 4.15854 8.89783 4.00051 8.50001 4.00051C8.10218 4.00051 7.72065 4.15854 7.43935 4.43985C7.15804 4.72115 7.00001 5.10268 7.00001 5.50051C7.00001 5.89833 7.15804 6.27986 7.43935 6.56117C7.72065 6.84247 8.10218 7.00051 8.50001 7.00051C8.89783 7.00051 9.27936 6.84247 9.56067 6.56117C9.84197 6.27986 10 5.89833 10 5.50051Z" fill="black"/>
</svg>
