<svg width="24" height="24" viewBox="0 0 24 24" fill="none" xmlns="http://www.w3.org/2000/svg">
<path d="M15.7687 14.0001H18.075C19.1437 14.0001 21.0031 13.1251 21.0031 12.0001C21.0031 10.9063 19.1437 10.0001 18.075 10.0001H14.4312L11.2875 4.50318C11.1094 4.1938 10.7781 4.00005 10.4187 4.00005H8.66249C8.33124 4.00005 8.09062 4.3188 8.18124 4.63755L9.44062 9.04068L3.21249 4.15943C2.88749 3.90318 2.41562 3.96255 2.15937 4.28755C1.90312 4.61255 1.96249 5.08443 2.28749 5.34068L20.7875 19.8407C21.1125 20.0969 21.5844 20.0376 21.8406 19.7126C22.0969 19.3876 22.0375 18.9157 21.7125 18.6594L15.7687 14.0001ZM13.3281 15.9251L3.29687 8.02193C3.12499 8.0813 2.99999 8.24693 2.99999 8.43755C2.99999 8.47818 3.00624 8.5188 3.01562 8.55943L3.99999 12.0001L3.01562 15.4407C3.00312 15.4813 2.99999 15.5219 2.99999 15.5626C2.99999 15.8063 3.19687 16.0001 3.43749 16.0001H4.74999C4.90624 16.0001 5.05624 15.9251 5.14999 15.8001L6.49999 14.0001H9.71562L8.18437 19.3626C8.09374 19.6813 8.33437 20.0001 8.66562 20.0001H10.4219C10.7812 20.0001 11.1125 19.8063 11.2906 19.4969L13.3312 15.9251H13.3281Z" fill="black"/>
</svg>
