<svg width="24" height="24" viewBox="0 0 24 24" fill="none" xmlns="http://www.w3.org/2000/svg">
<path d="M14.8468 4.76872C15.0875 4.18747 15.7218 3.8781 16.3281 4.04372L19.0781 4.79372C19.6218 4.94372 20 5.43747 20 5.99997C20 13.7312 13.7312 20 5.99997 20C5.43747 20 4.94372 19.6218 4.79372 19.0781L4.04372 16.3281C3.8781 15.7218 4.18747 15.0875 4.76872 14.8468L7.76872 13.5968C8.2781 13.3843 8.86872 13.5312 9.2156 13.9593L10.4781 15.5C12.6781 14.4593 14.4593 12.6781 15.5 10.4781L13.9593 9.21872C13.5312 8.86872 13.3843 8.28122 13.5968 7.77185L14.8468 4.77185V4.76872Z" fill="black"/>
</svg>
