<svg width="24" height="24" viewBox="0 0 24 24" fill="none" xmlns="http://www.w3.org/2000/svg">
<path d="M3 7C3.55313 7 4 7.44687 4 8V16C4 16.5531 3.55313 17 3 17C2.44687 17 2 16.5531 2 16V8C2 7.44687 2.44687 7 3 7ZM17 7C17.5531 7 18 7.44687 18 8V10.0219C17.8344 10.0062 17.6688 10 17.5 10C16.9812 10 16.4781 10.0719 16 10.2063V8C16 7.44687 16.4469 7 17 7ZM12 15.5C12 15.6688 12.0063 15.8344 12.0219 16H5V8H15V10.6C13.2188 11.5094 12 13.3625 12 15.5ZM13 15.5C13 14.3065 13.4741 13.1619 14.318 12.318C15.1619 11.4741 16.3065 11 17.5 11C18.6935 11 19.8381 11.4741 20.682 12.318C21.5259 13.1619 22 14.3065 22 15.5C22 16.6935 21.5259 17.8381 20.682 18.682C19.8381 19.5259 18.6935 20 17.5 20C16.3065 20 15.1619 19.5259 14.318 18.682C13.4741 17.8381 13 16.6935 13 15.5ZM19.6031 14.1469C19.4094 13.9531 19.0906 13.9531 18.8969 14.1469L17 16.0437L16.1031 15.1469C15.9094 14.9531 15.5906 14.9531 15.3969 15.1469C15.2031 15.3406 15.2031 15.6594 15.3969 15.8531L16.6469 17.1031C16.8406 17.2969 17.1594 17.2969 17.3531 17.1031L19.6031 14.8531C19.7969 14.6594 19.7969 14.3406 19.6031 14.1469Z" fill="black"/>
</svg>
