<svg width="24" height="24" viewBox="0 0 24 24" fill="none" xmlns="http://www.w3.org/2000/svg">
<path d="M8.50023 5.5C8.50023 5.10218 8.3422 4.72064 8.06089 4.43934C7.77959 4.15804 7.39806 4 7.00023 4C6.60241 4 6.22088 4.15804 5.93957 4.43934C5.65827 4.72064 5.50023 5.10218 5.50023 5.5C5.50023 5.89782 5.65827 6.27936 5.93957 6.56066C6.22088 6.84196 6.60241 7 7.00023 7C7.39806 7 7.77959 6.84196 8.06089 6.56066C8.3422 6.27936 8.50023 5.89782 8.50023 5.5ZM4.19398 16H4.75023V19C4.75023 19.5531 5.19711 20 5.75023 20C6.30336 20 6.75023 19.5531 6.75023 19V16H7.25023V19C7.25023 19.5531 7.69711 20 8.25023 20C8.80336 20 9.25023 19.5531 9.25023 19V16H9.80648C10.1471 16 10.3877 15.6656 10.2815 15.3406L9.08461 11.7531L10.144 13.5125C10.4284 13.9844 11.044 14.1375 11.5159 13.8531C11.8221 13.6687 11.994 13.3469 12.0002 13.0125C12.0065 13.3469 12.1784 13.6687 12.4846 13.8531C12.9565 14.1375 13.5721 13.9844 13.8565 13.5125L14.9159 11.7531L13.719 15.3406C13.6096 15.6656 13.8534 16 14.194 16H14.7502V19C14.7502 19.5531 15.1971 20 15.7502 20C16.3034 20 16.7502 19.5531 16.7502 19V16H17.2502V19C17.2502 19.5531 17.6971 20 18.2502 20C18.8034 20 19.2502 19.5531 19.2502 19V16H19.8065C20.1471 16 20.3877 15.6656 20.2815 15.3406L19.0846 11.7531L20.144 13.5125C20.4284 13.9844 21.044 14.1375 21.5159 13.8531C21.9877 13.5687 22.1409 12.9531 21.8565 12.4812L20.1815 9.69375C19.5502 8.64062 18.4096 7.99688 17.1815 7.99688H16.819C15.5909 7.99688 14.4534 8.64062 13.819 9.69375L12.144 12.4812C12.0502 12.6375 12.0034 12.8094 12.0002 12.9781C11.9971 12.8094 11.9502 12.6375 11.8565 12.4812L10.1815 9.69375C9.54711 8.64062 8.40961 7.99688 7.18148 7.99688H6.81898C5.59086 7.99688 4.45336 8.64062 3.81898 9.69375L2.14398 12.4844C1.85961 12.9563 2.01273 13.5719 2.48461 13.8562C2.95648 14.1406 3.57211 13.9875 3.85648 13.5156L4.91586 11.7562L3.71898 15.3406C3.61273 15.6656 3.85336 16 4.19398 16ZM18.5002 5.5C18.5002 5.10218 18.3422 4.72064 18.0609 4.43934C17.7796 4.15804 17.3981 4 17.0002 4C16.6024 4 16.2209 4.15804 15.9396 4.43934C15.6583 4.72064 15.5002 5.10218 15.5002 5.5C15.5002 5.89782 15.6583 6.27936 15.9396 6.56066C16.2209 6.84196 16.6024 7 17.0002 7C17.3981 7 17.7796 6.84196 18.0609 6.56066C18.3422 6.27936 18.5002 5.89782 18.5002 5.5Z" fill="black"/>
</svg>
