<svg width="24" height="24" viewBox="0 0 24 24" fill="none" xmlns="http://www.w3.org/2000/svg">
<path d="M13 5C13 4.44687 12.5531 4 12 4C11.4469 4 11 4.44687 11 5V12C11 12.5531 11.4469 13 12 13C12.5531 13 13 12.5531 13 12V5ZM8.48438 7.76875C8.90938 7.41562 8.96563 6.78438 8.6125 6.35938C8.25938 5.93437 7.62813 5.87813 7.20312 6.23125C5.55313 7.60625 4.5 9.68125 4.5 12C4.5 16.1406 7.85938 19.5 12 19.5C16.1406 19.5 19.5 16.1406 19.5 12C19.5 9.68125 18.4437 7.60625 16.7937 6.23125C16.3687 5.87813 15.7375 5.9375 15.3844 6.35938C15.0312 6.78125 15.0906 7.41562 15.5125 7.76875C16.7281 8.77812 17.4969 10.3 17.4969 12C17.4969 15.0375 15.0344 17.5 11.9969 17.5C8.95937 17.5 6.49688 15.0375 6.49688 12C6.49688 10.3 7.26875 8.77812 8.48125 7.76875H8.48438Z" fill="black"/>
</svg>
