<svg width="24" height="24" viewBox="0 0 24 24" fill="none" xmlns="http://www.w3.org/2000/svg">
<path d="M12 4C12.3978 4 12.7793 4.15804 13.0606 4.43934C13.342 4.72064 13.5 5.10218 13.5 5.5C13.5 5.89782 13.342 6.27936 13.0606 6.56066C12.7793 6.84196 12.3978 7 12 7C11.6022 7 11.2206 6.84196 10.9393 6.56066C10.658 6.27936 10.5 5.89782 10.5 5.5C10.5 5.10218 10.658 4.72064 10.9393 4.43934C11.2206 4.15804 11.6022 4 12 4ZM9.74999 15.9688C9.31874 15.8562 8.99999 15.4656 8.99999 15V13.2781L8.85624 13.5156C8.57186 13.9875 7.95624 14.1406 7.48436 13.8562C7.01249 13.5719 6.85936 12.9563 7.14374 12.4844L8.96561 9.45312C9.43436 8.675 10.225 8.15625 11.1125 8.02812C11.2406 8.00937 11.3687 7.99688 11.5031 7.99688H11.5375H11.9281H12C12.0437 7.99688 12.0875 8 12.1281 8.00625C13.2437 8.09687 14.1719 8.92188 14.3812 10.0375L14.5719 11.0531C15.9562 11.3219 17 12.5375 17 14V15C17 15.5531 16.5531 16 16 16H15.5H14.25V19C14.25 19.5531 13.8031 20 13.25 20C12.6969 20 12.25 19.5531 12.25 19V16H12H11.75V19C11.75 19.5531 11.3031 20 10.75 20C10.1969 20 9.74999 19.5531 9.74999 19V15.9688Z" fill="black"/>
</svg>
