<svg width="24" height="24" viewBox="0 0 24 24" fill="none" xmlns="http://www.w3.org/2000/svg">
<path d="M19.7812 4.21873C20.075 4.51248 20.075 4.98748 19.7812 5.2781L18.3094 6.7531C18.7469 7.39373 19 8.16873 19 8.99998C19 9.95935 18.6625 10.8406 18.0969 11.5312C17.1625 12.6719 16.1781 14.0875 15.8062 15.5125C15.5468 16.5125 15.025 17.4594 14.2406 18.2406C11.8969 20.5844 8.09998 20.5844 5.75623 18.2406C3.41248 15.8969 3.41248 12.1 5.75623 9.75623C6.5406 8.97185 7.48435 8.44998 8.48435 8.1906C9.91248 7.82185 11.325 6.83435 12.4656 5.89998C13.1562 5.33748 14.0375 4.99685 14.9969 4.99685C15.8312 4.99685 16.6031 5.2531 17.2437 5.68748L18.7187 4.21873C19.0125 3.92498 19.4875 3.92498 19.7781 4.21873H19.7812ZM14 14C14 13.725 13.775 13.5 13.5 13.5C13.225 13.5 13 13.725 13 14C13 15.6562 11.6562 17 9.99998 17C9.72498 17 9.49998 17.225 9.49998 17.5C9.49998 17.775 9.72498 18 9.99998 18C12.2094 18 14 16.2094 14 14Z" fill="black"/>
</svg>
