<svg width="24" height="24" viewBox="0 0 24 24" fill="none" xmlns="http://www.w3.org/2000/svg">
<path d="M5.64062 6.23119C5.34375 5.98431 4.92813 5.92806 4.575 6.09369C4.22188 6.25931 4 6.61244 4 6.99994V16.9999C4 17.3874 4.225 17.7406 4.575 17.9062C4.925 18.0718 5.34063 18.0187 5.64062 17.7687L11.6406 12.7687C11.8688 12.5781 12 12.2968 12 11.9999C12 11.7031 11.8688 11.4218 11.6406 11.2312L5.64062 6.23119ZM16 6.99994C16 6.44681 15.5531 5.99994 15 5.99994C14.4469 5.99994 14 6.44681 14 6.99994V16.9999C14 17.5531 14.4469 17.9999 15 17.9999C15.5531 17.9999 16 17.5531 16 16.9999V6.99994ZM20 6.99994C20 6.44681 19.5531 5.99994 19 5.99994C18.4469 5.99994 18 6.44681 18 6.99994V16.9999C18 17.5531 18.4469 17.9999 19 17.9999C19.5531 17.9999 20 17.5531 20 16.9999V6.99994Z" fill="black"/>
</svg>
