<svg width="24" height="24" viewBox="0 0 24 24" fill="none" xmlns="http://www.w3.org/2000/svg">
<path d="M3.27188 4.5C3.39688 4.50938 3.49375 4.60938 3.5 4.73438L3.73438 8.75H4.27813L4.75312 4.72188C4.76875 4.59688 4.875 4.5 5 4.5C5.125 4.5 5.23438 4.59375 5.24688 4.72188L5.72187 8.75H6.2625L6.5 4.73438C6.50625 4.60938 6.60313 4.50938 6.72813 4.5C6.85313 4.49063 6.96563 4.57188 6.99375 4.69063L7.94063 8.7125C7.98125 8.88125 8 9.05625 8 9.23125C8 10.4781 6.99375 11.4875 5.75 11.4969V18.75C5.75 19.1656 5.41563 19.5 5 19.5C4.58437 19.5 4.25 19.1656 4.25 18.75V11.5C3.00625 11.4906 2 10.4813 2 9.23438C2 9.05938 2.01875 8.88438 2.05937 8.71563L3.00625 4.69375C3.03438 4.57188 3.14688 4.49063 3.27188 4.50313V4.5ZM21.1594 4.53125C21.2219 4.50938 21.2844 4.5 21.35 4.5C21.7094 4.5 22.0031 4.79063 22.0031 5.15313V10.75V14V18.75C22.0031 19.1656 21.6687 19.5 21.2531 19.5C20.8375 19.5 20.5031 19.1656 20.5031 18.75V14H19C18.4469 14 18 13.5531 18 13V9C18 5.85 20.6312 4.725 21.1594 4.53125ZM8.9125 8.4875L8.40312 6.32188C9.55625 5.49063 10.9719 5 12.5 5C14.3844 5 16.0937 5.74375 17.3531 6.95313C17.1344 7.54063 17 8.21875 17 9V9.81875C16.1906 8.15 14.4781 7 12.5 7C11.0969 7 9.82812 7.57813 8.91875 8.50938L8.9125 8.48438V8.4875ZM12.5 19C10.1188 19 8.01562 17.8094 6.75 15.9938V12.3375C7.01562 12.25 7.26875 12.1281 7.5 11.9813V12C7.5 14.7625 9.7375 17 12.5 17C14.6281 17 16.4437 15.6719 17.1656 13.8C17.4531 14.4563 18.0813 14.9313 18.8281 14.9938C17.7062 17.3625 15.2938 19 12.5 19ZM8.5 12C8.5 10.9391 8.92143 9.92172 9.67157 9.17158C10.4217 8.42143 11.4391 8 12.5 8C13.5609 8 14.5783 8.42143 15.3284 9.17158C16.0786 9.92172 16.5 10.9391 16.5 12C16.5 13.0609 16.0786 14.0783 15.3284 14.8284C14.5783 15.5786 13.5609 16 12.5 16C11.4391 16 10.4217 15.5786 9.67157 14.8284C8.92143 14.0783 8.5 13.0609 8.5 12Z" fill="black"/>
</svg>
