<svg width="24" height="24" viewBox="0 0 24 24" fill="none" xmlns="http://www.w3.org/2000/svg">
<path d="M6.00625 9C6.00313 8.95937 6 8.91563 6 8.875C6 8.22188 6.45312 7.67812 7.0625 7.53437C7.02187 7.40313 7 7.26562 7 7.125C7 6.36562 7.61562 5.75 8.375 5.75C8.43438 5.75 8.49062 5.75312 8.55 5.75937C8.70937 5.17812 9.24062 4.75 9.875 4.75C10.1406 4.75 10.3906 4.825 10.6 4.95625C10.8187 4.39688 11.3625 4 12 4C12.6375 4 13.1812 4.39688 13.4 4.95625C13.6094 4.825 13.8594 4.75 14.125 4.75C14.7594 4.75 15.2906 5.17812 15.45 5.75937C15.5062 5.75312 15.5656 5.75 15.625 5.75C16.3844 5.75 17 6.36562 17 7.125C17 7.26875 16.9781 7.40625 16.9375 7.53437C17.5469 7.675 18 8.22188 18 8.875C18 8.91563 17.9969 8.95937 17.9937 9H15.2563H8.74375H6.00625ZM5.88125 10H8.05625L9.00313 18.0594C9.03438 18.3344 9.28437 18.5312 9.55937 18.4969C9.83437 18.4625 10.0312 18.2156 9.99687 17.9406L9.0625 10H11.5V18C11.5 18.275 11.725 18.5 12 18.5C12.275 18.5 12.5 18.275 12.5 18V10H14.9375L14.0031 17.9406C13.9719 18.2156 14.1656 18.4625 14.4406 18.4969C14.7156 18.5312 14.9625 18.3344 14.9969 18.0594L15.9438 10H18.1187C18.6062 10 19 10.3937 19 10.8812C19 10.9594 18.9906 11.0406 18.9688 11.1156L16.8062 18.9C16.625 19.55 16.0344 20 15.3594 20H8.64062C7.96563 20 7.375 19.55 7.19688 18.9L5.03125 11.1156C5.00938 11.0375 5 10.9594 5 10.8812C5 10.3937 5.39375 10 5.88125 10Z" fill="black"/>
</svg>
