<svg width="24" height="24" viewBox="0 0 24 24" fill="none" xmlns="http://www.w3.org/2000/svg">
<path d="M6 4C5.44688 4 5 4.44687 5 5V8H7V5C7 4.44687 6.55312 4 6 4ZM12 4C11.4469 4 11 4.44687 11 5V8H13V5C13 4.44687 12.5531 4 12 4ZM4 9C3.44687 9 3 9.44688 3 10C3 10.5531 3.44687 11 4 11V12C4 14.4187 5.71875 16.4375 8 16.9V19C8 19.5531 8.44688 20 9 20C9.55312 20 10 19.5531 10 19V16.9C10.3844 16.8219 10.7531 16.7 11.0969 16.5406C11.0312 16.2031 11 15.8562 11 15.5C11 12.9906 12.6812 10.875 14.9781 10.2125C14.9937 10.1438 15 10.0719 15 10C15 9.44688 14.5531 9 14 9H4ZM16.5 20C17.6935 20 18.8381 19.5259 19.682 18.682C20.5259 17.8381 21 16.6935 21 15.5C21 14.3065 20.5259 13.1619 19.682 12.318C18.8381 11.4741 17.6935 11 16.5 11C15.3065 11 14.1619 11.4741 13.318 12.318C12.4741 13.1619 12 14.3065 12 15.5C12 16.6935 12.4741 17.8381 13.318 18.682C14.1619 19.5259 15.3065 20 16.5 20ZM17 13.5V15H18.5C18.775 15 19 15.225 19 15.5C19 15.775 18.775 16 18.5 16H17V17.5C17 17.775 16.775 18 16.5 18C16.225 18 16 17.775 16 17.5V16H14.5C14.225 16 14 15.775 14 15.5C14 15.225 14.225 15 14.5 15H16V13.5C16 13.225 16.225 13 16.5 13C16.775 13 17 13.225 17 13.5Z" fill="black"/>
</svg>
