<svg width="24" height="24" viewBox="0 0 24 24" fill="none" xmlns="http://www.w3.org/2000/svg">
<path d="M19.7812 4.21836C20.075 4.51211 20.075 4.98711 19.7812 5.27773L18.3094 6.75273C18.7469 7.39336 19 8.16836 19 8.99961C19 9.95898 18.6625 10.8402 18.0969 11.5309C17.1625 12.6715 16.1781 14.0871 15.8062 15.5121C15.5468 16.5121 15.025 17.459 14.2406 18.2402C11.8969 20.584 8.09998 20.584 5.75623 18.2402C3.41248 15.8965 3.41248 12.0996 5.75623 9.75586C6.5406 8.97148 7.48435 8.44961 8.48435 8.19023C9.91248 7.82148 11.325 6.83398 12.4656 5.89961C13.1562 5.33711 14.0375 4.99648 14.9969 4.99648C15.8312 4.99648 16.6031 5.25273 17.2437 5.68711L18.7187 4.21836C19.0125 3.92461 19.4875 3.92461 19.7781 4.21836H19.7812ZM14 13.9996C14 13.7246 13.775 13.4996 13.5 13.4996C13.225 13.4996 13 13.7246 13 13.9996C13 15.6559 11.6562 16.9996 9.99998 16.9996C9.72498 16.9996 9.49998 17.2246 9.49998 17.4996C9.49998 17.7746 9.72498 17.9996 9.99998 17.9996C12.2094 17.9996 14 16.209 14 13.9996Z" fill="black"/>
</svg>
