<svg width="24" height="24" viewBox="0 0 24 24" fill="none" xmlns="http://www.w3.org/2000/svg">
<path d="M7 8C7 5.79063 8.79063 4 11 4C13.2094 4 15 5.79063 15 8V14C15 15.3813 13.8812 16.5 12.5 16.5C11.1188 16.5 10 15.3813 10 14V9C10 8.44688 10.4469 8 11 8C11.5531 8 12 8.44688 12 9V14C12 14.275 12.225 14.5 12.5 14.5C12.775 14.5 13 14.275 13 14V8C13 6.89687 12.1031 6 11 6C9.89687 6 9 6.89687 9 8V14.5C9 16.4344 10.5656 18 12.5 18C14.4344 18 16 16.4344 16 14.5V9C16 8.44688 16.4469 8 17 8C17.5531 8 18 8.44688 18 9V14.5C18 17.5375 15.5375 20 12.5 20C9.4625 20 7 17.5375 7 14.5V8Z" fill="black"/>
</svg>
