<svg width="24" height="24" viewBox="0 0 24 24" fill="none" xmlns="http://www.w3.org/2000/svg">
<path d="M8 4H15.0844C15.6156 4 16.125 4.20938 16.5 4.58438L17.4156 5.5C17.7906 5.875 18 6.38438 18 6.91563V9H16V6.91563L15.0844 6H8V9H6V6C6 4.89688 6.89688 4 8 4ZM6 10H13C11.7844 10.9125 11 12.3656 11 14C11 14.3438 11.0344 14.6781 11.1 15H8V15.5V16V18H13C13.8344 18.6281 14.875 19 16 19C16.5469 19 17.075 18.9125 17.5688 18.75L17.7656 18.9469C17.4281 19.575 16.7656 20.0031 16.0031 20.0031H8C6.89688 20.0031 6 19.1063 6 18.0031V16H5C4.44687 16 4 15.5531 4 15V12C4 10.8969 4.89688 10 6 10ZM16 16.5063C16.663 16.5063 17.2989 16.2429 17.7678 15.774C18.2366 15.3052 18.5 14.6693 18.5 14.0063C18.5 13.3432 18.2366 12.7073 17.7678 12.2385C17.2989 11.7696 16.663 11.5062 16 11.5062C15.337 11.5062 14.7011 11.7696 14.2322 12.2385C13.7634 12.7073 13.5 13.3432 13.5 14.0063C13.5 14.6693 13.7634 15.3052 14.2322 15.774C14.7011 16.2429 15.337 16.5063 16 16.5063ZM16 18.0063C13.7906 18.0063 12 16.2156 12 14.0063C12 11.7969 13.7906 10.0062 16 10.0062C18.2094 10.0062 20 11.7969 20 14.0063C20 14.8406 19.7438 15.6125 19.3094 16.2531L21.7812 18.725C22.075 19.0188 22.075 19.4938 21.7812 19.7844C21.4875 20.075 21.0125 20.0781 20.7219 19.7844L18.2469 17.3125C17.6063 17.75 16.8313 18.0031 16 18.0031V18.0063Z" fill="black"/>
</svg>
