<svg width="24" height="24" viewBox="0 0 24 24" fill="none" xmlns="http://www.w3.org/2000/svg">
<path d="M5.5 5H6.5C7.32812 5 8 5.67188 8 6.5V17.5C8 18.3281 7.32812 19 6.5 19H5.5C4.67188 19 4 18.3281 4 17.5V6.5C4 5.67188 4.67188 5 5.5 5ZM9 7C9 5.89688 9.89687 5 11 5H18C19.1031 5 20 5.89688 20 7V17C20 18.1031 19.1031 19 18 19H11C9.89687 19 9 18.1031 9 17V7ZM14 15.5C14 15.1022 13.842 14.7206 13.5607 14.4393C13.2794 14.158 12.8978 14 12.5 14C12.1022 14 11.7206 14.158 11.4393 14.4393C11.158 14.7206 11 15.1022 11 15.5C11 15.8978 11.158 16.2794 11.4393 16.5607C11.7206 16.842 12.1022 17 12.5 17C12.8978 17 13.2794 16.842 13.5607 16.5607C13.842 16.2794 14 15.8978 14 15.5ZM15.5 14C15.225 14 15 14.225 15 14.5C15 14.775 15.225 15 15.5 15H17.5C17.775 15 18 14.775 18 14.5C18 14.225 17.775 14 17.5 14H15.5ZM15.5 16C15.225 16 15 16.225 15 16.5C15 16.775 15.225 17 15.5 17H17.5C17.775 17 18 16.775 18 16.5C18 16.225 17.775 16 17.5 16H15.5ZM11 8V11C11 11.5531 11.4469 12 12 12H17C17.5531 12 18 11.5531 18 11V8C18 7.44688 17.5531 7 17 7H12C11.4469 7 11 7.44688 11 8Z" fill="black"/>
</svg>
