<svg width="24" height="24" viewBox="0 0 24 24" fill="none" xmlns="http://www.w3.org/2000/svg">
<path d="M9.25009 3.99998C9.55322 3.99998 9.82822 4.18123 9.94384 4.46248C10.0595 4.74373 9.99697 5.0656 9.78134 5.28123L8.56259 6.49998L10.397 8.33435C10.822 8.76248 11.4001 8.99998 12.0001 8.99998C12.6001 8.99998 13.1782 8.76248 13.6032 8.33435L17.7188 4.21873C18.0126 3.92498 18.4876 3.92498 18.7782 4.21873C19.0688 4.51248 19.072 4.98748 18.7782 5.2781L14.6657 9.39685C13.9563 10.1031 13.0001 10.5 12.0001 10.5C11.0001 10.5 10.0438 10.1031 9.33447 9.39685L7.50009 7.55935L6.28134 8.7781C6.06572 8.99373 5.74384 9.05623 5.46259 8.9406C5.18134 8.82498 5.00009 8.54998 5.00009 8.24685V4.74998C5.00009 4.33435 5.33447 3.99998 5.75009 3.99998H9.25009ZM3.60634 19.3094L2.50009 17.3719C2.19697 16.8437 2.24072 16.1812 2.67197 15.7562C4.26884 14.1844 7.56572 12 12.0001 12C16.4345 12 19.7313 14.1844 21.3282 15.7562C21.7626 16.1812 21.8032 16.8437 21.5001 17.3719L20.3938 19.3094C20.1626 19.7125 19.6845 19.9062 19.2376 19.7719L15.7126 18.7125C15.2907 18.5843 15.0001 18.1969 15.0001 17.7562V16C13.0532 15.35 10.947 15.35 9.00009 16V17.7562C9.00009 18.1969 8.70947 18.5875 8.28759 18.7125L4.76259 19.7719C4.31572 19.9062 3.83759 19.7156 3.60634 19.3094Z" fill="black"/>
</svg>
