<svg width="24" height="24" viewBox="0 0 24 24" fill="none" xmlns="http://www.w3.org/2000/svg">
<path d="M3 5.5C3 5.10218 3.15804 4.72064 3.43934 4.43934C3.72064 4.15804 4.10218 4 4.5 4C4.89782 4 5.27936 4.15804 5.56066 4.43934C5.84196 4.72064 6 5.10218 6 5.5C6 5.89782 5.84196 6.27936 5.56066 6.56066C5.27936 6.84196 4.89782 7 4.5 7C4.10218 7 3.72064 6.84196 3.43934 6.56066C3.15804 6.27936 3 5.89782 3 5.5ZM5 11.5531V13.5875L6.55937 15.1469C6.84062 15.4281 7 15.8094 7 16.2063V19C7 19.5531 6.55313 20 6 20C5.44687 20 5 19.5531 5 19V16.4156L2.58438 14C2.20938 13.625 2 13.1156 2 12.5844V9.83125C2 8.81875 2.81875 8 3.83125 8C4.58437 8 5.28438 8.375 5.70312 9L7.03438 11H9C9.40312 11 9.75313 11.2406 9.90938 11.5844L19.1281 10.0469L18.1031 6.96875C18.0344 6.76562 18 6.55 18 6.3375V5C18 4.44687 18.4469 4 19 4H21C21.5531 4 22 4.44687 22 5V9.56875V10.75V11V19C22 19.5531 21.5531 20 21 20C20.4469 20 20 19.5531 20 19V16H10V19C10 19.5531 9.55313 20 9 20C8.44687 20 8 19.5531 8 19V13H6.76875C6.26875 13 5.8 12.75 5.52187 12.3313L5 11.5531ZM2 19V14.8281L4 16.8281V19C4 19.5531 3.55313 20 3 20C2.44687 20 2 19.5531 2 19ZM10.75 14.5C10.9489 14.5 11.1397 14.421 11.2803 14.2803C11.421 14.1397 11.5 13.9489 11.5 13.75C11.5 13.5511 11.421 13.3603 11.2803 13.2197C11.1397 13.079 10.9489 13 10.75 13C10.5511 13 10.3603 13.079 10.2197 13.2197C10.079 13.3603 10 13.5511 10 13.75C10 13.9489 10.079 14.1397 10.2197 14.2803C10.3603 14.421 10.5511 14.5 10.75 14.5Z" fill="black"/>
</svg>
