<svg width="24" height="24" viewBox="0 0 24 24" fill="none" xmlns="http://www.w3.org/2000/svg">
<path d="M9 4C8.44687 4 8 4.44687 8 5V8H10V5C10 4.44687 9.55313 4 9 4ZM15 4C14.4469 4 14 4.44687 14 5V8H16V5C16 4.44687 15.5531 4 15 4ZM7 9C6.44687 9 6 9.44687 6 10C6 10.5531 6.44687 11 7 11V12C7 14.4188 8.71875 16.4375 11 16.9V19C11 19.5531 11.4469 20 12 20C12.5531 20 13 19.5531 13 19V16.9C15.2812 16.4375 17 14.4188 17 12V11C17.5531 11 18 10.5531 18 10C18 9.44687 17.5531 9 17 9H7Z" fill="black"/>
</svg>
