<svg width="24" height="24" viewBox="0 0 24 24" fill="none" xmlns="http://www.w3.org/2000/svg">
<path d="M9.15312 4.76872C8.9125 4.18747 8.27812 3.8781 7.67188 4.04372L4.92188 4.79372C4.37813 4.94372 4 5.43747 4 5.99997C4 13.7312 10.2688 20 18 20C18.5625 20 19.0563 19.6218 19.2063 19.0781L19.9563 16.3281C20.1219 15.7218 19.8125 15.0875 19.2312 14.8468L16.2312 13.5968C15.7219 13.3843 15.1313 13.5312 14.7844 13.9593L13.5219 15.5C11.3219 14.4593 9.54063 12.6781 8.5 10.4781L10.0406 9.21872C10.4688 8.86872 10.6156 8.28122 10.4031 7.77185L9.15312 4.77185V4.76872Z" fill="black"/>
</svg>
