<svg width="24" height="24" viewBox="0 0 24 24" fill="none" xmlns="http://www.w3.org/2000/svg">
<path d="M3.21243 4.15955C2.88743 3.9033 2.41556 3.96268 2.15931 4.28768C1.90306 4.61268 1.96243 5.08455 2.28743 5.3408L20.7874 19.8408C21.1124 20.0971 21.5843 20.0377 21.8406 19.7127C22.0968 19.3877 22.0374 18.9158 21.7124 18.6596L16.0718 14.2377L16.9562 11.2877L17.0437 11.0002L12.9999 6.95643L12.7124 7.04393L8.50306 8.30643L3.21243 4.15955ZM4.11868 17.9314C3.99993 18.2846 4.08743 18.6783 4.34681 18.9439L9.14681 14.1471C9.05306 13.9502 8.99993 13.7314 8.99993 13.5002C8.99993 13.2064 9.08431 12.9314 9.23118 12.6971L6.57493 10.6033L4.11868 17.9314ZM14.6531 16.9689L11.5749 14.5439C11.3031 14.8252 10.9218 15.0002 10.4999 15.0002C10.2687 15.0002 10.0499 14.9471 9.85306 14.8533L5.05306 19.6533C5.32181 19.9127 5.71243 20.0033 6.06556 19.8814L14.3249 17.1127C14.4374 17.0752 14.5468 17.0252 14.6531 16.9689ZM15.5124 4.57205L13.7718 6.3158L17.6843 10.2283L19.4249 8.48768C20.1093 7.8033 20.1093 6.69705 19.4249 6.01268L17.9874 4.57205C17.3031 3.88768 16.1968 3.88768 15.5124 4.57205Z" fill="black"/>
</svg>
