<svg width="24" height="24" viewBox="0 0 24 24" fill="none" xmlns="http://www.w3.org/2000/svg">
<path d="M14.75 6.5C13.7656 6.5 12.8313 6.72813 12 7.1375C11.1687 6.72813 10.2344 6.5 9.25 6.5C8.89375 6.5 8.54375 6.53125 8.20312 6.5875C7.76562 6.1 7.5 5.45625 7.5 4.75C7.5 4.33437 7.83437 4 8.25 4H9C10.6562 4 12 5.34375 12 7C12 5.34375 13.3438 4 15 4H15.75C16.1656 4 16.5 4.33437 16.5 4.75C16.5 5.45625 16.2344 6.1 15.7969 6.5875C15.4563 6.53125 15.1062 6.5 14.75 6.5ZM9.25 7.5C9.80625 7.5 10.3406 7.5875 10.8406 7.74688C12.8094 8.37187 14.275 10.1281 14.475 12.2531C14.5 12.5281 14.7219 12.7531 15 12.7531C15.2781 12.7531 15.5031 12.5281 15.4812 12.2531C15.3375 10.4344 14.4125 8.83125 13.0437 7.78437C13.0687 7.77813 13.0906 7.76875 13.1156 7.7625C13.6313 7.59375 14.1781 7.50312 14.75 7.50312C17.65 7.50312 20 9.85313 20 12.7531C20 17.0094 13.7719 19.4594 12.4812 19.9219C12.325 19.9781 12.1656 20.0031 12 20.0031C11.8344 20.0031 11.675 19.9781 11.5188 19.9219C10.2281 19.4563 4 17.0063 4 12.75C4 9.85 6.35 7.5 9.25 7.5Z" fill="black"/>
</svg>
