<svg width="24" height="24" viewBox="0 0 24 24" fill="none" xmlns="http://www.w3.org/2000/svg">
<path d="M13.6031 15.4719C14.4562 15.35 15.225 14.8656 15.7031 14.1313L20.7563 6.31564C21.15 5.70626 21.05 4.90001 20.5187 4.40314C19.9875 3.90626 19.1781 3.86251 18.5969 4.30001L11.2 9.85001C10.45 10.4125 10.0063 11.2906 10 12.2281L13.6031 15.4719ZM12.9906 16.2656L9.36562 13.0031C7.49687 13.0719 6 14.6125 6 16.5C6 16.6219 6.00625 16.7438 6.01875 16.8625C6.075 17.4094 5.7 18 5.15 18H5C4.44687 18 4 18.4469 4 19C4 19.5531 4.44687 20 5 20H9.5C11.4344 20 13 18.4344 13 16.5C13 16.4219 12.9969 16.3438 12.9937 16.2656H12.9906Z" fill="black"/>
</svg>
