<svg width="24" height="24" viewBox="0 0 24 24" fill="none" xmlns="http://www.w3.org/2000/svg">
<path d="M8.99994 5V8H12.9999V7H14.8781C15.0093 7 15.1374 7.05312 15.2312 7.14687L16.2906 8.20625C16.6812 8.59688 17.3156 8.59688 17.7062 8.20625C18.0968 7.81563 18.0968 7.18125 17.7062 6.79063L16.6468 5.73125C16.1781 5.2625 15.5406 5 14.8781 5H12.9999C12.9999 4.44687 12.5531 4 11.9999 4H9.99994C9.44681 4 8.99994 4.44687 8.99994 5ZM8.66869 9C7.62806 9 6.76244 9.79687 6.67494 10.8344L6.09369 17.8344C5.99681 19 6.91556 20 8.08744 20H13.9124C15.0812 20 16.0031 19 15.9062 17.8344L15.3218 10.8344C15.2343 9.79687 14.3687 9 13.3281 9H8.66869ZM12.9999 15.25C12.9999 16.3531 12.1031 17 10.9999 17C9.89681 17 8.99994 16.3531 8.99994 15.25C8.99994 14.2344 10.1562 12.7219 10.5906 12.1906C10.6906 12.0688 10.8437 12 10.9999 12C11.1562 12 11.3093 12.0688 11.4093 12.1906C11.8437 12.7219 12.9999 14.2344 12.9999 15.25Z" fill="black"/>
</svg>
