<svg width="24" height="24" viewBox="0 0 24 24" fill="none" xmlns="http://www.w3.org/2000/svg">
<path d="M15.5 4C15.8978 4 16.2794 4.15804 16.5607 4.43934C16.842 4.72064 17 5.10218 17 5.5C17 5.89782 16.842 6.27936 16.5607 6.56066C16.2794 6.84196 15.8978 7 15.5 7C15.1022 7 14.7206 6.84196 14.4393 6.56066C14.158 6.27936 14 5.89782 14 5.5C14 5.10218 14.158 4.72064 14.4393 4.43934C14.7206 4.15804 15.1022 4 15.5 4ZM12.1 9C11.6594 9 11.2406 9.175 10.9281 9.48438L10.2063 10.2063C9.81563 10.5969 9.18125 10.5969 8.79063 10.2063C8.4 9.81563 8.4 9.18125 8.79063 8.79063L9.5125 8.06875C10.2 7.38437 11.1313 7 12.1 7C12.4656 7 12.8281 7.05312 13.175 7.1625L14.6969 7.63125C15.8344 7.98125 16.7562 8.81875 17.2125 9.91563L17.4094 10.3844C17.5656 10.7562 17.9281 11 18.3313 11H19C19.5531 11 20 11.4469 20 12C20 12.5531 19.5531 13 19 13H18.3344C17.1219 13 16.0312 12.2719 15.5656 11.1531L15.4062 10.7688L14.4375 13.3438L16.2094 14.45C16.775 14.8031 17.0406 15.4906 16.8562 16.1344L15.9625 19.275C15.8094 19.8062 15.2563 20.1125 14.725 19.9625C14.1938 19.8125 13.8875 19.2563 14.0375 18.725L14.8313 15.95L12.1375 14.2656C11.3531 13.775 11.0094 12.8125 11.3 11.9375L12.275 9.00938C12.2156 9.00313 12.1594 9 12.1 9ZM10.4219 13.7094C10.6531 14.275 11.0594 14.7688 11.6062 15.1125L11.9031 15.3L11.5437 16.1094C11.3031 16.65 10.7656 17 10.1719 17H8C7.44688 17 7 16.5531 7 16C7 15.4469 7.44688 15 8 15H9.85L10.4219 13.7094ZM4.5 6.99375H8.5C8.775 6.99375 9 7.21875 9 7.49375C9 7.76875 8.775 7.99375 8.5 7.99375H4.5C4.225 7.99375 4 7.76875 4 7.49375C4 7.21875 4.225 6.99375 4.5 6.99375ZM4 9.49375C4 9.21875 4.225 8.99375 4.5 8.99375H6.5C6.775 8.99375 7 9.21875 7 9.49375C7 9.76875 6.775 9.99375 6.5 9.99375H4.5C4.225 9.99375 4 9.76875 4 9.49375ZM4.5 10.9938H8.5C8.775 10.9938 9 11.2188 9 11.4938C9 11.7688 8.775 11.9938 8.5 11.9938H4.5C4.225 11.9938 4 11.7688 4 11.4938C4 11.2188 4.225 10.9938 4.5 10.9938Z" fill="black"/>
</svg>
