<svg width="24" height="24" viewBox="0 0 24 24" fill="none" xmlns="http://www.w3.org/2000/svg">
<path d="M19.7813 4.21873C20.0751 4.51248 20.0751 4.98748 19.7813 5.2781L18.3095 6.7531C18.747 7.39373 19.0001 8.16873 19.0001 8.99998C19.0001 9.95935 18.6626 10.8406 18.097 11.5312C17.1626 12.6719 16.1782 14.0875 15.8063 15.5125C15.547 16.5125 15.0251 17.4594 14.2407 18.2406C11.897 20.5844 8.1001 20.5844 5.75635 18.2406C3.4126 15.8969 3.4126 12.1 5.75635 9.75623C6.54072 8.97185 7.48447 8.44998 8.48447 8.1906C9.9126 7.82185 11.3251 6.83435 12.4657 5.89998C13.1563 5.33748 14.0376 4.99685 14.997 4.99685C15.8313 4.99685 16.6032 5.2531 17.2438 5.68748L18.7188 4.21873C19.0126 3.92498 19.4876 3.92498 19.7782 4.21873H19.7813ZM14.0001 14C14.0001 13.725 13.7751 13.5 13.5001 13.5C13.2251 13.5 13.0001 13.725 13.0001 14C13.0001 15.6562 11.6563 17 10.0001 17C9.7251 17 9.5001 17.225 9.5001 17.5C9.5001 17.775 9.7251 18 10.0001 18C12.2095 18 14.0001 16.2094 14.0001 14Z" fill="black"/>
</svg>
