<svg width="24" height="24" viewBox="0 0 24 24" fill="none" xmlns="http://www.w3.org/2000/svg">
<path d="M9.56562 4.47807C9.71875 4.30932 10 4.41869 10 4.64682V6.22494C10.5719 6.53119 11.0719 7.12807 11.3281 7.89994C11.775 9.24057 11.3187 10.5937 10.3094 10.9249C9.3 11.2562 8.11875 10.4374 7.67187 9.09682C7.54687 8.72494 7.49375 8.34994 7.5 7.99682C7.5 7.19369 7.8 6.41557 8.34062 5.82182L9.56562 4.47494V4.47807ZM13.6906 10.9249C12.6812 10.5937 12.225 9.24057 12.6719 7.89994C12.9281 7.12807 13.4281 6.53119 14 6.22494V4.64682C14 4.41869 14.2812 4.30932 14.4344 4.47807L15.6594 5.82494C16.2 6.41869 16.5 7.19682 16.5 7.99994C16.5062 8.35307 16.4531 8.72494 16.3281 9.09682C15.8812 10.4374 14.7 11.2562 13.6906 10.9249ZM7.1375 11.2031C7.72812 12.2156 7.58437 13.3937 6.81875 13.8312C6.05312 14.2687 4.95312 13.8031 4.36562 12.7906C4.11562 12.3687 3.99687 11.9156 4 11.4999V11.3999C4 10.9781 4.13437 10.5656 4.38125 10.2249L5.54687 8.62182C5.69062 8.42494 6 8.52807 6 8.76869V10.1499C6.43437 10.3406 6.84687 10.7062 7.1375 11.2031ZM6.1625 17.5374C7.8 13.1218 10.7094 11.9999 12 11.9999C13.2906 11.9999 16.2 13.1218 17.8375 17.5374C17.95 17.8406 18 18.1656 18 18.4906V18.5406C18 19.3468 17.3469 19.9999 16.5406 19.9999C16.1812 19.9999 15.825 19.9562 15.4781 19.8687L12.7281 19.1812C12.25 19.0624 11.75 19.0624 11.2719 19.1812L8.52187 19.8687C8.175 19.9562 7.81875 19.9999 7.45937 19.9999C6.65312 19.9999 6 19.3468 6 18.5406V18.4906C6 18.1656 6.05 17.8437 6.1625 17.5374ZM17.1812 13.8343C16.4156 13.3968 16.2719 12.2187 16.8625 11.2062C17.1531 10.7093 17.5625 10.3437 18 10.1531V8.76869C18 8.52807 18.3094 8.42494 18.4531 8.62182L19.6187 10.2249C19.8687 10.5656 20 10.9781 20 11.3999V11.4999C20.0031 11.9156 19.8844 12.3687 19.6375 12.7937C19.0469 13.8062 17.95 14.2718 17.1844 13.8343H17.1812Z" fill="black"/>
</svg>
