<svg width="24" height="24" viewBox="0 0 24 24" fill="none" xmlns="http://www.w3.org/2000/svg">
<path d="M2.36566 12.3219L3.67503 15.2688C3.86566 15.6969 4.32503 15.9344 4.78441 15.8438L8.19691 15.1625C8.66566 15.0688 9.00003 14.6594 9.00003 14.1812V11.5C10.9469 10.85 13.0532 10.85 15 11.5V14.1812C15 14.6594 15.3375 15.0688 15.8032 15.1625L19.2157 15.8438C19.675 15.9344 20.1344 15.6969 20.325 15.2688L21.6344 12.3219C21.8594 11.8156 21.7938 11.225 21.4032 10.8313C19.8375 9.25313 16.5063 7 12 7C7.49378 7 4.16253 9.25313 2.59691 10.8313C2.20628 11.225 2.14066 11.8156 2.36566 12.3219Z" fill="black"/>
</svg>
