<svg width="24" height="24" viewBox="0 0 24 24" fill="none" xmlns="http://www.w3.org/2000/svg">
<path d="M10.5 5.5C10.5 5.10218 10.658 4.72064 10.9393 4.43934C11.2206 4.15804 11.6022 4 12 4C12.3978 4 12.7793 4.15804 13.0606 4.43934C13.342 4.72064 13.5 5.10218 13.5 5.5C13.5 5.89782 13.342 6.27936 13.0606 6.56066C12.7793 6.84196 12.3978 7 12 7C11.6022 7 11.2206 6.84196 10.9393 6.56066C10.658 6.27936 10.5 5.89782 10.5 5.5ZM11.75 15V19C11.75 19.5531 11.3031 20 10.75 20C10.1969 20 9.74999 19.5531 9.74999 19V12.0281L8.85624 13.5156C8.57186 13.9875 7.95624 14.1406 7.48436 13.8562C7.01249 13.5719 6.85936 12.9563 7.14374 12.4844L8.96561 9.45312C9.50936 8.55 10.4844 7.99688 11.5375 7.99688H12.4656C13.5187 7.99688 14.4937 8.55 15.0375 9.45312L16.8594 12.4844C17.1437 12.9563 16.9906 13.5719 16.5187 13.8562C16.0469 14.1406 15.4312 13.9875 15.1469 13.5156L14.25 12.0281V19C14.25 19.5531 13.8031 20 13.25 20C12.6969 20 12.25 19.5531 12.25 19V15H11.75Z" fill="black"/>
</svg>
