<svg width="24" height="24" viewBox="0 0 24 24" fill="none" xmlns="http://www.w3.org/2000/svg">
<path d="M9 4C8.25938 4 7.6125 4.40312 7.26875 5H5.5C4.67188 5 4 5.67188 4 6.5V16.5C4 17.3281 4.67188 18 5.5 18H10V9.5C10 8.11875 11.1188 7 12.5 7H14V6.5C14 5.67188 13.3281 5 12.5 5H10.7312C10.3875 4.40312 9.74062 4 9 4ZM12.5 8C11.6719 8 11 8.67188 11 9.5V18V18.5C11 19.3281 11.6719 20 12.5 20H18.5C19.3281 20 20 19.3281 20 18.5V11.6219C20 11.225 19.8406 10.8438 19.5594 10.5625L17.4375 8.44063C17.1562 8.15938 16.775 8 16.3781 8H14H12.5ZM9 5.25C9.19891 5.25 9.38968 5.32902 9.53033 5.46967C9.67098 5.61032 9.75 5.80109 9.75 6C9.75 6.19891 9.67098 6.38968 9.53033 6.53033C9.38968 6.67098 9.19891 6.75 9 6.75C8.80109 6.75 8.61032 6.67098 8.46967 6.53033C8.32902 6.38968 8.25 6.19891 8.25 6C8.25 5.80109 8.32902 5.61032 8.46967 5.46967C8.61032 5.32902 8.80109 5.25 9 5.25Z" fill="black"/>
</svg>
