<svg width="24" height="24" viewBox="0 0 24 24" fill="none" xmlns="http://www.w3.org/2000/svg">
<path d="M20.4875 4.51255C21.1719 5.19692 21.1719 6.30317 20.4875 6.98755L12.5906 14.8844L10.1156 12.4094L18.0125 4.51255C18.6969 3.82817 19.8031 3.82817 20.4875 4.51255ZM9.40938 13.1157L11.8844 15.5907L11.8813 15.5938C11.9594 15.8844 12 16.1875 12 16.5C12 18.4344 10.4344 20 8.5 20H4C3.44687 20 3 19.5532 3 19C3 18.4469 3.44687 18 4 18H4.15C4.7 18 5.075 17.4094 5.01875 16.8625C5.00625 16.7438 5 16.6219 5 16.5C5 14.5657 6.56562 13 8.5 13C8.8125 13 9.11875 13.0407 9.40625 13.1188L9.40938 13.1157Z" fill="black"/>
</svg>
