<svg width="24" height="24" viewBox="0 0 24 24" fill="none" xmlns="http://www.w3.org/2000/svg">
<path d="M3.21243 4.15943C2.88743 3.90318 2.41556 3.96255 2.15931 4.28755C1.90306 4.61255 1.96243 5.08443 2.28743 5.34068L20.7874 19.8407C21.1124 20.0969 21.5843 20.0376 21.8406 19.7126C22.0968 19.3876 22.0374 18.9157 21.7124 18.6594L14.8093 13.2501L17.1749 10.8844L13.1156 6.82193L10.2562 9.6813L3.21243 4.15943ZM12.6624 15.4001L8.11868 11.8219L5.83118 14.1094C5.50618 14.4344 5.26868 14.8376 5.13743 15.2782L4.03118 19.0376C3.95306 19.3001 4.02493 19.5844 4.22181 19.7782C4.41868 19.9719 4.69993 20.0438 4.96243 19.9688L8.72181 18.8626C9.16243 18.7313 9.56556 18.4938 9.89056 18.1688L12.6593 15.4001H12.6624ZM15.3343 4.60318L13.8218 6.11568L17.8843 10.1782L19.3968 8.66568C20.1781 7.88443 20.1781 6.6188 19.3968 5.83755L18.1656 4.60318C17.3843 3.82193 16.1187 3.82193 15.3374 4.60318H15.3343Z" fill="black"/>
</svg>
