<svg width="24" height="24" viewBox="0 0 24 24" fill="none" xmlns="http://www.w3.org/2000/svg">
<path d="M9.50003 8C9.89785 8 10.2794 7.84196 10.5607 7.56066C10.842 7.27936 11 6.89782 11 6.5C11 6.10218 10.842 5.72064 10.5607 5.43934C10.2794 5.15804 9.89785 5 9.50003 5C9.1022 5 8.72067 5.15804 8.43937 5.43934C8.15806 5.72064 8.00003 6.10218 8.00003 6.5C8.00003 6.89782 8.15806 7.27936 8.43937 7.56066C8.72067 7.84196 9.1022 8 9.50003 8ZM12.2813 13L12.0313 12H14C14.5532 12 15 11.5531 15 11C15 10.4469 14.5532 10 14 10H11.525C11.3188 9.40625 10.7594 9 10.1219 9C9.15628 9 8.4469 9.90938 8.68128 10.8438L9.34065 13.4844C9.56253 14.375 10.3625 15 11.2813 15H11.4782C11.4938 15 11.5063 15 11.5219 15H13.9625C14.1719 15 14.3563 15.1281 14.4313 15.325L15.5625 18.35C15.75 18.8531 16.3063 19.1187 16.8157 18.9469L18.3157 18.4469C18.8407 18.2719 19.1219 17.7062 18.9469 17.1812C18.7719 16.6562 18.2063 16.375 17.6813 16.55L17.0969 16.7437L16.3 14.6187C15.9344 13.6437 15 12.9969 13.9594 12.9969H12.2813V13ZM6.9844 8.81563C6.88128 8.27188 6.3594 7.91562 5.81878 8.01562C5.27815 8.11563 4.91878 8.64063 5.01878 9.18125L6.0594 14.7375C6.41253 16.6281 8.06565 18 9.99065 18H12.5C13.0532 18 13.5 17.5531 13.5 17C13.5 16.4469 13.0532 16 12.5 16H9.99065C9.02815 16 8.20315 15.3156 8.02503 14.3687L6.9844 8.81563Z" fill="black"/>
</svg>
