<svg width="24" height="24" viewBox="0 0 24 24" fill="none" xmlns="http://www.w3.org/2000/svg">
<path d="M18.8531 4.35313C18.6281 4.12813 18.3187 4 18 4C17.6812 4 17.3719 4.12813 17.1469 4.35313L16.2062 5.29375L18.7062 7.79375L19.6469 6.85313C19.8719 6.62813 20 6.31875 20 6C20 5.68125 19.8719 5.37188 19.6469 5.14688L18.8531 4.35313ZM11.5719 6.7375C11.6687 6.64062 11.8281 6.64062 11.925 6.7375L12.8437 7.65625L6.27498 14.225C6.09373 14.4062 5.96248 14.6281 5.89373 14.875L5.02498 17.9156L4.21873 18.7188C3.92498 19.0125 3.92498 19.4875 4.21873 19.7781C4.51248 20.0688 4.98748 20.0719 5.2781 19.7781L6.08123 18.975L9.12498 18.1062C9.36873 18.0375 9.59373 17.9062 9.77498 17.725L17.6469 9.85313C17.8719 9.62813 18 9.31875 18 9C18 8.68125 17.8719 8.37187 17.6469 8.14687L15.8531 6.35313C15.6281 6.12813 15.3187 6 15 6C14.6812 6 14.3719 6.12813 14.1469 6.35313L13.9062 6.59375L12.9875 5.67813C12.3031 4.99375 11.1969 4.99375 10.5125 5.67813L7.21873 8.96875C6.92498 9.2625 6.92498 9.7375 7.21873 10.0281C7.51248 10.3187 7.98748 10.3219 8.2781 10.0281L11.5719 6.7375ZM6.78435 17.2156L7.32498 15.325L8.67498 16.675L6.78435 17.2156Z" fill="black"/>
</svg>
