<svg width="24" height="24" viewBox="0 0 24 24" fill="none" xmlns="http://www.w3.org/2000/svg">
<path d="M3.21243 4.15935C2.88743 3.9031 2.41556 3.96248 2.15931 4.28748C1.90306 4.61248 1.96243 5.08435 2.28743 5.3406L20.7874 19.8406C21.1124 20.0969 21.5843 20.0375 21.8406 19.7125C22.0968 19.3875 22.0374 18.9156 21.7124 18.6594L14.7999 13.2437L16.1156 11.9281L16.8218 11.2187L17.1749 10.8656L16.1156 9.80623L14.1749 7.8656L13.1156 6.80623L12.7624 7.15935L12.0562 7.8656L10.2499 9.67185L3.21243 4.15935ZM11.5687 10.7094L13.1468 9.13123C13.3406 8.93748 13.6593 8.93748 13.8531 9.13123C14.0468 9.32498 14.0468 9.64373 13.8531 9.83748L12.3593 11.3312L11.5656 10.7094H11.5687ZM8.10931 11.8125L5.83118 14.0906C5.50618 14.4156 5.26868 14.8187 5.13743 15.2593L4.03118 19.0219C3.95306 19.2844 4.02493 19.5687 4.22181 19.7625C4.41868 19.9562 4.69993 20.0281 4.96243 19.9531L8.72181 18.8469C9.16243 18.7156 9.56556 18.4781 9.89056 18.1531L12.6499 15.3937L10.2156 13.475L9.35306 14.3375C9.15931 14.5312 8.84056 14.5312 8.64681 14.3375C8.45306 14.1437 8.45306 13.825 8.64681 13.6312L9.42493 12.8531L8.10931 11.8125ZM8.99993 16.4812L8.71556 17.1906C8.59056 17.2875 8.44993 17.3594 8.29993 17.4062L5.85931 18.125L6.57806 15.6844C6.62181 15.5312 6.69681 15.3906 6.79368 15.2687L7.50306 14.9844V15.9844C7.50306 16.2594 7.72806 16.4844 8.00306 16.4844H9.00306L8.99993 16.4812ZM15.3343 4.58435L14.8843 5.03748L14.1781 5.74373L13.8218 6.09685L14.8812 7.15623L16.8218 9.09685L17.8812 10.1562L18.2343 9.8031L18.9406 9.09685L19.3937 8.64373C20.1749 7.86248 20.1749 6.59685 19.3937 5.8156L18.1656 4.58435C17.3843 3.8031 16.1187 3.8031 15.3374 4.58435H15.3343Z" fill="black"/>
</svg>
