<svg width="24" height="24" viewBox="0 0 24 24" fill="none" xmlns="http://www.w3.org/2000/svg">
<path d="M7.67188 4.04372C8.27812 3.8781 8.9125 4.18747 9.15312 4.76872L10.4031 7.76872C10.6156 8.2781 10.4688 8.86872 10.0406 9.2156L8.5 10.4781C9.54063 12.6781 11.3219 14.4593 13.5219 15.5L14.7812 13.9593C15.1313 13.5312 15.7188 13.3843 16.2281 13.5968L19.2281 14.8468C19.8094 15.0875 20.1187 15.7218 19.9531 16.3281L19.2031 19.0781C19.0562 19.6218 18.5625 20 18 20C10.2688 20 4 13.7312 4 5.99997C4 5.43747 4.37813 4.94372 4.92188 4.79372L7.67188 4.04372ZM17.2812 4.21872L19.7812 6.71872C20.075 7.01247 20.075 7.48747 19.7812 7.7781L17.2812 10.2781C16.9875 10.5718 16.5125 10.5718 16.2219 10.2781C15.9313 9.98435 15.9281 9.50935 16.2219 9.21872L17.4406 7.99997H13.75C13.3344 7.99997 13 7.6656 13 7.24997C13 6.83435 13.3344 6.49997 13.75 6.49997H17.4406L16.2188 5.28122C15.925 4.98747 15.925 4.51247 16.2188 4.22185C16.5125 3.93122 16.9875 3.9281 17.2781 4.22185L17.2812 4.21872Z" fill="black"/>
</svg>
