<svg width="24" height="24" viewBox="0 0 24 24" fill="none" xmlns="http://www.w3.org/2000/svg">
<path d="M6 6C5.44687 6 5 6.44687 5 7C5 7.55313 5.44687 8 6 8H8V12.875C8 14.1156 7.70938 15.3406 7.15625 16.4531L7.10625 16.5531C6.85938 17.0469 7.05937 17.6469 7.55312 17.8938C8.04687 18.1406 8.64687 17.9406 8.89375 17.4469L8.94375 17.3469C9.6375 15.9594 10 14.4281 10 12.875V8H14V15.4563C14 16.8625 15.1406 18 16.5437 18C17.5062 18 18.3875 17.4563 18.8188 16.5938L18.8906 16.4469C19.1375 15.9531 18.9375 15.3531 18.4438 15.1062C17.95 14.8594 17.35 15.0594 17.1031 15.5531L17.0312 15.7C16.9375 15.8844 16.75 16 16.5437 16C16.2437 16 16 15.7563 16 15.4563V8H18C18.5531 8 19 7.55313 19 7C19 6.44687 18.5531 6 18 6H6Z" fill="black"/>
</svg>
