<svg width="24" height="24" viewBox="0 0 24 24" fill="none" xmlns="http://www.w3.org/2000/svg">
<path d="M9.56569 4.47843C9.71881 4.30968 10.0001 4.41906 10.0001 4.64718V6.22531C10.5719 6.53156 11.0719 7.12843 11.3282 7.90031C11.7751 9.24093 11.3188 10.5941 10.3094 10.9253C9.30006 11.2566 8.11881 10.4378 7.67194 9.09718C7.54694 8.72531 7.49381 8.35031 7.50006 7.99718C7.50006 7.19406 7.80006 6.41593 8.34068 5.82218L9.56569 4.47531V4.47843ZM13.6907 10.9253C12.6813 10.5941 12.2251 9.24093 12.6719 7.90031C12.9282 7.12843 13.4282 6.53156 14.0001 6.22531V4.64718C14.0001 4.41906 14.2813 4.30968 14.4344 4.47843L15.6594 5.82531C16.2001 6.41906 16.5001 7.19718 16.5001 8.00031C16.5063 8.35343 16.4532 8.72531 16.3282 9.09718C15.8813 10.4378 14.7001 11.2566 13.6907 10.9253ZM7.13756 11.2034C7.72819 12.2159 7.58443 13.3941 6.81881 13.8316C6.05318 14.2691 4.95319 13.8034 4.36569 12.7909C4.11569 12.3691 3.99694 11.9159 4.00006 11.5003V11.4003C4.00006 10.9784 4.13444 10.5659 4.38131 10.2253L5.54694 8.62218C5.69069 8.42531 6.00006 8.52843 6.00006 8.76906V10.1503C6.43444 10.3409 6.84694 10.7066 7.13756 11.2034ZM6.16256 17.5378C7.80006 13.1222 10.7094 12.0003 12.0001 12.0003C13.2907 12.0003 16.2001 13.1222 17.8376 17.5378C17.9501 17.8409 18.0001 18.1659 18.0001 18.4909V18.5409C18.0001 19.3472 17.3469 20.0003 16.5407 20.0003C16.1813 20.0003 15.8251 19.9566 15.4782 19.8691L12.7282 19.1816C12.2501 19.0628 11.7501 19.0628 11.2719 19.1816L8.52193 19.8691C8.17506 19.9566 7.81881 20.0003 7.45943 20.0003C6.65319 20.0003 6.00006 19.3472 6.00006 18.5409V18.4909C6.00006 18.1659 6.05006 17.8441 6.16256 17.5378ZM17.1813 13.8347C16.4157 13.3972 16.2719 12.2191 16.8626 11.2066C17.1532 10.7097 17.5626 10.3441 18.0001 10.1534V8.76906C18.0001 8.52843 18.3094 8.42531 18.4532 8.62218L19.6188 10.2253C19.8688 10.5659 20.0001 10.9784 20.0001 11.4003V11.5003C20.0032 11.9159 19.8844 12.3691 19.6376 12.7941C19.0469 13.8066 17.9501 14.2722 17.1844 13.8347H17.1813Z" fill="black"/>
</svg>
