<svg width="24" height="24" viewBox="0 0 24 24" fill="none" xmlns="http://www.w3.org/2000/svg">
<path d="M10 7.275C10 6.9875 9.81875 6.73438 9.5875 6.5625C9.225 6.29063 9 5.91563 9 5.5C9 4.67188 9.89688 4 11 4C12.1031 4 13 4.67188 13 5.5C13 5.91563 12.775 6.29063 12.4125 6.5625C12.1813 6.73438 12 6.9875 12 7.275C12 7.675 12.325 8 12.725 8H14.5C15.3281 8 16 8.67188 16 9.5V11.275C16 11.675 16.325 12 16.725 12C17.0125 12 17.2656 11.8188 17.4375 11.5875C17.7094 11.225 18.0844 11 18.5 11C19.3281 11 20 11.8969 20 13C20 14.1031 19.3281 15 18.5 15C18.0844 15 17.7094 14.775 17.4375 14.4125C17.2656 14.1813 17.0125 14 16.725 14C16.325 14 16 14.325 16 14.725V18.5C16 19.3281 15.3281 20 14.5 20H12.725C12.325 20 12 19.675 12 19.275C12 18.9875 12.1813 18.7344 12.4125 18.5625C12.775 18.2906 13 17.9156 13 17.5C13 16.6719 12.1031 16 11 16C9.89688 16 9 16.6719 9 17.5C9 17.9156 9.225 18.2906 9.5875 18.5625C9.81875 18.7344 10 18.9875 10 19.275C10 19.675 9.675 20 9.275 20H5.5C4.67188 20 4 19.3281 4 18.5V14.725C4 14.325 4.325 14 4.725 14C5.0125 14 5.26562 14.1813 5.4375 14.4125C5.70937 14.775 6.08437 15 6.5 15C7.32812 15 8 14.1031 8 13C8 11.8969 7.32812 11 6.5 11C6.08437 11 5.70937 11.225 5.4375 11.5875C5.26562 11.8188 5.0125 12 4.725 12C4.325 12 4 11.675 4 11.275V9.5C4 8.67188 4.67188 8 5.5 8H9.275C9.675 8 10 7.675 10 7.275Z" fill="black"/>
</svg>
