<svg width="24" height="24" viewBox="0 0 24 24" fill="none" xmlns="http://www.w3.org/2000/svg">
<path d="M9.50001 7C9.89783 7 10.2794 6.84196 10.5607 6.56066C10.842 6.27936 11 5.89782 11 5.5C11 5.10218 10.842 4.72064 10.5607 4.43934C10.2794 4.15804 9.89783 4 9.50001 4C9.10218 4 8.72065 4.15804 8.43935 4.43934C8.15804 4.72064 8.00001 5.10218 8.00001 5.5C8.00001 5.89782 8.15804 6.27936 8.43935 6.56066C8.72065 6.84196 9.10218 7 9.50001 7ZM9.23751 8C8.10001 8 7.06251 8.64062 6.55313 9.65938L5.10626 12.5531C4.85938 13.0469 5.05938 13.6469 5.55313 13.8938C6.04688 14.1406 6.64688 13.9406 6.89376 13.4469L8.00001 11.2375V12.5875C8.00001 13.1187 8.20938 13.6281 8.58438 14.0031L11 16.4156V19C11 19.5531 11.4469 20 12 20C12.5531 20 13 19.5531 13 19V16.2063C13 15.8094 12.8406 15.4281 12.5594 15.1469L11 13.5844V10.6656L13.2 13.6C13.5313 14.0406 14.1594 14.1313 14.6 13.8C15.0406 13.4688 15.1313 12.8406 14.8 12.4L12.4 9.2C11.8344 8.44375 10.9438 8 10 8H9.23751ZM8.00938 14.8375L7.03126 18.7563C6.89688 19.2906 7.22188 19.8344 7.75938 19.9688C8.29688 20.1031 8.83751 19.7781 8.97188 19.2406L9.65938 16.4844L8.00938 14.8344V14.8375ZM18.0875 19.7844C18.2438 20.0125 18.5563 20.0688 18.7844 19.9094C19.0125 19.75 19.0688 19.4406 18.9094 19.2125L15.2156 13.8781C15.1281 13.9969 15.025 14.1062 14.9 14.2C14.7438 14.3187 14.5719 14.4 14.3938 14.4469L18.0875 19.7844Z" fill="black"/>
</svg>
