<svg width="24" height="24" viewBox="0 0 24 24" fill="none" xmlns="http://www.w3.org/2000/svg">
<path d="M7.67188 4.04445C8.27812 3.87883 8.9125 4.1882 9.15312 4.76945L10.4031 7.76945C10.6156 8.27883 10.4688 8.86945 10.0406 9.21633L8.5 10.4788C9.54063 12.6788 11.3219 14.4601 13.5219 15.5007L14.7812 13.9601C15.1313 13.532 15.7188 13.3851 16.2281 13.5976L19.2281 14.8476C19.8094 15.0882 20.1187 15.7226 19.9531 16.3288L19.2031 19.0788C19.0562 19.6226 18.5625 20.0007 18 20.0007C10.2688 20.0007 4 13.732 4 6.0007C4 5.4382 4.37813 4.94445 4.92188 4.79445L7.67188 4.04445ZM17.2812 4.21945L19.7812 6.71945C20.075 7.0132 20.075 7.4882 19.7812 7.77883L17.2812 10.2788C16.9875 10.5726 16.5125 10.5726 16.2219 10.2788C15.9313 9.98508 15.9281 9.51008 16.2219 9.21945L17.4406 8.0007H13.75C13.3344 8.0007 13 7.66633 13 7.2507C13 6.83508 13.3344 6.5007 13.75 6.5007H17.4406L16.2188 5.28195C15.925 4.9882 15.925 4.5132 16.2188 4.22258C16.5125 3.93195 16.9875 3.92883 17.2781 4.22258L17.2812 4.21945Z" fill="black"/>
</svg>
