<svg width="24" height="24" viewBox="0 0 24 24" fill="none" xmlns="http://www.w3.org/2000/svg">
<path d="M2.00938 9.21562L2 6.125C2 5.80312 2.29688 5.56562 2.60938 5.63437L3.72187 5.88125C4.05312 5.95313 4.32187 6.19062 4.44062 6.50625L5 8L8.97813 9.175L7.68125 4.6375C7.59063 4.31875 7.83125 4 8.1625 4H9.41563C9.77813 4 10.1094 4.19375 10.2875 4.50937L13.6938 10.5656L17.0437 11.5563C17.5406 11.7031 18.0062 11.9469 18.4094 12.2688L19.4844 13.1313C20.2344 13.7313 20.05 14.9219 19.15 15.2625C17.8625 15.75 16.4562 15.8281 15.125 15.4812L5.80312 13.0562C5.45625 12.9656 5.14063 12.7844 4.8875 12.5281L2.29688 9.91875C2.1125 9.73125 2.00625 9.47812 2.00625 9.21562H2.00938ZM3 18H21C21.5531 18 22 18.4469 22 19C22 19.5531 21.5531 20 21 20H3C2.44687 20 2 19.5531 2 19C2 18.4469 2.44687 18 3 18ZM6 15.5C6 15.2348 6.10536 14.9804 6.29289 14.7929C6.48043 14.6054 6.73478 14.5 7 14.5C7.26522 14.5 7.51957 14.6054 7.70711 14.7929C7.89464 14.9804 8 15.2348 8 15.5C8 15.7652 7.89464 16.0196 7.70711 16.2071C7.51957 16.3946 7.26522 16.5 7 16.5C6.73478 16.5 6.48043 16.3946 6.29289 16.2071C6.10536 16.0196 6 15.7652 6 15.5ZM10 15C10.2652 15 10.5196 15.1054 10.7071 15.2929C10.8946 15.4804 11 15.7348 11 16C11 16.2652 10.8946 16.5196 10.7071 16.7071C10.5196 16.8946 10.2652 17 10 17C9.73478 17 9.48043 16.8946 9.29289 16.7071C9.10536 16.5196 9 16.2652 9 16C9 15.7348 9.10536 15.4804 9.29289 15.2929C9.48043 15.1054 9.73478 15 10 15Z" fill="black"/>
</svg>
