<svg width="24" height="24" viewBox="0 0 24 24" fill="none" xmlns="http://www.w3.org/2000/svg">
<path d="M13.2188 9.71945L17.4375 5.5007H16C15.5844 5.5007 15.25 5.16633 15.25 4.7507C15.25 4.33508 15.5844 4.0007 16 4.0007H19.25C19.6656 4.0007 20 4.33508 20 4.7507V8.0007C20 8.41633 19.6656 8.7507 19.25 8.7507C18.8344 8.7507 18.5 8.41633 18.5 8.0007V6.56008L14.2812 10.782C13.9875 11.0757 13.5125 11.0757 13.2219 10.782C12.9313 10.4882 12.9281 10.0132 13.2219 9.72258L13.2188 9.71945ZM7.67188 4.04445C8.27812 3.87883 8.9125 4.1882 9.15312 4.76945L10.4031 7.76945C10.6156 8.27883 10.4688 8.86945 10.0406 9.21633L8.5 10.4788C9.54063 12.6788 11.3219 14.4601 13.5219 15.5007L14.7812 13.9601C15.1313 13.532 15.7188 13.3851 16.2281 13.5976L19.2281 14.8476C19.8094 15.0882 20.1187 15.7226 19.9531 16.3288L19.2031 19.0788C19.0562 19.6226 18.5625 20.0007 18 20.0007C10.2688 20.0007 4 13.732 4 6.0007C4 5.4382 4.37813 4.94445 4.92188 4.79445L7.67188 4.04445Z" fill="black"/>
</svg>
