<svg width="24" height="24" viewBox="0 0 24 24" fill="none" xmlns="http://www.w3.org/2000/svg">
<path d="M5.74065 19.8219C4.70628 20.2812 3.4969 19.8156 3.0344 18.7844L2.32815 17.1938C2.11878 16.725 2.01253 16.2344 2.00003 15.75C1.98753 15.2656 2.06878 14.7719 2.25003 14.2937C2.43753 13.8125 2.7094 13.3906 3.04378 13.0406C3.22503 12.85 3.42815 12.675 3.65315 12.5219C4.17503 12.1531 4.66878 11.7156 4.8969 11.1188C5.12503 10.5219 5.05315 9.86563 4.9094 9.24375C4.84378 8.98125 4.8094 8.7125 4.80315 8.45C4.79065 7.96875 4.86878 7.47813 5.05003 7L5.05628 6.98438C5.24065 6.50625 5.5094 6.0875 5.84378 5.7375C6.17815 5.3875 6.58128 5.09375 7.05315 4.88437L8.64378 4.17812C9.67815 3.71875 10.8875 4.18125 11.35 5.21563L12.0563 6.8C11.9438 7.1375 11.8532 7.49375 11.7813 7.78437C11.7438 7.92812 11.7125 8.05937 11.6844 8.1625C11.5532 8.625 11.4125 8.93125 11.175 9.16875C10.9375 9.40625 10.6313 9.54687 10.1688 9.67812C10.0625 9.70937 9.9344 9.74063 9.79065 9.775C9.40003 9.87188 8.90003 9.99688 8.47815 10.1719C7.81253 10.4469 7.19065 10.8563 6.65315 11.3938C5.5719 12.4719 5.00003 13.8563 5.00003 15.375V17.5C5.00003 18.3687 5.31878 19.1656 5.84378 19.7781L5.74378 19.8219H5.74065ZM17.375 4H19.5C20.8813 4 22 5.11875 22 6.5V8.625C22 9.89375 21.4875 11.0437 20.6594 11.8812L20.6313 11.9094C20.1907 12.3469 19.6844 12.6781 19.1438 12.9C18.8469 13.025 18.5313 13.1156 18.2063 13.175C17.4407 13.325 16.6719 13.5687 16.1219 14.1219C15.5719 14.675 15.3282 15.4406 15.175 16.2063C15.1157 16.5313 15.0219 16.8469 14.9 17.1438C14.6782 17.6781 14.3532 18.1812 13.9219 18.6187C13.9032 18.6375 13.8875 18.6531 13.8688 18.6719C13.0344 19.4937 11.8907 20 10.625 20H8.50003C7.11878 20 6.00003 18.8813 6.00003 17.5V15.375C6.00003 14.7469 6.12503 14.15 6.35003 13.6031C6.57503 13.0562 6.9094 12.5469 7.35315 12.1031C7.7969 11.6594 8.3094 11.325 8.85628 11.1C9.15315 10.975 9.46878 10.8844 9.79378 10.825C10.5594 10.675 11.3282 10.4313 11.8782 9.87813C12.4282 9.325 12.6719 8.55938 12.825 7.79375C12.8844 7.46875 12.9782 7.15313 13.1 6.85625C13.325 6.3125 13.6563 5.80625 14.0969 5.3625L14.1094 5.35C14.5532 4.90938 15.0625 4.575 15.6032 4.35C16.15 4.125 16.7469 4 17.375 4ZM19 8.6C19.1592 8.6 19.3118 8.53679 19.4243 8.42426C19.5368 8.31174 19.6 8.15913 19.6 8C19.6 7.84087 19.5368 7.68826 19.4243 7.57574C19.3118 7.46321 19.1592 7.4 19 7.4C18.8409 7.4 18.6883 7.46321 18.5758 7.57574C18.4632 7.68826 18.4 7.84087 18.4 8C18.4 8.15913 18.4632 8.31174 18.5758 8.42426C18.6883 8.53679 18.8409 8.6 19 8.6ZM19 10.6C19.1592 10.6 19.3118 10.5368 19.4243 10.4243C19.5368 10.3117 19.6 10.1591 19.6 10C19.6 9.84087 19.5368 9.68826 19.4243 9.57574C19.3118 9.46321 19.1592 9.4 19 9.4C18.8409 9.4 18.6883 9.46321 18.5758 9.57574C18.4632 9.68826 18.4 9.84087 18.4 10C18.4 10.1591 18.4632 10.3117 18.5758 10.4243C18.6883 10.5368 18.8409 10.6 19 10.6ZM17 10.6C17.1592 10.6 17.3118 10.5368 17.4243 10.4243C17.5368 10.3117 17.6 10.1591 17.6 10C17.6 9.84087 17.5368 9.68826 17.4243 9.57574C17.3118 9.46321 17.1592 9.4 17 9.4C16.8409 9.4 16.6883 9.46321 16.5758 9.57574C16.4632 9.68826 16.4 9.84087 16.4 10C16.4 10.1591 16.4632 10.3117 16.5758 10.4243C16.6883 10.5368 16.8409 10.6 17 10.6ZM10 17.6C10.1592 17.6 10.3118 17.5368 10.4243 17.4243C10.5368 17.3117 10.6 17.1591 10.6 17C10.6 16.8409 10.5368 16.6883 10.4243 16.5757C10.3118 16.4632 10.1592 16.4 10 16.4C9.8409 16.4 9.68829 16.4632 9.57576 16.5757C9.46324 16.6883 9.40003 16.8409 9.40003 17C9.40003 17.1591 9.46324 17.3117 9.57576 17.4243C9.68829 17.5368 9.8409 17.6 10 17.6ZM12.6 17C12.6 16.8409 12.5368 16.6883 12.4243 16.5757C12.3118 16.4632 12.1592 16.4 12 16.4C11.8409 16.4 11.6883 16.4632 11.5758 16.5757C11.4632 16.6883 11.4 16.8409 11.4 17C11.4 17.1591 11.4632 17.3117 11.5758 17.4243C11.6883 17.5368 11.8409 17.6 12 17.6C12.1592 17.6 12.3118 17.5368 12.4243 17.4243C12.5368 17.3117 12.6 17.1591 12.6 17ZM12.6 15C12.6 14.8409 12.5368 14.6883 12.4243 14.5757C12.3118 14.4632 12.1592 14.4 12 14.4C11.8409 14.4 11.6883 14.4632 11.5758 14.5757C11.4632 14.6883 11.4 14.8409 11.4 15C11.4 15.1591 11.4632 15.3117 11.5758 15.4243C11.6883 15.5368 11.8409 15.6 12 15.6C12.1592 15.6 12.3118 15.5368 12.4243 15.4243C12.5368 15.3117 12.6 15.1591 12.6 15Z" fill="black"/>
</svg>
