<svg width="24" height="24" viewBox="0 0 24 24" fill="none" xmlns="http://www.w3.org/2000/svg">
<path d="M8.00025 8C8.53068 8 9.03939 7.78929 9.41446 7.41421C9.78953 7.03914 10.0002 6.53043 10.0002 6C10.0002 5.46957 9.78953 4.96086 9.41446 4.58579C9.03939 4.21071 8.53068 4 8.00025 4C7.46981 4 6.9611 4.21071 6.58603 4.58579C6.21096 4.96086 6.00025 5.46957 6.00025 6C6.00025 6.53043 6.21096 7.03914 6.58603 7.41421C6.9611 7.78929 7.46981 8 8.00025 8ZM7.50962 9C6.61587 9 5.8315 9.59062 5.58775 10.45L4.36587 14.725C4.1815 15.3656 4.66275 16 5.32525 16H6.00025V18.5C6.00025 19.3281 6.67212 20 7.50025 20H8.50025C9.32837 20 10.0002 19.3281 10.0002 18.5V16H10.6752C11.3409 16 11.819 15.3656 11.6377 14.725L10.4159 10.45C10.169 9.59062 9.38462 9 8.494 9H7.50962ZM16.0002 8C16.5307 8 17.0394 7.78929 17.4145 7.41421C17.7895 7.03914 18.0002 6.53043 18.0002 6C18.0002 5.46957 17.7895 4.96086 17.4145 4.58579C17.0394 4.21071 16.5307 4 16.0002 4C15.4698 4 14.9611 4.21071 14.586 4.58579C14.211 4.96086 14.0002 5.46957 14.0002 6C14.0002 6.53043 14.211 7.03914 14.586 7.41421C14.9611 7.78929 15.4698 8 16.0002 8ZM15.5096 9C14.6159 9 13.8315 9.59062 13.5877 10.45L12.3659 14.725C12.1846 15.3625 12.6627 16 13.3284 16H14.0002V18.5C14.0002 19.3281 14.6721 20 15.5002 20H16.5002C17.3284 20 18.0002 19.3281 18.0002 18.5V16H18.6752C19.3409 16 19.819 15.3656 19.6377 14.725L18.4159 10.45C18.1721 9.59062 17.3846 9 16.494 9H15.5096Z" fill="black"/>
</svg>
