<svg width="24" height="24" viewBox="0 0 24 24" fill="none" xmlns="http://www.w3.org/2000/svg">
<path d="M7.5 13.9406V11.9594L8.30625 12.2688C8.76562 12.4438 9.27812 12.4219 9.71562 12.2L12.1187 11H13H17.5C18.8813 11 20 12.1187 20 13.5V13.9125L19.2719 14.2031L18.675 13.9031C18.4187 13.775 18.1219 13.7625 17.8562 13.8687L17.0219 14.2031L16.425 13.9031C16.1687 13.775 15.8719 13.7625 15.6062 13.8687L14.7719 14.2031L14.175 13.9031C13.9187 13.775 13.6219 13.7625 13.3562 13.8687L12.5219 14.2031L11.925 13.9031C11.6688 13.775 11.3719 13.7625 11.1062 13.8687L10.2719 14.2031L9.675 13.9031C9.41875 13.775 9.12187 13.7625 8.85625 13.8687L8.02187 14.2031L7.5 13.9406ZM7.5 15.0594L7.575 15.0969C7.83125 15.225 8.12813 15.2375 8.39375 15.1313L9.22813 14.7969L9.825 15.0969C10.0812 15.225 10.3781 15.2375 10.6438 15.1313L11.4781 14.7969L12.075 15.0969C12.3313 15.225 12.6281 15.2375 12.8938 15.1313L13.7281 14.7969L14.325 15.0969C14.5813 15.225 14.8781 15.2375 15.1438 15.1313L15.9781 14.7969L16.575 15.0969C16.8313 15.225 17.1281 15.2375 17.3938 15.1313L18.2281 14.7969L18.825 15.0969C19.0813 15.225 19.3781 15.2375 19.6438 15.1313L20 14.9875V16.5656L19.25 16.9406L18.6969 16.6656C18.4156 16.525 18.0844 16.525 17.8031 16.6656L17.2875 16.925L16.7781 16.5875C16.6969 16.5312 16.6 16.5031 16.5 16.5031H11C10.9 16.5031 10.8063 16.5312 10.7219 16.5875L10.2125 16.925L9.69688 16.6656C9.41563 16.525 9.08437 16.525 8.80312 16.6656L8.25 16.9406L7.5 16.5656V15.0594ZM8.66563 11.3344L5.075 9.95625C4.41875 9.6125 4 8.93125 4 8.18125V8C4 6.89687 4.89688 6 6 6H9.5V5C9.5 4.44687 9.94688 4 10.5 4C11.0531 4 11.5 4.44687 11.5 5V10.1906L9.26875 11.3063C9.08125 11.4 8.85938 11.4125 8.66563 11.3344ZM7.5 17.6844L7.80312 17.8344C8.08437 17.975 8.41563 17.975 8.69688 17.8344L9.25 17.5594L9.76562 17.8188C10.0875 17.9781 10.4688 17.9563 10.7688 17.7563L11 17.6031V19C11 19.5531 10.5531 20 10 20H8.5C7.94688 20 7.5 19.5531 7.5 19V17.6844ZM16.5 17.6L16.7312 17.7531C17.0312 17.9531 17.4125 17.975 17.7344 17.8156L18.25 17.5562L18.8031 17.8313C19.0844 17.9719 19.4156 17.9719 19.6969 17.8313L20 17.6812V19C20 19.5531 19.5531 20 19 20H17.5C16.9469 20 16.5 19.5531 16.5 19V17.6ZM10.25 8.5C10.25 8.40151 10.2306 8.30398 10.1929 8.21299C10.1552 8.12199 10.1 8.03931 10.0303 7.96967C9.96069 7.90003 9.87801 7.84478 9.78701 7.80709C9.69602 7.7694 9.59849 7.75 9.5 7.75C9.40151 7.75 9.30398 7.7694 9.21299 7.80709C9.12199 7.84478 9.03931 7.90003 8.96967 7.96967C8.90003 8.03931 8.84478 8.12199 8.80709 8.21299C8.7694 8.30398 8.75 8.40151 8.75 8.5C8.75 8.59849 8.7694 8.69602 8.80709 8.78701C8.84478 8.87801 8.90003 8.96069 8.96967 9.03033C9.03931 9.09997 9.12199 9.15522 9.21299 9.19291C9.30398 9.2306 9.40151 9.25 9.5 9.25C9.59849 9.25 9.69602 9.2306 9.78701 9.19291C9.87801 9.15522 9.96069 9.09997 10.0303 9.03033C10.1 8.96069 10.1552 8.87801 10.1929 8.78701C10.2306 8.69602 10.25 8.59849 10.25 8.5Z" fill="black"/>
</svg>
