<svg width="24" height="24" viewBox="0 0 24 24" fill="none" xmlns="http://www.w3.org/2000/svg">
<path d="M5.64062 6.23192C5.34375 5.98504 4.92813 5.92879 4.575 6.09442C4.22188 6.26004 4 6.61317 4 7.00067V17.0007C4 17.3882 4.225 17.7413 4.575 17.9069C4.925 18.0725 5.34063 18.0194 5.64062 17.7694L11.6406 12.7694C11.8688 12.5788 12 12.2975 12 12.0007C12 11.7038 11.8688 11.4225 11.6406 11.2319L5.64062 6.23192ZM16 7.00067C16 6.44754 15.5531 6.00067 15 6.00067C14.4469 6.00067 14 6.44754 14 7.00067V17.0007C14 17.5538 14.4469 18.0007 15 18.0007C15.5531 18.0007 16 17.5538 16 17.0007V7.00067ZM20 7.00067C20 6.44754 19.5531 6.00067 19 6.00067C18.4469 6.00067 18 6.44754 18 7.00067V17.0007C18 17.5538 18.4469 18.0007 19 18.0007C19.5531 18.0007 20 17.5538 20 17.0007V7.00067Z" fill="black"/>
</svg>
