<svg width="24" height="24" viewBox="0 0 24 24" fill="none" xmlns="http://www.w3.org/2000/svg">
<path d="M17.7062 7.70627C18.0969 7.31565 18.0969 6.68127 17.7062 6.29065C17.3156 5.90002 16.6812 5.90002 16.2906 6.29065L6.29062 16.2906C5.89999 16.6813 5.89999 17.3156 6.29062 17.7063C6.68124 18.0969 7.31562 18.0969 7.70624 17.7063L17.7062 7.70627ZM9.99999 8.00002C9.99999 7.46959 9.78928 6.96088 9.41421 6.58581C9.03913 6.21074 8.53043 6.00002 7.99999 6.00002C7.46956 6.00002 6.96085 6.21074 6.58578 6.58581C6.21071 6.96088 5.99999 7.46959 5.99999 8.00002C5.99999 8.53046 6.21071 9.03917 6.58578 9.41424C6.96085 9.78931 7.46956 10 7.99999 10C8.53043 10 9.03913 9.78931 9.41421 9.41424C9.78928 9.03917 9.99999 8.53046 9.99999 8.00002ZM18 16C18 15.4696 17.7893 14.9609 17.4142 14.5858C17.0391 14.2107 16.5304 14 16 14C15.4696 14 14.9609 14.2107 14.5858 14.5858C14.2107 14.9609 14 15.4696 14 16C14 16.5305 14.2107 17.0392 14.5858 17.4142C14.9609 17.7893 15.4696 18 16 18C16.5304 18 17.0391 17.7893 17.4142 17.4142C17.7893 17.0392 18 16.5305 18 16Z" fill="black"/>
</svg>
