<svg width="24" height="24" viewBox="0 0 24 24" fill="none" xmlns="http://www.w3.org/2000/svg">
<path d="M4.58447 4.58398C5.36572 3.80273 6.63135 3.80273 7.4126 4.58398L7.9376 5.10586C9.12822 4.40273 10.5157 3.99961 12.0001 3.99961C13.4845 3.99961 14.872 4.40273 16.0626 5.10586L16.5845 4.58398C17.3657 3.80273 18.6313 3.80273 19.4126 4.58398C20.1938 5.36523 20.1938 6.63086 19.4126 7.41211L18.8938 7.93711C19.597 9.12773 20.0001 10.5184 20.0001 11.9996C20.0001 13.4809 19.597 14.8715 18.8938 16.0621L19.4157 16.584C20.197 17.3652 20.197 18.6309 19.4157 19.4121C18.6345 20.1934 17.3688 20.1934 16.5876 19.4121L16.0626 18.8934C14.872 19.5965 13.4845 19.9996 12.0001 19.9996C10.5157 19.9996 9.12822 19.5965 7.9376 18.8934L7.41572 19.4152C6.63447 20.1965 5.36885 20.1965 4.5876 19.4152C3.80635 18.634 3.80635 17.3684 4.5876 16.5871L5.10635 16.0621C4.40322 14.8715 4.0001 13.484 4.0001 11.9996C4.0001 10.5152 4.40322 9.12773 5.10635 7.93711L4.58447 7.41523C3.80322 6.63398 3.80322 5.36836 4.58447 4.58711V4.58398ZM6.0001 6.49961C6.13271 6.49961 6.25988 6.44693 6.35365 6.35316C6.44742 6.25939 6.5001 6.13222 6.5001 5.99961C6.5001 5.867 6.44742 5.73982 6.35365 5.64606C6.25988 5.55229 6.13271 5.49961 6.0001 5.49961C5.86749 5.49961 5.74031 5.55229 5.64654 5.64606C5.55278 5.73982 5.5001 5.867 5.5001 5.99961C5.5001 6.13222 5.55278 6.25939 5.64654 6.35316C5.74031 6.44693 5.86749 6.49961 6.0001 6.49961ZM12.0001 16.9996C13.3262 16.9996 14.5979 16.4728 15.5356 15.5351C16.4733 14.5975 17.0001 13.3257 17.0001 11.9996C17.0001 10.6735 16.4733 9.40176 15.5356 8.46408C14.5979 7.52639 13.3262 6.99961 12.0001 6.99961C10.674 6.99961 9.40225 7.52639 8.46456 8.46408C7.52688 9.40176 7.0001 10.6735 7.0001 11.9996C7.0001 13.3257 7.52688 14.5975 8.46456 15.5351C9.40225 16.4728 10.674 16.9996 12.0001 16.9996ZM6.5001 17.9996C6.5001 17.867 6.44742 17.7398 6.35365 17.6461C6.25988 17.5523 6.13271 17.4996 6.0001 17.4996C5.86749 17.4996 5.74031 17.5523 5.64654 17.6461C5.55278 17.7398 5.5001 17.867 5.5001 17.9996C5.5001 18.1322 5.55278 18.2594 5.64654 18.3532C5.74031 18.4469 5.86749 18.4996 6.0001 18.4996C6.13271 18.4996 6.25988 18.4469 6.35365 18.3532C6.44742 18.2594 6.5001 18.1322 6.5001 17.9996ZM18.0001 6.49961C18.1327 6.49961 18.2599 6.44693 18.3537 6.35316C18.4474 6.25939 18.5001 6.13222 18.5001 5.99961C18.5001 5.867 18.4474 5.73982 18.3537 5.64606C18.2599 5.55229 18.1327 5.49961 18.0001 5.49961C17.8675 5.49961 17.7403 5.55229 17.6465 5.64606C17.5528 5.73982 17.5001 5.867 17.5001 5.99961C17.5001 6.13222 17.5528 6.25939 17.6465 6.35316C17.7403 6.44693 17.8675 6.49961 18.0001 6.49961ZM18.5001 17.9996C18.5001 17.867 18.4474 17.7398 18.3537 17.6461C18.2599 17.5523 18.1327 17.4996 18.0001 17.4996C17.8675 17.4996 17.7403 17.5523 17.6465 17.6461C17.5528 17.7398 17.5001 17.867 17.5001 17.9996C17.5001 18.1322 17.5528 18.2594 17.6465 18.3532C17.7403 18.4469 17.8675 18.4996 18.0001 18.4996C18.1327 18.4996 18.2599 18.4469 18.3537 18.3532C18.4474 18.2594 18.5001 18.1322 18.5001 17.9996Z" fill="black"/>
</svg>
