<svg width="24" height="24" viewBox="0 0 24 24" fill="none" xmlns="http://www.w3.org/2000/svg">
<path d="M9.30313 4.02819C8.59063 3.97819 7.99375 4.46569 7.81875 5.11256L7.45 6.50006C7.46563 6.50006 7.48438 6.50006 7.5 6.50006C13.0219 6.50006 17.5 10.9782 17.5 16.5001C17.5 16.5157 17.5 16.5344 17.5 16.5501L18.8875 16.1813C19.5375 16.0094 20.0219 15.4094 19.9719 14.6969C19.5781 8.98444 15.0156 4.42194 9.30313 4.02819ZM16.4937 16.8188C16.4969 16.7126 16.5 16.6063 16.5 16.5001C16.5 11.5282 12.4719 7.50006 7.5 7.50006C7.39375 7.50006 7.2875 7.50319 7.18125 7.50631L4.01563 19.3719C3.96875 19.5438 4.01875 19.7282 4.14375 19.8532C4.26875 19.9782 4.45313 20.0282 4.625 19.9813L16.4937 16.8188ZM9.5 10.5001C9.76522 10.5001 10.0196 10.6054 10.2071 10.793C10.3946 10.9805 10.5 11.2348 10.5 11.5001C10.5 11.7653 10.3946 12.0196 10.2071 12.2072C10.0196 12.3947 9.76522 12.5001 9.5 12.5001C9.23478 12.5001 8.98043 12.3947 8.79289 12.2072C8.60536 12.0196 8.5 11.7653 8.5 11.5001C8.5 11.2348 8.60536 10.9805 8.79289 10.793C8.98043 10.6054 9.23478 10.5001 9.5 10.5001ZM11.5 14.5001C11.5 14.2348 11.6054 13.9805 11.7929 13.793C11.9804 13.6054 12.2348 13.5001 12.5 13.5001C12.7652 13.5001 13.0196 13.6054 13.2071 13.793C13.3946 13.9805 13.5 14.2348 13.5 14.5001C13.5 14.7653 13.3946 15.0196 13.2071 15.2072C13.0196 15.3947 12.7652 15.5001 12.5 15.5001C12.2348 15.5001 11.9804 15.3947 11.7929 15.2072C11.6054 15.0196 11.5 14.7653 11.5 14.5001ZM7 16.0001C7 15.7348 7.10536 15.4805 7.29289 15.293C7.48043 15.1054 7.73478 15.0001 8 15.0001C8.26522 15.0001 8.51957 15.1054 8.70711 15.293C8.89464 15.4805 9 15.7348 9 16.0001C9 16.2653 8.89464 16.5196 8.70711 16.7072C8.51957 16.8947 8.26522 17.0001 8 17.0001C7.73478 17.0001 7.48043 16.8947 7.29289 16.7072C7.10536 16.5196 7 16.2653 7 16.0001Z" fill="black"/>
</svg>
