<svg width="24" height="24" viewBox="0 0 24 24" fill="none" xmlns="http://www.w3.org/2000/svg">
<path d="M7.99994 7C8.39776 7 8.77929 6.84196 9.0606 6.56066C9.3419 6.27936 9.49994 5.89782 9.49994 5.5C9.49994 5.10218 9.3419 4.72064 9.0606 4.43934C8.77929 4.15804 8.39776 4 7.99994 4C7.60211 4 7.22058 4.15804 6.93928 4.43934C6.65797 4.72064 6.49994 5.10218 6.49994 5.5C6.49994 5.89782 6.65797 6.27936 6.93928 6.56066C7.22058 6.84196 7.60211 7 7.99994 7ZM7.74994 19V15H8.24994V19C8.24994 19.5531 8.69681 20 9.24994 20C9.80306 20 10.2499 19.5531 10.2499 19V10H11.9999H13.9999H14.4999C15.0531 10 15.4999 9.55312 15.4999 9C15.4999 8.44688 15.0531 8 14.4999 8H13.9999V6H19.9999V12H13.9999V11H11.9999V12.5C11.9999 13.3281 12.6718 14 13.4999 14H20.4999C21.3281 14 21.9999 13.3281 21.9999 12.5V5.5C21.9999 4.67188 21.3281 4 20.4999 4H13.4999C12.6718 4 11.9999 4.67188 11.9999 5.5V8H9.59681H7.53431C6.48119 8 5.50619 8.55313 4.96244 9.45625L3.14056 12.4875C2.85619 12.9594 3.00931 13.575 3.48119 13.8594C3.95306 14.1438 4.56869 13.9906 4.85306 13.5188L5.74994 12.0281V19C5.74994 19.5531 6.19681 20 6.74994 20C7.30306 20 7.74994 19.5531 7.74994 19Z" fill="black"/>
</svg>
