<svg width="24" height="24" viewBox="0 0 24 24" fill="none" xmlns="http://www.w3.org/2000/svg">
<path d="M13.5 5.5C13.5 5.30302 13.4612 5.10796 13.3858 4.92597C13.3104 4.74399 13.1999 4.57863 13.0607 4.43934C12.9214 4.30005 12.756 4.18956 12.574 4.11418C12.392 4.0388 12.197 4 12 4C11.803 4 11.608 4.0388 11.426 4.11418C11.244 4.18956 11.0786 4.30005 10.9393 4.43934C10.8001 4.57863 10.6896 4.74399 10.6142 4.92597C10.5388 5.10796 10.5 5.30302 10.5 5.5C10.5 5.69698 10.5388 5.89204 10.6142 6.07403C10.6896 6.25601 10.8001 6.42137 10.9393 6.56066C11.0786 6.69995 11.244 6.81044 11.426 6.88582C11.608 6.9612 11.803 7 12 7C12.197 7 12.392 6.9612 12.574 6.88582C12.756 6.81044 12.9214 6.69995 13.0607 6.56066C13.1999 6.42137 13.3104 6.25601 13.3858 6.07403C13.4612 5.89204 13.5 5.69698 13.5 5.5ZM13.25 11.3531L14.7312 13.1375C15.0844 13.5625 15.7156 13.6219 16.1406 13.2688C16.5656 12.9156 16.625 12.2844 16.2719 11.8594L13.9688 9.08125C13.4 8.39375 12.5531 7.99688 11.6594 7.99688H10.5344C9.48125 7.99688 8.50625 8.55 7.9625 9.45312L6.14063 12.4844C5.85625 12.9563 6.00938 13.5719 6.48125 13.8562C6.95313 14.1406 7.56875 13.9875 7.85313 13.5156L8.75 12.0281V19C8.75 19.5531 9.19688 20 9.75 20C10.3031 20 10.75 19.5531 10.75 19V15H11.25V19C11.25 19.5531 11.6969 20 12.25 20C12.8031 20 13.25 19.5531 13.25 19V11.3531ZM16 15.75C16 15.6125 16.1125 15.5 16.25 15.5C16.3875 15.5 16.5 15.6125 16.5 15.75V19.25C16.5 19.6656 16.8344 20 17.25 20C17.6656 20 18 19.6656 18 19.25V15.75C18 14.7844 17.2156 14 16.25 14C15.2844 14 14.5 14.7844 14.5 15.75V16C14.5 16.4156 14.8344 16.75 15.25 16.75C15.6656 16.75 16 16.4156 16 16V15.75Z" fill="black"/>
</svg>
