<svg width="24" height="24" viewBox="0 0 24 24" fill="none" xmlns="http://www.w3.org/2000/svg">
<path d="M10.5 8C10.8978 8 11.2794 7.84196 11.5607 7.56066C11.842 7.27936 12 6.89782 12 6.5C12 6.10218 11.842 5.72064 11.5607 5.43934C11.2794 5.15804 10.8978 5 10.5 5C10.1022 5 9.72064 5.15804 9.43934 5.43934C9.15804 5.72064 9 6.10218 9 6.5C9 6.89782 9.15804 7.27936 9.43934 7.56066C9.72064 7.84196 10.1022 8 10.5 8ZM12 13V12H14C14.5531 12 15 11.5531 15 11C15 10.4469 14.5531 10 14 10H11.9156C11.7094 9.41875 11.1531 9 10.5 9C9.67188 9 9 9.67188 9 10.5V13C9 14.1031 9.89687 15 11 15H13.675C13.9281 15 14.1406 15.1875 14.1719 15.4375L14.5063 18.125C14.5688 18.625 14.9937 19 15.5 19H17C17.5531 19 18 18.5531 18 18C18 17.4469 17.5531 17 17 17H16.3813L16.1562 15.1906C16 13.9406 14.9375 13 13.675 13H12ZM8 9C8 8.44688 7.55313 8 7 8C6.44687 8 6 8.44688 6 9V14C6 16.2094 7.79063 18 10 18H12C12.5531 18 13 17.5531 13 17C13 16.4469 12.5531 16 12 16H10C8.89687 16 8 15.1031 8 14V9Z" fill="black"/>
</svg>
