<svg width="24" height="24" viewBox="0 0 24 24" fill="none" xmlns="http://www.w3.org/2000/svg">
<path d="M3.21243 4.15937C2.88743 3.90312 2.41556 3.96249 2.15931 4.28749C1.90306 4.61249 1.96243 5.08437 2.28743 5.34062L20.7874 19.8406C21.1124 20.0969 21.5843 20.0375 21.8406 19.7125C22.0968 19.3875 22.0374 18.9156 21.7124 18.6594L16.0718 14.2375L16.9562 11.2875L17.0437 11L12.9999 6.95624L12.7124 7.04374L8.50306 8.30624L3.21243 4.15937ZM4.11868 17.9312C3.99993 18.2844 4.08743 18.6781 4.34681 18.9437L9.14681 14.1469C9.05306 13.95 8.99993 13.7312 8.99993 13.5C8.99993 13.2062 9.08431 12.9312 9.23118 12.6969L6.57493 10.6031L4.11868 17.9312ZM14.6531 16.9687L11.5749 14.5437C11.3031 14.825 10.9218 15 10.4999 15C10.2687 15 10.0499 14.9469 9.85306 14.8531L5.05306 19.6531C5.32181 19.9125 5.71243 20.0031 6.06556 19.8812L14.3249 17.1125C14.4374 17.075 14.5468 17.025 14.6531 16.9687ZM15.5124 4.57187L13.7718 6.31562L17.6843 10.2281L19.4249 8.48749C20.1093 7.80312 20.1093 6.69687 19.4249 6.01249L17.9874 4.57187C17.3031 3.88749 16.1968 3.88749 15.5124 4.57187Z" fill="black"/>
</svg>
