<svg width="24" height="24" viewBox="0 0 24 24" fill="none" xmlns="http://www.w3.org/2000/svg">
<path d="M18.5 4H17C9.81875 4 4 9.81875 4 17V18.5C4 19.3281 4.67188 20 5.5 20H7C14.1813 20 20 14.1813 20 7V5.5C20 4.67188 19.3281 4 18.5 4ZM12 10.25C12.4641 10.25 12.9092 10.4344 13.2374 10.7626C13.5656 11.0908 13.75 11.5359 13.75 12C13.75 12.4641 13.5656 12.9092 13.2374 13.2374C12.9092 13.5656 12.4641 13.75 12 13.75C11.5359 13.75 11.0908 13.5656 10.7626 13.2374C10.4344 12.9092 10.25 12.4641 10.25 12C10.25 11.5359 10.4344 11.0908 10.7626 10.7626C11.0908 10.4344 11.5359 10.25 12 10.25ZM6.75 15.5C6.75 15.2702 6.79527 15.0426 6.88321 14.8303C6.97116 14.618 7.10006 14.4251 7.26256 14.2626C7.42507 14.1001 7.61798 13.9712 7.8303 13.8832C8.04262 13.7953 8.27019 13.75 8.5 13.75C8.72981 13.75 8.95738 13.7953 9.1697 13.8832C9.38202 13.9712 9.57493 14.1001 9.73744 14.2626C9.89994 14.4251 10.0288 14.618 10.1168 14.8303C10.2047 15.0426 10.25 15.2702 10.25 15.5C10.25 15.7298 10.2047 15.9574 10.1168 16.1697C10.0288 16.382 9.89994 16.5749 9.73744 16.7374C9.57493 16.8999 9.38202 17.0288 9.1697 17.1168C8.95738 17.2047 8.72981 17.25 8.5 17.25C8.27019 17.25 8.04262 17.2047 7.8303 17.1168C7.61798 17.0288 7.42507 16.8999 7.26256 16.7374C7.10006 16.5749 6.97116 16.382 6.88321 16.1697C6.79527 15.9574 6.75 15.7298 6.75 15.5ZM15.5 6.75C15.7298 6.75 15.9574 6.79527 16.1697 6.88321C16.382 6.97116 16.5749 7.10006 16.7374 7.26256C16.8999 7.42507 17.0288 7.61798 17.1168 7.8303C17.2047 8.04262 17.25 8.27019 17.25 8.5C17.25 8.72981 17.2047 8.95738 17.1168 9.1697C17.0288 9.38202 16.8999 9.57493 16.7374 9.73744C16.5749 9.89994 16.382 10.0288 16.1697 10.1168C15.9574 10.2047 15.7298 10.25 15.5 10.25C15.2702 10.25 15.0426 10.2047 14.8303 10.1168C14.618 10.0288 14.4251 9.89994 14.2626 9.73744C14.1001 9.57493 13.9712 9.38202 13.8832 9.1697C13.7953 8.95738 13.75 8.72981 13.75 8.5C13.75 8.27019 13.7953 8.04262 13.8832 7.8303C13.9712 7.61798 14.1001 7.42507 14.2626 7.26256C14.4251 7.10006 14.618 6.97116 14.8303 6.88321C15.0426 6.79527 15.2702 6.75 15.5 6.75Z" fill="black"/>
</svg>
