<svg width="24" height="24" viewBox="0 0 24 24" fill="none" xmlns="http://www.w3.org/2000/svg">
<path d="M9.00018 5V8H13.0002V7H14.8783C15.0096 7 15.1377 7.05312 15.2314 7.14687L16.2908 8.20625C16.6814 8.59688 17.3158 8.59688 17.7064 8.20625C18.0971 7.81563 18.0971 7.18125 17.7064 6.79063L16.6471 5.73125C16.1783 5.2625 15.5408 5 14.8783 5H13.0002C13.0002 4.44687 12.5533 4 12.0002 4H10.0002C9.44705 4 9.00018 4.44687 9.00018 5ZM8.66893 9C7.6283 9 6.76268 9.79687 6.67518 10.8344L6.09393 17.8344C5.99705 19 6.9158 20 8.08768 20H13.9127C15.0814 20 16.0033 19 15.9064 17.8344L15.3221 10.8344C15.2346 9.79687 14.3689 9 13.3283 9H8.66893ZM11.7502 12.75V13.75H12.7502C13.1658 13.75 13.5002 14.0844 13.5002 14.5C13.5002 14.9156 13.1658 15.25 12.7502 15.25H11.7502V16.25C11.7502 16.6656 11.4158 17 11.0002 17C10.5846 17 10.2502 16.6656 10.2502 16.25V15.25H9.25018C8.83455 15.25 8.50018 14.9156 8.50018 14.5C8.50018 14.0844 8.83455 13.75 9.25018 13.75H10.2502V12.75C10.2502 12.3344 10.5846 12 11.0002 12C11.4158 12 11.7502 12.3344 11.7502 12.75Z" fill="black"/>
</svg>
