<svg width="24" height="24" viewBox="0 0 24 24" fill="none" xmlns="http://www.w3.org/2000/svg">
<path d="M18.8532 4.35313C18.6282 4.12813 18.3188 4 18.0001 4C17.6813 4 17.372 4.12813 17.147 4.35313L16.2063 5.29375L18.7063 7.79375L19.647 6.85313C19.872 6.62813 20.0001 6.31875 20.0001 6C20.0001 5.68125 19.872 5.37188 19.647 5.14688L18.8532 4.35313ZM11.572 6.7375C11.6688 6.64062 11.8282 6.64062 11.9251 6.7375L12.8438 7.65625L6.2751 14.225C6.09385 14.4063 5.9626 14.6281 5.89385 14.875L5.0251 17.9156L4.21885 18.7188C3.9251 19.0125 3.9251 19.4875 4.21885 19.7781C4.5126 20.0687 4.9876 20.0719 5.27822 19.7781L6.08135 18.975L9.1251 18.1062C9.36885 18.0375 9.59385 17.9063 9.7751 17.725L17.647 9.85313C17.872 9.62813 18.0001 9.31875 18.0001 9C18.0001 8.68125 17.872 8.37187 17.647 8.14687L15.8532 6.35313C15.6282 6.12813 15.3188 6 15.0001 6C14.6813 6 14.372 6.12813 14.147 6.35313L13.9063 6.59375L12.9876 5.67813C12.3032 4.99375 11.197 4.99375 10.5126 5.67813L7.21885 8.96875C6.9251 9.2625 6.9251 9.7375 7.21885 10.0281C7.5126 10.3187 7.9876 10.3219 8.27822 10.0281L11.572 6.7375ZM6.78447 17.2156L7.3251 15.325L8.6751 16.675L6.78447 17.2156Z" fill="black"/>
</svg>
