<svg width="24" height="24" viewBox="0 0 24 24" fill="none" xmlns="http://www.w3.org/2000/svg">
<path d="M16 6C16 5.46957 15.7893 4.96086 15.4142 4.58579C15.0391 4.21071 14.5304 4 14 4C13.4696 4 12.9609 4.21071 12.5858 4.58579C12.2107 4.96086 12 5.46957 12 6C12 6.53043 12.2107 7.03914 12.5858 7.41421C12.9609 7.78929 13.4696 8 14 8C14.5304 8 15.0391 7.78929 15.4142 7.41421C15.7893 7.03914 16 6.53043 16 6ZM12.2719 12.25L12.9875 13.2344C13.1906 13.5125 13.4969 13.6938 13.8375 13.7375C14.1781 13.7813 14.5219 13.6844 14.7875 13.4656L17.5375 11.2156C18.0719 10.7781 18.15 9.99063 17.7125 9.45625C17.275 8.92188 16.4875 8.84375 15.9531 9.28125L14.2281 10.6937L13.4094 9.56875C12.925 8.89687 12.1438 8.5 11.3125 8.5C10.3469 8.5 9.4625 9.03437 9.0125 9.8875L7.49375 12.7781C6.8625 13.9812 7.2 15.4625 8.29375 16.2719L9.95625 17.5H7.25C6.55937 17.5 6 18.0594 6 18.75C6 19.4406 6.55937 20 7.25 20H13.75C14.2906 20 14.7687 19.6531 14.9375 19.1406C15.1063 18.6281 14.9281 18.0656 14.4937 17.7437L10.8656 15.0625L12.2719 12.25Z" fill="black"/>
</svg>
