<svg width="24" height="24" viewBox="0 0 24 24" fill="none" xmlns="http://www.w3.org/2000/svg">
<path d="M18.7375 4.67814C18.0531 3.99376 16.9469 3.99376 16.2625 4.67814L15.3219 5.61564L18.3813 8.67501L19.3219 7.73439C20.0062 7.05001 20.0062 5.94376 19.3219 5.25939L18.7375 4.67814ZM9.3875 11.5531C9.19687 11.7438 9.05 11.9781 8.96562 12.2375L8.04063 15.0125C7.95 15.2813 8.02188 15.5781 8.22188 15.7813C8.42188 15.9844 8.71875 16.0531 8.99062 15.9625L11.7656 15.0375C12.0219 14.9531 12.2562 14.8063 12.45 14.6156L17.6781 9.38439L14.6156 6.32189L9.3875 11.5531ZM7 6.00001C5.34375 6.00001 4 7.34376 4 9.00001V17C4 18.6563 5.34375 20 7 20H15C16.6562 20 18 18.6563 18 17V14C18 13.4469 17.5531 13 17 13C16.4469 13 16 13.4469 16 14V17C16 17.5531 15.5531 18 15 18H7C6.44687 18 6 17.5531 6 17V9.00001C6 8.44689 6.44687 8.00001 7 8.00001H10C10.5531 8.00001 11 7.55314 11 7.00001C11 6.44689 10.5531 6.00001 10 6.00001H7Z" fill="black"/>
</svg>
