<svg width="24" height="24" viewBox="0 0 24 24" fill="none" xmlns="http://www.w3.org/2000/svg">
<path d="M5.98755 4.51249L10.0719 8.59686L7.59692 11.0719L3.51255 6.98749C2.82817 6.30311 2.82817 5.19686 3.51255 4.51249C4.19692 3.82811 5.30317 3.82811 5.98755 4.51249ZM15.5 20C13.825 20 12.4219 18.8219 12.0813 17.2469L16.2469 13.0812C17.8188 13.425 19 14.825 19 16.5C19 16.6219 18.9938 16.7437 18.9813 16.8625C18.925 17.4094 19.3 18 19.85 18H20C20.5532 18 21 18.4469 21 19C21 19.5531 20.5532 20 20 20H15.5ZM18.6657 4.60311L19.3969 5.33436C20.1782 6.11561 20.1782 7.38124 19.3969 8.16249L17.6344 9.92499L14.0719 6.36561L15.8344 4.60311C16.6157 3.82186 17.8813 3.82186 18.6625 4.60311H18.6657ZM5.40317 15.0375L13.3657 7.07186L16.9282 10.6344L8.96255 18.5969C8.75317 18.8062 8.49067 18.9594 8.2063 19.0406L4.9563 19.9687C4.6938 20.0437 4.41255 19.9719 4.2188 19.7781C4.02505 19.5844 3.95317 19.3031 4.02817 19.0406L4.9563 15.7906C5.03755 15.5031 5.19067 15.2437 5.40005 15.0344L5.40317 15.0375Z" fill="black"/>
</svg>
