<svg width="24" height="24" viewBox="0 0 24 24" fill="none" xmlns="http://www.w3.org/2000/svg">
<path d="M12 4C12.275 4 12.5 4.225 12.5 4.5V5H15C15.5531 5 16 5.44687 16 6C16.5531 6 17 6.44688 17 7V18.5H17.25C17.6656 18.5 18 18.8344 18 19.25C18 19.6656 17.6656 20 17.25 20H6.75C6.33437 20 6 19.6656 6 19.25C6 18.8344 6.33437 18.5 6.75 18.5H7V7C7 6.44688 7.44687 6 8 6C8 5.44687 8.44688 5 9 5H11.5V4.5C11.5 4.225 11.725 4 12 4ZM9 8.25V9H10V8H9.25C9.1125 8 9 8.1125 9 8.25ZM9 9.5V10.25C9 10.3875 9.1125 10.5 9.25 10.5H10V9.5H9ZM11.25 8H10.5V9H11.5V8.25C11.5 8.1125 11.3875 8 11.25 8ZM10.5 9.5V10.5H11.25C11.3875 10.5 11.5 10.3875 11.5 10.25V9.5H10.5ZM12.75 8C12.6125 8 12.5 8.1125 12.5 8.25V9H13.5V8H12.75ZM13.5 9.5H12.5V10.25C12.5 10.3875 12.6125 10.5 12.75 10.5H13.5V9.5ZM14 8V9H15V8.25C15 8.1125 14.8875 8 14.75 8H14ZM15 9.5H14V10.5H14.75C14.8875 10.5 15 10.3875 15 10.25V9.5ZM9 12V13.5C9 13.775 9.225 14 9.5 14H11C11.275 14 11.5 13.775 11.5 13.5V12C11.5 11.725 11.275 11.5 11 11.5H9.5C9.225 11.5 9 11.725 9 12Z" fill="black"/>
</svg>
