<svg width="24" height="24" viewBox="0 0 24 24" fill="none" xmlns="http://www.w3.org/2000/svg">
<path d="M8 7C8.39782 7 8.77936 6.84196 9.06066 6.56066C9.34196 6.27936 9.5 5.89782 9.5 5.5C9.5 5.10218 9.34196 4.72064 9.06066 4.43934C8.77936 4.15804 8.39782 4 8 4C7.60218 4 7.22064 4.15804 6.93934 4.43934C6.65804 4.72064 6.5 5.10218 6.5 5.5C6.5 5.89782 6.65804 6.27936 6.93934 6.56066C7.22064 6.84196 7.60218 7 8 7ZM7.75 18V15H8.25V18H7.75ZM5.75 18H3C2.44687 18 2 18.4469 2 19C2 19.5531 2.44687 20 3 20H6.75H9.25H21C21.5531 20 22 19.5531 22 19C22 18.4469 21.5531 18 21 18H10.25V12.0281L11.1438 13.5125C11.4281 13.9844 12.0437 14.1375 12.5156 13.8531C12.9875 13.5687 13.1406 12.9531 12.8562 12.4812L11.0344 9.45C10.4906 8.54687 9.51563 7.99375 8.4625 7.99375H7.53438C6.48125 7.99375 5.50625 8.54687 4.9625 9.45L3.14062 12.4812C2.85625 12.9531 3.00938 13.5687 3.48125 13.8531C3.95313 14.1375 4.56875 13.9844 4.85313 13.5125L5.75 12.0281V18ZM20.7062 7.79375L18.2062 5.29375C17.8156 4.90313 17.1812 4.90313 16.7906 5.29375L14.2906 7.79375C13.9 8.18438 13.9 8.81875 14.2906 9.20937C14.6812 9.6 15.3156 9.6 15.7063 9.20937L16.5 8.41563V16C16.5 16.5531 16.9469 17 17.5 17C18.0531 17 18.5 16.5531 18.5 16V8.41563L19.2938 9.20937C19.6844 9.6 20.3188 9.6 20.7094 9.20937C21.1 8.81875 21.1 8.18438 20.7094 7.79375H20.7062Z" fill="black"/>
</svg>
