<svg width="24" height="24" viewBox="0 0 24 24" fill="none" xmlns="http://www.w3.org/2000/svg">
<path d="M17.7063 7.70627C18.0969 7.31565 18.0969 6.68127 17.7063 6.29065C17.3156 5.90002 16.6813 5.90002 16.2906 6.29065L6.29065 16.2906C5.90002 16.6813 5.90002 17.3156 6.29065 17.7063C6.68127 18.0969 7.31565 18.0969 7.70627 17.7063L17.7063 7.70627ZM10 8.00002C10 7.46959 9.78931 6.96088 9.41424 6.58581C9.03917 6.21074 8.53046 6.00002 8.00002 6.00002C7.46959 6.00002 6.96088 6.21074 6.58581 6.58581C6.21074 6.96088 6.00002 7.46959 6.00002 8.00002C6.00002 8.53046 6.21074 9.03917 6.58581 9.41424C6.96088 9.78931 7.46959 10 8.00002 10C8.53046 10 9.03917 9.78931 9.41424 9.41424C9.78931 9.03917 10 8.53046 10 8.00002ZM18 16C18 15.4696 17.7893 14.9609 17.4142 14.5858C17.0392 14.2107 16.5305 14 16 14C15.4696 14 14.9609 14.2107 14.5858 14.5858C14.2107 14.9609 14 15.4696 14 16C14 16.5305 14.2107 17.0392 14.5858 17.4142C14.9609 17.7893 15.4696 18 16 18C16.5305 18 17.0392 17.7893 17.4142 17.4142C17.7893 17.0392 18 16.5305 18 16Z" fill="black"/>
</svg>
