<svg width="24" height="24" viewBox="0 0 24 24" fill="none" xmlns="http://www.w3.org/2000/svg">
<path d="M18.7375 4.67808C18.0531 3.9937 16.9469 3.9937 16.2625 4.67808L15.3219 5.61558L18.3813 8.67495L19.3219 7.73433C20.0063 7.04995 20.0063 5.9437 19.3219 5.25933L18.7375 4.67808ZM9.3875 11.5531C9.19687 11.7437 9.05 11.9781 8.96562 12.2375L8.04063 15.0125C7.95 15.2812 8.02188 15.5781 8.22188 15.7812C8.42188 15.9843 8.71875 16.0531 8.99062 15.9625L11.7656 15.0375C12.0219 14.9531 12.2562 14.8062 12.45 14.6156L17.6781 9.38433L14.6156 6.32183L9.3875 11.5531ZM7 5.99995C5.34375 5.99995 4 7.3437 4 8.99995V17C4 18.6562 5.34375 20 7 20H15C16.6562 20 18 18.6562 18 17V14C18 13.4468 17.5531 13 17 13C16.4469 13 16 13.4468 16 14V17C16 17.5531 15.5531 18 15 18H7C6.44688 18 6 17.5531 6 17V8.99995C6 8.44683 6.44688 7.99995 7 7.99995H10C10.5531 7.99995 11 7.55308 11 6.99995C11 6.44683 10.5531 5.99995 10 5.99995H7Z" fill="black"/>
</svg>
