<svg width="24" height="24" viewBox="0 0 24 24" fill="none" xmlns="http://www.w3.org/2000/svg">
<path d="M3.21249 4.15939C2.88749 3.90314 2.41562 3.96251 2.15937 4.28751C1.90312 4.61251 1.96249 5.08439 2.28749 5.34064L20.7875 19.8406C21.1125 20.0969 21.5844 20.0375 21.8406 19.7125C22.0969 19.3875 22.0375 18.9156 21.7125 18.6594L14.1219 12.7094L19.1531 8.32814C19.6906 7.85939 20 7.18126 20 6.46564C20 5.10314 18.8937 3.99689 17.5312 3.99689C16.8187 3.99689 16.1375 4.30626 15.6687 4.84376L10.9719 10.2406L3.21249 4.15939ZM11.9375 14.8281L8.59374 12.1969L6.71562 12.6313C6.18124 12.7531 5.75624 13.1594 5.60937 13.6875L4.05312 19.2375L7.03437 16.2563C7.01249 16.175 6.99999 16.0875 6.99999 15.9969C6.99999 15.4438 7.44687 14.9969 7.99999 14.9969C8.55312 14.9969 8.99999 15.4438 8.99999 15.9969C8.99999 16.55 8.55312 16.9969 7.99999 16.9969C7.90937 16.9969 7.82499 16.9844 7.74062 16.9625L4.76249 19.9469L10.3125 18.3906C10.8406 18.2438 11.2469 17.8188 11.3687 17.2844L11.9375 14.8281Z" fill="black"/>
</svg>
