<svg width="24" height="24" viewBox="0 0 24 24" fill="none" xmlns="http://www.w3.org/2000/svg">
<path d="M8.81875 15C8.9375 14.075 9 13.0594 9 12C9 11.4281 8.98125 10.8719 8.94688 10.3313C9.33438 10.5906 9.86562 10.55 10.2094 10.2063L10.9313 9.48438C11.2406 9.175 11.6625 9 12.1031 9C12.1625 9 12.2219 9.00313 12.2781 9.00938L11.3 11.9375C11.0094 12.8125 11.3531 13.775 12.1375 14.2656L14.8313 15.95L14.0375 18.725C13.8844 19.2563 14.1938 19.8094 14.725 19.9625C15.2563 20.1156 15.8094 19.8062 15.9625 19.275L16.8594 16.1375C17.0438 15.4937 16.7781 14.8063 16.2125 14.4531L14.4375 13.3438L15.4031 10.7688L15.5625 11.1531C16.0312 12.2719 17.1219 13 18.3344 13H19C19.5531 13 20 12.5531 20 12C20 11.4469 19.5531 11 19 11H18.3344C17.9313 11 17.5656 10.7563 17.4125 10.3844L17.2156 9.91563C16.7594 8.81875 15.8375 7.98125 14.7 7.63125L13.1781 7.1625C12.8313 7.05625 12.4687 7 12.1031 7C11.1344 7 10.2031 7.38438 9.51875 8.07188L8.79688 8.79375C8.79688 8.79375 8.79687 8.79375 8.79375 8.79688C8.40625 5.97187 7.525 4 6.5 4C5.11875 4 4 7.58125 4 12C4 16.4187 5.11875 20 6.5 20C7.29062 20 7.99375 18.8281 8.45312 17H10.175C10.7688 17 11.3063 16.65 11.5469 16.1094L11.9062 15.3L11.6094 15.1125C11.0625 14.7719 10.6563 14.275 10.425 13.7094L9.85 15H8.81875ZM15.5 7C15.8978 7 16.2794 6.84196 16.5607 6.56066C16.842 6.27936 17 5.89782 17 5.5C17 5.10218 16.842 4.72064 16.5607 4.43934C16.2794 4.15804 15.8978 4 15.5 4C15.1022 4 14.7206 4.15804 14.4393 4.43934C14.158 4.72064 14 5.10218 14 5.5C14 5.89782 14.158 6.27936 14.4393 6.56066C14.7206 6.84196 15.1022 7 15.5 7Z" fill="black"/>
</svg>
