<svg width="24" height="24" viewBox="0 0 24 24" fill="none" xmlns="http://www.w3.org/2000/svg">
<path d="M13 4C13.5531 4 14 4.44687 14 5V5.30625C14 7.0125 13.1281 8.575 11.7344 9.48125L11.7406 9.49062L13.5156 12H16.25C16.7219 12 17.1656 12.2219 17.45 12.6L18.8 14.4C19.1313 14.8406 19.0406 15.4688 18.6 15.8C18.1594 16.1313 17.5312 16.0406 17.2 15.6L16 14H13H12.9563L15.8406 18.4563C16.1406 18.9188 16.0094 19.5375 15.5437 19.8406C15.0781 20.1437 14.4625 20.0094 14.1594 19.5437L9.14062 11.7875C9.05 12.075 9 12.3813 9 12.6938V15C9 15.5531 8.55313 16 8 16C7.44687 16 7 15.5531 7 15V12.6938C7 10.6594 8.2375 8.82813 10.1281 8.07188C11.2594 7.61875 12 6.525 12 5.30625V5C12 4.44687 12.4469 4 13 4ZM7.5 5C7.89782 5 8.27936 5.15804 8.56066 5.43934C8.84196 5.72064 9 6.10218 9 6.5C9 6.89782 8.84196 7.27936 8.56066 7.56066C8.27936 7.84196 7.89782 8 7.5 8C7.10218 8 6.72064 7.84196 6.43934 7.56066C6.15804 7.27936 6 6.89782 6 6.5C6 6.10218 6.15804 5.72064 6.43934 5.43934C6.72064 5.15804 7.10218 5 7.5 5Z" fill="black"/>
</svg>
