<svg width="24" height="24" viewBox="0 0 24 24" fill="none" xmlns="http://www.w3.org/2000/svg">
<path d="M9.24997 4.0001C9.55309 4.0001 9.82809 4.18135 9.94372 4.4626C10.0593 4.74385 9.99684 5.06572 9.78122 5.28135L8.56247 6.5001L10.3968 8.33447C10.8218 8.7626 11.4 9.0001 12 9.0001C12.6 9.0001 13.1781 8.7626 13.6031 8.33447L17.7187 4.21885C18.0125 3.9251 18.4875 3.9251 18.7781 4.21885C19.0687 4.5126 19.0718 4.9876 18.7781 5.27822L14.6656 9.39697C13.9562 10.1032 13 10.5001 12 10.5001C11 10.5001 10.0437 10.1032 9.33434 9.39697L7.49997 7.55947L6.28122 8.77822C6.0656 8.99385 5.74372 9.05635 5.46247 8.94072C5.18122 8.8251 4.99997 8.5501 4.99997 8.24697V4.7501C4.99997 4.33447 5.33435 4.0001 5.74997 4.0001H9.24997ZM3.60622 19.3095L2.49997 17.372C2.19685 16.8438 2.2406 16.1813 2.67185 15.7563C4.26872 14.1845 7.5656 12.0001 12 12.0001C16.4343 12.0001 19.7312 14.1845 21.3281 15.7563C21.7625 16.1813 21.8031 16.8438 21.5 17.372L20.3937 19.3095C20.1625 19.7126 19.6843 19.9063 19.2375 19.772L15.7125 18.7126C15.2906 18.5845 15 18.197 15 17.7563V16.0001C13.0531 15.3501 10.9468 15.3501 8.99997 16.0001V17.7563C8.99997 18.197 8.70934 18.5876 8.28747 18.7126L4.76247 19.772C4.3156 19.9063 3.83747 19.7157 3.60622 19.3095Z" fill="black"/>
</svg>
