<svg width="24" height="24" viewBox="0 0 24 24" fill="none" xmlns="http://www.w3.org/2000/svg">
<path d="M12 4C12.6631 4 13.299 4.26339 13.7678 4.73223C14.2366 5.20107 14.5 5.83696 14.5 6.5C14.5 7.16304 14.2366 7.79893 13.7678 8.26777C13.299 8.73661 12.6631 9 12 9C11.337 9 10.7011 8.73661 10.2323 8.26777C9.76342 7.79893 9.50003 7.16304 9.50003 6.5C9.50003 5.83696 9.76342 5.20107 10.2323 4.73223C10.7011 4.26339 11.337 4 12 4ZM18.65 15.9625L16.6719 18.4375C16.1532 19.0844 15.2094 19.1906 14.5625 18.6719C14.0125 18.2312 13.8532 17.4812 14.1407 16.8687L14.1157 16.8656C12.9 16.6906 11.7938 16.0812 11 15.1531V14C11 13.4469 10.5532 13 10 13C9.4469 13 9.00003 13.4469 9.00003 14V15.5C9.00003 15.525 9.00003 15.55 9.00315 15.575L12.1719 17.1594C12.9125 17.5313 13.2125 18.4312 12.8438 19.1719C12.475 19.9125 11.5719 20.2125 10.8313 19.8438L5.85003 17.3531C5.81565 17.3375 5.78128 17.3188 5.7469 17.3C5.59378 17.2125 5.4594 17.1 5.35315 16.9688C5.2094 16.8 5.1094 16.6031 5.05315 16.3938C4.95003 16.0188 4.99378 15.6062 5.20315 15.25C5.2219 15.2156 5.24378 15.1812 5.26565 15.15L7.36253 12.0031C8.1969 10.75 9.60315 10 11.1063 10H13.4563C14.9094 10 16.2719 10.7031 17.1188 11.8844L18.7032 14.1C18.7719 14.1938 18.8282 14.2906 18.875 14.3938C18.9657 14.6031 19.0094 14.825 19 15.0437C18.9907 15.375 18.8688 15.7 18.65 15.9625ZM15 14.375C15 14.0103 14.8552 13.6606 14.5973 13.4027C14.3394 13.1449 13.9897 13 13.625 13C13.2604 13 12.9106 13.1449 12.6528 13.4027C12.3949 13.6606 12.25 14.0103 12.25 14.375C12.25 14.7397 12.3949 15.0894 12.6528 15.3473C12.9106 15.6051 13.2604 15.75 13.625 15.75C13.9897 15.75 14.3394 15.6051 14.5973 15.3473C14.8552 15.0894 15 14.7397 15 14.375Z" fill="black"/>
</svg>
