<svg width="24" height="24" viewBox="0 0 24 24" fill="none" xmlns="http://www.w3.org/2000/svg">
<path d="M7.67188 4.04445C8.27812 3.87883 8.9125 4.1882 9.15312 4.76945L10.4031 7.76945C10.6156 8.27883 10.4687 8.86945 10.0406 9.21633L8.5 10.4788C9.54062 12.6788 11.3219 14.4601 13.5219 15.5007L14.7812 13.9601C15.1312 13.532 15.7187 13.3851 16.2281 13.5976L19.2281 14.8476C19.8094 15.0882 20.1188 15.7226 19.9531 16.3288L19.2031 19.0788C19.0563 19.6226 18.5625 20.0007 18 20.0007C10.2688 20.0007 4 13.732 4 6.0007C4 5.4382 4.37813 4.94445 4.92188 4.79445L7.67188 4.04445ZM14.4688 4.46945C14.7625 4.1757 15.2375 4.1757 15.5281 4.46945L16.9969 5.9382L18.4656 4.46945C18.7594 4.1757 19.2344 4.1757 19.525 4.46945C19.8156 4.7632 19.8187 5.2382 19.525 5.52883L18.0562 6.99758L19.525 8.46633C19.8187 8.76008 19.8187 9.23508 19.525 9.5257C19.2312 9.81633 18.7563 9.81945 18.4656 9.5257L16.9969 8.05695L15.5281 9.5257C15.2344 9.81945 14.7594 9.81945 14.4688 9.5257C14.1781 9.23195 14.175 8.75695 14.4688 8.46633L15.9375 6.99758L14.4688 5.53195C14.175 5.2382 14.175 4.7632 14.4688 4.47258V4.46945Z" fill="black"/>
</svg>
