<svg width="24" height="24" viewBox="0 0 24 24" fill="none" xmlns="http://www.w3.org/2000/svg">
<path d="M6 5C6 5.55313 6.44687 6 7 6H12C12.5531 6 13 5.55313 13 5C13 4.44687 12.5531 4 12 4H7C6.44687 4 6 4.44687 6 5ZM3 9.5C2.44687 9.5 2 9.94687 2 10.5V16C2 16.5531 2.44687 17 3 17C3.55313 17 4 16.5531 4 16V10.5C4 9.94687 3.55313 9.5 3 9.5ZM7 11H5V16H12V7H7V11ZM15.4969 7.33437L13.8906 8.40625C13.3344 8.77812 13 9.40313 13 10.0719V16.9281C13 17.5969 13.3344 18.2219 13.8906 18.5938L15.4969 19.6656C15.825 19.8844 16.2125 20 16.6062 20H20C21.1031 20 22 19.1031 22 18V9C22 7.89688 21.1031 7 20 7H16.6062C16.2125 7 15.825 7.11562 15.4969 7.33437ZM16 10.5C16 10.225 16.225 10 16.5 10H19.5C19.775 10 20 10.225 20 10.5C20 10.775 19.775 11 19.5 11H16.5C16.225 11 16 10.775 16 10.5ZM16 13.5C16 13.225 16.225 13 16.5 13H19.5C19.775 13 20 13.225 20 13.5C20 13.775 19.775 14 19.5 14H16.5C16.225 14 16 13.775 16 13.5ZM16 16.5C16 16.225 16.225 16 16.5 16H19.5C19.775 16 20 16.225 20 16.5C20 16.775 19.775 17 19.5 17H16.5C16.225 17 16 16.775 16 16.5Z" fill="black"/>
</svg>
