<svg width="24" height="24" viewBox="0 0 24 24" fill="none" xmlns="http://www.w3.org/2000/svg">
<path d="M10 4C8.90625 4 8 5.85937 8 6.92812V9.57188L2.25313 12.8562C2.09688 12.9437 2 13.1125 2 13.2906V15.3375C2 15.6687 2.31875 15.9094 2.6375 15.8188L8 14.2875V16.5031L6.2 17.8531C6.075 17.9469 6 18.0969 6 18.2531V19.5656C6 19.8094 6.19688 20.0031 6.4375 20.0031C6.47813 20.0031 6.51875 19.9969 6.55937 19.9875L10 19L13.4406 19.9844C13.4812 19.9969 13.5219 20 13.5625 20C13.75 20 13.9094 19.8844 13.9719 19.7188C12.7656 18.7094 12 17.1938 12 15.5C12 13.6062 12.9563 11.9375 14.4094 10.95L12 9.57188V6.92812C12 5.85937 11.125 4 10 4ZM22 15.5C22 14.3065 21.5259 13.1619 20.682 12.318C19.8381 11.4741 18.6935 11 17.5 11C16.3065 11 15.1619 11.4741 14.318 12.318C13.4741 13.1619 13 14.3065 13 15.5C13 16.6935 13.4741 17.8381 14.318 18.682C15.1619 19.5259 16.3065 20 17.5 20C18.6935 20 19.8381 19.5259 20.682 18.682C21.5259 17.8381 22 16.6935 22 15.5ZM19.6031 14.1469C19.7969 14.3406 19.7969 14.6594 19.6031 14.8531L17.3531 17.1031C17.1594 17.2969 16.8406 17.2969 16.6469 17.1031L15.3969 15.8531C15.2031 15.6594 15.2031 15.3406 15.3969 15.1469C15.5906 14.9531 15.9094 14.9531 16.1031 15.1469L17 16.0437L18.8969 14.1469C19.0906 13.9531 19.4094 13.9531 19.6031 14.1469Z" fill="black"/>
</svg>
