<svg width="24" height="24" viewBox="0 0 24 24" fill="none" xmlns="http://www.w3.org/2000/svg">
<path d="M5 5.5C5 5.10218 5.15804 4.72064 5.43934 4.43934C5.72064 4.15804 6.10218 4 6.5 4C6.89782 4 7.27936 4.15804 7.56066 4.43934C7.84196 4.72064 8 5.10218 8 5.5C8 5.89782 7.84196 6.27936 7.56066 6.56066C7.27936 6.84196 6.89782 7 6.5 7C6.10218 7 5.72064 6.84196 5.43934 6.56066C5.15804 6.27936 5 5.89782 5 5.5ZM7 11.5531V13.5875L8.59375 15.1812C8.81563 15.4031 8.9625 15.6875 9.0125 15.9969L9.4875 18.8375C9.57812 19.3812 9.20937 19.8969 8.66563 19.9875C8.12188 20.0781 7.60625 19.7094 7.51562 19.1656L7.06562 16.4812L4.58438 14C4.20938 13.625 4 13.1156 4 12.5844V9.83125C4 8.81875 4.81875 8 5.83125 8C6.58437 8 7.28437 8.375 7.70312 9L9.03438 11H10.475L10.2719 10.1813C10.1719 9.77813 10.4156 9.37187 10.8187 9.27187C11.2219 9.17188 11.6281 9.41563 11.7281 9.81875L13.2781 16.0188C13.8281 16.0938 14.3063 16.3937 14.6156 16.8219L18.8156 15.7719C19.2188 15.6719 19.625 15.9156 19.725 16.3188C19.825 16.7219 19.5813 17.1281 19.1781 17.2281L14.9812 18.2781C14.8469 19.25 14.0094 20 13 20C11.8969 20 11 19.1031 11 18C11 17.3344 11.325 16.7469 11.8219 16.3844L10.9781 13H8.76875C8.26875 13 7.8 12.75 7.52187 12.3313L7 11.5531ZM4 19V14.8281L6 16.8281V19C6 19.5531 5.55313 20 5 20C4.44687 20 4 19.5531 4 19ZM13 18.5C13.1326 18.5 13.2598 18.4473 13.3536 18.3536C13.4473 18.2598 13.5 18.1326 13.5 18C13.5 17.8674 13.4473 17.7402 13.3536 17.6464C13.2598 17.5527 13.1326 17.5 13 17.5C12.8674 17.5 12.7402 17.5527 12.6464 17.6464C12.5527 17.7402 12.5 17.8674 12.5 18C12.5 18.1326 12.5527 18.2598 12.6464 18.3536C12.7402 18.4473 12.8674 18.5 13 18.5ZM15.1687 15.7563C14.6344 15.8906 14.0906 15.5656 13.9563 15.0281L13.2406 12.1687C13.1063 11.6344 13.4312 11.0906 13.9688 10.9563L16.8281 10.2406C17.3625 10.1062 17.9062 10.4313 18.0406 10.9688L18.7563 13.8281C18.8906 14.3625 18.5656 14.9062 18.0281 15.0406L15.1687 15.7563Z" fill="black"/>
</svg>
