<svg width="24" height="24" viewBox="0 0 24 24" fill="none" xmlns="http://www.w3.org/2000/svg">
<path d="M11.8939 4.36577C11.6814 4.00952 11.2189 3.8939 10.8657 4.1064C10.5126 4.3189 10.3939 4.7814 10.6095 5.13452L10.9314 5.67202C11.1407 6.02202 11.2532 6.42202 11.2532 6.82827V7.1689C11.097 7.11265 10.9376 7.07202 10.7751 7.0439L10.747 7.03765C10.472 6.99077 10.1876 6.98452 9.90011 7.0189C9.77511 7.03452 9.65323 7.0564 9.52823 7.08765C7.92198 7.49077 7.19386 9.1189 7.59386 10.7251L8.75323 15.3595C8.81886 15.6283 8.65636 15.9001 8.39073 15.9658C8.12511 16.0314 7.85011 15.8689 7.78448 15.6033L6.61886 10.9689C6.25011 9.50015 6.63136 8.0189 7.59698 7.0564C7.17198 6.9689 6.72198 6.97515 6.27198 7.08765C4.66573 7.49077 3.68761 9.12202 4.09073 10.7283L5.84073 17.7283C6.24386 19.3345 7.87198 20.3126 9.47823 19.9095C9.69698 19.8564 9.90323 19.7783 10.097 19.6814C10.272 19.5939 10.4814 19.5939 10.6564 19.6814C10.7501 19.7283 10.8439 19.7689 10.9439 19.8064C11.2782 19.9314 11.6376 20.0001 12.0064 20.0001C12.3689 20.0001 12.722 19.9345 13.0532 19.8095C13.1532 19.772 13.2532 19.7283 13.347 19.6814C13.522 19.5939 13.7314 19.5939 13.9064 19.6814C14.1001 19.7783 14.3064 19.8564 14.5251 19.9095C16.1314 20.3126 17.7626 19.3345 18.1626 17.7283L19.9126 10.7283C20.3157 9.12202 19.3376 7.49077 17.7314 7.09077C17.0064 6.90952 16.2782 7.00952 15.6595 7.3189C15.4845 7.4064 15.2751 7.4064 15.1001 7.3189C14.9064 7.22202 14.7001 7.1439 14.4814 7.09077C13.8876 6.94077 13.2907 6.9814 12.7532 7.17202V6.8314C12.7532 6.15327 12.5689 5.48452 12.2189 4.90327L11.8939 4.36577Z" fill="black"/>
</svg>
