<svg width="24" height="24" viewBox="0 0 24 24" fill="none" xmlns="http://www.w3.org/2000/svg">
<path d="M3.21268 4.15898C2.88768 3.90273 2.4158 3.96211 2.15955 4.28711C1.9033 4.61211 1.96268 5.08398 2.28768 5.34023L20.7877 19.8402C21.1127 20.0965 21.5846 20.0371 21.8408 19.7121C22.0971 19.3871 22.0377 18.9152 21.7127 18.659L14.8002 13.2434L16.1158 11.9277L16.8221 11.2184L17.1752 10.8652L16.1158 9.80586L14.1752 7.86523L13.1158 6.80586L12.7627 7.15898L12.0564 7.86523L10.2502 9.67148L3.21268 4.15898ZM11.5689 10.709L13.1471 9.13086C13.3408 8.93711 13.6596 8.93711 13.8533 9.13086C14.0471 9.32461 14.0471 9.64336 13.8533 9.83711L12.3596 11.3309L11.5658 10.709H11.5689ZM8.10955 11.8121L5.83143 14.0902C5.50643 14.4152 5.26893 14.8184 5.13768 15.259L4.03143 19.0215C3.9533 19.284 4.02518 19.5684 4.22205 19.7621C4.41893 19.9559 4.70018 20.0277 4.96268 19.9527L8.72205 18.8465C9.16268 18.7152 9.5658 18.4777 9.8908 18.1527L12.6502 15.3934L10.2158 13.4746L9.3533 14.3371C9.15955 14.5309 8.8408 14.5309 8.64705 14.3371C8.4533 14.1434 8.4533 13.8246 8.64705 13.6309L9.42518 12.8527L8.10955 11.8121ZM9.00018 16.4809L8.7158 17.1902C8.5908 17.2871 8.45018 17.359 8.30018 17.4059L5.85955 18.1246L6.5783 15.684C6.62205 15.5309 6.69705 15.3902 6.79393 15.2684L7.5033 14.984V15.984C7.5033 16.259 7.7283 16.484 8.0033 16.484H9.0033L9.00018 16.4809ZM15.3346 4.58398L14.8846 5.03711L14.1783 5.74336L13.8221 6.09648L14.8814 7.15586L16.8221 9.09648L17.8814 10.1559L18.2346 9.80273L18.9408 9.09648L19.3939 8.64336C20.1752 7.86211 20.1752 6.59648 19.3939 5.81523L18.1658 4.58398C17.3846 3.80273 16.1189 3.80273 15.3377 4.58398H15.3346Z" fill="black"/>
</svg>
