<svg width="24" height="24" viewBox="0 0 24 24" fill="none" xmlns="http://www.w3.org/2000/svg">
<path d="M6 5.5C6 5.10218 5.84196 4.72064 5.56066 4.43934C5.27936 4.15804 4.89782 4 4.5 4C4.10218 4 3.72064 4.15804 3.43934 4.43934C3.15804 4.72064 3 5.10218 3 5.5C3 5.89782 3.15804 6.27936 3.43934 6.56066C3.72064 6.84196 4.10218 7 4.5 7C4.89782 7 5.27936 6.84196 5.56066 6.56066C5.84196 6.27936 6 5.89782 6 5.5ZM20 8H17V7H20V8ZM10.5 5C9.67188 5 9 5.67188 9 6.5V8.5C9 9.32812 9.67188 10 10.5 10H20.5C21.3281 10 22 9.32812 22 8.5V6.5C22 5.67188 21.3281 5 20.5 5H10.5ZM20 17H13V16H20V17ZM10.5 14C9.67188 14 9 14.6719 9 15.5V17.5C9 18.3281 9.67188 19 10.5 19H20.5C21.3281 19 22 18.3281 22 17.5V15.5C22 14.6719 21.3281 14 20.5 14H10.5ZM4 8C2.89688 8 2 8.89687 2 10C2 10.5531 2.44687 11 3 11H6C6.55312 11 7 10.5531 7 10C7 8.89687 6.10313 8 5 8H4ZM6 14.5C6 14.1022 5.84196 13.7206 5.56066 13.4393C5.27936 13.158 4.89782 13 4.5 13C4.10218 13 3.72064 13.158 3.43934 13.4393C3.15804 13.7206 3 14.1022 3 14.5C3 14.8978 3.15804 15.2794 3.43934 15.5607C3.72064 15.842 4.10218 16 4.5 16C4.89782 16 5.27936 15.842 5.56066 15.5607C5.84196 15.2794 6 14.8978 6 14.5ZM4 17C2.89688 17 2 17.8969 2 19C2 19.5531 2.44687 20 3 20H6C6.55312 20 7 19.5531 7 19C7 17.8969 6.10313 17 5 17H4Z" fill="black"/>
</svg>
