<svg width="24" height="24" viewBox="0 0 24 24" fill="none" xmlns="http://www.w3.org/2000/svg">
<path d="M10.25 6.25C9.55937 6.25 9 6.80937 9 7.5V8.5H18.25C18.6656 8.5 19 8.83437 19 9.25C19 9.66563 18.6656 10 18.25 10H5.75C5.33437 10 5 9.66563 5 9.25C5 8.83437 5.33437 8.5 5.75 8.5H7.5V7.5C7.5 5.98125 8.73125 4.75 10.25 4.75H10.7C10.9594 4.30312 11.4438 4 12 4H14C14.8281 4 15.5 4.67188 15.5 5.5C15.5 6.32812 14.8281 7 14 7H12C11.4438 7 10.9594 6.69688 10.7 6.25H10.25ZM7.30312 18.2219L6.5 11H17.5L16.6969 18.2219C16.5844 19.2344 15.7281 20 14.7094 20H9.29063C8.27188 20 7.41562 19.2344 7.30312 18.2219ZM12.2281 12.65C12.1375 12.45 11.8625 12.45 11.775 12.65L11.1438 14.0719C11.1063 14.1531 11.0313 14.2094 10.9469 14.2219L9.45 14.4062C9.2375 14.4313 9.15312 14.7031 9.30937 14.8531L10.4156 15.9156C10.4781 15.9781 10.5094 16.0688 10.4906 16.1562L10.1969 17.6906C10.1563 17.9063 10.3781 18.075 10.5656 17.9688L11.8812 17.2063C11.9562 17.1625 12.05 17.1625 12.125 17.2063L13.4375 17.9656C13.625 18.075 13.8469 17.9062 13.8062 17.6875L13.5094 16.1562C13.4937 16.0688 13.5219 15.975 13.5844 15.9156L14.6906 14.8531C14.8469 14.7031 14.7625 14.4313 14.55 14.4062L13.0562 14.2188C12.9687 14.2094 12.8938 14.1531 12.8594 14.0688L12.2281 12.6469V12.65Z" fill="black"/>
</svg>
