<svg width="24" height="24" viewBox="0 0 24 24" fill="none" xmlns="http://www.w3.org/2000/svg">
<path d="M11.5 4C11.8978 4 12.2794 4.15804 12.5607 4.43934C12.842 4.72064 13 5.10218 13 5.5C13 5.89782 12.842 6.27936 12.5607 6.56066C12.2794 6.84196 11.8978 7 11.5 7C11.1022 7 10.7206 6.84196 10.4393 6.56066C10.158 6.27936 10 5.89782 10 5.5C10 5.10218 10.158 4.72064 10.4393 4.43934C10.7206 4.15804 11.1022 4 11.5 4ZM8.1 9C7.65937 9 7.24062 9.175 6.92812 9.48438L6.20625 10.2063C5.81562 10.5969 5.18125 10.5969 4.79062 10.2063C4.4 9.81563 4.4 9.18125 4.79062 8.79063L5.5125 8.06875C6.2 7.38437 7.13125 7 8.1 7C8.46562 7 8.82812 7.05312 9.175 7.1625L10.6969 7.63125C11.8344 7.98125 12.7562 8.81875 13.2125 9.91563L13.4094 10.3844C13.5656 10.7562 13.9281 11 14.3313 11H15C15.5531 11 16 11.4469 16 12C16 12.5531 15.5531 13 15 13H14.3344C13.1219 13 12.0312 12.2719 11.5656 11.1531L11.4062 10.7688L10.4375 13.3438L12.2094 14.45C12.775 14.8031 13.0406 15.4906 12.8562 16.1344L11.9625 19.275C11.8094 19.8062 11.2563 20.1125 10.725 19.9625C10.1937 19.8125 9.8875 19.2563 10.0375 18.725L10.8313 15.95L8.1375 14.2656C7.35312 13.775 7.00938 12.8125 7.3 11.9375L8.275 9.00938C8.21563 9.00313 8.15937 9 8.1 9ZM6.42188 13.7094C6.65313 14.275 7.05937 14.7688 7.60625 15.1125L7.90312 15.3L7.54375 16.1094C7.30312 16.65 6.76562 17 6.17188 17H4C3.44687 17 3 16.5531 3 16C3 15.4469 3.44687 15 4 15H5.85L6.42188 13.7094ZM15 5.5C15 4.67188 15.6719 4 16.5 4H19.5C20.3281 4 21 4.67188 21 5.5V18.5C21 19.3281 20.3281 20 19.5 20H16.5C15.6719 20 15 19.3281 15 18.5V14C16.1031 14 17 13.1031 17 12C17 10.8969 16.1031 10 15 10V5.5Z" fill="black"/>
</svg>
