<svg width="24" height="24" viewBox="0 0 24 24" fill="none" xmlns="http://www.w3.org/2000/svg">
<path d="M15.672 4.84688C16.1407 4.30937 16.8188 4 17.5313 4C18.8938 4 20.0001 5.10625 20.0001 6.46875C20.0001 7.18125 19.6907 7.8625 19.1532 8.33125L12.6782 13.9688L12.3563 13.6469L10.3563 11.6469L10.0313 11.3219L15.672 4.84688ZM9.32197 12.0281L9.64697 12.3531L11.647 14.3531L11.972 14.6781L11.372 17.2844C11.2501 17.8188 10.8438 18.2437 10.3157 18.3906L4.7626 19.9469L7.74385 16.9656C7.8251 16.9875 7.9126 17 8.00322 17C8.55635 17 9.00322 16.5531 9.00322 16C9.00322 15.4469 8.55635 15 8.00322 15C7.4501 15 7.00322 15.4469 7.00322 16C7.00322 16.0906 7.01572 16.175 7.0376 16.2594L4.05322 19.2375L5.60947 13.6875C5.75635 13.1594 6.18135 12.7531 6.71572 12.6313L9.32197 12.0312V12.0281Z" fill="black"/>
</svg>
