<svg width="24" height="24" viewBox="0 0 24 24" fill="none" xmlns="http://www.w3.org/2000/svg">
<path d="M18.1656 4.60313L19.3968 5.83438C20.1781 6.61563 20.1781 7.88126 19.3968 8.66251L17.7687 10.2906L17.7374 10.2594L17.2374 9.75938L14.2374 6.75938L13.7062 6.22813L15.3343 4.60001C16.1156 3.81876 17.3812 3.81876 18.1624 4.60001L18.1656 4.60313ZM11.5312 7.59063C11.2374 7.29688 10.7624 7.29688 10.4718 7.59063L7.28119 10.7813C6.98744 11.075 6.51244 11.075 6.22181 10.7813C5.93119 10.4875 5.92806 10.0125 6.22181 9.72188L9.40931 6.53126C10.2874 5.65313 11.7124 5.65313 12.5906 6.53126L12.9999 6.94063L13.5312 7.47188L16.5312 10.4719L17.0312 10.9719L17.0624 11.0031L16.5312 11.5344L11.1718 16.8906C9.67181 18.3906 7.75931 19.4156 5.67806 19.8313L4.89681 19.9875C4.64994 20.0375 4.39681 19.9594 4.21869 19.7813C4.04056 19.6031 3.96556 19.35 4.01244 19.1031L4.16869 18.3219C4.58431 16.2406 5.60931 14.3281 7.10931 12.8281L11.9406 8.00001L11.5312 7.59063Z" fill="black"/>
</svg>
