<svg width="24" height="24" viewBox="0 0 24 24" fill="none" xmlns="http://www.w3.org/2000/svg">
<path d="M18.6657 4.60312L19.3969 5.33437C20.1782 6.11562 20.1782 7.38124 19.3969 8.16249L17.6344 9.92499L14.0719 6.36562L15.8344 4.60312C16.6157 3.82187 17.8813 3.82187 18.6626 4.60312H18.6657ZM5.40318 15.0375L13.3657 7.07187L16.9282 10.6344L8.96255 18.5969C8.75318 18.8062 8.49068 18.9594 8.2063 19.0406L4.9563 19.9687C4.6938 20.0437 4.41255 19.9719 4.2188 19.7781C4.02505 19.5844 3.95318 19.3031 4.02818 19.0406L4.9563 15.7906C5.03755 15.5031 5.19068 15.2437 5.40005 15.0344L5.40318 15.0375ZM11.7938 7.23124L7.2313 11.7937L4.50005 9.05937C3.91568 8.47499 3.91568 7.52499 4.50005 6.93749L6.94068 4.49999C7.52505 3.91562 8.47505 3.91562 9.06255 4.49999L9.6813 5.11874C9.67193 5.12812 9.65943 5.13749 9.65005 5.14687L7.65005 7.14687C7.4563 7.34062 7.4563 7.65937 7.65005 7.85312C7.8438 8.04687 8.16255 8.04687 8.3563 7.85312L10.3563 5.85312C10.3657 5.84374 10.3751 5.83124 10.3844 5.82187L11.7938 7.23124ZM16.7688 12.2062L18.1782 13.6156C18.1688 13.625 18.1563 13.6344 18.1469 13.6437L16.1469 15.6437C15.9532 15.8375 15.9532 16.1562 16.1469 16.35C16.3407 16.5437 16.6594 16.5437 16.8532 16.35L18.8532 14.35C18.8626 14.3406 18.8719 14.3281 18.8813 14.3187L19.5001 14.9406C20.0844 15.525 20.0844 16.475 19.5001 17.0625L17.0594 19.5C16.4751 20.0844 15.5251 20.0844 14.9376 19.5L12.2063 16.7687L16.7688 12.2062Z" fill="black"/>
</svg>
