<svg width="24" height="24" viewBox="0 0 24 24" fill="none" xmlns="http://www.w3.org/2000/svg">
<path d="M19.4313 11.0344C19.5281 11.2781 19.7063 11.4844 19.9406 11.6031L20.4469 11.8562C20.9406 12.1031 21.1406 12.7031 20.8938 13.1969C20.6469 13.6906 20.0469 13.8906 19.5531 13.6438L18.6281 13.1812C18.1688 12.95 17.6375 12.9062 17.1469 13.0594L15.8469 13.4594C15.1188 13.6844 14.3375 13.6625 13.6219 13.4031L12.6844 13.0625C12.2438 12.9031 11.7594 12.9031 11.3188 13.0625L10.3813 13.4031C9.66563 13.6625 8.88438 13.6844 8.15626 13.4594L6.85626 13.0594C6.36563 12.9094 5.83438 12.9531 5.37501 13.1812L4.44688 13.6438C3.95313 13.8906 3.35313 13.6906 3.10626 13.1969C2.85938 12.7031 3.05938 12.1031 3.55313 11.8562L4.05938 11.6031C4.29376 11.4844 4.47188 11.2781 4.56876 11.0344C5.74688 8.08438 8.62813 6 12 6C15.3719 6 18.2531 8.08438 19.4313 11.0344ZM9.22501 8.05312C8.97813 7.92812 8.67813 8.03125 8.55313 8.27812L8.05313 9.27812C7.92813 9.525 8.03126 9.825 8.27813 9.95C8.34688 9.98437 8.41876 10 8.49063 10.0031H8.51251C8.69063 10 8.86251 9.9 8.95001 9.72813L9.45001 8.72813C9.57501 8.48125 9.47188 8.18125 9.22501 8.05625V8.05312ZM14.7781 8.05312C14.5313 8.17812 14.4313 8.47812 14.5531 8.725L15.0531 9.725C15.1375 9.89687 15.3094 9.99688 15.4906 10H15.5125C15.5844 10 15.6563 9.98125 15.725 9.94688C15.9719 9.82188 16.0719 9.52188 15.95 9.275L15.45 8.275C15.325 8.02813 15.025 7.92813 14.7781 8.05V8.05312ZM12 8C11.725 8 11.5 8.225 11.5 8.5V9.5C11.5 9.775 11.725 10 12 10C12.275 10 12.5 9.775 12.5 9.5V8.5C12.5 8.225 12.275 8 12 8ZM12.3406 14.0031L13.2781 14.3438C14.2 14.6781 15.2031 14.7031 16.1406 14.4156L17.4406 14.0156C17.6875 13.9406 17.9531 13.9625 18.1813 14.0781L19.1063 14.5406C19.1188 14.5469 19.1344 14.5531 19.1469 14.5594L18.4563 16.6344C18.1844 17.45 17.4188 18.0031 16.5594 18.0031H7.44376C6.58438 18.0031 5.81876 17.4531 5.54688 16.6344L4.85313 14.5594C4.86563 14.5531 4.88126 14.5469 4.89376 14.5406L5.81876 14.0781C6.05001 13.9625 6.31563 13.9406 6.55938 14.0156L7.85938 14.4156C8.79688 14.7031 9.80001 14.6781 10.7219 14.3438L11.6594 14.0031C11.8813 13.9219 12.1219 13.9219 12.3438 14.0031H12.3406Z" fill="black"/>
</svg>
