<svg width="24" height="24" viewBox="0 0 24 24" fill="none" xmlns="http://www.w3.org/2000/svg">
<path d="M12.4969 4.13125C12.1906 3.95625 11.8125 3.95625 11.5031 4.13125L4.50313 8.13125C4.19375 8.30937 4 8.64062 4 9V19C4 19.5531 4.44687 20 5 20C5.55313 20 6 19.5531 6 19V9.58125L12 6.15313L18 9.58125V19C18 19.5531 18.4469 20 19 20C19.5531 20 20 19.5531 20 19V9C20 8.64062 19.8062 8.30937 19.4969 8.13125L12.4969 4.13125ZM12 10.5C12.3315 10.5 12.6495 10.3683 12.8839 10.1339C13.1183 9.89946 13.25 9.58152 13.25 9.25C13.25 8.91848 13.1183 8.60054 12.8839 8.36612C12.6495 8.1317 12.3315 8 12 8C11.6685 8 11.3505 8.1317 11.1161 8.36612C10.8817 8.60054 10.75 8.91848 10.75 9.25C10.75 9.58152 10.8817 9.89946 11.1161 10.1339C11.3505 10.3683 11.6685 10.5 12 10.5ZM11.75 19.25V16.5H12.25V19.25C12.25 19.6656 12.5844 20 13 20C13.4156 20 13.75 19.6656 13.75 19.25V13.7969L14.5906 15.3562C14.7875 15.7219 15.2406 15.8563 15.6062 15.6625C15.9719 15.4688 16.1063 15.0125 15.9125 14.6469L14.7281 12.45C14.25 11.5594 13.3187 11.0031 12.3062 11.0031H11.6937C10.6812 11.0031 9.75312 11.5594 9.27187 12.45L8.0875 14.6469C7.89062 15.0125 8.02813 15.4656 8.39375 15.6625C8.75938 15.8594 9.2125 15.7219 9.40938 15.3562L10.25 13.7969V19.25C10.25 19.6656 10.5844 20 11 20C11.4156 20 11.75 19.6656 11.75 19.25Z" fill="black"/>
</svg>
