<svg width="24" height="24" viewBox="0 0 24 24" fill="none" xmlns="http://www.w3.org/2000/svg">
<path d="M15.7689 14H18.0752C19.1439 14 21.0033 13.125 21.0033 12C21.0033 10.9062 19.1439 9.99999 18.0752 9.99999H14.4314L11.2877 4.50312C11.1096 4.19374 10.7783 3.99999 10.4189 3.99999H8.66268C8.33143 3.99999 8.0908 4.31874 8.18143 4.63749L9.4408 9.04062L3.21268 4.15937C2.88768 3.90312 2.4158 3.96249 2.15955 4.28749C1.9033 4.61249 1.96268 5.08437 2.28768 5.34062L20.7877 19.8406C21.1127 20.0969 21.5846 20.0375 21.8408 19.7125C22.0971 19.3875 22.0377 18.9156 21.7127 18.6594L15.7689 14ZM13.3283 15.925L3.29705 8.02187C3.12518 8.08124 3.00018 8.24687 3.00018 8.43749C3.00018 8.47812 3.00643 8.51874 3.0158 8.55937L4.00018 12L3.0158 15.4406C3.0033 15.4812 3.00018 15.5219 3.00018 15.5625C3.00018 15.8062 3.19705 16 3.43768 16H4.75018C4.90643 16 5.05643 15.925 5.15018 15.8L6.50018 14H9.7158L8.18455 19.3625C8.09393 19.6812 8.33455 20 8.6658 20H10.4221C10.7814 20 11.1127 19.8062 11.2908 19.4969L13.3314 15.925H13.3283Z" fill="black"/>
</svg>
