<svg width="24" height="24" viewBox="0 0 24 24" fill="none" xmlns="http://www.w3.org/2000/svg">
<path d="M12.4843 4.12461L21.4843 9.12461C21.9656 9.39336 22.1406 10.0027 21.8718 10.484C21.6031 10.9652 20.9937 11.1402 20.5125 10.8715L12 6.14336L3.48434 10.8746C3.00309 11.1434 2.39372 10.9684 2.12497 10.4871C1.85622 10.0059 2.03122 9.39648 2.51247 9.12773L11.5156 4.12461C11.8187 3.95586 12.1843 3.95586 12.4875 4.12461H12.4843ZM12 8.99961C12.3315 8.99961 12.6494 9.13131 12.8839 9.36573C13.1183 9.60015 13.25 9.91809 13.25 10.2496C13.25 10.5811 13.1183 10.8991 12.8839 11.1335C12.6494 11.3679 12.3315 11.4996 12 11.4996C11.6684 11.4996 11.3505 11.3679 11.1161 11.1335C10.8817 10.8991 10.75 10.5811 10.75 10.2496C10.75 9.91809 10.8817 9.60015 11.1161 9.36573C11.3505 9.13131 11.6684 8.99961 12 8.99961ZM6.49997 11.9996C6.83149 11.9996 7.14943 12.1313 7.38385 12.3657C7.61827 12.6001 7.74997 12.9181 7.74997 13.2496C7.74997 13.5811 7.61827 13.8991 7.38385 14.1335C7.14943 14.3679 6.83149 14.4996 6.49997 14.4996C6.16845 14.4996 5.8505 14.3679 5.61608 14.1335C5.38166 13.8991 5.24997 13.5811 5.24997 13.2496C5.24997 12.9181 5.38166 12.6001 5.61608 12.3657C5.8505 12.1313 6.16845 11.9996 6.49997 11.9996ZM16.25 13.2496C16.25 12.9181 16.3817 12.6001 16.6161 12.3657C16.8505 12.1313 17.1684 11.9996 17.5 11.9996C17.8315 11.9996 18.1494 12.1313 18.3839 12.3657C18.6183 12.6001 18.75 12.9181 18.75 13.2496C18.75 13.5811 18.6183 13.8991 18.3839 14.1335C18.1494 14.3679 17.8315 14.4996 17.5 14.4996C17.1684 14.4996 16.8505 14.3679 16.6161 14.1335C16.3817 13.8991 16.25 13.5811 16.25 13.2496ZM9.09059 19.3559L8.24997 17.7965V18.9996C8.24997 19.5527 7.80309 19.9996 7.24997 19.9996H5.74997C5.19684 19.9996 4.74997 19.5527 4.74997 18.9996V17.7965L3.90934 19.3559C3.71247 19.7215 3.25934 19.8559 2.89372 19.6621C2.52809 19.4684 2.39372 19.0121 2.58747 18.6465L3.77184 16.4496C4.24997 15.559 5.18122 15.0027 6.19372 15.0027H6.80309C7.31247 15.0027 7.79997 15.1434 8.22184 15.3965L9.27184 13.4496C9.74997 12.559 10.6812 12.0027 11.6937 12.0027H12.3031C13.3156 12.0027 14.2437 12.559 14.725 13.4496L15.775 15.3965C16.1968 15.1434 16.6843 15.0027 17.1937 15.0027H17.8031C18.8156 15.0027 19.7437 15.559 20.225 16.4496L21.4093 18.6465C21.6062 19.0121 21.4687 19.4652 21.1031 19.6621C20.7375 19.859 20.2843 19.7215 20.0875 19.3559L19.25 17.7965V18.9996C19.25 19.5527 18.8031 19.9996 18.25 19.9996H16.75C16.1968 19.9996 15.75 19.5527 15.75 18.9996V17.7965L14.9093 19.3559C14.7125 19.7215 14.2593 19.8559 13.8937 19.6621C13.5281 19.4684 13.3937 19.0121 13.5875 18.6465L14.7218 16.5371C14.6687 16.484 14.6218 16.4246 14.5875 16.3559L13.75 14.7965V16.4996C13.75 17.0527 13.3031 17.4996 12.75 17.4996H11.25C10.6968 17.4996 10.25 17.0527 10.25 16.4996V14.7965L9.40934 16.3559C9.37184 16.4246 9.32809 16.484 9.27497 16.5371L10.4093 18.6465C10.6062 19.0121 10.4687 19.4652 10.1031 19.6621C9.73747 19.859 9.28434 19.7215 9.08747 19.3559H9.09059Z" fill="black"/>
</svg>
