<svg width="24" height="24" viewBox="0 0 24 24" fill="none" xmlns="http://www.w3.org/2000/svg">
<path d="M10.5532 4.10625C11.047 3.85938 11.647 4.05938 11.8938 4.55313L12.6751 6.11562L14.0001 6.38125C14.6095 6.50312 15.1813 6.76562 15.672 7.14687L19.6126 10.2125C20.0501 10.5531 20.1282 11.1812 19.7876 11.6156C19.447 12.05 18.8188 12.1313 18.3845 11.7906L16.1313 10.0375L13.897 11.0312L14.9313 11.8938C15.6563 12.4969 15.9782 13.4563 15.7657 14.375L15.222 16.725C15.1532 17.0188 14.9657 17.25 14.7188 17.3813L17.422 18.4156C17.5657 18.4719 17.7157 18.4969 17.8688 18.4969H18.7501C19.1657 18.4969 19.5001 18.8312 19.5001 19.2469C19.5001 19.6625 19.1657 19.9969 18.7501 19.9969H17.8688C17.5313 19.9969 17.2001 19.9344 16.8845 19.8156L5.87822 15.6031C5.51885 15.4656 5.19072 15.2531 4.91572 14.9781L4.21885 14.2812C3.9251 13.9875 3.9251 13.5125 4.21885 13.2219C4.5126 12.9313 4.9876 12.9281 5.27822 13.2219L5.97822 13.9219C6.10322 14.0469 6.2501 14.1438 6.41572 14.2063L7.11572 14.475C7.09072 14.425 7.06885 14.375 7.0501 14.3219C6.8751 13.7969 7.15947 13.2312 7.68135 13.0562L10.0001 12.2781V10.6156C10.0001 9.85937 10.4282 9.16563 11.1063 8.82812L12.5188 8.12187L12.2845 8.075C11.6782 7.95312 11.1626 7.55938 10.8876 7.00938L10.1063 5.44687C9.85947 4.95312 10.0595 4.35313 10.5532 4.10625ZM8.34385 14.9406L13.3126 16.8438C13.247 16.6688 13.2313 16.4719 13.2782 16.275L13.822 13.925C13.8657 13.7406 13.8001 13.55 13.6563 13.4281L12.0063 12.0531V12.6406C12.0063 13.2875 11.5938 13.8594 10.9813 14.0625L8.34385 14.9406ZM17.5001 4C17.8979 4 18.2795 4.15804 18.5608 4.43934C18.8421 4.72064 19.0001 5.10218 19.0001 5.5C19.0001 5.89782 18.8421 6.27936 18.5608 6.56066C18.2795 6.84196 17.8979 7 17.5001 7C17.1023 7 16.7207 6.84196 16.4394 6.56066C16.1581 6.27936 16.0001 5.89782 16.0001 5.5C16.0001 5.10218 16.1581 4.72064 16.4394 4.43934C16.7207 4.15804 17.1023 4 17.5001 4Z" fill="black"/>
</svg>
