<svg width="24" height="24" viewBox="0 0 24 24" fill="none" xmlns="http://www.w3.org/2000/svg">
<path d="M16.4999 8C16.8978 8 17.2793 7.84196 17.5606 7.56066C17.8419 7.27936 17.9999 6.89782 17.9999 6.5C17.9999 6.10218 17.8419 5.72064 17.5606 5.43934C17.2793 5.15804 16.8978 5 16.4999 5C16.1021 5 15.7206 5.15804 15.4393 5.43934C15.158 5.72064 14.9999 6.10218 14.9999 6.5C14.9999 6.89782 15.158 7.27936 15.4393 7.56066C15.7206 7.84196 16.1021 8 16.4999 8ZM5.09682 11.0844C4.72807 10.8937 4.27494 11.0375 4.08432 11.4031C3.89369 11.7687 4.03744 12.225 4.40307 12.4156L16.3874 18.6375C17.2406 19.0813 18.2531 19.0875 19.1124 18.6594L19.5874 18.4219C19.9593 18.2375 20.1093 17.7875 19.9218 17.4156C19.7343 17.0437 19.2874 16.8938 18.9156 17.0813L18.4406 17.3188C18.0124 17.5344 17.5062 17.5281 17.0781 17.3094L15.7749 16.6344C15.9156 16.4625 15.9999 16.2438 15.9999 16.0031V13.5C15.9999 12.6719 15.3281 12 14.4999 12H13.4156L15.2812 10.1344C16.0687 9.34688 15.5124 8 14.3968 8H8.99994C8.44682 8 7.99994 8.44688 7.99994 9C7.99994 9.55312 8.44682 10 8.99994 10H11.6249L9.77494 11.2594C9.03744 11.7625 8.96244 12.6594 9.34369 13.2875L5.09682 11.0844ZM13.9999 14V15.7063L10.7093 14H13.9999Z" fill="black"/>
</svg>
