<svg width="24" height="24" viewBox="0 0 24 24" fill="none" xmlns="http://www.w3.org/2000/svg">
<path d="M18.0469 5C18.2969 5 18.5 5.20312 18.5 5.45312V6.4375C18.5 7.05313 18.2187 7.61875 17.7625 7.99062C17.9625 8.14375 18.1594 8.30625 18.3438 8.48125C18.8938 7.98437 19.2344 7.275 19.25 6.50312H20.5C20.775 6.50312 21 6.72812 21 7.00312V7.50312C21 8.52812 20.2313 9.37188 19.2406 9.4875L19.4531 9.76875C19.8125 10.25 20.2813 10.6406 20.8188 10.9094L21 11H21.25C21.6656 11 22 11.3344 22 11.75V14.75C22 15.1656 21.6656 15.5 21.25 15.5H19.8906C19.1969 16.1625 18.3375 16.6312 17.3969 16.8531L16.9906 18.275C16.8688 18.7031 16.4781 19 16.0312 19H15C14.4469 19 14 18.5531 14 18V17H12H10.5V18C10.5 18.5531 10.0531 19 9.5 19H8.46875C8.02187 19 7.63125 18.7031 7.50625 18.275L6.84375 15.95C5.44687 15.1875 4.5 13.7031 4.5 12V11.5H3.48125C2.6625 11.5 2 10.8375 2 10.0188C2 9.3375 2.4625 8.74688 3.12188 8.58125L3.37812 8.51875C3.64687 8.45313 3.91875 8.61562 3.98438 8.88125C4.05 9.14687 3.8875 9.42188 3.62188 9.4875L3.36563 9.55C3.15 9.60313 3 9.79688 3 10.0188C3 10.2844 3.21563 10.5 3.48125 10.5H4.6C5.0625 8.21875 7.08125 6.5 9.5 6.5H13.325C13.7781 6.5 14.225 6.54063 14.6594 6.62188C14.9125 6.0125 15.4531 5.54687 16.1281 5.4L17.9531 5.00937C17.9844 5.00312 18.0156 5 18.0469 5ZM16.625 12C16.7908 12 16.9497 11.9342 17.0669 11.8169C17.1842 11.6997 17.25 11.5408 17.25 11.375C17.25 11.2092 17.1842 11.0503 17.0669 10.9331C16.9497 10.8158 16.7908 10.75 16.625 10.75C16.4592 10.75 16.3003 10.8158 16.1831 10.9331C16.0658 11.0503 16 11.2092 16 11.375C16 11.5408 16.0658 11.6997 16.1831 11.8169C16.3003 11.9342 16.4592 12 16.625 12Z" fill="black"/>
</svg>
