<svg width="24" height="24" viewBox="0 0 24 24" fill="none" xmlns="http://www.w3.org/2000/svg">
<path d="M18.7375 4.67734C18.0531 3.99297 16.9469 3.99297 16.2625 4.67734L15.3219 5.61484L18.3813 8.67422L19.3219 7.73359C20.0063 7.04922 20.0063 5.94297 19.3219 5.25859L18.7375 4.67734ZM9.3875 11.5523C9.19687 11.743 9.05 11.9773 8.96562 12.2367L8.04063 15.0117C7.95 15.2805 8.02188 15.5773 8.22188 15.7805C8.42188 15.9836 8.71875 16.0523 8.99062 15.9617L11.7656 15.0367C12.0219 14.9523 12.2562 14.8055 12.45 14.6148L17.6781 9.38359L14.6156 6.32109L9.3875 11.5523ZM7 5.99922C5.34375 5.99922 4 7.34297 4 8.99922V16.9992C4 18.6555 5.34375 19.9992 7 19.9992H15C16.6562 19.9992 18 18.6555 18 16.9992V13.9992C18 13.4461 17.5531 12.9992 17 12.9992C16.4469 12.9992 16 13.4461 16 13.9992V16.9992C16 17.5523 15.5531 17.9992 15 17.9992H7C6.44688 17.9992 6 17.5523 6 16.9992V8.99922C6 8.44609 6.44688 7.99922 7 7.99922H10C10.5531 7.99922 11 7.55234 11 6.99922C11 6.44609 10.5531 5.99922 10 5.99922H7Z" fill="black"/>
</svg>
