<svg width="24" height="24" viewBox="0 0 24 24" fill="none" xmlns="http://www.w3.org/2000/svg">
<path d="M11.2876 10C12.0813 10 12.8438 10.2219 13.5001 10.6219V20H7.50005V14.5531L5.82505 17.3844C5.47505 17.9781 4.7063 18.175 4.11255 17.825C3.5188 17.475 3.32193 16.7063 3.67193 16.1125L6.05318 12.0875C6.8188 10.7937 8.20943 10 9.71255 10H11.2876ZM8.00005 6.5C8.00005 5.83696 8.26344 5.20107 8.73229 4.73223C9.20113 4.26339 9.83701 4 10.5001 4C11.1631 4 11.799 4.26339 12.2678 4.73223C12.7367 5.20107 13.0001 5.83696 13.0001 6.5C13.0001 7.16304 12.7367 7.79893 12.2678 8.26777C11.799 8.73661 11.1631 9 10.5001 9C9.83701 9 9.20113 8.73661 8.73229 8.26777C8.26344 7.79893 8.00005 7.16304 8.00005 6.5ZM17.0001 4C17.2751 4 17.5001 4.225 17.5001 4.5V8.13438C17.8001 8.30625 18.0001 8.63125 18.0001 9V12.4156L18.5001 12.25V10.5C18.5001 10.225 18.7251 10 19.0001 10H19.5001C19.7751 10 20.0001 10.225 20.0001 10.5V13.1406C20.0001 13.3563 19.8626 13.5469 19.6594 13.6156L18.0001 14.1656V15H19.5001C19.7751 15 20.0001 15.225 20.0001 15.5V16C20.0001 16.275 19.7751 16.5 19.5001 16.5H18.1251L18.8438 19.3781C18.9219 19.6938 18.6844 20 18.3594 20H16.5001C16.2251 20 16.0001 19.775 16.0001 19.5V16.5H15.5001C14.9469 16.5 14.5001 16.0531 14.5001 15.5V11C14.5001 10.4469 14.9469 10 15.5001 10V9C15.5001 8.63125 15.7001 8.30625 16.0001 8.13438V5C15.7251 5 15.5001 4.775 15.5001 4.5C15.5001 4.225 15.7251 4 16.0001 4H16.5001H17.0001Z" fill="black"/>
</svg>
