<svg width="24" height="24" viewBox="0 0 24 24" fill="none" xmlns="http://www.w3.org/2000/svg">
<path d="M15 5.5C15 5.30302 15.0388 5.10796 15.1142 4.92597C15.1895 4.74399 15.3 4.57863 15.4393 4.43934C15.5786 4.30005 15.744 4.18956 15.926 4.11418C16.1079 4.0388 16.303 4 16.5 4C16.697 4 16.892 4.0388 17.074 4.11418C17.256 4.18956 17.4214 4.30005 17.5606 4.43934C17.6999 4.57863 17.8104 4.74399 17.8858 4.92597C17.9612 5.10796 18 5.30302 18 5.5C18 5.69698 17.9612 5.89204 17.8858 6.07403C17.8104 6.25601 17.6999 6.42137 17.5606 6.56066C17.4214 6.69995 17.256 6.81044 17.074 6.88582C16.892 6.9612 16.697 7 16.5 7C16.303 7 16.1079 6.9612 15.926 6.88582C15.744 6.81044 15.5786 6.69995 15.4393 6.56066C15.3 6.42137 15.1895 6.25601 15.1142 6.07403C15.0388 5.89204 15 5.69698 15 5.5ZM7.99998 8C7.99998 7.44687 8.44686 7 8.99998 7H13.5156C14.9531 7 15.5687 8.825 14.4219 9.69375L11.1906 12.15L10.9906 12.3844C10.9156 12.4719 10.8531 12.575 10.8125 12.6844L9.60936 15.8938L17.5531 11.7844C18.1344 11.4844 18.5 10.8844 18.5 10.2312V10C18.5 9.58437 18.8344 9.25 19.25 9.25C19.6656 9.25 20 9.58437 20 10V10.2281C20 11.4438 19.3219 12.5563 18.2437 13.1156L5.09373 19.9156C4.72811 20.1062 4.27498 19.9625 4.08436 19.5938C3.89373 19.225 4.03748 18.7719 4.40623 18.5844L7.88123 16.7875C7.54686 16.525 7.40623 16.0687 7.56248 15.65L8.93748 11.9812C9.05936 11.6531 9.24061 11.35 9.46873 11.0813L11.2531 9H8.99998C8.44686 9 7.99998 8.55313 7.99998 8Z" fill="black"/>
</svg>
