<svg width="24" height="24" viewBox="0 0 24 24" fill="none" xmlns="http://www.w3.org/2000/svg">
<path d="M15.8968 5.5C15.8968 5.30302 15.9356 5.10796 16.011 4.92597C16.0864 4.74399 16.1969 4.57863 16.3362 4.43934C16.4754 4.30005 16.6408 4.18956 16.8228 4.11418C17.0048 4.0388 17.1998 4 17.3968 4C17.5938 4 17.7889 4.0388 17.9708 4.11418C18.1528 4.18956 18.3182 4.30005 18.4575 4.43934C18.5968 4.57863 18.7073 4.74399 18.7826 4.92597C18.858 5.10796 18.8968 5.30302 18.8968 5.5C18.8968 5.69698 18.858 5.89204 18.7826 6.07403C18.7073 6.25601 18.5968 6.42137 18.4575 6.56066C18.3182 6.69995 18.1528 6.81044 17.9708 6.88582C17.7889 6.9612 17.5938 7 17.3968 7C17.1998 7 17.0048 6.9612 16.8228 6.88582C16.6408 6.81044 16.4754 6.69995 16.3362 6.56066C16.1969 6.42137 16.0864 6.25601 16.011 6.07403C15.9356 5.89204 15.8968 5.69698 15.8968 5.5ZM4.08432 12.4031C4.27494 12.0344 4.72807 11.8938 5.09682 12.0844L11.2718 15.2906L12.7156 13.1281L10.3687 10.7812C9.91244 10.325 9.73119 9.72187 9.79369 9.15312L13.1937 10.7781L14.4218 12.0063C14.9281 12.5125 15.0062 13.3031 14.6093 13.9L13.0562 16.2188L17.0781 18.3062C17.5031 18.5281 18.0093 18.5313 18.4406 18.3156L18.9156 18.0781C19.2874 17.8937 19.7374 18.0438 19.9218 18.4125C20.1062 18.7813 19.9562 19.2344 19.5874 19.4187L19.1124 19.6562C18.2531 20.0844 17.2406 20.0781 16.3874 19.6344L4.40307 13.4156C4.03744 13.225 3.89369 12.7719 4.08432 12.4031ZM7.71557 6.05L8.28119 6.31875L8.55307 5.775C8.67807 5.52812 8.97807 5.42812 9.22494 5.55C9.47182 5.67187 9.57182 5.975 9.44994 6.22187L9.18432 6.75L10.8937 7.56875C10.9406 7.54687 10.9906 7.525 11.0406 7.50312L13.6468 6.45937C14.7156 6.03125 15.9218 6.59063 16.2874 7.68438L16.8218 9.28438L18.4499 10.1C18.9437 10.3469 19.1437 10.9469 18.8968 11.4406C18.6499 11.9344 18.0499 12.1344 17.5562 11.8875L15.7406 10.9812C15.3843 10.8031 15.1156 10.4906 14.9874 10.1125L14.8062 9.57188L13.9531 9.95L13.7406 10.0437L13.5312 9.94375L8.73432 7.64687L8.44682 8.22188C8.32182 8.46875 8.02182 8.56875 7.77494 8.44688C7.52807 8.325 7.42807 8.02188 7.54994 7.775L7.83119 7.2125L7.28119 6.95C7.03119 6.83125 6.92807 6.53125 7.04682 6.28437C7.16557 6.0375 7.46557 5.93125 7.71244 6.05H7.71557Z" fill="black"/>
</svg>
