<svg width="24" height="24" viewBox="0 0 24 24" fill="none" xmlns="http://www.w3.org/2000/svg">
<path d="M12.4843 4.1251L21.4843 9.1251C21.9656 9.39385 22.1406 10.0032 21.8718 10.4845C21.6031 10.9657 20.9937 11.1407 20.5125 10.872L12 6.14385L3.48434 10.8751C3.00309 11.1438 2.39372 10.9688 2.12497 10.4876C1.85622 10.0063 2.03122 9.39697 2.51247 9.12822L11.5156 4.1251C11.8187 3.95635 12.1843 3.95635 12.4875 4.1251H12.4843ZM12 9.0001C12.3315 9.0001 12.6494 9.13179 12.8839 9.36621C13.1183 9.60063 13.25 9.91858 13.25 10.2501C13.25 10.5816 13.1183 10.8996 12.8839 11.134C12.6494 11.3684 12.3315 11.5001 12 11.5001C11.6684 11.5001 11.3505 11.3684 11.1161 11.134C10.8817 10.8996 10.75 10.5816 10.75 10.2501C10.75 9.91858 10.8817 9.60063 11.1161 9.36621C11.3505 9.13179 11.6684 9.0001 12 9.0001ZM6.49997 12.0001C6.83149 12.0001 7.14943 12.1318 7.38385 12.3662C7.61827 12.6006 7.74997 12.9186 7.74997 13.2501C7.74997 13.5816 7.61827 13.8996 7.38385 14.134C7.14943 14.3684 6.83149 14.5001 6.49997 14.5001C6.16845 14.5001 5.8505 14.3684 5.61608 14.134C5.38166 13.8996 5.24997 13.5816 5.24997 13.2501C5.24997 12.9186 5.38166 12.6006 5.61608 12.3662C5.8505 12.1318 6.16845 12.0001 6.49997 12.0001ZM16.25 13.2501C16.25 12.9186 16.3817 12.6006 16.6161 12.3662C16.8505 12.1318 17.1684 12.0001 17.5 12.0001C17.8315 12.0001 18.1494 12.1318 18.3839 12.3662C18.6183 12.6006 18.75 12.9186 18.75 13.2501C18.75 13.5816 18.6183 13.8996 18.3839 14.134C18.1494 14.3684 17.8315 14.5001 17.5 14.5001C17.1684 14.5001 16.8505 14.3684 16.6161 14.134C16.3817 13.8996 16.25 13.5816 16.25 13.2501ZM9.09059 19.3563L8.24997 17.797V19.0001C8.24997 19.5532 7.80309 20.0001 7.24997 20.0001H5.74997C5.19684 20.0001 4.74997 19.5532 4.74997 19.0001V17.797L3.90934 19.3563C3.71247 19.722 3.25934 19.8563 2.89372 19.6626C2.52809 19.4688 2.39372 19.0126 2.58747 18.647L3.77184 16.4501C4.24997 15.5595 5.18122 15.0032 6.19372 15.0032H6.80309C7.31247 15.0032 7.79997 15.1438 8.22184 15.397L9.27184 13.4501C9.74997 12.5595 10.6812 12.0032 11.6937 12.0032H12.3031C13.3156 12.0032 14.2437 12.5595 14.725 13.4501L15.775 15.397C16.1968 15.1438 16.6843 15.0032 17.1937 15.0032H17.8031C18.8156 15.0032 19.7437 15.5595 20.225 16.4501L21.4093 18.647C21.6062 19.0126 21.4687 19.4657 21.1031 19.6626C20.7375 19.8595 20.2843 19.722 20.0875 19.3563L19.25 17.797V19.0001C19.25 19.5532 18.8031 20.0001 18.25 20.0001H16.75C16.1968 20.0001 15.75 19.5532 15.75 19.0001V17.797L14.9093 19.3563C14.7125 19.722 14.2593 19.8563 13.8937 19.6626C13.5281 19.4688 13.3937 19.0126 13.5875 18.647L14.7218 16.5376C14.6687 16.4845 14.6218 16.4251 14.5875 16.3563L13.75 14.797V16.5001C13.75 17.0532 13.3031 17.5001 12.75 17.5001H11.25C10.6968 17.5001 10.25 17.0532 10.25 16.5001V14.797L9.40934 16.3563C9.37184 16.4251 9.32809 16.4845 9.27497 16.5376L10.4093 18.647C10.6062 19.0126 10.4687 19.4657 10.1031 19.6626C9.73747 19.8595 9.28434 19.722 9.08747 19.3563H9.09059Z" fill="black"/>
</svg>
