<svg width="24" height="24" viewBox="0 0 24 24" fill="none" xmlns="http://www.w3.org/2000/svg">
<path d="M12.75 3.99997C16.7531 3.99997 20 7.24685 20 11.25C20 11.6656 19.6656 12 19.25 12C18.8344 12 18.5 11.6656 18.5 11.25C18.5 8.07497 15.925 5.49997 12.75 5.49997C12.3344 5.49997 12 5.1656 12 4.74997C12 4.33435 12.3344 3.99997 12.75 3.99997ZM13 9.99997C13.2652 9.99997 13.5196 10.1053 13.7071 10.2929C13.8946 10.4804 14 10.7348 14 11C14 11.2652 13.8946 11.5195 13.7071 11.7071C13.5196 11.8946 13.2652 12 13 12C12.7348 12 12.4804 11.8946 12.2929 11.7071C12.1054 11.5195 12 11.2652 12 11C12 10.7348 12.1054 10.4804 12.2929 10.2929C12.4804 10.1053 12.7348 9.99997 13 9.99997ZM12 7.74997C12 7.33435 12.3344 6.99997 12.75 6.99997C15.0969 6.99997 17 8.9031 17 11.25C17 11.6656 16.6656 12 16.25 12C15.8344 12 15.5 11.6656 15.5 11.25C15.5 9.73122 14.2688 8.49997 12.75 8.49997C12.3344 8.49997 12 8.1656 12 7.74997ZM7.67188 4.04372C8.27812 3.8781 8.9125 4.18747 9.15312 4.76872L10.4031 7.76872C10.6156 8.2781 10.4688 8.86872 10.0406 9.2156L8.5 10.4781C9.54063 12.6781 11.3219 14.4593 13.5219 15.5L14.7812 13.9593C15.1313 13.5312 15.7188 13.3843 16.2281 13.5968L19.2281 14.8468C19.8094 15.0875 20.1187 15.7218 19.9531 16.3281L19.2031 19.0781C19.0562 19.6218 18.5625 20 18 20C10.2688 20 4 13.7312 4 5.99997C4 5.43747 4.37813 4.94372 4.92188 4.79372L7.67188 4.04372Z" fill="black"/>
</svg>
