<svg width="24" height="24" viewBox="0 0 24 24" fill="none" xmlns="http://www.w3.org/2000/svg">
<path d="M3.21268 4.15933C2.88768 3.90308 2.4158 3.96245 2.15955 4.28745C1.9033 4.61245 1.96268 5.08433 2.28768 5.34058L20.7877 19.8406C21.1127 20.0968 21.5846 20.0375 21.8408 19.7125C22.0971 19.3875 22.0377 18.9156 21.7127 18.6593L14.1221 12.7093L19.1533 8.32808C19.6908 7.85933 20.0002 7.1812 20.0002 6.46558C20.0002 5.10308 18.8939 3.99683 17.5314 3.99683C16.8189 3.99683 16.1377 4.3062 15.6689 4.8437L10.9721 10.2406L3.21268 4.15933ZM11.9377 14.8281L8.59393 12.1968L6.7158 12.6312C6.18143 12.7531 5.75643 13.1593 5.60955 13.6875L4.0533 19.2375L7.03455 16.2562C7.01268 16.175 7.00018 16.0875 7.00018 15.9968C7.00018 15.4437 7.44705 14.9968 8.00018 14.9968C8.5533 14.9968 9.00018 15.4437 9.00018 15.9968C9.00018 16.55 8.5533 16.9968 8.00018 16.9968C7.90955 16.9968 7.82518 16.9843 7.7408 16.9625L4.76268 19.9468L10.3127 18.3906C10.8408 18.2437 11.2471 17.8187 11.3689 17.2843L11.9377 14.8281Z" fill="black"/>
</svg>
