<svg width="24" height="24" viewBox="0 0 24 24" fill="none" xmlns="http://www.w3.org/2000/svg">
<path d="M8.99994 7C9.39776 7 9.77929 6.84196 10.0606 6.56066C10.3419 6.27936 10.4999 5.89782 10.4999 5.5C10.4999 5.10218 10.3419 4.72064 10.0606 4.43934C9.77929 4.15804 9.39776 4 8.99994 4C8.60211 4 8.22058 4.15804 7.93928 4.43934C7.65797 4.72064 7.49994 5.10218 7.49994 5.5C7.49994 5.89782 7.65797 6.27936 7.93928 6.56066C8.22058 6.84196 8.60211 7 8.99994 7ZM4.85619 13.5156L5.74994 12.0281V19C5.74994 19.5531 6.19681 20 6.74994 20C7.30306 20 7.74994 19.5531 7.74994 19V15H8.24994V19C8.24994 19.5531 8.69681 20 9.24994 20C9.80306 20 10.2499 19.5531 10.2499 19V11.3531L11.7312 13.1375C12.0843 13.5625 12.7156 13.6219 13.1406 13.2688C13.5656 12.9156 13.6249 12.2844 13.2718 11.8594L10.9687 9.08125C10.3999 8.39375 9.55306 7.99688 8.65931 7.99688H7.53431C6.48119 7.99688 5.50619 8.55 4.96244 9.45312L3.14056 12.4844C2.85619 12.9563 3.00931 13.5719 3.48119 13.8562C3.95306 14.1406 4.56869 13.9875 4.85306 13.5156H4.85619ZM17.9999 11.5C17.9999 11.1022 17.8419 10.7206 17.5606 10.4393C17.2793 10.158 16.8978 10 16.4999 10C16.1021 10 15.7206 10.158 15.4393 10.4393C15.158 10.7206 14.9999 11.1022 14.9999 11.5C14.9999 11.8978 15.158 12.2794 15.4393 12.5607C15.7206 12.842 16.1021 13 16.4999 13C16.8978 13 17.2793 12.842 17.5606 12.5607C17.8419 12.2794 17.9999 11.8978 17.9999 11.5ZM17.4999 14.75V16.5844L16.2062 15.2906C15.9781 15.0625 15.6562 14.9594 15.3374 15.0094C15.0187 15.0594 14.7468 15.2625 14.6031 15.55L13.1031 18.55C12.8562 19.0437 13.0562 19.6438 13.5499 19.8906C14.0437 20.1375 14.6437 19.9375 14.8906 19.4438L15.7749 17.6875L17.4843 19.3969C17.8718 19.7844 18.3937 20 18.9406 20C20.0781 20 20.9999 19.0781 20.9999 17.9406V14.75C20.9999 13.7844 20.2156 13 19.2499 13C18.2843 13 17.4999 13.7844 17.4999 14.75ZM11.9999 5.5C11.9999 5.775 12.2249 6 12.4999 6H14.2499C14.5249 6 14.7499 5.775 14.7499 5.5C14.7499 5.225 14.5249 5 14.2499 5H12.4999C12.2249 5 11.9999 5.225 11.9999 5.5ZM11.9749 7.05312C11.7281 6.92812 11.4281 7.03125 11.3031 7.27813C11.1781 7.525 11.2812 7.825 11.5281 7.95L13.0281 8.7C13.2749 8.825 13.5749 8.72187 13.6999 8.475C13.8249 8.22813 13.7218 7.92812 13.4749 7.80312L11.9749 7.05312Z" fill="black"/>
</svg>
