<svg width="24" height="24" viewBox="0 0 24 24" fill="none" xmlns="http://www.w3.org/2000/svg">
<path d="M18.45 15.6719L18.4469 15.6656L18.4375 15.6406C18.4282 15.6187 18.4157 15.5844 18.3969 15.5375C18.3594 15.4469 18.3032 15.3125 18.225 15.1406C18.0688 14.7969 17.8313 14.3063 17.5032 13.725C16.8469 12.5594 15.8282 11.0375 14.3938 9.6C12.9594 8.1625 11.4344 7.14687 10.2688 6.49062C9.68754 6.1625 9.19692 5.925 8.85317 5.76875C8.68129 5.69062 8.54692 5.63437 8.45629 5.59687C8.41254 5.57812 8.37817 5.56562 8.35317 5.55625L8.32817 5.54688L8.32192 5.54375C8.12817 5.47188 7.99692 5.2875 7.99379 5.08125C7.99067 4.875 8.11567 4.6875 8.30629 4.60938C9.29692 4.21875 10.375 4 11.5 4C13.3625 4 15.0844 4.6 16.4844 5.6125L16.7782 5.30625C16.9657 5.1125 17.2219 5.00312 17.4907 5C17.7594 4.99687 18.0188 5.10313 18.2063 5.29375L18.7063 5.79375C18.8969 5.98438 19.0032 6.24063 19 6.50938C18.9969 6.77813 18.8875 7.03437 18.6938 7.22187L18.3875 7.51562C19.4 8.91563 20 10.6375 20 12.5C20 13.625 19.7813 14.7031 19.3813 15.6875C19.3032 15.8781 19.1157 16.0031 18.9094 16C18.7032 15.9969 18.5188 15.8656 18.4469 15.6719H18.45ZM4.29379 19.7063C3.90629 19.3219 3.90317 18.7 4.27817 18.3062L12.7782 9.46562C13.0813 9.72812 13.3875 10.0094 13.6875 10.3094C13.9875 10.6094 14.2688 10.9156 14.5313 11.2188L5.69379 19.7219C5.30004 20.1 4.67817 20.0938 4.29379 19.7094V19.7063Z" fill="black"/>
</svg>
