<svg width="24" height="24" viewBox="0 0 24 24" fill="none" xmlns="http://www.w3.org/2000/svg">
<path d="M20.7874 4.15935C21.1124 3.9031 21.5843 3.96247 21.8406 4.28747C22.0968 4.61247 22.0374 5.08435 21.7124 5.3406L3.21243 19.8406C2.88743 20.0968 2.41556 20.0375 2.15931 19.7125C1.90306 19.3875 1.96243 18.9156 2.28743 18.6593L7.14993 14.8468C5.18118 12.4375 3.99993 9.35622 3.99993 5.99997C3.99993 5.43747 4.37806 4.94372 4.92181 4.79372L7.67181 4.04372C8.27806 3.8781 8.91243 4.18747 9.15306 4.76872L10.4031 7.76872C10.6156 8.2781 10.4687 8.86872 10.0406 9.2156L8.49993 10.4781C8.87493 11.275 9.34993 12.0156 9.90618 12.6875L20.7874 4.15935ZM9.32181 16.9875L12.1749 14.7375C12.6031 15.0218 13.0499 15.2781 13.5187 15.4968L14.7812 13.9593C15.1312 13.5312 15.7187 13.3843 16.2281 13.5968L19.2281 14.8468C19.8093 15.0875 20.1187 15.7218 19.9531 16.3281L19.2031 19.0781C19.0562 19.6218 18.5624 20 17.9999 20C14.7218 20 11.7093 18.875 9.32181 16.9875Z" fill="black"/>
</svg>
