<svg width="24" height="24" viewBox="0 0 24 24" fill="none" xmlns="http://www.w3.org/2000/svg">
<path d="M3.21268 4.15943C2.88768 3.90318 2.4158 3.96255 2.15955 4.28755C1.9033 4.61255 1.96268 5.08443 2.28768 5.34068L20.7877 19.8407C21.1127 20.0969 21.5846 20.0376 21.8408 19.7126C22.0971 19.3876 22.0377 18.9157 21.7127 18.6594L14.8096 13.2501L16.5283 11.5313L17.0596 11.0001L17.0283 10.9688L16.5283 10.4688L13.5283 7.4688L12.9971 6.93755L12.5908 6.5313C11.7127 5.65318 10.2877 5.65318 9.40955 6.5313L8.0158 7.92505L3.21268 4.15943ZM9.2033 8.8563L10.4689 7.59068C10.7627 7.29693 11.2377 7.29693 11.5283 7.59068L11.9408 8.00005L10.2596 9.6813L9.20643 8.8563H9.2033ZM12.6627 15.4001L8.11893 11.8219L7.10955 12.8313C5.60955 14.3313 4.58455 16.2438 4.16893 18.3251L4.01268 19.1063C3.96268 19.3532 4.0408 19.6063 4.21893 19.7844C4.39705 19.9626 4.65018 20.0376 4.89705 19.9907L5.6783 19.8344C7.75955 19.4188 9.67205 18.3938 11.1721 16.8938L12.6627 15.4032V15.4001ZM18.1658 4.60318C17.3846 3.82193 16.1189 3.82193 15.3377 4.60318L13.7064 6.2313L14.2377 6.76255L17.2377 9.76255L17.7377 10.2626L17.7689 10.2938L19.3971 8.66568C20.1783 7.88443 20.1783 6.6188 19.3971 5.83755L18.1658 4.60318Z" fill="black"/>
</svg>
