<svg width="24" height="24" viewBox="0 0 24 24" fill="none" xmlns="http://www.w3.org/2000/svg">
<path d="M12 4C12.3978 4 12.7793 4.15804 13.0606 4.43934C13.342 4.72064 13.5 5.10218 13.5 5.5C13.5 5.89782 13.342 6.27936 13.0606 6.56066C12.7793 6.84196 12.3978 7 12 7C11.6022 7 11.2206 6.84196 10.9393 6.56066C10.658 6.27936 10.5 5.89782 10.5 5.5C10.5 5.10218 10.658 4.72064 10.9393 4.43934C11.2206 4.15804 11.6022 4 12 4ZM12.25 15V8H12.4656C13.5187 8 14.4937 8.55313 15.0375 9.45625L16.8594 12.4875C17.1437 12.9594 16.9906 13.575 16.5187 13.8594C16.0469 14.1438 15.4312 13.9906 15.1469 13.5188L14.25 12.0281V19C14.25 19.5531 13.8031 20 13.25 20C12.6969 20 12.25 19.5531 12.25 19V15ZM8.81874 9.69688C9.44061 8.6625 10.5469 8.025 11.75 8V16V19C11.75 19.5531 11.3031 20 10.75 20C10.1969 20 9.74999 19.5531 9.74999 19V16H9.19374C8.85311 16 8.61249 15.6656 8.71874 15.3406L9.91561 11.7531L8.85624 13.5156C8.57186 13.9875 7.95624 14.1406 7.48436 13.8562C7.01249 13.5719 6.85936 12.9563 7.14374 12.4844L8.81874 9.69688Z" fill="black"/>
</svg>
