<svg width="24" height="24" viewBox="0 0 24 24" fill="none" xmlns="http://www.w3.org/2000/svg">
<path d="M10.7156 4.4413C10.3125 4.47567 10 4.81317 10 5.21942C10 5.65067 10.35 6.00067 10.7812 6.00067H15.5C15.775 6.00067 16 5.77567 16 5.50067V4.54442C16 4.25067 15.75 4.02255 15.4594 4.04442L10.7156 4.4413ZM10.5 7.50067C10.5 8.88192 11.6188 10.0007 13 10.0007C14.3813 10.0007 15.5 8.88192 15.5 7.50067C15.5 7.3288 15.4812 7.16317 15.45 7.00067H10.55C10.5188 7.16317 10.5 7.3288 10.5 7.50067ZM5.25 11.0007C4.55937 11.0007 4 11.56 4 12.2507C4 12.9413 4.55937 13.5007 5.25 13.5007H10V16.2944L15.0875 11.2038C14.6719 11.0694 14.2344 11.0007 13.7875 11.0007H10.5H5.25ZM16.0531 11.6538L10.7063 17.0007H16V15.5538L17.675 18.385C18.025 18.9788 18.7938 19.1757 19.3875 18.8257C19.9813 18.4757 20.1781 17.7069 19.8281 17.1132L17.4469 13.0882C17.0969 12.4975 16.6156 12.01 16.0531 11.6538ZM10 18.0007V19.0007C10 19.5538 10.4469 20.0007 11 20.0007H15C15.5531 20.0007 16 19.5538 16 19.0007V18.0007H10Z" fill="black"/>
</svg>
