<svg width="24" height="24" viewBox="0 0 24 24" fill="none" xmlns="http://www.w3.org/2000/svg">
<path d="M10 4H20C21.1031 4 22 4.89688 22 6V13C22 14.1031 21.1031 15 20 15H10C8.89687 15 8 14.1031 8 13V6C8 4.89688 8.89687 4 10 4ZM16.875 7.33437C16.7344 7.125 16.5 7 16.25 7C16 7 15.7656 7.125 15.625 7.33437L13.875 9.95937L13.3344 9.28125C13.1906 9.10313 12.975 9 12.75 9C12.525 9 12.3062 9.10313 12.1656 9.28125L10.1656 11.7812C9.98437 12.0063 9.95 12.3156 10.075 12.575C10.2 12.8344 10.4625 13 10.75 13H13.25H14.75H19.25C19.5281 13 19.7812 12.8469 19.9125 12.6031C20.0438 12.3594 20.0281 12.0625 19.875 11.8344L16.875 7.33437ZM12.5 7C12.5 6.73478 12.3946 6.48043 12.2071 6.29289C12.0196 6.10536 11.7652 6 11.5 6C11.2348 6 10.9804 6.10536 10.7929 6.29289C10.6054 6.48043 10.5 6.73478 10.5 7C10.5 7.26522 10.6054 7.51957 10.7929 7.70711C10.9804 7.89464 11.2348 8 11.5 8C11.7652 8 12.0196 7.89464 12.2071 7.70711C12.3946 7.51957 12.5 7.26522 12.5 7ZM4 8H7V16V17C7 17.5531 7.44688 18 8 18H12C12.5531 18 13 17.5531 13 17V16H18V18C18 19.1031 17.1031 20 16 20H4C2.89688 20 2 19.1031 2 18V10C2 8.89687 2.89688 8 4 8ZM4.25 10C3.975 10 3.75 10.225 3.75 10.5V11C3.75 11.275 3.975 11.5 4.25 11.5H4.75C5.025 11.5 5.25 11.275 5.25 11V10.5C5.25 10.225 5.025 10 4.75 10H4.25ZM4.25 13.25C3.975 13.25 3.75 13.475 3.75 13.75V14.25C3.75 14.525 3.975 14.75 4.25 14.75H4.75C5.025 14.75 5.25 14.525 5.25 14.25V13.75C5.25 13.475 5.025 13.25 4.75 13.25H4.25ZM4.25 16.5C3.975 16.5 3.75 16.725 3.75 17V17.5C3.75 17.775 3.975 18 4.25 18H4.75C5.025 18 5.25 17.775 5.25 17.5V17C5.25 16.725 5.025 16.5 4.75 16.5H4.25ZM14.75 17V17.5C14.75 17.775 14.975 18 15.25 18H15.75C16.025 18 16.25 17.775 16.25 17.5V17C16.25 16.725 16.025 16.5 15.75 16.5H15.25C14.975 16.5 14.75 16.725 14.75 17Z" fill="black"/>
</svg>
