<svg width="24" height="24" viewBox="0 0 24 24" fill="none" xmlns="http://www.w3.org/2000/svg">
<path d="M11.95 4.20627C12.0594 4.07189 12.2312 4.00314 12.4031 4.02814C13.8687 4.22502 15 5.48127 15 7.00002C15 7.35001 14.9406 7.68752 14.8281 8.00002H15C16.1031 8.00002 17 8.89689 17 10C17 10.5969 16.7375 11.1344 16.3219 11.5H16.75C17.9937 11.5 19 12.5063 19 13.75C19 14.475 18.6562 15.1188 18.125 15.5313C19.1906 15.7094 20 16.6344 20 17.75C20 18.9938 18.9937 20 17.75 20H6.25C5.00625 20 4 18.9938 4 17.75C4 16.6344 4.80938 15.7094 5.875 15.5313C5.34375 15.1188 5 14.475 5 13.75C5 12.5063 6.00625 11.5 7.25 11.5H7.67812C7.2625 11.1344 7 10.5969 7 10C7 8.89689 7.89687 8.00002 9 8.00002H9.50625C10.8844 7.99689 12 6.87814 12 5.50002C12 5.21251 11.9531 4.94064 11.8656 4.68439C11.8094 4.52189 11.8406 4.33752 11.9531 4.20314L11.95 4.20627Z" fill="black"/>
</svg>
