<svg width="24" height="24" viewBox="0 0 24 24" fill="none" xmlns="http://www.w3.org/2000/svg">
<path d="M8.49995 7C8.89778 7 9.27931 6.84196 9.56061 6.56066C9.84192 6.27936 9.99995 5.89782 9.99995 5.5C9.99995 5.10218 9.84192 4.72064 9.56061 4.43934C9.27931 4.15804 8.89778 4 8.49995 4C8.10213 4 7.7206 4.15804 7.43929 4.43934C7.15799 4.72064 6.99995 5.10218 6.99995 5.5C6.99995 5.89782 7.15799 6.27936 7.43929 6.56066C7.7206 6.84196 8.10213 7 8.49995 7ZM5.86558 10.2656C5.89683 10.2531 5.92495 10.2406 5.9562 10.2281L5.42808 12.2125C5.25308 12.8719 5.42495 13.575 5.88745 14.0781L8.09683 16.4875L8.78433 19.2406C8.9187 19.775 9.46245 20.1031 9.99683 19.9688C10.5312 19.8344 10.8593 19.2906 10.725 18.7563L10.0062 15.8781C9.94683 15.6344 9.82495 15.4125 9.6562 15.2281L8.10933 13.5406L8.71245 11.4938L9.01245 12.2125C9.14995 12.5437 9.40308 12.8156 9.72495 12.9781L10.5593 13.3938C11.0531 13.6406 11.6531 13.4406 11.9 12.9469C12.1468 12.4531 11.9468 11.8531 11.4531 11.6062L10.7812 11.2719L10.3031 10.1219C9.76558 8.8375 8.50933 8 7.11558 8C6.40308 8 5.69995 8.15 5.04995 8.4375L4.79995 8.54688C3.77183 9.00313 2.98433 9.87188 2.6312 10.9375L2.54995 11.1813C2.37495 11.7063 2.65933 12.2719 3.1812 12.4469C3.70308 12.6219 4.27183 12.3375 4.44683 11.8156L4.52808 11.5719C4.7062 11.0375 5.09995 10.6063 5.61245 10.3781L5.86245 10.2688L5.86558 10.2656ZM4.92808 14.4875L4.14683 16.4375L2.2937 18.2937C1.90308 18.6844 1.90308 19.3188 2.2937 19.7094C2.68433 20.1 3.3187 20.1 3.70933 19.7094L5.63433 17.7812C5.77808 17.6375 5.89058 17.4656 5.96558 17.2781L6.4187 16.1469L5.14683 14.7594C5.0687 14.675 4.99683 14.5844 4.92808 14.4906V14.4875ZM19.2062 8.79375C18.8156 8.40312 18.1812 8.40312 17.7906 8.79375C17.4 9.18437 17.4 9.81875 17.7906 10.2094L18.5843 11H14C13.4468 11 13 11.4469 13 12C13 12.5531 13.4468 13 14 13H18.5843L17.7906 13.7937C17.4 14.1844 17.4 14.8188 17.7906 15.2094C18.1812 15.6 18.8156 15.6 19.2062 15.2094L21.7062 12.7094C22.0968 12.3188 22.0968 11.6844 21.7062 11.2937L19.2062 8.79375Z" fill="black"/>
</svg>
