<svg width="24" height="24" viewBox="0 0 24 24" fill="none" xmlns="http://www.w3.org/2000/svg">
<path d="M16.3813 6.61874C15.6188 5.85624 14.3813 5.85624 13.6188 6.61874L7.86885 12.3687C6.55322 13.6844 6.55322 15.8156 7.86885 17.1312C9.18447 18.4469 11.3157 18.4469 12.6313 17.1312L17.3813 12.3812C17.722 12.0406 18.2782 12.0406 18.6188 12.3812C18.9595 12.7219 18.9595 13.2781 18.6188 13.6187L13.8688 18.3687C11.8688 20.3687 8.63135 20.3687 6.63135 18.3687C4.63135 16.3687 4.63135 13.1312 6.63135 11.1312L12.3813 5.38124C13.8282 3.93436 16.172 3.93436 17.6188 5.38124C19.0657 6.82811 19.0657 9.17186 17.6188 10.6187L12.1188 16.1187C11.2251 17.0125 9.7751 17.0125 8.88135 16.1187C7.9876 15.225 7.9876 13.775 8.88135 12.8812L13.3813 8.38124C13.722 8.04061 14.2782 8.04061 14.6188 8.38124C14.9595 8.72186 14.9595 9.27811 14.6188 9.61874L10.1188 14.1187C9.90947 14.3281 9.90947 14.6719 10.1188 14.8812C10.3282 15.0906 10.672 15.0906 10.8813 14.8812L16.3813 9.38124C17.1438 8.61874 17.1438 7.38124 16.3813 6.61874Z" fill="black"/>
</svg>
