<svg width="24" height="24" viewBox="0 0 24 24" fill="none" xmlns="http://www.w3.org/2000/svg">
<path d="M9 7.41484V10.7992L7.72813 11.5617C7.275 11.8336 7 12.3211 7 12.8492V19.9992H10V16.9992C10 15.8961 10.8969 14.9992 12 14.9992C13.1031 14.9992 14 15.8961 14 16.9992V19.9992H17V12.8492C17 12.3211 16.725 11.8336 16.2719 11.5617L15 10.7992V7.41484C15 7.14922 14.8938 6.89609 14.7063 6.70859L12.3531 4.35234C12.1594 4.15859 11.8406 4.15859 11.6469 4.35234L9.29375 6.70547C9.10625 6.89297 9 7.14609 9 7.41172V7.41484ZM2.77812 14.3211C2.29688 14.5867 2 15.0898 2 15.6367V18.4992C2 19.3273 2.67188 19.9992 3.5 19.9992H6V12.5492L2.77812 14.3211ZM20.5 19.9992C21.3281 19.9992 22 19.3273 22 18.4992V15.6367C22 15.0898 21.7031 14.5867 21.2219 14.3211L18 12.5492V19.9992H20.5Z" fill="black"/>
</svg>
