<svg width="24" height="24" viewBox="0 0 24 24" fill="none" xmlns="http://www.w3.org/2000/svg">
<path d="M11.9999 4C12.6629 4 13.2988 4.26339 13.7677 4.73223C14.2365 5.20107 14.4999 5.83696 14.4999 6.5C14.4999 7.16304 14.2365 7.79893 13.7677 8.26777C13.2988 8.73661 12.6629 9 11.9999 9C11.3369 9 10.701 8.73661 10.2321 8.26777C9.7633 7.79893 9.49991 7.16304 9.49991 6.5C9.49991 5.83696 9.7633 5.20107 10.2321 4.73223C10.701 4.26339 11.3369 4 11.9999 4ZM18.6499 15.9625L16.6718 18.4375C16.153 19.0844 15.2093 19.1906 14.5624 18.6719C14.0124 18.2312 13.853 17.4812 14.1405 16.8687L14.1155 16.8656C12.8999 16.6906 11.7937 16.0812 10.9999 15.1531V14C10.9999 13.4469 10.553 13 9.99991 13C9.44678 13 8.99991 13.4469 8.99991 14V15.5C8.99991 15.525 8.99991 15.55 9.00303 15.575L12.1718 17.1594C12.9124 17.5313 13.2124 18.4312 12.8437 19.1719C12.4749 19.9125 11.5718 20.2125 10.8312 19.8438L5.84991 17.3531C5.81553 17.3375 5.78116 17.3188 5.74678 17.3C5.59366 17.2125 5.45928 17.1 5.35303 16.9688C5.20928 16.8 5.10928 16.6031 5.05303 16.3938C4.94991 16.0188 4.99366 15.6062 5.20303 15.25C5.22178 15.2156 5.24366 15.1812 5.26553 15.15L7.36241 12.0031C8.19678 10.75 9.60303 10 11.1062 10H13.4562C14.9093 10 16.2718 10.7031 17.1187 11.8844L18.703 14.1C18.7718 14.1938 18.828 14.2906 18.8749 14.3938C18.9655 14.6031 19.0093 14.825 18.9999 15.0437C18.9905 15.375 18.8687 15.7 18.6499 15.9625ZM14.9999 14.375C14.9999 14.0103 14.855 13.6606 14.5972 13.4027C14.3393 13.1449 13.9896 13 13.6249 13C13.2602 13 12.9105 13.1449 12.6526 13.4027C12.3948 13.6606 12.2499 14.0103 12.2499 14.375C12.2499 14.7397 12.3948 15.0894 12.6526 15.3473C12.9105 15.6051 13.2602 15.75 13.6249 15.75C13.9896 15.75 14.3393 15.6051 14.5972 15.3473C14.855 15.0894 14.9999 14.7397 14.9999 14.375Z" fill="black"/>
</svg>
