<svg width="24" height="24" viewBox="0 0 24 24" fill="none" xmlns="http://www.w3.org/2000/svg">
<path d="M10.5 5.5001C10.5 5.10227 10.658 4.72074 10.9393 4.43944C11.2206 4.15813 11.6022 4.0001 12 4.0001C12.3978 4.0001 12.7793 4.15813 13.0606 4.43944C13.3419 4.72074 13.5 5.10227 13.5 5.5001C13.5 5.89792 13.3419 6.27945 13.0606 6.56076C12.7793 6.84206 12.3978 7.0001 12 7.0001C11.6022 7.0001 11.2206 6.84206 10.9393 6.56076C10.658 6.27945 10.5 5.89792 10.5 5.5001ZM11.75 15.0001V19.0001C11.75 19.5532 11.3031 20.0001 10.75 20.0001C10.1969 20.0001 9.74998 19.5532 9.74998 19.0001V12.0282L8.85623 13.5126C8.57185 13.9845 7.95623 14.1376 7.48435 13.8532C7.01248 13.5688 6.85935 12.9532 7.14373 12.4813L8.9656 9.4501C9.50935 8.54697 10.4844 7.99385 11.5375 7.99385H12.4656C13.5187 7.99385 14.4937 8.54697 15.0375 9.4501L16.8594 12.4813C17.1437 12.9532 16.9906 13.5688 16.5187 13.8532C16.0469 14.1376 15.4312 13.9845 15.1469 13.5126L14.25 12.0282V19.0001C14.25 19.5532 13.8031 20.0001 13.25 20.0001C12.6969 20.0001 12.25 19.5532 12.25 19.0001V15.0001H11.75ZM4.21873 4.21885C4.51248 3.92822 4.98748 3.92822 5.28123 4.21885L7.78123 6.71885C8.07498 7.0126 8.07498 7.4876 7.78123 7.77822C7.48748 8.06885 7.01248 8.07197 6.72185 7.77822L4.21873 5.28135C3.9281 4.9876 3.9281 4.5126 4.21873 4.21885ZM18.7187 4.21885C19.0125 3.9251 19.4875 3.9251 19.7781 4.21885C20.0687 4.5126 20.0719 4.9876 19.7781 5.27822L17.2781 7.77822C16.9844 8.07197 16.5094 8.07197 16.2187 7.77822C15.9281 7.48447 15.925 7.00947 16.2187 6.71885L18.7187 4.21885ZM4.21873 19.7813C3.92498 19.4876 3.92498 19.0126 4.21873 18.722L6.71873 16.222C7.01248 15.9282 7.48748 15.9282 7.7781 16.222C8.06873 16.5157 8.07185 16.9907 7.7781 17.2813L5.28123 19.7813C4.98748 20.0751 4.51248 20.0751 4.22185 19.7813H4.21873ZM18.7187 19.7813L16.2187 17.2813C15.925 16.9876 15.925 16.5126 16.2187 16.222C16.5125 15.9313 16.9875 15.9282 17.2781 16.222L19.7781 18.722C20.0719 19.0157 20.0719 19.4907 19.7781 19.7813C19.4844 20.072 19.0094 20.0751 18.7187 19.7813Z" fill="black"/>
</svg>
