<svg width="24" height="24" viewBox="0 0 24 24" fill="none" xmlns="http://www.w3.org/2000/svg">
<path d="M10.5001 5.49961C10.5001 5.10178 10.6581 4.72025 10.9394 4.43895C11.2207 4.15764 11.6023 3.99961 12.0001 3.99961C12.3979 3.99961 12.7795 4.15764 13.0608 4.43895C13.3421 4.72025 13.5001 5.10178 13.5001 5.49961C13.5001 5.89743 13.3421 6.27897 13.0608 6.56027C12.7795 6.84157 12.3979 6.99961 12.0001 6.99961C11.6023 6.99961 11.2207 6.84157 10.9394 6.56027C10.6581 6.27897 10.5001 5.89743 10.5001 5.49961ZM11.7501 14.9996V18.9996C11.7501 19.5527 11.3032 19.9996 10.7501 19.9996C10.197 19.9996 9.7501 19.5527 9.7501 18.9996V12.0277L8.85635 13.5121C8.57197 13.984 7.95635 14.1371 7.48447 13.8527C7.0126 13.5684 6.85947 12.9527 7.14385 12.4809L8.96572 9.44961C9.50947 8.54648 10.4845 7.99336 11.5376 7.99336H12.4657C13.5188 7.99336 14.4938 8.54648 15.0376 9.44961L16.8595 12.4809C17.1438 12.9527 16.9907 13.5684 16.5188 13.8527C16.047 14.1371 15.4313 13.984 15.147 13.5121L14.2501 12.0277V18.9996C14.2501 19.5527 13.8032 19.9996 13.2501 19.9996C12.697 19.9996 12.2501 19.5527 12.2501 18.9996V14.9996H11.7501ZM4.21885 4.21836C4.5126 3.92773 4.9876 3.92773 5.28135 4.21836L7.78135 6.71836C8.0751 7.01211 8.0751 7.48711 7.78135 7.77773C7.4876 8.06836 7.0126 8.07148 6.72197 7.77773L4.21885 5.28086C3.92822 4.98711 3.92822 4.51211 4.21885 4.21836ZM18.7188 4.21836C19.0126 3.92461 19.4876 3.92461 19.7782 4.21836C20.0688 4.51211 20.072 4.98711 19.7782 5.27773L17.2782 7.77773C16.9845 8.07148 16.5095 8.07148 16.2188 7.77773C15.9282 7.48398 15.9251 7.00898 16.2188 6.71836L18.7188 4.21836ZM4.21885 19.7809C3.9251 19.4871 3.9251 19.0121 4.21885 18.7215L6.71885 16.2215C7.0126 15.9277 7.4876 15.9277 7.77822 16.2215C8.06885 16.5152 8.07197 16.9902 7.77822 17.2809L5.28135 19.7809C4.9876 20.0746 4.5126 20.0746 4.22197 19.7809H4.21885ZM18.7188 19.7809L16.2188 17.2809C15.9251 16.9871 15.9251 16.5121 16.2188 16.2215C16.5126 15.9309 16.9876 15.9277 17.2782 16.2215L19.7782 18.7215C20.072 19.0152 20.072 19.4902 19.7782 19.7809C19.4845 20.0715 19.0095 20.0746 18.7188 19.7809Z" fill="black"/>
</svg>
