<svg width="24" height="24" viewBox="0 0 24 24" fill="none" xmlns="http://www.w3.org/2000/svg">
<path d="M9.24997 3.99998C9.55309 3.99998 9.82809 4.18123 9.94372 4.46248C10.0593 4.74373 9.99684 5.0656 9.78122 5.28123L8.56247 6.49998L10.3968 8.33435C10.8218 8.76248 11.4 8.99998 12 8.99998C12.6 8.99998 13.1781 8.76248 13.6031 8.33435L17.7187 4.21873C18.0125 3.92498 18.4875 3.92498 18.7781 4.21873C19.0687 4.51248 19.0718 4.98748 18.7781 5.2781L14.6656 9.39685C13.9562 10.1031 13 10.5 12 10.5C11 10.5 10.0437 10.1031 9.33434 9.39685L7.49997 7.55935L6.28122 8.7781C6.0656 8.99373 5.74372 9.05623 5.46247 8.9406C5.18122 8.82498 4.99997 8.54998 4.99997 8.24685V4.74998C4.99997 4.33435 5.33435 3.99998 5.74997 3.99998H9.24997ZM3.60622 19.3094L2.49997 17.3719C2.19685 16.8437 2.2406 16.1812 2.67185 15.7562C4.26872 14.1844 7.5656 12 12 12C16.4343 12 19.7312 14.1844 21.3281 15.7562C21.7625 16.1812 21.8031 16.8437 21.5 17.3719L20.3937 19.3094C20.1625 19.7125 19.6843 19.9062 19.2375 19.7719L15.7125 18.7125C15.2906 18.5843 15 18.1969 15 17.7562V16C13.0531 15.35 10.9468 15.35 8.99997 16V17.7562C8.99997 18.1969 8.70934 18.5875 8.28747 18.7125L4.76247 19.7719C4.3156 19.9062 3.83747 19.7156 3.60622 19.3094Z" fill="black"/>
</svg>
