<svg width="24" height="24" viewBox="0 0 24 24" fill="none" xmlns="http://www.w3.org/2000/svg">
<path d="M12.4031 4.00621C12.2312 3.98434 12.0594 4.04996 11.95 4.18434C11.8406 4.31871 11.8063 4.49996 11.8625 4.66246C11.95 4.91871 11.9969 5.19059 11.9969 5.47809C11.9969 6.15621 11.7312 6.64059 11.3125 6.96559C10.8812 7.30309 10.25 7.49684 9.50625 7.49684H9C7.89687 7.49684 7 8.39371 7 9.49684C7 9.87809 7.10625 10.2312 7.29063 10.5343C5.99063 10.7562 5 11.8875 5 13.25C5 14.5281 5.875 15.6062 7.05625 15.9125C6.89063 15.3343 7.0875 14.7093 7.5625 14.3281L12.5625 10.3281C13.1125 9.88746 13.8938 9.89059 14.4438 10.3343C14.9938 10.7781 15.1562 11.5406 14.8438 12.1718L13.9281 14H14.5C15.1375 14 15.7031 14.4031 15.9156 15.0031C16.0312 15.3343 16.025 15.6843 15.9156 16H16.25C17.7688 16 19 14.7687 19 13.25C19 11.8875 18.0094 10.7562 16.7094 10.5375C16.8938 10.2343 17 9.87809 17 9.49996C17 8.39684 16.1031 7.49996 15 7.49996H14.9563C14.9844 7.33121 15 7.15934 15 6.98121C15 5.45934 13.8719 4.20309 12.4031 4.00621ZM13.8125 11.1125C13.6313 10.9656 13.3687 10.9656 13.1844 11.1093L8.18438 15.1093C8.01875 15.2406 7.95312 15.4656 8.025 15.6656C8.09688 15.8656 8.28437 16 8.49688 16H10.6875L9.05312 19.275C8.94687 19.4843 9.00313 19.7406 9.1875 19.8875C9.37187 20.0343 9.63125 20.0343 9.81563 19.8906L14.8156 15.8906C14.9812 15.7593 15.0469 15.5343 14.975 15.3343C14.9031 15.1343 14.7156 15 14.5031 15H12.3094L13.9469 11.725C14.0531 11.5156 13.9969 11.2593 13.8125 11.1125Z" fill="black"/>
</svg>
