<svg width="24" height="24" viewBox="0 0 24 24" fill="none" xmlns="http://www.w3.org/2000/svg">
<path d="M5.5 4.75C5.5 5.57812 5.82812 5.95937 6.30937 6.50312L6.32188 6.51562C6.8375 7.09375 7.5 7.84063 7.5 9.25C7.5 9.66563 7.16563 10 6.75 10C6.33437 10 6 9.66563 6 9.25C6 8.42188 5.67187 8.04063 5.19062 7.49688L5.17812 7.48438C4.6625 6.90625 4 6.15937 4 4.75C4 4.33437 4.33437 4 4.75 4C5.16563 4 5.5 4.33437 5.5 4.75ZM9 4.75C9 5.57812 9.32812 5.95937 9.80937 6.50312L9.82188 6.51562C10.3375 7.09375 11 7.84063 11 9.25C11 9.66563 10.6656 10 10.25 10C9.83437 10 9.5 9.66563 9.5 9.25C9.5 8.42188 9.17188 8.04063 8.69063 7.49688L8.67812 7.48438C8.1625 6.90625 7.5 6.15937 7.5 4.75C7.5 4.33437 7.83437 4 8.25 4C8.66563 4 9 4.33437 9 4.75ZM15.5 7.5C17.0844 7.5 18.425 8.55313 18.8563 10H12.1438C12.575 8.55313 13.9125 7.5 15.5 7.5ZM4.42812 14H3.5C2.94687 14 2.5 13.5531 2.5 13C2.5 12.4469 2.94687 12 3.5 12H4.05938C4.05313 11.4531 4.49687 11 5.05 11H18.95C19.5031 11 19.9469 11.4531 19.9406 12H20.5C21.0531 12 21.5 12.4469 21.5 13C21.5 13.5531 21.0531 14 20.5 14H19.5719C18.9281 16 17.5063 17.6469 15.675 18.6L15.6375 18.9031C15.5594 19.5281 15.0281 19.9969 14.3969 19.9969H9.60313C8.97188 19.9969 8.44063 19.5281 8.3625 18.9031L8.325 18.6C6.49375 17.6469 5.07187 16 4.42812 14Z" fill="black"/>
</svg>
