<svg width="24" height="24" viewBox="0 0 24 24" fill="none" xmlns="http://www.w3.org/2000/svg">
<path d="M10.825 4.87498C11.9968 3.70623 13.9 3.70623 15.075 4.87498L18.6218 8.4156C19.5343 9.3281 19.7375 10.6781 19.2281 11.7844C18.45 11.2906 17.5281 11.0031 16.5375 11.0031C14.2875 11.0031 12.3812 12.4812 11.7468 14.5187L7.86558 10.65C7.6687 10.4562 7.35308 10.4562 7.15933 10.65C6.96558 10.8437 6.96558 11.1625 7.15933 11.3562L11.5312 15.7156C11.525 15.8094 11.5218 15.9062 11.5218 16C11.5218 16.8687 11.7437 17.6812 12.1343 18.3937C11.8437 18.4094 11.55 18.3625 11.2718 18.2469L9.49995 17.5219C8.75308 17.2156 7.8937 17.3875 7.32495 17.9562L5.63745 19.6343C5.14995 20.1218 4.3562 20.1218 3.86558 19.6343C3.37495 19.1468 3.37808 18.3562 3.86558 17.8687L5.53745 16.2C6.11245 15.6281 6.2812 14.7687 5.97183 14.0187L5.22183 12.2125C4.90933 11.4656 5.0812 10.6062 5.6562 10.0344L10.825 4.87498ZM12.5 16C12.5 14.9391 12.9214 13.9217 13.6715 13.1715C14.4217 12.4214 15.4391 12 16.5 12C17.5608 12 18.5782 12.4214 19.3284 13.1715C20.0785 13.9217 20.5 14.9391 20.5 16C20.5 17.0608 20.0785 18.0783 19.3284 18.8284C18.5782 19.5785 17.5608 20 16.5 20C15.4391 20 14.4217 19.5785 13.6715 18.8284C12.9214 18.0783 12.5 17.0608 12.5 16ZM13.5 15.5C13.5 15.6326 13.5526 15.7598 13.6464 15.8535C13.7402 15.9473 13.8673 16 14 16C14.1326 16 14.2597 15.9473 14.3535 15.8535C14.4473 15.7598 14.5 15.6326 14.5 15.5C14.5 15.3674 14.4473 15.2402 14.3535 15.1464C14.2597 15.0527 14.1326 15 14 15C13.8673 15 13.7402 15.0527 13.6464 15.1464C13.5526 15.2402 13.5 15.3674 13.5 15.5ZM16 18C15.8673 18 15.7402 18.0527 15.6464 18.1464C15.5526 18.2402 15.5 18.3674 15.5 18.5C15.5 18.6326 15.5526 18.7598 15.6464 18.8535C15.7402 18.9473 15.8673 19 16 19C16.1326 19 16.2597 18.9473 16.3535 18.8535C16.4473 18.7598 16.5 18.6326 16.5 18.5C16.5 18.3674 16.4473 18.2402 16.3535 18.1464C16.2597 18.0527 16.1326 18 16 18ZM16 16C16 16.1326 16.0526 16.2598 16.1464 16.3535C16.2402 16.4473 16.3673 16.5 16.5 16.5C16.6326 16.5 16.7597 16.4473 16.8535 16.3535C16.9473 16.2598 17 16.1326 17 16C17 15.8674 16.9473 15.7402 16.8535 15.6464C16.7597 15.5527 16.6326 15.5 16.5 15.5C16.3673 15.5 16.2402 15.5527 16.1464 15.6464C16.0526 15.7402 16 15.8674 16 16ZM19 16C18.8673 16 18.7402 16.0527 18.6464 16.1464C18.5526 16.2402 18.5 16.3674 18.5 16.5C18.5 16.6326 18.5526 16.7598 18.6464 16.8535C18.7402 16.9473 18.8673 17 19 17C19.1326 17 19.2597 16.9473 19.3535 16.8535C19.4473 16.7598 19.5 16.6326 19.5 16.5C19.5 16.3674 19.4473 16.2402 19.3535 16.1464C19.2597 16.0527 19.1326 16 19 16ZM16.5 13.5C16.5 13.6326 16.5526 13.7598 16.6464 13.8535C16.7402 13.9473 16.8673 14 17 14C17.1326 14 17.2597 13.9473 17.3535 13.8535C17.4473 13.7598 17.5 13.6326 17.5 13.5C17.5 13.3674 17.4473 13.2402 17.3535 13.1464C17.2597 13.0527 17.1326 13 17 13C16.8673 13 16.7402 13.0527 16.6464 13.1464C16.5526 13.2402 16.5 13.3674 16.5 13.5Z" fill="black"/>
</svg>
