<svg width="24" height="24" viewBox="0 0 24 24" fill="none" xmlns="http://www.w3.org/2000/svg">
<path d="M10.5 16L10.2406 13.925L6.80312 13.5813L6.55625 15.5625C6.525 15.8125 6.3125 16 6.05938 16H4.94062C4.6875 16 4.475 15.8125 4.44375 15.5625L4.125 12.9937C4.08438 13 4.04375 13 4 13C3.44687 13 3 12.5531 3 12C3 11.4469 3.44687 11 4 11C4.04062 11 4.08438 11.0031 4.125 11.0062L4.44375 8.4375C4.475 8.1875 4.6875 8 4.94062 8H6.05938C6.3125 8 6.525 8.1875 6.55625 8.4375L6.80312 10.4187L10.2406 10.075L10.5 8H10C9.44687 8 9 7.55313 9 7C9 6.44687 9.44687 6 10 6H10.75L10.9437 4.4375C10.975 4.1875 11.1875 4 11.4406 4H12.5594C12.8125 4 13.025 4.1875 13.0562 4.4375L13.25 6H14.5V5.5C14.5 5.225 14.725 5 15 5C15.275 5 15.5 5.225 15.5 5.5V6.5C15.775 6.5 16 6.725 16 7C16 7.275 15.775 7.5 15.5 7.5V8.5C15.5 8.775 15.275 9 15 9C14.725 9 14.5 8.775 14.5 8.5V8H13.5L13.75 10H18.0719C19.1406 10 21 10.9062 21 12C21 13.125 19.1406 14 18.0719 14H13.75L13.5 16H14.5V15.5C14.5 15.225 14.725 15 15 15C15.275 15 15.5 15.225 15.5 15.5V16.5C15.775 16.5 16 16.725 16 17C16 17.275 15.775 17.5 15.5 17.5V18.5C15.5 18.775 15.275 19 15 19C14.725 19 14.5 18.775 14.5 18.5V18H13.25L13.0562 19.5625C13.025 19.8125 12.8125 20 12.5594 20H11.4406C11.1875 20 10.975 19.8125 10.9437 19.5625L10.75 18H10C9.44687 18 9 17.5531 9 17C9 16.4469 9.44687 16 10 16H10.5Z" fill="black"/>
</svg>
