<svg width="24" height="24" viewBox="0 0 24 24" fill="none" xmlns="http://www.w3.org/2000/svg">
<path d="M6 4C5.44687 4 5 4.44687 5 5V10V13C5 13.5531 5.44687 14 6 14C6.55313 14 7 13.5531 7 13V11H8.58437L12.5844 15L9.29375 18.2937C8.90312 18.6844 8.90312 19.3188 9.29375 19.7094C9.68437 20.1 10.3187 20.1 10.7094 19.7094L14 16.4156L17.2937 19.7063C17.6844 20.0969 18.3188 20.0969 18.7094 19.7063C19.1 19.3156 19.1 18.6812 18.7094 18.2906L15.4156 15L18.7063 11.7063C19.0969 11.3156 19.0969 10.6813 18.7063 10.2906C18.3156 9.9 17.6812 9.9 17.2906 10.2906L14 13.5844L11.3187 10.9031C12.8562 10.5344 14 9.15 14 7.5C14 5.56562 12.4344 4 10.5 4H6ZM10.5 9H7V6H10.5C11.3281 6 12 6.67188 12 7.5C12 8.32812 11.3281 9 10.5 9Z" fill="black"/>
</svg>
