<svg width="24" height="24" viewBox="0 0 24 24" fill="none" xmlns="http://www.w3.org/2000/svg">
<path d="M17.6906 5.00627C17.8313 4.61564 17.6313 4.18752 17.2438 4.04377C16.8563 3.90002 16.4219 4.10314 16.2813 4.49377L16.1375 4.89064L14.2719 4.20939C13.8813 4.06877 13.4531 4.26877 13.3094 4.65627L12.1125 7.94689C11.9719 8.33752 12.1719 8.76564 12.5594 8.90939L14.425 9.58752L13.9438 10.9125L13.0438 10.575C12.7406 10.4594 12.4688 10.275 12.25 10.0313L11.3438 9.00627C10.775 8.36564 9.95938 8.00002 9.10001 8.00002H8.23751C7.10001 8.00002 6.06251 8.64064 5.55313 9.65939L4.10626 12.5531C3.85938 13.0469 4.05938 13.6469 4.55313 13.8938C5.04688 14.1406 5.64688 13.9406 5.89376 13.4469L6.50001 12.2375V19C6.50001 19.5531 6.94688 20 7.50001 20C8.05313 20 8.50001 19.5531 8.50001 19V15H9.13126L10 16.7375V19C10 19.5531 10.4469 20 11 20C11.5531 20 12 19.5531 12 19V16.7375C12 16.4281 11.9281 16.1219 11.7875 15.8438L10.75 13.7625V11.35L10.7594 11.3594C11.1906 11.8469 11.7344 12.2188 12.3438 12.4469L13.2594 12.7906L13.0313 13.4219C12.8906 13.8125 13.0906 14.2406 13.4781 14.3844C13.8656 14.5281 14.2969 14.325 14.4406 13.9375L15.8344 10.1063L17.7281 10.7938C18.1188 10.9344 18.5469 10.7344 18.6906 10.3469L19.8875 7.05314C20.0281 6.66252 19.8281 6.23439 19.4406 6.09064L17.5469 5.40314L17.6906 5.00627ZM10 5.50002C10 5.10219 9.84197 4.72066 9.56067 4.43936C9.27936 4.15805 8.89783 4.00002 8.50001 4.00002C8.10218 4.00002 7.72065 4.15805 7.43935 4.43936C7.15804 4.72066 7.00001 5.10219 7.00001 5.50002C7.00001 5.89784 7.15804 6.27937 7.43935 6.56068C7.72065 6.84198 8.10218 7.00002 8.50001 7.00002C8.89783 7.00002 9.27936 6.84198 9.56067 6.56068C9.84197 6.27937 10 5.89784 10 5.50002Z" fill="black"/>
</svg>
