<svg width="24" height="24" viewBox="0 0 24 24" fill="none" xmlns="http://www.w3.org/2000/svg">
<path d="M8 6.92812C8 5.85937 8.90625 4 10 4C11.125 4 12 5.85937 12 6.92812V9.57188L15.1812 11.3906C15.0625 11.7375 15 12.1125 15 12.5V13.2688C14.4406 13.5938 14.0531 14.1781 14.0063 14.8594L12 14.2844V16.5L13.8 17.85C13.925 17.9438 14 18.0938 14 18.25V19V19.5625C14 19.8063 13.8031 20 13.5625 20C13.5219 20 13.4813 19.9938 13.4406 19.9844L10 19L6.55937 19.9844C6.51875 19.9969 6.47812 20 6.4375 20C6.19375 20 6 19.8031 6 19.5625V18.25C6 18.0938 6.075 17.9438 6.2 17.85L8 16.5V14.2844L2.6375 15.8156C2.31875 15.9094 2 15.6687 2 15.3375V13.2906C2 13.1125 2.09688 12.9469 2.25313 12.8562L8 9.57188V6.92812ZM18.5 11.5C17.9469 11.5 17.5 11.9469 17.5 12.5V14H19.5V12.5C19.5 11.9469 19.0531 11.5 18.5 11.5ZM16 12.5C16 11.1187 17.1187 10 18.5 10C19.8813 10 21 11.1187 21 12.5V14C21.5531 14 22 14.4469 22 15V19C22 19.5531 21.5531 20 21 20H16C15.4469 20 15 19.5531 15 19V15C15 14.4469 15.4469 14 16 14V12.5Z" fill="black"/>
</svg>
