<svg width="24" height="24" viewBox="0 0 24 24" fill="none" xmlns="http://www.w3.org/2000/svg">
<path d="M19.7812 5.28135L15.5625 9.5001H17C17.4156 9.5001 17.75 9.83447 17.75 10.2501C17.75 10.6657 17.4156 11.0001 17 11.0001H13.75C13.3344 11.0001 13 10.6657 13 10.2501V7.0001C13 6.58447 13.3344 6.2501 13.75 6.2501C14.1656 6.2501 14.5 6.58447 14.5 7.0001V8.44072L18.7188 4.21885C19.0125 3.9251 19.4875 3.9251 19.7781 4.21885C20.0688 4.5126 20.0719 4.9876 19.7781 5.27822L19.7812 5.28135ZM7.67188 4.04385C8.27812 3.87822 8.9125 4.1876 9.15312 4.76885L10.4031 7.76885C10.6156 8.27822 10.4688 8.86885 10.0406 9.21572L8.5 10.4782C9.54063 12.6782 11.3219 14.4595 13.5219 15.5001L14.7812 13.9595C15.1313 13.5313 15.7188 13.3845 16.2281 13.597L19.2281 14.847C19.8094 15.0876 20.1187 15.722 19.9531 16.3282L19.2031 19.0782C19.0562 19.622 18.5625 20.0001 18 20.0001C10.2688 20.0001 4 13.7313 4 6.0001C4 5.4376 4.37813 4.94385 4.92188 4.79385L7.67188 4.04385Z" fill="black"/>
</svg>
