<svg width="24" height="24" viewBox="0 0 24 24" fill="none" xmlns="http://www.w3.org/2000/svg">
<path d="M17 11.4406V9H17.5L17.8062 9.6125C18.1969 10.3969 19.125 10.75 19.9406 10.425C20.5812 10.1688 21 9.55 21 8.85938V6.5C21 5.90313 20.7375 5.36563 20.3219 5H20.5C20.775 5 21 4.775 21 4.5C21 4.225 20.775 4 20.5 4H18H17C14.825 4 13.0531 5.7375 13 7.9L8.77812 5.08438C8.625 4.98125 8.42812 4.97188 8.26562 5.05938C8.10313 5.14688 8 5.31562 8 5.5C8 7.00312 8.11875 8.62187 8.8125 9.86875C9.1 10.3875 9.49062 10.8469 10.0062 11.2031C9.78125 11.125 9.56875 11.0344 9.37187 10.9281C8.66875 10.55 8.16563 10.0094 7.8125 9.37187C7.58437 8.95937 7.41563 8.50312 7.29688 8.02812C6.4875 8.1375 5.79375 8.60938 5.3875 9.27812C4.0375 9.45312 3 10.6062 3 12V13.75C3 14.1656 3.33437 14.5 3.75 14.5C4.16562 14.5 4.5 14.1656 4.5 13.75V12C4.5 11.5813 4.70625 11.2125 5.02187 10.9844C5.07187 11.3906 5.21875 11.7781 5.44688 12.1219L6.32812 13.4469C6.5875 13.8344 6.52813 14.3438 6.29063 14.7469C5.775 15.6219 5.64688 16.6906 5.97813 17.6812L6.525 19.3188C6.6625 19.7281 7.04375 20.0031 7.475 20.0031H8.52812C9.20937 20.0031 9.69375 19.3344 9.47813 18.6875L8.82812 16.7344C8.7625 16.5344 8.8125 16.3156 8.9625 16.1656L9.35938 15.7688C9.77187 15.3562 10.0031 14.7969 10.0031 14.2156C10.0031 14.1438 10 14.0719 9.99375 14L12.6187 14.75C12.7469 14.7875 12.875 14.8156 13.0031 14.8375V19C13.0031 19.5531 13.45 20 14.0031 20H15.0031C15.5563 20 16.0031 19.5531 16.0031 19V13.8656C16.6031 13.2656 16.9875 12.4375 17.0031 11.5V11.4406H17ZM18.5 6C18.6326 6 18.7598 6.05268 18.8536 6.14645C18.9473 6.24021 19 6.36739 19 6.5C19 6.63261 18.9473 6.75979 18.8536 6.85355C18.7598 6.94732 18.6326 7 18.5 7C18.3674 7 18.2402 6.94732 18.1464 6.85355C18.0527 6.75979 18 6.63261 18 6.5C18 6.36739 18.0527 6.24021 18.1464 6.14645C18.2402 6.05268 18.3674 6 18.5 6Z" fill="black"/>
</svg>
