<svg width="24" height="24" viewBox="0 0 24 24" fill="none" xmlns="http://www.w3.org/2000/svg">
<path d="M15.9999 5.5C15.9999 5.30302 16.0387 5.10796 16.1141 4.92597C16.1895 4.74399 16.3 4.57863 16.4392 4.43934C16.5785 4.30005 16.7439 4.18956 16.9259 4.11418C17.1079 4.0388 17.3029 4 17.4999 4C17.6969 4 17.8919 4.0388 18.0739 4.11418C18.2559 4.18956 18.4213 4.30005 18.5606 4.43934C18.6999 4.57863 18.8103 4.74399 18.8857 4.92597C18.9611 5.10796 18.9999 5.30302 18.9999 5.5C18.9999 5.69698 18.9611 5.89204 18.8857 6.07403C18.8103 6.25601 18.6999 6.42137 18.5606 6.56066C18.4213 6.69995 18.2559 6.81044 18.0739 6.88582C17.8919 6.9612 17.6969 7 17.4999 7C17.3029 7 17.1079 6.9612 16.9259 6.88582C16.7439 6.81044 16.5785 6.69995 16.4392 6.56066C16.3 6.42137 16.1895 6.25601 16.1141 6.07403C16.0387 5.89204 15.9999 5.69698 15.9999 5.5ZM8.9999 8C8.9999 7.44688 9.44678 7 9.9999 7H14.9812C16.3437 7 16.9999 8.66875 16.0062 9.59688L13.6812 11.7656L15.5624 13.6469C15.8437 13.9281 16.003 14.3094 16.003 14.7063V17C16.003 17.5531 15.5562 18 15.003 18C14.4499 18 14.003 17.5531 14.003 17V14.9156L11.5687 12.4844C10.7374 11.6531 10.7999 10.2875 11.703 9.53438L12.3405 9.00313H9.9999C9.44678 9.00313 8.9999 8.55625 8.9999 8.00313V8ZM7.54365 15.0437L10.2593 12.3281C10.403 12.6406 10.603 12.9312 10.8624 13.1875L11.5437 13.8687L8.95928 16.4531C8.56865 16.8438 7.93428 16.8438 7.54365 16.4531C7.15303 16.0625 7.15303 15.4281 7.54365 15.0375V15.0437ZM17.6218 18.0156C17.8905 18.0813 18.053 18.3531 17.9843 18.6219L17.9718 18.675C17.778 19.4531 17.078 20 16.2749 20H13.4999C13.2249 20 12.9999 19.775 12.9999 19.5C12.9999 19.225 13.2249 19 13.4999 19H16.2749C16.6187 19 16.9187 18.7656 17.003 18.4312L17.0155 18.3781C17.0812 18.1094 17.353 17.9469 17.6218 18.0156ZM9.2249 18.9469L9.03115 19.0437C8.35615 19.3812 7.54365 19.25 7.0124 18.7156L5.14678 16.8531C4.95303 16.6594 4.95303 16.3406 5.14678 16.1469C5.34053 15.9531 5.65928 15.9531 5.85303 16.1469L7.71553 18.0094C7.94365 18.2375 8.29365 18.2937 8.58115 18.15L8.7749 18.0531C9.02178 17.9281 9.32178 18.0312 9.44678 18.2781C9.57178 18.525 9.46865 18.825 9.22178 18.95L9.2249 18.9469Z" fill="black"/>
</svg>
