<svg width="24" height="24" viewBox="0 0 24 24" fill="none" xmlns="http://www.w3.org/2000/svg">
<path d="M16 5.5C16 5.30302 15.9612 5.10796 15.8858 4.92597C15.8104 4.74399 15.6999 4.57863 15.5607 4.43934C15.4214 4.30005 15.256 4.18956 15.074 4.11418C14.892 4.0388 14.697 4 14.5 4C14.303 4 14.108 4.0388 13.926 4.11418C13.744 4.18956 13.5786 4.30005 13.4393 4.43934C13.3001 4.57863 13.1896 4.74399 13.1142 4.92597C13.0388 5.10796 13 5.30302 13 5.5C13 5.69698 13.0388 5.89204 13.1142 6.07403C13.1896 6.25601 13.3001 6.42137 13.4393 6.56066C13.5786 6.69995 13.744 6.81044 13.926 6.88582C14.108 6.9612 14.303 7 14.5 7C14.697 7 14.892 6.9612 15.074 6.88582C15.256 6.81044 15.4214 6.69995 15.5607 6.56066C15.6999 6.42137 15.8104 6.25601 15.8858 6.07403C15.9612 5.89204 16 5.69698 16 5.5ZM15.35 9L13.4187 7.475C12.8781 7.05 12.1156 7.04375 11.5719 7.46563L8.975 9.47188C8.01562 10.2156 8.08438 11.6844 9.10938 12.3344L11 13.5344V17C11 17.5531 11.4469 18 12 18C12.5531 18 13 17.5531 13 17V13C13 12.6656 12.8344 12.3531 12.5562 12.1687L11.2188 11.2781L13.1031 9.7625L14.375 10.7812C14.5531 10.9219 14.7719 11 15 11H17C17.5531 11 18 10.5531 18 10C18 9.44687 17.5531 9 17 9H15.35ZM7.8875 9.20937L11.0875 6.80938C11.3125 6.64063 11.3531 6.31875 11.1781 6.09687L10.7125 5.5125C10.0375 4.66875 8.81562 4.5125 7.95 5.1625L5.9125 6.69062C5.6875 6.85937 5.64688 7.18125 5.82188 7.40313L7.19688 9.12187C7.36563 9.33125 7.67187 9.37187 7.8875 9.20937ZM5.75 12C5.37187 12 5.05937 12.2781 5.00625 12.6438C4.76875 12.7125 4.54063 12.8094 4.32812 12.925C4.03438 12.7031 3.61563 12.7281 3.35 12.9969L2.99375 13.3469C2.725 13.6156 2.70312 14.0312 2.92188 14.325C2.80625 14.5406 2.70938 14.7656 2.64062 15.0063C2.27812 15.0594 2 15.3719 2 15.75V16.25C2 16.6281 2.27813 16.9406 2.64375 16.9937C2.7125 17.2312 2.80938 17.4594 2.925 17.675C2.70625 17.9688 2.72812 18.3875 2.99687 18.6531L3.35 19.0063C3.61875 19.275 4.03438 19.2969 4.32812 19.075C4.54063 19.1906 4.76875 19.2875 5.00625 19.3562C5.05937 19.7219 5.37187 20 5.75 20H6.25C6.62813 20 6.94063 19.7219 6.99375 19.3562C7.23125 19.2875 7.45937 19.1906 7.67188 19.075C7.96562 19.2937 8.38438 19.2719 8.65 19.0063L9.00313 18.6531C9.27188 18.3844 9.29375 17.9688 9.075 17.675C9.19062 17.4625 9.2875 17.2344 9.35625 16.9969C9.71875 16.9437 10 16.6313 10 16.2531V15.75C10 15.3719 9.72187 15.0594 9.35625 15.0063C9.2875 14.7688 9.19062 14.5406 9.075 14.3281C9.29375 14.0344 9.27188 13.6156 9.00313 13.35L8.65 12.9969C8.38125 12.7281 7.96562 12.7063 7.67188 12.925C7.45937 12.8094 7.23125 12.7125 6.99375 12.6438C6.94063 12.2781 6.62813 12 6.25 12H5.75ZM6 14C6.53043 14 7.03914 14.2107 7.41421 14.5858C7.78929 14.9609 8 15.4696 8 16C8 16.5304 7.78929 17.0391 7.41421 17.4142C7.03914 17.7893 6.53043 18 6 18C5.46957 18 4.96086 17.7893 4.58579 17.4142C4.21071 17.0391 4 16.5304 4 16C4 15.4696 4.21071 14.9609 4.58579 14.5858C4.96086 14.2107 5.46957 14 6 14ZM17.0063 12.6438C16.7688 12.7125 16.5406 12.8094 16.3281 12.925C16.0344 12.7031 15.6156 12.7281 15.35 12.9969L14.9969 13.35C14.7281 13.6188 14.7063 14.0344 14.9281 14.3281C14.8125 14.5438 14.7156 14.7687 14.6469 15.0094C14.2781 15.0594 14 15.3719 14 15.75V16.25C14 16.6281 14.2781 16.9406 14.6438 16.9937C14.7125 17.2312 14.8094 17.4594 14.925 17.675C14.7063 17.9688 14.7281 18.3875 14.9937 18.6531L15.3469 19.0063C15.6125 19.275 16.0312 19.2969 16.325 19.075C16.5375 19.1906 16.7656 19.2875 17.0031 19.3562C17.0563 19.7187 17.3687 20 17.7469 20H18.2469C18.625 20 18.9375 19.7219 18.9906 19.3562C19.2281 19.2875 19.4562 19.1906 19.6719 19.075C19.9656 19.2937 20.3844 19.2719 20.65 19.0063L21.0031 18.6531C21.2719 18.3844 21.2937 17.9688 21.0719 17.675C21.1875 17.4625 21.2844 17.2344 21.3531 16.9969C21.7156 16.9437 21.9969 16.6313 21.9969 16.2531V15.75C21.9969 15.3719 21.7187 15.0594 21.3531 15.0063C21.2844 14.7688 21.1875 14.5406 21.0719 14.3281C21.2906 14.0344 21.2687 13.6156 21.0031 13.35L20.65 12.9969C20.3812 12.7281 19.9656 12.7063 19.6719 12.925C19.4562 12.8094 19.2313 12.7125 18.9906 12.6438C18.9406 12.2781 18.6281 12 18.25 12H17.75C17.3719 12 17.0594 12.2781 17.0063 12.6438ZM16 16C16 15.4696 16.2107 14.9609 16.5858 14.5858C16.9609 14.2107 17.4696 14 18 14C18.5304 14 19.0391 14.2107 19.4142 14.5858C19.7893 14.9609 20 15.4696 20 16C20 16.5304 19.7893 17.0391 19.4142 17.4142C19.0391 17.7893 18.5304 18 18 18C17.4696 18 16.9609 17.7893 16.5858 17.4142C16.2107 17.0391 16 16.5304 16 16Z" fill="black"/>
</svg>
