<svg width="24" height="24" viewBox="0 0 24 24" fill="none" xmlns="http://www.w3.org/2000/svg">
<path d="M16 5.5C16 5.30302 16.0388 5.10796 16.1142 4.92597C16.1896 4.74399 16.3001 4.57863 16.4394 4.43934C16.5787 4.30005 16.744 4.18956 16.926 4.11418C17.108 4.0388 17.303 4 17.5 4C17.697 4 17.8921 4.0388 18.074 4.11418C18.256 4.18956 18.4214 4.30005 18.5607 4.43934C18.7 4.57863 18.8105 4.74399 18.8858 4.92597C18.9612 5.10796 19 5.30302 19 5.5C19 5.69698 18.9612 5.89204 18.8858 6.07403C18.8105 6.25601 18.7 6.42137 18.5607 6.56066C18.4214 6.69995 18.256 6.81044 18.074 6.88582C17.8921 6.9612 17.697 7 17.5 7C17.303 7 17.108 6.9612 16.926 6.88582C16.744 6.81044 16.5787 6.69995 16.4394 6.56066C16.3001 6.42137 16.1896 6.25601 16.1142 6.07403C16.0388 5.89204 16 5.69698 16 5.5ZM9.00002 8C9.00002 7.44688 9.4469 7 10 7H14.9813C16.3438 7 17 8.66875 16.0063 9.59688L13.6813 11.7656L15.5625 13.6469C15.8438 13.9281 16.0031 14.3094 16.0031 14.7063V17C16.0031 17.5531 15.5563 18 15.0031 18C14.45 18 14.0031 17.5531 14.0031 17V14.9156L11.5688 12.4844C10.7375 11.6531 10.8 10.2875 11.7031 9.53438L12.3406 9.00313H10C9.4469 9.00313 9.00002 8.55625 9.00002 8.00313V8ZM7.54377 15.0437L10.2594 12.3281C10.4031 12.6406 10.6031 12.9312 10.8625 13.1875L11.5438 13.8687L8.9594 16.4531C8.56877 16.8438 7.9344 16.8438 7.54377 16.4531C7.15315 16.0625 7.15315 15.4281 7.54377 15.0375V15.0437ZM17.6219 18.0156C17.8906 18.0813 18.0532 18.3531 17.9844 18.6219L17.9719 18.675C17.7781 19.4531 17.0781 20 16.275 20H13.5C13.225 20 13 19.775 13 19.5C13 19.225 13.225 19 13.5 19H16.275C16.6188 19 16.9188 18.7656 17.0031 18.4312L17.0156 18.3781C17.0813 18.1094 17.3531 17.9469 17.6219 18.0156ZM9.22502 18.9469L9.03127 19.0437C8.35627 19.3812 7.54377 19.25 7.01252 18.7156L5.1469 16.8531C4.95315 16.6594 4.95315 16.3406 5.1469 16.1469C5.34065 15.9531 5.6594 15.9531 5.85315 16.1469L7.71565 18.0094C7.94377 18.2375 8.29377 18.2937 8.58127 18.15L8.77502 18.0531C9.0219 17.9281 9.3219 18.0312 9.4469 18.2781C9.5719 18.525 9.46877 18.825 9.2219 18.95L9.22502 18.9469Z" fill="black"/>
</svg>
