<svg width="24" height="24" viewBox="0 0 24 24" fill="none" xmlns="http://www.w3.org/2000/svg">
<path d="M12.4846 4.1251L21.4846 9.1251C21.9658 9.39385 22.1408 10.0032 21.8721 10.4845C21.6033 10.9657 20.994 11.1407 20.5127 10.872L12.0002 6.14385L3.48459 10.8751C3.00334 11.1438 2.39396 10.9688 2.12521 10.4876C1.85646 10.0063 2.03146 9.39697 2.51271 9.12822L11.5158 4.1251C11.819 3.95635 12.1846 3.95635 12.4877 4.1251H12.4846ZM12.0002 9.0001C12.3317 9.0001 12.6497 9.13179 12.8841 9.36621C13.1185 9.60063 13.2502 9.91858 13.2502 10.2501C13.2502 10.5816 13.1185 10.8996 12.8841 11.134C12.6497 11.3684 12.3317 11.5001 12.0002 11.5001C11.6687 11.5001 11.3507 11.3684 11.1163 11.134C10.8819 10.8996 10.7502 10.5816 10.7502 10.2501C10.7502 9.91858 10.8819 9.60063 11.1163 9.36621C11.3507 9.13179 11.6687 9.0001 12.0002 9.0001ZM6.50021 12.0001C6.83173 12.0001 7.14967 12.1318 7.3841 12.3662C7.61852 12.6006 7.75021 12.9186 7.75021 13.2501C7.75021 13.5816 7.61852 13.8996 7.3841 14.134C7.14967 14.3684 6.83173 14.5001 6.50021 14.5001C6.16869 14.5001 5.85075 14.3684 5.61633 14.134C5.38191 13.8996 5.25021 13.5816 5.25021 13.2501C5.25021 12.9186 5.38191 12.6006 5.61633 12.3662C5.85075 12.1318 6.16869 12.0001 6.50021 12.0001ZM16.2502 13.2501C16.2502 12.9186 16.3819 12.6006 16.6163 12.3662C16.8507 12.1318 17.1687 12.0001 17.5002 12.0001C17.8317 12.0001 18.1497 12.1318 18.3841 12.3662C18.6185 12.6006 18.7502 12.9186 18.7502 13.2501C18.7502 13.5816 18.6185 13.8996 18.3841 14.134C18.1497 14.3684 17.8317 14.5001 17.5002 14.5001C17.1687 14.5001 16.8507 14.3684 16.6163 14.134C16.3819 13.8996 16.2502 13.5816 16.2502 13.2501ZM9.09084 19.3563L8.25021 17.797V19.0001C8.25021 19.5532 7.80334 20.0001 7.25021 20.0001H5.75021C5.19709 20.0001 4.75021 19.5532 4.75021 19.0001V17.797L3.90959 19.3563C3.71271 19.722 3.25959 19.8563 2.89396 19.6626C2.52834 19.4688 2.39396 19.0126 2.58771 18.647L3.77209 16.4501C4.25021 15.5595 5.18146 15.0032 6.19396 15.0032H6.80334C7.31271 15.0032 7.80021 15.1438 8.22209 15.397L9.27209 13.4501C9.75021 12.5595 10.6815 12.0032 11.694 12.0032H12.3033C13.3158 12.0032 14.244 12.5595 14.7252 13.4501L15.7752 15.397C16.1971 15.1438 16.6846 15.0032 17.194 15.0032H17.8033C18.8158 15.0032 19.744 15.5595 20.2252 16.4501L21.4096 18.647C21.6065 19.0126 21.469 19.4657 21.1033 19.6626C20.7377 19.8595 20.2846 19.722 20.0877 19.3563L19.2502 17.797V19.0001C19.2502 19.5532 18.8033 20.0001 18.2502 20.0001H16.7502C16.1971 20.0001 15.7502 19.5532 15.7502 19.0001V17.797L14.9096 19.3563C14.7127 19.722 14.2596 19.8563 13.894 19.6626C13.5283 19.4688 13.394 19.0126 13.5877 18.647L14.7221 16.5376C14.669 16.4845 14.6221 16.4251 14.5877 16.3563L13.7502 14.797V16.5001C13.7502 17.0532 13.3033 17.5001 12.7502 17.5001H11.2502C10.6971 17.5001 10.2502 17.0532 10.2502 16.5001V14.797L9.40959 16.3563C9.37209 16.4251 9.32834 16.4845 9.27521 16.5376L10.4096 18.647C10.6065 19.0126 10.469 19.4657 10.1033 19.6626C9.73771 19.8595 9.28459 19.722 9.08771 19.3563H9.09084Z" fill="black"/>
</svg>
