<svg width="24" height="24" viewBox="0 0 24 24" fill="none" xmlns="http://www.w3.org/2000/svg">
<path d="M12.4844 4.1251L21.4844 9.1251C21.9657 9.39385 22.1407 10.0032 21.8719 10.4845C21.6032 10.9657 20.9938 11.1407 20.5125 10.872L12 6.14385L3.4844 10.8751C3.00315 11.1438 2.39378 10.9688 2.12503 10.4876C1.85628 10.0063 2.03128 9.39697 2.51253 9.12822L11.5157 4.1251C11.8188 3.95635 12.1844 3.95635 12.4875 4.1251H12.4844ZM12 9.0001C12.3315 9.0001 12.6495 9.13179 12.8839 9.36621C13.1183 9.60063 13.25 9.91858 13.25 10.2501C13.25 10.5816 13.1183 10.8996 12.8839 11.134C12.6495 11.3684 12.3315 11.5001 12 11.5001C11.6685 11.5001 11.3506 11.3684 11.1161 11.134C10.8817 10.8996 10.75 10.5816 10.75 10.2501C10.75 9.91858 10.8817 9.60063 11.1161 9.36621C11.3506 9.13179 11.6685 9.0001 12 9.0001ZM6.50003 12.0001C6.83155 12.0001 7.14949 12.1318 7.38391 12.3662C7.61833 12.6006 7.75003 12.9186 7.75003 13.2501C7.75003 13.5816 7.61833 13.8996 7.38391 14.134C7.14949 14.3684 6.83155 14.5001 6.50003 14.5001C6.16851 14.5001 5.85057 14.3684 5.61615 14.134C5.38172 13.8996 5.25003 13.5816 5.25003 13.2501C5.25003 12.9186 5.38172 12.6006 5.61615 12.3662C5.85057 12.1318 6.16851 12.0001 6.50003 12.0001ZM16.25 13.2501C16.25 12.9186 16.3817 12.6006 16.6161 12.3662C16.8506 12.1318 17.1685 12.0001 17.5 12.0001C17.8315 12.0001 18.1495 12.1318 18.3839 12.3662C18.6183 12.6006 18.75 12.9186 18.75 13.2501C18.75 13.5816 18.6183 13.8996 18.3839 14.134C18.1495 14.3684 17.8315 14.5001 17.5 14.5001C17.1685 14.5001 16.8506 14.3684 16.6161 14.134C16.3817 13.8996 16.25 13.5816 16.25 13.2501ZM9.09065 19.3563L8.25003 17.797V19.0001C8.25003 19.5532 7.80315 20.0001 7.25003 20.0001H5.75003C5.1969 20.0001 4.75003 19.5532 4.75003 19.0001V17.797L3.9094 19.3563C3.71253 19.722 3.2594 19.8563 2.89378 19.6626C2.52815 19.4688 2.39378 19.0126 2.58753 18.647L3.7719 16.4501C4.25003 15.5595 5.18128 15.0032 6.19378 15.0032H6.80315C7.31253 15.0032 7.80003 15.1438 8.2219 15.397L9.2719 13.4501C9.75003 12.5595 10.6813 12.0032 11.6938 12.0032H12.3032C13.3157 12.0032 14.2438 12.5595 14.725 13.4501L15.775 15.397C16.1969 15.1438 16.6844 15.0032 17.1938 15.0032H17.8032C18.8157 15.0032 19.7438 15.5595 20.225 16.4501L21.4094 18.647C21.6063 19.0126 21.4688 19.4657 21.1032 19.6626C20.7375 19.8595 20.2844 19.722 20.0875 19.3563L19.25 17.797V19.0001C19.25 19.5532 18.8032 20.0001 18.25 20.0001H16.75C16.1969 20.0001 15.75 19.5532 15.75 19.0001V17.797L14.9094 19.3563C14.7125 19.722 14.2594 19.8563 13.8938 19.6626C13.5282 19.4688 13.3938 19.0126 13.5875 18.647L14.7219 16.5376C14.6688 16.4845 14.6219 16.4251 14.5875 16.3563L13.75 14.797V16.5001C13.75 17.0532 13.3032 17.5001 12.75 17.5001H11.25C10.6969 17.5001 10.25 17.0532 10.25 16.5001V14.797L9.4094 16.3563C9.3719 16.4251 9.32815 16.4845 9.27503 16.5376L10.4094 18.647C10.6063 19.0126 10.4688 19.4657 10.1032 19.6626C9.73753 19.8595 9.2844 19.722 9.08753 19.3563H9.09065Z" fill="black"/>
</svg>
