<svg width="24" height="24" viewBox="0 0 24 24" fill="none" xmlns="http://www.w3.org/2000/svg">
<path d="M12 4C12.5304 4 13.0391 4.21071 13.4142 4.58579C13.7893 4.96086 14 5.46957 14 6C14 6.53043 13.7893 7.03914 13.4142 7.41421C13.0391 7.78929 12.5304 8 12 8C11.4696 8 10.9609 7.78929 10.5858 7.41421C10.2107 7.03914 10 6.53043 10 6C10 5.46957 10.2107 4.96086 10.5858 4.58579C10.9609 4.21071 11.4696 4 12 4ZM11.3 9H12.7C14 9 15.0844 9.99687 15.1906 11.2937L15.3188 12.8344C15.3969 13.7656 14.8281 14.5875 14 14.8844V18.5C14 19.3281 13.3281 20 12.5 20H11.5C10.6719 20 10 19.3281 10 18.5V14.8844C9.17188 14.5875 8.60313 13.7656 8.68125 12.8344L8.80937 11.2937C8.91875 9.99687 10 9 11.3 9ZM3 5C5.79375 5 8.29375 6.275 9.94375 8.27187C8.775 8.7625 7.925 9.87187 7.8125 11.2094L7.68437 12.75C7.59062 13.8813 8.13438 14.9062 9 15.4906V17.9781C7.99062 18.625 6.7875 19 5.5 19H5C4.44688 19 4 18.5531 4 18C4 16.5719 4.45937 15.25 5.24062 14.1781C3.26875 12.6219 2 10.2094 2 7.5V6C2 5.44687 2.44687 5 3 5ZM18.5 19C17.2125 19 16.0094 18.625 15 17.9781V15.4906C15.8687 14.9062 16.4094 13.8813 16.3156 12.75L16.1875 11.2094C16.075 9.875 15.225 8.76562 14.0562 8.27187C15.7062 6.275 18.2062 5 21 5C21.5531 5 22 5.44687 22 6V7.5C22 10.2094 20.7312 12.6219 18.7594 14.1781C19.5406 15.25 20 16.5719 20 18C20 18.5531 19.5531 19 19 19H18.5Z" fill="black"/>
</svg>
