<svg width="24" height="24" viewBox="0 0 24 24" fill="none" xmlns="http://www.w3.org/2000/svg">
<path d="M9.99999 6C9.99999 5.46957 10.2107 4.96086 10.5858 4.58579C10.9608 4.21071 11.4696 4 12 4C12.5304 4 13.0391 4.21071 13.4142 4.58579C13.7893 4.96086 14 5.46957 14 6C14 6.53043 13.7893 7.03914 13.4142 7.41421C13.0391 7.78929 12.5304 8 12 8C11.4696 8 10.9608 7.78929 10.5858 7.41421C10.2107 7.03914 9.99999 6.53043 9.99999 6ZM8.80936 11.2937C8.91561 9.99687 9.99999 9 11.3 9H12.7C14 9 15.0844 9.99687 15.1906 11.2937L15.3187 12.8344C15.3969 13.7656 14.8281 14.5875 14 14.8844V18.5C14 19.3281 13.3281 20 12.5 20H11.5C10.6719 20 9.99999 19.3281 9.99999 18.5V14.8844C9.17186 14.5875 8.60311 13.7656 8.68124 12.8344L8.80936 11.2937Z" fill="black"/>
</svg>
