<svg width="24" height="24" viewBox="0 0 24 24" fill="none" xmlns="http://www.w3.org/2000/svg">
<path d="M20.4875 6.98749C21.1719 6.30311 21.1719 5.19686 20.4875 4.51249C19.8031 3.82811 18.6969 3.82811 18.0125 4.51249L10.1156 12.4094L12.5906 14.8844L20.4875 6.98749ZM9.40625 13.1187C9.11562 13.0406 8.8125 13 8.5 13C6.56562 13 5 14.5656 5 16.5C5 16.6219 5.00625 16.7437 5.01875 16.8625C5.075 17.4094 4.7 18 4.15 18H4C3.44687 18 3 18.4469 3 19C3 19.5531 3.44687 20 4 20H8.5C10.4344 20 12 18.4344 12 16.5C12 16.1875 11.9594 15.8812 11.8813 15.5937L11.8844 15.5906L9.40938 13.1156L9.40625 13.1187ZM12.325 8.78436L8.14687 4.60311C7.36562 3.82186 6.1 3.82186 5.31875 4.60311L4.58438 5.33436C3.80313 6.11561 3.80313 7.38124 4.58438 8.16249L8.42188 12C8.44688 12 8.475 12 8.5 12C8.69375 12 8.8875 12.0125 9.075 12.0375L12.3281 8.78436H12.325ZM13 16.5781L15.0188 18.5969C15.2281 18.8062 15.4906 18.9594 15.775 19.0406L19.025 19.9687C19.2875 20.0437 19.5688 19.9719 19.7625 19.7781C19.9563 19.5844 20.0281 19.3031 19.9531 19.0406L19.025 15.7906C18.9437 15.5031 18.7906 15.2437 18.5813 15.0344L16.2188 12.6719L12.9625 15.925C12.9875 16.1125 13 16.3062 13 16.5C13 16.525 13 16.5531 13 16.5781Z" fill="black"/>
</svg>
