<svg width="24" height="24" viewBox="0 0 24 24" fill="none" xmlns="http://www.w3.org/2000/svg">
<path d="M6.99994 7C7.39776 7 7.77929 6.84196 8.0606 6.56066C8.3419 6.27936 8.49994 5.89782 8.49994 5.5C8.49994 5.10218 8.3419 4.72064 8.0606 4.43934C7.77929 4.15804 7.39776 4 6.99994 4C6.60211 4 6.22058 4.15804 5.93928 4.43934C5.65797 4.72064 5.49994 5.10218 5.49994 5.5C5.49994 5.89782 5.65797 6.27936 5.93928 6.56066C6.22058 6.84196 6.60211 7 6.99994 7ZM6.74994 19V15H7.24994V19C7.24994 19.5531 7.69681 20 8.24994 20C8.80306 20 9.24994 19.5531 9.24994 19V12.0281L10.1437 13.5125C10.4281 13.9844 11.0437 14.1375 11.5156 13.8531C11.8218 13.6687 11.9937 13.3469 11.9999 13.0125C12.0062 13.3469 12.1781 13.6687 12.4843 13.8531C12.9562 14.1375 13.5718 13.9844 13.8562 13.5125L14.7499 12.0281V19C14.7499 19.5531 15.1968 20 15.7499 20C16.3031 20 16.7499 19.5531 16.7499 19V15H17.2499V19C17.2499 19.5531 17.6968 20 18.2499 20C18.8031 20 19.2499 19.5531 19.2499 19V12.0281L20.1437 13.5125C20.4281 13.9844 21.0437 14.1375 21.5156 13.8531C21.9874 13.5687 22.1406 12.9531 21.8562 12.4812L20.0343 9.45C19.4906 8.54687 18.5156 7.99375 17.4624 7.99375H16.5343C15.4812 7.99375 14.5062 8.54687 13.9624 9.45L12.1406 12.4812C12.0468 12.6375 11.9999 12.8094 11.9968 12.9781C11.9937 12.8094 11.9468 12.6375 11.8531 12.4812L10.0312 9.45C9.48744 8.54687 8.51244 7.99375 7.45931 7.99375H6.53431C5.48119 7.99375 4.50619 8.54687 3.96244 9.45L2.14056 12.4812C1.85619 12.9531 2.00931 13.5687 2.48119 13.8531C2.95306 14.1375 3.56869 13.9844 3.85306 13.5125L4.74994 12.0281V19C4.74994 19.5531 5.19681 20 5.74994 20C6.30306 20 6.74994 19.5531 6.74994 19ZM16.9999 7C17.3978 7 17.7793 6.84196 18.0606 6.56066C18.3419 6.27936 18.4999 5.89782 18.4999 5.5C18.4999 5.10218 18.3419 4.72064 18.0606 4.43934C17.7793 4.15804 17.3978 4 16.9999 4C16.6021 4 16.2206 4.15804 15.9393 4.43934C15.658 4.72064 15.4999 5.10218 15.4999 5.5C15.4999 5.89782 15.658 6.27936 15.9393 6.56066C16.2206 6.84196 16.6021 7 16.9999 7Z" fill="black"/>
</svg>
