<svg width="24" height="24" viewBox="0 0 24 24" fill="none" xmlns="http://www.w3.org/2000/svg">
<path d="M9.56569 4.47807C9.71881 4.30932 10.0001 4.41869 10.0001 4.64682V6.22494C10.5719 6.53119 11.0719 7.12807 11.3282 7.89994C11.7751 9.24057 11.3188 10.5937 10.3094 10.9249C9.30006 11.2562 8.11881 10.4374 7.67194 9.09682C7.54694 8.72494 7.49381 8.34994 7.50006 7.99682C7.50006 7.19369 7.80006 6.41557 8.34068 5.82182L9.56569 4.47494V4.47807ZM13.6907 10.9249C12.6813 10.5937 12.2251 9.24057 12.6719 7.89994C12.9282 7.12807 13.4282 6.53119 14.0001 6.22494V4.64682C14.0001 4.41869 14.2813 4.30932 14.4344 4.47807L15.6594 5.82494C16.2001 6.41869 16.5001 7.19682 16.5001 7.99994C16.5063 8.35307 16.4532 8.72494 16.3282 9.09682C15.8813 10.4374 14.7001 11.2562 13.6907 10.9249ZM7.13756 11.2031C7.72819 12.2156 7.58443 13.3937 6.81881 13.8312C6.05318 14.2687 4.95319 13.8031 4.36569 12.7906C4.11569 12.3687 3.99694 11.9156 4.00006 11.4999V11.3999C4.00006 10.9781 4.13444 10.5656 4.38131 10.2249L5.54694 8.62182C5.69069 8.42494 6.00006 8.52807 6.00006 8.76869V10.1499C6.43444 10.3406 6.84694 10.7062 7.13756 11.2031ZM6.16256 17.5374C7.80006 13.1218 10.7094 11.9999 12.0001 11.9999C13.2907 11.9999 16.2001 13.1218 17.8376 17.5374C17.9501 17.8406 18.0001 18.1656 18.0001 18.4906V18.5406C18.0001 19.3468 17.3469 19.9999 16.5407 19.9999C16.1813 19.9999 15.8251 19.9562 15.4782 19.8687L12.7282 19.1812C12.2501 19.0624 11.7501 19.0624 11.2719 19.1812L8.52193 19.8687C8.17506 19.9562 7.81881 19.9999 7.45943 19.9999C6.65319 19.9999 6.00006 19.3468 6.00006 18.5406V18.4906C6.00006 18.1656 6.05006 17.8437 6.16256 17.5374ZM17.1813 13.8343C16.4157 13.3968 16.2719 12.2187 16.8626 11.2062C17.1532 10.7093 17.5626 10.3437 18.0001 10.1531V8.76869C18.0001 8.52807 18.3094 8.42494 18.4532 8.62182L19.6188 10.2249C19.8688 10.5656 20.0001 10.9781 20.0001 11.3999V11.4999C20.0032 11.9156 19.8844 12.3687 19.6376 12.7937C19.0469 13.8062 17.9501 14.2718 17.1844 13.8343H17.1813Z" fill="black"/>
</svg>
