<svg width="24" height="24" viewBox="0 0 24 24" fill="none" xmlns="http://www.w3.org/2000/svg">
<path d="M5.64062 6.23131C5.34375 5.98443 4.92813 5.92818 4.575 6.09381C4.22188 6.25943 4 6.61256 4 7.00006V17.0001C4 17.3876 4.225 17.7407 4.575 17.9063C4.925 18.0719 5.34062 18.0188 5.64062 17.7688L11.6406 12.7688C11.8688 12.5782 12 12.2969 12 12.0001C12 11.7032 11.8688 11.4219 11.6406 11.2313L5.64062 6.23131ZM16 7.00006C16 6.44693 15.5531 6.00006 15 6.00006C14.4469 6.00006 14 6.44693 14 7.00006V17.0001C14 17.5532 14.4469 18.0001 15 18.0001C15.5531 18.0001 16 17.5532 16 17.0001V7.00006ZM20 7.00006C20 6.44693 19.5531 6.00006 19 6.00006C18.4469 6.00006 18 6.44693 18 7.00006V17.0001C18 17.5532 18.4469 18.0001 19 18.0001C19.5531 18.0001 20 17.5532 20 17.0001V7.00006Z" fill="black"/>
</svg>
