<svg width="24" height="24" viewBox="0 0 24 24" fill="none" xmlns="http://www.w3.org/2000/svg">
<path d="M3.21243 4.15943C2.88743 3.90318 2.41556 3.96255 2.15931 4.28755C1.90306 4.61255 1.96243 5.08443 2.28743 5.34068L20.7874 19.8407C21.1124 20.0969 21.5843 20.0376 21.8406 19.7126C22.0968 19.3876 22.0374 18.9157 21.7124 18.6594L18.3187 16.0001H18.9999C19.5531 16.0001 19.9999 15.5532 19.9999 15.0001V12.0001C19.9999 10.8969 19.1031 10.0001 17.9999 10.0001H10.6624L7.99993 7.91255V6.00005H15.0843L15.9999 6.91568V9.00005H17.9999V6.91568C17.9999 6.38443 17.7906 5.87505 17.4156 5.50005L16.4999 4.58443C16.1249 4.20943 15.6156 4.00005 15.0843 4.00005H7.99993C6.89681 4.00005 5.99993 4.89693 5.99993 6.00005V6.3438L3.21243 4.15943ZM17.5562 19.2563L15.9624 18.0001H7.99993V16.0001V15.5001V15.0001H12.1531L5.81868 10.0094C4.79993 10.1001 3.99993 10.9563 3.99993 12.0001V15.0001C3.99993 15.5532 4.44681 16.0001 4.99993 16.0001H5.99993V18.0001C5.99993 19.1032 6.89681 20.0001 7.99993 20.0001H15.9999C16.6281 20.0001 17.1906 19.7094 17.5562 19.2563ZM17.4999 11.7501C17.6988 11.7501 17.8896 11.8291 18.0303 11.9697C18.1709 12.1104 18.2499 12.3011 18.2499 12.5001C18.2499 12.699 18.1709 12.8897 18.0303 13.0304C17.8896 13.171 17.6988 13.2501 17.4999 13.2501C17.301 13.2501 17.1103 13.171 16.9696 13.0304C16.8289 12.8897 16.7499 12.699 16.7499 12.5001C16.7499 12.3011 16.8289 12.1104 16.9696 11.9697C17.1103 11.8291 17.301 11.7501 17.4999 11.7501Z" fill="black"/>
</svg>
