<svg width="24" height="24" viewBox="0 0 24 24" fill="none" xmlns="http://www.w3.org/2000/svg">
<path d="M14.8687 4.53125C13.9781 4.1875 13.0125 4 12 4C7.58125 4 4 7.58125 4 12C4 16.4187 7.58125 20 12 20C12.5531 20 13 19.5531 13 19C13 18.4469 12.5531 18 12 18C8.6875 18 6 15.3125 6 12C6 8.6875 8.6875 6 12 6C12.4406 6 12.8688 6.04688 13.2812 6.1375L14.8687 4.53125ZM13.7063 14.9187C13.5375 15.0844 13.35 15.225 13.15 15.3438C13.0969 15.4281 13.0563 15.5219 13.0312 15.625C12.8937 16.1594 13.2156 16.7062 13.75 16.8438C14.15 16.9469 14.5687 17 15 17C17.7625 17 20 14.7625 20 12C20 10.9937 19.8156 10.0312 19.475 9.14687L17.8687 10.7531C17.9531 11.1563 18 11.5719 18 12C18 13.6562 16.6562 15 15 15C14.7406 15 14.4875 14.9656 14.25 14.9062C14.0656 14.8594 13.8781 14.8656 13.7063 14.9187ZM18.8094 4.5C18.2219 3.9125 17.2719 3.91562 16.6875 4.5L15.45 5.74063L18.2406 8.53125L19.4844 7.31562C20.0813 6.73125 20.0844 5.77188 19.4969 5.18438L18.8094 4.5ZM10.2656 10.9313C10.0469 11.15 9.88125 11.4188 9.78438 11.7125L9.04063 13.9406C8.95 14.2094 9.02188 14.5063 9.22188 14.7094C9.42188 14.9125 9.71875 14.9813 9.99062 14.8906L12.225 14.1438C12.5125 14.0469 12.775 13.8875 12.9906 13.675L17.525 9.23438L14.7406 6.45L10.2656 10.9313Z" fill="black"/>
</svg>
