<svg width="24" height="24" viewBox="0 0 24 24" fill="none" xmlns="http://www.w3.org/2000/svg">
<path d="M6.49999 5.5C6.49999 5.10218 6.65802 4.72064 6.93933 4.43934C7.22063 4.15804 7.60216 4 7.99999 4C8.39781 4 8.77934 4.15804 9.06065 4.43934C9.34195 4.72064 9.49999 5.10218 9.49999 5.5C9.49999 5.89782 9.34195 6.27936 9.06065 6.56066C8.77934 6.84196 8.39781 7 7.99999 7C7.60216 7 7.22063 6.84196 6.93933 6.56066C6.65802 6.27936 6.49999 5.89782 6.49999 5.5ZM7.74999 15V19C7.74999 19.5531 7.30311 20 6.74999 20C6.19686 20 5.74999 19.5531 5.74999 19V12.0281L4.85624 13.5156C4.57186 13.9875 3.95624 14.1406 3.48436 13.8562C3.01249 13.5719 2.85936 12.9563 3.14374 12.4844L4.96561 9.45312C5.50936 8.55 6.48436 7.99688 7.53749 7.99688H8.46561C9.51874 7.99688 10.4937 8.55 11.0375 9.45312L12.4406 11.7875C11.9375 12.3375 11.5469 12.9906 11.2969 13.7094C11.2375 13.6531 11.1875 13.5875 11.1437 13.5125L10.25 12.0281V19C10.25 19.5531 9.80311 20 9.24999 20C8.69686 20 8.24999 19.5531 8.24999 19V15H7.74999ZM16.5 11C17.6935 11 18.8381 11.4741 19.682 12.318C20.5259 13.1619 21 14.3065 21 15.5C21 16.6935 20.5259 17.8381 19.682 18.682C18.8381 19.5259 17.6935 20 16.5 20C15.3065 20 14.1619 19.5259 13.318 18.682C12.4741 17.8381 12 16.6935 12 15.5C12 14.3065 12.4741 13.1619 13.318 12.318C14.1619 11.4741 15.3065 11 16.5 11ZM18.3531 14.3531C18.5469 14.1594 18.5469 13.8406 18.3531 13.6469C18.1594 13.4531 17.8406 13.4531 17.6469 13.6469L16.5 14.7937L15.3531 13.6469C15.1594 13.4531 14.8406 13.4531 14.6469 13.6469C14.4531 13.8406 14.4531 14.1594 14.6469 14.3531L15.7937 15.5L14.6469 16.6469C14.4531 16.8406 14.4531 17.1594 14.6469 17.3531C14.8406 17.5469 15.1594 17.5469 15.3531 17.3531L16.5 16.2063L17.6469 17.3531C17.8406 17.5469 18.1594 17.5469 18.3531 17.3531C18.5469 17.1594 18.5469 16.8406 18.3531 16.6469L17.2062 15.5L18.3531 14.3531Z" fill="black"/>
</svg>
