<svg width="24" height="24" viewBox="0 0 24 24" fill="none" xmlns="http://www.w3.org/2000/svg">
<path d="M4.58435 4.58435C5.3656 3.8031 6.63123 3.8031 7.41248 4.58435L7.93748 5.10623C9.1281 4.4031 10.5156 3.99998 12 3.99998C13.4844 3.99998 14.8719 4.4031 16.0625 5.10623L16.5844 4.58435C17.3656 3.8031 18.6312 3.8031 19.4125 4.58435C20.1937 5.3656 20.1937 6.63123 19.4125 7.41248L18.8937 7.93748C19.5969 9.1281 20 10.5187 20 12C20 13.4812 19.5969 14.8719 18.8937 16.0625L19.4156 16.5844C20.1968 17.3656 20.1968 18.6312 19.4156 19.4125C18.6343 20.1937 17.3687 20.1937 16.5875 19.4125L16.0625 18.8937C14.8719 19.5969 13.4844 20 12 20C10.5156 20 9.1281 19.5969 7.93748 18.8937L7.4156 19.4156C6.63435 20.1968 5.36873 20.1968 4.58748 19.4156C3.80623 18.6343 3.80623 17.3687 4.58748 16.5875L5.10623 16.0625C4.4031 14.8719 3.99998 13.4844 3.99998 12C3.99998 10.5156 4.4031 9.1281 5.10623 7.93748L4.58435 7.4156C3.8031 6.63435 3.8031 5.36873 4.58435 4.58748V4.58435ZM5.99998 6.49998C6.13258 6.49998 6.25976 6.4473 6.35353 6.35353C6.4473 6.25976 6.49998 6.13258 6.49998 5.99998C6.49998 5.86737 6.4473 5.74019 6.35353 5.64642C6.25976 5.55265 6.13258 5.49998 5.99998 5.49998C5.86737 5.49998 5.74019 5.55265 5.64642 5.64642C5.55265 5.74019 5.49998 5.86737 5.49998 5.99998C5.49998 6.13258 5.55265 6.25976 5.64642 6.35353C5.74019 6.4473 5.86737 6.49998 5.99998 6.49998ZM12 17C13.3261 17 14.5978 16.4732 15.5355 15.5355C16.4732 14.5978 17 13.3261 17 12C17 10.6739 16.4732 9.40212 15.5355 8.46444C14.5978 7.52676 13.3261 6.99998 12 6.99998C10.6739 6.99998 9.40212 7.52676 8.46444 8.46444C7.52676 9.40212 6.99998 10.6739 6.99998 12C6.99998 13.3261 7.52676 14.5978 8.46444 15.5355C9.40212 16.4732 10.6739 17 12 17ZM6.49998 18C6.49998 17.8674 6.4473 17.7402 6.35353 17.6464C6.25976 17.5527 6.13258 17.5 5.99998 17.5C5.86737 17.5 5.74019 17.5527 5.64642 17.6464C5.55265 17.7402 5.49998 17.8674 5.49998 18C5.49998 18.1326 5.55265 18.2598 5.64642 18.3535C5.74019 18.4473 5.86737 18.5 5.99998 18.5C6.13258 18.5 6.25976 18.4473 6.35353 18.3535C6.4473 18.2598 6.49998 18.1326 6.49998 18ZM18 6.49998C18.1326 6.49998 18.2598 6.4473 18.3535 6.35353C18.4473 6.25976 18.5 6.13258 18.5 5.99998C18.5 5.86737 18.4473 5.74019 18.3535 5.64642C18.2598 5.55265 18.1326 5.49998 18 5.49998C17.8674 5.49998 17.7402 5.55265 17.6464 5.64642C17.5527 5.74019 17.5 5.86737 17.5 5.99998C17.5 6.13258 17.5527 6.25976 17.6464 6.35353C17.7402 6.4473 17.8674 6.49998 18 6.49998ZM18.5 18C18.5 17.8674 18.4473 17.7402 18.3535 17.6464C18.2598 17.5527 18.1326 17.5 18 17.5C17.8674 17.5 17.7402 17.5527 17.6464 17.6464C17.5527 17.7402 17.5 17.8674 17.5 18C17.5 18.1326 17.5527 18.2598 17.6464 18.3535C17.7402 18.4473 17.8674 18.5 18 18.5C18.1326 18.5 18.2598 18.4473 18.3535 18.3535C18.4473 18.2598 18.5 18.1326 18.5 18Z" fill="black"/>
</svg>
