<svg width="24" height="24" viewBox="0 0 24 24" fill="none" xmlns="http://www.w3.org/2000/svg">
<path d="M3.21243 4.15937C2.88743 3.90312 2.41556 3.96249 2.15931 4.28749C1.90306 4.61249 1.96243 5.08437 2.28743 5.34062L20.7874 19.8406C21.1124 20.0969 21.5843 20.0375 21.8406 19.7125C22.0968 19.3875 22.0374 18.9156 21.7124 18.6594L14.8093 13.25L16.5281 11.5312L17.0593 11L17.0281 10.9687L16.5281 10.4687L13.5281 7.46874L12.9968 6.93749L12.5906 6.53124C11.7124 5.65312 10.2874 5.65312 9.40931 6.53124L8.01556 7.92499L3.21243 4.15937ZM9.20306 8.85624L10.4687 7.59062C10.7624 7.29687 11.2374 7.29687 11.5281 7.59062L11.9406 7.99999L10.2593 9.68124L9.20618 8.85624H9.20306ZM12.6624 15.4L8.11868 11.8219L7.10931 12.8312C5.60931 14.3312 4.58431 16.2437 4.16868 18.325L4.01243 19.1062C3.96243 19.3531 4.04056 19.6062 4.21868 19.7844C4.39681 19.9625 4.64993 20.0375 4.89681 19.9906L5.67806 19.8344C7.75931 19.4187 9.67181 18.3937 11.1718 16.8937L12.6624 15.4031V15.4ZM18.1656 4.60312C17.3843 3.82187 16.1187 3.82187 15.3374 4.60312L13.7062 6.23124L14.2374 6.76249L17.2374 9.76249L17.7374 10.2625L17.7687 10.2937L19.3968 8.66562C20.1781 7.88437 20.1781 6.61874 19.3968 5.83749L18.1656 4.60312Z" fill="black"/>
</svg>
