<svg width="24" height="24" viewBox="0 0 24 24" fill="none" xmlns="http://www.w3.org/2000/svg">
<path d="M18.1658 4.6031L19.3971 5.83435C20.1783 6.6156 20.1783 7.88123 19.3971 8.66248L17.7689 10.2906L17.7377 10.2594L17.2377 9.75935L14.2377 6.75935L13.7064 6.2281L15.3346 4.59998C16.1158 3.81873 17.3814 3.81873 18.1627 4.59998L18.1658 4.6031ZM11.5314 7.5906C11.2377 7.29685 10.7627 7.29685 10.4721 7.5906L7.28143 10.7812C6.98768 11.075 6.51268 11.075 6.22206 10.7812C5.93143 10.4875 5.92831 10.0125 6.22206 9.72185L9.40956 6.53123C10.2877 5.6531 11.7127 5.6531 12.5908 6.53123L13.0002 6.9406L13.5314 7.47185L16.5314 10.4719L17.0314 10.9719L17.0627 11.0031L16.5314 11.5344L11.1721 16.8906C9.67206 18.3906 7.75956 19.4156 5.67831 19.8312L4.89706 19.9875C4.65018 20.0375 4.39706 19.9594 4.21893 19.7812C4.04081 19.6031 3.96581 19.35 4.01268 19.1031L4.16893 18.3218C4.58456 16.2406 5.60956 14.3281 7.10956 12.8281L11.9408 7.99998L11.5314 7.5906Z" fill="black"/>
</svg>
