<svg width="24" height="24" viewBox="0 0 24 24" fill="none" xmlns="http://www.w3.org/2000/svg">
<path d="M3.21249 4.15937C2.88749 3.90312 2.41562 3.96249 2.15937 4.28749C1.90312 4.61249 1.96249 5.08437 2.28749 5.34062L20.7875 19.8406C21.1125 20.0969 21.5844 20.0375 21.8406 19.7125C22.0969 19.3875 22.0375 18.9156 21.7125 18.6594L18.3187 16H19C19.5531 16 20 15.5531 20 15V12C20 10.8969 19.1031 9.99999 18 9.99999H10.6625L7.99999 7.91249V5.99999H15.0844L16 6.91562V8.99999H18V6.91562C18 6.38437 17.7906 5.87499 17.4156 5.49999L16.5 4.58437C16.125 4.20937 15.6156 3.99999 15.0844 3.99999H7.99999C6.89687 3.99999 5.99999 4.89687 5.99999 5.99999V6.34374L3.21249 4.15937ZM17.5562 19.2562L15.9625 18H7.99999V16V15.5V15H12.1531L5.81874 10.0094C4.79999 10.1 3.99999 10.9562 3.99999 12V15C3.99999 15.5531 4.44687 16 4.99999 16H5.99999V18C5.99999 19.1031 6.89687 20 7.99999 20H16C16.6281 20 17.1906 19.7094 17.5562 19.2562ZM17.5 11.75C17.6989 11.75 17.8897 11.829 18.0303 11.9697C18.171 12.1103 18.25 12.3011 18.25 12.5C18.25 12.6989 18.171 12.8897 18.0303 13.0303C17.8897 13.171 17.6989 13.25 17.5 13.25C17.3011 13.25 17.1103 13.171 16.9697 13.0303C16.829 12.8897 16.75 12.6989 16.75 12.5C16.75 12.3011 16.829 12.1103 16.9697 11.9697C17.1103 11.829 17.3011 11.75 17.5 11.75Z" fill="black"/>
</svg>
