<svg width="24" height="24" viewBox="0 0 24 24" fill="none" xmlns="http://www.w3.org/2000/svg">
<path d="M4.58447 4.58435C5.36572 3.8031 6.63135 3.8031 7.4126 4.58435L7.9376 5.10623C9.12822 4.4031 10.5157 3.99998 12.0001 3.99998C13.4845 3.99998 14.872 4.4031 16.0626 5.10623L16.5845 4.58435C17.3657 3.8031 18.6313 3.8031 19.4126 4.58435C20.1938 5.3656 20.1938 6.63123 19.4126 7.41248L18.8938 7.93748C19.597 9.1281 20.0001 10.5187 20.0001 12C20.0001 13.4812 19.597 14.8719 18.8938 16.0625L19.4157 16.5844C20.197 17.3656 20.197 18.6312 19.4157 19.4125C18.6345 20.1937 17.3688 20.1937 16.5876 19.4125L16.0626 18.8937C14.872 19.5969 13.4845 20 12.0001 20C10.5157 20 9.12822 19.5969 7.9376 18.8937L7.41572 19.4156C6.63447 20.1968 5.36885 20.1968 4.5876 19.4156C3.80635 18.6343 3.80635 17.3687 4.5876 16.5875L5.10635 16.0625C4.40322 14.8719 4.0001 13.4844 4.0001 12C4.0001 10.5156 4.40322 9.1281 5.10635 7.93748L4.58447 7.4156C3.80322 6.63435 3.80322 5.36873 4.58447 4.58748V4.58435ZM6.0001 6.49998C6.13271 6.49998 6.25988 6.4473 6.35365 6.35353C6.44742 6.25976 6.5001 6.13258 6.5001 5.99998C6.5001 5.86737 6.44742 5.74019 6.35365 5.64642C6.25988 5.55265 6.13271 5.49998 6.0001 5.49998C5.86749 5.49998 5.74031 5.55265 5.64654 5.64642C5.55278 5.74019 5.5001 5.86737 5.5001 5.99998C5.5001 6.13258 5.55278 6.25976 5.64654 6.35353C5.74031 6.4473 5.86749 6.49998 6.0001 6.49998ZM12.0001 17C13.3262 17 14.5979 16.4732 15.5356 15.5355C16.4733 14.5978 17.0001 13.3261 17.0001 12C17.0001 10.6739 16.4733 9.40212 15.5356 8.46444C14.5979 7.52676 13.3262 6.99998 12.0001 6.99998C10.674 6.99998 9.40225 7.52676 8.46456 8.46444C7.52688 9.40212 7.0001 10.6739 7.0001 12C7.0001 13.3261 7.52688 14.5978 8.46456 15.5355C9.40225 16.4732 10.674 17 12.0001 17ZM6.5001 18C6.5001 17.8674 6.44742 17.7402 6.35365 17.6464C6.25988 17.5527 6.13271 17.5 6.0001 17.5C5.86749 17.5 5.74031 17.5527 5.64654 17.6464C5.55278 17.7402 5.5001 17.8674 5.5001 18C5.5001 18.1326 5.55278 18.2598 5.64654 18.3535C5.74031 18.4473 5.86749 18.5 6.0001 18.5C6.13271 18.5 6.25988 18.4473 6.35365 18.3535C6.44742 18.2598 6.5001 18.1326 6.5001 18ZM18.0001 6.49998C18.1327 6.49998 18.2599 6.4473 18.3537 6.35353C18.4474 6.25976 18.5001 6.13258 18.5001 5.99998C18.5001 5.86737 18.4474 5.74019 18.3537 5.64642C18.2599 5.55265 18.1327 5.49998 18.0001 5.49998C17.8675 5.49998 17.7403 5.55265 17.6465 5.64642C17.5528 5.74019 17.5001 5.86737 17.5001 5.99998C17.5001 6.13258 17.5528 6.25976 17.6465 6.35353C17.7403 6.4473 17.8675 6.49998 18.0001 6.49998ZM18.5001 18C18.5001 17.8674 18.4474 17.7402 18.3537 17.6464C18.2599 17.5527 18.1327 17.5 18.0001 17.5C17.8675 17.5 17.7403 17.5527 17.6465 17.6464C17.5528 17.7402 17.5001 17.8674 17.5001 18C17.5001 18.1326 17.5528 18.2598 17.6465 18.3535C17.7403 18.4473 17.8675 18.5 18.0001 18.5C18.1327 18.5 18.2599 18.4473 18.3537 18.3535C18.4474 18.2598 18.5001 18.1326 18.5001 18Z" fill="black"/>
</svg>
