<svg width="24" height="24" viewBox="0 0 24 24" fill="none" xmlns="http://www.w3.org/2000/svg">
<path d="M14.9999 5.5C14.9999 5.30302 15.0387 5.10796 15.114 4.92597C15.1894 4.74399 15.2999 4.57863 15.4392 4.43934C15.5785 4.30005 15.7438 4.18956 15.9258 4.11418C16.1078 4.0388 16.3029 4 16.4999 4C16.6968 4 16.8919 4.0388 17.0739 4.11418C17.2559 4.18956 17.4212 4.30005 17.5605 4.43934C17.6998 4.57863 17.8103 4.74399 17.8857 4.92597C17.9611 5.10796 17.9999 5.30302 17.9999 5.5C17.9999 5.69698 17.9611 5.89204 17.8857 6.07403C17.8103 6.25601 17.6998 6.42137 17.5605 6.56066C17.4212 6.69995 17.2559 6.81044 17.0739 6.88582C16.8919 6.9612 16.6968 7 16.4999 7C16.3029 7 16.1078 6.9612 15.9258 6.88582C15.7438 6.81044 15.5785 6.69995 15.4392 6.56066C15.2999 6.42137 15.1894 6.25601 15.114 6.07403C15.0387 5.89204 14.9999 5.69698 14.9999 5.5ZM7.99986 8C7.99986 7.44687 8.44673 7 8.99986 7H13.5155C14.953 7 15.5686 8.825 14.4217 9.69375L11.1905 12.15L10.9905 12.3844C10.9155 12.4719 10.853 12.575 10.8124 12.6844L9.60923 15.8938L17.553 11.7844C18.1342 11.4844 18.4999 10.8844 18.4999 10.2312V10C18.4999 9.58437 18.8342 9.25 19.2499 9.25C19.6655 9.25 19.9999 9.58437 19.9999 10V10.2281C19.9999 11.4438 19.3217 12.5563 18.2436 13.1156L5.09361 19.9156C4.72798 20.1062 4.27486 19.9625 4.08423 19.5938C3.89361 19.225 4.03736 18.7719 4.40611 18.5844L7.88111 16.7875C7.54673 16.525 7.40611 16.0687 7.56236 15.65L8.93736 11.9812C9.05923 11.6531 9.24048 11.35 9.46861 11.0813L11.253 9H8.99986C8.44673 9 7.99986 8.55313 7.99986 8Z" fill="black"/>
</svg>
