<svg width="24" height="24" viewBox="0 0 24 24" fill="none" xmlns="http://www.w3.org/2000/svg">
<path d="M20.7874 4.16008C21.1124 3.90383 21.5843 3.9632 21.8406 4.2882C22.0968 4.6132 22.0374 5.08508 21.7124 5.34133L3.21243 19.8413C2.88743 20.0976 2.41556 20.0382 2.15931 19.7132C1.90306 19.3882 1.96243 18.9163 2.28743 18.6601L7.14993 14.8476C5.18118 12.4382 3.99993 9.35695 3.99993 6.0007C3.99993 5.4382 4.37806 4.94445 4.92181 4.79445L7.67181 4.04445C8.27806 3.87883 8.91243 4.1882 9.15306 4.76945L10.4031 7.76945C10.6156 8.27883 10.4687 8.86945 10.0406 9.21633L8.49993 10.4788C8.87493 11.2757 9.34993 12.0163 9.90618 12.6882L20.7874 4.16008ZM9.32181 16.9882L12.1749 14.7382C12.6031 15.0226 13.0499 15.2788 13.5187 15.4976L14.7812 13.9601C15.1312 13.532 15.7187 13.3851 16.2281 13.5976L19.2281 14.8476C19.8093 15.0882 20.1187 15.7226 19.9531 16.3288L19.2031 19.0788C19.0562 19.6226 18.5624 20.0007 17.9999 20.0007C14.7218 20.0007 11.7093 18.8757 9.32181 16.9882Z" fill="black"/>
</svg>
