<svg width="24" height="24" viewBox="0 0 24 24" fill="none" xmlns="http://www.w3.org/2000/svg">
<path d="M4 6C4 4.89688 4.89688 4 6 4H15C16.1031 4 17 4.89688 17 6V8C17 9.10312 16.1031 10 15 10H6C4.89688 10 4 9.10312 4 8V6ZM9 15C9 14.4469 9.44687 14 10 14V13.5C10 12.1187 11.1187 11 12.5 11H17C17.5531 11 18 10.5531 18 10V9V6.17188C19.1656 6.58437 20 7.69375 20 9V10C20 11.6562 18.6562 13 17 13H12.5C12.225 13 12 13.225 12 13.5V14C12.5531 14 13 14.4469 13 15V19C13 19.5531 12.5531 20 12 20H10C9.44687 20 9 19.5531 9 19V15Z" fill="black"/>
</svg>
