<svg width="24" height="24" viewBox="0 0 24 24" fill="none" xmlns="http://www.w3.org/2000/svg">
<path d="M13.2188 9.71872L17.4375 5.49997H16C15.5844 5.49997 15.25 5.1656 15.25 4.74997C15.25 4.33435 15.5844 3.99997 16 3.99997H19.25C19.6656 3.99997 20 4.33435 20 4.74997V7.99997C20 8.4156 19.6656 8.74997 19.25 8.74997C18.8344 8.74997 18.5 8.4156 18.5 7.99997V6.55935L14.2812 10.7812C13.9875 11.075 13.5125 11.075 13.2219 10.7812C12.9313 10.4875 12.9281 10.0125 13.2219 9.72185L13.2188 9.71872ZM7.67188 4.04372C8.27812 3.8781 8.9125 4.18747 9.15312 4.76872L10.4031 7.76872C10.6156 8.2781 10.4688 8.86872 10.0406 9.2156L8.5 10.4781C9.54063 12.6781 11.3219 14.4593 13.5219 15.5L14.7812 13.9593C15.1313 13.5312 15.7188 13.3843 16.2281 13.5968L19.2281 14.8468C19.8094 15.0875 20.1187 15.7218 19.9531 16.3281L19.2031 19.0781C19.0562 19.6218 18.5625 20 18 20C10.2688 20 4 13.7312 4 5.99997C4 5.43747 4.37813 4.94372 4.92188 4.79372L7.67188 4.04372Z" fill="black"/>
</svg>
