<svg width="24" height="24" viewBox="0 0 24 24" fill="none" xmlns="http://www.w3.org/2000/svg">
<path d="M8 4C6.89688 4 6 4.89688 6 6V9H8V6H15.0844L16 6.91563V9H18V6.91563C18 6.38438 17.7906 5.875 17.4156 5.5L16.5 4.58438C16.125 4.20938 15.6156 4 15.0844 4H8ZM16 15V16V18H8V16V15.5V15H16ZM18 16H19C19.5531 16 20 15.5531 20 15V12C20 10.8969 19.1031 10 18 10H6C4.89688 10 4 10.8969 4 12V15C4 15.5531 4.44687 16 5 16H6V18C6 19.1031 6.89688 20 8 20H16C17.1031 20 18 19.1031 18 18V16ZM17.5 11.75C17.6989 11.75 17.8897 11.829 18.0303 11.9697C18.171 12.1103 18.25 12.3011 18.25 12.5C18.25 12.6989 18.171 12.8897 18.0303 13.0303C17.8897 13.171 17.6989 13.25 17.5 13.25C17.3011 13.25 17.1103 13.171 16.9697 13.0303C16.829 12.8897 16.75 12.6989 16.75 12.5C16.75 12.3011 16.829 12.1103 16.9697 11.9697C17.1103 11.829 17.3011 11.75 17.5 11.75Z" fill="black"/>
</svg>
