<svg width="24" height="24" viewBox="0 0 24 24" fill="none" xmlns="http://www.w3.org/2000/svg">
<path d="M8 6.5C8 6.10218 8.15804 5.72064 8.43934 5.43934C8.72064 5.15804 9.10218 5 9.5 5C9.89782 5 10.2794 5.15804 10.5607 5.43934C10.842 5.72064 11 6.10218 11 6.5C11 6.89782 10.842 7.27936 10.5607 7.56066C10.2794 7.84196 9.89782 8 9.5 8C9.10218 8 8.72064 7.84196 8.43934 7.56066C8.15804 7.27936 8 6.89782 8 6.5ZM8.05312 12.9375C8.24687 12.8656 8.42187 12.7406 8.52187 12.5562L9.77187 10.3094C10.2219 9.5 11.075 8.99687 12 8.99687C12.925 8.99687 13.7781 9.5 14.2281 10.3094L15.4781 12.5562C15.5781 12.7375 15.7531 12.8656 15.9469 12.9375C17.1437 13.375 18 14.525 18 15.875C18 17.6 16.6 19 14.875 19C14.2125 19 13.6 18.7938 13.0969 18.4438C12.5531 18.0688 11.4469 18.0688 10.9062 18.4438C10.4 18.7938 9.7875 19 9.125 19C7.4 19 6 17.6 6 15.875C6 14.525 6.85625 13.375 8.05312 12.9375ZM14.5 5C14.8978 5 15.2794 5.15804 15.5607 5.43934C15.842 5.72064 16 6.10218 16 6.5C16 6.89782 15.842 7.27936 15.5607 7.56066C15.2794 7.84196 14.8978 8 14.5 8C14.1022 8 13.7206 7.84196 13.4393 7.56066C13.158 7.27936 13 6.89782 13 6.5C13 6.10218 13.158 5.72064 13.4393 5.43934C13.7206 5.15804 14.1022 5 14.5 5ZM16 10C16 9.80302 16.0388 9.60796 16.1142 9.42597C16.1896 9.24399 16.3001 9.07863 16.4393 8.93934C16.5786 8.80005 16.744 8.68956 16.926 8.61418C17.108 8.5388 17.303 8.5 17.5 8.5C17.697 8.5 17.892 8.5388 18.074 8.61418C18.256 8.68956 18.4214 8.80005 18.5607 8.93934C18.6999 9.07863 18.8104 9.24399 18.8858 9.42597C18.9612 9.60796 19 9.80302 19 10C19 10.197 18.9612 10.392 18.8858 10.574C18.8104 10.756 18.6999 10.9214 18.5607 11.0607C18.4214 11.1999 18.256 11.3104 18.074 11.3858C17.892 11.4612 17.697 11.5 17.5 11.5C17.303 11.5 17.108 11.4612 16.926 11.3858C16.744 11.3104 16.5786 11.1999 16.4393 11.0607C16.3001 10.9214 16.1896 10.756 16.1142 10.574C16.0388 10.392 16 10.197 16 10ZM6.5 8.5C6.89782 8.5 7.27936 8.65804 7.56066 8.93934C7.84196 9.22064 8 9.60218 8 10C8 10.3978 7.84196 10.7794 7.56066 11.0607C7.27936 11.342 6.89782 11.5 6.5 11.5C6.10218 11.5 5.72064 11.342 5.43934 11.0607C5.15804 10.7794 5 10.3978 5 10C5 9.60218 5.15804 9.22064 5.43934 8.93934C5.72064 8.65804 6.10218 8.5 6.5 8.5Z" fill="black"/>
</svg>
