<svg width="24" height="24" viewBox="0 0 24 24" fill="none" xmlns="http://www.w3.org/2000/svg">
<path d="M17.3844 4.09378C17.7469 3.89378 18.2031 4.02191 18.4031 4.38441L18.5531 4.65628C19.1562 5.74066 19.1719 7.02191 18.6594 8.09378C19.4938 8.98753 20 10.1844 20 11.5C20 12.0782 19.9031 12.6344 19.7219 13.15C19.5312 13.6907 18.8312 13.6594 18.5719 13.1469L18.2063 12.4157C18.0781 12.1625 17.8188 12 17.5344 12H15.25C14.8344 12 14.5 11.6657 14.5 11.25V8.75003C14.5 8.33441 14.1656 8.00003 13.75 8.00003H13.2156C12.55 8.00003 12.2781 7.25316 12.8781 6.97191C13.5219 6.66878 14.2406 6.50003 15 6.50003C15.8844 6.50003 16.7125 6.72816 17.4312 7.13128C17.6031 6.56253 17.5469 5.93128 17.2437 5.38753L17.0938 5.11566C16.8938 4.75316 17.0219 4.29691 17.3844 4.09691V4.09378ZM9.35 14.7969L12.25 9.00003H13.5V11.5C13.5 12.3282 14.1719 13 15 13H17.3813L18.1281 14.4938C15.6344 17.8719 11.6344 20 7.225 20H5.3875C4.62188 20 4 19.3782 4 18.6125C4 17.9625 4.45312 17.4 5.0875 17.2594L6.64375 16.9125C7.81875 16.65 8.81563 15.875 9.35313 14.7969H9.35Z" fill="black"/>
</svg>
