<svg width="24" height="24" viewBox="0 0 24 24" fill="none" xmlns="http://www.w3.org/2000/svg">
<path d="M3.2125 4.15935C2.8875 3.9031 2.41562 3.96248 2.15937 4.28748C1.90312 4.61248 1.9625 5.08435 2.2875 5.3406L20.7875 19.8406C21.1125 20.0968 21.5844 20.0375 21.8406 19.7125C22.0969 19.3875 22.0375 18.9156 21.7125 18.6594L14.8 13.2437L16.1156 11.9281L16.8219 11.2187L17.175 10.8656L16.1156 9.80623L14.175 7.8656L13.1156 6.80623L12.7625 7.15935L12.0562 7.8656L10.25 9.67185L3.2125 4.15935ZM11.5688 10.7094L13.1469 9.13123C13.3406 8.93748 13.6594 8.93748 13.8531 9.13123C14.0469 9.32498 14.0469 9.64373 13.8531 9.83748L12.3594 11.3312L11.5656 10.7094H11.5688ZM8.10937 11.8125L5.83125 14.0906C5.50625 14.4156 5.26875 14.8187 5.1375 15.2593L4.03125 19.0219C3.95312 19.2844 4.025 19.5687 4.22187 19.7625C4.41875 19.9562 4.7 20.0281 4.9625 19.9531L8.72187 18.8469C9.1625 18.7156 9.56562 18.4781 9.89062 18.1531L12.65 15.3937L10.2156 13.475L9.35312 14.3375C9.15937 14.5312 8.84062 14.5312 8.64687 14.3375C8.45312 14.1437 8.45312 13.825 8.64687 13.6312L9.425 12.8531L8.10937 11.8125ZM9 16.4812L8.71562 17.1906C8.59062 17.2875 8.45 17.3594 8.3 17.4062L5.85938 18.125L6.57812 15.6844C6.62187 15.5312 6.69687 15.3906 6.79375 15.2687L7.50312 14.9844V15.9844C7.50312 16.2593 7.72812 16.4844 8.00312 16.4844H9.00312L9 16.4812ZM15.3344 4.58435L14.8844 5.03748L14.1781 5.74373L13.8219 6.09685L14.8813 7.15623L16.8219 9.09685L17.8813 10.1562L18.2344 9.8031L18.9406 9.09685L19.3937 8.64373C20.175 7.86248 20.175 6.59685 19.3937 5.8156L18.1656 4.58435C17.3844 3.8031 16.1187 3.8031 15.3375 4.58435H15.3344Z" fill="black"/>
</svg>
