<svg width="24" height="24" viewBox="0 0 24 24" fill="none" xmlns="http://www.w3.org/2000/svg">
<path d="M12 10C12 9.44688 12.4469 9.00312 13 8.98125C16.3938 8.84375 19 8.00938 19 7C19 5.89688 15.8656 5 12 5C8.13438 5 5 5.89688 5 7C5 7.43125 5.47813 7.83125 6.29063 8.15625C6.70312 8.32188 7 8.70625 7 9.15V12.5C7 13.0531 7.44688 13.5 8 13.5C8.55312 13.5 9 13.0531 9 12.5V9.36562C9 9.06875 9.25313 8.84063 9.54688 8.875C9.8 8.90313 10 9.1125 10 9.36562V11C10 11.5531 10.4469 12 11 12C11.5531 12 12 11.5531 12 11V10ZM10 6.5C10 6.225 10.225 6 10.5 6H13.5C13.775 6 14 6.225 14 6.5C14 6.775 13.775 7 13.5 7H10.5C10.225 7 10 6.775 10 6.5ZM4.46562 8.15625C4.16562 8.41875 4 8.70312 4 9C4 9.63438 4.75625 10.2125 6 10.6531V9.15C6 9.14687 5.99687 9.14375 5.99375 9.1375C5.98125 9.12187 5.95625 9.09688 5.91875 9.08125C5.45938 8.89688 5.02187 8.6625 4.68125 8.36562C4.60938 8.30312 4.5375 8.23125 4.46875 8.15312L4.46562 8.15625ZM12.9406 11.4844C16.9156 11.3375 20 10.2812 20 9C20 8.70312 19.8344 8.41875 19.5344 8.15625C19.4094 8.29688 19.2688 8.41875 19.1375 8.51562C18.7188 8.82812 18.1719 9.07188 17.5813 9.26562C16.3938 9.65625 14.7969 9.90625 13.0406 9.97813C13.025 9.97813 13.0125 9.98438 13.0031 9.99375C13 9.99688 13 10 13 10V11C13 11.1656 12.9781 11.3281 12.9406 11.4844ZM4.225 10.9094C4.07812 11.1 4 11.2969 4 11.5C4 12.1562 4.80625 12.75 6.125 13.1969C6.04375 12.9812 6 12.7438 6 12.5V11.7094C5.32812 11.4969 4.71562 11.2344 4.225 10.9094ZM12 14C16.4187 14 20 12.8812 20 11.5C20 11.2969 19.9219 11.1 19.775 10.9094C19.2719 11.2406 18.6438 11.5063 17.9531 11.7219C16.4594 12.1875 14.4781 12.4719 12.3219 12.4969C11.9687 12.8094 11.5062 13 10.9969 13C10.6281 13 10.2812 12.9 9.98438 12.725C9.93437 13.1656 9.74062 13.5656 9.45312 13.8719C10.2531 13.9563 11.1062 14 11.9969 14H12ZM20 14C20 13.7969 19.9219 13.6 19.775 13.4094C19.2719 13.7406 18.6438 14.0063 17.9531 14.2219C16.3875 14.7125 14.2812 15 12 15C9.71875 15 7.6125 14.7125 6.04375 14.2219C5.35625 14.0063 4.725 13.7406 4.22187 13.4094C4.07812 13.6 4 13.7969 4 14C4 15.3813 7.58125 16.5 12 16.5C16.4187 16.5 20 15.3813 20 14ZM20 16.5C20 16.2969 19.9219 16.1 19.775 15.9094C19.2719 16.2406 18.6438 16.5063 17.9531 16.7219C16.3875 17.2125 14.2812 17.5 12 17.5C9.71875 17.5 7.6125 17.2125 6.04375 16.7219C5.35625 16.5063 4.725 16.2406 4.22187 15.9094C4.07812 16.1 4 16.2969 4 16.5C4 17.8813 7.58125 19 12 19C16.4187 19 20 17.8813 20 16.5Z" fill="black"/>
</svg>
