<svg width="24" height="24" viewBox="0 0 24 24" fill="none" xmlns="http://www.w3.org/2000/svg">
<path d="M3.21243 4.15943C2.88743 3.90318 2.41556 3.96255 2.15931 4.28755C1.90306 4.61255 1.96243 5.08443 2.28743 5.34068L20.7874 19.8407C21.1124 20.0969 21.5843 20.0376 21.8406 19.7126C22.0968 19.3876 22.0374 18.9157 21.7124 18.6594L17.0749 15.0251L19.3406 15.7813C19.6656 15.8907 19.9999 15.6469 19.9999 15.3063V13.5344C19.9999 13.2001 19.8343 12.8876 19.5562 12.7032L13.9999 9.00005V6.92818C13.9999 5.85943 13.1249 4.00005 11.9999 4.00005C10.9062 4.00005 9.99993 5.85943 9.99993 6.92818V9.00005L9.66868 9.22193L3.21243 4.15943ZM15.9343 17.9782L7.04056 10.9719L4.44368 12.7032C4.16556 12.8876 3.99993 13.2001 3.99993 13.5344V15.3063C3.99993 15.6469 4.33431 15.8876 4.65931 15.7813L9.99993 14.0001V16.5001L8.19993 17.8501C8.07493 17.9438 7.99993 18.0938 7.99993 18.2501V19.5626C7.99993 19.8063 8.19681 20.0001 8.43743 20.0001C8.47806 20.0001 8.51868 19.9938 8.55931 19.9844L11.9999 19.0001L15.4406 19.9844C15.4812 19.9969 15.5218 20.0001 15.5624 20.0001C15.8062 20.0001 15.9999 19.8032 15.9999 19.5626V18.2282C15.9999 18.1407 15.9781 18.0532 15.9343 17.9782Z" fill="black"/>
</svg>
