<svg width="24" height="24" viewBox="0 0 24 24" fill="none" xmlns="http://www.w3.org/2000/svg">
<path d="M13.5 7C13.8978 7 14.2794 6.84196 14.5607 6.56066C14.842 6.27936 15 5.89782 15 5.5C15 5.10218 14.842 4.72064 14.5607 4.43934C14.2794 4.15804 13.8978 4 13.5 4C13.1022 4 12.7206 4.15804 12.4393 4.43934C12.158 4.72064 12 5.10218 12 5.5C12 5.89782 12.158 6.27936 12.4393 6.56066C12.7206 6.84196 13.1022 7 13.5 7ZM10.1 9C10.1594 9 10.2188 9.00313 10.275 9.00938L9.3 11.9375C9.00938 12.8125 9.35312 13.775 10.1375 14.2656L12.8313 15.95L12.1031 18.5H9.3375L10.6219 15.7469L9.60938 15.1125C9.36562 14.9594 9.15 14.7781 8.96562 14.5719L7.13125 18.5H6.11562L7.80937 10.45C7.95312 10.4031 8.09063 10.3219 8.20625 10.2063L8.92812 9.48438C9.2375 9.175 9.65937 9 10.1 9ZM6.79375 10.2063C6.80625 10.2188 6.81875 10.2313 6.83437 10.2438L5.09375 18.5H3.75C3.33437 18.5 3 18.8344 3 19.25C3 19.6656 3.33437 20 3.75 20H7.97813C7.99063 20 8.00625 20 8.01875 20H12.9781C12.9937 20 13.0094 20 13.0219 20H18.75C19.9937 20 21 18.9937 21 17.75V17.5C21 17.0844 20.6656 16.75 20.25 16.75C19.8344 16.75 19.5 17.0844 19.5 17.5V17.75C19.5 18.1656 19.1656 18.5 18.75 18.5H16.5813L17.4438 12.8969C17.7719 12.7344 18 12.3938 18 12C18 11.4469 17.5531 11 17 11H16.3344C15.9313 11 15.5656 10.7563 15.4125 10.3844L15.2156 9.91563C14.7594 8.81875 13.8375 7.98125 12.7 7.63125L11.1781 7.1625C10.8313 7.05625 10.4688 7 10.1031 7C9.13438 7 8.20313 7.38438 7.51875 8.07188L6.79688 8.79375C6.40625 9.18437 6.40625 9.81875 6.79688 10.2094L6.79375 10.2063ZM16.4187 13L15.5719 18.5H14.1812L14.8562 16.1375C15.0406 15.4937 14.775 14.8063 14.2094 14.4531L12.4375 13.3438L13.4031 10.7688L13.5625 11.1531C14.0312 12.2719 15.1219 13 16.3344 13H16.4187Z" fill="black"/>
</svg>
