<svg width="24" height="24" viewBox="0 0 24 24" fill="none" xmlns="http://www.w3.org/2000/svg">
<path d="M6.21875 4.39061C5.95 4.42186 5.75 4.64686 5.75 4.91561C5.75 5.20623 5.98437 5.44061 6.27187 5.44373H9.75313C10.0281 5.44061 10.25 5.21873 10.25 4.94373V4.49998C10.25 4.20311 9.99062 3.96873 9.69375 4.00311L6.21875 4.39061ZM9.92188 6.44061H6.07812C6.02812 6.61873 6 6.80623 6 6.99998C6 8.10311 6.89688 8.99998 8 8.99998C9.10312 8.99998 10 8.10311 10 6.99998C10 6.80623 9.97188 6.61873 9.92188 6.44061ZM5 12V13C5 13.5531 5.44687 14 6 14H10C10.0562 14 10.1094 13.9969 10.1625 13.9875L5.65625 10.5187C5.25313 10.8844 5 11.4125 5 12ZM10.9437 13.3281C10.9781 13.225 11 13.1156 11 13V12C11 10.8969 10.1031 9.99998 9 9.99998H7C6.88437 9.99998 6.76875 10.0094 6.65937 10.0281L10.9437 13.3281ZM16 8.99998C16.5304 8.99998 17.0391 8.78927 17.4142 8.4142C17.7893 8.03913 18 7.53042 18 6.99998C18 6.46955 17.7893 5.96084 17.4142 5.58577C17.0391 5.2107 16.5304 4.99998 16 4.99998C15.4696 4.99998 14.9609 5.2107 14.5858 5.58577C14.2107 5.96084 14 6.46955 14 6.99998C14 7.53042 14.2107 8.03913 14.5858 8.4142C14.9609 8.78927 15.4696 8.99998 16 8.99998ZM15 9.99998C13.8969 9.99998 13 10.8969 13 12V13C13 13.5531 13.4469 14 14 14H18C18.5531 14 19 13.5531 19 13V12C19 10.8969 18.1031 9.99998 17 9.99998H15ZM10.7438 18.0656C10.9063 17.9219 11 17.7187 11 17.5C11 17.2812 10.9063 17.0781 10.7438 16.9344L8.74375 15.1844C8.52188 14.9906 8.20937 14.9437 7.94062 15.0656C7.67187 15.1875 7.5 15.4562 7.5 15.75V16.75H4.75C4.33437 16.75 4 17.0844 4 17.5C4 17.9156 4.33437 18.25 4.75 18.25H7.5V19.25C7.5 19.5437 7.67187 19.8125 7.94062 19.9344C8.20937 20.0562 8.52188 20.0094 8.74375 19.8156L10.7438 18.0656ZM13 17.4969C13 17.7125 13.0906 17.9187 13.2531 18.0625L15.2531 19.825C15.475 20.0187 15.7875 20.0687 16.0562 19.9469C16.325 19.825 16.4969 19.5594 16.4969 19.2625V18.25H19.2469C19.6625 18.25 19.9969 17.9156 19.9969 17.5C19.9969 17.0844 19.6625 16.75 19.2469 16.75H16.4969V15.75C16.4969 15.4562 16.325 15.1875 16.0562 15.0656C15.7875 14.9437 15.475 14.9906 15.2531 15.1844L13.2531 16.9344C13.0906 17.075 12.9969 17.2812 12.9969 17.4969H13Z" fill="black"/>
</svg>
