<svg width="24" height="24" viewBox="0 0 24 24" fill="none" xmlns="http://www.w3.org/2000/svg">
<path d="M11 17.9156V14.1094L8.05312 16.5188C8.86875 17.2313 9.88125 17.7281 11 17.9156ZM6.7875 14.9719L11 11.525V6.08437C8.1625 6.55937 6 9.02813 6 12C6 13.0812 6.2875 14.0969 6.7875 14.9719ZM15.9469 16.5188L13 14.1094V17.9156C14.1156 17.7281 15.1281 17.2313 15.9469 16.5188ZM17.2156 14.9719C17.7156 14.0969 18.0031 13.0812 18.0031 12C18.0031 9.02813 15.8406 6.55937 13.0031 6.08437V11.525L17.2125 14.9719H17.2156ZM4 12C4 9.87827 4.84285 7.84344 6.34315 6.34315C7.84344 4.84285 9.87827 4 12 4C14.1217 4 16.1566 4.84285 17.6569 6.34315C19.1571 7.84344 20 9.87827 20 12C20 14.1217 19.1571 16.1566 17.6569 17.6569C16.1566 19.1571 14.1217 20 12 20C9.87827 20 7.84344 19.1571 6.34315 17.6569C4.84285 16.1566 4 14.1217 4 12Z" fill="black"/>
</svg>
