<svg width="24" height="24" viewBox="0 0 24 24" fill="none" xmlns="http://www.w3.org/2000/svg">
<path d="M6.5 7C6.89782 7 7.27936 6.84196 7.56066 6.56066C7.84196 6.27936 8 5.89782 8 5.5C8 5.10218 7.84196 4.72064 7.56066 4.43934C7.27936 4.15804 6.89782 4 6.5 4C6.10218 4 5.72064 4.15804 5.43934 4.43934C5.15804 4.72064 5 5.10218 5 5.5C5 5.89782 5.15804 6.27936 5.43934 6.56066C5.72064 6.84196 6.10218 7 6.5 7ZM7 13.5844V11.5531L7.51875 12.3313C7.79687 12.75 8.26562 13 8.76562 13H10.975L11.8219 16.3844C11.3219 16.7469 11 17.3375 11 18C11 19.1031 11.8969 20 13 20C14.0094 20 14.8469 19.25 14.9812 18.2781L19.1812 17.2281C19.5844 17.1281 19.8281 16.7219 19.7281 16.3188C19.6281 15.9156 19.2219 15.6719 18.8188 15.7719L14.6156 16.8219C14.3031 16.3937 13.825 16.0938 13.2781 16.0188L11.7281 9.81875C11.6281 9.41562 11.2219 9.17187 10.8187 9.27187C10.4156 9.37187 10.1719 9.77813 10.2719 10.1813L10.475 11H9.03438L7.70312 9C7.2875 8.375 6.58437 8 5.83125 8C4.81875 8 4 8.81875 4 9.83125V12.5844C4 13.1156 4.20938 13.625 4.58438 14L7.06562 16.4812L7.5125 19.1656C7.60313 19.7094 8.11875 20.0781 8.6625 19.9875C9.20625 19.8969 9.575 19.3812 9.48438 18.8375L9.00938 15.9969C8.95938 15.6875 8.8125 15.4031 8.59062 15.1812L6.99688 13.5875L7 13.5844ZM4 14.8281V19C4 19.5531 4.44687 20 5 20C5.55313 20 6 19.5531 6 19V16.8281L4 14.8281ZM12.5 18C12.5 17.8674 12.5527 17.7402 12.6464 17.6464C12.7402 17.5527 12.8674 17.5 13 17.5C13.1326 17.5 13.2598 17.5527 13.3536 17.6464C13.4473 17.7402 13.5 17.8674 13.5 18C13.5 18.1326 13.4473 18.2598 13.3536 18.3536C13.2598 18.4473 13.1326 18.5 13 18.5C12.8674 18.5 12.7402 18.4473 12.6464 18.3536C12.5527 18.2598 12.5 18.1326 12.5 18Z" fill="black"/>
</svg>
