<svg width="24" height="24" viewBox="0 0 24 24" fill="none" xmlns="http://www.w3.org/2000/svg">
<path d="M16 20C17.1031 20 18 19.1031 18 18V8.32812C18 7.79688 17.7906 7.2875 17.4156 6.9125L15.0844 4.58438C14.7094 4.20938 14.2031 4 13.6719 4H8C6.89688 4 6 4.89688 6 6V18C6 19.1031 6.89688 20 8 20H16ZM12 15C11.8594 15 11.725 14.9406 11.6312 14.8375L9.26562 12.2563C8.825 11.775 9.16562 11 9.81875 11H14.1812C14.8344 11 15.175 11.775 14.7344 12.2563L12.3688 14.8375C12.275 14.9406 12.1406 15 12 15Z" fill="black"/>
</svg>
