<svg width="24" height="24" viewBox="0 0 24 24" fill="none" xmlns="http://www.w3.org/2000/svg">
<path d="M9.00006 5V8H13.0001V7H14.8782C15.0094 7 15.1376 7.05312 15.2313 7.14687L16.2907 8.20625C16.6813 8.59688 17.3157 8.59688 17.7063 8.20625C18.0969 7.81563 18.0969 7.18125 17.7063 6.79063L16.6469 5.73125C16.1782 5.2625 15.5407 5 14.8782 5H13.0001C13.0001 4.44687 12.5532 4 12.0001 4H10.0001C9.44693 4 9.00006 4.44687 9.00006 5ZM8.66881 9C7.62818 9 6.76256 9.79687 6.67506 10.8344L6.09381 17.8344C5.99693 19 6.91568 20 8.08756 20H13.9126C15.0813 20 16.0032 19 15.9063 17.8344L15.3219 10.8344C15.2344 9.79687 14.3688 9 13.3282 9H8.66881ZM11.7501 12.75V13.75H12.7501C13.1657 13.75 13.5001 14.0844 13.5001 14.5C13.5001 14.9156 13.1657 15.25 12.7501 15.25H11.7501V16.25C11.7501 16.6656 11.4157 17 11.0001 17C10.5844 17 10.2501 16.6656 10.2501 16.25V15.25H9.25006C8.83443 15.25 8.50006 14.9156 8.50006 14.5C8.50006 14.0844 8.83443 13.75 9.25006 13.75H10.2501V12.75C10.2501 12.3344 10.5844 12 11.0001 12C11.4157 12 11.7501 12.3344 11.7501 12.75Z" fill="black"/>
</svg>
