<svg width="24" height="24" viewBox="0 0 24 24" fill="none" xmlns="http://www.w3.org/2000/svg">
<path d="M5.00007 4.99993C5.00007 4.73471 5.10543 4.48036 5.29297 4.29282C5.4805 4.10529 5.73486 3.99993 6.00007 3.99993C6.26529 3.99993 6.51964 4.10529 6.70718 4.29282C6.89472 4.48036 7.00007 4.73471 7.00007 4.99993C7.00007 5.26515 6.89472 5.5195 6.70718 5.70704C6.51964 5.89457 6.26529 5.99993 6.00007 5.99993C5.73486 5.99993 5.4805 5.89457 5.29297 5.70704C5.10543 5.5195 5.00007 5.26515 5.00007 4.99993ZM18.0001 8.99993C18.0001 8.73471 18.1054 8.48036 18.293 8.29282C18.4805 8.10529 18.7349 7.99993 19.0001 7.99993C19.2653 7.99993 19.5196 8.10529 19.7072 8.29282C19.8947 8.48036 20.0001 8.73471 20.0001 8.99993C20.0001 9.26515 19.8947 9.5195 19.7072 9.70704C19.5196 9.89457 19.2653 9.99993 19.0001 9.99993C18.7349 9.99993 18.4805 9.89457 18.293 9.70704C18.1054 9.5195 18.0001 9.26515 18.0001 8.99993ZM19.0001 16.9999C19.2653 16.9999 19.5196 17.1053 19.7072 17.2928C19.8947 17.4804 20.0001 17.7347 20.0001 17.9999C20.0001 18.2651 19.8947 18.5195 19.7072 18.707C19.5196 18.8946 19.2653 18.9999 19.0001 18.9999C18.7349 18.9999 18.4805 18.8946 18.293 18.707C18.1054 18.5195 18.0001 18.2651 18.0001 17.9999C18.0001 17.7347 18.1054 17.4804 18.293 17.2928C18.4805 17.1053 18.7349 16.9999 19.0001 16.9999ZM9.21882 8.78118C8.92507 8.48743 8.92507 8.01243 9.21882 7.72181L9.4782 7.46243C10.0001 6.94056 10.3282 6.25618 10.4094 5.52181L10.5032 4.66556C10.5501 4.25618 10.9219 3.95931 11.3344 4.00306C11.7469 4.04681 12.0438 4.41868 11.9969 4.83118L11.9032 5.68743C11.7844 6.75931 11.3032 7.75931 10.5407 8.52181L10.2813 8.78118C9.98757 9.07493 9.51257 9.07493 9.22195 8.78118H9.21882ZM15.2188 13.7187L15.4751 13.4593C16.2376 12.6968 17.2376 12.2156 18.3094 12.0968L19.1657 12.0031C19.5782 11.9562 19.9469 12.2531 19.9938 12.6656C20.0407 13.0781 19.7438 13.4468 19.3313 13.4937L18.4751 13.5874C17.7407 13.6687 17.0563 13.9968 16.5344 14.5187L16.2813 14.7812C15.9876 15.0749 15.5126 15.0749 15.2219 14.7812C14.9313 14.4874 14.9282 14.0124 15.2219 13.7218L15.2188 13.7187ZM19.8219 4.26556C20.0907 4.58118 20.0501 5.05618 19.7344 5.32181L19.4219 5.58743C18.9594 5.97806 18.3688 6.18431 17.7657 6.16868C17.2469 6.15618 16.8094 6.55618 16.7782 7.07493L16.7219 8.01243C16.6438 9.34056 15.5251 10.3656 14.1969 10.3312C13.9594 10.3249 13.7282 10.4062 13.5501 10.5593L13.2376 10.8249C12.9219 11.0937 12.4469 11.0531 12.1813 10.7374C11.9157 10.4218 11.9532 9.94681 12.2688 9.68118L12.5813 9.41556C13.0438 9.02493 13.6344 8.81868 14.2376 8.83431C14.7563 8.84681 15.1938 8.44681 15.2251 7.92806L15.2813 6.99056C15.3594 5.66243 16.4782 4.63743 17.8063 4.67181C18.0438 4.67806 18.2751 4.59681 18.4532 4.44368L18.7657 4.17806C19.0813 3.90931 19.5563 3.94993 19.8219 4.26556ZM8.70632 10.2937L13.7063 15.2937C13.9469 15.5343 14.0501 15.8812 13.9751 16.2124C13.9001 16.5437 13.6657 16.8187 13.3501 16.9374L12.1094 17.4031L6.59695 11.8906L7.06257 10.6499C7.18132 10.3312 7.45632 10.0968 7.78757 10.0249C8.11882 9.95306 8.4657 10.0562 8.70632 10.2937ZM5.50632 14.7999L6.21257 12.9187L11.0813 17.7874L9.20007 18.4937L5.50632 14.7999ZM5.12195 15.8281L8.17195 18.8781L5.35007 19.9374C4.98445 20.0749 4.56882 19.9843 4.2907 19.7093C4.01257 19.4343 3.92507 19.0156 4.06257 18.6499L5.11882 15.8281H5.12195Z" fill="black"/>
</svg>
