<svg width="24" height="24" viewBox="0 0 24 24" fill="none" xmlns="http://www.w3.org/2000/svg">
<path d="M5.00007 4.9992C5.00007 4.73398 5.10543 4.47963 5.29297 4.29209C5.4805 4.10456 5.73486 3.9992 6.00007 3.9992C6.26529 3.9992 6.51964 4.10456 6.70718 4.29209C6.89472 4.47963 7.00007 4.73398 7.00007 4.9992C7.00007 5.26442 6.89472 5.51877 6.70718 5.70631C6.51964 5.89384 6.26529 5.9992 6.00007 5.9992C5.73486 5.9992 5.4805 5.89384 5.29297 5.70631C5.10543 5.51877 5.00007 5.26442 5.00007 4.9992ZM18.0001 8.9992C18.0001 8.73398 18.1054 8.47963 18.293 8.29209C18.4805 8.10456 18.7349 7.9992 19.0001 7.9992C19.2653 7.9992 19.5196 8.10456 19.7072 8.29209C19.8947 8.47963 20.0001 8.73398 20.0001 8.9992C20.0001 9.26442 19.8947 9.51877 19.7072 9.70631C19.5196 9.89384 19.2653 9.9992 19.0001 9.9992C18.7349 9.9992 18.4805 9.89384 18.293 9.70631C18.1054 9.51877 18.0001 9.26442 18.0001 8.9992ZM19.0001 16.9992C19.2653 16.9992 19.5196 17.1046 19.7072 17.2921C19.8947 17.4796 20.0001 17.734 20.0001 17.9992C20.0001 18.2644 19.8947 18.5188 19.7072 18.7063C19.5196 18.8938 19.2653 18.9992 19.0001 18.9992C18.7349 18.9992 18.4805 18.8938 18.293 18.7063C18.1054 18.5188 18.0001 18.2644 18.0001 17.9992C18.0001 17.734 18.1054 17.4796 18.293 17.2921C18.4805 17.1046 18.7349 16.9992 19.0001 16.9992ZM9.21882 8.78045C8.92507 8.4867 8.92507 8.0117 9.21882 7.72107L9.4782 7.4617C10.0001 6.93982 10.3282 6.25545 10.4094 5.52107L10.5032 4.66482C10.5501 4.25545 10.9219 3.95857 11.3344 4.00232C11.7469 4.04607 12.0438 4.41795 11.9969 4.83045L11.9032 5.6867C11.7844 6.75857 11.3032 7.75857 10.5407 8.52107L10.2813 8.78045C9.98757 9.0742 9.51257 9.0742 9.22195 8.78045H9.21882ZM15.2188 13.7179L15.4751 13.4586C16.2376 12.6961 17.2376 12.2148 18.3094 12.0961L19.1657 12.0023C19.5782 11.9554 19.9469 12.2523 19.9938 12.6648C20.0407 13.0773 19.7438 13.4461 19.3313 13.4929L18.4751 13.5867C17.7407 13.6679 17.0563 13.9961 16.5344 14.5179L16.2813 14.7804C15.9876 15.0742 15.5126 15.0742 15.2219 14.7804C14.9313 14.4867 14.9282 14.0117 15.2219 13.7211L15.2188 13.7179ZM19.8219 4.26482C20.0907 4.58045 20.0501 5.05545 19.7344 5.32107L19.4219 5.5867C18.9594 5.97732 18.3688 6.18357 17.7657 6.16795C17.2469 6.15545 16.8094 6.55545 16.7782 7.0742L16.7219 8.0117C16.6438 9.33982 15.5251 10.3648 14.1969 10.3304C13.9594 10.3242 13.7282 10.4054 13.5501 10.5586L13.2376 10.8242C12.9219 11.0929 12.4469 11.0523 12.1813 10.7367C11.9157 10.4211 11.9532 9.94607 12.2688 9.68045L12.5813 9.41482C13.0438 9.0242 13.6344 8.81795 14.2376 8.83357C14.7563 8.84607 15.1938 8.44607 15.2251 7.92732L15.2813 6.98982C15.3594 5.6617 16.4782 4.6367 17.8063 4.67107C18.0438 4.67732 18.2751 4.59607 18.4532 4.44295L18.7657 4.17732C19.0813 3.90857 19.5563 3.9492 19.8219 4.26482ZM8.70632 10.2929L13.7063 15.2929C13.9469 15.5336 14.0501 15.8804 13.9751 16.2117C13.9001 16.5429 13.6657 16.8179 13.3501 16.9367L12.1094 17.4023L6.59695 11.8898L7.06257 10.6492C7.18132 10.3304 7.45632 10.0961 7.78757 10.0242C8.11882 9.95232 8.4657 10.0554 8.70632 10.2929ZM5.50632 14.7992L6.21257 12.9179L11.0813 17.7867L9.20007 18.4929L5.50632 14.7992ZM5.12195 15.8273L8.17195 18.8773L5.35007 19.9367C4.98445 20.0742 4.56882 19.9836 4.2907 19.7086C4.01257 19.4336 3.92507 19.0148 4.06257 18.6492L5.11882 15.8273H5.12195Z" fill="black"/>
</svg>
