<svg width="24" height="24" viewBox="0 0 24 24" fill="none" xmlns="http://www.w3.org/2000/svg">
<path d="M8.99993 5.21942C8.99993 4.81317 9.31243 4.47567 9.71556 4.4413L14.4593 4.04442C14.7499 4.02255 14.9999 4.25067 14.9999 4.54442V5.50067C14.9999 5.77567 14.7749 6.00067 14.4999 6.00067H9.78118C9.34993 6.00067 8.99993 5.65067 8.99993 5.21942ZM9.54993 7.00067H14.4499C14.4812 7.16317 14.4999 7.3288 14.4999 7.50067C14.4999 8.88192 13.3812 10.0007 11.9999 10.0007C10.6187 10.0007 9.49993 8.88192 9.49993 7.50067C9.49993 7.3288 9.51868 7.16317 9.54993 7.00067ZM16.6749 18.385L14.9999 15.5538V19.0007C14.9999 19.0413 14.9968 19.0788 14.9937 19.1194L9.54681 11.3413C10.0656 11.1194 10.6281 11.0007 11.2124 11.0007H12.7874C13.2843 11.0007 13.7656 11.0882 14.2187 11.2475L17.1843 6.1163C16.9437 5.9788 16.8624 5.67255 16.9999 5.43192C17.1374 5.1913 17.4437 5.11005 17.6843 5.24755L18.1187 5.49755L18.5531 5.74755C18.7937 5.88505 18.8749 6.1913 18.7374 6.43192L16.9999 9.43504L17.0499 9.46317C17.5281 9.73817 17.6937 10.3507 17.4156 10.8288L16.2687 12.8132C16.3312 12.9007 16.3906 12.9944 16.4468 13.0882L18.8249 17.1132C19.1749 17.7069 18.9781 18.4725 18.3843 18.8257C17.7906 19.1788 17.0249 18.9788 16.6718 18.385H16.6749ZM13.9999 20.0007H9.99993C9.44681 20.0007 8.99993 19.5538 8.99993 19.0007V15.5538L7.32493 18.385C6.97493 18.9788 6.20618 19.1757 5.61243 18.8257C5.01868 18.4757 4.82181 17.7069 5.17181 17.1132L7.54993 13.0882C7.84368 12.5944 8.22806 12.1725 8.67493 11.8382L14.3468 19.9382C14.2374 19.9788 14.1218 20.0007 13.9999 20.0007ZM13.2499 14.0007C13.4488 14.0007 13.6396 13.9217 13.7803 13.781C13.9209 13.6403 13.9999 13.4496 13.9999 13.2507C13.9999 13.0518 13.9209 12.861 13.7803 12.7203C13.6396 12.5797 13.4488 12.5007 13.2499 12.5007C13.051 12.5007 12.8603 12.5797 12.7196 12.7203C12.5789 12.861 12.4999 13.0518 12.4999 13.2507C12.4999 13.4496 12.5789 13.6403 12.7196 13.781C12.8603 13.9217 13.051 14.0007 13.2499 14.0007Z" fill="black"/>
</svg>
