<svg width="24" height="24" viewBox="0 0 24 24" fill="none" xmlns="http://www.w3.org/2000/svg">
<path d="M11.0781 6.90315C11.525 8.24377 11.0687 9.5969 10.0594 9.92815C9.04998 10.2594 7.86873 9.44065 7.42186 8.10002C6.97498 6.7594 7.43123 5.40627 8.44061 5.07502C9.44999 4.74377 10.6312 5.56252 11.0781 6.90315ZM7.13748 10.2063C7.72811 11.2188 7.58436 12.3969 6.81873 12.8344C6.05311 13.2719 4.95311 12.8063 4.36561 11.7938C3.77811 10.7813 3.91561 9.60315 4.68123 9.16565C5.44686 8.72815 6.54686 9.19377 7.13436 10.2063H7.13748ZM6.16248 16.5375C7.79998 12.1219 10.7094 11 12 11C13.2906 11 16.2 12.1219 17.8375 16.5375C17.95 16.8406 18 17.1656 18 17.4906V17.5406C18 18.3469 17.3469 19 16.5406 19C16.1812 19 15.825 18.9563 15.4781 18.8688L12.7281 18.1813C12.25 18.0625 11.75 18.0625 11.2719 18.1813L8.52186 18.8688C8.17498 18.9563 7.81873 19 7.45936 19C6.65311 19 5.99998 18.3469 5.99998 17.5406V17.4906C5.99998 17.1656 6.04998 16.8406 6.16248 16.5375ZM17.1812 12.8344C16.4156 12.3969 16.2719 11.2188 16.8625 10.2063C17.4531 9.19377 18.55 8.72815 19.3156 9.16565C20.0812 9.60315 20.225 10.7813 19.6344 11.7938C19.0437 12.8063 17.9469 13.2719 17.1812 12.8344ZM13.6906 9.92815C12.6812 9.5969 12.225 8.24377 12.6719 6.90315C13.1187 5.56252 14.3 4.74377 15.3094 5.07502C16.3187 5.40627 16.775 6.7594 16.3281 8.10002C15.8812 9.44065 14.7 10.2594 13.6906 9.92815Z" fill="black"/>
</svg>
