<svg width="24" height="24" viewBox="0 0 24 24" fill="none" xmlns="http://www.w3.org/2000/svg">
<path d="M9.30313 4.02812C8.59063 3.97812 7.99375 4.46562 7.81875 5.1125L7.45 6.5C7.46563 6.5 7.48438 6.5 7.5 6.5C13.0219 6.5 17.5 10.9781 17.5 16.5C17.5 16.5156 17.5 16.5344 17.5 16.55L18.8875 16.1812C19.5375 16.0094 20.0219 15.4094 19.9719 14.6969C19.5781 8.98437 15.0156 4.42187 9.30313 4.02812ZM16.4937 16.8188C16.4969 16.7125 16.5 16.6063 16.5 16.5C16.5 11.5281 12.4719 7.5 7.5 7.5C7.39375 7.5 7.2875 7.50312 7.18125 7.50625L4.01563 19.3719C3.96875 19.5437 4.01875 19.7281 4.14375 19.8531C4.26875 19.9781 4.45313 20.0281 4.625 19.9812L16.4937 16.8188ZM9.5 10.5C9.76522 10.5 10.0196 10.6054 10.2071 10.7929C10.3946 10.9804 10.5 11.2348 10.5 11.5C10.5 11.7652 10.3946 12.0196 10.2071 12.2071C10.0196 12.3946 9.76522 12.5 9.5 12.5C9.23478 12.5 8.98043 12.3946 8.79289 12.2071C8.60536 12.0196 8.5 11.7652 8.5 11.5C8.5 11.2348 8.60536 10.9804 8.79289 10.7929C8.98043 10.6054 9.23478 10.5 9.5 10.5ZM11.5 14.5C11.5 14.2348 11.6054 13.9804 11.7929 13.7929C11.9804 13.6054 12.2348 13.5 12.5 13.5C12.7652 13.5 13.0196 13.6054 13.2071 13.7929C13.3946 13.9804 13.5 14.2348 13.5 14.5C13.5 14.7652 13.3946 15.0196 13.2071 15.2071C13.0196 15.3946 12.7652 15.5 12.5 15.5C12.2348 15.5 11.9804 15.3946 11.7929 15.2071C11.6054 15.0196 11.5 14.7652 11.5 14.5ZM7 16C7 15.7348 7.10536 15.4804 7.29289 15.2929C7.48043 15.1054 7.73478 15 8 15C8.26522 15 8.51957 15.1054 8.70711 15.2929C8.89464 15.4804 9 15.7348 9 16C9 16.2652 8.89464 16.5196 8.70711 16.7071C8.51957 16.8946 8.26522 17 8 17C7.73478 17 7.48043 16.8946 7.29289 16.7071C7.10536 16.5196 7 16.2652 7 16Z" fill="black"/>
</svg>
