<svg width="24" height="24" viewBox="0 0 24 24" fill="none" xmlns="http://www.w3.org/2000/svg">
<path d="M12.4031 4.02758C12.2312 4.0057 12.0594 4.07133 11.95 4.2057C11.8406 4.34008 11.8063 4.52133 11.8625 4.68695C11.95 4.9432 11.9969 5.21508 11.9969 5.50258C11.9969 6.8807 10.8813 7.99945 9.50313 8.00258H9C7.89687 8.00258 7 8.89945 7 10.0026C7 10.5995 7.2625 11.137 7.67812 11.5026H7.25C6.00625 11.5026 5 12.5088 5 13.7526C5 14.4776 5.34375 15.1213 5.875 15.5338C4.80938 15.712 4 16.637 4 17.7526C4 18.9963 5.00625 20.0026 6.25 20.0026H17.75C18.9937 20.0026 20 18.9963 20 17.7526C20 16.637 19.1906 15.712 18.125 15.5338C18.6562 15.1213 19 14.4776 19 13.7526C19 12.5088 17.9937 11.5026 16.75 11.5026H16.3219C16.7375 11.137 17 10.5995 17 10.0026C17 8.89945 16.1031 8.00258 15 8.00258H14.8281C14.9375 7.69008 15 7.35258 15 7.00258C15 5.48383 13.8687 4.22758 12.4031 4.0307V4.02758ZM10 11.9995C10.2652 11.9995 10.5196 12.1048 10.7071 12.2923C10.8946 12.4799 11 12.7342 11 12.9995C11 13.2647 10.8946 13.519 10.7071 13.7066C10.5196 13.8941 10.2652 13.9995 10 13.9995C9.73478 13.9995 9.48043 13.8941 9.29289 13.7066C9.10536 13.519 9 13.2647 9 12.9995C9 12.7342 9.10536 12.4799 9.29289 12.2923C9.48043 12.1048 9.73478 11.9995 10 11.9995ZM13 12.9995C13 12.7342 13.1054 12.4799 13.2929 12.2923C13.4804 12.1048 13.7348 11.9995 14 11.9995C14.2652 11.9995 14.5196 12.1048 14.7071 12.2923C14.8946 12.4799 15 12.7342 15 12.9995C15 13.2647 14.8946 13.519 14.7071 13.7066C14.5196 13.8941 14.2652 13.9995 14 13.9995C13.7348 13.9995 13.4804 13.8941 13.2929 13.7066C13.1054 13.519 13 13.2647 13 12.9995ZM15 16.3838C15 16.4588 14.9781 16.5338 14.9312 16.5932C14.675 16.9213 13.6969 17.9995 12 17.9995C10.3031 17.9995 9.325 16.9182 9.06875 16.5932C9.02187 16.5338 9 16.4588 9 16.3838C9 16.1713 9.17188 15.9995 9.38438 15.9995H14.6156C14.8281 15.9995 15 16.1713 15 16.3838Z" fill="black"/>
</svg>
