<svg width="24" height="24" viewBox="0 0 24 24" fill="none" xmlns="http://www.w3.org/2000/svg">
<path d="M14 4H18C19.1031 4 20 4.89688 20 6V10C20 10.275 19.775 10.5 19.5 10.5H17.875C17.6688 10.5 17.5 10.6688 17.5 10.875V11C17.5 11.5531 17.0531 12 16.5 12C15.9469 12 15.5 11.5531 15.5 11V10.875C15.5 10.6688 15.3312 10.5 15.125 10.5H14C13.725 10.5 13.5 10.275 13.5 10V9C13.5 8.725 13.725 8.5 14 8.5H14.5C15.0531 8.5 15.5 8.05313 15.5 7.5C15.5 6.94687 15.0531 6.5 14.5 6.5H14C13.725 6.5 13.5 6.275 13.5 6V4.5C13.5 4.225 13.725 4 14 4ZM4 12V8C4 6.89688 4.89688 6 6 6H10C10.275 6 10.5 6.225 10.5 6.5V7.625C10.5 7.83125 10.6688 8 10.875 8H11C11.5531 8 12 8.44687 12 9C12 9.55313 11.5531 10 11 10H10.875C10.6688 10 10.5 10.1688 10.5 10.375V12C10.5 12.275 10.275 12.5 10 12.5H9C8.725 12.5 8.5 12.275 8.5 12V11.5C8.5 10.9469 8.05313 10.5 7.5 10.5C6.94687 10.5 6.5 10.9469 6.5 11.5V12C6.5 12.275 6.275 12.5 6 12.5H4.5C4.225 12.5 4 12.275 4 12ZM4 18V14C4 13.725 4.225 13.5 4.5 13.5H10C10.275 13.5 10.5 13.725 10.5 14V15C10.5 15.275 10.275 15.5 10 15.5H9.5C8.94687 15.5 8.5 15.9469 8.5 16.5C8.5 17.0531 8.94687 17.5 9.5 17.5H10C10.275 17.5 10.5 17.725 10.5 18V19.5C10.5 19.775 10.275 20 10 20H6C4.89688 20 4 19.1031 4 18ZM11.5 14C11.5 13.725 11.725 13.5 12 13.5H13C13.275 13.5 13.5 13.725 13.5 14V14.5C13.5 15.0531 13.9469 15.5 14.5 15.5C15.0531 15.5 15.5 15.0531 15.5 14.5V14C15.5 13.725 15.725 13.5 16 13.5H17.5C17.775 13.5 18 13.725 18 14V18C18 19.1031 17.1031 20 16 20H12C11.725 20 11.5 19.775 11.5 19.5V14Z" fill="black"/>
</svg>
