<svg width="24" height="24" viewBox="0 0 24 24" fill="none" xmlns="http://www.w3.org/2000/svg">
<path d="M6 4C4.89688 4 4 4.89688 4 6V13H4.5C5.88125 13 7 14.1187 7 15.5V16C7 16.5531 7.44687 17 8 17C8.55313 17 9 16.5531 9 16V15C8.44687 15 8 14.5531 8 14V13C8 12.4469 8.44687 12 9 12H10C10.5531 12 11 12.4469 11 13V14C11 14.5531 10.5531 15 10 15V16C10 17.1031 9.10312 18 8 18C6.89688 18 6 17.1031 6 16V15.5C6 14.6719 5.32812 14 4.5 14H4V18C4 19.1031 4.89688 20 6 20H18C19.1031 20 20 19.1031 20 18V6C20 4.89688 19.1031 4 18 4H6ZM7.5 6H10.5C10.775 6 11 6.225 11 6.5C11 6.775 10.775 7 10.5 7H7.5C7.225 7 7 6.775 7 6.5C7 6.225 7.225 6 7.5 6ZM13.5 6H16.5C16.775 6 17 6.225 17 6.5C17 6.775 16.775 7 16.5 7H13.5C13.225 7 13 6.775 13 6.5C13 6.225 13.225 6 13.5 6ZM7.5 8H10.5C10.775 8 11 8.225 11 8.5C11 8.775 10.775 9 10.5 9H7.5C7.225 9 7 8.775 7 8.5C7 8.225 7.225 8 7.5 8ZM13.5 8H16.5C16.775 8 17 8.225 17 8.5C17 8.775 16.775 9 16.5 9H13.5C13.225 9 13 8.775 13 8.5C13 8.225 13.225 8 13.5 8ZM14 12H16C16.5531 12 17 12.4469 17 13V17C17 17.5531 16.5531 18 16 18H14C13.4469 18 13 17.5531 13 17V13C13 12.4469 13.4469 12 14 12Z" fill="black"/>
</svg>
