<svg width="24" height="24" viewBox="0 0 24 24" fill="none" xmlns="http://www.w3.org/2000/svg">
<path d="M5.5 7C5.89782 7 6.27936 6.84196 6.56066 6.56066C6.84196 6.27936 7 5.89782 7 5.5C7 5.10218 6.84196 4.72064 6.56066 4.43934C6.27936 4.15804 5.89782 4 5.5 4C5.10218 4 4.72064 4.15804 4.43934 4.43934C4.15804 4.72064 4 5.10218 4 5.5C4 5.89782 4.15804 6.27936 4.43934 6.56066C4.72064 6.84196 5.10218 7 5.5 7ZM5 8C3.89688 8 3 8.89687 3 10V14C3 14.5531 3.44687 15 4 15C4.30625 15 4.57812 14.8625 4.7625 14.65L5.5125 19.1656C5.60313 19.7094 6.11875 20.0781 6.6625 19.9875C7.20625 19.8969 7.575 19.3812 7.48438 18.8375L6.84687 15H7.3375L8.275 19.2156C8.39375 19.7562 8.92812 20.0938 9.46875 19.975C10.0094 19.8563 10.3469 19.3219 10.2281 18.7812L8.4375 10.7188L12.0719 12.4C12.0875 12.4094 12.1062 12.4156 12.1219 12.4219C12.3906 12.5344 12.6844 12.5187 12.9312 12.4C13.0375 12.35 13.1375 12.2781 13.2219 12.1906C13.3188 12.0906 13.3938 11.9719 13.4438 11.8344C13.4469 11.825 13.45 11.8125 13.4531 11.8031L13.5312 11.5687C13.7094 11.0344 14.1031 10.6031 14.6156 10.375L14.8656 10.2656C14.8969 10.2531 14.925 10.2406 14.9563 10.2281L14.4281 12.2125C14.2531 12.8719 14.425 13.575 14.8875 14.0781L17.0969 16.4875L17.7844 19.2406C17.9187 19.775 18.4625 20.1031 18.9969 19.9688C19.5312 19.8344 19.8594 19.2906 19.725 18.7563L19.0063 15.8781C18.9469 15.6344 18.825 15.4125 18.6562 15.2281L17.1094 13.5406L17.7125 11.4938L18.0125 12.2125C18.15 12.5437 18.4031 12.8156 18.725 12.9781L19.5594 13.3938C20.0531 13.6406 20.6531 13.4406 20.9 12.9469C21.1469 12.4531 20.9469 11.8531 20.4531 11.6062L19.7812 11.2719L19.3031 10.1219C18.7656 8.8375 17.5094 8 16.1156 8C15.4031 8 14.7 8.15 14.05 8.4375L13.8 8.54688C13.0375 8.8875 12.4062 9.45312 11.9844 10.1594L7.91563 8.27812C7.52187 8.09375 7.09062 8 6.65625 8H5ZM17.5 7C17.8978 7 18.2794 6.84196 18.5607 6.56066C18.842 6.27936 19 5.89782 19 5.5C19 5.10218 18.842 4.72064 18.5607 4.43934C18.2794 4.15804 17.8978 4 17.5 4C17.1022 4 16.7206 4.15804 16.4393 4.43934C16.158 4.72064 16 5.10218 16 5.5C16 5.89782 16.158 6.27936 16.4393 6.56066C16.7206 6.84196 17.1022 7 17.5 7ZM13.9281 14.4875L13.1469 16.4375L11.2906 18.2937C10.9 18.6844 10.9 19.3188 11.2906 19.7094C11.6812 20.1 12.3156 20.1 12.7063 19.7094L14.6344 17.7812C14.7781 17.6375 14.8906 17.4656 14.9656 17.2781L15.4187 16.1469L14.1469 14.7594C14.0688 14.675 13.9969 14.5844 13.9281 14.4906V14.4875Z" fill="black"/>
</svg>
