<svg width="24" height="24" viewBox="0 0 24 24" fill="none" xmlns="http://www.w3.org/2000/svg">
<path d="M16.0001 11C16.3941 11 16.7842 10.9224 17.1482 10.7716C17.5121 10.6209 17.8429 10.3999 18.1214 10.1213C18.4 9.84274 18.621 9.51203 18.7718 9.14805C18.9225 8.78407 19.0001 8.39397 19.0001 8C19.0001 7.60603 18.9225 7.21593 18.7718 6.85195C18.621 6.48797 18.4 6.15726 18.1214 5.87868C17.8429 5.6001 17.5121 5.37913 17.1482 5.22836C16.7842 5.0776 16.3941 5 16.0001 5C15.6062 5 15.216 5.0776 14.8521 5.22836C14.4881 5.37913 14.1574 5.6001 13.8788 5.87868C13.6002 6.15726 13.3792 6.48797 13.2285 6.85195C13.0777 7.21593 13.0001 7.60603 13.0001 8C13.0001 8.39397 13.0777 8.78407 13.2285 9.14805C13.3792 9.51203 13.6002 9.84274 13.8788 10.1213C14.1574 10.3999 14.4881 10.6209 14.8521 10.7716C15.216 10.9224 15.6062 11 16.0001 11ZM16.6907 18.95C17.1564 19.1 17.6501 18.8938 17.8751 18.4812C18.1064 18.0594 18.0064 17.5187 17.6126 17.2125L9.92512 10.7031C8.65637 9.6375 6.76262 9.80313 5.70012 11.0719C4.63762 12.3406 4.80324 14.2344 6.07199 15.3C6.35949 15.5406 6.69387 15.7312 7.07199 15.8531L16.6907 18.95ZM7.00012 13C7.00012 12.7348 7.10548 12.4804 7.29301 12.2929C7.48055 12.1054 7.7349 12 8.00012 12C8.26534 12 8.51969 12.1054 8.70723 12.2929C8.89476 12.4804 9.00012 12.7348 9.00012 13C9.00012 13.2652 8.89476 13.5196 8.70723 13.7071C8.51969 13.8946 8.26534 14 8.00012 14C7.7349 14 7.48055 13.8946 7.29301 13.7071C7.10548 13.5196 7.00012 13.2652 7.00012 13Z" fill="black"/>
</svg>
