<svg width="24" height="24" viewBox="0 0 24 24" fill="none" xmlns="http://www.w3.org/2000/svg">
<path d="M6.50023 5.5C6.50023 5.10218 6.65827 4.72064 6.93957 4.43934C7.22088 4.15804 7.60241 4 8.00023 4C8.39806 4 8.77959 4.15804 9.06089 4.43934C9.3422 4.72064 9.50023 5.10218 9.50023 5.5C9.50023 5.89782 9.3422 6.27936 9.06089 6.56066C8.77959 6.84196 8.39806 7 8.00023 7C7.60241 7 7.22088 6.84196 6.93957 6.56066C6.65827 6.27936 6.50023 5.89782 6.50023 5.5ZM7.75023 15V19C7.75023 19.5531 7.30336 20 6.75023 20C6.19711 20 5.75023 19.5531 5.75023 19V12.0281L4.85648 13.5156C4.57211 13.9875 3.95648 14.1406 3.48461 13.8562C3.01273 13.5719 2.85961 12.9563 3.14398 12.4844L4.96586 9.45312C5.50961 8.55 6.48461 7.99688 7.53773 7.99688H8.46586C9.51898 7.99688 10.494 8.55 11.0377 9.45312L12.4409 11.7875C11.9377 12.3375 11.5471 12.9906 11.2971 13.7094C11.2377 13.6531 11.1877 13.5875 11.144 13.5125L10.2502 12.0281V19C10.2502 19.5531 9.80336 20 9.25023 20C8.69711 20 8.25023 19.5531 8.25023 19V15H7.75023ZM16.5002 11C17.6937 11 18.8383 11.4741 19.6822 12.318C20.5261 13.1619 21.0002 14.3065 21.0002 15.5C21.0002 16.6935 20.5261 17.8381 19.6822 18.682C18.8383 19.5259 17.6937 20 16.5002 20C15.3068 20 14.1622 19.5259 13.3183 18.682C12.4743 17.8381 12.0002 16.6935 12.0002 15.5C12.0002 14.3065 12.4743 13.1619 13.3183 12.318C14.1622 11.4741 15.3068 11 16.5002 11ZM16.5002 18.5C16.6991 18.5 16.8899 18.421 17.0306 18.2803C17.1712 18.1397 17.2502 17.9489 17.2502 17.75C17.2502 17.5511 17.1712 17.3603 17.0306 17.2197C16.8899 17.079 16.6991 17 16.5002 17C16.3013 17 16.1106 17.079 15.9699 17.2197C15.8292 17.3603 15.7502 17.5511 15.7502 17.75C15.7502 17.9489 15.8292 18.1397 15.9699 18.2803C16.1106 18.421 16.3013 18.5 16.5002 18.5ZM14.5002 14.05V14.25C14.5002 14.525 14.7252 14.75 15.0002 14.75C15.2752 14.75 15.5002 14.525 15.5002 14.25V14.05C15.5002 13.8844 15.6346 13.75 15.8002 13.75H17.0659C17.3065 13.75 17.5002 13.9437 17.5002 14.1844C17.5002 14.3469 17.4096 14.4938 17.269 14.5688L16.269 15.0938C16.1034 15.1812 16.0002 15.35 16.0002 15.5375V16C16.0002 16.275 16.2252 16.5 16.5002 16.5C16.7752 16.5 17.0002 16.275 17.0002 16V15.8406L17.7346 15.4563C18.2065 15.2094 18.5002 14.7188 18.5002 14.1875C18.5002 13.3938 17.8565 12.7531 17.0659 12.7531H15.8002C15.0815 12.7531 14.5002 13.3344 14.5002 14.0531V14.05Z" fill="black"/>
</svg>
