<svg width="24" height="24" viewBox="0 0 24 24" fill="none" xmlns="http://www.w3.org/2000/svg">
<path d="M19.5655 4.17512C19.8811 4.39387 20.0467 4.77199 19.9873 5.15012L17.9873 18.1501C17.9405 18.4532 17.7561 18.7189 17.4873 18.8689C17.2186 19.0189 16.8967 19.0376 16.6123 18.9189L12.8748 17.3657L10.7342 19.6814C10.4561 19.9845 10.0186 20.0845 9.63421 19.9345C9.24984 19.7845 8.99984 19.4126 8.99984 19.0001V16.3876C8.99984 16.2626 9.04671 16.1439 9.13109 16.0532L14.3686 10.3376C14.5498 10.1407 14.5436 9.83762 14.3561 9.65012C14.1686 9.46262 13.8655 9.45012 13.6686 9.62824L7.31234 15.2751L4.55296 13.8939C4.22171 13.7282 4.00921 13.397 3.99984 13.0282C3.99046 12.6595 4.18421 12.3157 4.50296 12.1314L18.503 4.13137C18.8373 3.94074 19.2498 3.95949 19.5655 4.17512Z" fill="black"/>
</svg>
