<svg width="24" height="24" viewBox="0 0 24 24" fill="none" xmlns="http://www.w3.org/2000/svg">
<path d="M15.3344 4.60315L13.8219 6.11565L17.8844 10.1781L19.3969 8.66565C20.1782 7.8844 20.1782 6.61877 19.3969 5.83752L18.1657 4.60315C17.3844 3.8219 16.1188 3.8219 15.3375 4.60315H15.3344ZM13.1157 6.8219L5.83128 14.1094C5.50628 14.4344 5.26878 14.8375 5.13753 15.2781L4.03128 19.0375C3.95315 19.3032 4.02503 19.5875 4.21878 19.7813C4.41253 19.975 4.6969 20.0469 4.9594 19.9719L8.71878 18.8657C9.1594 18.7344 9.56253 18.4969 9.88753 18.1719L17.1782 10.8844L13.1157 6.8219Z" fill="black"/>
</svg>
