<svg width="24" height="24" viewBox="0 0 24 24" fill="none" xmlns="http://www.w3.org/2000/svg">
<path d="M5.00007 5.00005C5.00007 4.73484 5.10543 4.48048 5.29297 4.29295C5.4805 4.10541 5.73486 4.00005 6.00007 4.00005C6.26529 4.00005 6.51964 4.10541 6.70718 4.29295C6.89472 4.48048 7.00007 4.73484 7.00007 5.00005C7.00007 5.26527 6.89472 5.51962 6.70718 5.70716C6.51964 5.8947 6.26529 6.00005 6.00007 6.00005C5.73486 6.00005 5.4805 5.8947 5.29297 5.70716C5.10543 5.51962 5.00007 5.26527 5.00007 5.00005ZM18.0001 9.00005C18.0001 8.73484 18.1054 8.48048 18.293 8.29295C18.4805 8.10541 18.7349 8.00005 19.0001 8.00005C19.2653 8.00005 19.5196 8.10541 19.7072 8.29295C19.8947 8.48048 20.0001 8.73484 20.0001 9.00005C20.0001 9.26527 19.8947 9.51962 19.7072 9.70716C19.5196 9.8947 19.2653 10.0001 19.0001 10.0001C18.7349 10.0001 18.4805 9.8947 18.293 9.70716C18.1054 9.51962 18.0001 9.26527 18.0001 9.00005ZM19.0001 17.0001C19.2653 17.0001 19.5196 17.1054 19.7072 17.2929C19.8947 17.4805 20.0001 17.7348 20.0001 18.0001C20.0001 18.2653 19.8947 18.5196 19.7072 18.7072C19.5196 18.8947 19.2653 19.0001 19.0001 19.0001C18.7349 19.0001 18.4805 18.8947 18.293 18.7072C18.1054 18.5196 18.0001 18.2653 18.0001 18.0001C18.0001 17.7348 18.1054 17.4805 18.293 17.2929C18.4805 17.1054 18.7349 17.0001 19.0001 17.0001ZM9.21882 8.7813C8.92507 8.48755 8.92507 8.01255 9.21882 7.72193L9.4782 7.46255C10.0001 6.94068 10.3282 6.2563 10.4094 5.52193L10.5032 4.66568C10.5501 4.2563 10.9219 3.95943 11.3344 4.00318C11.7469 4.04693 12.0438 4.4188 11.9969 4.8313L11.9032 5.68755C11.7844 6.75943 11.3032 7.75943 10.5407 8.52193L10.2813 8.7813C9.98757 9.07505 9.51257 9.07505 9.22195 8.7813H9.21882ZM15.2188 13.7188L15.4751 13.4594C16.2376 12.6969 17.2376 12.2157 18.3094 12.0969L19.1657 12.0032C19.5782 11.9563 19.9469 12.2532 19.9938 12.6657C20.0407 13.0782 19.7438 13.4469 19.3313 13.4938L18.4751 13.5876C17.7407 13.6688 17.0563 13.9969 16.5344 14.5188L16.2813 14.7813C15.9876 15.0751 15.5126 15.0751 15.2219 14.7813C14.9313 14.4876 14.9282 14.0126 15.2219 13.7219L15.2188 13.7188ZM19.8219 4.26568C20.0907 4.5813 20.0501 5.0563 19.7344 5.32193L19.4219 5.58755C18.9594 5.97818 18.3688 6.18443 17.7657 6.1688C17.2469 6.1563 16.8094 6.5563 16.7782 7.07505L16.7219 8.01255C16.6438 9.34068 15.5251 10.3657 14.1969 10.3313C13.9594 10.3251 13.7282 10.4063 13.5501 10.5594L13.2376 10.8251C12.9219 11.0938 12.4469 11.0532 12.1813 10.7376C11.9157 10.4219 11.9532 9.94693 12.2688 9.6813L12.5813 9.41568C13.0438 9.02505 13.6344 8.8188 14.2376 8.83443C14.7563 8.84693 15.1938 8.44693 15.2251 7.92818L15.2813 6.99068C15.3594 5.66255 16.4782 4.63755 17.8063 4.67193C18.0438 4.67818 18.2751 4.59693 18.4532 4.4438L18.7657 4.17818C19.0813 3.90943 19.5563 3.95005 19.8219 4.26568ZM8.70632 10.2938L13.7063 15.2938C13.9469 15.5344 14.0501 15.8813 13.9751 16.2126C13.9001 16.5438 13.6657 16.8188 13.3501 16.9376L12.1094 17.4032L6.59695 11.8907L7.06257 10.6501C7.18132 10.3313 7.45632 10.0969 7.78757 10.0251C8.11882 9.95318 8.4657 10.0563 8.70632 10.2938ZM5.50632 14.8001L6.21257 12.9188L11.0813 17.7876L9.20007 18.4938L5.50632 14.8001ZM5.12195 15.8282L8.17195 18.8782L5.35007 19.9376C4.98445 20.0751 4.56882 19.9844 4.2907 19.7094C4.01257 19.4344 3.92507 19.0157 4.06257 18.6501L5.11882 15.8282H5.12195Z" fill="black"/>
</svg>
