<svg width="24" height="24" viewBox="0 0 24 24" fill="none" xmlns="http://www.w3.org/2000/svg">
<path d="M13.6031 15.4709C14.4562 15.349 15.225 14.8647 15.7031 14.1303L20.7563 6.31466C21.15 5.70529 21.05 4.89904 20.5187 4.40216C19.9875 3.90529 19.1781 3.86154 18.5969 4.29904L11.2 9.84904C10.45 10.4115 10.0062 11.2897 10 12.2272L13.6031 15.4709ZM12.9906 16.2647L9.36562 13.0022C7.49687 13.0709 6 14.6115 6 16.499C6 16.6209 6.00625 16.7428 6.01875 16.8615C6.075 17.4084 5.7 17.999 5.15 17.999H5C4.44687 17.999 4 18.4459 4 18.999C4 19.5522 4.44687 19.999 5 19.999H9.5C11.4344 19.999 13 18.4334 13 16.499C13 16.4209 12.9969 16.3428 12.9937 16.2647H12.9906Z" fill="black"/>
</svg>
