<svg width="24" height="24" viewBox="0 0 24 24" fill="none" xmlns="http://www.w3.org/2000/svg">
<path d="M20.7877 4.16008C21.1127 3.90383 21.5846 3.9632 21.8408 4.2882C22.0971 4.6132 22.0377 5.08508 21.7127 5.34133L3.21268 19.8413C2.88768 20.0976 2.4158 20.0382 2.15955 19.7132C1.9033 19.3882 1.96268 18.9163 2.28768 18.6601L7.15018 14.8476C5.18143 12.4382 4.00018 9.35695 4.00018 6.0007C4.00018 5.4382 4.3783 4.94445 4.92205 4.79445L7.67205 4.04445C8.2783 3.87883 8.91268 4.1882 9.1533 4.76945L10.4033 7.76945C10.6158 8.27883 10.4689 8.86945 10.0408 9.21633L8.50018 10.4788C8.87518 11.2757 9.35018 12.0163 9.90643 12.6882L20.7877 4.16008ZM9.32205 16.9882L12.1752 14.7382C12.6033 15.0226 13.0502 15.2788 13.5189 15.4976L14.7814 13.9601C15.1314 13.532 15.7189 13.3851 16.2283 13.5976L19.2283 14.8476C19.8095 15.0882 20.1189 15.7226 19.9533 16.3288L19.2033 19.0788C19.0564 19.6226 18.5627 20.0007 18.0002 20.0007C14.7221 20.0007 11.7096 18.8757 9.32205 16.9882Z" fill="black"/>
</svg>
