<svg width="24" height="24" viewBox="0 0 24 24" fill="none" xmlns="http://www.w3.org/2000/svg">
<path d="M18.5719 11.7875C19.45 10.9656 20 9.79688 20 8.5C20 6.01562 17.9844 4 15.5 4C14.2563 4 13.1281 4.50625 12.3125 5.32187C11.4563 6.18125 10.4062 6.96875 9.34062 7.55C8.5875 7.9625 7.96563 8.58437 7.55 9.34062C6.96875 10.4062 6.18125 11.4563 5.32187 12.3125C4.50625 13.1281 4 14.2563 4 15.5C4 17.9844 6.01562 20 8.5 20C9.44688 20 10.325 19.7094 11.0469 19.2094C11.925 18.6063 12.9281 18.1062 13.9375 17.7656C15.3156 17.3 16.4406 16.175 16.8469 14.6656C17.1344 13.5969 17.7656 12.5437 18.5719 11.7875ZM16 9.25C16.1989 9.25 16.3897 9.32902 16.5303 9.46967C16.671 9.61032 16.75 9.80109 16.75 10C16.75 10.1989 16.671 10.3897 16.5303 10.5303C16.3897 10.671 16.1989 10.75 16 10.75C15.8011 10.75 15.6103 10.671 15.4697 10.5303C15.329 10.3897 15.25 10.1989 15.25 10C15.25 9.80109 15.329 9.61032 15.4697 9.46967C15.6103 9.32902 15.8011 9.25 16 9.25ZM10 10.25C10.1989 10.25 10.3897 10.329 10.5303 10.4697C10.671 10.6103 10.75 10.8011 10.75 11C10.75 11.1989 10.671 11.3897 10.5303 11.5303C10.3897 11.671 10.1989 11.75 10 11.75C9.80109 11.75 9.61032 11.671 9.46967 11.5303C9.32902 11.3897 9.25 11.1989 9.25 11C9.25 10.8011 9.32902 10.6103 9.46967 10.4697C9.61032 10.329 9.80109 10.25 10 10.25ZM8.25 17C8.25 16.8011 8.32902 16.6103 8.46967 16.4697C8.61032 16.329 8.80109 16.25 9 16.25C9.19891 16.25 9.38968 16.329 9.53033 16.4697C9.67098 16.6103 9.75 16.8011 9.75 17C9.75 17.1989 9.67098 17.3897 9.53033 17.5303C9.38968 17.671 9.19891 17.75 9 17.75C8.80109 17.75 8.61032 17.671 8.46967 17.5303C8.32902 17.3897 8.25 17.1989 8.25 17Z" fill="black"/>
</svg>
