<svg width="24" height="24" viewBox="0 0 24 24" fill="none" xmlns="http://www.w3.org/2000/svg">
<path d="M3.21243 4.15955C2.88743 3.9033 2.41556 3.96268 2.15931 4.28768C1.90306 4.61268 1.96243 5.08455 2.28743 5.3408L20.7874 19.8408C21.1124 20.097 21.5843 20.0377 21.8406 19.7127C22.0968 19.3877 22.0374 18.9158 21.7124 18.6596L14.8093 13.2502L17.1749 10.8846L13.1156 6.82205L10.2562 9.68143L3.21243 4.15955ZM12.6624 15.4002L8.11868 11.8221L5.83118 14.1096C5.50618 14.4346 5.26868 14.8377 5.13743 15.2783L4.03118 19.0377C3.95306 19.3002 4.02493 19.5845 4.22181 19.7783C4.41868 19.9721 4.69993 20.0439 4.96243 19.9689L8.72181 18.8627C9.16243 18.7314 9.56556 18.4939 9.89056 18.1689L12.6593 15.4002H12.6624ZM15.3343 4.6033L13.8218 6.1158L17.8843 10.1783L19.3968 8.6658C20.1781 7.88455 20.1781 6.61893 19.3968 5.83768L18.1656 4.6033C17.3843 3.82205 16.1187 3.82205 15.3374 4.6033H15.3343Z" fill="black"/>
</svg>
