<svg width="24" height="24" viewBox="0 0 24 24" fill="none" xmlns="http://www.w3.org/2000/svg">
<path d="M3.21268 4.15955C2.88768 3.9033 2.4158 3.96268 2.15955 4.28768C1.9033 4.61268 1.96268 5.08455 2.28768 5.3408L20.7877 19.8408C21.1127 20.097 21.5846 20.0377 21.8408 19.7127C22.0971 19.3877 22.0377 18.9158 21.7127 18.6596L18.3189 16.0002H19.0002C19.5533 16.0002 20.0002 15.5533 20.0002 15.0002V12.0002C20.0002 10.8971 19.1033 10.0002 18.0002 10.0002H10.6627L8.00018 7.91268V6.00018H15.0846L16.0002 6.9158V9.00018H18.0002V6.9158C18.0002 6.38455 17.7908 5.87518 17.4158 5.50018L16.5002 4.58455C16.1252 4.20955 15.6158 4.00018 15.0846 4.00018H8.00018C6.89705 4.00018 6.00018 4.89705 6.00018 6.00018V6.34393L3.21268 4.15955ZM17.5564 19.2564L15.9627 18.0002H8.00018V16.0002V15.5002V15.0002H12.1533L5.81893 10.0096C4.80018 10.1002 4.00018 10.9564 4.00018 12.0002V15.0002C4.00018 15.5533 4.44705 16.0002 5.00018 16.0002H6.00018V18.0002C6.00018 19.1033 6.89705 20.0002 8.00018 20.0002H16.0002C16.6283 20.0002 17.1908 19.7096 17.5564 19.2564ZM17.5002 11.7502C17.6991 11.7502 17.8899 11.8292 18.0305 11.9698C18.1712 12.1105 18.2502 12.3013 18.2502 12.5002C18.2502 12.6991 18.1712 12.8899 18.0305 13.0305C17.8899 13.1712 17.6991 13.2502 17.5002 13.2502C17.3013 13.2502 17.1105 13.1712 16.9698 13.0305C16.8292 12.8899 16.7502 12.6991 16.7502 12.5002C16.7502 12.3013 16.8292 12.1105 16.9698 11.9698C17.1105 11.8292 17.3013 11.7502 17.5002 11.7502Z" fill="black"/>
</svg>
