<svg width="24" height="24" viewBox="0 0 24 24" fill="none" xmlns="http://www.w3.org/2000/svg">
<path d="M16.8221 11.2184L17.1752 10.8652L16.1158 9.80586L14.1752 7.86523L13.1158 6.80586L12.7627 7.15898L12.0565 7.86523L5.83146 14.0902C5.50646 14.4152 5.26896 14.8184 5.13771 15.259L4.03146 19.0215C3.95334 19.284 4.02521 19.5684 4.22209 19.7621C4.41896 19.9559 4.70021 20.0277 4.96271 19.9527L8.72209 18.8465C9.16271 18.7152 9.56584 18.4777 9.89084 18.1527L16.1158 11.9277L16.8221 11.2184ZM9.00021 16.4809L8.71584 17.1902C8.59084 17.2871 8.45021 17.359 8.30021 17.4059L5.85646 18.1246L6.57521 15.684C6.61896 15.5309 6.69396 15.3902 6.79084 15.2684L7.50021 14.984V15.984C7.50021 16.259 7.72521 16.484 8.00021 16.484H9.00021V16.4809ZM15.3346 4.58398L14.8846 5.03711L14.1783 5.74336L13.8221 6.09648L14.8815 7.15586L16.8221 9.09648L17.8815 10.1559L18.2346 9.80273L18.9408 9.09648L19.394 8.64336C20.1752 7.86211 20.1752 6.59648 19.394 5.81523L18.1658 4.58398C17.3846 3.80273 16.119 3.80273 15.3377 4.58398H15.3346ZM13.8533 9.83398L9.35334 14.334C9.15959 14.5277 8.84084 14.5277 8.64709 14.334C8.45334 14.1402 8.45334 13.8215 8.64709 13.6277L13.1471 9.12773C13.3408 8.93398 13.6596 8.93398 13.8533 9.12773C14.0471 9.32148 14.0471 9.64023 13.8533 9.83398Z" fill="black"/>
</svg>
