<svg width="24" height="24" viewBox="0 0 24 24" fill="none" xmlns="http://www.w3.org/2000/svg">
<path d="M16.8218 11.2187L17.175 10.8656L16.1156 9.80623L14.175 7.8656L13.1156 6.80623L12.7625 7.15935L12.0562 7.8656L5.83122 14.0906C5.50622 14.4156 5.26872 14.8187 5.13747 15.2593L4.03122 19.0219C3.95309 19.2844 4.02497 19.5687 4.22184 19.7625C4.41872 19.9562 4.69997 20.0281 4.96247 19.9531L8.72184 18.8469C9.16247 18.7156 9.56559 18.4781 9.89059 18.1531L16.1156 11.9281L16.8218 11.2187ZM8.99997 16.4812L8.71559 17.1906C8.59059 17.2875 8.44997 17.3594 8.29997 17.4062L5.85622 18.125L6.57497 15.6844C6.61872 15.5312 6.69372 15.3906 6.79059 15.2687L7.49997 14.9844V15.9844C7.49997 16.2594 7.72497 16.4844 7.99997 16.4844H8.99997V16.4812ZM15.3343 4.58435L14.8843 5.03748L14.1781 5.74373L13.8218 6.09685L14.8812 7.15623L16.8218 9.09685L17.8812 10.1562L18.2343 9.8031L18.9406 9.09685L19.3937 8.64373C20.175 7.86248 20.175 6.59685 19.3937 5.8156L18.1656 4.58435C17.3843 3.8031 16.1187 3.8031 15.3375 4.58435H15.3343ZM13.8531 9.83435L9.35309 14.3344C9.15934 14.5281 8.84059 14.5281 8.64684 14.3344C8.45309 14.1406 8.45309 13.8219 8.64684 13.6281L13.1468 9.1281C13.3406 8.93435 13.6593 8.93435 13.8531 9.1281C14.0468 9.32185 14.0468 9.6406 13.8531 9.83435Z" fill="black"/>
</svg>
