<svg width="24" height="24" viewBox="0 0 24 24" fill="none" xmlns="http://www.w3.org/2000/svg">
<path d="M5 6C3.89688 6 3 6.89688 3 8V16C3 17.1031 3.89688 18 5 18H19C20.1031 18 21 17.1031 21 16V8C21 6.89688 20.1031 6 19 6H5ZM19 11V16H16.5V13.8656C16.8 13.6938 17 13.3688 17 13V11H19ZM15.5 16H12.5V13.8656C12.8 13.6938 13 13.3688 13 13V11H15V13C15 13.3688 15.2 13.6938 15.5 13.8656V16ZM11.5 16H8.5V13.8656C8.8 13.6938 9 13.3688 9 13V11H11V13C11 13.3688 11.2 13.6938 11.5 13.8656V16ZM7.5 16H5V11H7V13C7 13.3688 7.2 13.6938 7.5 13.8656V16Z" fill="black"/>
</svg>
