<svg width="24" height="24" viewBox="0 0 24 24" fill="none" xmlns="http://www.w3.org/2000/svg">
<path d="M17.4844 4.37831C17.45 4.23769 17.3531 4.11581 17.2219 4.05019C17.0906 3.98456 16.9375 3.98144 16.8031 4.03769C16.3063 4.25331 15.9688 4.65019 15.8156 5.10644L15.3531 4.64706C15.1594 4.45331 14.8406 4.45331 14.6469 4.64706C14.1656 5.12831 13.9094 5.75019 13.8813 6.38144C13.2906 6.13144 12.6531 6.00019 12 6.00019C10.7188 6.00019 9.49062 6.50956 8.58437 7.41581L5.41562 10.5846C4.50937 11.4908 4 12.7189 4 14.0002C4 15.2814 4.50937 16.5096 5.41562 17.4158L6.5875 18.5877C7.49375 19.4939 8.72188 20.0033 10.0031 20.0033C11.2844 20.0033 12.5125 19.4939 13.4187 18.5877L16.5844 15.4158C17.4906 14.5096 18 13.2814 18 12.0002C18 11.3471 17.8687 10.7096 17.6187 10.1189C18.25 10.0908 18.8719 9.83456 19.3531 9.35331C19.5469 9.15956 19.5469 8.84081 19.3531 8.64706L18.8938 8.18769C19.35 8.03456 19.7469 7.69394 19.9594 7.20019C20.0156 7.06581 20.0125 6.91269 19.9469 6.78144C19.8812 6.65019 19.7625 6.55331 19.6187 6.51894L19.1719 6.40644C19.3875 6.03144 19.5 5.60644 19.5 5.17206V5.00019C19.5 4.72519 19.275 4.50019 19 4.50019H18.8281C18.3938 4.50019 17.9688 4.61269 17.5969 4.82519L17.4844 4.37831ZM9.14687 10.6471C9.34062 10.4533 9.65938 10.4533 9.85313 10.6471L10.5 11.2939L11.1469 10.6471C11.3406 10.4533 11.6594 10.4533 11.8531 10.6471C12.0469 10.8408 12.0469 11.1596 11.8531 11.3533L10.8531 12.3533C10.6594 12.5471 10.3406 12.5471 10.1469 12.3533L9.14687 11.3533C8.95312 11.1596 8.95312 10.8408 9.14687 10.6471ZM6.64687 13.1471C6.84062 12.9533 7.15938 12.9533 7.35313 13.1471L8 13.7939L8.64687 13.1471C8.84062 12.9533 9.15938 12.9533 9.35313 13.1471C9.54688 13.3408 9.54688 13.6596 9.35313 13.8533L8.35313 14.8533C8.15938 15.0471 7.84062 15.0471 7.64687 14.8533L6.64687 13.8533C6.45312 13.6596 6.45312 13.3408 6.64687 13.1471ZM12.3531 13.1471L13 13.7939L13.6469 13.1471C13.8406 12.9533 14.1594 12.9533 14.3531 13.1471C14.5469 13.3408 14.5469 13.6596 14.3531 13.8533L13.3531 14.8533C13.1594 15.0471 12.8406 15.0471 12.6469 14.8533L11.6469 13.8533C11.4531 13.6596 11.4531 13.3408 11.6469 13.1471C11.8406 12.9533 12.1594 12.9533 12.3531 13.1471ZM9.14687 16.3533C8.95312 16.1596 8.95312 15.8408 9.14687 15.6471C9.34062 15.4533 9.65938 15.4533 9.85313 15.6471L10.5 16.2939L11.1469 15.6471C11.3406 15.4533 11.6594 15.4533 11.8531 15.6471C12.0469 15.8408 12.0469 16.1596 11.8531 16.3533L10.8531 17.3533C10.6594 17.5471 10.3406 17.5471 10.1469 17.3533L9.14687 16.3533Z" fill="black"/>
</svg>
