<svg width="24" height="24" viewBox="0 0 24 24" fill="none" xmlns="http://www.w3.org/2000/svg">
<path d="M20.7876 4.15935C21.1126 3.9031 21.5844 3.96247 21.8407 4.28747C22.0969 4.61247 22.0376 5.08435 21.7126 5.3406L3.21255 19.8406C2.88755 20.0968 2.41568 20.0375 2.15943 19.7125C1.90318 19.3875 1.96255 18.9156 2.28755 18.6593L7.15005 14.8468C5.1813 12.4375 4.00005 9.35622 4.00005 5.99997C4.00005 5.43747 4.37818 4.94372 4.92193 4.79372L7.67193 4.04372C8.27818 3.8781 8.91255 4.18747 9.15318 4.76872L10.4032 7.76872C10.6157 8.2781 10.4688 8.86872 10.0407 9.2156L8.50005 10.4781C8.87505 11.275 9.35005 12.0156 9.9063 12.6875L20.7876 4.15935ZM9.32193 16.9875L12.1751 14.7375C12.6032 15.0218 13.0501 15.2781 13.5188 15.4968L14.7813 13.9593C15.1313 13.5312 15.7188 13.3843 16.2282 13.5968L19.2282 14.8468C19.8094 15.0875 20.1188 15.7218 19.9532 16.3281L19.2032 19.0781C19.0563 19.6218 18.5626 20 18.0001 20C14.7219 20 11.7094 18.875 9.32193 16.9875Z" fill="black"/>
</svg>
