<svg width="24" height="24" viewBox="0 0 24 24" fill="none" xmlns="http://www.w3.org/2000/svg">
<path d="M9 7.41558V10.8L7.72813 11.5625C7.275 11.8343 7 12.3218 7 12.85V20H10V17C10 15.8968 10.8969 15 12 15C13.1031 15 14 15.8968 14 17V20H17V12.85C17 12.3218 16.725 11.8343 16.2719 11.5625L15 10.8V7.41558C15 7.14995 14.8938 6.89683 14.7063 6.70933L12.3531 4.35308C12.1594 4.15933 11.8406 4.15933 11.6469 4.35308L9.29375 6.7062C9.10625 6.8937 9 7.14683 9 7.41245V7.41558ZM2.77812 14.3218C2.29688 14.5875 2 15.0906 2 15.6375V18.5C2 19.3281 2.67188 20 3.5 20H6V12.55L2.77812 14.3218ZM20.5 20C21.3281 20 22 19.3281 22 18.5V15.6375C22 15.0906 21.7031 14.5875 21.2219 14.3218L18 12.55V20H20.5Z" fill="black"/>
</svg>
