<svg width="24" height="24" viewBox="0 0 24 24" fill="none" xmlns="http://www.w3.org/2000/svg">
<path d="M18.2563 5.84687C17.9406 7.1125 16.8031 8 15.5 8C14.1969 8 13.0594 7.1125 12.7437 5.84687L12.4688 4.75625C12.3375 4.22188 11.7938 3.89687 11.2563 4.03125C10.7188 4.16563 10.3969 4.70625 10.5312 5.24375L10.8031 6.33437C11.1469 7.70937 12.0594 8.82188 13.25 9.44688V19C13.25 19.5531 13.6969 20 14.25 20C14.8031 20 15.25 19.5531 15.25 19V15H15.75V19C15.75 19.5531 16.1969 20 16.75 20C17.3031 20 17.75 19.5531 17.75 19V9.44688C18.9406 8.82188 19.8531 7.70937 20.1969 6.33437L20.4688 5.24375C20.6031 4.70937 20.2781 4.16563 19.7406 4.03125C19.2031 3.89687 18.6625 4.22188 18.5312 4.75625L18.2594 5.84687H18.2563ZM15.5 7C15.8978 7 16.2794 6.84196 16.5607 6.56066C16.842 6.27936 17 5.89782 17 5.5C17 5.10218 16.842 4.72064 16.5607 4.43934C16.2794 4.15804 15.8978 4 15.5 4C15.1022 4 14.7206 4.15804 14.4393 4.43934C14.158 4.72064 14 5.10218 14 5.5C14 5.89782 14.158 6.27936 14.4393 6.56066C14.7206 6.84196 15.1022 7 15.5 7ZM5.5 7C5.89782 7 6.27936 6.84196 6.56066 6.56066C6.84196 6.27936 7 5.89782 7 5.5C7 5.10218 6.84196 4.72064 6.56066 4.43934C6.27936 4.15804 5.89782 4 5.5 4C5.10218 4 4.72064 4.15804 4.43934 4.43934C4.15804 4.72064 4 5.10218 4 5.5C4 5.89782 4.15804 6.27936 4.43934 6.56066C4.72064 6.84196 5.10218 7 5.5 7ZM5.25 8C4.14688 8 3.25 8.89687 3.25 10V13V13.0188V19C3.25 19.5531 3.69687 20 4.25 20C4.80313 20 5.25 19.5531 5.25 19V15H5.75V19C5.75 19.5531 6.19688 20 6.75 20C7.30312 20 7.75 19.5531 7.75 19V11.8969L8.15625 12.5375C8.34062 12.825 8.65938 13.0031 9 13.0031H10.5C11.0531 13.0031 11.5 12.5563 11.5 12.0031C11.5 11.45 11.0531 11.0031 10.5 11.0031H9.55L8.38125 9.1625C7.925 8.4375 7.12812 8 6.27187 8H5.25Z" fill="black"/>
</svg>
