<svg width="24" height="24" viewBox="0 0 24 24" fill="none" xmlns="http://www.w3.org/2000/svg">
<path d="M14.9812 15.625C16.4969 14.6469 17.5 12.9406 17.5 11C17.5 7.9625 15.0375 5.5 12 5.5C8.9625 5.5 6.5 7.9625 6.5 11C6.5 12.9406 7.50313 14.6438 9.01875 15.625C9.05625 16.1656 9.14375 16.8125 9.24375 17.4094L9.25 17.4406C6.75 16.3688 5 13.8906 5 11C5 7.13438 8.13438 4 12 4C15.8656 4 19 7.13438 19 11C19 13.8906 17.25 16.3719 14.75 17.4406L14.7563 17.4062C14.8531 16.8062 14.9437 16.1625 14.9812 15.625ZM14.9094 14.4344C14.8594 14.2562 14.7875 14.0875 14.6906 13.9281C14.5094 13.625 14.2688 13.3969 14.0063 13.2281C14.6156 12.6781 15 11.8844 15 11C15 9.34375 13.6562 8 12 8C10.3438 8 9 9.34375 9 11C9 11.8844 9.38438 12.6812 9.99375 13.2281C9.73125 13.3969 9.49062 13.625 9.30937 13.9281C9.2125 14.0875 9.14062 14.2562 9.09062 14.4344C8.11875 13.6094 7.5 12.375 7.5 11C7.5 8.51562 9.51562 6.5 12 6.5C14.4844 6.5 16.5 8.51562 16.5 11C16.5 12.375 15.8813 13.6094 14.9094 14.4344ZM12 13.75C13.0281 13.75 14 14.0187 14 15.1187C14 16.15 13.5969 18.3719 13.3562 19.2719C13.1969 19.8656 12.5906 20.0031 12 20.0031C11.4094 20.0031 10.8063 19.8656 10.6438 19.2719C10.4 18.3813 10 16.1562 10 15.1219C10 14.025 10.9719 13.7531 12 13.7531V13.75ZM12 9.25C12.4641 9.25 12.9092 9.43437 13.2374 9.76256C13.5656 10.0908 13.75 10.5359 13.75 11C13.75 11.4641 13.5656 11.9092 13.2374 12.2374C12.9092 12.5656 12.4641 12.75 12 12.75C11.5359 12.75 11.0908 12.5656 10.7626 12.2374C10.4344 11.9092 10.25 11.4641 10.25 11C10.25 10.5359 10.4344 10.0908 10.7626 9.76256C11.0908 9.43437 11.5359 9.25 12 9.25Z" fill="black"/>
</svg>
