<svg width="24" height="24" viewBox="0 0 24 24" fill="none" xmlns="http://www.w3.org/2000/svg">
<path d="M6.49999 5.5C6.49999 5.10218 6.65802 4.72064 6.93933 4.43934C7.22063 4.15804 7.60216 4 7.99999 4C8.39781 4 8.77934 4.15804 9.06065 4.43934C9.34195 4.72064 9.49999 5.10218 9.49999 5.5C9.49999 5.89782 9.34195 6.27936 9.06065 6.56066C8.77934 6.84196 8.39781 7 7.99999 7C7.60216 7 7.22063 6.84196 6.93933 6.56066C6.65802 6.27936 6.49999 5.89782 6.49999 5.5ZM7.74999 15V19C7.74999 19.5531 7.30311 20 6.74999 20C6.19686 20 5.74999 19.5531 5.74999 19V12.0281L4.85624 13.5156C4.57186 13.9875 3.95624 14.1406 3.48436 13.8562C3.01249 13.5719 2.85936 12.9563 3.14374 12.4844L4.96561 9.45312C5.50936 8.55 6.48436 7.99688 7.53749 7.99688H8.46561C9.51874 7.99688 10.4937 8.55 11.0375 9.45312L12.4406 11.7875C11.9375 12.3375 11.5469 12.9906 11.2969 13.7094C11.2375 13.6531 11.1875 13.5875 11.1437 13.5125L10.25 12.0281V19C10.25 19.5531 9.80311 20 9.24999 20C8.69686 20 8.24999 19.5531 8.24999 19V15H7.74999ZM16.5 11C17.6935 11 18.8381 11.4741 19.682 12.318C20.5259 13.1619 21 14.3065 21 15.5C21 16.6935 20.5259 17.8381 19.682 18.682C18.8381 19.5259 17.6935 20 16.5 20C15.3065 20 14.1619 19.5259 13.318 18.682C12.4741 17.8381 12 16.6935 12 15.5C12 14.3065 12.4741 13.1619 13.318 12.318C14.1619 11.4741 15.3065 11 16.5 11ZM16.5 18.5C16.6989 18.5 16.8897 18.421 17.0303 18.2803C17.171 18.1397 17.25 17.9489 17.25 17.75C17.25 17.5511 17.171 17.3603 17.0303 17.2197C16.8897 17.079 16.6989 17 16.5 17C16.3011 17 16.1103 17.079 15.9697 17.2197C15.829 17.3603 15.75 17.5511 15.75 17.75C15.75 17.9489 15.829 18.1397 15.9697 18.2803C16.1103 18.421 16.3011 18.5 16.5 18.5ZM14.5 14.05V14.25C14.5 14.525 14.725 14.75 15 14.75C15.275 14.75 15.5 14.525 15.5 14.25V14.05C15.5 13.8844 15.6344 13.75 15.8 13.75H17.0656C17.3062 13.75 17.5 13.9437 17.5 14.1844C17.5 14.3469 17.4094 14.4938 17.2687 14.5688L16.2687 15.0938C16.1031 15.1812 16 15.35 16 15.5375V16C16 16.275 16.225 16.5 16.5 16.5C16.775 16.5 17 16.275 17 16V15.8406L17.7344 15.4563C18.2062 15.2094 18.5 14.7188 18.5 14.1875C18.5 13.3938 17.8562 12.7531 17.0656 12.7531H15.8C15.0812 12.7531 14.5 13.3344 14.5 14.0531V14.05Z" fill="black"/>
</svg>
