<svg width="24" height="24" viewBox="0 0 24 24" fill="none" xmlns="http://www.w3.org/2000/svg">
<path d="M7.99999 8C8.53042 8 9.03913 7.78929 9.4142 7.41421C9.78927 7.03914 9.99999 6.53043 9.99999 6C9.99999 5.46957 9.78927 4.96086 9.4142 4.58579C9.03913 4.21071 8.53042 4 7.99999 4C7.46955 4 6.96085 4.21071 6.58577 4.58579C6.2107 4.96086 5.99999 5.46957 5.99999 6C5.99999 6.53043 6.2107 7.03914 6.58577 7.41421C6.96085 7.78929 7.46955 8 7.99999 8ZM7.29999 9C5.99999 9 4.91561 9.99687 4.80936 11.2937L4.68124 12.8344C4.60311 13.7656 5.17186 14.5875 5.99999 14.8844V18.5C5.99999 19.3281 6.67186 20 7.49999 20H8.49999C9.32811 20 9.99999 19.3281 9.99999 18.5V14.8844C10.8281 14.5875 11.3969 13.7656 11.3187 12.8344L11.1906 11.2937C11.0844 9.99687 9.99999 9 8.69999 9H7.29999ZM16 8C16.5304 8 17.0391 7.78929 17.4142 7.41421C17.7893 7.03914 18 6.53043 18 6C18 5.46957 17.7893 4.96086 17.4142 4.58579C17.0391 4.21071 16.5304 4 16 4C15.4696 4 14.9608 4.21071 14.5858 4.58579C14.2107 4.96086 14 5.46957 14 6C14 6.53043 14.2107 7.03914 14.5858 7.41421C14.9608 7.78929 15.4696 8 16 8ZM15.5094 9C14.6156 9 13.8312 9.59062 13.5875 10.45L12.3656 14.725C12.1844 15.3625 12.6625 16 13.3281 16H14V18.5C14 19.3281 14.6719 20 15.5 20H16.5C17.3281 20 18 19.3281 18 18.5V16H18.675C19.3406 16 19.8187 15.3656 19.6375 14.725L18.4156 10.45C18.1719 9.59062 17.3844 9 16.4937 9H15.5094Z" fill="black"/>
</svg>
