<svg width="24" height="24" viewBox="0 0 24 24" fill="none" xmlns="http://www.w3.org/2000/svg">
<path d="M10.7156 4.44056C10.3125 4.47494 10 4.81244 10 5.21869C10 5.64994 10.35 5.99994 10.7812 5.99994H15.5C15.775 5.99994 16 5.77494 16 5.49994V4.54369C16 4.24994 15.75 4.02181 15.4594 4.04369L10.7156 4.44056ZM10.5 7.49994C10.5 8.88119 11.6187 9.99994 13 9.99994C14.3813 9.99994 15.5 8.88119 15.5 7.49994C15.5 7.32806 15.4812 7.16244 15.45 6.99994H10.55C10.5188 7.16244 10.5 7.32806 10.5 7.49994ZM5.25 10.9999C4.55937 10.9999 4 11.5593 4 12.2499C4 12.9406 4.55937 13.4999 5.25 13.4999H10V16.2937L15.0875 11.2031C14.6719 11.0687 14.2344 10.9999 13.7875 10.9999H10.5H5.25ZM16.0531 11.6531L10.7063 16.9999H16V15.5531L17.675 18.3843C18.025 18.9781 18.7938 19.1749 19.3875 18.8249C19.9813 18.4749 20.1781 17.7062 19.8281 17.1124L17.4469 13.0874C17.0969 12.4968 16.6156 12.0093 16.0531 11.6531ZM10 17.9999V18.9999C10 19.5531 10.4469 19.9999 11 19.9999H15C15.5531 19.9999 16 19.5531 16 18.9999V17.9999H10Z" fill="black"/>
</svg>
