<svg width="24" height="24" viewBox="0 0 24 24" fill="none" xmlns="http://www.w3.org/2000/svg">
<path d="M9.5 9C9.5 7.89688 10.3969 7 11.5 7H12.5C13.6031 7 14.5 7.89688 14.5 9V9.1125C14.5 9.79375 14.1531 10.4281 13.5813 10.7937L12.2625 11.6406C11.475 12.1469 11 13.0188 11 13.9531V14C11 14.5531 11.4469 15 12 15C12.5531 15 13 14.5531 13 14V13.9563C13 13.7 13.1312 13.4625 13.3438 13.325L14.6625 12.4781C15.8062 11.7406 16.5 10.475 16.5 9.1125V9C16.5 6.79063 14.7094 5 12.5 5H11.5C9.29063 5 7.5 6.79063 7.5 9C7.5 9.55313 7.94687 10 8.5 10C9.05313 10 9.5 9.55313 9.5 9ZM12 19C12.3315 19 12.6495 18.8683 12.8839 18.6339C13.1183 18.3995 13.25 18.0815 13.25 17.75C13.25 17.4185 13.1183 17.1005 12.8839 16.8661C12.6495 16.6317 12.3315 16.5 12 16.5C11.6685 16.5 11.3505 16.6317 11.1161 16.8661C10.8817 17.1005 10.75 17.4185 10.75 17.75C10.75 18.0815 10.8817 18.3995 11.1161 18.6339C11.3505 18.8683 11.6685 19 12 19Z" fill="black"/>
</svg>
