<svg width="24" height="24" viewBox="0 0 24 24" fill="none" xmlns="http://www.w3.org/2000/svg">
<path d="M4 10.9993C4 11.5524 4.44687 11.9993 5 11.9993C5.55313 11.9993 6 11.5524 6 10.9993C6 9.34306 7.34375 7.99931 9 7.99931H14V8.99931C14 9.40243 14.2437 9.76806 14.6187 9.92431C14.9937 10.0806 15.4219 9.99306 15.7094 9.70868L17.7094 7.70868C18.1 7.31806 18.1 6.68368 17.7094 6.29306L15.7094 4.29306C15.4219 4.00556 14.9937 3.92118 14.6187 4.07743C14.2437 4.23368 14 4.59618 14 4.99931V5.99931H9C6.2375 5.99931 4 8.23681 4 10.9993ZM20 12.9993C20 12.4462 19.5531 11.9993 19 11.9993C18.4469 11.9993 18 12.4462 18 12.9993C18 14.6556 16.6562 15.9993 15 15.9993H10V14.9993C10 14.5962 9.75625 14.2306 9.38125 14.0743C9.00625 13.9181 8.57812 14.0056 8.29063 14.2899L6.29063 16.2899C5.9 16.6806 5.9 17.3149 6.29063 17.7056L8.29063 19.7056C8.57812 19.9931 9.00625 20.0774 9.38125 19.9212C9.75625 19.7649 10 19.4024 10 18.9962V17.9993H15C17.7625 17.9993 20 15.7618 20 12.9993Z" fill="black"/>
</svg>
