<svg width="24" height="24" viewBox="0 0 24 24" fill="none" xmlns="http://www.w3.org/2000/svg">
<path d="M11 4C9.89687 4 9 4.89688 9 6V18C9 19.1031 9.89687 20 11 20H19C20.1031 20 21 19.1031 21 18V6C21 4.89688 20.1031 4 19 4H11ZM6 6.25V17.75C6 18.1656 6.33437 18.5 6.75 18.5C7.16563 18.5 7.5 18.1656 7.5 17.75V6.25C7.5 5.83438 7.16563 5.5 6.75 5.5C6.33437 5.5 6 5.83438 6 6.25ZM3 7.75V16.25C3 16.6656 3.33437 17 3.75 17C4.16562 17 4.5 16.6656 4.5 16.25V7.75C4.5 7.33437 4.16562 7 3.75 7C3.33437 7 3 7.33437 3 7.75Z" fill="black"/>
</svg>
