<svg width="24" height="24" viewBox="0 0 24 24" fill="none" xmlns="http://www.w3.org/2000/svg">
<path d="M8.6625 5H11V7C11 7.55312 11.4469 8 12 8C12.5531 8 13 7.55312 13 7V5H15.3375C16.1844 5 16.9406 5.53437 17.2219 6.33125L18.5562 10.1C18.2156 10.0344 17.8625 10 17.5 10C15.6406 10 13.9969 10.925 13 12.3375V11C13 10.4469 12.5531 10 12 10C11.4469 10 11 10.4469 11 11V13C11 13.5531 11.4469 14 12 14C12.0719 14 12.1437 13.9906 12.2125 13.9781C12.0719 14.4625 12 14.9719 12 15.5C12 15.6687 12.0063 15.8344 12.0219 16H12C11.4469 16 11 16.4469 11 17V19H4.70625C3.76562 19 3 18.2344 3 17.2937C3 17.1 3.03437 16.9062 3.09687 16.725L6.77812 6.33125C7.0625 5.53437 7.81562 5 8.6625 5ZM13 15.5C13 14.3065 13.4741 13.1619 14.318 12.318C15.1619 11.4741 16.3065 11 17.5 11C18.6935 11 19.8381 11.4741 20.682 12.318C21.5259 13.1619 22 14.3065 22 15.5C22 16.6935 21.5259 17.8381 20.682 18.682C19.8381 19.5259 18.6935 20 17.5 20C16.3065 20 15.1619 19.5259 14.318 18.682C13.4741 17.8381 13 16.6935 13 15.5ZM19.6031 14.1469C19.4094 13.9531 19.0906 13.9531 18.8969 14.1469L17 16.0437L16.1031 15.1469C15.9094 14.9531 15.5906 14.9531 15.3969 15.1469C15.2031 15.3406 15.2031 15.6594 15.3969 15.8531L16.6469 17.1031C16.8406 17.2969 17.1594 17.2969 17.3531 17.1031L19.6031 14.8531C19.7969 14.6594 19.7969 14.3406 19.6031 14.1469Z" fill="black"/>
</svg>
