<svg width="24" height="24" viewBox="0 0 24 24" fill="none" xmlns="http://www.w3.org/2000/svg">
<path d="M15.5 4.5C15.9187 4.5 16.325 4.56562 16.7031 4.68437C16.0437 4.74062 15.3125 4.95625 14.5469 5.29375C12.8781 6.02813 10.9594 7.38437 9.16875 9.17188C7.37812 10.9594 6.02813 12.8781 5.29375 14.55C4.95625 15.3156 4.74062 16.0469 4.68437 16.7063C4.56562 16.325 4.5 15.9187 4.5 15.5V14.5C4.5 8.97813 8.97813 4.5 14.5 4.5H15.5ZM19.3156 7.29688C19.4344 7.67812 19.5 8.08125 19.5 8.5V9.5C19.5 15.0219 15.0219 19.5 9.5 19.5H8.5C8.08125 19.5 7.675 19.4344 7.29688 19.3156C7.95625 19.2594 8.6875 19.0438 9.45312 18.7063C11.1219 17.9719 13.0406 16.6156 14.8313 14.8281C16.6219 13.0406 17.975 11.1219 18.7094 9.45C19.0469 8.68437 19.2625 7.95313 19.3188 7.29375L19.3156 7.29688ZM5.99063 18.0094C5.78125 17.8 5.65 17.4531 5.67188 16.9219C5.69375 16.3875 5.86875 15.7188 6.20625 14.9531C6.87812 13.4219 8.15313 11.6062 9.87813 9.88125C11.6031 8.15625 13.4219 6.88437 14.95 6.20937C15.7156 5.87187 16.3844 5.69687 16.9187 5.675C17.4531 5.65312 17.7969 5.78437 18.0063 5.99375C18.2156 6.20312 18.3469 6.55 18.325 7.08125C18.3031 7.61562 18.1281 8.28438 17.7906 9.05C17.1187 10.5813 15.8437 12.3969 14.1187 14.1219C12.3937 15.8469 10.575 17.1187 9.04688 17.7937C8.28125 18.1312 7.6125 18.3063 7.07812 18.3281C6.54375 18.35 6.2 18.2219 5.99063 18.0094Z" fill="black"/>
</svg>
