<svg width="24" height="24" viewBox="0 0 24 24" fill="none" xmlns="http://www.w3.org/2000/svg">
<path d="M12.5156 4.14376C12.2 3.95314 11.8031 3.95314 11.4875 4.14376L11.3406 4.23126C10.1687 4.93439 8.71563 4.99064 7.49375 4.37814L7.45 4.35626C6.975 4.11876 6.39687 4.29376 6.13437 4.75314L5.13438 6.50314C4.96875 6.79376 4.95937 7.14689 5.10938 7.44689L5.61563 8.46251C5.86875 8.97189 6 9.53126 6 10.1C6 10.5656 5.9125 11.0281 5.7375 11.4625L5.29063 12.5781C5.1 13.0594 5 13.575 5 14.0938C5 15.6406 5.875 17.0563 7.25625 17.7469L11.55 19.8938C11.8313 20.0344 12.1625 20.0344 12.4437 19.8938L16.7375 17.7469C18.125 17.0563 19 15.6406 19 14.0938C19 13.575 18.9 13.0594 18.7094 12.5781L18.2625 11.4625C18.0906 11.0281 18 10.5688 18 10.1C18 9.53126 18.1312 8.96876 18.3875 8.45939L18.8938 7.44376C19.0437 7.14376 19.0344 6.79064 18.8687 6.50001L17.8687 4.75001C17.6062 4.29064 17.0281 4.11564 16.5531 4.35314L16.5094 4.37501C15.2875 4.98751 13.8344 4.93126 12.6625 4.22814L12.5156 4.14064V4.14376ZM8 10H16C16 10.0344 16 10.0688 16 10.1C16 10.8219 16.1375 11.5344 16.4062 12.2031L16.8531 13.3188C16.9531 13.5656 17.0031 13.8281 17.0031 14.0938C17.0031 14.8844 16.5563 15.6063 15.85 15.9594L12 17.8813L8.15313 15.9594C7.44688 15.6063 7 14.8844 7 14.0938C7 13.8281 7.05 13.5656 7.15 13.3188L7.59375 12.2063C7.8625 11.5375 8 10.8219 8 10.1031C8 10.0688 8 10.0344 8 10.0031V10Z" fill="black"/>
</svg>
