<svg width="24" height="24" viewBox="0 0 24 24" fill="none" xmlns="http://www.w3.org/2000/svg">
<path d="M4 11C4 11.5532 4.44687 12 5 12C5.55313 12 6 11.5532 6 11C6 9.34379 7.34375 8.00004 9 8.00004H14V9.00004C14 9.40316 14.2437 9.76879 14.6187 9.92504C14.9937 10.0813 15.4219 9.99379 15.7094 9.70941L17.7094 7.70941C18.1 7.31879 18.1 6.68441 17.7094 6.29379L15.7094 4.29379C15.4219 4.00629 14.9937 3.92191 14.6187 4.07816C14.2437 4.23441 14 4.59691 14 5.00004V6.00004H9C6.2375 6.00004 4 8.23754 4 11ZM20 13C20 12.4469 19.5531 12 19 12C18.4469 12 18 12.4469 18 13C18 14.6563 16.6562 16 15 16H10V15C10 14.5969 9.75625 14.2313 9.38125 14.075C9.00625 13.9188 8.57812 14.0063 8.29063 14.2907L6.29063 16.2907C5.9 16.6813 5.9 17.3157 6.29063 17.7063L8.29063 19.7063C8.57812 19.9938 9.00625 20.0782 9.38125 19.9219C9.75625 19.7657 10 19.4032 10 18.9969V18H15C17.7625 18 20 15.7625 20 13Z" fill="black"/>
</svg>
