<svg width="24" height="24" viewBox="0 0 24 24" fill="none" xmlns="http://www.w3.org/2000/svg">
<path d="M8.46562 8.4656C10.4094 6.52185 13.55 6.51248 15.5063 8.43435L14.2188 9.71873C14.0031 9.93435 13.9406 10.2562 14.0562 10.5375C14.1719 10.8187 14.4469 11 14.75 11H18.4844H18.75C19.1656 11 19.5 10.6656 19.5 10.25V6.24998C19.5 5.94685 19.3188 5.67185 19.0375 5.55623C18.7563 5.4406 18.4344 5.5031 18.2188 5.71873L16.9187 7.01873C14.1812 4.3156 9.77187 4.32498 7.05 7.04998C6.2875 7.81248 5.7375 8.70935 5.4 9.66873C5.21562 10.1906 5.49063 10.7594 6.00938 10.9437C6.52813 11.1281 7.1 10.8531 7.28437 10.3344C7.525 9.6531 7.91562 9.01248 8.46562 8.4656ZM4.5 13.75V13.9875V14.0094V17.75C4.5 18.0531 4.68125 18.3281 4.9625 18.4437C5.24375 18.5594 5.56562 18.4969 5.78125 18.2812L7.08125 16.9812C9.81875 19.6844 14.2281 19.675 16.95 16.95C17.7125 16.1875 18.2656 15.2906 18.6031 14.3344C18.7875 13.8125 18.5125 13.2437 17.9937 13.0594C17.475 12.875 16.9031 13.15 16.7188 13.6687C16.4781 14.35 16.0875 14.9906 15.5375 15.5375C13.5938 17.4812 10.4531 17.4906 8.49687 15.5687L9.78125 14.2812C9.99687 14.0656 10.0594 13.7437 9.94375 13.4625C9.82812 13.1812 9.55312 13 9.25 13H5.5125H5.49063H5.25C4.83437 13 4.5 13.3344 4.5 13.75Z" fill="black"/>
</svg>
