<svg width="24" height="24" viewBox="0 0 24 24" fill="none" xmlns="http://www.w3.org/2000/svg">
<path d="M5 11.9998C4.44687 11.9998 4 11.5529 4 10.9998C4 8.23729 6.2375 5.99979 9 5.99979H14V4.99979C14 4.59666 14.2437 4.23104 14.6187 4.07479C14.9937 3.91854 15.4219 4.00604 15.7094 4.29041L17.7094 6.29041C18.1 6.68104 18.1 7.31541 17.7094 7.70604L15.7094 9.70604C15.4219 9.99354 14.9937 10.0779 14.6187 9.92166C14.2437 9.76541 14 9.40291 14 8.99666V7.99979H9C7.34375 7.99979 6 9.34354 6 10.9998C6 11.5529 5.55313 11.9998 5 11.9998ZM19 11.9998C19.5531 11.9998 20 12.4467 20 12.9998C20 15.7623 17.7625 17.9998 15 17.9998H10V18.9998C10 19.4029 9.75625 19.7685 9.38125 19.9248C9.00625 20.081 8.57813 19.9935 8.29063 19.7092L6.29063 17.7092C5.9 17.3185 5.9 16.6842 6.29063 16.2935L8.29063 14.2935C8.57813 14.006 9.00625 13.9217 9.38125 14.0779C9.75625 14.2342 10 14.5967 10 15.0029V16.0029H15C16.6562 16.0029 18 14.6592 18 13.0029C18 12.4498 18.4469 12.0029 19 12.0029V11.9998ZM13 10.7498V13.2498C13 13.6654 12.6656 13.9998 12.25 13.9998C11.8344 13.9998 11.5 13.6654 11.5 13.2498V11.7498C11.1875 11.7498 10.8937 11.5498 10.7875 11.2373C10.6562 10.8435 10.8687 10.4185 11.2625 10.2873L12.0125 10.0373C12.2406 9.96229 12.4938 9.99979 12.6875 10.1404C12.8812 10.281 13 10.5092 13 10.7498Z" fill="black"/>
</svg>
