<svg width="24" height="24" viewBox="0 0 24 24" fill="none" xmlns="http://www.w3.org/2000/svg">
<path d="M10.4062 5.08749C10.7656 5.24686 11 5.60624 11 5.99999V7.99999H14.5C17.5375 7.99999 20 10.4625 20 13.5C20 17.0406 17.4531 18.6219 16.8687 18.9406C16.7906 18.9844 16.7031 19 16.6156 19C16.275 19 16 18.7219 16 18.3844C16 18.15 16.1344 17.9344 16.3062 17.775C16.6 17.5 17 16.95 17 16.0031C17 14.3469 15.6562 13.0031 14 13.0031H11V15.0031C11 15.3969 10.7688 15.7562 10.4062 15.9156C10.0437 16.075 9.625 16.0094 9.33125 15.7469L4.33125 11.2469C4.12188 11.0531 4 10.7844 4 10.5C4 10.2156 4.12188 9.94686 4.33125 9.75624L9.33125 5.25624C9.625 4.99061 10.0469 4.92499 10.4062 5.08749Z" fill="black"/>
</svg>
