<svg width="24" height="24" viewBox="0 0 24 24" fill="none" xmlns="http://www.w3.org/2000/svg">
<path d="M6.34063 10L5.44062 9.5688C5.20312 10.0657 5.4125 10.6625 5.90937 10.9032C6.40625 11.1438 7.00313 10.9313 7.24375 10.4344V10.4313L7.25 10.4219L7.27187 10.375C7.29062 10.3344 7.32187 10.275 7.35938 10.2C7.4375 10.05 7.54375 9.8438 7.67188 9.62192C7.94375 9.1438 8.24063 8.69067 8.4625 8.4688C10.4156 6.51567 13.5813 6.51567 15.5344 8.4688L16.0719 9.00005H15C14.4469 9.00005 14 9.44692 14 10C14 10.5532 14.4469 11 15 11H18.5C19.0531 11 19.5 10.5532 19.5 10V6.50005C19.5 5.94692 19.0531 5.50005 18.5 5.50005C17.9469 5.50005 17.5 5.94692 17.5 6.50005V7.60005L16.95 7.05005C14.2156 4.31567 9.78437 4.31567 7.05 7.05005C6.61875 7.4813 6.20625 8.15005 5.93438 8.6313C5.79063 8.88755 5.66562 9.1188 5.58125 9.28755C5.5375 9.37192 5.50312 9.44067 5.47812 9.49067L5.45 9.54692L5.44375 9.56255L5.44062 9.5688C5.44062 9.5688 5.44063 9.5688 6.34375 10H6.34063ZM12.75 8.75005C12.75 8.33442 12.4156 8.00005 12 8.00005C11.5844 8.00005 11.25 8.33442 11.25 8.75005V12.25C11.25 12.6657 11.5844 13 12 13C12.4156 13 12.75 12.6657 12.75 12.25V8.75005ZM12 16C12.2652 16 12.5196 15.8947 12.7071 15.7072C12.8946 15.5196 13 15.2653 13 15C13 14.7348 12.8946 14.4805 12.7071 14.2929C12.5196 14.1054 12.2652 14 12 14C11.7348 14 11.4804 14.1054 11.2929 14.2929C11.1054 14.4805 11 14.7348 11 15C11 15.2653 11.1054 15.5196 11.2929 15.7072C11.4804 15.8947 11.7348 16 12 16ZM5.5 18.5C6.05313 18.5 6.5 18.0532 6.5 17.5V16.4L7.05 16.95C9.78437 19.6844 14.2156 19.6844 16.95 16.95C17.7125 16.1875 18.2656 15.2907 18.6031 14.3344C18.7875 13.8125 18.5125 13.2438 17.9937 13.0594C17.475 12.875 16.9031 13.15 16.7188 13.6688C16.4781 14.35 16.0875 14.9907 15.5375 15.5375C13.5844 17.4907 10.4187 17.4907 8.46562 15.5375L7.92812 15H9C9.55313 15 10 14.5532 10 14C10 13.4469 9.55313 13 9 13H5.5C4.94687 13 4.5 13.4469 4.5 14V17.5C4.5 18.0532 4.94687 18.5 5.5 18.5Z" fill="black"/>
</svg>
