<svg width="24" height="24" viewBox="0 0 24 24" fill="none" xmlns="http://www.w3.org/2000/svg">
<path d="M9.45936 5.40937C10.0062 4.53125 10.9687 4 12 4C13.0312 4 13.9937 4.53125 14.5406 5.40937L15.7469 7.3375L16.5906 6.85C16.8531 6.69687 17.1812 6.71875 17.4219 6.90313C17.6625 7.0875 17.7687 7.4 17.6906 7.69375L16.9594 10.425C16.8531 10.825 16.4406 11.0625 16.0406 10.9563L13.3094 10.225C13.0156 10.1469 12.8 9.9 12.7594 9.6C12.7187 9.3 12.8656 9.00313 13.1281 8.85313L14.0156 8.34062L12.8437 6.46875C12.6625 6.17812 12.3437 6 12 6C11.6562 6 11.3375 6.17812 11.1562 6.46875L10.6094 7.34375C10.3219 7.80625 9.71561 7.95312 9.24686 7.67188C8.76874 7.38438 8.61561 6.75937 8.91249 6.28437L9.45936 5.40937ZM17.4219 11.8719C17.8906 11.5906 18.4969 11.7375 18.7844 12.2L19.5469 13.4219C19.8406 13.8938 19.9969 14.4344 20.0031 14.9906C20.0125 16.65 18.6687 18.0031 17.0094 18.0031L14 18V19C14 19.3031 13.8187 19.5781 13.5375 19.6938C13.2562 19.8094 12.9344 19.7469 12.7187 19.5312L10.7187 17.5312C10.425 17.2375 10.425 16.7625 10.7187 16.4719L12.7187 14.4719C12.9344 14.2563 13.2562 14.1937 13.5375 14.3094C13.8187 14.425 14 14.7 14 15.0031V16.0031H17.0062C17.5562 16.0031 18.0031 15.5531 18 15.0031C18 14.8188 17.9469 14.6375 17.85 14.4812L17.0875 13.2594C16.7906 12.7844 16.9406 12.1594 17.4219 11.8719ZM6.02811 10.9031L5.12499 10.3812C4.86249 10.2281 4.71561 9.93438 4.75624 9.63438C4.79686 9.33437 5.01249 9.0875 5.30624 9.00938L8.03749 8.27812C8.43749 8.17188 8.84999 8.40937 8.95624 8.80937L9.68749 11.5375C9.76561 11.8312 9.65936 12.1406 9.41874 12.3281C9.17811 12.5156 8.84999 12.5344 8.58749 12.3813L7.75936 11.9031L6.14999 14.4781C6.05311 14.6344 5.99999 14.8156 5.99999 15C5.99686 15.55 6.44374 16 6.99374 16H7.99999C8.55311 16 8.99999 16.4469 8.99999 17C8.99999 17.5531 8.55311 18 7.99999 18H6.99374C5.33436 18 3.99061 16.65 3.99999 14.9875C4.00311 14.4313 4.15936 13.8906 4.45624 13.4187L6.02811 10.9031Z" fill="black"/>
</svg>
