<svg width="24" height="24" viewBox="0 0 24 24" fill="none" xmlns="http://www.w3.org/2000/svg">
<path d="M4.00625 18.6531C4.08438 19.4094 4.72188 20 5.5 20H8.5H18.5C19.3281 20 20 19.3281 20 18.5V15.5C20 14.6719 19.3281 14 18.5 14H17V16.5C17 16.775 16.775 17 16.5 17C16.225 17 16 16.775 16 16.5V14H14V16.5C14 16.775 13.775 17 13.5 17C13.225 17 13 16.775 13 16.5V14H11V16.5C11 16.775 10.775 17 10.5 17C10.225 17 10 16.775 10 16.5V14H7.5C7.225 14 7 13.775 7 13.5C7 13.225 7.225 13 7.5 13H10V11H7.5C7.225 11 7 10.775 7 10.5C7 10.225 7.225 10 7.5 10H10V8H7.5C7.225 8 7 7.775 7 7.5C7 7.225 7.225 7 7.5 7H10V5.5C10 4.67188 9.32812 4 8.5 4H5.5C4.67188 4 4 4.67188 4 5.5V15.5V18.5C4 18.5531 4.00313 18.6031 4.00625 18.6531Z" fill="black"/>
</svg>
