<svg width="24" height="24" viewBox="0 0 24 24" fill="none" xmlns="http://www.w3.org/2000/svg">
<path d="M8.89378 16.0282L7.92816 15.0625C7.66253 14.7969 7.56878 14.4125 7.68753 14.0563C7.78128 13.7782 7.90628 13.4157 8.05628 13H4.75003C4.48128 13 4.23128 12.8563 4.09691 12.6219C3.96253 12.3875 3.96566 12.1 4.10316 11.8688L5.74378 9.10316C6.15003 8.41878 6.88441 8.00003 7.67816 8.00003H10.25C10.325 7.87503 10.4 7.7594 10.475 7.6469C13.0344 3.8719 16.8469 3.74691 19.1219 4.16566C19.4844 4.23128 19.7657 4.51566 19.8344 4.87816C20.2532 7.15628 20.125 10.9657 16.3532 13.525C16.2438 13.6 16.125 13.675 16 13.75V16.3219C16 17.1157 15.5813 17.8532 14.8969 18.2563L12.1313 19.8969C11.9 20.0344 11.6125 20.0375 11.3782 19.9032C11.1438 19.7688 11 19.5219 11 19.25V15.9C10.5594 16.0532 10.175 16.1782 9.88441 16.2719C9.53441 16.3844 9.15316 16.2875 8.89066 16.0282H8.89378ZM16 9.25003C16.3316 9.25003 16.6495 9.11833 16.8839 8.88391C17.1183 8.64949 17.25 8.33155 17.25 8.00003C17.25 7.66851 17.1183 7.35057 16.8839 7.11615C16.6495 6.88173 16.3316 6.75003 16 6.75003C15.6685 6.75003 15.3506 6.88173 15.1161 7.11615C14.8817 7.35057 14.75 7.66851 14.75 8.00003C14.75 8.33155 14.8817 8.64949 15.1161 8.88391C15.3506 9.11833 15.6685 9.25003 16 9.25003Z" fill="black"/>
</svg>
