<svg width="24" height="24" viewBox="0 0 24 24" fill="none" xmlns="http://www.w3.org/2000/svg">
<path d="M7.68128 8.0006H10.4688C12.9657 3.88497 16.7969 3.73497 19.1219 4.16622C19.4844 4.23497 19.7688 4.51622 19.8344 4.87872C20.2657 7.20372 20.1157 11.035 16 13.5318V16.3225C16 17.1162 15.5813 17.8537 14.8969 18.2568L12.1313 19.8975C11.9 20.035 11.6125 20.0381 11.3782 19.9037C11.1438 19.7693 11 19.5225 11 19.2506V15.6662C11 14.96 10.7188 14.2818 10.2188 13.7818C9.71878 13.2818 9.04066 13.0006 8.33441 13.0006H4.75003C4.48128 13.0006 4.23128 12.8568 4.09691 12.6225C3.96253 12.3881 3.96566 12.1006 4.10316 11.8693L5.74378 9.10372C6.15003 8.41935 6.88441 8.0006 7.67816 8.0006H7.68128ZM17.25 8.0006C17.25 7.66908 17.1183 7.35113 16.8839 7.11671C16.6495 6.88229 16.3316 6.7506 16 6.7506C15.6685 6.7506 15.3506 6.88229 15.1161 7.11671C14.8817 7.35113 14.75 7.66908 14.75 8.0006C14.75 8.33212 14.8817 8.65006 15.1161 8.88448C15.3506 9.1189 15.6685 9.2506 16 9.2506C16.3316 9.2506 16.6495 9.1189 16.8839 8.88448C17.1183 8.65006 17.25 8.33212 17.25 8.0006ZM9.20316 18.6881C8.13441 19.76 6.06253 19.9693 4.88441 19.9975C4.38441 20.01 3.99066 19.6162 4.00316 19.1162C4.03128 17.9381 4.24066 15.8662 5.31253 14.7975C6.38753 13.7225 8.12816 13.7225 9.20316 14.7975C10.2782 15.8725 10.2782 17.6131 9.20316 18.6881ZM7.74378 17.5506C8.10003 17.1943 8.10003 16.6131 7.74378 16.2568C7.38753 15.9006 6.80628 15.9006 6.45003 16.2568C6.13441 16.5725 6.04378 17.1475 6.02191 17.5475C6.00628 17.7975 6.20628 17.9943 6.45628 17.9818C6.85628 17.96 7.43128 17.8662 7.74691 17.5537L7.74378 17.5506Z" fill="black"/>
</svg>
