<svg width="24" height="24" viewBox="0 0 24 24" fill="none" xmlns="http://www.w3.org/2000/svg">
<path d="M13 8.5C13 7.30653 13.4741 6.16193 14.318 5.31802C15.1619 4.47411 16.3065 4 17.5 4C18.6935 4 19.8381 4.47411 20.682 5.31802C21.5259 6.16193 22 7.30653 22 8.5C22 9.69347 21.5259 10.8381 20.682 11.682C19.8381 12.5259 18.6935 13 17.5 13C16.3065 13 15.1619 12.5259 14.318 11.682C13.4741 10.8381 13 9.69347 13 8.5ZM17.5 6C17.225 6 17 6.225 17 6.5V8.5C17 8.775 17.225 9 17.5 9H19C19.275 9 19.5 8.775 19.5 8.5C19.5 8.225 19.275 8 19 8H18V6.5C18 6.225 17.775 6 17.5 6ZM17.5 14C17.6594 14 17.8188 13.9937 17.975 13.9812C17.9906 14.1531 18 14.325 18 14.5C18 18.0406 15.4531 19.6219 14.8687 19.9406C14.7906 19.9844 14.7031 20 14.6156 20C14.275 20 14 19.7219 14 19.3844C14 19.15 14.1344 18.9344 14.3062 18.775C14.6 18.5 15 17.95 15 17.0031C15 15.3469 13.6562 14.0031 12 14.0031H9V16.0031C9 16.3969 8.76875 16.7562 8.40625 16.9156C8.04375 17.075 7.625 17.0094 7.33125 16.7469L2.33125 12.2469C2.12188 12.0531 2 11.7844 2 11.5C2 11.2156 2.12188 10.9469 2.33125 10.7562L7.33125 6.25625C7.625 5.99062 8.04688 5.925 8.40625 6.0875C8.76562 6.25 9 6.60625 9 7V9H12.0219C12.275 11.8031 14.6313 14 17.5 14Z" fill="black"/>
</svg>
