<svg width="24" height="24" viewBox="0 0 24 24" fill="none" xmlns="http://www.w3.org/2000/svg">
<path d="M13 4H21C21.5531 4 22 4.44687 22 5V19C22 19.5531 21.5531 20 21 20H13C12.4469 20 12 19.5531 12 19V5C12 4.44687 12.4469 4 13 4ZM17 10.25C16.5844 10.25 16.25 10.5844 16.25 11V13C16.25 13.4156 16.5844 13.75 17 13.75C17.4156 13.75 17.75 13.4156 17.75 13V11C17.75 10.5844 17.4156 10.25 17 10.25ZM17.75 16C17.75 15.5844 17.4156 15.25 17 15.25C16.5844 15.25 16.25 15.5844 16.25 16V18C16.25 18.4156 16.5844 18.75 17 18.75C17.4156 18.75 17.75 18.4156 17.75 18V16ZM17 5.25C16.5844 5.25 16.25 5.58438 16.25 6V8C16.25 8.41563 16.5844 8.75 17 8.75C17.4156 8.75 17.75 8.41563 17.75 8V6C17.75 5.58438 17.4156 5.25 17 5.25ZM3 7H11V9H9.75V11H11V14C9.34375 14 8 15.3438 8 17V19C8 19.5531 7.55312 20 7 20H6C5.44688 20 5 19.5531 5 19V17C5 15.3438 3.65625 14 2 14V11H4.25V9H3C2.44687 9 2 8.55312 2 8C2 7.44688 2.44687 7 3 7ZM8.25 9H5.75V11H8.25V9Z" fill="black"/>
</svg>
