<svg width="24" height="24" viewBox="0 0 24 24" fill="none" xmlns="http://www.w3.org/2000/svg">
<path d="M5 6C5 5.44687 5.44687 5 6 5C13.1812 5 19 10.8187 19 18C19 18.5531 18.5531 19 18 19C17.4469 19 17 18.5531 17 18C17 11.925 12.075 7 6 7C5.44687 7 5 6.55313 5 6ZM5 17C5 16.4696 5.21071 15.9609 5.58579 15.5858C5.96086 15.2107 6.46957 15 7 15C7.53043 15 8.03914 15.2107 8.41421 15.5858C8.78929 15.9609 9 16.4696 9 17C9 17.5304 8.78929 18.0391 8.41421 18.4142C8.03914 18.7893 7.53043 19 7 19C6.46957 19 5.96086 18.7893 5.58579 18.4142C5.21071 18.0391 5 17.5304 5 17ZM6 9C10.9719 9 15 13.0281 15 18C15 18.5531 14.5531 19 14 19C13.4469 19 13 18.5531 13 18C13 14.1344 9.86562 11 6 11C5.44687 11 5 10.5531 5 10C5 9.44688 5.44687 9 6 9Z" fill="black"/>
</svg>
