<svg width="24" height="24" viewBox="0 0 24 24" fill="none" xmlns="http://www.w3.org/2000/svg">
<path d="M18.4844 11H18.75C19.1656 11 19.5 10.6656 19.5 10.25V6.24998C19.5 5.94685 19.3187 5.67185 19.0375 5.55623C18.7562 5.4406 18.4344 5.5031 18.2187 5.71873L16.9187 7.01873C14.1812 4.3156 9.77186 4.32498 7.04999 7.04998C4.31561 9.78435 4.31561 14.2156 7.04999 16.95C9.78436 19.6844 14.2156 19.6844 16.95 16.95C17.3406 16.5594 17.3406 15.925 16.95 15.5344C16.5594 15.1437 15.925 15.1437 15.5344 15.5344C13.5812 17.4875 10.4156 17.4875 8.46249 15.5344C6.50936 13.5812 6.50936 10.4156 8.46249 8.46248C10.4062 6.51873 13.5469 6.50935 15.5031 8.43123L14.2187 9.71873C14.0031 9.93435 13.9406 10.2562 14.0562 10.5375C14.1719 10.8187 14.4469 11 14.75 11H18.4844Z" fill="black"/>
</svg>
