<svg width="24" height="24" viewBox="0 0 24 24" fill="none" xmlns="http://www.w3.org/2000/svg">
<path d="M16.2375 4C16.8313 4 17.4 4.23438 17.8188 4.65625L21.5312 8.36562C21.8313 8.66562 22 9.075 22 9.5C22 9.925 21.8313 10.3344 21.5312 10.6344L17.8188 14.3438C17.4 14.7625 16.8313 15 16.2375 15C15.0813 15 14.1312 14.125 14.0125 13H8.5C8.225 13 8 12.775 8 12.5V11.2375C8 11.1063 7.89375 11 7.7625 11C7.7 11 7.64062 11.025 7.59375 11.0687L4.16563 14.5L7.59375 17.9312C7.6375 17.975 7.7 18 7.7625 18C7.89375 18 8 17.8937 8 17.7625V16.5C8 16.225 8.225 16 8.5 16H12C12.5531 16 13 16.4469 13 17C13 17.5531 12.5531 18 12 18H9.9875C9.86875 19.125 8.91875 20 7.7625 20C7.16875 20 6.6 19.7656 6.18125 19.3438L2.46875 15.6344C2.16875 15.3344 2 14.925 2 14.5C2 14.075 2.16875 13.6656 2.46875 13.3656L6.18125 9.65625C6.6 9.2375 7.16875 9 7.7625 9C8.91875 9 9.86875 9.875 9.9875 11H15.5C15.775 11 16 11.225 16 11.5V12.7625C16 12.8937 16.1063 13 16.2375 13C16.3 13 16.3594 12.975 16.4062 12.9312L19.8344 9.5L16.4062 6.06875C16.3625 6.025 16.3 6 16.2375 6C16.1063 6 16 6.10625 16 6.2375V7.5C16 7.775 15.775 8 15.5 8H12C11.4469 8 11 7.55313 11 7C11 6.44687 11.4469 6 12 6H14.0125C14.1312 4.875 15.0813 4 16.2375 4Z" fill="black"/>
</svg>
