<svg width="24" height="24" viewBox="0 0 24 24" fill="none" xmlns="http://www.w3.org/2000/svg">
<path d="M6.4375 4.06871C6.70312 3.94684 7.01562 3.99059 7.2375 4.18121L8.5 5.26246L9.7625 4.18121C10.0438 3.94059 10.4594 3.94059 10.7375 4.18121L12 5.26246L13.2625 4.18121C13.5437 3.94059 13.9594 3.94059 14.2375 4.18121L15.5 5.26246L16.7625 4.18121C16.9844 3.99059 17.2969 3.94684 17.5625 4.06871C17.8281 4.19059 18 4.45621 18 4.74996V19.25C18 19.5437 17.8281 19.8093 17.5625 19.9312C17.2969 20.0531 16.9844 20.0093 16.7625 19.8187L15.5 18.7375L14.2375 19.8187C13.9563 20.0593 13.5406 20.0593 13.2625 19.8187L12 18.7375L10.7375 19.8187C10.4563 20.0593 10.0406 20.0593 9.7625 19.8187L8.5 18.7375L7.2375 19.8187C7.01562 20.0093 6.70312 20.0531 6.4375 19.9312C6.17188 19.8093 6 19.5437 6 19.25V4.74996C6 4.45621 6.17188 4.19059 6.4375 4.06871ZM9 8.49996C8.725 8.49996 8.5 8.72496 8.5 8.99996C8.5 9.27496 8.725 9.49996 9 9.49996H15C15.275 9.49996 15.5 9.27496 15.5 8.99996C15.5 8.72496 15.275 8.49996 15 8.49996H9ZM8.5 15C8.5 15.275 8.725 15.5 9 15.5H15C15.275 15.5 15.5 15.275 15.5 15C15.5 14.725 15.275 14.5 15 14.5H9C8.725 14.5 8.5 14.725 8.5 15ZM9 11.5C8.725 11.5 8.5 11.725 8.5 12C8.5 12.275 8.725 12.5 9 12.5H15C15.275 12.5 15.5 12.275 15.5 12C15.5 11.725 15.275 11.5 15 11.5H9Z" fill="black"/>
</svg>
