<svg width="24" height="24" viewBox="0 0 24 24" fill="none" xmlns="http://www.w3.org/2000/svg">
<path d="M13.525 9.41563C13.0781 9.15313 12.5562 9 12 9C10.3438 9 9 10.3438 9 12C9 13.6562 10.3438 15 12 15C13.6562 15 15 13.6562 15 12H17C17 14.2969 15.45 16.2344 13.3375 16.8188C13.0875 16.3344 12.5844 16 12 16C11.4156 16 10.9125 16.3344 10.6625 16.8188C9.04688 16.3719 7.7625 15.1344 7.24375 13.55C7.69375 13.2906 7.99688 12.8062 7.99688 12.2469C7.99688 11.6406 7.6375 11.1188 7.12188 10.8812C7.63125 8.65938 9.62187 7 12 7C13.1094 7 14.1344 7.3625 14.9656 7.975L15.6781 7.2625C14.6625 6.46875 13.3875 6 12 6C9.09688 6 6.67812 8.05938 6.12188 10.8C5.475 10.9656 5 11.5531 5 12.25C5 12.9937 5.54062 13.6125 6.25312 13.7312C6.85625 15.7406 8.4875 17.3062 10.5344 17.8219C10.6813 18.4937 11.2812 19 12 19C12.7188 19 13.3187 18.4938 13.4656 17.8188C16.0719 17.1656 18 14.8094 18 12H20C20 16.4187 16.4187 20 12 20C7.58125 20 4 16.4187 4 12C4 7.58125 7.58125 4 12 4C13.9406 4 15.7156 4.69062 17.1031 5.8375L18.4688 4.46875C18.7625 4.175 19.2375 4.175 19.5281 4.46875C19.8187 4.7625 19.8219 5.2375 19.5281 5.52813L13.8406 11.2156C13.9437 11.4562 14 11.7188 14 11.9969C14 13.1 13.1031 13.9969 12 13.9969C10.8969 13.9969 10 13.1 10 11.9969C10 10.8937 10.8969 9.99687 12 9.99687C12.2781 9.99687 12.5406 10.0531 12.7812 10.1562L13.525 9.4125V9.41563Z" fill="black"/>
</svg>
