<svg width="24" height="24" viewBox="0 0 24 24" fill="none" xmlns="http://www.w3.org/2000/svg">
<path d="M3 6.5C3 5.67188 3.67188 5 4.5 5H11.5C12.3281 5 13 5.67188 13 6.5V10.5C13 11.3281 12.3281 12 11.5 12H4.5C3.67188 12 3 11.3281 3 10.5V6.5ZM15 6.5C15 5.67188 15.6719 5 16.5 5H19.5C20.3281 5 21 5.67188 21 6.5V14.5C21 15.3281 20.3281 16 19.5 16H16.5C15.6719 16 15 15.3281 15 14.5V6.5ZM6.5 13.5H12C12.8281 13.5 13.5 14.1719 13.5 15V17.5C13.5 18.3281 12.8281 19 12 19H6.5C5.67188 19 5 18.3281 5 17.5V15C5 14.1719 5.67188 13.5 6.5 13.5Z" fill="black"/>
</svg>
