<svg width="24" height="24" viewBox="0 0 24 24" fill="none" xmlns="http://www.w3.org/2000/svg">
<path d="M6.66556 10H17.3218C17.2968 11.3844 17.0749 12.5563 16.6374 13.575C15.9062 15.2656 14.4968 16.6719 11.9812 17.9031C9.43431 16.7719 8.04056 15.375 7.32493 13.6719C6.88743 12.6313 6.68118 11.4219 6.66868 10.0031L6.66556 10ZM12.6531 4.22813C12.2531 3.98438 11.7468 3.98438 11.3468 4.22813C10.4874 4.75313 9.77806 5.04063 9.05306 5.16563C8.32493 5.29063 7.51556 5.26563 6.43743 5.06563C5.74681 4.93751 5.07493 5.40626 4.97181 6.11563C4.49993 9.32501 4.49681 12.1094 5.47806 14.4438C6.48118 16.8313 8.43431 18.5844 11.5093 19.8781C11.8343 20.0156 12.2062 20.0063 12.5249 19.8594C15.5156 18.4594 17.4562 16.7125 18.4718 14.3688C19.4718 12.0594 19.4999 9.33126 19.0281 6.11563C18.9249 5.40938 18.2531 4.93751 17.5624 5.06563C16.4874 5.26251 15.6781 5.29063 14.9468 5.16563C14.2218 5.04063 13.5124 4.75313 12.6531 4.22813Z" fill="black"/>
</svg>
