<svg width="24" height="24" viewBox="0 0 24 24" fill="none" xmlns="http://www.w3.org/2000/svg">
<path d="M15.528 8.46487C13.5843 6.52112 10.4437 6.51175 8.4874 8.43362L9.77178 9.718C9.9874 9.93362 10.0499 10.2555 9.93428 10.5367C9.81865 10.818 9.54365 10.9992 9.24053 10.9992H5.50928H5.24365C4.82803 10.9992 4.49365 10.6649 4.49365 10.2492V6.24925C4.49365 5.94612 4.6749 5.67112 4.95615 5.5555C5.2374 5.43987 5.55928 5.50237 5.7749 5.718L7.07178 7.018C9.80928 4.31487 14.2187 4.32425 16.9405 7.04925C17.703 7.81175 18.2562 8.70862 18.5937 9.66487C18.778 10.1867 18.503 10.7555 17.9843 10.9399C17.4655 11.1242 16.8937 10.8492 16.7093 10.3305C16.4687 9.64925 16.078 9.00862 15.528 8.46175V8.46487ZM19.4937 13.7492V13.9867V14.0086V17.7492C19.4937 18.0524 19.3124 18.3274 19.0312 18.443C18.7499 18.5586 18.428 18.4961 18.2124 18.2805L16.9124 16.9805C14.1749 19.6836 9.76553 19.6742 7.04365 16.9492C6.28115 16.1867 5.72803 15.2899 5.39053 14.3305C5.20615 13.8086 5.48115 13.2399 5.9999 13.0555C6.51865 12.8711 7.09053 13.1461 7.2749 13.6649C7.51553 14.3461 7.90615 14.9867 8.45615 15.5336C10.3999 17.4774 13.5405 17.4867 15.4968 15.5649L14.2124 14.2805C13.9968 14.0649 13.9343 13.743 14.0499 13.4617C14.1655 13.1805 14.4405 12.9992 14.7437 12.9992H18.4812H18.503H18.7405C19.1562 12.9992 19.4905 13.3336 19.4905 13.7492H19.4937Z" fill="black"/>
</svg>
