<svg width="24" height="24" viewBox="0 0 24 24" fill="none" xmlns="http://www.w3.org/2000/svg">
<path d="M15.528 8.46564C13.5843 6.52189 10.4437 6.51251 8.4874 8.43439L9.77178 9.71876C9.9874 9.93439 10.0499 10.2563 9.93428 10.5375C9.81865 10.8188 9.54365 11 9.24053 11H5.50928H5.24365C4.82803 11 4.49365 10.6656 4.49365 10.25V6.25001C4.49365 5.94689 4.6749 5.67189 4.95615 5.55626C5.2374 5.44064 5.55928 5.50314 5.7749 5.71876L7.07178 7.01876C9.80928 4.31564 14.2187 4.32501 16.9405 7.05001C17.703 7.81251 18.2562 8.70939 18.5937 9.66564C18.778 10.1875 18.503 10.7563 17.9843 10.9406C17.4655 11.125 16.8937 10.85 16.7093 10.3313C16.4687 9.65001 16.078 9.00939 15.528 8.46251V8.46564ZM19.4937 13.75V13.9875V14.0094V17.75C19.4937 18.0531 19.3124 18.3281 19.0312 18.4438C18.7499 18.5594 18.428 18.4969 18.2124 18.2813L16.9124 16.9813C14.1749 19.6844 9.76553 19.675 7.04365 16.95C6.28115 16.1875 5.72803 15.2906 5.39053 14.3313C5.20615 13.8094 5.48115 13.2406 5.9999 13.0563C6.51865 12.8719 7.09053 13.1469 7.2749 13.6656C7.51553 14.3469 7.90615 14.9875 8.45615 15.5344C10.3999 17.4781 13.5405 17.4875 15.4968 15.5656L14.2124 14.2813C13.9968 14.0656 13.9343 13.7438 14.0499 13.4625C14.1655 13.1813 14.4405 13 14.7437 13H18.4812H18.503H18.7405C19.1562 13 19.4905 13.3344 19.4905 13.75H19.4937Z" fill="black"/>
</svg>
