<svg width="24" height="24" viewBox="0 0 24 24" fill="none" xmlns="http://www.w3.org/2000/svg">
<path d="M8.89378 16.0281L7.92816 15.0625C7.66253 14.7968 7.56878 14.4125 7.68753 14.0562C7.78128 13.7781 7.90628 13.4156 8.05628 13H4.75003C4.48128 13 4.23128 12.8562 4.09691 12.6218C3.96253 12.3875 3.96566 12.1 4.10316 11.8687L5.74378 9.10309C6.15003 8.41872 6.88441 7.99997 7.67816 7.99997H10.25C10.325 7.87497 10.4 7.75934 10.475 7.64684C13.0344 3.87184 16.8469 3.74684 19.1219 4.16559C19.4844 4.23122 19.7657 4.51559 19.8344 4.87809C20.2532 7.15622 20.125 10.9656 16.3532 13.525C16.2438 13.6 16.125 13.675 16 13.75V16.3218C16 17.1156 15.5813 17.8531 14.8969 18.2562L12.1313 19.8968C11.9 20.0343 11.6125 20.0375 11.3782 19.9031C11.1438 19.7687 11 19.5218 11 19.25V15.9C10.5594 16.0531 10.175 16.1781 9.88441 16.2718C9.53441 16.3843 9.15316 16.2875 8.89066 16.0281H8.89378ZM16 9.24997C16.3316 9.24997 16.6495 9.11827 16.8839 8.88385C17.1183 8.64943 17.25 8.33149 17.25 7.99997C17.25 7.66845 17.1183 7.35051 16.8839 7.11609C16.6495 6.88166 16.3316 6.74997 16 6.74997C15.6685 6.74997 15.3506 6.88166 15.1161 7.11609C14.8817 7.35051 14.75 7.66845 14.75 7.99997C14.75 8.33149 14.8817 8.64943 15.1161 8.88385C15.3506 9.11827 15.6685 9.24997 16 9.24997Z" fill="black"/>
</svg>
