<svg width="24" height="24" viewBox="0 0 24 24" fill="none" xmlns="http://www.w3.org/2000/svg">
<path d="M12 15.5C12 17.3594 12.9219 19.0031 14.3375 20H4C2.89688 20 2 19.1031 2 18V11C2 9.89688 2.89688 9 4 9H16C16.7437 9 17.3906 9.40312 17.7344 10.0062C17.6562 10.0031 17.5781 10 17.5 10C14.4625 10 12 12.4625 12 15.5ZM15.75 6.5C16.1656 6.5 16.5 6.83437 16.5 7.25C16.5 7.66563 16.1656 8 15.75 8H4.25C3.83437 8 3.5 7.66563 3.5 7.25C3.5 6.83437 3.83437 6.5 4.25 6.5H15.75ZM14.25 4C14.6656 4 15 4.33437 15 4.75C15 5.16563 14.6656 5.5 14.25 5.5H5.75C5.33437 5.5 5 5.16563 5 4.75C5 4.33437 5.33437 4 5.75 4H14.25ZM17.5 11C18.6935 11 19.8381 11.4741 20.682 12.318C21.5259 13.1619 22 14.3065 22 15.5C22 16.6935 21.5259 17.8381 20.682 18.682C19.8381 19.5259 18.6935 20 17.5 20C16.3065 20 15.1619 19.5259 14.318 18.682C13.4741 17.8381 13 16.6935 13 15.5C13 14.3065 13.4741 13.1619 14.318 12.318C15.1619 11.4741 16.3065 11 17.5 11ZM18 13.5C18 13.225 17.775 13 17.5 13C17.225 13 17 13.225 17 13.5V15H15.5C15.225 15 15 15.225 15 15.5C15 15.775 15.225 16 15.5 16H17V17.5C17 17.775 17.225 18 17.5 18C17.775 18 18 17.775 18 17.5V16H19.5C19.775 16 20 15.775 20 15.5C20 15.225 19.775 15 19.5 15H18V13.5Z" fill="black"/>
</svg>
