<svg width="24" height="24" viewBox="0 0 24 24" fill="none" xmlns="http://www.w3.org/2000/svg">
<path d="M7.55312 4.275C7.6375 4.10625 7.80938 4 8 4H11C11.1906 4 11.3625 4.10625 11.4469 4.275L11.9469 5.275C12.0188 5.41562 12.0188 5.58125 11.9469 5.72187L11.1781 7.25938C13.3937 7.97188 15 10.0469 15 12.5C15 14.1344 14.2875 15.6 13.1562 16.6094C12.5719 16.2375 12.1531 15.625 12.0344 14.9156C12.6313 14.2875 13 13.4375 13 12.5C13 12.125 12.9406 11.7625 12.8313 11.4219C11.7406 12.0156 11 13.1719 11 14.5C11 16.4344 12.5656 18 14.5 18C16.4344 18 18 16.4344 18 14.5C18 13.0594 17.1312 11.8219 15.8875 11.2844C15.7312 10.4656 15.425 9.7 14.9937 9.02187C17.8 9.27187 20 11.6281 20 14.5C20 17.5375 17.5375 20 14.5 20C12.7719 20 11.2281 19.2031 10.2188 17.9531C9.98438 17.9844 9.74375 18 9.5 18C6.4625 18 4 15.5375 4 12.5C4 10.0469 5.60625 7.97188 7.82188 7.25938L7.05312 5.725C6.98125 5.58438 6.98125 5.41875 7.05312 5.27813L7.55312 4.27812V4.275ZM9.5 9C7.56562 9 6 10.5656 6 12.5C6 14.3344 7.40937 15.8375 9.20312 15.9875C9.07188 15.5156 9 15.0156 9 14.5C9 12.4875 10.0781 10.7281 11.6906 9.77187C11.0906 9.2875 10.3281 9 9.5 9Z" fill="black"/>
</svg>
