<svg width="24" height="24" viewBox="0 0 24 24" fill="none" xmlns="http://www.w3.org/2000/svg">
<path d="M5 6C5 5.44687 5.44687 5 6 5H8.5C10.9844 5 13 7.01562 13 9.5C13 11.3375 11.9 12.9156 10.3219 13.6156L11.9281 17.6281C12.1344 18.1406 11.8844 18.7219 11.3719 18.9281C10.8594 19.1344 10.2781 18.8844 10.0719 18.3719L8.32188 14H7V18C7 18.5531 6.55313 19 6 19C5.44687 19 5 18.5531 5 18V13V6ZM7 12H8.5C9.88125 12 11 10.8813 11 9.5C11 8.11875 9.88125 7 8.5 7H7V12ZM15.0156 12.5125C14.9875 12.7 15.0156 12.7844 15.0281 12.8188C15.0406 12.8531 15.0719 12.9 15.1594 12.9719C15.3844 13.15 15.7437 13.2844 16.3438 13.4969L16.3844 13.5125C16.8844 13.6875 17.5938 13.9375 18.125 14.3906C18.4219 14.6438 18.6844 14.9719 18.8469 15.4C19.0063 15.8281 19.0375 16.2906 18.9656 16.775C18.8344 17.6531 18.325 18.3156 17.5969 18.6781C16.9063 19.0219 16.0937 19.0688 15.3094 18.9281H15.3031C15.0125 18.8719 14.6625 18.75 14.3875 18.6469C14.2 18.575 13.9938 18.4937 13.8344 18.4312C13.7563 18.4 13.6906 18.375 13.6375 18.3531C13.1219 18.1531 12.8688 17.5719 13.0688 17.0594C13.2688 16.5469 13.8469 16.2906 14.3625 16.4906C14.4438 16.5219 14.525 16.5531 14.6094 16.5875C14.7594 16.6469 14.9156 16.7094 15.0906 16.775C15.3656 16.8781 15.5688 16.9437 15.675 16.9625C16.1656 17.05 16.5094 16.9875 16.7031 16.8906C16.8594 16.8125 16.9531 16.7031 16.9875 16.4844C17.0188 16.2687 16.9938 16.1563 16.9719 16.1C16.9531 16.0469 16.9156 15.9875 16.8313 15.9156C16.6156 15.7344 16.2625 15.5906 15.6781 15.3844L15.5844 15.35C15.1 15.1813 14.4281 14.9437 13.9187 14.5406C13.6219 14.3062 13.3469 13.9906 13.1781 13.5719C13.0063 13.1531 12.9719 12.6969 13.0406 12.2219C13.3031 10.4375 15.1344 9.78437 16.6938 10.0687C16.9094 10.1094 17.5469 10.25 17.8 10.3313C18.3281 10.4938 18.6219 11.0562 18.4594 11.5844C18.2969 12.1125 17.7344 12.4062 17.2063 12.2437C17.0594 12.2 16.5094 12.0719 16.3344 12.0406C15.8781 11.9562 15.5281 12.0281 15.3156 12.1406C15.1188 12.2437 15.0375 12.3781 15.0188 12.5156L15.0156 12.5125Z" fill="black"/>
</svg>
