<svg width="24" height="24" viewBox="0 0 24 24" fill="none" xmlns="http://www.w3.org/2000/svg">
<path d="M5.51562 10.9992H5.25C4.83437 10.9992 4.5 10.6649 4.5 10.2492V6.24925C4.5 5.94612 4.68125 5.67112 4.9625 5.5555C5.24375 5.43987 5.56562 5.50237 5.78125 5.718L7.08125 7.018C9.81875 4.31487 14.2281 4.32425 16.95 7.04925C19.6844 9.78362 19.6844 14.2149 16.95 16.9492C14.2156 19.6836 9.78437 19.6836 7.05 16.9492C6.65937 16.5586 6.65937 15.9242 7.05 15.5336C7.44062 15.143 8.075 15.143 8.46562 15.5336C10.4187 17.4867 13.5844 17.4867 15.5375 15.5336C17.4906 13.5805 17.4906 10.4149 15.5375 8.46175C13.5938 6.518 10.4531 6.50862 8.49687 8.4305L9.78125 9.718C9.99688 9.93362 10.0594 10.2555 9.94375 10.5367C9.82812 10.818 9.55312 10.9992 9.25 10.9992H5.51562Z" fill="black"/>
</svg>
