<svg width="24" height="24" viewBox="0 0 24 24" fill="none" xmlns="http://www.w3.org/2000/svg">
<path d="M10.8094 7.30938L14.6469 11.1469C14.8719 11.3719 15 11.6813 15 12C15 12.3187 14.8719 12.6281 14.6469 12.8531L10.8094 16.6906C10.6094 16.8906 10.3406 17 10.0594 17C9.475 17 9 16.525 9 15.9406V14H5C4.44687 14 4 13.5531 4 13V11C4 10.4469 4.44687 10 5 10H9V8.05937C9 7.475 9.475 7 10.0594 7C10.3406 7 10.6094 7.1125 10.8094 7.30938ZM15 17H17C17.5531 17 18 16.5531 18 16V8C18 7.44687 17.5531 7 17 7H15C14.4469 7 14 6.55313 14 6C14 5.44687 14.4469 5 15 5H17C18.6562 5 20 6.34375 20 8V16C20 17.6562 18.6562 19 17 19H15C14.4469 19 14 18.5531 14 18C14 17.4469 14.4469 17 15 17Z" fill="black"/>
</svg>
