<svg width="24" height="24" viewBox="0 0 24 24" fill="none" xmlns="http://www.w3.org/2000/svg">
<path d="M9.45942 5.40937C10.0063 4.53125 10.9688 4 12 4C13.0313 4 13.9938 4.53125 14.5407 5.40937L15.7469 7.3375L16.5907 6.85C16.8532 6.69687 17.1813 6.71875 17.4219 6.90313C17.6625 7.0875 17.7688 7.4 17.6907 7.69375L16.9594 10.425C16.8532 10.825 16.4407 11.0625 16.0407 10.9563L13.3094 10.225C13.0157 10.1469 12.8 9.9 12.7594 9.6C12.7188 9.3 12.8657 9.00313 13.1282 8.85313L14.0157 8.34062L12.8438 6.46875C12.6625 6.17812 12.3438 6 12 6C11.6563 6 11.3375 6.17812 11.1563 6.46875L10.6094 7.34375C10.3219 7.80625 9.71567 7.95312 9.24692 7.67188C8.7688 7.38438 8.61567 6.75937 8.91255 6.28437L9.45942 5.40937ZM17.4219 11.8719C17.8907 11.5906 18.4969 11.7375 18.7844 12.2L19.5469 13.4219C19.8407 13.8938 19.9969 14.4344 20.0032 14.9906C20.0125 16.65 18.6688 18.0031 17.0094 18.0031L14 18V19C14 19.3031 13.8188 19.5781 13.5375 19.6938C13.2563 19.8094 12.9344 19.7469 12.7188 19.5312L10.7188 17.5312C10.425 17.2375 10.425 16.7625 10.7188 16.4719L12.7188 14.4719C12.9344 14.2563 13.2563 14.1937 13.5375 14.3094C13.8188 14.425 14 14.7 14 15.0031V16.0031H17.0063C17.5563 16.0031 18.0032 15.5531 18 15.0031C18 14.8188 17.9469 14.6375 17.85 14.4812L17.0875 13.2594C16.7907 12.7844 16.9407 12.1594 17.4219 11.8719ZM6.02817 10.9031L5.12505 10.3812C4.86255 10.2281 4.71567 9.93438 4.7563 9.63438C4.79692 9.33437 5.01255 9.0875 5.3063 9.00938L8.03755 8.27812C8.43755 8.17188 8.85005 8.40937 8.9563 8.80937L9.68755 11.5375C9.76567 11.8312 9.65942 12.1406 9.4188 12.3281C9.17817 12.5156 8.85005 12.5344 8.58755 12.3813L7.75942 11.9031L6.15005 14.4781C6.05317 14.6344 6.00005 14.8156 6.00005 15C5.99692 15.55 6.4438 16 6.9938 16H8.00005C8.55317 16 9.00005 16.4469 9.00005 17C9.00005 17.5531 8.55317 18 8.00005 18H6.9938C5.33442 18 3.99067 16.65 4.00005 14.9875C4.00317 14.4313 4.15942 13.8906 4.4563 13.4187L6.02817 10.9031Z" fill="black"/>
</svg>
