<svg width="24" height="24" viewBox="0 0 24 24" fill="none" xmlns="http://www.w3.org/2000/svg">
<path d="M19.4625 5.4687C19.8594 5.35308 20.0875 4.93433 19.9719 4.53745C19.8563 4.14058 19.4375 3.91245 19.0375 4.0312L5.61563 7.96558C5.32188 8.04995 5.05625 8.1937 4.83125 8.37808C4.32812 8.74058 4 9.3312 4 9.99995V10.125V13.5V18C4 19.1031 4.89688 20 6 20H18C19.1031 20 20 19.1031 20 18V9.99995C20 8.89683 19.1031 7.99995 18 7.99995H10.8281L19.4625 5.4687ZM14 16C14 15.4695 14.2107 14.9608 14.5858 14.5857C14.9609 14.2107 15.4696 14 16 14C16.5304 14 17.0391 14.2107 17.4142 14.5857C17.7893 14.9608 18 15.4695 18 16C18 16.5304 17.7893 17.0391 17.4142 17.4142C17.0391 17.7892 16.5304 18 16 18C15.4696 18 14.9609 17.7892 14.5858 17.4142C14.2107 17.0391 14 16.5304 14 16ZM6.5 14.5H10.5C10.775 14.5 11 14.725 11 15C11 15.275 10.775 15.5 10.5 15.5H6.5C6.225 15.5 6 15.275 6 15C6 14.725 6.225 14.5 6.5 14.5ZM7 16.5H10C10.275 16.5 10.5 16.725 10.5 17C10.5 17.275 10.275 17.5 10 17.5H7C6.725 17.5 6.5 17.275 6.5 17C6.5 16.725 6.725 16.5 7 16.5ZM6 11C6 10.4468 6.44687 9.99995 7 9.99995H17C17.5531 9.99995 18 10.4468 18 11C18 11.5531 17.5531 12 17 12H7C6.44687 12 6 11.5531 6 11Z" fill="black"/>
</svg>
