<svg width="24" height="24" viewBox="0 0 24 24" fill="none" xmlns="http://www.w3.org/2000/svg">
<path d="M8.89378 16.0274L7.92816 15.0617C7.66253 14.7961 7.56878 14.4117 7.68753 14.0555C7.78128 13.7774 7.90628 13.4149 8.05628 12.9992H4.75003C4.48128 12.9992 4.23128 12.8555 4.09691 12.6211C3.96253 12.3867 3.96566 12.0992 4.10316 11.868L5.74378 9.10236C6.15003 8.41799 6.88441 7.99924 7.67816 7.99924H10.25C10.325 7.87424 10.4 7.75861 10.475 7.64611C13.0344 3.87111 16.8469 3.74611 19.1219 4.16486C19.4844 4.23049 19.7657 4.51486 19.8344 4.87736C20.2532 7.15549 20.125 10.9649 16.3532 13.5242C16.2438 13.5992 16.125 13.6742 16 13.7492V16.3211C16 17.1149 15.5813 17.8524 14.8969 18.2555L12.1313 19.8961C11.9 20.0336 11.6125 20.0367 11.3782 19.9024C11.1438 19.768 11 19.5211 11 19.2492V15.8992C10.5594 16.0524 10.175 16.1774 9.88441 16.2711C9.53441 16.3836 9.15316 16.2867 8.89066 16.0274H8.89378ZM16 9.24924C16.3316 9.24924 16.6495 9.11754 16.8839 8.88312C17.1183 8.6487 17.25 8.33076 17.25 7.99924C17.25 7.66772 17.1183 7.34977 16.8839 7.11535C16.6495 6.88093 16.3316 6.74924 16 6.74924C15.6685 6.74924 15.3506 6.88093 15.1161 7.11535C14.8817 7.34977 14.75 7.66772 14.75 7.99924C14.75 8.33076 14.8817 8.6487 15.1161 8.88312C15.3506 9.11754 15.6685 9.24924 16 9.24924Z" fill="black"/>
</svg>
