<svg width="24" height="24" viewBox="0 0 24 24" fill="none" xmlns="http://www.w3.org/2000/svg">
<path d="M3 5C2.44687 5 2 5.44687 2 6V18C2 18.5531 2.44687 19 3 19C3.55313 19 4 18.5531 4 18V12.3219L6.6625 7H4V6C4 5.44687 3.55313 5 3 5ZM14.6625 7H12.3375L12.1687 7.33437L9.3375 13H11.6594L11.8281 12.6656L14.6625 7ZM13.3375 13H15.6594L15.8281 12.6656L18.6625 7H16.3375L16.1687 7.33437L13.3375 13ZM8.3375 7L8.16875 7.33437L5.3375 13H7.65938L7.82812 12.6656L10.6625 7H8.3375ZM17.3375 13H20V18C20 18.5531 20.4469 19 21 19C21.5531 19 22 18.5531 22 18V6C22 5.44687 21.5531 5 21 5C20.4469 5 20 5.44687 20 6V7.67812L17.3375 13Z" fill="black"/>
</svg>
