<svg width="24" height="24" viewBox="0 0 24 24" fill="none" xmlns="http://www.w3.org/2000/svg">
<path d="M2 10C2 7.2375 4.2375 5 7 5H14C16.7625 5 19 7.2375 19 10V12H2V10ZM14.9969 8C14.9219 8 14.85 8.04062 14.8188 8.10625L14.425 8.875L13.5437 9C13.4687 9.00938 13.4063 9.0625 13.3813 9.13125C13.3563 9.2 13.3781 9.27812 13.4312 9.32812L14.0688 9.92812L13.9187 10.775C13.9062 10.8469 13.9375 10.9219 13.9969 10.9625C14.0562 11.0031 14.1406 11.0125 14.2063 10.9781L14.9937 10.5781L15.7812 10.9781C15.85 11.0125 15.9313 11.0063 15.9906 10.9625C16.05 10.9188 16.0844 10.8469 16.0688 10.775L15.9187 9.92812L16.5625 9.32812C16.6156 9.27812 16.6375 9.2 16.6125 9.13125C16.5875 9.0625 16.525 9.00938 16.45 9L15.5688 8.875L15.175 8.10625C15.1406 8.04062 15.0719 8 14.9969 8ZM10.675 8.10625C10.6406 8.04062 10.5719 8 10.4969 8C10.4219 8 10.35 8.04062 10.3188 8.10625L9.925 8.875L9.04375 9C8.96875 9.00938 8.90625 9.0625 8.88125 9.13125C8.85625 9.2 8.87813 9.27812 8.93125 9.32812L9.56875 9.92812L9.41875 10.775C9.40625 10.8469 9.4375 10.9219 9.49687 10.9625C9.55625 11.0031 9.64063 11.0125 9.70625 10.9781L10.4937 10.5781L11.2812 10.9781C11.35 11.0125 11.4313 11.0063 11.4906 10.9625C11.55 10.9188 11.5844 10.8469 11.5688 10.775L11.4187 9.92812L12.0625 9.32812C12.1156 9.27812 12.1375 9.2 12.1125 9.13125C12.0875 9.0625 12.025 9.00938 11.95 9L11.0688 8.875L10.675 8.10625ZM5.99688 8C5.92188 8 5.85 8.04062 5.81875 8.10625L5.425 8.875L4.54375 9C4.46875 9.00938 4.40625 9.0625 4.38125 9.13125C4.35625 9.2 4.37813 9.27812 4.43125 9.32812L5.06875 9.92812L4.91875 10.775C4.90625 10.8469 4.9375 10.9219 4.99688 10.9625C5.05625 11.0031 5.14062 11.0125 5.20625 10.9781L5.99375 10.5781L6.78125 10.9781C6.85 11.0125 6.93125 11.0063 6.99062 10.9625C7.05 10.9188 7.08437 10.8469 7.06875 10.775L6.91875 9.92812L7.5625 9.32812C7.61563 9.27812 7.6375 9.2 7.6125 9.13125C7.5875 9.0625 7.525 9.00938 7.45 9L6.56875 8.875L6.175 8.10625C6.14063 8.04062 6.07188 8 5.99688 8ZM6 13H12H15H16H18H19V14V16.5C19 16.775 19.225 17 19.5 17C19.775 17 20 16.775 20 16.5V15C20 14.4469 20.4469 14 21 14C21.5531 14 22 14.4469 22 15V16.5C22 17.8813 20.8813 19 19.5 19C18.1187 19 17 17.8813 17 16.5V15H16V16V18C16 18.5531 15.5531 19 15 19H13C12.4469 19 12 18.5531 12 18V16H6V18C6 18.5531 5.55313 19 5 19H3C2.44687 19 2 18.5531 2 18V16V13H6Z" fill="black"/>
</svg>
