<svg width="24" height="24" viewBox="0 0 24 24" fill="none" xmlns="http://www.w3.org/2000/svg">
<path d="M19.4625 5.46876C19.8594 5.35314 20.0875 4.93439 19.9719 4.53751C19.8563 4.14064 19.4375 3.91251 19.0375 4.03126L5.61563 7.96564C5.32188 8.05001 5.05625 8.19376 4.83125 8.37814C4.32812 8.74064 4 9.33126 4 10V10.125V13.5V18C4 19.1031 4.89688 20 6 20H18C19.1031 20 20 19.1031 20 18V10C20 8.89689 19.1031 8.00001 18 8.00001H10.8281L19.4625 5.46876ZM15.5 11.5C16.163 11.5 16.7989 11.7634 17.2678 12.2322C17.7366 12.7011 18 13.337 18 14C18 14.6631 17.7366 15.2989 17.2678 15.7678C16.7989 16.2366 16.163 16.5 15.5 16.5C14.837 16.5 14.2011 16.2366 13.7322 15.7678C13.2634 15.2989 13 14.6631 13 14C13 13.337 13.2634 12.7011 13.7322 12.2322C14.2011 11.7634 14.837 11.5 15.5 11.5ZM6.5 12C6.5 11.725 6.725 11.5 7 11.5H10C10.275 11.5 10.5 11.725 10.5 12C10.5 12.275 10.275 12.5 10 12.5H7C6.725 12.5 6.5 12.275 6.5 12ZM6 14C6 13.725 6.225 13.5 6.5 13.5H10.5C10.775 13.5 11 13.725 11 14C11 14.275 10.775 14.5 10.5 14.5H6.5C6.225 14.5 6 14.275 6 14ZM6.5 16C6.5 15.725 6.725 15.5 7 15.5H10C10.275 15.5 10.5 15.725 10.5 16C10.5 16.275 10.275 16.5 10 16.5H7C6.725 16.5 6.5 16.275 6.5 16Z" fill="black"/>
</svg>
