<svg width="24" height="24" viewBox="0 0 24 24" fill="none" xmlns="http://www.w3.org/2000/svg">
<path d="M20 7C20 8.56875 18.1531 10.9094 17.3562 11.8438C17.2375 11.9813 17.0625 12.0344 16.9031 12H14C13.4469 12 13 12.4469 13 13C13 13.5531 13.4469 14 14 14H17C18.6562 14 20 15.3438 20 17C20 18.6562 18.6562 20 17 20H8.3625C8.63438 19.6906 8.96563 19.2938 9.3 18.85C9.49688 18.5875 9.7 18.3 9.89375 18H17C17.5531 18 18 17.5531 18 17C18 16.4469 17.5531 16 17 16H14C12.3438 16 11 14.6562 11 13C11 11.3438 12.3438 10 14 10H15.2437C14.5875 9.01562 14 7.88437 14 7C14 5.34375 15.3438 4 17 4C18.6562 4 20 5.34375 20 7ZM7.65937 19.2844C7.54062 19.4188 7.43438 19.5375 7.34375 19.6375L7.2875 19.7L7.28125 19.6938C7.09375 19.8375 6.825 19.8187 6.65625 19.6375C5.86875 18.7812 4 16.5781 4 15C4 13.3438 5.34375 12 7 12C8.65625 12 10 13.3438 10 15C10 15.9375 9.34062 17.0937 8.64062 18.0594C8.30625 18.5187 7.9625 18.9344 7.67812 19.2625L7.65937 19.2844ZM8 15C8 14.7348 7.89464 14.4804 7.70711 14.2929C7.51957 14.1054 7.26522 14 7 14C6.73478 14 6.48043 14.1054 6.29289 14.2929C6.10536 14.4804 6 14.7348 6 15C6 15.2652 6.10536 15.5196 6.29289 15.7071C6.48043 15.8946 6.73478 16 7 16C7.26522 16 7.51957 15.8946 7.70711 15.7071C7.89464 15.5196 8 15.2652 8 15ZM17 8C17.2652 8 17.5196 7.89464 17.7071 7.70711C17.8946 7.51957 18 7.26522 18 7C18 6.73478 17.8946 6.48043 17.7071 6.29289C17.5196 6.10536 17.2652 6 17 6C16.7348 6 16.4804 6.10536 16.2929 6.29289C16.1054 6.48043 16 6.73478 16 7C16 7.26522 16.1054 7.51957 16.2929 7.70711C16.4804 7.89464 16.7348 8 17 8Z" fill="black"/>
</svg>
