<svg width="24" height="24" viewBox="0 0 24 24" fill="none" xmlns="http://www.w3.org/2000/svg">
<path d="M6.4375 4.06877C6.70312 3.9469 7.01562 3.99065 7.2375 4.18127L8.5 5.26252L9.7625 4.18127C10.0437 3.94065 10.4594 3.94065 10.7375 4.18127L12 5.26252L13.2625 4.18127C13.5437 3.94065 13.9594 3.94065 14.2375 4.18127L15.5 5.26252L16.7625 4.18127C16.9844 3.99065 17.2969 3.9469 17.5625 4.06877C17.8281 4.19065 18 4.45627 18 4.75002V19.25C18 19.5438 17.8281 19.8094 17.5625 19.9313C17.2969 20.0532 16.9844 20.0094 16.7625 19.8188L15.5 18.7375L14.2375 19.8188C13.9563 20.0594 13.5406 20.0594 13.2625 19.8188L12 18.7375L10.7375 19.8188C10.4563 20.0594 10.0406 20.0594 9.7625 19.8188L8.5 18.7375L7.2375 19.8188C7.01562 20.0094 6.70312 20.0532 6.4375 19.9313C6.17188 19.8094 6 19.5438 6 19.25V4.75002C6 4.45627 6.17188 4.19065 6.4375 4.06877ZM9 8.50002C8.725 8.50002 8.5 8.72502 8.5 9.00002C8.5 9.27502 8.725 9.50002 9 9.50002H15C15.275 9.50002 15.5 9.27502 15.5 9.00002C15.5 8.72502 15.275 8.50002 15 8.50002H9ZM8.5 15C8.5 15.275 8.725 15.5 9 15.5H15C15.275 15.5 15.5 15.275 15.5 15C15.5 14.725 15.275 14.5 15 14.5H9C8.725 14.5 8.5 14.725 8.5 15ZM9 11.5C8.725 11.5 8.5 11.725 8.5 12C8.5 12.275 8.725 12.5 9 12.5H15C15.275 12.5 15.5 12.275 15.5 12C15.5 11.725 15.275 11.5 15 11.5H9Z" fill="black"/>
</svg>
