<svg width="24" height="24" viewBox="0 0 24 24" fill="none" xmlns="http://www.w3.org/2000/svg">
<path d="M5.51562 11H5.25C4.83437 11 4.5 10.6656 4.5 10.25V6.25001C4.5 5.94689 4.68125 5.67189 4.9625 5.55626C5.24375 5.44064 5.56562 5.50314 5.78125 5.71876L7.08125 7.01876C9.81875 4.31564 14.2281 4.32501 16.95 7.05001C19.6844 9.78439 19.6844 14.2156 16.95 16.95C14.2156 19.6844 9.78437 19.6844 7.05 16.95C6.65937 16.5594 6.65937 15.925 7.05 15.5344C7.44062 15.1438 8.075 15.1438 8.46562 15.5344C10.4187 17.4875 13.5844 17.4875 15.5375 15.5344C17.4906 13.5813 17.4906 10.4156 15.5375 8.46251C13.5938 6.51876 10.4531 6.50939 8.49687 8.43126L9.78125 9.71876C9.99688 9.93439 10.0594 10.2563 9.94375 10.5375C9.82812 10.8188 9.55312 11 9.25 11H5.51562Z" fill="black"/>
</svg>
