<svg width="24" height="24" viewBox="0 0 24 24" fill="none" xmlns="http://www.w3.org/2000/svg">
<path d="M4 7.64999C4 7.15624 4.64063 6.96249 4.91563 7.37187L8 12V7.64999C8 7.15624 8.64063 6.96249 8.91563 7.37187L12 12V7.64999C12 7.15624 12.6406 6.96249 12.9156 7.37187L16 12V7.64999C16 7.15624 16.6406 6.96249 16.9156 7.37187L20.9625 13.4437C21.4062 14.1094 20.9281 14.9969 20.1313 14.9969H18H16H14H12H10H8H4V7.64999ZM3 16H21C21.5531 16 22 16.4469 22 17C22 17.5531 21.5531 18 21 18H3C2.44687 18 2 17.5531 2 17C2 16.4469 2.44687 16 3 16Z" fill="black"/>
</svg>
