<svg width="24" height="24" viewBox="0 0 24 24" fill="none" xmlns="http://www.w3.org/2000/svg">
<path d="M10.7501 9.83438C10.0032 10.2656 9.50008 11.075 9.50008 12H5.00008C4.44696 12 3.99383 11.55 4.06258 11.0031C4.33446 8.8125 5.49383 6.89688 7.16571 5.625C7.60633 5.29063 8.22196 5.45938 8.50008 5.9375L10.7501 9.83438ZM12.0001 14.5C12.4563 14.5 12.8813 14.3781 13.2501 14.1656L15.5001 18.0656C15.7751 18.5438 15.6157 19.1625 15.1063 19.375C14.1501 19.7781 13.1001 20 12.0001 20C10.9001 20 9.84696 19.7781 8.89383 19.375C8.38446 19.1594 8.22508 18.5438 8.50008 18.0656L10.7501 14.1656C11.1188 14.3781 11.5438 14.5 12.0001 14.5ZM19.0001 12H14.5001C14.5001 11.075 13.997 10.2656 13.2501 9.83438L15.5001 5.9375C15.7751 5.45938 16.3938 5.29063 16.8345 5.625C18.5095 6.89688 19.6657 8.8125 19.9407 11.0031C20.0095 11.55 19.5532 12 19.0032 12H19.0001ZM12.0001 10.5C12.3979 10.5 12.7794 10.658 13.0607 10.9393C13.342 11.2206 13.5001 11.6022 13.5001 12C13.5001 12.3978 13.342 12.7794 13.0607 13.0607C12.7794 13.342 12.3979 13.5 12.0001 13.5C11.6023 13.5 11.2207 13.342 10.9394 13.0607C10.6581 12.7794 10.5001 12.3978 10.5001 12C10.5001 11.6022 10.6581 11.2206 10.9394 10.9393C11.2207 10.658 11.6023 10.5 12.0001 10.5Z" fill="black"/>
</svg>
