<svg width="24" height="24" viewBox="0 0 24 24" fill="none" xmlns="http://www.w3.org/2000/svg">
<path d="M8.89375 16.0281L7.92812 15.0625C7.6625 14.7968 7.56875 14.4125 7.6875 14.0562C7.78125 13.7781 7.90625 13.4156 8.05625 13H4.75C4.48125 13 4.23125 12.8562 4.09687 12.6218C3.9625 12.3875 3.96562 12.1 4.10312 11.8687L5.74375 9.10309C6.15 8.41872 6.88437 7.99997 7.67812 7.99997H10.25C10.325 7.87497 10.4 7.75934 10.475 7.64684C13.0344 3.87184 16.8469 3.74684 19.1219 4.16559C19.4844 4.23122 19.7656 4.51559 19.8344 4.87809C20.2531 7.15622 20.125 10.9656 16.3531 13.525C16.2437 13.6 16.125 13.675 16 13.75V16.3218C16 17.1156 15.5813 17.8531 14.8969 18.2562L12.1313 19.8968C11.9 20.0343 11.6125 20.0375 11.3781 19.9031C11.1438 19.7687 11 19.5218 11 19.25V15.9C10.5594 16.0531 10.175 16.1781 9.88438 16.2718C9.53438 16.3843 9.15312 16.2875 8.89062 16.0281H8.89375ZM16 9.24997C16.3315 9.24997 16.6495 9.11827 16.8839 8.88385C17.1183 8.64943 17.25 8.33149 17.25 7.99997C17.25 7.66845 17.1183 7.35051 16.8839 7.11609C16.6495 6.88167 16.3315 6.74997 16 6.74997C15.6685 6.74997 15.3505 6.88167 15.1161 7.11609C14.8817 7.35051 14.75 7.66845 14.75 7.99997C14.75 8.33149 14.8817 8.64943 15.1161 8.88385C15.3505 9.11827 15.6685 9.24997 16 9.24997Z" fill="black"/>
</svg>
