<svg width="24" height="24" viewBox="0 0 24 24" fill="none" xmlns="http://www.w3.org/2000/svg">
<path d="M4 11C4 11.5531 4.44687 12 5 12C5.55313 12 6 11.5531 6 11C6 9.34376 7.34375 8.00001 9 8.00001H14V9.00001C14 9.40313 14.2437 9.76876 14.6187 9.92501C14.9937 10.0813 15.4219 9.99376 15.7094 9.70938L17.7094 7.70938C18.1 7.31876 18.1 6.68438 17.7094 6.29376L15.7094 4.29376C15.4219 4.00626 14.9937 3.92188 14.6187 4.07813C14.2437 4.23438 14 4.59688 14 5.00001V6.00001H9C6.2375 6.00001 4 8.23751 4 11ZM20 13C20 12.4469 19.5531 12 19 12C18.4469 12 18 12.4469 18 13C18 14.6563 16.6562 16 15 16H10V15C10 14.5969 9.75625 14.2313 9.38125 14.075C9.00625 13.9188 8.57813 14.0063 8.29063 14.2906L6.29063 16.2906C5.9 16.6813 5.9 17.3156 6.29063 17.7063L8.29063 19.7063C8.57813 19.9938 9.00625 20.0781 9.38125 19.9219C9.75625 19.7656 10 19.4031 10 18.9969V18H15C17.7625 18 20 15.7625 20 13Z" fill="black"/>
</svg>
