<svg width="24" height="24" viewBox="0 0 24 24" fill="none" xmlns="http://www.w3.org/2000/svg">
<path d="M11.5 17C12.0532 17 12.5 16.5531 12.5 16C12.5 15.4469 12.0532 15 11.5 15H8.00004C7.44691 15 7.00004 14.5531 7.00004 14V9.99999H8.00004C8.40316 9.99999 8.76879 9.75624 8.92504 9.38124C9.08129 9.00624 8.99379 8.57812 8.70941 8.29062L6.70941 6.29062C6.31879 5.89999 5.68441 5.89999 5.29379 6.29062L3.29379 8.29062C3.00629 8.57812 2.92191 9.00624 3.07816 9.38124C3.23441 9.75624 3.59691 9.99999 4.00316 9.99999H5.00316V14C5.00316 15.6562 6.34691 17 8.00316 17H11.5ZM12.5 6.99999C11.9469 6.99999 11.5 7.44687 11.5 7.99999C11.5 8.55312 11.9469 8.99999 12.5 8.99999H16C16.5532 8.99999 17 9.44687 17 9.99999V14H16C15.5969 14 15.2313 14.2437 15.075 14.6187C14.9188 14.9937 15.0063 15.4219 15.2907 15.7094L17.2907 17.7094C17.6813 18.1 18.3157 18.1 18.7063 17.7094L20.7063 15.7094C20.9938 15.4219 21.0782 14.9937 20.9219 14.6187C20.7657 14.2437 20.4032 14 19.9969 14H18.9969V9.99999C18.9969 8.34374 17.6532 6.99999 15.9969 6.99999H12.5Z" fill="black"/>
</svg>
