<svg width="24" height="24" viewBox="0 0 24 24" fill="none" xmlns="http://www.w3.org/2000/svg">
<path d="M4.99995 6.99997H15V4.99997C15 4.59684 15.2437 4.23122 15.6187 4.07497C15.9937 3.91872 16.4218 4.00622 16.7093 4.29059L19.7093 7.29059C19.8968 7.47809 20.0031 7.73122 20.0031 7.99684C20.0031 8.26247 19.8968 8.51559 19.7093 8.70309L16.7093 11.7031C16.4218 11.9906 15.9937 12.075 15.6187 11.9187C15.2437 11.7625 15 11.4 15 10.9937V8.99997H4.99995C4.44683 8.99997 3.99995 8.55309 3.99995 7.99997C3.99995 7.44684 4.44683 6.99997 4.99995 6.99997ZM19 15C19.5531 15 20 15.4468 20 16C20 16.5531 19.5531 17 19 17H8.99995V19C8.99995 19.4031 8.7562 19.7687 8.3812 19.925C8.0062 20.0812 7.57808 19.9937 7.29058 19.7093L4.29058 16.7093C4.10308 16.5218 3.99683 16.2687 3.99683 16.0031C3.99683 15.7375 4.10308 15.4843 4.29058 15.2968L7.29058 12.2968C7.57808 12.0093 8.0062 11.925 8.3812 12.0812C8.7562 12.2375 8.99995 12.6 8.99995 13.0062V15.0062H19V15Z" fill="black"/>
</svg>
