<svg width="24" height="24" viewBox="0 0 24 24" fill="none" xmlns="http://www.w3.org/2000/svg">
<path d="M5 5C3.89688 5 3 5.89688 3 7V17C3 18.1031 3.89688 19 5 19H19C20.1031 19 21 18.1031 21 17V7C21 5.89688 20.1031 5 19 5H5ZM10.1719 9.41563L12.4219 13.9156C12.6062 14.2875 12.4562 14.7375 12.0875 14.9219C11.7188 15.1062 11.2656 14.9562 11.0813 14.5875L10.9125 14.25H8.0875L7.91875 14.5844C7.73438 14.9563 7.28437 15.1062 6.9125 14.9187C6.54062 14.7312 6.39062 14.2844 6.57812 13.9125L8.82812 9.4125C8.95625 9.15937 9.21562 8.99687 9.5 8.99687C9.78438 8.99687 10.0437 9.15625 10.1719 9.4125V9.41563ZM9.5 11.4281L8.8375 12.75H10.1594L9.5 11.4281ZM15.25 12C15.0511 12 14.8603 12.079 14.7197 12.2197C14.579 12.3603 14.5 12.5511 14.5 12.75C14.5 12.9489 14.579 13.1397 14.7197 13.2803C14.8603 13.421 15.0511 13.5 15.25 13.5C15.4489 13.5 15.6397 13.421 15.7803 13.2803C15.921 13.1397 16 12.9489 16 12.75C16 12.5511 15.921 12.3603 15.7803 12.2197C15.6397 12.079 15.4489 12 15.25 12ZM16 10.6281V9.75C16 9.33437 16.3344 9 16.75 9C17.1656 9 17.5 9.33437 17.5 9.75V12.75V14.25C17.5 14.6656 17.1656 15 16.75 15C16.5437 15 16.3562 14.9156 16.2188 14.7812C15.925 14.9219 15.5969 15 15.25 15C14.0063 15 13 13.9937 13 12.75C13 11.5062 14.0063 10.5 15.25 10.5C15.5125 10.5 15.7656 10.5438 16 10.6281Z" fill="black"/>
</svg>
