<svg width="24" height="24" viewBox="0 0 24 24" fill="none" xmlns="http://www.w3.org/2000/svg">
<path d="M9.54375 5.23432C9.25937 4.93432 8.78438 4.92182 8.48438 5.2062L4.05625 9.41245C3.43437 10.0031 3.43437 10.9968 4.05625 11.5874L8.48438 15.7937C8.78438 16.0781 9.25937 16.0656 9.54375 15.7656C9.82812 15.4656 9.81563 14.9906 9.51562 14.7062L5.0875 10.4999L9.51562 6.2937C9.81563 6.00932 9.82812 5.53432 9.54375 5.23432ZM14 5.99995C14 5.6062 13.7688 5.24682 13.4062 5.08745C13.0437 4.92807 12.625 4.9937 12.3313 5.2562L7.33125 9.7562C7.12188 9.94682 7 10.2156 7 10.4999C7 10.7843 7.12188 11.0531 7.33125 11.2437L12.3313 15.7437C12.625 16.0093 13.0469 16.0749 13.4062 15.9124C13.7656 15.7499 14 15.3937 14 14.9999V12.9999H15C16.6562 12.9999 18 14.3437 18 15.9999C18 16.9499 17.6 17.4968 17.3062 17.7718C17.1344 17.9312 17 18.1468 17 18.3812C17 18.7218 17.275 18.9968 17.6156 18.9968C17.7031 18.9968 17.7906 18.9781 17.8687 18.9374C18.4531 18.6218 21 17.0406 21 13.4999C21 10.4624 18.5375 7.99995 15.5 7.99995H14V5.99995Z" fill="black"/>
</svg>
