<svg width="24" height="24" viewBox="0 0 24 24" fill="none" xmlns="http://www.w3.org/2000/svg">
<path d="M15.5281 8.4656C13.5844 6.52185 10.4438 6.51248 8.48752 8.43435L9.7719 9.71873C9.98752 9.93435 10.05 10.2562 9.9344 10.5375C9.81877 10.8187 9.54377 11 9.24065 11H5.5094H5.24377C4.82815 11 4.49377 10.6656 4.49377 10.25V6.24998C4.49377 5.94685 4.67502 5.67185 4.95627 5.55623C5.23752 5.4406 5.5594 5.5031 5.77502 5.71873L7.0719 7.01873C9.8094 4.3156 14.2188 4.32498 16.9406 7.04998C17.7031 7.81248 18.2563 8.70935 18.5938 9.6656C18.7781 10.1875 18.5031 10.7562 17.9844 10.9406C17.4656 11.125 16.8938 10.85 16.7094 10.3312C16.4688 9.64998 16.0781 9.00935 15.5281 8.46248V8.4656ZM19.4938 13.75V13.9875V14.0094V17.75C19.4938 18.0531 19.3125 18.3281 19.0313 18.4437C18.75 18.5594 18.4281 18.4969 18.2125 18.2812L16.9125 16.9812C14.175 19.6844 9.76565 19.675 7.04377 16.95C6.28127 16.1875 5.72815 15.2906 5.39065 14.3312C5.20627 13.8094 5.48127 13.2406 6.00002 13.0562C6.51877 12.8719 7.09065 13.1469 7.27502 13.6656C7.51565 14.3469 7.90627 14.9875 8.45627 15.5344C10.4 17.4781 13.5406 17.4875 15.4969 15.5656L14.2125 14.2812C13.9969 14.0656 13.9344 13.7437 14.05 13.4625C14.1657 13.1812 14.4406 13 14.7438 13H18.4813H18.5031H18.7407C19.1563 13 19.4907 13.3344 19.4907 13.75H19.4938Z" fill="black"/>
</svg>
