<svg width="24" height="24" viewBox="0 0 24 24" fill="none" xmlns="http://www.w3.org/2000/svg">
<path d="M12.5 6V6.25C12.5 6.66563 12.8344 7 13.25 7C13.6656 7 14 6.66563 14 6.25V6C14 5.725 14.225 5.5 14.5 5.5C14.775 5.5 15 5.725 15 6V6.7625C14.7875 6.95313 14.6 7.175 14.45 7.41875L12.9563 8.05937C12.575 8.22187 12.4 8.6625 12.5625 9.04375C12.725 9.425 13.1656 9.6 13.5469 9.4375L14 9.24375V11.5C14 12.8813 15.1187 14 16.5 14H17.5C18.8813 14 20 12.8813 20 11.5V9.24375L20.4531 9.4375C20.8344 9.6 21.275 9.425 21.4375 9.04375C21.6 8.6625 21.425 8.22187 21.0438 8.05937L19.55 7.41875C19.3969 7.175 19.2125 6.95313 19 6.7625V6C19 5.725 19.225 5.5 19.5 5.5C19.775 5.5 20 5.725 20 6V6.25C20 6.66563 20.3344 7 20.75 7C21.1656 7 21.5 6.66563 21.5 6.25V6C21.5 4.89688 20.6031 4 19.5 4C18.3969 4 17.5 4.89688 17.5 6V6.04063C17.3375 6.0125 17.1719 6 17 6C16.8281 6 16.6625 6.01563 16.5 6.04063V6C16.5 4.89688 15.6031 4 14.5 4C13.3969 4 12.5 4.89688 12.5 6ZM11.6406 9.44063C11.3625 8.79063 11.5062 8.06563 11.9531 7.575C11.7594 6.675 10.9594 6 10 6C9.4 6 8.85938 6.26563 8.49375 6.68438C8.15313 6.4125 7.71875 6.25 7.25 6.25C6.30937 6.25 5.52188 6.9 5.30625 7.775C5.20625 7.75938 5.10312 7.75 5 7.75C3.89688 7.75 3 8.64688 3 9.75C3 9.91563 3.02188 10.0781 3.05938 10.2344C2.42813 10.5719 2 11.2344 2 12C2 12.7656 2.42813 13.4281 3.05938 13.7656C3.02188 13.9219 3 14.0844 3 14.25C3 15.3531 3.89688 16.25 5 16.25C5.01562 16.25 5.03125 16.25 5.04688 16.25L5.59687 19.1844C5.68437 19.6562 6.1 20 6.58125 20H7.5C8.05313 20 8.5 19.5531 8.5 19V17.3219C8.86562 17.7375 9.40312 18 10 18C10.5969 18 11.1344 17.7375 11.5 17.3219V19C11.5 19.5531 11.9469 20 12.5 20H13.4187C13.9 20 14.3125 19.6562 14.4 19.1844L14.9531 16.25C14.9688 16.25 14.9844 16.25 15 16.25C15.8406 16.25 16.5594 15.7344 16.8531 15H16.5C14.5656 15 13 13.4344 13 11.5V10.4812C12.4156 10.3969 11.8906 10.0188 11.6406 9.4375V9.44063ZM16.5 9C16.6326 9 16.7598 9.05268 16.8536 9.14645C16.9473 9.24021 17 9.36739 17 9.5C17 9.63261 16.9473 9.75979 16.8536 9.85355C16.7598 9.94732 16.6326 10 16.5 10C16.3674 10 16.2402 9.94732 16.1464 9.85355C16.0527 9.75979 16 9.63261 16 9.5C16 9.36739 16.0527 9.24021 16.1464 9.14645C16.2402 9.05268 16.3674 9 16.5 9ZM18 9.5C18 9.36739 18.0527 9.24021 18.1464 9.14645C18.2402 9.05268 18.3674 9 18.5 9C18.6326 9 18.7598 9.05268 18.8536 9.14645C18.9473 9.24021 19 9.36739 19 9.5C19 9.63261 18.9473 9.75979 18.8536 9.85355C18.7598 9.94732 18.6326 10 18.5 10C18.3674 10 18.2402 9.94732 18.1464 9.85355C18.0527 9.75979 18 9.63261 18 9.5Z" fill="black"/>
</svg>
