<svg width="24" height="24" viewBox="0 0 24 24" fill="none" xmlns="http://www.w3.org/2000/svg">
<path d="M19.4625 5.46895C19.8594 5.35332 20.0875 4.93457 19.9719 4.5377C19.8562 4.14082 19.4375 3.9127 19.0375 4.03145L5.61563 7.96582C5.32188 8.0502 5.05625 8.19395 4.83125 8.37832C4.32812 8.74082 4 9.33145 4 10.0002V10.1252V13.5002V18.0002C4 19.1033 4.89688 20.0002 6 20.0002H18C19.1031 20.0002 20 19.1033 20 18.0002V10.0002C20 8.89707 19.1031 8.0002 18 8.0002H10.8281L19.4625 5.46895ZM14 16.0002C14 15.4698 14.2107 14.9611 14.5858 14.586C14.9609 14.2109 15.4696 14.0002 16 14.0002C16.5304 14.0002 17.0391 14.2109 17.4142 14.586C17.7893 14.9611 18 15.4698 18 16.0002C18 16.5306 17.7893 17.0393 17.4142 17.4144C17.0391 17.7895 16.5304 18.0002 16 18.0002C15.4696 18.0002 14.9609 17.7895 14.5858 17.4144C14.2107 17.0393 14 16.5306 14 16.0002ZM6.5 14.5002H10.5C10.775 14.5002 11 14.7252 11 15.0002C11 15.2752 10.775 15.5002 10.5 15.5002H6.5C6.225 15.5002 6 15.2752 6 15.0002C6 14.7252 6.225 14.5002 6.5 14.5002ZM7 16.5002H10C10.275 16.5002 10.5 16.7252 10.5 17.0002C10.5 17.2752 10.275 17.5002 10 17.5002H7C6.725 17.5002 6.5 17.2752 6.5 17.0002C6.5 16.7252 6.725 16.5002 7 16.5002ZM6 11.0002C6 10.4471 6.44688 10.0002 7 10.0002H17C17.5531 10.0002 18 10.4471 18 11.0002C18 11.5533 17.5531 12.0002 17 12.0002H7C6.44688 12.0002 6 11.5533 6 11.0002Z" fill="black"/>
</svg>
