<svg width="24" height="24" viewBox="0 0 24 24" fill="none" xmlns="http://www.w3.org/2000/svg">
<path d="M12 4C12.5531 4 13 4.44687 13 5V7H16.75C17.9937 7 19 8.00625 19 9.25V17.75C19 18.9937 17.9937 20 16.75 20H7.25C6.00625 20 5 18.9937 5 17.75V9.25C5 8.00625 6.00625 7 7.25 7H11V5C11 4.44687 11.4469 4 12 4ZM8.5 16C8.225 16 8 16.225 8 16.5C8 16.775 8.225 17 8.5 17H9.5C9.775 17 10 16.775 10 16.5C10 16.225 9.775 16 9.5 16H8.5ZM11.5 16C11.225 16 11 16.225 11 16.5C11 16.775 11.225 17 11.5 17H12.5C12.775 17 13 16.775 13 16.5C13 16.225 12.775 16 12.5 16H11.5ZM14.5 16C14.225 16 14 16.225 14 16.5C14 16.775 14.225 17 14.5 17H15.5C15.775 17 16 16.775 16 16.5C16 16.225 15.775 16 15.5 16H14.5ZM10.25 12C10.25 11.6685 10.1183 11.3505 9.88388 11.1161C9.64946 10.8817 9.33152 10.75 9 10.75C8.66848 10.75 8.35054 10.8817 8.11612 11.1161C7.8817 11.3505 7.75 11.6685 7.75 12C7.75 12.3315 7.8817 12.6495 8.11612 12.8839C8.35054 13.1183 8.66848 13.25 9 13.25C9.33152 13.25 9.64946 13.1183 9.88388 12.8839C10.1183 12.6495 10.25 12.3315 10.25 12ZM15 13.25C15.3315 13.25 15.6495 13.1183 15.8839 12.8839C16.1183 12.6495 16.25 12.3315 16.25 12C16.25 11.6685 16.1183 11.3505 15.8839 11.1161C15.6495 10.8817 15.3315 10.75 15 10.75C14.6685 10.75 14.3505 10.8817 14.1161 11.1161C13.8817 11.3505 13.75 11.6685 13.75 12C13.75 12.3315 13.8817 12.6495 14.1161 12.8839C14.3505 13.1183 14.6685 13.25 15 13.25ZM3.5 11H4V17H3.5C2.67188 17 2 16.3281 2 15.5V12.5C2 11.6719 2.67188 11 3.5 11ZM20.5 11C21.3281 11 22 11.6719 22 12.5V15.5C22 16.3281 21.3281 17 20.5 17H20V11H20.5Z" fill="black"/>
</svg>
