<svg width="24" height="24" viewBox="0 0 24 24" fill="none" xmlns="http://www.w3.org/2000/svg">
<path d="M9.54375 5.23438C9.25937 4.93438 8.78438 4.92188 8.48438 5.20626L4.05625 9.41251C3.43437 10.0031 3.43437 10.9969 4.05625 11.5875L8.48438 15.7938C8.78438 16.0781 9.25937 16.0656 9.54375 15.7656C9.82812 15.4656 9.81563 14.9906 9.51562 14.7063L5.0875 10.5L9.51562 6.29376C9.81563 6.00938 9.82812 5.53438 9.54375 5.23438ZM14 6.00001C14 5.60626 13.7688 5.24688 13.4062 5.08751C13.0437 4.92813 12.625 4.99376 12.3313 5.25626L7.33125 9.75626C7.12188 9.94688 7 10.2156 7 10.5C7 10.7844 7.12188 11.0531 7.33125 11.2438L12.3313 15.7438C12.625 16.0094 13.0469 16.075 13.4062 15.9125C13.7656 15.75 14 15.3938 14 15V13H15C16.6562 13 18 14.3438 18 16C18 16.95 17.6 17.4969 17.3062 17.7719C17.1344 17.9313 17 18.1469 17 18.3813C17 18.7219 17.275 18.9969 17.6156 18.9969C17.7031 18.9969 17.7906 18.9781 17.8687 18.9375C18.4531 18.6219 21 17.0406 21 13.5C21 10.4625 18.5375 8.00001 15.5 8.00001H14V6.00001Z" fill="black"/>
</svg>
