<svg width="24" height="24" viewBox="0 0 24 24" fill="none" xmlns="http://www.w3.org/2000/svg">
<path d="M17.3969 5.22815L17.3281 5.16252C17.1812 5.01877 16.9688 4.96252 16.7688 5.01565C16.5688 5.06877 16.4125 5.2219 16.3594 5.4219L16.3344 5.51252C16.2313 5.88127 16.175 6.25315 16.1625 6.62502C16.9219 7.26877 17.5031 8.11877 17.8281 9.08752C17.5719 9.02815 17.3125 8.9969 17.0469 8.9969C17.0281 8.9969 17.0125 8.9969 16.9937 8.9969C16.4187 7.6219 15.2281 6.57815 13.7563 6.20627L13.65 6.17815C13.4562 6.12815 13.2469 6.1594 13.0719 6.2594C12.7344 6.45315 12.5844 6.86877 12.7219 7.23127C13.1875 8.46565 14.1062 9.46252 15.2656 10.0344C15.15 10.2407 15.0656 10.4719 15.0281 10.7156L11.7406 8.84065C10.775 8.29065 9.68125 8.00002 8.56875 8.00002C7.55937 8.00002 6.625 8.52502 6.10313 9.38752C5.78125 8.9969 5.29375 8.75002 4.75 8.75002C3.78438 8.75002 3 9.5344 3 10.5C3 11.4656 3.78438 12.25 4.75 12.25C5.10313 12.25 5.43125 12.1469 5.70625 11.9656C5.85938 12.5031 6.15937 13 6.59375 13.4L11.0375 17.475C11.4062 17.8125 11.8875 18 12.3875 18H16C16.5531 18 17 17.5532 17 17C17 16.4469 16.5531 16 16 16H14H13.475H13V14.6406C13 13.3 12.1125 12.125 10.825 11.7563L9.8625 11.4813C9.59688 11.4063 9.44375 11.1281 9.51875 10.8625C9.59375 10.5969 9.87187 10.4438 10.1375 10.5188L11.1 10.7938C12.8188 11.2844 14 12.8531 14 14.6406V15.1313L15.75 14.1188L15.95 14.0031H19.1156C20.1562 14.0031 21 13.1594 21 12.1188C21 11.5531 20.7437 11.0156 20.3062 10.6594L19.225 9.77815C19.0813 9.66252 18.9313 9.55627 18.7719 9.46565C19.0344 7.92502 18.5281 6.34065 17.4 5.23127L17.3969 5.22815ZM7.44375 17.1656C6.98438 17.4719 6.85938 18.0938 7.16563 18.5532C7.47188 19.0125 8.09375 19.1375 8.55312 18.8313L9.99062 17.8719L8.47188 16.4813L7.44375 17.1688V17.1656ZM18 11.5C18 11.3674 18.0527 11.2402 18.1464 11.1465C18.2402 11.0527 18.3674 11 18.5 11C18.6326 11 18.7598 11.0527 18.8536 11.1465C18.9473 11.2402 19 11.3674 19 11.5C19 11.6326 18.9473 11.7598 18.8536 11.8536C18.7598 11.9473 18.6326 12 18.5 12C18.3674 12 18.2402 11.9473 18.1464 11.8536C18.0527 11.7598 18 11.6326 18 11.5Z" fill="black"/>
</svg>
