<svg width="24" height="24" viewBox="0 0 24 24" fill="none" xmlns="http://www.w3.org/2000/svg">
<path d="M14 5.5C15.8375 5.5 17.5156 6.18125 18.7937 7.30938C19.1031 7.58438 19.5781 7.55313 19.8531 7.24375C20.1281 6.93438 20.0969 6.45938 19.7875 6.18438C18.2438 4.825 16.2156 4 14 4C11.7844 4 9.75625 4.825 8.21562 6.18438C7.90625 6.45938 7.875 6.93125 8.15 7.24375C8.425 7.55625 8.89687 7.58438 9.20937 7.30938C10.4844 6.18125 12.1625 5.5 14 5.5ZM14.75 11.75C14.75 11.3344 14.4156 11 14 11C13.5844 11 13.25 11.3344 13.25 11.75V14H5C3.89688 14 3 14.8969 3 16V18C3 19.1031 3.89688 20 5 20H19C20.1031 20 21 19.1031 21 18V16C21 14.8969 20.1031 14 19 14H14.75V11.75ZM6 16C6.26522 16 6.51957 16.1054 6.70711 16.2929C6.89464 16.4804 7 16.7348 7 17C7 17.2652 6.89464 17.5196 6.70711 17.7071C6.51957 17.8946 6.26522 18 6 18C5.73478 18 5.48043 17.8946 5.29289 17.7071C5.10536 17.5196 5 17.2652 5 17C5 16.7348 5.10536 16.4804 5.29289 16.2929C5.48043 16.1054 5.73478 16 6 16ZM8 17C8 16.7348 8.10536 16.4804 8.29289 16.2929C8.48043 16.1054 8.73478 16 9 16C9.26522 16 9.51957 16.1054 9.70711 16.2929C9.89464 16.4804 10 16.7348 10 17C10 17.2652 9.89464 17.5196 9.70711 17.7071C9.51957 17.8946 9.26522 18 9 18C8.73478 18 8.48043 17.8946 8.29289 17.7071C8.10536 17.5196 8 17.2652 8 17ZM11.6406 9.83437C12.2844 9.3125 13.1062 9 14 9C14.8938 9 15.7156 9.3125 16.3594 9.83437C16.6813 10.0937 17.1531 10.0469 17.4156 9.725C17.6781 9.40312 17.6281 8.93125 17.3062 8.66875C16.4 7.9375 15.25 7.5 14 7.5C12.75 7.5 11.6 7.9375 10.6969 8.66875C10.375 8.92812 10.325 9.40312 10.5875 9.725C10.85 10.0469 11.3219 10.0969 11.6438 9.83437H11.6406Z" fill="black"/>
</svg>
