<svg width="24" height="24" viewBox="0 0 24 24" fill="none" xmlns="http://www.w3.org/2000/svg">
<path d="M7.68128 7.99999H10.4688C12.9657 3.88436 16.7969 3.73436 19.1219 4.16561C19.4844 4.23436 19.7688 4.51561 19.8344 4.87811C20.2657 7.20311 20.1157 11.0344 16 13.5312V16.3219C16 17.1156 15.5813 17.8531 14.8969 18.2562L12.1313 19.8969C11.9 20.0344 11.6125 20.0375 11.3782 19.9031C11.1438 19.7687 11 19.5219 11 19.25V15.6656C11 14.9594 10.7188 14.2812 10.2188 13.7812C9.71878 13.2812 9.04066 13 8.33441 13H4.75003C4.48128 13 4.23128 12.8562 4.09691 12.6219C3.96253 12.3875 3.96566 12.1 4.10316 11.8687L5.74378 9.10311C6.15003 8.41874 6.88441 7.99999 7.67816 7.99999H7.68128ZM17.25 7.99999C17.25 7.66846 17.1183 7.35052 16.8839 7.1161C16.6495 6.88168 16.3316 6.74999 16 6.74999C15.6685 6.74999 15.3506 6.88168 15.1161 7.1161C14.8817 7.35052 14.75 7.66846 14.75 7.99999C14.75 8.33151 14.8817 8.64945 15.1161 8.88387C15.3506 9.11829 15.6685 9.24999 16 9.24999C16.3316 9.24999 16.6495 9.11829 16.8839 8.88387C17.1183 8.64945 17.25 8.33151 17.25 7.99999ZM9.20316 18.6875C8.13441 19.7594 6.06253 19.9687 4.88441 19.9969C4.38441 20.0094 3.99066 19.6156 4.00316 19.1156C4.03128 17.9375 4.24066 15.8656 5.31253 14.7969C6.38753 13.7219 8.12816 13.7219 9.20316 14.7969C10.2782 15.8719 10.2782 17.6125 9.20316 18.6875ZM7.74378 17.55C8.10003 17.1937 8.10003 16.6125 7.74378 16.2562C7.38753 15.9 6.80628 15.9 6.45003 16.2562C6.13441 16.5719 6.04378 17.1469 6.02191 17.5469C6.00628 17.7969 6.20628 17.9937 6.45628 17.9812C6.85628 17.9594 7.43128 17.8656 7.74691 17.5531L7.74378 17.55Z" fill="black"/>
</svg>
