<svg width="24" height="24" viewBox="0 0 24 24" fill="none" xmlns="http://www.w3.org/2000/svg">
<path d="M4 11C4 11.5531 4.44687 12 5 12C5.55313 12 6 11.5531 6 11C6 9.34373 7.34375 7.99998 9 7.99998H14V8.99998C14 9.4031 14.2437 9.76873 14.6187 9.92498C14.9937 10.0812 15.4219 9.99373 15.7094 9.70935L17.7094 7.70935C18.1 7.31873 18.1 6.68435 17.7094 6.29373L15.7094 4.29373C15.4219 4.00623 14.9937 3.92185 14.6187 4.0781C14.2437 4.23435 14 4.59685 14 4.99998V5.99998H9C6.2375 5.99998 4 8.23748 4 11ZM20 13C20 12.4469 19.5531 12 19 12C18.4469 12 18 12.4469 18 13C18 14.6562 16.6562 16 15 16H10V15C10 14.5969 9.75625 14.2312 9.38125 14.075C9.00625 13.9187 8.57812 14.0062 8.29063 14.2906L6.29063 16.2906C5.9 16.6812 5.9 17.3156 6.29063 17.7062L8.29063 19.7062C8.57812 19.9937 9.00625 20.0781 9.38125 19.9219C9.75625 19.7656 10 19.4031 10 18.9969V18H15C17.7625 18 20 15.7625 20 13Z" fill="black"/>
</svg>
