<svg width="24" height="24" viewBox="0 0 24 24" fill="none" xmlns="http://www.w3.org/2000/svg">
<path d="M13.0562 5.68986L12.3188 4.19611C12.1969 3.93673 11.8156 3.92736 11.6812 4.19611L10.9438 5.68986L9.30937 5.92423C9.01875 5.96798 8.89375 6.32736 9.10938 6.54298L10.2969 7.69923L10.0156 9.32736C9.97188 9.61798 10.2719 9.84298 10.5406 9.70861L12.0063 8.93361L13.4625 9.69611C13.7312 9.83048 14.0344 9.60548 13.9875 9.31486L13.7063 7.68673L14.8938 6.54298C15.1062 6.33048 14.9844 5.97111 14.6938 5.92423L13.0594 5.68986H13.0562ZM10 11.9992C9.44688 11.9992 9 12.4461 9 12.9992V18.9992C9 19.5524 9.44688 19.9992 10 19.9992H14C14.5531 19.9992 15 19.5524 15 18.9992V12.9992C15 12.4461 14.5531 11.9992 14 11.9992H10ZM3 13.9992C2.44687 13.9992 2 14.4461 2 14.9992V18.9992C2 19.5524 2.44687 19.9992 3 19.9992H7C7.55312 19.9992 8 19.5524 8 18.9992V14.9992C8 14.4461 7.55312 13.9992 7 13.9992H3ZM16 16.9992V18.9992C16 19.5524 16.4469 19.9992 17 19.9992H21C21.5531 19.9992 22 19.5524 22 18.9992V16.9992C22 16.4461 21.5531 15.9992 21 15.9992H17C16.4469 15.9992 16 16.4461 16 16.9992Z" fill="black"/>
</svg>
