<svg width="24" height="24" viewBox="0 0 24 24" fill="none" xmlns="http://www.w3.org/2000/svg">
<path d="M9 5C8.44687 5 8 5.44687 8 6V12H7C6.44687 12 6 12.4469 6 13C6 13.5531 6.44687 14 7 14H8V15H7C6.44687 15 6 15.4469 6 16C6 16.5531 6.44687 17 7 17H8V18C8 18.5531 8.44687 19 9 19C9.55313 19 10 18.5531 10 18V17H15C15.5531 17 16 16.5531 16 16C16 15.4469 15.5531 15 15 15H10V14H13.5C15.9844 14 18 11.9844 18 9.5C18 7.01562 15.9844 5 13.5 5H9ZM13.5 12H10V7H13.5C14.8813 7 16 8.11875 16 9.5C16 10.8813 14.8813 12 13.5 12Z" fill="black"/>
</svg>
