<svg width="24" height="24" viewBox="0 0 24 24" fill="none" xmlns="http://www.w3.org/2000/svg">
<path d="M5.00001 6.99997H15V4.99997C15 4.59684 15.2438 4.23122 15.6188 4.07497C15.9938 3.91872 16.4219 4.00622 16.7094 4.29059L19.7094 7.29059C19.8969 7.47809 20.0031 7.73122 20.0031 7.99684C20.0031 8.26247 19.8969 8.51559 19.7094 8.70309L16.7094 11.7031C16.4219 11.9906 15.9938 12.075 15.6188 11.9187C15.2438 11.7625 15 11.4 15 10.9937V8.99997H5.00001C4.44689 8.99997 4.00001 8.55309 4.00001 7.99997C4.00001 7.44684 4.44689 6.99997 5.00001 6.99997ZM19 15C19.5531 15 20 15.4468 20 16C20 16.5531 19.5531 17 19 17H9.00001V19C9.00001 19.4031 8.75626 19.7687 8.38126 19.925C8.00626 20.0812 7.57814 19.9937 7.29064 19.7093L4.29064 16.7093C4.10314 16.5218 3.99689 16.2687 3.99689 16.0031C3.99689 15.7375 4.10314 15.4843 4.29064 15.2968L7.29064 12.2968C7.57814 12.0093 8.00626 11.925 8.38126 12.0812C8.75626 12.2375 9.00001 12.6 9.00001 13.0062V15.0062H19V15Z" fill="black"/>
</svg>
