<svg width="24" height="24" viewBox="0 0 24 24" fill="none" xmlns="http://www.w3.org/2000/svg">
<path d="M4.99995 7.00003H15V5.00003C15 4.59691 15.2437 4.23128 15.6187 4.07503C15.9937 3.91878 16.4218 4.00628 16.7093 4.29066L19.7093 7.29066C19.8968 7.47816 20.0031 7.73128 20.0031 7.99691C20.0031 8.26253 19.8968 8.51566 19.7093 8.70316L16.7093 11.7032C16.4218 11.9907 15.9937 12.075 15.6187 11.9188C15.2437 11.7625 15 11.4 15 10.9938V9.00003H4.99995C4.44683 9.00003 3.99995 8.55316 3.99995 8.00003C3.99995 7.44691 4.44683 7.00003 4.99995 7.00003ZM19 15C19.5531 15 20 15.4469 20 16C20 16.5532 19.5531 17 19 17H8.99995V19C8.99995 19.4032 8.7562 19.7688 8.3812 19.925C8.0062 20.0813 7.57808 19.9938 7.29058 19.7094L4.29058 16.7094C4.10308 16.5219 3.99683 16.2688 3.99683 16.0032C3.99683 15.7375 4.10308 15.4844 4.29058 15.2969L7.29058 12.2969C7.57808 12.0094 8.0062 11.925 8.3812 12.0813C8.7562 12.2375 8.99995 12.6 8.99995 13.0063V15.0063H19V15Z" fill="black"/>
</svg>
