<svg width="24" height="24" viewBox="0 0 24 24" fill="none" xmlns="http://www.w3.org/2000/svg">
<path d="M9.82812 4.41563C9.95625 4.15938 10.2156 4 10.5 4H13.5C13.7844 4 14.0437 4.15938 14.1719 4.41563L14.9219 5.91562C15.0312 6.1375 15.0281 6.4 14.9062 6.61562L13.9563 8.32812C16.3094 9.1375 18 11.3719 18 14C18 17.3125 15.3125 20 12 20C8.6875 20 6 17.3125 6 14C6 11.3719 7.69062 9.1375 10.0437 8.325L9.09375 6.61562C8.975 6.4 8.96875 6.1375 9.07812 5.91562L9.82812 4.41563ZM12 10C10.9391 10 9.92172 10.4214 9.17157 11.1716C8.42143 11.9217 8 12.9391 8 14C8 15.0609 8.42143 16.0783 9.17157 16.8284C9.92172 17.5786 10.9391 18 12 18C13.0609 18 14.0783 17.5786 14.8284 16.8284C15.5786 16.0783 16 15.0609 16 14C16 12.9391 15.5786 11.9217 14.8284 11.1716C14.0783 10.4214 13.0609 10 12 10Z" fill="black"/>
</svg>
