<svg width="24" height="24" viewBox="0 0 24 24" fill="none" xmlns="http://www.w3.org/2000/svg">
<path d="M8.46562 8.46487C10.4094 6.52112 13.55 6.51175 15.5063 8.43362L14.2188 9.718C14.0031 9.93362 13.9406 10.2555 14.0562 10.5367C14.1719 10.818 14.4469 10.9992 14.75 10.9992H18.4844H18.75C19.1656 10.9992 19.5 10.6649 19.5 10.2492V6.24925C19.5 5.94612 19.3188 5.67112 19.0375 5.5555C18.7563 5.43987 18.4344 5.50237 18.2188 5.718L16.9187 7.018C14.1812 4.31487 9.77187 4.32425 7.05 7.04925C6.2875 7.81175 5.7375 8.70862 5.4 9.668C5.21562 10.1899 5.49063 10.7586 6.00938 10.943C6.52813 11.1274 7.1 10.8524 7.28437 10.3336C7.525 9.65237 7.91562 9.01175 8.46562 8.46487ZM4.5 13.7492V13.9867V14.0086V17.7492C4.5 18.0524 4.68125 18.3274 4.9625 18.443C5.24375 18.5586 5.56562 18.4961 5.78125 18.2805L7.08125 16.9805C9.81875 19.6836 14.2281 19.6742 16.95 16.9492C17.7125 16.1867 18.2656 15.2899 18.6031 14.3336C18.7875 13.8117 18.5125 13.243 17.9937 13.0586C17.475 12.8742 16.9031 13.1492 16.7188 13.668C16.4781 14.3492 16.0875 14.9899 15.5375 15.5367C13.5938 17.4805 10.4531 17.4899 8.49687 15.568L9.78125 14.2805C9.99688 14.0649 10.0594 13.743 9.94375 13.4617C9.82812 13.1805 9.55312 12.9992 9.25 12.9992H5.5125H5.49063H5.25C4.83437 12.9992 4.5 13.3336 4.5 13.7492Z" fill="black"/>
</svg>
