<svg width="24" height="24" viewBox="0 0 24 24" fill="none" xmlns="http://www.w3.org/2000/svg">
<path d="M16.925 4.61875C16.7688 4.24375 16.4031 4 16 4H8C7.59688 4 7.23125 4.24375 7.075 4.61875C6.91875 4.99375 7.00625 5.42188 7.29063 5.70938L11.2906 9.70937C11.6813 10.1 12.3156 10.1 12.7063 9.70937L16.7063 5.70938C16.9938 5.42188 17.0781 4.99375 16.9219 4.61875H16.925ZM4.61875 7.075C4.24375 7.23125 4 7.59688 4 8V16C4 16.4031 4.24375 16.7688 4.61875 16.925C4.99375 17.0813 5.42188 16.9938 5.70938 16.7094L9.70937 12.7094C10.1 12.3188 10.1 11.6844 9.70937 11.2937L5.70938 7.29375C5.42188 7.00625 4.99375 6.92188 4.61875 7.07812V7.075ZM20 8C20 7.59688 19.7563 7.23125 19.3813 7.075C19.0063 6.91875 18.5781 7.00625 18.2906 7.29063L14.2906 11.2906C13.9 11.6813 13.9 12.3156 14.2906 12.7063L18.2906 16.7063C18.5781 16.9938 19.0063 17.0781 19.3813 16.9219C19.7563 16.7656 20 16.4031 20 15.9969V7.99688V8ZM16.925 19.3813C17.0813 19.0063 16.9938 18.5781 16.7094 18.2906L12.7094 14.2906C12.3188 13.9 11.6844 13.9 11.2937 14.2906L7.29375 18.2906C7.00625 18.5781 6.92188 19.0063 7.07812 19.3813C7.23438 19.7563 7.59688 20 8.00313 20H16.0031C16.4063 20 16.7719 19.7563 16.9281 19.3813H16.925Z" fill="black"/>
</svg>
