<svg width="24" height="24" viewBox="0 0 24 24" fill="none" xmlns="http://www.w3.org/2000/svg">
<path d="M12 4C14.2093 4 16 5.79063 16 8V9H7.99997V8C7.99997 5.79063 9.7906 4 12 4ZM12 7C12 6.73478 11.8946 6.48043 11.7071 6.29289C11.5195 6.10536 11.2652 6 11 6C10.7348 6 10.4804 6.10536 10.2929 6.29289C10.1053 6.48043 9.99997 6.73478 9.99997 7C9.99997 7.26522 10.1053 7.51957 10.2929 7.70711C10.4804 7.89464 10.7348 8 11 8C11.2652 8 11.5195 7.89464 11.7071 7.70711C11.8946 7.51957 12 7.26522 12 7ZM13.5 8C13.6326 8 13.7598 7.94732 13.8535 7.85355C13.9473 7.75979 14 7.63261 14 7.5C14 7.36739 13.9473 7.24021 13.8535 7.14645C13.7598 7.05268 13.6326 7 13.5 7C13.3674 7 13.2402 7.05268 13.1464 7.14645C13.0526 7.24021 13 7.36739 13 7.5C13 7.63261 13.0526 7.75979 13.1464 7.85355C13.2402 7.94732 13.3674 8 13.5 8ZM5.49997 11.5C5.49997 10.6719 6.17185 10 6.99997 10H17C17.8281 10 18.5 10.6719 18.5 11.5V16.4469C18.5 16.7187 18.575 16.9844 18.7125 17.2188L19.9281 19.2437C20.0218 19.3969 20.0218 19.5906 19.9343 19.7469C19.8468 19.9031 19.6781 20 19.5 20H16.5C16.225 20 16 19.775 16 19.5V16L14.5843 17.4156C14.2093 17.7906 13.7 18 13.1687 18H10.825C10.2937 18 9.78435 17.7906 9.40935 17.4156L7.99997 16V19.5C7.99997 19.775 7.77497 20 7.49997 20H4.49997C4.31872 20 4.1531 19.9031 4.0656 19.7469C3.9781 19.5906 3.9781 19.3969 4.07185 19.2437L5.28747 17.2188C5.4281 16.9844 5.49997 16.7187 5.49997 16.4469V11.5ZM10.5 12C10.225 12 9.99997 12.225 9.99997 12.5C9.99997 12.775 10.225 13 10.5 13H13.5C13.775 13 14 12.775 14 12.5C14 12.225 13.775 12 13.5 12H10.5ZM10.5 14C10.225 14 9.99997 14.225 9.99997 14.5C9.99997 14.775 10.225 15 10.5 15H13.5C13.775 15 14 14.775 14 14.5C14 14.225 13.775 14 13.5 14H10.5Z" fill="black"/>
</svg>
