<svg width="24" height="24" viewBox="0 0 24 24" fill="none" xmlns="http://www.w3.org/2000/svg">
<path d="M17.3969 5.22803L17.3281 5.1624C17.1812 5.01865 16.9688 4.9624 16.7688 5.01553C16.5688 5.06865 16.4125 5.22178 16.3594 5.42178L16.3344 5.5124C16.2313 5.88115 16.175 6.25303 16.1625 6.6249C16.9219 7.26865 17.5031 8.11865 17.8281 9.0874C17.5719 9.02803 17.3125 8.99678 17.0469 8.99678C17.0281 8.99678 17.0125 8.99678 16.9937 8.99678C16.4187 7.62178 15.2281 6.57803 13.7563 6.20615L13.65 6.17803C13.4562 6.12803 13.2469 6.15928 13.0719 6.25928C12.7344 6.45303 12.5844 6.86865 12.7219 7.23115C13.1875 8.46553 14.1062 9.4624 15.2656 10.0343C15.15 10.2405 15.0656 10.4718 15.0281 10.7155L11.7406 8.84053C10.775 8.29053 9.68125 7.9999 8.56875 7.9999C7.55937 7.9999 6.625 8.5249 6.10313 9.3874C5.78125 8.99678 5.29375 8.7499 4.75 8.7499C3.78438 8.7499 3 9.53428 3 10.4999C3 11.4655 3.78438 12.2499 4.75 12.2499C5.10313 12.2499 5.43125 12.1468 5.70625 11.9655C5.85938 12.503 6.15937 12.9999 6.59375 13.3999L11.0375 17.4749C11.4062 17.8124 11.8875 17.9999 12.3875 17.9999H16C16.5531 17.9999 17 17.553 17 16.9999C17 16.4468 16.5531 15.9999 16 15.9999H14H13.475H13V14.6405C13 13.2999 12.1125 12.1249 10.825 11.7562L9.8625 11.4812C9.59688 11.4062 9.44375 11.128 9.51875 10.8624C9.59375 10.5968 9.87187 10.4437 10.1375 10.5187L11.1 10.7937C12.8188 11.2843 14 12.853 14 14.6405V15.1312L15.75 14.1187L15.95 14.003H19.1156C20.1562 14.003 21 13.1593 21 12.1187C21 11.553 20.7437 11.0155 20.3062 10.6593L19.225 9.77803C19.0813 9.6624 18.9313 9.55615 18.7719 9.46553C19.0344 7.9249 18.5281 6.34053 17.4 5.23115L17.3969 5.22803ZM7.44375 17.1655C6.98438 17.4718 6.85938 18.0937 7.16563 18.553C7.47188 19.0124 8.09375 19.1374 8.55312 18.8312L9.99062 17.8718L8.47188 16.4812L7.44375 17.1687V17.1655ZM18 11.4999C18 11.3673 18.0527 11.2401 18.1464 11.1463C18.2402 11.0526 18.3674 10.9999 18.5 10.9999C18.6326 10.9999 18.7598 11.0526 18.8536 11.1463C18.9473 11.2401 19 11.3673 19 11.4999C19 11.6325 18.9473 11.7597 18.8536 11.8535C18.7598 11.9472 18.6326 11.9999 18.5 11.9999C18.3674 11.9999 18.2402 11.9472 18.1464 11.8535C18.0527 11.7597 18 11.6325 18 11.4999Z" fill="black"/>
</svg>
