<svg width="24" height="24" viewBox="0 0 24 24" fill="none" xmlns="http://www.w3.org/2000/svg">
<path d="M4.50006 5.5C4.50006 5.10218 4.65809 4.72064 4.9394 4.43934C5.2207 4.15804 5.60223 4 6.00006 4C6.39788 4 6.77941 4.15804 7.06072 4.43934C7.34202 4.72064 7.50006 5.10218 7.50006 5.5C7.50006 5.89782 7.34202 6.27936 7.06072 6.56066C6.77941 6.84196 6.39788 7 6.00006 7C5.60223 7 5.2207 6.84196 4.9394 6.56066C4.65809 6.27936 4.50006 5.89782 4.50006 5.5ZM5.75006 15V19C5.75006 19.5531 5.30318 20 4.75006 20C4.19693 20 3.75006 19.5531 3.75006 19V14.1625C3.49693 14.45 3.09068 14.575 2.70318 14.4563C2.17506 14.2906 1.88131 13.7312 2.04693 13.2031L3.01256 10.1062C3.40318 8.85312 4.56256 8 5.87506 8H6.12506C7.43756 8 8.59693 8.85312 8.98756 10.1062L9.95318 13.2031C10.1188 13.7312 9.82506 14.2906 9.29693 14.4563C8.90943 14.5781 8.50318 14.45 8.25006 14.1625V19C8.25006 19.5531 7.80318 20 7.25006 20C6.69693 20 6.25006 19.5531 6.25006 19V15H5.75006ZM12.0001 4C12.4157 4 12.7501 4.33437 12.7501 4.75V19.25C12.7501 19.6656 12.4157 20 12.0001 20C11.5844 20 11.2501 19.6656 11.2501 19.25V4.75C11.2501 4.33437 11.5844 4 12.0001 4ZM16.5001 5.5C16.5001 5.10218 16.6581 4.72064 16.9394 4.43934C17.2207 4.15804 17.6022 4 18.0001 4C18.3979 4 18.7794 4.15804 19.0607 4.43934C19.342 4.72064 19.5001 5.10218 19.5001 5.5C19.5001 5.89782 19.342 6.27936 19.0607 6.56066C18.7794 6.84196 18.3979 7 18.0001 7C17.6022 7 17.2207 6.84196 16.9394 6.56066C16.6581 6.27936 16.5001 5.89782 16.5001 5.5ZM15.7501 19V16H15.1938C14.8532 16 14.6126 15.6656 14.7188 15.3406L15.0001 14.5C14.9001 14.5 14.8001 14.4844 14.7032 14.4531C14.1751 14.2875 13.8813 13.7281 14.0469 13.2L14.9751 10.225C15.3876 8.90312 16.6126 8 18.0001 8C19.3876 8 20.6126 8.90312 21.0251 10.225L21.9532 13.2C22.1188 13.7281 21.8251 14.2875 21.2969 14.4531C21.1969 14.4844 21.0969 14.5 21.0001 14.5L21.2813 15.3406C21.3907 15.6656 21.1469 16 20.8063 16H20.2501V19C20.2501 19.5531 19.8032 20 19.2501 20C18.6969 20 18.2501 19.5531 18.2501 19V16H17.7501V19C17.7501 19.5531 17.3032 20 16.7501 20C16.1969 20 15.7501 19.5531 15.7501 19Z" fill="black"/>
</svg>
