<svg width="24" height="24" viewBox="0 0 24 24" fill="none" xmlns="http://www.w3.org/2000/svg">
<path d="M4 12C4 11.5844 4.33437 11.25 4.75 11.25H19.25C19.6656 11.25 20 11.5844 20 12C20 12.4156 19.6656 12.75 19.25 12.75H4.75C4.33437 12.75 4 12.4156 4 12ZM7.075 4.61875C7.23125 4.24375 7.59687 4 8 4H16C16.4031 4 16.7688 4.24375 16.925 4.61875C17.0813 4.99375 16.9938 5.42188 16.7094 5.70938L12.7094 9.70937C12.3188 10.1 11.6844 10.1 11.2937 9.70937L7.29375 5.70938C7.00625 5.42188 6.92188 4.99375 7.07812 4.61875H7.075ZM7.075 19.3844C6.91875 19.0094 7.00625 18.5813 7.29063 18.2937L11.2906 14.2937C11.6813 13.9031 12.3156 13.9031 12.7063 14.2937L16.7063 18.2937C16.9938 18.5813 17.0781 19.0094 16.9219 19.3844C16.7656 19.7594 16.4031 20.0031 15.9969 20.0031H7.99688C7.59375 20.0031 7.22813 19.7594 7.07188 19.3844H7.075Z" fill="black"/>
</svg>
