<svg width="24" height="24" viewBox="0 0 24 24" fill="none" xmlns="http://www.w3.org/2000/svg">
<path d="M10.4062 5.08813C10.7656 5.2475 11 5.60688 11 6.00063V8.00063H14.5C17.5375 8.00063 20 10.4631 20 13.5006C20 17.0413 17.4531 18.6225 16.8687 18.9413C16.7906 18.985 16.7031 19.0006 16.6156 19.0006C16.275 19.0006 16 18.7225 16 18.385C16 18.1506 16.1344 17.935 16.3062 17.7756C16.6 17.5006 17 16.9506 17 16.0038C17 14.3475 15.6562 13.0038 14 13.0038H11V15.0038C11 15.3975 10.7688 15.7569 10.4062 15.9163C10.0437 16.0756 9.625 16.01 9.33125 15.7475L4.33125 11.2475C4.12188 11.0538 4 10.785 4 10.5006C4 10.2163 4.12188 9.9475 4.33125 9.75688L9.33125 5.25688C9.625 4.99125 10.0469 4.92563 10.4062 5.08813Z" fill="black"/>
</svg>
