<svg width="24" height="24" viewBox="0 0 24 24" fill="none" xmlns="http://www.w3.org/2000/svg">
<path d="M11.8094 7.30938L15.6469 11.1469C15.8719 11.3719 16 11.6813 16 12C16 12.3187 15.8719 12.6281 15.6469 12.8531L11.8094 16.6906C11.6094 16.8906 11.3406 17 11.0594 17C10.475 17 10 16.525 10 15.9406V14H6C5.44687 14 5 13.5531 5 13V11C5 10.4469 5.44687 10 6 10H10V8.05937C10 7.475 10.475 7 11.0594 7C11.3406 7 11.6094 7.1125 11.8094 7.30938ZM17 17V7C17 6.44687 17.4469 6 18 6C18.5531 6 19 6.44687 19 7V17C19 17.5531 18.5531 18 18 18C17.4469 18 17 17.5531 17 17Z" fill="black"/>
</svg>
