<svg width="24" height="24" viewBox="0 0 24 24" fill="none" xmlns="http://www.w3.org/2000/svg">
<path d="M19.4625 5.46895C19.8594 5.35332 20.0875 4.93457 19.9719 4.5377C19.8563 4.14082 19.4375 3.9127 19.0375 4.03145L5.61563 7.96582C5.32188 8.0502 5.05625 8.19395 4.83125 8.37832C4.32812 8.74082 4 9.33145 4 10.0002V10.1252V13.5002V18.0002C4 19.1033 4.89688 20.0002 6 20.0002H18C19.1031 20.0002 20 19.1033 20 18.0002V10.0002C20 8.89707 19.1031 8.0002 18 8.0002H10.8281L19.4625 5.46895ZM15.5 11.5002C16.163 11.5002 16.7989 11.7636 17.2678 12.2324C17.7366 12.7013 18 13.3372 18 14.0002C18 14.6632 17.7366 15.2991 17.2678 15.768C16.7989 16.2368 16.163 16.5002 15.5 16.5002C14.837 16.5002 14.2011 16.2368 13.7322 15.768C13.2634 15.2991 13 14.6632 13 14.0002C13 13.3372 13.2634 12.7013 13.7322 12.2324C14.2011 11.7636 14.837 11.5002 15.5 11.5002ZM6.5 12.0002C6.5 11.7252 6.725 11.5002 7 11.5002H10C10.275 11.5002 10.5 11.7252 10.5 12.0002C10.5 12.2752 10.275 12.5002 10 12.5002H7C6.725 12.5002 6.5 12.2752 6.5 12.0002ZM6 14.0002C6 13.7252 6.225 13.5002 6.5 13.5002H10.5C10.775 13.5002 11 13.7252 11 14.0002C11 14.2752 10.775 14.5002 10.5 14.5002H6.5C6.225 14.5002 6 14.2752 6 14.0002ZM6.5 16.0002C6.5 15.7252 6.725 15.5002 7 15.5002H10C10.275 15.5002 10.5 15.7252 10.5 16.0002C10.5 16.2752 10.275 16.5002 10 16.5002H7C6.725 16.5002 6.5 16.2752 6.5 16.0002Z" fill="black"/>
</svg>
