<svg width="24" height="24" viewBox="0 0 24 24" fill="none" xmlns="http://www.w3.org/2000/svg">
<path d="M5 12C4.44687 12 4 11.5531 4 11C4 8.2375 6.2375 6 9 6H14V5C14 4.59688 14.2437 4.23125 14.6187 4.075C14.9937 3.91875 15.4219 4.00625 15.7094 4.29063L17.7094 6.29063C18.1 6.68125 18.1 7.31563 17.7094 7.70625L15.7094 9.70625C15.4219 9.99375 14.9937 10.0781 14.6187 9.92188C14.2437 9.76562 14 9.40312 14 8.99687V8H9C7.34375 8 6 9.34375 6 11C6 11.5531 5.55313 12 5 12ZM19 12C19.5531 12 20 12.4469 20 13C20 15.7625 17.7625 18 15 18H10V19C10 19.4031 9.75625 19.7688 9.38125 19.925C9.00625 20.0813 8.57813 19.9938 8.29063 19.7094L6.29063 17.7094C5.9 17.3188 5.9 16.6844 6.29063 16.2937L8.29063 14.2937C8.57813 14.0062 9.00625 13.9219 9.38125 14.0781C9.75625 14.2344 10 14.5969 10 15.0031V16.0031H15C16.6562 16.0031 18 14.6594 18 13.0031C18 12.45 18.4469 12.0031 19 12.0031V12ZM13 10.75V13.25C13 13.6656 12.6656 14 12.25 14C11.8344 14 11.5 13.6656 11.5 13.25V11.75C11.1875 11.75 10.8937 11.55 10.7875 11.2375C10.6562 10.8438 10.8687 10.4187 11.2625 10.2875L12.0125 10.0375C12.2406 9.9625 12.4938 10 12.6875 10.1406C12.8812 10.2812 13 10.5094 13 10.75Z" fill="black"/>
</svg>
