<svg width="24" height="24" viewBox="0 0 24 24" fill="none" xmlns="http://www.w3.org/2000/svg">
<path d="M4 5V18C4 19.1031 4.89688 20 6 20H19C19.5531 20 20 19.5531 20 19V18.9156C20 18.65 19.8938 18.3969 19.7063 18.2094L18.1031 16.6062L17.3531 17.3562C17.1594 17.55 16.8406 17.55 16.6469 17.3562C16.4531 17.1625 16.4531 16.8437 16.6469 16.65L17.3969 15.9L15.6031 14.1062L14.8531 14.8562C14.6594 15.05 14.3406 15.05 14.1469 14.8562C13.9531 14.6625 13.9531 14.3437 14.1469 14.15L14.8969 13.4L13.1031 11.6062L12.3531 12.3562C12.1594 12.55 11.8406 12.55 11.6469 12.3562C11.4531 12.1625 11.4531 11.8438 11.6469 11.65L12.3969 10.9L10.6031 9.10625L9.85313 9.85625C9.65938 10.05 9.34062 10.05 9.14687 9.85625C8.95312 9.6625 8.95312 9.34375 9.14687 9.15L9.89687 8.4L8.10313 6.60313L7.35313 7.35313C7.15938 7.54688 6.84062 7.54688 6.64687 7.35313C6.45312 7.15938 6.45312 6.84062 6.64687 6.64687L7.39687 5.89688L5.79375 4.29375C5.60625 4.10625 5.35 4 5.08438 4H5C4.44687 4 4 4.44687 4 5ZM8 12L12 16H8V12Z" fill="black"/>
</svg>
