<svg width="24" height="24" viewBox="0 0 24 24" fill="none" xmlns="http://www.w3.org/2000/svg">
<path d="M14.4531 16.9384C14.7281 17.0572 15.0469 17.0009 15.2656 16.7947L19.7656 12.5447C19.9156 12.404 20 12.2072 20 12.0009C20 11.7947 19.9156 11.5978 19.7656 11.4572L15.2656 7.20715C15.0469 7.0009 14.7281 6.94465 14.4531 7.0634C14.1781 7.18215 14 7.45403 14 7.7509V10.0009H5C4.44687 10.0009 4 10.4478 4 11.0009V13.0009C4 13.554 4.44687 14.0009 5 14.0009H14V16.2509C14 16.5509 14.1781 16.8197 14.4531 16.9384Z" fill="black"/>
</svg>
