<svg width="24" height="24" viewBox="0 0 24 24" fill="none" xmlns="http://www.w3.org/2000/svg">
<path d="M2.75 6H3.75H4.5V6.75V9.5V12V14.5V17.25V18H3.75H2.75C2.33437 18 2 17.6656 2 17.25C2 16.8344 2.33437 16.5 2.75 16.5H3V15.25H2.75C2.33437 15.25 2 14.9156 2 14.5C2 14.0844 2.33437 13.75 2.75 13.75H3V12.75H2.75C2.33437 12.75 2 12.4156 2 12C2 11.5844 2.33437 11.25 2.75 11.25H3V10.25H2.75C2.33437 10.25 2 9.91563 2 9.5C2 9.08437 2.33437 8.75 2.75 8.75H3V7.5H2.75C2.33437 7.5 2 7.16562 2 6.75C2 6.33437 2.33437 6 2.75 6ZM5.5 6H18.5V18H5.5V6ZM22 6.75C22 7.16562 21.6656 7.5 21.25 7.5H21V8.75H21.25C21.6656 8.75 22 9.08437 22 9.5C22 9.91563 21.6656 10.25 21.25 10.25H21V11.25H21.25C21.6656 11.25 22 11.5844 22 12C22 12.4156 21.6656 12.75 21.25 12.75H21V13.75H21.25C21.6656 13.75 22 14.0844 22 14.5C22 14.9156 21.6656 15.25 21.25 15.25H21V16.5H21.25C21.6656 16.5 22 16.8344 22 17.25C22 17.6656 21.6656 18 21.25 18H20.25H19.5V17.25V14.5V12V9.5V6.75V6H20.25H21.25C21.6656 6 22 6.33437 22 6.75Z" fill="black"/>
</svg>
