<svg width="24" height="24" viewBox="0 0 24 24" fill="none" xmlns="http://www.w3.org/2000/svg">
<path d="M12.5562 4.16875C12.2187 3.94375 11.7813 3.94375 11.4438 4.16875L7.19688 7H3.5C2.67188 7 2 7.67188 2 8.5V18.5C2 19.3281 2.67188 20 3.5 20H10V17C10 15.8969 10.8969 15 12 15C13.1031 15 14 15.8969 14 17V20H20.5C21.3281 20 22 19.3281 22 18.5V8.5C22 7.67188 21.3281 7 20.5 7H16.8031L12.5562 4.16875ZM5 10H6C6.275 10 6.5 10.225 6.5 10.5V12.5C6.5 12.775 6.275 13 6 13H5C4.725 13 4.5 12.775 4.5 12.5V10.5C4.5 10.225 4.725 10 5 10ZM17.5 10.5C17.5 10.225 17.725 10 18 10H19C19.275 10 19.5 10.225 19.5 10.5V12.5C19.5 12.775 19.275 13 19 13H18C17.725 13 17.5 12.775 17.5 12.5V10.5ZM5 14H6C6.275 14 6.5 14.225 6.5 14.5V16.5C6.5 16.775 6.275 17 6 17H5C4.725 17 4.5 16.775 4.5 16.5V14.5C4.5 14.225 4.725 14 5 14ZM17.5 14.5C17.5 14.225 17.725 14 18 14H19C19.275 14 19.5 14.225 19.5 14.5V16.5C19.5 16.775 19.275 17 19 17H18C17.725 17 17.5 16.775 17.5 16.5V14.5ZM9.25 9.5C9.25 8.77065 9.53973 8.07118 10.0555 7.55546C10.5712 7.03973 11.2707 6.75 12 6.75C12.7293 6.75 13.4288 7.03973 13.9445 7.55546C14.4603 8.07118 14.75 8.77065 14.75 9.5C14.75 10.2293 14.4603 10.9288 13.9445 11.4445C13.4288 11.9603 12.7293 12.25 12 12.25C11.2707 12.25 10.5712 11.9603 10.0555 11.4445C9.53973 10.9288 9.25 10.2293 9.25 9.5ZM12 8C11.725 8 11.5 8.225 11.5 8.5V9.5C11.5 9.775 11.725 10 12 10H13C13.275 10 13.5 9.775 13.5 9.5C13.5 9.225 13.275 9 13 9H12.5V8.5C12.5 8.225 12.275 8 12 8Z" fill="black"/>
</svg>
