<svg width="24" height="24" viewBox="0 0 24 24" fill="none" xmlns="http://www.w3.org/2000/svg">
<path d="M3.15 10H20.85C21.4844 10 22 9.48437 22 8.85C22 8.62187 21.9312 8.4 21.8062 8.2125L19.4438 4.66875C19.1656 4.25 18.7 4 18.1969 4H5.80312C5.30312 4 4.83438 4.25 4.55625 4.66875L2.19375 8.20937C2.06875 8.4 2 8.62188 2 8.84688C2 9.48438 2.51562 10 3.15 10ZM4 11V16V18.5C4 19.3281 4.67188 20 5.5 20H12.5C13.3281 20 14 19.3281 14 18.5V16V11H12V16H6V11H4ZM18 11V19C18 19.5531 18.4469 20 19 20C19.5531 20 20 19.5531 20 19V11H18Z" fill="black"/>
</svg>
