<svg width="24" height="24" viewBox="0 0 24 24" fill="none" xmlns="http://www.w3.org/2000/svg">
<path d="M4 17C4 17.5531 4.44687 18 5 18H6.70937C7.09375 18.8844 7.975 19.5 9 19.5C10.025 19.5 10.9063 18.8844 11.2906 18H19C19.5531 18 20 17.5531 20 17C20 16.4469 19.5531 16 19 16H11.2906C10.9063 15.1156 10.025 14.5 9 14.5C7.975 14.5 7.09375 15.1156 6.70937 16H5C4.44687 16 4 16.4469 4 17ZM8 17C8 16.7348 8.10536 16.4804 8.29289 16.2929C8.48043 16.1054 8.73478 16 9 16C9.26522 16 9.51957 16.1054 9.70711 16.2929C9.89464 16.4804 10 16.7348 10 17C10 17.2652 9.89464 17.5196 9.70711 17.7071C9.51957 17.8946 9.26522 18 9 18C8.73478 18 8.48043 17.8946 8.29289 17.7071C8.10536 17.5196 8 17.2652 8 17ZM14 12C14 11.7348 14.1054 11.4804 14.2929 11.2929C14.4804 11.1054 14.7348 11 15 11C15.2652 11 15.5196 11.1054 15.7071 11.2929C15.8946 11.4804 16 11.7348 16 12C16 12.2652 15.8946 12.5196 15.7071 12.7071C15.5196 12.8946 15.2652 13 15 13C14.7348 13 14.4804 12.8946 14.2929 12.7071C14.1054 12.5196 14 12.2652 14 12ZM15 9.5C13.975 9.5 13.0938 10.1156 12.7094 11H5C4.44687 11 4 11.4469 4 12C4 12.5531 4.44687 13 5 13H12.7094C13.0938 13.8844 13.975 14.5 15 14.5C16.025 14.5 16.9062 13.8844 17.2906 13H19C19.5531 13 20 12.5531 20 12C20 11.4469 19.5531 11 19 11H17.2906C16.9062 10.1156 16.025 9.5 15 9.5ZM10 8C9.73478 8 9.48043 7.89464 9.29289 7.70711C9.10536 7.51957 9 7.26522 9 7C9 6.73478 9.10536 6.48043 9.29289 6.29289C9.48043 6.10536 9.73478 6 10 6C10.2652 6 10.5196 6.10536 10.7071 6.29289C10.8946 6.48043 11 6.73478 11 7C11 7.26522 10.8946 7.51957 10.7071 7.70711C10.5196 7.89464 10.2652 8 10 8ZM12.2906 6C11.9062 5.11563 11.025 4.5 10 4.5C8.975 4.5 8.09375 5.11563 7.70937 6H5C4.44687 6 4 6.44687 4 7C4 7.55313 4.44687 8 5 8H7.70937C8.09375 8.88437 8.975 9.5 10 9.5C11.025 9.5 11.9062 8.88437 12.2906 8H19C19.5531 8 20 7.55313 20 7C20 6.44687 19.5531 6 19 6H12.2906Z" fill="black"/>
</svg>
