<svg width="24" height="24" viewBox="0 0 24 24" fill="none" xmlns="http://www.w3.org/2000/svg">
<path d="M11.2814 4.21873C10.9877 3.92498 10.5127 3.92498 10.222 4.21873L7.22205 7.21873C6.9283 7.51248 6.9283 7.98748 7.22205 8.2781L10.0158 11.0719L9.53142 11.5562C8.75955 11.2 7.9033 11 7.00017 11C6.00955 11 5.0783 11.2406 4.25642 11.6625C3.97517 11.8094 3.93455 12.1844 4.15955 12.4062L7.52205 15.7719L7.00955 16.2844C6.9283 16.2625 6.8408 16.25 6.75017 16.25C6.19705 16.25 5.75017 16.6969 5.75017 17.25C5.75017 17.8031 6.19705 18.25 6.75017 18.25C7.3033 18.25 7.75017 17.8031 7.75017 17.25C7.75017 17.1594 7.73767 17.075 7.7158 16.9906L8.2283 16.4781L11.5908 19.8406C11.8158 20.0656 12.1908 20.025 12.3345 19.7437C12.7595 18.9218 13.0002 17.9906 13.0002 17C13.0002 16.0969 12.8002 15.2406 12.4439 14.4719L12.9283 13.9875L15.7189 16.7812C16.0127 17.075 16.4877 17.075 16.7783 16.7812L19.7783 13.7812C20.072 13.4875 20.072 13.0125 19.7783 12.7219L16.9845 9.9281L18.7033 8.20935C19.0939 7.81873 19.0939 7.18435 18.7033 6.79373L17.2033 5.29373C16.8127 4.9031 16.1783 4.9031 15.7877 5.29373L14.0689 7.01248L11.2814 4.21873ZM16.2502 15.1875L13.9877 12.925L15.9283 10.9844L18.1908 13.25L16.2502 15.1906V15.1875ZM11.072 10.0125L8.80955 7.74998L10.7502 5.80935L13.0127 8.07185L11.072 10.0125Z" fill="black"/>
</svg>
