<svg width="24" height="24" viewBox="0 0 24 24" fill="none" xmlns="http://www.w3.org/2000/svg">
<path d="M15.2937 4.2937C15.6844 3.90308 16.3188 3.90308 16.7094 4.2937L19.7094 7.2937C20.1 7.68433 20.1 8.3187 19.7094 8.70933L18.3313 10.0875C17.7469 10.6718 16.9531 11.0031 16.125 11.0031C15.6281 11.0031 15.1594 10.8875 14.7406 10.6812L11.7094 13.7125L13.2937 15.2968C13.6844 15.6875 13.6844 16.3218 13.2937 16.7125L11.4656 18.5406C10.5281 19.4781 9.25625 20.0062 7.93125 20.0062H5C4.44687 20.0062 4 19.5593 4 19.0062V16.0718C4 14.7468 4.52813 13.475 5.46563 12.5375L7.29375 10.7093C7.68438 10.3187 8.31875 10.3187 8.70937 10.7093L10.2937 12.2937L13.325 9.26245C13.1156 8.84683 13 8.37495 13 7.87808C13 7.04995 13.3281 6.2562 13.9156 5.67183L15.2937 4.2937ZM16 6.41558L15.3281 7.08433C15.1187 7.2937 15 7.5812 15 7.87808C15 8.49683 15.5031 8.99995 16.1219 8.99995C16.4187 8.99995 16.7031 8.8812 16.9156 8.67183L17.5844 7.99995L16 6.41558Z" fill="black"/>
</svg>
