<svg width="24" height="24" viewBox="0 0 24 24" fill="none" xmlns="http://www.w3.org/2000/svg">
<path d="M6 18C6 19.1031 6.89688 20 8 20H13V16C13 15.4469 13.4469 15 14 15H18V6C18 4.89688 17.1031 4 16 4H8C6.89688 4 6 4.89688 6 6V18ZM11.3531 6.35313L8.35313 9.35313C8.15938 9.54688 7.84063 9.54688 7.64688 9.35313C7.45313 9.15938 7.45313 8.84062 7.64688 8.64687L10.6469 5.64688C10.8406 5.45313 11.1594 5.45313 11.3531 5.64688C11.5469 5.84063 11.5469 6.15938 11.3531 6.35313ZM14.3531 7.35313L9.35313 12.3531C9.15938 12.5469 8.84062 12.5469 8.64687 12.3531C8.45312 12.1594 8.45312 11.8406 8.64687 11.6469L13.6469 6.64687C13.8406 6.45312 14.1594 6.45312 14.3531 6.64687C14.5469 6.84062 14.5469 7.15938 14.3531 7.35313ZM18 16H14V20L18 16Z" fill="black"/>
</svg>
