<svg width="24" height="24" viewBox="0 0 24 24" fill="none" xmlns="http://www.w3.org/2000/svg">
<path d="M3.21255 4.15943C2.88755 3.90318 2.41568 3.96255 2.15943 4.28755C1.90318 4.61255 1.96255 5.08443 2.28755 5.34068L20.7876 19.8407C21.1126 20.0969 21.5844 20.0376 21.8407 19.7126C22.0969 19.3876 22.0376 18.9157 21.7126 18.6594L21.0001 18.1001V5.50005C21.0001 4.67193 20.3282 4.00005 19.5001 4.00005C18.6719 4.00005 18.0001 4.67193 18.0001 5.50005V15.7501L16.0001 14.1813V9.50005C16.0001 8.67193 15.3282 8.00005 14.5001 8.00005C13.6719 8.00005 13.0001 8.67193 13.0001 9.50005V11.8313L3.21255 4.15943ZM19.5001 20.0001H19.4907H19.5126H19.5032H19.5001ZM16.0001 18.5001V18.0313L13.0001 15.6688V18.5001C13.0001 19.3282 13.6719 20.0001 14.5001 20.0001C15.3282 20.0001 16.0001 19.3282 16.0001 18.5001ZM11.0001 14.0907L8.66568 12.2532C8.26568 12.5219 8.00005 12.9813 8.00005 13.5001V18.5001C8.00005 19.3282 8.67193 20.0001 9.50005 20.0001C10.3282 20.0001 11.0001 19.3282 11.0001 18.5001V14.0907ZM4.50005 16.0001C3.67193 16.0001 3.00005 16.6719 3.00005 17.5001V18.5001C3.00005 19.3282 3.67193 20.0001 4.50005 20.0001C5.32818 20.0001 6.00005 19.3282 6.00005 18.5001V17.5001C6.00005 16.6719 5.32818 16.0001 4.50005 16.0001Z" fill="black"/>
</svg>
