<svg width="24" height="24" viewBox="0 0 24 24" fill="none" xmlns="http://www.w3.org/2000/svg">
<path d="M3.21243 4.15943C2.88743 3.90318 2.41556 3.96255 2.15931 4.28755C1.90306 4.61255 1.96243 5.08443 2.28743 5.34068L20.7874 19.8407C21.1124 20.0969 21.5843 20.0376 21.8406 19.7126C22.0968 19.3876 22.0374 18.9157 21.7124 18.6594L18.9999 16.5344V7.00005C18.9999 5.89693 18.1031 5.00005 16.9999 5.00005H6.99993C6.32493 5.00005 5.72806 5.33443 5.36556 5.84693L3.21243 4.15943ZM9.09368 8.77193C9.28118 8.3188 9.72806 8.00005 10.2499 8.00005H12.4999C14.1562 8.00005 15.4999 9.3438 15.4999 11.0001C15.4999 11.8219 15.1687 12.5688 14.6312 13.1094L13.0249 11.8501C13.3093 11.6751 13.4999 11.3594 13.4999 11.0001C13.4999 10.4469 13.0531 10.0001 12.4999 10.0001H10.9999V10.2626L9.09368 8.7688V8.77193ZM17.2156 18.9907L10.9999 14.0907V15.0001C10.9999 15.5532 10.5531 16.0001 9.99993 16.0001C9.44681 16.0001 8.99993 15.5532 8.99993 15.0001V13.0001V12.5157L4.99993 9.36255V17.0001C4.99993 18.1032 5.89681 19.0001 6.99993 19.0001H16.9999C17.0718 19.0001 17.1437 18.9969 17.2156 18.9876V18.9907Z" fill="black"/>
</svg>
