<svg width="24" height="24" viewBox="0 0 24 24" fill="none" xmlns="http://www.w3.org/2000/svg">
<path d="M7 5C5.89688 5 5 5.89688 5 7V17C5 18.1031 5.89688 19 7 19H17C18.1031 19 19 18.1031 19 17V7C19 5.89688 18.1031 5 17 5H7ZM15.1812 8.36562L15.6313 8.81563C16.1188 9.30313 16.1188 10.0937 15.6313 10.5844L14.9625 11.2531L12.7438 9.03438L13.4125 8.36562C13.9 7.87812 14.6906 7.87812 15.1812 8.36562ZM8.74688 13.0312L12.0344 9.74375L14.2531 11.9625L10.9656 15.2469C10.8375 15.375 10.6781 15.4656 10.5 15.5094L8.62188 15.9781C8.45 16.0219 8.27187 15.9719 8.14687 15.8469C8.02187 15.7219 7.97188 15.5437 8.01562 15.3719L8.48438 13.4937C8.52812 13.3187 8.61875 13.1562 8.74688 13.0281V13.0312Z" fill="black"/>
</svg>
