<svg width="24" height="24" viewBox="0 0 24 24" fill="none" xmlns="http://www.w3.org/2000/svg">
<path d="M6.07503 5.61875C6.23128 5.24375 6.59691 5 7.00003 5H16C17.1032 5 18 5.89688 18 7V8C18 8.55313 17.5532 9 17 9C16.4469 9 16 8.55313 16 8V7H9.41566L13.7063 11.2937C14.0969 11.6844 14.0969 12.3188 13.7063 12.7094L9.41566 17H16V16C16 15.4469 16.4469 15 17 15C17.5532 15 18 15.4469 18 16V17C18 18.1031 17.1032 19 16 19H7.00003C6.59691 19 6.23128 18.7563 6.07503 18.3813C5.91878 18.0063 6.00628 17.5781 6.29066 17.2906L11.5844 12L6.29378 6.70625C6.00628 6.42187 5.92191 5.99062 6.07503 5.61875Z" fill="black"/>
</svg>
