<svg width="24" height="24" viewBox="0 0 24 24" fill="none" xmlns="http://www.w3.org/2000/svg">
<path d="M13.0562 4.4375L14 12V18.5C14 18.775 13.775 19 13.5 19H10.5C10.225 19 10 18.775 10 18.5V12L10.9438 4.4375C10.975 4.1875 11.1875 4 11.4406 4H12.5594C12.8125 4 13.025 4.1875 13.0562 4.4375ZM11 12V13.5C11 13.775 11.225 14 11.5 14H12.5C12.775 14 13 13.775 13 13.5V12C13 11.4469 12.5531 11 12 11C11.4469 11 11 11.4469 11 12ZM3.5 6.25C3.91563 6.25 4.25 6.58437 4.25 7V7.75C4.66563 7.75 5 8.08437 5 8.5C5 8.91563 4.66563 9.25 4.25 9.25V15H6V14C6 13.4469 6.44687 13 7 13H8C8.55313 13 9 13.4469 9 14V15V17V18V19C9 19.5531 8.55313 20 8 20C7.44687 20 7 19.5531 7 19V18.7L4.25 17.875V18C4.25 18.4156 3.91563 18.75 3.5 18.75C3.08437 18.75 2.75 18.4156 2.75 18V9.25C2.33437 9.25 2 8.91563 2 8.5C2 8.08437 2.33437 7.75 2.75 7.75V7C2.75 6.58437 3.08437 6.25 3.5 6.25ZM20.5 6.25C20.9156 6.25 21.25 6.58437 21.25 7V7.75C21.6656 7.75 22 8.08437 22 8.5C22 8.91563 21.6656 9.25 21.25 9.25V18C21.25 18.4156 20.9156 18.75 20.5 18.75C20.0844 18.75 19.75 18.4156 19.75 18V17.875L17 18.7V19C17 19.5531 16.5531 20 16 20C15.4469 20 15 19.5531 15 19V18V17V15V14C15 13.4469 15.4469 13 16 13H17C17.5531 13 18 13.4469 18 14V15H19.75V9.25C19.3344 9.25 19 8.91563 19 8.5C19 8.08437 19.3344 7.75 19.75 7.75V7C19.75 6.58437 20.0844 6.25 20.5 6.25Z" fill="black"/>
</svg>
