<svg width="24" height="24" viewBox="0 0 24 24" fill="none" xmlns="http://www.w3.org/2000/svg">
<path d="M19.1125 7.24375L17.3219 4.40938C17.1625 4.15625 16.8781 4 16.575 4H5.42499C5.12187 4 4.83749 4.15625 4.67812 4.40938L2.88437 7.24375C1.95937 8.70625 2.77812 10.7406 4.50624 10.975C4.63124 10.9906 4.75937 11 4.88437 11C5.69999 11 6.42499 10.6438 6.92187 10.0938C7.41874 10.6438 8.14374 11 8.95937 11C9.77499 11 10.5 10.6438 10.9969 10.0938C11.4937 10.6438 12.2187 11 13.0344 11C13.8531 11 14.575 10.6438 15.0719 10.0938C15.2281 10.2656 15.4031 10.4156 15.5969 10.5437C16.225 9.6125 17.2906 9 18.5 9C18.825 9 19.1406 9.04375 19.4406 9.12813C19.5781 8.50938 19.4875 7.83125 19.1156 7.24375H19.1125ZM5.99999 16V11.8313C5.64999 11.9406 5.27499 12 4.88749 12C4.71562 12 4.54374 11.9875 4.37812 11.9656H4.37499C4.24687 11.9469 4.12187 11.925 3.99999 11.8938V16V18C3.99999 19.1031 4.89687 20 5.99999 20H14.2687C14.1 19.7063 14 19.3656 14 19V16H5.99999ZM18.5 11.5C19.0531 11.5 19.5 11.9469 19.5 12.5V14H17.5V12.5C17.5 11.9469 17.9469 11.5 18.5 11.5ZM16 12.5V14C15.4469 14 15 14.4469 15 15V19C15 19.5531 15.4469 20 16 20H21C21.5531 20 22 19.5531 22 19V15C22 14.4469 21.5531 14 21 14V12.5C21 11.1187 19.8812 10 18.5 10C17.1187 10 16 11.1187 16 12.5Z" fill="black"/>
</svg>
