<svg width="24" height="24" viewBox="0 0 24 24" fill="none" xmlns="http://www.w3.org/2000/svg">
<path d="M3.21243 4.15943C2.88743 3.90318 2.41556 3.96255 2.15931 4.28755C1.90306 4.61255 1.96243 5.08443 2.28743 5.34068L20.7874 19.8407C21.1124 20.0969 21.5843 20.0376 21.8406 19.7126C22.0968 19.3876 22.0374 18.9157 21.7124 18.6594L18.9999 16.5344V16.0001V11.8938C18.8749 11.9251 18.7499 11.9501 18.6156 11.9657H18.6124C18.4468 11.9876 18.2781 12.0001 18.1062 12.0001C17.7187 12.0001 17.3468 11.9407 16.9999 11.8344V14.9657L11.4124 10.5844C11.6312 10.4469 11.8281 10.2813 11.9999 10.0938C12.4968 10.6438 13.2218 11.0001 14.0374 11.0001C14.8562 11.0001 15.5781 10.6438 16.0749 10.0938C16.5749 10.6438 17.2968 11.0001 18.1124 11.0001C18.2406 11.0001 18.3656 10.9907 18.4906 10.9751C20.2249 10.7438 21.0468 8.70943 20.1187 7.2438L18.3218 4.40943C18.1624 4.1563 17.8781 4.00005 17.5749 4.00005H6.42493C6.12181 4.00005 5.83743 4.1563 5.67806 4.40943L4.96868 5.53443L3.21243 4.15943ZM18.0906 19.6782L13.4218 16.0001H6.99993V11.8313C6.64993 11.9407 6.27493 12.0001 5.88743 12.0001C5.71556 12.0001 5.54368 11.9876 5.37806 11.9657H5.37493C5.24681 11.9469 5.12181 11.9251 4.99993 11.8938V16.0001V18.0001C4.99993 19.1032 5.89681 20.0001 6.99993 20.0001H16.9999C17.4031 20.0001 17.7749 19.8813 18.0906 19.6782ZM6.85306 10.8251L3.52806 8.20318C3.33743 9.47193 4.13743 10.7907 5.50618 10.9751C5.63118 10.9907 5.75931 11.0001 5.88431 11.0001C6.22806 11.0001 6.55306 10.9376 6.85306 10.8251Z" fill="black"/>
</svg>
