<svg width="24" height="24" viewBox="0 0 24 24" fill="none" xmlns="http://www.w3.org/2000/svg">
<path d="M14.1969 4.01876C14.7375 4.12813 15.0906 4.65313 14.9812 5.19688L14.7812 6.19688L14.4187 8.00001H12.5C12.225 8.00001 12 8.22501 12 8.50001C12 8.77501 12.225 9.00001 12.5 9.00001H14.2188L13.9187 10.5H12C11.725 10.5 11.5 10.725 11.5 11C11.5 11.275 11.725 11.5 12 11.5H13.9438L16.4031 12.5844C16.7656 12.7438 17 13.1031 17 13.5V16C17 16.5531 16.5531 17 16 17H5.75C5.45 17 5.16563 16.8656 4.97813 16.6344C4.79063 16.4031 4.7125 16.0969 4.77187 15.8031L5.54375 11.9406C5.63438 11.925 5.73438 11.9031 5.84063 11.875C6.32813 11.7531 6.97812 11.5125 7.6625 11.0344C8.9875 10.1063 10.3625 8.33438 10.9281 5.00001H12.9812L13.0219 4.80313C13.1281 4.26251 13.6531 3.91251 14.1969 4.01876ZM7.0875 10.2156C6.59375 10.5594 6.125 10.7531 5.75625 10.8625L6.76875 5.80313C6.8625 5.33438 7.27187 5.00001 7.75 5.00001H9.9125C9.36875 8.00001 8.14063 9.47813 7.0875 10.2156ZM22 17C22 18.6563 20.6562 20 19 20H3C2.44687 20 2 19.5531 2 19C2 18.4469 2.44687 18 3 18H19C19.5531 18 20 17.5531 20 17C20 16.4469 20.4469 16 21 16C21.5531 16 22 16.4469 22 17Z" fill="black"/>
</svg>
