<svg width="24" height="24" viewBox="0 0 24 24" fill="none" xmlns="http://www.w3.org/2000/svg">
<path d="M11.4 5.16875C12.2406 4.3875 13.3031 4 14.5 4C16.5312 4 18.1781 5.21875 19.2031 6.5C20.2625 7.825 21 9.6125 21 11.5C21 14.1219 19.2781 16.275 17.4563 17.6313C15.5656 19.0375 13.0531 20 10.5 20C9.35 20 7.79688 19.8625 6.4375 19.3969C5.29375 19.0031 3 17.8844 3 15.25C3 14.0437 3.55625 13.1156 4.32812 12.4969C4.94062 12.0031 5.62188 11.6594 6.30625 11.3156C7.15938 10.8844 8.0125 10.4531 8.73438 9.73125C9.16563 9.3 9.35 8.85938 9.67188 8.07812C9.77187 7.8375 9.88438 7.5625 10.0219 7.24688C10.2625 6.69688 10.6656 5.85 11.4 5.16875ZM12.55 8.98125C12.6281 8.79375 12.7 8.6125 12.7719 8.45C12.9875 7.95937 13.1875 7.60312 13.4438 7.36562C13.6781 7.14687 13.9906 7 14.5031 7C15.2969 7 16.1687 7.50625 16.8625 8.375C17.55 9.23438 18.0031 10.3781 18.0031 11.5C18.0031 12.775 17.1187 14.1438 15.6687 15.225C14.2312 16.2938 12.3313 17 10.5 17C9.53125 17 8.34062 16.8781 7.4125 16.5594C6.44062 16.225 6 15.7719 6 15.25C6 14.9688 6.08125 14.8375 6.21563 14.7219C6.39688 14.5656 6.68438 14.4375 7.15938 14.2375L7.19688 14.2219C8.1125 13.8344 9.42188 13.2844 10.8531 11.8531C11.7469 10.9594 12.1938 9.8625 12.55 8.98125ZM12.7625 6.63125C12.3469 7.01875 12.0781 7.5375 11.8562 8.04688C11.7656 8.25313 11.6813 8.45937 11.5969 8.66563C11.2406 9.53438 10.8844 10.4062 10.1469 11.1438C8.85312 12.4375 7.69062 12.9281 6.80312 13.3L6.76875 13.3156L6.74688 13.325C6.325 13.5031 5.8875 13.6875 5.56875 13.9594C5.2 14.275 5 14.6906 5 15.25C5 16.4781 6.05938 17.15 7.0875 17.5031C8.15938 17.8719 9.46875 18 10.5 18C12.5719 18 14.675 17.2062 16.2625 16.025C17.8375 14.8562 19 13.225 19 11.5C19 10.1219 18.4531 8.76562 17.6406 7.75C16.8344 6.74375 15.7063 6 14.5 6C13.7594 6 13.1969 6.22813 12.7625 6.63438V6.63125ZM15 12C15.2652 12 15.5196 11.8946 15.7071 11.7071C15.8946 11.5196 16 11.2652 16 11C16 10.7348 15.8946 10.4804 15.7071 10.2929C15.5196 10.1054 15.2652 10 15 10C14.7348 10 14.4804 10.1054 14.2929 10.2929C14.1054 10.4804 14 10.7348 14 11C14 11.2652 14.1054 11.5196 14.2929 11.7071C14.4804 11.8946 14.7348 12 15 12Z" fill="black"/>
</svg>
