<svg width="24" height="24" viewBox="0 0 24 24" fill="none" xmlns="http://www.w3.org/2000/svg">
<path d="M5 7C5 5.89688 5.89688 5 7 5H17C18.1031 5 19 5.89688 19 7V17C19 18.1031 18.1031 19 17 19H7C5.89688 19 5 18.1031 5 17V7ZM8 13C8.26522 13 8.51957 12.8946 8.70711 12.7071C8.89464 12.5196 9 12.2652 9 12C9 11.7348 8.89464 11.4804 8.70711 11.2929C8.51957 11.1054 8.26522 11 8 11C7.73478 11 7.48043 11.1054 7.29289 11.2929C7.10536 11.4804 7 11.7348 7 12C7 12.2652 7.10536 12.5196 7.29289 12.7071C7.48043 12.8946 7.73478 13 8 13ZM9 9C9 8.73478 8.89464 8.48043 8.70711 8.29289C8.51957 8.10536 8.26522 8 8 8C7.73478 8 7.48043 8.10536 7.29289 8.29289C7.10536 8.48043 7 8.73478 7 9C7 9.26522 7.10536 9.51957 7.29289 9.70711C7.48043 9.89464 7.73478 10 8 10C8.26522 10 8.51957 9.89464 8.70711 9.70711C8.89464 9.51957 9 9.26522 9 9ZM8 16C8.26522 16 8.51957 15.8946 8.70711 15.7071C8.89464 15.5196 9 15.2652 9 15C9 14.7348 8.89464 14.4804 8.70711 14.2929C8.51957 14.1054 8.26522 14 8 14C7.73478 14 7.48043 14.1054 7.29289 14.2929C7.10536 14.4804 7 14.7348 7 15C7 15.2652 7.10536 15.5196 7.29289 15.7071C7.48043 15.8946 7.73478 16 8 16ZM11 8.25C10.5844 8.25 10.25 8.58437 10.25 9C10.25 9.41563 10.5844 9.75 11 9.75H16C16.4156 9.75 16.75 9.41563 16.75 9C16.75 8.58437 16.4156 8.25 16 8.25H11ZM11 11.25C10.5844 11.25 10.25 11.5844 10.25 12C10.25 12.4156 10.5844 12.75 11 12.75H16C16.4156 12.75 16.75 12.4156 16.75 12C16.75 11.5844 16.4156 11.25 16 11.25H11ZM11 14.25C10.5844 14.25 10.25 14.5844 10.25 15C10.25 15.4156 10.5844 15.75 11 15.75H16C16.4156 15.75 16.75 15.4156 16.75 15C16.75 14.5844 16.4156 14.25 16 14.25H11Z" fill="black"/>
</svg>
