<svg width="24" height="24" viewBox="0 0 24 24" fill="none" xmlns="http://www.w3.org/2000/svg">
<path d="M15.5968 4.40937L16.2187 7.78125L14.8281 9.17187C14.1031 8.44687 13.1031 8 11.9999 8C9.79056 8 7.99994 9.79062 7.99994 12C7.99994 13.1031 8.44681 14.1031 9.17181 14.8281L7.78119 16.2187L4.40931 15.5969C4.24369 15.5656 4.10306 15.4531 4.03744 15.2969C3.97181 15.1406 3.99056 14.9625 4.08744 14.8219L6.03431 12L4.08744 9.17812C3.99056 9.0375 3.97181 8.85937 4.03744 8.70312C4.10306 8.54687 4.24369 8.43437 4.40931 8.40312L7.78119 7.78125L8.40306 4.40937C8.43431 4.24375 8.54681 4.10312 8.70306 4.0375C8.85931 3.97187 9.03744 3.99062 9.17806 4.0875L11.9999 6.03437L14.8218 4.0875C14.9624 3.99062 15.1406 3.97187 15.2968 4.0375C15.4531 4.10312 15.5656 4.24375 15.5968 4.40937ZM11.9999 9C12.8281 9 13.5781 9.33437 14.1218 9.87812L9.87806 14.1219C9.33431 13.5781 8.99994 12.8281 8.99994 12C8.99994 10.3437 10.3437 9 11.9999 9ZM17.9999 9C17.9999 8.73478 18.1053 8.48043 18.2928 8.29289C18.4804 8.10535 18.7347 8 18.9999 8C19.2652 8 19.5195 8.10535 19.707 8.29289C19.8946 8.48043 19.9999 8.73478 19.9999 9C19.9999 9.26521 19.8946 9.51957 19.707 9.7071C19.5195 9.89464 19.2652 10 18.9999 10C18.7347 10 18.4804 9.89464 18.2928 9.7071C18.1053 9.51957 17.9999 9.26521 17.9999 9ZM15.4999 11.5C15.4999 11.2348 15.6053 10.9804 15.7928 10.7929C15.9804 10.6054 16.2347 10.5 16.4999 10.5C16.7652 10.5 17.0195 10.6054 17.207 10.7929C17.3946 10.9804 17.4999 11.2348 17.4999 11.5C17.4999 11.7652 17.3946 12.0196 17.207 12.2071C17.0195 12.3946 16.7652 12.5 16.4999 12.5C16.2347 12.5 15.9804 12.3946 15.7928 12.2071C15.6053 12.0196 15.4999 11.7652 15.4999 11.5ZM18.9999 13C19.2652 13 19.5195 13.1054 19.707 13.2929C19.8946 13.4804 19.9999 13.7348 19.9999 14C19.9999 14.2652 19.8946 14.5196 19.707 14.7071C19.5195 14.8946 19.2652 15 18.9999 15C18.7347 15 18.4804 14.8946 18.2928 14.7071C18.1053 14.5196 17.9999 14.2652 17.9999 14C17.9999 13.7348 18.1053 13.4804 18.2928 13.2929C18.4804 13.1054 18.7347 13 18.9999 13ZM11.4999 15.5C11.7652 15.5 12.0195 15.6054 12.207 15.7929C12.3946 15.9804 12.4999 16.2348 12.4999 16.5C12.4999 16.7652 12.3946 17.0196 12.207 17.2071C12.0195 17.3946 11.7652 17.5 11.4999 17.5C11.2347 17.5 10.9804 17.3946 10.7928 17.2071C10.6053 17.0196 10.4999 16.7652 10.4999 16.5C10.4999 16.2348 10.6053 15.9804 10.7928 15.7929C10.9804 15.6054 11.2347 15.5 11.4999 15.5ZM8.99994 18C9.26515 18 9.51951 18.1054 9.70704 18.2929C9.89458 18.4804 9.99994 18.7348 9.99994 19C9.99994 19.2652 9.89458 19.5196 9.70704 19.7071C9.51951 19.8946 9.26515 20 8.99994 20C8.73472 20 8.48037 19.8946 8.29283 19.7071C8.10529 19.5196 7.99994 19.2652 7.99994 19C7.99994 18.7348 8.10529 18.4804 8.29283 18.2929C8.48037 18.1054 8.73472 18 8.99994 18ZM12.9999 19C12.9999 18.7348 13.1053 18.4804 13.2928 18.2929C13.4804 18.1054 13.7347 18 13.9999 18C14.2652 18 14.5195 18.1054 14.707 18.2929C14.8946 18.4804 14.9999 18.7348 14.9999 19C14.9999 19.2652 14.8946 19.5196 14.707 19.7071C14.5195 19.8946 14.2652 20 13.9999 20C13.7347 20 13.4804 19.8946 13.2928 19.7071C13.1053 19.5196 12.9999 19.2652 12.9999 19ZM18.9999 18C19.2652 18 19.5195 18.1054 19.707 18.2929C19.8946 18.4804 19.9999 18.7348 19.9999 19C19.9999 19.2652 19.8946 19.5196 19.707 19.7071C19.5195 19.8946 19.2652 20 18.9999 20C18.7347 20 18.4804 19.8946 18.2928 19.7071C18.1053 19.5196 17.9999 19.2652 17.9999 19C17.9999 18.7348 18.1053 18.4804 18.2928 18.2929C18.4804 18.1054 18.7347 18 18.9999 18ZM15.4999 16.5C15.4999 16.2348 15.6053 15.9804 15.7928 15.7929C15.9804 15.6054 16.2347 15.5 16.4999 15.5C16.7652 15.5 17.0195 15.6054 17.207 15.7929C17.3946 15.9804 17.4999 16.2348 17.4999 16.5C17.4999 16.7652 17.3946 17.0196 17.207 17.2071C17.0195 17.3946 16.7652 17.5 16.4999 17.5C16.2347 17.5 15.9804 17.3946 15.7928 17.2071C15.6053 17.0196 15.4999 16.7652 15.4999 16.5ZM13.9999 13C14.2652 13 14.5195 13.1054 14.707 13.2929C14.8946 13.4804 14.9999 13.7348 14.9999 14C14.9999 14.2652 14.8946 14.5196 14.707 14.7071C14.5195 14.8946 14.2652 15 13.9999 15C13.7347 15 13.4804 14.8946 13.2928 14.7071C13.1053 14.5196 12.9999 14.2652 12.9999 14C12.9999 13.7348 13.1053 13.4804 13.2928 13.2929C13.4804 13.1054 13.7347 13 13.9999 13Z" fill="black"/>
</svg>
