<svg width="24" height="24" viewBox="0 0 24 24" fill="none" xmlns="http://www.w3.org/2000/svg">
<path d="M11 5C11 4.44687 11.4469 4 12 4C12.5531 4 13 4.44687 13 5V6H17.0312C17.3281 6 17.6094 6.13125 17.8 6.35938L19.7344 8.67812C19.8875 8.8625 19.8875 9.13437 19.7344 9.31875L17.8 11.6375C17.6094 11.8656 17.3281 11.9969 17.0312 11.9969H6.5C5.67188 11.9969 5 11.325 5 10.4969V7.5C5 6.67188 5.67188 6 6.5 6H11V5ZM13 19C13 19.5531 12.5531 20 12 20C11.4469 20 11 19.5531 11 19V13H13V19Z" fill="black"/>
</svg>
