<svg width="24" height="24" viewBox="0 0 24 24" fill="none" xmlns="http://www.w3.org/2000/svg">
<path d="M20 12C20 12.2437 19.9906 12.4844 19.9688 12.7219C17.7125 13.5219 14.975 14 12 14C9.025 14 6.2875 13.5219 4.03125 12.7219C4.00938 12.4844 4 12.2437 4 12C4 7.58125 7.58125 4 12 4C13.8062 4 15.4719 4.59688 16.8094 5.60625C16.9312 5.69688 17 5.84062 17 5.99375V6.5C17 6.775 16.775 7 16.5 7H15.5C15.225 7 15 7.225 15 7.5V8.5C15 8.775 15.225 9 15.5 9H17H17.5C17.775 9 18 9.225 18 9.5V10.5C18 10.775 18.225 11 18.5 11H19.4969C19.75 11 19.9625 11.1875 19.9812 11.4406C19.9937 11.625 20 11.8125 20 12ZM12 20C8.21562 20 5.04375 17.3719 4.2125 13.8375C6.48125 14.575 9.14687 15 12 15C13.3844 15 14.7281 14.9 16 14.7125V15.5C16 15.775 16.225 16 16.5 16H17.5C17.775 16 18 16.225 18 16.5V17.1031C18 17.225 17.9563 17.3438 17.8719 17.4312C16.4125 19.0125 14.3219 20 12 20ZM9 9C9 8.73478 9.10536 8.48043 9.29289 8.29289C9.48043 8.10536 9.73478 8 10 8C10.2652 8 10.5196 8.10536 10.7071 8.29289C10.8946 8.48043 11 8.73478 11 9C11 9.26522 10.8946 9.51957 10.7071 9.70711C10.5196 9.89464 10.2652 10 10 10C9.73478 10 9.48043 9.89464 9.29289 9.70711C9.10536 9.51957 9 9.26522 9 9ZM12.5 9C12.5 8.33696 12.2366 7.70107 11.7678 7.23223C11.2989 6.76339 10.663 6.5 10 6.5C9.33696 6.5 8.70107 6.76339 8.23223 7.23223C7.76339 7.70107 7.5 8.33696 7.5 9C7.5 9.66304 7.76339 10.2989 8.23223 10.7678C8.70107 11.2366 9.33696 11.5 10 11.5C10.663 11.5 11.2989 11.2366 11.7678 10.7678C12.2366 10.2989 12.5 9.66304 12.5 9Z" fill="black"/>
</svg>
