<svg width="24" height="24" viewBox="0 0 24 24" fill="none" xmlns="http://www.w3.org/2000/svg">
<path d="M5 7C5 5.89688 5.89688 5 7 5H17C18.1031 5 19 5.89688 19 7V17C19 18.1031 18.1031 19 17 19H7C5.89688 19 5 18.1031 5 17V7ZM7.19688 8.74375C6.91563 9.05 6.9375 9.525 7.24375 9.80312L9.64062 12L7.24375 14.1969C6.9375 14.4781 6.91875 14.95 7.19688 15.2563C7.475 15.5625 7.95 15.5813 8.25625 15.3031L11.2562 12.5531C11.4125 12.4125 11.5 12.2094 11.5 12C11.5 11.7906 11.4125 11.5906 11.2562 11.4469L8.25625 8.69688C7.95 8.41563 7.475 8.4375 7.19688 8.74375ZM11.75 14.5C11.3344 14.5 11 14.8344 11 15.25C11 15.6656 11.3344 16 11.75 16H16.25C16.6656 16 17 15.6656 17 15.25C17 14.8344 16.6656 14.5 16.25 14.5H11.75Z" fill="black"/>
</svg>
