<svg width="24" height="24" viewBox="0 0 24 24" fill="none" xmlns="http://www.w3.org/2000/svg">
<path d="M12.4188 4.09063C12.2875 4.03125 12.1469 4 12 4C11.8531 4 11.7125 4.03125 11.5813 4.09063L5.69689 6.5875C5.00939 6.87813 4.49689 7.55625 4.50001 8.375C4.51564 11.475 5.79064 17.1469 11.175 19.725C11.6969 19.975 12.3031 19.975 12.825 19.725C18.2094 17.1469 19.4844 11.475 19.5 8.375C19.5031 7.55625 18.9906 6.87813 18.3031 6.5875L12.4188 4.09063ZM8.50001 10.9156C8.50001 9.85938 9.35626 9 10.4156 9C10.9219 9 11.4094 9.20312 11.7688 9.55937L12 9.79063L12.2313 9.55937C12.5906 9.2 13.0781 9 13.5844 9C14.6406 9 15.5 9.85625 15.5 10.9156C15.5 11.4219 15.2969 11.9094 14.9406 12.2688L12.3563 14.8531C12.1625 15.0469 11.8438 15.0469 11.65 14.8531L9.06564 12.2688C8.70626 11.9094 8.50626 11.4219 8.50626 10.9156H8.50001Z" fill="black"/>
</svg>
