<svg width="24" height="24" viewBox="0 0 24 24" fill="none" xmlns="http://www.w3.org/2000/svg">
<path d="M5 17C5 18.1031 5.89688 19 7 19H17C18.1031 19 19 18.1031 19 17V7C19 5.89688 18.1031 5 17 5H7C5.89688 5 5 5.89688 5 7V17ZM7.71875 11.4688L11.2188 7.96875C11.5125 7.675 11.9875 7.675 12.2781 7.96875C12.5687 8.2625 12.5719 8.7375 12.2781 9.02812L10.0594 11.2469L15.75 11.25C16.1656 11.25 16.5 11.5844 16.5 12C16.5 12.4156 16.1656 12.75 15.75 12.75H10.0594L12.2781 14.9688C12.5719 15.2625 12.5719 15.7375 12.2781 16.0281C11.9844 16.3187 11.5094 16.3219 11.2188 16.0281L7.71875 12.5312C7.425 12.2375 7.425 11.7625 7.71875 11.4719V11.4688Z" fill="black"/>
</svg>
