<svg width="24" height="24" viewBox="0 0 24 24" fill="none" xmlns="http://www.w3.org/2000/svg">
<path d="M6 4C5.44688 4 5 4.44687 5 5H4.5C3.67188 5 3 5.67188 3 6.5V15.5C3 16.3281 3.67188 17 4.5 17H19.5C20.3281 17 21 16.3281 21 15.5V6.5C21 5.67188 20.3281 5 19.5 5H19C19 4.44687 18.5531 4 18 4C17.4469 4 17 4.44687 17 5H7C7 4.44687 6.55312 4 6 4ZM7 18H5V19C5 19.5531 5.44688 20 6 20C6.55312 20 7 19.5531 7 19V18ZM17 18V19C17 19.5531 17.4469 20 18 20C18.5531 20 19 19.5531 19 19V18H17Z" fill="black"/>
</svg>
