<svg width="24" height="24" viewBox="0 0 24 24" fill="none" xmlns="http://www.w3.org/2000/svg">
<path d="M5.81877 4C4.86564 4 4.04689 4.67188 3.85939 5.60625L2.25939 13.6062C2.01252 14.8438 2.95627 16 4.21877 16H11V18H9.00002C8.44689 18 8.00002 18.4469 8.00002 19C8.00002 19.5531 8.44689 20 9.00002 20H15C15.5531 20 16 19.5531 16 19C16 18.4469 15.5531 18 15 18H13V16H19.7813C21.0438 16 21.9906 14.8469 21.7438 13.6062L20.1438 5.60625C19.9531 4.67188 19.1344 4 18.1813 4H5.81877ZM10.1531 6H13.8469L14.1719 9.25H9.82814L10.1531 6ZM8.32189 9.25H5.16877L5.81877 6H8.64377L8.32189 9.25ZM4.86877 10.75H8.17189L7.84689 14H4.21877L4.86877 10.75ZM9.67814 10.75H14.3219L14.6469 14H9.35314L9.67814 10.75ZM15.8281 10.75H19.1313L19.7813 14H16.1563L15.8281 10.75ZM18.8281 9.25H15.6781L15.3531 6H18.1781L19.1594 5.80313L18.1813 6L18.8313 9.25H18.8281Z" fill="black"/>
</svg>
