<svg width="24" height="24" viewBox="0 0 24 24" fill="none" xmlns="http://www.w3.org/2000/svg">
<path d="M6.38125 6.2187C6.8125 6.56557 6.88125 7.1937 6.5375 7.62495C5.575 8.82495 5 10.3437 5 11.9999C5 13.6562 5.575 15.1749 6.53437 16.3749C6.88125 16.8062 6.80938 17.4343 6.37812 17.7812C5.94687 18.1281 5.31875 18.0562 4.97187 17.6249C3.74062 16.0843 3 14.1281 3 11.9999C3 9.87182 3.74063 7.91557 4.975 6.37495C5.32188 5.9437 5.95 5.87495 6.38125 6.2187ZM17.6219 6.2187C18.0531 5.87182 18.6813 5.9437 19.0281 6.37495C20.2594 7.91557 21 9.87182 21 11.9999C21 14.1281 20.2594 16.0843 19.025 17.6249C18.6781 18.0562 18.05 18.1249 17.6187 17.7812C17.1875 17.4374 17.1187 16.8062 17.4625 16.3749C18.4219 15.1749 18.9969 13.6562 18.9969 11.9999C18.9969 10.3437 18.4219 8.82495 17.4625 7.62495C17.1156 7.1937 17.1875 6.56557 17.6187 6.2187H17.6219ZM10.25 11.9999C10.25 11.5358 10.4344 11.0907 10.7626 10.7625C11.0908 10.4343 11.5359 10.2499 12 10.2499C12.4641 10.2499 12.9092 10.4343 13.2374 10.7625C13.5656 11.0907 13.75 11.5358 13.75 11.9999C13.75 12.4641 13.5656 12.9092 13.2374 13.2374C12.9092 13.5656 12.4641 13.7499 12 13.7499C11.5359 13.7499 11.0908 13.5656 10.7626 13.2374C10.4344 12.9092 10.25 12.4641 10.25 11.9999ZM9.39062 9.66557C8.83437 10.2843 8.5 11.1031 8.5 11.9999C8.5 12.8968 8.8375 13.7124 9.39062 14.3343C9.75938 14.7468 9.725 15.3781 9.3125 15.7468C8.9 16.1156 8.26875 16.0812 7.9 15.6687C7.03125 14.6937 6.5 13.4093 6.5 11.9999C6.5 10.5906 7.03125 9.3062 7.9 8.33432C8.26875 7.92182 8.9 7.88745 9.3125 8.2562C9.725 8.62495 9.75938 9.2562 9.39062 9.6687V9.66557ZM16.1 8.3312C16.9688 9.3062 17.5 10.5906 17.5 11.9999C17.5 13.4093 16.9688 14.6937 16.1 15.6656C15.7313 16.0781 15.1 16.1124 14.6875 15.7437C14.275 15.3749 14.2406 14.7437 14.6094 14.3312C15.1656 13.7124 15.5 12.8937 15.5 11.9968C15.5 11.0999 15.1625 10.2843 14.6094 9.66245C14.2406 9.24995 14.275 8.6187 14.6875 8.24995C15.1 7.8812 15.7313 7.91557 16.1 8.32807V8.3312Z" fill="black"/>
</svg>
