<svg width="24" height="24" viewBox="0 0 24 24" fill="none" xmlns="http://www.w3.org/2000/svg">
<path d="M7.45 4.68442C7.625 5.20942 7.34062 5.77505 6.81875 5.95005L6 6.22192V10C6 11.6563 7.34375 13 9 13C10.6562 13 12 11.6563 12 10V6.22192L11.1844 5.95005C10.6594 5.77505 10.3781 5.20942 10.5531 4.68442C10.7281 4.15942 11.2938 3.87817 11.8188 4.05317L12.6344 4.32505C13.45 4.59692 14 5.35942 14 6.22192V10C14 12.4125 12.2937 14.425 10.0219 14.8969C10.2188 16.6438 11.7 18 13.5 18C15.4344 18 17 16.4344 17 14.5V12.2907C16.1156 11.9063 15.5 11.025 15.5 10C15.5 8.6188 16.6187 7.50005 18 7.50005C19.3813 7.50005 20.5 8.6188 20.5 10C20.5 11.025 19.8844 11.9063 19 12.2907V14.5C19 17.5375 16.5375 20 13.5 20C10.5969 20 8.22188 17.7532 8.01562 14.9032C5.725 14.4438 4 12.425 4 10V6.22192C4 5.36255 4.55 4.59692 5.36875 4.32505L6.18438 4.05317C6.70937 3.87817 7.275 4.16255 7.45 4.68442ZM18 11C18.2652 11 18.5196 10.8947 18.7071 10.7072C18.8946 10.5196 19 10.2653 19 10C19 9.73483 18.8946 9.48048 18.7071 9.29294C18.5196 9.1054 18.2652 9.00005 18 9.00005C17.7348 9.00005 17.4804 9.1054 17.2929 9.29294C17.1054 9.48048 17 9.73483 17 10C17 10.2653 17.1054 10.5196 17.2929 10.7072C17.4804 10.8947 17.7348 11 18 11Z" fill="black"/>
</svg>
