<svg width="24" height="24" viewBox="0 0 24 24" fill="none" xmlns="http://www.w3.org/2000/svg">
<path d="M7 5C7 4.44687 6.55313 4 6 4C5.44687 4 5 4.44687 5 5V8.4875C5 8.9625 5.09688 9.43125 5.28438 9.86562L7.5625 15.1812C8.03437 16.2844 9.11875 17 10.3187 17H11.75V18.5H8.75C8.33437 18.5 8 18.8344 8 19.25C8 19.6656 8.33437 20 8.75 20H16.25C16.6656 20 17 19.6656 17 19.25C17 18.8344 16.6656 18.5 16.25 18.5H13.25V17H16.25C16.7219 17 17.1656 16.7781 17.45 16.4L18.8 14.6C19.0281 14.2969 19.0625 13.8906 18.8938 13.5531C18.725 13.2156 18.3781 13 18 13H8.80312L8.375 12H15C15.5531 12 16 11.5531 16 11C16 10.4469 15.5531 10 15 10H7.51562L7.12188 9.07812C7.04063 8.89062 7 8.69063 7 8.4875V5Z" fill="black"/>
</svg>
