<svg width="24" height="24" viewBox="0 0 24 24" fill="none" xmlns="http://www.w3.org/2000/svg">
<path d="M4 12C4 9.87827 4.84285 7.84344 6.34315 6.34315C7.84344 4.84285 9.87827 4 12 4C14.1217 4 16.1566 4.84285 17.6569 6.34315C19.1571 7.84344 20 9.87827 20 12C20 14.1217 19.1571 16.1566 17.6569 17.6569C16.1566 19.1571 14.1217 20 12 20C9.87827 20 7.84344 19.1571 6.34315 17.6569C4.84285 16.1566 4 14.1217 4 12ZM13.7688 5.99063C13.575 5.79688 13.2562 5.79688 13.0625 5.99063L12 7.05L10.9406 5.99063C10.7469 5.79688 10.4281 5.79688 10.2344 5.99063C10.0406 6.18438 10.0406 6.50313 10.2344 6.69688L11.2937 7.75625L9.87813 9.17188L8.10938 7.40313C7.91563 7.20938 7.59688 7.20938 7.40313 7.40313C7.20938 7.59688 7.20938 7.91563 7.40313 8.10938L9.17188 9.87813L7.75625 11.2937L6.69688 10.2312C6.50313 10.0375 6.18438 10.0375 5.99063 10.2312C5.79688 10.425 5.79688 10.7438 5.99063 10.9375L7.05 12L5.99063 13.0594C5.79688 13.2531 5.79688 13.5719 5.99063 13.7656C6.18438 13.9594 6.50313 13.9594 6.69688 13.7656L7.75625 12.7063L9.17188 14.1219L7.40313 15.8906C7.20938 16.0844 7.20938 16.4031 7.40313 16.5969C7.59688 16.7906 7.91563 16.7906 8.10938 16.5969L9.87813 14.8281L11.2937 16.2437L10.2344 17.3031C10.0406 17.4969 10.0406 17.8156 10.2344 18.0094C10.4281 18.2031 10.7469 18.2031 10.9406 18.0094L12 16.95L13.0594 18.0094C13.2531 18.2031 13.5719 18.2031 13.7656 18.0094C13.9594 17.8156 13.9594 17.4969 13.7656 17.3031L12.7063 16.2437L14.1219 14.8281L15.8906 16.5969C16.0844 16.7906 16.4031 16.7906 16.5969 16.5969C16.7906 16.4031 16.7906 16.0844 16.5969 15.8906L14.8281 14.1219L16.2437 12.7063L17.3031 13.7656C17.4969 13.9594 17.8156 13.9594 18.0094 13.7656C18.2031 13.5719 18.2031 13.2531 18.0094 13.0594L16.95 12L18.0094 10.9406C18.2031 10.7469 18.2031 10.4281 18.0094 10.2344C17.8156 10.0406 17.4969 10.0406 17.3031 10.2344L16.2437 11.2937L14.8281 9.87813L16.5969 8.10938C16.7906 7.91563 16.7906 7.59688 16.5969 7.40313C16.4031 7.20938 16.0844 7.20938 15.8906 7.40313L14.1219 9.17188L12.7063 7.75625L13.7656 6.69688C13.9594 6.50313 13.9594 6.18438 13.7656 5.99063H13.7688ZM8.46562 12L9.88125 10.5844L11.2937 12L9.87813 13.4156L8.46562 12ZM10.5875 14.1219L12 12.7063L13.4156 14.1219L12 15.5344L10.5844 14.1187L10.5875 14.1219ZM12.7063 12L14.1219 10.5844L15.5344 12L14.1187 13.4156L12.7063 12ZM13.4125 9.87813L12 11.2937L10.5844 9.87813L12 8.46562L13.4156 9.88125L13.4125 9.87813Z" fill="black"/>
</svg>
