<svg width="24" height="24" viewBox="0 0 24 24" fill="none" xmlns="http://www.w3.org/2000/svg">
<path d="M14.4563 5.23347C14.7406 4.93347 15.2156 4.92097 15.5156 5.20534L19.9438 9.41159C20.5656 10.0022 20.5656 10.996 19.9438 11.5866L15.5156 15.7928C15.2156 16.0772 14.7406 16.0647 14.4563 15.7647C14.1719 15.4647 14.1844 14.9897 14.4844 14.7053L18.9125 10.4991L14.4844 6.29284C14.1844 6.00847 14.1719 5.53347 14.4563 5.23347ZM10 5.99909C10 5.60534 10.2312 5.24597 10.5938 5.08659C10.9563 4.92722 11.375 4.99284 11.6687 5.25534L16.6687 9.75534C16.8781 9.94597 17 10.2147 17 10.4991C17 10.7835 16.8812 11.0522 16.6687 11.2428L11.6687 15.7428C11.375 16.0085 10.9531 16.0741 10.5938 15.9116C10.2344 15.7491 10 15.3928 10 14.9991V12.9991H9C7.34375 12.9991 6 14.3428 6 15.9991C6 16.9491 6.4 17.496 6.69375 17.771C6.86562 17.9303 7 18.146 7 18.3803C7 18.721 6.725 18.996 6.38438 18.996C6.29688 18.996 6.20937 18.9772 6.13125 18.9366C5.54688 18.621 3 17.0397 3 13.4991C3 10.4616 5.4625 7.99909 8.5 7.99909H10V5.99909Z" fill="black"/>
</svg>
