<svg width="24" height="24" viewBox="0 0 24 24" fill="none" xmlns="http://www.w3.org/2000/svg">
<path d="M7 5C5.89688 5 5 5.89688 5 7V17C5 18.1031 5.89688 19 7 19H17C18.1031 19 19 18.1031 19 17V7C19 5.89688 18.1031 5 17 5H7ZM16.2312 13.6875C16.0656 13.9563 15.7063 14.0719 15.3969 13.9531L13.9531 13.4031C13.6813 13.3 13.5125 13.0406 13.5437 12.7688L13.6344 11.9344C12.5781 11.5969 11.4219 11.5969 10.3656 11.9344L10.4563 12.7688C10.4844 13.0406 10.3187 13.2969 10.0469 13.4031L8.60313 13.9531C8.29375 14.0719 7.93437 13.9594 7.76875 13.6875L7.0875 12.5875C6.9375 12.3437 6.98125 12.0406 7.19688 11.8438C9.85 9.3875 14.1531 9.3875 16.8062 11.8438C17.0187 12.0406 17.0625 12.3469 16.9125 12.5875L16.2312 13.6875Z" fill="black"/>
</svg>
