<svg width="24" height="24" viewBox="0 0 24 24" fill="none" xmlns="http://www.w3.org/2000/svg">
<path d="M15.2969 4.0375C15.4531 4.10312 15.5656 4.24375 15.5969 4.40937L16.2188 7.78125L19.5906 8.4C19.7563 8.43125 19.8969 8.54375 19.9625 8.7C20.0281 8.85625 20.0094 9.03437 19.9125 9.175L17.9656 12H16C16 9.79062 14.2094 8 12 8C9.79063 8 8 9.79062 8 12H6.03438L4.0875 9.17812C3.99063 9.0375 3.97187 8.85937 4.0375 8.70312C4.10312 8.54687 4.24375 8.43437 4.40937 8.40312L7.78125 7.78125L8.40312 4.40937C8.43437 4.24375 8.54688 4.10312 8.70312 4.0375C8.85938 3.97187 9.0375 3.99062 9.17812 4.0875L12 6.03437L14.8219 4.0875C14.9625 3.99062 15.1406 3.97187 15.2969 4.0375ZM12 9C13.6562 9 15 10.3437 15 12H9C9 10.3437 10.3438 9 12 9ZM21.25 13C21.6656 13 22 13.3344 22 13.75C22 14.1656 21.6656 14.5 21.25 14.5H17.75C17.3344 14.5 17 14.1656 17 13.75C17 13.3344 17.3344 13 17.75 13H21.25ZM14.75 13C15.1656 13 15.5 13.3344 15.5 13.75C15.5 14.1656 15.1656 14.5 14.75 14.5H4.75C4.33437 14.5 4 14.1656 4 13.75C4 13.3344 4.33437 13 4.75 13H14.75ZM19.25 15.75C19.6656 15.75 20 16.0844 20 16.5C20 16.9156 19.6656 17.25 19.25 17.25H2.75C2.33437 17.25 2 16.9156 2 16.5C2 16.0844 2.33437 15.75 2.75 15.75H19.25ZM4 19.25C4 18.8344 4.33437 18.5 4.75 18.5H8.25C8.66563 18.5 9 18.8344 9 19.25C9 19.6656 8.66563 20 8.25 20H4.75C4.33437 20 4 19.6656 4 19.25ZM10.5 19.25C10.5 18.8344 10.8344 18.5 11.25 18.5H21.25C21.6656 18.5 22 18.8344 22 19.25C22 19.6656 21.6656 20 21.25 20H11.25C10.8344 20 10.5 19.6656 10.5 19.25Z" fill="black"/>
</svg>
