<svg width="24" height="24" viewBox="0 0 24 24" fill="none" xmlns="http://www.w3.org/2000/svg">
<path d="M3.21268 4.15955C2.88768 3.9033 2.4158 3.96268 2.15955 4.28768C1.9033 4.61268 1.96268 5.08455 2.28768 5.3408L20.7877 19.8408C21.1127 20.0971 21.5846 20.0377 21.8408 19.7127C22.0971 19.3877 22.0377 18.9158 21.7127 18.6596L20.7752 17.9252C20.9189 17.6502 21.0002 17.3346 21.0002 17.0002V7.00018C21.0002 5.89705 20.1033 5.00018 19.0002 5.00018H5.00018C4.7908 5.00018 4.5908 5.03143 4.40018 5.0908L3.21268 4.15955ZM14.3064 12.8533L14.2689 12.8252C14.1033 12.6877 14.0002 12.4814 14.0002 12.2502C14.0002 11.8346 14.3346 11.5002 14.7502 11.5002H17.2502C17.6658 11.5002 18.0002 11.8346 18.0002 12.2502C18.0002 12.6658 17.6658 13.0002 17.2502 13.0002H14.7502C14.5846 13.0002 14.4314 12.9471 14.3064 12.8564V12.8533ZM16.4064 14.5002H17.2502C17.6658 14.5002 18.0002 14.8346 18.0002 15.2502C18.0002 15.4002 17.9564 15.5408 17.8814 15.6564L16.4064 14.5002ZM17.2314 19.0002L13.4221 16.0002H11.7502C11.3346 16.0002 11.0002 15.6658 11.0002 15.2502C11.0002 14.9033 11.2346 14.6127 11.5533 14.5252L9.6158 13.0002H6.75018C6.33455 13.0002 6.00018 12.6658 6.00018 12.2502C6.00018 11.8346 6.33455 11.5002 6.75018 11.5002H7.71268L3.00018 7.78768V17.0002C3.00018 18.1033 3.89705 19.0002 5.00018 19.0002H17.2314ZM6.75018 14.5002H9.25018C9.6658 14.5002 10.0002 14.8346 10.0002 15.2502C10.0002 15.6658 9.6658 16.0002 9.25018 16.0002H6.75018C6.33455 16.0002 6.00018 15.6658 6.00018 15.2502C6.00018 14.8346 6.33455 14.5002 6.75018 14.5002Z" fill="black"/>
</svg>
