<svg width="24" height="24" viewBox="0 0 24 24" fill="none" xmlns="http://www.w3.org/2000/svg">
<path d="M3.21243 4.15955C2.88743 3.9033 2.41556 3.96268 2.15931 4.28768C1.90306 4.61268 1.96243 5.08455 2.28743 5.3408L20.7874 19.8408C21.1124 20.0971 21.5843 20.0377 21.8406 19.7127C22.0968 19.3877 22.0374 18.9158 21.7124 18.6596L18.9999 16.5346V7.00018C18.9999 5.89705 18.1031 5.00018 16.9999 5.00018H6.99993C6.32493 5.00018 5.72806 5.33455 5.36556 5.84705L3.21243 4.15955ZM9.09368 8.77205C9.28118 8.31893 9.72806 8.00018 10.2499 8.00018H12.4999C14.1562 8.00018 15.4999 9.34393 15.4999 11.0002C15.4999 11.8221 15.1687 12.5689 14.6312 13.1096L13.0249 11.8502C13.3093 11.6752 13.4999 11.3596 13.4999 11.0002C13.4999 10.4471 13.0531 10.0002 12.4999 10.0002H10.9999V10.2627L9.09368 8.76893V8.77205ZM17.2156 18.9908L10.9999 14.0908V15.0002C10.9999 15.5533 10.5531 16.0002 9.99993 16.0002C9.44681 16.0002 8.99993 15.5533 8.99993 15.0002V13.0002V12.5158L4.99993 9.36268V17.0002C4.99993 18.1033 5.89681 19.0002 6.99993 19.0002H16.9999C17.0718 19.0002 17.1437 18.9971 17.2156 18.9877V18.9908Z" fill="black"/>
</svg>
