<svg width="24" height="24" viewBox="0 0 24 24" fill="none" xmlns="http://www.w3.org/2000/svg">
<path d="M9.00002 5C9.00002 4.44687 9.4469 4 10 4H14C14.5531 4 15 4.44687 15 5V6H16.5C17.3281 6 18 6.67188 18 7.5V11.5L19.3875 11.9625C20.1094 12.2031 20.3094 13.1344 19.7469 13.6469L16.5906 16.5406C16.0844 16.8344 15.5063 17.0125 15 17.0125C14.3875 17.0125 13.725 16.7719 13.15 16.3781C12.4594 15.8938 11.5375 15.8938 10.8469 16.3781C10.3125 16.7469 9.6594 17.0125 8.9969 17.0125C8.49065 17.0125 7.91252 16.8344 7.40627 16.5406L4.25002 13.6469C3.68752 13.1313 3.88752 12.2031 4.6094 11.9625L6.00002 11.5V7.5C6.00002 6.67188 6.6719 6 7.50002 6H9.00002V5ZM8.00002 10.8344L11.3688 9.7125C11.7781 9.575 12.2219 9.575 12.6344 9.7125L16 10.8344V8H8.00002V10.8344ZM12.5781 17.1844C13.2813 17.6687 14.1406 18 15 18C15.8406 18 16.7313 17.6625 17.4188 17.1844C17.7906 16.9187 18.2969 16.9406 18.6438 17.2375C19.0938 17.6094 19.6594 17.8937 20.225 18.025C20.7625 18.15 21.0969 18.6875 20.9719 19.225C20.8469 19.7625 20.3094 20.0969 19.7719 19.9719C19.0063 19.7937 18.3688 19.4563 17.9531 19.1906C17.0469 19.6781 16.0313 20 15 20C14.0031 20 13.1063 19.6906 12.4875 19.4094C12.3063 19.325 12.1406 19.2437 12 19.1687C11.8594 19.2437 11.6969 19.3281 11.5125 19.4094C10.8938 19.6906 9.9969 20 9.00002 20C7.96877 20 6.95315 19.6781 6.0469 19.1938C5.62815 19.4563 4.99377 19.7969 4.22815 19.975C3.69065 20.1 3.15315 19.7656 3.02815 19.2281C2.90315 18.6906 3.23752 18.1531 3.77502 18.0281C4.34065 17.8969 4.90627 17.6125 5.35627 17.2406C5.70315 16.9469 6.2094 16.925 6.58127 17.1875C7.2719 17.6625 8.1594 18 9.00002 18C9.8594 18 10.7188 17.6687 11.4219 17.1844C11.7688 16.9375 12.2313 16.9375 12.5781 17.1844Z" fill="black"/>
</svg>
