<svg width="24" height="24" viewBox="0 0 24 24" fill="none" xmlns="http://www.w3.org/2000/svg">
<path d="M8.61868 4C8.86243 4 9.06556 4.17812 9.14056 4.4125C9.52493 5.62188 10.6593 6.5 11.9999 6.5C13.3406 6.5 14.4749 5.62188 14.8593 4.4125C14.9343 4.17812 15.1374 4 15.3812 4H15.7749C16.4781 4 17.1562 4.24687 17.6968 4.69687L21.6406 7.98125C21.8468 8.15313 21.9749 8.40312 21.9968 8.67188C22.0187 8.94063 21.9312 9.20625 21.7531 9.40938L20.0031 11.4094C19.6468 11.8188 19.0281 11.8656 18.6093 11.5188L16.9999 10.1781V18C16.9999 19.1031 16.1031 20 14.9999 20H8.99993C7.89681 20 6.99993 19.1031 6.99993 18V10.1781L5.39056 11.5188C4.97493 11.8656 4.35618 11.8188 3.99681 11.4094L2.24681 9.40938C2.06868 9.20625 1.98118 8.94063 2.00306 8.67188C2.02493 8.40312 2.15306 8.15313 2.35931 7.98125L6.30306 4.69687C6.84368 4.24687 7.52181 4 8.22493 4H8.61868Z" fill="black"/>
</svg>
