<svg width="24" height="24" viewBox="0 0 24 24" fill="none" xmlns="http://www.w3.org/2000/svg">
<path d="M19 7C19 5.89688 18.1031 5 17 5H7C5.89688 5 5 5.89688 5 7V17C5 18.1031 5.89688 19 7 19H17C18.1031 19 19 18.1031 19 17V7ZM13 9C13 9.55313 12.5531 10 12 10H9C8.44687 10 8 9.55313 8 9C8 8.44687 8.44687 8 9 8H12C12.5531 8 13 8.44687 13 9ZM15 11C15.5531 11 16 11.4469 16 12C16 12.5531 15.5531 13 15 13H9C8.44687 13 8 12.5531 8 12C8 11.4469 8.44687 11 9 11H15ZM11 15C11 15.5531 10.5531 16 10 16H9C8.44687 16 8 15.5531 8 15C8 14.4469 8.44687 14 9 14H10C10.5531 14 11 14.4469 11 15Z" fill="black"/>
</svg>
