<svg width="24" height="24" viewBox="0 0 24 24" fill="none" xmlns="http://www.w3.org/2000/svg">
<path d="M3.21243 4.15955C2.88743 3.9033 2.41556 3.96268 2.15931 4.28768C1.90306 4.61268 1.96243 5.08455 2.28743 5.3408L20.7874 19.8408C21.1124 20.0971 21.5843 20.0377 21.8406 19.7127C22.0968 19.3877 22.0374 18.9158 21.7124 18.6596L19.9999 17.3158V11.0002H17.9999V15.7502L13.9999 12.6158V11.0002H11.9999V11.0471L10.6624 10.0002H20.8499C21.4843 10.0002 21.9999 9.48455 21.9999 8.85018C21.9999 8.62205 21.9312 8.40018 21.8062 8.21268L19.4437 4.66893C19.1656 4.25018 18.6999 4.00018 18.1968 4.00018H5.80306C5.30306 4.00018 4.83431 4.25018 4.55618 4.66893L4.31556 5.02518L3.21243 4.15955ZM3.14993 10.0002H5.80618L2.65618 7.5158L2.19368 8.20955C2.06868 8.40018 1.99993 8.62205 1.99993 8.84705C1.99993 9.48455 2.51556 10.0002 3.14993 10.0002ZM11.9999 16.0002H5.99993V11.0002H3.99993V16.0002V18.5002C3.99993 19.3283 4.67181 20.0002 5.49993 20.0002H12.4999C13.3281 20.0002 13.9999 19.3283 13.9999 18.5002V16.4533L11.9999 14.8783V16.0002ZM18.9999 20.0002H18.9906H19.0093H18.9999Z" fill="black"/>
</svg>
