<svg width="24" height="24" viewBox="0 0 24 24" fill="none" xmlns="http://www.w3.org/2000/svg">
<path d="M4 5C2.89688 5 2 5.89688 2 7V17C2 18.1031 2.89688 19 4 19H12.55C11.5813 17.9156 11 16.4813 11 14.9406C11 13.8406 11.5094 12.6406 12.1625 11.5844C12.8406 10.4844 13.7844 9.35937 14.8906 8.37187C15.2031 8.09375 15.6094 7.97187 16 8.00625V7C16 5.89688 15.1031 5 14 5H4ZM5.5 7.75V12.25C5.5 12.6656 5.16563 13 4.75 13C4.33437 13 4 12.6656 4 12.25V7.75C4 7.33437 4.33437 7 4.75 7C5.16563 7 5.5 7.33437 5.5 7.75ZM8.5 7.75V12.25C8.5 12.6656 8.16563 13 7.75 13C7.33437 13 7 12.6656 7 12.25V7.75C7 7.33437 7.33437 7 7.75 7C8.16563 7 8.5 7.33437 8.5 7.75ZM17.8031 10.5031L17.2094 9.88125C17.1469 9.81562 17.0844 9.74375 17.0219 9.67188C16.7406 9.35313 16.4406 9.00625 16 8.99687C15.7719 8.99062 15.5438 9.06875 15.3656 9.23125C14.6344 9.89062 13.8031 10.7594 13.15 11.7375C12.5 12.7063 12 13.8344 12 15C12 17.7687 14.2 19.9937 17 19.9937C19.7719 19.9937 22 17.7687 22 15C22 14.0625 21.6562 13.0969 21.1812 12.2469C20.7062 11.3906 20.0781 10.6125 19.4625 10.0406C19.2875 9.87813 19.0625 9.79688 18.8406 9.79688C18.6031 9.79688 18.3563 9.88437 18.1875 10.075L17.8031 10.5062V10.5031ZM19 16.5C19 17.6031 18.1031 18.5 17 18.5C15.8969 18.5 15 17.6031 15 16.5C15 15.3594 16.1562 14.2188 16.7125 13.7375C16.8812 13.5906 17.1219 13.5906 17.2906 13.7375C17.8437 14.2188 19 15.3594 19 16.5Z" fill="black"/>
</svg>
