<svg width="24" height="24" viewBox="0 0 24 24" fill="none" xmlns="http://www.w3.org/2000/svg">
<path d="M15 7C15 7.35 14.9406 7.6875 14.8281 8H18C18.1844 8 18.3531 8.1 18.4406 8.26562C18.5281 8.43125 18.5187 8.625 18.4156 8.77812L18.1781 9.13438L18.8 9.6C18.925 9.69375 19 9.84375 19 10C19 10.1562 18.925 10.3063 18.8 10.4L18.1781 10.8656L18.4156 11.2219C18.5187 11.375 18.5281 11.5719 18.4406 11.7344C18.3531 11.8969 18.1844 12 18 12H15.7188C15.4031 12 15.1656 12.2875 15.2281 12.5969L15.9875 16.4C16.025 16.5938 15.95 16.7906 15.7906 16.9031C15.6312 17.0156 15.4219 17.0281 15.25 16.9312L13.9969 16.2188C13.8438 16.1313 13.6531 16.1313 13.5 16.2188L12.2469 16.9344C12.0938 17.0219 11.9031 17.0219 11.75 16.9344L10.4969 16.2188C10.3438 16.1313 10.1531 16.1313 10 16.2188L8.74688 16.9344C8.57812 17.0312 8.36562 17.0219 8.20625 16.9062C8.04688 16.7906 7.96875 16.5938 8.00938 16.4031L8.76875 12.6C8.83125 12.2906 8.59375 12.0031 8.27813 12.0031H6C5.81563 12.0031 5.64687 11.9031 5.55937 11.7375C5.47187 11.5719 5.48125 11.3781 5.58438 11.225L5.82187 10.8688L5.2 10.4C5.075 10.3063 5 10.1562 5 10C5 9.84375 5.075 9.69375 5.2 9.6L5.82187 9.13438L5.58438 8.77812C5.48125 8.625 5.47187 8.42812 5.55937 8.26562C5.64687 8.10313 5.81563 8 6 8H9.17188C9.0625 7.6875 9 7.35 9 7C9 5.34375 10.3438 4 12 4C13.6562 4 15 5.34375 15 7ZM11.5 6.5C11.5 6.36739 11.4473 6.24021 11.3536 6.14645C11.2598 6.05268 11.1326 6 11 6C10.8674 6 10.7402 6.05268 10.6464 6.14645C10.5527 6.24021 10.5 6.36739 10.5 6.5C10.5 6.63261 10.5527 6.75979 10.6464 6.85355C10.7402 6.94732 10.8674 7 11 7C11.1326 7 11.2598 6.94732 11.3536 6.85355C11.4473 6.75979 11.5 6.63261 11.5 6.5ZM13 7.5C13.1326 7.5 13.2598 7.44732 13.3536 7.35355C13.4473 7.25979 13.5 7.13261 13.5 7C13.5 6.86739 13.4473 6.74021 13.3536 6.64645C13.2598 6.55268 13.1326 6.5 13 6.5C12.8674 6.5 12.7402 6.55268 12.6464 6.64645C12.5527 6.74021 12.5 6.86739 12.5 7C12.5 7.13261 12.5527 7.25979 12.6464 7.35355C12.7402 7.44732 12.8674 7.5 13 7.5ZM11 19V17.3687L11.3812 17.5844C11.7656 17.8031 12.2375 17.8031 12.6219 17.5844L13.0031 17.3687V19C13.0031 19.5531 12.5563 20 12.0031 20C11.45 20 11.0031 19.5531 11.0031 19H11Z" fill="black"/>
</svg>
