<svg width="24" height="24" viewBox="0 0 24 24" fill="none" xmlns="http://www.w3.org/2000/svg">
<path d="M4 7C4 5.89688 4.89688 5 6 5H18C19.1031 5 20 5.89688 20 7V17C20 18.1031 19.1031 19 18 19H6C4.89688 19 4 18.1031 4 17V7ZM11 7V17H18V7H11ZM6.75 7C6.33437 7 6 7.33437 6 7.75C6 8.16563 6.33437 8.5 6.75 8.5H8.25C8.66563 8.5 9 8.16563 9 7.75C9 7.33437 8.66563 7 8.25 7H6.75ZM6 10.75C6 11.1656 6.33437 11.5 6.75 11.5H8.25C8.66563 11.5 9 11.1656 9 10.75C9 10.3344 8.66563 10 8.25 10H6.75C6.33437 10 6 10.3344 6 10.75ZM6.75 13C6.33437 13 6 13.3344 6 13.75C6 14.1656 6.33437 14.5 6.75 14.5H8.25C8.66563 14.5 9 14.1656 9 13.75C9 13.3344 8.66563 13 8.25 13H6.75Z" fill="black"/>
</svg>
