<svg width="24" height="24" viewBox="0 0 24 24" fill="none" xmlns="http://www.w3.org/2000/svg">
<path d="M7 5C5.89688 5 5 5.89688 5 7V17C5 18.1031 5.89688 19 7 19H17C18.1031 19 19 18.1031 19 17V7C19 5.89688 18.1031 5 17 5H7ZM11 12H12.5C13.0531 12 13.5 11.5531 13.5 11C13.5 10.4469 13.0531 10 12.5 10H11V12ZM12.5 14H11V15C11 15.5531 10.5531 16 10 16C9.44688 16 9 15.5531 9 15V13V9.25C9 8.55938 9.55937 8 10.25 8H12.5C14.1562 8 15.5 9.34375 15.5 11C15.5 12.6562 14.1562 14 12.5 14Z" fill="black"/>
</svg>
