<svg width="24" height="24" viewBox="0 0 24 24" fill="none" xmlns="http://www.w3.org/2000/svg">
<path d="M9.70937 9.50078L7.35625 13.5664C7.2875 13.6852 7.25 13.8227 7.25 13.9602V14.0414C7.25 14.432 7.56563 14.7477 7.95625 14.7477C8.14375 14.7477 8.325 14.6727 8.45625 14.5414L11.9688 11.032L11.7188 10.782C11.425 10.4883 11.425 10.0133 11.7188 9.72266C12.0125 9.43203 12.4875 9.42891 12.7781 9.72266L13.0281 9.97266L13.4688 9.53203L13.2188 9.28203C12.925 8.98828 12.925 8.51328 13.2188 8.22266C13.5125 7.93203 13.9875 7.92891 14.2781 8.22266L14.5281 8.47266L14.9688 8.03203L14.7188 7.78203C14.425 7.48828 14.425 7.01328 14.7188 6.72266C15.0125 6.43203 15.4875 6.42891 15.7781 6.72266L16.0281 6.97266L17.4125 5.58828C17.7875 5.21328 18.2969 5.00391 18.8281 5.00391H19.775C20.2437 5.00391 20.6969 5.16641 21.0562 5.46641L21.8156 6.10078C21.9312 6.19766 22 6.34141 22 6.49453C22 6.77578 21.7719 7.00391 21.4906 7.00391H19.4844C19.1781 7.00391 18.8906 7.14453 18.7 7.38203L11.0188 17.082C10.0594 18.2945 8.6 19.0008 7.05625 19.0008C4.2625 19.0008 2 16.7383 2 13.9445V13.8477C2 13.4508 2.04688 13.0539 2.1375 12.6664L2.88125 9.50078H2.75C2.33437 9.50078 2 9.16641 2 8.75078C2 8.33516 2.33437 8.00078 2.75 8.00078H10.25C10.6656 8.00078 11 8.33516 11 8.75078C11 9.16641 10.6656 9.50078 10.25 9.50078H9.70937ZM5.75 14.0008C5.75 13.8019 5.67098 13.6111 5.53033 13.4705C5.38968 13.3298 5.19891 13.2508 5 13.2508C4.80109 13.2508 4.61032 13.3298 4.46967 13.4705C4.32902 13.6111 4.25 13.8019 4.25 14.0008C4.25 14.1997 4.32902 14.3905 4.46967 14.5311C4.61032 14.6718 4.80109 14.7508 5 14.7508C5.19891 14.7508 5.38968 14.6718 5.53033 14.5311C5.67098 14.3905 5.75 14.1997 5.75 14.0008ZM6 11.7508C6.19891 11.7508 6.38968 11.6718 6.53033 11.5311C6.67098 11.3905 6.75 11.1997 6.75 11.0008C6.75 10.8019 6.67098 10.6111 6.53033 10.4705C6.38968 10.3298 6.19891 10.2508 6 10.2508C5.80109 10.2508 5.61032 10.3298 5.46967 10.4705C5.32902 10.6111 5.25 10.8019 5.25 11.0008C5.25 11.1997 5.32902 11.3905 5.46967 11.5311C5.61032 11.6718 5.80109 11.7508 6 11.7508Z" fill="black"/>
</svg>
