<svg width="24" height="24" viewBox="0 0 24 24" fill="none" xmlns="http://www.w3.org/2000/svg">
<path d="M7 5C5.89688 5 5 5.89688 5 7V17C5 18.1031 5.89688 19 7 19H17C18.1031 19 19 18.1031 19 17V7C19 5.89688 18.1031 5 17 5H7ZM9.82188 8.26562L14 13.2031V8.75C14 8.33437 14.3344 8 14.75 8C15.1656 8 15.5 8.33437 15.5 8.75V15.25C15.5 15.5656 15.3031 15.8469 15.0094 15.9531C14.7156 16.0594 14.3813 15.975 14.1781 15.7344L10 10.7969V15.25C10 15.6656 9.66563 16 9.25 16C8.83437 16 8.5 15.6656 8.5 15.25V8.75C8.5 8.43438 8.69687 8.15313 8.99062 8.04688C9.28437 7.94062 9.61875 8.025 9.82188 8.26562Z" fill="black"/>
</svg>
