<svg width="24" height="24" viewBox="0 0 24 24" fill="none" xmlns="http://www.w3.org/2000/svg">
<path d="M11 5H5.99995C5.44683 5 4.99995 5.44687 4.99995 6V8C4.99995 8.55312 5.44683 9 5.99995 9H17.7937C17.925 9 18.0531 8.94688 18.1468 8.85313L19.6468 7.35313C19.8406 7.15938 19.8406 6.84062 19.6468 6.64687L18.1468 5.14688C18.0531 5.05313 17.925 5 17.7937 5H13C13 4.44687 12.5531 4 12 4C11.4468 4 11 4.44687 11 5ZM19 12C19 11.4469 18.5531 11 18 11H13V10H11V11H6.2062C6.07495 11 5.94683 11.0531 5.85308 11.1469L4.35308 12.6469C4.15933 12.8406 4.15933 13.1594 4.35308 13.3531L5.85308 14.8531C5.94683 14.9469 6.07495 15 6.2062 15H18C18.5531 15 19 14.5531 19 14V12ZM13 19V16H11V19C11 19.5531 11.4468 20 12 20C12.5531 20 13 19.5531 13 19Z" fill="black"/>
</svg>
