<svg width="24" height="24" viewBox="0 0 24 24" fill="none" xmlns="http://www.w3.org/2000/svg">
<path d="M19.2374 5.52803C19.2343 5.51241 19.2311 5.49678 19.228 5.48116L15.4155 9.29053C16.503 10.2343 17.8843 10.8468 19.403 10.9749C19.6936 9.00616 19.5499 7.05303 19.2343 5.52803H19.2374ZM18.5249 4.76866C18.4905 4.75928 18.4561 4.75303 18.4218 4.74678C16.3718 4.40303 14.5811 4.35616 13.0218 4.55928C13.1436 6.09365 13.7593 7.48741 14.7093 8.58428L18.5249 4.76866ZM17.9374 15.1999C18.5561 14.1905 18.9686 13.0843 19.2218 11.9624C17.4999 11.7968 15.9374 11.0843 14.7093 9.99991L12.7093 11.9999L17.078 16.3718C17.3999 16.003 17.6843 15.6093 17.9343 15.1999H17.9374ZM13.9999 9.29365C12.9061 8.05303 12.1905 6.47178 12.0311 4.72803C11.4999 4.84053 10.9999 4.98741 10.528 5.16241C9.37176 5.59053 8.40926 6.19366 7.61863 6.91241L11.9999 11.2937L13.9999 9.29365ZM11.2936 11.9999L6.91863 7.62803C6.59988 7.99678 6.31551 8.39053 6.06238 8.79991C5.44363 9.80928 5.03113 10.9155 4.77801 12.0374C6.49988 12.203 8.06238 12.9155 9.29051 13.9999L11.2905 11.9999H11.2936ZM9.99988 14.7062C11.0936 15.9468 11.8124 17.528 11.9686 19.2718C12.4999 19.1593 12.9999 19.0124 13.4718 18.8374C14.628 18.4093 15.5905 17.8062 16.3811 17.0874L11.9999 12.7062L9.99988 14.7062ZM8.58426 14.7093C7.49676 13.7655 6.11551 13.153 4.59676 13.0249C4.30613 14.9937 4.44988 16.9468 4.76551 18.4718C4.76863 18.4874 4.77176 18.503 4.77488 18.5187L8.58426 14.7093ZM9.29051 15.4155L5.47488 19.2312C5.50926 19.2405 5.54363 19.2468 5.57801 19.253C7.62801 19.5968 9.41863 19.6437 10.978 19.4405C10.8561 17.9062 10.2405 16.5124 9.29051 15.4155Z" fill="black"/>
</svg>
