<svg width="24" height="24" viewBox="0 0 24 24" fill="none" xmlns="http://www.w3.org/2000/svg">
<path d="M7 5C5.89688 5 5 5.89688 5 7V17C5 18.1031 5.89688 19 7 19H17C18.1031 19 19 18.1031 19 17V7C19 5.89688 18.1031 5 17 5H7ZM8.22187 10.7937L11.5687 7.67188C11.6875 7.5625 11.8406 7.5 12 7.5C12.1594 7.5 12.3156 7.5625 12.4313 7.67188L15.7781 10.7937C15.9187 10.925 16 11.1094 16 11.3031C16 11.6875 15.6875 12 15.3031 12H13.5V15C13.5 15.5531 13.0531 16 12.5 16H11.5C10.9469 16 10.5 15.5531 10.5 15V12H8.69688C8.3125 12 8 11.6875 8 11.3031C8 11.1094 8.08125 10.925 8.22187 10.7937Z" fill="black"/>
</svg>
