<svg width="24" height="24" viewBox="0 0 24 24" fill="none" xmlns="http://www.w3.org/2000/svg">
<path d="M19.7812 4.2188C20.0656 4.50318 20.075 4.95943 19.8031 5.2563L12.9125 12.7907L11.2125 11.0907L18.7437 4.19693C19.0406 3.92505 19.4969 3.93755 19.7812 4.2188ZM10.1031 11.3969L12.6031 13.8969C12.7969 14.0907 12.7969 14.4094 12.6031 14.6032C12.4125 14.7938 12.1094 14.7969 11.9125 14.6188L9.38125 12.0876C9.2 11.8907 9.20625 11.5876 9.39687 11.3969C9.59062 11.2032 9.90938 11.2032 10.1031 11.3969ZM8.3 13.2001L9.04063 12.4594L11.5406 14.9594L10.8 15.7001L8.3 13.2001ZM7.94688 13.5532L10.4469 16.0532L9.8 16.7001L7.3 14.2001L7.94688 13.5532ZM6.71875 14.3219L9.67812 17.2813L9.60625 17.3532L7.28125 19.6782C7.07188 19.8844 6.79375 20.0001 6.5 20.0001C6.20625 20.0001 5.92812 19.8844 5.71875 19.6782L4.32188 18.2813C4.11563 18.0719 4 17.7938 4 17.5001C4 17.2063 4.11563 16.9282 4.32188 16.7188L6.64375 14.3969L6.71563 14.3251L6.71875 14.3219Z" fill="black"/>
</svg>
