<svg width="24" height="24" viewBox="0 0 24 24" fill="none" xmlns="http://www.w3.org/2000/svg">
<path d="M12.6248 4.0093C12.4592 3.97492 12.2873 4.02805 12.1685 4.14992C12.0498 4.2718 11.9998 4.44367 12.0373 4.6093L12.4467 6.44992C10.1998 7.89367 9.21542 9.63117 8.99042 11.0874L8.5623 10.6562L8.49042 10.5843L7.78417 9.87805C7.59042 9.6843 7.59042 9.36555 7.78417 9.1718L9.54667 7.4093C10.1373 6.81867 10.131 5.86242 9.5373 5.27805L8.37792 4.14367C8.18105 3.95305 7.86855 3.95305 7.6748 4.1468L7.5873 4.2343C6.5248 5.2968 6.54667 6.97492 7.52792 8.01555L7.07792 8.46555C6.49355 9.04992 6.49355 9.99992 7.07792 10.5874L7.78417 11.2937L7.9623 11.4718C8.25292 11.7655 8.25292 12.2374 7.9623 12.5312C7.67167 12.8218 7.1998 12.8249 6.90605 12.5374L6.39042 12.0187C5.79355 11.4218 4.82167 11.4343 4.24355 12.0468L4.1373 12.1562C3.94667 12.3562 3.95605 12.6718 4.15605 12.8624C4.35605 13.053 4.67167 13.0437 4.8623 12.8437L4.96542 12.7343C5.15917 12.5312 5.48417 12.5249 5.68105 12.7249L6.0123 13.0562L6.01542 13.0624L6.72167 13.7687C7.0373 14.0874 7.00292 14.6093 6.64667 14.8874L6.02167 15.3749C5.9123 15.4593 5.78105 15.5062 5.64355 15.5062C5.30292 15.5062 5.02792 15.2312 5.02792 14.8905V14.4999C5.02792 14.2249 4.80292 13.9999 4.52792 13.9999C4.25292 13.9999 4.02792 14.2249 4.02792 14.4999V14.8843C4.02792 15.7749 4.75292 16.4999 5.64355 16.4999C6.00292 16.4999 6.35292 16.3812 6.6373 16.1593L7.51855 15.4749C7.8123 15.2468 8.23105 15.2718 8.49355 15.5343C8.75605 15.7968 8.78417 16.2155 8.55292 16.5093L7.86855 17.3905C7.64667 17.6749 7.52792 18.0249 7.52792 18.3843C7.52792 19.278 8.25292 19.9999 9.14355 19.9999H9.52792C9.80292 19.9999 10.0279 19.7749 10.0279 19.4999C10.0279 19.2249 9.80292 18.9999 9.52792 18.9999H9.14355C8.80292 18.9999 8.52792 18.7249 8.52792 18.3843C8.52792 18.2468 8.5748 18.1124 8.65917 18.0062L9.14667 17.3812C9.42167 17.0249 9.94667 16.9937 10.2654 17.3093L10.2685 17.3124L10.9685 18.0093L10.9717 18.0124L11.281 18.3187C11.4842 18.5218 11.4748 18.8562 11.2592 19.0468L11.1717 19.1249C10.9654 19.3093 10.9467 19.6249 11.131 19.8312C11.3154 20.0374 11.631 20.0562 11.8373 19.8718L11.9248 19.7937C12.5717 19.2218 12.5998 18.2218 11.9904 17.6124L11.681 17.303L11.5029 17.1249L11.4998 17.1218C11.2092 16.8312 11.2092 16.3593 11.4998 16.0655L11.5029 16.0624L11.506 16.0593C11.7967 15.7718 12.2685 15.7718 12.5592 16.0593L13.4467 16.9468C14.031 17.5312 14.981 17.5312 15.5685 16.9468L16.0123 16.4999C17.0529 17.4812 18.731 17.503 19.7935 16.4405L19.881 16.353C20.0748 16.1593 20.0779 15.8437 19.8842 15.6499L18.7498 14.4905C18.1654 13.8968 17.2092 13.8905 16.6185 14.4812L14.856 16.2405C14.6623 16.4343 14.3435 16.4343 14.1498 16.2405L13.4467 15.5374L13.4435 15.5343L12.9435 15.0343C14.3998 14.8093 16.1373 13.8249 17.581 11.578L19.4217 11.9874C19.5873 12.0249 19.7592 11.9749 19.881 11.8562C20.0029 11.7374 20.056 11.5655 20.0217 11.3999L19.2904 7.75617C19.5779 6.81242 19.8279 5.75617 20.0217 4.5843C20.0498 4.42492 19.9967 4.26242 19.881 4.14992C19.7654 4.03742 19.606 3.98117 19.4467 4.00617C18.2717 4.20305 17.2185 4.44992 16.2717 4.73742L12.6248 4.0093ZM9.27792 12.7499C9.27792 12.6173 9.3306 12.4901 9.42437 12.3964C9.51814 12.3026 9.64532 12.2499 9.77792 12.2499C9.91053 12.2499 10.0377 12.3026 10.1315 12.3964C10.2252 12.4901 10.2779 12.6173 10.2779 12.7499C10.2779 12.8825 10.2252 13.0097 10.1315 13.1035C10.0377 13.1972 9.91053 13.2499 9.77792 13.2499C9.64532 13.2499 9.51814 13.1972 9.42437 13.1035C9.3306 13.0097 9.27792 12.8825 9.27792 12.7499ZM11.2779 13.7499C11.4105 13.7499 11.5377 13.8026 11.6315 13.8964C11.7252 13.9901 11.7779 14.1173 11.7779 14.2499C11.7779 14.3825 11.7252 14.5097 11.6315 14.6035C11.5377 14.6972 11.4105 14.7499 11.2779 14.7499C11.1453 14.7499 11.0181 14.6972 10.9244 14.6035C10.8306 14.5097 10.7779 14.3825 10.7779 14.2499C10.7779 14.1173 10.8306 13.9901 10.9244 13.8964C11.0181 13.8026 11.1453 13.7499 11.2779 13.7499Z" fill="black"/>
</svg>
