<svg width="24" height="24" viewBox="0 0 24 24" fill="none" xmlns="http://www.w3.org/2000/svg">
<path d="M18.3157 5.95006C18.8407 5.77506 19.122 5.20944 18.947 4.68444C18.772 4.15944 18.2064 3.87819 17.6845 4.05006L14.1532 5.22819C13.7189 4.49381 12.9157 4.00006 12.0001 4.00006C10.6189 4.00006 9.50012 5.11881 9.50012 6.50006C9.50012 6.59381 9.50637 6.68444 9.51575 6.77506L5.6845 8.05006C5.1595 8.22506 4.87825 8.79069 5.05325 9.31569C5.22825 9.84069 5.79387 10.1219 6.31887 9.94694L10.5532 8.53444C10.6939 8.63444 10.8439 8.71881 11.0032 8.79069V19.0001C11.0032 19.5532 11.4501 20.0001 12.0032 20.0001H18.0001C18.5532 20.0001 19.0001 19.5532 19.0001 19.0001C19.0001 18.4469 18.5532 18.0001 18.0001 18.0001H13.0001V8.79069C13.6564 8.50319 14.1626 7.94694 14.3814 7.25944L18.3157 5.94694V5.95006ZM15.7376 13.0001L18.0001 9.11881L20.2626 13.0001H15.7376ZM18.0001 16.0001C19.9657 16.0001 21.6001 14.9376 21.9376 13.5344C22.0189 13.1907 21.9064 12.8376 21.7282 12.5313L18.7532 7.43131C18.597 7.16256 18.3095 7.00006 18.0001 7.00006C17.6907 7.00006 17.4032 7.16569 17.247 7.43131L14.272 12.5344C14.0939 12.8407 13.9814 13.1938 14.0626 13.5376C14.4001 14.9376 16.0345 16.0001 18.0001 16.0001ZM6.03762 13.1188L8.30012 17.0001H3.772L6.0345 13.1188H6.03762ZM2.10012 17.5344C2.43762 18.9376 4.072 20.0001 6.03762 20.0001C8.00325 20.0001 9.63762 18.9376 9.97512 17.5344C10.0564 17.1907 9.94387 16.8376 9.76575 16.5313L6.78762 11.4313C6.63137 11.1626 6.34387 11.0001 6.0345 11.0001C5.72512 11.0001 5.43762 11.1657 5.28137 11.4313L2.3095 16.5344C2.13137 16.8407 2.01887 17.1938 2.10012 17.5376V17.5344Z" fill="black"/>
</svg>
