<svg width="24" height="24" viewBox="0 0 24 24" fill="none" xmlns="http://www.w3.org/2000/svg">
<path d="M8.5 4C9.05313 4 9.5 4.44687 9.5 5V6.5C9.5 7.88125 10.6187 9 12 9C13.3813 9 14.5 7.88125 14.5 6.5V5C14.5 4.44687 14.9469 4 15.5 4C16.0531 4 16.5 4.44687 16.5 5V6C16.5 7.04062 16.5812 7.92187 16.7031 8.6625L6 16.3062V12.8281C6 12.2969 6.20937 11.7813 6.45937 11.3156C6.9 10.4875 7.5 8.84375 7.5 6V5C7.5 4.44687 7.94687 4 8.5 4ZM6.11875 18.6812L17.2625 10.7188C17.3562 10.9531 17.45 11.15 17.5406 11.3125C17.7906 11.7812 18 12.2969 18 12.825V18C18 19.1031 17.1031 20 16 20H8C7.13437 20 6.39687 19.45 6.11875 18.6812Z" fill="black"/>
</svg>
