<svg width="24" height="24" viewBox="0 0 24 24" fill="none" xmlns="http://www.w3.org/2000/svg">
<path d="M14 8.24375V10.5C14 11.8812 15.1187 13 16.5 13H17.5C18.8813 13 20 11.8812 20 10.5V8.24375L20.4531 8.4375C20.8344 8.6 21.275 8.425 21.4375 8.04375C21.6 7.6625 21.425 7.22187 21.0438 7.05938L19.55 6.41875C19.0219 5.56875 18.0781 5 17 5C15.9219 5 14.9781 5.56875 14.45 6.41875L12.9531 7.05938C12.5719 7.22187 12.3969 7.6625 12.5594 8.04375C12.7219 8.425 13.1625 8.6 13.5437 8.4375L13.9969 8.24375H14ZM16.5 8C16.6326 8 16.7598 8.05268 16.8536 8.14645C16.9473 8.24021 17 8.36739 17 8.5C17 8.63261 16.9473 8.75979 16.8536 8.85355C16.7598 8.94732 16.6326 9 16.5 9C16.3674 9 16.2402 8.94732 16.1464 8.85355C16.0527 8.75979 16 8.63261 16 8.5C16 8.36739 16.0527 8.24021 16.1464 8.14645C16.2402 8.05268 16.3674 8 16.5 8ZM18 8.5C18 8.36739 18.0527 8.24021 18.1464 8.14645C18.2402 8.05268 18.3674 8 18.5 8C18.6326 8 18.7598 8.05268 18.8536 8.14645C18.9473 8.24021 19 8.36739 19 8.5C19 8.63261 18.9473 8.75979 18.8536 8.85355C18.7598 8.94732 18.6326 9 18.5 9C18.3674 9 18.2402 8.94732 18.1464 8.85355C18.0527 8.75979 18 8.63261 18 8.5ZM13 9.48125C12.4156 9.39687 11.8906 9.01875 11.6406 8.4375C11.425 7.93438 11.4625 7.39062 11.6969 6.94062C11.3438 6.375 10.7156 6 10 6C9.4 6 8.85938 6.26562 8.49375 6.68438C8.15313 6.4125 7.71875 6.25 7.25 6.25C6.30937 6.25 5.52188 6.9 5.30625 7.775C5.20625 7.75938 5.10313 7.75 5 7.75C3.89688 7.75 3 8.64687 3 9.75C3 9.91563 3.02188 10.0781 3.05938 10.2344C2.42813 10.5719 2 11.2344 2 12C2 12.7656 2.42813 13.4281 3.05938 13.7656C3.02188 13.9219 3 14.0844 3 14.25C3 15.3531 3.89688 16.25 5 16.25C5.01562 16.25 5.03125 16.25 5.04688 16.25L5.59687 19.1844C5.68438 19.6562 6.1 20 6.58125 20H7.5C8.05312 20 8.5 19.5531 8.5 19V17.3219C8.86562 17.7375 9.40312 18 10 18C10.5969 18 11.1344 17.7375 11.5 17.3219V19C11.5 19.5531 11.9469 20 12.5 20H13.4187C13.9 20 14.3125 19.6562 14.4 19.1844L14.9531 16.25C14.9688 16.25 14.9844 16.25 15 16.25C16.1031 16.25 17 15.3531 17 14.25C17 14.1656 16.9937 14.0813 16.9844 14H16.5C14.5656 14 13 12.4344 13 10.5V9.48125Z" fill="black"/>
</svg>
