<svg width="24" height="24" viewBox="0 0 24 24" fill="none" xmlns="http://www.w3.org/2000/svg">
<path d="M11.9999 4.00018C12.1437 4.00018 12.2874 4.03143 12.4187 4.0908L18.3031 6.58768C18.9906 6.8783 19.5031 7.55643 19.4999 8.37518C19.4906 10.2096 19.0406 12.9439 17.5593 15.4064L21.7124 18.6596C22.0374 18.9158 22.0968 19.3877 21.8406 19.7127C21.5843 20.0377 21.1124 20.0971 20.7874 19.8408L2.28743 5.3408C1.96243 5.08455 1.90306 4.61268 2.15931 4.28768C2.41556 3.96268 2.88743 3.9033 3.21243 4.15955L6.09368 6.41893L11.5843 4.0908C11.7124 4.03143 11.8562 4.00018 11.9999 4.00018ZM4.51868 8.98455L15.6718 17.7721C14.8843 18.5221 13.9437 19.1908 12.8249 19.7252C12.3031 19.9752 11.6968 19.9752 11.1749 19.7252C6.12493 17.3064 4.69056 12.1721 4.51868 8.98455Z" fill="black"/>
</svg>
