<svg width="24" height="24" viewBox="0 0 24 24" fill="none" xmlns="http://www.w3.org/2000/svg">
<path d="M7 5C5.89688 5 5 5.89688 5 7V17C5 18.1031 5.89688 19 7 19H17C18.1031 19 19 18.1031 19 17V7C19 5.89688 18.1031 5 17 5H7ZM12.65 8.175V8.61875C12.9531 8.65625 13.2562 8.74062 13.5562 8.825C13.6156 8.84062 13.6719 8.85625 13.7312 8.875C14.0906 8.975 14.3031 9.34688 14.2031 9.70625C14.1031 10.0656 13.7312 10.275 13.3719 10.1781C13.3219 10.1656 13.275 10.15 13.225 10.1375C13.0063 10.075 12.7875 10.0156 12.5656 9.97188C12.1531 9.89375 11.675 9.93125 11.2906 10.0969C10.9469 10.2469 10.6625 10.6094 11.0531 10.8594C11.3594 11.0563 11.7344 11.1562 12.0906 11.2531C12.1656 11.2719 12.2375 11.2937 12.3094 11.3125C12.7969 11.45 13.4187 11.6281 13.8844 11.9469C14.4906 12.3625 14.775 13.0375 14.6406 13.7625C14.5125 14.4625 14.025 14.9219 13.4406 15.1594C13.1969 15.2594 12.9312 15.3219 12.6531 15.3531V15.8281C12.6531 16.2 12.35 16.5031 11.9781 16.5031C11.6063 16.5031 11.3031 16.2 11.3031 15.8281V15.2844C10.85 15.1813 10.4062 15.0375 9.96562 14.8938C9.6125 14.7781 9.41875 14.3937 9.5375 14.0406C9.65625 13.6875 10.0375 13.4938 10.3906 13.6125C10.4688 13.6375 10.5469 13.6656 10.625 13.6906C10.9781 13.8094 11.3406 13.9313 11.7031 13.9906C12.2344 14.0688 12.6594 14.0219 12.9375 13.9094C13.3125 13.7594 13.4906 13.3125 13.1219 13.0625C12.8062 12.8469 12.4156 12.7406 12.0437 12.6406C11.9719 12.6219 11.9031 12.6031 11.8313 12.5813C11.3594 12.4469 10.7687 12.2812 10.325 11.9969C9.71562 11.6062 9.40625 10.9563 9.5375 10.2344C9.6625 9.55312 10.1937 9.1 10.7562 8.85625C10.9281 8.78125 11.1125 8.72187 11.3031 8.67812V8.175C11.3031 7.80313 11.6063 7.5 11.9781 7.5C12.35 7.5 12.6531 7.80313 12.6531 8.175H12.65Z" fill="black"/>
</svg>
