<svg width="24" height="24" viewBox="0 0 24 24" fill="none" xmlns="http://www.w3.org/2000/svg">
<path d="M3.21268 4.15943C2.88768 3.90318 2.4158 3.96255 2.15955 4.28755C1.9033 4.61255 1.96268 5.08443 2.28768 5.34068L20.7877 19.8407C21.1127 20.0969 21.5846 20.0376 21.8408 19.7126C22.0971 19.3876 22.0377 18.9157 21.7127 18.6594L18.847 16.4126C19.5814 15.1094 20.0002 13.6032 20.0002 12.0001C20.0002 9.87193 19.2596 7.91568 18.0252 6.37505C17.6783 5.9438 17.0502 5.87505 16.6189 6.2188C16.1877 6.56255 16.1189 7.1938 16.4627 7.62505C17.4221 8.82505 17.9971 10.3438 17.9971 12.0001C17.9971 13.1376 17.7252 14.2126 17.2439 15.1594L16.0346 14.2094C16.3314 13.5313 16.4971 12.7844 16.4971 11.9969C16.4971 10.5876 15.9658 9.30318 15.0971 8.3313C14.7283 7.9188 14.0971 7.88443 13.6846 8.25318C13.272 8.62193 13.2377 9.25318 13.6064 9.66568C14.1627 10.2844 14.4971 11.1032 14.4971 12.0001C14.4971 12.3157 14.4564 12.6219 14.3783 12.9126L12.7033 11.6001C12.5221 10.8282 11.8283 10.2501 11.0002 10.2501C10.9939 10.2501 10.9877 10.2501 10.9846 10.2501L3.21268 4.15943ZM5.85955 10.0407C5.6283 10.6501 5.50018 11.3094 5.50018 12.0001C5.50018 13.4094 6.03143 14.6938 6.90018 15.6657C7.26893 16.0782 7.90018 16.1126 8.31268 15.7438C8.72518 15.3751 8.75955 14.7438 8.3908 14.3313C7.83455 13.7126 7.50018 12.8938 7.50018 11.9969C7.50018 11.7844 7.51893 11.5751 7.55643 11.3751L5.85955 10.0376V10.0407ZM3.03143 7.81255C2.37205 9.06255 2.00018 10.4876 2.00018 12.0001C2.00018 14.1282 2.7408 16.0844 3.97518 17.6251C4.32205 18.0563 4.95018 18.1251 5.38143 17.7813C5.81268 17.4376 5.88143 16.8063 5.53768 16.3751C4.57518 15.1751 4.00018 13.6563 4.00018 12.0001C4.00018 10.9563 4.2283 9.96568 4.63768 9.07818L3.03143 7.81255Z" fill="black"/>
</svg>
