<svg width="24" height="24" viewBox="0 0 24 24" fill="none" xmlns="http://www.w3.org/2000/svg">
<path d="M15.9813 5.18745C16.0845 4.6437 15.7313 4.12182 15.1876 4.01557C14.6438 3.90932 14.122 4.26557 14.0157 4.80932L13.9782 4.99682H11.6782C10.9876 9.08432 9.30322 11.2874 7.70322 12.4624C6.88447 13.0656 6.10322 13.3843 5.51884 13.5562C5.32197 13.6124 5.15009 13.6531 5.00322 13.6812L4.01884 18.8124C3.96259 19.1062 4.04072 19.4093 4.23134 19.6374C4.42197 19.8656 4.70322 19.9999 5.00009 19.9999H18.0001H19.0001C19.5532 19.9999 20.0001 19.5531 20.0001 18.9999C20.0001 18.4468 19.5532 17.9999 19.0001 17.9999V15.7499C19.0001 15.3656 18.7813 15.0187 18.4376 14.8499L14.6251 12.9999H12.5001C12.2251 12.9999 12.0001 12.7749 12.0001 12.4999C12.0001 12.2249 12.2251 11.9999 12.5001 11.9999H14.672L15.0563 9.99995H13.0001C12.7251 9.99995 12.5001 9.77495 12.5001 9.49995C12.5001 9.22495 12.7251 8.99995 13.0001 8.99995H15.2501L15.7907 6.18745L15.9845 5.18745H15.9813ZM5.21259 12.6062C5.22197 12.6031 5.23134 12.5999 5.24072 12.5968C5.72822 12.4531 6.40009 12.1812 7.11259 11.6593C8.45634 10.6718 9.99697 8.7562 10.6657 4.99995H7.50009C7.02197 4.99995 6.60947 5.34057 6.51884 5.81245L5.21259 12.6062Z" fill="black"/>
</svg>
