<svg width="24" height="24" viewBox="0 0 24 24" fill="none" xmlns="http://www.w3.org/2000/svg">
<path d="M7.1813 4.69369C7.3313 4.29682 7.7438 4.06244 8.16255 4.14057L10.3188 4.54369C11.4313 4.75307 12.5719 4.75307 13.6813 4.54369L15.8375 4.14057C16.2563 4.06244 16.6688 4.29682 16.8188 4.69369L17.7219 7.10619C18.0813 8.06557 18.6 8.95619 19.2563 9.74369L20.6719 11.4406C20.9438 11.7656 20.9438 12.2374 20.6719 12.5624L19.2563 14.2593C18.6 15.0468 18.0813 15.9374 17.7219 16.8968L16.8188 19.3093C16.6688 19.7062 16.2563 19.9406 15.8375 19.8624L13.6813 19.4593C12.5688 19.2499 11.4282 19.2499 10.3188 19.4593L8.16255 19.8624C7.7438 19.9406 7.3313 19.7062 7.1813 19.3093L6.27817 16.8968C5.91567 15.9374 5.39692 15.0437 4.74067 14.2562L3.32817 12.5593C3.0563 12.2343 3.0563 11.7624 3.32817 11.4374L4.7438 9.74057C5.40005 8.95307 5.9188 8.06244 6.27817 7.10307L7.1813 4.69057V4.69369ZM8.22192 6.89994L7.91567 7.71869C7.48755 8.86244 6.8688 9.92494 6.08755 10.8624L5.76255 11.2499H7.1563C7.89067 10.3874 8.45942 9.39994 8.83442 8.33119L8.91255 8.11244L8.22192 6.89994ZM9.53755 6.17807L10.2063 7.34682C11.3844 7.64369 12.6188 7.64369 13.7969 7.34682L14.4657 6.17807L14.0063 6.26557C12.6813 6.51244 11.3219 6.51244 9.99692 6.26557L9.53755 6.17807ZM15.7782 6.89994L15.0844 8.11244L15.1625 8.33119C15.5407 9.39994 16.1094 10.3874 16.8438 11.2499H18.2375L17.9157 10.8624C17.1344 9.92494 16.5157 8.86244 16.0875 7.71869L15.7813 6.89994H15.7782ZM18.2375 12.7499H16.8438C16.1063 13.6281 15.5375 14.6374 15.1688 15.7281L15.1032 15.9187L15.7782 17.1031L16.0844 16.2843C16.5125 15.1406 17.1313 14.0781 17.9125 13.1406L18.2375 12.7499ZM14.4625 17.8218L13.8532 16.7531C12.6688 16.3874 11.4063 16.3531 10.2063 16.6531L9.54067 17.8218L10 17.7374C11.325 17.4906 12.6844 17.4906 14.0094 17.7374L14.4688 17.8218H14.4625ZM8.22192 17.0999L8.91567 15.8874L8.83755 15.6687C8.45942 14.5999 7.89067 13.6124 7.15942 12.7499H5.76255L6.08442 13.1374C6.86567 14.0749 7.48442 15.1374 7.91255 16.2812L8.2188 17.0999H8.22192ZM9.03755 12.7499C9.35317 13.2187 9.62817 13.7093 9.86567 14.2218L10.7063 12.7499H9.03755ZM11.1594 14.9812C11.725 14.9343 12.2938 14.9437 12.8563 15.0124L12 13.5124L11.1594 14.9812ZM14.1438 14.2406C14.3813 13.7218 14.6563 13.2249 14.9719 12.7499H13.2938L14.1469 14.2406H14.1438ZM14.9625 11.2499C14.6469 10.7812 14.3719 10.2906 14.1344 9.77807L13.2938 11.2499H14.9625ZM12.8344 9.03119C12.2813 9.08432 11.7219 9.08432 11.1688 9.03119L12 10.4874L12.8344 9.03119ZM9.8688 9.77807C9.6313 10.2906 9.35317 10.7812 9.04067 11.2499H10.7094L9.8688 9.77807Z" fill="black"/>
</svg>
