<svg width="24" height="24" viewBox="0 0 24 24" fill="none" xmlns="http://www.w3.org/2000/svg">
<path d="M12 7.625C11.569 7.625 11.1557 7.4538 10.851 7.14905C10.5462 6.8443 10.375 6.43098 10.375 6C10.375 5.56902 10.5462 5.1557 10.851 4.85095C11.1557 4.5462 11.569 4.375 12 4.375C12.431 4.375 12.8443 4.5462 13.149 4.85095C13.4538 5.1557 13.625 5.56902 13.625 6C13.625 6.43098 13.4538 6.8443 13.149 7.14905C12.8443 7.4538 12.431 7.625 12 7.625ZM12 19C11.7348 19 11.4804 18.8946 11.2929 18.7071C11.1054 18.5196 11 18.2652 11 18C11 17.7348 11.1054 17.4804 11.2929 17.2929C11.4804 17.1054 11.7348 17 12 17C12.2652 17 12.5196 17.1054 12.7071 17.2929C12.8946 17.4804 13 17.7348 13 18C13 18.2652 12.8946 18.5196 12.7071 18.7071C12.5196 18.8946 12.2652 19 12 19ZM18 13C17.7348 13 17.4804 12.8946 17.2929 12.7071C17.1054 12.5196 17 12.2652 17 12C17 11.7348 17.1054 11.4804 17.2929 11.2929C17.4804 11.1054 17.7348 11 18 11C18.2652 11 18.5196 11.1054 18.7071 11.2929C18.8946 11.4804 19 11.7348 19 12C19 12.2652 18.8946 12.5196 18.7071 12.7071C18.5196 12.8946 18.2652 13 18 13ZM5 12C5 11.7348 5.10536 11.4804 5.29289 11.2929C5.48043 11.1054 5.73478 11 6 11C6.26522 11 6.51957 11.1054 6.70711 11.2929C6.89464 11.4804 7 11.7348 7 12C7 12.2652 6.89464 12.5196 6.70711 12.7071C6.51957 12.8946 6.26522 13 6 13C5.73478 13 5.48043 12.8946 5.29289 12.7071C5.10536 12.5196 5 12.2652 5 12ZM17.4812 8.99375C17.153 9.32196 16.7079 9.50634 16.2437 9.50634C15.7796 9.50634 15.3345 9.32196 15.0063 8.99375C14.678 8.66554 14.4937 8.2204 14.4937 7.75625C14.4937 7.2921 14.678 6.84696 15.0063 6.51875C15.1688 6.35624 15.3617 6.22733 15.574 6.13938C15.7864 6.05143 16.0139 6.00616 16.2437 6.00616C16.4736 6.00616 16.7011 6.05143 16.9135 6.13938C17.1258 6.22733 17.3187 6.35624 17.4812 6.51875C17.6438 6.68126 17.7727 6.87419 17.8606 7.08652C17.9486 7.29885 17.9938 7.52642 17.9938 7.75625C17.9938 7.98607 17.9486 8.21365 17.8606 8.42598C17.7727 8.63831 17.6438 8.83124 17.4812 8.99375ZM7.05 16.95C6.95705 16.857 6.88332 16.7467 6.83301 16.6253C6.78271 16.5038 6.75681 16.3736 6.75681 16.2422C6.75681 16.1107 6.78271 15.9806 6.83301 15.8591C6.88332 15.7377 6.95705 15.6273 7.05 15.5344C7.14295 15.4414 7.2533 15.3677 7.37475 15.3174C7.49619 15.2671 7.62636 15.2412 7.75781 15.2412C7.88927 15.2412 8.01943 15.2671 8.14088 15.3174C8.26232 15.3677 8.37267 15.4414 8.46562 15.5344C8.55858 15.6273 8.63231 15.7377 8.68261 15.8591C8.73292 15.9806 8.75881 16.1107 8.75881 16.2422C8.75881 16.3736 8.73292 16.5038 8.68261 16.6253C8.63231 16.7467 8.55858 16.857 8.46562 16.95C8.37267 17.043 8.26232 17.1167 8.14088 17.167C8.01943 17.2173 7.88927 17.2432 7.75781 17.2432C7.62636 17.2432 7.49619 17.2173 7.37475 17.167C7.2533 17.1167 7.14295 17.043 7.05 16.95ZM15.5344 16.95C15.4414 16.857 15.3677 16.7467 15.3174 16.6253C15.2671 16.5038 15.2412 16.3736 15.2412 16.2422C15.2412 16.1107 15.2671 15.9806 15.3174 15.8591C15.3677 15.7377 15.4414 15.6273 15.5344 15.5344C15.6273 15.4414 15.7377 15.3677 15.8591 15.3174C15.9806 15.2671 16.1107 15.2412 16.2422 15.2412C16.3736 15.2412 16.5038 15.2671 16.6253 15.3174C16.7467 15.3677 16.857 15.4414 16.95 15.5344C17.043 15.6273 17.1167 15.7377 17.167 15.8591C17.2173 15.9806 17.2432 16.1107 17.2432 16.2422C17.2432 16.3736 17.2173 16.5038 17.167 16.6253C17.1167 16.7467 17.043 16.857 16.95 16.95C16.857 17.043 16.7467 17.1167 16.6253 17.167C16.5038 17.2173 16.3736 17.2432 16.2422 17.2432C16.1107 17.2432 15.9806 17.2173 15.8591 17.167C15.7377 17.1167 15.6273 17.043 15.5344 16.95ZM6.69688 6.69688C6.8362 6.55755 7.0016 6.44703 7.18364 6.37163C7.36567 6.29623 7.56078 6.25742 7.75781 6.25742C7.95485 6.25742 8.14995 6.29623 8.33199 6.37163C8.51402 6.44703 8.67943 6.55755 8.81875 6.69688C8.95807 6.8362 9.06859 7.0016 9.14399 7.18364C9.2194 7.36567 9.2582 7.56078 9.2582 7.75781C9.2582 7.95485 9.2194 8.14995 9.14399 8.33199C9.06859 8.51402 8.95807 8.67943 8.81875 8.81875C8.67943 8.95807 8.51402 9.06859 8.33199 9.14399C8.14995 9.2194 7.95485 9.2582 7.75781 9.2582C7.56078 9.2582 7.36567 9.2194 7.18364 9.14399C7.0016 9.06859 6.8362 8.95807 6.69688 8.81875C6.55755 8.67943 6.44703 8.51402 6.37163 8.33199C6.29623 8.14995 6.25742 7.95485 6.25742 7.75781C6.25742 7.56078 6.29623 7.36567 6.37163 7.18364C6.44703 7.0016 6.55755 6.8362 6.69688 6.69688Z" fill="black"/>
</svg>
