<svg width="24" height="24" viewBox="0 0 24 24" fill="none" xmlns="http://www.w3.org/2000/svg">
<path d="M10.5 5.75C10.5 5.6125 10.6125 5.5 10.75 5.5H13.25C13.3875 5.5 13.5 5.6125 13.5 5.75V8H10.5V5.75ZM16 8H15V5.75C15 4.78438 14.2156 4 13.25 4H10.75C9.78437 4 9 4.78438 9 5.75V8H8C6.89688 8 6 8.89687 6 10V17C6 18.1031 6.89688 19 8 19C8 19.5531 8.44688 20 9 20C9.55312 20 10 19.5531 10 19H14C14 19.5531 14.4469 20 15 20C15.5531 20 16 19.5531 16 19C17.1031 19 18 18.1031 18 17V10C18 8.89687 17.1031 8 16 8ZM9.5 11H14.5C14.775 11 15 11.225 15 11.5C15 11.775 14.775 12 14.5 12H9.5C9.225 12 9 11.775 9 11.5C9 11.225 9.225 11 9.5 11ZM9.5 15H14.5C14.775 15 15 15.225 15 15.5C15 15.775 14.775 16 14.5 16H9.5C9.225 16 9 15.775 9 15.5C9 15.225 9.225 15 9.5 15Z" fill="black"/>
</svg>
