<svg width="24" height="24" viewBox="0 0 24 24" fill="none" xmlns="http://www.w3.org/2000/svg">
<path d="M17.7814 4.2187L18.7814 5.2187L19.7814 6.2187C20.0752 6.51245 20.0752 6.98745 19.7814 7.27808C19.4877 7.5687 19.0127 7.57183 18.7221 7.27808L18.2533 6.80933L17.0596 7.99995L18.7783 9.7187C19.0721 10.0125 19.0721 10.4875 18.7783 10.7781C18.4846 11.0687 18.0096 11.0718 17.7189 10.7781L15.4689 8.52808L13.2189 6.2812C12.9252 5.98745 12.9252 5.51245 13.2189 5.22183C13.5127 4.9312 13.9877 4.92808 14.2783 5.22183L15.9971 6.94058L17.1908 5.74995L16.7189 5.2812C16.4252 4.98745 16.4252 4.51245 16.7189 4.22183C17.0127 3.9312 17.4877 3.92808 17.7783 4.22183L17.7814 4.2187ZM10.5721 8.86558L12.4814 6.9562C12.4908 6.96558 12.5002 6.97808 12.5127 6.98745L13.0127 7.48745L14.7627 9.23745L16.5127 10.9875L17.0127 11.4875C17.0221 11.4968 17.0314 11.5062 17.0439 11.5187L11.0752 17.4875C10.7471 17.8156 10.3033 18 9.8377 18H7.05957L5.28145 19.7812C4.9877 20.075 4.5127 20.075 4.22207 19.7812C3.93145 19.4875 3.92832 19.0125 4.22207 18.7218L6.00332 16.9406V14.1656C6.00332 13.7 6.1877 13.2562 6.51582 12.9281L7.86895 11.575L9.6502 13.3562C9.84395 13.55 10.1627 13.55 10.3564 13.3562C10.5502 13.1625 10.5502 12.8437 10.3564 12.65L8.5752 10.8687L9.86895 9.57495L11.6502 11.3562C11.8439 11.55 12.1627 11.55 12.3564 11.3562C12.5502 11.1625 12.5502 10.8437 12.3564 10.65L10.5752 8.8687L10.5721 8.86558Z" fill="black"/>
</svg>
