<svg width="24" height="24" viewBox="0 0 24 24" fill="none" xmlns="http://www.w3.org/2000/svg">
<path d="M14.4563 5.23432C14.7406 4.93432 15.2156 4.92182 15.5156 5.2062L19.9438 9.41245C20.5656 10.0031 20.5656 10.9968 19.9438 11.5874L15.5156 15.7937C15.2156 16.0781 14.7406 16.0656 14.4563 15.7656C14.1719 15.4656 14.1844 14.9906 14.4844 14.7062L18.9125 10.4999L14.4844 6.2937C14.1844 6.00932 14.1719 5.53432 14.4563 5.23432ZM10 5.99995C10 5.6062 10.2312 5.24682 10.5938 5.08745C10.9563 4.92807 11.375 4.9937 11.6687 5.2562L16.6687 9.7562C16.8781 9.94682 17 10.2156 17 10.4999C17 10.7843 16.8812 11.0531 16.6687 11.2437L11.6687 15.7437C11.375 16.0093 10.9531 16.0749 10.5938 15.9124C10.2344 15.7499 10 15.3937 10 14.9999V12.9999H9C7.34375 12.9999 6 14.3437 6 15.9999C6 16.9499 6.4 17.4968 6.69375 17.7718C6.86562 17.9312 7 18.1468 7 18.3812C7 18.7218 6.725 18.9968 6.38438 18.9968C6.29688 18.9968 6.20937 18.9781 6.13125 18.9374C5.54688 18.6218 3 17.0406 3 13.4999C3 10.4624 5.4625 7.99995 8.5 7.99995H10V5.99995Z" fill="black"/>
</svg>
