<svg width="24" height="24" viewBox="0 0 24 24" fill="none" xmlns="http://www.w3.org/2000/svg">
<path d="M5.29365 4.29376C5.68428 3.90314 6.31865 3.90314 6.70928 4.29376L9.70928 7.29376C10.0999 7.68439 10.0999 8.31876 9.70928 8.70939C9.31865 9.10001 8.68428 9.10001 8.29365 8.70939L6.9999 7.41564V15C6.9999 16.1031 7.89678 17 8.9999 17C10.103 17 10.9999 16.1031 10.9999 15V9.00001C10.9999 6.79064 12.7905 5.00001 14.9999 5.00001C17.2093 5.00001 18.9999 6.79064 18.9999 9.00001V16.5844L20.2937 15.2906C20.6843 14.9 21.3187 14.9 21.7093 15.2906C22.0999 15.6813 22.0999 16.3156 21.7093 16.7063L18.7093 19.7063C18.3187 20.0969 17.6843 20.0969 17.2937 19.7063L14.2937 16.7063C13.903 16.3156 13.903 15.6813 14.2937 15.2906C14.6843 14.9 15.3187 14.9 15.7093 15.2906L16.9999 16.5844V9.00001C16.9999 7.89689 16.103 7.00001 14.9999 7.00001C13.8968 7.00001 12.9999 7.89689 12.9999 9.00001V15C12.9999 17.2094 11.2093 19 8.9999 19C6.79053 19 4.9999 17.2094 4.9999 15V7.41564L3.70615 8.70626C3.31553 9.09689 2.68115 9.09689 2.29053 8.70626C1.8999 8.31564 1.8999 7.68126 2.29053 7.29064L5.29053 4.29064L5.29365 4.29376Z" fill="black"/>
</svg>
