<svg width="24" height="24" viewBox="0 0 24 24" fill="none" xmlns="http://www.w3.org/2000/svg">
<path d="M7 5C5.89688 5 5 5.89688 5 7V17C5 18.1031 5.89688 19 7 19H17C18.1031 19 19 18.1031 19 17V7C19 5.89688 18.1031 5 17 5H7ZM8.71563 9.27187L10 13.2906L11.2844 9.27187C11.3844 8.9625 11.6719 8.75 12 8.75C12.3281 8.75 12.6156 8.95937 12.7156 9.27187L14 13.2906L15.2844 9.27187C15.4094 8.87812 15.8312 8.65937 16.2281 8.7875C16.625 8.91562 16.8406 9.33437 16.7125 9.73125L14.7125 15.9812C14.6125 16.2906 14.325 16.5031 13.9969 16.5031C13.6687 16.5031 13.3813 16.2937 13.2812 15.9812L12 11.9594L10.7156 15.9781C10.6156 16.2875 10.3281 16.5 10 16.5C9.67188 16.5 9.38438 16.2906 9.28438 15.9781L7.28437 9.72813C7.15937 9.33438 7.375 8.9125 7.76875 8.78438C8.1625 8.65625 8.58438 8.875 8.7125 9.26875L8.71563 9.27187Z" fill="black"/>
</svg>
