<svg width="24" height="24" viewBox="0 0 24 24" fill="none" xmlns="http://www.w3.org/2000/svg">
<path d="M10 8.80004C10 8.00316 9.6125 6.70004 8.14062 5.24066C7.84688 4.95004 7.375 4.97191 7.08437 5.26566L6.8 5.55004L5.65 4.39691C5.5 4.24691 5.3 4.16566 5.1 4.16879C4.95312 4.16879 4.80625 4.21879 4.68125 4.31566C3.5625 5.18441 2 6.88441 2 8.80004C2 9.03754 2.02188 9.27191 2.0625 9.50004H4.4875C4.72812 8.77191 5.40937 8.10629 5.76875 7.79379C5.90313 7.67816 6.09687 7.67816 6.23125 7.79379C6.59375 8.10629 7.275 8.77191 7.5125 9.50004H9.9375C9.97813 9.27191 10 9.03754 10 8.80004ZM7.62813 14.3063L9.16563 12H9.25C9.66563 12 10 11.6657 10 11.25C10 10.8344 9.66563 10.5 9.25 10.5H2.75C2.33437 10.5 2 10.8344 2 11.25C2 11.5469 2.17188 11.8032 2.42188 11.925L2.08438 13.7813C2.02813 14.0938 2 14.4094 2 14.725V14.9438C2 17.7375 4.2625 20 7.05625 20C8.6 20 10.0594 19.2938 11.0188 18.0813L18.7 8.37816C18.8906 8.13754 19.1781 8.00004 19.4844 8.00004H21.4906C21.7719 8.00004 22 7.77191 22 7.49066C22 7.33754 21.9312 7.19379 21.8156 7.09691L21.0562 6.46254C20.6969 6.16254 20.2437 6.00004 19.775 6.00004H18.8281C18.2969 6.00004 17.7875 6.20941 17.4125 6.58441L16.0312 7.96879L15.7812 7.71879C15.4875 7.42504 15.0125 7.42504 14.7219 7.71879C14.4313 8.01254 14.4281 8.48754 14.7219 8.77816L14.9719 9.02816L14.5312 9.46879L14.2812 9.21879C13.9875 8.92504 13.5125 8.92504 13.2219 9.21879C12.9313 9.51254 12.9281 9.98754 13.2219 10.2782L13.4719 10.5282L13.0312 10.9688L12.7812 10.7188C12.4875 10.425 12.0125 10.425 11.7219 10.7188C11.4313 11.0125 11.4281 11.4875 11.7219 11.7782L11.9719 12.0282L8.70625 15.2938C8.575 15.425 8.39375 15.5 8.20625 15.5C7.81563 15.5 7.5 15.1844 7.5 14.7938V14.7344C7.5 14.5844 7.54375 14.4344 7.62813 14.3094V14.3063ZM6.5 12.75C6.5 12.949 6.42098 13.1397 6.28033 13.2804C6.13968 13.421 5.94891 13.5 5.75 13.5C5.55109 13.5 5.36032 13.421 5.21967 13.2804C5.07902 13.1397 5 12.949 5 12.75C5 12.5511 5.07902 12.3604 5.21967 12.2197C5.36032 12.0791 5.55109 12 5.75 12C5.94891 12 6.13968 12.0791 6.28033 12.2197C6.42098 12.3604 6.5 12.5511 6.5 12.75ZM4.75 14.75C4.94891 14.75 5.13968 14.8291 5.28033 14.9697C5.42098 15.1104 5.5 15.3011 5.5 15.5C5.5 15.699 5.42098 15.8897 5.28033 16.0304C5.13968 16.171 4.94891 16.25 4.75 16.25C4.55109 16.25 4.36032 16.171 4.21967 16.0304C4.07902 15.8897 4 15.699 4 15.5C4 15.3011 4.07902 15.1104 4.21967 14.9697C4.36032 14.8291 4.55109 14.75 4.75 14.75Z" fill="black"/>
</svg>
