<svg width="24" height="24" viewBox="0 0 24 24" fill="none" xmlns="http://www.w3.org/2000/svg">
<path d="M10.6469 14.6469L9.65623 13.6562C8.59685 12.5969 7.99998 11.1562 7.99998 9.65625C7.99998 6.53125 10.5312 4 13.6562 4H14C16.8156 4 19.1812 5.94063 19.825 8.55625C19.8812 8.78438 19.7 9 19.4656 9C19.3437 9 19.2312 8.94063 19.1562 8.84688C18.3406 7.84063 17.1093 7.25 15.8062 7.25C13.4281 7.25 11.5 9.17813 11.5 11.5563V11.8625C11.5 12.5094 11.6625 13.1031 11.8812 13.6938C11.95 13.8813 11.9094 14.0938 11.7656 14.2344L11.3531 14.6469C11.1594 14.8406 10.8406 14.8406 10.6469 14.6469ZM7.78123 13.7188L8.53123 14.4688L9.53123 15.4688L10.2812 16.2188C10.575 16.5125 10.575 16.9875 10.2812 17.2781L9.78123 17.7781C9.48748 18.0719 9.01248 18.0719 8.72185 17.7781L8.5031 17.5594L6.28123 19.7812C5.98748 20.075 5.51248 20.075 5.22185 19.7812L4.21873 18.7812C3.92498 18.4875 3.92498 18.0125 4.21873 17.7219L6.43748 15.5031L6.21873 15.2844C5.92498 14.9906 5.92498 14.5156 6.21873 14.225L6.71873 13.725C7.01248 13.4313 7.48748 13.4313 7.7781 13.725L7.78123 13.7188Z" fill="black"/>
</svg>
