<svg width="24" height="24" viewBox="0 0 24 24" fill="none" xmlns="http://www.w3.org/2000/svg">
<path d="M4.74999 11.2L4.29061 10.8406C4.03749 10.6437 3.93749 10.3094 4.04061 10.0062C4.14374 9.70312 4.42811 9.5 4.74999 9.5H5.33436H5.41249H5.41561H9.70311L11.0812 5.1625L11.0844 5.15313L11.125 5.02813L11.2875 4.52188C11.3844 4.2125 11.675 4 12 4C12.325 4 12.6156 4.2125 12.7156 4.52188L12.875 5.02813L12.9156 5.15313L12.9187 5.1625L14.3 9.5H18.5844H18.5875H18.6656H19.25C19.5719 9.5 19.8562 9.70312 19.9594 10.0062C20.0625 10.3094 19.9625 10.6437 19.7094 10.8406L19.25 11.2L19.1875 11.2469L19.1844 11.25L15.6219 14.0219L17.0094 18.3813L17.0125 18.3938L17.0562 18.5344L17.2125 19.025C17.3125 19.3375 17.1969 19.6812 16.9281 19.8687C16.6594 20.0562 16.2969 20.0469 16.0375 19.8469L15.6312 19.5312L15.5156 19.4406L15.5062 19.4312L12 16.7L8.49374 19.4281L8.48436 19.4375L8.36874 19.5281L7.96249 19.8438C7.70311 20.0469 7.34374 20.0563 7.07186 19.8656C6.79999 19.675 6.68749 19.3375 6.78749 19.0219L6.94374 18.5312L6.98749 18.3906L6.99061 18.3781L8.37811 14.0188L4.81561 11.25L4.81249 11.2469L4.74999 11.2ZM12 14.4844L13.075 15.3188L14.5719 16.4812L13.9562 14.55L13.5875 13.3875L14.55 12.6375L16.3344 11.25H14.3H13.0187L12.6312 10.0312L12 8.04688V14.4844Z" fill="black"/>
</svg>
