<svg width="24" height="24" viewBox="0 0 24 24" fill="none" xmlns="http://www.w3.org/2000/svg">
<path d="M7 5C5.89688 5 5 5.89688 5 7V17C5 18.1031 5.89688 19 7 19H17C18.1031 19 19 18.1031 19 17V7C19 5.89688 18.1031 5 17 5H7ZM12 9C12.2094 9 12.4063 9.0875 12.55 9.24062L15.8 12.7406C16.0031 12.9594 16.0562 13.2781 15.9375 13.55C15.8188 13.8219 15.5469 14 15.25 14H8.75C8.45312 14 8.18125 13.8219 8.0625 13.55C7.94375 13.2781 7.99688 12.9594 8.2 12.7406L11.45 9.24062C11.5906 9.0875 11.7906 9 12 9Z" fill="black"/>
</svg>
