<svg width="24" height="24" viewBox="0 0 24 24" fill="none" xmlns="http://www.w3.org/2000/svg">
<path d="M10.9999 4C10.4468 4 9.99994 4.44687 9.99994 5C9.99994 5.55313 10.4468 6 10.9999 6H11.9999L10.1999 8.4C9.97181 8.70312 9.93744 9.10938 10.1062 9.44688C10.2749 9.78438 10.6218 10 10.9999 10H13.9999C14.5531 10 14.9999 9.55312 14.9999 9C14.9999 8.44688 14.5531 8 13.9999 8H12.9999L14.7999 5.6C15.0281 5.29688 15.0624 4.89062 14.8937 4.55313C14.7249 4.21563 14.3781 4 13.9999 4H10.9999ZM14.9999 11C14.4468 11 13.9999 11.4469 13.9999 12C13.9999 12.5531 14.4468 13 14.9999 13H15.9999L14.1999 15.4C13.9718 15.7031 13.9374 16.1094 14.1062 16.4469C14.2749 16.7844 14.6218 17 14.9999 17H17.9999C18.5531 17 18.9999 16.5531 18.9999 16C18.9999 15.4469 18.5531 15 17.9999 15H16.9999L18.7999 12.6C19.0281 12.2969 19.0624 11.8906 18.8937 11.5531C18.7249 11.2156 18.3781 11 17.9999 11H14.9999ZM5.99994 12C5.44681 12 4.99994 12.4469 4.99994 13C4.99994 13.5531 5.44681 14 5.99994 14H8.86556L5.23119 18.3594C4.98431 18.6562 4.92806 19.0719 5.09369 19.425C5.25931 19.7781 5.61244 20 5.99994 20H10.9999C11.5531 20 11.9999 19.5531 11.9999 19C11.9999 18.4469 11.5531 18 10.9999 18H8.13431L11.7687 13.6406C12.0156 13.3438 12.0718 12.9281 11.9062 12.575C11.7406 12.2219 11.3874 12 10.9999 12H5.99994Z" fill="black"/>
</svg>
