<svg width="24" height="24" viewBox="0 0 24 24" fill="none" xmlns="http://www.w3.org/2000/svg">
<path d="M10 8.79931C10 8.00243 9.6125 6.69931 8.14062 5.23993C7.84688 4.94931 7.375 4.97118 7.08437 5.26493L6.8 5.54931L5.65 4.39618C5.5 4.24618 5.3 4.16493 5.1 4.16806C4.95312 4.16806 4.80625 4.21806 4.68125 4.31493C3.5625 5.18368 2 6.88368 2 8.79931C2 9.03681 2.02188 9.27118 2.0625 9.49931H4.4875C4.72812 8.77118 5.40937 8.10556 5.76875 7.79306C5.90313 7.67743 6.09687 7.67743 6.23125 7.79306C6.59375 8.10556 7.275 8.77118 7.5125 9.49931H9.9375C9.97813 9.27118 10 9.03681 10 8.79931ZM7.62813 14.3056L9.16563 11.9993H9.25C9.66563 11.9993 10 11.6649 10 11.2493C10 10.8337 9.66563 10.4993 9.25 10.4993H2.75C2.33437 10.4993 2 10.8337 2 11.2493C2 11.5462 2.17188 11.8024 2.42188 11.9243L2.08438 13.7806C2.02813 14.0931 2 14.4087 2 14.7243V14.9431C2 17.7368 4.2625 19.9993 7.05625 19.9993C8.6 19.9993 10.0594 19.2931 11.0188 18.0806L18.7 8.37743C18.8906 8.13681 19.1781 7.99931 19.4844 7.99931H21.4906C21.7719 7.99931 22 7.77118 22 7.48993C22 7.33681 21.9312 7.19306 21.8156 7.09618L21.0562 6.46181C20.6969 6.16181 20.2437 5.99931 19.775 5.99931H18.8281C18.2969 5.99931 17.7875 6.20868 17.4125 6.58368L16.0312 7.96806L15.7812 7.71806C15.4875 7.42431 15.0125 7.42431 14.7219 7.71806C14.4313 8.01181 14.4281 8.48681 14.7219 8.77743L14.9719 9.02743L14.5312 9.46806L14.2812 9.21806C13.9875 8.92431 13.5125 8.92431 13.2219 9.21806C12.9313 9.51181 12.9281 9.98681 13.2219 10.2774L13.4719 10.5274L13.0312 10.9681L12.7812 10.7181C12.4875 10.4243 12.0125 10.4243 11.7219 10.7181C11.4313 11.0118 11.4281 11.4868 11.7219 11.7774L11.9719 12.0274L8.70625 15.2931C8.575 15.4243 8.39375 15.4993 8.20625 15.4993C7.81563 15.4993 7.5 15.1837 7.5 14.7931V14.7337C7.5 14.5837 7.54375 14.4337 7.62813 14.3087V14.3056ZM6.5 12.7493C6.5 12.9482 6.42098 13.139 6.28033 13.2796C6.13968 13.4203 5.94891 13.4993 5.75 13.4993C5.55109 13.4993 5.36032 13.4203 5.21967 13.2796C5.07902 13.139 5 12.9482 5 12.7493C5 12.5504 5.07902 12.3596 5.21967 12.219C5.36032 12.0783 5.55109 11.9993 5.75 11.9993C5.94891 11.9993 6.13968 12.0783 6.28033 12.219C6.42098 12.3596 6.5 12.5504 6.5 12.7493ZM4.75 14.7493C4.94891 14.7493 5.13968 14.8283 5.28033 14.969C5.42098 15.1096 5.5 15.3004 5.5 15.4993C5.5 15.6982 5.42098 15.889 5.28033 16.0296C5.13968 16.1703 4.94891 16.2493 4.75 16.2493C4.55109 16.2493 4.36032 16.1703 4.21967 16.0296C4.07902 15.889 4 15.6982 4 15.4993C4 15.3004 4.07902 15.1096 4.21967 14.969C4.36032 14.8283 4.55109 14.7493 4.75 14.7493Z" fill="black"/>
</svg>
