<svg width="24" height="24" viewBox="0 0 24 24" fill="none" xmlns="http://www.w3.org/2000/svg">
<path d="M16.2189 4.21885C16.5127 3.9251 16.9877 3.9251 17.2783 4.21885L19.7783 6.71885C20.0721 7.0126 20.0721 7.4876 19.7783 7.77822L18.7971 8.75947C18.3252 9.23135 17.6846 9.49697 17.0158 9.49697C16.5939 9.49697 16.1971 9.39385 15.8471 9.20947L13.2377 11.8188L14.7064 13.2876C15.0596 13.6407 15.0971 14.197 14.8002 14.5938L11.0502 19.5938C10.8752 19.8251 10.6096 19.972 10.3221 19.9907C10.0346 20.0095 9.75018 19.9063 9.54393 19.7001L4.29393 14.4501C4.08768 14.2532 3.98143 13.9688 4.00331 13.6782C4.02518 13.3876 4.16893 13.122 4.40018 12.9501L9.40018 9.2001C9.79706 8.9001 10.3564 8.94072 10.7064 9.29385L12.1752 10.7626L14.7846 8.15322C14.6002 7.80322 14.4971 7.40635 14.4971 6.98447C14.4971 6.31572 14.7627 5.6751 15.2346 5.20322L16.2189 4.21885ZM16.7502 5.80947L16.2971 6.2626C16.1064 6.45322 16.0002 6.7126 16.0002 6.98135C16.0002 7.54385 16.4564 8.0001 17.0189 8.0001C17.2877 8.0001 17.5471 7.89385 17.7377 7.70322L18.1908 7.2501L16.7502 5.80947ZM10.3533 12.3532C10.5471 12.1595 10.5471 11.8407 10.3533 11.647C10.1596 11.4532 9.84081 11.4532 9.64706 11.647L7.14706 14.147C6.95331 14.3407 6.95331 14.6595 7.14706 14.8532C7.34081 15.047 7.65956 15.047 7.85331 14.8532L10.3533 12.3532ZM12.3533 14.3532C12.5471 14.1595 12.5471 13.8407 12.3533 13.647C12.1596 13.4532 11.8408 13.4532 11.6471 13.647L9.14706 16.147C8.95331 16.3407 8.95331 16.6595 9.14706 16.8532C9.34081 17.047 9.65956 17.047 9.85331 16.8532L12.3533 14.3532Z" fill="black"/>
</svg>
