<svg width="24" height="24" viewBox="0 0 24 24" fill="none" xmlns="http://www.w3.org/2000/svg">
<path d="M6.50016 4C6.09703 4 5.73141 4.24375 5.57828 4.61563L3.49391 9.61562L3.07828 10.6156C2.86578 11.125 3.10641 11.7094 3.61578 11.9219C4.12516 12.1344 4.70953 11.8938 4.92203 11.3844L5.08453 11H7.91891L8.07828 11.3844C8.29078 11.8938 8.87516 12.1344 9.38453 11.9219C9.89391 11.7094 10.1345 11.125 9.92203 10.6156L9.50641 9.61562L7.42203 4.61563C7.26891 4.24375 6.90328 4 6.50016 4ZM7.08453 9H5.91578L6.50016 7.6L7.08453 9ZM11.0002 5V8V11C11.0002 11.5531 11.447 12 12.0002 12H14.5002C15.8814 12 17.0002 10.8813 17.0002 9.5C17.0002 8.77812 16.6939 8.13125 16.2064 7.675C16.3939 7.325 16.5002 6.925 16.5002 6.5C16.5002 5.11875 15.3814 4 14.0002 4H12.0002C11.447 4 11.0002 4.44687 11.0002 5ZM14.0002 7H13.0002V6H14.0002C14.2752 6 14.5002 6.225 14.5002 6.5C14.5002 6.775 14.2752 7 14.0002 7ZM13.0002 9H14.0002H14.5002C14.7752 9 15.0002 9.225 15.0002 9.5C15.0002 9.775 14.7752 10 14.5002 10H13.0002V9ZM20.7064 13.7063C21.097 13.3156 21.097 12.6812 20.7064 12.2906C20.3158 11.9 19.6814 11.9 19.2908 12.2906L14.0002 17.5844L11.7064 15.2906C11.3158 14.9 10.6814 14.9 10.2908 15.2906C9.90016 15.6812 9.90016 16.3156 10.2908 16.7063L13.2908 19.7063C13.6814 20.0969 14.3158 20.0969 14.7064 19.7063L20.7064 13.7063Z" fill="black"/>
</svg>
