<svg width="24" height="24" viewBox="0 0 24 24" fill="none" xmlns="http://www.w3.org/2000/svg">
<path d="M12.9032 4.5625C12.7375 4.21875 12.3875 4 12.0032 4C11.6188 4 11.2719 4.21875 11.1032 4.5625L9.09378 8.69688L4.60628 9.35938C4.23128 9.41563 3.91878 9.67812 3.80316 10.0375C3.68753 10.3969 3.78128 10.7937 4.05003 11.0594L7.30628 14.2812L6.53753 18.8344C6.47503 19.2094 6.63128 19.5906 6.94066 19.8125C7.25003 20.0344 7.65941 20.0625 7.99691 19.8844L12.0063 17.7437L16.0157 19.8844C16.3532 20.0625 16.7625 20.0375 17.0719 19.8125C17.3813 19.5875 17.5375 19.2094 17.475 18.8344L16.7032 14.2812L19.9594 11.0594C20.2282 10.7937 20.325 10.3969 20.2063 10.0375C20.0875 9.67812 19.7782 9.41563 19.4032 9.35938L14.9125 8.69688L12.9032 4.5625Z" fill="black"/>
</svg>
