<svg width="24" height="24" viewBox="0 0 24 24" fill="none" xmlns="http://www.w3.org/2000/svg">
<path d="M17 19C18.1031 19 19 18.1031 19 17V7C19 5.89688 18.1031 5 17 5H7C5.89688 5 5 5.89688 5 7V17C5 18.1031 5.89688 19 7 19H17ZM15 10.2063V14.5C15 14.775 14.775 15 14.5 15H10.2063C9.81563 15 9.5 14.6844 9.5 14.2937C9.5 14.1062 9.575 13.925 9.70625 13.7937L10.75 12.75L8.67812 10.6781C8.5625 10.5625 8.5 10.4094 8.5 10.25C8.5 10.0906 8.5625 9.9375 8.67812 9.82188L9.825 8.675C9.9375 8.5625 10.0906 8.49687 10.2531 8.49687C10.4156 8.49687 10.5656 8.55938 10.6813 8.675L12.75 10.75L13.7937 9.70625C13.925 9.575 14.1062 9.5 14.2937 9.5C14.6844 9.5 15 9.81563 15 10.2063Z" fill="black"/>
</svg>
