<svg width="24" height="24" viewBox="0 0 24 24" fill="none" xmlns="http://www.w3.org/2000/svg">
<path d="M16.6187 5.075C16.9937 4.91875 17.4219 5.00625 17.7094 5.29063L19.7094 7.29063C19.8969 7.47813 20.0031 7.73125 20.0031 7.99688C20.0031 8.2625 19.8969 8.51563 19.7094 8.70313L17.7094 10.7031C17.4219 10.9906 16.9937 11.075 16.6187 10.9187C16.2437 10.7625 16 10.4 16 9.99375V9H15C14.6844 9 14.3875 9.14688 14.2 9.4L12.875 11.1656L11.625 9.5L12.6 8.2C13.1656 7.44375 14.0562 7 15 7H16V6C16 5.59688 16.2437 5.23125 16.6187 5.075ZM9.125 12.8344L10.375 14.5L9.4 15.8C8.83438 16.5563 7.94375 17 7 17H5C4.44687 17 4 16.5531 4 16C4 15.4469 4.44687 15 5 15H7C7.31563 15 7.6125 14.8531 7.8 14.6L9.125 12.8344ZM17.7063 18.7094C17.4188 18.9969 16.9906 19.0813 16.6156 18.925C16.2406 18.7688 15.9969 18.4062 15.9969 18V17H15C14.0562 17 13.1656 16.5563 12.6 15.8L7.8 9.4C7.6125 9.14688 7.31563 9 7 9H5C4.44687 9 4 8.55313 4 8C4 7.44688 4.44687 7 5 7H7C7.94375 7 8.83438 7.44375 9.4 8.2L14.2 14.6C14.3875 14.8531 14.6844 15 15 15H16V14C16 13.5969 16.2437 13.2312 16.6187 13.075C16.9937 12.9187 17.4219 13.0062 17.7094 13.2906L19.7094 15.2906C19.8969 15.4781 20.0031 15.7312 20.0031 15.9969C20.0031 16.2625 19.8969 16.5156 19.7094 16.7031L17.7094 18.7031L17.7063 18.7094Z" fill="black"/>
</svg>
