<svg width="24" height="24" viewBox="0 0 24 24" fill="none" xmlns="http://www.w3.org/2000/svg">
<path d="M7 5C5.89688 5 5 5.89688 5 7V17C5 18.1031 5.89688 19 7 19H17C18.1031 19 19 18.1031 19 17V7C19 5.89688 18.1031 5 17 5H7ZM12 8C13.6562 8 15 9.34375 15 11V13C15 14.6562 13.6562 16 12 16C10.3438 16 9 14.6562 9 13V11C9 9.34375 10.3438 8 12 8ZM10.5 11V13C10.5 13.8281 11.1719 14.5 12 14.5C12.8281 14.5 13.5 13.8281 13.5 13V11C13.5 10.1719 12.8281 9.5 12 9.5C11.1719 9.5 10.5 10.1719 10.5 11Z" fill="black"/>
</svg>
