<svg width="24" height="24" viewBox="0 0 24 24" fill="none" xmlns="http://www.w3.org/2000/svg">
<path d="M12.6877 4.39141C12.3033 4.02578 11.6971 4.02578 11.3127 4.39141L9.25021 6.34766L5.25021 10.1352C3.64708 11.6539 3.57833 14.1852 5.09708 15.7914C6.61583 17.3977 9.14708 17.4633 10.7533 15.9445L11.0033 15.707V18.0008H10.0002C9.44708 18.0008 9.00021 18.4477 9.00021 19.0008C9.00021 19.5539 9.44708 20.0008 10.0002 20.0008H14.0002C14.5533 20.0008 15.0002 19.5539 15.0002 19.0008C15.0002 18.4477 14.5533 18.0008 14.0002 18.0008H13.0002V15.707L13.2502 15.9445C14.8533 17.4633 17.3846 17.3945 18.9065 15.7914C20.4283 14.1883 20.3565 11.657 18.7533 10.1352L14.7502 6.34766L12.6877 4.39141Z" fill="black"/>
</svg>
