<svg width="24" height="24" viewBox="0 0 24 24" fill="none" xmlns="http://www.w3.org/2000/svg">
<path d="M17 9.275C17 9.9875 16.7813 10.6781 16.3781 11.2562L12.7063 7.58437L13.1782 7.1125C12.8469 7.04687 12.4469 7 12 7C11.5531 7 11.1531 7.04687 10.8188 7.1125L12 8.29375L15.7063 12L16 12.2937L16.3531 12.6469L19.8531 16.1469C20.0469 16.3406 20.0469 16.6594 19.8531 16.8531C19.6594 17.0469 19.3407 17.0469 19.1469 16.8531L16 13.7063L15.2063 14.5L18.3531 17.6469C18.5469 17.8406 18.5469 18.1594 18.3531 18.3531C18.1594 18.5469 17.8407 18.5469 17.6469 18.3531L14.5 15.2063L13.7063 16L16.8531 19.1469C17.0469 19.3406 17.0469 19.6594 16.8531 19.8531C16.6594 20.0469 16.3407 20.0469 16.1469 19.8531L12.6469 16.3531L8.01252 11.7188C7.36565 11.0719 7.00002 10.1906 7.00002 9.275C7.00002 8.68125 7.15315 8.09687 7.44377 7.58125L8.74065 5.275C9.1844 4.4875 10.0156 4 10.9188 4H13.0781C13.9813 4 14.8157 4.4875 15.2563 5.275L16.5532 7.58125C16.8438 8.1 16.9969 8.68125 16.9969 9.275H17ZM4.1469 16.1469L7.6469 12.6469L8.35315 13.3531L4.85315 16.8531C4.6594 17.0469 4.34065 17.0469 4.1469 16.8531C3.95315 16.6594 3.95315 16.3406 4.1469 16.1469ZM5.6469 17.6469L9.1469 14.1469L9.85315 14.8531L6.35315 18.3531C6.1594 18.5469 5.84065 18.5469 5.6469 18.3531C5.45315 18.1594 5.45315 17.8406 5.6469 17.6469ZM7.1469 19.1469L10.6469 15.6469L11.3531 16.3531L7.85315 19.8531C7.6594 20.0469 7.34065 20.0469 7.1469 19.8531C6.95315 19.6594 6.95315 19.3406 7.1469 19.1469Z" fill="black"/>
</svg>
