<svg width="24" height="24" viewBox="0 0 24 24" fill="none" xmlns="http://www.w3.org/2000/svg">
<path d="M12.625 4.00942C12.4594 3.97505 12.2875 4.02817 12.1688 4.15005C12.05 4.27192 12 4.4438 12.0375 4.60942L12.4469 6.45005C10.2 7.8938 9.21567 9.6313 8.99067 11.0875L8.56254 10.6563L8.49067 10.5844L7.78442 9.87817C7.59067 9.68442 7.59067 9.36567 7.78442 9.17192L9.54692 7.40942C10.1375 6.8188 10.1313 5.86255 9.53754 5.27817L8.37817 4.1438C8.18129 3.95317 7.86879 3.95317 7.67504 4.14692L7.58754 4.23442C6.52504 5.29692 6.54692 6.97505 7.52817 8.01567L7.07817 8.46567C6.49379 9.05005 6.49379 10 7.07817 10.5875L7.78442 11.2938L7.96254 11.4719C8.25317 11.7657 8.25317 12.2375 7.96254 12.5313C7.67192 12.8219 7.20004 12.825 6.90629 12.5375L6.39067 12.0188C5.79379 11.4219 4.82192 11.4344 4.24379 12.0469L4.13754 12.1563C3.94692 12.3563 3.95629 12.6719 4.15629 12.8625C4.35629 13.0532 4.67192 13.0438 4.86254 12.8438L4.96567 12.7344C5.15942 12.5313 5.48442 12.525 5.68129 12.725L6.01254 13.0563L6.01567 13.0625L6.72192 13.7688C7.03754 14.0875 7.00317 14.6094 6.64692 14.8875L6.02192 15.375C5.91254 15.4594 5.78129 15.5063 5.64379 15.5063C5.30317 15.5063 5.02817 15.2313 5.02817 14.8907V14.5C5.02817 14.225 4.80317 14 4.52817 14C4.25317 14 4.02817 14.225 4.02817 14.5V14.8844C4.02817 15.775 4.75317 16.5 5.64379 16.5C6.00317 16.5 6.35317 16.3813 6.63754 16.1594L7.51879 15.475C7.81254 15.2469 8.23129 15.2719 8.49379 15.5344C8.75629 15.7969 8.78442 16.2157 8.55317 16.5094L7.86879 17.3907C7.64692 17.675 7.52817 18.025 7.52817 18.3844C7.52817 19.2782 8.25317 20 9.14379 20H9.52817C9.80317 20 10.0282 19.775 10.0282 19.5C10.0282 19.225 9.80317 19 9.52817 19H9.14379C8.80317 19 8.52817 18.725 8.52817 18.3844C8.52817 18.2469 8.57504 18.1125 8.65942 18.0063L9.14692 17.3813C9.42192 17.025 9.94692 16.9938 10.2657 17.3094L10.2688 17.3125L10.9688 18.0094L10.9719 18.0125L11.2813 18.3188C11.4844 18.5219 11.475 18.8563 11.2594 19.0469L11.1719 19.125C10.9657 19.3094 10.9469 19.625 11.1313 19.8313C11.3157 20.0375 11.6313 20.0563 11.8375 19.8719L11.925 19.7938C12.5719 19.2219 12.6 18.2219 11.9907 17.6125L11.6813 17.3032L11.5032 17.125L11.5 17.1219C11.2094 16.8313 11.2094 16.3594 11.5 16.0657L11.5032 16.0625L11.5063 16.0594C11.7969 15.7719 12.2688 15.7719 12.5594 16.0594L13.4469 16.9469C14.0313 17.5313 14.9813 17.5313 15.5688 16.9469L16.0125 16.5C17.0532 17.4813 18.7313 17.5032 19.7938 16.4407L19.8813 16.3532C20.075 16.1594 20.0782 15.8438 19.8844 15.65L18.75 14.4907C18.1657 13.8969 17.2094 13.8907 16.6188 14.4813L14.8563 16.2407C14.6625 16.4344 14.3438 16.4344 14.15 16.2407L13.4469 15.5375L13.4438 15.5344L12.9438 15.0344C14.4 14.8094 16.1375 13.825 17.5813 11.5782L19.4219 11.9875C19.5875 12.025 19.7594 11.975 19.8813 11.8563C20.0032 11.7375 20.0563 11.5657 20.0219 11.4L19.2907 7.7563C19.5782 6.81255 19.8282 5.7563 20.0219 4.58442C20.05 4.42505 19.9969 4.26255 19.8813 4.15005C19.7657 4.03755 19.6063 3.9813 19.4469 4.0063C18.2719 4.20317 17.2188 4.45005 16.2719 4.73755L12.625 4.00942ZM9.27817 12.75C9.27817 12.6174 9.33085 12.4903 9.42461 12.3965C9.51838 12.3027 9.64556 12.25 9.77817 12.25C9.91078 12.25 10.038 12.3027 10.1317 12.3965C10.2255 12.4903 10.2782 12.6174 10.2782 12.75C10.2782 12.8827 10.2255 13.0098 10.1317 13.1036C10.038 13.1974 9.91078 13.25 9.77817 13.25C9.64556 13.25 9.51838 13.1974 9.42461 13.1036C9.33085 13.0098 9.27817 12.8827 9.27817 12.75ZM11.2782 13.75C11.4108 13.75 11.538 13.8027 11.6317 13.8965C11.7255 13.9903 11.7782 14.1174 11.7782 14.25C11.7782 14.3827 11.7255 14.5098 11.6317 14.6036C11.538 14.6974 11.4108 14.75 11.2782 14.75C11.1456 14.75 11.0184 14.6974 10.9246 14.6036C10.8308 14.5098 10.7782 14.3827 10.7782 14.25C10.7782 14.1174 10.8308 13.9903 10.9246 13.8965C11.0184 13.8027 11.1456 13.75 11.2782 13.75Z" fill="black"/>
</svg>
