<svg width="24" height="24" viewBox="0 0 24 24" fill="none" xmlns="http://www.w3.org/2000/svg">
<path d="M8.6188 4C8.86255 4 9.06568 4.17812 9.14068 4.4125C9.52505 5.62188 10.6594 6.5 12.0001 6.5C13.3407 6.5 14.4751 5.62188 14.8594 4.4125C14.9344 4.17812 15.1376 4 15.3813 4H15.7751C16.4782 4 17.1563 4.24687 17.6969 4.69687L21.6407 7.98125C21.8469 8.15312 21.9751 8.40312 21.9969 8.67188C22.0188 8.94063 21.9313 9.20625 21.7532 9.40938L20.0032 11.4094C19.6469 11.8188 19.0282 11.8656 18.6094 11.5188L17.0001 10.1781V18C17.0001 19.1031 16.1032 20 15.0001 20H9.00005C7.89693 20 7.00005 19.1031 7.00005 18V10.1781L5.39068 11.5188C4.97505 11.8656 4.3563 11.8188 3.99693 11.4094L2.24693 9.40938C2.0688 9.20625 1.9813 8.94063 2.00318 8.67188C2.02505 8.40312 2.15318 8.15312 2.35943 7.98125L6.30318 4.69687C6.8438 4.24687 7.52193 4 8.22505 4H8.6188Z" fill="black"/>
</svg>
