<svg width="24" height="24" viewBox="0 0 24 24" fill="none" xmlns="http://www.w3.org/2000/svg">
<path d="M7 5C5.89688 5 5 5.89688 5 7V17C5 18.1031 5.89688 19 7 19H17C18.1031 19 19 18.1031 19 17V7C19 5.89688 18.1031 5 17 5H7ZM10 8.5C10 8.10218 10.158 7.72064 10.4393 7.43934C10.7206 7.15804 11.1022 7 11.5 7C11.8978 7 12.2794 7.15804 12.5607 7.43934C12.842 7.72064 13 8.10218 13 8.5C13 8.89782 12.842 9.27936 12.5607 9.56066C12.2794 9.84196 11.8978 10 11.5 10C11.1022 10 10.7206 9.84196 10.4393 9.56066C10.158 9.27936 10 8.89782 10 8.5ZM12.5 11.75C12.5 10.7844 13.2844 10 14.25 10C15.2156 10 16 10.7844 16 11.75V14.9406C16 16.0781 15.0781 17 13.9406 17C13.3938 17 12.8688 16.7844 12.4844 16.3969L10.775 14.6875L9.89687 16.4469C9.65 16.9406 9.05 17.1406 8.55625 16.8938C8.0625 16.6469 7.8625 16.0469 8.10938 15.5531L9.60938 12.5531C9.75312 12.2656 10.025 12.0656 10.3438 12.0125C10.6625 11.9594 10.9844 12.0656 11.2125 12.2937L12.5 13.5844V11.75Z" fill="black"/>
</svg>
