<svg width="24" height="24" viewBox="0 0 24 24" fill="none" xmlns="http://www.w3.org/2000/svg">
<path d="M13.5938 5.08752C13.2344 5.24689 13 5.60627 13 6.00002V8.00002H9.5C6.4625 8.00002 4 10.4625 4 13.5C4 17.0406 6.54688 18.6219 7.13125 18.9406C7.20937 18.9844 7.29688 19 7.38438 19C7.725 19 8 18.7219 8 18.3844C8 18.15 7.86562 17.9344 7.69375 17.775C7.4 17.4969 7 16.95 7 16C7 14.3438 8.34375 13 10 13H13V15C13 15.3938 13.2312 15.7531 13.5938 15.9125C13.9563 16.0719 14.375 16.0063 14.6687 15.7438L19.6687 11.2438C19.8781 11.0531 20 10.7844 20 10.5C20 10.2156 19.8812 9.94689 19.6687 9.75627L14.6687 5.25627C14.375 4.99064 13.9531 4.92502 13.5938 5.08752Z" fill="black"/>
</svg>
