<svg width="24" height="24" viewBox="0 0 24 24" fill="none" xmlns="http://www.w3.org/2000/svg">
<path d="M7 5C5.89688 5 5 5.89688 5 7V17C5 18.1031 5.89688 19 7 19H17C18.1031 19 19 18.1031 19 17V7C19 5.89688 18.1031 5 17 5H7ZM9 8.75C9 8.33437 9.33437 8 9.75 8H12.625C13.9375 8 15 9.0625 15 10.375C15 10.8812 14.8406 11.3531 14.5688 11.7406C15.1344 12.175 15.5 12.8562 15.5 13.625C15.5 14.9375 14.4375 16 13.125 16H9.75C9.33437 16 9 15.6656 9 15.25V12V8.75ZM13.5 10.375C13.5 9.89062 13.1094 9.5 12.625 9.5H10.5V11.25H12.625C13.1094 11.25 13.5 10.8594 13.5 10.375ZM10.5 14.5H13.125C13.6094 14.5 14 14.1094 14 13.625C14 13.1406 13.6094 12.75 13.125 12.75H12.625H10.5V14.5Z" fill="black"/>
</svg>
