<svg width="24" height="24" viewBox="0 0 24 24" fill="none" xmlns="http://www.w3.org/2000/svg">
<path d="M13.7813 5.28086L12.2813 6.78086C11.9876 7.07461 11.5126 7.07461 11.222 6.78086C10.9313 6.48711 10.9282 6.01211 11.222 5.72148L12.7188 4.21836C13.0126 3.92461 13.4876 3.92461 13.7782 4.21836C14.0688 4.51211 14.072 4.98711 13.7782 5.27773L13.7813 5.28086ZM9.32509 8.91836C9.60009 8.35898 10.397 8.35898 10.672 8.91836L12.1188 11.8559L15.3532 12.3277C15.9688 12.4184 16.2126 13.1715 15.7688 13.6059L13.4282 15.8934L13.9813 19.1215C14.0876 19.734 13.4438 20.2027 12.8938 19.9121L10.0001 18.3871L7.10322 19.9121C6.55322 20.2027 5.90947 19.734 6.01572 19.1215L6.56884 15.8934L4.22509 13.6059C3.78134 13.1715 4.02822 12.4152 4.64072 12.3277L7.87509 11.8559L9.32197 8.91836H9.32509ZM19.7813 10.2184C20.0751 10.5121 20.0751 10.9871 19.7813 11.2777L18.2813 12.7777C17.9876 13.0715 17.5126 13.0715 17.222 12.7777C16.9313 12.484 16.9282 12.009 17.222 11.7184L18.722 10.2184C19.0157 9.92461 19.4907 9.92461 19.7813 10.2184ZM19.7813 5.28086L15.2813 9.78086C14.9876 10.0746 14.5126 10.0746 14.222 9.78086C13.9313 9.48711 13.9282 9.01211 14.222 8.72148L18.7188 4.21836C19.0126 3.92461 19.4876 3.92461 19.7782 4.21836C20.0688 4.51211 20.072 4.98711 19.7782 5.27773L19.7813 5.28086Z" fill="black"/>
</svg>
