<svg width="24" height="24" viewBox="0 0 24 24" fill="none" xmlns="http://www.w3.org/2000/svg">
<path d="M5.29365 4.29297C5.68428 3.90234 6.31865 3.90234 6.70928 4.29297L9.70928 7.29297C10.0999 7.68359 10.0999 8.31797 9.70928 8.70859C9.31865 9.09922 8.68428 9.09922 8.29365 8.70859L6.9999 7.41484V14.9992C6.9999 16.1023 7.89678 16.9992 8.9999 16.9992C10.103 16.9992 10.9999 16.1023 10.9999 14.9992V8.99922C10.9999 6.78984 12.7905 4.99922 14.9999 4.99922C17.2093 4.99922 18.9999 6.78984 18.9999 8.99922V16.5836L20.2937 15.2898C20.6843 14.8992 21.3187 14.8992 21.7093 15.2898C22.0999 15.6805 22.0999 16.3148 21.7093 16.7055L18.7093 19.7055C18.3187 20.0961 17.6843 20.0961 17.2937 19.7055L14.2937 16.7055C13.903 16.3148 13.903 15.6805 14.2937 15.2898C14.6843 14.8992 15.3187 14.8992 15.7093 15.2898L16.9999 16.5836V8.99922C16.9999 7.89609 16.103 6.99922 14.9999 6.99922C13.8968 6.99922 12.9999 7.89609 12.9999 8.99922V14.9992C12.9999 17.2086 11.2093 18.9992 8.9999 18.9992C6.79053 18.9992 4.9999 17.2086 4.9999 14.9992V7.41484L3.70615 8.70547C3.31553 9.09609 2.68115 9.09609 2.29053 8.70547C1.8999 8.31484 1.8999 7.68047 2.29053 7.28984L5.29053 4.28984L5.29365 4.29297Z" fill="black"/>
</svg>
