<svg width="24" height="24" viewBox="0 0 24 24" fill="none" xmlns="http://www.w3.org/2000/svg">
<path d="M5 7C5 5.89688 5.89688 5 7 5H17C18.1031 5 19 5.89688 19 7V17C19 18.1031 18.1031 19 17 19H7C5.89688 19 5 18.1031 5 17V7ZM12 7.25C11.8094 7.25 11.6344 7.35938 11.5531 7.52813L10.4219 9.82188L7.89062 10.1906C7.70312 10.2188 7.54688 10.35 7.4875 10.5312C7.42812 10.7125 7.47812 10.9125 7.6125 11.0437L9.44375 12.8313L9.0125 15.3531C8.98125 15.5406 9.05625 15.7312 9.2125 15.8406C9.36875 15.95 9.57188 15.9688 9.7375 15.8781L12 14.6906L14.2656 15.8813C14.4344 15.9688 14.6375 15.9563 14.7906 15.8438C14.9437 15.7312 15.0219 15.5437 14.9906 15.3562L14.5594 12.8344L16.3906 11.0469C16.5281 10.9125 16.575 10.7156 16.5156 10.5344C16.4563 10.3531 16.3 10.2219 16.1125 10.1937L13.5781 9.825L12.4469 7.53125C12.3625 7.35938 12.1875 7.25312 12 7.25312V7.25Z" fill="black"/>
</svg>
