<svg width="24" height="24" viewBox="0 0 24 24" fill="none" xmlns="http://www.w3.org/2000/svg">
<path d="M16.6187 5.07503C16.9937 4.91878 17.4219 5.00628 17.7094 5.29066L19.7094 7.29066C19.8969 7.47816 20.0031 7.73128 20.0031 7.99691C20.0031 8.26253 19.8969 8.51566 19.7094 8.70316L17.7094 10.7032C17.4219 10.9907 16.9937 11.075 16.6187 10.9188C16.2437 10.7625 16 10.4 16 9.99378V9.00003H15C14.6844 9.00003 14.3875 9.14691 14.2 9.40003L12.875 11.1657L11.625 9.50003L12.6 8.20003C13.1656 7.44378 14.0562 7.00003 15 7.00003H16V6.00003C16 5.59691 16.2437 5.23128 16.6187 5.07503ZM9.125 12.8344L10.375 14.5L9.4 15.8C8.83437 16.5563 7.94375 17 7 17H5C4.44687 17 4 16.5532 4 16C4 15.4469 4.44687 15 5 15H7C7.31562 15 7.6125 14.8532 7.8 14.6L9.125 12.8344ZM17.7063 18.7094C17.4187 18.9969 16.9906 19.0813 16.6156 18.925C16.2406 18.7688 15.9969 18.4063 15.9969 18V17H15C14.0562 17 13.1656 16.5563 12.6 15.8L7.8 9.40003C7.6125 9.14691 7.31562 9.00003 7 9.00003H5C4.44687 9.00003 4 8.55316 4 8.00003C4 7.44691 4.44687 7.00003 5 7.00003H7C7.94375 7.00003 8.83437 7.44378 9.4 8.20003L14.2 14.6C14.3875 14.8532 14.6844 15 15 15H16V14C16 13.5969 16.2437 13.2313 16.6187 13.075C16.9937 12.9188 17.4219 13.0063 17.7094 13.2907L19.7094 15.2907C19.8969 15.4782 20.0031 15.7313 20.0031 15.9969C20.0031 16.2625 19.8969 16.5157 19.7094 16.7032L17.7094 18.7032L17.7063 18.7094Z" fill="black"/>
</svg>
