<svg width="24" height="24" viewBox="0 0 24 24" fill="none" xmlns="http://www.w3.org/2000/svg">
<path d="M7 5C5.89688 5 5 5.89688 5 7V17C5 18.1031 5.89688 19 7 19H17C18.1031 19 19 18.1031 19 17V7C19 5.89688 18.1031 5 17 5H7ZM9.75 8H14.25C14.5125 8 14.7594 8.1375 14.8938 8.36562C15.0281 8.59375 15.0344 8.87187 14.9094 9.10625L11.4094 15.6062C11.2125 15.9719 10.7594 16.1063 10.3938 15.9125C10.0281 15.7188 9.89375 15.2625 10.0875 14.8969L12.9938 9.50313H9.75C9.33437 9.50313 9 9.16875 9 8.75313C9 8.3375 9.33437 8.00313 9.75 8.00313V8Z" fill="black"/>
</svg>
