<svg width="24" height="24" viewBox="0 0 24 24" fill="none" xmlns="http://www.w3.org/2000/svg">
<path d="M8.51883 4.04998C8.90633 4.19998 9.09695 4.63123 8.95008 5.01873L7.93445 7.66248C7.90008 7.75623 7.92195 7.85936 7.9907 7.92811L9.50008 9.44061V8.99998C9.50008 8.00623 10.0813 7.14686 10.922 6.74373C11.2063 6.60623 11.5001 6.84686 11.5001 7.16248V7.49998C11.5001 7.77498 11.7251 7.99998 12.0001 7.99998C12.2751 7.99998 12.5001 7.77498 12.5001 7.49998V7.16248C12.5001 6.84686 12.7938 6.60936 13.0782 6.74373C13.9188 7.14686 14.5001 8.00623 14.5001 8.99998V9.44061L16.0095 7.93123C16.0782 7.86248 16.1001 7.75623 16.0657 7.66561L15.0501 5.01873C14.9001 4.63123 15.0938 4.19686 15.4813 4.04998C15.8688 3.90311 16.3032 4.09373 16.4501 4.48123L17.4657 7.12498C17.7126 7.77186 17.5595 8.50311 17.0688 8.99061L15.2751 10.7844L17.7876 9.94686C17.8626 9.92186 17.922 9.86248 17.947 9.78748L18.5376 8.01248C18.6688 7.61873 19.0938 7.40623 19.4876 7.53748C19.8813 7.66873 20.0938 8.09373 19.9626 8.48748L19.372 10.2625C19.197 10.7844 18.7876 11.1937 18.2657 11.3687L16.372 12L18.2626 12.6312C18.7845 12.8062 19.1938 13.2156 19.3688 13.7375L19.9595 15.5125C20.0907 15.9062 19.8782 16.3312 19.4845 16.4625C19.0907 16.5937 18.6657 16.3812 18.5345 15.9875L17.9438 14.2125C17.9188 14.1375 17.8595 14.0781 17.7845 14.0531L15.272 13.2156L17.0657 15.0094C17.5532 15.4969 17.7095 16.2281 17.4626 16.875L16.447 19.5187C16.297 19.9062 15.8657 20.0969 15.4782 19.95C15.0907 19.8031 14.9001 19.3687 15.047 18.9812L16.0626 16.3375C16.097 16.2437 16.0751 16.1406 16.0063 16.0719L15.0001 15.0594C14.9688 16.6875 13.6376 18 12.0001 18C10.3626 18 9.03133 16.6906 9.00008 15.0594L7.9907 16.0687C7.92195 16.1375 7.90008 16.2437 7.93445 16.3344L8.95008 18.9781C9.10008 19.3656 8.90633 19.8 8.51883 19.9469C8.13133 20.0937 7.69695 19.9031 7.55008 19.5156L6.53445 16.875C6.28758 16.2281 6.4407 15.4969 6.93133 15.0094L8.72508 13.2156L6.21258 14.0531C6.13758 14.0781 6.0782 14.1375 6.0532 14.2125L5.46258 15.9875C5.33133 16.3812 4.90633 16.5937 4.51258 16.4625C4.11883 16.3312 3.90633 15.9062 4.03758 15.5125L4.6282 13.7375C4.8032 13.2156 5.21258 12.8062 5.73445 12.6312L7.6282 12L5.73758 11.3687C5.2157 11.1937 4.80633 10.7844 4.63133 10.2625L4.03758 8.48748C3.90633 8.09373 4.11883 7.66873 4.51258 7.53748C4.90633 7.40623 5.33133 7.61873 5.46258 8.01248L6.0532 9.78748C6.0782 9.86248 6.13758 9.92186 6.21258 9.94686L8.72508 10.7844L6.9282 8.99061C6.4407 8.49998 6.28445 7.76873 6.53445 7.12498L7.55008 4.48123C7.70008 4.09373 8.13133 3.90311 8.51883 4.04998ZM10.8251 13.6L11.5001 14.5L10.8251 15.4C10.7751 15.4656 10.7501 15.5437 10.7501 15.625C10.7501 15.8312 10.9188 16 11.1251 16H12.8751C13.0813 16 13.2501 15.8312 13.2501 15.625C13.2501 15.5437 13.2251 15.4656 13.1751 15.4L12.5001 14.5L13.1751 13.6C13.2251 13.5344 13.2501 13.4562 13.2501 13.375C13.2501 13.1687 13.0813 13 12.8751 13H11.1251C10.9188 13 10.7501 13.1687 10.7501 13.375C10.7501 13.4562 10.7751 13.5344 10.8251 13.6Z" fill="black"/>
</svg>
