<svg width="24" height="24" viewBox="0 0 24 24" fill="none" xmlns="http://www.w3.org/2000/svg">
<path d="M11.2938 5.29376C11.6844 4.90314 12.3188 4.90314 12.7094 5.29376L16.7094 9.29376C16.9969 9.58126 17.0813 10.0094 16.925 10.3844C16.7688 10.7594 16.4063 11.0031 16 11.0031H8.00003C7.59691 11.0031 7.23128 10.7594 7.07503 10.3844C6.91878 10.0094 7.00628 9.58126 7.29066 9.29376L11.2907 5.29376H11.2938ZM11.2938 18.7094L7.29378 14.7094C7.00628 14.4219 6.92191 13.9938 7.07816 13.6188C7.23441 13.2438 7.59691 13 8.00316 13H16C16.4032 13 16.7688 13.2438 16.925 13.6188C17.0813 13.9938 16.9938 14.4219 16.7094 14.7094L12.7094 18.7094C12.3188 19.1 11.6844 19.1 11.2938 18.7094Z" fill="black"/>
</svg>
