<svg width="24" height="24" viewBox="0 0 24 24" fill="none" xmlns="http://www.w3.org/2000/svg">
<path d="M16.7937 4C16.1437 4 15.525 4.2875 15.1062 4.78438L8.86872 12.1781C8.74372 12.3281 8.7156 12.5344 8.79685 12.7125C8.8781 12.8906 9.05622 13.0031 9.24997 13.0031H13.3937C13.8343 13.0031 14.2562 12.8094 14.5406 12.4719L18.45 7.83437C18.8062 7.4125 19 6.88125 19 6.33125V6.20625C19 4.9875 18.0125 4 16.7937 4ZM8.14685 14.1469L3.14685 19.1469C3.0031 19.2906 2.96247 19.5063 3.03747 19.6906C3.11247 19.875 3.29685 20 3.49997 20C4.0656 20 6.1281 19.7375 8.05935 18.9656C9.9531 18.2063 12 16.8406 12 14.5V14H11.5H8.49997H8.29372L8.14685 14.1469ZM12.5 19H10.5C10.225 19 9.99997 19.225 9.99997 19.5C9.99997 19.775 10.225 20 10.5 20H12.5C12.775 20 13 19.775 13 19.5C13 19.225 12.775 19 12.5 19ZM14.5 19C14.225 19 14 19.225 14 19.5C14 19.775 14.225 20 14.5 20H16.5C16.775 20 17 19.775 17 19.5C17 19.225 16.775 19 16.5 19H14.5ZM18.5 19C18.225 19 18 19.225 18 19.5C18 19.775 18.225 20 18.5 20H20.5C20.775 20 21 19.775 21 19.5C21 19.225 20.775 19 20.5 19H18.5Z" fill="black"/>
</svg>
