<svg width="24" height="24" viewBox="0 0 24 24" fill="none" xmlns="http://www.w3.org/2000/svg">
<path d="M7 5C5.89688 5 5 5.89688 5 7V17C5 18.1031 5.89688 19 7 19H17C18.1031 19 19 18.1031 19 17V7C19 5.89688 18.1031 5 17 5H7ZM12.5312 9.21875L15.7812 12.4688C16.075 12.7625 16.075 13.2375 15.7812 13.5281C15.4875 13.8187 15.0125 13.8219 14.7219 13.5281L12.0031 10.8094L9.28438 13.5281C8.99063 13.8219 8.51562 13.8219 8.225 13.5281C7.93437 13.2344 7.93125 12.7594 8.225 12.4688L11.4688 9.21875C11.7625 8.925 12.2375 8.925 12.5281 9.21875H12.5312Z" fill="black"/>
</svg>
