<svg width="24" height="24" viewBox="0 0 24 24" fill="none" xmlns="http://www.w3.org/2000/svg">
<path d="M15.2968 4.0375C15.4531 4.10312 15.5656 4.24375 15.5968 4.40937L16.2187 7.78125L19.5906 8.4C19.7562 8.43125 19.8968 8.54375 19.9624 8.7C20.0281 8.85625 20.0093 9.03437 19.9124 9.175L17.9656 12L19.9124 14.8219C20.0093 14.9625 20.0281 15.1406 19.9624 15.2969C19.8968 15.4531 19.7562 15.5656 19.5906 15.5969L16.2187 16.2187L15.5968 19.5906C15.5656 19.7562 15.4531 19.8969 15.2968 19.9625C15.1406 20.0281 14.9624 20.0094 14.8218 19.9125L11.9999 17.9656L9.17806 19.9125C9.03744 20.0094 8.85931 20.0281 8.70306 19.9625C8.54681 19.8969 8.43431 19.7562 8.40306 19.5906L7.78119 16.2187L4.40931 15.5969C4.24369 15.5656 4.10306 15.4531 4.03744 15.2969C3.97181 15.1406 3.99056 14.9625 4.08744 14.8219L6.03431 12L4.08744 9.17812C3.99056 9.0375 3.97181 8.85937 4.03744 8.70312C4.10306 8.54687 4.24369 8.43437 4.40931 8.40312L7.78119 7.78125L8.40306 4.40937C8.43431 4.24375 8.54681 4.10312 8.70306 4.0375C8.85931 3.97187 9.03744 3.99062 9.17806 4.0875L11.9999 6.03437L14.8218 4.0875C14.9624 3.99062 15.1406 3.97187 15.2968 4.0375ZM8.99994 12C8.99994 11.2043 9.31601 10.4413 9.87862 9.87868C10.4412 9.31607 11.2043 9 11.9999 9C12.7956 9 13.5586 9.31607 14.1213 9.87868C14.6839 10.4413 14.9999 11.2043 14.9999 12C14.9999 12.7956 14.6839 13.5587 14.1213 14.1213C13.5586 14.6839 12.7956 15 11.9999 15C11.2043 15 10.4412 14.6839 9.87862 14.1213C9.31601 13.5587 8.99994 12.7956 8.99994 12ZM15.9999 12C15.9999 10.9391 15.5785 9.92172 14.8284 9.17157C14.0782 8.42142 13.0608 8 11.9999 8C10.9391 8 9.92165 8.42142 9.17151 9.17157C8.42136 9.92172 7.99994 10.9391 7.99994 12C7.99994 13.0609 8.42136 14.0783 9.17151 14.8284C9.92165 15.5786 10.9391 16 11.9999 16C13.0608 16 14.0782 15.5786 14.8284 14.8284C15.5785 14.0783 15.9999 13.0609 15.9999 12Z" fill="black"/>
</svg>
