<svg width="24" height="24" viewBox="0 0 24 24" fill="none" xmlns="http://www.w3.org/2000/svg">
<path d="M19.6344 4.2289C19.8656 4.4164 20 4.70077 20 5.00077V9.50077C20 10.3289 19.1031 11.0008 18 11.0008C16.8969 11.0008 16 10.3289 16 9.50077C16 8.67265 16.8969 8.00077 18 8.00077V6.21952L15 6.81952V10.5008C15 11.3289 14.1031 12.0008 13 12.0008C11.8969 12.0008 11 11.3289 11 10.5008C11 9.67265 11.8969 9.00077 13 9.00077V6.00077C13 5.52265 13.3375 5.11327 13.8031 5.01952L18.8031 4.01952C19.0969 3.96015 19.4 4.03827 19.6344 4.22577V4.2289ZM5 4.00077H10C10.5531 4.00077 11 4.44765 11 5.00077C11 5.5539 10.5531 6.00077 10 6.00077H5C4.44687 6.00077 4 5.5539 4 5.00077C4 4.44765 4.44687 4.00077 5 4.00077ZM19.7063 14.707L14.7063 19.707C14.3156 20.0976 13.6812 20.0976 13.2906 19.707C12.9 19.3164 12.9 18.682 13.2906 18.2914L18.2906 13.2914C18.6812 12.9008 19.3156 12.9008 19.7063 13.2914C20.0969 13.682 20.0969 14.3164 19.7063 14.707ZM4 8.00077C4 7.44765 4.44687 7.00077 5 7.00077H7.5H10C10.5531 7.00077 11 7.44765 11 8.00077C11 8.5539 10.5531 9.00077 10 9.00077H8.5V10.0008C8.5 10.5539 8.05313 11.0008 7.5 11.0008C6.94687 11.0008 6.5 10.5539 6.5 10.0008V9.00077H5C4.44687 9.00077 4 8.5539 4 8.00077ZM13 14.2508C13 13.9193 13.1317 13.6013 13.3661 13.3669C13.6005 13.1325 13.9185 13.0008 14.25 13.0008C14.5815 13.0008 14.8995 13.1325 15.1339 13.3669C15.3683 13.6013 15.5 13.9193 15.5 14.2508C15.5 14.5823 15.3683 14.9002 15.1339 15.1347C14.8995 15.3691 14.5815 15.5008 14.25 15.5008C13.9185 15.5008 13.6005 15.3691 13.3661 15.1347C13.1317 14.9002 13 14.5823 13 14.2508ZM18.75 17.5008C19.0815 17.5008 19.3995 17.6325 19.6339 17.8669C19.8683 18.1013 20 18.4193 20 18.7508C20 19.0823 19.8683 19.4002 19.6339 19.6347C19.3995 19.8691 19.0815 20.0008 18.75 20.0008C18.4185 20.0008 18.1005 19.8691 17.8661 19.6347C17.6317 19.4002 17.5 19.0823 17.5 18.7508C17.5 18.4193 17.6317 18.1013 17.8661 17.8669C18.1005 17.6325 18.4185 17.5008 18.75 17.5008ZM8.2375 15.6883L8.55937 16.0258L9.29375 15.2914C9.68437 14.9008 10.3187 14.9008 10.7094 15.2914C11.1 15.682 11.1 16.3164 10.7094 16.707L9.9375 17.4789L10.725 18.3133C11.1062 18.7133 11.0875 19.3476 10.6875 19.7258C10.2875 20.1039 9.65313 20.0883 9.275 19.6883L8.52187 18.8945L8.12187 19.2945C7.66875 19.7476 7.05313 20.0008 6.41563 20.0008C5.08125 20.0008 4 18.9195 4 17.5851V17.557C4 16.9508 4.225 16.3633 4.63437 15.9133L5.04375 15.4633C4.70313 15.0726 4.5 14.5601 4.5 14.0008C4.5 12.757 5.50625 11.7508 6.75 11.7508C7.99375 11.7508 9 12.757 9 14.0008C9 14.6726 8.70625 15.2758 8.2375 15.6883ZM6.1125 17.2601C6.0375 17.3414 5.99688 17.4476 5.99688 17.557V17.5851C5.99688 17.8133 6.18125 18.0008 6.4125 18.0008C6.52187 18.0008 6.62812 17.957 6.70625 17.8789L7.14375 17.4414L6.53437 16.7976L6.11562 17.2601H6.1125ZM7.25 14.0008C7.25 13.8682 7.19732 13.741 7.10355 13.6472C7.00979 13.5535 6.88261 13.5008 6.75 13.5008C6.61739 13.5008 6.49021 13.5535 6.39645 13.6472C6.30268 13.741 6.25 13.8682 6.25 14.0008C6.25 14.1334 6.30268 14.2606 6.39645 14.3543C6.49021 14.4481 6.61739 14.5008 6.75 14.5008C6.88261 14.5008 7.00979 14.4481 7.10355 14.3543C7.19732 14.2606 7.25 14.1334 7.25 14.0008Z" fill="black"/>
</svg>
