<svg width="24" height="24" viewBox="0 0 24 24" fill="none" xmlns="http://www.w3.org/2000/svg">
<path d="M6.45616 4.15614C6.15928 3.92489 5.73741 3.95301 5.46866 4.21864L4.21866 5.46864C3.95303 5.73426 3.92491 6.15614 4.15303 6.45614L6.65303 9.70614C6.79366 9.89051 7.01553 9.99989 7.24678 9.99989H8.93741L12.3437 13.4061C11.8843 14.3124 12.0312 15.4499 12.7905 16.2061L16.2905 19.7061C16.6812 20.0968 17.3155 20.0968 17.7062 19.7061L19.7062 17.7061C20.0968 17.3155 20.0968 16.6811 19.7062 16.2905L16.2062 12.7905C15.4499 12.0343 14.3124 11.8843 13.4062 12.3436L9.99991 8.93739V7.24989C9.99991 7.01551 9.89053 6.79676 9.70616 6.65614L6.45616 4.15614ZM4.62178 16.378C4.22491 16.7749 3.99991 17.3155 3.99991 17.878C3.99991 19.0499 4.94991 19.9999 6.12178 19.9999C6.68428 19.9999 7.22491 19.7749 7.62178 19.378L11.303 15.6968C11.0593 15.0436 11.0218 14.3343 11.1905 13.6624L9.26241 11.7343L4.62178 16.378ZM19.9999 8.49989C19.9999 8.17176 19.9655 7.85301 19.8999 7.54676C19.8249 7.19676 19.3968 7.10614 19.1437 7.35926L17.1468 9.35614C17.053 9.44989 16.9249 9.50301 16.7937 9.50301H14.9999C14.7249 9.50301 14.4999 9.27801 14.4999 9.00301V7.20614C14.4999 7.07489 14.553 6.94676 14.6468 6.85301L16.6437 4.85614C16.8968 4.60301 16.8062 4.17489 16.4562 4.09989C16.1468 4.03426 15.828 3.99989 15.4999 3.99989C13.0155 3.99989 10.9999 6.01551 10.9999 8.49989V8.52489L13.6655 11.1905C14.7905 10.9061 16.0343 11.2061 16.9155 12.0874L17.4062 12.578C18.9374 11.8593 19.9999 10.303 19.9999 8.49989ZM5.74991 17.4999C5.74991 17.301 5.82893 17.1102 5.96958 16.9696C6.11023 16.8289 6.301 16.7499 6.49991 16.7499C6.69882 16.7499 6.88959 16.8289 7.03024 16.9696C7.17089 17.1102 7.24991 17.301 7.24991 17.4999C7.24991 17.6988 7.17089 17.8896 7.03024 18.0302C6.88959 18.1709 6.69882 18.2499 6.49991 18.2499C6.301 18.2499 6.11023 18.1709 5.96958 18.0302C5.82893 17.8896 5.74991 17.6988 5.74991 17.4999Z" fill="black"/>
</svg>
