<svg width="24" height="24" viewBox="0 0 24 24" fill="none" xmlns="http://www.w3.org/2000/svg">
<path d="M7 5C5.89688 5 5 5.89688 5 7V17C5 18.1031 5.89688 19 7 19H17C18.1031 19 19 18.1031 19 17V7C19 5.89688 18.1031 5 17 5H7ZM10.5 8H13.75C14.1656 8 14.5 8.33437 14.5 8.75C14.5 9.16563 14.1656 9.5 13.75 9.5H11.125L10.8812 10.8438L12.8 11.0594C14.0531 11.2 15 12.2594 15 13.5219C15 14.8906 13.8906 16 12.5219 16H11.3969C10.5375 16 9.73125 15.5719 9.25313 14.8562L9.125 14.6656C8.89375 14.3219 8.98438 13.8563 9.32812 13.625C9.67188 13.3937 10.1375 13.4844 10.3688 13.8281L10.4969 14.0188C10.6969 14.3188 11.0344 14.4969 11.3969 14.4969H12.5219C13.0625 14.4969 13.5 14.0594 13.5 13.5188C13.5 13.0219 13.125 12.6031 12.6312 12.5469L9.91563 12.2406C9.70938 12.2188 9.52187 12.1094 9.39687 11.9437C9.27187 11.7781 9.225 11.5656 9.25938 11.3625L9.75938 8.6125C9.825 8.25625 10.1344 7.99688 10.4969 7.99688L10.5 8Z" fill="black"/>
</svg>
