<svg width="24" height="24" viewBox="0 0 24 24" fill="none" xmlns="http://www.w3.org/2000/svg">
<path d="M17 4H12.4156C11.8844 4 11.375 4.20938 11 4.58438L8.58437 7C8.20937 7.375 8 7.88438 8 8.41563V15C8 16.1031 8.89688 17 10 17H17C18.1031 17 19 16.1031 19 15V6C19 4.89688 18.1031 4 17 4ZM13.75 6C14.1656 6 14.5 6.33437 14.5 6.75V8.25C14.5 8.66563 14.1656 9 13.75 9C13.3344 9 13 8.66563 13 8.25V6.75C13 6.33437 13.3344 6 13.75 6ZM16.25 6C16.6656 6 17 6.33437 17 6.75V8.25C17 8.66563 16.6656 9 16.25 9C15.8344 9 15.5 8.66563 15.5 8.25V6.75C15.5 6.33437 15.8344 6 16.25 6ZM6.5 7.75C6.5 7.33437 6.16563 7 5.75 7C5.33437 7 5 7.33437 5 7.75V15.75C5 18.0969 6.90313 20 9.25 20H16.25C16.6656 20 17 19.6656 17 19.25C17 18.8344 16.6656 18.5 16.25 18.5H9.25C7.73125 18.5 6.5 17.2687 6.5 15.75V7.75Z" fill="black"/>
</svg>
