<svg width="24" height="24" viewBox="0 0 24 24" fill="none" xmlns="http://www.w3.org/2000/svg">
<path d="M12 6C12.5304 6 13.0391 6.21071 13.4142 6.58579C13.7892 6.96086 14 7.46957 14 8C14 8.53043 13.7892 9.03914 13.4142 9.41421C13.0391 9.78929 12.5304 10 12 10C11.4695 10 10.9608 9.78929 10.5857 9.41421C10.2107 9.03914 9.99996 8.53043 9.99996 8C9.99996 7.46957 10.2107 6.96086 10.5857 6.58579C10.9608 6.21071 11.4695 6 12 6ZM13.7125 15.9688L11.6156 19.4C11.3875 19.7719 10.9843 20 10.5468 20C9.74996 20 9.15621 19.2656 9.32496 18.4875L10.1718 14.5312C10.3625 13.6375 11.1531 13 12.0656 13C13.1343 13 14 13.8781 14 14.9469C14 15.3062 13.9 15.6625 13.7125 15.9688Z" fill="black"/>
</svg>
