<svg width="24" height="24" viewBox="0 0 24 24" fill="none" xmlns="http://www.w3.org/2000/svg">
<path d="M5 8C5 7.44687 5.44687 7 6 7C6.55313 7 7 7.44687 7 8V8.24375C7 9.10938 6.925 9.97188 6.77812 10.8219L4.1375 11.6156C2.86875 11.9937 2 13.1625 2 14.4875V16.7344C2 17.9844 3.01562 19 4.26562 19C5.07812 19 5.82812 18.5656 6.23125 17.8594L6.66563 17.1C7.50313 15.6313 8.11875 14.0469 8.49062 12.3969L11.4406 11.5125L11.05 12.6844C10.9469 12.9906 11 13.325 11.1875 13.5844C11.375 13.8438 11.6781 14 12 14H14.2688C14.4438 13.6969 14.6969 13.4438 15 13.2688V12.5C15 12.3312 15.0125 12.1625 15.0344 12H13.3875L13.95 10.3156C14.0687 9.9625 13.9781 9.57187 13.7188 9.30312C13.4594 9.03437 13.0719 8.93438 12.7125 9.04063L8.8875 10.1906C8.9625 9.54375 9 8.89688 9 8.24375V8C9 6.34375 7.65625 5 6 5C4.34375 5 3 6.34375 3 8V9C3 9.55313 3.44687 10 4 10C4.55313 10 5 9.55313 5 9V8ZM8.55937 15.5C8.35 16.0094 8.11563 16.5094 7.8625 17H14V15.5H8.55937ZM4.7125 13.5312L6.24375 13.0719C5.91875 14.1281 5.47812 15.1469 4.92812 16.1094L4.49688 16.8656C4.45 16.9469 4.3625 17 4.26562 17C4.11875 17 4 16.8812 4 16.7344V14.4875C4 14.0469 4.29063 13.6562 4.7125 13.5281V13.5312ZM18.5 11.5C19.0531 11.5 19.5 11.9469 19.5 12.5V14H17.5V12.5C17.5 11.9469 17.9469 11.5 18.5 11.5ZM16 12.5V14C15.4469 14 15 14.4469 15 15V19C15 19.5531 15.4469 20 16 20H21C21.5531 20 22 19.5531 22 19V15C22 14.4469 21.5531 14 21 14V12.5C21 11.1187 19.8813 10 18.5 10C17.1187 10 16 11.1187 16 12.5Z" fill="black"/>
</svg>
