<svg width="24" height="24" viewBox="0 0 24 24" fill="none" xmlns="http://www.w3.org/2000/svg">
<path d="M12.5562 4.16875C12.2188 3.94375 11.7812 3.94375 11.4438 4.16875L7.19688 7H3.5C2.67188 7 2 7.67188 2 8.5V18.5C2 19.3281 2.67188 20 3.5 20H12H10V17C10 15.8969 10.8969 15 12 15H12.0094H12.025C12.1312 13.8219 12.6094 12.7469 13.3438 11.9031C12.9438 12.125 12.4875 12.25 12 12.25C10.4812 12.25 9.25 11.0188 9.25 9.5C9.25 7.98125 10.4812 6.75 12 6.75C13.5188 6.75 14.75 7.98125 14.75 9.5C14.75 10.0719 14.575 10.6031 14.2781 11.0437C15.1844 10.3875 16.2969 10 17.5 10C19.3594 10 21.0031 10.925 22 12.3375V8.5C22 7.67188 21.3281 7 20.5 7H16.8031L12.5562 4.16875ZM5 10H6C6.275 10 6.5 10.225 6.5 10.5V12.5C6.5 12.775 6.275 13 6 13H5C4.725 13 4.5 12.775 4.5 12.5V10.5C4.5 10.225 4.725 10 5 10ZM5 14H6C6.275 14 6.5 14.225 6.5 14.5V16.5C6.5 16.775 6.275 17 6 17H5C4.725 17 4.5 16.775 4.5 16.5V14.5C4.5 14.225 4.725 14 5 14ZM12 8C11.725 8 11.5 8.225 11.5 8.5V9.5C11.5 9.775 11.725 10 12 10H13C13.275 10 13.5 9.775 13.5 9.5C13.5 9.225 13.275 9 13 9H12.5V8.5C12.5 8.225 12.275 8 12 8ZM22 15.5C22 14.3065 21.5259 13.1619 20.682 12.318C19.8381 11.4741 18.6935 11 17.5 11C16.3065 11 15.1619 11.4741 14.318 12.318C13.4741 13.1619 13 14.3065 13 15.5C13 16.6935 13.4741 17.8381 14.318 18.682C15.1619 19.5259 16.3065 20 17.5 20C18.6935 20 19.8381 19.5259 20.682 18.682C21.5259 17.8381 22 16.6935 22 15.5ZM18.8969 14.1469C19.0906 13.9531 19.4094 13.9531 19.6031 14.1469C19.7969 14.3406 19.7969 14.6594 19.6031 14.8531L17.3531 17.1031C17.1594 17.2969 16.8406 17.2969 16.6469 17.1031L15.3969 15.8531C15.2031 15.6594 15.2031 15.3406 15.3969 15.1469C15.5906 14.9531 15.9094 14.9531 16.1031 15.1469L17 16.0437L18.8969 14.1469Z" fill="black"/>
</svg>
