<svg width="24" height="24" viewBox="0 0 24 24" fill="none" xmlns="http://www.w3.org/2000/svg">
<path d="M15.2937 4.29376C15.6844 3.90314 16.3188 3.90314 16.7094 4.29376L19.7094 7.29376C20.1 7.68439 20.1 8.31876 19.7094 8.70939L18.3313 10.0875C17.7469 10.6719 16.9531 11.0031 16.125 11.0031C15.6281 11.0031 15.1594 10.8875 14.7406 10.6813L11.7094 13.7125L13.2937 15.2969C13.6844 15.6875 13.6844 16.3219 13.2937 16.7125L11.4656 18.5406C10.5281 19.4781 9.25625 20.0063 7.93125 20.0063H5C4.44687 20.0063 4 19.5594 4 19.0063V16.0719C4 14.7469 4.52813 13.475 5.46563 12.5375L7.29375 10.7094C7.68438 10.3188 8.31875 10.3188 8.70937 10.7094L10.2937 12.2938L13.325 9.26251C13.1156 8.84689 13 8.37501 13 7.87814C13 7.05001 13.3281 6.25626 13.9156 5.67189L15.2937 4.29376ZM16 6.41564L15.3281 7.08439C15.1188 7.29376 15 7.58126 15 7.87814C15 8.49689 15.5031 9.00001 16.1219 9.00001C16.4187 9.00001 16.7031 8.88126 16.9156 8.67189L17.5844 8.00001L16 6.41564Z" fill="black"/>
</svg>
