<svg width="24" height="24" viewBox="0 0 24 24" fill="none" xmlns="http://www.w3.org/2000/svg">
<path d="M9.40631 8.425C9.24068 8.775 8.88756 9 8.50006 9H7.00006V15C7.00006 16.1031 7.89693 17 9.00006 17C10.1032 17 11.0001 16.1031 11.0001 15V9C11.0001 6.79063 12.7907 5 15.0001 5C17.2094 5 19.0001 6.79063 19.0001 9V15H20.5001C20.8876 15 21.2407 15.225 21.4063 15.575C21.5719 15.925 21.5188 16.3406 21.2688 16.6406L18.7688 19.6406C18.5782 19.8688 18.2969 20 18.0001 20C17.7032 20 17.4219 19.8688 17.2313 19.6406L14.7313 16.6406C14.4844 16.3438 14.4282 15.9281 14.5938 15.575C14.7594 15.2219 15.1126 15 15.5001 15H17.0001V9C17.0001 7.89688 16.1032 7 15.0001 7C13.8969 7 13.0001 7.89688 13.0001 9V15C13.0001 17.2094 11.2094 19 9.00006 19C6.79068 19 5.00006 17.2094 5.00006 15V9H3.50006C3.11256 9 2.75943 8.775 2.59381 8.425C2.42818 8.075 2.48131 7.65938 2.73131 7.35938L5.23131 4.35938C5.42193 4.13125 5.70318 4 6.00006 4C6.29693 4 6.57818 4.13125 6.76881 4.35938L9.26881 7.35938C9.51568 7.65625 9.57193 8.07188 9.40631 8.425Z" fill="black"/>
</svg>
