<svg width="24" height="24" viewBox="0 0 24 24" fill="none" xmlns="http://www.w3.org/2000/svg">
<path d="M3.975 4.65927C4.05312 4.42802 3.95312 4.17802 3.74063 4.0624C3.52813 3.94677 3.25937 3.9999 3.10938 4.1874L2.875 4.47802C2.30937 5.1874 2 6.0749 2 6.98427C2 9.19052 3.7875 10.9999 6 10.9999V10.4999V9.9999V8.9999V8.4999V7.9999H5.28125C4.38438 7.9999 3.63438 7.32177 3.54375 6.42802C3.51875 6.18427 3.54688 5.93427 3.625 5.70302L3.975 4.65927ZM9.5 6.9999C8.11875 6.9999 7 8.11865 7 9.4999V12.9999C7 14.1561 7.7875 15.1311 8.85313 15.4155L9.71562 18.8624C9.88125 19.5311 10.4812 19.9999 11.1719 19.9999H12.8281C13.5156 19.9999 14.1156 19.5311 14.2844 18.8624L15.1469 15.4155C16.2125 15.1311 17 14.1561 17 12.9999V9.4999C17 8.11865 15.8813 6.9999 14.5 6.9999H9.5ZM9 11.9999C9 11.7347 9.10536 11.4803 9.29289 11.2928C9.48043 11.1053 9.73478 10.9999 10 10.9999C10.2652 10.9999 10.5196 11.1053 10.7071 11.2928C10.8946 11.4803 11 11.7347 11 11.9999C11 12.2651 10.8946 12.5195 10.7071 12.707C10.5196 12.8945 10.2652 12.9999 10 12.9999C9.73478 12.9999 9.48043 12.8945 9.29289 12.707C9.10536 12.5195 9 12.2651 9 11.9999ZM14 10.9999C14.2652 10.9999 14.5196 11.1053 14.7071 11.2928C14.8946 11.4803 15 11.7347 15 11.9999C15 12.2651 14.8946 12.5195 14.7071 12.707C14.5196 12.8945 14.2652 12.9999 14 12.9999C13.7348 12.9999 13.4804 12.8945 13.2929 12.707C13.1054 12.5195 13 12.2651 13 11.9999C13 11.7347 13.1054 11.4803 13.2929 11.2928C13.4804 11.1053 13.7348 10.9999 14 10.9999ZM20.2625 4.05927C20.05 4.1749 19.95 4.42802 20.0281 4.65615L20.375 5.70302C20.4531 5.9374 20.4812 6.18427 20.4562 6.42802C20.3656 7.32177 19.6156 7.9999 18.7188 7.9999H18V8.4999V8.9999V9.9999V10.4999V10.9999C20.2125 10.9999 22 9.19052 22 6.98427C22 6.07802 21.6906 5.19052 21.125 4.48115L20.8906 4.1874C20.7406 3.99677 20.475 3.94365 20.2625 4.05927Z" fill="black"/>
</svg>
