<svg width="24" height="24" viewBox="0 0 24 24" fill="none" xmlns="http://www.w3.org/2000/svg">
<path d="M17 19C18.1031 19 19 18.1031 19 17V7C19 5.89688 18.1031 5 17 5H7C5.89688 5 5 5.89688 5 7V17C5 18.1031 5.89688 19 7 19H17ZM11.4688 14.7812L8.21875 11.5312C7.925 11.2375 7.925 10.7625 8.21875 10.4719C8.5125 10.1813 8.9875 10.1781 9.27812 10.4719L11.9969 13.1906L14.7156 10.4719C15.0094 10.1781 15.4844 10.1781 15.775 10.4719C16.0656 10.7656 16.0687 11.2406 15.775 11.5312L12.5312 14.7812C12.2375 15.075 11.7625 15.075 11.4719 14.7812H11.4688Z" fill="black"/>
</svg>
