<svg width="24" height="24" viewBox="0 0 24 24" fill="none" xmlns="http://www.w3.org/2000/svg">
<path d="M15.9813 5.18751C16.0845 4.64376 15.7313 4.12188 15.1876 4.01563C14.6438 3.90938 14.122 4.26563 14.0157 4.80938L13.9782 4.99688H11.6782C10.9876 9.08438 9.30322 11.2875 7.70322 12.4625C6.88447 13.0656 6.10322 13.3844 5.51884 13.5563C5.32197 13.6125 5.15009 13.6531 5.00322 13.6813L4.01884 18.8125C3.96259 19.1063 4.04072 19.4094 4.23134 19.6375C4.42197 19.8656 4.70322 20 5.00009 20H18.0001H19.0001C19.5532 20 20.0001 19.5531 20.0001 19C20.0001 18.4469 19.5532 18 19.0001 18V15.75C19.0001 15.3656 18.7813 15.0188 18.4376 14.85L14.6251 13H12.5001C12.2251 13 12.0001 12.775 12.0001 12.5C12.0001 12.225 12.2251 12 12.5001 12H14.672L15.0563 10H13.0001C12.7251 10 12.5001 9.77501 12.5001 9.50001C12.5001 9.22501 12.7251 9.00001 13.0001 9.00001H15.2501L15.7907 6.18751L15.9845 5.18751H15.9813ZM5.21259 12.6063C5.22197 12.6031 5.23134 12.6 5.24072 12.5969C5.72822 12.4531 6.40009 12.1813 7.11259 11.6594C8.45634 10.6719 9.99697 8.75626 10.6657 5.00001H7.50009C7.02197 5.00001 6.60947 5.34063 6.51884 5.81251L5.21259 12.6063Z" fill="black"/>
</svg>
