<svg width="24" height="24" viewBox="0 0 24 24" fill="none" xmlns="http://www.w3.org/2000/svg">
<path d="M5 5C3.89688 5 3 5.89688 3 7V17C3 18.1031 3.89688 19 5 19H19C20.1031 19 21 18.1031 21 17V7C21 5.89688 20.1031 5 19 5H5ZM6.75 11.5H12.25C12.6656 11.5 13 11.8344 13 12.25C13 12.6656 12.6656 13 12.25 13H6.75C6.33437 13 6 12.6656 6 12.25C6 11.8344 6.33437 11.5 6.75 11.5ZM14.75 11.5H17.25C17.6656 11.5 18 11.8344 18 12.25C18 12.6656 17.6656 13 17.25 13H14.75C14.3344 13 14 12.6656 14 12.25C14 11.8344 14.3344 11.5 14.75 11.5ZM6.75 14.5H9.25C9.66563 14.5 10 14.8344 10 15.25C10 15.6656 9.66563 16 9.25 16H6.75C6.33437 16 6 15.6656 6 15.25C6 14.8344 6.33437 14.5 6.75 14.5ZM11.75 14.5H17.25C17.6656 14.5 18 14.8344 18 15.25C18 15.6656 17.6656 16 17.25 16H11.75C11.3344 16 11 15.6656 11 15.25C11 14.8344 11.3344 14.5 11.75 14.5Z" fill="black"/>
</svg>
