<svg width="24" height="24" viewBox="0 0 24 24" fill="none" xmlns="http://www.w3.org/2000/svg">
<path d="M19.2374 5.52815C19.2343 5.51253 19.2311 5.4969 19.228 5.48128L15.4155 9.29065C16.503 10.2344 17.8843 10.8469 19.403 10.975C19.6936 9.00628 19.5499 7.05315 19.2343 5.52815H19.2374ZM18.5249 4.76878C18.4905 4.7594 18.4561 4.75315 18.4218 4.7469C16.3718 4.40315 14.5811 4.35628 13.0218 4.5594C13.1436 6.09378 13.7593 7.48753 14.7093 8.5844L18.5249 4.76878ZM17.9374 15.2C18.5561 14.1907 18.9686 13.0844 19.2218 11.9625C17.4999 11.7969 15.9374 11.0844 14.7093 10L12.7093 12L17.078 16.3719C17.3999 16.0032 17.6843 15.6094 17.9343 15.2H17.9374ZM13.9999 9.29378C12.9061 8.05315 12.1905 6.4719 12.0311 4.72815C11.4999 4.84065 10.9999 4.98753 10.528 5.16253C9.37176 5.59065 8.40926 6.19378 7.61863 6.91253L11.9999 11.2938L13.9999 9.29378ZM11.2936 12L6.91863 7.62815C6.59988 7.9969 6.31551 8.39065 6.06238 8.80003C5.44363 9.8094 5.03113 10.9157 4.77801 12.0375C6.49988 12.2032 8.06238 12.9157 9.29051 14L11.2905 12H11.2936ZM9.99988 14.7063C11.0936 15.9469 11.8124 17.5282 11.9686 19.2719C12.4999 19.1594 12.9999 19.0125 13.4718 18.8375C14.628 18.4094 15.5905 17.8063 16.3811 17.0875L11.9999 12.7063L9.99988 14.7063ZM8.58426 14.7094C7.49676 13.7657 6.11551 13.1532 4.59676 13.025C4.30613 14.9938 4.44988 16.9469 4.76551 18.4719C4.76863 18.4875 4.77176 18.5032 4.77488 18.5188L8.58426 14.7094ZM9.29051 15.4157L5.47488 19.2313C5.50926 19.2407 5.54363 19.2469 5.57801 19.2532C7.62801 19.5969 9.41863 19.6438 10.978 19.4407C10.8561 17.9063 10.2405 16.5125 9.29051 15.4157Z" fill="black"/>
</svg>
