<svg width="24" height="24" viewBox="0 0 24 24" fill="none" xmlns="http://www.w3.org/2000/svg">
<path d="M6.21875 4.21872C5.93438 4.50309 5.925 4.95934 6.19688 5.25622L13.25 12.9656V9.68122L7.25625 4.19684C6.95937 3.92497 6.50313 3.93434 6.21875 4.21872ZM14.4375 15.1468L15.9688 16.6781L16.8219 15.825L17.8219 14.825L18.6781 13.9687L14.8531 10.1468C14.7094 10.0031 14.4937 9.96247 14.3094 10.0375C14.125 10.1125 14 10.2968 14 10.5V14.0843C14 14.4812 14.1594 14.8625 14.4406 15.1437L14.4375 15.1468ZM18.3531 15L21.6562 18.3031L21.7656 18.1937C21.9156 18.0437 22 17.8406 22 17.6281C22 17.4156 21.9156 17.2125 21.7656 17.0625L19.0312 14.3218L18.3531 15ZM18 15.3531L17.3531 16L20.6562 19.3031L21.3031 18.6562L18 15.3531ZM17 16.3531L16.3219 17.0312L19.0562 19.7656C19.2062 19.9156 19.4094 20 19.6219 20C19.8344 20 20.0375 19.9156 20.1875 19.7656L20.2969 19.6562L17 16.3531ZM9.7375 10.6062L8.96562 11.3125C8.91562 11.1906 8.81875 11.0875 8.69375 11.0375C8.50625 10.9593 8.29063 11.0031 8.15 11.1468L7.35625 11.9406L7.20312 11.7875C6.8125 11.4031 6.18437 11.4062 5.79688 11.7937C5.40625 12.1843 5.40625 12.8187 5.79688 13.2093L5.94375 13.3562L2.23438 17.0593C2.08437 17.2093 2 17.4125 2 17.625C2 17.8375 2.08437 18.0406 2.23438 18.1906L3.80625 19.7625C3.95625 19.9125 4.15937 19.9968 4.37188 19.9968C4.58438 19.9968 4.7875 19.9125 4.9375 19.7625L8.55937 16.1468C8.84062 15.8656 9 15.4843 9 15.0875V14.8812L11.3219 12.3437L9.7375 10.6093V10.6062ZM14.2 9.19372L17.8031 5.25622C18.075 4.95934 18.0625 4.50309 17.7812 4.21872C17.5 3.93434 17.0406 3.92497 16.7437 4.19684L12.7406 7.85934L14.2 9.19372ZM6.75 14.75C6.75 14.6174 6.80268 14.4902 6.89645 14.3964C6.99021 14.3026 7.11739 14.25 7.25 14.25C7.38261 14.25 7.50979 14.3026 7.60355 14.3964C7.69732 14.4902 7.75 14.6174 7.75 14.75C7.75 14.8826 7.69732 15.0098 7.60355 15.1035C7.50979 15.1973 7.38261 15.25 7.25 15.25C7.11739 15.25 6.99021 15.1973 6.89645 15.1035C6.80268 15.0098 6.75 14.8826 6.75 14.75Z" fill="black"/>
</svg>
