<svg width="24" height="24" viewBox="0 0 24 24" fill="none" xmlns="http://www.w3.org/2000/svg">
<path d="M9.75 5.5H14.25C14.3875 5.5 14.5 5.6125 14.5 5.75V7H9.5V5.75C9.5 5.6125 9.6125 5.5 9.75 5.5ZM8 5.75V7V8V19H16V8V7V5.75C16 4.78438 15.2156 4 14.25 4H9.75C8.78438 4 8 4.78438 8 5.75ZM7 7H6C4.89688 7 4 7.89688 4 9V17C4 18.1031 4.89688 19 6 19H7V7ZM17 19H18C19.1031 19 20 18.1031 20 17V9C20 7.89688 19.1031 7 18 7H17V19ZM11 10.5C11 10.225 11.225 10 11.5 10H12.5C12.775 10 13 10.225 13 10.5V12H14.5C14.775 12 15 12.225 15 12.5V13.5C15 13.775 14.775 14 14.5 14H13V15.5C13 15.775 12.775 16 12.5 16H11.5C11.225 16 11 15.775 11 15.5V14H9.5C9.225 14 9 13.775 9 13.5V12.5C9 12.225 9.225 12 9.5 12H11V10.5Z" fill="black"/>
</svg>
