<svg width="24" height="24" viewBox="0 0 24 24" fill="none" xmlns="http://www.w3.org/2000/svg">
<path d="M9 13.2563C9 13.3188 8.97812 13.3781 8.9375 13.425C8.35312 14.1219 8 15.0187 8 15.9969C8 18.2062 9.79063 19.9969 12 19.9969H15H18C18.5531 19.9969 19 19.55 19 18.9969C19 18.4437 18.5531 17.9969 18 17.9969H17.5C17.8125 17.5781 18 17.0594 18 16.4969C18 15.6781 17.6062 14.9531 17 14.4969C16.5813 14.1844 16.0625 13.9969 15.5 13.9969C15.2063 13.9969 14.9281 14.0469 14.6656 14.1375C14.4062 14.2281 14.1187 14.0938 14.0281 13.8313C13.9375 13.5688 14.0719 13.2844 14.3344 13.1938C14.7 13.0656 15.0938 12.9937 15.5 12.9937C16.0375 12.9937 16.5469 13.1156 17 13.3313V11.5H17.6625C18.4969 11.5 19.2781 11.0812 19.7437 10.3875L20 10C20 8.34375 18.6562 7 17 7V6.35C17 6.15625 16.8437 6 16.65 6C16.175 6 15.7531 6.2375 15.5 6.6C15.2469 6.2375 14.825 6 14.35 6C14.1563 6 14 6.15625 14 6.35V7C14 8.7 13.6719 10.3781 13.0406 11.9375C13.0125 11.875 13 11.8063 13 11.7375V8.5C13 6.01562 10.9844 4 8.5 4C6.01562 4 4 6.01562 4 8.5C4 10.9844 6.01562 13 8.5 13C8.57187 13 8.64375 12.9969 8.71562 12.9937C8.86875 12.9875 9 13.1031 9 13.2563ZM17 8.5C17.1326 8.5 17.2598 8.55268 17.3536 8.64645C17.4473 8.74021 17.5 8.86739 17.5 9C17.5 9.13261 17.4473 9.25979 17.3536 9.35355C17.2598 9.44732 17.1326 9.5 17 9.5C16.8674 9.5 16.7402 9.44732 16.6464 9.35355C16.5527 9.25979 16.5 9.13261 16.5 9C16.5 8.86739 16.5527 8.74021 16.6464 8.64645C16.7402 8.55268 16.8674 8.5 17 8.5Z" fill="black"/>
</svg>
