<svg width="24" height="24" viewBox="0 0 24 24" fill="none" xmlns="http://www.w3.org/2000/svg">
<path d="M15.2937 4.29297C15.6844 3.90234 16.3188 3.90234 16.7094 4.29297L19.7094 7.29297C20.1 7.68359 20.1 8.31797 19.7094 8.70859L18.3313 10.0867C17.7469 10.6711 16.9531 11.0023 16.125 11.0023C15.6281 11.0023 15.1594 10.8867 14.7406 10.6805L11.7094 13.7117L13.2937 15.2961C13.6844 15.6867 13.6844 16.3211 13.2937 16.7117L11.4656 18.5398C10.5281 19.4773 9.25625 20.0055 7.93125 20.0055H5C4.44687 20.0055 4 19.5586 4 19.0055V16.0711C4 14.7461 4.52813 13.4742 5.46563 12.5367L7.29375 10.7086C7.68438 10.318 8.31875 10.318 8.70937 10.7086L10.2937 12.293L13.325 9.26172C13.1156 8.84609 13 8.37422 13 7.87734C13 7.04922 13.3281 6.25547 13.9156 5.67109L15.2937 4.29297ZM16 6.41484L15.3281 7.08359C15.1187 7.29297 15 7.58047 15 7.87734C15 8.49609 15.5031 8.99922 16.1219 8.99922C16.4187 8.99922 16.7031 8.88047 16.9156 8.67109L17.5844 7.99922L16 6.41484Z" fill="black"/>
</svg>
