<svg width="24" height="24" viewBox="0 0 24 24" fill="none" xmlns="http://www.w3.org/2000/svg">
<path d="M8.51859 4.04998C8.90609 4.19998 9.09671 4.63123 8.94984 5.01873L7.93421 7.66248C7.89984 7.75623 7.92171 7.85936 7.99046 7.92811L9.49984 9.44061V8.99998C9.49984 8.00623 10.0811 7.14686 10.9217 6.74373C11.2061 6.60623 11.4998 6.84686 11.4998 7.16248V7.49998C11.4998 7.77498 11.7248 7.99998 11.9998 7.99998C12.2748 7.99998 12.4998 7.77498 12.4998 7.49998V7.16248C12.4998 6.84686 12.7936 6.60936 13.078 6.74373C13.9186 7.14686 14.4998 8.00623 14.4998 8.99998V9.44061L16.0092 7.93123C16.078 7.86248 16.0998 7.75623 16.0655 7.66561L15.0498 5.01873C14.8998 4.63123 15.0936 4.19686 15.4811 4.04998C15.8686 3.90311 16.303 4.09373 16.4498 4.48123L17.4655 7.12498C17.7123 7.77186 17.5592 8.50311 17.0686 8.99061L15.2748 10.7844L17.7873 9.94686C17.8623 9.92186 17.9217 9.86248 17.9467 9.78748L18.5373 8.01248C18.6686 7.61873 19.0936 7.40623 19.4873 7.53748C19.8811 7.66873 20.0936 8.09373 19.9623 8.48748L19.3717 10.2625C19.1967 10.7844 18.7873 11.1937 18.2655 11.3687L16.3717 12L18.2623 12.6312C18.7842 12.8062 19.1936 13.2156 19.3686 13.7375L19.9592 15.5125C20.0905 15.9062 19.878 16.3312 19.4842 16.4625C19.0905 16.5937 18.6655 16.3812 18.5342 15.9875L17.9436 14.2125C17.9186 14.1375 17.8592 14.0781 17.7842 14.0531L15.2717 13.2156L17.0655 15.0094C17.553 15.4969 17.7092 16.2281 17.4623 16.875L16.4467 19.5187C16.2967 19.9062 15.8655 20.0969 15.478 19.95C15.0905 19.8031 14.8998 19.3687 15.0467 18.9812L16.0623 16.3375C16.0967 16.2437 16.0748 16.1406 16.0061 16.0719L14.9998 15.0594C14.9686 16.6875 13.6373 18 11.9998 18C10.3623 18 9.03109 16.6906 8.99984 15.0594L7.99046 16.0687C7.92171 16.1375 7.89984 16.2437 7.93421 16.3344L8.94984 18.9781C9.09984 19.3656 8.90609 19.8 8.51859 19.9469C8.13109 20.0937 7.69671 19.9031 7.54984 19.5156L6.53421 16.875C6.28734 16.2281 6.44046 15.4969 6.93109 15.0094L8.72484 13.2156L6.21234 14.0531C6.13734 14.0781 6.07796 14.1375 6.05296 14.2125L5.46234 15.9875C5.33109 16.3812 4.90609 16.5937 4.51234 16.4625C4.11859 16.3312 3.90609 15.9062 4.03734 15.5125L4.62796 13.7375C4.80296 13.2156 5.21234 12.8062 5.73421 12.6312L7.62796 12L5.73734 11.3687C5.21546 11.1937 4.80609 10.7844 4.63109 10.2625L4.03734 8.48748C3.90609 8.09373 4.11859 7.66873 4.51234 7.53748C4.90609 7.40623 5.33109 7.61873 5.46234 8.01248L6.05296 9.78748C6.07796 9.86248 6.13734 9.92186 6.21234 9.94686L8.72484 10.7844L6.92796 8.99061C6.44046 8.49998 6.28421 7.76873 6.53421 7.12498L7.54984 4.48123C7.69984 4.09373 8.13109 3.90311 8.51859 4.04998ZM10.8248 13.6L11.4998 14.5L10.8248 15.4C10.7748 15.4656 10.7498 15.5437 10.7498 15.625C10.7498 15.8312 10.9186 16 11.1248 16H12.8748C13.0811 16 13.2498 15.8312 13.2498 15.625C13.2498 15.5437 13.2248 15.4656 13.1748 15.4L12.4998 14.5L13.1748 13.6C13.2248 13.5344 13.2498 13.4562 13.2498 13.375C13.2498 13.1687 13.0811 13 12.8748 13H11.1248C10.9186 13 10.7498 13.1687 10.7498 13.375C10.7498 13.4562 10.7748 13.5344 10.8248 13.6Z" fill="black"/>
</svg>
