<svg width="24" height="24" viewBox="0 0 24 24" fill="none" xmlns="http://www.w3.org/2000/svg">
<path d="M19 15.5V8.5C19 6.56562 15.8656 5 12 5C8.13438 5 5 6.56562 5 8.5V15.5C5 17.4344 8.13438 19 12 19C15.8656 19 19 17.4344 19 15.5ZM14.6313 10.2C13.8656 10.3906 12.9656 10.5 12 10.5C10.7281 10.5 9.56875 10.3094 8.6875 9.99687C9.15 9.53437 9.7125 9.1625 10.2937 8.86875C10.9344 8.54688 11.5719 8.3375 12.0719 8.21875C12.6406 9.07187 13.5281 9.77812 14.6344 10.2H14.6313ZM11.4094 6.5125C11.4344 6.7 11.475 6.88437 11.5281 7.06562C10.9875 7.2125 10.3594 7.43437 9.73125 7.75C8.96562 8.13438 8.17187 8.66875 7.53437 9.39687C7.19375 9.12812 7 8.825 7 8.5C7 7.475 8.92813 6.63125 11.4094 6.5125ZM12.6813 6.51875C15.1188 6.65312 17 7.4875 17 8.5C17 8.80625 16.8281 9.09687 16.5188 9.35625C14.3469 9.18437 12.9719 7.84375 12.6813 6.51875Z" fill="black"/>
</svg>
