<svg width="24" height="24" viewBox="0 0 24 24" fill="none" xmlns="http://www.w3.org/2000/svg">
<path d="M19 5.00001C19 4.65313 18.8219 4.33126 18.525 4.15001C18.2281 3.96876 17.8625 3.95001 17.5531 4.10626L16.5531 4.60626C16.0594 4.85313 15.8594 5.45313 16.1062 5.94688C16.2812 6.29688 16.6344 6.50001 17 6.50001V9.00001C16.4469 9.00001 16 9.44688 16 10C16 10.5531 16.4469 11 17 11H18H19C19.5531 11 20 10.5531 20 10C20 9.44688 19.5531 9.00001 19 9.00001V5.00001ZM5 6.00001C4.44687 6.00001 4 6.44688 4 7.00001C4 7.55313 4.44687 8.00001 5 8.00001H5.47812L8.27812 12L5.47812 16H5C4.44687 16 4 16.4469 4 17C4 17.5531 4.44687 18 5 18H6C6.325 18 6.63125 17.8406 6.81875 17.575L9.5 13.7438L12.1812 17.575C12.3687 17.8438 12.675 18 13 18H14C14.5531 18 15 17.5531 15 17C15 16.4469 14.5531 16 14 16H13.5219L10.7219 12L13.5219 8.00001H14C14.5531 8.00001 15 7.55313 15 7.00001C15 6.44688 14.5531 6.00001 14 6.00001H13C12.675 6.00001 12.3687 6.15938 12.1812 6.42501L9.5 10.2563L6.81875 6.42501C6.63125 6.15938 6.325 6.00001 6 6.00001H5Z" fill="black"/>
</svg>
