<svg width="24" height="24" viewBox="0 0 24 24" fill="none" xmlns="http://www.w3.org/2000/svg">
<path d="M4.59373 6.47507C4.02811 5.86882 3.07811 5.84069 2.47498 6.40632C1.87186 6.97194 1.84061 7.92194 2.40623 8.52507L5.85936 12.2094C6.33123 12.7126 6.99373 13.0001 7.68436 13.0001H20.5C21.3281 13.0001 22 12.3282 22 11.5001C22 10.6719 21.3281 10.0001 20.5 10.0001H7.89998L4.59373 6.47507ZM9.49998 18.0001C9.49998 17.8675 9.55266 17.7403 9.64643 17.6465C9.7402 17.5527 9.86738 17.5001 9.99998 17.5001C10.1326 17.5001 10.2598 17.5527 10.3535 17.6465C10.4473 17.7403 10.5 17.8675 10.5 18.0001C10.5 18.1327 10.4473 18.2599 10.3535 18.3536C10.2598 18.4474 10.1326 18.5001 9.99998 18.5001C9.86738 18.5001 9.7402 18.4474 9.64643 18.3536C9.55266 18.2599 9.49998 18.1327 9.49998 18.0001ZM12 18.0001C12 17.8344 11.9781 17.6719 11.9406 17.5157L13.5 16.3813L15.0594 17.5157C15.0219 17.6719 15 17.8344 15 18.0001C15 19.1032 15.8969 20.0001 17 20.0001C18.1031 20.0001 19 19.1032 19 18.0001C19 16.8969 18.1031 16.0001 17 16.0001C16.6125 16.0001 16.25 16.1094 15.9406 16.3032L14.775 15.4563L16.775 14.0032H14.225L13.5 14.5282L12.775 14.0001H10.225L12.225 15.4532L11.0594 16.3001C10.7531 16.1094 10.3906 15.9969 9.99998 15.9969C8.89686 15.9969 7.99998 16.8938 7.99998 17.9969C7.99998 19.1001 8.89686 19.9969 9.99998 19.9969C11.1031 19.9969 12 19.1001 12 17.9969V18.0001ZM17 17.5001C17.1326 17.5001 17.2598 17.5527 17.3535 17.6465C17.4473 17.7403 17.5 17.8675 17.5 18.0001C17.5 18.1327 17.4473 18.2599 17.3535 18.3536C17.2598 18.4474 17.1326 18.5001 17 18.5001C16.8674 18.5001 16.7402 18.4474 16.6464 18.3536C16.5527 18.2599 16.5 18.1327 16.5 18.0001C16.5 17.8675 16.5527 17.7403 16.6464 17.6465C16.7402 17.5527 16.8674 17.5001 17 17.5001Z" fill="black"/>
</svg>
