<svg width="24" height="24" viewBox="0 0 24 24" fill="none" xmlns="http://www.w3.org/2000/svg">
<path d="M17.9907 14L15.6844 13.2344L18.8219 7.925C19.5969 8.75938 20.1375 9.82187 20.3375 11.0125L20.7282 13.3625C20.8532 14.1062 20.1407 14.7125 19.425 14.475L19.2063 14.4031L17.9907 14ZM15.2969 6.06562C16.325 6.21562 17.2719 6.62812 18.0688 7.2375L14.7125 12.9125L13.0969 12.375C12.6407 12.2219 12.1625 12.1562 11.6844 12.175L15.2969 6.06562ZM14.1719 6L10.3625 12.45L6.00316 13.9594L10.7063 6H14.1719ZM3.66566 11.0125C4.14379 8.13125 6.62816 6.01875 9.54691 6L4.54379 14.4625C3.84379 14.6719 3.15629 14.0719 3.27816 13.3406L3.66566 11.0156V11.0125ZM4.00004 16V15.5312C4.26566 15.5531 4.54691 15.5219 4.82504 15.425L10.8563 13.3344C11.4813 13.1188 12.1563 13.1125 12.7844 13.3219L19.2063 15.4531C19.475 15.5437 19.7438 15.5719 20.0032 15.55V16C20.0032 17.1031 19.1063 18 18.0032 18C17.4063 18 16.8688 17.7375 16.5032 17.3219C16.1375 17.7375 15.6 18 15.0032 18C14.4063 18 13.8688 17.7375 13.5032 17.3219C13.1375 17.7375 12.6 18 12.0032 18C11.4063 18 10.8688 17.7375 10.5032 17.3219C10.1375 17.7375 9.60004 18 9.00316 18C8.40629 18 7.86879 17.7375 7.50316 17.3219C7.13441 17.7375 6.59691 18 6.00004 18C4.89691 18 4.00004 17.1031 4.00004 16Z" fill="black"/>
</svg>
