<svg width="24" height="24" viewBox="0 0 24 24" fill="none" xmlns="http://www.w3.org/2000/svg">
<path d="M12.6875 4.39067C12.3031 4.02505 11.6968 4.02505 11.3125 4.39067L9.24996 6.34692L5.24996 10.1344C3.64684 11.6532 3.57809 14.1844 5.09684 15.7907C6.61559 17.3969 9.14684 17.4625 10.7531 15.9438L11.0031 15.7063V18H9.99996C9.44684 18 8.99996 18.4469 8.99996 19C8.99996 19.5532 9.44684 20 9.99996 20H14C14.5531 20 15 19.5532 15 19C15 18.4469 14.5531 18 14 18H13V15.7063L13.25 15.9438C14.8531 17.4625 17.3843 17.3938 18.9062 15.7907C20.4281 14.1875 20.3562 11.6563 18.7531 10.1344L14.75 6.34692L12.6875 4.39067Z" fill="black"/>
</svg>
