<svg width="24" height="24" viewBox="0 0 24 24" fill="none" xmlns="http://www.w3.org/2000/svg">
<path d="M4.59375 6.47494C4.02812 5.86869 3.07812 5.84057 2.475 6.4062C1.87187 6.97182 1.84062 7.92182 2.40625 8.52495L5.85937 12.2093C6.33125 12.7124 6.99375 12.9999 7.68437 12.9999H20.5C21.3281 12.9999 22 12.3281 22 11.4999C22 10.6718 21.3281 9.99994 20.5 9.99994H7.9L4.59375 6.47494ZM9.5 17.9999C9.5 17.8673 9.55268 17.7402 9.64645 17.6464C9.74021 17.5526 9.86739 17.4999 10 17.4999C10.1326 17.4999 10.2598 17.5526 10.3536 17.6464C10.4473 17.7402 10.5 17.8673 10.5 17.9999C10.5 18.1326 10.4473 18.2597 10.3536 18.3535C10.2598 18.4473 10.1326 18.4999 10 18.4999C9.86739 18.4999 9.74021 18.4473 9.64645 18.3535C9.55268 18.2597 9.5 18.1326 9.5 17.9999ZM12 17.9999C12 17.8343 11.9781 17.6718 11.9406 17.5156L13.5 16.3812L15.0594 17.5156C15.0219 17.6718 15 17.8343 15 17.9999C15 19.1031 15.8969 19.9999 17 19.9999C18.1031 19.9999 19 19.1031 19 17.9999C19 16.8968 18.1031 15.9999 17 15.9999C16.6125 15.9999 16.25 16.1093 15.9406 16.3031L14.775 15.4562L16.775 14.0031H14.225L13.5 14.5281L12.775 13.9999H10.225L12.225 15.4531L11.0594 16.2999C10.7531 16.1093 10.3906 15.9968 10 15.9968C8.89687 15.9968 8 16.8937 8 17.9968C8 19.0999 8.89687 19.9968 10 19.9968C11.1031 19.9968 12 19.0999 12 17.9968V17.9999ZM17 17.4999C17.1326 17.4999 17.2598 17.5526 17.3536 17.6464C17.4473 17.7402 17.5 17.8673 17.5 17.9999C17.5 18.1326 17.4473 18.2597 17.3536 18.3535C17.2598 18.4473 17.1326 18.4999 17 18.4999C16.8674 18.4999 16.7402 18.4473 16.6464 18.3535C16.5527 18.2597 16.5 18.1326 16.5 17.9999C16.5 17.8673 16.5527 17.7402 16.6464 17.6464C16.7402 17.5526 16.8674 17.4999 17 17.4999Z" fill="black"/>
</svg>
