<svg width="24" height="24" viewBox="0 0 24 24" fill="none" xmlns="http://www.w3.org/2000/svg">
<path d="M19.9937 4.5812C20.0187 4.42183 19.9687 4.25933 19.853 4.14683C19.7374 4.03433 19.578 3.9812 19.4187 4.0062L17.0499 4.39995C16.5374 4.48433 16.0624 4.7312 15.6937 5.09683L9.20615 11.5843L12.4155 14.7937L18.8999 8.3062C19.2687 7.93745 19.5124 7.46245 19.5968 6.94995L19.9905 4.5812H19.9937ZM6.64678 11.1468L6.14678 11.6468C5.97803 11.8156 5.95303 12.0781 6.08428 12.2781L7.74365 14.7656C7.80928 14.8656 7.79678 14.9968 7.7124 15.0812L6.4749 16.3187C6.40928 16.3843 6.30928 16.4093 6.21865 16.3781L5.15928 16.025C4.98115 15.9656 4.78115 16.0125 4.64678 16.1468L4.14678 16.6468C3.95303 16.8406 3.95303 17.1593 4.14678 17.3531L6.64678 19.8531C6.84053 20.0468 7.15928 20.0468 7.35303 19.8531L7.85303 19.3531C7.9874 19.2187 8.03428 19.0218 7.9749 18.8406L7.62178 17.7812C7.59053 17.6906 7.61553 17.5937 7.68115 17.525L8.91865 16.2875C9.00303 16.2031 9.13428 16.1906 9.23428 16.2562L11.7218 17.9156C11.9187 18.0468 12.1843 18.0218 12.353 17.8531L12.853 17.3531C13.0468 17.1593 13.0468 16.8406 12.853 16.6468L7.35303 11.1468C7.15928 10.9531 6.84053 10.9531 6.64678 11.1468Z" fill="black"/>
</svg>
