<svg width="24" height="24" viewBox="0 0 24 24" fill="none" xmlns="http://www.w3.org/2000/svg">
<path d="M3.21243 4.15943C2.88743 3.90318 2.41556 3.96255 2.15931 4.28755C1.90306 4.61255 1.96243 5.08443 2.28743 5.34068L20.7874 19.8407C21.1124 20.0969 21.5843 20.0376 21.8406 19.7126C22.0968 19.3876 22.0374 18.9157 21.7124 18.6594L19.9999 17.3157V11.0001H17.9999V15.7501L13.9999 12.6157V11.0001H11.9999V11.0469L10.6624 10.0001H20.8499C21.4843 10.0001 21.9999 9.48443 21.9999 8.85005C21.9999 8.62193 21.9312 8.40005 21.8062 8.21255L19.4437 4.6688C19.1656 4.25005 18.6999 4.00005 18.1968 4.00005H5.80306C5.30306 4.00005 4.83431 4.25005 4.55618 4.6688L4.31556 5.02505L3.21243 4.15943ZM3.14993 10.0001H5.80618L2.65618 7.51568L2.19368 8.20943C2.06868 8.40005 1.99993 8.62193 1.99993 8.84693C1.99993 9.48443 2.51556 10.0001 3.14993 10.0001ZM11.9999 16.0001H5.99993V11.0001H3.99993V16.0001V18.5001C3.99993 19.3282 4.67181 20.0001 5.49993 20.0001H12.4999C13.3281 20.0001 13.9999 19.3282 13.9999 18.5001V16.4532L11.9999 14.8782V16.0001ZM18.9999 20.0001H18.9906H19.0093H18.9999Z" fill="black"/>
</svg>
