<svg width="24" height="24" viewBox="0 0 24 24" fill="none" xmlns="http://www.w3.org/2000/svg">
<path d="M8.75 4H9.25C9.66563 4 10 4.33437 10 4.75V6H8V4.75C8 4.33437 8.33437 4 8.75 4ZM4 9C4 7.89688 4.89688 7 6 7H13C14.1031 7 15 7.89688 15 9V18C15 19.1031 14.1031 20 13 20H6C4.89688 20 4 19.1031 4 18V9ZM6 9.5V17.5C6 17.775 6.225 18 6.5 18H12.5C12.775 18 13 17.775 13 17.5V9.5C13 9.225 12.775 9 12.5 9H6.5C6.225 9 6 9.225 6 9.5ZM13 4.75C13 4.33437 13.3344 4 13.75 4H14.25C14.6656 4 15 4.33437 15 4.75V6H13V4.75ZM11.5 4C11.775 4 12 4.225 12 4.5V6H11V4.5C11 4.225 11.225 4 11.5 4ZM16 4.5C16 4.225 16.225 4 16.5 4C16.775 4 17 4.225 17 4.5V12.5C17 12.775 16.775 13 16.5 13C16.225 13 16 12.775 16 12.5V4.5ZM18.75 4H19.25C19.6656 4 20 4.33437 20 4.75V12.25C20 12.6656 19.6656 13 19.25 13H18.75C18.3344 13 18 12.6656 18 12.25V4.75C18 4.33437 18.3344 4 18.75 4Z" fill="black"/>
</svg>
