<svg width="24" height="24" viewBox="0 0 24 24" fill="none" xmlns="http://www.w3.org/2000/svg">
<path d="M14 9C14 7.6875 14.8406 6.57188 16.0156 6.16563L15.5375 4.85625C15.5125 4.7875 15.5 4.7125 15.5 4.6375C15.5 4.28437 15.7844 4 16.1375 4H17.8625C18.2156 4 18.5 4.28437 18.5 4.6375C18.5 4.7125 18.4875 4.78438 18.4625 4.85625L17.9844 6.16563C19.1594 6.57188 20 7.6875 20 9C20 15.075 15.075 20 9 20C7.6875 20 6.57188 19.1594 6.16563 17.9844L4.85625 18.4625C4.7875 18.4875 4.7125 18.5 4.6375 18.5C4.28437 18.5 4 18.2156 4 17.8625V16.1375C4 15.7844 4.28437 15.5 4.6375 15.5C4.7125 15.5 4.78438 15.5125 4.85625 15.5375L6.16563 16.0125C6.57188 14.8406 7.6875 14 9 14C11.7625 14 14 11.7625 14 9ZM16.5 9C16.5 8.725 16.275 8.5 16 8.5C15.725 8.5 15.5 8.725 15.5 9C15.5 12.5906 12.5906 15.5 9 15.5C8.725 15.5 8.5 15.725 8.5 16C8.5 16.275 8.725 16.5 9 16.5C13.1406 16.5 16.5 13.1406 16.5 9Z" fill="black"/>
</svg>
