<svg width="24" height="24" viewBox="0 0 24 24" fill="none" xmlns="http://www.w3.org/2000/svg">
<path d="M19 7H5V10.0938C4.59375 10.0312 4.175 10 3.75 10H3V7C3 5.89688 3.89688 5 5 5H19C20.1031 5 21 5.89688 21 7V17C21 18.1031 20.1031 19 19 19H12V18.25C12 17.825 11.9688 17.4062 11.9062 17H19V7ZM3.75 11C7.75313 11 11 14.2469 11 18.25C11 18.6656 10.6656 19 10.25 19C9.83437 19 9.5 18.6656 9.5 18.25C9.5 15.075 6.925 12.5 3.75 12.5C3.33437 12.5 3 12.1656 3 11.75C3 11.3344 3.33437 11 3.75 11ZM4 17C4.26522 17 4.51957 17.1054 4.70711 17.2929C4.89464 17.4804 5 17.7348 5 18C5 18.2652 4.89464 18.5196 4.70711 18.7071C4.51957 18.8946 4.26522 19 4 19C3.73478 19 3.48043 18.8946 3.29289 18.7071C3.10536 18.5196 3 18.2652 3 18C3 17.7348 3.10536 17.4804 3.29289 17.2929C3.48043 17.1054 3.73478 17 4 17ZM3 14.75C3 14.3344 3.33437 14 3.75 14C6.09687 14 8 15.9031 8 18.25C8 18.6656 7.66563 19 7.25 19C6.83437 19 6.5 18.6656 6.5 18.25C6.5 16.7313 5.26875 15.5 3.75 15.5C3.33437 15.5 3 15.1656 3 14.75Z" fill="black"/>
</svg>
