<svg width="24" height="24" viewBox="0 0 24 24" fill="none" xmlns="http://www.w3.org/2000/svg">
<path d="M5 7C5 5.89688 5.89688 5 7 5H17C18.1031 5 19 5.89688 19 7V17C19 18.1031 18.1031 19 17 19H7C5.89688 19 5 18.1031 5 17V7ZM12.375 8.1C12.1438 7.96562 11.8594 7.96563 11.625 8.09688L9.875 9.09688C9.51562 9.30313 9.39062 9.75938 9.59688 10.1188C9.80313 10.4781 10.2594 10.6031 10.6188 10.3969L11.25 10.0437V14.5H10C9.58437 14.5 9.25 14.8344 9.25 15.25C9.25 15.6656 9.58437 16 10 16H12H14C14.4156 16 14.75 15.6656 14.75 15.25C14.75 14.8344 14.4156 14.5 14 14.5H12.75V8.75C12.75 8.48125 12.6062 8.23438 12.375 8.1Z" fill="black"/>
</svg>
