<svg width="24" height="24" viewBox="0 0 24 24" fill="none" xmlns="http://www.w3.org/2000/svg">
<path d="M11 4C10.4469 4 10 4.44687 10 5C10 5.55313 10.4469 6 11 6H12L10.2 8.4C9.97187 8.70313 9.9375 9.10938 10.1062 9.44688C10.275 9.78438 10.6219 10 11 10H14C14.5531 10 15 9.55313 15 9C15 8.44687 14.5531 8 14 8H13L14.8 5.6C15.0281 5.29688 15.0625 4.89063 14.8937 4.55313C14.725 4.21563 14.3781 4 14 4H11ZM15 11C14.4469 11 14 11.4469 14 12C14 12.5531 14.4469 13 15 13H16L14.2 15.4C13.9719 15.7031 13.9375 16.1094 14.1062 16.4469C14.275 16.7844 14.6219 17 15 17H18C18.5531 17 19 16.5531 19 16C19 15.4469 18.5531 15 18 15H17L18.8 12.6C19.0281 12.2969 19.0625 11.8906 18.8937 11.5531C18.725 11.2156 18.3781 11 18 11H15ZM6 12C5.44687 12 5 12.4469 5 13C5 13.5531 5.44687 14 6 14H8.86562L5.23125 18.3594C4.98437 18.6562 4.92812 19.0719 5.09375 19.425C5.25937 19.7781 5.6125 20 6 20H11C11.5531 20 12 19.5531 12 19C12 18.4469 11.5531 18 11 18H8.13437L11.7687 13.6406C12.0156 13.3438 12.0719 12.9281 11.9062 12.575C11.7406 12.2219 11.3875 12 11 12H6Z" fill="black"/>
</svg>
