<svg width="24" height="24" viewBox="0 0 24 24" fill="none" xmlns="http://www.w3.org/2000/svg">
<path d="M19.9937 4.58126C20.0187 4.42189 19.9687 4.25939 19.853 4.14689C19.7374 4.03439 19.578 3.98126 19.4187 4.00626L17.0499 4.40001C16.5374 4.48439 16.0624 4.73126 15.6937 5.09689L9.20615 11.5844L12.4155 14.7938L18.8999 8.30626C19.2687 7.93751 19.5124 7.46251 19.5968 6.95001L19.9905 4.58126H19.9937ZM6.64678 11.1469L6.14678 11.6469C5.97803 11.8156 5.95303 12.0781 6.08428 12.2781L7.74365 14.7656C7.80928 14.8656 7.79678 14.9969 7.7124 15.0813L6.4749 16.3188C6.40928 16.3844 6.30928 16.4094 6.21865 16.3781L5.15928 16.025C4.98115 15.9656 4.78115 16.0125 4.64678 16.1469L4.14678 16.6469C3.95303 16.8406 3.95303 17.1594 4.14678 17.3531L6.64678 19.8531C6.84053 20.0469 7.15928 20.0469 7.35303 19.8531L7.85303 19.3531C7.9874 19.2188 8.03428 19.0219 7.9749 18.8406L7.62178 17.7813C7.59053 17.6906 7.61553 17.5938 7.68115 17.525L8.91865 16.2875C9.00303 16.2031 9.13428 16.1906 9.23428 16.2563L11.7218 17.9156C11.9187 18.0469 12.1843 18.0219 12.353 17.8531L12.853 17.3531C13.0468 17.1594 13.0468 16.8406 12.853 16.6469L7.35303 11.1469C7.15928 10.9531 6.84053 10.9531 6.64678 11.1469Z" fill="black"/>
</svg>
