<svg width="24" height="24" viewBox="0 0 24 24" fill="none" xmlns="http://www.w3.org/2000/svg">
<path d="M12.7156 4.52188C12.6156 4.2125 12.3281 4 12 4C11.6719 4 11.3844 4.2125 11.2844 4.52188L9.70311 9.5H4.74999C4.42811 9.5 4.14374 9.70312 4.04061 10.0062C3.93749 10.3094 4.03749 10.6437 4.29061 10.8406L8.37811 14.0219L6.78436 19.0219C6.68436 19.3344 6.79999 19.6781 7.06874 19.8656C7.33749 20.0531 7.69999 20.0438 7.95936 19.8438L12 16.7L16.0406 19.8406C16.3 20.0437 16.6594 20.0531 16.9312 19.8625C17.2031 19.6719 17.3156 19.3344 17.2156 19.0188L15.6219 14.0219L19.7094 10.8406C19.9625 10.6437 20.0625 10.3094 19.9594 10.0062C19.8562 9.70312 19.5719 9.5 19.25 9.5H14.2969L12.7156 4.52188Z" fill="black"/>
</svg>
