<svg width="24" height="24" viewBox="0 0 24 24" fill="none" xmlns="http://www.w3.org/2000/svg">
<path d="M12 4H15.5C15.775 4 16 4.225 16 4.5V6.5C16 6.775 15.775 7 15.5 7H13.0219L15.8219 9H19C20.1031 9 21 9.89687 21 11V18C21 19.1031 20.1031 20 19 20H13.5V16.5C13.5 15.6719 12.8281 15 12 15C11.1719 15 10.5 15.6719 10.5 16.5V20H5C3.89688 20 3 19.1031 3 18V11C3 9.89687 3.89688 9 5 9H8.17812L11 6.98438V5C11 4.44687 11.4469 4 12 4ZM13.5 11.5C13.5 11.1022 13.342 10.7206 13.0607 10.4393C12.7794 10.158 12.3978 10 12 10C11.6022 10 11.2206 10.158 10.9393 10.4393C10.658 10.7206 10.5 11.1022 10.5 11.5C10.5 11.8978 10.658 12.2794 10.9393 12.5607C11.2206 12.842 11.6022 13 12 13C12.3978 13 12.7794 12.842 13.0607 12.5607C13.342 12.2794 13.5 11.8978 13.5 11.5ZM5.5 11C5.225 11 5 11.225 5 11.5V13.5C5 13.775 5.225 14 5.5 14H6.5C6.775 14 7 13.775 7 13.5V11.5C7 11.225 6.775 11 6.5 11H5.5ZM17 11.5V13.5C17 13.775 17.225 14 17.5 14H18.5C18.775 14 19 13.775 19 13.5V11.5C19 11.225 18.775 11 18.5 11H17.5C17.225 11 17 11.225 17 11.5ZM5.5 15C5.225 15 5 15.225 5 15.5V17.5C5 17.775 5.225 18 5.5 18H6.5C6.775 18 7 17.775 7 17.5V15.5C7 15.225 6.775 15 6.5 15H5.5ZM17.5 15C17.225 15 17 15.225 17 15.5V17.5C17 17.775 17.225 18 17.5 18H18.5C18.775 18 19 17.775 19 17.5V15.5C19 15.225 18.775 15 18.5 15H17.5Z" fill="black"/>
</svg>
