<svg width="24" height="24" viewBox="0 0 24 24" fill="none" xmlns="http://www.w3.org/2000/svg">
<path d="M4.16563 5.12502L5.66563 6.12502C6.00938 6.35627 6.10313 6.8219 5.875 7.16565C5.64687 7.5094 5.17812 7.60315 4.83437 7.37502L3.33438 6.37502C2.99063 6.14377 2.89688 5.67815 3.125 5.3344C3.35312 4.99065 3.82188 4.8969 4.16563 5.12502ZM20.6656 6.37502L19.1656 7.37502C18.8219 7.60627 18.3563 7.51252 18.125 7.16565C17.8938 6.81877 17.9875 6.35627 18.3344 6.12502L19.8344 5.12502C20.1781 4.89377 20.6437 4.98752 20.875 5.3344C21.1063 5.68127 21.0125 6.14377 20.6656 6.37502ZM2.75 10H4.75C5.16563 10 5.5 10.3344 5.5 10.75C5.5 11.1656 5.16563 11.5 4.75 11.5H2.75C2.33437 11.5 2 11.1656 2 10.75C2 10.3344 2.33437 10 2.75 10ZM19.25 10H21.25C21.6656 10 22 10.3344 22 10.75C22 11.1656 21.6656 11.5 21.25 11.5H19.25C18.8344 11.5 18.5 11.1656 18.5 10.75C18.5 10.3344 18.8344 10 19.25 10ZM6.5 15L7.28125 8.75315C7.40625 7.75315 8.25625 7.00002 9.26562 7.00002H14.7344C15.7437 7.00002 16.5938 7.75002 16.7188 8.75315L17.5 15H9.31563L9.99687 9.56252C10.0312 9.28752 9.8375 9.03752 9.5625 9.00315C9.2875 8.96877 9.0375 9.16252 9.00313 9.43752L8.30937 15H6.5ZM5 17C5 16.4469 5.44688 16 6 16H18C18.5531 16 19 16.4469 19 17V18C19 18.5531 18.5531 19 18 19H6C5.44688 19 5 18.5531 5 18V17Z" fill="black"/>
</svg>
