<svg width="24" height="24" viewBox="0 0 24 24" fill="none" xmlns="http://www.w3.org/2000/svg">
<path d="M14 7H10L8.51875 4.77812C8.29688 4.44375 8.53437 4 8.93437 4H15.0656C15.4656 4 15.7031 4.44375 15.4812 4.77812L14 7ZM10 8H14C14.1187 8.07812 14.2531 8.16562 14.4062 8.2625C16.1781 9.39687 20 11.8406 20 17C20 18.6562 18.6562 20 17 20H7C5.34375 20 4 18.6562 4 17C4 11.8406 7.82188 9.39687 9.59375 8.2625C9.74375 8.16562 9.88125 8.07812 10 8ZM12.625 10.75C12.625 10.4062 12.3438 10.125 12 10.125C11.6562 10.125 11.375 10.4062 11.375 10.75V11.1875C11.1375 11.2406 10.9 11.325 10.6813 11.4531C10.2469 11.7125 9.87187 12.1656 9.875 12.825C9.87813 13.4594 10.25 13.8594 10.6469 14.0969C10.9906 14.3031 11.4188 14.4344 11.7594 14.5344L11.8125 14.55C12.2063 14.6687 12.4937 14.7625 12.6875 14.8844C12.8469 14.9844 12.8687 15.0531 12.8719 15.1406C12.875 15.2969 12.8156 15.3906 12.6875 15.4688C12.5312 15.5656 12.2844 15.625 12.0188 15.6156C11.6719 15.6031 11.3469 15.4938 10.9219 15.35C10.85 15.325 10.775 15.3 10.6969 15.275C10.3688 15.1656 10.0156 15.3438 9.90625 15.6687C9.79688 15.9937 9.975 16.35 10.3 16.4594C10.3594 16.4781 10.425 16.5 10.4906 16.525C10.75 16.6156 11.05 16.7188 11.3719 16.7875V17.25C11.3719 17.5938 11.6531 17.875 11.9969 17.875C12.3406 17.875 12.6219 17.5938 12.6219 17.25V16.8188C12.8719 16.7656 13.1219 16.6781 13.3469 16.5375C13.7937 16.2594 14.1312 15.7844 14.1219 15.1313C14.1125 14.4969 13.7562 14.0875 13.3531 13.8313C12.9937 13.6062 12.5438 13.4688 12.1938 13.3625L12.1719 13.3562C11.7719 13.2344 11.4875 13.1469 11.2875 13.0281C11.125 12.9312 11.1219 12.875 11.1219 12.8188C11.1219 12.7031 11.1656 12.6156 11.3156 12.5281C11.4844 12.4281 11.7406 12.3687 11.9875 12.3719C12.2875 12.375 12.6187 12.4406 12.9625 12.5344C13.2969 12.6219 13.6375 12.425 13.7281 12.0906C13.8187 11.7562 13.6188 11.4156 13.2844 11.325C13.0813 11.2719 12.8562 11.2188 12.625 11.1781V10.75Z" fill="black"/>
</svg>
