<svg width="24" height="24" viewBox="0 0 24 24" fill="none" xmlns="http://www.w3.org/2000/svg">
<path d="M3.21255 4.15937C2.88755 3.90312 2.41568 3.96249 2.15943 4.28749C1.90318 4.61249 1.96255 5.08437 2.28755 5.34062L20.7876 19.8406C21.1126 20.0969 21.5844 20.0375 21.8407 19.7125C22.0969 19.3875 22.0376 18.9156 21.7126 18.6594L19.0001 16.5344V16V11.8937C18.8751 11.925 18.7501 11.95 18.6157 11.9656H18.6126C18.4469 11.9875 18.2782 12 18.1063 12C17.7188 12 17.3469 11.9406 17.0001 11.8344V14.9656L11.4126 10.5844C11.6313 10.4469 11.8282 10.2812 12.0001 10.0937C12.4969 10.6437 13.2219 11 14.0376 11C14.8563 11 15.5782 10.6437 16.0751 10.0937C16.5751 10.6437 17.2969 11 18.1126 11C18.2407 11 18.3657 10.9906 18.4907 10.975C20.2251 10.7437 21.0469 8.70937 20.1188 7.24374L18.3219 4.40937C18.1626 4.15624 17.8782 3.99999 17.5751 3.99999H6.42505C6.12193 3.99999 5.83755 4.15624 5.67818 4.40937L4.9688 5.53437L3.21255 4.15937ZM18.0907 19.6781L13.4219 16H7.00005V11.8312C6.65005 11.9406 6.27505 12 5.88755 12C5.71568 12 5.5438 11.9875 5.37818 11.9656H5.37505C5.24693 11.9469 5.12193 11.925 5.00005 11.8937V16V18C5.00005 19.1031 5.89693 20 7.00005 20H17.0001C17.4032 20 17.7751 19.8812 18.0907 19.6781ZM6.85318 10.825L3.52818 8.20312C3.33755 9.47187 4.13755 10.7906 5.5063 10.975C5.6313 10.9906 5.75943 11 5.88443 11C6.22818 11 6.55318 10.9375 6.85318 10.825Z" fill="black"/>
</svg>
