<svg width="24" height="24" viewBox="0 0 24 24" fill="none" xmlns="http://www.w3.org/2000/svg">
<path d="M14.6592 8.39375C14.5967 8.51562 14.6092 8.6625 14.6967 8.76875C14.9155 9.03438 15.0999 9.33437 15.2342 9.65625L16.7499 9.00625V7.75C16.7499 7.33437 17.0842 7 17.4999 7C17.9155 7 18.2499 7.33437 18.2499 7.75V8.3625L18.953 8.05937C19.3342 7.89687 19.7749 8.07188 19.9374 8.45312C20.0999 8.83437 19.9249 9.275 19.5436 9.4375L17.7936 10.1875L15.4936 11.1719C15.478 11.4688 15.428 11.7531 15.3436 12.025C15.3061 12.1437 15.3405 12.275 15.4311 12.3625C16.3967 13.2781 16.9999 14.5688 16.9999 16C16.9999 17.3969 16.428 18.6562 15.5061 19.5656C15.1967 19.8688 14.7655 20 14.3342 20H9.66548C9.23111 20 8.79986 19.8688 8.49361 19.5656C7.57173 18.6562 6.99986 17.3969 6.99986 16C6.99986 14.5688 7.60298 13.2781 8.56548 12.3656C8.65611 12.2781 8.69048 12.15 8.65298 12.0281C8.56861 11.7562 8.51861 11.4688 8.50298 11.175L6.20298 10.1906L4.45298 9.44063C4.07486 9.275 3.89673 8.83437 4.05923 8.45312C4.22173 8.07188 4.66236 7.89687 5.04361 8.05937L5.74986 8.3625V7.75C5.74986 7.33437 6.08423 7 6.49986 7C6.91548 7 7.24986 7.33437 7.24986 7.75V9.00625L8.76861 9.65625C8.90298 9.33437 9.08423 9.03438 9.30611 8.76875C9.39361 8.6625 9.40923 8.51562 9.34361 8.39375C9.12486 7.975 8.99986 7.50312 8.99986 7C8.99986 5.34375 10.3436 4 11.9999 4C13.6561 4 14.9999 5.34375 14.9999 7C14.9999 7.50312 14.8749 7.975 14.6592 8.39375ZM10.9999 7C11.1325 7 11.2596 6.94732 11.3534 6.85355C11.4472 6.75979 11.4999 6.63261 11.4999 6.5C11.4999 6.36739 11.4472 6.24021 11.3534 6.14645C11.2596 6.05268 11.1325 6 10.9999 6C10.8672 6 10.7401 6.05268 10.6463 6.14645C10.5525 6.24021 10.4999 6.36739 10.4999 6.5C10.4999 6.63261 10.5525 6.75979 10.6463 6.85355C10.7401 6.94732 10.8672 7 10.9999 7ZM12.4999 11C12.4999 10.8674 12.4472 10.7402 12.3534 10.6464C12.2596 10.5527 12.1325 10.5 11.9999 10.5C11.8672 10.5 11.7401 10.5527 11.6463 10.6464C11.5525 10.7402 11.4999 10.8674 11.4999 11C11.4999 11.1326 11.5525 11.2598 11.6463 11.3536C11.7401 11.4473 11.8672 11.5 11.9999 11.5C12.1325 11.5 12.2596 11.4473 12.3534 11.3536C12.4472 11.2598 12.4999 11.1326 12.4999 11ZM11.9999 13.5C12.1325 13.5 12.2596 13.4473 12.3534 13.3536C12.4472 13.2598 12.4999 13.1326 12.4999 13C12.4999 12.8674 12.4472 12.7402 12.3534 12.6464C12.2596 12.5527 12.1325 12.5 11.9999 12.5C11.8672 12.5 11.7401 12.5527 11.6463 12.6464C11.5525 12.7402 11.4999 12.8674 11.4999 13C11.4999 13.1326 11.5525 13.2598 11.6463 13.3536C11.7401 13.4473 11.8672 13.5 11.9999 13.5ZM12.4999 15C12.4999 14.8674 12.4472 14.7402 12.3534 14.6464C12.2596 14.5527 12.1325 14.5 11.9999 14.5C11.8672 14.5 11.7401 14.5527 11.6463 14.6464C11.5525 14.7402 11.4999 14.8674 11.4999 15C11.4999 15.1326 11.5525 15.2598 11.6463 15.3536C11.7401 15.4473 11.8672 15.5 11.9999 15.5C12.1325 15.5 12.2596 15.4473 12.3534 15.3536C12.4472 15.2598 12.4999 15.1326 12.4999 15ZM12.9999 7C13.1325 7 13.2596 6.94732 13.3534 6.85355C13.4472 6.75979 13.4999 6.63261 13.4999 6.5C13.4999 6.36739 13.4472 6.24021 13.3534 6.14645C13.2596 6.05268 13.1325 6 12.9999 6C12.8672 6 12.7401 6.05268 12.6463 6.14645C12.5525 6.24021 12.4999 6.36739 12.4999 6.5C12.4999 6.63261 12.5525 6.75979 12.6463 6.85355C12.7401 6.94732 12.8672 7 12.9999 7ZM11.4999 7.75V7.85C11.4999 7.95 11.5249 8.04688 11.5717 8.13125L11.853 8.65938C11.8811 8.7125 11.9374 8.74687 11.9999 8.74687C12.0624 8.74687 12.1186 8.7125 12.1467 8.65938L12.428 8.13125C12.4749 8.04375 12.4999 7.94687 12.4999 7.85V7.75C12.4999 7.475 12.2749 7.25 11.9999 7.25C11.7249 7.25 11.4999 7.475 11.4999 7.75Z" fill="black"/>
</svg>
