<svg width="24" height="24" viewBox="0 0 24 24" fill="none" xmlns="http://www.w3.org/2000/svg">
<path d="M11.4438 4.16875C11.7781 3.94375 12.2188 3.94375 12.5531 4.16875L16.8031 7H20.5C21.3281 7 22 7.67188 22 8.5V12.5C22 10.5656 20.4344 9 18.5 9C16.5656 9 15 10.5656 15 12.5V13.2688C14.4031 13.6156 14 14.2594 14 15H12.0094H12C10.8969 15 10 15.8969 10 17V20H12H3.5C2.67188 20 2 19.3281 2 18.5V8.5C2 7.67188 2.67188 7 3.5 7H7.19688L11.4438 4.16875ZM4.5 10.5V12.5C4.5 12.775 4.725 13 5 13H6C6.275 13 6.5 12.775 6.5 12.5V10.5C6.5 10.225 6.275 10 6 10H5C4.725 10 4.5 10.225 4.5 10.5ZM4.5 14.5V16.5C4.5 16.775 4.725 17 5 17H6C6.275 17 6.5 16.775 6.5 16.5V14.5C6.5 14.225 6.275 14 6 14H5C4.725 14 4.5 14.225 4.5 14.5ZM12 12.25C12.7293 12.25 13.4288 11.9603 13.9445 11.4445C14.4603 10.9288 14.75 10.2293 14.75 9.5C14.75 8.77065 14.4603 8.07118 13.9445 7.55546C13.4288 7.03973 12.7293 6.75 12 6.75C11.2707 6.75 10.5712 7.03973 10.0555 7.55546C9.53973 8.07118 9.25 8.77065 9.25 9.5C9.25 10.2293 9.53973 10.9288 10.0555 11.4445C10.5712 11.9603 11.2707 12.25 12 12.25ZM12.5 8.5V9H13C13.275 9 13.5 9.225 13.5 9.5C13.5 9.775 13.275 10 13 10H12C11.725 10 11.5 9.775 11.5 9.5V8.5C11.5 8.225 11.725 8 12 8C12.275 8 12.5 8.225 12.5 8.5ZM18.5 11.5C17.9469 11.5 17.5 11.9469 17.5 12.5V14H19.5V12.5C19.5 11.9469 19.0531 11.5 18.5 11.5ZM16 12.5C16 11.1188 17.1187 10 18.5 10C19.8813 10 21 11.1188 21 12.5V14C21.5531 14 22 14.4469 22 15V19C22 19.5531 21.5531 20 21 20H16C15.4469 20 15 19.5531 15 19V15C15 14.4469 15.4469 14 16 14V12.5Z" fill="black"/>
</svg>
