<svg width="24" height="24" viewBox="0 0 24 24" fill="none" xmlns="http://www.w3.org/2000/svg">
<path d="M8.99992 3.99998C9.55304 3.99998 9.99992 4.44685 9.99992 4.99998V5.9406L10.4687 5.47185C10.7624 5.1781 11.2374 5.1781 11.528 5.47185C11.8187 5.7656 11.8218 6.2406 11.528 6.53123L9.99679 8.06248V10.2594L11.9155 9.1406L12.4687 7.07498C12.5749 6.67498 12.9874 6.43748 13.3874 6.54373C13.7874 6.64998 14.0249 7.06248 13.9187 7.46248L13.7562 8.0656L14.4937 7.63435C14.9718 7.35623 15.5843 7.51873 15.8624 7.99373C16.1405 8.46873 15.9812 9.08435 15.503 9.36248L14.7124 9.82498L15.3905 10.0062C15.7905 10.1125 16.028 10.525 15.9218 10.925C15.8155 11.325 15.403 11.5625 15.003 11.4562L12.8874 10.8906L10.9843 12L12.8874 13.1094L15.003 12.5437C15.403 12.4375 15.8155 12.675 15.9218 13.075C16.028 13.475 15.7905 13.8875 15.3905 13.9937L14.7124 14.175L15.503 14.6375C15.9812 14.9156 16.1405 15.5281 15.8624 16.0062C15.5843 16.4844 14.9718 16.6437 14.4937 16.3656L13.7562 15.9344L13.9187 16.5375C14.0249 16.9375 13.7874 17.35 13.3874 17.4562C12.9874 17.5625 12.5749 17.325 12.4687 16.925L11.9155 14.8594L9.99992 13.7406V15.9375L11.5312 17.4687C11.8249 17.7625 11.8249 18.2375 11.5312 18.5281C11.2374 18.8187 10.7624 18.8218 10.4718 18.5281L10.003 18.0594V19C10.003 19.5531 9.55617 20 9.00304 20C8.44992 20 8.00304 19.5531 8.00304 19V18.0594L7.53429 18.5281C7.24054 18.8218 6.76554 18.8218 6.47492 18.5281C6.18429 18.2344 6.18117 17.7593 6.47492 17.4687L8.00617 15.9375V13.7406L6.08742 14.8594L5.53429 16.925C5.42804 17.325 5.01554 17.5625 4.61554 17.4562C4.21554 17.35 3.97804 16.9375 4.08429 16.5375L4.24679 15.9344L3.50304 16.3625C3.02491 16.6406 2.41241 16.4781 2.13429 16.0031C1.85617 15.5281 2.01867 14.9125 2.49367 14.6343L3.28429 14.1719L2.60616 13.9906C2.20616 13.8844 1.96867 13.4718 2.07492 13.0718C2.18117 12.6719 2.59367 12.4344 2.99366 12.5406L5.10929 13.1062L7.01554 12L5.11242 10.8906L2.99679 11.4562C2.59679 11.5625 2.18429 11.325 2.07804 10.925C1.97179 10.525 2.20929 10.1125 2.60929 10.0062L3.28742 9.82498L2.49679 9.36248C2.01866 9.08435 1.85929 8.47185 2.13742 7.99685C2.41554 7.52185 3.02804 7.35935 3.50617 7.63748L4.24367 8.06873L4.08117 7.4656C3.97492 7.0656 4.21241 6.6531 4.61242 6.54685C5.01242 6.4406 5.42492 6.6781 5.53117 7.0781L6.08429 9.14373L7.99992 10.2594V8.05935L6.46867 6.53123C6.17492 6.23748 6.17492 5.76248 6.46867 5.47185C6.76241 5.18123 7.23741 5.1781 7.52804 5.47185L7.99679 5.9406V4.99998C7.99679 4.44685 8.44367 3.99998 8.99679 3.99998H8.99992ZM17.2187 4.21873C17.5124 3.92498 17.9874 3.92498 18.278 4.21873L18.9968 4.93748L19.7187 4.21873C20.0124 3.92498 20.4874 3.92498 20.778 4.21873C21.0687 4.51248 21.0718 4.98748 20.778 5.2781L20.0593 5.99685L20.778 6.7156C21.0718 7.00935 21.0718 7.48435 20.778 7.77498C20.4843 8.0656 20.0093 8.06873 19.7187 7.77498L18.9999 7.05623L18.2812 7.77498C17.9874 8.06873 17.5124 8.06873 17.2218 7.77498C16.9312 7.48123 16.928 7.00623 17.2218 6.7156L17.9405 5.99685L17.2187 5.28123C16.9249 4.98748 16.9249 4.51248 17.2187 4.22185V4.21873ZM18.2187 10.2187C18.5124 9.92498 18.9874 9.92498 19.278 10.2187L19.9968 10.9375L20.7155 10.2187C21.0093 9.92498 21.4843 9.92498 21.7749 10.2187C22.0655 10.5125 22.0687 10.9875 21.7749 11.2781L21.0562 11.9969L21.7749 12.7156C22.0687 13.0093 22.0687 13.4844 21.7749 13.775C21.4812 14.0656 21.0062 14.0687 20.7155 13.775L19.9968 13.0562L19.278 13.775C18.9843 14.0687 18.5093 14.0687 18.2187 13.775C17.928 13.4812 17.9249 13.0062 18.2187 12.7156L18.9374 11.9969L18.2187 11.2781C17.9249 10.9844 17.9249 10.5094 18.2187 10.2187Z" fill="black"/>
</svg>
