<svg width="24" height="24" viewBox="0 0 24 24" fill="none" xmlns="http://www.w3.org/2000/svg">
<path d="M20 4C20.5531 4 21 4.44687 21 5V19C21 19.5531 20.5531 20 20 20C19.4469 20 19 19.5531 19 19V5C19 4.44687 19.4469 4 20 4ZM16 7C16.5531 7 17 7.44687 17 8V19C17 19.5531 16.5531 20 16 20C15.4469 20 15 19.5531 15 19V8C15 7.44687 15.4469 7 16 7ZM13 11V19C13 19.5531 12.5531 20 12 20C11.4469 20 11 19.5531 11 19V11C11 10.4469 11.4469 10 12 10C12.5531 10 13 10.4469 13 11ZM8 13C8.55313 13 9 13.4469 9 14V19C9 19.5531 8.55313 20 8 20C7.44687 20 7 19.5531 7 19V14C7 13.4469 7.44687 13 8 13ZM5 17V19C5 19.5531 4.55313 20 4 20C3.44687 20 3 19.5531 3 19V17C3 16.4469 3.44687 16 4 16C4.55313 16 5 16.4469 5 17Z" fill="black"/>
</svg>
