<svg width="24" height="24" viewBox="0 0 24 24" fill="none" xmlns="http://www.w3.org/2000/svg">
<path d="M7.00022 14.2935L8.58459 12.7091L11.2908 15.4154L9.70647 16.9997L10.3533 17.6466C10.5471 17.8404 10.5471 18.1591 10.3533 18.3529L9.85334 18.8529C9.70647 18.9997 9.48459 19.0404 9.29709 18.956L7.35959 18.0966L5.60334 19.8529C5.40959 20.0466 5.09084 20.0466 4.89709 19.8529L4.14709 19.1029C3.95334 18.9091 3.95334 18.5904 4.14709 18.3966L5.90334 16.6404L5.04397 14.7029C4.95959 14.5122 5.00022 14.2935 5.14709 14.1466L5.64709 13.6466C5.84084 13.4529 6.15959 13.4529 6.35334 13.6466L7.00022 14.2935ZM19.1408 7.56848L15.4158 11.2935L12.7096 8.58723L16.4315 4.85911C16.6408 4.64973 16.9065 4.50598 17.1971 4.44973L19.4033 4.00911C19.5658 3.97786 19.7377 4.02786 19.8565 4.14661C19.9752 4.26536 20.0252 4.43411 19.994 4.59973L19.5502 6.79973C19.4908 7.09036 19.3502 7.35598 19.1408 7.56536V7.56848ZM4.14709 4.14661C4.26584 4.02786 4.43459 3.97786 4.59709 4.00911L6.80022 4.44973C7.09084 4.50911 7.35647 4.64973 7.56584 4.85911L16.294 13.5841L13.5877 16.2904L4.85959 7.56848C4.65022 7.35911 4.50647 7.09348 4.45022 6.80286L4.00959 4.59661C3.97834 4.43411 4.02834 4.26536 4.14709 4.14661ZM18.3533 13.6466L18.8533 14.1466C19.0002 14.2935 19.0408 14.5154 18.9565 14.7029L18.0971 16.6404L19.8533 18.3966C20.0471 18.5904 20.0471 18.9091 19.8533 19.1029L19.1033 19.8529C18.9096 20.0466 18.5908 20.0466 18.3971 19.8529L16.6408 18.0966L14.7033 18.956C14.5127 19.0404 14.294 18.9997 14.1471 18.8529L13.6471 18.3529C13.4533 18.1591 13.4533 17.8404 13.6471 17.6466L17.6471 13.6466C17.8408 13.4529 18.1596 13.4529 18.3533 13.6466Z" fill="black"/>
</svg>
