<svg width="24" height="24" viewBox="0 0 24 24" fill="none" xmlns="http://www.w3.org/2000/svg">
<path d="M19.6344 4.22792C19.8656 4.41542 20 4.6998 20 4.9998V9.4998C20 10.3279 19.1031 10.9998 18 10.9998C16.8969 10.9998 16 10.3279 16 9.4998C16 8.67167 16.8969 7.9998 18 7.9998V6.21855L15 6.81855V10.4998C15 11.3279 14.1031 11.9998 13 11.9998C11.8969 11.9998 11 11.3279 11 10.4998C11 9.67167 11.8969 8.9998 13 8.9998V5.9998C13 5.52167 13.3375 5.1123 13.8031 5.01855L18.8031 4.01855C19.0969 3.95917 19.4 4.0373 19.6344 4.2248V4.22792ZM5 3.9998H10C10.5531 3.9998 11 4.44667 11 4.9998C11 5.55292 10.5531 5.9998 10 5.9998H5C4.44687 5.9998 4 5.55292 4 4.9998C4 4.44667 4.44687 3.9998 5 3.9998ZM19.7063 14.706L14.7063 19.706C14.3156 20.0967 13.6812 20.0967 13.2906 19.706C12.9 19.3154 12.9 18.681 13.2906 18.2904L18.2906 13.2904C18.6812 12.8998 19.3156 12.8998 19.7063 13.2904C20.0969 13.681 20.0969 14.3154 19.7063 14.706ZM4 7.9998C4 7.44667 4.44687 6.9998 5 6.9998H7.5H10C10.5531 6.9998 11 7.44667 11 7.9998C11 8.55292 10.5531 8.9998 10 8.9998H8.5V9.9998C8.5 10.5529 8.05313 10.9998 7.5 10.9998C6.94687 10.9998 6.5 10.5529 6.5 9.9998V8.9998H5C4.44687 8.9998 4 8.55292 4 7.9998ZM13 14.2498C13 13.9183 13.1317 13.6003 13.3661 13.3659C13.6005 13.1315 13.9185 12.9998 14.25 12.9998C14.5815 12.9998 14.8995 13.1315 15.1339 13.3659C15.3683 13.6003 15.5 13.9183 15.5 14.2498C15.5 14.5813 15.3683 14.8993 15.1339 15.1337C14.8995 15.3681 14.5815 15.4998 14.25 15.4998C13.9185 15.4998 13.6005 15.3681 13.3661 15.1337C13.1317 14.8993 13 14.5813 13 14.2498ZM18.75 17.4998C19.0815 17.4998 19.3995 17.6315 19.6339 17.8659C19.8683 18.1003 20 18.4183 20 18.7498C20 19.0813 19.8683 19.3993 19.6339 19.6337C19.3995 19.8681 19.0815 19.9998 18.75 19.9998C18.4185 19.9998 18.1005 19.8681 17.8661 19.6337C17.6317 19.3993 17.5 19.0813 17.5 18.7498C17.5 18.4183 17.6317 18.1003 17.8661 17.8659C18.1005 17.6315 18.4185 17.4998 18.75 17.4998ZM8.2375 15.6873L8.55937 16.0248L9.29375 15.2904C9.68437 14.8998 10.3187 14.8998 10.7094 15.2904C11.1 15.681 11.1 16.3154 10.7094 16.706L9.9375 17.4779L10.725 18.3123C11.1062 18.7123 11.0875 19.3467 10.6875 19.7248C10.2875 20.1029 9.65313 20.0873 9.275 19.6873L8.52187 18.8935L8.12187 19.2935C7.66875 19.7467 7.05313 19.9998 6.41563 19.9998C5.08125 19.9998 4 18.9185 4 17.5842V17.556C4 16.9498 4.225 16.3623 4.63437 15.9123L5.04375 15.4623C4.70313 15.0717 4.5 14.5592 4.5 13.9998C4.5 12.756 5.50625 11.7498 6.75 11.7498C7.99375 11.7498 9 12.756 9 13.9998C9 14.6717 8.70625 15.2748 8.2375 15.6873ZM6.1125 17.2592C6.0375 17.3404 5.99688 17.4467 5.99688 17.556V17.5842C5.99688 17.8123 6.18125 17.9998 6.4125 17.9998C6.52187 17.9998 6.62812 17.956 6.70625 17.8779L7.14375 17.4404L6.53437 16.7967L6.11562 17.2592H6.1125ZM7.25 13.9998C7.25 13.8672 7.19732 13.74 7.10355 13.6462C7.00979 13.5525 6.88261 13.4998 6.75 13.4998C6.61739 13.4998 6.49021 13.5525 6.39645 13.6462C6.30268 13.74 6.25 13.8672 6.25 13.9998C6.25 14.1324 6.30268 14.2596 6.39645 14.3533C6.49021 14.4471 6.61739 14.4998 6.75 14.4998C6.88261 14.4998 7.00979 14.4471 7.10355 14.3533C7.19732 14.2596 7.25 14.1324 7.25 13.9998Z" fill="black"/>
</svg>
