<svg width="24" height="24" viewBox="0 0 24 24" fill="none" xmlns="http://www.w3.org/2000/svg">
<path d="M13 7C13 6.44687 13.4469 6 14 6C14.5531 6 15 6.44687 15 7C15 7.55313 15.4469 8 16 8C16.5531 8 17 7.55313 17 7C17 5.34375 15.6562 4 14 4C12.3438 4 11 5.34375 11 7V13H9V12.25C9 11.2844 8.21562 10.5 7.25 10.5H5.75C5.33437 10.5 5 10.8344 5 11.25C5 11.6656 5.33437 12 5.75 12H7.25C7.3875 12 7.5 12.1125 7.5 12.25V13H5C4.44687 13 4 13.4469 4 14C4 14.5531 4.44687 15 5 15H12H19C19.5531 15 20 14.5531 20 14C20 13.4469 19.5531 13 19 13H16.5V12.25C16.5 12.1125 16.6125 12 16.75 12H18.5C18.9156 12 19.25 11.6656 19.25 11.25C19.25 10.8344 18.9156 10.5 18.5 10.5H16.75C15.7844 10.5 15 11.2844 15 12.25V13H13V7ZM19 17V16H5V17C5 18.6562 6.34375 20 8 20H16C17.6562 20 19 18.6562 19 17Z" fill="black"/>
</svg>
