<svg width="24" height="24" viewBox="0 0 24 24" fill="none" xmlns="http://www.w3.org/2000/svg">
<path d="M11 4.49919C11 4.28044 11.1406 4.08669 11.35 4.02107C11.5593 3.95544 11.7843 4.03357 11.9093 4.21169L18.9093 14.2117C19.0156 14.3648 19.0281 14.5648 18.9437 14.7304C18.8593 14.8961 18.6875 14.9992 18.5 14.9992H11.5C11.225 14.9992 11 14.7742 11 14.4992V4.49919ZM9.62808 7.01482C9.84683 7.07419 9.99995 7.27107 9.99995 7.49919V14.4992C9.99995 14.7742 9.77495 14.9992 9.49995 14.9992H5.49995C5.32183 14.9992 5.1562 14.9054 5.0687 14.7492C4.9812 14.5929 4.97808 14.4054 5.06558 14.2492L9.06558 7.24919C9.17808 7.05232 9.40933 6.95544 9.62808 7.01482ZM3.17808 16.6336C3.08745 16.3148 3.32808 15.9992 3.65933 15.9992H20.3406C20.6718 15.9992 20.9125 16.3148 20.8218 16.6336L20.6968 17.0804C20.2093 18.8086 18.6375 19.9992 16.8437 19.9992H7.1562C5.36245 19.9992 3.79058 18.8086 3.30308 17.0836L3.17808 16.6367V16.6336Z" fill="black"/>
</svg>
