<svg width="24" height="24" viewBox="0 0 24 24" fill="none" xmlns="http://www.w3.org/2000/svg">
<path d="M4 12C4 7.58125 7.58125 4 12 4C13.0312 4 14.0188 4.19688 14.925 4.55313C15.1563 4.64375 15.2844 4.8875 15.2312 5.12812C15.1781 5.36875 14.9563 5.53438 14.7094 5.51562C14.5594 5.50625 14.4063 5.5 14.2531 5.5C10.6625 5.5 7.75312 8.40937 7.75312 12C7.75312 15.5906 10.6625 18.5 14.2531 18.5C14.4063 18.5 14.5594 18.4938 14.7094 18.4844C14.9563 18.4688 15.1781 18.6312 15.2312 18.8719C15.2844 19.1125 15.1563 19.3562 14.925 19.4469C14.0188 19.8031 13.0312 20 12 20C7.58125 20 4 16.4187 4 12ZM15.7312 8.29375C15.8406 8.07187 16.1594 8.07187 16.2688 8.29375L17.2531 10.2875C17.2969 10.375 17.3812 10.4375 17.4781 10.4531L19.6781 10.7719C19.925 10.8062 20.0219 11.1094 19.8438 11.2844L18.2531 12.8344C18.1813 12.9031 18.15 13.0031 18.1656 13.1L18.5406 15.2906C18.5812 15.5344 18.325 15.7219 18.1062 15.6062L16.1375 14.5719C16.05 14.525 15.9469 14.525 15.8594 14.5719L13.8906 15.6062C13.6719 15.7219 13.4125 15.5344 13.4563 15.2906L13.8313 13.1C13.8469 13.0031 13.8156 12.9031 13.7437 12.8344L12.1562 11.2844C11.9781 11.1094 12.075 10.8094 12.3219 10.7719L14.5219 10.4531C14.6188 10.4375 14.7031 10.3781 14.7469 10.2875L15.7312 8.29375Z" fill="black"/>
</svg>
