<svg width="24" height="24" viewBox="0 0 24 24" fill="none" xmlns="http://www.w3.org/2000/svg">
<path d="M13.7812 5.28123L12.2812 6.78123C11.9875 7.07498 11.5125 7.07498 11.2218 6.78123C10.9312 6.48748 10.9281 6.01248 11.2218 5.72185L12.7187 4.21873C13.0125 3.92498 13.4875 3.92498 13.7781 4.21873C14.0687 4.51248 14.0718 4.98748 13.7781 5.2781L13.7812 5.28123ZM9.32497 8.91873C9.59997 8.35935 10.3968 8.35935 10.6718 8.91873L12.1187 11.8562L15.3531 12.3281C15.9687 12.4187 16.2125 13.1719 15.7687 13.6062L13.4281 15.8937L13.9812 19.1219C14.0875 19.7344 13.4437 20.2031 12.8937 19.9125L9.99997 18.3875L7.10309 19.9125C6.55309 20.2031 5.90934 19.7344 6.01559 19.1219L6.56872 15.8937L4.22497 13.6062C3.78122 13.1719 4.02809 12.4156 4.64059 12.3281L7.87497 11.8562L9.32184 8.91873H9.32497ZM19.7812 10.2187C20.075 10.5125 20.075 10.9875 19.7812 11.2781L18.2812 12.7781C17.9875 13.0719 17.5125 13.0719 17.2218 12.7781C16.9312 12.4844 16.9281 12.0094 17.2218 11.7187L18.7218 10.2187C19.0156 9.92498 19.4906 9.92498 19.7812 10.2187ZM19.7812 5.28123L15.2812 9.78123C14.9875 10.075 14.5125 10.075 14.2218 9.78123C13.9312 9.48748 13.9281 9.01248 14.2218 8.72185L18.7187 4.21873C19.0125 3.92498 19.4875 3.92498 19.7781 4.21873C20.0687 4.51248 20.0718 4.98748 19.7781 5.2781L19.7812 5.28123Z" fill="black"/>
</svg>
