<svg width="24" height="24" viewBox="0 0 24 24" fill="none" xmlns="http://www.w3.org/2000/svg">
<path d="M17 19C18.1031 19 19 18.1031 19 17V7C19 5.89688 18.1031 5 17 5H7C5.89688 5 5 5.89688 5 7V17C5 18.1031 5.89688 19 7 19H17ZM15 16C14.4469 16 14 15.5531 14 15V9C14 8.44688 14.4469 8 15 8C15.5531 8 16 8.44688 16 9V15C16 15.5531 15.5531 16 15 16ZM13 11C13 11.5531 12.5531 12 12 12C11.4469 12 11 11.5531 11 11V9C11 8.44688 11.4469 8 12 8C12.5531 8 13 8.44688 13 9V11ZM9 14C8.44688 14 8 13.5531 8 13V9C8 8.44688 8.44688 8 9 8C9.55312 8 10 8.44688 10 9V13C10 13.5531 9.55312 14 9 14Z" fill="black"/>
</svg>
