<svg width="24" height="24" viewBox="0 0 24 24" fill="none" xmlns="http://www.w3.org/2000/svg">
<path d="M9.31243 4.72812C9.82805 4.25937 10.4999 4 11.1968 4H11.2312C12.7593 4 13.9999 5.24062 13.9999 6.76875C13.9999 7.50312 13.7093 8.20625 13.1906 8.725L7.22493 14.6906C7.08118 14.8344 6.99993 15.0312 6.99993 15.2344C6.99993 15.6562 7.34368 16 7.76868 16C7.9718 16 8.16868 15.9187 8.31243 15.775L15.2749 8.80937C15.7937 8.29062 16.4968 8 17.2312 8C18.7593 8 19.9999 9.24063 19.9999 10.7688C19.9999 11.5031 19.7093 12.2063 19.1906 12.725L16.4343 15.4812C16.1593 15.7562 16.0031 16.1344 16.0031 16.525C16.0031 17.3375 16.6624 17.9969 17.4718 17.9969C17.6656 17.9969 17.8593 17.95 18.0343 17.8656L18.5562 17.6031C19.0499 17.3562 19.6499 17.5563 19.8968 18.05C20.1437 18.5438 19.9437 19.1437 19.4499 19.3906L18.9249 19.6562C18.4718 19.8812 17.9749 20 17.4687 20C15.5499 20 13.9999 18.4406 13.9999 16.5281C13.9999 15.6062 14.3656 14.7219 15.0187 14.0688L17.7749 11.3125C17.9187 11.1688 17.9999 10.9719 17.9999 10.7688C17.9999 10.3438 17.6562 10 17.2312 10C17.0281 10 16.8312 10.0812 16.6874 10.225L9.72493 17.1906C9.20618 17.7094 8.50305 18 7.76868 18C6.24055 18 4.99993 16.7594 4.99993 15.2312C4.99993 14.4969 5.29055 13.7937 5.8093 13.275L11.7749 7.30938C11.9187 7.16563 11.9999 6.96875 11.9999 6.76562C11.9999 6.34375 11.6562 6 11.2312 6H11.1968C10.9968 6 10.8031 6.075 10.6562 6.20937L5.6718 10.7406C5.26243 11.1125 4.63118 11.0813 4.2593 10.6719C3.88743 10.2625 3.91868 9.63125 4.32805 9.25938L9.31243 4.72812Z" fill="black"/>
</svg>
