<svg width="24" height="24" viewBox="0 0 24 24" fill="none" xmlns="http://www.w3.org/2000/svg">
<path d="M10.5 5C10.5 4.44687 10.9469 4 11.5 4H12.5C13.0531 4 13.5 4.44687 13.5 5V9.40312L17.3125 7.20312C17.7906 6.92812 18.4031 7.09062 18.6781 7.56875L19.1781 8.43437C19.4531 8.9125 19.2906 9.525 18.8125 9.8L15 12L18.8125 14.2C19.2906 14.475 19.4531 15.0875 19.1781 15.5656L18.6781 16.4312C18.4031 16.9094 17.7906 17.075 17.3125 16.7969L13.5 14.5969V19C13.5 19.5531 13.0531 20 12.5 20H11.5C10.9469 20 10.5 19.5531 10.5 19V14.5969L6.6875 16.8C6.20938 17.075 5.59688 16.9125 5.32188 16.4344L4.82188 15.5688C4.54688 15.0906 4.70938 14.4781 5.1875 14.2031L9 12L5.1875 9.8C4.70938 9.525 4.54688 8.9125 4.82188 8.43437L5.32188 7.56875C5.59688 7.0875 6.20938 6.925 6.6875 7.2L10.5 9.4V5Z" fill="black"/>
</svg>
