<svg width="24" height="24" viewBox="0 0 24 24" fill="none" xmlns="http://www.w3.org/2000/svg">
<path d="M7 5C5.89688 5 5 5.89688 5 7V17C5 18.1031 5.89688 19 7 19H17C18.1031 19 19 18.1031 19 17V7C19 5.89688 18.1031 5 17 5H7ZM12 8C12.2844 8 12.5438 8.15938 12.6719 8.41563L15.9219 14.9156C16.1063 15.2875 15.9562 15.7375 15.5875 15.9219C15.2187 16.1063 14.7656 15.9562 14.5813 15.5875L14.0375 14.5H9.9625L9.41875 15.5844C9.23437 15.9563 8.78437 16.1062 8.4125 15.9187C8.04062 15.7312 7.89062 15.2844 8.07812 14.9125L11.3281 8.4125C11.4562 8.15937 11.7156 7.99688 12 7.99688V8ZM12 10.4281L10.7125 13H13.2844L12 10.4281Z" fill="black"/>
</svg>
