<svg width="24" height="24" viewBox="0 0 24 24" fill="none" xmlns="http://www.w3.org/2000/svg">
<path d="M3.21249 4.15931C2.88749 3.90306 2.41562 3.96243 2.15937 4.28743C1.90312 4.61243 1.96249 5.08431 2.28749 5.34056L20.7875 19.8406C21.1125 20.0968 21.5844 20.0374 21.8406 19.7124C22.0969 19.3874 22.0375 18.9156 21.7125 18.6593L18.8469 16.4124C19.5812 15.1093 20 13.6031 20 11.9999C20 9.87181 19.2594 7.91556 18.025 6.37493C17.6781 5.94368 17.05 5.87493 16.6187 6.21868C16.1875 6.56243 16.1187 7.19368 16.4625 7.62493C17.4219 8.82493 17.9969 10.3437 17.9969 11.9999C17.9969 13.1374 17.725 14.2124 17.2437 15.1593L16.0344 14.2093C16.3312 13.5312 16.4969 12.7843 16.4969 11.9968C16.4969 10.5874 15.9656 9.30306 15.0969 8.33118C14.7281 7.91868 14.0969 7.88431 13.6844 8.25306C13.2719 8.62181 13.2375 9.25306 13.6062 9.66556C14.1625 10.2843 14.4969 11.1031 14.4969 11.9999C14.4969 12.3156 14.4562 12.6218 14.3781 12.9124L12.7031 11.5999C12.5219 10.8281 11.8281 10.2499 11 10.2499C10.9937 10.2499 10.9875 10.2499 10.9844 10.2499L3.21249 4.15931ZM5.85937 10.0406C5.62812 10.6499 5.49999 11.3093 5.49999 11.9999C5.49999 13.4093 6.03124 14.6937 6.89999 15.6656C7.26874 16.0781 7.89999 16.1124 8.31249 15.7437C8.72499 15.3749 8.75937 14.7437 8.39062 14.3312C7.83437 13.7124 7.49999 12.8937 7.49999 11.9968C7.49999 11.7843 7.51874 11.5749 7.55624 11.3749L5.85937 10.0374V10.0406ZM3.03124 7.81243C2.37187 9.06243 1.99999 10.4874 1.99999 11.9999C1.99999 14.1281 2.74062 16.0843 3.97499 17.6249C4.32187 18.0562 4.94999 18.1249 5.38124 17.7812C5.81249 17.4374 5.88124 16.8062 5.53749 16.3749C4.57499 15.1749 3.99999 13.6562 3.99999 11.9999C3.99999 10.9562 4.22812 9.96556 4.63749 9.07806L3.03124 7.81243Z" fill="black"/>
</svg>
