<svg width="24" height="24" viewBox="0 0 24 24" fill="none" xmlns="http://www.w3.org/2000/svg">
<path d="M8.94996 5.01879C9.09996 4.63129 8.90621 4.19691 8.51871 4.05004C8.13121 3.90316 7.69683 4.09379 7.54996 4.48129L6.53433 7.12504C6.28746 7.77191 6.44058 8.50316 6.93121 8.99066L8.72496 10.7844L6.21246 9.94691C6.13746 9.92191 6.07808 9.86254 6.05308 9.78754L5.46246 8.01254C5.33121 7.61879 4.90621 7.40629 4.51246 7.53754C4.11871 7.66879 3.90621 8.09379 4.03746 8.48754L4.62808 10.2625C4.80308 10.7844 5.21246 11.1938 5.73433 11.3688L7.62808 12L5.73746 12.6313C5.21558 12.8063 4.80621 13.2157 4.63121 13.7375L4.03746 15.5125C3.90621 15.9063 4.11871 16.3313 4.51246 16.4625C4.90621 16.5938 5.33121 16.3813 5.46246 15.9875L6.05308 14.2125C6.07808 14.1375 6.13746 14.0782 6.21246 14.0532L8.72496 13.2157L6.92808 15.0094C6.44058 15.5 6.28433 16.2313 6.53433 16.875L7.54996 19.5188C7.69996 19.9063 8.13121 20.0969 8.51871 19.95C8.90621 19.8032 9.09683 19.3688 8.94996 18.9813L7.93433 16.3375C7.89996 16.2438 7.92183 16.1407 7.99058 16.0719L8.99996 15.0594C9.03121 16.6875 10.3625 18 12 18C13.6375 18 14.9687 16.6907 15 15.0594L16.0093 16.0688C16.0781 16.1375 16.1 16.2438 16.0656 16.3344L15.05 18.9782C14.9 19.3657 15.0937 19.8 15.4812 19.9469C15.8687 20.0938 16.3031 19.9032 16.45 19.5157L17.4656 16.875C17.7125 16.2282 17.5593 15.4969 17.0687 15.0094L15.275 13.2157L17.7875 14.0532C17.8625 14.0782 17.9218 14.1375 17.9468 14.2125L18.5375 15.9875C18.6687 16.3813 19.0937 16.5938 19.4875 16.4625C19.8812 16.3313 20.0937 15.9063 19.9625 15.5125L19.3718 13.7375C19.1968 13.2157 18.7875 12.8063 18.2656 12.6313L16.3718 12L18.2625 11.3688C18.7843 11.1938 19.1937 10.7844 19.3687 10.2625L19.9593 8.48754C20.0906 8.09379 19.8781 7.66879 19.4843 7.53754C19.0906 7.40629 18.6656 7.61879 18.5343 8.01254L17.9437 9.78754C17.9187 9.86254 17.8593 9.92191 17.7843 9.94691L15.2718 10.7844L17.0656 8.99066C17.5531 8.50316 17.7093 7.77191 17.4625 7.12504L16.45 4.48129C16.3 4.09379 15.8687 3.90004 15.4812 4.05004C15.0937 4.20004 14.9031 4.63129 15.05 5.01879L16.0656 7.66254C16.1 7.75629 16.0781 7.85941 16.0093 7.92816L14.5 9.44066V9.00004C14.5 8.00629 13.9187 7.14691 13.0781 6.74379C12.7937 6.60629 12.5 6.84691 12.5 7.16254V7.50004C12.5 7.77504 12.275 8.00004 12 8.00004C11.725 8.00004 11.5 7.77504 11.5 7.50004V7.16254C11.5 6.84691 11.2062 6.60941 10.9218 6.74379C10.0812 7.14691 9.49996 8.00629 9.49996 9.00004V9.44066L7.99058 7.93129C7.92183 7.86254 7.89996 7.75629 7.93433 7.66566L8.94996 5.02191V5.01879Z" fill="black"/>
</svg>
