<svg width="24" height="24" viewBox="0 0 24 24" fill="none" xmlns="http://www.w3.org/2000/svg">
<path d="M17.7812 4.2187L18.7812 5.2187L19.7812 6.2187C20.075 6.51245 20.075 6.98745 19.7812 7.27808C19.4875 7.5687 19.0125 7.57183 18.7218 7.27808L18.2531 6.80933L17.0593 7.99995L18.7781 9.7187C19.0718 10.0125 19.0718 10.4875 18.7781 10.7781C18.4843 11.0687 18.0093 11.0718 17.7187 10.7781L15.4687 8.52808L13.2187 6.2812C12.925 5.98745 12.925 5.51245 13.2187 5.22183C13.5125 4.9312 13.9875 4.92808 14.2781 5.22183L15.9968 6.94058L17.1906 5.74995L16.7187 5.2812C16.425 4.98745 16.425 4.51245 16.7187 4.22183C17.0125 3.9312 17.4875 3.92808 17.7781 4.22183L17.7812 4.2187ZM10.5718 8.86558L12.4812 6.9562C12.4906 6.96558 12.5 6.97808 12.5125 6.98745L13.0125 7.48745L14.7625 9.23745L16.5125 10.9875L17.0125 11.4875C17.0218 11.4968 17.0312 11.5062 17.0437 11.5187L11.075 17.4875C10.7468 17.8156 10.3031 18 9.83745 18H7.05933L5.2812 19.7812C4.98745 20.075 4.51245 20.075 4.22183 19.7812C3.9312 19.4875 3.92808 19.0125 4.22183 18.7218L6.00308 16.9406V14.1656C6.00308 13.7 6.18745 13.2562 6.51558 12.9281L7.8687 11.575L9.64995 13.3562C9.8437 13.55 10.1625 13.55 10.3562 13.3562C10.55 13.1625 10.55 12.8437 10.3562 12.65L8.57495 10.8687L9.8687 9.57495L11.65 11.3562C11.8437 11.55 12.1625 11.55 12.3562 11.3562C12.55 11.1625 12.55 10.8437 12.3562 10.65L10.575 8.8687L10.5718 8.86558Z" fill="black"/>
</svg>
