<svg width="24" height="24" viewBox="0 0 24 24" fill="none" xmlns="http://www.w3.org/2000/svg">
<path d="M6.38125 6.21797C6.8125 6.56484 6.88125 7.19297 6.5375 7.62422C5.575 8.82422 5 10.343 5 11.9992C5 13.6555 5.575 15.1742 6.53437 16.3742C6.88125 16.8055 6.80937 17.4336 6.37812 17.7805C5.94687 18.1273 5.31875 18.0555 4.97187 17.6242C3.74062 16.0836 3 14.1273 3 11.9992C3 9.87109 3.74063 7.91484 4.975 6.37422C5.32188 5.94297 5.95 5.87422 6.38125 6.21797ZM17.6219 6.21797C18.0531 5.87109 18.6813 5.94297 19.0281 6.37422C20.2594 7.91484 21 9.87109 21 11.9992C21 14.1273 20.2594 16.0836 19.025 17.6242C18.6781 18.0555 18.05 18.1242 17.6187 17.7805C17.1875 17.4367 17.1187 16.8055 17.4625 16.3742C18.4219 15.1742 18.9969 13.6555 18.9969 11.9992C18.9969 10.343 18.4219 8.82422 17.4625 7.62422C17.1156 7.19297 17.1875 6.56484 17.6187 6.21797H17.6219ZM10.25 11.9992C10.25 11.5351 10.4344 11.09 10.7626 10.7618C11.0908 10.4336 11.5359 10.2492 12 10.2492C12.4641 10.2492 12.9092 10.4336 13.2374 10.7618C13.5656 11.09 13.75 11.5351 13.75 11.9992C13.75 12.4633 13.5656 12.9085 13.2374 13.2367C12.9092 13.5648 12.4641 13.7492 12 13.7492C11.5359 13.7492 11.0908 13.5648 10.7626 13.2367C10.4344 12.9085 10.25 12.4633 10.25 11.9992ZM9.39062 9.66484C8.83438 10.2836 8.5 11.1023 8.5 11.9992C8.5 12.8961 8.8375 13.7117 9.39062 14.3336C9.75938 14.7461 9.725 15.3773 9.3125 15.7461C8.9 16.1148 8.26875 16.0805 7.9 15.668C7.03125 14.693 6.5 13.4086 6.5 11.9992C6.5 10.5898 7.03125 9.30547 7.9 8.33359C8.26875 7.92109 8.9 7.88672 9.3125 8.25547C9.725 8.62422 9.75938 9.25547 9.39062 9.66797V9.66484ZM16.1 8.33047C16.9688 9.30547 17.5 10.5898 17.5 11.9992C17.5 13.4086 16.9688 14.693 16.1 15.6648C15.7313 16.0773 15.1 16.1117 14.6875 15.743C14.275 15.3742 14.2406 14.743 14.6094 14.3305C15.1656 13.7117 15.5 12.893 15.5 11.9961C15.5 11.0992 15.1625 10.2836 14.6094 9.66172C14.2406 9.24922 14.275 8.61797 14.6875 8.24922C15.1 7.88047 15.7313 7.91484 16.1 8.32734V8.33047Z" fill="black"/>
</svg>
