<svg width="24" height="24" viewBox="0 0 24 24" fill="none" xmlns="http://www.w3.org/2000/svg">
<path d="M4 5C2.89688 5 2 5.89688 2 7V17C2 18.1031 2.89688 19 4 19H9.03125C9.0125 18.875 9 18.7469 9 18.6156C9 18.2031 9.10625 17.7969 9.30937 17.4375L14.0094 9.15625C14.4156 8.44063 15.175 7.99688 16 7.99688V7C16 5.89688 15.1031 5 14 5H4ZM5.5 7.75V12.25C5.5 12.6656 5.16563 13 4.75 13C4.33437 13 4 12.6656 4 12.25V7.75C4 7.33437 4.33437 7 4.75 7C5.16563 7 5.5 7.33437 5.5 7.75ZM8.5 7.75V12.25C8.5 12.6656 8.16563 13 7.75 13C7.33437 13 7 12.6656 7 12.25V7.75C7 7.33437 7.33437 7 7.75 7C8.16563 7 8.5 7.33437 8.5 7.75ZM10.1812 17.9312C10.0625 18.1406 10 18.375 10 18.6156C10 19.3813 10.6187 20 11.3844 20H20.6156C21.3813 20 22 19.3813 22 18.6156C22 18.375 21.9375 18.1406 21.8188 17.9312L17.1187 9.65C16.8906 9.25 16.4625 9 16 9C15.5375 9 15.1094 9.25 14.8813 9.65312L10.1812 17.9344V17.9312ZM16.5 12.5V15.25C16.5 15.525 16.275 15.75 16 15.75C15.725 15.75 15.5 15.525 15.5 15.25V12.5C15.5 12.225 15.725 12 16 12C16.275 12 16.5 12.225 16.5 12.5ZM16 16.75C16.1989 16.75 16.3897 16.829 16.5303 16.9697C16.671 17.1103 16.75 17.3011 16.75 17.5C16.75 17.6989 16.671 17.8897 16.5303 18.0303C16.3897 18.171 16.1989 18.25 16 18.25C15.8011 18.25 15.6103 18.171 15.4697 18.0303C15.329 17.8897 15.25 17.6989 15.25 17.5C15.25 17.3011 15.329 17.1103 15.4697 16.9697C15.6103 16.829 15.8011 16.75 16 16.75Z" fill="black"/>
</svg>
