<svg width="24" height="24" viewBox="0 0 24 24" fill="none" xmlns="http://www.w3.org/2000/svg">
<path d="M15.2969 4.03756C15.4532 4.10318 15.5657 4.24381 15.5969 4.40943L16.2188 7.78131L19.5907 8.40006C19.7563 8.43131 19.8969 8.54381 19.9626 8.70006C20.0282 8.85631 20.0094 9.03443 19.9126 9.17506L17.9657 12.0001L19.9126 14.8219C20.0094 14.9626 20.0282 15.1407 19.9626 15.2969C19.8969 15.4532 19.7563 15.5657 19.5907 15.5969L16.2188 16.2188L15.5969 19.5907C15.5657 19.7563 15.4532 19.8969 15.2969 19.9626C15.1407 20.0282 14.9626 20.0094 14.8219 19.9126L12.0001 17.9657L9.17818 19.9126C9.03756 20.0094 8.85943 20.0282 8.70318 19.9626C8.54693 19.8969 8.43443 19.7563 8.40318 19.5907L7.78131 16.2188L4.40943 15.5969C4.24381 15.5657 4.10318 15.4532 4.03756 15.2969C3.97193 15.1407 3.99068 14.9626 4.08756 14.8219L6.03443 12.0001L4.08756 9.17818C3.99068 9.03756 3.97193 8.85943 4.03756 8.70318C4.10318 8.54693 4.24381 8.43443 4.40943 8.40318L7.78131 7.78131L8.40318 4.40943C8.43443 4.24381 8.54693 4.10318 8.70318 4.03756C8.85943 3.97193 9.03756 3.99068 9.17818 4.08756L12.0001 6.03443L14.8219 4.08756C14.9626 3.99068 15.1407 3.97193 15.2969 4.03756ZM9.00006 12.0001C9.00006 11.2044 9.31613 10.4413 9.87874 9.87874C10.4413 9.31613 11.2044 9.00006 12.0001 9.00006C12.7957 9.00006 13.5588 9.31613 14.1214 9.87874C14.684 10.4413 15.0001 11.2044 15.0001 12.0001C15.0001 12.7957 14.684 13.5588 14.1214 14.1214C13.5588 14.684 12.7957 15.0001 12.0001 15.0001C11.2044 15.0001 10.4413 14.684 9.87874 14.1214C9.31613 13.5588 9.00006 12.7957 9.00006 12.0001ZM16.0001 12.0001C16.0001 10.9392 15.5786 9.92178 14.8285 9.17163C14.0783 8.42149 13.0609 8.00006 12.0001 8.00006C10.9392 8.00006 9.92178 8.42149 9.17163 9.17163C8.42149 9.92178 8.00006 10.9392 8.00006 12.0001C8.00006 13.0609 8.42149 14.0783 9.17163 14.8285C9.92178 15.5786 10.9392 16.0001 12.0001 16.0001C13.0609 16.0001 14.0783 15.5786 14.8285 14.8285C15.5786 14.0783 16.0001 13.0609 16.0001 12.0001Z" fill="black"/>
</svg>
