<svg width="24" height="24" viewBox="0 0 24 24" fill="none" xmlns="http://www.w3.org/2000/svg">
<path d="M17 19C18.1031 19 19 18.1031 19 17V7C19 5.89688 18.1031 5 17 5H7C5.89688 5 5 5.89688 5 7V17C5 18.1031 5.89688 19 7 19H17ZM10 15.5C9.58437 15.5 9.25 15.1656 9.25 14.75C9.25 14.3344 9.58437 14 10 14H12.9406L8.71875 9.78125C8.425 9.4875 8.425 9.0125 8.71875 8.72188C9.0125 8.43125 9.4875 8.42813 9.77812 8.72188L13.9969 12.9406V9.75C13.9969 9.33437 14.3313 9 14.7469 9C15.1625 9 15.4969 9.33437 15.4969 9.75V14.75C15.4969 15.1656 15.1625 15.5 14.7469 15.5H10Z" fill="black"/>
</svg>
