<svg width="24" height="24" viewBox="0 0 24 24" fill="none" xmlns="http://www.w3.org/2000/svg">
<path d="M7 5C5.89688 5 5 5.89688 5 7V17C5 18.1031 5.89688 19 7 19H17C18.1031 19 19 18.1031 19 17V7C19 5.89688 18.1031 5 17 5H7ZM9.5 12C9.5 13.3813 10.6188 14.5 12 14.5C13.1187 14.5 14.0656 13.7656 14.3844 12.75H12.75C12.3344 12.75 12 12.4156 12 12C12 11.5844 12.3344 11.25 12.75 11.25H15.25C15.6656 11.25 16 11.5844 16 12C16 14.2094 14.2094 16 12 16C9.79063 16 8 14.2094 8 12C8 9.79063 9.79063 8 12 8C13.025 8 13.9594 8.38438 14.6656 9.01875C14.975 9.29375 15 9.76875 14.725 10.0781C14.45 10.3875 13.975 10.4125 13.6656 10.1375C13.225 9.74062 12.6406 9.5 12 9.5C10.6188 9.5 9.5 10.6188 9.5 12Z" fill="black"/>
</svg>
