<svg width="24" height="24" viewBox="0 0 24 24" fill="none" xmlns="http://www.w3.org/2000/svg">
<path d="M7 19C5.89688 19 5 18.1031 5 17V7C5 5.89688 5.89688 5 7 5H17C18.1031 5 19 5.89688 19 7V17C19 18.1031 18.1031 19 17 19H7ZM8.22187 13.2063L11.5687 16.3281C11.6875 16.4375 11.8406 16.5 12 16.5C12.1594 16.5 12.3156 16.4375 12.4313 16.3281L15.7781 13.2063C15.9187 13.075 16 12.8906 16 12.6969C16 12.3125 15.6875 12 15.3031 12H13.5V9C13.5 8.44687 13.0531 8 12.5 8H11.5C10.9469 8 10.5 8.44687 10.5 9V12H8.69688C8.3125 12 8 12.3125 8 12.6969C8 12.8906 8.08125 13.075 8.22187 13.2063Z" fill="black"/>
</svg>
