<svg width="24" height="24" viewBox="0 0 24 24" fill="none" xmlns="http://www.w3.org/2000/svg">
<path d="M10.028 7.00001C10.0968 6.63751 10.303 6.38126 10.6874 6.20626C11.1187 6.01251 11.7749 5.92813 12.5999 6.06563C12.8749 6.10938 13.728 6.28751 13.978 6.35626C14.5093 6.50626 15.0624 6.19688 15.2124 5.66251C15.3624 5.12813 15.053 4.57813 14.5187 4.42813C14.1718 4.33126 13.2374 4.14063 12.928 4.09063C11.8437 3.91563 10.7593 3.98126 9.86554 4.38438C8.93429 4.80626 8.23429 5.59063 8.04992 6.70313C8.04679 6.71876 8.04367 6.73751 8.04367 6.75313C7.97492 7.36876 8.05304 7.93751 8.29679 8.44376C8.53742 8.94688 8.90304 9.31876 9.29679 9.59688C9.31554 9.61251 9.33742 9.62501 9.35929 9.64063C8.69679 10.0688 8.20304 10.7219 8.05304 11.5938C8.04992 11.6125 8.04679 11.6281 8.04679 11.6469C7.97492 12.25 8.05929 12.8063 8.30929 13.3031C8.55617 13.7906 8.92804 14.1469 9.31867 14.4125C10.0187 14.8875 10.9405 15.1625 11.6749 15.3813L11.7905 15.4156C12.6405 15.6719 13.2562 15.8719 13.6468 16.1594C13.8187 16.2844 13.903 16.3969 13.9437 16.5C13.9843 16.6 14.0249 16.7688 13.9718 17.0656C13.9187 17.3813 13.7312 17.6281 13.3249 17.8C12.8874 17.9875 12.2187 18.0656 11.3874 17.9375C10.9874 17.8719 10.2905 17.6344 9.69679 17.4313C9.56242 17.3844 9.43117 17.3406 9.31242 17.3C8.79054 17.125 8.22492 17.4094 8.04992 17.9313C7.87492 18.4531 8.15929 19.0219 8.68429 19.1969C8.76554 19.2219 8.86242 19.2563 8.97179 19.2938C9.55304 19.4906 10.4874 19.8125 11.0749 19.9063H11.0812C12.1593 20.075 13.2312 20.0125 14.1187 19.6344C15.0374 19.2406 15.7593 18.4938 15.9468 17.4C16.0499 16.7969 16.0062 16.2313 15.7905 15.7156C15.5937 15.2469 15.278 14.8906 14.928 14.6156C15.4437 14.1813 15.8187 13.5781 15.9468 12.7969C16.0468 12.1781 16.0062 11.6 15.7968 11.075C15.5874 10.55 15.2405 10.1563 14.853 9.85626C14.1405 9.30626 13.178 9.00001 12.4249 8.76251L12.3812 8.74688C11.5249 8.47501 10.8874 8.26876 10.4593 7.96563C10.2687 7.82813 10.1624 7.70001 10.103 7.57813C10.0468 7.46251 10.003 7.28751 10.0312 7.00001H10.028ZM12.4249 13.5156C12.4187 13.5125 12.4124 13.5125 12.4062 13.5094L12.3624 13.4969C11.5062 13.2406 10.8655 13.0438 10.4343 12.7531C10.2405 12.6219 10.1437 12.5063 10.0905 12.4C10.0437 12.3063 9.99992 12.1594 10.0249 11.9094C10.0843 11.6063 10.2718 11.3688 10.6655 11.2C11.103 11.0125 11.7718 10.9344 12.6062 11.0656L13.1187 11.1469C13.3155 11.2375 13.4843 11.3344 13.6249 11.4438C13.7968 11.575 13.8874 11.7 13.9374 11.825C13.9874 11.95 14.0249 12.15 13.9718 12.4781C13.8968 12.9375 13.5718 13.3031 12.8124 13.4469L12.4249 13.5188V13.5156Z" fill="black"/>
</svg>
