<svg width="24" height="24" viewBox="0 0 24 24" fill="none" xmlns="http://www.w3.org/2000/svg">
<path d="M8.51883 4.0495C8.90633 4.1995 9.09695 4.63075 8.95008 5.01825L7.93445 7.662C7.90008 7.75575 7.92195 7.85887 7.9907 7.92762L9.50008 9.44012V8.9995C9.50008 8.00575 10.0813 7.14637 10.922 6.74325C11.2063 6.60575 11.5001 6.84637 11.5001 7.162V7.4995C11.5001 7.7745 11.7251 7.9995 12.0001 7.9995C12.2751 7.9995 12.5001 7.7745 12.5001 7.4995V7.162C12.5001 6.84637 12.7938 6.60887 13.0782 6.74325C13.9188 7.14637 14.5001 8.00575 14.5001 8.9995V9.44012L16.0095 7.93075C16.0782 7.862 16.1001 7.75575 16.0657 7.66512L15.0501 5.01825C14.9001 4.63075 15.0938 4.19637 15.4813 4.0495C15.8688 3.90262 16.3032 4.09325 16.4501 4.48075L17.4657 7.1245C17.7126 7.77137 17.5595 8.50262 17.0688 8.99012L15.2751 10.7839L17.7876 9.94637C17.8626 9.92137 17.922 9.862 17.947 9.787L18.5376 8.012C18.6688 7.61825 19.0938 7.40575 19.4876 7.537C19.8813 7.66825 20.0938 8.09325 19.9626 8.487L19.372 10.262C19.197 10.7839 18.7876 11.1932 18.2657 11.3682L16.372 11.9995L18.2626 12.6307C18.7845 12.8057 19.1938 13.2151 19.3688 13.737L19.9595 15.512C20.0907 15.9057 19.8782 16.3307 19.4845 16.462C19.0907 16.5932 18.6657 16.3807 18.5345 15.987L17.9438 14.212C17.9188 14.137 17.8595 14.0776 17.7845 14.0526L15.272 13.2151L17.0657 15.0089C17.5532 15.4964 17.7095 16.2276 17.4626 16.8745L16.447 19.5182C16.297 19.9057 15.8657 20.0964 15.4782 19.9495C15.0907 19.8026 14.9001 19.3682 15.047 18.9807L16.0626 16.337C16.097 16.2432 16.0751 16.1401 16.0063 16.0714L15.0001 15.0589C14.9688 16.687 13.6376 17.9995 12.0001 17.9995C10.3626 17.9995 9.03133 16.6901 9.00008 15.0589L7.9907 16.0682C7.92195 16.137 7.90008 16.2432 7.93445 16.3339L8.95008 18.9776C9.10008 19.3651 8.90633 19.7995 8.51883 19.9464C8.13133 20.0932 7.69695 19.9026 7.55008 19.5151L6.53445 16.8745C6.28758 16.2276 6.4407 15.4964 6.93133 15.0089L8.72508 13.2151L6.21258 14.0526C6.13758 14.0776 6.0782 14.137 6.0532 14.212L5.46258 15.987C5.33133 16.3807 4.90633 16.5932 4.51258 16.462C4.11883 16.3307 3.90633 15.9057 4.03758 15.512L4.6282 13.737C4.8032 13.2151 5.21258 12.8057 5.73445 12.6307L7.6282 11.9995L5.73758 11.3682C5.2157 11.1932 4.80633 10.7839 4.63133 10.262L4.03758 8.487C3.90633 8.09325 4.11883 7.66825 4.51258 7.537C4.90633 7.40575 5.33133 7.61825 5.46258 8.012L6.0532 9.787C6.0782 9.862 6.13758 9.92137 6.21258 9.94637L8.72508 10.7839L6.9282 8.99012C6.4407 8.4995 6.28445 7.76825 6.53445 7.1245L7.55008 4.48075C7.70008 4.09325 8.13133 3.90262 8.51883 4.0495ZM10.8251 13.5995L11.5001 14.4995L10.8251 15.3995C10.7751 15.4651 10.7501 15.5432 10.7501 15.6245C10.7501 15.8307 10.9188 15.9995 11.1251 15.9995H12.8751C13.0813 15.9995 13.2501 15.8307 13.2501 15.6245C13.2501 15.5432 13.2251 15.4651 13.1751 15.3995L12.5001 14.4995L13.1751 13.5995C13.2251 13.5339 13.2501 13.4557 13.2501 13.3745C13.2501 13.1682 13.0813 12.9995 12.8751 12.9995H11.1251C10.9188 12.9995 10.7501 13.1682 10.7501 13.3745C10.7501 13.4557 10.7751 13.5339 10.8251 13.5995Z" fill="black"/>
</svg>
