<svg width="24" height="24" viewBox="0 0 24 24" fill="none" xmlns="http://www.w3.org/2000/svg">
<path d="M3.21243 4.15943C2.88743 3.90318 2.41556 3.96255 2.15931 4.28755C1.90306 4.61255 1.96243 5.08443 2.28743 5.34068L20.7874 19.8407C21.1124 20.0969 21.5843 20.0376 21.8406 19.7126C22.0968 19.3876 22.0374 18.9157 21.7124 18.6594L20.7749 17.9251C20.9187 17.6501 20.9999 17.3344 20.9999 17.0001V7.00005C20.9999 5.89693 20.1031 5.00005 18.9999 5.00005H4.99993C4.79056 5.00005 4.59056 5.0313 4.39993 5.09068L3.21243 4.15943ZM14.3062 12.8532L14.2687 12.8251C14.1031 12.6876 13.9999 12.4813 13.9999 12.2501C13.9999 11.8344 14.3343 11.5001 14.7499 11.5001H17.2499C17.6656 11.5001 17.9999 11.8344 17.9999 12.2501C17.9999 12.6657 17.6656 13.0001 17.2499 13.0001H14.7499C14.5843 13.0001 14.4312 12.9469 14.3062 12.8563V12.8532ZM16.4062 14.5001H17.2499C17.6656 14.5001 17.9999 14.8344 17.9999 15.2501C17.9999 15.4001 17.9562 15.5407 17.8812 15.6563L16.4062 14.5001ZM17.2312 19.0001L13.4218 16.0001H11.7499C11.3343 16.0001 10.9999 15.6657 10.9999 15.2501C10.9999 14.9032 11.2343 14.6126 11.5531 14.5251L9.61556 13.0001H6.74993C6.33431 13.0001 5.99993 12.6657 5.99993 12.2501C5.99993 11.8344 6.33431 11.5001 6.74993 11.5001H7.71243L2.99993 7.78755V17.0001C2.99993 18.1032 3.89681 19.0001 4.99993 19.0001H17.2312ZM6.74993 14.5001H9.24993C9.66556 14.5001 9.99993 14.8344 9.99993 15.2501C9.99993 15.6657 9.66556 16.0001 9.24993 16.0001H6.74993C6.33431 16.0001 5.99993 15.6657 5.99993 15.2501C5.99993 14.8344 6.33431 14.5001 6.74993 14.5001Z" fill="black"/>
</svg>
