<svg width="24" height="24" viewBox="0 0 24 24" fill="none" xmlns="http://www.w3.org/2000/svg">
<path d="M3.21268 4.15943C2.88768 3.90318 2.4158 3.96255 2.15955 4.28755C1.9033 4.61255 1.96268 5.08443 2.28768 5.34068L20.7877 19.8407C21.1127 20.0969 21.5846 20.0376 21.8408 19.7126C22.0971 19.3876 22.0377 18.9157 21.7127 18.6594L21.0002 18.1001V5.50005C21.0002 4.67193 20.3283 4.00005 19.5002 4.00005C18.6721 4.00005 18.0002 4.67193 18.0002 5.50005V15.7501L16.0002 14.1813V9.50005C16.0002 8.67193 15.3283 8.00005 14.5002 8.00005C13.6721 8.00005 13.0002 8.67193 13.0002 9.50005V11.8313L3.21268 4.15943ZM19.5002 20.0001H19.4908H19.5127H19.5033H19.5002ZM16.0002 18.5001V18.0313L13.0002 15.6688V18.5001C13.0002 19.3282 13.6721 20.0001 14.5002 20.0001C15.3283 20.0001 16.0002 19.3282 16.0002 18.5001ZM11.0002 14.0907L8.6658 12.2532C8.2658 12.5219 8.00018 12.9813 8.00018 13.5001V18.5001C8.00018 19.3282 8.67205 20.0001 9.50018 20.0001C10.3283 20.0001 11.0002 19.3282 11.0002 18.5001V14.0907ZM4.50018 16.0001C3.67205 16.0001 3.00018 16.6719 3.00018 17.5001V18.5001C3.00018 19.3282 3.67205 20.0001 4.50018 20.0001C5.3283 20.0001 6.00018 19.3282 6.00018 18.5001V17.5001C6.00018 16.6719 5.3283 16.0001 4.50018 16.0001Z" fill="black"/>
</svg>
