<svg width="24" height="24" viewBox="0 0 24 24" fill="none" xmlns="http://www.w3.org/2000/svg">
<path d="M5.47187 5.11877C4.98437 4.85939 4.37812 5.04377 4.11875 5.53127C3.85937 6.01877 4.04375 6.62502 4.53125 6.88439L16 13H5C3.89688 13 3 13.8969 3 15V17C3 18.1031 3.89688 19 5 19H19C20.1031 19 21 18.1031 21 17V14.6C21 13.8625 20.5937 13.1844 19.9406 12.8344L5.47187 5.11877ZM5 16C5 15.7348 5.10536 15.4804 5.29289 15.2929C5.48043 15.1054 5.73478 15 6 15C6.26522 15 6.51957 15.1054 6.70711 15.2929C6.89464 15.4804 7 15.7348 7 16C7 16.2652 6.89464 16.5196 6.70711 16.7071C6.51957 16.8947 6.26522 17 6 17C5.73478 17 5.48043 16.8947 5.29289 16.7071C5.10536 16.5196 5 16.2652 5 16ZM9 15C9.26522 15 9.51957 15.1054 9.70711 15.2929C9.89464 15.4804 10 15.7348 10 16C10 16.2652 9.89464 16.5196 9.70711 16.7071C9.51957 16.8947 9.26522 17 9 17C8.73478 17 8.48043 16.8947 8.29289 16.7071C8.10536 16.5196 8 16.2652 8 16C8 15.7348 8.10536 15.4804 8.29289 15.2929C8.48043 15.1054 8.73478 15 9 15Z" fill="black"/>
</svg>
