<svg width="24" height="24" viewBox="0 0 24 24" fill="none" xmlns="http://www.w3.org/2000/svg">
<path d="M16.7937 4C16.1437 4 15.5249 4.2875 15.1062 4.78438L8.86866 12.1781C8.74366 12.3281 8.71554 12.5344 8.79679 12.7125C8.87804 12.8906 9.05616 13.0031 9.24991 13.0031H13.3937C13.8343 13.0031 14.2562 12.8094 14.5405 12.4719L18.4499 7.83437C18.8062 7.4125 18.9999 6.88125 18.9999 6.33125V6.20625C18.9999 4.9875 18.0124 4 16.7937 4ZM8.14679 14.1469L3.14679 19.1469C3.00304 19.2906 2.96241 19.5063 3.03741 19.6906C3.11241 19.875 3.29679 20 3.49991 20C4.06554 20 6.12804 19.7375 8.05929 18.9656C9.95304 18.2062 11.9999 16.8406 11.9999 14.5V14H11.4999H8.49991H8.29366L8.14679 14.1469ZM12.4999 19H10.4999C10.2249 19 9.99991 19.225 9.99991 19.5C9.99991 19.775 10.2249 20 10.4999 20H12.4999C12.7749 20 12.9999 19.775 12.9999 19.5C12.9999 19.225 12.7749 19 12.4999 19ZM14.4999 19C14.2249 19 13.9999 19.225 13.9999 19.5C13.9999 19.775 14.2249 20 14.4999 20H16.4999C16.7749 20 16.9999 19.775 16.9999 19.5C16.9999 19.225 16.7749 19 16.4999 19H14.4999ZM18.4999 19C18.2249 19 17.9999 19.225 17.9999 19.5C17.9999 19.775 18.2249 20 18.4999 20H20.4999C20.7749 20 20.9999 19.775 20.9999 19.5C20.9999 19.225 20.7749 19 20.4999 19H18.4999Z" fill="black"/>
</svg>
