<svg width="24" height="24" viewBox="0 0 24 24" fill="none" xmlns="http://www.w3.org/2000/svg">
<path d="M3.21243 4.15943C2.88743 3.90318 2.41556 3.96255 2.15931 4.28755C1.90306 4.61255 1.96243 5.08443 2.28743 5.34068L20.7874 19.8407C21.1124 20.0969 21.5843 20.0376 21.8406 19.7126C22.0968 19.3876 22.0374 18.9157 21.7124 18.6594L18.8468 16.4126C19.5812 15.1094 19.9999 13.6032 19.9999 12.0001C19.9999 9.87193 19.2593 7.91568 18.0249 6.37505C17.6781 5.9438 17.0499 5.87505 16.6187 6.2188C16.1874 6.56255 16.1187 7.1938 16.4624 7.62505C17.4218 8.82505 17.9968 10.3438 17.9968 12.0001C17.9968 13.1376 17.7249 14.2126 17.2437 15.1594L16.0343 14.2094C16.3312 13.5313 16.4968 12.7844 16.4968 11.9969C16.4968 10.5876 15.9656 9.30318 15.0968 8.3313C14.7281 7.9188 14.0968 7.88443 13.6843 8.25318C13.2718 8.62193 13.2374 9.25318 13.6062 9.66568C14.1624 10.2844 14.4968 11.1032 14.4968 12.0001C14.4968 12.3157 14.4562 12.6219 14.3781 12.9126L12.7031 11.6001C12.5218 10.8282 11.8281 10.2501 10.9999 10.2501C10.9937 10.2501 10.9874 10.2501 10.9843 10.2501L3.21243 4.15943ZM5.85931 10.0407C5.62806 10.6501 5.49993 11.3094 5.49993 12.0001C5.49993 13.4094 6.03118 14.6938 6.89993 15.6657C7.26868 16.0782 7.89993 16.1126 8.31243 15.7438C8.72493 15.3751 8.75931 14.7438 8.39056 14.3313C7.83431 13.7126 7.49993 12.8938 7.49993 11.9969C7.49993 11.7844 7.51868 11.5751 7.55618 11.3751L5.85931 10.0376V10.0407ZM3.03118 7.81255C2.37181 9.06255 1.99993 10.4876 1.99993 12.0001C1.99993 14.1282 2.74056 16.0844 3.97493 17.6251C4.32181 18.0563 4.94993 18.1251 5.38118 17.7813C5.81243 17.4376 5.88118 16.8063 5.53743 16.3751C4.57493 15.1751 3.99993 13.6563 3.99993 12.0001C3.99993 10.9563 4.22806 9.96568 4.63743 9.07818L3.03118 7.81255Z" fill="black"/>
</svg>
