<svg width="24" height="24" viewBox="0 0 24 24" fill="none" xmlns="http://www.w3.org/2000/svg">
<path d="M13.2968 4.03756C13.4531 4.10318 13.5656 4.24381 13.5968 4.40943L14.2187 7.78131L17.5906 8.40006C17.7562 8.43131 17.8968 8.54381 17.9624 8.70006C18.0281 8.85631 18.0093 9.03443 17.9124 9.17506L17.2843 10.0844C17.0312 10.0313 16.7687 10.0001 16.4999 10.0001C15.4718 10.0001 14.5499 10.4438 13.9093 11.1469C13.5187 9.34693 11.9156 8.00006 9.99994 8.00006C7.79056 8.00006 5.99994 9.79068 5.99994 12.0001C5.99994 14.2094 7.79056 16.0001 9.99994 16.0001C10.3874 16.0001 10.7656 15.9438 11.1187 15.8407C11.4718 17.0532 12.5718 17.9501 13.8906 17.9969L13.5968 19.5907C13.5656 19.7563 13.4531 19.8969 13.2968 19.9626C13.1406 20.0282 12.9624 20.0094 12.8218 19.9126L9.99994 17.9657L7.17806 19.9126C7.03744 20.0094 6.85931 20.0282 6.70306 19.9626C6.54681 19.8969 6.43431 19.7563 6.40306 19.5907L5.78119 16.2188L2.40931 15.5969C2.24369 15.5657 2.10306 15.4532 2.03744 15.2969C1.97181 15.1407 1.99056 14.9626 2.08744 14.8219L4.03431 12.0001L2.08744 9.17818C1.99056 9.03756 1.97181 8.85943 2.03744 8.70318C2.10306 8.54693 2.24369 8.43443 2.40931 8.40318L5.78119 7.78131L6.40306 4.40943C6.43431 4.24381 6.54681 4.10318 6.70306 4.03756C6.85931 3.97193 7.03744 3.99068 7.17806 4.08756L9.99994 6.03443L12.8218 4.08756C12.9624 3.99068 13.1406 3.97193 13.2968 4.03756ZM12.9999 12.0001C12.9999 12.0594 12.9968 12.1157 12.9937 12.1719C11.8812 12.5657 11.0718 13.5969 11.0031 14.8282C10.6874 14.9407 10.3499 15.0001 9.99681 15.0001C8.34056 15.0001 6.99681 13.6563 6.99681 12.0001C6.99681 10.3438 8.34056 9.00006 9.99681 9.00006C11.6531 9.00006 12.9968 10.3438 12.9968 12.0001H12.9999ZM13.9999 17.0001C12.8968 17.0001 11.9999 16.1032 11.9999 15.0001C11.9999 13.8969 12.8968 13.0001 13.9999 13.0001C14.0156 13.0001 14.0343 13.0001 14.0499 13.0001C14.2812 11.8594 15.2906 11.0001 16.4999 11.0001C17.5937 11.0001 18.5249 11.7032 18.8624 12.6813C19.1343 12.5657 19.4343 12.5001 19.7499 12.5001C20.9937 12.5001 21.9999 13.5063 21.9999 14.7501C21.9999 15.9938 20.9937 17.0001 19.7499 17.0001H13.9999Z" fill="black"/>
</svg>
