<svg width="24" height="24" viewBox="0 0 24 24" fill="none" xmlns="http://www.w3.org/2000/svg">
<path d="M7 5C5.89688 5 5 5.89688 5 7V17C5 18.1031 5.89688 19 7 19H17C18.1031 19 19 18.1031 19 17V7C19 5.89688 18.1031 5 17 5H7ZM9.46875 9.46875C9.7625 9.175 10.2375 9.175 10.5281 9.46875L11.9969 10.9375L13.4656 9.46875C13.7594 9.175 14.2344 9.175 14.525 9.46875C14.8156 9.7625 14.8187 10.2375 14.525 10.5281L13.0562 11.9969L14.525 13.4656C14.8187 13.7594 14.8187 14.2344 14.525 14.525C14.2312 14.8156 13.7562 14.8187 13.4656 14.525L11.9969 13.0562L10.5281 14.525C10.2344 14.8187 9.75938 14.8187 9.46875 14.525C9.17812 14.2312 9.175 13.7562 9.46875 13.4656L10.9375 11.9969L9.46875 10.5281C9.175 10.2344 9.175 9.75938 9.46875 9.46875Z" fill="black"/>
</svg>
