<svg width="24" height="24" viewBox="0 0 24 24" fill="none" xmlns="http://www.w3.org/2000/svg">
<path d="M10.0969 7.29465C9.46874 7.5634 9.13124 7.9759 9.03749 8.5259C8.96249 8.96653 9.01561 9.2509 9.09999 9.44465C9.18749 9.64153 9.34686 9.83215 9.62186 10.0259C10.2219 10.4447 11.1312 10.7165 12.275 11.0415C12.3062 11.0509 12.3344 11.0603 12.3656 11.0665C13.3875 11.3572 14.6156 11.7103 15.5187 12.3384C16.0094 12.679 16.4531 13.1353 16.725 13.7478C17 14.3665 17.0625 15.0603 16.9312 15.8197C16.7031 17.1478 15.8281 18.0603 14.6875 18.5478C13.5812 19.0228 12.2156 19.1072 10.8219 18.8884H10.8156C10.0656 18.7665 8.85624 18.354 8.07811 18.0884C7.92811 18.0353 7.79061 17.9915 7.67811 17.954C7.15936 17.7759 6.87811 17.2103 7.04999 16.6853C7.22186 16.1603 7.79061 15.879 8.31561 16.0509C8.46874 16.1009 8.63436 16.1572 8.81249 16.2197C9.60624 16.4884 10.575 16.8197 11.1375 16.9103C12.2875 17.0884 13.2469 16.9884 13.9031 16.7072C14.5312 16.4384 14.8656 16.0259 14.9625 15.4759C15.0375 15.0353 14.9844 14.7509 14.9 14.5572C14.8125 14.3603 14.6531 14.1697 14.3781 13.9759C13.7781 13.5572 12.8687 13.2853 11.725 12.9603C11.6937 12.9509 11.6656 12.9415 11.6344 12.9353C10.6125 12.6447 9.38436 12.2915 8.48124 11.6634C7.99061 11.3228 7.54686 10.8665 7.27499 10.254C6.99999 9.63528 6.93749 8.94153 7.06874 8.18215L8.05311 8.35403L7.06561 8.18528C7.29374 6.85715 8.16874 5.94465 9.30936 5.45715C10.4156 4.98215 11.7812 4.89778 13.175 5.11653C13.5812 5.17903 14.8125 5.41653 15.2562 5.53528C15.7906 5.6759 16.1062 6.2259 15.9656 6.76028C15.825 7.29465 15.275 7.61028 14.7406 7.46965C14.3906 7.3759 13.2375 7.1509 12.8625 7.09465C11.7094 6.9134 10.7531 7.01653 10.0937 7.29778L10.0969 7.29465Z" fill="black"/>
</svg>
