<svg width="24" height="24" viewBox="0 0 24 24" fill="none" xmlns="http://www.w3.org/2000/svg">
<path d="M5 4C4.44687 4 4 4.44687 4 5H3.5C2.67188 5 2 5.67188 2 6.5V15.5C2 16.3281 2.67188 17 3.5 17H14C13.3719 16.1656 13 15.125 13 14C13 12.4406 13.7156 11.0469 14.8313 10.1312C15.275 9.76562 15.85 9.75 16.2906 9.9875C16.7156 10.2156 17 10.6656 17 11.1844V13C17 13.5531 17.4469 14 18 14C18.5531 14 19 13.5531 19 13V11.1844C19 10.6656 19.2844 10.2156 19.7094 9.9875C19.8 9.9375 19.9 9.9 20 9.87187V6.5C20 5.67188 19.3281 5 18.5 5H18C18 4.44687 17.5531 4 17 4C16.4469 4 16 4.44687 16 5H6C6 4.44687 5.55313 4 5 4ZM6 18H4V19C4 19.5531 4.44687 20 5 20C5.55313 20 6 19.5531 6 19V18ZM22 14C22 12.7531 21.4281 11.6375 20.5344 10.9062C20.3125 10.7219 20 10.8969 20 11.1875V13C20 14.1031 19.1031 15 18 15C16.8969 15 16 14.1031 16 13V11.1844C16 10.8969 15.6906 10.7219 15.4656 10.9031C14.5719 11.6375 14 12.75 14 13.9969C14 15.2594 14.5844 16.3875 15.5 17.1187V18.875C15.5 19.4969 16.0031 20 16.625 20H19.375C19.9969 20 20.5 19.4969 20.5 18.875V17.1219C21.4156 16.3875 22 15.2625 22 14Z" fill="black"/>
</svg>
