<svg width="24" height="24" viewBox="0 0 24 24" fill="none" xmlns="http://www.w3.org/2000/svg">
<path d="M13.5938 5.08749C13.2344 5.24686 13 5.60624 13 5.99999V7.99999H9.5C6.4625 7.99999 4 10.4625 4 13.5C4 17.0406 6.54687 18.6219 7.13125 18.9406C7.20937 18.9844 7.29688 19 7.38438 19C7.725 19 8 18.7219 8 18.3844C8 18.15 7.86562 17.9344 7.69375 17.775C7.4 17.4969 7 16.95 7 16C7 14.3437 8.34375 13 10 13H13V15C13 15.3937 13.2312 15.7531 13.5938 15.9125C13.9563 16.0719 14.375 16.0062 14.6687 15.7437L19.6687 11.2437C19.8781 11.0531 20 10.7844 20 10.5C20 10.2156 19.8812 9.94686 19.6687 9.75624L14.6687 5.25624C14.375 4.99061 13.9531 4.92499 13.5938 5.08749Z" fill="black"/>
</svg>
