<svg width="24" height="24" viewBox="0 0 24 24" fill="none" xmlns="http://www.w3.org/2000/svg">
<path d="M3.21249 4.15943C2.88749 3.90318 2.41562 3.96255 2.15937 4.28755C1.90312 4.61255 1.96249 5.08443 2.28749 5.34068L20.7875 19.8407C21.1125 20.0969 21.5844 20.0376 21.8406 19.7126C22.0969 19.3876 22.0375 18.9157 21.7125 18.6594L21 18.1001V5.00005C21 4.44693 20.5531 4.00005 20 4.00005C19.4469 4.00005 19 4.44693 19 5.00005V16.5344L17 14.9657V8.00005C17 7.44693 16.5531 7.00005 16 7.00005C15.4469 7.00005 15 7.44693 15 8.00005V13.4001L13 11.8313V11.0001C13 10.4469 12.5531 10.0001 12 10.0001C11.6656 10.0001 11.3719 10.1626 11.1906 10.4126L3.21249 4.15943ZM20 20.0001H19.9906H20.0094H20ZM17 19.0001V18.8188L15 17.2438V19.0001C15 19.5532 15.4469 20.0001 16 20.0001C16.5531 20.0001 17 19.5532 17 19.0001ZM13 15.6657L11 14.0907V19.0001C11 19.5532 11.4469 20.0001 12 20.0001C12.5531 20.0001 13 19.5532 13 19.0001V15.6657ZM7.99999 13.0001C7.44687 13.0001 6.99999 13.4469 6.99999 14.0001V19.0001C6.99999 19.5532 7.44687 20.0001 7.99999 20.0001C8.55312 20.0001 8.99999 19.5532 8.99999 19.0001V14.0001C8.99999 13.4469 8.55312 13.0001 7.99999 13.0001ZM4.99999 17.0001C4.99999 16.4469 4.55312 16.0001 3.99999 16.0001C3.44687 16.0001 2.99999 16.4469 2.99999 17.0001V19.0001C2.99999 19.5532 3.44687 20.0001 3.99999 20.0001C4.55312 20.0001 4.99999 19.5532 4.99999 19.0001V17.0001Z" fill="black"/>
</svg>
