<svg width="24" height="24" viewBox="0 0 24 24" fill="none" xmlns="http://www.w3.org/2000/svg">
<path d="M16.6187 5.075C16.9937 4.91875 17.4219 5.00625 17.7094 5.29063L19.7094 7.29063C19.8969 7.47813 20.0031 7.73125 20.0031 7.99688C20.0031 8.2625 19.8969 8.51563 19.7094 8.70313L17.7094 10.7031C17.4219 10.9906 16.9937 11.075 16.6187 10.9187C16.2437 10.7625 16 10.4 16 9.99375V9H14.8281C14.5625 9 14.3094 9.10625 14.1219 9.29375L11.4156 12L14.1219 14.7063C14.3094 14.8938 14.5625 15 14.8281 15H16V14C16 13.5969 16.2437 13.2312 16.6187 13.075C16.9937 12.9187 17.4219 13.0062 17.7094 13.2906L19.7094 15.2906C19.8969 15.4781 20.0031 15.7312 20.0031 15.9969C20.0031 16.2625 19.8969 16.5156 19.7094 16.7031L17.7094 18.7031C17.4219 18.9906 16.9937 19.075 16.6187 18.9187C16.2437 18.7625 16 18.4 16 17.9937V17H14.8281C14.0312 17 13.2688 16.6844 12.7063 16.1219L9.58437 13H5C4.44687 13 4 12.5531 4 12C4 11.4469 4.44687 11 5 11H9.58437L12.7063 7.87813C13.2688 7.31563 14.0312 7 14.8281 7H16V6C16 5.59688 16.2437 5.23125 16.6187 5.075Z" fill="black"/>
</svg>
