<svg width="24" height="24" viewBox="0 0 24 24" fill="none" xmlns="http://www.w3.org/2000/svg">
<path d="M3.21268 4.15931C2.88768 3.90306 2.4158 3.96243 2.15955 4.28743C1.9033 4.61243 1.96268 5.08431 2.28768 5.34056L20.7877 19.8406C21.1127 20.0968 21.5846 20.0374 21.8408 19.7124C22.0971 19.3874 22.0377 18.9156 21.7127 18.6593L21.0002 18.0999V5.49993C21.0002 4.67181 20.3283 3.99993 19.5002 3.99993C18.6721 3.99993 18.0002 4.67181 18.0002 5.49993V15.7499L16.0002 14.1812V9.49993C16.0002 8.67181 15.3283 7.99993 14.5002 7.99993C13.6721 7.99993 13.0002 8.67181 13.0002 9.49993V11.8312L3.21268 4.15931ZM19.5002 19.9999H19.4908H19.5127H19.5033H19.5002ZM16.0002 18.4999V18.0312L13.0002 15.6687V18.4999C13.0002 19.3281 13.6721 19.9999 14.5002 19.9999C15.3283 19.9999 16.0002 19.3281 16.0002 18.4999ZM11.0002 14.0906L8.6658 12.2531C8.2658 12.5218 8.00018 12.9812 8.00018 13.4999V18.4999C8.00018 19.3281 8.67205 19.9999 9.50018 19.9999C10.3283 19.9999 11.0002 19.3281 11.0002 18.4999V14.0906ZM4.50018 15.9999C3.67205 15.9999 3.00018 16.6718 3.00018 17.4999V18.4999C3.00018 19.3281 3.67205 19.9999 4.50018 19.9999C5.3283 19.9999 6.00018 19.3281 6.00018 18.4999V17.4999C6.00018 16.6718 5.3283 15.9999 4.50018 15.9999Z" fill="black"/>
</svg>
