<svg width="24" height="24" viewBox="0 0 24 24" fill="none" xmlns="http://www.w3.org/2000/svg">
<path d="M10.5 7C10.8978 7 11.2794 6.84196 11.5607 6.56066C11.842 6.27936 12 5.89782 12 5.5C12 5.10218 11.842 4.72064 11.5607 4.43934C11.2794 4.15804 10.8978 4 10.5 4C10.1022 4 9.72064 4.15804 9.43934 4.43934C9.15804 4.72064 9 5.10218 9 5.5C9 5.89782 9.15804 6.27936 9.43934 6.56066C9.72064 6.84196 10.1022 7 10.5 7ZM14 12C14.5304 12 15.0391 11.7893 15.4142 11.4142C15.7893 11.0391 16 10.5304 16 10C16 9.46957 15.7893 8.96086 15.4142 8.58579C15.0391 8.21071 14.5304 8 14 8C13.4696 8 12.9609 8.21071 12.5858 8.58579C12.2107 8.96086 12 9.46957 12 10C12 10.5304 12.2107 11.0391 12.5858 11.4142C12.9609 11.7893 13.4696 12 14 12ZM17 5C17 4.73478 16.8946 4.48043 16.7071 4.29289C16.5196 4.10536 16.2652 4 16 4C15.7348 4 15.4804 4.10536 15.2929 4.29289C15.1054 4.48043 15 4.73478 15 5C15 5.26522 15.1054 5.51957 15.2929 5.70711C15.4804 5.89464 15.7348 6 16 6C16.2652 6 16.5196 5.89464 16.7071 5.70711C16.8946 5.51957 17 5.26522 17 5ZM17 10C17 10.8625 16.6344 11.6406 16.05 12.1906C17.1906 12.6156 18 13.7125 18 15C18 16.6562 16.6562 18 15 18H9C7.34375 18 6 16.6562 6 15C6 13.3438 7.34375 12 9 12H11.7625C11.2875 11.4688 11 10.7688 11 10H7C5.34375 10 4 11.3438 4 13V17C4 18.6562 5.34375 20 7 20H17C18.6562 20 20 18.6562 20 17V13C20 11.3438 18.6562 10 17 10ZM9 13C7.89688 13 7 13.8969 7 15C7 16.1031 7.89688 17 9 17H15C16.1031 17 17 16.1031 17 15C17 13.8969 16.1031 13 15 13H14H9Z" fill="black"/>
</svg>
