<svg width="24" height="24" viewBox="0 0 24 24" fill="none" xmlns="http://www.w3.org/2000/svg">
<path d="M9.475 18.8938C9.17187 18.3313 9 17.6844 9 17C9 15.7406 9.59375 14.5563 10.6 13.8L12.6 12.3C12.8531 12.1125 13 11.8156 13 11.5V7H8V11.5C8 12.1281 7.70313 12.7219 7.2 13.1L5.2 14.6C4.44375 15.1656 4 16.0562 4 17C4 18.6562 5.34375 20 7 20C7.65 20 8.28125 19.7906 8.8 19.4L9.475 18.8938ZM8 6H13V5.5C13 5.04688 13.1219 4.61875 13.3344 4.25313C13.0938 4.09375 12.8094 4 12.5 4H9.5C8.67188 4 8 4.67188 8 5.5V6ZM14 7V11.5C14 12.1281 13.7031 12.7219 13.2 13.1L11.2 14.6C10.4437 15.1656 10 16.0562 10 17C10 18.6562 11.3438 20 13 20C13.65 20 14.2813 19.7906 14.8 19.4L18.4 16.7C19.4062 15.9437 20 14.7594 20 13.5V7H14ZM20 6V5.5C20 4.67188 19.3281 4 18.5 4H15.5C14.6719 4 14 4.67188 14 5.5V6H20Z" fill="black"/>
</svg>
