<svg width="24" height="24" viewBox="0 0 24 24" fill="none" xmlns="http://www.w3.org/2000/svg">
<path d="M12 3.99999C12.1437 3.99999 12.2875 4.03124 12.4187 4.09062L18.3031 6.58749C18.9906 6.87812 19.5031 7.55624 19.5 8.37499C19.4906 10.2094 19.0406 12.9437 17.5594 15.4062L21.7125 18.6594C22.0375 18.9156 22.0969 19.3875 21.8406 19.7125C21.5844 20.0375 21.1125 20.0969 20.7875 19.8406L2.2875 5.34062C1.9625 5.08437 1.90312 4.61249 2.15937 4.28749C2.41562 3.96249 2.8875 3.90312 3.2125 4.15937L6.09375 6.41874L11.5844 4.09062C11.7125 4.03124 11.8562 3.99999 12 3.99999ZM4.51875 8.98437L15.6719 17.7719C14.8844 18.5219 13.9437 19.1906 12.825 19.725C12.3031 19.975 11.6969 19.975 11.175 19.725C6.125 17.3062 4.69062 12.1719 4.51875 8.98437Z" fill="black"/>
</svg>
