<svg width="24" height="24" viewBox="0 0 24 24" fill="none" xmlns="http://www.w3.org/2000/svg">
<path d="M16.6187 5.07503C16.9937 4.91878 17.4219 5.00628 17.7094 5.29066L19.7094 7.29066C19.8969 7.47816 20.0031 7.73128 20.0031 7.99691C20.0031 8.26253 19.8969 8.51566 19.7094 8.70316L17.7094 10.7032C17.4219 10.9907 16.9937 11.075 16.6187 10.9188C16.2437 10.7625 16 10.4 16 9.99378V9.00003H14.8281C14.5625 9.00003 14.3094 9.10628 14.1219 9.29378L11.4156 12L14.1219 14.7063C14.3094 14.8938 14.5625 15 14.8281 15H16V14C16 13.5969 16.2437 13.2313 16.6187 13.075C16.9937 12.9188 17.4219 13.0063 17.7094 13.2907L19.7094 15.2907C19.8969 15.4782 20.0031 15.7313 20.0031 15.9969C20.0031 16.2625 19.8969 16.5157 19.7094 16.7032L17.7094 18.7032C17.4219 18.9907 16.9937 19.075 16.6187 18.9188C16.2437 18.7625 16 18.4 16 17.9938V17H14.8281C14.0312 17 13.2688 16.6844 12.7063 16.1219L9.58437 13H5C4.44687 13 4 12.5532 4 12C4 11.4469 4.44687 11 5 11H9.58437L12.7063 7.87816C13.2688 7.31566 14.0312 7.00003 14.8281 7.00003H16V6.00003C16 5.59691 16.2437 5.23128 16.6187 5.07503Z" fill="black"/>
</svg>
