<svg width="24" height="24" viewBox="0 0 24 24" fill="none" xmlns="http://www.w3.org/2000/svg">
<path d="M9.04063 8.49989C9.14062 7.96239 9.47813 7.55926 10.0938 7.29364C10.7531 7.01239 11.7125 6.90926 12.8625 7.09051C13.2344 7.14989 14.3875 7.37489 14.7406 7.46551C15.275 7.60614 15.8219 7.29051 15.9656 6.75614C16.1094 6.22176 15.7906 5.67489 15.2563 5.53114C14.8094 5.41239 13.5813 5.17489 13.175 5.11239C11.7781 4.89364 10.4156 4.98114 9.30937 5.45301C8.16875 5.94051 7.29688 6.85301 7.06562 8.18114C7.0625 8.19989 7.05938 8.21551 7.05938 8.23426C6.97187 8.98114 7.075 9.65926 7.375 10.253C7.51562 10.5343 7.69375 10.7811 7.89687 10.9999H5C4.44687 10.9999 4 11.4468 4 11.9999C4 12.553 4.44687 12.9999 5 12.9999H19C19.5531 12.9999 20 12.553 20 11.9999C20 11.4468 19.5531 10.9999 19 10.9999H12.4406C12.4375 10.9999 12.4313 10.9968 12.4281 10.9968L12.3938 10.9874C11.2688 10.6499 10.3562 10.3749 9.73125 9.95301C9.44062 9.75614 9.2625 9.55926 9.1625 9.35614C9.06562 9.16551 9 8.89989 9.04375 8.49989H9.04063ZM14.9031 14.5374C14.9875 14.7405 15.0406 15.0311 14.9625 15.478C14.8687 16.028 14.5312 16.4405 13.9031 16.7093C13.2437 16.9905 12.2875 17.0936 11.1375 16.9124C10.575 16.8218 9.60313 16.4905 8.8125 16.2218C8.6375 16.1624 8.46875 16.1061 8.31563 16.053C7.79063 15.878 7.225 16.1624 7.05 16.6874C6.875 17.2124 7.15938 17.778 7.68438 17.953C7.79688 17.9905 7.93125 18.0374 8.08125 18.0874C8.85938 18.353 10.0687 18.7655 10.8187 18.8874H10.825C12.2219 19.1061 13.5844 19.0186 14.6906 18.5468C15.8313 18.0593 16.7031 17.1468 16.9344 15.8186C17.0469 15.1624 17.0187 14.5561 16.8375 14.003H14.4719C14.6906 14.178 14.8281 14.353 14.9062 14.5405L14.9031 14.5374Z" fill="black"/>
</svg>
