<svg width="24" height="24" viewBox="0 0 24 24" fill="none" xmlns="http://www.w3.org/2000/svg">
<path d="M7 5C5.89688 5 5 5.89688 5 7V17C5 18.1031 5.89688 19 7 19H17C18.1031 19 19 18.1031 19 17V7C19 5.89688 18.1031 5 17 5H7ZM9.5 12C9.5 13.3813 10.6187 14.5 12 14.5C12.4187 14.5 12.8094 14.3969 13.1562 14.2156L12.2188 13.2781C11.925 12.9844 11.925 12.5094 12.2188 12.2188C12.5125 11.9281 12.9875 11.925 13.2781 12.2188L14.2156 13.1562C14.3969 12.8094 14.5 12.4156 14.5 12C14.5 10.6187 13.3813 9.5 12 9.5C10.6187 9.5 9.5 10.6187 9.5 12ZM16 12C16 12.8344 15.7437 13.6062 15.3094 14.2469L15.7812 14.7188C16.075 15.0125 16.075 15.4875 15.7812 15.7781C15.4875 16.0687 15.0125 16.0719 14.7219 15.7781L14.25 15.3062C13.6094 15.7437 12.8344 15.9969 12.0031 15.9969C9.79375 15.9969 8.00312 14.2062 8.00312 11.9969C8.00312 9.7875 9.79375 7.99688 12.0031 7.99688C14.2125 7.99688 16.0031 9.7875 16.0031 11.9969L16 12Z" fill="black"/>
</svg>
