<svg width="24" height="24" viewBox="0 0 24 24" fill="none" xmlns="http://www.w3.org/2000/svg">
<path d="M3 8.5C3 10.9844 5.01562 13 7.5 13H11.3531C12.0594 13.6219 12.9844 14 14 14C15.0156 14 15.9406 13.6219 16.6469 13H17.5C19.4344 13 21 11.4344 21 9.5C21 7.56562 19.4344 6 17.5 6C17.1656 6 16.8438 6.04688 16.5375 6.13438C15.8688 4.86563 14.5344 4 13 4C11.9813 4 11.05 4.38125 10.3406 5.00937C9.56562 4.37812 8.57812 4 7.5 4C5.01562 4 3 6.01562 3 8.5ZM21.25 15.5H10.75C10.3344 15.5 10 15.8344 10 16.25C10 16.6656 10.3344 17 10.75 17H21.25C21.6656 17 22 16.6656 22 16.25C22 15.8344 21.6656 15.5 21.25 15.5ZM19.25 18.5H15.75C15.3344 18.5 15 18.8344 15 19.25C15 19.6656 15.3344 20 15.75 20H19.25C19.6656 20 20 19.6656 20 19.25C20 18.8344 19.6656 18.5 19.25 18.5ZM13.25 18.5H2.75C2.33437 18.5 2 18.8344 2 19.25C2 19.6656 2.33437 20 2.75 20H13.25C13.6656 20 14 19.6656 14 19.25C14 18.8344 13.6656 18.5 13.25 18.5ZM9 16.25C9 15.8344 8.66563 15.5 8.25 15.5H5C4.58437 15.5 4.25 15.8344 4.25 16.25C4.25 16.6656 4.58437 17 5 17H8.25C8.66563 17 9 16.6656 9 16.25Z" fill="black"/>
</svg>
