<svg width="24" height="24" viewBox="0 0 24 24" fill="none" xmlns="http://www.w3.org/2000/svg">
<path d="M13.5 5.5C13.5 5.10218 13.342 4.72064 13.0607 4.43934C12.7794 4.15804 12.3978 4 12 4C11.6022 4 11.2206 4.15804 10.9393 4.43934C10.658 4.72064 10.5 5.10218 10.5 5.5C10.5 5.89782 10.658 6.27936 10.9393 6.56066C11.2206 6.84196 11.6022 7 12 7C12.3978 7 12.7794 6.84196 13.0607 6.56066C13.342 6.27936 13.5 5.89782 13.5 5.5ZM13.5 18.5C13.5 18.1022 13.342 17.7206 13.0607 17.4393C12.7794 17.158 12.3978 17 12 17C11.6022 17 11.2206 17.158 10.9393 17.4393C10.658 17.7206 10.5 18.1022 10.5 18.5C10.5 18.8978 10.658 19.2794 10.9393 19.5607C11.2206 19.842 11.6022 20 12 20C12.3978 20 12.7794 19.842 13.0607 19.5607C13.342 19.2794 13.5 18.8978 13.5 18.5ZM5.5 13.5C5.89782 13.5 6.27936 13.342 6.56066 13.0607C6.84196 12.7794 7 12.3978 7 12C7 11.6022 6.84196 11.2206 6.56066 10.9393C6.27936 10.658 5.89782 10.5 5.5 10.5C5.10218 10.5 4.72064 10.658 4.43934 10.9393C4.15804 11.2206 4 11.6022 4 12C4 12.3978 4.15804 12.7794 4.43934 13.0607C4.72064 13.342 5.10218 13.5 5.5 13.5ZM20 12C20 11.6022 19.842 11.2206 19.5607 10.9393C19.2794 10.658 18.8978 10.5 18.5 10.5C18.1022 10.5 17.7206 10.658 17.4393 10.9393C17.158 11.2206 17 11.6022 17 12C17 12.3978 17.158 12.7794 17.4393 13.0607C17.7206 13.342 18.1022 13.5 18.5 13.5C18.8978 13.5 19.2794 13.342 19.5607 13.0607C19.842 12.7794 20 12.3978 20 12ZM8.46562 17.6562C8.60495 17.5169 8.71547 17.3515 8.79087 17.1695C8.86627 16.9875 8.90508 16.7923 8.90508 16.5953C8.90508 16.3983 8.86627 16.2032 8.79087 16.0211C8.71547 15.8391 8.60495 15.6737 8.46562 15.5344C8.3263 15.3951 8.1609 15.2845 7.97886 15.2091C7.79683 15.1337 7.60172 15.0949 7.40469 15.0949C7.00676 15.0949 6.62513 15.253 6.34375 15.5344C6.06237 15.8158 5.9043 16.1974 5.9043 16.5953C5.9043 16.9932 6.06237 17.3749 6.34375 17.6562C6.62513 17.9376 7.00676 18.0957 7.40469 18.0957C7.80262 18.0957 8.18425 17.9376 8.46562 17.6562ZM8.46562 8.4625C8.61187 8.3248 8.72897 8.15912 8.80997 7.97531C8.89098 7.79149 8.93424 7.59328 8.93718 7.39243C8.94013 7.19157 8.90271 6.99218 8.82713 6.80606C8.75155 6.61995 8.63937 6.45091 8.49722 6.30898C8.35508 6.16704 8.18588 6.0551 7.99965 5.9798C7.81343 5.9045 7.61397 5.86737 7.41313 5.87061C7.21228 5.87386 7.01413 5.91741 6.83043 5.99868C6.64674 6.07996 6.48124 6.1973 6.34375 6.34375C6.06237 6.62513 5.9043 7.00676 5.9043 7.40469C5.9043 7.80262 6.06237 8.18425 6.34375 8.46562C6.62513 8.747 7.00676 8.90508 7.40469 8.90508C7.80262 8.90508 8.18425 8.747 8.46562 8.46562V8.4625ZM15.5344 17.6562C15.6737 17.7956 15.8391 17.9061 16.0211 17.9815C16.2032 18.0569 16.3983 18.0957 16.5953 18.0957C16.7923 18.0957 16.9875 18.0569 17.1695 17.9815C17.3515 17.9061 17.5169 17.7956 17.6562 17.6562C17.7956 17.5169 17.9061 17.3515 17.9815 17.1695C18.0569 16.9875 18.0957 16.7923 18.0957 16.5953C18.0957 16.3983 18.0569 16.2032 17.9815 16.0211C17.9061 15.8391 17.7956 15.6737 17.6562 15.5344C17.5169 15.3951 17.3515 15.2845 17.1695 15.2091C16.9875 15.1337 16.7923 15.0949 16.5953 15.0949C16.3983 15.0949 16.2032 15.1337 16.0211 15.2091C15.8391 15.2845 15.6737 15.3951 15.5344 15.5344C15.3951 15.6737 15.2845 15.8391 15.2091 16.0211C15.1337 16.2032 15.0949 16.3983 15.0949 16.5953C15.0949 16.7923 15.1337 16.9875 15.2091 17.1695C15.2845 17.3515 15.3951 17.5169 15.5344 17.6562Z" fill="black"/>
</svg>
