<svg width="24" height="24" viewBox="0 0 24 24" fill="none" xmlns="http://www.w3.org/2000/svg">
<path d="M6.45616 4.15663C6.15928 3.92538 5.73741 3.9535 5.46866 4.21913L4.21866 5.46913C3.95303 5.73475 3.92491 6.15663 4.15303 6.45663L6.65303 9.70663C6.79366 9.891 7.01553 10.0004 7.24678 10.0004H8.93741L12.3437 13.4066C11.8843 14.3129 12.0312 15.4504 12.7905 16.2066L16.2905 19.7066C16.6812 20.0973 17.3155 20.0973 17.7062 19.7066L19.7062 17.7066C20.0968 17.316 20.0968 16.6816 19.7062 16.291L16.2062 12.791C15.4499 12.0347 14.3124 11.8848 13.4062 12.3441L9.99991 8.93788V7.25038C9.99991 7.016 9.89053 6.79725 9.70616 6.65663L6.45616 4.15663ZM4.62178 16.3785C4.22491 16.7754 3.99991 17.316 3.99991 17.8785C3.99991 19.0504 4.94991 20.0004 6.12178 20.0004C6.68428 20.0004 7.22491 19.7754 7.62178 19.3785L11.303 15.6973C11.0593 15.0441 11.0218 14.3348 11.1905 13.6629L9.26241 11.7348L4.62178 16.3785ZM19.9999 8.50038C19.9999 8.17225 19.9655 7.8535 19.8999 7.54725C19.8249 7.19725 19.3968 7.10663 19.1437 7.35975L17.1468 9.35663C17.053 9.45038 16.9249 9.5035 16.7937 9.5035H14.9999C14.7249 9.5035 14.4999 9.2785 14.4999 9.0035V7.20663C14.4999 7.07538 14.553 6.94725 14.6468 6.8535L16.6437 4.85663C16.8968 4.6035 16.8062 4.17538 16.4562 4.10038C16.1468 4.03475 15.828 4.00038 15.4999 4.00038C13.0155 4.00038 10.9999 6.016 10.9999 8.50038V8.52538L13.6655 11.191C14.7905 10.9066 16.0343 11.2066 16.9155 12.0879L17.4062 12.5785C18.9374 11.8598 19.9999 10.3035 19.9999 8.50038ZM5.74991 17.5004C5.74991 17.3015 5.82893 17.1107 5.96958 16.97C6.11023 16.8294 6.301 16.7504 6.49991 16.7504C6.69882 16.7504 6.88959 16.8294 7.03024 16.97C7.17089 17.1107 7.24991 17.3015 7.24991 17.5004C7.24991 17.6993 7.17089 17.8901 7.03024 18.0307C6.88959 18.1714 6.69882 18.2504 6.49991 18.2504C6.301 18.2504 6.11023 18.1714 5.96958 18.0307C5.82893 17.8901 5.74991 17.6993 5.74991 17.5004Z" fill="black"/>
</svg>
