<svg width="24" height="24" viewBox="0 0 24 24" fill="none" xmlns="http://www.w3.org/2000/svg">
<path d="M3.21255 4.15937C2.88755 3.90312 2.41568 3.96249 2.15943 4.28749C1.90318 4.61249 1.96255 5.08437 2.28755 5.34062L20.7876 19.8406C21.1126 20.0969 21.5844 20.0375 21.8407 19.7125C22.0969 19.3875 22.0376 18.9156 21.7126 18.6594L20.0001 17.3156V11H18.0001V15.75L14.0001 12.6156V11H12.0001V11.0469L10.6626 9.99999H20.8501C21.4844 9.99999 22.0001 9.48437 22.0001 8.84999C22.0001 8.62187 21.9313 8.39999 21.8063 8.21249L19.4438 4.66874C19.1657 4.24999 18.7001 3.99999 18.1969 3.99999H5.80318C5.30318 3.99999 4.83443 4.24999 4.5563 4.66874L4.31568 5.02499L3.21255 4.15937ZM3.15005 9.99999H5.8063L2.6563 7.51562L2.1938 8.20937C2.0688 8.39999 2.00005 8.62187 2.00005 8.84687C2.00005 9.48437 2.51568 9.99999 3.15005 9.99999ZM12.0001 16H6.00005V11H4.00005V16V18.5C4.00005 19.3281 4.67193 20 5.50005 20H12.5001C13.3282 20 14.0001 19.3281 14.0001 18.5V16.4531L12.0001 14.8781V16ZM19.0001 20H18.9907H19.0094H19.0001Z" fill="black"/>
</svg>
