<svg width="24" height="24" viewBox="0 0 24 24" fill="none" xmlns="http://www.w3.org/2000/svg">
<path d="M19.2375 5.52815C19.2344 5.51253 19.2313 5.4969 19.2281 5.48128L15.4156 9.29065C16.5031 10.2344 17.8844 10.8469 19.4031 10.975C19.6938 9.00628 19.55 7.05315 19.2344 5.52815H19.2375ZM18.525 4.76878C18.4906 4.7594 18.4563 4.75315 18.4219 4.7469C16.3719 4.40315 14.5813 4.35628 13.0219 4.5594C13.1438 6.09378 13.7594 7.48753 14.7094 8.5844L18.525 4.76878ZM17.9375 15.2C18.5563 14.1907 18.9688 13.0844 19.2219 11.9625C17.5 11.7969 15.9375 11.0844 14.7094 10L12.7094 12L17.0781 16.3719C17.4 16.0032 17.6844 15.6094 17.9344 15.2H17.9375ZM14 9.29378C12.9063 8.05315 12.1906 6.4719 12.0313 4.72815C11.5 4.84065 11 4.98753 10.5281 5.16253C9.37188 5.59065 8.40938 6.19378 7.61876 6.91253L12 11.2938L14 9.29378ZM11.2938 12L6.91876 7.62815C6.60001 7.9969 6.31563 8.39065 6.06251 8.80003C5.44376 9.8094 5.03126 10.9157 4.77813 12.0375C6.50001 12.2032 8.06251 12.9157 9.29063 14L11.2906 12H11.2938ZM10 14.7063C11.0938 15.9469 11.8125 17.5282 11.9688 19.2719C12.5 19.1594 13 19.0125 13.4719 18.8375C14.6281 18.4094 15.5906 17.8063 16.3813 17.0875L12 12.7063L10 14.7063ZM8.58438 14.7094C7.49688 13.7657 6.11563 13.1532 4.59688 13.025C4.30626 14.9938 4.45001 16.9469 4.76563 18.4719C4.76876 18.4875 4.77188 18.5032 4.77501 18.5188L8.58438 14.7094ZM9.29063 15.4157L5.47501 19.2313C5.50938 19.2407 5.54376 19.2469 5.57813 19.2532C7.62813 19.5969 9.41876 19.6438 10.9781 19.4407C10.8563 17.9063 10.2406 16.5125 9.29063 15.4157Z" fill="black"/>
</svg>
