<svg width="24" height="24" viewBox="0 0 24 24" fill="none" xmlns="http://www.w3.org/2000/svg">
<path d="M6 5C5.44687 5 5 5.44687 5 6V18C5 18.5531 5.44687 19 6 19C6.55313 19 7 18.5531 7 18V7H11C12.1031 7 13 7.89688 13 9V14C13 14.5531 13.4469 15 14 15C14.5531 15 15 14.5531 15 14V9C15 6.79063 13.2094 5 11 5H6ZM15 19C17.2094 19 19 17.2094 19 15V6C19 5.44687 18.5531 5 18 5C17.4469 5 17 5.44687 17 6V15C17 16.1031 16.1031 17 15 17H11V10C11 9.44687 10.5531 9 10 9C9.44687 9 9 9.44687 9 10V18C9 18.5531 9.44687 19 10 19H15Z" fill="black"/>
</svg>
