<svg width="24" height="24" viewBox="0 0 24 24" fill="none" xmlns="http://www.w3.org/2000/svg">
<path d="M7 5C5.89688 5 5 5.89688 5 7V17C5 18.1031 5.89688 19 7 19H17C18.1031 19 19 18.1031 19 17V7C19 5.89688 18.1031 5 17 5H7ZM9.35938 8.30937L12 11.9688L14.6406 8.30937C14.8313 8.04687 15.1687 7.93438 15.4781 8.03438C15.7875 8.13438 15.9969 8.42187 15.9969 8.74687V15.25C15.9969 15.6656 15.6625 16 15.2469 16C14.8313 16 14.4969 15.6656 14.4969 15.25V11.0687L12.6062 13.6875C12.4656 13.8813 12.2406 13.9969 11.9969 13.9969C11.7531 13.9969 11.5312 13.8813 11.3875 13.6875L9.5 11.0687V15.25C9.5 15.6656 9.16563 16 8.75 16C8.33437 16 8 15.6656 8 15.25V8.75C8 8.425 8.20937 8.1375 8.51875 8.0375C8.82812 7.9375 9.16562 8.04688 9.35625 8.3125L9.35938 8.30937Z" fill="black"/>
</svg>
