<svg width="24" height="24" viewBox="0 0 24 24" fill="none" xmlns="http://www.w3.org/2000/svg">
<path d="M12.4188 4.09063C12.2875 4.03125 12.1469 4 12 4C11.8531 4 11.7125 4.03125 11.5813 4.09063L5.69689 6.5875C5.00939 6.87813 4.49689 7.55625 4.50001 8.375C4.51564 11.475 5.79064 17.1469 11.175 19.725C11.6969 19.975 12.3031 19.975 12.825 19.725C18.2094 17.1469 19.4844 11.475 19.5 8.375C19.5031 7.55625 18.9906 6.87813 18.3031 6.5875L12.4188 4.09063ZM9.02814 12.9438C9.17814 12.9813 9.33751 13 9.50001 13C10.6031 13 11.5 12.1031 11.5 11V9H12.8813C13.2594 9 13.6063 9.2125 13.775 9.55312L14 10H16C16.275 10 16.5 10.225 16.5 10.5V11.5C16.5 12.8813 15.3813 14 14 14H12.5V15.5844C12.5 15.8125 12.3156 16 12.0844 16C12.0281 16 11.9719 15.9875 11.9219 15.9656L8.83751 14.6438C8.63126 14.5563 8.50001 14.3531 8.50001 14.1313C8.50001 14.0438 8.51876 13.9594 8.55939 13.8813L9.02814 12.9438ZM9.00001 9H10.25H10.5V10V11C10.5 11.5531 10.0531 12 9.50001 12C8.94689 12 8.50001 11.5531 8.50001 11V9.5C8.50001 9.225 8.72501 9 9.00001 9ZM13 10.5C13 10.3674 12.9473 10.2402 12.8536 10.1464C12.7598 10.0527 12.6326 10 12.5 10C12.3674 10 12.2402 10.0527 12.1465 10.1464C12.0527 10.2402 12 10.3674 12 10.5C12 10.6326 12.0527 10.7598 12.1465 10.8536C12.2402 10.9473 12.3674 11 12.5 11C12.6326 11 12.7598 10.9473 12.8536 10.8536C12.9473 10.7598 13 10.6326 13 10.5Z" fill="black"/>
</svg>
