<svg width="24" height="24" viewBox="0 0 24 24" fill="none" xmlns="http://www.w3.org/2000/svg">
<path d="M20 7C20 5.89688 19.1031 5 18 5H6C4.89688 5 4 5.89688 4 7V17C4 18.1031 4.89688 19 6 19H18C19.1031 19 20 18.1031 20 17V7ZM13 7V17H6V7H13ZM17.25 7C17.6656 7 18 7.33437 18 7.75C18 8.16563 17.6656 8.5 17.25 8.5H15.75C15.3344 8.5 15 8.16563 15 7.75C15 7.33437 15.3344 7 15.75 7H17.25ZM18 10.75C18 11.1656 17.6656 11.5 17.25 11.5H15.75C15.3344 11.5 15 11.1656 15 10.75C15 10.3344 15.3344 10 15.75 10H17.25C17.6656 10 18 10.3344 18 10.75ZM17.25 13C17.6656 13 18 13.3344 18 13.75C18 14.1656 17.6656 14.5 17.25 14.5H15.75C15.3344 14.5 15 14.1656 15 13.75C15 13.3344 15.3344 13 15.75 13H17.25Z" fill="black"/>
</svg>
