<svg width="24" height="24" viewBox="0 0 24 24" fill="none" xmlns="http://www.w3.org/2000/svg">
<path d="M4 5C4.55313 5 5 5.44687 5 6V10.6L7.3625 10.1281C8.10313 8.29375 9.9 7 12 7C14.1 7 15.8969 8.29375 16.6375 10.1281L19 10.6V6C19 5.44687 19.4469 5 20 5C20.5531 5 21 5.44687 21 6V11V13V18C21 18.5531 20.5531 19 20 19C19.4469 19 19 18.5531 19 18V13.4L16.6375 13.8719C15.8969 15.7063 14.1 17 12 17C9.9 17 8.10313 15.7063 7.3625 13.8719L5 13.4V18C5 18.5531 4.55313 19 4 19C3.44687 19 3 18.5531 3 18V13V11V6C3 5.44687 3.44687 5 4 5ZM11.5 14.9594V13.9375C11.3156 13.8906 11.1438 13.8188 10.9844 13.725L10.2625 14.4469C10.625 14.7031 11.0437 14.8844 11.5 14.9594ZM9.55312 13.7406L10.275 13.0188C10.1813 12.8594 10.1094 12.6875 10.0625 12.5031H9.04063C9.11562 12.9594 9.29688 13.3813 9.55312 13.7406ZM9.04063 11.5H10.0625C10.1094 11.3156 10.1813 11.1438 10.275 10.9844L9.55312 10.2625C9.29688 10.625 9.11562 11.0437 9.04063 11.5ZM10.2594 9.55312L10.9812 10.275C11.1406 10.1813 11.3125 10.1094 11.4969 10.0625V9.04063C11.0406 9.11562 10.6188 9.29688 10.2594 9.55312ZM13.7375 14.4469L13.0156 13.725C12.8562 13.8188 12.6844 13.8906 12.5 13.9375V14.9594C12.9563 14.8844 13.3781 14.7031 13.7375 14.4469ZM14.4438 13.7406C14.7 13.3781 14.8813 12.9594 14.9563 12.5031H13.9375C13.8906 12.6875 13.8188 12.8594 13.725 13.0188L14.4469 13.7406H14.4438ZM13.9375 11.5H14.9594C14.8844 11.0437 14.7031 10.6219 14.4469 10.2625L13.725 10.9844C13.8188 11.1438 13.8906 11.3156 13.9375 11.5ZM13.7375 9.55312C13.375 9.29688 12.9563 9.11562 12.5 9.04063V10.0625C12.6844 10.1094 12.8562 10.1813 13.0156 10.275L13.7375 9.55312ZM12.7125 12.7031C12.8906 12.5219 13 12.275 13 12C13 11.4469 12.5531 11 12 11C11.4469 11 11 11.4469 11 12C11 12.5531 11.4469 13 12 13C12.275 13 12.5219 12.8906 12.7031 12.7125L12.7125 12.7031Z" fill="black"/>
</svg>
