<svg width="24" height="24" viewBox="0 0 24 24" fill="none" xmlns="http://www.w3.org/2000/svg">
<path d="M17 7C17.0813 7 17.1625 7.00312 17.2437 7.00625C16.6937 6.39062 15.8906 6 15 6C14.7281 6 14.4625 6.0375 14.2094 6.10625C13.6719 4.86563 12.4375 4 11 4C9.5625 4 8.32812 4.86563 7.79063 6.10625C7.54063 6.0375 7.275 6 7 6C5.34375 6 4 7.34375 4 9C4 10.6562 5.34375 12 7 12H9.29375L6.64687 9.35313C6.45312 9.15938 6.45312 8.84062 6.64687 8.64687C6.84062 8.45312 7.15938 8.45312 7.35313 8.64687L10.5 11.7937V7.5C10.5 7.225 10.725 7 11 7C11.275 7 11.5 7.225 11.5 7.5V12H13.125C13.0437 11.6813 13 11.3438 13 11C13 8.79063 14.7906 7 17 7ZM4.85625 13C4.38437 13 4 13.3844 4 13.8562C4 16.0594 5.3875 17.9406 7.33437 18.6719L7.39062 19.1219C7.45312 19.6219 7.87813 19.9969 8.38438 19.9969H15.6187C16.1219 19.9969 16.55 19.6219 16.6125 19.1219L16.6687 18.6719C18.6125 17.9406 20 16.0594 20 13.8562C20 13.3844 19.6156 13 19.1438 13H4.85625ZM20 11C20 9.34375 18.6562 8 17 8C15.3438 8 14 9.34375 14 11C14 11.35 14.0594 11.6875 14.1719 12H19.8281C19.9375 11.6875 20 11.35 20 11Z" fill="black"/>
</svg>
