<svg width="24" height="24" viewBox="0 0 24 24" fill="none" xmlns="http://www.w3.org/2000/svg">
<path d="M11.0002 4C10.4471 4 10.0002 4.44687 10.0002 5C10.0002 5.55313 10.4471 6 11.0002 6H12.0002L10.2002 8.4C9.97206 8.70312 9.93768 9.10938 10.1064 9.44688C10.2752 9.78438 10.6221 10 11.0002 10H14.0002C14.5533 10 15.0002 9.55312 15.0002 9C15.0002 8.44688 14.5533 8 14.0002 8H13.0002L14.8002 5.6C15.0283 5.29688 15.0627 4.89062 14.8939 4.55313C14.7252 4.21563 14.3783 4 14.0002 4H11.0002ZM15.0002 11C14.4471 11 14.0002 11.4469 14.0002 12C14.0002 12.5531 14.4471 13 15.0002 13H16.0002L14.2002 15.4C13.9721 15.7031 13.9377 16.1094 14.1064 16.4469C14.2752 16.7844 14.6221 17 15.0002 17H18.0002C18.5533 17 19.0002 16.5531 19.0002 16C19.0002 15.4469 18.5533 15 18.0002 15H17.0002L18.8002 12.6C19.0283 12.2969 19.0627 11.8906 18.8939 11.5531C18.7252 11.2156 18.3783 11 18.0002 11H15.0002ZM6.00018 12C5.44706 12 5.00018 12.4469 5.00018 13C5.00018 13.5531 5.44706 14 6.00018 14H8.86581L5.23143 18.3594C4.98456 18.6562 4.92831 19.0719 5.09393 19.425C5.25956 19.7781 5.61268 20 6.00018 20H11.0002C11.5533 20 12.0002 19.5531 12.0002 19C12.0002 18.4469 11.5533 18 11.0002 18H8.13456L11.7689 13.6406C12.0158 13.3438 12.0721 12.9281 11.9064 12.575C11.7408 12.2219 11.3877 12 11.0002 12H6.00018Z" fill="black"/>
</svg>
