<svg width="24" height="24" viewBox="0 0 24 24" fill="none" xmlns="http://www.w3.org/2000/svg">
<path d="M10 7H14L15.4812 4.77812C15.7031 4.44375 15.4656 4 15.0656 4H8.93437C8.53437 4 8.29688 4.44375 8.51875 4.77812L10 7ZM14 8H10C9.88125 8.07812 9.74688 8.16562 9.59375 8.2625C7.82187 9.39687 4 11.8406 4 17C4 18.6562 5.34375 20 7 20H17C18.6562 20 20 18.6562 20 17C20 11.8406 16.1781 9.39687 14.4062 8.2625C14.2562 8.16562 14.1187 8.07812 14 8ZM13.0594 14.5L14.5281 15.9688C14.8219 16.2625 14.8219 16.7375 14.5281 17.0281C14.2344 17.3187 13.7594 17.3219 13.4688 17.0281L12 15.5594L10.5312 17.0281C10.2375 17.3219 9.7625 17.3219 9.47188 17.0281C9.18125 16.7344 9.17813 16.2594 9.47188 15.9688L10.9406 14.5L9.47188 13.0312C9.17813 12.7375 9.17813 12.2625 9.47188 11.9719C9.76563 11.6813 10.2406 11.6781 10.5312 11.9719L12 13.4406L13.4688 11.9719C13.7625 11.6781 14.2375 11.6781 14.5281 11.9719C14.8187 12.2656 14.8219 12.7406 14.5281 13.0312L13.0594 14.5Z" fill="black"/>
</svg>
