<svg width="24" height="24" viewBox="0 0 24 24" fill="none" xmlns="http://www.w3.org/2000/svg">
<path d="M15.5968 4.40943L16.2187 7.78131L14.8281 9.17193C14.1031 8.44693 13.1031 8.00006 11.9999 8.00006C9.79056 8.00006 7.99994 9.79068 7.99994 12.0001C7.99994 13.1032 8.44681 14.1032 9.17181 14.8282L7.78119 16.2188L4.40931 15.5969C4.24369 15.5657 4.10306 15.4532 4.03744 15.2969C3.97181 15.1407 3.99056 14.9626 4.08744 14.8219L6.03431 12.0001L4.08744 9.17818C3.99056 9.03756 3.97181 8.85943 4.03744 8.70318C4.10306 8.54693 4.24369 8.43443 4.40931 8.40318L7.78119 7.78131L8.40306 4.40943C8.43431 4.24381 8.54681 4.10318 8.70306 4.03756C8.85931 3.97193 9.03744 3.99068 9.17806 4.08756L11.9999 6.03443L14.8218 4.08756C14.9624 3.99068 15.1406 3.97193 15.2968 4.03756C15.4531 4.10318 15.5656 4.24381 15.5968 4.40943ZM11.9999 9.00006C12.8281 9.00006 13.5781 9.33443 14.1218 9.87818L9.87806 14.1219C9.33431 13.5782 8.99994 12.8282 8.99994 12.0001C8.99994 10.3438 10.3437 9.00006 11.9999 9.00006ZM17.9999 9.00006C17.9999 8.73484 18.1053 8.48049 18.2928 8.29295C18.4804 8.10542 18.7347 8.00006 18.9999 8.00006C19.2652 8.00006 19.5195 8.10542 19.707 8.29295C19.8946 8.48049 19.9999 8.73484 19.9999 9.00006C19.9999 9.26527 19.8946 9.51963 19.707 9.70716C19.5195 9.8947 19.2652 10.0001 18.9999 10.0001C18.7347 10.0001 18.4804 9.8947 18.2928 9.70716C18.1053 9.51963 17.9999 9.26527 17.9999 9.00006ZM15.4999 11.5001C15.4999 11.2348 15.6053 10.9805 15.7928 10.793C15.9804 10.6054 16.2347 10.5001 16.4999 10.5001C16.7652 10.5001 17.0195 10.6054 17.207 10.793C17.3946 10.9805 17.4999 11.2348 17.4999 11.5001C17.4999 11.7653 17.3946 12.0196 17.207 12.2072C17.0195 12.3947 16.7652 12.5001 16.4999 12.5001C16.2347 12.5001 15.9804 12.3947 15.7928 12.2072C15.6053 12.0196 15.4999 11.7653 15.4999 11.5001ZM18.9999 13.0001C19.2652 13.0001 19.5195 13.1054 19.707 13.293C19.8946 13.4805 19.9999 13.7348 19.9999 14.0001C19.9999 14.2653 19.8946 14.5196 19.707 14.7072C19.5195 14.8947 19.2652 15.0001 18.9999 15.0001C18.7347 15.0001 18.4804 14.8947 18.2928 14.7072C18.1053 14.5196 17.9999 14.2653 17.9999 14.0001C17.9999 13.7348 18.1053 13.4805 18.2928 13.293C18.4804 13.1054 18.7347 13.0001 18.9999 13.0001ZM11.4999 15.5001C11.7652 15.5001 12.0195 15.6054 12.207 15.793C12.3946 15.9805 12.4999 16.2348 12.4999 16.5001C12.4999 16.7653 12.3946 17.0196 12.207 17.2072C12.0195 17.3947 11.7652 17.5001 11.4999 17.5001C11.2347 17.5001 10.9804 17.3947 10.7928 17.2072C10.6053 17.0196 10.4999 16.7653 10.4999 16.5001C10.4999 16.2348 10.6053 15.9805 10.7928 15.793C10.9804 15.6054 11.2347 15.5001 11.4999 15.5001ZM8.99994 18.0001C9.26515 18.0001 9.51951 18.1054 9.70704 18.293C9.89458 18.4805 9.99994 18.7348 9.99994 19.0001C9.99994 19.2653 9.89458 19.5196 9.70704 19.7072C9.51951 19.8947 9.26515 20.0001 8.99994 20.0001C8.73472 20.0001 8.48037 19.8947 8.29283 19.7072C8.10529 19.5196 7.99994 19.2653 7.99994 19.0001C7.99994 18.7348 8.10529 18.4805 8.29283 18.293C8.48037 18.1054 8.73472 18.0001 8.99994 18.0001ZM12.9999 19.0001C12.9999 18.7348 13.1053 18.4805 13.2928 18.293C13.4804 18.1054 13.7347 18.0001 13.9999 18.0001C14.2652 18.0001 14.5195 18.1054 14.707 18.293C14.8946 18.4805 14.9999 18.7348 14.9999 19.0001C14.9999 19.2653 14.8946 19.5196 14.707 19.7072C14.5195 19.8947 14.2652 20.0001 13.9999 20.0001C13.7347 20.0001 13.4804 19.8947 13.2928 19.7072C13.1053 19.5196 12.9999 19.2653 12.9999 19.0001ZM18.9999 18.0001C19.2652 18.0001 19.5195 18.1054 19.707 18.293C19.8946 18.4805 19.9999 18.7348 19.9999 19.0001C19.9999 19.2653 19.8946 19.5196 19.707 19.7072C19.5195 19.8947 19.2652 20.0001 18.9999 20.0001C18.7347 20.0001 18.4804 19.8947 18.2928 19.7072C18.1053 19.5196 17.9999 19.2653 17.9999 19.0001C17.9999 18.7348 18.1053 18.4805 18.2928 18.293C18.4804 18.1054 18.7347 18.0001 18.9999 18.0001ZM15.4999 16.5001C15.4999 16.2348 15.6053 15.9805 15.7928 15.793C15.9804 15.6054 16.2347 15.5001 16.4999 15.5001C16.7652 15.5001 17.0195 15.6054 17.207 15.793C17.3946 15.9805 17.4999 16.2348 17.4999 16.5001C17.4999 16.7653 17.3946 17.0196 17.207 17.2072C17.0195 17.3947 16.7652 17.5001 16.4999 17.5001C16.2347 17.5001 15.9804 17.3947 15.7928 17.2072C15.6053 17.0196 15.4999 16.7653 15.4999 16.5001ZM13.9999 13.0001C14.2652 13.0001 14.5195 13.1054 14.707 13.293C14.8946 13.4805 14.9999 13.7348 14.9999 14.0001C14.9999 14.2653 14.8946 14.5196 14.707 14.7072C14.5195 14.8947 14.2652 15.0001 13.9999 15.0001C13.7347 15.0001 13.4804 14.8947 13.2928 14.7072C13.1053 14.5196 12.9999 14.2653 12.9999 14.0001C12.9999 13.7348 13.1053 13.4805 13.2928 13.293C13.4804 13.1054 13.7347 13.0001 13.9999 13.0001Z" fill="black"/>
</svg>
