<svg width="24" height="24" viewBox="0 0 24 24" fill="none" xmlns="http://www.w3.org/2000/svg">
<path d="M19.8031 5.25622C20.075 4.95934 20.0625 4.50309 19.7812 4.21872C19.5 3.93434 19.0406 3.92497 18.7437 4.19684L11.0344 11.25H14.3188L19.8031 5.25622ZM9.91563 12C9.51875 12 9.1375 12.1593 8.85625 12.4406L7.325 13.9718L8.17812 14.825L9.17812 15.825L10.0312 16.6781L13.8531 12.8531C13.9969 12.7093 14.0375 12.4937 13.9625 12.3093C13.8875 12.125 13.7031 12 13.5 12H9.91563ZM9.67812 17.0312L9 16.3531L5.69687 19.6562L5.80625 19.7656C5.95625 19.9156 6.15937 20 6.37188 20C6.58438 20 6.7875 19.9156 6.9375 19.7656L9.67812 17.0312ZM5.34375 19.3031L8.64687 16L8 15.3531L4.69687 18.6562L5.34375 19.3031ZM4.34375 18.3031L7.64687 15L6.96875 14.3218L4.23438 17.0593C4.08437 17.2093 4 17.4125 4 17.625C4 17.8375 4.08437 18.0406 4.23438 18.1906L4.34375 18.3V18.3031Z" fill="black"/>
</svg>
