<svg width="24" height="24" viewBox="0 0 24 24" fill="none" xmlns="http://www.w3.org/2000/svg">
<path d="M14 5H18C18.5531 5 19 5.44687 19 6C19 6.55313 18.5531 7 18 7H14.45C14.2875 7.80625 13.7343 8.47188 13 8.79063V18H18C18.5531 18 19 18.4469 19 19C19 19.5531 18.5531 20 18 20H12H5.99997C5.44685 20 4.99997 19.5531 4.99997 19C4.99997 18.4469 5.44685 18 5.99997 18H11V8.79063C10.2656 8.46875 9.71247 7.80313 9.54997 7H5.99997C5.44685 7 4.99997 6.55313 4.99997 6C4.99997 5.44687 5.44685 5 5.99997 5H9.99997C10.4562 4.39375 11.1812 4 12 4C12.8187 4 13.5437 4.39375 14 5ZM15.7375 14H20.2625L18 10.1188L15.7375 14ZM18 17C16.0343 17 14.4 15.9375 14.0625 14.5344C13.9812 14.1906 14.0937 13.8375 14.2718 13.5312L17.2468 8.43125C17.4031 8.1625 17.6906 8 18 8C18.3093 8 18.5968 8.16563 18.7531 8.43125L21.7281 13.5312C21.9062 13.8375 22.0187 14.1906 21.9375 14.5344C21.6 15.9375 19.9656 17 18 17ZM5.96247 10.1188L3.69997 14H8.2281L5.96247 10.1188ZM2.0281 14.5344C1.94685 14.1906 2.05935 13.8375 2.23747 13.5312L5.21247 8.43125C5.36872 8.1625 5.65622 8 5.9656 8C6.27497 8 6.56247 8.16563 6.71872 8.43125L9.69372 13.5312C9.87185 13.8375 9.98435 14.1906 9.9031 14.5344C9.56247 15.9375 7.9281 17 5.96247 17C3.99685 17 2.3656 15.9375 2.0281 14.5344Z" fill="black"/>
</svg>
