<svg width="24" height="24" viewBox="0 0 24 24" fill="none" xmlns="http://www.w3.org/2000/svg">
<path d="M8.95008 5.01879C9.10008 4.63129 8.90633 4.19691 8.51883 4.05004C8.13133 3.90316 7.69695 4.09379 7.55008 4.48129L6.53445 7.12504C6.28758 7.77191 6.4407 8.50316 6.93133 8.99066L8.72508 10.7844L6.21258 9.94691C6.13758 9.92191 6.0782 9.86254 6.0532 9.78754L5.46258 8.01254C5.33133 7.61879 4.90633 7.40629 4.51258 7.53754C4.11883 7.66879 3.90633 8.09379 4.03758 8.48754L4.6282 10.2625C4.8032 10.7844 5.21258 11.1938 5.73445 11.3688L7.6282 12L5.73758 12.6313C5.2157 12.8063 4.80633 13.2157 4.63133 13.7375L4.03758 15.5125C3.90633 15.9063 4.11883 16.3313 4.51258 16.4625C4.90633 16.5938 5.33133 16.3813 5.46258 15.9875L6.0532 14.2125C6.0782 14.1375 6.13758 14.0782 6.21258 14.0532L8.72508 13.2157L6.9282 15.0094C6.4407 15.5 6.28445 16.2313 6.53445 16.875L7.55008 19.5188C7.70008 19.9063 8.13133 20.0969 8.51883 19.95C8.90633 19.8032 9.09695 19.3688 8.95008 18.9813L7.93445 16.3375C7.90008 16.2438 7.92195 16.1407 7.9907 16.0719L9.00008 15.0594C9.03133 16.6875 10.3626 18 12.0001 18C13.6376 18 14.9688 16.6907 15.0001 15.0594L16.0095 16.0688C16.0782 16.1375 16.1001 16.2438 16.0657 16.3344L15.0501 18.9782C14.9001 19.3657 15.0938 19.8 15.4813 19.9469C15.8688 20.0938 16.3032 19.9032 16.4501 19.5157L17.4657 16.875C17.7126 16.2282 17.5595 15.4969 17.0688 15.0094L15.2751 13.2157L17.7876 14.0532C17.8626 14.0782 17.922 14.1375 17.947 14.2125L18.5376 15.9875C18.6688 16.3813 19.0938 16.5938 19.4876 16.4625C19.8813 16.3313 20.0938 15.9063 19.9626 15.5125L19.372 13.7375C19.197 13.2157 18.7876 12.8063 18.2657 12.6313L16.372 12L18.2626 11.3688C18.7845 11.1938 19.1938 10.7844 19.3688 10.2625L19.9595 8.48754C20.0907 8.09379 19.8782 7.66879 19.4845 7.53754C19.0907 7.40629 18.6657 7.61879 18.5345 8.01254L17.9438 9.78754C17.9188 9.86254 17.8595 9.92191 17.7845 9.94691L15.272 10.7844L17.0657 8.99066C17.5532 8.50316 17.7095 7.77191 17.4626 7.12504L16.4501 4.48129C16.3001 4.09379 15.8688 3.90004 15.4813 4.05004C15.0938 4.20004 14.9032 4.63129 15.0501 5.01879L16.0657 7.66254C16.1001 7.75629 16.0782 7.85941 16.0095 7.92816L14.5001 9.44066V9.00004C14.5001 8.00629 13.9188 7.14691 13.0782 6.74379C12.7938 6.60629 12.5001 6.84691 12.5001 7.16254V7.50004C12.5001 7.77504 12.2751 8.00004 12.0001 8.00004C11.7251 8.00004 11.5001 7.77504 11.5001 7.50004V7.16254C11.5001 6.84691 11.2063 6.60941 10.922 6.74379C10.0813 7.14691 9.50008 8.00629 9.50008 9.00004V9.44066L7.9907 7.93129C7.92195 7.86254 7.90008 7.75629 7.93445 7.66566L8.95008 5.02191V5.01879Z" fill="black"/>
</svg>
