<svg width="24" height="24" viewBox="0 0 24 24" fill="none" xmlns="http://www.w3.org/2000/svg">
<path d="M15 4C13.0094 4 10 5 10 5V9C11.5 9 12.375 9.5 13.25 10C14.125 10.5 15 11 16.5 11C18.2625 11 22 10.5 22 8C22 5.5 18 4 15 4ZM6 7C6 8.10313 6.89687 9 8 9H9V5H8C6.89687 5 6 5.89688 6 7ZM11 20C14 20 18 18.5 18 16C18 13.5 14.2625 13 12.5 13C11 13 10.125 13.5 9.25 14C8.375 14.5 7.5 15 6 15V19C6 19 9.00938 20 11 20ZM2 17C2 18.1031 2.89688 19 4 19H5V15H4C2.89688 15 2 15.8969 2 17Z" fill="black"/>
</svg>
