<svg width="24" height="24" viewBox="0 0 24 24" fill="none" xmlns="http://www.w3.org/2000/svg">
<path d="M7 5C5.89688 5 5 5.89688 5 7V17C5 18.1031 5.89688 19 7 19H17C18.1031 19 19 18.1031 19 17V7C19 5.89688 18.1031 5 17 5H7ZM9.75 8H13C14.3813 8 15.5 9.11875 15.5 10.5C15.5 11.6437 14.7312 12.6094 13.6812 12.9062L15.1 14.8C15.35 15.1313 15.2812 15.6 14.95 15.85C14.6187 16.1 14.15 16.0312 13.9 15.7L11.875 13H10.5V15.25C10.5 15.6656 10.1656 16 9.75 16C9.33437 16 9 15.6656 9 15.25V12.25V8.75C9 8.33437 9.33437 8 9.75 8ZM12.25 11.5H13C13.5531 11.5 14 11.0531 14 10.5C14 9.94687 13.5531 9.5 13 9.5H10.5V11.5H12.25Z" fill="black"/>
</svg>
