<svg width="24" height="24" viewBox="0 0 24 24" fill="none" xmlns="http://www.w3.org/2000/svg">
<path d="M8.99992 4.00001C9.55304 4.00001 9.99992 4.44688 9.99992 5.00001V5.94063L10.4687 5.47188C10.7624 5.17813 11.2374 5.17813 11.528 5.47188C11.8187 5.76563 11.8218 6.24063 11.528 6.53126L9.99679 8.06251V10.2594L11.9155 9.14063L12.4687 7.07501C12.5749 6.67501 12.9874 6.43751 13.3874 6.54376C13.7874 6.65001 14.0249 7.06251 13.9187 7.46251L13.7562 8.06563L14.4937 7.63438C14.9718 7.35626 15.5843 7.51876 15.8624 7.99376C16.1405 8.46876 15.9812 9.08438 15.503 9.36251L14.7124 9.82501L15.3905 10.0063C15.7905 10.1125 16.028 10.525 15.9218 10.925C15.8155 11.325 15.403 11.5625 15.003 11.4563L12.8874 10.8906L10.9843 12L12.8874 13.1094L15.003 12.5438C15.403 12.4375 15.8155 12.675 15.9218 13.075C16.028 13.475 15.7905 13.8875 15.3905 13.9938L14.7124 14.175L15.503 14.6375C15.9812 14.9156 16.1405 15.5281 15.8624 16.0063C15.5843 16.4844 14.9718 16.6438 14.4937 16.3656L13.7562 15.9344L13.9187 16.5375C14.0249 16.9375 13.7874 17.35 13.3874 17.4563C12.9874 17.5625 12.5749 17.325 12.4687 16.925L11.9155 14.8594L9.99992 13.7406V15.9375L11.5312 17.4688C11.8249 17.7625 11.8249 18.2375 11.5312 18.5281C11.2374 18.8188 10.7624 18.8219 10.4718 18.5281L10.003 18.0594V19C10.003 19.5531 9.55617 20 9.00304 20C8.44992 20 8.00304 19.5531 8.00304 19V18.0594L7.53429 18.5281C7.24054 18.8219 6.76554 18.8219 6.47492 18.5281C6.18429 18.2344 6.18117 17.7594 6.47492 17.4688L8.00617 15.9375V13.7406L6.08742 14.8594L5.53429 16.925C5.42804 17.325 5.01554 17.5625 4.61554 17.4563C4.21554 17.35 3.97804 16.9375 4.08429 16.5375L4.24679 15.9344L3.50304 16.3625C3.02491 16.6406 2.41241 16.4781 2.13429 16.0031C1.85617 15.5281 2.01867 14.9125 2.49367 14.6344L3.28429 14.1719L2.60616 13.9906C2.20616 13.8844 1.96867 13.4719 2.07492 13.0719C2.18117 12.6719 2.59367 12.4344 2.99366 12.5406L5.10929 13.1063L7.01554 12L5.11242 10.8906L2.99679 11.4563C2.59679 11.5625 2.18429 11.325 2.07804 10.925C1.97179 10.525 2.20929 10.1125 2.60929 10.0063L3.28742 9.82501L2.49679 9.36251C2.01866 9.08438 1.85929 8.47188 2.13742 7.99688C2.41554 7.52188 3.02804 7.35938 3.50617 7.63751L4.24367 8.06876L4.08117 7.46563C3.97492 7.06563 4.21241 6.65313 4.61242 6.54688C5.01242 6.44063 5.42492 6.67813 5.53117 7.07813L6.08429 9.14376L7.99992 10.2594V8.05938L6.46867 6.53126C6.17492 6.23751 6.17492 5.76251 6.46867 5.47188C6.76241 5.18126 7.23741 5.17813 7.52804 5.47188L7.99679 5.94063V5.00001C7.99679 4.44688 8.44367 4.00001 8.99679 4.00001H8.99992ZM17.2187 4.21876C17.5124 3.92501 17.9874 3.92501 18.278 4.21876L18.9968 4.93751L19.7187 4.21876C20.0124 3.92501 20.4874 3.92501 20.778 4.21876C21.0687 4.51251 21.0718 4.98751 20.778 5.27813L20.0593 5.99688L20.778 6.71563C21.0718 7.00938 21.0718 7.48438 20.778 7.77501C20.4843 8.06563 20.0093 8.06876 19.7187 7.77501L18.9999 7.05626L18.2812 7.77501C17.9874 8.06876 17.5124 8.06876 17.2218 7.77501C16.9312 7.48126 16.928 7.00626 17.2218 6.71563L17.9405 5.99688L17.2187 5.28126C16.9249 4.98751 16.9249 4.51251 17.2187 4.22188V4.21876ZM18.2187 10.2188C18.5124 9.92501 18.9874 9.92501 19.278 10.2188L19.9968 10.9375L20.7155 10.2188C21.0093 9.92501 21.4843 9.92501 21.7749 10.2188C22.0655 10.5125 22.0687 10.9875 21.7749 11.2781L21.0562 11.9969L21.7749 12.7156C22.0687 13.0094 22.0687 13.4844 21.7749 13.775C21.4812 14.0656 21.0062 14.0688 20.7155 13.775L19.9968 13.0563L19.278 13.775C18.9843 14.0688 18.5093 14.0688 18.2187 13.775C17.928 13.4813 17.9249 13.0063 18.2187 12.7156L18.9374 11.9969L18.2187 11.2781C17.9249 10.9844 17.9249 10.5094 18.2187 10.2188Z" fill="black"/>
</svg>
