<svg width="24" height="24" viewBox="0 0 24 24" fill="none" xmlns="http://www.w3.org/2000/svg">
<path d="M12.4188 4.09063C12.2875 4.03125 12.1469 4 12 4C11.8531 4 11.7125 4.03125 11.5813 4.09063L5.69689 6.5875C5.00939 6.87813 4.49689 7.55625 4.50001 8.375C4.51564 11.475 5.79064 17.1469 11.175 19.725C11.6969 19.975 12.3031 19.975 12.825 19.725C18.2094 17.1469 19.4844 11.475 19.5 8.375C19.5031 7.55625 18.9906 6.87813 18.3031 6.5875L12.4188 4.09063ZM13.75 10.5C13.75 11.1969 13.3406 11.8 12.75 12.0813V14.25C12.75 14.6656 12.4156 15 12 15C11.5844 15 11.25 14.6656 11.25 14.25V12.0813C10.6594 11.8 10.25 11.1969 10.25 10.5C10.25 9.53438 11.0344 8.75 12 8.75C12.9656 8.75 13.75 9.53438 13.75 10.5Z" fill="black"/>
</svg>
