<svg width="24" height="24" viewBox="0 0 24 24" fill="none" xmlns="http://www.w3.org/2000/svg">
<path d="M10 5C10 4.44687 9.55313 4 9 4C8.44687 4 8 4.44687 8 5V7C8 9.20937 9.79063 11 12 11V13C12 14.1031 11.1031 15 10 15H8C5.79063 15 4 16.7906 4 19C4 19.5531 4.44687 20 5 20C5.55313 20 6 19.5531 6 19C6 18.1719 6.67188 17.5 7.5 17.5C8.26875 17.5 8.625 17.7969 9.31875 18.3813C9.37187 18.425 9.425 18.4719 9.48438 18.5188C9.87813 18.8469 10.3719 19.2344 11.0344 19.525C11.7031 19.8187 12.5 20 13.5 20C17.0906 20 20 17.0906 20 13.5V11C20 8.79063 18.2094 7 16 7C14.5187 7 13.2281 7.80313 12.5344 9H12C10.8969 9 10 8.10312 10 7V5ZM17.9094 14.3969C17.6844 14.4563 17.4531 14.5 17.25 14.5C16.725 14.5063 16.3625 14.2531 16 14C15.6375 13.7469 15.275 13.4906 14.75 13.5C14.5031 13.5031 14.2156 13.5656 13.95 13.6438C13.9844 13.4344 14 13.2188 14 13V11C14 9.89688 14.8969 9 16 9C17.1031 9 18 9.89688 18 11V13.5C18 13.8063 17.9688 14.1063 17.9094 14.3969Z" fill="black"/>
</svg>
