<svg width="24" height="24" viewBox="0 0 24 24" fill="none" xmlns="http://www.w3.org/2000/svg">
<path d="M11.2813 4.21873C10.9876 3.92498 10.5126 3.92498 10.2219 4.21873L7.22193 7.21873C6.92818 7.51248 6.92818 7.98748 7.22193 8.2781L10.0157 11.0719L9.5313 11.5562C8.75943 11.2 7.90318 11 7.00005 11C6.00943 11 5.07818 11.2406 4.2563 11.6625C3.97505 11.8094 3.93443 12.1844 4.15943 12.4062L7.52193 15.7719L7.00943 16.2844C6.92818 16.2625 6.84068 16.25 6.75005 16.25C6.19693 16.25 5.75005 16.6968 5.75005 17.25C5.75005 17.8031 6.19693 18.25 6.75005 18.25C7.30318 18.25 7.75005 17.8031 7.75005 17.25C7.75005 17.1594 7.73755 17.075 7.71568 16.9906L8.22818 16.4781L11.5907 19.8406C11.8157 20.0656 12.1907 20.025 12.3344 19.7437C12.7594 18.9219 13.0001 17.9906 13.0001 17C13.0001 16.0969 12.8001 15.2406 12.4438 14.4719L12.9282 13.9875L15.7188 16.7812C16.0126 17.075 16.4876 17.075 16.7782 16.7812L19.7782 13.7812C20.0719 13.4875 20.0719 13.0125 19.7782 12.7219L16.9844 9.9281L18.7032 8.20935C19.0938 7.81873 19.0938 7.18435 18.7032 6.79373L17.2032 5.29373C16.8126 4.9031 16.1782 4.9031 15.7876 5.29373L14.0688 7.01248L11.2813 4.21873ZM16.2501 15.1875L13.9876 12.925L15.9282 10.9844L18.1907 13.25L16.2501 15.1906V15.1875ZM11.0719 10.0125L8.80943 7.74998L10.7501 5.80935L13.0126 8.07185L11.0719 10.0125Z" fill="black"/>
</svg>
