<svg width="24" height="24" viewBox="0 0 24 24" fill="none" xmlns="http://www.w3.org/2000/svg">
<path d="M16 10C16.5304 10 17.0391 10.2107 17.4142 10.5858C17.7893 10.9609 18 11.4696 18 12C18 12.5304 17.7893 13.0391 17.4142 13.4142C17.0391 13.7893 16.5304 14 16 14C15.4696 14 14.9609 13.7893 14.5858 13.4142C14.2107 13.0391 14 12.5304 14 12C14 11.4696 14.2107 10.9609 14.5858 10.5858C14.9609 10.2107 15.4696 10 16 10ZM16 18C16.7879 18 17.5681 17.8448 18.2961 17.5433C19.0241 17.2417 19.6855 16.7998 20.2426 16.2426C20.7998 15.6855 21.2417 15.0241 21.5433 14.2961C21.8448 13.5681 22 12.7879 22 12C22 11.2121 21.8448 10.4319 21.5433 9.7039C21.2417 8.97595 20.7998 8.31451 20.2426 7.75736C19.6855 7.20021 19.0241 6.75825 18.2961 6.45672C17.5681 6.15519 16.7879 6 16 6C15.2121 6 14.4319 6.15519 13.7039 6.45672C12.9759 6.75825 12.3145 7.20021 11.7574 7.75736C11.2002 8.31451 10.7583 8.97595 10.4567 9.7039C10.1552 10.4319 10 11.2121 10 12C10 12.7879 10.1552 13.5681 10.4567 14.2961C10.7583 15.0241 11.2002 15.6855 11.7574 16.2426C12.3145 16.7998 12.9759 17.2417 13.7039 17.5433C14.4319 17.8448 15.2121 18 16 18ZM17 12C17 11.7348 16.8946 11.4804 16.7071 11.2929C16.5196 11.1054 16.2652 11 16 11C15.7348 11 15.4804 11.1054 15.2929 11.2929C15.1054 11.4804 15 11.7348 15 12C15 12.2652 15.1054 12.5196 15.2929 12.7071C15.4804 12.8946 15.7348 13 16 13C16.2652 13 16.5196 12.8946 16.7071 12.7071C16.8946 12.5196 17 12.2652 17 12ZM7.90312 10.4187L6.28125 9H8.5C9.05312 9 9.5 8.55312 9.5 8C9.5 7.44687 9.05312 7 8.5 7H3C2.44687 7 2 7.44687 2 8C2 8.55312 2.44687 9 3 9H4.00312L6.05 10.7906L5.98125 10.8031C5.40938 10.9187 5 11.4187 5 12C5 12.5813 5.40938 13.0812 5.98125 13.1969L6.05 13.2094L4.00312 15H3C2.44687 15 2 15.4469 2 16C2 16.5531 2.44687 17 3 17H8.5C9.05312 17 9.5 16.5531 9.5 16C9.5 15.4469 9.05312 15 8.5 15H6.28125L7.90312 13.5813L9.24687 13.85C9.08437 13.2594 9 12.6406 9 12C9 11.3594 9.08437 10.7406 9.24687 10.15L7.90312 10.4187Z" fill="black"/>
</svg>
