<svg width="24" height="24" viewBox="0 0 24 24" fill="none" xmlns="http://www.w3.org/2000/svg">
<path d="M12.6875 4.39061C12.3032 4.02499 11.6969 4.02499 11.3125 4.39061L9.25003 6.34686L5.25003 10.1344C3.6469 11.6531 3.57815 14.1844 5.0969 15.7906C6.61565 17.3969 9.1469 17.4625 10.7532 15.9437L11.0032 15.7062V18H10C9.4469 18 9.00003 18.4469 9.00003 19C9.00003 19.5531 9.4469 20 10 20H14C14.5532 20 15 19.5531 15 19C15 18.4469 14.5532 18 14 18H13V15.7062L13.25 15.9437C14.8532 17.4625 17.3844 17.3937 18.9063 15.7906C20.4282 14.1875 20.3563 11.6562 18.7532 10.1344L14.75 6.34686L12.6875 4.39061Z" fill="black"/>
</svg>
