<svg width="24" height="24" viewBox="0 0 24 24" fill="none" xmlns="http://www.w3.org/2000/svg">
<path d="M14.6594 8.39375C14.5969 8.51563 14.6094 8.6625 14.6969 8.76875C14.9156 9.03438 15.1 9.33437 15.2344 9.65625L16.75 9.00625V7.75C16.75 7.33437 17.0844 7 17.5 7C17.9156 7 18.25 7.33437 18.25 7.75V8.3625L18.9531 8.05937C19.3344 7.89687 19.775 8.07188 19.9375 8.45312C20.1 8.83437 19.925 9.275 19.5437 9.4375L17.7937 10.1875L15.4937 11.1719C15.4781 11.4688 15.4281 11.7531 15.3437 12.025C15.3062 12.1437 15.3406 12.275 15.4312 12.3625C16.3969 13.2781 17 14.5688 17 16C17 17.3969 16.4281 18.6563 15.5062 19.5656C15.1969 19.8688 14.7656 20 14.3344 20H9.6656C9.23123 20 8.79998 19.8688 8.49373 19.5656C7.57185 18.6563 6.99998 17.3969 6.99998 16C6.99998 14.5688 7.6031 13.2781 8.5656 12.3656C8.65623 12.2781 8.6906 12.15 8.6531 12.0281C8.56873 11.7562 8.51873 11.4688 8.5031 11.175L6.2031 10.1906L4.4531 9.44063C4.07498 9.275 3.89685 8.83437 4.05935 8.45312C4.22185 8.07188 4.66248 7.89687 5.04373 8.05937L5.74998 8.3625V7.75C5.74998 7.33437 6.08435 7 6.49998 7C6.9156 7 7.24998 7.33437 7.24998 7.75V9.00625L8.76873 9.65625C8.9031 9.33437 9.08435 9.03438 9.30623 8.76875C9.39373 8.6625 9.40935 8.51563 9.34373 8.39375C9.12498 7.975 8.99998 7.50313 8.99998 7C8.99998 5.34375 10.3437 4 12 4C13.6562 4 15 5.34375 15 7C15 7.50313 14.875 7.975 14.6594 8.39375ZM11 7C11.1326 7 11.2598 6.94732 11.3535 6.85355C11.4473 6.75979 11.5 6.63261 11.5 6.5C11.5 6.36739 11.4473 6.24021 11.3535 6.14645C11.2598 6.05268 11.1326 6 11 6C10.8674 6 10.7402 6.05268 10.6464 6.14645C10.5527 6.24021 10.5 6.36739 10.5 6.5C10.5 6.63261 10.5527 6.75979 10.6464 6.85355C10.7402 6.94732 10.8674 7 11 7ZM12.5 11C12.5 10.8674 12.4473 10.7402 12.3535 10.6464C12.2598 10.5527 12.1326 10.5 12 10.5C11.8674 10.5 11.7402 10.5527 11.6464 10.6464C11.5527 10.7402 11.5 10.8674 11.5 11C11.5 11.1326 11.5527 11.2598 11.6464 11.3536C11.7402 11.4473 11.8674 11.5 12 11.5C12.1326 11.5 12.2598 11.4473 12.3535 11.3536C12.4473 11.2598 12.5 11.1326 12.5 11ZM12 13.5C12.1326 13.5 12.2598 13.4473 12.3535 13.3536C12.4473 13.2598 12.5 13.1326 12.5 13C12.5 12.8674 12.4473 12.7402 12.3535 12.6464C12.2598 12.5527 12.1326 12.5 12 12.5C11.8674 12.5 11.7402 12.5527 11.6464 12.6464C11.5527 12.7402 11.5 12.8674 11.5 13C11.5 13.1326 11.5527 13.2598 11.6464 13.3536C11.7402 13.4473 11.8674 13.5 12 13.5ZM12.5 15C12.5 14.8674 12.4473 14.7402 12.3535 14.6464C12.2598 14.5527 12.1326 14.5 12 14.5C11.8674 14.5 11.7402 14.5527 11.6464 14.6464C11.5527 14.7402 11.5 14.8674 11.5 15C11.5 15.1326 11.5527 15.2598 11.6464 15.3536C11.7402 15.4473 11.8674 15.5 12 15.5C12.1326 15.5 12.2598 15.4473 12.3535 15.3536C12.4473 15.2598 12.5 15.1326 12.5 15ZM13 7C13.1326 7 13.2598 6.94732 13.3535 6.85355C13.4473 6.75979 13.5 6.63261 13.5 6.5C13.5 6.36739 13.4473 6.24021 13.3535 6.14645C13.2598 6.05268 13.1326 6 13 6C12.8674 6 12.7402 6.05268 12.6464 6.14645C12.5527 6.24021 12.5 6.36739 12.5 6.5C12.5 6.63261 12.5527 6.75979 12.6464 6.85355C12.7402 6.94732 12.8674 7 13 7ZM11.5 7.75V7.85C11.5 7.95 11.525 8.04687 11.5719 8.13125L11.8531 8.65938C11.8812 8.7125 11.9375 8.74687 12 8.74687C12.0625 8.74687 12.1187 8.7125 12.1469 8.65938L12.4281 8.13125C12.475 8.04375 12.5 7.94687 12.5 7.85V7.75C12.5 7.475 12.275 7.25 12 7.25C11.725 7.25 11.5 7.475 11.5 7.75Z" fill="black"/>
</svg>
