<svg width="24" height="24" viewBox="0 0 24 24" fill="none" xmlns="http://www.w3.org/2000/svg">
<path d="M18.3156 5.95C18.8406 5.775 19.1219 5.20937 18.9469 4.68437C18.7719 4.15937 18.2062 3.87812 17.6844 4.05L14.1531 5.22812C13.7187 4.49375 12.9156 4 12 4C10.6187 4 9.5 5.11875 9.5 6.5C9.5 6.59375 9.50625 6.68437 9.51562 6.775L5.68437 8.05C5.15937 8.225 4.87812 8.79062 5.05312 9.31562C5.22812 9.84062 5.79375 10.1219 6.31875 9.94687L10.5531 8.53437C10.6937 8.63437 10.8437 8.71875 11.0031 8.79062V19C11.0031 19.5531 11.45 20 12.0031 20H18C18.5531 20 19 19.5531 19 19C19 18.4469 18.5531 18 18 18H13V8.79062C13.6562 8.50312 14.1625 7.94687 14.3812 7.25937L18.3156 5.94687V5.95ZM15.7375 13L18 9.11875L20.2625 13H15.7375ZM18 16C19.9656 16 21.6 14.9375 21.9375 13.5344C22.0187 13.1906 21.9062 12.8375 21.7281 12.5312L18.7531 7.43125C18.5969 7.1625 18.3094 7 18 7C17.6906 7 17.4031 7.16562 17.2469 7.43125L14.2719 12.5344C14.0937 12.8406 13.9812 13.1938 14.0625 13.5375C14.4 14.9375 16.0344 16 18 16ZM6.0375 13.1187L8.3 17H3.77187L6.03437 13.1187H6.0375ZM2.1 17.5344C2.4375 18.9375 4.07187 20 6.0375 20C8.00312 20 9.6375 18.9375 9.975 17.5344C10.0562 17.1906 9.94375 16.8375 9.76562 16.5312L6.7875 11.4312C6.63125 11.1625 6.34375 11 6.03437 11C5.725 11 5.4375 11.1656 5.28125 11.4312L2.30937 16.5344C2.13125 16.8406 2.01875 17.1938 2.1 17.5375V17.5344Z" fill="black"/>
</svg>
