<svg width="24" height="24" viewBox="0 0 24 24" fill="none" xmlns="http://www.w3.org/2000/svg">
<path d="M3.21255 4.15943C2.88755 3.90318 2.41568 3.96255 2.15943 4.28755C1.90318 4.61255 1.96255 5.08443 2.28755 5.34068L20.7876 19.8407C21.1126 20.0969 21.5844 20.0376 21.8407 19.7126C22.0969 19.3876 22.0376 18.9157 21.7126 18.6594L20.0001 17.3157V11.0001H18.0001V15.7501L14.0001 12.6157V11.0001H12.0001V11.0469L10.6626 10.0001H20.8501C21.4844 10.0001 22.0001 9.48443 22.0001 8.85005C22.0001 8.62193 21.9313 8.40005 21.8063 8.21255L19.4438 4.6688C19.1657 4.25005 18.7001 4.00005 18.1969 4.00005H5.80318C5.30318 4.00005 4.83443 4.25005 4.5563 4.6688L4.31568 5.02505L3.21255 4.15943ZM3.15005 10.0001H5.8063L2.6563 7.51568L2.1938 8.20943C2.0688 8.40005 2.00005 8.62193 2.00005 8.84693C2.00005 9.48443 2.51568 10.0001 3.15005 10.0001ZM12.0001 16.0001H6.00005V11.0001H4.00005V16.0001V18.5001C4.00005 19.3282 4.67193 20.0001 5.50005 20.0001H12.5001C13.3282 20.0001 14.0001 19.3282 14.0001 18.5001V16.4532L12.0001 14.8782V16.0001ZM19.0001 20.0001H18.9907H19.0094H19.0001Z" fill="black"/>
</svg>
