<svg width="24" height="24" viewBox="0 0 24 24" fill="none" xmlns="http://www.w3.org/2000/svg">
<path d="M4.5938 6.47494C4.02817 5.86869 3.07817 5.84057 2.47505 6.4062C1.87192 6.97182 1.84067 7.92182 2.4063 8.52495L5.85942 12.2093C6.3313 12.7124 6.99379 12.9999 7.68442 12.9999H20.5C21.3282 12.9999 22 12.3281 22 11.4999C22 10.6718 21.3282 9.99994 20.5 9.99994H7.90004L4.5938 6.47494ZM9.50004 17.9999C9.50004 17.8673 9.55272 17.7402 9.64649 17.6464C9.74026 17.5526 9.86744 17.4999 10 17.4999C10.1327 17.4999 10.2598 17.5526 10.3536 17.6464C10.4474 17.7402 10.5 17.8673 10.5 17.9999C10.5 18.1326 10.4474 18.2597 10.3536 18.3535C10.2598 18.4473 10.1327 18.4999 10 18.4999C9.86744 18.4999 9.74026 18.4473 9.64649 18.3535C9.55272 18.2597 9.50004 18.1326 9.50004 17.9999ZM12 17.9999C12 17.8343 11.9782 17.6718 11.9407 17.5156L13.5 16.3812L15.0594 17.5156C15.0219 17.6718 15 17.8343 15 17.9999C15 19.1031 15.8969 19.9999 17 19.9999C18.1032 19.9999 19 19.1031 19 17.9999C19 16.8968 18.1032 15.9999 17 15.9999C16.6125 15.9999 16.25 16.1093 15.9407 16.3031L14.775 15.4562L16.775 14.0031H14.225L13.5 14.5281L12.775 13.9999H10.225L12.225 15.4531L11.0594 16.2999C10.7532 16.1093 10.3907 15.9968 10 15.9968C8.89692 15.9968 8.00004 16.8937 8.00004 17.9968C8.00004 19.0999 8.89692 19.9968 10 19.9968C11.1032 19.9968 12 19.0999 12 17.9968V17.9999ZM17 17.4999C17.1327 17.4999 17.2598 17.5526 17.3536 17.6464C17.4474 17.7402 17.5 17.8673 17.5 17.9999C17.5 18.1326 17.4474 18.2597 17.3536 18.3535C17.2598 18.4473 17.1327 18.4999 17 18.4999C16.8674 18.4999 16.7403 18.4473 16.6465 18.3535C16.5527 18.2597 16.5 18.1326 16.5 17.9999C16.5 17.8673 16.5527 17.7402 16.6465 17.6464C16.7403 17.5526 16.8674 17.4999 17 17.4999Z" fill="black"/>
</svg>
