<svg width="24" height="24" viewBox="0 0 24 24" fill="none" xmlns="http://www.w3.org/2000/svg">
<path d="M11.0001 4.50005C11.0001 4.2813 11.1407 4.08755 11.3501 4.02192C11.5594 3.9563 11.7844 4.03442 11.9094 4.21255L18.9094 14.2125C19.0157 14.3657 19.0282 14.5657 18.9438 14.7313C18.8594 14.8969 18.6876 15 18.5001 15H11.5001C11.2251 15 11.0001 14.775 11.0001 14.5V4.50005ZM9.6282 7.01567C9.84695 7.07505 10.0001 7.27192 10.0001 7.50005V14.5C10.0001 14.775 9.77507 15 9.50007 15H5.50007C5.32195 15 5.15632 14.9063 5.06882 14.75C4.98132 14.5938 4.9782 14.4063 5.0657 14.25L9.0657 7.25005C9.1782 7.05317 9.40945 6.9563 9.6282 7.01567ZM3.1782 16.6344C3.08757 16.3157 3.3282 16 3.65945 16H20.3407C20.6719 16 20.9126 16.3157 20.8219 16.6344L20.6969 17.0813C20.2094 18.8094 18.6376 20 16.8438 20H7.15632C5.36257 20 3.7907 18.8094 3.3032 17.0844L3.1782 16.6375V16.6344Z" fill="black"/>
</svg>
