<svg width="24" height="24" viewBox="0 0 24 24" fill="none" xmlns="http://www.w3.org/2000/svg">
<path d="M16 5V5.34375C16 6.5375 16.475 7.68125 17.3188 8.525L17.975 9.18125C18.6313 9.8375 19 10.7281 19 11.6562V12C19 12.5531 18.5531 13 18 13C17.4469 13 17 12.5531 17 12V11.6562C17 11.2594 16.8406 10.8781 16.5594 10.5969L15.9031 9.94063C14.6844 8.72188 14 7.06562 14 5.34375V5C14 4.44687 14.4469 4 15 4C15.5531 4 16 4.44687 16 5ZM20 12V11.6562C20 10.4625 19.525 9.31875 18.6812 8.475L18.025 7.81875C17.3687 7.1625 17 6.27188 17 5.34375V5C17 4.44687 17.4469 4 18 4C18.5531 4 19 4.44687 19 5V5.34375C19 5.74062 19.1594 6.12188 19.4406 6.40313L20.0969 7.05938C21.3156 8.27813 22 9.93125 22 11.6562V12C22 12.5531 21.5531 13 21 13C20.4469 13 20 12.5531 20 12ZM2 17C2 15.8969 2.89688 15 4 15H15C15.5531 15 16 15.4469 16 16V19C16 19.5531 15.5531 20 15 20H4C2.89688 20 2 19.1031 2 18V17ZM9 17V18H14V17H9ZM18 15C18.5531 15 19 15.4469 19 16V19C19 19.5531 18.5531 20 18 20C17.4469 20 17 19.5531 17 19V16C17 15.4469 17.4469 15 18 15ZM21 15C21.5531 15 22 15.4469 22 16V19C22 19.5531 21.5531 20 21 20C20.4469 20 20 19.5531 20 19V16C20 15.4469 20.4469 15 21 15Z" fill="black"/>
</svg>
