<svg width="24" height="24" viewBox="0 0 24 24" fill="none" xmlns="http://www.w3.org/2000/svg">
<path d="M6 4C4.89687 4 4 4.89688 4 6H16C16 4.89688 15.1031 4 14 4H6ZM4 7C2.89688 7 2 7.89687 2 9V15C2 16.1031 2.89688 17 4 17V18C4 19.1031 4.89687 20 6 20H15H16H18.5C20.1562 20 21.5 18.6562 21.5 17V10.6188C21.8062 10.3438 22 9.94375 22 9.5C22 8.67188 21.3281 8 20.5 8C19.6719 8 19 8.67188 19 9.5C19 9.94375 19.1938 10.3438 19.5 10.6188V17C19.5 17.5531 19.0531 18 18.5 18H16V17C17.1031 17 18 16.1031 18 15V9C18 7.89687 17.1031 7 16 7H4ZM3.75 10.25C3.75 9.83437 4.08437 9.5 4.5 9.5H6.37187C7.09062 9.5 7.575 10.2344 7.29063 10.8938L5.94062 14.0469C5.77813 14.4281 5.3375 14.6031 4.95625 14.4406C4.575 14.2781 4.4 13.8375 4.5625 13.4563L5.6125 11H4.5C4.08437 11 3.75 10.6656 3.75 10.25ZM9 9.5H10.8719C11.5906 9.5 12.075 10.2344 11.7906 10.8938L10.4406 14.0469C10.2781 14.4281 9.8375 14.6031 9.45625 14.4406C9.075 14.2781 8.9 13.8375 9.0625 13.4563L10.1125 11H9C8.58437 11 8.25 10.6656 8.25 10.25C8.25 9.83437 8.58437 9.5 9 9.5ZM12.75 10.25C12.75 9.83437 13.0844 9.5 13.5 9.5H15.3719C16.0906 9.5 16.575 10.2344 16.2906 10.8938L14.9406 14.0469C14.7781 14.4281 14.3375 14.6031 13.9563 14.4406C13.575 14.2781 13.4 13.8375 13.5625 13.4563L14.6125 11H13.5C13.0844 11 12.75 10.6656 12.75 10.25Z" fill="black"/>
</svg>
