<svg width="24" height="24" viewBox="0 0 24 24" fill="none" xmlns="http://www.w3.org/2000/svg">
<path d="M3.21268 4.15931C2.88768 3.90306 2.4158 3.96243 2.15955 4.28743C1.9033 4.61243 1.96268 5.08431 2.28768 5.34056L20.7877 19.8406C21.1127 20.0968 21.5846 20.0374 21.8408 19.7124C22.0971 19.3874 22.0377 18.9156 21.7127 18.6593L21.0002 18.0999V4.99993C21.0002 4.44681 20.5533 3.99993 20.0002 3.99993C19.4471 3.99993 19.0002 4.44681 19.0002 4.99993V16.5343L17.0002 14.9656V7.99993C17.0002 7.44681 16.5533 6.99993 16.0002 6.99993C15.4471 6.99993 15.0002 7.44681 15.0002 7.99993V13.3999L13.0002 11.8312V10.9999C13.0002 10.4468 12.5533 9.99993 12.0002 9.99993C11.6658 9.99993 11.3721 10.1624 11.1908 10.4124L3.21268 4.15931ZM20.0002 19.9999H19.9908H20.0096H20.0002ZM17.0002 18.9999V18.8187L15.0002 17.2437V18.9999C15.0002 19.5531 15.4471 19.9999 16.0002 19.9999C16.5533 19.9999 17.0002 19.5531 17.0002 18.9999ZM13.0002 15.6656L11.0002 14.0906V18.9999C11.0002 19.5531 11.4471 19.9999 12.0002 19.9999C12.5533 19.9999 13.0002 19.5531 13.0002 18.9999V15.6656ZM8.00018 12.9999C7.44705 12.9999 7.00018 13.4468 7.00018 13.9999V18.9999C7.00018 19.5531 7.44705 19.9999 8.00018 19.9999C8.5533 19.9999 9.00018 19.5531 9.00018 18.9999V13.9999C9.00018 13.4468 8.5533 12.9999 8.00018 12.9999ZM5.00018 16.9999C5.00018 16.4468 4.5533 15.9999 4.00018 15.9999C3.44705 15.9999 3.00018 16.4468 3.00018 16.9999V18.9999C3.00018 19.5531 3.44705 19.9999 4.00018 19.9999C4.5533 19.9999 5.00018 19.5531 5.00018 18.9999V16.9999Z" fill="black"/>
</svg>
