<svg width="24" height="24" viewBox="0 0 24 24" fill="none" xmlns="http://www.w3.org/2000/svg">
<path d="M14.0002 5H18.0002C18.5533 5 19.0002 5.44687 19.0002 6C19.0002 6.55312 18.5533 7 18.0002 7H14.4502C14.2877 7.80625 13.7346 8.47188 13.0002 8.79063V18H18.0002C18.5533 18 19.0002 18.4469 19.0002 19C19.0002 19.5531 18.5533 20 18.0002 20H12.0002H6.00022C5.44709 20 5.00022 19.5531 5.00022 19C5.00022 18.4469 5.44709 18 6.00022 18H11.0002V8.79063C10.2658 8.46875 9.71272 7.80312 9.55022 7H6.00022C5.44709 7 5.00022 6.55312 5.00022 6C5.00022 5.44687 5.44709 5 6.00022 5H10.0002C10.4565 4.39375 11.1815 4 12.0002 4C12.819 4 13.544 4.39375 14.0002 5ZM15.7377 14H20.2627L18.0002 10.1188L15.7377 14ZM18.0002 17C16.0346 17 14.4002 15.9375 14.0627 14.5344C13.9815 14.1906 14.094 13.8375 14.2721 13.5312L17.2471 8.43125C17.4033 8.1625 17.6908 8 18.0002 8C18.3096 8 18.5971 8.16563 18.7533 8.43125L21.7283 13.5312C21.9065 13.8375 22.019 14.1906 21.9377 14.5344C21.6002 15.9375 19.9658 17 18.0002 17ZM5.96272 10.1188L3.70022 14H8.22834L5.96272 10.1188ZM2.02834 14.5344C1.94709 14.1906 2.05959 13.8375 2.23772 13.5312L5.21272 8.43125C5.36897 8.1625 5.65647 8 5.96584 8C6.27522 8 6.56272 8.16563 6.71897 8.43125L9.69397 13.5312C9.87209 13.8375 9.98459 14.1906 9.90334 14.5344C9.56272 15.9375 7.92834 17 5.96272 17C3.99709 17 2.36584 15.9375 2.02834 14.5344Z" fill="black"/>
</svg>
