<svg width="24" height="24" viewBox="0 0 24 24" fill="none" xmlns="http://www.w3.org/2000/svg">
<path d="M7 5V8H11V5C11 4.44687 10.5531 4 10 4H8C7.44687 4 7 4.44687 7 5ZM7 9C5.34375 9 4 10.3438 4 12V18.5C4 19.3281 4.67188 20 5.5 20H12.5C13.3281 20 14 19.3281 14 18.5V12C14 10.3438 12.6562 9 11 9H7ZM9 12C9.66304 12 10.2989 12.2634 10.7678 12.7322C11.2366 13.2011 11.5 13.837 11.5 14.5C11.5 15.163 11.2366 15.7989 10.7678 16.2678C10.2989 16.7366 9.66304 17 9 17C8.33696 17 7.70107 16.7366 7.23223 16.2678C6.76339 15.7989 6.5 15.163 6.5 14.5C6.5 13.837 6.76339 13.2011 7.23223 12.7322C7.70107 12.2634 8.33696 12 9 12ZM16 5.5C16 5.45625 15.9687 5.40625 15.9312 5.3875L15 5L14.6125 4.06875C14.5938 4.03125 14.5437 4 14.5 4C14.4563 4 14.4062 4.03125 14.3875 4.06875L14 5L13.0688 5.3875C13.0313 5.40625 13 5.45625 13 5.5C13 5.54375 13.0313 5.59375 13.0688 5.6125L14 6L14.3875 6.93125C14.4062 6.96875 14.4563 7 14.5 7C14.5437 7 14.5938 6.96875 14.6125 6.93125L15 6L15.9312 5.6125C15.9687 5.59375 16 5.54375 16 5.5ZM18.3875 6.93125C18.4062 6.96875 18.4563 7 18.5 7C18.5437 7 18.5938 6.96875 18.6125 6.93125L19 6L19.9312 5.6125C19.9687 5.59375 20 5.54375 20 5.5C20 5.45625 19.9687 5.40625 19.9312 5.3875L19 5L18.6125 4.06875C18.5938 4.03125 18.5437 4 18.5 4C18.4563 4 18.4062 4.03125 18.3875 4.06875L18 5L17.0688 5.3875C17.0313 5.40625 17 5.45625 17 5.5C17 5.54375 17.0313 5.59375 17.0688 5.6125L18 6L18.3875 6.93125ZM18.6125 10.0687C18.5938 10.0312 18.5437 10 18.5 10C18.4563 10 18.4062 10.0312 18.3875 10.0687L18 11L17.0688 11.3875C17.0313 11.4062 17 11.4563 17 11.5C17 11.5437 17.0313 11.5938 17.0688 11.6125L18 12L18.3875 12.9312C18.4062 12.9687 18.4563 13 18.5 13C18.5437 13 18.5938 12.9687 18.6125 12.9312L19 12L19.9312 11.6125C19.9687 11.5938 20 11.5437 20 11.5C20 11.4563 19.9687 11.4062 19.9312 11.3875L19 11L18.6125 10.0687ZM18 8.5C18 8.45625 17.9687 8.40625 17.9312 8.3875L17 8L16.6125 7.06875C16.5938 7.03125 16.5437 7 16.5 7C16.4563 7 16.4062 7.03125 16.3875 7.06875L16 8L15.0688 8.3875C15.0313 8.40625 15 8.45625 15 8.5C15 8.54375 15.0313 8.59375 15.0688 8.6125L16 9L16.3875 9.93125C16.4062 9.96875 16.4563 10 16.5 10C16.5437 10 16.5938 9.96875 16.6125 9.93125L17 9L17.9312 8.6125C17.9687 8.59375 18 8.54375 18 8.5Z" fill="black"/>
</svg>
