<svg width="24" height="24" viewBox="0 0 24 24" fill="none" xmlns="http://www.w3.org/2000/svg">
<path d="M12.4188 4.09063C12.2875 4.03125 12.1469 4 12 4C11.8531 4 11.7125 4.03125 11.5813 4.09063L5.69689 6.5875C5.00939 6.87813 4.49689 7.55625 4.50001 8.375C4.51564 11.475 5.79064 17.1469 11.175 19.725C11.6969 19.975 12.3031 19.975 12.825 19.725C18.2094 17.1469 19.4844 11.475 19.5 8.375C19.5031 7.55625 18.9906 6.87813 18.3031 6.5875L12.4188 4.09063ZM12 6.0875L13 6.5125V8C13 8.55312 13.4469 9 14 9H17.4781C17.4406 9.6125 17.3469 10.2937 17.1844 11H14C13.4469 11 13 11.4469 13 12V17.3375C12.6875 17.5406 12.3531 17.7281 12 17.9C11.6469 17.7281 11.3125 17.5406 11 17.3375V12C11 11.4469 10.5531 11 10 11H6.81564C6.65314 10.2937 6.56251 9.6125 6.52189 9H10C10.5531 9 11 8.55312 11 8V6.50938L12 6.08437V6.0875Z" fill="black"/>
</svg>
