<svg width="24" height="24" viewBox="0 0 24 24" fill="none" xmlns="http://www.w3.org/2000/svg">
<path d="M11.2938 5.2937C11.6844 4.90308 12.3188 4.90308 12.7094 5.2937L16.7094 9.2937C16.9969 9.5812 17.0813 10.0093 16.925 10.3843C16.7688 10.7593 16.4063 11.0031 16 11.0031H8.00003C7.59691 11.0031 7.23128 10.7593 7.07503 10.3843C6.91878 10.0093 7.00628 9.5812 7.29066 9.2937L11.2907 5.2937H11.2938ZM11.2938 18.7093L7.29378 14.7093C7.00628 14.4218 6.92191 13.9937 7.07816 13.6187C7.23441 13.2437 7.59691 13 8.00316 13H16C16.4032 13 16.7688 13.2437 16.925 13.6187C17.0813 13.9937 16.9938 14.4218 16.7094 14.7093L12.7094 18.7093C12.3188 19.1 11.6844 19.1 11.2938 18.7093Z" fill="black"/>
</svg>
