<svg width="24" height="24" viewBox="0 0 24 24" fill="none" xmlns="http://www.w3.org/2000/svg">
<path d="M7 5C5.89688 5 5 5.89688 5 7V17C5 18.1031 5.89688 19 7 19H17C18.1031 19 19 18.1031 19 17V7C19 5.89688 18.1031 5 17 5H7ZM8 8.25C8 7.83437 8.33437 7.5 8.75 7.5C13.0312 7.5 16.5 10.9688 16.5 15.25C16.5 15.6656 16.1656 16 15.75 16C15.3344 16 15 15.6656 15 15.25C15 11.7969 12.2031 9 8.75 9C8.33437 9 8 8.66563 8 8.25ZM8 11.25C8 10.8344 8.33437 10.5 8.75 10.5C11.3719 10.5 13.5 12.6281 13.5 15.25C13.5 15.6656 13.1656 16 12.75 16C12.3344 16 12 15.6656 12 15.25C12 13.4563 10.5437 12 8.75 12C8.33437 12 8 11.6656 8 11.25ZM8 15C8 14.7348 8.10536 14.4804 8.29289 14.2929C8.48043 14.1054 8.73478 14 9 14C9.26522 14 9.51957 14.1054 9.70711 14.2929C9.89464 14.4804 10 14.7348 10 15C10 15.2652 9.89464 15.5196 9.70711 15.7071C9.51957 15.8946 9.26522 16 9 16C8.73478 16 8.48043 15.8946 8.29289 15.7071C8.10536 15.5196 8 15.2652 8 15Z" fill="black"/>
</svg>
