<svg width="24" height="24" viewBox="0 0 24 24" fill="none" xmlns="http://www.w3.org/2000/svg">
<path d="M17 19C18.1031 19 19 18.1031 19 17V7C19 5.89688 18.1031 5 17 5H7C5.89688 5 5 5.89688 5 7V17C5 18.1031 5.89688 19 7 19H17ZM12 15C11.7906 15 11.5938 14.9125 11.45 14.7594L8.2 11.2594C7.99688 11.0406 7.94375 10.7219 8.0625 10.45C8.18125 10.1781 8.45312 10 8.75 10H15.25C15.5469 10 15.8188 10.1781 15.9375 10.45C16.0562 10.7219 16.0031 11.0406 15.8 11.2594L12.55 14.7594C12.4094 14.9125 12.2094 15 12 15Z" fill="black"/>
</svg>
