<svg width="24" height="24" viewBox="0 0 24 24" fill="none" xmlns="http://www.w3.org/2000/svg">
<path d="M8.75 4H9.25C9.66563 4 10 4.33437 10 4.75V6H8V4.75C8 4.33437 8.33437 4 8.75 4ZM13.75 4H14.25C14.6656 4 15 4.33437 15 4.75V6H13V4.75C13 4.33437 13.3344 4 13.75 4ZM11 4.5C11 4.225 11.225 4 11.5 4C11.775 4 12 4.225 12 4.5V6H11V4.5ZM16.5 4C16.775 4 17 4.225 17 4.5V12.5C17 12.775 16.775 13 16.5 13C16.225 13 16 12.775 16 12.5V4.5C16 4.225 16.225 4 16.5 4ZM18 4.75C18 4.33437 18.3344 4 18.75 4H19.25C19.6656 4 20 4.33437 20 4.75V12.25C20 12.6656 19.6656 13 19.25 13H18.75C18.3344 13 18 12.6656 18 12.25V4.75ZM4 9C4 7.89687 4.89688 7 6 7H13C14.1031 7 15 7.89687 15 9V18C15 19.1031 14.1031 20 13 20H6C4.89688 20 4 19.1031 4 18V9ZM6 9.75V10.25C6 10.6656 6.33437 11 6.75 11H12.25C12.6656 11 13 10.6656 13 10.25V9.75C13 9.33437 12.6656 9 12.25 9H6.75C6.33437 9 6 9.33437 6 9.75ZM6 13.5V14.5C6 14.775 6.225 15 6.5 15H8.5C8.775 15 9 14.775 9 14.5V13.5C9 13.225 8.775 13 8.5 13H6.5C6.225 13 6 13.225 6 13.5ZM6.5 16C6.225 16 6 16.225 6 16.5V17.5C6 17.775 6.225 18 6.5 18H8.5C8.775 18 9 17.775 9 17.5V16.5C9 16.225 8.775 16 8.5 16H6.5ZM10 13.5V14.5C10 14.775 10.225 15 10.5 15H12.5C12.775 15 13 14.775 13 14.5V13.5C13 13.225 12.775 13 12.5 13H10.5C10.225 13 10 13.225 10 13.5ZM10.5 16C10.225 16 10 16.225 10 16.5V17.5C10 17.775 10.225 18 10.5 18H12.5C12.775 18 13 17.775 13 17.5V16.5C13 16.225 12.775 16 12.5 16H10.5Z" fill="black"/>
</svg>
