<svg width="24" height="24" viewBox="0 0 24 24" fill="none" xmlns="http://www.w3.org/2000/svg">
<path d="M16 11C17.6562 11 19 9.65625 19 8C19 6.34375 17.6562 5 16 5C14.3438 5 13 6.34375 13 8C13 8.125 13.0063 8.25 13.0219 8.37187L10.0813 9.84062C9.54375 9.31875 8.80938 9 8 9C6.34375 9 5 10.3438 5 12C5 13.6562 6.34375 15 8 15C8.80938 15 9.54375 14.6813 10.0813 14.1594L13.0219 15.6281C13.0063 15.75 13 15.8719 13 16C13 17.6562 14.3438 19 16 19C17.6562 19 19 17.6562 19 16C19 14.3438 17.6562 13 16 13C15.1906 13 14.4563 13.3187 13.9187 13.8406L10.9781 12.3719C10.9938 12.25 11 12.1281 11 12C11 11.8719 10.9938 11.75 10.9781 11.6281L13.9187 10.1594C14.4563 10.6813 15.1906 11 16 11Z" fill="black"/>
</svg>
