<svg width="24" height="24" viewBox="0 0 24 24" fill="none" xmlns="http://www.w3.org/2000/svg">
<path d="M17.7062 6.2938C17.3155 5.90317 16.6812 5.90317 16.2905 6.2938C15.9312 6.65317 15.903 7.22192 16.2062 7.61255C16.553 8.0563 16.6218 8.79067 16.1124 9.29692L14.8187 10.5938L13.4062 9.1813L14.2937 8.2938C13.7624 7.17817 13.9562 5.80317 14.8812 4.87817C16.053 3.7063 17.953 3.7063 19.1249 4.87817C20.1062 5.85942 20.2655 7.35317 19.603 8.50005C19.328 8.97817 18.7155 9.14067 18.2374 8.86567C17.7593 8.59067 17.5968 7.97817 17.8718 7.50005C18.0937 7.1188 18.0374 6.6188 17.7124 6.2938H17.7062ZM5.93115 16.6563L7.34365 18.0688L5.70615 19.7063C5.31553 20.0969 4.68115 20.0969 4.29053 19.7063C3.8999 19.3157 3.8999 18.6813 4.29053 18.2907L5.93115 16.6563ZM11.6343 8.82192L15.178 12.3657C15.6655 12.8532 15.6655 13.6438 15.178 14.1344L14.3843 14.9282C13.8968 15.4157 13.1062 15.4157 12.6155 14.9282L9.07178 11.3844C8.58428 10.8969 8.58428 10.1063 9.07178 9.61567L9.86553 8.82192C10.353 8.33442 11.1437 8.33442 11.6343 8.82192ZM6.36553 12.3219C6.85303 11.8344 7.64365 11.8344 8.13428 12.3219L11.678 15.8657C12.1655 16.3532 12.1655 17.1438 11.678 17.6344L10.8843 18.4282C10.3968 18.9157 9.60615 18.9157 9.11553 18.4282L5.57178 14.8844C5.08428 14.3969 5.08428 13.6063 5.57178 13.1157L6.36553 12.3219Z" fill="black"/>
</svg>
