<svg width="24" height="24" viewBox="0 0 24 24" fill="none" xmlns="http://www.w3.org/2000/svg">
<path d="M9.31249 4.72812C9.82812 4.25937 10.5 4 11.1969 4H11.2312C12.7594 4 14 5.24062 14 6.76875C14 7.50312 13.7094 8.20625 13.1906 8.725L7.22499 14.6906C7.08124 14.8344 6.99999 15.0312 6.99999 15.2344C6.99999 15.6562 7.34374 16 7.76874 16C7.97187 16 8.16874 15.9187 8.31249 15.775L15.275 8.80937C15.7937 8.29062 16.4969 8 17.2312 8C18.7594 8 20 9.24063 20 10.7688C20 11.5031 19.7094 12.2063 19.1906 12.725L16.4344 15.4812C16.1594 15.7562 16.0031 16.1344 16.0031 16.525C16.0031 17.3375 16.6625 17.9969 17.4719 17.9969C17.6656 17.9969 17.8594 17.95 18.0344 17.8656L18.5562 17.6031C19.05 17.3562 19.65 17.5563 19.8969 18.05C20.1437 18.5437 19.9437 19.1438 19.45 19.3906L18.925 19.6562C18.4719 19.8813 17.975 20 17.4687 20C15.55 20 14 18.4406 14 16.5281C14 15.6062 14.3656 14.7219 15.0187 14.0688L17.775 11.3125C17.9187 11.1687 18 10.9719 18 10.7688C18 10.3438 17.6562 10 17.2312 10C17.0281 10 16.8312 10.0812 16.6875 10.225L9.72499 17.1906C9.20624 17.7094 8.50312 18 7.76874 18C6.24062 18 4.99999 16.7594 4.99999 15.2312C4.99999 14.4969 5.29062 13.7937 5.80937 13.275L11.775 7.30938C11.9187 7.16563 12 6.96875 12 6.76562C12 6.34375 11.6562 6 11.2312 6H11.1969C10.9969 6 10.8031 6.075 10.6562 6.20937L5.67187 10.7406C5.26249 11.1125 4.63124 11.0813 4.25937 10.6719C3.88749 10.2625 3.91874 9.63125 4.32812 9.25938L9.31249 4.72812Z" fill="black"/>
</svg>
