<svg width="24" height="24" viewBox="0 0 24 24" fill="none" xmlns="http://www.w3.org/2000/svg">
<path d="M12.0001 4.00005C12.1438 4.00005 12.2876 4.0313 12.4188 4.09068L18.3032 6.58755C18.9907 6.87818 19.5032 7.5563 19.5001 8.37505C19.4907 10.2094 19.0407 12.9438 17.5594 15.4063L21.7126 18.6594C22.0376 18.9157 22.0969 19.3876 21.8407 19.7126C21.5844 20.0376 21.1126 20.0969 20.7876 19.8407L2.28755 5.34068C1.96255 5.08443 1.90318 4.61255 2.15943 4.28755C2.41568 3.96255 2.88755 3.90318 3.21255 4.15943L6.0938 6.4188L11.5844 4.09068C11.7126 4.0313 11.8563 4.00005 12.0001 4.00005ZM4.5188 8.98443L15.6719 17.7719C14.8844 18.5219 13.9438 19.1907 12.8251 19.7251C12.3032 19.9751 11.6969 19.9751 11.1751 19.7251C6.12505 17.3063 4.69068 12.1719 4.5188 8.98443Z" fill="black"/>
</svg>
