<svg width="24" height="24" viewBox="0 0 24 24" fill="none" xmlns="http://www.w3.org/2000/svg">
<path d="M11.6812 4.11564C11.8656 3.96251 12.1375 3.96251 12.3219 4.11564L16.1031 7.26564C16.6719 7.74064 17 8.44376 17 9.18751V12.7531V20H16.5H13V17C13 16.4469 12.5531 16 12 16C11.4469 16 11 16.4469 11 17V20H7.5H7V12.7531V9.18751C7 8.44689 7.32813 7.74064 7.9 7.26564L11.6812 4.11564ZM18 20V11.6406L18.8781 10.6656C18.9719 10.5594 19.1094 10.5 19.25 10.5C19.3906 10.5 19.5281 10.5594 19.6219 10.6656L21.6156 12.8813C21.8625 13.1563 22 13.5156 22 13.8844V18C22 19.1031 21.1031 20 20 20H18ZM6 11.6406V20H4C2.89688 20 2 19.1031 2 18V13.8844C2 13.5125 2.1375 13.1563 2.38438 12.8813L4.37812 10.6656C4.47187 10.5594 4.60938 10.5 4.75 10.5C4.89062 10.5 5.02813 10.5594 5.12188 10.6656L6 11.6406ZM12.2188 7.88439C12.1219 7.71564 11.8781 7.71564 11.7844 7.88439L11.2875 8.76251L10.2781 8.75314C10.0844 8.75001 9.9625 8.96251 10.0594 9.13126L10.5719 10L10.0594 10.8688C9.95937 11.0375 10.0812 11.2469 10.2781 11.2469L11.2875 11.2375L11.7812 12.1156C11.8781 12.2844 12.1219 12.2844 12.2156 12.1156L12.7125 11.2375L13.7219 11.2469C13.9156 11.25 14.0375 11.0375 13.9406 10.8688L13.4281 10L13.9406 9.13126C14.0406 8.96251 13.9188 8.75314 13.7219 8.75314L12.7125 8.76251L12.2188 7.88439Z" fill="black"/>
</svg>
