<svg width="24" height="24" viewBox="0 0 24 24" fill="none" xmlns="http://www.w3.org/2000/svg">
<path d="M15.9813 5.18672C16.0845 4.64297 15.7313 4.12109 15.1876 4.01484C14.6438 3.90859 14.122 4.26484 14.0157 4.80859L13.9782 4.99609H11.6782C10.9876 9.08359 9.30322 11.2867 7.70322 12.4617C6.88447 13.0648 6.10322 13.3836 5.51884 13.5555C5.32197 13.6117 5.15009 13.6523 5.00322 13.6805L4.01884 18.8117C3.96259 19.1055 4.04072 19.4086 4.23134 19.6367C4.42197 19.8648 4.70322 19.9992 5.00009 19.9992H18.0001H19.0001C19.5532 19.9992 20.0001 19.5523 20.0001 18.9992C20.0001 18.4461 19.5532 17.9992 19.0001 17.9992V15.7492C19.0001 15.3648 18.7813 15.018 18.4376 14.8492L14.6251 12.9992H12.5001C12.2251 12.9992 12.0001 12.7742 12.0001 12.4992C12.0001 12.2242 12.2251 11.9992 12.5001 11.9992H14.672L15.0563 9.99922H13.0001C12.7251 9.99922 12.5001 9.77422 12.5001 9.49922C12.5001 9.22422 12.7251 8.99922 13.0001 8.99922H15.2501L15.7907 6.18672L15.9845 5.18672H15.9813ZM5.21259 12.6055C5.22197 12.6023 5.23134 12.5992 5.24072 12.5961C5.72822 12.4523 6.40009 12.1805 7.11259 11.6586C8.45634 10.6711 9.99697 8.75546 10.6657 4.99922H7.50009C7.02197 4.99922 6.60947 5.33984 6.51884 5.81172L5.21259 12.6055Z" fill="black"/>
</svg>
