<svg width="24" height="24" viewBox="0 0 24 24" fill="none" xmlns="http://www.w3.org/2000/svg">
<path d="M13.7813 5.28135L12.2813 6.78135C11.9876 7.0751 11.5126 7.0751 11.222 6.78135C10.9313 6.4876 10.9282 6.0126 11.222 5.72197L12.7188 4.21885C13.0126 3.9251 13.4876 3.9251 13.7782 4.21885C14.0688 4.5126 14.072 4.9876 13.7782 5.27822L13.7813 5.28135ZM9.32509 8.91885C9.60009 8.35947 10.397 8.35947 10.672 8.91885L12.1188 11.8563L15.3532 12.3282C15.9688 12.4188 16.2126 13.172 15.7688 13.6063L13.4282 15.8938L13.9813 19.122C14.0876 19.7345 13.4438 20.2032 12.8938 19.9126L10.0001 18.3876L7.10322 19.9126C6.55322 20.2032 5.90947 19.7345 6.01572 19.122L6.56884 15.8938L4.22509 13.6063C3.78134 13.172 4.02822 12.4157 4.64072 12.3282L7.87509 11.8563L9.32197 8.91885H9.32509ZM19.7813 10.2188C20.0751 10.5126 20.0751 10.9876 19.7813 11.2782L18.2813 12.7782C17.9876 13.072 17.5126 13.072 17.222 12.7782C16.9313 12.4845 16.9282 12.0095 17.222 11.7188L18.722 10.2188C19.0157 9.9251 19.4907 9.9251 19.7813 10.2188ZM19.7813 5.28135L15.2813 9.78135C14.9876 10.0751 14.5126 10.0751 14.222 9.78135C13.9313 9.4876 13.9282 9.0126 14.222 8.72197L18.7188 4.21885C19.0126 3.9251 19.4876 3.9251 19.7782 4.21885C20.0688 4.5126 20.072 4.9876 19.7782 5.27822L19.7813 5.28135Z" fill="black"/>
</svg>
