<svg width="24" height="24" viewBox="0 0 24 24" fill="none" xmlns="http://www.w3.org/2000/svg">
<path d="M7.45 4.68436C7.625 5.20936 7.34062 5.77499 6.81875 5.94999L6 6.22186V9.99999C6 11.6562 7.34375 13 9 13C10.6562 13 12 11.6562 12 9.99999V6.22186L11.1844 5.94999C10.6594 5.77499 10.3781 5.20936 10.5531 4.68436C10.7281 4.15936 11.2938 3.87811 11.8188 4.05311L12.6344 4.32499C13.45 4.59686 14 5.35936 14 6.22186V9.99999C14 12.4125 12.2937 14.425 10.0219 14.8969C10.2187 16.6437 11.7 18 13.5 18C15.4344 18 17 16.4344 17 14.5V12.2906C16.1156 11.9062 15.5 11.025 15.5 9.99999C15.5 8.61874 16.6187 7.49999 18 7.49999C19.3813 7.49999 20.5 8.61874 20.5 9.99999C20.5 11.025 19.8844 11.9062 19 12.2906V14.5C19 17.5375 16.5375 20 13.5 20C10.5969 20 8.22187 17.7531 8.01562 14.9031C5.725 14.4437 4 12.425 4 9.99999V6.22186C4 5.36249 4.55 4.59686 5.36875 4.32499L6.18438 4.05311C6.70938 3.87811 7.275 4.16249 7.45 4.68436ZM18 11C18.2652 11 18.5196 10.8946 18.7071 10.7071C18.8946 10.5196 19 10.2652 19 9.99999C19 9.73477 18.8946 9.48042 18.7071 9.29288C18.5196 9.10534 18.2652 8.99999 18 8.99999C17.7348 8.99999 17.4804 9.10534 17.2929 9.29288C17.1054 9.48042 17 9.73477 17 9.99999C17 10.2652 17.1054 10.5196 17.2929 10.7071C17.4804 10.8946 17.7348 11 18 11Z" fill="black"/>
</svg>
