<svg width="24" height="24" viewBox="0 0 24 24" fill="none" xmlns="http://www.w3.org/2000/svg">
<path d="M11 5H6C5.44687 5 5 5.44687 5 6V8C5 8.55313 5.44687 9 6 9H17.7937C17.925 9 18.0531 8.94688 18.1469 8.85313L19.6469 7.35313C19.8406 7.15938 19.8406 6.84062 19.6469 6.64687L18.1469 5.14688C18.0531 5.05313 17.925 5 17.7937 5H13C13 4.44687 12.5531 4 12 4C11.4469 4 11 4.44687 11 5ZM19 12C19 11.4469 18.5531 11 18 11H13V10H11V11H6.20625C6.075 11 5.94687 11.0531 5.85312 11.1469L4.35312 12.6469C4.15937 12.8406 4.15937 13.1594 4.35312 13.3531L5.85312 14.8531C5.94687 14.9469 6.075 15 6.20625 15H18C18.5531 15 19 14.5531 19 14V12ZM13 19V16H11V19C11 19.5531 11.4469 20 12 20C12.5531 20 13 19.5531 13 19Z" fill="black"/>
</svg>
