<svg width="24" height="24" viewBox="0 0 24 24" fill="none" xmlns="http://www.w3.org/2000/svg">
<path d="M5.6844 5.95C5.1594 5.775 4.87815 5.20937 5.05315 4.68437C5.22815 4.15938 5.79377 3.87813 6.31877 4.05313L9.85002 5.23125C10.2813 4.49375 11.0844 4 12 4C13.3813 4 14.5 5.11875 14.5 6.5C14.5 6.59375 14.4938 6.68438 14.4844 6.775L18.3156 8.05312C18.8406 8.22812 19.1219 8.79375 18.9469 9.31875C18.7719 9.84375 18.2063 10.125 17.6813 9.95L13.45 8.5375C13.3094 8.6375 13.1594 8.72187 13 8.79375V19C13 19.5531 12.5531 20 12 20H6.00002C5.4469 20 5.00002 19.5531 5.00002 19C5.00002 18.4469 5.4469 18 6.00002 18H11V8.79063C10.3438 8.50313 9.83752 7.94688 9.61877 7.25938L5.6844 5.94687V5.95ZM8.26252 13L6.00002 9.11875L3.73752 13H8.26252ZM6.00002 16C4.0344 16 2.40002 14.9375 2.06252 13.5344C1.98127 13.1906 2.09377 12.8375 2.2719 12.5312L5.2469 7.43125C5.40315 7.1625 5.69065 7 6.00002 7C6.3094 7 6.5969 7.16563 6.75315 7.43125L9.72815 12.5312C9.90627 12.8375 10.0188 13.1906 9.93752 13.5344C9.60002 14.9375 7.96565 16 6.00002 16ZM17.9625 13.1187L15.7 17H20.2281L17.9625 13.1187ZM21.9 17.5344C21.5625 18.9375 19.9281 20 17.9625 20C15.9969 20 14.3625 18.9375 14.025 17.5344C13.9438 17.1906 14.0563 16.8375 14.2344 16.5312L17.2094 11.4313C17.3656 11.1625 17.6531 11 17.9625 11C18.2719 11 18.5594 11.1656 18.7156 11.4313L21.6906 16.5312C21.8688 16.8375 21.9813 17.1906 21.9 17.5344Z" fill="black"/>
</svg>
