<svg width="24" height="24" viewBox="0 0 24 24" fill="none" xmlns="http://www.w3.org/2000/svg">
<path d="M12.5 4C12.2969 4 12.1156 4.12187 12.0375 4.30937C11.9594 4.49687 12.0031 4.7125 12.1469 4.85312L12.3375 5.04375C12.4438 5.15 12.5031 5.29062 12.5031 5.44062C12.5 5.75 12.25 6 11.9406 6H10C8.89688 6 8 6.89688 8 8C8 8.36875 8.1 8.71562 8.275 9.0125C7.275 9.125 6.5 9.97187 6.5 11C6.5 12.1031 7.39688 13 8.5 13H15.5C16.6031 13 17.5 12.1031 17.5 11C17.5 9.89688 16.6031 9 15.5 9H15.4281C15.7875 8.55 16 7.97813 16 7.35625C16 5.50313 14.4969 4 12.6438 4H12.5ZM7.5 14V15C7.5 15.5531 7.94687 16 8.5 16H8.55625L8.90313 19.1094C8.95938 19.6156 9.3875 20 9.89687 20H14.1062C14.6156 20 15.0438 19.6156 15.1 19.1094L15.4438 16H15.5C16.0531 16 16.5 15.5531 16.5 15V14H7.5Z" fill="black"/>
</svg>
