<svg width="24" height="24" viewBox="0 0 24 24" fill="none" xmlns="http://www.w3.org/2000/svg">
<path d="M17.7812 4.21876L18.7812 5.21876L19.7812 6.21876C20.075 6.51251 20.075 6.98751 19.7812 7.27814C19.4875 7.56876 19.0125 7.57189 18.7218 7.27814L18.2531 6.80939L17.0593 8.00001L18.7781 9.71876C19.0718 10.0125 19.0718 10.4875 18.7781 10.7781C18.4843 11.0688 18.0093 11.0719 17.7187 10.7781L15.4687 8.52814L13.2187 6.28126C12.925 5.98751 12.925 5.51251 13.2187 5.22189C13.5125 4.93126 13.9875 4.92814 14.2781 5.22189L15.9968 6.94064L17.1906 5.75001L16.7187 5.28126C16.425 4.98751 16.425 4.51251 16.7187 4.22189C17.0125 3.93126 17.4875 3.92814 17.7781 4.22189L17.7812 4.21876ZM10.5718 8.86564L12.4812 6.95626C12.4906 6.96564 12.5 6.97814 12.5125 6.98751L13.0125 7.48751L14.7625 9.23751L16.5125 10.9875L17.0125 11.4875C17.0218 11.4969 17.0312 11.5063 17.0437 11.5188L11.075 17.4875C10.7468 17.8156 10.3031 18 9.83745 18H7.05933L5.2812 19.7813C4.98745 20.075 4.51245 20.075 4.22183 19.7813C3.9312 19.4875 3.92808 19.0125 4.22183 18.7219L6.00308 16.9406V14.1656C6.00308 13.7 6.18745 13.2563 6.51558 12.9281L7.8687 11.575L9.64995 13.3563C9.8437 13.55 10.1625 13.55 10.3562 13.3563C10.55 13.1625 10.55 12.8438 10.3562 12.65L8.57495 10.8688L9.8687 9.57501L11.65 11.3563C11.8437 11.55 12.1625 11.55 12.3562 11.3563C12.55 11.1625 12.55 10.8438 12.3562 10.65L10.575 8.86876L10.5718 8.86564Z" fill="black"/>
</svg>
