<svg width="24" height="24" viewBox="0 0 24 24" fill="none" xmlns="http://www.w3.org/2000/svg">
<path d="M7 5C5.89688 5 5 5.89688 5 7V17C5 18.1031 5.89688 19 7 19H17C18.1031 19 19 18.1031 19 17V7C19 5.89688 18.1031 5 17 5H7ZM9 13.7937V9.5C9 9.225 9.225 9 9.5 9H13.7937C14.1844 9 14.5 9.31563 14.5 9.70625C14.5 9.89375 14.425 10.075 14.2937 10.2063L13.25 11.25L15.3219 13.3219C15.4344 13.4344 15.5 13.5875 15.5 13.75C15.5 13.9125 15.4375 14.0625 15.3219 14.1781L14.175 15.325C14.0625 15.4375 13.9094 15.5 13.75 15.5C13.5906 15.5 13.4375 15.4375 13.3219 15.3219L11.25 13.25L10.2063 14.2937C10.075 14.425 9.89375 14.5 9.70625 14.5C9.31563 14.5 9 14.1844 9 13.7937Z" fill="black"/>
</svg>
