<svg width="24" height="24" viewBox="0 0 24 24" fill="none" xmlns="http://www.w3.org/2000/svg">
<path d="M13.2971 4.0367C13.4533 4.10233 13.5658 4.24295 13.5971 4.40858L14.2189 7.78045L17.5908 8.3992C17.7564 8.43045 17.8971 8.54295 17.9627 8.6992C18.0283 8.85545 18.0096 9.03358 17.9127 9.1742L17.2846 10.0836C17.0314 10.0305 16.7689 9.9992 16.5002 9.9992C15.4721 9.9992 14.5502 10.443 13.9096 11.1461C13.5189 9.34608 11.9158 7.9992 10.0002 7.9992C7.79081 7.9992 6.00018 9.78983 6.00018 11.9992C6.00018 14.2086 7.79081 15.9992 10.0002 15.9992C10.3877 15.9992 10.7658 15.943 11.1189 15.8398C11.4721 17.0523 12.5721 17.9492 13.8908 17.9961L13.5971 19.5898C13.5658 19.7555 13.4533 19.8961 13.2971 19.9617C13.1408 20.0273 12.9627 20.0086 12.8221 19.9117L10.0002 17.9648L7.17831 19.9117C7.03768 20.0086 6.85956 20.0273 6.70331 19.9617C6.54706 19.8961 6.43456 19.7555 6.40331 19.5898L5.78143 16.218L2.40956 15.5961C2.24393 15.5648 2.10331 15.4523 2.03768 15.2961C1.97206 15.1398 1.99081 14.9617 2.08768 14.8211L4.03456 11.9992L2.08768 9.17733C1.99081 9.0367 1.97206 8.85858 2.03768 8.70233C2.10331 8.54608 2.24393 8.43358 2.40956 8.40233L5.78143 7.78045L6.40331 4.40858C6.43456 4.24295 6.54706 4.10233 6.70331 4.0367C6.85956 3.97108 7.03768 3.98983 7.17831 4.0867L10.0002 6.03358L12.8221 4.0867C12.9627 3.98983 13.1408 3.97108 13.2971 4.0367ZM13.0002 11.9992C13.0002 12.0586 12.9971 12.1148 12.9939 12.1711C11.8814 12.5648 11.0721 13.5961 11.0033 14.8273C10.6877 14.9398 10.3502 14.9992 9.99706 14.9992C8.34081 14.9992 6.99706 13.6555 6.99706 11.9992C6.99706 10.343 8.34081 8.9992 9.99706 8.9992C11.6533 8.9992 12.9971 10.343 12.9971 11.9992H13.0002ZM14.0002 16.9992C12.8971 16.9992 12.0002 16.1023 12.0002 14.9992C12.0002 13.8961 12.8971 12.9992 14.0002 12.9992C14.0158 12.9992 14.0346 12.9992 14.0502 12.9992C14.2814 11.8586 15.2908 10.9992 16.5002 10.9992C17.5939 10.9992 18.5252 11.7023 18.8627 12.6805C19.1346 12.5648 19.4346 12.4992 19.7502 12.4992C20.9939 12.4992 22.0002 13.5055 22.0002 14.7492C22.0002 15.993 20.9939 16.9992 19.7502 16.9992H14.0002Z" fill="black"/>
</svg>
