<svg width="24" height="24" viewBox="0 0 24 24" fill="none" xmlns="http://www.w3.org/2000/svg">
<path d="M3.975 4.6594C4.05312 4.42815 3.95312 4.17815 3.74063 4.06252C3.52813 3.9469 3.25937 4.00002 3.10938 4.18752L2.875 4.47815C2.30937 5.18752 2 6.07502 2 6.9844C2 9.19065 3.7875 11 6 11V10.5V10V9.00002V8.50002V8.00002H5.28125C4.38438 8.00002 3.63438 7.3219 3.54375 6.42815C3.51875 6.1844 3.54688 5.9344 3.625 5.70315L3.975 4.6594ZM9.5 7.00002C8.11875 7.00002 7 8.11877 7 9.50002V13C7 14.1563 7.7875 15.1313 8.85313 15.4156L9.71562 18.8625C9.88125 19.5313 10.4812 20 11.1719 20H12.8281C13.5156 20 14.1156 19.5313 14.2844 18.8625L15.1469 15.4156C16.2125 15.1313 17 14.1563 17 13V9.50002C17 8.11877 15.8813 7.00002 14.5 7.00002H9.5ZM9 12C9 11.7348 9.10536 11.4805 9.29289 11.2929C9.48043 11.1054 9.73478 11 10 11C10.2652 11 10.5196 11.1054 10.7071 11.2929C10.8946 11.4805 11 11.7348 11 12C11 12.2652 10.8946 12.5196 10.7071 12.7071C10.5196 12.8947 10.2652 13 10 13C9.73478 13 9.48043 12.8947 9.29289 12.7071C9.10536 12.5196 9 12.2652 9 12ZM14 11C14.2652 11 14.5196 11.1054 14.7071 11.2929C14.8946 11.4805 15 11.7348 15 12C15 12.2652 14.8946 12.5196 14.7071 12.7071C14.5196 12.8947 14.2652 13 14 13C13.7348 13 13.4804 12.8947 13.2929 12.7071C13.1054 12.5196 13 12.2652 13 12C13 11.7348 13.1054 11.4805 13.2929 11.2929C13.4804 11.1054 13.7348 11 14 11ZM20.2625 4.0594C20.05 4.17502 19.95 4.42815 20.0281 4.65627L20.375 5.70315C20.4531 5.93752 20.4812 6.1844 20.4562 6.42815C20.3656 7.3219 19.6156 8.00002 18.7188 8.00002H18V8.50002V9.00002V10V10.5V11C20.2125 11 22 9.19065 22 6.9844C22 6.07815 21.6906 5.19065 21.125 4.48127L20.8906 4.18752C20.7406 3.9969 20.475 3.94377 20.2625 4.0594Z" fill="black"/>
</svg>
