<svg width="24" height="24" viewBox="0 0 24 24" fill="none" xmlns="http://www.w3.org/2000/svg">
<path d="M17.9905 14L15.6843 13.2344L18.8218 7.925C19.5968 8.75938 20.1374 9.82187 20.3374 11.0125L20.728 13.3625C20.853 14.1062 20.1405 14.7125 19.4249 14.475L19.2062 14.4031L17.9905 14ZM15.2968 6.06562C16.3249 6.21562 17.2718 6.62812 18.0687 7.2375L14.7124 12.9125L13.0968 12.375C12.6405 12.2219 12.1624 12.1562 11.6843 12.175L15.2968 6.06562ZM14.1718 6L10.3624 12.45L6.00304 13.9594L10.7062 6H14.1718ZM3.66554 11.0125C4.14367 8.13125 6.62804 6.01875 9.54679 6L4.54367 14.4625C3.84367 14.6719 3.15617 14.0719 3.27804 13.3406L3.66554 11.0156V11.0125ZM3.99992 16V15.5312C4.26554 15.5531 4.54679 15.5219 4.82492 15.425L10.8562 13.3344C11.4812 13.1188 12.1562 13.1125 12.7843 13.3219L19.2062 15.4531C19.4749 15.5437 19.7437 15.5719 20.003 15.55V16C20.003 17.1031 19.1062 18 18.003 18C17.4062 18 16.8687 17.7375 16.503 17.3219C16.1374 17.7375 15.5999 18 15.003 18C14.4062 18 13.8687 17.7375 13.503 17.3219C13.1374 17.7375 12.5999 18 12.003 18C11.4062 18 10.8687 17.7375 10.503 17.3219C10.1374 17.7375 9.59992 18 9.00304 18C8.40617 18 7.86867 17.7375 7.50304 17.3219C7.13429 17.7375 6.59679 18 5.99992 18C4.89679 18 3.99992 17.1031 3.99992 16Z" fill="black"/>
</svg>
