<svg width="24" height="24" viewBox="0 0 24 24" fill="none" xmlns="http://www.w3.org/2000/svg">
<path d="M15.2969 4.03756C15.4531 4.10318 15.5656 4.24381 15.5969 4.40943L16.2188 7.78131L19.5906 8.40006C19.7563 8.43131 19.8969 8.54381 19.9625 8.70006C20.0281 8.85631 20.0094 9.03443 19.9125 9.17506L17.9656 12.0001H16C16 9.79068 14.2094 8.00006 12 8.00006C9.79063 8.00006 8 9.79068 8 12.0001H6.03438L4.0875 9.17818C3.99063 9.03756 3.97187 8.85943 4.0375 8.70318C4.10312 8.54693 4.24375 8.43443 4.40937 8.40318L7.78125 7.78131L8.40312 4.40943C8.43437 4.24381 8.54688 4.10318 8.70312 4.03756C8.85938 3.97193 9.0375 3.99068 9.17812 4.08756L12 6.03443L14.8219 4.08756C14.9625 3.99068 15.1406 3.97193 15.2969 4.03756ZM12 9.00006C13.6562 9.00006 15 10.3438 15 12.0001H9C9 10.3438 10.3438 9.00006 12 9.00006ZM21.25 13.0001C21.6656 13.0001 22 13.3344 22 13.7501C22 14.1657 21.6656 14.5001 21.25 14.5001H17.75C17.3344 14.5001 17 14.1657 17 13.7501C17 13.3344 17.3344 13.0001 17.75 13.0001H21.25ZM14.75 13.0001C15.1656 13.0001 15.5 13.3344 15.5 13.7501C15.5 14.1657 15.1656 14.5001 14.75 14.5001H4.75C4.33437 14.5001 4 14.1657 4 13.7501C4 13.3344 4.33437 13.0001 4.75 13.0001H14.75ZM19.25 15.7501C19.6656 15.7501 20 16.0844 20 16.5001C20 16.9157 19.6656 17.2501 19.25 17.2501H2.75C2.33437 17.2501 2 16.9157 2 16.5001C2 16.0844 2.33437 15.7501 2.75 15.7501H19.25ZM4 19.2501C4 18.8344 4.33437 18.5001 4.75 18.5001H8.25C8.66563 18.5001 9 18.8344 9 19.2501C9 19.6657 8.66563 20.0001 8.25 20.0001H4.75C4.33437 20.0001 4 19.6657 4 19.2501ZM10.5 19.2501C10.5 18.8344 10.8344 18.5001 11.25 18.5001H21.25C21.6656 18.5001 22 18.8344 22 19.2501C22 19.6657 21.6656 20.0001 21.25 20.0001H11.25C10.8344 20.0001 10.5 19.6657 10.5 19.2501Z" fill="black"/>
</svg>
