<svg width="24" height="24" viewBox="0 0 24 24" fill="none" xmlns="http://www.w3.org/2000/svg">
<path d="M16 4H10.4156C9.88438 4 9.375 4.20938 9 4.58438L6.58438 7C6.20938 7.375 6 7.88438 6 8.41563V18C6 19.1031 6.89688 20 8 20H16C17.1031 20 18 19.1031 18 18V6C18 4.89688 17.1031 4 16 4ZM11 6.75V8.25C11 8.66563 10.6656 9 10.25 9C9.83437 9 9.5 8.66563 9.5 8.25V6.75C9.5 6.33437 9.83437 6 10.25 6C10.6656 6 11 6.33437 11 6.75ZM13.5 6.75V8.25C13.5 8.66563 13.1656 9 12.75 9C12.3344 9 12 8.66563 12 8.25V6.75C12 6.33437 12.3344 6 12.75 6C13.1656 6 13.5 6.33437 13.5 6.75ZM16 6.75V8.25C16 8.66563 15.6656 9 15.25 9C14.8344 9 14.5 8.66563 14.5 8.25V6.75C14.5 6.33437 14.8344 6 15.25 6C15.6656 6 16 6.33437 16 6.75Z" fill="black"/>
</svg>
