<svg width="24" height="24" viewBox="0 0 24 24" fill="none" xmlns="http://www.w3.org/2000/svg">
<path d="M7 5C5.89688 5 5 5.89688 5 7V17C5 18.1031 5.89688 19 7 19H17C18.1031 19 19 18.1031 19 17V7C19 5.89688 18.1031 5 17 5H7ZM11.25 14.75V12.75H9.25C8.83437 12.75 8.5 12.4156 8.5 12C8.5 11.5844 8.83437 11.25 9.25 11.25H11.25V9.25C11.25 8.83437 11.5844 8.5 12 8.5C12.4156 8.5 12.75 8.83437 12.75 9.25V11.25H14.75C15.1656 11.25 15.5 11.5844 15.5 12C15.5 12.4156 15.1656 12.75 14.75 12.75H12.75V14.75C12.75 15.1656 12.4156 15.5 12 15.5C11.5844 15.5 11.25 15.1656 11.25 14.75Z" fill="black"/>
</svg>
