<svg width="24" height="24" viewBox="0 0 24 24" fill="none" xmlns="http://www.w3.org/2000/svg">
<path d="M14.1813 8.75938C14.222 8.90313 14.3532 9 14.5001 9C14.647 9 14.7782 8.90313 14.8188 8.75938L15.2501 7.25L16.7595 6.81875C16.9032 6.77812 17.0001 6.64687 17.0001 6.5C17.0001 6.35313 16.9032 6.22188 16.7595 6.18125L15.2501 5.75L14.8188 4.24062C14.7782 4.09687 14.647 4 14.5001 4C14.3532 4 14.222 4.09687 14.1813 4.24062L13.7501 5.75L12.2407 6.18125C12.097 6.22188 12.0001 6.35313 12.0001 6.5C12.0001 6.64687 12.097 6.77812 12.2407 6.81875L13.7501 7.25L14.1813 8.75938ZM10.6688 8.91875C10.3938 8.35937 9.59697 8.35937 9.32197 8.91875L7.87509 11.8562L4.64072 12.3281C4.02822 12.4156 3.78134 13.1719 4.22509 13.6062L6.56572 15.8938L6.01572 19.1219C5.90947 19.7344 6.55322 20.2031 7.10322 19.9125L9.99697 18.3875L12.8907 19.9125C13.4407 20.2031 14.0845 19.7344 13.9782 19.1219L13.4251 15.8938L15.7657 13.6062C16.2095 13.1719 15.9657 12.4156 15.3501 12.3281L12.1157 11.8562L10.6688 8.91875ZM17.4001 11.6L17.7438 12.8062C17.7751 12.9187 17.8813 13 18.0001 13C18.1188 13 18.222 12.9219 18.2563 12.8062L18.6001 11.6L19.8063 11.2562C19.9188 11.225 20.0001 11.1187 20.0001 11C20.0001 10.8813 19.922 10.7781 19.8063 10.7438L18.6001 10.4L18.2563 9.19375C18.2251 9.08125 18.1188 9 18.0001 9C17.8813 9 17.7782 9.07812 17.7438 9.19375L17.4001 10.4L16.1938 10.7438C16.0813 10.775 16.0001 10.8813 16.0001 11C16.0001 11.1187 16.0782 11.2219 16.1938 11.2562L17.4001 11.6Z" fill="black"/>
</svg>
