<svg width="24" height="24" viewBox="0 0 24 24" fill="none" xmlns="http://www.w3.org/2000/svg">
<path d="M8 8C8 7.44687 8.44687 7 9 7C9.55313 7 10 7.44687 10 8V8.24375C10 9.10938 9.925 9.97188 9.77812 10.8219L7.14062 11.6125C5.87188 11.9938 5.00312 13.1625 5.00312 14.4875V16.7344C5.00312 17.9844 6.01875 19 7.26875 19C8.08125 19 8.83125 18.5656 9.23438 17.8594L9.66875 17.1C10.5062 15.6313 11.1219 14.0469 11.4937 12.3969L14.4438 11.5125L14.0531 12.6844C13.95 12.9906 14.0031 13.325 14.1906 13.5844C14.3781 13.8438 14.6813 14 15.0031 14H19C19.5531 14 20 13.5531 20 13C20 12.4469 19.5531 12 19 12H16.3875L16.95 10.3156C17.0687 9.9625 16.9781 9.57187 16.7188 9.30312C16.4594 9.03437 16.0719 8.93438 15.7125 9.04063L11.8875 10.1906C11.9625 9.54375 12 8.89688 12 8.24375V8C12 6.34375 10.6562 5 9 5C7.34375 5 6 6.34375 6 8V9C6 9.55313 6.44687 10 7 10C7.55313 10 8 9.55313 8 9V8ZM7.7125 13.5312L9.24375 13.0719C8.91875 14.1281 8.47812 15.1469 7.92812 16.1094L7.49375 16.8687C7.44688 16.95 7.35937 17.0031 7.2625 17.0031C7.11562 17.0031 6.99687 16.8844 6.99687 16.7375V14.4875C6.99687 14.0469 7.2875 13.6562 7.70937 13.5281L7.7125 13.5312ZM2.75 15.5C2.33437 15.5 2 15.8344 2 16.25C2 16.6656 2.33437 17 2.75 17H4.00938C4.00313 16.9125 4 16.825 4 16.7344V15.5H2.75ZM21.25 17C21.6656 17 22 16.6656 22 16.25C22 15.8344 21.6656 15.5 21.25 15.5H11.5594C11.35 16.0094 11.1156 16.5094 10.8625 17H21.25Z" fill="black"/>
</svg>
