<svg width="24" height="24" viewBox="0 0 24 24" fill="none" xmlns="http://www.w3.org/2000/svg">
<path d="M18 5.5H19C20.6563 5.5 22 6.84375 22 8.5C22 10.1562 20.6563 11.5 19 11.5H15C14.4469 11.5 14 11.0531 14 10.5C14 9.94687 14.4469 9.5 15 9.5H19C19.5531 9.5 20 9.05313 20 8.5C20 7.94687 19.5531 7.5 19 7.5H18C17.4469 7.5 17 7.05313 17 6.5C17 5.94687 17.4469 5.5 18 5.5ZM7.5 6C7.91563 6 8.25 6.33437 8.25 6.75V7.54375L8.64688 7.14687C8.84063 6.95312 9.15938 6.95312 9.35313 7.14687C9.54688 7.34062 9.54688 7.65938 9.35313 7.85313L8.25 8.95625V10.7L9.75938 9.82812L10.1625 8.32188C10.2344 8.05625 10.5094 7.89688 10.775 7.96875C11.0406 8.04062 11.2 8.31563 11.1281 8.58125L10.9844 9.12187L11.6719 8.725C12.0313 8.51875 12.4906 8.64062 12.6969 9C12.9031 9.35938 12.7813 9.81875 12.4219 10.025L11.7344 10.4219L12.275 10.5656C12.5406 10.6375 12.7 10.9125 12.6281 11.1781C12.5563 11.4437 12.2813 11.6031 12.0156 11.5312L10.5094 11.1281L9 12L10.5094 12.8719L12.0188 12.4688C12.2844 12.3969 12.5594 12.5562 12.6313 12.8219C12.7031 13.0875 12.5438 13.3625 12.2781 13.4344L11.7375 13.5781L12.425 13.975C12.7844 14.1813 12.9063 14.6406 12.7 15C12.4938 15.3594 12.0344 15.4812 11.675 15.275L10.9875 14.8781L11.1313 15.4187C11.2031 15.6844 11.0438 15.9594 10.7781 16.0312C10.5125 16.1031 10.2375 15.9438 10.1656 15.6781L9.7625 14.1719L8.25 13.3V15.0437L9.35313 16.1469C9.54688 16.3406 9.54688 16.6594 9.35313 16.8531C9.15938 17.0469 8.84063 17.0469 8.64688 16.8531L8.25 16.4563V17.25C8.25 17.6656 7.91563 18 7.5 18C7.08438 18 6.75 17.6656 6.75 17.25V16.4563L6.35313 16.8531C6.15938 17.0469 5.84063 17.0469 5.64688 16.8531C5.45313 16.6594 5.45313 16.3406 5.64688 16.1469L6.75 15.0437V13.3L5.24063 14.1719L4.83438 15.6781C4.7625 15.9438 4.4875 16.1031 4.22188 16.0312C3.95625 15.9594 3.79688 15.6844 3.86875 15.4187L4.0125 14.8781L3.325 15.275C2.96875 15.4812 2.5125 15.3594 2.30313 15C2.09375 14.6406 2.21875 14.1813 2.57813 13.975L3.26563 13.5781L2.725 13.4344C2.45938 13.3625 2.3 13.0875 2.37188 12.8219C2.44375 12.5562 2.71875 12.3969 2.98438 12.4688L4.49063 12.8719L6 12L4.49063 11.1281L2.98125 11.5312C2.71563 11.6031 2.44063 11.4437 2.36875 11.1781C2.29688 10.9125 2.45625 10.6375 2.72188 10.5656L3.2625 10.4219L2.575 10.025C2.21875 9.81875 2.09688 9.35938 2.30313 9C2.50938 8.64062 2.96875 8.51875 3.32813 8.725L4.01563 9.12187L3.87188 8.58125C3.8 8.31563 3.95938 8.04062 4.225 7.96875C4.49063 7.89688 4.76563 8.05625 4.8375 8.32188L5.24063 9.82812L6.75 10.7V8.95625L5.64688 7.85313C5.45313 7.65938 5.45313 7.34062 5.64688 7.14687C5.84063 6.95312 6.15938 6.95312 6.35313 7.14687L6.75 7.54375V6.75C6.75 6.33437 7.08438 6 7.5 6ZM17 17.5C17 16.9469 17.4469 16.5 18 16.5H18.75C19.3031 16.5 19.75 16.0531 19.75 15.5C19.75 14.9469 19.3031 14.5 18.75 14.5H15C14.4469 14.5 14 14.0531 14 13.5C14 12.9469 14.4469 12.5 15 12.5H18.75C20.4063 12.5 21.75 13.8438 21.75 15.5C21.75 17.1562 20.4063 18.5 18.75 18.5H18C17.4469 18.5 17 18.0531 17 17.5Z" fill="black"/>
</svg>
