<svg width="24" height="24" viewBox="0 0 24 24" fill="none" xmlns="http://www.w3.org/2000/svg">
<path d="M19.9938 4.58126C20.0188 4.42189 19.9688 4.25939 19.8531 4.14689C19.7375 4.03439 19.5781 3.98126 19.4188 4.00626L17.05 4.40001C16.5375 4.48439 16.0625 4.73126 15.6938 5.09689L9.20627 11.5844L12.4156 14.7938L18.9 8.30626C19.2688 7.93751 19.5125 7.46251 19.5969 6.95001L19.9907 4.58126H19.9938ZM6.6469 11.1469L6.1469 11.6469C5.97815 11.8156 5.95315 12.0781 6.0844 12.2781L7.74377 14.7656C7.8094 14.8656 7.7969 14.9969 7.71252 15.0813L6.47502 16.3188C6.4094 16.3844 6.3094 16.4094 6.21877 16.3781L5.1594 16.025C4.98127 15.9656 4.78127 16.0125 4.6469 16.1469L4.1469 16.6469C3.95315 16.8406 3.95315 17.1594 4.1469 17.3531L6.6469 19.8531C6.84065 20.0469 7.1594 20.0469 7.35315 19.8531L7.85315 19.3531C7.98752 19.2188 8.0344 19.0219 7.97502 18.8406L7.6219 17.7813C7.59065 17.6906 7.61565 17.5938 7.68127 17.525L8.91877 16.2875C9.00315 16.2031 9.1344 16.1906 9.2344 16.2563L11.7219 17.9156C11.9188 18.0469 12.1844 18.0219 12.3531 17.8531L12.8531 17.3531C13.0469 17.1594 13.0469 16.8406 12.8531 16.6469L7.35315 11.1469C7.1594 10.9531 6.84065 10.9531 6.6469 11.1469Z" fill="black"/>
</svg>
