<svg width="24" height="24" viewBox="0 0 24 24" fill="none" xmlns="http://www.w3.org/2000/svg">
<path d="M5.81852 4C4.8654 4 4.04665 4.67188 3.85915 5.60625L2.25915 13.6062C2.01228 14.8438 2.95603 16 4.21853 16H10.9998V18H8.99977C8.44665 18 7.99977 18.4469 7.99977 19C7.99977 19.5531 8.44665 20 8.99977 20H14.9998C15.5529 20 15.9998 19.5531 15.9998 19C15.9998 18.4469 15.5529 18 14.9998 18H12.9998V16H19.781C21.0435 16 21.9904 14.8469 21.7435 13.6062L20.1435 5.60625C19.9529 4.67188 19.1341 4 18.181 4H5.81852ZM10.1529 6H13.8467L14.1716 9.25H9.8279L10.1529 6ZM8.32165 9.25H5.16852L5.81852 6H8.64353L8.32165 9.25ZM4.86853 10.75H8.17165L7.84665 14H4.21853L4.86853 10.75ZM9.6779 10.75H14.3216L14.6467 14H9.3529L9.6779 10.75ZM15.8279 10.75H19.131L19.781 14H16.156L15.8279 10.75ZM18.8279 9.25H15.6779L15.3529 6H18.1779L19.1591 5.80313L18.181 6L18.831 9.25H18.8279Z" fill="black"/>
</svg>
