<svg width="24" height="24" viewBox="0 0 24 24" fill="none" xmlns="http://www.w3.org/2000/svg">
<path d="M19.2374 5.52901C19.2343 5.51338 19.2311 5.49776 19.228 5.48213L15.4155 9.29151C16.503 10.2353 17.8843 10.8478 19.403 10.9759C19.6936 9.00713 19.5499 7.05401 19.2343 5.52901H19.2374ZM18.5249 4.76963C18.4905 4.76026 18.4561 4.75401 18.4218 4.74776C16.3718 4.40401 14.5811 4.35713 13.0218 4.56026C13.1436 6.09463 13.7593 7.48838 14.7093 8.58526L18.5249 4.76963ZM17.9374 15.2009C18.5561 14.1915 18.9686 13.0853 19.2218 11.9634C17.4999 11.7978 15.9374 11.0853 14.7093 10.0009L12.7093 12.0009L17.078 16.3728C17.3999 16.004 17.6843 15.6103 17.9343 15.2009H17.9374ZM13.9999 9.29463C12.9061 8.05401 12.1905 6.47276 12.0311 4.72901C11.4999 4.84151 10.9999 4.98838 10.528 5.16338C9.37176 5.59151 8.40926 6.19463 7.61863 6.91338L11.9999 11.2946L13.9999 9.29463ZM11.2936 12.0009L6.91863 7.62901C6.59988 7.99776 6.31551 8.39151 6.06238 8.80088C5.44363 9.81026 5.03113 10.9165 4.77801 12.0384C6.49988 12.204 8.06238 12.9165 9.29051 14.0009L11.2905 12.0009H11.2936ZM9.99988 14.7071C11.0936 15.9478 11.8124 17.529 11.9686 19.2728C12.4999 19.1603 12.9999 19.0134 13.4718 18.8384C14.628 18.4103 15.5905 17.8071 16.3811 17.0884L11.9999 12.7071L9.99988 14.7071ZM8.58426 14.7103C7.49676 13.7665 6.11551 13.154 4.59676 13.0259C4.30613 14.9946 4.44988 16.9478 4.76551 18.4728C4.76863 18.4884 4.77176 18.504 4.77488 18.5196L8.58426 14.7103ZM9.29051 15.4165L5.47488 19.2321C5.50926 19.2415 5.54363 19.2478 5.57801 19.254C7.62801 19.5978 9.41863 19.6446 10.978 19.4415C10.8561 17.9071 10.2405 16.5134 9.29051 15.4165Z" fill="black"/>
</svg>
