<svg width="24" height="24" viewBox="0 0 24 24" fill="none" xmlns="http://www.w3.org/2000/svg">
<path d="M5 17C5 18.1031 5.89688 19 7 19H17C18.1031 19 19 18.1031 19 17V7C19 5.89688 18.1031 5 17 5H7C5.89688 5 5 5.89688 5 7V17ZM9 12C9 11.7906 9.0875 11.5938 9.24062 11.45L12.7406 8.2C12.9594 7.99687 13.2781 7.94375 13.55 8.0625C13.8219 8.18125 14 8.45312 14 8.75V15.25C14 15.5469 13.8219 15.8188 13.55 15.9375C13.2781 16.0562 12.9594 16.0031 12.7406 15.8L9.24062 12.55C9.0875 12.4094 9 12.2094 9 12Z" fill="black"/>
</svg>
