<svg width="24" height="24" viewBox="0 0 24 24" fill="none" xmlns="http://www.w3.org/2000/svg">
<path d="M5 6C4.44687 6 4 6.44687 4 7C4 7.55313 4.44687 8 5 8H5.47812L8.27812 12L5.47812 16H5C4.44687 16 4 16.4469 4 17C4 17.5531 4.44687 18 5 18H6C6.325 18 6.63125 17.8406 6.81875 17.575L9.5 13.7437L12.1812 17.575C12.3687 17.8437 12.675 18 13 18H14C14.5531 18 15 17.5531 15 17C15 16.4469 14.5531 16 14 16H13.5219L10.7219 12L13.5219 8H14C14.5531 8 15 7.55313 15 7C15 6.44687 14.5531 6 14 6H13C12.675 6 12.3687 6.15937 12.1812 6.425L9.5 10.2562L6.81875 6.425C6.63125 6.15937 6.325 6 6 6H5ZM19 14C19 13.6531 18.8219 13.3312 18.525 13.15C18.2281 12.9687 17.8625 12.95 17.5531 13.1062L16.5531 13.6062C16.0594 13.8531 15.8594 14.4531 16.1062 14.9469C16.2812 15.2969 16.6344 15.5 17 15.5V18C16.4469 18 16 18.4469 16 19C16 19.5531 16.4469 20 17 20H18H19C19.5531 20 20 19.5531 20 19C20 18.4469 19.5531 18 19 18V14Z" fill="black"/>
</svg>
