<svg width="24" height="24" viewBox="0 0 24 24" fill="none" xmlns="http://www.w3.org/2000/svg">
<path d="M4 5C2.89688 5 2 5.89688 2 7V17C2 18.1031 2.89688 19 4 19H9.3375C9.12188 18.5469 9 18.0375 9 17.5C9 16.1031 9.81875 14.8969 11.0031 14.3344C11.0906 12.4781 12.6219 11 14.5 11C15.0375 11 15.5469 11.1219 16 11.3375V7C16 5.89688 15.1031 5 14 5H4ZM5.5 7.75V12.25C5.5 12.6656 5.16563 13 4.75 13C4.33437 13 4 12.6656 4 12.25V7.75C4 7.33437 4.33437 7 4.75 7C5.16563 7 5.5 7.33437 5.5 7.75ZM8.5 7.75V12.25C8.5 12.6656 8.16563 13 7.75 13C7.33437 13 7 12.6656 7 12.25V7.75C7 7.33437 7.33437 7 7.75 7C8.16563 7 8.5 7.33437 8.5 7.75ZM12.5 20H19.5C20.8813 20 22 18.8813 22 17.5C22 16.2812 21.1281 15.2656 19.975 15.0437C19.9906 14.9469 20 14.85 20 14.75C20 13.7844 19.2156 13 18.25 13C17.6844 13 17.1844 13.2687 16.8625 13.6812C16.525 12.7031 15.5938 12 14.5 12C13.1187 12 12 13.1187 12 14.5C12 14.6844 12.0188 14.8656 12.0594 15.0375C10.8875 15.2469 10 16.2688 10 17.5C10 18.8813 11.1187 20 12.5 20Z" fill="black"/>
</svg>
