<svg width="24" height="24" viewBox="0 0 24 24" fill="none" xmlns="http://www.w3.org/2000/svg">
<path d="M9.04063 8.4994C9.14063 7.9619 9.47812 7.55877 10.0938 7.29315C10.7531 7.0119 11.7125 6.90877 12.8625 7.09002C13.2344 7.1494 14.3875 7.3744 14.7406 7.46502C15.275 7.60565 15.8219 7.29002 15.9656 6.75565C16.1094 6.22127 15.7906 5.6744 15.2563 5.53065C14.8094 5.4119 13.5813 5.1744 13.175 5.1119C11.7781 4.89315 10.4156 4.98065 9.30937 5.45252C8.16875 5.94002 7.29687 6.85252 7.06562 8.18065C7.0625 8.1994 7.05938 8.21502 7.05938 8.23377C6.97188 8.98065 7.075 9.65877 7.375 10.2525C7.51562 10.5338 7.69375 10.7806 7.89687 10.9994H5C4.44687 10.9994 4 11.4463 4 11.9994C4 12.5525 4.44687 12.9994 5 12.9994H19C19.5531 12.9994 20 12.5525 20 11.9994C20 11.4463 19.5531 10.9994 19 10.9994H12.4406C12.4375 10.9994 12.4313 10.9963 12.4281 10.9963L12.3938 10.9869C11.2688 10.6494 10.3562 10.3744 9.73125 9.95252C9.44062 9.75565 9.2625 9.55877 9.1625 9.35565C9.06562 9.16502 9 8.8994 9.04375 8.4994H9.04063ZM14.9031 14.5369C14.9875 14.74 15.0406 15.0306 14.9625 15.4775C14.8687 16.0275 14.5312 16.44 13.9031 16.7088C13.2437 16.99 12.2875 17.0931 11.1375 16.9119C10.575 16.8213 9.60312 16.49 8.8125 16.2213C8.6375 16.1619 8.46875 16.1056 8.31563 16.0525C7.79063 15.8775 7.225 16.1619 7.05 16.6869C6.875 17.2119 7.15938 17.7775 7.68438 17.9525C7.79688 17.99 7.93125 18.0369 8.08125 18.0869C8.85938 18.3525 10.0687 18.765 10.8187 18.8869H10.825C12.2219 19.1056 13.5844 19.0181 14.6906 18.5463C15.8313 18.0588 16.7031 17.1463 16.9344 15.8181C17.0469 15.1619 17.0187 14.5556 16.8375 14.0025H14.4719C14.6906 14.1775 14.8281 14.3525 14.9062 14.54L14.9031 14.5369Z" fill="black"/>
</svg>
