<svg width="24" height="24" viewBox="0 0 24 24" fill="none" xmlns="http://www.w3.org/2000/svg">
<path d="M4.16563 5.12499L5.66563 6.12499C6.00938 6.35624 6.10313 6.82187 5.875 7.16562C5.64687 7.50937 5.17812 7.60312 4.83437 7.37499L3.33438 6.37499C2.99063 6.14374 2.89688 5.67812 3.125 5.33437C3.35312 4.99062 3.82188 4.89686 4.16563 5.12499ZM20.6656 6.37499L19.1656 7.37499C18.8219 7.60624 18.3563 7.51249 18.125 7.16562C17.8938 6.81874 17.9875 6.35624 18.3344 6.12499L19.8344 5.12499C20.1781 4.89374 20.6437 4.98749 20.875 5.33437C21.1063 5.68124 21.0125 6.14374 20.6656 6.37499ZM2.75 9.99999H4.75C5.16563 9.99999 5.5 10.3344 5.5 10.75C5.5 11.1656 5.16563 11.5 4.75 11.5H2.75C2.33437 11.5 2 11.1656 2 10.75C2 10.3344 2.33437 9.99999 2.75 9.99999ZM19.25 9.99999H21.25C21.6656 9.99999 22 10.3344 22 10.75C22 11.1656 21.6656 11.5 21.25 11.5H19.25C18.8344 11.5 18.5 11.1656 18.5 10.75C18.5 10.3344 18.8344 9.99999 19.25 9.99999ZM6.5 15L7.28125 8.75312C7.40625 7.75312 8.25625 6.99999 9.26562 6.99999H14.7344C15.7437 6.99999 16.5938 7.74999 16.7188 8.75312L17.5 15H9.31563L9.99687 9.56249C10.0312 9.28749 9.8375 9.03749 9.5625 9.00312C9.2875 8.96874 9.0375 9.16249 9.00313 9.43749L8.30937 15H6.5ZM5 17C5 16.4469 5.44688 16 6 16H18C18.5531 16 19 16.4469 19 17V18C19 18.5531 18.5531 19 18 19H6C5.44688 19 5 18.5531 5 18V17Z" fill="black"/>
</svg>
