<svg width="24" height="24" viewBox="0 0 24 24" fill="none" xmlns="http://www.w3.org/2000/svg">
<path d="M5.29377 4.2937C5.6844 3.90308 6.31877 3.90308 6.7094 4.2937L9.7094 7.2937C10.1 7.68433 10.1 8.3187 9.7094 8.70933C9.31877 9.09995 8.6844 9.09995 8.29377 8.70933L7.00002 7.41558V15C7.00002 16.1031 7.8969 17 9.00002 17C10.1031 17 11 16.1031 11 15V8.99995C11 6.79058 12.7906 4.99995 15 4.99995C17.2094 4.99995 19 6.79058 19 8.99995V16.5843L20.2938 15.2906C20.6844 14.9 21.3188 14.9 21.7094 15.2906C22.1 15.6812 22.1 16.3156 21.7094 16.7062L18.7094 19.7062C18.3188 20.0968 17.6844 20.0968 17.2938 19.7062L14.2938 16.7062C13.9031 16.3156 13.9031 15.6812 14.2938 15.2906C14.6844 14.9 15.3188 14.9 15.7094 15.2906L17 16.5843V8.99995C17 7.89683 16.1031 6.99995 15 6.99995C13.8969 6.99995 13 7.89683 13 8.99995V15C13 17.2093 11.2094 19 9.00002 19C6.79065 19 5.00002 17.2093 5.00002 15V7.41558L3.70627 8.7062C3.31565 9.09683 2.68127 9.09683 2.29065 8.7062C1.90002 8.31558 1.90002 7.6812 2.29065 7.29058L5.29065 4.29058L5.29377 4.2937Z" fill="black"/>
</svg>
