<svg width="24" height="24" viewBox="0 0 24 24" fill="none" xmlns="http://www.w3.org/2000/svg">
<path d="M14 11H12.5469C11.1406 11 10 12.1406 10 13.5469C10 14.2437 10.3219 14.6188 10.6 14.8125C10.8125 14.9594 11 15.1875 11 15.4469C11 15.7531 10.75 16.0031 10.4437 16.0031H10.3656C10.2906 16.0031 10.2156 15.9906 10.1438 15.9594C9.5875 15.7125 7 14.4188 7 11.5C7 9.01562 9.01562 7 11.5 7H14V5.08438C14 4.48438 14.4844 4 15.0844 4C15.3531 4 15.6094 4.1 15.8094 4.27812L20.1281 8.16563C20.3656 8.37813 20.5 8.68125 20.5 9C20.5 9.31875 20.3656 9.62187 20.1281 9.83437L15.7844 13.7437C15.6 13.9094 15.3625 14 15.1156 14H15C14.4469 14 14 13.5531 14 13V11ZM5.5 7C5.225 7 5 7.225 5 7.5V17.5C5 17.775 5.225 18 5.5 18H15.5C15.775 18 16 17.775 16 17.5V16C16 15.4469 16.4469 15 17 15C17.5531 15 18 15.4469 18 16V17.5C18 18.8813 16.8813 20 15.5 20H5.5C4.11875 20 3 18.8813 3 17.5V7.5C3 6.11875 4.11875 5 5.5 5H7C7.55313 5 8 5.44687 8 6C8 6.55313 7.55313 7 7 7H5.5Z" fill="black"/>
</svg>
