<svg width="24" height="24" viewBox="0 0 24 24" fill="none" xmlns="http://www.w3.org/2000/svg">
<path d="M17 5C18.1031 5 19 5.89688 19 7V17C19 18.1031 18.1031 19 17 19H7C5.89688 19 5 18.1031 5 17V7C5 5.89688 5.89688 5 7 5H17ZM10 8.5C9.58437 8.5 9.25 8.83437 9.25 9.25C9.25 9.66563 9.58437 10 10 10H12.9406L8.71875 14.2188C8.425 14.5125 8.425 14.9875 8.71875 15.2781C9.0125 15.5687 9.4875 15.5719 9.77812 15.2781L13.9969 11.0594V14.25C13.9969 14.6656 14.3312 15 14.7469 15C15.1625 15 15.4969 14.6656 15.4969 14.25V9.25C15.4969 8.83437 15.1625 8.5 14.7469 8.5H10Z" fill="black"/>
</svg>
