<svg width="24" height="24" viewBox="0 0 24 24" fill="none" xmlns="http://www.w3.org/2000/svg">
<path d="M12.4187 4.09063C12.2875 4.03125 12.1469 4 12 4C11.8531 4 11.7125 4.03125 11.5812 4.09063L5.69687 6.5875C5.00937 6.87813 4.49687 7.55625 4.5 8.375C4.51562 11.475 5.79062 17.1469 11.175 19.725C11.6969 19.975 12.3031 19.975 12.825 19.725C18.2094 17.1469 19.4844 11.475 19.5 8.375C19.5031 7.55625 18.9906 6.87813 18.3031 6.5875L12.4187 4.09063ZM9.46875 9.46875C9.7625 9.175 10.2375 9.175 10.5281 9.46875L11.9969 10.9375L13.4656 9.46875C13.7594 9.175 14.2344 9.175 14.525 9.46875C14.8156 9.7625 14.8187 10.2375 14.525 10.5281L13.0562 11.9969L14.525 13.4656C14.8187 13.7594 14.8187 14.2344 14.525 14.525C14.2312 14.8156 13.7562 14.8187 13.4656 14.525L11.9969 13.0562L10.5281 14.525C10.2344 14.8187 9.75937 14.8187 9.46875 14.525C9.17812 14.2312 9.175 13.7562 9.46875 13.4656L10.9375 11.9969L9.46875 10.5281C9.175 10.2344 9.175 9.75938 9.46875 9.46875Z" fill="black"/>
</svg>
