<svg width="24" height="24" viewBox="0 0 24 24" fill="none" xmlns="http://www.w3.org/2000/svg">
<path d="M7.1813 4.69375C7.3313 4.29688 7.7438 4.0625 8.16255 4.14063L10.3188 4.54375C11.4313 4.75313 12.5719 4.75313 13.6813 4.54375L15.8375 4.14063C16.2563 4.0625 16.6688 4.29688 16.8188 4.69375L17.7219 7.10625C18.0813 8.06563 18.6 8.95625 19.2563 9.74375L20.6719 11.4406C20.9438 11.7656 20.9438 12.2375 20.6719 12.5625L19.2563 14.2594C18.6 15.0469 18.0813 15.9375 17.7219 16.8969L16.8188 19.3094C16.6688 19.7063 16.2563 19.9406 15.8375 19.8625L13.6813 19.4594C12.5688 19.25 11.4282 19.25 10.3188 19.4594L8.16255 19.8625C7.7438 19.9406 7.3313 19.7063 7.1813 19.3094L6.27817 16.8969C5.91567 15.9375 5.39692 15.0438 4.74067 14.2563L3.32817 12.5594C3.0563 12.2344 3.0563 11.7625 3.32817 11.4375L4.7438 9.74063C5.40005 8.95313 5.9188 8.0625 6.27817 7.10313L7.1813 4.69063V4.69375ZM8.22192 6.9L7.91567 7.71875C7.48755 8.8625 6.8688 9.925 6.08755 10.8625L5.76255 11.25H7.1563C7.89067 10.3875 8.45942 9.4 8.83442 8.33125L8.91255 8.1125L8.22192 6.9ZM9.53755 6.17813L10.2063 7.34688C11.3844 7.64375 12.6188 7.64375 13.7969 7.34688L14.4657 6.17813L14.0063 6.26563C12.6813 6.5125 11.3219 6.5125 9.99692 6.26563L9.53755 6.17813ZM15.7782 6.9L15.0844 8.1125L15.1625 8.33125C15.5407 9.4 16.1094 10.3875 16.8438 11.25H18.2375L17.9157 10.8625C17.1344 9.925 16.5157 8.8625 16.0875 7.71875L15.7813 6.9H15.7782ZM18.2375 12.75H16.8438C16.1063 13.6281 15.5375 14.6375 15.1688 15.7281L15.1032 15.9188L15.7782 17.1031L16.0844 16.2844C16.5125 15.1406 17.1313 14.0781 17.9125 13.1406L18.2375 12.75ZM14.4625 17.8219L13.8532 16.7531C12.6688 16.3875 11.4063 16.3531 10.2063 16.6531L9.54067 17.8219L10 17.7375C11.325 17.4906 12.6844 17.4906 14.0094 17.7375L14.4688 17.8219H14.4625ZM8.22192 17.1L8.91567 15.8875L8.83755 15.6688C8.45942 14.6 7.89067 13.6125 7.15942 12.75H5.76255L6.08442 13.1375C6.86567 14.075 7.48442 15.1375 7.91255 16.2813L8.2188 17.1H8.22192ZM9.03755 12.75C9.35317 13.2188 9.62817 13.7094 9.86567 14.2219L10.7063 12.75H9.03755ZM11.1594 14.9813C11.725 14.9344 12.2938 14.9438 12.8563 15.0125L12 13.5125L11.1594 14.9813ZM14.1438 14.2406C14.3813 13.7219 14.6563 13.225 14.9719 12.75H13.2938L14.1469 14.2406H14.1438ZM14.9625 11.25C14.6469 10.7813 14.3719 10.2906 14.1344 9.77813L13.2938 11.25H14.9625ZM12.8344 9.03125C12.2813 9.08438 11.7219 9.08438 11.1688 9.03125L12 10.4875L12.8344 9.03125ZM9.8688 9.77813C9.6313 10.2906 9.35317 10.7813 9.04067 11.25H10.7094L9.8688 9.77813Z" fill="black"/>
</svg>
