<svg width="24" height="24" viewBox="0 0 24 24" fill="none" xmlns="http://www.w3.org/2000/svg">
<path d="M7 4C7.55312 4 8 4.44687 8 5V6.70937C8.88438 7.09375 9.5 7.975 9.5 9C9.5 10.025 8.88438 10.9062 8 11.2906V19C8 19.5531 7.55312 20 7 20C6.44687 20 6 19.5531 6 19V11.2906C5.11563 10.9062 4.5 10.025 4.5 9C4.5 7.975 5.11563 7.09375 6 6.70937V5C6 4.44687 6.44687 4 7 4ZM7 10C7.26522 10 7.51957 9.89464 7.70711 9.70711C7.89464 9.51957 8 9.26522 8 9C8 8.73478 7.89464 8.48043 7.70711 8.29289C7.51957 8.10536 7.26522 8 7 8C6.73478 8 6.48043 8.10536 6.29289 8.29289C6.10536 8.48043 6 8.73478 6 9C6 9.26522 6.10536 9.51957 6.29289 9.70711C6.48043 9.89464 6.73478 10 7 10ZM12 16C12.2652 16 12.5196 15.8946 12.7071 15.7071C12.8946 15.5196 13 15.2652 13 15C13 14.7348 12.8946 14.4804 12.7071 14.2929C12.5196 14.1054 12.2652 14 12 14C11.7348 14 11.4804 14.1054 11.2929 14.2929C11.1054 14.4804 11 14.7348 11 15C11 15.2652 11.1054 15.5196 11.2929 15.7071C11.4804 15.8946 11.7348 16 12 16ZM14.5 15C14.5 16.025 13.8844 16.9062 13 17.2906V19C13 19.5531 12.5531 20 12 20C11.4469 20 11 19.5531 11 19V17.2906C10.1156 16.9062 9.5 16.025 9.5 15C9.5 13.975 10.1156 13.0938 11 12.7094V5C11 4.44687 11.4469 4 12 4C12.5531 4 13 4.44687 13 5V12.7094C13.8844 13.0938 14.5 13.975 14.5 15ZM18 10C18 9.73478 17.8946 9.48043 17.7071 9.29289C17.5196 9.10536 17.2652 9 17 9C16.7348 9 16.4804 9.10536 16.2929 9.29289C16.1054 9.48043 16 9.73478 16 10C16 10.2652 16.1054 10.5196 16.2929 10.7071C16.4804 10.8946 16.7348 11 17 11C17.2652 11 17.5196 10.8946 17.7071 10.7071C17.8946 10.5196 18 10.2652 18 10ZM18 12.2906V19C18 19.5531 17.5531 20 17 20C16.4469 20 16 19.5531 16 19V12.2906C15.1156 11.9062 14.5 11.025 14.5 10C14.5 8.975 15.1156 8.09375 16 7.70937V5C16 4.44687 16.4469 4 17 4C17.5531 4 18 4.44687 18 5V7.70937C18.8844 8.09375 19.5 8.975 19.5 10C19.5 11.025 18.8844 11.9062 18 12.2906Z" fill="black"/>
</svg>
