<svg width="24" height="24" viewBox="0 0 24 24" fill="none" xmlns="http://www.w3.org/2000/svg">
<path d="M20.1125 7.24375L18.3219 4.40938C18.1625 4.15625 17.8781 4 17.575 4H6.42499C6.12187 4 5.83749 4.15625 5.67812 4.40938L3.88437 7.24375C2.95937 8.70625 3.77812 10.7406 5.50624 10.975C5.63124 10.9906 5.75937 11 5.88437 11C6.69999 11 7.42499 10.6438 7.92187 10.0938C8.41874 10.6438 9.14374 11 9.95937 11C10.775 11 11.5 10.6438 11.9969 10.0938C12.4937 10.6438 13.2187 11 14.0344 11C14.8531 11 15.575 10.6438 16.0719 10.0938C16.5719 10.6438 17.2937 11 18.1094 11C18.2375 11 18.3625 10.9906 18.4875 10.975C20.2219 10.7438 21.0437 8.70938 20.1156 7.24375H20.1125ZM18.6156 11.9656H18.6125C18.4469 11.9875 18.2781 12 18.1062 12C17.7187 12 17.3469 11.9406 17 11.8344V16H6.99999V11.8313C6.64999 11.9406 6.27499 12 5.88749 12C5.71562 12 5.54374 11.9875 5.37812 11.9656H5.37499C5.24687 11.9469 5.12187 11.925 4.99999 11.8938V16V18C4.99999 19.1031 5.89687 20 6.99999 20H17C18.1031 20 19 19.1031 19 18V16V11.8938C18.875 11.925 18.75 11.95 18.6156 11.9656Z" fill="black"/>
</svg>
