<svg width="24" height="24" viewBox="0 0 24 24" fill="none" xmlns="http://www.w3.org/2000/svg">
<path d="M12 15.7625L12.0031 15.7594L12.8281 16.2L15.4906 17.6219L14.975 14.5719L14.825 13.675L15.4719 13.0344L17.6625 10.8688L14.6594 10.425L13.7437 10.2906L13.3406 9.45937L12.0031 6.71563L12 6.725V15.7625ZM17.4719 18.8344C17.5344 19.2094 17.3781 19.5906 17.0687 19.8125C16.7594 20.0344 16.35 20.0625 16.0125 19.8844L12.0031 17.7437L7.99374 19.8844C7.65624 20.0625 7.24687 20.0344 6.93749 19.8125C6.62812 19.5906 6.47187 19.2094 6.53437 18.8344L7.30624 14.2812L4.04999 11.0594C3.78124 10.7937 3.68437 10.3969 3.80312 10.0375C3.92187 9.67812 4.23124 9.41562 4.60624 9.35938L9.09374 8.69688L11.1062 4.5625C11.275 4.21875 11.6219 4 12.0062 4C12.3906 4 12.7375 4.21875 12.9062 4.5625L14.9156 8.69688L19.4031 9.35938C19.7781 9.41562 20.0906 9.67812 20.2062 10.0375C20.3219 10.3969 20.2281 10.7937 19.9594 11.0594L16.7031 14.2812L17.4719 18.8344Z" fill="black"/>
</svg>
