<svg width="24" height="24" viewBox="0 0 24 24" fill="none" xmlns="http://www.w3.org/2000/svg">
<path d="M5 7C5 5.89688 5.89688 5 7 5H17C18.1031 5 19 5.89688 19 7V17C19 18.1031 18.1031 19 17 19H7C5.89688 19 5 18.1031 5 17V7ZM7.36562 9.01875C7.15 9.07813 7 9.275 7 9.5V14.5C7 14.775 7.225 15 7.5 15C7.775 15 8 14.775 8 14.5V11.3063L10.0719 14.7594C10.1875 14.9531 10.4188 15.0437 10.6344 14.9844C10.85 14.925 11 14.7281 11 14.5031V9.5C11 9.225 10.775 9 10.5 9C10.225 9 10 9.225 10 9.5V12.6938L7.92812 9.24375C7.8125 9.05 7.58125 8.95938 7.36562 9.01875ZM12 9.5V11.5V14.5C12 14.775 12.225 15 12.5 15C12.775 15 13 14.775 13 14.5V12H14.5C14.775 12 15 11.775 15 11.5C15 11.225 14.775 11 14.5 11H13V10H14.5C14.775 10 15 9.775 15 9.5C15 9.225 14.775 9 14.5 9H12.5C12.225 9 12 9.225 12 9.5ZM17 9.5C17 9.225 16.775 9 16.5 9C16.225 9 16 9.225 16 9.5V14.5C16 14.775 16.225 15 16.5 15C16.775 15 17 14.775 17 14.5V9.5Z" fill="black"/>
</svg>
