<svg width="24" height="24" viewBox="0 0 24 24" fill="none" xmlns="http://www.w3.org/2000/svg">
<path d="M8.51871 4.0495C8.90621 4.1995 9.09683 4.63075 8.94996 5.01825L7.93433 7.662C7.89996 7.75575 7.92183 7.85887 7.99058 7.92762L9.49996 9.44012V8.9995C9.49996 8.00575 10.0812 7.14637 10.9218 6.74325C11.2062 6.60575 11.5 6.84637 11.5 7.162V7.4995C11.5 7.7745 11.725 7.9995 12 7.9995C12.275 7.9995 12.5 7.7745 12.5 7.4995V7.162C12.5 6.84637 12.7937 6.60887 13.0781 6.74325C13.9187 7.14637 14.5 8.00575 14.5 8.9995V9.44012L16.0093 7.93075C16.0781 7.862 16.1 7.75575 16.0656 7.66512L15.05 5.01825C14.9 4.63075 15.0937 4.19637 15.4812 4.0495C15.8687 3.90262 16.3031 4.09325 16.45 4.48075L17.4656 7.1245C17.7125 7.77137 17.5593 8.50262 17.0687 8.99012L15.275 10.7839L17.7875 9.94637C17.8625 9.92137 17.9218 9.862 17.9468 9.787L18.5375 8.012C18.6687 7.61825 19.0937 7.40575 19.4875 7.537C19.8812 7.66825 20.0937 8.09325 19.9625 8.487L19.3718 10.262C19.1968 10.7839 18.7875 11.1932 18.2656 11.3682L16.3718 11.9995L18.2625 12.6307C18.7843 12.8057 19.1937 13.2151 19.3687 13.737L19.9593 15.512C20.0906 15.9057 19.8781 16.3307 19.4843 16.462C19.0906 16.5932 18.6656 16.3807 18.5343 15.987L17.9437 14.212C17.9187 14.137 17.8593 14.0776 17.7843 14.0526L15.2718 13.2151L17.0656 15.0089C17.5531 15.4964 17.7093 16.2276 17.4625 16.8745L16.4468 19.5182C16.2968 19.9057 15.8656 20.0964 15.4781 19.9495C15.0906 19.8026 14.9 19.3682 15.0468 18.9807L16.0625 16.337C16.0968 16.2432 16.075 16.1401 16.0062 16.0714L15 15.0589C14.9687 16.687 13.6375 17.9995 12 17.9995C10.3625 17.9995 9.03121 16.6901 8.99996 15.0589L7.99058 16.0682C7.92183 16.137 7.89996 16.2432 7.93433 16.3339L8.94996 18.9776C9.09996 19.3651 8.90621 19.7995 8.51871 19.9464C8.13121 20.0932 7.69683 19.9026 7.54996 19.5151L6.53433 16.8745C6.28746 16.2276 6.44058 15.4964 6.93121 15.0089L8.72496 13.2151L6.21246 14.0526C6.13746 14.0776 6.07808 14.137 6.05308 14.212L5.46246 15.987C5.33121 16.3807 4.90621 16.5932 4.51246 16.462C4.11871 16.3307 3.90621 15.9057 4.03746 15.512L4.62808 13.737C4.80308 13.2151 5.21246 12.8057 5.73433 12.6307L7.62808 11.9995L5.73746 11.3682C5.21558 11.1932 4.80621 10.7839 4.63121 10.262L4.03746 8.487C3.90621 8.09325 4.11871 7.66825 4.51246 7.537C4.90621 7.40575 5.33121 7.61825 5.46246 8.012L6.05308 9.787C6.07808 9.862 6.13746 9.92137 6.21246 9.94637L8.72496 10.7839L6.92808 8.99012C6.44058 8.4995 6.28433 7.76825 6.53433 7.1245L7.54996 4.48075C7.69996 4.09325 8.13121 3.90262 8.51871 4.0495ZM10.825 13.5995L11.5 14.4995L10.825 15.3995C10.775 15.4651 10.75 15.5432 10.75 15.6245C10.75 15.8307 10.9187 15.9995 11.125 15.9995H12.875C13.0812 15.9995 13.25 15.8307 13.25 15.6245C13.25 15.5432 13.225 15.4651 13.175 15.3995L12.5 14.4995L13.175 13.5995C13.225 13.5339 13.25 13.4557 13.25 13.3745C13.25 13.1682 13.0812 12.9995 12.875 12.9995H11.125C10.9187 12.9995 10.75 13.1682 10.75 13.3745C10.75 13.4557 10.775 13.5339 10.825 13.5995Z" fill="black"/>
</svg>
