<svg width="24" height="24" viewBox="0 0 24 24" fill="none" xmlns="http://www.w3.org/2000/svg">
<path d="M12 4C11.5844 4 11.25 4.33437 11.25 4.75V6.75C11.25 7.16563 11.5844 7.5 12 7.5C12.4156 7.5 12.75 7.16563 12.75 6.75V4.75C12.75 4.33437 12.4156 4 12 4ZM12 16.5C11.5844 16.5 11.25 16.8344 11.25 17.25V19.25C11.25 19.6656 11.5844 20 12 20C12.4156 20 12.75 19.6656 12.75 19.25V17.25C12.75 16.8344 12.4156 16.5 12 16.5ZM19.25 12.75C19.6656 12.75 20 12.4156 20 12C20 11.5844 19.6656 11.25 19.25 11.25H17.25C16.8344 11.25 16.5 11.5844 16.5 12C16.5 12.4156 16.8344 12.75 17.25 12.75H19.25ZM7.5 12C7.5 11.5844 7.16563 11.25 6.75 11.25H4.75C4.33437 11.25 4 11.5844 4 12C4 12.4156 4.33437 12.75 4.75 12.75H6.75C7.16563 12.75 7.5 12.4156 7.5 12ZM17.6562 7.40313C17.95 7.10938 17.95 6.63438 17.6562 6.34375C17.3625 6.05312 16.8875 6.05 16.5969 6.34375L15.1812 7.75938C14.8875 8.05313 14.8875 8.52812 15.1812 8.81875C15.475 9.10937 15.95 9.1125 16.2406 8.81875L17.6562 7.40313ZM8.81875 15.1812C8.525 14.8875 8.05 14.8875 7.75938 15.1812L6.34375 16.5969C6.05 16.8906 6.05 17.3656 6.34375 17.6562C6.6375 17.9469 7.1125 17.95 7.40313 17.6562L8.81875 16.2406C9.1125 15.9469 9.1125 15.4719 8.81875 15.1812ZM16.5969 17.6562C16.8906 17.95 17.3656 17.95 17.6562 17.6562C17.9469 17.3625 17.95 16.8875 17.6562 16.5969L16.2406 15.1812C15.9469 14.8875 15.4719 14.8875 15.1812 15.1812C14.8906 15.475 14.8875 15.95 15.1812 16.2406L16.5969 17.6562ZM8.81875 8.81875C9.1125 8.525 9.1125 8.05 8.81875 7.75938L7.40313 6.34375C7.10938 6.05 6.63438 6.05 6.34375 6.34375C6.05312 6.6375 6.05 7.1125 6.34375 7.40313L7.75938 8.81875C8.05313 9.1125 8.52812 9.1125 8.81875 8.81875ZM12 15.5C12.9283 15.5 13.8185 15.1313 14.4749 14.4749C15.1313 13.8185 15.5 12.9283 15.5 12C15.5 11.0717 15.1313 10.1815 14.4749 9.52513C13.8185 8.86875 12.9283 8.5 12 8.5C11.0717 8.5 10.1815 8.86875 9.52513 9.52513C8.86875 10.1815 8.5 11.0717 8.5 12C8.5 12.9283 8.86875 13.8185 9.52513 14.4749C10.1815 15.1313 11.0717 15.5 12 15.5Z" fill="black"/>
</svg>
