<svg width="24" height="24" viewBox="0 0 24 24" fill="none" xmlns="http://www.w3.org/2000/svg">
<path d="M7.28125 8.75313L6.5 15H8.30938L9.00313 9.4375C9.0375 9.1625 9.2875 8.96875 9.5625 9.00313C9.8375 9.0375 10.0312 9.2875 9.99687 9.5625L9.31563 15H17.5L16.7188 8.75313C16.5938 7.75 15.7437 7 14.7344 7H9.26562C8.25625 7 7.40625 7.75 7.28125 8.75313ZM6 16C5.44687 16 5 16.4469 5 17V18C5 18.5531 5.44687 19 6 19H18C18.5531 19 19 18.5531 19 18V17C19 16.4469 18.5531 16 18 16H6Z" fill="black"/>
</svg>
