<svg width="24" height="24" viewBox="0 0 24 24" fill="none" xmlns="http://www.w3.org/2000/svg">
<path d="M7 5C5.89688 5 5 5.89688 5 7V17C5 18.1031 5.89688 19 7 19H17C18.1031 19 19 18.1031 19 17V7C19 5.89688 18.1031 5 17 5H7ZM9 12C9 12.394 9.0776 12.7841 9.22836 13.1481C9.37913 13.512 9.6001 13.8427 9.87868 14.1213C10.1573 14.3999 10.488 14.6209 10.8519 14.7716C11.2159 14.9224 11.606 15 12 15C12.394 15 12.7841 14.9224 13.1481 14.7716C13.512 14.6209 13.8427 14.3999 14.1213 14.1213C14.3999 13.8427 14.6209 13.512 14.7716 13.1481C14.9224 12.7841 15 12.394 15 12C15 11.606 14.9224 11.2159 14.7716 10.8519C14.6209 10.488 14.3999 10.1573 14.1213 9.87868C13.8427 9.6001 13.512 9.37913 13.1481 9.22836C12.7841 9.0776 12.394 9 12 9C11.606 9 11.2159 9.0776 10.8519 9.22836C10.488 9.37913 10.1573 9.6001 9.87868 9.87868C9.6001 10.1573 9.37913 10.488 9.22836 10.8519C9.0776 11.2159 9 11.606 9 12ZM12 17C10.6739 17 9.40215 16.4732 8.46447 15.5355C7.52678 14.5979 7 13.3261 7 12C7 10.6739 7.52678 9.40215 8.46447 8.46447C9.40215 7.52678 10.6739 7 12 7C13.3261 7 14.5979 7.52678 15.5355 8.46447C16.4732 9.40215 17 10.6739 17 12C17 13.3261 16.4732 14.5979 15.5355 15.5355C14.5979 16.4732 13.3261 17 12 17Z" fill="black"/>
</svg>
