<svg width="24" height="24" viewBox="0 0 24 24" fill="none" xmlns="http://www.w3.org/2000/svg">
<path d="M16.5 8C16.5 9.3875 15.7063 10.6094 14.5 11.325V12C14.5 12.5531 14.0531 13 13.5 13H10.5C9.94688 13 9.50001 12.5531 9.50001 12V11.325C8.29376 10.6062 7.50001 9.38438 7.50001 8C7.50001 5.79063 9.51563 4 12 4C14.4844 4 16.5 5.79063 16.5 8ZM10.25 9.5C10.5152 9.5 10.7696 9.39464 10.9571 9.20711C11.1447 9.01957 11.25 8.76522 11.25 8.5C11.25 8.23478 11.1447 7.98043 10.9571 7.79289C10.7696 7.60536 10.5152 7.5 10.25 7.5C9.98479 7.5 9.73044 7.60536 9.5429 7.79289C9.35537 7.98043 9.25001 8.23478 9.25001 8.5C9.25001 8.76522 9.35537 9.01957 9.5429 9.20711C9.73044 9.39464 9.98479 9.5 10.25 9.5ZM14.75 8.5C14.75 8.23478 14.6447 7.98043 14.4571 7.79289C14.2696 7.60536 14.0152 7.5 13.75 7.5C13.4848 7.5 13.2304 7.60536 13.0429 7.79289C12.8554 7.98043 12.75 8.23478 12.75 8.5C12.75 8.76522 12.8554 9.01957 13.0429 9.20711C13.2304 9.39464 13.4848 9.5 13.75 9.5C14.0152 9.5 14.2696 9.39464 14.4571 9.20711C14.6447 9.01957 14.75 8.76522 14.75 8.5ZM5.10626 12.5531C5.35313 12.0594 5.95313 11.8594 6.44688 12.1062L12 14.8813L17.5531 12.1062C18.0469 11.8594 18.6469 12.0594 18.8938 12.5531C19.1406 13.0469 18.9406 13.6469 18.4469 13.8938L14.2375 16L18.45 18.1062C18.9438 18.3531 19.1438 18.9531 18.8969 19.4469C18.65 19.9406 18.05 20.1406 17.5563 19.8938L12 17.1187L6.44688 19.8938C5.95313 20.1406 5.35313 19.9406 5.10626 19.4469C4.85938 18.9531 5.05938 18.3531 5.55313 18.1062L9.76251 16L5.55313 13.8938C5.05938 13.6469 4.85938 13.0469 5.10626 12.5531Z" fill="black"/>
</svg>
