<svg width="24" height="24" viewBox="0 0 24 24" fill="none" xmlns="http://www.w3.org/2000/svg">
<path d="M6.99997 14.2937L8.58435 12.7093L11.2906 15.4156L9.70622 17L10.3531 17.6468C10.5468 17.8406 10.5468 18.1593 10.3531 18.3531L9.8531 18.8531C9.70622 19 9.48435 19.0406 9.29685 18.9562L7.35935 18.0968L5.6031 19.8531C5.40935 20.0468 5.0906 20.0468 4.89685 19.8531L4.14685 19.1031C3.9531 18.9093 3.9531 18.5906 4.14685 18.3968L5.9031 16.6406L5.04372 14.7031C4.95935 14.5125 4.99997 14.2937 5.14685 14.1468L5.64685 13.6468C5.8406 13.4531 6.15935 13.4531 6.3531 13.6468L6.99997 14.2937ZM19.1406 7.56872L15.4156 11.2937L12.7093 8.58747L16.4312 4.85935C16.6406 4.64997 16.9062 4.50622 17.1968 4.44997L19.4031 4.00935C19.5656 3.9781 19.7375 4.0281 19.8562 4.14685C19.975 4.2656 20.025 4.43435 19.9937 4.59997L19.55 6.79997C19.4906 7.0906 19.35 7.35622 19.1406 7.5656V7.56872ZM4.14685 4.14685C4.2656 4.0281 4.43435 3.9781 4.59685 4.00935L6.79997 4.44997C7.0906 4.50935 7.35622 4.64997 7.5656 4.85935L16.2937 13.5843L13.5875 16.2906L4.85935 7.56872C4.64997 7.35935 4.50622 7.09372 4.44997 6.8031L4.00935 4.59685C3.9781 4.43435 4.0281 4.2656 4.14685 4.14685ZM18.3531 13.6468L18.8531 14.1468C19 14.2937 19.0406 14.5156 18.9562 14.7031L18.0968 16.6406L19.8531 18.3968C20.0468 18.5906 20.0468 18.9093 19.8531 19.1031L19.1031 19.8531C18.9093 20.0468 18.5906 20.0468 18.3968 19.8531L16.6406 18.0968L14.7031 18.9562C14.5125 19.0406 14.2937 19 14.1468 18.8531L13.6468 18.3531C13.4531 18.1593 13.4531 17.8406 13.6468 17.6468L17.6468 13.6468C17.8406 13.4531 18.1593 13.4531 18.3531 13.6468Z" fill="black"/>
</svg>
