<svg width="24" height="24" viewBox="0 0 24 24" fill="none" xmlns="http://www.w3.org/2000/svg">
<path d="M12.6248 4.00942C12.4592 3.97505 12.2873 4.02817 12.1685 4.15005C12.0498 4.27192 11.9998 4.4438 12.0373 4.60942L12.4467 6.45005C10.1998 7.8938 9.21542 9.6313 8.99042 11.0875L8.5623 10.6563L8.49042 10.5844L7.78417 9.87817C7.59042 9.68442 7.59042 9.36567 7.78417 9.17192L9.54667 7.40942C10.1373 6.8188 10.131 5.86255 9.5373 5.27817L8.37792 4.1438C8.18105 3.95317 7.86855 3.95317 7.6748 4.14692L7.5873 4.23442C6.5248 5.29692 6.54667 6.97505 7.52792 8.01567L7.07792 8.46567C6.49355 9.05005 6.49355 10 7.07792 10.5875L7.78417 11.2938L7.9623 11.4719C8.25292 11.7657 8.25292 12.2375 7.9623 12.5313C7.67167 12.8219 7.1998 12.825 6.90605 12.5375L6.39042 12.0188C5.79355 11.4219 4.82167 11.4344 4.24355 12.0469L4.1373 12.1563C3.94667 12.3563 3.95605 12.6719 4.15605 12.8625C4.35605 13.0532 4.67167 13.0438 4.8623 12.8438L4.96542 12.7344C5.15917 12.5313 5.48417 12.525 5.68105 12.725L6.0123 13.0563L6.01542 13.0625L6.72167 13.7688C7.0373 14.0875 7.00292 14.6094 6.64667 14.8875L6.02167 15.375C5.9123 15.4594 5.78105 15.5063 5.64355 15.5063C5.30292 15.5063 5.02792 15.2313 5.02792 14.8907V14.5C5.02792 14.225 4.80292 14 4.52792 14C4.25292 14 4.02792 14.225 4.02792 14.5V14.8844C4.02792 15.775 4.75292 16.5 5.64355 16.5C6.00292 16.5 6.35292 16.3813 6.6373 16.1594L7.51855 15.475C7.8123 15.2469 8.23105 15.2719 8.49355 15.5344C8.75605 15.7969 8.78417 16.2157 8.55292 16.5094L7.86855 17.3907C7.64667 17.675 7.52792 18.025 7.52792 18.3844C7.52792 19.2782 8.25292 20 9.14355 20H9.52792C9.80292 20 10.0279 19.775 10.0279 19.5C10.0279 19.225 9.80292 19 9.52792 19H9.14355C8.80292 19 8.52792 18.725 8.52792 18.3844C8.52792 18.2469 8.5748 18.1125 8.65917 18.0063L9.14667 17.3813C9.42167 17.025 9.94667 16.9938 10.2654 17.3094L10.2685 17.3125L10.9685 18.0094L10.9717 18.0125L11.281 18.3188C11.4842 18.5219 11.4748 18.8563 11.2592 19.0469L11.1717 19.125C10.9654 19.3094 10.9467 19.625 11.131 19.8313C11.3154 20.0375 11.631 20.0563 11.8373 19.8719L11.9248 19.7938C12.5717 19.2219 12.5998 18.2219 11.9904 17.6125L11.681 17.3032L11.5029 17.125L11.4998 17.1219C11.2092 16.8313 11.2092 16.3594 11.4998 16.0657L11.5029 16.0625L11.506 16.0594C11.7967 15.7719 12.2685 15.7719 12.5592 16.0594L13.4467 16.9469C14.031 17.5313 14.981 17.5313 15.5685 16.9469L16.0123 16.5C17.0529 17.4813 18.731 17.5032 19.7935 16.4407L19.881 16.3532C20.0748 16.1594 20.0779 15.8438 19.8842 15.65L18.7498 14.4907C18.1654 13.8969 17.2092 13.8907 16.6185 14.4813L14.856 16.2407C14.6623 16.4344 14.3435 16.4344 14.1498 16.2407L13.4467 15.5375L13.4435 15.5344L12.9435 15.0344C14.3998 14.8094 16.1373 13.825 17.581 11.5782L19.4217 11.9875C19.5873 12.025 19.7592 11.975 19.881 11.8563C20.0029 11.7375 20.0561 11.5657 20.0217 11.4L19.2904 7.7563C19.5779 6.81255 19.8279 5.7563 20.0217 4.58442C20.0498 4.42505 19.9967 4.26255 19.881 4.15005C19.7654 4.03755 19.606 3.9813 19.4467 4.0063C18.2717 4.20317 17.2185 4.45005 16.2717 4.73755L12.6248 4.00942ZM9.27792 12.75C9.27792 12.6174 9.3306 12.4903 9.42437 12.3965C9.51814 12.3027 9.64532 12.25 9.77792 12.25C9.91053 12.25 10.0377 12.3027 10.1315 12.3965C10.2252 12.4903 10.2779 12.6174 10.2779 12.75C10.2779 12.8827 10.2252 13.0098 10.1315 13.1036C10.0377 13.1974 9.91053 13.25 9.77792 13.25C9.64532 13.25 9.51814 13.1974 9.42437 13.1036C9.3306 13.0098 9.27792 12.8827 9.27792 12.75ZM11.2779 13.75C11.4105 13.75 11.5377 13.8027 11.6315 13.8965C11.7252 13.9903 11.7779 14.1174 11.7779 14.25C11.7779 14.3827 11.7252 14.5098 11.6315 14.6036C11.5377 14.6974 11.4105 14.75 11.2779 14.75C11.1453 14.75 11.0181 14.6974 10.9244 14.6036C10.8306 14.5098 10.7779 14.3827 10.7779 14.25C10.7779 14.1174 10.8306 13.9903 10.9244 13.8965C11.0181 13.8027 11.1453 13.75 11.2779 13.75Z" fill="black"/>
</svg>
