<svg width="24" height="24" viewBox="0 0 24 24" fill="none" xmlns="http://www.w3.org/2000/svg">
<path d="M12.4187 4.09063C12.2875 4.03125 12.1469 4 12 4C11.8531 4 11.7125 4.03125 11.5812 4.09063L5.69687 6.5875C5.00937 6.87813 4.49687 7.55625 4.5 8.375C4.51562 11.475 5.79062 17.1469 11.175 19.725C11.6969 19.975 12.3031 19.975 12.825 19.725C18.2094 17.1469 19.4844 11.475 19.5 8.375C19.5031 7.55625 18.9906 6.87813 18.3031 6.5875L12.4187 4.09063ZM9.75 11.25H14.25C14.6656 11.25 15 11.5844 15 12C15 12.4156 14.6656 12.75 14.25 12.75H9.75C9.33437 12.75 9 12.4156 9 12C9 11.5844 9.33437 11.25 9.75 11.25Z" fill="black"/>
</svg>
