<svg width="24" height="24" viewBox="0 0 24 24" fill="none" xmlns="http://www.w3.org/2000/svg">
<path d="M3.21255 4.15931C2.88755 3.90306 2.41568 3.96243 2.15943 4.28743C1.90318 4.61243 1.96255 5.08431 2.28755 5.34056L20.7876 19.8406C21.1126 20.0968 21.5844 20.0374 21.8407 19.7124C22.0969 19.3874 22.0376 18.9156 21.7126 18.6593L20.7751 17.9249C20.9188 17.6499 21.0001 17.3343 21.0001 16.9999V6.99993C21.0001 5.89681 20.1032 4.99993 19.0001 4.99993H5.00005C4.79068 4.99993 4.59068 5.03118 4.40005 5.09056L3.21255 4.15931ZM14.3063 12.8531L14.2688 12.8249C14.1032 12.6874 14.0001 12.4812 14.0001 12.2499C14.0001 11.8343 14.3344 11.4999 14.7501 11.4999H17.2501C17.6657 11.4999 18.0001 11.8343 18.0001 12.2499C18.0001 12.6656 17.6657 12.9999 17.2501 12.9999H14.7501C14.5844 12.9999 14.4313 12.9468 14.3063 12.8562V12.8531ZM16.4063 14.4999H17.2501C17.6657 14.4999 18.0001 14.8343 18.0001 15.2499C18.0001 15.3999 17.9563 15.5406 17.8813 15.6562L16.4063 14.4999ZM17.2313 18.9999L13.4219 15.9999H11.7501C11.3344 15.9999 11.0001 15.6656 11.0001 15.2499C11.0001 14.9031 11.2344 14.6124 11.5532 14.5249L9.61568 12.9999H6.75005C6.33443 12.9999 6.00005 12.6656 6.00005 12.2499C6.00005 11.8343 6.33443 11.4999 6.75005 11.4999H7.71255L3.00005 7.78743V16.9999C3.00005 18.1031 3.89693 18.9999 5.00005 18.9999H17.2313ZM6.75005 14.4999H9.25005C9.66568 14.4999 10.0001 14.8343 10.0001 15.2499C10.0001 15.6656 9.66568 15.9999 9.25005 15.9999H6.75005C6.33443 15.9999 6.00005 15.6656 6.00005 15.2499C6.00005 14.8343 6.33443 14.4999 6.75005 14.4999Z" fill="black"/>
</svg>
