<svg width="24" height="24" viewBox="0 0 24 24" fill="none" xmlns="http://www.w3.org/2000/svg">
<path d="M9.00016 3.99961C9.55328 3.99961 10.0002 4.44648 10.0002 4.99961V5.94023L10.4689 5.47148C10.7627 5.17773 11.2377 5.17773 11.5283 5.47148C11.8189 5.76523 11.822 6.24023 11.5283 6.53086L9.99703 8.06211V10.259L11.9158 9.14023L12.4689 7.07461C12.5752 6.67461 12.9877 6.43711 13.3877 6.54336C13.7877 6.64961 14.0252 7.06211 13.9189 7.46211L13.7564 8.06523L14.4939 7.63398C14.972 7.35586 15.5845 7.51836 15.8627 7.99336C16.1408 8.46836 15.9814 9.08398 15.5033 9.36211L14.7127 9.82461L15.3908 10.0059C15.7908 10.1121 16.0283 10.5246 15.922 10.9246C15.8158 11.3246 15.4033 11.5621 15.0033 11.4559L12.8877 10.8902L10.9845 11.9996L12.8877 13.109L15.0033 12.5434C15.4033 12.4371 15.8158 12.6746 15.922 13.0746C16.0283 13.4746 15.7908 13.8871 15.3908 13.9934L14.7127 14.1746L15.5033 14.6371C15.9814 14.9152 16.1408 15.5277 15.8627 16.0059C15.5845 16.484 14.972 16.6434 14.4939 16.3652L13.7564 15.934L13.9189 16.5371C14.0252 16.9371 13.7877 17.3496 13.3877 17.4559C12.9877 17.5621 12.5752 17.3246 12.4689 16.9246L11.9158 14.859L10.0002 13.7402V15.9371L11.5314 17.4684C11.8252 17.7621 11.8252 18.2371 11.5314 18.5277C11.2377 18.8184 10.7627 18.8215 10.472 18.5277L10.0033 18.059V18.9996C10.0033 19.5527 9.55641 19.9996 9.00328 19.9996C8.45016 19.9996 8.00328 19.5527 8.00328 18.9996V18.059L7.53453 18.5277C7.24078 18.8215 6.76578 18.8215 6.47516 18.5277C6.18453 18.234 6.18141 17.759 6.47516 17.4684L8.00641 15.9371V13.7402L6.08766 14.859L5.53453 16.9246C5.42828 17.3246 5.01578 17.5621 4.61578 17.4559C4.21578 17.3496 3.97828 16.9371 4.08453 16.5371L4.24703 15.934L3.50328 16.3621C3.02516 16.6402 2.41266 16.4777 2.13453 16.0027C1.85641 15.5277 2.01891 14.9121 2.49391 14.634L3.28453 14.1715L2.60641 13.9902C2.20641 13.884 1.96891 13.4715 2.07516 13.0715C2.18141 12.6715 2.59391 12.434 2.99391 12.5402L5.10953 13.1059L7.01578 11.9996L5.11266 10.8902L2.99703 11.4559C2.59703 11.5621 2.18453 11.3246 2.07828 10.9246C1.97203 10.5246 2.20953 10.1121 2.60953 10.0059L3.28766 9.82461L2.49703 9.36211C2.01891 9.08398 1.85953 8.47148 2.13766 7.99648C2.41578 7.52148 3.02828 7.35898 3.50641 7.63711L4.24391 8.06836L4.08141 7.46523C3.97516 7.06523 4.21266 6.65273 4.61266 6.54648C5.01266 6.44023 5.42516 6.67773 5.53141 7.07773L6.08453 9.14336L8.00016 10.259V8.05898L6.46891 6.53086C6.17516 6.23711 6.17516 5.76211 6.46891 5.47148C6.76266 5.18086 7.23766 5.17773 7.52828 5.47148L7.99703 5.94023V4.99961C7.99703 4.44648 8.44391 3.99961 8.99703 3.99961H9.00016ZM17.2189 4.21836C17.5127 3.92461 17.9877 3.92461 18.2783 4.21836L18.997 4.93711L19.7189 4.21836C20.0127 3.92461 20.4877 3.92461 20.7783 4.21836C21.0689 4.51211 21.072 4.98711 20.7783 5.27773L20.0595 5.99648L20.7783 6.71523C21.072 7.00898 21.072 7.48398 20.7783 7.77461C20.4845 8.06523 20.0095 8.06836 19.7189 7.77461L19.0002 7.05586L18.2814 7.77461C17.9877 8.06836 17.5127 8.06836 17.222 7.77461C16.9314 7.48086 16.9283 7.00586 17.222 6.71523L17.9408 5.99648L17.2189 5.28086C16.9252 4.98711 16.9252 4.51211 17.2189 4.22148V4.21836ZM18.2189 10.2184C18.5127 9.92461 18.9877 9.92461 19.2783 10.2184L19.997 10.9371L20.7158 10.2184C21.0095 9.92461 21.4845 9.92461 21.7752 10.2184C22.0658 10.5121 22.0689 10.9871 21.7752 11.2777L21.0564 11.9965L21.7752 12.7152C22.0689 13.009 22.0689 13.484 21.7752 13.7746C21.4814 14.0652 21.0064 14.0684 20.7158 13.7746L19.997 13.0559L19.2783 13.7746C18.9845 14.0684 18.5095 14.0684 18.2189 13.7746C17.9283 13.4809 17.9252 13.0059 18.2189 12.7152L18.9377 11.9965L18.2189 11.2777C17.9252 10.984 17.9252 10.509 18.2189 10.2184Z" fill="black"/>
</svg>
