<svg width="24" height="24" viewBox="0 0 24 24" fill="none" xmlns="http://www.w3.org/2000/svg">
<path d="M8 6V10H4V6H8ZM4 4C2.89688 4 2 4.89688 2 6V10C2 11.1031 2.89688 12 4 12H8C9.10312 12 10 11.1031 10 10V6C10 4.89688 9.10312 4 8 4H4ZM20 14V18H16V14H20ZM16 12C14.8969 12 14 12.8969 14 14V18C14 19.1031 14.8969 20 16 20H20C21.1031 20 22 19.1031 22 18V14C22 12.8969 21.1031 12 20 12H16ZM7 13V15C7 16.1031 7.89688 17 9 17H13V14C13 12.3438 14.3438 11 16 11H17V9C17 7.89688 16.1031 7 15 7H11V10C11 11.6562 9.65625 13 8 13H7Z" fill="black"/>
</svg>
