<svg width="24" height="24" viewBox="0 0 24 24" fill="none" xmlns="http://www.w3.org/2000/svg">
<path d="M12.4188 4.09063C12.2875 4.03125 12.1469 4 12 4C11.8531 4 11.7125 4.03125 11.5813 4.09063L5.69689 6.5875C5.00939 6.87813 4.49689 7.55625 4.50001 8.375C4.51564 11.475 5.79064 17.1469 11.175 19.725C11.6969 19.975 12.3031 19.975 12.825 19.725C18.2094 17.1469 19.4844 11.475 19.5 8.375C19.5031 7.55625 18.9906 6.87813 18.3031 6.5875L12.4188 4.09063ZM9.46876 9.46875C9.76251 9.175 10.2375 9.175 10.5281 9.46875L11.9969 10.9375L13.4656 9.46875C13.7594 9.175 14.2344 9.175 14.525 9.46875C14.8156 9.7625 14.8188 10.2375 14.525 10.5281L13.0563 11.9969L14.525 13.4656C14.8188 13.7594 14.8188 14.2344 14.525 14.525C14.2313 14.8156 13.7563 14.8187 13.4656 14.525L11.9969 13.0562L10.5281 14.525C10.2344 14.8187 9.75939 14.8187 9.46876 14.525C9.17814 14.2312 9.17501 13.7562 9.46876 13.4656L10.9375 11.9969L9.46876 10.5281C9.17501 10.2344 9.17501 9.75938 9.46876 9.46875Z" fill="black"/>
</svg>
