<svg width="24" height="24" viewBox="0 0 24 24" fill="none" xmlns="http://www.w3.org/2000/svg">
<path d="M10.647 14.6469L9.65635 13.6562C8.59697 12.5969 8.0001 11.1562 8.0001 9.65625C8.0001 6.53125 10.5313 4 13.6563 4H14.0001C16.8157 4 19.1813 5.94063 19.8251 8.55625C19.8813 8.78438 19.7001 9 19.4657 9C19.3438 9 19.2313 8.94063 19.1563 8.84688C18.3407 7.84063 17.1095 7.25 15.8063 7.25C13.4282 7.25 11.5001 9.17813 11.5001 11.5563V11.8625C11.5001 12.5094 11.6626 13.1031 11.8813 13.6938C11.9501 13.8813 11.9095 14.0938 11.7657 14.2344L11.3532 14.6469C11.1595 14.8406 10.8407 14.8406 10.647 14.6469ZM7.78135 13.7188L8.53135 14.4688L9.53135 15.4688L10.2813 16.2188C10.5751 16.5125 10.5751 16.9875 10.2813 17.2781L9.78135 17.7781C9.4876 18.0719 9.0126 18.0719 8.72197 17.7781L8.50322 17.5594L6.28135 19.7812C5.9876 20.075 5.5126 20.075 5.22197 19.7812L4.21885 18.7812C3.9251 18.4875 3.9251 18.0125 4.21885 17.7219L6.4376 15.5031L6.21885 15.2844C5.9251 14.9906 5.9251 14.5156 6.21885 14.225L6.71885 13.725C7.0126 13.4313 7.4876 13.4313 7.77822 13.725L7.78135 13.7188Z" fill="black"/>
</svg>
