<svg width="24" height="24" viewBox="0 0 24 24" fill="none" xmlns="http://www.w3.org/2000/svg">
<path d="M19.1124 7.24375L17.3218 4.40938C17.1624 4.15625 16.8781 4 16.5749 4H5.42493C5.12181 4 4.83743 4.15625 4.67806 4.40938L2.88431 7.24375C1.95931 8.70625 2.77806 10.7406 4.50618 10.975C4.63118 10.9906 4.75931 11 4.88431 11C5.69993 11 6.42493 10.6438 6.92181 10.0938C7.41868 10.6438 8.14368 11 8.95931 11C9.77493 11 10.4999 10.6438 10.9968 10.0938C11.4937 10.6438 12.2187 11 13.0343 11C13.8531 11 14.5749 10.6438 15.0718 10.0938C15.2281 10.2656 15.4031 10.4156 15.5968 10.5437C16.2249 9.6125 17.2906 9 18.4999 9C18.8249 9 19.1406 9.04375 19.4406 9.12813C19.5781 8.50938 19.4874 7.83125 19.1156 7.24375H19.1124ZM5.99993 16V11.8313C5.64993 11.9406 5.27493 12 4.88743 12C4.71556 12 4.54368 11.9875 4.37806 11.9656H4.37493C4.24681 11.9469 4.12181 11.925 3.99993 11.8938V16V18C3.99993 19.1031 4.89681 20 5.99993 20H14.2687C14.0999 19.7063 13.9999 19.3656 13.9999 19V16H5.99993ZM18.4999 11.5C19.0531 11.5 19.4999 11.9469 19.4999 12.5V14H17.4999V12.5C17.4999 11.9469 17.9468 11.5 18.4999 11.5ZM15.9999 12.5V14C15.4468 14 14.9999 14.4469 14.9999 15V19C14.9999 19.5531 15.4468 20 15.9999 20H20.9999C21.5531 20 21.9999 19.5531 21.9999 19V15C21.9999 14.4469 21.5531 14 20.9999 14V12.5C20.9999 11.1188 19.8812 10 18.4999 10C17.1187 10 15.9999 11.1188 15.9999 12.5Z" fill="black"/>
</svg>
