<svg width="24" height="24" viewBox="0 0 24 24" fill="none" xmlns="http://www.w3.org/2000/svg">
<path d="M3.21249 4.15943C2.88749 3.90318 2.41562 3.96255 2.15937 4.28755C1.90312 4.61255 1.96249 5.08443 2.28749 5.34068L20.7875 19.8407C21.1125 20.0969 21.5844 20.0376 21.8406 19.7126C22.0969 19.3876 22.0375 18.9157 21.7125 18.6594L19 16.5344V16.0001V11.8938C18.875 11.9251 18.75 11.9501 18.6156 11.9657H18.6125C18.4469 11.9876 18.2781 12.0001 18.1062 12.0001C17.7187 12.0001 17.3469 11.9407 17 11.8344V14.9657L11.4125 10.5844C11.6312 10.4469 11.8281 10.2813 12 10.0938C12.4969 10.6438 13.2219 11.0001 14.0375 11.0001C14.8562 11.0001 15.5781 10.6438 16.075 10.0938C16.575 10.6438 17.2969 11.0001 18.1125 11.0001C18.2406 11.0001 18.3656 10.9907 18.4906 10.9751C20.225 10.7438 21.0469 8.70943 20.1187 7.2438L18.3219 4.40943C18.1625 4.1563 17.8781 4.00005 17.575 4.00005H6.42499C6.12187 4.00005 5.83749 4.1563 5.67812 4.40943L4.96874 5.53443L3.21249 4.15943ZM18.0906 19.6782L13.4219 16.0001H6.99999V11.8313C6.64999 11.9407 6.27499 12.0001 5.88749 12.0001C5.71562 12.0001 5.54374 11.9876 5.37812 11.9657H5.37499C5.24687 11.9469 5.12187 11.9251 4.99999 11.8938V16.0001V18.0001C4.99999 19.1032 5.89687 20.0001 6.99999 20.0001H17C17.4031 20.0001 17.775 19.8813 18.0906 19.6782ZM6.85312 10.8251L3.52812 8.20318C3.33749 9.47193 4.13749 10.7907 5.50624 10.9751C5.63124 10.9907 5.75937 11.0001 5.88437 11.0001C6.22812 11.0001 6.55312 10.9376 6.85312 10.8251Z" fill="black"/>
</svg>
