<svg width="24" height="24" viewBox="0 0 24 24" fill="none" xmlns="http://www.w3.org/2000/svg">
<path d="M10 4C8.89688 4 8 4.89688 8 6V15C8 16.1031 8.89688 17 10 17H17C18.1031 17 19 16.1031 19 15V8.41563C19 7.88438 18.7906 7.375 18.4156 7L16 4.58438C15.625 4.20938 15.1156 4 14.5844 4H10ZM11.5 8.5V10H10V9.5C10 8.94687 10.4469 8.5 11 8.5H11.5ZM10 11H12H15H17V12.5H15H12H10V11ZM17 10H15.5V8.5H16C16.5531 8.5 17 8.94687 17 9.5V10ZM14.5 8.5V10H12.5V8.5H14.5ZM17 13.5V14C17 14.5531 16.5531 15 16 15H15.5V13.5H17ZM14.5 15H12.5V13.5H14.5V15ZM11.5 15H11C10.4469 15 10 14.5531 10 14V13.5H11.5V15ZM6.5 7.75C6.5 7.33437 6.16563 7 5.75 7C5.33437 7 5 7.33437 5 7.75V15.75C5 18.0969 6.90313 20 9.25 20H16.25C16.6656 20 17 19.6656 17 19.25C17 18.8344 16.6656 18.5 16.25 18.5H9.25C7.73125 18.5 6.5 17.2687 6.5 15.75V7.75Z" fill="black"/>
</svg>
