<svg width="24" height="24" viewBox="0 0 24 24" fill="none" xmlns="http://www.w3.org/2000/svg">
<path d="M4 7C4 6.44687 4.44687 6 5 6H19C19.5531 6 20 6.44687 20 7V8.5C20 9.05313 19.5531 9.5 19 9.5H5C4.44687 9.5 4 9.05313 4 8.5V7ZM13.4969 15.9563C13.8094 16.1375 14.1938 16.1375 14.5031 15.9563L16.6969 14.6781C16.8969 14.5625 17.1219 14.5 17.35 14.5H17.5H19C19.5531 14.5 20 14.9469 20 15.5V17C20 17.5531 19.5531 18 19 18H5C4.44687 18 4 17.5531 4 17V15.5C4 14.9469 4.44687 14.5 5 14.5H10.5H10.65C10.8813 14.5 11.1062 14.5625 11.3031 14.6781L13.4969 15.9563ZM5 13.5C4.44687 13.5 4 13.0531 4 12.5C4 11.9469 4.44687 11.5 5 11.5C5.225 11.5 5.49375 11.3844 6.10625 11.0938C6.625 10.85 7.375 10.5 8.25 10.5C9.20625 10.5 9.90625 10.8187 10.4406 11.0625L10.5 11.0906C11.0375 11.3344 11.4281 11.5 12.0031 11.5C12.5781 11.5 12.9688 11.3344 13.5063 11.0906L13.5656 11.0625C14.0969 10.8187 14.7969 10.5 15.7563 10.5C16.6313 10.5 17.3844 10.8531 17.9 11.0938C18.5125 11.3812 18.7813 11.5 19.0063 11.5C19.5594 11.5 20.0063 11.9469 20.0063 12.5C20.0063 13.0531 19.5594 13.5 19.0063 13.5C18.2969 13.5 17.6219 13.1781 17.1687 12.9625C17.1281 12.9437 17.0875 12.925 17.05 12.9062C16.5063 12.65 16.1313 12.5 15.7563 12.5C15.25 12.5 14.8969 12.6563 14.3375 12.9094H14.3344C13.7719 13.1656 13.0406 13.5 12.0063 13.5C10.9719 13.5 10.2375 13.1656 9.67812 12.9094H9.675C9.10938 12.6563 8.75625 12.5 8.25 12.5C7.875 12.5 7.50312 12.6469 6.95625 12.9062C6.91875 12.925 6.87813 12.9437 6.8375 12.9625C6.38438 13.1781 5.70938 13.5 5 13.5Z" fill="black"/>
</svg>
