<svg width="24" height="24" viewBox="0 0 24 24" fill="none" xmlns="http://www.w3.org/2000/svg">
<path d="M16.2187 4.21873C16.5124 3.92498 16.9874 3.92498 17.2781 4.21873L19.7781 6.71873C20.0718 7.01248 20.0718 7.48748 19.7781 7.7781L18.7968 8.75935C18.3249 9.23123 17.6843 9.49685 17.0156 9.49685C16.5937 9.49685 16.1968 9.39373 15.8468 9.20935L13.2374 11.8187L14.7062 13.2875C15.0593 13.6406 15.0968 14.1968 14.7999 14.5937L11.0499 19.5937C10.8749 19.825 10.6093 19.9719 10.3218 19.9906C10.0343 20.0093 9.74994 19.9062 9.54369 19.7L4.29369 14.45C4.08744 14.2531 3.98119 13.9687 4.00306 13.6781C4.02494 13.3875 4.16869 13.1219 4.39994 12.95L9.39994 9.19998C9.79681 8.89998 10.3562 8.9406 10.7062 9.29373L12.1749 10.7625L14.7843 8.1531C14.5999 7.8031 14.4968 7.40623 14.4968 6.98435C14.4968 6.3156 14.7624 5.67498 15.2343 5.2031L16.2187 4.21873ZM16.7499 5.80935L16.2968 6.26248C16.1062 6.4531 15.9999 6.71248 15.9999 6.98123C15.9999 7.54373 16.4562 7.99998 17.0187 7.99998C17.2874 7.99998 17.5468 7.89373 17.7374 7.7031L18.1906 7.24998L16.7499 5.80935ZM10.3531 12.3531C10.5468 12.1593 10.5468 11.8406 10.3531 11.6469C10.1593 11.4531 9.84056 11.4531 9.64681 11.6469L7.14681 14.1469C6.95306 14.3406 6.95306 14.6593 7.14681 14.8531C7.34056 15.0469 7.65931 15.0469 7.85306 14.8531L10.3531 12.3531ZM12.3531 14.3531C12.5468 14.1593 12.5468 13.8406 12.3531 13.6469C12.1593 13.4531 11.8406 13.4531 11.6468 13.6469L9.14681 16.1469C8.95306 16.3406 8.95306 16.6593 9.14681 16.8531C9.34056 17.0469 9.65931 17.0469 9.85306 16.8531L12.3531 14.3531Z" fill="black"/>
</svg>
