<svg width="24" height="24" viewBox="0 0 24 24" fill="none" xmlns="http://www.w3.org/2000/svg">
<path d="M18.5314 4.21866C18.2658 3.95303 17.8439 3.92491 17.5439 4.15303L14.2939 6.65303C14.1096 6.79366 14.0002 7.01553 14.0002 7.24678V8.93741L11.3252 11.6124C11.5346 11.7437 11.7314 11.903 11.9127 12.0843C12.0939 12.2655 12.2533 12.4655 12.3846 12.6718L15.0596 9.99991H16.7502C16.9846 9.99991 17.2033 9.89053 17.3439 9.70616L19.8439 6.45616C20.0752 6.15616 20.0471 5.73428 19.7783 5.46866L18.5314 4.21866ZM7.79395 12.7937L4.29395 16.2937C3.90332 16.6843 3.90332 17.3187 4.29395 17.7093L6.29395 19.7093C6.68457 20.0999 7.31895 20.0999 7.70957 19.7093L11.2096 16.2093C12.1533 15.2655 12.1533 13.7374 11.2096 12.7937C10.2658 11.8499 8.7377 11.8499 7.79395 12.7937Z" fill="black"/>
</svg>
