<svg width="24" height="24" viewBox="0 0 24 24" fill="none" xmlns="http://www.w3.org/2000/svg">
<path d="M3.21243 4.15937C2.88743 3.90312 2.41556 3.96249 2.15931 4.28749C1.90306 4.61249 1.96243 5.08437 2.28743 5.34062L20.7874 19.8406C21.1124 20.0969 21.5843 20.0375 21.8406 19.7125C22.0968 19.3875 22.0374 18.9156 21.7124 18.6594L18.9999 16.5344V6.99999C18.9999 5.89687 18.1031 4.99999 16.9999 4.99999H6.99993C6.32493 4.99999 5.72806 5.33437 5.36556 5.84687L3.21243 4.15937ZM9.09368 8.77187C9.28118 8.31874 9.72806 7.99999 10.2499 7.99999H12.4999C14.1562 7.99999 15.4999 9.34374 15.4999 11C15.4999 11.8219 15.1687 12.5687 14.6312 13.1094L13.0249 11.85C13.3093 11.675 13.4999 11.3594 13.4999 11C13.4999 10.4469 13.0531 9.99999 12.4999 9.99999H10.9999V10.2625L9.09368 8.76874V8.77187ZM17.2156 18.9906L10.9999 14.0906V15C10.9999 15.5531 10.5531 16 9.99993 16C9.44681 16 8.99993 15.5531 8.99993 15V13V12.5156L4.99993 9.36249V17C4.99993 18.1031 5.89681 19 6.99993 19H16.9999C17.0718 19 17.1437 18.9969 17.2156 18.9875V18.9906Z" fill="black"/>
</svg>
