<svg width="24" height="24" viewBox="0 0 24 24" fill="none" xmlns="http://www.w3.org/2000/svg">
<path d="M10.5 4C9.94688 4 9.5 4.44687 9.5 5C9.5 5.55313 9.94688 6 10.5 6H11V7.075C7.88438 7.55625 5.5 10.25 5.5 13.5C5.5 17.0906 8.40937 20 12 20C15.5906 20 18.5 17.0906 18.5 13.5C18.5 12.1938 18.1156 10.9781 17.4531 9.9625L18.2063 9.20937C18.5969 8.81875 18.5969 8.18437 18.2063 7.79375C17.8156 7.40313 17.1812 7.40313 16.7906 7.79375L16.1156 8.46875C15.2375 7.75 14.1719 7.25625 13 7.075V6H13.5C14.0531 6 14.5 5.55313 14.5 5C14.5 4.44687 14.0531 4 13.5 4H10.5ZM14 10.375C14.8969 10.375 15.625 11.1031 15.625 12V15C15.625 15.8969 14.8969 16.625 14 16.625C13.1031 16.625 12.375 15.8969 12.375 15V12C12.375 11.1031 13.1031 10.375 14 10.375ZM13.625 12V15C13.625 15.2063 13.7937 15.375 14 15.375C14.2063 15.375 14.375 15.2063 14.375 15V12C14.375 11.7937 14.2063 11.625 14 11.625C13.7937 11.625 13.625 11.7937 13.625 12ZM9.98438 11.625C9.81563 11.625 9.66563 11.7344 9.6125 11.8938L9.59375 11.9469C9.48438 12.275 9.13125 12.45 8.80312 12.3406C8.475 12.2312 8.3 11.8781 8.40937 11.55L8.42812 11.4969C8.65312 10.825 9.27813 10.375 9.98438 10.375C10.8906 10.375 11.625 11.1094 11.625 12.0156V12.0844C11.625 12.5031 11.4719 12.9094 11.1937 13.2219L9.975 14.5938C9.78125 14.8125 9.6625 15.0844 9.63438 15.3719H11C11.3438 15.3719 11.625 15.6531 11.625 15.9969C11.625 16.3406 11.3438 16.6219 11 16.6219H9C8.65625 16.6219 8.375 16.3406 8.375 15.9969V15.5094C8.375 14.8656 8.60938 14.2469 9.0375 13.7656L10.2562 12.3938C10.3312 12.3094 10.3719 12.2 10.3719 12.0875V12.0188C10.3719 11.8031 10.1969 11.6281 9.98125 11.6281L9.98438 11.625Z" fill="black"/>
</svg>
