<svg width="24" height="24" viewBox="0 0 24 24" fill="none" xmlns="http://www.w3.org/2000/svg">
<path d="M6.45616 4.15626C6.15928 3.92501 5.73741 3.95313 5.46866 4.21876L4.21866 5.46876C3.95303 5.73438 3.92491 6.15626 4.15303 6.45626L6.65303 9.70626C6.79366 9.89063 7.01553 10 7.24678 10H8.93741L12.3437 13.4063C11.8843 14.3125 12.0312 15.45 12.7905 16.2063L16.2905 19.7063C16.6812 20.0969 17.3155 20.0969 17.7062 19.7063L19.7062 17.7063C20.0968 17.3156 20.0968 16.6813 19.7062 16.2906L16.2062 12.7906C15.4499 12.0344 14.3124 11.8844 13.4062 12.3438L9.99991 8.93751V7.25001C9.99991 7.01563 9.89053 6.79688 9.70616 6.65626L6.45616 4.15626ZM4.62178 16.3781C4.22491 16.775 3.99991 17.3156 3.99991 17.8781C3.99991 19.05 4.94991 20 6.12178 20C6.68428 20 7.22491 19.775 7.62178 19.3781L11.303 15.6969C11.0593 15.0438 11.0218 14.3344 11.1905 13.6625L9.26241 11.7344L4.62178 16.3781ZM19.9999 8.50001C19.9999 8.17188 19.9655 7.85313 19.8999 7.54688C19.8249 7.19688 19.3968 7.10626 19.1437 7.35938L17.1468 9.35626C17.053 9.45001 16.9249 9.50313 16.7937 9.50313H14.9999C14.7249 9.50313 14.4999 9.27813 14.4999 9.00313V7.20626C14.4999 7.07501 14.553 6.94688 14.6468 6.85313L16.6437 4.85626C16.8968 4.60313 16.8062 4.17501 16.4562 4.10001C16.1468 4.03438 15.828 4.00001 15.4999 4.00001C13.0155 4.00001 10.9999 6.01563 10.9999 8.50001V8.52501L13.6655 11.1906C14.7905 10.9063 16.0343 11.2063 16.9155 12.0875L17.4062 12.5781C18.9374 11.8594 19.9999 10.3031 19.9999 8.50001ZM5.74991 17.5C5.74991 17.3011 5.82893 17.1103 5.96958 16.9697C6.11023 16.829 6.301 16.75 6.49991 16.75C6.69882 16.75 6.88959 16.829 7.03024 16.9697C7.17089 17.1103 7.24991 17.3011 7.24991 17.5C7.24991 17.6989 7.17089 17.8897 7.03024 18.0303C6.88959 18.171 6.69882 18.25 6.49991 18.25C6.301 18.25 6.11023 18.171 5.96958 18.0303C5.82893 17.8897 5.74991 17.6989 5.74991 17.5Z" fill="black"/>
</svg>
