<svg width="24" height="24" viewBox="0 0 24 24" fill="none" xmlns="http://www.w3.org/2000/svg">
<path d="M17 8C17 7.44687 16.5531 7 16 7C15.4469 7 15 7.44687 15 8V19C15 19.5531 15.4469 20 16 20C16.5531 20 17 19.5531 17 19V8ZM13 11C13 10.4469 12.5531 10 12 10C11.4469 10 11 10.4469 11 11V19C11 19.5531 11.4469 20 12 20C12.5531 20 13 19.5531 13 19V11ZM8 13C7.44688 13 7 13.4469 7 14V19C7 19.5531 7.44688 20 8 20C8.55312 20 9 19.5531 9 19V14C9 13.4469 8.55312 13 8 13ZM5 17C5 16.4469 4.55313 16 4 16C3.44687 16 3 16.4469 3 17V19C3 19.5531 3.44687 20 4 20C4.55313 20 5 19.5531 5 19V17Z" fill="black"/>
</svg>
