<svg width="24" height="24" viewBox="0 0 24 24" fill="none" xmlns="http://www.w3.org/2000/svg">
<path d="M16.6313 13.6719L15.9719 14.75H17.2937L16.6344 13.6719H16.6313ZM15.6062 12L13.9187 9.25H10.0813L8.39375 12L10.0813 14.75H13.9187L15.6062 12ZM17.6594 12L19.3281 14.7188C19.4406 14.9031 19.5 15.1156 19.5 15.3313C19.5 15.9781 18.975 16.5 18.3313 16.5H14.8969L13.1406 19.3594C12.9 19.7594 12.4656 20 12 20C11.5344 20 11.1 19.7594 10.8562 19.3594L9.10313 16.5H5.66875C5.025 16.5 4.5 15.975 4.5 15.3313C4.5 15.1156 4.55938 14.9031 4.67188 14.7188L6.34063 12L4.67188 9.28125C4.55938 9.09688 4.5 8.88437 4.5 8.66875C4.5 8.025 5.025 7.5 5.66875 7.5H9.10313L10.8594 4.64062C11.1 4.24062 11.5344 4 12 4C12.4656 4 12.9 4.24062 13.1438 4.64062L14.8969 7.5H18.3313C18.9781 7.5 19.5 8.025 19.5 8.66875C19.5 8.88437 19.4406 9.09688 19.3281 9.28125L17.6594 12ZM15.9719 9.25L16.6313 10.3281L17.2937 9.25H15.9719ZM12.8438 7.5L12 6.125L11.1562 7.5H12.8438ZM8.02812 9.25H6.70625L7.36562 10.3281L8.02812 9.25ZM7.36875 13.6719L6.70625 14.75H8.02812L7.36875 13.6719ZM11.1562 16.5L12 17.875L12.8438 16.5H11.1562Z" fill="black"/>
</svg>
