<svg width="24" height="24" viewBox="0 0 24 24" fill="none" xmlns="http://www.w3.org/2000/svg">
<path d="M3.21243 4.15943C2.88743 3.90318 2.41556 3.96255 2.15931 4.28755C1.90306 4.61255 1.96243 5.08443 2.28743 5.34068L20.7874 19.8407C21.1124 20.0969 21.5843 20.0376 21.8406 19.7126C22.0968 19.3876 22.0374 18.9157 21.7124 18.6594L19.5937 17.0001H21.2499C21.6656 17.0001 21.9999 16.6657 21.9999 16.2501C21.9999 15.8344 21.6656 15.5001 21.2499 15.5001H17.6812L15.7687 14.0001H18.9999C19.5531 14.0001 19.9999 13.5532 19.9999 13.0001C19.9999 12.4469 19.5531 12.0001 18.9999 12.0001H16.3874L16.9499 10.3157C17.0687 9.96255 16.9781 9.57193 16.7187 9.30318C16.4593 9.03443 16.0718 8.93443 15.7124 9.04068L11.8874 10.1907C11.9624 9.5438 11.9999 8.89693 11.9999 8.2438V8.00005C11.9999 6.3438 10.6562 5.00005 8.99993 5.00005C7.84368 5.00005 6.84056 5.65318 6.34056 6.61255L3.21243 4.15943ZM8.00306 7.91568C8.04681 7.40318 8.47493 7.00005 8.99993 7.00005C9.55306 7.00005 9.99993 7.44693 9.99993 8.00005V8.2438C9.99993 8.6438 9.98431 9.0438 9.95306 9.44068L8.00306 7.91255V7.91568ZM13.1031 11.9126L14.4406 11.5126L14.0562 12.6626L13.1031 11.9157V11.9126ZM7.13743 11.6157C5.86868 11.9969 4.99993 13.1657 4.99993 14.4907V16.7376C4.99993 17.9876 6.01556 19.0032 7.26556 19.0032C8.07806 19.0032 8.82806 18.5688 9.23118 17.8626L9.66556 17.1032C10.2124 16.1501 10.6624 15.1438 11.0124 14.1063L7.65931 11.4594L7.13743 11.6157ZM9.24368 13.0719C8.91868 14.1282 8.47806 15.1469 7.92806 16.1094L7.49368 16.8688C7.44681 16.9501 7.35931 17.0032 7.26243 17.0032C7.11556 17.0032 6.99681 16.8844 6.99681 16.7376V14.4876C6.99681 14.0469 7.28743 13.6563 7.70931 13.5282L9.24056 13.0688L9.24368 13.0719ZM2.74993 15.5001C2.33431 15.5001 1.99993 15.8344 1.99993 16.2501C1.99993 16.6657 2.33431 17.0001 2.74993 17.0001H4.00931C4.00306 16.9126 3.99993 16.8251 3.99993 16.7344V15.5001H2.74993Z" fill="black"/>
</svg>
