<svg width="24" height="24" viewBox="0 0 24 24" fill="none" xmlns="http://www.w3.org/2000/svg">
<path d="M19.9937 4.58108C20.0187 4.4217 19.9687 4.2592 19.853 4.1467C19.7374 4.0342 19.578 3.98108 19.4187 4.00608L17.0499 4.39983C16.5374 4.4842 16.0624 4.73108 15.6937 5.0967L9.20615 11.5842L12.4155 14.7936L18.8999 8.30608C19.2687 7.93733 19.5124 7.46233 19.5968 6.94983L19.9905 4.58108H19.9937ZM6.64678 11.1467L6.14678 11.6467C5.97803 11.8155 5.95303 12.078 6.08428 12.278L7.74365 14.7655C7.80928 14.8655 7.79678 14.9967 7.7124 15.0811L6.4749 16.3186C6.40928 16.3842 6.30928 16.4092 6.21865 16.378L5.15928 16.0248C4.98115 15.9655 4.78115 16.0123 4.64678 16.1467L4.14678 16.6467C3.95303 16.8405 3.95303 17.1592 4.14678 17.353L6.64678 19.853C6.84053 20.0467 7.15928 20.0467 7.35303 19.853L7.85303 19.353C7.9874 19.2186 8.03428 19.0217 7.9749 18.8405L7.62178 17.7811C7.59053 17.6905 7.61553 17.5936 7.68115 17.5248L8.91865 16.2873C9.00303 16.203 9.13428 16.1905 9.23428 16.2561L11.7218 17.9155C11.9187 18.0467 12.1843 18.0217 12.353 17.853L12.853 17.353C13.0468 17.1592 13.0468 16.8405 12.853 16.6467L7.35303 11.1467C7.15928 10.953 6.84053 10.953 6.64678 11.1467Z" fill="black"/>
</svg>
