<svg width="24" height="24" viewBox="0 0 24 24" fill="none" xmlns="http://www.w3.org/2000/svg">
<path d="M7.53437 17H16.4656C16.2219 15.3031 14.7656 14 13 14H11C9.2375 14 7.77812 15.3031 7.53437 17ZM5 7C5 5.89688 5.89688 5 7 5H17C18.1031 5 19 5.89688 19 7V17C19 18.1031 18.1031 19 17 19H7C5.89688 19 5 18.1031 5 17V7ZM12 12.5C12.5967 12.5 13.169 12.2629 13.591 11.841C14.0129 11.419 14.25 10.8467 14.25 10.25C14.25 9.65326 14.0129 9.08097 13.591 8.65901C13.169 8.23705 12.5967 8 12 8C11.4033 8 10.831 8.23705 10.409 8.65901C9.98705 9.08097 9.75 9.65326 9.75 10.25C9.75 10.8467 9.98705 11.419 10.409 11.841C10.831 12.2629 11.4033 12.5 12 12.5Z" fill="black"/>
</svg>
