<svg width="24" height="24" viewBox="0 0 24 24" fill="none" xmlns="http://www.w3.org/2000/svg">
<path d="M11 4.49998C11 4.28123 11.1406 4.08748 11.35 4.02186C11.5593 3.95623 11.7843 4.03436 11.9093 4.21248L18.9093 14.2125C19.0156 14.3656 19.0281 14.5656 18.9437 14.7312C18.8593 14.8969 18.6875 15 18.5 15H11.5C11.225 15 11 14.775 11 14.5V4.49998ZM9.62808 7.01561C9.84683 7.07498 9.99995 7.27186 9.99995 7.49998V14.5C9.99995 14.775 9.77495 15 9.49995 15H5.49995C5.32183 15 5.1562 14.9062 5.0687 14.75C4.9812 14.5937 4.97808 14.4062 5.06558 14.25L9.06558 7.24998C9.17808 7.05311 9.40933 6.95623 9.62808 7.01561ZM3.17808 16.6344C3.08745 16.3156 3.32808 16 3.65933 16H20.3406C20.6718 16 20.9125 16.3156 20.8218 16.6344L20.6968 17.0812C20.2093 18.8094 18.6375 20 16.8437 20H7.1562C5.36245 20 3.79058 18.8094 3.30308 17.0844L3.17808 16.6375V16.6344Z" fill="black"/>
</svg>
