<svg width="24" height="24" viewBox="0 0 24 24" fill="none" xmlns="http://www.w3.org/2000/svg">
<path d="M10.9406 4.55938C11.525 3.975 12.475 3.975 13.0625 4.55938L14.5 6H16.5C17.3281 6 18 6.67188 18 7.5V9.5L19.425 10.925C20.0094 11.5094 20.0094 12.4594 19.425 13.0469L18 14.4719V16.5C18 17.3281 17.3281 18 16.5 18H14.4719L13.0625 19.4094C12.4781 19.9938 11.5281 19.9938 10.9406 19.4094L9.52812 18H7.5C6.67188 18 6 17.3281 6 16.5V14.4719L4.575 13.0469C3.99062 12.4625 3.99062 11.5125 4.575 10.925L6 9.5V7.5C6 6.67188 6.67188 6 7.5 6H9.5L10.9406 4.55938ZM9.30625 9.16563L9.29375 9.20312C9.15625 9.59375 9.35938 10.0219 9.75 10.1594C10.1406 10.2969 10.5688 10.0938 10.7063 9.70312L10.7188 9.66563C10.7531 9.56563 10.85 9.5 10.9531 9.5H12.775C13.0375 9.5 13.2469 9.7125 13.2469 9.97188C13.2469 10.1406 13.1562 10.2969 13.0094 10.3812L11.625 11.175C11.3906 11.3094 11.2469 11.5562 11.2469 11.825V12.2469C11.2469 12.6625 11.5812 12.9969 11.9969 12.9969C12.4062 12.9969 12.7406 12.6687 12.7469 12.2594L13.7563 11.6813C14.3688 11.3281 14.7469 10.675 14.7469 9.96875C14.7469 8.87813 13.8625 7.99688 12.775 7.99688H10.9531C10.2125 7.99688 9.55312 8.4625 9.30312 9.1625L9.30625 9.16563ZM13 15C13 14.7348 12.8946 14.4804 12.7071 14.2929C12.5196 14.1054 12.2652 14 12 14C11.7348 14 11.4804 14.1054 11.2929 14.2929C11.1054 14.4804 11 14.7348 11 15C11 15.2652 11.1054 15.5196 11.2929 15.7071C11.4804 15.8946 11.7348 16 12 16C12.2652 16 12.5196 15.8946 12.7071 15.7071C12.8946 15.5196 13 15.2652 13 15Z" fill="black"/>
</svg>
