<svg width="24" height="24" viewBox="0 0 24 24" fill="none" xmlns="http://www.w3.org/2000/svg">
<path d="M11.2814 4.21885C10.9877 3.9251 10.5127 3.9251 10.222 4.21885L7.22205 7.21885C6.9283 7.5126 6.9283 7.9876 7.22205 8.27822L10.0158 11.072L9.53142 11.5563C8.75955 11.2001 7.9033 11.0001 7.00017 11.0001C6.00955 11.0001 5.0783 11.2407 4.25642 11.6626C3.97517 11.8095 3.93455 12.1845 4.15955 12.4063L7.52205 15.772L7.00955 16.2845C6.9283 16.2626 6.8408 16.2501 6.75017 16.2501C6.19705 16.2501 5.75017 16.697 5.75017 17.2501C5.75017 17.8032 6.19705 18.2501 6.75017 18.2501C7.3033 18.2501 7.75017 17.8032 7.75017 17.2501C7.75017 17.1595 7.73767 17.0751 7.7158 16.9907L8.2283 16.4782L11.5908 19.8407C11.8158 20.0657 12.1908 20.0251 12.3345 19.7438C12.7595 18.922 13.0002 17.9907 13.0002 17.0001C13.0002 16.097 12.8002 15.2407 12.4439 14.472L12.9283 13.9876L15.7189 16.7813C16.0127 17.0751 16.4877 17.0751 16.7783 16.7813L19.7783 13.7813C20.072 13.4876 20.072 13.0126 19.7783 12.722L16.9845 9.92822L18.7033 8.20947C19.0939 7.81885 19.0939 7.18447 18.7033 6.79385L17.2033 5.29385C16.8127 4.90322 16.1783 4.90322 15.7877 5.29385L14.0689 7.0126L11.2814 4.21885ZM16.2502 15.1876L13.9877 12.9251L15.9283 10.9845L18.1908 13.2501L16.2502 15.1907V15.1876ZM11.072 10.0126L8.80955 7.7501L10.7502 5.80947L13.0127 8.07197L11.072 10.0126Z" fill="black"/>
</svg>
