<svg width="24" height="24" viewBox="0 0 24 24" fill="none" xmlns="http://www.w3.org/2000/svg">
<path d="M19 4.99952C19 4.65265 18.8219 4.33077 18.525 4.14952C18.2281 3.96827 17.8625 3.94952 17.5531 4.10577L16.5531 4.60577C16.0594 4.85265 15.8594 5.45265 16.1062 5.9464C16.2812 6.2964 16.6344 6.49952 17 6.49952V8.99952C16.4469 8.99952 16 9.4464 16 9.99952C16 10.5526 16.4469 10.9995 17 10.9995H18H19C19.5531 10.9995 20 10.5526 20 9.99952C20 9.4464 19.5531 8.99952 19 8.99952V4.99952ZM5 5.99952C4.44687 5.99952 4 6.4464 4 6.99952C4 7.55265 4.44687 7.99952 5 7.99952H5.47812L8.27812 11.9995L5.47812 15.9995H5C4.44687 15.9995 4 16.4464 4 16.9995C4 17.5526 4.44687 17.9995 5 17.9995H6C6.325 17.9995 6.63125 17.8401 6.81875 17.5745L9.5 13.7433L12.1812 17.5745C12.3687 17.8433 12.675 17.9995 13 17.9995H14C14.5531 17.9995 15 17.5526 15 16.9995C15 16.4464 14.5531 15.9995 14 15.9995H13.5219L10.7219 11.9995L13.5219 7.99952H14C14.5531 7.99952 15 7.55265 15 6.99952C15 6.4464 14.5531 5.99952 14 5.99952H13C12.675 5.99952 12.3687 6.1589 12.1812 6.42452L9.5 10.2558L6.81875 6.42452C6.63125 6.1589 6.325 5.99952 6 5.99952H5Z" fill="black"/>
</svg>
