<svg width="24" height="24" viewBox="0 0 24 24" fill="none" xmlns="http://www.w3.org/2000/svg">
<path d="M3 7C3 5.89688 3.89688 5 5 5H19C20.1031 5 21 5.89688 21 7V17C21 18.1031 20.1031 19 19 19H5C3.89688 19 3 18.1031 3 17V7ZM12.5 9.75V14.25C12.5 14.6656 12.8344 15 13.25 15H15C16.6562 15 18 13.6562 18 12C18 10.3438 16.6562 9 15 9H13.25C12.8344 9 12.5 9.33437 12.5 9.75ZM14 10.5H15C15.8281 10.5 16.5 11.1719 16.5 12C16.5 12.8281 15.8281 13.5 15 13.5H14V10.5ZM8.22188 10.5031C8.45312 10.4281 8.83125 10.4125 9.35313 10.4812C9.5125 10.5031 10.0125 10.5875 10.1562 10.6188C10.5344 10.7063 10.9094 10.4688 10.9938 10.0906C11.0781 9.7125 10.8438 9.3375 10.4656 9.25313C10.2625 9.20625 9.71875 9.11562 9.5375 9.09375C8.94688 9.01562 8.32188 8.99688 7.7875 9.17188C7.2 9.3625 6.72812 9.7875 6.58437 10.4938C6.58125 10.5062 6.58125 10.5188 6.57812 10.5312C6.525 10.8875 6.57188 11.2313 6.73438 11.5406C6.89375 11.8406 7.1375 12.0437 7.375 12.1875C7.80312 12.4437 8.35938 12.5719 8.78438 12.6719L8.8375 12.6844C9.3375 12.8 9.68437 12.8875 9.90312 13.0188C9.99687 13.075 10.0219 13.1125 10.025 13.1219C10.0281 13.125 10.0469 13.1594 10.0312 13.2688C10.0188 13.3531 9.99375 13.3875 9.97813 13.4031C9.95625 13.425 9.90625 13.4656 9.79688 13.5C9.55625 13.575 9.16875 13.5906 8.64375 13.5188C8.4125 13.4875 8.00938 13.3688 7.6625 13.2688C7.58437 13.2469 7.50625 13.225 7.4375 13.2031C7.06563 13.0969 6.67813 13.3125 6.57188 13.6844C6.46563 14.0562 6.68125 14.4438 7.05312 14.55C7.1 14.5625 7.15625 14.5781 7.21875 14.5969C7.55625 14.6969 8.10625 14.8562 8.45 14.9062H8.45312C9.04375 14.9844 9.67812 15.0031 10.2156 14.8344C10.4937 14.7469 10.7719 14.6 10.9938 14.3594C11.2219 14.1156 11.3625 13.8094 11.4125 13.4688C11.4656 13.1125 11.4188 12.7688 11.2563 12.4594C11.0969 12.1594 10.8531 11.9563 10.6156 11.8125C10.1875 11.5563 9.63125 11.4281 9.20625 11.3281L9.15312 11.3156C8.65312 11.2 8.30625 11.1125 8.0875 10.9812C7.99375 10.925 7.96875 10.8875 7.96562 10.8781C7.9625 10.875 7.94688 10.8438 7.95625 10.75C7.98438 10.625 8.04375 10.5563 8.21562 10.5L8.22188 10.5031Z" fill="black"/>
</svg>
