<svg width="24" height="24" viewBox="0 0 24 24" fill="none" xmlns="http://www.w3.org/2000/svg">
<path d="M15.2968 4.03756C15.4531 4.10318 15.5656 4.24381 15.5968 4.40943L16.2187 7.78131L19.5906 8.40006C19.7562 8.43131 19.8968 8.54381 19.9624 8.70006C20.0281 8.85631 20.0093 9.03443 19.9124 9.17506L17.9656 12.0001L19.9124 14.8219C20.0093 14.9626 20.0281 15.1407 19.9624 15.2969C19.8968 15.4532 19.7562 15.5657 19.5906 15.5969L16.2187 16.2188L15.5968 19.5907C15.5656 19.7563 15.4531 19.8969 15.2968 19.9626C15.1406 20.0282 14.9624 20.0094 14.8218 19.9126L11.9999 17.9657L9.17806 19.9126C9.03744 20.0094 8.85931 20.0282 8.70306 19.9626C8.54681 19.8969 8.43431 19.7563 8.40306 19.5907L7.78119 16.2188L4.40931 15.5969C4.24369 15.5657 4.10306 15.4532 4.03744 15.2969C3.97181 15.1407 3.99056 14.9626 4.08744 14.8219L6.03431 12.0001L4.08744 9.17818C3.99056 9.03756 3.97181 8.85943 4.03744 8.70318C4.10306 8.54693 4.24369 8.43443 4.40931 8.40318L7.78119 7.78131L8.40306 4.40943C8.43431 4.24381 8.54681 4.10318 8.70306 4.03756C8.85931 3.97193 9.03744 3.99068 9.17806 4.08756L11.9999 6.03443L14.8218 4.08756C14.9624 3.99068 15.1406 3.97193 15.2968 4.03756ZM8.99994 12.0001C8.99994 11.2044 9.31601 10.4413 9.87862 9.87874C10.4412 9.31613 11.2043 9.00006 11.9999 9.00006C12.7956 9.00006 13.5586 9.31613 14.1213 9.87874C14.6839 10.4413 14.9999 11.2044 14.9999 12.0001C14.9999 12.7957 14.6839 13.5588 14.1213 14.1214C13.5586 14.684 12.7956 15.0001 11.9999 15.0001C11.2043 15.0001 10.4412 14.684 9.87862 14.1214C9.31601 13.5588 8.99994 12.7957 8.99994 12.0001ZM15.9999 12.0001C15.9999 10.9392 15.5785 9.92178 14.8284 9.17163C14.0782 8.42149 13.0608 8.00006 11.9999 8.00006C10.9391 8.00006 9.92165 8.42149 9.17151 9.17163C8.42136 9.92178 7.99994 10.9392 7.99994 12.0001C7.99994 13.0609 8.42136 14.0783 9.17151 14.8285C9.92165 15.5786 10.9391 16.0001 11.9999 16.0001C13.0608 16.0001 14.0782 15.5786 14.8284 14.8285C15.5785 14.0783 15.9999 13.0609 15.9999 12.0001Z" fill="black"/>
</svg>
