<svg width="24" height="24" viewBox="0 0 24 24" fill="none" xmlns="http://www.w3.org/2000/svg">
<path d="M17.9906 14L15.6844 13.2344L18.8219 7.925C19.5969 8.75938 20.1375 9.82187 20.3375 11.0125L20.7281 13.3625C20.8531 14.1062 20.1406 14.7125 19.425 14.475L19.2062 14.4031L17.9906 14ZM15.2969 6.06562C16.325 6.21562 17.2719 6.62812 18.0687 7.2375L14.7125 12.9125L13.0969 12.375C12.6406 12.2219 12.1625 12.1562 11.6844 12.175L15.2969 6.06562ZM14.1719 6L10.3625 12.45L6.0031 13.9594L10.7062 6H14.1719ZM3.6656 11.0125C4.14373 8.13125 6.6281 6.01875 9.54685 6L4.54373 14.4625C3.84373 14.6719 3.15623 14.0719 3.2781 13.3406L3.6656 11.0156V11.0125ZM3.99998 16V15.5312C4.2656 15.5531 4.54685 15.5219 4.82498 15.425L10.8562 13.3344C11.4812 13.1188 12.1562 13.1125 12.7844 13.3219L19.2062 15.4531C19.475 15.5437 19.7437 15.5719 20.0031 15.55V16C20.0031 17.1031 19.1062 18 18.0031 18C17.4062 18 16.8687 17.7375 16.5031 17.3219C16.1375 17.7375 15.6 18 15.0031 18C14.4062 18 13.8687 17.7375 13.5031 17.3219C13.1375 17.7375 12.6 18 12.0031 18C11.4062 18 10.8687 17.7375 10.5031 17.3219C10.1375 17.7375 9.59998 18 9.0031 18C8.40623 18 7.86873 17.7375 7.5031 17.3219C7.13435 17.7375 6.59685 18 5.99998 18C4.89685 18 3.99998 17.1031 3.99998 16Z" fill="black"/>
</svg>
