<svg width="24" height="24" viewBox="0 0 24 24" fill="none" xmlns="http://www.w3.org/2000/svg">
<path d="M8 4H13.5844C14.1156 4 14.625 4.20938 15 4.58438L17.4156 7C17.7906 7.375 18 7.88438 18 8.41563V18C18 19.1031 17.1031 20 16 20H8C6.89688 20 6 19.1031 6 18V6C6 4.89688 6.89688 4 8 4ZM9 10C8.44688 10 8 10.4469 8 11V12H10V10H9ZM8 15H10.5H13.5H16V13H13.5H10.5H8V15ZM16 11C16 10.4469 15.5531 10 15 10H14V12H16V11ZM11 10V12H13V10H11ZM15 18C15.5531 18 16 17.5531 16 17V16H14V18H15ZM11 16V18H13V16H11ZM8 17C8 17.5531 8.44688 18 9 18H10V16H8V17Z" fill="black"/>
</svg>
