<svg width="24" height="24" viewBox="0 0 24 24" fill="none" xmlns="http://www.w3.org/2000/svg">
<path d="M6.75312 5.30623C7.0625 5.02811 7.0875 4.55623 6.80938 4.24686C6.53125 3.93748 6.05625 3.91561 5.74688 4.19373L3.24688 6.44373C3.09063 6.58436 3 6.78748 3 6.99998C3 7.21248 3.09063 7.41561 3.24688 7.55623L5.74688 9.80623C6.05625 10.0844 6.52813 10.0594 6.80625 9.74998C7.08437 9.44061 7.05937 8.96873 6.75 8.69061L5.70312 7.74998H17.25C18.4937 7.74998 19.5 8.75623 19.5 9.99998V11.25C19.5 11.6656 19.8344 12 20.25 12C20.6656 12 21 11.6656 21 11.25V9.99998C21 7.92811 19.3219 6.24998 17.25 6.24998H5.70312L6.75 5.30623H6.75312ZM12.6062 9.20311C12.2469 8.93123 11.7531 8.93123 11.3938 9.20311L6.14375 13.2031C5.9375 13.3594 5.8 13.5937 5.75938 13.85L5.00938 18.85C4.96563 19.1375 5.05 19.4312 5.24062 19.65C5.43125 19.8687 5.70937 20 6 20H10.5H11C11.5531 20 12 19.5531 12 19V15.3094C12 15.1375 12.1375 15 12.3094 15C12.425 15 12.5344 15.0656 12.5844 15.1719L14.7219 19.4469C14.8906 19.7844 15.2375 20 15.6156 20H17.5H18C18.2906 20 18.5688 19.8719 18.7563 19.6531C18.9438 19.4344 19.0312 19.1406 18.9875 18.8531L18.2375 13.8531C18.2 13.5969 18.0625 13.3625 17.8531 13.2062L12.6031 9.20623L12.6062 9.20311Z" fill="black"/>
</svg>
