<svg width="24" height="24" viewBox="0 0 24 24" fill="none" xmlns="http://www.w3.org/2000/svg">
<path d="M5 6C5 4.89688 5.89688 4 7 4H10.3219C11.1406 4 11.875 4.49688 12.1781 5.25625L13.6781 9H17V7.94375C17 7.16875 17.1812 6.40312 17.5281 5.70625L17.6062 5.55C17.8531 5.05625 18.4531 4.85625 18.9469 5.10312C19.4406 5.35 19.6406 5.95 19.3937 6.44375L19.3156 6.6C19.1062 7.01562 19 7.475 19 7.94062V9H20.75C21.4406 9 22 9.55937 22 10.25V11.6687C22 12.1844 21.7344 12.6656 21.2938 12.9406L19.9406 13.7875C19.4969 13.6031 19.0094 13.5 18.5 13.5C17.2719 13.5 16.1844 14.0906 15.5 15H13C13 15.5531 12.5531 16 12 16H11.7437C11.6906 16.15 11.6281 16.2969 11.5625 16.4406L11.7437 16.6219C12.1344 17.0125 12.1344 17.6469 11.7437 18.0375L11.0375 18.7437C10.6469 19.1344 10.0125 19.1344 9.62187 18.7437L9.44063 18.5625C9.29688 18.6313 9.15 18.6906 9 18.7437V19C9 19.5531 8.55313 20 8 20H7C6.44687 20 6 19.5531 6 19V18.7437C5.85 18.6906 5.70313 18.6281 5.55938 18.5625L5.37812 18.7437C4.9875 19.1344 4.35312 19.1344 3.9625 18.7437L3.25625 18.0344C2.86563 17.6438 2.86563 17.0094 3.25625 16.6187L3.4375 16.4375C3.36875 16.2938 3.30938 16.1469 3.25625 15.9969H3C2.44687 15.9969 2 15.55 2 14.9969V14C2 13.4469 2.44687 13 3 13H3.25625C3.30938 12.85 3.37188 12.7031 3.4375 12.5594L3.25625 12.3781C2.86563 11.9875 2.86563 11.3531 3.25625 10.9625L3.9625 10.2562C4.24375 9.975 4.64688 9.89688 4.99688 10.0188V10V9V6H5ZM10.3219 6H7V9H8H11.5219L10.3219 6ZM7.5 12C6.83696 12 6.20107 12.2634 5.73223 12.7322C5.26339 13.2011 5 13.837 5 14.5C5 15.163 5.26339 15.7989 5.73223 16.2678C6.20107 16.7366 6.83696 17 7.5 17C8.16304 17 8.79893 16.7366 9.26777 16.2678C9.73661 15.7989 10 15.163 10 14.5C10 13.837 9.73661 13.2011 9.26777 12.7322C8.79893 12.2634 8.16304 12 7.5 12ZM18.5 18C18.6989 18 18.8897 17.921 19.0303 17.7803C19.171 17.6397 19.25 17.4489 19.25 17.25C19.25 17.0511 19.171 16.8603 19.0303 16.7197C18.8897 16.579 18.6989 16.5 18.5 16.5C18.3011 16.5 18.1103 16.579 17.9697 16.7197C17.829 16.8603 17.75 17.0511 17.75 17.25C17.75 17.4489 17.829 17.6397 17.9697 17.7803C18.1103 17.921 18.3011 18 18.5 18ZM18.5 20C16.9813 20 15.75 18.7687 15.75 17.25C15.75 16.3188 16.2125 15.4969 16.9187 15C17.3656 14.6844 17.9125 14.5 18.5 14.5C18.5844 14.5 18.6656 14.5031 18.7469 14.5094C20.15 14.6344 21.25 15.8125 21.25 17.25C21.25 18.7687 20.0187 20 18.5 20Z" fill="black"/>
</svg>
