<svg width="24" height="24" viewBox="0 0 24 24" fill="none" xmlns="http://www.w3.org/2000/svg">
<path d="M15.8812 4C14.4124 5.55 13.9999 7.95312 13.9999 10C13.9999 14.9625 13.1468 17.7188 12.6656 18.8719C12.3531 19.6219 11.6281 20 10.9343 20H3.49994C3.14057 20 2.80619 19.8062 2.63119 19.4937C2.45619 19.1812 2.45619 18.7969 2.64369 18.4875C2.94994 17.9344 3.12494 17.2937 3.28432 16.6844C3.63432 15.3375 3.99994 13.1719 3.99994 10C3.99994 6.6875 5.34369 4 6.99994 4H15.8812ZM17.9999 16C16.3437 16 14.9999 13.3125 14.9999 10C14.9999 6.6875 16.3437 4 17.9999 4C19.6562 4 20.9999 6.6875 20.9999 10C20.9999 13.3125 19.6562 16 17.9999 16ZM17.9999 12C18.5531 12 18.9999 11.1031 18.9999 10C18.9999 8.89687 18.5531 8 17.9999 8C17.4468 8 16.9999 8.89687 16.9999 10C16.9999 11.1031 17.4468 12 17.9999 12ZM11.1031 9.85313C11.2968 9.65938 11.2968 9.34062 11.1031 9.14687C10.9093 8.95312 10.5906 8.95312 10.3968 9.14687L8.49994 11.0437L7.60307 10.1469C7.40932 9.95312 7.09057 9.95312 6.89682 10.1469C6.70307 10.3406 6.70307 10.6594 6.89682 10.8531L8.14682 12.1031C8.34057 12.2969 8.65932 12.2969 8.85307 12.1031L11.1031 9.85313Z" fill="black"/>
</svg>
