<svg width="24" height="24" viewBox="0 0 24 24" fill="none" xmlns="http://www.w3.org/2000/svg">
<path d="M5 8V7H7V17H6C5.44688 17 5 17.4469 5 18C5 18.5531 5.44688 19 6 19H10C10.5531 19 11 18.5531 11 18C11 17.4469 10.5531 17 10 17H9V7H11V8C11 8.55312 11.4469 9 12 9C12.5531 9 13 8.55312 13 8V6.5C13 5.67188 12.3281 5 11.5 5H8H4.5C3.67188 5 3 5.67188 3 6.5V8C3 8.55312 3.44687 9 4 9C4.55313 9 5 8.55312 5 8ZM18.7063 5.29375C18.3156 4.90313 17.6812 4.90313 17.2906 5.29375L15.2906 7.29375C15.0031 7.58125 14.9187 8.00938 15.075 8.38438C15.2312 8.75938 15.5938 9.00313 16 9.00313H17V15H16C15.5969 15 15.2312 15.2437 15.075 15.6187C14.9187 15.9937 15.0062 16.4219 15.2906 16.7094L17.2906 18.7094C17.6812 19.1 18.3156 19.1 18.7063 18.7094L20.7062 16.7094C20.9937 16.4219 21.0781 15.9937 20.9219 15.6187C20.7656 15.2437 20.4031 15 19.9969 15H19V9H20C20.4031 9 20.7687 8.75625 20.925 8.38125C21.0812 8.00625 20.9937 7.57812 20.7094 7.29063L18.7094 5.29062L18.7063 5.29375Z" fill="black"/>
</svg>
