<svg width="24" height="24" viewBox="0 0 24 24" fill="none" xmlns="http://www.w3.org/2000/svg">
<path d="M14.7406 5.25003C14.2625 5.52503 14.0969 6.13753 14.375 6.61566L17.375 11.8125C17.65 12.2907 18.2625 12.4532 18.7406 12.1782L20.4719 11.1782C20.95 10.9032 21.1125 10.2907 20.8375 9.81253L17.8375 4.61566C17.5625 4.13753 16.95 3.97503 16.4719 4.25003L14.7406 5.25003ZM3.36874 14.7375C3.01249 14.9469 2.88749 15.4032 3.09686 15.7625L3.90624 17.1657C4.11249 17.525 4.57186 17.6469 4.93124 17.4407L6.30936 16.6438L6.33436 16.6875C6.60311 17.1563 7.19686 17.325 7.67186 17.0688L10.4344 15.5875L9.05624 18.9657C8.89999 19.35 9.08436 19.7875 9.46874 19.9438C9.85311 20.1 10.2906 19.9157 10.4469 19.5313L12.5 14.4875L14.5562 19.5313C14.7125 19.9157 15.15 20.1 15.5344 19.9438C15.9187 19.7875 16.1031 19.35 15.9469 18.9657L13.825 13.7657L16.5156 12.3219L16.5094 12.3125L13.5094 7.11566C13.4781 7.05941 13.4469 7.00316 13.4219 6.94691L4.94999 12.3875C4.49999 12.675 4.35624 13.2657 4.62499 13.7282L4.74999 13.9438L3.36874 14.7375Z" fill="black"/>
</svg>
