<svg width="24" height="24" viewBox="0 0 24 24" fill="none" xmlns="http://www.w3.org/2000/svg">
<path d="M11.5531 4.10625C11.8344 3.96562 12.1656 3.96562 12.4469 4.10625L17.4469 6.60625C17.9406 6.85312 18.1406 7.45312 17.8938 7.94687C17.7188 8.29687 17.3656 8.5 17 8.5V11C17 11.5531 16.5531 12 16 12H15.8469L16.8469 18H19C19.5531 18 20 18.4469 20 19C20 19.5531 19.5531 20 19 20H16.0156C16.0031 20 15.9906 20 15.9812 20H8.01875C8.00625 20 7.99375 20 7.98438 20H5C4.44687 20 4 19.5531 4 19C4 18.4469 4.44687 18 5 18H7.15313L8.15312 12H8C7.44687 12 7 11.5531 7 11V8.5C6.63438 8.5 6.28125 8.29687 6.10625 7.94687C5.85938 7.45312 6.05937 6.85312 6.55312 6.60625L11.5531 4.10625ZM13.8281 18L12 16.475L10.1719 18H13.8281ZM10.1813 12L10.0344 12.8844L12 14.525L13.9656 12.8844L13.8188 12H10.1813ZM9.74687 14.6L9.39687 16.6937L10.8281 15.5L9.74687 14.6ZM13.1719 15.5L14.6031 16.6906L14.2531 14.5969L13.1719 15.5ZM9.5 8C9.225 8 9 8.225 9 8.5C9 8.775 9.225 9 9.5 9H14.5C14.775 9 15 8.775 15 8.5C15 8.225 14.775 8 14.5 8H9.5Z" fill="black"/>
</svg>
