<svg width="24" height="24" viewBox="0 0 24 24" fill="none" xmlns="http://www.w3.org/2000/svg">
<path d="M5.50938 5.37502C5.18125 6.18439 5 7.06877 5 8.00002C5 8.93127 5.18125 9.81564 5.50938 10.625C5.71563 11.1375 5.46875 11.7188 4.95625 11.9281C4.44375 12.1375 3.8625 11.8875 3.65312 11.375C3.23125 10.3313 3 9.19064 3 8.00002C3 6.80939 3.23125 5.66877 3.65312 4.62502C3.8625 4.11252 4.44375 3.86564 4.95625 4.07189C5.46875 4.27814 5.71563 4.86252 5.50938 5.37502ZM20.3469 4.62502C20.7687 5.66877 21 6.80939 21 8.00002C21 9.19064 20.7687 10.3313 20.3469 11.375C20.1406 11.8875 19.5563 12.1344 19.0438 11.9281C18.5313 11.7219 18.2844 11.1375 18.4906 10.625C18.8188 9.81564 19 8.93127 19 8.00002C19 7.06877 18.8188 6.18439 18.4906 5.37502C18.2844 4.86252 18.5313 4.28127 19.0438 4.07189C19.5563 3.86252 20.1375 4.11252 20.3469 4.62502ZM14 8.00002C14 8.74064 13.5969 9.38752 13 9.73127V19C13 19.5531 12.5531 20 12 20C11.4469 20 11 19.5531 11 19V9.73127C10.4031 9.38439 10 8.74064 10 8.00002C10 6.89689 10.8969 6.00002 12 6.00002C13.1031 6.00002 14 6.89689 14 8.00002ZM8.33125 6.40002C8.11875 6.88752 8 7.42814 8 8.00002C8 8.57189 8.11875 9.11252 8.33125 9.60002C8.55313 10.1063 8.32188 10.6969 7.81563 10.9156C7.30938 11.1344 6.71875 10.9063 6.5 10.4C6.17812 9.66252 6 8.85002 6 8.00002C6 7.15002 6.17812 6.33752 6.5 5.60002C6.72187 5.09377 7.30938 4.86252 7.81563 5.08439C8.32188 5.30627 8.55313 5.89377 8.33125 6.40002ZM17.5 5.60002C17.8219 6.33752 18 7.15002 18 8.00002C18 8.85002 17.8219 9.66252 17.5 10.4C17.2781 10.9063 16.6906 11.1375 16.1844 10.9156C15.6781 10.6938 15.4469 10.1063 15.6687 9.60002C15.8812 9.11252 16 8.57189 16 8.00002C16 7.42814 15.8812 6.88752 15.6687 6.40002C15.4469 5.89377 15.6781 5.30314 16.1844 5.08439C16.6906 4.86564 17.2812 5.09377 17.5 5.60002Z" fill="black"/>
</svg>
