<svg width="24" height="24" viewBox="0 0 24 24" fill="none" xmlns="http://www.w3.org/2000/svg">
<path d="M4.95625 4.07188C4.44375 3.86563 3.8625 4.1125 3.65312 4.625C3.23125 5.66875 3 6.80938 3 8C3 9.19063 3.23125 10.3313 3.65312 11.375C3.85937 11.8875 4.44375 12.1344 4.95625 11.9281C5.46875 11.7219 5.71563 11.1375 5.50938 10.625C5.18125 9.81563 5 8.93125 5 8C5 7.06875 5.18125 6.18438 5.50938 5.375C5.71563 4.8625 5.46875 4.28125 4.95625 4.07188ZM19.0438 4.07188C18.5313 4.28125 18.2844 4.8625 18.4906 5.375C18.8188 6.18438 19 7.06875 19 8C19 8.93125 18.8188 9.81563 18.4906 10.625C18.2844 11.1375 18.5313 11.7188 19.0438 11.9281C19.5563 12.1375 20.1375 11.8875 20.3469 11.375C20.7687 10.3313 21 9.19063 21 8C21 6.80938 20.7687 5.66875 20.3469 4.625C20.1375 4.1125 19.5563 3.86563 19.0438 4.07188ZM13.6281 9.1625C13.8625 8.83438 14 8.43438 14 8C14 6.89688 13.1031 6 12 6C10.8969 6 10 6.89688 10 8C10 8.43438 10.1375 8.83438 10.3719 9.1625L6.09063 18.5875C5.8625 19.0906 6.08438 19.6844 6.5875 19.9125C7.09063 20.1406 7.68437 19.9188 7.9125 19.4156L8.55312 18H15.4469L16.0906 19.4125C16.3187 19.9156 16.9125 20.1375 17.4156 19.9094C17.9187 19.6813 18.1406 19.0875 17.9125 18.5844L13.6281 9.1625ZM14.5375 16H9.4625L9.91563 15H14.0844L14.5375 16ZM12 10.4156L13.175 13H10.825L12 10.4156ZM8.10313 6.3C8.26875 5.92188 8.09687 5.47813 7.71562 5.3125C7.33437 5.14688 6.89375 5.31875 6.72813 5.7C6.42188 6.40625 6.25 7.18438 6.25 8C6.25 8.81563 6.42188 9.59375 6.72813 10.3C6.89375 10.6781 7.3375 10.8531 7.71562 10.6875C8.09375 10.5219 8.26875 10.0781 8.10313 9.7C7.875 9.18125 7.75 8.60625 7.75 8C7.75 7.39375 7.875 6.81875 8.10313 6.3ZM17.2719 5.7C17.1063 5.32188 16.6625 5.14688 16.2844 5.3125C15.9063 5.47813 15.7313 5.92188 15.8969 6.3C16.125 6.81875 16.25 7.39375 16.25 8C16.25 8.60625 16.125 9.18125 15.8969 9.7C15.7313 10.0781 15.9031 10.5219 16.2844 10.6875C16.6656 10.8531 17.1063 10.6813 17.2719 10.3C17.5781 9.59375 17.75 8.81563 17.75 8C17.75 7.18438 17.5781 6.40625 17.2719 5.7Z" fill="black"/>
</svg>
