<svg width="24" height="24" viewBox="0 0 24 24" fill="none" xmlns="http://www.w3.org/2000/svg">
<path d="M3.5 4C2.67188 4 2 4.67188 2 5.5V15.5C2 16.3281 2.67188 17 3.5 17H4C4 18.6562 5.34375 20 7 20C8.65625 20 10 18.6562 10 17H14C14 18.6562 15.3438 20 17 20C18.6562 20 20 18.6562 20 17H21C21.5531 17 22 16.5531 22 16C22 15.4469 21.5531 15 21 15V13V12V11.4156C21 10.8844 20.7906 10.375 20.4156 10L18 7.58437C17.625 7.20937 17.1156 7 16.5844 7H15V5.5C15 4.67188 14.3281 4 13.5 4H3.5ZM15 9H16.5844L19 11.4156V12H15V9ZM5.5 17C5.5 16.6022 5.65804 16.2206 5.93934 15.9393C6.22064 15.658 6.60218 15.5 7 15.5C7.39782 15.5 7.77936 15.658 8.06066 15.9393C8.34196 16.2206 8.5 16.6022 8.5 17C8.5 17.3978 8.34196 17.7794 8.06066 18.0607C7.77936 18.342 7.39782 18.5 7 18.5C6.60218 18.5 6.22064 18.342 5.93934 18.0607C5.65804 17.7794 5.5 17.3978 5.5 17ZM17 15.5C17.3978 15.5 17.7794 15.658 18.0607 15.9393C18.342 16.2206 18.5 16.6022 18.5 17C18.5 17.3978 18.342 17.7794 18.0607 18.0607C17.7794 18.342 17.3978 18.5 17 18.5C16.6022 18.5 16.2206 18.342 15.9393 18.0607C15.658 17.7794 15.5 17.3978 15.5 17C15.5 16.6022 15.658 16.2206 15.9393 15.9393C16.2206 15.658 16.6022 15.5 17 15.5ZM4.79688 6.42188C4.81875 6.2375 4.97187 6.1 5.15937 6.1C5.35312 6.1 5.5125 6.25 5.52187 6.44375L5.65937 8.80312C5.66562 8.89687 5.74062 8.96875 5.83437 8.96875C5.92812 8.96875 6.00625 8.89687 6.00938 8.80312L6.14687 6.43438C6.15625 6.24688 6.3125 6.10313 6.5 6.10313C6.6875 6.10313 6.84063 6.25 6.85313 6.43438L6.99062 8.80312C6.99687 8.89687 7.07188 8.96875 7.16563 8.96875C7.25938 8.96875 7.3375 8.89687 7.34062 8.80312L7.47813 6.44375C7.49062 6.25 7.65 6.1 7.84062 6.1C8.025 6.1 8.18125 6.2375 8.20312 6.42188L8.5 8.96562C8.5 9.88437 7.85938 10.6531 7 10.85V13.5C7 13.775 6.775 14 6.5 14C6.225 14 6 13.775 6 13.5V10.85C5.14062 10.6531 4.5 9.88437 4.5 8.96562L4.79688 6.42188ZM10 8.84062C10 6.86875 11.2906 6.15312 11.5719 6.02187C11.6062 6.00625 11.6438 5.99688 11.6844 5.99688C11.8594 5.99688 12 6.1375 12 6.3125V8V11V13.5C12 13.775 11.775 14 11.5 14C11.225 14 11 13.775 11 13.5V11C10.4469 11 10 10.5531 10 10V8.84375V8.84062Z" fill="black"/>
</svg>
