<svg width="24" height="24" viewBox="0 0 24 24" fill="none" xmlns="http://www.w3.org/2000/svg">
<path d="M3.5 5H13C13.8281 5 14.5 5.67188 14.5 6.5V11.5C14.5 12.3281 13.8281 13 13 13H3.5C2.67188 13 2 12.3281 2 11.5V6.5C2 5.67188 2.67188 5 3.5 5ZM4.5 6.5C4.225 6.5 4 6.725 4 7V11C4 11.275 4.225 11.5 4.5 11.5C4.775 11.5 5 11.275 5 11V7C5 6.725 4.775 6.5 4.5 6.5ZM9 7V11C9 11.275 9.225 11.5 9.5 11.5C9.775 11.5 10 11.275 10 11V7C10 6.725 9.775 6.5 9.5 6.5C9.225 6.5 9 6.725 9 7ZM7 6.5C6.725 6.5 6.5 6.725 6.5 7V11C6.5 11.275 6.725 11.5 7 11.5C7.275 11.5 7.5 11.275 7.5 11V7C7.5 6.725 7.275 6.5 7 6.5ZM11.5 7V11C11.5 11.275 11.725 11.5 12 11.5C12.275 11.5 12.5 11.275 12.5 11V7C12.5 6.725 12.275 6.5 12 6.5C11.725 6.5 11.5 6.725 11.5 7ZM15.5 9.25C15.5 8.83437 15.8344 8.5 16.25 8.5H18.525C19.05 8.5 19.5469 8.73438 19.8781 9.14062L21.7188 11.3875C21.9 11.6094 22 11.8906 22 12.1781V12.5V13V15C22 15.5531 21.5531 16 21 16H20.95C20.9813 16.1625 21 16.3281 21 16.5C21 17.8813 19.8813 19 18.5 19C17.1187 19 16 17.8813 16 16.5C16 16.3281 16.0188 16.1625 16.05 16H15.5H10.95C10.9812 16.1625 11 16.3281 11 16.5C11 17.8813 9.88125 19 8.5 19C7.68125 19 6.95625 18.6062 6.5 18C6.04375 18.6062 5.31875 19 4.5 19C3.11875 19 2 17.8813 2 16.5V16V15C2 14.4469 2.44687 14 3 14H4.5H8.5H15.5V13V12V9.25ZM17 12H20.2812L18.7188 10.0906C18.6719 10.0312 18.6 10 18.525 10H17V12ZM19.5 16.5C19.5 16.2348 19.3946 15.9804 19.2071 15.7929C19.0196 15.6054 18.7652 15.5 18.5 15.5C18.2348 15.5 17.9804 15.6054 17.7929 15.7929C17.6054 15.9804 17.5 16.2348 17.5 16.5C17.5 16.7652 17.6054 17.0196 17.7929 17.2071C17.9804 17.3946 18.2348 17.5 18.5 17.5C18.7652 17.5 19.0196 17.3946 19.2071 17.2071C19.3946 17.0196 19.5 16.7652 19.5 16.5ZM8.5 17.5C8.76522 17.5 9.01957 17.3946 9.20711 17.2071C9.39464 17.0196 9.5 16.7652 9.5 16.5C9.5 16.2348 9.39464 15.9804 9.20711 15.7929C9.01957 15.6054 8.76522 15.5 8.5 15.5C8.23478 15.5 7.98043 15.6054 7.79289 15.7929C7.60536 15.9804 7.5 16.2348 7.5 16.5C7.5 16.7652 7.60536 17.0196 7.79289 17.2071C7.98043 17.3946 8.23478 17.5 8.5 17.5ZM5.5 16.5C5.5 16.2348 5.39464 15.9804 5.20711 15.7929C5.01957 15.6054 4.76522 15.5 4.5 15.5C4.23478 15.5 3.98043 15.6054 3.79289 15.7929C3.60536 15.9804 3.5 16.2348 3.5 16.5C3.5 16.7652 3.60536 17.0196 3.79289 17.2071C3.98043 17.3946 4.23478 17.5 4.5 17.5C4.76522 17.5 5.01957 17.3946 5.20711 17.2071C5.39464 17.0196 5.5 16.7652 5.5 16.5Z" fill="black"/>
</svg>
