<svg width="24" height="24" viewBox="0 0 24 24" fill="none" xmlns="http://www.w3.org/2000/svg">
<path d="M9.54688 6.06255C9.27187 5.9438 8.95312 6.00005 8.73438 6.2063L4.23438 10.4563C4.08437 10.5969 4 10.7938 4 11C4 11.2063 4.08437 11.4032 4.23438 11.5438L8.73438 15.7938C8.95312 16 9.27187 16.0563 9.54688 15.9375C9.82188 15.8188 10 15.5469 10 15.25V12.5H16C16.5531 12.5 17 12.9469 17 13.5V18C17 18.5532 17.4469 19 18 19H19C19.5531 19 20 18.5532 20 18V13.5C20 11.2907 18.2094 9.50005 16 9.50005H10V6.75005C10 6.45005 9.82188 6.1813 9.54688 6.06255Z" fill="black"/>
</svg>
