<svg width="24" height="24" viewBox="0 0 24 24" fill="none" xmlns="http://www.w3.org/2000/svg">
<path d="M12.8 7.40017C12.5406 7.05642 12.0906 6.9158 11.6844 7.05017C11.2781 7.18455 11 7.56892 11 8.00017V16.0002C11 16.5533 11.4469 17.0002 12 17.0002C12.5531 17.0002 13 16.5533 13 16.0002V11.0002L15.7 14.6002C15.8875 14.8533 16.1844 15.0002 16.5 15.0002C16.8156 15.0002 17.1125 14.8533 17.3 14.6002L20 11.0002V16.0002C20 16.5533 20.4469 17.0002 21 17.0002C21.5531 17.0002 22 16.5533 22 16.0002V8.00017C22 7.56892 21.725 7.18767 21.3156 7.05017C20.9062 6.91267 20.4563 7.0533 20.2 7.40017L16.5 12.3345L12.8 7.40017ZM2 8.00017C2 8.5533 2.44687 9.00017 3 9.00017H5V16.0002C5 16.5533 5.44687 17.0002 6 17.0002C6.55313 17.0002 7 16.5533 7 16.0002V9.00017H9C9.55313 9.00017 10 8.5533 10 8.00017C10 7.44705 9.55313 7.00017 9 7.00017H3C2.44687 7.00017 2 7.44705 2 8.00017Z" fill="black"/>
</svg>
