<svg width="24" height="24" viewBox="0 0 24 24" fill="none" xmlns="http://www.w3.org/2000/svg">
<path d="M14.3938 4.20313L9.36875 8.03438C9.66875 8.09063 9.95938 8.21563 10.2125 8.40938L15.4625 12.4094C15.875 12.725 16.15 13.1875 16.2281 13.7031L16.4219 15H21C21.2906 15 21.5688 14.8719 21.7563 14.6531C21.9438 14.4344 22.0313 14.1406 21.9875 13.8531L21.2375 8.85313C21.2 8.59688 21.0625 8.36251 20.8531 8.20626L15.6031 4.20626C15.2438 3.93438 14.75 3.93438 14.3906 4.20626L14.3938 4.20313ZM9.60625 9.20313C9.24688 8.93126 8.75313 8.93126 8.39375 9.20313L3.14375 13.2031C2.9375 13.3594 2.8 13.5938 2.75938 13.85L2.00938 18.85C1.96563 19.1375 2.05 19.4313 2.24063 19.65C2.43125 19.8688 2.70938 20 3 20H7.5H8C8.55313 20 9 19.5531 9 19V15.3094C9 15.1375 9.1375 15 9.30938 15C9.425 15 9.53438 15.0656 9.58438 15.1719L11.7219 19.4469C11.8906 19.7844 12.2375 20 12.6156 20H14.5H15C15.2906 20 15.5688 19.8719 15.7563 19.6531C15.9438 19.4344 16.0313 19.1406 15.9875 18.8531L15.2375 13.8531C15.2 13.5969 15.0625 13.3625 14.8531 13.2063L9.60313 9.20626L9.60625 9.20313Z" fill="black"/>
</svg>
