<svg width="24" height="24" viewBox="0 0 24 24" fill="none" xmlns="http://www.w3.org/2000/svg">
<path d="M5 11.0001C3.89688 11.0001 3 10.1032 3 9.00006C3 7.89693 3.89688 7.00006 5 7.00006H12C12.975 7.00006 13.1938 6.29068 13.2375 5.50006C13.2531 5.22506 13.475 4.99693 13.75 5.02506C15.3875 5.19068 17 6.17193 17 8.00006C17 9.65631 15.6562 11.0001 14 11.0001H5ZM4.75 12.0001C5.16563 12.0001 5.5 12.3344 5.5 12.7501V17.0001H6.5V12.7501C6.5 12.3344 6.83437 12.0001 7.25 12.0001C7.66563 12.0001 8 12.3344 8 12.7501V17.0001H9V12.7501C9 12.3344 9.33437 12.0001 9.75 12.0001C10.1656 12.0001 10.5 12.3344 10.5 12.7501V17.0001H11.5V12.7501C11.5 12.3344 11.8344 12.0001 12.25 12.0001C12.6656 12.0001 13 12.3344 13 12.7501V17.0001H14V12.7501C14 12.3344 14.3344 12.0001 14.75 12.0001C15.1656 12.0001 15.5 12.3344 15.5 12.7501V17.0001H20C20.5531 17.0001 21 17.4469 21 18.0001C21 18.5532 20.5531 19.0001 20 19.0001H4C3.44687 19.0001 3 18.5532 3 18.0001C3 17.4469 3.44687 17.0001 4 17.0001V12.7501C4 12.3344 4.33437 12.0001 4.75 12.0001Z" fill="black"/>
</svg>
