<svg width="24" height="24" viewBox="0 0 24 24" fill="none" xmlns="http://www.w3.org/2000/svg">
<path d="M9.54688 17.9375C9.27187 18.0562 8.95312 18 8.73438 17.7937L4.23438 13.5437C4.08437 13.4031 4 13.2062 4 13C4 12.7938 4.08437 12.5969 4.23438 12.4563L8.73438 8.20625C8.95312 8 9.27187 7.94375 9.54688 8.0625C9.82188 8.18125 10 8.45312 10 8.75V11.5H16C16.5531 11.5 17 11.0531 17 10.5V6C17 5.44687 17.4469 5 18 5H19C19.5531 5 20 5.44687 20 6V10.5C20 12.7094 18.2094 14.5 16 14.5H10V17.25C10 17.55 9.82188 17.8188 9.54688 17.9375Z" fill="black"/>
</svg>
