<svg width="24" height="24" viewBox="0 0 24 24" fill="none" xmlns="http://www.w3.org/2000/svg">
<path d="M5.67188 4.04445C6.27812 3.87883 6.9125 4.1882 7.15312 4.76945L8.40312 7.76945C8.61562 8.27883 8.46875 8.86945 8.04063 9.21633L6.5 10.4788C7.54063 12.6788 9.32188 14.4601 11.5219 15.5007L12.7812 13.9601C13.1313 13.532 13.7188 13.3851 14.2281 13.5976L17.2281 14.8476C17.8094 15.0882 18.1187 15.7226 17.9531 16.3288L17.2031 19.0788C17.0562 19.6226 16.5625 20.0007 16 20.0007C8.26875 20.0007 2 13.732 2 6.0007C2 5.4382 2.37813 4.94445 2.92188 4.79445L5.67188 4.04445ZM11.5 6.0007H12.5C12.775 6.0007 13 6.2257 13 6.5007V7.5007C13 7.7757 12.775 8.0007 12.5 8.0007H11.5C11.225 8.0007 11 7.7757 11 7.5007V6.5007C11 6.2257 11.225 6.0007 11.5 6.0007ZM11.5 9.0007H12.5C12.775 9.0007 13 9.2257 13 9.5007V10.5007C13 10.7757 12.775 11.0007 12.5 11.0007H11.5C11.225 11.0007 11 10.7757 11 10.5007V9.5007C11 9.2257 11.225 9.0007 11.5 9.0007ZM14 6.5007C14 6.2257 14.225 6.0007 14.5 6.0007H15.5C15.775 6.0007 16 6.2257 16 6.5007V7.5007C16 7.7757 15.775 8.0007 15.5 8.0007H14.5C14.225 8.0007 14 7.7757 14 7.5007V6.5007ZM17.5 6.0007H18.5C18.775 6.0007 19 6.2257 19 6.5007V7.5007C19 7.7757 18.775 8.0007 18.5 8.0007H17.5C17.225 8.0007 17 7.7757 17 7.5007V6.5007C17 6.2257 17.225 6.0007 17.5 6.0007ZM20 6.5007C20 6.2257 20.225 6.0007 20.5 6.0007H21.5C21.775 6.0007 22 6.2257 22 6.5007V7.5007C22 7.7757 21.775 8.0007 21.5 8.0007H20.5C20.225 8.0007 20 7.7757 20 7.5007V6.5007ZM20.5 9.0007H21.5C21.775 9.0007 22 9.2257 22 9.5007V10.5007C22 10.7757 21.775 11.0007 21.5 11.0007H20.5C20.225 11.0007 20 10.7757 20 10.5007V9.5007C20 9.2257 20.225 9.0007 20.5 9.0007ZM14 9.5007C14 9.2257 14.225 9.0007 14.5 9.0007H18.5C18.775 9.0007 19 9.2257 19 9.5007V10.5007C19 10.7757 18.775 11.0007 18.5 11.0007H14.5C14.225 11.0007 14 10.7757 14 10.5007V9.5007Z" fill="black"/>
</svg>
