<svg width="24" height="24" viewBox="0 0 24 24" fill="none" xmlns="http://www.w3.org/2000/svg">
<path d="M9 4C7.89688 4 7 4.89688 7 6V15C7 17.7625 9.2375 20 12 20C14.7625 20 17 17.7625 17 15V6C17 4.89688 16.1031 4 15 4H9ZM12 17C11.6022 17 11.2206 16.842 10.9393 16.5607C10.658 16.2794 10.5 15.8978 10.5 15.5C10.5 15.1022 10.658 14.7206 10.9393 14.4393C11.2206 14.158 11.6022 14 12 14C12.3978 14 12.7794 14.158 13.0607 14.4393C13.342 14.7206 13.5 15.1022 13.5 15.5C13.5 15.8978 13.342 16.2794 13.0607 16.5607C12.7794 16.842 12.3978 17 12 17ZM13.5 11.5C13.5 11.8978 13.342 12.2794 13.0607 12.5607C12.7794 12.842 12.3978 13 12 13C11.6022 13 11.2206 12.842 10.9393 12.5607C10.658 12.2794 10.5 11.8978 10.5 11.5C10.5 11.1022 10.658 10.7206 10.9393 10.4393C11.2206 10.158 11.6022 10 12 10C12.3978 10 12.7794 10.158 13.0607 10.4393C13.342 10.7206 13.5 11.1022 13.5 11.5ZM12 9C11.803 9 11.608 8.9612 11.426 8.88582C11.244 8.81044 11.0786 8.69995 10.9393 8.56066C10.8001 8.42137 10.6896 8.25601 10.6142 8.07403C10.5388 7.89204 10.5 7.69698 10.5 7.5C10.5 7.30302 10.5388 7.10796 10.6142 6.92597C10.6896 6.74399 10.8001 6.57863 10.9393 6.43934C11.0786 6.30005 11.244 6.18956 11.426 6.11418C11.608 6.0388 11.803 6 12 6C12.197 6 12.392 6.0388 12.574 6.11418C12.756 6.18956 12.9214 6.30005 13.0607 6.43934C13.1999 6.57863 13.3104 6.74399 13.3858 6.92597C13.4612 7.10796 13.5 7.30302 13.5 7.5C13.5 7.69698 13.4612 7.89204 13.3858 8.07403C13.3104 8.25601 13.1999 8.42137 13.0607 8.56066C12.9214 8.69995 12.756 8.81044 12.574 8.88582C12.392 8.9612 12.197 9 12 9Z" fill="black"/>
</svg>
