<svg width="24" height="24" viewBox="0 0 24 24" fill="none" xmlns="http://www.w3.org/2000/svg">
<path d="M10.5 5.5C10.5 5.10218 10.658 4.72064 10.9393 4.43934C11.2206 4.15804 11.6022 4 12 4C12.3978 4 12.7794 4.15804 13.0607 4.43934C13.342 4.72064 13.5 5.10218 13.5 5.5C13.5 5.89782 13.342 6.27936 13.0607 6.56066C12.7794 6.84196 12.3978 7 12 7C11.6022 7 11.2206 6.84196 10.9393 6.56066C10.658 6.27936 10.5 5.89782 10.5 5.5ZM11.75 14V17H9.75V11.4156L8.78125 12.625C8.43437 13.0563 7.80625 13.125 7.375 12.7812C6.94375 12.4375 6.875 11.8063 7.21875 11.375L9.02187 9.125C9.59062 8.41562 10.4531 8 11.3625 8H12.6344C13.5437 8 14.4063 8.4125 14.975 9.125L16.7812 11.375C17.125 11.8063 17.0563 12.4344 16.625 12.7812C16.1937 13.1281 15.5656 13.0563 15.2188 12.625L14.25 11.4156V17H12.25V14H11.75ZM10.75 20H8C7.44687 20 7 19.5531 7 19C7 18.4469 7.44687 18 8 18H16C16.5531 18 17 18.4469 17 19C17 19.5531 16.5531 20 16 20H13.25H10.75ZM6 7L6.79375 7.22813C6.91563 7.2625 7 7.375 7 7.5C7 7.625 6.91563 7.7375 6.79375 7.77187L6 8L5.77188 8.79375C5.7375 8.91562 5.625 9 5.5 9C5.375 9 5.2625 8.91562 5.22812 8.79375L5 8L4.20625 7.77187C4.08437 7.7375 4 7.62812 4 7.5C4 7.37188 4.08437 7.2625 4.20625 7.22813L5 7L5.22812 6.20625C5.2625 6.08437 5.37188 6 5.5 6C5.62812 6 5.7375 6.08437 5.77188 6.20625L6 7ZM18.7719 4.20625L19 5L19.7937 5.22812C19.9156 5.2625 20 5.375 20 5.5C20 5.625 19.9156 5.7375 19.7937 5.77188L19 6L18.7719 6.79375C18.7375 6.91563 18.625 7 18.5 7C18.375 7 18.2625 6.91563 18.2281 6.79375L18 6L17.2063 5.77188C17.0844 5.7375 17 5.625 17 5.5C17 5.375 17.0844 5.2625 17.2063 5.22812L18 5L18.2281 4.20625C18.2625 4.08437 18.3719 4 18.5 4C18.6281 4 18.7375 4.08437 18.7719 4.20625Z" fill="black"/>
</svg>
