<svg width="24" height="24" viewBox="0 0 24 24" fill="none" xmlns="http://www.w3.org/2000/svg">
<path d="M12 8H10.7188C8.50938 8 6.56562 9.44688 5.92812 11.5625L5.74375 12.1812C5.59688 12.6656 5.15312 13 4.64687 13C4.0125 13 3.5 12.4875 3.5 11.8531V10.325C3.5 10.1437 3.35312 10 3.175 10C3.06562 10 2.96562 10.0531 2.90312 10.1438L2.80313 10.2937C2.28125 11.0812 2 12.0031 2 12.95C2 15.1875 3.8125 17 6.05 17H7.75L9.7 19.6C9.8875 19.8531 10.1844 20 10.5 20H13.5C13.775 20 14 19.775 14 19.5C14 18.6719 13.3281 18 12.5 18L11.9187 16.45L12.8062 15.65C13.2469 15.2531 13.5 14.6875 13.5 14.0938C13.5 12.9375 12.5625 12 11.4062 12H11C10.725 12 10.5 11.775 10.5 11.5C10.5 11.225 10.725 11 11 11H11.4062C12.5031 11 13.4688 11.5719 14.0156 12.4312L14.0281 12.4219L15.3875 13.3281C15.4562 13.375 15.5 13.4531 15.5 13.5375V14C15.5 14.4156 15.8344 14.75 16.25 14.75C16.6656 14.75 17 14.4156 17 14V13.5344C17 12.95 16.7063 12.4031 16.2219 12.0781L15.2781 11.45L16.5 10.5H19.5C20.1531 10.5 20.7094 10.0813 20.9156 9.5H19.6656C19.3344 9.5 19.0156 9.36875 18.7812 9.13438L18.3656 8.71875C18.225 8.57812 18.0344 8.5 17.8344 8.5H17.25C17.1125 8.5 17 8.3875 17 8.25C17 8.1125 17.1125 8 17.25 8H17.8344C18.1656 8 18.4844 8.13125 18.7188 8.36562L19.1344 8.78125C19.275 8.92188 19.4656 9 19.6656 9H21H21.25C21.6656 9 22 8.66563 22 8.25V7.5C22 6.11875 20.8813 5 19.5 5H18.9156C18.7094 4.41875 18.1531 4 17.5 4C17.2219 4 16.9625 4.075 16.7406 4.20625C16.4344 4.07187 16.1 4 15.7594 4C14.7094 4 13.775 4.67188 13.4406 5.66875L13 7L12 8ZM17 5.75C17 5.61739 17.0527 5.49021 17.1464 5.39645C17.2402 5.30268 17.3674 5.25 17.5 5.25C17.6326 5.25 17.7598 5.30268 17.8536 5.39645C17.9473 5.49021 18 5.61739 18 5.75C18 5.88261 17.9473 6.00979 17.8536 6.10355C17.7598 6.19732 17.6326 6.25 17.5 6.25C17.3674 6.25 17.2402 6.19732 17.1464 6.10355C17.0527 6.00979 17 5.88261 17 5.75Z" fill="black"/>
</svg>
