<svg width="24" height="24" viewBox="0 0 24 24" fill="none" xmlns="http://www.w3.org/2000/svg">
<path d="M10.1188 4H13.8813C14.2594 4 14.6062 4.2125 14.775 4.55313L15 5H18C18.5531 5 19 5.44687 19 6C19 6.55312 18.5531 7 18 7H6C5.44687 7 5 6.55312 5 6C5 5.44687 5.44687 5 6 5H9L9.225 4.55313C9.39375 4.2125 9.74062 4 10.1188 4ZM6 8H18L17.3375 18.5938C17.2875 19.3844 16.6312 20 15.8406 20H8.15937C7.36875 20 6.7125 19.3844 6.6625 18.5938L6 8ZM15.5312 11.7812C15.825 11.4875 15.825 11.0125 15.5312 10.7219C15.2375 10.4313 14.7625 10.4281 14.4719 10.7219L11.0031 14.1906L9.53438 12.7219C9.24063 12.4281 8.76562 12.4281 8.475 12.7219C8.18437 13.0156 8.18125 13.4906 8.475 13.7812L10.475 15.7812C10.7687 16.075 11.2438 16.075 11.5344 15.7812L15.5312 11.7812Z" fill="black"/>
</svg>
