<svg width="24" height="24" viewBox="0 0 24 24" fill="none" xmlns="http://www.w3.org/2000/svg">
<path d="M8.99989 9.00039C8.99989 6.99727 10.9249 4.99414 11.6905 4.27852C11.8655 4.11289 12.1311 4.11289 12.3093 4.27852C13.0749 4.99727 14.9999 6.99727 14.9999 9.00039C14.9999 9.49102 14.8843 9.95039 14.6749 10.3598C15.1811 10.3598 15.6936 10.491 16.1655 10.7629C17.8999 11.7629 18.6718 14.4316 18.9093 15.4566C18.9655 15.691 18.8311 15.9223 18.5999 15.991C17.5968 16.2941 14.8999 16.9629 13.1655 15.9598C12.6468 15.6598 12.253 15.2316 11.9968 14.7348C11.7436 15.2316 11.3468 15.6598 10.828 15.9598C9.09364 16.9598 6.39677 16.2941 5.39364 15.991C5.16239 15.9223 5.03114 15.691 5.08427 15.4566C5.32177 14.4348 6.09364 11.766 7.82802 10.7629C8.29989 10.491 8.81552 10.3598 9.32177 10.3598C9.11552 9.95039 8.99989 9.49102 8.99989 9.00039ZM13.2499 11.5004C13.2499 11.1689 13.1182 10.8509 12.8838 10.6165C12.6494 10.3821 12.3314 10.2504 11.9999 10.2504C11.6684 10.2504 11.3504 10.3821 11.116 10.6165C10.8816 10.8509 10.7499 11.1689 10.7499 11.5004C10.7499 11.8319 10.8816 12.1499 11.116 12.3843C11.3504 12.6187 11.6684 12.7504 11.9999 12.7504C12.3314 12.7504 12.6494 12.6187 12.8838 12.3843C13.1182 12.1499 13.2499 11.8319 13.2499 11.5004ZM15.9999 9.00039C15.9999 8.60977 15.9436 8.22539 15.8499 7.85664C17.0561 7.45664 17.9811 7.48477 18.4436 7.54414C18.9093 7.60352 19.1843 8.07852 19.003 8.51289C18.828 8.92852 18.4093 9.71289 17.5124 10.5316C17.2593 10.291 16.978 10.0754 16.6686 9.89727C16.4405 9.76602 16.203 9.65977 15.9624 9.57539C15.9905 9.38789 16.003 9.19727 16.003 9.00039H15.9999ZM8.14989 7.85664C8.05614 8.22539 7.99989 8.60977 7.99989 9.00039C7.99989 9.19414 8.01239 9.38477 8.04052 9.57227C7.79677 9.65664 7.55927 9.76289 7.33114 9.89414C7.02177 10.0723 6.74364 10.2879 6.49052 10.5254C5.59364 9.70977 5.17489 8.92539 4.99989 8.50977C4.81864 8.07852 5.09364 7.60039 5.55927 7.54102C6.01864 7.48164 6.94677 7.45352 8.15302 7.85352L8.14989 7.85664ZM10.4405 17.2129C10.7468 17.116 11.0468 16.9879 11.3311 16.8223C11.5749 16.6816 11.7968 16.5191 11.9999 16.341C12.203 16.5223 12.4249 16.6848 12.6686 16.8223C12.9561 16.9879 13.2561 17.116 13.5624 17.2129C13.3061 18.341 12.8561 19.1379 12.5936 19.5316C12.3093 19.9598 11.6936 19.9598 11.4093 19.5316C11.1499 19.1379 10.6968 18.3379 10.4405 17.2098V17.2129Z" fill="black"/>
</svg>
