<svg width="24" height="24" viewBox="0 0 24 24" fill="none" xmlns="http://www.w3.org/2000/svg">
<path d="M7.5 4C7.70312 4 7.88438 4.12187 7.9625 4.30937C8.04063 4.49687 7.99688 4.7125 7.85313 4.85312L6.88438 5.82187L7.5 6.44062L7.71875 6.22187C8.0125 5.92812 8.4875 5.92812 8.77812 6.22187C9.06875 6.51562 9.07187 6.99062 8.77812 7.28125L8.55937 7.5L9.03438 7.975C9.86563 7.3625 10.8906 7 12 7C13.1094 7 14.1344 7.3625 14.9656 7.975L17.1156 5.825L16.1469 4.85625C16.0031 4.7125 15.9625 4.49687 16.0375 4.3125C16.1125 4.12812 16.2969 4.00313 16.5 4.00313H19.5C19.775 4.00313 20 4.22813 20 4.50313V7.50312C20 7.70625 19.8781 7.8875 19.6906 7.96563C19.5031 8.04375 19.2875 8 19.1469 7.85625L18.1781 6.8875L16.0281 9.0375C16.6375 9.86562 17 10.8906 17 12C17 14.5063 15.1562 16.5813 12.75 16.9438V17.5H13.25C13.6656 17.5 14 17.8344 14 18.25C14 18.6656 13.6656 19 13.25 19H12.75V19.25C12.75 19.6656 12.4156 20 12 20C11.5844 20 11.25 19.6656 11.25 19.25V19H10.75C10.3344 19 10 18.6656 10 18.25C10 17.8344 10.3344 17.5 10.75 17.5H11.25V16.9438C8.84375 16.5813 7 14.5063 7 12C7 10.8906 7.3625 9.86563 7.975 9.03438L7.5 8.55937L7.28125 8.77812C6.9875 9.07187 6.5125 9.07187 6.22187 8.77812C5.93125 8.48438 5.92812 8.00938 6.22187 7.71875L6.44062 7.5L5.82187 6.88438L4.85312 7.85313C4.70937 7.99688 4.49375 8.0375 4.30937 7.9625C4.125 7.8875 4 7.70312 4 7.5V4.5C4 4.225 4.225 4 4.5 4H7.5ZM15 12C15 11.2044 14.6839 10.4413 14.1213 9.87868C13.5587 9.31607 12.7956 9 12 9C11.2044 9 10.4413 9.31607 9.87868 9.87868C9.31607 10.4413 9 11.2044 9 12C9 12.7956 9.31607 13.5587 9.87868 14.1213C10.4413 14.6839 11.2044 15 12 15C12.7956 15 13.5587 14.6839 14.1213 14.1213C14.6839 13.5587 15 12.7956 15 12Z" fill="black"/>
</svg>
