<svg width="24" height="24" viewBox="0 0 24 24" fill="none" xmlns="http://www.w3.org/2000/svg">
<path d="M12.0001 5C12.4438 5 12.8532 5.23437 13.0782 5.61875L19.8282 17.1187C20.0563 17.5062 20.0563 17.9844 19.8344 18.3719C19.6126 18.7594 19.1969 19 18.7501 19H5.25007C4.80319 19 4.38757 18.7594 4.16569 18.3719C3.94382 17.9844 3.94694 17.5031 4.17194 17.1187L10.9219 5.61875C11.1469 5.23437 11.5563 5 12.0001 5ZM12.0001 9C11.5844 9 11.2501 9.33437 11.2501 9.75V13.25C11.2501 13.6656 11.5844 14 12.0001 14C12.4157 14 12.7501 13.6656 12.7501 13.25V9.75C12.7501 9.33437 12.4157 9 12.0001 9ZM13.0001 16C13.0001 15.7348 12.8947 15.4804 12.7072 15.2929C12.5196 15.1054 12.2653 15 12.0001 15C11.7349 15 11.4805 15.1054 11.293 15.2929C11.1054 15.4804 11.0001 15.7348 11.0001 16C11.0001 16.2652 11.1054 16.5196 11.293 16.7071C11.4805 16.8946 11.7349 17 12.0001 17C12.2653 17 12.5196 16.8946 12.7072 16.7071C12.8947 16.5196 13.0001 16.2652 13.0001 16Z" fill="black"/>
</svg>
