<svg width="24" height="24" viewBox="0 0 24 24" fill="none" xmlns="http://www.w3.org/2000/svg">
<path d="M6.00019 5C6.55331 5 7.00019 5.44687 7.00019 6V12.6125L9.00019 11.9469V6C9.00019 5.44687 9.44706 5 10.0002 5C10.5533 5 11.0002 5.44687 11.0002 6V11.2781L13.0002 10.6125V6C13.0002 5.44687 13.4471 5 14.0002 5C14.5533 5 15.0002 5.44687 15.0002 6V9.94688L17.0002 9.28125V6C17.0002 5.44687 17.4471 5 18.0002 5C18.5533 5 19.0002 5.44687 19.0002 6V8.6125L20.6846 8.05C21.2096 7.875 21.7752 8.15938 21.9502 8.68125C22.1252 9.20312 21.8408 9.77187 21.3189 9.94688L19.0002 10.7219V18C19.0002 18.5531 18.5533 19 18.0002 19C17.4471 19 17.0002 18.5531 17.0002 18V11.3875L15.0002 12.0531V18C15.0002 18.5531 14.5533 19 14.0002 19C13.4471 19 13.0002 18.5531 13.0002 18V12.7219L11.0002 13.3875V18C11.0002 18.5531 10.5533 19 10.0002 19C9.44706 19 9.00019 18.5531 9.00019 18V14.0531L7.00019 14.7188V18C7.00019 18.5531 6.55331 19 6.00019 19C5.44706 19 5.00019 18.5531 5.00019 18V15.3875L3.31581 15.95C2.79081 16.125 2.22519 15.8406 2.05019 15.3188C1.87519 14.7969 2.15956 14.2281 2.68144 14.0531L5.00019 13.2781V6C5.00019 5.44687 5.44706 5 6.00019 5Z" fill="black"/>
</svg>
