<svg width="24" height="24" viewBox="0 0 24 24" fill="none" xmlns="http://www.w3.org/2000/svg">
<path d="M6 5C4.34375 5 3 6.34375 3 8V10C3 11.1031 3.89688 12 5 12H19C20.1031 12 21 11.1031 21 10V8C21 6.34375 19.6562 5 18 5H6ZM10 7C10.8281 7 11.5 7.67188 11.5 8.5V10.25C11.5 10.6656 11.1656 11 10.75 11H9.25C8.83437 11 8.5 10.6656 8.5 10.25V8.5C8.5 7.67188 9.17188 7 10 7ZM12.5 8.5C12.5 7.67188 13.1719 7 14 7C14.8281 7 15.5 7.67188 15.5 8.5V10.25C15.5 10.6656 15.1656 11 14.75 11H13.25C12.8344 11 12.5 10.6656 12.5 10.25V8.5ZM6 8C6.82812 8 7.5 8.67188 7.5 9.5V10.25C7.5 10.6656 7.16563 11 6.75 11H5.25C4.83438 11 4.5 10.6656 4.5 10.25V9.5C4.5 8.67188 5.17188 8 6 8ZM16.5 9.5C16.5 8.67188 17.1719 8 18 8C18.8281 8 19.5 8.67188 19.5 9.5V10.25C19.5 10.6656 19.1656 11 18.75 11H17.25C16.8344 11 16.5 10.6656 16.5 10.25V9.5ZM6 19H18C19.6562 19 21 17.6562 21 16V15C21 13.8969 20.1031 13 19 13H5C3.89688 13 3 13.8969 3 15V16C3 17.6562 4.34375 19 6 19ZM6 17C5.17188 17 4.5 16.3281 4.5 15.5V14.75C4.5 14.3344 4.83438 14 5.25 14H6.75C7.16563 14 7.5 14.3344 7.5 14.75V15.5C7.5 16.3281 6.82812 17 6 17ZM8.5 15.5V14.75C8.5 14.3344 8.83437 14 9.25 14H10.75C11.1656 14 11.5 14.3344 11.5 14.75V15.5C11.5 16.3281 10.8281 17 10 17C9.17188 17 8.5 16.3281 8.5 15.5ZM14 17C13.1719 17 12.5 16.3281 12.5 15.5V14.75C12.5 14.3344 12.8344 14 13.25 14H14.75C15.1656 14 15.5 14.3344 15.5 14.75V15.5C15.5 16.3281 14.8281 17 14 17ZM16.5 15.5V14.75C16.5 14.3344 16.8344 14 17.25 14H18.75C19.1656 14 19.5 14.3344 19.5 14.75V15.5C19.5 16.3281 18.8281 17 18 17C17.1719 17 16.5 16.3281 16.5 15.5Z" fill="black"/>
</svg>
