<svg width="24" height="24" viewBox="0 0 24 24" fill="none" xmlns="http://www.w3.org/2000/svg">
<path d="M10.1188 4H13.8813C14.2594 4 14.6062 4.2125 14.775 4.55313L15 5H18C18.5531 5 19 5.44687 19 6C19 6.55312 18.5531 7 18 7H6C5.44687 7 5 6.55312 5 6C5 5.44687 5.44687 5 6 5H9L9.225 4.55313C9.39375 4.2125 9.74062 4 10.1188 4ZM6 8H18L17.3375 18.5938C17.2875 19.3844 16.6312 20 15.8406 20H8.15937C7.36875 20 6.7125 19.3844 6.6625 18.5938L6 8ZM11.25 16.75C11.25 17.1656 11.5844 17.5 12 17.5C12.4156 17.5 12.75 17.1656 12.75 16.75V14.75H14.75C15.1656 14.75 15.5 14.4156 15.5 14C15.5 13.5844 15.1656 13.25 14.75 13.25H12.75V11.25C12.75 10.8344 12.4156 10.5 12 10.5C11.5844 10.5 11.25 10.8344 11.25 11.25V13.25H9.25C8.83437 13.25 8.5 13.5844 8.5 14C8.5 14.4156 8.83437 14.75 9.25 14.75H11.25V16.75Z" fill="black"/>
</svg>
