<svg width="24" height="24" viewBox="0 0 24 24" fill="none" xmlns="http://www.w3.org/2000/svg">
<path d="M3.21255 4.15955C2.88755 3.9033 2.41568 3.96268 2.15943 4.28768C1.90318 4.61268 1.96255 5.08455 2.28755 5.3408L20.7876 19.8408C21.1126 20.0971 21.5844 20.0377 21.8407 19.7127C22.0969 19.3877 22.0376 18.9158 21.7126 18.6596L20.0001 17.3158V14.7221C19.6907 15.3314 19.2751 15.9158 18.7532 16.3408L17.9376 15.7002C18.6438 15.2377 19.2313 14.2627 19.5969 13.0002C19.8532 12.1189 19.9969 11.0939 19.9969 10.0002C20.0001 6.68768 18.6563 4.00018 17.0001 4.00018C16.6501 4.00018 16.3126 4.11893 16.0001 4.3408C14.8344 5.1658 14.0001 7.38768 14.0001 10.0002C14.0001 11.0564 14.1376 12.0471 14.3751 12.9096L13.1469 11.9471C13.0501 11.3252 13.0001 10.6721 13.0001 10.0002C13.0001 8.22205 13.3594 6.56268 13.9844 5.30955C14.2188 4.8408 14.5188 4.38143 14.8813 4.00018H7.00005C6.22505 4.00018 5.5188 4.58768 4.98755 5.55018L3.21255 4.15955ZM18.5001 20.0002L14.6938 17.0002H9.00005V18.5002C9.00005 19.3283 9.67193 20.0002 10.5001 20.0002H18.5001ZM4.00005 10.0002C4.00005 13.3127 5.3438 16.0002 7.00005 16.0002H13.4219L4.07818 8.63768C4.02818 9.07518 4.00005 9.53143 4.00005 10.0002ZM17.0001 12.0002C16.4469 12.0002 16.0001 11.1033 16.0001 10.0002C16.0001 8.89705 16.4469 8.00018 17.0001 8.00018C17.5532 8.00018 18.0001 8.89705 18.0001 10.0002C18.0001 11.1033 17.5532 12.0002 17.0001 12.0002Z" fill="black"/>
</svg>
