<svg width="24" height="24" viewBox="0 0 24 24" fill="none" xmlns="http://www.w3.org/2000/svg">
<path d="M12 4C12.3978 4 12.7794 4.15804 13.0607 4.43934C13.342 4.72064 13.5 5.10218 13.5 5.5C13.5 5.89782 13.342 6.27936 13.0607 6.56066C12.7794 6.84196 12.3978 7 12 7C11.6022 7 11.2206 6.84196 10.9393 6.56066C10.658 6.27936 10.5 5.89782 10.5 5.5C10.5 5.10218 10.658 4.72064 10.9393 4.43934C11.2206 4.15804 11.6022 4 12 4ZM8 20C7.44688 20 7 19.5531 7 19C7 18.4469 7.44688 18 8 18H16C16.5531 18 17 18.4469 17 19C17 19.5531 16.5531 20 16 20H13.25H10.75H8ZM15.9906 13C15.7 12.9969 15.4125 12.8687 15.2188 12.625L14.25 11.4156V13H9.75V11.4156L8.78125 12.625C8.58437 12.8687 8.3 12.9969 8.00938 13H8C7.78125 13 7.55938 12.9281 7.375 12.7812C6.94375 12.4344 6.875 11.8063 7.21875 11.375L9.02187 9.125C9.59062 8.41563 10.4531 8 11.3625 8H12.6344C13.5437 8 14.4062 8.4125 14.975 9.125L16.7812 11.375C17.125 11.8063 17.0562 12.4344 16.625 12.7812C16.4406 12.9281 16.2188 13 16 13H15.9906ZM5.77188 14.2063L6 15L6.79375 15.2281C6.91563 15.2625 7 15.375 7 15.5C7 15.625 6.91563 15.7375 6.79375 15.7719L6 16L5.77188 16.7937C5.7375 16.9156 5.625 17 5.5 17C5.375 17 5.2625 16.9156 5.22812 16.7937L5 16L4.20625 15.7719C4.08437 15.7375 4 15.6281 4 15.5C4 15.3719 4.08437 15.2625 4.20625 15.2281L5 15L5.22812 14.2063C5.2625 14.0844 5.375 14 5.5 14C5.625 14 5.7375 14.0844 5.77188 14.2063ZM19 9L19.7937 9.22813C19.9156 9.2625 20 9.375 20 9.5C20 9.625 19.9156 9.7375 19.7937 9.77187L19 10L18.7719 10.7937C18.7375 10.9156 18.625 11 18.5 11C18.375 11 18.2625 10.9156 18.2281 10.7937L18 10L17.2063 9.77187C17.0844 9.7375 17 9.625 17 9.5C17 9.375 17.0844 9.2625 17.2063 9.22813L18 9L18.2281 8.20625C18.2625 8.08438 18.375 8 18.5 8C18.625 8 18.7375 8.08438 18.7719 8.20625L19 9ZM9.5 14H14.5C14.775 14 15 14.225 15 14.5C15 14.775 14.775 15 14.5 15H9.5C9.225 15 9 14.775 9 14.5C9 14.225 9.225 14 9.5 14ZM9.5 16H14.5C14.775 16 15 16.225 15 16.5C15 16.775 14.775 17 14.5 17H9.5C9.225 17 9 16.775 9 16.5C9 16.225 9.225 16 9.5 16Z" fill="black"/>
</svg>
