<svg width="24" height="24" viewBox="0 0 24 24" fill="none" xmlns="http://www.w3.org/2000/svg">
<path d="M9.55623 7.49688C9.2781 7.1875 8.80623 7.1625 8.49685 7.44062L7.24998 8.56563V4.75C7.24998 4.33437 6.9156 4 6.49998 4C6.08435 4 5.74998 4.33437 5.74998 4.75V8.56563L4.5031 7.44062C4.19373 7.1625 3.72185 7.1875 3.44373 7.49688C3.1656 7.80625 3.1906 8.27813 3.49998 8.55625L5.99998 10.8063C6.28435 11.0625 6.71873 11.0625 7.0031 10.8063L9.5031 8.55625C9.81248 8.27813 9.83748 7.80625 9.55935 7.49688H9.55623ZM20.5562 7.49688C20.2781 7.1875 19.8062 7.1625 19.4969 7.44062L18.25 8.56563V4.75C18.25 4.33437 17.9156 4 17.5 4C17.0844 4 16.75 4.33437 16.75 4.75V8.56563L15.5031 7.44062C15.1937 7.1625 14.7219 7.1875 14.4437 7.49688C14.1656 7.80625 14.1906 8.27813 14.5 8.55625L17 10.8063C17.2844 11.0625 17.7187 11.0625 18.0031 10.8063L20.5031 8.55625C20.8125 8.27813 20.8375 7.80625 20.5594 7.49688H20.5562ZM12.6062 9.20312C12.2469 8.93125 11.7531 8.93125 11.3937 9.20312L6.14373 13.2031C5.93748 13.3594 5.79998 13.5938 5.75935 13.85L5.00935 18.85C4.9656 19.1375 5.04998 19.4312 5.2406 19.65C5.43123 19.8687 5.70935 20 5.99998 20H10.5H11C11.5531 20 12 19.5531 12 19V15.3094C12 15.1375 12.1375 15 12.3094 15C12.425 15 12.5344 15.0656 12.5844 15.1719L14.7219 19.4469C14.8906 19.7844 15.2375 20 15.6156 20H17.5H18C18.2906 20 18.5687 19.8719 18.7562 19.6531C18.9437 19.4344 19.0312 19.1406 18.9875 18.8531L18.2375 13.8531C18.2 13.5969 18.0625 13.3625 17.8531 13.2063L12.6031 9.20625L12.6062 9.20312Z" fill="black"/>
</svg>
