<svg width="24" height="24" viewBox="0 0 24 24" fill="none" xmlns="http://www.w3.org/2000/svg">
<path d="M14.4531 6.0634C14.7281 5.94465 15.0469 6.0009 15.2656 6.20715L19.7656 10.4572C19.9156 10.5978 20 10.7947 20 11.0009C20 11.2072 19.9156 11.404 19.7656 11.5447L15.2656 15.7947C15.0469 16.0009 14.7281 16.0572 14.4531 15.9384C14.1781 15.8197 14 15.5478 14 15.2509V12.5009H8C7.44688 12.5009 7 12.9478 7 13.5009V18.0009C7 18.554 6.55312 19.0009 6 19.0009H5C4.44687 19.0009 4 18.554 4 18.0009V13.5009C4 11.2915 5.79063 9.5009 8 9.5009H14V6.7509C14 6.4509 14.1781 6.18215 14.4531 6.0634Z" fill="black"/>
</svg>
