<svg width="24" height="24" viewBox="0 0 24 24" fill="none" xmlns="http://www.w3.org/2000/svg">
<path d="M5 6.5V11.1719C5 11.7031 5.20938 12.2125 5.58438 12.5875L11.0844 18.0875C11.8656 18.8687 13.1313 18.8687 13.9125 18.0875L18.0844 13.9156C18.8656 13.1344 18.8656 11.8687 18.0844 11.0875L12.5844 5.5875C12.2094 5.2125 11.7 5.00312 11.1687 5.00312H6.5C5.67188 5 5 5.67187 5 6.5ZM8.5 7.5C8.76522 7.5 9.01957 7.60536 9.20711 7.79289C9.39464 7.98043 9.5 8.23478 9.5 8.5C9.5 8.76522 9.39464 9.01957 9.20711 9.20711C9.01957 9.39464 8.76522 9.5 8.5 9.5C8.23478 9.5 7.98043 9.39464 7.79289 9.20711C7.60536 9.01957 7.5 8.76522 7.5 8.5C7.5 8.23478 7.60536 7.98043 7.79289 7.79289C7.98043 7.60536 8.23478 7.5 8.5 7.5Z" fill="black"/>
</svg>
