<svg width="24" height="24" viewBox="0 0 24 24" fill="none" xmlns="http://www.w3.org/2000/svg">
<path d="M21.1969 11.7188C21.7062 10.9375 22 10.0031 22 9C22 6.2375 19.7625 4 17 4C15.9969 4 15.0656 4.29375 14.2812 4.80313C14.0344 4.96563 14.0156 5.30937 14.225 5.51875L20.4812 11.775C20.6906 11.9844 21.0375 11.9688 21.1969 11.7188ZM19.7187 13.1969C19.9656 13.0344 19.9844 12.6906 19.775 12.4812L13.5187 6.225C13.3094 6.01562 12.9625 6.03125 12.8031 6.28125C12.2937 7.0625 12 7.99688 12 9C12 11.7625 14.2375 14 17 14C18.0031 14 18.9344 13.7062 19.7187 13.1969ZM11.4219 15.5H2.57812C2.28125 15.5 2.05 15.7563 2.10937 16.0469C2.59062 18.3062 4.59687 20 7 20C9.40312 20 11.4094 18.3062 11.8906 16.0469C11.9531 15.7563 11.7187 15.5 11.4219 15.5ZM11.4219 14.5C11.7187 14.5 11.95 14.2437 11.8906 13.9531C11.4094 11.6937 9.40312 10 7 10C4.59687 10 2.59062 11.6937 2.10937 13.9531C2.04687 14.2437 2.28125 14.5 2.57812 14.5H11.4219Z" fill="black"/>
</svg>
