<svg width="24" height="24" viewBox="0 0 24 24" fill="none" xmlns="http://www.w3.org/2000/svg">
<path d="M7.31249 14.4531C7.19374 14.7281 7.24999 15.0469 7.45624 15.2656L11.7062 19.7656C11.8469 19.9156 12.0437 20 12.25 20C12.4562 20 12.6531 19.9156 12.7937 19.7656L17.0437 15.2656C17.25 15.0469 17.3062 14.7281 17.1875 14.4531C17.0687 14.1781 16.7969 14 16.5 14H13.75V8C13.75 7.44687 14.1969 7 14.75 7H17.25C17.8031 7 18.25 6.55313 18.25 6V5C18.25 4.44687 17.8031 4 17.25 4H14.75C12.5406 4 10.75 5.79063 10.75 8V14H7.99999C7.69999 14 7.43124 14.1781 7.31249 14.4531Z" fill="black"/>
</svg>
