<svg width="24" height="24" viewBox="0 0 24 24" fill="none" xmlns="http://www.w3.org/2000/svg">
<path d="M15.0001 7.5C15.0001 6.67188 15.672 6 16.5001 6C17.3282 6 18.0001 6.67188 18.0001 7.5V12.6406C18.0001 13.1812 18.222 13.6375 18.4782 13.9688C18.8064 14.3938 19.0001 14.9219 19.0001 15.5C19.0001 16.8813 17.8814 18 16.5001 18C15.1189 18 14.0001 16.8813 14.0001 15.5C14.0001 14.9219 14.1939 14.3938 14.522 13.9719C14.7782 13.6406 15.0001 13.1844 15.0001 12.6438V7.5ZM16.5001 4C14.5657 4 13.0001 5.56562 13.0001 7.5V12.6375C13.0001 12.6406 12.997 12.6469 12.9939 12.6562C12.9876 12.675 12.9689 12.7062 12.9407 12.7437C12.3501 13.5062 12.0001 14.4625 12.0001 15.4969C12.0001 17.9812 14.0157 19.9969 16.5001 19.9969C18.9845 19.9969 21.0001 17.9812 21.0001 15.4969C21.0001 14.4594 20.647 13.5031 20.0595 12.7437C20.0314 12.7062 20.0126 12.675 20.0064 12.6562C20.0032 12.6469 20.0001 12.6406 20.0001 12.6375V7.5C20.0001 5.56562 18.4345 4 16.5001 4ZM16.5001 17C17.3282 17 18.0001 16.3281 18.0001 15.5C18.0001 14.8469 17.5814 14.2906 17.0001 14.0844V12.5C17.0001 12.225 16.7751 12 16.5001 12C16.2251 12 16.0001 12.225 16.0001 12.5V14.0844C15.4189 14.2906 15.0001 14.8469 15.0001 15.5C15.0001 16.3281 15.672 17 16.5001 17ZM12.0001 8.1125L9.25011 9.7V7.95625L10.3532 6.85313C10.547 6.65938 10.547 6.34062 10.3532 6.14687C10.1595 5.95312 9.84074 5.95312 9.64699 6.14687L9.25011 6.54375V5.75C9.25011 5.33437 8.91574 5 8.50011 5C8.08449 5 7.75011 5.33437 7.75011 5.75V6.54375L7.35324 6.14687C7.15949 5.95312 6.84074 5.95312 6.64699 6.14687C6.45324 6.34062 6.45324 6.65938 6.64699 6.85313L7.75011 7.95625V9.7L6.24074 8.82812L5.83449 7.32188C5.76574 7.05313 5.49074 6.89688 5.22511 6.96875C4.95949 7.04062 4.80011 7.31562 4.87199 7.58125L5.01574 8.12187L4.32824 7.725C3.96886 7.51875 3.50949 7.64062 3.30324 8C3.09699 8.35938 3.21886 8.81875 3.57824 9.025L4.26574 9.42188L3.72511 9.56563C3.45949 9.6375 3.30011 9.9125 3.37199 10.1781C3.44386 10.4437 3.71886 10.6031 3.98449 10.5312L5.49074 10.1281L7.00011 11L5.49074 11.8719L3.98136 11.4688C3.71574 11.3969 3.44074 11.5563 3.36886 11.8219C3.29699 12.0875 3.45636 12.3625 3.72199 12.4344L4.26261 12.5781L3.57511 12.975C3.21886 13.1813 3.09699 13.6406 3.30324 14C3.50949 14.3594 3.96886 14.4812 4.32824 14.275L5.01574 13.8781L4.87199 14.4187C4.80011 14.6844 4.95949 14.9594 5.22511 15.0312C5.49074 15.1031 5.76574 14.9438 5.83761 14.6781L6.24074 13.1719L7.75011 12.3V14.0437L6.64699 15.1469C6.45324 15.3406 6.45324 15.6594 6.64699 15.8531C6.84074 16.0469 7.15949 16.0469 7.35324 15.8531L7.75011 15.4563V16.25C7.75011 16.6656 8.08449 17 8.50011 17C8.91574 17 9.25011 16.6656 9.25011 16.25V15.4563L9.64699 15.8531C9.84074 16.0469 10.1595 16.0469 10.3532 15.8531C10.547 15.6594 10.547 15.3406 10.3532 15.1469L9.25011 14.0437V12.3L11.3657 13.5219C11.5282 13.1 11.7407 12.7031 12.0001 12.3375V12.1562L10.0001 11L12.0001 9.84375V8.1125Z" fill="black"/>
</svg>
