<svg width="24" height="24" viewBox="0 0 24 24" fill="none" xmlns="http://www.w3.org/2000/svg">
<path d="M5.77188 4.20625C5.7375 4.08437 5.62812 4 5.5 4C5.37188 4 5.2625 4.08437 5.22812 4.20625L5 5L4.20625 5.22812C4.08437 5.2625 4 5.37188 4 5.5C4 5.62812 4.08437 5.7375 4.20625 5.77188L5 6L5.22812 6.79375C5.2625 6.91563 5.37188 7 5.5 7C5.62812 7 5.7375 6.91563 5.77188 6.79375L6 6L6.79375 5.77188C6.91563 5.7375 7 5.62812 7 5.5C7 5.37188 6.91563 5.2625 6.79375 5.22812L6 5L5.77188 4.20625ZM12 7C12.3978 7 12.7794 6.84196 13.0607 6.56066C13.342 6.27936 13.5 5.89782 13.5 5.5C13.5 5.10218 13.342 4.72064 13.0607 4.43934C12.7794 4.15804 12.3978 4 12 4C11.6022 4 11.2206 4.15804 10.9393 4.43934C10.658 4.72064 10.5 5.10218 10.5 5.5C10.5 5.89782 10.658 6.27936 10.9393 6.56066C11.2206 6.84196 11.6022 7 12 7ZM8 20H10.75H13.25H16C16.5531 20 17 19.5531 17 19C17 18.4469 16.5531 18 16 18H8C7.44688 18 7 18.4469 7 19C7 19.5531 7.44688 20 8 20ZM16.4812 11L14.9781 9.125C14.4094 8.41563 13.5469 8 12.6375 8H11.3656C10.4562 8 9.59375 8.4125 9.025 9.125L7.52187 11H16.4812ZM19 15L18.7719 14.2063C18.7375 14.0844 18.625 14 18.5 14C18.375 14 18.2625 14.0844 18.2281 14.2063L18 15L17.2063 15.2281C17.0844 15.2625 17 15.375 17 15.5C17 15.625 17.0844 15.7375 17.2063 15.7719L18 16L18.2281 16.7937C18.2625 16.9156 18.375 17 18.5 17C18.625 17 18.7375 16.9156 18.7719 16.7937L19 16L19.7937 15.7719C19.9156 15.7375 20 15.625 20 15.5C20 15.375 19.9156 15.2625 19.7937 15.2281L19 15ZM7.5 12C7.225 12 7 12.225 7 12.5C7 12.775 7.225 13 7.5 13H16.5C16.775 13 17 12.775 17 12.5C17 12.225 16.775 12 16.5 12H7.5ZM9.5 14C9.225 14 9 14.225 9 14.5C9 14.775 9.225 15 9.5 15H14.5C14.775 15 15 14.775 15 14.5C15 14.225 14.775 14 14.5 14H9.5ZM9.5 16C9.225 16 9 16.225 9 16.5C9 16.775 9.225 17 9.5 17H14.5C14.775 17 15 16.775 15 16.5C15 16.225 14.775 16 14.5 16H9.5Z" fill="black"/>
</svg>
