<svg width="24" height="24" viewBox="0 0 24 24" fill="none" xmlns="http://www.w3.org/2000/svg">
<path d="M20 6V15H4V6H20ZM4 4C2.89688 4 2 4.89688 2 6V15C2 16.1031 2.89688 17 4 17H20C21.1031 17 22 16.1031 22 15V6C22 4.89688 21.1031 4 20 4H4ZM5 19C5 19.5531 5.44687 20 6 20H18C18.5531 20 19 19.5531 19 19C19 18.4469 18.5531 18 18 18H6C5.44687 18 5 18.4469 5 19ZM15 7.5C15 7.3375 14.9188 7.18125 14.7844 7.0875C14.65 6.99375 14.4781 6.97188 14.325 7.03125L10.325 8.53125C10.1312 8.60312 10 8.79063 10 9V10.5V12.0562C9.84375 12.0187 9.675 12 9.5 12C8.67188 12 8 12.4469 8 13C8 13.5531 8.67188 14 9.5 14C10.3281 14 11 13.5531 11 13V10.8469L14 9.72188V11.0563C13.8438 11.0188 13.675 11 13.5 11C12.6719 11 12 11.4469 12 12C12 12.5531 12.6719 13 13.5 13C14.3281 13 15 12.5531 15 12V9V7.5Z" fill="black"/>
</svg>
