<svg width="24" height="24" viewBox="0 0 24 24" fill="none" xmlns="http://www.w3.org/2000/svg">
<path d="M13.7937 18.9719C14.6062 18.8094 15.1344 18.0188 14.9719 17.2063L14.9 16.85C14.7344 16.0156 14.4281 15.2219 14 14.5H18.5C19.3281 14.5 20 13.8281 20 13C20 12.4219 19.6719 11.9187 19.1906 11.6687C19.5313 11.3937 19.75 10.9719 19.75 10.5C19.75 9.76875 19.225 9.15937 18.5344 9.02812C18.6719 8.8 18.75 8.53438 18.75 8.25C18.75 7.58438 18.3156 7.01875 17.7156 6.825C17.7375 6.72188 17.75 6.6125 17.75 6.5C17.75 5.67188 17.0781 5 16.25 5H13.2031C12.6094 5 12.0312 5.175 11.5375 5.50312L10.3344 6.30625C9.5 6.8625 9 7.8 9 8.80312V10V11.5V12.2781C9 13.1906 9.41562 14.05 10.125 14.6219L10.3562 14.8062C11.1844 15.4687 11.75 16.4 11.9563 17.4375L12.0281 17.7937C12.1906 18.6062 12.9812 19.1344 13.7937 18.9719ZM5 16H7C7.55313 16 8 15.5531 8 15V8C8 7.44687 7.55313 7 7 7H5C4.44687 7 4 7.44687 4 8V15C4 15.5531 4.44687 16 5 16Z" fill="black"/>
</svg>
