<svg width="24" height="24" viewBox="0 0 24 24" fill="none" xmlns="http://www.w3.org/2000/svg">
<path d="M4.95625 4.07182C4.44375 3.86557 3.8625 4.11244 3.65312 4.62494C3.23125 5.66869 3 6.80932 3 7.99994C3 9.19057 3.23125 10.3312 3.65312 11.3749C3.85938 11.8874 4.44375 12.1343 4.95625 11.9281C5.46875 11.7218 5.71563 11.1374 5.50938 10.6249C5.18125 9.81557 5 8.93119 5 7.99994C5 7.06869 5.18125 6.18432 5.50938 5.37494C5.71563 4.86244 5.46875 4.28119 4.95625 4.07182ZM19.0438 4.07182C18.5313 4.28119 18.2844 4.86244 18.4906 5.37494C18.8188 6.18432 19 7.06869 19 7.99994C19 8.93119 18.8188 9.81557 18.4906 10.6249C18.2844 11.1374 18.5313 11.7187 19.0438 11.9281C19.5563 12.1374 20.1375 11.8874 20.3469 11.3749C20.7687 10.3312 21 9.19057 21 7.99994C21 6.80932 20.7687 5.66869 20.3469 4.62494C20.1375 4.11244 19.5563 3.86557 19.0438 4.07182ZM13.6281 9.16244C13.8625 8.83432 14 8.43432 14 7.99994C14 6.89682 13.1031 5.99994 12 5.99994C10.8969 5.99994 10 6.89682 10 7.99994C10 8.43432 10.1375 8.83432 10.3719 9.16244L6.09063 18.5874C5.8625 19.0906 6.08438 19.6843 6.5875 19.9124C7.09063 20.1406 7.68437 19.9187 7.9125 19.4156L8.55312 17.9999H15.4469L16.0906 19.4124C16.3187 19.9156 16.9125 20.1374 17.4156 19.9093C17.9187 19.6812 18.1406 19.0874 17.9125 18.5843L13.6281 9.16244ZM14.5375 15.9999H9.4625L9.91563 14.9999H14.0844L14.5375 15.9999ZM12 10.4156L13.175 12.9999H10.825L12 10.4156ZM8.10313 6.29994C8.26875 5.92182 8.09687 5.47807 7.71562 5.31244C7.33437 5.14682 6.89375 5.31869 6.72813 5.69994C6.42188 6.40619 6.25 7.18432 6.25 7.99994C6.25 8.81557 6.42188 9.59369 6.72813 10.2999C6.89375 10.6781 7.3375 10.8531 7.71562 10.6874C8.09375 10.5218 8.26875 10.0781 8.10313 9.69994C7.875 9.18119 7.75 8.60619 7.75 7.99994C7.75 7.39369 7.875 6.81869 8.10313 6.29994ZM17.2719 5.69994C17.1063 5.32182 16.6625 5.14682 16.2844 5.31244C15.9062 5.47807 15.7313 5.92182 15.8969 6.29994C16.125 6.81869 16.25 7.39369 16.25 7.99994C16.25 8.60619 16.125 9.18119 15.8969 9.69994C15.7313 10.0781 15.9031 10.5218 16.2844 10.6874C16.6656 10.8531 17.1063 10.6812 17.2719 10.2999C17.5781 9.59369 17.75 8.81557 17.75 7.99994C17.75 7.18432 17.5781 6.40619 17.2719 5.69994Z" fill="black"/>
</svg>
