<svg width="24" height="24" viewBox="0 0 24 24" fill="none" xmlns="http://www.w3.org/2000/svg">
<path d="M9.69375 6.21875L11.1656 5.66562L11.7188 4.19375C11.7625 4.075 11.875 4 12 4C12.125 4 12.2375 4.07812 12.2812 4.19375L12.8344 5.66562L14.3062 6.21875C14.425 6.2625 14.5 6.375 14.5 6.5C14.5 6.625 14.4219 6.7375 14.3062 6.78125L12.8344 7.33437L12.2812 8.80625C12.2375 8.925 12.125 9 12 9C11.875 9 11.7625 8.92188 11.7188 8.80625L11.1656 7.33437L9.69375 6.78125C9.575 6.7375 9.5 6.625 9.5 6.5C9.5 6.375 9.57812 6.2625 9.69375 6.21875ZM13.2188 9.15625L13.5875 8.17188L18.0875 13.7969C18.1937 13.9281 18.25 14.0906 18.25 14.2594C18.25 14.6687 17.9187 15 17.5094 15H16.5L18.8813 18.8125C18.9594 18.9375 19 19.0781 19 19.225C19 19.6531 18.6531 20.0031 18.2219 20.0031H5.77812C5.34687 20 5 19.6531 5 19.2219C5 19.075 5.04062 18.9344 5.11875 18.8094L7.5 15H6.49063C6.08125 15 5.75 14.6687 5.75 14.2594C5.75 14.0906 5.80625 13.9281 5.9125 13.7969L10.4125 8.17188L10.7812 9.15625C10.9719 9.6625 11.4563 10 12 10C12.5437 10 13.0281 9.6625 13.2188 9.15625ZM10.75 13C10.75 12.8011 10.671 12.6103 10.5303 12.4697C10.3897 12.329 10.1989 12.25 10 12.25C9.80109 12.25 9.61032 12.329 9.46967 12.4697C9.32902 12.6103 9.25 12.8011 9.25 13C9.25 13.1989 9.32902 13.3897 9.46967 13.5303C9.61032 13.671 9.80109 13.75 10 13.75C10.1989 13.75 10.3897 13.671 10.5303 13.5303C10.671 13.3897 10.75 13.1989 10.75 13ZM14 17.75C14.1989 17.75 14.3897 17.671 14.5303 17.5303C14.671 17.3897 14.75 17.1989 14.75 17C14.75 16.8011 14.671 16.6103 14.5303 16.4697C14.3897 16.329 14.1989 16.25 14 16.25C13.8011 16.25 13.6103 16.329 13.4697 16.4697C13.329 16.6103 13.25 16.8011 13.25 17C13.25 17.1989 13.329 17.3897 13.4697 17.5303C13.6103 17.671 13.8011 17.75 14 17.75Z" fill="black"/>
</svg>
