<svg width="24" height="24" viewBox="0 0 24 24" fill="none" xmlns="http://www.w3.org/2000/svg">
<path d="M4 6.5C4 5.11875 5.11875 4 6.5 4H17.5C18.8813 4 20 5.11875 20 6.5V15.5C20 16.3188 19.6062 17.0437 19 17.5V19C19 19.5531 18.5531 20 18 20H17C16.4469 20 16 19.5531 16 19V18H8V19C8 19.5531 7.55313 20 7 20H6C5.44687 20 5 19.5531 5 19V17.5C4.39375 17.0437 4 16.3188 4 15.5V6.5ZM8.05937 8.75625L7.5 11H16.5L15.9406 8.75625C15.8281 8.3125 15.4281 8 14.9688 8H9.03125C8.57188 8 8.17188 8.3125 8.0625 8.75625H8.05937ZM8 14C8 13.7348 7.89464 13.4804 7.70711 13.2929C7.51957 13.1054 7.26522 13 7 13C6.73478 13 6.48043 13.1054 6.29289 13.2929C6.10536 13.4804 6 13.7348 6 14C6 14.2652 6.10536 14.5196 6.29289 14.7071C6.48043 14.8946 6.73478 15 7 15C7.26522 15 7.51957 14.8946 7.70711 14.7071C7.89464 14.5196 8 14.2652 8 14ZM17 15C17.2652 15 17.5196 14.8946 17.7071 14.7071C17.8946 14.5196 18 14.2652 18 14C18 13.7348 17.8946 13.4804 17.7071 13.2929C17.5196 13.1054 17.2652 13 17 13C16.7348 13 16.4804 13.1054 16.2929 13.2929C16.1054 13.4804 16 13.7348 16 14C16 14.2652 16.1054 14.5196 16.2929 14.7071C16.4804 14.8946 16.7348 15 17 15Z" fill="black"/>
</svg>
