<svg width="24" height="24" viewBox="0 0 24 24" fill="none" xmlns="http://www.w3.org/2000/svg">
<path d="M12 5C7.58125 5 4 8.58125 4 13C4 14.4781 4.4 15.8656 5.1 17.0531C4.46563 17.2281 4 17.8094 4 18.5C4 19.3281 4.67188 20 5.5 20H18.5C19.3281 20 20 19.3281 20 18.5C20 17.8094 19.5344 17.2281 18.9 17.0531C19.6 15.8656 20 14.4781 20 13C20 8.58125 16.4187 5 12 5ZM15 17C14.9344 17.05 14.8656 17.1 14.7937 17.1469C13.9969 17.6844 13.0344 18 12 18C10.875 18 9.83437 17.6281 9 17C7.78437 16.0875 7 14.6344 7 13C7 10.2375 9.2375 8 12 8C14.7625 8 17 10.2375 17 13C17 14.6344 16.2156 16.0875 15 17ZM12 14C12.2652 14 12.5196 13.8946 12.7071 13.7071C12.8946 13.5196 13 13.2652 13 13C13 12.7348 12.8946 12.4804 12.7071 12.2929C12.5196 12.1054 12.2652 12 12 12C11.7348 12 11.4804 12.1054 11.2929 12.2929C11.1054 12.4804 11 12.7348 11 13C11 13.2652 11.1054 13.5196 11.2929 13.7071C11.4804 13.8946 11.7348 14 12 14ZM12.5 16.9688C13.8844 16.7969 15.0469 15.9187 15.6187 14.7063L13.6844 14.0781C13.4156 14.5 12.9937 14.8125 12.4969 14.9406V16.9719L12.5 16.9688ZM15.9281 13.7563C15.975 13.5125 16 13.2594 16 13C16 11.85 15.5156 10.8156 14.7406 10.0844L13.5469 11.7281C13.8313 12.0719 14 12.5156 14 12.9969C14 13.0406 14 13.0813 13.9969 13.1219L15.9281 13.75V13.7563ZM12 11C12.2594 11 12.5094 11.05 12.7375 11.1406L13.9312 9.49687C13.3594 9.18125 12.7 9 12 9C11.3 9 10.6406 9.18125 10.0687 9.49687L10.9469 10.7094L11.2594 11.1406C11.4875 11.05 11.7375 11 11.9969 11H12ZM8 13C8 13.2594 8.025 13.5094 8.07188 13.7563L10.0031 13.125C10 13.0844 10 13.0406 10 13C10 12.5188 10.1719 12.075 10.4531 11.7312L10.1375 11.2969L9.25938 10.0875C8.48438 10.8156 8 11.85 8 13ZM8.38125 14.7063C8.95312 15.9187 10.1156 16.7969 11.5 16.9688V14.9375C11.0062 14.8094 10.5844 14.4969 10.3156 14.0781L8.38125 14.7063Z" fill="black"/>
</svg>
