<svg width="24" height="24" viewBox="0 0 24 24" fill="none" xmlns="http://www.w3.org/2000/svg">
<path d="M7.06255 9.54688C6.9438 9.27187 7.00005 8.95312 7.2063 8.73438L11.4563 4.23438C11.5969 4.08437 11.7938 4 12 4C12.2063 4 12.4032 4.08437 12.5438 4.23438L16.7938 8.73438C17 8.95312 17.0563 9.27187 16.9375 9.54688C16.8188 9.82188 16.5469 10 16.25 10H13.5V16C13.5 16.5531 13.9469 17 14.5 17H17C17.5532 17 18 17.4469 18 18V19C18 19.5531 17.5532 20 17 20H14.5C12.2907 20 10.5 18.2094 10.5 16V10H7.75005C7.45005 10 7.1813 9.82188 7.06255 9.54688Z" fill="black"/>
</svg>
