<svg width="24" height="24" viewBox="0 0 24 24" fill="none" xmlns="http://www.w3.org/2000/svg">
<path d="M21.9998 4V16.5C21.9998 18.4344 20.4342 20 18.4998 20C16.5935 20 15.0467 18.4781 14.9998 16.5844L3.51229 19.7156C2.97792 19.8594 2.43104 19.5469 2.28417 19.0125C2.13729 18.4781 2.45292 17.9313 2.98729 17.7844L12.9998 15.0562V6C12.9998 4.89688 13.8967 4 14.9998 4H21.9998ZM19.9998 16.5C19.9998 16.1022 19.8418 15.7206 19.5604 15.4393C19.2791 15.158 18.8976 15 18.4998 15C18.102 15 17.7204 15.158 17.4391 15.4393C17.1578 15.7206 16.9998 16.1022 16.9998 16.5C16.9998 16.8978 17.1578 17.2794 17.4391 17.5607C17.7204 17.842 18.102 18 18.4998 18C18.8976 18 19.2791 17.842 19.5604 17.5607C19.8418 17.2794 19.9998 16.8978 19.9998 16.5ZM11.2029 10.5375C11.4748 10.4656 11.7467 10.4719 11.9998 10.5437V14.4625L10.7904 14.7875L5.95917 16.0813L4.02792 16.6C3.49354 16.7438 2.94667 16.425 2.80292 15.8938L2.41542 14.4438C2.19979 13.6438 2.67479 12.8219 3.47479 12.6062C4.27479 12.3906 5.09667 12.8656 5.31229 13.6656L5.44042 14.15L10.2685 12.8562L10.1404 12.3719C9.92479 11.5719 10.3998 10.75 11.1998 10.5344L11.2029 10.5375ZM2.24979 11.9C1.96542 10.8344 2.59667 9.7375 3.66542 9.45L9.46229 7.89687C10.5279 7.6125 11.6248 8.24375 11.9123 9.3125L11.9654 9.5125C11.6342 9.4625 11.2904 9.47813 10.9467 9.57188C9.77792 9.88438 9.02479 10.975 9.09667 12.1375L6.09979 12.9375C5.58104 11.8937 4.38417 11.3281 3.21542 11.6406C2.87167 11.7313 2.56542 11.8906 2.30292 12.1L2.24979 11.9Z" fill="black"/>
</svg>
