<svg width="24" height="24" viewBox="0 0 24 24" fill="none" xmlns="http://www.w3.org/2000/svg">
<path d="M7 5C6.44687 5 6 5.44687 6 6C6 6.55313 6.44687 7 7 7H11V10.2188L7.75625 11.0312C7.22188 11.1656 6.89375 11.7094 7.02813 12.2437C7.1625 12.7781 7.70625 13.1063 8.24062 12.9719L11 12.2812V13.2188L7.75625 14.0312C7.22188 14.1656 6.89375 14.7094 7.02813 15.2437C7.1625 15.7781 7.70625 16.1063 8.24062 15.9719L11 15.2812V18C11 18.5531 11.4469 19 12 19C12.5531 19 13 18.5531 13 18V14.7812L16.2437 13.9688C16.7781 13.8344 17.1063 13.2906 16.9719 12.7563C16.8375 12.2219 16.2937 11.8937 15.7594 12.0281L13 12.7188V11.7812L16.2437 10.9688C16.7781 10.8344 17.1063 10.2906 16.9719 9.75625C16.8375 9.22187 16.2937 8.89375 15.7594 9.02812L13 9.71875V7H17C17.5531 7 18 6.55313 18 6C18 5.44687 17.5531 5 17 5H12H7Z" fill="black"/>
</svg>
