<svg width="24" height="24" viewBox="0 0 24 24" fill="none" xmlns="http://www.w3.org/2000/svg">
<path d="M12 20C14.1217 20 16.1566 19.1571 17.6569 17.6569C19.1571 16.1566 20 14.1217 20 12C20 9.87827 19.1571 7.84344 17.6569 6.34315C16.1566 4.84285 14.1217 4 12 4C9.87827 4 7.84344 4.84285 6.34315 6.34315C4.84285 7.84344 4 9.87827 4 12C4 14.1217 4.84285 16.1566 6.34315 17.6569C7.84344 19.1571 9.87827 20 12 20ZM13 12C13 11.7348 12.8946 11.4804 12.7071 11.2929C12.5196 11.1054 12.2652 11 12 11C11.7348 11 11.4804 11.1054 11.2929 11.2929C11.1054 11.4804 11 11.7348 11 12C11 12.2652 11.1054 12.5196 11.2929 12.7071C11.4804 12.8946 11.7348 13 12 13C12.2652 13 12.5196 12.8946 12.7071 12.7071C12.8946 12.5196 13 12.2652 13 12ZM12.4969 13.9375V15.9688C13.8812 15.7969 15.0438 14.9187 15.6156 13.7063L13.6812 13.0781C13.4125 13.5 12.9906 13.8125 12.4937 13.9406L12.4969 13.9375ZM13.9937 12.125L15.925 12.7531C15.9719 12.5094 15.9969 12.2562 15.9969 11.9969C15.9969 10.8469 15.5125 9.8125 14.7375 9.08125L13.5437 10.725C13.8281 11.0687 13.9969 11.5125 13.9969 11.9938C13.9969 12.0375 13.9969 12.0781 13.9937 12.1187V12.125ZM12.7375 10.1406L13.9312 8.49687C13.3594 8.18125 12.7 8 12 8C11.3 8 10.6406 8.18125 10.0687 8.49687L10.9469 9.70937L11.2594 10.1406C11.4875 10.05 11.7375 10 11.9969 10C12.2562 10 12.5063 10.05 12.7344 10.1406H12.7375ZM9.25938 9.08437C8.48438 9.81562 8 10.85 8 12C8 12.2594 8.025 12.5094 8.07188 12.7563L10.0031 12.125C10 12.0844 10 12.0406 10 12C10 11.5188 10.1719 11.075 10.4531 10.7312L10.1375 10.2969L9.25938 9.0875V9.08437ZM10.3125 13.075L8.37813 13.7031C8.95 14.9156 10.1125 15.7937 11.4969 15.9656V13.9344C11.0031 13.8062 10.5813 13.4937 10.3125 13.075ZM12 7C13.3261 7 14.5979 7.52678 15.5355 8.46447C16.4732 9.40215 17 10.6739 17 12C17 13.3261 16.4732 14.5979 15.5355 15.5355C14.5979 16.4732 13.3261 17 12 17C10.6739 17 9.40215 16.4732 8.46447 15.5355C7.52678 14.5979 7 13.3261 7 12C7 10.6739 7.52678 9.40215 8.46447 8.46447C9.40215 7.52678 10.6739 7 12 7Z" fill="black"/>
</svg>
