<svg width="24" height="24" viewBox="0 0 24 24" fill="none" xmlns="http://www.w3.org/2000/svg">
<path d="M5 4H6.55C6.83438 4 7.10625 4.12187 7.29688 4.33437L14 11.875V8C14 7.44687 14.4469 7 15 7H17.5844C18.1156 7 18.625 7.20937 19 7.58437L21.4156 10C21.7906 10.375 22 10.8844 22 11.4156V12V13V15.75C22 16.4406 21.4406 17 20.75 17H20C20 18.6562 18.6562 20 17 20C15.3438 20 14 18.6562 14 17H10C10 18.6562 8.65625 20 7 20C5.34375 20 4 18.6562 4 17H3.5C2.67188 17 2 16.3281 2 15.5V13.5C2 12.6719 2.67188 12 3.5 12H8L5 6V9.5C5 10.3281 4.32812 11 3.5 11C2.67188 11 2 10.3281 2 9.5V9C2 8.725 2.225 8.5 2.5 8.5C2.775 8.5 3 8.725 3 9V9.5C3 9.775 3.225 10 3.5 10C3.775 10 4 9.775 4 9.5V5C4 4.44687 4.44687 4 5 4ZM20 12V11.4156L17.5844 9H16V12H20ZM8.5 17C8.5 16.6022 8.34196 16.2206 8.06066 15.9393C7.77936 15.658 7.39782 15.5 7 15.5C6.60218 15.5 6.22064 15.658 5.93934 15.9393C5.65804 16.2206 5.5 16.6022 5.5 17C5.5 17.3978 5.65804 17.7794 5.93934 18.0607C6.22064 18.342 6.60218 18.5 7 18.5C7.39782 18.5 7.77936 18.342 8.06066 18.0607C8.34196 17.7794 8.5 17.3978 8.5 17ZM17 18.5C17.3978 18.5 17.7794 18.342 18.0607 18.0607C18.342 17.7794 18.5 17.3978 18.5 17C18.5 16.6022 18.342 16.2206 18.0607 15.9393C17.7794 15.658 17.3978 15.5 17 15.5C16.6022 15.5 16.2206 15.658 15.9393 15.9393C15.658 16.2206 15.5 16.6022 15.5 17C15.5 17.3978 15.658 17.7794 15.9393 18.0607C16.2206 18.342 16.6022 18.5 17 18.5Z" fill="black"/>
</svg>
