<svg width="24" height="24" viewBox="0 0 24 24" fill="none" xmlns="http://www.w3.org/2000/svg">
<path d="M6 6.25C6.19891 6.25 6.38968 6.32902 6.53033 6.46967C6.67098 6.61032 6.75 6.80109 6.75 7C6.75 7.19891 6.67098 7.38968 6.53033 7.53033C6.38968 7.67098 6.19891 7.75 6 7.75C5.80109 7.75 5.61032 7.67098 5.46967 7.53033C5.32902 7.38968 5.25 7.19891 5.25 7C5.25 6.80109 5.32902 6.61032 5.46967 6.46967C5.61032 6.32902 5.80109 6.25 6 6.25ZM7 9.29063C7.88438 8.90625 8.5 8.025 8.5 7C8.5 5.61875 7.38125 4.5 6 4.5C4.61875 4.5 3.5 5.61875 3.5 7C3.5 8.025 4.11562 8.90625 5 9.29063V11H3C2.44687 11 2 11.4469 2 12C2 12.5531 2.44687 13 3 13H11V14.7094C10.1156 15.0938 9.5 15.975 9.5 17C9.5 18.3813 10.6187 19.5 12 19.5C13.3813 19.5 14.5 18.3813 14.5 17C14.5 15.975 13.8844 15.0938 13 14.7094V13H21C21.5531 13 22 12.5531 22 12C22 11.4469 21.5531 11 21 11H19V9.29063C19.8844 8.90625 20.5 8.025 20.5 7C20.5 5.61875 19.3813 4.5 18 4.5C16.6187 4.5 15.5 5.61875 15.5 7C15.5 8.025 16.1156 8.90625 17 9.29063V11H7V9.29063ZM17.25 7C17.25 6.80109 17.329 6.61032 17.4697 6.46967C17.6103 6.32902 17.8011 6.25 18 6.25C18.1989 6.25 18.3897 6.32902 18.5303 6.46967C18.671 6.61032 18.75 6.80109 18.75 7C18.75 7.19891 18.671 7.38968 18.5303 7.53033C18.3897 7.67098 18.1989 7.75 18 7.75C17.8011 7.75 17.6103 7.67098 17.4697 7.53033C17.329 7.38968 17.25 7.19891 17.25 7ZM12 16.25C12.1989 16.25 12.3897 16.329 12.5303 16.4697C12.671 16.6103 12.75 16.8011 12.75 17C12.75 17.1989 12.671 17.3897 12.5303 17.5303C12.3897 17.671 12.1989 17.75 12 17.75C11.8011 17.75 11.6103 17.671 11.4697 17.5303C11.329 17.3897 11.25 17.1989 11.25 17C11.25 16.8011 11.329 16.6103 11.4697 16.4697C11.6103 16.329 11.8011 16.25 12 16.25Z" fill="black"/>
</svg>
