<svg width="24" height="24" viewBox="0 0 24 24" fill="none" xmlns="http://www.w3.org/2000/svg">
<path d="M10.75 4C10.3344 4 10 4.33437 10 4.75C10 5.16562 10.3344 5.5 10.75 5.5H11.25V7H10C9.44692 7 9.00004 7.44688 9.00004 8H6.33129C5.50004 8 4.90004 8.79375 5.12817 9.59375L6.39067 14.0063C5.89067 14.0594 5.50004 14.4844 5.50004 15C5.50004 15.5531 5.94692 16 6.50004 16H7.50004V19C7.50004 19.5531 7.94692 20 8.50004 20H15.5C16.0532 20 16.5 19.5531 16.5 19V16H17.5C18.0532 16 18.5 15.5531 18.5 15C18.5 14.4844 18.1094 14.0594 17.6094 14.0063L18.8719 9.59375C19.1 8.79375 18.5 8 17.6688 8H15C15 7.44688 14.5532 7 14 7H12.75V5.5H13.25C13.6657 5.5 14 5.16562 14 4.75C14 4.33437 13.6657 4 13.25 4H12H10.75ZM9.00004 10V14H8.46879C8.46567 13.9906 8.46567 13.9844 8.46254 13.975L7.32504 10H9.00004ZM10.5 14V10H13.5V14H10.5ZM15 10H16.675L15.5375 13.975L15.5344 13.9844L15.5313 14H15V10Z" fill="black"/>
</svg>
