<svg width="24" height="24" viewBox="0 0 24 24" fill="none" xmlns="http://www.w3.org/2000/svg">
<path d="M16 6.5C15.6406 6.5 15.2969 6.575 14.9875 6.7125C14.8438 5.19063 13.5594 4 12 4C10.4406 4 9.15625 5.19063 9.0125 6.7125C8.70312 6.575 8.35938 6.5 8 6.5C6.61875 6.5 5.5 7.61875 5.5 9C5.5 9.45 5.61875 9.87188 5.82812 10.2375C4.75312 10.6938 4 11.7594 4 13C4 14.6562 5.34375 16 7 16H11V19C11 19.5531 11.4469 20 12 20C12.5531 20 13 19.5531 13 19V16H17C18.6562 16 20 14.6562 20 13C20 11.7594 19.2469 10.6938 18.1719 10.2375C18.3813 9.87188 18.5 9.45 18.5 9C18.5 7.61875 17.3813 6.5 16 6.5Z" fill="black"/>
</svg>
