<svg width="24" height="24" viewBox="0 0 24 24" fill="none" xmlns="http://www.w3.org/2000/svg">
<path d="M15 8C17.2094 8 19 9.79063 19 12C19 14.2094 17.2094 16 15 16H9C6.79063 16 5 14.2094 5 12C5 9.79063 6.79063 8 9 8H15ZM21 12C21 8.6875 18.3125 6 15 6H9C5.6875 6 3 8.6875 3 12C3 15.3125 5.6875 18 9 18H15C18.3125 18 21 15.3125 21 12ZM9 15C9.79565 15 10.5587 14.6839 11.1213 14.1213C11.6839 13.5587 12 12.7956 12 12C12 11.2044 11.6839 10.4413 11.1213 9.87868C10.5587 9.31607 9.79565 9 9 9C8.20435 9 7.44129 9.31607 6.87868 9.87868C6.31607 10.4413 6 11.2044 6 12C6 12.7956 6.31607 13.5587 6.87868 14.1213C7.44129 14.6839 8.20435 15 9 15Z" fill="black"/>
</svg>
