<svg width="24" height="24" viewBox="0 0 24 24" fill="none" xmlns="http://www.w3.org/2000/svg">
<path d="M9.54688 6.06249C9.27187 5.94374 8.95312 5.99999 8.73438 6.20624L4.23438 10.4562C4.08437 10.5969 4 10.7937 4 11C4 11.2062 4.08437 11.4031 4.23438 11.5437L8.73438 15.7937C8.95312 16 9.27187 16.0562 9.54688 15.9375C9.82188 15.8187 10 15.5469 10 15.25V12.5H16C16.5531 12.5 17 12.9469 17 13.5V18C17 18.5531 17.4469 19 18 19H19C19.5531 19 20 18.5531 20 18V13.5C20 11.2906 18.2094 9.49999 16 9.49999H10V6.74999C10 6.44999 9.82188 6.18124 9.54688 6.06249Z" fill="black"/>
</svg>
