<svg width="24" height="24" viewBox="0 0 24 24" fill="none" xmlns="http://www.w3.org/2000/svg">
<path d="M13.9344 7L13.2469 5.74063L12.8438 5H17C18.1031 5 19 5.89688 19 7V17C19 18.1031 18.1031 19 17 19H7C5.89688 19 5 18.1031 5 17V7C5 5.89688 5.89688 5 7 5H11.1562L10.7531 5.74063L10.0656 7H7V13.3094C7.25938 13.2156 7.50625 13.0969 7.72813 12.9719C7.94375 12.85 8.1375 12.7156 8.31875 12.575C8.72187 12.2625 9.275 12.2625 9.675 12.575C9.85938 12.7187 10.05 12.85 10.2656 12.9719C10.7594 13.2531 11.375 13.4969 11.9906 13.5H12.0031C12.6156 13.5 13.2312 13.2531 13.7281 12.9719C13.9437 12.85 14.1375 12.7156 14.3188 12.575C14.7219 12.2625 15.275 12.2625 15.675 12.575C15.8594 12.7187 16.05 12.85 16.2688 12.975C16.4906 13.1 16.7375 13.2219 17 13.3125V7H13.9344ZM10.4688 8.35L11.6312 6.21875C11.7062 6.08437 11.8469 6 12 6C12.1531 6 12.2969 6.08437 12.3688 6.21875L13.5312 8.35C13.675 8.6125 13.75 8.90937 13.75 9.20937V9.25C13.75 10.2156 12.9656 11 12 11C11.0344 11 10.25 10.2156 10.25 9.25V9.20625C10.25 8.90625 10.325 8.6125 10.4688 8.34688V8.35Z" fill="black"/>
</svg>
