<svg width="24" height="24" viewBox="0 0 24 24" fill="none" xmlns="http://www.w3.org/2000/svg">
<path d="M12 9.00005C10.8969 9.00005 10 8.15942 10 7.12505C10 6.37505 11.0531 4.93442 11.6313 4.20317C11.8219 3.96255 12.1781 3.96255 12.3687 4.20317C12.9469 4.93442 14 6.37505 14 7.12505C14 8.15942 13.1031 9.00005 12 9.00005ZM5 8.00005H9.17188C9.58437 9.16567 10.6937 10 12 10C13.3062 10 14.4187 9.16567 14.8281 8.00005H19C20.1031 8.00005 21 8.89692 21 10V15H17C16.4469 15 16 15.4469 16 16V20H5C3.89688 20 3 19.1032 3 18V10C3 8.89692 3.89688 8.00005 5 8.00005ZM17 20V16H21L17 20ZM6 12C6.26522 12 6.51957 11.8947 6.70711 11.7072C6.89464 11.5196 7 11.2653 7 11C7 10.7348 6.89464 10.4805 6.70711 10.2929C6.51957 10.1054 6.26522 10 6 10C5.73478 10 5.48043 10.1054 5.29289 10.2929C5.10536 10.4805 5 10.7348 5 11C5 11.2653 5.10536 11.5196 5.29289 11.7072C5.48043 11.8947 5.73478 12 6 12Z" fill="black"/>
</svg>
