<svg width="24" height="24" viewBox="0 0 24 24" fill="none" xmlns="http://www.w3.org/2000/svg">
<path d="M9.5 6.75V8H14.5V6.75C14.5 6.6125 14.3875 6.5 14.25 6.5H9.75C9.6125 6.5 9.5 6.6125 9.5 6.75ZM8 8V6.75C8 5.78438 8.78438 5 9.75 5H14.25C15.2156 5 16 5.78438 16 6.75V8H16.8781C17.275 8 17.6562 8.15938 17.9375 8.44063L19.5594 10.0625C19.8406 10.3438 20 10.725 20 11.1219V14H16V13C16 12.4469 15.5531 12 15 12C14.4469 12 14 12.4469 14 13V14H10V13C10 12.4469 9.55312 12 9 12C8.44688 12 8 12.4469 8 13V14H4V11.1219C4 10.725 4.15938 10.3438 4.44063 10.0625L6.0625 8.44063C6.34375 8.15938 6.725 8 7.12188 8H8ZM4 17V15H8C8 15.5531 8.44688 16 9 16C9.55312 16 10 15.5531 10 15H14C14 15.5531 14.4469 16 15 16C15.5531 16 16 15.5531 16 15H20V17C20 18.1031 19.1031 19 18 19H6C4.89688 19 4 18.1031 4 17Z" fill="black"/>
</svg>
