<svg width="24" height="24" viewBox="0 0 24 24" fill="none" xmlns="http://www.w3.org/2000/svg">
<path d="M21 8C21 6.89688 20.1031 6 19 6H5C3.89688 6 3 6.89688 3 8V16C3 17.1031 3.89688 18 5 18H16V14C16 13.4469 16.4469 13 17 13H21V8ZM17 18L21 14H17V18ZM6 8C6.26522 8 6.51957 8.10536 6.70711 8.29289C6.89464 8.48043 7 8.73478 7 9C7 9.26522 6.89464 9.51957 6.70711 9.70711C6.51957 9.89464 6.26522 10 6 10C5.73478 10 5.48043 9.89464 5.29289 9.70711C5.10536 9.51957 5 9.26522 5 9C5 8.73478 5.10536 8.48043 5.29289 8.29289C5.48043 8.10536 5.73478 8 6 8Z" fill="black"/>
</svg>
