<svg width="24" height="24" viewBox="0 0 24 24" fill="none" xmlns="http://www.w3.org/2000/svg">
<path d="M8.99998 5C9.55311 5 9.99998 5.44687 9.99998 6V7.10313L13.725 6.0375C14.2562 5.88437 14.8094 6.19375 14.9625 6.725C15.1156 7.25625 14.8062 7.80938 14.275 7.9625L9.99998 9.18437V10.1031L13.725 9.0375C14.2562 8.88437 14.8094 9.19375 14.9625 9.725C15.1156 10.2562 14.8062 10.8094 14.275 10.9625L9.99998 12.1844V17H11.9937C14.125 17 15.8812 15.3281 15.9875 13.2L16 12.95C16.0281 12.3969 16.4969 11.975 17.05 12C17.6031 12.025 18.025 12.4969 18 13.05L17.9875 13.3C17.8281 16.4938 15.1906 19 11.9937 19H8.99998C8.44686 19 7.99998 18.5531 7.99998 18V12.7531L7.27498 12.9594C6.74373 13.1125 6.19061 12.8031 6.03748 12.2719C5.88436 11.7406 6.19373 11.1875 6.72498 11.0344L7.99998 10.675V9.75313L7.27498 9.95937C6.74373 10.1125 6.19061 9.80312 6.03748 9.27187C5.88436 8.74062 6.19373 8.1875 6.72498 8.03438L7.99998 7.675V6C7.99998 5.44687 8.44686 5 8.99998 5Z" fill="black"/>
</svg>
