<svg width="24" height="24" viewBox="0 0 24 24" fill="none" xmlns="http://www.w3.org/2000/svg">
<path d="M18.2531 4.19373C17.9438 3.91561 17.4719 3.94061 17.1938 4.24998C16.9156 4.55936 16.9406 5.03123 17.25 5.30936L18.2969 6.24998H5.70312L6.75 5.30623C7.05937 5.02811 7.08437 4.55623 6.80625 4.24686C6.52813 3.93748 6.05625 3.91561 5.74688 4.19373L3.24688 6.44373C3.09063 6.58436 3 6.78748 3 6.99998C3 7.21248 3.09063 7.41561 3.24688 7.55623L5.74688 9.80623C6.05625 10.0844 6.52813 10.0594 6.80625 9.74998C7.08437 9.44061 7.05937 8.96873 6.75 8.69061L5.70312 7.74998H18.2937L17.2469 8.69373C16.9375 8.97186 16.9125 9.44373 17.1906 9.75311C17.4688 10.0625 17.9406 10.0875 18.25 9.80936L20.75 7.55936C20.9094 7.41561 20.9969 7.21561 20.9969 7.00311C20.9969 6.79061 20.9062 6.58748 20.75 6.44686L18.25 4.19686L18.2531 4.19373ZM12.6062 9.20311C12.2469 8.93123 11.7531 8.93123 11.3938 9.20311L6.14375 13.2031C5.9375 13.3594 5.8 13.5937 5.75938 13.85L5.00938 18.85C4.96563 19.1375 5.05 19.4312 5.24062 19.65C5.43125 19.8687 5.70937 20 6 20H10.5H11C11.5531 20 12 19.5531 12 19V15.3094C12 15.1375 12.1375 15 12.3094 15C12.425 15 12.5344 15.0656 12.5844 15.1719L14.7219 19.4469C14.8906 19.7844 15.2375 20 15.6156 20H17.5H18C18.2906 20 18.5688 19.8719 18.7563 19.6531C18.9438 19.4344 19.0312 19.1406 18.9875 18.8531L18.2375 13.8531C18.2 13.5969 18.0625 13.3625 17.8531 13.2062L12.6031 9.20623L12.6062 9.20311Z" fill="black"/>
</svg>
