<svg width="24" height="24" viewBox="0 0 24 24" fill="none" xmlns="http://www.w3.org/2000/svg">
<path d="M4 6C2.89688 6 2 6.89688 2 8V16C2 17.1031 2.89688 18 4 18H20C21.1031 18 22 17.1031 22 16V14.5C22 14.225 21.7719 14.0063 21.5063 13.9375C20.6406 13.7188 20 12.9344 20 12C20 11.0656 20.6406 10.2812 21.5063 10.0625C21.775 9.99375 22 9.77813 22 9.5V8C22 6.89688 21.1031 6 20 6H4ZM15 8C15 7.86739 15.0527 7.74021 15.1464 7.64645C15.2402 7.55268 15.3674 7.5 15.5 7.5C15.6326 7.5 15.7598 7.55268 15.8536 7.64645C15.9473 7.74021 16 7.86739 16 8C16 8.13261 15.9473 8.25979 15.8536 8.35355C15.7598 8.44732 15.6326 8.5 15.5 8.5C15.3674 8.5 15.2402 8.44732 15.1464 8.35355C15.0527 8.25979 15 8.13261 15 8ZM15 10C15 9.86739 15.0527 9.74021 15.1464 9.64645C15.2402 9.55268 15.3674 9.5 15.5 9.5C15.6326 9.5 15.7598 9.55268 15.8536 9.64645C15.9473 9.74021 16 9.86739 16 10C16 10.1326 15.9473 10.2598 15.8536 10.3536C15.7598 10.4473 15.6326 10.5 15.5 10.5C15.3674 10.5 15.2402 10.4473 15.1464 10.3536C15.0527 10.2598 15 10.1326 15 10ZM15.5 11.5C15.6326 11.5 15.7598 11.5527 15.8536 11.6464C15.9473 11.7402 16 11.8674 16 12C16 12.1326 15.9473 12.2598 15.8536 12.3536C15.7598 12.4473 15.6326 12.5 15.5 12.5C15.3674 12.5 15.2402 12.4473 15.1464 12.3536C15.0527 12.2598 15 12.1326 15 12C15 11.8674 15.0527 11.7402 15.1464 11.6464C15.2402 11.5527 15.3674 11.5 15.5 11.5ZM15 14C15 13.8674 15.0527 13.7402 15.1464 13.6464C15.2402 13.5527 15.3674 13.5 15.5 13.5C15.6326 13.5 15.7598 13.5527 15.8536 13.6464C15.9473 13.7402 16 13.8674 16 14C16 14.1326 15.9473 14.2598 15.8536 14.3536C15.7598 14.4473 15.6326 14.5 15.5 14.5C15.3674 14.5 15.2402 14.4473 15.1464 14.3536C15.0527 14.2598 15 14.1326 15 14ZM15.5 15.5C15.6326 15.5 15.7598 15.5527 15.8536 15.6464C15.9473 15.7402 16 15.8674 16 16C16 16.1326 15.9473 16.2598 15.8536 16.3536C15.7598 16.4473 15.6326 16.5 15.5 16.5C15.3674 16.5 15.2402 16.4473 15.1464 16.3536C15.0527 16.2598 15 16.1326 15 16C15 15.8674 15.0527 15.7402 15.1464 15.6464C15.2402 15.5527 15.3674 15.5 15.5 15.5ZM7.5 11L6.60938 8.32812C6.55625 8.16563 6.675 8 6.84688 8H7.81875C8.08437 8 8.33125 8.14062 8.46562 8.37187L10 11H11.4656C11.9688 11 12.45 11.2 12.8031 11.5531C13.05 11.8 13.05 12.2 12.8031 12.4438C12.45 12.8 11.9688 13 11.4656 13H10L8.46562 15.6281C8.33125 15.8594 8.08437 16 7.81875 16H6.84688C6.675 16 6.55625 15.8313 6.60938 15.6719L7.5 13H5.75L5.15 13.8C5.05625 13.925 4.90625 14 4.75 14H4.31875C4.15625 14 4.0375 13.8469 4.075 13.6906L4.46875 12.1219C4.4875 12.0437 4.4875 11.9594 4.46875 11.8781L4.07812 10.3094C4.0375 10.1531 4.15938 10 4.32188 10H4.75C4.90625 10 5.05625 10.075 5.15 10.2L5.75 11H7.5Z" fill="black"/>
</svg>
