<svg width="24" height="24" viewBox="0 0 24 24" fill="none" xmlns="http://www.w3.org/2000/svg">
<path d="M16.9375 9.54688C17.0562 9.27187 17 8.95312 16.7937 8.73438L12.5437 4.23438C12.4031 4.08437 12.2062 4 12 4C11.7938 4 11.5969 4.08437 11.4563 4.23438L7.20625 8.73438C7 8.95312 6.94375 9.27187 7.0625 9.54688C7.18125 9.82188 7.45312 10 7.75 10H10.5V16C10.5 16.5531 10.0531 17 9.5 17H7C6.44687 17 6 17.4469 6 18V19C6 19.5531 6.44687 20 7 20H9.5C11.7094 20 13.5 18.2094 13.5 16V10H16.25C16.55 10 16.8188 9.82188 16.9375 9.54688Z" fill="black"/>
</svg>
