<svg width="24" height="24" viewBox="0 0 24 24" fill="none" xmlns="http://www.w3.org/2000/svg">
<path d="M8 4C6.34375 4 5 5.34375 5 7V15C5 16.5 6.1 17.7406 7.53437 17.9656L6.09687 19.4031C5.87812 19.6219 6.03437 20 6.34375 20H7.58437C7.85 20 8.10313 19.8938 8.29063 19.7063L10 18H14L15.7063 19.7063C15.8938 19.8938 16.1469 20 16.4125 20H17.6562C17.9688 20 18.125 19.6219 17.9031 19.4031L16.4656 17.9656C17.9031 17.7437 19 16.5 19 15V7C19 5.34375 17.6562 4 16 4H8ZM7 8C7 7.44688 7.44688 7 8 7H10.5C11.0531 7 11.5 7.44688 11.5 8V11C11.5 11.5531 11.0531 12 10.5 12H8C7.44688 12 7 11.5531 7 11V8ZM13.5 7H16C16.5531 7 17 7.44688 17 8V11C17 11.5531 16.5531 12 16 12H13.5C12.9469 12 12.5 11.5531 12.5 11V8C12.5 7.44688 12.9469 7 13.5 7ZM7 15C7 14.7348 7.10536 14.4804 7.29289 14.2929C7.48043 14.1054 7.73478 14 8 14C8.26522 14 8.51957 14.1054 8.70711 14.2929C8.89464 14.4804 9 14.7348 9 15C9 15.2652 8.89464 15.5196 8.70711 15.7071C8.51957 15.8946 8.26522 16 8 16C7.73478 16 7.48043 15.8946 7.29289 15.7071C7.10536 15.5196 7 15.2652 7 15ZM16 14C16.2652 14 16.5196 14.1054 16.7071 14.2929C16.8946 14.4804 17 14.7348 17 15C17 15.2652 16.8946 15.5196 16.7071 15.7071C16.5196 15.8946 16.2652 16 16 16C15.7348 16 15.4804 15.8946 15.2929 15.7071C15.1054 15.5196 15 15.2652 15 15C15 14.7348 15.1054 14.4804 15.2929 14.2929C15.4804 14.1054 15.7348 14 16 14Z" fill="black"/>
</svg>
