<svg width="24" height="24" viewBox="0 0 24 24" fill="none" xmlns="http://www.w3.org/2000/svg">
<path d="M7.00013 5C7.00013 4.44687 7.44701 4 8.00013 4H16.0001C16.5533 4 17.0001 4.44687 17.0001 5C17.0001 5.55313 16.5533 6 16.0001 6H15.0783L15.4345 10.6312C16.5814 11.2531 17.4876 12.2937 17.9189 13.5906L17.9501 13.6844C18.0533 13.9906 18.0001 14.325 17.8126 14.5844C17.6251 14.8438 17.322 15 17.0001 15H7.00013C6.67826 15 6.37826 14.8469 6.18763 14.5844C5.99701 14.3219 5.94701 13.9875 6.05013 13.6844L6.08138 13.5906C6.51263 12.2937 7.41888 11.2531 8.56576 10.6312L8.92201 6H8.00013C7.44701 6 7.00013 5.55313 7.00013 5ZM11.0001 16H13.0001V19C13.0001 19.5531 12.5533 20 12.0001 20C11.447 20 11.0001 19.5531 11.0001 19V16Z" fill="black"/>
</svg>
