<svg width="24" height="24" viewBox="0 0 24 24" fill="none" xmlns="http://www.w3.org/2000/svg">
<path d="M12 4C7.58125 4 4 7.58125 4 12V18C4 19.1031 4.89688 20 6 20H7.29375L9.30312 17.9906C8.29062 17.8906 7.5 17.0375 7.5 16V10C7.5 8.89688 8.39688 8 9.5 8H14.5C15.6031 8 16.5 8.89688 16.5 10V16C16.5 17.0375 15.7094 17.8906 14.6969 17.9906L16.7063 20H18C19.1031 20 20 19.1031 20 18V12C20 7.58125 16.4187 4 12 4ZM15.2937 20L13.2937 18H10.7063L8.70625 20H15.2937ZM9.75 10C9.33437 10 9 10.3344 9 10.75V11V13V13.25C9 13.6656 9.33437 14 9.75 14H10H10.5H10.75C11.1656 14 11.5 13.6656 11.5 13.25V13V11V10.75C11.5 10.3344 11.1656 10 10.75 10H10.5H10H9.75ZM12.5 10.75V11V13V13.25C12.5 13.6656 12.8344 14 13.25 14H13.5H14H14.25C14.6656 14 15 13.6656 15 13.25V13V11V10.75C15 10.3344 14.6656 10 14.25 10H14H13.5H13.25C12.8344 10 12.5 10.3344 12.5 10.75ZM9.75 16.5C9.84849 16.5 9.94602 16.4806 10.037 16.4429C10.128 16.4052 10.2107 16.35 10.2803 16.2803C10.35 16.2107 10.4052 16.128 10.4429 16.037C10.4806 15.946 10.5 15.8485 10.5 15.75C10.5 15.6515 10.4806 15.554 10.4429 15.463C10.4052 15.372 10.35 15.2893 10.2803 15.2197C10.2107 15.15 10.128 15.0948 10.037 15.0571C9.94602 15.0194 9.84849 15 9.75 15C9.65151 15 9.55398 15.0194 9.46299 15.0571C9.37199 15.0948 9.28931 15.15 9.21967 15.2197C9.15003 15.2893 9.09478 15.372 9.05709 15.463C9.0194 15.554 9 15.6515 9 15.75C9 15.8485 9.0194 15.946 9.05709 16.037C9.09478 16.128 9.15003 16.2107 9.21967 16.2803C9.28931 16.35 9.37199 16.4052 9.46299 16.4429C9.55398 16.4806 9.65151 16.5 9.75 16.5ZM15 15.75C15 15.5511 14.921 15.3603 14.7803 15.2197C14.6397 15.079 14.4489 15 14.25 15C14.0511 15 13.8603 15.079 13.7197 15.2197C13.579 15.3603 13.5 15.5511 13.5 15.75C13.5 15.9489 13.579 16.1397 13.7197 16.2803C13.8603 16.421 14.0511 16.5 14.25 16.5C14.4489 16.5 14.6397 16.421 14.7803 16.2803C14.921 16.1397 15 15.9489 15 15.75Z" fill="black"/>
</svg>
