<svg width="24" height="24" viewBox="0 0 24 24" fill="none" xmlns="http://www.w3.org/2000/svg">
<path d="M13.5188 7L15.9187 10H11V7H13.5188ZM9 6.5V10H4C3.44687 10 3 10.4469 3 11V13C2.44687 13 2 13.4469 2 14C2 14.5531 2.44687 15 3 15H4.03437C4.0125 15.1625 4 15.3312 4 15.5C4 17.4344 5.56562 19 7.5 19C9.43438 19 11 17.4344 11 15.5C11 15.3312 10.9875 15.1625 10.9656 15H13.0375C13.0156 15.1625 13.0031 15.3312 13.0031 15.5C13.0031 17.4344 14.5688 19 16.5031 19C18.4375 19 20.0031 17.4344 20.0031 15.5C20.0031 15.3312 19.9906 15.1625 19.9688 15H21C21.5531 15 22 14.5531 22 14C22 13.4469 21.5531 13 21 13V11C21 10.4469 20.5531 10 20 10H18.4813L15.0813 5.75C14.7031 5.275 14.1281 5 13.5188 5H10.5C9.67188 5 9 5.67188 9 6.5ZM9 15.5C9 15.697 8.9612 15.892 8.88582 16.074C8.81044 16.256 8.69995 16.4214 8.56066 16.5607C8.42137 16.6999 8.25601 16.8104 8.07403 16.8858C7.89204 16.9612 7.69698 17 7.5 17C7.30302 17 7.10796 16.9612 6.92597 16.8858C6.74399 16.8104 6.57863 16.6999 6.43934 16.5607C6.30005 16.4214 6.18956 16.256 6.11418 16.074C6.0388 15.892 6 15.697 6 15.5C6 15.303 6.0388 15.108 6.11418 14.926C6.18956 14.744 6.30005 14.5786 6.43934 14.4393C6.57863 14.3001 6.74399 14.1896 6.92597 14.1142C7.10796 14.0388 7.30302 14 7.5 14C7.69698 14 7.89204 14.0388 8.07403 14.1142C8.25601 14.1896 8.42137 14.3001 8.56066 14.4393C8.69995 14.5786 8.81044 14.744 8.88582 14.926C8.9612 15.108 9 15.303 9 15.5ZM18 15.5C18 15.8978 17.842 16.2794 17.5607 16.5607C17.2794 16.842 16.8978 17 16.5 17C16.1022 17 15.7206 16.842 15.4393 16.5607C15.158 16.2794 15 15.8978 15 15.5C15 15.1022 15.158 14.7206 15.4393 14.4393C15.7206 14.158 16.1022 14 16.5 14C16.8978 14 17.2794 14.158 17.5607 14.4393C17.842 14.7206 18 15.1022 18 15.5Z" fill="black"/>
</svg>
