<svg width="24" height="24" viewBox="0 0 24 24" fill="none" xmlns="http://www.w3.org/2000/svg">
<path d="M6.9375 9.29375L11.5813 4.18438C11.6875 4.06563 11.8406 4 12 4C12.1594 4 12.3125 4.06563 12.4187 4.18438L17.0625 9.29375C17.1844 9.425 17.25 9.6 17.25 9.77812C17.25 10.175 16.9281 10.5 16.5281 10.5H15.75L18.1094 13.8031C18.2 13.9313 18.25 14.0844 18.25 14.2437C18.25 14.6625 17.9094 15 17.4937 15H16.5L18.8813 18.8125C18.9594 18.9375 19 19.0781 19 19.225C19 19.6531 18.6531 20.0031 18.2219 20.0031H5.77812C5.34687 20 5 19.6531 5 19.2219C5 19.075 5.04062 18.9344 5.11875 18.8094L7.5 15H6.50625C6.0875 15 5.75 14.6594 5.75 14.2437C5.75 14.0875 5.8 13.9313 5.89062 13.8031L8.25 10.5H7.47187C7.07187 10.5 6.75 10.1781 6.75 9.77812C6.75 9.6 6.81562 9.425 6.9375 9.29375Z" fill="black"/>
</svg>
