<svg width="24" height="24" viewBox="0 0 24 24" fill="none" xmlns="http://www.w3.org/2000/svg">
<path d="M5.19671 11.5406L4.47171 10.2688C4.18421 9.7625 4.20921 9.12813 4.61233 8.70625C5.91858 7.3375 8.52171 5.5 11.9998 5.5C15.478 5.5 18.0811 7.3375 19.3873 8.70625C19.7905 9.12813 19.8155 9.7625 19.528 10.2688L18.8061 11.5406C18.5717 11.9531 18.078 12.1437 17.6248 11.9969L15.0905 11.1656C14.6811 11.0312 14.403 10.6469 14.403 10.2156V8.5C12.853 7.93438 11.153 7.93438 9.60296 8.5V10.2125C9.60296 10.6438 9.32483 11.0281 8.91546 11.1625L6.37796 11.9938C5.92483 12.1406 5.43108 11.95 5.19671 11.5375V11.5406ZM4.99983 14.5C4.99983 14.225 5.22483 14 5.49983 14H6.49983C6.77483 14 6.99983 14.225 6.99983 14.5V15.5C6.99983 15.775 6.77483 16 6.49983 16H5.49983C5.22483 16 4.99983 15.775 4.99983 15.5V14.5ZM4.99983 17.5C4.99983 17.225 5.22483 17 5.49983 17H6.49983C6.77483 17 6.99983 17.225 6.99983 17.5V18.5C6.99983 18.775 6.77483 19 6.49983 19H5.49983C5.22483 19 4.99983 18.775 4.99983 18.5V17.5ZM8.49983 14H9.49983C9.77483 14 9.99983 14.225 9.99983 14.5V15.5C9.99983 15.775 9.77483 16 9.49983 16H8.49983C8.22483 16 7.99983 15.775 7.99983 15.5V14.5C7.99983 14.225 8.22483 14 8.49983 14ZM10.9998 14.5C10.9998 14.225 11.2248 14 11.4998 14H12.4998C12.7748 14 12.9998 14.225 12.9998 14.5V15.5C12.9998 15.775 12.7748 16 12.4998 16H11.4998C11.2248 16 10.9998 15.775 10.9998 15.5V14.5ZM14.4998 14H15.4998C15.7748 14 15.9998 14.225 15.9998 14.5V15.5C15.9998 15.775 15.7748 16 15.4998 16H14.4998C14.2248 16 13.9998 15.775 13.9998 15.5V14.5C13.9998 14.225 14.2248 14 14.4998 14ZM16.9998 14.5C16.9998 14.225 17.2248 14 17.4998 14H18.4998C18.7748 14 18.9998 14.225 18.9998 14.5V15.5C18.9998 15.775 18.7748 16 18.4998 16H17.4998C17.2248 16 16.9998 15.775 16.9998 15.5V14.5ZM17.4998 17H18.4998C18.7748 17 18.9998 17.225 18.9998 17.5V18.5C18.9998 18.775 18.7748 19 18.4998 19H17.4998C17.2248 19 16.9998 18.775 16.9998 18.5V17.5C16.9998 17.225 17.2248 17 17.4998 17ZM7.99983 17.5C7.99983 17.225 8.22483 17 8.49983 17H15.4998C15.7748 17 15.9998 17.225 15.9998 17.5V18.5C15.9998 18.775 15.7748 19 15.4998 19H8.49983C8.22483 19 7.99983 18.775 7.99983 18.5V17.5Z" fill="black"/>
</svg>
