<svg width="24" height="24" viewBox="0 0 24 24" fill="none" xmlns="http://www.w3.org/2000/svg">
<path d="M12 4C7.58125 4 4 7.58125 4 12V18C4 19.1031 4.89688 20 6 20H7.29375L9.30312 17.9906C8.29062 17.8906 7.5 17.0375 7.5 16V10C7.5 8.89687 8.39687 8 9.5 8H14.5C15.6031 8 16.5 8.89687 16.5 10V16C16.5 17.0375 15.7094 17.8906 14.6969 17.9906L16.7063 20H18C19.1031 20 20 19.1031 20 18V12C20 7.58125 16.4187 4 12 4ZM15.2937 20L13.2937 18H10.7063L8.70625 20H15.2937ZM9.75 10C9.33437 10 9 10.3344 9 10.75V13.25C9 13.6656 9.33437 14 9.75 14H14.25C14.6656 14 15 13.6656 15 13.25V10.75C15 10.3344 14.6656 10 14.25 10H9.75ZM13 16C13 15.7348 12.8946 15.4804 12.7071 15.2929C12.5196 15.1054 12.2652 15 12 15C11.7348 15 11.4804 15.1054 11.2929 15.2929C11.1054 15.4804 11 15.7348 11 16C11 16.2652 11.1054 16.5196 11.2929 16.7071C11.4804 16.8946 11.7348 17 12 17C12.2652 17 12.5196 16.8946 12.7071 16.7071C12.8946 16.5196 13 16.2652 13 16Z" fill="black"/>
</svg>
