<svg width="24" height="24" viewBox="0 0 24 24" fill="none" xmlns="http://www.w3.org/2000/svg">
<path d="M15.7125 6.50938C15.1219 5.0375 13.6812 4 12 4C10.3187 4 8.87812 5.0375 8.2875 6.50938C8.19375 6.50313 8.09688 6.5 8 6.5C5.79063 6.5 4 8.29063 4 10.5C4 12.7094 5.79063 14.5 8 14.5C8.45 14.5 8.88438 14.425 9.29063 14.2875C9.77187 15.3 10.8031 16 12 16C13.1969 16 14.2281 15.3 14.7094 14.2875C15.1125 14.425 15.5469 14.5 16 14.5C18.2094 14.5 20 12.7094 20 10.5C20 8.29063 18.2094 6.5 16 6.5C15.9031 6.5 15.8094 6.50313 15.7125 6.50938ZM8.5 19C8.89782 19 9.27936 18.842 9.56066 18.5607C9.84196 18.2794 10 17.8978 10 17.5C10 17.1022 9.84196 16.7206 9.56066 16.4393C9.27936 16.158 8.89782 16 8.5 16C8.10218 16 7.72064 16.158 7.43934 16.4393C7.15804 16.7206 7 17.1022 7 17.5C7 17.8978 7.15804 18.2794 7.43934 18.5607C7.72064 18.842 8.10218 19 8.5 19ZM5 20C5.26522 20 5.51957 19.8946 5.70711 19.7071C5.89464 19.5196 6 19.2652 6 19C6 18.7348 5.89464 18.4804 5.70711 18.2929C5.51957 18.1054 5.26522 18 5 18C4.73478 18 4.48043 18.1054 4.29289 18.2929C4.10536 18.4804 4 18.7348 4 19C4 19.2652 4.10536 19.5196 4.29289 19.7071C4.48043 19.8946 4.73478 20 5 20Z" fill="black"/>
</svg>
