<svg width="24" height="24" viewBox="0 0 24 24" fill="none" xmlns="http://www.w3.org/2000/svg">
<path d="M5.77188 4.20625L6 5L6.79375 5.22812C6.91563 5.2625 7 5.37188 7 5.5C7 5.62812 6.91563 5.7375 6.79375 5.77188L6 6L5.77188 6.79375C5.7375 6.91563 5.62812 7 5.5 7C5.37188 7 5.2625 6.91563 5.22812 6.79375L5 6L4.20625 5.77188C4.08437 5.7375 4 5.62812 4 5.5C4 5.37188 4.08437 5.2625 4.20625 5.22812L5 5L5.22812 4.20625C5.2625 4.08437 5.37188 4 5.5 4C5.62812 4 5.7375 4.08437 5.77188 4.20625ZM16 20H13.25H10.75H8C7.44688 20 7 19.5531 7 19C7 18.4469 7.44688 18 8 18H16C16.5531 18 17 18.4469 17 19C17 19.5531 16.5531 20 16 20ZM19 16L19.7937 16.2281C19.9156 16.2625 20 16.375 20 16.5C20 16.625 19.9156 16.7375 19.7937 16.7719L19 17L18.7719 17.7937C18.7375 17.9156 18.625 18 18.5 18C18.375 18 18.2625 17.9156 18.2281 17.7937L18 17L17.2063 16.7719C17.0844 16.7375 17 16.625 17 16.5C17 16.375 17.0844 16.2625 17.2063 16.2281L18 16L18.2281 15.2063C18.2625 15.0844 18.375 15 18.5 15C18.625 15 18.7375 15.0844 18.7719 15.2063L19 16ZM11 4H13C13.275 4 13.5 4.225 13.5 4.5C13.5 4.775 13.275 5 13 5H11C10.725 5 10.5 4.775 10.5 4.5C10.5 4.225 10.725 4 11 4ZM7.5 12H16.5C16.775 12 17 12.225 17 12.5C17 12.775 16.775 13 16.5 13H7.5C7.225 13 7 12.775 7 12.5C7 12.225 7.225 12 7.5 12Z" fill="black"/>
</svg>
