<svg width="24" height="24" viewBox="0 0 24 24" fill="none" xmlns="http://www.w3.org/2000/svg">
<path d="M14.747 10.6687L11.6657 13.75L13.7095 15.7937C13.9563 16.0406 14.0563 16.4 13.972 16.7406C13.8876 17.0812 13.6345 17.3531 13.3001 17.4562L5.30008 19.9562C4.94383 20.0656 4.55633 19.9718 4.29383 19.7093C4.03133 19.4468 3.93445 19.0562 4.04695 18.7031L6.54695 10.7031C6.65008 10.3687 6.92195 10.1125 7.26258 10.0312C7.6032 9.94995 7.96258 10.0468 8.20945 10.2937L10.2501 12.3343L13.3313 9.25308C12.8845 8.79683 12.8876 8.06558 13.3407 7.61245L16.322 4.6312C17.1626 3.79058 18.5251 3.79058 19.3688 4.6312C20.2126 5.47183 20.2095 6.83433 19.3688 7.67808L16.3876 10.6593C15.9345 11.1125 15.2032 11.1156 14.747 10.6687Z" fill="black"/>
</svg>
