<svg width="24" height="24" viewBox="0 0 24 24" fill="none" xmlns="http://www.w3.org/2000/svg">
<path d="M3 8C3 6.89688 3.89688 6 5 6H19C20.1031 6 21 6.89688 21 8V10C21 10.275 20.7687 10.4906 20.5094 10.5813C19.9219 10.7844 19.5 11.3438 19.5 12C19.5 12.6562 19.9219 13.2156 20.5094 13.4187C20.7687 13.5094 21 13.725 21 14V16C21 17.1031 20.1031 18 19 18H5C3.89688 18 3 17.1031 3 16V14C3 13.725 3.23125 13.5094 3.49062 13.4187C4.07812 13.2156 4.5 12.6562 4.5 12C4.5 11.3438 4.07812 10.7844 3.49062 10.5813C3.23125 10.4906 3 10.275 3 10V8Z" fill="black"/>
</svg>
