<svg width="24" height="24" viewBox="0 0 24 24" fill="none" xmlns="http://www.w3.org/2000/svg">
<path d="M22 16.5V4H15C13.8968 4 13 4.89688 13 6V15.0562L2.98746 17.7844C2.45308 17.9281 2.14058 18.4781 2.28433 19.0125C2.42808 19.5469 2.97808 19.8594 3.51246 19.7156L15 16.5844C15.0468 18.4781 16.5937 20 18.5 20C20.4343 20 22 18.4344 22 16.5ZM18.5 15C18.6969 15 18.892 15.0388 19.074 15.1142C19.256 15.1896 19.4213 15.3001 19.5606 15.4393C19.6999 15.5786 19.8104 15.744 19.8858 15.926C19.9612 16.108 20 16.303 20 16.5C20 16.697 19.9612 16.892 19.8858 17.074C19.8104 17.256 19.6999 17.4214 19.5606 17.5607C19.4213 17.6999 19.256 17.8104 19.074 17.8858C18.892 17.9612 18.6969 18 18.5 18C18.303 18 18.1079 17.9612 17.9259 17.8858C17.7439 17.8104 17.5786 17.6999 17.4393 17.5607C17.3 17.4214 17.1895 17.256 17.1141 17.074C17.0388 16.892 17 16.697 17 16.5C17 16.303 17.0388 16.108 17.1141 15.926C17.1895 15.744 17.3 15.5786 17.4393 15.4393C17.5786 15.3001 17.7439 15.1896 17.9259 15.1142C18.1079 15.0388 18.303 15 18.5 15Z" fill="black"/>
</svg>
