<svg width="24" height="24" viewBox="0 0 24 24" fill="none" xmlns="http://www.w3.org/2000/svg">
<path d="M12.5875 5.19961L13.9656 6.26836C14.1406 6.40586 14.3594 6.47461 14.5812 6.46836L16.325 6.41523C16.7625 6.40273 17.1531 6.68398 17.275 7.10586L17.7625 8.78086C17.825 8.99336 17.9594 9.18086 18.1437 9.30586L19.5812 10.2809C19.9437 10.5277 20.0906 10.984 19.9437 11.3965L19.4094 12.8871C17.7844 10.5371 15.0719 8.99961 12 8.99961C8.92812 8.99961 6.21562 10.5371 4.59062 12.8871L4.05624 11.3965C3.90937 10.9871 4.05624 10.5277 4.41874 10.2809L5.85937 9.29961C6.04374 9.17461 6.17812 8.99023 6.24062 8.77461L6.72812 7.10273C6.84999 6.68398 7.24062 6.39961 7.67812 6.41211L9.41874 6.46836C9.64062 6.47461 9.85937 6.40586 10.0344 6.26836L11.4125 5.19961C11.7562 4.93086 12.2406 4.93086 12.5844 5.19961H12.5875ZM20 17.9996C20 18.5527 19.5531 18.9996 19 18.9996H4.99999C4.44687 18.9996 3.99999 18.5527 3.99999 17.9996C3.99999 13.5809 7.58124 9.99961 12 9.99961C16.4187 9.99961 20 13.5809 20 17.9996ZM7.49999 16.9996C7.6326 16.9996 7.75978 16.9469 7.85355 16.8532C7.94731 16.7594 7.99999 16.6322 7.99999 16.4996C7.99999 16.367 7.94731 16.2398 7.85355 16.1461C7.75978 16.0523 7.6326 15.9996 7.49999 15.9996C7.36738 15.9996 7.24021 16.0523 7.14644 16.1461C7.05267 16.2398 6.99999 16.367 6.99999 16.4996C6.99999 16.6322 7.05267 16.7594 7.14644 16.8532C7.24021 16.9469 7.36738 16.9996 7.49999 16.9996ZM9.99999 14.4996C9.99999 14.367 9.94731 14.2398 9.85355 14.1461C9.75978 14.0523 9.6326 13.9996 9.49999 13.9996C9.36738 13.9996 9.24021 14.0523 9.14644 14.1461C9.05267 14.2398 8.99999 14.367 8.99999 14.4996C8.99999 14.6322 9.05267 14.7594 9.14644 14.8532C9.24021 14.9469 9.36738 14.9996 9.49999 14.9996C9.6326 14.9996 9.75978 14.9469 9.85355 14.8532C9.94731 14.7594 9.99999 14.6322 9.99999 14.4996Z" fill="black"/>
</svg>
