<svg width="24" height="24" viewBox="0 0 24 24" fill="none" xmlns="http://www.w3.org/2000/svg">
<path d="M18.7719 5.20625C18.7375 5.08437 18.625 5 18.5 5C18.375 5 18.2625 5.08437 18.2281 5.20625L18 6L17.2063 6.22813C17.0844 6.2625 17 6.375 17 6.5C17 6.625 17.0844 6.7375 17.2063 6.77187L18 7L18.2281 7.79375C18.2625 7.91563 18.375 8 18.5 8C18.625 8 18.7375 7.91563 18.7719 7.79375L19 7L19.7937 6.77187C19.9156 6.7375 20 6.625 20 6.5C20 6.375 19.9156 6.2625 19.7937 6.22813L19 6L18.7719 5.20625ZM6 13L5.77188 12.2063C5.7375 12.0844 5.625 12 5.5 12C5.375 12 5.2625 12.0844 5.22812 12.2063L5 13L4.20625 13.2281C4.08437 13.2625 4 13.3719 4 13.5C4 13.6281 4.08437 13.7375 4.20625 13.7719L5 14L5.22812 14.7937C5.2625 14.9156 5.375 15 5.5 15C5.625 15 5.7375 14.9156 5.77188 14.7937L6 14L6.79375 13.7719C6.91563 13.7375 7 13.625 7 13.5C7 13.375 6.91563 13.2625 6.79375 13.2281L6 13ZM13.25 20H16C16.5531 20 17 19.5531 17 19C17 18.4469 16.5531 18 16 18H8C7.44688 18 7 18.4469 7 19C7 19.5531 7.44688 20 8 20H10.75H13.25Z" fill="black"/>
</svg>
