<svg width="24" height="24" viewBox="0 0 24 24" fill="none" xmlns="http://www.w3.org/2000/svg">
<path d="M14.4531 6.06255C14.7281 5.9438 15.0469 6.00005 15.2656 6.2063L19.7656 10.4563C19.9156 10.5969 20 10.7938 20 11C20 11.2063 19.9156 11.4032 19.7656 11.5438L15.2656 15.7938C15.0469 16 14.7281 16.0563 14.4531 15.9375C14.1781 15.8188 14 15.5469 14 15.25V12.5H8C7.44688 12.5 7 12.9469 7 13.5V18C7 18.5532 6.55312 19 6 19H5C4.44687 19 4 18.5532 4 18V13.5C4 11.2907 5.79063 9.50005 8 9.50005H14V6.75005C14 6.45005 14.1781 6.1813 14.4531 6.06255Z" fill="black"/>
</svg>
