<svg width="24" height="24" viewBox="0 0 24 24" fill="none" xmlns="http://www.w3.org/2000/svg">
<path d="M21.9999 4V16.5C21.9999 18.4344 20.4343 20 18.4999 20C16.5937 20 15.0468 18.4781 14.9999 16.5844L3.51244 19.7156C2.97807 19.8594 2.43119 19.5469 2.28432 19.0125C2.13744 18.4781 2.45307 17.9313 2.98744 17.7844L12.9999 15.0562V6C12.9999 4.89688 13.8968 4 14.9999 4H21.9999ZM19.9999 16.5C19.9999 16.1022 19.8419 15.7206 19.5606 15.4393C19.2793 15.158 18.8978 15 18.4999 15C18.1021 15 17.7206 15.158 17.4393 15.4393C17.158 15.7206 16.9999 16.1022 16.9999 16.5C16.9999 16.8978 17.158 17.2794 17.4393 17.5607C17.7206 17.842 18.1021 18 18.4999 18C18.8978 18 19.2793 17.842 19.5606 17.5607C19.8419 17.2794 19.9999 16.8978 19.9999 16.5ZM2.72182 10.4906C2.57807 9.95625 2.89682 9.40937 3.42807 9.26562L4.87807 8.87813L5.52494 11.2937C5.59682 11.5594 5.87182 11.7187 6.13744 11.6469L7.10307 11.3875C7.36869 11.3156 7.52807 11.0406 7.45619 10.775L6.80932 8.35938L8.25932 7.97187C8.79369 7.82812 9.34057 8.14687 9.48432 8.67812L10.7781 13.5063C10.9218 14.0406 10.6031 14.5875 10.0718 14.7312L5.24057 16.0281C4.70619 16.1719 4.15932 15.8531 4.01557 15.3219L2.72182 10.4906Z" fill="black"/>
</svg>
