<svg width="24" height="24" viewBox="0 0 24 24" fill="none" xmlns="http://www.w3.org/2000/svg">
<path d="M7 8V7H11V11H10.5C9.94687 11 9.5 11.4469 9.5 12C9.5 12.5531 9.94687 13 10.5 13H13.5C14.0531 13 14.5 12.5531 14.5 12C14.5 11.4469 14.0531 11 13.5 11H13V7H17V8C17 8.55313 17.4469 9 18 9C18.5531 9 19 8.55313 19 8V6.5C19 5.67188 18.3281 5 17.5 5H12H6.5C5.67188 5 5 5.67188 5 6.5V8C5 8.55313 5.44687 9 6 9C6.55313 9 7 8.55313 7 8ZM5.29375 15.2937C4.90312 15.6844 4.90312 16.3188 5.29375 16.7094L7.29375 18.7094C7.58125 18.9969 8.00938 19.0813 8.38438 18.925C8.75938 18.7688 9.00313 18.4062 9.00313 18V17H15V18C15 18.4031 15.2437 18.7688 15.6187 18.925C15.9937 19.0813 16.4219 18.9938 16.7094 18.7094L18.7094 16.7094C19.1 16.3188 19.1 15.6844 18.7094 15.2937L16.7094 13.2937C16.4219 13.0062 15.9937 12.9219 15.6187 13.0781C15.2437 13.2344 15 13.5969 15 14.0031V15.0031H9V14C9 13.5969 8.75625 13.2312 8.38125 13.075C8.00625 12.9187 7.57813 13.0062 7.29063 13.2906L5.29063 15.2906L5.29375 15.2937Z" fill="black"/>
</svg>
