<svg width="24" height="24" viewBox="0 0 24 24" fill="none" xmlns="http://www.w3.org/2000/svg">
<path d="M3.21243 4.15937C2.88743 3.90312 2.41556 3.96249 2.15931 4.28749C1.90306 4.61249 1.96243 5.08437 2.28743 5.34062L20.7874 19.8406C21.1124 20.0969 21.5843 20.0375 21.8406 19.7125C22.0968 19.3875 22.0374 18.9156 21.7124 18.6594L17.5374 15.3875L17.9999 7.99999H8.11243L6.83743 6.99999H17.9999C18.5531 6.99999 18.9999 6.55312 18.9999 5.99999C18.9999 5.44687 18.5531 4.99999 17.9999 4.99999H14.9999L14.7749 4.55312C14.6062 4.21249 14.2593 3.99999 13.8812 3.99999H10.1187C9.74056 3.99999 9.39368 4.21249 9.22493 4.55312L8.99993 4.99999H5.99993C5.58118 4.99999 5.22493 5.25624 5.07493 5.61874L3.21243 4.15937ZM17.2499 19.0156L6.14056 10.2625L6.66243 18.5937C6.71243 19.3844 7.36868 20 8.15931 20H15.8406C16.4843 20 17.0374 19.5937 17.2499 19.0156Z" fill="black"/>
</svg>
