<svg width="24" height="24" viewBox="0 0 24 24" fill="none" xmlns="http://www.w3.org/2000/svg">
<path d="M14.7812 5.22187L18.775 9.2625C20.4125 10.9187 20.4125 13.5813 18.775 15.2375L15.275 18.7781C14.9844 19.0719 14.5094 19.075 14.2156 18.7844C13.9219 18.4938 13.9188 18.0188 14.2094 17.725L17.7063 14.1844C18.7656 13.1125 18.7656 11.3906 17.7063 10.3187L13.7156 6.27813C13.425 5.98438 13.4281 5.50937 13.7219 5.21875C14.0156 4.92812 14.4906 4.93125 14.7812 5.225V5.22187ZM4 11.1719V6.5C4 5.67188 4.67188 5 5.5 5H10.1719C10.7031 5 11.2125 5.20938 11.5875 5.58438L16.8375 10.8344C17.6187 11.6156 17.6187 12.8813 16.8375 13.6625L12.6656 17.8344C11.8844 18.6156 10.6188 18.6156 9.8375 17.8344L4.5875 12.5844C4.20937 12.2094 4 11.7031 4 11.1719ZM8.5 8.5C8.5 8.23478 8.39464 7.98043 8.20711 7.79289C8.01957 7.60536 7.76522 7.5 7.5 7.5C7.23478 7.5 6.98043 7.60536 6.79289 7.79289C6.60536 7.98043 6.5 8.23478 6.5 8.5C6.5 8.76522 6.60536 9.01957 6.79289 9.20711C6.98043 9.39464 7.23478 9.5 7.5 9.5C7.76522 9.5 8.01957 9.39464 8.20711 9.20711C8.39464 9.01957 8.5 8.76522 8.5 8.5Z" fill="black"/>
</svg>
