<svg width="24" height="24" viewBox="0 0 24 24" fill="none" xmlns="http://www.w3.org/2000/svg">
<path d="M8.12188 10C7.50313 10 7 10.5031 7 11.1219V14C7 14.5531 6.55313 15 6 15C5.44687 15 5 14.5531 5 14V11.1219C5 9.39687 6.39688 8 8.12188 8C8.95 8 9.74375 8.32813 10.3281 8.91563L15.0844 13.6719C15.2938 13.8812 15.5813 14 15.8781 14C16.4969 14 17 13.4969 17 12.8781V10C17 9.44687 17.4469 9 18 9C18.5531 9 19 9.44687 19 10V12.8781C19 14.6031 17.6031 16 15.8781 16C15.05 16 14.2563 15.6719 13.6719 15.0844L8.91563 10.3281C8.70625 10.1188 8.41875 10 8.12188 10Z" fill="black"/>
</svg>
