<svg width="24" height="24" viewBox="0 0 24 24" fill="none" xmlns="http://www.w3.org/2000/svg">
<path d="M7.06243 9.54688C6.94368 9.27187 6.99993 8.95312 7.20618 8.73438L11.4562 4.23438C11.5968 4.08437 11.7937 4 11.9999 4C12.2062 4 12.4031 4.08437 12.5437 4.23438L16.7937 8.73438C16.9999 8.95312 17.0562 9.27187 16.9374 9.54688C16.8187 9.82188 16.5468 10 16.2499 10H13.4999V16C13.4999 16.5531 13.9468 17 14.4999 17H16.9999C17.5531 17 17.9999 17.4469 17.9999 18V19C17.9999 19.5531 17.5531 20 16.9999 20H14.4999C12.2906 20 10.4999 18.2094 10.4999 16V10H7.74993C7.44993 10 7.18118 9.82188 7.06243 9.54688Z" fill="black"/>
</svg>
