<svg width="24" height="24" viewBox="0 0 24 24" fill="none" xmlns="http://www.w3.org/2000/svg">
<path d="M10.8156 5.62808C10.2906 5.22183 9.64687 4.99995 8.98438 4.99995C7.33438 4.99995 6 6.33433 6 7.98433V8.17808C6 8.67183 6.11563 9.1562 6.33438 9.59995L7.06875 11.0718C7.20937 11.35 7.30625 11.6468 7.3625 11.9531L8.50938 18.3843C8.57188 18.7343 8.87187 18.9906 9.225 19.0031C9.57812 19.0156 9.89375 18.7718 9.975 18.4281L10.8781 14.6375C11.0063 14.1156 11.4688 13.75 12 13.75C12.5312 13.75 12.9937 14.1156 13.1187 14.6343L14.0219 18.425C14.1031 18.7718 14.4188 19.0125 14.7719 19C15.125 18.9875 15.425 18.7312 15.4875 18.3812L16.6344 11.95C16.6906 11.6437 16.7875 11.3468 16.9281 11.0687L17.6625 9.59683C17.8844 9.1562 17.9969 8.6687 17.9969 8.17495V8.10933C17.9969 6.39058 16.6031 4.99683 14.8844 4.99683C14.1312 4.99683 13.4031 5.27183 12.8344 5.76558L12.7344 5.85308L13.3438 6.32808C13.5625 6.49683 13.6 6.81245 13.4312 7.0312C13.2625 7.24995 12.9469 7.28745 12.7281 7.1187L11.9656 6.52495L10.8094 5.62495L10.8156 5.62808Z" fill="black"/>
</svg>
