<svg width="24" height="24" viewBox="0 0 24 24" fill="none" xmlns="http://www.w3.org/2000/svg">
<path d="M9.95 6.31563C10.125 5.79063 9.84062 5.225 9.31875 5.05C8.79688 4.875 8.22813 5.15938 8.05312 5.68125L7.6125 7H6.5C5.94688 7 5.5 7.44688 5.5 8C5.5 8.55313 5.94688 9 6.5 9H6.94688L6.28125 11H5.25C4.69687 11 4.25 11.4469 4.25 12C4.25 12.5531 4.69687 13 5.25 13H5.6125L4.94687 15H4C3.44687 15 3 15.4469 3 16C3 16.5531 3.44687 17 4 17H4.27813L4.05 17.6844C3.875 18.2094 4.15937 18.775 4.68125 18.95C5.20312 19.125 5.77188 18.8406 5.94688 18.3188L6.38438 17.0031H17.6125L18.05 18.3188C18.225 18.8438 18.7906 19.125 19.3156 18.95C19.8406 18.775 20.1219 18.2094 19.9469 17.6844L19.7219 17H20C20.5531 17 21 16.5531 21 16C21 15.4469 20.5531 15 20 15H19.0531L18.3875 13H18.75C19.3031 13 19.75 12.5531 19.75 12C19.75 11.4469 19.3031 11 18.75 11H17.7219L17.0562 9H17.5C18.0531 9 18.5 8.55313 18.5 8C18.5 7.44688 18.0531 7 17.5 7H16.3875L15.95 5.68438C15.775 5.15938 15.2094 4.87813 14.6844 5.05313C14.1594 5.22813 13.8781 5.79375 14.0531 6.31875L14.2781 7H9.72188L9.95 6.31563ZM9.05312 9H14.9469L15.6125 11H8.3875L9.05312 9ZM16.9469 15H7.05312L7.71875 13H16.2781L16.9438 15H16.9469Z" fill="black"/>
</svg>
