<svg width="24" height="24" viewBox="0 0 24 24" fill="none" xmlns="http://www.w3.org/2000/svg">
<path d="M4 4H10C10.5531 4 11 4.44687 11 5V6H3V5C3 4.44687 3.44687 4 4 4ZM3 7H3.75H10.25H11V7.75V19.25C11 19.6656 10.6656 20 10.25 20C9.83437 20 9.5 19.6656 9.5 19.25V19H4.5V19.25C4.5 19.6656 4.16562 20 3.75 20C3.33437 20 3 19.6656 3 19.25V7.75V7ZM9 11C8.725 11 8.5 11.225 8.5 11.5V13.5C8.5 13.775 8.725 14 9 14C9.275 14 9.5 13.775 9.5 13.5V11.5C9.5 11.225 9.275 11 9 11ZM14 4H20C20.5531 4 21 4.44687 21 5V6H13V5C13 4.44687 13.4469 4 14 4ZM13 7H13.75H20.25H21V7.75V19.25C21 19.6656 20.6656 20 20.25 20C19.8344 20 19.5 19.6656 19.5 19.25V19H14.5V19.25C14.5 19.6656 14.1656 20 13.75 20C13.3344 20 13 19.6656 13 19.25V7.75V7ZM19 11C18.725 11 18.5 11.225 18.5 11.5V13.5C18.5 13.775 18.725 14 19 14C19.275 14 19.5 13.775 19.5 13.5V11.5C19.5 11.225 19.275 11 19 11Z" fill="black"/>
</svg>
