<svg width="24" height="24" viewBox="0 0 24 24" fill="none" xmlns="http://www.w3.org/2000/svg">
<path d="M6.75312 5.30715C7.0625 5.02902 7.0875 4.55715 6.80938 4.24777C6.53125 3.9384 6.05625 3.91652 5.74688 4.19465L3.24688 6.44465C3.09063 6.58527 3 6.7884 3 7.0009C3 7.2134 3.09063 7.41652 3.24688 7.55715L5.74688 9.80715C6.05625 10.0853 6.52813 10.0603 6.80625 9.7509C7.08438 9.44152 7.05937 8.96965 6.75 8.69152L5.70312 7.7509H17.25C18.4937 7.7509 19.5 8.75715 19.5 10.0009V11.2509C19.5 11.6665 19.8344 12.0009 20.25 12.0009C20.6656 12.0009 21 11.6665 21 11.2509V10.0009C21 7.92902 19.3219 6.2509 17.25 6.2509H5.70312L6.75 5.30715H6.75312ZM12.6062 9.20402C12.2469 8.93215 11.7531 8.93215 11.3938 9.20402L6.14375 13.204C5.9375 13.3603 5.8 13.5946 5.75938 13.8509L5.00938 18.8509C4.96563 19.1384 5.05 19.4321 5.24062 19.6509C5.43125 19.8696 5.70937 20.0009 6 20.0009H10.5H11C11.5531 20.0009 12 19.554 12 19.0009V15.3103C12 15.1384 12.1375 15.0009 12.3094 15.0009C12.425 15.0009 12.5344 15.0665 12.5844 15.1728L14.7219 19.4478C14.8906 19.7853 15.2375 20.0009 15.6156 20.0009H17.5H18C18.2906 20.0009 18.5688 19.8728 18.7563 19.654C18.9438 19.4353 19.0313 19.1415 18.9875 18.854L18.2375 13.854C18.2 13.5978 18.0625 13.3634 17.8531 13.2071L12.6031 9.20715L12.6062 9.20402Z" fill="black"/>
</svg>
