<svg width="24" height="24" viewBox="0 0 24 24" fill="none" xmlns="http://www.w3.org/2000/svg">
<path d="M10.1188 4H13.8813C14.2594 4 14.6062 4.2125 14.775 4.55313L15 5H18C18.5531 5 19 5.44687 19 6C19 6.55312 18.5531 7 18 7H6C5.44687 7 5 6.55312 5 6C5 5.44687 5.44687 5 6 5H9L9.225 4.55313C9.39375 4.2125 9.74062 4 10.1188 4ZM6 8H18V18C18 19.1031 17.1031 20 16 20H8C6.89688 20 6 19.1031 6 18V8ZM12 10C11.8 10 11.6094 10.0781 11.4688 10.2188L8.96875 12.7188C8.675 13.0125 8.675 13.4875 8.96875 13.7781C9.2625 14.0687 9.7375 14.0719 10.0281 13.7781L11.2469 12.5594V16.75C11.2469 17.1656 11.5812 17.5 11.9969 17.5C12.4125 17.5 12.7469 17.1656 12.7469 16.75V12.5594L13.9656 13.7781C14.2594 14.0719 14.7344 14.0719 15.025 13.7781C15.3156 13.4844 15.3187 13.0094 15.025 12.7188L12.525 10.2188C12.3844 10.0781 12.1937 10 11.9938 10H12Z" fill="black"/>
</svg>
