<svg width="24" height="24" viewBox="0 0 24 24" fill="none" xmlns="http://www.w3.org/2000/svg">
<path d="M13.7937 5.02815C14.6062 5.19065 15.1344 5.98128 14.9719 6.79378L14.9 7.15003C14.7344 7.9844 14.4281 8.77815 14 9.50003H18.5C19.3281 9.50003 20 10.1719 20 11C20 11.5782 19.6719 12.0813 19.1906 12.3313C19.5312 12.6063 19.75 13.0282 19.75 13.5C19.75 14.2313 19.225 14.8407 18.5344 14.9719C18.6719 15.2 18.75 15.4657 18.75 15.75C18.75 16.4157 18.3156 16.9813 17.7156 17.175C17.7375 17.2782 17.75 17.3875 17.75 17.5C17.75 18.3282 17.0781 19 16.25 19H13.2031C12.6094 19 12.0312 18.825 11.5375 18.4969L10.3344 17.6938C9.5 17.1375 9 16.2 9 15.1969V14V12.5V11.7219C9 10.8094 9.41563 9.95003 10.125 9.37815L10.3562 9.19378C11.1844 8.53128 11.75 7.60003 11.9563 6.56253L12.0281 6.20628C12.1906 5.39378 12.9812 4.86565 13.7937 5.02815ZM5 10H7C7.55312 10 8 10.4469 8 11V18C8 18.5532 7.55312 19 7 19H5C4.44687 19 4 18.5532 4 18V11C4 10.4469 4.44687 10 5 10Z" fill="black"/>
</svg>
