<svg width="24" height="24" viewBox="0 0 24 24" fill="none" xmlns="http://www.w3.org/2000/svg">
<path d="M3.21255 4.15943C2.88755 3.90318 2.41568 3.96255 2.15943 4.28755C1.90318 4.61255 1.96255 5.08443 2.28755 5.34068L20.7876 19.8407C21.1126 20.0969 21.5844 20.0376 21.8407 19.7126C22.0969 19.3876 22.0376 18.9157 21.7126 18.6594L20.0001 17.3157V14.7219C19.6907 15.3313 19.2751 15.9157 18.7532 16.3407L17.9376 15.7001C18.6438 15.2376 19.2313 14.2626 19.5969 13.0001C19.8532 12.1188 19.9969 11.0938 19.9969 10.0001C20.0001 6.68755 18.6563 4.00005 17.0001 4.00005C16.6501 4.00005 16.3126 4.1188 16.0001 4.34068C14.8344 5.16568 14.0001 7.38755 14.0001 10.0001C14.0001 11.0563 14.1376 12.0469 14.3751 12.9094L13.1469 11.9469C13.0501 11.3251 13.0001 10.6719 13.0001 10.0001C13.0001 8.22193 13.3594 6.56255 13.9844 5.30943C14.2188 4.84068 14.5188 4.3813 14.8813 4.00005H7.00005C6.22505 4.00005 5.5188 4.58755 4.98755 5.55005L3.21255 4.15943ZM18.5001 20.0001L14.6938 17.0001H9.00005V18.5001C9.00005 19.3282 9.67193 20.0001 10.5001 20.0001H18.5001ZM4.00005 10.0001C4.00005 13.3126 5.3438 16.0001 7.00005 16.0001H13.4219L4.07818 8.63755C4.02818 9.07505 4.00005 9.5313 4.00005 10.0001ZM17.0001 12.0001C16.4469 12.0001 16.0001 11.1032 16.0001 10.0001C16.0001 8.89693 16.4469 8.00005 17.0001 8.00005C17.5532 8.00005 18.0001 8.89693 18.0001 10.0001C18.0001 11.1032 17.5532 12.0001 17.0001 12.0001Z" fill="black"/>
</svg>
