<svg width="24" height="24" viewBox="0 0 24 24" fill="none" xmlns="http://www.w3.org/2000/svg">
<path d="M14.7406 5.24991C14.2625 5.52491 14.0969 6.13741 14.375 6.61553L17.375 11.8124C17.65 12.2905 18.2625 12.453 18.7406 12.178L20.4719 11.178C20.95 10.903 21.1125 10.2905 20.8375 9.81241L17.8375 4.61553C17.5625 4.13741 16.95 3.97491 16.4719 4.24991L14.7406 5.24991ZM3.36874 14.7374C3.01249 14.9468 2.88749 15.403 3.09686 15.7624L3.90624 17.1655C4.11249 17.5249 4.57186 17.6468 4.93124 17.4405L6.30936 16.6437L6.33436 16.6874C6.60311 17.1562 7.19686 17.3249 7.67186 17.0687L10.4344 15.5874L9.05624 18.9655C8.89999 19.3499 9.08436 19.7874 9.46874 19.9437C9.85311 20.0999 10.2906 19.9155 10.4469 19.5312L12.5 14.4874L14.5562 19.5312C14.7125 19.9155 15.15 20.0999 15.5344 19.9437C15.9187 19.7874 16.1031 19.3499 15.9469 18.9655L13.825 13.7655L16.5156 12.3218L16.5094 12.3124L13.5094 7.11553C13.4781 7.05928 13.4469 7.00304 13.4219 6.94678L4.94999 12.3874C4.49999 12.6749 4.35624 13.2655 4.62499 13.728L4.74999 13.9437L3.36874 14.7374Z" fill="black"/>
</svg>
