<svg width="24" height="24" viewBox="0 0 24 24" fill="none" xmlns="http://www.w3.org/2000/svg">
<path d="M14.7467 10.6687L11.6655 13.75L13.7092 15.7937C13.9561 16.0406 14.0561 16.4 13.9717 16.7406C13.8873 17.0812 13.6342 17.3531 13.2998 17.4562L5.29984 19.9562C4.94359 20.0656 4.55609 19.9718 4.29359 19.7093C4.03109 19.4468 3.93421 19.0562 4.04671 18.7031L6.54671 10.7031C6.64984 10.3687 6.92171 10.1125 7.26234 10.0312C7.60296 9.94995 7.96234 10.0468 8.20921 10.2937L10.2498 12.3343L13.3311 9.25308C12.8842 8.79683 12.8873 8.06558 13.3405 7.61245L16.3217 4.6312C17.1623 3.79058 18.5248 3.79058 19.3686 4.6312C20.2123 5.47183 20.2092 6.83433 19.3686 7.67808L16.3873 10.6593C15.9342 11.1125 15.203 11.1156 14.7467 10.6687Z" fill="black"/>
</svg>
