<svg width="24" height="24" viewBox="0 0 24 24" fill="none" xmlns="http://www.w3.org/2000/svg">
<path d="M11.9999 5C12.4437 5 12.8531 5.23437 13.0781 5.61875L19.8281 17.1187C20.0562 17.5062 20.0562 17.9844 19.8343 18.3719C19.6124 18.7594 19.1968 19 18.7499 19H5.24995C4.80307 19 4.38745 18.7594 4.16557 18.3719C3.9437 17.9844 3.94682 17.5031 4.17182 17.1187L10.9218 5.61875C11.1468 5.23437 11.5562 5 11.9999 5ZM11.9999 9C11.5843 9 11.2499 9.33437 11.2499 9.75V13.25C11.2499 13.6656 11.5843 14 11.9999 14C12.4156 14 12.7499 13.6656 12.7499 13.25V9.75C12.7499 9.33437 12.4156 9 11.9999 9ZM12.9999 16C12.9999 15.7348 12.8946 15.4804 12.7071 15.2929C12.5195 15.1054 12.2652 15 11.9999 15C11.7347 15 11.4804 15.1054 11.2928 15.2929C11.1053 15.4804 10.9999 15.7348 10.9999 16C10.9999 16.2652 11.1053 16.5196 11.2928 16.7071C11.4804 16.8946 11.7347 17 11.9999 17C12.2652 17 12.5195 16.8946 12.7071 16.7071C12.8946 16.5196 12.9999 16.2652 12.9999 16Z" fill="black"/>
</svg>
