<svg width="24" height="24" viewBox="0 0 24 24" fill="none" xmlns="http://www.w3.org/2000/svg">
<path d="M21.6469 6.02176C21.8563 6.08738 22 6.28113 22 6.49988V15.4999C22 15.7186 21.8563 15.9124 21.6469 15.978C21.4375 16.0436 21.2094 15.9655 21.0875 15.7843L21.0844 15.778L21.0625 15.7499C21.0438 15.7249 21.0156 15.6843 20.975 15.6311C20.8969 15.528 20.7812 15.378 20.6313 15.1968C20.3313 14.8343 19.8938 14.3561 19.3563 13.8749C18.2625 12.903 16.8156 11.9999 15.25 11.9999H14.5V15.9374C15.3625 15.7155 16 14.9311 16 13.9999V13.0874C16.6875 13.2436 17.3656 13.5999 18 14.0624C17.9656 16.2436 16.1875 17.9999 14 17.9999H11.0031C11.0031 17.9999 11.0031 17.9999 11 17.9999H8C5.79063 17.9999 4 16.2093 4 13.9999C4 13.2718 4.19375 12.5874 4.53437 11.9999H3.45625C3.35312 12.2905 3.075 12.4999 2.75 12.4999C2.33437 12.4999 2 12.1655 2 11.7499V10.2499C2 9.83426 2.33437 9.49988 2.75 9.49988C3.075 9.49988 3.35312 9.70926 3.45625 9.99988H7.5V8.99988C7.5 8.58426 7.83437 8.24988 8.25 8.24988C8.66563 8.24988 9 8.58426 9 8.99988V9.99988H10.25V8.99988C10.25 8.58426 10.5844 8.24988 11 8.24988C11.4156 8.24988 11.75 8.58426 11.75 8.99988V9.99988H13V8.99988C13 8.58426 13.3344 8.24988 13.75 8.24988C14.1656 8.24988 14.5 8.58426 14.5 8.99988V9.99988H15.25C16.8156 9.99988 18.2625 9.09988 19.3563 8.12488C19.8969 7.64676 20.3313 7.16551 20.6313 6.80301C20.7812 6.62176 20.8969 6.47176 20.975 6.36863C21.0125 6.31551 21.0438 6.27801 21.0625 6.24988L21.0844 6.22176L21.0875 6.21551C21.2125 6.03426 21.4375 5.95613 21.6469 6.02176ZM11.75 15.9999H13V11.9999H11.75V15.9999ZM9 11.9999V15.9999H10.25V11.9999H9ZM6 13.9999C6 14.9311 6.6375 15.7155 7.5 15.9374V12.0624C6.6375 12.2843 6 13.0686 6 13.9999Z" fill="black"/>
</svg>
