<svg width="24" height="24" viewBox="0 0 24 24" fill="none" xmlns="http://www.w3.org/2000/svg">
<path d="M8.25 4C7.29375 4 6.5 5.70937 6.5 6.69062V10.0156L2.24375 12.5719C2.09063 12.6625 2 12.825 2 13V15C2 15.1594 2.075 15.3062 2.2 15.4C2.325 15.4937 2.49062 15.5219 2.64062 15.4781L6.49687 14.3219V16.8594L4.93438 18.1094C4.81563 18.2031 4.74688 18.3469 4.74688 18.5V19.5C4.74688 19.6594 4.825 19.8125 4.95312 19.9062C5.08125 20 5.25 20.025 5.40313 19.975L8.25 19.0281L11.075 19.9688C11.025 19.8219 11 19.6625 11 19.5V18.4812C10.4312 18.1531 10.0406 17.5531 10.0031 16.8625L10 16.8594V16.75V14.1719V9.75V9.71562V6.69062C10 5.70937 9.23438 4 8.25 4ZM11 9.5V16.5C11 17.1531 11.4187 17.7094 12 17.9156V19.25C12 19.6656 12.3344 20 12.75 20H13.25C13.6656 20 14 19.6656 14 19.25V18H19V19.25C19 19.6656 19.3344 20 19.75 20H20.25C20.6656 20 21 19.6656 21 19.25V17.9156C21.5813 17.7094 22 17.1531 22 16.5V9.5C22 8.67188 21.3281 8 20.5 8H12.5C11.6719 8 11 8.67188 11 9.5ZM13.4937 11.9594C13.5969 11.6875 13.8437 11.5 14.1344 11.5H18.8656C19.1531 11.5 19.4031 11.6875 19.5063 11.9594L20 13.5H13L13.4937 11.9594ZM19.75 15C19.8485 15 19.946 15.0194 20.037 15.0571C20.128 15.0948 20.2107 15.15 20.2803 15.2197C20.35 15.2893 20.4052 15.372 20.4429 15.463C20.4806 15.554 20.5 15.6515 20.5 15.75C20.5 15.8485 20.4806 15.946 20.4429 16.037C20.4052 16.128 20.35 16.2107 20.2803 16.2803C20.2107 16.35 20.128 16.4052 20.037 16.4429C19.946 16.4806 19.8485 16.5 19.75 16.5C19.6515 16.5 19.554 16.4806 19.463 16.4429C19.372 16.4052 19.2893 16.35 19.2197 16.2803C19.15 16.2107 19.0948 16.128 19.0571 16.037C19.0194 15.946 19 15.8485 19 15.75C19 15.6515 19.0194 15.554 19.0571 15.463C19.0948 15.372 19.15 15.2893 19.2197 15.2197C19.2893 15.15 19.372 15.0948 19.463 15.0571C19.554 15.0194 19.6515 15 19.75 15ZM12.5 15.75C12.5 15.5511 12.579 15.3603 12.7197 15.2197C12.8603 15.079 13.0511 15 13.25 15C13.4489 15 13.6397 15.079 13.7803 15.2197C13.921 15.3603 14 15.5511 14 15.75C14 15.9489 13.921 16.1397 13.7803 16.2803C13.6397 16.421 13.4489 16.5 13.25 16.5C13.0511 16.5 12.8603 16.421 12.7197 16.2803C12.579 16.1397 12.5 15.9489 12.5 15.75Z" fill="black"/>
</svg>
