<svg width="24" height="24" viewBox="0 0 24 24" fill="none" xmlns="http://www.w3.org/2000/svg">
<path d="M7 4H14.8813C14.5188 4.38125 14.2188 4.84063 13.9844 5.30938C13.3594 6.5625 13 8.22187 13 10C13 11.7781 13.3594 13.4375 13.9844 14.6906C14.2188 15.1594 14.5188 15.6188 14.8813 16H7C5.34375 16 4 13.3125 4 10C4 6.6875 5.34375 4 7 4ZM14 10C14 7.3875 14.8344 5.16562 16 4.34062C16.3125 4.11875 16.65 4 17 4C18.6562 4 20 6.6875 20 10C20 11.0938 19.8531 12.1187 19.6 13C19.0813 14.7938 18.1125 16 17 16C16.65 16 16.3125 15.8813 16 15.6594C14.8344 14.8344 14 12.6125 14 10ZM16 10C16 11.1031 16.4469 12 17 12C17.5531 12 18 11.1031 18 10C18 8.89688 17.5531 8 17 8C16.4469 8 16 8.89688 16 10ZM9 17H17C18.4 17 19.4031 15.9 20 14.7219V18.5C20 19.3281 19.3281 20 18.5 20H10.5C9.67188 20 9 19.3281 9 18.5V17ZM6 10.5C6 10.3674 5.94732 10.2402 5.85355 10.1464C5.75979 10.0527 5.63261 10 5.5 10C5.36739 10 5.24021 10.0527 5.14645 10.1464C5.05268 10.2402 5 10.3674 5 10.5C5 10.6326 5.05268 10.7598 5.14645 10.8536C5.24021 10.9473 5.36739 11 5.5 11C5.63261 11 5.75979 10.9473 5.85355 10.8536C5.94732 10.7598 6 10.6326 6 10.5ZM8 10.5C8 10.3674 7.94732 10.2402 7.85355 10.1464C7.75979 10.0527 7.63261 10 7.5 10C7.36739 10 7.24021 10.0527 7.14645 10.1464C7.05268 10.2402 7 10.3674 7 10.5C7 10.6326 7.05268 10.7598 7.14645 10.8536C7.24021 10.9473 7.36739 11 7.5 11C7.63261 11 7.75979 10.9473 7.85355 10.8536C7.94732 10.7598 8 10.6326 8 10.5ZM9.5 11C9.63261 11 9.75979 10.9473 9.85355 10.8536C9.94732 10.7598 10 10.6326 10 10.5C10 10.3674 9.94732 10.2402 9.85355 10.1464C9.75979 10.0527 9.63261 10 9.5 10C9.36739 10 9.24021 10.0527 9.14645 10.1464C9.05268 10.2402 9 10.3674 9 10.5C9 10.6326 9.05268 10.7598 9.14645 10.8536C9.24021 10.9473 9.36739 11 9.5 11ZM12 10.5C12 10.3674 11.9473 10.2402 11.8536 10.1464C11.7598 10.0527 11.6326 10 11.5 10C11.3674 10 11.2402 10.0527 11.1464 10.1464C11.0527 10.2402 11 10.3674 11 10.5C11 10.6326 11.0527 10.7598 11.1464 10.8536C11.2402 10.9473 11.3674 11 11.5 11C11.6326 11 11.7598 10.9473 11.8536 10.8536C11.9473 10.7598 12 10.6326 12 10.5Z" fill="black"/>
</svg>
