<svg width="24" height="24" viewBox="0 0 24 24" fill="none" xmlns="http://www.w3.org/2000/svg">
<path d="M8.70625 4.29375C8.50625 4.09062 8.22812 3.98437 7.94375 4C7.65937 4.01562 7.39687 4.15312 7.21875 4.375L5.93438 5.98437C5.5125 6.5125 5.02812 6.98125 4.4875 7.3875L3.4 8.2C3.14687 8.3875 3 8.68437 3 9V10H21V9C21 8.68437 20.8531 8.3875 20.6 8.2L19.5156 7.38437C18.975 6.98125 18.4906 6.50937 18.0688 5.98125L16.7812 4.375C16.6031 4.15312 16.3406 4.01875 16.0562 4C15.7719 3.98125 15.4937 4.09062 15.2937 4.29062L14.7063 4.87812C13.9906 5.59687 13.0156 6 12 6C10.9844 6 10.0094 5.59687 9.29375 4.87812L8.70625 4.29375ZM21 11H3V19C3 19.5531 3.44687 20 4 20H10.5H11C11.5531 20 12 19.5531 12 19V13.3094C12 13.1375 12.1375 13 12.3094 13C12.425 13 12.5344 13.0656 12.5844 13.1719L15.725 19.4469C15.8938 19.7844 16.2406 20 16.6187 20H17.5H20C20.5531 20 21 19.5531 21 19V11Z" fill="black"/>
</svg>
