<svg width="24" height="24" viewBox="0 0 24 24" fill="none" xmlns="http://www.w3.org/2000/svg">
<path d="M6 5C6.55313 5 7 5.44687 7 6V12.6125L9 11.9469V6C9 5.44687 9.44688 5 10 5C10.5531 5 11 5.44687 11 6V11.2781L13 10.6125V6C13 5.44687 13.4469 5 14 5C14.5531 5 15 5.44687 15 6V9.94688L17 9.28125V6C17 5.44687 17.4469 5 18 5C18.5531 5 19 5.44687 19 6V8.6125L20.6844 8.05C21.2094 7.875 21.775 8.15938 21.95 8.68125C22.125 9.20312 21.8406 9.77187 21.3188 9.94688L19 10.7219V18C19 18.5531 18.5531 19 18 19C17.4469 19 17 18.5531 17 18V11.3875L15 12.0531V18C15 18.5531 14.5531 19 14 19C13.4469 19 13 18.5531 13 18V12.7219L11 13.3875V18C11 18.5531 10.5531 19 10 19C9.44688 19 9 18.5531 9 18V14.0531L7 14.7188V18C7 18.5531 6.55313 19 6 19C5.44688 19 5 18.5531 5 18V15.3875L3.31563 15.95C2.79063 16.125 2.225 15.8406 2.05 15.3188C1.875 14.7969 2.15938 14.2281 2.68125 14.0531L5 13.2781V6C5 5.44687 5.44688 5 6 5Z" fill="black"/>
</svg>
