<svg width="24" height="24" viewBox="0 0 24 24" fill="none" xmlns="http://www.w3.org/2000/svg">
<path d="M7 7.5C7 6.67188 7.67188 6 8.5 6C9.32812 6 10 6.67188 10 7.5V12.6406C10 13.1812 10.2219 13.6375 10.4781 13.9688C10.8063 14.3938 11 14.9219 11 15.5C11 16.8813 9.88125 18 8.5 18C7.11875 18 6 16.8813 6 15.5C6 14.9219 6.19375 14.3938 6.52187 13.9719C6.77812 13.6406 7 13.1844 7 12.6438V7.5ZM8.5 4C6.56562 4 5 5.56562 5 7.5V12.6375C5 12.6406 4.99687 12.6469 4.99375 12.6562C4.9875 12.675 4.96875 12.7062 4.94062 12.7437C4.35 13.5062 4 14.4625 4 15.5C4 17.9844 6.01562 20 8.5 20C10.9844 20 13 17.9844 13 15.5C13 14.4625 12.65 13.5062 12.0594 12.7469C12.0312 12.7094 12.0125 12.6781 12.0063 12.6594C12.0031 12.65 12 12.6438 12 12.6406V7.5C12 5.56562 10.4344 4 8.5 4ZM8.5 17C9.32812 17 10 16.3281 10 15.5C10 14.8469 9.58125 14.2906 9 14.0844V7.5C9 7.225 8.775 7 8.5 7C8.225 7 8 7.225 8 7.5V14.0844C7.41875 14.2906 7 14.8469 7 15.5C7 16.3281 7.67188 17 8.5 17ZM18 9H19C19.4031 9 19.7687 8.75625 19.925 8.38125C20.0812 8.00625 19.9938 7.57812 19.7094 7.29063L17.7094 5.29062C17.3188 4.9 16.6844 4.9 16.2937 5.29062L14.2937 7.29063C14.0062 7.57812 13.9219 8.00625 14.0781 8.38125C14.2344 8.75625 14.5969 9 15.0031 9H16.0031V18C16.0031 18.5531 16.45 19 17.0031 19C17.5563 19 18.0031 18.5531 18.0031 18V9H18Z" fill="black"/>
</svg>
