<svg width="24" height="24" viewBox="0 0 24 24" fill="none" xmlns="http://www.w3.org/2000/svg">
<path d="M11.5312 4.21873L11 4.74998C11.5312 4.21873 11.5312 4.21873 11.5312 4.21873L11.5344 4.22185L11.5406 4.2281L11.5563 4.24373C11.5687 4.25623 11.5875 4.27498 11.6094 4.29998C11.6531 4.34685 11.7094 4.41248 11.7781 4.49685C11.9156 4.6656 12.0938 4.90623 12.2719 5.20935C12.4781 5.55935 12.6906 6.00623 12.8344 6.52498C14.2625 6.62185 15.6 6.96873 16.7437 7.54998C16.95 7.65623 17.0563 7.88748 17.0031 8.11248C16.95 8.33748 16.7469 8.49685 16.5156 8.49685H15.4344L15.9156 9.21873C16.0375 9.4031 16.025 9.64685 15.8844 9.8156C15.7437 9.98435 15.5063 10.0437 15.3031 9.95623L12 8.54373L8.69688 9.95935C8.49375 10.0469 8.25625 9.9906 8.11562 9.81873C7.975 9.64685 7.9625 9.40623 8.08437 9.22185L8.56875 8.49373L7.59063 8.48748C7.37188 8.53435 7.14375 8.43435 7.0375 8.22498C6.9125 7.9781 7.00937 7.6781 7.25625 7.5531L7.28125 7.5406C8.44375 6.95623 9.8 6.60935 11.25 6.52185C11.1687 6.32185 11.075 6.13748 10.9781 5.97185C10.8438 5.74373 10.7094 5.5656 10.6125 5.44373C10.5625 5.38435 10.525 5.33748 10.5 5.30935C10.4875 5.29685 10.4781 5.28435 10.4719 5.28123L10.4688 5.2781C10.1781 4.98435 10.1781 4.51248 10.4719 4.21873C10.7656 3.92498 11.2406 3.92498 11.5312 4.21873ZM6.22187 8.81248C6.40937 9.10623 6.6875 9.3156 7.00312 9.42185C6.98438 9.7906 7.1 10.1625 7.34687 10.4594C7.77187 10.9687 8.48125 11.1406 9.09062 10.8781L12 9.63123L14.9094 10.8781C15.5188 11.1406 16.2281 10.9687 16.6531 10.4594C16.9 10.1625 17.0188 9.78748 16.9969 9.42185C17.3187 9.31248 17.5938 9.09685 17.7781 8.81248C19.1531 9.92185 20 11.5125 20 13.5C20 17.5906 16.4187 20 12 20C7.58125 20 4 17.5906 4 13.5C4 11.5125 4.84687 9.92185 6.22187 8.81248Z" fill="black"/>
</svg>
