<svg width="24" height="24" viewBox="0 0 24 24" fill="none" xmlns="http://www.w3.org/2000/svg">
<path d="M4 6C2.89688 6 2 6.89688 2 8V16C2 17.1031 2.89688 18 4 18H20C21.1031 18 22 17.1031 22 16V8C22 6.89688 21.1031 6 20 6H4ZM5 8H12C12.5531 8 13 8.44687 13 9V11C13 11.5531 12.5531 12 12 12H5C4.44687 12 4 11.5531 4 11V9C4 8.44687 4.44687 8 5 8ZM4 15.5C4 15.225 4.225 15 4.5 15H12.5C12.775 15 13 15.225 13 15.5C13 15.775 12.775 16 12.5 16H4.5C4.225 16 4 15.775 4 15.5ZM14 15.5C14 15.225 14.225 15 14.5 15H19.5C19.775 15 20 15.225 20 15.5C20 15.775 19.775 16 19.5 16H14.5C14.225 16 14 15.775 14 15.5ZM4.5 13C4.63261 13 4.75979 13.0527 4.85355 13.1464C4.94732 13.2402 5 13.3674 5 13.5C5 13.6326 4.94732 13.7598 4.85355 13.8536C4.75979 13.9473 4.63261 14 4.5 14C4.36739 14 4.24021 13.9473 4.14645 13.8536C4.05268 13.7598 4 13.6326 4 13.5C4 13.3674 4.05268 13.2402 4.14645 13.1464C4.24021 13.0527 4.36739 13 4.5 13ZM6 13.5C6 13.3674 6.05268 13.2402 6.14645 13.1464C6.24021 13.0527 6.36739 13 6.5 13C6.63261 13 6.75979 13.0527 6.85355 13.1464C6.94732 13.2402 7 13.3674 7 13.5C7 13.6326 6.94732 13.7598 6.85355 13.8536C6.75979 13.9473 6.63261 14 6.5 14C6.36739 14 6.24021 13.9473 6.14645 13.8536C6.05268 13.7598 6 13.6326 6 13.5ZM8.5 13C8.63261 13 8.75979 13.0527 8.85355 13.1464C8.94732 13.2402 9 13.3674 9 13.5C9 13.6326 8.94732 13.7598 8.85355 13.8536C8.75979 13.9473 8.63261 14 8.5 14C8.36739 14 8.24021 13.9473 8.14645 13.8536C8.05268 13.7598 8 13.6326 8 13.5C8 13.3674 8.05268 13.2402 8.14645 13.1464C8.24021 13.0527 8.36739 13 8.5 13ZM10 13.5C10 13.3674 10.0527 13.2402 10.1464 13.1464C10.2402 13.0527 10.3674 13 10.5 13C10.6326 13 10.7598 13.0527 10.8536 13.1464C10.9473 13.2402 11 13.3674 11 13.5C11 13.6326 10.9473 13.7598 10.8536 13.8536C10.7598 13.9473 10.6326 14 10.5 14C10.3674 14 10.2402 13.9473 10.1464 13.8536C10.0527 13.7598 10 13.6326 10 13.5ZM12.5 13C12.6326 13 12.7598 13.0527 12.8536 13.1464C12.9473 13.2402 13 13.3674 13 13.5C13 13.6326 12.9473 13.7598 12.8536 13.8536C12.7598 13.9473 12.6326 14 12.5 14C12.3674 14 12.2402 13.9473 12.1464 13.8536C12.0527 13.7598 12 13.6326 12 13.5C12 13.3674 12.0527 13.2402 12.1464 13.1464C12.2402 13.0527 12.3674 13 12.5 13Z" fill="black"/>
</svg>
