<svg width="24" height="24" viewBox="0 0 24 24" fill="none" xmlns="http://www.w3.org/2000/svg">
<path d="M3 7C3 5.89688 3.89688 5 5 5H12C12.7406 5 13.3875 5.40312 13.7312 6H15.35C16.1406 6 16.8563 6.46562 17.1781 7.1875L18.8281 10.9C18.8438 10.9344 18.8562 10.9656 18.8687 11H19C20.1031 11 21 11.8969 21 13V14C21.5531 14 22 14.4469 22 15C22 15.5531 21.5531 16 21 16H20C20 17.6562 18.6562 19 17 19C15.3438 19 14 17.6562 14 16H10C10 17.6562 8.65625 19 7 19C5.34375 19 4 17.6562 4 16H3C2.44687 16 2 15.5531 2 15C2 14.4469 2.44687 14 3 14V13C2.44687 13 2 12.5531 2 12V9C2 8.44687 2.44687 8 3 8V7ZM14 11H16.6844L15.35 8H14V11ZM7 17.5C7.39782 17.5 7.77936 17.342 8.06066 17.0607C8.34196 16.7794 8.5 16.3978 8.5 16C8.5 15.6022 8.34196 15.2206 8.06066 14.9393C7.77936 14.658 7.39782 14.5 7 14.5C6.60218 14.5 6.22064 14.658 5.93934 14.9393C5.65804 15.2206 5.5 15.6022 5.5 16C5.5 16.3978 5.65804 16.7794 5.93934 17.0607C6.22064 17.342 6.60218 17.5 7 17.5ZM18.5 16C18.5 15.6022 18.342 15.2206 18.0607 14.9393C17.7794 14.658 17.3978 14.5 17 14.5C16.6022 14.5 16.2206 14.658 15.9393 14.9393C15.658 15.2206 15.5 15.6022 15.5 16C15.5 16.3978 15.658 16.7794 15.9393 17.0607C16.2206 17.342 16.6022 17.5 17 17.5C17.3978 17.5 17.7794 17.342 18.0607 17.0607C18.342 16.7794 18.5 16.3978 18.5 16Z" fill="black"/>
</svg>
