<svg width="24" height="24" viewBox="0 0 24 24" fill="none" xmlns="http://www.w3.org/2000/svg">
<path d="M8 7V10H12.2344L10.4344 7H8ZM6 10V6.5C6 5.67188 6.67188 5 7.5 5H10.4344C11.1375 5 11.7875 5.36875 12.15 5.97187L14.5656 10H16C16.5531 10 17 10.4469 17 11V13H18V9.5C18 9.27187 18.0781 9.05312 18.2188 8.875L20.2188 6.375C20.5625 5.94375 21.1937 5.875 21.625 6.21875C22.0563 6.5625 22.125 7.19375 21.7812 7.625L20 9.85V14V15.15L21.7812 17.375C22.125 17.8063 22.0563 18.4344 21.625 18.7812C21.1937 19.1281 20.5656 19.0563 20.2188 18.625L18.2188 16.125C18.0781 15.9469 18 15.7281 18 15.5V15H16.8281C16.9375 15.3125 17 15.65 17 16C17 17.6562 15.6562 19 14 19C12.3438 19 11 17.6562 11 16C11 15.65 11.0594 15.3125 11.1719 15H9C8.94063 15 8.88125 14.9938 8.825 14.9844C8.94062 15.3031 9 15.6438 9 16C9 17.6562 7.65625 19 6 19C4.34375 19 3 17.6562 3 16C3 15.65 3.05938 15.3125 3.17188 15H3C2.44687 15 2 14.5531 2 14V11C2 10.4469 2.44687 10 3 10H6ZM7 16C7 15.7348 6.89464 15.4804 6.70711 15.2929C6.51957 15.1054 6.26522 15 6 15C5.73478 15 5.48043 15.1054 5.29289 15.2929C5.10536 15.4804 5 15.7348 5 16C5 16.2652 5.10536 16.5196 5.29289 16.7071C5.48043 16.8946 5.73478 17 6 17C6.26522 17 6.51957 16.8946 6.70711 16.7071C6.89464 16.5196 7 16.2652 7 16ZM15 16C15 15.7348 14.8946 15.4804 14.7071 15.2929C14.5196 15.1054 14.2652 15 14 15C13.7348 15 13.4804 15.1054 13.2929 15.2929C13.1054 15.4804 13 15.7348 13 16C13 16.2652 13.1054 16.5196 13.2929 16.7071C13.4804 16.8946 13.7348 17 14 17C14.2652 17 14.5196 16.8946 14.7071 16.7071C14.8946 16.5196 15 16.2652 15 16Z" fill="black"/>
</svg>
