<svg width="24" height="24" viewBox="0 0 24 24" fill="none" xmlns="http://www.w3.org/2000/svg">
<path d="M6.61875 4H10.3813C10.7594 4 11.1062 4.2125 11.275 4.55313L11.5 5H14C14.5531 5 15 5.44687 15 6C15 6.55313 14.5531 7 14 7H3C2.44687 7 2 6.55313 2 6C2 5.44687 2.44687 5 3 5H5.5L5.725 4.55313C5.89375 4.2125 6.24063 4 6.61875 4ZM3 8H14L13.3375 18.5938C13.2875 19.3844 12.6312 20 11.8406 20H5.15937C4.36875 20 3.7125 19.3844 3.6625 18.5938L3 8ZM17 8H21C21.5531 8 22 8.44687 22 9C22 9.55313 21.5531 10 21 10H17C16.4469 10 16 9.55313 16 9C16 8.44687 16.4469 8 17 8ZM17 12H20C20.5531 12 21 12.4469 21 13C21 13.5531 20.5531 14 20 14H17C16.4469 14 16 13.5531 16 13C16 12.4469 16.4469 12 17 12ZM16 17C16 16.4469 16.4469 16 17 16H18C18.5531 16 19 16.4469 19 17C19 17.5531 18.5531 18 18 18H17C16.4469 18 16 17.5531 16 17Z" fill="black"/>
</svg>
