<svg width="24" height="24" viewBox="0 0 24 24" fill="none" xmlns="http://www.w3.org/2000/svg">
<path d="M10.1188 4H13.8813C14.2594 4 14.6062 4.2125 14.775 4.55313L15 5H18C18.5531 5 19 5.44687 19 6C19 6.55313 18.5531 7 18 7H6C5.44687 7 5 6.55313 5 6C5 5.44687 5.44687 5 6 5H9L9.225 4.55313C9.39375 4.2125 9.74063 4 10.1188 4ZM6 8H18V18C18 19.1031 17.1031 20 16 20H8C6.89688 20 6 19.1031 6 18V8ZM15.5312 12.2812C15.825 11.9875 15.825 11.5125 15.5312 11.2219C15.2375 10.9313 14.7625 10.9281 14.4719 11.2219L11.0031 14.6906L9.53438 13.2219C9.24063 12.9281 8.76562 12.9281 8.475 13.2219C8.18437 13.5156 8.18125 13.9906 8.475 14.2812L10.475 16.2812C10.7687 16.575 11.2438 16.575 11.5344 16.2812L15.5312 12.2812Z" fill="black"/>
</svg>
