<svg width="24" height="24" viewBox="0 0 24 24" fill="none" xmlns="http://www.w3.org/2000/svg">
<path d="M7 5C5.89688 5 5 5.89688 5 7V8.5C5 8.775 5.23125 8.99063 5.49062 9.08125C6.07812 9.28438 6.5 9.84375 6.5 10.5C6.5 11.1562 6.07812 11.7156 5.49062 11.9187C5.23125 12.0094 5 12.225 5 12.5V14C5 15.1031 5.89688 16 7 16H20C21.1031 16 22 15.1031 22 14V12.5C22 12.225 21.7687 12.0094 21.5094 11.9187C20.9219 11.7156 20.5 11.1562 20.5 10.5C20.5 9.84375 20.9219 9.28438 21.5094 9.08125C21.7687 8.99063 22 8.775 22 8.5V7C22 5.89688 21.1031 5 20 5H7ZM3.5 7.75C3.5 7.33437 3.16563 7 2.75 7C2.33437 7 2 7.33437 2 7.75V15.25C2 17.3219 3.67812 19 5.75 19H18.25C18.6656 19 19 18.6656 19 18.25C19 17.8344 18.6656 17.5 18.25 17.5H5.75C4.50625 17.5 3.5 16.4937 3.5 15.25V7.75Z" fill="black"/>
</svg>
