<svg width="24" height="24" viewBox="0 0 24 24" fill="none" xmlns="http://www.w3.org/2000/svg">
<path d="M2 4.75C2 5.16563 2.33437 5.5 2.75 5.5H3V7.08437C2.41875 7.29062 2 7.84688 2 8.5V11H14V7V6.5V5.5H21.25C21.6656 5.5 22 5.16563 22 4.75C22 4.33437 21.6656 4 21.25 4H2.75C2.33437 4 2 4.33437 2 4.75ZM2 12V15.5C2 16.3281 2.67188 17 3.5 17H4C4 18.6562 5.34375 20 7 20C8.65625 20 10 18.6562 10 17H14C14 18.6562 15.3438 20 17 20C18.6562 20 20 18.6562 20 17H20.5C21.3281 17 22 16.3281 22 15.5V12V9C22 7.89688 21.1031 7 20 7H19.5C19.5 6.44687 19.0531 6 18.5 6C17.9469 6 17.5 6.44687 17.5 7H16H15V11.5V12H14.5H2ZM10.75 5.5H12.5V7H10.75V5.5ZM9.25 7H7.75V5.5H9.25V7ZM4.5 5.5H6.25V7H4.5V5.5ZM20 9V12H17V9H20ZM7 15.5C7.39782 15.5 7.77936 15.658 8.06066 15.9393C8.34196 16.2206 8.5 16.6022 8.5 17C8.5 17.3978 8.34196 17.7794 8.06066 18.0607C7.77936 18.342 7.39782 18.5 7 18.5C6.60218 18.5 6.22064 18.342 5.93934 18.0607C5.65804 17.7794 5.5 17.3978 5.5 17C5.5 16.6022 5.65804 16.2206 5.93934 15.9393C6.22064 15.658 6.60218 15.5 7 15.5ZM15.5 17C15.5 16.6022 15.658 16.2206 15.9393 15.9393C16.2206 15.658 16.6022 15.5 17 15.5C17.3978 15.5 17.7794 15.658 18.0607 15.9393C18.342 16.2206 18.5 16.6022 18.5 17C18.5 17.3978 18.342 17.7794 18.0607 18.0607C17.7794 18.342 17.3978 18.5 17 18.5C16.6022 18.5 16.2206 18.342 15.9393 18.0607C15.658 17.7794 15.5 17.3978 15.5 17Z" fill="black"/>
</svg>
