<svg width="24" height="24" viewBox="0 0 24 24" fill="none" xmlns="http://www.w3.org/2000/svg">
<path d="M3.21243 4.15943C2.88743 3.90318 2.41556 3.96255 2.15931 4.28755C1.90306 4.61255 1.96243 5.08443 2.28743 5.34068L20.7874 19.8407C21.1124 20.0969 21.5843 20.0376 21.8406 19.7126C22.0968 19.3876 22.0374 18.9157 21.7124 18.6594L17.9999 15.7501V8.00005H8.11243L6.83743 7.00005H17.9999C18.5531 7.00005 18.9999 6.55318 18.9999 6.00005C18.9999 5.44693 18.5531 5.00005 17.9999 5.00005H14.9999L14.7749 4.55318C14.6062 4.21255 14.2593 4.00005 13.8812 4.00005H10.1187C9.74056 4.00005 9.39368 4.21255 9.22493 4.55318L8.99993 5.00005H5.99993C5.58118 5.00005 5.22493 5.2563 5.07493 5.6188L3.21243 4.15943ZM11.4999 10.6563V10.5001C11.4999 10.2251 11.7249 10.0001 11.9999 10.0001C12.2749 10.0001 12.4999 10.2251 12.4999 10.5001V11.4376L11.4999 10.6563ZM14.4999 13.0063V10.5001C14.4999 10.2251 14.7249 10.0001 14.9999 10.0001C15.2749 10.0001 15.4999 10.2251 15.4999 10.5001V13.7907L14.4999 13.0063ZM17.5562 19.2563L15.4843 17.6251C15.4281 17.8407 15.2343 18.0001 14.9999 18.0001C14.7249 18.0001 14.4999 17.7751 14.4999 17.5001V16.8501L12.4999 15.2751V17.5001C12.4999 17.7751 12.2749 18.0001 11.9999 18.0001C11.7249 18.0001 11.4999 17.7751 11.4999 17.5001V14.4844L9.49993 12.9094V17.5001C9.49993 17.7751 9.27493 18.0001 8.99993 18.0001C8.72493 18.0001 8.49993 17.7751 8.49993 17.5001V12.1219L5.99993 10.1532V18.0001C5.99993 19.1032 6.89681 20.0001 7.99993 20.0001H15.9999C16.6281 20.0001 17.1906 19.7094 17.5562 19.2563Z" fill="black"/>
</svg>
