<svg width="24" height="24" viewBox="0 0 24 24" fill="none" xmlns="http://www.w3.org/2000/svg">
<path d="M16.0001 5C16.0001 4.44687 16.447 4 17.0001 4C17.5532 4 18.0001 4.44687 18.0001 5V5.70312C18.0001 6.45625 18.122 7.20312 18.3595 7.91563L18.4376 8.14687C18.5876 8.59687 18.797 9.04063 19.0407 9.53438C19.5876 10.6469 20.0845 12.1156 19.9001 13.7906C19.7345 15.3094 19.022 16.8844 17.5001 18.4375V19.5C17.5001 19.775 17.2751 20 17.0001 20H16.0001C15.7251 20 15.5001 19.775 15.5001 19.5V19.25H14.5001V19.5C14.5001 19.775 14.2751 20 14.0001 20H13.0001C12.7251 20 12.5001 19.775 12.5001 19.5V19.25H11.5001V19.5C11.5001 19.775 11.2751 20 11.0001 20H10.0001C9.72512 20 9.50012 19.775 9.50012 19.5V19.25H8.50012V19.5C8.50012 19.775 8.27512 20 8.00012 20H7.00012C6.72512 20 6.50012 19.775 6.50012 19.5V18.4375C4.97824 16.8844 4.26887 15.3094 4.10012 13.7906C3.91574 12.1156 4.40949 10.6469 4.95949 9.53438C5.20324 9.04063 5.41262 8.59687 5.56262 8.14687L5.64074 7.91563C5.87824 7.20312 6.00012 6.45312 6.00012 5.70312V5C6.00012 4.44687 6.44699 4 7.00012 4C7.55324 4 8.00012 4.44687 8.00012 5V5.70312C8.00012 6.67188 7.84387 7.63125 7.53762 8.55L7.45949 8.78125C7.26262 9.375 6.99699 9.925 6.75324 10.4219C6.29387 11.35 5.96262 12.4219 6.08762 13.575C6.20324 14.6375 6.72512 15.8906 8.14074 17.2531H15.8564C17.272 15.8906 17.7939 14.6375 17.9095 13.575C18.0376 12.4219 17.7032 11.3531 17.2439 10.4219C17.0001 9.92812 16.7345 9.375 16.5376 8.78125L16.4595 8.55C16.1564 7.63125 16.0001 6.66875 16.0001 5.70312V5ZM12.7501 7.75V11.25C12.7501 11.6656 12.4157 12 12.0001 12C11.5845 12 11.2501 11.6656 11.2501 11.25V7.75C11.2501 7.33437 11.5845 7 12.0001 7C12.4157 7 12.7501 7.33437 12.7501 7.75ZM12.0001 13C12.2653 13 12.5197 13.1054 12.7072 13.2929C12.8948 13.4804 13.0001 13.7348 13.0001 14C13.0001 14.2652 12.8948 14.5196 12.7072 14.7071C12.5197 14.8946 12.2653 15 12.0001 15C11.7349 15 11.4805 14.8946 11.293 14.7071C11.1055 14.5196 11.0001 14.2652 11.0001 14C11.0001 13.7348 11.1055 13.4804 11.293 13.2929C11.4805 13.1054 11.7349 13 12.0001 13Z" fill="black"/>
</svg>
