<svg width="24" height="24" viewBox="0 0 24 24" fill="none" xmlns="http://www.w3.org/2000/svg">
<path d="M12.5876 5.19961L13.9657 6.26836C14.1407 6.40586 14.3595 6.47461 14.5814 6.46836L16.3251 6.41523C16.7626 6.40273 17.1532 6.68398 17.2751 7.10586L17.7626 8.78086C17.8251 8.99336 17.9595 9.18086 18.1439 9.30586L19.5814 10.2809C19.9439 10.5277 20.0907 10.984 19.9439 11.3965L19.4095 12.8871C17.7845 10.5371 15.072 8.99961 12.0001 8.99961C8.92824 8.99961 6.21574 10.5371 4.59074 12.8871L4.05636 11.3965C3.90949 10.9871 4.05636 10.5277 4.41886 10.2809L5.85949 9.29961C6.04386 9.17461 6.17824 8.99023 6.24074 8.77461L6.72824 7.10273C6.85011 6.68398 7.24074 6.39961 7.67824 6.41211L9.41886 6.46836C9.64074 6.47461 9.85949 6.40586 10.0345 6.26836L11.4126 5.19961C11.7564 4.93086 12.2407 4.93086 12.5845 5.19961H12.5876ZM20.0001 17.9996C20.0001 18.5527 19.5532 18.9996 19.0001 18.9996H5.00011C4.44699 18.9996 4.00011 18.5527 4.00011 17.9996C4.00011 13.5809 7.58136 9.99961 12.0001 9.99961C16.4189 9.99961 20.0001 13.5809 20.0001 17.9996ZM7.50011 16.9996C7.63272 16.9996 7.7599 16.9469 7.85367 16.8532C7.94744 16.7594 8.00011 16.6322 8.00011 16.4996C8.00011 16.367 7.94744 16.2398 7.85367 16.1461C7.7599 16.0523 7.63272 15.9996 7.50011 15.9996C7.36751 15.9996 7.24033 16.0523 7.14656 16.1461C7.05279 16.2398 7.00011 16.367 7.00011 16.4996C7.00011 16.6322 7.05279 16.7594 7.14656 16.8532C7.24033 16.9469 7.36751 16.9996 7.50011 16.9996ZM10.0001 14.4996C10.0001 14.367 9.94744 14.2398 9.85367 14.1461C9.7599 14.0523 9.63272 13.9996 9.50011 13.9996C9.36751 13.9996 9.24033 14.0523 9.14656 14.1461C9.05279 14.2398 9.00011 14.367 9.00011 14.4996C9.00011 14.6322 9.05279 14.7594 9.14656 14.8532C9.24033 14.9469 9.36751 14.9996 9.50011 14.9996C9.63272 14.9996 9.7599 14.9469 9.85367 14.8532C9.94744 14.7594 10.0001 14.6322 10.0001 14.4996Z" fill="black"/>
</svg>
