<svg width="24" height="24" viewBox="0 0 24 24" fill="none" xmlns="http://www.w3.org/2000/svg">
<path d="M9.95 6.31557C10.125 5.79057 9.84062 5.22494 9.31875 5.04994C8.79688 4.87494 8.22813 5.15932 8.05312 5.68119L7.6125 6.99994H6.5C5.94688 6.99994 5.5 7.44682 5.5 7.99994C5.5 8.55307 5.94688 8.99994 6.5 8.99994H6.94688L6.28125 10.9999H5.25C4.69687 10.9999 4.25 11.4468 4.25 11.9999C4.25 12.5531 4.69687 12.9999 5.25 12.9999H5.6125L4.94687 14.9999H4C3.44687 14.9999 3 15.4468 3 15.9999C3 16.5531 3.44687 16.9999 4 16.9999H4.27813L4.05 17.6843C3.875 18.2093 4.15937 18.7749 4.68125 18.9499C5.20312 19.1249 5.77188 18.8406 5.94688 18.3187L6.38438 17.0031H17.6125L18.05 18.3187C18.225 18.8437 18.7906 19.1249 19.3156 18.9499C19.8406 18.7749 20.1219 18.2093 19.9469 17.6843L19.7219 16.9999H20C20.5531 16.9999 21 16.5531 21 15.9999C21 15.4468 20.5531 14.9999 20 14.9999H19.0531L18.3875 12.9999H18.75C19.3031 12.9999 19.75 12.5531 19.75 11.9999C19.75 11.4468 19.3031 10.9999 18.75 10.9999H17.7219L17.0562 8.99994H17.5C18.0531 8.99994 18.5 8.55307 18.5 7.99994C18.5 7.44682 18.0531 6.99994 17.5 6.99994H16.3875L15.95 5.68432C15.775 5.15932 15.2094 4.87807 14.6844 5.05307C14.1594 5.22807 13.8781 5.79369 14.0531 6.31869L14.2781 6.99994H9.72188L9.95 6.31557ZM9.05312 8.99994H14.9469L15.6125 10.9999H8.3875L9.05312 8.99994ZM16.9469 14.9999H7.05312L7.71875 12.9999H16.2781L16.9438 14.9999H16.9469Z" fill="black"/>
</svg>
