<svg width="24" height="24" viewBox="0 0 24 24" fill="none" xmlns="http://www.w3.org/2000/svg">
<path d="M22.0002 4V16.5C22.0002 18.4344 20.4346 20 18.5002 20C16.5939 20 15.0471 18.4781 15.0002 16.5844L3.51268 19.7156C2.97831 19.8594 2.43143 19.5469 2.28456 19.0125C2.13768 18.4781 2.45331 17.9313 2.98768 17.7844L13.0002 15.0562V6C13.0002 4.89688 13.8971 4 15.0002 4H22.0002ZM20.0002 16.5C20.0002 16.1022 19.8421 15.7206 19.5608 15.4393C19.2795 15.158 18.898 15 18.5002 15C18.1024 15 17.7208 15.158 17.4395 15.4393C17.1582 15.7206 17.0002 16.1022 17.0002 16.5C17.0002 16.8978 17.1582 17.2794 17.4395 17.5607C17.7208 17.842 18.1024 18 18.5002 18C18.898 18 19.2795 17.842 19.5608 17.5607C19.8421 17.2794 20.0002 16.8978 20.0002 16.5ZM2.72206 10.4906C2.57831 9.95625 2.89706 9.40937 3.42831 9.26562L4.87831 8.87813L5.52519 11.2937C5.59706 11.5594 5.87206 11.7187 6.13768 11.6469L7.10331 11.3875C7.36894 11.3156 7.52831 11.0406 7.45644 10.775L6.80956 8.35938L8.25956 7.97187C8.79394 7.82812 9.34081 8.14687 9.48456 8.67812L10.7783 13.5063C10.9221 14.0406 10.6033 14.5875 10.0721 14.7312L5.24081 16.0281C4.70643 16.1719 4.15956 15.8531 4.01581 15.3219L2.72206 10.4906Z" fill="black"/>
</svg>
