<svg width="24" height="24" viewBox="0 0 24 24" fill="none" xmlns="http://www.w3.org/2000/svg">
<path d="M11.9998 5C12.4436 5 12.8529 5.23437 13.0779 5.61875L19.8279 17.1187C20.0561 17.5062 20.0561 17.9844 19.8342 18.3719C19.6123 18.7594 19.1967 19 18.7498 19H5.24982C4.80295 19 4.38732 18.7594 4.16545 18.3719C3.94357 17.9844 3.9467 17.5031 4.1717 17.1187L10.9217 5.61875C11.1467 5.23437 11.5561 5 11.9998 5ZM11.9998 9C11.5842 9 11.2498 9.33437 11.2498 9.75V13.25C11.2498 13.6656 11.5842 14 11.9998 14C12.4154 14 12.7498 13.6656 12.7498 13.25V9.75C12.7498 9.33437 12.4154 9 11.9998 9ZM12.9998 16C12.9998 15.7348 12.8945 15.4804 12.7069 15.2929C12.5194 15.1054 12.265 15 11.9998 15C11.7346 15 11.4803 15.1054 11.2927 15.2929C11.1052 15.4804 10.9998 15.7348 10.9998 16C10.9998 16.2652 11.1052 16.5196 11.2927 16.7071C11.4803 16.8946 11.7346 17 11.9998 17C12.265 17 12.5194 16.8946 12.7069 16.7071C12.8945 16.5196 12.9998 16.2652 12.9998 16Z" fill="black"/>
</svg>
