<svg width="24" height="24" viewBox="0 0 24 24" fill="none" xmlns="http://www.w3.org/2000/svg">
<path d="M3.2937 6.7062C2.90308 6.31558 2.90308 5.68433 3.2937 5.2937C3.68433 4.90308 4.3187 4.90308 4.70933 5.2937L10.7093 11.2937C11.1 11.6843 11.1 12.3187 10.7093 12.7093L4.70933 18.7093C4.3187 19.1 3.68433 19.1 3.2937 18.7093C2.90308 18.3187 2.90308 17.6843 3.2937 17.2937L8.58433 12L3.2937 6.7062ZM11 17H20C20.5531 17 21 17.4468 21 18C21 18.5531 20.5531 19 20 19H11C10.4468 19 9.99995 18.5531 9.99995 18C9.99995 17.4468 10.4468 17 11 17Z" fill="black"/>
</svg>
