<svg width="24" height="24" viewBox="0 0 24 24" fill="none" xmlns="http://www.w3.org/2000/svg">
<path d="M14.0002 10C14.0002 7.95312 14.4127 5.55 15.8814 4H7.00019C5.34394 4 4.00019 6.6875 4.00019 10C4.00019 13.1719 3.63456 15.3375 3.28144 16.6844C3.12206 17.2906 2.94706 17.9313 2.64081 18.4875C2.45644 18.7969 2.45019 19.1781 2.62831 19.4937C2.80644 19.8094 3.14081 20 3.50019 20H10.9346C11.6314 20 12.3533 19.6219 12.6658 18.8719C13.1471 17.7188 14.0002 14.9625 14.0002 10ZM21.0002 10C21.0002 6.6875 19.6564 4 18.0002 4C16.3439 4 15.0002 6.6875 15.0002 10C15.0002 13.3125 16.3439 16 18.0002 16C19.6564 16 21.0002 13.3125 21.0002 10ZM19.0002 10C19.0002 11.1031 18.5533 12 18.0002 12C17.4471 12 17.0002 11.1031 17.0002 10C17.0002 8.89687 17.4471 8 18.0002 8C18.5533 8 19.0002 8.89687 19.0002 10Z" fill="black"/>
</svg>
