<svg width="24" height="24" viewBox="0 0 24 24" fill="none" xmlns="http://www.w3.org/2000/svg">
<path d="M21.1969 11.7188C21.7063 10.9375 22 10.0031 22 9C22 6.2375 19.7625 4 17 4C15.9969 4 15.0657 4.29375 14.2813 4.80313C14.0344 4.96563 14.0157 5.30937 14.225 5.51875L20.4813 11.775C20.6907 11.9844 21.0375 11.9688 21.1969 11.7188ZM19.7188 13.1969C19.9657 13.0344 19.9844 12.6906 19.775 12.4812L13.5188 6.225C13.3094 6.01562 12.9625 6.03125 12.8032 6.28125C12.2938 7.0625 12 7.99688 12 9C12 11.7625 14.2375 14 17 14C18.0032 14 18.9344 13.7062 19.7188 13.1969ZM11.4219 15.5H2.57815C2.28128 15.5 2.05003 15.7562 2.1094 16.0469C2.59065 18.3063 4.5969 20 7.00003 20C9.40315 20 11.4094 18.3063 11.8907 16.0469C11.9532 15.7562 11.7188 15.5 11.4219 15.5ZM11.4219 14.5C11.7188 14.5 11.95 14.2438 11.8907 13.9531C11.4094 11.6937 9.40315 10 7.00003 10C4.5969 10 2.59065 11.6937 2.1094 13.9531C2.0469 14.2438 2.28128 14.5 2.57815 14.5H11.4219Z" fill="black"/>
</svg>
