<svg width="24" height="24" viewBox="0 0 24 24" fill="none" xmlns="http://www.w3.org/2000/svg">
<path d="M3.21243 4.15937C2.88743 3.90312 2.41556 3.96249 2.15931 4.28749C1.90306 4.61249 1.96243 5.08437 2.28743 5.34062L20.7874 19.8406C21.1124 20.0969 21.5843 20.0375 21.8406 19.7125C22.0968 19.3875 22.0374 18.9156 21.7124 18.6594L18.2843 15.9719C19.8093 15.6875 20.9999 13.1219 20.9999 9.99999C20.9999 6.68749 19.6562 3.99999 17.9999 3.99999C16.3437 3.99999 14.9999 6.68749 14.9999 9.99999C14.9999 11.5344 15.2874 12.9344 15.7624 13.9969L13.9187 12.5531C13.9687 11.7781 13.9999 10.9281 13.9999 10.0031C13.9999 7.95624 14.4124 5.55312 15.8812 4.00312H6.99993C6.22493 4.00312 5.51868 4.59062 4.98743 5.55312L3.21243 4.15937ZM13.4781 16.0437L4.07806 8.63749C4.02806 9.07499 3.99993 9.53124 3.99993 9.99999C3.99993 13.1719 3.63431 15.3375 3.28118 16.6844C3.12181 17.2906 2.94681 17.9312 2.64056 18.4875C2.45618 18.7969 2.44993 19.1781 2.62806 19.4937C2.80618 19.8094 3.14056 20 3.49993 20H10.9343C11.6312 20 12.3531 19.6219 12.6656 18.8719C12.8968 18.3187 13.2124 17.3969 13.4781 16.0406V16.0437ZM18.9999 9.99999C18.9999 11.1031 18.5531 12 17.9999 12C17.4468 12 16.9999 11.1031 16.9999 9.99999C16.9999 8.89687 17.4468 7.99999 17.9999 7.99999C18.5531 7.99999 18.9999 8.89687 18.9999 9.99999Z" fill="black"/>
</svg>
