<svg width="24" height="24" viewBox="0 0 24 24" fill="none" xmlns="http://www.w3.org/2000/svg">
<path d="M3.21243 4.15937C2.88743 3.90312 2.41556 3.96249 2.15931 4.28749C1.90306 4.61249 1.96243 5.08437 2.28743 5.34062L20.7874 19.8406C21.1124 20.0969 21.5843 20.0375 21.8406 19.7125C22.0968 19.3875 22.0374 18.9156 21.7124 18.6594L17.9999 15.75V7.99999H8.11243L6.83743 6.99999H17.9999C18.5531 6.99999 18.9999 6.55312 18.9999 5.99999C18.9999 5.44687 18.5531 4.99999 17.9999 4.99999H14.9999L14.7749 4.55312C14.6062 4.21249 14.2593 3.99999 13.8812 3.99999H10.1187C9.74056 3.99999 9.39368 4.21249 9.22493 4.55312L8.99993 4.99999H5.99993C5.58118 4.99999 5.22493 5.25624 5.07493 5.61874L3.21243 4.15937ZM11.4999 10.6562V10.5C11.4999 10.225 11.7249 9.99999 11.9999 9.99999C12.2749 9.99999 12.4999 10.225 12.4999 10.5V11.4375L11.4999 10.6562ZM14.4999 13.0062V10.5C14.4999 10.225 14.7249 9.99999 14.9999 9.99999C15.2749 9.99999 15.4999 10.225 15.4999 10.5V13.7906L14.4999 13.0062ZM17.5562 19.2562L15.4843 17.625C15.4281 17.8406 15.2343 18 14.9999 18C14.7249 18 14.4999 17.775 14.4999 17.5V16.85L12.4999 15.275V17.5C12.4999 17.775 12.2749 18 11.9999 18C11.7249 18 11.4999 17.775 11.4999 17.5V14.4844L9.49993 12.9094V17.5C9.49993 17.775 9.27493 18 8.99993 18C8.72493 18 8.49993 17.775 8.49993 17.5V12.1219L5.99993 10.1531V18C5.99993 19.1031 6.89681 20 7.99993 20H15.9999C16.6281 20 17.1906 19.7094 17.5562 19.2562Z" fill="black"/>
</svg>
