<svg width="24" height="24" viewBox="0 0 24 24" fill="none" xmlns="http://www.w3.org/2000/svg">
<path d="M8.99989 9.00002C8.99989 6.9969 10.9249 4.99377 11.6905 4.27815C11.8655 4.11252 12.1311 4.11252 12.3093 4.27815C13.0749 4.9969 14.9999 6.9969 14.9999 9.00002C14.9999 9.49065 14.8843 9.95002 14.6749 10.3594C15.1811 10.3594 15.6936 10.4906 16.1655 10.7625C17.8999 11.7625 18.6718 14.4313 18.9093 15.4563C18.9655 15.6906 18.8311 15.9219 18.5999 15.9907C17.5968 16.2938 14.8999 16.9625 13.1655 15.9594C12.6468 15.6594 12.253 15.2313 11.9968 14.7344C11.7436 15.2313 11.3468 15.6594 10.828 15.9594C9.09364 16.9594 6.39677 16.2938 5.39364 15.9907C5.16239 15.9219 5.03114 15.6906 5.08427 15.4563C5.32177 14.4344 6.09364 11.7656 7.82802 10.7625C8.29989 10.4906 8.81552 10.3594 9.32177 10.3594C9.11552 9.95002 8.99989 9.49065 8.99989 9.00002ZM13.2499 11.5C13.2499 11.1685 13.1182 10.8506 12.8838 10.6161C12.6494 10.3817 12.3314 10.25 11.9999 10.25C11.6684 10.25 11.3504 10.3817 11.116 10.6161C10.8816 10.8506 10.7499 11.1685 10.7499 11.5C10.7499 11.8315 10.8816 12.1495 11.116 12.3839C11.3504 12.6183 11.6684 12.75 11.9999 12.75C12.3314 12.75 12.6494 12.6183 12.8838 12.3839C13.1182 12.1495 13.2499 11.8315 13.2499 11.5ZM15.9999 9.00002C15.9999 8.6094 15.9436 8.22502 15.8499 7.85627C17.0561 7.45627 17.9811 7.4844 18.4436 7.54377C18.9093 7.60315 19.1843 8.07815 19.003 8.51252C18.828 8.92815 18.4093 9.71252 17.5124 10.5313C17.2593 10.2906 16.978 10.075 16.6686 9.8969C16.4405 9.76565 16.203 9.6594 15.9624 9.57502C15.9905 9.38752 16.003 9.1969 16.003 9.00002H15.9999ZM8.14989 7.85627C8.05614 8.22502 7.99989 8.6094 7.99989 9.00002C7.99989 9.19377 8.01239 9.3844 8.04052 9.5719C7.79677 9.65627 7.55927 9.76252 7.33114 9.89377C7.02177 10.0719 6.74364 10.2875 6.49052 10.525C5.59364 9.7094 5.17489 8.92502 4.99989 8.5094C4.81864 8.07815 5.09364 7.60002 5.55927 7.54065C6.01864 7.48127 6.94677 7.45315 8.15302 7.85315L8.14989 7.85627ZM10.4405 17.2125C10.7468 17.1156 11.0468 16.9875 11.3311 16.8219C11.5749 16.6813 11.7968 16.5188 11.9999 16.3406C12.203 16.5219 12.4249 16.6844 12.6686 16.8219C12.9561 16.9875 13.2561 17.1156 13.5624 17.2125C13.3061 18.3406 12.8561 19.1375 12.5936 19.5313C12.3093 19.9594 11.6936 19.9594 11.4093 19.5313C11.1499 19.1375 10.6968 18.3375 10.4405 17.2094V17.2125Z" fill="black"/>
</svg>
