<svg width="24" height="24" viewBox="0 0 24 24" fill="none" xmlns="http://www.w3.org/2000/svg">
<path d="M2 7C2 5.89688 2.89688 5 4 5H16C17.1031 5 18 5.89688 18 7V9.03438C16.8188 9.20313 15.8312 9.95938 15.3375 11H13.25V13H15V13.2688C14.4031 13.6156 14 14.2594 14 15H13.25V17H14V19H4C2.89688 19 2 18.1031 2 17V7ZM8.5 7V9H11.25V7H8.5ZM16 7H13.25V9H16V7ZM8.5 11V13H11.25V11H8.5ZM8.5 15V17H11.25V15H8.5ZM18.5 11.5C17.9469 11.5 17.5 11.9469 17.5 12.5V14H19.5V12.5C19.5 11.9469 19.0531 11.5 18.5 11.5ZM16 12.5C16 11.1187 17.1187 10 18.5 10C19.8813 10 21 11.1187 21 12.5V14C21.5531 14 22 14.4469 22 15V19C22 19.5531 21.5531 20 21 20H16C15.4469 20 15 19.5531 15 19V15C15 14.4469 15.4469 14 16 14V12.5Z" fill="black"/>
</svg>
