<svg width="24" height="24" viewBox="0 0 24 24" fill="none" xmlns="http://www.w3.org/2000/svg">
<path d="M4.95625 4.07279C4.44375 3.86654 3.8625 4.11342 3.65312 4.62592C3.23125 5.66967 3 6.81029 3 8.00092C3 9.19154 3.23125 10.3322 3.65312 11.3759C3.85938 11.8884 4.44375 12.1353 4.95625 11.929C5.46875 11.7228 5.71563 11.1384 5.50938 10.6259C5.18125 9.81654 5 8.93217 5 8.00092C5 7.06967 5.18125 6.18529 5.50938 5.37592C5.71563 4.86342 5.46875 4.28217 4.95625 4.07279ZM19.0438 4.07279C18.5313 4.28217 18.2844 4.86342 18.4906 5.37592C18.8188 6.18529 19 7.06967 19 8.00092C19 8.93217 18.8188 9.81654 18.4906 10.6259C18.2844 11.1384 18.5313 11.7197 19.0438 11.929C19.5563 12.1384 20.1375 11.8884 20.3469 11.3759C20.7687 10.3322 21 9.19154 21 8.00092C21 6.81029 20.7687 5.66967 20.3469 4.62592C20.1375 4.11342 19.5563 3.86654 19.0438 4.07279ZM13.6281 9.16342C13.8625 8.83529 14 8.43529 14 8.00092C14 6.89779 13.1031 6.00092 12 6.00092C10.8969 6.00092 10 6.89779 10 8.00092C10 8.43529 10.1375 8.83529 10.3719 9.16342L6.09063 18.5884C5.8625 19.0915 6.08438 19.6853 6.5875 19.9134C7.09063 20.1415 7.68437 19.9197 7.9125 19.4165L8.55312 18.0009H15.4469L16.0906 19.4134C16.3187 19.9165 16.9125 20.1384 17.4156 19.9103C17.9187 19.6822 18.1406 19.0884 17.9125 18.5853L13.6281 9.16342ZM14.5375 16.0009H9.4625L9.91563 15.0009H14.0844L14.5375 16.0009ZM12 10.4165L13.175 13.0009H10.825L12 10.4165ZM8.10313 6.30092C8.26875 5.92279 8.09687 5.47904 7.71562 5.31342C7.33437 5.14779 6.89375 5.31967 6.72813 5.70092C6.42188 6.40717 6.25 7.18529 6.25 8.00092C6.25 8.81654 6.42188 9.59467 6.72813 10.3009C6.89375 10.679 7.3375 10.854 7.71562 10.6884C8.09375 10.5228 8.26875 10.079 8.10313 9.70092C7.875 9.18217 7.75 8.60717 7.75 8.00092C7.75 7.39467 7.875 6.81967 8.10313 6.30092ZM17.2719 5.70092C17.1063 5.32279 16.6625 5.14779 16.2844 5.31342C15.9062 5.47904 15.7313 5.92279 15.8969 6.30092C16.125 6.81967 16.25 7.39467 16.25 8.00092C16.25 8.60717 16.125 9.18217 15.8969 9.70092C15.7313 10.079 15.9031 10.5228 16.2844 10.6884C16.6656 10.854 17.1063 10.6822 17.2719 10.3009C17.5781 9.59467 17.75 8.81654 17.75 8.00092C17.75 7.18529 17.5781 6.40717 17.2719 5.70092Z" fill="black"/>
</svg>
