<svg width="24" height="24" viewBox="0 0 24 24" fill="none" xmlns="http://www.w3.org/2000/svg">
<path d="M21.1968 11.7188C21.7062 10.9375 21.9999 10.0031 21.9999 9C21.9999 6.2375 19.7624 4 16.9999 4C15.9968 4 15.0655 4.29375 14.2812 4.80313C14.0343 4.96563 14.0155 5.30937 14.2249 5.51875L20.4812 11.775C20.6905 11.9844 21.0374 11.9688 21.1968 11.7188ZM19.7187 13.1969C19.9655 13.0344 19.9843 12.6906 19.7749 12.4812L13.5187 6.225C13.3093 6.01562 12.9624 6.03125 12.803 6.28125C12.2937 7.0625 11.9999 7.99688 11.9999 9C11.9999 11.7625 14.2374 14 16.9999 14C18.003 14 18.9343 13.7062 19.7187 13.1969ZM11.4218 15.5H2.57803C2.28116 15.5 2.04991 15.7562 2.10928 16.0469C2.59053 18.3063 4.59678 20 6.99991 20C9.40303 20 11.4093 18.3063 11.8905 16.0469C11.953 15.7562 11.7187 15.5 11.4218 15.5ZM11.4218 14.5C11.7187 14.5 11.9499 14.2438 11.8905 13.9531C11.4093 11.6937 9.40303 10 6.99991 10C4.59678 10 2.59053 11.6937 2.10928 13.9531C2.04678 14.2438 2.28116 14.5 2.57803 14.5H11.4218Z" fill="black"/>
</svg>
