<svg width="24" height="24" viewBox="0 0 24 24" fill="none" xmlns="http://www.w3.org/2000/svg">
<path d="M12.75 5C12.3344 5 12 5.33437 12 5.75C12 6.16563 12.3344 6.5 12.75 6.5H15.05C15.2969 6.5 15.5 6.7 15.5 6.95C15.5 7.08125 15.4438 7.20625 15.3438 7.29063L14.0125 8.43125C13.9875 8.45313 13.9625 8.475 13.9406 8.5H13.6C11.7625 8.5 10.0375 9.24688 8.78438 10.5188L8.175 9.5H8.25C8.66563 9.5 9 9.16563 9 8.75C9 8.33437 8.66563 8 8.25 8H5.75C5.33437 8 5 8.33437 5 8.75C5 9.16563 5.33437 9.5 5.75 9.5H6.425L7.8 11.7937C7.75937 11.8625 7.71875 11.9344 7.67812 12.0031C7.61875 12 7.55625 12 7.49688 12C5.56563 12 4 13.5656 4 15.5C4 17.4344 5.56562 19 7.5 19C9.43438 19 11 17.4344 11 15.5C11 14.175 10.2625 13.0188 9.175 12.425C10.1344 10.9219 11.8 10 13.6 10H13.9781L14.3219 11.3688C12.95 12.0031 12 13.3906 12 15C12 17.2094 13.7906 19 16 19C18.2094 19 20 17.2094 20 15C20 12.7906 18.2094 11 16 11C15.925 11 15.85 11.0031 15.775 11.0062L15.3406 9.26875L16.3188 8.42812C16.75 8.05937 17 7.51875 17 6.95C17 5.87188 16.1281 5 15.05 5H12.75ZM14.7563 13.125L15.2719 15.1844C15.3719 15.5875 15.7781 15.8312 16.1812 15.7312C16.5844 15.6312 16.8281 15.225 16.7281 14.8219L16.2125 12.7625C17.3562 12.8687 18.25 13.8313 18.25 15.0031C18.25 16.2469 17.2437 17.2531 16 17.2531C14.7563 17.2531 13.75 16.2469 13.75 15.0031C13.75 14.2188 14.15 13.5313 14.7563 13.1281V13.125ZM7.5 13.75C7.96413 13.75 8.40925 13.9344 8.73744 14.2626C9.06563 14.5908 9.25 15.0359 9.25 15.5C9.25 15.9641 9.06563 16.4092 8.73744 16.7374C8.40925 17.0656 7.96413 17.25 7.5 17.25C7.03587 17.25 6.59075 17.0656 6.26256 16.7374C5.93437 16.4092 5.75 15.9641 5.75 15.5C5.75 15.0359 5.93437 14.5908 6.26256 14.2626C6.59075 13.9344 7.03587 13.75 7.5 13.75Z" fill="black"/>
</svg>
