<svg width="24" height="24" viewBox="0 0 24 24" fill="none" xmlns="http://www.w3.org/2000/svg">
<path d="M10.7498 4C10.3342 4 9.9998 4.33437 9.9998 4.75C9.9998 5.16563 10.3342 5.5 10.7498 5.5H11.2498V7H9.9998C9.44667 7 8.9998 7.44687 8.9998 8H6.33105C5.4998 8 4.8998 8.79375 5.12792 9.59375L6.39042 14.0063C5.89042 14.0594 5.4998 14.4844 5.4998 15C5.4998 15.5531 5.94667 16 6.4998 16H7.4998V19C7.4998 19.5531 7.94667 20 8.4998 20H15.4998C16.0529 20 16.4998 19.5531 16.4998 19V16H17.4998C18.0529 16 18.4998 15.5531 18.4998 15C18.4998 14.4844 18.1092 14.0594 17.6092 14.0063L18.8717 9.59375C19.0998 8.79375 18.4998 8 17.6685 8H14.9998C14.9998 7.44687 14.5529 7 13.9998 7H12.7498V5.5H13.2498C13.6654 5.5 13.9998 5.16563 13.9998 4.75C13.9998 4.33437 13.6654 4 13.2498 4H11.9998H10.7498ZM8.9998 10V14H8.46855C8.46542 13.9906 8.46542 13.9844 8.4623 13.975L7.3248 10H8.9998ZM10.4998 14V10H13.4998V14H10.4998ZM14.9998 10H16.6748L15.5373 13.975L15.5342 13.9844L15.531 14H14.9998V10Z" fill="black"/>
</svg>
