<svg width="24" height="24" viewBox="0 0 24 24" fill="none" xmlns="http://www.w3.org/2000/svg">
<path d="M9 16C7.93913 16 6.92172 15.5786 6.17157 14.8284C5.42143 14.0783 5 13.0609 5 12C5 10.9391 5.42143 9.92172 6.17157 9.17157C6.92172 8.42143 7.93913 8 9 8C10.0609 8 11.0783 8.42143 11.8284 9.17157C12.5786 9.92172 13 10.9391 13 12C13 13.0609 12.5786 14.0783 11.8284 14.8284C11.0783 15.5786 10.0609 16 9 16ZM9 18H15C18.3125 18 21 15.3125 21 12C21 8.6875 18.3125 6 15 6H9C5.6875 6 3 8.6875 3 12C3 15.3125 5.6875 18 9 18ZM13.4719 16C14.4219 14.9375 15 13.5375 15 12C15 10.4625 14.4219 9.0625 13.4719 8H15C17.2094 8 19 9.79063 19 12C19 14.2094 17.2094 16 15 16H13.4719Z" fill="black"/>
</svg>
