<svg width="24" height="24" viewBox="0 0 24 24" fill="none" xmlns="http://www.w3.org/2000/svg">
<path d="M11 4H13C13.275 4 13.5 4.225 13.5 4.5C13.5 4.775 13.275 5 13 5H11C10.725 5 10.5 4.775 10.5 4.5C10.5 4.225 10.725 4 11 4ZM11 6H13C13.275 6 13.5 6.225 13.5 6.5C13.5 6.775 13.275 7 13 7H11C10.725 7 10.5 6.775 10.5 6.5C10.5 6.225 10.725 6 11 6ZM9.5 8H14.5C14.775 8 15 8.225 15 8.5C15 8.775 14.775 9 14.5 9H9.5C9.225 9 9 8.775 9 8.5C9 8.225 9.225 8 9.5 8ZM8.5 10H15.5C15.775 10 16 10.225 16 10.5C16 10.775 15.775 11 15.5 11H8.5C8.225 11 8 10.775 8 10.5C8 10.225 8.225 10 8.5 10ZM7.5 12H16.5C16.775 12 17 12.225 17 12.5C17 12.775 16.775 13 16.5 13H7.5C7.225 13 7 12.775 7 12.5C7 12.225 7.225 12 7.5 12ZM9.5 14H14.5C14.775 14 15 14.225 15 14.5C15 14.775 14.775 15 14.5 15H9.5C9.225 15 9 14.775 9 14.5C9 14.225 9.225 14 9.5 14ZM9.5 16H14.5C14.775 16 15 16.225 15 16.5C15 16.775 14.775 17 14.5 17H9.5C9.225 17 9 16.775 9 16.5C9 16.225 9.225 16 9.5 16ZM19 9L19.7937 9.22813C19.9156 9.2625 20 9.375 20 9.5C20 9.625 19.9156 9.7375 19.7937 9.77187L19 10L18.7719 10.7937C18.7375 10.9156 18.625 11 18.5 11C18.375 11 18.2625 10.9156 18.2281 10.7937L18 10L17.2063 9.77187C17.0844 9.7375 17 9.625 17 9.5C17 9.375 17.0844 9.2625 17.2063 9.22813L18 9L18.2281 8.20625C18.2625 8.08438 18.375 8 18.5 8C18.625 8 18.7375 8.08438 18.7719 8.20625L19 9ZM5.77188 15.2063L6 16L6.79375 16.2281C6.91563 16.2625 7 16.375 7 16.5C7 16.625 6.91563 16.7375 6.79375 16.7719L6 17L5.77188 17.7937C5.7375 17.9156 5.625 18 5.5 18C5.375 18 5.2625 17.9156 5.22812 17.7937L5 17L4.20625 16.7719C4.08437 16.7375 4 16.6281 4 16.5C4 16.3719 4.08437 16.2625 4.20625 16.2281L5 16L5.22812 15.2063C5.2625 15.0844 5.375 15 5.5 15C5.625 15 5.7375 15.0844 5.77188 15.2063ZM7 19C7 18.4469 7.44687 18 8 18H16C16.5531 18 17 18.4469 17 19C17 19.5531 16.5531 20 16 20H13.25H10.75H8C7.44687 20 7 19.5531 7 19Z" fill="black"/>
</svg>
