<svg width="24" height="24" viewBox="0 0 24 24" fill="none" xmlns="http://www.w3.org/2000/svg">
<path d="M3.21268 4.15943C2.88768 3.90318 2.4158 3.96255 2.15955 4.28755C1.9033 4.61255 1.96268 5.08443 2.28768 5.34068L20.7877 19.8407C21.1127 20.0969 21.5846 20.0376 21.8408 19.7126C22.0971 19.3876 22.0377 18.9157 21.7127 18.6594L18.2845 15.9719C19.8095 15.6876 21.0002 13.1219 21.0002 10.0001C21.0002 6.68755 19.6564 4.00005 18.0002 4.00005C16.3439 4.00005 15.0002 6.68755 15.0002 10.0001C15.0002 11.5344 15.2877 12.9344 15.7627 13.9969L13.9189 12.5532C13.9689 11.7782 14.0002 10.9282 14.0002 10.0032C14.0002 7.9563 14.4127 5.55318 15.8814 4.00318H7.00018C6.22518 4.00318 5.51893 4.59068 4.98768 5.55318L3.21268 4.15943ZM13.4783 16.0438L4.0783 8.63755C4.0283 9.07505 4.00018 9.5313 4.00018 10.0001C4.00018 13.1719 3.63455 15.3376 3.28143 16.6844C3.12205 17.2907 2.94705 17.9313 2.6408 18.4876C2.45643 18.7969 2.45018 19.1782 2.6283 19.4938C2.80643 19.8094 3.1408 20.0001 3.50018 20.0001H10.9346C11.6314 20.0001 12.3533 19.6219 12.6658 18.8719C12.897 18.3188 13.2127 17.3969 13.4783 16.0407V16.0438ZM19.0002 10.0001C19.0002 11.1032 18.5533 12.0001 18.0002 12.0001C17.4471 12.0001 17.0002 11.1032 17.0002 10.0001C17.0002 8.89693 17.4471 8.00005 18.0002 8.00005C18.5533 8.00005 19.0002 8.89693 19.0002 10.0001Z" fill="black"/>
</svg>
