<svg width="24" height="24" viewBox="0 0 24 24" fill="none" xmlns="http://www.w3.org/2000/svg">
<path d="M6 9.5L5.275 9.1375C5.10625 9.05312 5 8.88125 5 8.69063V6.30938C5 6.11875 5.10625 5.94687 5.275 5.8625L6.07187 5.4625C6.30625 4.61875 7.08125 4 8 4H16C16.9187 4 17.6938 4.61875 17.9281 5.4625L18.725 5.85938C18.8938 5.94375 19 6.11875 19 6.30625V8.6875C19 8.87812 18.8938 9.05 18.725 9.13438L18 9.5V10L18.725 10.3625C18.8938 10.4469 19 10.6219 19 10.8094V13.1906C19 13.3813 18.8938 13.5531 18.725 13.6375L18 14V14.5L18.725 14.8625C18.8938 14.9469 19 15.1187 19 15.3094V17.6906C19 17.8813 18.8938 18.0531 18.725 18.1375L17.9281 18.5344C17.6938 19.3781 16.9187 19.9969 16 19.9969H8C7.08125 19.9969 6.30625 19.3781 6.07187 18.5344L5.275 18.1375C5.10625 18.0531 5 17.8813 5 17.6906V15.3094C5 15.1187 5.10625 14.9469 5.275 14.8625L6 14.5V14L5.275 13.6375C5.10625 13.5531 5 13.3813 5 13.1906V10.8094C5 10.6187 5.10625 10.4469 5.275 10.3625L6 10V9.5ZM8.5 6C8.225 6 8 6.225 8 6.5V17.5C8 17.775 8.225 18 8.5 18H15.5C15.775 18 16 17.775 16 17.5V6.5C16 6.225 15.775 6 15.5 6H8.5Z" fill="black"/>
</svg>
