<svg width="24" height="24" viewBox="0 0 24 24" fill="none" xmlns="http://www.w3.org/2000/svg">
<path d="M5 6.50006V11.1719C5 11.7032 5.20938 12.2126 5.58438 12.5876L11.0844 18.0876C11.8656 18.8688 13.1313 18.8688 13.9125 18.0876L18.0844 13.9157C18.8656 13.1344 18.8656 11.8688 18.0844 11.0876L12.5844 5.58756C12.2094 5.21256 11.7 5.00318 11.1687 5.00318H6.5C5.67188 5.00006 5 5.67193 5 6.50006ZM8.5 7.50006C8.76522 7.50006 9.01957 7.60542 9.20711 7.79295C9.39464 7.98049 9.5 8.23484 9.5 8.50006C9.5 8.76528 9.39464 9.01963 9.20711 9.20717C9.01957 9.3947 8.76522 9.50006 8.5 9.50006C8.23478 9.50006 7.98043 9.3947 7.79289 9.20717C7.60536 9.01963 7.5 8.76528 7.5 8.50006C7.5 8.23484 7.60536 7.98049 7.79289 7.79295C7.98043 7.60542 8.23478 7.50006 8.5 7.50006Z" fill="black"/>
</svg>
