<svg width="24" height="24" viewBox="0 0 24 24" fill="none" xmlns="http://www.w3.org/2000/svg">
<path d="M7.71259 5.5C7.33134 5.5 6.97509 5.67188 6.73759 5.96875L6.33447 6.46875C6.07822 6.79063 5.60634 6.84375 5.28134 6.58437C4.95634 6.325 4.90634 5.85625 5.16572 5.53125L5.56259 5.03125C6.08447 4.38125 6.87509 4 7.71259 4H16.2876C17.122 4 17.9126 4.38125 18.4345 5.03125L18.8345 5.53125C19.0938 5.85625 19.0407 6.32812 18.7157 6.58437C18.3907 6.84062 17.9188 6.79063 17.6626 6.46875L17.2657 5.96875C17.0282 5.67188 16.6688 5.5 16.2907 5.5H12.7501V7H14.0001C15.6563 7 17.0001 8.34375 17.0001 10V15C17.0001 15.9563 16.5532 16.8062 15.8563 17.3562L17.9032 19.4031C18.1251 19.625 17.9688 20 17.6563 20H16.4157C16.1501 20 15.897 19.8938 15.7095 19.7063L14.0001 18H10.0001L8.29384 19.7063C8.10634 19.8938 7.85322 20 7.58759 20H6.34384C6.03134 20 5.87509 19.6219 6.09697 19.4031L8.14384 17.3562C7.44697 16.8062 7.00009 15.9563 7.00009 15V10C7.00009 8.34375 8.34384 7 10.0001 7H11.2501V5.5H7.71259ZM10.0001 9C9.44697 9 9.00009 9.44687 9.00009 10V11C9.00009 11.5531 9.44697 12 10.0001 12H14.0001C14.5532 12 15.0001 11.5531 15.0001 11V10C15.0001 9.44687 14.5532 9 14.0001 9H10.0001ZM11.0001 15C11.0001 14.7348 10.8947 14.4804 10.7072 14.2929C10.5197 14.1054 10.2653 14 10.0001 14C9.73488 14 9.48052 14.1054 9.29298 14.2929C9.10545 14.4804 9.00009 14.7348 9.00009 15C9.00009 15.2652 9.10545 15.5196 9.29298 15.7071C9.48052 15.8946 9.73488 16 10.0001 16C10.2653 16 10.5197 15.8946 10.7072 15.7071C10.8947 15.5196 11.0001 15.2652 11.0001 15ZM14.0001 16C14.2653 16 14.5197 15.8946 14.7072 15.7071C14.8947 15.5196 15.0001 15.2652 15.0001 15C15.0001 14.7348 14.8947 14.4804 14.7072 14.2929C14.5197 14.1054 14.2653 14 14.0001 14C13.7349 14 13.4805 14.1054 13.293 14.2929C13.1054 14.4804 13.0001 14.7348 13.0001 15C13.0001 15.2652 13.1054 15.5196 13.293 15.7071C13.4805 15.8946 13.7349 16 14.0001 16Z" fill="black"/>
</svg>
