<svg width="24" height="24" viewBox="0 0 24 24" fill="none" xmlns="http://www.w3.org/2000/svg">
<path d="M12 6C11.1719 6 10.5 6.67188 10.5 7.5V12.6406C10.5 13.1812 10.2781 13.6375 10.0219 13.9688C9.69375 14.3938 9.5 14.9219 9.5 15.5C9.5 16.8813 10.6187 18 12 18C13.3813 18 14.5 16.8813 14.5 15.5C14.5 14.9219 14.3063 14.3938 13.9781 13.9719C13.7219 13.6406 13.5 13.1844 13.5 12.6438V7.5C13.5 6.67188 12.8281 6 12 6ZM8.5 7.5C8.5 5.56875 10.0656 4 12 4C13.9344 4 15.5 5.56562 15.5 7.5V12.6406C15.5 12.6438 15.5031 12.65 15.5063 12.6594C15.5125 12.6781 15.5312 12.7094 15.5594 12.7469C16.15 13.5094 16.5 14.4656 16.5 15.5C16.5 17.9844 14.4844 20 12 20C9.51562 20 7.5 17.9844 7.5 15.5C7.5 14.4625 7.85 13.5062 8.44062 12.7469C8.46875 12.7094 8.4875 12.6781 8.49375 12.6594C8.49687 12.65 8.5 12.6438 8.5 12.6406V7.5ZM13.5 15.5C13.5 16.3281 12.8281 17 12 17C11.1719 17 10.5 16.3281 10.5 15.5C10.5 14.8469 10.9187 14.2906 11.5 14.0844V7.5C11.5 7.225 11.725 7 12 7C12.275 7 12.5 7.225 12.5 7.5V14.0844C13.0813 14.2906 13.5 14.8469 13.5 15.5Z" fill="black"/>
</svg>
