<svg width="24" height="24" viewBox="0 0 24 24" fill="none" xmlns="http://www.w3.org/2000/svg">
<path d="M17 6C17.2652 6 17.5196 6.10536 17.7071 6.29289C17.8946 6.48043 18 6.73478 18 7C18 7.26522 17.8946 7.51957 17.7071 7.70711C17.5196 7.89464 17.2652 8 17 8C16.7348 8 16.4804 7.89464 16.2929 7.70711C16.1054 7.51957 16 7.26522 16 7C16 6.73478 16.1054 6.48043 16.2929 6.29289C16.4804 6.10536 16.7348 6 17 6ZM17 10C17.7956 10 18.5587 9.68393 19.1213 9.12132C19.6839 8.55871 20 7.79565 20 7C20 6.20435 19.6839 5.44129 19.1213 4.87868C18.5587 4.31607 17.7956 4 17 4C16.2044 4 15.4413 4.31607 14.8787 4.87868C14.3161 5.44129 14 6.20435 14 7C14 7.79565 14.3161 8.55871 14.8787 9.12132C15.4413 9.68393 16.2044 10 17 10ZM7 7.5C7 6.67188 7.67188 6 8.5 6C9.32812 6 10 6.67188 10 7.5V12.6406C10 13.1812 10.2219 13.6375 10.4781 13.9688C10.8063 14.3938 11 14.9219 11 15.5C11 16.8813 9.88125 18 8.5 18C7.11875 18 6 16.8813 6 15.5C6 14.9219 6.19375 14.3938 6.52187 13.9719C6.77812 13.6375 7 13.1812 7 12.6406V7.5ZM8.5 4C6.56562 4 5 5.56875 5 7.5V12.6406C5 12.6438 4.99687 12.65 4.99375 12.6594C4.9875 12.6781 4.96875 12.7094 4.94063 12.7469C4.35 13.5062 4 14.4625 4 15.5C4 17.9844 6.01562 20 8.5 20C10.9844 20 13 17.9844 13 15.5C13 14.4625 12.65 13.5062 12.0594 12.7469C12.0312 12.7094 12.0125 12.6781 12.0063 12.6594C12.0031 12.65 12 12.6438 12 12.6406V7.5C12 5.56875 10.4344 4 8.5 4ZM8.5 17C9.32812 17 10 16.3281 10 15.5C10 14.8469 9.58125 14.2906 9 14.0844V7.5C9 7.225 8.775 7 8.5 7C8.225 7 8 7.225 8 7.5V14.0844C7.41875 14.2906 7 14.8469 7 15.5C7 16.3281 7.67188 17 8.5 17Z" fill="black"/>
</svg>
