<svg width="24" height="24" viewBox="0 0 24 24" fill="none" xmlns="http://www.w3.org/2000/svg">
<path d="M10.1188 4H13.8813C14.2594 4 14.6062 4.2125 14.775 4.55313L15 5H18C18.5531 5 19 5.44687 19 6C19 6.55312 18.5531 7 18 7H6C5.44687 7 5 6.55312 5 6C5 5.44687 5.44687 5 6 5H9L9.225 4.55313C9.39375 4.2125 9.74062 4 10.1188 4ZM6 8H18L17.3375 18.5938C17.2875 19.3844 16.6312 20 15.8406 20H8.15937C7.36875 20 6.7125 19.3844 6.6625 18.5938L6 8ZM9.46875 11.4688C9.175 11.7625 9.175 12.2375 9.46875 12.5281L10.9375 13.9969L9.46875 15.4656C9.175 15.7594 9.175 16.2344 9.46875 16.525C9.7625 16.8156 10.2375 16.8187 10.5281 16.525L11.9969 15.0562L13.4656 16.525C13.7594 16.8187 14.2344 16.8187 14.525 16.525C14.8156 16.2312 14.8187 15.7562 14.525 15.4656L13.0562 13.9969L14.525 12.5281C14.8187 12.2344 14.8187 11.7594 14.525 11.4688C14.2312 11.1781 13.7562 11.175 13.4656 11.4688L11.9969 12.9375L10.5281 11.4688C10.2344 11.175 9.75938 11.175 9.46875 11.4688Z" fill="black"/>
</svg>
