<svg width="24" height="24" viewBox="0 0 24 24" fill="none" xmlns="http://www.w3.org/2000/svg">
<path d="M12 4C11.4469 4 11 4.44687 11 5V7C11 7.55312 11.4469 8 12 8C12.5531 8 13 7.55312 13 7V6.08437C15.8375 6.55937 18 9.02812 18 12C18 15.3125 15.3125 18 12 18C8.6875 18 6 15.3125 6 12C6 10.3219 6.6875 8.80312 7.8 7.71563C8.19375 7.32812 8.2 6.69687 7.81562 6.3C7.43125 5.90312 6.79688 5.9 6.4 6.28437C4.92188 7.7375 4 9.7625 4 12C4 16.4187 7.58125 20 12 20C16.4187 20 20 16.4187 20 12C20 7.58125 16.4187 4 12 4ZM10.0312 8.96875C9.7375 8.675 9.2625 8.675 8.97188 8.96875C8.68125 9.2625 8.67813 9.7375 8.97188 10.0281L11.4719 12.5281C11.7656 12.8219 12.2406 12.8219 12.5312 12.5281C12.8219 12.2344 12.825 11.7594 12.5312 11.4688L10.0312 8.96875Z" fill="black"/>
</svg>
