<svg width="24" height="24" viewBox="0 0 24 24" fill="none" xmlns="http://www.w3.org/2000/svg">
<path d="M11.525 4.15001C11.8219 4.33126 12 4.65313 12 5.00001V7.25001H14.7812C14.8938 6.81876 15.2844 6.50001 15.75 6.50001H18.5C19.3281 6.50001 20 7.17188 20 8.00001C20 8.82813 19.3281 9.50001 18.5 9.50001H15.75C15.2844 9.50001 14.8938 9.18126 14.7812 8.75001H12V11C12 11.3469 11.8219 11.6688 11.525 11.85C11.2281 12.0313 10.8625 12.05 10.5531 11.8938L4.55313 8.89376C4.2125 8.72501 4 8.37813 4 8.00001C4 7.62188 4.2125 7.27501 4.55313 7.10626L10.5531 4.10626C10.8625 3.95001 11.2313 3.96876 11.525 4.15001ZM13 12C13 11.4469 13.4469 11 14 11H19C19.5531 11 20 11.4469 20 12V14C20 14.5531 19.5531 15 19 15H14C13.4469 15 13 14.5531 13 14V12ZM5 16H8C8.55312 16 9 16.4469 9 17V19C9 19.5531 8.55312 20 8 20H5C4.44687 20 4 19.5531 4 19V17C4 16.4469 4.44687 16 5 16ZM11 16H19C19.5531 16 20 16.4469 20 17V19C20 19.5531 19.5531 20 19 20H11C10.4469 20 10 19.5531 10 19V17C10 16.4469 10.4469 16 11 16Z" fill="black"/>
</svg>
