<svg width="24" height="24" viewBox="0 0 24 24" fill="none" xmlns="http://www.w3.org/2000/svg">
<path d="M3.21243 4.15943C2.88743 3.90318 2.41556 3.96255 2.15931 4.28755C1.90306 4.61255 1.96243 5.08443 2.28743 5.34068L20.7874 19.8407C21.1124 20.0969 21.5843 20.0376 21.8406 19.7126C22.0968 19.3876 22.0374 18.9157 21.7124 18.6594L17.5374 15.3876L17.9999 8.00005H8.11243L6.83743 7.00005H17.9999C18.5531 7.00005 18.9999 6.55318 18.9999 6.00005C18.9999 5.44693 18.5531 5.00005 17.9999 5.00005H14.9999L14.7749 4.55318C14.6062 4.21255 14.2593 4.00005 13.8812 4.00005H10.1187C9.74056 4.00005 9.39368 4.21255 9.22493 4.55318L8.99993 5.00005H5.99993C5.58118 5.00005 5.22493 5.2563 5.07493 5.6188L3.21243 4.15943ZM17.2499 19.0157L6.14056 10.2626L6.66243 18.5938C6.71243 19.3844 7.36868 20.0001 8.15931 20.0001H15.8406C16.4843 20.0001 17.0374 19.5938 17.2499 19.0157Z" fill="black"/>
</svg>
