<svg width="24" height="24" viewBox="0 0 24 24" fill="none" xmlns="http://www.w3.org/2000/svg">
<path d="M17.0001 13C15.4345 13 14.0751 13.9 13.4188 15.2125L6.15321 7.94692L6.17196 7.92817L8.05008 6.05005C10.7845 3.31567 15.2157 3.31567 17.9501 6.05005C20.047 8.14692 20.5345 11.2469 19.4126 13.8094C18.7438 13.3 17.9063 13 17.0001 13ZM5.54071 8.74692L13.0657 16.2719C13.022 16.5063 13.0001 16.75 13.0001 17C13.0001 17.725 13.1938 18.4032 13.5282 18.9907C13.4345 18.9969 13.3376 19 13.2407 19H13.1563C12.097 19 11.0782 18.5782 10.3282 17.8282L10.022 17.5219C9.61258 17.1125 8.94071 17.1344 8.55946 17.575L6.75633 19.6563C6.57508 19.8657 6.31258 19.9907 6.03758 20C5.76258 20.0094 5.49071 19.9032 5.29383 19.7063L4.29383 18.7063C4.09696 18.5094 3.99071 18.2407 4.00008 17.9625C4.00946 17.6844 4.13446 17.425 4.34383 17.2438L6.42508 15.4407C6.86258 15.0594 6.88758 14.3875 6.47821 13.9782L6.17196 13.6719C5.42196 12.9219 5.00008 11.9032 5.00008 10.8438V10.7594C5.00008 10.0469 5.19071 9.3563 5.54071 8.75005V8.74692ZM17.0001 14C17.7957 14 18.5588 14.3161 19.1214 14.8787C19.684 15.4413 20.0001 16.2044 20.0001 17C20.0001 17.7957 19.684 18.5588 19.1214 19.1214C18.5588 19.684 17.7957 20 17.0001 20C16.2044 20 15.4414 19.684 14.8788 19.1214C14.3162 18.5588 14.0001 17.7957 14.0001 17C14.0001 16.2044 14.3162 15.4413 14.8788 14.8787C15.4414 14.3161 16.2044 14 17.0001 14Z" fill="black"/>
</svg>
