<svg width="24" height="24" viewBox="0 0 24 24" fill="none" xmlns="http://www.w3.org/2000/svg">
<path d="M3.2125 4.15937C2.8875 3.90312 2.41563 3.96249 2.15938 4.28749C1.90313 4.61249 1.9625 5.08437 2.2875 5.34062L20.7875 19.8406C21.1125 20.0969 21.5844 20.0375 21.8406 19.7125C22.0969 19.3875 22.0375 18.9156 21.7125 18.6594L17.5375 15.3875L18 7.99999H8.1125L6.8375 6.99999H18C18.5531 6.99999 19 6.55312 19 5.99999C19 5.44687 18.5531 4.99999 18 4.99999H15L14.775 4.55312C14.6062 4.21249 14.2594 3.99999 13.8813 3.99999H10.1187C9.74062 3.99999 9.39375 4.21249 9.225 4.55312L9 4.99999H6C5.58125 4.99999 5.225 5.25624 5.075 5.61874L3.2125 4.15937ZM17.25 19.0156L6.14062 10.2625L6.6625 18.5937C6.7125 19.3844 7.36875 20 8.15938 20H15.8406C16.4844 20 17.0375 19.5937 17.25 19.0156Z" fill="black"/>
</svg>
