<svg width="24" height="24" viewBox="0 0 24 24" fill="none" xmlns="http://www.w3.org/2000/svg">
<path d="M4.00625 11.6594C4.00313 11.7719 4 11.8844 4 12C4 16.4187 7.58125 20 12 20C12.1156 20 12.2281 19.9969 12.3406 19.9937C12.2219 19.6594 12.1344 19.3125 12.0781 18.9594C11.9406 18.1094 11.9875 17.2406 12.2156 16.4094C12.4437 15.5781 12.8469 14.8094 13.4 14.1469C13.9531 13.4844 14.6406 12.9531 15.4156 12.5813C16.1906 12.2094 17.0406 12.0125 17.9 11.9969C18.6125 11.9844 19.3219 12.1 19.9937 12.3375C20 12.225 20 12.1125 20 11.9969C20 7.58125 16.4187 4 12 4C11.8844 4 11.7719 4.00313 11.6594 4.00625C11.9938 4.95938 12.0875 5.9875 11.9156 6.99375C11.6938 8.31875 11.0313 9.53125 10.0406 10.4344C9.05 11.3375 7.77812 11.8844 6.44062 11.9844C5.60937 12.0469 4.78125 11.9313 4.00625 11.6594ZM10.4625 4.14687C7.27813 4.76875 4.76875 7.27813 4.14687 10.4625C4.84063 10.75 5.59688 10.875 6.35313 10.8187C7.43125 10.7406 8.45313 10.3 9.25313 9.57188C10.0531 8.84375 10.5844 7.86875 10.7656 6.8C10.9156 5.90312 10.8094 4.98125 10.4625 4.14687ZM17.9187 13.1687C17.225 13.1812 16.5437 13.3406 15.9187 13.6406C15.2937 13.9406 14.7406 14.3687 14.2937 14.9C13.8469 15.4312 13.525 16.0531 13.3406 16.7219C13.1562 17.3906 13.1187 18.0906 13.2312 18.775C13.2906 19.1469 13.3938 19.5094 13.5375 19.8562C16.7219 19.2375 19.2312 16.725 19.8531 13.5406C19.2406 13.2875 18.5844 13.1625 17.9187 13.1719V13.1687Z" fill="black"/>
</svg>
