<svg width="24" height="24" viewBox="0 0 24 24" fill="none" xmlns="http://www.w3.org/2000/svg">
<path d="M3.21243 4.15955C2.88743 3.9033 2.41556 3.96268 2.15931 4.28768C1.90306 4.61268 1.96243 5.08455 2.28743 5.3408L20.7874 19.8408C21.1124 20.097 21.5843 20.0377 21.8406 19.7127C22.0968 19.3877 22.0374 18.9158 21.7124 18.6596L17.9999 15.7502V8.00018H8.11243L6.83743 7.00018H17.9999C18.5531 7.00018 18.9999 6.5533 18.9999 6.00018C18.9999 5.44705 18.5531 5.00018 17.9999 5.00018H14.9999L14.7749 4.5533C14.6062 4.21268 14.2593 4.00018 13.8812 4.00018H10.1187C9.74056 4.00018 9.39368 4.21268 9.22493 4.5533L8.99993 5.00018H5.99993C5.58118 5.00018 5.22493 5.25643 5.07493 5.61893L3.21243 4.15955ZM11.4999 10.6564V10.5002C11.4999 10.2252 11.7249 10.0002 11.9999 10.0002C12.2749 10.0002 12.4999 10.2252 12.4999 10.5002V11.4377L11.4999 10.6564ZM14.4999 13.0064V10.5002C14.4999 10.2252 14.7249 10.0002 14.9999 10.0002C15.2749 10.0002 15.4999 10.2252 15.4999 10.5002V13.7908L14.4999 13.0064ZM17.5562 19.2564L15.4843 17.6252C15.4281 17.8408 15.2343 18.0002 14.9999 18.0002C14.7249 18.0002 14.4999 17.7752 14.4999 17.5002V16.8502L12.4999 15.2752V17.5002C12.4999 17.7752 12.2749 18.0002 11.9999 18.0002C11.7249 18.0002 11.4999 17.7752 11.4999 17.5002V14.4846L9.49993 12.9096V17.5002C9.49993 17.7752 9.27493 18.0002 8.99993 18.0002C8.72493 18.0002 8.49993 17.7752 8.49993 17.5002V12.1221L5.99993 10.1533V18.0002C5.99993 19.1033 6.89681 20.0002 7.99993 20.0002H15.9999C16.6281 20.0002 17.1906 19.7096 17.5562 19.2564Z" fill="black"/>
</svg>
