<svg width="24" height="24" viewBox="0 0 24 24" fill="none" xmlns="http://www.w3.org/2000/svg">
<path d="M12 8.99999C10.8969 8.99999 10 8.15936 10 7.12499C10 6.37499 11.0531 4.93436 11.6313 4.20311C11.8219 3.96249 12.1781 3.96249 12.3687 4.20311C12.9469 4.93436 14 6.37499 14 7.12499C14 8.15936 13.1031 8.99999 12 8.99999ZM5 7.99999H9.17188C9.58437 9.16561 10.6938 9.99999 12 9.99999C13.3062 9.99999 14.4187 9.16561 14.8281 7.99999H19C20.1031 7.99999 21 8.89686 21 9.99999V15H17C16.4469 15 16 15.4469 16 16V20H5C3.89688 20 3 19.1031 3 18V9.99999C3 8.89686 3.89688 7.99999 5 7.99999ZM17 20V16H21L17 20ZM6 12C6.26522 12 6.51957 11.8946 6.70711 11.7071C6.89464 11.5196 7 11.2652 7 11C7 10.7348 6.89464 10.4804 6.70711 10.2929C6.51957 10.1053 6.26522 9.99999 6 9.99999C5.73478 9.99999 5.48043 10.1053 5.29289 10.2929C5.10536 10.4804 5 10.7348 5 11C5 11.2652 5.10536 11.5196 5.29289 11.7071C5.48043 11.8946 5.73478 12 6 12Z" fill="black"/>
</svg>
