<svg width="24" height="24" viewBox="0 0 24 24" fill="none" xmlns="http://www.w3.org/2000/svg">
<path d="M4 7C4 5.89688 4.89688 5 6 5H8V9H4V7ZM18 9H9V5H18C19.1031 5 20 5.89688 20 7V17C20 18.1031 19.1031 19 18 19H6C4.89688 19 4 18.1031 4 17V10H8V17H18V9ZM16.9625 11.6906C16.8844 11.8781 16.7031 12 16.5 12H16V13.5C16 14.3281 15.3281 15 14.5 15H13V15.5C13 15.7031 12.8781 15.8844 12.6906 15.9625C12.5031 16.0406 12.2875 15.9969 12.1469 15.8531L11.1469 14.8531C10.9531 14.6594 10.9531 14.3406 11.1469 14.1469L12.1469 13.1469C12.2906 13.0031 12.5063 12.9625 12.6906 13.0375C12.875 13.1125 13 13.2969 13 13.5V14H14.5C14.775 14 15 13.775 15 13.5V12H14.5C14.2969 12 14.1156 11.8781 14.0375 11.6906C13.9594 11.5031 14.0031 11.2875 14.1469 11.1469L15.1469 10.1469C15.3406 9.95312 15.6594 9.95312 15.8531 10.1469L16.8531 11.1469C16.9969 11.2906 17.0375 11.5063 16.9625 11.6906Z" fill="black"/>
</svg>
