<svg width="24" height="24" viewBox="0 0 24 24" fill="none" xmlns="http://www.w3.org/2000/svg">
<path d="M14.4531 6.06249C14.7281 5.94374 15.0469 5.99999 15.2656 6.20624L19.7656 10.4562C19.9156 10.5969 20 10.7937 20 11C20 11.2062 19.9156 11.4031 19.7656 11.5437L15.2656 15.7937C15.0469 16 14.7281 16.0562 14.4531 15.9375C14.1781 15.8187 14 15.5469 14 15.25V12.5H8C7.44687 12.5 7 12.9469 7 13.5V18C7 18.5531 6.55313 19 6 19H5C4.44687 19 4 18.5531 4 18V13.5C4 11.2906 5.79063 9.49999 8 9.49999H14V6.74999C14 6.44999 14.1781 6.18124 14.4531 6.06249Z" fill="black"/>
</svg>
