<svg width="24" height="24" viewBox="0 0 24 24" fill="none" xmlns="http://www.w3.org/2000/svg">
<path d="M2 8C2 6.89688 2.89688 6 4 6H20C21.1031 6 22 6.89688 22 8V9.5C22 9.775 21.7719 9.99375 21.5063 10.0625C20.6406 10.2812 20 11.0656 20 12C20 12.9344 20.6406 13.7188 21.5063 13.9375C21.775 14.0063 22 14.2219 22 14.5V16C22 17.1031 21.1031 18 20 18H4C2.89688 18 2 17.1031 2 16V8ZM15.5 8.5C15.6326 8.5 15.7598 8.44732 15.8536 8.35355C15.9473 8.25979 16 8.13261 16 8C16 7.86739 15.9473 7.74021 15.8536 7.64645C15.7598 7.55268 15.6326 7.5 15.5 7.5C15.3674 7.5 15.2402 7.55268 15.1464 7.64645C15.0527 7.74021 15 7.86739 15 8C15 8.13261 15.0527 8.25979 15.1464 8.35355C15.2402 8.44732 15.3674 8.5 15.5 8.5ZM15.5 10.5C15.6326 10.5 15.7598 10.4473 15.8536 10.3536C15.9473 10.2598 16 10.1326 16 10C16 9.86739 15.9473 9.74021 15.8536 9.64645C15.7598 9.55268 15.6326 9.5 15.5 9.5C15.3674 9.5 15.2402 9.55268 15.1464 9.64645C15.0527 9.74021 15 9.86739 15 10C15 10.1326 15.0527 10.2598 15.1464 10.3536C15.2402 10.4473 15.3674 10.5 15.5 10.5ZM16 12C16 11.8674 15.9473 11.7402 15.8536 11.6464C15.7598 11.5527 15.6326 11.5 15.5 11.5C15.3674 11.5 15.2402 11.5527 15.1464 11.6464C15.0527 11.7402 15 11.8674 15 12C15 12.1326 15.0527 12.2598 15.1464 12.3536C15.2402 12.4473 15.3674 12.5 15.5 12.5C15.6326 12.5 15.7598 12.4473 15.8536 12.3536C15.9473 12.2598 16 12.1326 16 12ZM15.5 14.5C15.6326 14.5 15.7598 14.4473 15.8536 14.3536C15.9473 14.2598 16 14.1326 16 14C16 13.8674 15.9473 13.7402 15.8536 13.6464C15.7598 13.5527 15.6326 13.5 15.5 13.5C15.3674 13.5 15.2402 13.5527 15.1464 13.6464C15.0527 13.7402 15 13.8674 15 14C15 14.1326 15.0527 14.2598 15.1464 14.3536C15.2402 14.4473 15.3674 14.5 15.5 14.5ZM16 16C16 15.8674 15.9473 15.7402 15.8536 15.6464C15.7598 15.5527 15.6326 15.5 15.5 15.5C15.3674 15.5 15.2402 15.5527 15.1464 15.6464C15.0527 15.7402 15 15.8674 15 16C15 16.1326 15.0527 16.2598 15.1464 16.3536C15.2402 16.4473 15.3674 16.5 15.5 16.5C15.6326 16.5 15.7598 16.4473 15.8536 16.3536C15.9473 16.2598 16 16.1326 16 16Z" fill="black"/>
</svg>
