<svg width="24" height="24" viewBox="0 0 24 24" fill="none" xmlns="http://www.w3.org/2000/svg">
<path d="M13.7937 5.02812C14.6062 5.19062 15.1344 5.98125 14.9719 6.79375L14.9 7.15C14.7344 7.98437 14.4281 8.77812 14 9.5H18.5C19.3281 9.5 20 10.1719 20 11C20 11.5781 19.6719 12.0812 19.1906 12.3312C19.5313 12.6062 19.75 13.0281 19.75 13.5C19.75 14.2312 19.225 14.8406 18.5344 14.9719C18.6719 15.2 18.75 15.4656 18.75 15.75C18.75 16.4156 18.3156 16.9812 17.7156 17.175C17.7375 17.2781 17.75 17.3875 17.75 17.5C17.75 18.3281 17.0781 19 16.25 19H13.2031C12.6094 19 12.0312 18.825 11.5375 18.4969L10.3344 17.6937C9.5 17.1375 9 16.2 9 15.1969V14V12.5V11.7219C9 10.8094 9.41562 9.95 10.125 9.37812L10.3562 9.19375C11.1844 8.53125 11.75 7.6 11.9563 6.5625L12.0281 6.20625C12.1906 5.39375 12.9812 4.86562 13.7937 5.02812ZM5 10H7C7.55313 10 8 10.4469 8 11V18C8 18.5531 7.55313 19 7 19H5C4.44687 19 4 18.5531 4 18V11C4 10.4469 4.44687 10 5 10Z" fill="black"/>
</svg>
