<svg width="24" height="24" viewBox="0 0 24 24" fill="none" xmlns="http://www.w3.org/2000/svg">
<path d="M21.6469 6.02188C21.8563 6.0875 22 6.28125 22 6.5V15.5C22 15.7188 21.8563 15.9125 21.6469 15.9781C21.4375 16.0438 21.2094 15.9656 21.0875 15.7844L21.0844 15.7781L21.0625 15.75C21.0438 15.725 21.0156 15.6844 20.975 15.6313C20.8969 15.5281 20.7812 15.3781 20.6313 15.1969C20.3313 14.8344 19.8938 14.3563 19.3563 13.875C18.2625 12.9031 16.8156 12 15.25 12H14.5V15.9375C15.3625 15.7156 16 14.9313 16 14V13.0875C16.6875 13.2438 17.3656 13.6 18 14.0625C17.9656 16.2438 16.1875 18 14 18H11.0031C11.0031 18 11.0031 18 11 18H8C5.79063 18 4 16.2094 4 14C4 13.2719 4.19375 12.5875 4.53437 12H3.45625C3.35312 12.2906 3.075 12.5 2.75 12.5C2.33437 12.5 2 12.1656 2 11.75V10.25C2 9.83438 2.33437 9.5 2.75 9.5C3.075 9.5 3.35312 9.70938 3.45625 10H7.5V9C7.5 8.58438 7.83437 8.25 8.25 8.25C8.66563 8.25 9 8.58438 9 9V10H10.25V9C10.25 8.58438 10.5844 8.25 11 8.25C11.4156 8.25 11.75 8.58438 11.75 9V10H13V9C13 8.58438 13.3344 8.25 13.75 8.25C14.1656 8.25 14.5 8.58438 14.5 9V10H15.25C16.8156 10 18.2625 9.1 19.3563 8.125C19.8969 7.64688 20.3313 7.16563 20.6313 6.80313C20.7812 6.62188 20.8969 6.47188 20.975 6.36875C21.0125 6.31563 21.0438 6.27813 21.0625 6.25L21.0844 6.22188L21.0875 6.21563C21.2125 6.03438 21.4375 5.95625 21.6469 6.02188ZM11.75 16H13V12H11.75V16ZM9 12V16H10.25V12H9ZM6 14C6 14.9313 6.6375 15.7156 7.5 15.9375V12.0625C6.6375 12.2844 6 13.0688 6 14Z" fill="black"/>
</svg>
