<svg width="24" height="24" viewBox="0 0 24 24" fill="none" xmlns="http://www.w3.org/2000/svg">
<path d="M14.3937 4.2031L9.36874 8.03435C9.66874 8.0906 9.95936 8.2156 10.2125 8.40935L15.4625 12.4094C15.875 12.725 16.15 13.1875 16.2281 13.7031L16.4219 15H21C21.2906 15 21.5687 14.8719 21.7562 14.6531C21.9437 14.4344 22.0312 14.1406 21.9875 13.8531L21.2375 8.8531C21.2 8.59685 21.0625 8.36248 20.8531 8.20623L15.6031 4.20623C15.2437 3.93435 14.75 3.93435 14.3906 4.20623L14.3937 4.2031ZM9.60624 9.2031C9.24686 8.93123 8.75311 8.93123 8.39374 9.2031L3.14374 13.2031C2.93749 13.3594 2.79999 13.5937 2.75936 13.85L2.00936 18.85C1.96561 19.1375 2.04999 19.4312 2.24061 19.65C2.43124 19.8687 2.70936 20 2.99999 20H7.49999H7.99999C8.55311 20 8.99999 19.5531 8.99999 19V15.3094C8.99999 15.1375 9.13749 15 9.30936 15C9.42499 15 9.53436 15.0656 9.58436 15.1719L11.7219 19.4468C11.8906 19.7843 12.2375 20 12.6156 20H14.5H15C15.2906 20 15.5687 19.8719 15.7562 19.6531C15.9437 19.4344 16.0312 19.1406 15.9875 18.8531L15.2375 13.8531C15.2 13.5968 15.0625 13.3625 14.8531 13.2062L9.60311 9.20623L9.60624 9.2031Z" fill="black"/>
</svg>
