<svg width="24" height="24" viewBox="0 0 24 24" fill="none" xmlns="http://www.w3.org/2000/svg">
<path d="M7.31243 14.4531C7.19368 14.7281 7.24993 15.0469 7.45618 15.2656L11.7062 19.7656C11.8468 19.9156 12.0437 20 12.2499 20C12.4562 20 12.6531 19.9156 12.7937 19.7656L17.0437 15.2656C17.2499 15.0469 17.3062 14.7281 17.1874 14.4531C17.0687 14.1781 16.7968 14 16.4999 14H13.7499V8C13.7499 7.44687 14.1968 7 14.7499 7H17.2499C17.8031 7 18.2499 6.55313 18.2499 6V5C18.2499 4.44687 17.8031 4 17.2499 4H14.7499C12.5406 4 10.7499 5.79063 10.7499 8V14H7.99993C7.69993 14 7.43118 14.1781 7.31243 14.4531Z" fill="black"/>
</svg>
