<svg width="24" height="24" viewBox="0 0 24 24" fill="none" xmlns="http://www.w3.org/2000/svg">
<path d="M16.75 5.75C16.75 6.44062 16.7125 7.29063 16.1469 7.6875L15.1594 8.38438C13.7469 7.50625 12.2469 7 11 7C7.5 7 2 11 2 16C2 20 7 20 11 20C15 20 20 20 20 16C20 14.0312 19.1469 12.2156 17.8969 10.7406C17.8844 10.7469 17.875 10.7531 17.8656 10.7594L16.9812 11.3844C16.7219 11.5687 16.5094 11.8531 16.3188 12.2688C16.1281 12.6875 15.9906 13.1625 15.8375 13.7063L15.8281 13.7375C15.5813 14.5969 15.0781 15.3938 14.3313 15.9969C12.4 17.5594 9.56563 17.2625 8.00313 15.3281C7.56875 14.7906 7.27812 14.1844 7.125 13.5562C7.05312 13.2625 7.29063 12.9969 7.59375 12.9969C7.84375 12.9969 8.05 13.1781 8.12187 13.4187C8.24687 13.8719 8.4625 14.3094 8.77812 14.7C9.44375 15.5219 10.4062 15.9656 11.3875 15.9969C12.1969 16.0219 13.0188 15.7688 13.7 15.2188C14.2812 14.75 14.6719 14.1312 14.8625 13.4625L14.8813 13.4C15.1813 12.3469 15.5094 11.1969 16.4031 10.5687L17.2094 10L17.2875 9.94375C17.8594 9.54063 18.6406 9.61875 19.3937 9.69375C19.6875 9.72187 19.975 9.75 20.2469 9.75C21.2125 9.75 21.9969 8.96562 21.9969 8C21.9969 7.03437 21.2125 6.25 20.2469 6.25C20.2125 6.25 20.1844 6.21563 20.1938 6.18125C20.2281 6.04375 20.2469 5.9 20.2469 5.75C20.2469 4.78438 19.4625 4 18.4969 4C17.5313 4 16.7469 4.78438 16.7469 5.75H16.75Z" fill="black"/>
</svg>
