<svg width="24" height="24" viewBox="0 0 24 24" fill="none" xmlns="http://www.w3.org/2000/svg">
<path d="M3.5 17H3C2.44687 17 2 16.5531 2 16V6.32812C2 5.82187 2.2875 5.35938 2.74063 5.13125C4.225 4.3875 5.86562 4 7.52812 4H8.475C10.1375 4 11.775 4.3875 13.2625 5.13125C13.7125 5.35625 14 5.81875 14 6.32812V7C13.3156 7 12.7375 7.45938 12.5562 8.0875C12.3656 8.13125 12.1781 8.19062 12 8.2625V7.75C12 7.33437 11.6656 7 11.25 7H8.5V11H9.80937L9.3 12.5281C8.51563 13.0687 8 13.975 8 15V17H6V18C6 18.5531 5.55313 19 5 19H4.5C3.94687 19 3.5 18.5531 3.5 18V17ZM4 7.75V10.25C4 10.6656 4.33437 11 4.75 11H7.5V7H4.75C4.33437 7 4 7.33437 4 7.75ZM5.75 14C5.75 13.8011 5.67098 13.6103 5.53033 13.4697C5.38968 13.329 5.19891 13.25 5 13.25C4.80109 13.25 4.61032 13.329 4.46967 13.4697C4.32902 13.6103 4.25 13.8011 4.25 14C4.25 14.1989 4.32902 14.3897 4.46967 14.5303C4.61032 14.671 4.80109 14.75 5 14.75C5.19891 14.75 5.38968 14.671 5.53033 14.5303C5.67098 14.3897 5.75 14.1989 5.75 14ZM13.5 8.75C13.5 8.33437 13.8344 8 14.25 8H16.75C17.1656 8 17.5 8.33437 17.5 8.75V9H17.6687C18.7437 9 19.7 9.6875 20.0406 10.7094L20.8719 13.2C21.5375 13.5219 22 14.2063 22 15V18V19C22 19.5531 21.5531 20 21 20H20.5C19.9469 20 19.5 19.5531 19.5 19V18H11.5V19C11.5 19.5531 11.0531 20 10.5 20H10C9.44687 20 9 19.5531 9 19V18V15C9 14.2063 9.4625 13.5219 10.1281 13.2L10.9594 10.7094C11.3 9.6875 12.2563 9 13.3313 9H13.5V8.75ZM12.8562 11.3406L12.3031 13H18.6969L18.1437 11.3406C18.075 11.1375 17.8844 11 17.6687 11H13.3313C13.1156 11 12.925 11.1375 12.8562 11.3406ZM12.25 15.5C12.25 15.3011 12.171 15.1103 12.0303 14.9697C11.8897 14.829 11.6989 14.75 11.5 14.75C11.3011 14.75 11.1103 14.829 10.9697 14.9697C10.829 15.1103 10.75 15.3011 10.75 15.5C10.75 15.6989 10.829 15.8897 10.9697 16.0303C11.1103 16.171 11.3011 16.25 11.5 16.25C11.6989 16.25 11.8897 16.171 12.0303 16.0303C12.171 15.8897 12.25 15.6989 12.25 15.5ZM19.5 16.25C19.6989 16.25 19.8897 16.171 20.0303 16.0303C20.171 15.8897 20.25 15.6989 20.25 15.5C20.25 15.3011 20.171 15.1103 20.0303 14.9697C19.8897 14.829 19.6989 14.75 19.5 14.75C19.3011 14.75 19.1103 14.829 18.9697 14.9697C18.829 15.1103 18.75 15.3011 18.75 15.5C18.75 15.6989 18.829 15.8897 18.9697 16.0303C19.1103 16.171 19.3011 16.25 19.5 16.25Z" fill="black"/>
</svg>
