<svg width="24" height="24" viewBox="0 0 24 24" fill="none" xmlns="http://www.w3.org/2000/svg">
<path d="M17 13C15.4343 13 14.075 13.9 13.4187 15.2125L6.15309 7.94692L6.17184 7.92817L8.04996 6.05005C10.7843 3.31567 15.2156 3.31567 17.95 6.05005C20.0468 8.14692 20.5343 11.2469 19.4125 13.8094C18.7437 13.3 17.9062 13 17 13ZM5.54059 8.74692L13.0656 16.2719C13.0218 16.5063 13 16.75 13 17C13 17.725 13.1937 18.4032 13.5281 18.9907C13.4343 18.9969 13.3375 19 13.2406 19H13.1562C12.0968 19 11.0781 18.5782 10.3281 17.8282L10.0218 17.5219C9.61246 17.1125 8.94059 17.1344 8.55934 17.575L6.75621 19.6563C6.57496 19.8657 6.31246 19.9907 6.03746 20C5.76246 20.0094 5.49059 19.9032 5.29371 19.7063L4.29371 18.7063C4.09684 18.5094 3.99059 18.2407 3.99996 17.9625C4.00934 17.6844 4.13434 17.425 4.34371 17.2438L6.42496 15.4407C6.86246 15.0594 6.88746 14.3875 6.47809 13.9782L6.17184 13.6719C5.42184 12.9219 4.99996 11.9032 4.99996 10.8438V10.7594C4.99996 10.0469 5.19059 9.3563 5.54059 8.75005V8.74692ZM17 14C17.7956 14 18.5587 14.3161 19.1213 14.8787C19.6839 15.4413 20 16.2044 20 17C20 17.7957 19.6839 18.5588 19.1213 19.1214C18.5587 19.684 17.7956 20 17 20C16.2043 20 15.4413 19.684 14.8786 19.1214C14.316 18.5588 14 17.7957 14 17C14 16.2044 14.316 15.4413 14.8786 14.8787C15.4413 14.3161 16.2043 14 17 14Z" fill="black"/>
</svg>
