<svg width="24" height="24" viewBox="0 0 24 24" fill="none" xmlns="http://www.w3.org/2000/svg">
<path d="M3 8C3 6.34375 4.34375 5 6 5H18C19.6562 5 21 6.34375 21 8V16C21 17.6562 19.6562 19 18 19H6C4.34375 19 3 17.6562 3 16V8ZM8.5 9.5V11.25C8.5 11.6656 8.83437 12 9.25 12H10.75C11.1656 12 11.5 11.6656 11.5 11.25V9.5C11.5 8.67188 10.8281 8 10 8C9.17188 8 8.5 8.67188 8.5 9.5ZM14 8C13.1719 8 12.5 8.67188 12.5 9.5V11.25C12.5 11.6656 12.8344 12 13.25 12H14.75C15.1656 12 15.5 11.6656 15.5 11.25V9.5C15.5 8.67188 14.8281 8 14 8ZM4.5 10.5V11.25C4.5 11.6656 4.83437 12 5.25 12H6.75C7.16563 12 7.5 11.6656 7.5 11.25V10.5C7.5 9.67188 6.82812 9 6 9C5.17188 9 4.5 9.67188 4.5 10.5ZM6 16C6.82812 16 7.5 15.3281 7.5 14.5V13.75C7.5 13.3344 7.16563 13 6.75 13H5.25C4.83437 13 4.5 13.3344 4.5 13.75V14.5C4.5 15.3281 5.17188 16 6 16ZM8.5 14.5C8.5 15.3281 9.17188 16 10 16C10.8281 16 11.5 15.3281 11.5 14.5V13.75C11.5 13.3344 11.1656 13 10.75 13H9.25C8.83437 13 8.5 13.3344 8.5 13.75V14.5ZM14 16C14.8281 16 15.5 15.3281 15.5 14.5V13.75C15.5 13.3344 15.1656 13 14.75 13H13.25C12.8344 13 12.5 13.3344 12.5 13.75V14.5C12.5 15.3281 13.1719 16 14 16ZM16.5 10.5V11.25C16.5 11.6656 16.8344 12 17.25 12H18.75C19.1656 12 19.5 11.6656 19.5 11.25V10.5C19.5 9.67188 18.8281 9 18 9C17.1719 9 16.5 9.67188 16.5 10.5ZM18 16C18.8281 16 19.5 15.3281 19.5 14.5V13.75C19.5 13.3344 19.1656 13 18.75 13H17.25C16.8344 13 16.5 13.3344 16.5 13.75V14.5C16.5 15.3281 17.1719 16 18 16Z" fill="black"/>
</svg>
