<svg width="24" height="24" viewBox="0 0 24 24" fill="none" xmlns="http://www.w3.org/2000/svg">
<path d="M12.5875 5.19998L13.9656 6.26873C14.1406 6.40623 14.3594 6.47498 14.5812 6.46873L16.325 6.4156C16.7625 6.4031 17.1531 6.68435 17.275 7.10623L17.7625 8.78123C17.825 8.99373 17.9594 9.18123 18.1437 9.30623L19.5812 10.2812C19.9437 10.5281 20.0906 10.9844 19.9437 11.3969L19.4094 12.8875C17.7844 10.5375 15.0719 8.99998 12 8.99998C8.92812 8.99998 6.21562 10.5375 4.59062 12.8875L4.05624 11.3969C3.90937 10.9875 4.05624 10.5281 4.41874 10.2812L5.85937 9.29998C6.04374 9.17498 6.17812 8.9906 6.24062 8.77498L6.72812 7.1031C6.84999 6.68435 7.24062 6.39998 7.67812 6.41248L9.41874 6.46873C9.64062 6.47498 9.85937 6.40623 10.0344 6.26873L11.4125 5.19998C11.7562 4.93123 12.2406 4.93123 12.5844 5.19998H12.5875ZM20 18C20 18.5531 19.5531 19 19 19H4.99999C4.44687 19 3.99999 18.5531 3.99999 18C3.99999 13.5812 7.58124 9.99998 12 9.99998C16.4187 9.99998 20 13.5812 20 18ZM7.49999 17C7.6326 17 7.75978 16.9473 7.85355 16.8535C7.94731 16.7598 7.99999 16.6326 7.99999 16.5C7.99999 16.3674 7.94731 16.2402 7.85355 16.1464C7.75978 16.0527 7.6326 16 7.49999 16C7.36738 16 7.24021 16.0527 7.14644 16.1464C7.05267 16.2402 6.99999 16.3674 6.99999 16.5C6.99999 16.6326 7.05267 16.7598 7.14644 16.8535C7.24021 16.9473 7.36738 17 7.49999 17ZM9.99999 14.5C9.99999 14.3674 9.94731 14.2402 9.85355 14.1464C9.75978 14.0527 9.6326 14 9.49999 14C9.36738 14 9.24021 14.0527 9.14644 14.1464C9.05267 14.2402 8.99999 14.3674 8.99999 14.5C8.99999 14.6326 9.05267 14.7598 9.14644 14.8535C9.24021 14.9473 9.36738 15 9.49999 15C9.6326 15 9.75978 14.9473 9.85355 14.8535C9.94731 14.7598 9.99999 14.6326 9.99999 14.5Z" fill="black"/>
</svg>
