<svg width="24" height="24" viewBox="0 0 24 24" fill="none" xmlns="http://www.w3.org/2000/svg">
<path d="M8 4C6.34375 4 5 5.34375 5 7V15C5 16.5 6.1 17.7406 7.53437 17.9656L6.09687 19.4031C5.87812 19.6219 6.03438 20 6.34375 20H7.58437C7.85 20 8.10313 19.8938 8.29063 19.7063L10 18H14L15.7063 19.7063C15.8938 19.8938 16.1469 20 16.4125 20H17.6562C17.9688 20 18.125 19.6219 17.9031 19.4031L16.4656 17.9656C17.9031 17.7437 19 16.5 19 15V7C19 5.34375 17.6562 4 16 4H8ZM7 7C7 6.44687 7.44687 6 8 6H16C16.5531 6 17 6.44687 17 7V10C17 10.5531 16.5531 11 16 11H8C7.44687 11 7 10.5531 7 10V7ZM12 13C12.3978 13 12.7794 13.158 13.0607 13.4393C13.342 13.7206 13.5 14.1022 13.5 14.5C13.5 14.8978 13.342 15.2794 13.0607 15.5607C12.7794 15.842 12.3978 16 12 16C11.6022 16 11.2206 15.842 10.9393 15.5607C10.658 15.2794 10.5 14.8978 10.5 14.5C10.5 14.1022 10.658 13.7206 10.9393 13.4393C11.2206 13.158 11.6022 13 12 13Z" fill="black"/>
</svg>
