<svg width="24" height="24" viewBox="0 0 24 24" fill="none" xmlns="http://www.w3.org/2000/svg">
<path d="M18.2531 4.19379C17.9438 3.91567 17.4719 3.94067 17.1938 4.25004C16.9156 4.55942 16.9406 5.03129 17.25 5.30942L18.2969 6.25004H5.70312L6.75 5.30629C7.05937 5.02817 7.08437 4.55629 6.80625 4.24692C6.52813 3.93754 6.05625 3.91567 5.74688 4.19379L3.24688 6.44379C3.09063 6.58442 3 6.78754 3 7.00004C3 7.21254 3.09063 7.41567 3.24688 7.55629L5.74688 9.80629C6.05625 10.0844 6.52813 10.0594 6.80625 9.75004C7.08437 9.44067 7.05937 8.96879 6.75 8.69067L5.70312 7.75004H18.2937L17.2469 8.69379C16.9375 8.97192 16.9125 9.44379 17.1906 9.75317C17.4688 10.0625 17.9406 10.0875 18.25 9.80942L20.75 7.55942C20.9094 7.41567 20.9969 7.21567 20.9969 7.00317C20.9969 6.79067 20.9062 6.58754 20.75 6.44692L18.25 4.19692L18.2531 4.19379ZM12.6062 9.20317C12.2469 8.93129 11.7531 8.93129 11.3938 9.20317L6.14375 13.2032C5.9375 13.3594 5.8 13.5938 5.75938 13.85L5.00938 18.85C4.96563 19.1375 5.05 19.4313 5.24062 19.65C5.43125 19.8688 5.70937 20 6 20H10.5H11C11.5531 20 12 19.5532 12 19V15.3094C12 15.1375 12.1375 15 12.3094 15C12.425 15 12.5344 15.0657 12.5844 15.1719L14.7219 19.4469C14.8906 19.7844 15.2375 20 15.6156 20H17.5H18C18.2906 20 18.5688 19.8719 18.7563 19.6532C18.9438 19.4344 19.0312 19.1407 18.9875 18.8532L18.2375 13.8532C18.2 13.5969 18.0625 13.3625 17.8531 13.2063L12.6031 9.20629L12.6062 9.20317Z" fill="black"/>
</svg>
