<svg width="24" height="24" viewBox="0 0 24 24" fill="none" xmlns="http://www.w3.org/2000/svg">
<path d="M8.50315 4.57187C9.2594 4.26875 10.3875 4 12 4C13.6125 4 14.7406 4.26875 15.4969 4.57187C15.875 4.72187 16.1531 4.88125 16.3531 5.0125C16.75 5.27813 17.075 5.65 16.9875 6.16563L16.2625 10.5H16.25H14.3813L14.75 6.27187C14.7625 6.13437 14.6594 6.0125 14.5219 6C14.3844 5.9875 14.2625 6.09063 14.25 6.22813L13.8781 10.5H12.25V6C12.25 5.8625 12.1375 5.75 12 5.75C11.8625 5.75 11.75 5.8625 11.75 6V10.5H10.1219L9.75002 6.22813C9.73752 6.09063 9.61565 5.9875 9.47815 6C9.34065 6.0125 9.23752 6.13437 9.25002 6.27187L9.61877 10.5H7.75002H7.73752L7.01252 6.16563C6.92815 5.65 7.25315 5.275 7.65002 5.0125C7.8469 4.88125 8.12815 4.72187 8.50627 4.57187H8.50315ZM7.75002 11.5H16.25C16.525 11.5 16.75 11.725 16.75 12C16.75 12.275 16.525 12.5 16.25 12.5H13L13.9 13.7C14.0656 13.9219 14.0219 14.2344 13.8 14.4C13.5781 14.5656 13.2656 14.5219 13.1 14.3L12 12.8344L10.9 14.3C10.7344 14.5219 10.4219 14.5656 10.2 14.4C9.97815 14.2344 9.9344 13.9219 10.1 13.7L11 12.5H7.75002C7.47502 12.5 7.25002 12.275 7.25002 12C7.25002 11.725 7.47502 11.5 7.75002 11.5ZM11.75 18C11.75 18.1375 11.8625 18.25 12 18.25C12.1375 18.25 12.25 18.1375 12.25 18V14.8344C12.6688 15.3938 13.3719 15.6625 14.0438 15.4L14.25 17.775C14.2625 17.9125 14.3844 18.0156 14.5219 18.0031C14.6594 17.9906 14.7625 17.8687 14.75 17.7312L14.5219 15.1031C14.9656 14.6906 15.1125 14.0594 14.9156 13.5031H16.25H16.2625L16.9844 17.8375C17.0375 18.1562 16.9344 18.4813 16.7063 18.7094C16.375 19.0375 15.9219 19.2594 15.4969 19.4281C14.7406 19.7313 13.6125 20 12 20C10.3875 20 9.2594 19.7313 8.50315 19.4281C8.07502 19.2563 7.62502 19.0375 7.29377 18.7094C7.06565 18.4813 6.96252 18.1562 7.01565 17.8375L7.73752 13.5H7.75002H9.0844C8.88752 14.0531 9.0344 14.6875 9.47815 15.1L9.25002 17.7281C9.23752 17.8656 9.34065 17.9875 9.47815 18C9.61565 18.0125 9.73752 17.9094 9.75002 17.7719L9.95627 15.3969C10.6281 15.6594 11.3313 15.3906 11.75 14.8313V18Z" fill="black"/>
</svg>
