<svg width="24" height="24" viewBox="0 0 24 24" fill="none" xmlns="http://www.w3.org/2000/svg">
<path d="M13.7937 5.02742C14.6062 5.18992 15.1344 5.98055 14.9719 6.79305L14.9 7.1493C14.7344 7.98367 14.4281 8.77742 14 9.4993H18.5C19.3281 9.4993 20 10.1712 20 10.9993C20 11.5774 19.6719 12.0805 19.1906 12.3305C19.5312 12.6055 19.75 13.0274 19.75 13.4993C19.75 14.2305 19.225 14.8399 18.5344 14.9712C18.6719 15.1993 18.75 15.4649 18.75 15.7493C18.75 16.4149 18.3156 16.9805 17.7156 17.1743C17.7375 17.2774 17.75 17.3868 17.75 17.4993C17.75 18.3274 17.0781 18.9993 16.25 18.9993H13.2031C12.6094 18.9993 12.0312 18.8243 11.5375 18.4962L10.3344 17.693C9.5 17.1368 9 16.1993 9 15.1962V13.9993V12.4993V11.7212C9 10.8087 9.41563 9.9493 10.125 9.37742L10.3562 9.19305C11.1844 8.53055 11.75 7.5993 11.9563 6.5618L12.0281 6.20555C12.1906 5.39305 12.9812 4.86492 13.7937 5.02742ZM5 9.9993H7C7.55312 9.9993 8 10.4462 8 10.9993V17.9993C8 18.5524 7.55312 18.9993 7 18.9993H5C4.44687 18.9993 4 18.5524 4 17.9993V10.9993C4 10.4462 4.44687 9.9993 5 9.9993Z" fill="black"/>
</svg>
