<svg width="24" height="24" viewBox="0 0 24 24" fill="none" xmlns="http://www.w3.org/2000/svg">
<path d="M12.0188 7.07816L11.9344 7.06253L11.4938 4.41878C11.4657 4.25003 11.3532 4.10628 11.1938 4.04066C11.0344 3.97503 10.8532 3.99378 10.7125 4.09066L8.50003 5.64066L6.28753 4.09066C6.14691 3.99066 5.96566 3.97191 5.80628 4.04066C5.64691 4.10941 5.53441 4.25003 5.50628 4.41878L5.06566 7.06566L2.41878 7.50628C2.25003 7.53441 2.10628 7.64691 2.04066 7.80628C1.97503 7.96566 1.99378 8.14691 2.09066 8.28753L3.64066 10.5L2.09066 12.7125C1.99066 12.8532 1.97191 13.0344 2.04066 13.1938C2.10941 13.3532 2.25003 13.4657 2.41878 13.4938L5.06566 13.9344L5.50628 16.5813C5.53441 16.75 5.64691 16.8938 5.80628 16.9594C5.96566 17.025 6.14691 17.0063 6.28753 16.9094L8.50003 15.3594L10.7125 16.9094C10.8532 17.0063 11.0344 17.0282 11.1938 16.9594C11.2157 16.95 11.2407 16.9375 11.2594 16.925C11.0907 16.3969 11 15.8344 11 15.2469C11 14.0688 11.3688 12.9782 12 12.0844V7.50003C12 7.35941 12.0063 7.21878 12.0188 7.07816ZM8.50003 12.5C9.03046 12.5 9.53917 12.2893 9.91425 11.9142C10.2893 11.5392 10.5 11.0305 10.5 10.5C10.5 9.9696 10.2893 9.46089 9.91425 9.08582C9.53917 8.71074 9.03046 8.50003 8.50003 8.50003C7.9696 8.50003 7.46089 8.71074 7.08582 9.08582C6.71074 9.46089 6.50003 9.9696 6.50003 10.5C6.50003 11.0305 6.71074 11.5392 7.08582 11.9142C7.46089 12.2893 7.9696 12.5 8.50003 12.5ZM8.50003 7.50003C9.29568 7.50003 10.0587 7.8161 10.6214 8.37871C11.184 8.94132 11.5 9.70438 11.5 10.5C11.5 11.2957 11.184 12.0587 10.6214 12.6214C10.0587 13.184 9.29568 13.5 8.50003 13.5C7.70438 13.5 6.94132 13.184 6.37871 12.6214C5.8161 12.0587 5.50003 11.2957 5.50003 10.5C5.50003 9.70438 5.8161 8.94132 6.37871 8.37871C6.94132 7.8161 7.70438 7.50003 8.50003 7.50003ZM15 7.50003C15 6.67191 15.6719 6.00003 16.5 6.00003C17.3282 6.00003 18 6.67191 18 7.50003V12.6407C18 13.1813 18.2219 13.6375 18.4782 13.9688C18.8063 14.3938 19 14.9219 19 15.5C19 16.8813 17.8813 18 16.5 18C15.1188 18 14 16.8813 14 15.5C14 14.9219 14.1938 14.3938 14.5219 13.9719C14.7782 13.6407 15 13.1844 15 12.6438V7.50003ZM16.5 4.00003C14.5657 4.00003 13 5.56878 13 7.50003V12.6407C13 12.6438 12.9969 12.65 12.9938 12.6594C12.9875 12.6782 12.9688 12.7094 12.9407 12.7469C12.35 13.5094 12 14.4657 12 15.5C12 17.9844 14.0157 20 16.5 20C18.9844 20 21 17.9844 21 15.5C21 14.4625 20.6469 13.5063 20.0594 12.7469C20.0313 12.7094 20.0125 12.6782 20.0063 12.6594C20.0032 12.65 20 12.6438 20 12.6407V7.50003C20 5.56878 18.4344 4.00003 16.5 4.00003ZM16.5 17C17.3282 17 18 16.3282 18 15.5C18 14.8469 17.5813 14.2907 17 14.0844V7.50003C17 7.22503 16.775 7.00003 16.5 7.00003C16.225 7.00003 16 7.22503 16 7.50003V14.0844C15.4188 14.2907 15 14.8469 15 15.5C15 16.3282 15.6719 17 16.5 17Z" fill="black"/>
</svg>
