<svg width="24" height="24" viewBox="0 0 24 24" fill="none" xmlns="http://www.w3.org/2000/svg">
<path d="M4 6.5C4 7.32812 4.67188 8 5.5 8H6V10H8V8H11V10H13V8H16V10H18V8H18.5C19.3281 8 20 7.32812 20 6.5V4.41875C20 4.1875 19.8125 4 19.5813 4C19.5281 4 19.475 4.00938 19.425 4.03125L17.8938 4.64375C17.3031 4.87813 16.6719 5 16.0375 5H7.9625C7.325 5 6.69688 4.87813 6.10625 4.64375L4.575 4.03125C4.525 4.0125 4.47187 4 4.41875 4C4.1875 4 4 4.1875 4 4.41875V6.5ZM6 13V19C6 19.5531 6.44687 20 7 20C7.55313 20 8 19.5531 8 19V13H16V19C16 19.5531 16.4469 20 17 20C17.5531 20 18 19.5531 18 19V13H19C19.5531 13 20 12.5531 20 12C20 11.4469 19.5531 11 19 11H5C4.44687 11 4 11.4469 4 12C4 12.5531 4.44687 13 5 13H6Z" fill="black"/>
</svg>
