<svg width="24" height="24" viewBox="0 0 24 24" fill="none" xmlns="http://www.w3.org/2000/svg">
<path d="M10.5 7.5C10.5 6.67188 11.1719 6 12 6C12.8281 6 13.5 6.67188 13.5 7.5V12.6406C13.5 13.1812 13.7219 13.6375 13.9781 13.9688C14.3063 14.3938 14.5 14.9219 14.5 15.5C14.5 16.8813 13.3813 18 12 18C10.6187 18 9.5 16.8813 9.5 15.5C9.5 14.9219 9.69375 14.3938 10.0219 13.9719C10.2781 13.6406 10.5 13.1844 10.5 12.6438V7.5ZM12 4C10.0656 4 8.5 5.56875 8.5 7.5V12.6406C8.5 12.6438 8.49687 12.65 8.49375 12.6594C8.4875 12.6781 8.46875 12.7094 8.44062 12.7469C7.85 13.5062 7.5 14.4625 7.5 15.5C7.5 17.9844 9.51562 20 12 20C14.4844 20 16.5 17.9844 16.5 15.5C16.5 14.4625 16.15 13.5062 15.5594 12.7469C15.5312 12.7094 15.5125 12.6781 15.5063 12.6594C15.5031 12.65 15.5 12.6438 15.5 12.6406V7.5C15.5 5.56875 13.9344 4 12 4ZM12 17C12.3978 17 12.7794 16.842 13.0607 16.5607C13.342 16.2794 13.5 15.8978 13.5 15.5C13.5 15.1022 13.342 14.7206 13.0607 14.4393C12.7794 14.158 12.3978 14 12 14C11.6022 14 11.2206 14.158 10.9393 14.4393C10.658 14.7206 10.5 15.1022 10.5 15.5C10.5 15.8978 10.658 16.2794 10.9393 16.5607C11.2206 16.842 11.6022 17 12 17Z" fill="black"/>
</svg>
