<svg width="24" height="24" viewBox="0 0 24 24" fill="none" xmlns="http://www.w3.org/2000/svg">
<path d="M5 6.50079V11.1727C5 11.7039 5.20938 12.2133 5.58438 12.5883L11.0844 18.0883C11.8656 18.8695 13.1313 18.8695 13.9125 18.0883L18.0844 13.9164C18.8656 13.1352 18.8656 11.8695 18.0844 11.0883L12.5844 5.58829C12.2094 5.21329 11.7 5.00392 11.1687 5.00392H6.5C5.67188 5.00079 5 5.67267 5 6.50079ZM8.5 7.50079C8.76522 7.50079 9.01957 7.60615 9.20711 7.79369C9.39464 7.98122 9.5 8.23558 9.5 8.50079C9.5 8.76601 9.39464 9.02036 9.20711 9.2079C9.01957 9.39543 8.76522 9.50079 8.5 9.50079C8.23478 9.50079 7.98043 9.39543 7.79289 9.2079C7.60536 9.02036 7.5 8.76601 7.5 8.50079C7.5 8.23558 7.60536 7.98122 7.79289 7.79369C7.98043 7.60615 8.23478 7.50079 8.5 7.50079Z" fill="black"/>
</svg>
