<svg width="24" height="24" viewBox="0 0 24 24" fill="none" xmlns="http://www.w3.org/2000/svg">
<path d="M11.5531 4.10547C11.8344 3.96484 12.1656 3.96484 12.4469 4.10547L17.4469 6.60547C17.9406 6.85234 18.1406 7.45234 17.8938 7.94609C17.7188 8.29609 17.3656 8.49922 17 8.49922V10.9992C17 11.5523 16.5531 11.9992 16 11.9992H15.8469L16.8469 17.9992H19C19.5531 17.9992 20 18.4461 20 18.9992C20 19.5523 19.5531 19.9992 19 19.9992H16.0156C16.0031 19.9992 15.9906 19.9992 15.9812 19.9992H8.01875C8.00625 19.9992 7.99375 19.9992 7.98438 19.9992H5C4.44687 19.9992 4 19.5523 4 18.9992C4 18.4461 4.44687 17.9992 5 17.9992H7.15313L8.15312 11.9992H8C7.44688 11.9992 7 11.5523 7 10.9992V8.49922C6.63438 8.49922 6.28125 8.29609 6.10625 7.94609C5.85938 7.45234 6.05937 6.85234 6.55312 6.60547L11.5531 4.10547ZM13.8281 17.9992L12 16.4742L10.1719 17.9992H13.8281ZM10.1813 11.9992L10.0344 12.8836L12 14.5242L13.9656 12.8836L13.8188 11.9992H10.1813ZM9.74687 14.5992L9.39687 16.693L10.8281 15.4992L9.74687 14.5992ZM13.1719 15.4992L14.6031 16.6898L14.2531 14.5961L13.1719 15.4992ZM9.5 7.99922C9.225 7.99922 9 8.22422 9 8.49922C9 8.77422 9.225 8.99922 9.5 8.99922H14.5C14.775 8.99922 15 8.77422 15 8.49922C15 8.22422 14.775 7.99922 14.5 7.99922H9.5Z" fill="black"/>
</svg>
