<svg width="24" height="24" viewBox="0 0 24 24" fill="none" xmlns="http://www.w3.org/2000/svg">
<path d="M3.21243 4.15943C2.88743 3.90318 2.41556 3.96255 2.15931 4.28755C1.90306 4.61255 1.96243 5.08443 2.28743 5.34068L20.7874 19.8407C21.1124 20.0969 21.5843 20.0376 21.8406 19.7126C22.0968 19.3876 22.0374 18.9157 21.7124 18.6594L19.9999 17.3157V14.7219C19.6906 15.3313 19.2749 15.9157 18.7531 16.3407L17.9374 15.7001C18.6437 15.2376 19.2312 14.2626 19.5968 13.0001C19.8531 12.1188 19.9968 11.0938 19.9968 10.0001C19.9999 6.68755 18.6562 4.00005 16.9999 4.00005C16.6499 4.00005 16.3124 4.1188 15.9999 4.34068C14.8343 5.16568 13.9999 7.38755 13.9999 10.0001C13.9999 11.0563 14.1374 12.0469 14.3749 12.9094L13.1468 11.9469C13.0499 11.3251 12.9999 10.6719 12.9999 10.0001C12.9999 8.22193 13.3593 6.56255 13.9843 5.30943C14.2187 4.84068 14.5187 4.3813 14.8812 4.00005H6.99993C6.22493 4.00005 5.51868 4.58755 4.98743 5.55005L3.21243 4.15943ZM18.4999 20.0001L14.6937 17.0001H8.99993V18.5001C8.99993 19.3282 9.67181 20.0001 10.4999 20.0001H18.4999ZM3.99993 10.0001C3.99993 13.3126 5.34368 16.0001 6.99993 16.0001H13.4218L4.07806 8.63755C4.02806 9.07505 3.99993 9.5313 3.99993 10.0001ZM16.9999 12.0001C16.4468 12.0001 15.9999 11.1032 15.9999 10.0001C15.9999 8.89693 16.4468 8.00005 16.9999 8.00005C17.5531 8.00005 17.9999 8.89693 17.9999 10.0001C17.9999 11.1032 17.5531 12.0001 16.9999 12.0001Z" fill="black"/>
</svg>
