<svg width="24" height="24" viewBox="0 0 24 24" fill="none" xmlns="http://www.w3.org/2000/svg">
<path d="M7.71247 5.5C7.33122 5.5 6.97497 5.67188 6.73747 5.96875L6.33434 6.46875C6.07809 6.79063 5.60622 6.84375 5.28122 6.58437C4.95622 6.325 4.90622 5.85625 5.16559 5.53125L5.56247 5.03125C6.08434 4.38125 6.87497 4 7.71247 4H16.2875C17.1218 4 17.9125 4.38125 18.4343 5.03125L18.8343 5.53125C19.0937 5.85625 19.0406 6.32812 18.7156 6.58437C18.3906 6.84062 17.9187 6.79063 17.6625 6.46875L17.2656 5.96875C17.0281 5.67188 16.6687 5.5 16.2906 5.5H12.75V7H14C15.6562 7 17 8.34375 17 10V15C17 15.9563 16.5531 16.8062 15.8562 17.3562L17.9031 19.4031C18.125 19.625 17.9687 20 17.6562 20H16.4156C16.15 20 15.8968 19.8938 15.7093 19.7063L14 18H9.99997L8.29372 19.7063C8.10622 19.8938 7.85309 20 7.58747 20H6.34372C6.03122 20 5.87497 19.6219 6.09684 19.4031L8.14372 17.3562C7.44684 16.8062 6.99997 15.9563 6.99997 15V10C6.99997 8.34375 8.34372 7 9.99997 7H11.25V5.5H7.71247ZM9.99997 9C9.44684 9 8.99997 9.44687 8.99997 10V11C8.99997 11.5531 9.44684 12 9.99997 12H14C14.5531 12 15 11.5531 15 11V10C15 9.44687 14.5531 9 14 9H9.99997ZM11 15C11 14.7348 10.8946 14.4804 10.7071 14.2929C10.5195 14.1054 10.2652 14 9.99997 14C9.73475 14 9.4804 14.1054 9.29286 14.2929C9.10533 14.4804 8.99997 14.7348 8.99997 15C8.99997 15.2652 9.10533 15.5196 9.29286 15.7071C9.4804 15.8946 9.73475 16 9.99997 16C10.2652 16 10.5195 15.8946 10.7071 15.7071C10.8946 15.5196 11 15.2652 11 15ZM14 16C14.2652 16 14.5195 15.8946 14.7071 15.7071C14.8946 15.5196 15 15.2652 15 15C15 14.7348 14.8946 14.4804 14.7071 14.2929C14.5195 14.1054 14.2652 14 14 14C13.7348 14 13.4804 14.1054 13.2929 14.2929C13.1053 14.4804 13 14.7348 13 15C13 15.2652 13.1053 15.5196 13.2929 15.7071C13.4804 15.8946 13.7348 16 14 16Z" fill="black"/>
</svg>
