<svg width="24" height="24" viewBox="0 0 24 24" fill="none" xmlns="http://www.w3.org/2000/svg">
<path d="M4 5C2.89688 5 2 5.89688 2 7V13.5V16V16.5C2 17.8813 3.11875 19 4.5 19C5.31875 19 6.04375 18.6062 6.5 18C6.95625 18.6062 7.68125 19 8.5 19C9.88125 19 11 17.8813 11 16.5C11 16.3281 10.9812 16.1625 10.95 16H15H16.05C16.0188 16.1625 16 16.3281 16 16.5C16 17.8813 17.1187 19 18.5 19C19.8813 19 21 17.8813 21 16.5C21 16.3281 20.9813 16.1625 20.95 16H21C21.5531 16 22 15.5531 22 15V13V12.5V12.1781C22 11.8906 21.9 11.6094 21.7188 11.3875L19.8813 9.14375C19.55 8.7375 19.0531 8.50313 18.5281 8.50313H17V7C17 5.89688 16.1031 5 15 5H4ZM20.2812 12H17V10H18.525C18.6 10 18.6719 10.0344 18.7188 10.0906L20.2812 12ZM18.5 15.5C18.7652 15.5 19.0196 15.6054 19.2071 15.7929C19.3946 15.9804 19.5 16.2348 19.5 16.5C19.5 16.7652 19.3946 17.0196 19.2071 17.2071C19.0196 17.3946 18.7652 17.5 18.5 17.5C18.2348 17.5 17.9804 17.3946 17.7929 17.2071C17.6054 17.0196 17.5 16.7652 17.5 16.5C17.5 16.2348 17.6054 15.9804 17.7929 15.7929C17.9804 15.6054 18.2348 15.5 18.5 15.5ZM7.5 16.5C7.5 16.2348 7.60536 15.9804 7.79289 15.7929C7.98043 15.6054 8.23478 15.5 8.5 15.5C8.76522 15.5 9.01957 15.6054 9.20711 15.7929C9.39464 15.9804 9.5 16.2348 9.5 16.5C9.5 16.7652 9.39464 17.0196 9.20711 17.2071C9.01957 17.3946 8.76522 17.5 8.5 17.5C8.23478 17.5 7.98043 17.3946 7.79289 17.2071C7.60536 17.0196 7.5 16.7652 7.5 16.5ZM4.5 15.5C4.76522 15.5 5.01957 15.6054 5.20711 15.7929C5.39464 15.9804 5.5 16.2348 5.5 16.5C5.5 16.7652 5.39464 17.0196 5.20711 17.2071C5.01957 17.3946 4.76522 17.5 4.5 17.5C4.23478 17.5 3.98043 17.3946 3.79289 17.2071C3.60536 17.0196 3.5 16.7652 3.5 16.5C3.5 16.2348 3.60536 15.9804 3.79289 15.7929C3.98043 15.6054 4.23478 15.5 4.5 15.5Z" fill="black"/>
</svg>
