<svg width="24" height="24" viewBox="0 0 24 24" fill="none" xmlns="http://www.w3.org/2000/svg">
<path d="M4.19375 7.79375L7.57812 4.18125C7.6875 4.06563 7.84062 4 8 4C8.15938 4 8.3125 4.06563 8.42188 4.18125L11.8062 7.79375C11.9312 7.92813 12 8.10313 12 8.28438C12 8.68125 11.6781 9 11.2844 9H10.5L12.8313 11.7969C12.9406 11.9281 13 12.0938 13 12.2656C13 12.6719 12.6719 13 12.2656 13H11.5L13.8313 15.7969C13.9406 15.9281 14 16.0938 14 16.2656C14 16.6719 13.6719 17 13.2656 17H9V19C9 19.5531 8.55312 20 8 20C7.44688 20 7 19.5531 7 19V17H2.73438C2.32812 17 2 16.6719 2 16.2656C2 16.0938 2.05938 15.9281 2.16875 15.7969L4.5 13H3.73438C3.32812 13 3 12.6719 3 12.2656C3 12.0938 3.05938 11.9281 3.16875 11.7969L5.5 9H4.71563C4.32188 9 4 8.67813 4 8.28438C4 8.10313 4.06875 7.92813 4.19375 7.79375ZM12.675 7.28125L15.5781 4.18125C15.6875 4.06563 15.8406 4 16 4C16.1594 4 16.3125 4.06563 16.4219 4.18125L19.8062 7.79375C19.9312 7.92813 20 8.10313 20 8.28438C20 8.68125 19.6781 9 19.2844 9H18.5L20.8312 11.7969C20.9406 11.9281 21 12.0938 21 12.2656C21 12.6719 20.6719 13 20.2656 13H19.5L21.8312 15.7969C21.9406 15.9281 22 16.0938 22 16.2656C22 16.6719 21.6719 17 21.2656 17H17V19C17 19.5531 16.5531 20 16 20C15.4469 20 15 19.5531 15 19V17V16.2688V16.2656V16.2625V16.25C14.9969 15.85 14.8531 15.4625 14.5969 15.1562L13.3281 13.6344C13.7344 13.3156 13.9969 12.8219 13.9969 12.2656C13.9969 11.8594 13.8531 11.4656 13.5938 11.1562L12.3313 9.64062C12.7344 9.32812 12.9969 8.83438 12.9969 8.28438C12.9969 7.92188 12.8813 7.57188 12.6719 7.28125H12.675Z" fill="black"/>
</svg>
