<svg width="24" height="24" viewBox="0 0 24 24" fill="none" xmlns="http://www.w3.org/2000/svg">
<path d="M12.8 7.39999C12.5406 7.05624 12.0906 6.91561 11.6844 7.04999C11.2781 7.18436 11 7.56874 11 7.99999V16C11 16.5531 11.4469 17 12 17C12.5531 17 13 16.5531 13 16V11L15.7 14.6C15.8875 14.8531 16.1844 15 16.5 15C16.8156 15 17.1125 14.8531 17.3 14.6L20 11V16C20 16.5531 20.4469 17 21 17C21.5531 17 22 16.5531 22 16V7.99999C22 7.56874 21.725 7.18749 21.3156 7.04999C20.9062 6.91249 20.4563 7.05311 20.2 7.39999L16.5 12.3344L12.8 7.39999ZM2 7.99999C2 8.55311 2.44687 8.99999 3 8.99999H5V16C5 16.5531 5.44687 17 6 17C6.55313 17 7 16.5531 7 16V8.99999H9C9.55313 8.99999 10 8.55311 10 7.99999C10 7.44686 9.55313 6.99999 9 6.99999H3C2.44687 6.99999 2 7.44686 2 7.99999Z" fill="black"/>
</svg>
