<svg width="24" height="24" viewBox="0 0 24 24" fill="none" xmlns="http://www.w3.org/2000/svg">
<path d="M9.00014 9.00002C9.00014 6.9969 10.9251 4.99377 11.6908 4.27815C11.8658 4.11252 12.1314 4.11252 12.3095 4.27815C13.0751 4.9969 15.0001 6.9969 15.0001 9.00002C15.0001 9.49065 14.8845 9.95002 14.6751 10.3594C15.1814 10.3594 15.6939 10.4906 16.1658 10.7625C17.9001 11.7625 18.672 14.4313 18.9095 15.4563C18.9658 15.6906 18.8314 15.9219 18.6001 15.9907C17.597 16.2938 14.9001 16.9625 13.1658 15.9594C12.647 15.6594 12.2533 15.2313 11.997 14.7344C11.7439 15.2313 11.347 15.6594 10.8283 15.9594C9.09389 16.9594 6.39701 16.2938 5.39389 15.9907C5.16264 15.9219 5.03139 15.6906 5.08451 15.4563C5.32201 14.4344 6.09389 11.7656 7.82826 10.7625C8.30014 10.4906 8.81576 10.3594 9.32201 10.3594C9.11576 9.95002 9.00014 9.49065 9.00014 9.00002ZM13.2501 11.5C13.2501 11.1685 13.1184 10.8506 12.884 10.6161C12.6496 10.3817 12.3317 10.25 12.0001 10.25C11.6686 10.25 11.3507 10.3817 11.1163 10.6161C10.8818 10.8506 10.7501 11.1685 10.7501 11.5C10.7501 11.8315 10.8818 12.1495 11.1163 12.3839C11.3507 12.6183 11.6686 12.75 12.0001 12.75C12.3317 12.75 12.6496 12.6183 12.884 12.3839C13.1184 12.1495 13.2501 11.8315 13.2501 11.5ZM16.0001 9.00002C16.0001 8.6094 15.9439 8.22502 15.8501 7.85627C17.0564 7.45627 17.9814 7.4844 18.4439 7.54377C18.9095 7.60315 19.1845 8.07815 19.0033 8.51252C18.8283 8.92815 18.4095 9.71252 17.5126 10.5313C17.2595 10.2906 16.9783 10.075 16.6689 9.8969C16.4408 9.76565 16.2033 9.6594 15.9626 9.57502C15.9908 9.38752 16.0033 9.1969 16.0033 9.00002H16.0001ZM8.15014 7.85627C8.05639 8.22502 8.00014 8.6094 8.00014 9.00002C8.00014 9.19377 8.01264 9.3844 8.04076 9.5719C7.79701 9.65627 7.55951 9.76252 7.33139 9.89377C7.02201 10.0719 6.74389 10.2875 6.49076 10.525C5.59389 9.7094 5.17514 8.92502 5.00014 8.5094C4.81889 8.07815 5.09389 7.60002 5.55951 7.54065C6.01889 7.48127 6.94701 7.45315 8.15326 7.85315L8.15014 7.85627ZM10.4408 17.2125C10.747 17.1156 11.047 16.9875 11.3314 16.8219C11.5751 16.6813 11.797 16.5188 12.0001 16.3406C12.2033 16.5219 12.4251 16.6844 12.6689 16.8219C12.9564 16.9875 13.2564 17.1156 13.5626 17.2125C13.3064 18.3406 12.8564 19.1375 12.5939 19.5313C12.3095 19.9594 11.6939 19.9594 11.4095 19.5313C11.1501 19.1375 10.697 18.3375 10.4408 17.2094V17.2125Z" fill="black"/>
</svg>
