<svg width="24" height="24" viewBox="0 0 24 24" fill="none" xmlns="http://www.w3.org/2000/svg">
<path d="M13.0781 5.61875C12.8531 5.23437 12.4438 5 12 5C11.5563 5 11.1469 5.23437 10.9219 5.61875L4.17188 17.1187C3.94376 17.5062 3.94376 17.9844 4.16563 18.3719C4.38751 18.7594 4.80313 19 5.25001 19H18.75C19.1969 19 19.6125 18.7594 19.8344 18.3719C20.0563 17.9844 20.0531 17.5031 19.8281 17.1187L13.0781 5.61875ZM8.77813 13.5219L9.26563 13.8281L11.2656 15.0781C11.4125 15.1687 11.5 15.3313 11.5 15.5031V16.5031C11.5 16.7781 11.275 17.0031 11 17.0031C10.725 17.0031 10.5 16.7781 10.5 16.5031V15.7781L9.22188 14.9812L8.45626 16.7063C8.34376 16.9594 8.05001 17.0719 7.79688 16.9594C7.54376 16.8469 7.43126 16.5531 7.54376 16.3L8.54376 14.05L8.77813 13.525V13.5219ZM12.2781 12.0938L12.8938 13.6313L14.5625 14.5938L15.0719 13.7437C15.1625 13.5938 15.325 13.5 15.5 13.5C15.675 13.5 15.8375 13.5906 15.9281 13.7437L17.4281 16.2437C17.5219 16.3969 17.5219 16.5906 17.4344 16.7469C17.3469 16.9031 17.1781 17 17 17H14C13.8188 17 13.6531 16.9031 13.5656 16.7469C13.4781 16.5906 13.4781 16.3969 13.5719 16.2437L14.0469 15.45L9.25001 12.6844C9.13126 12.6156 9.04376 12.5 9.01251 12.3656C8.98126 12.2313 9.00626 12.0906 9.08438 11.975L9.21563 11.775C9.53751 11.2906 10.0813 11 10.6625 11C11.3719 11 12.0125 11.4312 12.275 12.0906L12.2781 12.0938ZM11 9.75C11 9.55109 11.079 9.36032 11.2197 9.21967C11.3603 9.07902 11.5511 9 11.75 9C11.9489 9 12.1397 9.07902 12.2803 9.21967C12.421 9.36032 12.5 9.55109 12.5 9.75C12.5 9.94891 12.421 10.1397 12.2803 10.2803C12.1397 10.421 11.9489 10.5 11.75 10.5C11.5511 10.5 11.3603 10.421 11.2197 10.2803C11.079 10.1397 11 9.94891 11 9.75Z" fill="black"/>
</svg>
