<svg width="24" height="24" viewBox="0 0 24 24" fill="none" xmlns="http://www.w3.org/2000/svg">
<path d="M16.9375 9.54688C17.0562 9.27187 17 8.95312 16.7937 8.73438L12.5437 4.23438C12.4031 4.08437 12.2062 4 12 4C11.7937 4 11.5969 4.08437 11.4562 4.23438L7.20624 8.73438C6.99999 8.95312 6.94374 9.27187 7.06249 9.54688C7.18124 9.82188 7.44999 10 7.74999 10H9.99999V19C9.99999 19.5531 10.4469 20 11 20H13C13.5531 20 14 19.5531 14 19V10H16.25C16.55 10 16.8187 9.82188 16.9375 9.54688Z" fill="black"/>
</svg>
