<svg width="24" height="24" viewBox="0 0 24 24" fill="none" xmlns="http://www.w3.org/2000/svg">
<path d="M9 4C10.0609 4 11.0783 4.42143 11.8284 5.17157C12.5786 5.92172 13 6.93913 13 8C13 9.06087 12.5786 10.0783 11.8284 10.8284C11.0783 11.5786 10.0609 12 9 12C7.93913 12 6.92172 11.5786 6.17157 10.8284C5.42143 10.0783 5 9.06087 5 8C5 6.93913 5.42143 5.92172 6.17157 5.17157C6.92172 4.42143 7.93913 4 9 4ZM7.57188 13.5H10.4281C11.0719 13.5 11.6906 13.6094 12.2656 13.8094C12.0938 14.3438 12 14.9094 12 15.5C12 17.3594 12.9219 19.0031 14.3375 20H2.92813C2.41563 20 2 19.5844 2 19.0719C2 15.9937 4.49375 13.5 7.57188 13.5ZM13 15.5C13 14.3065 13.4741 13.1619 14.318 12.318C15.1619 11.4741 16.3065 11 17.5 11C18.6935 11 19.8381 11.4741 20.682 12.318C21.5259 13.1619 22 14.3065 22 15.5C22 16.6935 21.5259 17.8381 20.682 18.682C19.8381 19.5259 18.6935 20 17.5 20C16.3065 20 15.1619 19.5259 14.318 18.682C13.4741 17.8381 13 16.6935 13 15.5ZM17.5 13C17.225 13 17 13.225 17 13.5V15.5C17 15.775 17.225 16 17.5 16H19C19.275 16 19.5 15.775 19.5 15.5C19.5 15.225 19.275 15 19 15H18V13.5C18 13.225 17.775 13 17.5 13Z" fill="black"/>
</svg>
