<svg width="24" height="24" viewBox="0 0 24 24" fill="none" xmlns="http://www.w3.org/2000/svg">
<path d="M14.5 8V8.5C14.5 9.88125 13.3813 11 12 11C10.6188 11 9.5 9.88125 9.5 8.5V8C9.5 7.82812 9.51875 7.6625 9.55 7.5H10.5C11.4313 7.5 12.2469 6.99062 12.675 6.23438C13.0406 6.7 13.6094 7 14.25 7H14.2906C14.425 7.30625 14.5 7.64375 14.5 8ZM8 8V8.5C8 10.7094 9.79063 12.5 12 12.5C14.2094 12.5 16 10.7094 16 8.5V8C16 5.79063 14.2094 4 12 4C9.79063 4 8 5.79063 8 8ZM9.91563 14.2219C9.81563 14.0875 9.65313 14.0125 9.4875 14.0281C6.96563 14.3031 5 16.4437 5 19.0406C5 19.5719 5.43125 20 5.95938 20H18.0406C18.5719 20 19 19.5687 19 19.0406C19 16.4437 17.0344 14.3062 14.5094 14.0312C14.3438 14.0125 14.1813 14.0906 14.0813 14.225L12.3969 16.4688C12.1969 16.7344 11.7969 16.7344 11.5969 16.4688L9.9125 14.225L9.91563 14.2219Z" fill="black"/>
</svg>
