<svg width="24" height="24" viewBox="0 0 24 24" fill="none" xmlns="http://www.w3.org/2000/svg">
<path d="M7 9.21875C7 6.3375 9.2375 4 12 4C14.7625 4 17 6.3375 17 9.21875C17 12.375 13.6687 15 12.65 15.7281C12.4594 15.8625 12.2312 15.9312 12 15.9312C11.7688 15.9312 11.5406 15.8656 11.35 15.7281C10.3313 15 7 12.3781 7 9.21875ZM14.6438 9.5C13.4594 9.5 12.5 10.4594 12.5 11.6438C12.5 11.8406 12.6594 12 12.8562 12H13.3562C14.5406 12 15.5 11.0406 15.5 9.85625C15.5 9.65937 15.3406 9.5 15.1438 9.5H14.6438ZM11.5 11.6438C11.5 10.4594 10.5406 9.5 9.35625 9.5H8.85625C8.65937 9.5 8.5 9.65937 8.5 9.85625C8.5 11.0406 9.45938 12 10.6438 12H11.1438C11.3406 12 11.5 11.8406 11.5 11.6438ZM5 19.2C5 16.9688 6.74062 15.1437 8.94062 15.0094C9.68437 15.7344 10.3813 16.2656 10.7688 16.5437C11.1438 16.8125 11.5781 16.9312 12 16.9312C12.4219 16.9312 12.8562 16.8125 13.2312 16.5437C13.6187 16.2688 14.3156 15.7375 15.0594 15.0094C17.2594 15.1437 19 16.9688 19 19.2C19 19.6406 18.6406 20 18.2 20H5.8C5.35938 20 5 19.6406 5 19.2Z" fill="black"/>
</svg>
