<svg width="24" height="24" viewBox="0 0 24 24" fill="none" xmlns="http://www.w3.org/2000/svg">
<path d="M16.5 6.5H9C8.59688 6.5 8.23125 6.74375 8.075 7.11875C7.91875 7.49375 8.00625 7.92187 8.29063 8.20937L10.5406 10.4594L6.35313 14.6469C6.12813 14.8719 6 15.1813 6 15.5C6 15.8187 6.12813 16.1281 6.35313 16.3531L7.64688 17.6469C7.87188 17.8719 8.18125 18 8.5 18C8.81875 18 9.12813 17.8719 9.35313 17.6469L13.5437 13.4563L15.7937 15.7063C16.0812 15.9938 16.5094 16.0781 16.8844 15.9219C17.2594 15.7656 17.5031 15.4031 17.5031 14.9969V7.5C17.5031 6.94687 17.0563 6.5 16.5031 6.5H16.5Z" fill="black"/>
</svg>
