<svg width="24" height="24" viewBox="0 0 24 24" fill="none" xmlns="http://www.w3.org/2000/svg">
<path d="M12 4C12.5531 4 13 4.44687 13 5V5.0625C16.6187 5.5125 19.4875 8.38125 19.9375 12.0031C20.0062 12.55 19.55 13 19 13H4.99996C4.44684 13 3.99371 12.55 4.06246 12.0031C4.51246 8.38125 7.38121 5.5125 11 5.0625V5C11 4.44687 11.4468 4 12 4ZM13 17.4563C13 18.8625 11.8593 20 10.4562 20C9.49371 20 8.61246 19.4563 8.18121 18.5938L8.10934 18.4469C7.86246 17.9531 8.06246 17.3531 8.55621 17.1062C9.04996 16.8594 9.64996 17.0594 9.89684 17.5531L9.96871 17.7C10.0625 17.8844 10.25 18 10.4562 18C10.7562 18 11 17.7563 11 17.4563V14H13V17.4563Z" fill="black"/>
</svg>
