<svg width="24" height="24" viewBox="0 0 24 24" fill="none" xmlns="http://www.w3.org/2000/svg">
<path d="M6.5 9C7.16304 9 7.79893 8.73661 8.26777 8.26777C8.73661 7.79893 9 7.16304 9 6.5C9 5.83696 8.73661 5.20107 8.26777 4.73223C7.79893 4.26339 7.16304 4 6.5 4C5.83696 4 5.20107 4.26339 4.73223 4.73223C4.26339 5.20107 4 5.83696 4 6.5C4 7.16304 4.26339 7.79893 4.73223 8.26777C5.20107 8.73661 5.83696 9 6.5 9ZM18 9C18.663 9 19.2989 8.73661 19.7678 8.26777C20.2366 7.79893 20.5 7.16304 20.5 6.5C20.5 5.83696 20.2366 5.20107 19.7678 4.73223C19.2989 4.26339 18.663 4 18 4C17.337 4 16.7011 4.26339 16.2322 4.73223C15.7634 5.20107 15.5 5.83696 15.5 6.5C15.5 7.16304 15.7634 7.79893 16.2322 8.26777C16.7011 8.73661 17.337 9 18 9ZM2 13.3344C2 13.7 2.3 14 2.66562 14H9.33437C9.34062 14 9.34687 14 9.35625 14C8.525 13.2656 8.00313 12.1938 8.00313 11C8.00313 10.7625 8.025 10.5312 8.0625 10.3031C7.6375 10.1062 7.16562 10 6.66875 10H5.33437C3.49375 10 2 11.4938 2 13.3344ZM12 14C12.75 14 13.4344 13.725 13.9594 13.2719C14.0375 13.1562 14.1219 13.0437 14.2094 12.9375C14.2938 12.8344 14.3875 12.7469 14.4906 12.6781C14.8125 12.1969 15 11.6219 15 11C15 9.34375 13.6562 8 12 8C10.3438 8 9 9.34375 9 11C9 12.6562 10.3438 14 12 14ZM14.0437 15.8813C13.7219 15.6969 13.4781 15.375 13.3938 15H10.1656C7.86562 15 6 16.8656 6 19.1656C6 19.625 6.37187 20 6.83437 20H16.225C16.1594 19.8375 16.125 19.6594 16.125 19.4875V19.3938C16.0844 19.3719 16.0406 19.3469 16 19.3219L15.9187 19.3687C15.3938 19.6719 14.6531 19.6188 14.2094 19.0656C14.0688 18.8906 13.9406 18.7063 13.8219 18.5156L13.8188 18.5094L13.8156 18.5031L13.7406 18.375L13.7375 18.3687L13.7344 18.3625C13.6281 18.1687 13.5344 17.9688 13.4531 17.7594C13.1969 17.0969 13.5219 16.4281 14.0469 16.125L14.1313 16.0781C14.1313 16.0531 14.1313 16.0312 14.1313 16.0063C14.1313 15.9813 14.1313 15.9594 14.1313 15.9344L14.0469 15.8875L14.0437 15.8813ZM18.6656 10H17.3344C16.8375 10 16.3656 10.1094 15.9406 10.3031C15.9812 10.5281 16 10.7625 16 11C16 11.5437 15.8906 12.0594 15.6969 12.5312C15.775 12.5594 15.85 12.5938 15.9187 12.6344L16 12.6812C16.0406 12.6562 16.0813 12.6313 16.125 12.6094V12.5156C16.125 11.9094 16.5406 11.2937 17.2437 11.1844C17.4906 11.1469 17.7437 11.125 18 11.125C18.2563 11.125 18.5094 11.1437 18.7563 11.1844C19.4594 11.2937 19.875 11.9094 19.875 12.5156V12.6094C19.9156 12.6313 19.9594 12.6562 20 12.6812L20.0812 12.6344C20.6062 12.3312 21.3469 12.3844 21.7906 12.9375C21.8625 13.025 21.9313 13.1188 21.9969 13.2094C21.9313 11.425 20.4656 10 18.6656 10ZM21.5187 15.1219C21.7156 15.0094 21.8156 14.775 21.7313 14.5594C21.6656 14.3875 21.5875 14.2219 21.5 14.0625L21.4281 13.9375C21.3313 13.7781 21.225 13.6281 21.1094 13.4844C20.9656 13.3062 20.7125 13.275 20.5156 13.3906L20.425 13.4438C20.1375 13.6094 19.7875 13.5687 19.5 13.4031C19.2125 13.2375 18.9969 12.95 18.9969 12.6187V12.5125C18.9969 12.2844 18.8438 12.0813 18.6187 12.0469C18.4156 12.0156 18.2094 12 17.9969 12C17.7844 12 17.5781 12.0156 17.375 12.0469C17.15 12.0813 16.9969 12.2844 16.9969 12.5125V12.6187C16.9969 12.95 16.7812 13.2375 16.4937 13.4031C16.2062 13.5687 15.8563 13.6094 15.5688 13.4438L15.4781 13.3906C15.2812 13.2781 15.0281 13.3094 14.8844 13.4844C14.7687 13.6281 14.6625 13.7812 14.5656 13.9406L14.4937 14.0625C14.4062 14.2219 14.3281 14.3875 14.2625 14.5594C14.1812 14.7719 14.2781 15.0062 14.475 15.1187L14.5656 15.1719C14.8531 15.3375 14.9937 15.6656 14.9937 15.9969C14.9937 16.3281 14.8531 16.6562 14.5656 16.8219L14.4719 16.875C14.275 16.9875 14.175 17.2219 14.2594 17.4344C14.325 17.6062 14.4031 17.7688 14.4906 17.9281L14.5656 18.0562C14.6594 18.2156 14.7656 18.3656 14.8813 18.5094C15.025 18.6875 15.2781 18.7188 15.475 18.6031L15.5656 18.55C15.8531 18.3844 16.2031 18.425 16.4906 18.5906C16.7781 18.7562 16.9937 19.0437 16.9937 19.375V19.4812C16.9937 19.7094 17.1469 19.9125 17.3719 19.9469C17.575 19.9781 17.7812 19.9937 17.9937 19.9937C18.2062 19.9937 18.4125 19.9781 18.6156 19.9469C18.8406 19.9125 18.9937 19.7094 18.9937 19.4812V19.375C18.9937 19.0437 19.2094 18.7562 19.4969 18.5906C19.7844 18.425 20.1344 18.3844 20.4219 18.55L20.5125 18.6031C20.7094 18.7156 20.9625 18.6844 21.1063 18.5094C21.2219 18.3656 21.3281 18.2156 21.4219 18.0562L21.4969 17.925C21.5844 17.7656 21.6625 17.6031 21.7281 17.4312C21.8094 17.2188 21.7125 16.9844 21.5156 16.8719L21.4219 16.8188C21.1344 16.6531 20.9937 16.325 20.9937 15.9937C20.9937 15.6625 21.1344 15.3344 21.4219 15.1687L21.5156 15.1156L21.5187 15.1219ZM16.75 16C16.75 15.6685 16.8817 15.3505 17.1161 15.1161C17.3505 14.8817 17.6685 14.75 18 14.75C18.3315 14.75 18.6495 14.8817 18.8839 15.1161C19.1183 15.3505 19.25 15.6685 19.25 16C19.25 16.3315 19.1183 16.6495 18.8839 16.8839C18.6495 17.1183 18.3315 17.25 18 17.25C17.6685 17.25 17.3505 17.1183 17.1161 16.8839C16.8817 16.6495 16.75 16.3315 16.75 16Z" fill="black"/>
</svg>
