<svg width="24" height="24" viewBox="0 0 24 24" fill="none" xmlns="http://www.w3.org/2000/svg">
<path d="M7.18438 9.79375L11.2031 5.33125C11.3937 5.12187 11.6625 5 11.9469 5H12.0563C12.3406 5 12.6094 5.12187 12.8 5.33125L16.8156 9.79375C16.9344 9.925 17 10.1 17 10.2781C17 10.6781 16.675 11 16.2781 11H14V15C14 15.5531 13.5531 16 13 16H11C10.4469 16 10 15.5531 10 15V11H7.72187C7.325 11 7 10.675 7 10.2781C7 10.1 7.06563 9.92812 7.18438 9.79375ZM7 17H17C17.5531 17 18 17.4469 18 18C18 18.5531 17.5531 19 17 19H7C6.44687 19 6 18.5531 6 18C6 17.4469 6.44687 17 7 17Z" fill="black"/>
</svg>
