<svg width="24" height="24" viewBox="0 0 24 24" fill="none" xmlns="http://www.w3.org/2000/svg">
<path d="M9 12C10.0609 12 11.0783 11.5786 11.8284 10.8284C12.5786 10.0783 13 9.06087 13 8C13 6.93913 12.5786 5.92172 11.8284 5.17157C11.0783 4.42143 10.0609 4 9 4C7.93913 4 6.92172 4.42143 6.17157 5.17157C5.42143 5.92172 5 6.93913 5 8C5 9.06087 5.42143 10.0783 6.17157 10.8284C6.92172 11.5786 7.93913 12 9 12ZM7.57188 13.5C4.49375 13.5 2 15.9937 2 19.0719C2 19.5844 2.41563 20 2.92813 20H15.0719C15.3844 20 15.6594 19.8469 15.8281 19.6094L12.7281 16.5094C12.2625 16.0437 12 15.4125 12 14.7563V13.725C11.5031 13.5781 10.975 13.5 10.4281 13.5H7.57188ZM14 11C13.4469 11 13 11.4469 13 12V14.5844C13 15.1156 13.2094 15.625 13.5844 16L16.9406 19.3531C17.525 19.9375 18.475 19.9375 19.0625 19.3531L21.3563 17.0594C21.9406 16.475 21.9406 15.525 21.3563 14.9375L18 11.5844C17.625 11.2094 17.1156 11 16.5844 11H14ZM14.75 13.5C14.75 13.3011 14.829 13.1103 14.9697 12.9697C15.1103 12.829 15.3011 12.75 15.5 12.75C15.6989 12.75 15.8897 12.829 16.0303 12.9697C16.171 13.1103 16.25 13.3011 16.25 13.5C16.25 13.6989 16.171 13.8897 16.0303 14.0303C15.8897 14.171 15.6989 14.25 15.5 14.25C15.3011 14.25 15.1103 14.171 14.9697 14.0303C14.829 13.8897 14.75 13.6989 14.75 13.5Z" fill="black"/>
</svg>
