<svg width="24" height="24" viewBox="0 0 24 24" fill="none" xmlns="http://www.w3.org/2000/svg">
<path d="M16.6906 13.1906L12.8531 9.35313C12.6281 9.12813 12.3187 9 12 9C11.6813 9 11.3719 9.12813 11.1469 9.35313L7.30938 13.1906C7.10938 13.3906 7 13.6594 7 13.9406C7 14.525 7.475 15 8.05938 15H10V19C10 19.5531 10.4469 20 11 20H13C13.5531 20 14 19.5531 14 19V15H15.9406C16.525 15 17 14.525 17 13.9406C17 13.6594 16.8875 13.3906 16.6906 13.1906ZM7 9V7C7 6.44688 7.44688 6 8 6H16C16.5531 6 17 6.44688 17 7V9C17 9.55312 17.4469 10 18 10C18.5531 10 19 9.55312 19 9V7C19 5.34375 17.6562 4 16 4H8C6.34375 4 5 5.34375 5 7V9C5 9.55312 5.44687 10 6 10C6.55313 10 7 9.55312 7 9Z" fill="black"/>
</svg>
