<svg width="24" height="24" viewBox="0 0 24 24" fill="none" xmlns="http://www.w3.org/2000/svg">
<path d="M6.5 8.5V8H11.5V8.5C11.5 9.88125 10.3813 11 9 11C7.61875 11 6.5 9.88125 6.5 8.5ZM6.49687 4.59688C6.4875 4.59062 6.47813 4.58438 6.47188 4.57812L6.375 4.5L5.8875 4.10938C5.79688 4.0375 5.6875 4 5.575 4H5.5C5.225 4 5 4.225 5 4.5V5.21875V5.31875V5.32187V8.5C5 10.7094 6.79063 12.5 9 12.5C11.2094 12.5 13 10.7094 13 8.5V5.32187V5.31875V5.21875V4.5C13 4.225 12.775 4 12.5 4H12.425C12.3125 4 12.2 4.0375 12.1125 4.10938L11.625 4.5L11.5312 4.575C11.5219 4.58125 11.5125 4.5875 11.5063 4.59375L11.5031 4.59688C11.1844 4.83125 10.7594 4.85625 10.4125 4.65938L9.46562 4.125C9.32187 4.04375 9.1625 4 9 4C8.8375 4 8.675 4.04375 8.53438 4.125L7.59062 4.6625C7.24687 4.85938 6.81875 4.83438 6.5 4.6L6.49687 4.59688ZM7.25 13.5C4.35 13.5 2 15.85 2 18.75V19C2 19.5531 2.44687 20 3 20H15C15.5531 20 16 19.5531 16 19V18.75C16 15.85 13.65 13.5 10.75 13.5H7.25ZM15.5 12C17.4344 12 19 10.4344 19 8.5C19 6.56562 17.4344 5 15.5 5C14.9625 5 14.4531 5.12187 14 5.3375V8.5C14 8.66875 13.9906 8.83437 13.975 9C13.9 9.75938 13.6531 10.4719 13.275 11.0938C13.2594 11.1188 13.2437 11.1438 13.2312 11.1656C13.8438 11.6844 14.6344 12 15.5 12ZM16.7312 20H21.0406C21.5719 20 22 19.5687 22 19.0406C22 16.2562 19.7437 14 16.9594 14H15.0406C14.9656 14 14.8906 14.0031 14.8188 14.0063C16.1531 15.15 17 16.8531 17 18.75V19C17 19.3656 16.9031 19.7063 16.7312 20Z" fill="black"/>
</svg>
