<svg width="24" height="24" viewBox="0 0 24 24" fill="none" xmlns="http://www.w3.org/2000/svg">
<path d="M9 12C10.0609 12 11.0783 11.5786 11.8284 10.8284C12.5786 10.0783 13 9.06087 13 8C13 6.93913 12.5786 5.92172 11.8284 5.17157C11.0783 4.42143 10.0609 4 9 4C7.93913 4 6.92172 4.42143 6.17157 5.17157C5.42143 5.92172 5 6.93913 5 8C5 9.06087 5.42143 10.0783 6.17157 10.8284C6.92172 11.5786 7.93913 12 9 12ZM7.57188 13.5C4.49375 13.5 2 15.9937 2 19.0719C2 19.5844 2.41563 20 2.92813 20H15.0719C15.5844 20 16 19.5844 16 19.0719C16 19.0469 16 19.025 16 19C13.2375 19 11 16.7625 11 14C11 13.8406 11.0063 13.6844 11.0219 13.5312C10.8281 13.5094 10.6281 13.5 10.4281 13.5H7.57188ZM16 11.5031C16.3283 11.5031 16.6534 11.5678 16.9567 11.6934C17.26 11.8191 17.5356 12.0032 17.7678 12.2354C17.9999 12.4675 18.1841 12.7431 18.3097 13.0464C18.4353 13.3497 18.5 13.6748 18.5 14.0031C18.5 14.3314 18.4353 14.6565 18.3097 14.9598C18.1841 15.2631 17.9999 15.5387 17.7678 15.7709C17.5356 16.003 17.26 16.1872 16.9567 16.3128C16.6534 16.4385 16.3283 16.5031 16 16.5031C15.337 16.5031 14.7011 16.2397 14.2322 15.7709C13.7634 15.3021 13.5 14.6662 13.5 14.0031C13.5 13.3401 13.7634 12.7042 14.2322 12.2354C14.7011 11.7665 15.337 11.5031 16 11.5031ZM16 18.0031C16.8344 18.0031 17.6063 17.7469 18.2469 17.3125L20.7188 19.7844C21.0125 20.0781 21.4875 20.0781 21.7781 19.7844C22.0688 19.4906 22.0719 19.0156 21.7781 18.725L19.3062 16.2531C19.7437 15.6125 19.9969 14.8375 19.9969 14.0063C19.9969 11.7969 18.2062 10.0062 15.9969 10.0062C13.7875 10.0062 11.9969 11.7969 11.9969 14.0063C11.9969 16.2156 13.7875 18.0063 15.9969 18.0063L16 18.0031Z" fill="black"/>
</svg>
