<svg width="24" height="24" viewBox="0 0 24 24" fill="none" xmlns="http://www.w3.org/2000/svg">
<path d="M9 12C10.0609 12 11.0783 11.5786 11.8284 10.8284C12.5786 10.0783 13 9.06087 13 8C13 6.93913 12.5786 5.92172 11.8284 5.17157C11.0783 4.42143 10.0609 4 9 4C7.93913 4 6.92172 4.42143 6.17157 5.17157C5.42143 5.92172 5 6.93913 5 8C5 9.06087 5.42143 10.0783 6.17157 10.8284C6.92172 11.5786 7.93913 12 9 12ZM7.57188 13.5C4.49375 13.5 2 15.9937 2 19.0719C2 19.5844 2.41563 20 2.92813 20H14.2688C14.1 19.7063 14 19.3656 14 19V15C14 14.9344 14.0031 14.8688 14.0094 14.8031C13.0406 13.9906 11.7906 13.5 10.4281 13.5H7.57188ZM18.5 11.5C19.0531 11.5 19.5 11.9469 19.5 12.5V14H17.5V12.5C17.5 11.9469 17.9469 11.5 18.5 11.5ZM16 12.5V14C15.4469 14 15 14.4469 15 15V19C15 19.5531 15.4469 20 16 20H21C21.5531 20 22 19.5531 22 19V15C22 14.4469 21.5531 14 21 14V12.5C21 11.1187 19.8813 10 18.5 10C17.1187 10 16 11.1187 16 12.5Z" fill="black"/>
</svg>
