<svg width="24" height="24" viewBox="0 0 24 24" fill="none" xmlns="http://www.w3.org/2000/svg">
<path d="M3.21243 4.15937C2.88743 3.90312 2.41556 3.96249 2.15931 4.28749C1.90306 4.61249 1.96243 5.08437 2.28743 5.34062L20.7874 19.8406C21.1124 20.0969 21.5843 20.0375 21.8406 19.7125C22.0968 19.3875 22.0374 18.9156 21.7124 18.6594L18.9999 16.5344V15V11.5V4.99999C18.9999 4.44687 18.5531 3.99999 17.9999 3.99999C17.4999 3.99999 13.9999 4.99999 13.9999 9.49999V12.6156L11.5749 10.7156C11.8437 10.2906 11.9999 9.78749 11.9999 9.24687C11.9999 9.04687 11.9781 8.84687 11.9343 8.64999L10.9874 4.39062C10.9312 4.14062 10.6968 3.97499 10.4437 4.00312C10.1906 4.03124 9.99993 4.24374 9.99993 4.49999V8.69374C9.99993 8.86249 9.86243 8.99999 9.69368 8.99999C9.53431 8.99999 9.40306 8.87812 9.38743 8.71874L8.99681 4.45624C8.97493 4.19687 8.75931 3.99999 8.49993 3.99999C8.24056 3.99999 8.02493 4.19687 8.00306 4.45624L7.70931 7.68437L6.99993 7.12812V4.49999C6.99993 4.24374 6.80931 4.03124 6.55306 4.00312C6.29681 3.97499 6.06556 4.14374 6.00931 4.39062L5.64056 6.06249L3.21243 4.15937ZM9.49993 12.9094L5.00306 9.36562C5.06243 10.7469 6.13743 11.8656 7.49993 11.9875V19C7.49993 19.5531 7.94681 20 8.49993 20C9.05306 20 9.49993 19.5531 9.49993 19V12.9094Z" fill="black"/>
</svg>
