<svg width="24" height="24" viewBox="0 0 24 24" fill="none" xmlns="http://www.w3.org/2000/svg">
<path d="M8.75007 8.75C8.75007 8.75 9.50007 10 12.0001 10C14.5001 10 15.2501 8.75 15.2501 8.75C15.2501 7.25 14.2094 5.5 12.0001 5.5C9.7907 5.5 8.75007 7.25 8.75007 8.75ZM7.41882 7.4875C7.97195 5.475 9.8157 4 12.0001 4C14.1844 4 16.0282 5.475 16.5813 7.4875C19.2251 8.09688 21.0001 9.21875 21.0001 10.5C21.0001 12.4344 16.9719 14 12.0001 14C7.0282 14 3.00007 12.4344 3.00007 10.5C3.00007 9.21875 4.77507 8.09688 7.41882 7.4875ZM6.75007 10.5C6.75007 10.3011 6.67106 10.1103 6.5304 9.96967C6.38975 9.82902 6.19899 9.75 6.00007 9.75C5.80116 9.75 5.6104 9.82902 5.46974 9.96967C5.32909 10.1103 5.25007 10.3011 5.25007 10.5C5.25007 10.6989 5.32909 10.8897 5.46974 11.0303C5.6104 11.171 5.80116 11.25 6.00007 11.25C6.19899 11.25 6.38975 11.171 6.5304 11.0303C6.67106 10.8897 6.75007 10.6989 6.75007 10.5ZM18.0001 11.25C18.199 11.25 18.3898 11.171 18.5304 11.0303C18.6711 10.8897 18.7501 10.6989 18.7501 10.5C18.7501 10.3011 18.6711 10.1103 18.5304 9.96967C18.3898 9.82902 18.199 9.75 18.0001 9.75C17.8012 9.75 17.6104 9.82902 17.4697 9.96967C17.3291 10.1103 17.2501 10.3011 17.2501 10.5C17.2501 10.6989 17.3291 10.8897 17.4697 11.0303C17.6104 11.171 17.8012 11.25 18.0001 11.25ZM12.7501 12C12.7501 11.8011 12.6711 11.6103 12.5304 11.4697C12.3898 11.329 12.199 11.25 12.0001 11.25C11.8012 11.25 11.6104 11.329 11.4697 11.4697C11.3291 11.6103 11.2501 11.8011 11.2501 12C11.2501 12.1989 11.3291 12.3897 11.4697 12.5303C11.6104 12.671 11.8012 12.75 12.0001 12.75C12.199 12.75 12.3898 12.671 12.5304 12.5303C12.6711 12.3897 12.7501 12.1989 12.7501 12ZM5.32195 14.1781L5.4532 13.9C5.90007 14.075 6.38132 14.2312 6.8907 14.3687L6.6782 14.8219L4.4282 19.5719C4.25007 19.9469 3.8032 20.1063 3.4282 19.9281C3.0532 19.75 2.89382 19.3031 3.07195 18.9281L5.32195 14.1781ZM17.3219 14.8219L17.1094 14.3687C17.6188 14.2312 18.1001 14.075 18.5469 13.9L18.6782 14.1781L20.9282 18.9281C21.1063 19.3031 20.9469 19.75 20.5719 19.9281C20.1969 20.1063 19.7501 19.9469 19.5719 19.5719L17.3219 14.8219Z" fill="black"/>
</svg>
