<svg width="24" height="24" viewBox="0 0 24 24" fill="none" xmlns="http://www.w3.org/2000/svg">
<path d="M3.21255 4.15955C2.88755 3.9033 2.41568 3.96268 2.15943 4.28768C1.90318 4.61268 1.96255 5.08455 2.28755 5.3408L20.7876 19.8408C21.1126 20.0971 21.5844 20.0377 21.8407 19.7127C22.0969 19.3877 22.0376 18.9158 21.7126 18.6596L15.7688 14.0002H21.3344C21.7032 14.0002 22.0001 13.7002 22.0001 13.3346C22.0001 11.4939 20.5063 10.0002 18.6657 10.0002H17.3344C16.8376 10.0002 16.3657 10.1096 15.9407 10.3033C15.9813 10.5283 16.0001 10.7627 16.0001 11.0002C16.0001 11.9439 15.6719 12.8127 15.1251 13.4971L14.3376 12.8814C14.7532 12.3658 15.0001 11.7127 15.0001 11.0002C15.0001 9.34393 13.6563 8.00018 12.0001 8.00018C11.0282 8.00018 10.1657 8.46268 9.61568 9.1783L8.34693 8.18455C8.75318 7.7408 9.00005 7.15018 9.00005 6.50018C9.00005 5.11893 7.8813 4.00018 6.50005 4.00018C5.63443 4.00018 4.87193 4.4408 4.42193 5.10955L3.21255 4.15955ZM5.33443 10.0002C3.4938 10.0002 2.00005 11.4939 2.00005 13.3346C2.00005 13.7002 2.30005 14.0002 2.66568 14.0002H9.33443C9.34068 14.0002 9.34693 14.0002 9.3563 14.0002C8.71255 13.4314 8.2563 12.6627 8.0813 11.7877L5.8063 10.0002H5.33443ZM10.1657 15.0002C7.86568 15.0002 6.00005 16.8658 6.00005 19.1658C6.00005 19.6252 6.37193 20.0002 6.83443 20.0002H17.1657C17.4938 20.0002 17.7751 19.8127 17.9126 19.5377L12.1532 15.0002H10.1657ZM18.0001 9.00018C18.6631 9.00018 19.299 8.73678 19.7678 8.26794C20.2367 7.7991 20.5001 7.16322 20.5001 6.50018C20.5001 5.83713 20.2367 5.20125 19.7678 4.73241C19.299 4.26357 18.6631 4.00018 18.0001 4.00018C17.337 4.00018 16.7011 4.26357 16.2323 4.73241C15.7634 5.20125 15.5001 5.83713 15.5001 6.50018C15.5001 7.16322 15.7634 7.7991 16.2323 8.26794C16.7011 8.73678 17.337 9.00018 18.0001 9.00018Z" fill="black"/>
</svg>
