<svg width="24" height="24" viewBox="0 0 24 24" fill="none" xmlns="http://www.w3.org/2000/svg">
<path d="M16.9374 9.54688C17.0562 9.27187 16.9999 8.95312 16.7937 8.73438L12.5437 4.23438C12.4031 4.08437 12.2062 4 11.9999 4C11.7937 4 11.5968 4.08437 11.4562 4.23438L7.20618 8.73438C6.99993 8.95312 6.94368 9.27187 7.06243 9.54688C7.18118 9.82188 7.44993 10 7.74993 10H9.99993V19C9.99993 19.5531 10.4468 20 10.9999 20H12.9999C13.5531 20 13.9999 19.5531 13.9999 19V10H16.2499C16.5499 10 16.8187 9.82188 16.9374 9.54688Z" fill="black"/>
</svg>
