<svg width="24" height="24" viewBox="0 0 24 24" fill="none" xmlns="http://www.w3.org/2000/svg">
<path d="M16.5844 7.00312C15.8156 5.23438 14.0531 4 12 4C9.94688 4 8.18438 5.23438 7.41563 7.00312C6.90313 7.04688 6.5 7.475 6.5 8V10C6.5 10.525 6.90313 10.9531 7.41563 10.9969C8.18438 12.7656 9.94688 14 12 14C14.0531 14 15.8156 12.7656 16.5844 10.9969C17.0969 10.9531 17.5 10.525 17.5 10V8C17.5 7.475 17.0969 7.04688 16.5844 7.00312ZM15.5 8.5V9C15.5 10.6562 14.1562 12 12.5 12H11.5C9.84375 12 8.5 10.6562 8.5 9V8.5C8.5 7.67188 9.17188 7 10 7H14C14.8281 7 15.5 7.67188 15.5 8.5ZM10.9156 9.08437L10.7281 8.42188C10.7 8.31875 10.6062 8.25 10.5 8.25C10.3938 8.25 10.3 8.31875 10.2719 8.42188L10.0844 9.08437L9.42188 9.27187C9.31875 9.3 9.25 9.39375 9.25 9.5C9.25 9.60625 9.31875 9.7 9.42188 9.72813L10.0844 9.91563L10.2719 10.5781C10.3 10.6813 10.3938 10.75 10.5 10.75C10.6062 10.75 10.7 10.6813 10.7281 10.5781L10.9156 9.91563L11.5781 9.72813C11.6813 9.7 11.75 9.60625 11.75 9.5C11.75 9.39375 11.6813 9.3 11.5781 9.27187L10.9156 9.08437ZM8.52187 13.8906C6.45937 14.7063 5 16.7188 5 19.0719C5 19.5844 5.41563 20 5.92813 20H9V18C9 17.4469 9.44688 17 10 17H14C14.5531 17 15 17.4469 15 18V20H18.0719C18.5844 20 19 19.5844 19 19.0719C19 16.7188 17.5406 14.7063 15.4781 13.8906C14.4969 14.5875 13.2969 15 12 15C10.7031 15 9.50312 14.5875 8.52187 13.8906ZM10.5 18C10.225 18 10 18.225 10 18.5V20H11V18.5C11 18.225 10.775 18 10.5 18ZM13.5 19C13.6326 19 13.7598 18.9473 13.8536 18.8536C13.9473 18.7598 14 18.6326 14 18.5C14 18.3674 13.9473 18.2402 13.8536 18.1464C13.7598 18.0527 13.6326 18 13.5 18C13.3674 18 13.2402 18.0527 13.1464 18.1464C13.0527 18.2402 13 18.3674 13 18.5C13 18.6326 13.0527 18.7598 13.1464 18.8536C13.2402 18.9473 13.3674 19 13.5 19Z" fill="black"/>
</svg>
