<svg width="24" height="24" viewBox="0 0 24 24" fill="none" xmlns="http://www.w3.org/2000/svg">
<path d="M14.5 8.5C14.5 9.88125 13.3813 11 12 11C10.6187 11 9.5 9.88125 9.5 8.5V8C9.5 7.82812 9.51875 7.6625 9.55 7.5H10.5437C11.4469 7.5 12.2875 7.025 12.75 6.25L12.9156 6.41563C13.2813 6.78125 13.775 6.99062 14.2906 7C14.425 7.30625 14.5 7.64375 14.5 8V8.5ZM12 4C9.79063 4 8 5.79063 8 8V8.5C8 10.7094 9.79063 12.5 12 12.5C14.2094 12.5 16 10.7094 16 8.5V8C16 5.79063 14.2094 4 12 4ZM14 14H13.9594H10.0406H10V15.5719C10.7219 15.7875 11.25 16.4563 11.25 17.25C11.25 18.2156 10.4656 19 9.5 19C8.53438 19 7.75 18.2156 7.75 17.25C7.75 16.4563 8.27812 15.7875 9 15.5719V14.1062C6.71563 14.5875 5 16.6125 5 19.0406C5 19.5719 5.43125 20 5.95938 20H18.0406C18.5719 20 19 19.5687 19 19.0406C19 16.6125 17.2844 14.5875 15 14.1094V15.3125C15.8625 15.5344 16.5 16.3188 16.5 17.25V18.5C16.5 18.775 16.275 19 16 19H15.5C15.225 19 15 18.775 15 18.5C15 18.225 15.225 18 15.5 18V17.25C15.5 16.6969 15.0531 16.25 14.5 16.25C13.9469 16.25 13.5 16.6969 13.5 17.25V18C13.775 18 14 18.225 14 18.5C14 18.775 13.775 19 13.5 19H13C12.725 19 12.5 18.775 12.5 18.5V17.25C12.5 16.3188 13.1375 15.5344 14 15.3125V14ZM10.25 17.25C10.25 17.0511 10.171 16.8603 10.0303 16.7197C9.88968 16.579 9.69891 16.5 9.5 16.5C9.30109 16.5 9.11032 16.579 8.96967 16.7197C8.82902 16.8603 8.75 17.0511 8.75 17.25C8.75 17.4489 8.82902 17.6397 8.96967 17.7803C9.11032 17.921 9.30109 18 9.5 18C9.69891 18 9.88968 17.921 10.0303 17.7803C10.171 17.6397 10.25 17.4489 10.25 17.25Z" fill="black"/>
</svg>
