<svg width="24" height="24" viewBox="0 0 24 24" fill="none" xmlns="http://www.w3.org/2000/svg">
<path d="M12 4C12.5531 4 13 4.44687 13 5V6H16V5.75C16 5.33437 16.3344 5 16.75 5C17.1656 5 17.5 5.33437 17.5 5.75V6H18.5V5.75C18.5 5.33437 18.8344 5 19.25 5C19.6656 5 20 5.33437 20 5.75V7C20 7.55313 19.5531 8 19 8H17.4L13 10.9344V13V19C13 19.5531 12.5531 20 12 20C11.4469 20 11 19.5531 11 19V13V10.9344L6.6 8H5C4.44687 8 4 7.55313 4 7V5.75C4 5.33437 4.33437 5 4.75 5C5.16563 5 5.5 5.33437 5.5 5.75V6H6.5V5.75C6.5 5.33437 6.83437 5 7.25 5C7.66563 5 8 5.33437 8 5.75V6H11V5C11 4.44687 11.4469 4 12 4ZM8.4 8L11 9.73125V8H8.4ZM13 9.73125L15.6 8H13V9.73125Z" fill="black"/>
</svg>
