<svg width="24" height="24" viewBox="0 0 24 24" fill="none" xmlns="http://www.w3.org/2000/svg">
<path d="M12 4C10.9391 4 9.92172 4.42143 9.17157 5.17157C8.42143 5.92172 8 6.93913 8 8C8 9.06087 8.42143 10.0783 9.17157 10.8284C9.92172 11.5786 10.9391 12 12 12C13.0609 12 14.0783 11.5786 14.8284 10.8284C15.5786 10.0783 16 9.06087 16 8C16 6.93913 15.5786 5.92172 14.8284 5.17157C14.0783 4.42143 13.0609 4 12 4ZM9.91563 14.2219C9.81563 14.0875 9.65313 14.0125 9.4875 14.0281C6.96563 14.3031 5 16.4437 5 19.0406C5 19.5719 5.43125 20 5.95938 20H18.0406C18.5719 20 19 19.5687 19 19.0406C19 16.4437 17.0344 14.3062 14.5094 14.0312C14.3438 14.0125 14.1813 14.0906 14.0813 14.225L12.3969 16.4688C12.1969 16.7344 11.7969 16.7344 11.5969 16.4688L9.9125 14.225L9.91563 14.2219Z" fill="black"/>
</svg>
