<svg width="24" height="24" viewBox="0 0 24 24" fill="none" xmlns="http://www.w3.org/2000/svg">
<path d="M18 4C17.5 4 14 5 14 9.5V13C14 14.1031 14.8969 15 16 15H17V19C17 19.5531 17.4469 20 18 20C18.5531 20 19 19.5531 19 19V15V11.5V5C19 4.44687 18.5531 4 18 4ZM7 4.5C7 4.24375 6.80938 4.03125 6.55313 4.00313C6.29688 3.975 6.06875 4.14375 6.0125 4.39062L5.06562 8.65C5.02187 8.84688 5 9.04687 5 9.24687C5 10.6812 6.09687 11.8594 7.5 11.9875V19C7.5 19.5531 7.94687 20 8.5 20C9.05313 20 9.5 19.5531 9.5 19V11.9875C10.9031 11.8594 12 10.6812 12 9.24687C12 9.04687 11.9781 8.84688 11.9344 8.65L10.9875 4.39062C10.9313 4.14062 10.6969 3.975 10.4437 4.00313C10.1906 4.03125 10 4.24375 10 4.5V8.69375C10 8.8625 9.8625 9 9.69375 9C9.53437 9 9.40312 8.87812 9.3875 8.71875L8.99688 4.45625C8.975 4.19688 8.75938 4 8.5 4C8.24062 4 8.025 4.19688 8.00312 4.45625L7.61562 8.71875C7.6 8.87812 7.46875 9 7.30938 9C7.14063 9 7.00312 8.8625 7.00312 8.69375V4.5H7ZM8.50938 9.25H8.5H8.49062L8.5 9.22813L8.50938 9.25Z" fill="black"/>
</svg>
