<svg width="24" height="24" viewBox="0 0 24 24" fill="none" xmlns="http://www.w3.org/2000/svg">
<path d="M2 4.75C2 4.33437 2.33437 4 2.75 4H21.25C21.6656 4 22 4.33437 22 4.75C22 5.16563 21.6656 5.5 21.25 5.5H2.75C2.33437 5.5 2 5.16563 2 4.75ZM2 19.25C2 18.8344 2.33437 18.5 2.75 18.5H21.25C21.6656 18.5 22 18.8344 22 19.25C22 19.6656 21.6656 20 21.25 20H2.75C2.33437 20 2 19.6656 2 19.25ZM4.6 9C4.6 8.73736 4.65173 8.47728 4.75224 8.23463C4.85275 7.99198 5.00007 7.7715 5.18579 7.58579C5.3715 7.40007 5.59198 7.25275 5.83463 7.15224C6.07728 7.05173 6.33736 7 6.6 7C6.86264 7 7.12272 7.05173 7.36537 7.15224C7.60802 7.25275 7.8285 7.40007 8.01421 7.58579C8.19993 7.7715 8.34725 7.99198 8.44776 8.23463C8.54827 8.47728 8.6 8.73736 8.6 9C8.6 9.53043 8.38929 10.0391 8.01421 10.4142C7.63914 10.7893 7.13043 11 6.6 11C6.06957 11 5.56086 10.7893 5.18579 10.4142C4.81071 10.0391 4.6 9.53043 4.6 9ZM3 14C3 12.8969 3.89688 12 5 12H8C8.38125 12 8.74062 12.1062 9.04375 12.2937C7.88125 12.7656 6.99375 13.7687 6.675 15H4C3.44687 15 3 14.5531 3 14ZM17.425 15C17.1031 13.7469 16.1875 12.7313 14.9969 12.2688C15.2906 12.0969 15.6344 12 16 12H19C20.1031 12 21 12.8969 21 14C21 14.5531 20.5531 15 20 15H17.425ZM14.225 13.075C15.2281 13.3062 16.0406 14.0406 16.3781 15C16.4875 15.3125 16.55 15.65 16.55 16C16.55 16.5531 16.1031 17 15.55 17H8.55C7.99688 17 7.55 16.5531 7.55 16C7.55 15.65 7.60938 15.3125 7.72188 15C8.05 14.0719 8.825 13.35 9.7875 13.0969C10.0312 13.0313 10.2875 13 10.5531 13H13.5531C13.7844 13 14.0125 13.025 14.2281 13.075H14.225ZM15.6 9C15.6 8.46957 15.8107 7.96086 16.1858 7.58579C16.5609 7.21071 17.0696 7 17.6 7C18.1304 7 18.6391 7.21071 19.0142 7.58579C19.3893 7.96086 19.6 8.46957 19.6 9C19.6 9.53043 19.3893 10.0391 19.0142 10.4142C18.6391 10.7893 18.1304 11 17.6 11C17.0696 11 16.5609 10.7893 16.1858 10.4142C15.8107 10.0391 15.6 9.53043 15.6 9ZM12.05 7C12.713 7 13.3489 7.26339 13.8178 7.73223C14.2866 8.20107 14.55 8.83696 14.55 9.5C14.55 10.163 14.2866 10.7989 13.8178 11.2678C13.3489 11.7366 12.713 12 12.05 12C11.387 12 10.7511 11.7366 10.2822 11.2678C9.81339 10.7989 9.55 10.163 9.55 9.5C9.55 8.83696 9.81339 8.20107 10.2822 7.73223C10.7511 7.26339 11.387 7 12.05 7Z" fill="black"/>
</svg>
