<svg width="24" height="24" viewBox="0 0 24 24" fill="none" xmlns="http://www.w3.org/2000/svg">
<path d="M13 7.41558V15C13 15.5531 12.5531 16 12 16C11.4469 16 11 15.5531 11 15V7.41558L8.70625 9.70933C8.31563 10.1 7.68125 10.1 7.29063 9.70933C6.9 9.3187 6.9 8.68433 7.29063 8.2937L11.2906 4.2937C11.6813 3.90308 12.3156 3.90308 12.7063 4.2937L16.7063 8.2937C17.0969 8.68433 17.0969 9.3187 16.7063 9.70933C16.3156 10.1 15.6812 10.1 15.2906 9.70933L13 7.41558ZM6 15H10C10 16.1031 10.8969 17 12 17C13.1031 17 14 16.1031 14 15H18C19.1031 15 20 15.8968 20 17V18C20 19.1031 19.1031 20 18 20H6C4.89688 20 4 19.1031 4 18V17C4 15.8968 4.89688 15 6 15ZM17.5 18.25C17.6989 18.25 17.8897 18.1709 18.0303 18.0303C18.171 17.8896 18.25 17.6989 18.25 17.5C18.25 17.301 18.171 17.1103 18.0303 16.9696C17.8897 16.829 17.6989 16.75 17.5 16.75C17.3011 16.75 17.1103 16.829 16.9697 16.9696C16.829 17.1103 16.75 17.301 16.75 17.5C16.75 17.6989 16.829 17.8896 16.9697 18.0303C17.1103 18.1709 17.3011 18.25 17.5 18.25Z" fill="black"/>
</svg>
