<svg width="24" height="24" viewBox="0 0 24 24" fill="none" xmlns="http://www.w3.org/2000/svg">
<path d="M14.5 8V8.5C14.5 9.88125 13.3813 11 12 11C10.6188 11 9.5 9.88125 9.5 8.5V8C9.5 7.82812 9.51875 7.6625 9.55 7.5H10.5C11.4313 7.5 12.2469 6.99062 12.675 6.23438C13.0406 6.7 13.6094 7 14.25 7H14.2906C14.425 7.30625 14.5 7.64375 14.5 8ZM8 8V8.5C8 10.7094 9.79063 12.5 12 12.5C14.2094 12.5 16 10.7094 16 8.5V8C16 5.79063 14.2094 4 12 4C9.79063 4 8 5.79063 8 8ZM10.0406 14C7.25625 14 5 16.2562 5 19.0406C5 19.5719 5.43125 20 5.95938 20H18.0406C18.5719 20 19 19.5687 19 19.0406C19 16.2562 16.7438 14 13.9594 14H10.0406Z" fill="black"/>
</svg>
