<svg width="24" height="24" viewBox="0 0 24 24" fill="none" xmlns="http://www.w3.org/2000/svg">
<path d="M12.1906 4.02578C12.0656 3.99141 11.9344 3.99141 11.8094 4.02578L7.05938 5.27578C6.79063 5.34766 6.58125 5.56016 6.51875 5.83203C6.45625 6.10391 6.55 6.38828 6.7625 6.56953L7.5 7.20391V7.46641C7.5 7.80078 7.66562 8.11641 7.97187 8.25391C8.725 8.59141 10.1156 9.00391 12 9.00391C13.8844 9.00391 15.275 8.59141 16.0281 8.25391C16.3344 8.11641 16.5 7.80078 16.5 7.46641V7.20391L17.2375 6.57266C17.45 6.39141 17.5437 6.10703 17.4812 5.83516C17.4187 5.56328 17.2094 5.34766 16.9406 5.27891L12.1906 4.02891V4.02578ZM10.0531 6.27578C10.1781 6.02891 10.4781 5.92891 10.725 6.05078L12 6.69141L13.275 6.05391C13.5219 5.92891 13.8219 6.03203 13.9469 6.27891C14.0719 6.52578 13.9688 6.82578 13.7219 6.95078L12.2219 7.70078C12.0813 7.77266 11.9156 7.77266 11.775 7.70078L10.275 6.95078C10.0281 6.82578 9.92813 6.52578 10.05 6.27891L10.0531 6.27578ZM8.06562 9.27578C8.02187 9.51016 8 9.75391 8 10.0008C8 12.2102 9.79063 14.0008 12 14.0008C14.2094 14.0008 16 12.2102 16 10.0008C16 9.75391 15.9781 9.51016 15.9344 9.27578C14.7125 9.74453 13.3875 10.0008 12 10.0008C10.6125 10.0008 9.2875 9.74453 8.06562 9.27578ZM10.8625 15.7227L11.5 17.0008L11.1188 18.5289L9.15625 15.2602C9.0625 15.1039 8.8875 15.007 8.70625 15.0289C6.61875 15.2758 5 17.0477 5 19.2008C5 19.6414 5.35938 20.0008 5.8 20.0008H11H13H18.2C18.6406 20.0008 19 19.6414 19 19.2008C19 17.0477 17.3812 15.2758 15.2937 15.0289C15.1125 15.007 14.9375 15.1039 14.8438 15.2602L12.8812 18.5289L12.5 17.0008L13.1375 15.7258C13.3031 15.3945 13.0625 15.0008 12.6906 15.0008H11.3094C10.9375 15.0008 10.6969 15.3914 10.8625 15.7258V15.7227ZM15 17.5008C15 17.2258 15.225 17.0008 15.5 17.0008H16.5C16.775 17.0008 17 17.2258 17 17.5008C17 17.7758 16.775 18.0008 16.5 18.0008H15.5C15.225 18.0008 15 17.7758 15 17.5008Z" fill="black"/>
</svg>
