<svg width="24" height="24" viewBox="0 0 24 24" fill="none" xmlns="http://www.w3.org/2000/svg">
<path d="M11.75 4C11.3344 4 11 4.33437 11 4.75V6.5L10.1125 4.72188C8.925 5.35938 8.09375 6.58125 8.00625 8H8C7.58437 8 7.25 8.33437 7.25 8.75C7.25 9.16563 7.58437 9.5 8 9.5H16C16.4156 9.5 16.75 9.16563 16.75 8.75C16.75 8.33437 16.4156 8 16 8H15.9937C15.9062 6.58125 15.075 5.35938 13.8875 4.72188L13 6.5V4.75C13 4.33437 12.6656 4 12.25 4H11.75ZM12 14C14.0406 14 15.7219 12.4719 15.9688 10.5H8.03125C8.27813 12.4719 9.95937 14 12 14ZM9.2 15C6.88125 15 5 16.8812 5 19.2C5 19.6406 5.35938 20 5.8 20H18.2C18.6406 20 19 19.6406 19 19.2C19 16.8812 17.1188 15 14.8 15H9.2Z" fill="black"/>
</svg>
