<svg width="24" height="24" viewBox="0 0 24 24" fill="none" xmlns="http://www.w3.org/2000/svg">
<path d="M12.55 4.24062C12.4062 4.0875 12.2093 4 12 4C11.7906 4 11.5937 4.0875 11.45 4.24062L8.19997 7.74062C7.99684 7.95937 7.94372 8.27813 8.06247 8.55C8.18122 8.82188 8.45309 9 8.74997 9H10.5V15H8.74997C8.45309 15 8.18122 15.1781 8.06247 15.45C7.94372 15.7219 7.99684 16.0406 8.19997 16.2594L11.45 19.7594C11.5906 19.9125 11.7906 20 12 20C12.2093 20 12.4062 19.9125 12.55 19.7594L15.8 16.2594C16.0031 16.0406 16.0562 15.7219 15.9375 15.45C15.8187 15.1781 15.5468 15 15.25 15H13.5V9H15.25C15.5468 9 15.8187 8.82188 15.9375 8.55C16.0562 8.27813 16.0031 7.95937 15.8 7.74062L12.55 4.24062Z" fill="black"/>
</svg>
