<svg width="24" height="24" viewBox="0 0 24 24" fill="none" xmlns="http://www.w3.org/2000/svg">
<path d="M13 7.41564V15C13 15.5531 12.5531 16 12 16C11.4469 16 11 15.5531 11 15V7.41564L8.70625 9.70939C8.31563 10.1 7.68125 10.1 7.29063 9.70939C6.9 9.31876 6.9 8.68439 7.29063 8.29376L11.2906 4.29376C11.6813 3.90314 12.3156 3.90314 12.7063 4.29376L16.7063 8.29376C17.0969 8.68439 17.0969 9.31876 16.7063 9.70939C16.3156 10.1 15.6812 10.1 15.2906 9.70939L13 7.41564ZM6 15H10C10 16.1031 10.8969 17 12 17C13.1031 17 14 16.1031 14 15H18C19.1031 15 20 15.8969 20 17V18C20 19.1031 19.1031 20 18 20H6C4.89688 20 4 19.1031 4 18V17C4 15.8969 4.89688 15 6 15ZM17.5 18.25C17.6989 18.25 17.8897 18.171 18.0303 18.0303C18.171 17.8897 18.25 17.6989 18.25 17.5C18.25 17.3011 18.171 17.1103 18.0303 16.9697C17.8897 16.829 17.6989 16.75 17.5 16.75C17.3011 16.75 17.1103 16.829 16.9697 16.9697C16.829 17.1103 16.75 17.3011 16.75 17.5C16.75 17.6989 16.829 17.8897 16.9697 18.0303C17.1103 18.171 17.3011 18.25 17.5 18.25Z" fill="black"/>
</svg>
