<svg width="24" height="24" viewBox="0 0 24 24" fill="none" xmlns="http://www.w3.org/2000/svg">
<path d="M14.5 8C14.5 7.64375 14.425 7.30625 14.2906 7H14.25C13.6094 7 13.0406 6.7 12.675 6.23438C12.2469 6.99063 11.4312 7.5 10.5 7.5H9.55C9.51875 7.6625 9.5 7.82812 9.5 8V8.5C9.5 9.88125 10.6187 11 12 11C13.3813 11 14.5 9.88125 14.5 8.5V8ZM8 8C8 5.79063 9.79063 4 12 4C14.2094 4 16 5.79063 16 8V8.34375C16 9.40313 16.4219 10.4219 17.1719 11.1719L17.2937 11.2937C17.425 11.425 17.5 11.6062 17.5 11.7937C17.5 12.1844 17.1844 12.5 16.7937 12.5H12H7.20625C6.81562 12.5 6.5 12.1844 6.5 11.7937C6.5 11.6062 6.575 11.425 6.70625 11.2937L6.82812 11.1719C7.57812 10.4219 8 9.40313 8 8.34375V8ZM13.75 20H10.25H10.0781C10.0781 20 10.0781 20 10.075 20H5.95938C5.43125 20 5 19.5687 5 19.0406C5 16.6812 6.62188 14.7 8.80938 14.1531C9.0625 14.0906 9.30625 14.2563 9.36875 14.5063L10.4938 19.0969L11.5375 15.225L10.9563 14.2563C10.7563 13.9219 10.9969 13.5 11.3844 13.5H12H12.6156C13.0031 13.5 13.2437 13.925 13.0437 14.2563L12.4625 15.225L13.5063 19.0969L14.6313 14.5063C14.6938 14.2531 14.9375 14.0875 15.1906 14.1531C17.3813 14.7031 19 16.6844 19 19.0406C19 19.5719 18.5687 20 18.0406 20H13.9219C13.9219 20 13.9219 20 13.9187 20H13.75Z" fill="black"/>
</svg>
