<svg width="24" height="24" viewBox="0 0 24 24" fill="none" xmlns="http://www.w3.org/2000/svg">
<path d="M11.8531 4.01553C11.9499 3.99678 12.0499 3.99678 12.1468 4.01553L18.3968 5.26553C18.7468 5.33428 18.9999 5.64365 18.9999 5.9999C18.9999 6.35615 18.7468 6.66553 18.3968 6.73428L15.9999 7.21553V8.9999C15.9999 11.2093 14.2093 12.9999 11.9999 12.9999C9.79055 12.9999 7.99993 11.2093 7.99993 8.9999V7.21553L6.49993 6.91553V8.9499L6.99055 11.3999C7.01868 11.5468 6.98118 11.6999 6.88743 11.8155C6.79368 11.9312 6.64993 11.9999 6.49993 11.9999H5.49993C5.34993 11.9999 5.2093 11.9343 5.11243 11.8155C5.01555 11.6968 4.97805 11.5468 5.0093 11.3999L5.49993 8.9499V6.70615C5.20305 6.60303 4.99993 6.32178 4.99993 5.9999C4.99993 5.64365 5.25305 5.33428 5.60305 5.26553L11.8531 4.01553ZM8.4968 14.2405C8.82493 14.1343 9.17805 14.253 9.41555 14.5062L11.6343 16.8655C11.8312 17.0749 12.1656 17.0749 12.3624 16.8655L14.5812 14.5062C14.8187 14.253 15.1718 14.1343 15.4999 14.2405C17.5312 14.8937 18.9999 16.7937 18.9999 19.0405C18.9999 19.5718 18.5687 19.9999 18.0406 19.9999H5.9593C5.43118 19.9999 4.99993 19.5687 4.99993 19.0405C4.99993 16.7937 6.46868 14.8937 8.4968 14.2405Z" fill="black"/>
</svg>
