<svg width="24" height="24" viewBox="0 0 24 24" fill="none" xmlns="http://www.w3.org/2000/svg">
<path d="M3.21268 4.15943C2.88768 3.90318 2.4158 3.96255 2.15955 4.28755C1.9033 4.61255 1.96268 5.08443 2.28768 5.34068L20.7877 19.8407C21.1127 20.0969 21.5846 20.0376 21.8408 19.7126C22.0971 19.3876 22.0377 18.9157 21.7127 18.6594L19.0002 16.5344V15.0001V11.5001V5.00005C19.0002 4.44693 18.5533 4.00005 18.0002 4.00005C17.5002 4.00005 14.0002 5.00005 14.0002 9.50005V12.6157L11.5752 10.7157C11.8439 10.2907 12.0002 9.78755 12.0002 9.24693C12.0002 9.04693 11.9783 8.84693 11.9346 8.65005L10.9877 4.39068C10.9314 4.14068 10.6971 3.97505 10.4439 4.00318C10.1908 4.0313 10.0002 4.2438 10.0002 4.50005V8.6938C10.0002 8.86255 9.86268 9.00005 9.69393 9.00005C9.53455 9.00005 9.4033 8.87818 9.38768 8.7188L8.99705 4.4563C8.97518 4.19693 8.75955 4.00005 8.50018 4.00005C8.2408 4.00005 8.02518 4.19693 8.0033 4.4563L7.70955 7.68443L7.00018 7.12818V4.50005C7.00018 4.2438 6.80955 4.0313 6.5533 4.00318C6.29705 3.97505 6.0658 4.1438 6.00955 4.39068L5.6408 6.06255L3.21268 4.15943ZM9.50018 12.9094L5.0033 9.36568C5.06268 10.7469 6.13768 11.8657 7.50018 11.9876V19.0001C7.50018 19.5532 7.94705 20.0001 8.50018 20.0001C9.0533 20.0001 9.50018 19.5532 9.50018 19.0001V12.9094Z" fill="black"/>
</svg>
