<svg width="24" height="24" viewBox="0 0 24 24" fill="none" xmlns="http://www.w3.org/2000/svg">
<path d="M3.21255 4.15955C2.88755 3.9033 2.41568 3.96268 2.15943 4.28768C1.90318 4.61268 1.96255 5.08455 2.28755 5.3408L20.7876 19.8408C21.1126 20.0971 21.5844 20.0377 21.8407 19.7127C22.0969 19.3877 22.0376 18.9158 21.7126 18.6596L13.9344 12.5627C15.4501 11.8377 16.5001 10.2908 16.5001 8.50018C16.5001 6.0158 14.4844 4.00018 12.0001 4.00018C9.82505 4.00018 8.01255 5.5408 7.59068 7.5908L3.21255 4.15955ZM19.0469 20.0002H18.5001L10.8844 14.0002H9.04068C6.2563 14.0002 4.00005 16.2564 4.00005 19.0408C4.00005 19.5721 4.4313 20.0002 4.95943 20.0002H19.0407H19.0501H19.0469Z" fill="black"/>
</svg>
