<svg width="24" height="24" viewBox="0 0 24 24" fill="none" xmlns="http://www.w3.org/2000/svg">
<path d="M12 4.5C11.7906 4.5 11.6625 4.4125 11.5156 4.30937C11.3094 4.16875 11.0625 4 10.5 4C9.54688 4 8.875 5.36563 8.4375 6.79375C6.95938 7.06562 6 7.50625 6 8C6 8.44688 6.78125 8.84687 8.01875 9.12187C8.00625 9.24687 8 9.37187 8 9.5C8 10.0312 8.10313 10.5375 8.29063 11H6.41875C6.1875 11 6 11.1875 6 11.4187C6 11.4719 6.00937 11.525 6.03125 11.575L7.24375 14.6031C5.88125 15.6187 5 17.2437 5 19.0719C5 19.5844 5.41563 20 5.92813 20H18.0719C18.5844 20 19 19.5844 19 19.0719C19 17.2437 18.1187 15.6219 16.7594 14.6031L17.9688 11.575C17.9875 11.525 18 11.4719 18 11.4187C18 11.1875 17.8125 11 17.5813 11H15.7094C15.8969 10.5375 16 10.0312 16 9.5C16 9.37187 15.9937 9.24687 15.9812 9.12187C17.2188 8.84687 18 8.44688 18 8C18 7.50625 17.0406 7.06562 15.5625 6.79375C15.125 5.36563 14.4531 4 13.5 4C12.9375 4 12.6906 4.16875 12.4844 4.30937C12.3344 4.4125 12.2094 4.5 12 4.5ZM13.75 11H13.3625C12.8469 11 12.3906 10.6688 12.2281 10.1813C12.1562 9.9625 11.8469 9.9625 11.775 10.1813C11.6125 10.6688 11.1531 11 10.6406 11H10.25C9.55937 11 9 10.4406 9 9.75V9.3C9.88125 9.42813 10.9062 9.5 12 9.5C13.0938 9.5 14.1187 9.42813 15 9.3V9.75C15 10.4406 14.4406 11 13.75 11ZM11 14L11.5 15L10.5 19L9 13L11 14ZM15 13L13.5 19L12.5 15L13 14L15 13Z" fill="black"/>
</svg>
