<svg width="24" height="24" viewBox="0 0 24 24" fill="none" xmlns="http://www.w3.org/2000/svg">
<path d="M12.1906 4.02578L16.9406 5.27578C17.2094 5.34766 17.4187 5.56016 17.4812 5.83203C17.5437 6.10391 17.45 6.38828 17.2375 6.56953L16.5 7.20391V7.46641C16.5 7.80078 16.3344 8.11641 16.0281 8.25391C15.275 8.59141 13.8844 9.00391 12 9.00391C10.1156 9.00391 8.725 8.59141 7.97187 8.25391C7.66562 8.11641 7.5 7.80078 7.5 7.46641V7.20391L6.7625 6.56953C6.55 6.38828 6.45625 6.10391 6.51875 5.83203C6.58125 5.56016 6.79063 5.34453 7.05938 5.27578L11.8094 4.02578C11.9344 3.99141 12.0656 3.99141 12.1906 4.02578ZM12.0938 5.51953C12.0344 5.49453 11.9688 5.49453 11.9094 5.51953L10.9062 5.91953C10.8125 5.95703 10.75 6.05078 10.75 6.15078C10.75 6.68828 10.9688 7.59141 11.9031 7.98203C11.9656 8.00703 12.0344 8.00703 12.0969 7.98203C13.0312 7.59141 13.25 6.68828 13.25 6.15078C13.25 6.04766 13.1875 5.95703 13.0938 5.91953L12.0938 5.51953ZM8.06562 9.27578C9.2875 9.74453 10.6125 10.0008 12 10.0008C13.3875 10.0008 14.7125 9.74453 15.9344 9.27578C15.9781 9.51016 16 9.75391 16 10.0008C16 12.2102 14.2094 14.0008 12 14.0008C9.79063 14.0008 8 12.2102 8 10.0008C8 9.75391 8.02187 9.51016 8.06562 9.27578ZM9.2 15.0008C9.2875 15.0008 9.37188 15.0289 9.44063 15.082L11.7 16.7758C11.8781 16.9102 12.1219 16.9102 12.3 16.7758L14.5594 15.082C14.6281 15.0289 14.7125 15.0008 14.8 15.0008C17.1187 15.0008 19 16.882 19 19.2008C19 19.6414 18.6406 20.0008 18.2 20.0008H5.8C5.35938 20.0008 5 19.6414 5 19.2008C5 16.882 6.88125 15.0008 9.2 15.0008ZM16 16.7508C15.8906 16.7508 15.7969 16.8195 15.7625 16.9227L15.5938 17.4445H15.05C14.9406 17.4445 14.8438 17.5133 14.8125 17.6164C14.7812 17.7195 14.8156 17.832 14.9031 17.8977L15.3438 18.2133L15.175 18.732C15.1406 18.8352 15.1781 18.9477 15.2656 19.0133C15.3531 19.0789 15.4719 19.0758 15.5594 19.0133L16 18.6914L16.4406 19.0133C16.5281 19.0758 16.6469 19.0789 16.7344 19.0133C16.8219 18.9477 16.8594 18.8352 16.825 18.732L16.6562 18.2133L17.0969 17.8945C17.1844 17.832 17.2219 17.7164 17.1875 17.6133C17.1531 17.5102 17.0562 17.4414 16.95 17.4414H16.4062L16.2375 16.9227C16.2031 16.8195 16.1094 16.7508 16 16.7508Z" fill="black"/>
</svg>
