<svg width="24" height="24" viewBox="0 0 24 24" fill="none" xmlns="http://www.w3.org/2000/svg">
<path d="M5 8C5 6.93913 5.42143 5.92172 6.17157 5.17157C6.92172 4.42143 7.93913 4 9 4C10.0609 4 11.0783 4.42143 11.8284 5.17157C12.5786 5.92172 13 6.93913 13 8C13 9.06087 12.5786 10.0783 11.8284 10.8284C11.0783 11.5786 10.0609 12 9 12C7.93913 12 6.92172 11.5786 6.17157 10.8284C5.42143 10.0783 5 9.06087 5 8ZM2 19.0719C2 15.9937 4.49375 13.5 7.57188 13.5H10.4281C13.5063 13.5 16 15.9937 16 19.0719C16 19.5844 15.5844 20 15.0719 20H2.92813C2.41563 20 2 19.5844 2 19.0719ZM16.7188 8.46875C17.0125 8.175 17.4875 8.175 17.7781 8.46875L19.2469 9.9375L20.7156 8.46875C21.0094 8.175 21.4844 8.175 21.775 8.46875C22.0656 8.7625 22.0687 9.2375 21.775 9.52812L20.3062 10.9969L21.775 12.4656C22.0687 12.7594 22.0687 13.2344 21.775 13.525C21.4812 13.8156 21.0063 13.8187 20.7156 13.525L19.2469 12.0562L17.7781 13.525C17.4844 13.8187 17.0094 13.8187 16.7188 13.525C16.4281 13.2312 16.425 12.7562 16.7188 12.4656L18.1875 10.9969L16.7188 9.52812C16.425 9.23437 16.425 8.75938 16.7188 8.46875Z" fill="black"/>
</svg>
