<svg width="24" height="24" viewBox="0 0 24 24" fill="none" xmlns="http://www.w3.org/2000/svg">
<path d="M7.50001 6.5H15C15.4031 6.5 15.7688 6.74375 15.925 7.11875C16.0813 7.49375 15.9938 7.92187 15.7094 8.20937L13.4594 10.4594L17.6469 14.6469C17.8719 14.8719 18 15.1812 18 15.5C18 15.8188 17.8719 16.1281 17.6469 16.3531L16.3531 17.6469C16.1281 17.8719 15.8188 18 15.5 18C15.1813 18 14.8719 17.8719 14.6469 17.6469L10.4563 13.4563L8.20626 15.7063C7.91876 15.9938 7.49064 16.0781 7.11564 15.9219C6.74064 15.7656 6.49689 15.4031 6.49689 14.9969V7.5C6.49689 6.94687 6.94376 6.5 7.49689 6.5H7.50001Z" fill="black"/>
</svg>
