<svg width="24" height="24" viewBox="0 0 24 24" fill="none" xmlns="http://www.w3.org/2000/svg">
<path d="M8 6.19414V8.00039H8.00938C8.00313 8.08164 8 8.16602 8 8.25039V9.50039C8 11.7098 9.79063 13.5004 12 13.5004C14.2094 13.5004 16 11.7098 16 9.50039V8.25039C16 8.16602 15.9969 8.08164 15.9906 8.00039H16V6.19414C16 5.77852 15.7406 5.40352 15.35 5.25664L12.35 4.13164C12.125 4.04727 11.875 4.04727 11.6469 4.13164L8.64687 5.25664C8.25937 5.40352 8 5.77539 8 6.19414ZM14.5 9.00039V9.50039C14.5 10.8816 13.3813 12.0004 12 12.0004C10.6187 12.0004 9.5 10.8816 9.5 9.50039H10.5C11.4312 9.50039 12.2469 8.99102 12.675 8.23477C13.0406 8.70039 13.6094 9.00039 14.25 9.00039H14.5ZM9.41563 14.5066C9.17813 14.2535 8.825 14.1348 8.49688 14.241C6.46875 14.891 5 16.7941 5 19.041C5 19.5723 5.43125 20.0004 5.95938 20.0004H18.0406C18.5719 20.0004 19 19.5691 19 19.041C19 16.7973 17.5313 14.8941 15.5031 14.241C15.175 14.1348 14.8219 14.2535 14.5844 14.5066L12.3656 16.866C12.1687 17.0754 11.8344 17.0754 11.6375 16.866L9.41875 14.5066H9.41563ZM11.5 5.50039C11.5 5.36289 11.6125 5.25039 11.75 5.25039H12.25C12.3875 5.25039 12.5 5.36289 12.5 5.50039V6.00039H13C13.1375 6.00039 13.25 6.11289 13.25 6.25039V6.75039C13.25 6.88789 13.1375 7.00039 13 7.00039H12.5V7.50039C12.5 7.63789 12.3875 7.75039 12.25 7.75039H11.75C11.6125 7.75039 11.5 7.63789 11.5 7.50039V7.00039H11C10.8625 7.00039 10.75 6.88789 10.75 6.75039V6.25039C10.75 6.11289 10.8625 6.00039 11 6.00039H11.5V5.50039Z" fill="black"/>
</svg>
