<svg width="24" height="24" viewBox="0 0 24 24" fill="none" xmlns="http://www.w3.org/2000/svg">
<path d="M17 5.5C17 6.15312 16.5813 6.70938 16 6.91563V7.5V9.5C16 11.7094 14.2094 13.5 12 13.5C9.79063 13.5 8 11.7094 8 9.5V7.5V6.91563C7.41875 6.70938 7 6.15312 7 5.5C7 4.67188 7.67188 4 8.5 4C8.94688 4 9.35 4.19687 9.625 4.50937C9.9 4.19687 10.3031 4 10.75 4C11.2719 4 11.7312 4.26562 12 4.67188C12.2688 4.26562 12.7281 4 13.25 4C13.6969 4 14.1 4.19687 14.375 4.50937C14.65 4.19687 15.0531 4 15.5 4C16.3281 4 17 4.67188 17 5.5ZM14.5 9.5V9H9.5V9.5C9.5 10.8813 10.6187 12 12 12C13.3813 12 14.5 10.8813 14.5 9.5ZM10.575 14.6438C10.8094 14.7031 10.8312 15.0281 10.6062 15.1187L9.25625 15.6594C8.49687 15.9625 8 16.6969 8 17.5156V19V19.75V20H7.75H7H5.8C5.35938 20 5 19.6406 5 19.2C5 17.3625 6.17813 15.8 7.82188 15.2312C7.925 15.1937 8 15.0969 8 14.9875V14.3188C8 14.1563 8.15313 14.0375 8.30938 14.075L10.575 14.6406V14.6438ZM16 20H10H9.25H9V19.75V19V17.5156C9 17.1062 9.25 16.7375 9.62813 16.5875L15.6562 14.175C15.8219 14.1094 16 14.2313 16 14.4062V14.9875C16 15.0969 16.0719 15.1937 16.1781 15.2312C17.8219 15.8 19 17.3625 19 19.2C19 19.6406 18.6406 20 18.2 20H16ZM12 17.5C12 17.3674 11.9473 17.2402 11.8536 17.1464C11.7598 17.0527 11.6326 17 11.5 17C11.3674 17 11.2402 17.0527 11.1464 17.1464C11.0527 17.2402 11 17.3674 11 17.5C11 17.6326 11.0527 17.7598 11.1464 17.8536C11.2402 17.9473 11.3674 18 11.5 18C11.6326 18 11.7598 17.9473 11.8536 17.8536C11.9473 17.7598 12 17.6326 12 17.5ZM14.5 18C14.6326 18 14.7598 17.9473 14.8536 17.8536C14.9473 17.7598 15 17.6326 15 17.5C15 17.3674 14.9473 17.2402 14.8536 17.1464C14.7598 17.0527 14.6326 17 14.5 17C14.3674 17 14.2402 17.0527 14.1464 17.1464C14.0527 17.2402 14 17.3674 14 17.5C14 17.6326 14.0527 17.7598 14.1464 17.8536C14.2402 17.9473 14.3674 18 14.5 18Z" fill="black"/>
</svg>
