<svg width="24" height="24" viewBox="0 0 24 24" fill="none" xmlns="http://www.w3.org/2000/svg">
<path d="M12.1906 4.0248L16.9406 5.2748C17.2094 5.34668 17.4187 5.55918 17.4812 5.83105C17.5437 6.10293 17.45 6.3873 17.2375 6.56855L16.5 7.20293V7.46543C16.5 7.7998 16.3344 8.11543 16.0281 8.25293C15.275 8.59043 13.8844 9.00293 12 9.00293C10.1156 9.00293 8.725 8.59043 7.97187 8.25293C7.66562 8.11543 7.5 7.7998 7.5 7.46543V7.20293L6.7625 6.56855C6.55 6.3873 6.45625 6.10293 6.51875 5.83105C6.58125 5.55918 6.79063 5.34355 7.05938 5.2748L11.8094 4.0248C11.9344 3.99043 12.0656 3.99043 12.1906 4.0248ZM12.0938 5.51855C12.0344 5.49355 11.9688 5.49355 11.9094 5.51855L10.9062 5.91855C10.8125 5.95605 10.75 6.0498 10.75 6.1498C10.75 6.6873 10.9688 7.59043 11.9031 7.98105C11.9656 8.00605 12.0344 8.00605 12.0969 7.98105C13.0312 7.59043 13.25 6.6873 13.25 6.1498C13.25 6.04668 13.1875 5.95605 13.0938 5.91855L12.0938 5.51855ZM8.06562 9.2748C9.2875 9.74355 10.6125 9.9998 12 9.9998C13.3875 9.9998 14.7125 9.74355 15.9344 9.2748C15.9781 9.50918 16 9.75293 16 9.9998C16 12.2092 14.2094 13.9998 12 13.9998C9.79063 13.9998 8 12.2092 8 9.9998C8 9.75293 8.02187 9.50918 8.06562 9.2748ZM9.2 14.9998C9.2875 14.9998 9.37188 15.0279 9.44063 15.0811L11.7 16.7748C11.8781 16.9092 12.1219 16.9092 12.3 16.7748L14.5594 15.0811C14.6281 15.0279 14.7125 14.9998 14.8 14.9998C17.1187 14.9998 19 16.8811 19 19.1998C19 19.6404 18.6406 19.9998 18.2 19.9998H5.8C5.35938 19.9998 5 19.6404 5 19.1998C5 16.8811 6.88125 14.9998 9.2 14.9998ZM16 16.7498C15.8906 16.7498 15.7969 16.8186 15.7625 16.9217L15.5938 17.4436H15.05C14.9406 17.4436 14.8438 17.5123 14.8125 17.6154C14.7812 17.7186 14.8156 17.8311 14.9031 17.8967L15.3438 18.2123L15.175 18.7311C15.1406 18.8342 15.1781 18.9467 15.2656 19.0123C15.3531 19.0779 15.4719 19.0748 15.5594 19.0123L16 18.6904L16.4406 19.0123C16.5281 19.0748 16.6469 19.0779 16.7344 19.0123C16.8219 18.9467 16.8594 18.8342 16.825 18.7311L16.6562 18.2123L17.0969 17.8936C17.1844 17.8311 17.2219 17.7154 17.1875 17.6123C17.1531 17.5092 17.0562 17.4404 16.95 17.4404H16.4062L16.2375 16.9217C16.2031 16.8186 16.1094 16.7498 16 16.7498Z" fill="black"/>
</svg>
