<svg width="24" height="24" viewBox="0 0 24 24" fill="none" xmlns="http://www.w3.org/2000/svg">
<path d="M12 5.5C10.6188 5.5 9.5 6.61875 9.5 8V9C9.5 10.2531 10.4219 11.2906 11.625 11.4719V11C11.625 10.7937 11.7937 10.625 12 10.625C12.2063 10.625 12.375 10.7937 12.375 11V11.4719C13.5781 11.2906 14.5 10.2531 14.5 9V8C14.5 6.61875 13.3813 5.5 12 5.5ZM8 8C8 5.79063 9.79063 4 12 4C14.2094 4 16 5.79063 16 8V8.725C16 9.06562 16.1156 9.39687 16.3281 9.6625L16.675 10.0938C16.8844 10.3562 17 10.6813 17 11.0188C17 11.8375 16.3375 12.5 15.5188 12.5H13.9375C13.3625 12.8188 12.7031 13 12 13C11.2969 13 10.6375 12.8188 10.0625 12.5H8.48125C7.6625 12.5 7 11.8375 7 11.0188C7 10.6813 7.11563 10.3562 7.325 10.0938L7.67188 9.65938C7.88438 9.39375 8 9.0625 8 8.72188V8ZM11 7.5C11.1326 7.5 11.2598 7.55268 11.3536 7.64645C11.4473 7.74021 11.5 7.86739 11.5 8C11.5 8.13261 11.4473 8.25979 11.3536 8.35355C11.2598 8.44732 11.1326 8.5 11 8.5C10.8674 8.5 10.7402 8.44732 10.6464 8.35355C10.5527 8.25979 10.5 8.13261 10.5 8C10.5 7.86739 10.5527 7.74021 10.6464 7.64645C10.7402 7.55268 10.8674 7.5 11 7.5ZM12.5 8C12.5 7.86739 12.5527 7.74021 12.6464 7.64645C12.7402 7.55268 12.8674 7.5 13 7.5C13.1326 7.5 13.2598 7.55268 13.3536 7.64645C13.4473 7.74021 13.5 7.86739 13.5 8C13.5 8.13261 13.4473 8.25979 13.3536 8.35355C13.2598 8.44732 13.1326 8.5 13 8.5C12.8674 8.5 12.7402 8.44732 12.6464 8.35355C12.5527 8.25979 12.5 8.13261 12.5 8ZM12.2656 9.23438C12.3281 9.29688 12.4531 9.4 12.6 9.4875C12.7531 9.57812 12.8938 9.625 13 9.625C13.2063 9.625 13.375 9.79375 13.375 10C13.375 10.2063 13.2063 10.375 13 10.375C12.7031 10.375 12.4281 10.2562 12.225 10.1375C12.1469 10.0906 12.0719 10.0406 12.0031 9.99375C11.6125 10.2812 11.2188 10.375 11 10.375C10.7937 10.375 10.625 10.2063 10.625 10C10.625 9.79375 10.7937 9.625 11 9.625C11.0656 9.625 11.4031 9.56563 11.7344 9.23438C11.8812 9.0875 12.1188 9.0875 12.2656 9.23438ZM13.5 13.5C14.2469 13.5 14.9313 13.775 15.4563 14.225C17.5094 14.8625 19 16.7781 19 19.0375C19 19.5688 18.5687 19.9969 18.0406 19.9969H12.5C12.5 19.7219 12.275 19.4969 12 19.4969C11.725 19.4969 11.5 19.7219 11.5 19.9969H5.95938C5.43125 20 5 19.5687 5 19.0406C5 16.7781 6.49063 14.8656 8.54375 14.2281C9.06875 13.775 9.75313 13.5 10.5 13.5H13.5ZM11.5 18C11.5 18.1326 11.5527 18.2598 11.6464 18.3536C11.7402 18.4473 11.8674 18.5 12 18.5C12.1326 18.5 12.2598 18.4473 12.3536 18.3536C12.4473 18.2598 12.5 18.1326 12.5 18C12.5 17.8674 12.4473 17.7402 12.3536 17.6464C12.2598 17.5527 12.1326 17.5 12 17.5C11.8674 17.5 11.7402 17.5527 11.6464 17.6464C11.5527 17.7402 11.5 17.8674 11.5 18ZM9 16.5C9.825 16.1687 10.7063 16 11.5969 16H12.4031C13.2937 16 14.175 16.1687 15 16.5C15 15.6719 14.3281 15 13.5 15H10.5C9.67188 15 9 15.6719 9 16.5Z" fill="black"/>
</svg>
