<svg width="24" height="24" viewBox="0 0 24 24" fill="none" xmlns="http://www.w3.org/2000/svg">
<path d="M5 8C5 6.93913 5.42143 5.92172 6.17157 5.17157C6.92172 4.42143 7.93913 4 9 4C10.0609 4 11.0783 4.42143 11.8284 5.17157C12.5786 5.92172 13 6.93913 13 8C13 9.06087 12.5786 10.0783 11.8284 10.8284C11.0783 11.5786 10.0609 12 9 12C7.93913 12 6.92172 11.5786 6.17157 10.8284C5.42143 10.0783 5 9.06087 5 8ZM2 19.0719C2 15.9937 4.49375 13.5 7.57188 13.5H10.4281C11.7906 13.5 13.0406 13.9906 14.0094 14.8031C14.0031 14.8688 14 14.9344 14 15V19C14 19.3656 14.0969 19.7063 14.2688 20H2.92813C2.41563 20 2 19.5844 2 19.0719ZM17.5 12.5V14H18H19.5H21C21.5531 14 22 14.4469 22 15V19C22 19.5531 21.5531 20 21 20H16C15.4469 20 15 19.5531 15 19V15C15 14.4469 15.4469 14 16 14V12.5C16 11.1187 17.1187 10 18.5 10C19.8813 10 21 11.1187 21 12.5H19.5C19.5 11.9469 19.0531 11.5 18.5 11.5C17.9469 11.5 17.5 11.9469 17.5 12.5Z" fill="black"/>
</svg>
