<svg width="24" height="24" viewBox="0 0 24 24" fill="none" xmlns="http://www.w3.org/2000/svg">
<path d="M12 12C10.2125 12 8.7 10.8281 8.1875 9.20937C8.15313 9.25 8.11875 9.29063 8.07812 9.32812C7.58437 9.82188 6.86563 9.975 6.40313 10.0188C6.15 10.0438 5.94688 9.84063 5.97188 9.5875C6.01562 9.12813 6.16875 8.40625 6.6625 7.9125C6.84375 7.73125 7.05625 7.59688 7.275 7.49375C7.05625 7.39375 6.84375 7.25625 6.6625 7.075C6.16875 6.58438 6.01875 5.86563 5.97188 5.40313C5.94688 5.15 6.15 4.94688 6.40313 4.97188C6.8625 5.01562 7.58437 5.16875 8.07812 5.6625C8.22813 5.8125 8.35 5.9875 8.44375 6.16563C9.10625 4.88125 10.45 4 12 4C14.2094 4 16 5.79063 16 8C16 10.2094 14.2094 12 12 12ZM5 19.0719C5 16.4844 6.7625 14.3125 9.15 13.6844C9.3375 13.6344 9.53125 13.7125 9.64687 13.8656L11.6 16.4688C11.8 16.7344 12.2 16.7344 12.4 16.4688L14.3531 13.8656C14.4688 13.7125 14.6625 13.6344 14.85 13.6844C17.2375 14.3125 19 16.4844 19 19.0719C19 19.5844 18.5844 20 18.0719 20H5.92813C5.41563 20 5 19.5844 5 19.0719ZM10 7C9.725 7 9.5 7.225 9.5 7.5C9.5 7.775 9.725 8 10 8H14C14.275 8 14.5 7.775 14.5 7.5C14.5 7.225 14.275 7 14 7H10Z" fill="black"/>
</svg>
