<svg width="24" height="24" viewBox="0 0 24 24" fill="none" xmlns="http://www.w3.org/2000/svg">
<path d="M12 13C13.1935 13 14.3381 12.5259 15.182 11.682C16.0259 10.8381 16.5 9.69347 16.5 8.5C16.5 7.30653 16.0259 6.16193 15.182 5.31802C14.3381 4.47411 13.1935 4 12 4C10.8065 4 9.66193 4.47411 8.81802 5.31802C7.97411 6.16193 7.5 7.30653 7.5 8.5C7.5 9.69347 7.97411 10.8381 8.81802 11.682C9.66193 12.5259 10.8065 13 12 13ZM9.04063 14C6.25625 14 4 16.2562 4 19.0406C4 19.5719 4.43125 20 4.95938 20H19.0406C19.5719 20 20 19.5687 20 19.0406C20 16.2562 17.7438 14 14.9594 14H9.04063Z" fill="black"/>
</svg>
