<svg width="24" height="24" viewBox="0 0 24 24" fill="none" xmlns="http://www.w3.org/2000/svg">
<path d="M7 5C7.86195 5 8.6886 5.34241 9.2981 5.9519C9.90759 6.5614 10.25 7.38805 10.25 8.25C10.25 9.11195 9.90759 9.9386 9.2981 10.5481C8.6886 11.1576 7.86195 11.5 7 11.5C6.13805 11.5 5.3114 11.1576 4.7019 10.5481C4.09241 9.9386 3.75 9.11195 3.75 8.25C3.75 7.38805 4.09241 6.5614 4.7019 5.9519C5.3114 5.34241 6.13805 5 7 5ZM17 5C17.862 5 18.6886 5.34241 19.2981 5.9519C19.9076 6.5614 20.25 7.38805 20.25 8.25C20.25 9.11195 19.9076 9.9386 19.2981 10.5481C18.6886 11.1576 17.862 11.5 17 11.5C16.138 11.5 15.3114 11.1576 14.7019 10.5481C14.0924 9.9386 13.75 9.11195 13.75 8.25C13.75 7.38805 14.0924 6.5614 14.7019 5.9519C15.3114 5.34241 16.138 5 17 5ZM2 17C2 14.7906 3.79063 13 6 13H8C10.2094 13 12 14.7906 12 17V17.5C12 18.3281 11.3281 19 10.5 19H3.5C2.67188 19 2 18.3281 2 17.5V17ZM16 19C14.8031 19 13.7281 18.475 12.9969 17.6406C13 17.5938 13 17.5469 13 17.5V17C13 15.9094 12.65 14.9031 12.0594 14.0813C12.2406 13.4563 12.8156 13 13.5 13H20.5C21.3281 13 22 13.6719 22 14.5V15C22 17.2094 20.2094 19 18 19H16Z" fill="black"/>
</svg>
