<svg width="24" height="24" viewBox="0 0 24 24" fill="none" xmlns="http://www.w3.org/2000/svg">
<path d="M8 6.19365V7.9999H8.00938C8.00313 8.08115 8 8.16553 8 8.2499V9.4999C8 11.7093 9.79063 13.4999 12 13.4999C14.2094 13.4999 16 11.7093 16 9.4999V8.2499C16 8.16553 15.9969 8.08115 15.9906 7.9999H16V6.19365C16 5.77803 15.7406 5.40303 15.35 5.25615L12.35 4.13115C12.125 4.04678 11.875 4.04678 11.6469 4.13115L8.64687 5.25615C8.25937 5.40303 8 5.7749 8 6.19365ZM14.5 8.9999V9.4999C14.5 10.8812 13.3813 11.9999 12 11.9999C10.6188 11.9999 9.5 10.8812 9.5 9.4999H10.5C11.4313 9.4999 12.2469 8.99053 12.675 8.23428C13.0406 8.6999 13.6094 8.9999 14.25 8.9999H14.5ZM9.41563 14.5062C9.17812 14.253 8.825 14.1343 8.49688 14.2405C6.46875 14.8905 5 16.7937 5 19.0405C5 19.5718 5.43125 19.9999 5.95938 19.9999H18.0406C18.5719 19.9999 19 19.5687 19 19.0405C19 16.7968 17.5312 14.8937 15.5031 14.2405C15.175 14.1343 14.8219 14.253 14.5844 14.5062L12.3656 16.8655C12.1687 17.0749 11.8344 17.0749 11.6375 16.8655L9.41875 14.5062H9.41563ZM11.5 5.4999C11.5 5.3624 11.6125 5.2499 11.75 5.2499H12.25C12.3875 5.2499 12.5 5.3624 12.5 5.4999V5.9999H13C13.1375 5.9999 13.25 6.1124 13.25 6.2499V6.7499C13.25 6.8874 13.1375 6.9999 13 6.9999H12.5V7.4999C12.5 7.6374 12.3875 7.7499 12.25 7.7499H11.75C11.6125 7.7499 11.5 7.6374 11.5 7.4999V6.9999H11C10.8625 6.9999 10.75 6.8874 10.75 6.7499V6.2499C10.75 6.1124 10.8625 5.9999 11 5.9999H11.5V5.4999Z" fill="black"/>
</svg>
