<svg width="24" height="24" viewBox="0 0 24 24" fill="none" xmlns="http://www.w3.org/2000/svg">
<path d="M7.30938 9.19063L11.1469 5.35312C11.3719 5.12812 11.6813 5 12 5C12.3187 5 12.6281 5.12812 12.8531 5.35312L16.6906 9.19063C16.8906 9.39063 17 9.65938 17 9.94063C17 10.525 16.525 11 15.9406 11H14V15C14 15.5531 13.5531 16 13 16H11C10.4469 16 10 15.5531 10 15V11H8.05938C7.475 11 7 10.525 7 9.94063C7 9.65938 7.1125 9.39063 7.30938 9.19063ZM6 17C6.26522 17 6.51957 17.1054 6.70711 17.2929C6.89464 17.4804 7 17.7348 7 18C7 18.2652 6.89464 18.5196 6.70711 18.7071C6.51957 18.8946 6.26522 19 6 19C5.73478 19 5.48043 18.8946 5.29289 18.7071C5.10536 18.5196 5 18.2652 5 18C5 17.7348 5.10536 17.4804 5.29289 17.2929C5.48043 17.1054 5.73478 17 6 17ZM9 17C9.26522 17 9.51957 17.1054 9.70711 17.2929C9.89464 17.4804 10 17.7348 10 18C10 18.2652 9.89464 18.5196 9.70711 18.7071C9.51957 18.8946 9.26522 19 9 19C8.73478 19 8.48043 18.8946 8.29289 18.7071C8.10536 18.5196 8 18.2652 8 18C8 17.7348 8.10536 17.4804 8.29289 17.2929C8.48043 17.1054 8.73478 17 9 17ZM11 18C11 17.7348 11.1054 17.4804 11.2929 17.2929C11.4804 17.1054 11.7348 17 12 17C12.2652 17 12.5196 17.1054 12.7071 17.2929C12.8946 17.4804 13 17.7348 13 18C13 18.2652 12.8946 18.5196 12.7071 18.7071C12.5196 18.8946 12.2652 19 12 19C11.7348 19 11.4804 18.8946 11.2929 18.7071C11.1054 18.5196 11 18.2652 11 18ZM15 17C15.2652 17 15.5196 17.1054 15.7071 17.2929C15.8946 17.4804 16 17.7348 16 18C16 18.2652 15.8946 18.5196 15.7071 18.7071C15.5196 18.8946 15.2652 19 15 19C14.7348 19 14.4804 18.8946 14.2929 18.7071C14.1054 18.5196 14 18.2652 14 18C14 17.7348 14.1054 17.4804 14.2929 17.2929C14.4804 17.1054 14.7348 17 15 17ZM17 18C17 17.7348 17.1054 17.4804 17.2929 17.2929C17.4804 17.1054 17.7348 17 18 17C18.2652 17 18.5196 17.1054 18.7071 17.2929C18.8946 17.4804 19 17.7348 19 18C19 18.2652 18.8946 18.5196 18.7071 18.7071C18.5196 18.8946 18.2652 19 18 19C17.7348 19 17.4804 18.8946 17.2929 18.7071C17.1054 18.5196 17 18.2652 17 18Z" fill="black"/>
</svg>
