<svg width="24" height="24" viewBox="0 0 24 24" fill="none" xmlns="http://www.w3.org/2000/svg">
<path d="M3.21255 4.15955C2.88755 3.9033 2.41568 3.96268 2.15943 4.28768C1.90318 4.61268 1.96255 5.08455 2.28755 5.3408L20.7876 19.8408C21.1126 20.097 21.5844 20.0377 21.8407 19.7127C22.0969 19.3877 22.0376 18.9158 21.7126 18.6596L13.0407 11.8627C14.7469 11.4064 16.0001 9.85018 16.0001 8.00018C16.0001 5.7908 14.2094 4.00018 12.0001 4.00018C9.8188 4.00018 8.04693 5.74393 8.00005 7.91268L3.21255 4.15955ZM10.2594 13.5096C7.32818 13.6689 5.00005 16.1002 5.00005 19.0721C5.00005 19.5845 5.41568 20.0002 5.92818 20.0002H18.0719C18.1938 20.0002 18.3094 19.9783 18.4157 19.9346L10.2594 13.5096Z" fill="black"/>
</svg>
