<svg width="24" height="24" viewBox="0 0 24 24" fill="none" xmlns="http://www.w3.org/2000/svg">
<path d="M12.7063 4.29376C12.3156 3.90314 11.6813 3.90314 11.2906 4.29376L9.29063 6.29376C9.00313 6.58126 8.91875 7.00939 9.075 7.38439C9.23125 7.75939 9.59375 8.00314 10 8.00314H11V11.0031H8V10C8 9.59689 7.75625 9.23126 7.38125 9.07501C7.00625 8.91876 6.57813 9.00626 6.29063 9.29064L4.29063 11.2906C3.9 11.6813 3.9 12.3156 4.29063 12.7063L6.29063 14.7063C6.57813 14.9938 7.00625 15.0781 7.38125 14.9219C7.75625 14.7656 8 14.4031 8 13.9969V13H11V16H10C9.59688 16 9.23125 16.2438 9.075 16.6188C8.91875 16.9938 9.00625 17.4219 9.29063 17.7094L11.2906 19.7094C11.6813 20.1 12.3156 20.1 12.7063 19.7094L14.7063 17.7094C14.9938 17.4219 15.0781 16.9938 14.9219 16.6188C14.7656 16.2438 14.4031 16 13.9969 16H13V13H16V14C16 14.4031 16.2438 14.7688 16.6188 14.925C16.9938 15.0813 17.4219 14.9938 17.7094 14.7094L19.7094 12.7094C20.1 12.3188 20.1 11.6844 19.7094 11.2938L17.7094 9.29376C17.4219 9.00626 16.9938 8.92189 16.6188 9.07814C16.2438 9.23439 16 9.59689 16 10.0031V11.0031H13V8.00001H14C14.4031 8.00001 14.7688 7.75626 14.925 7.38126C15.0813 7.00626 14.9938 6.57814 14.7094 6.29064L12.7094 4.29064L12.7063 4.29376Z" fill="black"/>
</svg>
