<svg width="24" height="24" viewBox="0 0 24 24" fill="none" xmlns="http://www.w3.org/2000/svg">
<path d="M13.8219 12.4938L11.9438 11.8094L9.6875 18H4C3.44687 18 3 18.4469 3 19C3 19.5532 3.44687 20 4 20H20C20.5531 20 21 19.5532 21 19C21 18.4469 20.5531 18 20 18H11.8156L13.8188 12.4938H13.8219ZM17.6062 12.4875L17.5031 12.7719L19.6187 13.5406C20.1844 13.7469 20.8063 13.4094 20.8563 12.8094C21.0594 10.3563 20.1094 7.95002 18.3313 6.29377C18.3938 6.54377 18.4312 6.80315 18.4375 7.06877L18.4438 7.25627C18.5 9.03752 18.2156 10.8125 17.6062 12.4875ZM17.4375 7.0969C17.4031 6.0219 16.7344 5.0719 15.7375 4.67815C15.7094 4.66565 15.6781 4.65627 15.65 4.64377C14.6187 4.27815 13.4688 4.56877 12.7406 5.38752L12.6156 5.52815C11.5125 6.7594 10.6562 8.19377 10.0875 9.75002L9.98438 10.0344L16.5625 12.4282L16.6656 12.1438C17.2312 10.5875 17.4969 8.94065 17.4438 7.2844L17.4375 7.0969ZM6.35 7.52815C6.00312 8.01877 6.2625 8.67815 6.82812 8.8844L9.04688 9.69065L9.15 9.40627C9.75938 7.73127 10.6844 6.18752 11.8719 4.8594L11.9969 4.71877C12.1906 4.50315 12.4062 4.31252 12.6375 4.15002C10.15 4.22815 7.80312 5.46877 6.35 7.52502V7.52815Z" fill="black"/>
</svg>
