<svg width="24" height="24" viewBox="0 0 24 24" fill="none" xmlns="http://www.w3.org/2000/svg">
<path d="M12.1906 4.0248C12.0656 3.99043 11.9344 3.99043 11.8094 4.0248L7.05938 5.2748C6.79063 5.34668 6.58125 5.55918 6.51875 5.83105C6.45625 6.10293 6.55 6.3873 6.7625 6.56855L7.5 7.20293V7.46543C7.5 7.7998 7.66562 8.11543 7.97187 8.25293C8.725 8.59043 10.1156 9.00293 12 9.00293C13.8844 9.00293 15.275 8.59043 16.0281 8.25293C16.3344 8.11543 16.5 7.7998 16.5 7.46543V7.20293L17.2375 6.57168C17.45 6.39043 17.5437 6.10605 17.4812 5.83418C17.4187 5.5623 17.2094 5.34668 16.9406 5.27793L12.1906 4.02793V4.0248ZM12.0938 5.51855L13.0938 5.91855C13.1875 5.95605 13.25 6.0498 13.25 6.1498C13.25 6.6873 13.0312 7.59043 12.0969 7.98105C12.0344 8.00605 11.9656 8.00605 11.9031 7.98105C10.9688 7.59043 10.75 6.6873 10.75 6.1498C10.75 6.04668 10.8125 5.95605 10.9062 5.91855L11.9062 5.51855C11.9656 5.49355 12.0312 5.49355 12.0906 5.51855H12.0938ZM8.06562 9.2748C8.02187 9.50918 8 9.75293 8 9.9998C8 12.2092 9.79063 13.9998 12 13.9998C14.2094 13.9998 16 12.2092 16 9.9998C16 9.75293 15.9781 9.50918 15.9344 9.2748C14.7125 9.74355 13.3875 9.9998 12 9.9998C10.6125 9.9998 9.2875 9.74355 8.06562 9.2748ZM10.8625 15.7217L11.5 16.9998L11.1188 18.5279L9.15625 15.2592C9.0625 15.1029 8.8875 15.0061 8.70625 15.0279C6.61875 15.2748 5 17.0467 5 19.1998C5 19.6404 5.35938 19.9998 5.8 19.9998H11H13H18.2C18.6406 19.9998 19 19.6404 19 19.1998C19 17.0467 17.3813 15.2748 15.2937 15.0279C15.1125 15.0061 14.9375 15.1029 14.8438 15.2592L12.8812 18.5279L12.5 16.9998L13.1375 15.7248C13.3031 15.3936 13.0625 14.9998 12.6906 14.9998H11.3094C10.9375 14.9998 10.6969 15.3904 10.8625 15.7248V15.7217ZM16.2375 16.9217L16.4062 17.4404H16.95C17.0594 17.4404 17.1562 17.5092 17.1875 17.6123C17.2188 17.7154 17.1844 17.8279 17.0969 17.8936L16.6562 18.2123L16.825 18.7311C16.8594 18.8342 16.8219 18.9467 16.7344 19.0123C16.6469 19.0779 16.5281 19.0748 16.4406 19.0123L16 18.6904L15.5594 19.0123C15.4719 19.0748 15.3531 19.0779 15.2656 19.0123C15.1781 18.9467 15.1406 18.8342 15.175 18.7311L15.3438 18.2123L14.9031 17.8936C14.8156 17.8311 14.7781 17.7154 14.8125 17.6123C14.8469 17.5092 14.9438 17.4404 15.05 17.4404H15.5938L15.7625 16.9217C15.7969 16.8186 15.8906 16.7498 16 16.7498C16.1094 16.7498 16.2031 16.8186 16.2375 16.9217Z" fill="black"/>
</svg>
