<svg width="24" height="24" viewBox="0 0 24 24" fill="none" xmlns="http://www.w3.org/2000/svg">
<path d="M3.28135 4.21865C2.9876 3.92803 2.5126 3.92803 2.21885 4.21865C1.9251 4.50928 1.92822 4.9874 2.21885 5.28115L4.46885 7.53115C4.7626 7.8249 5.2376 7.8249 5.52822 7.53115C5.81885 7.2374 5.82197 6.7624 5.52822 6.47178L3.28135 4.21865ZM20.7188 4.21865L18.4688 6.46865C18.1751 6.7624 18.1751 7.2374 18.4688 7.52803C18.7626 7.81865 19.2376 7.82178 19.5282 7.52803L21.7782 5.27803C22.072 4.98428 22.072 4.50928 21.7782 4.21865C21.4845 3.92803 21.0095 3.9249 20.7188 4.21865ZM2.21885 19.7812C2.5126 20.0749 2.9876 20.0749 3.27822 19.7812L5.52822 17.5312C5.82197 17.2374 5.82197 16.7624 5.52822 16.4718C5.23447 16.1812 4.75947 16.178 4.46885 16.4718L2.21885 18.7187C1.9251 19.0124 1.9251 19.4874 2.21885 19.778V19.7812ZM20.7188 19.7812C21.0126 20.0749 21.4876 20.0749 21.7782 19.7812C22.0688 19.4874 22.072 19.0124 21.7782 18.7218L19.5282 16.4718C19.2345 16.178 18.7595 16.178 18.4688 16.4718C18.1782 16.7655 18.1751 17.2405 18.4688 17.5312L20.7188 19.7812ZM12.0001 11.9999C12.5305 11.9999 13.0392 11.7892 13.4143 11.4141C13.7894 11.039 14.0001 10.5303 14.0001 9.9999C14.0001 9.46947 13.7894 8.96076 13.4143 8.58569C13.0392 8.21062 12.5305 7.9999 12.0001 7.9999C11.4697 7.9999 10.961 8.21062 10.5859 8.58569C10.2108 8.96076 10.0001 9.46947 10.0001 9.9999C10.0001 10.5303 10.2108 11.039 10.5859 11.4141C10.961 11.7892 11.4697 11.9999 12.0001 11.9999ZM8.62822 14.4999C8.54385 14.7343 8.5001 14.9874 8.5001 15.2499C8.5001 15.6655 8.83447 15.9999 9.2501 15.9999H14.7501C15.1657 15.9999 15.5001 15.6655 15.5001 15.2499C15.5001 14.9874 15.4563 14.7343 15.372 14.4999C15.3563 14.4562 15.3407 14.4155 15.322 14.3749C15.0282 13.678 14.3907 13.1593 13.6251 13.0312C13.5032 13.0093 13.3782 12.9999 13.2501 12.9999H10.7501C10.622 12.9999 10.497 13.0093 10.3751 13.0312C10.3501 13.0343 10.322 13.0405 10.297 13.0468C9.51885 13.2062 8.8876 13.7655 8.62822 14.4999ZM7.49385 10.9999C7.69083 10.9999 7.88588 10.9611 8.06787 10.8857C8.24986 10.8103 8.41522 10.6999 8.55451 10.5606C8.6938 10.4213 8.80429 10.2559 8.87967 10.0739C8.95505 9.89194 8.99385 9.69689 8.99385 9.4999C8.99385 9.30292 8.95505 9.10787 8.87967 8.92588C8.80429 8.74389 8.6938 8.57853 8.55451 8.43924C8.41522 8.29996 8.24986 8.18947 8.06787 8.11408C7.88588 8.0387 7.69083 7.9999 7.49385 7.9999C7.29687 7.9999 7.10181 8.0387 6.91982 8.11408C6.73783 8.18947 6.57248 8.29996 6.43319 8.43924C6.2939 8.57853 6.18341 8.74389 6.10803 8.92588C6.03265 9.10787 5.99385 9.30292 5.99385 9.4999C5.99385 9.69689 6.03265 9.89194 6.10803 10.0739C6.18341 10.2559 6.2939 10.4213 6.43319 10.5606C6.57248 10.6999 6.73783 10.8103 6.91982 10.8857C7.10181 10.9611 7.29687 10.9999 7.49385 10.9999ZM6.66572 11.9999C5.74697 11.9999 5.0001 12.7468 5.0001 13.6655C5.0001 14.1249 5.37197 14.4999 5.83447 14.4999H7.5876C7.8376 13.4343 8.6126 12.5718 9.6251 12.1999C9.39072 12.0718 9.11885 11.9999 8.83447 11.9999H6.66572ZM18.1657 14.4999C18.6251 14.4999 19.0001 14.128 19.0001 13.6655C19.0001 12.7437 18.2532 11.9999 17.3345 11.9999H15.1657C14.8782 11.9999 14.6095 12.0718 14.3751 12.1999C15.3876 12.5718 16.1626 13.4343 16.4126 14.4999H18.1657ZM16.5001 10.9999C16.6971 10.9999 16.8921 10.9611 17.0741 10.8857C17.2561 10.8103 17.4215 10.6999 17.5608 10.5606C17.7 10.4213 17.8105 10.2559 17.8859 10.0739C17.9613 9.89194 18.0001 9.69689 18.0001 9.4999C18.0001 9.30292 17.9613 9.10787 17.8859 8.92588C17.8105 8.74389 17.7 8.57853 17.5608 8.43924C17.4215 8.29996 17.2561 8.18947 17.0741 8.11408C16.8921 8.0387 16.6971 7.9999 16.5001 7.9999C16.3031 7.9999 16.1081 8.0387 15.9261 8.11408C15.7441 8.18947 15.5787 8.29996 15.4394 8.43924C15.3001 8.57853 15.1897 8.74389 15.1143 8.92588C15.0389 9.10787 15.0001 9.30292 15.0001 9.4999C15.0001 9.69689 15.0389 9.89194 15.1143 10.0739C15.1897 10.2559 15.3001 10.4213 15.4394 10.5606C15.5787 10.6999 15.7441 10.8103 15.9261 10.8857C16.1081 10.9611 16.3031 10.9999 16.5001 10.9999Z" fill="black"/>
</svg>
