<svg width="24" height="24" viewBox="0 0 24 24" fill="none" xmlns="http://www.w3.org/2000/svg">
<path d="M12 7.5C13.85 7.5 15.425 8.68437 16.0094 10.3344C16.1656 10.7781 16.25 11.2531 16.25 11.75C16.25 11.75 15 13 12 13C9 13 7.75 11.75 7.75 11.75C7.75 11.2531 7.83437 10.7781 7.99062 10.3344C8.575 8.68437 10.1469 7.5 12 7.5ZM12 6C9.18438 6 6.8375 8.025 6.34688 10.7C3.72188 11.4219 2 12.6313 2 14C2 16.2094 6.47813 18 12 18C17.5219 18 22 16.2094 22 14C22 12.6313 20.2781 11.4219 17.6531 10.7C17.1625 8.025 14.8187 6 12 6ZM12 15C12.0985 15 12.196 15.0194 12.287 15.0571C12.378 15.0948 12.4607 15.15 12.5303 15.2197C12.6 15.2893 12.6552 15.372 12.6929 15.463C12.7306 15.554 12.75 15.6515 12.75 15.75C12.75 15.8485 12.7306 15.946 12.6929 16.037C12.6552 16.128 12.6 16.2107 12.5303 16.2803C12.4607 16.35 12.378 16.4052 12.287 16.4429C12.196 16.4806 12.0985 16.5 12 16.5C11.9015 16.5 11.804 16.4806 11.713 16.4429C11.622 16.4052 11.5393 16.35 11.4697 16.2803C11.4 16.2107 11.3448 16.128 11.3071 16.037C11.2694 15.946 11.25 15.8485 11.25 15.75C11.25 15.6515 11.2694 15.554 11.3071 15.463C11.3448 15.372 11.4 15.2893 11.4697 15.2197C11.5393 15.15 11.622 15.0948 11.713 15.0571C11.804 15.0194 11.9015 15 12 15ZM5.25 14.25C5.25 14.0511 5.32902 13.8603 5.46967 13.7197C5.61032 13.579 5.80109 13.5 6 13.5C6.19891 13.5 6.38968 13.579 6.53033 13.7197C6.67098 13.8603 6.75 14.0511 6.75 14.25C6.75 14.4489 6.67098 14.6397 6.53033 14.7803C6.38968 14.921 6.19891 15 6 15C5.80109 15 5.61032 14.921 5.46967 14.7803C5.32902 14.6397 5.25 14.4489 5.25 14.25ZM18 13.5C18.1989 13.5 18.3897 13.579 18.5303 13.7197C18.671 13.8603 18.75 14.0511 18.75 14.25C18.75 14.4489 18.671 14.6397 18.5303 14.7803C18.3897 14.921 18.1989 15 18 15C17.8011 15 17.6103 14.921 17.4697 14.7803C17.329 14.6397 17.25 14.4489 17.25 14.25C17.25 14.0511 17.329 13.8603 17.4697 13.7197C17.6103 13.579 17.8011 13.5 18 13.5Z" fill="black"/>
</svg>
