<svg width="24" height="24" viewBox="0 0 24 24" fill="none" xmlns="http://www.w3.org/2000/svg">
<path d="M15 4C14.5969 4 14.2312 4.24375 14.075 4.61875C13.9187 4.99375 14.0062 5.42188 14.2906 5.70938L15.5844 7L10.2937 12.2937C9.90312 12.6844 9.90312 13.3188 10.2937 13.7094C10.6844 14.1 11.3187 14.1 11.7094 13.7094L17 8.41563L18.2937 9.70937C18.5813 9.99687 19.0094 10.0813 19.3844 9.925C19.7594 9.76875 20.0031 9.40625 20.0031 9V5C20.0031 4.44687 19.5563 4 19.0031 4H15ZM6.5 5C5.11875 5 4 6.11875 4 7.5V17.5C4 18.8813 5.11875 20 6.5 20H16.5C17.8813 20 19 18.8813 19 17.5V14C19 13.4469 18.5531 13 18 13C17.4469 13 17 13.4469 17 14V17.5C17 17.775 16.775 18 16.5 18H6.5C6.225 18 6 17.775 6 17.5V7.5C6 7.225 6.225 7 6.5 7H10C10.5531 7 11 6.55312 11 6C11 5.44687 10.5531 5 10 5H6.5Z" fill="black"/>
</svg>
