<svg width="24" height="24" viewBox="0 0 24 24" fill="none" xmlns="http://www.w3.org/2000/svg">
<path d="M16.6906 12.1906L12.8531 8.35313C12.6281 8.12813 12.3187 8 12 8C11.6813 8 11.3719 8.12813 11.1469 8.35313L7.30938 12.1906C7.10938 12.3906 7 12.6594 7 12.9406C7 13.525 7.475 14 8.05938 14H10V18C10 18.5531 10.4469 19 11 19H13C13.5531 19 14 18.5531 14 18V14H15.9406C16.525 14 17 13.525 17 12.9406C17 12.6594 16.8875 12.3906 16.6906 12.1906ZM7 7H17C17.5531 7 18 6.55313 18 6C18 5.44687 17.5531 5 17 5H7C6.44687 5 6 5.44687 6 6C6 6.55313 6.44687 7 7 7Z" fill="black"/>
</svg>
