<svg width="24" height="24" viewBox="0 0 24 24" fill="none" xmlns="http://www.w3.org/2000/svg">
<path d="M13.8219 12.4941L11.9438 11.8098L9.6875 18.0004H4C3.44687 18.0004 3 18.4473 3 19.0004C3 19.5535 3.44687 20.0004 4 20.0004H20C20.5531 20.0004 21 19.5535 21 19.0004C21 18.4473 20.5531 18.0004 20 18.0004H11.8156L13.8188 12.4941H13.8219ZM17.6062 12.4879L17.5031 12.7723L19.6187 13.541C20.1844 13.7473 20.8063 13.4098 20.8563 12.8098C21.0594 10.3566 20.1094 7.95039 18.3313 6.29414C18.3938 6.54414 18.4312 6.80352 18.4375 7.06914L18.4438 7.25664C18.5 9.03789 18.2156 10.8129 17.6062 12.4879ZM17.4375 7.09727C17.4031 6.02227 16.7344 5.07227 15.7375 4.67852C15.7094 4.66602 15.6781 4.65664 15.65 4.64414C14.6187 4.27852 13.4688 4.56914 12.7406 5.38789L12.6156 5.52852C11.5125 6.75977 10.6563 8.19414 10.0875 9.75039L9.98438 10.0348L16.5625 12.4285L16.6656 12.1441C17.2312 10.5879 17.4969 8.94102 17.4438 7.28477L17.4375 7.09727ZM6.35 7.52852C6.00312 8.01914 6.2625 8.67852 6.82812 8.88477L9.04688 9.69102L9.15 9.40664C9.75938 7.73164 10.6844 6.18789 11.8719 4.85977L11.9969 4.71914C12.1906 4.50352 12.4062 4.31289 12.6375 4.15039C10.15 4.22852 7.80312 5.46914 6.35 7.52539V7.52852Z" fill="black"/>
</svg>
