<svg width="24" height="24" viewBox="0 0 24 24" fill="none" xmlns="http://www.w3.org/2000/svg">
<path d="M12.1906 4.0248C12.0656 3.99043 11.9344 3.99043 11.8094 4.0248L7.05938 5.2748C6.79063 5.34668 6.58125 5.55918 6.51875 5.83105C6.45625 6.10293 6.55 6.3873 6.7625 6.56855L7.5 7.20293V7.46543C7.5 7.7998 7.66562 8.11543 7.97187 8.25293C8.725 8.59043 10.1156 9.00293 12 9.00293C13.8844 9.00293 15.275 8.59043 16.0281 8.25293C16.3344 8.11543 16.5 7.7998 16.5 7.46543V7.20293L17.2375 6.57168C17.45 6.39043 17.5437 6.10605 17.4812 5.83418C17.4187 5.5623 17.2094 5.34668 16.9406 5.27793L12.1906 4.02793V4.0248ZM10.0531 6.2748C10.1781 6.02793 10.4781 5.92793 10.725 6.0498L12 6.69043L13.275 6.05293C13.5219 5.92793 13.8219 6.03105 13.9469 6.27793C14.0719 6.5248 13.9688 6.8248 13.7219 6.9498L12.2219 7.6998C12.0813 7.77168 11.9156 7.77168 11.775 7.6998L10.275 6.9498C10.0281 6.8248 9.92813 6.5248 10.05 6.27793L10.0531 6.2748ZM8.06562 9.2748C8.02187 9.50918 8 9.75293 8 9.9998C8 12.2092 9.79063 13.9998 12 13.9998C14.2094 13.9998 16 12.2092 16 9.9998C16 9.75293 15.9781 9.50918 15.9344 9.2748C14.7125 9.74355 13.3875 9.9998 12 9.9998C10.6125 9.9998 9.2875 9.74355 8.06562 9.2748ZM10.8625 15.7217L11.5 16.9998L11.1188 18.5279L9.15625 15.2592C9.0625 15.1029 8.8875 15.0061 8.70625 15.0279C6.61875 15.2748 5 17.0467 5 19.1998C5 19.6404 5.35938 19.9998 5.8 19.9998H11H13H18.2C18.6406 19.9998 19 19.6404 19 19.1998C19 17.0467 17.3812 15.2748 15.2937 15.0279C15.1125 15.0061 14.9375 15.1029 14.8438 15.2592L12.8812 18.5279L12.5 16.9998L13.1375 15.7248C13.3031 15.3936 13.0625 14.9998 12.6906 14.9998H11.3094C10.9375 14.9998 10.6969 15.3904 10.8625 15.7248V15.7217ZM15 17.4998C15 17.2248 15.225 16.9998 15.5 16.9998H16.5C16.775 16.9998 17 17.2248 17 17.4998C17 17.7748 16.775 17.9998 16.5 17.9998H15.5C15.225 17.9998 15 17.7748 15 17.4998Z" fill="black"/>
</svg>
