<svg width="24" height="24" viewBox="0 0 24 24" fill="none" xmlns="http://www.w3.org/2000/svg">
<path d="M5 8C5 6.93913 5.42143 5.92172 6.17157 5.17157C6.92172 4.42143 7.93913 4 9 4C10.0609 4 11.0783 4.42143 11.8284 5.17157C12.5786 5.92172 13 6.93913 13 8C13 9.06087 12.5786 10.0783 11.8284 10.8284C11.0783 11.5786 10.0609 12 9 12C7.93913 12 6.92172 11.5786 6.17157 10.8284C5.42143 10.0783 5 9.06087 5 8ZM2 19.0719C2 15.9937 4.49375 13.5 7.57188 13.5H10.4281C13.5063 13.5 16 15.9937 16 19.0719C16 19.5844 15.5844 20 15.0719 20H2.92813C2.41563 20 2 19.5844 2 19.0719ZM17.75 13.75V11.75H15.75C15.3344 11.75 15 11.4156 15 11C15 10.5844 15.3344 10.25 15.75 10.25H17.75V8.25C17.75 7.83437 18.0844 7.5 18.5 7.5C18.9156 7.5 19.25 7.83437 19.25 8.25V10.25H21.25C21.6656 10.25 22 10.5844 22 11C22 11.4156 21.6656 11.75 21.25 11.75H19.25V13.75C19.25 14.1656 18.9156 14.5 18.5 14.5C18.0844 14.5 17.75 14.1656 17.75 13.75Z" fill="black"/>
</svg>
