<svg width="24" height="24" viewBox="0 0 24 24" fill="none" xmlns="http://www.w3.org/2000/svg">
<path d="M14.75 4H19.25C19.6656 4 20 4.33437 20 4.75V9.25C20 9.55312 19.8188 9.82812 19.5375 9.94375C19.2563 10.0594 18.9344 9.99687 18.7188 9.78125L17.5 8.5625L14.7812 11.2812C14.4875 11.575 14.0125 11.575 13.7219 11.2812L12.7219 10.2812C12.4281 9.9875 12.4281 9.5125 12.7219 9.22188L15.4406 6.50312L14.2188 5.28125C14.0031 5.06562 13.9406 4.74375 14.0562 4.4625C14.1719 4.18125 14.4469 4 14.75 4ZM9.25 20H4.75C4.33437 20 4 19.6656 4 19.25V14.75C4 14.4469 4.18125 14.1719 4.4625 14.0562C4.74375 13.9406 5.06562 14.0031 5.28125 14.2188L6.5 15.4375L9.21875 12.7188C9.5125 12.425 9.9875 12.425 10.2781 12.7188L11.2781 13.7188C11.5719 14.0125 11.5719 14.4875 11.2781 14.7781L8.55937 17.4969L9.77812 18.7156C9.99375 18.9312 10.0563 19.2531 9.94063 19.5344C9.825 19.8156 9.55 19.9969 9.24687 19.9969L9.25 20Z" fill="black"/>
</svg>
