<svg width="24" height="24" viewBox="0 0 24 24" fill="none" xmlns="http://www.w3.org/2000/svg">
<path d="M12 5C9.2375 5 7 7.2375 7 10V10.5C7 10.775 6.775 11 6.5 11C6.225 11 6 10.775 6 10.5V10C6 6.6875 8.6875 4 12 4C15.3125 4 18 6.6875 18 10V10.5C18 12.4344 16.4344 14 14.5 14H12.5H12H11.5C10.9469 14 10.5 13.5531 10.5 13C10.5 12.4469 10.9469 12 11.5 12H12.5C13.0531 12 13.5 12.4469 13.5 13H14.5C15.8813 13 17 11.8813 17 10.5V10C17 7.2375 14.7625 5 12 5ZM8 10C8 7.79063 9.79063 6 12 6C14.2094 6 16 7.79063 16 10C16 10.4344 15.9313 10.8531 15.8031 11.2438C15.5438 11.6969 15.0562 12 14.5 12H14.2312C13.8844 11.4031 13.2406 11 12.5 11H11.5C10.3969 11 9.5 11.8969 9.5 13C9.5 13.0437 9.5 13.0844 9.50313 13.125C8.5875 12.3938 8 11.2656 8 10ZM12 15H12.5H14.5H14.8C17.1188 15 19 16.8812 19 19.2C19 19.6406 18.6406 20 18.2 20H5.8C5.35938 20 5 19.6406 5 19.2C5 16.8812 6.88125 15 9.2 15H11.5H12Z" fill="black"/>
</svg>
