<svg width="24" height="24" viewBox="0 0 24 24" fill="none" xmlns="http://www.w3.org/2000/svg">
<path d="M7.49995 6.5H15C15.4031 6.5 15.7687 6.74375 15.925 7.11875C16.0812 7.49375 15.9937 7.92187 15.7093 8.20937L13.4593 10.4594L17.6468 14.6469C17.8718 14.8719 18 15.1813 18 15.5C18 15.8187 17.8718 16.1281 17.6468 16.3531L16.3531 17.6469C16.1281 17.8719 15.8187 18 15.5 18C15.1812 18 14.8718 17.8719 14.6468 17.6469L10.4562 13.4563L8.2062 15.7063C7.9187 15.9938 7.49058 16.0781 7.11558 15.9219C6.74058 15.7656 6.49683 15.4031 6.49683 14.9969V7.5C6.49683 6.94687 6.9437 6.5 7.49683 6.5H7.49995Z" fill="black"/>
</svg>
