<svg width="24" height="24" viewBox="0 0 24 24" fill="none" xmlns="http://www.w3.org/2000/svg">
<path d="M9 12C10.0609 12 11.0783 11.5786 11.8284 10.8284C12.5786 10.0783 13 9.06087 13 8C13 6.93913 12.5786 5.92172 11.8284 5.17157C11.0783 4.42143 10.0609 4 9 4C7.93913 4 6.92172 4.42143 6.17157 5.17157C5.42143 5.92172 5 6.93913 5 8C5 9.06087 5.42143 10.0783 6.17157 10.8284C6.92172 11.5786 7.93913 12 9 12ZM7.57188 13.5C4.49375 13.5 2 15.9937 2 19.0719C2 19.5844 2.41563 20 2.92813 20H15.0719C15.1281 20 15.1813 19.9937 15.2375 19.9844C12.8531 18.2625 12.1187 15.5781 12.0156 13.7281C11.5125 13.5781 10.9812 13.5 10.4312 13.5H7.57188ZM17.2219 11.0531L13.4719 12.5531C13.1875 12.6688 13 12.9438 13 13.25C13 15.2281 13.8094 18.525 17.2125 19.9438C17.3969 20.0219 17.6062 20.0219 17.7906 19.9438C21.1906 18.525 22 15.2281 22 13.25C22 12.9438 21.8125 12.6688 21.5281 12.5531L17.7781 11.0531C17.6 10.9812 17.4 10.9812 17.2219 11.0531ZM20.4813 13.75C20.3594 15.3344 19.6313 17.3969 17.5 18.4281V12.5562L20.4813 13.75Z" fill="black"/>
</svg>
