<svg width="24" height="24" viewBox="0 0 24 24" fill="none" xmlns="http://www.w3.org/2000/svg">
<path d="M9 4C10.0609 4 11.0783 4.42143 11.8284 5.17157C12.5786 5.92172 13 6.93913 13 8C13 9.06087 12.5786 10.0783 11.8284 10.8284C11.0783 11.5786 10.0609 12 9 12C7.93913 12 6.92172 11.5786 6.17157 10.8284C5.42143 10.0783 5 9.06087 5 8C5 6.93913 5.42143 5.92172 6.17157 5.17157C6.92172 4.42143 7.93913 4 9 4ZM7.57188 13.5H10.4281C11.5625 13.5 12.6187 13.8406 13.5 14.4219V16.0344C12.9375 16.1125 12.4125 16.3188 11.9844 16.6406C11.4344 17.0531 11 17.7031 11 18.5C11 19.0969 11.2406 19.6062 11.5906 20H2.92813C2.41563 20 2 19.5844 2 19.0719C2 15.9937 4.49375 13.5 7.57188 13.5ZM21.6875 9.14062C21.8844 9.28125 22 9.50938 22 9.75V11.25V16.25C22 16.2875 21.9969 16.325 21.9906 16.3625C21.9969 16.4094 22 16.4531 22 16.5C22 17.3281 21.1031 18 20 18C18.8969 18 18 17.3281 18 16.5C18 15.6719 18.8969 15 20 15C20.1719 15 20.3406 15.0156 20.5 15.0469V12.2906L16 13.7906V18.5C16 19.3281 15.1031 20 14 20C12.8969 20 12 19.3281 12 18.5C12 17.6719 12.8969 17 14 17C14.1719 17 14.3406 17.0156 14.5 17.0469V13.25V11.75C14.5 11.4281 14.7063 11.1406 15.0125 11.0375L21.0125 9.0375C21.2406 8.9625 21.4937 9 21.6875 9.14062Z" fill="black"/>
</svg>
