<svg width="24" height="24" viewBox="0 0 24 24" fill="none" xmlns="http://www.w3.org/2000/svg">
<path d="M3.21243 4.15955C2.88743 3.9033 2.41556 3.96268 2.15931 4.28768C1.90306 4.61268 1.96243 5.08455 2.28743 5.3408L20.7874 19.8408C21.1124 20.097 21.5843 20.0377 21.8406 19.7127C22.0968 19.3877 22.0374 18.9158 21.7124 18.6596L18.9999 16.5346V15.0002V11.5002V5.00018C18.9999 4.44705 18.5531 4.00018 17.9999 4.00018C17.4999 4.00018 13.9999 5.00018 13.9999 9.50018V12.6158L11.5749 10.7158C11.8437 10.2908 11.9999 9.78768 11.9999 9.24705C11.9999 9.04705 11.9781 8.84705 11.9343 8.65018L10.9874 4.3908C10.9312 4.1408 10.6968 3.97518 10.4437 4.0033C10.1906 4.03143 9.99993 4.24393 9.99993 4.50018V8.69393C9.99993 8.86268 9.86243 9.00018 9.69368 9.00018C9.53431 9.00018 9.40306 8.8783 9.38743 8.71893L8.99681 4.45643C8.97493 4.19705 8.75931 4.00018 8.49993 4.00018C8.24056 4.00018 8.02493 4.19705 8.00306 4.45643L7.70931 7.68455L6.99993 7.1283V4.50018C6.99993 4.24393 6.80931 4.03143 6.55306 4.0033C6.29681 3.97518 6.06556 4.14393 6.00931 4.3908L5.64056 6.06268L3.21243 4.15955ZM9.49993 12.9096L5.00306 9.3658C5.06243 10.7471 6.13743 11.8658 7.49993 11.9877V19.0002C7.49993 19.5533 7.94681 20.0002 8.49993 20.0002C9.05306 20.0002 9.49993 19.5533 9.49993 19.0002V12.9096Z" fill="black"/>
</svg>
