<svg width="24" height="24" viewBox="0 0 24 24" fill="none" xmlns="http://www.w3.org/2000/svg">
<path d="M9 12C10.0609 12 11.0783 11.5786 11.8284 10.8284C12.5786 10.0783 13 9.06087 13 8C13 6.93913 12.5786 5.92172 11.8284 5.17157C11.0783 4.42143 10.0609 4 9 4C7.93913 4 6.92172 4.42143 6.17157 5.17157C5.42143 5.92172 5 6.93913 5 8C5 9.06087 5.42143 10.0783 6.17157 10.8284C6.92172 11.5786 7.93913 12 9 12ZM7.57188 13.5C4.49375 13.5 2 15.9937 2 19.0719C2 19.5844 2.41563 20 2.92813 20H12.0875C11.9906 19.725 11.9719 19.425 12.0437 19.1313L12.5125 17.2531C12.6 16.9 12.7812 16.5813 13.0375 16.325L14.2969 15.0656C13.2937 14.0969 11.9313 13.5 10.425 13.5H7.57188ZM21.1812 11.3656C20.6938 10.8781 19.9031 10.8781 19.4125 11.3656L18.4937 12.2844L20.7125 14.5031L21.6313 13.5844C22.1187 13.0969 22.1187 12.3063 21.6313 11.8156L21.1812 11.3656ZM13.7469 17.0312C13.6187 17.1594 13.5281 17.3187 13.4844 17.4969L13.0156 19.375C12.9719 19.5469 13.0219 19.725 13.1469 19.85C13.2719 19.975 13.45 20.025 13.6219 19.9812L15.5 19.5125C15.675 19.4688 15.8375 19.3781 15.9656 19.25L20.0031 15.2094L17.7844 12.9906L13.7469 17.0312Z" fill="black"/>
</svg>
