<svg width="24" height="24" viewBox="0 0 24 24" fill="none" xmlns="http://www.w3.org/2000/svg">
<path d="M8.74995 8.75C8.74995 8.75 9.49995 10 12 10C14.5 10 15.25 8.75 15.25 8.75C15.25 7.25 14.2093 5.5 12 5.5C9.79058 5.5 8.74995 7.25 8.74995 8.75ZM7.4187 7.4875C7.97183 5.475 9.81558 4 12 4C14.1843 4 16.0281 5.475 16.5812 7.4875C19.225 8.09688 21 9.21875 21 10.5C21 12.4344 16.9718 14 12 14C7.02808 14 2.99995 12.4344 2.99995 10.5C2.99995 9.21875 4.77495 8.09688 7.4187 7.4875ZM6.74995 10.5C6.74995 10.3011 6.67093 10.1103 6.53028 9.96967C6.38963 9.82902 6.19886 9.75 5.99995 9.75C5.80104 9.75 5.61027 9.82902 5.46962 9.96967C5.32897 10.1103 5.24995 10.3011 5.24995 10.5C5.24995 10.6989 5.32897 10.8897 5.46962 11.0303C5.61027 11.171 5.80104 11.25 5.99995 11.25C6.19886 11.25 6.38963 11.171 6.53028 11.0303C6.67093 10.8897 6.74995 10.6989 6.74995 10.5ZM18 11.25C18.1989 11.25 18.3896 11.171 18.5303 11.0303C18.6709 10.8897 18.75 10.6989 18.75 10.5C18.75 10.3011 18.6709 10.1103 18.5303 9.96967C18.3896 9.82902 18.1989 9.75 18 9.75C17.801 9.75 17.6103 9.82902 17.4696 9.96967C17.329 10.1103 17.25 10.3011 17.25 10.5C17.25 10.6989 17.329 10.8897 17.4696 11.0303C17.6103 11.171 17.801 11.25 18 11.25ZM12.75 12C12.75 11.8011 12.6709 11.6103 12.5303 11.4697C12.3896 11.329 12.1989 11.25 12 11.25C11.801 11.25 11.6103 11.329 11.4696 11.4697C11.329 11.6103 11.25 11.8011 11.25 12C11.25 12.1989 11.329 12.3897 11.4696 12.5303C11.6103 12.671 11.801 12.75 12 12.75C12.1989 12.75 12.3896 12.671 12.5303 12.5303C12.6709 12.3897 12.75 12.1989 12.75 12ZM5.32183 14.1781L5.45308 13.9C5.89995 14.075 6.3812 14.2312 6.89058 14.3687L6.67808 14.8219L4.42808 19.5719C4.24995 19.9469 3.80308 20.1063 3.42808 19.9281C3.05308 19.75 2.8937 19.3031 3.07183 18.9281L5.32183 14.1781ZM17.3218 14.8219L17.1093 14.3687C17.6187 14.2312 18.1 14.075 18.5468 13.9L18.6781 14.1781L20.9281 18.9281C21.1062 19.3031 20.9468 19.75 20.5718 19.9281C20.1968 20.1063 19.75 19.9469 19.5718 19.5719L17.3218 14.8219Z" fill="black"/>
</svg>
