<svg width="24" height="24" viewBox="0 0 24 24" fill="none" xmlns="http://www.w3.org/2000/svg">
<path d="M14.5 8C14.5 7.64375 14.425 7.30625 14.2906 7H14.25C13.6094 7 13.0406 6.7 12.675 6.23438C12.2469 6.99063 11.4312 7.5 10.5 7.5H9.55C9.51875 7.6625 9.5 7.82812 9.5 8V8.5C9.5 9.88125 10.6187 11 12 11C13.3813 11 14.5 9.88125 14.5 8.5V8ZM8 8C8 5.79063 9.79063 4 12 4C14.2094 4 16 5.79063 16 8V8.34375C16 9.40313 16.4219 10.4219 17.1719 11.1719L17.2937 11.2937C17.425 11.425 17.5 11.6062 17.5 11.7937C17.5 12.1844 17.1844 12.5 16.7937 12.5H12H7.20625C6.81562 12.5 6.5 12.1844 6.5 11.7937C6.5 11.6062 6.575 11.425 6.70625 11.2937L6.82812 11.1719C7.57812 10.4219 8 9.40313 8 8.34375V8ZM14 14V15.3125C13.1375 15.5344 12.5 16.3188 12.5 17.25V18.5C12.5 18.775 12.725 19 13 19H13.5C13.775 19 14 18.775 14 18.5C14 18.225 13.775 18 13.5 18V17.25C13.5 16.6969 13.9469 16.25 14.5 16.25C15.0531 16.25 15.5 16.6969 15.5 17.25V18C15.225 18 15 18.225 15 18.5C15 18.775 15.225 19 15.5 19H16C16.275 19 16.5 18.775 16.5 18.5V17.25C16.5 16.3188 15.8625 15.5344 15 15.3125V14.1062C17.2844 14.5844 19 16.6125 19 19.0375C19 19.5688 18.5687 19.9969 18.0406 19.9969H5.95938C5.43125 20 5 19.5687 5 19.0406C5 16.6125 6.71563 14.5875 9 14.1094V15.575C8.27812 15.7906 7.75 16.4594 7.75 17.2531C7.75 18.2188 8.53438 19.0031 9.5 19.0031C10.4656 19.0031 11.25 18.2188 11.25 17.2531C11.25 16.4594 10.7219 15.7906 10 15.575V14H10.0406H13.9594H14ZM8.75 17.25C8.75 17.0511 8.82902 16.8603 8.96967 16.7197C9.11032 16.579 9.30109 16.5 9.5 16.5C9.69891 16.5 9.88968 16.579 10.0303 16.7197C10.171 16.8603 10.25 17.0511 10.25 17.25C10.25 17.4489 10.171 17.6397 10.0303 17.7803C9.88968 17.921 9.69891 18 9.5 18C9.30109 18 9.11032 17.921 8.96967 17.7803C8.82902 17.6397 8.75 17.4489 8.75 17.25Z" fill="black"/>
</svg>
