<svg width="24" height="24" viewBox="0 0 24 24" fill="none" xmlns="http://www.w3.org/2000/svg">
<path d="M8 6.19365V7.9999H8.00938C8.00313 8.08115 8 8.16553 8 8.2499V8.9999V9.34365C8 10.403 7.57812 11.4218 6.82812 12.1718L6.70625 12.2937C6.575 12.4249 6.5 12.6062 6.5 12.7937C6.5 13.1843 6.81562 13.4999 7.20625 13.4999H12H16.7937C17.1844 13.4999 17.5 13.1843 17.5 12.7937C17.5 12.6062 17.425 12.4249 17.2937 12.2937L17.1719 12.1718C16.4219 11.4218 16 10.403 16 9.34365V8.9999V8.2499C16 8.16553 15.9969 8.08115 15.9906 7.9999H16V6.19365C16 5.77803 15.7406 5.40303 15.35 5.25615L12.35 4.13115C12.125 4.04678 11.875 4.04678 11.6469 4.13115L8.64687 5.25615C8.25937 5.40303 8 5.7749 8 6.19365ZM14.5 8.9999V9.4999C14.5 10.8812 13.3813 11.9999 12 11.9999C10.6188 11.9999 9.5 10.8812 9.5 9.4999H10.5C11.4313 9.4999 12.2469 8.99053 12.675 8.23428C13.0406 8.6999 13.6094 8.9999 14.25 8.9999H14.5ZM9.73125 14.8374C9.53125 14.6249 9.25 14.5062 8.9625 14.5468C6.72188 14.8655 5 16.7937 5 19.1187C5 19.6062 5.39375 19.9999 5.88125 19.9999H18.1187C18.6062 19.9999 19 19.6062 19 19.1187C19 16.7905 17.2781 14.8655 15.0406 14.5468C14.7531 14.5062 14.4688 14.6249 14.2719 14.8374L12.3656 16.8624C12.1687 17.0718 11.8344 17.0718 11.6375 16.8624L9.73125 14.8374ZM11.5 5.4999C11.5 5.3624 11.6125 5.2499 11.75 5.2499H12.25C12.3875 5.2499 12.5 5.3624 12.5 5.4999V5.9999H13C13.1375 5.9999 13.25 6.1124 13.25 6.2499V6.7499C13.25 6.8874 13.1375 6.9999 13 6.9999H12.5V7.4999C12.5 7.6374 12.3875 7.7499 12.25 7.7499H11.75C11.6125 7.7499 11.5 7.6374 11.5 7.4999V6.9999H11C10.8625 6.9999 10.75 6.8874 10.75 6.7499V6.2499C10.75 6.1124 10.8625 5.9999 11 5.9999H11.5V5.4999Z" fill="black"/>
</svg>
