<svg width="24" height="24" viewBox="0 0 24 24" fill="none" xmlns="http://www.w3.org/2000/svg">
<path d="M8 7.9999V6.19365C8 5.77803 8.25938 5.40303 8.65 5.25615L11.65 4.13115C11.875 4.04678 12.125 4.04678 12.3531 4.13115L15.3531 5.25615C15.7437 5.40303 16.0031 5.7749 16.0031 6.19365V7.9999H15.9937C16 8.08115 16.0031 8.16553 16.0031 8.2499V9.4999C16.0031 11.7093 14.2125 13.4999 12.0031 13.4999C9.79375 13.4999 8.00312 11.7093 8.00312 9.4999V8.2499C8.00312 8.16553 8.00625 8.08115 8.0125 7.9999H8ZM9.5 9.4999C9.5 10.8812 10.6188 11.9999 12 11.9999C13.3813 11.9999 14.5 10.8812 14.5 9.4999V8.9999H9.5V9.4999ZM8.49688 14.2405C8.825 14.1343 9.17812 14.253 9.41563 14.5062L11.6344 16.8655C11.8313 17.0749 12.1656 17.0749 12.3625 16.8655L14.5813 14.5062C14.8188 14.253 15.1719 14.1343 15.5 14.2405C17.5312 14.8937 19 16.7937 19 19.0405C19 19.5718 18.5687 19.9999 18.0406 19.9999H5.95938C5.43125 19.9999 5 19.5687 5 19.0405C5 16.7937 6.46875 14.8937 8.49688 14.2405ZM11.5 5.4999V5.9999H11C10.8625 5.9999 10.75 6.1124 10.75 6.2499V6.7499C10.75 6.8874 10.8625 6.9999 11 6.9999H11.5V7.4999C11.5 7.6374 11.6125 7.7499 11.75 7.7499H12.25C12.3875 7.7499 12.5 7.6374 12.5 7.4999V6.9999H13C13.1375 6.9999 13.25 6.8874 13.25 6.7499V6.2499C13.25 6.1124 13.1375 5.9999 13 5.9999H12.5V5.4999C12.5 5.3624 12.3875 5.2499 12.25 5.2499H11.75C11.6125 5.2499 11.5 5.3624 11.5 5.4999Z" fill="black"/>
</svg>
