<svg width="24" height="24" viewBox="0 0 24 24" fill="none" xmlns="http://www.w3.org/2000/svg">
<path d="M14.5 8V8.5C14.5 9.88125 13.3813 11 12 11C10.6188 11 9.5 9.88125 9.5 8.5V8C9.5 7.82812 9.51875 7.6625 9.55 7.5H10C10.8187 7.5 11.5437 7.10625 12 6.5C12.4563 7.10625 13.1812 7.5 14 7.5H14.45C14.4812 7.6625 14.5 7.82812 14.5 8ZM7.625 10C7.84375 10 8.05312 9.95 8.2375 9.85625C8.79375 11.3969 10.2688 12.5 12 12.5C13.7312 12.5 15.2094 11.3969 15.7625 9.85625C15.9469 9.94687 16.1531 10 16.375 10C17.1344 10 17.75 9.38438 17.75 8.625V7.375C17.75 6.61562 17.1344 6 16.375 6C16.0844 6 15.8156 6.09063 15.5938 6.24375C14.9438 4.91563 13.5781 4 12 4C10.4219 4 9.05625 4.91563 8.40625 6.24375C8.18438 6.09063 7.91563 6 7.625 6C6.86563 6 6.25 6.61562 6.25 7.375V8.625C6.25 9.38438 6.86563 10 7.625 10ZM10.0406 14C7.25625 14 5 16.2562 5 19.0406C5 19.5719 5.43125 20 5.95938 20H18.0406C18.5719 20 19 19.5687 19 19.0406C19 16.2562 16.7438 14 13.9594 14H10.0406Z" fill="black"/>
</svg>
