<svg width="24" height="24" viewBox="0 0 24 24" fill="none" xmlns="http://www.w3.org/2000/svg">
<path d="M7.5002 6.5H15.0002C15.4033 6.5 15.7689 6.74375 15.9252 7.11875C16.0814 7.49375 15.9939 7.92187 15.7096 8.20937L13.4596 10.4594L17.6471 14.6469C17.8721 14.8719 18.0002 15.1812 18.0002 15.5C18.0002 15.8188 17.8721 16.1281 17.6471 16.3531L16.3533 17.6469C16.1283 17.8719 15.8189 18 15.5002 18C15.1814 18 14.8721 17.8719 14.6471 17.6469L10.4564 13.4563L8.20645 15.7063C7.91895 15.9938 7.49082 16.0781 7.11582 15.9219C6.74082 15.7656 6.49707 15.4031 6.49707 14.9969V7.5C6.49707 6.94687 6.94395 6.5 7.49707 6.5H7.5002Z" fill="black"/>
</svg>
