<svg width="24" height="24" viewBox="0 0 24 24" fill="none" xmlns="http://www.w3.org/2000/svg">
<path d="M11.425 6H18C19.1031 6 20 6.89688 20 8C20 8.68437 19.6563 9.2875 19.1313 9.65C18.0563 8.62813 16.6 8 15 8C13.8969 8 13 8.89688 13 10V13.125C13.3187 13.0438 13.6562 13 14 13C16.2094 13 18 14.7906 18 17C18 18.1938 17.475 19.2656 16.6469 20H19C20.1031 20 21 19.1031 21 18V14C21 13.0094 20.7594 12.0719 20.3344 11.25C21.3438 10.5219 22 9.3375 22 8C22 5.79063 20.2094 4 18 4H11.425C9.54063 4 7.90937 5.31875 7.5125 7.1625L6.69063 11H8.7375L9.46875 7.58125C9.66875 6.65937 10.4813 6 11.425 6ZM8.52187 12H6.47813L5.40625 17H4.61875C3.5625 17 2.59688 17.5906 2.11875 18.5312C2.04375 18.6719 2 18.8312 2 19C2 19.5531 2.44687 20 3 20H5.98125C5.99375 20 6.00937 20 6.02187 20H7.5C8.32812 20 9 19.3281 9 18.5C9 17.6719 8.32812 17 7.5 17H7.45L8.52187 12ZM17 17C17 16.2044 16.6839 15.4413 16.1213 14.8787C15.5587 14.3161 14.7956 14 14 14C13.2044 14 12.4413 14.3161 11.8787 14.8787C11.3161 15.4413 11 16.2044 11 17C11 17.7956 11.3161 18.5587 11.8787 19.1213C12.4413 19.6839 13.2044 20 14 20C14.7956 20 15.5587 19.6839 16.1213 19.1213C16.6839 18.5587 17 17.7956 17 17ZM13 17C13 16.7348 13.1054 16.4804 13.2929 16.2929C13.4804 16.1054 13.7348 16 14 16C14.2652 16 14.5196 16.1054 14.7071 16.2929C14.8946 16.4804 15 16.7348 15 17C15 17.2652 14.8946 17.5196 14.7071 17.7071C14.5196 17.8946 14.2652 18 14 18C13.7348 18 13.4804 17.8946 13.2929 17.7071C13.1054 17.5196 13 17.2652 13 17Z" fill="black"/>
</svg>
