<svg width="24" height="24" viewBox="0 0 24 24" fill="none" xmlns="http://www.w3.org/2000/svg">
<path d="M12.4094 5.08751C12.7688 5.25001 13 5.60626 13 6.00001V18C13 18.3938 12.7688 18.75 12.4094 18.9125C12.05 19.075 11.6281 19.0094 11.3344 18.7469L7.11875 15H5C3.89688 15 3 14.1031 3 13V11C3 9.89689 3.89688 9.00001 5 9.00001H7.11875L11.3344 5.25314C11.6281 4.99064 12.05 4.92814 12.4094 5.08751ZM16.2812 9.21876L18 10.9375L19.7188 9.21876C20.0125 8.92501 20.4875 8.92501 20.7781 9.21876C21.0688 9.51251 21.0719 9.98751 20.7781 10.2781L19.0594 11.9969L20.7781 13.7156C21.0719 14.0094 21.0719 14.4844 20.7781 14.775C20.4844 15.0656 20.0094 15.0688 19.7188 14.775L18 13.0563L16.2812 14.775C15.9875 15.0688 15.5125 15.0688 15.2219 14.775C14.9313 14.4813 14.9281 14.0063 15.2219 13.7156L16.9406 11.9969L15.2219 10.2781C14.9281 9.98439 14.9281 9.50939 15.2219 9.21876C15.5156 8.92814 15.9906 8.92501 16.2812 9.21876Z" fill="black"/>
</svg>
