<svg width="24" height="24" viewBox="0 0 24 24" fill="none" xmlns="http://www.w3.org/2000/svg">
<path d="M5 4C3.89688 4 3 4.89688 3 6V17C3 18.1031 3.89688 19 5 19H5.5L6 20H8L8.5 19H15.5L16 20H18L18.5 19H19C20.1031 19 21 18.1031 21 17V6C21 4.89688 20.1031 4 19 4H5ZM10 14C10.663 14 11.2989 13.7366 11.7678 13.2678C12.2366 12.7989 12.5 12.163 12.5 11.5C12.5 10.837 12.2366 10.2011 11.7678 9.73223C11.2989 9.26339 10.663 9 10 9C9.33696 9 8.70107 9.26339 8.23223 9.73223C7.76339 10.2011 7.5 10.837 7.5 11.5C7.5 12.163 7.76339 12.7989 8.23223 13.2678C8.70107 13.7366 9.33696 14 10 14ZM10 6.5C11.3261 6.5 12.5979 7.02678 13.5355 7.96447C14.4732 8.90215 15 10.1739 15 11.5C15 12.8261 14.4732 14.0979 13.5355 15.0355C12.5979 15.9732 11.3261 16.5 10 16.5C8.67392 16.5 7.40215 15.9732 6.46447 15.0355C5.52678 14.0979 5 12.8261 5 11.5C5 10.1739 5.52678 8.90215 6.46447 7.96447C7.40215 7.02678 8.67392 6.5 10 6.5ZM18 10.9156V14.5C18 14.775 17.775 15 17.5 15C17.225 15 17 14.775 17 14.5V10.9156C16.4187 10.7094 16 10.1531 16 9.5C16 8.67188 16.6719 8 17.5 8C18.3281 8 19 8.67188 19 9.5C19 10.1531 18.5813 10.7094 18 10.9156Z" fill="black"/>
</svg>
