<svg width="24" height="24" viewBox="0 0 24 24" fill="none" xmlns="http://www.w3.org/2000/svg">
<path d="M5 6C3.89688 6 3 6.89688 3 8V16C3 17.1031 3.89688 18 5 18H13C14.1031 18 15 17.1031 15 16V8C15 6.89688 14.1031 6 13 6H5ZM21 8C21 7.63125 20.7969 7.29375 20.4719 7.11875C20.1469 6.94375 19.7531 6.9625 19.4438 7.16875L16.4438 9.16875L16 9.46562V10V14V14.5344L16.4438 14.8313L19.4438 16.8313C19.75 17.0344 20.1437 17.0563 20.4719 16.8813C20.8 16.7063 21 16.3687 21 16V8ZM7.75 9H11.25C11.6656 9 12 9.33437 12 9.75V13.25C12 13.6656 11.6656 14 11.25 14C10.8344 14 10.5 13.6656 10.5 13.25V11.5594L7.28125 14.7812C6.9875 15.075 6.5125 15.075 6.22187 14.7812C5.93125 14.4875 5.92812 14.0125 6.22187 13.7219L9.44063 10.5031H7.75C7.33437 10.5031 7 10.1688 7 9.75313C7 9.3375 7.33437 9.00313 7.75 9.00313V9Z" fill="black"/>
</svg>
