<svg width="24" height="24" viewBox="0 0 24 24" fill="none" xmlns="http://www.w3.org/2000/svg">
<path d="M4 6C4 5.44687 4.44687 5 5 5H7H9H11C11.5531 5 12 5.44687 12 6C12 6.55313 11.5531 7 11 7V12.3375C10.3687 13.2312 10 14.3219 10 15.5C10 16.2875 10.1656 17.0344 10.4625 17.7125C9.92188 18.4906 9.01875 19 8 19C6.34375 19 5 17.6562 5 16V7C4.44687 7 4 6.55313 4 6ZM7 7V10H9V7H7ZM11 15.5C11 14.3065 11.4741 13.1619 12.318 12.318C13.1619 11.4741 14.3065 11 15.5 11C16.6935 11 17.8381 11.4741 18.682 12.318C19.5259 13.1619 20 14.3065 20 15.5C20 16.6935 19.5259 17.8381 18.682 18.682C17.8381 19.5259 16.6935 20 15.5 20C14.3065 20 13.1619 19.5259 12.318 18.682C11.4741 17.8381 11 16.6935 11 15.5ZM17.6031 14.1469C17.4094 13.9531 17.0906 13.9531 16.8969 14.1469L15 16.0437L14.1031 15.1469C13.9094 14.9531 13.5906 14.9531 13.3969 15.1469C13.2031 15.3406 13.2031 15.6594 13.3969 15.8531L14.6469 17.1031C14.8406 17.2969 15.1594 17.2969 15.3531 17.1031L17.6031 14.8531C17.7969 14.6594 17.7969 14.3406 17.6031 14.1469Z" fill="black"/>
</svg>
