<svg width="24" height="24" viewBox="0 0 24 24" fill="none" xmlns="http://www.w3.org/2000/svg">
<path d="M18.675 5.01604C20.7031 6.66291 22 9.18166 22 12.0004C22 14.8192 20.7031 17.3348 18.675 18.9848C18.3531 19.2473 17.8812 19.1973 17.6187 18.8754C17.3562 18.5535 17.4062 18.0817 17.7281 17.8192C19.4219 16.4442 20.5 14.3504 20.5 12.0004C20.5 9.65041 19.4219 7.55666 17.7281 6.17854C17.4062 5.91604 17.3594 5.44416 17.6187 5.12229C17.8781 4.80041 18.3531 4.75354 18.675 5.01291V5.01604ZM16.7844 7.34416C18.1344 8.44416 19 10.1223 19 12.0004C19 13.8785 18.1344 15.5567 16.7844 16.6567C16.4625 16.9192 15.9906 16.8692 15.7281 16.5473C15.4656 16.2254 15.5156 15.7535 15.8375 15.491C16.8531 14.666 17.5 13.4098 17.5 12.0004C17.5 10.591 16.8531 9.33479 15.8375 8.50666C15.5156 8.24416 15.4688 7.77229 15.7281 7.45041C15.9875 7.12854 16.4625 7.08166 16.7844 7.34104V7.34416ZM14.8938 9.67229C15.5656 10.2223 16 11.0598 16 12.0004C16 12.941 15.5656 13.7785 14.8938 14.3285C14.5719 14.591 14.1 14.541 13.8375 14.2192C13.575 13.8973 13.625 13.4254 13.9469 13.1629C14.2844 12.8879 14.5 12.4692 14.5 12.0004C14.5 11.5317 14.2844 11.1129 13.9469 10.8348C13.625 10.5723 13.5781 10.1004 13.8375 9.77854C14.0969 9.45666 14.5719 9.40979 14.8938 9.66916V9.67229ZM11.4094 5.08791C11.7688 5.25041 12 5.60666 12 6.00041V18.0004C12 18.3942 11.7688 18.7504 11.4094 18.9129C11.05 19.0754 10.6281 19.0098 10.3344 18.7473L6.11875 15.0004H4C2.89688 15.0004 2 14.1035 2 13.0004V11.0004C2 9.89729 2.89688 9.00041 4 9.00041H6.11875L10.3344 5.25354C10.6281 4.99104 11.05 4.92854 11.4094 5.08791Z" fill="black"/>
</svg>
