<svg width="24" height="24" viewBox="0 0 24 24" fill="none" xmlns="http://www.w3.org/2000/svg">
<path d="M3.21268 4.15955C2.88768 3.9033 2.4158 3.96268 2.15955 4.28768C1.9033 4.61268 1.96268 5.08455 2.28768 5.3408L20.7877 19.8408C21.1127 20.097 21.5846 20.0377 21.8408 19.7127C22.0971 19.3877 22.0377 18.9158 21.7127 18.6596L19.0127 16.5439L19.4439 16.8314C19.7502 17.0346 20.1439 17.0564 20.472 16.8814C20.8002 16.7064 21.0002 16.3689 21.0002 16.0002V8.00018C21.0002 7.63143 20.7971 7.29393 20.472 7.11893C20.147 6.94393 19.7533 6.96268 19.4439 7.16893L16.4439 9.16893L16.0002 9.4658V10.0002V14.0002V14.1814L15.0002 13.3971V8.00018C15.0002 6.89705 14.1033 6.00018 13.0002 6.00018H5.55955L3.21268 4.15955ZM14.7189 17.0221L3.00955 7.79705C3.0033 7.86268 3.00018 7.93143 3.00018 8.00018V16.0002C3.00018 17.1033 3.89705 18.0002 5.00018 18.0002H13.0002C13.7314 18.0002 14.3721 17.6064 14.7189 17.0221Z" fill="black"/>
</svg>
