<svg width="24" height="24" viewBox="0 0 24 24" fill="none" xmlns="http://www.w3.org/2000/svg">
<path d="M5 6C5 5.44687 5.44687 5 6 5H8C8.55313 5 9 5.44687 9 6H15C15 5.44687 15.4469 5 16 5H18C18.5531 5 19 5.44687 19 6V8C19 8.55313 18.5531 9 18 9H17.0094L16.8687 9.24687L15.9812 10.8C15.9937 10.8656 16 10.9312 16 11V13C16 13.0688 15.9937 13.1344 15.9812 13.2L16.8687 14.7531L17.0094 15H18C18.5531 15 19 15.4469 19 16V18C19 18.5531 18.5531 19 18 19H16C15.4469 19 15 18.5531 15 18H9C9 18.5531 8.55313 19 8 19H6C5.44687 19 5 18.5531 5 18V16C5 15.4469 5.44687 15 6 15V9C5.44687 9 5 8.55313 5 8V6ZM15.0688 15.6344L14.1344 14H13C12.4469 14 12 13.5531 12 13V11C12 10.4469 12.4469 10 13 10H14.1344L15.0688 8.36562C15.025 8.25312 15 8.13125 15 8H9C9 8.55313 8.55313 9 8 9V15C8.55313 15 9 15.4469 9 16H15C15 15.8719 15.025 15.7469 15.0688 15.6344ZM6.5 6.5V7.5H7.5V6.5H6.5ZM16.5 6.5V7.5H17.5V6.5H16.5ZM7.5 16.5H6.5V17.5H7.5V16.5ZM16.5 16.5V17.5H17.5V16.5H16.5ZM14.5 11.5H13.5V12.5H14.5V11.5Z" fill="black"/>
</svg>
