<svg width="24" height="24" viewBox="0 0 24 24" fill="none" xmlns="http://www.w3.org/2000/svg">
<path d="M11.4719 11.4187L9.725 6.17812C10.2687 6.49062 11.0188 6.75 12 6.75C12.9812 6.75 13.7312 6.49062 14.275 6.17812L12.0781 12.7688C12.0281 12.9219 12 13.0812 12 13.2437V18.5C12 19.3281 12.6719 20 13.5 20H17.5C18.3281 20 19 19.3281 19 18.5V12.4531C19 12.1562 18.9125 11.8687 18.7469 11.6219L17.25 9.37813C17.0844 9.13125 16.9969 8.84375 16.9969 8.54688V8V5.69687V5.5C16.9969 4.67188 16.325 4 15.4969 4H15.3562C15.35 4 15.3437 4 15.3375 4C15.325 4 15.3125 4 15.3 4C14.7188 4 14.2406 4.30312 13.9281 4.5875C13.6375 4.85 13.0375 5.25 12 5.25C10.9625 5.25 10.3625 4.85 10.0719 4.5875C9.75938 4.30312 9.28125 4 8.69688 4C8.68438 4 8.67187 4 8.65937 4C8.65312 4 8.64688 4 8.64062 4H8.5C7.67188 4 7 4.67188 7 5.5V5.69687V8V8.54688C7 8.84375 6.9125 9.13125 6.74688 9.37813L5.25313 11.6219C5.0875 11.8687 5 12.1594 5 12.4531V18.5C5 19.3281 5.67188 20 6.5 20H10.5C10.8094 20 11.0937 19.9062 11.3344 19.7469C11.1219 19.3812 11 18.9531 11 18.5V13.2437C11 12.975 11.0438 12.7094 11.1281 12.4531L11.4719 11.4187ZM15.8531 15.1469L17.3531 16.6469C17.5469 16.8406 17.5469 17.1594 17.3531 17.3531C17.1594 17.5469 16.8406 17.5469 16.6469 17.3531L15.1469 15.8531C14.9531 15.6594 14.9531 15.3406 15.1469 15.1469C15.3406 14.9531 15.6594 14.9531 15.8531 15.1469ZM6.64688 16.6469L8.14687 15.1469C8.34062 14.9531 8.65938 14.9531 8.85313 15.1469C9.04688 15.3406 9.04688 15.6594 8.85313 15.8531L7.35313 17.3531C7.15938 17.5469 6.84063 17.5469 6.64688 17.3531C6.45313 17.1594 6.45313 16.8406 6.64688 16.6469Z" fill="black"/>
</svg>
