<svg width="24" height="24" viewBox="0 0 24 24" fill="none" xmlns="http://www.w3.org/2000/svg">
<path d="M18.675 5.01555C20.7031 6.66242 22 9.18117 22 11.9999C22 14.8187 20.7031 17.3343 18.675 18.9843C18.3531 19.2468 17.8812 19.1968 17.6187 18.8749C17.3562 18.5531 17.4062 18.0812 17.7281 17.8187C19.4219 16.4437 20.5 14.3499 20.5 11.9999C20.5 9.64992 19.4219 7.55617 17.7281 6.17805C17.4062 5.91555 17.3594 5.44367 17.6187 5.1218C17.8781 4.79992 18.3531 4.75305 18.675 5.01242V5.01555ZM16.7844 7.34367C18.1344 8.44367 19 10.1218 19 11.9999C19 13.878 18.1344 15.5562 16.7844 16.6562C16.4625 16.9187 15.9906 16.8687 15.7281 16.5468C15.4656 16.2249 15.5156 15.753 15.8375 15.4906C16.8531 14.6656 17.5 13.4093 17.5 11.9999C17.5 10.5905 16.8531 9.3343 15.8375 8.50617C15.5156 8.24367 15.4688 7.7718 15.7281 7.44992C15.9875 7.12805 16.4625 7.08117 16.7844 7.34055V7.34367ZM14.8938 9.6718C15.5656 10.2218 16 11.0593 16 11.9999C16 12.9405 15.5656 13.778 14.8938 14.328C14.5719 14.5905 14.1 14.5405 13.8375 14.2187C13.575 13.8968 13.625 13.4249 13.9469 13.1624C14.2844 12.8874 14.5 12.4687 14.5 11.9999C14.5 11.5312 14.2844 11.1124 13.9469 10.8343C13.625 10.5718 13.5781 10.0999 13.8375 9.77805C14.0969 9.45617 14.5719 9.4093 14.8938 9.66867V9.6718ZM11.4094 5.08742C11.7688 5.24992 12 5.60617 12 5.99992V17.9999C12 18.3937 11.7688 18.7499 11.4094 18.9124C11.05 19.0749 10.6281 19.0093 10.3344 18.7468L6.11875 14.9999H4C2.89688 14.9999 2 14.103 2 12.9999V10.9999C2 9.8968 2.89688 8.99992 4 8.99992H6.11875L10.3344 5.25305C10.6281 4.99055 11.05 4.92805 11.4094 5.08742Z" fill="black"/>
</svg>
