<svg width="24" height="24" viewBox="0 0 24 24" fill="none" xmlns="http://www.w3.org/2000/svg">
<path d="M3.21243 4.15943C2.88743 3.90318 2.41556 3.96255 2.15931 4.28755C1.90306 4.61255 1.96243 5.08443 2.28743 5.34068L20.7874 19.8407C21.1124 20.0969 21.5843 20.0376 21.8406 19.7126C22.0968 19.3876 22.0374 18.9157 21.7124 18.6594L19.0124 16.5438L19.4437 16.8313C19.7499 17.0344 20.1437 17.0563 20.4718 16.8813C20.7999 16.7063 20.9999 16.3688 20.9999 16.0001V8.00005C20.9999 7.6313 20.7968 7.2938 20.4718 7.1188C20.1468 6.9438 19.7531 6.96255 19.4437 7.1688L16.4437 9.1688L15.9999 9.46568V10.0001V14.0001V14.1813L14.9999 13.3969V8.00005C14.9999 6.89693 14.1031 6.00005 12.9999 6.00005H5.55931L3.21243 4.15943ZM14.7187 17.0219L3.00931 7.79693C3.00306 7.86255 2.99993 7.9313 2.99993 8.00005V16.0001C2.99993 17.1032 3.89681 18.0001 4.99993 18.0001H12.9999C13.7312 18.0001 14.3718 17.6063 14.7187 17.0219Z" fill="black"/>
</svg>
