<svg width="24" height="24" viewBox="0 0 24 24" fill="none" xmlns="http://www.w3.org/2000/svg">
<path d="M3.21255 4.15931C2.88755 3.90306 2.41568 3.96243 2.15943 4.28743C1.90318 4.61243 1.96255 5.08431 2.28755 5.34056L20.7876 19.8406C21.1126 20.0968 21.5844 20.0374 21.8407 19.7124C22.0969 19.3874 22.0376 18.9156 21.7126 18.6593L19.0126 16.5437L19.4438 16.8312C19.7501 17.0343 20.1438 17.0562 20.4719 16.8812C20.8001 16.7062 21.0001 16.3687 21.0001 15.9999V7.99993C21.0001 7.63118 20.7969 7.29368 20.4719 7.11868C20.1469 6.94368 19.7532 6.96243 19.4438 7.16868L16.4438 9.16868L16.0001 9.46556V9.99993V13.9999V14.1812L15.0001 13.3968V7.99993C15.0001 6.89681 14.1032 5.99993 13.0001 5.99993H5.55943L3.21255 4.15931ZM14.7188 17.0218L3.00943 7.79681C3.00318 7.86243 3.00005 7.93118 3.00005 7.99993V15.9999C3.00005 17.1031 3.89693 17.9999 5.00005 17.9999H13.0001C13.7313 17.9999 14.3719 17.6062 14.7188 17.0218Z" fill="black"/>
</svg>
