<svg width="24" height="24" viewBox="0 0 24 24" fill="none" xmlns="http://www.w3.org/2000/svg">
<path d="M3.21249 4.15943C2.88749 3.90318 2.41562 3.96255 2.15937 4.28755C1.90312 4.61255 1.96249 5.08443 2.28749 5.34068L20.7875 19.8407C21.1125 20.0969 21.5844 20.0376 21.8406 19.7126C22.0969 19.3876 22.0375 18.9157 21.7125 18.6594L19.0125 16.5438L19.4437 16.8313C19.75 17.0344 20.1437 17.0563 20.4719 16.8813C20.8 16.7063 21 16.3688 21 16.0001V8.00005C21 7.6313 20.7969 7.2938 20.4719 7.1188C20.1469 6.9438 19.7531 6.96255 19.4437 7.1688L16.4437 9.1688L16 9.46568V10.0001V14.0001V14.1813L15 13.3969V8.00005C15 6.89693 14.1031 6.00005 13 6.00005H5.55937L3.21249 4.15943ZM14.7187 17.0219L3.00937 7.79693C3.00312 7.86255 2.99999 7.9313 2.99999 8.00005V16.0001C2.99999 17.1032 3.89687 18.0001 4.99999 18.0001H13C13.7312 18.0001 14.3719 17.6063 14.7187 17.0219Z" fill="black"/>
</svg>
