<svg width="24" height="24" viewBox="0 0 24 24" fill="none" xmlns="http://www.w3.org/2000/svg">
<path d="M3.21243 4.15955C2.88743 3.9033 2.41556 3.96268 2.15931 4.28768C1.90306 4.61268 1.96243 5.08455 2.28743 5.3408L20.7874 19.8408C21.1124 20.097 21.5843 20.0377 21.8406 19.7127C22.0968 19.3877 22.0374 18.9158 21.7124 18.6596L18.4093 16.0689C19.3968 15.0002 19.9999 13.5721 19.9999 12.0002C19.9999 10.1221 19.1343 8.44393 17.7843 7.34393C17.4624 7.08143 16.9906 7.13143 16.7281 7.4533C16.4656 7.77518 16.5156 8.24705 16.8374 8.50955C17.8531 9.33455 18.4999 10.5908 18.4999 12.0002C18.4999 13.2221 18.0124 14.3283 17.2218 15.1408L16.0312 14.2064C16.6249 13.6596 16.9999 12.8721 16.9999 12.0002C16.9999 11.0596 16.5656 10.2221 15.8937 9.67205C15.5718 9.40955 15.0999 9.45955 14.8374 9.78143C14.5749 10.1033 14.6249 10.5752 14.9468 10.8377C15.2843 11.1127 15.4999 11.5314 15.4999 12.0002C15.4999 12.4689 15.2843 12.8877 14.9468 13.1658C14.9062 13.1971 14.8718 13.2346 14.8406 13.2721L12.9999 11.8314V6.00018C12.9999 5.60643 12.7687 5.25018 12.4093 5.08768C12.0499 4.92518 11.6281 4.9908 11.3343 5.2533L8.18118 8.05643L3.21243 4.15955ZM12.9999 15.6658L4.59056 9.0408C3.68118 9.23143 2.99993 10.0346 2.99993 11.0002V13.0002C2.99993 14.1033 3.89681 15.0002 4.99993 15.0002H7.11868L11.3343 18.7471C11.6281 19.0096 12.0499 19.0721 12.4093 18.9127C12.7687 18.7533 12.9999 18.3939 12.9999 18.0002V15.6658Z" fill="black"/>
</svg>
