<svg width="24" height="24" viewBox="0 0 24 24" fill="none" xmlns="http://www.w3.org/2000/svg">
<path d="M14.4094 5.08751C14.7688 5.25001 15 5.60626 15 6.00001V18C15 18.3938 14.7688 18.75 14.4094 18.9125C14.05 19.075 13.6281 19.0094 13.3344 18.7469L9.11875 15H7C5.89688 15 5 14.1031 5 13V11C5 9.89689 5.89688 9.00001 7 9.00001H9.11875L13.3344 5.25314C13.6281 4.99064 14.05 4.92814 14.4094 5.08751ZM17.8938 9.67189C18.5656 10.2219 19 11.0594 19 12C19 12.9406 18.5656 13.7781 17.8938 14.3281C17.5719 14.5906 17.1 14.5406 16.8375 14.2188C16.575 13.8969 16.625 13.425 16.9469 13.1625C17.2844 12.8875 17.5 12.4688 17.5 12C17.5 11.5313 17.2844 11.1125 16.9469 10.8344C16.625 10.5719 16.5781 10.1 16.8375 9.77814C17.0969 9.45626 17.5719 9.40939 17.8938 9.66876V9.67189Z" fill="black"/>
</svg>
