<svg width="24" height="24" viewBox="0 0 24 24" fill="none" xmlns="http://www.w3.org/2000/svg">
<path d="M4 8C4 6.89688 4.89687 6 6 6H18C19.1031 6 20 6.89688 20 8V9H21C21.5531 9 22 9.44688 22 10V14C22 14.5531 21.5531 15 21 15H20V16C20 17.1031 19.1031 18 18 18H6C4.89687 18 4 17.1031 4 16V15H3C2.44687 15 2 14.5531 2 14V10C2 9.44688 2.44687 9 3 9H4V8ZM7.75 8.5C7.33437 8.5 7 8.83437 7 9.25C7 9.66563 7.33437 10 7.75 10H16.25C16.6656 10 17 9.66563 17 9.25C17 8.83437 16.6656 8.5 16.25 8.5H7.75ZM7.75 11.25C7.33437 11.25 7 11.5844 7 12C7 12.4156 7.33437 12.75 7.75 12.75H16.25C16.6656 12.75 17 12.4156 17 12C17 11.5844 16.6656 11.25 16.25 11.25H7.75ZM7.75 14C7.33437 14 7 14.3344 7 14.75C7 15.1656 7.33437 15.5 7.75 15.5H16.25C16.6656 15.5 17 15.1656 17 14.75C17 14.3344 16.6656 14 16.25 14H7.75Z" fill="black"/>
</svg>
