<svg width="24" height="24" viewBox="0 0 24 24" fill="none" xmlns="http://www.w3.org/2000/svg">
<path d="M13.4094 5.08751C13.7688 5.25001 14 5.60626 14 6.00001V18C14 18.3938 13.7688 18.75 13.4094 18.9125C13.05 19.075 12.6281 19.0094 12.3344 18.7469L8.11875 15H6C4.89688 15 4 14.1031 4 13V11C4 9.89689 4.89688 9.00001 6 9.00001H8.11875L12.3344 5.25314C12.6281 4.99064 13.05 4.92814 13.4094 5.08751ZM18.7844 7.34376C20.1344 8.44376 21 10.1219 21 12C21 13.8781 20.1344 15.5563 18.7844 16.6563C18.4625 16.9188 17.9906 16.8688 17.7281 16.5469C17.4656 16.225 17.5156 15.7531 17.8375 15.4906C18.8531 14.6656 19.5 13.4094 19.5 12C19.5 10.5906 18.8531 9.33439 17.8375 8.50626C17.5156 8.24376 17.4687 7.77189 17.7281 7.45001C17.9875 7.12814 18.4625 7.08126 18.7844 7.34064V7.34376ZM16.8938 9.67189C17.5656 10.2219 18 11.0594 18 12C18 12.9406 17.5656 13.7781 16.8938 14.3281C16.5719 14.5906 16.1 14.5406 15.8375 14.2188C15.575 13.8969 15.625 13.425 15.9469 13.1625C16.2844 12.8875 16.5 12.4688 16.5 12C16.5 11.5313 16.2844 11.1125 15.9469 10.8344C15.625 10.5719 15.5781 10.1 15.8375 9.77814C16.0969 9.45626 16.5719 9.40939 16.8938 9.66876V9.67189Z" fill="black"/>
</svg>
