<svg width="24" height="24" viewBox="0 0 24 24" fill="none" xmlns="http://www.w3.org/2000/svg">
<path d="M10.7812 4.6875L11.5562 4.14687C11.5969 4.11875 11.6406 4.09062 11.6844 4.07187C11.7844 4.02187 11.8937 4 12 4C12.1063 4 12.2156 4.02188 12.3156 4.06875C12.3594 4.09063 12.4031 4.11562 12.4438 4.14375L13.2188 4.6875C14.2812 5.43125 15.4625 5.98438 16.7125 6.325L17.4312 6.52187C17.4875 6.5375 17.5437 6.55625 17.5938 6.58437C17.6938 6.6375 17.7781 6.70938 17.8469 6.79688C17.9656 6.95 18.0219 7.15 17.9937 7.35313C17.9812 7.44063 17.9562 7.52187 17.9156 7.59687C17.8625 7.69687 17.7906 7.78125 17.7031 7.85C17.5687 7.95 17.4031 8.00938 17.2312 8.00313H17V9.75625L17.2 9.91563L17.3625 10.0437C18.0219 10.5656 18.7687 10.9688 19.5656 11.2344L20.4688 11.5344C20.5188 11.55 20.5687 11.5719 20.6125 11.5969C20.7094 11.65 20.7938 11.725 20.8563 11.8125C20.9188 11.9 20.9656 12.0031 20.9844 12.1125C21 12.1969 21.0031 12.2844 20.9875 12.3719C20.9719 12.4594 20.9438 12.5406 20.9031 12.6156C20.85 12.7125 20.775 12.7969 20.6875 12.8594C20.6 12.9219 20.4969 12.9688 20.3875 12.9875C20.3375 12.9969 20.2844 13 20.2313 13H19V15.0594C19.6406 15.7719 20.4813 16.2844 21.4188 16.5188C21.75 16.5938 22 16.8938 22 17.25C22 17.6656 21.6656 18 21.25 18H20V19C20 19.5531 19.5531 20 19 20C18.4469 20 18 19.5531 18 19V18H13V19C13 19.5531 12.5531 20 12 20C11.4469 20 11 19.5531 11 19V18H6V19C6 19.5531 5.55313 20 5 20C4.44687 20 4 19.5531 4 19V18H2.75C2.33437 18 2 17.6656 2 17.25C2 16.8938 2.25 16.5938 2.58125 16.5188C3.51875 16.2813 4.35938 15.7719 5 15.0594V13H3.76875C3.71562 13 3.6625 12.9969 3.6125 12.9875C3.50312 12.9656 3.4 12.9219 3.3125 12.8594C3.225 12.7969 3.15 12.7125 3.09375 12.6156C3.05313 12.5406 3.02187 12.4594 3.00937 12.3719C2.99687 12.2844 2.99688 12.1969 3.0125 12.1125C3.03438 12.0031 3.07812 11.9 3.14062 11.8125C3.20312 11.725 3.2875 11.65 3.38437 11.5969C3.42812 11.5719 3.47813 11.55 3.52813 11.5344L4.43125 11.2344C5.22813 10.9688 5.975 10.5656 6.63438 10.0437L6.79688 9.91563L6.99687 9.75625V9.5V8H6.7625C6.59062 8.00313 6.425 7.94687 6.29063 7.84687C6.20313 7.78125 6.13125 7.69687 6.07812 7.59375C6.04062 7.51875 6.0125 7.4375 6 7.35C5.97188 7.14687 6.02812 6.95 6.14687 6.79375C6.2125 6.70625 6.29688 6.63437 6.4 6.58125C6.45 6.55625 6.50625 6.53437 6.5625 6.51875L7.28125 6.32188C8.5375 5.98438 9.71875 5.43125 10.7812 4.6875ZM15 8H12H9V10H11.25H12.75H15V8ZM7 13V15H11.25H12H12.75H17V13H12.75H12H11.25H7Z" fill="black"/>
</svg>
