<svg width="24" height="24" viewBox="0 0 24 24" fill="none" xmlns="http://www.w3.org/2000/svg">
<path d="M21.7063 5.70627C22.097 5.31565 22.097 4.68127 21.7063 4.29065C21.3157 3.90002 20.6813 3.90002 20.2907 4.29065L15.0313 9.55315C14.4376 9.20315 13.7407 9.00002 13.0001 9.00002C12.3501 9.00002 11.7376 9.15627 11.1938 9.43127C10.9845 9.53752 10.9095 9.78752 10.9532 10.0188C10.9845 10.175 11.0001 10.3375 11.0001 10.5C11.0001 11.8813 9.88135 13 8.5001 13C8.1376 13 7.79072 12.9219 7.47822 12.7813C7.24697 12.6781 6.95947 12.7063 6.8126 12.9156C6.3001 13.6469 6.0001 14.5375 6.0001 15.5C6.0001 15.9688 6.07197 16.4219 6.20635 16.8469L7.6001 15.8C8.19697 15.3531 9.03447 15.4125 9.55947 15.9406L10.0595 16.4406C10.5876 16.9688 10.647 17.8031 10.2001 18.4L9.15322 19.7938C9.57822 19.9281 10.0313 20 10.5001 20C11.4626 20 12.3532 19.7 13.0813 19.1844C13.2907 19.0375 13.3188 18.7531 13.2157 18.5188C13.0751 18.2063 12.997 17.8625 12.997 17.4969C12.997 16.1156 14.1157 14.9969 15.497 14.9969C15.6626 14.9969 15.8251 15.0125 15.9782 15.0438C16.2095 15.0875 16.4595 15.0125 16.5657 14.8032C16.8407 14.2594 16.997 13.6469 16.997 12.9969C16.997 12.2563 16.7938 11.5594 16.4438 10.9656L21.7063 5.70627ZM18.2501 5.50002C18.449 5.50002 18.6398 5.42101 18.7804 5.28035C18.9211 5.1397 19.0001 4.94894 19.0001 4.75002C19.0001 4.55111 18.9211 4.36035 18.7804 4.21969C18.6398 4.07904 18.449 4.00002 18.2501 4.00002C18.0512 4.00002 17.8604 4.07904 17.7198 4.21969C17.5791 4.36035 17.5001 4.55111 17.5001 4.75002C17.5001 4.94894 17.5791 5.1397 17.7198 5.28035C17.8604 5.42101 18.0512 5.50002 18.2501 5.50002ZM12.7813 5.28127C13.0751 4.98752 13.0751 4.51252 12.7813 4.2219C12.4876 3.93127 12.0126 3.92815 11.722 4.2219L2.21885 13.7188C1.9251 14.0125 1.9251 14.4875 2.21885 14.7781C2.5126 15.0688 2.9876 15.0719 3.27822 14.7781L12.7813 5.28127ZM16.7501 7.00002C16.949 7.00002 17.1398 6.92101 17.2804 6.78035C17.4211 6.6397 17.5001 6.44894 17.5001 6.25002C17.5001 6.05111 17.4211 5.86035 17.2804 5.71969C17.1398 5.57904 16.949 5.50002 16.7501 5.50002C16.5512 5.50002 16.3604 5.57904 16.2198 5.71969C16.0791 5.86035 16.0001 6.05111 16.0001 6.25002C16.0001 6.44894 16.0791 6.6397 16.2198 6.78035C16.3604 6.92101 16.5512 7.00002 16.7501 7.00002ZM20.5001 9.25002C20.5001 9.05111 20.4211 8.86035 20.2804 8.71969C20.1398 8.57904 19.949 8.50002 19.7501 8.50002C19.5512 8.50002 19.3604 8.57904 19.2198 8.71969C19.0791 8.86035 19.0001 9.05111 19.0001 9.25002C19.0001 9.44894 19.0791 9.6397 19.2198 9.78035C19.3604 9.92101 19.5512 10 19.7501 10C19.949 10 20.1398 9.92101 20.2804 9.78035C20.4211 9.6397 20.5001 9.44894 20.5001 9.25002ZM22.0001 7.75002C22.0001 7.55111 21.9211 7.36035 21.7804 7.21969C21.6398 7.07904 21.449 7.00002 21.2501 7.00002C21.0512 7.00002 20.8604 7.07904 20.7198 7.21969C20.5791 7.36035 20.5001 7.55111 20.5001 7.75002C20.5001 7.94894 20.5791 8.1397 20.7198 8.28035C20.8604 8.42101 21.0512 8.50002 21.2501 8.50002C21.449 8.50002 21.6398 8.42101 21.7804 8.28035C21.9211 8.1397 22.0001 7.94894 22.0001 7.75002ZM8.2001 16.6L6.2001 18.1C6.08447 18.1875 6.0126 18.3188 6.0001 18.4656C5.9876 18.6125 6.04385 18.7531 6.14385 18.8531L7.14385 19.8531C7.24697 19.9563 7.3876 20.0094 7.53135 19.9969C7.6751 19.9844 7.80947 19.9156 7.89697 19.7969L9.39697 17.7969C9.54697 17.5969 9.5251 17.3188 9.3501 17.1438L8.8501 16.6438C8.6751 16.4688 8.39697 16.4469 8.19697 16.5969L8.2001 16.6Z" fill="black"/>
</svg>
