<svg width="24" height="24" viewBox="0 0 24 24" fill="none" xmlns="http://www.w3.org/2000/svg">
<path d="M3.21268 4.15943C2.88768 3.90318 2.4158 3.96255 2.15955 4.28755C1.9033 4.61255 1.96268 5.08443 2.28768 5.34068L20.7877 19.8407C21.1127 20.0969 21.5846 20.0376 21.8408 19.7126C22.0971 19.3876 22.0377 18.9157 21.7127 18.6594L18.4095 16.0688C19.397 15.0001 20.0002 13.5719 20.0002 12.0001C20.0002 10.1219 19.1346 8.4438 17.7846 7.3438C17.4627 7.0813 16.9908 7.1313 16.7283 7.45318C16.4658 7.77505 16.5158 8.24693 16.8377 8.50943C17.8533 9.33443 18.5002 10.5907 18.5002 12.0001C18.5002 13.2219 18.0127 14.3282 17.2221 15.1407L16.0314 14.2063C16.6252 13.6594 17.0002 12.8719 17.0002 12.0001C17.0002 11.0594 16.5658 10.2219 15.8939 9.67193C15.5721 9.40943 15.1002 9.45943 14.8377 9.7813C14.5752 10.1032 14.6252 10.5751 14.9471 10.8376C15.2845 11.1126 15.5002 11.5313 15.5002 12.0001C15.5002 12.4688 15.2845 12.8876 14.9471 13.1657C14.9064 13.1969 14.8721 13.2344 14.8408 13.2719L13.0002 11.8313V6.00005C13.0002 5.6063 12.7689 5.25005 12.4096 5.08755C12.0502 4.92505 11.6283 4.99068 11.3346 5.25318L8.18143 8.0563L3.21268 4.15943ZM13.0002 15.6657L4.5908 9.04068C3.68143 9.2313 3.00018 10.0344 3.00018 11.0001V13.0001C3.00018 14.1032 3.89705 15.0001 5.00018 15.0001H7.11893L11.3346 18.7469C11.6283 19.0094 12.0502 19.0719 12.4096 18.9126C12.7689 18.7532 13.0002 18.3938 13.0002 18.0001V15.6657Z" fill="black"/>
</svg>
