<svg width="24" height="24" viewBox="0 0 24 24" fill="none" xmlns="http://www.w3.org/2000/svg">
<path d="M3.21268 4.15937C2.88768 3.90312 2.4158 3.96249 2.15955 4.28749C1.9033 4.61249 1.96268 5.08437 2.28768 5.34062L20.7877 19.8406C21.1127 20.0969 21.5846 20.0375 21.8408 19.7125C22.0971 19.3875 22.0377 18.9156 21.7127 18.6594L18.4095 16.0687C19.397 15 20.0002 13.5719 20.0002 12C20.0002 10.1219 19.1346 8.44374 17.7846 7.34374C17.4627 7.08124 16.9908 7.13124 16.7283 7.45312C16.4658 7.77499 16.5158 8.24687 16.8377 8.50937C17.8533 9.33437 18.5002 10.5906 18.5002 12C18.5002 13.2219 18.0127 14.3281 17.2221 15.1406L16.0314 14.2062C16.6252 13.6594 17.0002 12.8719 17.0002 12C17.0002 11.0594 16.5658 10.2219 15.8939 9.67187C15.5721 9.40937 15.1002 9.45937 14.8377 9.78124C14.5752 10.1031 14.6252 10.575 14.9471 10.8375C15.2845 11.1125 15.5002 11.5312 15.5002 12C15.5002 12.4687 15.2845 12.8875 14.9471 13.1656C14.9064 13.1969 14.8721 13.2344 14.8408 13.2719L13.0002 11.8312V5.99999C13.0002 5.60624 12.7689 5.24999 12.4096 5.08749C12.0502 4.92499 11.6283 4.99062 11.3346 5.25312L8.18143 8.05624L3.21268 4.15937ZM13.0002 15.6656L4.5908 9.04062C3.68143 9.23124 3.00018 10.0344 3.00018 11V13C3.00018 14.1031 3.89705 15 5.00018 15H7.11893L11.3346 18.7469C11.6283 19.0094 12.0502 19.0719 12.4096 18.9125C12.7689 18.7531 13.0002 18.3937 13.0002 18V15.6656Z" fill="black"/>
</svg>
