<svg width="24" height="24" viewBox="0 0 24 24" fill="none" xmlns="http://www.w3.org/2000/svg">
<path d="M14.4094 5.0869C14.7688 5.2494 15 5.60565 15 5.9994V17.9994C15 18.3932 14.7688 18.7494 14.4094 18.9119C14.05 19.0744 13.6281 19.0088 13.3344 18.7463L9.11875 14.9994H7C5.89688 14.9994 5 14.1025 5 12.9994V10.9994C5 9.89628 5.89688 8.9994 7 8.9994H9.11875L13.3344 5.25253C13.6281 4.99003 14.05 4.92753 14.4094 5.0869ZM17.8938 9.67128C18.5656 10.2213 19 11.0588 19 11.9994C19 12.94 18.5656 13.7775 17.8938 14.3275C17.5719 14.59 17.1 14.54 16.8375 14.2182C16.575 13.8963 16.625 13.4244 16.9469 13.1619C17.2844 12.8869 17.5 12.4682 17.5 11.9994C17.5 11.5307 17.2844 11.1119 16.9469 10.8338C16.625 10.5713 16.5781 10.0994 16.8375 9.77753C17.0969 9.45565 17.5719 9.40878 17.8938 9.66815V9.67128Z" fill="black"/>
</svg>
