<svg width="24" height="24" viewBox="0 0 24 24" fill="none" xmlns="http://www.w3.org/2000/svg">
<path d="M14.7063 4.29376C14.3156 3.90314 13.6812 3.90314 13.2906 4.29376C12.9 4.68439 12.9 5.31876 13.2906 5.70939L13.5844 6.00314L4.87813 14.7063C4.31563 15.2688 4 16.0313 4 16.8281V17C4 18.6563 5.34375 20 7 20H7.17188C7.96875 20 8.73125 19.6844 9.29375 19.1219L18 10.4156L18.2937 10.7094C18.6844 11.1 19.3188 11.1 19.7094 10.7094C20.1 10.3188 20.1 9.68439 19.7094 9.29376L18.7094 8.29376L15.7094 5.29376L14.7094 4.29376H14.7063ZM10.4156 12L15 7.41564L16.5844 9.00001L13.5844 12H10.4156Z" fill="black"/>
</svg>
