<svg width="24" height="24" viewBox="0 0 24 24" fill="none" xmlns="http://www.w3.org/2000/svg">
<path d="M21.7063 5.70615C22.097 5.31553 22.097 4.68115 21.7063 4.29053C21.3157 3.8999 20.6813 3.8999 20.2907 4.29053L15.0313 9.55303C14.4376 9.20303 13.7407 8.9999 13.0001 8.9999C12.3501 8.9999 11.7376 9.15615 11.1938 9.43115C10.9845 9.5374 10.9095 9.7874 10.9532 10.0187C10.9845 10.1749 11.0001 10.3374 11.0001 10.4999C11.0001 11.8812 9.88135 12.9999 8.5001 12.9999C8.1376 12.9999 7.79072 12.9218 7.47822 12.7812C7.24697 12.678 6.95947 12.7062 6.8126 12.9155C6.3001 13.6468 6.0001 14.5374 6.0001 15.4999C6.0001 15.9687 6.07197 16.4218 6.20635 16.8468L7.6001 15.7999C8.19697 15.353 9.03447 15.4124 9.55947 15.9405L10.0595 16.4405C10.5876 16.9687 10.647 17.803 10.2001 18.3999L9.15322 19.7937C9.57822 19.928 10.0313 19.9999 10.5001 19.9999C11.4626 19.9999 12.3532 19.6999 13.0813 19.1843C13.2907 19.0374 13.3188 18.753 13.2157 18.5187C13.0751 18.2062 12.997 17.8624 12.997 17.4968C12.997 16.1155 14.1157 14.9968 15.497 14.9968C15.6626 14.9968 15.8251 15.0124 15.9782 15.0437C16.2095 15.0874 16.4595 15.0124 16.5657 14.803C16.8407 14.2593 16.997 13.6468 16.997 12.9968C16.997 12.2562 16.7938 11.5593 16.4438 10.9655L21.7063 5.70615ZM18.2501 5.4999C18.449 5.4999 18.6398 5.42088 18.7804 5.28023C18.9211 5.13958 19.0001 4.94881 19.0001 4.7499C19.0001 4.55099 18.9211 4.36022 18.7804 4.21957C18.6398 4.07892 18.449 3.9999 18.2501 3.9999C18.0512 3.9999 17.8604 4.07892 17.7198 4.21957C17.5791 4.36022 17.5001 4.55099 17.5001 4.7499C17.5001 4.94881 17.5791 5.13958 17.7198 5.28023C17.8604 5.42088 18.0512 5.4999 18.2501 5.4999ZM12.7813 5.28115C13.0751 4.9874 13.0751 4.5124 12.7813 4.22178C12.4876 3.93115 12.0126 3.92803 11.722 4.22178L2.21885 13.7187C1.9251 14.0124 1.9251 14.4874 2.21885 14.778C2.5126 15.0687 2.9876 15.0718 3.27822 14.778L12.7813 5.28115ZM16.7501 6.9999C16.949 6.9999 17.1398 6.92088 17.2804 6.78023C17.4211 6.63958 17.5001 6.44881 17.5001 6.2499C17.5001 6.05099 17.4211 5.86022 17.2804 5.71957C17.1398 5.57892 16.949 5.4999 16.7501 5.4999C16.5512 5.4999 16.3604 5.57892 16.2198 5.71957C16.0791 5.86022 16.0001 6.05099 16.0001 6.2499C16.0001 6.44881 16.0791 6.63958 16.2198 6.78023C16.3604 6.92088 16.5512 6.9999 16.7501 6.9999ZM20.5001 9.2499C20.5001 9.05099 20.4211 8.86022 20.2804 8.71957C20.1398 8.57892 19.949 8.4999 19.7501 8.4999C19.5512 8.4999 19.3604 8.57892 19.2198 8.71957C19.0791 8.86022 19.0001 9.05099 19.0001 9.2499C19.0001 9.44881 19.0791 9.63958 19.2198 9.78023C19.3604 9.92088 19.5512 9.9999 19.7501 9.9999C19.949 9.9999 20.1398 9.92088 20.2804 9.78023C20.4211 9.63958 20.5001 9.44881 20.5001 9.2499ZM22.0001 7.7499C22.0001 7.55099 21.9211 7.36022 21.7804 7.21957C21.6398 7.07892 21.449 6.9999 21.2501 6.9999C21.0512 6.9999 20.8604 7.07892 20.7198 7.21957C20.5791 7.36022 20.5001 7.55099 20.5001 7.7499C20.5001 7.94881 20.5791 8.13958 20.7198 8.28023C20.8604 8.42088 21.0512 8.4999 21.2501 8.4999C21.449 8.4999 21.6398 8.42088 21.7804 8.28023C21.9211 8.13958 22.0001 7.94881 22.0001 7.7499ZM8.2001 16.5999L6.2001 18.0999C6.08447 18.1874 6.0126 18.3187 6.0001 18.4655C5.9876 18.6124 6.04385 18.753 6.14385 18.853L7.14385 19.853C7.24697 19.9562 7.3876 20.0093 7.53135 19.9968C7.6751 19.9843 7.80947 19.9155 7.89697 19.7968L9.39697 17.7968C9.54697 17.5968 9.5251 17.3187 9.3501 17.1437L8.8501 16.6437C8.6751 16.4687 8.39697 16.4468 8.19697 16.5968L8.2001 16.5999Z" fill="black"/>
</svg>
