<svg width="24" height="24" viewBox="0 0 24 24" fill="none" xmlns="http://www.w3.org/2000/svg">
<path d="M14.7063 4.2937C14.3156 3.90308 13.6812 3.90308 13.2906 4.2937C12.9 4.68433 12.9 5.3187 13.2906 5.70933L13.5844 6.00308L4.87813 14.7062C4.31563 15.2687 4 16.0312 4 16.8281V17C4 18.6562 5.34375 20 7 20H7.17188C7.96875 20 8.73125 19.6843 9.29375 19.1218L18 10.4156L18.2937 10.7093C18.6844 11.1 19.3188 11.1 19.7094 10.7093C20.1 10.3187 20.1 9.68433 19.7094 9.2937L18.7094 8.2937L15.7094 5.2937L14.7094 4.2937H14.7063ZM10.4156 12L15 7.41558L16.5844 8.99995L13.5844 12H10.4156Z" fill="black"/>
</svg>
