<svg width="24" height="24" viewBox="0 0 24 24" fill="none" xmlns="http://www.w3.org/2000/svg">
<path d="M5 6C3.89688 6 3 6.89688 3 8V16C3 17.1031 3.89688 18 5 18H13C14.1031 18 15 17.1031 15 16V8C15 6.89688 14.1031 6 13 6H5ZM21 8C21 7.63125 20.7969 7.29375 20.4719 7.11875C20.1469 6.94375 19.7531 6.9625 19.4438 7.16875L16.4438 9.16875L16 9.46562V10V14V14.5344L16.4438 14.8313L19.4438 16.8313C19.75 17.0344 20.1437 17.0563 20.4719 16.8813C20.8 16.7063 21 16.3688 21 16V8ZM10.25 15H6.75C6.33437 15 6 14.6656 6 14.25V10.75C6 10.3344 6.33437 10 6.75 10C7.16563 10 7.5 10.3344 7.5 10.75V12.4406L10.7188 9.21875C11.0125 8.925 11.4875 8.925 11.7781 9.21875C12.0687 9.5125 12.0719 9.9875 11.7781 10.2781L8.55937 13.4969H10.25C10.6656 13.4969 11 13.8312 11 14.2469C11 14.6625 10.6656 14.9969 10.25 14.9969V15Z" fill="black"/>
</svg>
