<svg width="24" height="24" viewBox="0 0 24 24" fill="none" xmlns="http://www.w3.org/2000/svg">
<path d="M7.49375 4.41887C7.4625 4.23449 7.33125 4.08137 7.15312 4.02512C6.975 3.96887 6.77812 4.01574 6.64687 4.14699L5.375 5.41887C4.80312 5.99074 4.54375 6.80012 4.675 7.59699L4.92188 9.07824L3.3625 10.6376C2.49062 11.5095 2 12.6939 2 13.9251C2 16.7282 4.27187 19.0001 7.075 19.0001H19C20.6562 19.0001 22 17.6564 22 16.0001V12.5032C22 10.0157 19.9844 8.00012 17.4969 8.00012C14.9187 8.00012 12.4219 8.92199 10.4656 10.6001L6.8875 13.6689C6.6375 13.8814 6.32188 14.0001 5.99375 14.0001H5.95937C5.3875 14.0001 4.88125 13.6345 4.7 13.0939C4.575 12.7189 4.625 12.3064 4.83437 11.972L6.00938 10.0939L7.40625 10.3282C8.20312 10.4595 9.01562 10.2001 9.58437 9.63137L10.8562 8.35949C10.9875 8.22824 11.0375 8.03137 10.9781 7.85324C10.9187 7.67512 10.7688 7.54387 10.5844 7.51262L7.93437 7.06574L7.49375 4.41887ZM14.5 12.7501C14.6989 12.7501 14.8897 12.8291 15.0303 12.9698C15.171 13.1104 15.25 13.3012 15.25 13.5001C15.25 13.699 15.171 13.8898 15.0303 14.0304C14.8897 14.1711 14.6989 14.2501 14.5 14.2501C14.3011 14.2501 14.1103 14.1711 13.9697 14.0304C13.829 13.8898 13.75 13.699 13.75 13.5001C13.75 13.3012 13.829 13.1104 13.9697 12.9698C14.1103 12.8291 14.3011 12.7501 14.5 12.7501Z" fill="black"/>
</svg>
