<svg width="24" height="24" viewBox="0 0 24 24" fill="none" xmlns="http://www.w3.org/2000/svg">
<path d="M13.6313 5.625C13.6313 6.27813 13.2437 6.84375 12.6875 7.1L16 10L19.2625 9.34688C19.0969 9.10625 19 8.8125 19 8.5C19 7.67188 19.6719 7 20.5 7C21.3281 7 22 7.67188 22 8.5C22 9.3125 21.3562 9.97188 20.55 10L17.0312 17.8219C16.7094 18.5406 15.9938 19 15.2063 19H8.79375C8.00625 19 7.29375 18.5375 6.96875 17.8219L3.45 10C2.64375 9.97188 2 9.3125 2 8.5C2 7.67188 2.67188 7 3.5 7C4.32812 7 5 7.67188 5 8.5C5 8.81563 4.90313 9.10625 4.7375 9.34688L8 10L11.3156 7.09687C10.7625 6.8375 10.3781 6.275 10.3781 5.625C10.3781 4.72812 11.1062 4 12.0031 4C12.9 4 13.6281 4.72812 13.6281 5.625H13.6313Z" fill="black"/>
</svg>
