<svg width="24" height="24" viewBox="0 0 24 24" fill="none" xmlns="http://www.w3.org/2000/svg">
<path d="M16.2938 4.29376C16.6844 3.90314 17.3188 3.90314 17.7094 4.29376L19.7094 6.29376C20.1 6.68439 20.1 7.31876 19.7094 7.70939C19.3406 8.07814 18.75 8.10001 18.3594 7.76876L18.0625 8.06564L16.5375 9.59064C16.25 9.87814 16.1781 10.3063 16.2688 10.7031C16.5625 11.9813 16.2094 13.3781 15.2125 14.375L10.1656 19.4156C9.38438 20.1969 8.11875 20.1969 7.3375 19.4156L4.5875 16.6656C3.80625 15.8844 3.80625 14.6188 4.5875 13.8375L9.63125 8.79064C10.6281 7.79376 12.025 7.44376 13.3031 7.73439C13.6969 7.82501 14.1281 7.75001 14.4125 7.46564L15.9375 5.94064L16.2344 5.64376C15.9031 5.25001 15.9219 4.66251 16.2938 4.29376ZM7.10313 14.8531L9.14687 16.8969C9.34062 17.0906 9.65938 17.0906 9.85313 16.8969L12.8969 13.8531C13.0906 13.6594 13.0906 13.3406 12.8969 13.1469L10.8531 11.1031C10.6594 10.9094 10.3406 10.9094 10.1469 11.1031L7.10313 14.1469C6.90938 14.3406 6.90938 14.6594 7.10313 14.8531Z" fill="black"/>
</svg>
