<svg width="24" height="24" viewBox="0 0 24 24" fill="none" xmlns="http://www.w3.org/2000/svg">
<path d="M3.9814 11.1969V11.1937L3.98765 11.1625C3.9939 11.1344 4.00328 11.0875 4.0189 11.0281C4.05015 10.9094 4.09703 10.7344 4.16265 10.5219C4.30015 10.0938 4.50953 9.53125 4.81265 8.98125C5.4439 7.8375 6.3064 7 7.50015 7C8.4064 7 9.03453 7.45 9.5939 8.3875C10.1877 9.38125 10.5908 10.7437 11.0408 12.2781C11.047 12.3031 11.0564 12.3281 11.0627 12.3531C11.4845 13.7969 11.9502 15.4 12.6877 16.6344C13.472 17.9469 14.6564 18.9969 16.5002 18.9969C18.8064 18.9969 20.1939 17.3344 20.9377 15.9781C21.322 15.2781 21.5814 14.5875 21.7408 14.0781C21.822 13.8219 21.8814 13.6062 21.9189 13.4531C21.9377 13.375 21.9533 13.3156 21.9627 13.2688C21.9689 13.2469 21.972 13.2281 21.9752 13.2156L21.9783 13.2V13.1938V13.1906C21.9783 13.1906 21.9783 13.1906 20.997 12.9937L21.9783 13.1906C22.0877 12.65 21.7345 12.1219 21.1939 12.0125C20.6533 11.9031 20.1252 12.2562 20.0158 12.7969V12.8L20.0095 12.8313C20.0033 12.8594 19.9939 12.9062 19.9783 12.9656C19.947 13.0844 19.9002 13.2594 19.8345 13.4719C19.7002 13.9 19.4877 14.4594 19.1845 15.0094C18.5564 16.1531 17.6908 16.9906 16.497 16.9906C15.5908 16.9906 14.9627 16.5406 14.4033 15.6031C13.8095 14.6094 13.4064 13.2469 12.9564 11.7125C12.9502 11.6875 12.9408 11.6625 12.9345 11.6375C12.5127 10.1937 12.047 8.59063 11.3095 7.35625C10.5283 6.05 9.3439 5 7.50015 5C5.1939 5 3.8064 6.6625 3.06265 8.01875C2.67828 8.71875 2.4189 9.40625 2.2564 9.91563C2.17515 10.1719 2.11578 10.3875 2.07828 10.5406C2.05953 10.6188 2.0439 10.6781 2.03453 10.725C2.02828 10.7469 2.02515 10.7656 2.02203 10.7781L2.0189 10.7937V10.8V10.8031C2.0189 10.8031 2.0189 10.8031 3.00015 11L2.0189 10.8031C1.90953 11.3438 2.26265 11.8719 2.80328 11.9812C3.3439 12.0906 3.87203 11.7375 3.9814 11.1969Z" fill="black"/>
</svg>
