<svg width="24" height="24" viewBox="0 0 24 24" fill="none" xmlns="http://www.w3.org/2000/svg">
<path d="M11 7C11 6.73478 11.1053 6.48043 11.2929 6.29289C11.4804 6.10536 11.7348 6 12 6C12.2652 6 12.5196 6.10536 12.7071 6.29289C12.8946 6.48043 13 6.73478 13 7C13 7.26522 12.8946 7.51957 12.7071 7.70711C12.5196 7.89464 12.2652 8 12 8C11.7348 8 11.4804 7.89464 11.2929 7.70711C11.1053 7.51957 11 7.26522 11 7ZM14.8281 8C14.9375 7.6875 15 7.35 15 7C15 5.34375 13.6562 4 12 4C10.3437 4 8.99999 5.34375 8.99999 7C8.99999 7.35 9.05936 7.6875 9.17186 8H7.74999C7.06249 8 6.46249 8.46875 6.29374 9.1375L4.04374 18.1375C3.93124 18.5844 4.03124 19.0594 4.31562 19.425C4.59999 19.7906 5.03749 20 5.49999 20H18.5C18.9625 20 19.3969 19.7875 19.6812 19.4219C19.9656 19.0563 20.0656 18.5844 19.9531 18.1344L17.7031 9.13438C17.5375 8.46875 16.9375 8 16.25 8H14.8281Z" fill="black"/>
</svg>
