<svg width="24" height="24" viewBox="0 0 24 24" fill="none" xmlns="http://www.w3.org/2000/svg">
<path d="M13 5C13 4.44687 12.5531 4 12 4C11.4469 4 11 4.44687 11 5V19C11 19.5531 11.4469 20 12 20C12.5531 20 13 19.5531 13 19V5ZM19 7C19 6.44687 18.5531 6 18 6C17.4469 6 17 6.44687 17 7V17C17 17.5531 17.4469 18 18 18C18.5531 18 19 17.5531 19 17V7ZM10 8C10 7.44687 9.55313 7 9 7C8.44687 7 8 7.44687 8 8V16C8 16.5531 8.44687 17 9 17C9.55313 17 10 16.5531 10 16V8ZM16 9C16 8.44687 15.5531 8 15 8C14.4469 8 14 8.44687 14 9V15C14 15.5531 14.4469 16 15 16C15.5531 16 16 15.5531 16 15V9ZM7 11C7 10.4469 6.55313 10 6 10C5.44687 10 5 10.4469 5 11V13C5 13.5531 5.44687 14 6 14C6.55313 14 7 13.5531 7 13V11ZM2 12C2 12.2652 2.10536 12.5196 2.29289 12.7071C2.48043 12.8946 2.73478 13 3 13C3.26522 13 3.51957 12.8946 3.70711 12.7071C3.89464 12.5196 4 12.2652 4 12C4 11.7348 3.89464 11.4804 3.70711 11.2929C3.51957 11.1054 3.26522 11 3 11C2.73478 11 2.48043 11.1054 2.29289 11.2929C2.10536 11.4804 2 11.7348 2 12ZM20 12C20 12.2652 20.1054 12.5196 20.2929 12.7071C20.4804 12.8946 20.7348 13 21 13C21.2652 13 21.5196 12.8946 21.7071 12.7071C21.8946 12.5196 22 12.2652 22 12C22 11.7348 21.8946 11.4804 21.7071 11.2929C21.5196 11.1054 21.2652 11 21 11C20.7348 11 20.4804 11.1054 20.2929 11.2929C20.1054 11.4804 20 11.7348 20 12Z" fill="black"/>
</svg>
