<svg width="24" height="24" viewBox="0 0 24 24" fill="none" xmlns="http://www.w3.org/2000/svg">
<path d="M10.1469 9.14692L11.6469 10.6469C11.8406 10.8407 12.1594 10.8407 12.3531 10.6469L13.8531 9.14692C13.9469 9.05317 14 8.92505 14 8.7938V4.54692C14 4.20317 14.3406 3.96255 14.65 4.11567C16.6344 5.0938 18 7.13755 18 9.50005C18 11.7219 16.7938 13.6594 15 14.6969V18.5C15 19.3282 14.3281 20 13.5 20H10.5C9.67188 20 9 19.3282 9 18.5V14.6969C7.20625 13.6594 6 11.7219 6 9.50005C6 7.13755 7.36562 5.0938 9.35 4.11567C9.65937 3.96255 10 4.20317 10 4.54692V8.7938C10 8.92505 10.0531 9.05317 10.1469 9.14692Z" fill="black"/>
</svg>
