<svg width="24" height="24" viewBox="0 0 24 24" fill="none" xmlns="http://www.w3.org/2000/svg">
<path d="M3.21255 4.15937C2.88755 3.90312 2.41568 3.96249 2.15943 4.28749C1.90318 4.61249 1.96255 5.08437 2.28755 5.34062L20.7876 19.8406C21.1126 20.0969 21.5844 20.0375 21.8407 19.7125C22.0969 19.3875 22.0376 18.9156 21.7126 18.6594L13.3282 12.0875L14.2251 11.1906L14.6063 11.5719C15.7782 12.7437 17.6782 12.7437 18.8501 11.5719L19.2032 11.2187C19.3969 11.025 19.3969 10.7062 19.2032 10.5125L18.8501 10.1562C17.7844 9.09062 16.2688 8.75312 14.9157 9.14062C15.3032 7.78749 14.9626 6.27187 13.9001 5.20624L13.5469 4.85312C13.3532 4.65937 13.0344 4.65937 12.8407 4.85312L12.4844 5.20624C11.3126 6.37812 11.3126 8.27812 12.4844 9.44999L12.8094 9.77499L11.8563 10.7281C11.7501 9.87499 11.3719 9.04687 10.7157 8.39062L10.3626 8.03749C10.1688 7.84374 9.85005 7.84374 9.6563 8.03749L9.30318 8.39062C9.20005 8.49374 9.1063 8.60312 9.02193 8.71562L3.21255 4.15937ZM11.1813 14.2344L9.60005 12.9875L8.67818 13.9094C8.57193 13.0562 8.1938 12.2281 7.53755 11.5719L7.1813 11.2187C6.98755 11.025 6.6688 11.025 6.47505 11.2187L6.12193 11.5719C4.95005 12.7437 4.95005 14.6437 6.12193 15.8156L6.44693 16.1406L4.2938 18.2937C3.90318 18.6844 3.90318 19.3187 4.2938 19.7094C4.68443 20.1 5.3188 20.1 5.70943 19.7094L7.86255 17.5562L8.2438 17.9375C9.41568 19.1094 11.3157 19.1094 12.4876 17.9375L12.8407 17.5844C13.0344 17.3906 13.0344 17.0719 12.8407 16.8781L12.4876 16.525C11.8063 15.8437 10.9376 15.4594 10.0469 15.3719L11.1813 14.2375V14.2344ZM18.7501 3.99999C17.2313 3.99999 16.0001 5.23124 16.0001 6.74999V7.49999C16.0001 7.77499 16.2251 7.99999 16.5001 7.99999H17.2501C18.7688 7.99999 20.0001 6.76874 20.0001 5.24999V4.49999C20.0001 4.22499 19.7751 3.99999 19.5001 3.99999H18.7501Z" fill="black"/>
</svg>
