<svg width="24" height="24" viewBox="0 0 24 24" fill="none" xmlns="http://www.w3.org/2000/svg">
<path d="M18.5 4.19057C18.7969 3.92494 19.25 3.93744 19.5312 4.21869L19.7812 4.46869C20.0625 4.74994 20.075 5.20307 19.8094 5.49994L17.1281 8.49682C17.0469 8.58744 17 8.70619 17 8.83119V9.49994C17 9.77494 16.775 9.99994 16.5 9.99994H16.0063C15.8625 9.99994 15.7281 10.0593 15.6344 10.1656L7.14687 19.6531C6.94687 19.8749 6.66563 19.9999 6.36875 19.9999C6.09375 19.9999 5.82812 19.8906 5.63437 19.6937L4.30312 18.3656C4.10938 18.1687 4 17.9062 4 17.6312C4 17.3343 4.125 17.0531 4.34688 16.8562L7.83437 13.7374C7.94062 13.6437 8 13.5062 8 13.3656V12.4999C8 12.2249 8.225 11.9999 8.5 11.9999H9.58125C9.70312 11.9999 9.82188 11.9531 9.91563 11.8718L18.5 4.19057ZM17.5 12.9999C17.6125 12.9999 17.7094 13.0749 17.7406 13.1812L18.2031 14.7968L19.8188 15.2593C19.925 15.2906 20 15.3874 20 15.4999C20 15.6124 19.925 15.7093 19.8188 15.7406L18.2031 16.2031L17.7406 17.8187C17.7094 17.9249 17.6125 17.9999 17.5 17.9999C17.3875 17.9999 17.2906 17.9249 17.2594 17.8187L16.7969 16.2031L15.1812 15.7406C15.075 15.7093 15 15.6124 15 15.4999C15 15.3874 15.075 15.2906 15.1812 15.2593L16.7969 14.7968L17.2594 13.1812C17.2906 13.0749 17.3875 12.9999 17.5 12.9999ZM6.74062 6.18119L7.20312 7.79682L8.81875 8.25932C8.925 8.29057 9 8.38744 9 8.49994C9 8.61244 8.925 8.70932 8.81875 8.74057L7.20312 9.20307L6.74062 10.8187C6.70937 10.9249 6.6125 10.9999 6.5 10.9999C6.3875 10.9999 6.29063 10.9249 6.25938 10.8187L5.79688 9.20307L4.18125 8.74057C4.075 8.70932 4 8.61244 4 8.49994C4 8.38744 4.075 8.29057 4.18125 8.25932L5.79688 7.79682L6.25938 6.18119C6.29063 6.07494 6.3875 5.99994 6.5 5.99994C6.6125 5.99994 6.70937 6.07494 6.74062 6.18119ZM10.5 3.99994C10.6156 3.99994 10.7156 4.07807 10.7438 4.19057L10.9563 5.04369L11.8094 5.25619C11.9219 5.28432 12 5.38432 12 5.49994C12 5.61557 11.9219 5.71557 11.8094 5.74369L10.9563 5.95619L10.7438 6.80932C10.7156 6.92182 10.6156 6.99994 10.5 6.99994C10.3844 6.99994 10.2844 6.92182 10.2562 6.80932L10.0437 5.95619L9.19063 5.74369C9.07812 5.71557 9 5.61557 9 5.49994C9 5.38432 9.07812 5.28432 9.19063 5.25619L10.0437 5.04369L10.2562 4.19057C10.2844 4.07807 10.3844 3.99994 10.5 3.99994Z" fill="black"/>
</svg>
