<svg width="24" height="24" viewBox="0 0 24 24" fill="none" xmlns="http://www.w3.org/2000/svg">
<path d="M11.9719 3.99988C12.4344 3.98738 12.8438 4.29051 12.9656 4.73738L15.2781 13.2124L15.8313 12.1061C16.1687 11.428 16.8625 10.9999 17.6187 10.9999H21C21.5531 10.9999 22 11.4468 22 11.9999C22 12.553 21.5531 12.9999 21 12.9999H17.6187L15.8938 16.4468C15.7094 16.8186 15.3125 17.0343 14.9 16.9936C14.4875 16.953 14.1438 16.6624 14.0344 16.2624L12.1156 9.22801L9.97813 19.2093C9.88125 19.6593 9.49375 19.9843 9.03438 19.9999C8.575 20.0155 8.16563 19.7155 8.04063 19.2749L6.24687 12.9999H3C2.44687 12.9999 2 12.553 2 11.9999C2 11.4468 2.44687 10.9999 3 10.9999H6.24687C7.14062 10.9999 7.925 11.5905 8.16875 12.4499L8.8625 14.8749L11.0219 4.79051C11.1188 4.34051 11.5125 4.01238 11.9719 3.99988Z" fill="black"/>
</svg>
