<svg width="24" height="24" viewBox="0 0 24 24" fill="none" xmlns="http://www.w3.org/2000/svg">
<path d="M10 7C10.3978 7 10.7794 6.84196 11.0607 6.56066C11.342 6.27936 11.5 5.89782 11.5 5.5C11.5 5.10218 11.342 4.72064 11.0607 4.43934C10.7794 4.15804 10.3978 4 10 4C9.60218 4 9.22064 4.15804 8.93934 4.43934C8.65804 4.72064 8.5 5.10218 8.5 5.5C8.5 5.89782 8.65804 6.27936 8.93934 6.56066C9.22064 6.84196 9.60218 7 10 7ZM7.76562 11.725C8.15312 11.5781 8.35 11.1469 8.20312 10.7594C8.05625 10.3719 7.625 10.175 7.2375 10.3219C5.34687 11.0344 4 12.8594 4 15C4 17.7625 6.2375 20 9 20C10.9125 20 12.5719 18.9281 13.4125 17.3531C13.6063 16.9875 13.4688 16.5344 13.1031 16.3375C12.7375 16.1406 12.2844 16.2812 12.0875 16.6469C11.5 17.75 10.3375 18.5 9 18.5C7.06562 18.5 5.5 16.9344 5.5 15C5.5 13.5031 6.44062 12.225 7.76562 11.725ZM12.1187 9.5L12.0594 9.19688C11.9187 8.5 11.3094 8 10.5969 8C9.65625 8 8.95 8.85938 9.13438 9.78125L9.85625 13.3906C10.0437 14.325 10.8625 14.9969 11.8187 14.9969H11.9781C11.9906 14.9969 12.0031 14.9969 12.0188 14.9969H14.9594C15.1688 14.9969 15.3531 15.125 15.4281 15.3219L16.5625 18.35C16.75 18.8531 17.3063 19.1187 17.8156 18.9469L19.3156 18.4469C19.8406 18.2719 20.1219 17.7062 19.9469 17.1812C19.7719 16.6562 19.2062 16.375 18.6812 16.55L18.0969 16.7437L17.3 14.6187C16.9344 13.6437 16 12.9969 14.9594 12.9969H12.8188L12.5188 11.4969H14.5C15.0531 11.4969 15.5 11.05 15.5 10.4969C15.5 9.94375 15.0531 9.49687 14.5 9.49687H12.1187V9.5Z" fill="black"/>
</svg>
