<svg width="24" height="24" viewBox="0 0 24 24" fill="none" xmlns="http://www.w3.org/2000/svg">
<path d="M16.2937 4.2937C16.6843 3.90308 17.3187 3.90308 17.7093 4.2937L19.7093 6.2937C20.0999 6.68433 20.0999 7.3187 19.7093 7.70933C19.3405 8.07808 18.7499 8.09995 18.3593 7.7687L18.0624 8.06558L16.5374 9.59058C16.2499 9.87808 16.178 10.3062 16.2687 10.7031C16.5624 11.9812 16.2093 13.3781 15.2124 14.375L10.1655 19.4156C9.38428 20.1968 8.11865 20.1968 7.3374 19.4156L4.5874 16.6656C3.80615 15.8843 3.80615 14.6187 4.5874 13.8375L9.63115 8.79058C10.628 7.7937 12.0249 7.4437 13.303 7.73433C13.6968 7.82495 14.128 7.74995 14.4124 7.46558L15.9374 5.94058L16.2343 5.6437C15.903 5.24995 15.9218 4.66245 16.2937 4.2937ZM7.10303 14.8531L9.14678 16.8968C9.34053 17.0906 9.65928 17.0906 9.85303 16.8968L12.8968 13.8531C13.0905 13.6593 13.0905 13.3406 12.8968 13.1468L10.853 11.1031C10.6593 10.9093 10.3405 10.9093 10.1468 11.1031L7.10303 14.1468C6.90928 14.3406 6.90928 14.6593 7.10303 14.8531Z" fill="black"/>
</svg>
