<svg width="24" height="24" viewBox="0 0 24 24" fill="none" xmlns="http://www.w3.org/2000/svg">
<path d="M17.7812 5.28047C18.075 4.98672 18.075 4.51172 17.7812 4.2211C17.4875 3.93047 17.0125 3.92735 16.7218 4.2211L13.9687 6.96797C13.675 7.26172 13.675 7.73672 13.9687 8.02735C14.2625 8.31797 14.7375 8.32109 15.0281 8.02735L17.7781 5.27735L17.7812 5.28047ZM11.5468 4.85235C11.3531 4.6586 11.0343 4.6586 10.8406 4.85235L10.4843 5.20547C9.31245 6.37735 9.31245 8.27735 10.4843 9.44922L10.8093 9.77422L9.8562 10.7273C9.74995 9.87422 9.37183 9.0461 8.71558 8.38985L8.36245 8.03672C8.1687 7.84297 7.84995 7.84297 7.6562 8.03672L7.30308 8.38985C6.1312 9.56172 6.1312 11.4617 7.30308 12.6336L7.62808 12.9586L6.67495 13.9117C6.5687 13.0586 6.19058 12.2305 5.53433 11.5742L5.1812 11.218C4.98745 11.0242 4.6687 11.0242 4.47495 11.218L4.12183 11.5711C2.94995 12.743 2.94995 14.643 4.12183 15.8148L4.44683 16.1398L2.2937 18.293C1.90308 18.6836 1.90308 19.318 2.2937 19.7086C2.68433 20.0992 3.3187 20.0992 3.70933 19.7086L5.86245 17.5555L6.2437 17.9367C7.41558 19.1086 9.31558 19.1086 10.4875 17.9367L10.8406 17.5836C11.0343 17.3898 11.0343 17.0711 10.8406 16.8773L10.4875 16.5242C9.8062 15.843 8.93745 15.4586 8.04683 15.3711L9.0437 14.3742L9.42495 14.7555C10.1281 15.4586 11.0906 15.7398 12 15.5992C12 15.568 12 15.5336 12 15.5023C12 14.468 12.2843 13.4992 12.7812 12.6711C12.2968 12.3992 11.7656 12.2398 11.225 12.1867L12.2218 11.1898L12.6031 11.5711C12.7906 11.7586 12.9968 11.918 13.2187 12.0461C14.0781 10.9836 15.3218 10.2492 16.7375 10.0523C16.6093 9.9336 16.475 9.82422 16.3343 9.72422L17.7812 8.28047C18.075 7.98672 18.075 7.51172 17.7812 7.2211C17.4875 6.93047 17.0125 6.92735 16.7218 7.2211L14.8656 9.07735C14.2218 8.93985 13.5531 8.96172 12.9187 9.14297C13.1093 8.47735 13.125 7.77422 12.9625 7.10235L14.7812 5.28047C15.075 4.98672 15.075 4.51172 14.7812 4.2211C14.4875 3.93047 14.0125 3.92735 13.7218 4.2211L12.2843 5.65235C12.1687 5.4961 12.0406 5.3461 11.8968 5.20547L11.5468 4.85235ZM17.5 19.9992C18.6934 19.9992 19.838 19.5251 20.6819 18.6812C21.5258 17.8373 22 16.6927 22 15.4992C22 14.3057 21.5258 13.1612 20.6819 12.3172C19.838 11.4733 18.6934 10.9992 17.5 10.9992C16.3065 10.9992 15.1619 11.4733 14.318 12.3172C13.4741 13.1612 13 14.3057 13 15.4992C13 16.6927 13.4741 17.8373 14.318 18.6812C15.1619 19.5251 16.3065 19.9992 17.5 19.9992ZM17.5 16.9992C17.6989 16.9992 17.8896 17.0782 18.0303 17.2189C18.1709 17.3595 18.25 17.5503 18.25 17.7492C18.25 17.9481 18.1709 18.1389 18.0303 18.2795C17.8896 18.4202 17.6989 18.4992 17.5 18.4992C17.301 18.4992 17.1103 18.4202 16.9696 18.2795C16.829 18.1389 16.75 17.9481 16.75 17.7492C16.75 17.5503 16.829 17.3595 16.9696 17.2189C17.1103 17.0782 17.301 16.9992 17.5 16.9992ZM17.5 12.4992C17.775 12.4992 18 12.7242 18 12.9992V15.4992C18 15.7742 17.775 15.9992 17.5 15.9992C17.225 15.9992 17 15.7742 17 15.4992V12.9992C17 12.7242 17.225 12.4992 17.5 12.4992Z" fill="black"/>
</svg>
