<svg width="24" height="24" viewBox="0 0 24 24" fill="none" xmlns="http://www.w3.org/2000/svg">
<path d="M15 5.5C15 5.10218 15.158 4.72064 15.4393 4.43934C15.7206 4.15804 16.1022 4 16.5 4C16.8978 4 17.2794 4.15804 17.5607 4.43934C17.842 4.72064 18 5.10218 18 5.5C18 5.89782 17.842 6.27936 17.5607 6.56066C17.2794 6.84196 16.8978 7 16.5 7C16.1022 7 15.7206 6.84196 15.4393 6.56066C15.158 6.27936 15 5.89782 15 5.5ZM11.3906 7.79063C11.2219 7.7125 11.025 7.73125 10.8781 7.84375L9.6 8.80312C9.15937 9.13437 8.53125 9.04375 8.2 8.60313C7.86875 8.1625 7.95938 7.53438 8.4 7.20312L9.67812 6.24375C10.4187 5.6875 11.4063 5.5875 12.2438 5.98125L15.0688 7.30938C15.9781 7.7375 16.2187 8.92187 15.5437 9.66875L14.3469 11H17.3906C18.3375 11 19.0469 11.8656 18.8625 12.7937L17.9812 17.1969C17.8719 17.7375 17.3469 18.0906 16.8031 17.9812C16.2594 17.8719 15.9094 17.3469 16.0188 16.8031L16.7812 13H14.5844C14.8531 13.6125 15 14.2875 15 15C15 17.7625 12.7625 20 10 20C7.2375 20 5 17.7625 5 15C5 12.2375 7.2375 10 10 10C10.3469 10 10.6875 10.0344 11.0125 10.1031L12.7063 8.40938L11.3906 7.79063ZM10 18C10.394 18 10.7841 17.9224 11.1481 17.7716C11.512 17.6209 11.8427 17.3999 12.1213 17.1213C12.3999 16.8427 12.6209 16.512 12.7716 16.1481C12.9224 15.7841 13 15.394 13 15C13 14.606 12.9224 14.2159 12.7716 13.8519C12.6209 13.488 12.3999 13.1573 12.1213 12.8787C11.8427 12.6001 11.512 12.3791 11.1481 12.2284C10.7841 12.0776 10.394 12 10 12C9.60603 12 9.21593 12.0776 8.85195 12.2284C8.48797 12.3791 8.15726 12.6001 7.87868 12.8787C7.6001 13.1573 7.37913 13.488 7.22836 13.8519C7.0776 14.2159 7 14.606 7 15C7 15.394 7.0776 15.7841 7.22836 16.1481C7.37913 16.512 7.6001 16.8427 7.87868 17.1213C8.15726 17.3999 8.48797 17.6209 8.85195 17.7716C9.21593 17.9224 9.60603 18 10 18Z" fill="black"/>
</svg>
