<svg width="24" height="24" viewBox="0 0 24 24" fill="none" xmlns="http://www.w3.org/2000/svg">
<path d="M8.99997 4C8.48122 4 8.04685 4.4 8.0031 4.91562L7.5656 10.1781C7.3781 12.4281 8.89372 14.4031 11 14.8844V18H9.49997C8.94685 18 8.49997 18.4469 8.49997 19C8.49997 19.5531 8.94685 20 9.49997 20H12H14.5C15.0531 20 15.5 19.5531 15.5 19C15.5 18.4469 15.0531 18 14.5 18H13V14.8875C15.1062 14.4062 16.6218 12.4312 16.4343 10.1813L15.9968 4.91875C15.9531 4.4 15.5187 4 15 4H8.99997ZM9.55935 10.3469L9.91872 6H14.0812L14.4437 10.3469C14.5625 11.775 13.4343 13 12 13C10.5656 13 9.43747 11.775 9.55935 10.3469Z" fill="black"/>
</svg>
