<svg width="24" height="24" viewBox="0 0 24 24" fill="none" xmlns="http://www.w3.org/2000/svg">
<path d="M5.94989 5.68407C5.77489 5.15907 5.20614 4.87782 4.68426 5.0497C4.16239 5.22157 3.87801 5.79345 4.04989 6.31532L5.61239 10.9997H4.99989C4.44676 10.9997 3.99989 11.4466 3.99989 11.9997C3.99989 12.5528 4.44676 12.9997 4.99989 12.9997H6.27801L8.04989 18.3153C8.19051 18.7372 8.59364 19.0153 9.03739 18.9997C9.48114 18.9841 9.86239 18.6747 9.96864 18.2434L11.2811 12.9997H12.7186L14.0311 18.2434C14.1374 18.6747 14.5186 18.9841 14.9624 18.9997C15.4061 19.0153 15.8093 18.7372 15.9499 18.3153L17.7218 12.9997H18.9999C19.553 12.9997 19.9999 12.5528 19.9999 11.9997C19.9999 11.4466 19.553 10.9997 18.9999 10.9997H18.3874L19.9499 6.31532C20.1249 5.79032 19.8405 5.2247 19.3186 5.0497C18.7968 4.8747 18.228 5.15907 18.053 5.68095L16.278 10.9997H14.2811L12.9686 5.75595C12.8593 5.3122 12.4593 4.9997 11.9999 4.9997C11.5405 4.9997 11.1405 5.3122 11.0311 5.75595L9.71864 10.9997H7.71864L5.94989 5.68407ZM8.38739 12.9997H9.21864L8.86239 14.4247L8.38739 12.9997ZM11.7811 10.9997L11.9999 10.1216L12.2186 10.9997H11.7811ZM14.7811 12.9997H15.6124L15.1374 14.4247L14.7811 12.9997Z" fill="black"/>
</svg>
