<svg width="24" height="24" viewBox="0 0 24 24" fill="none" xmlns="http://www.w3.org/2000/svg">
<path d="M5.94989 5.68438C5.77489 5.15938 5.20614 4.87813 4.68426 5.05C4.16239 5.22188 3.87801 5.79375 4.04989 6.31563L5.61239 11H4.99989C4.44676 11 3.99989 11.4469 3.99989 12C3.99989 12.5531 4.44676 13 4.99989 13H6.27801L8.04989 18.3156C8.19051 18.7375 8.59364 19.0156 9.03739 19C9.48114 18.9844 9.86239 18.675 9.96864 18.2438L11.2811 13H12.7186L14.0311 18.2438C14.1374 18.675 14.5186 18.9844 14.9624 19C15.4061 19.0156 15.8093 18.7375 15.9499 18.3156L17.7218 13H18.9999C19.553 13 19.9999 12.5531 19.9999 12C19.9999 11.4469 19.553 11 18.9999 11H18.3874L19.9499 6.31563C20.1249 5.79063 19.8405 5.225 19.3186 5.05C18.7968 4.875 18.228 5.15938 18.053 5.68125L16.278 11H14.2811L12.9686 5.75625C12.8593 5.3125 12.4593 5 11.9999 5C11.5405 5 11.1405 5.3125 11.0311 5.75625L9.71864 11H7.71864L5.94989 5.68438ZM8.38739 13H9.21864L8.86239 14.425L8.38739 13ZM11.7811 11L11.9999 10.1219L12.2186 11H11.7811ZM14.7811 13H15.6124L15.1374 14.425L14.7811 13Z" fill="black"/>
</svg>
