<svg width="24" height="24" viewBox="0 0 24 24" fill="none" xmlns="http://www.w3.org/2000/svg">
<path d="M3.65005 5.06246C4.16567 4.86871 4.7438 5.13121 4.93755 5.64684L8.3813 14.8343L11.0407 5.71871C11.1657 5.29059 11.5563 4.99996 12 4.99996C12.4438 4.99996 12.8344 5.29371 12.9594 5.71871L15.6188 14.8343L19.0625 5.64996C19.2563 5.13434 19.8313 4.87184 20.35 5.06559C20.8688 5.25934 21.1282 5.83746 20.9344 6.35309L16.4344 18.3531C16.2844 18.7562 15.8907 19.0187 15.4594 19C15.0282 18.9812 14.6563 18.6937 14.5375 18.2812L12 9.57184L9.45942 18.2812C9.33755 18.6937 8.96567 18.9843 8.53755 19C8.10942 19.0156 7.71567 18.7562 7.56255 18.3531L3.06255 6.34996C2.8688 5.83434 3.1313 5.25621 3.65005 5.06246Z" fill="black"/>
</svg>
