<svg width="24" height="24" viewBox="0 0 24 24" fill="none" xmlns="http://www.w3.org/2000/svg">
<path d="M3.21268 4.15955C2.88768 3.9033 2.4158 3.96268 2.15955 4.28768C1.9033 4.61268 1.96268 5.08455 2.28768 5.3408L20.7877 19.8408C21.1127 20.0971 21.5846 20.0377 21.8408 19.7127C22.0971 19.3877 22.0377 18.9158 21.7127 18.6596L13.3939 12.1377C14.6189 12.3846 15.7283 12.9533 16.6314 13.7502C17.0471 14.1158 17.6783 14.0752 18.0439 13.6627C18.4096 13.2502 18.3689 12.6158 17.9564 12.2502C16.3689 10.8502 14.2814 10.0002 12.0002 10.0002C11.5846 10.0002 11.1721 10.0283 10.7721 10.0846L7.80018 7.75643C9.10643 7.2658 10.5221 7.00018 12.0002 7.00018C15.2252 7.00018 18.1502 8.27205 20.3064 10.3408C20.7064 10.7221 21.3377 10.7096 21.7189 10.3127C22.1002 9.9158 22.0877 9.28143 21.6908 8.90018C19.1783 6.48455 15.7627 5.00018 12.0002 5.00018C9.8533 5.00018 7.82205 5.48455 6.0033 6.34705L3.21268 4.15955ZM13.9002 16.3752L12.1627 15.0064C12.1096 15.0033 12.0564 15.0002 12.0002 15.0002C10.8971 15.0002 10.0002 15.8971 10.0002 17.0002C10.0002 18.1033 10.8971 19.0002 12.0002 19.0002C13.1033 19.0002 14.0002 18.1033 14.0002 17.0002C14.0002 16.7814 13.9658 16.5721 13.9002 16.3752ZM9.12518 12.6158L7.40643 11.2596C6.92205 11.5471 6.4658 11.8783 6.04705 12.2502C5.63143 12.6158 5.59393 13.2471 5.95955 13.6627C6.32518 14.0783 6.95643 14.1158 7.37205 13.7502C7.89393 13.2877 8.48455 12.9064 9.1283 12.6158H9.12518ZM4.92518 9.30643L3.3033 8.0283C2.95955 8.3033 2.62518 8.59393 2.30643 8.89705C1.90955 9.28143 1.89705 9.91268 2.2783 10.3127C2.65955 10.7127 3.29393 10.7252 3.6908 10.3408C4.0783 9.96893 4.4908 9.62205 4.92518 9.30643Z" fill="black"/>
</svg>
