<svg width="24" height="24" viewBox="0 0 24 24" fill="none" xmlns="http://www.w3.org/2000/svg">
<path d="M7.49375 4.41911C7.4625 4.23473 7.33125 4.08161 7.15312 4.02536C6.975 3.96911 6.77812 4.01598 6.64687 4.14723L5.375 5.41911C4.80312 5.99098 4.54375 6.80036 4.675 7.59723L4.92188 9.07848L3.3625 10.6379C2.49062 11.5097 2 12.6941 2 13.9254C2 16.7285 4.27187 19.0004 7.075 19.0004H19C20.6562 19.0004 22 17.6566 22 16.0004V12.5035C22 10.016 19.9844 8.00036 17.4969 8.00036C14.9187 8.00036 12.4219 8.92223 10.4656 10.6004L6.8875 13.6691C6.6375 13.8816 6.32188 14.0004 5.99375 14.0004H5.95937C5.3875 14.0004 4.88125 13.6347 4.7 13.0941C4.575 12.7191 4.625 12.3066 4.83437 11.9722L6.00938 10.0941L7.40625 10.3285C8.20312 10.4597 9.01562 10.2004 9.58437 9.63161L10.8562 8.35973C10.9875 8.22848 11.0375 8.03161 10.9781 7.85348C10.9187 7.67536 10.7688 7.54411 10.5844 7.51286L7.93437 7.06598L7.49375 4.41911ZM14.5 12.7504C14.6989 12.7504 14.8897 12.8294 15.0303 12.97C15.171 13.1107 15.25 13.3014 15.25 13.5004C15.25 13.6993 15.171 13.89 15.0303 14.0307C14.8897 14.1713 14.6989 14.2504 14.5 14.2504C14.3011 14.2504 14.1103 14.1713 13.9697 14.0307C13.829 13.89 13.75 13.6993 13.75 13.5004C13.75 13.3014 13.829 13.1107 13.9697 12.97C14.1103 12.8294 14.3011 12.7504 14.5 12.7504Z" fill="black"/>
</svg>
