<svg width="24" height="24" viewBox="0 0 24 24" fill="none" xmlns="http://www.w3.org/2000/svg">
<path d="M2 19.25V9.35311C2 8.53436 2.49688 7.79999 3.25625 7.49686L11.6281 4.14999C11.8656 4.05311 12.1312 4.05311 12.3719 4.14999L20.7437 7.49686C21.5031 7.79999 22 8.53749 22 9.35311V19.25C22 19.6656 21.6656 20 21.25 20H19.75C19.3344 20 19 19.6656 19 19.25V11C19 10.4469 18.5531 9.99999 18 9.99999H6C5.44688 9.99999 5 10.4469 5 11V19.25C5 19.6656 4.66563 20 4.25 20H2.75C2.33437 20 2 19.6656 2 19.25ZM17.25 20H6.75C6.33437 20 6 19.6656 6 19.25V17.5H18V19.25C18 19.6656 17.6656 20 17.25 20ZM6 16.5V14.5H18V16.5H6ZM6 13.5V11H18V13.5H6Z" fill="black"/>
</svg>
