<svg width="24" height="24" viewBox="0 0 24 24" fill="none" xmlns="http://www.w3.org/2000/svg">
<path d="M12.5625 5.56259C11.2156 5.25321 9.87498 6.09071 9.5656 7.43759C9.31873 8.50321 9.79685 9.56884 10.675 10.122C10.8437 10.2282 10.9625 10.397 11.0094 10.5907C11.0562 10.7845 11.0187 10.9876 10.9156 11.1563L8.32498 15.297C8.43748 15.5063 8.49998 15.747 8.49998 16.0001C8.49998 16.8282 7.8281 17.5001 6.99998 17.5001C6.17185 17.5001 5.49998 16.8282 5.49998 16.0001C5.49998 15.172 6.17185 14.5001 6.99998 14.5001C7.01873 14.5001 7.03435 14.5001 7.0531 14.5001L9.28123 10.9345C8.2656 9.99071 7.76873 8.54696 8.1031 7.10009C8.59998 4.94696 10.7469 3.60634 12.9 4.10321C14.9594 4.57821 16.275 6.56259 15.9531 8.61571C15.8875 9.02509 15.5062 9.30321 15.0969 9.24071C14.6875 9.17821 14.4094 8.79384 14.4719 8.38446C14.6719 7.10009 13.8469 5.85946 12.5625 5.56259ZM12.0531 9.50009C12.0344 9.50009 12.0187 9.50009 12 9.50009C11.1719 9.50009 10.5 8.82821 10.5 8.00009C10.5 7.17196 11.1719 6.50009 12 6.50009C12.8281 6.50009 13.5 7.17196 13.5 8.00009C13.5 8.25321 13.4375 8.49384 13.325 8.70321L15.5531 12.2688C16.9844 11.7157 18.6719 12.0126 19.8281 13.172C21.3906 14.7345 21.3906 17.2657 19.8281 18.8282C18.4844 20.172 16.4219 20.3595 14.8781 19.3907C14.5281 19.172 14.4219 18.7095 14.6406 18.3563C14.8594 18.0032 15.3219 17.9001 15.675 18.1188C16.6406 18.722 17.9281 18.6032 18.7687 17.7657C19.7437 16.7907 19.7437 15.2063 18.7687 14.2313C17.9312 13.3938 16.6406 13.2751 15.675 13.8782C15.5062 13.9845 15.3031 14.0188 15.1094 13.972C14.9156 13.9251 14.7469 13.8063 14.6406 13.6376L12.0531 9.50009ZM17 17.5001C16.4437 17.5001 15.9594 17.197 15.7 16.7501H10.9312C10.6437 18.2595 9.49373 19.5282 7.89998 19.897C5.74685 20.3938 3.59998 19.0532 3.1031 16.9001C2.65623 14.9688 3.6906 13.0438 5.45935 12.3063C5.8406 12.147 6.28123 12.3282 6.4406 12.7095C6.59998 13.0907 6.41873 13.5313 6.03748 13.6907C4.93123 14.1501 4.28748 15.3563 4.5656 16.5595C4.87498 17.9063 6.21873 18.7438 7.56248 18.4345C8.71873 18.1688 9.5031 17.1376 9.49998 16.0001C9.49998 15.8001 9.5781 15.6095 9.71873 15.4688C9.85935 15.3282 10.05 15.2501 10.25 15.2501H15.7C15.9594 14.8032 16.4437 14.5001 17 14.5001C17.8281 14.5001 18.5 15.172 18.5 16.0001C18.5 16.8282 17.8281 17.5001 17 17.5001Z" fill="black"/>
</svg>
