<svg width="24" height="24" viewBox="0 0 24 24" fill="none" xmlns="http://www.w3.org/2000/svg">
<path d="M3.65005 5.06185C4.16567 4.8681 4.7438 5.1306 4.93755 5.64623L8.3813 14.8337L11.0407 5.7181C11.1657 5.28998 11.5563 4.99935 12 4.99935C12.4438 4.99935 12.8344 5.2931 12.9594 5.7181L15.6188 14.8337L19.0625 5.64935C19.2563 5.13373 19.8313 4.87123 20.35 5.06498C20.8688 5.25873 21.1282 5.83685 20.9344 6.35248L16.4344 18.3525C16.2844 18.7556 15.8907 19.0181 15.4594 18.9994C15.0282 18.9806 14.6563 18.6931 14.5375 18.2806L12 9.57123L9.45942 18.2806C9.33755 18.6931 8.96567 18.9837 8.53755 18.9994C8.10942 19.015 7.71567 18.7556 7.56255 18.3525L3.06255 6.34935C2.8688 5.83373 3.1313 5.2556 3.65005 5.06185Z" fill="black"/>
</svg>
