<svg width="24" height="24" viewBox="0 0 24 24" fill="none" xmlns="http://www.w3.org/2000/svg">
<path d="M16.2938 4.2937C16.6844 3.90308 17.3188 3.90308 17.7094 4.2937L19.7094 6.2937C20.1 6.68433 20.1 7.3187 19.7094 7.70933C19.3407 8.07808 18.75 8.09995 18.3594 7.7687L18.0625 8.06558L16.5375 9.59058C16.25 9.87808 16.1782 10.3062 16.2688 10.7031C16.5625 11.9812 16.2094 13.3781 15.2125 14.375L10.1656 19.4156C9.3844 20.1968 8.11877 20.1968 7.33752 19.4156L4.58752 16.6656C3.80627 15.8843 3.80627 14.6187 4.58752 13.8375L9.63127 8.79058C10.6281 7.7937 12.025 7.4437 13.3032 7.73433C13.6969 7.82495 14.1281 7.74995 14.4125 7.46558L15.9375 5.94058L16.2344 5.6437C15.9031 5.24995 15.9219 4.66245 16.2938 4.2937ZM7.10315 14.8531L9.1469 16.8968C9.34065 17.0906 9.6594 17.0906 9.85315 16.8968L12.8969 13.8531C13.0907 13.6593 13.0907 13.3406 12.8969 13.1468L10.8531 11.1031C10.6594 10.9093 10.3406 10.9093 10.1469 11.1031L7.10315 14.1468C6.9094 14.3406 6.9094 14.6593 7.10315 14.8531Z" fill="black"/>
</svg>
