<svg width="24" height="24" viewBox="0 0 24 24" fill="none" xmlns="http://www.w3.org/2000/svg">
<path d="M13.8657 16.9625C14.15 17.425 14.8657 17.1656 14.7875 16.6281L13.9032 10.625C13.8875 10.5187 13.9063 10.4093 13.9594 10.3156L16.8438 4.97497C17.1032 4.49685 16.5188 4.00622 16.0938 4.34685L11.3344 8.1156C11.25 8.18122 11.1469 8.22185 11.0375 8.22497L4.97192 8.39372C4.42817 8.40622 4.29692 9.15622 4.80317 9.35622L10.4469 11.5906C10.5469 11.6312 10.6313 11.7 10.6875 11.7937L13.8657 16.9625ZM11 14.2125V18.5H8.75005C8.33442 18.5 8.00005 18.8343 8.00005 19.25C8.00005 19.6656 8.33442 20 8.75005 20H15.25C15.6657 20 16 19.6656 16 19.25C16 18.8343 15.6657 18.5 15.25 18.5H13V17.4625L11 14.2125ZM12 9.24997C12.199 9.24997 12.3897 9.32899 12.5304 9.46964C12.671 9.61029 12.75 9.80106 12.75 9.99997C12.75 10.1989 12.671 10.3896 12.5304 10.5303C12.3897 10.671 12.199 10.75 12 10.75C11.8011 10.75 11.6104 10.671 11.4697 10.5303C11.3291 10.3896 11.25 10.1989 11.25 9.99997C11.25 9.80106 11.3291 9.61029 11.4697 9.46964C11.6104 9.32899 11.8011 9.24997 12 9.24997Z" fill="black"/>
</svg>
