<svg width="24" height="24" viewBox="0 0 24 24" fill="none" xmlns="http://www.w3.org/2000/svg">
<path d="M2 19.25V9.35317C2 8.53442 2.49688 7.80005 3.25625 7.49692L11.6281 4.15005C11.8656 4.05317 12.1312 4.05317 12.3719 4.15005L20.7437 7.49692C21.5031 7.80005 22 8.53755 22 9.35317V19.25C22 19.6657 21.6656 20 21.25 20H19.75C19.3344 20 19 19.6657 19 19.25V11C19 10.4469 18.5531 10 18 10H6C5.44688 10 5 10.4469 5 11V19.25C5 19.6657 4.66563 20 4.25 20H2.75C2.33437 20 2 19.6657 2 19.25ZM17.25 20H6.75C6.33437 20 6 19.6657 6 19.25V17.5H18V19.25C18 19.6657 17.6656 20 17.25 20ZM6 16.5V14.5H18V16.5H6ZM6 13.5V11H18V13.5H6Z" fill="black"/>
</svg>
