<svg width="24" height="24" viewBox="0 0 24 24" fill="none" xmlns="http://www.w3.org/2000/svg">
<path d="M11.9719 4.00037C12.4344 3.98787 12.8437 4.291 12.9656 4.73787L15.2781 13.2129L15.8313 12.1066C16.1688 11.4285 16.8625 11.0004 17.6187 11.0004H21C21.5531 11.0004 22 11.4472 22 12.0004C22 12.5535 21.5531 13.0004 21 13.0004H17.6187L15.8938 16.4472C15.7094 16.8191 15.3125 17.0347 14.9 16.9941C14.4875 16.9535 14.1438 16.6629 14.0344 16.2629L12.1156 9.2285L9.97813 19.2097C9.88125 19.6597 9.49375 19.9847 9.03438 20.0004C8.575 20.016 8.16563 19.716 8.04063 19.2754L6.24687 13.0004H3C2.44687 13.0004 2 12.5535 2 12.0004C2 11.4472 2.44687 11.0004 3 11.0004H6.24687C7.14062 11.0004 7.925 11.591 8.16875 12.4504L8.8625 14.8754L11.0219 4.791C11.1188 4.341 11.5125 4.01287 11.9719 4.00037Z" fill="black"/>
</svg>
