<svg width="24" height="24" viewBox="0 0 24 24" fill="none" xmlns="http://www.w3.org/2000/svg">
<path d="M3.6938 10.3406C5.85005 8.27187 8.77505 7 12.0001 7C15.2251 7 18.1501 8.27187 20.3063 10.3406C20.7063 10.7219 21.3376 10.7094 21.7188 10.3125C22.1001 9.91563 22.0876 9.28125 21.6907 8.9C19.1782 6.48438 15.7626 5 12.0001 5C8.23755 5 4.82193 6.48438 2.3063 8.89687C1.90943 9.28125 1.89693 9.9125 2.27818 10.3125C2.65943 10.7125 3.2938 10.725 3.69068 10.3406H3.6938ZM12.0001 12C13.7751 12 15.3938 12.6594 16.6313 13.75C17.0469 14.1156 17.6782 14.075 18.0438 13.6625C18.4094 13.25 18.3688 12.6156 17.9563 12.25C16.3688 10.85 14.2813 10 12.0001 10C9.7188 10 7.6313 10.85 6.04693 12.25C5.6313 12.6156 5.5938 13.2469 5.95943 13.6625C6.32505 14.0781 6.9563 14.1156 7.37193 13.75C8.6063 12.6594 10.2251 12 12.0032 12H12.0001ZM14.0001 17C14.0001 16.4696 13.7893 15.9609 13.4143 15.5858C13.0392 15.2107 12.5305 15 12.0001 15C11.4696 15 10.9609 15.2107 10.5858 15.5858C10.2108 15.9609 10.0001 16.4696 10.0001 17C10.0001 17.5304 10.2108 18.0391 10.5858 18.4142C10.9609 18.7893 11.4696 19 12.0001 19C12.5305 19 13.0392 18.7893 13.4143 18.4142C13.7893 18.0391 14.0001 17.5304 14.0001 17Z" fill="black"/>
</svg>
