<svg width="24" height="24" viewBox="0 0 24 24" fill="none" xmlns="http://www.w3.org/2000/svg">
<path d="M8 9.5C8 8.43913 8.42143 7.42172 9.17157 6.67157C9.92172 5.92143 10.9391 5.5 12 5.5C13.0609 5.5 14.0783 5.92143 14.8284 6.67157C15.5786 7.42172 16 8.43913 16 9.5C16 10.5609 15.5786 11.5783 14.8284 12.3284C14.0783 13.0786 13.0609 13.5 12 13.5C10.9391 13.5 9.92172 13.0786 9.17157 12.3284C8.42143 11.5783 8 10.5609 8 9.5ZM16.2437 6C15.2344 4.77813 13.7094 4 12 4C10.2906 4 8.76562 4.77813 7.75625 6H6C4.89688 6 4 6.89688 4 8V18C4 19.1031 4.89688 20 6 20H18C19.1031 20 20 19.1031 20 18V8C20 6.89688 19.1031 6 18 6H16.2437ZM13.25 11C13.25 10.6687 13.1219 10.3688 12.9094 10.1438L13.9594 7.69688C14.0688 7.44375 13.95 7.15 13.6969 7.04063C13.4437 6.93125 13.15 7.05 13.0406 7.30312L11.9906 9.75C11.3031 9.75313 10.75 10.3125 10.75 11C10.75 11.6906 11.3094 12.25 12 12.25C12.6906 12.25 13.25 11.6906 13.25 11Z" fill="black"/>
</svg>
