<svg width="24" height="24" viewBox="0 0 24 24" fill="none" xmlns="http://www.w3.org/2000/svg">
<path d="M9.0001 4C8.48135 4 8.04697 4.4 8.00322 4.91562L7.56572 10.1781C7.37822 12.4281 8.89385 14.4031 11.0001 14.8844V18H9.5001C8.94697 18 8.5001 18.4469 8.5001 19C8.5001 19.5531 8.94697 20 9.5001 20H12.0001H14.5001C15.0532 20 15.5001 19.5531 15.5001 19C15.5001 18.4469 15.0532 18 14.5001 18H13.0001V14.8875C15.1063 14.4062 16.622 12.4312 16.4345 10.1813L15.997 4.91875C15.9532 4.4 15.5188 4 15.0001 4H9.0001ZM9.55947 10.3469L9.91885 6H14.0813L14.4438 10.3469C14.5626 11.775 13.4345 13 12.0001 13C10.5657 13 9.4376 11.775 9.55947 10.3469Z" fill="black"/>
</svg>
