<svg width="24" height="24" viewBox="0 0 24 24" fill="none" xmlns="http://www.w3.org/2000/svg">
<path d="M19.7812 5.28047C20.075 4.98672 20.075 4.51172 19.7812 4.2211C19.4875 3.93047 19.0125 3.92735 18.7218 4.2211L15.9687 6.96797C15.675 7.26172 15.675 7.73672 15.9687 8.02735C16.2625 8.31797 16.7375 8.3211 17.0281 8.02735L19.7781 5.27735L19.7812 5.28047ZM13.5468 4.85235C13.3531 4.6586 13.0343 4.6586 12.8406 4.85235L12.4843 5.20547C11.3125 6.37735 11.3125 8.27735 12.4843 9.44922L12.8093 9.77422L11.8562 10.7273C11.75 9.87422 11.3718 9.0461 10.7156 8.38985L10.3625 8.03672C10.1687 7.84297 9.84995 7.84297 9.6562 8.03672L9.30308 8.38985C8.1312 9.56172 8.1312 11.4617 9.30308 12.6336L9.62808 12.9586L8.67495 13.9117C8.5687 13.0586 8.19058 12.2305 7.53433 11.5742L7.1812 11.218C6.98745 11.0242 6.6687 11.0242 6.47495 11.218L6.12183 11.5711C4.94995 12.743 4.94995 14.643 6.12183 15.8148L6.44683 16.1398L4.2937 18.293C3.90308 18.6836 3.90308 19.318 4.2937 19.7086C4.68433 20.0992 5.3187 20.0992 5.70933 19.7086L7.86245 17.5555L8.2437 17.9367C9.41558 19.1086 11.3156 19.1086 12.4875 17.9367L12.8406 17.5836C13.0343 17.3898 13.0343 17.0711 12.8406 16.8773L12.4875 16.5242C11.8062 15.843 10.9375 15.4586 10.0468 15.3711L11.0437 14.3742L11.425 14.7555C12.5968 15.9273 14.4968 15.9273 15.6687 14.7555L16.0218 14.4023C16.2156 14.2086 16.2156 13.8898 16.0218 13.6961L15.6687 13.343C14.9875 12.6617 14.1187 12.2773 13.2281 12.1898L14.225 11.193L14.6062 11.5742C15.7781 12.7461 17.6781 12.7461 18.85 11.5742L19.2031 11.218C19.3968 11.0242 19.3968 10.7055 19.2031 10.5117L18.85 10.1555C18.6875 9.99297 18.5187 9.84922 18.3375 9.7211L19.7812 8.28047C20.075 7.98672 20.075 7.51172 19.7812 7.2211C19.4875 6.93047 19.0125 6.92735 18.7218 7.2211L16.8656 9.07735C16.2218 8.93985 15.5531 8.96172 14.9187 9.14297C15.1093 8.47735 15.125 7.77422 14.9625 7.10235L16.7812 5.28047C17.075 4.98672 17.075 4.51172 16.7812 4.2211C16.4875 3.93047 16.0125 3.92735 15.7218 4.2211L14.2843 5.65235C14.1687 5.4961 14.0406 5.3461 13.8968 5.20547L13.5468 4.85235Z" fill="black"/>
</svg>
