<svg width="24" height="24" viewBox="0 0 24 24" fill="none" xmlns="http://www.w3.org/2000/svg">
<path d="M15.0625 15.5C13.8531 17.5938 11.5906 19 9 19C5.13438 19 2 15.8656 2 12C2 8.13438 5.13438 5 9 5C12.6969 5 15.725 7.86875 15.9812 11.5H14C12.8969 11.5 12 12.3969 12 13.5C12 14.6031 12.8969 15.5 14 15.5H15.0625ZM9.75 8.75C9.75 8.33437 9.41563 8 9 8C8.58437 8 8.25 8.33437 8.25 8.75V12.25C8.25 12.6656 8.58437 13 9 13C9.41563 13 9.75 12.6656 9.75 12.25V8.75ZM9 16C9.26522 16 9.51957 15.8946 9.70711 15.7071C9.89464 15.5196 10 15.2652 10 15C10 14.7348 9.89464 14.4804 9.70711 14.2929C9.51957 14.1054 9.26522 14 9 14C8.73478 14 8.48043 14.1054 8.29289 14.2929C8.10536 14.4804 8 14.7348 8 15C8 15.2652 8.10536 15.5196 8.29289 15.7071C8.48043 15.8946 8.73478 16 9 16ZM16.75 17.5C16.75 16.9469 17.1969 16.5 17.75 16.5H18.75C19.3031 16.5 19.75 16.0531 19.75 15.5C19.75 14.9469 19.3031 14.5 18.75 14.5H14C13.4469 14.5 13 14.0531 13 13.5C13 12.9469 13.4469 12.5 14 12.5H18.75C20.4062 12.5 21.75 13.8438 21.75 15.5C21.75 17.1562 20.4062 18.5 18.75 18.5H17.75C17.1969 18.5 16.75 18.0531 16.75 17.5ZM19 11.5H16.9844C16.9406 10.8063 16.8094 10.1344 16.6 9.5H19C19.5531 9.5 20 9.05312 20 8.5C20 7.94688 19.5531 7.5 19 7.5H18C17.4469 7.5 17 7.05312 17 6.5C17 5.94687 17.4469 5.5 18 5.5H19C20.6562 5.5 22 6.84375 22 8.5C22 10.1562 20.6562 11.5 19 11.5Z" fill="black"/>
</svg>
