<svg width="24" height="24" viewBox="0 0 24 24" fill="none" xmlns="http://www.w3.org/2000/svg">
<path d="M12.5625 5.56247C11.2156 5.25309 9.87498 6.09059 9.5656 7.43747C9.31873 8.50309 9.79685 9.56872 10.675 10.1218C10.8437 10.2281 10.9625 10.3968 11.0094 10.5906C11.0562 10.7843 11.0187 10.9875 10.9156 11.1562L8.32498 15.2968C8.43748 15.5062 8.49998 15.7468 8.49998 16C8.49998 16.8281 7.8281 17.5 6.99998 17.5C6.17185 17.5 5.49998 16.8281 5.49998 16C5.49998 15.1718 6.17185 14.5 6.99998 14.5C7.01873 14.5 7.03435 14.5 7.0531 14.5L9.28123 10.9343C8.2656 9.99059 7.76873 8.54684 8.1031 7.09997C8.59998 4.94684 10.7469 3.60622 12.9 4.10309C14.9594 4.57809 16.275 6.56247 15.9531 8.61559C15.8875 9.02497 15.5062 9.30309 15.0969 9.24059C14.6875 9.17809 14.4094 8.79372 14.4719 8.38434C14.6719 7.09997 13.8469 5.85934 12.5625 5.56247ZM12.0531 9.49997C12.0344 9.49997 12.0187 9.49997 12 9.49997C11.1719 9.49997 10.5 8.82809 10.5 7.99997C10.5 7.17184 11.1719 6.49997 12 6.49997C12.8281 6.49997 13.5 7.17184 13.5 7.99997C13.5 8.25309 13.4375 8.49372 13.325 8.70309L15.5531 12.2687C16.9844 11.7156 18.6719 12.0125 19.8281 13.1718C21.3906 14.7343 21.3906 17.2656 19.8281 18.8281C18.4844 20.1718 16.4219 20.3593 14.8781 19.3906C14.5281 19.1718 14.4219 18.7093 14.6406 18.3562C14.8594 18.0031 15.3219 17.9 15.675 18.1187C16.6406 18.7218 17.9281 18.6031 18.7687 17.7656C19.7437 16.7906 19.7437 15.2062 18.7687 14.2312C17.9312 13.3937 16.6406 13.275 15.675 13.8781C15.5062 13.9843 15.3031 14.0187 15.1094 13.9718C14.9156 13.925 14.7469 13.8062 14.6406 13.6375L12.0531 9.49997ZM17 17.5C16.4437 17.5 15.9594 17.1968 15.7 16.75H10.9312C10.6437 18.2593 9.49373 19.5281 7.89998 19.8968C5.74685 20.3937 3.59998 19.0531 3.1031 16.9C2.65623 14.9687 3.6906 13.0437 5.45935 12.3062C5.8406 12.1468 6.28123 12.3281 6.4406 12.7093C6.59998 13.0906 6.41873 13.5312 6.03748 13.6906C4.93123 14.15 4.28748 15.3562 4.5656 16.5593C4.87498 17.9062 6.21873 18.7437 7.56248 18.4343C8.71873 18.1687 9.5031 17.1375 9.49998 16C9.49998 15.8 9.5781 15.6093 9.71873 15.4687C9.85935 15.3281 10.05 15.25 10.25 15.25H15.7C15.9594 14.8031 16.4437 14.5 17 14.5C17.8281 14.5 18.5 15.1718 18.5 16C18.5 16.8281 17.8281 17.5 17 17.5Z" fill="black"/>
</svg>
