<svg width="24" height="24" viewBox="0 0 24 24" fill="none" xmlns="http://www.w3.org/2000/svg">
<path d="M6 5C6 4.44687 5.55313 4 5 4C4.44687 4 4 4.44687 4 5V19C4 19.5531 4.44687 20 5 20C5.55313 20 6 19.5531 6 19V14H8V14.2688C8 14.9031 8.58437 15.3781 9.20312 15.2469L10.5 14.9781V6.02187L9.20312 5.75C8.58125 5.62188 8 6.09375 8 6.72813V7H6V5ZM8 8.5V12.5H6V8.5H8ZM12.5 6.4375V14.5625L15.5 13.9375V7.0625L12.5 6.4375ZM19.2031 13.1656C19.6656 13.0687 20 12.6594 20 12.1875V8.8125C20 8.3375 19.6687 7.93125 19.2031 7.83437L17.5 7.47813V13.5219L19.2031 13.1656Z" fill="black"/>
</svg>
