<svg width="24" height="24" viewBox="0 0 24 24" fill="none" xmlns="http://www.w3.org/2000/svg">
<path d="M5.28145 16.2187C4.9877 15.925 4.5127 15.925 4.22207 16.2187C3.93145 16.5125 3.92832 16.9875 4.22207 17.2781C7.83457 20.8906 13.6783 20.9031 17.2939 17.2875C20.9096 13.6719 20.8908 7.83123 17.2814 4.21873C16.9877 3.92498 16.5127 3.92498 16.2221 4.21873C15.9314 4.51248 15.9283 4.98748 16.2221 5.2781C19.2502 8.30623 19.2564 13.2031 16.2314 16.2281C13.2064 19.2531 8.30957 19.2469 5.28145 16.2187ZM5.97832 15.5219C8.61582 18.1594 12.8877 18.1594 15.5252 15.5219C18.1564 12.8906 18.1627 8.62498 15.5346 5.98748L15.4002 5.8531C15.2064 5.65935 14.8877 5.65935 14.6939 5.8531L5.85332 14.6937C5.65957 14.8875 5.65957 15.2062 5.85332 15.4L5.97832 15.525V15.5219ZM13.6471 8.64685C13.8408 8.4531 14.1596 8.4531 14.3533 8.64685L14.8533 9.14685C15.0471 9.3406 15.0471 9.65935 14.8533 9.8531C14.6596 10.0469 14.3408 10.0469 14.1471 9.8531L13.6471 9.3531C13.4533 9.15935 13.4533 8.8406 13.6471 8.64685ZM11.1471 11.1469C11.3408 10.9531 11.6596 10.9531 11.8533 11.1469L12.3533 11.6469C12.5471 11.8406 12.5471 12.1593 12.3533 12.3531C12.1596 12.5469 11.8408 12.5469 11.6471 12.3531L11.1471 11.8531C10.9533 11.6594 10.9533 11.3406 11.1471 11.1469ZM13.8971 11.3969C14.0908 11.2031 14.4096 11.2031 14.6033 11.3969L15.1033 11.8969C15.2971 12.0906 15.2971 12.4093 15.1033 12.6031C14.9096 12.7969 14.5908 12.7969 14.3971 12.6031L13.8971 12.1031C13.7033 11.9093 13.7033 11.5906 13.8971 11.3969ZM8.64707 13.6469C8.84082 13.4531 9.15957 13.4531 9.35332 13.6469L9.85332 14.1469C10.0471 14.3406 10.0471 14.6593 9.85332 14.8531C9.65957 15.0469 9.34082 15.0469 9.14707 14.8531L8.64707 14.3531C8.45332 14.1593 8.45332 13.8406 8.64707 13.6469ZM11.3971 13.8969C11.5908 13.7031 11.9096 13.7031 12.1033 13.8969L12.6033 14.3969C12.7971 14.5906 12.7971 14.9093 12.6033 15.1031C12.4096 15.2969 12.0908 15.2969 11.8971 15.1031L11.3971 14.6031C11.2033 14.4093 11.2033 14.0906 11.3971 13.8969Z" fill="black"/>
</svg>
