<svg width="24" height="24" viewBox="0 0 24 24" fill="none" xmlns="http://www.w3.org/2000/svg">
<path d="M3.21255 4.15943C2.88755 3.90318 2.41568 3.96255 2.15943 4.28755C1.90318 4.61255 1.96255 5.08443 2.28755 5.34068L20.7876 19.8407C21.1126 20.0969 21.5844 20.0376 21.8407 19.7126C22.0969 19.3876 22.0376 18.9157 21.7126 18.6594L13.3282 12.0876L14.2251 11.1907L14.6063 11.5719C15.7782 12.7438 17.6782 12.7438 18.8501 11.5719L19.2032 11.2188C19.3969 11.0251 19.3969 10.7063 19.2032 10.5126L18.8501 10.1563C17.7844 9.09068 16.2688 8.75318 14.9157 9.14068C15.3032 7.78755 14.9626 6.27193 13.9001 5.2063L13.5469 4.85318C13.3532 4.65943 13.0344 4.65943 12.8407 4.85318L12.4844 5.2063C11.3126 6.37818 11.3126 8.27818 12.4844 9.45005L12.8094 9.77505L11.8563 10.7282C11.7501 9.87505 11.3719 9.04693 10.7157 8.39068L10.3626 8.03755C10.1688 7.8438 9.85005 7.8438 9.6563 8.03755L9.30318 8.39068C9.20005 8.4938 9.1063 8.60318 9.02193 8.71568L3.21255 4.15943ZM11.1813 14.2344L9.60005 12.9876L8.67818 13.9094C8.57193 13.0563 8.1938 12.2282 7.53755 11.5719L7.1813 11.2188C6.98755 11.0251 6.6688 11.0251 6.47505 11.2188L6.12193 11.5719C4.95005 12.7438 4.95005 14.6438 6.12193 15.8157L6.44693 16.1407L4.2938 18.2938C3.90318 18.6844 3.90318 19.3188 4.2938 19.7094C4.68443 20.1001 5.3188 20.1001 5.70943 19.7094L7.86255 17.5563L8.2438 17.9376C9.41568 19.1094 11.3157 19.1094 12.4876 17.9376L12.8407 17.5844C13.0344 17.3907 13.0344 17.0719 12.8407 16.8782L12.4876 16.5251C11.8063 15.8438 10.9376 15.4594 10.0469 15.3719L11.1813 14.2376V14.2344ZM18.7501 4.00005C17.2313 4.00005 16.0001 5.2313 16.0001 6.75005V7.50005C16.0001 7.77505 16.2251 8.00005 16.5001 8.00005H17.2501C18.7688 8.00005 20.0001 6.7688 20.0001 5.25005V4.50005C20.0001 4.22505 19.7751 4.00005 19.5001 4.00005H18.7501Z" fill="black"/>
</svg>
