<svg width="24" height="24" viewBox="0 0 24 24" fill="none" xmlns="http://www.w3.org/2000/svg">
<path d="M11.4219 6.1844C11.7688 5.93752 12.2313 5.93752 12.5781 6.1844C13.2813 6.66877 14.1406 7.00002 15 7.00002C15.8406 7.00002 16.7313 6.66252 17.4188 6.1844C17.7906 5.91877 18.2969 5.94065 18.6438 6.23752C19.0938 6.6094 19.6594 6.89377 20.225 7.02502C20.7625 7.15002 21.0969 7.68752 20.9719 8.22502C20.8469 8.76252 20.3094 9.0969 19.7719 8.9719C19.0063 8.79377 18.3688 8.45627 17.9531 8.19065C17.0469 8.67815 16.0313 9.00002 15 9.00002C14.0031 9.00002 13.1063 8.69065 12.4875 8.4094C12.3063 8.32502 12.1406 8.24377 12 8.16877C11.8594 8.24377 11.6969 8.32815 11.5125 8.4094C10.8938 8.69065 9.9969 9.00002 9.00002 9.00002C7.96877 9.00002 6.95315 8.67815 6.0469 8.19377C5.62815 8.45627 4.99377 8.7969 4.22815 8.97502C3.69065 9.10002 3.15315 8.76565 3.02815 8.22815C2.90315 7.69065 3.23752 7.15315 3.77502 7.02815C4.33752 6.89377 4.90627 6.6094 5.35315 6.23752C5.70002 5.94065 6.20627 5.9219 6.57815 6.1844C7.2719 6.66252 8.1594 7.00002 9.00002 7.00002C9.8594 7.00002 10.7188 6.66877 11.4219 6.1844ZM12.5781 15.1844C13.2813 15.6688 14.1406 16 15 16C15.8406 16 16.7313 15.6625 17.4188 15.1844C17.7906 14.9188 18.2969 14.9406 18.6438 15.2375C19.0938 15.6094 19.6594 15.8938 20.225 16.025C20.7625 16.15 21.0969 16.6875 20.9719 17.225C20.8469 17.7625 20.3094 18.0969 19.7719 17.9719C19.0063 17.7938 18.3688 17.4563 17.9531 17.1906C17.0469 17.6781 16.0313 18 15 18C14.0031 18 13.1063 17.6906 12.4875 17.4094C12.3063 17.325 12.1406 17.2438 12 17.1688C11.8594 17.2438 11.6969 17.3281 11.5125 17.4094C10.8938 17.6906 9.9969 18 9.00002 18C7.96877 18 6.95315 17.6781 6.0469 17.1938C5.62815 17.4563 4.99377 17.7969 4.22815 17.975C3.69065 18.1 3.15315 17.7656 3.02815 17.2281C2.90315 16.6906 3.23752 16.1531 3.77502 16.0281C4.34065 15.8969 4.90627 15.6125 5.35627 15.2406C5.70315 14.9469 6.2094 14.925 6.58127 15.1875C7.2719 15.6625 8.1594 16 9.00002 16C9.8594 16 10.7188 15.6688 11.4219 15.1844C11.7688 14.9375 12.2313 14.9375 12.5781 15.1844ZM12.5781 10.6844C13.2813 11.1688 14.1406 11.5 15 11.5C15.8406 11.5 16.7313 11.1625 17.4188 10.6844C17.7906 10.4188 18.2969 10.4406 18.6438 10.7375C19.0938 11.1094 19.6594 11.3938 20.225 11.525C20.7625 11.65 21.0969 12.1875 20.9719 12.725C20.8469 13.2625 20.3094 13.5969 19.7719 13.4719C19.0063 13.2938 18.3688 12.9563 17.9531 12.6906C17.0469 13.1781 16.0313 13.5 15 13.5C14.0031 13.5 13.1063 13.1906 12.4875 12.9094C12.3063 12.825 12.1406 12.7438 12 12.6688C11.8594 12.7438 11.6969 12.8281 11.5125 12.9094C10.8938 13.1906 9.9969 13.5 9.00002 13.5C7.96877 13.5 6.95315 13.1781 6.0469 12.6938C5.62815 12.9563 4.99377 13.2969 4.22815 13.475C3.69065 13.6 3.15315 13.2656 3.02815 12.7281C2.90315 12.1906 3.23752 11.6531 3.77502 11.5281C4.34065 11.3969 4.90627 11.1125 5.35627 10.7406C5.70315 10.4438 6.2094 10.425 6.58127 10.6875C7.2719 11.1625 8.1594 11.5 9.00002 11.5C9.8594 11.5 10.7188 11.1688 11.4219 10.6844C11.7688 10.4375 12.2313 10.4375 12.5781 10.6844Z" fill="black"/>
</svg>
