<svg width="24" height="24" viewBox="0 0 24 24" fill="none" xmlns="http://www.w3.org/2000/svg">
<path d="M8.0031 4.91562C8.04685 4.4 8.48122 4 8.99997 4H15C15.5187 4 15.9531 4.4 15.9968 4.91562L16.4343 10.1781C16.6218 12.4281 15.1062 14.4031 13 14.8844V18H14.5C15.0531 18 15.5 18.4469 15.5 19C15.5 19.5531 15.0531 20 14.5 20H12H9.49997C8.94685 20 8.49997 19.5531 8.49997 19C8.49997 18.4469 8.94685 18 9.49997 18H11V14.8875C8.89372 14.4062 7.3781 12.4312 7.5656 10.1813L8.0031 4.91875V4.91562ZM9.7531 8H14.2468L14.0812 6H9.91872L9.7531 8Z" fill="black"/>
</svg>
