<svg width="24" height="24" viewBox="0 0 24 24" fill="none" xmlns="http://www.w3.org/2000/svg">
<path d="M19.5312 4.21942C19.25 3.93817 18.7969 3.92567 18.5 4.1913L9.91563 11.8725C9.825 11.9538 9.70625 12.0007 9.58125 12.0007H8.5C8.225 12.0007 8 12.2257 8 12.5007V13.3632C8 13.5069 7.94062 13.6413 7.83437 13.735L4.34688 16.8538C4.125 17.0538 4 17.335 4 17.6319C4 17.9069 4.10938 18.1725 4.30312 18.3663L5.63437 19.6975C5.82812 19.8913 6.09375 20.0038 6.36875 20.0038C6.66563 20.0038 6.94687 19.8788 7.14375 19.6569L15.6344 10.1663C15.7281 10.06 15.8656 10.0007 16.0063 10.0007H16.5C16.775 10.0007 17 9.77567 17 9.50067V8.83192C17 8.71005 17.0469 8.5913 17.1281 8.49755L19.8094 5.50067C20.075 5.2038 20.0625 4.75067 19.7812 4.46942L19.5312 4.21942Z" fill="black"/>
</svg>
