<svg width="24" height="24" viewBox="0 0 24 24" fill="none" xmlns="http://www.w3.org/2000/svg">
<path d="M3.69356 10.3406C5.84981 8.27187 8.77481 7 11.9998 7C15.2248 7 18.1498 8.27187 20.3061 10.3406C20.7061 10.7219 21.3373 10.7094 21.7186 10.3125C22.0998 9.91563 22.0873 9.28125 21.6904 8.9C19.1779 6.48438 15.7623 5 11.9998 5C8.23731 5 4.82168 6.48438 2.30606 8.89687C1.90918 9.28125 1.89668 9.9125 2.27793 10.3125C2.65918 10.7125 3.29356 10.725 3.69043 10.3406H3.69356ZM11.9998 12C13.7748 12 15.3936 12.6594 16.6311 13.75C17.0467 14.1156 17.6779 14.075 18.0436 13.6625C18.4092 13.25 18.3686 12.6156 17.9561 12.25C16.3686 10.85 14.2811 10 11.9998 10C9.71856 10 7.63106 10.85 6.04668 12.25C5.63106 12.6156 5.59356 13.2469 5.95918 13.6625C6.32481 14.0781 6.95606 14.1156 7.37168 13.75C8.60606 12.6594 10.2248 12 12.0029 12H11.9998ZM13.9998 17C13.9998 16.4696 13.7891 15.9609 13.414 15.5858C13.0389 15.2107 12.5302 15 11.9998 15C11.4694 15 10.9607 15.2107 10.5856 15.5858C10.2105 15.9609 9.99981 16.4696 9.99981 17C9.99981 17.5304 10.2105 18.0391 10.5856 18.4142C10.9607 18.7893 11.4694 19 11.9998 19C12.5302 19 13.0389 18.7893 13.414 18.4142C13.7891 18.0391 13.9998 17.5304 13.9998 17Z" fill="black"/>
</svg>
