<svg width="24" height="24" viewBox="0 0 24 24" fill="none" xmlns="http://www.w3.org/2000/svg">
<path d="M5.94989 5.68432C5.77489 5.15932 5.20614 4.87807 4.68426 5.04994C4.16239 5.22182 3.87801 5.79369 4.04989 6.31557L5.61239 10.9999H4.99989C4.44676 10.9999 3.99989 11.4468 3.99989 11.9999C3.99989 12.5531 4.44676 12.9999 4.99989 12.9999H6.27801L8.04989 18.3156C8.19051 18.7374 8.59364 19.0156 9.03739 18.9999C9.48114 18.9843 9.86239 18.6749 9.96864 18.2437L11.2811 12.9999H12.7186L14.0311 18.2437C14.1374 18.6749 14.5186 18.9843 14.9624 18.9999C15.4061 19.0156 15.8093 18.7374 15.9499 18.3156L17.7218 12.9999H18.9999C19.553 12.9999 19.9999 12.5531 19.9999 11.9999C19.9999 11.4468 19.553 10.9999 18.9999 10.9999H18.3874L19.9499 6.31557C20.1249 5.79057 19.8405 5.22494 19.3186 5.04994C18.7968 4.87494 18.228 5.15932 18.053 5.68119L16.278 10.9999H14.2811L12.9686 5.75619C12.8593 5.31244 12.4593 4.99994 11.9999 4.99994C11.5405 4.99994 11.1405 5.31244 11.0311 5.75619L9.71864 10.9999H7.71864L5.94989 5.68432ZM8.38739 12.9999H9.21864L8.86239 14.4249L8.38739 12.9999ZM11.7811 10.9999L11.9999 10.1218L12.2186 10.9999H11.7811ZM14.7811 12.9999H15.6124L15.1374 14.4249L14.7811 12.9999Z" fill="black"/>
</svg>
