<svg width="24" height="24" viewBox="0 0 24 24" fill="none" xmlns="http://www.w3.org/2000/svg">
<path d="M14.0781 8.24062L13 7.25938V10.5C13 11.0531 12.5531 11.5 12 11.5C11.4469 11.5 11 11.0531 11 10.5V7.25938L9.92188 8.2375C9.5125 8.60938 8.88125 8.57812 8.50938 8.16875C8.1375 7.75937 8.16875 7.12812 8.57813 6.75625L11.3281 4.25625C11.7094 3.90938 12.2906 3.90938 12.675 4.25625L15.425 6.75625C15.8344 7.12812 15.8625 7.75937 15.4938 8.16875C15.125 8.57812 14.4906 8.60625 14.0813 8.2375L14.0781 8.24062ZM11.4219 13.1844C11.7688 12.9375 12.2313 12.9375 12.5781 13.1844C13.2813 13.6687 14.1406 14 15 14C15.8406 14 16.7313 13.6625 17.4188 13.1844C17.7906 12.9187 18.2969 12.9406 18.6438 13.2375C19.0938 13.6094 19.6594 13.8937 20.225 14.025C20.7625 14.15 21.0969 14.6875 20.9719 15.225C20.8469 15.7625 20.3094 16.0969 19.7719 15.9719C19.0063 15.7937 18.3688 15.4563 17.9531 15.1906C17.0469 15.6781 16.0313 16 15 16C14.0031 16 13.1063 15.6906 12.4875 15.4094C12.3063 15.325 12.1406 15.2437 12 15.1687C11.8594 15.2437 11.6969 15.3281 11.5125 15.4094C10.8938 15.6906 9.99688 16 9 16C7.96875 16 6.95313 15.6781 6.04688 15.1938C5.62813 15.4563 4.99375 15.7969 4.22813 15.975C3.69063 16.1 3.15313 15.7656 3.02813 15.2281C2.90313 14.6906 3.2375 14.1531 3.775 14.0281C4.34063 13.8969 4.90625 13.6125 5.35625 13.2406C5.70313 12.9438 6.20938 12.925 6.58125 13.1875C7.27188 13.6625 8.15938 14 9 14C9.85938 14 10.7188 13.6687 11.4219 13.1844ZM12.5781 17.1844C13.2813 17.6687 14.1406 18 15 18C15.8406 18 16.7313 17.6625 17.4188 17.1844C17.7906 16.9187 18.2969 16.9406 18.6438 17.2375C19.0938 17.6094 19.6594 17.8937 20.225 18.025C20.7625 18.15 21.0969 18.6875 20.9719 19.225C20.8469 19.7625 20.3094 20.0969 19.7719 19.9719C19.0063 19.7937 18.3688 19.4563 17.9531 19.1906C17.0469 19.6781 16.0313 20 15 20C14.0031 20 13.1063 19.6906 12.4875 19.4094C12.3063 19.325 12.1406 19.2437 12 19.1687C11.8594 19.2437 11.6969 19.3281 11.5125 19.4094C10.8938 19.6906 9.99688 20 9 20C7.96875 20 6.95313 19.6781 6.04688 19.1938C5.62813 19.4563 4.99375 19.7969 4.22813 19.975C3.69063 20.1 3.15313 19.7656 3.02813 19.2281C2.90313 18.6906 3.2375 18.1531 3.775 18.0281C4.34063 17.8969 4.90625 17.6125 5.35625 17.2406C5.70313 16.9469 6.20938 16.925 6.58125 17.1875C7.27188 17.6625 8.15938 18 9 18C9.85938 18 10.7188 17.6687 11.4219 17.1844C11.7688 16.9375 12.2313 16.9375 12.5781 17.1844Z" fill="black"/>
</svg>
