<svg width="24" height="24" viewBox="0 0 24 24" fill="none" xmlns="http://www.w3.org/2000/svg">
<path d="M2 19.25V9.35317C2 8.53442 2.49688 7.80005 3.25625 7.49692L11.6281 4.15005C11.8656 4.05317 12.1312 4.05317 12.3719 4.15005L20.7437 7.49692C21.5031 7.80005 22 8.53755 22 9.35317V19.25C22 19.6657 21.6656 20 21.25 20H19.75C19.3344 20 19 19.6657 19 19.25V11C19 10.4469 18.5531 10 18 10H6C5.44688 10 5 10.4469 5 11V19.25C5 19.6657 4.66563 20 4.25 20H2.75C2.33437 20 2 19.6657 2 19.25ZM13.75 16H17.25C17.6656 16 18 16.3344 18 16.75V19.25C18 19.6657 17.6656 20 17.25 20H13.75C13.3344 20 13 19.6657 13 19.25V16.75C13 16.3344 13.3344 16 13.75 16ZM6 11.75C6 11.3344 6.33437 11 6.75 11H11.25C11.6656 11 12 11.3344 12 11.75V14.25C12 14.6657 11.6656 15 11.25 15H6.75C6.33437 15 6 14.6657 6 14.25V11.75ZM6.75 16H11.25C11.6656 16 12 16.3344 12 16.75V19.25C12 19.6657 11.6656 20 11.25 20H6.75C6.33437 20 6 19.6657 6 19.25V16.75C6 16.3344 6.33437 16 6.75 16Z" fill="black"/>
</svg>
