<svg width="24" height="24" viewBox="0 0 24 24" fill="none" xmlns="http://www.w3.org/2000/svg">
<path d="M7.00002 7.99062C7.00002 6.34062 8.34065 5 9.99065 5C11.5 5 12.7719 6.125 12.9594 7.62188L12.9906 7.87812C13.0594 8.425 12.6719 8.925 12.1219 8.99375C11.5719 9.0625 11.075 8.675 11.0063 8.125L10.975 7.86875C10.9125 7.37188 10.4906 7 9.99065 7C9.44377 7 9.00002 7.44375 9.00002 7.99062V11H15V7.99062C15 6.34062 16.3406 5 17.9906 5C19.5 5 20.7719 6.125 20.9594 7.62188L20.9906 7.87812C21.0594 8.425 20.6719 8.925 20.1219 8.99375C19.5719 9.0625 19.075 8.675 19.0063 8.125L18.975 7.86875C18.9125 7.37188 18.4906 7 17.9906 7C17.4438 7 17 7.44375 17 7.99062V15.2812C16.95 15.3125 16.8969 15.3438 16.85 15.3781C16.2875 15.7656 15.5969 16.0125 15 16.0125V13H9.00002V16.0156C8.40627 16.0156 7.71252 15.7688 7.15315 15.3813C7.10315 15.3469 7.05315 15.3125 7.00002 15.2844V7.99062ZM12.5781 16.1844C13.2813 16.6687 14.1406 17 15 17C15.8406 17 16.7313 16.6625 17.4188 16.1844C17.7906 15.9187 18.2969 15.9406 18.6438 16.2375C19.0938 16.6094 19.6594 16.8937 20.225 17.025C20.7625 17.15 21.0969 17.6875 20.9719 18.225C20.8469 18.7625 20.3094 19.0969 19.7719 18.9719C19.0063 18.7938 18.3688 18.4563 17.9531 18.1906C17.0469 18.6781 16.0313 19 15 19C14.0031 19 13.1063 18.6906 12.4875 18.4094C12.3063 18.325 12.1406 18.2437 12 18.1687C11.8594 18.2437 11.6969 18.3281 11.5125 18.4094C10.8938 18.6906 9.9969 19 9.00002 19C7.96877 19 6.95315 18.6781 6.0469 18.1938C5.62815 18.4563 4.99377 18.7969 4.22815 18.975C3.69065 19.1 3.15315 18.7656 3.02815 18.2281C2.90315 17.6906 3.23752 17.1531 3.77502 17.0281C4.34065 16.8969 4.90627 16.6125 5.35627 16.2406C5.70315 15.9469 6.2094 15.925 6.58127 16.1875C7.2719 16.6625 8.1594 17 9.00002 17C9.8594 17 10.7188 16.6687 11.4219 16.1844C11.7688 15.9375 12.2313 15.9375 12.5781 16.1844Z" fill="black"/>
</svg>
