<svg width="24" height="24" viewBox="0 0 24 24" fill="none" xmlns="http://www.w3.org/2000/svg">
<path d="M10.0063 8.39375C9.6625 8.9625 9.36875 9.64687 9.09062 10.4125C8.80312 9.54062 8.47188 8.61875 8.0625 7.76562C8.1375 7.625 8.21563 7.4875 8.29688 7.35313C9.07187 6.075 10.2281 5 12 5C13.7719 5 14.9281 6.075 15.7063 7.35625C16.45 8.58125 16.9656 10.175 17.4312 11.6219L17.4531 11.6937C17.9469 13.2281 18.3969 14.6031 19.0063 15.6062C19.5938 16.575 20.2063 17 21 17C21.5531 17 22 17.4469 22 18C22 18.5531 21.5531 19 21 19C19.2281 19 18.0719 17.925 17.2937 16.6438C16.55 15.4188 16.0344 13.825 15.5688 12.3781L15.5469 12.3062C15.0531 10.7719 14.6031 9.39688 13.9937 8.39375C13.4062 7.425 12.7937 7 12 7C11.2063 7 10.5938 7.425 10.0063 8.39375ZM6.94063 16.2312C6.86563 16.3719 6.7875 16.5094 6.70625 16.6438C5.92813 17.925 4.77188 19 3 19C2.44687 19 2 18.5531 2 18C2 17.4469 2.44687 17 3 17C3.79375 17 4.40625 16.575 4.99375 15.6062C5.3375 15.0375 5.63125 14.3531 5.90937 13.5875C6.19687 14.4594 6.52812 15.3813 6.9375 16.2344L6.94063 16.2312ZM13.9969 15.6062C14.3406 15.0375 14.6344 14.3531 14.9125 13.5875C15.2 14.4594 15.5313 15.3813 15.9406 16.2344C15.8656 16.375 15.7875 16.5125 15.7063 16.6469C14.9281 17.925 13.7719 19 12 19C10.2281 19 9.07187 17.925 8.29375 16.6438C7.55 15.4188 7.03437 13.825 6.56875 12.3781L6.54688 12.3062C6.05312 10.7719 5.60313 9.39688 4.99375 8.39375C4.40625 7.425 3.79375 7 3 7C2.44687 7 2 6.55313 2 6C2 5.44687 2.44687 5 3 5C4.77188 5 5.92813 6.075 6.70625 7.35625C7.45 8.58125 7.96563 10.175 8.43125 11.6219L8.45312 11.6937C8.94688 13.2281 9.39688 14.6031 10.0063 15.6062C10.5938 16.575 11.2063 17 12 17C12.7937 17 13.4062 16.575 13.9937 15.6062H13.9969ZM19.0063 8.39375C18.6625 8.9625 18.3688 9.64687 18.0906 10.4125C17.8031 9.54062 17.4719 8.61563 17.0625 7.76562C17.1375 7.625 17.2156 7.4875 17.2969 7.35313C18.0719 6.075 19.2281 5 21 5C21.5531 5 22 5.44687 22 6C22 6.55313 21.5531 7 21 7C20.2063 7 19.5938 7.425 19.0063 8.39375Z" fill="black"/>
</svg>
