<svg width="24" height="24" viewBox="0 0 24 24" fill="none" xmlns="http://www.w3.org/2000/svg">
<path d="M3.21243 4.15943C2.88743 3.90318 2.41556 3.96255 2.15931 4.28755C1.90306 4.61255 1.96243 5.08443 2.28743 5.34068L20.7874 19.8407C21.1124 20.0969 21.5843 20.0376 21.8406 19.7126C22.0968 19.3876 22.0374 18.9157 21.7124 18.6594L13.3937 12.1376C14.6187 12.3844 15.7281 12.9532 16.6312 13.7501C17.0468 14.1157 17.6781 14.0751 18.0437 13.6626C18.4093 13.2501 18.3687 12.6157 17.9562 12.2501C16.3687 10.8501 14.2812 10.0001 11.9999 10.0001C11.5843 10.0001 11.1718 10.0282 10.7718 10.0844L7.79993 7.7563C9.10618 7.26568 10.5218 7.00005 11.9999 7.00005C15.2249 7.00005 18.1499 8.27193 20.3062 10.3407C20.7062 10.7219 21.3374 10.7094 21.7187 10.3126C22.0999 9.91568 22.0874 9.2813 21.6906 8.90005C19.1781 6.48443 15.7624 5.00005 11.9999 5.00005C9.85306 5.00005 7.82181 5.48443 6.00306 6.34693L3.21243 4.15943ZM13.8999 16.3751L12.1624 15.0063C12.1093 15.0032 12.0562 15.0001 11.9999 15.0001C10.8968 15.0001 9.99993 15.8969 9.99993 17.0001C9.99993 18.1032 10.8968 19.0001 11.9999 19.0001C13.1031 19.0001 13.9999 18.1032 13.9999 17.0001C13.9999 16.7813 13.9656 16.5719 13.8999 16.3751ZM9.12493 12.6157L7.40618 11.2594C6.92181 11.5469 6.46556 11.8782 6.04681 12.2501C5.63118 12.6157 5.59368 13.2469 5.95931 13.6626C6.32493 14.0782 6.95618 14.1157 7.37181 13.7501C7.89368 13.2876 8.48431 12.9063 9.12806 12.6157H9.12493ZM4.92493 9.3063L3.30306 8.02818C2.95931 8.30318 2.62493 8.5938 2.30618 8.89693C1.90931 9.2813 1.89681 9.91255 2.27806 10.3126C2.65931 10.7126 3.29368 10.7251 3.69056 10.3407C4.07806 9.9688 4.49056 9.62193 4.92493 9.3063Z" fill="black"/>
</svg>
