<svg width="24" height="24" viewBox="0 0 24 24" fill="none" xmlns="http://www.w3.org/2000/svg">
<path d="M8 5.5C8 4.67188 8.67188 4 9.5 4H14.5C15.3281 4 16 4.67188 16 5.5H8ZM8 18.5H16C16 19.3281 15.3281 20 14.5 20H9.5C8.67188 20 8 19.3281 8 18.5ZM6 9C6 7.61875 7.11875 6.5 8.5 6.5H15.5C16.8813 6.5 18 7.61875 18 9V15C18 16.3813 16.8813 17.5 15.5 17.5H8.5C7.11875 17.5 6 16.3813 6 15V9ZM10.4156 9C9.35625 9 8.5 9.85625 8.5 10.9156C8.5 11.4219 8.70313 11.9094 9.05938 12.2688L11.6438 14.8531C11.8375 15.0469 12.1562 15.0469 12.35 14.8531L14.9344 12.2688C15.2937 11.9094 15.4937 11.4219 15.4937 10.9156C15.4937 9.85938 14.6375 9 13.5781 9C13.0719 9 12.5844 9.20312 12.225 9.55937L11.9938 9.79063L11.7625 9.55937C11.4031 9.2 10.9156 9 10.4094 9H10.4156Z" fill="black"/>
</svg>
