<svg width="24" height="24" viewBox="0 0 24 24" fill="none" xmlns="http://www.w3.org/2000/svg">
<path d="M3.21249 4.15937C2.88749 3.90312 2.41562 3.96249 2.15937 4.28749C1.90312 4.61249 1.96249 5.08437 2.28749 5.34062L20.7875 19.8406C21.1125 20.0969 21.5844 20.0375 21.8406 19.7125C22.0969 19.3875 22.0375 18.9156 21.7125 18.6594L13.3281 12.0875L14.225 11.1906L14.6062 11.5719C15.7781 12.7437 17.6781 12.7437 18.85 11.5719L19.2031 11.2187C19.3969 11.025 19.3969 10.7062 19.2031 10.5125L18.85 10.1562C18.6875 9.99374 18.5187 9.84999 18.3375 9.72187L19.7812 8.28124C20.075 7.98749 20.075 7.51249 19.7812 7.22187C19.4875 6.93124 19.0125 6.92812 18.7219 7.22187L16.8656 9.07812C16.2219 8.94062 15.5531 8.96249 14.9187 9.14374C15.1094 8.47812 15.125 7.77499 14.9625 7.10312L16.7812 5.28124C17.075 4.98749 17.075 4.51249 16.7812 4.22187C16.4875 3.93124 16.0125 3.92812 15.7219 4.22187L14.2844 5.65312C14.1687 5.49687 14.0406 5.34687 13.8969 5.20624L13.5469 4.85312C13.3531 4.65937 13.0344 4.65937 12.8406 4.85312L12.4844 5.20624C11.3125 6.37812 11.3125 8.27812 12.4844 9.44999L12.8094 9.77499L11.8562 10.7281C11.75 9.87499 11.3719 9.04687 10.7156 8.39062L10.3625 8.03749C10.1687 7.84374 9.84999 7.84374 9.65624 8.03749L9.30312 8.39062C9.19999 8.49374 9.10624 8.60312 9.02187 8.71562L3.21249 4.15937ZM11.1812 14.2344L9.59999 12.9875L8.67812 13.9094C8.57187 13.0562 8.19374 12.2281 7.53749 11.5719L7.18124 11.2187C6.98749 11.025 6.66874 11.025 6.47499 11.2187L6.12187 11.5719C4.94999 12.7437 4.94999 14.6437 6.12187 15.8156L6.44687 16.1406L4.29374 18.2937C3.90312 18.6844 3.90312 19.3187 4.29374 19.7094C4.68437 20.1 5.31874 20.1 5.70937 19.7094L7.86249 17.5562L8.24374 17.9375C9.41562 19.1094 11.3156 19.1094 12.4875 17.9375L12.8406 17.5844C13.0344 17.3906 13.0344 17.0719 12.8406 16.8781L12.4875 16.525C11.8062 15.8437 10.9375 15.4594 10.0469 15.3719L11.1812 14.2375V14.2344ZM19.7812 5.28124C20.075 4.98749 20.075 4.51249 19.7812 4.22187C19.4875 3.93124 19.0125 3.92812 18.7219 4.22187L15.9687 6.96874C15.675 7.26249 15.675 7.73749 15.9687 8.02812C16.2625 8.31874 16.7375 8.32187 17.0281 8.02812L19.7781 5.27812L19.7812 5.28124Z" fill="black"/>
</svg>
