<svg width="24" height="24" viewBox="0 0 24 24" fill="none" xmlns="http://www.w3.org/2000/svg">
<path d="M3.98116 11.1969V11.1937L3.98741 11.1625C3.99366 11.1344 4.00303 11.0875 4.01866 11.0281C4.04991 10.9094 4.09678 10.7344 4.16241 10.5219C4.29991 10.0938 4.50928 9.53125 4.81241 8.98125C5.44366 7.8375 6.30616 7 7.49991 7C8.40616 7 9.03428 7.45 9.59366 8.3875C10.1874 9.38125 10.5905 10.7437 11.0405 12.2781C11.0468 12.3031 11.0562 12.3281 11.0624 12.3531C11.4843 13.7969 11.9499 15.4 12.6874 16.6344C13.4718 17.9469 14.6562 18.9969 16.4999 18.9969C18.8062 18.9969 20.1937 17.3344 20.9374 15.9781C21.3218 15.2781 21.5812 14.5875 21.7405 14.0781C21.8218 13.8219 21.8812 13.6062 21.9187 13.4531C21.9374 13.375 21.953 13.3156 21.9624 13.2688C21.9687 13.2469 21.9718 13.2281 21.9749 13.2156L21.978 13.2V13.1938V13.1906C21.978 13.1906 21.978 13.1906 20.9968 12.9937L21.978 13.1906C22.0874 12.65 21.7343 12.1219 21.1937 12.0125C20.653 11.9031 20.1249 12.2562 20.0155 12.7969V12.8L20.0093 12.8313C20.003 12.8594 19.9937 12.9062 19.978 12.9656C19.9468 13.0844 19.8999 13.2594 19.8343 13.4719C19.6999 13.9 19.4874 14.4594 19.1843 15.0094C18.5562 16.1531 17.6905 16.9906 16.4968 16.9906C15.5905 16.9906 14.9624 16.5406 14.403 15.6031C13.8093 14.6094 13.4062 13.2469 12.9562 11.7125C12.9499 11.6875 12.9405 11.6625 12.9343 11.6375C12.5124 10.1937 12.0468 8.59063 11.3093 7.35625C10.528 6.05 9.34366 5 7.49991 5C5.19366 5 3.80616 6.6625 3.06241 8.01875C2.67803 8.71875 2.41866 9.40625 2.25616 9.91563C2.17491 10.1719 2.11553 10.3875 2.07803 10.5406C2.05928 10.6188 2.04366 10.6781 2.03428 10.725C2.02803 10.7469 2.02491 10.7656 2.02178 10.7781L2.01866 10.7937V10.8V10.8031C2.01866 10.8031 2.01866 10.8031 2.99991 11L2.01866 10.8031C1.90928 11.3438 2.26241 11.8719 2.80303 11.9812C3.34366 12.0906 3.87178 11.7375 3.98116 11.1969Z" fill="black"/>
</svg>
