<svg width="24" height="24" viewBox="0 0 24 24" fill="none" xmlns="http://www.w3.org/2000/svg">
<path d="M14.0781 7.25938L13 8.24062V5C13 4.44687 12.5531 4 12 4C11.4469 4 11 4.44687 11 5V8.24062L9.92187 7.2625C9.5125 6.89062 8.88125 6.92188 8.50937 7.33125C8.1375 7.74062 8.16875 8.37188 8.57812 8.74375L11.3281 11.2438C11.7094 11.5906 12.2906 11.5906 12.675 11.2438L15.425 8.74375C15.8344 8.37188 15.8625 7.74062 15.4937 7.33125C15.125 6.92188 14.4906 6.89375 14.0813 7.2625L14.0781 7.25938ZM11.4219 13.1844C10.7188 13.6687 9.85937 14 9 14C8.15937 14 7.27188 13.6625 6.58125 13.1844C6.20937 12.9187 5.70312 12.9406 5.35625 13.2375C4.90625 13.6094 4.34062 13.8937 3.775 14.025C3.2375 14.15 2.90312 14.6875 3.02812 15.225C3.15312 15.7625 3.69062 16.0969 4.22812 15.9719C4.99375 15.7937 5.63125 15.4563 6.04688 15.1906C6.95312 15.6781 7.96875 16 9 16C9.99687 16 10.8937 15.6906 11.5125 15.4094C11.6937 15.325 11.8594 15.2437 12 15.1687C12.1406 15.2437 12.3031 15.3281 12.4875 15.4094C13.1063 15.6906 14.0031 16 15 16C16.0313 16 17.0469 15.6781 17.9531 15.1938C18.3719 15.4563 19.0062 15.7969 19.7719 15.975C20.3094 16.1 20.8469 15.7656 20.9719 15.2281C21.0969 14.6906 20.7625 14.1531 20.225 14.0281C19.6594 13.8969 19.0938 13.6125 18.6438 13.2406C18.2969 12.9438 17.7906 12.925 17.4188 13.1875C16.7313 13.6625 15.8406 14 15 14C14.1406 14 13.2813 13.6687 12.5781 13.1844C12.2313 12.9375 11.7688 12.9375 11.4219 13.1844ZM12.5781 17.1844C12.2313 16.9375 11.7688 16.9375 11.4219 17.1844C10.7188 17.6687 9.85937 18 9 18C8.15937 18 7.27188 17.6625 6.58125 17.1844C6.20937 16.9187 5.70312 16.9406 5.35625 17.2375C4.90625 17.6094 4.34062 17.8937 3.775 18.025C3.2375 18.15 2.90312 18.6875 3.02812 19.225C3.15312 19.7625 3.69062 20.0969 4.22812 19.9719C4.99375 19.7937 5.63125 19.4563 6.04688 19.1906C6.95312 19.6781 7.96875 20 9 20C9.99687 20 10.8937 19.6906 11.5125 19.4094C11.6937 19.325 11.8594 19.2437 12 19.1687C12.1406 19.2437 12.3031 19.3281 12.4875 19.4094C13.1063 19.6906 14.0031 20 15 20C16.0313 20 17.0469 19.6781 17.9531 19.1938C18.3719 19.4563 19.0062 19.7969 19.7719 19.975C20.3094 20.1 20.8469 19.7656 20.9719 19.2281C21.0969 18.6906 20.7625 18.1531 20.225 18.0281C19.6594 17.8969 19.0938 17.6125 18.6438 17.2406C18.2969 16.9469 17.7906 16.925 17.4188 17.1875C16.7313 17.6625 15.8406 18 15 18C14.1406 18 13.2813 17.6687 12.5781 17.1844Z" fill="black"/>
</svg>
