<svg width="24" height="24" viewBox="0 0 24 24" fill="none" xmlns="http://www.w3.org/2000/svg">
<path d="M7.4999 5C7.81552 5 8.1124 5.14687 8.2999 5.4L16.4999 16.3344L20.1999 11.4C20.5311 10.9594 21.1593 10.8687 21.5999 11.2C22.0405 11.5312 22.1311 12.1594 21.7999 12.6L17.2999 18.6C17.1124 18.8531 16.8155 19 16.4999 19C16.1843 19 15.8874 18.8531 15.6999 18.6L7.4999 7.66563L3.7999 12.6C3.46865 13.0406 2.84052 13.1313 2.3999 12.8C1.95927 12.4688 1.86865 11.8406 2.1999 11.4L6.6999 5.4C6.8874 5.14687 7.18427 5 7.4999 5Z" fill="black"/>
</svg>
