<svg width="24" height="24" viewBox="0 0 24 24" fill="none" xmlns="http://www.w3.org/2000/svg">
<path d="M13.8657 16.9634C14.15 17.4259 14.8657 17.1665 14.7875 16.629L13.9032 10.6259C13.8875 10.5196 13.9063 10.4103 13.9594 10.3165L16.8438 4.97589C17.1032 4.49776 16.5188 4.00714 16.0938 4.34776L11.3344 8.11651C11.25 8.18214 11.1469 8.22276 11.0375 8.22589L4.97192 8.39464C4.42817 8.40714 4.29692 9.15714 4.80317 9.35714L10.4469 11.5915C10.5469 11.6321 10.6313 11.7009 10.6875 11.7946L13.8657 16.9634ZM11 14.2134V18.5009H8.75005C8.33442 18.5009 8.00005 18.8353 8.00005 19.2509C8.00005 19.6665 8.33442 20.0009 8.75005 20.0009H15.25C15.6657 20.0009 16 19.6665 16 19.2509C16 18.8353 15.6657 18.5009 15.25 18.5009H13V17.4634L11 14.2134ZM12 9.25089C12.199 9.25089 12.3897 9.3299 12.5304 9.47056C12.671 9.61121 12.75 9.80198 12.75 10.0009C12.75 10.1998 12.671 10.3906 12.5304 10.5312C12.3897 10.6719 12.199 10.7509 12 10.7509C11.8011 10.7509 11.6104 10.6719 11.4697 10.5312C11.3291 10.3906 11.25 10.1998 11.25 10.0009C11.25 9.80198 11.3291 9.61121 11.4697 9.47056C11.6104 9.3299 11.8011 9.25089 12 9.25089Z" fill="black"/>
</svg>
