<svg width="24" height="24" viewBox="0 0 24 24" fill="none" xmlns="http://www.w3.org/2000/svg">
<path d="M6.5 7.5C6.5 5.56562 8.06563 4 10 4H10.5C10.775 4 11 4.225 11 4.5V5C11 6.88125 9.51562 8.41562 7.65625 8.49687C6.90938 9.50312 6.5 10.7312 6.5 12C6.5 15.0375 8.9625 17.5 12 17.5H12.3625C13.7219 17.5 15.0594 17.8156 16.275 18.425L16.5844 18.5813C16.9563 18.7656 17.1062 19.2156 16.9187 19.5875C16.7312 19.9594 16.2844 20.1094 15.9125 19.9219L15.6031 19.7656C14.5969 19.2625 13.4875 19 12.3625 19H12H11.6375C10.5125 19 9.40313 19.2625 8.39375 19.7656L8.08437 19.9219C7.7125 20.1063 7.2625 19.9562 7.07812 19.5875C6.89375 19.2188 7.04375 18.7656 7.4125 18.5813L7.72188 18.425C7.98125 18.2937 8.24687 18.1781 8.51562 18.075C8.34062 17.975 8.17188 17.8656 8.00625 17.7531C6.14375 18.6344 3.88437 17.95 2.8375 16.1344L2.5875 15.7C2.45 15.4594 2.53125 15.1562 2.77188 15.0156C3.20312 14.7656 3.65937 14.6062 4.125 14.5312C2.85938 13.8625 2 12.5312 2 11V10.5C2 10.225 2.225 10 2.5 10C2.99687 10 3.47187 10.0906 3.9125 10.2562C3.15313 9.04375 3.075 7.45938 3.84063 6.13438L4.09063 5.7C4.22813 5.45938 4.53438 5.37812 4.775 5.51562C5.59375 5.99063 6.18125 6.7125 6.5 7.53125V7.5ZM16.3438 8.49687C14.4844 8.41562 13 6.88125 13 5V4.5C13 4.225 13.225 4 13.5 4H14C15.9344 4 17.5 5.56562 17.5 7.5V7.53125C17.8188 6.7125 18.4062 5.99375 19.2281 5.51875C19.4688 5.38125 19.7719 5.4625 19.9125 5.70312L20.1625 6.1375C20.9281 7.4625 20.8469 9.04688 20.0906 10.2594C20.5312 10.0938 21.0062 10.0031 21.5031 10.0031C21.7781 10.0031 22.0031 10.2281 22.0031 10.5031V11.0031C22.0031 12.5344 21.1437 13.8656 19.8781 14.5375C20.3406 14.6125 20.8 14.7719 21.2313 15.0219C21.4719 15.1594 21.5531 15.4656 21.4156 15.7063L21.1656 16.1406C20.4094 17.4531 19.0187 18.175 17.6031 18.1406C17.4531 17.9594 17.2625 17.8031 17.0375 17.6906L16.7281 17.5344C16.6406 17.4906 16.55 17.4469 16.4594 17.4062C16.1344 17.2563 15.8031 17.125 15.4656 17.0125C15.2188 16.9281 14.9688 16.8562 14.7156 16.7937C16.375 15.8406 17.5 14.0531 17.5 12C17.5 10.7312 17.0906 9.50312 16.3438 8.49687Z" fill="black"/>
</svg>
