<svg width="24" height="24" viewBox="0 0 24 24" fill="none" xmlns="http://www.w3.org/2000/svg">
<path d="M19.5312 4.21875C19.25 3.9375 18.7969 3.925 18.5 4.19063L9.91563 11.8719C9.825 11.9531 9.70625 12 9.58125 12H8.5C8.225 12 8 12.225 8 12.5V13.3625C8 13.5063 7.94062 13.6406 7.83437 13.7344L4.34688 16.8531C4.125 17.0531 4 17.3344 4 17.6313C4 17.9063 4.10938 18.1719 4.30312 18.3656L5.63437 19.6969C5.82812 19.8906 6.09375 20.0031 6.36875 20.0031C6.66563 20.0031 6.94687 19.8781 7.14375 19.6563L15.6344 10.1656C15.7281 10.0594 15.8656 10 16.0063 10H16.5C16.775 10 17 9.775 17 9.5V8.83125C17 8.70938 17.0469 8.59063 17.1281 8.49688L19.8094 5.5C20.075 5.20313 20.0625 4.75 19.7812 4.46875L19.5312 4.21875Z" fill="black"/>
</svg>
