<svg width="24" height="24" viewBox="0 0 24 24" fill="none" xmlns="http://www.w3.org/2000/svg">
<path d="M8.00322 4.91562C8.04697 4.4 8.48135 4 9.0001 4H15.0001C15.5188 4 15.9532 4.4 15.997 4.91562L16.4345 10.1781C16.622 12.4281 15.1063 14.4031 13.0001 14.8844V18H14.5001C15.0532 18 15.5001 18.4469 15.5001 19C15.5001 19.5531 15.0532 20 14.5001 20H12.0001H9.5001C8.94697 20 8.5001 19.5531 8.5001 19C8.5001 18.4469 8.94697 18 9.5001 18H11.0001V14.8875C8.89385 14.4062 7.37822 12.4312 7.56572 10.1813L8.00322 4.91875V4.91562ZM9.75322 8H14.247L14.0813 6H9.91885L9.75322 8Z" fill="black"/>
</svg>
