<svg width="24" height="24" viewBox="0 0 24 24" fill="none" xmlns="http://www.w3.org/2000/svg">
<path d="M3.98122 11.1969V11.1937L3.98747 11.1625C3.99372 11.1344 4.00309 11.0875 4.01872 11.0281C4.04997 10.9094 4.09684 10.7344 4.16247 10.5219C4.29997 10.0937 4.50934 9.53125 4.81247 8.98125C5.44372 7.8375 6.30622 7 7.49997 7C8.40622 7 9.03434 7.45 9.59372 8.3875C10.1875 9.38125 10.5906 10.7437 11.0406 12.2781C11.0468 12.3031 11.0562 12.3281 11.0625 12.3531C11.4843 13.7969 11.95 15.4 12.6875 16.6344C13.4718 17.9469 14.6562 18.9969 16.5 18.9969C18.8062 18.9969 20.1937 17.3344 20.9375 15.9781C21.3218 15.2781 21.5812 14.5875 21.7406 14.0781C21.8218 13.8219 21.8812 13.6063 21.9187 13.4531C21.9375 13.375 21.9531 13.3156 21.9625 13.2688C21.9687 13.2469 21.9718 13.2281 21.975 13.2156L21.9781 13.2V13.1938V13.1906C21.9781 13.1906 21.9781 13.1906 20.9968 12.9937L21.9781 13.1906C22.0875 12.65 21.7343 12.1219 21.1937 12.0125C20.6531 11.9031 20.125 12.2563 20.0156 12.7969V12.8L20.0093 12.8313C20.0031 12.8594 19.9937 12.9062 19.9781 12.9656C19.9468 13.0844 19.9 13.2594 19.8343 13.4719C19.7 13.9 19.4875 14.4594 19.1843 15.0094C18.5562 16.1531 17.6906 16.9906 16.4968 16.9906C15.5906 16.9906 14.9625 16.5406 14.4031 15.6031C13.8093 14.6094 13.4062 13.2469 12.9562 11.7125C12.95 11.6875 12.9406 11.6625 12.9343 11.6375C12.5125 10.1937 12.0468 8.59063 11.3093 7.35625C10.5281 6.05 9.34372 5 7.49997 5C5.19372 5 3.80622 6.6625 3.06247 8.01875C2.6781 8.71875 2.41872 9.40625 2.25622 9.91563C2.17497 10.1719 2.1156 10.3875 2.0781 10.5406C2.05935 10.6188 2.04372 10.6781 2.03435 10.725C2.0281 10.7469 2.02497 10.7656 2.02185 10.7781L2.01872 10.7937V10.8V10.8031C2.01872 10.8031 2.01872 10.8031 2.99997 11L2.01872 10.8031C1.90935 11.3437 2.26247 11.8719 2.8031 11.9812C3.34372 12.0906 3.87185 11.7375 3.98122 11.1969Z" fill="black"/>
</svg>
