<svg width="24" height="24" viewBox="0 0 24 24" fill="none" xmlns="http://www.w3.org/2000/svg">
<path d="M8.00313 4.91562C8.04688 4.4 8.48125 4 9 4H15C15.5188 4 15.9531 4.4 15.9969 4.91562L16.4344 10.1781C16.6219 12.4281 15.1063 14.4031 13 14.8844V18H14.5C15.0531 18 15.5 18.4469 15.5 19C15.5 19.5531 15.0531 20 14.5 20H12H9.5C8.94688 20 8.5 19.5531 8.5 19C8.5 18.4469 8.94688 18 9.5 18H11V14.8875C8.89375 14.4062 7.37813 12.4313 7.56563 10.1813L8.00313 4.91875V4.91562ZM9.75313 8H14.2469L14.0813 6H9.91875L9.75313 8Z" fill="black"/>
</svg>
