<svg width="24" height="24" viewBox="0 0 24 24" fill="none" xmlns="http://www.w3.org/2000/svg">
<path d="M5.95001 5.68438C5.77501 5.15938 5.20626 4.87813 4.68438 5.05C4.16251 5.22188 3.87813 5.79375 4.05001 6.31563L5.61251 11H5.00001C4.44688 11 4.00001 11.4469 4.00001 12C4.00001 12.5531 4.44688 13 5.00001 13H6.27813L8.05001 18.3156C8.19063 18.7375 8.59376 19.0156 9.03751 19C9.48126 18.9844 9.86251 18.675 9.96876 18.2438L11.2813 13H12.7188L14.0313 18.2438C14.1375 18.675 14.5188 18.9844 14.9625 19C15.4063 19.0156 15.8094 18.7375 15.95 18.3156L17.7219 13H19C19.5531 13 20 12.5531 20 12C20 11.4469 19.5531 11 19 11H18.3875L19.95 6.31563C20.125 5.79063 19.8406 5.225 19.3188 5.05C18.7969 4.875 18.2281 5.15938 18.0531 5.68125L16.2781 11H14.2813L12.9688 5.75625C12.8594 5.3125 12.4594 5 12 5C11.5406 5 11.1406 5.3125 11.0313 5.75625L9.71876 11H7.71876L5.95001 5.68438ZM8.38751 13H9.21876L8.86251 14.425L8.38751 13ZM11.7813 11L12 10.1219L12.2188 11H11.7813ZM14.7813 13H15.6125L15.1375 14.425L14.7813 13Z" fill="black"/>
</svg>
