<svg width="24" height="24" viewBox="0 0 24 24" fill="none" xmlns="http://www.w3.org/2000/svg">
<path d="M11.4219 6.18434C11.7688 5.93746 12.2313 5.93746 12.5781 6.18434C13.2813 6.66871 14.1406 6.99996 15 6.99996C15.8406 6.99996 16.7313 6.66246 17.4188 6.18434C17.7906 5.91871 18.2969 5.94059 18.6438 6.23746C19.0938 6.60934 19.6594 6.89371 20.225 7.02496C20.7625 7.14996 21.0969 7.68746 20.9719 8.22496C20.8469 8.76246 20.3094 9.09684 19.7719 8.97184C19.0063 8.79371 18.3688 8.45621 17.9531 8.19059C17.0469 8.67809 16.0313 8.99996 15 8.99996C14.0031 8.99996 13.1063 8.69059 12.4875 8.40934C12.3063 8.32496 12.1406 8.24371 12 8.16871C11.8594 8.24371 11.6969 8.32809 11.5125 8.40934C10.8938 8.69059 9.9969 8.99996 9.00002 8.99996C7.96877 8.99996 6.95315 8.67809 6.0469 8.19371C5.62815 8.45621 4.99377 8.79684 4.22815 8.97496C3.69065 9.09996 3.15315 8.76559 3.02815 8.22809C2.90315 7.69059 3.23752 7.15309 3.77502 7.02809C4.33752 6.89371 4.90627 6.60934 5.35315 6.23746C5.70002 5.94059 6.20627 5.92184 6.57815 6.18434C7.2719 6.66246 8.1594 6.99996 9.00002 6.99996C9.8594 6.99996 10.7188 6.66871 11.4219 6.18434ZM12.5781 15.1843C13.2813 15.6687 14.1406 16 15 16C15.8406 16 16.7313 15.6625 17.4188 15.1843C17.7906 14.9187 18.2969 14.9406 18.6438 15.2375C19.0938 15.6093 19.6594 15.8937 20.225 16.025C20.7625 16.15 21.0969 16.6875 20.9719 17.225C20.8469 17.7625 20.3094 18.0968 19.7719 17.9718C19.0063 17.7937 18.3688 17.4562 17.9531 17.1906C17.0469 17.6781 16.0313 18 15 18C14.0031 18 13.1063 17.6906 12.4875 17.4093C12.3063 17.325 12.1406 17.2437 12 17.1687C11.8594 17.2437 11.6969 17.3281 11.5125 17.4093C10.8938 17.6906 9.9969 18 9.00002 18C7.96877 18 6.95315 17.6781 6.0469 17.1937C5.62815 17.4562 4.99377 17.7968 4.22815 17.975C3.69065 18.1 3.15315 17.7656 3.02815 17.2281C2.90315 16.6906 3.23752 16.1531 3.77502 16.0281C4.34065 15.8968 4.90627 15.6125 5.35627 15.2406C5.70315 14.9468 6.2094 14.925 6.58127 15.1875C7.2719 15.6625 8.1594 16 9.00002 16C9.8594 16 10.7188 15.6687 11.4219 15.1843C11.7688 14.9375 12.2313 14.9375 12.5781 15.1843ZM12.5781 10.6843C13.2813 11.1687 14.1406 11.5 15 11.5C15.8406 11.5 16.7313 11.1625 17.4188 10.6843C17.7906 10.4187 18.2969 10.4406 18.6438 10.7375C19.0938 11.1093 19.6594 11.3937 20.225 11.525C20.7625 11.65 21.0969 12.1875 20.9719 12.725C20.8469 13.2625 20.3094 13.5968 19.7719 13.4718C19.0063 13.2937 18.3688 12.9562 17.9531 12.6906C17.0469 13.1781 16.0313 13.5 15 13.5C14.0031 13.5 13.1063 13.1906 12.4875 12.9093C12.3063 12.825 12.1406 12.7437 12 12.6687C11.8594 12.7437 11.6969 12.8281 11.5125 12.9093C10.8938 13.1906 9.9969 13.5 9.00002 13.5C7.96877 13.5 6.95315 13.1781 6.0469 12.6937C5.62815 12.9562 4.99377 13.2968 4.22815 13.475C3.69065 13.6 3.15315 13.2656 3.02815 12.7281C2.90315 12.1906 3.23752 11.6531 3.77502 11.5281C4.34065 11.3968 4.90627 11.1125 5.35627 10.7406C5.70315 10.4437 6.2094 10.425 6.58127 10.6875C7.2719 11.1625 8.1594 11.5 9.00002 11.5C9.8594 11.5 10.7188 11.1687 11.4219 10.6843C11.7688 10.4375 12.2313 10.4375 12.5781 10.6843Z" fill="black"/>
</svg>
