<svg width="24" height="24" viewBox="0 0 24 24" fill="none" xmlns="http://www.w3.org/2000/svg">
<path d="M11.9719 4.00001C12.4344 3.98751 12.8438 4.29063 12.9656 4.73751L15.2781 13.2125L15.8313 12.1063C16.1687 11.4281 16.8625 11 17.6187 11H21C21.5531 11 22 11.4469 22 12C22 12.5531 21.5531 13 21 13H17.6187L15.8938 16.4469C15.7094 16.8188 15.3125 17.0344 14.9 16.9938C14.4875 16.9531 14.1438 16.6625 14.0344 16.2625L12.1156 9.22813L9.97813 19.2094C9.88125 19.6594 9.49375 19.9844 9.03438 20C8.575 20.0156 8.16563 19.7156 8.04063 19.275L6.24687 13H3C2.44687 13 2 12.5531 2 12C2 11.4469 2.44687 11 3 11H6.24687C7.14062 11 7.925 11.5906 8.16875 12.45L8.8625 14.875L11.0219 4.79063C11.1188 4.34063 11.5125 4.01251 11.9719 4.00001Z" fill="black"/>
</svg>
