<svg width="24" height="24" viewBox="0 0 24 24" fill="none" xmlns="http://www.w3.org/2000/svg">
<path d="M3.21249 4.15943C2.88749 3.90318 2.41562 3.96255 2.15937 4.28755C1.90312 4.61255 1.96249 5.08443 2.28749 5.34068L20.7875 19.8407C21.1125 20.0969 21.5844 20.0376 21.8406 19.7126C22.0969 19.3876 22.0375 18.9157 21.7125 18.6594L13.3937 12.1376C14.6187 12.3844 15.7281 12.9532 16.6312 13.7501C17.0469 14.1157 17.6781 14.0751 18.0437 13.6626C18.4094 13.2501 18.3687 12.6157 17.9562 12.2501C16.3687 10.8501 14.2812 10.0001 12 10.0001C11.5844 10.0001 11.1719 10.0282 10.7719 10.0844L7.79999 7.7563C9.10624 7.26568 10.5219 7.00005 12 7.00005C15.225 7.00005 18.15 8.27193 20.3062 10.3407C20.7062 10.7219 21.3375 10.7094 21.7187 10.3126C22.1 9.91568 22.0875 9.2813 21.6906 8.90005C19.1781 6.48443 15.7625 5.00005 12 5.00005C9.85312 5.00005 7.82187 5.48443 6.00312 6.34693L3.21249 4.15943ZM13.9 16.3751L12.1625 15.0063C12.1094 15.0032 12.0562 15.0001 12 15.0001C10.8969 15.0001 9.99999 15.8969 9.99999 17.0001C9.99999 18.1032 10.8969 19.0001 12 19.0001C13.1031 19.0001 14 18.1032 14 17.0001C14 16.7813 13.9656 16.5719 13.9 16.3751ZM9.12499 12.6157L7.40624 11.2594C6.92187 11.5469 6.46562 11.8782 6.04687 12.2501C5.63124 12.6157 5.59374 13.2469 5.95937 13.6626C6.32499 14.0782 6.95624 14.1157 7.37187 13.7501C7.89374 13.2876 8.48437 12.9063 9.12812 12.6157H9.12499ZM4.92499 9.3063L3.30312 8.02818C2.95937 8.30318 2.62499 8.5938 2.30624 8.89693C1.90937 9.2813 1.89687 9.91255 2.27812 10.3126C2.65937 10.7126 3.29374 10.7251 3.69062 10.3407C4.07812 9.9688 4.49062 9.62193 4.92499 9.3063Z" fill="black"/>
</svg>
