<svg width="24" height="24" viewBox="0 0 24 24" fill="none" xmlns="http://www.w3.org/2000/svg">
<path d="M19.5312 4.21869C19.25 3.93744 18.7969 3.92494 18.5 4.19057L9.91563 11.8718C9.825 11.9531 9.70625 11.9999 9.58125 11.9999H8.5C8.225 11.9999 8 12.2249 8 12.4999V13.3624C8 13.5062 7.94062 13.6406 7.83437 13.7343L4.34688 16.8531C4.125 17.0531 4 17.3343 4 17.6312C4 17.9062 4.10938 18.1718 4.30312 18.3656L5.63437 19.6968C5.82812 19.8906 6.09375 20.0031 6.36875 20.0031C6.66563 20.0031 6.94687 19.8781 7.14375 19.6562L15.6344 10.1656C15.7281 10.0593 15.8656 9.99994 16.0063 9.99994H16.5C16.775 9.99994 17 9.77494 17 9.49994V8.83119C17 8.70932 17.0469 8.59057 17.1281 8.49682L19.8094 5.49994C20.075 5.20307 20.0625 4.74994 19.7812 4.46869L19.5312 4.21869Z" fill="black"/>
</svg>
