<svg width="24" height="24" viewBox="0 0 24 24" fill="none" xmlns="http://www.w3.org/2000/svg">
<path d="M13.8657 16.9625C14.15 17.425 14.8657 17.1657 14.7875 16.6282L13.9032 10.625C13.8875 10.5188 13.9063 10.4094 13.9594 10.3157L16.8438 4.97503C17.1032 4.49691 16.5188 4.00628 16.0938 4.34691L11.3344 8.11566C11.25 8.18128 11.1469 8.22191 11.0375 8.22503L4.97192 8.39378C4.42817 8.40628 4.29692 9.15628 4.80317 9.35628L10.4469 11.5907C10.5469 11.6313 10.6313 11.7 10.6875 11.7938L13.8657 16.9625ZM11 14.2125V18.5H8.75005C8.33442 18.5 8.00005 18.8344 8.00005 19.25C8.00005 19.6657 8.33442 20 8.75005 20H15.25C15.6657 20 16 19.6657 16 19.25C16 18.8344 15.6657 18.5 15.25 18.5H13V17.4625L11 14.2125ZM12 9.25003C12.199 9.25003 12.3897 9.32905 12.5304 9.4697C12.671 9.61035 12.75 9.80112 12.75 10C12.75 10.1989 12.671 10.3897 12.5304 10.5304C12.3897 10.671 12.199 10.75 12 10.75C11.8011 10.75 11.6104 10.671 11.4697 10.5304C11.3291 10.3897 11.25 10.1989 11.25 10C11.25 9.80112 11.3291 9.61035 11.4697 9.4697C11.6104 9.32905 11.8011 9.25003 12 9.25003Z" fill="black"/>
</svg>
