<svg width="24" height="24" viewBox="0 0 24 24" fill="none" xmlns="http://www.w3.org/2000/svg">
<path d="M17.7812 5.28126C18.075 4.98751 18.075 4.51251 17.7812 4.22189C17.4875 3.93126 17.0125 3.92814 16.7218 4.22189L13.9687 6.96876C13.675 7.26251 13.675 7.73751 13.9687 8.02814C14.2625 8.31876 14.7375 8.32189 15.0281 8.02814L17.7781 5.27814L17.7812 5.28126ZM11.5468 4.85314C11.3531 4.65939 11.0343 4.65939 10.8406 4.85314L10.4843 5.20626C9.31245 6.37814 9.31245 8.27814 10.4843 9.45001L10.8093 9.77501L9.8562 10.7281C9.74995 9.87501 9.37183 9.04689 8.71558 8.39064L8.36245 8.03751C8.1687 7.84376 7.84995 7.84376 7.6562 8.03751L7.30308 8.39064C6.1312 9.56251 6.1312 11.4625 7.30308 12.6344L7.62808 12.9594L6.67495 13.9125C6.5687 13.0594 6.19058 12.2313 5.53433 11.575L5.1812 11.2188C4.98745 11.025 4.6687 11.025 4.47495 11.2188L4.12183 11.5719C2.94995 12.7438 2.94995 14.6438 4.12183 15.8156L4.44683 16.1406L2.2937 18.2938C1.90308 18.6844 1.90308 19.3188 2.2937 19.7094C2.68433 20.1 3.3187 20.1 3.70933 19.7094L5.86245 17.5563L6.2437 17.9375C7.41558 19.1094 9.31558 19.1094 10.4875 17.9375L10.8406 17.5844C11.0343 17.3906 11.0343 17.0719 10.8406 16.8781L10.4875 16.525C9.8062 15.8438 8.93745 15.4594 8.04683 15.3719L9.0437 14.375L9.42495 14.7563C10.1281 15.4594 11.0906 15.7406 12 15.6C12 15.5688 12 15.5344 12 15.5031C12 14.4688 12.2843 13.5 12.7812 12.6719C12.2968 12.4 11.7656 12.2406 11.225 12.1875L12.2218 11.1906L12.6031 11.5719C12.7906 11.7594 12.9968 11.9188 13.2187 12.0469C14.0781 10.9844 15.3218 10.25 16.7375 10.0531C16.6093 9.93439 16.475 9.82501 16.3343 9.72501L17.7812 8.28126C18.075 7.98751 18.075 7.51251 17.7812 7.22189C17.4875 6.93126 17.0125 6.92814 16.7218 7.22189L14.8656 9.07814C14.2218 8.94064 13.5531 8.96251 12.9187 9.14376C13.1093 8.47814 13.125 7.77501 12.9625 7.10314L14.7812 5.28126C15.075 4.98751 15.075 4.51251 14.7812 4.22189C14.4875 3.93126 14.0125 3.92814 13.7218 4.22189L12.2843 5.65314C12.1687 5.49689 12.0406 5.34689 11.8968 5.20626L11.5468 4.85314ZM17.5 20C18.6934 20 19.838 19.5259 20.6819 18.682C21.5258 17.8381 22 16.6935 22 15.5C22 14.3065 21.5258 13.1619 20.6819 12.318C19.838 11.4741 18.6934 11 17.5 11C16.3065 11 15.1619 11.4741 14.318 12.318C13.4741 13.1619 13 14.3065 13 15.5C13 16.6935 13.4741 17.8381 14.318 18.682C15.1619 19.5259 16.3065 20 17.5 20ZM17.5 17C17.6989 17 17.8896 17.079 18.0303 17.2197C18.1709 17.3603 18.25 17.5511 18.25 17.75C18.25 17.9489 18.1709 18.1397 18.0303 18.2803C17.8896 18.421 17.6989 18.5 17.5 18.5C17.301 18.5 17.1103 18.421 16.9696 18.2803C16.829 18.1397 16.75 17.9489 16.75 17.75C16.75 17.5511 16.829 17.3603 16.9696 17.2197C17.1103 17.079 17.301 17 17.5 17ZM17.5 12.5C17.775 12.5 18 12.725 18 13V15.5C18 15.775 17.775 16 17.5 16C17.225 16 17 15.775 17 15.5V13C17 12.725 17.225 12.5 17.5 12.5Z" fill="black"/>
</svg>
