<svg width="24" height="24" viewBox="0 0 24 24" fill="none" xmlns="http://www.w3.org/2000/svg">
<path d="M3.21243 4.15943C2.88743 3.90318 2.41556 3.96255 2.15931 4.28755C1.90306 4.61255 1.96243 5.08443 2.28743 5.34068L20.7874 19.8407C21.1124 20.0969 21.5843 20.0376 21.8406 19.7126C22.0968 19.3876 22.0374 18.9157 21.7124 18.6594L13.3281 12.0876L14.2249 11.1907L14.6062 11.5719C15.7781 12.7438 17.6781 12.7438 18.8499 11.5719L19.2031 11.2188C19.3968 11.0251 19.3968 10.7063 19.2031 10.5126L18.8499 10.1563C18.6874 9.9938 18.5187 9.85005 18.3374 9.72193L19.7812 8.2813C20.0749 7.98755 20.0749 7.51255 19.7812 7.22193C19.4874 6.9313 19.0124 6.92818 18.7218 7.22193L16.8656 9.07818C16.2218 8.94068 15.5531 8.96255 14.9187 9.1438C15.1093 8.47818 15.1249 7.77505 14.9624 7.10318L16.7812 5.2813C17.0749 4.98755 17.0749 4.51255 16.7812 4.22193C16.4874 3.9313 16.0124 3.92818 15.7218 4.22193L14.2843 5.65318C14.1687 5.49693 14.0406 5.34693 13.8968 5.2063L13.5468 4.85318C13.3531 4.65943 13.0343 4.65943 12.8406 4.85318L12.4843 5.2063C11.3124 6.37818 11.3124 8.27818 12.4843 9.45005L12.8093 9.77505L11.8562 10.7282C11.7499 9.87505 11.3718 9.04693 10.7156 8.39068L10.3624 8.03755C10.1687 7.8438 9.84993 7.8438 9.65618 8.03755L9.30306 8.39068C9.19993 8.4938 9.10618 8.60318 9.02181 8.71568L3.21243 4.15943ZM11.1812 14.2344L9.59993 12.9876L8.67806 13.9094C8.57181 13.0563 8.19368 12.2282 7.53743 11.5719L7.18118 11.2188C6.98743 11.0251 6.66868 11.0251 6.47493 11.2188L6.12181 11.5719C4.94993 12.7438 4.94993 14.6438 6.12181 15.8157L6.44681 16.1407L4.29368 18.2938C3.90306 18.6844 3.90306 19.3188 4.29368 19.7094C4.68431 20.1001 5.31868 20.1001 5.70931 19.7094L7.86243 17.5563L8.24368 17.9376C9.41556 19.1094 11.3156 19.1094 12.4874 17.9376L12.8406 17.5844C13.0343 17.3907 13.0343 17.0719 12.8406 16.8782L12.4874 16.5251C11.8062 15.8438 10.9374 15.4594 10.0468 15.3719L11.1812 14.2376V14.2344ZM19.7812 5.2813C20.0749 4.98755 20.0749 4.51255 19.7812 4.22193C19.4874 3.9313 19.0124 3.92818 18.7218 4.22193L15.9687 6.9688C15.6749 7.26255 15.6749 7.73755 15.9687 8.02818C16.2624 8.3188 16.7374 8.32193 17.0281 8.02818L19.7781 5.27818L19.7812 5.2813Z" fill="black"/>
</svg>
