<svg width="24" height="24" viewBox="0 0 24 24" fill="none" xmlns="http://www.w3.org/2000/svg">
<path d="M17.2937 5.29376C17.6843 4.90314 18.3187 4.90314 18.7093 5.29376C19.0999 5.68439 19.0999 6.31876 18.7093 6.70939L13.4155 12L18.7062 17.2938C19.0968 17.6844 19.0968 18.3188 18.7062 18.7094C18.3155 19.1 17.6812 19.1 17.2905 18.7094L11.9999 13.4156L6.70615 18.7063C6.31553 19.0969 5.68115 19.0969 5.29053 18.7063C4.8999 18.3156 4.8999 17.6813 5.29053 17.2906L10.5843 12L5.29365 6.70626C4.90303 6.31564 4.90303 5.68439 5.29365 5.29376C5.68428 4.90314 6.31865 4.90314 6.70928 5.29376L11.9999 10.5844L17.2937 5.29376Z" fill="black"/>
</svg>
