<svg width="24" height="24" viewBox="0 0 24 24" fill="none" xmlns="http://www.w3.org/2000/svg">
<path d="M17.2938 5.2937C17.6844 4.90308 18.3188 4.90308 18.7094 5.2937C19.1 5.68433 19.1 6.3187 18.7094 6.70933L13.4156 12L18.7063 17.2937C19.0969 17.6843 19.0969 18.3187 18.7063 18.7093C18.3156 19.1 17.6813 19.1 17.2906 18.7093L12 13.4156L6.70627 18.7062C6.31565 19.0968 5.68127 19.0968 5.29065 18.7062C4.90002 18.3156 4.90002 17.6812 5.29065 17.2906L10.5844 12L5.29377 6.7062C4.90315 6.31558 4.90315 5.68433 5.29377 5.2937C5.6844 4.90308 6.31877 4.90308 6.7094 5.2937L12 10.5843L17.2938 5.2937Z" fill="black"/>
</svg>
