<svg width="24" height="24" viewBox="0 0 24 24" fill="none" xmlns="http://www.w3.org/2000/svg">
<path d="M17.2938 5.29376C17.6844 4.90314 18.3188 4.90314 18.7094 5.29376C19.1 5.68439 19.1 6.31876 18.7094 6.70939L13.4156 12L18.7063 17.2938C19.0969 17.6844 19.0969 18.3188 18.7063 18.7094C18.3156 19.1 17.6813 19.1 17.2906 18.7094L12 13.4156L6.70627 18.7063C6.31565 19.0969 5.68127 19.0969 5.29065 18.7063C4.90002 18.3156 4.90002 17.6813 5.29065 17.2906L10.5844 12L5.29377 6.70626C4.90315 6.31564 4.90315 5.68439 5.29377 5.29376C5.6844 4.90314 6.31877 4.90314 6.7094 5.29376L12 10.5844L17.2938 5.29376Z" fill="black"/>
</svg>
