<svg width="24" height="24" viewBox="0 0 24 24" fill="none" xmlns="http://www.w3.org/2000/svg">
<path d="M2.99998 5C2.44685 5 1.99998 5.44687 1.99998 6C1.99998 6.55313 2.44685 7 2.99998 7H21C21.5531 7 22 6.55313 22 6C22 5.44687 21.5531 5 21 5H2.99998ZM2.99998 17C2.44685 17 1.99998 17.4469 1.99998 18C1.99998 18.5531 2.44685 19 2.99998 19H21C21.5531 19 22 18.5531 22 18C22 17.4469 21.5531 17 21 17H2.99998ZM2.21873 9.21875C1.92498 9.5125 1.92498 9.9875 2.21873 10.2781L3.93748 11.9969L2.21873 13.7188C1.92498 14.0125 1.92498 14.4875 2.21873 14.7781C2.51248 15.0687 2.98748 15.0719 3.2781 14.7781L4.99685 13.0594L6.7156 14.7781C7.00935 15.0719 7.48435 15.0719 7.77498 14.7781C8.0656 14.4844 8.06873 14.0094 7.77498 13.7188L6.05623 12L7.77498 10.2812C8.06873 9.9875 8.06873 9.5125 7.77498 9.22188C7.48123 8.93125 7.00623 8.92813 6.7156 9.22188L4.99685 10.9406L3.28123 9.21875C2.98748 8.925 2.51248 8.925 2.22185 9.21875H2.21873ZM10.2812 9.21875C9.98748 8.925 9.51248 8.925 9.22185 9.21875C8.93123 9.5125 8.9281 9.9875 9.22185 10.2781L10.9406 11.9969L9.22185 13.7156C8.9281 14.0094 8.9281 14.4844 9.22185 14.775C9.5156 15.0656 9.9906 15.0687 10.2812 14.775L12 13.0562L13.7187 14.775C14.0125 15.0687 14.4875 15.0687 14.7781 14.775C15.0687 14.4812 15.0718 14.0062 14.7781 13.7156L13.0594 11.9969L14.7781 10.2781C15.0718 9.98438 15.0718 9.50938 14.7781 9.21875C14.4844 8.92812 14.0093 8.925 13.7187 9.21875L12 10.9375L10.2812 9.21875ZM16.2187 9.21875C15.925 9.5125 15.925 9.9875 16.2187 10.2781L17.9375 11.9969L16.2187 13.7156C15.925 14.0094 15.925 14.4844 16.2187 14.775C16.5125 15.0656 16.9875 15.0687 17.2781 14.775L18.9969 13.0562L20.7156 14.775C21.0094 15.0687 21.4844 15.0687 21.775 14.775C22.0656 14.4812 22.0687 14.0062 21.775 13.7156L20.0562 11.9969L21.775 10.2781C22.0687 9.98438 22.0687 9.50938 21.775 9.21875C21.4812 8.92812 21.0062 8.925 20.7156 9.21875L18.9969 10.9375L17.2781 9.21875C16.9844 8.925 16.5093 8.925 16.2187 9.21875Z" fill="black"/>
</svg>
