<svg width="24" height="24" viewBox="0 0 24 24" fill="none" xmlns="http://www.w3.org/2000/svg">
<path d="M17.2937 5.29297C17.6843 4.90234 18.3187 4.90234 18.7093 5.29297C19.0999 5.68359 19.0999 6.31797 18.7093 6.70859L13.4155 11.9992L18.7062 17.293C19.0968 17.6836 19.0968 18.318 18.7062 18.7086C18.3155 19.0992 17.6812 19.0992 17.2905 18.7086L11.9999 13.4148L6.70615 18.7055C6.31553 19.0961 5.68115 19.0961 5.29053 18.7055C4.8999 18.3148 4.8999 17.6805 5.29053 17.2898L10.5843 11.9992L5.29365 6.70547C4.90303 6.31484 4.90303 5.68359 5.29365 5.29297C5.68428 4.90234 6.31865 4.90234 6.70928 5.29297L11.9999 10.5836L17.2937 5.29297Z" fill="black"/>
</svg>
