<svg width="24" height="24" viewBox="0 0 24 24" fill="none" xmlns="http://www.w3.org/2000/svg">
<path d="M17.7688 6.6412C18.122 6.2162 18.0657 5.58495 17.6407 5.23182C17.2157 4.8787 16.5845 4.93495 16.2313 5.35995L12.0001 10.4381L7.76883 5.35995C7.41571 4.93495 6.78446 4.8787 6.35946 5.23182C5.93446 5.58495 5.87821 6.2162 6.23133 6.6412L10.697 12.0006L6.23133 17.3599C5.87821 17.7849 5.93446 18.4162 6.35946 18.7693C6.78446 19.1224 7.41571 19.0662 7.76883 18.6412L12.0001 13.5631L16.2313 18.6412C16.5845 19.0662 17.2157 19.1224 17.6407 18.7693C18.0657 18.4162 18.122 17.7849 17.7688 17.3599L13.3032 12.0006L17.7688 6.6412Z" fill="black"/>
</svg>
