<svg width="24" height="24" viewBox="0 0 24 24" fill="none" xmlns="http://www.w3.org/2000/svg">
<path d="M17.7688 6.64059C18.122 6.21559 18.0657 5.58434 17.6407 5.23121C17.2157 4.87809 16.5845 4.93434 16.2313 5.35934L12.0001 10.4375L7.76883 5.35934C7.41571 4.93434 6.78446 4.87809 6.35946 5.23121C5.93446 5.58434 5.87821 6.21559 6.23133 6.64059L10.697 12L6.23133 17.3593C5.87821 17.7843 5.93446 18.4156 6.35946 18.7687C6.78446 19.1218 7.41571 19.0656 7.76883 18.6406L12.0001 13.5625L16.2313 18.6406C16.5845 19.0656 17.2157 19.1218 17.6407 18.7687C18.0657 18.4156 18.122 17.7843 17.7688 17.3593L13.3032 12L17.7688 6.64059Z" fill="black"/>
</svg>
