<svg width="24" height="24" viewBox="0 0 24 24" fill="none" xmlns="http://www.w3.org/2000/svg">
<path d="M17.2938 5.29297C17.6844 4.90234 18.3188 4.90234 18.7094 5.29297C19.1 5.68359 19.1 6.31797 18.7094 6.70859L13.4156 11.9992L18.7063 17.293C19.0969 17.6836 19.0969 18.318 18.7063 18.7086C18.3156 19.0992 17.6813 19.0992 17.2906 18.7086L12 13.4148L6.70627 18.7055C6.31565 19.0961 5.68127 19.0961 5.29065 18.7055C4.90002 18.3148 4.90002 17.6805 5.29065 17.2898L10.5844 11.9992L5.29377 6.70547C4.90315 6.31484 4.90315 5.68359 5.29377 5.29297C5.6844 4.90234 6.31877 4.90234 6.7094 5.29297L12 10.5836L17.2938 5.29297Z" fill="black"/>
</svg>
