<svg width="24" height="24" viewBox="0 0 24 24" fill="none" xmlns="http://www.w3.org/2000/svg">
<path d="M4 6C4 5.44687 4.44687 5 5 5H19C19.5531 5 20 5.44687 20 6C20 6.55313 19.5531 7 19 7V17C19.5531 17 20 17.4469 20 18C20 18.5531 19.5531 19 19 19H5C4.44687 19 4 18.5531 4 18C4 17.4469 4.44687 17 5 17V7C4.44687 7 4 6.55313 4 6ZM12 7C11.725 7 11.5 7.225 11.5 7.5V8.5H9C8.725 8.5 8.5 8.725 8.5 9C8.5 9.275 8.725 9.5 9 9.5H11.5V11H8C7.725 11 7.5 11.225 7.5 11.5C7.5 11.775 7.725 12 8 12H11.5V14.2063L9.90938 13.5938C9.74688 13.5312 9.57812 13.5 9.40312 13.5H9.3375C8.6 13.5 8 14.1 8 14.8375C8 15.1375 8.1 15.4281 8.28438 15.6625L8.85313 16.3875C9.15625 16.775 9.62188 17 10.1125 17H13.8875C14.3781 17 14.8438 16.775 15.1469 16.3875L15.7156 15.6625C15.9 15.4281 16 15.1375 16 14.8375C16 14.1 15.4 13.5 14.6625 13.5H14.5938C14.4219 13.5 14.25 13.5312 14.0875 13.5938L12.5 14.2063V12H16C16.275 12 16.5 11.775 16.5 11.5C16.5 11.225 16.275 11 16 11H12.5V9.5H15C15.275 9.5 15.5 9.275 15.5 9C15.5 8.725 15.275 8.5 15 8.5H12.5V7.5C12.5 7.225 12.275 7 12 7ZM10.5 15C10.6326 15 10.7598 15.0527 10.8536 15.1464C10.9473 15.2402 11 15.3674 11 15.5C11 15.6326 10.9473 15.7598 10.8536 15.8536C10.7598 15.9473 10.6326 16 10.5 16C10.3674 16 10.2402 15.9473 10.1464 15.8536C10.0527 15.7598 10 15.6326 10 15.5C10 15.3674 10.0527 15.2402 10.1464 15.1464C10.2402 15.0527 10.3674 15 10.5 15ZM13 15.5C13 15.3674 13.0527 15.2402 13.1464 15.1464C13.2402 15.0527 13.3674 15 13.5 15C13.6326 15 13.7598 15.0527 13.8536 15.1464C13.9473 15.2402 14 15.3674 14 15.5C14 15.6326 13.9473 15.7598 13.8536 15.8536C13.7598 15.9473 13.6326 16 13.5 16C13.3674 16 13.2402 15.9473 13.1464 15.8536C13.0527 15.7598 13 15.6326 13 15.5Z" fill="black"/>
</svg>
