<svg width="24" height="24" viewBox="0 0 24 24" fill="none" xmlns="http://www.w3.org/2000/svg">
<path d="M17.7687 6.64059C18.1218 6.21559 18.0656 5.58434 17.6406 5.23121C17.2156 4.87809 16.5843 4.93434 16.2312 5.35934L12 10.4375L7.76871 5.35934C7.41559 4.93434 6.78434 4.87809 6.35934 5.23121C5.93434 5.58434 5.87809 6.21559 6.23121 6.64059L10.6968 12L6.23121 17.3593C5.87809 17.7843 5.93434 18.4156 6.35934 18.7687C6.78434 19.1218 7.41559 19.0656 7.76871 18.6406L12 13.5625L16.2312 18.6406C16.5843 19.0656 17.2156 19.1218 17.6406 18.7687C18.0656 18.4156 18.1218 17.7843 17.7687 17.3593L13.3031 12L17.7687 6.64059Z" fill="black"/>
</svg>
