<svg width="24" height="24" viewBox="0 0 24 24" fill="none" xmlns="http://www.w3.org/2000/svg">
<path d="M16.7062 8.70627C17.0968 8.31565 17.0968 7.68127 16.7062 7.29065C16.3155 6.90002 15.6812 6.90002 15.2905 7.29065L11.9999 10.5844L8.70615 7.29377C8.31553 6.90315 7.68115 6.90315 7.29053 7.29377C6.8999 7.6844 6.8999 8.31877 7.29053 8.7094L10.5843 12L7.29365 15.2938C6.90303 15.6844 6.90303 16.3188 7.29365 16.7094C7.68428 17.1 8.31865 17.1 8.70928 16.7094L11.9999 13.4156L15.2937 16.7063C15.6843 17.0969 16.3187 17.0969 16.7093 16.7063C17.0999 16.3156 17.0999 15.6813 16.7093 15.2906L13.4155 12L16.7062 8.70627Z" fill="black"/>
</svg>
