<svg width="24" height="24" viewBox="0 0 24 24" fill="none" xmlns="http://www.w3.org/2000/svg">
<path d="M3.0001 5C2.44697 5 2.0001 5.44687 2.0001 6C2.0001 6.55313 2.44697 7 3.0001 7H21.0001C21.5532 7 22.0001 6.55313 22.0001 6C22.0001 5.44687 21.5532 5 21.0001 5H3.0001ZM3.0001 17C2.44697 17 2.0001 17.4469 2.0001 18C2.0001 18.5531 2.44697 19 3.0001 19H21.0001C21.5532 19 22.0001 18.5531 22.0001 18C22.0001 17.4469 21.5532 17 21.0001 17H3.0001ZM2.21885 9.21875C1.9251 9.5125 1.9251 9.9875 2.21885 10.2781L3.9376 11.9969L2.21885 13.7188C1.9251 14.0125 1.9251 14.4875 2.21885 14.7781C2.5126 15.0687 2.9876 15.0719 3.27822 14.7781L4.99697 13.0594L6.71572 14.7781C7.00947 15.0719 7.48447 15.0719 7.7751 14.7781C8.06572 14.4844 8.06885 14.0094 7.7751 13.7188L6.05635 12L7.7751 10.2812C8.06885 9.9875 8.06885 9.5125 7.7751 9.22188C7.48135 8.93125 7.00635 8.92813 6.71572 9.22188L4.99697 10.9406L3.28135 9.21875C2.9876 8.925 2.5126 8.925 2.22197 9.21875H2.21885ZM10.2813 9.21875C9.9876 8.925 9.5126 8.925 9.22197 9.21875C8.93135 9.5125 8.92822 9.9875 9.22197 10.2781L10.9407 11.9969L9.22197 13.7156C8.92822 14.0094 8.92822 14.4844 9.22197 14.775C9.51572 15.0656 9.99072 15.0687 10.2813 14.775L12.0001 13.0562L13.7188 14.775C14.0126 15.0687 14.4876 15.0687 14.7782 14.775C15.0688 14.4812 15.072 14.0062 14.7782 13.7156L13.0595 11.9969L14.7782 10.2781C15.072 9.98437 15.072 9.50938 14.7782 9.21875C14.4845 8.92812 14.0095 8.925 13.7188 9.21875L12.0001 10.9375L10.2813 9.21875ZM16.2188 9.21875C15.9251 9.5125 15.9251 9.9875 16.2188 10.2781L17.9376 11.9969L16.2188 13.7156C15.9251 14.0094 15.9251 14.4844 16.2188 14.775C16.5126 15.0656 16.9876 15.0687 17.2782 14.775L18.997 13.0562L20.7157 14.775C21.0095 15.0687 21.4845 15.0687 21.7751 14.775C22.0657 14.4812 22.0688 14.0062 21.7751 13.7156L20.0563 11.9969L21.7751 10.2781C22.0688 9.98437 22.0688 9.50938 21.7751 9.21875C21.4813 8.92812 21.0063 8.925 20.7157 9.21875L18.997 10.9375L17.2782 9.21875C16.9845 8.925 16.5095 8.925 16.2188 9.21875Z" fill="black"/>
</svg>
