<svg width="24" height="24" viewBox="0 0 24 24" fill="none" xmlns="http://www.w3.org/2000/svg">
<path d="M8.83121 5.44378C8.52496 4.98441 7.90621 4.86253 7.44683 5.16878C6.98746 5.47503 6.86246 6.09378 7.16871 6.55316L10.1312 11H8.49996C7.94683 11 7.49996 11.4469 7.49996 12C7.49996 12.5532 7.94683 13 8.49996 13H11V14H8.49996C7.94683 14 7.49996 14.4469 7.49996 15C7.49996 15.5532 7.94683 16 8.49996 16H11V18C11 18.5532 11.4468 19 12 19C12.5531 19 13 18.5532 13 18V16H15.5C16.0531 16 16.5 15.5532 16.5 15C16.5 14.4469 16.0531 14 15.5 14H13V13H15.5C16.0531 13 16.5 12.5532 16.5 12C16.5 11.4469 16.0531 11 15.5 11H13.8687L16.8312 6.55316C17.1375 6.09378 17.0125 5.47191 16.5531 5.16566C16.0937 4.85941 15.4718 4.98441 15.1656 5.44378L12 10.1969L8.83121 5.44378Z" fill="black"/>
</svg>
