<svg width="24" height="24" viewBox="0 0 24 24" fill="none" xmlns="http://www.w3.org/2000/svg">
<path fill-rule="evenodd" clip-rule="evenodd" d="M4 11.997C4 7.7055 7.4735 4.5 11.9475 4.5C16.4735 4.5 19.9475 7.7055 20 12.0485C20 16.34 16.4735 19.546 12 19.546C11.2175 19.548 10.4383 19.4436 9.684 19.2355C9.5265 19.2355 9.421 19.2355 9.263 19.287L7.684 19.9595C7.263 20.1145 6.789 19.8045 6.789 19.3905L6.737 17.9945C6.737 17.788 6.632 17.6325 6.5265 17.5295C4.9475 16.185 4 14.272 4 11.997ZM9.526 10.6005L7.1575 14.22C6.947 14.53 7.368 14.9435 7.684 14.685L10.21 12.824C10.368 12.7205 10.631 12.7205 10.789 12.824L12.631 14.168C13.21 14.582 13.9995 14.4265 14.368 13.858L16.7365 10.2385C16.9995 9.9285 16.526 9.515 16.21 9.7735L13.684 11.6345C13.526 11.738 13.263 11.738 13.105 11.6345L11.263 10.2905C10.684 9.8765 9.8945 10.032 9.526 10.6005Z" fill="black"/>
</svg>
