<svg width="24" height="24" viewBox="0 0 24 24" fill="none" xmlns="http://www.w3.org/2000/svg">
<path fill-rule="evenodd" clip-rule="evenodd" d="M12 20C16.4183 20 20 16.4183 20 12C20 7.58172 16.4183 4 12 4C7.58172 4 4 7.58172 4 12C4 16.4183 7.58172 20 12 20ZM9 9C8.44772 9 8 9.44772 8 10V11C8 11.5523 8.44772 12 9 12C9.55228 12 10 11.5523 10 11V10C10 9.44772 9.55228 9 9 9ZM9.52514 14.4749C9.23225 14.182 8.75738 14.182 8.46448 14.4749C8.17159 14.7678 8.17159 15.2426 8.46448 15.5355C10.4171 17.4881 13.5829 17.4881 15.5355 15.5355C15.8284 15.2426 15.8284 14.7678 15.5355 14.4749C15.2427 14.182 14.7678 14.182 14.4749 14.4749C13.1081 15.8417 10.892 15.8417 9.52514 14.4749ZM14 10C14 9.44772 14.4477 9 15 9C15.5523 9 16 9.44772 16 10V11C16 11.5523 15.5523 12 15 12C14.4477 12 14 11.5523 14 11V10Z" fill="black"/>
</svg>
