<svg width="24" height="24" viewBox="0 0 24 24" fill="none" xmlns="http://www.w3.org/2000/svg">
<path fill-rule="evenodd" clip-rule="evenodd" d="M16.1611 4.00333L14.0024 4C11.5772 4 10.0099 5.54552 10.0099 7.93762V9.75313H7.83943C7.65188 9.75313 7.5 9.89928 7.5 10.0795V12.71C7.5 12.8903 7.65205 13.0363 7.83943 13.0363H10.0099V19.6738C10.0099 19.854 10.1618 20 10.3493 20H13.1812C13.3687 20 13.5206 19.8539 13.5206 19.6738V13.0363H16.0584C16.2459 13.0363 16.3978 12.8903 16.3978 12.71L16.3989 10.0795C16.3989 9.99299 16.363 9.91009 16.2995 9.84884C16.2359 9.78758 16.1493 9.75313 16.0593 9.75313H13.5206V8.2141C13.5206 7.47438 13.704 7.09886 14.7065 7.09886L16.1607 7.09836C16.3481 7.09836 16.5 6.95222 16.5 6.77211V4.32958C16.5 4.14964 16.3483 4.00366 16.1611 4.00333Z" fill="black"/>
</svg>
