<svg width="24" height="24" viewBox="0 0 24 24" fill="none" xmlns="http://www.w3.org/2000/svg">
<path d="M7.62425 8.18613C8.72871 8.18613 9.62405 7.29079 9.62405 6.18633C9.62405 5.08187 8.72871 4.18652 7.62425 4.18652C6.51979 4.18652 5.62445 5.08187 5.62445 6.18633C5.62445 7.29079 6.51979 8.18613 7.62425 8.18613Z" fill="black"/>
<path d="M4.74483 10.6627C4.96998 9.77578 5.76831 9.15479 6.68335 9.15479H8.37856C8.48049 9.15479 8.57885 9.17004 8.6715 9.19838C8.64836 9.34821 8.63635 9.50172 8.63635 9.65803C8.63635 10.3393 8.86439 10.9672 9.2483 11.4697C8.2377 12.2567 7.61487 13.5244 7.61487 14.8706C7.61487 15.8965 7.97662 16.8768 8.59607 17.6335V19.1546C8.59607 19.479 8.65788 19.7891 8.77038 20.0735C8.64921 20.1257 8.51567 20.1546 8.37538 20.1546H6.62445C6.07216 20.1546 5.62445 19.7069 5.62445 19.1546V14.9807C4.63067 14.6846 3.98878 13.641 4.26025 12.5716L4.74483 10.6627Z" fill="black"/>
<path d="M14.4336 20.0513C14.5406 19.7729 14.5992 19.4706 14.5992 19.1546V17.6952C15.25 16.9305 15.6319 15.9245 15.6319 14.8706C15.6319 13.5244 15.009 12.2567 13.9984 11.4697C14.3823 10.9672 14.6104 10.3393 14.6104 9.65803C14.6104 9.5026 14.5985 9.34993 14.5756 9.2009C14.6706 9.17094 14.7718 9.15479 14.8767 9.15479H16.5719C17.4869 9.15479 18.2853 9.77578 18.5104 10.6627L18.995 12.5716C19.2667 13.6421 18.6232 14.6868 17.6276 14.9816V19.1546C17.6276 19.7069 17.1799 20.1546 16.6276 20.1546H14.8766C14.7175 20.1546 14.5671 20.1174 14.4336 20.0513Z" fill="black"/>
<path d="M17.6226 6.18633C17.6226 7.29079 16.7272 8.18613 15.6228 8.18613C14.5183 8.18613 13.623 7.29079 13.623 6.18633C13.623 5.08187 14.5183 4.18652 15.6228 4.18652C16.7272 4.18652 17.6226 5.08187 17.6226 6.18633Z" fill="black"/>
<path d="M13.0992 17.0668C13.7251 16.573 14.1319 15.7732 14.1319 14.8706C14.1319 13.3707 13.0088 12.1548 11.6234 12.1548C10.238 12.1548 9.11487 13.3707 9.11487 14.8706C9.11487 15.7482 9.49942 16.5286 10.0961 17.0251V19.1546C10.0961 19.7068 10.5438 20.1546 11.0961 20.1546H12.0992C12.6515 20.1546 13.0992 19.7068 13.0992 19.1546V17.0668Z" fill="black"/>
<path d="M13.1104 9.65803C13.1104 10.4793 12.4446 11.145 11.6234 11.145C10.8021 11.145 10.1364 10.4793 10.1364 9.65803C10.1364 8.83678 10.8021 8.17102 11.6234 8.17102C12.4446 8.17102 13.1104 8.83678 13.1104 9.65803Z" fill="black"/>
</svg>
