<svg width="24" height="24" viewBox="0 0 24 24" fill="none" xmlns="http://www.w3.org/2000/svg">
<path d="M7.62425 8.18711C8.72871 8.18711 9.62405 7.29177 9.62405 6.1873C9.62405 5.08284 8.72871 4.1875 7.62425 4.1875C6.51979 4.1875 5.62445 5.08284 5.62445 6.1873C5.62445 7.29177 6.51979 8.18711 7.62425 8.18711Z" fill="black"/>
<path d="M4.74483 10.6637C4.96998 9.77676 5.76831 9.15576 6.68335 9.15576H8.37856C8.48049 9.15576 8.57885 9.17101 8.6715 9.19936C8.64836 9.34919 8.63635 9.5027 8.63635 9.65901C8.63635 10.3402 8.86439 10.9682 9.2483 11.4707C8.2377 12.2577 7.61487 13.5254 7.61487 14.8715C7.61487 15.8974 7.97662 16.8778 8.59607 17.6345V19.1555C8.59607 19.48 8.65788 19.79 8.77038 20.0745C8.64921 20.1267 8.51567 20.1555 8.37538 20.1555H6.62445C6.07216 20.1555 5.62445 19.7078 5.62445 19.1555V14.9816C4.63067 14.6856 3.98878 13.6419 4.26025 12.5726L4.74483 10.6637Z" fill="black"/>
<path d="M14.4336 20.0523C14.5406 19.7739 14.5992 19.4716 14.5992 19.1555V17.6962C15.25 16.9314 15.6319 15.9255 15.6319 14.8715C15.6319 13.5254 15.009 12.2577 13.9984 11.4707C14.3823 10.9682 14.6104 10.3402 14.6104 9.65901C14.6104 9.50357 14.5985 9.35091 14.5756 9.20188C14.6706 9.17192 14.7718 9.15576 14.8767 9.15576H16.5719C17.4869 9.15576 18.2853 9.77676 18.5104 10.6637L18.995 12.5726C19.2667 13.6431 18.6232 14.6878 17.6276 14.9826V19.1555C17.6276 19.7078 17.1799 20.1555 16.6276 20.1555H14.8766C14.7175 20.1555 14.5671 20.1184 14.4336 20.0523Z" fill="black"/>
<path d="M17.6226 6.1873C17.6226 7.29177 16.7272 8.18711 15.6228 8.18711C14.5183 8.18711 13.623 7.29177 13.623 6.1873C13.623 5.08284 14.5183 4.1875 15.6228 4.1875C16.7272 4.1875 17.6226 5.08284 17.6226 6.1873Z" fill="black"/>
<path d="M13.0992 17.0678C13.7251 16.574 14.1319 15.7742 14.1319 14.8715C14.1319 13.3717 13.0088 12.1558 11.6234 12.1558C10.238 12.1558 9.11487 13.3717 9.11487 14.8715C9.11487 15.7492 9.49942 16.5296 10.0961 17.0261V19.1555C10.0961 19.7078 10.5438 20.1555 11.0961 20.1555H12.0992C12.6515 20.1555 13.0992 19.7078 13.0992 19.1555V17.0678Z" fill="black"/>
<path d="M13.1104 9.65901C13.1104 10.4803 12.4446 11.146 11.6234 11.146C10.8021 11.146 10.1364 10.4803 10.1364 9.65901C10.1364 8.83776 10.8021 8.172 11.6234 8.172C12.4446 8.172 13.1104 8.83776 13.1104 9.65901Z" fill="black"/>
</svg>
