<svg width="24" height="24" viewBox="0 0 24 24" fill="none" xmlns="http://www.w3.org/2000/svg">
<path d="M18.5 8C19.8807 8 21 9.11929 21 10.5V14C21 15.3807 19.8807 16.5 18.5 16.5V18.25C18.5 19.4926 17.4926 20.5 16.25 20.5H9.75C8.50736 20.5 7.5 19.4926 7.5 18.25V8H18.5ZM9 18.25C9 18.6642 9.33579 19 9.75 19H16.25C16.6642 19 17 18.6642 17 18.25V14.5H9V18.25ZM14.8271 16.0039C15.2051 16.0425 15.5 16.3618 15.5 16.75C15.5 17.1382 15.2051 17.4575 14.8271 17.4961L14.75 17.5H11.25C10.8358 17.5 10.5 17.1642 10.5 16.75C10.5 16.3358 10.8358 16 11.25 16H14.75L14.8271 16.0039ZM5 7C5.55228 7 6 7.44772 6 8V16C6 16.5523 5.55228 17 5 17H4C3.44772 17 3 16.5523 3 16V8C3 7.44772 3.44772 7 4 7H5ZM18.75 9.5C18.3358 9.5 18 9.83579 18 10.25C18 10.6642 18.3358 11 18.75 11C19.1642 11 19.5 10.6642 19.5 10.25C19.5 9.83579 19.1642 9.5 18.75 9.5ZM16.25 3.5C17.4926 3.5 18.5 4.50736 18.5 5.75V6.5H17V5.75C17 5.33579 16.6642 5 16.25 5H9.75C9.33579 5 9 5.33579 9 5.75V6.5H7.5V5.75C7.5 4.50736 8.50736 3.5 9.75 3.5H16.25Z" fill="black"/>
</svg>
