<svg width="24" height="24" viewBox="0 0 24 24" fill="none" xmlns="http://www.w3.org/2000/svg">
<path fill-rule="evenodd" clip-rule="evenodd" d="M9.75 3.5C8.50736 3.5 7.5 4.50736 7.5 5.75V6.5H9V5.75C9 5.33579 9.33579 5 9.75 5H16.25C16.6642 5 17 5.33579 17 5.75V6.5H18.5V5.75C18.5 4.50736 17.4926 3.5 16.25 3.5H9.75ZM18.5 8H7.5V13V16.5V18.25C7.5 19.4926 8.50736 20.5 9.75 20.5H16.25C17.4926 20.5 18.5 19.4926 18.5 18.25V16.5C19.8807 16.5 21 15.3807 21 14V10.5C21 9.11929 19.8807 8 18.5 8ZM18.75 11C19.1642 11 19.5 10.6642 19.5 10.25C19.5 9.83579 19.1642 9.5 18.75 9.5C18.3358 9.5 18 9.83579 18 10.25C18 10.6642 18.3358 11 18.75 11ZM9 14.5V18.25C9 18.6642 9.33579 19 9.75 19H16.25C16.6642 19 17 18.6642 17 18.25V14.5H9ZM10.5 16.75C10.5 16.3358 10.8358 16 11.25 16H14.75C15.1642 16 15.5 16.3358 15.5 16.75C15.5 17.1642 15.1642 17.5 14.75 17.5H11.25C10.8358 17.5 10.5 17.1642 10.5 16.75ZM4 7C3.44772 7 3 7.44772 3 8V16C3 16.5523 3.44772 17 4 17H5C5.55228 17 6 16.5523 6 16V8C6 7.44772 5.55228 7 5 7H4Z" fill="black"/>
</svg>
