<svg width="24" height="24" viewBox="0 0 24 24" fill="none" xmlns="http://www.w3.org/2000/svg">
<path fill-rule="evenodd" clip-rule="evenodd" d="M6.11475 14.7916C6.11475 18.1053 8.80104 20.7916 12.1147 20.7916C15.4285 20.7916 18.1147 18.1053 18.1147 14.7916C18.1147 11.7916 16.6147 8.79156 14.6147 5.79156C14.4335 6.78834 14.1373 7.62088 13.7738 8.33385C12.9636 5.98946 11.8502 3.77995 10.6147 2.79156C10.6147 5.54156 9.48975 7.16656 8.36475 8.79156C7.23975 10.4166 6.11475 12.0416 6.11475 14.7916ZM12.1147 19.2916C11.2397 19.2916 10.6147 18.5416 10.6147 17.7916C10.6147 17.0416 11.6147 15.4166 12.3647 14.7916C12.4252 15.4563 12.7193 15.8581 13.0071 16.2512C13.3145 16.6712 13.6147 17.0813 13.6147 17.7916C13.6147 18.5416 12.9897 19.2916 12.1147 19.2916Z" fill="black"/>
</svg>
