<svg width="24" height="24" viewBox="0 0 24 24" fill="none" xmlns="http://www.w3.org/2000/svg">
<path fill-rule="evenodd" clip-rule="evenodd" d="M18 7.5C19.1046 7.5 20 8.39543 20 9.5V18C20 19.1046 19.1046 20 18 20H6C4.89543 20 4 19.1046 4 18V7C4 5.89543 4.89543 5 6 5H10.1716C10.702 5 11.2107 5.21071 11.5858 5.58579L13.5 7.5H18ZM13.75 10C13.3358 10 13 10.3358 13 10.75C13 11.1642 13.3358 11.5 13.75 11.5H14.25C15.4926 11.5 16.5 12.5074 16.5 13.75C16.5 14.9926 15.4926 16 14.25 16H13.75C13.3358 16 13 16.3358 13 16.75C13 17.1642 13.3358 17.5 13.75 17.5H14.25C16.3211 17.5 18 15.8211 18 13.75C18 11.6789 16.3211 10 14.25 10H13.75ZM9 13.75C9 13.3358 9.33579 13 9.75 13H14.25C14.6642 13 15 13.3358 15 13.75C15 14.1642 14.6642 14.5 14.25 14.5H9.75C9.33579 14.5 9 14.1642 9 13.75ZM10.25 17.5C10.6642 17.5 11 17.1642 11 16.75C11 16.3358 10.6642 16 10.25 16H9.75C8.50736 16 7.5 14.9926 7.5 13.75C7.5 12.5074 8.50736 11.5 9.75 11.5H10.25C10.6642 11.5 11 11.1642 11 10.75C11 10.3358 10.6642 10 10.25 10H9.75C7.67893 10 6 11.6789 6 13.75C6 15.8211 7.67893 17.5 9.75 17.5H10.25Z" fill="black"/>
</svg>
