<svg width="24" height="24" viewBox="0 0 24 24" fill="none" xmlns="http://www.w3.org/2000/svg">
<path fill-rule="evenodd" clip-rule="evenodd" d="M20 9.5V18C20 19.1046 19.1046 20 18 20H6C4.89543 20 4 19.1046 4 18V7C4 5.89543 4.89543 5 6 5H10.1716C10.702 5 11.2107 5.21071 11.5858 5.58579L13.5 7.5H18C19.1046 7.5 20 8.39543 20 9.5ZM12.454 9.98362L13.4211 12.0789L15.3365 12.2263C15.7748 12.26 15.9594 12.8024 15.6326 13.0965L14.1316 14.4474L14.7557 16.7879C14.8722 17.2246 14.3955 17.5794 14.0105 17.3425L12 16.1053L9.98946 17.3425C9.60454 17.5794 9.12784 17.2246 9.24429 16.7879L9.86842 14.4474L8.36741 13.0965C8.04063 12.8024 8.2252 12.26 8.66355 12.2263L10.5789 12.0789L11.546 9.98362C11.7248 9.59633 12.2752 9.59633 12.454 9.98362Z" fill="black"/>
</svg>
