<svg width="24" height="24" viewBox="0 0 24 24" fill="none" xmlns="http://www.w3.org/2000/svg">
<path fill-rule="evenodd" clip-rule="evenodd" d="M20 9.5V18C20 19.1046 19.1046 20 18 20H6C4.89543 20 4 19.1046 4 18V7C4 5.89543 4.89543 5 6 5H10.1716C10.702 5 11.2107 5.21071 11.5858 5.58579L13.5 7.5H18C19.1046 7.5 20 8.39543 20 9.5ZM11.4697 16.9697L8.5 14C7.67157 13.1716 7.67157 11.8284 8.5 11C9.32843 10.1716 10.6716 10.1716 11.5 11L12 11.5L12.5 11C13.3284 10.1716 14.6716 10.1716 15.5 11C16.3284 11.8284 16.3284 13.1716 15.5 14L12.5303 16.9697C12.2374 17.2626 11.7626 17.2626 11.4697 16.9697Z" fill="black"/>
</svg>
