<svg width="24" height="24" viewBox="0 0 24 24" fill="none" xmlns="http://www.w3.org/2000/svg">
<path fill-rule="evenodd" clip-rule="evenodd" d="M12 20C16.4183 20 20 16.4183 20 12C20 7.58172 16.4183 4 12 4C7.58172 4 4 7.58172 4 12C4 16.4183 7.58172 20 12 20ZM12 8C11.4477 8 11 7.55228 11 7V6.5C11 5.94772 11.4477 5.5 12 5.5C12.5523 5.5 13 5.94772 13 6.5V7C13 7.55228 12.5523 8 12 8ZM14 12C14 13.1046 13.1046 14 12 14C10.8954 14 10 13.1046 10 12C10 11.8208 10.0236 11.6471 10.0678 11.4818L7.4036 8.81806C7.01304 8.42756 7.01299 7.7944 7.40349 7.40384C7.79398 7.01329 8.42715 7.01324 8.8177 7.40373L11.4821 10.0677C11.6473 10.0235 11.8209 10 12 10C13.1046 10 14 10.8954 14 12ZM5.5 12C5.5 11.4477 5.94772 11 6.5 11H7C7.55228 11 8 11.4477 8 12C8 12.5523 7.55228 13 7 13H6.5C5.94772 13 5.5 12.5523 5.5 12ZM17 11C16.4477 11 16 11.4477 16 12C16 12.5523 16.4477 13 17 13H17.5C18.0523 13 18.5 12.5523 18.5 12C18.5 11.4477 18.0523 11 17.5 11H17ZM14.828 7.75737C14.4375 8.14789 14.4375 8.78106 14.828 9.17158C15.2186 9.56211 15.8517 9.56211 16.2423 9.17158L16.5958 8.81803C16.9863 8.42751 16.9863 7.79434 16.5958 7.40382C16.2053 7.01329 15.5721 7.01329 15.1816 7.40382L14.828 7.75737Z" fill="black"/>
</svg>
