<svg width="24" height="24" viewBox="0 0 24 24" fill="none" xmlns="http://www.w3.org/2000/svg">
<path fill-rule="evenodd" clip-rule="evenodd" d="M10.3917 5.42446C10.8256 3.52518 13.4692 3.52518 13.9031 5.42446C14.0766 6.18409 14.9249 6.54948 15.5753 6.14336L15.7316 6.04582C17.3231 5.05204 19.1219 6.96396 18.1016 8.56161C17.6847 9.21433 18.0348 10.0936 18.7788 10.2598C20.6036 10.6674 20.6036 13.3326 18.7788 13.7402C18.0348 13.9064 17.6847 14.7857 18.1016 15.4384C19.1219 17.036 17.3231 18.948 15.7316 17.9542L15.5753 17.8566C14.9249 17.4505 14.0766 17.8159 13.9031 18.5755C13.4692 20.4748 10.8256 20.4748 10.3917 18.5755C10.2182 17.8159 9.36988 17.4505 8.71946 17.8566L8.56324 17.9542C6.97167 18.948 5.17291 17.036 6.19322 15.4384C6.61006 14.7857 6.26004 13.9064 5.51597 13.7402C3.69121 13.3326 3.69121 10.6674 5.51596 10.2598C6.26004 10.0936 6.61006 9.21433 6.19322 8.56161C5.17291 6.96396 6.97167 5.05204 8.56324 6.04581L8.71946 6.14336C9.36988 6.54948 10.2182 6.18409 10.3917 5.42446ZM12.1474 15C13.8043 15 15.1474 13.6569 15.1474 12C15.1474 10.3431 13.8043 9 12.1474 9C10.4905 9 9.1474 10.3431 9.1474 12C9.1474 13.6569 10.4905 15 12.1474 15Z" fill="black"/>
</svg>
