<svg width="24" height="24" viewBox="0 0 24 24" fill="none" xmlns="http://www.w3.org/2000/svg">
<path fill-rule="evenodd" clip-rule="evenodd" d="M15.6 4C13.6452 4 12.0543 5.55801 12.0014 7.5H11.9986C11.9457 5.55801 10.3548 4 8.4 4C7.07452 4 6 5.07452 6 6.4V6.5C6 6.85555 6.07422 7.19377 6.20802 7.5H6C4.89543 7.5 4 8.39543 4 9.5V10.5H20V9.5C20 8.39543 19.1046 7.5 18 7.5H17.792C17.9258 7.19377 18 6.85555 18 6.5V6.4C18 5.07452 16.9255 4 15.6 4ZM16.5 6.5V6.4C16.5 5.90294 16.0971 5.5 15.6 5.5C14.4737 5.5 13.5545 6.38664 13.5023 7.5H15.5C16.0523 7.5 16.5 7.05228 16.5 6.5ZM8.5 7.5H10.4977C10.4455 6.38664 9.52628 5.5 8.4 5.5C7.90294 5.5 7.5 5.90294 7.5 6.4V6.5C7.5 7.05228 7.94772 7.5 8.5 7.5Z" fill="black"/>
<path d="M5 12V18C5 19.1046 5.89543 20 7 20H17C18.1046 20 19 19.1046 19 18V12H5Z" fill="black"/>
</svg>
