<svg width="24" height="24" viewBox="0 0 24 24" fill="none" xmlns="http://www.w3.org/2000/svg">
<path fill-rule="evenodd" clip-rule="evenodd" d="M4.97005 10.4831C5.50579 10.4831 5.9401 10.9174 5.9401 11.4532V12.5473C5.9401 13.083 5.50579 13.5173 4.97005 13.5173C4.43431 13.5173 4 13.083 4 12.5473V11.4532C4 10.9174 4.43431 10.4831 4.97005 10.4831Z" fill="black"/>
<path fill-rule="evenodd" clip-rule="evenodd" d="M19.03 10.4831C19.5657 10.4831 20 10.9174 20 11.4532V12.5473C20 13.083 19.5657 13.5173 19.03 13.5173C18.4942 13.5173 18.0599 13.083 18.0599 12.5473V11.4532C18.0599 10.9174 18.4942 10.4831 19.03 10.4831Z" fill="black"/>
<path fill-rule="evenodd" clip-rule="evenodd" d="M8.48502 7.20097C9.02077 7.20097 9.45507 7.63527 9.45507 8.17102V11.7496C9.45507 12.2853 9.02077 12.7196 8.48502 12.7196C7.94928 12.7196 7.51498 12.2853 7.51498 11.7496V8.17102C7.51498 7.63527 7.94928 7.20097 8.48502 7.20097ZM8.48502 13.7655C9.02077 13.7655 9.45507 14.1998 9.45507 14.7355V15.8296C9.45507 16.3654 9.02077 16.7997 8.48502 16.7997C7.94928 16.7997 7.51498 16.3654 7.51498 15.8296V14.7355C7.51498 14.1998 7.94928 13.7655 8.48502 13.7655Z" fill="black"/>
<path fill-rule="evenodd" clip-rule="evenodd" d="M15.515 7.20057C16.0507 7.20057 16.485 7.63487 16.485 8.17062V9.26471C16.485 9.80045 16.0507 10.2348 15.515 10.2348C14.9792 10.2348 14.5449 9.80045 14.5449 9.26471V8.17062C14.5449 7.63487 14.9792 7.20057 15.515 7.20057ZM15.515 11.2808C16.0507 11.2808 16.485 11.7151 16.485 12.2508V15.8294C16.485 16.3651 16.0507 16.7994 15.515 16.7994C14.9792 16.7994 14.5449 16.3651 14.5449 15.8294V12.2508C14.5449 11.7151 14.9792 11.2808 15.515 11.2808Z" fill="black"/>
<path fill-rule="evenodd" clip-rule="evenodd" d="M12 4.00001C12.5357 4.00001 12.97 4.43431 12.97 4.97006V6.06415C12.97 6.59989 12.5357 7.0342 12 7.0342C11.4643 7.0342 11.03 6.59989 11.03 6.06415V4.97006C11.03 4.43431 11.4643 4.00001 12 4.00001ZM12 8.11261C12.5357 8.11261 12.97 8.54692 12.97 9.08266V14.9178C12.97 15.4535 12.5357 15.8878 12 15.8878C11.4643 15.8878 11.03 15.4535 11.03 14.9178V9.08266C11.03 8.54692 11.4643 8.11261 12 8.11261ZM12 16.9659C12.5357 16.9659 12.97 17.4002 12.97 17.9359V19.03C12.97 19.5658 12.5357 20.0001 12 20.0001C11.4643 20.0001 11.03 19.5658 11.03 19.03V17.9359C11.03 17.4002 11.4643 16.9659 12 16.9659Z" fill="black"/>
</svg>
