<svg width="24" height="24" viewBox="0 0 24 24" fill="none" xmlns="http://www.w3.org/2000/svg">
<path d="M15.2148 16.0126C15.2148 15.4603 15.6626 15.0126 16.2148 15.0126H18.4648C19.0171 15.0126 19.4648 15.4603 19.4648 16.0126V18.2626C19.4648 18.8149 19.0171 19.2626 18.4648 19.2626H16.2148C15.6626 19.2626 15.2148 18.8149 15.2148 18.2626V16.0126Z" fill="black"/>
<path d="M15.2148 10.6376C15.2148 10.0853 15.6626 9.63757 16.2148 9.63757H18.4648C19.0171 9.63757 19.4648 10.0853 19.4648 10.6376V12.8876C19.4648 13.4399 19.0171 13.8876 18.4648 13.8876H16.2148C15.6626 13.8876 15.2148 13.4399 15.2148 12.8876V10.6376Z" fill="black"/>
<path d="M15.1919 5.26257C15.1919 4.71029 15.6396 4.26257 16.1919 4.26257H18.4419C18.9942 4.26257 19.4419 4.71029 19.4419 5.26257V7.51257C19.4419 8.06486 18.9942 8.51257 18.4419 8.51257H16.1919C15.6396 8.51257 15.1919 8.06486 15.1919 7.51257V5.26257Z" fill="black"/>
<path d="M9.83984 16.0126C9.83984 15.4603 10.2876 15.0126 10.8398 15.0126H13.0898C13.6421 15.0126 14.0898 15.4603 14.0898 16.0126V18.2626C14.0898 18.8149 13.6421 19.2626 13.0898 19.2626H10.8398C10.2876 19.2626 9.83984 18.8149 9.83984 18.2626V16.0126Z" fill="black"/>
<path d="M9.83984 10.6376C9.83984 10.0853 10.2876 9.63757 10.8398 9.63757H13.0898C13.6421 9.63757 14.0898 10.0853 14.0898 10.6376V12.8876C14.0898 13.4399 13.6421 13.8876 13.0898 13.8876H10.8398C10.2876 13.8876 9.83984 13.4399 9.83984 12.8876V10.6376Z" fill="black"/>
<path d="M9.8125 5.26257C9.8125 4.71029 10.2602 4.26257 10.8125 4.26257H13.0625C13.6148 4.26257 14.0625 4.71029 14.0625 5.26257V7.51257C14.0625 8.06486 13.6148 8.51257 13.0625 8.51257H10.8125C10.2602 8.51257 9.8125 8.06486 9.8125 7.51257V5.26257Z" fill="black"/>
<path d="M4.46484 16.0126C4.46484 15.4603 4.91256 15.0126 5.46484 15.0126H7.71484C8.26713 15.0126 8.71484 15.4603 8.71484 16.0126V18.2626C8.71484 18.8149 8.26713 19.2626 7.71484 19.2626H5.46484C4.91256 19.2626 4.46484 18.8149 4.46484 18.2626V16.0126Z" fill="black"/>
<path d="M4.46484 10.6376C4.46484 10.0853 4.91256 9.63757 5.46484 9.63757H7.71484C8.26713 9.63757 8.71484 10.0853 8.71484 10.6376V12.8876C8.71484 13.4399 8.26713 13.8876 7.71484 13.8876H5.46484C4.91256 13.8876 4.46484 13.4399 4.46484 12.8876V10.6376Z" fill="black"/>
<path d="M4.46484 5.26257C4.46484 4.71029 4.91256 4.26257 5.46484 4.26257H7.71484C8.26713 4.26257 8.71484 4.71029 8.71484 5.26257V7.51257C8.71484 8.06486 8.26713 8.51257 7.71484 8.51257H5.46484C4.91256 8.51257 4.46484 8.06486 4.46484 7.51257V5.26257Z" fill="black"/>
</svg>
