<svg width="24" height="24" viewBox="0 0 24 24" fill="none" xmlns="http://www.w3.org/2000/svg">
<path d="M4.45605 5.56909C4.45605 4.87874 5.0157 4.31909 5.70605 4.31909H9.90605C10.5964 4.31909 11.1561 4.87874 11.1561 5.56909V9.76909C11.1561 10.4594 10.5964 11.0191 9.90605 11.0191H5.70606C5.0157 11.0191 4.45605 10.4594 4.45605 9.76909V5.56909Z" fill="black"/>
<path d="M4.45605 13.7626C4.45605 13.0722 5.0157 12.5126 5.70605 12.5126H9.90605C10.5964 12.5126 11.1561 13.0722 11.1561 13.7626V17.9626C11.1561 18.6529 10.5964 19.2126 9.90605 19.2126H5.70606C5.0157 19.2126 4.45605 18.6529 4.45605 17.9626V13.7626Z" fill="black"/>
<path d="M12.7742 5.56909C12.7742 4.87874 13.3338 4.31909 14.0242 4.31909H18.2242C18.9145 4.31909 19.4742 4.87874 19.4742 5.56909V9.76909C19.4742 10.4594 18.9145 11.0191 18.2242 11.0191H14.0242C13.3338 11.0191 12.7742 10.4594 12.7742 9.76909V5.56909Z" fill="black"/>
<path d="M12.7742 13.7626C12.7742 13.0722 13.3338 12.5126 14.0242 12.5126H18.2242C18.9145 12.5126 19.4742 13.0722 19.4742 13.7626V17.9626C19.4742 18.6529 18.9145 19.2126 18.2242 19.2126H14.0242C13.3338 19.2126 12.7742 18.6529 12.7742 17.9626V13.7626Z" fill="black"/>
</svg>
