<svg width="24" height="24" viewBox="0 0 24 24" fill="none" xmlns="http://www.w3.org/2000/svg">
<path d="M11.9999 3.5C12.5522 3.5 12.9999 3.94772 12.9999 4.5V9.80969C12.9999 10.0454 13.1646 10.2492 13.3951 10.2986C13.7064 10.3653 13.9999 10.128 13.9999 9.80969V5.5C13.9999 4.94775 14.4477 4.50006 14.9999 4.5C15.5522 4.5 15.9999 4.94772 15.9999 5.5V10.4528C15.9999 10.6885 16.1646 10.8922 16.3951 10.9416C16.7064 11.0084 16.9999 10.7711 16.9999 10.4528V7.5C16.9999 6.94775 17.4477 6.50006 17.9999 6.5C18.5522 6.5 18.9999 6.94772 18.9999 7.5V15.8335C18.9999 16.2661 18.8596 16.6871 18.6 17.0332L16.6 19.7002C16.2223 20.2037 15.6294 20.5 14.9999 20.5H10.3285C9.79813 20.5 9.28955 20.2891 8.91449 19.9141L3.74993 14.75C3.3358 14.3358 3.3358 13.6642 3.74993 13.25C4.16413 12.8358 4.83572 12.8358 5.24993 13.25L6.2929 14.293C6.92284 14.9229 7.99981 14.4767 7.99993 13.5859V6C7.99993 5.44775 8.4477 5.00006 8.99993 5C9.55222 5 9.99993 5.44772 9.99993 6V10.191C9.99993 10.5627 10.3911 10.8044 10.7235 10.6382C10.8929 10.5535 10.9999 10.3804 10.9999 10.191V4.5C10.9999 3.94775 11.4477 3.50006 11.9999 3.5Z" fill="black"/>
</svg>
