<svg width="24" height="24" viewBox="0 0 24 24" fill="none" xmlns="http://www.w3.org/2000/svg">
<path fill-rule="evenodd" clip-rule="evenodd" d="M3.98291 6.52539C3.98291 5.69696 4.65448 5.02539 5.48291 5.02539H18.5C19.3284 5.02539 20 5.69696 20 6.52539V9.54541C20 10.3738 19.3284 11.0454 18.5 11.0454H5.48291C4.65448 11.0454 3.98291 10.3738 3.98291 9.54541V6.52539ZM15.2345 7.99723C15.2345 8.52291 14.8083 8.94905 14.2826 8.94905C13.757 8.94905 13.3308 8.52291 13.3308 7.99723C13.3308 7.47155 13.757 7.04541 14.2826 7.04541C14.8083 7.04541 15.2345 7.47155 15.2345 7.99723ZM18.2735 7.99723C18.2735 8.52291 17.8474 8.94905 17.3217 8.94905C16.796 8.94905 16.3699 8.52291 16.3699 7.99723C16.3699 7.47155 16.796 7.04541 17.3217 7.04541C17.8474 7.04541 18.2735 7.47155 18.2735 7.99723Z" fill="black"/>
<path fill-rule="evenodd" clip-rule="evenodd" d="M3.98291 14.5454C3.98291 13.717 4.65448 13.0454 5.48291 13.0454H18.5C19.3284 13.0454 20 13.717 20 14.5454V17.5654C20 18.3939 19.3284 19.0654 18.5 19.0654H5.48291C4.65448 19.0654 3.98291 18.3939 3.98291 17.5654V14.5454ZM15.2345 16.0173C15.2345 16.5429 14.8083 16.9691 14.2826 16.9691C13.757 16.9691 13.3308 16.5429 13.3308 16.0173C13.3308 15.4916 13.757 15.0654 14.2826 15.0654C14.8083 15.0654 15.2345 15.4916 15.2345 16.0173ZM18.2735 16.0173C18.2735 16.5429 17.8474 16.9691 17.3217 16.9691C16.796 16.9691 16.3699 16.5429 16.3699 16.0173C16.3699 15.4916 16.796 15.0654 17.3217 15.0654C17.8474 15.0654 18.2735 15.4916 18.2735 16.0173Z" fill="black"/>
</svg>
