<svg width="24" height="24" viewBox="0 0 24 24" fill="none" xmlns="http://www.w3.org/2000/svg">
<path fill-rule="evenodd" clip-rule="evenodd" d="M3.98291 6.52466C3.98291 5.69623 4.65448 5.02466 5.48291 5.02466H18.5C19.3284 5.02466 20 5.69623 20 6.52466V9.54468C20 10.3731 19.3284 11.0447 18.5 11.0447H5.48291C4.65448 11.0447 3.98291 10.3731 3.98291 9.54468V6.52466ZM15.2345 7.9965C15.2345 8.52217 14.8083 8.94832 14.2826 8.94832C13.757 8.94832 13.3308 8.52217 13.3308 7.9965C13.3308 7.47082 13.757 7.04468 14.2826 7.04468C14.8083 7.04468 15.2345 7.47082 15.2345 7.9965ZM18.2735 7.9965C18.2735 8.52217 17.8474 8.94832 17.3217 8.94832C16.796 8.94832 16.3699 8.52217 16.3699 7.9965C16.3699 7.47082 16.796 7.04468 17.3217 7.04468C17.8474 7.04468 18.2735 7.47082 18.2735 7.9965Z" fill="black"/>
<path fill-rule="evenodd" clip-rule="evenodd" d="M3.98291 14.5447C3.98291 13.7163 4.65448 13.0447 5.48291 13.0447H18.5C19.3284 13.0447 20 13.7163 20 14.5447V17.5647C20 18.3931 19.3284 19.0647 18.5 19.0647H5.48291C4.65448 19.0647 3.98291 18.3931 3.98291 17.5647V14.5447ZM15.2345 16.0165C15.2345 16.5422 14.8083 16.9683 14.2826 16.9683C13.757 16.9683 13.3308 16.5422 13.3308 16.0165C13.3308 15.4908 13.757 15.0647 14.2826 15.0647C14.8083 15.0647 15.2345 15.4908 15.2345 16.0165ZM18.2735 16.0165C18.2735 16.5422 17.8474 16.9683 17.3217 16.9683C16.796 16.9683 16.3699 16.5422 16.3699 16.0165C16.3699 15.4908 16.796 15.0647 17.3217 15.0647C17.8474 15.0647 18.2735 15.4908 18.2735 16.0165Z" fill="black"/>
</svg>
