<svg width="24" height="24" viewBox="0 0 24 24" fill="none" xmlns="http://www.w3.org/2000/svg">
<path d="M10.0516 4.7857C10.4558 4.58038 11.0426 4.41298 11.5343 4.36267C11.7673 4.33884 12.2527 4.37281 12.601 4.43737C13.4012 4.58561 14.0957 4.96964 14.6485 5.56953L14.9337 5.87905L15.1258 5.76007C15.8044 5.33986 16.7457 5.20997 17.4675 5.43699C18.1087 5.63868 18.5153 5.91238 18.9187 6.41382C19.6002 7.26097 19.7214 8.07543 19.3703 9.44816C19.0683 10.6291 18.653 11.7718 17.9918 13.2416L17.6567 13.9867H15.5471L16.3239 9.29533C16.3803 8.95479 16.1499 8.63302 15.8094 8.57663C15.4688 8.52024 15.1471 8.75059 15.0907 9.09113L14.2802 13.9854C14.2686 13.9859 14.2562 13.9863 14.2431 13.9867H12.4775V8.53369C12.4775 8.18851 12.1977 7.90869 11.8525 7.90869C11.5074 7.90869 11.2275 8.18851 11.2275 8.53369V13.9867H10.2805L9.36389 13.9771L8.55484 9.09113C8.49845 8.75059 8.17667 8.52024 7.83613 8.57663C7.49559 8.63302 7.26524 8.95479 7.32163 9.29533L8.09845 13.9867H6.05034L5.98178 13.8455C5.81273 13.4974 5.36953 12.4827 5.12477 11.8833C4.74755 10.9596 4.45179 9.98333 4.22852 8.92491C4.00352 7.8582 4.22196 7.0034 4.90951 6.2599C5.35206 5.78137 5.88622 5.48875 6.55623 5.35773C7.18015 5.23577 7.98342 5.4033 8.62244 5.78865L8.76959 5.87736L8.90411 5.72071C9.2158 5.35765 9.69615 4.96626 10.0516 4.7857Z" fill="black"/>
<path d="M6.03902 15.4867L6.04984 16.5624C6.06763 18.3307 6.07134 18.3595 6.34021 18.8174C6.58895 19.241 6.92738 19.5155 7.4043 19.6804C7.58041 19.7413 7.76544 19.7723 7.95177 19.7723H11.8563C16.0038 19.7723 16.0446 19.7716 16.2881 19.6878C16.9461 19.4615 17.4712 18.8732 17.5918 18.2273C17.6144 18.1063 17.6322 17.3372 17.6322 16.4865V15.4867H6.03902Z" fill="black"/>
</svg>
