<svg width="24" height="24" viewBox="0 0 24 24" fill="none" xmlns="http://www.w3.org/2000/svg">
<path d="M10.0517 4.7857C10.4559 4.58038 11.0427 4.41298 11.5344 4.36267C11.7674 4.33884 12.2527 4.37281 12.601 4.43737C13.4013 4.58561 14.0958 4.96964 14.6486 5.56953L14.9338 5.87905L15.1258 5.76007C15.8045 5.33986 16.7457 5.20997 17.4675 5.43699C18.1088 5.63868 18.5154 5.91238 18.9188 6.41382C19.6003 7.26097 19.7215 8.07543 19.3704 9.44816C19.0684 10.6291 18.6531 11.7718 17.9919 13.2416L17.6567 13.9867H15.5471L16.3239 9.29533C16.3803 8.95479 16.15 8.63302 15.8094 8.57663C15.4689 8.52024 15.1471 8.75059 15.0907 9.09113L14.2803 13.9854C14.2686 13.9859 14.2562 13.9863 14.2432 13.9867H12.4776V8.53369C12.4776 8.18851 12.1978 7.90869 11.8526 7.90869C11.5074 7.90869 11.2276 8.18851 11.2276 8.53369V13.9867H10.2805L9.36395 13.9771L8.5549 9.09113C8.49851 8.75059 8.17673 8.52024 7.83619 8.57663C7.49565 8.63302 7.2653 8.95479 7.32169 9.29533L8.09851 13.9867H6.0504L5.98184 13.8455C5.81279 13.4974 5.36959 12.4827 5.12483 11.8833C4.74761 10.9596 4.45185 9.98333 4.22858 8.92491C4.00358 7.8582 4.22202 7.0034 4.90957 6.2599C5.35212 5.78137 5.88629 5.48875 6.55629 5.35773C7.18021 5.23577 7.98348 5.4033 8.6225 5.78865L8.76965 5.87736L8.90417 5.72071C9.21587 5.35765 9.69621 4.96626 10.0517 4.7857Z" fill="black"/>
<path d="M6.03908 15.4867L6.0499 16.5624C6.06769 18.3307 6.0714 18.3595 6.34027 18.8174C6.58902 19.241 6.92744 19.5155 7.40436 19.6804C7.58047 19.7413 7.7655 19.7723 7.95183 19.7723H11.8564C16.0039 19.7723 16.0447 19.7716 16.2881 19.6878C16.9462 19.4615 17.4713 18.8732 17.5919 18.2273C17.6144 18.1063 17.6323 17.3372 17.6323 16.4865V15.4867H6.03908Z" fill="black"/>
</svg>
