<svg width="24" height="24" viewBox="0 0 24 24" fill="none" xmlns="http://www.w3.org/2000/svg">
<path d="M8.14746 14.7617V10.2617C8.14746 8.05258 9.93832 6.26172 12.1475 6.26172C14.3566 6.26172 16.1475 8.05258 16.1475 10.2617V14.7617C16.1475 16.4186 14.8043 17.7617 13.1475 17.7617C12.5952 17.7617 12.1475 18.2094 12.1475 18.7617C12.1475 19.314 12.5952 19.7617 13.1475 19.7617C15.2131 19.7617 16.9862 18.5091 17.7486 16.7219C17.8775 16.748 18.0109 16.7617 18.1475 16.7617C19.252 16.7617 20.1475 15.8663 20.1475 14.7617V11.7617C20.1475 10.8245 19.5028 10.0379 18.6328 9.821C18.4062 6.43668 15.5892 3.76172 12.1475 3.76172C8.70572 3.76172 5.88876 6.43668 5.66217 9.821C4.7921 10.0379 4.14746 10.8245 4.14746 11.7617V14.7617C4.14746 15.8663 5.04289 16.7617 6.14746 16.7617C7.25203 16.7617 8.14746 15.8663 8.14746 14.7617Z" fill="black"/>
</svg>
