<svg width="24" height="24" viewBox="0 0 24 24" fill="none" xmlns="http://www.w3.org/2000/svg">
<path d="M18.0005 16.5L18 16.5007V16.5C17.4372 16.5 16.9288 16.2676 16.5653 15.8935C17.4599 14.8455 18 13.4858 18 12C18 8.68629 15.3137 6 12 6C8.68629 6 6 8.68629 6 12C6 15.3137 8.68629 18 12 18C12.4142 18 12.75 18.3358 12.75 18.75C12.75 19.1642 12.4142 19.5 12 19.5C9.54627 19.5 7.36776 18.3217 5.99945 16.5H5C3.89543 16.5 3 15.6046 3 14.5V11C3 9.89543 3.89543 9 5 9H5.12407C6.2814 6.35114 8.92452 4.5 12 4.5C15.0755 4.5 17.7186 6.35114 18.8759 9H19C20.1046 9 21 9.89543 21 11V14.5C21 15.6046 20.1046 16.5 19 16.5H18.0005Z" fill="black"/>
<path fill-rule="evenodd" clip-rule="evenodd" d="M12 16.5C14.4853 16.5 16.5 14.4853 16.5 12C16.5 9.51472 14.4853 7.5 12 7.5C9.51472 7.5 7.5 9.51472 7.5 12C7.5 14.4853 9.51472 16.5 12 16.5ZM12.625 10C12.625 9.65482 12.3452 9.375 12 9.375C11.6548 9.375 11.375 9.65482 11.375 10V12C11.375 12.1658 11.4408 12.3247 11.5581 12.4419L12.5581 13.4419C12.8021 13.686 13.1979 13.686 13.4419 13.4419C13.686 13.1979 13.686 12.8021 13.4419 12.5581L12.625 11.7411V10Z" fill="black"/>
</svg>
