<svg width="24" height="24" viewBox="0 0 24 24" fill="none" xmlns="http://www.w3.org/2000/svg">
<path d="M8 15V10.5C8 8.29086 9.79086 6.5 12 6.5C14.2091 6.5 16 8.29086 16 10.5V15C16 16.6569 14.6569 18 13 18C12.4477 18 12 18.4477 12 19C12 19.5523 12.4477 20 13 20C15.0657 20 16.8388 18.7473 17.6011 16.9602C17.73 16.9863 17.8634 17 18 17C19.1046 17 20 16.1046 20 15V12C20 11.0628 19.3554 10.2762 18.4853 10.0593C18.2587 6.67496 15.4417 4 12 4C8.55826 4 5.7413 6.67496 5.51471 10.0593C4.64464 10.2762 4 11.0628 4 12V15C4 16.1046 4.89543 17 6 17C7.10457 17 8 16.1046 8 15Z" fill="black"/>
</svg>
