<svg width="24" height="24" viewBox="0 0 24 24" fill="none" xmlns="http://www.w3.org/2000/svg">
<path d="M8.14746 14.7626V10.2626C8.14746 8.05343 9.93832 6.26257 12.1475 6.26257C14.3566 6.26257 16.1475 8.05343 16.1475 10.2626V14.7626C16.1475 16.4194 14.8043 17.7626 13.1475 17.7626C12.5952 17.7626 12.1475 18.2103 12.1475 18.7626C12.1475 19.3149 12.5952 19.7626 13.1475 19.7626C15.2131 19.7626 16.9862 18.5099 17.7486 16.7228C17.8775 16.7489 18.0109 16.7626 18.1475 16.7626C19.252 16.7626 20.1475 15.8671 20.1475 14.7626V11.7626C20.1475 10.8254 19.5028 10.0387 18.6328 9.82186C18.4062 6.43754 15.5892 3.76257 12.1475 3.76257C8.70572 3.76257 5.88876 6.43754 5.66217 9.82186C4.7921 10.0387 4.14746 10.8254 4.14746 11.7626V14.7626C4.14746 15.8671 5.04289 16.7626 6.14746 16.7626C7.25203 16.7626 8.14746 15.8671 8.14746 14.7626Z" fill="black"/>
</svg>
