<svg width="24" height="24" viewBox="0 0 24 24" fill="none" xmlns="http://www.w3.org/2000/svg">
<path d="M16.5746 5.49511C18.6549 5.77878 20.3569 7.48081 20.6091 9.56108C20.7039 10.3952 20.582 11.2293 20.2572 11.9811H15.575L14.7834 10.4227C14.6557 10.1713 14.3978 10.0127 14.1158 10.0123C13.8339 10.0119 13.5755 10.1697 13.4471 10.4207L12.1113 13.0317L10.1702 9.27645C10.0417 9.02789 9.7855 8.87151 9.50569 8.87085C9.22588 8.87019 8.96897 9.02535 8.8393 9.2733L7.42328 11.9811H3.96407C3.64882 11.2279 3.5249 10.4003 3.62026 9.56108C3.87242 7.48081 5.57445 5.77878 7.65472 5.52663C9.38827 5.27447 11.0903 6.03093 12.0989 7.44929C13.139 6.03093 14.8411 5.27447 16.5746 5.49511Z" fill="black"/>
<path d="M4.95577 13.4811L11.0353 19.5607C11.6209 20.1463 12.5702 20.1465 13.1561 19.5612L19.1907 13.5325L19.2335 13.4811H15.4216C14.951 13.4811 14.5202 13.2168 14.3071 12.7972L14.1123 12.4137L12.7824 15.0132C12.6544 15.2634 12.3973 15.421 12.1163 15.4216C11.8353 15.4222 11.5775 15.2657 11.4485 15.016L9.50007 11.2467L8.68236 12.8104C8.46674 13.2227 8.03996 13.4811 7.57467 13.4811H4.95577Z" fill="black"/>
</svg>
