<svg width="24" height="24" viewBox="0 0 24 24" fill="none" xmlns="http://www.w3.org/2000/svg">
<path d="M16.5746 5.49486C18.6549 5.77854 20.3569 7.48057 20.6091 9.56083C20.7039 10.395 20.582 11.2291 20.2572 11.9809H15.575L14.7834 10.4224C14.6557 10.171 14.3978 10.0125 14.1158 10.0121C13.8339 10.0117 13.5755 10.1694 13.4471 10.4205L12.1113 13.0314L10.1702 9.27621C10.0417 9.02764 9.7855 8.87127 9.50569 8.87061C9.22588 8.86995 8.96897 9.0251 8.8393 9.27306L7.42328 11.9809H3.96407C3.64882 11.2277 3.5249 10.4 3.62026 9.56083C3.87242 7.48057 5.57445 5.77854 7.65472 5.52638C9.38827 5.27423 11.0903 6.03069 12.0989 7.44905C13.139 6.03069 14.8411 5.27423 16.5746 5.49486Z" fill="black"/>
<path d="M4.95577 13.4809L11.0353 19.5604C11.6209 20.146 12.5702 20.1463 13.1561 19.561L19.1907 13.5322L19.2335 13.4809H15.4216C14.951 13.4809 14.5202 13.2166 14.3071 12.797L14.1123 12.4135L12.7824 15.013C12.6544 15.2632 12.3973 15.4208 12.1163 15.4214C11.8353 15.422 11.5775 15.2654 11.4485 15.0158L9.50007 11.2465L8.68236 12.8102C8.46674 13.2225 8.03996 13.4809 7.57467 13.4809H4.95577Z" fill="black"/>
</svg>
