<svg width="24" height="24" viewBox="0 0 24 24" fill="none" xmlns="http://www.w3.org/2000/svg">
<path d="M12 6.97868C13.9527 5.02631 17.1183 5.0264 19.0708 6.97894C21.0235 8.93156 21.0235 12.0974 19.0708 14.05L18.5056 14.6152C18.376 14.2146 18.1521 13.8378 17.8339 13.5196L13.0609 8.74667L11.4699 10.3377C10.9818 10.8258 10.1903 10.8258 9.70216 10.3377L9.17183 9.80733L12 6.97868Z" fill="black"/>
<path d="M4.92931 14.0499C2.97669 12.0973 2.97669 8.93149 4.92931 6.97887C6.51237 5.39581 8.89287 5.09619 10.7778 6.08003L7.05053 9.80728L8.64152 11.3983C9.71547 12.4722 11.4567 12.4722 12.5306 11.3983L13.0609 10.8679L16.7733 14.5802C17.0298 14.8368 17.1515 15.1772 17.1384 15.5133C16.9433 16.0105 16.6448 16.4765 16.243 16.8784L14.8288 18.2926C14.5171 18.6043 14.1668 18.8538 13.7932 19.0411C13.8039 18.3876 13.5599 17.7308 13.0613 17.2322L9.5258 13.6967C8.54949 12.7204 6.96658 12.7204 5.99027 13.6967C5.73885 13.9481 5.55218 14.2397 5.43025 14.5509L4.92931 14.0499Z" fill="black"/>
<path d="M7.0509 14.7573C7.44142 14.3668 8.07459 14.3668 8.46511 14.7573L12.0006 18.2929C12.3912 18.6834 12.3912 19.3166 12.0006 19.7071C11.6101 20.0976 10.977 20.0976 10.5864 19.7071L7.0509 16.1715C6.66037 15.781 6.66037 15.1479 7.0509 14.7573Z" fill="black"/>
</svg>
