<svg width="24" height="24" viewBox="0 0 24 24" fill="none" xmlns="http://www.w3.org/2000/svg">
<path d="M12.3671 13.8517C12.23 12.7208 11.3048 11.7956 10.1739 11.6414C9.23155 11.5214 8.30631 11.9326 7.74089 12.7037C7.1926 11.9326 6.26735 11.5214 5.32498 11.6585C4.19413 11.7956 3.26889 12.7208 3.13181 13.8517C3.04614 14.6056 3.28602 15.3423 3.78291 15.9077L6.67886 18.8037C7.26444 19.3893 8.21379 19.3895 8.79966 18.8042L11.5961 16.0105L11.6817 15.9077C12.2129 15.3595 12.4528 14.6056 12.3671 13.8517Z" fill="black"/>
<path d="M17.0611 5.54095C19.1351 5.82376 20.832 7.52064 21.0834 9.59459C21.2405 10.9772 20.8005 12.3599 19.8264 13.3654L19.6693 13.554L13.6562 19.5612C13.0703 20.1465 12.121 20.1462 11.5354 19.5607L10.8505 18.8757L12.7046 17.0234L12.8024 16.9061C13.6303 16.0242 13.989 14.8396 13.8575 13.6823L13.8569 13.6767L13.8562 13.6712C13.6357 11.8514 12.1715 10.3999 10.3766 10.1551L10.37 10.1542L10.3633 10.1534C9.43055 10.0346 8.51596 10.2439 7.74667 10.7064C6.97865 10.2442 6.06094 10.0399 5.12671 10.1716C4.777 10.2156 4.44044 10.3058 4.12344 10.4357C4.10677 10.1583 4.11395 9.87709 4.14605 9.59459C4.39744 7.52064 6.09431 5.82376 8.16827 5.57238C9.89656 5.32099 11.5934 6.07515 12.599 7.48921C13.636 6.07515 15.3328 5.32099 17.0611 5.54095Z" fill="black"/>
<path d="M9.7898 17.8151L5.34014 13.3654C4.96238 12.9356 4.66562 12.4517 4.45881 11.934C4.72447 11.7916 5.01708 11.6958 5.32498 11.6585C5.74832 11.5969 6.16824 11.646 6.55204 11.7886C7.02261 11.9635 7.4389 12.279 7.74089 12.7037C8.04936 12.283 8.46496 11.9695 8.93197 11.7908C9.32099 11.642 9.74567 11.5868 10.1739 11.6414C11.3048 11.7956 12.23 12.7208 12.3671 13.8517C12.4528 14.6056 12.2129 15.3595 11.6817 15.9077L11.5961 16.0105L9.7898 17.8151Z" fill="black"/>
</svg>
