<svg width="24" height="24" viewBox="0 0 24 24" fill="none" xmlns="http://www.w3.org/2000/svg">
<path d="M12 6.97795C13.9527 5.02558 17.1183 5.02567 19.0708 6.9782C21.0235 8.93083 21.0235 12.0967 19.0708 14.0493L18.5056 14.6145C18.376 14.2139 18.1521 13.8371 17.8339 13.5189L13.0609 8.74593L11.4699 10.3369C10.9818 10.8251 10.1903 10.8251 9.70216 10.3369L9.17183 9.80659L12 6.97795Z" fill="black"/>
<path d="M4.92931 14.0492C2.97669 12.0966 2.97669 8.93076 4.92931 6.97814C6.51237 5.39507 8.89287 5.09546 10.7778 6.0793L7.05053 9.80654L8.64152 11.3975C9.71547 12.4715 11.4567 12.4715 12.5306 11.3975L13.0609 10.8672L16.7733 14.5795C17.0298 14.8361 17.1515 15.1765 17.1384 15.5125C16.9433 16.0098 16.6448 16.4758 16.243 16.8776L14.8288 18.2918C14.5171 18.6035 14.1668 18.853 13.7932 19.0403C13.8039 18.3869 13.5599 17.7301 13.0613 17.2315L9.5258 13.6959C8.54949 12.7196 6.96658 12.7196 5.99027 13.6959C5.73885 13.9473 5.55218 14.239 5.43025 14.5501L4.92931 14.0492Z" fill="black"/>
<path d="M7.0509 14.7566C7.44142 14.3661 8.07459 14.3661 8.46511 14.7566L12.0006 18.2921C12.3912 18.6827 12.3912 19.3158 12.0006 19.7064C11.6101 20.0969 10.977 20.0969 10.5864 19.7064L7.0509 16.1708C6.66037 15.7803 6.66037 15.1471 7.0509 14.7566Z" fill="black"/>
</svg>
