<svg width="24" height="24" viewBox="0 0 24 24" fill="none" xmlns="http://www.w3.org/2000/svg">
<path d="M11.9999 6.97795C13.9526 5.02558 17.1182 5.02567 19.0707 6.9782C21.0233 8.93083 21.0233 12.0967 19.0707 14.0493L18.5055 14.6145C18.3759 14.2139 18.152 13.8371 17.8338 13.5189L13.0608 8.74593L11.4698 10.3369C10.9817 10.8251 10.1902 10.8251 9.70204 10.3369L9.17171 9.80659L11.9999 6.97795Z" fill="black"/>
<path d="M4.92919 14.0492C2.97657 12.0966 2.97657 8.93076 4.92919 6.97814C6.51225 5.39507 8.89275 5.09546 10.7777 6.0793L7.05041 9.80654L8.6414 11.3975C9.71534 12.4715 11.4565 12.4715 12.5305 11.3975L13.0608 10.8672L16.7731 14.5795C17.0297 14.8361 17.1514 15.1765 17.1383 15.5125C16.9432 16.0098 16.6447 16.4758 16.2429 16.8776L14.8287 18.2918C14.517 18.6035 14.1667 18.853 13.7931 19.0403C13.8038 18.3869 13.5598 17.7301 13.0612 17.2315L9.52568 13.6959C8.54937 12.7196 6.96645 12.7196 5.99014 13.6959C5.73873 13.9473 5.55205 14.239 5.43013 14.5501L4.92919 14.0492Z" fill="black"/>
<path d="M7.05078 14.7566C7.4413 14.3661 8.07447 14.3661 8.46499 14.7566L12.0005 18.2921C12.391 18.6827 12.391 19.3158 12.0005 19.7064C11.61 20.0969 10.9768 20.0969 10.5863 19.7064L7.05078 16.1708C6.66025 15.7803 6.66025 15.1471 7.05078 14.7566Z" fill="black"/>
</svg>
