<svg width="24" height="24" viewBox="0 0 24 24" fill="none" xmlns="http://www.w3.org/2000/svg">
<path fill-rule="evenodd" clip-rule="evenodd" d="M6 4C6 3.44772 6.44772 3 7 3H17C17.5523 3 18 3.44772 18 4C18 4.55228 17.5523 5 17 5V6.34315C17 7.40401 16.5786 8.42143 15.8284 9.17157L13 12L15.8284 14.8284C16.5786 15.5786 17 16.596 17 17.6569V19C17.5523 19 18 19.4477 18 20C18 20.5523 17.5523 21 17 21H7C6.44772 21 6 20.5523 6 20C6 19.4477 6.44772 19 7 19V17.6569C7 16.596 7.42143 15.5786 8.17157 14.8284L11 12L8.17157 9.17157C7.42143 8.42143 7 7.40401 7 6.34315L7 5C6.44772 5 6 4.55228 6 4ZM14 19H10C9.44772 19 9 18.5523 9 18V17.4142C9 17.149 9.10536 16.8946 9.29289 16.7071L11.2929 14.7071C11.6834 14.3166 12.3166 14.3166 12.7071 14.7071L14.7071 16.7071C14.8946 16.8946 15 17.149 15 17.4142V18C15 18.5523 14.5523 19 14 19Z" fill="black"/>
</svg>
