<svg width="24" height="24" viewBox="0 0 24 24" fill="none" xmlns="http://www.w3.org/2000/svg">
<path d="M20.6572 13.7707C20.4287 13.999 20.1533 14.1132 19.831 14.1132C19.5088 14.1132 19.2363 14.0019 19.0136 13.7795L18.0459 12.9454V18.9898C18.0459 19.5476 17.5917 19.9984 17.0339 19.9935C16.2407 19.9865 15.1643 19.9774 14.506 19.9732C14.2299 19.9715 14.007 19.7471 14.007 19.471V15.9641C14.007 15.4119 13.5592 14.9642 13.007 14.9691C12.3356 14.9751 11.6642 14.9851 10.9929 14.9911C10.4407 14.9961 9.99303 15.4446 9.99303 15.9968C9.99303 17.3479 9.99303 17.9173 9.99303 19.4714C9.99303 19.7475 9.76917 19.9726 9.49303 19.9726C8.65959 19.9726 7.82145 19.9724 6.98643 19.9723C6.43222 19.9722 5.98295 19.5229 5.98295 18.9687V12.7779L4.98654 13.7795C4.76389 14.0019 4.49143 14.1132 4.16917 14.1132C3.84691 14.1132 3.57152 13.999 3.34301 13.7707C3.1145 13.5424 3.00024 13.2673 3.00024 12.9454C3.00024 12.6234 3.11157 12.3512 3.33422 12.1288L11.1388 4.33186C11.3731 4.09772 11.6603 3.9865 12.0001 3.99821C12.3399 3.9865 12.627 4.09772 12.8614 4.33186L20.666 12.1288C20.8886 12.3512 20.9999 12.6234 20.9999 12.9454C20.9999 13.2673 20.8857 13.5424 20.6572 13.7707Z" fill="black"/>
</svg>
