<svg width="24" height="24" viewBox="0 0 24 24" fill="none" xmlns="http://www.w3.org/2000/svg">
<path fill-rule="evenodd" clip-rule="evenodd" d="M4 7.5C4 6.11929 5.11929 5 6.5 5H17.5C18.8807 5 20 6.11929 20 7.5V16.5C20 17.8807 18.8807 19 17.5 19H6.5C5.11929 19 4 17.8807 4 16.5V7.5ZM10.2296 10.5003C10.4645 10.4939 10.6888 10.598 10.8357 10.7815L12.3122 12.6272L13.2197 11.7197C13.5126 11.4268 13.9874 11.4268 14.2803 11.7197L16.7803 14.2197C17.0732 14.5126 17.0732 14.9874 16.7803 15.2803C16.4874 15.5732 16.0126 15.5732 15.7197 15.2803L13.75 13.3107L12.7803 14.2803C12.6295 14.4312 12.4215 14.5106 12.2085 14.4989C11.9955 14.4871 11.7976 14.3851 11.6643 14.2185L10.2839 12.4929L8.3603 15.1859C8.11954 15.523 7.65113 15.6011 7.31407 15.3603C6.97701 15.1195 6.89894 14.6511 7.1397 14.3141L9.6397 10.8141C9.7763 10.6228 9.99464 10.5067 10.2296 10.5003ZM16.25 10.5C16.9404 10.5 17.5 9.94036 17.5 9.25C17.5 8.55964 16.9404 8 16.25 8C15.5596 8 15 8.55964 15 9.25C15 9.94036 15.5596 10.5 16.25 10.5Z" fill="black"/>
</svg>
