<svg width="24" height="24" viewBox="0 0 24 24" fill="none" xmlns="http://www.w3.org/2000/svg">
<path fill-rule="evenodd" clip-rule="evenodd" d="M11.6995 5.00353L6.49896 5.00569C5.11865 5.00627 4 6.12539 4 7.50569V16.5001C4 17.8808 5.11929 19.0001 6.5 19.0001H17.5C18.8807 19.0001 20 17.8808 20 16.5001V10.1353L19.6113 11.1209C18.9454 12.8092 16.5561 12.8092 15.8902 11.1209L15.5647 10.2956C15.4216 10.2016 15.2989 10.079 15.2048 9.93589L14.3798 9.61048C13.249 9.16452 12.8756 7.94543 13.2595 6.98883C13.2075 6.90279 13.1615 6.81005 13.1223 6.71062L13.0282 6.47202L12.7896 6.37792C12.1447 6.12356 11.7813 5.58178 11.6995 5.00353ZM10.8357 10.7816C10.6889 10.598 10.4646 10.494 10.2296 10.5004C9.9947 10.5068 9.77636 10.6229 9.63976 10.8141L7.13976 14.3141C6.899 14.6512 6.97707 15.1196 7.31413 15.3604C7.65119 15.6011 8.1196 15.5231 8.36036 15.186L10.2839 12.493L11.6644 14.2186C11.7977 14.3852 11.9956 14.4871 12.2086 14.4989C12.4216 14.5107 12.6295 14.4313 12.7804 14.2804L13.7501 13.3107L15.7197 15.2804C16.0126 15.5733 16.4875 15.5733 16.7804 15.2804C17.0733 14.9875 17.0733 14.5126 16.7804 14.2197L14.2804 11.7197C13.9875 11.4269 13.5126 11.4269 13.2197 11.7197L12.3122 12.6272L10.8357 10.7816Z" fill="black"/>
<path d="M14.9828 3.33967C14.8996 3.12864 14.6009 3.12864 14.5177 3.33967L14.2244 4.0833C14.199 4.14773 14.148 4.19873 14.0835 4.22415L13.3399 4.51743C13.1289 4.60066 13.1289 4.89933 13.3399 4.98256L14.0835 5.27584C14.148 5.30126 14.199 5.35226 14.2244 5.41669L14.5177 6.16032C14.6009 6.37135 14.8996 6.37135 14.9828 6.16032L15.2761 5.41669C15.3015 5.35226 15.3525 5.30126 15.4169 5.27584L16.1606 4.98256C16.3716 4.89933 16.3716 4.60066 16.1606 4.51743L15.4169 4.22415C15.3525 4.19873 15.3015 4.14773 15.2761 4.0833L14.9828 3.33967Z" fill="black"/>
<path d="M18.2159 4.92935C18.0494 4.50727 17.4521 4.50727 17.2856 4.92935L16.699 6.41661C16.6482 6.54547 16.5462 6.64747 16.4173 6.69829L14.9301 7.28486C14.508 7.45132 14.508 8.04866 14.9301 8.21512L16.4173 8.80169C16.5462 8.85251 16.6482 8.95451 16.699 9.08337L17.2856 10.5706C17.4521 10.9927 18.0494 10.9927 18.2159 10.5706L18.8024 9.08337C18.8533 8.95451 18.9553 8.85251 19.0841 8.80169L20.5714 8.21512C20.9934 8.04866 20.9934 7.45132 20.5714 7.28486L19.0841 6.69829C18.9553 6.64747 18.8533 6.54547 18.8024 6.41661L18.2159 4.92935Z" fill="black"/>
</svg>
