<svg width="24" height="24" viewBox="0 0 24 24" fill="none" xmlns="http://www.w3.org/2000/svg">
<path fill-rule="evenodd" clip-rule="evenodd" d="M11.6995 5.00377L6.49896 5.00594C5.11865 5.00651 4 6.12563 4 7.50594V16.5003C4 17.881 5.11929 19.0003 6.5 19.0003H17.5C18.8807 19.0003 20 17.881 20 16.5003V10.1355L19.6113 11.1212C18.9454 12.8095 16.5561 12.8095 15.8902 11.1212L15.5647 10.2959C15.4216 10.2018 15.2989 10.0792 15.2048 9.93613L14.3798 9.61073C13.249 9.16476 12.8756 7.94567 13.2595 6.98908C13.2075 6.90303 13.1615 6.81029 13.1223 6.71086L13.0282 6.47227L12.7896 6.37817C12.1447 6.12381 11.7813 5.58202 11.6995 5.00377ZM10.8357 10.7818C10.6889 10.5983 10.4646 10.4942 10.2296 10.5006C9.9947 10.507 9.77636 10.6232 9.63976 10.8144L7.13976 14.3144C6.899 14.6515 6.97707 15.1199 7.31413 15.3606C7.65119 15.6014 8.1196 15.5233 8.36036 15.1862L10.2839 12.4932L11.6644 14.2188C11.7977 14.3854 11.9956 14.4874 12.2086 14.4992C12.4216 14.511 12.6295 14.4315 12.7804 14.2807L13.7501 13.311L15.7197 15.2807C16.0126 15.5735 16.4875 15.5735 16.7804 15.2807C17.0733 14.9878 17.0733 14.5129 16.7804 14.22L14.2804 11.72C13.9875 11.4271 13.5126 11.4271 13.2197 11.72L12.3122 12.6275L10.8357 10.7818Z" fill="black"/>
<path d="M14.9828 3.33992C14.8996 3.12888 14.6009 3.12888 14.5177 3.33992L14.2244 4.08355C14.199 4.14798 14.148 4.19898 14.0835 4.22439L13.3399 4.51767C13.1289 4.6009 13.1289 4.89957 13.3399 4.98281L14.0835 5.27609C14.148 5.3015 14.199 5.3525 14.2244 5.41693L14.5177 6.16056C14.6009 6.3716 14.8996 6.3716 14.9828 6.16056L15.2761 5.41693C15.3015 5.3525 15.3525 5.3015 15.4169 5.27609L16.1606 4.98281C16.3716 4.89957 16.3716 4.6009 16.1606 4.51767L15.4169 4.22439C15.3525 4.19898 15.3015 4.14798 15.2761 4.08355L14.9828 3.33992Z" fill="black"/>
<path d="M18.2159 4.92959C18.0494 4.50752 17.4521 4.50752 17.2856 4.92959L16.699 6.41685C16.6482 6.54571 16.5462 6.64771 16.4173 6.69854L14.9301 7.2851C14.508 7.45156 14.508 8.0489 14.9301 8.21537L16.4173 8.80193C16.5462 8.85275 16.6482 8.95476 16.699 9.08362L17.2856 10.5709C17.4521 10.9929 18.0494 10.9929 18.2159 10.5709L18.8024 9.08362C18.8533 8.95476 18.9553 8.85275 19.0841 8.80193L20.5714 8.21537C20.9934 8.0489 20.9934 7.45156 20.5714 7.2851L19.0841 6.69854C18.9553 6.64771 18.8533 6.54571 18.8024 6.41685L18.2159 4.92959Z" fill="black"/>
</svg>
