<svg width="24" height="24" viewBox="0 0 24 24" fill="none" xmlns="http://www.w3.org/2000/svg">
<path d="M5.5 4.5C4.39543 4.5 3.5 5.39543 3.5 6.5V14.5C3.5 15.4319 4.13739 16.215 5 16.437V9.5C5 7.567 6.567 6 8.5 6H17.437C17.215 5.13739 16.4319 4.5 15.5 4.5H5.5Z" fill="black"/>
<path fill-rule="evenodd" clip-rule="evenodd" d="M6.5 9.5C6.5 8.39543 7.39543 7.5 8.5 7.5H18.5C19.6046 7.5 20.5 8.39543 20.5 9.5V17.5C20.5 18.6046 19.6046 19.5 18.5 19.5H8.5C7.39543 19.5 6.5 18.6046 6.5 17.5V9.5ZM11.7296 12.0003C11.9645 11.9939 12.1888 12.098 12.3357 12.2815L13.8122 14.1272L14.7197 13.2197C15.0126 12.9268 15.4874 12.9268 15.7803 13.2197L18.2803 15.7197C18.5732 16.0126 18.5732 16.4874 18.2803 16.7803C17.9874 17.0732 17.5126 17.0732 17.2197 16.7803L15.25 14.8107L14.2803 15.7803C14.1295 15.9312 13.9215 16.0106 13.7085 15.9989C13.4955 15.9871 13.2976 15.8851 13.1643 15.7185L11.7839 13.9929L9.8603 16.6859C9.61954 17.023 9.15113 17.1011 8.81407 16.8603C8.47701 16.6195 8.39894 16.1511 8.6397 15.8141L11.1397 12.3141C11.2763 12.1228 11.4946 12.0067 11.7296 12.0003ZM17.75 12C18.4404 12 19 11.4404 19 10.75C19 10.0596 18.4404 9.5 17.75 9.5C17.0596 9.5 16.5 10.0596 16.5 10.75C16.5 11.4404 17.0596 12 17.75 12Z" fill="black"/>
</svg>
