<svg width="24" height="24" viewBox="0 0 24 24" fill="none" xmlns="http://www.w3.org/2000/svg">
<path d="M12 4.65C9.87827 4.65002 7.84345 5.37758 6.34316 6.67264C4.84287 7.9677 4.00001 9.72418 4 11.5557C4.00193 12.747 4.36085 13.9176 5.04187 14.9537C5.72289 15.9899 6.70285 16.8563 7.88651 17.4689C7.57125 18.2003 7.09844 18.8862 6.48764 19.4981C7.67212 19.2826 8.78402 18.8299 9.73679 18.1753C10.4714 18.3637 11.2336 18.4601 12 18.4614C14.1217 18.4613 16.1566 17.7338 17.6568 16.4387C19.1571 15.1436 20 13.3872 20 11.5557C20 9.72418 19.1571 7.9677 17.6568 6.67264C16.1566 5.37758 14.1217 4.65002 12 4.65Z" fill="black"/>
</svg>
