<svg width="24" height="24" viewBox="0 0 24 24" fill="none" xmlns="http://www.w3.org/2000/svg">
<path d="M7.73242 5.73242C7.64755 5.8173 7.57012 5.90675 7.5 6H6V13H8C8.51768 13 8.94379 13.3933 8.99512 13.8975L9.00488 14.1025C9.05621 14.6067 9.48232 15 10 15H14C14.5177 15 14.9438 14.6067 14.9951 14.1025L15.0049 13.8975C15.0562 13.3933 15.4823 13 16 13H18V6H16.5C16.4299 5.90675 16.3525 5.8173 16.2676 5.73242L14.5352 4H18C19.1046 4 20 4.89543 20 6V18C20 19.1046 19.1046 20 18 20H6C4.89543 20 4 19.1046 4 18V6C4 4.89543 4.89543 4 6 4H9.46484L7.73242 5.73242Z" fill="black"/>
<path d="M12 4C12.0587 4 12.116 4.00593 12.1719 4.01562C12.1806 4.01715 12.1895 4.01777 12.1982 4.01953C12.2144 4.02278 12.2302 4.02723 12.2461 4.03125C12.2617 4.03522 12.2776 4.03826 12.293 4.04297C12.3888 4.07226 12.4784 4.11599 12.5596 4.1709L12.6338 4.22656C12.6592 4.24738 12.6836 4.26955 12.707 4.29297L15.207 6.79297C15.5976 7.18349 15.5976 7.81651 15.207 8.20703C14.8165 8.59756 14.1835 8.59756 13.793 8.20703L13 7.41406V11C13 11.5523 12.5523 12 12 12C11.4477 12 11 11.5523 11 11V7.41406L10.207 8.20703C9.81651 8.59756 9.18349 8.59756 8.79297 8.20703C8.40245 7.81651 8.40245 7.18349 8.79297 6.79297L11.293 4.29297C11.3255 4.26043 11.3602 4.23059 11.3965 4.20312C11.4887 4.1332 11.5928 4.07771 11.7061 4.04297C11.7214 4.03825 11.7373 4.03523 11.7529 4.03125C11.7688 4.02722 11.7846 4.0228 11.8008 4.01953C11.8095 4.01776 11.8184 4.01716 11.8271 4.01562C11.8833 4.00583 11.941 4 12 4Z" fill="black"/>
</svg>
