<svg width="24" height="24" viewBox="0 0 24 24" fill="none" xmlns="http://www.w3.org/2000/svg">
<path d="M18 6H6V13H8C8.55228 13 9 13.4477 9 14C9 14.5523 9.44772 15 10 15H12.75V20H6C4.89543 20 4 19.1046 4 18V6C4 4.89543 4.89543 4 6 4H18C19.1046 4 20 4.89543 20 6V12.6287L19.5607 12.1893C19.2941 11.9228 18.9441 11.7723 18.5828 11.7523C18.4104 11.637 18.2128 11.5564 18 11.5207V6Z" fill="black"/>
<path d="M17.75 13H15.25C14.6977 13 14.25 13.4477 14.25 14V20C14.25 20.5523 14.6977 21 15.25 21H19.75C20.3023 21 20.75 20.5523 20.75 20V16H18.125C17.9179 16 17.75 15.8321 17.75 15.625V13Z" fill="black"/>
<path d="M20.5 15.25L18.5 13.25V15.25H20.5Z" fill="black"/>
</svg>
