<svg width="24" height="24" viewBox="0 0 24 24" fill="none" xmlns="http://www.w3.org/2000/svg">
<path d="M18 6H6V13H8C8.55228 13 9 13.4477 9 14C9 14.5523 9.44772 15 10 15H11.8749C11.6329 15.6199 11.5 16.2944 11.5 17C11.5 18.1068 11.8269 19.1372 12.3895 20H6C4.89543 20 4 19.1046 4 18V6C4 4.89543 4.89543 4 6 4H18C19.1046 4 20 4.89543 20 6V12.3895C19.4034 12.0005 18.7267 11.7242 18 11.5907V6Z" fill="black"/>
<path fill-rule="evenodd" clip-rule="evenodd" d="M17 21C19.2091 21 21 19.2091 21 17C21 14.7909 19.2091 13 17 13C14.7909 13 13 14.7909 13 17C13 19.2091 14.7909 21 17 21ZM19.3169 16.3169C19.561 16.0729 19.561 15.6771 19.3169 15.4331C19.0729 15.189 18.6771 15.189 18.4331 15.4331L16.5 17.3661L15.5669 16.4331C15.3229 16.189 14.9271 16.189 14.6831 16.4331C14.439 16.6771 14.439 17.0729 14.6831 17.3169L16.0581 18.6919C16.3021 18.936 16.6979 18.936 16.9419 18.6919L19.3169 16.3169Z" fill="black"/>
</svg>
