<svg width="24" height="24" viewBox="0 0 24 24" fill="none" xmlns="http://www.w3.org/2000/svg">
<path d="M13.2195 8.40249C13.3931 8.91968 13.7798 9.37391 14.3798 9.61052L15.463 10.0377L15.8902 11.121C16.3521 12.2921 17.6434 12.6509 18.6134 12.1971L20.1885 19.1275L15.5311 14.4701C15.6717 14.1764 15.7504 13.8474 15.7504 13.5C15.7504 12.2574 14.743 11.25 13.5004 11.25C12.2577 11.25 11.2504 12.2574 11.2504 13.5C11.2504 14.7427 12.2577 15.75 13.5004 15.75C13.8477 15.75 14.1767 15.6713 14.4704 15.5307L19.1277 20.188L10.5713 18.2434C9.90436 18.0918 9.36112 17.6099 9.13107 16.9658L7.95013 13.6592C8.00896 13.6088 8.06629 13.5557 8.12198 13.5L13.2195 8.40249Z" fill="black"/>
<path d="M11.7517 4.25174C11.5193 5.0583 11.8652 6.01338 12.7896 6.37796L12.8267 6.39258C12.7606 6.63731 12.6315 6.86857 12.4394 7.06068L7.06068 12.4394C6.47489 13.0251 5.52514 13.0251 4.93936 12.4394L3.56068 11.0607C2.97489 10.4749 2.97489 9.52514 3.56068 8.93936L8.93936 3.56068C9.52514 2.97489 10.4749 2.97489 11.0607 3.56068L11.7517 4.25174Z" fill="black"/>
<path d="M13.5004 12.75C13.9146 12.75 14.2504 13.0858 14.2504 13.5C14.2504 13.9142 13.9146 14.25 13.5004 14.25C13.0862 14.25 12.7504 13.9142 12.7504 13.5C12.7504 13.0858 13.0862 12.75 13.5004 12.75Z" fill="black"/>
<path d="M14.9828 3.33967C14.8996 3.12864 14.6009 3.12864 14.5177 3.33967L14.2244 4.0833C14.199 4.14773 14.148 4.19873 14.0835 4.22415L13.3399 4.51743C13.1289 4.60066 13.1289 4.89933 13.3399 4.98256L14.0835 5.27584C14.148 5.30126 14.199 5.35226 14.2244 5.41669L14.5177 6.16032C14.6009 6.37135 14.8996 6.37135 14.9828 6.16032L15.2761 5.41669C15.3015 5.35226 15.3525 5.30126 15.4169 5.27584L16.1606 4.98256C16.3716 4.89933 16.3716 4.60066 16.1606 4.51743L15.4169 4.22415C15.3525 4.19873 15.3015 4.14773 15.2761 4.0833L14.9828 3.33967Z" fill="black"/>
<path d="M18.2159 4.92935C18.0494 4.50727 17.4521 4.50727 17.2856 4.92935L16.699 6.41661C16.6482 6.54547 16.5462 6.64747 16.4173 6.69829L14.9301 7.28486C14.508 7.45132 14.508 8.04866 14.9301 8.21512L16.4173 8.80169C16.5462 8.85251 16.6482 8.95451 16.699 9.08337L17.2856 10.5706C17.4521 10.9927 18.0494 10.9927 18.2159 10.5706L18.8024 9.08337C18.8533 8.95451 18.9553 8.85251 19.0841 8.80169L20.5714 8.21512C20.9934 8.04866 20.9934 7.45132 20.5714 7.28486L19.0841 6.69829C18.9553 6.64747 18.8533 6.54547 18.8024 6.41661L18.2159 4.92935Z" fill="black"/>
</svg>
