<svg width="24" height="24" viewBox="0 0 24 24" fill="none" xmlns="http://www.w3.org/2000/svg">
<path d="M11.5607 4.93934L12.9394 3.56066C13.5252 2.97487 14.4749 2.97487 15.0607 3.56066L20.4394 8.93934C21.0252 9.52513 21.0252 10.4749 20.4394 11.0607L19.0607 12.4393C18.4749 13.0251 17.5252 13.0251 16.9394 12.4393L11.5607 7.06066C10.9749 6.47487 10.9749 5.52513 11.5607 4.93934Z" fill="black"/>
<path d="M7.03428 9.13064L10.3409 7.9497C10.3912 8.00845 10.4442 8.06572 10.4998 8.12134L15.8785 13.5C15.9342 13.5557 15.9915 13.6088 16.0504 13.6591L14.8694 16.9658C14.6394 17.6099 14.0961 18.0918 13.4292 18.2434L4.87276 20.188L9.53006 15.5307C9.82379 15.6713 10.1528 15.75 10.5001 15.75C11.7428 15.75 12.7501 14.7426 12.7501 13.5C12.7501 12.2574 11.7428 11.25 10.5001 11.25C9.25749 11.25 8.25013 12.2574 8.25013 13.5C8.25013 13.8474 8.32884 14.1763 8.4694 14.4701L3.81201 19.1275L5.75669 10.5709C5.90827 9.90393 6.39016 9.36068 7.03428 9.13064Z" fill="black"/>
<path d="M10.5001 12.75C10.0859 12.75 9.75013 13.0858 9.75013 13.5C9.75013 13.9142 10.0859 14.25 10.5001 14.25C10.9143 14.25 11.2501 13.9142 11.2501 13.5C11.2501 13.0858 10.9143 12.75 10.5001 12.75Z" fill="black"/>
</svg>
