<svg width="24" height="24" viewBox="0 0 24 24" fill="none" xmlns="http://www.w3.org/2000/svg">
<path d="M13.2195 8.40224C13.3931 8.91944 13.7798 9.37367 14.3798 9.61027L15.463 10.0375L15.8902 11.1207C16.3521 12.2919 17.6434 12.6506 18.6134 12.1969L20.1885 19.1272L15.5311 14.4698C15.6717 14.1761 15.7504 13.8471 15.7504 13.4998C15.7504 12.2571 14.743 11.2498 13.5004 11.2498C12.2577 11.2498 11.2504 12.2571 11.2504 13.4998C11.2504 14.7424 12.2577 15.7498 13.5004 15.7498C13.8477 15.7498 14.1767 15.6711 14.4704 15.5305L19.1277 20.1878L10.5713 18.2432C9.90436 18.0916 9.36112 17.6097 9.13107 16.9656L7.95013 13.6589C8.00896 13.6085 8.06629 13.5555 8.12198 13.4998L13.2195 8.40224Z" fill="black"/>
<path d="M11.7517 4.25149C11.5193 5.05806 11.8652 6.01314 12.7896 6.37771L12.8267 6.39234C12.7606 6.63706 12.6315 6.86832 12.4394 7.06043L7.06068 12.4391C6.47489 13.0249 5.52514 13.0249 4.93936 12.4391L3.56068 11.0604C2.97489 10.4746 2.97489 9.5249 3.56068 8.93911L8.93936 3.56043C9.52514 2.97465 10.4749 2.97465 11.0607 3.56043L11.7517 4.25149Z" fill="black"/>
<path d="M13.5004 12.7498C13.9146 12.7498 14.2504 13.0856 14.2504 13.4998C14.2504 13.914 13.9146 14.2498 13.5004 14.2498C13.0862 14.2498 12.7504 13.914 12.7504 13.4998C12.7504 13.0856 13.0862 12.7498 13.5004 12.7498Z" fill="black"/>
<path d="M14.9828 3.33943C14.8996 3.12839 14.6009 3.12839 14.5177 3.33943L14.2244 4.08306C14.199 4.14749 14.148 4.19849 14.0835 4.2239L13.3399 4.51718C13.1289 4.60042 13.1289 4.89909 13.3399 4.98232L14.0835 5.2756C14.148 5.30101 14.199 5.35201 14.2244 5.41644L14.5177 6.16007C14.6009 6.37111 14.8996 6.37111 14.9828 6.16007L15.2761 5.41644C15.3015 5.35201 15.3525 5.30101 15.4169 5.2756L16.1606 4.98232C16.3716 4.89909 16.3716 4.60042 16.1606 4.51718L15.4169 4.2239C15.3525 4.19849 15.3015 4.14749 15.2761 4.08306L14.9828 3.33943Z" fill="black"/>
<path d="M18.2159 4.9291C18.0494 4.50703 17.4521 4.50703 17.2856 4.9291L16.699 6.41636C16.6482 6.54522 16.5462 6.64723 16.4173 6.69805L14.9301 7.28461C14.508 7.45108 14.508 8.04841 14.9301 8.21488L16.4173 8.80144C16.5462 8.85227 16.6482 8.95427 16.699 9.08313L17.2856 10.5704C17.4521 10.9925 18.0494 10.9925 18.2159 10.5704L18.8024 9.08313C18.8533 8.95427 18.9553 8.85227 19.0841 8.80144L20.5714 8.21488C20.9934 8.04841 20.9934 7.45108 20.5714 7.28461L19.0841 6.69805C18.9553 6.64723 18.8533 6.54522 18.8024 6.41636L18.2159 4.9291Z" fill="black"/>
</svg>
