<svg width="24" height="24" viewBox="0 0 24 24" fill="none" xmlns="http://www.w3.org/2000/svg">
<path fill-rule="evenodd" clip-rule="evenodd" d="M8.82508 20.9528C7.887 20.9101 7.18239 20.7565 6.53948 20.5076C5.84517 20.2448 5.21569 19.8354 4.69392 19.3074C4.1647 18.7857 3.7547 18.1556 3.49217 17.4604C3.24345 16.8177 3.08995 16.113 3.04728 15.1758C3.00824 14.3382 3 14.0538 3 12C3 9.94616 3.00824 9.66178 3.04728 8.82418C3.08995 7.88717 3.2434 7.18252 3.49205 6.53994C3.75445 5.84449 4.16451 5.21423 4.69396 4.69259C5.21557 4.16457 5.84495 3.75524 6.53917 3.49253C7.18176 3.24334 7.88743 3.08993 8.82427 3.04727C9.6623 3.00824 9.94816 3 12.001 3C14.0557 3 14.3393 3.00875 15.176 3.04724C16.1143 3.08943 16.819 3.24378 17.4613 3.49215C18.1565 3.75479 18.7866 4.16478 19.3084 4.69395C19.8358 5.21544 20.2449 5.84437 20.5077 6.53803C20.758 7.18234 20.9107 7.88866 20.9533 8.82508C20.9918 9.66214 21 9.9461 21 12C21 14.054 20.9918 14.3369 20.9533 15.1749C20.9116 16.1133 20.7573 16.8187 20.5079 17.4614C20.2452 18.156 19.8355 18.7856 19.3068 19.3071C18.7851 19.8351 18.1559 20.2445 17.4618 20.5075C16.8187 20.7565 16.1136 20.9101 15.1757 20.9528M16.9398 19.1445C17.4427 18.9548 17.8984 18.658 18.2752 18.2747C18.6588 17.8982 18.9557 17.4424 19.145 16.9393C19.3318 16.4596 19.4598 15.9114 19.4953 15.1086C19.5323 14.304 19.5405 14.0481 19.5405 12C19.5405 9.95189 19.5323 9.69503 19.4953 8.89135C19.4588 8.08865 19.3318 7.53989 19.145 7.0607C18.9554 6.55783 18.6588 6.10218 18.2757 5.7253C17.8992 5.34155 17.4434 5.04468 16.9403 4.85546C16.4601 4.66914 15.9118 4.54119 15.1096 4.50519C14.3059 4.46822 14.0491 4.45946 12.001 4.45946C9.95384 4.45946 9.69551 4.46773 8.89135 4.50519C8.08865 4.54168 7.53989 4.66914 7.06119 4.85546C6.55801 5.04496 6.10215 5.34178 5.7253 5.7253C5.34133 6.10159 5.04443 6.5574 4.85546 7.0607C4.66913 7.54038 4.54168 8.08865 4.50519 8.89135C4.46773 9.69503 4.45946 9.95189 4.45946 12C4.45946 14.0481 4.46773 14.305 4.50519 15.1086C4.54168 15.9114 4.66913 16.4596 4.85546 16.9393C5.04457 17.4425 5.34145 17.8983 5.7253 18.2747C6.10222 18.6581 6.55806 18.9549 7.06119 19.1445C7.54086 19.3309 8.08865 19.4583 8.89135 19.4948C9.696 19.5313 9.95238 19.5405 12 19.5405C14.0481 19.5405 14.305 19.5323 15.1091 19.4948C15.9118 19.4583 16.4601 19.3309 16.9398 19.1445ZM8.82508 20.9528C9.66233 20.9907 9.94435 21 12 21ZM12 21C14.0531 21 14.3383 20.9918 15.1757 20.9528Z" fill="black"/>
<path fill-rule="evenodd" clip-rule="evenodd" d="M9.9111 10.6036C9.63489 11.0169 9.48741 11.5027 9.48731 11.9997C9.48725 12.3298 9.55221 12.6567 9.67848 12.9617C9.80475 13.2666 9.98986 13.5437 10.2232 13.7772C10.4566 14.0106 10.7337 14.1957 11.0386 14.3221C11.3436 14.4484 11.6704 14.5134 12.0005 14.5134C12.4975 14.5134 12.9834 14.366 13.3967 14.0899C13.81 13.8138 14.1321 13.4213 14.3223 12.9621C14.5126 12.5029 14.5624 11.9976 14.4654 11.5101C14.3685 11.0226 14.1292 10.5748 13.7778 10.2233C13.4263 9.87182 12.9786 9.63242 12.4911 9.53539C12.0036 9.43837 11.4983 9.48807 11.0391 9.67821C10.5798 9.86835 10.1873 10.1904 9.9111 10.6036ZM9.26228 14.738C8.53606 14.0117 8.12807 13.0268 8.12807 11.9997C8.12801 11.4912 8.22812 10.9876 8.42271 10.5178C8.6173 10.0479 8.90253 9.62098 9.26214 9.26138C9.62174 8.90178 10.0487 8.61654 10.5185 8.42196C10.9884 8.22737 11.4919 8.12725 12.0005 8.12732C12.509 8.12732 13.0126 8.22748 13.4824 8.42209C13.9522 8.61669 14.3791 8.90194 14.7387 9.26152C15.0983 9.62111 15.3836 10.048 15.5782 10.5178C15.7728 10.9877 15.8729 11.4912 15.8729 11.9997C15.8729 12.5083 15.7728 13.0118 15.5782 13.4817C15.3836 13.9515 15.0983 14.3784 14.7387 14.738C14.3791 15.0976 13.9522 15.3828 13.4824 15.5774C13.0126 15.772 12.509 15.8722 12.0005 15.8722C10.9735 15.8722 9.9885 15.4642 9.26228 14.738ZM15.2731 8.47687C15.1737 8.32801 15.1207 8.15304 15.1208 7.97407L15.1213 7.97456C15.1213 7.73457 15.2166 7.50442 15.3863 7.33472C15.556 7.16503 15.7862 7.06969 16.0262 7.06969C16.2051 7.06979 16.3801 7.12295 16.5288 7.22246C16.6776 7.32197 16.7935 7.46335 16.8619 7.62873C16.9303 7.79411 16.9481 7.97606 16.9131 8.15157C16.8781 8.32707 16.7918 8.48826 16.6652 8.61474C16.5386 8.74122 16.3773 8.82731 16.2017 8.86213C16.0262 8.89695 15.8443 8.87893 15.679 8.81036C15.5137 8.74178 15.3724 8.62573 15.2731 8.47687ZM7.55353 17.8785C7.81915 17.9821 8.21904 18.1037 8.95364 18.1377C9.74807 18.1742 9.98645 18.1815 12.0005 18.1815C14.0141 18.1815 14.2529 18.1742 15.0479 18.1377C15.7829 18.1042 16.1828 17.9821 16.448 17.8785C16.7755 17.7573 17.0719 17.5645 17.3154 17.3141C17.5658 17.0711 17.7586 16.775 17.8797 16.4477C17.9823 16.1821 18.1054 15.7827 18.139 15.0471C18.1755 14.2517 18.1828 14.0138 18.1828 12.0002C18.1828 9.98618 18.1755 9.74829 18.139 8.95288C18.1054 8.21731 17.9828 7.81791 17.8797 7.55229C17.7425 7.20056 17.5795 6.94856 17.3154 6.68537C17.0721 6.43476 16.7757 6.24191 16.448 6.12104C16.1819 6.0184 15.7829 5.89532 15.0479 5.86175C14.252 5.82526 14.0131 5.81796 12.0005 5.81796C9.98742 5.81796 9.74856 5.82477 8.95364 5.86175C8.21856 5.89483 7.81915 6.01742 7.55353 6.12056C7.22565 6.24108 6.92917 6.43397 6.68612 6.68488C6.43589 6.92839 6.24325 7.22475 6.12228 7.55229C6.01964 7.81888 5.89655 8.2178 5.8625 8.9524C5.8265 9.74829 5.81872 9.98618 5.81872 11.9997C5.81872 14.0138 5.82601 14.2522 5.8625 15.0471C5.89607 15.7822 6.01866 16.1821 6.1218 16.4472C6.24248 16.7749 6.43535 17.0712 6.68612 17.3141C6.92961 17.5645 7.22597 17.7573 7.55353 17.8785ZM5.67039 18.2194V18.297H5.74766C5.74018 18.2895 5.73272 18.2822 5.7253 18.2747C5.70679 18.2566 5.68849 18.238 5.67039 18.2194ZM18.2528 18.297H18.3061V18.2438C18.2959 18.2541 18.2855 18.2645 18.2752 18.2747C18.2678 18.2822 18.2603 18.2895 18.2528 18.297Z" fill="black"/>
</svg>
