<svg width="24" height="24" viewBox="0 0 24 24" fill="none" xmlns="http://www.w3.org/2000/svg">
<path d="M10.3077 10.3094L10.7687 11.619H9.84668L10.3077 10.3094Z" fill="black"/>
<path fill-rule="evenodd" clip-rule="evenodd" d="M4 11.0427C4 7.55909 7.58169 4.735 12 4.735C16.4183 4.735 20 7.55909 20 11.0427C20 14.5264 16.4183 17.3504 12 17.3504C11.5151 17.3504 11.0402 17.3165 10.5791 17.2512C10.1175 17.5765 7.45046 19.4499 7.19877 19.4851C7.19877 19.4851 7.09554 19.5252 7.00777 19.4735C6.92 19.4218 6.93592 19.2863 6.93592 19.2863C6.96238 19.1059 7.62731 16.8098 7.74985 16.3871C5.49738 15.2712 4 13.295 4 11.0427ZM7.11538 12.804C7.11538 13.047 7.32238 13.2447 7.57692 13.2447C7.83145 13.2447 8.03845 13.047 8.03845 12.804V10.062H8.75861C9.0083 10.062 9.21153 9.85926 9.21153 9.6101C9.21153 9.36095 9.00838 9.15817 8.75861 9.15817H6.39522C6.14553 9.15817 5.9423 9.36095 5.9423 9.6101C5.9423 9.85926 6.14545 10.062 6.39522 10.062H7.11538V12.804ZM11.2399 13.0349C11.2843 13.1606 11.4315 13.2387 11.624 13.2387C11.7252 13.2388 11.8253 13.2171 11.9174 13.1751C12.0446 13.1166 12.1669 12.9551 12.0265 12.5188L10.9229 9.61425C10.845 9.39279 10.6088 9.16502 10.3073 9.15825C10.0067 9.1651 9.77045 9.39279 9.69268 9.61379L8.58868 12.5197C8.44853 12.955 8.57084 13.1163 8.69807 13.175C8.79015 13.2171 8.89022 13.2388 8.99145 13.2387C9.18392 13.2387 9.33107 13.1607 9.3753 13.0352L9.60399 12.4365L11.0114 12.4366L11.2399 13.0349ZM12.3269 12.7543C12.3269 12.9876 12.5253 13.1774 12.7692 13.1774H14.25C14.4939 13.1774 14.6923 12.9876 14.6923 12.7543C14.6923 12.5211 14.4939 12.3313 14.25 12.3313H13.2692V9.61972C13.2692 9.36518 13.0578 9.15817 12.7981 9.15817C12.5383 9.15817 12.3269 9.36518 12.3269 9.61972V12.7543ZM14.8718 12.7772C14.8718 13.0317 15.0788 13.2387 15.3334 13.2387C15.4558 13.2386 15.5731 13.1899 15.6597 13.1033C15.7462 13.0167 15.7949 12.8994 15.7951 12.777V11.77L15.9552 11.6098L17.0376 13.044C17.0805 13.1012 17.1361 13.1476 17.2002 13.1795C17.2642 13.2113 17.3348 13.2278 17.4063 13.2274C17.5066 13.2277 17.6041 13.1949 17.6839 13.1343C17.7324 13.0979 17.7732 13.0523 17.804 13C17.8347 12.9478 17.8548 12.8899 17.863 12.8299C17.8716 12.7699 17.8682 12.7087 17.853 12.65C17.8378 12.5913 17.8111 12.5362 17.7744 12.488L16.6383 10.9829L17.6901 9.93126C17.7624 9.85887 17.7986 9.7591 17.7919 9.65025C17.7853 9.54233 17.7371 9.43841 17.6562 9.35764C17.5695 9.27102 17.4538 9.22133 17.3386 9.22133C17.2398 9.22133 17.1488 9.25779 17.0826 9.32402L15.7949 10.6117V9.61972C15.7949 9.36518 15.5879 9.15817 15.3334 9.15817C15.0788 9.15817 14.8718 9.36518 14.8718 9.61972V12.7772Z" fill="black"/>
</svg>
