<svg width="24" height="24" viewBox="0 0 24 24" fill="none" xmlns="http://www.w3.org/2000/svg">
<path d="M10.3077 10.3088L10.7687 11.6184H9.84668L10.3077 10.3088Z" fill="black"/>
<path fill-rule="evenodd" clip-rule="evenodd" d="M4 11.0421C4 7.55847 7.58169 4.73438 12 4.73438C16.4183 4.73438 20 7.55847 20 11.0421C20 14.5258 16.4183 17.3498 12 17.3498C11.5151 17.3498 11.0402 17.3159 10.5791 17.2506C10.1175 17.5759 7.45046 19.4493 7.19877 19.4844C7.19877 19.4844 7.09554 19.5246 7.00777 19.4729C6.92 19.4212 6.93592 19.2857 6.93592 19.2857C6.96238 19.1053 7.62731 16.8091 7.74985 16.3865C5.49738 15.2706 4 13.2943 4 11.0421ZM7.11538 12.8033C7.11538 13.0464 7.32238 13.2441 7.57692 13.2441C7.83145 13.2441 8.03845 13.0464 8.03845 12.8033V10.0614H8.75861C9.0083 10.0614 9.21153 9.85863 9.21153 9.60947C9.21153 9.36032 9.00838 9.15755 8.75861 9.15755H6.39522C6.14553 9.15755 5.9423 9.36032 5.9423 9.60947C5.9423 9.85863 6.14545 10.0614 6.39522 10.0614H7.11538V12.8033ZM11.2399 13.0343C11.2843 13.16 11.4315 13.2381 11.624 13.2381C11.7252 13.2382 11.8253 13.2165 11.9174 13.1745C12.0446 13.116 12.1669 12.9545 12.0265 12.5182L10.9229 9.61363C10.845 9.39217 10.6088 9.1644 10.3073 9.15763C10.0067 9.16447 9.77045 9.39217 9.69268 9.61317L8.58868 12.519C8.44853 12.9543 8.57084 13.1157 8.69807 13.1744C8.79015 13.2165 8.89022 13.2382 8.99145 13.2381C9.18392 13.2381 9.33107 13.16 9.3753 13.0346L9.60399 12.4359L11.0114 12.436L11.2399 13.0343ZM12.3269 12.7537C12.3269 12.987 12.5253 13.1768 12.7692 13.1768H14.25C14.4939 13.1768 14.6923 12.987 14.6923 12.7537C14.6923 12.5205 14.4939 12.3306 14.25 12.3306H13.2692V9.61909C13.2692 9.36455 13.0578 9.15755 12.7981 9.15755C12.5383 9.15755 12.3269 9.36455 12.3269 9.61909V12.7537ZM14.8718 12.7766C14.8718 13.0311 15.0788 13.2381 15.3334 13.2381C15.4558 13.2379 15.5731 13.1892 15.6597 13.1027C15.7462 13.0161 15.7949 12.8987 15.7951 12.7763V11.7693L15.9552 11.6092L17.0376 13.0433C17.0805 13.1006 17.1361 13.147 17.2002 13.1789C17.2642 13.2107 17.3348 13.2271 17.4063 13.2268C17.5066 13.227 17.6041 13.1943 17.6839 13.1336C17.7324 13.0973 17.7732 13.0517 17.804 12.9994C17.8347 12.9472 17.8548 12.8893 17.863 12.8293C17.8716 12.7692 17.8682 12.7081 17.853 12.6494C17.8378 12.5907 17.8111 12.5356 17.7744 12.4873L16.6383 10.9823L17.6901 9.93063C17.7624 9.85825 17.7986 9.75848 17.7919 9.64963C17.7853 9.54171 17.7371 9.43778 17.6562 9.35701C17.5695 9.2704 17.4538 9.2207 17.3386 9.2207C17.2398 9.2207 17.1488 9.25716 17.0826 9.3234L15.7949 10.6111V9.61909C15.7949 9.36455 15.5879 9.15755 15.3334 9.15755C15.0788 9.15755 14.8718 9.36455 14.8718 9.61909V12.7766Z" fill="black"/>
</svg>
