<svg width="24" height="24" viewBox="0 0 24 24" fill="none" xmlns="http://www.w3.org/2000/svg">
<path d="M13.7501 4.00002C11.6785 4.00002 10.0001 5.67842 10.0001 7.75002C10.0001 9.82161 11.6785 11.5 13.7501 11.5C15.8217 11.5 17.5001 9.82161 17.5001 7.75002C17.5025 5.67842 15.8217 4.00002 13.7501 4.00002Z" fill="black"/>
<path d="M18.5001 13H14.5001C13.6716 13 13.0001 13.6716 13.0001 14.5V18.5C13.0001 19.3284 13.6716 20 14.5001 20H18.5001C19.3285 20 20.0001 19.3284 20.0001 18.5V14.5C20.0001 13.6716 19.3285 13 18.5001 13Z" fill="black"/>
<path d="M7.01115 9.53219C7.39445 8.85705 8.36739 8.85718 8.75052 9.53242L11.6281 14.604C12.0064 15.2706 11.5248 16.0975 10.7584 16.0975H5.00143C4.23484 16.0975 3.75333 15.2704 4.13181 14.6037L7.01115 9.53219Z" fill="black"/>
</svg>
