<svg width="24" height="24" viewBox="0 0 24 24" fill="none" xmlns="http://www.w3.org/2000/svg">
<path d="M13.75 4C11.6785 4 10 5.67841 10 7.75C10 9.82159 11.6785 11.5 13.75 11.5C15.8216 11.5 17.5 9.82159 17.5 7.75C17.5025 5.67841 15.8216 4 13.75 4Z" fill="black"/>
<path d="M18.5 13H14.5C13.6716 13 13 13.6716 13 14.5V18.5C13 19.3284 13.6716 20 14.5 20H18.5C19.3285 20 20 19.3284 20 18.5V14.5C20 13.6716 19.3285 13 18.5 13Z" fill="black"/>
<path d="M7.01113 9.53218C7.39443 8.85704 8.36737 8.85717 8.7505 9.53241L11.6281 14.604C12.0063 15.2706 11.5248 16.0975 10.7583 16.0975H5.00141C4.23482 16.0975 3.75331 15.2704 4.13179 14.6037L7.01113 9.53218Z" fill="black"/>
</svg>
