<svg width="24" height="24" viewBox="0 0 24 24" fill="none" xmlns="http://www.w3.org/2000/svg">
<path fill-rule="evenodd" clip-rule="evenodd" d="M16.3219 4.44768L10.4378 10.3317C10.0164 10.2164 9.57276 10.1548 9.11475 10.1548C6.35332 10.1548 4.11475 12.3934 4.11475 15.1548C4.11475 17.9162 6.35332 20.1548 9.11475 20.1548C11.8762 20.1548 14.1147 17.9162 14.1147 15.1548C14.1147 14.6968 14.0532 14.2531 13.9378 13.8317L15.8219 11.9477C16.0094 11.7601 16.1147 11.5058 16.1147 11.2406V10.6548C16.1147 10.1025 16.5625 9.65479 17.1147 9.65479H17.7005C17.9657 9.65479 18.2201 9.54943 18.4076 9.36189L19.8219 7.94768C20.0094 7.76014 20.1147 7.50579 20.1147 7.24057V5.15479C20.1147 4.6025 19.667 4.15479 19.1147 4.15479H17.029C16.7637 4.15479 16.5094 4.26014 16.3219 4.44768ZM9.11475 17.1548C10.2193 17.1548 11.1147 16.2594 11.1147 15.1548C11.1147 14.0502 10.2193 13.1548 9.11475 13.1548C8.01018 13.1548 7.11475 14.0502 7.11475 15.1548C7.11475 16.2594 8.01018 17.1548 9.11475 17.1548Z" fill="black"/>
</svg>
