<svg width="24" height="24" viewBox="0 0 24 24" fill="none" xmlns="http://www.w3.org/2000/svg">
<path d="M20.8528 17.5001C20.8528 18.3285 20.1812 19.0001 19.3528 19.0001L4.32031 19.0001C3.49189 19.0001 2.82031 18.3285 2.82031 17.5001L2.82031 17.0001L20.8528 17.0001V17.5001Z" fill="black"/>
<path fill-rule="evenodd" clip-rule="evenodd" d="M17.8528 15.525C18.6812 15.525 19.3528 14.8535 19.3528 14.025V7.50012C19.3528 6.6717 18.6812 6.00012 17.8528 6.00012H5.82593C4.9975 6.00012 4.32593 6.67169 4.32593 7.50012V14.025C4.32593 14.8534 4.9975 15.525 5.82593 15.525L17.8528 15.525ZM8.60278 11.7501C9.15507 11.7501 9.60278 11.3024 9.60278 10.7501C9.60278 10.1978 9.15507 9.75012 8.60278 9.75012C8.0505 9.75012 7.60278 10.1978 7.60278 10.7501C7.60278 11.3024 8.0505 11.7501 8.60278 11.7501ZM12.8528 10.7501C12.8528 11.3024 12.4051 11.7501 11.8528 11.7501C11.3005 11.7501 10.8528 11.3024 10.8528 10.7501C10.8528 10.1978 11.3005 9.75012 11.8528 9.75012C12.4051 9.75012 12.8528 10.1978 12.8528 10.7501ZM15.1028 11.7501C15.6551 11.7501 16.1028 11.3024 16.1028 10.7501C16.1028 10.1978 15.6551 9.75012 15.1028 9.75012C14.5505 9.75012 14.1028 10.1978 14.1028 10.7501C14.1028 11.3024 14.5505 11.7501 15.1028 11.7501Z" fill="black"/>
</svg>
