<svg width="24" height="24" viewBox="0 0 24 24" fill="none" xmlns="http://www.w3.org/2000/svg">
<path d="M8.26145 6.00006L5.97339 6.00006C5.14496 6.00006 4.47339 6.67163 4.47339 7.50006V14.025C4.47339 14.8534 5.14496 15.525 5.97339 15.525L18.0002 15.525C18.8287 15.525 19.5002 14.8534 19.5002 14.025V7.50006C19.5002 6.67164 18.8287 6.00006 18.0002 6.00006L15.739 6.00006C15.9078 6.44268 16.0002 6.92298 16.0002 7.42487C16.0002 8.26371 15.6372 9.00917 15.3406 9.50051C15.0353 10.0062 14.6799 10.4362 14.4319 10.7133C14.4849 10.899 14.5133 11.0951 14.5133 11.2979C14.5133 12.4715 13.5619 13.4229 12.3883 13.4229H11.5852C10.4116 13.4229 9.4602 12.4715 9.4602 11.2979C9.4602 11.0847 9.49158 10.8789 9.54997 10.6848C9.30028 10.4138 8.97014 10.0205 8.68205 9.55528C8.36741 9.0472 8.00024 8.29108 8.00024 7.42487C8.00024 6.92298 8.09268 6.44268 8.26145 6.00006Z" fill="black"/>
<path d="M21.0002 17.5001C21.0002 18.3285 20.3287 19.0001 19.5002 19.0001L4.46777 19.0001C3.63935 19.0001 2.96777 18.3285 2.96777 17.5001L2.96777 17.0001L21.0002 17.0001V17.5001Z" fill="black"/>
<path fill-rule="evenodd" clip-rule="evenodd" d="M14.5002 7.42486C14.5002 6.04415 13.381 4.92486 12.0002 4.92486C10.6195 4.92486 9.50024 6.04415 9.50024 7.42486C9.50024 8.33957 10.3056 9.30628 10.7407 9.76181C10.9105 9.93956 11.148 10.029 11.3938 10.029H12.6124C12.8697 10.029 13.1176 9.93068 13.2901 9.73975C13.7202 9.26365 14.5002 8.28208 14.5002 7.42486Z" fill="black"/>
<path d="M10.9602 11.2979C10.9602 10.9527 11.24 10.6729 11.5852 10.6729H12.3883C12.7335 10.6729 13.0133 10.9527 13.0133 11.2979C13.0133 11.643 12.7335 11.9229 12.3883 11.9229H11.5852C11.24 11.9229 10.9602 11.643 10.9602 11.2979Z" fill="black"/>
<path fill-rule="evenodd" clip-rule="evenodd" d="M12.0002 1.57928C12.3454 1.57928 12.6252 1.85911 12.6252 2.20428V3.16669C12.6252 3.51187 12.3454 3.79169 12.0002 3.79169C11.6551 3.79169 11.3752 3.51187 11.3752 3.16669V2.20428C11.3752 1.85911 11.6551 1.57928 12.0002 1.57928Z" fill="black"/>
<path fill-rule="evenodd" clip-rule="evenodd" d="M8.39622 2.67312C8.66885 2.46141 9.06149 2.51079 9.2732 2.78342L9.86348 3.54354C10.0752 3.81617 10.0258 4.20881 9.75318 4.42052C9.48055 4.63223 9.08791 4.58285 8.8762 4.31022L8.28592 3.55009C8.07421 3.27747 8.12359 2.88483 8.39622 2.67312Z" fill="black"/>
<path fill-rule="evenodd" clip-rule="evenodd" d="M15.6133 2.67312C15.3407 2.46141 14.948 2.51079 14.7363 2.78342L14.146 3.54354C13.9343 3.81617 13.9837 4.20881 14.2563 4.42052C14.529 4.63223 14.9216 4.58285 15.1333 4.31022L15.7236 3.55009C15.9353 3.27747 15.8859 2.88483 15.6133 2.67312Z" fill="black"/>
</svg>
