<svg width="24" height="24" viewBox="0 0 24 24" fill="none" xmlns="http://www.w3.org/2000/svg">
<path d="M16.8295 12.0553L16.8482 12.0561L16.867 12.0564C17.753 12.0715 18.6003 11.8699 19.3525 11.4968V14.025C19.3525 14.8535 18.681 15.525 17.8525 15.525L5.82568 15.525C4.99726 15.525 4.32568 14.8534 4.32568 14.025V7.50012C4.32568 6.6717 4.99726 6.00012 5.82568 6.00012L11.8212 6.00012C11.7948 6.18086 11.7775 6.36474 11.7696 6.55134C11.6467 9.47516 13.9057 11.9324 16.8295 12.0553Z" fill="black"/>
<path d="M20.8525 17.5001C20.8525 18.3285 20.181 19.0001 19.3525 19.0001L4.32007 19.0001C3.49164 19.0001 2.82007 18.3285 2.82007 17.5001L2.82007 17.0001L20.8525 17.0001V17.5001Z" fill="black"/>
<path fill-rule="evenodd" clip-rule="evenodd" d="M13.2683 6.61433C13.1802 8.71046 14.7964 10.4685 16.8925 10.5566C18.9397 10.5915 20.6956 9.02641 20.8348 6.93244C20.923 4.83631 19.3068 3.07826 17.2106 2.99013C15.1145 2.90201 13.3565 4.51821 13.2683 6.61433ZM15.584 6.4481C15.3399 6.20402 14.9442 6.20402 14.7001 6.4481C14.4561 6.69218 14.4561 7.08791 14.7001 7.33198L16.0295 8.6614C16.2736 8.90547 16.6693 8.90547 16.9134 8.6614L19.1136 6.46122C19.3577 6.21714 19.3577 5.82142 19.1136 5.57734C18.8695 5.33326 18.4738 5.33326 18.2297 5.57734L16.4715 7.33557L15.584 6.4481Z" fill="black"/>
</svg>
