<svg width="24" height="24" viewBox="0 0 24 24" fill="none" xmlns="http://www.w3.org/2000/svg">
<path d="M18.8778 8.20552L18.8935 8.20617L18.9091 8.20644C19.1098 8.20986 19.3074 8.19511 19.5 8.16361V14.0248C19.5 14.8533 18.8284 15.5248 18 15.5248L5.97314 15.5248C5.14471 15.5248 4.47314 14.8533 4.47314 14.0248V7.49994C4.47314 6.67151 5.14472 5.99994 5.97314 5.99994H13.1201C13.0993 6.15568 13.0886 6.3138 13.0886 6.47333V8.48146C12.5559 8.02817 11.873 7.74302 11.118 7.71128C9.32115 7.63574 7.80992 9.02502 7.73438 10.8219C7.65884 12.6188 9.04813 14.13 10.845 14.2055L10.8606 14.2062L10.8762 14.2065C11.9011 14.2239 12.8424 13.7681 13.466 13.025H13.4986C15.4019 13.025 16.7886 11.3916 16.7886 9.57677V7.32919C17.3366 7.84385 18.0656 8.17137 18.8778 8.20552Z" fill="black"/>
<path d="M14.386 5.99994C14.3549 6.15241 14.3386 6.31081 14.3386 6.47333V9.57677C14.3386 9.80239 14.262 10.0087 14.1353 10.1672C14.209 10.463 14.2421 10.7744 14.2286 11.0949L14.228 11.1102L14.227 11.1254C14.2148 11.3092 14.1879 11.4883 14.1476 11.6615C14.4113 11.5662 14.651 11.4144 14.8542 11.2195C15.2741 10.8168 15.5386 10.2301 15.5386 9.57677V6.47333C15.5386 6.29979 15.5839 6.13767 15.6625 5.99994H14.386Z" fill="black"/>
<path d="M19.3815 6.91459C19.2363 6.57231 18.9676 6.2951 18.6313 6.13886C18.4541 6.35887 18.2274 6.54061 17.9609 6.66057C18.2434 6.8351 18.5737 6.94163 18.9303 6.95662C19.0845 6.95925 19.2356 6.94469 19.3815 6.91459Z" fill="black"/>
<path d="M12.9797 11.0424C12.9623 11.3049 12.8968 11.5516 12.7925 11.775H12.4134C12.082 11.775 11.8134 11.4856 11.8134 11.1285C11.8134 10.7714 12.082 10.4819 12.4134 10.4819H12.9251C12.9685 10.6608 12.9879 10.8489 12.9797 11.0424Z" fill="black"/>
<path d="M11.0655 8.96018C11.4292 8.97547 11.7656 9.08596 12.0517 9.2667C11.1468 9.44472 10.5634 10.2791 10.5634 11.1285C10.5634 11.8306 10.9621 12.5225 11.6114 12.8419C11.3873 12.9203 11.1465 12.9609 10.8975 12.9566C9.79038 12.9101 8.93673 11.9815 8.98328 10.8744C9.02982 9.76727 9.95839 8.91363 11.0655 8.96018Z" fill="black"/>
<path d="M21 17.4999C21 18.3284 20.3284 18.9999 19.5 18.9999H4.46753C3.6391 18.9999 2.96753 18.3284 2.96753 17.4999L2.96753 16.9999L21 16.9999V17.4999Z" fill="black"/>
<path d="M18.9303 6.95662C18.0655 6.92026 17.3553 6.34568 17.1081 5.56819H16.3787C15.9148 5.56819 15.5386 5.97341 15.5386 6.47333V9.57677C15.5386 10.7908 14.6254 11.7751 13.4987 11.7751L12.7925 11.775C12.4574 12.4931 11.7222 12.9707 10.8975 12.9566C9.79038 12.9101 8.93673 11.9815 8.98328 10.8744C9.02982 9.76727 9.95839 8.91363 11.0655 8.96018C11.9791 8.99859 12.7201 9.63758 12.9251 10.4819L13.4987 10.482C13.9626 10.482 14.3386 10.0767 14.3386 9.57677V6.47333C14.3386 5.25925 15.252 4.27509 16.3787 4.27509H17.1334C17.422 3.47532 18.2016 2.92247 19.0983 2.96017C20.2055 3.00671 21.0591 3.93528 21.0126 5.04241C20.939 6.1484 20.0116 6.97503 18.9303 6.95662Z" fill="black"/>
</svg>
