<svg width="24" height="24" viewBox="0 0 24 24" fill="none" xmlns="http://www.w3.org/2000/svg">
<path d="M21.0002 17.5C21.0002 18.3284 20.3287 19 19.5002 19L4.46777 19C3.63935 19 2.96777 18.3284 2.96777 17.5L2.96777 17L21.0002 17V17.5Z" fill="black"/>
<path d="M9.70449 9.8786C9.83728 11.2524 11.4245 11.9999 12.5725 11.1948C12.8998 12.2572 13.8889 13.03 15.0597 13.03H17.1991L18.347 13.9074C18.6973 14.1752 19.0928 14.2925 19.4774 14.2868C19.3535 14.9904 18.7393 15.5249 18.0002 15.5249L5.97339 15.5249C5.14496 15.5249 4.47339 14.8533 4.47339 14.0249V7.49997C4.47339 6.67155 5.14496 5.99998 5.97339 5.99998H8.48498V7.67353C8.48498 8.60278 8.97196 9.41813 9.70449 9.8786Z" fill="black"/>
<path fill-rule="evenodd" clip-rule="evenodd" d="M17.0277 4.22256C17.0277 3.61312 16.5334 3.11927 15.9239 3.1193C14.9205 3.11935 13.9007 3.11829 12.885 3.11724C12.283 3.11661 11.6825 3.11599 11.0877 3.1156C10.4787 3.1152 9.985 3.6089 9.985 4.2179V7.67356C9.985 8.28256 10.4788 8.77624 11.0878 8.77624H11.1956V9.69215C11.1956 9.96741 11.5121 10.1223 11.7294 9.95331L13.2433 8.77624H15.9254C16.5344 8.77624 17.0277 8.28256 17.0277 7.67356V4.22256ZM14.8612 6.40546C15.1487 6.23947 15.1487 5.82449 14.8612 5.6585L13.1524 4.67192C12.8649 4.50593 12.5055 4.71342 12.5055 5.0454V7.01856C12.5055 7.35055 12.8649 7.55803 13.1524 7.39204L14.8612 6.40546Z" fill="black"/>
<path d="M13.9964 10.0627L13.9575 10.093V10.4273C13.9575 11.0363 14.4507 11.53 15.0597 11.53H17.7068L19.2579 12.7157C19.4756 12.8821 19.7897 12.7269 19.7897 12.4529V11.53H19.8974C20.5064 11.53 21.0002 11.0363 21.0002 10.4273V6.97164C21.0002 6.36264 20.5066 5.86894 19.8976 5.86934C19.3881 5.86967 18.8744 5.87018 18.3592 5.87071V8.07972C18.3592 9.17455 17.4721 10.0627 16.3765 10.0627H13.9964Z" fill="black"/>
</svg>
