<svg width="24" height="24" viewBox="0 0 24 24" fill="none" xmlns="http://www.w3.org/2000/svg">
<path d="M18.8781 8.20552L18.8937 8.20617L18.9093 8.20644C19.1101 8.20986 19.3076 8.19511 19.5002 8.16361V14.0248C19.5002 14.8533 18.8287 15.5248 18.0002 15.5248L5.97339 15.5248C5.14496 15.5248 4.47339 14.8533 4.47339 14.0248V7.49994C4.47339 6.67151 5.14496 5.99994 5.97339 5.99994H13.1204C13.0995 6.15568 13.0888 6.3138 13.0888 6.47332V8.48146C12.5562 8.02817 11.8732 7.74302 11.1183 7.71128C9.32139 7.63574 7.81017 9.02502 7.73463 10.8219C7.65908 12.6188 9.04837 14.13 10.8452 14.2055L10.8609 14.2062L10.8765 14.2065C11.9013 14.2239 12.8426 13.7681 13.4662 13.025H13.4988C15.4022 13.025 16.7888 11.3916 16.7888 9.57677V7.32919C17.3368 7.84385 18.0658 8.17137 18.8781 8.20552Z" fill="black"/>
<path d="M14.3862 5.99994C14.3552 6.15241 14.3388 6.31081 14.3388 6.47332V9.57677C14.3388 9.80239 14.2622 10.0087 14.1355 10.1672C14.2092 10.463 14.2424 10.7744 14.2289 11.0949L14.2282 11.1102L14.2272 11.1254C14.215 11.3092 14.1881 11.4883 14.1478 11.6615C14.4115 11.5662 14.6512 11.4144 14.8545 11.2195C15.2743 10.8168 15.5388 10.2301 15.5388 9.57677V6.47332C15.5388 6.29979 15.5841 6.13767 15.6627 5.99994H14.3862Z" fill="black"/>
<path d="M19.3817 6.91459C19.2365 6.57231 18.9678 6.2951 18.6315 6.13886C18.4543 6.35887 18.2277 6.54061 17.9612 6.66056C18.2436 6.8351 18.5739 6.94163 18.9306 6.95662C19.0848 6.95924 19.2358 6.94469 19.3817 6.91459Z" fill="black"/>
<path d="M12.98 11.0424C12.9625 11.3049 12.897 11.5516 12.7927 11.775H12.4136C12.0822 11.775 11.8136 11.4856 11.8136 11.1285C11.8136 10.7714 12.0822 10.4819 12.4136 10.4819H12.9253C12.9688 10.6608 12.9881 10.8489 12.98 11.0424Z" fill="black"/>
<path d="M11.0658 8.96018C11.4295 8.97547 11.7659 9.08596 12.0519 9.2667C11.1471 9.44472 10.5636 10.2791 10.5636 11.1285C10.5636 11.8306 10.9623 12.5225 11.6116 12.8419C11.3875 12.9203 11.1467 12.9609 10.8978 12.9566C9.79062 12.9101 8.93698 11.9815 8.98352 10.8744C9.03007 9.76727 9.95863 8.91363 11.0658 8.96018Z" fill="black"/>
<path d="M21.0002 17.4999C21.0002 18.3284 20.3287 18.9999 19.5002 18.9999H4.46777C3.63935 18.9999 2.96777 18.3284 2.96777 17.4999L2.96777 16.9999L21.0002 16.9999V17.4999Z" fill="black"/>
<path d="M18.9306 6.95662C18.0657 6.92026 17.3555 6.34568 17.1083 5.56819H16.3789C15.915 5.56819 15.5388 5.97341 15.5388 6.47332V9.57677C15.5388 10.7908 14.6256 11.7751 13.4989 11.7751L12.7927 11.775C12.4576 12.4931 11.7224 12.9707 10.8978 12.9566C9.79062 12.9101 8.93698 11.9815 8.98352 10.8744C9.03007 9.76727 9.95863 8.91363 11.0658 8.96018C11.9794 8.99859 12.7204 9.63758 12.9253 10.4819L13.4989 10.482C13.9629 10.482 14.3388 10.0767 14.3388 9.57677V6.47332C14.3388 5.25925 15.2523 4.27509 16.3789 4.27509H17.1336C17.4223 3.47532 18.2018 2.92247 19.0986 2.96017C20.2057 3.00671 21.0593 3.93528 21.0128 5.04241C20.9393 6.1484 20.0119 6.97503 18.9306 6.95662Z" fill="black"/>
</svg>
