<svg width="24" height="24" viewBox="0 0 24 24" fill="none" xmlns="http://www.w3.org/2000/svg">
<path d="M14.017 7.96587C13.9543 8.02883 13.9095 8.10736 13.8872 8.19339L13.4422 9.91036C13.3449 10.2858 13.6937 10.6243 14.0661 10.5158L15.7307 10.031C15.8117 10.0074 15.8855 9.96366 15.9451 9.90389L19.1121 6.72604L17.1791 4.79304L14.017 7.96587ZM20.5534 5.26891C20.9439 4.87838 20.9439 4.24527 20.5534 3.85475C20.3847 3.68606 20.2043 3.50566 20.0345 3.33584C19.644 2.94529 19.0108 2.94536 18.6203 3.33593L18.0208 3.93551L19.9538 5.86851L20.5534 5.26891Z" fill="black"/>
<path d="M13.8592 5.99936L5.82568 5.99936C4.99726 5.99936 4.32568 6.67093 4.32568 7.49936L4.32568 14.0243C4.32568 14.8527 4.99726 15.5243 5.82568 15.5243L17.8525 15.5243C18.681 15.5243 19.3525 14.8527 19.3525 14.0243V8.60971L17.0076 10.9627C16.7693 11.2018 16.4743 11.3767 16.1502 11.4711L14.4856 11.956C12.996 12.3898 11.601 11.0359 11.9903 9.53403L12.4352 7.81707C12.5244 7.47294 12.7037 7.1588 12.9546 6.907L13.8592 5.99936Z" fill="black"/>
<path d="M15.9769 5.99936L14.017 7.96587C13.9543 8.02883 13.9095 8.10736 13.8872 8.19339L13.4422 9.91036C13.3449 10.2858 13.6937 10.6243 14.0661 10.5158L15.7307 10.031C15.8117 10.0074 15.8855 9.96366 15.9451 9.90389L19.1121 6.72604L19.1042 6.71811L18.5653 6.17917C18.3533 6.06447 18.1105 5.99936 17.8525 5.99936H15.9769Z" fill="black"/>
<path d="M19.3525 18.9993C20.181 18.9993 20.8525 18.3277 20.8525 17.4993V16.9993L2.82007 16.9993V17.4993C2.82007 18.3277 3.49164 18.9993 4.32007 18.9993L19.3525 18.9993Z" fill="black"/>
</svg>
