<svg width="24" height="24" viewBox="0 0 24 24" fill="none" xmlns="http://www.w3.org/2000/svg">
<path d="M9.5 6.00006L5.97314 6.00006C5.14471 6.00006 4.47314 6.67163 4.47314 7.50006L4.47314 14.025C4.47314 14.8534 5.14471 15.525 5.97314 15.525H9.5V6.00006Z" fill="black"/>
<path d="M9.5 17H2.96753V17.5C2.96753 18.3284 3.6391 19 4.46753 19L9.5 19V17Z" fill="black"/>
<path fill-rule="evenodd" clip-rule="evenodd" d="M18.9954 3.01295C20.1017 3.01337 20.9999 3.90948 20.9999 5.01585V18.9999C20.9999 20.1045 20.1045 20.9999 18.9999 20.9999H13.0305C11.9259 20.9999 11.0305 20.1045 11.0305 18.9999V5.00005C11.0305 3.89545 11.9259 3.00003 13.0305 3.00196C13.7286 3.00318 14.4315 3.00481 15.1359 3.00645C16.4246 3.00945 17.7181 3.01247 18.9954 3.01295ZM13.7059 4.97713C13.7079 4.63196 13.9893 4.35376 14.3345 4.35575L17.6731 4.37503C18.0182 4.37703 18.2964 4.65846 18.2945 5.00363C18.2925 5.3488 18.011 5.627 17.6659 5.62501L14.3272 5.60573C13.9821 5.60374 13.7039 5.3223 13.7059 4.97713ZM16.0234 19.75C16.5067 19.75 16.8984 19.3582 16.8984 18.875C16.8984 18.3917 16.5067 18 16.0234 18C15.5402 18 15.1484 18.3917 15.1484 18.875C15.1484 19.3582 15.5402 19.75 16.0234 19.75Z" fill="black"/>
</svg>
