<svg width="24" height="24" viewBox="0 0 24 24" fill="none" xmlns="http://www.w3.org/2000/svg">
<path d="M8.2612 6.00006L5.97314 6.00006C5.14472 6.00006 4.47314 6.67163 4.47314 7.50006V14.025C4.47314 14.8534 5.14472 15.525 5.97314 15.525L18 15.525C18.8284 15.525 19.5 14.8534 19.5 14.025V7.50006C19.5 6.67164 18.8284 6.00006 18 6.00006L15.7388 6.00006C15.9076 6.44268 16 6.92298 16 7.42487C16 8.26371 15.637 9.00917 15.3403 9.50051C15.035 10.0062 14.6797 10.4362 14.4316 10.7133C14.4846 10.899 14.513 11.0951 14.513 11.2979C14.513 12.4715 13.5616 13.4229 12.388 13.4229H11.585C10.4114 13.4229 9.45996 12.4715 9.45996 11.2979C9.45996 11.0847 9.49134 10.8789 9.54973 10.6848C9.30004 10.4138 8.96989 10.0205 8.68181 9.55528C8.36717 9.0472 8 8.29108 8 7.42487C8 6.92298 8.09243 6.44268 8.2612 6.00006Z" fill="black"/>
<path d="M21 17.5001C21 18.3285 20.3284 19.0001 19.5 19.0001L4.46753 19.0001C3.6391 19.0001 2.96753 18.3285 2.96753 17.5001L2.96753 17.0001L21 17.0001V17.5001Z" fill="black"/>
<path fill-rule="evenodd" clip-rule="evenodd" d="M14.5 7.42486C14.5 6.04415 13.3807 4.92486 12 4.92486C10.6193 4.92486 9.5 6.04415 9.5 7.42486C9.5 8.33957 10.3054 9.30628 10.7405 9.76181C10.9103 9.93956 11.1477 10.029 11.3935 10.029H12.6121C12.8694 10.029 13.1173 9.93068 13.2898 9.73975C13.72 9.26365 14.5 8.28208 14.5 7.42486Z" fill="black"/>
<path d="M10.96 11.2979C10.96 10.9527 11.2398 10.6729 11.585 10.6729H12.388C12.7332 10.6729 13.013 10.9527 13.013 11.2979C13.013 11.643 12.7332 11.9229 12.388 11.9229H11.585C11.2398 11.9229 10.96 11.643 10.96 11.2979Z" fill="black"/>
<path fill-rule="evenodd" clip-rule="evenodd" d="M12 1.57928C12.3452 1.57928 12.625 1.85911 12.625 2.20428V3.16669C12.625 3.51187 12.3452 3.79169 12 3.79169C11.6548 3.79169 11.375 3.51187 11.375 3.16669V2.20428C11.375 1.85911 11.6548 1.57928 12 1.57928Z" fill="black"/>
<path fill-rule="evenodd" clip-rule="evenodd" d="M8.39598 2.67312C8.66861 2.46141 9.06124 2.51079 9.27295 2.78342L9.86323 3.54354C10.0749 3.81617 10.0256 4.20881 9.75293 4.42052C9.48031 4.63223 9.08767 4.58285 8.87596 4.31022L8.28568 3.55009C8.07397 3.27747 8.12335 2.88483 8.39598 2.67312Z" fill="black"/>
<path fill-rule="evenodd" clip-rule="evenodd" d="M15.6131 2.67312C15.3404 2.46141 14.9478 2.51079 14.7361 2.78342L14.1458 3.54354C13.9341 3.81617 13.9835 4.20881 14.2561 4.42052C14.5287 4.63223 14.9214 4.58285 15.1331 4.31022L15.7233 3.55009C15.9351 3.27747 15.8857 2.88483 15.6131 2.67312Z" fill="black"/>
</svg>
