<svg width="24" height="24" viewBox="0 0 24 24" fill="none" xmlns="http://www.w3.org/2000/svg">
<path fill-rule="evenodd" clip-rule="evenodd" d="M17.06 5.10696C17.06 4.49752 16.5656 4.00367 15.9562 4.0037C14.9528 4.00375 13.9329 4.00269 12.9173 4.00164L12.9122 4.00163C12.3118 4.00101 11.713 4.00039 11.1199 4C10.5109 3.9996 10.0172 4.4933 10.0172 5.1023V8.55796C10.0172 9.16695 10.511 9.66064 11.12 9.66064H11.2278V10.5766C11.2278 10.8518 11.5444 11.0067 11.7617 10.8377L13.2755 9.66064H15.9576C16.5666 9.66064 17.06 9.16695 17.06 8.55796V5.10696ZM11.5912 7.55739C11.9544 7.55739 12.2488 7.26297 12.2488 6.89979C12.2488 6.53661 11.9544 6.24219 11.5912 6.24219C11.228 6.24219 10.9336 6.53661 10.9336 6.89979C10.9336 7.26297 11.228 7.55739 11.5912 7.55739ZM14.3484 6.89979C14.3484 7.26297 14.054 7.55739 13.6908 7.55739C13.3276 7.55739 13.0332 7.26297 13.0332 6.89979C13.0332 6.53661 13.3276 6.24219 13.6908 6.24219C14.054 6.24219 14.3484 6.53661 14.3484 6.89979ZM15.7902 7.55739C16.1533 7.55739 16.4478 7.26297 16.4478 6.89979C16.4478 6.53661 16.1533 6.24219 15.7902 6.24219C15.427 6.24219 15.1326 6.53661 15.1326 6.89979C15.1326 7.26297 15.427 7.55739 15.7902 7.55739Z" fill="black"/>
<path d="M12.6047 12.0792C11.4568 12.8843 9.86951 12.1368 9.73672 10.763C9.00419 10.3025 8.51721 9.48718 8.51721 8.55793V6.88437H6.00561C5.17719 6.88437 4.50561 7.55595 4.50561 8.38437V14.9093C4.50561 15.7377 5.17719 16.4093 6.00561 16.4093L18.0325 16.4093C18.7715 16.4093 19.3858 15.8748 19.5097 15.1712C19.125 15.1769 18.7296 15.0596 18.3792 14.7918L17.2314 13.9144H15.0919C13.9211 13.9144 12.9321 13.1416 12.6047 12.0792Z" fill="black"/>
<path d="M19.5325 19.8844C20.3609 19.8844 21.0325 19.2128 21.0325 18.3844V17.8844L3 17.8844V18.3844C3 19.2128 3.67157 19.8844 4.5 19.8844L19.5325 19.8844Z" fill="black"/>
<path d="M13.9897 10.9774L14.0286 10.9471H16.4088C17.5043 10.9471 18.3914 10.059 18.3914 8.96412V6.75511C18.9067 6.75458 19.4203 6.75407 19.9298 6.75374C20.5388 6.75334 21.0325 7.24704 21.0325 7.85604V11.3117C21.0325 11.9207 20.5387 12.4144 19.9297 12.4144H19.8219V13.3373C19.8219 13.6113 19.5079 13.7665 19.2902 13.6001L17.739 12.4144H15.0919C14.4829 12.4144 13.9897 11.9207 13.9897 11.3117V10.9774Z" fill="black"/>
</svg>
