<svg width="24" height="24" viewBox="0 0 24 24" fill="none" xmlns="http://www.w3.org/2000/svg">
<path fill-rule="evenodd" clip-rule="evenodd" d="M17.8525 15.525C18.681 15.525 19.3525 14.8535 19.3525 14.025V7.50012C19.3525 6.6717 18.681 6.00012 17.8525 6.00012H5.82568C4.99726 6.00012 4.32568 6.67169 4.32568 7.50012L4.32568 14.025C4.32568 14.8534 4.99726 15.525 5.82568 15.525L17.8525 15.525ZM7.51184 8.44739C6.95956 8.44739 6.51184 8.8951 6.51184 9.44739V12.0778C6.51184 12.6301 6.95956 13.0778 7.51184 13.0778H9.02697C9.57925 13.0778 10.027 12.6301 10.027 12.0778V9.44739C10.027 8.8951 9.57925 8.44739 9.02697 8.44739H7.51184ZM11.7238 9.24719C11.7238 8.83298 12.0595 8.49719 12.4738 8.49719H16.8252C17.2394 8.49719 17.5752 8.83298 17.5752 9.24719C17.5752 9.66141 17.2394 9.99719 16.8252 9.99719H12.4738C12.0595 9.99719 11.7238 9.66141 11.7238 9.24719ZM12.4738 11.4943C12.0595 11.4943 11.7238 11.83 11.7238 12.2443C11.7238 12.6585 12.0595 12.9943 12.4738 12.9943H16.8252C17.2394 12.9943 17.5752 12.6585 17.5752 12.2443C17.5752 11.83 17.2394 11.4943 16.8252 11.4943H12.4738Z" fill="black"/>
<path d="M19.3525 19.0001C20.181 19.0001 20.8525 18.3285 20.8525 17.5001V17.0001L2.82007 17.0001V17.5001C2.82007 18.3285 3.49164 19.0001 4.32007 19.0001L19.3525 19.0001Z" fill="black"/>
</svg>
