<svg width="24" height="24" viewBox="0 0 24 24" fill="none" xmlns="http://www.w3.org/2000/svg">
<path d="M20.8525 17.5001C20.8525 18.3285 20.181 19.0001 19.3525 19.0001L4.32007 19.0001C3.49164 19.0001 2.82007 18.3285 2.82007 17.5001L2.82007 17.0001L20.8525 17.0001V17.5001Z" fill="black"/>
<path fill-rule="evenodd" clip-rule="evenodd" d="M17.8525 15.525C18.681 15.525 19.3525 14.8535 19.3525 14.025V7.50012C19.3525 6.6717 18.681 6.00012 17.8525 6.00012H5.82568C4.99726 6.00012 4.32568 6.67169 4.32568 7.50012V14.025C4.32568 14.8534 4.99726 15.525 5.82568 15.525L17.8525 15.525ZM8.60254 11.7501C9.15482 11.7501 9.60254 11.3024 9.60254 10.7501C9.60254 10.1978 9.15482 9.75012 8.60254 9.75012C8.05025 9.75012 7.60254 10.1978 7.60254 10.7501C7.60254 11.3024 8.05025 11.7501 8.60254 11.7501ZM12.8525 10.7501C12.8525 11.3024 12.4048 11.7501 11.8525 11.7501C11.3003 11.7501 10.8525 11.3024 10.8525 10.7501C10.8525 10.1978 11.3003 9.75012 11.8525 9.75012C12.4048 9.75012 12.8525 10.1978 12.8525 10.7501ZM15.1025 11.7501C15.6548 11.7501 16.1025 11.3024 16.1025 10.7501C16.1025 10.1978 15.6548 9.75012 15.1025 9.75012C14.5503 9.75012 14.1025 10.1978 14.1025 10.7501C14.1025 11.3024 14.5503 11.7501 15.1025 11.7501Z" fill="black"/>
</svg>
