<svg width="24" height="24" viewBox="0 0 24 24" fill="none" xmlns="http://www.w3.org/2000/svg">
<path fill-rule="evenodd" clip-rule="evenodd" d="M17.8528 15.525C18.6812 15.525 19.3528 14.8535 19.3528 14.025V7.50012C19.3528 6.6717 18.6812 6.00012 17.8528 6.00012H5.82593C4.9975 6.00012 4.32593 6.67169 4.32593 7.50012L4.32593 14.025C4.32593 14.8534 4.9975 15.525 5.82593 15.525L17.8528 15.525ZM7.51208 8.44739C6.9598 8.44739 6.51208 8.8951 6.51208 9.44739V12.0778C6.51208 12.6301 6.9598 13.0778 7.51208 13.0778H9.02721C9.5795 13.0778 10.0272 12.6301 10.0272 12.0778V9.44739C10.0272 8.8951 9.5795 8.44739 9.02721 8.44739H7.51208ZM11.724 9.24719C11.724 8.83298 12.0598 8.49719 12.474 8.49719H16.8254C17.2396 8.49719 17.5754 8.83298 17.5754 9.24719C17.5754 9.66141 17.2396 9.99719 16.8254 9.99719H12.474C12.0598 9.99719 11.724 9.66141 11.724 9.24719ZM12.474 11.4943C12.0598 11.4943 11.724 11.83 11.724 12.2443C11.724 12.6585 12.0598 12.9943 12.474 12.9943H16.8254C17.2396 12.9943 17.5754 12.6585 17.5754 12.2443C17.5754 11.83 17.2396 11.4943 16.8254 11.4943H12.474Z" fill="black"/>
<path d="M19.3528 19.0001C20.1812 19.0001 20.8528 18.3285 20.8528 17.5001V17.0001L2.82031 17.0001V17.5001C2.82031 18.3285 3.49189 19.0001 4.32031 19.0001L19.3528 19.0001Z" fill="black"/>
</svg>
