<svg width="24" height="24" viewBox="0 0 24 24" fill="none" xmlns="http://www.w3.org/2000/svg">
<path d="M11.6698 6.49976H6.6474C5.54283 6.49976 4.6474 7.39519 4.6474 8.49976V14.4998C4.6474 15.6043 5.54283 16.4998 6.6474 16.4998H17.6474C18.752 16.4998 19.6474 15.6043 19.6474 14.4998V11.9C18.8973 12.2835 18.0476 12.4998 17.1474 12.4998C14.1098 12.4998 11.6474 10.0373 11.6474 6.99976C11.6474 6.83121 11.655 6.66444 11.6698 6.49976Z" fill="black"/>
<path d="M3.1474 17.9998H21.1474C21.1474 19.1043 20.252 19.9998 19.1474 19.9998H5.1474C4.04283 19.9998 3.1474 19.1043 3.1474 17.9998Z" fill="black"/>
<path d="M16.3966 6.30086C16.3965 6.30077 16.3966 6.30086 16.3966 6.30086V6.30086Z" fill="black"/>
<path fill-rule="evenodd" clip-rule="evenodd" d="M17.1474 10.9998C19.3565 10.9998 21.1474 9.20889 21.1474 6.99976C21.1474 4.79062 19.3565 2.99976 17.1474 2.99976C14.9383 2.99976 13.1474 4.79062 13.1474 6.99976C13.1474 9.20889 14.9383 10.9998 17.1474 10.9998ZM17.6475 4.74976C17.6475 4.47361 17.4237 4.24976 17.1475 4.24976C16.8714 4.24976 16.6475 4.47361 16.6475 4.74976V4.96009C16.3799 5.00809 16.1026 5.10632 15.8731 5.28359C15.5904 5.50199 15.3975 5.83038 15.3975 6.2494C15.3975 6.49245 15.4601 6.72392 15.6095 6.91704C15.7552 7.10529 15.9475 7.21046 16.123 7.27188C16.4102 7.37236 16.766 7.38852 17.0335 7.40067C17.0644 7.40207 17.0942 7.40342 17.1225 7.40484C17.4539 7.42147 17.6615 7.44639 17.7892 7.50815C17.8378 7.53166 17.8545 7.55183 17.8635 7.56647C17.8735 7.58286 17.8975 7.63204 17.8975 7.74972C17.8975 7.82289 17.8806 7.83985 17.8414 7.86508C17.7705 7.91081 17.6283 7.95631 17.3995 7.96972C16.9486 7.99613 16.3888 7.88642 16.0556 7.77538C15.7937 7.68806 15.5105 7.82964 15.4232 8.09161C15.3359 8.35358 15.4775 8.63674 15.7394 8.72406C15.9757 8.80282 16.2998 8.88217 16.6475 8.92962V9.24976C16.6475 9.5259 16.8714 9.74976 17.1475 9.74976C17.4237 9.74976 17.6475 9.5259 17.6475 9.24976V8.95077C17.8978 8.91932 18.16 8.84951 18.3833 8.70555C18.6957 8.50412 18.8975 8.17707 18.8975 7.74972C18.8975 7.49232 18.8435 7.25235 18.7168 7.04502C18.589 6.83593 18.4104 6.6978 18.2246 6.60794C17.8836 6.44296 17.4662 6.42083 17.1726 6.4061L17.1198 6.40346C16.7987 6.38747 16.5941 6.37727 16.4533 6.328C16.4254 6.31823 16.41 6.30997 16.4026 6.30521C16.4003 6.29612 16.3975 6.2787 16.3975 6.2494C16.3975 6.16859 16.4234 6.12212 16.4844 6.07498C16.5626 6.01464 16.7017 5.95774 16.897 5.93333C17.0875 5.90953 17.2937 5.92171 17.4714 5.96318C17.6598 6.00712 17.7613 6.07056 17.794 6.10322C17.9893 6.29846 18.3059 6.29843 18.5011 6.10315C18.6964 5.90787 18.6963 5.59129 18.5011 5.39604C18.2837 5.17876 17.979 5.05473 17.6986 4.98933C17.6817 4.98538 17.6647 4.9816 17.6475 4.97798V4.74976Z" fill="black"/>
</svg>
