<svg width="24" height="24" viewBox="0 0 24 24" fill="none" xmlns="http://www.w3.org/2000/svg">
<path d="M11.6699 6.5H6.64746C5.54289 6.5 4.64746 7.39543 4.64746 8.5V14.5C4.64746 15.6046 5.54289 16.5 6.64746 16.5H17.6475C18.752 16.5 19.6475 15.6046 19.6475 14.5V11.9003C18.8974 12.2837 18.0477 12.5 17.1475 12.5C14.1099 12.5 11.6475 10.0376 11.6475 7C11.6475 6.83146 11.655 6.66468 11.6699 6.5Z" fill="black"/>
<path d="M3.14746 18H21.1475C21.1475 19.1046 20.252 20 19.1475 20H5.14746C4.04289 20 3.14746 19.1046 3.14746 18Z" fill="black"/>
<path d="M16.3967 6.3011C16.3966 6.30101 16.3967 6.30111 16.3967 6.3011V6.3011Z" fill="black"/>
<path fill-rule="evenodd" clip-rule="evenodd" d="M17.1475 11C19.3566 11 21.1475 9.20914 21.1475 7C21.1475 4.79086 19.3566 3 17.1475 3C14.9383 3 13.1475 4.79086 13.1475 7C13.1475 9.20914 14.9383 11 17.1475 11ZM17.6476 4.75C17.6476 4.47386 17.4237 4.25 17.1476 4.25C16.8715 4.25 16.6476 4.47386 16.6476 4.75V4.96034C16.3799 5.00833 16.1027 5.10657 15.8732 5.28384C15.5905 5.50223 15.3976 5.83062 15.3976 6.24964C15.3976 6.49269 15.4601 6.72416 15.6096 6.91729C15.7553 7.10554 15.9475 7.2107 16.1231 7.27213C16.4102 7.3726 16.7661 7.38876 17.0336 7.40091C17.0645 7.40231 17.0942 7.40367 17.1225 7.40509C17.4539 7.42171 17.6616 7.44664 17.7892 7.5084C17.8378 7.53191 17.8546 7.55208 17.8635 7.56671C17.8736 7.58311 17.8976 7.63229 17.8976 7.74997C17.8976 7.82313 17.8806 7.84009 17.8415 7.86533C17.7706 7.91106 17.6284 7.95656 17.3996 7.96996C16.9487 7.99637 16.3888 7.88667 16.0557 7.77562C15.7937 7.6883 15.5106 7.82988 15.4233 8.09185C15.3359 8.35382 15.4775 8.63698 15.7395 8.72431C15.9758 8.80306 16.2998 8.88242 16.6476 8.92987V9.25C16.6476 9.52614 16.8715 9.75 17.1476 9.75C17.4237 9.75 17.6476 9.52614 17.6476 9.25V8.95101C17.8978 8.91957 18.1601 8.84975 18.3834 8.70579C18.6958 8.50437 18.8976 8.17732 18.8976 7.74997C18.8976 7.49257 18.8435 7.25259 18.7168 7.04526C18.589 6.83617 18.4105 6.69805 18.2247 6.60818C17.8836 6.4432 17.4663 6.42108 17.1727 6.40634L17.1199 6.40371C16.7988 6.38771 16.5942 6.37752 16.4534 6.32824C16.4255 6.31848 16.4101 6.31021 16.4026 6.30545C16.4004 6.29636 16.3976 6.27895 16.3976 6.24964C16.3976 6.16884 16.4235 6.12236 16.4845 6.07523C16.5626 6.01488 16.7017 5.95798 16.8971 5.93357C17.0876 5.90977 17.2938 5.92195 17.4715 5.96342C17.6599 6.00737 17.7614 6.0708 17.7941 6.10347C17.9894 6.29871 18.3059 6.29868 18.5012 6.10339C18.6964 5.90811 18.6964 5.59153 18.5011 5.39629C18.2838 5.179 17.9791 5.05498 17.6987 4.98957C17.6818 4.98562 17.6647 4.98184 17.6476 4.97822V4.75Z" fill="black"/>
</svg>
