<svg width="24" height="24" viewBox="0 0 24 24" fill="none" xmlns="http://www.w3.org/2000/svg">
<path d="M21 17.5C21 18.3284 20.3284 19 19.5 19L4.46753 19C3.6391 19 2.96753 18.3284 2.96753 17.5L2.96753 17L21 17V17.5Z" fill="black"/>
<path d="M9.70425 9.87862C9.83704 11.2524 11.4243 12 12.5723 11.1949C12.8996 12.2572 13.8886 13.03 15.0595 13.03H17.1989L18.3467 13.9074C18.6971 14.1752 19.0925 14.2925 19.4772 14.2869C19.3533 14.9904 18.7391 15.5249 18 15.5249L5.97314 15.5249C5.14472 15.5249 4.47314 14.8533 4.47314 14.0249V7.5C4.47314 6.67157 5.14472 6 5.97314 6H8.48474V7.67356C8.48474 8.6028 8.97172 9.41816 9.70425 9.87862Z" fill="black"/>
<path fill-rule="evenodd" clip-rule="evenodd" d="M17.0275 4.22258C17.0275 3.61315 16.5331 3.1193 15.9237 3.11933C14.9203 3.11938 13.9004 3.11832 12.8848 3.11726C12.2828 3.11664 11.6822 3.11602 11.0874 3.11563C10.4784 3.11523 9.98475 3.60893 9.98475 4.21793V7.67359C9.98475 8.28258 10.4786 8.77627 11.0876 8.77627H11.1953V9.69218C11.1953 9.96743 11.5119 10.1223 11.7292 9.95333L13.243 8.77627H15.9252C16.5342 8.77627 17.0275 8.28258 17.0275 7.67359V4.22258ZM14.861 6.40549C15.1485 6.2395 15.1485 5.82452 14.861 5.65853L13.1522 4.67195C12.8647 4.50596 12.5053 4.71345 12.5053 5.04543V7.01859C12.5053 7.35057 12.8647 7.55806 13.1522 7.39207L14.861 6.40549Z" fill="black"/>
<path d="M13.9961 10.0628L13.9573 10.093V10.4273C13.9573 11.0363 14.4505 11.53 15.0595 11.53H17.7066L19.2577 12.7157C19.4754 12.8821 19.7894 12.7269 19.7894 12.4529V11.53H19.8972C20.5062 11.53 21 11.0363 21 10.4273V6.97167C21 6.36267 20.5063 5.86897 19.8973 5.86937C19.3879 5.8697 18.8742 5.87021 18.359 5.87074V8.07974C18.359 9.17458 17.4718 10.0628 16.3763 10.0628H13.9961Z" fill="black"/>
</svg>
