<svg width="24" height="24" viewBox="0 0 24 24" fill="none" xmlns="http://www.w3.org/2000/svg">
<path d="M9.20508 6.04492L5.71069 6.04492C4.88226 6.04492 4.21069 6.71649 4.21069 7.54492L4.21069 14.0698C4.21069 14.8982 4.88226 15.5698 5.71069 15.5698H9.20508V6.04492Z" fill="black"/>
<path d="M9.20508 17.0449L2.70508 17.0449V17.5449C2.70508 18.3733 3.37665 19.0449 4.20508 19.0449H9.20508V17.0449Z" fill="black"/>
<path fill-rule="evenodd" clip-rule="evenodd" d="M12.2051 4.04492C11.3767 4.04492 10.7051 4.71649 10.7051 5.54492V6.89492C10.7051 7.72335 11.3767 8.39492 12.2051 8.39492H19.2051C20.0335 8.39492 20.7051 7.72335 20.7051 6.89492V5.54492C20.7051 4.71649 20.0335 4.04492 19.2051 4.04492H12.2051ZM12.5801 7.09497C13.0633 7.09497 13.4551 6.70322 13.4551 6.21997C13.4551 5.73672 13.0633 5.34497 12.5801 5.34497C12.0968 5.34497 11.7051 5.73672 11.7051 6.21997C11.7051 6.70322 12.0968 7.09497 12.5801 7.09497Z" fill="black"/>
<path fill-rule="evenodd" clip-rule="evenodd" d="M12.2051 9.91992C11.3767 9.91992 10.7051 10.5915 10.7051 11.4199V12.7699C10.7051 13.5983 11.3767 14.2699 12.2051 14.2699H19.2051C20.0335 14.2699 20.7051 13.5983 20.7051 12.7699V11.4199C20.7051 10.5915 20.0335 9.91992 19.2051 9.91992H12.2051ZM12.5801 13.0074C13.0633 13.0074 13.4551 12.6157 13.4551 12.1324C13.4551 11.6492 13.0633 11.2574 12.5801 11.2574C12.0968 11.2574 11.7051 11.6492 11.7051 12.1324C11.7051 12.6157 12.0968 13.0074 12.5801 13.0074Z" fill="black"/>
<path fill-rule="evenodd" clip-rule="evenodd" d="M12.2051 15.6949C11.3767 15.6949 10.7051 16.3665 10.7051 17.1949V18.5449C10.7051 19.3734 11.3767 20.0449 12.2051 20.0449H19.2051C20.0335 20.0449 20.7051 19.3734 20.7051 18.5449V17.1949C20.7051 16.3665 20.0335 15.6949 19.2051 15.6949H12.2051ZM12.5801 18.7449C13.0633 18.7449 13.4551 18.3531 13.4551 17.8699C13.4551 17.3866 13.0633 16.9949 12.5801 16.9949C12.0968 16.9949 11.7051 17.3866 11.7051 17.8699C11.7051 18.3531 12.0968 18.7449 12.5801 18.7449Z" fill="black"/>
</svg>
