<svg width="24" height="24" viewBox="0 0 24 24" fill="none" xmlns="http://www.w3.org/2000/svg">
<path d="M16.9576 12.1021L16.9763 12.1029L16.995 12.1032C17.8886 12.1184 18.743 11.9132 19.5 11.5339V14.0249C19.5 14.8534 18.8284 15.5249 18 15.5249H15.864C16.0091 15.0776 16.0091 14.7433 16.0091 14.7433C16.0091 14.3383 15.8482 13.9498 15.5618 13.6634C15.2754 13.377 14.8869 13.2161 14.4818 13.2161H9.51823C9.11317 13.2161 8.72471 13.377 8.43829 13.6634C8.15187 13.9498 7.99096 14.3383 7.99096 14.7433C7.99096 14.7433 7.99096 15.0776 8.13609 15.5249H5.97314C5.14472 15.5249 4.47314 14.8534 4.47314 14.0249V7.50003C4.47314 6.6716 5.14472 6.00003 5.97314 6.00003L11.9563 6.00003C11.926 6.19581 11.9062 6.39537 11.8977 6.59812C11.8882 6.82399 11.8929 7.04707 11.9111 7.26651C11.2852 7.28895 10.6895 7.54741 10.2451 7.99182C9.7797 8.45725 9.51823 9.08851 9.51823 9.74672C9.51823 10.4049 9.7797 11.0362 10.2451 11.5016C10.7106 11.9671 11.3418 12.2285 12 12.2285C12.6582 12.2285 13.2895 11.9671 13.7549 11.5016C13.8766 11.38 13.9843 11.247 14.0771 11.1051C14.889 11.693 15.8779 12.0567 16.9576 12.1021Z" fill="black"/>
<path d="M21 17.5C21 18.3285 20.3284 19 19.5 19L4.46753 19C3.6391 19 2.96753 18.3285 2.96753 17.5L2.96753 17L21 17V17.5Z" fill="black"/>
<path fill-rule="evenodd" clip-rule="evenodd" d="M13.3964 6.66109C13.3082 8.75721 14.9244 10.5153 17.0206 10.6034C19.0677 10.6382 20.8236 9.07316 20.9629 6.97919C21.051 4.88306 19.4348 3.12501 17.3387 3.03689C15.2425 2.94876 13.4845 4.56496 13.3964 6.66109ZM17.6351 8.94503V8.58503C18.1951 8.53503 18.9001 8.31003 18.9001 7.34503C18.9001 6.24003 17.7651 6.22003 17.1551 6.21003C17.1431 6.20977 17.1304 6.20951 17.1171 6.20923C16.8761 6.20427 16.4412 6.19533 16.3701 6.11003C16.3651 6.10503 16.3601 6.08003 16.3601 6.03503C16.3601 5.94503 16.3601 5.67003 17.1851 5.67003C17.5711 5.67003 17.8234 5.79894 17.8441 5.80949L17.8451 5.81003C18.0601 5.93003 18.3301 5.86003 18.4551 5.64503C18.5851 5.43003 18.5101 5.15503 18.2951 5.03003C18.2601 5.01003 18.0201 4.88003 17.6351 4.81003V4.45003C17.6351 4.20003 17.4351 4.00003 17.1851 4.00003C16.9351 4.00003 16.7351 4.20003 16.7351 4.45003V4.79503C15.5951 4.94503 15.4601 5.69003 15.4601 6.03003C15.4601 7.07837 16.5068 7.09498 17.1371 7.10498L17.1401 7.10503C17.9601 7.11503 18.0001 7.19503 18.0001 7.34003C18.0001 7.59003 17.9651 7.70003 17.1851 7.70003C16.5732 7.70003 16.1977 7.52812 16.1343 7.49907C16.1293 7.49679 16.1262 7.49539 16.1251 7.49503C15.9051 7.37503 15.6351 7.45503 15.5151 7.67003C15.3951 7.88503 15.4751 8.16003 15.6901 8.28003C15.7351 8.30503 16.1051 8.50003 16.7351 8.57003V8.94503C16.7351 9.19503 16.9351 9.39503 17.1851 9.39503C17.4351 9.39503 17.6351 9.19503 17.6351 8.94503Z" fill="black"/>
</svg>
