<svg width="24" height="24" viewBox="0 0 24 24" fill="none" xmlns="http://www.w3.org/2000/svg">
<path d="M16.9576 12.1021L16.9763 12.1029L16.995 12.1032C17.8886 12.1184 18.743 11.9132 19.5 11.5339V14.0249C19.5 14.8533 18.8284 15.5249 18 15.5249H15.864C16.0091 15.0775 16.0091 14.7433 16.0091 14.7433C16.0091 14.3382 15.8482 13.9498 15.5618 13.6634C15.2754 13.3769 14.8869 13.216 14.4818 13.216H9.51823C9.11317 13.216 8.72471 13.3769 8.43829 13.6634C8.15187 13.9498 7.99096 14.3382 7.99096 14.7433C7.99096 14.7433 7.99096 15.0775 8.13609 15.5249H5.97314C5.14472 15.5249 4.47314 14.8533 4.47314 14.0249V7.5C4.47314 6.67157 5.14472 6 5.97314 6L11.9563 6C11.926 6.19579 11.9062 6.39534 11.8977 6.59809C11.8882 6.82396 11.8929 7.04705 11.9111 7.26649C11.2852 7.28892 10.6895 7.54738 10.2451 7.9918C9.7797 8.45723 9.51823 9.08848 9.51823 9.7467C9.51823 10.4049 9.7797 11.0362 10.2451 11.5016C10.7106 11.967 11.3418 12.2285 12 12.2285C12.6582 12.2285 13.2895 11.967 13.7549 11.5016C13.8766 11.3799 13.9843 11.2469 14.0771 11.1051C14.889 11.693 15.8779 12.0567 16.9576 12.1021Z" fill="black"/>
<path d="M21 17.5C21 18.3284 20.3284 19 19.5 19L4.46753 19C3.6391 19 2.96753 18.3284 2.96753 17.5L2.96753 17L21 17V17.5Z" fill="black"/>
<path fill-rule="evenodd" clip-rule="evenodd" d="M13.3964 6.66106C13.3082 8.75719 14.9244 10.5152 17.0206 10.6034C19.0677 10.6382 20.8236 9.07314 20.9629 6.97916C21.051 4.88303 19.4348 3.12498 17.3387 3.03686C15.2425 2.94874 13.4845 4.56493 13.3964 6.66106ZM17.6351 8.945V8.585C18.1951 8.535 18.9001 8.31 18.9001 7.345C18.9001 6.24 17.7651 6.22 17.1551 6.21C17.1431 6.20974 17.1304 6.20948 17.1171 6.20921C16.8761 6.20425 16.4412 6.1953 16.3701 6.11C16.3651 6.105 16.3601 6.08 16.3601 6.035C16.3601 5.945 16.3601 5.67 17.1851 5.67C17.5711 5.67 17.8234 5.79892 17.8441 5.80946L17.8451 5.81C18.0601 5.93 18.3301 5.86 18.4551 5.645C18.5851 5.43 18.5101 5.155 18.2951 5.03C18.2601 5.01 18.0201 4.88 17.6351 4.81V4.45C17.6351 4.2 17.4351 4 17.1851 4C16.9351 4 16.7351 4.2 16.7351 4.45V4.795C15.5951 4.945 15.4601 5.69 15.4601 6.03C15.4601 7.07834 16.5068 7.09495 17.1371 7.10495L17.1401 7.105C17.9601 7.115 18.0001 7.195 18.0001 7.34C18.0001 7.59 17.9651 7.7 17.1851 7.7C16.5732 7.7 16.1977 7.52809 16.1343 7.49905C16.1293 7.49677 16.1262 7.49537 16.1251 7.495C15.9051 7.375 15.6351 7.455 15.5151 7.67C15.3951 7.885 15.4751 8.16 15.6901 8.28C15.7351 8.305 16.1051 8.5 16.7351 8.57V8.945C16.7351 9.195 16.9351 9.395 17.1851 9.395C17.4351 9.395 17.6351 9.195 17.6351 8.945Z" fill="black"/>
</svg>
