<svg width="24" height="24" viewBox="0 0 24 24" fill="none" xmlns="http://www.w3.org/2000/svg">
<path d="M14.0171 7.96661C13.9544 8.02956 13.9095 8.1081 13.8872 8.19413L13.4423 9.91109C13.345 10.2866 13.6937 10.625 14.0661 10.5166L15.7308 10.0317C15.8118 10.0081 15.8855 9.9644 15.9451 9.90462L19.1121 6.72677L17.1791 4.79377L14.0171 7.96661ZM20.5534 5.26965C20.9439 4.87912 20.944 4.24601 20.5535 3.85548C20.3848 3.6868 20.2044 3.5064 20.0346 3.33658C19.644 2.94603 19.0109 2.9461 18.6203 3.33667L18.0208 3.93624L19.9538 5.86925L20.5534 5.26965Z" fill="black"/>
<path d="M13.8592 6.00009L5.82574 6.00009C4.99732 6.00009 4.32574 6.67167 4.32574 7.50009L4.32574 14.025C4.32574 14.8534 4.99732 15.525 5.82574 15.525L17.8526 15.525C18.681 15.525 19.3526 14.8534 19.3526 14.025V8.61045L17.0076 10.9634C16.7693 11.2025 16.4744 11.3774 16.1503 11.4718L14.4857 11.9567C12.996 12.3906 11.6011 11.0367 11.9903 9.53477L12.4353 7.8178C12.5244 7.47368 12.7037 7.15954 12.9547 6.90773L13.8592 6.00009Z" fill="black"/>
<path d="M15.9769 6.00009L14.0171 7.96661C13.9544 8.02956 13.9095 8.1081 13.8872 8.19413L13.4423 9.91109C13.345 10.2866 13.6937 10.625 14.0661 10.5166L15.7308 10.0317C15.8118 10.0081 15.8855 9.9644 15.9451 9.90462L19.1121 6.72677L19.1042 6.71884L18.5653 6.1799C18.3533 6.06521 18.1106 6.00009 17.8526 6.00009H15.9769Z" fill="black"/>
<path d="M19.3526 19.0001C20.181 19.0001 20.8526 18.3285 20.8526 17.5001V17.0001L2.82013 17.0001V17.5001C2.82013 18.3285 3.4917 19.0001 4.32013 19.0001L19.3526 19.0001Z" fill="black"/>
</svg>
