<svg width="24" height="24" viewBox="0 0 24 24" fill="none" xmlns="http://www.w3.org/2000/svg">
<path d="M16.8296 12.0553L16.8483 12.0561L16.8671 12.0564C17.753 12.0715 18.6004 11.8699 19.3526 11.4968V14.025C19.3526 14.8535 18.681 15.525 17.8526 15.525L5.82574 15.525C4.99732 15.525 4.32574 14.8534 4.32574 14.025V7.50012C4.32574 6.6717 4.99732 6.00012 5.82574 6.00012L11.8213 6.00012C11.7949 6.18086 11.7775 6.36474 11.7697 6.55134C11.6468 9.47516 13.9058 11.9324 16.8296 12.0553Z" fill="black"/>
<path d="M20.8526 17.5001C20.8526 18.3285 20.181 19.0001 19.3526 19.0001L4.32013 19.0001C3.4917 19.0001 2.82013 18.3285 2.82013 17.5001L2.82013 17.0001L20.8526 17.0001V17.5001Z" fill="black"/>
<path fill-rule="evenodd" clip-rule="evenodd" d="M13.2684 6.61433C13.1803 8.71046 14.7965 10.4685 16.8926 10.5566C18.9397 10.5915 20.6956 9.02641 20.8349 6.93244C20.923 4.83631 19.3068 3.07826 17.2107 2.99013C15.1146 2.90201 13.3565 4.51821 13.2684 6.61433ZM15.5841 6.4481C15.34 6.20402 14.9443 6.20402 14.7002 6.4481C14.4561 6.69218 14.4561 7.08791 14.7002 7.33198L16.0296 8.6614C16.2737 8.90547 16.6694 8.90547 16.9135 8.6614L19.1137 6.46122C19.3577 6.21714 19.3577 5.82142 19.1137 5.57734C18.8696 5.33326 18.4739 5.33326 18.2298 5.57734L16.4715 7.33557L15.5841 6.4481Z" fill="black"/>
</svg>
