<svg width="24" height="24" viewBox="0 0 24 24" fill="none" xmlns="http://www.w3.org/2000/svg">
<path d="M14.017 7.96661C13.9543 8.02956 13.9095 8.10809 13.8872 8.19413L13.4422 9.91109C13.3449 10.2866 13.6937 10.625 14.0661 10.5166L15.7307 10.0317C15.8117 10.0081 15.8855 9.9644 15.9451 9.90462L19.1121 6.72677L17.1791 4.79377L14.017 7.96661ZM20.5534 5.26964C20.9439 4.87912 20.9439 4.24601 20.5534 3.85548C20.3847 3.68679 20.2043 3.5064 20.0345 3.33658C19.644 2.94603 19.0108 2.9461 18.6203 3.33667L18.0208 3.93624L19.9538 5.86924L20.5534 5.26964Z" fill="black"/>
<path d="M13.8592 6.00009L5.82568 6.00009C4.99726 6.00009 4.32568 6.67166 4.32568 7.50009L4.32568 14.025C4.32568 14.8534 4.99726 15.525 5.82568 15.525L17.8525 15.525C18.681 15.525 19.3525 14.8534 19.3525 14.025V8.61044L17.0076 10.9634C16.7693 11.2025 16.4743 11.3774 16.1502 11.4718L14.4856 11.9567C12.996 12.3906 11.601 11.0367 11.9903 9.53476L12.4352 7.8178C12.5244 7.47367 12.7037 7.15953 12.9546 6.90773L13.8592 6.00009Z" fill="black"/>
<path d="M15.9769 6.00009L14.017 7.96661C13.9543 8.02956 13.9095 8.10809 13.8872 8.19413L13.4422 9.91109C13.3449 10.2866 13.6937 10.625 14.0661 10.5166L15.7307 10.0317C15.8117 10.0081 15.8855 9.9644 15.9451 9.90462L19.1121 6.72677L19.1042 6.71884L18.5653 6.1799C18.3533 6.06521 18.1105 6.00009 17.8525 6.00009H15.9769Z" fill="black"/>
<path d="M19.3525 19.0001C20.181 19.0001 20.8525 18.3285 20.8525 17.5001V17.0001L2.82007 17.0001V17.5001C2.82007 18.3285 3.49164 19.0001 4.32007 19.0001L19.3525 19.0001Z" fill="black"/>
</svg>
