<svg width="24" height="24" viewBox="0 0 24 24" fill="none" xmlns="http://www.w3.org/2000/svg">
<path d="M16.9576 12.1019L16.9763 12.1026L16.995 12.103C17.8886 12.1182 18.743 11.913 19.5 11.5337V14.0247C19.5 14.8531 18.8284 15.5247 18 15.5247H15.864C16.0091 15.0773 16.0091 14.7431 16.0091 14.7431C16.0091 14.338 15.8482 13.9496 15.5618 13.6631C15.2754 13.3767 14.8869 13.2158 14.4818 13.2158H9.51823C9.11317 13.2158 8.72471 13.3767 8.43829 13.6631C8.15187 13.9496 7.99096 14.338 7.99096 14.7431C7.99096 14.7431 7.99096 15.0773 8.13609 15.5247H5.97314C5.14472 15.5247 4.47314 14.8531 4.47314 14.0247V7.49978C4.47314 6.67136 5.14472 5.99978 5.97314 5.99978L11.9563 5.99979C11.926 6.19557 11.9062 6.39512 11.8977 6.59788C11.8882 6.82375 11.8929 7.04683 11.9111 7.26627C11.2852 7.2887 10.6895 7.54716 10.2451 7.99158C9.7797 8.45701 9.51823 9.08827 9.51823 9.74648C9.51823 10.4047 9.7797 11.036 10.2451 11.5014C10.7106 11.9668 11.3418 12.2283 12 12.2283C12.6582 12.2283 13.2895 11.9668 13.7549 11.5014C13.8766 11.3797 13.9843 11.2467 14.0771 11.1049C14.889 11.6928 15.8779 12.0565 16.9576 12.1019Z" fill="black"/>
<path d="M21 17.4998C21 18.3282 20.3284 18.9998 19.5 18.9998L4.46753 18.9998C3.6391 18.9998 2.96753 18.3282 2.96753 17.4998L2.96753 16.9998L21 16.9998V17.4998Z" fill="black"/>
<path fill-rule="evenodd" clip-rule="evenodd" d="M13.3964 6.66084C13.3082 8.75697 14.9244 10.515 17.0206 10.6031C19.0677 10.638 20.8236 9.07292 20.9629 6.97894C21.051 4.88282 19.4348 3.12476 17.3387 3.03664C15.2425 2.94852 13.4845 4.56472 13.3964 6.66084ZM17.6351 8.94478V8.58478C18.1951 8.53478 18.9001 8.30978 18.9001 7.34478C18.9001 6.23978 17.7651 6.21978 17.1551 6.20978C17.1431 6.20952 17.1304 6.20926 17.1171 6.20899C16.8761 6.20403 16.4412 6.19508 16.3701 6.10978C16.3651 6.10478 16.3601 6.07978 16.3601 6.03478C16.3601 5.94478 16.3601 5.66978 17.1851 5.66978C17.5711 5.66978 17.8234 5.7987 17.8441 5.80924L17.8451 5.80978C18.0601 5.92978 18.3301 5.85978 18.4551 5.64478C18.5851 5.42978 18.5101 5.15478 18.2951 5.02978C18.2601 5.00978 18.0201 4.87978 17.6351 4.80978V4.44978C17.6351 4.19978 17.4351 3.99978 17.1851 3.99978C16.9351 3.99978 16.7351 4.19978 16.7351 4.44978V4.79478C15.5951 4.94478 15.4601 5.68978 15.4601 6.02978C15.4601 7.07812 16.5068 7.09473 17.1371 7.10474L17.1401 7.10478C17.9601 7.11478 18.0001 7.19478 18.0001 7.33978C18.0001 7.58978 17.9651 7.69978 17.1851 7.69978C16.5732 7.69978 16.1977 7.52787 16.1343 7.49883C16.1293 7.49655 16.1262 7.49515 16.1251 7.49478C15.9051 7.37478 15.6351 7.45478 15.5151 7.66978C15.3951 7.88478 15.4751 8.15978 15.6901 8.27978C15.7351 8.30478 16.1051 8.49978 16.7351 8.56978V8.94478C16.7351 9.19478 16.9351 9.39478 17.1851 9.39478C17.4351 9.39478 17.6351 9.19478 17.6351 8.94478Z" fill="black"/>
</svg>
