<svg width="24" height="24" viewBox="0 0 24 24" fill="none" xmlns="http://www.w3.org/2000/svg">
<path d="M18.8781 8.20554L18.8937 8.2062L18.9093 8.20646C19.1101 8.20988 19.3076 8.19514 19.5002 8.16363V14.0249C19.5002 14.8533 18.8287 15.5249 18.0002 15.5249L5.97339 15.5249C5.14496 15.5249 4.47339 14.8533 4.47339 14.0249V7.49996C4.47339 6.67154 5.14496 5.99996 5.97339 5.99996H13.1204C13.0995 6.1557 13.0888 6.31382 13.0888 6.47335V8.48148C12.5562 8.0282 11.8732 7.74304 11.1183 7.7113C9.32139 7.63576 7.81017 9.02505 7.73463 10.8219C7.65908 12.6188 9.04837 14.13 10.8452 14.2056L10.8609 14.2062L10.8765 14.2065C11.9013 14.2239 12.8426 13.7681 13.4662 13.0251H13.4988C15.4022 13.0251 16.7888 11.3916 16.7888 9.5768V7.32922C17.3368 7.84388 18.0658 8.17139 18.8781 8.20554Z" fill="black"/>
<path d="M14.3862 5.99996C14.3552 6.15243 14.3388 6.31083 14.3388 6.47335V9.5768C14.3388 9.80241 14.2622 10.0088 14.1355 10.1673C14.2092 10.463 14.2424 10.7745 14.2289 11.0949L14.2282 11.1102L14.2272 11.1254C14.215 11.3092 14.1881 11.4883 14.1478 11.6615C14.4115 11.5662 14.6512 11.4144 14.8545 11.2195C15.2743 10.8169 15.5388 10.2301 15.5388 9.5768V6.47335C15.5388 6.29982 15.5841 6.13769 15.6627 5.99996H14.3862Z" fill="black"/>
<path d="M19.3817 6.91461C19.2365 6.57233 18.9678 6.29513 18.6315 6.13888C18.4543 6.35889 18.2277 6.54063 17.9612 6.66059C18.2436 6.83513 18.5739 6.94165 18.9306 6.95664C19.0848 6.95927 19.2358 6.94471 19.3817 6.91461Z" fill="black"/>
<path d="M12.98 11.0424C12.9625 11.3049 12.897 11.5516 12.7927 11.7751H12.4136C12.0822 11.7751 11.8136 11.4856 11.8136 11.1285C11.8136 10.7714 12.0822 10.482 12.4136 10.482H12.9253C12.9688 10.6608 12.9881 10.8489 12.98 11.0424Z" fill="black"/>
<path d="M11.0658 8.9602C11.4295 8.97549 11.7659 9.08598 12.0519 9.26672C11.1471 9.44474 10.5636 10.2791 10.5636 11.1285C10.5636 11.8307 10.9623 12.5225 11.6116 12.8419C11.3875 12.9203 11.1467 12.9609 10.8978 12.9567C9.79062 12.9101 8.93698 11.9816 8.98352 10.8744C9.03007 9.7673 9.95863 8.91366 11.0658 8.9602Z" fill="black"/>
<path d="M21.0002 17.5C21.0002 18.3284 20.3287 19 19.5002 19H4.46777C3.63935 19 2.96777 18.3284 2.96777 17.5L2.96777 17L21.0002 17V17.5Z" fill="black"/>
<path d="M18.9306 6.95664C18.0657 6.92028 17.3555 6.34571 17.1083 5.56821H16.3789C15.915 5.56821 15.5388 5.97344 15.5388 6.47335V9.5768C15.5388 10.7909 14.6256 11.7751 13.4989 11.7751L12.7927 11.7751C12.4576 12.4932 11.7224 12.9707 10.8978 12.9567C9.79062 12.9101 8.93698 11.9816 8.98352 10.8744C9.03007 9.7673 9.95863 8.91366 11.0658 8.9602C11.9794 8.99861 12.7204 9.6376 12.9253 10.482L13.4989 10.482C13.9629 10.482 14.3388 10.0767 14.3388 9.5768V6.47335C14.3388 5.25927 15.2523 4.27511 16.3789 4.27511H17.1336C17.4223 3.47534 18.2018 2.92249 19.0986 2.96019C20.2057 3.00673 21.0593 3.9353 21.0128 5.04243C20.9393 6.14843 20.0119 6.97505 18.9306 6.95664Z" fill="black"/>
</svg>
