<svg width="24" height="24" viewBox="0 0 24 24" fill="none" xmlns="http://www.w3.org/2000/svg">
<path d="M14.0173 7.96661C13.9545 8.02956 13.9097 8.10809 13.8874 8.19413L13.4425 9.91109C13.3452 10.2866 13.6939 10.625 14.0663 10.5166L15.731 10.0317C15.812 10.0081 15.8857 9.9644 15.9453 9.90462L19.1123 6.72677L17.1793 4.79377L14.0173 7.96661ZM20.5536 5.26964C20.9441 4.87912 20.9442 4.24601 20.5537 3.85548C20.385 3.68679 20.2046 3.5064 20.0348 3.33658C19.6442 2.94603 19.011 2.9461 18.6205 3.33667L18.021 3.93624L19.954 5.86924L20.5536 5.26964Z" fill="black"/>
<path d="M13.8594 6.00009L5.82593 6.00009C4.9975 6.00009 4.32593 6.67166 4.32593 7.50009L4.32593 14.025C4.32593 14.8534 4.9975 15.525 5.82593 15.525L17.8528 15.525C18.6812 15.525 19.3528 14.8534 19.3528 14.025V8.61044L17.0078 10.9634C16.7695 11.2025 16.4746 11.3774 16.1505 11.4718L14.4858 11.9567C12.9962 12.3906 11.6013 11.0367 11.9905 9.53476L12.4355 7.8178C12.5246 7.47367 12.7039 7.15953 12.9549 6.90773L13.8594 6.00009Z" fill="black"/>
<path d="M15.9771 6.00009L14.0173 7.96661C13.9545 8.02956 13.9097 8.10809 13.8874 8.19413L13.4425 9.91109C13.3452 10.2866 13.6939 10.625 14.0663 10.5166L15.731 10.0317C15.812 10.0081 15.8857 9.9644 15.9453 9.90462L19.1123 6.72677L19.1044 6.71884L18.5655 6.1799C18.3535 6.06521 18.1107 6.00009 17.8528 6.00009H15.9771Z" fill="black"/>
<path d="M19.3528 19.0001C20.1812 19.0001 20.8528 18.3285 20.8528 17.5001V17.0001L2.82031 17.0001V17.5001C2.82031 18.3285 3.49189 19.0001 4.32031 19.0001L19.3528 19.0001Z" fill="black"/>
</svg>
