<svg width="24" height="24" viewBox="0 0 24 24" fill="none" xmlns="http://www.w3.org/2000/svg">
<path d="M2.8526 19.0001H20.8526C20.8526 20.1047 19.9572 21.0001 18.8526 21.0001H4.8526C3.74803 21.0001 2.8526 20.1047 2.8526 19.0001Z" fill="black"/>
<path d="M13.8513 3.00477C12.7472 3.0055 11.8526 3.90071 11.8526 5.00477V8.00015C11.8526 9.10472 12.748 10.0001 13.8526 10.0001V11.0659C13.8526 11.4652 14.2977 11.7034 14.6299 11.4819L16.8526 10.0001H18.8526C19.9572 10.0001 20.8526 9.10471 20.8526 8.00014V5.00147C20.8526 3.89638 19.9564 3.00074 18.8513 3.00147L13.8513 3.00477Z" fill="black"/>
<path d="M12.3549 11.1644C11.1712 10.6031 10.3526 9.39724 10.3526 8.00015V7.50012H6.3526C5.24803 7.50012 4.3526 8.39555 4.3526 9.50012V15.5001C4.3526 16.6047 5.24803 17.5001 6.3526 17.5001H17.3526C18.4572 17.5001 19.3526 16.6047 19.3526 15.5001V11.4647C19.1893 11.4881 19.0224 11.5001 18.8526 11.5001H17.3068L15.462 12.73C14.1604 13.5977 12.4262 12.702 12.3549 11.1644Z" fill="black"/>
</svg>
