<svg width="24" height="24" viewBox="0 0 24 24" fill="none" xmlns="http://www.w3.org/2000/svg">
<path d="M21.0002 17.5C21.0002 18.3284 20.3287 19 19.5002 19L4.46777 19C3.63935 19 2.96777 18.3284 2.96777 17.5L2.96777 17L21.0002 17V17.5Z" fill="black"/>
<path d="M9.70449 9.87862C9.83728 11.2524 11.4245 12 12.5725 11.1949C12.8998 12.2572 13.8889 13.03 15.0597 13.03H17.1991L18.347 13.9074C18.6973 14.1752 19.0928 14.2925 19.4774 14.2869C19.3535 14.9904 18.7393 15.5249 18.0002 15.5249L5.97339 15.5249C5.14496 15.5249 4.47339 14.8533 4.47339 14.0249V7.5C4.47339 6.67157 5.14496 6 5.97339 6H8.48498V7.67356C8.48498 8.6028 8.97196 9.41815 9.70449 9.87862Z" fill="black"/>
<path fill-rule="evenodd" clip-rule="evenodd" d="M17.0277 4.22258C17.0277 3.61314 16.5334 3.11929 15.9239 3.11932C14.9205 3.11937 13.9007 3.11831 12.885 3.11726C12.283 3.11664 11.6825 3.11601 11.0877 3.11562C10.4787 3.11522 9.985 3.60892 9.985 4.21793V7.67358C9.985 8.28258 10.4788 8.77627 11.0878 8.77627H11.1956V9.69217C11.1956 9.96743 11.5121 10.1223 11.7294 9.95333L13.2433 8.77627H15.9254C16.5344 8.77627 17.0277 8.28258 17.0277 7.67358V4.22258ZM14.8612 6.40549C15.1487 6.2395 15.1487 5.82452 14.8612 5.65853L13.1524 4.67195C12.8649 4.50596 12.5055 4.71344 12.5055 5.04543V7.01859C12.5055 7.35057 12.8649 7.55806 13.1524 7.39207L14.8612 6.40549Z" fill="black"/>
<path d="M13.9964 10.0628L13.9575 10.093V10.4273C13.9575 11.0363 14.4507 11.53 15.0597 11.53H17.7068L19.2579 12.7157C19.4756 12.8821 19.7897 12.7269 19.7897 12.4529V11.53H19.8974C20.5064 11.53 21.0002 11.0363 21.0002 10.4273V6.97167C21.0002 6.36266 20.5066 5.86896 19.8976 5.86936C19.3881 5.8697 18.8744 5.8702 18.3592 5.87073V8.07974C18.3592 9.17458 17.4721 10.0628 16.3765 10.0628H13.9964Z" fill="black"/>
</svg>
