<svg width="24" height="24" viewBox="0 0 24 24" fill="none" xmlns="http://www.w3.org/2000/svg">
<path d="M13.0365 6.5H6.5C5.39543 6.5 4.5 7.39543 4.5 8.5V14.5C4.5 15.6046 5.39543 16.5 6.5 16.5H17.5C18.6046 16.5 19.5 15.6046 19.5 14.5V12.9659C19.4636 12.9932 19.4263 13.0195 19.3882 13.045L18.1738 13.8545C17.3343 14.4142 16.2751 14.2439 15.6334 13.5899C15.4341 13.712 15.2139 13.8057 14.9778 13.8647L14.02 14.1042C12.7383 14.4246 11.5774 13.2636 11.8978 11.982L12.1373 11.0242C12.1963 10.7881 12.29 10.568 12.4121 10.3687C11.7576 9.72696 11.587 8.66738 12.1468 7.82758L12.9564 6.61323C12.9822 6.57462 13.0089 6.53687 13.0365 6.5Z" fill="black"/>
<path d="M3 18H21C21 19.1046 20.1046 20 19 20H5C3.89543 20 3 19.1046 3 18Z" fill="black"/>
<path fill-rule="evenodd" clip-rule="evenodd" d="M19.9083 5H20.0015C20.5537 5 21.0015 5.44772 21.0015 6.00001V6.0931C21.0015 7.15399 20.58 8.17143 19.8298 8.92159L19.0014 9.75V10.9648C19.0014 11.2992 18.8343 11.6114 18.5561 11.7969L17.3417 12.6064C17.054 12.7982 16.6631 12.6471 16.5793 12.3117L16.2514 11L15.0013 9.75L13.6896 9.42208C13.3542 9.33822 13.2031 8.94734 13.3949 8.65964L14.2044 7.44529C14.3899 7.1671 14.7021 7 15.0365 7H16.2514L17.0798 6.17155C17.83 5.42142 18.8474 5 19.9083 5ZM19.5014 7.25C19.5014 7.66421 19.1656 8 18.7514 8C18.3372 8 18.0014 7.66421 18.0014 7.25C18.0014 6.83578 18.3372 6.5 18.7514 6.5C19.1656 6.5 19.5014 6.83578 19.5014 7.25ZM14.4097 10.75C14.0231 10.75 13.6862 11.0131 13.5924 11.388L13.353 12.3458C13.3072 12.5289 13.4731 12.6947 13.6562 12.6489L14.614 12.4095C14.9889 12.3158 15.252 11.9788 15.252 11.5923C15.252 11.1271 14.8749 10.75 14.4097 10.75Z" fill="black"/>
</svg>
