<svg width="24" height="24" viewBox="0 0 24 24" fill="none" xmlns="http://www.w3.org/2000/svg">
<path d="M5.82334 15.0888L4.78913 15.6059C4.05208 15.9744 4.05208 17.0262 4.78913 17.3947L11.1059 20.5531C11.6689 20.8346 12.3317 20.8346 12.8947 20.5531L19.2114 17.3947C19.9485 17.0262 19.9485 15.9744 19.2114 15.6059L18.1775 15.0889L13.5658 17.3947C12.5804 17.8874 11.4206 17.8874 10.4353 17.3947L5.82334 15.0888Z" fill="black"/>
<path d="M5.82334 10.5888L4.78913 11.1059C4.05208 11.4744 4.05208 12.5262 4.78913 12.8947L11.1059 16.0531C11.6689 16.3346 12.3317 16.3346 12.8947 16.0531L19.2114 12.8947C19.9485 12.5262 19.9485 11.4744 19.2114 11.1059L18.1775 10.5889L13.5658 12.8947C12.5804 13.3874 11.4206 13.3874 10.4353 12.8947L5.82334 10.5888Z" fill="black"/>
<path d="M4.78887 6.60583L11.1056 3.44747C11.6686 3.16595 12.3314 3.16595 12.8944 3.44747L19.2112 6.60583C19.9482 6.97436 19.9482 8.02616 19.2112 8.39469L12.8944 11.553C12.3314 11.8346 11.6686 11.8346 11.1056 11.553L4.78887 8.39469C4.05182 8.02616 4.05182 6.97436 4.78887 6.60583Z" fill="black"/>
</svg>
