<svg width="24" height="24" viewBox="0 0 24 24" fill="none" xmlns="http://www.w3.org/2000/svg">
<path d="M5.82334 15.0885L4.78913 15.6056C4.05208 15.9741 4.05208 17.0259 4.78913 17.3945L11.1059 20.5528C11.6689 20.8343 12.3317 20.8343 12.8947 20.5528L19.2114 17.3945C19.9485 17.0259 19.9485 15.9741 19.2114 15.6056L18.1775 15.0886L13.5658 17.3945C12.5804 17.8871 11.4206 17.8871 10.4353 17.3945L5.82334 15.0885Z" fill="black"/>
<path d="M5.82334 10.5885L4.78913 11.1056C4.05208 11.4741 4.05208 12.5259 4.78913 12.8945L11.1059 16.0528C11.6689 16.3343 12.3317 16.3343 12.8947 16.0528L19.2114 12.8945C19.9485 12.5259 19.9485 11.4741 19.2114 11.1056L18.1775 10.5886L13.5658 12.8945C12.5804 13.3871 11.4206 13.3871 10.4353 12.8945L5.82334 10.5885Z" fill="black"/>
<path d="M4.78887 6.60557L11.1056 3.44721C11.6686 3.16569 12.3314 3.16569 12.8944 3.44721L19.2112 6.60557C19.9482 6.9741 19.9482 8.0259 19.2112 8.39443L12.8944 11.5528C12.3314 11.8343 11.6686 11.8343 11.1056 11.5528L4.78887 8.39443C4.05182 8.0259 4.05182 6.9741 4.78887 6.60557Z" fill="black"/>
</svg>
