<svg width="24" height="24" viewBox="0 0 24 24" fill="none" xmlns="http://www.w3.org/2000/svg">
<path d="M6.99543 3.01298C7.54952 3.0134 8 3.46179 8 4.01587V20C8 20.5523 7.55228 21 7 21C6 21 5 21 4 21C3.44772 21 3 20.5523 3 20V4.00008C3 3.44777 3.44773 3.00006 4.00004 3.00198C4.99194 3.00542 6.00348 3.01224 6.99543 3.01298Z" fill="black"/>
<path d="M19.9995 3.00352C20.552 3.00339 21 3.45118 21 4.00368V7C21 7.55228 20.5523 8 20 8C16.8333 8 13.6667 8 10.5 8C9.94772 8 9.5 7.55228 9.5 7V4.00001C9.5 3.44772 9.94764 3 10.4999 3.00012C13.6267 3.00082 16.8728 3.00426 19.9995 3.00352Z" fill="black"/>
<path d="M13.4988 16.0036C14.0515 16.0037 14.5 16.4516 14.5 17.0044V20C14.5 20.5523 14.0523 21 13.5 21C12.5 21 11.5 21 10.5 21C9.94772 21 9.5 20.5523 9.5 20V17C9.5 16.4477 9.94769 16 10.5 16.0005C11.493 16.0015 12.5057 16.0034 13.4988 16.0036Z" fill="black"/>
<path d="M19.9971 9.50829C20.5505 9.50856 21 9.9567 21 10.5101V20C21 20.5523 20.5523 21 20 21C19 21 18 21 17 21C16.4477 21 16 20.5523 16 20V10.5001C16 9.94775 16.4477 9.50004 17 9.50126C17.9925 9.50347 19.0046 9.50782 19.9971 9.50829Z" fill="black"/>
<path d="M13.4988 9.50361C14.0515 9.50372 14.5 9.95162 14.5 10.5044V13.5C14.5 14.0523 14.0523 14.5 13.5 14.5C12.5 14.5 11.5 14.5 10.5 14.5C9.94772 14.5 9.5 14.0523 9.5 13.5V10.5C9.5 9.94773 9.94769 9.50002 10.5 9.50055C11.493 9.50151 12.5057 9.5034 13.4988 9.50361Z" fill="black"/>
</svg>
