<svg width="24" height="24" viewBox="0 0 24 24" fill="none" xmlns="http://www.w3.org/2000/svg">
<path d="M12.8647 3.54156C12.8647 3.12735 12.529 2.79156 12.1147 2.79156C11.7005 2.79156 11.3647 3.12735 11.3647 3.54156V5.04156C11.3647 5.45578 11.7005 5.79156 12.1147 5.79156C12.529 5.79156 12.8647 5.45578 12.8647 5.04156V3.54156Z" fill="black"/>
<path d="M3.86475 11.0416C3.45053 11.0416 3.11475 11.3774 3.11475 11.7916C3.11475 12.2058 3.45053 12.5416 3.86475 12.5416H5.36475C5.77896 12.5416 6.11475 12.2058 6.11475 11.7916C6.11475 11.3774 5.77896 11.0416 5.36475 11.0416H3.86475Z" fill="black"/>
<path d="M18.1147 11.7916C18.1147 11.3774 18.4505 11.0416 18.8647 11.0416H20.3647C20.779 11.0416 21.1147 11.3774 21.1147 11.7916C21.1147 12.2058 20.779 12.5416 20.3647 12.5416H18.8647C18.4505 12.5416 18.1147 12.2058 18.1147 11.7916Z" fill="black"/>
<path d="M6.81109 5.42762C6.5182 5.13472 6.04332 5.13472 5.75043 5.42762C5.45754 5.72051 5.45754 6.19538 5.75043 6.48828L6.81109 7.54894C7.10399 7.84183 7.57886 7.84183 7.87175 7.54894C8.16465 7.25604 8.16465 6.78117 7.87175 6.48828L6.81109 5.42762Z" fill="black"/>
<path d="M16.3579 7.54895C16.065 7.25605 16.065 6.78118 16.3579 6.48829L17.4185 5.42763C17.7114 5.13473 18.1863 5.13473 18.4792 5.42763C18.7721 5.72052 18.7721 6.19539 18.4792 6.48829L17.4185 7.54895C17.1256 7.84184 16.6507 7.84184 16.3579 7.54895Z" fill="black"/>
<path fill-rule="evenodd" clip-rule="evenodd" d="M14.6147 15.5338C15.8207 14.7265 16.6147 13.3518 16.6147 11.7916C16.6147 9.30628 14.6 7.29156 12.1147 7.29156C9.62946 7.29156 7.61475 9.30628 7.61475 11.7916C7.61475 13.3518 8.40876 14.7265 9.61475 15.5338V16.7916H14.6147V15.5338ZM10.6147 11.7916C10.6147 10.9631 11.2863 10.2916 12.1147 10.2916C12.529 10.2916 12.8647 9.95578 12.8647 9.54156C12.8647 9.12735 12.529 8.79156 12.1147 8.79156C10.4579 8.79156 9.11475 10.1347 9.11475 11.7916C9.11475 12.2058 9.45053 12.5416 9.86475 12.5416C10.279 12.5416 10.6147 12.2058 10.6147 11.7916Z" fill="black"/>
<path d="M10.679 19.7273C10.0631 19.5406 9.61475 18.9684 9.61475 18.2916H14.6147C14.6147 18.9684 14.1664 19.5406 13.5505 19.7273C13.3638 20.3432 12.7916 20.7916 12.1147 20.7916C11.4379 20.7916 10.8657 20.3432 10.679 19.7273Z" fill="black"/>
</svg>
