<svg width="24" height="24" viewBox="0 0 24 24" fill="none" xmlns="http://www.w3.org/2000/svg">
<path d="M12.8647 3.54102C12.8647 3.1268 12.529 2.79102 12.1147 2.79102C11.7005 2.79102 11.3647 3.1268 11.3647 3.54102V5.04102C11.3647 5.45523 11.7005 5.79102 12.1147 5.79102C12.529 5.79102 12.8647 5.45523 12.8647 5.04102V3.54102Z" fill="black"/>
<path d="M3.86475 11.041C3.45053 11.041 3.11475 11.3768 3.11475 11.791C3.11475 12.2052 3.45053 12.541 3.86475 12.541H5.36475C5.77896 12.541 6.11475 12.2052 6.11475 11.791C6.11475 11.3768 5.77896 11.041 5.36475 11.041H3.86475Z" fill="black"/>
<path d="M18.1147 11.791C18.1147 11.3768 18.4505 11.041 18.8647 11.041H20.3647C20.779 11.041 21.1147 11.3768 21.1147 11.791C21.1147 12.2052 20.779 12.541 20.3647 12.541H18.8647C18.4505 12.541 18.1147 12.2052 18.1147 11.791Z" fill="black"/>
<path d="M6.81109 5.42707C6.5182 5.13417 6.04332 5.13417 5.75043 5.42707C5.45754 5.71996 5.45754 6.19483 5.75043 6.48773L6.81109 7.54839C7.10399 7.84128 7.57886 7.84128 7.87175 7.54839C8.16465 7.25549 8.16465 6.78062 7.87175 6.48773L6.81109 5.42707Z" fill="black"/>
<path d="M16.3579 7.5484C16.065 7.2555 16.065 6.78063 16.3579 6.48774L17.4185 5.42708C17.7114 5.13418 18.1863 5.13418 18.4792 5.42708C18.7721 5.71997 18.7721 6.19484 18.4792 6.48774L17.4185 7.5484C17.1256 7.84129 16.6507 7.84129 16.3579 7.5484Z" fill="black"/>
<path fill-rule="evenodd" clip-rule="evenodd" d="M14.6147 15.5332C15.8207 14.726 16.6147 13.3512 16.6147 11.791C16.6147 9.30573 14.6 7.29102 12.1147 7.29102C9.62946 7.29102 7.61475 9.30573 7.61475 11.791C7.61475 13.3512 8.40876 14.726 9.61475 15.5332V16.791H14.6147V15.5332ZM10.6147 11.791C10.6147 10.9626 11.2863 10.291 12.1147 10.291C12.529 10.291 12.8647 9.95523 12.8647 9.54102C12.8647 9.1268 12.529 8.79102 12.1147 8.79102C10.4579 8.79102 9.11475 10.1342 9.11475 11.791C9.11475 12.2052 9.45053 12.541 9.86475 12.541C10.279 12.541 10.6147 12.2052 10.6147 11.791Z" fill="black"/>
<path d="M10.679 19.7267C10.0631 19.5401 9.61475 18.9679 9.61475 18.291H14.6147C14.6147 18.9679 14.1664 19.5401 13.5505 19.7267C13.3638 20.3427 12.7916 20.791 12.1147 20.791C11.4379 20.791 10.8657 20.3427 10.679 19.7267Z" fill="black"/>
</svg>
