<svg width="24" height="24" viewBox="0 0 24 24" fill="none" xmlns="http://www.w3.org/2000/svg">
<path fill-rule="evenodd" clip-rule="evenodd" d="M20 10.8739C20 7.08365 16.4113 4 12 4C7.58872 4 4 7.08365 4 10.8739C4 14.2719 6.84938 17.1182 10.69 17.6557C10.951 17.7152 11.3057 17.8375 11.3949 18.0733C11.4759 18.2877 11.4481 18.6235 11.4211 18.8395C11.4211 18.8395 11.3274 19.4373 11.3072 19.5643L11.3041 19.5824C11.2659 19.8114 11.1688 20.3917 12 20.0216C12.8541 19.6413 16.607 17.1492 18.2851 15.1032C19.4444 13.7575 20 12.3887 20 10.8739ZM17.3381 13.063H15.0886C15.0488 13.063 15.0107 13.0463 14.9825 13.0165C14.9544 12.9867 14.9386 12.9463 14.9386 12.9042V9.20846C14.9386 9.16634 14.9544 9.12595 14.9825 9.09618C15.0107 9.0664 15.0488 9.04967 15.0886 9.04967H17.3381C17.3779 9.04967 17.416 9.0664 17.4441 9.09618C17.4723 9.12595 17.4881 9.16634 17.4881 9.20846V9.80946C17.4881 9.85158 17.4723 9.89197 17.4441 9.92174C17.416 9.95152 17.3779 9.96825 17.3381 9.96825H15.8107V10.5915H17.3381C17.3779 10.5915 17.416 10.6082 17.4441 10.638C17.4723 10.6678 17.4881 10.7082 17.4881 10.7503V11.3568C17.4881 11.399 17.4723 11.4393 17.4441 11.4691C17.416 11.4989 17.3779 11.5156 17.3381 11.5156H15.8107V12.1397H17.3381C17.3779 12.1397 17.416 12.1564 17.4441 12.1862C17.4723 12.216 17.4881 12.2563 17.4881 12.2985V12.8987C17.4888 12.92 17.4854 12.9412 17.4782 12.9611C17.471 12.9811 17.46 12.9992 17.446 13.0146C17.432 13.0299 17.4153 13.0421 17.3967 13.0504C17.3782 13.0587 17.3582 13.063 17.3381 13.063ZM9.1307 13.0159C9.10257 13.0457 9.06443 13.0624 9.02465 13.0624L9.0269 13.06H6.77739C6.73762 13.06 6.69948 13.0433 6.67135 13.0135C6.64323 12.9838 6.62743 12.9434 6.62743 12.9013V9.20708C6.62743 9.16496 6.64323 9.12458 6.67135 9.0948C6.69948 9.06502 6.73762 9.04829 6.77739 9.04829H7.34727C7.38704 9.04829 7.42519 9.06502 7.45331 9.0948C7.48144 9.12458 7.49724 9.16496 7.49724 9.20708V12.1446H9.02465C9.06443 12.1446 9.10257 12.1614 9.1307 12.1911C9.15882 12.2209 9.17462 12.2613 9.17462 12.3034V12.9036C9.17462 12.9458 9.15882 12.9861 9.1307 13.0159ZM10.3774 9.04232H9.8105C9.72602 9.04232 9.65753 9.11483 9.65753 9.20428V12.9008C9.65753 12.9903 9.72602 13.0628 9.8105 13.0628H10.3774C10.4619 13.0628 10.5303 12.9903 10.5303 12.9008V9.20428C10.5303 9.11483 10.4619 9.04232 10.3774 9.04232ZM13.6729 9.04232H14.2398C14.2597 9.04231 14.2795 9.04652 14.2979 9.0547C14.3163 9.06288 14.3329 9.07486 14.3469 9.08994C14.3609 9.10502 14.3718 9.1229 14.3792 9.14254C14.3866 9.16217 14.3901 9.18316 14.3897 9.20428V12.8913C14.3897 12.9334 14.3739 12.9738 14.3458 13.0036C14.3177 13.0334 14.2795 13.0501 14.2398 13.0501H13.6759C13.6622 13.0499 13.6487 13.048 13.6354 13.0445H13.6122L13.6047 13.0406H13.6002L13.5912 13.0342C13.5759 13.0231 13.5626 13.0091 13.5522 12.9929L11.9528 10.7064V12.9239C11.9528 12.966 11.937 13.0064 11.9088 13.0361C11.8807 13.0659 11.8426 13.0827 11.8028 13.0827H11.2352C11.1954 13.0827 11.1573 13.0659 11.1291 13.0361C11.101 13.0064 11.0852 12.966 11.0852 12.9239V9.2273C11.0852 9.18519 11.101 9.1448 11.1291 9.11502C11.1573 9.08524 11.1954 9.06852 11.2352 9.06852H11.8703L11.8785 9.07328H11.883L11.8913 9.07963H11.8958L11.904 9.08678L11.913 9.0963C11.9179 9.10134 11.9221 9.10693 11.9258 9.11298L13.5229 11.3971V9.2011C13.5229 9.15899 13.5387 9.1186 13.5669 9.08882C13.595 9.05904 13.6331 9.04232 13.6729 9.04232Z" fill="black"/>
</svg>
