<svg width="24" height="24" viewBox="0 0 24 24" fill="none" xmlns="http://www.w3.org/2000/svg">
<path fill-rule="evenodd" clip-rule="evenodd" d="M7.5 8.35484C7.5 5.94973 9.51472 4 12 4C14.4853 4 16.5 5.94973 16.5 8.35484H14C14 7.2859 13.1046 6.41935 12 6.41935C10.8954 6.41935 10 7.2859 10 8.35484V10.2903H17C18.1046 10.2903 19 11.1569 19 12.2258V17.0645C19 18.1335 18.1046 19 17 19H7C5.89543 19 5 18.1335 5 17.0645V12.2258C5 11.1569 5.89543 10.2903 7 10.2903H7.5V8.35484ZM13.5 13.6774C13.5 14.1523 13.2643 14.574 12.9 14.8388L13.2806 15.9438C13.3886 16.2571 13.1476 16.5806 12.8063 16.5806H11.1937C10.8524 16.5806 10.6114 16.2571 10.7194 15.9438L11.1 14.8388C10.7357 14.574 10.5 14.1523 10.5 13.6774C10.5 12.8757 11.1716 12.2258 12 12.2258C12.8284 12.2258 13.5 12.8757 13.5 13.6774Z" fill="black"/>
</svg>
