<svg width="24" height="24" viewBox="0 0 24 24" fill="none" xmlns="http://www.w3.org/2000/svg">
<path fill-rule="evenodd" clip-rule="evenodd" d="M7.5 9C7.5 6.51472 9.51472 4.5 12 4.5C14.4853 4.5 16.5 6.51472 16.5 9H14C14 7.89543 13.1046 7 12 7C10.8954 7 10 7.89543 10 9V11H17C18.1046 11 19 11.8954 19 13V18C19 19.1046 18.1046 20 17 20H7C5.89543 20 5 19.1046 5 18V13C5 11.8954 5.89543 11 7 11H7.5V9ZM13.5 14.5C13.5 14.9907 13.2643 15.4264 12.9 15.7001L13.2806 16.8419C13.3886 17.1657 13.1476 17.5 12.8063 17.5H11.1937C10.8524 17.5 10.6114 17.1657 10.7194 16.8419L11.1 15.7001C10.7357 15.4264 10.5 14.9907 10.5 14.5C10.5 13.6716 11.1716 13 12 13C12.8284 13 13.5 13.6716 13.5 14.5Z" fill="black"/>
</svg>
