<svg width="24" height="24" viewBox="0 0 24 24" fill="none" xmlns="http://www.w3.org/2000/svg">
<path fill-rule="evenodd" clip-rule="evenodd" d="M6.44179 11.2742C6.44179 8.86465 8.40959 6.91131 10.837 6.91131C13.2644 6.91131 15.2322 8.86465 15.2322 11.2742V12.2437H15.7206C16.7994 12.2437 17.674 13.1119 17.674 14.1828V18.0609C17.674 19.1319 16.7994 20 15.7206 20H5.95343C4.87458 20 4 19.1319 4 18.0609V14.1828C4 13.1119 4.87458 12.2437 5.95343 12.2437H6.44179V11.2742ZM12.7904 11.2742V12.2437H8.88357V11.2742C8.88357 10.2033 9.75815 9.33514 10.837 9.33514C11.9158 9.33514 12.7904 10.2033 12.7904 11.2742ZM12.0581 15.3947C12.0581 15.7744 11.8823 16.1132 11.607 16.3355L12.0344 17.3961C12.1627 17.7146 11.9265 18.0609 11.581 18.0609H10.0935C9.748 18.0609 9.51176 17.7146 9.64007 17.3961L10.0675 16.3355C9.79222 16.1132 9.61636 15.7744 9.61636 15.3947C9.61636 14.7254 10.163 14.1828 10.8373 14.1828C11.5115 14.1828 12.0581 14.7254 12.0581 15.3947Z" fill="black"/>
<path fill-rule="evenodd" clip-rule="evenodd" d="M14.222 5.61139C14.4656 5.29077 14.9249 5.22688 15.2479 5.46869C16.743 6.58796 17.8097 8.27501 18.0911 10.2622C18.1474 10.6599 17.8682 11.0276 17.4676 11.0835C17.067 11.1393 16.6966 10.8623 16.6402 10.4646C16.4151 8.87448 15.5634 7.52642 14.3657 6.62979C14.0427 6.38797 13.9784 5.93202 14.222 5.61139Z" fill="black"/>
<path fill-rule="evenodd" clip-rule="evenodd" d="M15.9865 3.28934C16.2302 2.96871 16.6895 2.90483 17.0125 3.14665C19.1059 4.7139 20.5989 7.07538 20.9928 9.85743C21.0491 10.2551 20.77 10.6228 20.3693 10.6787C19.9687 10.7346 19.5983 10.4575 19.542 10.0598C19.2043 7.67484 17.9263 5.65235 16.1303 4.30773C15.8073 4.06591 15.7429 3.60996 15.9865 3.28934Z" fill="black"/>
</svg>
