<svg width="24" height="24" viewBox="0 0 24 24" fill="none" xmlns="http://www.w3.org/2000/svg">
<path fill-rule="evenodd" clip-rule="evenodd" d="M7.2173 11.1565H6.4673C5.63916 11.1565 4.96729 11.8284 4.96729 12.6565V17.6548C4.96729 18.483 5.63916 19.1549 6.4673 19.1549H17.4674C18.2955 19.1549 18.9674 18.483 18.9674 17.6548V12.6565C18.9674 11.8284 18.2955 11.1565 17.4674 11.1565H16.7174V8.91312C16.7174 6.29435 14.5861 4.16309 11.9673 4.16309C9.34857 4.16309 7.2173 6.29435 7.2173 8.91312V11.1565ZM13.9073 11.1565H10.0452V9.15483C10.0452 7.9142 10.7267 6.85053 11.9673 6.85053C13.208 6.85053 13.9073 7.9142 13.9073 9.15483V11.1565ZM12.8457 15.084C13.0325 14.8791 13.1464 14.6067 13.1464 14.3076C13.1464 13.6709 12.6303 13.1548 11.9936 13.1548C11.357 13.1548 10.8409 13.6709 10.8409 14.3076C10.8409 14.6066 10.9548 14.8791 11.1415 15.0839L10.6618 16.4609C10.5486 16.7859 10.7898 17.1254 11.134 17.1254H12.8176C13.1568 17.1254 13.3976 16.7947 13.2934 16.4719L12.8457 15.084Z" fill="black"/>
</svg>
