<svg width="24" height="24" viewBox="0 0 24 24" fill="none" xmlns="http://www.w3.org/2000/svg">
<path fill-rule="evenodd" clip-rule="evenodd" d="M15.2945 5.31399C15.5682 5.00303 16.0421 4.97278 16.353 5.24643C17.6456 6.38387 18.3326 7.65918 18.7844 9.24737C18.8978 9.64577 18.6667 10.0606 18.2683 10.174C17.8699 10.2873 17.455 10.0562 17.3417 9.65784C16.9511 8.28493 16.3949 7.28137 15.3621 6.3725C15.0512 6.09885 15.0209 5.62495 15.2945 5.31399Z" fill="black"/>
<path fill-rule="evenodd" clip-rule="evenodd" d="M17.1534 3.41214C17.3964 3.07668 17.8653 3.00172 18.2008 3.24471C19.7473 4.36491 20.9829 6.24987 21.4103 8.42821C21.49 8.83467 21.2251 9.22882 20.8187 9.30857C20.4122 9.38831 20.0181 9.12345 19.9383 8.71698C19.5809 6.89532 18.5472 5.34778 17.3209 4.4595C16.9854 4.21652 16.9104 3.7476 17.1534 3.41214Z" fill="black"/>
<path fill-rule="evenodd" clip-rule="evenodd" d="M7.92947 11.6401H6.76457C5.98649 11.6401 5.35522 12.2714 5.35522 13.0494V17.7456C5.35522 18.5237 5.98649 19.155 6.76457 19.155H17.0998C17.8778 19.155 18.5091 18.5237 18.5091 17.7456V13.0494C18.5091 12.2714 17.8778 11.6401 17.0998 11.6401H15.9366V10.6327C15.9366 8.17223 14.3927 6.54004 11.9322 6.54004C9.47169 6.54004 7.92947 8.17223 7.92947 10.6327V11.6401ZM13.6265 11.6401H10.22V10.8598C10.22 9.69417 10.7665 8.9089 11.9322 8.9089C13.0978 8.9089 13.6265 9.69417 13.6265 10.8598V11.6401ZM12.7575 15.3301C12.933 15.1377 13.04 14.8817 13.04 14.6006C13.04 14.0025 12.5551 13.5176 11.957 13.5176C11.3588 13.5176 10.8739 14.0025 10.8739 14.6006C10.8739 14.8816 10.9809 15.1376 11.1564 15.3301L10.7196 16.5836C10.6064 16.9086 10.8477 17.2481 11.1918 17.2481H12.6896C13.0289 17.2481 13.2696 16.9175 13.1655 16.5946L12.7575 15.3301Z" fill="black"/>
</svg>
