<svg width="24" height="24" viewBox="0 0 24 24" fill="none" xmlns="http://www.w3.org/2000/svg">
<path fill-rule="evenodd" clip-rule="evenodd" d="M5 6C5 4.89543 5.89543 4 7 4H17C18.1046 4 19 4.89543 19 6V18C19 19.1046 18.1046 20 17 20H7C5.89543 20 5 19.1046 5 18V6ZM11.8597 8.31893C12.5 8.31893 13.0191 7.79982 13.0191 7.15946C13.0191 6.51911 12.5 6 11.8597 6C11.2193 6 10.7002 6.51911 10.7002 7.15946C10.7002 7.79982 11.2193 8.31893 11.8597 8.31893ZM15.4697 11.4124C15.6974 11.153 15.6718 10.7581 15.4124 10.5304C15.153 10.3026 14.7581 10.3283 14.5304 10.5876L11.3488 14.211L9.41924 12.4659C9.16323 12.2343 8.768 12.2542 8.53646 12.5102C8.30493 12.7662 8.32477 13.1614 8.58077 13.393L10.9808 15.5635C11.1049 15.6758 11.2688 15.7336 11.4359 15.724C11.603 15.7144 11.7592 15.6381 11.8697 15.5124L15.4697 11.4124Z" fill="black"/>
</svg>
