<svg width="24" height="24" viewBox="0 0 24 24" fill="none" xmlns="http://www.w3.org/2000/svg">
<path d="M10.1384 4.31909H5.80321C5.11294 4.31909 4.55333 4.87861 4.55329 5.56888C4.55321 7.01397 4.55337 8.45906 4.55337 9.90415C4.55337 10.2266 4.74618 10.5192 5.04538 10.6422C5.34458 10.7652 5.687 10.6987 5.91639 10.4693L7.24616 9.13953L9.87247 11.7658L7.24616 14.3921L5.91639 13.0624C5.687 12.833 5.34458 12.7665 5.04538 12.8895C4.74618 13.0125 4.55337 13.3051 4.55337 13.6275C4.55337 15.0726 4.55314 16.5178 4.55326 17.9629C4.55331 18.6531 5.11291 19.2126 5.80314 19.2126H10.1384C10.4609 19.2126 10.7534 19.0198 10.8765 18.7206C10.9995 18.4214 10.933 18.079 10.7036 17.8496L9.3738 16.5198L12.0001 13.8935L14.6264 16.5198L13.2966 17.8496C13.0673 18.079 13.0008 18.4214 13.1238 18.7206C13.2468 19.0198 13.5393 19.2126 13.8618 19.2126C15.3068 19.2126 16.7518 19.2126 18.1969 19.2126C18.8872 19.2126 19.4469 18.6529 19.4469 17.9626V13.6275C19.4469 13.3051 19.254 13.0125 18.9548 12.8895C18.6556 12.7665 18.3132 12.833 18.0838 13.0624L16.7541 14.3921L14.1278 11.7658L16.7541 9.13953L18.0838 10.4693C18.3132 10.6987 18.6556 10.7652 18.9548 10.6422C19.254 10.5192 19.4469 10.2266 19.4469 9.90415C19.4469 8.45902 19.4471 7.01388 19.447 5.56875C19.4469 4.87853 18.8873 4.31909 18.1971 4.31909H13.8618C13.5393 4.31909 13.2468 4.51191 13.1238 4.81111C13.0008 5.11031 13.0673 5.45273 13.2966 5.68211L14.6264 7.01189L12.0001 9.6382L9.3738 7.01189L10.7036 5.68211C10.933 5.45273 10.9995 5.11031 10.8765 4.81111C10.7534 4.51191 10.4609 4.31909 10.1384 4.31909Z" fill="black"/>
</svg>
