<svg width="24" height="24" viewBox="0 0 24 24" fill="none" xmlns="http://www.w3.org/2000/svg">
<path d="M15.7885 12.3673C16.1781 12.4542 16.5835 12.5 17 12.5C17.2872 12.4928 17.5696 12.4641 17.8454 12.4154C17.2702 15.0059 15.1491 17.0145 12.5 17.4236V20C12.5 20.5523 12.0523 21 11.5 21C10.9477 21 10.5 20.5523 10.5 20V17.4236C7.38491 16.9425 5 14.2498 5 11C5 10.4477 5.44772 10 6 10C6.55228 10 7 10.4477 7 11C7 13.4853 9.01472 15.5 11.5 15.5C13.5086 15.5 15.2098 14.184 15.7885 12.3673Z" fill="black"/>
<path d="M12.3136 4.11164C11.7973 4.95005 11.5 5.93898 11.5 7C11.5 9.09758 12.6621 10.9134 14.3804 11.8415C14.0166 13.0888 12.8647 14 11.5 14C9.84315 14 8.5 12.6569 8.5 11V7C8.5 5.34315 9.84315 4 11.5 4C11.782 4 12.0549 4.0389 12.3136 4.11164Z" fill="black"/>
<path fill-rule="evenodd" clip-rule="evenodd" d="M17 11C19.2091 11 21 9.20914 21 7C21 4.79086 19.2091 3 17 3C14.7909 3 13 4.79086 13 7C13 9.20914 14.7909 11 17 11ZM19.3169 6.31694C19.561 6.07286 19.561 5.67714 19.3169 5.43306C19.0729 5.18898 18.6771 5.18898 18.4331 5.43306L16.5 7.36612L15.5669 6.43306C15.3229 6.18898 14.9271 6.18898 14.6831 6.43306C14.439 6.67714 14.439 7.07286 14.6831 7.31694L16.0581 8.69194C16.3021 8.93602 16.6979 8.93602 16.9419 8.69194L19.3169 6.31694Z" fill="black"/>
</svg>
