<svg width="24" height="24" viewBox="0 0 24 24" fill="none" xmlns="http://www.w3.org/2000/svg">
<path d="M15.7885 12.6108C16.1781 12.6977 16.5835 12.7435 17 12.7435C17.2872 12.7363 17.5696 12.7077 17.8454 12.6589C17.2702 15.2494 15.1491 17.258 12.5 17.6671V20.2435C12.5 20.7958 12.0523 21.2435 11.5 21.2435C10.9477 21.2435 10.5 20.7958 10.5 20.2435V17.6671C7.38491 17.1861 5 14.4933 5 11.2435C5 10.6912 5.44772 10.2435 6 10.2435C6.55228 10.2435 7 10.6912 7 11.2435C7 13.7288 9.01472 15.7435 11.5 15.7435C13.5086 15.7435 15.2098 14.4276 15.7885 12.6108Z" fill="black"/>
<path d="M12.3136 4.35517C11.7973 5.19358 11.5 6.18251 11.5 7.24353C11.5 9.34111 12.6621 11.157 14.3804 12.0851C14.0166 13.3323 12.8647 14.2435 11.5 14.2435C9.84315 14.2435 8.5 12.9004 8.5 11.2435V7.24353C8.5 5.58668 9.84315 4.24353 11.5 4.24353C11.782 4.24353 12.0549 4.28243 12.3136 4.35517Z" fill="black"/>
<path fill-rule="evenodd" clip-rule="evenodd" d="M13 7.24353C13 9.45975 14.7838 11.2435 17 11.2435C19.1622 11.1895 20.9459 9.45975 21 7.24353C21 5.02731 19.2162 3.24353 17 3.24353C14.7838 3.24353 13 5.02731 13 7.24353ZM16.875 8.75907L18.375 7.89305C18.875 7.60437 18.875 6.88269 18.375 6.59401L16.875 5.72799C16.375 5.43931 15.75 5.80016 15.75 6.37751V8.10956C15.75 8.68691 16.375 9.04775 16.875 8.75907Z" fill="black"/>
</svg>
