<svg width="24" height="24" viewBox="0 0 24 24" fill="none" xmlns="http://www.w3.org/2000/svg">
<path d="M11.9222 4.79756C11.7378 4.76211 11.5473 4.74355 11.3525 4.74355C9.69568 4.74355 8.35254 6.08669 8.35254 7.74355V11.7435C8.35254 13.4004 9.69568 14.7435 11.3525 14.7435C12.8771 14.7435 14.1361 13.6063 14.3274 12.1338C12.5582 11.2211 11.3525 9.37702 11.3525 7.24355C11.3525 6.36405 11.5574 5.53373 11.9222 4.79756Z" fill="black"/>
<path d="M16.8713 12.7435H16.8525C16.4797 12.7435 16.1157 12.7067 15.7639 12.6365C15.3497 14.694 13.5321 16.2435 11.3525 16.2435C8.86726 16.2435 6.85254 14.2288 6.85254 11.7435C6.85254 11.1913 6.40482 10.7435 5.85254 10.7435C5.30025 10.7435 4.85254 11.1913 4.85254 11.7435C4.85254 14.9933 7.23745 17.6861 10.3525 18.1671V21.2435C10.3525 21.7958 10.8003 22.2435 11.3525 22.2435C11.9048 22.2435 12.3525 21.7958 12.3525 21.2435V18.1671C15.1735 17.7315 17.3956 15.4822 17.7901 12.6479C17.497 12.7031 17.1962 12.7354 16.89 12.7431L16.8713 12.7435Z" fill="black"/>
<path fill-rule="evenodd" clip-rule="evenodd" d="M16.8525 11.2435C14.6363 11.2435 12.8525 9.45976 12.8525 7.24355C12.8525 5.02733 14.6363 3.24355 16.8525 3.24355C19.0688 3.24355 20.8525 5.02733 20.8525 7.24355C20.7985 9.45976 19.0147 11.1895 16.8525 11.2435ZM18.7061 5.38999C18.9014 5.58525 18.9014 5.90184 18.7061 6.0971L17.5596 7.24355L18.7061 8.38999C18.9014 8.58525 18.9014 8.90184 18.7061 9.0971C18.5108 9.29236 18.1942 9.29236 17.999 9.0971L16.8525 7.95065L15.7061 9.0971C15.5108 9.29236 15.1942 9.29236 14.999 9.0971C14.8037 8.90184 14.8037 8.58525 14.999 8.38999L16.1454 7.24355L14.999 6.0971C14.8037 5.90184 14.8037 5.58525 14.999 5.38999C15.1942 5.19473 15.5108 5.19473 15.7061 5.38999L16.8525 6.53644L17.999 5.38999C18.1942 5.19473 18.5108 5.19473 18.7061 5.38999Z" fill="black"/>
</svg>
