<svg width="24" height="24" viewBox="0 0 24 24" fill="none" xmlns="http://www.w3.org/2000/svg">
<path d="M14.8126 6.23891C14.8126 4.60711 13.5564 3.27723 11.9999 3.27723C10.4502 3.27723 9.18723 4.59992 9.18723 6.23891V10.5161C9.18723 12.1479 10.4434 13.4778 11.9999 13.4778C13.5496 13.4778 14.8126 12.1551 14.8126 10.5161V6.23891Z" fill="black"/>
<path d="M11.9999 21.279C11.3752 21.279 10.8726 20.7777 10.8726 20.1547V17.1525C9.58713 16.9279 8.40194 16.3221 7.4546 15.3884C6.23389 14.1926 5.54455 12.5885 5.51582 10.8842C5.50864 10.2612 6.00411 9.75275 6.62164 9.73843C7.24636 9.7241 7.75618 10.2254 7.77055 10.8412C7.80645 13.1256 9.70932 14.9874 11.9999 14.9874C14.2906 14.9874 16.1934 13.1256 16.2293 10.8412C16.2365 10.2254 16.7463 9.73843 17.3567 9.73843H17.3782C18.0029 9.74559 18.4984 10.2612 18.484 10.8842C18.4553 12.5885 17.766 14.1854 16.5453 15.3884C15.6056 16.3255 14.4177 16.9324 13.1273 17.1549V20.1547C13.1273 20.7705 12.6246 21.279 11.9999 21.279Z" fill="black"/>
</svg>
