<svg width="24" height="24" viewBox="0 0 24 24" fill="none" xmlns="http://www.w3.org/2000/svg">
<path d="M16.4133 11.8832C16.9498 12.3656 17.7093 12.5017 18.3717 12.2915C17.8374 14.9416 15.6912 17.0079 13 17.4235V19.9999C13 20.5522 12.5523 20.9999 12 20.9999C11.4477 20.9999 11 20.5522 11 19.9999V17.4235C7.88491 16.9425 5.5 14.2497 5.5 10.9999C5.5 10.4476 5.94772 9.99991 6.5 9.99991C7.05228 9.99991 7.5 10.4476 7.5 10.9999C7.5 13.4852 9.51472 15.4999 12 15.4999C14.1829 15.4999 16.0029 13.9456 16.4133 11.8832Z" fill="black"/>
<path d="M11.8439 4.00391C11.4531 4.85164 11.7683 5.97519 12.7896 6.37797L13.0282 6.47207L13.1223 6.71067C13.1615 6.8101 13.2075 6.90284 13.2595 6.98889C12.8756 7.94548 13.249 9.16457 14.3798 9.61054L15 9.85516V10.9999C15 12.6568 13.6569 13.9999 12 13.9999C10.3431 13.9999 9 12.6568 9 10.9999V6.99991C9 5.39542 10.2596 4.08513 11.8439 4.00391Z" fill="black"/>
<path d="M14.9828 3.33967C14.8996 3.12864 14.6009 3.12864 14.5177 3.33967L14.2244 4.0833C14.199 4.14773 14.148 4.19873 14.0835 4.22415L13.3399 4.51743C13.1289 4.60066 13.1289 4.89933 13.3399 4.98256L14.0835 5.27584C14.148 5.30126 14.199 5.35226 14.2244 5.41669L14.5177 6.16032C14.6009 6.37135 14.8996 6.37135 14.9828 6.16032L15.2761 5.41669C15.3015 5.35226 15.3525 5.30126 15.4169 5.27584L16.1606 4.98256C16.3716 4.89933 16.3716 4.60066 16.1606 4.51743L15.4169 4.22415C15.3525 4.19873 15.3015 4.14773 15.2761 4.0833L14.9828 3.33967Z" fill="black"/>
<path d="M18.2159 4.92935C18.0494 4.50727 17.4521 4.50727 17.2856 4.92935L16.699 6.41661C16.6482 6.54547 16.5462 6.64747 16.4173 6.69829L14.9301 7.28486C14.508 7.45132 14.508 8.04866 14.9301 8.21512L16.4173 8.80169C16.5462 8.85251 16.6482 8.95451 16.699 9.08337L17.2856 10.5706C17.4521 10.9927 18.0494 10.9927 18.2159 10.5706L18.8024 9.08337C18.8533 8.95451 18.9553 8.85251 19.0841 8.80169L20.5714 8.21512C20.9934 8.04866 20.9934 7.45132 20.5714 7.28486L19.0841 6.69829C18.9553 6.64747 18.8533 6.54547 18.8024 6.41661L18.2159 4.92935Z" fill="black"/>
</svg>
