<svg width="24" height="24" viewBox="0 0 24 24" fill="none" xmlns="http://www.w3.org/2000/svg">
<path d="M14.8125 6.23891C14.8125 4.60711 13.5564 3.27723 11.9998 3.27723C10.4501 3.27723 9.18716 4.59992 9.18716 6.23891V10.5161C9.18716 12.1479 10.4433 13.4778 11.9998 13.4778C13.5495 13.4778 14.8125 12.1551 14.8125 10.5161V6.23891Z" fill="black"/>
<path d="M11.9999 21.279C11.3752 21.279 10.8725 20.7777 10.8725 20.1547V17.1525C9.58707 16.9279 8.40187 16.3221 7.45453 15.3884C6.23383 14.1926 5.54449 12.5885 5.51576 10.8842C5.50858 10.2612 6.00405 9.75275 6.62158 9.73843C7.2463 9.7241 7.75612 10.2254 7.77048 10.8412C7.80639 13.1256 9.70926 14.9874 11.9999 14.9874C14.2905 14.9874 16.1934 13.1256 16.2293 10.8412C16.2364 10.2254 16.7463 9.73843 17.3566 9.73843H17.3782C18.0029 9.74559 18.4983 10.2612 18.484 10.8842C18.4553 12.5885 17.7659 14.1854 16.5452 15.3884C15.6056 16.3255 14.4176 16.9324 13.1272 17.1549V20.1547C13.1272 20.7705 12.6246 21.279 11.9999 21.279Z" fill="black"/>
</svg>
