<svg width="24" height="24" viewBox="0 0 24 24" fill="none" xmlns="http://www.w3.org/2000/svg">
<path d="M11.9222 4.79816C11.7378 4.7627 11.5473 4.74414 11.3525 4.74414C9.69568 4.74414 8.35254 6.08729 8.35254 7.74414V11.7441C8.35254 13.401 9.69568 14.7441 11.3525 14.7441C12.8771 14.7441 14.1361 13.6069 14.3274 12.1344C12.5582 11.2217 11.3525 9.37761 11.3525 7.24414C11.3525 6.36465 11.5574 5.53433 11.9222 4.79816Z" fill="black"/>
<path d="M16.8713 12.7441H16.8525C16.4797 12.7441 16.1157 12.7073 15.7639 12.6371C15.3497 14.6946 13.5321 16.2441 11.3525 16.2441C8.86726 16.2441 6.85254 14.2294 6.85254 11.7441C6.85254 11.1919 6.40482 10.7441 5.85254 10.7441C5.30025 10.7441 4.85254 11.1919 4.85254 11.7441C4.85254 14.9939 7.23745 17.6867 10.3525 18.1677V21.2441C10.3525 21.7964 10.8003 22.2441 11.3525 22.2441C11.9048 22.2441 12.3525 21.7964 12.3525 21.2441V18.1677C15.1735 17.7321 17.3956 15.4828 17.7901 12.6485C17.497 12.7037 17.1962 12.736 16.89 12.7437L16.8713 12.7441Z" fill="black"/>
<path fill-rule="evenodd" clip-rule="evenodd" d="M16.8525 11.2441C14.6363 11.2441 12.8525 9.46036 12.8525 7.24414C12.8525 5.02792 14.6363 3.24414 16.8525 3.24414C19.0688 3.24414 20.8525 5.02792 20.8525 7.24414C20.7985 9.46036 19.0147 11.1901 16.8525 11.2441ZM18.7061 5.39059C18.9014 5.58585 18.9014 5.90243 18.7061 6.09769L17.5596 7.24414L18.7061 8.39059C18.9014 8.58585 18.9014 8.90243 18.7061 9.09769C18.5108 9.29296 18.1942 9.29296 17.999 9.09769L16.8525 7.95125L15.7061 9.09769C15.5108 9.29296 15.1942 9.29296 14.999 9.09769C14.8037 8.90243 14.8037 8.58585 14.999 8.39059L16.1454 7.24414L14.999 6.09769C14.8037 5.90243 14.8037 5.58585 14.999 5.39059C15.1942 5.19533 15.5108 5.19533 15.7061 5.39059L16.8525 6.53703L17.999 5.39059C18.1942 5.19533 18.5108 5.19533 18.7061 5.39059Z" fill="black"/>
</svg>
