<svg width="24" height="24" viewBox="0 0 24 24" fill="none" xmlns="http://www.w3.org/2000/svg">
<path d="M14.6605 6.23903C14.6605 4.60723 13.4043 3.27734 11.8478 3.27734C10.575 3.27734 9.49568 4.16956 9.15057 5.39644L14.6389 10.8848C14.6532 10.7641 14.6605 10.6411 14.6605 10.5162V6.23903Z" fill="black"/>
<path d="M12.2113 13.4534L13.4339 14.676C12.9426 14.8767 12.4068 14.9876 11.8479 14.9876C9.55733 14.9876 7.65446 13.1257 7.61855 10.8414C7.60419 10.2255 7.09437 9.72425 6.46965 9.73857C5.85212 9.75289 5.35665 10.2613 5.36383 10.8843C5.39255 12.5886 6.0819 14.1927 7.3026 15.3886C8.24994 16.3222 9.43513 16.9281 10.7206 17.1526V20.1549C10.7206 20.7779 11.2232 21.2791 11.8479 21.2791C12.4726 21.2791 12.9753 20.7707 12.9753 20.1549V17.1551C13.7382 17.0235 14.4653 16.7576 15.1265 16.3685L17.9515 19.1935C18.3484 19.5905 18.992 19.5905 19.389 19.1935C19.7859 18.7966 19.7859 18.153 19.389 17.756L16.6993 15.0663C17.7288 13.9073 18.3058 12.4406 18.3321 10.8843C18.3464 10.2613 17.851 9.74573 17.2262 9.73857H17.2047C16.5943 9.73857 16.0845 10.2255 16.0773 10.8414C16.0617 11.8339 15.6937 12.7466 15.0945 13.4616L6.68493 5.05199C6.28797 4.65503 5.64438 4.65503 5.24742 5.05199C4.85047 5.44894 4.85047 6.09254 5.24742 6.48949L9.03516 10.2772V10.5162C9.03516 12.148 10.2913 13.4779 11.8478 13.4779C11.9709 13.4779 12.0923 13.4695 12.2113 13.4534Z" fill="black"/>
</svg>
