<svg width="24" height="24" viewBox="0 0 24 24" fill="none" xmlns="http://www.w3.org/2000/svg">
<path d="M16.0006 12.2195C16.5529 12.2195 17.0007 12.6672 17.0007 13.2195C17.0006 15.9156 15.0605 18.1566 12.5004 18.6271V20.2199C12.5004 20.7722 12.0526 21.22 11.5003 21.22C10.948 21.22 10.5003 20.7722 10.5003 20.2199V18.6271C7.94019 18.1566 6.00002 15.9156 6 13.2195C6 12.6672 6.44774 12.2195 7.00006 12.2195C7.55238 12.2195 8.00012 12.6672 8.00012 13.2195C8.00014 15.1526 9.56723 16.7197 11.5003 16.7197C13.4334 16.7197 15.0005 15.1526 15.0005 13.2195C15.0005 12.6672 15.4483 12.2195 16.0006 12.2195Z" fill="black"/>
<path d="M11.5003 8.21923C12.605 8.21923 13.5004 9.11471 13.5004 10.2193V13.2195C13.5004 14.3241 12.6049 15.2196 11.5003 15.2196C10.3957 15.2196 9.50023 14.3241 9.50021 13.2195V10.2193C9.50021 9.11471 10.3957 8.21923 11.5003 8.21923Z" fill="black"/>
<path d="M12.4354 6.00425C12.5943 5.62174 13.0334 5.44021 13.416 5.59895C14.6388 6.10639 15.6157 7.08429 16.1222 8.30761C16.2806 8.69035 16.0986 9.1292 15.7159 9.28765C15.3332 9.446 14.8948 9.26407 14.7364 8.88138C14.382 8.02542 13.6964 7.33983 12.8407 6.98478C12.4582 6.82598 12.2767 6.38682 12.4354 6.00425Z" fill="black"/>
<path d="M13.4873 3.46309C13.6459 3.08052 14.0847 2.89876 14.4673 3.0573C16.3617 3.84297 17.8761 5.35755 18.6619 7.25188C18.8205 7.63448 18.6392 8.07323 18.2566 8.23192C17.874 8.39059 17.4353 8.20909 17.2765 7.82663C16.6431 6.2994 15.4203 5.07659 13.893 4.44312C13.5105 4.28446 13.3287 3.84567 13.4873 3.46309Z" fill="black"/>
</svg>
