<svg width="24" height="24" viewBox="0 0 24 24" fill="none" xmlns="http://www.w3.org/2000/svg">
<path d="M14.6605 6.23891C14.6605 4.6071 13.4043 3.27722 11.8478 3.27722C10.575 3.27722 9.49568 4.16944 9.15057 5.39632L14.6389 10.8847C14.6532 10.7639 14.6605 10.6409 14.6605 10.5161V6.23891Z" fill="black"/>
<path d="M12.2113 13.4532L13.4339 14.6758C12.9426 14.8766 12.4068 14.9874 11.8479 14.9874C9.55733 14.9874 7.65446 13.1256 7.61855 10.8412C7.60419 10.2254 7.09437 9.72413 6.46965 9.73845C5.85212 9.75277 5.35665 10.2612 5.36383 10.8842C5.39255 12.5885 6.0819 14.1926 7.3026 15.3885C8.24994 16.3221 9.43513 16.9279 10.7206 17.1525V20.1547C10.7206 20.7778 11.2232 21.279 11.8479 21.279C12.4726 21.279 12.9753 20.7706 12.9753 20.1547V17.155C13.7382 17.0234 14.4653 16.7575 15.1265 16.3684L17.9515 19.1934C18.3484 19.5904 18.992 19.5904 19.389 19.1934C19.7859 18.7965 19.7859 18.1529 19.389 17.7559L16.6993 15.0662C17.7288 13.9072 18.3058 12.4405 18.3321 10.8842C18.3464 10.2612 17.851 9.74561 17.2262 9.73845H17.2047C16.5943 9.73845 16.0845 10.2254 16.0773 10.8412C16.0617 11.8338 15.6937 12.7465 15.0945 13.4615L6.68493 5.05187C6.28797 4.65491 5.64438 4.65491 5.24742 5.05187C4.85047 5.44882 4.85047 6.09242 5.24742 6.48937L9.03516 10.2771V10.5161C9.03516 12.1479 10.2913 13.4778 11.8478 13.4778C11.9709 13.4778 12.0923 13.4694 12.2113 13.4532Z" fill="black"/>
</svg>
