<svg width="24" height="24" viewBox="0 0 24 24" fill="none" xmlns="http://www.w3.org/2000/svg">
<path d="M14.8124 6.23903C14.8124 4.60723 13.5563 3.27734 11.9998 3.27734C10.4501 3.27734 9.1871 4.60004 9.1871 6.23903V10.5162C9.1871 12.148 10.4432 13.4779 11.9998 13.4779C13.5495 13.4779 14.8124 12.1552 14.8124 10.5162V6.23903Z" fill="black"/>
<path d="M11.9998 21.2791C11.3751 21.2791 10.8725 20.7778 10.8725 20.1548V17.1526C9.58701 16.928 8.40181 16.3222 7.45447 15.3886C6.23377 14.1927 5.54442 12.5886 5.5157 10.8843C5.50852 10.2613 6.00399 9.75286 6.62152 9.73854C7.24624 9.72422 7.75606 10.2255 7.77042 10.8413C7.80633 13.1257 9.7092 14.9875 11.9998 14.9875C14.2904 14.9875 16.1933 13.1257 16.2292 10.8413C16.2364 10.2255 16.7462 9.73854 17.3566 9.73854H17.3781C18.0028 9.7457 18.4983 10.2613 18.4839 10.8843C18.4552 12.5886 17.7659 14.1855 16.5452 15.3886C15.6055 16.3256 14.4175 16.9325 13.1272 17.155V20.1548C13.1272 20.7707 12.6245 21.2791 11.9998 21.2791Z" fill="black"/>
</svg>
