<svg width="24" height="24" viewBox="0 0 24 24" fill="none" xmlns="http://www.w3.org/2000/svg">
<path d="M6.70704 4.79283C6.31651 4.40237 5.6834 4.40239 5.29289 4.79289C4.90237 5.18342 4.90237 5.81658 5.29289 6.20711L9 9.91421V11C9 12.6569 10.3431 14 12 14C12.3271 14 12.642 13.9477 12.9367 13.8509L14.0782 14.9924C13.4565 15.3167 12.7497 15.5 12 15.5C9.51472 15.5 7.5 13.4853 7.5 11C7.5 10.4477 7.05228 10 6.5 10C5.94772 10 5.5 10.4477 5.5 11C5.5 14.2498 7.88491 16.9425 11 17.4236V20C11 20.5523 11.4477 21 12 21C12.5523 21 13 20.5523 13 20V17.4236C13.9251 17.2807 14.7859 16.9428 15.5389 16.4531L17.7929 18.7071C18.1834 19.0976 18.8166 19.0976 19.2071 18.7071C19.5976 18.3166 19.5976 17.6834 19.2071 17.2929L6.70704 4.79283Z" fill="black"/>
<path d="M9.45168 5.41617L15 10.9645V7C15 5.34315 13.6569 4 12 4C10.9245 4 9.98126 4.5659 9.45168 5.41617Z" fill="black"/>
<path d="M16.3154 12.2799L17.8572 13.8217C18.2691 12.9683 18.5 12.0111 18.5 11C18.5 10.4477 18.0523 10 17.5 10C16.9477 10 16.5 10.4477 16.5 11C16.5 11.4446 16.4355 11.8742 16.3154 12.2799Z" fill="black"/>
</svg>
