<svg width="24" height="24" viewBox="0 0 24 24" fill="none" xmlns="http://www.w3.org/2000/svg">
<path d="M17.0617 12.3695L17.0804 12.3703L17.0992 12.3706C17.4588 12.3768 17.8121 12.3472 18.1553 12.2849C17.8755 13.4523 17.2721 14.5225 16.3933 15.3886C15.4536 16.3257 14.2657 16.9326 12.9753 17.1551V20.1549C12.9753 20.7707 12.4726 21.2792 11.8479 21.2792C11.2232 21.2792 10.7206 20.7779 10.7206 20.1549V17.1526C9.43514 16.9281 8.24995 16.3222 7.30262 15.3886C6.08191 14.1927 5.39257 12.5886 5.36385 10.8843C5.35667 10.2613 5.85213 9.7529 6.46967 9.73858C7.09438 9.72426 7.60421 10.2255 7.61857 10.8414C7.65447 13.1257 9.55734 14.9876 11.848 14.9876C13.6715 14.9876 15.2492 13.8077 15.835 12.174C16.2264 12.2846 16.637 12.3517 17.0617 12.3695Z" fill="black"/>
<path d="M13.2466 3.6689C12.5139 4.53392 12.0533 5.64147 12.0018 6.86555C11.9189 8.83752 12.9195 10.5972 14.4768 11.5717C14.0724 12.6876 13.0458 13.4779 11.8479 13.4779C10.2914 13.4779 9.03528 12.148 9.03528 10.5162V6.23903C9.03528 4.60004 10.2982 3.27734 11.8479 3.27734C12.3575 3.27734 12.8349 3.41989 13.2466 3.6689Z" fill="black"/>
<path fill-rule="evenodd" clip-rule="evenodd" d="M13.5006 6.92854C13.4125 9.02467 15.0287 10.7827 17.1248 10.8708C19.172 10.9057 20.9279 9.34062 21.0671 7.24664C21.1553 5.15052 19.5391 3.39246 17.4429 3.30434C15.3468 3.21622 13.5888 4.83242 13.5006 6.92854ZM15.8357 6.71544C15.5916 6.47136 15.1959 6.47136 14.9518 6.71544C14.7078 6.95951 14.7078 7.35524 14.9518 7.59932L16.2813 8.92873C16.5253 9.17281 16.9211 9.17281 17.1651 8.92873L19.3653 6.72856C19.6094 6.48448 19.6094 6.08875 19.3653 5.84467C19.1212 5.60059 18.7255 5.60059 18.4814 5.84467L16.7232 7.6029L15.8357 6.71544Z" fill="black"/>
</svg>
