<svg width="24" height="24" viewBox="0 0 24 24" fill="none" xmlns="http://www.w3.org/2000/svg">
<path d="M17.0617 12.3694L17.0804 12.3702L17.0992 12.3705C17.4588 12.3766 17.8121 12.347 18.1553 12.2848C17.8755 13.4522 17.2721 14.5224 16.3933 15.3885C15.4536 16.3256 14.2657 16.9324 12.9753 17.155V20.1548C12.9753 20.7706 12.4726 21.279 11.8479 21.279C11.2232 21.279 10.7206 20.7778 10.7206 20.1548V17.1525C9.43514 16.928 8.24995 16.3221 7.30262 15.3885C6.08191 14.1926 5.39257 12.5885 5.36385 10.8842C5.35667 10.2612 5.85213 9.75278 6.46967 9.73846C7.09438 9.72414 7.60421 10.2254 7.61857 10.8413C7.65447 13.1256 9.55734 14.9875 11.848 14.9875C13.6715 14.9875 15.2492 13.8075 15.835 12.1738C16.2264 12.2845 16.637 12.3516 17.0617 12.3694Z" fill="black"/>
<path d="M13.2466 3.66878C12.5139 4.5338 12.0533 5.64135 12.0018 6.86542C11.9189 8.8374 12.9195 10.5971 14.4768 11.5716C14.0724 12.6874 13.0458 13.4778 11.8479 13.4778C10.2914 13.4778 9.03528 12.1479 9.03528 10.5161V6.23891C9.03528 4.59992 10.2982 3.27722 11.8479 3.27722C12.3575 3.27722 12.8349 3.41976 13.2466 3.66878Z" fill="black"/>
<path fill-rule="evenodd" clip-rule="evenodd" d="M13.5006 6.92842C13.4125 9.02455 15.0287 10.7826 17.1248 10.8707C19.172 10.9056 20.9279 9.3405 21.0671 7.24652C21.1553 5.1504 19.5391 3.39234 17.4429 3.30422C15.3468 3.2161 13.5888 4.8323 13.5006 6.92842ZM15.8357 6.71531C15.5916 6.47124 15.1959 6.47124 14.9518 6.71531C14.7078 6.95939 14.7078 7.35512 14.9518 7.5992L16.2813 8.92861C16.5253 9.17269 16.9211 9.17269 17.1651 8.92861L19.3653 6.72843C19.6094 6.48436 19.6094 6.08863 19.3653 5.84455C19.1212 5.60047 18.7255 5.60047 18.4814 5.84455L16.7232 7.60278L15.8357 6.71531Z" fill="black"/>
</svg>
