<svg width="24" height="24" viewBox="0 0 24 24" fill="none" xmlns="http://www.w3.org/2000/svg">
<path d="M14.2533 10.6252L11.4067 5.51746C10.8342 4.4903 9.35625 4.49129 8.78518 5.51922L3.33716 15.3256C2.78172 16.3254 3.50467 17.5541 4.6484 17.5541H10.3942C10.3981 17.547 10.402 17.5399 10.406 17.5328C10.7902 16.8394 11.3223 15.8803 11.9135 14.8171C12.6581 13.478 13.4973 11.9726 14.2533 10.6252Z" fill="black"/>
<path d="M15.887 10.7796C15.0549 12.2591 14.0784 14.0103 13.2244 15.5461C12.8144 16.2835 12.4328 16.9709 12.1093 17.5541H14.658L14.664 17.5541H19.5773C20.7219 17.5541 21.4448 16.3237 20.8876 15.3239L18.4271 10.9089C17.8801 9.92739 16.5063 9.88465 15.887 10.7796Z" fill="black"/>
<path d="M15.887 10.7796C15.0549 12.2591 14.0784 14.0103 13.2244 15.5461C12.8144 16.2835 12.4328 16.9709 12.1093 17.5541H14.658L14.664 17.5541H19.5773C20.7219 17.5541 21.4448 16.3237 20.8876 15.3239L18.4271 10.9089C17.8801 9.92739 16.5063 9.88465 15.887 10.7796Z" fill="black"/>
</svg>
