<svg width="24" height="24" viewBox="0 0 24 24" fill="none" xmlns="http://www.w3.org/2000/svg">
<path d="M13.4142 13.4142C14.1952 12.6332 14.1952 11.3668 13.4142 10.5858C12.6331 9.80474 11.3668 9.80474 10.5857 10.5858C9.80468 11.3668 9.80468 12.6332 10.5857 13.4142C11.3668 14.1953 12.6331 14.1953 13.4142 13.4142Z" fill="black"/>
<path fill-rule="evenodd" clip-rule="evenodd" d="M10.5196 4.78704C11.0066 4.9234 11.5025 5.10834 11.9999 5.33866C12.4973 5.10834 12.9933 4.92341 13.4803 4.78705C15.2393 4.29453 17.1163 4.38845 18.3639 5.63605C19.6115 6.88365 19.7054 8.76066 19.2129 10.5196C19.0765 11.0066 18.8916 11.5026 18.6613 12C18.8916 12.4974 19.0766 12.9934 19.2129 13.4804C19.7054 15.2394 19.6115 17.1164 18.3639 18.364C17.1163 19.6116 15.2393 19.7055 13.4803 19.213C12.9933 19.0766 12.4974 18.8917 11.9999 18.6614C11.5025 18.8917 11.0066 19.0766 10.5196 19.213C8.76059 19.7055 6.88358 19.6116 5.63598 18.364C4.38838 17.1164 4.29446 15.2394 4.78698 13.4804C4.92334 12.9934 5.10827 12.4974 5.3386 12C5.10828 11.5026 4.92335 11.0066 4.78699 10.5196C4.29447 8.76066 4.38839 6.88365 5.63599 5.63605C6.88359 4.38845 8.7606 4.29453 10.5196 4.78704ZM7.0502 7.05026C7.53701 6.56345 8.45296 6.3311 9.78861 6.66233C9.21121 7.0894 8.64772 7.57406 8.11085 8.11092C7.574 8.64778 7.08934 9.21127 6.66228 9.78866C6.33105 8.45301 6.56339 7.53707 7.0502 7.05026ZM15.889 8.11092C16.4259 8.64778 16.9106 9.21127 17.3376 9.78866C17.6688 8.45301 17.4365 7.53707 16.9497 7.05026C16.4399 6.5405 15.4596 6.30976 14.0196 6.71298C12.6142 7.10649 10.9887 8.06148 9.52507 9.52514C8.72756 10.3226 8.08106 11.1682 7.59413 12C8.08106 12.8318 8.72756 13.6774 9.52508 14.4749C9.88213 14.8319 10.2488 15.1587 10.6196 15.4545C10.267 15.6255 9.92954 15.7567 9.61585 15.8485C9.06051 16.0112 8.66919 16.0285 8.42438 15.9967C8.18878 15.966 8.11799 15.8962 8.11084 15.8891C7.57399 15.3522 7.08933 14.7887 6.66227 14.2113C6.33103 15.547 6.56338 16.4629 7.05019 16.9498C7.55995 17.4595 8.54027 17.6903 9.98031 17.287C11.3857 16.8935 13.0112 15.9385 14.4748 14.4749C15.2723 13.6774 15.9188 12.8318 16.4058 12C15.9188 11.1682 15.2723 10.3226 14.4748 9.52514C14.1178 9.16807 13.7511 8.84128 13.3803 8.54553C13.7329 8.37455 14.0703 8.24335 14.384 8.15146C14.9394 7.98878 15.3307 7.97146 15.5755 8.00335C15.8111 8.03404 15.8819 8.10378 15.889 8.11092ZM16.9497 16.9498C17.4365 16.4629 17.6689 15.547 17.3376 14.2113C16.9106 14.7887 16.4259 15.3522 15.889 15.8891C15.3522 16.426 14.7887 16.9106 14.2113 17.3377C15.5469 17.6689 16.4629 17.4366 16.9497 16.9498Z" fill="black"/>
</svg>
