<svg width="24" height="24" viewBox="0 0 24 24" fill="none" xmlns="http://www.w3.org/2000/svg">
<path d="M13.4142 13.4142C14.1953 12.6332 14.1953 11.3668 13.4142 10.5858C12.6332 9.80473 11.3668 9.80473 10.5858 10.5858C9.80474 11.3668 9.80474 12.6332 10.5858 13.4142C11.3668 14.1953 12.6332 14.1953 13.4142 13.4142Z" fill="black"/>
<path fill-rule="evenodd" clip-rule="evenodd" d="M10.5196 4.78704C11.0066 4.9234 11.5026 5.10833 12 5.33865C12.4974 5.10833 12.9934 4.9234 13.4804 4.78704C15.2394 4.29452 17.1164 4.38845 18.364 5.63604C19.6116 6.88364 19.7055 8.76065 19.213 10.5196C19.0766 11.0066 18.8917 11.5026 18.6614 12C18.8917 12.4974 19.0766 12.9934 19.213 13.4804C19.7055 15.2394 19.6116 17.1164 18.364 18.364C17.1164 19.6116 15.2394 19.7055 13.4804 19.213C12.9934 19.0766 12.4974 18.8917 12 18.6614C11.5026 18.8917 11.0066 19.0766 10.5196 19.213C8.76065 19.7055 6.88364 19.6116 5.63604 18.364C4.38844 17.1164 4.29452 15.2394 4.78704 13.4804C4.9234 12.9934 5.10834 12.4974 5.33866 12C5.10834 11.5026 4.92341 11.0066 4.78705 10.5196C4.29453 8.76065 4.38845 6.88364 5.63605 5.63604C6.88365 4.38844 8.76066 4.29452 10.5196 4.78704ZM7.05027 7.05025C7.53708 6.56344 8.45302 6.3311 9.78867 6.66233C9.21127 7.08939 8.64778 7.57405 8.11091 8.11092C7.57406 8.64777 7.0894 9.21126 6.66234 9.78866C6.33111 8.453 6.56346 7.53706 7.05027 7.05025ZM15.8891 8.11091C16.426 8.64777 16.9106 9.21126 17.3377 9.78865C17.6689 8.453 17.4366 7.53707 16.9497 7.05026C16.44 6.54049 15.4597 6.30976 14.0196 6.71297C12.6142 7.10648 10.9888 8.06147 9.52513 9.52513C8.72762 10.3226 8.08112 11.1682 7.59419 12C8.08112 12.8318 8.72762 13.6774 9.52514 14.4749C9.8822 14.8319 10.2489 15.1587 10.6196 15.4545C10.2671 15.6254 9.92961 15.7566 9.61591 15.8485C9.06057 16.0112 8.66925 16.0285 8.42444 15.9966C8.18884 15.966 8.11805 15.8962 8.11091 15.8891C7.57405 15.3522 7.08939 14.7887 6.66233 14.2113C6.33109 15.547 6.56344 16.4629 7.05025 16.9498C7.56002 17.4595 8.54033 17.6903 9.98037 17.287C11.3858 16.8935 13.0112 15.9385 14.4749 14.4749C15.2724 13.6774 15.9189 12.8318 16.4058 12C15.9189 11.1682 15.2724 10.3226 14.4749 9.52513C14.1178 9.16807 13.7511 8.84128 13.3804 8.54552C13.7329 8.37454 14.0704 8.24334 14.3841 8.15145C14.9394 7.98878 15.3308 7.97145 15.5756 8.00334C15.8112 8.03403 15.882 8.10377 15.8891 8.11091ZM16.9498 16.9497C17.4366 16.4629 17.6689 15.547 17.3377 14.2113C16.9106 14.7887 16.426 15.3522 15.8891 15.8891C15.3522 16.426 14.7887 16.9106 14.2113 17.3377C15.547 17.6689 16.4629 17.4366 16.9498 16.9497Z" fill="black"/>
</svg>
