<svg width="24" height="24" viewBox="0 0 24 24" fill="none" xmlns="http://www.w3.org/2000/svg">
<path fill-rule="evenodd" clip-rule="evenodd" d="M9.32843 4C8.79799 4 8.28929 4.21072 7.91421 4.58579L4.58579 7.91422C4.21071 8.28929 4 8.798 4 9.32843V14.6716C4 15.202 4.21071 15.7107 4.58579 16.0858L7.91421 19.4142C8.28929 19.7893 8.79799 20 9.32843 20H14.6716C15.202 20 15.7107 19.7893 16.0858 19.4142L19.4142 16.0858C19.7893 15.7107 20 15.202 20 14.6716V9.32843C20 8.798 19.7893 8.28929 19.4142 7.91422L16.0858 4.58579C15.7107 4.21072 15.202 4 14.6716 4H9.32843ZM11.9997 14C11.2953 14 10.7108 13.4557 10.6606 12.7532L10.3743 8.74555C10.307 7.80231 11.054 7 11.9997 7C12.9453 7 13.6924 7.80231 13.625 8.74555L13.3387 12.7532C13.2885 13.4557 12.704 14 11.9997 14ZM11.9997 15C12.69 15 13.2497 15.5596 13.2497 16.25C13.2497 16.9404 12.69 17.5 11.9997 17.5C11.3093 17.5 10.7497 16.9404 10.7497 16.25C10.7497 15.5596 11.3093 15 11.9997 15Z" fill="black"/>
</svg>
