<svg width="24" height="24" viewBox="0 0 24 24" fill="none" xmlns="http://www.w3.org/2000/svg">
<path d="M20 11.7461C20 11.7743 20 11.8025 20 11.8306C19.9875 12.9735 18.9479 13.75 17.8051 13.75H14.7397C13.91 13.75 13.2368 14.4232 13.2368 15.2529C13.2368 15.3594 13.2493 15.4627 13.2681 15.5629C13.3339 15.8823 13.4716 16.1891 13.6063 16.4991C13.7973 16.9312 13.9851 17.3602 13.9851 17.8142C13.9851 18.8099 13.3088 19.7148 12.3131 19.7555C12.2036 19.7586 12.094 19.7617 11.9812 19.7617C7.55699 19.7617 3.96875 16.1735 3.96875 11.7461C3.96875 7.31871 7.55699 3.73047 11.9844 3.73047C16.4118 3.73047 20 7.31871 20 11.7461ZM7.97656 12.748C7.97656 12.1938 7.52881 11.7461 6.97461 11.7461C6.4204 11.7461 5.97266 12.1938 5.97266 12.748C5.97266 13.3023 6.4204 13.75 6.97461 13.75C7.52881 13.75 7.97656 13.3023 7.97656 12.748ZM7.97656 9.74219C8.53077 9.74219 8.97852 9.29444 8.97852 8.74023C8.97852 8.18603 8.53077 7.73828 7.97656 7.73828C7.42236 7.73828 6.97461 8.18603 6.97461 8.74023C6.97461 9.29444 7.42236 9.74219 7.97656 9.74219ZM12.9863 6.73633C12.9863 6.18212 12.5386 5.73438 11.9844 5.73438C11.4302 5.73438 10.9824 6.18212 10.9824 6.73633C10.9824 7.29053 11.4302 7.73828 11.9844 7.73828C12.5386 7.73828 12.9863 7.29053 12.9863 6.73633ZM15.9922 9.74219C16.5464 9.74219 16.9941 9.29444 16.9941 8.74023C16.9941 8.18603 16.5464 7.73828 15.9922 7.73828C15.438 7.73828 14.9902 8.18603 14.9902 8.74023C14.9902 9.29444 15.438 9.74219 15.9922 9.74219Z" fill="black"/>
</svg>
