<svg width="24" height="24" viewBox="0 0 24 24" fill="none" xmlns="http://www.w3.org/2000/svg">
<path d="M20 11.7469C20 11.7751 20 11.8033 20 11.8315C19.9875 12.9743 18.9479 13.7509 17.8051 13.7509H14.7397C13.91 13.7509 13.2368 14.424 13.2368 15.2538C13.2368 15.3602 13.2493 15.4636 13.2681 15.5638C13.3339 15.8831 13.4716 16.19 13.6063 16.5C13.7973 16.9321 13.9852 17.361 13.9852 17.815C13.9852 18.8107 13.3088 19.7156 12.3131 19.7563C12.2036 19.7594 12.094 19.7626 11.9812 19.7626C7.55699 19.7626 3.96875 16.1743 3.96875 11.7469C3.96875 7.31957 7.55699 3.73132 11.9844 3.73132C16.4118 3.73132 20 7.31957 20 11.7469ZM7.97656 12.7489C7.97656 12.1947 7.52881 11.7469 6.97461 11.7469C6.4204 11.7469 5.97266 12.1947 5.97266 12.7489C5.97266 13.3031 6.4204 13.7509 6.97461 13.7509C7.52881 13.7509 7.97656 13.3031 7.97656 12.7489ZM7.97656 9.74304C8.53077 9.74304 8.97852 9.29529 8.97852 8.74109C8.97852 8.18688 8.53077 7.73914 7.97656 7.73914C7.42236 7.73914 6.97461 8.18688 6.97461 8.74109C6.97461 9.29529 7.42236 9.74304 7.97656 9.74304ZM12.9863 6.73718C12.9863 6.18298 12.5386 5.73523 11.9844 5.73523C11.4302 5.73523 10.9824 6.18298 10.9824 6.73718C10.9824 7.29139 11.4302 7.73914 11.9844 7.73914C12.5386 7.73914 12.9863 7.29139 12.9863 6.73718ZM15.9922 9.74304C16.5464 9.74304 16.9941 9.29529 16.9941 8.74109C16.9941 8.18688 16.5464 7.73914 15.9922 7.73914C15.438 7.73914 14.9902 8.18688 14.9902 8.74109C14.9902 9.29529 15.438 9.74304 15.9922 9.74304Z" fill="black"/>
</svg>
