<svg width="24" height="24" viewBox="0 0 24 24" fill="none" xmlns="http://www.w3.org/2000/svg">
<path d="M8 7.25C7.86193 7.25 7.75 7.36193 7.75 7.5V9.5C7.75 9.63807 7.86193 9.75 8 9.75H12.5C12.6381 9.75 12.75 9.63807 12.75 9.5V7.5C12.75 7.36193 12.6381 7.25 12.5 7.25H8Z" fill="black"/>
<path fill-rule="evenodd" clip-rule="evenodd" d="M14.4965 3.01302C15.6024 3.01291 16.5 3.90883 16.5 5.01478V15C16.5 15.4142 16.8358 15.75 17.25 15.75C17.6642 15.75 18 15.4142 18 15V9.00862C18.1661 9.00866 18.3319 9.00868 18.4975 9.00868C19.6031 9.00869 20.5 9.90448 20.5 11.01V17C20.5 19.2091 18.7091 21 16.5 21H7.5C5.29086 21 3.5 19.2091 3.5 17V5.00005C3.5 3.89545 4.39546 2.99999 5.50005 3.00122C6.60956 3.00246 7.73006 3.00446 8.85336 3.00647C10.7395 3.00984 12.6335 3.01322 14.4965 3.01302ZM6.25 7.5C6.25 6.5335 7.0335 5.75 8 5.75H12.5C13.4665 5.75 14.25 6.5335 14.25 7.5V9.5C14.25 10.4665 13.4665 11.25 12.5 11.25H8C7.0335 11.25 6.25 10.4665 6.25 9.5V7.5ZM6 14.25C6 13.8358 6.33579 13.5 6.75 13.5H13.25C13.6642 13.5 14 13.8358 14 14.25C14 14.6642 13.6642 15 13.25 15H6.75C6.33579 15 6 14.6642 6 14.25ZM6.75 16.5C6.33579 16.5 6 16.8358 6 17.25C6 17.6642 6.33579 18 6.75 18H13.25C13.6642 18 14 17.6642 14 17.25C14 16.8358 13.6642 16.5 13.25 16.5H6.75Z" fill="black"/>
</svg>
