<svg width="24" height="24" viewBox="0 0 24 24" fill="none" xmlns="http://www.w3.org/2000/svg">
<path fill-rule="evenodd" clip-rule="evenodd" d="M16.5 5.01478C16.5 3.90883 15.6024 3.01291 14.4965 3.01302C12.6335 3.01322 10.7395 3.00984 8.85336 3.00647C7.73006 3.00446 6.60956 3.00246 5.50005 3.00122C4.39546 2.99999 3.5 3.89545 3.5 5.00005V17C3.5 19.2091 5.29086 21 7.5 21H16.5C18.7091 21 20.5 19.2091 20.5 17V11.01C20.5 9.90448 19.6031 9.00869 18.4975 9.00868L18 9.00862V15C18 15.4142 17.6642 15.75 17.25 15.75C16.8358 15.75 16.5 15.4142 16.5 15V5.01478ZM7 6.53078C7 6.07191 7.3123 5.67193 7.75746 5.56063L9.75746 5.06063C9.9167 5.02082 10.0833 5.02082 10.2425 5.06063L12.2425 5.56063C12.6877 5.67193 13 6.07191 13 6.53078V7.60545C13 9.33405 11.8939 10.8687 10.254 11.4153C10.0891 11.4703 9.91088 11.4703 9.74601 11.4153C8.10612 10.8687 7 9.33405 7 7.60545V6.53078ZM6.375 14.25C6.375 13.9048 6.65482 13.625 7 13.625H13C13.3452 13.625 13.625 13.9048 13.625 14.25C13.625 14.5952 13.3452 14.875 13 14.875H7C6.65482 14.875 6.375 14.5952 6.375 14.25ZM7 16.625C6.65482 16.625 6.375 16.9048 6.375 17.25C6.375 17.5952 6.65482 17.875 7 17.875H13C13.3452 17.875 13.625 17.5952 13.625 17.25C13.625 16.9048 13.3452 16.625 13 16.625H7Z" fill="black"/>
</svg>
