<svg width="24" height="24" viewBox="0 0 24 24" fill="none" xmlns="http://www.w3.org/2000/svg">
<path fill-rule="evenodd" clip-rule="evenodd" d="M14.4965 3.01375C15.6024 3.01364 16.5 3.90956 16.5 5.01552V15.002C16.5007 15.4156 16.8362 15.7508 17.25 15.7508C17.6642 15.7508 18 15.415 18 15.0008L18 9.00901C18.1551 9.00918 18.3195 9.00932 18.4962 9.00939C19.6018 9.00985 20.5 9.90526 20.5 11.0108V17.0008C20.5 19.2099 18.7094 21.0008 16.5003 21.0008H14.3824C14.3785 21.0008 14.3746 21.0007 14.3708 21.0007H7.5C5.29086 21.0007 3.5 19.2099 3.5 17.0007V5.00078C3.5 3.89619 4.39546 3.00072 5.50005 3.00195C6.60956 3.00319 7.73006 3.00519 8.85336 3.0072C10.7395 3.01057 12.6335 3.01395 14.4965 3.01375ZM12.5323 6.47039C12.8252 6.76328 12.8252 7.23815 12.5323 7.53105L10.0323 10.031C9.73939 10.3239 9.26452 10.3239 8.97162 10.031L7.47162 8.53104C7.17873 8.23815 7.17873 7.76328 7.47162 7.47039C7.76452 7.17749 8.23939 7.17749 8.53228 7.47039L9.50195 8.44005L11.4716 6.47039C11.7645 6.17749 12.2394 6.17749 12.5323 6.47039ZM7 13.6257C6.65482 13.6257 6.375 13.9055 6.375 14.2507C6.375 14.5959 6.65482 14.8757 7 14.8757H13C13.3452 14.8757 13.625 14.5959 13.625 14.2507C13.625 13.9055 13.3452 13.6257 13 13.6257H7ZM6.375 17.2507C6.375 16.9055 6.65482 16.6257 7 16.6257H13C13.3452 16.6257 13.625 16.9055 13.625 17.2507C13.625 17.5959 13.3452 17.8757 13 17.8757H7C6.65482 17.8757 6.375 17.5959 6.375 17.2507Z" fill="black"/>
</svg>
