<svg width="24" height="24" viewBox="0 0 24 24" fill="none" xmlns="http://www.w3.org/2000/svg">
<path fill-rule="evenodd" clip-rule="evenodd" d="M14.4965 3.01302C15.6024 3.01291 16.5 3.90883 16.5 5.01478V15.0012C16.5007 15.4149 16.8362 15.75 17.25 15.75C17.6642 15.75 18 15.4142 18 15L18 9.00828C18.1551 9.00845 18.3195 9.00858 18.4962 9.00866C19.6018 9.00912 20.5 9.90453 20.5 11.0101V17C20.5 19.2092 18.7094 21 16.5003 21H14.3824C14.3785 21 14.3746 21 14.3708 21H7.5C5.29086 21 3.5 19.2091 3.5 17V5.00005C3.5 3.89545 4.39546 2.99999 5.50005 3.00122C6.60956 3.00246 7.73006 3.00446 8.85336 3.00647C10.7395 3.00984 12.6335 3.01322 14.4965 3.01302ZM12.5323 6.46965C12.8252 6.76255 12.8252 7.23742 12.5323 7.53031L10.0323 10.0303C9.73939 10.3232 9.26452 10.3232 8.97162 10.0303L7.47162 8.53031C7.17873 8.23742 7.17873 7.76255 7.47162 7.46965C7.76452 7.17676 8.23939 7.17676 8.53228 7.46965L9.50195 8.43932L11.4716 6.46965C11.7645 6.17676 12.2394 6.17676 12.5323 6.46965ZM7 13.625C6.65482 13.625 6.375 13.9048 6.375 14.25C6.375 14.5952 6.65482 14.875 7 14.875H13C13.3452 14.875 13.625 14.5952 13.625 14.25C13.625 13.9048 13.3452 13.625 13 13.625H7ZM6.375 17.25C6.375 16.9048 6.65482 16.625 7 16.625H13C13.3452 16.625 13.625 16.9048 13.625 17.25C13.625 17.5952 13.3452 17.875 13 17.875H7C6.65482 17.875 6.375 17.5952 6.375 17.25Z" fill="black"/>
</svg>
