<svg width="24" height="24" viewBox="0 0 24 24" fill="none" xmlns="http://www.w3.org/2000/svg">
<path d="M6.68923 13.3108L5.50002 14.5L4.46047 18.3117C4.25688 19.0582 4.94186 19.7431 5.68835 19.5395L9.50002 18.5L10.6892 17.3108L6.68923 13.3108Z" fill="black"/>
<path d="M17.3106 10.6895L19.0858 8.91421C19.8669 8.13317 19.8669 6.86683 19.0858 6.08579L17.9142 4.91421C17.1332 4.13316 15.8669 4.13317 15.0858 4.91421L13.3106 6.68946L17.3106 10.6895Z" fill="black"/>
<path d="M4.56068 6.93934L6.93936 4.56066C7.52514 3.97487 8.47489 3.97487 9.06068 4.56066L19.4394 14.9393C20.0251 15.5251 20.0251 16.4749 19.4394 17.0607L17.0607 19.4393C16.4749 20.0251 15.5251 20.0251 14.9394 19.4393L14.2803 18.7803L15.2803 17.7803C15.5732 17.4874 15.5732 17.0126 15.2803 16.7197C14.9875 16.4268 14.5126 16.4268 14.2197 16.7197L13.2197 17.7197L12.2803 16.7803L13.2803 15.7803C13.5732 15.4874 13.5732 15.0126 13.2803 14.7197C12.9875 14.4268 12.5126 14.4268 12.2197 14.7197L11.2197 15.7197L10.2803 14.7803L11.2803 13.7803C11.5732 13.4874 11.5732 13.0126 11.2803 12.7197C10.9875 12.4268 10.5126 12.4268 10.2197 12.7197L9.21969 13.7197L8.28035 12.7803L9.28035 11.7803C9.57324 11.4874 9.57324 11.0126 9.28035 10.7197C8.98745 10.4268 8.51258 10.4268 8.21969 10.7197L7.21969 11.7197L6.28035 10.7803L7.28035 9.78033C7.57324 9.48744 7.57324 9.01256 7.28035 8.71967C6.98745 8.42678 6.51258 8.42678 6.21969 8.71967L5.21969 9.71967L4.56068 9.06066C3.97489 8.47487 3.97489 7.52513 4.56068 6.93934Z" fill="black"/>
</svg>
