<svg width="24" height="24" viewBox="0 0 24 24" fill="none" xmlns="http://www.w3.org/2000/svg">
<path d="M6.68899 13.3108L5.49977 14.5L4.46023 18.3117C4.25664 19.0582 4.94161 19.7432 5.68811 19.5396L9.49977 18.5L10.689 17.3108L6.68899 13.3108Z" fill="black"/>
<path d="M17.3103 10.6895L19.0856 8.91423C19.8666 8.13318 19.8666 6.86685 19.0856 6.0858L17.914 4.91423C17.1329 4.13318 15.8666 4.13318 15.0856 4.91423L13.3103 6.68948L17.3103 10.6895Z" fill="black"/>
<path d="M4.56043 6.93936L6.93911 4.56068C7.5249 3.97489 8.47465 3.97489 9.06043 4.56068L19.4391 14.9394C20.0249 15.5251 20.0249 16.4749 19.4391 17.0607L17.0604 19.4394C16.4746 20.0251 15.5249 20.0251 14.9391 19.4394L14.2801 18.7803L15.2801 17.7803C15.573 17.4875 15.573 17.0126 15.2801 16.7197C14.9872 16.4268 14.5123 16.4268 14.2194 16.7197L13.2194 17.7197L12.2801 16.7803L13.2801 15.7803C13.573 15.4875 13.573 15.0126 13.2801 14.7197C12.9872 14.4268 12.5123 14.4268 12.2194 14.7197L11.2194 15.7197L10.2801 14.7803L11.2801 13.7803C11.573 13.4875 11.573 13.0126 11.2801 12.7197C10.9872 12.4268 10.5123 12.4268 10.2194 12.7197L9.21944 13.7197L8.2801 12.7803L9.2801 11.7803C9.573 11.4875 9.573 11.0126 9.2801 10.7197C8.98721 10.4268 8.51234 10.4268 8.21944 10.7197L7.21944 11.7197L6.2801 10.7803L7.2801 9.78035C7.573 9.48745 7.573 9.01258 7.2801 8.71969C6.98721 8.4268 6.51234 8.4268 6.21944 8.71969L5.21944 9.71969L4.56043 9.06068C3.97465 8.47489 3.97465 7.52514 4.56043 6.93936Z" fill="black"/>
</svg>
