<svg width="24" height="24" viewBox="0 0 24 24" fill="none" xmlns="http://www.w3.org/2000/svg">
<path d="M14.0858 4.91422L13 6L17 10L18.0858 8.91422C18.8668 8.13317 18.8668 6.86684 18.0858 6.08579L16.9142 4.91422C16.1332 4.13317 14.8668 4.13317 14.0858 4.91422Z" fill="black"/>
<path d="M7.49971 11.5L6.46017 15.3117C6.25658 16.0582 6.94155 16.7431 7.68805 16.5396L11.4997 15.5L15.9997 11L11.9997 7.00001L7.49971 11.5Z" fill="black"/>
<path d="M6 18C5.44772 18 5 18.4477 5 19C5 19.5523 5.44772 20 6 20H18C18.5523 20 19 19.5523 19 19C19 18.4477 18.5523 18 18 18H6Z" fill="black"/>
</svg>
