<svg width="24" height="24" viewBox="0 0 24 24" fill="none" xmlns="http://www.w3.org/2000/svg">
<path d="M8.91422 4.91415L10 5.99994L6 9.99994L4.91422 8.91415C4.13317 8.1331 4.13317 6.86678 4.91422 6.08573L6.08579 4.91415C6.86684 4.1331 8.13317 4.1331 8.91422 4.91415Z" fill="black"/>
<path d="M18.5003 14.4999L19.5398 18.3116C19.7434 19.0581 19.0585 19.7431 18.312 19.5395L14.5003 18.4999L7.50029 11.4999L11.5003 7.49995L18.5003 14.4999Z" fill="black"/>
<path d="M14.9828 3.33968C14.8996 3.12864 14.6009 3.12864 14.5177 3.33968L14.2244 4.0833C14.199 4.14774 14.148 4.19874 14.0835 4.22415L13.3399 4.51743C13.1289 4.60066 13.1289 4.89933 13.3399 4.98256L14.0835 5.27585C14.148 5.30126 14.199 5.35226 14.2244 5.41669L14.5177 6.16032C14.6009 6.37135 14.8996 6.37135 14.9828 6.16032L15.2761 5.41669C15.3015 5.35226 15.3525 5.30126 15.4169 5.27585L16.1606 4.98256C16.3716 4.89933 16.3716 4.60066 16.1606 4.51743L15.4169 4.22415C15.3525 4.19874 15.3015 4.14774 15.2761 4.0833L14.9828 3.33968Z" fill="black"/>
<path d="M18.2159 4.92935C18.0494 4.50728 17.4521 4.50728 17.2856 4.92935L16.699 6.41661C16.6482 6.54547 16.5462 6.64747 16.4173 6.69829L14.9301 7.28486C14.508 7.45132 14.508 8.04866 14.9301 8.21512L16.4173 8.80169C16.5462 8.85251 16.6482 8.95451 16.699 9.08338L17.2856 10.5706C17.4521 10.9927 18.0494 10.9927 18.2159 10.5706L18.8024 9.08338C18.8533 8.95451 18.9553 8.85251 19.0841 8.80169L20.5714 8.21512C20.9934 8.04866 20.9934 7.45132 20.5714 7.28486L19.0841 6.69829C18.9553 6.64747 18.8533 6.54547 18.8024 6.41661L18.2159 4.92935Z" fill="black"/>
</svg>
