<svg width="24" height="24" viewBox="0 0 24 24" fill="none" xmlns="http://www.w3.org/2000/svg">
<path d="M12 12C14.2091 12 16 10.2091 16 8C16 5.79086 14.2091 4 12 4C9.79086 4 8 5.79086 8 8C8 10.2091 9.79086 12 12 12Z" fill="black"/>
<path d="M14.2495 13.0025C13.5594 13.0028 13 13.5623 13 14.2525V18C13 18.6904 13.5596 19.25 14.25 19.25H14.5V20.4888C14.5 20.6969 14.7393 20.8139 14.9035 20.6862L16.75 19.25H19.75C20.4404 19.25 21 18.6904 21 18V14.2505C21 13.5599 20.4401 13.0002 19.7495 13.0005L14.2495 13.0025Z" fill="black"/>
<path d="M11.5 18C11.5 19.0687 12.1096 19.995 13 20.4502V20.4889L13 20.4947C12.9187 20.4982 12.8371 20.5 12.7553 20.5H11.2449C9.23836 20.5 7.38571 19.4249 6.39019 17.6828C5.32516 15.819 6.67092 13.5 8.81752 13.5H11.6042C11.5363 13.7392 11.5 13.9916 11.5 14.2525V18Z" fill="black"/>
</svg>
