<svg width="24" height="24" viewBox="0 0 24 24" fill="none" xmlns="http://www.w3.org/2000/svg">
<path d="M20.2631 12.1543H3.96633C3.50213 12.1543 3.28849 11.5768 3.64094 11.2747L6.1147 9.1543H18.1147L20.5885 11.2747C20.9409 11.5768 20.7273 12.1543 20.2631 12.1543Z" fill="black"/>
<path d="M6.89076 4.88597L6.38743 7.6543H17.842L17.3386 4.88597C17.209 4.17273 16.5878 3.6543 15.8628 3.6543H8.36657C7.64164 3.6543 7.02044 4.17273 6.89076 4.88597Z" fill="black"/>
<path fill-rule="evenodd" clip-rule="evenodd" d="M7.61475 13.6543C5.68175 13.6543 4.11475 15.2213 4.11475 17.1543C4.11475 19.0873 5.68175 20.6543 7.61475 20.6543C9.29321 20.6543 10.6957 19.4728 11.036 17.8961C11.0691 17.8813 11.1049 17.866 11.1433 17.8507C11.396 17.7496 11.737 17.6543 12.1147 17.6543C12.4925 17.6543 12.8334 17.7496 13.0862 17.8507C13.1246 17.866 13.1604 17.8813 13.1935 17.8961C13.5338 19.4728 14.9363 20.6543 16.6147 20.6543C18.5477 20.6543 20.1147 19.0873 20.1147 17.1543C20.1147 15.2213 18.5477 13.6543 16.6147 13.6543C14.9721 13.6543 13.5937 14.7859 13.2167 16.3122C12.9027 16.2226 12.5282 16.1543 12.1147 16.1543C11.7013 16.1543 11.3268 16.2226 11.0128 16.3122C10.6358 14.7859 9.25742 13.6543 7.61475 13.6543ZM5.61475 17.1543C5.61475 16.0497 6.51018 15.1543 7.61475 15.1543C8.71932 15.1543 9.61475 16.0497 9.61475 17.1543C9.61475 18.2589 8.71932 19.1543 7.61475 19.1543C6.51018 19.1543 5.61475 18.2589 5.61475 17.1543ZM16.6147 15.1543C15.5102 15.1543 14.6147 16.0497 14.6147 17.1543C14.6147 18.2589 15.5102 19.1543 16.6147 19.1543C17.7193 19.1543 18.6147 18.2589 18.6147 17.1543C18.6147 16.0497 17.7193 15.1543 16.6147 15.1543Z" fill="black"/>
</svg>
