<svg width="24" height="24" viewBox="0 0 24 24" fill="none" xmlns="http://www.w3.org/2000/svg">
<path d="M16.0001 8C16.0001 10.2091 14.2093 12 12.0001 12C9.79098 12 8.00012 10.2091 8.00012 8C8.00012 5.79086 9.79098 4 12.0001 4C14.2093 4 16.0001 5.79086 16.0001 8Z" fill="black"/>
<path d="M12.7573 13.5H8.81765C6.67104 13.5 5.32529 15.819 6.39032 17.6828C7.38583 19.4249 9.23849 20.5 11.245 20.5H12.7573C11.9719 19.5491 11.5001 18.3296 11.5001 17C11.5001 15.6704 11.9719 14.4509 12.7573 13.5Z" fill="black"/>
<path fill-rule="evenodd" clip-rule="evenodd" d="M17.0001 21C19.2093 21 21.0001 19.2091 21.0001 17C21.0001 14.7909 19.2093 13 17.0001 13C14.791 13 13.0001 14.7909 13.0001 17C13.0001 19.2091 14.791 21 17.0001 21ZM17.0001 19.5C17.3453 19.5 17.6251 19.2202 17.6251 18.875V17.625H18.8751C19.2203 17.625 19.5001 17.3452 19.5001 17C19.5001 16.6548 19.2203 16.375 18.8751 16.375H17.6251V15.125C17.6251 14.7798 17.3453 14.5 17.0001 14.5C16.6549 14.5 16.3751 14.7798 16.3751 15.125V16.375H15.1251C14.7799 16.375 14.5001 16.6548 14.5001 17C14.5001 17.3452 14.7799 17.625 15.1251 17.625H16.3751V18.875C16.3751 19.2202 16.6549 19.5 17.0001 19.5Z" fill="black"/>
</svg>
