<svg width="24" height="24" viewBox="0 0 24 24" fill="none" xmlns="http://www.w3.org/2000/svg">
<path d="M5.39453 15.4881C5.39453 14.8693 5.64469 14.2758 6.08998 13.8382C6.53526 13.4006 7.1392 13.1548 7.76893 13.1548H15.4857C16.1154 13.1548 16.7194 13.4006 17.1647 13.8382C17.6099 14.2758 17.8601 14.8693 17.8601 15.4881C17.8601 15.4881 17.8601 20.1548 11.6273 20.1548C5.39453 20.1548 5.39453 15.4881 5.39453 15.4881Z" fill="black"/>
<path d="M15.5045 8.03193C15.5045 10.1732 13.7686 11.9091 11.6273 11.9091C9.48603 11.9091 7.75017 10.1732 7.75017 8.03193C7.75017 5.89064 9.48603 4.15479 11.6273 4.15479C13.7686 4.15479 15.5045 5.89064 15.5045 8.03193Z" fill="black"/>
</svg>
