<svg width="24" height="24" viewBox="0 0 24 24" fill="none" xmlns="http://www.w3.org/2000/svg">
<path d="M16 8C16 10.2091 14.2091 12 12 12C9.79086 12 8 10.2091 8 8C8 5.79086 9.79086 4 12 4C14.2091 4 16 5.79086 16 8Z" fill="black"/>
<path d="M12.7572 13.5H8.81752C6.67092 13.5 5.32516 15.819 6.39019 17.6828C7.38571 19.4249 9.23836 20.5 11.2449 20.5H12.7572C11.9718 19.5491 11.5 18.3296 11.5 17C11.5 15.6704 11.9718 14.4509 12.7572 13.5Z" fill="black"/>
<path fill-rule="evenodd" clip-rule="evenodd" d="M17 21C19.2091 21 21 19.2091 21 17C21 14.7909 19.2091 13 17 13C14.7909 13 13 14.7909 13 17C13 19.2091 14.7909 21 17 21ZM19.3169 16.3169C19.561 16.0729 19.561 15.6771 19.3169 15.4331C19.0729 15.189 18.6771 15.189 18.4331 15.4331L16.5 17.3661L15.5669 16.4331C15.3229 16.189 14.9271 16.189 14.6831 16.4331C14.439 16.6771 14.439 17.0729 14.6831 17.3169L16.0581 18.6919C16.3021 18.936 16.6979 18.936 16.9419 18.6919L19.3169 16.3169Z" fill="black"/>
</svg>
