<svg width="24" height="24" viewBox="0 0 24 24" fill="none" xmlns="http://www.w3.org/2000/svg">
<path d="M11.9999 12C14.209 12 15.9999 10.2091 15.9999 8C15.9999 5.79086 14.209 4 11.9999 4C9.79074 4 7.99988 5.79086 7.99988 8C7.99988 10.2091 9.79074 12 11.9999 12Z" fill="black"/>
<path d="M14.2494 13.0025C13.5592 13.0028 12.9999 13.5623 12.9999 14.2525V18C12.9999 18.6904 13.5595 19.25 14.2499 19.25H14.4999V20.4888C14.4999 20.6969 14.7391 20.8139 14.9034 20.6862L16.7499 19.25H19.7499C20.4402 19.25 20.9999 18.6904 20.9999 18V14.2505C20.9999 13.5599 20.44 13.0002 19.7494 13.0005L14.2494 13.0025Z" fill="black"/>
<path d="M11.4999 18C11.4999 19.0687 12.1095 19.995 12.9999 20.4502V20.4889L12.9999 20.4947C12.9186 20.4982 12.837 20.5 12.7552 20.5H11.2447C9.23824 20.5 7.38558 19.4249 6.39007 17.6828C5.32504 15.819 6.6708 13.5 8.8174 13.5H11.6041C11.5362 13.7392 11.4999 13.9916 11.4999 14.2525V18Z" fill="black"/>
</svg>
