<svg width="24" height="24" viewBox="0 0 24 24" fill="none" xmlns="http://www.w3.org/2000/svg">
<path d="M16.0001 8C16.0001 10.2091 14.2093 12 12.0001 12C9.79098 12 8.00012 10.2091 8.00012 8C8.00012 5.79086 9.79098 4 12.0001 4C14.2093 4 16.0001 5.79086 16.0001 8Z" fill="black"/>
<path d="M12.7573 13.5H8.81765C6.67104 13.5 5.32529 15.819 6.39032 17.6828C7.38583 19.4249 9.23849 20.5 11.245 20.5H12.7573C11.9719 19.5491 11.5001 18.3296 11.5001 17C11.5001 15.6704 11.9719 14.4509 12.7573 13.5Z" fill="black"/>
<path fill-rule="evenodd" clip-rule="evenodd" d="M17.0001 21C19.2093 21 21.0001 19.2091 21.0001 17C21.0001 14.7909 19.2093 13 17.0001 13C14.791 13 13.0001 14.7909 13.0001 17C13.0001 19.2091 14.791 21 17.0001 21ZM19.3171 16.3169C19.5611 16.0729 19.5611 15.6771 19.3171 15.4331C19.073 15.189 18.6773 15.189 18.4332 15.4331L16.5001 17.3661L15.5671 16.4331C15.323 16.189 14.9273 16.189 14.6832 16.4331C14.4391 16.6771 14.4391 17.0729 14.6832 17.3169L16.0582 18.6919C16.3023 18.936 16.698 18.936 16.9421 18.6919L19.3171 16.3169Z" fill="black"/>
</svg>
