<svg width="24" height="24" viewBox="0 0 24 24" fill="none" xmlns="http://www.w3.org/2000/svg">
<path d="M16.9224 12.1548C18.3031 12.1548 19.4224 11.0355 19.4224 9.65479C19.4224 8.27407 18.3031 7.15479 16.9224 7.15479C15.5417 7.15479 14.4224 8.27407 14.4224 9.65479C14.4224 11.0355 15.5417 12.1548 16.9224 12.1548Z" fill="black"/>
<path d="M16.9224 18.1548C16.1983 18.1548 15.5054 17.9601 14.9048 17.6139C15.0404 17.2763 15.1489 16.9234 15.2272 16.5578L15.3707 15.8881C15.5849 14.8888 15.3514 13.9156 14.8208 13.1548H19.4063C20.4111 13.1548 21.1318 14.1234 20.8431 15.0858L20.7776 15.3041C20.27 16.9961 18.6888 18.1548 16.9224 18.1548Z" fill="black"/>
<path d="M8.92276 11.6548C11.1319 11.6548 12.9228 9.86392 12.9228 7.65479C12.9228 5.44565 11.1319 3.65479 8.92276 3.65479C6.71362 3.65479 4.92276 5.44565 4.92276 7.65479C4.92276 9.86392 6.71362 11.6548 8.92276 11.6548Z" fill="black"/>
<path d="M5.89676 13.1548C4.62346 13.1548 3.67435 14.3288 3.94116 15.5739L4.08468 16.2436C4.57357 18.525 6.58968 20.1548 8.92281 20.1548C11.256 20.1548 13.2721 18.5249 13.761 16.2435L13.9045 15.5738C14.1712 14.3288 13.2221 13.1548 11.9488 13.1548H5.89676Z" fill="black"/>
</svg>
