<svg width="24" height="24" viewBox="0 0 24 24" fill="none" xmlns="http://www.w3.org/2000/svg">
<path d="M16.0001 8C16.0001 10.2091 14.2093 12 12.0001 12C9.79098 12 8.00012 10.2091 8.00012 8C8.00012 5.79086 9.79098 4 12.0001 4C14.2093 4 16.0001 5.79086 16.0001 8Z" fill="black"/>
<path d="M13.5486 14.2307L14.5861 14.1509L14.8865 13.5H8.81765C6.67104 13.5 5.32529 15.819 6.39032 17.6828C7.38583 19.4249 9.23849 20.5 11.245 20.5H12.7247C12.7184 20.3072 12.7403 20.1065 12.795 19.9013L13.1826 18.448L12.3641 17.7114C11.0569 16.5349 11.7952 14.3655 13.5486 14.2307Z" fill="black"/>
<path d="M18.4212 15.5789L17.4541 13.4836C17.2753 13.0963 16.7249 13.0963 16.5461 13.4836L15.5791 15.5789L13.6637 15.7263C13.2253 15.76 13.0407 16.3024 13.3675 16.5965L14.8685 17.9474L14.2444 20.2879C14.128 20.7246 14.6047 21.0794 14.9896 20.8425L17.0001 19.6053L19.0107 20.8425C19.3956 21.0794 19.8723 20.7246 19.7558 20.2879L19.1317 17.9474L20.6327 16.5965C20.9595 16.3024 20.7749 15.76 20.3366 15.7263L18.4212 15.5789Z" fill="black"/>
</svg>
