<svg width="24" height="24" viewBox="0 0 24 24" fill="none" xmlns="http://www.w3.org/2000/svg">
<path d="M13.7257 5.82765C13.9496 7.18688 12.7982 8.33823 11.439 8.11436C10.6075 7.98643 9.95182 7.31481 9.8239 6.49927C9.60002 5.14004 10.7514 3.9887 12.1106 4.21257C12.9261 4.35649 13.5978 5.01212 13.7257 5.82765Z" fill="black"/>
<path d="M14.6234 11.0238L15.5349 14.7177C15.6149 15.0375 15.5509 15.3733 15.391 15.6451C15.2311 15.917 14.9592 16.1089 14.6394 16.1729C14.6394 16.1729 14.5275 16.2048 14.3516 16.2048H14.1437V19.1312C14.1437 19.6909 13.68 20.1546 13.1203 20.1546H10.4295C9.86984 20.1546 9.4061 19.6909 9.4061 19.1312V16.2048H9.19822C9.02232 16.2048 8.91038 16.1729 8.91038 16.1729C8.59056 16.1089 8.31872 15.917 8.15881 15.6451C7.9989 15.3733 7.93494 15.0375 8.01489 14.7177L8.92637 11.0238L9.19822 9.9044L9.29417 9.5526C9.4061 9.12084 9.80588 8.80103 10.2856 8.80103H13.2642C13.7439 8.80103 14.1437 9.12084 14.2556 9.5526L14.3516 9.9044L14.6234 11.0238Z" fill="black"/>
</svg>
