<svg width="24" height="24" viewBox="0 0 24 24" fill="none" xmlns="http://www.w3.org/2000/svg">
<path d="M15.5045 8.03145C15.5045 10.1727 13.7686 11.9086 11.6273 11.9086C9.48603 11.9086 7.75017 10.1727 7.75017 8.03145C7.75017 5.89016 9.48603 4.1543 11.6273 4.1543C13.7686 4.1543 15.5045 5.89016 15.5045 8.03145Z" fill="black"/>
<path d="M5.39453 15.4876C5.39453 14.8688 5.64469 14.2753 6.08998 13.8377C6.53526 13.4001 7.1392 13.1543 7.76893 13.1543H8.5918L9.98924 18.8902L11.0778 14.6929H11.1016L10.4154 13.5043C10.243 13.2056 10.4585 12.8323 10.8035 12.8323H12.4513C12.7962 12.8323 13.0118 13.2056 12.8393 13.5043L12.1263 14.7393L13.2235 18.8902L14.6627 13.1543H15.4857C16.1154 13.1543 16.7194 13.4001 17.1647 13.8377C17.6099 14.2753 17.8601 14.8688 17.8601 15.4876C17.8601 15.4876 17.8601 20.1543 11.6273 20.1543C5.39453 20.1543 5.39453 15.4876 5.39453 15.4876Z" fill="black"/>
</svg>
