<svg width="24" height="24" viewBox="0 0 24 24" fill="none" xmlns="http://www.w3.org/2000/svg">
<path d="M13.9836 5.67587C14.2079 7.03758 13.0544 8.19103 11.6927 7.96675C10.8757 7.83859 10.2028 7.16574 10.0747 6.34871C9.8504 4.987 11.0038 3.83355 12.3656 4.05783C13.1826 4.20202 13.8554 4.85884 13.9836 5.67587Z" fill="black"/>
<path d="M15.2504 9.02584C15.4587 9.2341 15.5388 9.49043 15.6029 9.76277C15.747 10.3715 15.7951 10.9963 15.8432 11.6211C15.8912 12.342 15.747 13.2552 15.715 13.2712C15.5708 13.9761 15.0902 14.5368 14.4334 14.7771C14.4254 14.7851 14.4134 14.7891 14.4014 14.7931C14.3893 14.7971 14.3773 14.8011 14.3693 14.8091V18.9743C14.3693 19.5351 13.9047 19.9996 13.344 19.9996H10.6825C10.1218 19.9996 9.65719 19.5351 9.65719 18.9743V14.8091C9.64918 14.8011 9.63716 14.7971 9.62515 14.7931C9.61313 14.7891 9.60112 14.7851 9.59311 14.7771C8.93628 14.5368 8.43966 13.96 8.3115 13.2712C8.3115 13.2712 8.16731 12.358 8.21537 11.6211C8.26344 10.9963 8.3115 10.3715 8.45568 9.76277C8.51976 9.49043 8.61588 9.2341 8.80812 9.02584C9.04842 8.78554 9.36882 8.64136 9.68923 8.64136H14.3693C14.7057 8.64136 15.0261 8.78554 15.2504 9.02584Z" fill="black"/>
</svg>
