<svg width="24" height="24" viewBox="0 0 24 24" fill="none" xmlns="http://www.w3.org/2000/svg">
<path d="M7.26684 4.17382L5.38266 4.68769C4.33505 4.9734 3.99019 5.54609 4.0296 6.56364C4.31316 13.8845 10.2276 19.7622 17.5634 19.9871C18.5486 20.0173 19.0605 19.5999 19.3064 18.6984L19.8348 16.7608C20.1222 15.7071 19.7975 15.0846 18.8425 14.6866L16.6322 13.7657C15.6949 13.3752 15.1063 13.5736 14.5012 14.3121L14.0227 14.8959C13.7318 15.2509 13.2338 15.3666 12.8347 15.14C11.1834 14.2023 9.81102 12.8301 8.87322 11.1789C8.64633 10.7794 8.76248 10.2809 9.11819 9.99013L9.75308 9.47114C10.5169 8.84672 10.5984 8.22687 10.2438 7.37596L9.29588 5.10089C8.90094 4.15304 8.37594 3.87134 7.26684 4.17382Z" fill="black"/>
</svg>
