<svg width="24" height="24" viewBox="0 0 24 24" fill="none" xmlns="http://www.w3.org/2000/svg">
<path d="M7.2666 4.17382L5.38242 4.68769C4.3348 4.9734 3.98994 5.54609 4.02936 6.56364C4.31292 13.8845 10.2274 19.7622 17.5631 19.9871C18.5484 20.0173 19.0603 19.5999 19.3062 18.6984L19.8346 16.7608C20.122 15.7071 19.7972 15.0846 18.8422 14.6866L16.632 13.7657C15.6946 13.3752 15.106 13.5736 14.5009 14.3121L14.0225 14.8959C13.7315 15.2509 13.2336 15.3666 12.8345 15.14C11.1831 14.2023 9.81077 12.8301 8.87298 11.1789C8.64609 10.7794 8.76224 10.2809 9.11795 9.99013L9.75283 9.47114C10.5167 8.84672 10.5981 8.22687 10.2436 7.37596L9.29563 5.10089C8.90069 4.15304 8.37569 3.87134 7.2666 4.17382Z" fill="black"/>
</svg>
