<svg width="24" height="24" viewBox="0 0 24 24" fill="none" xmlns="http://www.w3.org/2000/svg">
<path d="M7.24023 4.11608L5.35605 4.62995C4.30843 4.91566 3.96358 5.48836 4.00299 6.5059C4.28655 13.8268 10.201 19.7044 17.5368 19.9293C18.522 19.9596 19.0339 19.5421 19.2798 18.6406L19.8082 16.7031C20.0956 15.6494 19.7709 15.0268 18.8159 14.6289L16.6056 13.708C15.6683 13.3174 15.0796 13.5159 14.4745 14.2543L13.9961 14.8382C13.7052 15.1932 13.2072 15.3089 12.8081 15.0822C11.1567 14.1446 9.78441 12.7724 8.84661 11.1211C8.61972 10.7216 8.73587 10.2232 9.09158 9.93239L9.72647 9.4134C10.4903 8.78898 10.5718 8.16913 10.2172 7.31822L9.26927 5.04315C8.87433 4.0953 8.34933 3.8136 7.24023 4.11608Z" fill="black"/>
<path fill-rule="evenodd" clip-rule="evenodd" d="M12.4724 8.31768C12.5916 7.92098 13.0097 7.69599 13.4064 7.81515L13.3895 7.81018L13.407 7.81533L13.4076 7.81552L13.409 7.81593L13.4123 7.81692L13.4207 7.81956C13.4273 7.82161 13.4355 7.82425 13.4454 7.8275C13.4651 7.834 13.4915 7.84296 13.5236 7.85455C13.5877 7.87771 13.6754 7.91157 13.7802 7.95756C13.9889 8.0491 14.2712 8.19123 14.5729 8.39681C15.1722 8.80524 15.8904 9.49489 16.2051 10.5705C16.3214 10.9681 16.0934 11.3846 15.6959 11.501C15.2983 11.6173 14.8818 11.3893 14.7655 10.9917C14.5803 10.3588 14.1512 9.92463 13.7282 9.63635C13.5187 9.49358 13.3211 9.39414 13.1776 9.3312C13.1064 9.29995 13.05 9.27834 13.014 9.26534C12.996 9.25886 12.9833 9.25457 12.9765 9.25234L12.9712 9.25061C12.5768 9.12995 12.3536 8.71314 12.4724 8.31768Z" fill="black"/>
<path fill-rule="evenodd" clip-rule="evenodd" d="M12.5222 5.8484C12.5658 5.43649 12.9351 5.13792 13.347 5.18154L13.4367 5.1932C13.4241 5.19137 13.3476 5.1816 13.3476 5.1816L13.3495 5.18181L13.3528 5.18217L13.3616 5.18317C13.3684 5.18397 13.3771 5.18504 13.3877 5.18642C13.409 5.18918 13.4377 5.19318 13.4733 5.19874C13.5444 5.20984 13.6432 5.2272 13.7645 5.25338C14.0067 5.30563 14.3414 5.39359 14.7268 5.53845C15.4947 5.82711 16.4861 6.35039 17.3373 7.28826C18.1091 8.13856 18.7432 9.30577 19.0016 10.8853C19.0685 11.2941 18.7914 11.6797 18.3826 11.7466C17.9738 11.8135 17.5882 11.5363 17.5213 11.1276C17.3096 9.83338 16.8037 8.93221 16.2266 8.29637C15.5788 7.58264 14.8133 7.17344 14.199 6.94253C13.8933 6.8276 13.6306 6.75901 13.4481 6.71964C13.3571 6.70001 13.2868 6.6878 13.2419 6.68078C13.2194 6.67728 13.2034 6.67508 13.1944 6.67391L13.1862 6.67289C12.7758 6.62788 12.4787 6.25936 12.5222 5.8484Z" fill="black"/>
</svg>
