<svg width="24" height="24" viewBox="0 0 24 24" fill="none" xmlns="http://www.w3.org/2000/svg">
<path d="M7.26684 4.17467L5.38266 4.68854C4.33505 4.97425 3.99019 5.54695 4.0296 6.56449C4.31316 13.8854 10.2276 19.763 17.5634 19.9879C18.5486 20.0181 19.0605 19.6007 19.3064 18.6992L19.8348 16.7617C20.1222 15.708 19.7975 15.0854 18.8425 14.6875L16.6322 13.7666C15.6949 13.376 15.1063 13.5745 14.5012 14.3129L14.0227 14.8967C13.7318 15.2518 13.2338 15.3675 12.8347 15.1408C11.1834 14.2032 9.81102 12.831 8.87322 11.1797C8.64633 10.7802 8.76248 10.2818 9.11819 9.99098L9.75308 9.472C10.5169 8.84758 10.5984 8.22773 10.2438 7.37681L9.29588 5.10174C8.90094 4.15389 8.37594 3.87219 7.26684 4.17467Z" fill="black"/>
</svg>
