<svg width="24" height="24" viewBox="0 0 24 24" fill="none" xmlns="http://www.w3.org/2000/svg">
<path d="M7.47607 3.81505L5.59189 4.32892C4.54427 4.61464 4.19942 5.18733 4.23883 6.20487C4.32947 8.54498 4.99545 10.7376 6.09928 12.6453C6.24269 12.639 6.38761 12.6387 6.53379 12.6449C9.26088 12.7595 11.3682 15.0518 11.2535 17.7789L11.2533 17.7843C13.1838 18.8938 15.4041 19.5557 17.7726 19.6283C18.7579 19.6585 19.2698 19.2411 19.5156 18.3396L20.0441 16.4021C20.3314 15.3483 20.0067 14.7258 19.0517 14.3279L16.8415 13.407C15.9041 13.0164 15.3155 13.2149 14.7104 13.9533L14.2319 14.5371C13.941 14.8921 13.4431 15.0078 13.0439 14.7812C11.3926 13.8436 10.0202 12.4714 9.08245 10.8201C8.85556 10.4206 8.97171 9.92214 9.32742 9.63136L9.96231 9.11238C10.7262 8.48796 10.8076 7.86811 10.4531 7.01719L9.50511 4.74212C9.11017 3.79427 8.58517 3.51257 7.47607 3.81505Z" fill="black"/>
<path d="M9.64979 16.7092C9.34072 15.5078 8.3971 14.5561 7.18013 14.247C7.89773 15.1667 8.72785 15.9943 9.64979 16.7092Z" fill="black"/>
<path d="M12.3516 8.37557C12.4708 7.97886 12.889 7.75388 13.2857 7.87304L13.0699 8.59134C13.2857 7.87304 13.2863 7.87322 13.2863 7.87322L13.2883 7.87382L13.2915 7.87481L13.3 7.87745C13.3065 7.8795 13.3148 7.88214 13.3246 7.88539C13.3444 7.89189 13.3707 7.90085 13.4028 7.91244C13.4669 7.9356 13.5546 7.96946 13.6595 8.01545C13.8681 8.10699 14.1505 8.24912 14.4521 8.4547C15.0515 8.86313 15.7697 9.55278 16.0844 10.6284C16.2007 11.026 15.9727 11.4425 15.5751 11.5588C15.1776 11.6751 14.761 11.4472 14.6447 11.0496C14.4596 10.4167 14.0304 9.98251 13.6074 9.69424C13.3979 9.55147 13.2003 9.45203 13.0569 9.38909C12.9856 9.35784 12.9292 9.33623 12.8932 9.32323C12.8753 9.31675 12.8625 9.31246 12.8558 9.31023L12.8504 9.3085C12.456 9.18784 12.2328 8.77103 12.3516 8.37557Z" fill="black"/>
<path d="M12.4015 5.90629C12.4451 5.49437 12.8144 5.19581 13.2263 5.23942L13.1502 5.95808C13.2263 5.23943 13.2271 5.23951 13.2271 5.23951L13.228 5.23961L13.2302 5.23985L13.2356 5.24046L13.2512 5.24231C13.2635 5.24383 13.2799 5.24596 13.3001 5.24882C13.3405 5.25453 13.396 5.26315 13.4648 5.27565C13.6023 5.30062 13.7936 5.34124 14.023 5.40541C14.4803 5.53333 15.0984 5.75748 15.7453 6.1449C17.0573 6.93073 18.461 8.37686 18.8809 10.9432C18.9478 11.352 18.6706 11.7376 18.2618 11.8045C17.8531 11.8714 17.4675 11.5942 17.4006 11.1854C17.0628 9.12122 15.9698 8.02781 14.9745 7.43175C14.4678 7.12823 13.9796 6.95084 13.6189 6.84996C13.4394 6.79973 13.2939 6.76914 13.1968 6.7515C13.1483 6.74269 13.1121 6.73715 13.09 6.73403C13.079 6.73247 13.0715 6.73151 13.0678 6.73106L13.067 6.73094L13.066 6.73083L13.0678 6.73106C12.6563 6.68709 12.3579 6.31795 12.4015 5.90629Z" fill="black"/>
<path fill-rule="evenodd" clip-rule="evenodd" d="M2.89838 17.4276C2.81853 19.3269 4.28304 20.92 6.18244 20.9999C8.03745 21.0314 9.62856 19.6132 9.75473 17.7158C9.83459 15.8164 8.37008 14.2233 6.47068 14.1435C4.57128 14.0636 2.97823 15.5282 2.89838 17.4276ZM5.05583 17.1929C4.81175 16.9489 4.41602 16.9489 4.17194 17.1929C3.92787 17.437 3.92787 17.8327 4.17194 18.0768L5.37658 19.2815C5.62066 19.5255 6.01639 19.5255 6.26047 19.2815L8.25415 17.2878C8.49822 17.0437 8.49822 16.648 8.25415 16.4039C8.01007 16.1598 7.61434 16.1598 7.37026 16.4039L5.81853 17.9556L5.05583 17.1929Z" fill="black"/>
</svg>
