<svg width="24" height="24" viewBox="0 0 24 24" fill="none" xmlns="http://www.w3.org/2000/svg">
<path d="M7.11938 4.17467L5.2352 4.68854C4.18759 4.97425 3.84273 5.54695 3.88214 6.56449C4.1657 13.8854 10.0802 19.763 17.4159 19.9879C18.4012 20.0181 18.9131 19.6007 19.1589 18.6992L19.6874 16.7617C19.9747 15.708 19.65 15.0854 18.695 14.6875L16.4848 13.7666C15.5474 13.376 14.9588 13.5745 14.3537 14.3129L13.8752 14.8967C13.5843 15.2518 13.0864 15.3675 12.6873 15.1408C11.0359 14.2032 9.66356 12.831 8.72576 11.1797C8.49887 10.7802 8.61502 10.2818 8.97073 9.99098L9.60562 9.472C10.3695 8.84758 10.4509 8.22773 10.0964 7.37681L9.14842 5.10174C8.75348 4.15389 8.22848 3.87219 7.11938 4.17467Z" fill="black"/>
<path fill-rule="evenodd" clip-rule="evenodd" d="M12.3515 8.37627C12.4707 7.97957 12.8889 7.75458 13.2856 7.87375L13.2686 7.86878L13.2862 7.87392L13.2868 7.87411L13.2882 7.87453L13.2914 7.87552L13.2999 7.87815C13.3064 7.8802 13.3147 7.88284 13.3245 7.88609C13.3443 7.89259 13.3706 7.90155 13.4027 7.91315C13.4668 7.93631 13.5545 7.97016 13.6594 8.01616C13.868 8.10769 14.1504 8.24982 14.452 8.4554C15.0514 8.86383 15.7696 9.55349 16.0843 10.6291C16.2006 11.0267 15.9726 11.4432 15.575 11.5595C15.1775 11.6759 14.7609 11.4479 14.6446 11.0503C14.4595 10.4174 14.0304 9.98322 13.6073 9.69494C13.3978 9.55218 13.2002 9.45274 13.0568 9.38979C12.9855 9.35855 12.9291 9.33694 12.8931 9.32394C12.8752 9.31745 12.8625 9.31316 12.8557 9.31093L12.8503 9.3092C12.456 9.18855 12.2327 8.77173 12.3515 8.37627Z" fill="black"/>
<path fill-rule="evenodd" clip-rule="evenodd" d="M12.4014 5.90699C12.445 5.49508 12.8143 5.19652 13.2262 5.24013L13.3159 5.2518C13.3032 5.24996 13.2267 5.24019 13.2267 5.24019L13.2287 5.2404L13.232 5.24076L13.2407 5.24176C13.2475 5.24257 13.2563 5.24364 13.2669 5.24502C13.2881 5.24778 13.3168 5.25178 13.3524 5.25733C13.4235 5.26844 13.5223 5.2858 13.6436 5.31197C13.8858 5.36422 14.2206 5.45218 14.6059 5.59704C15.3738 5.8857 16.3653 6.40898 17.2165 7.34685C17.9882 8.19715 18.6223 9.36437 18.8808 10.9439C18.9477 11.3527 18.6705 11.7383 18.2617 11.8052C17.853 11.8721 17.4674 11.5949 17.4005 11.1861C17.1887 9.89197 16.6829 8.9908 16.1058 8.35496C15.458 7.64123 14.6924 7.23204 14.0781 7.00112C13.7724 6.8862 13.5098 6.8176 13.3273 6.77823C13.2363 6.7586 13.166 6.74639 13.121 6.73938C13.0986 6.73587 13.0826 6.73368 13.0735 6.7325L13.0654 6.73149C12.655 6.68647 12.3579 6.31795 12.4014 5.90699Z" fill="black"/>
</svg>
