<svg width="24" height="24" viewBox="0 0 24 24" fill="none" xmlns="http://www.w3.org/2000/svg">
<path d="M7.11944 4.17394L5.23526 4.68781C4.18765 4.97352 3.84279 5.54622 3.8822 6.56376C4.16576 13.8846 10.0802 19.7623 17.416 19.9872C18.4012 20.0174 18.9131 19.6 19.159 18.6985L19.6874 16.761C19.9748 15.7072 19.6501 15.0847 18.6951 14.6868L16.4848 13.7658C15.5475 13.3753 14.9589 13.5738 14.3538 14.3122L13.8753 14.896C13.5844 15.251 13.0864 15.3667 12.6873 15.1401C11.036 14.2025 9.66362 12.8302 8.72582 11.179C8.49893 10.7795 8.61508 10.281 8.97079 9.99025L9.60568 9.47127C10.3695 8.84684 10.451 8.227 10.0964 7.37608L9.14848 5.10101C8.75354 4.15316 8.22854 3.87146 7.11944 4.17394Z" fill="black"/>
<path fill-rule="evenodd" clip-rule="evenodd" d="M12.3516 8.37554C12.4708 7.97884 12.889 7.75385 13.2857 7.87302L13.2687 7.86804L13.2862 7.87319L13.2869 7.87338L13.2882 7.87379L13.2915 7.87479L13.3 7.87742C13.3065 7.87947 13.3147 7.88211 13.3246 7.88536C13.3444 7.89186 13.3707 7.90082 13.4028 7.91242C13.4669 7.93558 13.5546 7.96943 13.6594 8.01543C13.8681 8.10696 14.1504 8.24909 14.4521 8.45467C15.0514 8.8631 15.7696 9.55275 16.0843 10.6284C16.2006 11.0259 15.9727 11.4425 15.5751 11.5588C15.1776 11.6751 14.761 11.4471 14.6447 11.0496C14.4595 10.4167 14.0304 9.98249 13.6074 9.69421C13.3979 9.55144 13.2003 9.452 13.0568 9.38906C12.9856 9.35782 12.9292 9.3362 12.8932 9.3232C12.8752 9.31672 12.8625 9.31243 12.8557 9.3102L12.8504 9.30847C12.456 9.18781 12.2328 8.771 12.3516 8.37554Z" fill="black"/>
<path fill-rule="evenodd" clip-rule="evenodd" d="M12.4014 5.90626C12.4451 5.49435 12.8143 5.19578 13.2262 5.2394L13.3159 5.25106C13.3033 5.24923 13.2268 5.23946 13.2268 5.23946L13.2288 5.23967L13.232 5.24003L13.2408 5.24103C13.2476 5.24183 13.2563 5.2429 13.2669 5.24428C13.2882 5.24704 13.3169 5.25104 13.3525 5.2566C13.4236 5.2677 13.5224 5.28506 13.6437 5.31124C13.8859 5.36349 14.2206 5.45145 14.606 5.59631C15.3739 5.88497 16.3653 6.40825 17.2165 7.34612C17.9883 8.19642 18.6224 9.36363 18.8809 10.9432C18.9477 11.352 18.6706 11.7376 18.2618 11.8045C17.853 11.8714 17.4674 11.5942 17.4005 11.1854C17.1888 9.89124 16.6829 8.99007 16.1058 8.35423C15.458 7.6405 14.6925 7.2313 14.0782 7.00039C13.7725 6.88546 13.5098 6.81687 13.3274 6.7775C13.2364 6.75787 13.166 6.74566 13.1211 6.73864C13.0986 6.73514 13.0826 6.73294 13.0736 6.73177L13.0655 6.73075C12.655 6.68574 12.3579 6.31722 12.4014 5.90626Z" fill="black"/>
</svg>
