<svg width="24" height="24" viewBox="0 0 24 24" fill="none" xmlns="http://www.w3.org/2000/svg">
<path d="M7.47607 3.8153L5.59189 4.32917C4.54427 4.61488 4.19942 5.18757 4.23883 6.20512C4.32947 8.54523 4.99545 10.7379 6.09928 12.6456C6.24269 12.6392 6.38761 12.639 6.53379 12.6451C9.26088 12.7598 11.3682 15.052 11.2535 17.7791L11.2533 17.7846C13.1838 18.8941 15.4041 19.556 17.7726 19.6286C18.7579 19.6588 19.2698 19.2413 19.5156 18.3399L20.0441 16.4023C20.3314 15.3486 20.0067 14.726 19.0517 14.3281L16.8415 13.4072C15.9041 13.0166 15.3155 13.2151 14.7104 13.9535L14.2319 14.5374C13.941 14.8924 13.4431 15.0081 13.0439 14.7815C11.3926 13.8438 10.0202 12.4716 9.08245 10.8203C8.85556 10.4208 8.97171 9.92238 9.32742 9.63161L9.96231 9.11262C10.7262 8.4882 10.8076 7.86835 10.4531 7.01744L9.50511 4.74237C9.11017 3.79452 8.58517 3.51282 7.47607 3.8153Z" fill="black"/>
<path d="M9.64979 16.7094C9.34072 15.508 8.3971 14.5563 7.18013 14.2472C7.89773 15.1669 8.72785 15.9946 9.64979 16.7094Z" fill="black"/>
<path d="M12.3516 8.37581C12.4708 7.97911 12.889 7.75412 13.2857 7.87329L13.0699 8.59158C13.2857 7.87329 13.2863 7.87346 13.2863 7.87346L13.2883 7.87406L13.2915 7.87506L13.3 7.87769C13.3065 7.87974 13.3148 7.88238 13.3246 7.88563C13.3444 7.89213 13.3707 7.90109 13.4028 7.91269C13.4669 7.93585 13.5546 7.9697 13.6595 8.0157C13.8681 8.10723 14.1505 8.24936 14.4521 8.45494C15.0515 8.86337 15.7697 9.55302 16.0844 10.6287C16.2007 11.0262 15.9727 11.4428 15.5751 11.5591C15.1776 11.6754 14.761 11.4474 14.6447 11.0499C14.4596 10.4169 14.0304 9.98276 13.6074 9.69448C13.3979 9.55171 13.2003 9.45227 13.0569 9.38933C12.9856 9.35809 12.9292 9.33647 12.8932 9.32348C12.8753 9.31699 12.8625 9.3127 12.8558 9.31047L12.8504 9.30874C12.456 9.18809 12.2328 8.77127 12.3516 8.37581Z" fill="black"/>
<path d="M12.4015 5.90653C12.4451 5.49462 12.8144 5.19606 13.2263 5.23967L13.1502 5.95832C13.2263 5.23967 13.2271 5.23976 13.2271 5.23976L13.228 5.23986L13.2302 5.24009L13.2356 5.2407L13.2512 5.24255C13.2635 5.24408 13.2799 5.24621 13.3001 5.24906C13.3405 5.25477 13.396 5.26339 13.4648 5.27589C13.6023 5.30086 13.7936 5.34148 14.023 5.40566C14.4803 5.53357 15.0984 5.75772 15.7453 6.14514C17.0573 6.93098 18.461 8.37711 18.8809 10.9435C18.9478 11.3523 18.6706 11.7379 18.2618 11.8047C17.8531 11.8716 17.4675 11.5945 17.4006 11.1857C17.0628 9.12146 15.9698 8.02805 14.9745 7.43199C14.4678 7.12847 13.9796 6.95109 13.6189 6.8502C13.4394 6.79998 13.2939 6.76938 13.1968 6.75174C13.1483 6.74293 13.1121 6.73739 13.09 6.73427C13.079 6.73271 13.0715 6.73176 13.0678 6.7313L13.067 6.73119L13.066 6.73108L13.0678 6.7313C12.6563 6.68733 12.3579 6.3182 12.4015 5.90653Z" fill="black"/>
<path fill-rule="evenodd" clip-rule="evenodd" d="M2.89838 17.4278C2.81853 19.3272 4.28304 20.9202 6.18244 21.0001C8.03745 21.0317 9.62856 19.6135 9.75473 17.716C9.83459 15.8166 8.37008 14.2236 6.47068 14.1437C4.57128 14.0639 2.97823 15.5284 2.89838 17.4278ZM5.05583 17.1932C4.81175 16.9491 4.41602 16.9491 4.17194 17.1932C3.92787 17.4373 3.92787 17.833 4.17194 18.0771L5.37658 19.2817C5.62066 19.5258 6.01639 19.5258 6.26047 19.2817L8.25415 17.288C8.49822 17.0439 8.49822 16.6482 8.25415 16.4041C8.01007 16.1601 7.61434 16.1601 7.37026 16.4041L5.81853 17.9559L5.05583 17.1932Z" fill="black"/>
</svg>
