<svg width="24" height="24" viewBox="0 0 24 24" fill="none" xmlns="http://www.w3.org/2000/svg">
<path d="M7.11938 4.17394L5.2352 4.68781C4.18759 4.97352 3.84273 5.54622 3.88214 6.56376C4.1657 13.8846 10.0802 19.7623 17.4159 19.9872C18.4012 20.0174 18.9131 19.6 19.1589 18.6985L19.6874 16.761C19.9747 15.7072 19.65 15.0847 18.695 14.6868L16.4848 13.7658C15.5474 13.3753 14.9588 13.5738 14.3537 14.3122L13.8752 14.896C13.5843 15.251 13.0864 15.3667 12.6873 15.1401C11.0359 14.2025 9.66356 12.8302 8.72576 11.179C8.49887 10.7795 8.61502 10.281 8.97073 9.99025L9.60562 9.47127C10.3695 8.84684 10.4509 8.227 10.0964 7.37608L9.14842 5.10101C8.75348 4.15316 8.22848 3.87146 7.11938 4.17394Z" fill="black"/>
<path fill-rule="evenodd" clip-rule="evenodd" d="M12.3515 8.37554C12.4707 7.97884 12.8889 7.75385 13.2856 7.87302L13.2686 7.86804L13.2862 7.87319L13.2868 7.87338L13.2882 7.87379L13.2914 7.87479L13.2999 7.87742C13.3064 7.87947 13.3147 7.88211 13.3245 7.88536C13.3443 7.89186 13.3706 7.90082 13.4027 7.91242C13.4668 7.93558 13.5545 7.96943 13.6594 8.01543C13.868 8.10696 14.1504 8.24909 14.452 8.45467C15.0514 8.8631 15.7696 9.55275 16.0843 10.6284C16.2006 11.0259 15.9726 11.4425 15.575 11.5588C15.1775 11.6751 14.7609 11.4471 14.6446 11.0496C14.4595 10.4167 14.0304 9.98249 13.6073 9.69421C13.3978 9.55144 13.2002 9.452 13.0568 9.38906C12.9855 9.35782 12.9291 9.3362 12.8931 9.3232C12.8752 9.31672 12.8625 9.31243 12.8557 9.3102L12.8503 9.30847C12.456 9.18781 12.2327 8.771 12.3515 8.37554Z" fill="black"/>
<path fill-rule="evenodd" clip-rule="evenodd" d="M12.4014 5.90626C12.445 5.49435 12.8143 5.19578 13.2262 5.2394L13.3159 5.25106C13.3032 5.24923 13.2267 5.23946 13.2267 5.23946L13.2287 5.23967L13.232 5.24003L13.2407 5.24103C13.2475 5.24183 13.2563 5.2429 13.2669 5.24428C13.2881 5.24704 13.3168 5.25104 13.3524 5.2566C13.4235 5.2677 13.5223 5.28506 13.6436 5.31124C13.8858 5.36349 14.2206 5.45145 14.6059 5.59631C15.3738 5.88497 16.3653 6.40825 17.2165 7.34612C17.9882 8.19642 18.6223 9.36363 18.8808 10.9432C18.9477 11.352 18.6705 11.7376 18.2617 11.8045C17.853 11.8714 17.4674 11.5942 17.4005 11.1854C17.1887 9.89124 16.6829 8.99007 16.1058 8.35423C15.458 7.6405 14.6924 7.2313 14.0781 7.00039C13.7724 6.88546 13.5098 6.81687 13.3273 6.7775C13.2363 6.75787 13.166 6.74566 13.121 6.73864C13.0986 6.73514 13.0826 6.73294 13.0735 6.73177L13.0654 6.73075C12.655 6.68574 12.3579 6.31722 12.4014 5.90626Z" fill="black"/>
</svg>
