<svg width="24" height="24" viewBox="0 0 24 24" fill="none" xmlns="http://www.w3.org/2000/svg">
<path fill-rule="evenodd" clip-rule="evenodd" d="M17.7116 3.80463L15.5001 5.82574C14.3678 5.33029 13.0656 5.04827 11.6801 5.04827C8.20665 5.04827 5.25652 6.82076 4.19608 9.28479C3.62292 9.29718 3.16211 9.76568 3.16211 10.3418C3.16211 10.7674 3.41361 11.1343 3.77611 11.3019C3.77632 12.7282 4.38012 14.0429 5.39643 15.0948L6.06778 18.2242C6.19848 18.8334 6.73691 19.2686 7.35997 19.2686H8.23258C8.69599 19.2686 9.12554 19.0259 9.36465 18.6289L10.0885 17.4273C10.6026 17.5105 11.1349 17.5541 11.6801 17.5541C12.0955 17.5541 12.5035 17.5288 12.9016 17.4799L13.5415 18.6018C13.7766 19.0141 14.2148 19.2686 14.6895 19.2686H15.5412C16.1642 19.2686 16.7026 18.8335 16.8333 18.2243L17.3912 15.6239C17.8895 15.212 18.3173 14.7462 18.6593 14.2388L20.092 13.9612C20.7134 13.8409 21.1622 13.2968 21.1622 12.6638V11.1204C21.1622 10.5819 20.8356 10.0974 20.3365 9.89534L19.2311 9.44795C19.0032 8.86601 18.6707 8.32043 18.251 7.82495C18.9992 6.67504 18.7495 4.98966 18.5121 4.02594C18.4224 3.66202 17.9883 3.55178 17.7116 3.80463ZM16.6249 11.5676C17.2088 11.5676 17.6822 11.0942 17.6822 10.5103C17.6822 9.92639 17.2088 9.45303 16.6249 9.45303C16.041 9.45303 15.5676 9.92639 15.5676 10.5103C15.5676 11.0942 16.041 11.5676 16.6249 11.5676Z" fill="black"/>
</svg>
