<svg width="24" height="24" viewBox="0 0 24 24" fill="none" xmlns="http://www.w3.org/2000/svg">
<path fill-rule="evenodd" clip-rule="evenodd" d="M17.7116 3.80506L15.5001 5.82616C14.3678 5.33072 13.0656 5.0487 11.6801 5.0487C8.20665 5.0487 5.25652 6.82119 4.19608 9.28522C3.62292 9.29761 3.16211 9.7661 3.16211 10.3422C3.16211 10.7679 3.41361 11.1347 3.77611 11.3024C3.77632 12.7286 4.38012 14.0433 5.39643 15.0953L6.06778 18.2247C6.19848 18.8339 6.73691 19.269 7.35997 19.269H8.23258C8.69599 19.269 9.12554 19.0263 9.36465 18.6294L10.0885 17.4277C10.6026 17.5109 11.1349 17.5546 11.6801 17.5546C12.0955 17.5546 12.5035 17.5292 12.9016 17.4803L13.5415 18.6022C13.7766 19.0145 14.2148 19.2691 14.6895 19.2691H15.5412C16.1642 19.2691 16.7026 18.8339 16.8333 18.2247L17.3912 15.6243C17.8895 15.2124 18.3173 14.7466 18.6593 14.2392L20.092 13.9617C20.7134 13.8413 21.1622 13.2972 21.1622 12.6642V11.1208C21.1622 10.5824 20.8356 10.0978 20.3365 9.89577L19.2311 9.44837C19.0032 8.86643 18.6707 8.32086 18.251 7.82538C18.9992 6.67547 18.7495 4.99009 18.5121 4.02637C18.4224 3.66244 17.9883 3.5522 17.7116 3.80506ZM16.6249 11.568C17.2088 11.568 17.6822 11.0946 17.6822 10.5107C17.6822 9.92682 17.2088 9.45346 16.6249 9.45346C16.041 9.45346 15.5676 9.92682 15.5676 10.5107C15.5676 11.0946 16.041 11.568 16.6249 11.568Z" fill="black"/>
</svg>
