<svg width="24" height="24" viewBox="0 0 24 24" fill="none" xmlns="http://www.w3.org/2000/svg">
<path d="M9.29165 4.48961C11.2443 2.53699 14.4101 2.53699 16.3627 4.48961C17.777 5.90386 18.1669 7.95454 17.5325 9.71973C16.8467 9.53696 16.1368 9.46821 15.4328 9.51349C16.0882 8.36776 15.9267 6.88205 14.9485 5.90383C13.7769 4.73225 11.8774 4.73225 10.7059 5.90383L8.58455 8.02514L11.6232 11.0638C11.4977 11.1716 11.3753 11.2849 11.2564 11.4038C9.55595 13.1042 8.99461 15.5124 9.57235 17.6801C7.80708 18.3147 5.75624 17.9248 4.34191 16.5104C2.38929 14.5578 2.38929 11.392 4.34191 9.43936L9.29165 4.48961Z" fill="black"/>
<path d="M12.8869 20.0263C14.8438 21.4715 17.6158 21.3079 19.3881 19.5355C21.1605 17.7632 21.3241 14.9912 19.8789 13.0343L12.8869 20.0263Z" fill="black"/>
<path d="M11.8262 18.9657L18.8183 11.9736C16.8614 10.5285 14.0894 10.6921 12.3171 12.4645C10.5447 14.2368 10.3811 17.0088 11.8262 18.9657Z" fill="black"/>
</svg>
