<svg width="24" height="24" viewBox="0 0 24 24" fill="none" xmlns="http://www.w3.org/2000/svg">
<path d="M9.29165 4.48986C11.2443 2.53724 14.4101 2.53724 16.3627 4.48986C17.777 5.9041 18.1669 7.95478 17.5325 9.71998C16.8467 9.53721 16.1368 9.46846 15.4328 9.51373C16.0882 8.36801 15.9267 6.88229 14.9485 5.90407C13.7769 4.7325 11.8774 4.7325 10.7059 5.90407L8.58455 8.02538L11.6232 11.064C11.4977 11.1718 11.3753 11.2851 11.2564 11.4041C9.55595 13.1045 8.99461 15.5127 9.57235 17.6804C7.80708 18.3149 5.75624 17.925 4.34191 16.5107C2.38929 14.5581 2.38929 11.3922 4.34191 9.4396L9.29165 4.48986Z" fill="black"/>
<path d="M12.8869 20.0266C14.8438 21.4718 17.6158 21.3082 19.3881 19.5358C21.1605 17.7634 21.3241 14.9915 19.8789 13.0345L12.8869 20.0266Z" fill="black"/>
<path d="M11.8262 18.9659L18.8183 11.9739C16.8614 10.5287 14.0894 10.6923 12.3171 12.4647C10.5447 14.2371 10.3811 17.009 11.8262 18.9659Z" fill="black"/>
</svg>
