<svg width="24" height="24" viewBox="0 0 24 24" fill="none" xmlns="http://www.w3.org/2000/svg">
<path d="M11.6108 10.3842L7.83851 14.4994L4.89858 14.1728C4.74143 14.1553 4.58487 14.2102 4.47306 14.322L4.15258 14.6425C3.8922 14.9029 3.97714 15.3439 4.31559 15.489L7.06104 16.6656C7.18389 16.7182 7.28177 16.8161 7.33442 16.939L8.51104 19.6844C8.65609 20.0229 9.09711 20.1078 9.35749 19.8474L9.67797 19.5269C9.78977 19.4151 9.84469 19.2586 9.82723 19.1014L9.50058 16.1615L13.6158 12.3892L16.3719 18.2952C16.5031 18.5763 16.8538 18.6745 17.1119 18.5025C17.7655 18.0668 18.1083 17.2926 17.9918 16.5159L16.9187 9.36157L19.4286 7.06077C20.1681 6.38293 20.1933 5.22538 19.4839 4.51606C18.7746 3.80674 17.6171 3.8319 16.9392 4.57136L14.6384 7.08135L7.48416 6.00821C6.7074 5.89169 5.93327 6.23457 5.49758 6.88811C5.32551 7.14622 5.42375 7.49697 5.70486 7.62816L11.6108 10.3842Z" fill="black"/>
</svg>
