<svg width="24" height="24" viewBox="0 0 24 24" fill="none" xmlns="http://www.w3.org/2000/svg">
<path d="M4.54471 16.5029C4.60228 16.5647 4.6611 16.6257 4.72119 16.6857C6.44151 18.4061 8.69427 18.916 10.2429 19.0517C9.4443 19.4514 8.4469 19.7916 7.36502 19.7916C5.74273 19.7916 4.3104 19.0267 3.45348 18.443C2.9771 18.1185 2.9771 17.4646 3.45348 17.1401C3.75258 16.9364 4.12179 16.7106 4.54471 16.5029Z" fill="black"/>
<path d="M19.3445 16.3452C17.5347 18.0537 15.1849 18.6755 13.7127 18.908C14.5513 19.3663 15.6554 19.7916 16.865 19.7916C18.4873 19.7916 19.9196 19.0267 20.7766 18.443C21.2529 18.1185 21.2529 17.4646 20.7766 17.1401C20.3996 16.8834 19.9113 16.5916 19.3445 16.3452Z" fill="black"/>
<path d="M14.2481 17.5199C15.2111 16.1572 16.6147 13.6913 16.6147 10.7916C16.6147 10.4273 16.5926 10.0698 16.5519 9.72053C17.8767 9.17026 19.2329 8.94593 20.1184 8.85447C20.6678 8.79774 21.1068 9.23986 21.039 9.78797C20.8722 11.1359 20.3362 13.5696 18.6142 15.2916C17.3067 16.599 15.5892 17.2225 14.2481 17.5199Z" fill="black"/>
<path d="M7.65815 9.90243C7.6299 10.1936 7.61475 10.4903 7.61475 10.7916C7.61475 13.8816 9.20869 16.4791 10.1648 17.7738C8.7997 17.6292 6.98248 17.1597 5.6144 15.7916C3.84712 14.0243 3.32911 11.2574 3.17728 9.78741C3.12053 9.23802 3.56265 8.79902 4.11076 8.86684C4.99511 8.97626 6.34675 9.24456 7.65815 9.90243Z" fill="black"/>
<path d="M15.1147 10.7916C15.1147 13.4808 13.6632 15.8158 12.7794 16.9882C12.4367 17.4429 11.7928 17.4429 11.4501 16.9882C10.5663 15.8158 9.11475 13.4808 9.11475 10.7916C9.11475 8.10238 10.5663 5.76737 11.4501 4.595C11.7928 4.14029 12.4367 4.14029 12.7794 4.595C13.6632 5.76737 15.1147 8.10238 15.1147 10.7916Z" fill="black"/>
</svg>
