<svg width="24" height="24" viewBox="0 0 24 24" fill="none" xmlns="http://www.w3.org/2000/svg">
<path d="M4.54471 16.5029C4.60228 16.5646 4.6611 16.6256 4.72119 16.6857C6.44151 18.4061 8.69427 18.9159 10.2429 19.0516C9.4443 19.4514 8.4469 19.7915 7.36502 19.7915C5.74273 19.7915 4.3104 19.0267 3.45348 18.443C2.9771 18.1184 2.9771 17.4646 3.45348 17.1401C3.75258 16.9363 4.12179 16.7105 4.54471 16.5029Z" fill="black"/>
<path d="M19.3445 16.3452C17.5347 18.0537 15.1849 18.6754 13.7127 18.908C14.5513 19.3663 15.6554 19.7915 16.865 19.7915C18.4873 19.7915 19.9196 19.0267 20.7766 18.443C21.2529 18.1184 21.2529 17.4646 20.7766 17.1401C20.3996 16.8833 19.9113 16.5915 19.3445 16.3452Z" fill="black"/>
<path d="M14.2481 17.5199C15.2111 16.1572 16.6147 13.6912 16.6147 10.7915C16.6147 10.4272 16.5926 10.0698 16.5519 9.72047C17.8767 9.1702 19.2329 8.94587 20.1184 8.85441C20.6678 8.79768 21.1068 9.23979 21.039 9.78791C20.8722 11.1359 20.3362 13.5696 18.6142 15.2915C17.3067 16.5989 15.5892 17.2225 14.2481 17.5199Z" fill="black"/>
<path d="M7.65815 9.90237C7.6299 10.1936 7.61475 10.4902 7.61475 10.7915C7.61475 13.8815 9.20869 16.479 10.1648 17.7738C8.7997 17.6291 6.98248 17.1596 5.6144 15.7915C3.84712 14.0242 3.32911 11.2573 3.17728 9.78734C3.12053 9.23796 3.56265 8.79896 4.11076 8.86678C4.99511 8.9762 6.34675 9.2445 7.65815 9.90237Z" fill="black"/>
<path d="M15.1147 10.7915C15.1147 13.4807 13.6632 15.8157 12.7794 16.9881C12.4367 17.4428 11.7928 17.4428 11.4501 16.9881C10.5663 15.8157 9.11475 13.4807 9.11475 10.7915C9.11475 8.10232 10.5663 5.76731 11.4501 4.59494C11.7928 4.14023 12.4367 4.14023 12.7794 4.59494C13.6632 5.76731 15.1147 8.10232 15.1147 10.7915Z" fill="black"/>
</svg>
