<svg width="24" height="24" viewBox="0 0 24 24" fill="none" xmlns="http://www.w3.org/2000/svg">
<path d="M20.7071 4.70711C21.0976 4.31658 21.0976 3.68342 20.7071 3.29289C20.3166 2.90237 19.6834 2.90237 19.2929 3.29289L17.4511 5.13472C15.9629 4.27075 14.0243 4.47591 12.7501 5.75019L11.2071 7.29314C10.8166 7.68366 10.8166 8.31682 11.2071 8.70735L15.2929 12.7932C15.6834 13.1837 16.3166 13.1837 16.7071 12.7932L18.25 11.2504C19.5245 9.97598 19.7296 8.03712 18.8654 6.54885L20.7071 4.70711Z" fill="black"/>
<path d="M11.0303 12.0303C11.3232 11.7374 11.3232 11.2626 11.0303 10.9697C10.7374 10.6768 10.2626 10.6768 9.96967 10.9697L9.21959 11.7197L8.70711 11.2073C8.31658 10.8168 7.68344 10.8168 7.29292 11.2073L5.75005 12.7502C4.47577 14.0245 4.27061 15.963 5.13458 17.4512L3.29289 19.2929C2.90237 19.6834 2.90237 20.3166 3.29289 20.7071C3.68342 21.0976 4.31658 21.0976 4.70711 20.7071L6.5487 18.8655C8.03689 19.7297 9.97564 19.5247 11.2501 18.2504L12.7932 16.7074C13.1838 16.3168 13.1838 15.6836 12.7932 15.2931L12.2804 14.7803L13.0303 14.0303C13.3232 13.7374 13.3232 13.2626 13.0303 12.9697C12.7374 12.6768 12.2626 12.6768 11.9697 12.9697L11.2197 13.7197L10.2803 12.7804L11.0303 12.0303Z" fill="black"/>
</svg>
