<svg width="24" height="24" viewBox="0 0 24 24" fill="none" xmlns="http://www.w3.org/2000/svg">
<path d="M15.8901 11.121C16.2422 12.0136 17.0761 12.4336 17.8823 12.3822L18.25 12.7499C19.5242 14.0242 19.7287 15.9624 18.8647 17.4506L20.707 19.2929C21.0975 19.6834 21.0975 20.3165 20.707 20.707C20.3165 21.0975 19.6835 21.0974 19.293 20.707L17.4507 18.8647C15.9624 19.7288 14.0238 19.5243 12.7495 18.2499L11.2065 16.707C10.8162 16.3164 10.8166 15.6834 11.207 15.2929L15.2925 11.207C15.4405 11.0589 15.6236 10.9669 15.8149 10.9311L15.8901 11.121Z" fill="black"/>
<path d="M3.29295 3.29289C3.68348 2.90237 4.31649 2.90237 4.70702 3.29289L6.54881 5.13469C8.037 4.27067 9.97568 4.47562 11.25 5.74992L12.7925 7.29289C13.183 7.68341 13.183 8.31643 12.7925 8.70696L12.2798 9.21916L13.0303 9.96965C13.3231 10.2626 13.3231 10.7373 13.0303 11.0302C12.7374 11.3231 12.2626 11.323 11.9697 11.0302L11.2192 10.2797L10.2798 11.2192L11.0303 11.9697C11.3231 12.2626 11.3231 12.7373 11.0303 13.0302C10.7374 13.3231 10.2626 13.323 9.96971 13.0302L9.21922 12.2797L8.70702 12.7929C8.31649 13.1835 7.683 13.1835 7.29247 12.7929L5.7495 11.2499C4.4752 9.97552 4.27054 8.03693 5.13475 6.54875L3.29295 4.70696C2.90243 4.31643 2.90243 3.68342 3.29295 3.29289Z" fill="black"/>
<path d="M17.2856 4.92912C17.4522 4.5073 18.0493 4.50729 18.2158 4.92912L18.8022 6.41643C18.8531 6.54523 18.9552 6.64734 19.084 6.69817L20.5713 7.28459C20.9933 7.45104 20.9932 8.04825 20.5713 8.21477L19.084 8.80119C18.9552 8.85199 18.8531 8.9542 18.8022 9.08293L18.2158 10.5702C18.0493 10.9923 17.4521 10.9923 17.2856 10.5702L16.6992 9.08293C16.6484 8.95419 16.5462 8.852 16.4175 8.80119L14.9302 8.21477C14.5081 8.04828 14.5081 7.45105 14.9302 7.28459L16.4175 6.69817C16.5462 6.64733 16.6484 6.54521 16.6992 6.41643L17.2856 4.92912Z" fill="black"/>
<path d="M14.5176 3.33928C14.6009 3.12854 14.8996 3.12852 14.9829 3.33928L15.2759 4.08293C15.3013 4.14735 15.3526 4.19863 15.417 4.22405L16.1606 4.51701C16.3716 4.60025 16.3715 4.89904 16.1606 4.98235L15.417 5.27532C15.3526 5.3007 15.3013 5.35209 15.2759 5.41643L14.9829 6.16008C14.8996 6.37107 14.6008 6.37106 14.5176 6.16008L14.2246 5.41643C14.1992 5.35208 14.1479 5.3007 14.0835 5.27532L13.3398 4.98235C13.1289 4.89908 13.1288 4.60025 13.3398 4.51701L14.0835 4.22405C14.1479 4.19862 14.1992 4.14733 14.2246 4.08293L14.5176 3.33928Z" fill="black"/>
</svg>
