<svg width="24" height="24" viewBox="0 0 24 24" fill="none" xmlns="http://www.w3.org/2000/svg">
<path fill-rule="evenodd" clip-rule="evenodd" d="M17.7139 5C18.9764 5.00019 19.9998 6.02361 20 7.28613V16.6104C19.9998 17.8729 18.9764 18.8963 17.7139 18.8965H6.28613C5.0236 18.8962 4.00017 17.8729 4 16.6104V7.28613C4.00024 6.02364 5.02364 5.00024 6.28613 5H17.7139ZM13.6263 9.01953C13.2121 9.01953 12.8763 9.35532 12.8763 9.76953V16.2607C12.8766 16.6748 13.2123 17.0107 13.6263 17.0107C14.0404 17.0107 14.3761 16.6747 14.3763 16.2607V9.76953C14.3763 9.35536 14.0405 9.0196 13.6263 9.01953ZM7 7.51074C6.58579 7.51074 6.25 7.84653 6.25 8.26074V16.2607C6.25013 16.6748 6.58587 17.0107 7 17.0107C7.41413 17.0107 7.74987 16.6748 7.75 16.2607V8.26074C7.75 7.84653 7.41421 7.51074 7 7.51074ZM10.25 13.0107C9.83579 13.0107 9.5 13.3465 9.5 13.7607V16.2607C9.50013 16.6748 9.83587 17.0107 10.25 17.0107C10.6641 17.0107 10.9999 16.6748 11 16.2607V13.7607C11 13.3465 10.6642 13.0107 10.25 13.0107ZM16.9639 10.5107C16.5497 10.5107 16.2139 10.8465 16.2139 11.2607V16.2607C16.214 16.6748 16.5497 17.0107 16.9639 17.0107C17.3778 17.0106 17.7137 16.6747 17.7139 16.2607V11.2607C17.7139 10.8466 17.3779 10.5109 16.9639 10.5107Z" fill="black"/>
</svg>
