<svg width="24" height="24" viewBox="0 0 24 24" fill="none" xmlns="http://www.w3.org/2000/svg">
<path fill-rule="evenodd" clip-rule="evenodd" d="M6.5 5C5.11929 5 4 6.11929 4 7.5V16.5C4 17.8807 5.11929 19 6.5 19H17.5C18.8807 19 20 17.8807 20 16.5V7.5C20 6.11929 18.8807 5 17.5 5H6.5ZM18 11.25C18 10.8358 17.6642 10.5 17.25 10.5C16.8358 10.5 16.5 10.8358 16.5 11.25V16.25C16.5 16.6642 16.8358 17 17.25 17C17.6642 17 18 16.6642 18 16.25V11.25ZM10.25 12.5C10.6642 12.5 11 12.8358 11 13.25V16.25C11 16.6642 10.6642 17 10.25 17C9.83579 17 9.5 16.6642 9.5 16.25V13.25C9.5 12.8358 9.83579 12.5 10.25 12.5ZM14.5 13.75C14.5 13.3358 14.1642 13 13.75 13C13.3358 13 13 13.3358 13 13.75V16.25C13 16.6642 13.3358 17 13.75 17C14.1642 17 14.5 16.6642 14.5 16.25V13.75ZM6.75 14.5C7.16421 14.5 7.5 14.8358 7.5 15.25V16.25C7.5 16.6642 7.16421 17 6.75 17C6.33579 17 6 16.6642 6 16.25V15.25C6 14.8358 6.33579 14.5 6.75 14.5ZM17.6574 8.37968C18.0052 8.15466 18.1047 7.69032 17.8797 7.34256C17.6547 6.9948 17.1903 6.8953 16.8426 7.12032L13.0316 9.58622L11.45 8.4C11.1986 8.21147 10.8564 8.19962 10.5926 8.37032L6.34256 11.1203C5.9948 11.3453 5.8953 11.8097 6.12032 12.1574C6.34534 12.5052 6.80968 12.6047 7.15744 12.3797L10.9684 9.91378L12.55 11.1C12.8014 11.2885 13.1436 11.3004 13.4074 11.1297L17.6574 8.37968Z" fill="black"/>
</svg>
