<svg width="24" height="24" viewBox="0 0 24 24" fill="none" xmlns="http://www.w3.org/2000/svg">
<path fill-rule="evenodd" clip-rule="evenodd" d="M6.5 5.5C5.11929 5.5 4 6.61929 4 8V16C4 17.3807 5.11929 18.5 6.5 18.5H17.5C18.8807 18.5 20 17.3807 20 16V8C20 6.61929 18.8807 5.5 17.5 5.5H6.5ZM16.843 9.49421C17.254 9.44283 17.5456 9.06799 17.4942 8.65697C17.4428 8.24596 17.068 7.95441 16.657 8.00579L15.3151 8.17353C13.4051 8.41227 11.828 9.78005 11.3216 11.637L11.2313 11.9683C10.8847 13.2389 9.8057 14.1747 8.49889 14.3381L7.15697 14.5058C6.74596 14.5572 6.45441 14.932 6.50579 15.343C6.55717 15.754 6.93201 16.0456 7.34303 15.9942L8.68494 15.8265C10.5949 15.5877 12.172 14.2199 12.6784 12.363L12.7687 12.0317C13.1153 10.7611 14.1943 9.8253 15.5011 9.66195L16.843 9.49421Z" fill="black"/>
</svg>
