<svg width="24" height="24" viewBox="0 0 24 24" fill="none" xmlns="http://www.w3.org/2000/svg">
<path fill-rule="evenodd" clip-rule="evenodd" d="M6.28657 5.10339C5.02373 5.10339 4 6.12713 4 7.38996V16.7134C4 17.9763 5.02373 19 6.28657 19H17.7135C18.9763 19 20.0001 17.9763 20.0001 16.7134V7.38996C20.0001 6.12713 18.9764 5.10339 17.7135 5.10339H6.28657ZM16.9998 17.1139C16.5855 17.1139 16.2498 16.7781 16.2498 16.3639V8.36389C16.2498 7.94968 16.5855 7.61389 16.9998 7.61389C17.414 7.61389 17.7498 7.94968 17.7498 8.36389V16.3639C17.7498 16.7781 17.414 17.1139 16.9998 17.1139ZM12.9165 16.3639C12.9165 16.7781 13.2523 17.1139 13.6665 17.1139C14.0807 17.1139 14.4165 16.7781 14.4165 16.3639V9.87281C14.4165 9.45859 14.0807 9.12281 13.6665 9.12281C13.2523 9.12281 12.9165 9.45859 12.9165 9.87281V16.3639ZM10.3333 17.1139C9.91904 17.1139 9.58325 16.7781 9.58325 16.3639V11.3639C9.58325 10.9497 9.91904 10.6139 10.3333 10.6139C10.7475 10.6139 11.0833 10.9497 11.0833 11.3639L11.0833 16.3639C11.0833 16.7781 10.7475 17.1139 10.3333 17.1139ZM7 17.1139C6.58579 17.1139 6.25 16.7781 6.25 16.3639V13.8639C6.25 13.4497 6.58579 13.1139 7 13.1139C7.41421 13.1139 7.75 13.4497 7.75 13.8639V16.3639C7.75 16.7781 7.41421 17.1139 7 17.1139Z" fill="black"/>
</svg>
