<svg width="24" height="24" viewBox="0 0 24 24" fill="none" xmlns="http://www.w3.org/2000/svg">
<path fill-rule="evenodd" clip-rule="evenodd" d="M6.64746 4.99997C5.26675 4.99997 4.14746 6.11926 4.14746 7.49997V15.5C4.14746 16.8807 5.26675 18 6.64746 18H17.6475C19.0282 18 20.1475 16.8807 20.1475 15.5V7.49997C20.1475 6.11926 19.0282 4.99997 17.6475 4.99997H6.64746ZM13.8975 7.49997H16.8975C16.9992 7.49997 17.0961 7.52021 17.1845 7.55688C17.2724 7.59321 17.3547 7.64693 17.4262 7.71805L17.4294 7.72123C17.5642 7.85683 17.6475 8.04367 17.6475 8.24997V11.25C17.6475 11.6642 17.3117 12 16.8975 12C16.4832 12 16.1475 11.6642 16.1475 11.25V10.0606L12.9278 13.2803C12.6349 13.5732 12.16 13.5732 11.8671 13.2803L10.8975 12.3106L7.92779 15.2803C7.6349 15.5732 7.16002 15.5732 6.86713 15.2803C6.57424 14.9874 6.57424 14.5125 6.86713 14.2196L10.3671 10.7196C10.66 10.4267 11.1349 10.4267 11.4278 10.7196L12.3975 11.6893L15.0868 8.99997H13.8975C13.4832 8.99997 13.1475 8.66418 13.1475 8.24997C13.1475 7.83576 13.4832 7.49997 13.8975 7.49997Z" fill="black"/>
</svg>
