<svg width="24" height="24" viewBox="0 0 24 24" fill="none" xmlns="http://www.w3.org/2000/svg">
<path d="M17.0951 1.22924C17.0119 1.01821 16.7132 1.01821 16.63 1.22924L16.3367 1.97287C16.3113 2.0373 16.2603 2.0883 16.1959 2.11371L15.4522 2.407C15.2412 2.49023 15.2412 2.7889 15.4522 2.87213L16.1959 3.16541C16.2603 3.19082 16.3113 3.24182 16.3367 3.30626L16.63 4.04988C16.7132 4.26092 17.0119 4.26092 17.0951 4.04988L17.3884 3.30626C17.4138 3.24182 17.4648 3.19082 17.5293 3.16541L18.2729 2.87213C18.4839 2.7889 18.4839 2.49023 18.2729 2.407L17.5293 2.11371C17.4648 2.0883 17.4138 2.0373 17.3884 1.97287L17.0951 1.22924Z" fill="black"/>
<path d="M20.3977 2.81916C20.5641 2.39709 21.1615 2.39709 21.3279 2.81916L21.9145 4.30642C21.9653 4.43528 22.0673 4.53728 22.1962 4.5881L23.6834 5.17467C24.1055 5.34113 24.1055 5.93847 23.6834 6.10493L22.1962 6.6915C22.0673 6.74232 21.9653 6.84433 21.9145 6.97319L21.3279 8.46044C21.1615 8.88252 20.5641 8.88252 20.3977 8.46044L19.8111 6.97319C19.7603 6.84433 19.6583 6.74232 19.5294 6.6915L18.0422 6.10493C17.6201 5.93847 17.6201 5.34113 18.0422 5.17467L19.5294 4.5881C19.6583 4.53728 19.7603 4.43528 19.8111 4.30642L20.3977 2.81916Z" fill="black"/>
<path fill-rule="evenodd" clip-rule="evenodd" d="M20.1123 10.1353C19.6362 9.94734 19.2238 9.57251 19.0023 9.01078L18.5751 7.92755L17.4918 7.50033C16.3653 7.05602 15.9904 5.8443 16.3673 4.88932H6.61233C5.23162 4.88932 4.11233 6.00861 4.11233 7.38932V16.3893C4.11233 17.77 5.23162 18.8893 6.61233 18.8893H17.6123C18.993 18.8893 20.1123 17.77 20.1123 16.3893V10.1353ZM13.6009 7.76954C13.6729 7.36163 13.4006 6.9726 12.9927 6.90062C12.5848 6.82863 12.1957 7.10096 12.1237 7.50887L10.6237 16.0089C10.5518 16.4168 10.8241 16.8058 11.232 16.8778C11.6399 16.9498 12.0289 16.6775 12.1009 16.2695L13.6009 7.76954ZM9.3606 9.07865C9.67019 9.35384 9.69807 9.82789 9.42288 10.1375L7.86579 11.8892L9.42288 13.6409C9.69807 13.9505 9.67019 14.4246 9.3606 14.6998C9.05101 14.975 8.57696 14.9471 8.30177 14.6375L6.30177 12.3875C6.04918 12.1033 6.04918 11.6751 6.30177 11.3909L8.30177 9.14093C8.57696 8.83135 9.05101 8.80346 9.3606 9.07865ZM14.8641 9.07865C15.1736 8.80346 15.6477 8.83135 15.9229 9.14093L17.9229 11.3909C18.1755 11.6751 18.1755 12.1033 17.9229 12.3875L15.9229 14.6375C15.6477 14.9471 15.1736 14.975 14.8641 14.6998C14.5545 14.4246 14.5266 13.9505 14.8018 13.6409L16.3589 11.8892L14.8018 10.1375C14.5266 9.82789 14.5545 9.35384 14.8641 9.07865Z" fill="black"/>
</svg>
