<svg width="24" height="24" viewBox="0 0 24 24" fill="none" xmlns="http://www.w3.org/2000/svg">
<path fill-rule="evenodd" clip-rule="evenodd" d="M6.64746 19C5.26675 19 4.14746 17.8807 4.14746 16.5V8.50003C4.14746 7.11932 5.26675 6.00003 6.64746 6.00003H17.6475C19.0282 6.00003 20.1475 7.11932 20.1475 8.50003V16.5C20.1475 17.8807 19.0282 19 17.6475 19H6.64746ZM13.8975 16.5H16.8975C16.9992 16.5 17.0961 16.4798 17.1845 16.4431C17.2724 16.4068 17.3547 16.3531 17.4262 16.2819L17.4294 16.2788C17.5642 16.1432 17.6475 15.9563 17.6475 15.75V12.75C17.6475 12.3358 17.3117 12 16.8975 12C16.4832 12 16.1475 12.3358 16.1475 12.75V13.9394L12.9278 10.7197C12.6349 10.4268 12.16 10.4268 11.8671 10.7197L10.8975 11.6894L7.92779 8.7197C7.6349 8.42681 7.16002 8.42681 6.86713 8.7197C6.57424 9.01259 6.57424 9.48747 6.86713 9.78036L10.3671 13.2804C10.66 13.5733 11.1349 13.5733 11.4278 13.2804L12.3975 12.3107L15.0868 15H13.8975C13.4832 15 13.1475 15.3358 13.1475 15.75C13.1475 16.1642 13.4832 16.5 13.8975 16.5Z" fill="black"/>
</svg>
