<svg width="24" height="24" viewBox="0 0 24 24" fill="none" xmlns="http://www.w3.org/2000/svg">
<path fill-rule="evenodd" clip-rule="evenodd" d="M6.28657 5.10352C5.02373 5.10352 4 6.12725 4 7.39009V16.7136C4 17.9764 5.02373 19.0001 6.28657 19.0001H17.7135C18.9763 19.0001 20.0001 17.9764 20.0001 16.7136V7.39009C20.0001 6.12725 18.9764 5.10352 17.7135 5.10352H6.28657ZM16.9998 17.114C16.5855 17.114 16.2498 16.7782 16.2498 16.364V8.36401C16.2498 7.9498 16.5855 7.61401 16.9998 7.61401C17.414 7.61401 17.7498 7.9498 17.7498 8.36401V16.364C17.7498 16.7782 17.414 17.114 16.9998 17.114ZM12.9165 16.364C12.9165 16.7782 13.2523 17.114 13.6665 17.114C14.0807 17.114 14.4165 16.7782 14.4165 16.364V9.87293C14.4165 9.45872 14.0807 9.12293 13.6665 9.12293C13.2523 9.12293 12.9165 9.45872 12.9165 9.87293V16.364ZM10.3333 17.114C9.91904 17.114 9.58325 16.7782 9.58325 16.364V11.364C9.58325 10.9498 9.91904 10.614 10.3333 10.614C10.7475 10.614 11.0833 10.9498 11.0833 11.364L11.0833 16.364C11.0833 16.7782 10.7475 17.114 10.3333 17.114ZM7 17.114C6.58579 17.114 6.25 16.7782 6.25 16.364V13.864C6.25 13.4498 6.58579 13.114 7 13.114C7.41421 13.114 7.75 13.4498 7.75 13.864V16.364C7.75 16.7782 7.41421 17.114 7 17.114Z" fill="black"/>
</svg>
