<svg width="24" height="24" viewBox="0 0 24 24" fill="none" xmlns="http://www.w3.org/2000/svg">
<path fill-rule="evenodd" clip-rule="evenodd" d="M6.5 5C5.11929 5 4 6.11929 4 7.5V16.5C4 17.8807 5.11929 19 6.5 19H17.5C18.8807 19 20 17.8807 20 16.5V7.5C20 6.11929 18.8807 5 17.5 5H6.5ZM7 8C6.58579 8 6.25 8.33579 6.25 8.75C6.25 9.16421 6.58579 9.5 7 9.5H17C17.4142 9.5 17.75 9.16421 17.75 8.75C17.75 8.33579 17.4142 8 17 8H7ZM6.25 11.75C6.25 11.3358 6.58579 11 7 11H17C17.4142 11 17.75 11.3358 17.75 11.75C17.75 12.1642 17.4142 12.5 17 12.5H7C6.58579 12.5 6.25 12.1642 6.25 11.75ZM7 14C6.58579 14 6.25 14.3358 6.25 14.75C6.25 15.1642 6.58579 15.5 7 15.5H11C11.4142 15.5 11.75 15.1642 11.75 14.75C11.75 14.3358 11.4142 14 11 14H7Z" fill="black"/>
</svg>
