<svg width="24" height="24" viewBox="0 0 24 24" fill="none" xmlns="http://www.w3.org/2000/svg">
<path d="M17.0951 1.22859C17.0119 1.01755 16.7132 1.01755 16.63 1.22859L16.3367 1.97222C16.3113 2.03665 16.2603 2.08765 16.1959 2.11306L15.4522 2.40634C15.2412 2.48958 15.2412 2.78825 15.4522 2.87148L16.1959 3.16476C16.2603 3.19017 16.3113 3.24117 16.3367 3.3056L16.63 4.04923C16.7132 4.26027 17.0119 4.26027 17.0951 4.04923L17.3884 3.3056C17.4138 3.24117 17.4648 3.19017 17.5292 3.16476L18.2729 2.87148C18.4839 2.78825 18.4839 2.48958 18.2729 2.40634L17.5292 2.11306C17.4648 2.08765 17.4138 2.03665 17.3884 1.97222L17.0951 1.22859Z" fill="#090E12"/>
<path d="M20.3977 2.81851C20.5641 2.39643 21.1615 2.39643 21.3279 2.81851L21.9145 4.30577C21.9653 4.43463 22.0673 4.53663 22.1962 4.58745L23.6834 5.17402C24.1055 5.34048 24.1055 5.93782 23.6834 6.10428L22.1962 6.69085C22.0673 6.74167 21.9653 6.84367 21.9145 6.97253L21.3279 8.45979C21.1615 8.88187 20.5641 8.88187 20.3977 8.45979L19.8111 6.97253C19.7603 6.84367 19.6583 6.74167 19.5294 6.69085L18.0421 6.10428C17.6201 5.93782 17.6201 5.34048 18.0421 5.17402L19.5294 4.58745C19.6583 4.53663 19.7603 4.43463 19.8111 4.30577L20.3977 2.81851Z" fill="#090E12"/>
<path fill-rule="evenodd" clip-rule="evenodd" d="M20.1123 10.1346C19.6361 9.94669 19.2238 9.57186 19.0023 9.01013L18.575 7.9269L17.4918 7.49968C16.3652 7.05537 15.9904 5.84365 16.3673 4.88867H6.6123C5.23159 4.88867 4.1123 6.00796 4.1123 7.38867V16.3887C4.1123 17.7694 5.23159 18.8887 6.6123 18.8887H17.6123C18.993 18.8887 20.1123 17.7694 20.1123 16.3887V10.1346ZM13.6009 7.76889C13.6729 7.36098 13.4006 6.97195 12.9926 6.89997C12.5847 6.82798 12.1957 7.1003 12.1237 7.50821L10.6237 16.0082C10.5517 16.4161 10.8241 16.8052 11.232 16.8771C11.6399 16.9491 12.0289 16.6768 12.1009 16.2689L13.6009 7.76889ZM9.36058 9.078C9.67017 9.35319 9.69805 9.82724 9.42286 10.1368L7.86577 11.8886L9.42286 13.6403C9.69805 13.9499 9.67017 14.4239 9.36058 14.6991C9.05099 14.9743 8.57694 14.9464 8.30175 14.6368L6.30175 12.3868C6.04916 12.1027 6.04916 11.6744 6.30175 11.3903L8.30175 9.14028C8.57694 8.83069 9.05099 8.80281 9.36058 9.078ZM14.864 9.078C15.1736 8.80281 15.6477 8.83069 15.9229 9.14028L17.9229 11.3903C18.1755 11.6744 18.1755 12.1027 17.9229 12.3868L15.9229 14.6368C15.6477 14.9464 15.1736 14.9743 14.864 14.6991C14.5544 14.4239 14.5266 13.9499 14.8017 13.6403L16.3588 11.8886L14.8017 10.1368C14.5266 9.82724 14.5544 9.35319 14.864 9.078Z" fill="#090E12"/>
</svg>
