<svg width="24" height="24" viewBox="0 0 24 24" fill="none" xmlns="http://www.w3.org/2000/svg">
<path fill-rule="evenodd" clip-rule="evenodd" d="M6.5 5.5C5.11929 5.5 4 6.61929 4 8V16C4 17.3807 5.11929 18.5 6.5 18.5H17.5C18.8807 18.5 20 17.3807 20 16V8C20 6.61929 18.8807 5.5 17.5 5.5H6.5ZM8.56066 12.75L9.78033 13.9697C10.0732 14.2626 10.0732 14.7374 9.78033 15.0303C9.48744 15.3232 9.01256 15.3232 8.71967 15.0303L6.21967 12.5303C6.07902 12.3897 6 12.1989 6 12C6 11.8011 6.07902 11.6103 6.21967 11.4697L8.71967 8.96967C9.01256 8.67678 9.48744 8.67678 9.78033 8.96967C10.0732 9.26256 10.0732 9.73744 9.78033 10.0303L8.56066 11.25H15.4393L14.2197 10.0303C13.9268 9.73744 13.9268 9.26256 14.2197 8.96967C14.5126 8.67678 14.9874 8.67678 15.2803 8.96967L17.7803 11.4697C17.921 11.6103 18 11.8011 18 12C18 12.1989 17.921 12.3897 17.7803 12.5303L15.2803 15.0303C14.9874 15.3232 14.5126 15.3232 14.2197 15.0303C13.9268 14.7374 13.9268 14.2626 14.2197 13.9697L15.4393 12.75H8.56066Z" fill="black"/>
</svg>
