<svg width="24" height="24" viewBox="0 0 24 24" fill="none" xmlns="http://www.w3.org/2000/svg">
<path d="M4.64746 12.7626C3.54289 12.7626 2.64746 13.658 2.64746 14.7626C2.64746 15.8671 3.54289 16.7626 4.64746 16.7626V12.7626Z" fill="black"/>
<path d="M19.6475 16.7626C20.752 16.7626 21.6475 15.8671 21.6475 14.7626C21.6475 13.658 20.752 12.7626 19.6475 12.7626V16.7626Z" fill="black"/>
<path d="M13.6475 5.26257C13.6475 6.091 12.9759 6.76257 12.1475 6.76257C11.319 6.76257 10.6475 6.091 10.6475 5.26257C10.6475 4.43415 11.319 3.76257 12.1475 3.76257C12.9759 3.76257 13.6475 4.43415 13.6475 5.26257Z" fill="black"/>
<path fill-rule="evenodd" clip-rule="evenodd" d="M6.14746 12.7626C6.14746 10.0011 8.38604 7.76257 11.1475 7.76257H13.1475C15.9089 7.76257 18.1475 10.0011 18.1475 12.7626V17.7626C18.1475 18.8671 17.252 19.7626 16.1475 19.7626H8.14746C7.04289 19.7626 6.14746 18.8671 6.14746 17.7626V12.7626ZM11.0049 14.6574C11.245 14.8539 11.6475 14.8228 11.6475 14.5126C11.6475 13.5461 10.864 12.7626 9.89746 12.7626C8.93096 12.7626 8.14746 13.5461 8.14746 14.5126C8.14746 14.8228 8.54992 14.8539 8.79007 14.6574C9.09172 14.4106 9.4773 14.2626 9.89746 14.2626C10.3176 14.2626 10.7032 14.4106 11.0049 14.6574ZM16.1475 14.5126C16.1475 14.8228 15.745 14.8539 15.5049 14.6574C15.2032 14.4106 14.8176 14.2626 14.3975 14.2626C13.9773 14.2626 13.5917 14.4106 13.2901 14.6574C13.0499 14.8539 12.6475 14.8228 12.6475 14.5126C12.6475 13.5461 13.431 12.7626 14.3975 12.7626C15.364 12.7626 16.1475 13.5461 16.1475 14.5126Z" fill="black"/>
</svg>
