<svg width="24" height="24" viewBox="0 0 24 24" fill="none" xmlns="http://www.w3.org/2000/svg">
<path d="M4.64746 12.7617C3.54289 12.7617 2.64746 13.6571 2.64746 14.7617C2.64746 15.8663 3.54289 16.7617 4.64746 16.7617V12.7617Z" fill="black"/>
<path d="M19.6475 16.7617C20.752 16.7617 21.6475 15.8663 21.6475 14.7617C21.6475 13.6571 20.752 12.7617 19.6475 12.7617V16.7617Z" fill="black"/>
<path d="M13.6475 5.26172C13.6475 6.09015 12.9759 6.76172 12.1475 6.76172C11.319 6.76172 10.6475 6.09015 10.6475 5.26172C10.6475 4.43329 11.319 3.76172 12.1475 3.76172C12.9759 3.76172 13.6475 4.43329 13.6475 5.26172Z" fill="black"/>
<path fill-rule="evenodd" clip-rule="evenodd" d="M6.14746 12.7617C6.14746 10.0003 8.38604 7.76172 11.1475 7.76172H13.1475C15.9089 7.76172 18.1475 10.0003 18.1475 12.7617V17.7617C18.1475 18.8663 17.252 19.7617 16.1475 19.7617H8.14746C7.04289 19.7617 6.14746 18.8663 6.14746 17.7617V12.7617ZM11.0049 14.6566C11.245 14.8531 11.6475 14.822 11.6475 14.5117C11.6475 13.5452 10.864 12.7617 9.89746 12.7617C8.93096 12.7617 8.14746 13.5452 8.14746 14.5117C8.14746 14.822 8.54992 14.8531 8.79007 14.6566C9.09172 14.4098 9.4773 14.2617 9.89746 14.2617C10.3176 14.2617 10.7032 14.4098 11.0049 14.6566ZM16.1475 14.5117C16.1475 14.822 15.745 14.8531 15.5049 14.6566C15.2032 14.4098 14.8176 14.2617 14.3975 14.2617C13.9773 14.2617 13.5917 14.4098 13.2901 14.6566C13.0499 14.8531 12.6475 14.822 12.6475 14.5117C12.6475 13.5452 13.431 12.7617 14.3975 12.7617C15.364 12.7617 16.1475 13.5452 16.1475 14.5117Z" fill="black"/>
</svg>
