<svg width="24" height="24" viewBox="0 0 24 24" fill="none" xmlns="http://www.w3.org/2000/svg">
<path fill-rule="evenodd" clip-rule="evenodd" d="M17.5756 4.05414H17.7619C18.8664 4.05414 19.7619 4.94957 19.7619 6.05414V6.24043C19.7619 8.36216 18.919 10.397 17.4187 11.8973L15.7619 13.5541V15.9838C15.7619 16.6525 15.4277 17.2769 14.8713 17.6479L12.4426 19.267C11.8672 19.6506 11.0854 19.3484 10.9177 18.6775L10.2619 16.0541L7.76188 13.5541L5.13851 12.8983C4.46763 12.7306 4.16541 11.9488 4.549 11.3735L6.16814 8.94474C6.53907 8.38834 7.16354 8.05414 7.83224 8.05414H10.2619L11.9187 6.39728C13.419 4.89699 15.4539 4.05414 17.5756 4.05414ZM16.7619 8.55414C16.7619 9.38257 16.0903 10.0541 15.2619 10.0541C14.4334 10.0541 13.7619 9.38257 13.7619 8.55414C13.7619 7.72571 14.4334 7.05414 15.2619 7.05414C16.0903 7.05414 16.7619 7.72571 16.7619 8.55414Z" fill="black"/>
<path d="M6.57722 15.5541C5.80418 15.5541 5.13035 16.0803 4.94286 16.8302L4.46399 18.7457C4.37244 19.1119 4.70414 19.4436 5.07033 19.352L6.98581 18.8732C7.73576 18.6857 8.26188 18.0118 8.26188 17.2388C8.26188 16.3084 7.50763 15.5541 6.57722 15.5541Z" fill="black"/>
</svg>
