<svg width="24" height="24" viewBox="0 0 24 24" fill="none" xmlns="http://www.w3.org/2000/svg">
<path fill-rule="evenodd" clip-rule="evenodd" d="M17.5756 4.05469H17.7619C18.8664 4.05469 19.7619 4.95012 19.7619 6.05469V6.24098C19.7619 8.36271 18.919 10.3975 17.4187 11.8978L15.7619 13.5547V15.9843C15.7619 16.653 15.4277 17.2775 14.8713 17.6484L12.4426 19.2676C11.8672 19.6512 11.0854 19.3489 10.9177 18.6781L10.2619 16.0547L7.76188 13.5547L5.13851 12.8988C4.46763 12.7311 4.16541 11.9494 4.549 11.374L6.16814 8.94529C6.53907 8.38889 7.16354 8.05469 7.83224 8.05469H10.2619L11.9187 6.39783C13.419 4.89754 15.4539 4.05469 17.5756 4.05469ZM16.7619 8.55469C16.7619 9.38311 16.0903 10.0547 15.2619 10.0547C14.4334 10.0547 13.7619 9.38311 13.7619 8.55469C13.7619 7.72626 14.4334 7.05469 15.2619 7.05469C16.0903 7.05469 16.7619 7.72626 16.7619 8.55469Z" fill="black"/>
<path d="M6.57722 15.5547C5.80418 15.5547 5.13035 16.0808 4.94286 16.8308L4.46399 18.7462C4.37244 19.1124 4.70414 19.4441 5.07033 19.3526L6.98581 18.8737C7.73576 18.6862 8.26188 18.0124 8.26188 17.2393C8.26188 16.3089 7.50763 15.5547 6.57722 15.5547Z" fill="black"/>
</svg>
