<svg width="24" height="24" viewBox="0 0 24 24" fill="none" xmlns="http://www.w3.org/2000/svg">
<path d="M7.5 10.5298C7.5 9.42574 8.39463 8.53052 9.49868 8.52979L14.4987 8.52649C15.4246 8.52588 16.2039 9.15455 16.4323 10.0084C15.8167 10.8216 15.6979 11.995 16.3726 12.9588L16.5 13.1409V13.5252C16.5 14.6297 15.6046 15.5252 14.5 15.5252H12.5L10.2773 17.0069C9.94507 17.2285 9.5 16.9903 9.5 16.5909V15.5252C8.39543 15.5252 7.5 14.6297 7.5 13.5252V10.5298Z" fill="black"/>
<path d="M5 12.0251C5 8.15915 8.13401 5.02515 12 5.02515C14.793 5.02515 17.204 6.66095 18.3271 9.02678C18.5516 9.4995 18.7246 10.0014 18.8389 10.5251H18.4207C17.6116 10.5251 17.1375 11.4358 17.6014 12.0986L19.1808 14.3548C19.5265 14.8487 20.2072 14.9137 20.6411 14.5497C20.7068 14.4946 20.7669 14.4296 20.8192 14.3548L22.3986 12.0986C22.8625 11.4358 22.3884 10.5251 21.5793 10.5251H20.8756C20.789 10.0089 20.6584 9.50759 20.4879 9.02515C19.2524 5.52957 15.9187 3.02515 12 3.02515C7.02944 3.02515 3 7.05458 3 12.0251C3 16.9957 7.02944 21.0251 12 21.0251C15.4313 21.0251 18.4141 19.1049 19.9325 16.2805C19.2618 16.2626 18.5972 15.9785 18.1185 15.4283C16.9226 17.5739 14.6308 19.0251 12 19.0251C8.13401 19.0251 5 15.8911 5 12.0251Z" fill="black"/>
</svg>
