<svg width="24" height="24" viewBox="0 0 24 24" fill="none" xmlns="http://www.w3.org/2000/svg">
<path fill-rule="evenodd" clip-rule="evenodd" d="M2.70508 5.04492C2.70508 3.94035 3.60051 3.04492 4.70508 3.04492H16.7051C17.8096 3.04492 18.7051 3.94035 18.7051 5.04492V6.04492C18.7051 7.03871 17.9802 7.86321 17.0304 8.0186C16.4906 7.71714 15.8682 7.54492 15.2051 7.54492C14.5232 7.54492 13.8839 7.72689 13.333 8.04492H4.70508C3.60051 8.04492 2.70508 7.14949 2.70508 6.04492V5.04492ZM5.20508 6.54492C5.75736 6.54492 6.20508 6.09721 6.20508 5.54492C6.20508 4.99264 5.75736 4.54492 5.20508 4.54492C4.65279 4.54492 4.20508 4.99264 4.20508 5.54492C4.20508 6.09721 4.65279 6.54492 5.20508 6.54492Z" fill="black"/>
<path fill-rule="evenodd" clip-rule="evenodd" d="M10.2051 13.5449C10.2051 13.8924 10.2557 14.2281 10.35 14.5449H4.70508C3.60051 14.5449 2.70508 13.6495 2.70508 12.5449V11.5449C2.70508 10.4404 3.60051 9.54492 4.70508 9.54492H11.8876C11.6785 9.94056 11.538 10.3781 11.4822 10.8417C10.7032 11.4829 10.2051 12.4547 10.2051 13.5449ZM5.20508 13.0449C5.75736 13.0449 6.20508 12.5972 6.20508 12.0449C6.20508 11.4926 5.75736 11.0449 5.20508 11.0449C4.65279 11.0449 4.20508 11.4926 4.20508 12.0449C4.20508 12.5972 4.65279 13.0449 5.20508 13.0449Z" fill="black"/>
<path fill-rule="evenodd" clip-rule="evenodd" d="M13.7051 17.0449C12.7514 17.0449 11.8869 16.6635 11.2556 16.0449H4.70508C3.60051 16.0449 2.70508 16.9404 2.70508 18.0449V19.0449C2.70508 20.1495 3.60051 21.0449 4.70508 21.0449H16.7051C17.8096 21.0449 18.7051 20.1495 18.7051 19.0449V18.0449C18.7051 17.6806 18.6077 17.3391 18.4375 17.0449H13.7051ZM5.20508 19.5449C5.75736 19.5449 6.20508 19.0972 6.20508 18.5449C6.20508 17.9926 5.75736 17.5449 5.20508 17.5449C4.65279 17.5449 4.20508 17.9926 4.20508 18.5449C4.20508 19.0972 4.65279 19.5449 5.20508 19.5449Z" fill="black"/>
<path fill-rule="evenodd" clip-rule="evenodd" d="M11.7051 13.5449C11.7051 14.6495 12.6005 15.5449 13.7051 15.5449H18.9551C19.9216 15.5449 20.7051 14.7614 20.7051 13.7949C20.7051 12.9652 20.1277 12.2704 19.3528 12.0903C19.4188 11.9213 19.4551 11.7373 19.4551 11.5449C19.4551 10.7165 18.7835 10.0449 17.9551 10.0449C17.679 10.0449 17.4203 10.1195 17.1981 10.2497C16.8216 9.53341 16.0704 9.04492 15.2051 9.04492C13.9624 9.04492 12.9551 10.0523 12.9551 11.2949C12.9551 11.4253 12.9662 11.5532 12.9875 11.6775C12.2374 11.9659 11.7051 12.6933 11.7051 13.5449Z" fill="black"/>
</svg>
