<svg width="24" height="24" viewBox="0 0 24 24" fill="none" xmlns="http://www.w3.org/2000/svg">
<path fill-rule="evenodd" clip-rule="evenodd" d="M5.70508 3.04492C4.60051 3.04492 3.70508 3.94035 3.70508 5.04492V6.04492C3.70508 7.14949 4.60051 8.04492 5.70508 8.04492H17.7051C18.8096 8.04492 19.7051 7.14949 19.7051 6.04492V5.04492C19.7051 3.94035 18.8096 3.04492 17.7051 3.04492H5.70508ZM6.20508 6.54492C6.75736 6.54492 7.20508 6.09721 7.20508 5.54492C7.20508 4.99264 6.75736 4.54492 6.20508 4.54492C5.65279 4.54492 5.20508 4.99264 5.20508 5.54492C5.20508 6.09721 5.65279 6.54492 6.20508 6.54492Z" fill="black"/>
<path fill-rule="evenodd" clip-rule="evenodd" d="M5.70508 9.54492C4.60051 9.54492 3.70508 10.4404 3.70508 11.5449V12.5449C3.70508 13.6495 4.60051 14.5449 5.70508 14.5449H17.7051C18.8096 14.5449 19.7051 13.6495 19.7051 12.5449V11.5449C19.7051 10.4404 18.8096 9.54492 17.7051 9.54492H5.70508ZM6.20508 13.0449C6.75736 13.0449 7.20508 12.5972 7.20508 12.0449C7.20508 11.4926 6.75736 11.0449 6.20508 11.0449C5.65279 11.0449 5.20508 11.4926 5.20508 12.0449C5.20508 12.5972 5.65279 13.0449 6.20508 13.0449Z" fill="black"/>
<path fill-rule="evenodd" clip-rule="evenodd" d="M5.70508 16.0449C4.60051 16.0449 3.70508 16.9404 3.70508 18.0449V19.0449C3.70508 20.1495 4.60051 21.0449 5.70508 21.0449H17.7051C18.8096 21.0449 19.7051 20.1495 19.7051 19.0449V18.0449C19.7051 16.9404 18.8096 16.0449 17.7051 16.0449H5.70508ZM6.20508 19.5449C6.75736 19.5449 7.20508 19.0972 7.20508 18.5449C7.20508 17.9926 6.75736 17.5449 6.20508 17.5449C5.65279 17.5449 5.20508 17.9926 5.20508 18.5449C5.20508 19.0972 5.65279 19.5449 6.20508 19.5449Z" fill="black"/>
</svg>
