<svg width="24" height="24" viewBox="0 0 24 24" fill="none" xmlns="http://www.w3.org/2000/svg">
<path d="M18 7C18 8.38071 16.8807 9.5 15.5 9.5C14.1193 9.5 13 8.38071 13 7C13 5.61929 14.1193 4.5 15.5 4.5C16.8807 4.5 18 5.61929 18 7Z" fill="black"/>
<path d="M18 17C18 18.3807 16.8807 19.5 15.5 19.5C14.1193 19.5 13 18.3807 13 17C13 15.6193 14.1193 14.5 15.5 14.5C16.8807 14.5 18 15.6193 18 17Z" fill="black"/>
<path d="M10 12C10 13.3807 8.88071 14.5 7.5 14.5C6.11929 14.5 5 13.3807 5 12C5 10.6193 6.11929 9.5 7.5 9.5C8.88071 9.5 10 10.6193 10 12Z" fill="black"/>
<path fill-rule="evenodd" clip-rule="evenodd" d="M16.136 6.6025C16.3555 6.95375 16.2488 7.41647 15.8975 7.636L8.9151 12L15.8975 16.364C16.2488 16.5835 16.3555 17.0462 16.136 17.3975C15.9165 17.7488 15.4538 17.8555 15.1025 17.636L6.0849 12L15.1025 6.364C15.4538 6.14447 15.9165 6.25125 16.136 6.6025Z" fill="black"/>
</svg>
