<svg width="24" height="24" viewBox="0 0 24 24" fill="none" xmlns="http://www.w3.org/2000/svg">
<path d="M6.32733 6.2259C5.53134 6.51798 5 7.29264 5 8.16106V10.5111C5 14.1982 6.92286 17.6025 10.0386 19.4318L11.0077 20.0007C11.6226 20.3617 12.3774 20.3617 12.9923 20.0007L13.9614 19.4318C14.1899 19.2976 14.4119 19.155 14.6273 19.0044C12.7775 18.0943 11.5 16.1529 11.5 13.905C11.5 10.7841 13.9624 8.2541 17 8.2541C17.7056 8.2541 18.3801 8.39061 19 8.63933V8.16106C19 7.29264 18.4687 6.51798 17.6727 6.2259L12.6727 4.3912C12.2377 4.23158 11.7623 4.23158 11.3273 4.3912L6.32733 6.2259Z" fill="black"/>
<path fill-rule="evenodd" clip-rule="evenodd" d="M17 18.0147C19.2091 18.0147 21 16.1747 21 13.905C21 11.6352 19.2091 9.79525 17 9.79525C14.7909 9.79525 13 11.6352 13 13.905C13 16.1747 14.7909 18.0147 17 18.0147ZM17.625 11.8501C17.625 11.4955 17.3452 11.208 17 11.208C16.6548 11.208 16.375 11.4955 16.375 11.8501V13.905C16.375 14.0753 16.4408 14.2386 16.5581 14.3591L17.5581 15.3865C17.8021 15.6373 18.1979 15.6373 18.4419 15.3865C18.686 15.1357 18.686 14.7291 18.4419 14.4784L17.625 13.639V11.8501Z" fill="black"/>
</svg>
