<svg width="24" height="24" viewBox="0 0 24 24" fill="none" xmlns="http://www.w3.org/2000/svg">
<path d="M6.58953 6.17957C5.79355 6.46385 5.26221 7.21783 5.26221 8.06306V10.3504C5.26221 13.939 7.18507 17.2524 10.3008 19.0328L11.2699 19.5866C11.8848 19.938 12.6396 19.938 13.2545 19.5866L14.2236 19.0328C14.4521 18.9023 14.6741 18.7635 14.8895 18.6169C13.0397 17.731 11.7622 15.8415 11.7622 13.6536C11.7622 10.6161 14.2246 8.15362 17.2622 8.15362C17.9678 8.15362 18.6423 8.28648 19.2622 8.52856V8.06306C19.2622 7.21783 18.7309 6.46385 17.9349 6.17957L12.9349 4.39386C12.4999 4.2385 12.0245 4.23851 11.5895 4.39386L6.58953 6.17957Z" fill="black"/>
<path fill-rule="evenodd" clip-rule="evenodd" d="M17.2622 17.6536C19.4713 17.6536 21.2622 15.8628 21.2622 13.6536C21.2622 11.4445 19.4713 9.65362 17.2622 9.65362C15.0531 9.65362 13.2622 11.4445 13.2622 13.6536C13.2622 15.8628 15.0531 17.6536 17.2622 17.6536ZM19.6177 12.7572C19.813 12.5619 19.813 12.2453 19.6177 12.0501C19.4225 11.8548 19.1059 11.8548 18.9106 12.0501L16.7642 14.1965L15.6177 13.0501C15.4225 12.8548 15.1059 12.8548 14.9106 13.0501C14.7153 13.2453 14.7153 13.5619 14.9106 13.7572L16.4106 15.2572C16.6059 15.4524 16.9225 15.4524 17.1177 15.2572L19.6177 12.7572Z" fill="black"/>
</svg>
