<svg width="24" height="24" viewBox="0 0 24 24" fill="none" xmlns="http://www.w3.org/2000/svg">
<path d="M6.32733 6.02528C5.53134 6.30956 5 7.06353 5 7.90876V10.1961C5 13.7847 6.92286 17.0981 10.0386 18.8785L11.0077 19.4323C11.6226 19.7837 12.3774 19.7837 12.9923 19.4323L13.9614 18.8785C14.1899 18.748 14.4119 18.6092 14.6273 18.4626C12.7775 17.5767 11.5 15.6872 11.5 13.4993C11.5 10.4618 13.9624 7.99932 17 7.99932C17.7056 7.99932 18.3801 8.13219 19 8.37426V7.90876C19 7.06353 18.4687 6.30956 17.6727 6.02528L12.6727 4.23956C12.2377 4.08421 11.7623 4.08421 11.3273 4.23956L6.32733 6.02528Z" fill="black"/>
<path fill-rule="evenodd" clip-rule="evenodd" d="M17 17.4993C19.2091 17.4993 21 15.7085 21 13.4993C21 11.2902 19.2091 9.49932 17 9.49932C14.7909 9.49932 13 11.2902 13 13.4993C13 15.7085 14.7909 17.4993 17 17.4993ZM17.625 11.4993C17.625 11.1541 17.3452 10.8743 17 10.8743C16.6548 10.8743 16.375 11.1541 16.375 11.4993V13.4993C16.375 13.6651 16.4408 13.8241 16.5581 13.9413L17.5581 14.9413C17.8021 15.1853 18.1979 15.1853 18.4419 14.9413C18.686 14.6972 18.686 14.3015 18.4419 14.0574L17.625 13.2404V11.4993Z" fill="black"/>
</svg>
