<svg width="24" height="24" viewBox="0 0 24 24" fill="none" xmlns="http://www.w3.org/2000/svg">
<path d="M6.58953 6.18055C5.79355 6.46483 5.26221 7.21881 5.26221 8.06403V10.3514C5.26221 13.9399 7.18507 17.2534 10.3008 19.0338L11.2699 19.5876C11.8848 19.9389 12.6396 19.9389 13.2545 19.5876L14.2236 19.0338C14.4521 18.9032 14.6741 18.7644 14.8895 18.6179C13.0397 17.732 11.7622 15.8425 11.7622 13.6546C11.7622 10.617 14.2246 8.1546 17.2622 8.1546C17.9678 8.1546 18.6423 8.28746 19.2622 8.52954V8.06403C19.2622 7.21881 18.7309 6.46483 17.9349 6.18055L12.9349 4.39484C12.4999 4.23948 12.0245 4.23948 11.5895 4.39484L6.58953 6.18055Z" fill="black"/>
<path fill-rule="evenodd" clip-rule="evenodd" d="M17.2622 17.6546C19.4713 17.6546 21.2622 15.8637 21.2622 13.6546C21.2622 11.4455 19.4713 9.6546 17.2622 9.6546C15.0531 9.6546 13.2622 11.4455 13.2622 13.6546C13.2622 15.8637 15.0531 17.6546 17.2622 17.6546ZM19.6177 12.7581C19.813 12.5629 19.813 12.2463 19.6177 12.051C19.4225 11.8558 19.1059 11.8558 18.9106 12.051L16.7642 14.1975L15.6177 13.051C15.4225 12.8558 15.1059 12.8558 14.9106 13.051C14.7153 13.2463 14.7153 13.5629 14.9106 13.7581L16.4106 15.2581C16.6059 15.4534 16.9225 15.4534 17.1177 15.2581L19.6177 12.7581Z" fill="black"/>
</svg>
