<svg width="24" height="24" viewBox="0 0 24 24" fill="none" xmlns="http://www.w3.org/2000/svg">
<path d="M6.32733 6.02596C5.53134 6.31024 5 7.06421 5 7.90944V10.1968C5 13.7853 6.92286 17.0988 10.0386 18.8792L11.0077 19.433C11.6226 19.7843 12.3774 19.7843 12.9923 19.433L13.9614 18.8792C14.1899 18.7486 14.4119 18.6098 14.6273 18.4633C12.7775 17.5774 11.5 15.6879 11.5 13.5C11.5 10.4624 13.9624 8 17 8C17.7056 8 18.3801 8.13287 19 8.37494V7.90944C19 7.06421 18.4687 6.31024 17.6727 6.02596L12.6727 4.24024C12.2377 4.08489 11.7623 4.08489 11.3273 4.24024L6.32733 6.02596Z" fill="black"/>
<path fill-rule="evenodd" clip-rule="evenodd" d="M17 17.5C19.2091 17.5 21 15.7091 21 13.5C21 11.2909 19.2091 9.5 17 9.5C14.7909 9.5 13 11.2909 13 13.5C13 15.7091 14.7909 17.5 17 17.5ZM17.625 11.5C17.625 11.1548 17.3452 10.875 17 10.875C16.6548 10.875 16.375 11.1548 16.375 11.5V13.5C16.375 13.6658 16.4408 13.8247 16.5581 13.9419L17.5581 14.9419C17.8021 15.186 18.1979 15.186 18.4419 14.9419C18.686 14.6979 18.686 14.3021 18.4419 14.0581L17.625 13.2411V11.5Z" fill="black"/>
</svg>
