<svg width="24" height="24" viewBox="0 0 24 24" fill="none" xmlns="http://www.w3.org/2000/svg">
<path fill-rule="evenodd" clip-rule="evenodd" d="M11.0101 4.31372L5.98849 6.10231C5.35525 6.32786 4.93237 6.92738 4.93237 7.59959V11.167C4.93237 15.5922 8.56308 19.1347 11.2593 19.9978C11.6724 20.1301 12.1149 20.1248 12.5258 19.986C15.1979 19.0836 18.9324 15.5661 18.9324 11.167V7.60369C18.9324 6.92947 18.507 6.32862 17.8711 6.10458L12.7792 4.31068C12.2066 4.10894 11.582 4.11002 11.0101 4.31372ZM11.6484 8.9119C11.5513 8.62404 11.2901 8.42319 10.987 8.40324C10.6839 8.38329 10.3986 8.54818 10.2646 8.82083L8.98616 11.4223H7.92773C7.51352 11.4223 7.17773 11.7581 7.17773 12.1723C7.17773 12.5866 7.51352 12.9223 7.92773 12.9223H9.45325C9.73919 12.9223 10.0002 12.7598 10.1264 12.5031L10.8085 11.115L12.2577 15.4111C12.3547 15.6987 12.6154 15.8994 12.9182 15.9197C13.221 15.94 13.5062 15.7759 13.6407 15.5038L14.917 12.9223H15.935C16.3493 12.9223 16.685 12.5866 16.685 12.1723C16.685 11.7581 16.3493 11.4223 15.935 11.4223H14.4512C14.1659 11.4223 13.9053 11.5842 13.7789 11.8399L13.0995 13.2139L11.6484 8.9119Z" fill="black"/>
</svg>
