<svg width="24" height="24" viewBox="0 0 24 24" fill="none" xmlns="http://www.w3.org/2000/svg">
<path d="M13.0195 10.9693H10.9246V9.87996C10.9246 9.20702 11.2943 8.63007 11.9672 8.63007C12.6402 8.63007 13.0195 9.20702 13.0195 9.87996V10.9693Z" fill="black"/>
<path fill-rule="evenodd" clip-rule="evenodd" d="M11.045 4.3147L6.02341 6.10329C5.39017 6.32883 4.96729 6.92835 4.96729 7.60056V11.168C4.96729 15.5932 8.59799 19.1356 11.2942 19.9988C11.7073 20.1311 12.1498 20.1257 12.5607 19.987C15.2328 19.0846 18.9673 15.5671 18.9673 11.168V7.60466C18.9673 6.93045 18.5419 6.32959 17.906 6.10556L12.8141 4.31165C12.2415 4.10992 11.617 4.11099 11.045 4.3147ZM9.39074 10.9693H8.98393C8.53474 10.9693 8.1703 11.3337 8.1703 11.7829V14.2763C8.1703 14.7255 8.53474 15.0899 8.98393 15.0899H14.9505C15.3997 15.0899 15.7642 14.7255 15.7642 14.2763V11.7829C15.7642 11.3337 15.3997 10.9693 14.9505 10.9693H14.5437V9.74885C14.5437 8.32839 13.3877 7.17236 11.9672 7.17236C10.5468 7.17236 9.39074 8.32839 9.39074 9.74885V10.9693Z" fill="black"/>
</svg>
