<svg width="24" height="24" viewBox="0 0 24 24" fill="none" xmlns="http://www.w3.org/2000/svg">
<path d="M8.71103 4.5C8.94805 4.5 9.14558 4.67321 9.21851 4.90113C9.59229 6.07715 10.6954 6.93106 11.999 6.93106C13.3027 6.93106 14.4058 6.07715 14.7796 4.90113C14.8525 4.67321 15.05 4.5 15.287 4.5H15.6699C16.3537 4.5 17.0131 4.74007 17.5388 5.17766L20.5605 7.71634C21.1017 8.17105 21.1585 8.98372 20.6858 9.50929L19.3291 11.0176C18.904 11.4904 18.1916 11.5686 17.674 11.1994L16.9987 10.7179V18.25C16.9987 18.9404 16.4391 19.5 15.7487 19.5H8.26595C7.57559 19.5 7.01595 18.9404 7.01595 18.25V10.7179L6.34836 11.1988C5.82666 11.5747 5.10493 11.4934 4.67984 11.011L3.32731 9.47608C2.86303 8.94918 2.92379 8.14332 3.46183 7.692L6.45926 5.17766C6.98497 4.74007 7.6444 4.5 8.32813 4.5H8.71103Z" fill="black"/>
</svg>
