<svg width="24" height="24" viewBox="0 0 24 24" fill="none" xmlns="http://www.w3.org/2000/svg">
<path d="M4.54446 8.08236C4.80177 8.03472 5.06056 8.13423 5.24832 8.30392C5.72898 8.73835 6.38627 9.00605 7.11111 9.00605C8.14953 9.00605 9.04931 8.45662 9.48972 7.65468C9.658 7.34827 9.9337 7.08462 10.2978 7.0172C10.5349 6.97331 10.7811 7.01412 10.987 7.1314L12.0945 7.76226L11.4453 8.66365C11.2411 8.94723 11.3238 9.33038 11.6302 9.51944C11.9366 9.70849 12.3505 9.63186 12.5547 9.34828L13.2308 8.40955L14.3005 9.01894L13.6675 9.89788C13.4633 10.1815 13.5461 10.5646 13.8524 10.7537C14.1588 10.9427 14.5727 10.8661 14.7769 10.5825L15.4368 9.66623L16.2689 10.1402C16.3853 10.2065 16.5119 10.2558 16.6444 10.2865L18.3167 10.6735C19.306 10.9024 20 11.7252 20 12.6692V13.5315H4V8.69713C4 8.39828 4.22788 8.14097 4.54446 8.08236Z" fill="black"/>
<path d="M4 14.7658C4.00001 15.4474 4.59696 16 5.33333 16H18.6667C19.403 16 20 15.4474 20 14.7658H4Z" fill="black"/>
</svg>
