<svg width="24" height="24" viewBox="0 0 24 24" fill="none" xmlns="http://www.w3.org/2000/svg">
<path d="M10.297 11.9154C9.83979 12.18 9.30858 12.3318 8.74148 12.3318C8.17437 12.3318 7.64317 12.18 7.18595 11.9154C6.78891 12.1451 6.33609 12.2899 5.85242 12.324C5.82919 13.1057 5.84096 16.9383 5.84818 18.7819C5.85033 19.3323 6.29721 19.7761 6.84762 19.7761H9.36637C9.64251 19.7761 9.86637 19.5522 9.86637 19.2761V15.7844C9.86637 15.2321 10.3141 14.7844 10.8664 14.7844C11.5359 14.7844 12.2055 14.7844 12.875 14.7844C13.4273 14.7844 13.875 15.2319 13.875 15.7842C13.875 16.9167 13.875 18.1959 13.875 19.2764C13.875 19.5525 14.0989 19.7761 14.375 19.7761H16.8786C17.4207 19.7761 17.8598 19.3463 17.8619 18.8043C17.87 16.7062 17.8527 12.324 17.8527 12.324C17.369 12.2899 16.9162 12.1451 16.5191 11.9154C16.0619 12.18 15.5307 12.3318 14.9636 12.3318C14.3965 12.3318 13.8653 12.18 13.4081 11.9154C12.9509 12.18 12.4196 12.3318 11.8525 12.3318C11.2854 12.3318 10.7542 12.18 10.297 11.9154Z" fill="black"/>
<path d="M6.83852 3.77637C6.24412 3.77637 5.5761 4.03451 5.35934 4.568L4.15123 6.99516C4.02642 7.26404 3.85266 7.63031 3.85266 7.98128V9.22077C3.85266 10.2026 4.64859 10.9985 5.63041 10.9985C6.29974 10.9985 6.88268 10.6286 7.18595 10.0821C7.48921 10.6286 8.07215 10.9985 8.74148 10.9985C9.41081 10.9985 9.99374 10.6286 10.297 10.0821C10.6003 10.6286 11.1832 10.9985 11.8525 10.9985C12.5219 10.9985 13.1048 10.6286 13.4081 10.0821C13.7113 10.6286 14.2943 10.9985 14.9636 10.9985C15.6329 10.9985 16.2159 10.6286 16.5191 10.0821C16.8224 10.6286 17.4053 10.9985 18.0747 10.9985C19.0565 10.9985 19.8524 10.2026 19.8524 9.22077V7.98128C19.8524 7.63031 19.699 7.32629 19.5539 6.99516L18.3332 4.56803C18.0998 4.05356 17.4484 3.77639 16.854 3.77639L6.83852 3.77637Z" fill="black"/>
</svg>
