<svg width="24" height="24" viewBox="0 0 24 24" fill="none" xmlns="http://www.w3.org/2000/svg">
<path d="M10.2969 11.9154C9.83966 12.18 9.30846 12.3318 8.74136 12.3318C8.17425 12.3318 7.64305 12.18 7.18582 11.9154C6.78879 12.1451 6.33597 12.2899 5.85229 12.324C5.82907 13.1057 5.84083 16.9383 5.84805 18.7819C5.85021 19.3323 6.29709 19.7761 6.8475 19.7761H9.36625C9.64239 19.7761 9.86625 19.5522 9.86625 19.2761V15.7844C9.86625 15.2321 10.314 14.7844 10.8662 14.7844C11.5358 14.7844 12.2053 14.7844 12.8749 14.7844C13.4272 14.7844 13.8749 15.2319 13.8749 15.7842C13.8749 16.9167 13.8749 18.1959 13.8749 19.2764C13.8749 19.5525 14.0987 19.7761 14.3749 19.7761H16.8785C17.4205 19.7761 17.8597 19.3463 17.8618 18.8043C17.8699 16.7062 17.8526 12.324 17.8526 12.324C17.3689 12.2899 16.9161 12.1451 16.519 11.9154C16.0618 12.18 15.5306 12.3318 14.9635 12.3318C14.3964 12.3318 13.8652 12.18 13.408 11.9154C12.9507 12.18 12.4195 12.3318 11.8524 12.3318C11.2853 12.3318 10.7541 12.18 10.2969 11.9154Z" fill="black"/>
<path d="M6.8384 3.77637C6.244 3.77637 5.57597 4.03451 5.35922 4.568L4.15111 6.99516C4.0263 7.26404 3.85254 7.63031 3.85254 7.98128V9.22077C3.85254 10.2026 4.64847 10.9985 5.63029 10.9985C6.29962 10.9985 6.88256 10.6286 7.18582 10.0821C7.48909 10.6286 8.07203 10.9985 8.74136 10.9985C9.41069 10.9985 9.99362 10.6286 10.2969 10.0821C10.6002 10.6286 11.1831 10.9985 11.8524 10.9985C12.5218 10.9985 13.1047 10.6286 13.408 10.0821C13.7112 10.6286 14.2942 10.9985 14.9635 10.9985C15.6328 10.9985 16.2158 10.6286 16.519 10.0821C16.8223 10.6286 17.4052 10.9985 18.0746 10.9985C19.0564 10.9985 19.8523 10.2026 19.8523 9.22077V7.98128C19.8523 7.63031 19.6989 7.32629 19.5537 6.99516L18.3331 4.56803C18.0997 4.05356 17.4483 3.77639 16.8539 3.77639L6.8384 3.77637Z" fill="black"/>
</svg>
