<svg width="24" height="24" viewBox="0 0 24 24" fill="none" xmlns="http://www.w3.org/2000/svg">
<path d="M12.9899 7.44741C12.9899 7.03211 13.1961 6.64393 13.5403 6.4115L17.1028 4.00566C17.5255 3.7202 18.0792 3.7202 18.5019 4.00566L22.0644 6.4115C22.4086 6.64393 22.6149 7.03211 22.6149 7.44741V19.0332C22.6149 19.7236 22.0552 20.2832 21.3649 20.2832H14.2399C13.5495 20.2832 12.9899 19.7236 12.9899 19.0332V7.44741Z" fill="black"/>
<path d="M1.72773 8.78319H11.1268C11.0561 8.49609 10.9529 8.21696 10.8184 7.9514C8.99607 4.35411 3.85842 4.35411 2.03611 7.9514C1.90159 8.21696 1.79835 8.49609 1.72773 8.78319Z" fill="black"/>
<path d="M11.2397 10.7832H1.61475V19.0332C1.61475 19.7236 2.17439 20.2832 2.86475 20.2832H9.98975C10.6801 20.2832 11.2397 19.7236 11.2397 19.0332V10.7832Z" fill="black"/>
</svg>
