<svg width="24" height="24" viewBox="0 0 24 24" fill="none" xmlns="http://www.w3.org/2000/svg">
<path fill-rule="evenodd" clip-rule="evenodd" d="M7.75 11.9298C9.60065 11.5787 11 9.95279 11 8C11 5.79086 9.20914 4 7 4C4.79086 4 3 5.79086 3 8C3 9.95279 4.39935 11.5787 6.25 11.9298V16.5C6.25 17.7426 7.25736 18.75 8.5 18.75H9.5C10.4083 18.75 11.2276 18.2038 11.5769 17.3654L13.3077 13.2115C13.4241 12.9321 13.6972 12.75 14 12.75H14.2498V16.5C14.2498 17.7426 15.2571 18.75 16.4998 18.75H17.1451C17.4418 19.483 18.1604 20 18.9998 20C20.1043 20 20.9998 19.1046 20.9998 18C20.9998 16.8954 20.1043 16 18.9998 16C18.1604 16 17.4418 16.517 17.1451 17.25H16.4998C16.0856 17.25 15.7498 16.9142 15.7498 16.5V12.75H17.1451C17.4418 13.483 18.1604 14 18.9998 14C20.1043 14 20.9998 13.1046 20.9998 12C20.9998 10.8954 20.1043 10 18.9998 10C18.1604 10 17.4418 10.517 17.1451 11.25H15.7498V7.5C15.7498 7.08579 16.0856 6.75 16.4998 6.75H17.1451C17.4418 7.48296 18.1604 8 18.9998 8C20.1043 8 20.9998 7.10457 20.9998 6C20.9998 4.89543 20.1043 4 18.9998 4C18.1604 4 17.4418 4.51704 17.1451 5.25H16.4998C15.2571 5.25 14.2498 6.25736 14.2498 7.5V11.25H14C13.0917 11.25 12.2724 11.7962 11.9231 12.6346L10.1923 16.7885C10.0759 17.0679 9.80278 17.25 9.5 17.25H8.5C8.08579 17.25 7.75 16.9142 7.75 16.5V11.9298ZM5.06278 5.96991L5.80188 5.74819C6.00854 5.68619 6.22834 5.7922 6.30847 5.99253L6.60769 6.74055C6.67587 6.911 6.62447 7.10599 6.48112 7.22067L6.1793 7.46212C6.08843 7.53482 6.05335 7.65645 6.10561 7.76043C6.1861 7.92058 6.33568 8.16852 6.58361 8.41645C6.83155 8.66439 7.07948 8.81397 7.23963 8.89445C7.34361 8.94671 7.46524 8.91163 7.53794 8.82076L7.7794 8.51894C7.89408 8.37559 8.08906 8.32419 8.25951 8.39237L9.00751 8.69157C9.20783 8.7717 9.31385 8.99151 9.25185 9.19816L9.03012 9.93728C8.97901 10.1076 8.82536 10.2258 8.64796 10.2129C8.09832 10.1728 6.89281 9.97554 5.95871 9.04145C5.02462 8.10736 4.82726 6.90178 4.78717 6.3521C4.77423 6.1747 4.89241 6.02103 5.06278 5.96991Z" fill="black"/>
</svg>
