<svg width="24" height="24" viewBox="0 0 24 24" fill="none" xmlns="http://www.w3.org/2000/svg">
<path fill-rule="evenodd" clip-rule="evenodd" d="M17.8529 5.01526C17.8529 3.90919 16.9552 3.01321 15.8491 3.0132C14.1851 3.01318 12.4953 3.0099 10.8123 3.00664L10.8097 3.00663C9.82974 3.00473 8.85214 3.00283 7.88327 3.00159C6.77867 3.00017 5.8833 3.89563 5.8833 5.00022V19.0001C5.8833 20.1047 6.77873 21.0001 7.8833 21.0001H15.8529C16.9575 21.0001 17.8529 20.1047 17.8529 19.0001V17.2231C17.5829 17.2656 17.3062 17.2877 17.0244 17.2877C14.1045 17.2877 11.7375 14.9207 11.7375 12.0009C11.7375 9.08103 14.1045 6.71405 17.0244 6.71405C17.3062 6.71405 17.5829 6.73611 17.8529 6.77859V5.01526ZM10.1872 4.35585C9.84203 4.35385 9.5606 4.63205 9.5586 4.97723C9.55661 5.3224 9.83481 5.60383 10.18 5.60582L13.5186 5.62511C13.8638 5.6271 14.1452 5.3489 14.1472 5.00373C14.1492 4.65855 13.871 4.37712 13.5258 4.37513L10.1872 4.35585ZM11.8467 19.6714C12.399 19.6714 12.8467 19.2236 12.8467 18.6714C12.8467 18.1191 12.399 17.6714 11.8467 17.6714C11.2944 17.6714 10.8467 18.1191 10.8467 18.6714C10.8467 19.2236 11.2944 19.6714 11.8467 19.6714Z" fill="black"/>
<path fill-rule="evenodd" clip-rule="evenodd" d="M17.0244 15.7877C19.1157 15.7877 20.8112 14.0922 20.8112 12.0009C20.8112 9.90946 19.1157 8.21405 17.0244 8.21405C14.933 8.21405 13.2375 9.90946 13.2375 12.0009C13.2375 14.0922 14.933 15.7877 17.0244 15.7877ZM15.5762 11.628C15.3321 11.3839 14.9364 11.3839 14.6923 11.628C14.4482 11.8721 14.4482 12.2678 14.6923 12.5119L16.0217 13.8413C16.2658 14.0854 16.6615 14.0854 16.9056 13.8413L19.1058 11.6411C19.3499 11.397 19.3499 11.0013 19.1058 10.7572C18.8617 10.5132 18.466 10.5132 18.2219 10.7572L16.4637 12.5155L15.5762 11.628Z" fill="black"/>
</svg>
