<svg width="24" height="24" viewBox="0 0 24 24" fill="none" xmlns="http://www.w3.org/2000/svg">
<path fill-rule="evenodd" clip-rule="evenodd" d="M18 5.01513C18 3.90907 17.1023 3.01309 15.9963 3.01308C14.3264 3.01307 12.6305 3.00979 10.9416 3.00652C9.95654 3.00461 8.97385 3.00271 7.99997 3.00147C6.89537 3.00005 6 3.89551 6 5.00011V19C6 20.1046 6.89543 21 8 21H16C17.1046 21 18 20.1046 18 19V15.6772C17.1166 16.4687 15.758 16.44 14.909 15.591C14.8553 15.5374 14.805 15.4817 14.7578 15.4242L14.591 15.591C13.7123 16.4697 12.2877 16.4697 11.409 15.591C11.0334 15.2154 10.8183 14.7399 10.7638 14.25H10C8.75736 14.25 7.75 13.2427 7.75 12C7.75 10.7574 8.75736 9.75004 10 9.75004H10.7638C10.8183 9.26014 11.0334 8.7847 11.409 8.40905C12.2877 7.53037 13.7123 7.53037 14.591 8.40905L14.7353 8.6039C14.7888 8.53646 14.8467 8.47138 14.909 8.40905C15.758 7.56009 17.1166 7.53137 18 8.3229V5.01513ZM9.375 5C9.375 4.65482 9.65482 4.375 10 4.375H14C14.3452 4.375 14.625 4.65482 14.625 5C14.625 5.34518 14.3452 5.625 14 5.625H10C9.65482 5.625 9.375 5.34518 9.375 5ZM12 19.5C12.5523 19.5 13 19.0523 13 18.5C13 17.9477 12.5523 17.5 12 17.5C11.4477 17.5 11 17.9477 11 18.5C11 19.0523 11.4477 19.5 12 19.5Z" fill="black"/>
<path fill-rule="evenodd" clip-rule="evenodd" d="M9.25 12C9.25 11.5858 9.58579 11.25 10 11.25H15C15.4142 11.25 15.75 11.5858 15.75 12C15.75 12.4142 15.4142 12.75 15 12.75H10C9.58579 12.75 9.25 12.4142 9.25 12Z" fill="black"/>
<path fill-rule="evenodd" clip-rule="evenodd" d="M12.4697 9.46967C12.7626 9.17678 13.2374 9.17678 13.5303 9.46967L15.5303 11.4697C15.671 11.6103 15.75 11.8011 15.75 12C15.75 12.1989 15.671 12.3897 15.5303 12.5303L13.5303 14.5303C13.2374 14.8232 12.7626 14.8232 12.4697 14.5303C12.1768 14.2374 12.1768 13.7626 12.4697 13.4697L13.9393 12L12.4697 10.5303C12.1768 10.2374 12.1768 9.76256 12.4697 9.46967Z" fill="black"/>
<path fill-rule="evenodd" clip-rule="evenodd" d="M15.9697 9.46967C16.2626 9.17678 16.7374 9.17678 17.0303 9.46967L19.0303 11.4697C19.171 11.6103 19.25 11.8011 19.25 12C19.25 12.1989 19.171 12.3897 19.0303 12.5303L17.0303 14.5303C16.7374 14.8232 16.2626 14.8232 15.9697 14.5303C15.6768 14.2374 15.6768 13.7626 15.9697 13.4697L17.4393 12L15.9697 10.5303C15.6768 10.2374 15.6768 9.76256 15.9697 9.46967Z" fill="black"/>
</svg>
