<svg width="24" height="24" viewBox="0 0 24 24" fill="none" xmlns="http://www.w3.org/2000/svg">
<path fill-rule="evenodd" clip-rule="evenodd" d="M15.8159 3.01308C16.922 3.01309 17.8197 3.90907 17.8197 5.01514V7.10227C17.4945 7.03904 17.1586 7.00592 16.8149 7.00592C13.9242 7.00592 11.5809 9.34928 11.5809 12.24C11.5809 15.1306 13.9242 17.474 16.8149 17.474C17.1586 17.474 17.4945 17.4409 17.8197 17.3776V19C17.8197 20.1045 16.9242 21 15.8197 21H7.8501C6.74553 21 5.8501 20.1045 5.8501 19V5.0001C5.8501 3.8955 6.74547 3.00005 7.85006 3.00147C8.81981 3.00271 9.79831 3.00461 10.7791 3.00651C12.4621 3.00978 14.1519 3.01306 15.8159 3.01308ZM9.5254 4.97713C9.52739 4.63196 9.80883 4.35376 10.154 4.35575L13.4926 4.37503C13.8378 4.37703 14.116 4.65846 14.114 5.00363C14.112 5.34881 13.8306 5.62701 13.4854 5.62501L10.1468 5.60573C9.80161 5.60374 9.52341 5.32231 9.5254 4.97713ZM12.8135 18.6713C12.8135 19.2235 12.3658 19.6713 11.8135 19.6713C11.2612 19.6713 10.8135 19.2235 10.8135 18.6713C10.8135 18.119 11.2612 17.6713 11.8135 17.6713C12.3658 17.6713 12.8135 18.119 12.8135 18.6713Z" fill="black"/>
<path fill-rule="evenodd" clip-rule="evenodd" d="M15.9367 8.95106C16.1537 8.0011 17.476 8.0011 17.693 8.95106C17.7798 9.331 18.2041 9.51376 18.5294 9.31063L18.6075 9.26184C19.4036 8.76478 20.3033 9.72107 19.7929 10.5202C19.5845 10.8466 19.7595 11.2864 20.1317 11.3696C21.0444 11.5734 21.0444 12.9065 20.1317 13.1103C19.7595 13.1935 19.5845 13.6333 19.7929 13.9597C20.3033 14.7588 19.4036 15.7151 18.6075 15.2181L18.5294 15.1693C18.2041 14.9661 17.7798 15.1489 17.693 15.5288C17.476 16.4788 16.1537 16.4788 15.9367 15.5288C15.8499 15.1489 15.4256 14.9661 15.1003 15.1693L15.0222 15.2181C14.2261 15.7151 13.3264 14.7588 13.8367 13.9597C14.0452 13.6333 13.8702 13.1935 13.498 13.1103C12.5853 12.9065 12.5853 11.5734 13.498 11.3696C13.8702 11.2864 14.0452 10.8466 13.8367 10.5202C13.3264 9.72107 14.2261 8.76478 15.0222 9.26184L15.1003 9.31063C15.4256 9.51376 15.8499 9.331 15.9367 8.95106ZM16.8151 13.7308C17.6385 13.7308 18.306 13.0633 18.306 12.2399C18.306 11.4165 17.6385 10.7491 16.8151 10.7491C15.9917 10.7491 15.3242 11.4165 15.3242 12.2399C15.3242 13.0633 15.9917 13.7308 16.8151 13.7308Z" fill="black"/>
</svg>
