<svg width="24" height="24" viewBox="0 0 24 24" fill="none" xmlns="http://www.w3.org/2000/svg">
<path d="M13.6276 16.9701C12.0626 16.9701 10.7926 15.7001 10.7926 14.1351V9.86012C10.7926 8.29512 12.0626 7.02512 13.6276 7.02512C14.8426 7.02512 16.0776 7.02512 17.3026 7.02512C17.4776 7.02512 17.6476 7.02512 17.8226 7.02512V5.01012C17.8226 3.90512 16.9226 3.01012 15.8176 3.01012C14.1526 3.01012 12.4626 3.01012 10.7826 3.00512C9.8026 3.00512 8.8226 3.00512 7.8526 3.00012C6.7476 3.00012 5.8526 3.89512 5.8526 5.00012V19.0001C5.8526 20.1051 6.7476 21.0001 7.8526 21.0001H15.8226C16.9276 21.0001 17.8226 20.1051 17.8226 19.0001V18.1951L16.0976 16.9801H13.6226L13.6276 16.9701ZM9.5326 4.96512C9.5326 4.62012 9.8176 4.34012 10.1626 4.34512L13.5026 4.36512C13.8476 4.36512 14.1276 4.65012 14.1226 4.99512C14.1226 5.34012 13.8376 5.62012 13.4926 5.61512L10.1526 5.59512C9.8076 5.59512 9.5276 5.31012 9.5326 4.96512ZM11.8226 19.6601C11.2726 19.6601 10.8226 19.2101 10.8226 18.6601C10.8226 18.1101 11.2726 17.6601 11.8226 17.6601C12.3726 17.6601 12.8226 18.1101 12.8226 18.6601C12.8226 19.2101 12.3726 19.6601 11.8226 19.6601Z" fill="black"/>
<path d="M19.4876 8.51512C17.5526 8.51512 15.5676 8.51512 13.6326 8.51512C12.8926 8.51512 12.2976 9.11512 12.2976 9.85012V14.1251C12.2976 14.8651 12.8926 15.4601 13.6326 15.4601H16.5826L18.7276 16.9701C18.9926 17.1551 19.3576 16.9701 19.3576 16.6451V15.4601H19.4876C20.2226 15.4601 20.8226 14.8601 20.8226 14.1251V9.84012C20.8226 9.10012 20.2226 8.50512 19.4876 8.50512V8.51512ZM17.0476 13.8751V14.2451C17.0476 14.4951 16.8476 14.6951 16.5976 14.6951C16.3476 14.6951 16.1476 14.4951 16.1476 14.2451V13.8701C15.5176 13.8001 15.1476 13.6051 15.1026 13.5801C14.8876 13.4601 14.8076 13.1851 14.9276 12.9701C15.0476 12.7551 15.3176 12.6751 15.5376 12.7951C15.5526 12.8001 15.9376 13.0001 16.5976 13.0001C17.3776 13.0001 17.4126 12.8901 17.4126 12.6401C17.4126 12.4951 17.3726 12.4151 16.5526 12.4051C15.9226 12.3951 14.8726 12.3801 14.8726 11.3301C14.8726 10.9901 15.0076 10.2451 16.1476 10.0951V9.75012C16.1476 9.50012 16.3476 9.30012 16.5976 9.30012C16.8476 9.30012 17.0476 9.50012 17.0476 9.75012V10.1101C17.4326 10.1801 17.6726 10.3101 17.7076 10.3301C17.9226 10.4551 17.9976 10.7301 17.8676 10.9451C17.7426 11.1601 17.4726 11.2301 17.2576 11.1101C17.2476 11.1051 16.9926 10.9701 16.5976 10.9701C15.7726 10.9701 15.7726 11.2451 15.7726 11.3351C15.7726 11.3801 15.7776 11.4051 15.7826 11.4101C15.8576 11.5001 16.3376 11.5051 16.5676 11.5101C17.1776 11.5201 18.3126 11.5401 18.3126 12.6451C18.3126 13.6101 17.6076 13.8351 17.0476 13.8851V13.8751Z" fill="black"/>
</svg>
