<svg width="24" height="24" viewBox="0 0 24 24" fill="none" xmlns="http://www.w3.org/2000/svg">
<path fill-rule="evenodd" clip-rule="evenodd" d="M17.8314 5.01526C17.8314 3.90919 16.9337 3.01321 15.8277 3.0132C14.1636 3.01318 12.4738 3.0099 10.7908 3.00664C9.81004 3.00473 8.83153 3.00283 7.86178 3.00159C6.75719 3.00017 5.86182 3.89563 5.86182 5.00022V19.0001C5.86182 20.1047 6.75725 21.0001 7.86182 21.0001H15.8314C16.936 21.0001 17.8314 20.1047 17.8314 19.0001V5.01526ZM10.1962 4.3559C9.85106 4.35391 9.56963 4.63211 9.56764 4.97728C9.56564 5.32246 9.84385 5.60389 10.189 5.60588L13.5276 5.62517C13.8728 5.62716 14.1542 5.34896 14.1562 5.00379C14.1582 4.65861 13.88 4.37718 13.5348 4.37519L10.1962 4.3559ZM12.8557 18.6714C12.8557 19.2237 12.408 19.6714 11.8557 19.6714C11.3034 19.6714 10.8557 19.2237 10.8557 18.6714C10.8557 18.1192 11.3034 17.6714 11.8557 17.6714C12.408 17.6714 12.8557 18.1192 12.8557 18.6714ZM13.2401 10.9506C12.8729 11.3178 12.375 11.5241 11.8557 11.5241C11.3365 11.5241 10.8385 11.3178 10.4713 10.9506C10.1042 10.5835 9.89788 10.0855 9.89788 9.56623C9.89788 9.04698 10.1042 8.549 10.4713 8.18184C10.8385 7.81467 11.3365 7.6084 11.8557 7.6084C12.375 7.6084 12.8729 7.81467 13.2401 8.18184C13.6073 8.549 13.8135 9.04698 13.8135 9.56623C13.8135 10.0855 13.6073 10.5835 13.2401 10.9506ZM9.04595 12.656C8.82 12.8819 8.69306 13.1884 8.69306 13.5079C8.69306 13.5079 8.69306 15.9176 11.8557 15.9176C15.0184 15.9176 15.0184 13.5079 15.0184 13.5079C15.0184 13.1884 14.8914 12.8819 14.6655 12.656C14.4395 12.43 14.1331 12.3031 13.8135 12.3031H9.89788C9.57834 12.3031 9.27189 12.43 9.04595 12.656Z" fill="black"/>
</svg>
