<svg width="24" height="24" viewBox="0 0 24 24" fill="none" xmlns="http://www.w3.org/2000/svg">
<path fill-rule="evenodd" clip-rule="evenodd" d="M15.8184 3.01357C16.9244 3.01358 17.8221 3.90955 17.8221 5.01562V7.87455C17.2128 7.59383 16.5346 7.43726 15.8197 7.43726C13.174 7.43726 11.0292 9.58206 11.0292 12.2278C11.0292 14.8735 13.174 17.0183 15.8197 17.0183C16.5145 17.0183 17.1761 16.8695 17.7729 16.6028L17.8221 16.637V19.0005C17.8221 20.105 16.9267 21.0005 15.8221 21.0005H7.85254C6.74797 21.0005 5.85254 20.105 5.85254 19.0005V5.00059C5.85254 3.89599 6.74791 3.00054 7.85251 3.00195C8.82225 3.0032 9.80076 3.0051 10.7816 3.007C12.4645 3.01027 14.1543 3.01354 15.8184 3.01357ZM9.55836 4.97765C9.56035 4.63248 9.84179 4.35428 10.187 4.35627L13.5256 4.37555C13.8707 4.37755 14.1489 4.65898 14.1469 5.00415C14.145 5.34932 13.8635 5.62752 13.5184 5.62553L10.1797 5.60625C9.83457 5.60426 9.55637 5.32282 9.55836 4.97765ZM11.8464 19.6718C12.3987 19.6718 12.8464 19.2241 12.8464 18.6718C12.8464 18.1195 12.3987 17.6718 11.8464 17.6718C11.2942 17.6718 10.8464 18.1195 10.8464 18.6718C10.8464 19.2241 11.2942 19.6718 11.8464 19.6718Z" fill="black"/>
<path fill-rule="evenodd" clip-rule="evenodd" d="M15.8197 8.93726C14.0024 8.93726 12.5292 10.4105 12.5292 12.2278C12.5292 14.0451 14.0024 15.5183 15.8197 15.5183C16.5818 15.5183 17.2836 15.2588 17.841 14.8245L19.5765 16.0284C19.909 16.2755 20.3788 16.2062 20.6259 15.8738C20.8729 15.5413 20.8037 15.0715 20.4712 14.8245L18.7844 13.6567C18.9931 13.2244 19.1103 12.7394 19.1103 12.2278C19.1103 10.4105 17.637 8.93726 15.8197 8.93726ZM14.0292 12.2278C14.0292 11.2389 14.8308 10.4373 15.8197 10.4373C16.8086 10.4373 17.6103 11.2389 17.6103 12.2278C17.6103 12.6613 17.4572 13.0571 17.2013 13.3669C16.8717 13.766 16.3755 14.0183 15.8197 14.0183C14.8308 14.0183 14.0292 13.2167 14.0292 12.2278Z" fill="black"/>
</svg>
