<svg width="24" height="24" viewBox="0 0 24 24" fill="none" xmlns="http://www.w3.org/2000/svg">
<path d="M13.6275 16.9701C12.0625 16.9701 10.7925 15.7001 10.7925 14.1351V9.86012C10.7925 8.29512 12.0625 7.02512 13.6275 7.02512C14.8425 7.02512 16.0775 7.02512 17.3025 7.02512C17.4775 7.02512 17.6475 7.02512 17.8225 7.02512V5.01012C17.8225 3.90512 16.9225 3.01012 15.8175 3.01012C14.1525 3.01012 12.4625 3.01012 10.7825 3.00512C9.80254 3.00512 8.82254 3.00512 7.85254 3.00012C6.74754 3.00012 5.85254 3.89512 5.85254 5.00012V19.0001C5.85254 20.1051 6.74754 21.0001 7.85254 21.0001H15.8225C16.9275 21.0001 17.8225 20.1051 17.8225 19.0001V18.1951L16.0975 16.9801H13.6225L13.6275 16.9701ZM9.53254 4.96512C9.53254 4.62012 9.81754 4.34012 10.1625 4.34512L13.5025 4.36512C13.8475 4.36512 14.1275 4.65012 14.1225 4.99512C14.1225 5.34012 13.8375 5.62012 13.4925 5.61512L10.1525 5.59512C9.80754 5.59512 9.52754 5.31012 9.53254 4.96512ZM11.8225 19.6601C11.2725 19.6601 10.8225 19.2101 10.8225 18.6601C10.8225 18.1101 11.2725 17.6601 11.8225 17.6601C12.3725 17.6601 12.8225 18.1101 12.8225 18.6601C12.8225 19.2101 12.3725 19.6601 11.8225 19.6601Z" fill="black"/>
<path d="M19.4875 8.51512C17.5525 8.51512 15.5675 8.51512 13.6325 8.51512C12.8925 8.51512 12.2975 9.11512 12.2975 9.85012V14.1251C12.2975 14.8651 12.8925 15.4601 13.6325 15.4601H16.5825L18.7275 16.9701C18.9925 17.1551 19.3575 16.9701 19.3575 16.6451V15.4601H19.4875C20.2225 15.4601 20.8225 14.8601 20.8225 14.1251V9.84012C20.8225 9.10012 20.2225 8.50512 19.4875 8.50512V8.51512ZM17.0475 13.8751V14.2451C17.0475 14.4951 16.8475 14.6951 16.5975 14.6951C16.3475 14.6951 16.1475 14.4951 16.1475 14.2451V13.8701C15.5175 13.8001 15.1475 13.6051 15.1025 13.5801C14.8875 13.4601 14.8075 13.1851 14.9275 12.9701C15.0475 12.7551 15.3175 12.6751 15.5375 12.7951C15.5525 12.8001 15.9375 13.0001 16.5975 13.0001C17.3775 13.0001 17.4125 12.8901 17.4125 12.6401C17.4125 12.4951 17.3725 12.4151 16.5525 12.4051C15.9225 12.3951 14.8725 12.3801 14.8725 11.3301C14.8725 10.9901 15.0075 10.2451 16.1475 10.0951V9.75012C16.1475 9.50012 16.3475 9.30012 16.5975 9.30012C16.8475 9.30012 17.0475 9.50012 17.0475 9.75012V10.1101C17.4325 10.1801 17.6725 10.3101 17.7075 10.3301C17.9225 10.4551 17.9975 10.7301 17.8675 10.9451C17.7425 11.1601 17.4725 11.2301 17.2575 11.1101C17.2475 11.1051 16.9925 10.9701 16.5975 10.9701C15.7725 10.9701 15.7725 11.2451 15.7725 11.3351C15.7725 11.3801 15.7775 11.4051 15.7825 11.4101C15.8575 11.5001 16.3375 11.5051 16.5675 11.5101C17.1775 11.5201 18.3125 11.5401 18.3125 12.6451C18.3125 13.6101 17.6075 13.8351 17.0475 13.8851V13.8751Z" fill="black"/>
</svg>
