<svg width="24" height="24" viewBox="0 0 24 24" fill="none" xmlns="http://www.w3.org/2000/svg">
<path fill-rule="evenodd" clip-rule="evenodd" d="M17.8526 5.01526C17.8526 3.90919 16.955 3.01321 15.8489 3.0132C14.1849 3.01318 12.4951 3.0099 10.8121 3.00664L10.8094 3.00663C9.8295 3.00473 8.85189 3.00283 7.88302 3.00159C6.77843 3.00017 5.88306 3.89563 5.88306 5.00022V19.0001C5.88306 20.1047 6.77849 21.0001 7.88306 21.0001H15.8526C16.9572 21.0001 17.8526 20.1047 17.8526 19.0001V17.2231C17.5827 17.2656 17.306 17.2877 17.0241 17.2877C14.1043 17.2877 11.7373 14.9207 11.7373 12.0009C11.7373 9.08103 14.1043 6.71405 17.0241 6.71405C17.306 6.71405 17.5827 6.73611 17.8526 6.77859V5.01526ZM10.187 4.35585C9.84179 4.35385 9.56035 4.63205 9.55836 4.97723C9.55637 5.3224 9.83457 5.60383 10.1797 5.60582L13.5184 5.62511C13.8635 5.6271 14.145 5.3489 14.1469 5.00373C14.1489 4.65855 13.8707 4.37712 13.5256 4.37513L10.187 4.35585ZM11.8464 19.6714C12.3987 19.6714 12.8464 19.2236 12.8464 18.6714C12.8464 18.1191 12.3987 17.6714 11.8464 17.6714C11.2942 17.6714 10.8464 18.1191 10.8464 18.6714C10.8464 19.2236 11.2942 19.6714 11.8464 19.6714Z" fill="black"/>
<path fill-rule="evenodd" clip-rule="evenodd" d="M17.0241 15.7877C19.1155 15.7877 20.8109 14.0922 20.8109 12.0009C20.8109 9.90946 19.1155 8.21405 17.0241 8.21405C14.9327 8.21405 13.2373 9.90946 13.2373 12.0009C13.2373 14.0922 14.9327 15.7877 17.0241 15.7877ZM15.5759 11.628C15.3319 11.3839 14.9361 11.3839 14.6921 11.628C14.448 11.8721 14.448 12.2678 14.6921 12.5119L16.0215 13.8413C16.2656 14.0854 16.6613 14.0854 16.9054 13.8413L19.1055 11.6411C19.3496 11.397 19.3496 11.0013 19.1055 10.7572C18.8615 10.5132 18.4657 10.5132 18.2216 10.7572L16.4634 12.5155L15.5759 11.628Z" fill="black"/>
</svg>
