<svg width="24" height="24" viewBox="0 0 24 24" fill="none" xmlns="http://www.w3.org/2000/svg">
<path fill-rule="evenodd" clip-rule="evenodd" d="M15.8159 3.01357C16.922 3.01358 17.8197 3.90955 17.8197 5.01562V7.10276C17.4945 7.03953 17.1586 7.00641 16.8149 7.00641C13.9242 7.00641 11.5809 9.34977 11.5809 12.2404C11.5809 15.1311 13.9242 17.4745 16.8149 17.4745C17.1586 17.4745 17.4945 17.4414 17.8197 17.3781V19.0005C17.8197 20.105 16.9242 21.0005 15.8197 21.0005H7.8501C6.74553 21.0005 5.8501 20.105 5.8501 19.0005V5.00059C5.8501 3.89599 6.74547 3.00054 7.85006 3.00195C8.81981 3.0032 9.79831 3.0051 10.7791 3.007C12.4621 3.01027 14.1519 3.01354 15.8159 3.01357ZM9.5254 4.97762C9.52739 4.63245 9.80883 4.35425 10.154 4.35624L13.4926 4.37552C13.8378 4.37752 14.116 4.65895 14.114 5.00412C14.112 5.34929 13.8306 5.6275 13.4854 5.6255L10.1468 5.60622C9.80161 5.60423 9.52341 5.32279 9.5254 4.97762ZM12.8135 18.6718C12.8135 19.224 12.3658 19.6718 11.8135 19.6718C11.2612 19.6718 10.8135 19.224 10.8135 18.6718C10.8135 18.1195 11.2612 17.6718 11.8135 17.6718C12.3658 17.6718 12.8135 18.1195 12.8135 18.6718Z" fill="black"/>
<path fill-rule="evenodd" clip-rule="evenodd" d="M15.9367 8.95155C16.1537 8.00158 17.476 8.00158 17.693 8.95155C17.7798 9.33149 18.2041 9.51425 18.5294 9.31112L18.6075 9.26233C19.4036 8.76527 20.3033 9.72156 19.7929 10.5207C19.5845 10.8471 19.7595 11.2869 20.1317 11.3701C21.0444 11.5739 21.0444 12.907 20.1317 13.1108C19.7595 13.194 19.5845 13.6337 19.7929 13.9602C20.3033 14.7593 19.4036 15.7156 18.6075 15.2185L18.5294 15.1698C18.2041 14.9666 17.7798 15.1494 17.693 15.5293C17.476 16.4793 16.1537 16.4793 15.9367 15.5293C15.8499 15.1494 15.4256 14.9666 15.1003 15.1698L15.0222 15.2185C14.2261 15.7156 13.3264 14.7593 13.8367 13.9602C14.0452 13.6337 13.8702 13.194 13.498 13.1108C12.5853 12.907 12.5853 11.5739 13.498 11.3701C13.8702 11.2869 14.0452 10.8471 13.8367 10.5207C13.3264 9.72156 14.2261 8.76527 15.0222 9.26233L15.1003 9.31112C15.4256 9.51425 15.8499 9.33149 15.9367 8.95155ZM16.8151 13.7312C17.6385 13.7312 18.306 13.0638 18.306 12.2404C18.306 11.417 17.6385 10.7495 16.8151 10.7495C15.9917 10.7495 15.3242 11.417 15.3242 12.2404C15.3242 13.0638 15.9917 13.7312 16.8151 13.7312Z" fill="black"/>
</svg>
