<svg width="24" height="24" viewBox="0 0 24 24" fill="none" xmlns="http://www.w3.org/2000/svg">
<path fill-rule="evenodd" clip-rule="evenodd" d="M15.8184 3.0132C16.9244 3.01321 17.8221 3.90919 17.8221 5.01526V7.87418C17.2128 7.59346 16.5346 7.43689 15.8197 7.43689C13.174 7.43689 11.0292 9.58169 11.0292 12.2274C11.0292 14.8732 13.174 17.018 15.8197 17.018C16.5145 17.018 17.1761 16.8692 17.7729 16.6024L17.8221 16.6366V19.0001C17.8221 20.1047 16.9267 21.0001 15.8221 21.0001H7.85254C6.74797 21.0001 5.85254 20.1047 5.85254 19.0001V5.00022C5.85254 3.89563 6.74791 3.00017 7.85251 3.00159C8.82225 3.00283 9.80076 3.00473 10.7816 3.00664C12.4645 3.0099 14.1543 3.01318 15.8184 3.0132ZM9.55836 4.97728C9.56035 4.63211 9.84179 4.35391 10.187 4.3559L13.5256 4.37519C13.8707 4.37718 14.1489 4.65861 14.1469 5.00379C14.145 5.34896 13.8635 5.62716 13.5184 5.62517L10.1797 5.60588C9.83457 5.60389 9.55637 5.32246 9.55836 4.97728ZM11.8464 19.6714C12.3987 19.6714 12.8464 19.2237 12.8464 18.6714C12.8464 18.1192 12.3987 17.6714 11.8464 17.6714C11.2942 17.6714 10.8464 18.1192 10.8464 18.6714C10.8464 19.2237 11.2942 19.6714 11.8464 19.6714Z" fill="black"/>
<path fill-rule="evenodd" clip-rule="evenodd" d="M15.8197 8.93689C14.0024 8.93689 12.5292 10.4101 12.5292 12.2274C12.5292 14.0448 14.0024 15.518 15.8197 15.518C16.5818 15.518 17.2836 15.2584 17.841 14.8241L19.5765 16.0281C19.909 16.2751 20.3788 16.2059 20.6259 15.8734C20.8729 15.5409 20.8037 15.0711 20.4712 14.8241L18.7844 13.6564C18.9931 13.224 19.1103 12.739 19.1103 12.2274C19.1103 10.4101 17.637 8.93689 15.8197 8.93689ZM14.0292 12.2274C14.0292 11.2385 14.8308 10.4369 15.8197 10.4369C16.8086 10.4369 17.6103 11.2385 17.6103 12.2274C17.6103 12.6609 17.4572 13.0567 17.2013 13.3665C16.8717 13.7657 16.3755 14.018 15.8197 14.018C14.8308 14.018 14.0292 13.2163 14.0292 12.2274Z" fill="black"/>
</svg>
