<svg width="24" height="24" viewBox="0 0 24 24" fill="none" xmlns="http://www.w3.org/2000/svg">
<path d="M16.3075 16.575C15.8525 16.305 15.4825 15.915 15.2275 15.445C14.4875 15.38 13.8425 14.945 13.5275 14.275C13.3575 13.92 13.2925 13.53 13.3425 13.14C13.3925 12.75 13.5475 12.385 13.7925 12.095L13.8775 11.995C13.9475 11.91 14.0175 11.84 14.0775 11.78C14.0775 11.695 14.0875 11.575 14.0875 11.405C14.0875 9.96 14.6825 8.83 15.7775 8.17C16.2275 7.46 16.9925 7.015 17.8375 7.015V5.025C17.8225 3.91 16.9225 3.01 15.8175 3.01C13.1825 3.01 10.4875 3 7.85254 3C6.74754 3 5.85254 3.895 5.85254 5V19C5.85254 20.105 6.74754 21 7.85254 21H15.8225C16.9275 21 17.8225 20.105 17.8225 19V16.995C17.2875 16.995 16.7675 16.85 16.3075 16.575ZM9.52754 4.975C9.52754 4.63 9.81254 4.35 10.1575 4.355L13.4975 4.375C13.8425 4.375 14.1225 4.66 14.1175 5.005C14.1175 5.35 13.8325 5.63 13.4875 5.625L10.1475 5.605C9.80254 5.605 9.52254 5.32 9.52754 4.975ZM11.8175 19.67C11.2675 19.67 10.8175 19.22 10.8175 18.67C10.8175 18.12 11.2675 17.67 11.8175 17.67C12.3675 17.67 12.8175 18.12 12.8175 18.67C12.8175 19.22 12.3675 19.67 11.8175 19.67Z" fill="black"/>
<path d="M20.6975 13.04L20.6575 12.99L20.6225 12.945C20.5475 12.85 20.4775 12.79 20.4125 12.735C20.1975 12.54 20.0725 12.43 20.0725 11.4C20.0725 10.79 19.9275 10.29 19.6375 9.915C19.4275 9.64 19.1375 9.43 18.7625 9.275C18.7625 9.275 18.7525 9.27 18.7475 9.265C18.6125 8.81 18.2425 8.505 17.8225 8.505C17.4025 8.505 17.0325 8.81 16.8975 9.265C16.8975 9.265 16.8875 9.27 16.8825 9.275C16.0025 9.635 15.5725 10.335 15.5725 11.4C15.5725 12.435 15.4475 12.545 15.2325 12.74C15.1725 12.795 15.1025 12.855 15.0225 12.95L15.0125 12.96C14.9925 12.985 14.9675 13.015 14.9475 13.04C14.8825 13.12 14.8375 13.22 14.8275 13.325C14.8125 13.43 14.8275 13.535 14.8775 13.63C14.9725 13.835 15.1775 13.96 15.4125 13.96H20.2325C20.4675 13.96 20.6675 13.835 20.7675 13.63C20.8125 13.535 20.8325 13.43 20.8175 13.325C20.8025 13.22 20.7625 13.12 20.6975 13.04Z" fill="black"/>
<path d="M19.0725 14.63C19.0725 14.63 19.0475 14.62 19.0375 14.62H16.6025C16.6025 14.62 16.5775 14.62 16.5675 14.63C16.5575 14.635 16.5475 14.645 16.5425 14.655C16.5375 14.665 16.5325 14.68 16.5325 14.69C16.5325 14.705 16.5325 14.715 16.5425 14.725C16.6675 14.955 16.8525 15.15 17.0775 15.285C17.3025 15.42 17.5625 15.49 17.8225 15.49C18.0875 15.49 18.3425 15.42 18.5675 15.285C18.7925 15.15 18.9775 14.955 19.1025 14.725C19.1075 14.715 19.1125 14.7 19.1125 14.69C19.1125 14.675 19.1125 14.665 19.1025 14.655C19.0975 14.645 19.0875 14.635 19.0775 14.63H19.0725Z" fill="black"/>
</svg>
