<svg width="24" height="24" viewBox="0 0 24 24" fill="none" xmlns="http://www.w3.org/2000/svg">
<path d="M16.3075 16.5751C15.8525 16.3051 15.4825 15.9151 15.2275 15.4451C14.4875 15.3801 13.8425 14.9451 13.5275 14.2751C13.3575 13.9201 13.2925 13.5301 13.3425 13.1401C13.3925 12.7501 13.5475 12.3851 13.7925 12.0951L13.8775 11.9951C13.9475 11.9101 14.0175 11.8401 14.0775 11.7801C14.0775 11.6951 14.0875 11.5751 14.0875 11.4051C14.0875 9.96012 14.6825 8.83012 15.7775 8.17012C16.2275 7.46012 16.9925 7.01512 17.8375 7.01512V5.02512C17.8225 3.91012 16.9225 3.01012 15.8175 3.01012C13.1825 3.01012 10.4875 3.00012 7.85254 3.00012C6.74754 3.00012 5.85254 3.89512 5.85254 5.00012V19.0001C5.85254 20.1051 6.74754 21.0001 7.85254 21.0001H15.8225C16.9275 21.0001 17.8225 20.1051 17.8225 19.0001V16.9951C17.2875 16.9951 16.7675 16.8501 16.3075 16.5751ZM9.52754 4.97512C9.52754 4.63012 9.81254 4.35012 10.1575 4.35512L13.4975 4.37512C13.8425 4.37512 14.1225 4.66012 14.1175 5.00512C14.1175 5.35012 13.8325 5.63012 13.4875 5.62512L10.1475 5.60512C9.80254 5.60512 9.52254 5.32012 9.52754 4.97512ZM11.8175 19.6701C11.2675 19.6701 10.8175 19.2201 10.8175 18.6701C10.8175 18.1201 11.2675 17.6701 11.8175 17.6701C12.3675 17.6701 12.8175 18.1201 12.8175 18.6701C12.8175 19.2201 12.3675 19.6701 11.8175 19.6701Z" fill="black"/>
<path d="M20.6975 13.0401L20.6575 12.9901L20.6225 12.9451C20.5475 12.8501 20.4775 12.7901 20.4125 12.7351C20.1975 12.5401 20.0725 12.4301 20.0725 11.4001C20.0725 10.7901 19.9275 10.2901 19.6375 9.91512C19.4275 9.64012 19.1375 9.43012 18.7625 9.27512C18.7625 9.27512 18.7525 9.27012 18.7475 9.26512C18.6125 8.81012 18.2425 8.50512 17.8225 8.50512C17.4025 8.50512 17.0325 8.81012 16.8975 9.26512C16.8975 9.26512 16.8875 9.27012 16.8825 9.27512C16.0025 9.63512 15.5725 10.3351 15.5725 11.4001C15.5725 12.4351 15.4475 12.5451 15.2325 12.7401C15.1725 12.7951 15.1025 12.8551 15.0225 12.9501L15.0125 12.9601C14.9925 12.9851 14.9675 13.0151 14.9475 13.0401C14.8825 13.1201 14.8375 13.2201 14.8275 13.3251C14.8125 13.4301 14.8275 13.5351 14.8775 13.6301C14.9725 13.8351 15.1775 13.9601 15.4125 13.9601H20.2325C20.4675 13.9601 20.6675 13.8351 20.7675 13.6301C20.8125 13.5351 20.8325 13.4301 20.8175 13.3251C20.8025 13.2201 20.7625 13.1201 20.6975 13.0401Z" fill="black"/>
<path d="M19.0725 14.6301C19.0725 14.6301 19.0475 14.6201 19.0375 14.6201H16.6025C16.6025 14.6201 16.5775 14.6201 16.5675 14.6301C16.5575 14.6351 16.5475 14.6451 16.5425 14.6551C16.5375 14.6651 16.5325 14.6801 16.5325 14.6901C16.5325 14.7051 16.5325 14.7151 16.5425 14.7251C16.6675 14.9551 16.8525 15.1501 17.0775 15.2851C17.3025 15.4201 17.5625 15.4901 17.8225 15.4901C18.0875 15.4901 18.3425 15.4201 18.5675 15.2851C18.7925 15.1501 18.9775 14.9551 19.1025 14.7251C19.1075 14.7151 19.1125 14.7001 19.1125 14.6901C19.1125 14.6751 19.1125 14.6651 19.1025 14.6551C19.0975 14.6451 19.0875 14.6351 19.0775 14.6301H19.0725Z" fill="black"/>
</svg>
