<svg width="24" height="24" viewBox="0 0 24 24" fill="none" xmlns="http://www.w3.org/2000/svg">
<path fill-rule="evenodd" clip-rule="evenodd" d="M17.8578 5.01379C17.8578 3.90772 16.9601 3.01175 15.854 3.01173C14.19 3.01171 12.5002 3.00844 10.8172 3.00517C9.8364 3.00327 8.8579 3.00137 7.88815 3.00012C6.78355 2.9987 5.88818 3.89416 5.88818 4.99876V18.9986C5.88818 20.1032 6.78361 20.9986 7.88818 20.9986H15.8578C16.9623 20.9986 17.8578 20.1032 17.8578 18.9986V18.1918L16.135 16.9782H13.6584C12.0915 16.9782 10.8236 15.7078 10.8236 14.1428V9.86565C10.8236 8.29826 12.0948 7.02949 13.6604 7.02957C14.8748 7.02963 16.1083 7.02833 17.3374 7.02704L17.8578 7.02649V5.01379ZM10.1921 4.35438C9.84691 4.35239 9.56548 4.63059 9.56349 4.97576C9.56149 5.32093 9.83969 5.60237 10.1849 5.60436L13.5235 5.62364C13.8686 5.62563 14.1501 5.34743 14.1521 5.00226C14.1541 4.65709 13.8759 4.37566 13.5307 4.37366L10.1921 4.35438ZM11.8516 19.6699C12.4038 19.6699 12.8516 19.2222 12.8516 18.6699C12.8516 18.1176 12.4038 17.6699 11.8516 17.6699C11.2993 17.6699 10.8516 18.1176 10.8516 18.6699C10.8516 19.2222 11.2993 19.6699 11.8516 19.6699Z" fill="black"/>
<path d="M17.2162 11.9074H16.0353V11.2934C16.0353 10.9141 16.2437 10.5888 16.623 10.5888C17.0024 10.5888 17.2162 10.9141 17.2162 11.2934V11.9074Z" fill="black"/>
<path fill-rule="evenodd" clip-rule="evenodd" d="M12.3236 9.86566C12.3236 9.1276 12.9223 8.52954 13.6603 8.52957C14.8752 8.52963 16.1099 8.52833 17.3396 8.52704L17.3441 8.52704C18.072 8.52627 18.7981 8.52551 19.5172 8.52503C20.2547 8.52454 20.8525 9.12242 20.8525 9.85994V14.1428C20.8525 14.8803 20.2545 15.4782 19.517 15.4782H19.3865V16.6617C19.3865 16.9863 19.0206 17.1761 18.7552 16.9892L16.6103 15.4782H13.6584C12.9208 15.4782 12.3236 14.8803 12.3236 14.1428V9.86566ZM15.1707 11.9074H14.9414C14.6882 11.9074 14.4828 12.1128 14.4828 12.366V13.7715C14.4828 14.0247 14.6882 14.2302 14.9414 14.2302H18.3047C18.5579 14.2302 18.7633 14.0247 18.7633 13.7715V12.366C18.7633 12.1128 18.5579 11.9074 18.3047 11.9074H18.0754V11.2195C18.0754 10.4188 17.4237 9.76715 16.623 9.76715C15.8224 9.76715 15.1707 10.4188 15.1707 11.2195V11.9074Z" fill="black"/>
</svg>
