<svg width="24" height="24" viewBox="0 0 24 24" fill="none" xmlns="http://www.w3.org/2000/svg">
<path fill-rule="evenodd" clip-rule="evenodd" d="M17.8314 5.01562C17.8314 3.90955 16.9337 3.01358 15.8277 3.01357C14.1636 3.01354 12.4738 3.01027 10.7908 3.007C9.81004 3.0051 8.83153 3.0032 7.86178 3.00195C6.75719 3.00054 5.86182 3.89599 5.86182 5.00059V19.0005C5.86182 20.105 6.75725 21.0005 7.86182 21.0005H15.8314C16.936 21.0005 17.8314 20.105 17.8314 19.0005V5.01562ZM10.1962 4.35627C9.85106 4.35428 9.56963 4.63248 9.56764 4.97765C9.56564 5.32282 9.84385 5.60426 10.189 5.60625L13.5276 5.62553C13.8728 5.62752 14.1542 5.34932 14.1562 5.00415C14.1582 4.65898 13.88 4.37755 13.5348 4.37555L10.1962 4.35627ZM12.8557 18.6718C12.8557 19.2241 12.408 19.6718 11.8557 19.6718C11.3034 19.6718 10.8557 19.2241 10.8557 18.6718C10.8557 18.1195 11.3034 17.6718 11.8557 17.6718C12.408 17.6718 12.8557 18.1195 12.8557 18.6718ZM13.2401 10.951C12.8729 11.3182 12.375 11.5244 11.8557 11.5244C11.3365 11.5244 10.8385 11.3182 10.4713 10.951C10.1042 10.5838 9.89788 10.0858 9.89788 9.5666C9.89788 9.04735 10.1042 8.54937 10.4713 8.1822C10.8385 7.81504 11.3365 7.60877 11.8557 7.60877C12.375 7.60877 12.8729 7.81504 13.2401 8.1822C13.6073 8.54937 13.8135 9.04735 13.8135 9.5666C13.8135 10.0858 13.6073 10.5838 13.2401 10.951ZM9.04595 12.6564C8.82 12.8823 8.69306 13.1888 8.69306 13.5083C8.69306 13.5083 8.69306 15.9179 11.8557 15.9179C15.0184 15.9179 15.0184 13.5083 15.0184 13.5083C15.0184 13.1888 14.8914 12.8823 14.6655 12.6564C14.4395 12.4304 14.1331 12.3035 13.8135 12.3035H9.89788C9.57834 12.3035 9.27189 12.4304 9.04595 12.6564Z" fill="black"/>
</svg>
