<svg width="24" height="24" viewBox="0 0 24 24" fill="none" xmlns="http://www.w3.org/2000/svg">
<path fill-rule="evenodd" clip-rule="evenodd" d="M18 5.01562C18 3.90956 17.1023 3.01358 15.9963 3.01357C14.3264 3.01356 12.6305 3.01028 10.9416 3.00701C9.95654 3.0051 8.97385 3.0032 7.99997 3.00195C6.89537 3.00054 6 3.896 6 5.0006V19.0005C6 20.1051 6.89543 21.0005 8 21.0005H16C17.1046 21.0005 18 20.1051 18 19.0005V17.4098C17.6757 17.4694 17.3415 17.5005 17 17.5005C13.9624 17.5005 11.5 15.0381 11.5 12.0005C11.5 8.96292 13.9624 6.50049 17 6.50049C17.3415 6.50049 17.6757 6.53161 18 6.59118V5.01562ZM9.25 5.25053C9.25 4.83631 9.58579 4.50053 10 4.50053H14C14.4142 4.50053 14.75 4.83631 14.75 5.25053C14.75 5.66474 14.4142 6.00053 14 6.00053H10C9.58579 6.00053 9.25 5.66474 9.25 5.25053ZM13 18.5005C13 19.0528 12.5523 19.5005 12 19.5005C11.4477 19.5005 11 19.0528 11 18.5005C11 17.9482 11.4477 17.5005 12 17.5005C12.5523 17.5005 13 17.9482 13 18.5005Z" fill="black"/>
<path fill-rule="evenodd" clip-rule="evenodd" d="M17 16C14.7838 16 13 14.2162 13 12C13 9.78379 14.7838 8 17 8C19.2162 8 21 9.78379 21 12C20.9459 14.2162 19.1622 15.9459 17 16ZM18.375 12.6495L16.875 13.5155C16.375 13.8042 15.75 13.4434 15.75 12.866V11.134C15.75 10.5566 16.375 10.1958 16.875 10.4845L18.375 11.3505C18.875 11.6392 18.875 12.3608 18.375 12.6495Z" fill="black"/>
</svg>
