<svg width="24" height="24" viewBox="0 0 24 24" fill="none" xmlns="http://www.w3.org/2000/svg">
<path fill-rule="evenodd" clip-rule="evenodd" d="M15.8179 3.06483C16.924 3.06485 17.8216 3.96082 17.8216 5.06689V10.9023C17.6193 10.869 17.4116 10.8517 17.1999 10.8517C15.9604 10.8517 14.8592 11.444 14.1639 12.361C14.1234 12.3568 14.0826 12.3547 14.0416 12.3547H9.88812C9.56858 12.3547 9.26213 12.4817 9.03618 12.7076C8.81023 12.9336 8.6833 13.24 8.6833 13.5596C8.6833 13.5596 8.6833 15.9692 11.8459 15.9692C12.4387 15.9692 13.1582 15.8845 13.5496 15.747C14.0176 17.3201 15.4748 18.4673 17.1999 18.4673C17.4114 18.4673 17.6192 18.4499 17.8216 18.4166V19.0517C17.8216 20.1563 16.9262 21.0517 15.8216 21.0517H7.85205C6.74748 21.0517 5.85205 20.1563 5.85205 19.0517V5.05186C5.85205 3.94726 6.74742 3.0518 7.85202 3.05322C8.82177 3.05447 9.80027 3.05637 10.7811 3.05827C12.4641 3.06154 14.1538 3.06481 15.8179 3.06483ZM9.55787 5.02892C9.55987 4.68375 9.8413 4.40555 10.1865 4.40754L13.5251 4.42682C13.8703 4.42882 14.1485 4.71025 14.1465 5.05542C14.1445 5.40059 13.863 5.67879 13.5179 5.6768L10.1793 5.65752C9.83408 5.65553 9.55588 5.37409 9.55787 5.02892ZM11.8459 19.7231C12.3982 19.7231 12.8459 19.2754 12.8459 18.7231C12.8459 18.1708 12.3982 17.7231 11.8459 17.7231C11.2937 17.7231 10.8459 18.1708 10.8459 18.7231C10.8459 19.2754 11.2937 19.7231 11.8459 19.7231ZM11.8459 11.5757C12.3652 11.5757 12.8632 11.3694 13.2303 11.0023C13.5975 10.6351 13.8038 10.1371 13.8038 9.61787C13.8038 9.09862 13.5975 8.60064 13.2303 8.23347C12.8632 7.86631 12.3652 7.66004 11.8459 7.66004C11.3267 7.66004 10.8287 7.86631 10.4616 8.23347C10.0944 8.60064 9.88812 9.09862 9.88812 9.61787C9.88812 10.1371 10.0944 10.6351 10.4616 11.0023C10.8287 11.3694 11.3267 11.5757 11.8459 11.5757Z" fill="black"/>
<path fill-rule="evenodd" clip-rule="evenodd" d="M17.1999 13.6018C16.6157 13.6018 16.1421 14.0753 16.1421 14.6595C16.1421 15.2437 16.6157 15.7173 17.1999 15.7173C17.5352 15.7173 17.8338 15.5621 18.0289 15.3167C18.1724 15.136 18.2577 14.9088 18.2577 14.6595C18.2577 14.0753 17.7841 13.6018 17.1999 13.6018ZM14.6421 14.6595C14.6421 13.2469 15.7872 12.1018 17.1999 12.1018C18.6125 12.1018 19.7577 13.2469 19.7577 14.6595C19.7577 14.9794 19.6987 15.2862 19.591 15.569L20.676 16.3663C21.0098 16.6116 21.0815 17.081 20.8362 17.4148C20.5909 17.7486 20.1215 17.8203 19.7877 17.575L18.6694 16.7531C18.2539 17.0452 17.7469 17.2173 17.1999 17.2173C15.7872 17.2173 14.6421 16.0722 14.6421 14.6595Z" fill="black"/>
</svg>
