<svg width="24" height="24" viewBox="0 0 24 24" fill="none" xmlns="http://www.w3.org/2000/svg">
<path fill-rule="evenodd" clip-rule="evenodd" d="M17.8526 5.01562C17.8526 3.90955 16.955 3.01358 15.8489 3.01357C14.1849 3.01354 12.4951 3.01027 10.8121 3.007L10.8094 3.007C9.8295 3.0051 8.85189 3.0032 7.88302 3.00195C6.77843 3.00054 5.88306 3.89599 5.88306 5.00059V19.0005C5.88306 20.105 6.77849 21.0005 7.88306 21.0005H15.8526C16.9572 21.0005 17.8526 20.105 17.8526 19.0005V17.2235C17.5827 17.266 17.306 17.288 17.0241 17.288C14.1043 17.288 11.7373 14.921 11.7373 12.0012C11.7373 9.0814 14.1043 6.71442 17.0241 6.71442C17.306 6.71442 17.5827 6.73648 17.8526 6.77896V5.01562ZM10.187 4.35621C9.84179 4.35422 9.56035 4.63242 9.55836 4.97759C9.55637 5.32276 9.83457 5.6042 10.1797 5.60619L13.5184 5.62547C13.8635 5.62747 14.145 5.34926 14.1469 5.00409C14.1489 4.65892 13.8707 4.37749 13.5256 4.37549L10.187 4.35621ZM11.8464 19.6717C12.3987 19.6717 12.8464 19.224 12.8464 18.6717C12.8464 18.1194 12.3987 17.6717 11.8464 17.6717C11.2942 17.6717 10.8464 18.1194 10.8464 18.6717C10.8464 19.224 11.2942 19.6717 11.8464 19.6717Z" fill="black"/>
<path fill-rule="evenodd" clip-rule="evenodd" d="M17.0241 15.788C19.1155 15.788 20.8109 14.0926 20.8109 12.0012C20.8109 9.90983 19.1155 8.21442 17.0241 8.21442C14.9327 8.21442 13.2373 9.90983 13.2373 12.0012C13.2373 14.0926 14.9327 15.788 17.0241 15.788ZM15.5759 11.6284C15.3319 11.3843 14.9361 11.3843 14.6921 11.6284C14.448 11.8724 14.448 12.2682 14.6921 12.5123L16.0215 13.8417C16.2656 14.0857 16.6613 14.0857 16.9054 13.8417L19.1055 11.6415C19.3496 11.3974 19.3496 11.0017 19.1055 10.7576C18.8615 10.5135 18.4657 10.5135 18.2216 10.7576L16.4634 12.5158L15.5759 11.6284Z" fill="black"/>
</svg>
