<svg width="24" height="24" viewBox="0 0 24 24" fill="none" xmlns="http://www.w3.org/2000/svg">
<path fill-rule="evenodd" clip-rule="evenodd" d="M17.8578 5.01526C17.8578 3.90919 16.9602 3.01322 15.8541 3.0132C14.19 3.01318 12.5003 3.0099 10.8173 3.00664C9.83646 3.00474 8.85796 3.00284 7.88821 3.00159C6.78362 3.00017 5.88824 3.89563 5.88824 5.00023V19.0001C5.88824 20.1047 6.78368 21.0001 7.88825 21.0001H15.8578C16.9624 21.0001 17.8578 20.1047 17.8578 19.0001V18.1933L16.135 16.9797H13.6584C12.0916 16.9797 10.8237 15.7093 10.8237 14.1443V9.86712C10.8237 8.29973 12.0949 7.03096 13.6605 7.03104C14.8749 7.0311 16.1083 7.0298 17.3375 7.02851L17.8578 7.02796V5.01526ZM10.1921 4.35585C9.84698 4.35386 9.56554 4.63206 9.56355 4.97723C9.56155 5.3224 9.83976 5.60384 10.1849 5.60583L13.5235 5.62511C13.8687 5.6271 14.1501 5.3489 14.1521 5.00373C14.1541 4.65856 13.8759 4.37712 13.5308 4.37513L10.1921 4.35585ZM11.8516 19.6714C12.4039 19.6714 12.8516 19.2236 12.8516 18.6714C12.8516 18.1191 12.4039 17.6714 11.8516 17.6714C11.2993 17.6714 10.8516 18.1191 10.8516 18.6714C10.8516 19.2236 11.2993 19.6714 11.8516 19.6714Z" fill="black"/>
<path fill-rule="evenodd" clip-rule="evenodd" d="M12.3237 9.86713C12.3237 9.12907 12.9224 8.53101 13.6604 8.53104C14.8754 8.5311 16.1103 8.5298 17.3402 8.52851C18.0694 8.52774 18.7968 8.52698 19.5172 8.5265C20.2547 8.52601 20.8526 9.12389 20.8526 9.86141V14.1443C20.8526 14.8818 20.2546 15.4797 19.5171 15.4797H19.3865V16.6631C19.3865 16.9878 19.0206 17.1776 18.7552 16.9906L16.6103 15.4797H13.6584C12.9209 15.4797 12.3237 14.8818 12.3237 14.1443V9.86713ZM14.3122 12.7501C14.7264 12.7501 15.0622 12.4143 15.0622 12.0001C15.0622 11.5859 14.7264 11.2501 14.3122 11.2501C13.898 11.2501 13.5622 11.5859 13.5622 12.0001C13.5622 12.4143 13.898 12.7501 14.3122 12.7501ZM17.4836 12.0001C17.4836 12.4143 17.1478 12.7501 16.7336 12.7501C16.3194 12.7501 15.9836 12.4143 15.9836 12.0001C15.9836 11.5859 16.3194 11.2501 16.7336 11.2501C17.1478 11.2501 17.4836 11.5859 17.4836 12.0001ZM19.1545 12.7501C19.5687 12.7501 19.9045 12.4143 19.9045 12.0001C19.9045 11.5859 19.5687 11.2501 19.1545 11.2501C18.7403 11.2501 18.4045 11.5859 18.4045 12.0001C18.4045 12.4143 18.7403 12.7501 19.1545 12.7501Z" fill="black"/>
</svg>
