<svg width="24" height="24" viewBox="0 0 24 24" fill="none" xmlns="http://www.w3.org/2000/svg">
<path fill-rule="evenodd" clip-rule="evenodd" d="M16.1437 3.01357C17.2498 3.01358 18.1475 3.90955 18.1475 5.01562V19.0005C18.1475 20.1051 17.252 21.0005 16.1475 21.0005H8.14746C7.04289 21.0005 6.14746 20.1051 6.14746 19.0005V5.00059C6.14746 3.896 7.04283 3.00054 8.14743 3.00195C9.12131 3.0032 10.104 3.0051 11.089 3.00701C12.778 3.01028 14.4738 3.01356 16.1437 3.01357ZM9.39746 5.25052C9.39746 4.83631 9.73325 4.50052 10.1475 4.50052H14.1475C14.5617 4.50052 14.8975 4.83631 14.8975 5.25052C14.8975 5.66474 14.5617 6.00052 14.1475 6.00052H10.1475C9.73325 6.00052 9.39746 5.66474 9.39746 5.25052ZM12.1475 19.5005C12.6997 19.5005 13.1475 19.0528 13.1475 18.5005C13.1475 17.9482 12.6997 17.5005 12.1475 17.5005C11.5952 17.5005 11.1475 17.9482 11.1475 18.5005C11.1475 19.0528 11.5952 19.5005 12.1475 19.5005ZM10.3975 8.25052C10.3975 8.66474 10.0617 9.00052 9.64746 9.00052C9.23325 9.00052 8.89746 8.66474 8.89746 8.25052C8.89746 7.83631 9.23325 7.50052 9.64746 7.50052C10.0617 7.50052 10.3975 7.83631 10.3975 8.25052ZM12.1475 9.00052C12.5617 9.00052 12.8975 8.66474 12.8975 8.25052C12.8975 7.83631 12.5617 7.50052 12.1475 7.50052C11.7332 7.50052 11.3975 7.83631 11.3975 8.25052C11.3975 8.66474 11.7332 9.00052 12.1475 9.00052ZM15.3975 8.25052C15.3975 8.66474 15.0617 9.00052 14.6475 9.00052C14.2332 9.00052 13.8975 8.66474 13.8975 8.25052C13.8975 7.83631 14.2332 7.50052 14.6475 7.50052C15.0617 7.50052 15.3975 7.83631 15.3975 8.25052ZM9.64746 11.2505C10.0617 11.2505 10.3975 10.9147 10.3975 10.5005C10.3975 10.0863 10.0617 9.75052 9.64746 9.75052C9.23325 9.75052 8.89746 10.0863 8.89746 10.5005C8.89746 10.9147 9.23325 11.2505 9.64746 11.2505ZM12.8975 10.5005C12.8975 10.9147 12.5617 11.2505 12.1475 11.2505C11.7332 11.2505 11.3975 10.9147 11.3975 10.5005C11.3975 10.0863 11.7332 9.75052 12.1475 9.75052C12.5617 9.75052 12.8975 10.0863 12.8975 10.5005ZM14.6475 11.2505C15.0617 11.2505 15.3975 10.9147 15.3975 10.5005C15.3975 10.0863 15.0617 9.75052 14.6475 9.75052C14.2332 9.75052 13.8975 10.0863 13.8975 10.5005C13.8975 10.9147 14.2332 11.2505 14.6475 11.2505ZM10.3975 12.7505C10.3975 13.1647 10.0617 13.5005 9.64746 13.5005C9.23325 13.5005 8.89746 13.1647 8.89746 12.7505C8.89746 12.3363 9.23325 12.0005 9.64746 12.0005C10.0617 12.0005 10.3975 12.3363 10.3975 12.7505ZM12.1475 13.5005C12.5617 13.5005 12.8975 13.1647 12.8975 12.7505C12.8975 12.3363 12.5617 12.0005 12.1475 12.0005C11.7332 12.0005 11.3975 12.3363 11.3975 12.7505C11.3975 13.1647 11.7332 13.5005 12.1475 13.5005ZM15.3975 12.7505C15.3975 13.1647 15.0617 13.5005 14.6475 13.5005C14.2332 13.5005 13.8975 13.1647 13.8975 12.7505C13.8975 12.3363 14.2332 12.0005 14.6475 12.0005C15.0617 12.0005 15.3975 12.3363 15.3975 12.7505ZM12.1475 15.7505C12.5617 15.7505 12.8975 15.4147 12.8975 15.0005C12.8975 14.5863 12.5617 14.2505 12.1475 14.2505C11.7332 14.2505 11.3975 14.5863 11.3975 15.0005C11.3975 15.4147 11.7332 15.7505 12.1475 15.7505Z" fill="black"/>
</svg>
