<svg width="24" height="24" viewBox="0 0 24 24" fill="none" xmlns="http://www.w3.org/2000/svg">
<path fill-rule="evenodd" clip-rule="evenodd" d="M15.8489 3.01173C16.955 3.01175 17.8526 3.90772 17.8526 5.01379V6.59346C17.7332 6.58078 17.6126 6.57434 17.4914 6.57434C16.5845 6.57434 15.7148 6.9346 15.0735 7.57588C14.4322 8.21715 14.0719 9.0869 14.0719 9.9938C14.0719 10.4488 14.1627 10.8945 14.334 11.3067C14.0936 11.4319 13.8713 11.5939 13.6761 11.7892C13.1732 12.292 12.8907 12.974 12.8907 13.6851L12.8912 13.7236C12.8915 13.739 12.8921 13.7569 12.8929 13.7771C12.8947 13.8176 12.8979 13.8679 12.9034 13.9266C12.9143 14.0434 12.9349 14.1966 12.9738 14.3747C13.0509 14.7267 13.2059 15.2042 13.5243 15.6892C14.2196 16.7488 15.4939 17.5475 17.4914 17.5475C17.6146 17.5475 17.735 17.5444 17.8526 17.5385V18.9986C17.8526 20.1032 16.9572 20.9986 15.8526 20.9986H7.88306C6.77849 20.9986 5.88306 20.1032 5.88306 18.9986V4.99876C5.88306 3.89416 6.77843 2.9987 7.88302 3.00012C8.85277 3.00137 9.83127 3.00327 10.8121 3.00517C12.4951 3.00844 14.1849 3.01171 15.8489 3.01173ZM9.58888 4.97582C9.59087 4.63065 9.8723 4.35245 10.2175 4.35444L13.5561 4.37372C13.9013 4.37571 14.1795 4.65715 14.1775 5.00232C14.1755 5.34749 13.894 5.62569 13.5489 5.6237L10.2103 5.60442C9.86509 5.60243 9.58688 5.32099 9.58888 4.97582ZM11.877 19.67C12.4292 19.67 12.877 19.2223 12.877 18.67C12.877 18.1177 12.4292 17.67 11.877 17.67C11.3247 17.67 10.877 18.1177 10.877 18.67C10.877 19.2223 11.3247 19.67 11.877 19.67Z" fill="black"/>
<path d="M18.8487 11.3511C18.4887 11.711 18.0005 11.9132 17.4914 11.9132C16.9823 11.9132 16.4941 11.711 16.1341 11.3511C15.7742 10.9911 15.5719 10.5029 15.5719 9.99379C15.5719 9.48472 15.7742 8.9965 16.1341 8.63654C16.4941 8.27657 16.9823 8.07434 17.4914 8.07434C18.0005 8.07434 18.4887 8.27657 18.8487 8.63654C19.2086 8.9965 19.4109 9.48472 19.4109 9.99379C19.4109 10.5029 19.2086 10.9911 18.8487 11.3511Z" fill="black"/>
<path d="M14.7367 12.8498C14.5152 13.0713 14.3907 13.3718 14.3907 13.6851C14.3907 13.6851 14.3907 16.0475 17.4914 16.0475C20.5921 16.0475 20.5921 13.6851 20.5921 13.6851C20.5921 13.3718 20.4676 13.0713 20.2461 12.8498C20.0246 12.6283 19.7241 12.5039 19.4109 12.5039H15.5719C15.2587 12.5039 14.9582 12.6283 14.7367 12.8498Z" fill="black"/>
</svg>
