<svg width="24" height="24" viewBox="0 0 24 24" fill="none" xmlns="http://www.w3.org/2000/svg">
<path fill-rule="evenodd" clip-rule="evenodd" d="M17.8578 5.01562C17.8578 3.90955 16.9601 3.01358 15.854 3.01357C14.19 3.01354 12.5002 3.01027 10.8172 3.007C9.8364 3.0051 8.8579 3.0032 7.88815 3.00195C6.78355 3.00054 5.88818 3.89599 5.88818 5.00059V19.0005C5.88818 20.105 6.78361 21.0005 7.88818 21.0005H15.8578C16.9623 21.0005 17.8578 20.105 17.8578 19.0005V18.1936L16.135 16.98H13.6584C12.0915 16.98 10.8236 15.7097 10.8236 14.1447V9.86748C10.8236 8.30009 12.0948 7.03133 13.6604 7.0314C14.8748 7.03146 16.1083 7.03016 17.3374 7.02887L17.8578 7.02833V5.01562ZM10.1921 4.35621C9.84691 4.35422 9.56548 4.63242 9.56349 4.97759C9.56149 5.32276 9.83969 5.6042 10.1849 5.60619L13.5235 5.62547C13.8686 5.62747 14.1501 5.34926 14.1521 5.00409C14.1541 4.65892 13.8759 4.37749 13.5307 4.37549L10.1921 4.35621ZM11.8516 19.6717C12.4038 19.6717 12.8516 19.224 12.8516 18.6717C12.8516 18.1194 12.4038 17.6717 11.8516 17.6717C11.2993 17.6717 10.8516 18.1194 10.8516 18.6717C10.8516 19.224 11.2993 19.6717 11.8516 19.6717Z" fill="black"/>
<path fill-rule="evenodd" clip-rule="evenodd" d="M12.3236 9.86749C12.3236 9.12944 12.9223 8.53137 13.6603 8.53141C14.8754 8.53146 16.1103 8.53017 17.3401 8.52887C18.0693 8.52811 18.7967 8.52734 19.5172 8.52686C20.2547 8.52637 20.8525 9.12425 20.8525 9.86177V14.1447C20.8525 14.8822 20.2545 15.48 19.517 15.48H19.3865V16.6635C19.3865 16.9881 19.0206 17.178 18.7552 16.991L16.6103 15.48H13.6584C12.9208 15.48 12.3236 14.8822 12.3236 14.1447V9.86749ZM14.3121 12.7505C14.7263 12.7505 15.0621 12.4147 15.0621 12.0005C15.0621 11.5863 14.7263 11.2505 14.3121 11.2505C13.8979 11.2505 13.5621 11.5863 13.5621 12.0005C13.5621 12.4147 13.8979 12.7505 14.3121 12.7505ZM17.4835 12.0005C17.4835 12.4147 17.1477 12.7505 16.7335 12.7505C16.3193 12.7505 15.9835 12.4147 15.9835 12.0005C15.9835 11.5863 16.3193 11.2505 16.7335 11.2505C17.1477 11.2505 17.4835 11.5863 17.4835 12.0005ZM19.1544 12.7505C19.5686 12.7505 19.9044 12.4147 19.9044 12.0005C19.9044 11.5863 19.5686 11.2505 19.1544 11.2505C18.7402 11.2505 18.4044 11.5863 18.4044 12.0005C18.4044 12.4147 18.7402 12.7505 19.1544 12.7505Z" fill="black"/>
</svg>
