<svg width="24" height="24" viewBox="0 0 24 24" fill="none" xmlns="http://www.w3.org/2000/svg">
<path fill-rule="evenodd" clip-rule="evenodd" d="M15.8528 3.01173C16.9589 3.01175 17.8565 3.90772 17.8565 5.01379V9.15675C17.8178 9.11067 17.7774 9.06595 17.7354 9.0227L17.7301 9.01727L17.0904 8.37248L17.0809 8.36323C16.6305 7.92496 16.0155 7.65332 15.3449 7.65332C14.6882 7.65332 14.0513 7.91557 13.5842 8.38266L13.4092 8.55766C12.8841 9.08284 12.5821 9.76942 12.5164 10.4739L12.5155 10.4838L12.5147 10.4937C12.4564 11.2222 12.6592 11.9537 13.0975 12.5516C14.2807 14.1895 15.7136 15.6219 17.352 16.8046C17.51 16.9187 17.679 17.0183 17.8565 17.1015V18.9986C17.8565 20.1032 16.9611 20.9986 15.8565 20.9986H7.88696C6.78239 20.9986 5.88696 20.1032 5.88696 18.9986V4.99876C5.88696 3.89416 6.78233 2.9987 7.88693 3.00012C8.85668 3.00137 9.83518 3.00327 10.816 3.00517C12.499 3.00844 14.1888 3.01171 15.8528 3.01173ZM9.56227 4.97579C9.56426 4.63062 9.84569 4.35242 10.1909 4.35441L13.5295 4.37369C13.8746 4.37569 14.1528 4.65712 14.1509 5.00229C14.1489 5.34746 13.8674 5.62566 13.5223 5.62367L10.1836 5.60439C9.83847 5.6024 9.56027 5.32096 9.56227 4.97579ZM12.8503 18.6699C12.8503 19.2222 12.4026 19.6699 11.8503 19.6699C11.2981 19.6699 10.8503 19.2222 10.8503 18.6699C10.8503 18.1176 11.2981 17.6699 11.8503 17.6699C12.4026 17.6699 12.8503 18.1176 12.8503 18.6699Z" fill="black"/>
<path d="M20.6699 14.1883C20.6199 14.0683 20.5499 13.9633 20.4599 13.8733L19.8349 13.2483C19.7449 13.1583 19.6449 13.0883 19.5299 13.0433C19.4149 12.9933 19.2899 12.9733 19.1699 12.9733C19.0499 12.9733 18.9249 12.9983 18.8099 13.0433C18.6949 13.0933 18.5899 13.1583 18.5049 13.2483C18.4249 13.3283 18.3249 13.3733 18.2149 13.3833C18.1049 13.3933 17.9949 13.3633 17.9049 13.2983C17.6599 13.1183 17.4249 12.9183 17.2099 12.6983C16.9899 12.4833 16.7899 12.2533 16.6099 12.0083C16.5449 11.9183 16.5149 11.8083 16.5249 11.6983C16.5349 11.5883 16.5849 11.4833 16.6599 11.4083C16.8349 11.2283 16.9349 10.9883 16.9349 10.7383C16.9349 10.4883 16.8349 10.2483 16.6599 10.0683L16.0349 9.43832C15.8499 9.25832 15.6049 9.15332 15.3449 9.15332C15.0849 9.15332 14.8299 9.25832 14.6449 9.44332L14.4699 9.61832C14.2049 9.88332 14.0449 10.2383 14.0099 10.6133C13.9799 10.9883 14.0849 11.3633 14.3099 11.6683C15.3999 13.1783 16.7199 14.4983 18.2299 15.5883C18.4999 15.7833 18.8249 15.8933 19.1599 15.8933C19.3699 15.8933 19.5749 15.8533 19.7649 15.7733C19.9549 15.6933 20.1299 15.5733 20.2749 15.4283L20.4499 15.2533C20.5399 15.1633 20.6099 15.0583 20.6599 14.9383C20.7099 14.8183 20.7349 14.6933 20.7349 14.5683C20.7349 14.4433 20.7099 14.3133 20.6599 14.1983L20.6699 14.1883Z" fill="black"/>
</svg>
