<svg width="24" height="24" viewBox="0 0 24 24" fill="none" xmlns="http://www.w3.org/2000/svg">
<path fill-rule="evenodd" clip-rule="evenodd" d="M17.8525 5.01525C17.8525 3.90919 16.9549 3.01322 15.8488 3.01321C14.1789 3.01319 12.4831 3.00991 10.7941 3.00664C9.80908 3.00474 8.82638 3.00283 7.85251 3.00159C6.74791 3.00018 5.85254 3.89563 5.85254 5.00023V19.0002C5.85254 20.1047 6.74797 21.0002 7.85254 21.0002H15.8525C16.9571 21.0002 17.8525 20.1047 17.8525 19.0002L17.8525 17.5002C14.815 17.5002 12.3525 15.0377 12.3525 12.0002C12.3525 8.96259 14.815 6.50016 17.8525 6.50016L17.8525 5.01525ZM9.85254 4.37516C9.50736 4.37516 9.22754 4.65498 9.22754 5.00016C9.22754 5.34534 9.50736 5.62516 9.85254 5.62516H13.8525C14.1977 5.62516 14.4775 5.34534 14.4775 5.00016C14.4775 4.65498 14.1977 4.37516 13.8525 4.37516H9.85254ZM12.8525 18.5002C12.8525 19.0524 12.4048 19.5002 11.8525 19.5002C11.3003 19.5002 10.8525 19.0524 10.8525 18.5002C10.8525 17.9479 11.3003 17.5002 11.8525 17.5002C12.4048 17.5002 12.8525 17.9479 12.8525 18.5002Z" fill="black"/>
<path fill-rule="evenodd" clip-rule="evenodd" d="M17.8525 16.0002C20.0617 16.0002 21.8525 14.2093 21.8525 12.0002C21.8525 9.79102 20.0617 8.00016 17.8525 8.00016C15.6434 8.00016 13.8525 9.79102 13.8525 12.0002C13.8525 14.2093 15.6434 16.0002 17.8525 16.0002ZM16.193 10.1583L16.6661 10.0293C16.9446 9.95336 17.0764 10.0241 17.1756 10.2621L17.4136 10.8333C17.5026 11.047 17.4822 11.2026 17.2904 11.3594L17.1309 11.4897C17.0416 11.5627 17.0125 11.6879 17.0694 11.7882C17.3049 12.2028 17.6495 12.5473 18.0641 12.7827C18.1643 12.8396 18.2894 12.8106 18.3624 12.7215L18.4825 12.5749C18.6345 12.3895 18.7823 12.3396 19.0176 12.4377L19.5726 12.6689C19.8123 12.7688 19.8939 12.9251 19.8217 13.1897L19.689 13.6762C19.6273 13.9025 19.4988 14.0074 19.2514 13.9998C17.4095 13.9433 15.9245 12.4675 15.8533 10.6294C15.8434 10.3739 15.93 10.2301 16.193 10.1583Z" fill="black"/>
</svg>
