<svg width="24" height="24" viewBox="0 0 24 24" fill="none" xmlns="http://www.w3.org/2000/svg">
<path fill-rule="evenodd" clip-rule="evenodd" d="M17.8526 5.01526C17.8526 3.90919 16.955 3.01321 15.8489 3.0132C14.1849 3.01318 12.4951 3.0099 10.8121 3.00664C9.83128 3.00473 8.85277 3.00283 7.88302 3.00159C6.77843 3.00017 5.88306 3.89563 5.88306 5.00022V19.0001C5.88306 20.1047 6.77849 21.0001 7.88306 21.0001H15.8526C16.9572 21.0001 17.8526 20.1047 17.8526 19.0001V5.01526ZM10.187 4.35585C9.84179 4.35385 9.56035 4.63205 9.55836 4.97723C9.55637 5.3224 9.83457 5.60383 10.1797 5.60582L13.5184 5.62511C13.8635 5.6271 14.145 5.3489 14.1469 5.00373C14.1489 4.65855 13.8707 4.37712 13.5256 4.37513L10.187 4.35585ZM11.8464 19.6714C12.3987 19.6714 12.8464 19.2236 12.8464 18.6714C12.8464 18.1191 12.3987 17.6714 11.8464 17.6714C11.2942 17.6714 10.8464 18.1191 10.8464 18.6714C10.8464 19.2236 11.2942 19.6714 11.8464 19.6714Z" fill="black"/>
</svg>
