<svg width="24" height="24" viewBox="0 0 24 24" fill="none" xmlns="http://www.w3.org/2000/svg">
<path fill-rule="evenodd" clip-rule="evenodd" d="M17.8526 5.01525C17.8526 3.90919 16.9549 3.01322 15.8489 3.01321C14.179 3.01319 12.4831 3.00991 10.7942 3.00664C9.80914 3.00474 8.82645 3.00283 7.85257 3.00159C6.74797 3.00018 5.8526 3.89563 5.8526 5.00023V19.0002C5.8526 20.1047 6.74803 21.0002 7.8526 21.0002H15.8526C16.9572 21.0002 17.8526 20.1047 17.8526 19.0002V17.3924C17.5397 17.455 17.2181 17.4915 16.8901 17.4997L16.8713 17.5002H16.8526C13.808 17.5002 11.3526 15.0448 11.3526 12.0002C11.3526 8.95552 13.808 6.50016 16.8526 6.50016C17.1942 6.50016 17.5284 6.53107 17.8526 6.59026V5.01525ZM9.2276 5.00012C9.2276 4.65494 9.50742 4.37512 9.8526 4.37512H13.8526C14.1978 4.37512 14.4776 4.65494 14.4776 5.00012C14.4776 5.3453 14.1978 5.62512 13.8526 5.62512H9.8526C9.50742 5.62512 9.2276 5.3453 9.2276 5.00012ZM11.8526 19.5001C12.4049 19.5001 12.8526 19.0524 12.8526 18.5001C12.8526 17.9478 12.4049 17.5001 11.8526 17.5001C11.3003 17.5001 10.8526 17.9478 10.8526 18.5001C10.8526 19.0524 11.3003 19.5001 11.8526 19.5001Z" fill="black"/>
<path fill-rule="evenodd" clip-rule="evenodd" d="M12.8526 12.0001C12.8526 14.2163 14.6364 16.0001 16.8526 16.0001C19.0148 15.9461 20.7985 14.2163 20.8526 12.0001C20.8526 9.78391 19.0688 8.00012 16.8526 8.00012C14.6364 8.00012 12.8526 9.78391 12.8526 12.0001ZM16.6912 10.7613C16.7498 10.7322 16.819 10.7235 16.8857 10.7386C16.9522 10.7537 17.0082 10.7905 17.0456 10.8389C17.0826 10.8869 17.0992 10.9434 17.096 10.9984L17.0959 10.9992C17.0959 10.9992 17.0944 11.0155 17.0821 11.0484C17.0698 11.0815 17.0497 11.1234 17.0203 11.1734C16.9606 11.2746 16.8766 11.3847 16.7837 11.4917C16.6921 11.5972 16.6 11.6903 16.5302 11.7575C16.4956 11.7908 16.4671 11.8171 16.4478 11.8345C16.4382 11.8432 16.431 11.8497 16.4264 11.8538L16.4217 11.8579L16.421 11.8585C16.2112 12.0404 16.1885 12.3579 16.3702 12.5679C16.552 12.778 16.8699 12.8007 17.08 12.6189L17.0814 12.6176L17.0842 12.6152L17.0932 12.6073C17.1007 12.6007 17.111 12.5915 17.1238 12.5798C17.1495 12.5566 17.1852 12.5236 17.2278 12.4826C17.3124 12.4012 17.4267 12.2859 17.5435 12.1514C17.6588 12.0186 17.785 11.8574 17.8869 11.6846C17.9839 11.5202 18.0864 11.2999 18.1005 11.0574C18.1181 10.757 18.0255 10.462 17.8424 10.2245C17.6595 9.98728 17.3987 9.82303 17.1077 9.7572C16.8169 9.6914 16.511 9.72726 16.2435 9.86014C15.9758 9.99316 15.7619 10.216 15.6434 10.4922C15.5339 10.7476 15.6522 11.0433 15.9076 11.1528C16.1629 11.2623 16.4587 11.1441 16.5682 10.8887C16.5906 10.8365 16.6329 10.7903 16.6912 10.7613ZM16.7506 13.2465C16.4732 13.2305 16.2354 13.4425 16.2194 13.7199C16.2034 13.9972 16.4154 14.2351 16.6928 14.251L16.6978 14.2513C16.9752 14.2673 17.213 14.0553 17.229 13.7779C17.2449 13.5006 17.033 13.2627 16.7556 13.2468L16.7506 13.2465Z" fill="black"/>
</svg>
