<svg width="24" height="24" viewBox="0 0 24 24" fill="none" xmlns="http://www.w3.org/2000/svg">
<path fill-rule="evenodd" clip-rule="evenodd" d="M15.8184 3.01247C16.9244 3.01248 17.8221 3.90845 17.8221 5.01452V6.50114C16.6604 6.53356 15.5497 7.01605 14.721 7.85718C13.9213 8.66888 13.322 9.81225 13.322 11.1247C13.322 11.9973 13.6771 13.0389 14.0275 13.7719C14.3893 14.5286 14.8596 15.2563 15.3103 15.8776C15.5892 16.262 15.8666 16.6139 16.116 16.916C16.5627 17.4569 17.187 17.7438 17.8221 17.7766V18.9994C17.8221 20.1039 16.9267 20.9994 15.8221 20.9994H7.85254C6.74797 20.9994 5.85254 20.1039 5.85254 18.9994V4.99949C5.85254 3.89489 6.74791 2.99944 7.85251 3.00086C8.82226 3.0021 9.80076 3.004 10.7816 3.0059C12.4646 3.00917 14.1543 3.01245 15.8184 3.01247ZM9.52788 4.97652C9.52988 4.63135 9.81131 4.35315 10.1565 4.35514L13.4951 4.37442C13.8403 4.37642 14.1185 4.65785 14.1165 5.00302C14.1145 5.34819 13.833 5.62639 13.4879 5.6244L10.1493 5.60512C9.80409 5.60313 9.52589 5.32169 9.52788 4.97652ZM11.8159 19.6707C12.3682 19.6707 12.8159 19.223 12.8159 18.6707C12.8159 18.1184 12.3682 17.6707 11.8159 17.6707C11.2636 17.6707 10.8159 18.1184 10.8159 18.6707C10.8159 19.223 11.2636 19.6707 11.8159 19.6707Z" fill="black"/>
<path fill-rule="evenodd" clip-rule="evenodd" d="M17.9819 7.92139C17.18 7.92139 16.4029 8.24446 15.8241 8.83192C15.2443 9.42043 14.8566 10.2021 14.8566 11.0467C14.8566 11.593 15.1046 12.3969 15.4154 13.0469C15.7244 13.6932 16.1394 14.3403 16.559 14.9188C16.8162 15.2733 17.0738 15.6002 17.3072 15.8829C17.6583 16.3081 18.3014 16.3081 18.6524 15.8829C18.8859 15.6002 19.1435 15.2733 19.4007 14.9188C19.8203 14.3403 20.2353 13.6932 20.5443 13.0469C20.8551 12.3969 21.1073 11.6157 21.1073 11.0695C21.1073 10.2248 20.7196 9.42043 20.1397 8.83192C19.561 8.24446 18.7839 7.92139 17.9819 7.92139ZM19.3221 10.7495C19.3221 11.4398 18.7625 11.9995 18.0721 11.9995C17.3817 11.9995 16.822 11.4398 16.822 10.7495C16.822 10.0591 17.3817 9.49939 18.0721 9.49939C18.7625 9.49939 19.3221 10.0591 19.3221 10.7495Z" fill="black"/>
</svg>
