<svg width="24" height="24" viewBox="0 0 24 24" fill="none" xmlns="http://www.w3.org/2000/svg">
<path fill-rule="evenodd" clip-rule="evenodd" d="M15.8525 5.01525C15.8525 3.90919 14.9549 3.01322 13.8488 3.01321C12.1789 3.01319 10.4831 3.00991 8.7941 3.00664C7.80908 3.00474 6.82638 3.00283 5.85251 3.00159C4.74791 3.00018 3.85254 3.89563 3.85254 5.00023V19.0002C3.85254 20.1047 4.74797 21.0002 5.85254 21.0002H13.8525C14.9571 21.0002 15.8525 20.1047 15.8525 19.0002V17.0211L15.8264 17.0002H13.8525C11.9195 17.0002 10.3525 15.4332 10.3525 13.5002V10.5015C10.3525 8.5676 11.9209 7.00023 13.8548 7.0015L15.8525 7.00282V5.01525ZM7.22754 5.00012C7.22754 4.65494 7.50736 4.37512 7.85254 4.37512H11.8525C12.1977 4.37512 12.4775 4.65494 12.4775 5.00012C12.4775 5.3453 12.1977 5.62512 11.8525 5.62512H7.85254C7.50736 5.62512 7.22754 5.3453 7.22754 5.00012ZM9.85254 19.5001C10.4048 19.5001 10.8525 19.0524 10.8525 18.5001C10.8525 17.9478 10.4048 17.5001 9.85254 17.5001C9.30025 17.5001 8.85254 17.9478 8.85254 18.5001C8.85254 19.0524 9.30025 19.5001 9.85254 19.5001Z" fill="black"/>
<path fill-rule="evenodd" clip-rule="evenodd" d="M20.8525 10.5048C20.8525 9.40071 19.9579 8.5055 18.8539 8.50477L13.8539 8.50147C12.7488 8.50074 11.8525 9.39638 11.8525 10.5015V13.5001C11.8525 14.6047 12.748 15.5001 13.8525 15.5001H16.3525L18.0402 16.8503C18.3676 17.1122 18.8525 16.8791 18.8525 16.4598V15.5001C19.9571 15.5001 20.8525 14.6047 20.8525 13.5001V10.5048ZM18.7061 11.1037C18.9014 10.9084 18.9014 10.5918 18.7061 10.3966C18.5108 10.2013 18.1942 10.2013 17.999 10.3966L15.8525 12.543L14.7061 11.3966C14.5108 11.2013 14.1942 11.2013 13.999 11.3966C13.8037 11.5918 13.8037 11.9084 13.999 12.1037L15.499 13.6037C15.6942 13.7989 16.0108 13.7989 16.2061 13.6037L18.7061 11.1037Z" fill="black"/>
</svg>
