<svg width="24" height="24" viewBox="0 0 24 24" fill="none" xmlns="http://www.w3.org/2000/svg">
<path fill-rule="evenodd" clip-rule="evenodd" d="M15.8529 3.01173C16.9589 3.01175 17.8566 3.90772 17.8566 5.01379V9.15675C17.8179 9.11067 17.7775 9.06595 17.7355 9.0227L17.7302 9.01727L17.0905 8.37248L17.081 8.36323C16.6305 7.92496 16.0156 7.65332 15.345 7.65332C14.6882 7.65332 14.0514 7.91557 13.5843 8.38266L13.4093 8.55766C12.8841 9.08284 12.5822 9.76942 12.5165 10.4739L12.5155 10.4838L12.5147 10.4937C12.4565 11.2222 12.6592 11.9537 13.0976 12.5516C14.2808 14.1895 15.7137 15.6219 17.352 16.8046C17.5101 16.9187 17.6791 17.0183 17.8566 17.1015V18.9986C17.8566 20.1032 16.9612 20.9986 15.8566 20.9986H7.88702C6.78246 20.9986 5.88702 20.1032 5.88702 18.9986V4.99876C5.88702 3.89416 6.78239 2.9987 7.88699 3.00012C8.85674 3.00137 9.83524 3.00327 10.8161 3.00517C12.499 3.00844 14.1888 3.01171 15.8529 3.01173ZM9.56233 4.97579C9.56432 4.63062 9.84575 4.35242 10.1909 4.35441L13.5295 4.37369C13.8747 4.37569 14.1529 4.65712 14.1509 5.00229C14.1489 5.34746 13.8675 5.62566 13.5223 5.62367L10.1837 5.60439C9.83854 5.6024 9.56033 5.32096 9.56233 4.97579ZM12.8504 18.6699C12.8504 19.2222 12.4027 19.6699 11.8504 19.6699C11.2981 19.6699 10.8504 19.2222 10.8504 18.6699C10.8504 18.1176 11.2981 17.6699 11.8504 17.6699C12.4027 17.6699 12.8504 18.1176 12.8504 18.6699Z" fill="black"/>
<path d="M20.67 14.1883C20.62 14.0683 20.55 13.9633 20.46 13.8733L19.835 13.2483C19.745 13.1583 19.645 13.0883 19.53 13.0433C19.415 12.9933 19.29 12.9733 19.17 12.9733C19.05 12.9733 18.925 12.9983 18.81 13.0433C18.695 13.0933 18.59 13.1583 18.505 13.2483C18.425 13.3283 18.325 13.3733 18.215 13.3833C18.105 13.3933 17.995 13.3633 17.905 13.2983C17.66 13.1183 17.425 12.9183 17.21 12.6983C16.99 12.4833 16.79 12.2533 16.61 12.0083C16.545 11.9183 16.515 11.8083 16.525 11.6983C16.535 11.5883 16.585 11.4833 16.66 11.4083C16.835 11.2283 16.935 10.9883 16.935 10.7383C16.935 10.4883 16.835 10.2483 16.66 10.0683L16.035 9.43832C15.85 9.25832 15.605 9.15332 15.345 9.15332C15.085 9.15332 14.83 9.25832 14.645 9.44332L14.47 9.61832C14.205 9.88332 14.045 10.2383 14.01 10.6133C13.98 10.9883 14.085 11.3633 14.31 11.6683C15.4 13.1783 16.72 14.4983 18.23 15.5883C18.5 15.7833 18.825 15.8933 19.16 15.8933C19.37 15.8933 19.575 15.8533 19.765 15.7733C19.955 15.6933 20.13 15.5733 20.275 15.4283L20.45 15.2533C20.54 15.1633 20.61 15.0583 20.66 14.9383C20.71 14.8183 20.735 14.6933 20.735 14.5683C20.735 14.4433 20.71 14.3133 20.66 14.1983L20.67 14.1883Z" fill="black"/>
</svg>
