<svg width="24" height="24" viewBox="0 0 24 24" fill="none" xmlns="http://www.w3.org/2000/svg">
<path fill-rule="evenodd" clip-rule="evenodd" d="M15.9614 3.01308C17.0675 3.01309 17.9652 3.90906 17.9652 5.01514V7.02784C17.7924 7.02802 17.6194 7.0282 17.4463 7.02838L17.4448 7.02838C16.2157 7.02967 14.9823 7.03097 13.7679 7.03091C12.2022 7.03084 10.931 8.2996 10.931 9.867V14.1442C10.931 15.7092 12.1989 16.9795 13.7658 16.9795H16.2424L17.9652 18.1932V19C17.9652 20.1045 17.0698 21 15.9652 21H7.99561C6.89104 21 5.99561 20.1045 5.99561 19V5.0001C5.99561 3.8955 6.89098 3.00005 7.99557 3.00147C8.96532 3.00271 9.94382 3.00461 10.9246 3.00651C12.6076 3.00978 14.2974 3.01306 15.9614 3.01308ZM9.67091 4.9771C9.6729 4.63193 9.95434 4.35373 10.2995 4.35572L13.6381 4.375C13.9833 4.377 14.2615 4.65843 14.2595 5.0036C14.2575 5.34878 13.9761 5.62698 13.6309 5.62498L10.2923 5.6057C9.94712 5.60371 9.66892 5.32228 9.67091 4.9771ZM12.959 18.6712C12.959 19.2235 12.5113 19.6712 11.959 19.6712C11.4067 19.6712 10.959 19.2235 10.959 18.6712C10.959 18.1189 11.4067 17.6712 11.959 17.6712C12.5113 17.6712 12.959 18.1189 12.959 18.6712Z" fill="black"/>
<path d="M13.7678 8.53092C13.0297 8.53088 12.431 9.12895 12.431 9.867V14.1442C12.431 14.8817 13.0283 15.4796 13.7658 15.4796C14.8984 15.4796 16.3903 15.4796 16.7177 15.4796L18.8626 16.9905C19.128 17.1775 19.4939 16.9877 19.4939 16.663V15.4796C19.5314 15.4796 19.5754 15.4796 19.6244 15.4796C20.3619 15.4796 20.96 14.8817 20.96 14.1442V9.86128C20.96 9.12376 20.3621 8.52588 19.6246 8.52637C17.6892 8.52766 15.7032 8.53101 13.7678 8.53092Z" fill="black"/>
</svg>
