<svg width="24" height="24" viewBox="0 0 24 24" fill="none" xmlns="http://www.w3.org/2000/svg">
<path fill-rule="evenodd" clip-rule="evenodd" d="M16.4831 16.9201C15.1631 16.9201 14.0781 15.9051 13.9681 14.6151C13.5931 14.5351 13.2331 14.3551 12.9281 14.0751C12.5281 13.7101 12.2881 13.2301 12.2181 12.7301C11.8681 12.6351 11.5381 12.4551 11.2581 12.1901C10.3581 11.3351 10.3231 9.91012 11.1781 9.01012C12.5081 7.61012 14.3931 6.73512 16.4831 6.73512C16.9531 6.73512 17.4081 6.78512 17.8531 6.87012V5.01512C17.8531 3.91012 16.9531 3.01012 15.8481 3.01012C14.1831 3.01012 12.4931 3.01012 10.8131 3.00512C9.83306 3.00012 8.85306 3.00012 7.88306 3.00012C6.77806 3.00012 5.88306 3.89512 5.88306 5.00012V19.0001C5.88306 20.1051 6.77806 21.0001 7.88306 21.0001H15.8531C16.9581 21.0001 17.8531 20.1051 17.8531 19.0001V16.5151C17.4581 16.7701 16.9881 16.9201 16.4831 16.9201ZM9.55806 4.97512C9.55806 4.63012 9.84306 4.35012 10.1881 4.35512L13.5281 4.37512C13.8731 4.37512 14.1531 4.66012 14.1481 5.00512C14.1481 5.35012 13.8631 5.63012 13.5181 5.62512L10.1781 5.60512C9.83306 5.60512 9.55306 5.32012 9.55806 4.97512ZM11.8481 19.6701C11.2981 19.6701 10.8481 19.2201 10.8481 18.6701C10.8481 18.1201 11.2981 17.6701 11.8481 17.6701C12.3981 17.6701 12.8481 18.1201 12.8481 18.6701C12.8481 19.2201 12.3981 19.6701 11.8481 19.6701Z" fill="black"/>
<path fill-rule="evenodd" clip-rule="evenodd" d="M16.5062 12.268C15.9189 12.268 15.3913 12.519 15.0228 12.9218C14.7432 13.2274 14.2688 13.2484 13.9632 12.9688C13.6576 12.6892 13.6365 12.2148 13.9161 11.9092C14.5569 11.2089 15.4806 10.768 16.5062 10.768C17.5319 10.768 18.4556 11.2089 19.0964 11.9092C19.376 12.2148 19.3549 12.6892 19.0493 12.9688C18.7437 13.2484 18.2693 13.2274 17.9897 12.9218C17.6212 12.519 17.0935 12.268 16.5062 12.268Z" fill="black"/>
<path fill-rule="evenodd" clip-rule="evenodd" d="M16.5064 9.73474C15.2748 9.73474 14.1647 10.2495 13.3773 11.0776C13.0919 11.3778 12.6171 11.3898 12.317 11.1044C12.0168 10.8189 12.0048 10.3442 12.2902 10.044C13.3491 8.93046 14.8471 8.23474 16.5064 8.23474C18.166 8.23474 19.6644 8.93074 20.7232 10.0447C21.0086 10.3449 20.9965 10.8196 20.6963 11.105C20.3961 11.3904 19.9214 11.3784 19.636 11.0781C18.8485 10.2497 17.7382 9.73474 16.5064 9.73474Z" fill="black"/>
<path d="M17.531 14.3962C17.531 14.9619 17.0724 15.4205 16.5067 15.4205C15.941 15.4205 15.4824 14.9619 15.4824 14.3962C15.4824 13.8306 15.941 13.372 16.5067 13.372C17.0724 13.372 17.531 13.8306 17.531 14.3962Z" fill="black"/>
</svg>
