<svg width="24" height="24" viewBox="0 0 24 24" fill="none" xmlns="http://www.w3.org/2000/svg">
<path fill-rule="evenodd" clip-rule="evenodd" d="M17.8526 5.01562C17.8526 3.90955 16.955 3.01358 15.8489 3.01357C14.1849 3.01354 12.4951 3.01027 10.8121 3.007C9.83128 3.0051 8.85277 3.0032 7.88302 3.00195C6.77843 3.00054 5.88306 3.89599 5.88306 5.00059V19.0005C5.88306 20.105 6.77849 21.0005 7.88306 21.0005H15.8526C16.9572 21.0005 17.8526 20.105 17.8526 19.0005V5.01562ZM10.187 4.35621C9.84179 4.35422 9.56035 4.63242 9.55836 4.97759C9.55637 5.32276 9.83457 5.6042 10.1797 5.60619L13.5184 5.62547C13.8635 5.62747 14.145 5.34926 14.1469 5.00409C14.1489 4.65892 13.8707 4.37749 13.5256 4.37549L10.187 4.35621ZM11.8464 19.6717C12.3987 19.6717 12.8464 19.224 12.8464 18.6717C12.8464 18.1194 12.3987 17.6717 11.8464 17.6717C11.2942 17.6717 10.8464 18.1194 10.8464 18.6717C10.8464 19.224 11.2942 19.6717 11.8464 19.6717Z" fill="black"/>
</svg>
