<svg width="24" height="24" viewBox="0 0 24 24" fill="none" xmlns="http://www.w3.org/2000/svg">
<path fill-rule="evenodd" clip-rule="evenodd" d="M17.8525 5.01562C17.8525 3.90955 16.9549 3.01358 15.8488 3.01357C14.1789 3.01356 12.4831 3.01028 10.7941 3.00701C9.80908 3.0051 8.82638 3.0032 7.85251 3.00195C6.74791 3.00054 5.85254 3.896 5.85254 5.00059V19.0005C5.85254 20.1051 6.74797 21.0005 7.85254 21.0005H15.8525C16.9571 21.0005 17.8525 20.1051 17.8525 19.0005V17.3928C17.5397 17.4554 17.218 17.4919 16.89 17.5001L16.8713 17.5005H16.8525C13.8079 17.5005 11.3525 15.0452 11.3525 12.0005C11.3525 8.95588 13.8079 6.50052 16.8525 6.50052C17.1942 6.50052 17.5284 6.53144 17.8525 6.59063V5.01562ZM9.22754 5.00049C9.22754 4.65531 9.50736 4.37549 9.85254 4.37549H13.8525C14.1977 4.37549 14.4775 4.65531 14.4775 5.00049C14.4775 5.34567 14.1977 5.62549 13.8525 5.62549H9.85254C9.50736 5.62549 9.22754 5.34567 9.22754 5.00049ZM11.8525 19.5005C12.4048 19.5005 12.8525 19.0528 12.8525 18.5005C12.8525 17.9482 12.4048 17.5005 11.8525 17.5005C11.3003 17.5005 10.8525 17.9482 10.8525 18.5005C10.8525 19.0528 11.3003 19.5005 11.8525 19.5005Z" fill="black"/>
<path fill-rule="evenodd" clip-rule="evenodd" d="M12.8525 12.0005C12.8525 14.2167 14.6363 16.0005 16.8525 16.0005C19.0147 15.9464 20.7985 14.2167 20.8525 12.0005C20.8525 9.78427 19.0688 8.00049 16.8525 8.00049C14.6363 8.00049 12.8525 9.78427 12.8525 12.0005ZM16.6912 10.7616C16.7498 10.7325 16.8189 10.7239 16.8856 10.739C16.9521 10.754 17.0082 10.7908 17.0455 10.8392C17.0825 10.8873 17.0992 10.9438 17.0959 10.9988L17.0959 10.9996C17.0959 10.9996 17.0943 11.0159 17.0821 11.0487C17.0697 11.0819 17.0497 11.1238 17.0202 11.1738C16.9605 11.2749 16.8766 11.385 16.7836 11.4921C16.6921 11.5975 16.6 11.6907 16.5301 11.7578C16.4955 11.7912 16.467 11.8174 16.4478 11.8349C16.4382 11.8436 16.4309 11.8501 16.4263 11.8541L16.4216 11.8583L16.4209 11.8589C16.2112 12.0408 16.1884 12.3583 16.3701 12.5682C16.552 12.7783 16.8698 12.8011 17.0799 12.6193L17.0814 12.618L17.0842 12.6156L17.0932 12.6077C17.1006 12.6011 17.111 12.5918 17.1238 12.5802C17.1494 12.557 17.1851 12.5239 17.2277 12.483C17.3123 12.4016 17.4267 12.2862 17.5434 12.1518C17.6588 12.0189 17.7849 11.8578 17.8869 11.685C17.9839 11.5205 18.0864 11.3003 18.1004 11.0578C18.1181 10.7573 18.0255 10.4623 17.8424 10.2249C17.6595 9.98764 17.3986 9.8234 17.1077 9.75757C16.8168 9.69176 16.511 9.72763 16.2435 9.8605C15.9757 9.99353 15.7618 10.2163 15.6434 10.4925C15.5339 10.7479 15.6521 11.0437 15.9075 11.1532C16.1629 11.2627 16.4587 11.1445 16.5682 10.8891C16.5906 10.8369 16.6328 10.7906 16.6912 10.7616ZM16.7505 13.2468C16.4731 13.2309 16.2353 13.4428 16.2193 13.7202C16.2034 13.9976 16.4153 14.2354 16.6927 14.2514L16.6977 14.2517C16.9751 14.2676 17.2129 14.0557 17.2289 13.7783C17.2449 13.5009 17.0329 13.2631 16.7555 13.2471L16.7505 13.2468Z" fill="black"/>
</svg>
