<svg width="24" height="24" viewBox="0 0 24 24" fill="none" xmlns="http://www.w3.org/2000/svg">
<path fill-rule="evenodd" clip-rule="evenodd" d="M17.8578 5.01526C17.8578 3.90919 16.9601 3.01321 15.854 3.0132C14.19 3.01318 12.5002 3.0099 10.8172 3.00664C9.8364 3.00473 8.8579 3.00283 7.88815 3.00159C6.78355 3.00017 5.88818 3.89563 5.88818 5.00022V19.0001C5.88818 20.1047 6.78361 21.0001 7.88818 21.0001H15.8578C16.9623 21.0001 17.8578 20.1047 17.8578 19.0001V18.1933L16.135 16.9797H13.6584C12.0915 16.9797 10.8236 15.7093 10.8236 14.1443V9.86712C10.8236 8.29973 12.0948 7.03096 13.6604 7.03103C14.8748 7.03109 16.1083 7.0298 17.3374 7.0285L17.8578 7.02796V5.01526ZM10.1921 4.35585C9.84691 4.35385 9.56548 4.63205 9.56349 4.97723C9.56149 5.3224 9.83969 5.60383 10.1849 5.60582L13.5235 5.62511C13.8686 5.6271 14.1501 5.3489 14.1521 5.00373C14.1541 4.65855 13.8759 4.37712 13.5307 4.37513L10.1921 4.35585ZM11.8516 19.6714C12.4038 19.6714 12.8516 19.2236 12.8516 18.6714C12.8516 18.1191 12.4038 17.6714 11.8516 17.6714C11.2993 17.6714 10.8516 18.1191 10.8516 18.6714C10.8516 19.2236 11.2993 19.6714 11.8516 19.6714Z" fill="black"/>
<path fill-rule="evenodd" clip-rule="evenodd" d="M12.3236 9.86712C12.3236 9.12907 12.9223 8.531 13.6603 8.53104C14.8754 8.5311 16.1103 8.5298 17.3401 8.52851C18.0693 8.52774 18.7967 8.52697 19.5172 8.52649C20.2547 8.526 20.8525 9.12389 20.8525 9.86141V14.1443C20.8525 14.8818 20.2545 15.4797 19.517 15.4797H19.3865V16.6631C19.3865 16.9878 19.0206 17.1776 18.7552 16.9906L16.6103 15.4797H13.6584C12.9208 15.4797 12.3236 14.8818 12.3236 14.1443V9.86712ZM14.3121 12.7501C14.7263 12.7501 15.0621 12.4143 15.0621 12.0001C15.0621 11.5859 14.7263 11.2501 14.3121 11.2501C13.8979 11.2501 13.5621 11.5859 13.5621 12.0001C13.5621 12.4143 13.8979 12.7501 14.3121 12.7501ZM17.4835 12.0001C17.4835 12.4143 17.1477 12.7501 16.7335 12.7501C16.3193 12.7501 15.9835 12.4143 15.9835 12.0001C15.9835 11.5859 16.3193 11.2501 16.7335 11.2501C17.1477 11.2501 17.4835 11.5859 17.4835 12.0001ZM19.1544 12.7501C19.5686 12.7501 19.9044 12.4143 19.9044 12.0001C19.9044 11.5859 19.5686 11.2501 19.1544 11.2501C18.7402 11.2501 18.4044 11.5859 18.4044 12.0001C18.4044 12.4143 18.7402 12.7501 19.1544 12.7501Z" fill="black"/>
</svg>
