<svg width="24" height="24" viewBox="0 0 24 24" fill="none" xmlns="http://www.w3.org/2000/svg">
<path fill-rule="evenodd" clip-rule="evenodd" d="M11.6992 5.00297C11.7808 5.58145 12.1449 6.1235 12.79 6.37797L13.0283 6.4727L13.1221 6.71098C13.1613 6.81046 13.2087 6.90322 13.2607 6.9893C12.9964 7.64791 13.0905 8.43072 13.5439 9.00004H7.75098C7.33681 9.00004 7.00106 9.3359 7.00098 9.75004C7.00098 10.1643 7.33676 10.5 7.75098 10.5H15.6455L15.8906 11.1211C16.5566 12.8092 18.9455 12.8093 19.6113 11.1211L20 10.1358L20.001 15.5225C20.001 16.9032 18.8817 18.0225 17.501 18.0225H11.9355L7.92676 20.8457C7.42989 21.1957 6.74515 20.8402 6.74512 20.2325V18.0176H6.60938L6.50098 18.0225C5.20665 18.0225 4.14182 17.0389 4.01367 15.7784C4.00477 15.6927 4.00001 15.6057 4 15.5176V7.50492C4.00015 6.12472 5.11879 5.00546 6.49902 5.00492L11.6992 5.00297ZM7.75098 12.5C7.33681 12.5 7.00106 12.8359 7.00098 13.25C7.00098 13.6643 7.33676 14 7.75098 14H16.251C16.6652 14 17.001 13.6643 17.001 13.25C17.0009 12.8359 16.6651 12.5 16.251 12.5H7.75098Z" fill="black"/>
<path d="M17.2852 4.92973C17.4517 4.50794 18.0483 4.50794 18.2148 4.92973L18.8018 6.41703C18.8526 6.54557 18.9544 6.64751 19.083 6.69828L20.5703 7.2852C20.9924 7.45166 20.9924 8.0494 20.5703 8.21586L19.083 8.8018C18.9542 8.85264 18.8526 8.9552 18.8018 9.08403L18.2148 10.5713C18.0482 10.9927 17.4519 10.9926 17.2852 10.5713L16.6982 9.08403C16.6475 8.95534 16.5456 8.85269 16.417 8.8018L14.9297 8.21586C14.5076 8.0494 14.5076 7.45166 14.9297 7.2852L16.417 6.69828C16.5454 6.64743 16.6474 6.54551 16.6982 6.41703L17.2852 4.92973Z" fill="black"/>
<path d="M14.5176 3.33989C14.6009 3.12904 14.8992 3.12891 14.9824 3.33989L15.2754 4.08403C15.3008 4.14815 15.3518 4.19928 15.416 4.22465L16.1602 4.51762C16.3706 4.60102 16.3706 4.89905 16.1602 4.98246L15.416 5.27641C15.3517 5.30186 15.3008 5.35272 15.2754 5.41703L14.9824 6.1602C14.8992 6.37119 14.6009 6.3711 14.5176 6.1602L14.2236 5.41703C14.1983 5.35272 14.1473 5.30186 14.083 5.27641L13.3398 4.98246C13.1288 4.89923 13.1288 4.60085 13.3398 4.51762L14.083 4.22465C14.1472 4.19928 14.1982 4.14815 14.2236 4.08403L14.5176 3.33989Z" fill="black"/>
</svg>
