<svg width="24" height="24" viewBox="0 0 24 24" fill="none" xmlns="http://www.w3.org/2000/svg">
<path fill-rule="evenodd" clip-rule="evenodd" d="M15 6.55409C15 5.51568 14.1577 4.67422 13.1193 4.67427C11.4096 4.67435 9.67186 4.67255 7.94132 4.67076C6.91553 4.66969 5.89227 4.66863 4.87885 4.66797C3.84118 4.66729 3 5.50849 3 6.54616V12.4342C3 13.4718 3.84139 14.313 4.87905 14.313H5.0627V15.8736C5.0627 16.3426 5.60208 16.6065 5.97234 16.3186L8.55173 14.313H13.1217C14.1594 14.313 15 13.4718 15 12.4342V6.55409ZM11.3085 10.2735C11.7984 9.99067 11.7984 9.2836 11.3085 9.00077L8.39689 7.31976C7.90702 7.03693 7.29468 7.39047 7.29468 7.95612V11.3182C7.29468 11.8838 7.90702 12.2373 8.3969 11.9545L11.3085 10.2735Z" fill="black"/>
<path d="M9.06627 15.813L9 15.8646V16.4342C9 17.4719 9.84039 18.313 10.878 18.313H15.3884L18.0313 20.3334C18.4022 20.6169 18.9373 20.3524 18.9373 19.8856V18.313H19.1209C20.1586 18.313 21 17.4719 21 16.4342V10.5462C21 9.50851 20.1588 8.66731 19.1211 8.66799C18.2531 8.66856 17.3779 8.66942 16.5 8.67032V12.4342C16.5 14.2997 14.9885 15.813 13.1217 15.813H9.06627Z" fill="black"/>
</svg>
