<svg width="24" height="24" viewBox="0 0 24 24" fill="none" xmlns="http://www.w3.org/2000/svg">
<path d="M8.9001 15.0751L8.9501 15.0251H13.0001C14.8501 15.0251 16.4001 13.5251 16.4001 11.6251V7.87512H19.0001C20.0501 7.87512 20.9001 8.72512 20.9001 9.77512V15.6751C20.9001 16.7251 20.0501 17.5751 19.0001 17.5751H18.8001V19.1251C18.8001 19.5751 18.2501 19.8751 17.9001 19.5751L15.2501 17.5751H10.7501C9.7001 17.5751 8.8501 16.7251 8.8501 15.6751V15.0751H8.9001Z" fill="black"/>
<path d="M13.0499 3.87512C10.3499 3.87512 7.5499 3.87512 4.7999 3.87512C3.7499 3.87512 2.8999 4.72512 2.8999 5.77512V11.6751C2.8999 12.7251 3.7499 13.5751 4.7999 13.5751H4.9999V15.1251C4.9999 15.5751 5.5499 15.8751 5.8999 15.5751L8.4999 13.5751H13.0499C14.0999 13.5751 14.9499 12.7251 14.9499 11.6751V5.77512C14.8999 4.72512 14.0499 3.87512 13.0499 3.87512ZM5.6499 9.87512C5.0999 9.87512 4.6499 9.42512 4.6499 8.87512C4.6499 8.32512 5.0999 7.87512 5.6499 7.87512C6.1999 7.87512 6.6499 8.32512 6.6499 8.87512C6.6499 9.42512 6.1999 9.87512 5.6499 9.87512ZM8.8999 9.87512C8.3499 9.87512 7.8999 9.42512 7.8999 8.87512C7.8999 8.32512 8.3499 7.87512 8.8999 7.87512C9.4499 7.87512 9.8999 8.32512 9.8999 8.87512C9.8999 9.42512 9.4499 9.87512 8.8999 9.87512ZM12.1499 9.87512C11.5999 9.87512 11.1499 9.42512 11.1499 8.87512C11.1499 8.32512 11.5999 7.87512 12.1499 7.87512C12.6999 7.87512 13.1499 8.32512 13.1499 8.87512C13.1499 9.42512 12.6999 9.87512 12.1499 9.87512Z" fill="black"/>
</svg>
