<svg width="24" height="24" viewBox="0 0 24 24" fill="none" xmlns="http://www.w3.org/2000/svg">
<path d="M14.85 15.025H10.8C9.69995 15.025 8.69995 14.475 8.09995 13.675C7.99995 13.725 7.94995 13.725 7.84995 13.725C7.44995 13.725 7.09995 13.375 7.09995 12.975C7.09995 12.675 7.24995 12.425 7.49995 12.325C7.44995 12.125 7.44995 11.875 7.44995 11.675V7.92505C6.54995 7.92505 5.69995 7.92505 4.84995 7.92505C3.79995 7.92505 2.94995 8.77505 2.94995 9.82505V15.725C2.94995 16.775 3.79995 17.625 4.84995 17.625H5.04995V19.175C5.04995 19.625 5.59995 19.925 5.94995 19.625L8.59995 17.625H13.1C14.15 17.625 15 16.775 15 15.725V15.175L14.85 15.025ZM5.39995 13.725C4.99995 13.725 4.64995 13.375 4.64995 12.975C4.64995 12.575 4.99995 12.225 5.39995 12.225C5.79995 12.225 6.14995 12.575 6.14995 12.975C6.14995 13.375 5.79995 13.725 5.39995 13.725Z" fill="black"/>
<path fill-rule="evenodd" clip-rule="evenodd" d="M8.8999 11.675C8.8999 12.725 9.7499 13.575 10.7999 13.575H15.3499L17.9499 15.575C18.2999 15.875 18.8499 15.575 18.8499 15.125V13.525H19.0499C20.0999 13.525 20.9499 12.675 20.9499 11.625V5.775C20.9499 4.725 20.0999 3.875 19.0499 3.875C18.0499 3.875 16.9999 3.875 15.9999 3.875C14.2499 3.875 12.5499 3.875 10.7999 3.875C9.7499 3.875 8.8999 4.725 8.8999 5.775V11.675ZM16.7499 9.475C17.2499 9.175 17.2499 8.475 16.7499 8.225L13.7999 6.525C13.2999 6.225 12.6999 6.575 12.6999 7.175V10.525C12.6999 11.075 13.2999 11.425 13.7999 11.175L16.7499 9.475Z" fill="black"/>
</svg>
