<svg width="24" height="24" viewBox="0 0 24 24" fill="none" xmlns="http://www.w3.org/2000/svg">
<path d="M12.7037 7.72068C12.1579 8.26648 11.8513 9.00675 11.8513 9.77863L11.8513 9.78059L11.8513 9.78262L11.8513 9.78689L11.8514 9.7963L11.8518 9.81847C11.8521 9.83471 11.8527 9.85391 11.8537 9.87587C11.8556 9.91973 11.859 9.97491 11.8651 10.0398C11.8772 10.1692 11.9002 10.3404 11.9438 10.5399C12.0302 10.9349 12.2041 11.4696 12.56 12.012C13.3306 13.1862 14.7553 14.0994 17.0536 14.0994C18.1847 14.0994 19.1043 13.8782 19.8384 13.5135V15.5509C19.8384 16.9316 18.7202 18.0509 17.3395 18.0509H11.8132L7.79766 20.8796C7.30078 21.2296 6.61573 20.8742 6.61573 20.2664V18.0509H6.37137C4.99066 18.0509 3.87109 16.9316 3.87109 15.5509V7.53276C3.87109 6.15202 4.99038 5.03271 6.37111 5.03363C7.71952 5.03453 9.08104 5.03596 10.4459 5.0374C11.3888 5.03839 12.3333 5.03938 13.2762 5.0402C13.2666 5.14985 13.2617 5.26028 13.2617 5.37121C13.2617 5.97081 13.4037 6.55577 13.6691 7.08112C13.3111 7.22611 12.9821 7.44228 12.7037 7.72068Z" fill="black"/>
<path d="M17.0536 7.66307C17.6614 7.66307 18.2443 7.4216 18.6741 6.9918C19.1039 6.56199 19.3454 5.97905 19.3454 5.37121C19.3454 4.76337 19.1039 4.18042 18.6741 3.75062C18.2443 3.32081 17.6614 3.07935 17.0536 3.07935C16.4457 3.07935 15.8628 3.32081 15.433 3.75062C15.0032 4.18042 14.7617 4.76337 14.7617 5.37121C14.7617 5.97905 15.0032 6.56199 15.433 6.9918C15.8628 7.4216 16.4457 7.66307 17.0536 7.66307ZM13.3513 9.77863C13.3513 9.40457 13.4999 9.04584 13.7644 8.78134C14.0289 8.51685 14.3876 8.36825 14.7617 8.36825H19.3454C19.7195 8.36825 20.0782 8.51685 20.3427 8.78134C20.6072 9.04584 20.7558 9.40457 20.7558 9.77863C20.7558 9.77863 20.7558 12.5994 17.0536 12.5994C13.3513 12.5994 13.3513 9.77863 13.3513 9.77863Z" fill="black"/>
</svg>
