<svg width="24" height="24" viewBox="0 0 24 24" fill="none" xmlns="http://www.w3.org/2000/svg">
<path fill-rule="evenodd" clip-rule="evenodd" d="M8.8999 11.6751C8.8999 12.7251 9.7499 13.5751 10.7999 13.5751H15.3499L17.9499 15.5751C18.2999 15.8751 18.8499 15.5751 18.8499 15.1251V13.5251H19.0499C20.0999 13.5251 20.9499 12.6751 20.9499 11.6251V5.77512C20.9499 4.72512 20.0999 3.87512 19.0499 3.87512C18.0499 3.87512 16.9999 3.87512 15.9999 3.87512C14.2499 3.87512 12.5499 3.87512 10.7999 3.87512C9.7499 3.87512 8.8999 4.72512 8.8999 5.77512V11.6751ZM18.5999 6.97512C18.5999 7.52512 18.1499 7.97512 17.5999 7.97512C17.0499 7.97512 16.5999 7.52512 16.5999 6.97512C16.5999 6.42512 17.0499 5.97512 17.5999 5.97512C18.1499 6.02512 18.5999 6.42512 18.5999 6.97512ZM13.2999 7.67512C13.4999 7.67512 13.6999 7.77512 13.7999 7.97512L14.6499 9.27512L15.4499 8.57512C15.6999 8.37512 16.0999 8.37512 16.2999 8.62512L18.0499 10.4751C18.2999 10.7251 18.2999 11.1251 18.0499 11.3751C17.7999 11.6251 17.3999 11.6251 17.1499 11.3751L15.7999 9.97512L14.8999 10.7751C14.7499 10.8751 14.5999 10.9751 14.3999 10.9251C14.1999 10.9251 14.0499 10.8251 13.9499 10.6751L13.1999 9.52512L11.9999 11.3251C11.7999 11.6251 11.3999 11.6751 11.1499 11.4751C10.8499 11.2751 10.7999 10.8751 10.9999 10.6251L12.7499 8.02512C12.8499 7.77512 13.0499 7.67512 13.2999 7.67512Z" fill="black"/>
<path d="M14.85 15.0252H10.8C9.69995 15.0252 8.69995 14.4752 8.09995 13.6752C7.99995 13.7252 7.94995 13.7252 7.84995 13.7252C7.44995 13.7252 7.09995 13.3752 7.09995 12.9752C7.09995 12.6752 7.24995 12.4252 7.49995 12.3252C7.44995 12.1252 7.44995 11.8752 7.44995 11.6752V7.92517C6.54995 7.92517 5.69995 7.92517 4.84995 7.92517C3.79995 7.92517 2.94995 8.77517 2.94995 9.82517V15.7252C2.94995 16.7752 3.79995 17.6252 4.84995 17.6252H5.04995V19.1752C5.04995 19.6252 5.59995 19.9252 5.94995 19.6252L8.59995 17.6252H13.1C14.15 17.6252 15 16.7752 15 15.7252V15.1752L14.85 15.0252ZM5.39995 13.7252C4.99995 13.7252 4.64995 13.3752 4.64995 12.9752C4.64995 12.5752 4.99995 12.2252 5.39995 12.2252C5.79995 12.2252 6.14995 12.5752 6.14995 12.9752C6.14995 13.3752 5.79995 13.7252 5.39995 13.7252Z" fill="black"/>
</svg>
