<svg width="24" height="24" viewBox="0 0 24 24" fill="none" xmlns="http://www.w3.org/2000/svg">
<path fill-rule="evenodd" clip-rule="evenodd" d="M19.9836 7.55084C19.9836 6.16911 18.8628 5.04946 17.4811 5.04952C15.2061 5.04963 12.8939 5.0472 10.5912 5.04478C9.2263 5.04335 7.86478 5.04191 6.51637 5.04102C5.13564 5.0401 4.01636 6.15941 4.01636 7.54014V15.5582C4.01636 16.939 5.13592 18.0582 6.51663 18.0582H6.761V20.2738C6.761 20.8816 7.44605 21.237 7.94292 20.887L11.9584 18.0582H17.4848C18.8655 18.0582 19.9836 16.939 19.9836 15.5582V7.55084ZM7.98462 9.07574C7.57041 9.07574 7.23462 9.41153 7.23462 9.82574C7.23462 10.24 7.57041 10.5757 7.98462 10.5757H15.9846C16.3988 10.5757 16.7346 10.24 16.7346 9.82574C16.7346 9.41153 16.3988 9.07574 15.9846 9.07574H7.98462ZM7.98462 12.6216C7.57041 12.6216 7.23462 12.9574 7.23462 13.3716C7.23462 13.7858 7.57041 14.1216 7.98462 14.1216H15.9846C16.3988 14.1216 16.7346 13.7858 16.7346 13.3716C16.7346 12.9574 16.3988 12.6216 15.9846 12.6216H7.98462Z" fill="black"/>
</svg>
