<svg width="24" height="24" viewBox="0 0 24 24" fill="none" xmlns="http://www.w3.org/2000/svg">
<path fill-rule="evenodd" clip-rule="evenodd" d="M19.9836 7.54303C19.9836 6.1613 18.8628 5.04165 17.4811 5.04171C15.2061 5.04182 12.8939 5.03939 10.5912 5.03697C9.2263 5.03553 7.86478 5.0341 6.51637 5.0332C5.13564 5.03229 4.01636 6.1516 4.01636 7.53233V15.5504C4.01636 16.9311 5.13592 18.0504 6.51663 18.0504H6.761V20.266C6.761 20.8738 7.44605 21.2292 7.94292 20.8792L11.9584 18.0504H17.4848C18.8655 18.0504 19.9836 16.9311 19.9836 15.5504V7.54303ZM14.912 12.5323C15.5786 12.1474 15.5786 11.1852 14.912 10.8003L10.9496 8.5126C10.2829 8.1277 9.44958 8.60883 9.44958 9.37863V13.954C9.44958 14.7238 10.2829 15.2049 10.9496 14.82L14.912 12.5323Z" fill="black"/>
</svg>
