<svg width="24" height="24" viewBox="0 0 24 24" fill="none" xmlns="http://www.w3.org/2000/svg">
<path fill-rule="evenodd" clip-rule="evenodd" d="M15 6.55214C15 5.51373 14.1577 4.67227 13.1193 4.67232C11.4096 4.6724 9.67186 4.6706 7.94132 4.66881C6.91553 4.66774 5.89227 4.66668 4.87885 4.66602C3.84118 4.66534 3 5.50654 3 6.54421V12.4322C3 13.4699 3.84139 14.3111 4.87905 14.3111H5.0627V15.8717C5.0627 16.3407 5.60208 16.6045 5.97234 16.3166L8.55173 14.3111H13.1217C14.1594 14.3111 15 13.4699 15 12.4322V6.55214ZM8.99691 6.81427C9.41112 6.81394 9.74731 7.14946 9.7478 7.56367L9.75254 11.5148C9.75303 11.929 9.41765 12.265 9.00344 12.2654C8.58922 12.2657 8.25303 11.9302 8.25254 11.516L8.2478 7.56487C8.24731 7.15065 8.58269 6.8146 8.99691 6.81427ZM5.99466 7.73444C6.40887 7.73426 6.74541 8.0699 6.74634 8.48412L6.75107 10.5949C6.752 11.0091 6.41697 11.345 6.00276 11.3452C5.58854 11.3454 5.252 11.0097 5.25107 10.5955L5.24634 8.48476C5.24541 8.07054 5.58044 7.73461 5.99466 7.73444ZM12.7454 8.48412C12.7444 8.0699 12.4079 7.73426 11.9937 7.73444C11.5795 7.73461 11.2444 8.07054 11.2454 8.48476L11.2501 10.5955C11.251 11.0097 11.5876 11.3454 12.0018 11.3452C12.416 11.345 12.751 11.0091 12.7501 10.5949L12.7454 8.48412Z" fill="black"/>
<path d="M9.06627 15.8111L9 15.8626V16.4322C9 17.4699 9.84039 18.3111 10.878 18.3111H15.3884L18.0313 20.3314C18.4022 20.6149 18.9373 20.3505 18.9373 19.8836V18.3111H19.1209C20.1586 18.3111 21 17.4699 21 16.4322V10.5442C21 9.50656 20.1588 8.66535 19.1211 8.66603C18.2531 8.6666 17.3779 8.66746 16.5 8.66837V12.4323C16.5 14.2977 14.9885 15.8111 13.1217 15.8111H9.06627Z" fill="black"/>
</svg>
