<svg width="24" height="24" viewBox="0 0 24 24" fill="none" xmlns="http://www.w3.org/2000/svg">
<path d="M18.4 4.87891H5.6C4.72 4.87891 4 5.59891 4 6.47891V20.8789L7.2 17.6789H18.4C19.28 17.6789 20 16.9589 20 16.0789V6.47891C20 5.59891 19.28 4.87891 18.4 4.87891ZM17.6 16.0789H7.2L5.6 17.6789V7.27891C5.6 6.83891 5.96 6.47891 6.4 6.47891H17.6C18.04 6.47891 18.4 6.83891 18.4 7.27891V15.2789C18.4 15.7189 18.04 16.0789 17.6 16.0789Z" fill="black"/>
<path fill-rule="evenodd" clip-rule="evenodd" d="M8.43543 10.5668C8.82871 10.3654 9.31075 10.521 9.51211 10.9143C9.80256 11.4815 10.148 11.8611 10.5347 12.1028C10.9198 12.3435 11.3961 12.4789 12 12.4789C12.604 12.4789 13.0802 12.3435 13.4654 12.1028C13.852 11.8611 14.1975 11.4815 14.4879 10.9143C14.6893 10.521 15.1714 10.3654 15.5646 10.5668C15.9579 10.7681 16.1134 11.2502 15.9121 11.6435C15.5167 12.4157 14.9909 13.0361 14.3134 13.4596C13.6343 13.884 12.8534 14.0789 12 14.0789C11.1466 14.0789 10.3658 13.884 9.6867 13.4596C9.00916 13.0361 8.4833 12.4157 8.08793 11.6435C7.88658 11.2502 8.04215 10.7681 8.43543 10.5668Z" fill="black"/>
</svg>
