<svg width="24" height="24" viewBox="0 0 24 24" fill="none" xmlns="http://www.w3.org/2000/svg">
<path fill-rule="evenodd" clip-rule="evenodd" d="M20 7.54303C20 6.1613 18.8791 5.04165 17.4974 5.04171C15.2225 5.04182 12.9102 5.03939 10.6075 5.03697C9.24266 5.03553 7.88114 5.0341 6.53273 5.0332C5.152 5.03229 4.03271 6.1516 4.03271 7.53233V15.5504C4.03271 16.9311 5.15228 18.0504 6.53299 18.0504H6.77735V20.266C6.77735 20.8738 7.4624 21.2292 7.95928 20.8792L11.9748 18.0504H17.5011C18.8819 18.0504 20 16.9311 20 15.5504V7.54303ZM13.4299 11.5968C13.4299 12.3876 12.7888 13.0286 11.9981 13.0286C11.2073 13.0286 10.5662 12.3876 10.5662 11.5968C10.5662 10.806 11.2073 10.165 11.9981 10.165C12.7888 10.165 13.4299 10.806 13.4299 11.5968ZM8.85813 11.5968C8.85813 12.3876 8.21709 13.0286 7.42632 13.0286C6.63555 13.0286 5.99451 12.3876 5.99451 11.5968C5.99451 10.806 6.63555 10.165 7.42632 10.165C8.21709 10.165 8.85813 10.806 8.85813 11.5968ZM16.5691 13.0286C17.3599 13.0286 18.001 12.3876 18.001 11.5968C18.001 10.806 17.3599 10.165 16.5691 10.165C15.7784 10.165 15.1373 10.806 15.1373 11.5968C15.1373 12.3876 15.7784 13.0286 16.5691 13.0286Z" fill="black"/>
</svg>
