<svg width="24" height="24" viewBox="0 0 24 24" fill="none" xmlns="http://www.w3.org/2000/svg">
<path fill-rule="evenodd" clip-rule="evenodd" d="M20 7.54352C20 6.16179 18.8791 5.04213 17.4974 5.0422C15.2225 5.04231 12.9102 5.03988 10.6075 5.03746C9.24266 5.03602 7.88114 5.03459 6.53273 5.03369C5.152 5.03277 4.03271 6.15208 4.03271 7.53281V15.5509C4.03271 16.9316 5.15228 18.0509 6.53299 18.0509H6.77735V20.2665C6.77735 20.8743 7.4624 21.2297 7.95928 20.8796L11.9748 18.0509H17.5011C18.8819 18.0509 20 16.9316 20 15.5509V7.54352ZM12.8915 8.50159C12.8915 8.01834 12.4997 7.62659 12.0165 7.62659C11.5332 7.62659 11.1415 8.01834 11.1415 8.50159V10.5862H9.05676C8.57351 10.5862 8.18176 10.978 8.18176 11.4612C8.18176 11.9445 8.57351 12.3362 9.05676 12.3362H11.1415V14.4208C11.1415 14.9041 11.5332 15.2958 12.0165 15.2958C12.4997 15.2958 12.8915 14.9041 12.8915 14.4208V12.3362H14.976C15.4593 12.3362 15.851 11.9445 15.851 11.4612C15.851 10.978 15.4593 10.5862 14.976 10.5862H12.8915V8.50159Z" fill="black"/>
</svg>
