<svg width="24" height="24" viewBox="0 0 24 24" fill="none" xmlns="http://www.w3.org/2000/svg">
<path fill-rule="evenodd" clip-rule="evenodd" d="M13.4662 6.69344C13.3781 8.78956 14.9943 10.5476 17.0904 10.6357C19.1375 10.6706 20.8934 9.10551 21.0327 7.01154C21.1208 4.91541 19.5046 3.15736 17.4085 3.06923C15.3124 2.98111 13.5543 4.59731 13.4662 6.69344ZM15.8013 6.48036C15.5572 6.23628 15.1615 6.23628 14.9174 6.48036C14.6733 6.72444 14.6733 7.12017 14.9174 7.36424L16.2468 8.69366C16.4909 8.93773 16.8866 8.93773 17.1307 8.69366L19.3309 6.49348C19.575 6.2494 19.575 5.85368 19.3309 5.6096C19.0868 5.36552 18.6911 5.36552 18.447 5.6096L16.6888 7.36783L15.8013 6.48036Z" fill="black"/>
<path d="M17.2494 12.1052C18.2569 12.1052 19.1985 11.8225 19.999 11.3321V15.5509C19.999 16.9316 18.8809 18.0509 17.5002 18.0509H11.9738L7.9583 20.8796C7.46143 21.2296 6.77638 20.8742 6.77638 20.2665V18.0509H6.53201C5.1513 18.0509 4.03174 16.9316 4.03174 15.5509V7.53276C4.03174 6.15203 5.15102 5.03272 6.53175 5.03364C7.88016 5.03454 9.24168 5.03597 10.6066 5.03741L12.2918 5.03914C12.0889 5.59937 11.9783 6.20379 11.9783 6.83405C11.9783 9.7452 14.3382 12.1052 17.2494 12.1052Z" fill="black"/>
</svg>
