<svg width="24" height="24" viewBox="0 0 24 24" fill="none" xmlns="http://www.w3.org/2000/svg">
<path fill-rule="evenodd" clip-rule="evenodd" d="M9.5 5.26422L4.99926 5.26589C3.89498 5.2663 3 6.16161 3 7.26589V15.7607C3 16.8653 3.89543 17.7607 5 17.7607H6V20.2384C6 20.6544 6.47854 20.8885 6.80697 20.633L10.5 17.7607H17C18.1046 17.7607 19 16.8653 19 15.7607V9.76069H15.9573C15.985 9.83889 16 9.92303 16 10.0107C16 10.4249 15.6642 10.7607 15.25 10.7607H6.75C6.33579 10.7607 6 10.4249 6 10.0107C6 9.59648 6.33579 9.26069 6.75 9.26069H11.1962C10.1798 8.64824 9.5 7.53386 9.5 6.26069V5.26422ZM6 13.5107C6 13.0965 6.33579 12.7607 6.75 12.7607H15.25C15.6642 12.7607 16 13.0965 16 13.5107C16 13.9249 15.6642 14.2607 15.25 14.2607H6.75C6.33579 14.2607 6 13.9249 6 13.5107Z" fill="black"/>
<path fill-rule="evenodd" clip-rule="evenodd" d="M13 3.26068C11.8954 3.26068 11 4.15611 11 5.26068V6.26068C11 7.36525 11.8954 8.26068 13 8.26068H19C20.1046 8.26068 21 7.36525 21 6.26068V5.26068C21 4.15611 20.1046 3.26068 19 3.26068H13ZM13.5 6.76068C14.0523 6.76068 14.5 6.31297 14.5 5.76068C14.5 5.2084 14.0523 4.76068 13.5 4.76068C12.9477 4.76068 12.5 5.2084 12.5 5.76068C12.5 6.31297 12.9477 6.76068 13.5 6.76068Z" fill="black"/>
</svg>
