<svg width="24" height="24" viewBox="0 0 24 24" fill="none" xmlns="http://www.w3.org/2000/svg">
<path d="M19.999 8.1014L17.1639 10.9462C16.9257 11.1853 16.6307 11.3602 16.3066 11.4546L14.642 11.9394C13.1523 12.3733 11.7574 11.0194 12.1466 9.51749L12.5916 7.80052C12.6808 7.45639 12.8601 7.14225 13.111 6.89045L14.9478 5.0474C13.5047 5.04651 12.0537 5.04498 10.6066 5.04346C9.24168 5.04202 7.88016 5.04059 6.53175 5.0397C5.15102 5.03878 4.03174 6.15809 4.03174 7.53882V15.5569C4.03174 16.9376 5.1513 18.0569 6.53201 18.0569H6.77638V20.2725C6.77638 20.8803 7.46143 21.2357 7.9583 20.8856L11.9738 18.0569H17.5002C18.8809 18.0569 19.999 16.9376 19.999 15.5569V8.1014Z" fill="black"/>
<path d="M14.1734 7.94927C14.1107 8.01222 14.0659 8.09076 14.0436 8.17679L13.5986 9.89375C13.5013 10.2692 13.85 10.6077 14.2224 10.4992L15.8871 10.0144C15.9681 9.99079 16.0419 9.94706 16.1014 9.88728L19.2684 6.70944L17.3354 4.77643L14.1734 7.94927ZM20.7097 5.25231C21.1003 4.86178 21.1003 4.22867 20.7098 3.83815C20.5411 3.66946 20.3607 3.48906 20.1909 3.31924C19.8003 2.92869 19.1672 2.92876 18.7767 3.31933L18.1771 3.91891L20.1101 5.85191L20.7097 5.25231Z" fill="black"/>
</svg>
