<svg width="24" height="24" viewBox="0 0 24 24" fill="none" xmlns="http://www.w3.org/2000/svg">
<path fill-rule="evenodd" clip-rule="evenodd" d="M20 7.54352C20 6.16179 18.8791 5.04213 17.4974 5.0422C15.2225 5.04231 12.9102 5.03988 10.6075 5.03746C9.24266 5.03602 7.88114 5.03459 6.53273 5.03369C5.152 5.03277 4.03271 6.15208 4.03271 7.53281V15.5509C4.03271 16.9316 5.15228 18.0509 6.53299 18.0509H6.77735V20.2665C6.77735 20.8743 7.4624 21.2297 7.95928 20.8796L11.9748 18.0509H17.5011C18.8819 18.0509 20 16.9316 20 15.5509V7.54352ZM16.3659 10.3566C17.1197 10.3566 17.7309 9.74552 17.7309 8.99168C17.7309 8.23783 17.1197 7.62671 16.3659 7.62671C15.612 7.62671 15.0009 8.23783 15.0009 8.99168C15.0009 9.74552 15.612 10.3566 16.3659 10.3566ZM11.0254 10.3891C10.8871 10.1803 10.6538 10.0543 10.4034 10.0532C10.153 10.0521 9.91862 10.176 9.77851 10.3835L7.37934 13.937C7.14756 14.2802 7.23796 14.7464 7.58125 14.9782C7.92454 15.21 8.39073 15.1196 8.62252 14.7763L10.3941 12.1524L11.5187 13.8501C11.6386 14.0312 11.8312 14.1514 12.0466 14.1796C12.262 14.2078 12.479 14.1413 12.6415 13.9971L13.9394 12.8463L15.8552 14.872C16.1398 15.1729 16.6145 15.1862 16.9154 14.9015C17.2164 14.6169 17.2296 14.1422 16.945 13.8413L14.5302 11.2879C14.252 10.9937 13.7906 10.9735 13.4876 11.2421L12.2924 12.3019L11.0254 10.3891Z" fill="black"/>
</svg>
