<svg width="24" height="24" viewBox="0 0 24 24" fill="none" xmlns="http://www.w3.org/2000/svg">
<path d="M12.7037 7.72141C12.1579 8.26721 11.8513 9.00748 11.8513 9.77936L11.8513 9.78132L11.8513 9.78335L11.8513 9.78762L11.8514 9.79703L11.8518 9.8192C11.8521 9.83545 11.8527 9.85464 11.8537 9.8766C11.8556 9.92046 11.859 9.97564 11.8651 10.0406C11.8772 10.1699 11.9002 10.3411 11.9438 10.5406C12.0302 10.9356 12.2041 11.4704 12.56 12.0127C13.3306 13.1869 14.7553 14.1001 17.0536 14.1001C18.1847 14.1001 19.1043 13.8789 19.8384 13.5142V15.5516C19.8384 16.9323 18.7202 18.0516 17.3395 18.0516H11.8132L7.79766 20.8803C7.30078 21.2303 6.61573 20.875 6.61573 20.2672V18.0516H6.37137C4.99066 18.0516 3.87109 16.9323 3.87109 15.5516V7.53349C3.87109 6.15276 4.99038 5.03345 6.37111 5.03436C7.71952 5.03526 9.08104 5.03669 10.4459 5.03813C11.3888 5.03912 12.3333 5.04011 13.2762 5.04093C13.2666 5.15058 13.2617 5.26101 13.2617 5.37194C13.2617 5.97154 13.4037 6.5565 13.6691 7.08185C13.3111 7.22684 12.9821 7.44301 12.7037 7.72141Z" fill="black"/>
<path d="M17.0536 7.6638C17.6614 7.6638 18.2443 7.42233 18.6741 6.99253C19.1039 6.56272 19.3454 5.97978 19.3454 5.37194C19.3454 4.7641 19.1039 4.18115 18.6741 3.75135C18.2443 3.32154 17.6614 3.08008 17.0536 3.08008C16.4457 3.08008 15.8628 3.32154 15.433 3.75135C15.0032 4.18115 14.7617 4.7641 14.7617 5.37194C14.7617 5.97978 15.0032 6.56272 15.433 6.99253C15.8628 7.42233 16.4457 7.6638 17.0536 7.6638ZM13.3513 9.77936C13.3513 9.4053 13.4999 9.04657 13.7644 8.78207C14.0289 8.51758 14.3876 8.36898 14.7617 8.36898H19.3454C19.7195 8.36898 20.0782 8.51758 20.3427 8.78207C20.6072 9.04657 20.7558 9.4053 20.7558 9.77936C20.7558 9.77936 20.7558 12.6001 17.0536 12.6001C13.3513 12.6001 13.3513 9.77936 13.3513 9.77936Z" fill="black"/>
</svg>
