<svg width="24" height="24" viewBox="0 0 24 24" fill="none" xmlns="http://www.w3.org/2000/svg">
<path d="M18.4 4.87927H5.6C4.72 4.87927 4 5.59927 4 6.47927V20.8793L7.2 17.6793H18.4C19.28 17.6793 20 16.9593 20 16.0793V6.47927C20 5.59927 19.28 4.87927 18.4 4.87927ZM17.6 16.0793H7.2L5.6 17.6793V7.27927C5.6 6.83927 5.96 6.47927 6.4 6.47927H17.6C18.04 6.47927 18.4 6.83927 18.4 7.27927V15.2793C18.4 15.7193 18.04 16.0793 17.6 16.0793Z" fill="black"/>
<path fill-rule="evenodd" clip-rule="evenodd" d="M8.43543 10.5672C8.82871 10.3658 9.31075 10.5214 9.51211 10.9147C9.80256 11.4819 10.148 11.8615 10.5347 12.1032C10.9198 12.3438 11.3961 12.4793 12 12.4793C12.604 12.4793 13.0802 12.3438 13.4654 12.1032C13.852 11.8615 14.1975 11.4819 14.4879 10.9147C14.6893 10.5214 15.1714 10.3658 15.5646 10.5672C15.9579 10.7685 16.1134 11.2506 15.9121 11.6438C15.5167 12.4161 14.9909 13.0365 14.3134 13.46C13.6343 13.8844 12.8534 14.0793 12 14.0793C11.1466 14.0793 10.3658 13.8844 9.6867 13.46C9.00916 13.0365 8.4833 12.4161 8.08793 11.6438C7.88658 11.2506 8.04215 10.7685 8.43543 10.5672Z" fill="black"/>
</svg>
