<svg width="24" height="24" viewBox="0 0 24 24" fill="none" xmlns="http://www.w3.org/2000/svg">
<path fill-rule="evenodd" clip-rule="evenodd" d="M13.4662 6.69344C13.3781 8.78956 14.9943 10.5476 17.0904 10.6357C19.1375 10.6706 20.8934 9.10551 21.0327 7.01154C21.1208 4.91541 19.5046 3.15736 17.4085 3.06923C15.3124 2.98111 13.5543 4.59731 13.4662 6.69344ZM16.6245 8.36879C16.6245 8.71397 16.9044 8.99379 17.2495 8.99379C17.5947 8.99379 17.8745 8.71397 17.8745 8.36879V7.37506H18.8681C19.2133 7.37506 19.4931 7.09524 19.4931 6.75006C19.4931 6.40488 19.2133 6.12506 18.8681 6.12506H17.8745V5.13129C17.8745 4.78611 17.5947 4.50629 17.2495 4.50629C16.9044 4.50629 16.6245 4.78611 16.6245 5.13129V6.12506H15.6306C15.2854 6.12506 15.0056 6.40488 15.0056 6.75006C15.0056 7.09524 15.2854 7.37506 15.6306 7.37506H16.6245V8.36879Z" fill="black"/>
<path d="M17.2494 12.1052C18.2569 12.1052 19.1985 11.8225 19.999 11.3321V15.5509C19.999 16.9316 18.8809 18.0509 17.5002 18.0509H11.9738L7.9583 20.8796C7.46143 21.2296 6.77638 20.8742 6.77638 20.2665V18.0509H6.53201C5.1513 18.0509 4.03174 16.9316 4.03174 15.5509V7.53276C4.03174 6.15203 5.15102 5.03272 6.53175 5.03364C7.88016 5.03454 9.24168 5.03597 10.6066 5.03741L12.2918 5.03914C12.0889 5.59937 11.9783 6.20379 11.9783 6.83405C11.9783 9.7452 14.3382 12.1052 17.2494 12.1052Z" fill="black"/>
</svg>
