<svg width="24" height="24" viewBox="0 0 24 24" fill="none" xmlns="http://www.w3.org/2000/svg">
<path fill-rule="evenodd" clip-rule="evenodd" d="M20 7.54303C20 6.1613 18.8791 5.04165 17.4974 5.04171C15.2225 5.04182 12.9102 5.03939 10.6075 5.03697C9.24266 5.03553 7.88114 5.0341 6.53273 5.0332C5.152 5.03229 4.03271 6.1516 4.03271 7.53233V15.5504C4.03271 16.9311 5.15228 18.0504 6.53299 18.0504H6.77735V20.266C6.77735 20.8738 7.4624 21.2292 7.95928 20.8792L11.9748 18.0504H17.5011C18.8819 18.0504 20 16.9311 20 15.5504V7.54303ZM12.8915 8.5011C12.8915 8.01785 12.4997 7.6261 12.0165 7.6261C11.5332 7.6261 11.1415 8.01785 11.1415 8.5011V10.5857H9.05676C8.57351 10.5857 8.18176 10.9775 8.18176 11.4607C8.18176 11.944 8.57351 12.3357 9.05676 12.3357H11.1415V14.4204C11.1415 14.9036 11.5332 15.2954 12.0165 15.2954C12.4997 15.2954 12.8915 14.9036 12.8915 14.4204V12.3357H14.976C15.4593 12.3357 15.851 11.944 15.851 11.4607C15.851 10.9775 15.4593 10.5857 14.976 10.5857H12.8915V8.5011Z" fill="black"/>
</svg>
