<svg width="24" height="24" viewBox="0 0 24 24" fill="none" xmlns="http://www.w3.org/2000/svg">
<path fill-rule="evenodd" clip-rule="evenodd" d="M15 6.55336C15 5.51495 14.1577 4.67349 13.1193 4.67354C11.4096 4.67362 9.67186 4.67182 7.94132 4.67003C6.91553 4.66896 5.89227 4.6679 4.87885 4.66724C3.84118 4.66656 3 5.50776 3 6.54543V12.4335C3 13.4711 3.84139 14.3123 4.87905 14.3123H5.0627V15.8729C5.0627 16.3419 5.60208 16.6058 5.97234 16.3179L8.55173 14.3123H13.1217C14.1594 14.3123 15 13.4711 15 12.4335V6.55336ZM11.3085 10.2728C11.7984 9.98994 11.7984 9.28287 11.3085 9.00004L8.39689 7.31903C7.90702 7.0362 7.29468 7.38974 7.29468 7.95539V11.3174C7.29468 11.8831 7.90702 12.2366 8.3969 11.9538L11.3085 10.2728Z" fill="black"/>
<path d="M9.06627 15.8123L9 15.8638V16.4335C9 17.4711 9.84039 18.3123 10.878 18.3123H15.3884L18.0313 20.3326C18.4022 20.6162 18.9373 20.3517 18.9373 19.8848V18.3123H19.1209C20.1586 18.3123 21 17.4711 21 16.4335V10.5454C21 9.50778 20.1588 8.66658 19.1211 8.66726C18.2531 8.66782 17.3779 8.66868 16.5 8.66959V12.4335C16.5 14.2989 14.9885 15.8123 13.1217 15.8123H9.06627Z" fill="black"/>
</svg>
