<svg width="24" height="24" viewBox="0 0 24 24" fill="none" xmlns="http://www.w3.org/2000/svg">
<path d="M19.999 8.10237L17.1639 10.9471C16.9257 11.1862 16.6307 11.3611 16.3066 11.4555L14.642 11.9404C13.1523 12.3743 11.7574 11.0204 12.1466 9.51846L12.5916 7.8015C12.6808 7.45737 12.8601 7.14323 13.111 6.89143L14.9478 5.04838C13.5047 5.04748 12.0537 5.04596 10.6066 5.04444C9.24168 5.043 7.88016 5.04157 6.53175 5.04067C5.15102 5.03975 4.03174 6.15907 4.03174 7.5398V15.5579C4.03174 16.9386 5.1513 18.0579 6.53201 18.0579H6.77638V20.2735C6.77638 20.8813 7.46143 21.2366 7.9583 20.8866L11.9738 18.0579H17.5002C18.8809 18.0579 19.999 16.9386 19.999 15.5579V8.10237Z" fill="black"/>
<path d="M14.1734 7.95025C14.1107 8.0132 14.0659 8.09174 14.0436 8.17777L13.5986 9.89473C13.5013 10.2702 13.85 10.6087 14.2224 10.5002L15.8871 10.0154C15.9681 9.99176 16.0419 9.94804 16.1014 9.88826L19.2684 6.71041L17.3354 4.77741L14.1734 7.95025ZM20.7097 5.25328C21.1003 4.86276 21.1003 4.22965 20.7098 3.83912C20.5411 3.67044 20.3607 3.49004 20.1909 3.32022C19.8003 2.92967 19.1672 2.92974 18.7767 3.32031L18.1771 3.91988L20.1101 5.85289L20.7097 5.25328Z" fill="black"/>
</svg>
