<svg width="24" height="24" viewBox="0 0 24 24" fill="none" xmlns="http://www.w3.org/2000/svg">
<path fill-rule="evenodd" clip-rule="evenodd" d="M19.8384 7.54352C19.8384 6.16179 18.7175 5.04214 17.3358 5.0422C15.0608 5.04231 12.7486 5.03988 10.4459 5.03746C9.08104 5.03602 7.71952 5.03459 6.37111 5.03369C4.99038 5.03278 3.87109 6.15209 3.87109 7.53282V15.5509C3.87109 16.9316 4.99066 18.0509 6.37137 18.0509H6.61573V20.2665C6.61573 20.8743 7.30078 21.2297 7.79766 20.8796L11.8132 18.0509H17.3395C18.7202 18.0509 19.8384 16.9316 19.8384 15.5509V7.54352ZM11.8354 8.15021C12.3187 8.1498 12.7109 8.54122 12.7114 9.02447L12.7173 14.2273C12.7178 14.7106 12.3265 15.1027 11.8433 15.1031C11.36 15.1035 10.9678 14.7121 10.9673 14.2288L10.9614 9.02595C10.9609 8.5427 11.3522 8.15062 11.8354 8.15021ZM8.24572 9.36194C8.72896 9.36172 9.12154 9.7533 9.12256 10.2365L9.12842 13.016C9.12944 13.4993 8.73851 13.8912 8.25526 13.8914C7.77202 13.8916 7.37944 13.5 7.37842 13.0168L7.37256 10.2373C7.37154 9.75409 7.76247 9.36216 8.24572 9.36194ZM16.3003 10.2365C16.2993 9.7533 15.9067 9.36172 15.4235 9.36194C14.9402 9.36216 14.5493 9.75409 14.5503 10.2373L14.5562 13.0168C14.5572 13.5 14.9497 13.8916 15.433 13.8914C15.9162 13.8912 16.3072 13.4993 16.3062 13.016L16.3003 10.2365Z" fill="black"/>
</svg>
