<svg width="24" height="24" viewBox="0 0 24 24" fill="none" xmlns="http://www.w3.org/2000/svg">
<path fill-rule="evenodd" clip-rule="evenodd" d="M3 9.0299C3 7.92578 3.89474 7.03053 4.99887 7.0299L11.4989 7.02622C12.6039 7.0256 13.5 7.92121 13.5 9.02622V13.0251C13.5 14.1297 12.6046 15.0251 11.5 15.0251H8.5L5.79062 16.9604C5.45968 17.1967 5 16.9602 5 16.5535V15.0251C3.89543 15.0251 3 14.1297 3 13.0251V9.0299ZM12 10.2751C12 9.86088 11.6642 9.52509 11.25 9.52509C10.8358 9.52509 10.5 9.86088 10.5 10.2751V11.7751C10.5 12.1893 10.8358 12.5251 11.25 12.5251C11.6642 12.5251 12 12.1893 12 11.7751V10.2751ZM8.25 8.52509C8.66421 8.52509 9 8.86088 9 9.27509V12.7751C9 13.1893 8.66421 13.5251 8.25 13.5251C7.83579 13.5251 7.5 13.1893 7.5 12.7751V9.27509C7.5 8.86088 7.83579 8.52509 8.25 8.52509ZM6 10.2751C6 9.86088 5.66421 9.52509 5.25 9.52509C4.83579 9.52509 4.5 9.86088 4.5 10.2751V11.7751C4.5 12.1893 4.83579 12.5251 5.25 12.5251C5.66421 12.5251 6 12.1893 6 11.7751V10.2751Z" fill="black"/>
<path d="M16.0011 3.03005C17.1053 3.03067 18 3.92592 18 5.03005V9.02524C18 9.19933 17.9778 9.36823 17.936 9.52924L15 9.52758V9.02633C15 7.09256 13.4318 5.52524 11.498 5.52633L7.5 5.5286V5.02637C7.5 3.92136 8.39612 3.02574 9.50113 3.02637L16.0011 3.03005Z" fill="black"/>
<path d="M11.5 16.5252H10.5V17.025C10.5 18.1296 11.3954 19.025 12.5 19.025H15.5L18.2094 20.9603C18.5403 21.1967 19 20.9601 19 20.5534V19.025C20.1046 19.025 21 18.1296 21 17.025V13.0298C21 11.9257 20.1053 11.0305 19.0011 11.0298L15 11.0276V13.0189C15.0429 13.0341 15.0848 13.0533 15.125 13.0766L17.375 14.3756C17.6071 14.5096 17.75 14.7572 17.75 15.0251C17.75 15.2931 17.6071 15.5407 17.375 15.6746L15.125 16.9737C14.8929 17.1076 14.6071 17.1076 14.375 16.9737C14.1429 16.8397 14 16.5921 14 16.3242V15.4746C13.3647 16.1229 12.4793 16.5252 11.5 16.5252Z" fill="black"/>
</svg>
