<svg width="24" height="24" viewBox="0 0 24 24" fill="none" xmlns="http://www.w3.org/2000/svg">
<path fill-rule="evenodd" clip-rule="evenodd" d="M15 6.55409C15 5.51568 14.1577 4.67422 13.1193 4.67427C11.4096 4.67435 9.67183 4.67255 7.94127 4.67076C6.9155 4.66969 5.89225 4.66863 4.87885 4.66797C3.84118 4.66729 3 5.50849 3 6.54616V12.4342C3 13.4718 3.84139 14.313 4.87905 14.313H5.0627V15.8736C5.0627 16.3426 5.60208 16.6065 5.97234 16.3186L8.55173 14.313H13.1217C14.1594 14.313 15 13.4718 15 12.4342V6.55409ZM13.0013 7.77218C13.0013 8.31966 12.5575 8.76348 12.01 8.76348C11.4626 8.76348 11.0187 8.31966 11.0187 7.77218C11.0187 7.2247 11.4626 6.78088 12.01 6.78088C12.5575 6.78088 13.0013 7.2247 13.0013 7.77218ZM7.68015 8.46278C7.8888 8.4637 8.08323 8.56868 8.19845 8.74264L9.06755 10.0548L9.86641 9.34638C10.1188 9.12255 10.5033 9.13945 10.7352 9.38456L12.4889 11.239C12.7261 11.4897 12.7151 11.8853 12.4643 12.1225C12.2135 12.3597 11.8179 12.3486 11.5808 12.0979L10.2429 10.6832L9.3585 11.4674C9.22306 11.5875 9.04219 11.643 8.8627 11.6195C8.68321 11.596 8.52273 11.4958 8.42277 11.3449L7.6724 10.2121L6.45299 12.0181C6.25984 12.3042 5.87134 12.3795 5.58527 12.1864C5.29919 11.9932 5.22386 11.6048 5.41701 11.3187L7.15939 8.73804C7.27615 8.56511 7.4715 8.46185 7.68015 8.46278Z" fill="black"/>
<path d="M9 15.8646V16.4342C9 17.4719 9.84039 18.313 10.878 18.313H15.3884L18.0313 20.3334C18.4022 20.6169 18.9373 20.3524 18.9373 19.8856V18.313H19.1209C20.1586 18.313 21 17.4719 21 16.4342V10.5462C21 9.50851 20.1588 8.6673 19.1211 8.66798C18.2531 8.66855 17.3779 8.66941 16.5 8.67032V12.4342C16.5 14.2997 14.9885 15.813 13.1217 15.813H9.06627L9 15.8646Z" fill="black"/>
</svg>
