<svg width="24" height="24" viewBox="0 0 24 24" fill="none" xmlns="http://www.w3.org/2000/svg">
<path fill-rule="evenodd" clip-rule="evenodd" d="M15 6.55336C15 5.51495 14.1577 4.67349 13.1193 4.67354C11.4096 4.67362 9.67186 4.67182 7.94132 4.67003C6.91553 4.66896 5.89227 4.6679 4.87885 4.66724C3.84118 4.66656 3 5.50776 3 6.54543V12.4335C3 13.4711 3.84139 14.3123 4.87905 14.3123H5.0627V15.8729C5.0627 16.3419 5.60208 16.6058 5.97234 16.3179L8.55173 14.3123H13.1217C14.1594 14.3123 15 13.4711 15 12.4335V6.55336ZM5.76575 7.28223C5.35153 7.28223 5.01575 7.61802 5.01575 8.03223C5.01575 8.44644 5.35153 8.78223 5.76575 8.78223H12.2718C12.686 8.78223 13.0218 8.44644 13.0218 8.03223C13.0218 7.61802 12.686 7.28223 12.2718 7.28223H5.76575ZM5.76575 10.2793C5.35153 10.2793 5.01575 10.6151 5.01575 11.0293C5.01575 11.4435 5.35153 11.7793 5.76575 11.7793H12.2718C12.686 11.7793 13.0218 11.4435 13.0218 11.0293C13.0218 10.6151 12.686 10.2793 12.2718 10.2793H5.76575Z" fill="black"/>
<path d="M9.06627 15.8123L9 15.8638V16.4335C9 17.4711 9.84039 18.3123 10.878 18.3123H15.3884L18.0313 20.3326C18.4022 20.6162 18.9373 20.3517 18.9373 19.8848V18.3123H19.1209C20.1586 18.3123 21 17.4711 21 16.4335V10.5454C21 9.50778 20.1588 8.66658 19.1211 8.66726C18.2531 8.66782 17.3779 8.66868 16.5 8.66959V12.4335C16.5 14.2989 14.9885 15.8123 13.1217 15.8123H9.06627Z" fill="black"/>
</svg>
