<svg width="24" height="24" viewBox="0 0 24 24" fill="none" xmlns="http://www.w3.org/2000/svg">
<path d="M9.24821 16.6535C9.51171 17.4502 10.2625 18.025 11.1475 18.025H14.1475L17.3475 20.425C17.6771 20.6722 18.1475 20.437 18.1475 20.025V18.025H19.1475C20.252 18.025 21.1475 17.1296 21.1475 16.025V11.03C21.1475 9.92578 20.2526 9.03051 19.1485 9.02996L16.6475 9.02872V12.525C16.6475 14.458 15.0805 16.025 13.1475 16.025H10.1282L9.24821 16.6535Z" fill="black"/>
<path d="M5.14647 5.02996C4.04229 5.03051 3.14746 5.92578 3.14746 7.02996V12.525C3.14746 13.6296 4.04289 14.525 5.14746 14.525H6.14746V16.0534C6.14746 16.4601 6.60715 16.6967 6.93808 16.4603L9.64746 14.525H13.1475C14.252 14.525 15.1475 13.6296 15.1475 12.525V7.026C15.1475 5.92104 14.2514 5.02545 13.1465 5.026L5.14647 5.02996Z" fill="black"/>
</svg>
