<svg width="24" height="24" viewBox="0 0 24 24" fill="none" xmlns="http://www.w3.org/2000/svg">
<path fill-rule="evenodd" clip-rule="evenodd" d="M19.9836 7.54352C19.9836 6.16179 18.8628 5.04213 17.4811 5.0422C15.2061 5.04231 12.8939 5.03988 10.5912 5.03746C9.2263 5.03602 7.86478 5.03459 6.51637 5.03369C5.13564 5.03277 4.01636 6.15208 4.01636 7.53281V15.5509C4.01636 16.9316 5.13592 18.0509 6.51663 18.0509H6.761V20.2665C6.761 20.8743 7.44605 21.2297 7.94292 20.8796L11.9584 18.0509H17.4848C18.8655 18.0509 19.9836 16.9316 19.9836 15.5509V7.54352ZM14.912 12.5328C15.5786 12.1479 15.5786 11.1857 14.912 10.8008L10.9496 8.51309C10.2829 8.12819 9.44958 8.60932 9.44958 9.37912V13.9545C9.44958 14.7243 10.2829 15.2054 10.9496 14.8205L14.912 12.5328Z" fill="black"/>
</svg>
