<svg width="24" height="24" viewBox="0 0 24 24" fill="none" xmlns="http://www.w3.org/2000/svg">
<path d="M8.9001 15.075L8.9501 15.025H13.0001C14.8501 15.025 16.4001 13.525 16.4001 11.625V7.875H19.0001C20.0501 7.875 20.9001 8.725 20.9001 9.775V15.675C20.9001 16.725 20.0501 17.575 19.0001 17.575H18.8001V19.125C18.8001 19.575 18.2501 19.875 17.9001 19.575L15.2501 17.575H10.7501C9.7001 17.575 8.8501 16.725 8.8501 15.675V15.075H8.9001Z" fill="black"/>
<path d="M13.0499 3.875C10.3499 3.875 7.5499 3.875 4.7999 3.875C3.7499 3.875 2.8999 4.725 2.8999 5.775V11.675C2.8999 12.725 3.7499 13.575 4.7999 13.575H4.9999V15.125C4.9999 15.575 5.5499 15.875 5.8999 15.575L8.4999 13.575H13.0499C14.0999 13.575 14.9499 12.725 14.9499 11.675V5.775C14.8999 4.725 14.0499 3.875 13.0499 3.875ZM5.6499 9.875C5.0999 9.875 4.6499 9.425 4.6499 8.875C4.6499 8.325 5.0999 7.875 5.6499 7.875C6.1999 7.875 6.6499 8.325 6.6499 8.875C6.6499 9.425 6.1999 9.875 5.6499 9.875ZM8.8999 9.875C8.3499 9.875 7.8999 9.425 7.8999 8.875C7.8999 8.325 8.3499 7.875 8.8999 7.875C9.4499 7.875 9.8999 8.325 9.8999 8.875C9.8999 9.425 9.4499 9.875 8.8999 9.875ZM12.1499 9.875C11.5999 9.875 11.1499 9.425 11.1499 8.875C11.1499 8.325 11.5999 7.875 12.1499 7.875C12.6999 7.875 13.1499 8.325 13.1499 8.875C13.1499 9.425 12.6999 9.875 12.1499 9.875Z" fill="black"/>
</svg>
