<svg width="24" height="24" viewBox="0 0 24 24" fill="none" xmlns="http://www.w3.org/2000/svg">
<path fill-rule="evenodd" clip-rule="evenodd" d="M19 12.1251C18.3801 12.3671 17.7056 12.5 17 12.5C13.9624 12.5 11.5 10.0376 11.5 7C11.5 6.48097 11.5719 5.97873 11.7063 5.5027L4.99926 5.50519C3.89498 5.5056 3 6.40091 3 7.50519V16C3 17.1046 3.89543 18 5 18H6V20.4777C6 20.8937 6.47854 21.1278 6.80697 20.8723L10.5 18H17C18.1046 18 19 17.1046 19 16V12.1251ZM9.22957 10.5003C9.46449 10.4939 9.68884 10.598 9.83565 10.7815L11.3122 12.6271L12.2197 11.7197C12.5126 11.4268 12.9874 11.4268 13.2803 11.7197L15.7803 14.2197C16.0732 14.5126 16.0732 14.9874 15.7803 15.2803C15.4874 15.5732 15.0126 15.5732 14.7197 15.2803L12.75 13.3106L11.7803 14.2803C11.6295 14.4312 11.4215 14.5106 11.2085 14.4988C10.9955 14.487 10.7976 14.3851 10.6643 14.2185L9.28387 12.4929L7.3603 15.1859C7.11954 15.523 6.65113 15.601 6.31407 15.3603C5.97701 15.1195 5.89894 14.6511 6.1397 14.3141L8.6397 10.8141C8.7763 10.6228 8.99464 10.5067 9.22957 10.5003Z" fill="black"/>
<path fill-rule="evenodd" clip-rule="evenodd" d="M17 11C19.2091 11 21 9.20914 21 7C21 4.79086 19.2091 3 17 3C14.7909 3 13 4.79086 13 7C13 9.20914 14.7909 11 17 11ZM17.625 5C17.625 4.65482 17.3452 4.375 17 4.375C16.6548 4.375 16.375 4.65482 16.375 5V7C16.375 7.16576 16.4408 7.32473 16.5581 7.44194L17.5581 8.44194C17.8021 8.68602 18.1979 8.68602 18.4419 8.44194C18.686 8.19786 18.686 7.80214 18.4419 7.55806L17.625 6.74112V5Z" fill="black"/>
</svg>
