<svg width="24" height="24" viewBox="0 0 24 24" fill="none" xmlns="http://www.w3.org/2000/svg">
<path d="M20.0078 11.3059C19.2039 11.8021 18.2567 12.0885 17.2427 12.0885C14.3315 12.0885 11.9716 9.72853 11.9716 6.81737C11.9716 6.18711 12.0822 5.58269 12.285 5.02245C11.7284 5.0219 11.1716 5.02132 10.6153 5.02073C9.25047 5.0193 7.88895 5.01786 6.54054 5.01697C5.15981 5.01605 4.04053 6.13536 4.04053 7.51609V15.5342C4.04053 16.9149 5.16009 18.0342 6.5408 18.0342H6.78517V20.2498C6.78517 20.8576 7.47022 21.2129 7.96709 20.8629L11.9826 18.0342H17.509C18.8897 18.0342 20.0078 16.9149 20.0078 15.5342V11.3059Z" fill="black"/>
<path fill-rule="evenodd" clip-rule="evenodd" d="M13.475 6.67671C13.3869 8.77284 15.0031 10.5309 17.0992 10.619C19.1463 10.6539 20.9023 9.08879 21.0415 6.99481C21.1296 4.89869 19.5134 3.14063 17.4173 3.05251C15.3212 2.96439 13.5631 4.58059 13.475 6.67671ZM18.0552 5.07794C18.109 4.60956 17.6476 4.29895 17.2292 4.31413C16.8282 4.32868 16.4081 4.67223 16.4617 5.07794L16.6473 7.08013C16.6473 7.40155 16.9078 7.66211 17.2292 7.66211C17.5507 7.66211 17.8112 7.40155 17.8112 7.08013L18.0552 5.07794ZM17.2582 9.39024C17.5742 9.39024 17.8303 9.13414 17.8303 8.81822C17.8303 8.50231 17.5742 8.24621 17.2582 8.24621C16.9423 8.24621 16.6862 8.50231 16.6862 8.81822C16.6862 9.13414 16.9423 9.39024 17.2582 9.39024Z" fill="black"/>
</svg>
