<svg width="24" height="24" viewBox="0 0 24 24" fill="none" xmlns="http://www.w3.org/2000/svg">
<path d="M19.9629 11.3225C19.159 11.8188 18.2118 12.1051 17.1977 12.1051C14.2866 12.1051 11.9266 9.74519 11.9266 6.83404C11.9266 6.20377 12.0373 5.59935 12.2401 5.03912C11.6834 5.03857 11.1267 5.03798 10.5704 5.03739C9.20555 5.03596 7.84403 5.03453 6.49562 5.03363C5.11489 5.03271 3.99561 6.15202 3.99561 7.53275V15.5509C3.99561 16.9316 5.11517 18.0509 6.49588 18.0509H6.74025V20.2664C6.74025 20.8742 7.42529 21.2296 7.92217 20.8796L11.9377 18.0509H17.464C18.8448 18.0509 19.9629 16.9316 19.9629 15.5509V11.3225Z" fill="black"/>
<path fill-rule="evenodd" clip-rule="evenodd" d="M13.4301 6.69344C13.342 8.78956 14.9582 10.5476 17.0543 10.6357C19.1014 10.6706 20.8573 9.10551 20.9966 7.01154C21.0847 4.91541 19.4685 3.15736 17.3724 3.06923C15.2763 2.98111 13.5182 4.59731 13.4301 6.69344ZM17.0845 5.47366C17.1499 5.43988 17.2276 5.42897 17.3028 5.44477C17.3779 5.46055 17.4415 5.50097 17.4844 5.55474C17.5268 5.60811 17.5465 5.67144 17.5438 5.73334L17.5438 5.73423C17.5438 5.73423 17.5424 5.75256 17.5291 5.78972C17.5158 5.82724 17.494 5.8747 17.4617 5.93141C17.3964 6.04625 17.3039 6.17154 17.2012 6.29354C17.1001 6.41373 16.9981 6.52008 16.9207 6.59684C16.8824 6.63491 16.8508 6.66494 16.8295 6.68492C16.8188 6.69489 16.8107 6.70231 16.8057 6.70692L16.8005 6.71168L16.7997 6.7124C16.5669 6.92061 16.5469 7.27803 16.7549 7.511C16.9631 7.74412 17.3209 7.76423 17.554 7.55607L17.5557 7.55462L17.5588 7.55184L17.5687 7.54279C17.577 7.53524 17.5885 7.52468 17.6027 7.51137C17.6311 7.48478 17.6707 7.44703 17.7179 7.40022C17.8116 7.30724 17.9382 7.17548 18.0672 7.02225C18.1946 6.87085 18.3337 6.68742 18.4453 6.49126C18.5515 6.30464 18.663 6.05514 18.6746 5.78219C18.6892 5.444 18.5799 5.11382 18.3699 4.84993C18.1601 4.58633 17.8638 4.40615 17.5354 4.33718C17.2072 4.26823 16.8639 4.31389 16.5654 4.46798C16.2665 4.62224 16.0298 4.87654 15.9014 5.18925C15.7827 5.47835 15.9209 5.80895 16.21 5.92766C16.4991 6.04637 16.8297 5.90823 16.9484 5.61912C16.9727 5.56 17.0194 5.50726 17.0845 5.47366ZM17.1945 8.2676C16.8822 8.25448 16.6185 8.49697 16.6053 8.80922C16.5922 9.12147 16.8347 9.38524 17.147 9.39837L17.1526 9.39861C17.4649 9.41173 17.7286 9.16925 17.7418 8.85699C17.7549 8.54474 17.5124 8.28097 17.2001 8.26784L17.1945 8.2676Z" fill="black"/>
</svg>
