<svg width="24" height="24" viewBox="0 0 24 24" fill="none" xmlns="http://www.w3.org/2000/svg">
<path fill-rule="evenodd" clip-rule="evenodd" d="M21 6.47377C21 5.43536 20.1577 4.5939 19.1193 4.59395C17.4096 4.59403 15.6719 4.59223 13.9413 4.59044C12.9155 4.58937 11.8923 4.58831 10.8789 4.58765C9.84118 4.58697 9 5.42817 9 6.46584V12.3539C9 13.3915 9.84139 14.2327 10.8791 14.2327H11.0627V15.7933C11.0627 16.2623 11.6021 16.5262 11.9723 16.2383L14.5517 14.2327H19.1217C20.1594 14.2327 21 13.3915 21 12.3539V6.47377ZM12.9224 9.44859C12.9224 9.97426 12.4963 10.4004 11.9706 10.4004C11.4449 10.4004 11.0188 9.97426 11.0188 9.44859C11.0188 8.92291 11.4449 8.49677 11.9706 8.49677C12.4963 8.49677 12.9224 8.92291 12.9224 9.44859ZM15.9615 9.44859C15.9615 9.97426 15.5354 10.4004 15.0097 10.4004C14.484 10.4004 14.0579 9.97426 14.0579 9.44859C14.0579 8.92291 14.484 8.49677 15.0097 8.49677C15.5354 8.49677 15.9615 8.92291 15.9615 9.44859ZM18.0483 10.4004C18.5739 10.4004 19.0001 9.97426 19.0001 9.44859C19.0001 8.92291 18.5739 8.49677 18.0483 8.49677C17.5226 8.49677 17.0964 8.92291 17.0964 9.44859C17.0964 9.97426 17.5226 10.4004 18.0483 10.4004Z" fill="black"/>
<path d="M10.4018 17.4554C9.90471 17.0924 9.5627 16.5079 9.5627 15.7933V15.4667C8.3506 14.9535 7.5 13.7531 7.5 12.3539V6.95419C6.64393 7.12901 6 7.8865 6 8.79439V14.6824C6 14.92 6.04413 15.1474 6.12463 15.3566C6.39566 16.0612 7.07902 16.5613 7.87905 16.5613H8.0627V18.1218C8.0627 18.1988 8.07722 18.2702 8.10313 18.3346C8.23513 18.6626 8.66283 18.8075 8.97234 18.5668L10.4018 17.4554Z" fill="black"/>
<path d="M6.5627 18.1218C6.5627 18.8369 6.90516 19.4217 7.40275 19.7846L5.97234 20.8968C5.60208 21.1847 5.0627 20.9209 5.0627 20.4519V18.8913H4.87905C3.84139 18.8913 3 18.0501 3 17.0124V11.1244C3 10.2165 3.64393 9.459 4.5 9.28419V14.6824C4.5 16.0817 5.3506 17.2821 6.5627 17.7952V18.1218Z" fill="black"/>
</svg>
