<svg width="24" height="24" viewBox="0 0 24 24" fill="none" xmlns="http://www.w3.org/2000/svg">
<path d="M9.24821 16.6529C9.51171 17.4496 10.2625 18.0244 11.1475 18.0244H14.1475L17.3475 20.4244C17.6771 20.6716 18.1475 20.4364 18.1475 20.0244V18.0244H19.1475C20.252 18.0244 21.1475 17.129 21.1475 16.0244V11.0294C21.1475 9.92517 20.2526 9.0299 19.1485 9.02935L16.6475 9.02811V12.5244C16.6475 14.4574 15.0805 16.0244 13.1475 16.0244H10.1282L9.24821 16.6529Z" fill="black"/>
<path d="M5.14647 5.02935C4.04229 5.0299 3.14746 5.92517 3.14746 7.02935V12.5244C3.14746 13.629 4.04289 14.5244 5.14746 14.5244H6.14746V16.0528C6.14746 16.4595 6.60715 16.6961 6.93808 16.4597L9.64746 14.5244H13.1475C14.252 14.5244 15.1475 13.629 15.1475 12.5244V7.02539C15.1475 5.92043 14.2514 5.02484 13.1465 5.02539L5.14647 5.02935Z" fill="black"/>
</svg>
