<svg width="24" height="24" viewBox="0 0 24 24" fill="none" xmlns="http://www.w3.org/2000/svg">
<path fill-rule="evenodd" clip-rule="evenodd" d="M20 7.54352C20 6.16179 18.8791 5.04213 17.4974 5.0422C15.2225 5.04231 12.9102 5.03988 10.6075 5.03746C9.24266 5.03602 7.88114 5.03459 6.53273 5.03369C5.152 5.03277 4.03271 6.15208 4.03271 7.53281V15.5509C4.03271 16.9316 5.15228 18.0509 6.53299 18.0509H6.77735V20.2665C6.77735 20.8743 7.4624 21.2297 7.95928 20.8796L11.9748 18.0509H17.5011C18.8819 18.0509 20 16.9316 20 15.5509V7.54352ZM13.4299 11.5973C13.4299 12.388 12.7888 13.0291 11.9981 13.0291C11.2073 13.0291 10.5662 12.388 10.5662 11.5973C10.5662 10.8065 11.2073 10.1655 11.9981 10.1655C12.7888 10.1655 13.4299 10.8065 13.4299 11.5973ZM8.85813 11.5973C8.85813 12.3881 8.21709 13.0291 7.42632 13.0291C6.63555 13.0291 5.99451 12.3881 5.99451 11.5973C5.99451 10.8065 6.63555 10.1655 7.42632 10.1655C8.21709 10.1655 8.85813 10.8065 8.85813 11.5973ZM16.5691 13.0291C17.3599 13.0291 18.001 12.3881 18.001 11.5973C18.001 10.8065 17.3599 10.1655 16.5691 10.1655C15.7784 10.1655 15.1373 10.8065 15.1373 11.5973C15.1373 12.3881 15.7784 13.0291 16.5691 13.0291Z" fill="black"/>
</svg>
