<svg width="24" height="24" viewBox="0 0 24 24" fill="none" xmlns="http://www.w3.org/2000/svg">
<path d="M14.85 15.0252H10.8C9.69995 15.0252 8.69995 14.4752 8.09995 13.6752C7.99995 13.7252 7.94995 13.7252 7.84995 13.7252C7.44995 13.7252 7.09995 13.3752 7.09995 12.9752C7.09995 12.6752 7.24995 12.4252 7.49995 12.3252C7.44995 12.1252 7.44995 11.8752 7.44995 11.6752V7.92517C6.54995 7.92517 5.69995 7.92517 4.84995 7.92517C3.79995 7.92517 2.94995 8.77517 2.94995 9.82517V15.7252C2.94995 16.7752 3.79995 17.6252 4.84995 17.6252H5.04995V19.1752C5.04995 19.6252 5.59995 19.9252 5.94995 19.6252L8.59995 17.6252H13.1C14.15 17.6252 15 16.7752 15 15.7252V15.1752L14.85 15.0252ZM5.39995 13.7252C4.99995 13.7252 4.64995 13.3752 4.64995 12.9752C4.64995 12.5752 4.99995 12.2252 5.39995 12.2252C5.79995 12.2252 6.14995 12.5752 6.14995 12.9752C6.14995 13.3752 5.79995 13.7252 5.39995 13.7252Z" fill="black"/>
<path fill-rule="evenodd" clip-rule="evenodd" d="M8.8999 11.6751C8.8999 12.7251 9.7499 13.5751 10.7999 13.5751H15.3499L17.9499 15.5751C18.2999 15.8751 18.8499 15.5751 18.8499 15.1251V13.5251H19.0499C20.0999 13.5251 20.9499 12.6751 20.9499 11.6251V5.77512C20.9499 4.72512 20.0999 3.87512 19.0499 3.87512C18.0499 3.87512 16.9999 3.87512 15.9999 3.87512C14.2499 3.87512 12.5499 3.87512 10.7999 3.87512C9.7499 3.87512 8.8999 4.72512 8.8999 5.77512V11.6751ZM16.7499 9.47512C17.2499 9.17512 17.2499 8.47512 16.7499 8.22512L13.7999 6.52512C13.2999 6.22512 12.6999 6.57512 12.6999 7.17512V10.5251C12.6999 11.0751 13.2999 11.4251 13.7999 11.1751L16.7499 9.47512Z" fill="black"/>
</svg>
