<svg width="24" height="24" viewBox="0 0 24 24" fill="none" xmlns="http://www.w3.org/2000/svg">
<path fill-rule="evenodd" clip-rule="evenodd" d="M15 6.55263C15 5.51422 14.1577 4.67276 13.1193 4.67281C11.4096 4.67289 9.67186 4.67109 7.94132 4.6693C6.91553 4.66823 5.89227 4.66717 4.87885 4.66651C3.84118 4.66583 3 5.50703 3 6.5447V12.4327C3 13.4704 3.84139 14.3116 4.87905 14.3116H5.0627V15.8722C5.0627 16.3412 5.60208 16.605 5.97234 16.3171L8.55173 14.3116H13.1217C14.1594 14.3116 15 13.4704 15 12.4327V6.55263ZM8.99691 6.81476C9.41112 6.81443 9.74731 7.14995 9.7478 7.56416L9.75254 11.5153C9.75303 11.9295 9.41765 12.2655 9.00344 12.2659C8.58922 12.2662 8.25303 11.9307 8.25254 11.5165L8.2478 7.56536C8.24731 7.15114 8.58269 6.81509 8.99691 6.81476ZM5.99466 7.73493C6.40887 7.73475 6.74541 8.07039 6.74634 8.48461L6.75107 10.5954C6.752 11.0096 6.41697 11.3455 6.00276 11.3457C5.58854 11.3458 5.252 11.0102 5.25107 10.596L5.24634 8.48525C5.24541 8.07103 5.58044 7.7351 5.99466 7.73493ZM12.7454 8.48461C12.7444 8.07039 12.4079 7.73475 11.9937 7.73493C11.5795 7.7351 11.2444 8.07103 11.2454 8.48525L11.2501 10.596C11.251 11.0102 11.5876 11.3458 12.0018 11.3457C12.416 11.3455 12.751 11.0096 12.7501 10.5954L12.7454 8.48461Z" fill="black"/>
<path d="M9.06627 15.8116L9 15.8631V16.4327C9 17.4704 9.84039 18.3116 10.878 18.3116H15.3884L18.0313 20.3319C18.4022 20.6154 18.9373 20.351 18.9373 19.8841V18.3116H19.1209C20.1586 18.3116 21 17.4704 21 16.4327V10.5447C21 9.50705 20.1588 8.66584 19.1211 8.66652C18.2531 8.66709 17.3779 8.66795 16.5 8.66886V12.4327C16.5 14.2982 14.9885 15.8116 13.1217 15.8116H9.06627Z" fill="black"/>
</svg>
