<svg width="24" height="24" viewBox="0 0 24 24" fill="none" xmlns="http://www.w3.org/2000/svg">
<path d="M12 4C7.58172 4 4 7.58172 4 12C4 16.4183 7.58172 20 12 20C16.4183 20 20 16.4183 20 12C20 7.58172 16.4183 4 12 4ZM14.8021 14.8601C14.772 14.9048 14.7333 14.9432 14.6884 14.9729C14.6434 15.0027 14.593 15.0233 14.5401 15.0336C14.4872 15.0439 14.4327 15.0437 14.3799 15.033C14.327 15.0222 14.2768 15.0012 14.2321 14.9711C12.0141 13.4758 8.63934 14.3492 8.6055 14.3583C8.55338 14.3722 8.49904 14.3756 8.44559 14.3685C8.39213 14.3614 8.34061 14.3438 8.29395 14.3167C8.2473 14.2897 8.20643 14.2537 8.17368 14.2108C8.14093 14.168 8.11694 14.1191 8.10308 14.067C8.08922 14.0149 8.08576 13.9605 8.0929 13.9071C8.10004 13.8536 8.11763 13.8021 8.14469 13.7554C8.17174 13.7088 8.20772 13.6679 8.25056 13.6352C8.29341 13.6024 8.34229 13.5784 8.39441 13.5646C8.43266 13.5544 9.34525 13.315 10.5694 13.2792C12.2135 13.2311 13.6388 13.5806 14.6913 14.29C14.736 14.3201 14.7743 14.3588 14.8041 14.4038C14.8339 14.4487 14.8545 14.4991 14.8648 14.5521C14.8751 14.605 14.8748 14.6595 14.8641 14.7123C14.8533 14.7652 14.8323 14.8154 14.8021 14.8601ZM15.5919 13.0882C15.5572 13.1438 15.512 13.192 15.4587 13.23C15.4054 13.2681 15.3452 13.2953 15.2814 13.3101C15.2176 13.3249 15.1515 13.3269 15.0869 13.3162C15.0223 13.3054 14.9605 13.2821 14.9049 13.2474C13.4143 12.3177 11.7553 12.1576 10.6261 12.187C9.37897 12.2195 8.4795 12.4834 8.47053 12.4861C8.34387 12.5241 8.2073 12.5102 8.09088 12.4475C7.97445 12.3848 7.8877 12.2784 7.8497 12.1518C7.81171 12.0251 7.82559 11.8885 7.88829 11.7721C7.95099 11.6557 8.05737 11.5689 8.18403 11.5309C8.22466 11.5187 9.19628 11.2309 10.5683 11.1911C12.3962 11.1379 14.0783 11.5565 15.4327 12.4013C15.4883 12.436 15.5365 12.4812 15.5745 12.5345C15.6126 12.5878 15.6398 12.6481 15.6546 12.7119C15.6694 12.7757 15.6715 12.8417 15.6607 12.9063C15.6499 12.9709 15.6265 13.0328 15.5919 13.0883V13.0882ZM16.5117 11.0219C16.4744 11.0914 16.4237 11.153 16.3626 11.203C16.3015 11.253 16.2311 11.2904 16.1555 11.3132C16.0799 11.336 16.0006 11.3437 15.922 11.3358C15.8435 11.3279 15.7672 11.3046 15.6977 11.2673C13.8614 10.2817 11.9278 10.1251 10.6291 10.1673C9.19956 10.2138 8.19828 10.5043 8.18844 10.5072C8.03557 10.5526 7.87094 10.5354 7.73077 10.4594C7.59059 10.3833 7.48635 10.2548 7.44097 10.1019C7.39559 9.94904 7.4128 9.78441 7.4888 9.64424C7.56481 9.50406 7.69339 9.39981 7.84625 9.35444C7.89169 9.34091 8.97703 9.02263 10.5507 8.96694C12.6394 8.89281 14.6159 9.32188 16.2663 10.2078C16.4068 10.2833 16.5116 10.4114 16.5576 10.564C16.6036 10.7167 16.5871 10.8814 16.5117 11.0219Z" fill="black"/>
</svg>
