<svg width="24" height="24" viewBox="0 0 24 24" fill="none" xmlns="http://www.w3.org/2000/svg">
<path fill-rule="evenodd" clip-rule="evenodd" d="M4 6.5C4 5.11929 5.11929 4 6.5 4H17.5C18.8807 4 20 5.11929 20 6.5V17.5C20 18.8807 18.8807 20 17.5 20H6.5C5.11929 20 4 18.8807 4 17.5V6.5ZM10.5 6.75C10.5 6.33579 10.8358 6 11.25 6H12.75C13.1642 6 13.5 6.33579 13.5 6.75C13.5 7.16421 13.1642 7.5 12.75 7.5H11.25C10.8358 7.5 10.5 7.16421 10.5 6.75ZM6.75 10.5C6.33579 10.5 6 10.8358 6 11.25V12.75C6 13.1642 6.33579 13.5 6.75 13.5C7.16421 13.5 7.5 13.1642 7.5 12.75V11.25C7.5 10.8358 7.16421 10.5 6.75 10.5ZM6 6.75C6 6.33579 6.33579 6 6.75 6H7.75C8.16421 6 8.5 6.33579 8.5 6.75C8.5 7.16421 8.16421 7.5 7.75 7.5H7.5V7.75C7.5 8.16421 7.16421 8.5 6.75 8.5C6.33579 8.5 6 8.16421 6 7.75V6.75ZM6.75 15.5C6.33579 15.5 6 15.8358 6 16.25V17.25C6 17.6642 6.33579 18 6.75 18H7.75C8.16421 18 8.5 17.6642 8.5 17.25C8.5 16.8358 8.16421 16.5 7.75 16.5H7.5V16.25C7.5 15.8358 7.16421 15.5 6.75 15.5ZM16.5 11.25C16.5 10.8358 16.8358 10.5 17.25 10.5C17.6642 10.5 18 10.8358 18 11.25V12.75C18 13.1642 17.6642 13.5 17.25 13.5C16.8358 13.5 16.5 13.1642 16.5 12.75V11.25ZM16.5 7.5H16.25C15.8358 7.5 15.5 7.16421 15.5 6.75C15.5 6.33579 15.8358 6 16.25 6H17.25C17.6642 6 18 6.33579 18 6.75V7.75C18 8.16421 17.6642 8.5 17.25 8.5C16.8358 8.5 16.5 8.16421 16.5 7.75V7.5ZM16.5 16.25C16.5 15.8358 16.8358 15.5 17.25 15.5C17.6642 15.5 18 15.8358 18 16.25V17.25C18 17.6642 17.6642 18 17.25 18H16.25C15.8358 18 15.5 17.6642 15.5 17.25C15.5 16.8358 15.8358 16.5 16.25 16.5H16.5V16.25ZM11.25 16.5C10.8358 16.5 10.5 16.8358 10.5 17.25C10.5 17.6642 10.8358 18 11.25 18H12.75C13.1642 18 13.5 17.6642 13.5 17.25C13.5 16.8358 13.1642 16.5 12.75 16.5H11.25Z" fill="black"/>
</svg>
