<svg width="24" height="24" viewBox="0 0 24 24" fill="none" xmlns="http://www.w3.org/2000/svg">
<path fill-rule="evenodd" clip-rule="evenodd" d="M20 5.50543C20 4.67625 19.3273 4.00439 18.4981 4.00416C17.6317 4.00391 16.7552 4.00278 15.8819 4.00165C15.4197 4.00106 14.9584 4.00046 14.5 4C13.6716 3.99917 13 4.67073 13 5.49917V9.49913C13 10.3276 13.6716 10.9991 14.5 10.9991H18.5C19.3284 10.9991 20 10.3276 20 9.49913V5.50543ZM16.9341 6.25885L18.0725 8.25106C18.263 8.58439 18.0223 8.99913 17.6384 8.99913H15.3616C14.9777 8.99913 14.737 8.58439 14.9275 8.25106L16.0659 6.25885C16.2578 5.92294 16.7422 5.92294 16.9341 6.25885Z" fill="black"/>
<path fill-rule="evenodd" clip-rule="evenodd" d="M11 5.50543C11 4.67625 10.3273 4.00439 9.4981 4.00416C8.63175 4.00391 7.75523 4.00278 6.88185 4.00165C6.41971 4.00106 5.95844 4.00046 5.50002 4C4.67158 3.99917 4 4.67073 4 5.49917V9.49913C4 10.3276 4.67157 10.9991 5.5 10.9991H9.5C10.3284 10.9991 11 10.3276 11 9.49913V5.50543ZM7.5 8.99913C8.32843 8.99913 9 8.32756 9 7.49913C9 6.67071 8.32843 5.99913 7.5 5.99913C6.67157 5.99913 6 6.67071 6 7.49913C6 8.32756 6.67157 8.99913 7.5 8.99913Z" fill="black"/>
<path fill-rule="evenodd" clip-rule="evenodd" d="M11 14.5054C11 13.6763 10.3273 13.0044 9.4981 13.0042C8.63188 13.0039 7.7555 13.0028 6.88226 13.0017C6.41997 13.0011 5.95857 13.0005 5.50002 13C4.67158 12.9992 4 13.6707 4 14.4992V18.4991C4 19.3276 4.67157 19.9991 5.5 19.9991H9.5C10.3284 19.9991 11 19.3276 11 18.4991V14.5054ZM6.5 14.9991C6.22386 14.9991 6 15.223 6 15.4991V17.4991C6 17.7753 6.22386 17.9991 6.5 17.9991H8.5C8.77614 17.9991 9 17.7753 9 17.4991V15.4991C9 15.223 8.77614 14.9991 8.5 14.9991H6.5Z" fill="black"/>
<path fill-rule="evenodd" clip-rule="evenodd" d="M20 14.5054C20 13.6763 19.3273 13.0044 18.4981 13.0042C17.6319 13.0039 16.7555 13.0028 15.8823 13.0017C15.42 13.0011 14.9586 13.0005 14.5 13C13.6716 12.9992 13 13.6707 13 14.4992V18.4991C13 19.3276 13.6716 19.9991 14.5 19.9991H18.5C19.3284 19.9991 20 19.3276 20 18.4991V14.5054ZM14.7197 14.7188C15.0126 14.4259 15.4874 14.4259 15.7803 14.7188L16.5 15.4385L17.2197 14.7188C17.5126 14.4259 17.9874 14.4259 18.2803 14.7188C18.5732 15.0117 18.5732 15.4866 18.2803 15.7795L17.5607 16.4991L18.2803 17.2188C18.5732 17.5117 18.5732 17.9866 18.2803 18.2795C17.9874 18.5724 17.5126 18.5724 17.2197 18.2795L16.5 17.5598L15.7803 18.2795C15.4874 18.5724 15.0126 18.5724 14.7197 18.2795C14.4268 17.9866 14.4268 17.5117 14.7197 17.2188L15.4393 16.4991L14.7197 15.7795C14.4268 15.4866 14.4268 15.0117 14.7197 14.7188Z" fill="black"/>
</svg>
