<svg width="24" height="24" viewBox="0 0 24 24" fill="none" xmlns="http://www.w3.org/2000/svg">
<path fill-rule="evenodd" clip-rule="evenodd" d="M6.5 4C5.11929 4 4 5.11929 4 6.5V17.5C4 18.8807 5.11929 20 6.5 20H17.5C18.8807 20 20 18.8807 20 17.5V6.5C20 5.11929 18.8807 4 17.5 4H6.5ZM13.5 7.25C13.5 6.83579 13.8358 6.5 14.25 6.5H16.75C17.1642 6.5 17.5 6.83579 17.5 7.25V9.75C17.5 10.1642 17.1642 10.5 16.75 10.5C16.3358 10.5 16 10.1642 16 9.75V8H14.25C13.8358 8 13.5 7.66421 13.5 7.25ZM7.25 13.5C7.66421 13.5 8 13.8358 8 14.25V16H9.75C10.1642 16 10.5 16.3358 10.5 16.75C10.5 17.1642 10.1642 17.5 9.75 17.5H7.25C6.83579 17.5 6.5 17.1642 6.5 16.75V14.25C6.5 13.8358 6.83579 13.5 7.25 13.5ZM16.75 13.5C17.1642 13.5 17.5 13.8358 17.5 14.25V16.75C17.5 17.1642 17.1642 17.5 16.75 17.5H14.25C13.8358 17.5 13.5 17.1642 13.5 16.75C13.5 16.3358 13.8358 16 14.25 16H16V14.25C16 13.8358 16.3358 13.5 16.75 13.5ZM6.5 7.25C6.5 6.83579 6.83579 6.5 7.25 6.5H9.75C10.1642 6.5 10.5 6.83579 10.5 7.25C10.5 7.66421 10.1642 8 9.75 8H8V9.75C8 10.1642 7.66421 10.5 7.25 10.5C6.83579 10.5 6.5 10.1642 6.5 9.75V7.25Z" fill="black"/>
</svg>
