<svg width="24" height="24" viewBox="0 0 24 24" fill="none" xmlns="http://www.w3.org/2000/svg">
<path fill-rule="evenodd" clip-rule="evenodd" d="M20 5.5063C20 4.67712 19.3273 4.00526 18.4981 4.00503C17.6317 4.00478 16.7552 4.00365 15.8819 4.00252C15.4197 4.00192 14.9584 4.00133 14.5 4.00087C13.6716 4.00003 13 4.67159 13 5.50004V9.5C13 10.3284 13.6716 11 14.5 11H18.5C19.3284 11 20 10.3284 20 9.5V5.5063ZM16.9341 6.25971L18.0725 8.25193C18.263 8.58526 18.0223 9 17.6384 9H15.3616C14.9777 9 14.737 8.58526 14.9275 8.25193L16.0659 6.25971C16.2578 5.92381 16.7422 5.92381 16.9341 6.25971Z" fill="black"/>
<path fill-rule="evenodd" clip-rule="evenodd" d="M11 5.5063C11 4.67712 10.3273 4.00526 9.4981 4.00503C8.63175 4.00478 7.75523 4.00365 6.88185 4.00252C6.41971 4.00192 5.95844 4.00133 5.50002 4.00087C4.67158 4.00003 4 4.67159 4 5.50004V9.5C4 10.3284 4.67157 11 5.5 11H9.5C10.3284 11 11 10.3284 11 9.5V5.5063ZM7.5 9C8.32843 9 9 8.32843 9 7.5C9 6.67157 8.32843 6 7.5 6C6.67157 6 6 6.67157 6 7.5C6 8.32843 6.67157 9 7.5 9Z" fill="black"/>
<path fill-rule="evenodd" clip-rule="evenodd" d="M11 14.5063C11 13.6771 10.3273 13.0053 9.4981 13.005C8.63188 13.0048 7.7555 13.0036 6.88226 13.0025C6.41997 13.0019 5.95857 13.0013 5.50002 13.0009C4.67158 13 4 13.6716 4 14.5V18.5C4 19.3284 4.67157 20 5.5 20H9.5C10.3284 20 11 19.3284 11 18.5V14.5063ZM6.5 15C6.22386 15 6 15.2239 6 15.5V17.5C6 17.7761 6.22386 18 6.5 18H8.5C8.77614 18 9 17.7761 9 17.5V15.5C9 15.2239 8.77614 15 8.5 15H6.5Z" fill="black"/>
<path fill-rule="evenodd" clip-rule="evenodd" d="M20 14.5063C20 13.6771 19.3273 13.0053 18.4981 13.005C17.6319 13.0048 16.7555 13.0036 15.8823 13.0025C15.42 13.0019 14.9586 13.0013 14.5 13.0009C13.6716 13 13 13.6716 13 14.5V18.5C13 19.3284 13.6716 20 14.5 20H18.5C19.3284 20 20 19.3284 20 18.5V14.5063ZM14.7197 14.7197C15.0126 14.4268 15.4874 14.4268 15.7803 14.7197L16.5 15.4393L17.2197 14.7197C17.5126 14.4268 17.9874 14.4268 18.2803 14.7197C18.5732 15.0126 18.5732 15.4874 18.2803 15.7803L17.5607 16.5L18.2803 17.2197C18.5732 17.5126 18.5732 17.9874 18.2803 18.2803C17.9874 18.5732 17.5126 18.5732 17.2197 18.2803L16.5 17.5607L15.7803 18.2803C15.4874 18.5732 15.0126 18.5732 14.7197 18.2803C14.4268 17.9874 14.4268 17.5126 14.7197 17.2197L15.4393 16.5L14.7197 15.7803C14.4268 15.4874 14.4268 15.0126 14.7197 14.7197Z" fill="black"/>
</svg>
