<svg width="24" height="24" viewBox="0 0 24 24" fill="none" xmlns="http://www.w3.org/2000/svg">
<path fill-rule="evenodd" clip-rule="evenodd" d="M19.2103 3.33402L19.7532 2.79112C20.1437 2.4006 20.7769 2.4006 21.1674 2.79112L21.7532 3.37691C22.1437 3.76743 22.1437 4.4006 21.7532 4.79112L21.2103 5.33402L19.2103 3.33402ZM14.6905 9.23985L15.2103 7.33402L18.4603 4.08402L20.4603 6.08402L17.2103 9.33402L15.3045 9.85379C14.9312 9.95558 14.5887 9.6131 14.6905 9.23985Z" fill="black"/>
<path fill-rule="evenodd" clip-rule="evenodd" d="M15.329 5.09368C13.7714 5.09282 12.2018 5.09093 10.6369 5.08905C9.40576 5.08756 8.17756 5.08608 6.96038 5.08511C5.57964 5.08402 4.46045 6.20333 4.46045 7.58406V16.584C4.46045 17.9647 5.57974 19.084 6.96045 19.084H16.9604C18.3412 19.084 19.4604 17.9647 19.4604 16.584V9.2049L18.2707 10.3947C18.0861 10.5793 17.8565 10.7125 17.6047 10.7812L15.6989 11.3009C14.4583 11.6393 13.3027 10.7507 13.181 9.584H11.2114C10.7972 9.584 10.4614 9.24822 10.4614 8.834C10.4614 8.41979 10.7972 8.084 11.2114 8.084H13.4507L13.7629 6.93934C13.8315 6.6875 13.9648 6.45794 14.1493 6.27336L15.329 5.09368ZM7.71045 11.584C7.29624 11.584 6.96045 11.9198 6.96045 12.334C6.96045 12.7482 7.29624 13.084 7.71045 13.084C8.12466 13.084 8.46095 12.7482 8.46095 12.334C8.46095 11.9198 8.12466 11.584 7.71045 11.584ZM10.4614 12.334C10.4614 11.9198 10.7972 11.584 11.2114 11.584H16.2114C16.6256 11.584 16.9614 11.9198 16.9614 12.334C16.9614 12.7482 16.6256 13.084 16.2114 13.084H11.2114C10.7972 13.084 10.4614 12.7482 10.4614 12.334ZM7.71045 8.084C7.29624 8.084 6.96045 8.41979 6.96045 8.834C6.96045 9.24822 7.29624 9.584 7.71045 9.584C8.12466 9.584 8.46095 9.24822 8.46095 8.834C8.46095 8.41979 8.12466 8.084 7.71045 8.084ZM7.71045 15.084C7.29624 15.084 6.96045 15.4198 6.96045 15.834C6.96045 16.2482 7.29624 16.584 7.71045 16.584C8.12466 16.584 8.46095 16.2482 8.46095 15.834C8.46095 15.4198 8.12466 15.084 7.71045 15.084ZM10.4614 15.834C10.4614 15.4198 10.7972 15.084 11.2114 15.084H16.2114C16.6256 15.084 16.9614 15.4198 16.9614 15.834C16.9614 16.2482 16.6256 16.584 16.2114 16.584H11.2114C10.7972 16.584 10.4614 16.2482 10.4614 15.834Z" fill="black"/>
</svg>
