<svg width="24" height="24" viewBox="0 0 24 24" fill="none" xmlns="http://www.w3.org/2000/svg">
<path fill-rule="evenodd" clip-rule="evenodd" d="M19.2103 3.334L19.7532 2.79111C20.1437 2.40058 20.7769 2.40058 21.1674 2.79111L21.7532 3.37689C22.1437 3.76742 22.1437 4.40058 21.7532 4.79111L21.2103 5.334L19.2103 3.334ZM14.6905 9.23983L15.2103 7.334L18.4603 4.084L20.4603 6.084L17.2103 9.334L15.3045 9.85377C14.9312 9.95557 14.5887 9.61308 14.6905 9.23983Z" fill="black"/>
<path fill-rule="evenodd" clip-rule="evenodd" d="M15.329 5.09366C13.7714 5.0928 12.2018 5.09091 10.6369 5.08903C9.40576 5.08755 8.17756 5.08607 6.96038 5.0851C5.57964 5.084 4.46045 6.20331 4.46045 7.58404V16.584C4.46045 17.9647 5.57974 19.084 6.96045 19.084H16.9604C18.3412 19.084 19.4604 17.9647 19.4604 16.584V9.20488L18.2707 10.3947C18.0861 10.5792 17.8565 10.7125 17.6047 10.7811L15.6989 11.3009C14.4583 11.6392 13.3027 10.7506 13.181 9.58399H11.2114C10.7972 9.58399 10.4614 9.2482 10.4614 8.83399C10.4614 8.41977 10.7972 8.08399 11.2114 8.08399H13.4507L13.7629 6.93933C13.8315 6.68748 13.9648 6.45793 14.1493 6.27334L15.329 5.09366ZM7.71045 11.584C7.29624 11.584 6.96045 11.9198 6.96045 12.334C6.96045 12.7482 7.29624 13.084 7.71045 13.084C8.12466 13.084 8.46095 12.7482 8.46095 12.334C8.46095 11.9198 8.12466 11.584 7.71045 11.584ZM10.4614 12.334C10.4614 11.9198 10.7972 11.584 11.2114 11.584H16.2114C16.6256 11.584 16.9614 11.9198 16.9614 12.334C16.9614 12.7482 16.6256 13.084 16.2114 13.084H11.2114C10.7972 13.084 10.4614 12.7482 10.4614 12.334ZM7.71045 8.08399C7.29624 8.08399 6.96045 8.41977 6.96045 8.83399C6.96045 9.2482 7.29624 9.58399 7.71045 9.58399C8.12466 9.58399 8.46095 9.2482 8.46095 8.83399C8.46095 8.41977 8.12466 8.08399 7.71045 8.08399ZM7.71045 15.084C7.29624 15.084 6.96045 15.4198 6.96045 15.834C6.96045 16.2482 7.29624 16.584 7.71045 16.584C8.12466 16.584 8.46095 16.2482 8.46095 15.834C8.46095 15.4198 8.12466 15.084 7.71045 15.084ZM10.4614 15.834C10.4614 15.4198 10.7972 15.084 11.2114 15.084H16.2114C16.6256 15.084 16.9614 15.4198 16.9614 15.834C16.9614 16.2482 16.6256 16.584 16.2114 16.584H11.2114C10.7972 16.584 10.4614 16.2482 10.4614 15.834Z" fill="black"/>
</svg>
