<svg width="24" height="24" viewBox="0 0 24 24" fill="none" xmlns="http://www.w3.org/2000/svg">
<path fill-rule="evenodd" clip-rule="evenodd" d="M6.5 4C5.11929 4 4 5.11929 4 6.5V17.5C4 18.8807 5.11929 20 6.5 20H17.5C18.8807 20 20 18.8807 20 17.5V6.5C20 5.11929 18.8807 4 17.5 4H6.5ZM8.5 10.75C8.5 10.3358 8.83579 10 9.25 10H10.25C10.6642 10 11 9.66421 11 9.25C11 8.83579 10.6642 8.5 10.25 8.5H9.25C8.00736 8.5 7 9.50736 7 10.75V14.75C7 15.9926 8.00736 17 9.25 17H13.25C14.4926 17 15.5 15.9926 15.5 14.75V13.75C15.5 13.3358 15.1642 13 14.75 13C14.3358 13 14 13.3358 14 13.75V14.75C14 15.1642 13.6642 15.5 13.25 15.5H9.25C8.83579 15.5 8.5 15.1642 8.5 14.75V10.75ZM12 7.75C12 7.33579 12.3358 7 12.75 7H16.2497L16.2522 7C16.3531 7.0003 16.4493 7.02051 16.5371 7.05691C16.6255 7.09351 16.7084 7.14776 16.7803 7.21967C16.8522 7.29158 16.9065 7.37445 16.9431 7.46291C16.9798 7.55134 17 7.64831 17 7.75V11.25C17 11.6642 16.6642 12 16.25 12C15.8358 12 15.5 11.6642 15.5 11.25V9.56066L11.7803 13.2803C11.4874 13.5732 11.0126 13.5732 10.7197 13.2803C10.4268 12.9874 10.4268 12.5126 10.7197 12.2197L14.4393 8.5H12.75C12.3358 8.5 12 8.16421 12 7.75Z" fill="black"/>
</svg>
