<svg width="24" height="24" viewBox="0 0 24 24" fill="none" xmlns="http://www.w3.org/2000/svg">
<path fill-rule="evenodd" clip-rule="evenodd" d="M13.2548 4.97942C12.4131 4.97857 11.5702 4.97755 10.7287 4.97654C9.49755 4.97506 8.26935 4.97358 7.05217 4.97261C5.67144 4.97151 4.55225 6.09082 4.55225 7.47155V16.4715C4.55225 17.8522 5.67153 18.9715 7.05225 18.9715H17.0522C18.433 18.9715 19.5522 17.8522 19.5522 16.4715V11.2627C18.5794 11.6926 17.3446 11.4587 16.6569 10.5608C15.8514 10.6862 15.0793 10.3579 14.5858 9.83379C14.4821 9.72367 14.3879 9.60215 14.3051 9.4715H11.3032C10.889 9.4715 10.5532 9.13571 10.5532 8.7215C10.5532 8.30728 10.889 7.9715 11.3032 7.9715H13.9338C13.937 7.93486 13.9411 7.89815 13.9461 7.86138C13.0665 7.17866 12.8361 5.94882 13.2548 4.97942ZM7.80225 11.4715C7.38803 11.4715 7.05225 11.8073 7.05225 12.2215C7.05225 12.6357 7.38803 12.9715 7.80225 12.9715C8.21646 12.9715 8.55275 12.6357 8.55275 12.2215C8.55275 11.8073 8.21646 11.4715 7.80225 11.4715ZM10.5532 12.2215C10.5532 11.8073 10.889 11.4715 11.3032 11.4715H16.3032C16.7174 11.4715 17.0532 11.8073 17.0532 12.2215C17.0532 12.6357 16.7174 12.9715 16.3032 12.9715H11.3032C10.889 12.9715 10.5532 12.6357 10.5532 12.2215ZM7.80225 7.9715C7.38803 7.9715 7.05225 8.30728 7.05225 8.7215C7.05225 9.13571 7.38803 9.4715 7.80225 9.4715C8.21646 9.4715 8.55275 9.13571 8.55275 8.7215C8.55275 8.30728 8.21646 7.9715 7.80225 7.9715ZM7.80225 14.9715C7.38803 14.9715 7.05225 15.3073 7.05225 15.7215C7.05225 16.1357 7.38803 16.4715 7.80225 16.4715C8.21646 16.4715 8.55275 16.1357 8.55275 15.7215C8.55275 15.3073 8.21646 14.9715 7.80225 14.9715ZM10.5532 15.7215C10.5532 15.3073 10.889 14.9715 11.3032 14.9715H16.3032C16.7174 14.9715 17.0532 15.3073 17.0532 15.7215C17.0532 16.1357 16.7174 16.4715 16.3032 16.4715H11.3032C10.889 16.4715 10.5532 16.1357 10.5532 15.7215Z" fill="black"/>
<path fill-rule="evenodd" clip-rule="evenodd" d="M17.6744 2.68372C17.8913 1.73409 19.2132 1.73409 19.4301 2.68372C19.5169 3.06354 19.941 3.24624 20.2662 3.04318L20.3443 2.9944C21.1401 2.49751 22.0395 3.45348 21.5293 4.2523C21.3209 4.57866 21.4959 5.01831 21.868 5.1014C22.7803 5.30519 22.7803 6.6378 21.868 6.84159C21.4959 6.92468 21.3209 7.36433 21.5293 7.69069C22.0395 8.48951 21.1401 9.44548 20.3443 8.94859L20.2662 8.89982C19.941 8.69676 19.5169 8.87945 19.4301 9.25927C19.2132 10.2089 17.8913 10.2089 17.6744 9.25927C17.5876 8.87945 17.1635 8.69676 16.8383 8.89982L16.7602 8.94859C15.9644 9.44548 15.065 8.48951 15.5752 7.69069C15.7836 7.36433 15.6086 6.92468 15.2365 6.84159C14.3242 6.6378 14.3242 5.30519 15.2365 5.1014C15.6086 5.01831 15.7836 4.57866 15.5752 4.2523C15.065 3.45348 15.9644 2.49751 16.7602 2.9944L16.8383 3.04318C17.1635 3.24624 17.5876 3.06354 17.6744 2.68372ZM18.5522 7.4715C19.3807 7.4715 20.0522 6.79992 20.0522 5.9715C20.0522 5.14307 19.3807 4.4715 18.5522 4.4715C17.7238 4.4715 17.0522 5.14307 17.0522 5.9715C17.0522 6.79992 17.7238 7.4715 18.5522 7.4715Z" fill="black"/>
</svg>
