<svg width="24" height="24" viewBox="0 0 24 24" fill="none" xmlns="http://www.w3.org/2000/svg">
<path fill-rule="evenodd" clip-rule="evenodd" d="M16.9968 3.01302C18.1027 3.01281 19 3.9087 19 5.01455V17H5V5.00006C5 3.89547 5.89534 3 6.99993 3.00108C8.24505 3.0023 9.50347 3.00439 10.7652 3.00648C12.8485 3.00994 14.9408 3.01341 16.9968 3.01302ZM9.25 5.25C9.25 4.83579 9.58579 4.5 10 4.5H14C14.4142 4.5 14.75 4.83579 14.75 5.25C14.75 5.66421 14.4142 6 14 6H10C9.58579 6 9.25 5.66421 9.25 5.25Z" fill="black"/>
<path d="M5 18.5V19C5 20.1046 5.89543 21 7 21H17C18.1046 21 19 20.1046 19 19V18.5H5Z" fill="black"/>
</svg>
