<svg width="24" height="24" viewBox="0 0 24 24" fill="none" xmlns="http://www.w3.org/2000/svg">
<path d="M4.48035 11.247L14.0148 7.33003C14.9548 6.92103 18.1438 5.61753 18.1438 5.61753C18.1438 5.61753 19.6148 5.04353 19.4928 6.43253C19.4518 7.00653 19.1243 9.00153 18.7968 11.1765L17.7758 17.5985C17.7758 17.5985 17.6943 18.54 16.9988 18.703C16.3028 18.8655 15.1578 18.1315 14.9543 17.9665C14.7918 17.8445 11.8893 16.0055 10.8253 15.1045C10.5383 14.8605 10.2108 14.3705 10.8658 13.7965C12.3388 12.448 14.0958 10.7715 15.1578 9.70803C15.6503 9.21803 16.1403 8.07303 14.0878 9.46403L8.32285 13.324C8.32285 13.324 7.66785 13.7325 6.44135 13.364C5.55141 13.0927 4.6658 12.8073 3.78485 12.508C3.78485 12.508 2.80485 11.896 4.48035 11.241V11.247Z" fill="black"/>
</svg>
