<svg width="24" height="24" viewBox="0 0 24 24" fill="none" xmlns="http://www.w3.org/2000/svg">
<path d="M16.6122 12.0396C17.1572 12.4129 17.863 12.4855 18.4705 12.2573C18.4899 12.335 18.5002 12.4163 18.5002 12.5V13.5H19.5002C20.0524 13.5 20.5002 13.9477 20.5002 14.5C20.5002 15.0523 20.0524 15.5 19.5002 15.5H18.5002V18.5C18.5002 18.7761 18.724 19 19.0002 19H20.0002C20.5524 19 21.0002 19.4477 21.0002 20C21.0002 20.5523 20.5524 21 20.0002 21H19.0002C17.6194 21 16.5002 19.8807 16.5002 18.5V15.5H16.0002C15.4479 15.5 15.0002 15.0523 15.0002 14.5C15.0002 13.9477 15.4479 13.5 16.0002 13.5H16.5002V12.5C16.5002 12.334 16.5406 12.1774 16.6122 12.0396Z" fill="black"/>
<path d="M12.1994 6C12.3592 6.15579 12.556 6.28576 12.7897 6.37796L13.0283 6.47206L13.1224 6.71065C13.1616 6.81009 13.2077 6.90282 13.2597 6.98887C13.131 7.30943 13.0874 7.65946 13.1288 8H11.5002V18.323C11.5002 18.7319 11.7491 19.0996 12.1288 19.2514L13.6253 19.8501C13.8517 19.9406 14.0002 20.1599 14.0002 20.4037C14.0002 20.733 13.7332 21 13.4039 21H7.09645C6.76712 21 6.50015 20.733 6.50015 20.4037C6.50015 20.1599 6.6486 19.9406 6.87499 19.8501L8.37154 19.2514C8.7512 19.0996 9.00015 18.7319 9.00015 18.323V8H5.91437C5.64915 8 5.3948 8.10536 5.20726 8.2929L4.16849 9.33167C4.06071 9.43945 3.91452 9.5 3.76209 9.5C3.38025 9.5 3.10458 9.13453 3.20947 8.76738L3.79293 6.72528C3.91559 6.29598 4.30798 6 4.75446 6H12.1994Z" fill="black"/>
<path d="M14.9822 3.33968C14.899 3.12864 14.6003 3.12864 14.5171 3.33968L14.2238 4.0833C14.1984 4.14774 14.1474 4.19874 14.0829 4.22415L13.3393 4.51743C13.1283 4.60066 13.1283 4.89933 13.3393 4.98256L14.0829 5.27585C14.1474 5.30126 14.1984 5.35226 14.2238 5.41669L14.5171 6.16032C14.6003 6.37135 14.899 6.37135 14.9822 6.16032L15.2755 5.41669C15.3009 5.35226 15.3519 5.30126 15.4163 5.27585L16.16 4.98256C16.371 4.89933 16.371 4.60066 16.16 4.51743L15.4163 4.22415C15.3519 4.19874 15.3009 4.14774 15.2755 4.0833L14.9822 3.33968Z" fill="black"/>
<path d="M18.215 4.92935C18.0485 4.50728 17.4512 4.50728 17.2847 4.92935L16.6982 6.41661C16.6474 6.54547 16.5454 6.64748 16.4165 6.6983L14.9292 7.28486C14.5072 7.45133 14.5072 8.04867 14.9292 8.21513L16.4165 8.80169C16.5454 8.85252 16.6474 8.95452 16.6982 9.08338L17.2847 10.5706C17.4512 10.9927 18.0485 10.9927 18.215 10.5706L18.8016 9.08338C18.8524 8.95452 18.9544 8.85252 19.0833 8.80169L20.5705 8.21513C20.9926 8.04867 20.9926 7.45133 20.5705 7.28486L19.0833 6.6983C18.9544 6.64748 18.8524 6.54547 18.8016 6.41661L18.215 4.92935Z" fill="black"/>
</svg>
