<svg width="24" height="24" viewBox="0 0 24 24" fill="none" xmlns="http://www.w3.org/2000/svg">
<path d="M16.6122 12.0398C17.1572 12.4132 17.863 12.4858 18.4705 12.2576C18.4899 12.3353 18.5002 12.4166 18.5002 12.5002V13.5002H19.5002C20.0524 13.5002 20.5002 13.948 20.5002 14.5002C20.5002 15.0525 20.0524 15.5002 19.5002 15.5002H18.5002V18.5002C18.5002 18.7764 18.724 19.0002 19.0002 19.0002H20.0002C20.5524 19.0002 21.0002 19.448 21.0002 20.0002C21.0002 20.5525 20.5524 21.0002 20.0002 21.0002H19.0002C17.6194 21.0002 16.5002 19.881 16.5002 18.5002V15.5002H16.0002C15.4479 15.5002 15.0002 15.0525 15.0002 14.5002C15.0002 13.948 15.4479 13.5002 16.0002 13.5002H16.5002V12.5002C16.5002 12.3342 16.5406 12.1776 16.6122 12.0398Z" fill="black"/>
<path d="M12.1994 6.00024C12.3592 6.15603 12.556 6.286 12.7897 6.3782L13.0283 6.4723L13.1224 6.7109C13.1616 6.81033 13.2077 6.90307 13.2597 6.98911C13.131 7.30967 13.0874 7.6597 13.1288 8.00024H11.5002V18.3232C11.5002 18.7321 11.7491 19.0998 12.1288 19.2517L13.6253 19.8503C13.8517 19.9409 14.0002 20.1601 14.0002 20.404C14.0002 20.7333 13.7332 21.0002 13.4039 21.0002H7.09645C6.76712 21.0002 6.50015 20.7333 6.50015 20.404C6.50015 20.1601 6.6486 19.9409 6.87499 19.8503L8.37154 19.2517C8.7512 19.0998 9.00015 18.7321 9.00015 18.3232V8.00024H5.91437C5.64915 8.00024 5.3948 8.1056 5.20726 8.29314L4.16849 9.33191C4.06071 9.43969 3.91452 9.50024 3.76209 9.50024C3.38025 9.50024 3.10458 9.13477 3.20947 8.76762L3.79293 6.72552C3.91559 6.29622 4.30798 6.00024 4.75446 6.00024H12.1994Z" fill="black"/>
<path d="M14.9822 3.33992C14.899 3.12888 14.6003 3.12888 14.5171 3.33992L14.2238 4.08355C14.1984 4.14798 14.1474 4.19898 14.0829 4.22439L13.3393 4.51767C13.1283 4.6009 13.1283 4.89957 13.3393 4.98281L14.0829 5.27609C14.1474 5.3015 14.1984 5.3525 14.2238 5.41693L14.5171 6.16056C14.6003 6.3716 14.899 6.3716 14.9822 6.16056L15.2755 5.41693C15.3009 5.3525 15.3519 5.3015 15.4163 5.27609L16.16 4.98281C16.371 4.89957 16.371 4.6009 16.16 4.51767L15.4163 4.22439C15.3519 4.19898 15.3009 4.14798 15.2755 4.08355L14.9822 3.33992Z" fill="black"/>
<path d="M18.215 4.9296C18.0485 4.50752 17.4512 4.50752 17.2847 4.9296L16.6982 6.41685C16.6474 6.54572 16.5454 6.64772 16.4165 6.69854L14.9292 7.28511C14.5072 7.45157 14.5072 8.04891 14.9292 8.21537L16.4165 8.80194C16.5454 8.85276 16.6474 8.95476 16.6982 9.08362L17.2847 10.5709C17.4512 10.993 18.0485 10.993 18.215 10.5709L18.8016 9.08362C18.8524 8.95476 18.9544 8.85276 19.0833 8.80194L20.5705 8.21537C20.9926 8.04891 20.9926 7.45157 20.5705 7.28511L19.0833 6.69854C18.9544 6.64772 18.8524 6.54572 18.8016 6.41685L18.215 4.9296Z" fill="black"/>
</svg>
