<svg width="24" height="24" viewBox="0 0 24 24" fill="none" xmlns="http://www.w3.org/2000/svg">
<path d="M4.75397 4.5H15.7454C16.1918 4.5 16.5842 4.79598 16.7069 5.22528L17.2903 7.26738C17.3952 7.63453 17.1196 8 16.7377 8C16.5853 8 16.4391 7.93945 16.3313 7.83167L15.2926 6.79289C15.105 6.60536 14.8507 6.5 14.5855 6.5H11.4997V16.823C11.4997 17.2319 11.7486 17.5996 12.1283 17.7514L13.6248 18.3501C13.8512 18.4406 13.9997 18.6599 13.9997 18.9037C13.9997 19.233 13.7327 19.5 13.4034 19.5H7.09596C6.76663 19.5 6.49967 19.233 6.49967 18.9037C6.49967 18.6599 6.64811 18.4406 6.8745 18.3501L8.37106 17.7514C8.75071 17.5996 8.99967 17.2319 8.99967 16.823V6.5H5.91388C5.64866 6.5 5.39431 6.60536 5.20677 6.79289L4.168 7.83167C4.06022 7.93945 3.91403 8 3.7616 8C3.37976 8 3.10409 7.63453 3.20899 7.26738L3.79244 5.22528C3.9151 4.79598 4.30749 4.5 4.75397 4.5Z" fill="black"/>
<path d="M17.4997 10C18.0519 10 18.4997 10.4477 18.4997 11V12H19.4997C20.0519 12 20.4997 12.4477 20.4997 13C20.4997 13.5523 20.0519 14 19.4997 14H18.4997V17C18.4997 17.2761 18.7235 17.5 18.9997 17.5H19.9997C20.5519 17.5 20.9997 17.9477 20.9997 18.5C20.9997 19.0523 20.5519 19.5 19.9997 19.5H18.9997C17.619 19.5 16.4997 18.3807 16.4997 17V14H15.9997C15.4474 14 14.9997 13.5523 14.9997 13C14.9997 12.4477 15.4474 12 15.9997 12H16.4997V11C16.4997 10.4477 16.9474 10 17.4997 10Z" fill="black"/>
</svg>
