<svg width="24" height="24" viewBox="0 0 24 24" fill="none" xmlns="http://www.w3.org/2000/svg">
<path fill-rule="evenodd" clip-rule="evenodd" d="M11.6207 3.10325C10.1079 3.27876 8.79341 4.19954 8.10555 5.56563L7.96139 5.85195L7.47878 5.88516C6.23424 5.97088 5.22967 6.40188 4.4447 7.18684C3.62934 8.00221 3.16113 9.16315 3.16113 10.3695C3.16113 12.5292 4.59914 14.3164 6.68907 14.7541C7.41488 14.9061 8.30062 14.8847 8.81785 14.7027C9.07649 14.6117 9.10177 14.6188 9.19274 14.8096C9.31017 15.0559 9.65381 15.4888 9.91339 15.7176C10.9942 16.6699 12.6378 16.8186 13.8781 16.0764C14.4311 15.7454 14.7663 15.3881 15.1571 14.7129C15.2011 14.6369 15.2286 14.6385 15.6028 14.7393C16.184 14.8959 17.122 14.8846 17.7838 14.7129C19.2554 14.3314 20.3311 13.3549 20.8729 11.9089C21.0454 11.4482 21.1147 11.0071 21.1147 10.3695C21.1147 10.047 21.0853 9.63529 21.0493 9.45467C20.7223 7.81474 19.4638 6.46394 17.8781 6.05096C17.6717 5.9972 17.2359 5.92926 16.9097 5.89999L16.3167 5.84679L16.1918 5.592C15.7482 4.68754 14.8806 3.84595 13.9852 3.45159C13.6123 3.28734 13.0886 3.1534 12.6003 3.09739C12.1546 3.0463 12.1092 3.04658 11.6207 3.10325ZM7.81994 16.6364C7.23408 16.794 6.84305 17.139 6.6416 17.6763C6.40632 18.3038 6.61096 19.1231 7.09896 19.5071C7.67605 19.9612 8.33318 20.0391 8.96877 19.7286C9.30107 19.5663 9.53855 19.3193 9.70978 18.958C9.83758 18.6883 9.85578 18.6001 9.85578 18.2511C9.85578 17.9014 9.83781 17.8148 9.70973 17.5474C9.4639 17.0341 9.04712 16.717 8.47716 16.6097C8.16462 16.5509 8.13314 16.5522 7.81994 16.6364ZM3.99151 18.8573C3.44665 19.0072 3.16489 19.3688 3.1617 19.9221C3.15836 20.5014 3.47264 20.9024 4.02792 21.0271C4.71512 21.1816 5.37548 20.6554 5.37548 19.9535C5.37548 19.5316 5.14663 19.1252 4.81326 18.9552C4.6052 18.849 4.19789 18.8005 3.99151 18.8573Z" fill="black"/>
</svg>
