<svg width="24" height="24" viewBox="0 0 24 24" fill="none" xmlns="http://www.w3.org/2000/svg">
<path d="M4.48926 9.48089C4.48926 9.06668 4.82504 8.7309 5.23926 8.7309H6.91309C7.32731 8.7309 7.66309 9.06668 7.66309 9.4809V18.0118C7.66309 18.426 7.32731 18.7618 6.91309 18.7618H5.23926C4.82504 18.7618 4.48926 18.426 4.48926 18.0118V9.48089Z" fill="black"/>
<path d="M12.5576 4.24009L9.52008 8.28222C9.32482 8.54206 9.21924 8.8583 9.21924 9.18334V17.7619C9.21924 18.3142 9.66695 18.7619 10.2192 18.7619H15.5751C16.3602 18.7619 17.0726 18.3026 17.3967 17.5875L19.2429 13.5142C19.4193 13.1251 19.5105 12.7029 19.5105 12.2757V9.68256C19.5105 9.13028 19.0628 8.68256 18.5105 8.68256H14.1789C13.8431 8.68256 13.6027 8.35805 13.7006 8.03679L14.1698 6.49734C14.4069 5.71971 14.2494 4.87342 13.7503 4.23171C13.4469 3.84156 12.8545 3.84497 12.5576 4.24009Z" fill="black"/>
</svg>
