<svg width="24" height="24" viewBox="0 0 24 24" fill="none" xmlns="http://www.w3.org/2000/svg">
<path fill-rule="evenodd" clip-rule="evenodd" d="M12.0002 13.1006L10.031 19.5H13.9691L12.0002 13.1006ZM12.956 11.1063C12.6664 10.1651 11.3341 10.165 11.0444 11.1063L8 21H16L12.956 11.1063Z" fill="black"/>
<path d="M13 8C13 8.55228 12.5523 9 12 9C11.4477 9 11 8.55228 11 8C11 7.44771 11.4477 7 12 7C12.5523 7 13 7.44771 13 8Z" fill="black"/>
<path fill-rule="evenodd" clip-rule="evenodd" d="M3.25 20.25C3.25 19.8358 3.58579 19.5 4 19.5H20C20.4142 19.5 20.75 19.8358 20.75 20.25C20.75 20.6642 20.4142 21 20 21H4C3.58579 21 3.25 20.6642 3.25 20.25Z" fill="black"/>
<path fill-rule="evenodd" clip-rule="evenodd" d="M10.2317 6.23223C9.25544 7.20854 9.25544 8.79146 10.2317 9.76777C10.5246 10.0607 10.5246 10.5355 10.2317 10.8284C9.93885 11.1213 9.46398 11.1213 9.17109 10.8284C7.60899 9.26633 7.60899 6.73367 9.17109 5.17157C9.46398 4.87868 9.93885 4.87868 10.2317 5.17157C10.5246 5.46447 10.5246 5.93934 10.2317 6.23223Z" fill="black"/>
<path fill-rule="evenodd" clip-rule="evenodd" d="M8.11088 4.11091C5.963 6.2588 5.963 9.7412 8.11088 11.8891C8.40377 12.182 8.40377 12.6569 8.11088 12.9497C7.81799 13.2426 7.34311 13.2426 7.05022 12.9497C4.31655 10.2161 4.31655 5.78392 7.05022 3.05025C7.34311 2.75736 7.81799 2.75736 8.11088 3.05025C8.40377 3.34315 8.40377 3.81802 8.11088 4.11091Z" fill="black"/>
<path fill-rule="evenodd" clip-rule="evenodd" d="M13.7683 9.76777C14.7446 8.79146 14.7446 7.20854 13.7683 6.23223C13.4754 5.93934 13.4754 5.46447 13.7683 5.17157C14.0611 4.87868 14.536 4.87868 14.8289 5.17157C16.391 6.73367 16.391 9.26633 14.8289 10.8284C14.536 11.1213 14.0611 11.1213 13.7683 10.8284C13.4754 10.5355 13.4754 10.0607 13.7683 9.76777Z" fill="black"/>
<path fill-rule="evenodd" clip-rule="evenodd" d="M15.8891 11.8891C18.037 9.7412 18.037 6.2588 15.8891 4.11091C15.5962 3.81802 15.5962 3.34314 15.8891 3.05025C16.182 2.75736 16.6569 2.75736 16.9498 3.05025C19.6834 5.78392 19.6834 10.2161 16.9498 12.9497C16.6569 13.2426 16.182 13.2426 15.8891 12.9497C15.5962 12.6569 15.5962 12.182 15.8891 11.8891Z" fill="black"/>
<path fill-rule="evenodd" clip-rule="evenodd" d="M9.6279 16.3488L13.1279 14.3488L13.8721 15.6512L11.6582 16.9163L14.8046 18.3146L14.1954 19.6854L9.6954 17.6854C9.43705 17.5705 9.26521 17.3202 9.25095 17.0378C9.23669 16.7555 9.38243 16.4891 9.6279 16.3488Z" fill="black"/>
</svg>
