<svg width="24" height="24" viewBox="0 0 24 24" fill="none" xmlns="http://www.w3.org/2000/svg">
<path fill-rule="evenodd" clip-rule="evenodd" d="M8.5 3.75C8.5 3.33579 8.83579 3 9.25 3H14.75C15.1642 3 15.5 3.33579 15.5 3.75V6H18.5C19.0523 6 19.5 6.44772 19.5 7C19.5 7.55228 19.0523 8 18.5 8H5.5C4.94772 8 4.5 7.55228 4.5 7C4.5 6.44772 4.94772 6 5.5 6H8.5V3.75ZM14 4.5V6H10V4.5H14Z" fill="black"/>
<path fill-rule="evenodd" clip-rule="evenodd" d="M18.5 9.5H5.5V19C5.5 20.1046 6.39543 21 7.5 21H16.5C17.6046 21 18.5 20.1046 18.5 19V9.5ZM9.75 12.75C9.75 12.3358 9.41421 12 9 12C8.58579 12 8.25 12.3358 8.25 12.75V17.25C8.25 17.6642 8.58579 18 9 18C9.41421 18 9.75 17.6642 9.75 17.25V12.75ZM12.75 12.75C12.75 12.3358 12.4142 12 12 12C11.5858 12 11.25 12.3358 11.25 12.75V17.25C11.25 17.6642 11.5858 18 12 18C12.4142 18 12.75 17.6642 12.75 17.25V12.75ZM15 12C15.4142 12 15.75 12.3358 15.75 12.75V17.25C15.75 17.6642 15.4142 18 15 18C14.5858 18 14.25 17.6642 14.25 17.25V12.75C14.25 12.3358 14.5858 12 15 12Z" fill="black"/>
</svg>
