<svg width="24" height="24" viewBox="0 0 24 24" fill="none" xmlns="http://www.w3.org/2000/svg">
<path fill-rule="evenodd" clip-rule="evenodd" d="M13.3023 4.77914C12.7265 3.77142 11.2734 3.77142 10.6976 4.77914L3.28237 17.7558C2.71095 18.7558 3.433 20 4.58474 20H19.4152C20.5669 20 21.289 18.7558 20.7176 17.7558L13.3023 4.77914ZM11.9996 15C11.2953 15 10.7107 14.4557 10.6606 13.7532L10.3743 9.74555C10.3069 8.80231 11.054 8 11.9996 8C12.9453 8 13.6923 8.80231 13.6249 9.74555L13.3387 13.7532C13.2885 14.4557 12.7039 15 11.9996 15ZM11.9996 16C12.69 16 13.2496 16.5596 13.2496 17.25C13.2496 17.9404 12.69 18.5 11.9996 18.5C11.3093 18.5 10.7496 17.9404 10.7496 17.25C10.7496 16.5596 11.3093 16 11.9996 16Z" fill="black"/>
</svg>
