<svg width="24" height="24" viewBox="0 0 24 24" fill="none" xmlns="http://www.w3.org/2000/svg">
<path fill-rule="evenodd" clip-rule="evenodd" d="M14.2222 6C14.7131 6 15.1111 6.42981 15.1111 6.96V7.44H16.4857C16.7419 7.44004 16.9858 7.55942 17.1545 7.76766L19.7799 11.0086C19.9217 11.1836 20 11.4084 20 11.6409V15.12C20 15.6502 19.602 16.08 19.1111 16.08H18.6541C18.5435 17.16 17.6961 18 16.6667 18C15.6372 18 14.7898 17.16 14.6793 16.08H9.32075C9.21018 17.16 8.36278 18 7.33333 18C6.30389 18 5.45648 17.16 5.34592 16.08H4.88889C4.39797 16.08 4 15.6502 4 15.12V6.96C4 6.42981 4.39797 6 4.88889 6H14.2222ZM7.33333 15.12C6.96514 15.12 6.66667 15.4424 6.66667 15.84C6.66667 16.2376 6.96514 16.56 7.33333 16.56C7.70152 16.56 8 16.2376 8 15.84C8 15.4424 7.70152 15.12 7.33333 15.12ZM16.6667 15.12C16.2985 15.12 16 15.4424 16 15.84C16 16.2376 16.2985 16.56 16.6667 16.56C17.0349 16.56 17.3333 16.2376 17.3333 15.84C17.3333 15.4424 17.0349 15.12 16.6667 15.12ZM15.1111 8.88V11.28H18.2222L16.487 9.19781C16.3184 8.99556 16.0783 8.88001 15.8264 8.88H15.1111Z" fill="black"/>
</svg>
