<svg width="24" height="24" viewBox="0 0 24 24" fill="none" xmlns="http://www.w3.org/2000/svg">
<path d="M18.284 8.7875V9.2185C18.284 13.5285 15.021 18.5155 8.987 18.5155C7.202 18.5155 5.4775 18.023 4 17.038C4.2465 17.0995 4.4925 17.0995 4.8 17.0995C6.278 17.0995 7.694 16.607 8.864 15.6835C7.448 15.6835 6.2165 14.7595 5.847 13.405C6.3395 13.5285 6.832 13.4665 7.3245 13.3435C5.7855 13.036 4.739 11.681 4.739 10.142V10.0805C5.17 10.3265 5.724 10.45 6.2165 10.5115C4.8005 9.5265 4.3695 7.679 5.2315 6.14C6.894 8.172 9.3565 9.403 11.9425 9.5265C11.696 8.418 12.0655 7.1865 12.866 6.3865C14.159 5.155 16.2525 5.2165 17.4835 6.5095C18.2225 6.3865 18.8995 6.0785 19.577 5.7095C19.3305 6.448 18.838 7.125 18.161 7.4945C18.7981 7.4252 19.421 7.25912 20.008 7.002C19.454 7.802 18.8995 8.357 18.284 8.7875Z" fill="black"/>
</svg>
