<svg width="24" height="24" viewBox="0 0 24 24" fill="none" xmlns="http://www.w3.org/2000/svg">
<path d="M15.4576 10.8503C15.4513 10.4026 15.4169 9.94914 15.3573 9.5C14.9812 6.66499 13.6022 4 11.9587 4C10.3151 4 8.93615 6.66499 8.56003 9.5C8.50045 9.94914 8.46603 10.4026 8.45972 10.8503C9.4521 10.9404 10.616 11 11.9587 11C13.3013 11 14.4652 10.9404 15.4576 10.8503Z" fill="black"/>
<path d="M6.96297 10.6769C7.0098 8.90886 7.43644 7.0741 8.12843 5.6147C8.3119 5.22776 8.52212 4.85005 8.76077 4.49856C6.19621 5.33828 4.33223 7.15712 4.00869 9.3252C3.94834 9.72963 4.20823 10.095 4.6024 10.2037C5.09515 10.3397 5.87601 10.5214 6.96297 10.6769Z" fill="black"/>
<path d="M15.1566 4.49856C17.7211 5.33828 19.5851 7.15712 19.9086 9.3252C19.969 9.72963 19.7091 10.095 19.3149 10.2037C18.8222 10.3397 18.0413 10.5214 16.9544 10.6768C16.9075 8.90886 16.4809 7.0741 15.7889 5.6147C15.6054 5.22776 15.3952 4.85005 15.1566 4.49856Z" fill="black"/>
<path d="M11.2087 17.0179V12.5H12.7087V17.0179C14.9793 17.1282 16.4679 17.7336 17.4203 18.3704C18.3135 18.9676 17.7674 20 16.6929 20H7.22443C6.14992 20 5.6038 18.9676 6.49704 18.3704C7.44943 17.7336 8.93801 17.1282 11.2087 17.0179Z" fill="black"/>
</svg>
