<svg width="24" height="24" viewBox="0 0 24 24" fill="none" xmlns="http://www.w3.org/2000/svg">
<path d="M20.8944 6.44721C21.1414 5.95323 20.9412 5.35256 20.4472 5.10557C19.9532 4.85858 19.3526 5.05881 19.1056 5.55278L18.1056 7.55278C17.9648 7.83431 17.9648 8.16568 18.1056 8.44721L18.882 10L18.1056 11.5528C17.9648 11.8343 17.9648 12.1657 18.1056 12.4472L18.882 14L18.1056 15.5528C17.9648 15.8343 17.9648 16.1657 18.1056 16.4472L19.1056 18.4472C19.3526 18.9412 19.9532 19.1414 20.4472 18.8944C20.9412 18.6474 21.1414 18.0468 20.8944 17.5528L20.118 16L20.8944 14.4472C21.0352 14.1657 21.0352 13.8343 20.8944 13.5528L20.118 12L20.8944 10.4472C21.0352 10.1657 21.0352 9.83431 20.8944 9.55278L20.118 8L20.8944 6.44721Z" fill="black"/>
<path d="M16.5 6.54927V12.9645L10.7371 7.2016L14.2715 5.23804C15.2713 4.6826 16.5 5.40555 16.5 6.54927Z" fill="black"/>
<path d="M5.29289 5.29289C5.6834 4.90239 6.31651 4.90237 6.70704 5.29283L16.5 15.0858V17.4507C16.5 18.5945 15.2713 19.3174 14.2715 18.762L7.5 15H5.5C4.67157 15 4 14.3284 4 13.5V10.5C4 9.67158 4.67157 9 5.5 9H6V15L7.5 15V9L7.55515 8.96936L5.29289 6.7071C4.90237 6.31658 4.90237 5.68342 5.29289 5.29289Z" fill="black"/>
</svg>
