<svg width="24" height="24" viewBox="0 0 24 24" fill="none" xmlns="http://www.w3.org/2000/svg">
<path fill-rule="evenodd" clip-rule="evenodd" d="M5 6C3.89543 6 3 6.89543 3 8V16C3 17.1046 3.89543 18 5 18H13C14.1046 18 15 17.1046 15 16V8C15 6.89543 14.1046 6 13 6H5ZM5 9C5 8.44772 5.44772 8 6 8C6.55228 8 7 8.44772 7 9C7 9.55228 6.55228 10 6 10C5.44772 10 5 9.55228 5 9ZM8.5 9C8.5 8.44772 8.94772 8 9.5 8C10.0523 8 10.5 8.44772 10.5 9C10.5 9.55228 10.0523 10 9.5 10C8.94772 10 8.5 9.55228 8.5 9Z" fill="black"/>
<path d="M16.5 9L19.5144 7.32536C20.1809 6.95506 21 7.43703 21 8.19951V15.8005C21 16.563 20.1809 17.0449 19.5144 16.6746L16.5 15V9Z" fill="black"/>
</svg>
