<svg width="24" height="24" viewBox="0 0 24 24" fill="none" xmlns="http://www.w3.org/2000/svg">
<path fill-rule="evenodd" clip-rule="evenodd" d="M4 11C4 9.89544 4.89543 9.00001 6 9.00001H12C13.1046 9.00001 14 9.89544 14 11V17C14 18.1046 13.1046 19 12 19H6C4.89543 19 4 18.1046 4 17V11ZM5.5 11.5C5.5 10.9477 5.94772 10.5 6.5 10.5C7.05228 10.5 7.5 10.9477 7.5 11.5C7.5 12.0523 7.05228 12.5 6.5 12.5C5.94772 12.5 5.5 12.0523 5.5 11.5ZM10 10.5C9.44772 10.5 9 10.9477 9 11.5C9 12.0523 9.44772 12.5 10 12.5C10.5523 12.5 11 12.0523 11 11.5C11 10.9477 10.5523 10.5 10 10.5Z" fill="black"/>
<path d="M15.5 12L18.5144 10.3254C19.1809 9.95507 20 10.437 20 11.1995V16.8005C20 17.563 19.1809 18.0449 18.5144 17.6746L15.5 16V12Z" fill="black"/>
<path fill-rule="evenodd" clip-rule="evenodd" d="M12.9352 6.78543C13.094 6.40285 13.5328 6.22141 13.9154 6.38016C15.1382 6.88758 16.1151 7.86524 16.6216 9.08855C16.78 9.47126 16.5982 9.90995 16.2155 10.0684C15.8328 10.2268 15.3941 10.045 15.2356 9.66232C14.8813 8.80639 14.1961 8.12065 13.3405 7.76561C12.9579 7.60686 12.7764 7.16801 12.9352 6.78543Z" fill="black"/>
<path fill-rule="evenodd" clip-rule="evenodd" d="M13.9869 4.24397C14.1456 3.86135 14.5844 3.67982 14.967 3.8385C16.8613 4.62412 18.3756 6.13833 19.1613 8.03255C19.32 8.41516 19.1384 8.85397 18.7558 9.01268C18.3732 9.17138 17.9344 8.98987 17.7757 8.60726C17.1422 7.08005 15.9196 5.85747 14.3924 5.22407C14.0098 5.06539 13.8282 4.62658 13.9869 4.24397Z" fill="black"/>
</svg>
