<svg width="24" height="24" viewBox="0 0 24 24" fill="none" xmlns="http://www.w3.org/2000/svg">
<path fill-rule="evenodd" clip-rule="evenodd" d="M18.0452 4C19.1241 4 20 4.87594 20 5.95481V18.0452C20 19.1241 19.1241 20 18.0452 20H5.95481C4.87594 20 4 19.1241 4 18.0452V5.95481C4 4.87594 4.87591 4 5.95481 4L18.0452 4ZM17.1994 10.0274C17.1507 11.0919 16.4072 12.5495 14.9687 14.3998C13.4817 16.3321 12.2234 17.2985 11.1945 17.2985C10.5568 17.2985 10.0172 16.7104 9.57653 15.5332C9.28228 14.4542 8.98828 13.3753 8.69375 12.2963C8.36647 11.1199 8.01544 10.5309 7.63997 10.5309C7.55809 10.5309 7.27181 10.7031 6.78153 11.046L6.26706 10.3833C6.80691 9.90909 7.33928 9.43497 7.86309 8.96C8.58303 8.33819 9.12387 8.011 9.48409 7.97794C10.3351 7.89609 10.859 8.47794 11.0556 9.72319C11.2682 11.0668 11.4153 11.9025 11.4978 12.2294C11.7435 13.3444 12.0136 13.9012 12.3082 13.9012C12.5368 13.9012 12.8809 13.5397 13.3396 12.8162C13.7974 12.0934 14.0427 11.5432 14.0758 11.1651C14.1413 10.541 13.8958 10.2283 13.3396 10.2283C13.0777 10.2283 12.8077 10.2885 12.5299 10.4076C13.0676 8.64719 14.0947 7.79228 15.6103 7.84097C16.7333 7.874 17.2635 8.60162 17.1994 10.0274Z" fill="black"/>
</svg>
