<svg width="24" height="24" viewBox="0 0 24 24" fill="none" xmlns="http://www.w3.org/2000/svg">
<path d="M18.7109 17.2967C18.7096 17.2954 18.7084 17.2942 18.7071 17.2929L6.70711 5.29289C6.31658 4.90243 5.6834 4.90239 5.29289 5.29289C4.90237 5.68342 4.90237 6.31658 5.29289 6.7071L7.55515 8.96936L7.5 9V15L14.2715 18.762C15.146 19.2478 16.1957 18.7556 16.445 17.8592L17.2929 18.7071C17.6834 19.0976 18.3166 19.0976 18.7071 18.7071C19.0964 18.3178 19.0976 17.6875 18.7109 17.2967Z" fill="black"/>
<path d="M6 15V9H5.5C4.67157 9 4 9.67157 4 10.5V13.5C4 14.3284 4.67157 15 5.5 15H6Z" fill="black"/>
<path d="M10.7371 7.2016L16.5 12.9645V6.54927C16.5 5.40554 15.2713 4.68259 14.2715 5.23803L10.7371 7.2016Z" fill="black"/>
</svg>
