<svg width="24" height="24" viewBox="0 0 24 24" fill="none" xmlns="http://www.w3.org/2000/svg">
<path d="M8.91416 4.91415L10.9999 6.99994L6.99994 10.9999L4.91416 8.91415C4.13311 8.1331 4.13311 6.86677 4.91416 6.08573L6.08573 4.91415C6.86678 4.1331 8.13311 4.1331 8.91416 4.91415Z" fill="black"/>
<path d="M12.5002 8.49995L20.586 16.5857C21.3671 17.3668 21.3671 18.6331 20.586 19.4142L19.4144 20.5857C18.6334 21.3668 17.3671 21.3668 16.586 20.5857L8.50023 12.4999L12.5002 8.49995Z" fill="black"/>
<path d="M14.9827 3.33967C14.8995 3.12864 14.6008 3.12864 14.5176 3.33967L14.2243 4.0833C14.1989 4.14773 14.1479 4.19873 14.0835 4.22415L13.3399 4.51743C13.1288 4.60066 13.1288 4.89933 13.3399 4.98256L14.0835 5.27584C14.1479 5.30126 14.1989 5.35226 14.2243 5.41669L14.5176 6.16032C14.6008 6.37135 14.8995 6.37135 14.9827 6.16032L15.276 5.41669C15.3014 5.35226 15.3524 5.30126 15.4169 5.27584L16.1605 4.98256C16.3715 4.89933 16.3715 4.60066 16.1605 4.51743L15.4169 4.22415C15.3524 4.19873 15.3014 4.14773 15.276 4.0833L14.9827 3.33967Z" fill="black"/>
<path d="M18.2158 4.92935C18.0493 4.50727 17.452 4.50727 17.2855 4.92935L16.699 6.41661C16.6482 6.54547 16.5462 6.64747 16.4173 6.69829L14.93 7.28486C14.508 7.45132 14.508 8.04866 14.93 8.21512L16.4173 8.80169C16.5462 8.85251 16.6482 8.95451 16.699 9.08337L17.2855 10.5706C17.452 10.9927 18.0493 10.9927 18.2158 10.5706L18.8024 9.08337C18.8532 8.95451 18.9552 8.85251 19.0841 8.80169L20.5713 8.21512C20.9934 8.04866 20.9934 7.45132 20.5713 7.28486L19.0841 6.69829C18.9552 6.64747 18.8532 6.54547 18.8024 6.41661L18.2158 4.92935Z" fill="black"/>
</svg>
