<svg width="24" height="24" viewBox="0 0 24 24" fill="none" xmlns="http://www.w3.org/2000/svg">
<path d="M8.91422 4.91415L11 6.99994L7 10.9999L4.91422 8.91415C4.13317 8.1331 4.13317 6.86677 4.91422 6.08573L6.08579 4.91415C6.86684 4.1331 8.13317 4.1331 8.91422 4.91415Z" fill="black"/>
<path d="M12.5003 8.49995L20.5861 16.5857C21.3671 17.3668 21.3671 18.6331 20.5861 19.4142L19.4145 20.5857C18.6335 21.3668 17.3671 21.3668 16.5861 20.5857L8.50029 12.4999L12.5003 8.49995Z" fill="black"/>
<path d="M14.9828 3.33967C14.8996 3.12864 14.6009 3.12864 14.5177 3.33967L14.2244 4.0833C14.199 4.14773 14.148 4.19873 14.0836 4.22415L13.3399 4.51743C13.1289 4.60066 13.1289 4.89933 13.3399 4.98256L14.0836 5.27584C14.148 5.30126 14.199 5.35226 14.2244 5.41669L14.5177 6.16032C14.6009 6.37135 14.8996 6.37135 14.9828 6.16032L15.2761 5.41669C15.3015 5.35226 15.3525 5.30126 15.4169 5.27584L16.1606 4.98256C16.3716 4.89933 16.3716 4.60066 16.1606 4.51743L15.4169 4.22415C15.3525 4.19873 15.3015 4.14773 15.2761 4.0833L14.9828 3.33967Z" fill="black"/>
<path d="M18.2159 4.92935C18.0494 4.50727 17.4521 4.50727 17.2856 4.92935L16.699 6.41661C16.6482 6.54547 16.5462 6.64747 16.4174 6.69829L14.9301 7.28486C14.508 7.45132 14.508 8.04866 14.9301 8.21512L16.4174 8.80169C16.5462 8.85251 16.6482 8.95451 16.699 9.08337L17.2856 10.5706C17.4521 10.9927 18.0494 10.9927 18.2159 10.5706L18.8024 9.08337C18.8533 8.95451 18.9553 8.85251 19.0841 8.80169L20.5714 8.21512C20.9934 8.04866 20.9934 7.45132 20.5714 7.28486L19.0841 6.69829C18.9553 6.64747 18.8533 6.54547 18.8024 6.41661L18.2159 4.92935Z" fill="black"/>
</svg>
