<svg width="24" height="24" viewBox="0 0 24 24" fill="none" xmlns="http://www.w3.org/2000/svg">
<path fill-rule="evenodd" clip-rule="evenodd" d="M11.9927 5.04572C12.9264 5.04493 13.6841 5.80119 13.6852 6.73487L13.6965 16.7873C13.6976 17.721 12.9415 18.4785 12.0078 18.4793C11.0742 18.4801 10.3164 17.7239 10.3154 16.7902L10.304 6.73774C10.303 5.80406 11.059 5.04652 11.9927 5.04572Z" fill="black"/>
<path fill-rule="evenodd" clip-rule="evenodd" d="M5.55689 7.38691C6.49058 7.38649 7.24907 8.14304 7.25104 9.07672L7.26236 14.4469C7.26433 15.3806 6.50902 16.1378 5.57534 16.1382C4.64166 16.1387 3.88317 15.3821 3.8812 14.4484L3.86988 9.07825C3.86791 8.14457 4.62321 7.38733 5.55689 7.38691Z" fill="black"/>
<path fill-rule="evenodd" clip-rule="evenodd" d="M18.4249 7.38691C19.3586 7.38649 20.1171 8.14304 20.1191 9.07672L20.1304 14.4469C20.1324 15.3806 19.3771 16.1378 18.4434 16.1382C17.5097 16.1387 16.7512 15.3821 16.7492 14.4484L16.7379 9.07825C16.7359 8.14457 17.4912 7.38733 18.4249 7.38691Z" fill="black"/>
</svg>
