<svg width="24" height="24" viewBox="0 0 24 24" fill="none" xmlns="http://www.w3.org/2000/svg">
<path fill-rule="evenodd" clip-rule="evenodd" d="M18.7306 17.458C19.8101 16.6753 20.5 15.5186 20.5 14.2323C20.5 11.8764 18.2071 9.96599 15.3795 9.96599C12.5518 9.96599 10.2589 11.8764 10.2589 14.2323C10.2589 16.5889 12.5518 18.4993 15.3795 18.4993C15.9638 18.4993 16.5277 18.4164 17.0511 18.2655L17.2013 18.2428C17.2998 18.2428 17.389 18.2733 17.4733 18.3215L18.5946 18.9689L18.693 19.0007C18.7873 19.0007 18.8638 18.9242 18.8638 18.83L18.8361 18.7054L18.6052 17.8448L18.5875 17.7357C18.5875 17.6209 18.6442 17.5196 18.7306 17.458ZM9.64479 5.25488C6.25117 5.25488 3.5 7.54704 3.5 10.3754C3.5 11.9181 4.32733 13.3072 5.62287 14.2457C5.727 14.3194 5.795 14.4412 5.795 14.5793L5.77375 14.7097L5.49679 15.7424L5.4635 15.8919C5.4635 16.0052 5.55558 16.0973 5.66821 16.0973L5.78721 16.059L7.13233 15.282C7.23292 15.2239 7.33987 15.1878 7.45817 15.1878L7.63879 15.2147C8.26638 15.3953 8.94354 15.4959 9.64479 15.4959L9.98196 15.4874C9.84879 15.0879 9.77583 14.6672 9.77583 14.233C9.77583 11.6539 12.2847 9.56295 15.3795 9.56295L15.7131 9.57145C15.2505 7.12558 12.7098 5.25488 9.64479 5.25488ZM13.6724 13.5501C13.2955 13.5501 12.9903 13.2441 12.9903 12.8673C12.9903 12.4898 13.2955 12.1845 13.6724 12.1845C14.0499 12.1845 14.3552 12.4898 14.3552 12.8673C14.3552 13.2441 14.0499 13.5501 13.6724 13.5501ZM17.0865 13.5501C16.709 13.5501 16.4037 13.2441 16.4037 12.8673C16.4037 12.4898 16.709 12.1845 17.0865 12.1845C17.4634 12.1845 17.7687 12.4898 17.7687 12.8673C17.7687 13.2441 17.4634 13.5501 17.0865 13.5501ZM7.59629 9.55587C7.14367 9.55587 6.77746 9.18895 6.77746 8.73704C6.77746 8.28441 7.14367 7.9175 7.59629 7.9175C8.04892 7.9175 8.41583 8.28441 8.41583 8.73704C8.41583 9.18895 8.04892 9.55587 7.59629 9.55587ZM11.6926 9.55587C11.24 9.55587 10.8737 9.18895 10.8737 8.73704C10.8737 8.28441 11.24 7.9175 11.6926 7.9175C12.1452 7.9175 12.5121 8.28441 12.5121 8.73704C12.5121 9.18895 12.1452 9.55587 11.6926 9.55587Z" fill="black"/>
</svg>
