<svg width="24" height="24" viewBox="0 0 24 24" fill="none" xmlns="http://www.w3.org/2000/svg">
<path fill-rule="evenodd" clip-rule="evenodd" d="M18.7306 17.457C19.8101 16.6743 20.5 15.5176 20.5 14.2313C20.5 11.8754 18.2071 9.96501 15.3795 9.96501C12.5518 9.96501 10.2589 11.8754 10.2589 14.2313C10.2589 16.5879 12.5518 18.4983 15.3795 18.4983C15.9638 18.4983 16.5277 18.4154 17.0511 18.2645L17.2013 18.2419C17.2998 18.2419 17.389 18.2723 17.4733 18.3205L18.5946 18.9679L18.693 18.9998C18.7873 18.9998 18.8638 18.9233 18.8638 18.8291L18.8361 18.7044L18.6052 17.8438L18.5875 17.7347C18.5875 17.6199 18.6442 17.5187 18.7306 17.457ZM9.64479 5.25391C6.25117 5.25391 3.5 7.54606 3.5 10.3744C3.5 11.9172 4.32733 13.3062 5.62287 14.2447C5.727 14.3184 5.795 14.4402 5.795 14.5784L5.77375 14.7087L5.49679 15.7415L5.4635 15.8909C5.4635 16.0042 5.55558 16.0963 5.66821 16.0963L5.78721 16.0581L7.13233 15.281C7.23292 15.223 7.33987 15.1868 7.45817 15.1868L7.63879 15.2137C8.26638 15.3944 8.94354 15.495 9.64479 15.495L9.98196 15.4865C9.84879 15.087 9.77583 14.6662 9.77583 14.232C9.77583 11.653 12.2847 9.56197 15.3795 9.56197L15.7131 9.57047C15.2505 7.12461 12.7098 5.25391 9.64479 5.25391ZM13.6724 13.5492C13.2955 13.5492 12.9903 13.2432 12.9903 12.8663C12.9903 12.4888 13.2955 12.1835 13.6724 12.1835C14.0499 12.1835 14.3552 12.4888 14.3552 12.8663C14.3552 13.2432 14.0499 13.5492 13.6724 13.5492ZM17.0865 13.5492C16.709 13.5492 16.4037 13.2432 16.4037 12.8663C16.4037 12.4888 16.709 12.1835 17.0865 12.1835C17.4634 12.1835 17.7687 12.4888 17.7687 12.8663C17.7687 13.2432 17.4634 13.5492 17.0865 13.5492ZM7.59629 9.55489C7.14367 9.55489 6.77746 9.18797 6.77746 8.73606C6.77746 8.28344 7.14367 7.91652 7.59629 7.91652C8.04892 7.91652 8.41583 8.28344 8.41583 8.73606C8.41583 9.18797 8.04892 9.55489 7.59629 9.55489ZM11.6926 9.55489C11.24 9.55489 10.8737 9.18797 10.8737 8.73606C10.8737 8.28344 11.24 7.91652 11.6926 7.91652C12.1452 7.91652 12.5121 8.28344 12.5121 8.73606C12.5121 9.18797 12.1452 9.55489 11.6926 9.55489Z" fill="black"/>
</svg>
