<svg width="24" height="24" viewBox="0 0 24 24" fill="none" xmlns="http://www.w3.org/2000/svg">
<path fill-rule="evenodd" clip-rule="evenodd" d="M12.0317 3C12.6292 3.00002 13.2141 3.05958 13.7808 3.17188L19.0049 3.17139V4.96826H20.8018L20.8027 10.127C20.926 10.719 20.9917 11.3321 20.9917 11.9595C20.9916 16.9078 16.98 20.9193 12.0317 20.9194C10.7112 20.9194 9.45453 20.6323 8.32324 20.1172L2.3501 21.6802L3.90576 15.7358C3.37116 14.587 3.07179 13.3064 3.07178 11.9595C3.07196 7.01126 7.08345 3.00007 12.0317 3ZM12.0317 4.47266C7.89675 4.47266 4.54492 7.82504 4.54492 11.96C4.54496 13.269 4.88076 14.4998 5.47119 15.5703L4.41211 19.6177L8.48193 18.5527C9.53828 19.1228 10.7471 19.4468 12.0317 19.4468C16.1665 19.4467 19.5184 16.0948 19.5186 11.96C19.5186 11.3456 19.4438 10.7486 19.3042 10.1772H18.0493C18.2255 10.7546 18.3208 11.3674 18.3208 12.0024C18.3208 15.4522 15.5239 18.2485 12.0742 18.2485C10.76 18.2485 9.5407 17.8427 8.53467 17.1494L6.29443 17.7354L6.88477 15.4795C6.21756 14.4856 5.82812 13.2895 5.82812 12.0024C5.82816 8.55284 8.62458 5.75644 12.0742 5.75635C12.713 5.75635 13.3293 5.85262 13.9097 6.03076V4.71045C13.3096 4.55542 12.6803 4.47266 12.0317 4.47266ZM9.42871 8.37256C9.17747 8.37256 8.91668 8.44642 8.75977 8.60693C8.56874 8.80242 8.09131 9.26047 8.09131 10.2002C8.09143 11.1399 8.776 12.0477 8.87158 12.1753C8.96709 12.3026 10.2065 14.26 12.1348 15.0591C13.6399 15.6824 14.0866 15.6269 14.4302 15.5518C14.9296 15.4427 15.557 15.0747 15.7163 14.6289C15.8755 14.1827 15.8753 13.8001 15.8276 13.7207C15.7798 13.641 15.6526 13.5934 15.4614 13.4976C15.2703 13.4021 14.3316 12.9403 14.1562 12.8765C13.9813 12.8128 13.8192 12.8323 13.6846 13.0186C13.4986 13.2758 13.3199 13.5399 13.1719 13.6968C13.0557 13.8197 12.8684 13.8369 12.7075 13.7686C12.4959 13.6785 11.9009 13.4712 11.1714 12.8208C10.6039 12.3148 10.2204 11.6895 10.1089 11.498C9.99755 11.3069 10.0991 11.1928 10.1851 11.0889C10.283 10.9702 10.3733 10.8848 10.4688 10.7734C10.5644 10.6619 10.6176 10.6024 10.6812 10.4751C10.7448 10.3477 10.7019 10.2163 10.6543 10.1206C10.6065 10.0249 10.2241 9.0853 10.0654 8.70264C9.93901 8.39841 9.84236 8.38827 9.64746 8.37891C9.58049 8.37568 9.508 8.37256 9.42871 8.37256ZM16.2202 4.64404V6.44092H14.4233V7.75293H16.2202V9.5498H17.5322V7.75293H19.3291V6.44092H17.5322V4.64404H16.2202Z" fill="black"/>
</svg>
