<svg width="24" height="24" viewBox="0 0 24 24" fill="none" xmlns="http://www.w3.org/2000/svg">
<path fill-rule="evenodd" clip-rule="evenodd" d="M12.088 12.69C10.9906 12.69 10.0046 13.159 9.31619 13.9114C8.85018 14.4207 8.0595 14.4558 7.55017 13.9898C7.04084 13.5238 7.00572 12.7331 7.47174 12.2238C8.61379 10.9756 10.26 10.19 12.088 10.19C13.9159 10.19 15.5621 10.9756 16.7042 12.2238C17.1702 12.7331 17.1351 13.5238 16.6258 13.9898C16.1164 14.4558 15.3258 14.4207 14.8597 13.9114C14.1714 13.159 13.1853 12.69 12.088 12.69Z" fill="black"/>
<path fill-rule="evenodd" clip-rule="evenodd" d="M12.0882 8.30994C9.82307 8.30994 7.7812 9.25679 6.33312 10.7798C5.85742 11.2801 5.06622 11.3 4.56592 10.8243C4.06562 10.3486 4.04567 9.55739 4.52138 9.05709C6.42176 7.05843 9.11018 5.80994 12.0882 5.80994C15.0667 5.80994 17.7556 7.05893 19.6561 9.05827C20.1317 9.55865 20.1116 10.3499 19.6112 10.8255C19.1109 11.3011 18.3197 11.281 17.844 10.7807C16.3959 9.25716 14.3537 8.30994 12.0882 8.30994Z" fill="black"/>
<path d="M13.9459 16.4456C13.9459 17.4715 13.1142 18.3032 12.0882 18.3032C11.0623 18.3032 10.2306 17.4715 10.2306 16.4456C10.2306 15.4196 11.0623 14.5879 12.0882 14.5879C13.1142 14.5879 13.9459 15.4196 13.9459 16.4456Z" fill="black"/>
</svg>
