<svg width="24" height="24" viewBox="0 0 24 24" fill="none" xmlns="http://www.w3.org/2000/svg">
<path d="M7.3501 6C7.3501 7.10457 8.24553 8 9.3501 8C10.4547 8 11.3501 7.10457 11.3501 6C11.3501 4.89543 10.4547 4 9.3501 4C8.24553 4 7.3501 4.89543 7.3501 6Z" fill="black"/>
<path d="M4.8501 4.25C5.54045 4.25 6.1001 4.80964 6.1001 5.5V7C6.1001 8.44373 7.3501 9 8.42588 9H10.3501C10.7845 9 10.9981 9.25 11.2923 9.66404C11.6532 10.1721 12.1806 10.468 12.7251 10.5402V10C12.7251 9.44772 13.1728 9 13.7251 9H15.6493C16.8501 9 17.9751 8.44373 17.9751 7V5.5C17.9751 4.80964 18.5347 4.25 19.2251 4.25C19.9155 4.25 20.4751 4.80964 20.4751 5.5V7C20.4751 8.77685 19.4278 10.2818 17.9316 11.0088L18.4475 13.2784C18.4579 13.3243 18.465 13.3701 18.469 13.4155L19.6928 18.7189C19.8481 19.3916 19.4286 20.0628 18.7559 20.218C18.0833 20.3732 17.4121 19.9538 17.2569 19.2811L16.2461 14.9009C16.1919 14.6662 15.9829 14.5 15.7421 14.5C15.4564 14.5 15.2249 14.7316 15.2249 15.0172V19C15.2249 19.6904 14.6652 20.25 13.9749 20.25C13.2845 20.25 12.7249 19.6904 12.7249 19V13.552C12.2547 13.5232 11.7907 13.4203 11.3503 13.2486V19C11.3503 19.6904 10.7907 20.25 10.1003 20.25C9.40999 20.25 8.85034 19.6904 8.85034 19V15.0172C8.85034 14.7316 8.61877 14.5 8.33312 14.5C8.09227 14.5 7.88329 14.6662 7.82913 14.9009L6.81833 19.2811C6.6631 19.9538 5.99194 20.3732 5.31927 20.218C4.64659 20.0628 4.22712 19.3916 4.38235 18.7189L5.60623 13.4155C5.61019 13.3701 5.6173 13.3243 5.62774 13.2784L6.14356 11.0088C4.64736 10.2818 3.6001 8.77685 3.6001 7V5.5C3.6001 4.80964 4.15974 4.25 4.8501 4.25Z" fill="black"/>
<path d="M14.7251 8C15.8297 8 16.7251 7.10457 16.7251 6C16.7251 4.89543 15.8297 4 14.7251 4C13.6205 4 12.7251 4.89543 12.7251 6C12.7251 7.10457 13.6205 8 14.7251 8Z" fill="black"/>
</svg>
