<svg width="24" height="24" viewBox="0 0 24 24" fill="none" xmlns="http://www.w3.org/2000/svg">
<path fill-rule="evenodd" clip-rule="evenodd" d="M6.28657 5.14795C5.02373 5.14795 4 6.17168 4 7.43452V16.758C4 18.0208 5.02373 19.0446 6.28657 19.0446H17.7135C18.9763 19.0446 20.0001 18.0208 20.0001 16.758V7.43452C20.0001 6.17168 18.9764 5.14795 17.7135 5.14795H6.28657ZM6.95182 8.94807C7.4775 8.94807 7.90364 8.52193 7.90364 7.99625C7.90364 7.47058 7.4775 7.04443 6.95182 7.04443C6.42614 7.04443 6 7.47058 6 7.99625C6 8.52193 6.42614 8.94807 6.95182 8.94807ZM9.99088 8.94807C10.5166 8.94807 10.9427 8.52193 10.9427 7.99625C10.9427 7.47058 10.5166 7.04443 9.99088 7.04443C9.46521 7.04443 9.03906 7.47058 9.03906 7.99625C9.03906 8.52193 9.46521 8.94807 9.99088 8.94807ZM13.9813 7.99625C13.9813 8.52193 13.5551 8.94807 13.0295 8.94807C12.5038 8.94807 12.0776 8.52193 12.0776 7.99625C12.0776 7.47058 12.5038 7.04443 13.0295 7.04443C13.5551 7.04443 13.9813 7.47058 13.9813 7.99625Z" fill="black"/>
</svg>
