<svg width="24" height="24" viewBox="0 0 24 24" fill="none" xmlns="http://www.w3.org/2000/svg">
<path d="M4.2263 8.14558C4.24924 8.01685 4.40621 7.97193 4.49867 8.06439L6.42834 9.99407C7.09019 10.6559 8.16325 10.6559 8.8251 9.99407L10.3174 8.50174C10.9793 7.83989 10.9793 6.76682 10.3174 6.10498L8.38776 4.17531C8.2953 4.08285 8.34021 3.92587 8.46894 3.90294C10.1015 3.61203 11.8453 4.09734 13.1068 5.35886C14.5877 6.83974 14.999 8.98521 14.3406 10.8352L20.0965 16.5911C20.8775 17.3722 20.8775 18.6385 20.0965 19.4195L19.7429 19.7731C18.9619 20.5541 17.6956 20.5541 16.9145 19.7731L11.1586 14.0172C9.30862 14.6756 7.16312 14.2644 5.68222 12.7835C4.4207 11.522 3.93539 9.77816 4.2263 8.14558Z" fill="black"/>
<path d="M5.8734 6.41143C5.8734 5.85914 6.32112 5.41143 6.8734 5.41143H8.3734C8.92569 5.41143 9.3734 5.85914 9.3734 6.41143V7.91143C9.3734 8.46371 8.92569 8.91143 8.3734 8.91143H6.8734C6.32112 8.91143 5.8734 8.46371 5.8734 7.91143V6.41143Z" fill="black"/>
</svg>
