<svg width="24" height="24" viewBox="0 0 24 24" fill="none" xmlns="http://www.w3.org/2000/svg">
<path d="M4.2263 8.14472C4.24924 8.01599 4.40621 7.97108 4.49867 8.06354L6.42834 9.99321C7.09019 10.6551 8.16325 10.6551 8.8251 9.99321L10.3174 8.50088C10.9793 7.83904 10.9793 6.76597 10.3174 6.10412L8.38776 4.17445C8.2953 4.08199 8.34021 3.92502 8.46894 3.90208C10.1015 3.61117 11.8453 4.09648 13.1068 5.358C14.5877 6.83889 14.999 8.98436 14.3406 10.8344L20.0965 16.5903C20.8775 17.3713 20.8775 18.6376 20.0965 19.4187L19.7429 19.7722C18.9619 20.5533 17.6956 20.5533 16.9145 19.7722L11.1586 14.0164C9.30862 14.6748 7.16312 14.2635 5.68222 12.7826C4.4207 11.5211 3.93539 9.77731 4.2263 8.14472Z" fill="black"/>
<path d="M5.8734 6.41057C5.8734 5.85829 6.32112 5.41057 6.8734 5.41057H8.3734C8.92569 5.41057 9.3734 5.85829 9.3734 6.41057V7.91057C9.3734 8.46286 8.92569 8.91057 8.3734 8.91057H6.8734C6.32112 8.91057 5.8734 8.46286 5.8734 7.91057V6.41057Z" fill="black"/>
</svg>
