<svg width="35" height="39" viewBox="0 0 35 39" fill="none" xmlns="http://www.w3.org/2000/svg">
<path d="M22.825 11.9H19.5V11.425C19.5 10.6393 18.8606 10 18.075 10H16.175C15.3893 10 14.75 10.6393 14.75 11.425V11.9H11.425C10.6393 11.9 10 12.5393 10 13.325V14.275C10 14.8944 10.3971 15.4226 10.95 15.6183V27.575C10.95 28.3606 11.5893 29 12.375 29H21.875C22.6606 29 23.3 28.3606 23.3 27.575V15.6183C23.8529 15.4226 24.25 14.8944 24.25 14.275V13.325C24.25 12.5393 23.6106 11.9 22.825 11.9ZM15.7 11.425C15.7 11.1628 15.9128 10.95 16.175 10.95H18.075C18.3372 10.95 18.55 11.1628 18.55 11.425V11.9H15.7V11.425ZM21.875 28.05H12.375C12.1128 28.05 11.9 27.8372 11.9 27.575V15.7H22.35V27.575C22.35 27.8372 22.1372 28.05 21.875 28.05ZM23.3 14.275C23.3 14.5372 23.0872 14.75 22.825 14.75H11.425C11.1628 14.75 10.95 14.5372 10.95 14.275V13.325C10.95 13.0628 11.1628 12.85 11.425 12.85H22.825C23.0872 12.85 23.3 13.0628 23.3 13.325V14.275Z" fill="#BBBBBB"/>
<path d="M19.975 16.6504C19.7128 16.6504 19.5 16.8632 19.5 17.1254V26.6254C19.5 26.8876 19.7128 27.1004 19.975 27.1004C20.2372 27.1004 20.45 26.8876 20.45 26.6254V17.1254C20.45 16.8632 20.2372 16.6504 19.975 16.6504Z" fill="#BBBBBB"/>
<path d="M17.1249 16.6504C16.8627 16.6504 16.6499 16.8632 16.6499 17.1254V26.6254C16.6499 26.8876 16.8627 27.1004 17.1249 27.1004C17.3871 27.1004 17.5999 26.8876 17.5999 26.6254V17.1254C17.5999 16.8632 17.3871 16.6504 17.1249 16.6504Z" fill="#BBBBBB"/>
<path d="M14.275 16.6504C14.0128 16.6504 13.8 16.8632 13.8 17.1254V26.6254C13.8 26.8876 14.0128 27.1004 14.275 27.1004C14.5372 27.1004 14.75 26.8876 14.75 26.6254V17.1254C14.75 16.8632 14.5372 16.6504 14.275 16.6504Z" fill="#BBBBBB"/>
</svg>
